<svg version="1.1" 
 baseProfile="full" 
 width="500" 
 height="500" 
 xmlns="http://www.w3.org/2000/svg">
<rect x="0.0" y="0.0" width="500" height="500" fill="black" stroke="black" stroke-width="0" opacity="1"/>
<circle cx="250.0" cy="250.0" r="4.5" fill="white" stroke="black" stroke-width="0" fill-opacity="1"/>
<text x="245.0" y="270.0"  font-family="Recursive" fill="white" font-size="12" alignment-baseline="middle" text-anchor="middle" opacity="1"  transform="rotate(0,245.0,270.0)"> centre (0,0) </text>
<line x1="0.0" y1="250.0" x2="500.0" y2="250.0" stroke="yellow" stroke-width="1" opacity="1" stroke-linecap="butt"/>
<line x1="250.0" y1="0.0" x2="250.0" y2="500.0" stroke="yellow" stroke-width="1" opacity="1" stroke-linecap="butt"/>
<line x1="250.0" y1="250.0" x2="500.0" y2="250.0" stroke="white" stroke-width="1" opacity="1" stroke-linecap="butt"/>
<rect x="357.5" y="247.5" width="35.0" height="5.0" fill="black" stroke="black" stroke-width="1" opacity="1"/>
<text x="375.0" y="252.5"  font-family="Recursive" fill="white" font-size="10" alignment-baseline="middle" text-anchor="middle" opacity="1"  transform="rotate(0,375.0,252.5)"> xlim </text>
<line x1="250.0" y1="250.0" x2="250.0" y2="0.0" stroke="white" stroke-width="1" opacity="1" stroke-linecap="butt"/>
<rect x="240.0" y="116.25" width="20.0" height="17.5" fill="black" stroke="black" stroke-width="1" opacity="1"/>
<text x="247.5" y="125.0"  font-family="Recursive" fill="white" font-size="10" alignment-baseline="middle" text-anchor="middle" opacity="1"  transform="rotate(0,247.5,125.0)"> ylim </text>
<line x1="25.0" y1="0.0" x2="25.0" y2="500.0" stroke="white" stroke-width="1" opacity="1" stroke-linecap="butt"/>
<polygon points="21.0 494.0, 25.0 504.0, 29.0 494.0, 25.0 496.0" fill="white"/><line x1="25.0" y1="500.0" x2="25.0" y2="0.0" stroke="white" stroke-width="1" opacity="1" stroke-linecap="butt"/>
<polygon points="29.0 6.000000000000001, 25.0 -4.0, 21.0 5.999999999999999, 25.0 4.0" fill="white"/><line x1="500.0" y1="475.0" x2="0.0" y2="475.0" stroke="white" stroke-width="1" opacity="1" stroke-linecap="butt"/>
<polygon points="6.000000000000001 471.0, -4.0 475.0, 5.999999999999999 479.0, 4.0 475.0" fill="white"/><line x1="0.0" y1="475.0" x2="500.0" y2="475.0" stroke="white" stroke-width="1" opacity="1" stroke-linecap="butt"/>
<polygon points="494.0 479.0, 504.0 475.0, 494.0 471.0, 496.0 475.0" fill="white"/><line x1="250.0" y1="250.0" x2="187.5" y2="280.0" stroke="white" stroke-width="1" opacity="1" stroke-linecap="butt"/>
<polygon points="191.17821407447056 273.79752136461826, 183.8939077701269 281.7309242703391, 194.64006261514874 281.00970582436446, 191.1060922298731 278.2690757296609" fill="white"/>
 </svg>