<svg version="1.1" 
 baseProfile="full" 
 width="400" 
 height="400" 
 xmlns="http://www.w3.org/2000/svg">
<rect x="0.0" y="0.0" width="400" height="400" fill="black" stroke="black" stroke-width="0" opacity="1"/>
<line x1="0.0" y1="0.0" x2="0.0" y2="400.0" stroke="white" stroke-width="1" opacity="0.4" stroke-linecap="butt"/>
<line x1="40.0" y1="0.0" x2="40.0" y2="400.0" stroke="white" stroke-width="1" opacity="0.4" stroke-linecap="butt"/>
<line x1="80.0" y1="0.0" x2="80.0" y2="400.0" stroke="white" stroke-width="1" opacity="0.4" stroke-linecap="butt"/>
<line x1="120.0" y1="0.0" x2="120.0" y2="400.0" stroke="white" stroke-width="1" opacity="0.4" stroke-linecap="butt"/>
<line x1="160.0" y1="0.0" x2="160.0" y2="400.0" stroke="white" stroke-width="1" opacity="0.4" stroke-linecap="butt"/>
<line x1="200.0" y1="0.0" x2="200.0" y2="400.0" stroke="white" stroke-width="1" opacity="0.4" stroke-linecap="butt"/>
<line x1="240.0" y1="0.0" x2="240.0" y2="400.0" stroke="white" stroke-width="1" opacity="0.4" stroke-linecap="butt"/>
<line x1="280.0" y1="0.0" x2="280.0" y2="400.0" stroke="white" stroke-width="1" opacity="0.4" stroke-linecap="butt"/>
<line x1="320.0" y1="0.0" x2="320.0" y2="400.0" stroke="white" stroke-width="1" opacity="0.4" stroke-linecap="butt"/>
<line x1="360.0" y1="0.0" x2="360.0" y2="400.0" stroke="white" stroke-width="1" opacity="0.4" stroke-linecap="butt"/>
<line x1="0.0" y1="0.0" x2="400.0" y2="0.0" stroke="white" stroke-width="1" opacity="0.4" stroke-linecap="butt"/>
<line x1="0.0" y1="40.0" x2="400.0" y2="40.0" stroke="white" stroke-width="1" opacity="0.4" stroke-linecap="butt"/>
<line x1="0.0" y1="80.0" x2="400.0" y2="80.0" stroke="white" stroke-width="1" opacity="0.4" stroke-linecap="butt"/>
<line x1="0.0" y1="120.0" x2="400.0" y2="120.0" stroke="white" stroke-width="1" opacity="0.4" stroke-linecap="butt"/>
<line x1="0.0" y1="160.0" x2="400.0" y2="160.0" stroke="white" stroke-width="1" opacity="0.4" stroke-linecap="butt"/>
<line x1="0.0" y1="200.0" x2="400.0" y2="200.0" stroke="white" stroke-width="1" opacity="0.4" stroke-linecap="butt"/>
<line x1="0.0" y1="240.0" x2="400.0" y2="240.0" stroke="white" stroke-width="1" opacity="0.4" stroke-linecap="butt"/>
<line x1="0.0" y1="280.0" x2="400.0" y2="280.0" stroke="white" stroke-width="1" opacity="0.4" stroke-linecap="butt"/>
<line x1="0.0" y1="320.0" x2="400.0" y2="320.0" stroke="white" stroke-width="1" opacity="0.4" stroke-linecap="butt"/>
<line x1="0.0" y1="360.0" x2="400.0" y2="360.0" stroke="white" stroke-width="1" opacity="0.4" stroke-linecap="butt"/>
<line x1="0.0" y1="200.0" x2="400.0" y2="200.0" stroke="yellow" stroke-width="2.5" opacity="1" stroke-linecap="butt"/>
<line x1="200.0" y1="0.0" x2="200.0" y2="400.0" stroke="yellow" stroke-width="2.5" opacity="1" stroke-linecap="butt"/>
<polygon points="391.0 204.0, 401.0 200.0, 391.0 196.0, 393.0 200.0" fill="yellow"/><polygon points="204.0 9.0, 200.0 -1.0, 196.0 9.0, 200.0 7.0" fill="yellow"/><image x="-60.0" y="-60.0" width="200" height="200" href="/Users/girirajhira/PycharmProjects/Giraphics3/Taylor/expr.png"/><polyline points="0.0, 222.5 0.17, 222.48 0.33, 222.46 0.5, 222.44 0.67, 222.42 0.83, 222.41 1.0, 222.39 1.17, 222.37 1.33, 222.35 1.5, 222.33 1.67, 222.31 1.83, 222.29 2.0, 222.28 2.17, 222.26 2.33, 222.24 2.5, 222.22 2.67, 222.2 2.83, 222.18 3.0, 222.16 3.17, 222.14 3.33, 222.12 3.5, 222.11 3.67, 222.09 3.83, 222.07 4.0, 222.05 4.17, 222.03 4.33, 222.01 4.5, 221.99 4.67, 221.98 4.83, 221.96 5.0, 221.94 5.17, 221.92 5.33, 221.9 5.5, 221.88 5.67, 221.86 5.83, 221.84 6.0, 221.82 6.17, 221.81 6.33, 221.79 6.5, 221.77 6.67, 221.75 6.83, 221.73 7.0, 221.71 7.17, 221.69 7.33, 221.68 7.5, 221.66 7.67, 221.64 7.83, 221.62 8.0, 221.6 8.17, 221.58 8.33, 221.56 8.5, 221.54 8.67, 221.52 8.83, 221.51 9.0, 221.49 9.17, 221.47 9.33, 221.45 9.5, 221.43 9.67, 221.41 9.83, 221.39 10.0, 221.38 10.17, 221.36 10.33, 221.34 10.5, 221.32 10.67, 221.3 10.83, 221.28 11.0, 221.26 11.17, 221.24 11.33, 221.22 11.5, 221.21 11.67, 221.19 11.83, 221.17 12.0, 221.15 12.17, 221.13 12.33, 221.11 12.5, 221.09 12.67, 221.08 12.83, 221.06 13.0, 221.04 13.17, 221.02 13.33, 221.0 13.5, 220.98 13.67, 220.96 13.83, 220.94 14.0, 220.92 14.17, 220.91 14.33, 220.89 14.5, 220.87 14.67, 220.85 14.83, 220.83 15.0, 220.81 15.17, 220.79 15.33, 220.78 15.5, 220.76 15.67, 220.74 15.83, 220.72 16.0, 220.7 16.17, 220.68 16.33, 220.66 16.5, 220.64 16.67, 220.62 16.83, 220.61 17.0, 220.59 17.17, 220.57 17.33, 220.55 17.5, 220.53 17.67, 220.51 17.83, 220.49 18.0, 220.48 18.17, 220.46 18.33, 220.44 18.5, 220.42 18.67, 220.4 18.83, 220.38 19.0, 220.36 19.17, 220.34 19.33, 220.32 19.5, 220.31 19.67, 220.29 19.83, 220.27 20.0, 220.25 20.17, 220.23 20.33, 220.21 20.5, 220.19 20.67, 220.18 20.83, 220.16 21.0, 220.14 21.17, 220.12 21.33, 220.1 21.5, 220.08 21.67, 220.06 21.83, 220.04 22.0, 220.02 22.17, 220.01 22.33, 219.99 22.5, 219.97 22.67, 219.95 22.83, 219.93 23.0, 219.91 23.17, 219.89 23.33, 219.88 23.5, 219.86 23.67, 219.84 23.83, 219.82 24.0, 219.8 24.17, 219.78 24.33, 219.76 24.5, 219.74 24.67, 219.72 24.83, 219.71 25.0, 219.69 25.17, 219.67 25.33, 219.65 25.5, 219.63 25.67, 219.61 25.83, 219.59 26.0, 219.58 26.17, 219.56 26.33, 219.54 26.5, 219.52 26.67, 219.5 26.83, 219.48 27.0, 219.46 27.17, 219.44 27.33, 219.42 27.5, 219.41 27.67, 219.39 27.83, 219.37 28.0, 219.35 28.17, 219.33 28.33, 219.31 28.5, 219.29 28.67, 219.28 28.83, 219.26 29.0, 219.24 29.17, 219.22 29.33, 219.2 29.5, 219.18 29.67, 219.16 29.83, 219.14 30.0, 219.12 30.17, 219.11 30.33, 219.09 30.5, 219.07 30.67, 219.05 30.83, 219.03 31.0, 219.01 31.17, 218.99 31.33, 218.98 31.5, 218.96 31.67, 218.94 31.83, 218.92 32.0, 218.9 32.17, 218.88 32.33, 218.86 32.5, 218.84 32.67, 218.82 32.83, 218.81 33.0, 218.79 33.17, 218.77 33.33, 218.75 33.5, 218.73 33.67, 218.71 33.83, 218.69 34.0, 218.68 34.17, 218.66 34.33, 218.64 34.5, 218.62 34.67, 218.6 34.83, 218.58 35.0, 218.56 35.17, 218.54 35.33, 218.52 35.5, 218.51 35.67, 218.49 35.83, 218.47 36.0, 218.45 36.17, 218.43 36.33, 218.41 36.5, 218.39 36.67, 218.38 36.83, 218.36 37.0, 218.34 37.17, 218.32 37.33, 218.3 37.5, 218.28 37.67, 218.26 37.83, 218.24 38.0, 218.22 38.17, 218.21 38.33, 218.19 38.5, 218.17 38.67, 218.15 38.83, 218.13 39.0, 218.11 39.17, 218.09 39.33, 218.08 39.5, 218.06 39.67, 218.04 39.83, 218.02 40.0, 218.0 40.17, 217.98 40.33, 217.96 40.5, 217.94 40.67, 217.92 40.83, 217.91 41.0, 217.89 41.17, 217.87 41.33, 217.85 41.5, 217.83 41.67, 217.81 41.83, 217.79 42.0, 217.78 42.17, 217.76 42.33, 217.74 42.5, 217.72 42.67, 217.7 42.83, 217.68 43.0, 217.66 43.17, 217.64 43.33, 217.62 43.5, 217.61 43.67, 217.59 43.83, 217.57 44.0, 217.55 44.17, 217.53 44.33, 217.51 44.5, 217.49 44.67, 217.48 44.83, 217.46 45.0, 217.44 45.17, 217.42 45.33, 217.4 45.5, 217.38 45.67, 217.36 45.83, 217.34 46.0, 217.32 46.17, 217.31 46.33, 217.29 46.5, 217.27 46.67, 217.25 46.83, 217.23 47.0, 217.21 47.17, 217.19 47.33, 217.18 47.5, 217.16 47.67, 217.14 47.83, 217.12 48.0, 217.1 48.17, 217.08 48.33, 217.06 48.5, 217.04 48.67, 217.02 48.83, 217.01 49.0, 216.99 49.17, 216.97 49.33, 216.95 49.5, 216.93 49.67, 216.91 49.83, 216.89 50.0, 216.88 50.17, 216.86 50.33, 216.84 50.5, 216.82 50.67, 216.8 50.83, 216.78 51.0, 216.76 51.17, 216.74 51.33, 216.72 51.5, 216.71 51.67, 216.69 51.83, 216.67 52.0, 216.65 52.17, 216.63 52.33, 216.61 52.5, 216.59 52.67, 216.58 52.83, 216.56 53.0, 216.54 53.17, 216.52 53.33, 216.5 53.5, 216.48 53.67, 216.46 53.83, 216.44 54.0, 216.42 54.17, 216.41 54.33, 216.39 54.5, 216.37 54.67, 216.35 54.83, 216.33 55.0, 216.31 55.17, 216.29 55.33, 216.28 55.5, 216.26 55.67, 216.24 55.83, 216.22 56.0, 216.2 56.17, 216.18 56.33, 216.16 56.5, 216.14 56.67, 216.12 56.83, 216.11 57.0, 216.09 57.17, 216.07 57.33, 216.05 57.5, 216.03 57.67, 216.01 57.83, 215.99 58.0, 215.98 58.17, 215.96 58.33, 215.94 58.5, 215.92 58.67, 215.9 58.83, 215.88 59.0, 215.86 59.17, 215.84 59.33, 215.82 59.5, 215.81 59.67, 215.79 59.83, 215.77 60.0, 215.75 60.17, 215.73 60.33, 215.71 60.5, 215.69 60.67, 215.68 60.83, 215.66 61.0, 215.64 61.17, 215.62 61.33, 215.6 61.5, 215.58 61.67, 215.56 61.83, 215.54 62.0, 215.52 62.17, 215.51 62.33, 215.49 62.5, 215.47 62.67, 215.45 62.83, 215.43 63.0, 215.41 63.17, 215.39 63.33, 215.38 63.5, 215.36 63.67, 215.34 63.83, 215.32 64.0, 215.3 64.17, 215.28 64.33, 215.26 64.5, 215.24 64.67, 215.22 64.83, 215.21 65.0, 215.19 65.17, 215.17 65.33, 215.15 65.5, 215.13 65.67, 215.11 65.83, 215.09 66.0, 215.08 66.17, 215.06 66.33, 215.04 66.5, 215.02 66.67, 215.0 66.83, 214.98 67.0, 214.96 67.17, 214.94 67.33, 214.92 67.5, 214.91 67.67, 214.89 67.83, 214.87 68.0, 214.85 68.17, 214.83 68.33, 214.81 68.5, 214.79 68.67, 214.78 68.83, 214.76 69.0, 214.74 69.17, 214.72 69.33, 214.7 69.5, 214.68 69.67, 214.66 69.83, 214.64 70.0, 214.62 70.17, 214.61 70.33, 214.59 70.5, 214.57 70.67, 214.55 70.83, 214.53 71.0, 214.51 71.17, 214.49 71.33, 214.48 71.5, 214.46 71.67, 214.44 71.83, 214.42 72.0, 214.4 72.17, 214.38 72.33, 214.36 72.5, 214.34 72.67, 214.32 72.83, 214.31 73.0, 214.29 73.17, 214.27 73.33, 214.25 73.5, 214.23 73.67, 214.21 73.83, 214.19 74.0, 214.18 74.17, 214.16 74.33, 214.14 74.5, 214.12 74.67, 214.1 74.83, 214.08 75.0, 214.06 75.17, 214.04 75.33, 214.02 75.5, 214.01 75.67, 213.99 75.83, 213.97 76.0, 213.95 76.17, 213.93 76.33, 213.91 76.5, 213.89 76.67, 213.88 76.83, 213.86 77.0, 213.84 77.17, 213.82 77.33, 213.8 77.5, 213.78 77.67, 213.76 77.83, 213.74 78.0, 213.72 78.17, 213.71 78.33, 213.69 78.5, 213.67 78.67, 213.65 78.83, 213.63 79.0, 213.61 79.17, 213.59 79.33, 213.58 79.5, 213.56 79.67, 213.54 79.83, 213.52 80.0, 213.5 80.17, 213.48 80.33, 213.46 80.5, 213.44 80.67, 213.42 80.83, 213.41 81.0, 213.39 81.17, 213.37 81.33, 213.35 81.5, 213.33 81.67, 213.31 81.83, 213.29 82.0, 213.28 82.17, 213.26 82.33, 213.24 82.5, 213.22 82.67, 213.2 82.83, 213.18 83.0, 213.16 83.17, 213.14 83.33, 213.12 83.5, 213.11 83.67, 213.09 83.83, 213.07 84.0, 213.05 84.17, 213.03 84.33, 213.01 84.5, 212.99 84.67, 212.98 84.83, 212.96 85.0, 212.94 85.17, 212.92 85.33, 212.9 85.5, 212.88 85.67, 212.86 85.83, 212.84 86.0, 212.82 86.17, 212.81 86.33, 212.79 86.5, 212.77 86.67, 212.75 86.83, 212.73 87.0, 212.71 87.17, 212.69 87.33, 212.68 87.5, 212.66 87.67, 212.64 87.83, 212.62 88.0, 212.6 88.17, 212.58 88.33, 212.56 88.5, 212.54 88.67, 212.52 88.83, 212.51 89.0, 212.49 89.17, 212.47 89.33, 212.45 89.5, 212.43 89.67, 212.41 89.83, 212.39 90.0, 212.38 90.17, 212.36 90.33, 212.34 90.5, 212.32 90.67, 212.3 90.83, 212.28 91.0, 212.26 91.17, 212.24 91.33, 212.22 91.5, 212.21 91.67, 212.19 91.83, 212.17 92.0, 212.15 92.17, 212.13 92.33, 212.11 92.5, 212.09 92.67, 212.08 92.83, 212.06 93.0, 212.04 93.17, 212.02 93.33, 212.0 93.5, 211.98 93.67, 211.96 93.83, 211.94 94.0, 211.92 94.17, 211.91 94.33, 211.89 94.5, 211.87 94.67, 211.85 94.83, 211.83 95.0, 211.81 95.17, 211.79 95.33, 211.78 95.5, 211.76 95.67, 211.74 95.83, 211.72 96.0, 211.7 96.17, 211.68 96.33, 211.66 96.5, 211.64 96.67, 211.62 96.83, 211.61 97.0, 211.59 97.17, 211.57 97.33, 211.55 97.5, 211.53 97.67, 211.51 97.83, 211.49 98.0, 211.48 98.17, 211.46 98.33, 211.44 98.5, 211.42 98.67, 211.4 98.83, 211.38 99.0, 211.36 99.17, 211.34 99.33, 211.32 99.5, 211.31 99.67, 211.29 99.83, 211.27 100.0, 211.25 100.17, 211.23 100.33, 211.21 100.5, 211.19 100.67, 211.18 100.83, 211.16 101.0, 211.14 101.17, 211.12 101.33, 211.1 101.5, 211.08 101.67, 211.06 101.83, 211.04 102.0, 211.02 102.17, 211.01 102.33, 210.99 102.5, 210.97 102.67, 210.95 102.83, 210.93 103.0, 210.91 103.17, 210.89 103.33, 210.88 103.5, 210.86 103.67, 210.84 103.83, 210.82 104.0, 210.8 104.17, 210.78 104.33, 210.76 104.5, 210.74 104.67, 210.72 104.83, 210.71 105.0, 210.69 105.17, 210.67 105.33, 210.65 105.5, 210.63 105.67, 210.61 105.83, 210.59 106.0, 210.58 106.17, 210.56 106.33, 210.54 106.5, 210.52 106.67, 210.5 106.83, 210.48 107.0, 210.46 107.17, 210.44 107.33, 210.42 107.5, 210.41 107.67, 210.39 107.83, 210.37 108.0, 210.35 108.17, 210.33 108.33, 210.31 108.5, 210.29 108.67, 210.28 108.83, 210.26 109.0, 210.24 109.17, 210.22 109.33, 210.2 109.5, 210.18 109.67, 210.16 109.83, 210.14 110.0, 210.12 110.17, 210.11 110.33, 210.09 110.5, 210.07 110.67, 210.05 110.83, 210.03 111.0, 210.01 111.17, 209.99 111.33, 209.98 111.5, 209.96 111.67, 209.94 111.83, 209.92 112.0, 209.9 112.17, 209.88 112.33, 209.86 112.5, 209.84 112.67, 209.82 112.83, 209.81 113.0, 209.79 113.17, 209.77 113.33, 209.75 113.5, 209.73 113.67, 209.71 113.83, 209.69 114.0, 209.68 114.17, 209.66 114.33, 209.64 114.5, 209.62 114.67, 209.6 114.83, 209.58 115.0, 209.56 115.17, 209.54 115.33, 209.52 115.5, 209.51 115.67, 209.49 115.83, 209.47 116.0, 209.45 116.17, 209.43 116.33, 209.41 116.5, 209.39 116.67, 209.38 116.83, 209.36 117.0, 209.34 117.17, 209.32 117.33, 209.3 117.5, 209.28 117.67, 209.26 117.83, 209.24 118.0, 209.22 118.17, 209.21 118.33, 209.19 118.5, 209.17 118.67, 209.15 118.83, 209.13 119.0, 209.11 119.17, 209.09 119.33, 209.08 119.5, 209.06 119.67, 209.04 119.83, 209.02 120.0, 209.0 120.17, 208.98 120.33, 208.96 120.5, 208.94 120.67, 208.92 120.83, 208.91 121.0, 208.89 121.17, 208.87 121.33, 208.85 121.5, 208.83 121.67, 208.81 121.83, 208.79 122.0, 208.78 122.17, 208.76 122.33, 208.74 122.5, 208.72 122.67, 208.7 122.83, 208.68 123.0, 208.66 123.17, 208.64 123.33, 208.62 123.5, 208.61 123.67, 208.59 123.83, 208.57 124.0, 208.55 124.17, 208.53 124.33, 208.51 124.5, 208.49 124.67, 208.48 124.83, 208.46 125.0, 208.44 125.17, 208.42 125.33, 208.4 125.5, 208.38 125.67, 208.36 125.83, 208.34 126.0, 208.32 126.17, 208.31 126.33, 208.29 126.5, 208.27 126.67, 208.25 126.83, 208.23 127.0, 208.21 127.17, 208.19 127.33, 208.18 127.5, 208.16 127.67, 208.14 127.83, 208.12 128.0, 208.1 128.17, 208.08 128.33, 208.06 128.5, 208.04 128.67, 208.02 128.83, 208.01 129.0, 207.99 129.17, 207.97 129.33, 207.95 129.5, 207.93 129.67, 207.91 129.83, 207.89 130.0, 207.88 130.17, 207.86 130.33, 207.84 130.5, 207.82 130.67, 207.8 130.83, 207.78 131.0, 207.76 131.17, 207.74 131.33, 207.72 131.5, 207.71 131.67, 207.69 131.83, 207.67 132.0, 207.65 132.17, 207.63 132.33, 207.61 132.5, 207.59 132.67, 207.58 132.83, 207.56 133.0, 207.54 133.17, 207.52 133.33, 207.5 133.5, 207.48 133.67, 207.46 133.83, 207.44 134.0, 207.42 134.17, 207.41 134.33, 207.39 134.5, 207.37 134.67, 207.35 134.83, 207.33 135.0, 207.31 135.17, 207.29 135.33, 207.28 135.5, 207.26 135.67, 207.24 135.83, 207.22 136.0, 207.2 136.17, 207.18 136.33, 207.16 136.5, 207.14 136.67, 207.12 136.83, 207.11 137.0, 207.09 137.17, 207.07 137.33, 207.05 137.5, 207.03 137.67, 207.01 137.83, 206.99 138.0, 206.98 138.17, 206.96 138.33, 206.94 138.5, 206.92 138.67, 206.9 138.83, 206.88 139.0, 206.86 139.17, 206.84 139.33, 206.82 139.5, 206.81 139.67, 206.79 139.83, 206.77 140.0, 206.75 140.17, 206.73 140.33, 206.71 140.5, 206.69 140.67, 206.68 140.83, 206.66 141.0, 206.64 141.17, 206.62 141.33, 206.6 141.5, 206.58 141.67, 206.56 141.83, 206.54 142.0, 206.52 142.17, 206.51 142.33, 206.49 142.5, 206.47 142.67, 206.45 142.83, 206.43 143.0, 206.41 143.17, 206.39 143.33, 206.38 143.5, 206.36 143.67, 206.34 143.83, 206.32 144.0, 206.3 144.17, 206.28 144.33, 206.26 144.5, 206.24 144.67, 206.22 144.83, 206.21 145.0, 206.19 145.17, 206.17 145.33, 206.15 145.5, 206.13 145.67, 206.11 145.83, 206.09 146.0, 206.08 146.17, 206.06 146.33, 206.04 146.5, 206.02 146.67, 206.0 146.83, 205.98 147.0, 205.96 147.17, 205.94 147.33, 205.92 147.5, 205.91 147.67, 205.89 147.83, 205.87 148.0, 205.85 148.17, 205.83 148.33, 205.81 148.5, 205.79 148.67, 205.78 148.83, 205.76 149.0, 205.74 149.17, 205.72 149.33, 205.7 149.5, 205.68 149.67, 205.66 149.83, 205.64 150.0, 205.62 150.17, 205.61 150.33, 205.59 150.5, 205.57 150.67, 205.55 150.83, 205.53 151.0, 205.51 151.17, 205.49 151.33, 205.48 151.5, 205.46 151.67, 205.44 151.83, 205.42 152.0, 205.4 152.17, 205.38 152.33, 205.36 152.5, 205.34 152.67, 205.32 152.83, 205.31 153.0, 205.29 153.17, 205.27 153.33, 205.25 153.5, 205.23 153.67, 205.21 153.83, 205.19 154.0, 205.18 154.17, 205.16 154.33, 205.14 154.5, 205.12 154.67, 205.1 154.83, 205.08 155.0, 205.06 155.17, 205.04 155.33, 205.02 155.5, 205.01 155.67, 204.99 155.83, 204.97 156.0, 204.95 156.17, 204.93 156.33, 204.91 156.5, 204.89 156.67, 204.88 156.83, 204.86 157.0, 204.84 157.17, 204.82 157.33, 204.8 157.5, 204.78 157.67, 204.76 157.83, 204.74 158.0, 204.72 158.17, 204.71 158.33, 204.69 158.5, 204.67 158.67, 204.65 158.83, 204.63 159.0, 204.61 159.17, 204.59 159.33, 204.58 159.5, 204.56 159.67, 204.54 159.83, 204.52 160.0, 204.5 160.17, 204.48 160.33, 204.46 160.5, 204.44 160.67, 204.42 160.83, 204.41 161.0, 204.39 161.17, 204.37 161.33, 204.35 161.5, 204.33 161.67, 204.31 161.83, 204.29 162.0, 204.28 162.17, 204.26 162.33, 204.24 162.5, 204.22 162.67, 204.2 162.83, 204.18 163.0, 204.16 163.17, 204.14 163.33, 204.12 163.5, 204.11 163.67, 204.09 163.83, 204.07 164.0, 204.05 164.17, 204.03 164.33, 204.01 164.5, 203.99 164.67, 203.98 164.83, 203.96 165.0, 203.94 165.17, 203.92 165.33, 203.9 165.5, 203.88 165.67, 203.86 165.83, 203.84 166.0, 203.82 166.17, 203.81 166.33, 203.79 166.5, 203.77 166.67, 203.75 166.83, 203.73 167.0, 203.71 167.17, 203.69 167.33, 203.68 167.5, 203.66 167.67, 203.64 167.83, 203.62 168.0, 203.6 168.17, 203.58 168.33, 203.56 168.5, 203.54 168.67, 203.52 168.83, 203.51 169.0, 203.49 169.17, 203.47 169.33, 203.45 169.5, 203.43 169.67, 203.41 169.83, 203.39 170.0, 203.38 170.17, 203.36 170.33, 203.34 170.5, 203.32 170.67, 203.3 170.83, 203.28 171.0, 203.26 171.17, 203.24 171.33, 203.22 171.5, 203.21 171.67, 203.19 171.83, 203.17 172.0, 203.15 172.17, 203.13 172.33, 203.11 172.5, 203.09 172.67, 203.08 172.83, 203.06 173.0, 203.04 173.17, 203.02 173.33, 203.0 173.5, 202.98 173.67, 202.96 173.83, 202.94 174.0, 202.92 174.17, 202.91 174.33, 202.89 174.5, 202.87 174.67, 202.85 174.83, 202.83 175.0, 202.81 175.17, 202.79 175.33, 202.78 175.5, 202.76 175.67, 202.74 175.83, 202.72 176.0, 202.7 176.17, 202.68 176.33, 202.66 176.5, 202.64 176.67, 202.62 176.83, 202.61 177.0, 202.59 177.17, 202.57 177.33, 202.55 177.5, 202.53 177.67, 202.51 177.83, 202.49 178.0, 202.48 178.17, 202.46 178.33, 202.44 178.5, 202.42 178.67, 202.4 178.83, 202.38 179.0, 202.36 179.17, 202.34 179.33, 202.32 179.5, 202.31 179.67, 202.29 179.83, 202.27 180.0, 202.25 180.17, 202.23 180.33, 202.21 180.5, 202.19 180.67, 202.18 180.83, 202.16 181.0, 202.14 181.17, 202.12 181.33, 202.1 181.5, 202.08 181.67, 202.06 181.83, 202.04 182.0, 202.02 182.17, 202.01 182.33, 201.99 182.5, 201.97 182.67, 201.95 182.83, 201.93 183.0, 201.91 183.17, 201.89 183.33, 201.88 183.5, 201.86 183.67, 201.84 183.83, 201.82 184.0, 201.8 184.17, 201.78 184.33, 201.76 184.5, 201.74 184.67, 201.72 184.83, 201.71 185.0, 201.69 185.17, 201.67 185.33, 201.65 185.5, 201.63 185.67, 201.61 185.83, 201.59 186.0, 201.58 186.17, 201.56 186.33, 201.54 186.5, 201.52 186.67, 201.5 186.83, 201.48 187.0, 201.46 187.17, 201.44 187.33, 201.42 187.5, 201.41 187.67, 201.39 187.83, 201.37 188.0, 201.35 188.17, 201.33 188.33, 201.31 188.5, 201.29 188.67, 201.28 188.83, 201.26 189.0, 201.24 189.17, 201.22 189.33, 201.2 189.5, 201.18 189.67, 201.16 189.83, 201.14 190.0, 201.12 190.17, 201.11 190.33, 201.09 190.5, 201.07 190.67, 201.05 190.83, 201.03 191.0, 201.01 191.17, 200.99 191.33, 200.98 191.5, 200.96 191.67, 200.94 191.83, 200.92 192.0, 200.9 192.17, 200.88 192.33, 200.86 192.5, 200.84 192.67, 200.82 192.83, 200.81 193.0, 200.79 193.17, 200.77 193.33, 200.75 193.5, 200.73 193.67, 200.71 193.83, 200.69 194.0, 200.68 194.17, 200.66 194.33, 200.64 194.5, 200.62 194.67, 200.6 194.83, 200.58 195.0, 200.56 195.17, 200.54 195.33, 200.52 195.5, 200.51 195.67, 200.49 195.83, 200.47 196.0, 200.45 196.17, 200.43 196.33, 200.41 196.5, 200.39 196.67, 200.38 196.83, 200.36 197.0, 200.34 197.17, 200.32 197.33, 200.3 197.5, 200.28 197.67, 200.26 197.83, 200.24 198.0, 200.22 198.17, 200.21 198.33, 200.19 198.5, 200.17 198.67, 200.15 198.83, 200.13 199.0, 200.11 199.17, 200.09 199.33, 200.08 199.5, 200.06 199.67, 200.04 199.83, 200.02 200.0, 200.0 200.17, 199.98 200.33, 199.96 200.5, 199.94 200.67, 199.92 200.83, 199.91 201.0, 199.89 201.17, 199.87 201.33, 199.85 201.5, 199.83 201.67, 199.81 201.83, 199.79 202.0, 199.78 202.17, 199.76 202.33, 199.74 202.5, 199.72 202.67, 199.7 202.83, 199.68 203.0, 199.66 203.17, 199.64 203.33, 199.62 203.5, 199.61 203.67, 199.59 203.83, 199.57 204.0, 199.55 204.17, 199.53 204.33, 199.51 204.5, 199.49 204.67, 199.48 204.83, 199.46 205.0, 199.44 205.17, 199.42 205.33, 199.4 205.5, 199.38 205.67, 199.36 205.83, 199.34 206.0, 199.32 206.17, 199.31 206.33, 199.29 206.5, 199.27 206.67, 199.25 206.83, 199.23 207.0, 199.21 207.17, 199.19 207.33, 199.18 207.5, 199.16 207.67, 199.14 207.83, 199.12 208.0, 199.1 208.17, 199.08 208.33, 199.06 208.5, 199.04 208.67, 199.02 208.83, 199.01 209.0, 198.99 209.17, 198.97 209.33, 198.95 209.5, 198.93 209.67, 198.91 209.83, 198.89 210.0, 198.88 210.17, 198.86 210.33, 198.84 210.5, 198.82 210.67, 198.8 210.83, 198.78 211.0, 198.76 211.17, 198.74 211.33, 198.72 211.5, 198.71 211.67, 198.69 211.83, 198.67 212.0, 198.65 212.17, 198.63 212.33, 198.61 212.5, 198.59 212.67, 198.58 212.83, 198.56 213.0, 198.54 213.17, 198.52 213.33, 198.5 213.5, 198.48 213.67, 198.46 213.83, 198.44 214.0, 198.42 214.17, 198.41 214.33, 198.39 214.5, 198.37 214.67, 198.35 214.83, 198.33 215.0, 198.31 215.17, 198.29 215.33, 198.28 215.5, 198.26 215.67, 198.24 215.83, 198.22 216.0, 198.2 216.17, 198.18 216.33, 198.16 216.5, 198.14 216.67, 198.12 216.83, 198.11 217.0, 198.09 217.17, 198.07 217.33, 198.05 217.5, 198.03 217.67, 198.01 217.83, 197.99 218.0, 197.98 218.17, 197.96 218.33, 197.94 218.5, 197.92 218.67, 197.9 218.83, 197.88 219.0, 197.86 219.17, 197.84 219.33, 197.82 219.5, 197.81 219.67, 197.79 219.83, 197.77 220.0, 197.75 220.17, 197.73 220.33, 197.71 220.5, 197.69 220.67, 197.68 220.83, 197.66 221.0, 197.64 221.17, 197.62 221.33, 197.6 221.5, 197.58 221.67, 197.56 221.83, 197.54 222.0, 197.52 222.17, 197.51 222.33, 197.49 222.5, 197.47 222.67, 197.45 222.83, 197.43 223.0, 197.41 223.17, 197.39 223.33, 197.38 223.5, 197.36 223.67, 197.34 223.83, 197.32 224.0, 197.3 224.17, 197.28 224.33, 197.26 224.5, 197.24 224.67, 197.22 224.83, 197.21 225.0, 197.19 225.17, 197.17 225.33, 197.15 225.5, 197.13 225.67, 197.11 225.83, 197.09 226.0, 197.08 226.17, 197.06 226.33, 197.04 226.5, 197.02 226.67, 197.0 226.83, 196.98 227.0, 196.96 227.17, 196.94 227.33, 196.92 227.5, 196.91 227.67, 196.89 227.83, 196.87 228.0, 196.85 228.17, 196.83 228.33, 196.81 228.5, 196.79 228.67, 196.78 228.83, 196.76 229.0, 196.74 229.17, 196.72 229.33, 196.7 229.5, 196.68 229.67, 196.66 229.83, 196.64 230.0, 196.62 230.17, 196.61 230.33, 196.59 230.5, 196.57 230.67, 196.55 230.83, 196.53 231.0, 196.51 231.17, 196.49 231.33, 196.48 231.5, 196.46 231.67, 196.44 231.83, 196.42 232.0, 196.4 232.17, 196.38 232.33, 196.36 232.5, 196.34 232.67, 196.32 232.83, 196.31 233.0, 196.29 233.17, 196.27 233.33, 196.25 233.5, 196.23 233.67, 196.21 233.83, 196.19 234.0, 196.18 234.17, 196.16 234.33, 196.14 234.5, 196.12 234.67, 196.1 234.83, 196.08 235.0, 196.06 235.17, 196.04 235.33, 196.02 235.5, 196.01 235.67, 195.99 235.83, 195.97 236.0, 195.95 236.17, 195.93 236.33, 195.91 236.5, 195.89 236.67, 195.88 236.83, 195.86 237.0, 195.84 237.17, 195.82 237.33, 195.8 237.5, 195.78 237.67, 195.76 237.83, 195.74 238.0, 195.72 238.17, 195.71 238.33, 195.69 238.5, 195.67 238.67, 195.65 238.83, 195.63 239.0, 195.61 239.17, 195.59 239.33, 195.58 239.5, 195.56 239.67, 195.54 239.83, 195.52 240.0, 195.5 240.17, 195.48 240.33, 195.46 240.5, 195.44 240.67, 195.42 240.83, 195.41 241.0, 195.39 241.17, 195.37 241.33, 195.35 241.5, 195.33 241.67, 195.31 241.83, 195.29 242.0, 195.28 242.17, 195.26 242.33, 195.24 242.5, 195.22 242.67, 195.2 242.83, 195.18 243.0, 195.16 243.17, 195.14 243.33, 195.12 243.5, 195.11 243.67, 195.09 243.83, 195.07 244.0, 195.05 244.17, 195.03 244.33, 195.01 244.5, 194.99 244.67, 194.98 244.83, 194.96 245.0, 194.94 245.17, 194.92 245.33, 194.9 245.5, 194.88 245.67, 194.86 245.83, 194.84 246.0, 194.82 246.17, 194.81 246.33, 194.79 246.5, 194.77 246.67, 194.75 246.83, 194.73 247.0, 194.71 247.17, 194.69 247.33, 194.68 247.5, 194.66 247.67, 194.64 247.83, 194.62 248.0, 194.6 248.17, 194.58 248.33, 194.56 248.5, 194.54 248.67, 194.52 248.83, 194.51 249.0, 194.49 249.17, 194.47 249.33, 194.45 249.5, 194.43 249.67, 194.41 249.83, 194.39 250.0, 194.38 250.17, 194.36 250.33, 194.34 250.5, 194.32 250.67, 194.3 250.83, 194.28 251.0, 194.26 251.17, 194.24 251.33, 194.22 251.5, 194.21 251.67, 194.19 251.83, 194.17 252.0, 194.15 252.17, 194.13 252.33, 194.11 252.5, 194.09 252.67, 194.08 252.83, 194.06 253.0, 194.04 253.17, 194.02 253.33, 194.0 253.5, 193.98 253.67, 193.96 253.83, 193.94 254.0, 193.92 254.17, 193.91 254.33, 193.89 254.5, 193.87 254.67, 193.85 254.83, 193.83 255.0, 193.81 255.17, 193.79 255.33, 193.78 255.5, 193.76 255.67, 193.74 255.83, 193.72 256.0, 193.7 256.17, 193.68 256.33, 193.66 256.5, 193.64 256.67, 193.62 256.83, 193.61 257.0, 193.59 257.17, 193.57 257.33, 193.55 257.5, 193.53 257.67, 193.51 257.83, 193.49 258.0, 193.48 258.17, 193.46 258.33, 193.44 258.5, 193.42 258.67, 193.4 258.83, 193.38 259.0, 193.36 259.17, 193.34 259.33, 193.32 259.5, 193.31 259.67, 193.29 259.83, 193.27 260.0, 193.25 260.17, 193.23 260.33, 193.21 260.5, 193.19 260.67, 193.18 260.83, 193.16 261.0, 193.14 261.17, 193.12 261.33, 193.1 261.5, 193.08 261.67, 193.06 261.83, 193.04 262.0, 193.02 262.17, 193.01 262.33, 192.99 262.5, 192.97 262.67, 192.95 262.83, 192.93 263.0, 192.91 263.17, 192.89 263.33, 192.88 263.5, 192.86 263.67, 192.84 263.83, 192.82 264.0, 192.8 264.17, 192.78 264.33, 192.76 264.5, 192.74 264.67, 192.72 264.83, 192.71 265.0, 192.69 265.17, 192.67 265.33, 192.65 265.5, 192.63 265.67, 192.61 265.83, 192.59 266.0, 192.58 266.17, 192.56 266.33, 192.54 266.5, 192.52 266.67, 192.5 266.83, 192.48 267.0, 192.46 267.17, 192.44 267.33, 192.42 267.5, 192.41 267.67, 192.39 267.83, 192.37 268.0, 192.35 268.17, 192.33 268.33, 192.31 268.5, 192.29 268.67, 192.28 268.83, 192.26 269.0, 192.24 269.17, 192.22 269.33, 192.2 269.5, 192.18 269.67, 192.16 269.83, 192.14 270.0, 192.12 270.17, 192.11 270.33, 192.09 270.5, 192.07 270.67, 192.05 270.83, 192.03 271.0, 192.01 271.17, 191.99 271.33, 191.98 271.5, 191.96 271.67, 191.94 271.83, 191.92 272.0, 191.9 272.17, 191.88 272.33, 191.86 272.5, 191.84 272.67, 191.82 272.83, 191.81 273.0, 191.79 273.17, 191.77 273.33, 191.75 273.5, 191.73 273.67, 191.71 273.83, 191.69 274.0, 191.68 274.17, 191.66 274.33, 191.64 274.5, 191.62 274.67, 191.6 274.83, 191.58 275.0, 191.56 275.17, 191.54 275.33, 191.52 275.5, 191.51 275.67, 191.49 275.83, 191.47 276.0, 191.45 276.17, 191.43 276.33, 191.41 276.5, 191.39 276.67, 191.38 276.83, 191.36 277.0, 191.34 277.17, 191.32 277.33, 191.3 277.5, 191.28 277.67, 191.26 277.83, 191.24 278.0, 191.22 278.17, 191.21 278.33, 191.19 278.5, 191.17 278.67, 191.15 278.83, 191.13 279.0, 191.11 279.17, 191.09 279.33, 191.08 279.5, 191.06 279.67, 191.04 279.83, 191.02 280.0, 191.0 280.17, 190.98 280.33, 190.96 280.5, 190.94 280.67, 190.92 280.83, 190.91 281.0, 190.89 281.17, 190.87 281.33, 190.85 281.5, 190.83 281.67, 190.81 281.83, 190.79 282.0, 190.78 282.17, 190.76 282.33, 190.74 282.5, 190.72 282.67, 190.7 282.83, 190.68 283.0, 190.66 283.17, 190.64 283.33, 190.62 283.5, 190.61 283.67, 190.59 283.83, 190.57 284.0, 190.55 284.17, 190.53 284.33, 190.51 284.5, 190.49 284.67, 190.48 284.83, 190.46 285.0, 190.44 285.17, 190.42 285.33, 190.4 285.5, 190.38 285.67, 190.36 285.83, 190.34 286.0, 190.32 286.17, 190.31 286.33, 190.29 286.5, 190.27 286.67, 190.25 286.83, 190.23 287.0, 190.21 287.17, 190.19 287.33, 190.18 287.5, 190.16 287.67, 190.14 287.83, 190.12 288.0, 190.1 288.17, 190.08 288.33, 190.06 288.5, 190.04 288.67, 190.02 288.83, 190.01 289.0, 189.99 289.17, 189.97 289.33, 189.95 289.5, 189.93 289.67, 189.91 289.83, 189.89 290.0, 189.88 290.17, 189.86 290.33, 189.84 290.5, 189.82 290.67, 189.8 290.83, 189.78 291.0, 189.76 291.17, 189.74 291.33, 189.72 291.5, 189.71 291.67, 189.69 291.83, 189.67 292.0, 189.65 292.17, 189.63 292.33, 189.61 292.5, 189.59 292.67, 189.58 292.83, 189.56 293.0, 189.54 293.17, 189.52 293.33, 189.5 293.5, 189.48 293.67, 189.46 293.83, 189.44 294.0, 189.42 294.17, 189.41 294.33, 189.39 294.5, 189.37 294.67, 189.35 294.83, 189.33 295.0, 189.31 295.17, 189.29 295.33, 189.28 295.5, 189.26 295.67, 189.24 295.83, 189.22 296.0, 189.2 296.17, 189.18 296.33, 189.16 296.5, 189.14 296.67, 189.12 296.83, 189.11 297.0, 189.09 297.17, 189.07 297.33, 189.05 297.5, 189.03 297.67, 189.01 297.83, 188.99 298.0, 188.98 298.17, 188.96 298.33, 188.94 298.5, 188.92 298.67, 188.9 298.83, 188.88 299.0, 188.86 299.17, 188.84 299.33, 188.82 299.5, 188.81 299.67, 188.79 299.83, 188.77 300.0, 188.75 300.17, 188.73 300.33, 188.71 300.5, 188.69 300.67, 188.68 300.83, 188.66 301.0, 188.64 301.17, 188.62 301.33, 188.6 301.5, 188.58 301.67, 188.56 301.83, 188.54 302.0, 188.52 302.17, 188.51 302.33, 188.49 302.5, 188.47 302.67, 188.45 302.83, 188.43 303.0, 188.41 303.17, 188.39 303.33, 188.38 303.5, 188.36 303.67, 188.34 303.83, 188.32 304.0, 188.3 304.17, 188.28 304.33, 188.26 304.5, 188.24 304.67, 188.22 304.83, 188.21 305.0, 188.19 305.17, 188.17 305.33, 188.15 305.5, 188.13 305.67, 188.11 305.83, 188.09 306.0, 188.08 306.17, 188.06 306.33, 188.04 306.5, 188.02 306.67, 188.0 306.83, 187.98 307.0, 187.96 307.17, 187.94 307.33, 187.92 307.5, 187.91 307.67, 187.89 307.83, 187.87 308.0, 187.85 308.17, 187.83 308.33, 187.81 308.5, 187.79 308.67, 187.78 308.83, 187.76 309.0, 187.74 309.17, 187.72 309.33, 187.7 309.5, 187.68 309.67, 187.66 309.83, 187.64 310.0, 187.62 310.17, 187.61 310.33, 187.59 310.5, 187.57 310.67, 187.55 310.83, 187.53 311.0, 187.51 311.17, 187.49 311.33, 187.48 311.5, 187.46 311.67, 187.44 311.83, 187.42 312.0, 187.4 312.17, 187.38 312.33, 187.36 312.5, 187.34 312.67, 187.32 312.83, 187.31 313.0, 187.29 313.17, 187.27 313.33, 187.25 313.5, 187.23 313.67, 187.21 313.83, 187.19 314.0, 187.18 314.17, 187.16 314.33, 187.14 314.5, 187.12 314.67, 187.1 314.83, 187.08 315.0, 187.06 315.17, 187.04 315.33, 187.02 315.5, 187.01 315.67, 186.99 315.83, 186.97 316.0, 186.95 316.17, 186.93 316.33, 186.91 316.5, 186.89 316.67, 186.88 316.83, 186.86 317.0, 186.84 317.17, 186.82 317.33, 186.8 317.5, 186.78 317.67, 186.76 317.83, 186.74 318.0, 186.72 318.17, 186.71 318.33, 186.69 318.5, 186.67 318.67, 186.65 318.83, 186.63 319.0, 186.61 319.17, 186.59 319.33, 186.58 319.5, 186.56 319.67, 186.54 319.83, 186.52 320.0, 186.5 320.17, 186.48 320.33, 186.46 320.5, 186.44 320.67, 186.42 320.83, 186.41 321.0, 186.39 321.17, 186.37 321.33, 186.35 321.5, 186.33 321.67, 186.31 321.83, 186.29 322.0, 186.28 322.17, 186.26 322.33, 186.24 322.5, 186.22 322.67, 186.2 322.83, 186.18 323.0, 186.16 323.17, 186.14 323.33, 186.12 323.5, 186.11 323.67, 186.09 323.83, 186.07 324.0, 186.05 324.17, 186.03 324.33, 186.01 324.5, 185.99 324.67, 185.98 324.83, 185.96 325.0, 185.94 325.17, 185.92 325.33, 185.9 325.5, 185.88 325.67, 185.86 325.83, 185.84 326.0, 185.82 326.17, 185.81 326.33, 185.79 326.5, 185.77 326.67, 185.75 326.83, 185.73 327.0, 185.71 327.17, 185.69 327.33, 185.68 327.5, 185.66 327.67, 185.64 327.83, 185.62 328.0, 185.6 328.17, 185.58 328.33, 185.56 328.5, 185.54 328.67, 185.52 328.83, 185.51 329.0, 185.49 329.17, 185.47 329.33, 185.45 329.5, 185.43 329.67, 185.41 329.83, 185.39 330.0, 185.38 330.17, 185.36 330.33, 185.34 330.5, 185.32 330.67, 185.3 330.83, 185.28 331.0, 185.26 331.17, 185.24 331.33, 185.22 331.5, 185.21 331.67, 185.19 331.83, 185.17 332.0, 185.15 332.17, 185.13 332.33, 185.11 332.5, 185.09 332.67, 185.08 332.83, 185.06 333.0, 185.04 333.17, 185.02 333.33, 185.0 333.5, 184.98 333.67, 184.96 333.83, 184.94 334.0, 184.92 334.17, 184.91 334.33, 184.89 334.5, 184.87 334.67, 184.85 334.83, 184.83 335.0, 184.81 335.17, 184.79 335.33, 184.78 335.5, 184.76 335.67, 184.74 335.83, 184.72 336.0, 184.7 336.17, 184.68 336.33, 184.66 336.5, 184.64 336.67, 184.62 336.83, 184.61 337.0, 184.59 337.17, 184.57 337.33, 184.55 337.5, 184.53 337.67, 184.51 337.83, 184.49 338.0, 184.48 338.17, 184.46 338.33, 184.44 338.5, 184.42 338.67, 184.4 338.83, 184.38 339.0, 184.36 339.17, 184.34 339.33, 184.32 339.5, 184.31 339.67, 184.29 339.83, 184.27 340.0, 184.25 340.17, 184.23 340.33, 184.21 340.5, 184.19 340.67, 184.18 340.83, 184.16 341.0, 184.14 341.17, 184.12 341.33, 184.1 341.5, 184.08 341.67, 184.06 341.83, 184.04 342.0, 184.02 342.17, 184.01 342.33, 183.99 342.5, 183.97 342.67, 183.95 342.83, 183.93 343.0, 183.91 343.17, 183.89 343.33, 183.88 343.5, 183.86 343.67, 183.84 343.83, 183.82 344.0, 183.8 344.17, 183.78 344.33, 183.76 344.5, 183.74 344.67, 183.72 344.83, 183.71 345.0, 183.69 345.17, 183.67 345.33, 183.65 345.5, 183.63 345.67, 183.61 345.83, 183.59 346.0, 183.58 346.17, 183.56 346.33, 183.54 346.5, 183.52 346.67, 183.5 346.83, 183.48 347.0, 183.46 347.17, 183.44 347.33, 183.42 347.5, 183.41 347.67, 183.39 347.83, 183.37 348.0, 183.35 348.17, 183.33 348.33, 183.31 348.5, 183.29 348.67, 183.28 348.83, 183.26 349.0, 183.24 349.17, 183.22 349.33, 183.2 349.5, 183.18 349.67, 183.16 349.83, 183.14 350.0, 183.12 350.17, 183.11 350.33, 183.09 350.5, 183.07 350.67, 183.05 350.83, 183.03 351.0, 183.01 351.17, 182.99 351.33, 182.98 351.5, 182.96 351.67, 182.94 351.83, 182.92 352.0, 182.9 352.17, 182.88 352.33, 182.86 352.5, 182.84 352.67, 182.82 352.83, 182.81 353.0, 182.79 353.17, 182.77 353.33, 182.75 353.5, 182.73 353.67, 182.71 353.83, 182.69 354.0, 182.68 354.17, 182.66 354.33, 182.64 354.5, 182.62 354.67, 182.6 354.83, 182.58 355.0, 182.56 355.17, 182.54 355.33, 182.52 355.5, 182.51 355.67, 182.49 355.83, 182.47 356.0, 182.45 356.17, 182.43 356.33, 182.41 356.5, 182.39 356.67, 182.38 356.83, 182.36 357.0, 182.34 357.17, 182.32 357.33, 182.3 357.5, 182.28 357.67, 182.26 357.83, 182.24 358.0, 182.22 358.17, 182.21 358.33, 182.19 358.5, 182.17 358.67, 182.15 358.83, 182.13 359.0, 182.11 359.17, 182.09 359.33, 182.08 359.5, 182.06 359.67, 182.04 359.83, 182.02 360.0, 182.0 360.17, 181.98 360.33, 181.96 360.5, 181.94 360.67, 181.92 360.83, 181.91 361.0, 181.89 361.17, 181.87 361.33, 181.85 361.5, 181.83 361.67, 181.81 361.83, 181.79 362.0, 181.78 362.17, 181.76 362.33, 181.74 362.5, 181.72 362.67, 181.7 362.83, 181.68 363.0, 181.66 363.17, 181.64 363.33, 181.62 363.5, 181.61 363.67, 181.59 363.83, 181.57 364.0, 181.55 364.17, 181.53 364.33, 181.51 364.5, 181.49 364.67, 181.48 364.83, 181.46 365.0, 181.44 365.17, 181.42 365.33, 181.4 365.5, 181.38 365.67, 181.36 365.83, 181.34 366.0, 181.32 366.17, 181.31 366.33, 181.29 366.5, 181.27 366.67, 181.25 366.83, 181.23 367.0, 181.21 367.17, 181.19 367.33, 181.18 367.5, 181.16 367.67, 181.14 367.83, 181.12 368.0, 181.1 368.17, 181.08 368.33, 181.06 368.5, 181.04 368.67, 181.02 368.83, 181.01 369.0, 180.99 369.17, 180.97 369.33, 180.95 369.5, 180.93 369.67, 180.91 369.83, 180.89 370.0, 180.88 370.17, 180.86 370.33, 180.84 370.5, 180.82 370.67, 180.8 370.83, 180.78 371.0, 180.76 371.17, 180.74 371.33, 180.72 371.5, 180.71 371.67, 180.69 371.83, 180.67 372.0, 180.65 372.17, 180.63 372.33, 180.61 372.5, 180.59 372.67, 180.58 372.83, 180.56 373.0, 180.54 373.17, 180.52 373.33, 180.5 373.5, 180.48 373.67, 180.46 373.83, 180.44 374.0, 180.42 374.17, 180.41 374.33, 180.39 374.5, 180.37 374.67, 180.35 374.83, 180.33 375.0, 180.31 375.17, 180.29 375.33, 180.28 375.5, 180.26 375.67, 180.24 375.83, 180.22 376.0, 180.2 376.17, 180.18 376.33, 180.16 376.5, 180.14 376.67, 180.12 376.83, 180.11 377.0, 180.09 377.17, 180.07 377.33, 180.05 377.5, 180.03 377.67, 180.01 377.83, 179.99 378.0, 179.98 378.17, 179.96 378.33, 179.94 378.5, 179.92 378.67, 179.9 378.83, 179.88 379.0, 179.86 379.17, 179.84 379.33, 179.82 379.5, 179.81 379.67, 179.79 379.83, 179.77 380.0, 179.75 380.17, 179.73 380.33, 179.71 380.5, 179.69 380.67, 179.68 380.83, 179.66 381.0, 179.64 381.17, 179.62 381.33, 179.6 381.5, 179.58 381.67, 179.56 381.83, 179.54 382.0, 179.52 382.17, 179.51 382.33, 179.49 382.5, 179.47 382.67, 179.45 382.83, 179.43 383.0, 179.41 383.17, 179.39 383.33, 179.38 383.5, 179.36 383.67, 179.34 383.83, 179.32 384.0, 179.3 384.17, 179.28 384.33, 179.26 384.5, 179.24 384.67, 179.22 384.83, 179.21 385.0, 179.19 385.17, 179.17 385.33, 179.15 385.5, 179.13 385.67, 179.11 385.83, 179.09 386.0, 179.08 386.17, 179.06 386.33, 179.04 386.5, 179.02 386.67, 179.0 386.83, 178.98 387.0, 178.96 387.17, 178.94 387.33, 178.92 387.5, 178.91 387.67, 178.89 387.83, 178.87 388.0, 178.85 388.17, 178.83 388.33, 178.81 388.5, 178.79 388.67, 178.78 388.83, 178.76 389.0, 178.74 389.17, 178.72 389.33, 178.7 389.5, 178.68 389.67, 178.66 389.83, 178.64 390.0, 178.62 390.17, 178.61 390.33, 178.59 390.5, 178.57 390.67, 178.55 390.83, 178.53 391.0, 178.51 391.17, 178.49 391.33, 178.48 391.5, 178.46 391.67, 178.44 391.83, 178.42 392.0, 178.4 392.17, 178.38 392.33, 178.36 392.5, 178.34 392.67, 178.32 392.83, 178.31 393.0, 178.29 393.17, 178.27 393.33, 178.25 393.5, 178.23 393.67, 178.21 393.83, 178.19 394.0, 178.18 394.17, 178.16 394.33, 178.14 394.5, 178.12 394.67, 178.1 394.83, 178.08 395.0, 178.06 395.17, 178.04 395.33, 178.02 395.5, 178.01 395.67, 177.99 395.83, 177.97 396.0, 177.95 396.17, 177.93 396.33, 177.91 396.5, 177.89 396.67, 177.88 396.83, 177.86 397.0, 177.84 397.17, 177.82 397.33, 177.8 397.5, 177.78 397.67, 177.76 397.83, 177.74 398.0, 177.72 398.17, 177.71 398.33, 177.69 398.5, 177.67 398.67, 177.65 398.83, 177.63 399.0, 177.61 399.17, 177.59 399.33, 177.58 399.5, 177.56 399.67, 177.54 399.83, 177.52 400.0, 177.5 " fill="none" stroke="white" stroke-width="1.5" stroke-linejoin="round" stroke-opacity="1"/>

 </svg>