<svg version="1.1" 
 baseProfile="full" 
 width="400" 
 height="400" 
 xmlns="http://www.w3.org/2000/svg">
<rect x="0.0" y="0.0" width="400" height="400" fill="black" stroke="black" stroke-width="0" opacity="1"/>
<line x1="0.0" y1="0.0" x2="0.0" y2="400.0" stroke="white" stroke-width="1" opacity="0.4" stroke-linecap="butt"/>
<line x1="40.0" y1="0.0" x2="40.0" y2="400.0" stroke="white" stroke-width="1" opacity="0.4" stroke-linecap="butt"/>
<line x1="80.0" y1="0.0" x2="80.0" y2="400.0" stroke="white" stroke-width="1" opacity="0.4" stroke-linecap="butt"/>
<line x1="120.0" y1="0.0" x2="120.0" y2="400.0" stroke="white" stroke-width="1" opacity="0.4" stroke-linecap="butt"/>
<line x1="160.0" y1="0.0" x2="160.0" y2="400.0" stroke="white" stroke-width="1" opacity="0.4" stroke-linecap="butt"/>
<line x1="200.0" y1="0.0" x2="200.0" y2="400.0" stroke="white" stroke-width="1" opacity="0.4" stroke-linecap="butt"/>
<line x1="240.0" y1="0.0" x2="240.0" y2="400.0" stroke="white" stroke-width="1" opacity="0.4" stroke-linecap="butt"/>
<line x1="280.0" y1="0.0" x2="280.0" y2="400.0" stroke="white" stroke-width="1" opacity="0.4" stroke-linecap="butt"/>
<line x1="320.0" y1="0.0" x2="320.0" y2="400.0" stroke="white" stroke-width="1" opacity="0.4" stroke-linecap="butt"/>
<line x1="360.0" y1="0.0" x2="360.0" y2="400.0" stroke="white" stroke-width="1" opacity="0.4" stroke-linecap="butt"/>
<line x1="0.0" y1="0.0" x2="400.0" y2="0.0" stroke="white" stroke-width="1" opacity="0.4" stroke-linecap="butt"/>
<line x1="0.0" y1="40.0" x2="400.0" y2="40.0" stroke="white" stroke-width="1" opacity="0.4" stroke-linecap="butt"/>
<line x1="0.0" y1="80.0" x2="400.0" y2="80.0" stroke="white" stroke-width="1" opacity="0.4" stroke-linecap="butt"/>
<line x1="0.0" y1="120.0" x2="400.0" y2="120.0" stroke="white" stroke-width="1" opacity="0.4" stroke-linecap="butt"/>
<line x1="0.0" y1="160.0" x2="400.0" y2="160.0" stroke="white" stroke-width="1" opacity="0.4" stroke-linecap="butt"/>
<line x1="0.0" y1="200.0" x2="400.0" y2="200.0" stroke="white" stroke-width="1" opacity="0.4" stroke-linecap="butt"/>
<line x1="0.0" y1="240.0" x2="400.0" y2="240.0" stroke="white" stroke-width="1" opacity="0.4" stroke-linecap="butt"/>
<line x1="0.0" y1="280.0" x2="400.0" y2="280.0" stroke="white" stroke-width="1" opacity="0.4" stroke-linecap="butt"/>
<line x1="0.0" y1="320.0" x2="400.0" y2="320.0" stroke="white" stroke-width="1" opacity="0.4" stroke-linecap="butt"/>
<line x1="0.0" y1="360.0" x2="400.0" y2="360.0" stroke="white" stroke-width="1" opacity="0.4" stroke-linecap="butt"/>
<line x1="0.0" y1="200.0" x2="400.0" y2="200.0" stroke="yellow" stroke-width="2.5" opacity="1" stroke-linecap="butt"/>
<line x1="200.0" y1="0.0" x2="200.0" y2="400.0" stroke="yellow" stroke-width="2.5" opacity="1" stroke-linecap="butt"/>
<polygon points="391.0 204.0, 401.0 200.0, 391.0 196.0, 393.0 200.0" fill="yellow"/><polygon points="204.0 9.0, 200.0 -1.0, 196.0 9.0, 200.0 7.0" fill="yellow"/><image x="-60.0" y="-60.0" width="200" height="200" href="/Users/girirajhira/PycharmProjects/Giraphics3/Taylor/expr.png"/><polyline points="0.0, 240.0 0.17, 239.97 0.33, 239.93 0.5, 239.9 0.67, 239.87 0.83, 239.83 1.0, 239.8 1.17, 239.77 1.33, 239.73 1.5, 239.7 1.67, 239.67 1.83, 239.63 2.0, 239.6 2.17, 239.57 2.33, 239.53 2.5, 239.5 2.67, 239.47 2.83, 239.43 3.0, 239.4 3.17, 239.37 3.33, 239.33 3.5, 239.3 3.67, 239.27 3.83, 239.23 4.0, 239.2 4.17, 239.17 4.33, 239.13 4.5, 239.1 4.67, 239.07 4.83, 239.03 5.0, 239.0 5.17, 238.97 5.33, 238.93 5.5, 238.9 5.67, 238.87 5.83, 238.83 6.0, 238.8 6.17, 238.77 6.33, 238.73 6.5, 238.7 6.67, 238.67 6.83, 238.63 7.0, 238.6 7.17, 238.57 7.33, 238.53 7.5, 238.5 7.67, 238.47 7.83, 238.43 8.0, 238.4 8.17, 238.37 8.33, 238.33 8.5, 238.3 8.67, 238.27 8.83, 238.23 9.0, 238.2 9.17, 238.17 9.33, 238.13 9.5, 238.1 9.67, 238.07 9.83, 238.03 10.0, 238.0 10.17, 237.97 10.33, 237.93 10.5, 237.9 10.67, 237.87 10.83, 237.83 11.0, 237.8 11.17, 237.77 11.33, 237.73 11.5, 237.7 11.67, 237.67 11.83, 237.63 12.0, 237.6 12.17, 237.57 12.33, 237.53 12.5, 237.5 12.67, 237.47 12.83, 237.43 13.0, 237.4 13.17, 237.37 13.33, 237.33 13.5, 237.3 13.67, 237.27 13.83, 237.23 14.0, 237.2 14.17, 237.17 14.33, 237.13 14.5, 237.1 14.67, 237.07 14.83, 237.03 15.0, 237.0 15.17, 236.97 15.33, 236.93 15.5, 236.9 15.67, 236.87 15.83, 236.83 16.0, 236.8 16.17, 236.77 16.33, 236.73 16.5, 236.7 16.67, 236.67 16.83, 236.63 17.0, 236.6 17.17, 236.57 17.33, 236.53 17.5, 236.5 17.67, 236.47 17.83, 236.43 18.0, 236.4 18.17, 236.37 18.33, 236.33 18.5, 236.3 18.67, 236.27 18.83, 236.23 19.0, 236.2 19.17, 236.17 19.33, 236.13 19.5, 236.1 19.67, 236.07 19.83, 236.03 20.0, 236.0 20.17, 235.97 20.33, 235.93 20.5, 235.9 20.67, 235.87 20.83, 235.83 21.0, 235.8 21.17, 235.77 21.33, 235.73 21.5, 235.7 21.67, 235.67 21.83, 235.63 22.0, 235.6 22.17, 235.57 22.33, 235.53 22.5, 235.5 22.67, 235.47 22.83, 235.43 23.0, 235.4 23.17, 235.37 23.33, 235.33 23.5, 235.3 23.67, 235.27 23.83, 235.23 24.0, 235.2 24.17, 235.17 24.33, 235.13 24.5, 235.1 24.67, 235.07 24.83, 235.03 25.0, 235.0 25.17, 234.97 25.33, 234.93 25.5, 234.9 25.67, 234.87 25.83, 234.83 26.0, 234.8 26.17, 234.77 26.33, 234.73 26.5, 234.7 26.67, 234.67 26.83, 234.63 27.0, 234.6 27.17, 234.57 27.33, 234.53 27.5, 234.5 27.67, 234.47 27.83, 234.43 28.0, 234.4 28.17, 234.37 28.33, 234.33 28.5, 234.3 28.67, 234.27 28.83, 234.23 29.0, 234.2 29.17, 234.17 29.33, 234.13 29.5, 234.1 29.67, 234.07 29.83, 234.03 30.0, 234.0 30.17, 233.97 30.33, 233.93 30.5, 233.9 30.67, 233.87 30.83, 233.83 31.0, 233.8 31.17, 233.77 31.33, 233.73 31.5, 233.7 31.67, 233.67 31.83, 233.63 32.0, 233.6 32.17, 233.57 32.33, 233.53 32.5, 233.5 32.67, 233.47 32.83, 233.43 33.0, 233.4 33.17, 233.37 33.33, 233.33 33.5, 233.3 33.67, 233.27 33.83, 233.23 34.0, 233.2 34.17, 233.17 34.33, 233.13 34.5, 233.1 34.67, 233.07 34.83, 233.03 35.0, 233.0 35.17, 232.97 35.33, 232.93 35.5, 232.9 35.67, 232.87 35.83, 232.83 36.0, 232.8 36.17, 232.77 36.33, 232.73 36.5, 232.7 36.67, 232.67 36.83, 232.63 37.0, 232.6 37.17, 232.57 37.33, 232.53 37.5, 232.5 37.67, 232.47 37.83, 232.43 38.0, 232.4 38.17, 232.37 38.33, 232.33 38.5, 232.3 38.67, 232.27 38.83, 232.23 39.0, 232.2 39.17, 232.17 39.33, 232.13 39.5, 232.1 39.67, 232.07 39.83, 232.03 40.0, 232.0 40.17, 231.97 40.33, 231.93 40.5, 231.9 40.67, 231.87 40.83, 231.83 41.0, 231.8 41.17, 231.77 41.33, 231.73 41.5, 231.7 41.67, 231.67 41.83, 231.63 42.0, 231.6 42.17, 231.57 42.33, 231.53 42.5, 231.5 42.67, 231.47 42.83, 231.43 43.0, 231.4 43.17, 231.37 43.33, 231.33 43.5, 231.3 43.67, 231.27 43.83, 231.23 44.0, 231.2 44.17, 231.17 44.33, 231.13 44.5, 231.1 44.67, 231.07 44.83, 231.03 45.0, 231.0 45.17, 230.97 45.33, 230.93 45.5, 230.9 45.67, 230.87 45.83, 230.83 46.0, 230.8 46.17, 230.77 46.33, 230.73 46.5, 230.7 46.67, 230.67 46.83, 230.63 47.0, 230.6 47.17, 230.57 47.33, 230.53 47.5, 230.5 47.67, 230.47 47.83, 230.43 48.0, 230.4 48.17, 230.37 48.33, 230.33 48.5, 230.3 48.67, 230.27 48.83, 230.23 49.0, 230.2 49.17, 230.17 49.33, 230.13 49.5, 230.1 49.67, 230.07 49.83, 230.03 50.0, 230.0 50.17, 229.97 50.33, 229.93 50.5, 229.9 50.67, 229.87 50.83, 229.83 51.0, 229.8 51.17, 229.77 51.33, 229.73 51.5, 229.7 51.67, 229.67 51.83, 229.63 52.0, 229.6 52.17, 229.57 52.33, 229.53 52.5, 229.5 52.67, 229.47 52.83, 229.43 53.0, 229.4 53.17, 229.37 53.33, 229.33 53.5, 229.3 53.67, 229.27 53.83, 229.23 54.0, 229.2 54.17, 229.17 54.33, 229.13 54.5, 229.1 54.67, 229.07 54.83, 229.03 55.0, 229.0 55.17, 228.97 55.33, 228.93 55.5, 228.9 55.67, 228.87 55.83, 228.83 56.0, 228.8 56.17, 228.77 56.33, 228.73 56.5, 228.7 56.67, 228.67 56.83, 228.63 57.0, 228.6 57.17, 228.57 57.33, 228.53 57.5, 228.5 57.67, 228.47 57.83, 228.43 58.0, 228.4 58.17, 228.37 58.33, 228.33 58.5, 228.3 58.67, 228.27 58.83, 228.23 59.0, 228.2 59.17, 228.17 59.33, 228.13 59.5, 228.1 59.67, 228.07 59.83, 228.03 60.0, 228.0 60.17, 227.97 60.33, 227.93 60.5, 227.9 60.67, 227.87 60.83, 227.83 61.0, 227.8 61.17, 227.77 61.33, 227.73 61.5, 227.7 61.67, 227.67 61.83, 227.63 62.0, 227.6 62.17, 227.57 62.33, 227.53 62.5, 227.5 62.67, 227.47 62.83, 227.43 63.0, 227.4 63.17, 227.37 63.33, 227.33 63.5, 227.3 63.67, 227.27 63.83, 227.23 64.0, 227.2 64.17, 227.17 64.33, 227.13 64.5, 227.1 64.67, 227.07 64.83, 227.03 65.0, 227.0 65.17, 226.97 65.33, 226.93 65.5, 226.9 65.67, 226.87 65.83, 226.83 66.0, 226.8 66.17, 226.77 66.33, 226.73 66.5, 226.7 66.67, 226.67 66.83, 226.63 67.0, 226.6 67.17, 226.57 67.33, 226.53 67.5, 226.5 67.67, 226.47 67.83, 226.43 68.0, 226.4 68.17, 226.37 68.33, 226.33 68.5, 226.3 68.67, 226.27 68.83, 226.23 69.0, 226.2 69.17, 226.17 69.33, 226.13 69.5, 226.1 69.67, 226.07 69.83, 226.03 70.0, 226.0 70.17, 225.97 70.33, 225.93 70.5, 225.9 70.67, 225.87 70.83, 225.83 71.0, 225.8 71.17, 225.77 71.33, 225.73 71.5, 225.7 71.67, 225.67 71.83, 225.63 72.0, 225.6 72.17, 225.57 72.33, 225.53 72.5, 225.5 72.67, 225.47 72.83, 225.43 73.0, 225.4 73.17, 225.37 73.33, 225.33 73.5, 225.3 73.67, 225.27 73.83, 225.23 74.0, 225.2 74.17, 225.17 74.33, 225.13 74.5, 225.1 74.67, 225.07 74.83, 225.03 75.0, 225.0 75.17, 224.97 75.33, 224.93 75.5, 224.9 75.67, 224.87 75.83, 224.83 76.0, 224.8 76.17, 224.77 76.33, 224.73 76.5, 224.7 76.67, 224.67 76.83, 224.63 77.0, 224.6 77.17, 224.57 77.33, 224.53 77.5, 224.5 77.67, 224.47 77.83, 224.43 78.0, 224.4 78.17, 224.37 78.33, 224.33 78.5, 224.3 78.67, 224.27 78.83, 224.23 79.0, 224.2 79.17, 224.17 79.33, 224.13 79.5, 224.1 79.67, 224.07 79.83, 224.03 80.0, 224.0 80.17, 223.97 80.33, 223.93 80.5, 223.9 80.67, 223.87 80.83, 223.83 81.0, 223.8 81.17, 223.77 81.33, 223.73 81.5, 223.7 81.67, 223.67 81.83, 223.63 82.0, 223.6 82.17, 223.57 82.33, 223.53 82.5, 223.5 82.67, 223.47 82.83, 223.43 83.0, 223.4 83.17, 223.37 83.33, 223.33 83.5, 223.3 83.67, 223.27 83.83, 223.23 84.0, 223.2 84.17, 223.17 84.33, 223.13 84.5, 223.1 84.67, 223.07 84.83, 223.03 85.0, 223.0 85.17, 222.97 85.33, 222.93 85.5, 222.9 85.67, 222.87 85.83, 222.83 86.0, 222.8 86.17, 222.77 86.33, 222.73 86.5, 222.7 86.67, 222.67 86.83, 222.63 87.0, 222.6 87.17, 222.57 87.33, 222.53 87.5, 222.5 87.67, 222.47 87.83, 222.43 88.0, 222.4 88.17, 222.37 88.33, 222.33 88.5, 222.3 88.67, 222.27 88.83, 222.23 89.0, 222.2 89.17, 222.17 89.33, 222.13 89.5, 222.1 89.67, 222.07 89.83, 222.03 90.0, 222.0 90.17, 221.97 90.33, 221.93 90.5, 221.9 90.67, 221.87 90.83, 221.83 91.0, 221.8 91.17, 221.77 91.33, 221.73 91.5, 221.7 91.67, 221.67 91.83, 221.63 92.0, 221.6 92.17, 221.57 92.33, 221.53 92.5, 221.5 92.67, 221.47 92.83, 221.43 93.0, 221.4 93.17, 221.37 93.33, 221.33 93.5, 221.3 93.67, 221.27 93.83, 221.23 94.0, 221.2 94.17, 221.17 94.33, 221.13 94.5, 221.1 94.67, 221.07 94.83, 221.03 95.0, 221.0 95.17, 220.97 95.33, 220.93 95.5, 220.9 95.67, 220.87 95.83, 220.83 96.0, 220.8 96.17, 220.77 96.33, 220.73 96.5, 220.7 96.67, 220.67 96.83, 220.63 97.0, 220.6 97.17, 220.57 97.33, 220.53 97.5, 220.5 97.67, 220.47 97.83, 220.43 98.0, 220.4 98.17, 220.37 98.33, 220.33 98.5, 220.3 98.67, 220.27 98.83, 220.23 99.0, 220.2 99.17, 220.17 99.33, 220.13 99.5, 220.1 99.67, 220.07 99.83, 220.03 100.0, 220.0 100.17, 219.97 100.33, 219.93 100.5, 219.9 100.67, 219.87 100.83, 219.83 101.0, 219.8 101.17, 219.77 101.33, 219.73 101.5, 219.7 101.67, 219.67 101.83, 219.63 102.0, 219.6 102.17, 219.57 102.33, 219.53 102.5, 219.5 102.67, 219.47 102.83, 219.43 103.0, 219.4 103.17, 219.37 103.33, 219.33 103.5, 219.3 103.67, 219.27 103.83, 219.23 104.0, 219.2 104.17, 219.17 104.33, 219.13 104.5, 219.1 104.67, 219.07 104.83, 219.03 105.0, 219.0 105.17, 218.97 105.33, 218.93 105.5, 218.9 105.67, 218.87 105.83, 218.83 106.0, 218.8 106.17, 218.77 106.33, 218.73 106.5, 218.7 106.67, 218.67 106.83, 218.63 107.0, 218.6 107.17, 218.57 107.33, 218.53 107.5, 218.5 107.67, 218.47 107.83, 218.43 108.0, 218.4 108.17, 218.37 108.33, 218.33 108.5, 218.3 108.67, 218.27 108.83, 218.23 109.0, 218.2 109.17, 218.17 109.33, 218.13 109.5, 218.1 109.67, 218.07 109.83, 218.03 110.0, 218.0 110.17, 217.97 110.33, 217.93 110.5, 217.9 110.67, 217.87 110.83, 217.83 111.0, 217.8 111.17, 217.77 111.33, 217.73 111.5, 217.7 111.67, 217.67 111.83, 217.63 112.0, 217.6 112.17, 217.57 112.33, 217.53 112.5, 217.5 112.67, 217.47 112.83, 217.43 113.0, 217.4 113.17, 217.37 113.33, 217.33 113.5, 217.3 113.67, 217.27 113.83, 217.23 114.0, 217.2 114.17, 217.17 114.33, 217.13 114.5, 217.1 114.67, 217.07 114.83, 217.03 115.0, 217.0 115.17, 216.97 115.33, 216.93 115.5, 216.9 115.67, 216.87 115.83, 216.83 116.0, 216.8 116.17, 216.77 116.33, 216.73 116.5, 216.7 116.67, 216.67 116.83, 216.63 117.0, 216.6 117.17, 216.57 117.33, 216.53 117.5, 216.5 117.67, 216.47 117.83, 216.43 118.0, 216.4 118.17, 216.37 118.33, 216.33 118.5, 216.3 118.67, 216.27 118.83, 216.23 119.0, 216.2 119.17, 216.17 119.33, 216.13 119.5, 216.1 119.67, 216.07 119.83, 216.03 120.0, 216.0 120.17, 215.97 120.33, 215.93 120.5, 215.9 120.67, 215.87 120.83, 215.83 121.0, 215.8 121.17, 215.77 121.33, 215.73 121.5, 215.7 121.67, 215.67 121.83, 215.63 122.0, 215.6 122.17, 215.57 122.33, 215.53 122.5, 215.5 122.67, 215.47 122.83, 215.43 123.0, 215.4 123.17, 215.37 123.33, 215.33 123.5, 215.3 123.67, 215.27 123.83, 215.23 124.0, 215.2 124.17, 215.17 124.33, 215.13 124.5, 215.1 124.67, 215.07 124.83, 215.03 125.0, 215.0 125.17, 214.97 125.33, 214.93 125.5, 214.9 125.67, 214.87 125.83, 214.83 126.0, 214.8 126.17, 214.77 126.33, 214.73 126.5, 214.7 126.67, 214.67 126.83, 214.63 127.0, 214.6 127.17, 214.57 127.33, 214.53 127.5, 214.5 127.67, 214.47 127.83, 214.43 128.0, 214.4 128.17, 214.37 128.33, 214.33 128.5, 214.3 128.67, 214.27 128.83, 214.23 129.0, 214.2 129.17, 214.17 129.33, 214.13 129.5, 214.1 129.67, 214.07 129.83, 214.03 130.0, 214.0 130.17, 213.97 130.33, 213.93 130.5, 213.9 130.67, 213.87 130.83, 213.83 131.0, 213.8 131.17, 213.77 131.33, 213.73 131.5, 213.7 131.67, 213.67 131.83, 213.63 132.0, 213.6 132.17, 213.57 132.33, 213.53 132.5, 213.5 132.67, 213.47 132.83, 213.43 133.0, 213.4 133.17, 213.37 133.33, 213.33 133.5, 213.3 133.67, 213.27 133.83, 213.23 134.0, 213.2 134.17, 213.17 134.33, 213.13 134.5, 213.1 134.67, 213.07 134.83, 213.03 135.0, 213.0 135.17, 212.97 135.33, 212.93 135.5, 212.9 135.67, 212.87 135.83, 212.83 136.0, 212.8 136.17, 212.77 136.33, 212.73 136.5, 212.7 136.67, 212.67 136.83, 212.63 137.0, 212.6 137.17, 212.57 137.33, 212.53 137.5, 212.5 137.67, 212.47 137.83, 212.43 138.0, 212.4 138.17, 212.37 138.33, 212.33 138.5, 212.3 138.67, 212.27 138.83, 212.23 139.0, 212.2 139.17, 212.17 139.33, 212.13 139.5, 212.1 139.67, 212.07 139.83, 212.03 140.0, 212.0 140.17, 211.97 140.33, 211.93 140.5, 211.9 140.67, 211.87 140.83, 211.83 141.0, 211.8 141.17, 211.77 141.33, 211.73 141.5, 211.7 141.67, 211.67 141.83, 211.63 142.0, 211.6 142.17, 211.57 142.33, 211.53 142.5, 211.5 142.67, 211.47 142.83, 211.43 143.0, 211.4 143.17, 211.37 143.33, 211.33 143.5, 211.3 143.67, 211.27 143.83, 211.23 144.0, 211.2 144.17, 211.17 144.33, 211.13 144.5, 211.1 144.67, 211.07 144.83, 211.03 145.0, 211.0 145.17, 210.97 145.33, 210.93 145.5, 210.9 145.67, 210.87 145.83, 210.83 146.0, 210.8 146.17, 210.77 146.33, 210.73 146.5, 210.7 146.67, 210.67 146.83, 210.63 147.0, 210.6 147.17, 210.57 147.33, 210.53 147.5, 210.5 147.67, 210.47 147.83, 210.43 148.0, 210.4 148.17, 210.37 148.33, 210.33 148.5, 210.3 148.67, 210.27 148.83, 210.23 149.0, 210.2 149.17, 210.17 149.33, 210.13 149.5, 210.1 149.67, 210.07 149.83, 210.03 150.0, 210.0 150.17, 209.97 150.33, 209.93 150.5, 209.9 150.67, 209.87 150.83, 209.83 151.0, 209.8 151.17, 209.77 151.33, 209.73 151.5, 209.7 151.67, 209.67 151.83, 209.63 152.0, 209.6 152.17, 209.57 152.33, 209.53 152.5, 209.5 152.67, 209.47 152.83, 209.43 153.0, 209.4 153.17, 209.37 153.33, 209.33 153.5, 209.3 153.67, 209.27 153.83, 209.23 154.0, 209.2 154.17, 209.17 154.33, 209.13 154.5, 209.1 154.67, 209.07 154.83, 209.03 155.0, 209.0 155.17, 208.97 155.33, 208.93 155.5, 208.9 155.67, 208.87 155.83, 208.83 156.0, 208.8 156.17, 208.77 156.33, 208.73 156.5, 208.7 156.67, 208.67 156.83, 208.63 157.0, 208.6 157.17, 208.57 157.33, 208.53 157.5, 208.5 157.67, 208.47 157.83, 208.43 158.0, 208.4 158.17, 208.37 158.33, 208.33 158.5, 208.3 158.67, 208.27 158.83, 208.23 159.0, 208.2 159.17, 208.17 159.33, 208.13 159.5, 208.1 159.67, 208.07 159.83, 208.03 160.0, 208.0 160.17, 207.97 160.33, 207.93 160.5, 207.9 160.67, 207.87 160.83, 207.83 161.0, 207.8 161.17, 207.77 161.33, 207.73 161.5, 207.7 161.67, 207.67 161.83, 207.63 162.0, 207.6 162.17, 207.57 162.33, 207.53 162.5, 207.5 162.67, 207.47 162.83, 207.43 163.0, 207.4 163.17, 207.37 163.33, 207.33 163.5, 207.3 163.67, 207.27 163.83, 207.23 164.0, 207.2 164.17, 207.17 164.33, 207.13 164.5, 207.1 164.67, 207.07 164.83, 207.03 165.0, 207.0 165.17, 206.97 165.33, 206.93 165.5, 206.9 165.67, 206.87 165.83, 206.83 166.0, 206.8 166.17, 206.77 166.33, 206.73 166.5, 206.7 166.67, 206.67 166.83, 206.63 167.0, 206.6 167.17, 206.57 167.33, 206.53 167.5, 206.5 167.67, 206.47 167.83, 206.43 168.0, 206.4 168.17, 206.37 168.33, 206.33 168.5, 206.3 168.67, 206.27 168.83, 206.23 169.0, 206.2 169.17, 206.17 169.33, 206.13 169.5, 206.1 169.67, 206.07 169.83, 206.03 170.0, 206.0 170.17, 205.97 170.33, 205.93 170.5, 205.9 170.67, 205.87 170.83, 205.83 171.0, 205.8 171.17, 205.77 171.33, 205.73 171.5, 205.7 171.67, 205.67 171.83, 205.63 172.0, 205.6 172.17, 205.57 172.33, 205.53 172.5, 205.5 172.67, 205.47 172.83, 205.43 173.0, 205.4 173.17, 205.37 173.33, 205.33 173.5, 205.3 173.67, 205.27 173.83, 205.23 174.0, 205.2 174.17, 205.17 174.33, 205.13 174.5, 205.1 174.67, 205.07 174.83, 205.03 175.0, 205.0 175.17, 204.97 175.33, 204.93 175.5, 204.9 175.67, 204.87 175.83, 204.83 176.0, 204.8 176.17, 204.77 176.33, 204.73 176.5, 204.7 176.67, 204.67 176.83, 204.63 177.0, 204.6 177.17, 204.57 177.33, 204.53 177.5, 204.5 177.67, 204.47 177.83, 204.43 178.0, 204.4 178.17, 204.37 178.33, 204.33 178.5, 204.3 178.67, 204.27 178.83, 204.23 179.0, 204.2 179.17, 204.17 179.33, 204.13 179.5, 204.1 179.67, 204.07 179.83, 204.03 180.0, 204.0 180.17, 203.97 180.33, 203.93 180.5, 203.9 180.67, 203.87 180.83, 203.83 181.0, 203.8 181.17, 203.77 181.33, 203.73 181.5, 203.7 181.67, 203.67 181.83, 203.63 182.0, 203.6 182.17, 203.57 182.33, 203.53 182.5, 203.5 182.67, 203.47 182.83, 203.43 183.0, 203.4 183.17, 203.37 183.33, 203.33 183.5, 203.3 183.67, 203.27 183.83, 203.23 184.0, 203.2 184.17, 203.17 184.33, 203.13 184.5, 203.1 184.67, 203.07 184.83, 203.03 185.0, 203.0 185.17, 202.97 185.33, 202.93 185.5, 202.9 185.67, 202.87 185.83, 202.83 186.0, 202.8 186.17, 202.77 186.33, 202.73 186.5, 202.7 186.67, 202.67 186.83, 202.63 187.0, 202.6 187.17, 202.57 187.33, 202.53 187.5, 202.5 187.67, 202.47 187.83, 202.43 188.0, 202.4 188.17, 202.37 188.33, 202.33 188.5, 202.3 188.67, 202.27 188.83, 202.23 189.0, 202.2 189.17, 202.17 189.33, 202.13 189.5, 202.1 189.67, 202.07 189.83, 202.03 190.0, 202.0 190.17, 201.97 190.33, 201.93 190.5, 201.9 190.67, 201.87 190.83, 201.83 191.0, 201.8 191.17, 201.77 191.33, 201.73 191.5, 201.7 191.67, 201.67 191.83, 201.63 192.0, 201.6 192.17, 201.57 192.33, 201.53 192.5, 201.5 192.67, 201.47 192.83, 201.43 193.0, 201.4 193.17, 201.37 193.33, 201.33 193.5, 201.3 193.67, 201.27 193.83, 201.23 194.0, 201.2 194.17, 201.17 194.33, 201.13 194.5, 201.1 194.67, 201.07 194.83, 201.03 195.0, 201.0 195.17, 200.97 195.33, 200.93 195.5, 200.9 195.67, 200.87 195.83, 200.83 196.0, 200.8 196.17, 200.77 196.33, 200.73 196.5, 200.7 196.67, 200.67 196.83, 200.63 197.0, 200.6 197.17, 200.57 197.33, 200.53 197.5, 200.5 197.67, 200.47 197.83, 200.43 198.0, 200.4 198.17, 200.37 198.33, 200.33 198.5, 200.3 198.67, 200.27 198.83, 200.23 199.0, 200.2 199.17, 200.17 199.33, 200.13 199.5, 200.1 199.67, 200.07 199.83, 200.03 200.0, 200.0 200.17, 199.97 200.33, 199.93 200.5, 199.9 200.67, 199.87 200.83, 199.83 201.0, 199.8 201.17, 199.77 201.33, 199.73 201.5, 199.7 201.67, 199.67 201.83, 199.63 202.0, 199.6 202.17, 199.57 202.33, 199.53 202.5, 199.5 202.67, 199.47 202.83, 199.43 203.0, 199.4 203.17, 199.37 203.33, 199.33 203.5, 199.3 203.67, 199.27 203.83, 199.23 204.0, 199.2 204.17, 199.17 204.33, 199.13 204.5, 199.1 204.67, 199.07 204.83, 199.03 205.0, 199.0 205.17, 198.97 205.33, 198.93 205.5, 198.9 205.67, 198.87 205.83, 198.83 206.0, 198.8 206.17, 198.77 206.33, 198.73 206.5, 198.7 206.67, 198.67 206.83, 198.63 207.0, 198.6 207.17, 198.57 207.33, 198.53 207.5, 198.5 207.67, 198.47 207.83, 198.43 208.0, 198.4 208.17, 198.37 208.33, 198.33 208.5, 198.3 208.67, 198.27 208.83, 198.23 209.0, 198.2 209.17, 198.17 209.33, 198.13 209.5, 198.1 209.67, 198.07 209.83, 198.03 210.0, 198.0 210.17, 197.97 210.33, 197.93 210.5, 197.9 210.67, 197.87 210.83, 197.83 211.0, 197.8 211.17, 197.77 211.33, 197.73 211.5, 197.7 211.67, 197.67 211.83, 197.63 212.0, 197.6 212.17, 197.57 212.33, 197.53 212.5, 197.5 212.67, 197.47 212.83, 197.43 213.0, 197.4 213.17, 197.37 213.33, 197.33 213.5, 197.3 213.67, 197.27 213.83, 197.23 214.0, 197.2 214.17, 197.17 214.33, 197.13 214.5, 197.1 214.67, 197.07 214.83, 197.03 215.0, 197.0 215.17, 196.97 215.33, 196.93 215.5, 196.9 215.67, 196.87 215.83, 196.83 216.0, 196.8 216.17, 196.77 216.33, 196.73 216.5, 196.7 216.67, 196.67 216.83, 196.63 217.0, 196.6 217.17, 196.57 217.33, 196.53 217.5, 196.5 217.67, 196.47 217.83, 196.43 218.0, 196.4 218.17, 196.37 218.33, 196.33 218.5, 196.3 218.67, 196.27 218.83, 196.23 219.0, 196.2 219.17, 196.17 219.33, 196.13 219.5, 196.1 219.67, 196.07 219.83, 196.03 220.0, 196.0 220.17, 195.97 220.33, 195.93 220.5, 195.9 220.67, 195.87 220.83, 195.83 221.0, 195.8 221.17, 195.77 221.33, 195.73 221.5, 195.7 221.67, 195.67 221.83, 195.63 222.0, 195.6 222.17, 195.57 222.33, 195.53 222.5, 195.5 222.67, 195.47 222.83, 195.43 223.0, 195.4 223.17, 195.37 223.33, 195.33 223.5, 195.3 223.67, 195.27 223.83, 195.23 224.0, 195.2 224.17, 195.17 224.33, 195.13 224.5, 195.1 224.67, 195.07 224.83, 195.03 225.0, 195.0 225.17, 194.97 225.33, 194.93 225.5, 194.9 225.67, 194.87 225.83, 194.83 226.0, 194.8 226.17, 194.77 226.33, 194.73 226.5, 194.7 226.67, 194.67 226.83, 194.63 227.0, 194.6 227.17, 194.57 227.33, 194.53 227.5, 194.5 227.67, 194.47 227.83, 194.43 228.0, 194.4 228.17, 194.37 228.33, 194.33 228.5, 194.3 228.67, 194.27 228.83, 194.23 229.0, 194.2 229.17, 194.17 229.33, 194.13 229.5, 194.1 229.67, 194.07 229.83, 194.03 230.0, 194.0 230.17, 193.97 230.33, 193.93 230.5, 193.9 230.67, 193.87 230.83, 193.83 231.0, 193.8 231.17, 193.77 231.33, 193.73 231.5, 193.7 231.67, 193.67 231.83, 193.63 232.0, 193.6 232.17, 193.57 232.33, 193.53 232.5, 193.5 232.67, 193.47 232.83, 193.43 233.0, 193.4 233.17, 193.37 233.33, 193.33 233.5, 193.3 233.67, 193.27 233.83, 193.23 234.0, 193.2 234.17, 193.17 234.33, 193.13 234.5, 193.1 234.67, 193.07 234.83, 193.03 235.0, 193.0 235.17, 192.97 235.33, 192.93 235.5, 192.9 235.67, 192.87 235.83, 192.83 236.0, 192.8 236.17, 192.77 236.33, 192.73 236.5, 192.7 236.67, 192.67 236.83, 192.63 237.0, 192.6 237.17, 192.57 237.33, 192.53 237.5, 192.5 237.67, 192.47 237.83, 192.43 238.0, 192.4 238.17, 192.37 238.33, 192.33 238.5, 192.3 238.67, 192.27 238.83, 192.23 239.0, 192.2 239.17, 192.17 239.33, 192.13 239.5, 192.1 239.67, 192.07 239.83, 192.03 240.0, 192.0 240.17, 191.97 240.33, 191.93 240.5, 191.9 240.67, 191.87 240.83, 191.83 241.0, 191.8 241.17, 191.77 241.33, 191.73 241.5, 191.7 241.67, 191.67 241.83, 191.63 242.0, 191.6 242.17, 191.57 242.33, 191.53 242.5, 191.5 242.67, 191.47 242.83, 191.43 243.0, 191.4 243.17, 191.37 243.33, 191.33 243.5, 191.3 243.67, 191.27 243.83, 191.23 244.0, 191.2 244.17, 191.17 244.33, 191.13 244.5, 191.1 244.67, 191.07 244.83, 191.03 245.0, 191.0 245.17, 190.97 245.33, 190.93 245.5, 190.9 245.67, 190.87 245.83, 190.83 246.0, 190.8 246.17, 190.77 246.33, 190.73 246.5, 190.7 246.67, 190.67 246.83, 190.63 247.0, 190.6 247.17, 190.57 247.33, 190.53 247.5, 190.5 247.67, 190.47 247.83, 190.43 248.0, 190.4 248.17, 190.37 248.33, 190.33 248.5, 190.3 248.67, 190.27 248.83, 190.23 249.0, 190.2 249.17, 190.17 249.33, 190.13 249.5, 190.1 249.67, 190.07 249.83, 190.03 250.0, 190.0 250.17, 189.97 250.33, 189.93 250.5, 189.9 250.67, 189.87 250.83, 189.83 251.0, 189.8 251.17, 189.77 251.33, 189.73 251.5, 189.7 251.67, 189.67 251.83, 189.63 252.0, 189.6 252.17, 189.57 252.33, 189.53 252.5, 189.5 252.67, 189.47 252.83, 189.43 253.0, 189.4 253.17, 189.37 253.33, 189.33 253.5, 189.3 253.67, 189.27 253.83, 189.23 254.0, 189.2 254.17, 189.17 254.33, 189.13 254.5, 189.1 254.67, 189.07 254.83, 189.03 255.0, 189.0 255.17, 188.97 255.33, 188.93 255.5, 188.9 255.67, 188.87 255.83, 188.83 256.0, 188.8 256.17, 188.77 256.33, 188.73 256.5, 188.7 256.67, 188.67 256.83, 188.63 257.0, 188.6 257.17, 188.57 257.33, 188.53 257.5, 188.5 257.67, 188.47 257.83, 188.43 258.0, 188.4 258.17, 188.37 258.33, 188.33 258.5, 188.3 258.67, 188.27 258.83, 188.23 259.0, 188.2 259.17, 188.17 259.33, 188.13 259.5, 188.1 259.67, 188.07 259.83, 188.03 260.0, 188.0 260.17, 187.97 260.33, 187.93 260.5, 187.9 260.67, 187.87 260.83, 187.83 261.0, 187.8 261.17, 187.77 261.33, 187.73 261.5, 187.7 261.67, 187.67 261.83, 187.63 262.0, 187.6 262.17, 187.57 262.33, 187.53 262.5, 187.5 262.67, 187.47 262.83, 187.43 263.0, 187.4 263.17, 187.37 263.33, 187.33 263.5, 187.3 263.67, 187.27 263.83, 187.23 264.0, 187.2 264.17, 187.17 264.33, 187.13 264.5, 187.1 264.67, 187.07 264.83, 187.03 265.0, 187.0 265.17, 186.97 265.33, 186.93 265.5, 186.9 265.67, 186.87 265.83, 186.83 266.0, 186.8 266.17, 186.77 266.33, 186.73 266.5, 186.7 266.67, 186.67 266.83, 186.63 267.0, 186.6 267.17, 186.57 267.33, 186.53 267.5, 186.5 267.67, 186.47 267.83, 186.43 268.0, 186.4 268.17, 186.37 268.33, 186.33 268.5, 186.3 268.67, 186.27 268.83, 186.23 269.0, 186.2 269.17, 186.17 269.33, 186.13 269.5, 186.1 269.67, 186.07 269.83, 186.03 270.0, 186.0 270.17, 185.97 270.33, 185.93 270.5, 185.9 270.67, 185.87 270.83, 185.83 271.0, 185.8 271.17, 185.77 271.33, 185.73 271.5, 185.7 271.67, 185.67 271.83, 185.63 272.0, 185.6 272.17, 185.57 272.33, 185.53 272.5, 185.5 272.67, 185.47 272.83, 185.43 273.0, 185.4 273.17, 185.37 273.33, 185.33 273.5, 185.3 273.67, 185.27 273.83, 185.23 274.0, 185.2 274.17, 185.17 274.33, 185.13 274.5, 185.1 274.67, 185.07 274.83, 185.03 275.0, 185.0 275.17, 184.97 275.33, 184.93 275.5, 184.9 275.67, 184.87 275.83, 184.83 276.0, 184.8 276.17, 184.77 276.33, 184.73 276.5, 184.7 276.67, 184.67 276.83, 184.63 277.0, 184.6 277.17, 184.57 277.33, 184.53 277.5, 184.5 277.67, 184.47 277.83, 184.43 278.0, 184.4 278.17, 184.37 278.33, 184.33 278.5, 184.3 278.67, 184.27 278.83, 184.23 279.0, 184.2 279.17, 184.17 279.33, 184.13 279.5, 184.1 279.67, 184.07 279.83, 184.03 280.0, 184.0 280.17, 183.97 280.33, 183.93 280.5, 183.9 280.67, 183.87 280.83, 183.83 281.0, 183.8 281.17, 183.77 281.33, 183.73 281.5, 183.7 281.67, 183.67 281.83, 183.63 282.0, 183.6 282.17, 183.57 282.33, 183.53 282.5, 183.5 282.67, 183.47 282.83, 183.43 283.0, 183.4 283.17, 183.37 283.33, 183.33 283.5, 183.3 283.67, 183.27 283.83, 183.23 284.0, 183.2 284.17, 183.17 284.33, 183.13 284.5, 183.1 284.67, 183.07 284.83, 183.03 285.0, 183.0 285.17, 182.97 285.33, 182.93 285.5, 182.9 285.67, 182.87 285.83, 182.83 286.0, 182.8 286.17, 182.77 286.33, 182.73 286.5, 182.7 286.67, 182.67 286.83, 182.63 287.0, 182.6 287.17, 182.57 287.33, 182.53 287.5, 182.5 287.67, 182.47 287.83, 182.43 288.0, 182.4 288.17, 182.37 288.33, 182.33 288.5, 182.3 288.67, 182.27 288.83, 182.23 289.0, 182.2 289.17, 182.17 289.33, 182.13 289.5, 182.1 289.67, 182.07 289.83, 182.03 290.0, 182.0 290.17, 181.97 290.33, 181.93 290.5, 181.9 290.67, 181.87 290.83, 181.83 291.0, 181.8 291.17, 181.77 291.33, 181.73 291.5, 181.7 291.67, 181.67 291.83, 181.63 292.0, 181.6 292.17, 181.57 292.33, 181.53 292.5, 181.5 292.67, 181.47 292.83, 181.43 293.0, 181.4 293.17, 181.37 293.33, 181.33 293.5, 181.3 293.67, 181.27 293.83, 181.23 294.0, 181.2 294.17, 181.17 294.33, 181.13 294.5, 181.1 294.67, 181.07 294.83, 181.03 295.0, 181.0 295.17, 180.97 295.33, 180.93 295.5, 180.9 295.67, 180.87 295.83, 180.83 296.0, 180.8 296.17, 180.77 296.33, 180.73 296.5, 180.7 296.67, 180.67 296.83, 180.63 297.0, 180.6 297.17, 180.57 297.33, 180.53 297.5, 180.5 297.67, 180.47 297.83, 180.43 298.0, 180.4 298.17, 180.37 298.33, 180.33 298.5, 180.3 298.67, 180.27 298.83, 180.23 299.0, 180.2 299.17, 180.17 299.33, 180.13 299.5, 180.1 299.67, 180.07 299.83, 180.03 300.0, 180.0 300.17, 179.97 300.33, 179.93 300.5, 179.9 300.67, 179.87 300.83, 179.83 301.0, 179.8 301.17, 179.77 301.33, 179.73 301.5, 179.7 301.67, 179.67 301.83, 179.63 302.0, 179.6 302.17, 179.57 302.33, 179.53 302.5, 179.5 302.67, 179.47 302.83, 179.43 303.0, 179.4 303.17, 179.37 303.33, 179.33 303.5, 179.3 303.67, 179.27 303.83, 179.23 304.0, 179.2 304.17, 179.17 304.33, 179.13 304.5, 179.1 304.67, 179.07 304.83, 179.03 305.0, 179.0 305.17, 178.97 305.33, 178.93 305.5, 178.9 305.67, 178.87 305.83, 178.83 306.0, 178.8 306.17, 178.77 306.33, 178.73 306.5, 178.7 306.67, 178.67 306.83, 178.63 307.0, 178.6 307.17, 178.57 307.33, 178.53 307.5, 178.5 307.67, 178.47 307.83, 178.43 308.0, 178.4 308.17, 178.37 308.33, 178.33 308.5, 178.3 308.67, 178.27 308.83, 178.23 309.0, 178.2 309.17, 178.17 309.33, 178.13 309.5, 178.1 309.67, 178.07 309.83, 178.03 310.0, 178.0 310.17, 177.97 310.33, 177.93 310.5, 177.9 310.67, 177.87 310.83, 177.83 311.0, 177.8 311.17, 177.77 311.33, 177.73 311.5, 177.7 311.67, 177.67 311.83, 177.63 312.0, 177.6 312.17, 177.57 312.33, 177.53 312.5, 177.5 312.67, 177.47 312.83, 177.43 313.0, 177.4 313.17, 177.37 313.33, 177.33 313.5, 177.3 313.67, 177.27 313.83, 177.23 314.0, 177.2 314.17, 177.17 314.33, 177.13 314.5, 177.1 314.67, 177.07 314.83, 177.03 315.0, 177.0 315.17, 176.97 315.33, 176.93 315.5, 176.9 315.67, 176.87 315.83, 176.83 316.0, 176.8 316.17, 176.77 316.33, 176.73 316.5, 176.7 316.67, 176.67 316.83, 176.63 317.0, 176.6 317.17, 176.57 317.33, 176.53 317.5, 176.5 317.67, 176.47 317.83, 176.43 318.0, 176.4 318.17, 176.37 318.33, 176.33 318.5, 176.3 318.67, 176.27 318.83, 176.23 319.0, 176.2 319.17, 176.17 319.33, 176.13 319.5, 176.1 319.67, 176.07 319.83, 176.03 320.0, 176.0 320.17, 175.97 320.33, 175.93 320.5, 175.9 320.67, 175.87 320.83, 175.83 321.0, 175.8 321.17, 175.77 321.33, 175.73 321.5, 175.7 321.67, 175.67 321.83, 175.63 322.0, 175.6 322.17, 175.57 322.33, 175.53 322.5, 175.5 322.67, 175.47 322.83, 175.43 323.0, 175.4 323.17, 175.37 323.33, 175.33 323.5, 175.3 323.67, 175.27 323.83, 175.23 324.0, 175.2 324.17, 175.17 324.33, 175.13 324.5, 175.1 324.67, 175.07 324.83, 175.03 325.0, 175.0 325.17, 174.97 325.33, 174.93 325.5, 174.9 325.67, 174.87 325.83, 174.83 326.0, 174.8 326.17, 174.77 326.33, 174.73 326.5, 174.7 326.67, 174.67 326.83, 174.63 327.0, 174.6 327.17, 174.57 327.33, 174.53 327.5, 174.5 327.67, 174.47 327.83, 174.43 328.0, 174.4 328.17, 174.37 328.33, 174.33 328.5, 174.3 328.67, 174.27 328.83, 174.23 329.0, 174.2 329.17, 174.17 329.33, 174.13 329.5, 174.1 329.67, 174.07 329.83, 174.03 330.0, 174.0 330.17, 173.97 330.33, 173.93 330.5, 173.9 330.67, 173.87 330.83, 173.83 331.0, 173.8 331.17, 173.77 331.33, 173.73 331.5, 173.7 331.67, 173.67 331.83, 173.63 332.0, 173.6 332.17, 173.57 332.33, 173.53 332.5, 173.5 332.67, 173.47 332.83, 173.43 333.0, 173.4 333.17, 173.37 333.33, 173.33 333.5, 173.3 333.67, 173.27 333.83, 173.23 334.0, 173.2 334.17, 173.17 334.33, 173.13 334.5, 173.1 334.67, 173.07 334.83, 173.03 335.0, 173.0 335.17, 172.97 335.33, 172.93 335.5, 172.9 335.67, 172.87 335.83, 172.83 336.0, 172.8 336.17, 172.77 336.33, 172.73 336.5, 172.7 336.67, 172.67 336.83, 172.63 337.0, 172.6 337.17, 172.57 337.33, 172.53 337.5, 172.5 337.67, 172.47 337.83, 172.43 338.0, 172.4 338.17, 172.37 338.33, 172.33 338.5, 172.3 338.67, 172.27 338.83, 172.23 339.0, 172.2 339.17, 172.17 339.33, 172.13 339.5, 172.1 339.67, 172.07 339.83, 172.03 340.0, 172.0 340.17, 171.97 340.33, 171.93 340.5, 171.9 340.67, 171.87 340.83, 171.83 341.0, 171.8 341.17, 171.77 341.33, 171.73 341.5, 171.7 341.67, 171.67 341.83, 171.63 342.0, 171.6 342.17, 171.57 342.33, 171.53 342.5, 171.5 342.67, 171.47 342.83, 171.43 343.0, 171.4 343.17, 171.37 343.33, 171.33 343.5, 171.3 343.67, 171.27 343.83, 171.23 344.0, 171.2 344.17, 171.17 344.33, 171.13 344.5, 171.1 344.67, 171.07 344.83, 171.03 345.0, 171.0 345.17, 170.97 345.33, 170.93 345.5, 170.9 345.67, 170.87 345.83, 170.83 346.0, 170.8 346.17, 170.77 346.33, 170.73 346.5, 170.7 346.67, 170.67 346.83, 170.63 347.0, 170.6 347.17, 170.57 347.33, 170.53 347.5, 170.5 347.67, 170.47 347.83, 170.43 348.0, 170.4 348.17, 170.37 348.33, 170.33 348.5, 170.3 348.67, 170.27 348.83, 170.23 349.0, 170.2 349.17, 170.17 349.33, 170.13 349.5, 170.1 349.67, 170.07 349.83, 170.03 350.0, 170.0 350.17, 169.97 350.33, 169.93 350.5, 169.9 350.67, 169.87 350.83, 169.83 351.0, 169.8 351.17, 169.77 351.33, 169.73 351.5, 169.7 351.67, 169.67 351.83, 169.63 352.0, 169.6 352.17, 169.57 352.33, 169.53 352.5, 169.5 352.67, 169.47 352.83, 169.43 353.0, 169.4 353.17, 169.37 353.33, 169.33 353.5, 169.3 353.67, 169.27 353.83, 169.23 354.0, 169.2 354.17, 169.17 354.33, 169.13 354.5, 169.1 354.67, 169.07 354.83, 169.03 355.0, 169.0 355.17, 168.97 355.33, 168.93 355.5, 168.9 355.67, 168.87 355.83, 168.83 356.0, 168.8 356.17, 168.77 356.33, 168.73 356.5, 168.7 356.67, 168.67 356.83, 168.63 357.0, 168.6 357.17, 168.57 357.33, 168.53 357.5, 168.5 357.67, 168.47 357.83, 168.43 358.0, 168.4 358.17, 168.37 358.33, 168.33 358.5, 168.3 358.67, 168.27 358.83, 168.23 359.0, 168.2 359.17, 168.17 359.33, 168.13 359.5, 168.1 359.67, 168.07 359.83, 168.03 360.0, 168.0 360.17, 167.97 360.33, 167.93 360.5, 167.9 360.67, 167.87 360.83, 167.83 361.0, 167.8 361.17, 167.77 361.33, 167.73 361.5, 167.7 361.67, 167.67 361.83, 167.63 362.0, 167.6 362.17, 167.57 362.33, 167.53 362.5, 167.5 362.67, 167.47 362.83, 167.43 363.0, 167.4 363.17, 167.37 363.33, 167.33 363.5, 167.3 363.67, 167.27 363.83, 167.23 364.0, 167.2 364.17, 167.17 364.33, 167.13 364.5, 167.1 364.67, 167.07 364.83, 167.03 365.0, 167.0 365.17, 166.97 365.33, 166.93 365.5, 166.9 365.67, 166.87 365.83, 166.83 366.0, 166.8 366.17, 166.77 366.33, 166.73 366.5, 166.7 366.67, 166.67 366.83, 166.63 367.0, 166.6 367.17, 166.57 367.33, 166.53 367.5, 166.5 367.67, 166.47 367.83, 166.43 368.0, 166.4 368.17, 166.37 368.33, 166.33 368.5, 166.3 368.67, 166.27 368.83, 166.23 369.0, 166.2 369.17, 166.17 369.33, 166.13 369.5, 166.1 369.67, 166.07 369.83, 166.03 370.0, 166.0 370.17, 165.97 370.33, 165.93 370.5, 165.9 370.67, 165.87 370.83, 165.83 371.0, 165.8 371.17, 165.77 371.33, 165.73 371.5, 165.7 371.67, 165.67 371.83, 165.63 372.0, 165.6 372.17, 165.57 372.33, 165.53 372.5, 165.5 372.67, 165.47 372.83, 165.43 373.0, 165.4 373.17, 165.37 373.33, 165.33 373.5, 165.3 373.67, 165.27 373.83, 165.23 374.0, 165.2 374.17, 165.17 374.33, 165.13 374.5, 165.1 374.67, 165.07 374.83, 165.03 375.0, 165.0 375.17, 164.97 375.33, 164.93 375.5, 164.9 375.67, 164.87 375.83, 164.83 376.0, 164.8 376.17, 164.77 376.33, 164.73 376.5, 164.7 376.67, 164.67 376.83, 164.63 377.0, 164.6 377.17, 164.57 377.33, 164.53 377.5, 164.5 377.67, 164.47 377.83, 164.43 378.0, 164.4 378.17, 164.37 378.33, 164.33 378.5, 164.3 378.67, 164.27 378.83, 164.23 379.0, 164.2 379.17, 164.17 379.33, 164.13 379.5, 164.1 379.67, 164.07 379.83, 164.03 380.0, 164.0 380.17, 163.97 380.33, 163.93 380.5, 163.9 380.67, 163.87 380.83, 163.83 381.0, 163.8 381.17, 163.77 381.33, 163.73 381.5, 163.7 381.67, 163.67 381.83, 163.63 382.0, 163.6 382.17, 163.57 382.33, 163.53 382.5, 163.5 382.67, 163.47 382.83, 163.43 383.0, 163.4 383.17, 163.37 383.33, 163.33 383.5, 163.3 383.67, 163.27 383.83, 163.23 384.0, 163.2 384.17, 163.17 384.33, 163.13 384.5, 163.1 384.67, 163.07 384.83, 163.03 385.0, 163.0 385.17, 162.97 385.33, 162.93 385.5, 162.9 385.67, 162.87 385.83, 162.83 386.0, 162.8 386.17, 162.77 386.33, 162.73 386.5, 162.7 386.67, 162.67 386.83, 162.63 387.0, 162.6 387.17, 162.57 387.33, 162.53 387.5, 162.5 387.67, 162.47 387.83, 162.43 388.0, 162.4 388.17, 162.37 388.33, 162.33 388.5, 162.3 388.67, 162.27 388.83, 162.23 389.0, 162.2 389.17, 162.17 389.33, 162.13 389.5, 162.1 389.67, 162.07 389.83, 162.03 390.0, 162.0 390.17, 161.97 390.33, 161.93 390.5, 161.9 390.67, 161.87 390.83, 161.83 391.0, 161.8 391.17, 161.77 391.33, 161.73 391.5, 161.7 391.67, 161.67 391.83, 161.63 392.0, 161.6 392.17, 161.57 392.33, 161.53 392.5, 161.5 392.67, 161.47 392.83, 161.43 393.0, 161.4 393.17, 161.37 393.33, 161.33 393.5, 161.3 393.67, 161.27 393.83, 161.23 394.0, 161.2 394.17, 161.17 394.33, 161.13 394.5, 161.1 394.67, 161.07 394.83, 161.03 395.0, 161.0 395.17, 160.97 395.33, 160.93 395.5, 160.9 395.67, 160.87 395.83, 160.83 396.0, 160.8 396.17, 160.77 396.33, 160.73 396.5, 160.7 396.67, 160.67 396.83, 160.63 397.0, 160.6 397.17, 160.57 397.33, 160.53 397.5, 160.5 397.67, 160.47 397.83, 160.43 398.0, 160.4 398.17, 160.37 398.33, 160.33 398.5, 160.3 398.67, 160.27 398.83, 160.23 399.0, 160.2 399.17, 160.17 399.33, 160.13 399.5, 160.1 399.67, 160.07 399.83, 160.03 400.0, 160.0 " fill="none" stroke="white" stroke-width="1.5" stroke-linejoin="round" stroke-opacity="1"/>

 </svg>