<svg version="1.1" 
 baseProfile="full" 
 width="400" 
 height="400" 
 xmlns="http://www.w3.org/2000/svg">
<rect x="0.0" y="0.0" width="400" height="400" fill="black" stroke="black" stroke-width="0" opacity="1"/>
<line x1="0.0" y1="0.0" x2="0.0" y2="400.0" stroke="white" stroke-width="1" opacity="0.4" stroke-linecap="butt"/>
<line x1="40.0" y1="0.0" x2="40.0" y2="400.0" stroke="white" stroke-width="1" opacity="0.4" stroke-linecap="butt"/>
<line x1="80.0" y1="0.0" x2="80.0" y2="400.0" stroke="white" stroke-width="1" opacity="0.4" stroke-linecap="butt"/>
<line x1="120.0" y1="0.0" x2="120.0" y2="400.0" stroke="white" stroke-width="1" opacity="0.4" stroke-linecap="butt"/>
<line x1="160.0" y1="0.0" x2="160.0" y2="400.0" stroke="white" stroke-width="1" opacity="0.4" stroke-linecap="butt"/>
<line x1="200.0" y1="0.0" x2="200.0" y2="400.0" stroke="white" stroke-width="1" opacity="0.4" stroke-linecap="butt"/>
<line x1="240.0" y1="0.0" x2="240.0" y2="400.0" stroke="white" stroke-width="1" opacity="0.4" stroke-linecap="butt"/>
<line x1="280.0" y1="0.0" x2="280.0" y2="400.0" stroke="white" stroke-width="1" opacity="0.4" stroke-linecap="butt"/>
<line x1="320.0" y1="0.0" x2="320.0" y2="400.0" stroke="white" stroke-width="1" opacity="0.4" stroke-linecap="butt"/>
<line x1="360.0" y1="0.0" x2="360.0" y2="400.0" stroke="white" stroke-width="1" opacity="0.4" stroke-linecap="butt"/>
<line x1="0.0" y1="0.0" x2="400.0" y2="0.0" stroke="white" stroke-width="1" opacity="0.4" stroke-linecap="butt"/>
<line x1="0.0" y1="40.0" x2="400.0" y2="40.0" stroke="white" stroke-width="1" opacity="0.4" stroke-linecap="butt"/>
<line x1="0.0" y1="80.0" x2="400.0" y2="80.0" stroke="white" stroke-width="1" opacity="0.4" stroke-linecap="butt"/>
<line x1="0.0" y1="120.0" x2="400.0" y2="120.0" stroke="white" stroke-width="1" opacity="0.4" stroke-linecap="butt"/>
<line x1="0.0" y1="160.0" x2="400.0" y2="160.0" stroke="white" stroke-width="1" opacity="0.4" stroke-linecap="butt"/>
<line x1="0.0" y1="200.0" x2="400.0" y2="200.0" stroke="white" stroke-width="1" opacity="0.4" stroke-linecap="butt"/>
<line x1="0.0" y1="240.0" x2="400.0" y2="240.0" stroke="white" stroke-width="1" opacity="0.4" stroke-linecap="butt"/>
<line x1="0.0" y1="280.0" x2="400.0" y2="280.0" stroke="white" stroke-width="1" opacity="0.4" stroke-linecap="butt"/>
<line x1="0.0" y1="320.0" x2="400.0" y2="320.0" stroke="white" stroke-width="1" opacity="0.4" stroke-linecap="butt"/>
<line x1="0.0" y1="360.0" x2="400.0" y2="360.0" stroke="white" stroke-width="1" opacity="0.4" stroke-linecap="butt"/>
<line x1="0.0" y1="200.0" x2="400.0" y2="200.0" stroke="yellow" stroke-width="2.5" opacity="1" stroke-linecap="butt"/>
<line x1="200.0" y1="0.0" x2="200.0" y2="400.0" stroke="yellow" stroke-width="2.5" opacity="1" stroke-linecap="butt"/>
<polygon points="391.0 204.0, 401.0 200.0, 391.0 196.0, 393.0 200.0" fill="yellow"/><polygon points="204.0 9.0, 200.0 -1.0, 196.0 9.0, 200.0 7.0" fill="yellow"/><image x="-60.0" y="-60.0" width="200" height="200" href="/Users/girirajhira/PycharmProjects/Giraphics3/Taylor/expr.png"/><polyline points="0.0, 250.0 0.17, 249.96 0.33, 249.92 0.5, 249.88 0.67, 249.83 0.83, 249.79 1.0, 249.75 1.17, 249.71 1.33, 249.67 1.5, 249.62 1.67, 249.58 1.83, 249.54 2.0, 249.5 2.17, 249.46 2.33, 249.42 2.5, 249.38 2.67, 249.33 2.83, 249.29 3.0, 249.25 3.17, 249.21 3.33, 249.17 3.5, 249.12 3.67, 249.08 3.83, 249.04 4.0, 249.0 4.17, 248.96 4.33, 248.92 4.5, 248.88 4.67, 248.83 4.83, 248.79 5.0, 248.75 5.17, 248.71 5.33, 248.67 5.5, 248.62 5.67, 248.58 5.83, 248.54 6.0, 248.5 6.17, 248.46 6.33, 248.42 6.5, 248.38 6.67, 248.33 6.83, 248.29 7.0, 248.25 7.17, 248.21 7.33, 248.17 7.5, 248.12 7.67, 248.08 7.83, 248.04 8.0, 248.0 8.17, 247.96 8.33, 247.92 8.5, 247.88 8.67, 247.83 8.83, 247.79 9.0, 247.75 9.17, 247.71 9.33, 247.67 9.5, 247.62 9.67, 247.58 9.83, 247.54 10.0, 247.5 10.17, 247.46 10.33, 247.42 10.5, 247.38 10.67, 247.33 10.83, 247.29 11.0, 247.25 11.17, 247.21 11.33, 247.17 11.5, 247.12 11.67, 247.08 11.83, 247.04 12.0, 247.0 12.17, 246.96 12.33, 246.92 12.5, 246.88 12.67, 246.83 12.83, 246.79 13.0, 246.75 13.17, 246.71 13.33, 246.67 13.5, 246.62 13.67, 246.58 13.83, 246.54 14.0, 246.5 14.17, 246.46 14.33, 246.42 14.5, 246.38 14.67, 246.33 14.83, 246.29 15.0, 246.25 15.17, 246.21 15.33, 246.17 15.5, 246.12 15.67, 246.08 15.83, 246.04 16.0, 246.0 16.17, 245.96 16.33, 245.92 16.5, 245.88 16.67, 245.83 16.83, 245.79 17.0, 245.75 17.17, 245.71 17.33, 245.67 17.5, 245.62 17.67, 245.58 17.83, 245.54 18.0, 245.5 18.17, 245.46 18.33, 245.42 18.5, 245.38 18.67, 245.33 18.83, 245.29 19.0, 245.25 19.17, 245.21 19.33, 245.17 19.5, 245.12 19.67, 245.08 19.83, 245.04 20.0, 245.0 20.17, 244.96 20.33, 244.92 20.5, 244.88 20.67, 244.83 20.83, 244.79 21.0, 244.75 21.17, 244.71 21.33, 244.67 21.5, 244.62 21.67, 244.58 21.83, 244.54 22.0, 244.5 22.17, 244.46 22.33, 244.42 22.5, 244.38 22.67, 244.33 22.83, 244.29 23.0, 244.25 23.17, 244.21 23.33, 244.17 23.5, 244.12 23.67, 244.08 23.83, 244.04 24.0, 244.0 24.17, 243.96 24.33, 243.92 24.5, 243.88 24.67, 243.83 24.83, 243.79 25.0, 243.75 25.17, 243.71 25.33, 243.67 25.5, 243.62 25.67, 243.58 25.83, 243.54 26.0, 243.5 26.17, 243.46 26.33, 243.42 26.5, 243.38 26.67, 243.33 26.83, 243.29 27.0, 243.25 27.17, 243.21 27.33, 243.17 27.5, 243.12 27.67, 243.08 27.83, 243.04 28.0, 243.0 28.17, 242.96 28.33, 242.92 28.5, 242.88 28.67, 242.83 28.83, 242.79 29.0, 242.75 29.17, 242.71 29.33, 242.67 29.5, 242.62 29.67, 242.58 29.83, 242.54 30.0, 242.5 30.17, 242.46 30.33, 242.42 30.5, 242.38 30.67, 242.33 30.83, 242.29 31.0, 242.25 31.17, 242.21 31.33, 242.17 31.5, 242.12 31.67, 242.08 31.83, 242.04 32.0, 242.0 32.17, 241.96 32.33, 241.92 32.5, 241.88 32.67, 241.83 32.83, 241.79 33.0, 241.75 33.17, 241.71 33.33, 241.67 33.5, 241.62 33.67, 241.58 33.83, 241.54 34.0, 241.5 34.17, 241.46 34.33, 241.42 34.5, 241.38 34.67, 241.33 34.83, 241.29 35.0, 241.25 35.17, 241.21 35.33, 241.17 35.5, 241.12 35.67, 241.08 35.83, 241.04 36.0, 241.0 36.17, 240.96 36.33, 240.92 36.5, 240.88 36.67, 240.83 36.83, 240.79 37.0, 240.75 37.17, 240.71 37.33, 240.67 37.5, 240.62 37.67, 240.58 37.83, 240.54 38.0, 240.5 38.17, 240.46 38.33, 240.42 38.5, 240.38 38.67, 240.33 38.83, 240.29 39.0, 240.25 39.17, 240.21 39.33, 240.17 39.5, 240.12 39.67, 240.08 39.83, 240.04 40.0, 240.0 40.17, 239.96 40.33, 239.92 40.5, 239.88 40.67, 239.83 40.83, 239.79 41.0, 239.75 41.17, 239.71 41.33, 239.67 41.5, 239.62 41.67, 239.58 41.83, 239.54 42.0, 239.5 42.17, 239.46 42.33, 239.42 42.5, 239.38 42.67, 239.33 42.83, 239.29 43.0, 239.25 43.17, 239.21 43.33, 239.17 43.5, 239.12 43.67, 239.08 43.83, 239.04 44.0, 239.0 44.17, 238.96 44.33, 238.92 44.5, 238.88 44.67, 238.83 44.83, 238.79 45.0, 238.75 45.17, 238.71 45.33, 238.67 45.5, 238.62 45.67, 238.58 45.83, 238.54 46.0, 238.5 46.17, 238.46 46.33, 238.42 46.5, 238.38 46.67, 238.33 46.83, 238.29 47.0, 238.25 47.17, 238.21 47.33, 238.17 47.5, 238.12 47.67, 238.08 47.83, 238.04 48.0, 238.0 48.17, 237.96 48.33, 237.92 48.5, 237.88 48.67, 237.83 48.83, 237.79 49.0, 237.75 49.17, 237.71 49.33, 237.67 49.5, 237.62 49.67, 237.58 49.83, 237.54 50.0, 237.5 50.17, 237.46 50.33, 237.42 50.5, 237.38 50.67, 237.33 50.83, 237.29 51.0, 237.25 51.17, 237.21 51.33, 237.17 51.5, 237.12 51.67, 237.08 51.83, 237.04 52.0, 237.0 52.17, 236.96 52.33, 236.92 52.5, 236.88 52.67, 236.83 52.83, 236.79 53.0, 236.75 53.17, 236.71 53.33, 236.67 53.5, 236.62 53.67, 236.58 53.83, 236.54 54.0, 236.5 54.17, 236.46 54.33, 236.42 54.5, 236.38 54.67, 236.33 54.83, 236.29 55.0, 236.25 55.17, 236.21 55.33, 236.17 55.5, 236.12 55.67, 236.08 55.83, 236.04 56.0, 236.0 56.17, 235.96 56.33, 235.92 56.5, 235.88 56.67, 235.83 56.83, 235.79 57.0, 235.75 57.17, 235.71 57.33, 235.67 57.5, 235.62 57.67, 235.58 57.83, 235.54 58.0, 235.5 58.17, 235.46 58.33, 235.42 58.5, 235.38 58.67, 235.33 58.83, 235.29 59.0, 235.25 59.17, 235.21 59.33, 235.17 59.5, 235.12 59.67, 235.08 59.83, 235.04 60.0, 235.0 60.17, 234.96 60.33, 234.92 60.5, 234.88 60.67, 234.83 60.83, 234.79 61.0, 234.75 61.17, 234.71 61.33, 234.67 61.5, 234.62 61.67, 234.58 61.83, 234.54 62.0, 234.5 62.17, 234.46 62.33, 234.42 62.5, 234.38 62.67, 234.33 62.83, 234.29 63.0, 234.25 63.17, 234.21 63.33, 234.17 63.5, 234.12 63.67, 234.08 63.83, 234.04 64.0, 234.0 64.17, 233.96 64.33, 233.92 64.5, 233.88 64.67, 233.83 64.83, 233.79 65.0, 233.75 65.17, 233.71 65.33, 233.67 65.5, 233.62 65.67, 233.58 65.83, 233.54 66.0, 233.5 66.17, 233.46 66.33, 233.42 66.5, 233.38 66.67, 233.33 66.83, 233.29 67.0, 233.25 67.17, 233.21 67.33, 233.17 67.5, 233.12 67.67, 233.08 67.83, 233.04 68.0, 233.0 68.17, 232.96 68.33, 232.92 68.5, 232.88 68.67, 232.83 68.83, 232.79 69.0, 232.75 69.17, 232.71 69.33, 232.67 69.5, 232.62 69.67, 232.58 69.83, 232.54 70.0, 232.5 70.17, 232.46 70.33, 232.42 70.5, 232.38 70.67, 232.33 70.83, 232.29 71.0, 232.25 71.17, 232.21 71.33, 232.17 71.5, 232.12 71.67, 232.08 71.83, 232.04 72.0, 232.0 72.17, 231.96 72.33, 231.92 72.5, 231.88 72.67, 231.83 72.83, 231.79 73.0, 231.75 73.17, 231.71 73.33, 231.67 73.5, 231.62 73.67, 231.58 73.83, 231.54 74.0, 231.5 74.17, 231.46 74.33, 231.42 74.5, 231.38 74.67, 231.33 74.83, 231.29 75.0, 231.25 75.17, 231.21 75.33, 231.17 75.5, 231.12 75.67, 231.08 75.83, 231.04 76.0, 231.0 76.17, 230.96 76.33, 230.92 76.5, 230.88 76.67, 230.83 76.83, 230.79 77.0, 230.75 77.17, 230.71 77.33, 230.67 77.5, 230.62 77.67, 230.58 77.83, 230.54 78.0, 230.5 78.17, 230.46 78.33, 230.42 78.5, 230.38 78.67, 230.33 78.83, 230.29 79.0, 230.25 79.17, 230.21 79.33, 230.17 79.5, 230.12 79.67, 230.08 79.83, 230.04 80.0, 230.0 80.17, 229.96 80.33, 229.92 80.5, 229.88 80.67, 229.83 80.83, 229.79 81.0, 229.75 81.17, 229.71 81.33, 229.67 81.5, 229.62 81.67, 229.58 81.83, 229.54 82.0, 229.5 82.17, 229.46 82.33, 229.42 82.5, 229.38 82.67, 229.33 82.83, 229.29 83.0, 229.25 83.17, 229.21 83.33, 229.17 83.5, 229.12 83.67, 229.08 83.83, 229.04 84.0, 229.0 84.17, 228.96 84.33, 228.92 84.5, 228.88 84.67, 228.83 84.83, 228.79 85.0, 228.75 85.17, 228.71 85.33, 228.67 85.5, 228.62 85.67, 228.58 85.83, 228.54 86.0, 228.5 86.17, 228.46 86.33, 228.42 86.5, 228.38 86.67, 228.33 86.83, 228.29 87.0, 228.25 87.17, 228.21 87.33, 228.17 87.5, 228.12 87.67, 228.08 87.83, 228.04 88.0, 228.0 88.17, 227.96 88.33, 227.92 88.5, 227.88 88.67, 227.83 88.83, 227.79 89.0, 227.75 89.17, 227.71 89.33, 227.67 89.5, 227.62 89.67, 227.58 89.83, 227.54 90.0, 227.5 90.17, 227.46 90.33, 227.42 90.5, 227.38 90.67, 227.33 90.83, 227.29 91.0, 227.25 91.17, 227.21 91.33, 227.17 91.5, 227.12 91.67, 227.08 91.83, 227.04 92.0, 227.0 92.17, 226.96 92.33, 226.92 92.5, 226.88 92.67, 226.83 92.83, 226.79 93.0, 226.75 93.17, 226.71 93.33, 226.67 93.5, 226.62 93.67, 226.58 93.83, 226.54 94.0, 226.5 94.17, 226.46 94.33, 226.42 94.5, 226.38 94.67, 226.33 94.83, 226.29 95.0, 226.25 95.17, 226.21 95.33, 226.17 95.5, 226.12 95.67, 226.08 95.83, 226.04 96.0, 226.0 96.17, 225.96 96.33, 225.92 96.5, 225.88 96.67, 225.83 96.83, 225.79 97.0, 225.75 97.17, 225.71 97.33, 225.67 97.5, 225.62 97.67, 225.58 97.83, 225.54 98.0, 225.5 98.17, 225.46 98.33, 225.42 98.5, 225.38 98.67, 225.33 98.83, 225.29 99.0, 225.25 99.17, 225.21 99.33, 225.17 99.5, 225.12 99.67, 225.08 99.83, 225.04 100.0, 225.0 100.17, 224.96 100.33, 224.92 100.5, 224.88 100.67, 224.83 100.83, 224.79 101.0, 224.75 101.17, 224.71 101.33, 224.67 101.5, 224.62 101.67, 224.58 101.83, 224.54 102.0, 224.5 102.17, 224.46 102.33, 224.42 102.5, 224.38 102.67, 224.33 102.83, 224.29 103.0, 224.25 103.17, 224.21 103.33, 224.17 103.5, 224.12 103.67, 224.08 103.83, 224.04 104.0, 224.0 104.17, 223.96 104.33, 223.92 104.5, 223.88 104.67, 223.83 104.83, 223.79 105.0, 223.75 105.17, 223.71 105.33, 223.67 105.5, 223.62 105.67, 223.58 105.83, 223.54 106.0, 223.5 106.17, 223.46 106.33, 223.42 106.5, 223.38 106.67, 223.33 106.83, 223.29 107.0, 223.25 107.17, 223.21 107.33, 223.17 107.5, 223.12 107.67, 223.08 107.83, 223.04 108.0, 223.0 108.17, 222.96 108.33, 222.92 108.5, 222.88 108.67, 222.83 108.83, 222.79 109.0, 222.75 109.17, 222.71 109.33, 222.67 109.5, 222.62 109.67, 222.58 109.83, 222.54 110.0, 222.5 110.17, 222.46 110.33, 222.42 110.5, 222.38 110.67, 222.33 110.83, 222.29 111.0, 222.25 111.17, 222.21 111.33, 222.17 111.5, 222.12 111.67, 222.08 111.83, 222.04 112.0, 222.0 112.17, 221.96 112.33, 221.92 112.5, 221.88 112.67, 221.83 112.83, 221.79 113.0, 221.75 113.17, 221.71 113.33, 221.67 113.5, 221.62 113.67, 221.58 113.83, 221.54 114.0, 221.5 114.17, 221.46 114.33, 221.42 114.5, 221.38 114.67, 221.33 114.83, 221.29 115.0, 221.25 115.17, 221.21 115.33, 221.17 115.5, 221.12 115.67, 221.08 115.83, 221.04 116.0, 221.0 116.17, 220.96 116.33, 220.92 116.5, 220.88 116.67, 220.83 116.83, 220.79 117.0, 220.75 117.17, 220.71 117.33, 220.67 117.5, 220.62 117.67, 220.58 117.83, 220.54 118.0, 220.5 118.17, 220.46 118.33, 220.42 118.5, 220.38 118.67, 220.33 118.83, 220.29 119.0, 220.25 119.17, 220.21 119.33, 220.17 119.5, 220.12 119.67, 220.08 119.83, 220.04 120.0, 220.0 120.17, 219.96 120.33, 219.92 120.5, 219.88 120.67, 219.83 120.83, 219.79 121.0, 219.75 121.17, 219.71 121.33, 219.67 121.5, 219.62 121.67, 219.58 121.83, 219.54 122.0, 219.5 122.17, 219.46 122.33, 219.42 122.5, 219.38 122.67, 219.33 122.83, 219.29 123.0, 219.25 123.17, 219.21 123.33, 219.17 123.5, 219.12 123.67, 219.08 123.83, 219.04 124.0, 219.0 124.17, 218.96 124.33, 218.92 124.5, 218.88 124.67, 218.83 124.83, 218.79 125.0, 218.75 125.17, 218.71 125.33, 218.67 125.5, 218.62 125.67, 218.58 125.83, 218.54 126.0, 218.5 126.17, 218.46 126.33, 218.42 126.5, 218.38 126.67, 218.33 126.83, 218.29 127.0, 218.25 127.17, 218.21 127.33, 218.17 127.5, 218.12 127.67, 218.08 127.83, 218.04 128.0, 218.0 128.17, 217.96 128.33, 217.92 128.5, 217.88 128.67, 217.83 128.83, 217.79 129.0, 217.75 129.17, 217.71 129.33, 217.67 129.5, 217.62 129.67, 217.58 129.83, 217.54 130.0, 217.5 130.17, 217.46 130.33, 217.42 130.5, 217.38 130.67, 217.33 130.83, 217.29 131.0, 217.25 131.17, 217.21 131.33, 217.17 131.5, 217.12 131.67, 217.08 131.83, 217.04 132.0, 217.0 132.17, 216.96 132.33, 216.92 132.5, 216.88 132.67, 216.83 132.83, 216.79 133.0, 216.75 133.17, 216.71 133.33, 216.67 133.5, 216.62 133.67, 216.58 133.83, 216.54 134.0, 216.5 134.17, 216.46 134.33, 216.42 134.5, 216.38 134.67, 216.33 134.83, 216.29 135.0, 216.25 135.17, 216.21 135.33, 216.17 135.5, 216.12 135.67, 216.08 135.83, 216.04 136.0, 216.0 136.17, 215.96 136.33, 215.92 136.5, 215.88 136.67, 215.83 136.83, 215.79 137.0, 215.75 137.17, 215.71 137.33, 215.67 137.5, 215.62 137.67, 215.58 137.83, 215.54 138.0, 215.5 138.17, 215.46 138.33, 215.42 138.5, 215.38 138.67, 215.33 138.83, 215.29 139.0, 215.25 139.17, 215.21 139.33, 215.17 139.5, 215.12 139.67, 215.08 139.83, 215.04 140.0, 215.0 140.17, 214.96 140.33, 214.92 140.5, 214.88 140.67, 214.83 140.83, 214.79 141.0, 214.75 141.17, 214.71 141.33, 214.67 141.5, 214.62 141.67, 214.58 141.83, 214.54 142.0, 214.5 142.17, 214.46 142.33, 214.42 142.5, 214.38 142.67, 214.33 142.83, 214.29 143.0, 214.25 143.17, 214.21 143.33, 214.17 143.5, 214.12 143.67, 214.08 143.83, 214.04 144.0, 214.0 144.17, 213.96 144.33, 213.92 144.5, 213.88 144.67, 213.83 144.83, 213.79 145.0, 213.75 145.17, 213.71 145.33, 213.67 145.5, 213.62 145.67, 213.58 145.83, 213.54 146.0, 213.5 146.17, 213.46 146.33, 213.42 146.5, 213.38 146.67, 213.33 146.83, 213.29 147.0, 213.25 147.17, 213.21 147.33, 213.17 147.5, 213.12 147.67, 213.08 147.83, 213.04 148.0, 213.0 148.17, 212.96 148.33, 212.92 148.5, 212.88 148.67, 212.83 148.83, 212.79 149.0, 212.75 149.17, 212.71 149.33, 212.67 149.5, 212.62 149.67, 212.58 149.83, 212.54 150.0, 212.5 150.17, 212.46 150.33, 212.42 150.5, 212.38 150.67, 212.33 150.83, 212.29 151.0, 212.25 151.17, 212.21 151.33, 212.17 151.5, 212.12 151.67, 212.08 151.83, 212.04 152.0, 212.0 152.17, 211.96 152.33, 211.92 152.5, 211.88 152.67, 211.83 152.83, 211.79 153.0, 211.75 153.17, 211.71 153.33, 211.67 153.5, 211.62 153.67, 211.58 153.83, 211.54 154.0, 211.5 154.17, 211.46 154.33, 211.42 154.5, 211.38 154.67, 211.33 154.83, 211.29 155.0, 211.25 155.17, 211.21 155.33, 211.17 155.5, 211.12 155.67, 211.08 155.83, 211.04 156.0, 211.0 156.17, 210.96 156.33, 210.92 156.5, 210.88 156.67, 210.83 156.83, 210.79 157.0, 210.75 157.17, 210.71 157.33, 210.67 157.5, 210.62 157.67, 210.58 157.83, 210.54 158.0, 210.5 158.17, 210.46 158.33, 210.42 158.5, 210.38 158.67, 210.33 158.83, 210.29 159.0, 210.25 159.17, 210.21 159.33, 210.17 159.5, 210.12 159.67, 210.08 159.83, 210.04 160.0, 210.0 160.17, 209.96 160.33, 209.92 160.5, 209.88 160.67, 209.83 160.83, 209.79 161.0, 209.75 161.17, 209.71 161.33, 209.67 161.5, 209.62 161.67, 209.58 161.83, 209.54 162.0, 209.5 162.17, 209.46 162.33, 209.42 162.5, 209.38 162.67, 209.33 162.83, 209.29 163.0, 209.25 163.17, 209.21 163.33, 209.17 163.5, 209.12 163.67, 209.08 163.83, 209.04 164.0, 209.0 164.17, 208.96 164.33, 208.92 164.5, 208.88 164.67, 208.83 164.83, 208.79 165.0, 208.75 165.17, 208.71 165.33, 208.67 165.5, 208.62 165.67, 208.58 165.83, 208.54 166.0, 208.5 166.17, 208.46 166.33, 208.42 166.5, 208.38 166.67, 208.33 166.83, 208.29 167.0, 208.25 167.17, 208.21 167.33, 208.17 167.5, 208.12 167.67, 208.08 167.83, 208.04 168.0, 208.0 168.17, 207.96 168.33, 207.92 168.5, 207.88 168.67, 207.83 168.83, 207.79 169.0, 207.75 169.17, 207.71 169.33, 207.67 169.5, 207.62 169.67, 207.58 169.83, 207.54 170.0, 207.5 170.17, 207.46 170.33, 207.42 170.5, 207.38 170.67, 207.33 170.83, 207.29 171.0, 207.25 171.17, 207.21 171.33, 207.17 171.5, 207.12 171.67, 207.08 171.83, 207.04 172.0, 207.0 172.17, 206.96 172.33, 206.92 172.5, 206.88 172.67, 206.83 172.83, 206.79 173.0, 206.75 173.17, 206.71 173.33, 206.67 173.5, 206.62 173.67, 206.58 173.83, 206.54 174.0, 206.5 174.17, 206.46 174.33, 206.42 174.5, 206.38 174.67, 206.33 174.83, 206.29 175.0, 206.25 175.17, 206.21 175.33, 206.17 175.5, 206.12 175.67, 206.08 175.83, 206.04 176.0, 206.0 176.17, 205.96 176.33, 205.92 176.5, 205.88 176.67, 205.83 176.83, 205.79 177.0, 205.75 177.17, 205.71 177.33, 205.67 177.5, 205.62 177.67, 205.58 177.83, 205.54 178.0, 205.5 178.17, 205.46 178.33, 205.42 178.5, 205.38 178.67, 205.33 178.83, 205.29 179.0, 205.25 179.17, 205.21 179.33, 205.17 179.5, 205.12 179.67, 205.08 179.83, 205.04 180.0, 205.0 180.17, 204.96 180.33, 204.92 180.5, 204.88 180.67, 204.83 180.83, 204.79 181.0, 204.75 181.17, 204.71 181.33, 204.67 181.5, 204.62 181.67, 204.58 181.83, 204.54 182.0, 204.5 182.17, 204.46 182.33, 204.42 182.5, 204.38 182.67, 204.33 182.83, 204.29 183.0, 204.25 183.17, 204.21 183.33, 204.17 183.5, 204.12 183.67, 204.08 183.83, 204.04 184.0, 204.0 184.17, 203.96 184.33, 203.92 184.5, 203.88 184.67, 203.83 184.83, 203.79 185.0, 203.75 185.17, 203.71 185.33, 203.67 185.5, 203.62 185.67, 203.58 185.83, 203.54 186.0, 203.5 186.17, 203.46 186.33, 203.42 186.5, 203.38 186.67, 203.33 186.83, 203.29 187.0, 203.25 187.17, 203.21 187.33, 203.17 187.5, 203.12 187.67, 203.08 187.83, 203.04 188.0, 203.0 188.17, 202.96 188.33, 202.92 188.5, 202.88 188.67, 202.83 188.83, 202.79 189.0, 202.75 189.17, 202.71 189.33, 202.67 189.5, 202.62 189.67, 202.58 189.83, 202.54 190.0, 202.5 190.17, 202.46 190.33, 202.42 190.5, 202.38 190.67, 202.33 190.83, 202.29 191.0, 202.25 191.17, 202.21 191.33, 202.17 191.5, 202.12 191.67, 202.08 191.83, 202.04 192.0, 202.0 192.17, 201.96 192.33, 201.92 192.5, 201.88 192.67, 201.83 192.83, 201.79 193.0, 201.75 193.17, 201.71 193.33, 201.67 193.5, 201.62 193.67, 201.58 193.83, 201.54 194.0, 201.5 194.17, 201.46 194.33, 201.42 194.5, 201.38 194.67, 201.33 194.83, 201.29 195.0, 201.25 195.17, 201.21 195.33, 201.17 195.5, 201.12 195.67, 201.08 195.83, 201.04 196.0, 201.0 196.17, 200.96 196.33, 200.92 196.5, 200.88 196.67, 200.83 196.83, 200.79 197.0, 200.75 197.17, 200.71 197.33, 200.67 197.5, 200.62 197.67, 200.58 197.83, 200.54 198.0, 200.5 198.17, 200.46 198.33, 200.42 198.5, 200.38 198.67, 200.33 198.83, 200.29 199.0, 200.25 199.17, 200.21 199.33, 200.17 199.5, 200.12 199.67, 200.08 199.83, 200.04 200.0, 200.0 200.17, 199.96 200.33, 199.92 200.5, 199.88 200.67, 199.83 200.83, 199.79 201.0, 199.75 201.17, 199.71 201.33, 199.67 201.5, 199.62 201.67, 199.58 201.83, 199.54 202.0, 199.5 202.17, 199.46 202.33, 199.42 202.5, 199.38 202.67, 199.33 202.83, 199.29 203.0, 199.25 203.17, 199.21 203.33, 199.17 203.5, 199.12 203.67, 199.08 203.83, 199.04 204.0, 199.0 204.17, 198.96 204.33, 198.92 204.5, 198.88 204.67, 198.83 204.83, 198.79 205.0, 198.75 205.17, 198.71 205.33, 198.67 205.5, 198.62 205.67, 198.58 205.83, 198.54 206.0, 198.5 206.17, 198.46 206.33, 198.42 206.5, 198.38 206.67, 198.33 206.83, 198.29 207.0, 198.25 207.17, 198.21 207.33, 198.17 207.5, 198.12 207.67, 198.08 207.83, 198.04 208.0, 198.0 208.17, 197.96 208.33, 197.92 208.5, 197.88 208.67, 197.83 208.83, 197.79 209.0, 197.75 209.17, 197.71 209.33, 197.67 209.5, 197.62 209.67, 197.58 209.83, 197.54 210.0, 197.5 210.17, 197.46 210.33, 197.42 210.5, 197.38 210.67, 197.33 210.83, 197.29 211.0, 197.25 211.17, 197.21 211.33, 197.17 211.5, 197.12 211.67, 197.08 211.83, 197.04 212.0, 197.0 212.17, 196.96 212.33, 196.92 212.5, 196.88 212.67, 196.83 212.83, 196.79 213.0, 196.75 213.17, 196.71 213.33, 196.67 213.5, 196.62 213.67, 196.58 213.83, 196.54 214.0, 196.5 214.17, 196.46 214.33, 196.42 214.5, 196.38 214.67, 196.33 214.83, 196.29 215.0, 196.25 215.17, 196.21 215.33, 196.17 215.5, 196.12 215.67, 196.08 215.83, 196.04 216.0, 196.0 216.17, 195.96 216.33, 195.92 216.5, 195.88 216.67, 195.83 216.83, 195.79 217.0, 195.75 217.17, 195.71 217.33, 195.67 217.5, 195.62 217.67, 195.58 217.83, 195.54 218.0, 195.5 218.17, 195.46 218.33, 195.42 218.5, 195.38 218.67, 195.33 218.83, 195.29 219.0, 195.25 219.17, 195.21 219.33, 195.17 219.5, 195.12 219.67, 195.08 219.83, 195.04 220.0, 195.0 220.17, 194.96 220.33, 194.92 220.5, 194.88 220.67, 194.83 220.83, 194.79 221.0, 194.75 221.17, 194.71 221.33, 194.67 221.5, 194.62 221.67, 194.58 221.83, 194.54 222.0, 194.5 222.17, 194.46 222.33, 194.42 222.5, 194.38 222.67, 194.33 222.83, 194.29 223.0, 194.25 223.17, 194.21 223.33, 194.17 223.5, 194.12 223.67, 194.08 223.83, 194.04 224.0, 194.0 224.17, 193.96 224.33, 193.92 224.5, 193.88 224.67, 193.83 224.83, 193.79 225.0, 193.75 225.17, 193.71 225.33, 193.67 225.5, 193.62 225.67, 193.58 225.83, 193.54 226.0, 193.5 226.17, 193.46 226.33, 193.42 226.5, 193.38 226.67, 193.33 226.83, 193.29 227.0, 193.25 227.17, 193.21 227.33, 193.17 227.5, 193.12 227.67, 193.08 227.83, 193.04 228.0, 193.0 228.17, 192.96 228.33, 192.92 228.5, 192.88 228.67, 192.83 228.83, 192.79 229.0, 192.75 229.17, 192.71 229.33, 192.67 229.5, 192.62 229.67, 192.58 229.83, 192.54 230.0, 192.5 230.17, 192.46 230.33, 192.42 230.5, 192.38 230.67, 192.33 230.83, 192.29 231.0, 192.25 231.17, 192.21 231.33, 192.17 231.5, 192.12 231.67, 192.08 231.83, 192.04 232.0, 192.0 232.17, 191.96 232.33, 191.92 232.5, 191.88 232.67, 191.83 232.83, 191.79 233.0, 191.75 233.17, 191.71 233.33, 191.67 233.5, 191.62 233.67, 191.58 233.83, 191.54 234.0, 191.5 234.17, 191.46 234.33, 191.42 234.5, 191.38 234.67, 191.33 234.83, 191.29 235.0, 191.25 235.17, 191.21 235.33, 191.17 235.5, 191.12 235.67, 191.08 235.83, 191.04 236.0, 191.0 236.17, 190.96 236.33, 190.92 236.5, 190.88 236.67, 190.83 236.83, 190.79 237.0, 190.75 237.17, 190.71 237.33, 190.67 237.5, 190.62 237.67, 190.58 237.83, 190.54 238.0, 190.5 238.17, 190.46 238.33, 190.42 238.5, 190.38 238.67, 190.33 238.83, 190.29 239.0, 190.25 239.17, 190.21 239.33, 190.17 239.5, 190.12 239.67, 190.08 239.83, 190.04 240.0, 190.0 240.17, 189.96 240.33, 189.92 240.5, 189.88 240.67, 189.83 240.83, 189.79 241.0, 189.75 241.17, 189.71 241.33, 189.67 241.5, 189.62 241.67, 189.58 241.83, 189.54 242.0, 189.5 242.17, 189.46 242.33, 189.42 242.5, 189.38 242.67, 189.33 242.83, 189.29 243.0, 189.25 243.17, 189.21 243.33, 189.17 243.5, 189.12 243.67, 189.08 243.83, 189.04 244.0, 189.0 244.17, 188.96 244.33, 188.92 244.5, 188.88 244.67, 188.83 244.83, 188.79 245.0, 188.75 245.17, 188.71 245.33, 188.67 245.5, 188.62 245.67, 188.58 245.83, 188.54 246.0, 188.5 246.17, 188.46 246.33, 188.42 246.5, 188.38 246.67, 188.33 246.83, 188.29 247.0, 188.25 247.17, 188.21 247.33, 188.17 247.5, 188.12 247.67, 188.08 247.83, 188.04 248.0, 188.0 248.17, 187.96 248.33, 187.92 248.5, 187.88 248.67, 187.83 248.83, 187.79 249.0, 187.75 249.17, 187.71 249.33, 187.67 249.5, 187.62 249.67, 187.58 249.83, 187.54 250.0, 187.5 250.17, 187.46 250.33, 187.42 250.5, 187.38 250.67, 187.33 250.83, 187.29 251.0, 187.25 251.17, 187.21 251.33, 187.17 251.5, 187.12 251.67, 187.08 251.83, 187.04 252.0, 187.0 252.17, 186.96 252.33, 186.92 252.5, 186.88 252.67, 186.83 252.83, 186.79 253.0, 186.75 253.17, 186.71 253.33, 186.67 253.5, 186.62 253.67, 186.58 253.83, 186.54 254.0, 186.5 254.17, 186.46 254.33, 186.42 254.5, 186.38 254.67, 186.33 254.83, 186.29 255.0, 186.25 255.17, 186.21 255.33, 186.17 255.5, 186.12 255.67, 186.08 255.83, 186.04 256.0, 186.0 256.17, 185.96 256.33, 185.92 256.5, 185.88 256.67, 185.83 256.83, 185.79 257.0, 185.75 257.17, 185.71 257.33, 185.67 257.5, 185.62 257.67, 185.58 257.83, 185.54 258.0, 185.5 258.17, 185.46 258.33, 185.42 258.5, 185.38 258.67, 185.33 258.83, 185.29 259.0, 185.25 259.17, 185.21 259.33, 185.17 259.5, 185.12 259.67, 185.08 259.83, 185.04 260.0, 185.0 260.17, 184.96 260.33, 184.92 260.5, 184.88 260.67, 184.83 260.83, 184.79 261.0, 184.75 261.17, 184.71 261.33, 184.67 261.5, 184.62 261.67, 184.58 261.83, 184.54 262.0, 184.5 262.17, 184.46 262.33, 184.42 262.5, 184.38 262.67, 184.33 262.83, 184.29 263.0, 184.25 263.17, 184.21 263.33, 184.17 263.5, 184.12 263.67, 184.08 263.83, 184.04 264.0, 184.0 264.17, 183.96 264.33, 183.92 264.5, 183.88 264.67, 183.83 264.83, 183.79 265.0, 183.75 265.17, 183.71 265.33, 183.67 265.5, 183.62 265.67, 183.58 265.83, 183.54 266.0, 183.5 266.17, 183.46 266.33, 183.42 266.5, 183.38 266.67, 183.33 266.83, 183.29 267.0, 183.25 267.17, 183.21 267.33, 183.17 267.5, 183.12 267.67, 183.08 267.83, 183.04 268.0, 183.0 268.17, 182.96 268.33, 182.92 268.5, 182.88 268.67, 182.83 268.83, 182.79 269.0, 182.75 269.17, 182.71 269.33, 182.67 269.5, 182.62 269.67, 182.58 269.83, 182.54 270.0, 182.5 270.17, 182.46 270.33, 182.42 270.5, 182.38 270.67, 182.33 270.83, 182.29 271.0, 182.25 271.17, 182.21 271.33, 182.17 271.5, 182.12 271.67, 182.08 271.83, 182.04 272.0, 182.0 272.17, 181.96 272.33, 181.92 272.5, 181.88 272.67, 181.83 272.83, 181.79 273.0, 181.75 273.17, 181.71 273.33, 181.67 273.5, 181.62 273.67, 181.58 273.83, 181.54 274.0, 181.5 274.17, 181.46 274.33, 181.42 274.5, 181.38 274.67, 181.33 274.83, 181.29 275.0, 181.25 275.17, 181.21 275.33, 181.17 275.5, 181.12 275.67, 181.08 275.83, 181.04 276.0, 181.0 276.17, 180.96 276.33, 180.92 276.5, 180.88 276.67, 180.83 276.83, 180.79 277.0, 180.75 277.17, 180.71 277.33, 180.67 277.5, 180.62 277.67, 180.58 277.83, 180.54 278.0, 180.5 278.17, 180.46 278.33, 180.42 278.5, 180.38 278.67, 180.33 278.83, 180.29 279.0, 180.25 279.17, 180.21 279.33, 180.17 279.5, 180.12 279.67, 180.08 279.83, 180.04 280.0, 180.0 280.17, 179.96 280.33, 179.92 280.5, 179.88 280.67, 179.83 280.83, 179.79 281.0, 179.75 281.17, 179.71 281.33, 179.67 281.5, 179.62 281.67, 179.58 281.83, 179.54 282.0, 179.5 282.17, 179.46 282.33, 179.42 282.5, 179.38 282.67, 179.33 282.83, 179.29 283.0, 179.25 283.17, 179.21 283.33, 179.17 283.5, 179.12 283.67, 179.08 283.83, 179.04 284.0, 179.0 284.17, 178.96 284.33, 178.92 284.5, 178.88 284.67, 178.83 284.83, 178.79 285.0, 178.75 285.17, 178.71 285.33, 178.67 285.5, 178.62 285.67, 178.58 285.83, 178.54 286.0, 178.5 286.17, 178.46 286.33, 178.42 286.5, 178.38 286.67, 178.33 286.83, 178.29 287.0, 178.25 287.17, 178.21 287.33, 178.17 287.5, 178.12 287.67, 178.08 287.83, 178.04 288.0, 178.0 288.17, 177.96 288.33, 177.92 288.5, 177.88 288.67, 177.83 288.83, 177.79 289.0, 177.75 289.17, 177.71 289.33, 177.67 289.5, 177.62 289.67, 177.58 289.83, 177.54 290.0, 177.5 290.17, 177.46 290.33, 177.42 290.5, 177.38 290.67, 177.33 290.83, 177.29 291.0, 177.25 291.17, 177.21 291.33, 177.17 291.5, 177.12 291.67, 177.08 291.83, 177.04 292.0, 177.0 292.17, 176.96 292.33, 176.92 292.5, 176.88 292.67, 176.83 292.83, 176.79 293.0, 176.75 293.17, 176.71 293.33, 176.67 293.5, 176.62 293.67, 176.58 293.83, 176.54 294.0, 176.5 294.17, 176.46 294.33, 176.42 294.5, 176.38 294.67, 176.33 294.83, 176.29 295.0, 176.25 295.17, 176.21 295.33, 176.17 295.5, 176.12 295.67, 176.08 295.83, 176.04 296.0, 176.0 296.17, 175.96 296.33, 175.92 296.5, 175.88 296.67, 175.83 296.83, 175.79 297.0, 175.75 297.17, 175.71 297.33, 175.67 297.5, 175.62 297.67, 175.58 297.83, 175.54 298.0, 175.5 298.17, 175.46 298.33, 175.42 298.5, 175.38 298.67, 175.33 298.83, 175.29 299.0, 175.25 299.17, 175.21 299.33, 175.17 299.5, 175.12 299.67, 175.08 299.83, 175.04 300.0, 175.0 300.17, 174.96 300.33, 174.92 300.5, 174.88 300.67, 174.83 300.83, 174.79 301.0, 174.75 301.17, 174.71 301.33, 174.67 301.5, 174.62 301.67, 174.58 301.83, 174.54 302.0, 174.5 302.17, 174.46 302.33, 174.42 302.5, 174.38 302.67, 174.33 302.83, 174.29 303.0, 174.25 303.17, 174.21 303.33, 174.17 303.5, 174.12 303.67, 174.08 303.83, 174.04 304.0, 174.0 304.17, 173.96 304.33, 173.92 304.5, 173.88 304.67, 173.83 304.83, 173.79 305.0, 173.75 305.17, 173.71 305.33, 173.67 305.5, 173.62 305.67, 173.58 305.83, 173.54 306.0, 173.5 306.17, 173.46 306.33, 173.42 306.5, 173.38 306.67, 173.33 306.83, 173.29 307.0, 173.25 307.17, 173.21 307.33, 173.17 307.5, 173.12 307.67, 173.08 307.83, 173.04 308.0, 173.0 308.17, 172.96 308.33, 172.92 308.5, 172.88 308.67, 172.83 308.83, 172.79 309.0, 172.75 309.17, 172.71 309.33, 172.67 309.5, 172.62 309.67, 172.58 309.83, 172.54 310.0, 172.5 310.17, 172.46 310.33, 172.42 310.5, 172.38 310.67, 172.33 310.83, 172.29 311.0, 172.25 311.17, 172.21 311.33, 172.17 311.5, 172.12 311.67, 172.08 311.83, 172.04 312.0, 172.0 312.17, 171.96 312.33, 171.92 312.5, 171.88 312.67, 171.83 312.83, 171.79 313.0, 171.75 313.17, 171.71 313.33, 171.67 313.5, 171.62 313.67, 171.58 313.83, 171.54 314.0, 171.5 314.17, 171.46 314.33, 171.42 314.5, 171.38 314.67, 171.33 314.83, 171.29 315.0, 171.25 315.17, 171.21 315.33, 171.17 315.5, 171.12 315.67, 171.08 315.83, 171.04 316.0, 171.0 316.17, 170.96 316.33, 170.92 316.5, 170.88 316.67, 170.83 316.83, 170.79 317.0, 170.75 317.17, 170.71 317.33, 170.67 317.5, 170.62 317.67, 170.58 317.83, 170.54 318.0, 170.5 318.17, 170.46 318.33, 170.42 318.5, 170.38 318.67, 170.33 318.83, 170.29 319.0, 170.25 319.17, 170.21 319.33, 170.17 319.5, 170.12 319.67, 170.08 319.83, 170.04 320.0, 170.0 320.17, 169.96 320.33, 169.92 320.5, 169.88 320.67, 169.83 320.83, 169.79 321.0, 169.75 321.17, 169.71 321.33, 169.67 321.5, 169.62 321.67, 169.58 321.83, 169.54 322.0, 169.5 322.17, 169.46 322.33, 169.42 322.5, 169.38 322.67, 169.33 322.83, 169.29 323.0, 169.25 323.17, 169.21 323.33, 169.17 323.5, 169.12 323.67, 169.08 323.83, 169.04 324.0, 169.0 324.17, 168.96 324.33, 168.92 324.5, 168.88 324.67, 168.83 324.83, 168.79 325.0, 168.75 325.17, 168.71 325.33, 168.67 325.5, 168.62 325.67, 168.58 325.83, 168.54 326.0, 168.5 326.17, 168.46 326.33, 168.42 326.5, 168.38 326.67, 168.33 326.83, 168.29 327.0, 168.25 327.17, 168.21 327.33, 168.17 327.5, 168.12 327.67, 168.08 327.83, 168.04 328.0, 168.0 328.17, 167.96 328.33, 167.92 328.5, 167.88 328.67, 167.83 328.83, 167.79 329.0, 167.75 329.17, 167.71 329.33, 167.67 329.5, 167.62 329.67, 167.58 329.83, 167.54 330.0, 167.5 330.17, 167.46 330.33, 167.42 330.5, 167.38 330.67, 167.33 330.83, 167.29 331.0, 167.25 331.17, 167.21 331.33, 167.17 331.5, 167.12 331.67, 167.08 331.83, 167.04 332.0, 167.0 332.17, 166.96 332.33, 166.92 332.5, 166.88 332.67, 166.83 332.83, 166.79 333.0, 166.75 333.17, 166.71 333.33, 166.67 333.5, 166.62 333.67, 166.58 333.83, 166.54 334.0, 166.5 334.17, 166.46 334.33, 166.42 334.5, 166.38 334.67, 166.33 334.83, 166.29 335.0, 166.25 335.17, 166.21 335.33, 166.17 335.5, 166.12 335.67, 166.08 335.83, 166.04 336.0, 166.0 336.17, 165.96 336.33, 165.92 336.5, 165.88 336.67, 165.83 336.83, 165.79 337.0, 165.75 337.17, 165.71 337.33, 165.67 337.5, 165.62 337.67, 165.58 337.83, 165.54 338.0, 165.5 338.17, 165.46 338.33, 165.42 338.5, 165.38 338.67, 165.33 338.83, 165.29 339.0, 165.25 339.17, 165.21 339.33, 165.17 339.5, 165.12 339.67, 165.08 339.83, 165.04 340.0, 165.0 340.17, 164.96 340.33, 164.92 340.5, 164.88 340.67, 164.83 340.83, 164.79 341.0, 164.75 341.17, 164.71 341.33, 164.67 341.5, 164.62 341.67, 164.58 341.83, 164.54 342.0, 164.5 342.17, 164.46 342.33, 164.42 342.5, 164.38 342.67, 164.33 342.83, 164.29 343.0, 164.25 343.17, 164.21 343.33, 164.17 343.5, 164.12 343.67, 164.08 343.83, 164.04 344.0, 164.0 344.17, 163.96 344.33, 163.92 344.5, 163.88 344.67, 163.83 344.83, 163.79 345.0, 163.75 345.17, 163.71 345.33, 163.67 345.5, 163.62 345.67, 163.58 345.83, 163.54 346.0, 163.5 346.17, 163.46 346.33, 163.42 346.5, 163.38 346.67, 163.33 346.83, 163.29 347.0, 163.25 347.17, 163.21 347.33, 163.17 347.5, 163.12 347.67, 163.08 347.83, 163.04 348.0, 163.0 348.17, 162.96 348.33, 162.92 348.5, 162.88 348.67, 162.83 348.83, 162.79 349.0, 162.75 349.17, 162.71 349.33, 162.67 349.5, 162.62 349.67, 162.58 349.83, 162.54 350.0, 162.5 350.17, 162.46 350.33, 162.42 350.5, 162.38 350.67, 162.33 350.83, 162.29 351.0, 162.25 351.17, 162.21 351.33, 162.17 351.5, 162.12 351.67, 162.08 351.83, 162.04 352.0, 162.0 352.17, 161.96 352.33, 161.92 352.5, 161.88 352.67, 161.83 352.83, 161.79 353.0, 161.75 353.17, 161.71 353.33, 161.67 353.5, 161.62 353.67, 161.58 353.83, 161.54 354.0, 161.5 354.17, 161.46 354.33, 161.42 354.5, 161.38 354.67, 161.33 354.83, 161.29 355.0, 161.25 355.17, 161.21 355.33, 161.17 355.5, 161.12 355.67, 161.08 355.83, 161.04 356.0, 161.0 356.17, 160.96 356.33, 160.92 356.5, 160.88 356.67, 160.83 356.83, 160.79 357.0, 160.75 357.17, 160.71 357.33, 160.67 357.5, 160.62 357.67, 160.58 357.83, 160.54 358.0, 160.5 358.17, 160.46 358.33, 160.42 358.5, 160.38 358.67, 160.33 358.83, 160.29 359.0, 160.25 359.17, 160.21 359.33, 160.17 359.5, 160.12 359.67, 160.08 359.83, 160.04 360.0, 160.0 360.17, 159.96 360.33, 159.92 360.5, 159.88 360.67, 159.83 360.83, 159.79 361.0, 159.75 361.17, 159.71 361.33, 159.67 361.5, 159.62 361.67, 159.58 361.83, 159.54 362.0, 159.5 362.17, 159.46 362.33, 159.42 362.5, 159.38 362.67, 159.33 362.83, 159.29 363.0, 159.25 363.17, 159.21 363.33, 159.17 363.5, 159.12 363.67, 159.08 363.83, 159.04 364.0, 159.0 364.17, 158.96 364.33, 158.92 364.5, 158.88 364.67, 158.83 364.83, 158.79 365.0, 158.75 365.17, 158.71 365.33, 158.67 365.5, 158.62 365.67, 158.58 365.83, 158.54 366.0, 158.5 366.17, 158.46 366.33, 158.42 366.5, 158.38 366.67, 158.33 366.83, 158.29 367.0, 158.25 367.17, 158.21 367.33, 158.17 367.5, 158.12 367.67, 158.08 367.83, 158.04 368.0, 158.0 368.17, 157.96 368.33, 157.92 368.5, 157.88 368.67, 157.83 368.83, 157.79 369.0, 157.75 369.17, 157.71 369.33, 157.67 369.5, 157.62 369.67, 157.58 369.83, 157.54 370.0, 157.5 370.17, 157.46 370.33, 157.42 370.5, 157.38 370.67, 157.33 370.83, 157.29 371.0, 157.25 371.17, 157.21 371.33, 157.17 371.5, 157.12 371.67, 157.08 371.83, 157.04 372.0, 157.0 372.17, 156.96 372.33, 156.92 372.5, 156.88 372.67, 156.83 372.83, 156.79 373.0, 156.75 373.17, 156.71 373.33, 156.67 373.5, 156.62 373.67, 156.58 373.83, 156.54 374.0, 156.5 374.17, 156.46 374.33, 156.42 374.5, 156.38 374.67, 156.33 374.83, 156.29 375.0, 156.25 375.17, 156.21 375.33, 156.17 375.5, 156.12 375.67, 156.08 375.83, 156.04 376.0, 156.0 376.17, 155.96 376.33, 155.92 376.5, 155.88 376.67, 155.83 376.83, 155.79 377.0, 155.75 377.17, 155.71 377.33, 155.67 377.5, 155.62 377.67, 155.58 377.83, 155.54 378.0, 155.5 378.17, 155.46 378.33, 155.42 378.5, 155.38 378.67, 155.33 378.83, 155.29 379.0, 155.25 379.17, 155.21 379.33, 155.17 379.5, 155.12 379.67, 155.08 379.83, 155.04 380.0, 155.0 380.17, 154.96 380.33, 154.92 380.5, 154.88 380.67, 154.83 380.83, 154.79 381.0, 154.75 381.17, 154.71 381.33, 154.67 381.5, 154.62 381.67, 154.58 381.83, 154.54 382.0, 154.5 382.17, 154.46 382.33, 154.42 382.5, 154.38 382.67, 154.33 382.83, 154.29 383.0, 154.25 383.17, 154.21 383.33, 154.17 383.5, 154.12 383.67, 154.08 383.83, 154.04 384.0, 154.0 384.17, 153.96 384.33, 153.92 384.5, 153.88 384.67, 153.83 384.83, 153.79 385.0, 153.75 385.17, 153.71 385.33, 153.67 385.5, 153.62 385.67, 153.58 385.83, 153.54 386.0, 153.5 386.17, 153.46 386.33, 153.42 386.5, 153.38 386.67, 153.33 386.83, 153.29 387.0, 153.25 387.17, 153.21 387.33, 153.17 387.5, 153.12 387.67, 153.08 387.83, 153.04 388.0, 153.0 388.17, 152.96 388.33, 152.92 388.5, 152.88 388.67, 152.83 388.83, 152.79 389.0, 152.75 389.17, 152.71 389.33, 152.67 389.5, 152.62 389.67, 152.58 389.83, 152.54 390.0, 152.5 390.17, 152.46 390.33, 152.42 390.5, 152.38 390.67, 152.33 390.83, 152.29 391.0, 152.25 391.17, 152.21 391.33, 152.17 391.5, 152.12 391.67, 152.08 391.83, 152.04 392.0, 152.0 392.17, 151.96 392.33, 151.92 392.5, 151.88 392.67, 151.83 392.83, 151.79 393.0, 151.75 393.17, 151.71 393.33, 151.67 393.5, 151.62 393.67, 151.58 393.83, 151.54 394.0, 151.5 394.17, 151.46 394.33, 151.42 394.5, 151.38 394.67, 151.33 394.83, 151.29 395.0, 151.25 395.17, 151.21 395.33, 151.17 395.5, 151.12 395.67, 151.08 395.83, 151.04 396.0, 151.0 396.17, 150.96 396.33, 150.92 396.5, 150.88 396.67, 150.83 396.83, 150.79 397.0, 150.75 397.17, 150.71 397.33, 150.67 397.5, 150.62 397.67, 150.58 397.83, 150.54 398.0, 150.5 398.17, 150.46 398.33, 150.42 398.5, 150.38 398.67, 150.33 398.83, 150.29 399.0, 150.25 399.17, 150.21 399.33, 150.17 399.5, 150.12 399.67, 150.08 399.83, 150.04 400.0, 150.0 " fill="none" stroke="white" stroke-width="1.5" stroke-linejoin="round" stroke-opacity="1"/>

 </svg>