<svg version="1.1" 
 baseProfile="full" 
 width="400" 
 height="400" 
 xmlns="http://www.w3.org/2000/svg">
<rect x="0.0" y="0.0" width="400" height="400" fill="black" stroke="black" stroke-width="0" opacity="1"/>
<line x1="0.0" y1="0.0" x2="0.0" y2="400.0" stroke="white" stroke-width="1" opacity="0.4" stroke-linecap="butt"/>
<line x1="40.0" y1="0.0" x2="40.0" y2="400.0" stroke="white" stroke-width="1" opacity="0.4" stroke-linecap="butt"/>
<line x1="80.0" y1="0.0" x2="80.0" y2="400.0" stroke="white" stroke-width="1" opacity="0.4" stroke-linecap="butt"/>
<line x1="120.0" y1="0.0" x2="120.0" y2="400.0" stroke="white" stroke-width="1" opacity="0.4" stroke-linecap="butt"/>
<line x1="160.0" y1="0.0" x2="160.0" y2="400.0" stroke="white" stroke-width="1" opacity="0.4" stroke-linecap="butt"/>
<line x1="200.0" y1="0.0" x2="200.0" y2="400.0" stroke="white" stroke-width="1" opacity="0.4" stroke-linecap="butt"/>
<line x1="240.0" y1="0.0" x2="240.0" y2="400.0" stroke="white" stroke-width="1" opacity="0.4" stroke-linecap="butt"/>
<line x1="280.0" y1="0.0" x2="280.0" y2="400.0" stroke="white" stroke-width="1" opacity="0.4" stroke-linecap="butt"/>
<line x1="320.0" y1="0.0" x2="320.0" y2="400.0" stroke="white" stroke-width="1" opacity="0.4" stroke-linecap="butt"/>
<line x1="360.0" y1="0.0" x2="360.0" y2="400.0" stroke="white" stroke-width="1" opacity="0.4" stroke-linecap="butt"/>
<line x1="0.0" y1="0.0" x2="400.0" y2="0.0" stroke="white" stroke-width="1" opacity="0.4" stroke-linecap="butt"/>
<line x1="0.0" y1="40.0" x2="400.0" y2="40.0" stroke="white" stroke-width="1" opacity="0.4" stroke-linecap="butt"/>
<line x1="0.0" y1="80.0" x2="400.0" y2="80.0" stroke="white" stroke-width="1" opacity="0.4" stroke-linecap="butt"/>
<line x1="0.0" y1="120.0" x2="400.0" y2="120.0" stroke="white" stroke-width="1" opacity="0.4" stroke-linecap="butt"/>
<line x1="0.0" y1="160.0" x2="400.0" y2="160.0" stroke="white" stroke-width="1" opacity="0.4" stroke-linecap="butt"/>
<line x1="0.0" y1="200.0" x2="400.0" y2="200.0" stroke="white" stroke-width="1" opacity="0.4" stroke-linecap="butt"/>
<line x1="0.0" y1="240.0" x2="400.0" y2="240.0" stroke="white" stroke-width="1" opacity="0.4" stroke-linecap="butt"/>
<line x1="0.0" y1="280.0" x2="400.0" y2="280.0" stroke="white" stroke-width="1" opacity="0.4" stroke-linecap="butt"/>
<line x1="0.0" y1="320.0" x2="400.0" y2="320.0" stroke="white" stroke-width="1" opacity="0.4" stroke-linecap="butt"/>
<line x1="0.0" y1="360.0" x2="400.0" y2="360.0" stroke="white" stroke-width="1" opacity="0.4" stroke-linecap="butt"/>
<line x1="0.0" y1="200.0" x2="400.0" y2="200.0" stroke="yellow" stroke-width="2.5" opacity="1" stroke-linecap="butt"/>
<line x1="200.0" y1="0.0" x2="200.0" y2="400.0" stroke="yellow" stroke-width="2.5" opacity="1" stroke-linecap="butt"/>
<polygon points="391.0 204.0, 401.0 200.0, 391.0 196.0, 393.0 200.0" fill="yellow"/><polygon points="204.0 9.0, 200.0 -1.0, 196.0 9.0, 200.0 7.0" fill="yellow"/><image x="-60.0" y="-60.0" width="200" height="200" href="/Users/girirajhira/PycharmProjects/Giraphics3/Taylor/expr.png"/><polyline points="0.0, 270.0 0.17, 269.94 0.33, 269.88 0.5, 269.82 0.67, 269.77 0.83, 269.71 1.0, 269.65 1.17, 269.59 1.33, 269.53 1.5, 269.48 1.67, 269.42 1.83, 269.36 2.0, 269.3 2.17, 269.24 2.33, 269.18 2.5, 269.12 2.67, 269.07 2.83, 269.01 3.0, 268.95 3.17, 268.89 3.33, 268.83 3.5, 268.77 3.67, 268.72 3.83, 268.66 4.0, 268.6 4.17, 268.54 4.33, 268.48 4.5, 268.42 4.67, 268.37 4.83, 268.31 5.0, 268.25 5.17, 268.19 5.33, 268.13 5.5, 268.08 5.67, 268.02 5.83, 267.96 6.0, 267.9 6.17, 267.84 6.33, 267.78 6.5, 267.73 6.67, 267.67 6.83, 267.61 7.0, 267.55 7.17, 267.49 7.33, 267.43 7.5, 267.38 7.67, 267.32 7.83, 267.26 8.0, 267.2 8.17, 267.14 8.33, 267.08 8.5, 267.02 8.67, 266.97 8.83, 266.91 9.0, 266.85 9.17, 266.79 9.33, 266.73 9.5, 266.68 9.67, 266.62 9.83, 266.56 10.0, 266.5 10.17, 266.44 10.33, 266.38 10.5, 266.32 10.67, 266.27 10.83, 266.21 11.0, 266.15 11.17, 266.09 11.33, 266.03 11.5, 265.98 11.67, 265.92 11.83, 265.86 12.0, 265.8 12.17, 265.74 12.33, 265.68 12.5, 265.62 12.67, 265.57 12.83, 265.51 13.0, 265.45 13.17, 265.39 13.33, 265.33 13.5, 265.27 13.67, 265.22 13.83, 265.16 14.0, 265.1 14.17, 265.04 14.33, 264.98 14.5, 264.92 14.67, 264.87 14.83, 264.81 15.0, 264.75 15.17, 264.69 15.33, 264.63 15.5, 264.58 15.67, 264.52 15.83, 264.46 16.0, 264.4 16.17, 264.34 16.33, 264.28 16.5, 264.23 16.67, 264.17 16.83, 264.11 17.0, 264.05 17.17, 263.99 17.33, 263.93 17.5, 263.88 17.67, 263.82 17.83, 263.76 18.0, 263.7 18.17, 263.64 18.33, 263.58 18.5, 263.52 18.67, 263.47 18.83, 263.41 19.0, 263.35 19.17, 263.29 19.33, 263.23 19.5, 263.18 19.67, 263.12 19.83, 263.06 20.0, 263.0 20.17, 262.94 20.33, 262.88 20.5, 262.82 20.67, 262.77 20.83, 262.71 21.0, 262.65 21.17, 262.59 21.33, 262.53 21.5, 262.48 21.67, 262.42 21.83, 262.36 22.0, 262.3 22.17, 262.24 22.33, 262.18 22.5, 262.12 22.67, 262.07 22.83, 262.01 23.0, 261.95 23.17, 261.89 23.33, 261.83 23.5, 261.77 23.67, 261.72 23.83, 261.66 24.0, 261.6 24.17, 261.54 24.33, 261.48 24.5, 261.42 24.67, 261.37 24.83, 261.31 25.0, 261.25 25.17, 261.19 25.33, 261.13 25.5, 261.08 25.67, 261.02 25.83, 260.96 26.0, 260.9 26.17, 260.84 26.33, 260.78 26.5, 260.73 26.67, 260.67 26.83, 260.61 27.0, 260.55 27.17, 260.49 27.33, 260.43 27.5, 260.38 27.67, 260.32 27.83, 260.26 28.0, 260.2 28.17, 260.14 28.33, 260.08 28.5, 260.02 28.67, 259.97 28.83, 259.91 29.0, 259.85 29.17, 259.79 29.33, 259.73 29.5, 259.68 29.67, 259.62 29.83, 259.56 30.0, 259.5 30.17, 259.44 30.33, 259.38 30.5, 259.32 30.67, 259.27 30.83, 259.21 31.0, 259.15 31.17, 259.09 31.33, 259.03 31.5, 258.98 31.67, 258.92 31.83, 258.86 32.0, 258.8 32.17, 258.74 32.33, 258.68 32.5, 258.62 32.67, 258.57 32.83, 258.51 33.0, 258.45 33.17, 258.39 33.33, 258.33 33.5, 258.27 33.67, 258.22 33.83, 258.16 34.0, 258.1 34.17, 258.04 34.33, 257.98 34.5, 257.92 34.67, 257.87 34.83, 257.81 35.0, 257.75 35.17, 257.69 35.33, 257.63 35.5, 257.58 35.67, 257.52 35.83, 257.46 36.0, 257.4 36.17, 257.34 36.33, 257.28 36.5, 257.23 36.67, 257.17 36.83, 257.11 37.0, 257.05 37.17, 256.99 37.33, 256.93 37.5, 256.88 37.67, 256.82 37.83, 256.76 38.0, 256.7 38.17, 256.64 38.33, 256.58 38.5, 256.52 38.67, 256.47 38.83, 256.41 39.0, 256.35 39.17, 256.29 39.33, 256.23 39.5, 256.18 39.67, 256.12 39.83, 256.06 40.0, 256.0 40.17, 255.94 40.33, 255.88 40.5, 255.82 40.67, 255.77 40.83, 255.71 41.0, 255.65 41.17, 255.59 41.33, 255.53 41.5, 255.48 41.67, 255.42 41.83, 255.36 42.0, 255.3 42.17, 255.24 42.33, 255.18 42.5, 255.12 42.67, 255.07 42.83, 255.01 43.0, 254.95 43.17, 254.89 43.33, 254.83 43.5, 254.78 43.67, 254.72 43.83, 254.66 44.0, 254.6 44.17, 254.54 44.33, 254.48 44.5, 254.42 44.67, 254.37 44.83, 254.31 45.0, 254.25 45.17, 254.19 45.33, 254.13 45.5, 254.08 45.67, 254.02 45.83, 253.96 46.0, 253.9 46.17, 253.84 46.33, 253.78 46.5, 253.72 46.67, 253.67 46.83, 253.61 47.0, 253.55 47.17, 253.49 47.33, 253.43 47.5, 253.38 47.67, 253.32 47.83, 253.26 48.0, 253.2 48.17, 253.14 48.33, 253.08 48.5, 253.02 48.67, 252.97 48.83, 252.91 49.0, 252.85 49.17, 252.79 49.33, 252.73 49.5, 252.68 49.67, 252.62 49.83, 252.56 50.0, 252.5 50.17, 252.44 50.33, 252.38 50.5, 252.32 50.67, 252.27 50.83, 252.21 51.0, 252.15 51.17, 252.09 51.33, 252.03 51.5, 251.98 51.67, 251.92 51.83, 251.86 52.0, 251.8 52.17, 251.74 52.33, 251.68 52.5, 251.62 52.67, 251.57 52.83, 251.51 53.0, 251.45 53.17, 251.39 53.33, 251.33 53.5, 251.27 53.67, 251.22 53.83, 251.16 54.0, 251.1 54.17, 251.04 54.33, 250.98 54.5, 250.92 54.67, 250.87 54.83, 250.81 55.0, 250.75 55.17, 250.69 55.33, 250.63 55.5, 250.58 55.67, 250.52 55.83, 250.46 56.0, 250.4 56.17, 250.34 56.33, 250.28 56.5, 250.22 56.67, 250.17 56.83, 250.11 57.0, 250.05 57.17, 249.99 57.33, 249.93 57.5, 249.88 57.67, 249.82 57.83, 249.76 58.0, 249.7 58.17, 249.64 58.33, 249.58 58.5, 249.52 58.67, 249.47 58.83, 249.41 59.0, 249.35 59.17, 249.29 59.33, 249.23 59.5, 249.18 59.67, 249.12 59.83, 249.06 60.0, 249.0 60.17, 248.94 60.33, 248.88 60.5, 248.82 60.67, 248.77 60.83, 248.71 61.0, 248.65 61.17, 248.59 61.33, 248.53 61.5, 248.48 61.67, 248.42 61.83, 248.36 62.0, 248.3 62.17, 248.24 62.33, 248.18 62.5, 248.12 62.67, 248.07 62.83, 248.01 63.0, 247.95 63.17, 247.89 63.33, 247.83 63.5, 247.78 63.67, 247.72 63.83, 247.66 64.0, 247.6 64.17, 247.54 64.33, 247.48 64.5, 247.42 64.67, 247.37 64.83, 247.31 65.0, 247.25 65.17, 247.19 65.33, 247.13 65.5, 247.08 65.67, 247.02 65.83, 246.96 66.0, 246.9 66.17, 246.84 66.33, 246.78 66.5, 246.72 66.67, 246.67 66.83, 246.61 67.0, 246.55 67.17, 246.49 67.33, 246.43 67.5, 246.38 67.67, 246.32 67.83, 246.26 68.0, 246.2 68.17, 246.14 68.33, 246.08 68.5, 246.02 68.67, 245.97 68.83, 245.91 69.0, 245.85 69.17, 245.79 69.33, 245.73 69.5, 245.68 69.67, 245.62 69.83, 245.56 70.0, 245.5 70.17, 245.44 70.33, 245.38 70.5, 245.32 70.67, 245.27 70.83, 245.21 71.0, 245.15 71.17, 245.09 71.33, 245.03 71.5, 244.98 71.67, 244.92 71.83, 244.86 72.0, 244.8 72.17, 244.74 72.33, 244.68 72.5, 244.62 72.67, 244.57 72.83, 244.51 73.0, 244.45 73.17, 244.39 73.33, 244.33 73.5, 244.28 73.67, 244.22 73.83, 244.16 74.0, 244.1 74.17, 244.04 74.33, 243.98 74.5, 243.92 74.67, 243.87 74.83, 243.81 75.0, 243.75 75.17, 243.69 75.33, 243.63 75.5, 243.58 75.67, 243.52 75.83, 243.46 76.0, 243.4 76.17, 243.34 76.33, 243.28 76.5, 243.22 76.67, 243.17 76.83, 243.11 77.0, 243.05 77.17, 242.99 77.33, 242.93 77.5, 242.88 77.67, 242.82 77.83, 242.76 78.0, 242.7 78.17, 242.64 78.33, 242.58 78.5, 242.52 78.67, 242.47 78.83, 242.41 79.0, 242.35 79.17, 242.29 79.33, 242.23 79.5, 242.18 79.67, 242.12 79.83, 242.06 80.0, 242.0 80.17, 241.94 80.33, 241.88 80.5, 241.82 80.67, 241.77 80.83, 241.71 81.0, 241.65 81.17, 241.59 81.33, 241.53 81.5, 241.48 81.67, 241.42 81.83, 241.36 82.0, 241.3 82.17, 241.24 82.33, 241.18 82.5, 241.12 82.67, 241.07 82.83, 241.01 83.0, 240.95 83.17, 240.89 83.33, 240.83 83.5, 240.78 83.67, 240.72 83.83, 240.66 84.0, 240.6 84.17, 240.54 84.33, 240.48 84.5, 240.42 84.67, 240.37 84.83, 240.31 85.0, 240.25 85.17, 240.19 85.33, 240.13 85.5, 240.08 85.67, 240.02 85.83, 239.96 86.0, 239.9 86.17, 239.84 86.33, 239.78 86.5, 239.72 86.67, 239.67 86.83, 239.61 87.0, 239.55 87.17, 239.49 87.33, 239.43 87.5, 239.38 87.67, 239.32 87.83, 239.26 88.0, 239.2 88.17, 239.14 88.33, 239.08 88.5, 239.02 88.67, 238.97 88.83, 238.91 89.0, 238.85 89.17, 238.79 89.33, 238.73 89.5, 238.68 89.67, 238.62 89.83, 238.56 90.0, 238.5 90.17, 238.44 90.33, 238.38 90.5, 238.32 90.67, 238.27 90.83, 238.21 91.0, 238.15 91.17, 238.09 91.33, 238.03 91.5, 237.98 91.67, 237.92 91.83, 237.86 92.0, 237.8 92.17, 237.74 92.33, 237.68 92.5, 237.62 92.67, 237.57 92.83, 237.51 93.0, 237.45 93.17, 237.39 93.33, 237.33 93.5, 237.28 93.67, 237.22 93.83, 237.16 94.0, 237.1 94.17, 237.04 94.33, 236.98 94.5, 236.92 94.67, 236.87 94.83, 236.81 95.0, 236.75 95.17, 236.69 95.33, 236.63 95.5, 236.58 95.67, 236.52 95.83, 236.46 96.0, 236.4 96.17, 236.34 96.33, 236.28 96.5, 236.22 96.67, 236.17 96.83, 236.11 97.0, 236.05 97.17, 235.99 97.33, 235.93 97.5, 235.88 97.67, 235.82 97.83, 235.76 98.0, 235.7 98.17, 235.64 98.33, 235.58 98.5, 235.52 98.67, 235.47 98.83, 235.41 99.0, 235.35 99.17, 235.29 99.33, 235.23 99.5, 235.18 99.67, 235.12 99.83, 235.06 100.0, 235.0 100.17, 234.94 100.33, 234.88 100.5, 234.82 100.67, 234.77 100.83, 234.71 101.0, 234.65 101.17, 234.59 101.33, 234.53 101.5, 234.48 101.67, 234.42 101.83, 234.36 102.0, 234.3 102.17, 234.24 102.33, 234.18 102.5, 234.12 102.67, 234.07 102.83, 234.01 103.0, 233.95 103.17, 233.89 103.33, 233.83 103.5, 233.78 103.67, 233.72 103.83, 233.66 104.0, 233.6 104.17, 233.54 104.33, 233.48 104.5, 233.42 104.67, 233.37 104.83, 233.31 105.0, 233.25 105.17, 233.19 105.33, 233.13 105.5, 233.08 105.67, 233.02 105.83, 232.96 106.0, 232.9 106.17, 232.84 106.33, 232.78 106.5, 232.72 106.67, 232.67 106.83, 232.61 107.0, 232.55 107.17, 232.49 107.33, 232.43 107.5, 232.38 107.67, 232.32 107.83, 232.26 108.0, 232.2 108.17, 232.14 108.33, 232.08 108.5, 232.02 108.67, 231.97 108.83, 231.91 109.0, 231.85 109.17, 231.79 109.33, 231.73 109.5, 231.68 109.67, 231.62 109.83, 231.56 110.0, 231.5 110.17, 231.44 110.33, 231.38 110.5, 231.32 110.67, 231.27 110.83, 231.21 111.0, 231.15 111.17, 231.09 111.33, 231.03 111.5, 230.98 111.67, 230.92 111.83, 230.86 112.0, 230.8 112.17, 230.74 112.33, 230.68 112.5, 230.62 112.67, 230.57 112.83, 230.51 113.0, 230.45 113.17, 230.39 113.33, 230.33 113.5, 230.28 113.67, 230.22 113.83, 230.16 114.0, 230.1 114.17, 230.04 114.33, 229.98 114.5, 229.92 114.67, 229.87 114.83, 229.81 115.0, 229.75 115.17, 229.69 115.33, 229.63 115.5, 229.58 115.67, 229.52 115.83, 229.46 116.0, 229.4 116.17, 229.34 116.33, 229.28 116.5, 229.22 116.67, 229.17 116.83, 229.11 117.0, 229.05 117.17, 228.99 117.33, 228.93 117.5, 228.88 117.67, 228.82 117.83, 228.76 118.0, 228.7 118.17, 228.64 118.33, 228.58 118.5, 228.52 118.67, 228.47 118.83, 228.41 119.0, 228.35 119.17, 228.29 119.33, 228.23 119.5, 228.18 119.67, 228.12 119.83, 228.06 120.0, 228.0 120.17, 227.94 120.33, 227.88 120.5, 227.82 120.67, 227.77 120.83, 227.71 121.0, 227.65 121.17, 227.59 121.33, 227.53 121.5, 227.48 121.67, 227.42 121.83, 227.36 122.0, 227.3 122.17, 227.24 122.33, 227.18 122.5, 227.12 122.67, 227.07 122.83, 227.01 123.0, 226.95 123.17, 226.89 123.33, 226.83 123.5, 226.78 123.67, 226.72 123.83, 226.66 124.0, 226.6 124.17, 226.54 124.33, 226.48 124.5, 226.42 124.67, 226.37 124.83, 226.31 125.0, 226.25 125.17, 226.19 125.33, 226.13 125.5, 226.08 125.67, 226.02 125.83, 225.96 126.0, 225.9 126.17, 225.84 126.33, 225.78 126.5, 225.72 126.67, 225.67 126.83, 225.61 127.0, 225.55 127.17, 225.49 127.33, 225.43 127.5, 225.38 127.67, 225.32 127.83, 225.26 128.0, 225.2 128.17, 225.14 128.33, 225.08 128.5, 225.02 128.67, 224.97 128.83, 224.91 129.0, 224.85 129.17, 224.79 129.33, 224.73 129.5, 224.68 129.67, 224.62 129.83, 224.56 130.0, 224.5 130.17, 224.44 130.33, 224.38 130.5, 224.32 130.67, 224.27 130.83, 224.21 131.0, 224.15 131.17, 224.09 131.33, 224.03 131.5, 223.98 131.67, 223.92 131.83, 223.86 132.0, 223.8 132.17, 223.74 132.33, 223.68 132.5, 223.62 132.67, 223.57 132.83, 223.51 133.0, 223.45 133.17, 223.39 133.33, 223.33 133.5, 223.28 133.67, 223.22 133.83, 223.16 134.0, 223.1 134.17, 223.04 134.33, 222.98 134.5, 222.92 134.67, 222.87 134.83, 222.81 135.0, 222.75 135.17, 222.69 135.33, 222.63 135.5, 222.58 135.67, 222.52 135.83, 222.46 136.0, 222.4 136.17, 222.34 136.33, 222.28 136.5, 222.22 136.67, 222.17 136.83, 222.11 137.0, 222.05 137.17, 221.99 137.33, 221.93 137.5, 221.88 137.67, 221.82 137.83, 221.76 138.0, 221.7 138.17, 221.64 138.33, 221.58 138.5, 221.52 138.67, 221.47 138.83, 221.41 139.0, 221.35 139.17, 221.29 139.33, 221.23 139.5, 221.18 139.67, 221.12 139.83, 221.06 140.0, 221.0 140.17, 220.94 140.33, 220.88 140.5, 220.82 140.67, 220.77 140.83, 220.71 141.0, 220.65 141.17, 220.59 141.33, 220.53 141.5, 220.48 141.67, 220.42 141.83, 220.36 142.0, 220.3 142.17, 220.24 142.33, 220.18 142.5, 220.12 142.67, 220.07 142.83, 220.01 143.0, 219.95 143.17, 219.89 143.33, 219.83 143.5, 219.78 143.67, 219.72 143.83, 219.66 144.0, 219.6 144.17, 219.54 144.33, 219.48 144.5, 219.42 144.67, 219.37 144.83, 219.31 145.0, 219.25 145.17, 219.19 145.33, 219.13 145.5, 219.08 145.67, 219.02 145.83, 218.96 146.0, 218.9 146.17, 218.84 146.33, 218.78 146.5, 218.72 146.67, 218.67 146.83, 218.61 147.0, 218.55 147.17, 218.49 147.33, 218.43 147.5, 218.38 147.67, 218.32 147.83, 218.26 148.0, 218.2 148.17, 218.14 148.33, 218.08 148.5, 218.02 148.67, 217.97 148.83, 217.91 149.0, 217.85 149.17, 217.79 149.33, 217.73 149.5, 217.68 149.67, 217.62 149.83, 217.56 150.0, 217.5 150.17, 217.44 150.33, 217.38 150.5, 217.32 150.67, 217.27 150.83, 217.21 151.0, 217.15 151.17, 217.09 151.33, 217.03 151.5, 216.98 151.67, 216.92 151.83, 216.86 152.0, 216.8 152.17, 216.74 152.33, 216.68 152.5, 216.62 152.67, 216.57 152.83, 216.51 153.0, 216.45 153.17, 216.39 153.33, 216.33 153.5, 216.28 153.67, 216.22 153.83, 216.16 154.0, 216.1 154.17, 216.04 154.33, 215.98 154.5, 215.92 154.67, 215.87 154.83, 215.81 155.0, 215.75 155.17, 215.69 155.33, 215.63 155.5, 215.58 155.67, 215.52 155.83, 215.46 156.0, 215.4 156.17, 215.34 156.33, 215.28 156.5, 215.22 156.67, 215.17 156.83, 215.11 157.0, 215.05 157.17, 214.99 157.33, 214.93 157.5, 214.88 157.67, 214.82 157.83, 214.76 158.0, 214.7 158.17, 214.64 158.33, 214.58 158.5, 214.52 158.67, 214.47 158.83, 214.41 159.0, 214.35 159.17, 214.29 159.33, 214.23 159.5, 214.18 159.67, 214.12 159.83, 214.06 160.0, 214.0 160.17, 213.94 160.33, 213.88 160.5, 213.82 160.67, 213.77 160.83, 213.71 161.0, 213.65 161.17, 213.59 161.33, 213.53 161.5, 213.48 161.67, 213.42 161.83, 213.36 162.0, 213.3 162.17, 213.24 162.33, 213.18 162.5, 213.12 162.67, 213.07 162.83, 213.01 163.0, 212.95 163.17, 212.89 163.33, 212.83 163.5, 212.78 163.67, 212.72 163.83, 212.66 164.0, 212.6 164.17, 212.54 164.33, 212.48 164.5, 212.42 164.67, 212.37 164.83, 212.31 165.0, 212.25 165.17, 212.19 165.33, 212.13 165.5, 212.08 165.67, 212.02 165.83, 211.96 166.0, 211.9 166.17, 211.84 166.33, 211.78 166.5, 211.72 166.67, 211.67 166.83, 211.61 167.0, 211.55 167.17, 211.49 167.33, 211.43 167.5, 211.38 167.67, 211.32 167.83, 211.26 168.0, 211.2 168.17, 211.14 168.33, 211.08 168.5, 211.02 168.67, 210.97 168.83, 210.91 169.0, 210.85 169.17, 210.79 169.33, 210.73 169.5, 210.68 169.67, 210.62 169.83, 210.56 170.0, 210.5 170.17, 210.44 170.33, 210.38 170.5, 210.32 170.67, 210.27 170.83, 210.21 171.0, 210.15 171.17, 210.09 171.33, 210.03 171.5, 209.98 171.67, 209.92 171.83, 209.86 172.0, 209.8 172.17, 209.74 172.33, 209.68 172.5, 209.62 172.67, 209.57 172.83, 209.51 173.0, 209.45 173.17, 209.39 173.33, 209.33 173.5, 209.28 173.67, 209.22 173.83, 209.16 174.0, 209.1 174.17, 209.04 174.33, 208.98 174.5, 208.92 174.67, 208.87 174.83, 208.81 175.0, 208.75 175.17, 208.69 175.33, 208.63 175.5, 208.58 175.67, 208.52 175.83, 208.46 176.0, 208.4 176.17, 208.34 176.33, 208.28 176.5, 208.22 176.67, 208.17 176.83, 208.11 177.0, 208.05 177.17, 207.99 177.33, 207.93 177.5, 207.88 177.67, 207.82 177.83, 207.76 178.0, 207.7 178.17, 207.64 178.33, 207.58 178.5, 207.52 178.67, 207.47 178.83, 207.41 179.0, 207.35 179.17, 207.29 179.33, 207.23 179.5, 207.18 179.67, 207.12 179.83, 207.06 180.0, 207.0 180.17, 206.94 180.33, 206.88 180.5, 206.82 180.67, 206.77 180.83, 206.71 181.0, 206.65 181.17, 206.59 181.33, 206.53 181.5, 206.48 181.67, 206.42 181.83, 206.36 182.0, 206.3 182.17, 206.24 182.33, 206.18 182.5, 206.12 182.67, 206.07 182.83, 206.01 183.0, 205.95 183.17, 205.89 183.33, 205.83 183.5, 205.78 183.67, 205.72 183.83, 205.66 184.0, 205.6 184.17, 205.54 184.33, 205.48 184.5, 205.42 184.67, 205.37 184.83, 205.31 185.0, 205.25 185.17, 205.19 185.33, 205.13 185.5, 205.08 185.67, 205.02 185.83, 204.96 186.0, 204.9 186.17, 204.84 186.33, 204.78 186.5, 204.72 186.67, 204.67 186.83, 204.61 187.0, 204.55 187.17, 204.49 187.33, 204.43 187.5, 204.38 187.67, 204.32 187.83, 204.26 188.0, 204.2 188.17, 204.14 188.33, 204.08 188.5, 204.02 188.67, 203.97 188.83, 203.91 189.0, 203.85 189.17, 203.79 189.33, 203.73 189.5, 203.68 189.67, 203.62 189.83, 203.56 190.0, 203.5 190.17, 203.44 190.33, 203.38 190.5, 203.32 190.67, 203.27 190.83, 203.21 191.0, 203.15 191.17, 203.09 191.33, 203.03 191.5, 202.98 191.67, 202.92 191.83, 202.86 192.0, 202.8 192.17, 202.74 192.33, 202.68 192.5, 202.62 192.67, 202.57 192.83, 202.51 193.0, 202.45 193.17, 202.39 193.33, 202.33 193.5, 202.28 193.67, 202.22 193.83, 202.16 194.0, 202.1 194.17, 202.04 194.33, 201.98 194.5, 201.92 194.67, 201.87 194.83, 201.81 195.0, 201.75 195.17, 201.69 195.33, 201.63 195.5, 201.58 195.67, 201.52 195.83, 201.46 196.0, 201.4 196.17, 201.34 196.33, 201.28 196.5, 201.22 196.67, 201.17 196.83, 201.11 197.0, 201.05 197.17, 200.99 197.33, 200.93 197.5, 200.88 197.67, 200.82 197.83, 200.76 198.0, 200.7 198.17, 200.64 198.33, 200.58 198.5, 200.52 198.67, 200.47 198.83, 200.41 199.0, 200.35 199.17, 200.29 199.33, 200.23 199.5, 200.18 199.67, 200.12 199.83, 200.06 200.0, 200.0 200.17, 199.94 200.33, 199.88 200.5, 199.82 200.67, 199.77 200.83, 199.71 201.0, 199.65 201.17, 199.59 201.33, 199.53 201.5, 199.48 201.67, 199.42 201.83, 199.36 202.0, 199.3 202.17, 199.24 202.33, 199.18 202.5, 199.12 202.67, 199.07 202.83, 199.01 203.0, 198.95 203.17, 198.89 203.33, 198.83 203.5, 198.78 203.67, 198.72 203.83, 198.66 204.0, 198.6 204.17, 198.54 204.33, 198.48 204.5, 198.42 204.67, 198.37 204.83, 198.31 205.0, 198.25 205.17, 198.19 205.33, 198.13 205.5, 198.08 205.67, 198.02 205.83, 197.96 206.0, 197.9 206.17, 197.84 206.33, 197.78 206.5, 197.72 206.67, 197.67 206.83, 197.61 207.0, 197.55 207.17, 197.49 207.33, 197.43 207.5, 197.38 207.67, 197.32 207.83, 197.26 208.0, 197.2 208.17, 197.14 208.33, 197.08 208.5, 197.02 208.67, 196.97 208.83, 196.91 209.0, 196.85 209.17, 196.79 209.33, 196.73 209.5, 196.68 209.67, 196.62 209.83, 196.56 210.0, 196.5 210.17, 196.44 210.33, 196.38 210.5, 196.32 210.67, 196.27 210.83, 196.21 211.0, 196.15 211.17, 196.09 211.33, 196.03 211.5, 195.98 211.67, 195.92 211.83, 195.86 212.0, 195.8 212.17, 195.74 212.33, 195.68 212.5, 195.62 212.67, 195.57 212.83, 195.51 213.0, 195.45 213.17, 195.39 213.33, 195.33 213.5, 195.28 213.67, 195.22 213.83, 195.16 214.0, 195.1 214.17, 195.04 214.33, 194.98 214.5, 194.92 214.67, 194.87 214.83, 194.81 215.0, 194.75 215.17, 194.69 215.33, 194.63 215.5, 194.58 215.67, 194.52 215.83, 194.46 216.0, 194.4 216.17, 194.34 216.33, 194.28 216.5, 194.22 216.67, 194.17 216.83, 194.11 217.0, 194.05 217.17, 193.99 217.33, 193.93 217.5, 193.88 217.67, 193.82 217.83, 193.76 218.0, 193.7 218.17, 193.64 218.33, 193.58 218.5, 193.52 218.67, 193.47 218.83, 193.41 219.0, 193.35 219.17, 193.29 219.33, 193.23 219.5, 193.18 219.67, 193.12 219.83, 193.06 220.0, 193.0 220.17, 192.94 220.33, 192.88 220.5, 192.82 220.67, 192.77 220.83, 192.71 221.0, 192.65 221.17, 192.59 221.33, 192.53 221.5, 192.48 221.67, 192.42 221.83, 192.36 222.0, 192.3 222.17, 192.24 222.33, 192.18 222.5, 192.12 222.67, 192.07 222.83, 192.01 223.0, 191.95 223.17, 191.89 223.33, 191.83 223.5, 191.78 223.67, 191.72 223.83, 191.66 224.0, 191.6 224.17, 191.54 224.33, 191.48 224.5, 191.42 224.67, 191.37 224.83, 191.31 225.0, 191.25 225.17, 191.19 225.33, 191.13 225.5, 191.08 225.67, 191.02 225.83, 190.96 226.0, 190.9 226.17, 190.84 226.33, 190.78 226.5, 190.72 226.67, 190.67 226.83, 190.61 227.0, 190.55 227.17, 190.49 227.33, 190.43 227.5, 190.38 227.67, 190.32 227.83, 190.26 228.0, 190.2 228.17, 190.14 228.33, 190.08 228.5, 190.02 228.67, 189.97 228.83, 189.91 229.0, 189.85 229.17, 189.79 229.33, 189.73 229.5, 189.68 229.67, 189.62 229.83, 189.56 230.0, 189.5 230.17, 189.44 230.33, 189.38 230.5, 189.32 230.67, 189.27 230.83, 189.21 231.0, 189.15 231.17, 189.09 231.33, 189.03 231.5, 188.98 231.67, 188.92 231.83, 188.86 232.0, 188.8 232.17, 188.74 232.33, 188.68 232.5, 188.62 232.67, 188.57 232.83, 188.51 233.0, 188.45 233.17, 188.39 233.33, 188.33 233.5, 188.28 233.67, 188.22 233.83, 188.16 234.0, 188.1 234.17, 188.04 234.33, 187.98 234.5, 187.92 234.67, 187.87 234.83, 187.81 235.0, 187.75 235.17, 187.69 235.33, 187.63 235.5, 187.58 235.67, 187.52 235.83, 187.46 236.0, 187.4 236.17, 187.34 236.33, 187.28 236.5, 187.22 236.67, 187.17 236.83, 187.11 237.0, 187.05 237.17, 186.99 237.33, 186.93 237.5, 186.88 237.67, 186.82 237.83, 186.76 238.0, 186.7 238.17, 186.64 238.33, 186.58 238.5, 186.52 238.67, 186.47 238.83, 186.41 239.0, 186.35 239.17, 186.29 239.33, 186.23 239.5, 186.18 239.67, 186.12 239.83, 186.06 240.0, 186.0 240.17, 185.94 240.33, 185.88 240.5, 185.82 240.67, 185.77 240.83, 185.71 241.0, 185.65 241.17, 185.59 241.33, 185.53 241.5, 185.48 241.67, 185.42 241.83, 185.36 242.0, 185.3 242.17, 185.24 242.33, 185.18 242.5, 185.12 242.67, 185.07 242.83, 185.01 243.0, 184.95 243.17, 184.89 243.33, 184.83 243.5, 184.78 243.67, 184.72 243.83, 184.66 244.0, 184.6 244.17, 184.54 244.33, 184.48 244.5, 184.42 244.67, 184.37 244.83, 184.31 245.0, 184.25 245.17, 184.19 245.33, 184.13 245.5, 184.08 245.67, 184.02 245.83, 183.96 246.0, 183.9 246.17, 183.84 246.33, 183.78 246.5, 183.72 246.67, 183.67 246.83, 183.61 247.0, 183.55 247.17, 183.49 247.33, 183.43 247.5, 183.38 247.67, 183.32 247.83, 183.26 248.0, 183.2 248.17, 183.14 248.33, 183.08 248.5, 183.02 248.67, 182.97 248.83, 182.91 249.0, 182.85 249.17, 182.79 249.33, 182.73 249.5, 182.68 249.67, 182.62 249.83, 182.56 250.0, 182.5 250.17, 182.44 250.33, 182.38 250.5, 182.32 250.67, 182.27 250.83, 182.21 251.0, 182.15 251.17, 182.09 251.33, 182.03 251.5, 181.98 251.67, 181.92 251.83, 181.86 252.0, 181.8 252.17, 181.74 252.33, 181.68 252.5, 181.62 252.67, 181.57 252.83, 181.51 253.0, 181.45 253.17, 181.39 253.33, 181.33 253.5, 181.28 253.67, 181.22 253.83, 181.16 254.0, 181.1 254.17, 181.04 254.33, 180.98 254.5, 180.92 254.67, 180.87 254.83, 180.81 255.0, 180.75 255.17, 180.69 255.33, 180.63 255.5, 180.58 255.67, 180.52 255.83, 180.46 256.0, 180.4 256.17, 180.34 256.33, 180.28 256.5, 180.22 256.67, 180.17 256.83, 180.11 257.0, 180.05 257.17, 179.99 257.33, 179.93 257.5, 179.88 257.67, 179.82 257.83, 179.76 258.0, 179.7 258.17, 179.64 258.33, 179.58 258.5, 179.52 258.67, 179.47 258.83, 179.41 259.0, 179.35 259.17, 179.29 259.33, 179.23 259.5, 179.18 259.67, 179.12 259.83, 179.06 260.0, 179.0 260.17, 178.94 260.33, 178.88 260.5, 178.82 260.67, 178.77 260.83, 178.71 261.0, 178.65 261.17, 178.59 261.33, 178.53 261.5, 178.48 261.67, 178.42 261.83, 178.36 262.0, 178.3 262.17, 178.24 262.33, 178.18 262.5, 178.12 262.67, 178.07 262.83, 178.01 263.0, 177.95 263.17, 177.89 263.33, 177.83 263.5, 177.78 263.67, 177.72 263.83, 177.66 264.0, 177.6 264.17, 177.54 264.33, 177.48 264.5, 177.42 264.67, 177.37 264.83, 177.31 265.0, 177.25 265.17, 177.19 265.33, 177.13 265.5, 177.08 265.67, 177.02 265.83, 176.96 266.0, 176.9 266.17, 176.84 266.33, 176.78 266.5, 176.72 266.67, 176.67 266.83, 176.61 267.0, 176.55 267.17, 176.49 267.33, 176.43 267.5, 176.38 267.67, 176.32 267.83, 176.26 268.0, 176.2 268.17, 176.14 268.33, 176.08 268.5, 176.02 268.67, 175.97 268.83, 175.91 269.0, 175.85 269.17, 175.79 269.33, 175.73 269.5, 175.68 269.67, 175.62 269.83, 175.56 270.0, 175.5 270.17, 175.44 270.33, 175.38 270.5, 175.32 270.67, 175.27 270.83, 175.21 271.0, 175.15 271.17, 175.09 271.33, 175.03 271.5, 174.98 271.67, 174.92 271.83, 174.86 272.0, 174.8 272.17, 174.74 272.33, 174.68 272.5, 174.62 272.67, 174.57 272.83, 174.51 273.0, 174.45 273.17, 174.39 273.33, 174.33 273.5, 174.28 273.67, 174.22 273.83, 174.16 274.0, 174.1 274.17, 174.04 274.33, 173.98 274.5, 173.92 274.67, 173.87 274.83, 173.81 275.0, 173.75 275.17, 173.69 275.33, 173.63 275.5, 173.58 275.67, 173.52 275.83, 173.46 276.0, 173.4 276.17, 173.34 276.33, 173.28 276.5, 173.22 276.67, 173.17 276.83, 173.11 277.0, 173.05 277.17, 172.99 277.33, 172.93 277.5, 172.88 277.67, 172.82 277.83, 172.76 278.0, 172.7 278.17, 172.64 278.33, 172.58 278.5, 172.52 278.67, 172.47 278.83, 172.41 279.0, 172.35 279.17, 172.29 279.33, 172.23 279.5, 172.18 279.67, 172.12 279.83, 172.06 280.0, 172.0 280.17, 171.94 280.33, 171.88 280.5, 171.82 280.67, 171.77 280.83, 171.71 281.0, 171.65 281.17, 171.59 281.33, 171.53 281.5, 171.48 281.67, 171.42 281.83, 171.36 282.0, 171.3 282.17, 171.24 282.33, 171.18 282.5, 171.12 282.67, 171.07 282.83, 171.01 283.0, 170.95 283.17, 170.89 283.33, 170.83 283.5, 170.78 283.67, 170.72 283.83, 170.66 284.0, 170.6 284.17, 170.54 284.33, 170.48 284.5, 170.42 284.67, 170.37 284.83, 170.31 285.0, 170.25 285.17, 170.19 285.33, 170.13 285.5, 170.08 285.67, 170.02 285.83, 169.96 286.0, 169.9 286.17, 169.84 286.33, 169.78 286.5, 169.72 286.67, 169.67 286.83, 169.61 287.0, 169.55 287.17, 169.49 287.33, 169.43 287.5, 169.38 287.67, 169.32 287.83, 169.26 288.0, 169.2 288.17, 169.14 288.33, 169.08 288.5, 169.02 288.67, 168.97 288.83, 168.91 289.0, 168.85 289.17, 168.79 289.33, 168.73 289.5, 168.68 289.67, 168.62 289.83, 168.56 290.0, 168.5 290.17, 168.44 290.33, 168.38 290.5, 168.32 290.67, 168.27 290.83, 168.21 291.0, 168.15 291.17, 168.09 291.33, 168.03 291.5, 167.98 291.67, 167.92 291.83, 167.86 292.0, 167.8 292.17, 167.74 292.33, 167.68 292.5, 167.62 292.67, 167.57 292.83, 167.51 293.0, 167.45 293.17, 167.39 293.33, 167.33 293.5, 167.28 293.67, 167.22 293.83, 167.16 294.0, 167.1 294.17, 167.04 294.33, 166.98 294.5, 166.92 294.67, 166.87 294.83, 166.81 295.0, 166.75 295.17, 166.69 295.33, 166.63 295.5, 166.58 295.67, 166.52 295.83, 166.46 296.0, 166.4 296.17, 166.34 296.33, 166.28 296.5, 166.22 296.67, 166.17 296.83, 166.11 297.0, 166.05 297.17, 165.99 297.33, 165.93 297.5, 165.88 297.67, 165.82 297.83, 165.76 298.0, 165.7 298.17, 165.64 298.33, 165.58 298.5, 165.52 298.67, 165.47 298.83, 165.41 299.0, 165.35 299.17, 165.29 299.33, 165.23 299.5, 165.18 299.67, 165.12 299.83, 165.06 300.0, 165.0 300.17, 164.94 300.33, 164.88 300.5, 164.82 300.67, 164.77 300.83, 164.71 301.0, 164.65 301.17, 164.59 301.33, 164.53 301.5, 164.48 301.67, 164.42 301.83, 164.36 302.0, 164.3 302.17, 164.24 302.33, 164.18 302.5, 164.12 302.67, 164.07 302.83, 164.01 303.0, 163.95 303.17, 163.89 303.33, 163.83 303.5, 163.78 303.67, 163.72 303.83, 163.66 304.0, 163.6 304.17, 163.54 304.33, 163.48 304.5, 163.43 304.67, 163.37 304.83, 163.31 305.0, 163.25 305.17, 163.19 305.33, 163.13 305.5, 163.07 305.67, 163.02 305.83, 162.96 306.0, 162.9 306.17, 162.84 306.33, 162.78 306.5, 162.72 306.67, 162.67 306.83, 162.61 307.0, 162.55 307.17, 162.49 307.33, 162.43 307.5, 162.38 307.67, 162.32 307.83, 162.26 308.0, 162.2 308.17, 162.14 308.33, 162.08 308.5, 162.02 308.67, 161.97 308.83, 161.91 309.0, 161.85 309.17, 161.79 309.33, 161.73 309.5, 161.68 309.67, 161.62 309.83, 161.56 310.0, 161.5 310.17, 161.44 310.33, 161.38 310.5, 161.32 310.67, 161.27 310.83, 161.21 311.0, 161.15 311.17, 161.09 311.33, 161.03 311.5, 160.98 311.67, 160.92 311.83, 160.86 312.0, 160.8 312.17, 160.74 312.33, 160.68 312.5, 160.62 312.67, 160.57 312.83, 160.51 313.0, 160.45 313.17, 160.39 313.33, 160.33 313.5, 160.28 313.67, 160.22 313.83, 160.16 314.0, 160.1 314.17, 160.04 314.33, 159.98 314.5, 159.93 314.67, 159.87 314.83, 159.81 315.0, 159.75 315.17, 159.69 315.33, 159.63 315.5, 159.57 315.67, 159.52 315.83, 159.46 316.0, 159.4 316.17, 159.34 316.33, 159.28 316.5, 159.22 316.67, 159.17 316.83, 159.11 317.0, 159.05 317.17, 158.99 317.33, 158.93 317.5, 158.88 317.67, 158.82 317.83, 158.76 318.0, 158.7 318.17, 158.64 318.33, 158.58 318.5, 158.52 318.67, 158.47 318.83, 158.41 319.0, 158.35 319.17, 158.29 319.33, 158.23 319.5, 158.18 319.67, 158.12 319.83, 158.06 320.0, 158.0 320.17, 157.94 320.33, 157.88 320.5, 157.82 320.67, 157.77 320.83, 157.71 321.0, 157.65 321.17, 157.59 321.33, 157.53 321.5, 157.48 321.67, 157.42 321.83, 157.36 322.0, 157.3 322.17, 157.24 322.33, 157.18 322.5, 157.12 322.67, 157.07 322.83, 157.01 323.0, 156.95 323.17, 156.89 323.33, 156.83 323.5, 156.78 323.67, 156.72 323.83, 156.66 324.0, 156.6 324.17, 156.54 324.33, 156.48 324.5, 156.43 324.67, 156.37 324.83, 156.31 325.0, 156.25 325.17, 156.19 325.33, 156.13 325.5, 156.07 325.67, 156.02 325.83, 155.96 326.0, 155.9 326.17, 155.84 326.33, 155.78 326.5, 155.72 326.67, 155.67 326.83, 155.61 327.0, 155.55 327.17, 155.49 327.33, 155.43 327.5, 155.38 327.67, 155.32 327.83, 155.26 328.0, 155.2 328.17, 155.14 328.33, 155.08 328.5, 155.02 328.67, 154.97 328.83, 154.91 329.0, 154.85 329.17, 154.79 329.33, 154.73 329.5, 154.68 329.67, 154.62 329.83, 154.56 330.0, 154.5 330.17, 154.44 330.33, 154.38 330.5, 154.33 330.67, 154.27 330.83, 154.21 331.0, 154.15 331.17, 154.09 331.33, 154.03 331.5, 153.98 331.67, 153.92 331.83, 153.86 332.0, 153.8 332.17, 153.74 332.33, 153.68 332.5, 153.62 332.67, 153.57 332.83, 153.51 333.0, 153.45 333.17, 153.39 333.33, 153.33 333.5, 153.28 333.67, 153.22 333.83, 153.16 334.0, 153.1 334.17, 153.04 334.33, 152.98 334.5, 152.93 334.67, 152.87 334.83, 152.81 335.0, 152.75 335.17, 152.69 335.33, 152.63 335.5, 152.57 335.67, 152.52 335.83, 152.46 336.0, 152.4 336.17, 152.34 336.33, 152.28 336.5, 152.22 336.67, 152.17 336.83, 152.11 337.0, 152.05 337.17, 151.99 337.33, 151.93 337.5, 151.88 337.67, 151.82 337.83, 151.76 338.0, 151.7 338.17, 151.64 338.33, 151.58 338.5, 151.52 338.67, 151.47 338.83, 151.41 339.0, 151.35 339.17, 151.29 339.33, 151.23 339.5, 151.18 339.67, 151.12 339.83, 151.06 340.0, 151.0 340.17, 150.94 340.33, 150.88 340.5, 150.82 340.67, 150.77 340.83, 150.71 341.0, 150.65 341.17, 150.59 341.33, 150.53 341.5, 150.48 341.67, 150.42 341.83, 150.36 342.0, 150.3 342.17, 150.24 342.33, 150.18 342.5, 150.12 342.67, 150.07 342.83, 150.01 343.0, 149.95 343.17, 149.89 343.33, 149.83 343.5, 149.78 343.67, 149.72 343.83, 149.66 344.0, 149.6 344.17, 149.54 344.33, 149.48 344.5, 149.43 344.67, 149.37 344.83, 149.31 345.0, 149.25 345.17, 149.19 345.33, 149.13 345.5, 149.07 345.67, 149.02 345.83, 148.96 346.0, 148.9 346.17, 148.84 346.33, 148.78 346.5, 148.73 346.67, 148.67 346.83, 148.61 347.0, 148.55 347.17, 148.49 347.33, 148.43 347.5, 148.38 347.67, 148.32 347.83, 148.26 348.0, 148.2 348.17, 148.14 348.33, 148.08 348.5, 148.02 348.67, 147.97 348.83, 147.91 349.0, 147.85 349.17, 147.79 349.33, 147.73 349.5, 147.68 349.67, 147.62 349.83, 147.56 350.0, 147.5 350.17, 147.44 350.33, 147.38 350.5, 147.33 350.67, 147.27 350.83, 147.21 351.0, 147.15 351.17, 147.09 351.33, 147.03 351.5, 146.98 351.67, 146.92 351.83, 146.86 352.0, 146.8 352.17, 146.74 352.33, 146.68 352.5, 146.62 352.67, 146.57 352.83, 146.51 353.0, 146.45 353.17, 146.39 353.33, 146.33 353.5, 146.28 353.67, 146.22 353.83, 146.16 354.0, 146.1 354.17, 146.04 354.33, 145.98 354.5, 145.93 354.67, 145.87 354.83, 145.81 355.0, 145.75 355.17, 145.69 355.33, 145.63 355.5, 145.58 355.67, 145.52 355.83, 145.46 356.0, 145.4 356.17, 145.34 356.33, 145.28 356.5, 145.22 356.67, 145.17 356.83, 145.11 357.0, 145.05 357.17, 144.99 357.33, 144.93 357.5, 144.88 357.67, 144.82 357.83, 144.76 358.0, 144.7 358.17, 144.64 358.33, 144.58 358.5, 144.52 358.67, 144.47 358.83, 144.41 359.0, 144.35 359.17, 144.29 359.33, 144.23 359.5, 144.18 359.67, 144.12 359.83, 144.06 360.0, 144.0 360.17, 143.94 360.33, 143.88 360.5, 143.82 360.67, 143.77 360.83, 143.71 361.0, 143.65 361.17, 143.59 361.33, 143.53 361.5, 143.48 361.67, 143.42 361.83, 143.36 362.0, 143.3 362.17, 143.24 362.33, 143.18 362.5, 143.12 362.67, 143.07 362.83, 143.01 363.0, 142.95 363.17, 142.89 363.33, 142.83 363.5, 142.78 363.67, 142.72 363.83, 142.66 364.0, 142.6 364.17, 142.54 364.33, 142.48 364.5, 142.43 364.67, 142.37 364.83, 142.31 365.0, 142.25 365.17, 142.19 365.33, 142.13 365.5, 142.07 365.67, 142.02 365.83, 141.96 366.0, 141.9 366.17, 141.84 366.33, 141.78 366.5, 141.73 366.67, 141.67 366.83, 141.61 367.0, 141.55 367.17, 141.49 367.33, 141.43 367.5, 141.38 367.67, 141.32 367.83, 141.26 368.0, 141.2 368.17, 141.14 368.33, 141.08 368.5, 141.02 368.67, 140.97 368.83, 140.91 369.0, 140.85 369.17, 140.79 369.33, 140.73 369.5, 140.68 369.67, 140.62 369.83, 140.56 370.0, 140.5 370.17, 140.44 370.33, 140.38 370.5, 140.32 370.67, 140.27 370.83, 140.21 371.0, 140.15 371.17, 140.09 371.33, 140.03 371.5, 139.98 371.67, 139.92 371.83, 139.86 372.0, 139.8 372.17, 139.74 372.33, 139.68 372.5, 139.62 372.67, 139.57 372.83, 139.51 373.0, 139.45 373.17, 139.39 373.33, 139.33 373.5, 139.28 373.67, 139.22 373.83, 139.16 374.0, 139.1 374.17, 139.04 374.33, 138.98 374.5, 138.93 374.67, 138.87 374.83, 138.81 375.0, 138.75 375.17, 138.69 375.33, 138.63 375.5, 138.57 375.67, 138.52 375.83, 138.46 376.0, 138.4 376.17, 138.34 376.33, 138.28 376.5, 138.23 376.67, 138.17 376.83, 138.11 377.0, 138.05 377.17, 137.99 377.33, 137.93 377.5, 137.88 377.67, 137.82 377.83, 137.76 378.0, 137.7 378.17, 137.64 378.33, 137.58 378.5, 137.52 378.67, 137.47 378.83, 137.41 379.0, 137.35 379.17, 137.29 379.33, 137.23 379.5, 137.18 379.67, 137.12 379.83, 137.06 380.0, 137.0 380.17, 136.94 380.33, 136.88 380.5, 136.82 380.67, 136.77 380.83, 136.71 381.0, 136.65 381.17, 136.59 381.33, 136.53 381.5, 136.48 381.67, 136.42 381.83, 136.36 382.0, 136.3 382.17, 136.24 382.33, 136.18 382.5, 136.12 382.67, 136.07 382.83, 136.01 383.0, 135.95 383.17, 135.89 383.33, 135.83 383.5, 135.77 383.67, 135.72 383.83, 135.66 384.0, 135.6 384.17, 135.54 384.33, 135.48 384.5, 135.43 384.67, 135.37 384.83, 135.31 385.0, 135.25 385.17, 135.19 385.33, 135.13 385.5, 135.07 385.67, 135.02 385.83, 134.96 386.0, 134.9 386.17, 134.84 386.33, 134.78 386.5, 134.73 386.67, 134.67 386.83, 134.61 387.0, 134.55 387.17, 134.49 387.33, 134.43 387.5, 134.38 387.67, 134.32 387.83, 134.26 388.0, 134.2 388.17, 134.14 388.33, 134.08 388.5, 134.02 388.67, 133.97 388.83, 133.91 389.0, 133.85 389.17, 133.79 389.33, 133.73 389.5, 133.68 389.67, 133.62 389.83, 133.56 390.0, 133.5 390.17, 133.44 390.33, 133.38 390.5, 133.32 390.67, 133.27 390.83, 133.21 391.0, 133.15 391.17, 133.09 391.33, 133.03 391.5, 132.98 391.67, 132.92 391.83, 132.86 392.0, 132.8 392.17, 132.74 392.33, 132.68 392.5, 132.62 392.67, 132.57 392.83, 132.51 393.0, 132.45 393.17, 132.39 393.33, 132.33 393.5, 132.28 393.67, 132.22 393.83, 132.16 394.0, 132.1 394.17, 132.04 394.33, 131.98 394.5, 131.93 394.67, 131.87 394.83, 131.81 395.0, 131.75 395.17, 131.69 395.33, 131.63 395.5, 131.57 395.67, 131.52 395.83, 131.46 396.0, 131.4 396.17, 131.34 396.33, 131.28 396.5, 131.23 396.67, 131.17 396.83, 131.11 397.0, 131.05 397.17, 130.99 397.33, 130.93 397.5, 130.88 397.67, 130.82 397.83, 130.76 398.0, 130.7 398.17, 130.64 398.33, 130.58 398.5, 130.52 398.67, 130.47 398.83, 130.41 399.0, 130.35 399.17, 130.29 399.33, 130.23 399.5, 130.18 399.67, 130.12 399.83, 130.06 400.0, 130.0 " fill="none" stroke="white" stroke-width="1.5" stroke-linejoin="round" stroke-opacity="1"/>

 </svg>