<svg version="1.1" 
 baseProfile="full" 
 width="400" 
 height="400" 
 xmlns="http://www.w3.org/2000/svg">
<rect x="0.0" y="0.0" width="400" height="400" fill="black" stroke="black" stroke-width="0" opacity="1"/>
<line x1="0.0" y1="0.0" x2="0.0" y2="400.0" stroke="white" stroke-width="1" opacity="0.4" stroke-linecap="butt"/>
<line x1="40.0" y1="0.0" x2="40.0" y2="400.0" stroke="white" stroke-width="1" opacity="0.4" stroke-linecap="butt"/>
<line x1="80.0" y1="0.0" x2="80.0" y2="400.0" stroke="white" stroke-width="1" opacity="0.4" stroke-linecap="butt"/>
<line x1="120.0" y1="0.0" x2="120.0" y2="400.0" stroke="white" stroke-width="1" opacity="0.4" stroke-linecap="butt"/>
<line x1="160.0" y1="0.0" x2="160.0" y2="400.0" stroke="white" stroke-width="1" opacity="0.4" stroke-linecap="butt"/>
<line x1="200.0" y1="0.0" x2="200.0" y2="400.0" stroke="white" stroke-width="1" opacity="0.4" stroke-linecap="butt"/>
<line x1="240.0" y1="0.0" x2="240.0" y2="400.0" stroke="white" stroke-width="1" opacity="0.4" stroke-linecap="butt"/>
<line x1="280.0" y1="0.0" x2="280.0" y2="400.0" stroke="white" stroke-width="1" opacity="0.4" stroke-linecap="butt"/>
<line x1="320.0" y1="0.0" x2="320.0" y2="400.0" stroke="white" stroke-width="1" opacity="0.4" stroke-linecap="butt"/>
<line x1="360.0" y1="0.0" x2="360.0" y2="400.0" stroke="white" stroke-width="1" opacity="0.4" stroke-linecap="butt"/>
<line x1="0.0" y1="0.0" x2="400.0" y2="0.0" stroke="white" stroke-width="1" opacity="0.4" stroke-linecap="butt"/>
<line x1="0.0" y1="40.0" x2="400.0" y2="40.0" stroke="white" stroke-width="1" opacity="0.4" stroke-linecap="butt"/>
<line x1="0.0" y1="80.0" x2="400.0" y2="80.0" stroke="white" stroke-width="1" opacity="0.4" stroke-linecap="butt"/>
<line x1="0.0" y1="120.0" x2="400.0" y2="120.0" stroke="white" stroke-width="1" opacity="0.4" stroke-linecap="butt"/>
<line x1="0.0" y1="160.0" x2="400.0" y2="160.0" stroke="white" stroke-width="1" opacity="0.4" stroke-linecap="butt"/>
<line x1="0.0" y1="200.0" x2="400.0" y2="200.0" stroke="white" stroke-width="1" opacity="0.4" stroke-linecap="butt"/>
<line x1="0.0" y1="240.0" x2="400.0" y2="240.0" stroke="white" stroke-width="1" opacity="0.4" stroke-linecap="butt"/>
<line x1="0.0" y1="280.0" x2="400.0" y2="280.0" stroke="white" stroke-width="1" opacity="0.4" stroke-linecap="butt"/>
<line x1="0.0" y1="320.0" x2="400.0" y2="320.0" stroke="white" stroke-width="1" opacity="0.4" stroke-linecap="butt"/>
<line x1="0.0" y1="360.0" x2="400.0" y2="360.0" stroke="white" stroke-width="1" opacity="0.4" stroke-linecap="butt"/>
<line x1="0.0" y1="200.0" x2="400.0" y2="200.0" stroke="yellow" stroke-width="2.5" opacity="1" stroke-linecap="butt"/>
<line x1="200.0" y1="0.0" x2="200.0" y2="400.0" stroke="yellow" stroke-width="2.5" opacity="1" stroke-linecap="butt"/>
<polygon points="391.0 204.0, 401.0 200.0, 391.0 196.0, 393.0 200.0" fill="yellow"/><polygon points="204.0 9.0, 200.0 -1.0, 196.0 9.0, 200.0 7.0" fill="yellow"/><image x="-60.0" y="-60.0" width="200" height="200" href="/Users/girirajhira/PycharmProjects/Giraphics3/Taylor/expr.png"/><polyline points="0.0, 262.5 0.17, 262.45 0.33, 262.4 0.5, 262.34 0.67, 262.29 0.83, 262.24 1.0, 262.19 1.17, 262.14 1.33, 262.08 1.5, 262.03 1.67, 261.98 1.83, 261.93 2.0, 261.88 2.17, 261.82 2.33, 261.77 2.5, 261.72 2.67, 261.67 2.83, 261.61 3.0, 261.56 3.17, 261.51 3.33, 261.46 3.5, 261.41 3.67, 261.35 3.83, 261.3 4.0, 261.25 4.17, 261.2 4.33, 261.15 4.5, 261.09 4.67, 261.04 4.83, 260.99 5.0, 260.94 5.17, 260.89 5.33, 260.83 5.5, 260.78 5.67, 260.73 5.83, 260.68 6.0, 260.62 6.17, 260.57 6.33, 260.52 6.5, 260.47 6.67, 260.42 6.83, 260.36 7.0, 260.31 7.17, 260.26 7.33, 260.21 7.5, 260.16 7.67, 260.1 7.83, 260.05 8.0, 260.0 8.17, 259.95 8.33, 259.9 8.5, 259.84 8.67, 259.79 8.83, 259.74 9.0, 259.69 9.17, 259.64 9.33, 259.58 9.5, 259.53 9.67, 259.48 9.83, 259.43 10.0, 259.38 10.17, 259.32 10.33, 259.27 10.5, 259.22 10.67, 259.17 10.83, 259.11 11.0, 259.06 11.17, 259.01 11.33, 258.96 11.5, 258.91 11.67, 258.85 11.83, 258.8 12.0, 258.75 12.17, 258.7 12.33, 258.65 12.5, 258.59 12.67, 258.54 12.83, 258.49 13.0, 258.44 13.17, 258.39 13.33, 258.33 13.5, 258.28 13.67, 258.23 13.83, 258.18 14.0, 258.12 14.17, 258.07 14.33, 258.02 14.5, 257.97 14.67, 257.92 14.83, 257.86 15.0, 257.81 15.17, 257.76 15.33, 257.71 15.5, 257.66 15.67, 257.6 15.83, 257.55 16.0, 257.5 16.17, 257.45 16.33, 257.4 16.5, 257.34 16.67, 257.29 16.83, 257.24 17.0, 257.19 17.17, 257.14 17.33, 257.08 17.5, 257.03 17.67, 256.98 17.83, 256.93 18.0, 256.88 18.17, 256.82 18.33, 256.77 18.5, 256.72 18.67, 256.67 18.83, 256.61 19.0, 256.56 19.17, 256.51 19.33, 256.46 19.5, 256.41 19.67, 256.35 19.83, 256.3 20.0, 256.25 20.17, 256.2 20.33, 256.15 20.5, 256.09 20.67, 256.04 20.83, 255.99 21.0, 255.94 21.17, 255.89 21.33, 255.83 21.5, 255.78 21.67, 255.73 21.83, 255.68 22.0, 255.62 22.17, 255.57 22.33, 255.52 22.5, 255.47 22.67, 255.42 22.83, 255.36 23.0, 255.31 23.17, 255.26 23.33, 255.21 23.5, 255.16 23.67, 255.1 23.83, 255.05 24.0, 255.0 24.17, 254.95 24.33, 254.9 24.5, 254.84 24.67, 254.79 24.83, 254.74 25.0, 254.69 25.17, 254.64 25.33, 254.58 25.5, 254.53 25.67, 254.48 25.83, 254.43 26.0, 254.38 26.17, 254.32 26.33, 254.27 26.5, 254.22 26.67, 254.17 26.83, 254.11 27.0, 254.06 27.17, 254.01 27.33, 253.96 27.5, 253.91 27.67, 253.85 27.83, 253.8 28.0, 253.75 28.17, 253.7 28.33, 253.65 28.5, 253.59 28.67, 253.54 28.83, 253.49 29.0, 253.44 29.17, 253.39 29.33, 253.33 29.5, 253.28 29.67, 253.23 29.83, 253.18 30.0, 253.12 30.17, 253.07 30.33, 253.02 30.5, 252.97 30.67, 252.92 30.83, 252.86 31.0, 252.81 31.17, 252.76 31.33, 252.71 31.5, 252.66 31.67, 252.6 31.83, 252.55 32.0, 252.5 32.17, 252.45 32.33, 252.4 32.5, 252.34 32.67, 252.29 32.83, 252.24 33.0, 252.19 33.17, 252.14 33.33, 252.08 33.5, 252.03 33.67, 251.98 33.83, 251.93 34.0, 251.88 34.17, 251.82 34.33, 251.77 34.5, 251.72 34.67, 251.67 34.83, 251.61 35.0, 251.56 35.17, 251.51 35.33, 251.46 35.5, 251.41 35.67, 251.35 35.83, 251.3 36.0, 251.25 36.17, 251.2 36.33, 251.15 36.5, 251.09 36.67, 251.04 36.83, 250.99 37.0, 250.94 37.17, 250.89 37.33, 250.83 37.5, 250.78 37.67, 250.73 37.83, 250.68 38.0, 250.62 38.17, 250.57 38.33, 250.52 38.5, 250.47 38.67, 250.42 38.83, 250.36 39.0, 250.31 39.17, 250.26 39.33, 250.21 39.5, 250.16 39.67, 250.1 39.83, 250.05 40.0, 250.0 40.17, 249.95 40.33, 249.9 40.5, 249.84 40.67, 249.79 40.83, 249.74 41.0, 249.69 41.17, 249.64 41.33, 249.58 41.5, 249.53 41.67, 249.48 41.83, 249.43 42.0, 249.38 42.17, 249.32 42.33, 249.27 42.5, 249.22 42.67, 249.17 42.83, 249.11 43.0, 249.06 43.17, 249.01 43.33, 248.96 43.5, 248.91 43.67, 248.85 43.83, 248.8 44.0, 248.75 44.17, 248.7 44.33, 248.65 44.5, 248.59 44.67, 248.54 44.83, 248.49 45.0, 248.44 45.17, 248.39 45.33, 248.33 45.5, 248.28 45.67, 248.23 45.83, 248.18 46.0, 248.12 46.17, 248.07 46.33, 248.02 46.5, 247.97 46.67, 247.92 46.83, 247.86 47.0, 247.81 47.17, 247.76 47.33, 247.71 47.5, 247.66 47.67, 247.6 47.83, 247.55 48.0, 247.5 48.17, 247.45 48.33, 247.4 48.5, 247.34 48.67, 247.29 48.83, 247.24 49.0, 247.19 49.17, 247.14 49.33, 247.08 49.5, 247.03 49.67, 246.98 49.83, 246.93 50.0, 246.88 50.17, 246.82 50.33, 246.77 50.5, 246.72 50.67, 246.67 50.83, 246.61 51.0, 246.56 51.17, 246.51 51.33, 246.46 51.5, 246.41 51.67, 246.35 51.83, 246.3 52.0, 246.25 52.17, 246.2 52.33, 246.15 52.5, 246.09 52.67, 246.04 52.83, 245.99 53.0, 245.94 53.17, 245.89 53.33, 245.83 53.5, 245.78 53.67, 245.73 53.83, 245.68 54.0, 245.62 54.17, 245.57 54.33, 245.52 54.5, 245.47 54.67, 245.42 54.83, 245.36 55.0, 245.31 55.17, 245.26 55.33, 245.21 55.5, 245.16 55.67, 245.1 55.83, 245.05 56.0, 245.0 56.17, 244.95 56.33, 244.9 56.5, 244.84 56.67, 244.79 56.83, 244.74 57.0, 244.69 57.17, 244.64 57.33, 244.58 57.5, 244.53 57.67, 244.48 57.83, 244.43 58.0, 244.38 58.17, 244.32 58.33, 244.27 58.5, 244.22 58.67, 244.17 58.83, 244.11 59.0, 244.06 59.17, 244.01 59.33, 243.96 59.5, 243.91 59.67, 243.85 59.83, 243.8 60.0, 243.75 60.17, 243.7 60.33, 243.65 60.5, 243.59 60.67, 243.54 60.83, 243.49 61.0, 243.44 61.17, 243.39 61.33, 243.33 61.5, 243.28 61.67, 243.23 61.83, 243.18 62.0, 243.12 62.17, 243.07 62.33, 243.02 62.5, 242.97 62.67, 242.92 62.83, 242.86 63.0, 242.81 63.17, 242.76 63.33, 242.71 63.5, 242.66 63.67, 242.6 63.83, 242.55 64.0, 242.5 64.17, 242.45 64.33, 242.4 64.5, 242.34 64.67, 242.29 64.83, 242.24 65.0, 242.19 65.17, 242.14 65.33, 242.08 65.5, 242.03 65.67, 241.98 65.83, 241.93 66.0, 241.88 66.17, 241.82 66.33, 241.77 66.5, 241.72 66.67, 241.67 66.83, 241.61 67.0, 241.56 67.17, 241.51 67.33, 241.46 67.5, 241.41 67.67, 241.35 67.83, 241.3 68.0, 241.25 68.17, 241.2 68.33, 241.15 68.5, 241.09 68.67, 241.04 68.83, 240.99 69.0, 240.94 69.17, 240.89 69.33, 240.83 69.5, 240.78 69.67, 240.73 69.83, 240.68 70.0, 240.62 70.17, 240.57 70.33, 240.52 70.5, 240.47 70.67, 240.42 70.83, 240.36 71.0, 240.31 71.17, 240.26 71.33, 240.21 71.5, 240.16 71.67, 240.1 71.83, 240.05 72.0, 240.0 72.17, 239.95 72.33, 239.9 72.5, 239.84 72.67, 239.79 72.83, 239.74 73.0, 239.69 73.17, 239.64 73.33, 239.58 73.5, 239.53 73.67, 239.48 73.83, 239.43 74.0, 239.38 74.17, 239.32 74.33, 239.27 74.5, 239.22 74.67, 239.17 74.83, 239.11 75.0, 239.06 75.17, 239.01 75.33, 238.96 75.5, 238.91 75.67, 238.85 75.83, 238.8 76.0, 238.75 76.17, 238.7 76.33, 238.65 76.5, 238.59 76.67, 238.54 76.83, 238.49 77.0, 238.44 77.17, 238.39 77.33, 238.33 77.5, 238.28 77.67, 238.23 77.83, 238.18 78.0, 238.12 78.17, 238.07 78.33, 238.02 78.5, 237.97 78.67, 237.92 78.83, 237.86 79.0, 237.81 79.17, 237.76 79.33, 237.71 79.5, 237.66 79.67, 237.6 79.83, 237.55 80.0, 237.5 80.17, 237.45 80.33, 237.4 80.5, 237.34 80.67, 237.29 80.83, 237.24 81.0, 237.19 81.17, 237.14 81.33, 237.08 81.5, 237.03 81.67, 236.98 81.83, 236.93 82.0, 236.88 82.17, 236.82 82.33, 236.77 82.5, 236.72 82.67, 236.67 82.83, 236.61 83.0, 236.56 83.17, 236.51 83.33, 236.46 83.5, 236.41 83.67, 236.35 83.83, 236.3 84.0, 236.25 84.17, 236.2 84.33, 236.15 84.5, 236.09 84.67, 236.04 84.83, 235.99 85.0, 235.94 85.17, 235.89 85.33, 235.83 85.5, 235.78 85.67, 235.73 85.83, 235.68 86.0, 235.62 86.17, 235.57 86.33, 235.52 86.5, 235.47 86.67, 235.42 86.83, 235.36 87.0, 235.31 87.17, 235.26 87.33, 235.21 87.5, 235.16 87.67, 235.1 87.83, 235.05 88.0, 235.0 88.17, 234.95 88.33, 234.9 88.5, 234.84 88.67, 234.79 88.83, 234.74 89.0, 234.69 89.17, 234.64 89.33, 234.58 89.5, 234.53 89.67, 234.48 89.83, 234.43 90.0, 234.38 90.17, 234.32 90.33, 234.27 90.5, 234.22 90.67, 234.17 90.83, 234.11 91.0, 234.06 91.17, 234.01 91.33, 233.96 91.5, 233.91 91.67, 233.85 91.83, 233.8 92.0, 233.75 92.17, 233.7 92.33, 233.65 92.5, 233.59 92.67, 233.54 92.83, 233.49 93.0, 233.44 93.17, 233.39 93.33, 233.33 93.5, 233.28 93.67, 233.23 93.83, 233.18 94.0, 233.12 94.17, 233.07 94.33, 233.02 94.5, 232.97 94.67, 232.92 94.83, 232.86 95.0, 232.81 95.17, 232.76 95.33, 232.71 95.5, 232.66 95.67, 232.6 95.83, 232.55 96.0, 232.5 96.17, 232.45 96.33, 232.4 96.5, 232.34 96.67, 232.29 96.83, 232.24 97.0, 232.19 97.17, 232.14 97.33, 232.08 97.5, 232.03 97.67, 231.98 97.83, 231.93 98.0, 231.88 98.17, 231.82 98.33, 231.77 98.5, 231.72 98.67, 231.67 98.83, 231.61 99.0, 231.56 99.17, 231.51 99.33, 231.46 99.5, 231.41 99.67, 231.35 99.83, 231.3 100.0, 231.25 100.17, 231.2 100.33, 231.15 100.5, 231.09 100.67, 231.04 100.83, 230.99 101.0, 230.94 101.17, 230.89 101.33, 230.83 101.5, 230.78 101.67, 230.73 101.83, 230.68 102.0, 230.62 102.17, 230.57 102.33, 230.52 102.5, 230.47 102.67, 230.42 102.83, 230.36 103.0, 230.31 103.17, 230.26 103.33, 230.21 103.5, 230.16 103.67, 230.1 103.83, 230.05 104.0, 230.0 104.17, 229.95 104.33, 229.9 104.5, 229.84 104.67, 229.79 104.83, 229.74 105.0, 229.69 105.17, 229.64 105.33, 229.58 105.5, 229.53 105.67, 229.48 105.83, 229.43 106.0, 229.38 106.17, 229.32 106.33, 229.27 106.5, 229.22 106.67, 229.17 106.83, 229.11 107.0, 229.06 107.17, 229.01 107.33, 228.96 107.5, 228.91 107.67, 228.85 107.83, 228.8 108.0, 228.75 108.17, 228.7 108.33, 228.65 108.5, 228.59 108.67, 228.54 108.83, 228.49 109.0, 228.44 109.17, 228.39 109.33, 228.33 109.5, 228.28 109.67, 228.23 109.83, 228.18 110.0, 228.12 110.17, 228.07 110.33, 228.02 110.5, 227.97 110.67, 227.92 110.83, 227.86 111.0, 227.81 111.17, 227.76 111.33, 227.71 111.5, 227.66 111.67, 227.6 111.83, 227.55 112.0, 227.5 112.17, 227.45 112.33, 227.4 112.5, 227.34 112.67, 227.29 112.83, 227.24 113.0, 227.19 113.17, 227.14 113.33, 227.08 113.5, 227.03 113.67, 226.98 113.83, 226.93 114.0, 226.88 114.17, 226.82 114.33, 226.77 114.5, 226.72 114.67, 226.67 114.83, 226.61 115.0, 226.56 115.17, 226.51 115.33, 226.46 115.5, 226.41 115.67, 226.35 115.83, 226.3 116.0, 226.25 116.17, 226.2 116.33, 226.15 116.5, 226.09 116.67, 226.04 116.83, 225.99 117.0, 225.94 117.17, 225.89 117.33, 225.83 117.5, 225.78 117.67, 225.73 117.83, 225.68 118.0, 225.62 118.17, 225.57 118.33, 225.52 118.5, 225.47 118.67, 225.42 118.83, 225.36 119.0, 225.31 119.17, 225.26 119.33, 225.21 119.5, 225.16 119.67, 225.1 119.83, 225.05 120.0, 225.0 120.17, 224.95 120.33, 224.9 120.5, 224.84 120.67, 224.79 120.83, 224.74 121.0, 224.69 121.17, 224.64 121.33, 224.58 121.5, 224.53 121.67, 224.48 121.83, 224.43 122.0, 224.38 122.17, 224.32 122.33, 224.27 122.5, 224.22 122.67, 224.17 122.83, 224.11 123.0, 224.06 123.17, 224.01 123.33, 223.96 123.5, 223.91 123.67, 223.85 123.83, 223.8 124.0, 223.75 124.17, 223.7 124.33, 223.65 124.5, 223.59 124.67, 223.54 124.83, 223.49 125.0, 223.44 125.17, 223.39 125.33, 223.33 125.5, 223.28 125.67, 223.23 125.83, 223.18 126.0, 223.12 126.17, 223.07 126.33, 223.02 126.5, 222.97 126.67, 222.92 126.83, 222.86 127.0, 222.81 127.17, 222.76 127.33, 222.71 127.5, 222.66 127.67, 222.6 127.83, 222.55 128.0, 222.5 128.17, 222.45 128.33, 222.4 128.5, 222.34 128.67, 222.29 128.83, 222.24 129.0, 222.19 129.17, 222.14 129.33, 222.08 129.5, 222.03 129.67, 221.98 129.83, 221.93 130.0, 221.88 130.17, 221.82 130.33, 221.77 130.5, 221.72 130.67, 221.67 130.83, 221.61 131.0, 221.56 131.17, 221.51 131.33, 221.46 131.5, 221.41 131.67, 221.35 131.83, 221.3 132.0, 221.25 132.17, 221.2 132.33, 221.15 132.5, 221.09 132.67, 221.04 132.83, 220.99 133.0, 220.94 133.17, 220.89 133.33, 220.83 133.5, 220.78 133.67, 220.73 133.83, 220.68 134.0, 220.62 134.17, 220.57 134.33, 220.52 134.5, 220.47 134.67, 220.42 134.83, 220.36 135.0, 220.31 135.17, 220.26 135.33, 220.21 135.5, 220.16 135.67, 220.1 135.83, 220.05 136.0, 220.0 136.17, 219.95 136.33, 219.9 136.5, 219.84 136.67, 219.79 136.83, 219.74 137.0, 219.69 137.17, 219.64 137.33, 219.58 137.5, 219.53 137.67, 219.48 137.83, 219.43 138.0, 219.38 138.17, 219.32 138.33, 219.27 138.5, 219.22 138.67, 219.17 138.83, 219.11 139.0, 219.06 139.17, 219.01 139.33, 218.96 139.5, 218.91 139.67, 218.85 139.83, 218.8 140.0, 218.75 140.17, 218.7 140.33, 218.65 140.5, 218.59 140.67, 218.54 140.83, 218.49 141.0, 218.44 141.17, 218.39 141.33, 218.33 141.5, 218.28 141.67, 218.23 141.83, 218.18 142.0, 218.12 142.17, 218.07 142.33, 218.02 142.5, 217.97 142.67, 217.92 142.83, 217.86 143.0, 217.81 143.17, 217.76 143.33, 217.71 143.5, 217.66 143.67, 217.6 143.83, 217.55 144.0, 217.5 144.17, 217.45 144.33, 217.4 144.5, 217.34 144.67, 217.29 144.83, 217.24 145.0, 217.19 145.17, 217.14 145.33, 217.08 145.5, 217.03 145.67, 216.98 145.83, 216.93 146.0, 216.88 146.17, 216.82 146.33, 216.77 146.5, 216.72 146.67, 216.67 146.83, 216.61 147.0, 216.56 147.17, 216.51 147.33, 216.46 147.5, 216.41 147.67, 216.35 147.83, 216.3 148.0, 216.25 148.17, 216.2 148.33, 216.15 148.5, 216.09 148.67, 216.04 148.83, 215.99 149.0, 215.94 149.17, 215.89 149.33, 215.83 149.5, 215.78 149.67, 215.73 149.83, 215.68 150.0, 215.62 150.17, 215.57 150.33, 215.52 150.5, 215.47 150.67, 215.42 150.83, 215.36 151.0, 215.31 151.17, 215.26 151.33, 215.21 151.5, 215.16 151.67, 215.1 151.83, 215.05 152.0, 215.0 152.17, 214.95 152.33, 214.9 152.5, 214.84 152.67, 214.79 152.83, 214.74 153.0, 214.69 153.17, 214.64 153.33, 214.58 153.5, 214.53 153.67, 214.48 153.83, 214.43 154.0, 214.38 154.17, 214.32 154.33, 214.27 154.5, 214.22 154.67, 214.17 154.83, 214.11 155.0, 214.06 155.17, 214.01 155.33, 213.96 155.5, 213.91 155.67, 213.85 155.83, 213.8 156.0, 213.75 156.17, 213.7 156.33, 213.65 156.5, 213.59 156.67, 213.54 156.83, 213.49 157.0, 213.44 157.17, 213.39 157.33, 213.33 157.5, 213.28 157.67, 213.23 157.83, 213.18 158.0, 213.12 158.17, 213.07 158.33, 213.02 158.5, 212.97 158.67, 212.92 158.83, 212.86 159.0, 212.81 159.17, 212.76 159.33, 212.71 159.5, 212.66 159.67, 212.6 159.83, 212.55 160.0, 212.5 160.17, 212.45 160.33, 212.4 160.5, 212.34 160.67, 212.29 160.83, 212.24 161.0, 212.19 161.17, 212.14 161.33, 212.08 161.5, 212.03 161.67, 211.98 161.83, 211.93 162.0, 211.88 162.17, 211.82 162.33, 211.77 162.5, 211.72 162.67, 211.67 162.83, 211.61 163.0, 211.56 163.17, 211.51 163.33, 211.46 163.5, 211.41 163.67, 211.35 163.83, 211.3 164.0, 211.25 164.17, 211.2 164.33, 211.15 164.5, 211.09 164.67, 211.04 164.83, 210.99 165.0, 210.94 165.17, 210.89 165.33, 210.83 165.5, 210.78 165.67, 210.73 165.83, 210.68 166.0, 210.62 166.17, 210.57 166.33, 210.52 166.5, 210.47 166.67, 210.42 166.83, 210.36 167.0, 210.31 167.17, 210.26 167.33, 210.21 167.5, 210.16 167.67, 210.1 167.83, 210.05 168.0, 210.0 168.17, 209.95 168.33, 209.9 168.5, 209.84 168.67, 209.79 168.83, 209.74 169.0, 209.69 169.17, 209.64 169.33, 209.58 169.5, 209.53 169.67, 209.48 169.83, 209.43 170.0, 209.38 170.17, 209.32 170.33, 209.27 170.5, 209.22 170.67, 209.17 170.83, 209.11 171.0, 209.06 171.17, 209.01 171.33, 208.96 171.5, 208.91 171.67, 208.85 171.83, 208.8 172.0, 208.75 172.17, 208.7 172.33, 208.65 172.5, 208.59 172.67, 208.54 172.83, 208.49 173.0, 208.44 173.17, 208.39 173.33, 208.33 173.5, 208.28 173.67, 208.23 173.83, 208.18 174.0, 208.12 174.17, 208.07 174.33, 208.02 174.5, 207.97 174.67, 207.92 174.83, 207.86 175.0, 207.81 175.17, 207.76 175.33, 207.71 175.5, 207.66 175.67, 207.6 175.83, 207.55 176.0, 207.5 176.17, 207.45 176.33, 207.4 176.5, 207.34 176.67, 207.29 176.83, 207.24 177.0, 207.19 177.17, 207.14 177.33, 207.08 177.5, 207.03 177.67, 206.98 177.83, 206.93 178.0, 206.88 178.17, 206.82 178.33, 206.77 178.5, 206.72 178.67, 206.67 178.83, 206.61 179.0, 206.56 179.17, 206.51 179.33, 206.46 179.5, 206.41 179.67, 206.35 179.83, 206.3 180.0, 206.25 180.17, 206.2 180.33, 206.15 180.5, 206.09 180.67, 206.04 180.83, 205.99 181.0, 205.94 181.17, 205.89 181.33, 205.83 181.5, 205.78 181.67, 205.73 181.83, 205.68 182.0, 205.62 182.17, 205.57 182.33, 205.52 182.5, 205.47 182.67, 205.42 182.83, 205.36 183.0, 205.31 183.17, 205.26 183.33, 205.21 183.5, 205.16 183.67, 205.1 183.83, 205.05 184.0, 205.0 184.17, 204.95 184.33, 204.9 184.5, 204.84 184.67, 204.79 184.83, 204.74 185.0, 204.69 185.17, 204.64 185.33, 204.58 185.5, 204.53 185.67, 204.48 185.83, 204.43 186.0, 204.38 186.17, 204.32 186.33, 204.27 186.5, 204.22 186.67, 204.17 186.83, 204.11 187.0, 204.06 187.17, 204.01 187.33, 203.96 187.5, 203.91 187.67, 203.85 187.83, 203.8 188.0, 203.75 188.17, 203.7 188.33, 203.65 188.5, 203.59 188.67, 203.54 188.83, 203.49 189.0, 203.44 189.17, 203.39 189.33, 203.33 189.5, 203.28 189.67, 203.23 189.83, 203.18 190.0, 203.12 190.17, 203.07 190.33, 203.02 190.5, 202.97 190.67, 202.92 190.83, 202.86 191.0, 202.81 191.17, 202.76 191.33, 202.71 191.5, 202.66 191.67, 202.6 191.83, 202.55 192.0, 202.5 192.17, 202.45 192.33, 202.4 192.5, 202.34 192.67, 202.29 192.83, 202.24 193.0, 202.19 193.17, 202.14 193.33, 202.08 193.5, 202.03 193.67, 201.98 193.83, 201.93 194.0, 201.88 194.17, 201.82 194.33, 201.77 194.5, 201.72 194.67, 201.67 194.83, 201.61 195.0, 201.56 195.17, 201.51 195.33, 201.46 195.5, 201.41 195.67, 201.35 195.83, 201.3 196.0, 201.25 196.17, 201.2 196.33, 201.15 196.5, 201.09 196.67, 201.04 196.83, 200.99 197.0, 200.94 197.17, 200.89 197.33, 200.83 197.5, 200.78 197.67, 200.73 197.83, 200.68 198.0, 200.62 198.17, 200.57 198.33, 200.52 198.5, 200.47 198.67, 200.42 198.83, 200.36 199.0, 200.31 199.17, 200.26 199.33, 200.21 199.5, 200.16 199.67, 200.1 199.83, 200.05 200.0, 200.0 200.17, 199.95 200.33, 199.9 200.5, 199.84 200.67, 199.79 200.83, 199.74 201.0, 199.69 201.17, 199.64 201.33, 199.58 201.5, 199.53 201.67, 199.48 201.83, 199.43 202.0, 199.38 202.17, 199.32 202.33, 199.27 202.5, 199.22 202.67, 199.17 202.83, 199.11 203.0, 199.06 203.17, 199.01 203.33, 198.96 203.5, 198.91 203.67, 198.85 203.83, 198.8 204.0, 198.75 204.17, 198.7 204.33, 198.65 204.5, 198.59 204.67, 198.54 204.83, 198.49 205.0, 198.44 205.17, 198.39 205.33, 198.33 205.5, 198.28 205.67, 198.23 205.83, 198.18 206.0, 198.12 206.17, 198.07 206.33, 198.02 206.5, 197.97 206.67, 197.92 206.83, 197.86 207.0, 197.81 207.17, 197.76 207.33, 197.71 207.5, 197.66 207.67, 197.6 207.83, 197.55 208.0, 197.5 208.17, 197.45 208.33, 197.4 208.5, 197.34 208.67, 197.29 208.83, 197.24 209.0, 197.19 209.17, 197.14 209.33, 197.08 209.5, 197.03 209.67, 196.98 209.83, 196.93 210.0, 196.88 210.17, 196.82 210.33, 196.77 210.5, 196.72 210.67, 196.67 210.83, 196.61 211.0, 196.56 211.17, 196.51 211.33, 196.46 211.5, 196.41 211.67, 196.35 211.83, 196.3 212.0, 196.25 212.17, 196.2 212.33, 196.15 212.5, 196.09 212.67, 196.04 212.83, 195.99 213.0, 195.94 213.17, 195.89 213.33, 195.83 213.5, 195.78 213.67, 195.73 213.83, 195.68 214.0, 195.62 214.17, 195.57 214.33, 195.52 214.5, 195.47 214.67, 195.42 214.83, 195.36 215.0, 195.31 215.17, 195.26 215.33, 195.21 215.5, 195.16 215.67, 195.1 215.83, 195.05 216.0, 195.0 216.17, 194.95 216.33, 194.9 216.5, 194.84 216.67, 194.79 216.83, 194.74 217.0, 194.69 217.17, 194.64 217.33, 194.58 217.5, 194.53 217.67, 194.48 217.83, 194.43 218.0, 194.38 218.17, 194.32 218.33, 194.27 218.5, 194.22 218.67, 194.17 218.83, 194.11 219.0, 194.06 219.17, 194.01 219.33, 193.96 219.5, 193.91 219.67, 193.85 219.83, 193.8 220.0, 193.75 220.17, 193.7 220.33, 193.65 220.5, 193.59 220.67, 193.54 220.83, 193.49 221.0, 193.44 221.17, 193.39 221.33, 193.33 221.5, 193.28 221.67, 193.23 221.83, 193.18 222.0, 193.12 222.17, 193.07 222.33, 193.02 222.5, 192.97 222.67, 192.92 222.83, 192.86 223.0, 192.81 223.17, 192.76 223.33, 192.71 223.5, 192.66 223.67, 192.6 223.83, 192.55 224.0, 192.5 224.17, 192.45 224.33, 192.4 224.5, 192.34 224.67, 192.29 224.83, 192.24 225.0, 192.19 225.17, 192.14 225.33, 192.08 225.5, 192.03 225.67, 191.98 225.83, 191.93 226.0, 191.88 226.17, 191.82 226.33, 191.77 226.5, 191.72 226.67, 191.67 226.83, 191.61 227.0, 191.56 227.17, 191.51 227.33, 191.46 227.5, 191.41 227.67, 191.35 227.83, 191.3 228.0, 191.25 228.17, 191.2 228.33, 191.15 228.5, 191.09 228.67, 191.04 228.83, 190.99 229.0, 190.94 229.17, 190.89 229.33, 190.83 229.5, 190.78 229.67, 190.73 229.83, 190.68 230.0, 190.62 230.17, 190.57 230.33, 190.52 230.5, 190.47 230.67, 190.42 230.83, 190.36 231.0, 190.31 231.17, 190.26 231.33, 190.21 231.5, 190.16 231.67, 190.1 231.83, 190.05 232.0, 190.0 232.17, 189.95 232.33, 189.9 232.5, 189.84 232.67, 189.79 232.83, 189.74 233.0, 189.69 233.17, 189.64 233.33, 189.58 233.5, 189.53 233.67, 189.48 233.83, 189.43 234.0, 189.38 234.17, 189.32 234.33, 189.27 234.5, 189.22 234.67, 189.17 234.83, 189.11 235.0, 189.06 235.17, 189.01 235.33, 188.96 235.5, 188.91 235.67, 188.85 235.83, 188.8 236.0, 188.75 236.17, 188.7 236.33, 188.65 236.5, 188.59 236.67, 188.54 236.83, 188.49 237.0, 188.44 237.17, 188.39 237.33, 188.33 237.5, 188.28 237.67, 188.23 237.83, 188.18 238.0, 188.12 238.17, 188.07 238.33, 188.02 238.5, 187.97 238.67, 187.92 238.83, 187.86 239.0, 187.81 239.17, 187.76 239.33, 187.71 239.5, 187.66 239.67, 187.6 239.83, 187.55 240.0, 187.5 240.17, 187.45 240.33, 187.4 240.5, 187.34 240.67, 187.29 240.83, 187.24 241.0, 187.19 241.17, 187.14 241.33, 187.08 241.5, 187.03 241.67, 186.98 241.83, 186.93 242.0, 186.88 242.17, 186.82 242.33, 186.77 242.5, 186.72 242.67, 186.67 242.83, 186.61 243.0, 186.56 243.17, 186.51 243.33, 186.46 243.5, 186.41 243.67, 186.35 243.83, 186.3 244.0, 186.25 244.17, 186.2 244.33, 186.15 244.5, 186.09 244.67, 186.04 244.83, 185.99 245.0, 185.94 245.17, 185.89 245.33, 185.83 245.5, 185.78 245.67, 185.73 245.83, 185.68 246.0, 185.62 246.17, 185.57 246.33, 185.52 246.5, 185.47 246.67, 185.42 246.83, 185.36 247.0, 185.31 247.17, 185.26 247.33, 185.21 247.5, 185.16 247.67, 185.1 247.83, 185.05 248.0, 185.0 248.17, 184.95 248.33, 184.9 248.5, 184.84 248.67, 184.79 248.83, 184.74 249.0, 184.69 249.17, 184.64 249.33, 184.58 249.5, 184.53 249.67, 184.48 249.83, 184.43 250.0, 184.38 250.17, 184.32 250.33, 184.27 250.5, 184.22 250.67, 184.17 250.83, 184.11 251.0, 184.06 251.17, 184.01 251.33, 183.96 251.5, 183.91 251.67, 183.85 251.83, 183.8 252.0, 183.75 252.17, 183.7 252.33, 183.65 252.5, 183.59 252.67, 183.54 252.83, 183.49 253.0, 183.44 253.17, 183.39 253.33, 183.33 253.5, 183.28 253.67, 183.23 253.83, 183.18 254.0, 183.12 254.17, 183.07 254.33, 183.02 254.5, 182.97 254.67, 182.92 254.83, 182.86 255.0, 182.81 255.17, 182.76 255.33, 182.71 255.5, 182.66 255.67, 182.6 255.83, 182.55 256.0, 182.5 256.17, 182.45 256.33, 182.4 256.5, 182.34 256.67, 182.29 256.83, 182.24 257.0, 182.19 257.17, 182.14 257.33, 182.08 257.5, 182.03 257.67, 181.98 257.83, 181.93 258.0, 181.88 258.17, 181.82 258.33, 181.77 258.5, 181.72 258.67, 181.67 258.83, 181.61 259.0, 181.56 259.17, 181.51 259.33, 181.46 259.5, 181.41 259.67, 181.35 259.83, 181.3 260.0, 181.25 260.17, 181.2 260.33, 181.15 260.5, 181.09 260.67, 181.04 260.83, 180.99 261.0, 180.94 261.17, 180.89 261.33, 180.83 261.5, 180.78 261.67, 180.73 261.83, 180.68 262.0, 180.62 262.17, 180.57 262.33, 180.52 262.5, 180.47 262.67, 180.42 262.83, 180.36 263.0, 180.31 263.17, 180.26 263.33, 180.21 263.5, 180.16 263.67, 180.1 263.83, 180.05 264.0, 180.0 264.17, 179.95 264.33, 179.9 264.5, 179.84 264.67, 179.79 264.83, 179.74 265.0, 179.69 265.17, 179.64 265.33, 179.58 265.5, 179.53 265.67, 179.48 265.83, 179.43 266.0, 179.38 266.17, 179.32 266.33, 179.27 266.5, 179.22 266.67, 179.17 266.83, 179.11 267.0, 179.06 267.17, 179.01 267.33, 178.96 267.5, 178.91 267.67, 178.85 267.83, 178.8 268.0, 178.75 268.17, 178.7 268.33, 178.65 268.5, 178.59 268.67, 178.54 268.83, 178.49 269.0, 178.44 269.17, 178.39 269.33, 178.33 269.5, 178.28 269.67, 178.23 269.83, 178.18 270.0, 178.12 270.17, 178.07 270.33, 178.02 270.5, 177.97 270.67, 177.92 270.83, 177.86 271.0, 177.81 271.17, 177.76 271.33, 177.71 271.5, 177.66 271.67, 177.6 271.83, 177.55 272.0, 177.5 272.17, 177.45 272.33, 177.4 272.5, 177.34 272.67, 177.29 272.83, 177.24 273.0, 177.19 273.17, 177.14 273.33, 177.08 273.5, 177.03 273.67, 176.98 273.83, 176.93 274.0, 176.88 274.17, 176.82 274.33, 176.77 274.5, 176.72 274.67, 176.67 274.83, 176.61 275.0, 176.56 275.17, 176.51 275.33, 176.46 275.5, 176.41 275.67, 176.35 275.83, 176.3 276.0, 176.25 276.17, 176.2 276.33, 176.15 276.5, 176.09 276.67, 176.04 276.83, 175.99 277.0, 175.94 277.17, 175.89 277.33, 175.83 277.5, 175.78 277.67, 175.73 277.83, 175.68 278.0, 175.62 278.17, 175.57 278.33, 175.52 278.5, 175.47 278.67, 175.42 278.83, 175.36 279.0, 175.31 279.17, 175.26 279.33, 175.21 279.5, 175.16 279.67, 175.1 279.83, 175.05 280.0, 175.0 280.17, 174.95 280.33, 174.9 280.5, 174.84 280.67, 174.79 280.83, 174.74 281.0, 174.69 281.17, 174.64 281.33, 174.58 281.5, 174.53 281.67, 174.48 281.83, 174.43 282.0, 174.38 282.17, 174.32 282.33, 174.27 282.5, 174.22 282.67, 174.17 282.83, 174.11 283.0, 174.06 283.17, 174.01 283.33, 173.96 283.5, 173.91 283.67, 173.85 283.83, 173.8 284.0, 173.75 284.17, 173.7 284.33, 173.65 284.5, 173.59 284.67, 173.54 284.83, 173.49 285.0, 173.44 285.17, 173.39 285.33, 173.33 285.5, 173.28 285.67, 173.23 285.83, 173.18 286.0, 173.12 286.17, 173.07 286.33, 173.02 286.5, 172.97 286.67, 172.92 286.83, 172.86 287.0, 172.81 287.17, 172.76 287.33, 172.71 287.5, 172.66 287.67, 172.6 287.83, 172.55 288.0, 172.5 288.17, 172.45 288.33, 172.4 288.5, 172.34 288.67, 172.29 288.83, 172.24 289.0, 172.19 289.17, 172.14 289.33, 172.08 289.5, 172.03 289.67, 171.98 289.83, 171.93 290.0, 171.88 290.17, 171.82 290.33, 171.77 290.5, 171.72 290.67, 171.67 290.83, 171.61 291.0, 171.56 291.17, 171.51 291.33, 171.46 291.5, 171.41 291.67, 171.35 291.83, 171.3 292.0, 171.25 292.17, 171.2 292.33, 171.15 292.5, 171.09 292.67, 171.04 292.83, 170.99 293.0, 170.94 293.17, 170.89 293.33, 170.83 293.5, 170.78 293.67, 170.73 293.83, 170.68 294.0, 170.62 294.17, 170.57 294.33, 170.52 294.5, 170.47 294.67, 170.42 294.83, 170.36 295.0, 170.31 295.17, 170.26 295.33, 170.21 295.5, 170.16 295.67, 170.1 295.83, 170.05 296.0, 170.0 296.17, 169.95 296.33, 169.9 296.5, 169.84 296.67, 169.79 296.83, 169.74 297.0, 169.69 297.17, 169.64 297.33, 169.58 297.5, 169.53 297.67, 169.48 297.83, 169.43 298.0, 169.38 298.17, 169.32 298.33, 169.27 298.5, 169.22 298.67, 169.17 298.83, 169.11 299.0, 169.06 299.17, 169.01 299.33, 168.96 299.5, 168.91 299.67, 168.85 299.83, 168.8 300.0, 168.75 300.17, 168.7 300.33, 168.65 300.5, 168.59 300.67, 168.54 300.83, 168.49 301.0, 168.44 301.17, 168.39 301.33, 168.33 301.5, 168.28 301.67, 168.23 301.83, 168.18 302.0, 168.12 302.17, 168.07 302.33, 168.02 302.5, 167.97 302.67, 167.92 302.83, 167.86 303.0, 167.81 303.17, 167.76 303.33, 167.71 303.5, 167.66 303.67, 167.6 303.83, 167.55 304.0, 167.5 304.17, 167.45 304.33, 167.4 304.5, 167.34 304.67, 167.29 304.83, 167.24 305.0, 167.19 305.17, 167.14 305.33, 167.08 305.5, 167.03 305.67, 166.98 305.83, 166.93 306.0, 166.88 306.17, 166.82 306.33, 166.77 306.5, 166.72 306.67, 166.67 306.83, 166.61 307.0, 166.56 307.17, 166.51 307.33, 166.46 307.5, 166.41 307.67, 166.35 307.83, 166.3 308.0, 166.25 308.17, 166.2 308.33, 166.15 308.5, 166.09 308.67, 166.04 308.83, 165.99 309.0, 165.94 309.17, 165.89 309.33, 165.83 309.5, 165.78 309.67, 165.73 309.83, 165.68 310.0, 165.62 310.17, 165.57 310.33, 165.52 310.5, 165.47 310.67, 165.42 310.83, 165.36 311.0, 165.31 311.17, 165.26 311.33, 165.21 311.5, 165.16 311.67, 165.1 311.83, 165.05 312.0, 165.0 312.17, 164.95 312.33, 164.9 312.5, 164.84 312.67, 164.79 312.83, 164.74 313.0, 164.69 313.17, 164.64 313.33, 164.58 313.5, 164.53 313.67, 164.48 313.83, 164.43 314.0, 164.38 314.17, 164.32 314.33, 164.27 314.5, 164.22 314.67, 164.17 314.83, 164.11 315.0, 164.06 315.17, 164.01 315.33, 163.96 315.5, 163.91 315.67, 163.85 315.83, 163.8 316.0, 163.75 316.17, 163.7 316.33, 163.65 316.5, 163.59 316.67, 163.54 316.83, 163.49 317.0, 163.44 317.17, 163.39 317.33, 163.33 317.5, 163.28 317.67, 163.23 317.83, 163.18 318.0, 163.12 318.17, 163.07 318.33, 163.02 318.5, 162.97 318.67, 162.92 318.83, 162.86 319.0, 162.81 319.17, 162.76 319.33, 162.71 319.5, 162.66 319.67, 162.6 319.83, 162.55 320.0, 162.5 320.17, 162.45 320.33, 162.4 320.5, 162.34 320.67, 162.29 320.83, 162.24 321.0, 162.19 321.17, 162.14 321.33, 162.08 321.5, 162.03 321.67, 161.98 321.83, 161.93 322.0, 161.88 322.17, 161.82 322.33, 161.77 322.5, 161.72 322.67, 161.67 322.83, 161.61 323.0, 161.56 323.17, 161.51 323.33, 161.46 323.5, 161.41 323.67, 161.35 323.83, 161.3 324.0, 161.25 324.17, 161.2 324.33, 161.15 324.5, 161.09 324.67, 161.04 324.83, 160.99 325.0, 160.94 325.17, 160.89 325.33, 160.83 325.5, 160.78 325.67, 160.73 325.83, 160.68 326.0, 160.62 326.17, 160.57 326.33, 160.52 326.5, 160.47 326.67, 160.42 326.83, 160.36 327.0, 160.31 327.17, 160.26 327.33, 160.21 327.5, 160.16 327.67, 160.1 327.83, 160.05 328.0, 160.0 328.17, 159.95 328.33, 159.9 328.5, 159.84 328.67, 159.79 328.83, 159.74 329.0, 159.69 329.17, 159.64 329.33, 159.58 329.5, 159.53 329.67, 159.48 329.83, 159.43 330.0, 159.38 330.17, 159.32 330.33, 159.27 330.5, 159.22 330.67, 159.17 330.83, 159.11 331.0, 159.06 331.17, 159.01 331.33, 158.96 331.5, 158.91 331.67, 158.85 331.83, 158.8 332.0, 158.75 332.17, 158.7 332.33, 158.65 332.5, 158.59 332.67, 158.54 332.83, 158.49 333.0, 158.44 333.17, 158.39 333.33, 158.33 333.5, 158.28 333.67, 158.23 333.83, 158.18 334.0, 158.12 334.17, 158.07 334.33, 158.02 334.5, 157.97 334.67, 157.92 334.83, 157.86 335.0, 157.81 335.17, 157.76 335.33, 157.71 335.5, 157.66 335.67, 157.6 335.83, 157.55 336.0, 157.5 336.17, 157.45 336.33, 157.4 336.5, 157.34 336.67, 157.29 336.83, 157.24 337.0, 157.19 337.17, 157.14 337.33, 157.08 337.5, 157.03 337.67, 156.98 337.83, 156.93 338.0, 156.88 338.17, 156.82 338.33, 156.77 338.5, 156.72 338.67, 156.67 338.83, 156.61 339.0, 156.56 339.17, 156.51 339.33, 156.46 339.5, 156.41 339.67, 156.35 339.83, 156.3 340.0, 156.25 340.17, 156.2 340.33, 156.15 340.5, 156.09 340.67, 156.04 340.83, 155.99 341.0, 155.94 341.17, 155.89 341.33, 155.83 341.5, 155.78 341.67, 155.73 341.83, 155.68 342.0, 155.62 342.17, 155.57 342.33, 155.52 342.5, 155.47 342.67, 155.42 342.83, 155.36 343.0, 155.31 343.17, 155.26 343.33, 155.21 343.5, 155.16 343.67, 155.1 343.83, 155.05 344.0, 155.0 344.17, 154.95 344.33, 154.9 344.5, 154.84 344.67, 154.79 344.83, 154.74 345.0, 154.69 345.17, 154.64 345.33, 154.58 345.5, 154.53 345.67, 154.48 345.83, 154.43 346.0, 154.38 346.17, 154.32 346.33, 154.27 346.5, 154.22 346.67, 154.17 346.83, 154.11 347.0, 154.06 347.17, 154.01 347.33, 153.96 347.5, 153.91 347.67, 153.85 347.83, 153.8 348.0, 153.75 348.17, 153.7 348.33, 153.65 348.5, 153.59 348.67, 153.54 348.83, 153.49 349.0, 153.44 349.17, 153.39 349.33, 153.33 349.5, 153.28 349.67, 153.23 349.83, 153.18 350.0, 153.12 350.17, 153.07 350.33, 153.02 350.5, 152.97 350.67, 152.92 350.83, 152.86 351.0, 152.81 351.17, 152.76 351.33, 152.71 351.5, 152.66 351.67, 152.6 351.83, 152.55 352.0, 152.5 352.17, 152.45 352.33, 152.4 352.5, 152.34 352.67, 152.29 352.83, 152.24 353.0, 152.19 353.17, 152.14 353.33, 152.08 353.5, 152.03 353.67, 151.98 353.83, 151.93 354.0, 151.88 354.17, 151.82 354.33, 151.77 354.5, 151.72 354.67, 151.67 354.83, 151.61 355.0, 151.56 355.17, 151.51 355.33, 151.46 355.5, 151.41 355.67, 151.35 355.83, 151.3 356.0, 151.25 356.17, 151.2 356.33, 151.15 356.5, 151.09 356.67, 151.04 356.83, 150.99 357.0, 150.94 357.17, 150.89 357.33, 150.83 357.5, 150.78 357.67, 150.73 357.83, 150.68 358.0, 150.62 358.17, 150.57 358.33, 150.52 358.5, 150.47 358.67, 150.42 358.83, 150.36 359.0, 150.31 359.17, 150.26 359.33, 150.21 359.5, 150.16 359.67, 150.1 359.83, 150.05 360.0, 150.0 360.17, 149.95 360.33, 149.9 360.5, 149.84 360.67, 149.79 360.83, 149.74 361.0, 149.69 361.17, 149.64 361.33, 149.58 361.5, 149.53 361.67, 149.48 361.83, 149.43 362.0, 149.38 362.17, 149.32 362.33, 149.27 362.5, 149.22 362.67, 149.17 362.83, 149.11 363.0, 149.06 363.17, 149.01 363.33, 148.96 363.5, 148.91 363.67, 148.85 363.83, 148.8 364.0, 148.75 364.17, 148.7 364.33, 148.65 364.5, 148.59 364.67, 148.54 364.83, 148.49 365.0, 148.44 365.17, 148.39 365.33, 148.33 365.5, 148.28 365.67, 148.23 365.83, 148.18 366.0, 148.12 366.17, 148.07 366.33, 148.02 366.5, 147.97 366.67, 147.92 366.83, 147.86 367.0, 147.81 367.17, 147.76 367.33, 147.71 367.5, 147.66 367.67, 147.6 367.83, 147.55 368.0, 147.5 368.17, 147.45 368.33, 147.4 368.5, 147.34 368.67, 147.29 368.83, 147.24 369.0, 147.19 369.17, 147.14 369.33, 147.08 369.5, 147.03 369.67, 146.98 369.83, 146.93 370.0, 146.88 370.17, 146.82 370.33, 146.77 370.5, 146.72 370.67, 146.67 370.83, 146.61 371.0, 146.56 371.17, 146.51 371.33, 146.46 371.5, 146.41 371.67, 146.35 371.83, 146.3 372.0, 146.25 372.17, 146.2 372.33, 146.15 372.5, 146.09 372.67, 146.04 372.83, 145.99 373.0, 145.94 373.17, 145.89 373.33, 145.83 373.5, 145.78 373.67, 145.73 373.83, 145.68 374.0, 145.62 374.17, 145.57 374.33, 145.52 374.5, 145.47 374.67, 145.42 374.83, 145.36 375.0, 145.31 375.17, 145.26 375.33, 145.21 375.5, 145.16 375.67, 145.1 375.83, 145.05 376.0, 145.0 376.17, 144.95 376.33, 144.9 376.5, 144.84 376.67, 144.79 376.83, 144.74 377.0, 144.69 377.17, 144.64 377.33, 144.58 377.5, 144.53 377.67, 144.48 377.83, 144.43 378.0, 144.38 378.17, 144.32 378.33, 144.27 378.5, 144.22 378.67, 144.17 378.83, 144.11 379.0, 144.06 379.17, 144.01 379.33, 143.96 379.5, 143.91 379.67, 143.85 379.83, 143.8 380.0, 143.75 380.17, 143.7 380.33, 143.65 380.5, 143.59 380.67, 143.54 380.83, 143.49 381.0, 143.44 381.17, 143.39 381.33, 143.33 381.5, 143.28 381.67, 143.23 381.83, 143.18 382.0, 143.12 382.17, 143.07 382.33, 143.02 382.5, 142.97 382.67, 142.92 382.83, 142.86 383.0, 142.81 383.17, 142.76 383.33, 142.71 383.5, 142.66 383.67, 142.6 383.83, 142.55 384.0, 142.5 384.17, 142.45 384.33, 142.4 384.5, 142.34 384.67, 142.29 384.83, 142.24 385.0, 142.19 385.17, 142.14 385.33, 142.08 385.5, 142.03 385.67, 141.98 385.83, 141.93 386.0, 141.88 386.17, 141.82 386.33, 141.77 386.5, 141.72 386.67, 141.67 386.83, 141.61 387.0, 141.56 387.17, 141.51 387.33, 141.46 387.5, 141.41 387.67, 141.35 387.83, 141.3 388.0, 141.25 388.17, 141.2 388.33, 141.15 388.5, 141.09 388.67, 141.04 388.83, 140.99 389.0, 140.94 389.17, 140.89 389.33, 140.83 389.5, 140.78 389.67, 140.73 389.83, 140.68 390.0, 140.62 390.17, 140.57 390.33, 140.52 390.5, 140.47 390.67, 140.42 390.83, 140.36 391.0, 140.31 391.17, 140.26 391.33, 140.21 391.5, 140.16 391.67, 140.1 391.83, 140.05 392.0, 140.0 392.17, 139.95 392.33, 139.9 392.5, 139.84 392.67, 139.79 392.83, 139.74 393.0, 139.69 393.17, 139.64 393.33, 139.58 393.5, 139.53 393.67, 139.48 393.83, 139.43 394.0, 139.38 394.17, 139.32 394.33, 139.27 394.5, 139.22 394.67, 139.17 394.83, 139.11 395.0, 139.06 395.17, 139.01 395.33, 138.96 395.5, 138.91 395.67, 138.85 395.83, 138.8 396.0, 138.75 396.17, 138.7 396.33, 138.65 396.5, 138.59 396.67, 138.54 396.83, 138.49 397.0, 138.44 397.17, 138.39 397.33, 138.33 397.5, 138.28 397.67, 138.23 397.83, 138.18 398.0, 138.12 398.17, 138.07 398.33, 138.02 398.5, 137.97 398.67, 137.92 398.83, 137.86 399.0, 137.81 399.17, 137.76 399.33, 137.71 399.5, 137.66 399.67, 137.6 399.83, 137.55 400.0, 137.5 " fill="none" stroke="white" stroke-width="1.5" stroke-linejoin="round" stroke-opacity="1"/>

 </svg>