<svg version="1.1" 
 baseProfile="full" 
 width="400" 
 height="400" 
 xmlns="http://www.w3.org/2000/svg">
<rect x="0.0" y="0.0" width="400" height="400" fill="black" stroke="black" stroke-width="0" opacity="1"/>
<line x1="0.0" y1="0.0" x2="0.0" y2="400.0" stroke="white" stroke-width="1" opacity="0.4" stroke-linecap="butt"/>
<line x1="40.0" y1="0.0" x2="40.0" y2="400.0" stroke="white" stroke-width="1" opacity="0.4" stroke-linecap="butt"/>
<line x1="80.0" y1="0.0" x2="80.0" y2="400.0" stroke="white" stroke-width="1" opacity="0.4" stroke-linecap="butt"/>
<line x1="120.0" y1="0.0" x2="120.0" y2="400.0" stroke="white" stroke-width="1" opacity="0.4" stroke-linecap="butt"/>
<line x1="160.0" y1="0.0" x2="160.0" y2="400.0" stroke="white" stroke-width="1" opacity="0.4" stroke-linecap="butt"/>
<line x1="200.0" y1="0.0" x2="200.0" y2="400.0" stroke="white" stroke-width="1" opacity="0.4" stroke-linecap="butt"/>
<line x1="240.0" y1="0.0" x2="240.0" y2="400.0" stroke="white" stroke-width="1" opacity="0.4" stroke-linecap="butt"/>
<line x1="280.0" y1="0.0" x2="280.0" y2="400.0" stroke="white" stroke-width="1" opacity="0.4" stroke-linecap="butt"/>
<line x1="320.0" y1="0.0" x2="320.0" y2="400.0" stroke="white" stroke-width="1" opacity="0.4" stroke-linecap="butt"/>
<line x1="360.0" y1="0.0" x2="360.0" y2="400.0" stroke="white" stroke-width="1" opacity="0.4" stroke-linecap="butt"/>
<line x1="0.0" y1="0.0" x2="400.0" y2="0.0" stroke="white" stroke-width="1" opacity="0.4" stroke-linecap="butt"/>
<line x1="0.0" y1="40.0" x2="400.0" y2="40.0" stroke="white" stroke-width="1" opacity="0.4" stroke-linecap="butt"/>
<line x1="0.0" y1="80.0" x2="400.0" y2="80.0" stroke="white" stroke-width="1" opacity="0.4" stroke-linecap="butt"/>
<line x1="0.0" y1="120.0" x2="400.0" y2="120.0" stroke="white" stroke-width="1" opacity="0.4" stroke-linecap="butt"/>
<line x1="0.0" y1="160.0" x2="400.0" y2="160.0" stroke="white" stroke-width="1" opacity="0.4" stroke-linecap="butt"/>
<line x1="0.0" y1="200.0" x2="400.0" y2="200.0" stroke="white" stroke-width="1" opacity="0.4" stroke-linecap="butt"/>
<line x1="0.0" y1="240.0" x2="400.0" y2="240.0" stroke="white" stroke-width="1" opacity="0.4" stroke-linecap="butt"/>
<line x1="0.0" y1="280.0" x2="400.0" y2="280.0" stroke="white" stroke-width="1" opacity="0.4" stroke-linecap="butt"/>
<line x1="0.0" y1="320.0" x2="400.0" y2="320.0" stroke="white" stroke-width="1" opacity="0.4" stroke-linecap="butt"/>
<line x1="0.0" y1="360.0" x2="400.0" y2="360.0" stroke="white" stroke-width="1" opacity="0.4" stroke-linecap="butt"/>
<line x1="0.0" y1="200.0" x2="400.0" y2="200.0" stroke="yellow" stroke-width="2.5" opacity="1" stroke-linecap="butt"/>
<line x1="200.0" y1="0.0" x2="200.0" y2="400.0" stroke="yellow" stroke-width="2.5" opacity="1" stroke-linecap="butt"/>
<polygon points="391.0 204.0, 401.0 200.0, 391.0 196.0, 393.0 200.0" fill="yellow"/><polygon points="204.0 9.0, 200.0 -1.0, 196.0 9.0, 200.0 7.0" fill="yellow"/><image x="-60.0" y="-60.0" width="200" height="200" href="/Users/girirajhira/PycharmProjects/Giraphics3/Taylor/expr.png"/><polyline points="0.0, 295.0 0.17, 294.92 0.33, 294.84 0.5, 294.76 0.67, 294.68 0.83, 294.6 1.0, 294.52 1.17, 294.45 1.33, 294.37 1.5, 294.29 1.67, 294.21 1.83, 294.13 2.0, 294.05 2.17, 293.97 2.33, 293.89 2.5, 293.81 2.67, 293.73 2.83, 293.65 3.0, 293.58 3.17, 293.5 3.33, 293.42 3.5, 293.34 3.67, 293.26 3.83, 293.18 4.0, 293.1 4.17, 293.02 4.33, 292.94 4.5, 292.86 4.67, 292.78 4.83, 292.7 5.0, 292.62 5.17, 292.55 5.33, 292.47 5.5, 292.39 5.67, 292.31 5.83, 292.23 6.0, 292.15 6.17, 292.07 6.33, 291.99 6.5, 291.91 6.67, 291.83 6.83, 291.75 7.0, 291.68 7.17, 291.6 7.33, 291.52 7.5, 291.44 7.67, 291.36 7.83, 291.28 8.0, 291.2 8.17, 291.12 8.33, 291.04 8.5, 290.96 8.67, 290.88 8.83, 290.8 9.0, 290.73 9.17, 290.65 9.33, 290.57 9.5, 290.49 9.67, 290.41 9.83, 290.33 10.0, 290.25 10.17, 290.17 10.33, 290.09 10.5, 290.01 10.67, 289.93 10.83, 289.85 11.0, 289.77 11.17, 289.7 11.33, 289.62 11.5, 289.54 11.67, 289.46 11.83, 289.38 12.0, 289.3 12.17, 289.22 12.33, 289.14 12.5, 289.06 12.67, 288.98 12.83, 288.9 13.0, 288.82 13.17, 288.75 13.33, 288.67 13.5, 288.59 13.67, 288.51 13.83, 288.43 14.0, 288.35 14.17, 288.27 14.33, 288.19 14.5, 288.11 14.67, 288.03 14.83, 287.95 15.0, 287.88 15.17, 287.8 15.33, 287.72 15.5, 287.64 15.67, 287.56 15.83, 287.48 16.0, 287.4 16.17, 287.32 16.33, 287.24 16.5, 287.16 16.67, 287.08 16.83, 287.0 17.0, 286.92 17.17, 286.85 17.33, 286.77 17.5, 286.69 17.67, 286.61 17.83, 286.53 18.0, 286.45 18.17, 286.37 18.33, 286.29 18.5, 286.21 18.67, 286.13 18.83, 286.05 19.0, 285.98 19.17, 285.9 19.33, 285.82 19.5, 285.74 19.67, 285.66 19.83, 285.58 20.0, 285.5 20.17, 285.42 20.33, 285.34 20.5, 285.26 20.67, 285.18 20.83, 285.1 21.0, 285.02 21.17, 284.95 21.33, 284.87 21.5, 284.79 21.67, 284.71 21.83, 284.63 22.0, 284.55 22.17, 284.47 22.33, 284.39 22.5, 284.31 22.67, 284.23 22.83, 284.15 23.0, 284.08 23.17, 284.0 23.33, 283.92 23.5, 283.84 23.67, 283.76 23.83, 283.68 24.0, 283.6 24.17, 283.52 24.33, 283.44 24.5, 283.36 24.67, 283.28 24.83, 283.2 25.0, 283.12 25.17, 283.05 25.33, 282.97 25.5, 282.89 25.67, 282.81 25.83, 282.73 26.0, 282.65 26.17, 282.57 26.33, 282.49 26.5, 282.41 26.67, 282.33 26.83, 282.25 27.0, 282.18 27.17, 282.1 27.33, 282.02 27.5, 281.94 27.67, 281.86 27.83, 281.78 28.0, 281.7 28.17, 281.62 28.33, 281.54 28.5, 281.46 28.67, 281.38 28.83, 281.3 29.0, 281.23 29.17, 281.15 29.33, 281.07 29.5, 280.99 29.67, 280.91 29.83, 280.83 30.0, 280.75 30.17, 280.67 30.33, 280.59 30.5, 280.51 30.67, 280.43 30.83, 280.35 31.0, 280.27 31.17, 280.2 31.33, 280.12 31.5, 280.04 31.67, 279.96 31.83, 279.88 32.0, 279.8 32.17, 279.72 32.33, 279.64 32.5, 279.56 32.67, 279.48 32.83, 279.4 33.0, 279.32 33.17, 279.25 33.33, 279.17 33.5, 279.09 33.67, 279.01 33.83, 278.93 34.0, 278.85 34.17, 278.77 34.33, 278.69 34.5, 278.61 34.67, 278.53 34.83, 278.45 35.0, 278.38 35.17, 278.3 35.33, 278.22 35.5, 278.14 35.67, 278.06 35.83, 277.98 36.0, 277.9 36.17, 277.82 36.33, 277.74 36.5, 277.66 36.67, 277.58 36.83, 277.5 37.0, 277.42 37.17, 277.35 37.33, 277.27 37.5, 277.19 37.67, 277.11 37.83, 277.03 38.0, 276.95 38.17, 276.87 38.33, 276.79 38.5, 276.71 38.67, 276.63 38.83, 276.55 39.0, 276.48 39.17, 276.4 39.33, 276.32 39.5, 276.24 39.67, 276.16 39.83, 276.08 40.0, 276.0 40.17, 275.92 40.33, 275.84 40.5, 275.76 40.67, 275.68 40.83, 275.6 41.0, 275.52 41.17, 275.45 41.33, 275.37 41.5, 275.29 41.67, 275.21 41.83, 275.13 42.0, 275.05 42.17, 274.97 42.33, 274.89 42.5, 274.81 42.67, 274.73 42.83, 274.65 43.0, 274.58 43.17, 274.5 43.33, 274.42 43.5, 274.34 43.67, 274.26 43.83, 274.18 44.0, 274.1 44.17, 274.02 44.33, 273.94 44.5, 273.86 44.67, 273.78 44.83, 273.7 45.0, 273.62 45.17, 273.55 45.33, 273.47 45.5, 273.39 45.67, 273.31 45.83, 273.23 46.0, 273.15 46.17, 273.07 46.33, 272.99 46.5, 272.91 46.67, 272.83 46.83, 272.75 47.0, 272.68 47.17, 272.6 47.33, 272.52 47.5, 272.44 47.67, 272.36 47.83, 272.28 48.0, 272.2 48.17, 272.12 48.33, 272.04 48.5, 271.96 48.67, 271.88 48.83, 271.8 49.0, 271.73 49.17, 271.65 49.33, 271.57 49.5, 271.49 49.67, 271.41 49.83, 271.33 50.0, 271.25 50.17, 271.17 50.33, 271.09 50.5, 271.01 50.67, 270.93 50.83, 270.85 51.0, 270.77 51.17, 270.7 51.33, 270.62 51.5, 270.54 51.67, 270.46 51.83, 270.38 52.0, 270.3 52.17, 270.22 52.33, 270.14 52.5, 270.06 52.67, 269.98 52.83, 269.9 53.0, 269.82 53.17, 269.75 53.33, 269.67 53.5, 269.59 53.67, 269.51 53.83, 269.43 54.0, 269.35 54.17, 269.27 54.33, 269.19 54.5, 269.11 54.67, 269.03 54.83, 268.95 55.0, 268.88 55.17, 268.8 55.33, 268.72 55.5, 268.64 55.67, 268.56 55.83, 268.48 56.0, 268.4 56.17, 268.32 56.33, 268.24 56.5, 268.16 56.67, 268.08 56.83, 268.0 57.0, 267.92 57.17, 267.85 57.33, 267.77 57.5, 267.69 57.67, 267.61 57.83, 267.53 58.0, 267.45 58.17, 267.37 58.33, 267.29 58.5, 267.21 58.67, 267.13 58.83, 267.05 59.0, 266.98 59.17, 266.9 59.33, 266.82 59.5, 266.74 59.67, 266.66 59.83, 266.58 60.0, 266.5 60.17, 266.42 60.33, 266.34 60.5, 266.26 60.67, 266.18 60.83, 266.1 61.0, 266.02 61.17, 265.95 61.33, 265.87 61.5, 265.79 61.67, 265.71 61.83, 265.63 62.0, 265.55 62.17, 265.47 62.33, 265.39 62.5, 265.31 62.67, 265.23 62.83, 265.15 63.0, 265.08 63.17, 265.0 63.33, 264.92 63.5, 264.84 63.67, 264.76 63.83, 264.68 64.0, 264.6 64.17, 264.52 64.33, 264.44 64.5, 264.36 64.67, 264.28 64.83, 264.2 65.0, 264.12 65.17, 264.05 65.33, 263.97 65.5, 263.89 65.67, 263.81 65.83, 263.73 66.0, 263.65 66.17, 263.57 66.33, 263.49 66.5, 263.41 66.67, 263.33 66.83, 263.25 67.0, 263.18 67.17, 263.1 67.33, 263.02 67.5, 262.94 67.67, 262.86 67.83, 262.78 68.0, 262.7 68.17, 262.62 68.33, 262.54 68.5, 262.46 68.67, 262.38 68.83, 262.3 69.0, 262.23 69.17, 262.15 69.33, 262.07 69.5, 261.99 69.67, 261.91 69.83, 261.83 70.0, 261.75 70.17, 261.67 70.33, 261.59 70.5, 261.51 70.67, 261.43 70.83, 261.35 71.0, 261.27 71.17, 261.2 71.33, 261.12 71.5, 261.04 71.67, 260.96 71.83, 260.88 72.0, 260.8 72.17, 260.72 72.33, 260.64 72.5, 260.56 72.67, 260.48 72.83, 260.4 73.0, 260.32 73.17, 260.25 73.33, 260.17 73.5, 260.09 73.67, 260.01 73.83, 259.93 74.0, 259.85 74.17, 259.77 74.33, 259.69 74.5, 259.61 74.67, 259.53 74.83, 259.45 75.0, 259.38 75.17, 259.3 75.33, 259.22 75.5, 259.14 75.67, 259.06 75.83, 258.98 76.0, 258.9 76.17, 258.82 76.33, 258.74 76.5, 258.66 76.67, 258.58 76.83, 258.5 77.0, 258.42 77.17, 258.35 77.33, 258.27 77.5, 258.19 77.67, 258.11 77.83, 258.03 78.0, 257.95 78.17, 257.87 78.33, 257.79 78.5, 257.71 78.67, 257.63 78.83, 257.55 79.0, 257.48 79.17, 257.4 79.33, 257.32 79.5, 257.24 79.67, 257.16 79.83, 257.08 80.0, 257.0 80.17, 256.92 80.33, 256.84 80.5, 256.76 80.67, 256.68 80.83, 256.6 81.0, 256.52 81.17, 256.45 81.33, 256.37 81.5, 256.29 81.67, 256.21 81.83, 256.13 82.0, 256.05 82.17, 255.97 82.33, 255.89 82.5, 255.81 82.67, 255.73 82.83, 255.65 83.0, 255.58 83.17, 255.5 83.33, 255.42 83.5, 255.34 83.67, 255.26 83.83, 255.18 84.0, 255.1 84.17, 255.02 84.33, 254.94 84.5, 254.86 84.67, 254.78 84.83, 254.7 85.0, 254.62 85.17, 254.55 85.33, 254.47 85.5, 254.39 85.67, 254.31 85.83, 254.23 86.0, 254.15 86.17, 254.07 86.33, 253.99 86.5, 253.91 86.67, 253.83 86.83, 253.75 87.0, 253.68 87.17, 253.6 87.33, 253.52 87.5, 253.44 87.67, 253.36 87.83, 253.28 88.0, 253.2 88.17, 253.12 88.33, 253.04 88.5, 252.96 88.67, 252.88 88.83, 252.8 89.0, 252.72 89.17, 252.65 89.33, 252.57 89.5, 252.49 89.67, 252.41 89.83, 252.33 90.0, 252.25 90.17, 252.17 90.33, 252.09 90.5, 252.01 90.67, 251.93 90.83, 251.85 91.0, 251.78 91.17, 251.7 91.33, 251.62 91.5, 251.54 91.67, 251.46 91.83, 251.38 92.0, 251.3 92.17, 251.22 92.33, 251.14 92.5, 251.06 92.67, 250.98 92.83, 250.9 93.0, 250.82 93.17, 250.75 93.33, 250.67 93.5, 250.59 93.67, 250.51 93.83, 250.43 94.0, 250.35 94.17, 250.27 94.33, 250.19 94.5, 250.11 94.67, 250.03 94.83, 249.95 95.0, 249.88 95.17, 249.8 95.33, 249.72 95.5, 249.64 95.67, 249.56 95.83, 249.48 96.0, 249.4 96.17, 249.32 96.33, 249.24 96.5, 249.16 96.67, 249.08 96.83, 249.0 97.0, 248.92 97.17, 248.85 97.33, 248.77 97.5, 248.69 97.67, 248.61 97.83, 248.53 98.0, 248.45 98.17, 248.37 98.33, 248.29 98.5, 248.21 98.67, 248.13 98.83, 248.05 99.0, 247.98 99.17, 247.9 99.33, 247.82 99.5, 247.74 99.67, 247.66 99.83, 247.58 100.0, 247.5 100.17, 247.42 100.33, 247.34 100.5, 247.26 100.67, 247.18 100.83, 247.1 101.0, 247.02 101.17, 246.95 101.33, 246.87 101.5, 246.79 101.67, 246.71 101.83, 246.63 102.0, 246.55 102.17, 246.47 102.33, 246.39 102.5, 246.31 102.67, 246.23 102.83, 246.15 103.0, 246.08 103.17, 246.0 103.33, 245.92 103.5, 245.84 103.67, 245.76 103.83, 245.68 104.0, 245.6 104.17, 245.52 104.33, 245.44 104.5, 245.36 104.67, 245.28 104.83, 245.2 105.0, 245.12 105.17, 245.05 105.33, 244.97 105.5, 244.89 105.67, 244.81 105.83, 244.73 106.0, 244.65 106.17, 244.57 106.33, 244.49 106.5, 244.41 106.67, 244.33 106.83, 244.25 107.0, 244.18 107.17, 244.1 107.33, 244.02 107.5, 243.94 107.67, 243.86 107.83, 243.78 108.0, 243.7 108.17, 243.62 108.33, 243.54 108.5, 243.46 108.67, 243.38 108.83, 243.3 109.0, 243.22 109.17, 243.15 109.33, 243.07 109.5, 242.99 109.67, 242.91 109.83, 242.83 110.0, 242.75 110.17, 242.67 110.33, 242.59 110.5, 242.51 110.67, 242.43 110.83, 242.35 111.0, 242.28 111.17, 242.2 111.33, 242.12 111.5, 242.04 111.67, 241.96 111.83, 241.88 112.0, 241.8 112.17, 241.72 112.33, 241.64 112.5, 241.56 112.67, 241.48 112.83, 241.4 113.0, 241.32 113.17, 241.25 113.33, 241.17 113.5, 241.09 113.67, 241.01 113.83, 240.93 114.0, 240.85 114.17, 240.77 114.33, 240.69 114.5, 240.61 114.67, 240.53 114.83, 240.45 115.0, 240.38 115.17, 240.3 115.33, 240.22 115.5, 240.14 115.67, 240.06 115.83, 239.98 116.0, 239.9 116.17, 239.82 116.33, 239.74 116.5, 239.66 116.67, 239.58 116.83, 239.5 117.0, 239.42 117.17, 239.35 117.33, 239.27 117.5, 239.19 117.67, 239.11 117.83, 239.03 118.0, 238.95 118.17, 238.87 118.33, 238.79 118.5, 238.71 118.67, 238.63 118.83, 238.55 119.0, 238.48 119.17, 238.4 119.33, 238.32 119.5, 238.24 119.67, 238.16 119.83, 238.08 120.0, 238.0 120.17, 237.92 120.33, 237.84 120.5, 237.76 120.67, 237.68 120.83, 237.6 121.0, 237.52 121.17, 237.45 121.33, 237.37 121.5, 237.29 121.67, 237.21 121.83, 237.13 122.0, 237.05 122.17, 236.97 122.33, 236.89 122.5, 236.81 122.67, 236.73 122.83, 236.65 123.0, 236.58 123.17, 236.5 123.33, 236.42 123.5, 236.34 123.67, 236.26 123.83, 236.18 124.0, 236.1 124.17, 236.02 124.33, 235.94 124.5, 235.86 124.67, 235.78 124.83, 235.7 125.0, 235.62 125.17, 235.55 125.33, 235.47 125.5, 235.39 125.67, 235.31 125.83, 235.23 126.0, 235.15 126.17, 235.07 126.33, 234.99 126.5, 234.91 126.67, 234.83 126.83, 234.75 127.0, 234.68 127.17, 234.6 127.33, 234.52 127.5, 234.44 127.67, 234.36 127.83, 234.28 128.0, 234.2 128.17, 234.12 128.33, 234.04 128.5, 233.96 128.67, 233.88 128.83, 233.8 129.0, 233.72 129.17, 233.65 129.33, 233.57 129.5, 233.49 129.67, 233.41 129.83, 233.33 130.0, 233.25 130.17, 233.17 130.33, 233.09 130.5, 233.01 130.67, 232.93 130.83, 232.85 131.0, 232.77 131.17, 232.7 131.33, 232.62 131.5, 232.54 131.67, 232.46 131.83, 232.38 132.0, 232.3 132.17, 232.22 132.33, 232.14 132.5, 232.06 132.67, 231.98 132.83, 231.9 133.0, 231.82 133.17, 231.75 133.33, 231.67 133.5, 231.59 133.67, 231.51 133.83, 231.43 134.0, 231.35 134.17, 231.27 134.33, 231.19 134.5, 231.11 134.67, 231.03 134.83, 230.95 135.0, 230.88 135.17, 230.8 135.33, 230.72 135.5, 230.64 135.67, 230.56 135.83, 230.48 136.0, 230.4 136.17, 230.32 136.33, 230.24 136.5, 230.16 136.67, 230.08 136.83, 230.0 137.0, 229.92 137.17, 229.85 137.33, 229.77 137.5, 229.69 137.67, 229.61 137.83, 229.53 138.0, 229.45 138.17, 229.37 138.33, 229.29 138.5, 229.21 138.67, 229.13 138.83, 229.05 139.0, 228.98 139.17, 228.9 139.33, 228.82 139.5, 228.74 139.67, 228.66 139.83, 228.58 140.0, 228.5 140.17, 228.42 140.33, 228.34 140.5, 228.26 140.67, 228.18 140.83, 228.1 141.0, 228.02 141.17, 227.95 141.33, 227.87 141.5, 227.79 141.67, 227.71 141.83, 227.63 142.0, 227.55 142.17, 227.47 142.33, 227.39 142.5, 227.31 142.67, 227.23 142.83, 227.15 143.0, 227.08 143.17, 227.0 143.33, 226.92 143.5, 226.84 143.67, 226.76 143.83, 226.68 144.0, 226.6 144.17, 226.52 144.33, 226.44 144.5, 226.36 144.67, 226.28 144.83, 226.2 145.0, 226.12 145.17, 226.05 145.33, 225.97 145.5, 225.89 145.67, 225.81 145.83, 225.73 146.0, 225.65 146.17, 225.57 146.33, 225.49 146.5, 225.41 146.67, 225.33 146.83, 225.25 147.0, 225.18 147.17, 225.1 147.33, 225.02 147.5, 224.94 147.67, 224.86 147.83, 224.78 148.0, 224.7 148.17, 224.62 148.33, 224.54 148.5, 224.46 148.67, 224.38 148.83, 224.3 149.0, 224.22 149.17, 224.15 149.33, 224.07 149.5, 223.99 149.67, 223.91 149.83, 223.83 150.0, 223.75 150.17, 223.67 150.33, 223.59 150.5, 223.51 150.67, 223.43 150.83, 223.35 151.0, 223.28 151.17, 223.2 151.33, 223.12 151.5, 223.04 151.67, 222.96 151.83, 222.88 152.0, 222.8 152.17, 222.72 152.33, 222.64 152.5, 222.56 152.67, 222.48 152.83, 222.4 153.0, 222.32 153.17, 222.25 153.33, 222.17 153.5, 222.09 153.67, 222.01 153.83, 221.93 154.0, 221.85 154.17, 221.77 154.33, 221.69 154.5, 221.61 154.67, 221.53 154.83, 221.45 155.0, 221.38 155.17, 221.3 155.33, 221.22 155.5, 221.14 155.67, 221.06 155.83, 220.98 156.0, 220.9 156.17, 220.82 156.33, 220.74 156.5, 220.66 156.67, 220.58 156.83, 220.5 157.0, 220.42 157.17, 220.35 157.33, 220.27 157.5, 220.19 157.67, 220.11 157.83, 220.03 158.0, 219.95 158.17, 219.87 158.33, 219.79 158.5, 219.71 158.67, 219.63 158.83, 219.55 159.0, 219.48 159.17, 219.4 159.33, 219.32 159.5, 219.24 159.67, 219.16 159.83, 219.08 160.0, 219.0 160.17, 218.92 160.33, 218.84 160.5, 218.76 160.67, 218.68 160.83, 218.6 161.0, 218.52 161.17, 218.45 161.33, 218.37 161.5, 218.29 161.67, 218.21 161.83, 218.13 162.0, 218.05 162.17, 217.97 162.33, 217.89 162.5, 217.81 162.67, 217.73 162.83, 217.65 163.0, 217.58 163.17, 217.5 163.33, 217.42 163.5, 217.34 163.67, 217.26 163.83, 217.18 164.0, 217.1 164.17, 217.02 164.33, 216.94 164.5, 216.86 164.67, 216.78 164.83, 216.7 165.0, 216.62 165.17, 216.55 165.33, 216.47 165.5, 216.39 165.67, 216.31 165.83, 216.23 166.0, 216.15 166.17, 216.07 166.33, 215.99 166.5, 215.91 166.67, 215.83 166.83, 215.75 167.0, 215.68 167.17, 215.6 167.33, 215.52 167.5, 215.44 167.67, 215.36 167.83, 215.28 168.0, 215.2 168.17, 215.12 168.33, 215.04 168.5, 214.96 168.67, 214.88 168.83, 214.8 169.0, 214.72 169.17, 214.65 169.33, 214.57 169.5, 214.49 169.67, 214.41 169.83, 214.33 170.0, 214.25 170.17, 214.17 170.33, 214.09 170.5, 214.01 170.67, 213.93 170.83, 213.85 171.0, 213.78 171.17, 213.7 171.33, 213.62 171.5, 213.54 171.67, 213.46 171.83, 213.38 172.0, 213.3 172.17, 213.22 172.33, 213.14 172.5, 213.06 172.67, 212.98 172.83, 212.9 173.0, 212.82 173.17, 212.75 173.33, 212.67 173.5, 212.59 173.67, 212.51 173.83, 212.43 174.0, 212.35 174.17, 212.27 174.33, 212.19 174.5, 212.11 174.67, 212.03 174.83, 211.95 175.0, 211.88 175.17, 211.8 175.33, 211.72 175.5, 211.64 175.67, 211.56 175.83, 211.48 176.0, 211.4 176.17, 211.32 176.33, 211.24 176.5, 211.16 176.67, 211.08 176.83, 211.0 177.0, 210.92 177.17, 210.85 177.33, 210.77 177.5, 210.69 177.67, 210.61 177.83, 210.53 178.0, 210.45 178.17, 210.37 178.33, 210.29 178.5, 210.21 178.67, 210.13 178.83, 210.05 179.0, 209.98 179.17, 209.9 179.33, 209.82 179.5, 209.74 179.67, 209.66 179.83, 209.58 180.0, 209.5 180.17, 209.42 180.33, 209.34 180.5, 209.26 180.67, 209.18 180.83, 209.1 181.0, 209.02 181.17, 208.95 181.33, 208.87 181.5, 208.79 181.67, 208.71 181.83, 208.63 182.0, 208.55 182.17, 208.47 182.33, 208.39 182.5, 208.31 182.67, 208.23 182.83, 208.15 183.0, 208.08 183.17, 208.0 183.33, 207.92 183.5, 207.84 183.67, 207.76 183.83, 207.68 184.0, 207.6 184.17, 207.52 184.33, 207.44 184.5, 207.36 184.67, 207.28 184.83, 207.2 185.0, 207.12 185.17, 207.05 185.33, 206.97 185.5, 206.89 185.67, 206.81 185.83, 206.73 186.0, 206.65 186.17, 206.57 186.33, 206.49 186.5, 206.41 186.67, 206.33 186.83, 206.25 187.0, 206.18 187.17, 206.1 187.33, 206.02 187.5, 205.94 187.67, 205.86 187.83, 205.78 188.0, 205.7 188.17, 205.62 188.33, 205.54 188.5, 205.46 188.67, 205.38 188.83, 205.3 189.0, 205.22 189.17, 205.15 189.33, 205.07 189.5, 204.99 189.67, 204.91 189.83, 204.83 190.0, 204.75 190.17, 204.67 190.33, 204.59 190.5, 204.51 190.67, 204.43 190.83, 204.35 191.0, 204.28 191.17, 204.2 191.33, 204.12 191.5, 204.04 191.67, 203.96 191.83, 203.88 192.0, 203.8 192.17, 203.72 192.33, 203.64 192.5, 203.56 192.67, 203.48 192.83, 203.4 193.0, 203.32 193.17, 203.25 193.33, 203.17 193.5, 203.09 193.67, 203.01 193.83, 202.93 194.0, 202.85 194.17, 202.77 194.33, 202.69 194.5, 202.61 194.67, 202.53 194.83, 202.45 195.0, 202.38 195.17, 202.3 195.33, 202.22 195.5, 202.14 195.67, 202.06 195.83, 201.98 196.0, 201.9 196.17, 201.82 196.33, 201.74 196.5, 201.66 196.67, 201.58 196.83, 201.5 197.0, 201.42 197.17, 201.35 197.33, 201.27 197.5, 201.19 197.67, 201.11 197.83, 201.03 198.0, 200.95 198.17, 200.87 198.33, 200.79 198.5, 200.71 198.67, 200.63 198.83, 200.55 199.0, 200.48 199.17, 200.4 199.33, 200.32 199.5, 200.24 199.67, 200.16 199.83, 200.08 200.0, 200.0 200.17, 199.92 200.33, 199.84 200.5, 199.76 200.67, 199.68 200.83, 199.6 201.0, 199.52 201.17, 199.45 201.33, 199.37 201.5, 199.29 201.67, 199.21 201.83, 199.13 202.0, 199.05 202.17, 198.97 202.33, 198.89 202.5, 198.81 202.67, 198.73 202.83, 198.65 203.0, 198.58 203.17, 198.5 203.33, 198.42 203.5, 198.34 203.67, 198.26 203.83, 198.18 204.0, 198.1 204.17, 198.02 204.33, 197.94 204.5, 197.86 204.67, 197.78 204.83, 197.7 205.0, 197.62 205.17, 197.55 205.33, 197.47 205.5, 197.39 205.67, 197.31 205.83, 197.23 206.0, 197.15 206.17, 197.07 206.33, 196.99 206.5, 196.91 206.67, 196.83 206.83, 196.75 207.0, 196.68 207.17, 196.6 207.33, 196.52 207.5, 196.44 207.67, 196.36 207.83, 196.28 208.0, 196.2 208.17, 196.12 208.33, 196.04 208.5, 195.96 208.67, 195.88 208.83, 195.8 209.0, 195.72 209.17, 195.65 209.33, 195.57 209.5, 195.49 209.67, 195.41 209.83, 195.33 210.0, 195.25 210.17, 195.17 210.33, 195.09 210.5, 195.01 210.67, 194.93 210.83, 194.85 211.0, 194.78 211.17, 194.7 211.33, 194.62 211.5, 194.54 211.67, 194.46 211.83, 194.38 212.0, 194.3 212.17, 194.22 212.33, 194.14 212.5, 194.06 212.67, 193.98 212.83, 193.9 213.0, 193.82 213.17, 193.75 213.33, 193.67 213.5, 193.59 213.67, 193.51 213.83, 193.43 214.0, 193.35 214.17, 193.27 214.33, 193.19 214.5, 193.11 214.67, 193.03 214.83, 192.95 215.0, 192.88 215.17, 192.8 215.33, 192.72 215.5, 192.64 215.67, 192.56 215.83, 192.48 216.0, 192.4 216.17, 192.32 216.33, 192.24 216.5, 192.16 216.67, 192.08 216.83, 192.0 217.0, 191.92 217.17, 191.85 217.33, 191.77 217.5, 191.69 217.67, 191.61 217.83, 191.53 218.0, 191.45 218.17, 191.37 218.33, 191.29 218.5, 191.21 218.67, 191.13 218.83, 191.05 219.0, 190.98 219.17, 190.9 219.33, 190.82 219.5, 190.74 219.67, 190.66 219.83, 190.58 220.0, 190.5 220.17, 190.42 220.33, 190.34 220.5, 190.26 220.67, 190.18 220.83, 190.1 221.0, 190.02 221.17, 189.95 221.33, 189.87 221.5, 189.79 221.67, 189.71 221.83, 189.63 222.0, 189.55 222.17, 189.47 222.33, 189.39 222.5, 189.31 222.67, 189.23 222.83, 189.15 223.0, 189.08 223.17, 189.0 223.33, 188.92 223.5, 188.84 223.67, 188.76 223.83, 188.68 224.0, 188.6 224.17, 188.52 224.33, 188.44 224.5, 188.36 224.67, 188.28 224.83, 188.2 225.0, 188.12 225.17, 188.05 225.33, 187.97 225.5, 187.89 225.67, 187.81 225.83, 187.73 226.0, 187.65 226.17, 187.57 226.33, 187.49 226.5, 187.41 226.67, 187.33 226.83, 187.25 227.0, 187.18 227.17, 187.1 227.33, 187.02 227.5, 186.94 227.67, 186.86 227.83, 186.78 228.0, 186.7 228.17, 186.62 228.33, 186.54 228.5, 186.46 228.67, 186.38 228.83, 186.3 229.0, 186.22 229.17, 186.15 229.33, 186.07 229.5, 185.99 229.67, 185.91 229.83, 185.83 230.0, 185.75 230.17, 185.67 230.33, 185.59 230.5, 185.51 230.67, 185.43 230.83, 185.35 231.0, 185.28 231.17, 185.2 231.33, 185.12 231.5, 185.04 231.67, 184.96 231.83, 184.88 232.0, 184.8 232.17, 184.72 232.33, 184.64 232.5, 184.56 232.67, 184.48 232.83, 184.4 233.0, 184.32 233.17, 184.25 233.33, 184.17 233.5, 184.09 233.67, 184.01 233.83, 183.93 234.0, 183.85 234.17, 183.77 234.33, 183.69 234.5, 183.61 234.67, 183.53 234.83, 183.45 235.0, 183.38 235.17, 183.3 235.33, 183.22 235.5, 183.14 235.67, 183.06 235.83, 182.98 236.0, 182.9 236.17, 182.82 236.33, 182.74 236.5, 182.66 236.67, 182.58 236.83, 182.5 237.0, 182.42 237.17, 182.35 237.33, 182.27 237.5, 182.19 237.67, 182.11 237.83, 182.03 238.0, 181.95 238.17, 181.87 238.33, 181.79 238.5, 181.71 238.67, 181.63 238.83, 181.55 239.0, 181.48 239.17, 181.4 239.33, 181.32 239.5, 181.24 239.67, 181.16 239.83, 181.08 240.0, 181.0 240.17, 180.92 240.33, 180.84 240.5, 180.76 240.67, 180.68 240.83, 180.6 241.0, 180.52 241.17, 180.45 241.33, 180.37 241.5, 180.29 241.67, 180.21 241.83, 180.13 242.0, 180.05 242.17, 179.97 242.33, 179.89 242.5, 179.81 242.67, 179.73 242.83, 179.65 243.0, 179.58 243.17, 179.5 243.33, 179.42 243.5, 179.34 243.67, 179.26 243.83, 179.18 244.0, 179.1 244.17, 179.02 244.33, 178.94 244.5, 178.86 244.67, 178.78 244.83, 178.7 245.0, 178.62 245.17, 178.55 245.33, 178.47 245.5, 178.39 245.67, 178.31 245.83, 178.23 246.0, 178.15 246.17, 178.07 246.33, 177.99 246.5, 177.91 246.67, 177.83 246.83, 177.75 247.0, 177.68 247.17, 177.6 247.33, 177.52 247.5, 177.44 247.67, 177.36 247.83, 177.28 248.0, 177.2 248.17, 177.12 248.33, 177.04 248.5, 176.96 248.67, 176.88 248.83, 176.8 249.0, 176.72 249.17, 176.65 249.33, 176.57 249.5, 176.49 249.67, 176.41 249.83, 176.33 250.0, 176.25 250.17, 176.17 250.33, 176.09 250.5, 176.01 250.67, 175.93 250.83, 175.85 251.0, 175.78 251.17, 175.7 251.33, 175.62 251.5, 175.54 251.67, 175.46 251.83, 175.38 252.0, 175.3 252.17, 175.22 252.33, 175.14 252.5, 175.06 252.67, 174.98 252.83, 174.9 253.0, 174.82 253.17, 174.75 253.33, 174.67 253.5, 174.59 253.67, 174.51 253.83, 174.43 254.0, 174.35 254.17, 174.27 254.33, 174.19 254.5, 174.11 254.67, 174.03 254.83, 173.95 255.0, 173.88 255.17, 173.8 255.33, 173.72 255.5, 173.64 255.67, 173.56 255.83, 173.48 256.0, 173.4 256.17, 173.32 256.33, 173.24 256.5, 173.16 256.67, 173.08 256.83, 173.0 257.0, 172.92 257.17, 172.85 257.33, 172.77 257.5, 172.69 257.67, 172.61 257.83, 172.53 258.0, 172.45 258.17, 172.37 258.33, 172.29 258.5, 172.21 258.67, 172.13 258.83, 172.05 259.0, 171.98 259.17, 171.9 259.33, 171.82 259.5, 171.74 259.67, 171.66 259.83, 171.58 260.0, 171.5 260.17, 171.42 260.33, 171.34 260.5, 171.26 260.67, 171.18 260.83, 171.1 261.0, 171.02 261.17, 170.95 261.33, 170.87 261.5, 170.79 261.67, 170.71 261.83, 170.63 262.0, 170.55 262.17, 170.47 262.33, 170.39 262.5, 170.31 262.67, 170.23 262.83, 170.15 263.0, 170.08 263.17, 170.0 263.33, 169.92 263.5, 169.84 263.67, 169.76 263.83, 169.68 264.0, 169.6 264.17, 169.52 264.33, 169.44 264.5, 169.36 264.67, 169.28 264.83, 169.2 265.0, 169.12 265.17, 169.05 265.33, 168.97 265.5, 168.89 265.67, 168.81 265.83, 168.73 266.0, 168.65 266.17, 168.57 266.33, 168.49 266.5, 168.41 266.67, 168.33 266.83, 168.25 267.0, 168.18 267.17, 168.1 267.33, 168.02 267.5, 167.94 267.67, 167.86 267.83, 167.78 268.0, 167.7 268.17, 167.62 268.33, 167.54 268.5, 167.46 268.67, 167.38 268.83, 167.3 269.0, 167.23 269.17, 167.15 269.33, 167.07 269.5, 166.99 269.67, 166.91 269.83, 166.83 270.0, 166.75 270.17, 166.67 270.33, 166.59 270.5, 166.51 270.67, 166.43 270.83, 166.35 271.0, 166.28 271.17, 166.2 271.33, 166.12 271.5, 166.04 271.67, 165.96 271.83, 165.88 272.0, 165.8 272.17, 165.72 272.33, 165.64 272.5, 165.56 272.67, 165.48 272.83, 165.4 273.0, 165.32 273.17, 165.25 273.33, 165.17 273.5, 165.09 273.67, 165.01 273.83, 164.93 274.0, 164.85 274.17, 164.77 274.33, 164.69 274.5, 164.61 274.67, 164.53 274.83, 164.45 275.0, 164.38 275.17, 164.3 275.33, 164.22 275.5, 164.14 275.67, 164.06 275.83, 163.98 276.0, 163.9 276.17, 163.82 276.33, 163.74 276.5, 163.66 276.67, 163.58 276.83, 163.5 277.0, 163.43 277.17, 163.35 277.33, 163.27 277.5, 163.19 277.67, 163.11 277.83, 163.03 278.0, 162.95 278.17, 162.87 278.33, 162.79 278.5, 162.71 278.67, 162.63 278.83, 162.55 279.0, 162.48 279.17, 162.4 279.33, 162.32 279.5, 162.24 279.67, 162.16 279.83, 162.08 280.0, 162.0 280.17, 161.92 280.33, 161.84 280.5, 161.76 280.67, 161.68 280.83, 161.6 281.0, 161.52 281.17, 161.45 281.33, 161.37 281.5, 161.29 281.67, 161.21 281.83, 161.13 282.0, 161.05 282.17, 160.97 282.33, 160.89 282.5, 160.81 282.67, 160.73 282.83, 160.65 283.0, 160.57 283.17, 160.5 283.33, 160.42 283.5, 160.34 283.67, 160.26 283.83, 160.18 284.0, 160.1 284.17, 160.02 284.33, 159.94 284.5, 159.86 284.67, 159.78 284.83, 159.7 285.0, 159.62 285.17, 159.55 285.33, 159.47 285.5, 159.39 285.67, 159.31 285.83, 159.23 286.0, 159.15 286.17, 159.07 286.33, 158.99 286.5, 158.91 286.67, 158.83 286.83, 158.75 287.0, 158.68 287.17, 158.6 287.33, 158.52 287.5, 158.44 287.67, 158.36 287.83, 158.28 288.0, 158.2 288.17, 158.12 288.33, 158.04 288.5, 157.96 288.67, 157.88 288.83, 157.8 289.0, 157.72 289.17, 157.65 289.33, 157.57 289.5, 157.49 289.67, 157.41 289.83, 157.33 290.0, 157.25 290.17, 157.17 290.33, 157.09 290.5, 157.01 290.67, 156.93 290.83, 156.85 291.0, 156.78 291.17, 156.7 291.33, 156.62 291.5, 156.54 291.67, 156.46 291.83, 156.38 292.0, 156.3 292.17, 156.22 292.33, 156.14 292.5, 156.06 292.67, 155.98 292.83, 155.9 293.0, 155.82 293.17, 155.75 293.33, 155.67 293.5, 155.59 293.67, 155.51 293.83, 155.43 294.0, 155.35 294.17, 155.27 294.33, 155.19 294.5, 155.11 294.67, 155.03 294.83, 154.95 295.0, 154.88 295.17, 154.8 295.33, 154.72 295.5, 154.64 295.67, 154.56 295.83, 154.48 296.0, 154.4 296.17, 154.32 296.33, 154.24 296.5, 154.16 296.67, 154.08 296.83, 154.0 297.0, 153.93 297.17, 153.85 297.33, 153.77 297.5, 153.69 297.67, 153.61 297.83, 153.53 298.0, 153.45 298.17, 153.37 298.33, 153.29 298.5, 153.21 298.67, 153.13 298.83, 153.05 299.0, 152.98 299.17, 152.9 299.33, 152.82 299.5, 152.74 299.67, 152.66 299.83, 152.58 300.0, 152.5 300.17, 152.42 300.33, 152.34 300.5, 152.26 300.67, 152.18 300.83, 152.1 301.0, 152.02 301.17, 151.95 301.33, 151.87 301.5, 151.79 301.67, 151.71 301.83, 151.63 302.0, 151.55 302.17, 151.47 302.33, 151.39 302.5, 151.31 302.67, 151.23 302.83, 151.15 303.0, 151.07 303.17, 151.0 303.33, 150.92 303.5, 150.84 303.67, 150.76 303.83, 150.68 304.0, 150.6 304.17, 150.52 304.33, 150.44 304.5, 150.36 304.67, 150.28 304.83, 150.2 305.0, 150.12 305.17, 150.05 305.33, 149.97 305.5, 149.89 305.67, 149.81 305.83, 149.73 306.0, 149.65 306.17, 149.57 306.33, 149.49 306.5, 149.41 306.67, 149.33 306.83, 149.25 307.0, 149.18 307.17, 149.1 307.33, 149.02 307.5, 148.94 307.67, 148.86 307.83, 148.78 308.0, 148.7 308.17, 148.62 308.33, 148.54 308.5, 148.46 308.67, 148.38 308.83, 148.3 309.0, 148.22 309.17, 148.15 309.33, 148.07 309.5, 147.99 309.67, 147.91 309.83, 147.83 310.0, 147.75 310.17, 147.67 310.33, 147.59 310.5, 147.51 310.67, 147.43 310.83, 147.35 311.0, 147.28 311.17, 147.2 311.33, 147.12 311.5, 147.04 311.67, 146.96 311.83, 146.88 312.0, 146.8 312.17, 146.72 312.33, 146.64 312.5, 146.56 312.67, 146.48 312.83, 146.4 313.0, 146.32 313.17, 146.25 313.33, 146.17 313.5, 146.09 313.67, 146.01 313.83, 145.93 314.0, 145.85 314.17, 145.77 314.33, 145.69 314.5, 145.61 314.67, 145.53 314.83, 145.45 315.0, 145.38 315.17, 145.3 315.33, 145.22 315.5, 145.14 315.67, 145.06 315.83, 144.98 316.0, 144.9 316.17, 144.82 316.33, 144.74 316.5, 144.66 316.67, 144.58 316.83, 144.5 317.0, 144.43 317.17, 144.35 317.33, 144.27 317.5, 144.19 317.67, 144.11 317.83, 144.03 318.0, 143.95 318.17, 143.87 318.33, 143.79 318.5, 143.71 318.67, 143.63 318.83, 143.55 319.0, 143.48 319.17, 143.4 319.33, 143.32 319.5, 143.24 319.67, 143.16 319.83, 143.08 320.0, 143.0 320.17, 142.92 320.33, 142.84 320.5, 142.76 320.67, 142.68 320.83, 142.6 321.0, 142.52 321.17, 142.45 321.33, 142.37 321.5, 142.29 321.67, 142.21 321.83, 142.13 322.0, 142.05 322.17, 141.97 322.33, 141.89 322.5, 141.81 322.67, 141.73 322.83, 141.65 323.0, 141.57 323.17, 141.5 323.33, 141.42 323.5, 141.34 323.67, 141.26 323.83, 141.18 324.0, 141.1 324.17, 141.02 324.33, 140.94 324.5, 140.86 324.67, 140.78 324.83, 140.7 325.0, 140.62 325.17, 140.55 325.33, 140.47 325.5, 140.39 325.67, 140.31 325.83, 140.23 326.0, 140.15 326.17, 140.07 326.33, 139.99 326.5, 139.91 326.67, 139.83 326.83, 139.75 327.0, 139.68 327.17, 139.6 327.33, 139.52 327.5, 139.44 327.67, 139.36 327.83, 139.28 328.0, 139.2 328.17, 139.12 328.33, 139.04 328.5, 138.96 328.67, 138.88 328.83, 138.8 329.0, 138.73 329.17, 138.65 329.33, 138.57 329.5, 138.49 329.67, 138.41 329.83, 138.33 330.0, 138.25 330.17, 138.17 330.33, 138.09 330.5, 138.01 330.67, 137.93 330.83, 137.85 331.0, 137.78 331.17, 137.7 331.33, 137.62 331.5, 137.54 331.67, 137.46 331.83, 137.38 332.0, 137.3 332.17, 137.22 332.33, 137.14 332.5, 137.06 332.67, 136.98 332.83, 136.9 333.0, 136.83 333.17, 136.75 333.33, 136.67 333.5, 136.59 333.67, 136.51 333.83, 136.43 334.0, 136.35 334.17, 136.27 334.33, 136.19 334.5, 136.11 334.67, 136.03 334.83, 135.95 335.0, 135.88 335.17, 135.8 335.33, 135.72 335.5, 135.64 335.67, 135.56 335.83, 135.48 336.0, 135.4 336.17, 135.32 336.33, 135.24 336.5, 135.16 336.67, 135.08 336.83, 135.0 337.0, 134.93 337.17, 134.85 337.33, 134.77 337.5, 134.69 337.67, 134.61 337.83, 134.53 338.0, 134.45 338.17, 134.37 338.33, 134.29 338.5, 134.21 338.67, 134.13 338.83, 134.05 339.0, 133.98 339.17, 133.9 339.33, 133.82 339.5, 133.74 339.67, 133.66 339.83, 133.58 340.0, 133.5 340.17, 133.42 340.33, 133.34 340.5, 133.26 340.67, 133.18 340.83, 133.1 341.0, 133.02 341.17, 132.95 341.33, 132.87 341.5, 132.79 341.67, 132.71 341.83, 132.63 342.0, 132.55 342.17, 132.47 342.33, 132.39 342.5, 132.31 342.67, 132.23 342.83, 132.15 343.0, 132.07 343.17, 132.0 343.33, 131.92 343.5, 131.84 343.67, 131.76 343.83, 131.68 344.0, 131.6 344.17, 131.52 344.33, 131.44 344.5, 131.36 344.67, 131.28 344.83, 131.2 345.0, 131.12 345.17, 131.05 345.33, 130.97 345.5, 130.89 345.67, 130.81 345.83, 130.73 346.0, 130.65 346.17, 130.57 346.33, 130.49 346.5, 130.41 346.67, 130.33 346.83, 130.25 347.0, 130.18 347.17, 130.1 347.33, 130.02 347.5, 129.94 347.67, 129.86 347.83, 129.78 348.0, 129.7 348.17, 129.62 348.33, 129.54 348.5, 129.46 348.67, 129.38 348.83, 129.3 349.0, 129.23 349.17, 129.15 349.33, 129.07 349.5, 128.99 349.67, 128.91 349.83, 128.83 350.0, 128.75 350.17, 128.67 350.33, 128.59 350.5, 128.51 350.67, 128.43 350.83, 128.35 351.0, 128.28 351.17, 128.2 351.33, 128.12 351.5, 128.04 351.67, 127.96 351.83, 127.88 352.0, 127.8 352.17, 127.72 352.33, 127.64 352.5, 127.56 352.67, 127.48 352.83, 127.4 353.0, 127.32 353.17, 127.25 353.33, 127.17 353.5, 127.09 353.67, 127.01 353.83, 126.93 354.0, 126.85 354.17, 126.77 354.33, 126.69 354.5, 126.61 354.67, 126.53 354.83, 126.45 355.0, 126.38 355.17, 126.3 355.33, 126.22 355.5, 126.14 355.67, 126.06 355.83, 125.98 356.0, 125.9 356.17, 125.82 356.33, 125.74 356.5, 125.66 356.67, 125.58 356.83, 125.5 357.0, 125.43 357.17, 125.35 357.33, 125.27 357.5, 125.19 357.67, 125.11 357.83, 125.03 358.0, 124.95 358.17, 124.87 358.33, 124.79 358.5, 124.71 358.67, 124.63 358.83, 124.55 359.0, 124.48 359.17, 124.4 359.33, 124.32 359.5, 124.24 359.67, 124.16 359.83, 124.08 360.0, 124.0 360.17, 123.92 360.33, 123.84 360.5, 123.76 360.67, 123.68 360.83, 123.6 361.0, 123.52 361.17, 123.45 361.33, 123.37 361.5, 123.29 361.67, 123.21 361.83, 123.13 362.0, 123.05 362.17, 122.97 362.33, 122.89 362.5, 122.81 362.67, 122.73 362.83, 122.65 363.0, 122.58 363.17, 122.5 363.33, 122.42 363.5, 122.34 363.67, 122.26 363.83, 122.18 364.0, 122.1 364.17, 122.02 364.33, 121.94 364.5, 121.86 364.67, 121.78 364.83, 121.7 365.0, 121.62 365.17, 121.55 365.33, 121.47 365.5, 121.39 365.67, 121.31 365.83, 121.23 366.0, 121.15 366.17, 121.07 366.33, 120.99 366.5, 120.91 366.67, 120.83 366.83, 120.75 367.0, 120.68 367.17, 120.6 367.33, 120.52 367.5, 120.44 367.67, 120.36 367.83, 120.28 368.0, 120.2 368.17, 120.12 368.33, 120.04 368.5, 119.96 368.67, 119.88 368.83, 119.8 369.0, 119.73 369.17, 119.65 369.33, 119.57 369.5, 119.49 369.67, 119.41 369.83, 119.33 370.0, 119.25 370.17, 119.17 370.33, 119.09 370.5, 119.01 370.67, 118.93 370.83, 118.85 371.0, 118.78 371.17, 118.7 371.33, 118.62 371.5, 118.54 371.67, 118.46 371.83, 118.38 372.0, 118.3 372.17, 118.22 372.33, 118.14 372.5, 118.06 372.67, 117.98 372.83, 117.9 373.0, 117.82 373.17, 117.75 373.33, 117.67 373.5, 117.59 373.67, 117.51 373.83, 117.43 374.0, 117.35 374.17, 117.27 374.33, 117.19 374.5, 117.11 374.67, 117.03 374.83, 116.95 375.0, 116.88 375.17, 116.8 375.33, 116.72 375.5, 116.64 375.67, 116.56 375.83, 116.48 376.0, 116.4 376.17, 116.32 376.33, 116.24 376.5, 116.16 376.67, 116.08 376.83, 116.0 377.0, 115.93 377.17, 115.85 377.33, 115.77 377.5, 115.69 377.67, 115.61 377.83, 115.53 378.0, 115.45 378.17, 115.37 378.33, 115.29 378.5, 115.21 378.67, 115.13 378.83, 115.05 379.0, 114.98 379.17, 114.9 379.33, 114.82 379.5, 114.74 379.67, 114.66 379.83, 114.58 380.0, 114.5 380.17, 114.42 380.33, 114.34 380.5, 114.26 380.67, 114.18 380.83, 114.1 381.0, 114.02 381.17, 113.95 381.33, 113.87 381.5, 113.79 381.67, 113.71 381.83, 113.63 382.0, 113.55 382.17, 113.47 382.33, 113.39 382.5, 113.31 382.67, 113.23 382.83, 113.15 383.0, 113.07 383.17, 113.0 383.33, 112.92 383.5, 112.84 383.67, 112.76 383.83, 112.68 384.0, 112.6 384.17, 112.52 384.33, 112.44 384.5, 112.36 384.67, 112.28 384.83, 112.2 385.0, 112.12 385.17, 112.05 385.33, 111.97 385.5, 111.89 385.67, 111.81 385.83, 111.73 386.0, 111.65 386.17, 111.57 386.33, 111.49 386.5, 111.41 386.67, 111.33 386.83, 111.25 387.0, 111.18 387.17, 111.1 387.33, 111.02 387.5, 110.94 387.67, 110.86 387.83, 110.78 388.0, 110.7 388.17, 110.62 388.33, 110.54 388.5, 110.46 388.67, 110.38 388.83, 110.3 389.0, 110.22 389.17, 110.15 389.33, 110.07 389.5, 109.99 389.67, 109.91 389.83, 109.83 390.0, 109.75 390.17, 109.67 390.33, 109.59 390.5, 109.51 390.67, 109.43 390.83, 109.35 391.0, 109.28 391.17, 109.2 391.33, 109.12 391.5, 109.04 391.67, 108.96 391.83, 108.88 392.0, 108.8 392.17, 108.72 392.33, 108.64 392.5, 108.56 392.67, 108.48 392.83, 108.4 393.0, 108.32 393.17, 108.25 393.33, 108.17 393.5, 108.09 393.67, 108.01 393.83, 107.93 394.0, 107.85 394.17, 107.77 394.33, 107.69 394.5, 107.61 394.67, 107.53 394.83, 107.45 395.0, 107.38 395.17, 107.3 395.33, 107.22 395.5, 107.14 395.67, 107.06 395.83, 106.98 396.0, 106.9 396.17, 106.82 396.33, 106.74 396.5, 106.66 396.67, 106.58 396.83, 106.5 397.0, 106.42 397.17, 106.35 397.33, 106.27 397.5, 106.19 397.67, 106.11 397.83, 106.03 398.0, 105.95 398.17, 105.87 398.33, 105.79 398.5, 105.71 398.67, 105.63 398.83, 105.55 399.0, 105.48 399.17, 105.4 399.33, 105.32 399.5, 105.24 399.67, 105.16 399.83, 105.08 400.0, 105.0 " fill="none" stroke="white" stroke-width="1.5" stroke-linejoin="round" stroke-opacity="1"/>

 </svg>