<svg version="1.1" 
 baseProfile="full" 
 width="400" 
 height="400" 
 xmlns="http://www.w3.org/2000/svg">
<rect x="0.0" y="0.0" width="400" height="400" fill="black" stroke="black" stroke-width="0" opacity="1"/>
<line x1="0.0" y1="0.0" x2="0.0" y2="400.0" stroke="white" stroke-width="1" opacity="0.4" stroke-linecap="butt"/>
<line x1="40.0" y1="0.0" x2="40.0" y2="400.0" stroke="white" stroke-width="1" opacity="0.4" stroke-linecap="butt"/>
<line x1="80.0" y1="0.0" x2="80.0" y2="400.0" stroke="white" stroke-width="1" opacity="0.4" stroke-linecap="butt"/>
<line x1="120.0" y1="0.0" x2="120.0" y2="400.0" stroke="white" stroke-width="1" opacity="0.4" stroke-linecap="butt"/>
<line x1="160.0" y1="0.0" x2="160.0" y2="400.0" stroke="white" stroke-width="1" opacity="0.4" stroke-linecap="butt"/>
<line x1="200.0" y1="0.0" x2="200.0" y2="400.0" stroke="white" stroke-width="1" opacity="0.4" stroke-linecap="butt"/>
<line x1="240.0" y1="0.0" x2="240.0" y2="400.0" stroke="white" stroke-width="1" opacity="0.4" stroke-linecap="butt"/>
<line x1="280.0" y1="0.0" x2="280.0" y2="400.0" stroke="white" stroke-width="1" opacity="0.4" stroke-linecap="butt"/>
<line x1="320.0" y1="0.0" x2="320.0" y2="400.0" stroke="white" stroke-width="1" opacity="0.4" stroke-linecap="butt"/>
<line x1="360.0" y1="0.0" x2="360.0" y2="400.0" stroke="white" stroke-width="1" opacity="0.4" stroke-linecap="butt"/>
<line x1="0.0" y1="0.0" x2="400.0" y2="0.0" stroke="white" stroke-width="1" opacity="0.4" stroke-linecap="butt"/>
<line x1="0.0" y1="40.0" x2="400.0" y2="40.0" stroke="white" stroke-width="1" opacity="0.4" stroke-linecap="butt"/>
<line x1="0.0" y1="80.0" x2="400.0" y2="80.0" stroke="white" stroke-width="1" opacity="0.4" stroke-linecap="butt"/>
<line x1="0.0" y1="120.0" x2="400.0" y2="120.0" stroke="white" stroke-width="1" opacity="0.4" stroke-linecap="butt"/>
<line x1="0.0" y1="160.0" x2="400.0" y2="160.0" stroke="white" stroke-width="1" opacity="0.4" stroke-linecap="butt"/>
<line x1="0.0" y1="200.0" x2="400.0" y2="200.0" stroke="white" stroke-width="1" opacity="0.4" stroke-linecap="butt"/>
<line x1="0.0" y1="240.0" x2="400.0" y2="240.0" stroke="white" stroke-width="1" opacity="0.4" stroke-linecap="butt"/>
<line x1="0.0" y1="280.0" x2="400.0" y2="280.0" stroke="white" stroke-width="1" opacity="0.4" stroke-linecap="butt"/>
<line x1="0.0" y1="320.0" x2="400.0" y2="320.0" stroke="white" stroke-width="1" opacity="0.4" stroke-linecap="butt"/>
<line x1="0.0" y1="360.0" x2="400.0" y2="360.0" stroke="white" stroke-width="1" opacity="0.4" stroke-linecap="butt"/>
<line x1="0.0" y1="200.0" x2="400.0" y2="200.0" stroke="yellow" stroke-width="2.5" opacity="1" stroke-linecap="butt"/>
<line x1="200.0" y1="0.0" x2="200.0" y2="400.0" stroke="yellow" stroke-width="2.5" opacity="1" stroke-linecap="butt"/>
<polygon points="391.0 204.0, 401.0 200.0, 391.0 196.0, 393.0 200.0" fill="yellow"/><polygon points="204.0 9.0, 200.0 -1.0, 196.0 9.0, 200.0 7.0" fill="yellow"/><image x="-60.0" y="-60.0" width="200" height="200" href="/Users/girirajhira/PycharmProjects/Giraphics3/Taylor/expr.png"/><polyline points="0.0, 305.0 0.17, 304.91 0.33, 304.82 0.5, 304.74 0.67, 304.65 0.83, 304.56 1.0, 304.48 1.17, 304.39 1.33, 304.3 1.5, 304.21 1.67, 304.12 1.83, 304.04 2.0, 303.95 2.17, 303.86 2.33, 303.77 2.5, 303.69 2.67, 303.6 2.83, 303.51 3.0, 303.42 3.17, 303.34 3.33, 303.25 3.5, 303.16 3.67, 303.08 3.83, 302.99 4.0, 302.9 4.17, 302.81 4.33, 302.73 4.5, 302.64 4.67, 302.55 4.83, 302.46 5.0, 302.38 5.17, 302.29 5.33, 302.2 5.5, 302.11 5.67, 302.02 5.83, 301.94 6.0, 301.85 6.17, 301.76 6.33, 301.68 6.5, 301.59 6.67, 301.5 6.83, 301.41 7.0, 301.32 7.17, 301.24 7.33, 301.15 7.5, 301.06 7.67, 300.98 7.83, 300.89 8.0, 300.8 8.17, 300.71 8.33, 300.62 8.5, 300.54 8.67, 300.45 8.83, 300.36 9.0, 300.28 9.17, 300.19 9.33, 300.1 9.5, 300.01 9.67, 299.92 9.83, 299.84 10.0, 299.75 10.17, 299.66 10.33, 299.58 10.5, 299.49 10.67, 299.4 10.83, 299.31 11.0, 299.23 11.17, 299.14 11.33, 299.05 11.5, 298.96 11.67, 298.88 11.83, 298.79 12.0, 298.7 12.17, 298.61 12.33, 298.52 12.5, 298.44 12.67, 298.35 12.83, 298.26 13.0, 298.18 13.17, 298.09 13.33, 298.0 13.5, 297.91 13.67, 297.82 13.83, 297.74 14.0, 297.65 14.17, 297.56 14.33, 297.48 14.5, 297.39 14.67, 297.3 14.83, 297.21 15.0, 297.12 15.17, 297.04 15.33, 296.95 15.5, 296.86 15.67, 296.77 15.83, 296.69 16.0, 296.6 16.17, 296.51 16.33, 296.42 16.5, 296.34 16.67, 296.25 16.83, 296.16 17.0, 296.08 17.17, 295.99 17.33, 295.9 17.5, 295.81 17.67, 295.73 17.83, 295.64 18.0, 295.55 18.17, 295.46 18.33, 295.38 18.5, 295.29 18.67, 295.2 18.83, 295.11 19.0, 295.02 19.17, 294.94 19.33, 294.85 19.5, 294.76 19.67, 294.68 19.83, 294.59 20.0, 294.5 20.17, 294.41 20.33, 294.32 20.5, 294.24 20.67, 294.15 20.83, 294.06 21.0, 293.98 21.17, 293.89 21.33, 293.8 21.5, 293.71 21.67, 293.62 21.83, 293.54 22.0, 293.45 22.17, 293.36 22.33, 293.27 22.5, 293.19 22.67, 293.1 22.83, 293.01 23.0, 292.92 23.17, 292.84 23.33, 292.75 23.5, 292.66 23.67, 292.58 23.83, 292.49 24.0, 292.4 24.17, 292.31 24.33, 292.23 24.5, 292.14 24.67, 292.05 24.83, 291.96 25.0, 291.88 25.17, 291.79 25.33, 291.7 25.5, 291.61 25.67, 291.52 25.83, 291.44 26.0, 291.35 26.17, 291.26 26.33, 291.18 26.5, 291.09 26.67, 291.0 26.83, 290.91 27.0, 290.83 27.17, 290.74 27.33, 290.65 27.5, 290.56 27.67, 290.48 27.83, 290.39 28.0, 290.3 28.17, 290.21 28.33, 290.12 28.5, 290.04 28.67, 289.95 28.83, 289.86 29.0, 289.77 29.17, 289.69 29.33, 289.6 29.5, 289.51 29.67, 289.42 29.83, 289.34 30.0, 289.25 30.17, 289.16 30.33, 289.08 30.5, 288.99 30.67, 288.9 30.83, 288.81 31.0, 288.73 31.17, 288.64 31.33, 288.55 31.5, 288.46 31.67, 288.38 31.83, 288.29 32.0, 288.2 32.17, 288.11 32.33, 288.02 32.5, 287.94 32.67, 287.85 32.83, 287.76 33.0, 287.68 33.17, 287.59 33.33, 287.5 33.5, 287.41 33.67, 287.32 33.83, 287.24 34.0, 287.15 34.17, 287.06 34.33, 286.98 34.5, 286.89 34.67, 286.8 34.83, 286.71 35.0, 286.62 35.17, 286.54 35.33, 286.45 35.5, 286.36 35.67, 286.27 35.83, 286.19 36.0, 286.1 36.17, 286.01 36.33, 285.92 36.5, 285.84 36.67, 285.75 36.83, 285.66 37.0, 285.58 37.17, 285.49 37.33, 285.4 37.5, 285.31 37.67, 285.23 37.83, 285.14 38.0, 285.05 38.17, 284.96 38.33, 284.88 38.5, 284.79 38.67, 284.7 38.83, 284.61 39.0, 284.52 39.17, 284.44 39.33, 284.35 39.5, 284.26 39.67, 284.17 39.83, 284.09 40.0, 284.0 40.17, 283.91 40.33, 283.82 40.5, 283.74 40.67, 283.65 40.83, 283.56 41.0, 283.48 41.17, 283.39 41.33, 283.3 41.5, 283.21 41.67, 283.12 41.83, 283.04 42.0, 282.95 42.17, 282.86 42.33, 282.77 42.5, 282.69 42.67, 282.6 42.83, 282.51 43.0, 282.42 43.17, 282.34 43.33, 282.25 43.5, 282.16 43.67, 282.08 43.83, 281.99 44.0, 281.9 44.17, 281.81 44.33, 281.73 44.5, 281.64 44.67, 281.55 44.83, 281.46 45.0, 281.38 45.17, 281.29 45.33, 281.2 45.5, 281.11 45.67, 281.02 45.83, 280.94 46.0, 280.85 46.17, 280.76 46.33, 280.68 46.5, 280.59 46.67, 280.5 46.83, 280.41 47.0, 280.32 47.17, 280.24 47.33, 280.15 47.5, 280.06 47.67, 279.98 47.83, 279.89 48.0, 279.8 48.17, 279.71 48.33, 279.62 48.5, 279.54 48.67, 279.45 48.83, 279.36 49.0, 279.27 49.17, 279.19 49.33, 279.1 49.5, 279.01 49.67, 278.92 49.83, 278.84 50.0, 278.75 50.17, 278.66 50.33, 278.58 50.5, 278.49 50.67, 278.4 50.83, 278.31 51.0, 278.23 51.17, 278.14 51.33, 278.05 51.5, 277.96 51.67, 277.88 51.83, 277.79 52.0, 277.7 52.17, 277.61 52.33, 277.52 52.5, 277.44 52.67, 277.35 52.83, 277.26 53.0, 277.18 53.17, 277.09 53.33, 277.0 53.5, 276.91 53.67, 276.82 53.83, 276.74 54.0, 276.65 54.17, 276.56 54.33, 276.48 54.5, 276.39 54.67, 276.3 54.83, 276.21 55.0, 276.12 55.17, 276.04 55.33, 275.95 55.5, 275.86 55.67, 275.77 55.83, 275.69 56.0, 275.6 56.17, 275.51 56.33, 275.42 56.5, 275.34 56.67, 275.25 56.83, 275.16 57.0, 275.08 57.17, 274.99 57.33, 274.9 57.5, 274.81 57.67, 274.73 57.83, 274.64 58.0, 274.55 58.17, 274.46 58.33, 274.38 58.5, 274.29 58.67, 274.2 58.83, 274.11 59.0, 274.02 59.17, 273.94 59.33, 273.85 59.5, 273.76 59.67, 273.68 59.83, 273.59 60.0, 273.5 60.17, 273.41 60.33, 273.32 60.5, 273.24 60.67, 273.15 60.83, 273.06 61.0, 272.98 61.17, 272.89 61.33, 272.8 61.5, 272.71 61.67, 272.62 61.83, 272.54 62.0, 272.45 62.17, 272.36 62.33, 272.27 62.5, 272.19 62.67, 272.1 62.83, 272.01 63.0, 271.92 63.17, 271.84 63.33, 271.75 63.5, 271.66 63.67, 271.58 63.83, 271.49 64.0, 271.4 64.17, 271.31 64.33, 271.23 64.5, 271.14 64.67, 271.05 64.83, 270.96 65.0, 270.88 65.17, 270.79 65.33, 270.7 65.5, 270.61 65.67, 270.52 65.83, 270.44 66.0, 270.35 66.17, 270.26 66.33, 270.18 66.5, 270.09 66.67, 270.0 66.83, 269.91 67.0, 269.82 67.17, 269.74 67.33, 269.65 67.5, 269.56 67.67, 269.48 67.83, 269.39 68.0, 269.3 68.17, 269.21 68.33, 269.12 68.5, 269.04 68.67, 268.95 68.83, 268.86 69.0, 268.77 69.17, 268.69 69.33, 268.6 69.5, 268.51 69.67, 268.42 69.83, 268.34 70.0, 268.25 70.17, 268.16 70.33, 268.08 70.5, 267.99 70.67, 267.9 70.83, 267.81 71.0, 267.73 71.17, 267.64 71.33, 267.55 71.5, 267.46 71.67, 267.38 71.83, 267.29 72.0, 267.2 72.17, 267.11 72.33, 267.02 72.5, 266.94 72.67, 266.85 72.83, 266.76 73.0, 266.68 73.17, 266.59 73.33, 266.5 73.5, 266.41 73.67, 266.32 73.83, 266.24 74.0, 266.15 74.17, 266.06 74.33, 265.98 74.5, 265.89 74.67, 265.8 74.83, 265.71 75.0, 265.62 75.17, 265.54 75.33, 265.45 75.5, 265.36 75.67, 265.27 75.83, 265.19 76.0, 265.1 76.17, 265.01 76.33, 264.92 76.5, 264.84 76.67, 264.75 76.83, 264.66 77.0, 264.58 77.17, 264.49 77.33, 264.4 77.5, 264.31 77.67, 264.23 77.83, 264.14 78.0, 264.05 78.17, 263.96 78.33, 263.88 78.5, 263.79 78.67, 263.7 78.83, 263.61 79.0, 263.52 79.17, 263.44 79.33, 263.35 79.5, 263.26 79.67, 263.18 79.83, 263.09 80.0, 263.0 80.17, 262.91 80.33, 262.82 80.5, 262.74 80.67, 262.65 80.83, 262.56 81.0, 262.48 81.17, 262.39 81.33, 262.3 81.5, 262.21 81.67, 262.12 81.83, 262.04 82.0, 261.95 82.17, 261.86 82.33, 261.77 82.5, 261.69 82.67, 261.6 82.83, 261.51 83.0, 261.42 83.17, 261.34 83.33, 261.25 83.5, 261.16 83.67, 261.08 83.83, 260.99 84.0, 260.9 84.17, 260.81 84.33, 260.73 84.5, 260.64 84.67, 260.55 84.83, 260.46 85.0, 260.38 85.17, 260.29 85.33, 260.2 85.5, 260.11 85.67, 260.02 85.83, 259.94 86.0, 259.85 86.17, 259.76 86.33, 259.68 86.5, 259.59 86.67, 259.5 86.83, 259.41 87.0, 259.32 87.17, 259.24 87.33, 259.15 87.5, 259.06 87.67, 258.98 87.83, 258.89 88.0, 258.8 88.17, 258.71 88.33, 258.62 88.5, 258.54 88.67, 258.45 88.83, 258.36 89.0, 258.27 89.17, 258.19 89.33, 258.1 89.5, 258.01 89.67, 257.92 89.83, 257.84 90.0, 257.75 90.17, 257.66 90.33, 257.58 90.5, 257.49 90.67, 257.4 90.83, 257.31 91.0, 257.23 91.17, 257.14 91.33, 257.05 91.5, 256.96 91.67, 256.88 91.83, 256.79 92.0, 256.7 92.17, 256.61 92.33, 256.52 92.5, 256.44 92.67, 256.35 92.83, 256.26 93.0, 256.18 93.17, 256.09 93.33, 256.0 93.5, 255.91 93.67, 255.82 93.83, 255.74 94.0, 255.65 94.17, 255.56 94.33, 255.48 94.5, 255.39 94.67, 255.3 94.83, 255.21 95.0, 255.12 95.17, 255.04 95.33, 254.95 95.5, 254.86 95.67, 254.78 95.83, 254.69 96.0, 254.6 96.17, 254.51 96.33, 254.42 96.5, 254.34 96.67, 254.25 96.83, 254.16 97.0, 254.08 97.17, 253.99 97.33, 253.9 97.5, 253.81 97.67, 253.72 97.83, 253.64 98.0, 253.55 98.17, 253.46 98.33, 253.38 98.5, 253.29 98.67, 253.2 98.83, 253.11 99.0, 253.02 99.17, 252.94 99.33, 252.85 99.5, 252.76 99.67, 252.68 99.83, 252.59 100.0, 252.5 100.17, 252.41 100.33, 252.32 100.5, 252.24 100.67, 252.15 100.83, 252.06 101.0, 251.98 101.17, 251.89 101.33, 251.8 101.5, 251.71 101.67, 251.62 101.83, 251.54 102.0, 251.45 102.17, 251.36 102.33, 251.27 102.5, 251.19 102.67, 251.1 102.83, 251.01 103.0, 250.92 103.17, 250.84 103.33, 250.75 103.5, 250.66 103.67, 250.58 103.83, 250.49 104.0, 250.4 104.17, 250.31 104.33, 250.22 104.5, 250.14 104.67, 250.05 104.83, 249.96 105.0, 249.88 105.17, 249.79 105.33, 249.7 105.5, 249.61 105.67, 249.52 105.83, 249.44 106.0, 249.35 106.17, 249.26 106.33, 249.18 106.5, 249.09 106.67, 249.0 106.83, 248.91 107.0, 248.82 107.17, 248.74 107.33, 248.65 107.5, 248.56 107.67, 248.48 107.83, 248.39 108.0, 248.3 108.17, 248.21 108.33, 248.12 108.5, 248.04 108.67, 247.95 108.83, 247.86 109.0, 247.78 109.17, 247.69 109.33, 247.6 109.5, 247.51 109.67, 247.42 109.83, 247.34 110.0, 247.25 110.17, 247.16 110.33, 247.08 110.5, 246.99 110.67, 246.9 110.83, 246.81 111.0, 246.72 111.17, 246.64 111.33, 246.55 111.5, 246.46 111.67, 246.38 111.83, 246.29 112.0, 246.2 112.17, 246.11 112.33, 246.02 112.5, 245.94 112.67, 245.85 112.83, 245.76 113.0, 245.68 113.17, 245.59 113.33, 245.5 113.5, 245.41 113.67, 245.32 113.83, 245.24 114.0, 245.15 114.17, 245.06 114.33, 244.98 114.5, 244.89 114.67, 244.8 114.83, 244.71 115.0, 244.62 115.17, 244.54 115.33, 244.45 115.5, 244.36 115.67, 244.28 115.83, 244.19 116.0, 244.1 116.17, 244.01 116.33, 243.92 116.5, 243.84 116.67, 243.75 116.83, 243.66 117.0, 243.58 117.17, 243.49 117.33, 243.4 117.5, 243.31 117.67, 243.22 117.83, 243.14 118.0, 243.05 118.17, 242.96 118.33, 242.88 118.5, 242.79 118.67, 242.7 118.83, 242.61 119.0, 242.52 119.17, 242.44 119.33, 242.35 119.5, 242.26 119.67, 242.18 119.83, 242.09 120.0, 242.0 120.17, 241.91 120.33, 241.82 120.5, 241.74 120.67, 241.65 120.83, 241.56 121.0, 241.48 121.17, 241.39 121.33, 241.3 121.5, 241.21 121.67, 241.12 121.83, 241.04 122.0, 240.95 122.17, 240.86 122.33, 240.78 122.5, 240.69 122.67, 240.6 122.83, 240.51 123.0, 240.42 123.17, 240.34 123.33, 240.25 123.5, 240.16 123.67, 240.08 123.83, 239.99 124.0, 239.9 124.17, 239.81 124.33, 239.72 124.5, 239.64 124.67, 239.55 124.83, 239.46 125.0, 239.38 125.17, 239.29 125.33, 239.2 125.5, 239.11 125.67, 239.02 125.83, 238.94 126.0, 238.85 126.17, 238.76 126.33, 238.68 126.5, 238.59 126.67, 238.5 126.83, 238.41 127.0, 238.32 127.17, 238.24 127.33, 238.15 127.5, 238.06 127.67, 237.98 127.83, 237.89 128.0, 237.8 128.17, 237.71 128.33, 237.62 128.5, 237.54 128.67, 237.45 128.83, 237.36 129.0, 237.28 129.17, 237.19 129.33, 237.1 129.5, 237.01 129.67, 236.92 129.83, 236.84 130.0, 236.75 130.17, 236.66 130.33, 236.58 130.5, 236.49 130.67, 236.4 130.83, 236.31 131.0, 236.22 131.17, 236.14 131.33, 236.05 131.5, 235.96 131.67, 235.88 131.83, 235.79 132.0, 235.7 132.17, 235.61 132.33, 235.52 132.5, 235.44 132.67, 235.35 132.83, 235.26 133.0, 235.18 133.17, 235.09 133.33, 235.0 133.5, 234.91 133.67, 234.82 133.83, 234.74 134.0, 234.65 134.17, 234.56 134.33, 234.48 134.5, 234.39 134.67, 234.3 134.83, 234.21 135.0, 234.12 135.17, 234.04 135.33, 233.95 135.5, 233.86 135.67, 233.78 135.83, 233.69 136.0, 233.6 136.17, 233.51 136.33, 233.42 136.5, 233.34 136.67, 233.25 136.83, 233.16 137.0, 233.08 137.17, 232.99 137.33, 232.9 137.5, 232.81 137.67, 232.72 137.83, 232.64 138.0, 232.55 138.17, 232.46 138.33, 232.38 138.5, 232.29 138.67, 232.2 138.83, 232.11 139.0, 232.02 139.17, 231.94 139.33, 231.85 139.5, 231.76 139.67, 231.68 139.83, 231.59 140.0, 231.5 140.17, 231.41 140.33, 231.32 140.5, 231.24 140.67, 231.15 140.83, 231.06 141.0, 230.98 141.17, 230.89 141.33, 230.8 141.5, 230.71 141.67, 230.62 141.83, 230.54 142.0, 230.45 142.17, 230.36 142.33, 230.28 142.5, 230.19 142.67, 230.1 142.83, 230.01 143.0, 229.92 143.17, 229.84 143.33, 229.75 143.5, 229.66 143.67, 229.58 143.83, 229.49 144.0, 229.4 144.17, 229.31 144.33, 229.22 144.5, 229.14 144.67, 229.05 144.83, 228.96 145.0, 228.88 145.17, 228.79 145.33, 228.7 145.5, 228.61 145.67, 228.52 145.83, 228.44 146.0, 228.35 146.17, 228.26 146.33, 228.18 146.5, 228.09 146.67, 228.0 146.83, 227.91 147.0, 227.82 147.17, 227.74 147.33, 227.65 147.5, 227.56 147.67, 227.48 147.83, 227.39 148.0, 227.3 148.17, 227.21 148.33, 227.12 148.5, 227.04 148.67, 226.95 148.83, 226.86 149.0, 226.78 149.17, 226.69 149.33, 226.6 149.5, 226.51 149.67, 226.42 149.83, 226.34 150.0, 226.25 150.17, 226.16 150.33, 226.08 150.5, 225.99 150.67, 225.9 150.83, 225.81 151.0, 225.72 151.17, 225.64 151.33, 225.55 151.5, 225.46 151.67, 225.38 151.83, 225.29 152.0, 225.2 152.17, 225.11 152.33, 225.02 152.5, 224.94 152.67, 224.85 152.83, 224.76 153.0, 224.68 153.17, 224.59 153.33, 224.5 153.5, 224.41 153.67, 224.32 153.83, 224.24 154.0, 224.15 154.17, 224.06 154.33, 223.98 154.5, 223.89 154.67, 223.8 154.83, 223.71 155.0, 223.62 155.17, 223.54 155.33, 223.45 155.5, 223.36 155.67, 223.28 155.83, 223.19 156.0, 223.1 156.17, 223.01 156.33, 222.92 156.5, 222.84 156.67, 222.75 156.83, 222.66 157.0, 222.58 157.17, 222.49 157.33, 222.4 157.5, 222.31 157.67, 222.22 157.83, 222.14 158.0, 222.05 158.17, 221.96 158.33, 221.88 158.5, 221.79 158.67, 221.7 158.83, 221.61 159.0, 221.52 159.17, 221.44 159.33, 221.35 159.5, 221.26 159.67, 221.18 159.83, 221.09 160.0, 221.0 160.17, 220.91 160.33, 220.82 160.5, 220.74 160.67, 220.65 160.83, 220.56 161.0, 220.48 161.17, 220.39 161.33, 220.3 161.5, 220.21 161.67, 220.12 161.83, 220.04 162.0, 219.95 162.17, 219.86 162.33, 219.78 162.5, 219.69 162.67, 219.6 162.83, 219.51 163.0, 219.42 163.17, 219.34 163.33, 219.25 163.5, 219.16 163.67, 219.08 163.83, 218.99 164.0, 218.9 164.17, 218.81 164.33, 218.72 164.5, 218.64 164.67, 218.55 164.83, 218.46 165.0, 218.38 165.17, 218.29 165.33, 218.2 165.5, 218.11 165.67, 218.02 165.83, 217.94 166.0, 217.85 166.17, 217.76 166.33, 217.68 166.5, 217.59 166.67, 217.5 166.83, 217.41 167.0, 217.32 167.17, 217.24 167.33, 217.15 167.5, 217.06 167.67, 216.98 167.83, 216.89 168.0, 216.8 168.17, 216.71 168.33, 216.62 168.5, 216.54 168.67, 216.45 168.83, 216.36 169.0, 216.28 169.17, 216.19 169.33, 216.1 169.5, 216.01 169.67, 215.92 169.83, 215.84 170.0, 215.75 170.17, 215.66 170.33, 215.58 170.5, 215.49 170.67, 215.4 170.83, 215.31 171.0, 215.22 171.17, 215.14 171.33, 215.05 171.5, 214.96 171.67, 214.88 171.83, 214.79 172.0, 214.7 172.17, 214.61 172.33, 214.52 172.5, 214.44 172.67, 214.35 172.83, 214.26 173.0, 214.18 173.17, 214.09 173.33, 214.0 173.5, 213.91 173.67, 213.82 173.83, 213.74 174.0, 213.65 174.17, 213.56 174.33, 213.48 174.5, 213.39 174.67, 213.3 174.83, 213.21 175.0, 213.12 175.17, 213.04 175.33, 212.95 175.5, 212.86 175.67, 212.78 175.83, 212.69 176.0, 212.6 176.17, 212.51 176.33, 212.42 176.5, 212.34 176.67, 212.25 176.83, 212.16 177.0, 212.08 177.17, 211.99 177.33, 211.9 177.5, 211.81 177.67, 211.72 177.83, 211.64 178.0, 211.55 178.17, 211.46 178.33, 211.38 178.5, 211.29 178.67, 211.2 178.83, 211.11 179.0, 211.02 179.17, 210.94 179.33, 210.85 179.5, 210.76 179.67, 210.68 179.83, 210.59 180.0, 210.5 180.17, 210.41 180.33, 210.32 180.5, 210.24 180.67, 210.15 180.83, 210.06 181.0, 209.98 181.17, 209.89 181.33, 209.8 181.5, 209.71 181.67, 209.62 181.83, 209.54 182.0, 209.45 182.17, 209.36 182.33, 209.28 182.5, 209.19 182.67, 209.1 182.83, 209.01 183.0, 208.92 183.17, 208.84 183.33, 208.75 183.5, 208.66 183.67, 208.58 183.83, 208.49 184.0, 208.4 184.17, 208.31 184.33, 208.22 184.5, 208.14 184.67, 208.05 184.83, 207.96 185.0, 207.88 185.17, 207.79 185.33, 207.7 185.5, 207.61 185.67, 207.52 185.83, 207.44 186.0, 207.35 186.17, 207.26 186.33, 207.18 186.5, 207.09 186.67, 207.0 186.83, 206.91 187.0, 206.82 187.17, 206.74 187.33, 206.65 187.5, 206.56 187.67, 206.48 187.83, 206.39 188.0, 206.3 188.17, 206.21 188.33, 206.12 188.5, 206.04 188.67, 205.95 188.83, 205.86 189.0, 205.78 189.17, 205.69 189.33, 205.6 189.5, 205.51 189.67, 205.42 189.83, 205.34 190.0, 205.25 190.17, 205.16 190.33, 205.08 190.5, 204.99 190.67, 204.9 190.83, 204.81 191.0, 204.72 191.17, 204.64 191.33, 204.55 191.5, 204.46 191.67, 204.38 191.83, 204.29 192.0, 204.2 192.17, 204.11 192.33, 204.02 192.5, 203.94 192.67, 203.85 192.83, 203.76 193.0, 203.68 193.17, 203.59 193.33, 203.5 193.5, 203.41 193.67, 203.32 193.83, 203.24 194.0, 203.15 194.17, 203.06 194.33, 202.98 194.5, 202.89 194.67, 202.8 194.83, 202.71 195.0, 202.62 195.17, 202.54 195.33, 202.45 195.5, 202.36 195.67, 202.28 195.83, 202.19 196.0, 202.1 196.17, 202.01 196.33, 201.92 196.5, 201.84 196.67, 201.75 196.83, 201.66 197.0, 201.58 197.17, 201.49 197.33, 201.4 197.5, 201.31 197.67, 201.22 197.83, 201.14 198.0, 201.05 198.17, 200.96 198.33, 200.88 198.5, 200.79 198.67, 200.7 198.83, 200.61 199.0, 200.52 199.17, 200.44 199.33, 200.35 199.5, 200.26 199.67, 200.18 199.83, 200.09 200.0, 200.0 200.17, 199.91 200.33, 199.82 200.5, 199.74 200.67, 199.65 200.83, 199.56 201.0, 199.48 201.17, 199.39 201.33, 199.3 201.5, 199.21 201.67, 199.12 201.83, 199.04 202.0, 198.95 202.17, 198.86 202.33, 198.78 202.5, 198.69 202.67, 198.6 202.83, 198.51 203.0, 198.42 203.17, 198.34 203.33, 198.25 203.5, 198.16 203.67, 198.08 203.83, 197.99 204.0, 197.9 204.17, 197.81 204.33, 197.72 204.5, 197.64 204.67, 197.55 204.83, 197.46 205.0, 197.38 205.17, 197.29 205.33, 197.2 205.5, 197.11 205.67, 197.02 205.83, 196.94 206.0, 196.85 206.17, 196.76 206.33, 196.68 206.5, 196.59 206.67, 196.5 206.83, 196.41 207.0, 196.32 207.17, 196.24 207.33, 196.15 207.5, 196.06 207.67, 195.98 207.83, 195.89 208.0, 195.8 208.17, 195.71 208.33, 195.62 208.5, 195.54 208.67, 195.45 208.83, 195.36 209.0, 195.28 209.17, 195.19 209.33, 195.1 209.5, 195.01 209.67, 194.92 209.83, 194.84 210.0, 194.75 210.17, 194.66 210.33, 194.58 210.5, 194.49 210.67, 194.4 210.83, 194.31 211.0, 194.22 211.17, 194.14 211.33, 194.05 211.5, 193.96 211.67, 193.88 211.83, 193.79 212.0, 193.7 212.17, 193.61 212.33, 193.52 212.5, 193.44 212.67, 193.35 212.83, 193.26 213.0, 193.18 213.17, 193.09 213.33, 193.0 213.5, 192.91 213.67, 192.82 213.83, 192.74 214.0, 192.65 214.17, 192.56 214.33, 192.48 214.5, 192.39 214.67, 192.3 214.83, 192.21 215.0, 192.12 215.17, 192.04 215.33, 191.95 215.5, 191.86 215.67, 191.78 215.83, 191.69 216.0, 191.6 216.17, 191.51 216.33, 191.42 216.5, 191.34 216.67, 191.25 216.83, 191.16 217.0, 191.08 217.17, 190.99 217.33, 190.9 217.5, 190.81 217.67, 190.72 217.83, 190.64 218.0, 190.55 218.17, 190.46 218.33, 190.38 218.5, 190.29 218.67, 190.2 218.83, 190.11 219.0, 190.02 219.17, 189.94 219.33, 189.85 219.5, 189.76 219.67, 189.68 219.83, 189.59 220.0, 189.5 220.17, 189.41 220.33, 189.32 220.5, 189.24 220.67, 189.15 220.83, 189.06 221.0, 188.98 221.17, 188.89 221.33, 188.8 221.5, 188.71 221.67, 188.62 221.83, 188.54 222.0, 188.45 222.17, 188.36 222.33, 188.28 222.5, 188.19 222.67, 188.1 222.83, 188.01 223.0, 187.92 223.17, 187.84 223.33, 187.75 223.5, 187.66 223.67, 187.58 223.83, 187.49 224.0, 187.4 224.17, 187.31 224.33, 187.22 224.5, 187.14 224.67, 187.05 224.83, 186.96 225.0, 186.88 225.17, 186.79 225.33, 186.7 225.5, 186.61 225.67, 186.52 225.83, 186.44 226.0, 186.35 226.17, 186.26 226.33, 186.18 226.5, 186.09 226.67, 186.0 226.83, 185.91 227.0, 185.82 227.17, 185.74 227.33, 185.65 227.5, 185.56 227.67, 185.48 227.83, 185.39 228.0, 185.3 228.17, 185.21 228.33, 185.12 228.5, 185.04 228.67, 184.95 228.83, 184.86 229.0, 184.78 229.17, 184.69 229.33, 184.6 229.5, 184.51 229.67, 184.42 229.83, 184.34 230.0, 184.25 230.17, 184.16 230.33, 184.08 230.5, 183.99 230.67, 183.9 230.83, 183.81 231.0, 183.72 231.17, 183.64 231.33, 183.55 231.5, 183.46 231.67, 183.38 231.83, 183.29 232.0, 183.2 232.17, 183.11 232.33, 183.02 232.5, 182.94 232.67, 182.85 232.83, 182.76 233.0, 182.68 233.17, 182.59 233.33, 182.5 233.5, 182.41 233.67, 182.32 233.83, 182.24 234.0, 182.15 234.17, 182.06 234.33, 181.98 234.5, 181.89 234.67, 181.8 234.83, 181.71 235.0, 181.62 235.17, 181.54 235.33, 181.45 235.5, 181.36 235.67, 181.28 235.83, 181.19 236.0, 181.1 236.17, 181.01 236.33, 180.92 236.5, 180.84 236.67, 180.75 236.83, 180.66 237.0, 180.58 237.17, 180.49 237.33, 180.4 237.5, 180.31 237.67, 180.22 237.83, 180.14 238.0, 180.05 238.17, 179.96 238.33, 179.88 238.5, 179.79 238.67, 179.7 238.83, 179.61 239.0, 179.52 239.17, 179.44 239.33, 179.35 239.5, 179.26 239.67, 179.18 239.83, 179.09 240.0, 179.0 240.17, 178.91 240.33, 178.82 240.5, 178.74 240.67, 178.65 240.83, 178.56 241.0, 178.48 241.17, 178.39 241.33, 178.3 241.5, 178.21 241.67, 178.12 241.83, 178.04 242.0, 177.95 242.17, 177.86 242.33, 177.78 242.5, 177.69 242.67, 177.6 242.83, 177.51 243.0, 177.42 243.17, 177.34 243.33, 177.25 243.5, 177.16 243.67, 177.08 243.83, 176.99 244.0, 176.9 244.17, 176.81 244.33, 176.72 244.5, 176.64 244.67, 176.55 244.83, 176.46 245.0, 176.38 245.17, 176.29 245.33, 176.2 245.5, 176.11 245.67, 176.02 245.83, 175.94 246.0, 175.85 246.17, 175.76 246.33, 175.68 246.5, 175.59 246.67, 175.5 246.83, 175.41 247.0, 175.32 247.17, 175.24 247.33, 175.15 247.5, 175.06 247.67, 174.98 247.83, 174.89 248.0, 174.8 248.17, 174.71 248.33, 174.62 248.5, 174.54 248.67, 174.45 248.83, 174.36 249.0, 174.28 249.17, 174.19 249.33, 174.1 249.5, 174.01 249.67, 173.92 249.83, 173.84 250.0, 173.75 250.17, 173.66 250.33, 173.58 250.5, 173.49 250.67, 173.4 250.83, 173.31 251.0, 173.22 251.17, 173.14 251.33, 173.05 251.5, 172.96 251.67, 172.88 251.83, 172.79 252.0, 172.7 252.17, 172.61 252.33, 172.52 252.5, 172.44 252.67, 172.35 252.83, 172.26 253.0, 172.18 253.17, 172.09 253.33, 172.0 253.5, 171.91 253.67, 171.82 253.83, 171.74 254.0, 171.65 254.17, 171.56 254.33, 171.48 254.5, 171.39 254.67, 171.3 254.83, 171.21 255.0, 171.12 255.17, 171.04 255.33, 170.95 255.5, 170.86 255.67, 170.78 255.83, 170.69 256.0, 170.6 256.17, 170.51 256.33, 170.42 256.5, 170.34 256.67, 170.25 256.83, 170.16 257.0, 170.08 257.17, 169.99 257.33, 169.9 257.5, 169.81 257.67, 169.72 257.83, 169.64 258.0, 169.55 258.17, 169.46 258.33, 169.38 258.5, 169.29 258.67, 169.2 258.83, 169.11 259.0, 169.02 259.17, 168.94 259.33, 168.85 259.5, 168.76 259.67, 168.68 259.83, 168.59 260.0, 168.5 260.17, 168.41 260.33, 168.32 260.5, 168.24 260.67, 168.15 260.83, 168.06 261.0, 167.98 261.17, 167.89 261.33, 167.8 261.5, 167.71 261.67, 167.62 261.83, 167.54 262.0, 167.45 262.17, 167.36 262.33, 167.28 262.5, 167.19 262.67, 167.1 262.83, 167.01 263.0, 166.92 263.17, 166.84 263.33, 166.75 263.5, 166.66 263.67, 166.58 263.83, 166.49 264.0, 166.4 264.17, 166.31 264.33, 166.22 264.5, 166.14 264.67, 166.05 264.83, 165.96 265.0, 165.88 265.17, 165.79 265.33, 165.7 265.5, 165.61 265.67, 165.52 265.83, 165.44 266.0, 165.35 266.17, 165.26 266.33, 165.18 266.5, 165.09 266.67, 165.0 266.83, 164.91 267.0, 164.82 267.17, 164.74 267.33, 164.65 267.5, 164.56 267.67, 164.48 267.83, 164.39 268.0, 164.3 268.17, 164.21 268.33, 164.12 268.5, 164.04 268.67, 163.95 268.83, 163.86 269.0, 163.78 269.17, 163.69 269.33, 163.6 269.5, 163.51 269.67, 163.43 269.83, 163.34 270.0, 163.25 270.17, 163.16 270.33, 163.07 270.5, 162.99 270.67, 162.9 270.83, 162.81 271.0, 162.72 271.17, 162.64 271.33, 162.55 271.5, 162.46 271.67, 162.38 271.83, 162.29 272.0, 162.2 272.17, 162.11 272.33, 162.02 272.5, 161.94 272.67, 161.85 272.83, 161.76 273.0, 161.68 273.17, 161.59 273.33, 161.5 273.5, 161.41 273.67, 161.32 273.83, 161.24 274.0, 161.15 274.17, 161.06 274.33, 160.98 274.5, 160.89 274.67, 160.8 274.83, 160.71 275.0, 160.62 275.17, 160.54 275.33, 160.45 275.5, 160.36 275.67, 160.28 275.83, 160.19 276.0, 160.1 276.17, 160.01 276.33, 159.93 276.5, 159.84 276.67, 159.75 276.83, 159.66 277.0, 159.57 277.17, 159.49 277.33, 159.4 277.5, 159.31 277.67, 159.22 277.83, 159.14 278.0, 159.05 278.17, 158.96 278.33, 158.88 278.5, 158.79 278.67, 158.7 278.83, 158.61 279.0, 158.52 279.17, 158.44 279.33, 158.35 279.5, 158.26 279.67, 158.18 279.83, 158.09 280.0, 158.0 280.17, 157.91 280.33, 157.82 280.5, 157.74 280.67, 157.65 280.83, 157.56 281.0, 157.48 281.17, 157.39 281.33, 157.3 281.5, 157.21 281.67, 157.12 281.83, 157.04 282.0, 156.95 282.17, 156.86 282.33, 156.78 282.5, 156.69 282.67, 156.6 282.83, 156.51 283.0, 156.42 283.17, 156.34 283.33, 156.25 283.5, 156.16 283.67, 156.07 283.83, 155.99 284.0, 155.9 284.17, 155.81 284.33, 155.72 284.5, 155.64 284.67, 155.55 284.83, 155.46 285.0, 155.38 285.17, 155.29 285.33, 155.2 285.5, 155.11 285.67, 155.02 285.83, 154.94 286.0, 154.85 286.17, 154.76 286.33, 154.68 286.5, 154.59 286.67, 154.5 286.83, 154.41 287.0, 154.32 287.17, 154.24 287.33, 154.15 287.5, 154.06 287.67, 153.98 287.83, 153.89 288.0, 153.8 288.17, 153.71 288.33, 153.62 288.5, 153.54 288.67, 153.45 288.83, 153.36 289.0, 153.28 289.17, 153.19 289.33, 153.1 289.5, 153.01 289.67, 152.93 289.83, 152.84 290.0, 152.75 290.17, 152.66 290.33, 152.57 290.5, 152.49 290.67, 152.4 290.83, 152.31 291.0, 152.22 291.17, 152.14 291.33, 152.05 291.5, 151.96 291.67, 151.88 291.83, 151.79 292.0, 151.7 292.17, 151.61 292.33, 151.52 292.5, 151.44 292.67, 151.35 292.83, 151.26 293.0, 151.18 293.17, 151.09 293.33, 151.0 293.5, 150.91 293.67, 150.82 293.83, 150.74 294.0, 150.65 294.17, 150.56 294.33, 150.48 294.5, 150.39 294.67, 150.3 294.83, 150.21 295.0, 150.12 295.17, 150.04 295.33, 149.95 295.5, 149.86 295.67, 149.78 295.83, 149.69 296.0, 149.6 296.17, 149.51 296.33, 149.43 296.5, 149.34 296.67, 149.25 296.83, 149.16 297.0, 149.07 297.17, 148.99 297.33, 148.9 297.5, 148.81 297.67, 148.73 297.83, 148.64 298.0, 148.55 298.17, 148.46 298.33, 148.38 298.5, 148.29 298.67, 148.2 298.83, 148.11 299.0, 148.02 299.17, 147.94 299.33, 147.85 299.5, 147.76 299.67, 147.68 299.83, 147.59 300.0, 147.5 300.17, 147.41 300.33, 147.32 300.5, 147.24 300.67, 147.15 300.83, 147.06 301.0, 146.98 301.17, 146.89 301.33, 146.8 301.5, 146.71 301.67, 146.62 301.83, 146.54 302.0, 146.45 302.17, 146.36 302.33, 146.28 302.5, 146.19 302.67, 146.1 302.83, 146.01 303.0, 145.93 303.17, 145.84 303.33, 145.75 303.5, 145.66 303.67, 145.57 303.83, 145.49 304.0, 145.4 304.17, 145.31 304.33, 145.22 304.5, 145.14 304.67, 145.05 304.83, 144.96 305.0, 144.88 305.17, 144.79 305.33, 144.7 305.5, 144.61 305.67, 144.52 305.83, 144.44 306.0, 144.35 306.17, 144.26 306.33, 144.18 306.5, 144.09 306.67, 144.0 306.83, 143.91 307.0, 143.82 307.17, 143.74 307.33, 143.65 307.5, 143.56 307.67, 143.48 307.83, 143.39 308.0, 143.3 308.17, 143.21 308.33, 143.12 308.5, 143.04 308.67, 142.95 308.83, 142.86 309.0, 142.78 309.17, 142.69 309.33, 142.6 309.5, 142.51 309.67, 142.43 309.83, 142.34 310.0, 142.25 310.17, 142.16 310.33, 142.07 310.5, 141.99 310.67, 141.9 310.83, 141.81 311.0, 141.72 311.17, 141.64 311.33, 141.55 311.5, 141.46 311.67, 141.38 311.83, 141.29 312.0, 141.2 312.17, 141.11 312.33, 141.02 312.5, 140.94 312.67, 140.85 312.83, 140.76 313.0, 140.67 313.17, 140.59 313.33, 140.5 313.5, 140.41 313.67, 140.32 313.83, 140.24 314.0, 140.15 314.17, 140.06 314.33, 139.98 314.5, 139.89 314.67, 139.8 314.83, 139.71 315.0, 139.62 315.17, 139.54 315.33, 139.45 315.5, 139.36 315.67, 139.28 315.83, 139.19 316.0, 139.1 316.17, 139.01 316.33, 138.93 316.5, 138.84 316.67, 138.75 316.83, 138.66 317.0, 138.57 317.17, 138.49 317.33, 138.4 317.5, 138.31 317.67, 138.23 317.83, 138.14 318.0, 138.05 318.17, 137.96 318.33, 137.88 318.5, 137.79 318.67, 137.7 318.83, 137.61 319.0, 137.52 319.17, 137.44 319.33, 137.35 319.5, 137.26 319.67, 137.18 319.83, 137.09 320.0, 137.0 320.17, 136.91 320.33, 136.82 320.5, 136.74 320.67, 136.65 320.83, 136.56 321.0, 136.48 321.17, 136.39 321.33, 136.3 321.5, 136.21 321.67, 136.12 321.83, 136.04 322.0, 135.95 322.17, 135.86 322.33, 135.78 322.5, 135.69 322.67, 135.6 322.83, 135.51 323.0, 135.43 323.17, 135.34 323.33, 135.25 323.5, 135.16 323.67, 135.07 323.83, 134.99 324.0, 134.9 324.17, 134.81 324.33, 134.72 324.5, 134.64 324.67, 134.55 324.83, 134.46 325.0, 134.38 325.17, 134.29 325.33, 134.2 325.5, 134.11 325.67, 134.02 325.83, 133.94 326.0, 133.85 326.17, 133.76 326.33, 133.68 326.5, 133.59 326.67, 133.5 326.83, 133.41 327.0, 133.32 327.17, 133.24 327.33, 133.15 327.5, 133.06 327.67, 132.98 327.83, 132.89 328.0, 132.8 328.17, 132.71 328.33, 132.62 328.5, 132.54 328.67, 132.45 328.83, 132.36 329.0, 132.27 329.17, 132.19 329.33, 132.1 329.5, 132.01 329.67, 131.93 329.83, 131.84 330.0, 131.75 330.17, 131.66 330.33, 131.57 330.5, 131.49 330.67, 131.4 330.83, 131.31 331.0, 131.22 331.17, 131.14 331.33, 131.05 331.5, 130.96 331.67, 130.88 331.83, 130.79 332.0, 130.7 332.17, 130.61 332.33, 130.52 332.5, 130.44 332.67, 130.35 332.83, 130.26 333.0, 130.18 333.17, 130.09 333.33, 130.0 333.5, 129.91 333.67, 129.82 333.83, 129.74 334.0, 129.65 334.17, 129.56 334.33, 129.48 334.5, 129.39 334.67, 129.3 334.83, 129.21 335.0, 129.12 335.17, 129.04 335.33, 128.95 335.5, 128.86 335.67, 128.77 335.83, 128.69 336.0, 128.6 336.17, 128.51 336.33, 128.43 336.5, 128.34 336.67, 128.25 336.83, 128.16 337.0, 128.07 337.17, 127.99 337.33, 127.9 337.5, 127.81 337.67, 127.72 337.83, 127.64 338.0, 127.55 338.17, 127.46 338.33, 127.38 338.5, 127.29 338.67, 127.2 338.83, 127.11 339.0, 127.02 339.17, 126.94 339.33, 126.85 339.5, 126.76 339.67, 126.68 339.83, 126.59 340.0, 126.5 340.17, 126.41 340.33, 126.32 340.5, 126.24 340.67, 126.15 340.83, 126.06 341.0, 125.98 341.17, 125.89 341.33, 125.8 341.5, 125.71 341.67, 125.62 341.83, 125.54 342.0, 125.45 342.17, 125.36 342.33, 125.28 342.5, 125.19 342.67, 125.1 342.83, 125.01 343.0, 124.93 343.17, 124.84 343.33, 124.75 343.5, 124.66 343.67, 124.57 343.83, 124.49 344.0, 124.4 344.17, 124.31 344.33, 124.22 344.5, 124.14 344.67, 124.05 344.83, 123.96 345.0, 123.88 345.17, 123.79 345.33, 123.7 345.5, 123.61 345.67, 123.52 345.83, 123.44 346.0, 123.35 346.17, 123.26 346.33, 123.18 346.5, 123.09 346.67, 123.0 346.83, 122.91 347.0, 122.82 347.17, 122.74 347.33, 122.65 347.5, 122.56 347.67, 122.48 347.83, 122.39 348.0, 122.3 348.17, 122.21 348.33, 122.12 348.5, 122.04 348.67, 121.95 348.83, 121.86 349.0, 121.78 349.17, 121.69 349.33, 121.6 349.5, 121.51 349.67, 121.42 349.83, 121.34 350.0, 121.25 350.17, 121.16 350.33, 121.08 350.5, 120.99 350.67, 120.9 350.83, 120.81 351.0, 120.72 351.17, 120.64 351.33, 120.55 351.5, 120.46 351.67, 120.38 351.83, 120.29 352.0, 120.2 352.17, 120.11 352.33, 120.02 352.5, 119.94 352.67, 119.85 352.83, 119.76 353.0, 119.68 353.17, 119.59 353.33, 119.5 353.5, 119.41 353.67, 119.32 353.83, 119.24 354.0, 119.15 354.17, 119.06 354.33, 118.98 354.5, 118.89 354.67, 118.8 354.83, 118.71 355.0, 118.62 355.17, 118.54 355.33, 118.45 355.5, 118.36 355.67, 118.28 355.83, 118.19 356.0, 118.1 356.17, 118.01 356.33, 117.93 356.5, 117.84 356.67, 117.75 356.83, 117.66 357.0, 117.58 357.17, 117.49 357.33, 117.4 357.5, 117.31 357.67, 117.22 357.83, 117.14 358.0, 117.05 358.17, 116.96 358.33, 116.88 358.5, 116.79 358.67, 116.7 358.83, 116.61 359.0, 116.52 359.17, 116.44 359.33, 116.35 359.5, 116.26 359.67, 116.18 359.83, 116.09 360.0, 116.0 360.17, 115.91 360.33, 115.83 360.5, 115.74 360.67, 115.65 360.83, 115.56 361.0, 115.48 361.17, 115.39 361.33, 115.3 361.5, 115.21 361.67, 115.12 361.83, 115.04 362.0, 114.95 362.17, 114.86 362.33, 114.78 362.5, 114.69 362.67, 114.6 362.83, 114.51 363.0, 114.42 363.17, 114.34 363.33, 114.25 363.5, 114.16 363.67, 114.07 363.83, 113.99 364.0, 113.9 364.17, 113.81 364.33, 113.72 364.5, 113.64 364.67, 113.55 364.83, 113.46 365.0, 113.38 365.17, 113.29 365.33, 113.2 365.5, 113.11 365.67, 113.02 365.83, 112.94 366.0, 112.85 366.17, 112.76 366.33, 112.68 366.5, 112.59 366.67, 112.5 366.83, 112.41 367.0, 112.32 367.17, 112.24 367.33, 112.15 367.5, 112.06 367.67, 111.98 367.83, 111.89 368.0, 111.8 368.17, 111.71 368.33, 111.62 368.5, 111.54 368.67, 111.45 368.83, 111.36 369.0, 111.28 369.17, 111.19 369.33, 111.1 369.5, 111.01 369.67, 110.93 369.83, 110.84 370.0, 110.75 370.17, 110.66 370.33, 110.58 370.5, 110.49 370.67, 110.4 370.83, 110.31 371.0, 110.22 371.17, 110.14 371.33, 110.05 371.5, 109.96 371.67, 109.87 371.83, 109.79 372.0, 109.7 372.17, 109.61 372.33, 109.52 372.5, 109.44 372.67, 109.35 372.83, 109.26 373.0, 109.17 373.17, 109.09 373.33, 109.0 373.5, 108.91 373.67, 108.82 373.83, 108.74 374.0, 108.65 374.17, 108.56 374.33, 108.48 374.5, 108.39 374.67, 108.3 374.83, 108.21 375.0, 108.12 375.17, 108.04 375.33, 107.95 375.5, 107.86 375.67, 107.78 375.83, 107.69 376.0, 107.6 376.17, 107.51 376.33, 107.42 376.5, 107.34 376.67, 107.25 376.83, 107.16 377.0, 107.07 377.17, 106.99 377.33, 106.9 377.5, 106.81 377.67, 106.72 377.83, 106.64 378.0, 106.55 378.17, 106.46 378.33, 106.38 378.5, 106.29 378.67, 106.2 378.83, 106.11 379.0, 106.02 379.17, 105.94 379.33, 105.85 379.5, 105.76 379.67, 105.68 379.83, 105.59 380.0, 105.5 380.17, 105.41 380.33, 105.32 380.5, 105.24 380.67, 105.15 380.83, 105.06 381.0, 104.98 381.17, 104.89 381.33, 104.8 381.5, 104.71 381.67, 104.62 381.83, 104.54 382.0, 104.45 382.17, 104.36 382.33, 104.27 382.5, 104.19 382.67, 104.1 382.83, 104.01 383.0, 103.92 383.17, 103.84 383.33, 103.75 383.5, 103.66 383.67, 103.58 383.83, 103.49 384.0, 103.4 384.17, 103.31 384.33, 103.22 384.5, 103.14 384.67, 103.05 384.83, 102.96 385.0, 102.88 385.17, 102.79 385.33, 102.7 385.5, 102.61 385.67, 102.52 385.83, 102.44 386.0, 102.35 386.17, 102.26 386.33, 102.18 386.5, 102.09 386.67, 102.0 386.83, 101.91 387.0, 101.82 387.17, 101.74 387.33, 101.65 387.5, 101.56 387.67, 101.48 387.83, 101.39 388.0, 101.3 388.17, 101.21 388.33, 101.12 388.5, 101.04 388.67, 100.95 388.83, 100.86 389.0, 100.78 389.17, 100.69 389.33, 100.6 389.5, 100.51 389.67, 100.43 389.83, 100.34 390.0, 100.25 390.17, 100.16 390.33, 100.08 390.5, 99.99 390.67, 99.9 390.83, 99.81 391.0, 99.72 391.17, 99.64 391.33, 99.55 391.5, 99.46 391.67, 99.37 391.83, 99.29 392.0, 99.2 392.17, 99.11 392.33, 99.02 392.5, 98.94 392.67, 98.85 392.83, 98.76 393.0, 98.68 393.17, 98.59 393.33, 98.5 393.5, 98.41 393.67, 98.32 393.83, 98.24 394.0, 98.15 394.17, 98.06 394.33, 97.98 394.5, 97.89 394.67, 97.8 394.83, 97.71 395.0, 97.62 395.17, 97.54 395.33, 97.45 395.5, 97.36 395.67, 97.28 395.83, 97.19 396.0, 97.1 396.17, 97.01 396.33, 96.92 396.5, 96.84 396.67, 96.75 396.83, 96.66 397.0, 96.58 397.17, 96.49 397.33, 96.4 397.5, 96.31 397.67, 96.22 397.83, 96.14 398.0, 96.05 398.17, 95.96 398.33, 95.88 398.5, 95.79 398.67, 95.7 398.83, 95.61 399.0, 95.52 399.17, 95.44 399.33, 95.35 399.5, 95.26 399.67, 95.18 399.83, 95.09 400.0, 95.0 " fill="none" stroke="white" stroke-width="1.5" stroke-linejoin="round" stroke-opacity="1"/>

 </svg>