<svg version="1.1" 
 baseProfile="full" 
 width="400" 
 height="400" 
 xmlns="http://www.w3.org/2000/svg">
<rect x="0.0" y="0.0" width="400" height="400" fill="black" stroke="black" stroke-width="0" opacity="1"/>
<line x1="0.0" y1="0.0" x2="0.0" y2="400.0" stroke="white" stroke-width="1" opacity="0.4" stroke-linecap="butt"/>
<line x1="40.0" y1="0.0" x2="40.0" y2="400.0" stroke="white" stroke-width="1" opacity="0.4" stroke-linecap="butt"/>
<line x1="80.0" y1="0.0" x2="80.0" y2="400.0" stroke="white" stroke-width="1" opacity="0.4" stroke-linecap="butt"/>
<line x1="120.0" y1="0.0" x2="120.0" y2="400.0" stroke="white" stroke-width="1" opacity="0.4" stroke-linecap="butt"/>
<line x1="160.0" y1="0.0" x2="160.0" y2="400.0" stroke="white" stroke-width="1" opacity="0.4" stroke-linecap="butt"/>
<line x1="200.0" y1="0.0" x2="200.0" y2="400.0" stroke="white" stroke-width="1" opacity="0.4" stroke-linecap="butt"/>
<line x1="240.0" y1="0.0" x2="240.0" y2="400.0" stroke="white" stroke-width="1" opacity="0.4" stroke-linecap="butt"/>
<line x1="280.0" y1="0.0" x2="280.0" y2="400.0" stroke="white" stroke-width="1" opacity="0.4" stroke-linecap="butt"/>
<line x1="320.0" y1="0.0" x2="320.0" y2="400.0" stroke="white" stroke-width="1" opacity="0.4" stroke-linecap="butt"/>
<line x1="360.0" y1="0.0" x2="360.0" y2="400.0" stroke="white" stroke-width="1" opacity="0.4" stroke-linecap="butt"/>
<line x1="0.0" y1="0.0" x2="400.0" y2="0.0" stroke="white" stroke-width="1" opacity="0.4" stroke-linecap="butt"/>
<line x1="0.0" y1="40.0" x2="400.0" y2="40.0" stroke="white" stroke-width="1" opacity="0.4" stroke-linecap="butt"/>
<line x1="0.0" y1="80.0" x2="400.0" y2="80.0" stroke="white" stroke-width="1" opacity="0.4" stroke-linecap="butt"/>
<line x1="0.0" y1="120.0" x2="400.0" y2="120.0" stroke="white" stroke-width="1" opacity="0.4" stroke-linecap="butt"/>
<line x1="0.0" y1="160.0" x2="400.0" y2="160.0" stroke="white" stroke-width="1" opacity="0.4" stroke-linecap="butt"/>
<line x1="0.0" y1="200.0" x2="400.0" y2="200.0" stroke="white" stroke-width="1" opacity="0.4" stroke-linecap="butt"/>
<line x1="0.0" y1="240.0" x2="400.0" y2="240.0" stroke="white" stroke-width="1" opacity="0.4" stroke-linecap="butt"/>
<line x1="0.0" y1="280.0" x2="400.0" y2="280.0" stroke="white" stroke-width="1" opacity="0.4" stroke-linecap="butt"/>
<line x1="0.0" y1="320.0" x2="400.0" y2="320.0" stroke="white" stroke-width="1" opacity="0.4" stroke-linecap="butt"/>
<line x1="0.0" y1="360.0" x2="400.0" y2="360.0" stroke="white" stroke-width="1" opacity="0.4" stroke-linecap="butt"/>
<line x1="0.0" y1="200.0" x2="400.0" y2="200.0" stroke="yellow" stroke-width="2.5" opacity="1" stroke-linecap="butt"/>
<line x1="200.0" y1="0.0" x2="200.0" y2="400.0" stroke="yellow" stroke-width="2.5" opacity="1" stroke-linecap="butt"/>
<polygon points="391.0 204.0, 401.0 200.0, 391.0 196.0, 393.0 200.0" fill="yellow"/><polygon points="204.0 9.0, 200.0 -1.0, 196.0 9.0, 200.0 7.0" fill="yellow"/><image x="-60.0" y="-60.0" width="200" height="200" href="/Users/girirajhira/PycharmProjects/Giraphics3/Taylor/expr.png"/><polyline points="0.0, 300.0 0.17, 299.92 0.33, 299.83 0.5, 299.75 0.67, 299.67 0.83, 299.58 1.0, 299.5 1.17, 299.42 1.33, 299.33 1.5, 299.25 1.67, 299.17 1.83, 299.08 2.0, 299.0 2.17, 298.92 2.33, 298.83 2.5, 298.75 2.67, 298.67 2.83, 298.58 3.0, 298.5 3.17, 298.42 3.33, 298.33 3.5, 298.25 3.67, 298.17 3.83, 298.08 4.0, 298.0 4.17, 297.92 4.33, 297.83 4.5, 297.75 4.67, 297.67 4.83, 297.58 5.0, 297.5 5.17, 297.42 5.33, 297.33 5.5, 297.25 5.67, 297.17 5.83, 297.08 6.0, 297.0 6.17, 296.92 6.33, 296.83 6.5, 296.75 6.67, 296.67 6.83, 296.58 7.0, 296.5 7.17, 296.42 7.33, 296.33 7.5, 296.25 7.67, 296.17 7.83, 296.08 8.0, 296.0 8.17, 295.92 8.33, 295.83 8.5, 295.75 8.67, 295.67 8.83, 295.58 9.0, 295.5 9.17, 295.42 9.33, 295.33 9.5, 295.25 9.67, 295.17 9.83, 295.08 10.0, 295.0 10.17, 294.92 10.33, 294.83 10.5, 294.75 10.67, 294.67 10.83, 294.58 11.0, 294.5 11.17, 294.42 11.33, 294.33 11.5, 294.25 11.67, 294.17 11.83, 294.08 12.0, 294.0 12.17, 293.92 12.33, 293.83 12.5, 293.75 12.67, 293.67 12.83, 293.58 13.0, 293.5 13.17, 293.42 13.33, 293.33 13.5, 293.25 13.67, 293.17 13.83, 293.08 14.0, 293.0 14.17, 292.92 14.33, 292.83 14.5, 292.75 14.67, 292.67 14.83, 292.58 15.0, 292.5 15.17, 292.42 15.33, 292.33 15.5, 292.25 15.67, 292.17 15.83, 292.08 16.0, 292.0 16.17, 291.92 16.33, 291.83 16.5, 291.75 16.67, 291.67 16.83, 291.58 17.0, 291.5 17.17, 291.42 17.33, 291.33 17.5, 291.25 17.67, 291.17 17.83, 291.08 18.0, 291.0 18.17, 290.92 18.33, 290.83 18.5, 290.75 18.67, 290.67 18.83, 290.58 19.0, 290.5 19.17, 290.42 19.33, 290.33 19.5, 290.25 19.67, 290.17 19.83, 290.08 20.0, 290.0 20.17, 289.92 20.33, 289.83 20.5, 289.75 20.67, 289.67 20.83, 289.58 21.0, 289.5 21.17, 289.42 21.33, 289.33 21.5, 289.25 21.67, 289.17 21.83, 289.08 22.0, 289.0 22.17, 288.92 22.33, 288.83 22.5, 288.75 22.67, 288.67 22.83, 288.58 23.0, 288.5 23.17, 288.42 23.33, 288.33 23.5, 288.25 23.67, 288.17 23.83, 288.08 24.0, 288.0 24.17, 287.92 24.33, 287.83 24.5, 287.75 24.67, 287.67 24.83, 287.58 25.0, 287.5 25.17, 287.42 25.33, 287.33 25.5, 287.25 25.67, 287.17 25.83, 287.08 26.0, 287.0 26.17, 286.92 26.33, 286.83 26.5, 286.75 26.67, 286.67 26.83, 286.58 27.0, 286.5 27.17, 286.42 27.33, 286.33 27.5, 286.25 27.67, 286.17 27.83, 286.08 28.0, 286.0 28.17, 285.92 28.33, 285.83 28.5, 285.75 28.67, 285.67 28.83, 285.58 29.0, 285.5 29.17, 285.42 29.33, 285.33 29.5, 285.25 29.67, 285.17 29.83, 285.08 30.0, 285.0 30.17, 284.92 30.33, 284.83 30.5, 284.75 30.67, 284.67 30.83, 284.58 31.0, 284.5 31.17, 284.42 31.33, 284.33 31.5, 284.25 31.67, 284.17 31.83, 284.08 32.0, 284.0 32.17, 283.92 32.33, 283.83 32.5, 283.75 32.67, 283.67 32.83, 283.58 33.0, 283.5 33.17, 283.42 33.33, 283.33 33.5, 283.25 33.67, 283.17 33.83, 283.08 34.0, 283.0 34.17, 282.92 34.33, 282.83 34.5, 282.75 34.67, 282.67 34.83, 282.58 35.0, 282.5 35.17, 282.42 35.33, 282.33 35.5, 282.25 35.67, 282.17 35.83, 282.08 36.0, 282.0 36.17, 281.92 36.33, 281.83 36.5, 281.75 36.67, 281.67 36.83, 281.58 37.0, 281.5 37.17, 281.42 37.33, 281.33 37.5, 281.25 37.67, 281.17 37.83, 281.08 38.0, 281.0 38.17, 280.92 38.33, 280.83 38.5, 280.75 38.67, 280.67 38.83, 280.58 39.0, 280.5 39.17, 280.42 39.33, 280.33 39.5, 280.25 39.67, 280.17 39.83, 280.08 40.0, 280.0 40.17, 279.92 40.33, 279.83 40.5, 279.75 40.67, 279.67 40.83, 279.58 41.0, 279.5 41.17, 279.42 41.33, 279.33 41.5, 279.25 41.67, 279.17 41.83, 279.08 42.0, 279.0 42.17, 278.92 42.33, 278.83 42.5, 278.75 42.67, 278.67 42.83, 278.58 43.0, 278.5 43.17, 278.42 43.33, 278.33 43.5, 278.25 43.67, 278.17 43.83, 278.08 44.0, 278.0 44.17, 277.92 44.33, 277.83 44.5, 277.75 44.67, 277.67 44.83, 277.58 45.0, 277.5 45.17, 277.42 45.33, 277.33 45.5, 277.25 45.67, 277.17 45.83, 277.08 46.0, 277.0 46.17, 276.92 46.33, 276.83 46.5, 276.75 46.67, 276.67 46.83, 276.58 47.0, 276.5 47.17, 276.42 47.33, 276.33 47.5, 276.25 47.67, 276.17 47.83, 276.08 48.0, 276.0 48.17, 275.92 48.33, 275.83 48.5, 275.75 48.67, 275.67 48.83, 275.58 49.0, 275.5 49.17, 275.42 49.33, 275.33 49.5, 275.25 49.67, 275.17 49.83, 275.08 50.0, 275.0 50.17, 274.92 50.33, 274.83 50.5, 274.75 50.67, 274.67 50.83, 274.58 51.0, 274.5 51.17, 274.42 51.33, 274.33 51.5, 274.25 51.67, 274.17 51.83, 274.08 52.0, 274.0 52.17, 273.92 52.33, 273.83 52.5, 273.75 52.67, 273.67 52.83, 273.58 53.0, 273.5 53.17, 273.42 53.33, 273.33 53.5, 273.25 53.67, 273.17 53.83, 273.08 54.0, 273.0 54.17, 272.92 54.33, 272.83 54.5, 272.75 54.67, 272.67 54.83, 272.58 55.0, 272.5 55.17, 272.42 55.33, 272.33 55.5, 272.25 55.67, 272.17 55.83, 272.08 56.0, 272.0 56.17, 271.92 56.33, 271.83 56.5, 271.75 56.67, 271.67 56.83, 271.58 57.0, 271.5 57.17, 271.42 57.33, 271.33 57.5, 271.25 57.67, 271.17 57.83, 271.08 58.0, 271.0 58.17, 270.92 58.33, 270.83 58.5, 270.75 58.67, 270.67 58.83, 270.58 59.0, 270.5 59.17, 270.42 59.33, 270.33 59.5, 270.25 59.67, 270.17 59.83, 270.08 60.0, 270.0 60.17, 269.92 60.33, 269.83 60.5, 269.75 60.67, 269.67 60.83, 269.58 61.0, 269.5 61.17, 269.42 61.33, 269.33 61.5, 269.25 61.67, 269.17 61.83, 269.08 62.0, 269.0 62.17, 268.92 62.33, 268.83 62.5, 268.75 62.67, 268.67 62.83, 268.58 63.0, 268.5 63.17, 268.42 63.33, 268.33 63.5, 268.25 63.67, 268.17 63.83, 268.08 64.0, 268.0 64.17, 267.92 64.33, 267.83 64.5, 267.75 64.67, 267.67 64.83, 267.58 65.0, 267.5 65.17, 267.42 65.33, 267.33 65.5, 267.25 65.67, 267.17 65.83, 267.08 66.0, 267.0 66.17, 266.92 66.33, 266.83 66.5, 266.75 66.67, 266.67 66.83, 266.58 67.0, 266.5 67.17, 266.42 67.33, 266.33 67.5, 266.25 67.67, 266.17 67.83, 266.08 68.0, 266.0 68.17, 265.92 68.33, 265.83 68.5, 265.75 68.67, 265.67 68.83, 265.58 69.0, 265.5 69.17, 265.42 69.33, 265.33 69.5, 265.25 69.67, 265.17 69.83, 265.08 70.0, 265.0 70.17, 264.92 70.33, 264.83 70.5, 264.75 70.67, 264.67 70.83, 264.58 71.0, 264.5 71.17, 264.42 71.33, 264.33 71.5, 264.25 71.67, 264.17 71.83, 264.08 72.0, 264.0 72.17, 263.92 72.33, 263.83 72.5, 263.75 72.67, 263.67 72.83, 263.58 73.0, 263.5 73.17, 263.42 73.33, 263.33 73.5, 263.25 73.67, 263.17 73.83, 263.08 74.0, 263.0 74.17, 262.92 74.33, 262.83 74.5, 262.75 74.67, 262.67 74.83, 262.58 75.0, 262.5 75.17, 262.42 75.33, 262.33 75.5, 262.25 75.67, 262.17 75.83, 262.08 76.0, 262.0 76.17, 261.92 76.33, 261.83 76.5, 261.75 76.67, 261.67 76.83, 261.58 77.0, 261.5 77.17, 261.42 77.33, 261.33 77.5, 261.25 77.67, 261.17 77.83, 261.08 78.0, 261.0 78.17, 260.92 78.33, 260.83 78.5, 260.75 78.67, 260.67 78.83, 260.58 79.0, 260.5 79.17, 260.42 79.33, 260.33 79.5, 260.25 79.67, 260.17 79.83, 260.08 80.0, 260.0 80.17, 259.92 80.33, 259.83 80.5, 259.75 80.67, 259.67 80.83, 259.58 81.0, 259.5 81.17, 259.42 81.33, 259.33 81.5, 259.25 81.67, 259.17 81.83, 259.08 82.0, 259.0 82.17, 258.92 82.33, 258.83 82.5, 258.75 82.67, 258.67 82.83, 258.58 83.0, 258.5 83.17, 258.42 83.33, 258.33 83.5, 258.25 83.67, 258.17 83.83, 258.08 84.0, 258.0 84.17, 257.92 84.33, 257.83 84.5, 257.75 84.67, 257.67 84.83, 257.58 85.0, 257.5 85.17, 257.42 85.33, 257.33 85.5, 257.25 85.67, 257.17 85.83, 257.08 86.0, 257.0 86.17, 256.92 86.33, 256.83 86.5, 256.75 86.67, 256.67 86.83, 256.58 87.0, 256.5 87.17, 256.42 87.33, 256.33 87.5, 256.25 87.67, 256.17 87.83, 256.08 88.0, 256.0 88.17, 255.92 88.33, 255.83 88.5, 255.75 88.67, 255.67 88.83, 255.58 89.0, 255.5 89.17, 255.42 89.33, 255.33 89.5, 255.25 89.67, 255.17 89.83, 255.08 90.0, 255.0 90.17, 254.92 90.33, 254.83 90.5, 254.75 90.67, 254.67 90.83, 254.58 91.0, 254.5 91.17, 254.42 91.33, 254.33 91.5, 254.25 91.67, 254.17 91.83, 254.08 92.0, 254.0 92.17, 253.92 92.33, 253.83 92.5, 253.75 92.67, 253.67 92.83, 253.58 93.0, 253.5 93.17, 253.42 93.33, 253.33 93.5, 253.25 93.67, 253.17 93.83, 253.08 94.0, 253.0 94.17, 252.92 94.33, 252.83 94.5, 252.75 94.67, 252.67 94.83, 252.58 95.0, 252.5 95.17, 252.42 95.33, 252.33 95.5, 252.25 95.67, 252.17 95.83, 252.08 96.0, 252.0 96.17, 251.92 96.33, 251.83 96.5, 251.75 96.67, 251.67 96.83, 251.58 97.0, 251.5 97.17, 251.42 97.33, 251.33 97.5, 251.25 97.67, 251.17 97.83, 251.08 98.0, 251.0 98.17, 250.92 98.33, 250.83 98.5, 250.75 98.67, 250.67 98.83, 250.58 99.0, 250.5 99.17, 250.42 99.33, 250.33 99.5, 250.25 99.67, 250.17 99.83, 250.08 100.0, 250.0 100.17, 249.92 100.33, 249.83 100.5, 249.75 100.67, 249.67 100.83, 249.58 101.0, 249.5 101.17, 249.42 101.33, 249.33 101.5, 249.25 101.67, 249.17 101.83, 249.08 102.0, 249.0 102.17, 248.92 102.33, 248.83 102.5, 248.75 102.67, 248.67 102.83, 248.58 103.0, 248.5 103.17, 248.42 103.33, 248.33 103.5, 248.25 103.67, 248.17 103.83, 248.08 104.0, 248.0 104.17, 247.92 104.33, 247.83 104.5, 247.75 104.67, 247.67 104.83, 247.58 105.0, 247.5 105.17, 247.42 105.33, 247.33 105.5, 247.25 105.67, 247.17 105.83, 247.08 106.0, 247.0 106.17, 246.92 106.33, 246.83 106.5, 246.75 106.67, 246.67 106.83, 246.58 107.0, 246.5 107.17, 246.42 107.33, 246.33 107.5, 246.25 107.67, 246.17 107.83, 246.08 108.0, 246.0 108.17, 245.92 108.33, 245.83 108.5, 245.75 108.67, 245.67 108.83, 245.58 109.0, 245.5 109.17, 245.42 109.33, 245.33 109.5, 245.25 109.67, 245.17 109.83, 245.08 110.0, 245.0 110.17, 244.92 110.33, 244.83 110.5, 244.75 110.67, 244.67 110.83, 244.58 111.0, 244.5 111.17, 244.42 111.33, 244.33 111.5, 244.25 111.67, 244.17 111.83, 244.08 112.0, 244.0 112.17, 243.92 112.33, 243.83 112.5, 243.75 112.67, 243.67 112.83, 243.58 113.0, 243.5 113.17, 243.42 113.33, 243.33 113.5, 243.25 113.67, 243.17 113.83, 243.08 114.0, 243.0 114.17, 242.92 114.33, 242.83 114.5, 242.75 114.67, 242.67 114.83, 242.58 115.0, 242.5 115.17, 242.42 115.33, 242.33 115.5, 242.25 115.67, 242.17 115.83, 242.08 116.0, 242.0 116.17, 241.92 116.33, 241.83 116.5, 241.75 116.67, 241.67 116.83, 241.58 117.0, 241.5 117.17, 241.42 117.33, 241.33 117.5, 241.25 117.67, 241.17 117.83, 241.08 118.0, 241.0 118.17, 240.92 118.33, 240.83 118.5, 240.75 118.67, 240.67 118.83, 240.58 119.0, 240.5 119.17, 240.42 119.33, 240.33 119.5, 240.25 119.67, 240.17 119.83, 240.08 120.0, 240.0 120.17, 239.92 120.33, 239.83 120.5, 239.75 120.67, 239.67 120.83, 239.58 121.0, 239.5 121.17, 239.42 121.33, 239.33 121.5, 239.25 121.67, 239.17 121.83, 239.08 122.0, 239.0 122.17, 238.92 122.33, 238.83 122.5, 238.75 122.67, 238.67 122.83, 238.58 123.0, 238.5 123.17, 238.42 123.33, 238.33 123.5, 238.25 123.67, 238.17 123.83, 238.08 124.0, 238.0 124.17, 237.92 124.33, 237.83 124.5, 237.75 124.67, 237.67 124.83, 237.58 125.0, 237.5 125.17, 237.42 125.33, 237.33 125.5, 237.25 125.67, 237.17 125.83, 237.08 126.0, 237.0 126.17, 236.92 126.33, 236.83 126.5, 236.75 126.67, 236.67 126.83, 236.58 127.0, 236.5 127.17, 236.42 127.33, 236.33 127.5, 236.25 127.67, 236.17 127.83, 236.08 128.0, 236.0 128.17, 235.92 128.33, 235.83 128.5, 235.75 128.67, 235.67 128.83, 235.58 129.0, 235.5 129.17, 235.42 129.33, 235.33 129.5, 235.25 129.67, 235.17 129.83, 235.08 130.0, 235.0 130.17, 234.92 130.33, 234.83 130.5, 234.75 130.67, 234.67 130.83, 234.58 131.0, 234.5 131.17, 234.42 131.33, 234.33 131.5, 234.25 131.67, 234.17 131.83, 234.08 132.0, 234.0 132.17, 233.92 132.33, 233.83 132.5, 233.75 132.67, 233.67 132.83, 233.58 133.0, 233.5 133.17, 233.42 133.33, 233.33 133.5, 233.25 133.67, 233.17 133.83, 233.08 134.0, 233.0 134.17, 232.92 134.33, 232.83 134.5, 232.75 134.67, 232.67 134.83, 232.58 135.0, 232.5 135.17, 232.42 135.33, 232.33 135.5, 232.25 135.67, 232.17 135.83, 232.08 136.0, 232.0 136.17, 231.92 136.33, 231.83 136.5, 231.75 136.67, 231.67 136.83, 231.58 137.0, 231.5 137.17, 231.42 137.33, 231.33 137.5, 231.25 137.67, 231.17 137.83, 231.08 138.0, 231.0 138.17, 230.92 138.33, 230.83 138.5, 230.75 138.67, 230.67 138.83, 230.58 139.0, 230.5 139.17, 230.42 139.33, 230.33 139.5, 230.25 139.67, 230.17 139.83, 230.08 140.0, 230.0 140.17, 229.92 140.33, 229.83 140.5, 229.75 140.67, 229.67 140.83, 229.58 141.0, 229.5 141.17, 229.42 141.33, 229.33 141.5, 229.25 141.67, 229.17 141.83, 229.08 142.0, 229.0 142.17, 228.92 142.33, 228.83 142.5, 228.75 142.67, 228.67 142.83, 228.58 143.0, 228.5 143.17, 228.42 143.33, 228.33 143.5, 228.25 143.67, 228.17 143.83, 228.08 144.0, 228.0 144.17, 227.92 144.33, 227.83 144.5, 227.75 144.67, 227.67 144.83, 227.58 145.0, 227.5 145.17, 227.42 145.33, 227.33 145.5, 227.25 145.67, 227.17 145.83, 227.08 146.0, 227.0 146.17, 226.92 146.33, 226.83 146.5, 226.75 146.67, 226.67 146.83, 226.58 147.0, 226.5 147.17, 226.42 147.33, 226.33 147.5, 226.25 147.67, 226.17 147.83, 226.08 148.0, 226.0 148.17, 225.92 148.33, 225.83 148.5, 225.75 148.67, 225.67 148.83, 225.58 149.0, 225.5 149.17, 225.42 149.33, 225.33 149.5, 225.25 149.67, 225.17 149.83, 225.08 150.0, 225.0 150.17, 224.92 150.33, 224.83 150.5, 224.75 150.67, 224.67 150.83, 224.58 151.0, 224.5 151.17, 224.42 151.33, 224.33 151.5, 224.25 151.67, 224.17 151.83, 224.08 152.0, 224.0 152.17, 223.92 152.33, 223.83 152.5, 223.75 152.67, 223.67 152.83, 223.58 153.0, 223.5 153.17, 223.42 153.33, 223.33 153.5, 223.25 153.67, 223.17 153.83, 223.08 154.0, 223.0 154.17, 222.92 154.33, 222.83 154.5, 222.75 154.67, 222.67 154.83, 222.58 155.0, 222.5 155.17, 222.42 155.33, 222.33 155.5, 222.25 155.67, 222.17 155.83, 222.08 156.0, 222.0 156.17, 221.92 156.33, 221.83 156.5, 221.75 156.67, 221.67 156.83, 221.58 157.0, 221.5 157.17, 221.42 157.33, 221.33 157.5, 221.25 157.67, 221.17 157.83, 221.08 158.0, 221.0 158.17, 220.92 158.33, 220.83 158.5, 220.75 158.67, 220.67 158.83, 220.58 159.0, 220.5 159.17, 220.42 159.33, 220.33 159.5, 220.25 159.67, 220.17 159.83, 220.08 160.0, 220.0 160.17, 219.92 160.33, 219.83 160.5, 219.75 160.67, 219.67 160.83, 219.58 161.0, 219.5 161.17, 219.42 161.33, 219.33 161.5, 219.25 161.67, 219.17 161.83, 219.08 162.0, 219.0 162.17, 218.92 162.33, 218.83 162.5, 218.75 162.67, 218.67 162.83, 218.58 163.0, 218.5 163.17, 218.42 163.33, 218.33 163.5, 218.25 163.67, 218.17 163.83, 218.08 164.0, 218.0 164.17, 217.92 164.33, 217.83 164.5, 217.75 164.67, 217.67 164.83, 217.58 165.0, 217.5 165.17, 217.42 165.33, 217.33 165.5, 217.25 165.67, 217.17 165.83, 217.08 166.0, 217.0 166.17, 216.92 166.33, 216.83 166.5, 216.75 166.67, 216.67 166.83, 216.58 167.0, 216.5 167.17, 216.42 167.33, 216.33 167.5, 216.25 167.67, 216.17 167.83, 216.08 168.0, 216.0 168.17, 215.92 168.33, 215.83 168.5, 215.75 168.67, 215.67 168.83, 215.58 169.0, 215.5 169.17, 215.42 169.33, 215.33 169.5, 215.25 169.67, 215.17 169.83, 215.08 170.0, 215.0 170.17, 214.92 170.33, 214.83 170.5, 214.75 170.67, 214.67 170.83, 214.58 171.0, 214.5 171.17, 214.42 171.33, 214.33 171.5, 214.25 171.67, 214.17 171.83, 214.08 172.0, 214.0 172.17, 213.92 172.33, 213.83 172.5, 213.75 172.67, 213.67 172.83, 213.58 173.0, 213.5 173.17, 213.42 173.33, 213.33 173.5, 213.25 173.67, 213.17 173.83, 213.08 174.0, 213.0 174.17, 212.92 174.33, 212.83 174.5, 212.75 174.67, 212.67 174.83, 212.58 175.0, 212.5 175.17, 212.42 175.33, 212.33 175.5, 212.25 175.67, 212.17 175.83, 212.08 176.0, 212.0 176.17, 211.92 176.33, 211.83 176.5, 211.75 176.67, 211.67 176.83, 211.58 177.0, 211.5 177.17, 211.42 177.33, 211.33 177.5, 211.25 177.67, 211.17 177.83, 211.08 178.0, 211.0 178.17, 210.92 178.33, 210.83 178.5, 210.75 178.67, 210.67 178.83, 210.58 179.0, 210.5 179.17, 210.42 179.33, 210.33 179.5, 210.25 179.67, 210.17 179.83, 210.08 180.0, 210.0 180.17, 209.92 180.33, 209.83 180.5, 209.75 180.67, 209.67 180.83, 209.58 181.0, 209.5 181.17, 209.42 181.33, 209.33 181.5, 209.25 181.67, 209.17 181.83, 209.08 182.0, 209.0 182.17, 208.92 182.33, 208.83 182.5, 208.75 182.67, 208.67 182.83, 208.58 183.0, 208.5 183.17, 208.42 183.33, 208.33 183.5, 208.25 183.67, 208.17 183.83, 208.08 184.0, 208.0 184.17, 207.92 184.33, 207.83 184.5, 207.75 184.67, 207.67 184.83, 207.58 185.0, 207.5 185.17, 207.42 185.33, 207.33 185.5, 207.25 185.67, 207.17 185.83, 207.08 186.0, 207.0 186.17, 206.92 186.33, 206.83 186.5, 206.75 186.67, 206.67 186.83, 206.58 187.0, 206.5 187.17, 206.42 187.33, 206.33 187.5, 206.25 187.67, 206.17 187.83, 206.08 188.0, 206.0 188.17, 205.92 188.33, 205.83 188.5, 205.75 188.67, 205.67 188.83, 205.58 189.0, 205.5 189.17, 205.42 189.33, 205.33 189.5, 205.25 189.67, 205.17 189.83, 205.08 190.0, 205.0 190.17, 204.92 190.33, 204.83 190.5, 204.75 190.67, 204.67 190.83, 204.58 191.0, 204.5 191.17, 204.42 191.33, 204.33 191.5, 204.25 191.67, 204.17 191.83, 204.08 192.0, 204.0 192.17, 203.92 192.33, 203.83 192.5, 203.75 192.67, 203.67 192.83, 203.58 193.0, 203.5 193.17, 203.42 193.33, 203.33 193.5, 203.25 193.67, 203.17 193.83, 203.08 194.0, 203.0 194.17, 202.92 194.33, 202.83 194.5, 202.75 194.67, 202.67 194.83, 202.58 195.0, 202.5 195.17, 202.42 195.33, 202.33 195.5, 202.25 195.67, 202.17 195.83, 202.08 196.0, 202.0 196.17, 201.92 196.33, 201.83 196.5, 201.75 196.67, 201.67 196.83, 201.58 197.0, 201.5 197.17, 201.42 197.33, 201.33 197.5, 201.25 197.67, 201.17 197.83, 201.08 198.0, 201.0 198.17, 200.92 198.33, 200.83 198.5, 200.75 198.67, 200.67 198.83, 200.58 199.0, 200.5 199.17, 200.42 199.33, 200.33 199.5, 200.25 199.67, 200.17 199.83, 200.08 200.0, 200.0 200.17, 199.92 200.33, 199.83 200.5, 199.75 200.67, 199.67 200.83, 199.58 201.0, 199.5 201.17, 199.42 201.33, 199.33 201.5, 199.25 201.67, 199.17 201.83, 199.08 202.0, 199.0 202.17, 198.92 202.33, 198.83 202.5, 198.75 202.67, 198.67 202.83, 198.58 203.0, 198.5 203.17, 198.42 203.33, 198.33 203.5, 198.25 203.67, 198.17 203.83, 198.08 204.0, 198.0 204.17, 197.92 204.33, 197.83 204.5, 197.75 204.67, 197.67 204.83, 197.58 205.0, 197.5 205.17, 197.42 205.33, 197.33 205.5, 197.25 205.67, 197.17 205.83, 197.08 206.0, 197.0 206.17, 196.92 206.33, 196.83 206.5, 196.75 206.67, 196.67 206.83, 196.58 207.0, 196.5 207.17, 196.42 207.33, 196.33 207.5, 196.25 207.67, 196.17 207.83, 196.08 208.0, 196.0 208.17, 195.92 208.33, 195.83 208.5, 195.75 208.67, 195.67 208.83, 195.58 209.0, 195.5 209.17, 195.42 209.33, 195.33 209.5, 195.25 209.67, 195.17 209.83, 195.08 210.0, 195.0 210.17, 194.92 210.33, 194.83 210.5, 194.75 210.67, 194.67 210.83, 194.58 211.0, 194.5 211.17, 194.42 211.33, 194.33 211.5, 194.25 211.67, 194.17 211.83, 194.08 212.0, 194.0 212.17, 193.92 212.33, 193.83 212.5, 193.75 212.67, 193.67 212.83, 193.58 213.0, 193.5 213.17, 193.42 213.33, 193.33 213.5, 193.25 213.67, 193.17 213.83, 193.08 214.0, 193.0 214.17, 192.92 214.33, 192.83 214.5, 192.75 214.67, 192.67 214.83, 192.58 215.0, 192.5 215.17, 192.42 215.33, 192.33 215.5, 192.25 215.67, 192.17 215.83, 192.08 216.0, 192.0 216.17, 191.92 216.33, 191.83 216.5, 191.75 216.67, 191.67 216.83, 191.58 217.0, 191.5 217.17, 191.42 217.33, 191.33 217.5, 191.25 217.67, 191.17 217.83, 191.08 218.0, 191.0 218.17, 190.92 218.33, 190.83 218.5, 190.75 218.67, 190.67 218.83, 190.58 219.0, 190.5 219.17, 190.42 219.33, 190.33 219.5, 190.25 219.67, 190.17 219.83, 190.08 220.0, 190.0 220.17, 189.92 220.33, 189.83 220.5, 189.75 220.67, 189.67 220.83, 189.58 221.0, 189.5 221.17, 189.42 221.33, 189.33 221.5, 189.25 221.67, 189.17 221.83, 189.08 222.0, 189.0 222.17, 188.92 222.33, 188.83 222.5, 188.75 222.67, 188.67 222.83, 188.58 223.0, 188.5 223.17, 188.42 223.33, 188.33 223.5, 188.25 223.67, 188.17 223.83, 188.08 224.0, 188.0 224.17, 187.92 224.33, 187.83 224.5, 187.75 224.67, 187.67 224.83, 187.58 225.0, 187.5 225.17, 187.42 225.33, 187.33 225.5, 187.25 225.67, 187.17 225.83, 187.08 226.0, 187.0 226.17, 186.92 226.33, 186.83 226.5, 186.75 226.67, 186.67 226.83, 186.58 227.0, 186.5 227.17, 186.42 227.33, 186.33 227.5, 186.25 227.67, 186.17 227.83, 186.08 228.0, 186.0 228.17, 185.92 228.33, 185.83 228.5, 185.75 228.67, 185.67 228.83, 185.58 229.0, 185.5 229.17, 185.42 229.33, 185.33 229.5, 185.25 229.67, 185.17 229.83, 185.08 230.0, 185.0 230.17, 184.92 230.33, 184.83 230.5, 184.75 230.67, 184.67 230.83, 184.58 231.0, 184.5 231.17, 184.42 231.33, 184.33 231.5, 184.25 231.67, 184.17 231.83, 184.08 232.0, 184.0 232.17, 183.92 232.33, 183.83 232.5, 183.75 232.67, 183.67 232.83, 183.58 233.0, 183.5 233.17, 183.42 233.33, 183.33 233.5, 183.25 233.67, 183.17 233.83, 183.08 234.0, 183.0 234.17, 182.92 234.33, 182.83 234.5, 182.75 234.67, 182.67 234.83, 182.58 235.0, 182.5 235.17, 182.42 235.33, 182.33 235.5, 182.25 235.67, 182.17 235.83, 182.08 236.0, 182.0 236.17, 181.92 236.33, 181.83 236.5, 181.75 236.67, 181.67 236.83, 181.58 237.0, 181.5 237.17, 181.42 237.33, 181.33 237.5, 181.25 237.67, 181.17 237.83, 181.08 238.0, 181.0 238.17, 180.92 238.33, 180.83 238.5, 180.75 238.67, 180.67 238.83, 180.58 239.0, 180.5 239.17, 180.42 239.33, 180.33 239.5, 180.25 239.67, 180.17 239.83, 180.08 240.0, 180.0 240.17, 179.92 240.33, 179.83 240.5, 179.75 240.67, 179.67 240.83, 179.58 241.0, 179.5 241.17, 179.42 241.33, 179.33 241.5, 179.25 241.67, 179.17 241.83, 179.08 242.0, 179.0 242.17, 178.92 242.33, 178.83 242.5, 178.75 242.67, 178.67 242.83, 178.58 243.0, 178.5 243.17, 178.42 243.33, 178.33 243.5, 178.25 243.67, 178.17 243.83, 178.08 244.0, 178.0 244.17, 177.92 244.33, 177.83 244.5, 177.75 244.67, 177.67 244.83, 177.58 245.0, 177.5 245.17, 177.42 245.33, 177.33 245.5, 177.25 245.67, 177.17 245.83, 177.08 246.0, 177.0 246.17, 176.92 246.33, 176.83 246.5, 176.75 246.67, 176.67 246.83, 176.58 247.0, 176.5 247.17, 176.42 247.33, 176.33 247.5, 176.25 247.67, 176.17 247.83, 176.08 248.0, 176.0 248.17, 175.92 248.33, 175.83 248.5, 175.75 248.67, 175.67 248.83, 175.58 249.0, 175.5 249.17, 175.42 249.33, 175.33 249.5, 175.25 249.67, 175.17 249.83, 175.08 250.0, 175.0 250.17, 174.92 250.33, 174.83 250.5, 174.75 250.67, 174.67 250.83, 174.58 251.0, 174.5 251.17, 174.42 251.33, 174.33 251.5, 174.25 251.67, 174.17 251.83, 174.08 252.0, 174.0 252.17, 173.92 252.33, 173.83 252.5, 173.75 252.67, 173.67 252.83, 173.58 253.0, 173.5 253.17, 173.42 253.33, 173.33 253.5, 173.25 253.67, 173.17 253.83, 173.08 254.0, 173.0 254.17, 172.92 254.33, 172.83 254.5, 172.75 254.67, 172.67 254.83, 172.58 255.0, 172.5 255.17, 172.42 255.33, 172.33 255.5, 172.25 255.67, 172.17 255.83, 172.08 256.0, 172.0 256.17, 171.92 256.33, 171.83 256.5, 171.75 256.67, 171.67 256.83, 171.58 257.0, 171.5 257.17, 171.42 257.33, 171.33 257.5, 171.25 257.67, 171.17 257.83, 171.08 258.0, 171.0 258.17, 170.92 258.33, 170.83 258.5, 170.75 258.67, 170.67 258.83, 170.58 259.0, 170.5 259.17, 170.42 259.33, 170.33 259.5, 170.25 259.67, 170.17 259.83, 170.08 260.0, 170.0 260.17, 169.92 260.33, 169.83 260.5, 169.75 260.67, 169.67 260.83, 169.58 261.0, 169.5 261.17, 169.42 261.33, 169.33 261.5, 169.25 261.67, 169.17 261.83, 169.08 262.0, 169.0 262.17, 168.92 262.33, 168.83 262.5, 168.75 262.67, 168.67 262.83, 168.58 263.0, 168.5 263.17, 168.42 263.33, 168.33 263.5, 168.25 263.67, 168.17 263.83, 168.08 264.0, 168.0 264.17, 167.92 264.33, 167.83 264.5, 167.75 264.67, 167.67 264.83, 167.58 265.0, 167.5 265.17, 167.42 265.33, 167.33 265.5, 167.25 265.67, 167.17 265.83, 167.08 266.0, 167.0 266.17, 166.92 266.33, 166.83 266.5, 166.75 266.67, 166.67 266.83, 166.58 267.0, 166.5 267.17, 166.42 267.33, 166.33 267.5, 166.25 267.67, 166.17 267.83, 166.08 268.0, 166.0 268.17, 165.92 268.33, 165.83 268.5, 165.75 268.67, 165.67 268.83, 165.58 269.0, 165.5 269.17, 165.42 269.33, 165.33 269.5, 165.25 269.67, 165.17 269.83, 165.08 270.0, 165.0 270.17, 164.92 270.33, 164.83 270.5, 164.75 270.67, 164.67 270.83, 164.58 271.0, 164.5 271.17, 164.42 271.33, 164.33 271.5, 164.25 271.67, 164.17 271.83, 164.08 272.0, 164.0 272.17, 163.92 272.33, 163.83 272.5, 163.75 272.67, 163.67 272.83, 163.58 273.0, 163.5 273.17, 163.42 273.33, 163.33 273.5, 163.25 273.67, 163.17 273.83, 163.08 274.0, 163.0 274.17, 162.92 274.33, 162.83 274.5, 162.75 274.67, 162.67 274.83, 162.58 275.0, 162.5 275.17, 162.42 275.33, 162.33 275.5, 162.25 275.67, 162.17 275.83, 162.08 276.0, 162.0 276.17, 161.92 276.33, 161.83 276.5, 161.75 276.67, 161.67 276.83, 161.58 277.0, 161.5 277.17, 161.42 277.33, 161.33 277.5, 161.25 277.67, 161.17 277.83, 161.08 278.0, 161.0 278.17, 160.92 278.33, 160.83 278.5, 160.75 278.67, 160.67 278.83, 160.58 279.0, 160.5 279.17, 160.42 279.33, 160.33 279.5, 160.25 279.67, 160.17 279.83, 160.08 280.0, 160.0 280.17, 159.92 280.33, 159.83 280.5, 159.75 280.67, 159.67 280.83, 159.58 281.0, 159.5 281.17, 159.42 281.33, 159.33 281.5, 159.25 281.67, 159.17 281.83, 159.08 282.0, 159.0 282.17, 158.92 282.33, 158.83 282.5, 158.75 282.67, 158.67 282.83, 158.58 283.0, 158.5 283.17, 158.42 283.33, 158.33 283.5, 158.25 283.67, 158.17 283.83, 158.08 284.0, 158.0 284.17, 157.92 284.33, 157.83 284.5, 157.75 284.67, 157.67 284.83, 157.58 285.0, 157.5 285.17, 157.42 285.33, 157.33 285.5, 157.25 285.67, 157.17 285.83, 157.08 286.0, 157.0 286.17, 156.92 286.33, 156.83 286.5, 156.75 286.67, 156.67 286.83, 156.58 287.0, 156.5 287.17, 156.42 287.33, 156.33 287.5, 156.25 287.67, 156.17 287.83, 156.08 288.0, 156.0 288.17, 155.92 288.33, 155.83 288.5, 155.75 288.67, 155.67 288.83, 155.58 289.0, 155.5 289.17, 155.42 289.33, 155.33 289.5, 155.25 289.67, 155.17 289.83, 155.08 290.0, 155.0 290.17, 154.92 290.33, 154.83 290.5, 154.75 290.67, 154.67 290.83, 154.58 291.0, 154.5 291.17, 154.42 291.33, 154.33 291.5, 154.25 291.67, 154.17 291.83, 154.08 292.0, 154.0 292.17, 153.92 292.33, 153.83 292.5, 153.75 292.67, 153.67 292.83, 153.58 293.0, 153.5 293.17, 153.42 293.33, 153.33 293.5, 153.25 293.67, 153.17 293.83, 153.08 294.0, 153.0 294.17, 152.92 294.33, 152.83 294.5, 152.75 294.67, 152.67 294.83, 152.58 295.0, 152.5 295.17, 152.42 295.33, 152.33 295.5, 152.25 295.67, 152.17 295.83, 152.08 296.0, 152.0 296.17, 151.92 296.33, 151.83 296.5, 151.75 296.67, 151.67 296.83, 151.58 297.0, 151.5 297.17, 151.42 297.33, 151.33 297.5, 151.25 297.67, 151.17 297.83, 151.08 298.0, 151.0 298.17, 150.92 298.33, 150.83 298.5, 150.75 298.67, 150.67 298.83, 150.58 299.0, 150.5 299.17, 150.42 299.33, 150.33 299.5, 150.25 299.67, 150.17 299.83, 150.08 300.0, 150.0 300.17, 149.92 300.33, 149.83 300.5, 149.75 300.67, 149.67 300.83, 149.58 301.0, 149.5 301.17, 149.42 301.33, 149.33 301.5, 149.25 301.67, 149.17 301.83, 149.08 302.0, 149.0 302.17, 148.92 302.33, 148.83 302.5, 148.75 302.67, 148.67 302.83, 148.58 303.0, 148.5 303.17, 148.42 303.33, 148.33 303.5, 148.25 303.67, 148.17 303.83, 148.08 304.0, 148.0 304.17, 147.92 304.33, 147.83 304.5, 147.75 304.67, 147.67 304.83, 147.58 305.0, 147.5 305.17, 147.42 305.33, 147.33 305.5, 147.25 305.67, 147.17 305.83, 147.08 306.0, 147.0 306.17, 146.92 306.33, 146.83 306.5, 146.75 306.67, 146.67 306.83, 146.58 307.0, 146.5 307.17, 146.42 307.33, 146.33 307.5, 146.25 307.67, 146.17 307.83, 146.08 308.0, 146.0 308.17, 145.92 308.33, 145.83 308.5, 145.75 308.67, 145.67 308.83, 145.58 309.0, 145.5 309.17, 145.42 309.33, 145.33 309.5, 145.25 309.67, 145.17 309.83, 145.08 310.0, 145.0 310.17, 144.92 310.33, 144.83 310.5, 144.75 310.67, 144.67 310.83, 144.58 311.0, 144.5 311.17, 144.42 311.33, 144.33 311.5, 144.25 311.67, 144.17 311.83, 144.08 312.0, 144.0 312.17, 143.92 312.33, 143.83 312.5, 143.75 312.67, 143.67 312.83, 143.58 313.0, 143.5 313.17, 143.42 313.33, 143.33 313.5, 143.25 313.67, 143.17 313.83, 143.08 314.0, 143.0 314.17, 142.92 314.33, 142.83 314.5, 142.75 314.67, 142.67 314.83, 142.58 315.0, 142.5 315.17, 142.42 315.33, 142.33 315.5, 142.25 315.67, 142.17 315.83, 142.08 316.0, 142.0 316.17, 141.92 316.33, 141.83 316.5, 141.75 316.67, 141.67 316.83, 141.58 317.0, 141.5 317.17, 141.42 317.33, 141.33 317.5, 141.25 317.67, 141.17 317.83, 141.08 318.0, 141.0 318.17, 140.92 318.33, 140.83 318.5, 140.75 318.67, 140.67 318.83, 140.58 319.0, 140.5 319.17, 140.42 319.33, 140.33 319.5, 140.25 319.67, 140.17 319.83, 140.08 320.0, 140.0 320.17, 139.92 320.33, 139.83 320.5, 139.75 320.67, 139.67 320.83, 139.58 321.0, 139.5 321.17, 139.42 321.33, 139.33 321.5, 139.25 321.67, 139.17 321.83, 139.08 322.0, 139.0 322.17, 138.92 322.33, 138.83 322.5, 138.75 322.67, 138.67 322.83, 138.58 323.0, 138.5 323.17, 138.42 323.33, 138.33 323.5, 138.25 323.67, 138.17 323.83, 138.08 324.0, 138.0 324.17, 137.92 324.33, 137.83 324.5, 137.75 324.67, 137.67 324.83, 137.58 325.0, 137.5 325.17, 137.42 325.33, 137.33 325.5, 137.25 325.67, 137.17 325.83, 137.08 326.0, 137.0 326.17, 136.92 326.33, 136.83 326.5, 136.75 326.67, 136.67 326.83, 136.58 327.0, 136.5 327.17, 136.42 327.33, 136.33 327.5, 136.25 327.67, 136.17 327.83, 136.08 328.0, 136.0 328.17, 135.92 328.33, 135.83 328.5, 135.75 328.67, 135.67 328.83, 135.58 329.0, 135.5 329.17, 135.42 329.33, 135.33 329.5, 135.25 329.67, 135.17 329.83, 135.08 330.0, 135.0 330.17, 134.92 330.33, 134.83 330.5, 134.75 330.67, 134.67 330.83, 134.58 331.0, 134.5 331.17, 134.42 331.33, 134.33 331.5, 134.25 331.67, 134.17 331.83, 134.08 332.0, 134.0 332.17, 133.92 332.33, 133.83 332.5, 133.75 332.67, 133.67 332.83, 133.58 333.0, 133.5 333.17, 133.42 333.33, 133.33 333.5, 133.25 333.67, 133.17 333.83, 133.08 334.0, 133.0 334.17, 132.92 334.33, 132.83 334.5, 132.75 334.67, 132.67 334.83, 132.58 335.0, 132.5 335.17, 132.42 335.33, 132.33 335.5, 132.25 335.67, 132.17 335.83, 132.08 336.0, 132.0 336.17, 131.92 336.33, 131.83 336.5, 131.75 336.67, 131.67 336.83, 131.58 337.0, 131.5 337.17, 131.42 337.33, 131.33 337.5, 131.25 337.67, 131.17 337.83, 131.08 338.0, 131.0 338.17, 130.92 338.33, 130.83 338.5, 130.75 338.67, 130.67 338.83, 130.58 339.0, 130.5 339.17, 130.42 339.33, 130.33 339.5, 130.25 339.67, 130.17 339.83, 130.08 340.0, 130.0 340.17, 129.92 340.33, 129.83 340.5, 129.75 340.67, 129.67 340.83, 129.58 341.0, 129.5 341.17, 129.42 341.33, 129.33 341.5, 129.25 341.67, 129.17 341.83, 129.08 342.0, 129.0 342.17, 128.92 342.33, 128.83 342.5, 128.75 342.67, 128.67 342.83, 128.58 343.0, 128.5 343.17, 128.42 343.33, 128.33 343.5, 128.25 343.67, 128.17 343.83, 128.08 344.0, 128.0 344.17, 127.92 344.33, 127.83 344.5, 127.75 344.67, 127.67 344.83, 127.58 345.0, 127.5 345.17, 127.42 345.33, 127.33 345.5, 127.25 345.67, 127.17 345.83, 127.08 346.0, 127.0 346.17, 126.92 346.33, 126.83 346.5, 126.75 346.67, 126.67 346.83, 126.58 347.0, 126.5 347.17, 126.42 347.33, 126.33 347.5, 126.25 347.67, 126.17 347.83, 126.08 348.0, 126.0 348.17, 125.92 348.33, 125.83 348.5, 125.75 348.67, 125.67 348.83, 125.58 349.0, 125.5 349.17, 125.42 349.33, 125.33 349.5, 125.25 349.67, 125.17 349.83, 125.08 350.0, 125.0 350.17, 124.92 350.33, 124.83 350.5, 124.75 350.67, 124.67 350.83, 124.58 351.0, 124.5 351.17, 124.42 351.33, 124.33 351.5, 124.25 351.67, 124.17 351.83, 124.08 352.0, 124.0 352.17, 123.92 352.33, 123.83 352.5, 123.75 352.67, 123.67 352.83, 123.58 353.0, 123.5 353.17, 123.42 353.33, 123.33 353.5, 123.25 353.67, 123.17 353.83, 123.08 354.0, 123.0 354.17, 122.92 354.33, 122.83 354.5, 122.75 354.67, 122.67 354.83, 122.58 355.0, 122.5 355.17, 122.42 355.33, 122.33 355.5, 122.25 355.67, 122.17 355.83, 122.08 356.0, 122.0 356.17, 121.92 356.33, 121.83 356.5, 121.75 356.67, 121.67 356.83, 121.58 357.0, 121.5 357.17, 121.42 357.33, 121.33 357.5, 121.25 357.67, 121.17 357.83, 121.08 358.0, 121.0 358.17, 120.92 358.33, 120.83 358.5, 120.75 358.67, 120.67 358.83, 120.58 359.0, 120.5 359.17, 120.42 359.33, 120.33 359.5, 120.25 359.67, 120.17 359.83, 120.08 360.0, 120.0 360.17, 119.92 360.33, 119.83 360.5, 119.75 360.67, 119.67 360.83, 119.58 361.0, 119.5 361.17, 119.42 361.33, 119.33 361.5, 119.25 361.67, 119.17 361.83, 119.08 362.0, 119.0 362.17, 118.92 362.33, 118.83 362.5, 118.75 362.67, 118.67 362.83, 118.58 363.0, 118.5 363.17, 118.42 363.33, 118.33 363.5, 118.25 363.67, 118.17 363.83, 118.08 364.0, 118.0 364.17, 117.92 364.33, 117.83 364.5, 117.75 364.67, 117.67 364.83, 117.58 365.0, 117.5 365.17, 117.42 365.33, 117.33 365.5, 117.25 365.67, 117.17 365.83, 117.08 366.0, 117.0 366.17, 116.92 366.33, 116.83 366.5, 116.75 366.67, 116.67 366.83, 116.58 367.0, 116.5 367.17, 116.42 367.33, 116.33 367.5, 116.25 367.67, 116.17 367.83, 116.08 368.0, 116.0 368.17, 115.92 368.33, 115.83 368.5, 115.75 368.67, 115.67 368.83, 115.58 369.0, 115.5 369.17, 115.42 369.33, 115.33 369.5, 115.25 369.67, 115.17 369.83, 115.08 370.0, 115.0 370.17, 114.92 370.33, 114.83 370.5, 114.75 370.67, 114.67 370.83, 114.58 371.0, 114.5 371.17, 114.42 371.33, 114.33 371.5, 114.25 371.67, 114.17 371.83, 114.08 372.0, 114.0 372.17, 113.92 372.33, 113.83 372.5, 113.75 372.67, 113.67 372.83, 113.58 373.0, 113.5 373.17, 113.42 373.33, 113.33 373.5, 113.25 373.67, 113.17 373.83, 113.08 374.0, 113.0 374.17, 112.92 374.33, 112.83 374.5, 112.75 374.67, 112.67 374.83, 112.58 375.0, 112.5 375.17, 112.42 375.33, 112.33 375.5, 112.25 375.67, 112.17 375.83, 112.08 376.0, 112.0 376.17, 111.92 376.33, 111.83 376.5, 111.75 376.67, 111.67 376.83, 111.58 377.0, 111.5 377.17, 111.42 377.33, 111.33 377.5, 111.25 377.67, 111.17 377.83, 111.08 378.0, 111.0 378.17, 110.92 378.33, 110.83 378.5, 110.75 378.67, 110.67 378.83, 110.58 379.0, 110.5 379.17, 110.42 379.33, 110.33 379.5, 110.25 379.67, 110.17 379.83, 110.08 380.0, 110.0 380.17, 109.92 380.33, 109.83 380.5, 109.75 380.67, 109.67 380.83, 109.58 381.0, 109.5 381.17, 109.42 381.33, 109.33 381.5, 109.25 381.67, 109.17 381.83, 109.08 382.0, 109.0 382.17, 108.92 382.33, 108.83 382.5, 108.75 382.67, 108.67 382.83, 108.58 383.0, 108.5 383.17, 108.42 383.33, 108.33 383.5, 108.25 383.67, 108.17 383.83, 108.08 384.0, 108.0 384.17, 107.92 384.33, 107.83 384.5, 107.75 384.67, 107.67 384.83, 107.58 385.0, 107.5 385.17, 107.42 385.33, 107.33 385.5, 107.25 385.67, 107.17 385.83, 107.08 386.0, 107.0 386.17, 106.92 386.33, 106.83 386.5, 106.75 386.67, 106.67 386.83, 106.58 387.0, 106.5 387.17, 106.42 387.33, 106.33 387.5, 106.25 387.67, 106.17 387.83, 106.08 388.0, 106.0 388.17, 105.92 388.33, 105.83 388.5, 105.75 388.67, 105.67 388.83, 105.58 389.0, 105.5 389.17, 105.42 389.33, 105.33 389.5, 105.25 389.67, 105.17 389.83, 105.08 390.0, 105.0 390.17, 104.92 390.33, 104.83 390.5, 104.75 390.67, 104.67 390.83, 104.58 391.0, 104.5 391.17, 104.42 391.33, 104.33 391.5, 104.25 391.67, 104.17 391.83, 104.08 392.0, 104.0 392.17, 103.92 392.33, 103.83 392.5, 103.75 392.67, 103.67 392.83, 103.58 393.0, 103.5 393.17, 103.42 393.33, 103.33 393.5, 103.25 393.67, 103.17 393.83, 103.08 394.0, 103.0 394.17, 102.92 394.33, 102.83 394.5, 102.75 394.67, 102.67 394.83, 102.58 395.0, 102.5 395.17, 102.42 395.33, 102.33 395.5, 102.25 395.67, 102.17 395.83, 102.08 396.0, 102.0 396.17, 101.92 396.33, 101.83 396.5, 101.75 396.67, 101.67 396.83, 101.58 397.0, 101.5 397.17, 101.42 397.33, 101.33 397.5, 101.25 397.67, 101.17 397.83, 101.08 398.0, 101.0 398.17, 100.92 398.33, 100.83 398.5, 100.75 398.67, 100.67 398.83, 100.58 399.0, 100.5 399.17, 100.42 399.33, 100.33 399.5, 100.25 399.67, 100.17 399.83, 100.08 400.0, 100.0 " fill="none" stroke="white" stroke-width="1.5" stroke-linejoin="round" stroke-opacity="1"/>

 </svg>