<svg version="1.1" 
 baseProfile="full" 
 width="400" 
 height="400" 
 xmlns="http://www.w3.org/2000/svg">
<rect x="0.0" y="0.0" width="400" height="400" fill="black" stroke="black" stroke-width="0" opacity="1"/>
<line x1="0.0" y1="0.0" x2="0.0" y2="400.0" stroke="white" stroke-width="1" opacity="0.4" stroke-linecap="butt"/>
<line x1="40.0" y1="0.0" x2="40.0" y2="400.0" stroke="white" stroke-width="1" opacity="0.4" stroke-linecap="butt"/>
<line x1="80.0" y1="0.0" x2="80.0" y2="400.0" stroke="white" stroke-width="1" opacity="0.4" stroke-linecap="butt"/>
<line x1="120.0" y1="0.0" x2="120.0" y2="400.0" stroke="white" stroke-width="1" opacity="0.4" stroke-linecap="butt"/>
<line x1="160.0" y1="0.0" x2="160.0" y2="400.0" stroke="white" stroke-width="1" opacity="0.4" stroke-linecap="butt"/>
<line x1="200.0" y1="0.0" x2="200.0" y2="400.0" stroke="white" stroke-width="1" opacity="0.4" stroke-linecap="butt"/>
<line x1="240.0" y1="0.0" x2="240.0" y2="400.0" stroke="white" stroke-width="1" opacity="0.4" stroke-linecap="butt"/>
<line x1="280.0" y1="0.0" x2="280.0" y2="400.0" stroke="white" stroke-width="1" opacity="0.4" stroke-linecap="butt"/>
<line x1="320.0" y1="0.0" x2="320.0" y2="400.0" stroke="white" stroke-width="1" opacity="0.4" stroke-linecap="butt"/>
<line x1="360.0" y1="0.0" x2="360.0" y2="400.0" stroke="white" stroke-width="1" opacity="0.4" stroke-linecap="butt"/>
<line x1="0.0" y1="0.0" x2="400.0" y2="0.0" stroke="white" stroke-width="1" opacity="0.4" stroke-linecap="butt"/>
<line x1="0.0" y1="40.0" x2="400.0" y2="40.0" stroke="white" stroke-width="1" opacity="0.4" stroke-linecap="butt"/>
<line x1="0.0" y1="80.0" x2="400.0" y2="80.0" stroke="white" stroke-width="1" opacity="0.4" stroke-linecap="butt"/>
<line x1="0.0" y1="120.0" x2="400.0" y2="120.0" stroke="white" stroke-width="1" opacity="0.4" stroke-linecap="butt"/>
<line x1="0.0" y1="160.0" x2="400.0" y2="160.0" stroke="white" stroke-width="1" opacity="0.4" stroke-linecap="butt"/>
<line x1="0.0" y1="200.0" x2="400.0" y2="200.0" stroke="white" stroke-width="1" opacity="0.4" stroke-linecap="butt"/>
<line x1="0.0" y1="240.0" x2="400.0" y2="240.0" stroke="white" stroke-width="1" opacity="0.4" stroke-linecap="butt"/>
<line x1="0.0" y1="280.0" x2="400.0" y2="280.0" stroke="white" stroke-width="1" opacity="0.4" stroke-linecap="butt"/>
<line x1="0.0" y1="320.0" x2="400.0" y2="320.0" stroke="white" stroke-width="1" opacity="0.4" stroke-linecap="butt"/>
<line x1="0.0" y1="360.0" x2="400.0" y2="360.0" stroke="white" stroke-width="1" opacity="0.4" stroke-linecap="butt"/>
<line x1="0.0" y1="200.0" x2="400.0" y2="200.0" stroke="yellow" stroke-width="2.5" opacity="1" stroke-linecap="butt"/>
<line x1="200.0" y1="0.0" x2="200.0" y2="400.0" stroke="yellow" stroke-width="2.5" opacity="1" stroke-linecap="butt"/>
<polygon points="391.0 204.0, 401.0 200.0, 391.0 196.0, 393.0 200.0" fill="yellow"/><polygon points="204.0 9.0, 200.0 -1.0, 196.0 9.0, 200.0 7.0" fill="yellow"/><image x="-60.0" y="-60.0" width="200" height="200" href="/Users/girirajhira/PycharmProjects/Giraphics3/Taylor/expr.png"/><polyline points="0.0, 320.0 0.17, 319.9 0.33, 319.8 0.5, 319.7 0.67, 319.6 0.83, 319.5 1.0, 319.4 1.17, 319.3 1.33, 319.2 1.5, 319.1 1.67, 319.0 1.83, 318.9 2.0, 318.8 2.17, 318.7 2.33, 318.6 2.5, 318.5 2.67, 318.4 2.83, 318.3 3.0, 318.2 3.17, 318.1 3.33, 318.0 3.5, 317.9 3.67, 317.8 3.83, 317.7 4.0, 317.6 4.17, 317.5 4.33, 317.4 4.5, 317.3 4.67, 317.2 4.83, 317.1 5.0, 317.0 5.17, 316.9 5.33, 316.8 5.5, 316.7 5.67, 316.6 5.83, 316.5 6.0, 316.4 6.17, 316.3 6.33, 316.2 6.5, 316.1 6.67, 316.0 6.83, 315.9 7.0, 315.8 7.17, 315.7 7.33, 315.6 7.5, 315.5 7.67, 315.4 7.83, 315.3 8.0, 315.2 8.17, 315.1 8.33, 315.0 8.5, 314.9 8.67, 314.8 8.83, 314.7 9.0, 314.6 9.17, 314.5 9.33, 314.4 9.5, 314.3 9.67, 314.2 9.83, 314.1 10.0, 314.0 10.17, 313.9 10.33, 313.8 10.5, 313.7 10.67, 313.6 10.83, 313.5 11.0, 313.4 11.17, 313.3 11.33, 313.2 11.5, 313.1 11.67, 313.0 11.83, 312.9 12.0, 312.8 12.17, 312.7 12.33, 312.6 12.5, 312.5 12.67, 312.4 12.83, 312.3 13.0, 312.2 13.17, 312.1 13.33, 312.0 13.5, 311.9 13.67, 311.8 13.83, 311.7 14.0, 311.6 14.17, 311.5 14.33, 311.4 14.5, 311.3 14.67, 311.2 14.83, 311.1 15.0, 311.0 15.17, 310.9 15.33, 310.8 15.5, 310.7 15.67, 310.6 15.83, 310.5 16.0, 310.4 16.17, 310.3 16.33, 310.2 16.5, 310.1 16.67, 310.0 16.83, 309.9 17.0, 309.8 17.17, 309.7 17.33, 309.6 17.5, 309.5 17.67, 309.4 17.83, 309.3 18.0, 309.2 18.17, 309.1 18.33, 309.0 18.5, 308.9 18.67, 308.8 18.83, 308.7 19.0, 308.6 19.17, 308.5 19.33, 308.4 19.5, 308.3 19.67, 308.2 19.83, 308.1 20.0, 308.0 20.17, 307.9 20.33, 307.8 20.5, 307.7 20.67, 307.6 20.83, 307.5 21.0, 307.4 21.17, 307.3 21.33, 307.2 21.5, 307.1 21.67, 307.0 21.83, 306.9 22.0, 306.8 22.17, 306.7 22.33, 306.6 22.5, 306.5 22.67, 306.4 22.83, 306.3 23.0, 306.2 23.17, 306.1 23.33, 306.0 23.5, 305.9 23.67, 305.8 23.83, 305.7 24.0, 305.6 24.17, 305.5 24.33, 305.4 24.5, 305.3 24.67, 305.2 24.83, 305.1 25.0, 305.0 25.17, 304.9 25.33, 304.8 25.5, 304.7 25.67, 304.6 25.83, 304.5 26.0, 304.4 26.17, 304.3 26.33, 304.2 26.5, 304.1 26.67, 304.0 26.83, 303.9 27.0, 303.8 27.17, 303.7 27.33, 303.6 27.5, 303.5 27.67, 303.4 27.83, 303.3 28.0, 303.2 28.17, 303.1 28.33, 303.0 28.5, 302.9 28.67, 302.8 28.83, 302.7 29.0, 302.6 29.17, 302.5 29.33, 302.4 29.5, 302.3 29.67, 302.2 29.83, 302.1 30.0, 302.0 30.17, 301.9 30.33, 301.8 30.5, 301.7 30.67, 301.6 30.83, 301.5 31.0, 301.4 31.17, 301.3 31.33, 301.2 31.5, 301.1 31.67, 301.0 31.83, 300.9 32.0, 300.8 32.17, 300.7 32.33, 300.6 32.5, 300.5 32.67, 300.4 32.83, 300.3 33.0, 300.2 33.17, 300.1 33.33, 300.0 33.5, 299.9 33.67, 299.8 33.83, 299.7 34.0, 299.6 34.17, 299.5 34.33, 299.4 34.5, 299.3 34.67, 299.2 34.83, 299.1 35.0, 299.0 35.17, 298.9 35.33, 298.8 35.5, 298.7 35.67, 298.6 35.83, 298.5 36.0, 298.4 36.17, 298.3 36.33, 298.2 36.5, 298.1 36.67, 298.0 36.83, 297.9 37.0, 297.8 37.17, 297.7 37.33, 297.6 37.5, 297.5 37.67, 297.4 37.83, 297.3 38.0, 297.2 38.17, 297.1 38.33, 297.0 38.5, 296.9 38.67, 296.8 38.83, 296.7 39.0, 296.6 39.17, 296.5 39.33, 296.4 39.5, 296.3 39.67, 296.2 39.83, 296.1 40.0, 296.0 40.17, 295.9 40.33, 295.8 40.5, 295.7 40.67, 295.6 40.83, 295.5 41.0, 295.4 41.17, 295.3 41.33, 295.2 41.5, 295.1 41.67, 295.0 41.83, 294.9 42.0, 294.8 42.17, 294.7 42.33, 294.6 42.5, 294.5 42.67, 294.4 42.83, 294.3 43.0, 294.2 43.17, 294.1 43.33, 294.0 43.5, 293.9 43.67, 293.8 43.83, 293.7 44.0, 293.6 44.17, 293.5 44.33, 293.4 44.5, 293.3 44.67, 293.2 44.83, 293.1 45.0, 293.0 45.17, 292.9 45.33, 292.8 45.5, 292.7 45.67, 292.6 45.83, 292.5 46.0, 292.4 46.17, 292.3 46.33, 292.2 46.5, 292.1 46.67, 292.0 46.83, 291.9 47.0, 291.8 47.17, 291.7 47.33, 291.6 47.5, 291.5 47.67, 291.4 47.83, 291.3 48.0, 291.2 48.17, 291.1 48.33, 291.0 48.5, 290.9 48.67, 290.8 48.83, 290.7 49.0, 290.6 49.17, 290.5 49.33, 290.4 49.5, 290.3 49.67, 290.2 49.83, 290.1 50.0, 290.0 50.17, 289.9 50.33, 289.8 50.5, 289.7 50.67, 289.6 50.83, 289.5 51.0, 289.4 51.17, 289.3 51.33, 289.2 51.5, 289.1 51.67, 289.0 51.83, 288.9 52.0, 288.8 52.17, 288.7 52.33, 288.6 52.5, 288.5 52.67, 288.4 52.83, 288.3 53.0, 288.2 53.17, 288.1 53.33, 288.0 53.5, 287.9 53.67, 287.8 53.83, 287.7 54.0, 287.6 54.17, 287.5 54.33, 287.4 54.5, 287.3 54.67, 287.2 54.83, 287.1 55.0, 287.0 55.17, 286.9 55.33, 286.8 55.5, 286.7 55.67, 286.6 55.83, 286.5 56.0, 286.4 56.17, 286.3 56.33, 286.2 56.5, 286.1 56.67, 286.0 56.83, 285.9 57.0, 285.8 57.17, 285.7 57.33, 285.6 57.5, 285.5 57.67, 285.4 57.83, 285.3 58.0, 285.2 58.17, 285.1 58.33, 285.0 58.5, 284.9 58.67, 284.8 58.83, 284.7 59.0, 284.6 59.17, 284.5 59.33, 284.4 59.5, 284.3 59.67, 284.2 59.83, 284.1 60.0, 284.0 60.17, 283.9 60.33, 283.8 60.5, 283.7 60.67, 283.6 60.83, 283.5 61.0, 283.4 61.17, 283.3 61.33, 283.2 61.5, 283.1 61.67, 283.0 61.83, 282.9 62.0, 282.8 62.17, 282.7 62.33, 282.6 62.5, 282.5 62.67, 282.4 62.83, 282.3 63.0, 282.2 63.17, 282.1 63.33, 282.0 63.5, 281.9 63.67, 281.8 63.83, 281.7 64.0, 281.6 64.17, 281.5 64.33, 281.4 64.5, 281.3 64.67, 281.2 64.83, 281.1 65.0, 281.0 65.17, 280.9 65.33, 280.8 65.5, 280.7 65.67, 280.6 65.83, 280.5 66.0, 280.4 66.17, 280.3 66.33, 280.2 66.5, 280.1 66.67, 280.0 66.83, 279.9 67.0, 279.8 67.17, 279.7 67.33, 279.6 67.5, 279.5 67.67, 279.4 67.83, 279.3 68.0, 279.2 68.17, 279.1 68.33, 279.0 68.5, 278.9 68.67, 278.8 68.83, 278.7 69.0, 278.6 69.17, 278.5 69.33, 278.4 69.5, 278.3 69.67, 278.2 69.83, 278.1 70.0, 278.0 70.17, 277.9 70.33, 277.8 70.5, 277.7 70.67, 277.6 70.83, 277.5 71.0, 277.4 71.17, 277.3 71.33, 277.2 71.5, 277.1 71.67, 277.0 71.83, 276.9 72.0, 276.8 72.17, 276.7 72.33, 276.6 72.5, 276.5 72.67, 276.4 72.83, 276.3 73.0, 276.2 73.17, 276.1 73.33, 276.0 73.5, 275.9 73.67, 275.8 73.83, 275.7 74.0, 275.6 74.17, 275.5 74.33, 275.4 74.5, 275.3 74.67, 275.2 74.83, 275.1 75.0, 275.0 75.17, 274.9 75.33, 274.8 75.5, 274.7 75.67, 274.6 75.83, 274.5 76.0, 274.4 76.17, 274.3 76.33, 274.2 76.5, 274.1 76.67, 274.0 76.83, 273.9 77.0, 273.8 77.17, 273.7 77.33, 273.6 77.5, 273.5 77.67, 273.4 77.83, 273.3 78.0, 273.2 78.17, 273.1 78.33, 273.0 78.5, 272.9 78.67, 272.8 78.83, 272.7 79.0, 272.6 79.17, 272.5 79.33, 272.4 79.5, 272.3 79.67, 272.2 79.83, 272.1 80.0, 272.0 80.17, 271.9 80.33, 271.8 80.5, 271.7 80.67, 271.6 80.83, 271.5 81.0, 271.4 81.17, 271.3 81.33, 271.2 81.5, 271.1 81.67, 271.0 81.83, 270.9 82.0, 270.8 82.17, 270.7 82.33, 270.6 82.5, 270.5 82.67, 270.4 82.83, 270.3 83.0, 270.2 83.17, 270.1 83.33, 270.0 83.5, 269.9 83.67, 269.8 83.83, 269.7 84.0, 269.6 84.17, 269.5 84.33, 269.4 84.5, 269.3 84.67, 269.2 84.83, 269.1 85.0, 269.0 85.17, 268.9 85.33, 268.8 85.5, 268.7 85.67, 268.6 85.83, 268.5 86.0, 268.4 86.17, 268.3 86.33, 268.2 86.5, 268.1 86.67, 268.0 86.83, 267.9 87.0, 267.8 87.17, 267.7 87.33, 267.6 87.5, 267.5 87.67, 267.4 87.83, 267.3 88.0, 267.2 88.17, 267.1 88.33, 267.0 88.5, 266.9 88.67, 266.8 88.83, 266.7 89.0, 266.6 89.17, 266.5 89.33, 266.4 89.5, 266.3 89.67, 266.2 89.83, 266.1 90.0, 266.0 90.17, 265.9 90.33, 265.8 90.5, 265.7 90.67, 265.6 90.83, 265.5 91.0, 265.4 91.17, 265.3 91.33, 265.2 91.5, 265.1 91.67, 265.0 91.83, 264.9 92.0, 264.8 92.17, 264.7 92.33, 264.6 92.5, 264.5 92.67, 264.4 92.83, 264.3 93.0, 264.2 93.17, 264.1 93.33, 264.0 93.5, 263.9 93.67, 263.8 93.83, 263.7 94.0, 263.6 94.17, 263.5 94.33, 263.4 94.5, 263.3 94.67, 263.2 94.83, 263.1 95.0, 263.0 95.17, 262.9 95.33, 262.8 95.5, 262.7 95.67, 262.6 95.83, 262.5 96.0, 262.4 96.17, 262.3 96.33, 262.2 96.5, 262.1 96.67, 262.0 96.83, 261.9 97.0, 261.8 97.17, 261.7 97.33, 261.6 97.5, 261.5 97.67, 261.4 97.83, 261.3 98.0, 261.2 98.17, 261.1 98.33, 261.0 98.5, 260.9 98.67, 260.8 98.83, 260.7 99.0, 260.6 99.17, 260.5 99.33, 260.4 99.5, 260.3 99.67, 260.2 99.83, 260.1 100.0, 260.0 100.17, 259.9 100.33, 259.8 100.5, 259.7 100.67, 259.6 100.83, 259.5 101.0, 259.4 101.17, 259.3 101.33, 259.2 101.5, 259.1 101.67, 259.0 101.83, 258.9 102.0, 258.8 102.17, 258.7 102.33, 258.6 102.5, 258.5 102.67, 258.4 102.83, 258.3 103.0, 258.2 103.17, 258.1 103.33, 258.0 103.5, 257.9 103.67, 257.8 103.83, 257.7 104.0, 257.6 104.17, 257.5 104.33, 257.4 104.5, 257.3 104.67, 257.2 104.83, 257.1 105.0, 257.0 105.17, 256.9 105.33, 256.8 105.5, 256.7 105.67, 256.6 105.83, 256.5 106.0, 256.4 106.17, 256.3 106.33, 256.2 106.5, 256.1 106.67, 256.0 106.83, 255.9 107.0, 255.8 107.17, 255.7 107.33, 255.6 107.5, 255.5 107.67, 255.4 107.83, 255.3 108.0, 255.2 108.17, 255.1 108.33, 255.0 108.5, 254.9 108.67, 254.8 108.83, 254.7 109.0, 254.6 109.17, 254.5 109.33, 254.4 109.5, 254.3 109.67, 254.2 109.83, 254.1 110.0, 254.0 110.17, 253.9 110.33, 253.8 110.5, 253.7 110.67, 253.6 110.83, 253.5 111.0, 253.4 111.17, 253.3 111.33, 253.2 111.5, 253.1 111.67, 253.0 111.83, 252.9 112.0, 252.8 112.17, 252.7 112.33, 252.6 112.5, 252.5 112.67, 252.4 112.83, 252.3 113.0, 252.2 113.17, 252.1 113.33, 252.0 113.5, 251.9 113.67, 251.8 113.83, 251.7 114.0, 251.6 114.17, 251.5 114.33, 251.4 114.5, 251.3 114.67, 251.2 114.83, 251.1 115.0, 251.0 115.17, 250.9 115.33, 250.8 115.5, 250.7 115.67, 250.6 115.83, 250.5 116.0, 250.4 116.17, 250.3 116.33, 250.2 116.5, 250.1 116.67, 250.0 116.83, 249.9 117.0, 249.8 117.17, 249.7 117.33, 249.6 117.5, 249.5 117.67, 249.4 117.83, 249.3 118.0, 249.2 118.17, 249.1 118.33, 249.0 118.5, 248.9 118.67, 248.8 118.83, 248.7 119.0, 248.6 119.17, 248.5 119.33, 248.4 119.5, 248.3 119.67, 248.2 119.83, 248.1 120.0, 248.0 120.17, 247.9 120.33, 247.8 120.5, 247.7 120.67, 247.6 120.83, 247.5 121.0, 247.4 121.17, 247.3 121.33, 247.2 121.5, 247.1 121.67, 247.0 121.83, 246.9 122.0, 246.8 122.17, 246.7 122.33, 246.6 122.5, 246.5 122.67, 246.4 122.83, 246.3 123.0, 246.2 123.17, 246.1 123.33, 246.0 123.5, 245.9 123.67, 245.8 123.83, 245.7 124.0, 245.6 124.17, 245.5 124.33, 245.4 124.5, 245.3 124.67, 245.2 124.83, 245.1 125.0, 245.0 125.17, 244.9 125.33, 244.8 125.5, 244.7 125.67, 244.6 125.83, 244.5 126.0, 244.4 126.17, 244.3 126.33, 244.2 126.5, 244.1 126.67, 244.0 126.83, 243.9 127.0, 243.8 127.17, 243.7 127.33, 243.6 127.5, 243.5 127.67, 243.4 127.83, 243.3 128.0, 243.2 128.17, 243.1 128.33, 243.0 128.5, 242.9 128.67, 242.8 128.83, 242.7 129.0, 242.6 129.17, 242.5 129.33, 242.4 129.5, 242.3 129.67, 242.2 129.83, 242.1 130.0, 242.0 130.17, 241.9 130.33, 241.8 130.5, 241.7 130.67, 241.6 130.83, 241.5 131.0, 241.4 131.17, 241.3 131.33, 241.2 131.5, 241.1 131.67, 241.0 131.83, 240.9 132.0, 240.8 132.17, 240.7 132.33, 240.6 132.5, 240.5 132.67, 240.4 132.83, 240.3 133.0, 240.2 133.17, 240.1 133.33, 240.0 133.5, 239.9 133.67, 239.8 133.83, 239.7 134.0, 239.6 134.17, 239.5 134.33, 239.4 134.5, 239.3 134.67, 239.2 134.83, 239.1 135.0, 239.0 135.17, 238.9 135.33, 238.8 135.5, 238.7 135.67, 238.6 135.83, 238.5 136.0, 238.4 136.17, 238.3 136.33, 238.2 136.5, 238.1 136.67, 238.0 136.83, 237.9 137.0, 237.8 137.17, 237.7 137.33, 237.6 137.5, 237.5 137.67, 237.4 137.83, 237.3 138.0, 237.2 138.17, 237.1 138.33, 237.0 138.5, 236.9 138.67, 236.8 138.83, 236.7 139.0, 236.6 139.17, 236.5 139.33, 236.4 139.5, 236.3 139.67, 236.2 139.83, 236.1 140.0, 236.0 140.17, 235.9 140.33, 235.8 140.5, 235.7 140.67, 235.6 140.83, 235.5 141.0, 235.4 141.17, 235.3 141.33, 235.2 141.5, 235.1 141.67, 235.0 141.83, 234.9 142.0, 234.8 142.17, 234.7 142.33, 234.6 142.5, 234.5 142.67, 234.4 142.83, 234.3 143.0, 234.2 143.17, 234.1 143.33, 234.0 143.5, 233.9 143.67, 233.8 143.83, 233.7 144.0, 233.6 144.17, 233.5 144.33, 233.4 144.5, 233.3 144.67, 233.2 144.83, 233.1 145.0, 233.0 145.17, 232.9 145.33, 232.8 145.5, 232.7 145.67, 232.6 145.83, 232.5 146.0, 232.4 146.17, 232.3 146.33, 232.2 146.5, 232.1 146.67, 232.0 146.83, 231.9 147.0, 231.8 147.17, 231.7 147.33, 231.6 147.5, 231.5 147.67, 231.4 147.83, 231.3 148.0, 231.2 148.17, 231.1 148.33, 231.0 148.5, 230.9 148.67, 230.8 148.83, 230.7 149.0, 230.6 149.17, 230.5 149.33, 230.4 149.5, 230.3 149.67, 230.2 149.83, 230.1 150.0, 230.0 150.17, 229.9 150.33, 229.8 150.5, 229.7 150.67, 229.6 150.83, 229.5 151.0, 229.4 151.17, 229.3 151.33, 229.2 151.5, 229.1 151.67, 229.0 151.83, 228.9 152.0, 228.8 152.17, 228.7 152.33, 228.6 152.5, 228.5 152.67, 228.4 152.83, 228.3 153.0, 228.2 153.17, 228.1 153.33, 228.0 153.5, 227.9 153.67, 227.8 153.83, 227.7 154.0, 227.6 154.17, 227.5 154.33, 227.4 154.5, 227.3 154.67, 227.2 154.83, 227.1 155.0, 227.0 155.17, 226.9 155.33, 226.8 155.5, 226.7 155.67, 226.6 155.83, 226.5 156.0, 226.4 156.17, 226.3 156.33, 226.2 156.5, 226.1 156.67, 226.0 156.83, 225.9 157.0, 225.8 157.17, 225.7 157.33, 225.6 157.5, 225.5 157.67, 225.4 157.83, 225.3 158.0, 225.2 158.17, 225.1 158.33, 225.0 158.5, 224.9 158.67, 224.8 158.83, 224.7 159.0, 224.6 159.17, 224.5 159.33, 224.4 159.5, 224.3 159.67, 224.2 159.83, 224.1 160.0, 224.0 160.17, 223.9 160.33, 223.8 160.5, 223.7 160.67, 223.6 160.83, 223.5 161.0, 223.4 161.17, 223.3 161.33, 223.2 161.5, 223.1 161.67, 223.0 161.83, 222.9 162.0, 222.8 162.17, 222.7 162.33, 222.6 162.5, 222.5 162.67, 222.4 162.83, 222.3 163.0, 222.2 163.17, 222.1 163.33, 222.0 163.5, 221.9 163.67, 221.8 163.83, 221.7 164.0, 221.6 164.17, 221.5 164.33, 221.4 164.5, 221.3 164.67, 221.2 164.83, 221.1 165.0, 221.0 165.17, 220.9 165.33, 220.8 165.5, 220.7 165.67, 220.6 165.83, 220.5 166.0, 220.4 166.17, 220.3 166.33, 220.2 166.5, 220.1 166.67, 220.0 166.83, 219.9 167.0, 219.8 167.17, 219.7 167.33, 219.6 167.5, 219.5 167.67, 219.4 167.83, 219.3 168.0, 219.2 168.17, 219.1 168.33, 219.0 168.5, 218.9 168.67, 218.8 168.83, 218.7 169.0, 218.6 169.17, 218.5 169.33, 218.4 169.5, 218.3 169.67, 218.2 169.83, 218.1 170.0, 218.0 170.17, 217.9 170.33, 217.8 170.5, 217.7 170.67, 217.6 170.83, 217.5 171.0, 217.4 171.17, 217.3 171.33, 217.2 171.5, 217.1 171.67, 217.0 171.83, 216.9 172.0, 216.8 172.17, 216.7 172.33, 216.6 172.5, 216.5 172.67, 216.4 172.83, 216.3 173.0, 216.2 173.17, 216.1 173.33, 216.0 173.5, 215.9 173.67, 215.8 173.83, 215.7 174.0, 215.6 174.17, 215.5 174.33, 215.4 174.5, 215.3 174.67, 215.2 174.83, 215.1 175.0, 215.0 175.17, 214.9 175.33, 214.8 175.5, 214.7 175.67, 214.6 175.83, 214.5 176.0, 214.4 176.17, 214.3 176.33, 214.2 176.5, 214.1 176.67, 214.0 176.83, 213.9 177.0, 213.8 177.17, 213.7 177.33, 213.6 177.5, 213.5 177.67, 213.4 177.83, 213.3 178.0, 213.2 178.17, 213.1 178.33, 213.0 178.5, 212.9 178.67, 212.8 178.83, 212.7 179.0, 212.6 179.17, 212.5 179.33, 212.4 179.5, 212.3 179.67, 212.2 179.83, 212.1 180.0, 212.0 180.17, 211.9 180.33, 211.8 180.5, 211.7 180.67, 211.6 180.83, 211.5 181.0, 211.4 181.17, 211.3 181.33, 211.2 181.5, 211.1 181.67, 211.0 181.83, 210.9 182.0, 210.8 182.17, 210.7 182.33, 210.6 182.5, 210.5 182.67, 210.4 182.83, 210.3 183.0, 210.2 183.17, 210.1 183.33, 210.0 183.5, 209.9 183.67, 209.8 183.83, 209.7 184.0, 209.6 184.17, 209.5 184.33, 209.4 184.5, 209.3 184.67, 209.2 184.83, 209.1 185.0, 209.0 185.17, 208.9 185.33, 208.8 185.5, 208.7 185.67, 208.6 185.83, 208.5 186.0, 208.4 186.17, 208.3 186.33, 208.2 186.5, 208.1 186.67, 208.0 186.83, 207.9 187.0, 207.8 187.17, 207.7 187.33, 207.6 187.5, 207.5 187.67, 207.4 187.83, 207.3 188.0, 207.2 188.17, 207.1 188.33, 207.0 188.5, 206.9 188.67, 206.8 188.83, 206.7 189.0, 206.6 189.17, 206.5 189.33, 206.4 189.5, 206.3 189.67, 206.2 189.83, 206.1 190.0, 206.0 190.17, 205.9 190.33, 205.8 190.5, 205.7 190.67, 205.6 190.83, 205.5 191.0, 205.4 191.17, 205.3 191.33, 205.2 191.5, 205.1 191.67, 205.0 191.83, 204.9 192.0, 204.8 192.17, 204.7 192.33, 204.6 192.5, 204.5 192.67, 204.4 192.83, 204.3 193.0, 204.2 193.17, 204.1 193.33, 204.0 193.5, 203.9 193.67, 203.8 193.83, 203.7 194.0, 203.6 194.17, 203.5 194.33, 203.4 194.5, 203.3 194.67, 203.2 194.83, 203.1 195.0, 203.0 195.17, 202.9 195.33, 202.8 195.5, 202.7 195.67, 202.6 195.83, 202.5 196.0, 202.4 196.17, 202.3 196.33, 202.2 196.5, 202.1 196.67, 202.0 196.83, 201.9 197.0, 201.8 197.17, 201.7 197.33, 201.6 197.5, 201.5 197.67, 201.4 197.83, 201.3 198.0, 201.2 198.17, 201.1 198.33, 201.0 198.5, 200.9 198.67, 200.8 198.83, 200.7 199.0, 200.6 199.17, 200.5 199.33, 200.4 199.5, 200.3 199.67, 200.2 199.83, 200.1 200.0, 200.0 200.17, 199.9 200.33, 199.8 200.5, 199.7 200.67, 199.6 200.83, 199.5 201.0, 199.4 201.17, 199.3 201.33, 199.2 201.5, 199.1 201.67, 199.0 201.83, 198.9 202.0, 198.8 202.17, 198.7 202.33, 198.6 202.5, 198.5 202.67, 198.4 202.83, 198.3 203.0, 198.2 203.17, 198.1 203.33, 198.0 203.5, 197.9 203.67, 197.8 203.83, 197.7 204.0, 197.6 204.17, 197.5 204.33, 197.4 204.5, 197.3 204.67, 197.2 204.83, 197.1 205.0, 197.0 205.17, 196.9 205.33, 196.8 205.5, 196.7 205.67, 196.6 205.83, 196.5 206.0, 196.4 206.17, 196.3 206.33, 196.2 206.5, 196.1 206.67, 196.0 206.83, 195.9 207.0, 195.8 207.17, 195.7 207.33, 195.6 207.5, 195.5 207.67, 195.4 207.83, 195.3 208.0, 195.2 208.17, 195.1 208.33, 195.0 208.5, 194.9 208.67, 194.8 208.83, 194.7 209.0, 194.6 209.17, 194.5 209.33, 194.4 209.5, 194.3 209.67, 194.2 209.83, 194.1 210.0, 194.0 210.17, 193.9 210.33, 193.8 210.5, 193.7 210.67, 193.6 210.83, 193.5 211.0, 193.4 211.17, 193.3 211.33, 193.2 211.5, 193.1 211.67, 193.0 211.83, 192.9 212.0, 192.8 212.17, 192.7 212.33, 192.6 212.5, 192.5 212.67, 192.4 212.83, 192.3 213.0, 192.2 213.17, 192.1 213.33, 192.0 213.5, 191.9 213.67, 191.8 213.83, 191.7 214.0, 191.6 214.17, 191.5 214.33, 191.4 214.5, 191.3 214.67, 191.2 214.83, 191.1 215.0, 191.0 215.17, 190.9 215.33, 190.8 215.5, 190.7 215.67, 190.6 215.83, 190.5 216.0, 190.4 216.17, 190.3 216.33, 190.2 216.5, 190.1 216.67, 190.0 216.83, 189.9 217.0, 189.8 217.17, 189.7 217.33, 189.6 217.5, 189.5 217.67, 189.4 217.83, 189.3 218.0, 189.2 218.17, 189.1 218.33, 189.0 218.5, 188.9 218.67, 188.8 218.83, 188.7 219.0, 188.6 219.17, 188.5 219.33, 188.4 219.5, 188.3 219.67, 188.2 219.83, 188.1 220.0, 188.0 220.17, 187.9 220.33, 187.8 220.5, 187.7 220.67, 187.6 220.83, 187.5 221.0, 187.4 221.17, 187.3 221.33, 187.2 221.5, 187.1 221.67, 187.0 221.83, 186.9 222.0, 186.8 222.17, 186.7 222.33, 186.6 222.5, 186.5 222.67, 186.4 222.83, 186.3 223.0, 186.2 223.17, 186.1 223.33, 186.0 223.5, 185.9 223.67, 185.8 223.83, 185.7 224.0, 185.6 224.17, 185.5 224.33, 185.4 224.5, 185.3 224.67, 185.2 224.83, 185.1 225.0, 185.0 225.17, 184.9 225.33, 184.8 225.5, 184.7 225.67, 184.6 225.83, 184.5 226.0, 184.4 226.17, 184.3 226.33, 184.2 226.5, 184.1 226.67, 184.0 226.83, 183.9 227.0, 183.8 227.17, 183.7 227.33, 183.6 227.5, 183.5 227.67, 183.4 227.83, 183.3 228.0, 183.2 228.17, 183.1 228.33, 183.0 228.5, 182.9 228.67, 182.8 228.83, 182.7 229.0, 182.6 229.17, 182.5 229.33, 182.4 229.5, 182.3 229.67, 182.2 229.83, 182.1 230.0, 182.0 230.17, 181.9 230.33, 181.8 230.5, 181.7 230.67, 181.6 230.83, 181.5 231.0, 181.4 231.17, 181.3 231.33, 181.2 231.5, 181.1 231.67, 181.0 231.83, 180.9 232.0, 180.8 232.17, 180.7 232.33, 180.6 232.5, 180.5 232.67, 180.4 232.83, 180.3 233.0, 180.2 233.17, 180.1 233.33, 180.0 233.5, 179.9 233.67, 179.8 233.83, 179.7 234.0, 179.6 234.17, 179.5 234.33, 179.4 234.5, 179.3 234.67, 179.2 234.83, 179.1 235.0, 179.0 235.17, 178.9 235.33, 178.8 235.5, 178.7 235.67, 178.6 235.83, 178.5 236.0, 178.4 236.17, 178.3 236.33, 178.2 236.5, 178.1 236.67, 178.0 236.83, 177.9 237.0, 177.8 237.17, 177.7 237.33, 177.6 237.5, 177.5 237.67, 177.4 237.83, 177.3 238.0, 177.2 238.17, 177.1 238.33, 177.0 238.5, 176.9 238.67, 176.8 238.83, 176.7 239.0, 176.6 239.17, 176.5 239.33, 176.4 239.5, 176.3 239.67, 176.2 239.83, 176.1 240.0, 176.0 240.17, 175.9 240.33, 175.8 240.5, 175.7 240.67, 175.6 240.83, 175.5 241.0, 175.4 241.17, 175.3 241.33, 175.2 241.5, 175.1 241.67, 175.0 241.83, 174.9 242.0, 174.8 242.17, 174.7 242.33, 174.6 242.5, 174.5 242.67, 174.4 242.83, 174.3 243.0, 174.2 243.17, 174.1 243.33, 174.0 243.5, 173.9 243.67, 173.8 243.83, 173.7 244.0, 173.6 244.17, 173.5 244.33, 173.4 244.5, 173.3 244.67, 173.2 244.83, 173.1 245.0, 173.0 245.17, 172.9 245.33, 172.8 245.5, 172.7 245.67, 172.6 245.83, 172.5 246.0, 172.4 246.17, 172.3 246.33, 172.2 246.5, 172.1 246.67, 172.0 246.83, 171.9 247.0, 171.8 247.17, 171.7 247.33, 171.6 247.5, 171.5 247.67, 171.4 247.83, 171.3 248.0, 171.2 248.17, 171.1 248.33, 171.0 248.5, 170.9 248.67, 170.8 248.83, 170.7 249.0, 170.6 249.17, 170.5 249.33, 170.4 249.5, 170.3 249.67, 170.2 249.83, 170.1 250.0, 170.0 250.17, 169.9 250.33, 169.8 250.5, 169.7 250.67, 169.6 250.83, 169.5 251.0, 169.4 251.17, 169.3 251.33, 169.2 251.5, 169.1 251.67, 169.0 251.83, 168.9 252.0, 168.8 252.17, 168.7 252.33, 168.6 252.5, 168.5 252.67, 168.4 252.83, 168.3 253.0, 168.2 253.17, 168.1 253.33, 168.0 253.5, 167.9 253.67, 167.8 253.83, 167.7 254.0, 167.6 254.17, 167.5 254.33, 167.4 254.5, 167.3 254.67, 167.2 254.83, 167.1 255.0, 167.0 255.17, 166.9 255.33, 166.8 255.5, 166.7 255.67, 166.6 255.83, 166.5 256.0, 166.4 256.17, 166.3 256.33, 166.2 256.5, 166.1 256.67, 166.0 256.83, 165.9 257.0, 165.8 257.17, 165.7 257.33, 165.6 257.5, 165.5 257.67, 165.4 257.83, 165.3 258.0, 165.2 258.17, 165.1 258.33, 165.0 258.5, 164.9 258.67, 164.8 258.83, 164.7 259.0, 164.6 259.17, 164.5 259.33, 164.4 259.5, 164.3 259.67, 164.2 259.83, 164.1 260.0, 164.0 260.17, 163.9 260.33, 163.8 260.5, 163.7 260.67, 163.6 260.83, 163.5 261.0, 163.4 261.17, 163.3 261.33, 163.2 261.5, 163.1 261.67, 163.0 261.83, 162.9 262.0, 162.8 262.17, 162.7 262.33, 162.6 262.5, 162.5 262.67, 162.4 262.83, 162.3 263.0, 162.2 263.17, 162.1 263.33, 162.0 263.5, 161.9 263.67, 161.8 263.83, 161.7 264.0, 161.6 264.17, 161.5 264.33, 161.4 264.5, 161.3 264.67, 161.2 264.83, 161.1 265.0, 161.0 265.17, 160.9 265.33, 160.8 265.5, 160.7 265.67, 160.6 265.83, 160.5 266.0, 160.4 266.17, 160.3 266.33, 160.2 266.5, 160.1 266.67, 160.0 266.83, 159.9 267.0, 159.8 267.17, 159.7 267.33, 159.6 267.5, 159.5 267.67, 159.4 267.83, 159.3 268.0, 159.2 268.17, 159.1 268.33, 159.0 268.5, 158.9 268.67, 158.8 268.83, 158.7 269.0, 158.6 269.17, 158.5 269.33, 158.4 269.5, 158.3 269.67, 158.2 269.83, 158.1 270.0, 158.0 270.17, 157.9 270.33, 157.8 270.5, 157.7 270.67, 157.6 270.83, 157.5 271.0, 157.4 271.17, 157.3 271.33, 157.2 271.5, 157.1 271.67, 157.0 271.83, 156.9 272.0, 156.8 272.17, 156.7 272.33, 156.6 272.5, 156.5 272.67, 156.4 272.83, 156.3 273.0, 156.2 273.17, 156.1 273.33, 156.0 273.5, 155.9 273.67, 155.8 273.83, 155.7 274.0, 155.6 274.17, 155.5 274.33, 155.4 274.5, 155.3 274.67, 155.2 274.83, 155.1 275.0, 155.0 275.17, 154.9 275.33, 154.8 275.5, 154.7 275.67, 154.6 275.83, 154.5 276.0, 154.4 276.17, 154.3 276.33, 154.2 276.5, 154.1 276.67, 154.0 276.83, 153.9 277.0, 153.8 277.17, 153.7 277.33, 153.6 277.5, 153.5 277.67, 153.4 277.83, 153.3 278.0, 153.2 278.17, 153.1 278.33, 153.0 278.5, 152.9 278.67, 152.8 278.83, 152.7 279.0, 152.6 279.17, 152.5 279.33, 152.4 279.5, 152.3 279.67, 152.2 279.83, 152.1 280.0, 152.0 280.17, 151.9 280.33, 151.8 280.5, 151.7 280.67, 151.6 280.83, 151.5 281.0, 151.4 281.17, 151.3 281.33, 151.2 281.5, 151.1 281.67, 151.0 281.83, 150.9 282.0, 150.8 282.17, 150.7 282.33, 150.6 282.5, 150.5 282.67, 150.4 282.83, 150.3 283.0, 150.2 283.17, 150.1 283.33, 150.0 283.5, 149.9 283.67, 149.8 283.83, 149.7 284.0, 149.6 284.17, 149.5 284.33, 149.4 284.5, 149.3 284.67, 149.2 284.83, 149.1 285.0, 149.0 285.17, 148.9 285.33, 148.8 285.5, 148.7 285.67, 148.6 285.83, 148.5 286.0, 148.4 286.17, 148.3 286.33, 148.2 286.5, 148.1 286.67, 148.0 286.83, 147.9 287.0, 147.8 287.17, 147.7 287.33, 147.6 287.5, 147.5 287.67, 147.4 287.83, 147.3 288.0, 147.2 288.17, 147.1 288.33, 147.0 288.5, 146.9 288.67, 146.8 288.83, 146.7 289.0, 146.6 289.17, 146.5 289.33, 146.4 289.5, 146.3 289.67, 146.2 289.83, 146.1 290.0, 146.0 290.17, 145.9 290.33, 145.8 290.5, 145.7 290.67, 145.6 290.83, 145.5 291.0, 145.4 291.17, 145.3 291.33, 145.2 291.5, 145.1 291.67, 145.0 291.83, 144.9 292.0, 144.8 292.17, 144.7 292.33, 144.6 292.5, 144.5 292.67, 144.4 292.83, 144.3 293.0, 144.2 293.17, 144.1 293.33, 144.0 293.5, 143.9 293.67, 143.8 293.83, 143.7 294.0, 143.6 294.17, 143.5 294.33, 143.4 294.5, 143.3 294.67, 143.2 294.83, 143.1 295.0, 143.0 295.17, 142.9 295.33, 142.8 295.5, 142.7 295.67, 142.6 295.83, 142.5 296.0, 142.4 296.17, 142.3 296.33, 142.2 296.5, 142.1 296.67, 142.0 296.83, 141.9 297.0, 141.8 297.17, 141.7 297.33, 141.6 297.5, 141.5 297.67, 141.4 297.83, 141.3 298.0, 141.2 298.17, 141.1 298.33, 141.0 298.5, 140.9 298.67, 140.8 298.83, 140.7 299.0, 140.6 299.17, 140.5 299.33, 140.4 299.5, 140.3 299.67, 140.2 299.83, 140.1 300.0, 140.0 300.17, 139.9 300.33, 139.8 300.5, 139.7 300.67, 139.6 300.83, 139.5 301.0, 139.4 301.17, 139.3 301.33, 139.2 301.5, 139.1 301.67, 139.0 301.83, 138.9 302.0, 138.8 302.17, 138.7 302.33, 138.6 302.5, 138.5 302.67, 138.4 302.83, 138.3 303.0, 138.2 303.17, 138.1 303.33, 138.0 303.5, 137.9 303.67, 137.8 303.83, 137.7 304.0, 137.6 304.17, 137.5 304.33, 137.4 304.5, 137.3 304.67, 137.2 304.83, 137.1 305.0, 137.0 305.17, 136.9 305.33, 136.8 305.5, 136.7 305.67, 136.6 305.83, 136.5 306.0, 136.4 306.17, 136.3 306.33, 136.2 306.5, 136.1 306.67, 136.0 306.83, 135.9 307.0, 135.8 307.17, 135.7 307.33, 135.6 307.5, 135.5 307.67, 135.4 307.83, 135.3 308.0, 135.2 308.17, 135.1 308.33, 135.0 308.5, 134.9 308.67, 134.8 308.83, 134.7 309.0, 134.6 309.17, 134.5 309.33, 134.4 309.5, 134.3 309.67, 134.2 309.83, 134.1 310.0, 134.0 310.17, 133.9 310.33, 133.8 310.5, 133.7 310.67, 133.6 310.83, 133.5 311.0, 133.4 311.17, 133.3 311.33, 133.2 311.5, 133.1 311.67, 133.0 311.83, 132.9 312.0, 132.8 312.17, 132.7 312.33, 132.6 312.5, 132.5 312.67, 132.4 312.83, 132.3 313.0, 132.2 313.17, 132.1 313.33, 132.0 313.5, 131.9 313.67, 131.8 313.83, 131.7 314.0, 131.6 314.17, 131.5 314.33, 131.4 314.5, 131.3 314.67, 131.2 314.83, 131.1 315.0, 131.0 315.17, 130.9 315.33, 130.8 315.5, 130.7 315.67, 130.6 315.83, 130.5 316.0, 130.4 316.17, 130.3 316.33, 130.2 316.5, 130.1 316.67, 130.0 316.83, 129.9 317.0, 129.8 317.17, 129.7 317.33, 129.6 317.5, 129.5 317.67, 129.4 317.83, 129.3 318.0, 129.2 318.17, 129.1 318.33, 129.0 318.5, 128.9 318.67, 128.8 318.83, 128.7 319.0, 128.6 319.17, 128.5 319.33, 128.4 319.5, 128.3 319.67, 128.2 319.83, 128.1 320.0, 128.0 320.17, 127.9 320.33, 127.8 320.5, 127.7 320.67, 127.6 320.83, 127.5 321.0, 127.4 321.17, 127.3 321.33, 127.2 321.5, 127.1 321.67, 127.0 321.83, 126.9 322.0, 126.8 322.17, 126.7 322.33, 126.6 322.5, 126.5 322.67, 126.4 322.83, 126.3 323.0, 126.2 323.17, 126.1 323.33, 126.0 323.5, 125.9 323.67, 125.8 323.83, 125.7 324.0, 125.6 324.17, 125.5 324.33, 125.4 324.5, 125.3 324.67, 125.2 324.83, 125.1 325.0, 125.0 325.17, 124.9 325.33, 124.8 325.5, 124.7 325.67, 124.6 325.83, 124.5 326.0, 124.4 326.17, 124.3 326.33, 124.2 326.5, 124.1 326.67, 124.0 326.83, 123.9 327.0, 123.8 327.17, 123.7 327.33, 123.6 327.5, 123.5 327.67, 123.4 327.83, 123.3 328.0, 123.2 328.17, 123.1 328.33, 123.0 328.5, 122.9 328.67, 122.8 328.83, 122.7 329.0, 122.6 329.17, 122.5 329.33, 122.4 329.5, 122.3 329.67, 122.2 329.83, 122.1 330.0, 122.0 330.17, 121.9 330.33, 121.8 330.5, 121.7 330.67, 121.6 330.83, 121.5 331.0, 121.4 331.17, 121.3 331.33, 121.2 331.5, 121.1 331.67, 121.0 331.83, 120.9 332.0, 120.8 332.17, 120.7 332.33, 120.6 332.5, 120.5 332.67, 120.4 332.83, 120.3 333.0, 120.2 333.17, 120.1 333.33, 120.0 333.5, 119.9 333.67, 119.8 333.83, 119.7 334.0, 119.6 334.17, 119.5 334.33, 119.4 334.5, 119.3 334.67, 119.2 334.83, 119.1 335.0, 119.0 335.17, 118.9 335.33, 118.8 335.5, 118.7 335.67, 118.6 335.83, 118.5 336.0, 118.4 336.17, 118.3 336.33, 118.2 336.5, 118.1 336.67, 118.0 336.83, 117.9 337.0, 117.8 337.17, 117.7 337.33, 117.6 337.5, 117.5 337.67, 117.4 337.83, 117.3 338.0, 117.2 338.17, 117.1 338.33, 117.0 338.5, 116.9 338.67, 116.8 338.83, 116.7 339.0, 116.6 339.17, 116.5 339.33, 116.4 339.5, 116.3 339.67, 116.2 339.83, 116.1 340.0, 116.0 340.17, 115.9 340.33, 115.8 340.5, 115.7 340.67, 115.6 340.83, 115.5 341.0, 115.4 341.17, 115.3 341.33, 115.2 341.5, 115.1 341.67, 115.0 341.83, 114.9 342.0, 114.8 342.17, 114.7 342.33, 114.6 342.5, 114.5 342.67, 114.4 342.83, 114.3 343.0, 114.2 343.17, 114.1 343.33, 114.0 343.5, 113.9 343.67, 113.8 343.83, 113.7 344.0, 113.6 344.17, 113.5 344.33, 113.4 344.5, 113.3 344.67, 113.2 344.83, 113.1 345.0, 113.0 345.17, 112.9 345.33, 112.8 345.5, 112.7 345.67, 112.6 345.83, 112.5 346.0, 112.4 346.17, 112.3 346.33, 112.2 346.5, 112.1 346.67, 112.0 346.83, 111.9 347.0, 111.8 347.17, 111.7 347.33, 111.6 347.5, 111.5 347.67, 111.4 347.83, 111.3 348.0, 111.2 348.17, 111.1 348.33, 111.0 348.5, 110.9 348.67, 110.8 348.83, 110.7 349.0, 110.6 349.17, 110.5 349.33, 110.4 349.5, 110.3 349.67, 110.2 349.83, 110.1 350.0, 110.0 350.17, 109.9 350.33, 109.8 350.5, 109.7 350.67, 109.6 350.83, 109.5 351.0, 109.4 351.17, 109.3 351.33, 109.2 351.5, 109.1 351.67, 109.0 351.83, 108.9 352.0, 108.8 352.17, 108.7 352.33, 108.6 352.5, 108.5 352.67, 108.4 352.83, 108.3 353.0, 108.2 353.17, 108.1 353.33, 108.0 353.5, 107.9 353.67, 107.8 353.83, 107.7 354.0, 107.6 354.17, 107.5 354.33, 107.4 354.5, 107.3 354.67, 107.2 354.83, 107.1 355.0, 107.0 355.17, 106.9 355.33, 106.8 355.5, 106.7 355.67, 106.6 355.83, 106.5 356.0, 106.4 356.17, 106.3 356.33, 106.2 356.5, 106.1 356.67, 106.0 356.83, 105.9 357.0, 105.8 357.17, 105.7 357.33, 105.6 357.5, 105.5 357.67, 105.4 357.83, 105.3 358.0, 105.2 358.17, 105.1 358.33, 105.0 358.5, 104.9 358.67, 104.8 358.83, 104.7 359.0, 104.6 359.17, 104.5 359.33, 104.4 359.5, 104.3 359.67, 104.2 359.83, 104.1 360.0, 104.0 360.17, 103.9 360.33, 103.8 360.5, 103.7 360.67, 103.6 360.83, 103.5 361.0, 103.4 361.17, 103.3 361.33, 103.2 361.5, 103.1 361.67, 103.0 361.83, 102.9 362.0, 102.8 362.17, 102.7 362.33, 102.6 362.5, 102.5 362.67, 102.4 362.83, 102.3 363.0, 102.2 363.17, 102.1 363.33, 102.0 363.5, 101.9 363.67, 101.8 363.83, 101.7 364.0, 101.6 364.17, 101.5 364.33, 101.4 364.5, 101.3 364.67, 101.2 364.83, 101.1 365.0, 101.0 365.17, 100.9 365.33, 100.8 365.5, 100.7 365.67, 100.6 365.83, 100.5 366.0, 100.4 366.17, 100.3 366.33, 100.2 366.5, 100.1 366.67, 100.0 366.83, 99.9 367.0, 99.8 367.17, 99.7 367.33, 99.6 367.5, 99.5 367.67, 99.4 367.83, 99.3 368.0, 99.2 368.17, 99.1 368.33, 99.0 368.5, 98.9 368.67, 98.8 368.83, 98.7 369.0, 98.6 369.17, 98.5 369.33, 98.4 369.5, 98.3 369.67, 98.2 369.83, 98.1 370.0, 98.0 370.17, 97.9 370.33, 97.8 370.5, 97.7 370.67, 97.6 370.83, 97.5 371.0, 97.4 371.17, 97.3 371.33, 97.2 371.5, 97.1 371.67, 97.0 371.83, 96.9 372.0, 96.8 372.17, 96.7 372.33, 96.6 372.5, 96.5 372.67, 96.4 372.83, 96.3 373.0, 96.2 373.17, 96.1 373.33, 96.0 373.5, 95.9 373.67, 95.8 373.83, 95.7 374.0, 95.6 374.17, 95.5 374.33, 95.4 374.5, 95.3 374.67, 95.2 374.83, 95.1 375.0, 95.0 375.17, 94.9 375.33, 94.8 375.5, 94.7 375.67, 94.6 375.83, 94.5 376.0, 94.4 376.17, 94.3 376.33, 94.2 376.5, 94.1 376.67, 94.0 376.83, 93.9 377.0, 93.8 377.17, 93.7 377.33, 93.6 377.5, 93.5 377.67, 93.4 377.83, 93.3 378.0, 93.2 378.17, 93.1 378.33, 93.0 378.5, 92.9 378.67, 92.8 378.83, 92.7 379.0, 92.6 379.17, 92.5 379.33, 92.4 379.5, 92.3 379.67, 92.2 379.83, 92.1 380.0, 92.0 380.17, 91.9 380.33, 91.8 380.5, 91.7 380.67, 91.6 380.83, 91.5 381.0, 91.4 381.17, 91.3 381.33, 91.2 381.5, 91.1 381.67, 91.0 381.83, 90.9 382.0, 90.8 382.17, 90.7 382.33, 90.6 382.5, 90.5 382.67, 90.4 382.83, 90.3 383.0, 90.2 383.17, 90.1 383.33, 90.0 383.5, 89.9 383.67, 89.8 383.83, 89.7 384.0, 89.6 384.17, 89.5 384.33, 89.4 384.5, 89.3 384.67, 89.2 384.83, 89.1 385.0, 89.0 385.17, 88.9 385.33, 88.8 385.5, 88.7 385.67, 88.6 385.83, 88.5 386.0, 88.4 386.17, 88.3 386.33, 88.2 386.5, 88.1 386.67, 88.0 386.83, 87.9 387.0, 87.8 387.17, 87.7 387.33, 87.6 387.5, 87.5 387.67, 87.4 387.83, 87.3 388.0, 87.2 388.17, 87.1 388.33, 87.0 388.5, 86.9 388.67, 86.8 388.83, 86.7 389.0, 86.6 389.17, 86.5 389.33, 86.4 389.5, 86.3 389.67, 86.2 389.83, 86.1 390.0, 86.0 390.17, 85.9 390.33, 85.8 390.5, 85.7 390.67, 85.6 390.83, 85.5 391.0, 85.4 391.17, 85.3 391.33, 85.2 391.5, 85.1 391.67, 85.0 391.83, 84.9 392.0, 84.8 392.17, 84.7 392.33, 84.6 392.5, 84.5 392.67, 84.4 392.83, 84.3 393.0, 84.2 393.17, 84.1 393.33, 84.0 393.5, 83.9 393.67, 83.8 393.83, 83.7 394.0, 83.6 394.17, 83.5 394.33, 83.4 394.5, 83.3 394.67, 83.2 394.83, 83.1 395.0, 83.0 395.17, 82.9 395.33, 82.8 395.5, 82.7 395.67, 82.6 395.83, 82.5 396.0, 82.4 396.17, 82.3 396.33, 82.2 396.5, 82.1 396.67, 82.0 396.83, 81.9 397.0, 81.8 397.17, 81.7 397.33, 81.6 397.5, 81.5 397.67, 81.4 397.83, 81.3 398.0, 81.2 398.17, 81.1 398.33, 81.0 398.5, 80.9 398.67, 80.8 398.83, 80.7 399.0, 80.6 399.17, 80.5 399.33, 80.4 399.5, 80.3 399.67, 80.2 399.83, 80.1 400.0, 80.0 " fill="none" stroke="white" stroke-width="1.5" stroke-linejoin="round" stroke-opacity="1"/>

 </svg>