<svg version="1.1" 
 baseProfile="full" 
 width="400" 
 height="400" 
 xmlns="http://www.w3.org/2000/svg">
<rect x="0.0" y="0.0" width="400" height="400" fill="black" stroke="black" stroke-width="0" opacity="1"/>
<line x1="0.0" y1="0.0" x2="0.0" y2="400.0" stroke="white" stroke-width="1" opacity="0.4" stroke-linecap="butt"/>
<line x1="40.0" y1="0.0" x2="40.0" y2="400.0" stroke="white" stroke-width="1" opacity="0.4" stroke-linecap="butt"/>
<line x1="80.0" y1="0.0" x2="80.0" y2="400.0" stroke="white" stroke-width="1" opacity="0.4" stroke-linecap="butt"/>
<line x1="120.0" y1="0.0" x2="120.0" y2="400.0" stroke="white" stroke-width="1" opacity="0.4" stroke-linecap="butt"/>
<line x1="160.0" y1="0.0" x2="160.0" y2="400.0" stroke="white" stroke-width="1" opacity="0.4" stroke-linecap="butt"/>
<line x1="200.0" y1="0.0" x2="200.0" y2="400.0" stroke="white" stroke-width="1" opacity="0.4" stroke-linecap="butt"/>
<line x1="240.0" y1="0.0" x2="240.0" y2="400.0" stroke="white" stroke-width="1" opacity="0.4" stroke-linecap="butt"/>
<line x1="280.0" y1="0.0" x2="280.0" y2="400.0" stroke="white" stroke-width="1" opacity="0.4" stroke-linecap="butt"/>
<line x1="320.0" y1="0.0" x2="320.0" y2="400.0" stroke="white" stroke-width="1" opacity="0.4" stroke-linecap="butt"/>
<line x1="360.0" y1="0.0" x2="360.0" y2="400.0" stroke="white" stroke-width="1" opacity="0.4" stroke-linecap="butt"/>
<line x1="0.0" y1="0.0" x2="400.0" y2="0.0" stroke="white" stroke-width="1" opacity="0.4" stroke-linecap="butt"/>
<line x1="0.0" y1="40.0" x2="400.0" y2="40.0" stroke="white" stroke-width="1" opacity="0.4" stroke-linecap="butt"/>
<line x1="0.0" y1="80.0" x2="400.0" y2="80.0" stroke="white" stroke-width="1" opacity="0.4" stroke-linecap="butt"/>
<line x1="0.0" y1="120.0" x2="400.0" y2="120.0" stroke="white" stroke-width="1" opacity="0.4" stroke-linecap="butt"/>
<line x1="0.0" y1="160.0" x2="400.0" y2="160.0" stroke="white" stroke-width="1" opacity="0.4" stroke-linecap="butt"/>
<line x1="0.0" y1="200.0" x2="400.0" y2="200.0" stroke="white" stroke-width="1" opacity="0.4" stroke-linecap="butt"/>
<line x1="0.0" y1="240.0" x2="400.0" y2="240.0" stroke="white" stroke-width="1" opacity="0.4" stroke-linecap="butt"/>
<line x1="0.0" y1="280.0" x2="400.0" y2="280.0" stroke="white" stroke-width="1" opacity="0.4" stroke-linecap="butt"/>
<line x1="0.0" y1="320.0" x2="400.0" y2="320.0" stroke="white" stroke-width="1" opacity="0.4" stroke-linecap="butt"/>
<line x1="0.0" y1="360.0" x2="400.0" y2="360.0" stroke="white" stroke-width="1" opacity="0.4" stroke-linecap="butt"/>
<line x1="0.0" y1="200.0" x2="400.0" y2="200.0" stroke="yellow" stroke-width="2.5" opacity="1" stroke-linecap="butt"/>
<line x1="200.0" y1="0.0" x2="200.0" y2="400.0" stroke="yellow" stroke-width="2.5" opacity="1" stroke-linecap="butt"/>
<polygon points="391.0 204.0, 401.0 200.0, 391.0 196.0, 393.0 200.0" fill="yellow"/><polygon points="204.0 9.0, 200.0 -1.0, 196.0 9.0, 200.0 7.0" fill="yellow"/><image x="-60.0" y="-60.0" width="200" height="200" href="/Users/girirajhira/PycharmProjects/Giraphics3/Taylor/expr.png"/><polyline points="0.0, 360.0 0.17, 359.87 0.33, 359.73 0.5, 359.6 0.67, 359.47 0.83, 359.33 1.0, 359.2 1.17, 359.07 1.33, 358.93 1.5, 358.8 1.67, 358.67 1.83, 358.53 2.0, 358.4 2.17, 358.27 2.33, 358.13 2.5, 358.0 2.67, 357.87 2.83, 357.73 3.0, 357.6 3.17, 357.47 3.33, 357.33 3.5, 357.2 3.67, 357.07 3.83, 356.93 4.0, 356.8 4.17, 356.67 4.33, 356.53 4.5, 356.4 4.67, 356.27 4.83, 356.13 5.0, 356.0 5.17, 355.87 5.33, 355.73 5.5, 355.6 5.67, 355.47 5.83, 355.33 6.0, 355.2 6.17, 355.07 6.33, 354.93 6.5, 354.8 6.67, 354.67 6.83, 354.53 7.0, 354.4 7.17, 354.27 7.33, 354.13 7.5, 354.0 7.67, 353.87 7.83, 353.73 8.0, 353.6 8.17, 353.47 8.33, 353.33 8.5, 353.2 8.67, 353.07 8.83, 352.93 9.0, 352.8 9.17, 352.67 9.33, 352.53 9.5, 352.4 9.67, 352.27 9.83, 352.13 10.0, 352.0 10.17, 351.87 10.33, 351.73 10.5, 351.6 10.67, 351.47 10.83, 351.33 11.0, 351.2 11.17, 351.07 11.33, 350.93 11.5, 350.8 11.67, 350.67 11.83, 350.53 12.0, 350.4 12.17, 350.27 12.33, 350.13 12.5, 350.0 12.67, 349.87 12.83, 349.73 13.0, 349.6 13.17, 349.47 13.33, 349.33 13.5, 349.2 13.67, 349.07 13.83, 348.93 14.0, 348.8 14.17, 348.67 14.33, 348.53 14.5, 348.4 14.67, 348.27 14.83, 348.13 15.0, 348.0 15.17, 347.87 15.33, 347.73 15.5, 347.6 15.67, 347.47 15.83, 347.33 16.0, 347.2 16.17, 347.07 16.33, 346.93 16.5, 346.8 16.67, 346.67 16.83, 346.53 17.0, 346.4 17.17, 346.27 17.33, 346.13 17.5, 346.0 17.67, 345.87 17.83, 345.73 18.0, 345.6 18.17, 345.47 18.33, 345.33 18.5, 345.2 18.67, 345.07 18.83, 344.93 19.0, 344.8 19.17, 344.67 19.33, 344.53 19.5, 344.4 19.67, 344.27 19.83, 344.13 20.0, 344.0 20.17, 343.87 20.33, 343.73 20.5, 343.6 20.67, 343.47 20.83, 343.33 21.0, 343.2 21.17, 343.07 21.33, 342.93 21.5, 342.8 21.67, 342.67 21.83, 342.53 22.0, 342.4 22.17, 342.27 22.33, 342.13 22.5, 342.0 22.67, 341.87 22.83, 341.73 23.0, 341.6 23.17, 341.47 23.33, 341.33 23.5, 341.2 23.67, 341.07 23.83, 340.93 24.0, 340.8 24.17, 340.67 24.33, 340.53 24.5, 340.4 24.67, 340.27 24.83, 340.13 25.0, 340.0 25.17, 339.87 25.33, 339.73 25.5, 339.6 25.67, 339.47 25.83, 339.33 26.0, 339.2 26.17, 339.07 26.33, 338.93 26.5, 338.8 26.67, 338.67 26.83, 338.53 27.0, 338.4 27.17, 338.27 27.33, 338.13 27.5, 338.0 27.67, 337.87 27.83, 337.73 28.0, 337.6 28.17, 337.47 28.33, 337.33 28.5, 337.2 28.67, 337.07 28.83, 336.93 29.0, 336.8 29.17, 336.67 29.33, 336.53 29.5, 336.4 29.67, 336.27 29.83, 336.13 30.0, 336.0 30.17, 335.87 30.33, 335.73 30.5, 335.6 30.67, 335.47 30.83, 335.33 31.0, 335.2 31.17, 335.07 31.33, 334.93 31.5, 334.8 31.67, 334.67 31.83, 334.53 32.0, 334.4 32.17, 334.27 32.33, 334.13 32.5, 334.0 32.67, 333.87 32.83, 333.73 33.0, 333.6 33.17, 333.47 33.33, 333.33 33.5, 333.2 33.67, 333.07 33.83, 332.93 34.0, 332.8 34.17, 332.67 34.33, 332.53 34.5, 332.4 34.67, 332.27 34.83, 332.13 35.0, 332.0 35.17, 331.87 35.33, 331.73 35.5, 331.6 35.67, 331.47 35.83, 331.33 36.0, 331.2 36.17, 331.07 36.33, 330.93 36.5, 330.8 36.67, 330.67 36.83, 330.53 37.0, 330.4 37.17, 330.27 37.33, 330.13 37.5, 330.0 37.67, 329.87 37.83, 329.73 38.0, 329.6 38.17, 329.47 38.33, 329.33 38.5, 329.2 38.67, 329.07 38.83, 328.93 39.0, 328.8 39.17, 328.67 39.33, 328.53 39.5, 328.4 39.67, 328.27 39.83, 328.13 40.0, 328.0 40.17, 327.87 40.33, 327.73 40.5, 327.6 40.67, 327.47 40.83, 327.33 41.0, 327.2 41.17, 327.07 41.33, 326.93 41.5, 326.8 41.67, 326.67 41.83, 326.53 42.0, 326.4 42.17, 326.27 42.33, 326.13 42.5, 326.0 42.67, 325.87 42.83, 325.73 43.0, 325.6 43.17, 325.47 43.33, 325.33 43.5, 325.2 43.67, 325.07 43.83, 324.93 44.0, 324.8 44.17, 324.67 44.33, 324.53 44.5, 324.4 44.67, 324.27 44.83, 324.13 45.0, 324.0 45.17, 323.87 45.33, 323.73 45.5, 323.6 45.67, 323.47 45.83, 323.33 46.0, 323.2 46.17, 323.07 46.33, 322.93 46.5, 322.8 46.67, 322.67 46.83, 322.53 47.0, 322.4 47.17, 322.27 47.33, 322.13 47.5, 322.0 47.67, 321.87 47.83, 321.73 48.0, 321.6 48.17, 321.47 48.33, 321.33 48.5, 321.2 48.67, 321.07 48.83, 320.93 49.0, 320.8 49.17, 320.67 49.33, 320.53 49.5, 320.4 49.67, 320.27 49.83, 320.13 50.0, 320.0 50.17, 319.87 50.33, 319.73 50.5, 319.6 50.67, 319.47 50.83, 319.33 51.0, 319.2 51.17, 319.07 51.33, 318.93 51.5, 318.8 51.67, 318.67 51.83, 318.53 52.0, 318.4 52.17, 318.27 52.33, 318.13 52.5, 318.0 52.67, 317.87 52.83, 317.73 53.0, 317.6 53.17, 317.47 53.33, 317.33 53.5, 317.2 53.67, 317.07 53.83, 316.93 54.0, 316.8 54.17, 316.67 54.33, 316.53 54.5, 316.4 54.67, 316.27 54.83, 316.13 55.0, 316.0 55.17, 315.87 55.33, 315.73 55.5, 315.6 55.67, 315.47 55.83, 315.33 56.0, 315.2 56.17, 315.07 56.33, 314.93 56.5, 314.8 56.67, 314.67 56.83, 314.53 57.0, 314.4 57.17, 314.27 57.33, 314.13 57.5, 314.0 57.67, 313.87 57.83, 313.73 58.0, 313.6 58.17, 313.47 58.33, 313.33 58.5, 313.2 58.67, 313.07 58.83, 312.93 59.0, 312.8 59.17, 312.67 59.33, 312.53 59.5, 312.4 59.67, 312.27 59.83, 312.13 60.0, 312.0 60.17, 311.87 60.33, 311.73 60.5, 311.6 60.67, 311.47 60.83, 311.33 61.0, 311.2 61.17, 311.07 61.33, 310.93 61.5, 310.8 61.67, 310.67 61.83, 310.53 62.0, 310.4 62.17, 310.27 62.33, 310.13 62.5, 310.0 62.67, 309.87 62.83, 309.73 63.0, 309.6 63.17, 309.47 63.33, 309.33 63.5, 309.2 63.67, 309.07 63.83, 308.93 64.0, 308.8 64.17, 308.67 64.33, 308.53 64.5, 308.4 64.67, 308.27 64.83, 308.13 65.0, 308.0 65.17, 307.87 65.33, 307.73 65.5, 307.6 65.67, 307.47 65.83, 307.33 66.0, 307.2 66.17, 307.07 66.33, 306.93 66.5, 306.8 66.67, 306.67 66.83, 306.53 67.0, 306.4 67.17, 306.27 67.33, 306.13 67.5, 306.0 67.67, 305.87 67.83, 305.73 68.0, 305.6 68.17, 305.47 68.33, 305.33 68.5, 305.2 68.67, 305.07 68.83, 304.93 69.0, 304.8 69.17, 304.67 69.33, 304.53 69.5, 304.4 69.67, 304.27 69.83, 304.13 70.0, 304.0 70.17, 303.87 70.33, 303.73 70.5, 303.6 70.67, 303.47 70.83, 303.33 71.0, 303.2 71.17, 303.07 71.33, 302.93 71.5, 302.8 71.67, 302.67 71.83, 302.53 72.0, 302.4 72.17, 302.27 72.33, 302.13 72.5, 302.0 72.67, 301.87 72.83, 301.73 73.0, 301.6 73.17, 301.47 73.33, 301.33 73.5, 301.2 73.67, 301.07 73.83, 300.93 74.0, 300.8 74.17, 300.67 74.33, 300.53 74.5, 300.4 74.67, 300.27 74.83, 300.13 75.0, 300.0 75.17, 299.87 75.33, 299.73 75.5, 299.6 75.67, 299.47 75.83, 299.33 76.0, 299.2 76.17, 299.07 76.33, 298.93 76.5, 298.8 76.67, 298.67 76.83, 298.53 77.0, 298.4 77.17, 298.27 77.33, 298.13 77.5, 298.0 77.67, 297.87 77.83, 297.73 78.0, 297.6 78.17, 297.47 78.33, 297.33 78.5, 297.2 78.67, 297.07 78.83, 296.93 79.0, 296.8 79.17, 296.67 79.33, 296.53 79.5, 296.4 79.67, 296.27 79.83, 296.13 80.0, 296.0 80.17, 295.87 80.33, 295.73 80.5, 295.6 80.67, 295.47 80.83, 295.33 81.0, 295.2 81.17, 295.07 81.33, 294.93 81.5, 294.8 81.67, 294.67 81.83, 294.53 82.0, 294.4 82.17, 294.27 82.33, 294.13 82.5, 294.0 82.67, 293.87 82.83, 293.73 83.0, 293.6 83.17, 293.47 83.33, 293.33 83.5, 293.2 83.67, 293.07 83.83, 292.93 84.0, 292.8 84.17, 292.67 84.33, 292.53 84.5, 292.4 84.67, 292.27 84.83, 292.13 85.0, 292.0 85.17, 291.87 85.33, 291.73 85.5, 291.6 85.67, 291.47 85.83, 291.33 86.0, 291.2 86.17, 291.07 86.33, 290.93 86.5, 290.8 86.67, 290.67 86.83, 290.53 87.0, 290.4 87.17, 290.27 87.33, 290.13 87.5, 290.0 87.67, 289.87 87.83, 289.73 88.0, 289.6 88.17, 289.47 88.33, 289.33 88.5, 289.2 88.67, 289.07 88.83, 288.93 89.0, 288.8 89.17, 288.67 89.33, 288.53 89.5, 288.4 89.67, 288.27 89.83, 288.13 90.0, 288.0 90.17, 287.87 90.33, 287.73 90.5, 287.6 90.67, 287.47 90.83, 287.33 91.0, 287.2 91.17, 287.07 91.33, 286.93 91.5, 286.8 91.67, 286.67 91.83, 286.53 92.0, 286.4 92.17, 286.27 92.33, 286.13 92.5, 286.0 92.67, 285.87 92.83, 285.73 93.0, 285.6 93.17, 285.47 93.33, 285.33 93.5, 285.2 93.67, 285.07 93.83, 284.93 94.0, 284.8 94.17, 284.67 94.33, 284.53 94.5, 284.4 94.67, 284.27 94.83, 284.13 95.0, 284.0 95.17, 283.87 95.33, 283.73 95.5, 283.6 95.67, 283.47 95.83, 283.33 96.0, 283.2 96.17, 283.07 96.33, 282.93 96.5, 282.8 96.67, 282.67 96.83, 282.53 97.0, 282.4 97.17, 282.27 97.33, 282.13 97.5, 282.0 97.67, 281.87 97.83, 281.73 98.0, 281.6 98.17, 281.47 98.33, 281.33 98.5, 281.2 98.67, 281.07 98.83, 280.93 99.0, 280.8 99.17, 280.67 99.33, 280.53 99.5, 280.4 99.67, 280.27 99.83, 280.13 100.0, 280.0 100.17, 279.87 100.33, 279.73 100.5, 279.6 100.67, 279.47 100.83, 279.33 101.0, 279.2 101.17, 279.07 101.33, 278.93 101.5, 278.8 101.67, 278.67 101.83, 278.53 102.0, 278.4 102.17, 278.27 102.33, 278.13 102.5, 278.0 102.67, 277.87 102.83, 277.73 103.0, 277.6 103.17, 277.47 103.33, 277.33 103.5, 277.2 103.67, 277.07 103.83, 276.93 104.0, 276.8 104.17, 276.67 104.33, 276.53 104.5, 276.4 104.67, 276.27 104.83, 276.13 105.0, 276.0 105.17, 275.87 105.33, 275.73 105.5, 275.6 105.67, 275.47 105.83, 275.33 106.0, 275.2 106.17, 275.07 106.33, 274.93 106.5, 274.8 106.67, 274.67 106.83, 274.53 107.0, 274.4 107.17, 274.27 107.33, 274.13 107.5, 274.0 107.67, 273.87 107.83, 273.73 108.0, 273.6 108.17, 273.47 108.33, 273.33 108.5, 273.2 108.67, 273.07 108.83, 272.93 109.0, 272.8 109.17, 272.67 109.33, 272.53 109.5, 272.4 109.67, 272.27 109.83, 272.13 110.0, 272.0 110.17, 271.87 110.33, 271.73 110.5, 271.6 110.67, 271.47 110.83, 271.33 111.0, 271.2 111.17, 271.07 111.33, 270.93 111.5, 270.8 111.67, 270.67 111.83, 270.53 112.0, 270.4 112.17, 270.27 112.33, 270.13 112.5, 270.0 112.67, 269.87 112.83, 269.73 113.0, 269.6 113.17, 269.47 113.33, 269.33 113.5, 269.2 113.67, 269.07 113.83, 268.93 114.0, 268.8 114.17, 268.67 114.33, 268.53 114.5, 268.4 114.67, 268.27 114.83, 268.13 115.0, 268.0 115.17, 267.87 115.33, 267.73 115.5, 267.6 115.67, 267.47 115.83, 267.33 116.0, 267.2 116.17, 267.07 116.33, 266.93 116.5, 266.8 116.67, 266.67 116.83, 266.53 117.0, 266.4 117.17, 266.27 117.33, 266.13 117.5, 266.0 117.67, 265.87 117.83, 265.73 118.0, 265.6 118.17, 265.47 118.33, 265.33 118.5, 265.2 118.67, 265.07 118.83, 264.93 119.0, 264.8 119.17, 264.67 119.33, 264.53 119.5, 264.4 119.67, 264.27 119.83, 264.13 120.0, 264.0 120.17, 263.87 120.33, 263.73 120.5, 263.6 120.67, 263.47 120.83, 263.33 121.0, 263.2 121.17, 263.07 121.33, 262.93 121.5, 262.8 121.67, 262.67 121.83, 262.53 122.0, 262.4 122.17, 262.27 122.33, 262.13 122.5, 262.0 122.67, 261.87 122.83, 261.73 123.0, 261.6 123.17, 261.47 123.33, 261.33 123.5, 261.2 123.67, 261.07 123.83, 260.93 124.0, 260.8 124.17, 260.67 124.33, 260.53 124.5, 260.4 124.67, 260.27 124.83, 260.13 125.0, 260.0 125.17, 259.87 125.33, 259.73 125.5, 259.6 125.67, 259.47 125.83, 259.33 126.0, 259.2 126.17, 259.07 126.33, 258.93 126.5, 258.8 126.67, 258.67 126.83, 258.53 127.0, 258.4 127.17, 258.27 127.33, 258.13 127.5, 258.0 127.67, 257.87 127.83, 257.73 128.0, 257.6 128.17, 257.47 128.33, 257.33 128.5, 257.2 128.67, 257.07 128.83, 256.93 129.0, 256.8 129.17, 256.67 129.33, 256.53 129.5, 256.4 129.67, 256.27 129.83, 256.13 130.0, 256.0 130.17, 255.87 130.33, 255.73 130.5, 255.6 130.67, 255.47 130.83, 255.33 131.0, 255.2 131.17, 255.07 131.33, 254.93 131.5, 254.8 131.67, 254.67 131.83, 254.53 132.0, 254.4 132.17, 254.27 132.33, 254.13 132.5, 254.0 132.67, 253.87 132.83, 253.73 133.0, 253.6 133.17, 253.47 133.33, 253.33 133.5, 253.2 133.67, 253.07 133.83, 252.93 134.0, 252.8 134.17, 252.67 134.33, 252.53 134.5, 252.4 134.67, 252.27 134.83, 252.13 135.0, 252.0 135.17, 251.87 135.33, 251.73 135.5, 251.6 135.67, 251.47 135.83, 251.33 136.0, 251.2 136.17, 251.07 136.33, 250.93 136.5, 250.8 136.67, 250.67 136.83, 250.53 137.0, 250.4 137.17, 250.27 137.33, 250.13 137.5, 250.0 137.67, 249.87 137.83, 249.73 138.0, 249.6 138.17, 249.47 138.33, 249.33 138.5, 249.2 138.67, 249.07 138.83, 248.93 139.0, 248.8 139.17, 248.67 139.33, 248.53 139.5, 248.4 139.67, 248.27 139.83, 248.13 140.0, 248.0 140.17, 247.87 140.33, 247.73 140.5, 247.6 140.67, 247.47 140.83, 247.33 141.0, 247.2 141.17, 247.07 141.33, 246.93 141.5, 246.8 141.67, 246.67 141.83, 246.53 142.0, 246.4 142.17, 246.27 142.33, 246.13 142.5, 246.0 142.67, 245.87 142.83, 245.73 143.0, 245.6 143.17, 245.47 143.33, 245.33 143.5, 245.2 143.67, 245.07 143.83, 244.93 144.0, 244.8 144.17, 244.67 144.33, 244.53 144.5, 244.4 144.67, 244.27 144.83, 244.13 145.0, 244.0 145.17, 243.87 145.33, 243.73 145.5, 243.6 145.67, 243.47 145.83, 243.33 146.0, 243.2 146.17, 243.07 146.33, 242.93 146.5, 242.8 146.67, 242.67 146.83, 242.53 147.0, 242.4 147.17, 242.27 147.33, 242.13 147.5, 242.0 147.67, 241.87 147.83, 241.73 148.0, 241.6 148.17, 241.47 148.33, 241.33 148.5, 241.2 148.67, 241.07 148.83, 240.93 149.0, 240.8 149.17, 240.67 149.33, 240.53 149.5, 240.4 149.67, 240.27 149.83, 240.13 150.0, 240.0 150.17, 239.87 150.33, 239.73 150.5, 239.6 150.67, 239.47 150.83, 239.33 151.0, 239.2 151.17, 239.07 151.33, 238.93 151.5, 238.8 151.67, 238.67 151.83, 238.53 152.0, 238.4 152.17, 238.27 152.33, 238.13 152.5, 238.0 152.67, 237.87 152.83, 237.73 153.0, 237.6 153.17, 237.47 153.33, 237.33 153.5, 237.2 153.67, 237.07 153.83, 236.93 154.0, 236.8 154.17, 236.67 154.33, 236.53 154.5, 236.4 154.67, 236.27 154.83, 236.13 155.0, 236.0 155.17, 235.87 155.33, 235.73 155.5, 235.6 155.67, 235.47 155.83, 235.33 156.0, 235.2 156.17, 235.07 156.33, 234.93 156.5, 234.8 156.67, 234.67 156.83, 234.53 157.0, 234.4 157.17, 234.27 157.33, 234.13 157.5, 234.0 157.67, 233.87 157.83, 233.73 158.0, 233.6 158.17, 233.47 158.33, 233.33 158.5, 233.2 158.67, 233.07 158.83, 232.93 159.0, 232.8 159.17, 232.67 159.33, 232.53 159.5, 232.4 159.67, 232.27 159.83, 232.13 160.0, 232.0 160.17, 231.87 160.33, 231.73 160.5, 231.6 160.67, 231.47 160.83, 231.33 161.0, 231.2 161.17, 231.07 161.33, 230.93 161.5, 230.8 161.67, 230.67 161.83, 230.53 162.0, 230.4 162.17, 230.27 162.33, 230.13 162.5, 230.0 162.67, 229.87 162.83, 229.73 163.0, 229.6 163.17, 229.47 163.33, 229.33 163.5, 229.2 163.67, 229.07 163.83, 228.93 164.0, 228.8 164.17, 228.67 164.33, 228.53 164.5, 228.4 164.67, 228.27 164.83, 228.13 165.0, 228.0 165.17, 227.87 165.33, 227.73 165.5, 227.6 165.67, 227.47 165.83, 227.33 166.0, 227.2 166.17, 227.07 166.33, 226.93 166.5, 226.8 166.67, 226.67 166.83, 226.53 167.0, 226.4 167.17, 226.27 167.33, 226.13 167.5, 226.0 167.67, 225.87 167.83, 225.73 168.0, 225.6 168.17, 225.47 168.33, 225.33 168.5, 225.2 168.67, 225.07 168.83, 224.93 169.0, 224.8 169.17, 224.67 169.33, 224.53 169.5, 224.4 169.67, 224.27 169.83, 224.13 170.0, 224.0 170.17, 223.87 170.33, 223.73 170.5, 223.6 170.67, 223.47 170.83, 223.33 171.0, 223.2 171.17, 223.07 171.33, 222.93 171.5, 222.8 171.67, 222.67 171.83, 222.53 172.0, 222.4 172.17, 222.27 172.33, 222.13 172.5, 222.0 172.67, 221.87 172.83, 221.73 173.0, 221.6 173.17, 221.47 173.33, 221.33 173.5, 221.2 173.67, 221.07 173.83, 220.93 174.0, 220.8 174.17, 220.67 174.33, 220.53 174.5, 220.4 174.67, 220.27 174.83, 220.13 175.0, 220.0 175.17, 219.87 175.33, 219.73 175.5, 219.6 175.67, 219.47 175.83, 219.33 176.0, 219.2 176.17, 219.07 176.33, 218.93 176.5, 218.8 176.67, 218.67 176.83, 218.53 177.0, 218.4 177.17, 218.27 177.33, 218.13 177.5, 218.0 177.67, 217.87 177.83, 217.73 178.0, 217.6 178.17, 217.47 178.33, 217.33 178.5, 217.2 178.67, 217.07 178.83, 216.93 179.0, 216.8 179.17, 216.67 179.33, 216.53 179.5, 216.4 179.67, 216.27 179.83, 216.13 180.0, 216.0 180.17, 215.87 180.33, 215.73 180.5, 215.6 180.67, 215.47 180.83, 215.33 181.0, 215.2 181.17, 215.07 181.33, 214.93 181.5, 214.8 181.67, 214.67 181.83, 214.53 182.0, 214.4 182.17, 214.27 182.33, 214.13 182.5, 214.0 182.67, 213.87 182.83, 213.73 183.0, 213.6 183.17, 213.47 183.33, 213.33 183.5, 213.2 183.67, 213.07 183.83, 212.93 184.0, 212.8 184.17, 212.67 184.33, 212.53 184.5, 212.4 184.67, 212.27 184.83, 212.13 185.0, 212.0 185.17, 211.87 185.33, 211.73 185.5, 211.6 185.67, 211.47 185.83, 211.33 186.0, 211.2 186.17, 211.07 186.33, 210.93 186.5, 210.8 186.67, 210.67 186.83, 210.53 187.0, 210.4 187.17, 210.27 187.33, 210.13 187.5, 210.0 187.67, 209.87 187.83, 209.73 188.0, 209.6 188.17, 209.47 188.33, 209.33 188.5, 209.2 188.67, 209.07 188.83, 208.93 189.0, 208.8 189.17, 208.67 189.33, 208.53 189.5, 208.4 189.67, 208.27 189.83, 208.13 190.0, 208.0 190.17, 207.87 190.33, 207.73 190.5, 207.6 190.67, 207.47 190.83, 207.33 191.0, 207.2 191.17, 207.07 191.33, 206.93 191.5, 206.8 191.67, 206.67 191.83, 206.53 192.0, 206.4 192.17, 206.27 192.33, 206.13 192.5, 206.0 192.67, 205.87 192.83, 205.73 193.0, 205.6 193.17, 205.47 193.33, 205.33 193.5, 205.2 193.67, 205.07 193.83, 204.93 194.0, 204.8 194.17, 204.67 194.33, 204.53 194.5, 204.4 194.67, 204.27 194.83, 204.13 195.0, 204.0 195.17, 203.87 195.33, 203.73 195.5, 203.6 195.67, 203.47 195.83, 203.33 196.0, 203.2 196.17, 203.07 196.33, 202.93 196.5, 202.8 196.67, 202.67 196.83, 202.53 197.0, 202.4 197.17, 202.27 197.33, 202.13 197.5, 202.0 197.67, 201.87 197.83, 201.73 198.0, 201.6 198.17, 201.47 198.33, 201.33 198.5, 201.2 198.67, 201.07 198.83, 200.93 199.0, 200.8 199.17, 200.67 199.33, 200.53 199.5, 200.4 199.67, 200.27 199.83, 200.13 200.0, 200.0 200.17, 199.87 200.33, 199.73 200.5, 199.6 200.67, 199.47 200.83, 199.33 201.0, 199.2 201.17, 199.07 201.33, 198.93 201.5, 198.8 201.67, 198.67 201.83, 198.53 202.0, 198.4 202.17, 198.27 202.33, 198.13 202.5, 198.0 202.67, 197.87 202.83, 197.73 203.0, 197.6 203.17, 197.47 203.33, 197.33 203.5, 197.2 203.67, 197.07 203.83, 196.93 204.0, 196.8 204.17, 196.67 204.33, 196.53 204.5, 196.4 204.67, 196.27 204.83, 196.13 205.0, 196.0 205.17, 195.87 205.33, 195.73 205.5, 195.6 205.67, 195.47 205.83, 195.33 206.0, 195.2 206.17, 195.07 206.33, 194.93 206.5, 194.8 206.67, 194.67 206.83, 194.53 207.0, 194.4 207.17, 194.27 207.33, 194.13 207.5, 194.0 207.67, 193.87 207.83, 193.73 208.0, 193.6 208.17, 193.47 208.33, 193.33 208.5, 193.2 208.67, 193.07 208.83, 192.93 209.0, 192.8 209.17, 192.67 209.33, 192.53 209.5, 192.4 209.67, 192.27 209.83, 192.13 210.0, 192.0 210.17, 191.87 210.33, 191.73 210.5, 191.6 210.67, 191.47 210.83, 191.33 211.0, 191.2 211.17, 191.07 211.33, 190.93 211.5, 190.8 211.67, 190.67 211.83, 190.53 212.0, 190.4 212.17, 190.27 212.33, 190.13 212.5, 190.0 212.67, 189.87 212.83, 189.73 213.0, 189.6 213.17, 189.47 213.33, 189.33 213.5, 189.2 213.67, 189.07 213.83, 188.93 214.0, 188.8 214.17, 188.67 214.33, 188.53 214.5, 188.4 214.67, 188.27 214.83, 188.13 215.0, 188.0 215.17, 187.87 215.33, 187.73 215.5, 187.6 215.67, 187.47 215.83, 187.33 216.0, 187.2 216.17, 187.07 216.33, 186.93 216.5, 186.8 216.67, 186.67 216.83, 186.53 217.0, 186.4 217.17, 186.27 217.33, 186.13 217.5, 186.0 217.67, 185.87 217.83, 185.73 218.0, 185.6 218.17, 185.47 218.33, 185.33 218.5, 185.2 218.67, 185.07 218.83, 184.93 219.0, 184.8 219.17, 184.67 219.33, 184.53 219.5, 184.4 219.67, 184.27 219.83, 184.13 220.0, 184.0 220.17, 183.87 220.33, 183.73 220.5, 183.6 220.67, 183.47 220.83, 183.33 221.0, 183.2 221.17, 183.07 221.33, 182.93 221.5, 182.8 221.67, 182.67 221.83, 182.53 222.0, 182.4 222.17, 182.27 222.33, 182.13 222.5, 182.0 222.67, 181.87 222.83, 181.73 223.0, 181.6 223.17, 181.47 223.33, 181.33 223.5, 181.2 223.67, 181.07 223.83, 180.93 224.0, 180.8 224.17, 180.67 224.33, 180.53 224.5, 180.4 224.67, 180.27 224.83, 180.13 225.0, 180.0 225.17, 179.87 225.33, 179.73 225.5, 179.6 225.67, 179.47 225.83, 179.33 226.0, 179.2 226.17, 179.07 226.33, 178.93 226.5, 178.8 226.67, 178.67 226.83, 178.53 227.0, 178.4 227.17, 178.27 227.33, 178.13 227.5, 178.0 227.67, 177.87 227.83, 177.73 228.0, 177.6 228.17, 177.47 228.33, 177.33 228.5, 177.2 228.67, 177.07 228.83, 176.93 229.0, 176.8 229.17, 176.67 229.33, 176.53 229.5, 176.4 229.67, 176.27 229.83, 176.13 230.0, 176.0 230.17, 175.87 230.33, 175.73 230.5, 175.6 230.67, 175.47 230.83, 175.33 231.0, 175.2 231.17, 175.07 231.33, 174.93 231.5, 174.8 231.67, 174.67 231.83, 174.53 232.0, 174.4 232.17, 174.27 232.33, 174.13 232.5, 174.0 232.67, 173.87 232.83, 173.73 233.0, 173.6 233.17, 173.47 233.33, 173.33 233.5, 173.2 233.67, 173.07 233.83, 172.93 234.0, 172.8 234.17, 172.67 234.33, 172.53 234.5, 172.4 234.67, 172.27 234.83, 172.13 235.0, 172.0 235.17, 171.87 235.33, 171.73 235.5, 171.6 235.67, 171.47 235.83, 171.33 236.0, 171.2 236.17, 171.07 236.33, 170.93 236.5, 170.8 236.67, 170.67 236.83, 170.53 237.0, 170.4 237.17, 170.27 237.33, 170.13 237.5, 170.0 237.67, 169.87 237.83, 169.73 238.0, 169.6 238.17, 169.47 238.33, 169.33 238.5, 169.2 238.67, 169.07 238.83, 168.93 239.0, 168.8 239.17, 168.67 239.33, 168.53 239.5, 168.4 239.67, 168.27 239.83, 168.13 240.0, 168.0 240.17, 167.87 240.33, 167.73 240.5, 167.6 240.67, 167.47 240.83, 167.33 241.0, 167.2 241.17, 167.07 241.33, 166.93 241.5, 166.8 241.67, 166.67 241.83, 166.53 242.0, 166.4 242.17, 166.27 242.33, 166.13 242.5, 166.0 242.67, 165.87 242.83, 165.73 243.0, 165.6 243.17, 165.47 243.33, 165.33 243.5, 165.2 243.67, 165.07 243.83, 164.93 244.0, 164.8 244.17, 164.67 244.33, 164.53 244.5, 164.4 244.67, 164.27 244.83, 164.13 245.0, 164.0 245.17, 163.87 245.33, 163.73 245.5, 163.6 245.67, 163.47 245.83, 163.33 246.0, 163.2 246.17, 163.07 246.33, 162.93 246.5, 162.8 246.67, 162.67 246.83, 162.53 247.0, 162.4 247.17, 162.27 247.33, 162.13 247.5, 162.0 247.67, 161.87 247.83, 161.73 248.0, 161.6 248.17, 161.47 248.33, 161.33 248.5, 161.2 248.67, 161.07 248.83, 160.93 249.0, 160.8 249.17, 160.67 249.33, 160.53 249.5, 160.4 249.67, 160.27 249.83, 160.13 250.0, 160.0 250.17, 159.87 250.33, 159.73 250.5, 159.6 250.67, 159.47 250.83, 159.33 251.0, 159.2 251.17, 159.07 251.33, 158.93 251.5, 158.8 251.67, 158.67 251.83, 158.53 252.0, 158.4 252.17, 158.27 252.33, 158.13 252.5, 158.0 252.67, 157.87 252.83, 157.73 253.0, 157.6 253.17, 157.47 253.33, 157.33 253.5, 157.2 253.67, 157.07 253.83, 156.93 254.0, 156.8 254.17, 156.67 254.33, 156.53 254.5, 156.4 254.67, 156.27 254.83, 156.13 255.0, 156.0 255.17, 155.87 255.33, 155.73 255.5, 155.6 255.67, 155.47 255.83, 155.33 256.0, 155.2 256.17, 155.07 256.33, 154.93 256.5, 154.8 256.67, 154.67 256.83, 154.53 257.0, 154.4 257.17, 154.27 257.33, 154.13 257.5, 154.0 257.67, 153.87 257.83, 153.73 258.0, 153.6 258.17, 153.47 258.33, 153.33 258.5, 153.2 258.67, 153.07 258.83, 152.93 259.0, 152.8 259.17, 152.67 259.33, 152.53 259.5, 152.4 259.67, 152.27 259.83, 152.13 260.0, 152.0 260.17, 151.87 260.33, 151.73 260.5, 151.6 260.67, 151.47 260.83, 151.33 261.0, 151.2 261.17, 151.07 261.33, 150.93 261.5, 150.8 261.67, 150.67 261.83, 150.53 262.0, 150.4 262.17, 150.27 262.33, 150.13 262.5, 150.0 262.67, 149.87 262.83, 149.73 263.0, 149.6 263.17, 149.47 263.33, 149.33 263.5, 149.2 263.67, 149.07 263.83, 148.93 264.0, 148.8 264.17, 148.67 264.33, 148.53 264.5, 148.4 264.67, 148.27 264.83, 148.13 265.0, 148.0 265.17, 147.87 265.33, 147.73 265.5, 147.6 265.67, 147.47 265.83, 147.33 266.0, 147.2 266.17, 147.07 266.33, 146.93 266.5, 146.8 266.67, 146.67 266.83, 146.53 267.0, 146.4 267.17, 146.27 267.33, 146.13 267.5, 146.0 267.67, 145.87 267.83, 145.73 268.0, 145.6 268.17, 145.47 268.33, 145.33 268.5, 145.2 268.67, 145.07 268.83, 144.93 269.0, 144.8 269.17, 144.67 269.33, 144.53 269.5, 144.4 269.67, 144.27 269.83, 144.13 270.0, 144.0 270.17, 143.87 270.33, 143.73 270.5, 143.6 270.67, 143.47 270.83, 143.33 271.0, 143.2 271.17, 143.07 271.33, 142.93 271.5, 142.8 271.67, 142.67 271.83, 142.53 272.0, 142.4 272.17, 142.27 272.33, 142.13 272.5, 142.0 272.67, 141.87 272.83, 141.73 273.0, 141.6 273.17, 141.47 273.33, 141.33 273.5, 141.2 273.67, 141.07 273.83, 140.93 274.0, 140.8 274.17, 140.67 274.33, 140.53 274.5, 140.4 274.67, 140.27 274.83, 140.13 275.0, 140.0 275.17, 139.87 275.33, 139.73 275.5, 139.6 275.67, 139.47 275.83, 139.33 276.0, 139.2 276.17, 139.07 276.33, 138.93 276.5, 138.8 276.67, 138.67 276.83, 138.53 277.0, 138.4 277.17, 138.27 277.33, 138.13 277.5, 138.0 277.67, 137.87 277.83, 137.73 278.0, 137.6 278.17, 137.47 278.33, 137.33 278.5, 137.2 278.67, 137.07 278.83, 136.93 279.0, 136.8 279.17, 136.67 279.33, 136.53 279.5, 136.4 279.67, 136.27 279.83, 136.13 280.0, 136.0 280.17, 135.87 280.33, 135.73 280.5, 135.6 280.67, 135.47 280.83, 135.33 281.0, 135.2 281.17, 135.07 281.33, 134.93 281.5, 134.8 281.67, 134.67 281.83, 134.53 282.0, 134.4 282.17, 134.27 282.33, 134.13 282.5, 134.0 282.67, 133.87 282.83, 133.73 283.0, 133.6 283.17, 133.47 283.33, 133.33 283.5, 133.2 283.67, 133.07 283.83, 132.93 284.0, 132.8 284.17, 132.67 284.33, 132.53 284.5, 132.4 284.67, 132.27 284.83, 132.13 285.0, 132.0 285.17, 131.87 285.33, 131.73 285.5, 131.6 285.67, 131.47 285.83, 131.33 286.0, 131.2 286.17, 131.07 286.33, 130.93 286.5, 130.8 286.67, 130.67 286.83, 130.53 287.0, 130.4 287.17, 130.27 287.33, 130.13 287.5, 130.0 287.67, 129.87 287.83, 129.73 288.0, 129.6 288.17, 129.47 288.33, 129.33 288.5, 129.2 288.67, 129.07 288.83, 128.93 289.0, 128.8 289.17, 128.67 289.33, 128.53 289.5, 128.4 289.67, 128.27 289.83, 128.13 290.0, 128.0 290.17, 127.87 290.33, 127.73 290.5, 127.6 290.67, 127.47 290.83, 127.33 291.0, 127.2 291.17, 127.07 291.33, 126.93 291.5, 126.8 291.67, 126.67 291.83, 126.53 292.0, 126.4 292.17, 126.27 292.33, 126.13 292.5, 126.0 292.67, 125.87 292.83, 125.73 293.0, 125.6 293.17, 125.47 293.33, 125.33 293.5, 125.2 293.67, 125.07 293.83, 124.93 294.0, 124.8 294.17, 124.67 294.33, 124.53 294.5, 124.4 294.67, 124.27 294.83, 124.13 295.0, 124.0 295.17, 123.87 295.33, 123.73 295.5, 123.6 295.67, 123.47 295.83, 123.33 296.0, 123.2 296.17, 123.07 296.33, 122.93 296.5, 122.8 296.67, 122.67 296.83, 122.53 297.0, 122.4 297.17, 122.27 297.33, 122.13 297.5, 122.0 297.67, 121.87 297.83, 121.73 298.0, 121.6 298.17, 121.47 298.33, 121.33 298.5, 121.2 298.67, 121.07 298.83, 120.93 299.0, 120.8 299.17, 120.67 299.33, 120.53 299.5, 120.4 299.67, 120.27 299.83, 120.13 300.0, 120.0 300.17, 119.87 300.33, 119.73 300.5, 119.6 300.67, 119.47 300.83, 119.33 301.0, 119.2 301.17, 119.07 301.33, 118.93 301.5, 118.8 301.67, 118.67 301.83, 118.53 302.0, 118.4 302.17, 118.27 302.33, 118.13 302.5, 118.0 302.67, 117.87 302.83, 117.73 303.0, 117.6 303.17, 117.47 303.33, 117.33 303.5, 117.2 303.67, 117.07 303.83, 116.93 304.0, 116.8 304.17, 116.67 304.33, 116.53 304.5, 116.4 304.67, 116.27 304.83, 116.13 305.0, 116.0 305.17, 115.87 305.33, 115.73 305.5, 115.6 305.67, 115.47 305.83, 115.33 306.0, 115.2 306.17, 115.07 306.33, 114.93 306.5, 114.8 306.67, 114.67 306.83, 114.53 307.0, 114.4 307.17, 114.27 307.33, 114.13 307.5, 114.0 307.67, 113.87 307.83, 113.73 308.0, 113.6 308.17, 113.47 308.33, 113.33 308.5, 113.2 308.67, 113.07 308.83, 112.93 309.0, 112.8 309.17, 112.67 309.33, 112.53 309.5, 112.4 309.67, 112.27 309.83, 112.13 310.0, 112.0 310.17, 111.87 310.33, 111.73 310.5, 111.6 310.67, 111.47 310.83, 111.33 311.0, 111.2 311.17, 111.07 311.33, 110.93 311.5, 110.8 311.67, 110.67 311.83, 110.53 312.0, 110.4 312.17, 110.27 312.33, 110.13 312.5, 110.0 312.67, 109.87 312.83, 109.73 313.0, 109.6 313.17, 109.47 313.33, 109.33 313.5, 109.2 313.67, 109.07 313.83, 108.93 314.0, 108.8 314.17, 108.67 314.33, 108.53 314.5, 108.4 314.67, 108.27 314.83, 108.13 315.0, 108.0 315.17, 107.87 315.33, 107.73 315.5, 107.6 315.67, 107.47 315.83, 107.33 316.0, 107.2 316.17, 107.07 316.33, 106.93 316.5, 106.8 316.67, 106.67 316.83, 106.53 317.0, 106.4 317.17, 106.27 317.33, 106.13 317.5, 106.0 317.67, 105.87 317.83, 105.73 318.0, 105.6 318.17, 105.47 318.33, 105.33 318.5, 105.2 318.67, 105.07 318.83, 104.93 319.0, 104.8 319.17, 104.67 319.33, 104.53 319.5, 104.4 319.67, 104.27 319.83, 104.13 320.0, 104.0 320.17, 103.87 320.33, 103.73 320.5, 103.6 320.67, 103.47 320.83, 103.33 321.0, 103.2 321.17, 103.07 321.33, 102.93 321.5, 102.8 321.67, 102.67 321.83, 102.53 322.0, 102.4 322.17, 102.27 322.33, 102.13 322.5, 102.0 322.67, 101.87 322.83, 101.73 323.0, 101.6 323.17, 101.47 323.33, 101.33 323.5, 101.2 323.67, 101.07 323.83, 100.93 324.0, 100.8 324.17, 100.67 324.33, 100.53 324.5, 100.4 324.67, 100.27 324.83, 100.13 325.0, 100.0 325.17, 99.87 325.33, 99.73 325.5, 99.6 325.67, 99.47 325.83, 99.33 326.0, 99.2 326.17, 99.07 326.33, 98.93 326.5, 98.8 326.67, 98.67 326.83, 98.53 327.0, 98.4 327.17, 98.27 327.33, 98.13 327.5, 98.0 327.67, 97.87 327.83, 97.73 328.0, 97.6 328.17, 97.47 328.33, 97.33 328.5, 97.2 328.67, 97.07 328.83, 96.93 329.0, 96.8 329.17, 96.67 329.33, 96.53 329.5, 96.4 329.67, 96.27 329.83, 96.13 330.0, 96.0 330.17, 95.87 330.33, 95.73 330.5, 95.6 330.67, 95.47 330.83, 95.33 331.0, 95.2 331.17, 95.07 331.33, 94.93 331.5, 94.8 331.67, 94.67 331.83, 94.53 332.0, 94.4 332.17, 94.27 332.33, 94.13 332.5, 94.0 332.67, 93.87 332.83, 93.73 333.0, 93.6 333.17, 93.47 333.33, 93.33 333.5, 93.2 333.67, 93.07 333.83, 92.93 334.0, 92.8 334.17, 92.67 334.33, 92.53 334.5, 92.4 334.67, 92.27 334.83, 92.13 335.0, 92.0 335.17, 91.87 335.33, 91.73 335.5, 91.6 335.67, 91.47 335.83, 91.33 336.0, 91.2 336.17, 91.07 336.33, 90.93 336.5, 90.8 336.67, 90.67 336.83, 90.53 337.0, 90.4 337.17, 90.27 337.33, 90.13 337.5, 90.0 337.67, 89.87 337.83, 89.73 338.0, 89.6 338.17, 89.47 338.33, 89.33 338.5, 89.2 338.67, 89.07 338.83, 88.93 339.0, 88.8 339.17, 88.67 339.33, 88.53 339.5, 88.4 339.67, 88.27 339.83, 88.13 340.0, 88.0 340.17, 87.87 340.33, 87.73 340.5, 87.6 340.67, 87.47 340.83, 87.33 341.0, 87.2 341.17, 87.07 341.33, 86.93 341.5, 86.8 341.67, 86.67 341.83, 86.53 342.0, 86.4 342.17, 86.27 342.33, 86.13 342.5, 86.0 342.67, 85.87 342.83, 85.73 343.0, 85.6 343.17, 85.47 343.33, 85.33 343.5, 85.2 343.67, 85.07 343.83, 84.93 344.0, 84.8 344.17, 84.67 344.33, 84.53 344.5, 84.4 344.67, 84.27 344.83, 84.13 345.0, 84.0 345.17, 83.87 345.33, 83.73 345.5, 83.6 345.67, 83.47 345.83, 83.33 346.0, 83.2 346.17, 83.07 346.33, 82.93 346.5, 82.8 346.67, 82.67 346.83, 82.53 347.0, 82.4 347.17, 82.27 347.33, 82.13 347.5, 82.0 347.67, 81.87 347.83, 81.73 348.0, 81.6 348.17, 81.47 348.33, 81.33 348.5, 81.2 348.67, 81.07 348.83, 80.93 349.0, 80.8 349.17, 80.67 349.33, 80.53 349.5, 80.4 349.67, 80.27 349.83, 80.13 350.0, 80.0 350.17, 79.87 350.33, 79.73 350.5, 79.6 350.67, 79.47 350.83, 79.33 351.0, 79.2 351.17, 79.07 351.33, 78.93 351.5, 78.8 351.67, 78.67 351.83, 78.53 352.0, 78.4 352.17, 78.27 352.33, 78.13 352.5, 78.0 352.67, 77.87 352.83, 77.73 353.0, 77.6 353.17, 77.47 353.33, 77.33 353.5, 77.2 353.67, 77.07 353.83, 76.93 354.0, 76.8 354.17, 76.67 354.33, 76.53 354.5, 76.4 354.67, 76.27 354.83, 76.13 355.0, 76.0 355.17, 75.87 355.33, 75.73 355.5, 75.6 355.67, 75.47 355.83, 75.33 356.0, 75.2 356.17, 75.07 356.33, 74.93 356.5, 74.8 356.67, 74.67 356.83, 74.53 357.0, 74.4 357.17, 74.27 357.33, 74.13 357.5, 74.0 357.67, 73.87 357.83, 73.73 358.0, 73.6 358.17, 73.47 358.33, 73.33 358.5, 73.2 358.67, 73.07 358.83, 72.93 359.0, 72.8 359.17, 72.67 359.33, 72.53 359.5, 72.4 359.67, 72.27 359.83, 72.13 360.0, 72.0 360.17, 71.87 360.33, 71.73 360.5, 71.6 360.67, 71.47 360.83, 71.33 361.0, 71.2 361.17, 71.07 361.33, 70.93 361.5, 70.8 361.67, 70.67 361.83, 70.53 362.0, 70.4 362.17, 70.27 362.33, 70.13 362.5, 70.0 362.67, 69.87 362.83, 69.73 363.0, 69.6 363.17, 69.47 363.33, 69.33 363.5, 69.2 363.67, 69.07 363.83, 68.93 364.0, 68.8 364.17, 68.67 364.33, 68.53 364.5, 68.4 364.67, 68.27 364.83, 68.13 365.0, 68.0 365.17, 67.87 365.33, 67.73 365.5, 67.6 365.67, 67.47 365.83, 67.33 366.0, 67.2 366.17, 67.07 366.33, 66.93 366.5, 66.8 366.67, 66.67 366.83, 66.53 367.0, 66.4 367.17, 66.27 367.33, 66.13 367.5, 66.0 367.67, 65.87 367.83, 65.73 368.0, 65.6 368.17, 65.47 368.33, 65.33 368.5, 65.2 368.67, 65.07 368.83, 64.93 369.0, 64.8 369.17, 64.67 369.33, 64.53 369.5, 64.4 369.67, 64.27 369.83, 64.13 370.0, 64.0 370.17, 63.87 370.33, 63.73 370.5, 63.6 370.67, 63.47 370.83, 63.33 371.0, 63.2 371.17, 63.07 371.33, 62.93 371.5, 62.8 371.67, 62.67 371.83, 62.53 372.0, 62.4 372.17, 62.27 372.33, 62.13 372.5, 62.0 372.67, 61.87 372.83, 61.73 373.0, 61.6 373.17, 61.47 373.33, 61.33 373.5, 61.2 373.67, 61.07 373.83, 60.93 374.0, 60.8 374.17, 60.67 374.33, 60.53 374.5, 60.4 374.67, 60.27 374.83, 60.13 375.0, 60.0 375.17, 59.87 375.33, 59.73 375.5, 59.6 375.67, 59.47 375.83, 59.33 376.0, 59.2 376.17, 59.07 376.33, 58.93 376.5, 58.8 376.67, 58.67 376.83, 58.53 377.0, 58.4 377.17, 58.27 377.33, 58.13 377.5, 58.0 377.67, 57.87 377.83, 57.73 378.0, 57.6 378.17, 57.47 378.33, 57.33 378.5, 57.2 378.67, 57.07 378.83, 56.93 379.0, 56.8 379.17, 56.67 379.33, 56.53 379.5, 56.4 379.67, 56.27 379.83, 56.13 380.0, 56.0 380.17, 55.87 380.33, 55.73 380.5, 55.6 380.67, 55.47 380.83, 55.33 381.0, 55.2 381.17, 55.07 381.33, 54.93 381.5, 54.8 381.67, 54.67 381.83, 54.53 382.0, 54.4 382.17, 54.27 382.33, 54.13 382.5, 54.0 382.67, 53.87 382.83, 53.73 383.0, 53.6 383.17, 53.47 383.33, 53.33 383.5, 53.2 383.67, 53.07 383.83, 52.93 384.0, 52.8 384.17, 52.67 384.33, 52.53 384.5, 52.4 384.67, 52.27 384.83, 52.13 385.0, 52.0 385.17, 51.87 385.33, 51.73 385.5, 51.6 385.67, 51.47 385.83, 51.33 386.0, 51.2 386.17, 51.07 386.33, 50.93 386.5, 50.8 386.67, 50.67 386.83, 50.53 387.0, 50.4 387.17, 50.27 387.33, 50.13 387.5, 50.0 387.67, 49.87 387.83, 49.73 388.0, 49.6 388.17, 49.47 388.33, 49.33 388.5, 49.2 388.67, 49.07 388.83, 48.93 389.0, 48.8 389.17, 48.67 389.33, 48.53 389.5, 48.4 389.67, 48.27 389.83, 48.13 390.0, 48.0 390.17, 47.87 390.33, 47.73 390.5, 47.6 390.67, 47.47 390.83, 47.33 391.0, 47.2 391.17, 47.07 391.33, 46.93 391.5, 46.8 391.67, 46.67 391.83, 46.53 392.0, 46.4 392.17, 46.27 392.33, 46.13 392.5, 46.0 392.67, 45.87 392.83, 45.73 393.0, 45.6 393.17, 45.47 393.33, 45.33 393.5, 45.2 393.67, 45.07 393.83, 44.93 394.0, 44.8 394.17, 44.67 394.33, 44.53 394.5, 44.4 394.67, 44.27 394.83, 44.13 395.0, 44.0 395.17, 43.87 395.33, 43.73 395.5, 43.6 395.67, 43.47 395.83, 43.33 396.0, 43.2 396.17, 43.07 396.33, 42.93 396.5, 42.8 396.67, 42.67 396.83, 42.53 397.0, 42.4 397.17, 42.27 397.33, 42.13 397.5, 42.0 397.67, 41.87 397.83, 41.73 398.0, 41.6 398.17, 41.47 398.33, 41.33 398.5, 41.2 398.67, 41.07 398.83, 40.93 399.0, 40.8 399.17, 40.67 399.33, 40.53 399.5, 40.4 399.67, 40.27 399.83, 40.13 400.0, 40.0 " fill="none" stroke="white" stroke-width="1.5" stroke-linejoin="round" stroke-opacity="1"/>

 </svg>