<svg version="1.1" 
 baseProfile="full" 
 width="400" 
 height="400" 
 xmlns="http://www.w3.org/2000/svg">
<rect x="0.0" y="0.0" width="400" height="400" fill="black" stroke="black" stroke-width="0" opacity="1"/>
<line x1="0.0" y1="0.0" x2="0.0" y2="400.0" stroke="white" stroke-width="1" opacity="0.4" stroke-linecap="butt"/>
<line x1="40.0" y1="0.0" x2="40.0" y2="400.0" stroke="white" stroke-width="1" opacity="0.4" stroke-linecap="butt"/>
<line x1="80.0" y1="0.0" x2="80.0" y2="400.0" stroke="white" stroke-width="1" opacity="0.4" stroke-linecap="butt"/>
<line x1="120.0" y1="0.0" x2="120.0" y2="400.0" stroke="white" stroke-width="1" opacity="0.4" stroke-linecap="butt"/>
<line x1="160.0" y1="0.0" x2="160.0" y2="400.0" stroke="white" stroke-width="1" opacity="0.4" stroke-linecap="butt"/>
<line x1="200.0" y1="0.0" x2="200.0" y2="400.0" stroke="white" stroke-width="1" opacity="0.4" stroke-linecap="butt"/>
<line x1="240.0" y1="0.0" x2="240.0" y2="400.0" stroke="white" stroke-width="1" opacity="0.4" stroke-linecap="butt"/>
<line x1="280.0" y1="0.0" x2="280.0" y2="400.0" stroke="white" stroke-width="1" opacity="0.4" stroke-linecap="butt"/>
<line x1="320.0" y1="0.0" x2="320.0" y2="400.0" stroke="white" stroke-width="1" opacity="0.4" stroke-linecap="butt"/>
<line x1="360.0" y1="0.0" x2="360.0" y2="400.0" stroke="white" stroke-width="1" opacity="0.4" stroke-linecap="butt"/>
<line x1="0.0" y1="0.0" x2="400.0" y2="0.0" stroke="white" stroke-width="1" opacity="0.4" stroke-linecap="butt"/>
<line x1="0.0" y1="40.0" x2="400.0" y2="40.0" stroke="white" stroke-width="1" opacity="0.4" stroke-linecap="butt"/>
<line x1="0.0" y1="80.0" x2="400.0" y2="80.0" stroke="white" stroke-width="1" opacity="0.4" stroke-linecap="butt"/>
<line x1="0.0" y1="120.0" x2="400.0" y2="120.0" stroke="white" stroke-width="1" opacity="0.4" stroke-linecap="butt"/>
<line x1="0.0" y1="160.0" x2="400.0" y2="160.0" stroke="white" stroke-width="1" opacity="0.4" stroke-linecap="butt"/>
<line x1="0.0" y1="200.0" x2="400.0" y2="200.0" stroke="white" stroke-width="1" opacity="0.4" stroke-linecap="butt"/>
<line x1="0.0" y1="240.0" x2="400.0" y2="240.0" stroke="white" stroke-width="1" opacity="0.4" stroke-linecap="butt"/>
<line x1="0.0" y1="280.0" x2="400.0" y2="280.0" stroke="white" stroke-width="1" opacity="0.4" stroke-linecap="butt"/>
<line x1="0.0" y1="320.0" x2="400.0" y2="320.0" stroke="white" stroke-width="1" opacity="0.4" stroke-linecap="butt"/>
<line x1="0.0" y1="360.0" x2="400.0" y2="360.0" stroke="white" stroke-width="1" opacity="0.4" stroke-linecap="butt"/>
<line x1="0.0" y1="200.0" x2="400.0" y2="200.0" stroke="yellow" stroke-width="2.5" opacity="1" stroke-linecap="butt"/>
<line x1="200.0" y1="0.0" x2="200.0" y2="400.0" stroke="yellow" stroke-width="2.5" opacity="1" stroke-linecap="butt"/>
<polygon points="391.0 204.0, 401.0 200.0, 391.0 196.0, 393.0 200.0" fill="yellow"/><polygon points="204.0 9.0, 200.0 -1.0, 196.0 9.0, 200.0 7.0" fill="yellow"/><image x="-60.0" y="-60.0" width="200" height="200" href="/Users/girirajhira/PycharmProjects/Giraphics3/Taylor/expr.png"/><polyline points="0.0, -558.33 0.17, -556.11 0.33, -553.88 0.5, -551.66 0.67, -549.45 0.83, -547.24 1.0, -545.03 1.17, -542.83 1.33, -540.63 1.5, -538.43 1.67, -536.24 1.83, -534.05 2.0, -531.87 2.17, -529.69 2.33, -527.51 2.5, -525.34 2.67, -523.18 2.83, -521.01 3.0, -518.85 3.17, -516.7 3.33, -514.54 3.5, -512.4 3.67, -510.25 3.83, -508.11 4.0, -505.98 4.17, -503.84 4.33, -501.71 4.5, -499.59 4.67, -497.47 4.83, -495.35 5.0, -493.24 5.17, -491.13 5.33, -489.03 5.5, -486.93 5.67, -484.83 5.83, -482.73 6.0, -480.64 6.17, -478.56 6.33, -476.48 6.5, -474.4 6.67, -472.33 6.83, -470.26 7.0, -468.19 7.17, -466.13 7.33, -464.07 7.5, -462.01 7.67, -459.96 7.83, -457.92 8.0, -455.87 8.17, -453.83 8.33, -451.8 8.5, -449.77 8.67, -447.74 8.83, -445.71 9.0, -443.69 9.17, -441.68 9.33, -439.66 9.5, -437.65 9.67, -435.65 9.83, -433.65 10.0, -431.65 10.17, -429.66 10.33, -427.67 10.5, -425.68 10.67, -423.7 10.83, -421.72 11.0, -419.75 11.17, -417.77 11.33, -415.81 11.5, -413.84 11.67, -411.88 11.83, -409.93 12.0, -407.98 12.17, -406.03 12.33, -404.08 12.5, -402.14 12.67, -400.21 12.83, -398.27 13.0, -396.34 13.17, -394.42 13.33, -392.49 13.5, -390.58 13.67, -388.66 13.83, -386.75 14.0, -384.84 14.17, -382.94 14.33, -381.04 14.5, -379.14 14.67, -377.25 14.83, -375.36 15.0, -373.48 15.17, -371.59 15.33, -369.72 15.5, -367.84 15.67, -365.97 15.83, -364.11 16.0, -362.24 16.17, -360.38 16.33, -358.53 16.5, -356.68 16.67, -354.83 16.83, -352.98 17.0, -351.14 17.17, -349.3 17.33, -347.47 17.5, -345.64 17.67, -343.81 17.83, -341.99 18.0, -340.17 18.17, -338.36 18.33, -336.54 18.5, -334.74 18.67, -332.93 18.83, -331.13 19.0, -329.33 19.17, -327.54 19.33, -325.75 19.5, -323.96 19.67, -322.18 19.83, -320.4 20.0, -318.63 20.17, -316.85 20.33, -315.08 20.5, -313.32 20.67, -311.56 20.83, -309.8 21.0, -308.05 21.17, -306.3 21.33, -304.55 21.5, -302.8 21.67, -301.06 21.83, -299.33 22.0, -297.6 22.17, -295.87 22.33, -294.14 22.5, -292.42 22.67, -290.7 22.83, -288.98 23.0, -287.27 23.17, -285.56 23.33, -283.86 23.5, -282.16 23.67, -280.46 23.83, -278.77 24.0, -277.08 24.17, -275.39 24.33, -273.71 24.5, -272.03 24.67, -270.35 24.83, -268.68 25.0, -267.01 25.17, -265.34 25.33, -263.68 25.5, -262.02 25.67, -260.37 25.83, -258.71 26.0, -257.07 26.17, -255.42 26.33, -253.78 26.5, -252.14 26.67, -250.51 26.83, -248.88 27.0, -247.25 27.17, -245.62 27.33, -244.0 27.5, -242.39 27.67, -240.77 27.83, -239.16 28.0, -237.55 28.17, -235.95 28.33, -234.35 28.5, -232.75 28.67, -231.16 28.83, -229.57 29.0, -227.98 29.17, -226.4 29.33, -224.82 29.5, -223.24 29.67, -221.67 29.83, -220.1 30.0, -218.54 30.17, -216.97 30.33, -215.41 30.5, -213.86 30.67, -212.31 30.83, -210.76 31.0, -209.21 31.17, -207.67 31.33, -206.13 31.5, -204.59 31.67, -203.06 31.83, -201.53 32.0, -200.01 32.17, -198.49 32.33, -196.97 32.5, -195.45 32.67, -193.94 32.83, -192.43 33.0, -190.93 33.17, -189.42 33.33, -187.92 33.5, -186.43 33.67, -184.94 33.83, -183.45 34.0, -181.96 34.17, -180.48 34.33, -179.0 34.5, -177.53 34.67, -176.05 34.83, -174.58 35.0, -173.12 35.17, -171.66 35.33, -170.2 35.5, -168.74 35.67, -167.29 35.83, -165.84 36.0, -164.39 36.17, -162.95 36.33, -161.51 36.5, -160.08 36.67, -158.64 36.83, -157.21 37.0, -155.79 37.17, -154.36 37.33, -152.94 37.5, -151.53 37.67, -150.11 37.83, -148.7 38.0, -147.3 38.17, -145.89 38.33, -144.49 38.5, -143.1 38.67, -141.7 38.83, -140.31 39.0, -138.92 39.17, -137.54 39.33, -136.16 39.5, -134.78 39.67, -133.41 39.83, -132.03 40.0, -130.67 40.17, -129.3 40.33, -127.94 40.5, -126.58 40.67, -125.23 40.83, -123.87 41.0, -122.52 41.17, -121.18 41.33, -119.84 41.5, -118.5 41.67, -117.16 41.83, -115.83 42.0, -114.5 42.17, -113.17 42.33, -111.84 42.5, -110.52 42.67, -109.21 42.83, -107.89 43.0, -106.58 43.17, -105.27 43.33, -103.97 43.5, -102.67 43.67, -101.37 43.83, -100.07 44.0, -98.78 44.17, -97.49 44.33, -96.2 44.5, -94.92 44.67, -93.64 44.83, -92.36 45.0, -91.09 45.17, -89.82 45.33, -88.55 45.5, -87.29 45.67, -86.02 45.83, -84.77 46.0, -83.51 46.17, -82.26 46.33, -81.01 46.5, -79.76 46.67, -78.52 46.83, -77.28 47.0, -76.04 47.17, -74.81 47.33, -73.58 47.5, -72.35 47.67, -71.13 47.83, -69.9 48.0, -68.69 48.17, -67.47 48.33, -66.26 48.5, -65.05 48.67, -63.84 48.83, -62.64 49.0, -61.44 49.17, -60.24 49.33, -59.04 49.5, -57.85 49.67, -56.66 49.83, -55.48 50.0, -54.3 50.17, -53.12 50.33, -51.94 50.5, -50.77 50.67, -49.6 50.83, -48.43 51.0, -47.26 51.17, -46.1 51.33, -44.94 51.5, -43.79 51.67, -42.64 51.83, -41.49 52.0, -40.34 52.17, -39.2 52.33, -38.05 52.5, -36.92 52.67, -35.78 52.83, -34.65 53.0, -33.52 53.17, -32.39 53.33, -31.27 53.5, -30.15 53.67, -29.03 53.83, -27.92 54.0, -26.81 54.17, -25.7 54.33, -24.59 54.5, -23.49 54.67, -22.39 54.83, -21.29 55.0, -20.2 55.17, -19.11 55.33, -18.02 55.5, -16.93 55.67, -15.85 55.83, -14.77 56.0, -13.7 56.17, -12.62 56.33, -11.55 56.5, -10.48 56.67, -9.42 56.83, -8.36 57.0, -7.3 57.17, -6.24 57.33, -5.19 57.5, -4.13 57.67, -3.09 57.83, -2.04 58.0, -1.0 58.17, 0.04 58.33, 1.08 58.5, 2.11 58.67, 3.14 58.83, 4.17 59.0, 5.2 59.17, 6.22 59.33, 7.24 59.5, 8.26 59.67, 9.27 59.83, 10.28 60.0, 11.29 60.17, 12.3 60.33, 13.3 60.5, 14.3 60.67, 15.3 60.83, 16.29 61.0, 17.29 61.17, 18.27 61.33, 19.26 61.5, 20.24 61.67, 21.23 61.83, 22.2 62.0, 23.18 62.17, 24.15 62.33, 25.12 62.5, 26.09 62.67, 27.05 62.83, 28.01 63.0, 28.97 63.17, 29.93 63.33, 30.88 63.5, 31.83 63.67, 32.78 63.83, 33.73 64.0, 34.67 64.17, 35.61 64.33, 36.55 64.5, 37.48 64.67, 38.41 64.83, 39.34 65.0, 40.27 65.17, 41.19 65.33, 42.11 65.5, 43.03 65.67, 43.95 65.83, 44.86 66.0, 45.77 66.17, 46.68 66.33, 47.58 66.5, 48.48 66.67, 49.38 66.83, 50.28 67.0, 51.17 67.17, 52.07 67.33, 52.95 67.5, 53.84 67.67, 54.72 67.83, 55.6 68.0, 56.48 68.17, 57.36 68.33, 58.23 68.5, 59.1 68.67, 59.97 68.83, 60.83 69.0, 61.7 69.17, 62.56 69.33, 63.41 69.5, 64.27 69.67, 65.12 69.83, 65.97 70.0, 66.82 70.17, 67.66 70.33, 68.5 70.5, 69.34 70.67, 70.18 70.83, 71.01 71.0, 71.84 71.17, 72.67 71.33, 73.5 71.5, 74.32 71.67, 75.14 71.83, 75.96 72.0, 76.78 72.17, 77.59 72.33, 78.4 72.5, 79.21 72.67, 80.02 72.83, 80.82 73.0, 81.62 73.17, 82.42 73.33, 83.21 73.5, 84.01 73.67, 84.8 73.83, 85.59 74.0, 86.37 74.17, 87.15 74.33, 87.94 74.5, 88.71 74.67, 89.49 74.83, 90.26 75.0, 91.03 75.17, 91.8 75.33, 92.57 75.5, 93.33 75.67, 94.09 75.83, 94.85 76.0, 95.6 76.17, 96.36 76.33, 97.11 76.5, 97.85 76.67, 98.6 76.83, 99.34 77.0, 100.08 77.17, 100.82 77.33, 101.56 77.5, 102.29 77.67, 103.02 77.83, 103.75 78.0, 104.48 78.17, 105.2 78.33, 105.92 78.5, 106.64 78.67, 107.36 78.83, 108.07 79.0, 108.78 79.17, 109.49 79.33, 110.2 79.5, 110.9 79.67, 111.6 79.83, 112.3 80.0, 113.0 80.17, 113.69 80.33, 114.39 80.5, 115.08 80.67, 115.76 80.83, 116.45 81.0, 117.13 81.17, 117.81 81.33, 118.49 81.5, 119.17 81.67, 119.84 81.83, 120.51 82.0, 121.18 82.17, 121.84 82.33, 122.51 82.5, 123.17 82.67, 123.83 82.83, 124.49 83.0, 125.14 83.17, 125.79 83.33, 126.44 83.5, 127.09 83.67, 127.73 83.83, 128.38 84.0, 129.02 84.17, 129.66 84.33, 130.29 84.5, 130.93 84.67, 131.56 84.83, 132.19 85.0, 132.81 85.17, 133.44 85.33, 134.06 85.5, 134.68 85.67, 135.3 85.83, 135.91 86.0, 136.52 86.17, 137.13 86.33, 137.74 86.5, 138.35 86.67, 138.95 86.83, 139.55 87.0, 140.15 87.17, 140.75 87.33, 141.34 87.5, 141.94 87.67, 142.53 87.83, 143.12 88.0, 143.7 88.17, 144.28 88.33, 144.87 88.5, 145.45 88.67, 146.02 88.83, 146.6 89.0, 147.17 89.17, 147.74 89.33, 148.31 89.5, 148.87 89.67, 149.44 89.83, 150.0 90.0, 150.56 90.17, 151.11 90.33, 151.67 90.5, 152.22 90.67, 152.77 90.83, 153.32 91.0, 153.87 91.17, 154.41 91.33, 154.95 91.5, 155.49 91.67, 156.03 91.83, 156.56 92.0, 157.1 92.17, 157.63 92.33, 158.16 92.5, 158.68 92.67, 159.21 92.83, 159.73 93.0, 160.25 93.17, 160.77 93.33, 161.28 93.5, 161.8 93.67, 162.31 93.83, 162.82 94.0, 163.33 94.17, 163.83 94.33, 164.33 94.5, 164.84 94.67, 165.33 94.83, 165.83 95.0, 166.33 95.17, 166.82 95.33, 167.31 95.5, 167.8 95.67, 168.28 95.83, 168.77 96.0, 169.25 96.17, 169.73 96.33, 170.21 96.5, 170.68 96.67, 171.16 96.83, 171.63 97.0, 172.1 97.17, 172.57 97.33, 173.03 97.5, 173.5 97.67, 173.96 97.83, 174.42 98.0, 174.88 98.17, 175.33 98.33, 175.79 98.5, 176.24 98.67, 176.69 98.83, 177.13 99.0, 177.58 99.17, 178.02 99.33, 178.46 99.5, 178.9 99.67, 179.34 99.83, 179.78 100.0, 180.21 100.17, 180.64 100.33, 181.07 100.5, 181.5 100.67, 181.92 100.83, 182.34 101.0, 182.77 101.17, 183.19 101.33, 183.6 101.5, 184.02 101.67, 184.43 101.83, 184.84 102.0, 185.25 102.17, 185.66 102.33, 186.07 102.5, 186.47 102.67, 186.87 102.83, 187.27 103.0, 187.67 103.17, 188.07 103.33, 188.46 103.5, 188.85 103.67, 189.24 103.83, 189.63 104.0, 190.02 104.17, 190.4 104.33, 190.78 104.5, 191.16 104.67, 191.54 104.83, 191.92 105.0, 192.29 105.17, 192.67 105.33, 193.04 105.5, 193.41 105.67, 193.77 105.83, 194.14 106.0, 194.5 106.17, 194.86 106.33, 195.22 106.5, 195.58 106.67, 195.94 106.83, 196.29 107.0, 196.64 107.17, 197.0 107.33, 197.34 107.5, 197.69 107.67, 198.04 107.83, 198.38 108.0, 198.72 108.17, 199.06 108.33, 199.4 108.5, 199.73 108.67, 200.07 108.83, 200.4 109.0, 200.73 109.17, 201.06 109.33, 201.38 109.5, 201.71 109.67, 202.03 109.83, 202.35 110.0, 202.67 110.17, 202.99 110.33, 203.31 110.5, 203.62 110.67, 203.93 110.83, 204.24 111.0, 204.55 111.17, 204.86 111.33, 205.16 111.5, 205.47 111.67, 205.77 111.83, 206.07 112.0, 206.37 112.17, 206.66 112.33, 206.96 112.5, 207.25 112.67, 207.54 112.83, 207.83 113.0, 208.12 113.17, 208.4 113.33, 208.69 113.5, 208.97 113.67, 209.25 113.83, 209.53 114.0, 209.81 114.17, 210.08 114.33, 210.36 114.5, 210.63 114.67, 210.9 114.83, 211.17 115.0, 211.43 115.17, 211.7 115.33, 211.96 115.5, 212.22 115.67, 212.48 115.83, 212.74 116.0, 213.0 116.17, 213.25 116.33, 213.51 116.5, 213.76 116.67, 214.01 116.83, 214.26 117.0, 214.5 117.17, 214.75 117.33, 214.99 117.5, 215.24 117.67, 215.48 117.83, 215.71 118.0, 215.95 118.17, 216.19 118.33, 216.42 118.5, 216.65 118.67, 216.88 118.83, 217.11 119.0, 217.34 119.17, 217.56 119.33, 217.79 119.5, 218.01 119.67, 218.23 119.83, 218.45 120.0, 218.67 120.17, 218.88 120.33, 219.1 120.5, 219.31 120.67, 219.52 120.83, 219.73 121.0, 219.94 121.17, 220.14 121.33, 220.35 121.5, 220.55 121.67, 220.75 121.83, 220.95 122.0, 221.15 122.17, 221.35 122.33, 221.54 122.5, 221.74 122.67, 221.93 122.83, 222.12 123.0, 222.31 123.17, 222.5 123.33, 222.68 123.5, 222.87 123.67, 223.05 123.83, 223.23 124.0, 223.41 124.17, 223.59 124.33, 223.77 124.5, 223.95 124.67, 224.12 124.83, 224.29 125.0, 224.46 125.17, 224.63 125.33, 224.8 125.5, 224.97 125.67, 225.13 125.83, 225.3 126.0, 225.46 126.17, 225.62 126.33, 225.78 126.5, 225.93 126.67, 226.09 126.83, 226.25 127.0, 226.4 127.17, 226.55 127.33, 226.7 127.5, 226.85 127.67, 227.0 127.83, 227.14 128.0, 227.29 128.17, 227.43 128.33, 227.57 128.5, 227.71 128.67, 227.85 128.83, 227.99 129.0, 228.13 129.17, 228.26 129.33, 228.39 129.5, 228.52 129.67, 228.66 129.83, 228.78 130.0, 228.91 130.17, 229.04 130.33, 229.16 130.5, 229.29 130.67, 229.41 130.83, 229.53 131.0, 229.65 131.17, 229.77 131.33, 229.88 131.5, 230.0 131.67, 230.11 131.83, 230.22 132.0, 230.33 132.17, 230.44 132.33, 230.55 132.5, 230.66 132.67, 230.76 132.83, 230.87 133.0, 230.97 133.17, 231.07 133.33, 231.17 133.5, 231.27 133.67, 231.37 133.83, 231.47 134.0, 231.56 134.17, 231.65 134.33, 231.75 134.5, 231.84 134.67, 231.93 134.83, 232.02 135.0, 232.1 135.17, 232.19 135.33, 232.27 135.5, 232.36 135.67, 232.44 135.83, 232.52 136.0, 232.6 136.17, 232.68 136.33, 232.75 136.5, 232.83 136.67, 232.9 136.83, 232.97 137.0, 233.05 137.17, 233.12 137.33, 233.19 137.5, 233.25 137.67, 233.32 137.83, 233.39 138.0, 233.45 138.17, 233.51 138.33, 233.57 138.5, 233.64 138.67, 233.69 138.83, 233.75 139.0, 233.81 139.17, 233.87 139.33, 233.92 139.5, 233.97 139.67, 234.02 139.83, 234.08 140.0, 234.12 140.17, 234.17 140.33, 234.22 140.5, 234.27 140.67, 234.31 140.83, 234.35 141.0, 234.4 141.17, 234.44 141.33, 234.48 141.5, 234.52 141.67, 234.56 141.83, 234.59 142.0, 234.63 142.17, 234.66 142.33, 234.69 142.5, 234.73 142.67, 234.76 142.83, 234.79 143.0, 234.82 143.17, 234.84 143.33, 234.87 143.5, 234.89 143.67, 234.92 143.83, 234.94 144.0, 234.96 144.17, 234.98 144.33, 235.0 144.5, 235.02 144.67, 235.04 144.83, 235.05 145.0, 235.07 145.17, 235.08 145.33, 235.1 145.5, 235.11 145.67, 235.12 145.83, 235.13 146.0, 235.14 146.17, 235.14 146.33, 235.15 146.5, 235.16 146.67, 235.16 146.83, 235.16 147.0, 235.17 147.17, 235.17 147.33, 235.17 147.5, 235.17 147.67, 235.16 147.83, 235.16 148.0, 235.16 148.17, 235.15 148.33, 235.14 148.5, 235.14 148.67, 235.13 148.83, 235.12 149.0, 235.11 149.17, 235.1 149.33, 235.09 149.5, 235.07 149.67, 235.06 149.83, 235.04 150.0, 235.03 150.17, 235.01 150.33, 234.99 150.5, 234.97 150.67, 234.95 150.83, 234.93 151.0, 234.91 151.17, 234.88 151.33, 234.86 151.5, 234.83 151.67, 234.81 151.83, 234.78 152.0, 234.75 152.17, 234.72 152.33, 234.69 152.5, 234.66 152.67, 234.63 152.83, 234.6 153.0, 234.56 153.17, 234.53 153.33, 234.49 153.5, 234.46 153.67, 234.42 153.83, 234.38 154.0, 234.34 154.17, 234.3 154.33, 234.26 154.5, 234.22 154.67, 234.17 154.83, 234.13 155.0, 234.08 155.17, 234.04 155.33, 233.99 155.5, 233.94 155.67, 233.9 155.83, 233.85 156.0, 233.8 156.17, 233.74 156.33, 233.69 156.5, 233.64 156.67, 233.59 156.83, 233.53 157.0, 233.48 157.17, 233.42 157.33, 233.36 157.5, 233.3 157.67, 233.25 157.83, 233.19 158.0, 233.12 158.17, 233.06 158.33, 233.0 158.5, 232.94 158.67, 232.87 158.83, 232.81 159.0, 232.74 159.17, 232.68 159.33, 232.61 159.5, 232.54 159.67, 232.47 159.83, 232.4 160.0, 232.33 160.17, 232.26 160.33, 232.19 160.5, 232.12 160.67, 232.04 160.83, 231.97 161.0, 231.89 161.17, 231.82 161.33, 231.74 161.5, 231.66 161.67, 231.59 161.83, 231.51 162.0, 231.43 162.17, 231.35 162.33, 231.26 162.5, 231.18 162.67, 231.1 162.83, 231.02 163.0, 230.93 163.17, 230.85 163.33, 230.76 163.5, 230.67 163.67, 230.59 163.83, 230.5 164.0, 230.41 164.17, 230.32 164.33, 230.23 164.5, 230.14 164.67, 230.05 164.83, 229.96 165.0, 229.86 165.17, 229.77 165.33, 229.68 165.5, 229.58 165.67, 229.49 165.83, 229.39 166.0, 229.29 166.17, 229.19 166.33, 229.1 166.5, 229.0 166.67, 228.9 166.83, 228.8 167.0, 228.7 167.17, 228.59 167.33, 228.49 167.5, 228.39 167.67, 228.28 167.83, 228.18 168.0, 228.07 168.17, 227.97 168.33, 227.86 168.5, 227.76 168.67, 227.65 168.83, 227.54 169.0, 227.43 169.17, 227.32 169.33, 227.21 169.5, 227.1 169.67, 226.99 169.83, 226.88 170.0, 226.77 170.17, 226.65 170.33, 226.54 170.5, 226.42 170.67, 226.31 170.83, 226.19 171.0, 226.08 171.17, 225.96 171.33, 225.84 171.5, 225.73 171.67, 225.61 171.83, 225.49 172.0, 225.37 172.17, 225.25 172.33, 225.13 172.5, 225.01 172.67, 224.89 172.83, 224.76 173.0, 224.64 173.17, 224.52 173.33, 224.4 173.5, 224.27 173.67, 224.15 173.83, 224.02 174.0, 223.89 174.17, 223.77 174.33, 223.64 174.5, 223.51 174.67, 223.39 174.83, 223.26 175.0, 223.13 175.17, 223.0 175.33, 222.87 175.5, 222.74 175.67, 222.61 175.83, 222.48 176.0, 222.34 176.17, 222.21 176.33, 222.08 176.5, 221.95 176.67, 221.81 176.83, 221.68 177.0, 221.54 177.17, 221.41 177.33, 221.27 177.5, 221.14 177.67, 221.0 177.83, 220.86 178.0, 220.72 178.17, 220.59 178.33, 220.45 178.5, 220.31 178.67, 220.17 178.83, 220.03 179.0, 219.89 179.17, 219.75 179.33, 219.61 179.5, 219.47 179.67, 219.33 179.83, 219.18 180.0, 219.04 180.17, 218.9 180.33, 218.76 180.5, 218.61 180.67, 218.47 180.83, 218.32 181.0, 218.18 181.17, 218.03 181.33, 217.89 181.5, 217.74 181.67, 217.6 181.83, 217.45 182.0, 217.3 182.17, 217.15 182.33, 217.01 182.5, 216.86 182.67, 216.71 182.83, 216.56 183.0, 216.41 183.17, 216.26 183.33, 216.11 183.5, 215.96 183.67, 215.81 183.83, 215.66 184.0, 215.51 184.17, 215.36 184.33, 215.21 184.5, 215.05 184.67, 214.9 184.83, 214.75 185.0, 214.6 185.17, 214.44 185.33, 214.29 185.5, 214.13 185.67, 213.98 185.83, 213.83 186.0, 213.67 186.17, 213.52 186.33, 213.36 186.5, 213.21 186.67, 213.05 186.83, 212.89 187.0, 212.74 187.17, 212.58 187.33, 212.42 187.5, 212.27 187.67, 212.11 187.83, 211.95 188.0, 211.79 188.17, 211.63 188.33, 211.48 188.5, 211.32 188.67, 211.16 188.83, 211.0 189.0, 210.84 189.17, 210.68 189.33, 210.52 189.5, 210.36 189.67, 210.2 189.83, 210.04 190.0, 209.88 190.17, 209.72 190.33, 209.56 190.5, 209.4 190.67, 209.24 190.83, 209.07 191.0, 208.91 191.17, 208.75 191.33, 208.59 191.5, 208.43 191.67, 208.26 191.83, 208.1 192.0, 207.94 192.17, 207.78 192.33, 207.61 192.5, 207.45 192.67, 207.29 192.83, 207.12 193.0, 206.96 193.17, 206.8 193.33, 206.63 193.5, 206.47 193.67, 206.3 193.83, 206.14 194.0, 205.97 194.17, 205.81 194.33, 205.64 194.5, 205.48 194.67, 205.32 194.83, 205.15 195.0, 204.99 195.17, 204.82 195.33, 204.65 195.5, 204.49 195.67, 204.32 195.83, 204.16 196.0, 203.99 196.17, 203.83 196.33, 203.66 196.5, 203.49 196.67, 203.33 196.83, 203.16 197.0, 203.0 197.17, 202.83 197.33, 202.66 197.5, 202.5 197.67, 202.33 197.83, 202.17 198.0, 202.0 198.17, 201.83 198.33, 201.67 198.5, 201.5 198.67, 201.33 198.83, 201.17 199.0, 201.0 199.17, 200.83 199.33, 200.67 199.5, 200.5 199.67, 200.33 199.83, 200.17 200.0, 200.0 200.17, 199.83 200.33, 199.67 200.5, 199.5 200.67, 199.33 200.83, 199.17 201.0, 199.0 201.17, 198.83 201.33, 198.67 201.5, 198.5 201.67, 198.33 201.83, 198.17 202.0, 198.0 202.17, 197.83 202.33, 197.67 202.5, 197.5 202.67, 197.34 202.83, 197.17 203.0, 197.0 203.17, 196.84 203.33, 196.67 203.5, 196.51 203.67, 196.34 203.83, 196.17 204.0, 196.01 204.17, 195.84 204.33, 195.68 204.5, 195.51 204.67, 195.35 204.83, 195.18 205.0, 195.01 205.17, 194.85 205.33, 194.68 205.5, 194.52 205.67, 194.36 205.83, 194.19 206.0, 194.03 206.17, 193.86 206.33, 193.7 206.5, 193.53 206.67, 193.37 206.83, 193.2 207.0, 193.04 207.17, 192.88 207.33, 192.71 207.5, 192.55 207.67, 192.39 207.83, 192.22 208.0, 192.06 208.17, 191.9 208.33, 191.74 208.5, 191.57 208.67, 191.41 208.83, 191.25 209.0, 191.09 209.17, 190.93 209.33, 190.76 209.5, 190.6 209.67, 190.44 209.83, 190.28 210.0, 190.12 210.17, 189.96 210.33, 189.8 210.5, 189.64 210.67, 189.48 210.83, 189.32 211.0, 189.16 211.17, 189.0 211.33, 188.84 211.5, 188.68 211.67, 188.52 211.83, 188.37 212.0, 188.21 212.17, 188.05 212.33, 187.89 212.5, 187.73 212.67, 187.58 212.83, 187.42 213.0, 187.26 213.17, 187.11 213.33, 186.95 213.5, 186.79 213.67, 186.64 213.83, 186.48 214.0, 186.33 214.17, 186.17 214.33, 186.02 214.5, 185.87 214.67, 185.71 214.83, 185.56 215.0, 185.4 215.17, 185.25 215.33, 185.1 215.5, 184.95 215.67, 184.79 215.83, 184.64 216.0, 184.49 216.17, 184.34 216.33, 184.19 216.5, 184.04 216.67, 183.89 216.83, 183.74 217.0, 183.59 217.17, 183.44 217.33, 183.29 217.5, 183.14 217.67, 182.99 217.83, 182.85 218.0, 182.7 218.17, 182.55 218.33, 182.4 218.5, 182.26 218.67, 182.11 218.83, 181.97 219.0, 181.82 219.17, 181.68 219.33, 181.53 219.5, 181.39 219.67, 181.24 219.83, 181.1 220.0, 180.96 220.17, 180.82 220.33, 180.67 220.5, 180.53 220.67, 180.39 220.83, 180.25 221.0, 180.11 221.17, 179.97 221.33, 179.83 221.5, 179.69 221.67, 179.55 221.83, 179.41 222.0, 179.28 222.17, 179.14 222.33, 179.0 222.5, 178.86 222.67, 178.73 222.83, 178.59 223.0, 178.46 223.17, 178.32 223.33, 178.19 223.5, 178.05 223.67, 177.92 223.83, 177.79 224.0, 177.66 224.17, 177.52 224.33, 177.39 224.5, 177.26 224.67, 177.13 224.83, 177.0 225.0, 176.87 225.17, 176.74 225.33, 176.61 225.5, 176.49 225.67, 176.36 225.83, 176.23 226.0, 176.11 226.17, 175.98 226.33, 175.85 226.5, 175.73 226.67, 175.6 226.83, 175.48 227.0, 175.36 227.17, 175.24 227.33, 175.11 227.5, 174.99 227.67, 174.87 227.83, 174.75 228.0, 174.63 228.17, 174.51 228.33, 174.39 228.5, 174.27 228.67, 174.16 228.83, 174.04 229.0, 173.92 229.17, 173.81 229.33, 173.69 229.5, 173.58 229.67, 173.46 229.83, 173.35 230.0, 173.23 230.17, 173.12 230.33, 173.01 230.5, 172.9 230.67, 172.79 230.83, 172.68 231.0, 172.57 231.17, 172.46 231.33, 172.35 231.5, 172.24 231.67, 172.14 231.83, 172.03 232.0, 171.93 232.17, 171.82 232.33, 171.72 232.5, 171.61 232.67, 171.51 232.83, 171.41 233.0, 171.3 233.17, 171.2 233.33, 171.1 233.5, 171.0 233.67, 170.9 233.83, 170.81 234.0, 170.71 234.17, 170.61 234.33, 170.51 234.5, 170.42 234.67, 170.32 234.83, 170.23 235.0, 170.14 235.17, 170.04 235.33, 169.95 235.5, 169.86 235.67, 169.77 235.83, 169.68 236.0, 169.59 236.17, 169.5 236.33, 169.41 236.5, 169.33 236.67, 169.24 236.83, 169.15 237.0, 169.07 237.17, 168.98 237.33, 168.9 237.5, 168.82 237.67, 168.74 237.83, 168.65 238.0, 168.57 238.17, 168.49 238.33, 168.41 238.5, 168.34 238.67, 168.26 238.83, 168.18 239.0, 168.11 239.17, 168.03 239.33, 167.96 239.5, 167.88 239.67, 167.81 239.83, 167.74 240.0, 167.67 240.17, 167.6 240.33, 167.53 240.5, 167.46 240.67, 167.39 240.83, 167.32 241.0, 167.26 241.17, 167.19 241.33, 167.13 241.5, 167.06 241.67, 167.0 241.83, 166.94 242.0, 166.88 242.17, 166.81 242.33, 166.75 242.5, 166.7 242.67, 166.64 242.83, 166.58 243.0, 166.52 243.17, 166.47 243.33, 166.41 243.5, 166.36 243.67, 166.31 243.83, 166.26 244.0, 166.2 244.17, 166.15 244.33, 166.1 244.5, 166.06 244.67, 166.01 244.83, 165.96 245.0, 165.92 245.17, 165.87 245.33, 165.83 245.5, 165.78 245.67, 165.74 245.83, 165.7 246.0, 165.66 246.17, 165.62 246.33, 165.58 246.5, 165.54 246.67, 165.51 246.83, 165.47 247.0, 165.44 247.17, 165.4 247.33, 165.37 247.5, 165.34 247.67, 165.31 247.83, 165.28 248.0, 165.25 248.17, 165.22 248.33, 165.19 248.5, 165.17 248.67, 165.14 248.83, 165.12 249.0, 165.09 249.17, 165.07 249.33, 165.05 249.5, 165.03 249.67, 165.01 249.83, 164.99 250.0, 164.97 250.17, 164.96 250.33, 164.94 250.5, 164.93 250.67, 164.91 250.83, 164.9 251.0, 164.89 251.17, 164.88 251.33, 164.87 251.5, 164.86 251.67, 164.86 251.83, 164.85 252.0, 164.84 252.17, 164.84 252.33, 164.84 252.5, 164.83 252.67, 164.83 252.83, 164.83 253.0, 164.83 253.17, 164.84 253.33, 164.84 253.5, 164.84 253.67, 164.85 253.83, 164.86 254.0, 164.86 254.17, 164.87 254.33, 164.88 254.5, 164.89 254.67, 164.9 254.83, 164.92 255.0, 164.93 255.17, 164.95 255.33, 164.96 255.5, 164.98 255.67, 165.0 255.83, 165.02 256.0, 165.04 256.17, 165.06 256.33, 165.08 256.5, 165.11 256.67, 165.13 256.83, 165.16 257.0, 165.18 257.17, 165.21 257.33, 165.24 257.5, 165.27 257.67, 165.31 257.83, 165.34 258.0, 165.37 258.17, 165.41 258.33, 165.44 258.5, 165.48 258.67, 165.52 258.83, 165.56 259.0, 165.6 259.17, 165.65 259.33, 165.69 259.5, 165.73 259.67, 165.78 259.83, 165.83 260.0, 165.88 260.17, 165.92 260.33, 165.98 260.5, 166.03 260.67, 166.08 260.83, 166.13 261.0, 166.19 261.17, 166.25 261.33, 166.31 261.5, 166.36 261.67, 166.43 261.83, 166.49 262.0, 166.55 262.17, 166.61 262.33, 166.68 262.5, 166.75 262.67, 166.81 262.83, 166.88 263.0, 166.95 263.17, 167.03 263.33, 167.1 263.5, 167.17 263.67, 167.25 263.83, 167.32 264.0, 167.4 264.17, 167.48 264.33, 167.56 264.5, 167.64 264.67, 167.73 264.83, 167.81 265.0, 167.9 265.17, 167.98 265.33, 168.07 265.5, 168.16 265.67, 168.25 265.83, 168.35 266.0, 168.44 266.17, 168.53 266.33, 168.63 266.5, 168.73 266.67, 168.83 266.83, 168.93 267.0, 169.03 267.17, 169.13 267.33, 169.24 267.5, 169.34 267.67, 169.45 267.83, 169.56 268.0, 169.67 268.17, 169.78 268.33, 169.89 268.5, 170.0 268.67, 170.12 268.83, 170.23 269.0, 170.35 269.17, 170.47 269.33, 170.59 269.5, 170.71 269.67, 170.84 269.83, 170.96 270.0, 171.09 270.17, 171.22 270.33, 171.34 270.5, 171.48 270.67, 171.61 270.83, 171.74 271.0, 171.87 271.17, 172.01 271.33, 172.15 271.5, 172.29 271.67, 172.43 271.83, 172.57 272.0, 172.71 272.17, 172.86 272.33, 173.0 272.5, 173.15 272.67, 173.3 272.83, 173.45 273.0, 173.6 273.17, 173.75 273.33, 173.91 273.5, 174.07 273.67, 174.22 273.83, 174.38 274.0, 174.54 274.17, 174.7 274.33, 174.87 274.5, 175.03 274.67, 175.2 274.83, 175.37 275.0, 175.54 275.17, 175.71 275.33, 175.88 275.5, 176.05 275.67, 176.23 275.83, 176.41 276.0, 176.59 276.17, 176.77 276.33, 176.95 276.5, 177.13 276.67, 177.32 276.83, 177.5 277.0, 177.69 277.17, 177.88 277.33, 178.07 277.5, 178.26 277.67, 178.46 277.83, 178.65 278.0, 178.85 278.17, 179.05 278.33, 179.25 278.5, 179.45 278.67, 179.65 278.83, 179.86 279.0, 180.06 279.17, 180.27 279.33, 180.48 279.5, 180.69 279.67, 180.9 279.83, 181.12 280.0, 181.33 280.17, 181.55 280.33, 181.77 280.5, 181.99 280.67, 182.21 280.83, 182.44 281.0, 182.66 281.17, 182.89 281.33, 183.12 281.5, 183.35 281.67, 183.58 281.83, 183.81 282.0, 184.05 282.17, 184.29 282.33, 184.52 282.5, 184.76 282.67, 185.01 282.83, 185.25 283.0, 185.5 283.17, 185.74 283.33, 185.99 283.5, 186.24 283.67, 186.49 283.83, 186.75 284.0, 187.0 284.17, 187.26 284.33, 187.52 284.5, 187.78 284.67, 188.04 284.83, 188.3 285.0, 188.57 285.17, 188.83 285.33, 189.1 285.5, 189.37 285.67, 189.64 285.83, 189.92 286.0, 190.19 286.17, 190.47 286.33, 190.75 286.5, 191.03 286.67, 191.31 286.83, 191.6 287.0, 191.88 287.17, 192.17 287.33, 192.46 287.5, 192.75 287.67, 193.04 287.83, 193.34 288.0, 193.63 288.17, 193.93 288.33, 194.23 288.5, 194.53 288.67, 194.84 288.83, 195.14 289.0, 195.45 289.17, 195.76 289.33, 196.07 289.5, 196.38 289.67, 196.69 289.83, 197.01 290.0, 197.33 290.17, 197.65 290.33, 197.97 290.5, 198.29 290.67, 198.62 290.83, 198.94 291.0, 199.27 291.17, 199.6 291.33, 199.93 291.5, 200.27 291.67, 200.6 291.83, 200.94 292.0, 201.28 292.17, 201.62 292.33, 201.96 292.5, 202.31 292.67, 202.66 292.83, 203.0 293.0, 203.36 293.17, 203.71 293.33, 204.06 293.5, 204.42 293.67, 204.78 293.83, 205.14 294.0, 205.5 294.17, 205.86 294.33, 206.23 294.5, 206.59 294.67, 206.96 294.83, 207.33 295.0, 207.71 295.17, 208.08 295.33, 208.46 295.5, 208.84 295.67, 209.22 295.83, 209.6 296.0, 209.98 296.17, 210.37 296.33, 210.76 296.5, 211.15 296.67, 211.54 296.83, 211.93 297.0, 212.33 297.17, 212.73 297.33, 213.13 297.5, 213.53 297.67, 213.93 297.83, 214.34 298.0, 214.75 298.17, 215.16 298.33, 215.57 298.5, 215.98 298.67, 216.4 298.83, 216.81 299.0, 217.23 299.17, 217.66 299.33, 218.08 299.5, 218.5 299.67, 218.93 299.83, 219.36 300.0, 219.79 300.17, 220.22 300.33, 220.66 300.5, 221.1 300.67, 221.54 300.83, 221.98 301.0, 222.42 301.17, 222.87 301.33, 223.31 301.5, 223.76 301.67, 224.21 301.83, 224.67 302.0, 225.12 302.17, 225.58 302.33, 226.04 302.5, 226.5 302.67, 226.97 302.83, 227.43 303.0, 227.9 303.17, 228.37 303.33, 228.84 303.5, 229.32 303.67, 229.79 303.83, 230.27 304.0, 230.75 304.17, 231.23 304.33, 231.72 304.5, 232.2 304.67, 232.69 304.83, 233.18 305.0, 233.67 305.17, 234.17 305.33, 234.67 305.5, 235.16 305.67, 235.67 305.83, 236.17 306.0, 236.67 306.17, 237.18 306.33, 237.69 306.5, 238.2 306.67, 238.72 306.83, 239.23 307.0, 239.75 307.17, 240.27 307.33, 240.79 307.5, 241.32 307.67, 241.84 307.83, 242.37 308.0, 242.9 308.17, 243.44 308.33, 243.97 308.5, 244.51 308.67, 245.05 308.83, 245.59 309.0, 246.13 309.17, 246.68 309.33, 247.23 309.5, 247.78 309.67, 248.33 309.83, 248.89 310.0, 249.44 310.17, 250.0 310.33, 250.56 310.5, 251.13 310.67, 251.69 310.83, 252.26 311.0, 252.83 311.17, 253.4 311.33, 253.98 311.5, 254.55 311.67, 255.13 311.83, 255.72 312.0, 256.3 312.17, 256.88 312.33, 257.47 312.5, 258.06 312.67, 258.66 312.83, 259.25 313.0, 259.85 313.17, 260.45 313.33, 261.05 313.5, 261.65 313.67, 262.26 313.83, 262.87 314.0, 263.48 314.17, 264.09 314.33, 264.7 314.5, 265.32 314.67, 265.94 314.83, 266.56 315.0, 267.19 315.17, 267.81 315.33, 268.44 315.5, 269.07 315.67, 269.71 315.83, 270.34 316.0, 270.98 316.17, 271.62 316.33, 272.27 316.5, 272.91 316.67, 273.56 316.83, 274.21 317.0, 274.86 317.17, 275.51 317.33, 276.17 317.5, 276.83 317.67, 277.49 317.83, 278.16 318.0, 278.82 318.17, 279.49 318.33, 280.16 318.5, 280.83 318.67, 281.51 318.83, 282.19 319.0, 282.87 319.17, 283.55 319.33, 284.24 319.5, 284.92 319.67, 285.61 319.83, 286.31 320.0, 287.0 320.17, 287.7 320.33, 288.4 320.5, 289.1 320.67, 289.8 320.83, 290.51 321.0, 291.22 321.17, 291.93 321.33, 292.64 321.5, 293.36 321.67, 294.08 321.83, 294.8 322.0, 295.52 322.17, 296.25 322.33, 296.98 322.5, 297.71 322.67, 298.44 322.83, 299.18 323.0, 299.92 323.17, 300.66 323.33, 301.4 323.5, 302.15 323.67, 302.89 323.83, 303.64 324.0, 304.4 324.17, 305.15 324.33, 305.91 324.5, 306.67 324.67, 307.43 324.83, 308.2 325.0, 308.97 325.17, 309.74 325.33, 310.51 325.5, 311.29 325.67, 312.06 325.83, 312.85 326.0, 313.63 326.17, 314.41 326.33, 315.2 326.5, 315.99 326.67, 316.79 326.83, 317.58 327.0, 318.38 327.17, 319.18 327.33, 319.98 327.5, 320.79 327.67, 321.6 327.83, 322.41 328.0, 323.22 328.17, 324.04 328.33, 324.86 328.5, 325.68 328.67, 326.5 328.83, 327.33 329.0, 328.16 329.17, 328.99 329.33, 329.82 329.5, 330.66 329.67, 331.5 329.83, 332.34 330.0, 333.18 330.17, 334.03 330.33, 334.88 330.5, 335.73 330.67, 336.59 330.83, 337.44 331.0, 338.3 331.17, 339.17 331.33, 340.03 331.5, 340.9 331.67, 341.77 331.83, 342.64 332.0, 343.52 332.17, 344.4 332.33, 345.28 332.5, 346.16 332.67, 347.05 332.83, 347.93 333.0, 348.83 333.17, 349.72 333.33, 350.62 333.5, 351.52 333.67, 352.42 333.83, 353.32 334.0, 354.23 334.17, 355.14 334.33, 356.05 334.5, 356.97 334.67, 357.89 334.83, 358.81 335.0, 359.73 335.17, 360.66 335.33, 361.59 335.5, 362.52 335.67, 363.45 335.83, 364.39 336.0, 365.33 336.17, 366.27 336.33, 367.22 336.5, 368.17 336.67, 369.12 336.83, 370.07 337.0, 371.03 337.17, 371.99 337.33, 372.95 337.5, 373.91 337.67, 374.88 337.83, 375.85 338.0, 376.82 338.17, 377.8 338.33, 378.77 338.5, 379.76 338.67, 380.74 338.83, 381.73 339.0, 382.71 339.17, 383.71 339.33, 384.7 339.5, 385.7 339.67, 386.7 339.83, 387.7 340.0, 388.71 340.17, 389.72 340.33, 390.73 340.5, 391.74 340.67, 392.76 340.83, 393.78 341.0, 394.8 341.17, 395.83 341.33, 396.86 341.5, 397.89 341.67, 398.92 341.83, 399.96 342.0, 401.0 342.17, 402.04 342.33, 403.09 342.5, 404.13 342.67, 405.19 342.83, 406.24 343.0, 407.3 343.17, 408.36 343.33, 409.42 343.5, 410.48 343.67, 411.55 343.83, 412.62 344.0, 413.7 344.17, 414.77 344.33, 415.85 344.5, 416.93 344.67, 418.02 344.83, 419.11 345.0, 420.2 345.17, 421.29 345.33, 422.39 345.5, 423.49 345.67, 424.59 345.83, 425.7 346.0, 426.81 346.17, 427.92 346.33, 429.03 346.5, 430.15 346.67, 431.27 346.83, 432.39 347.0, 433.52 347.17, 434.65 347.33, 435.78 347.5, 436.92 347.67, 438.05 347.83, 439.2 348.0, 440.34 348.17, 441.49 348.33, 442.64 348.5, 443.79 348.67, 444.94 348.83, 446.1 349.0, 447.26 349.17, 448.43 349.33, 449.6 349.5, 450.77 349.67, 451.94 349.83, 453.12 350.0, 454.3 350.17, 455.48 350.33, 456.66 350.5, 457.85 350.67, 459.04 350.83, 460.24 351.0, 461.44 351.17, 462.64 351.33, 463.84 351.5, 465.05 351.67, 466.26 351.83, 467.47 352.0, 468.69 352.17, 469.9 352.33, 471.13 352.5, 472.35 352.67, 473.58 352.83, 474.81 353.0, 476.04 353.17, 477.28 353.33, 478.52 353.5, 479.76 353.67, 481.01 353.83, 482.26 354.0, 483.51 354.17, 484.77 354.33, 486.02 354.5, 487.29 354.67, 488.55 354.83, 489.82 355.0, 491.09 355.17, 492.36 355.33, 493.64 355.5, 494.92 355.67, 496.2 355.83, 497.49 356.0, 498.78 356.17, 500.07 356.33, 501.37 356.5, 502.67 356.67, 503.97 356.83, 505.27 357.0, 506.58 357.17, 507.89 357.33, 509.21 357.5, 510.52 357.67, 511.84 357.83, 513.17 358.0, 514.5 358.17, 515.83 358.33, 517.16 358.5, 518.5 358.67, 519.84 358.83, 521.18 359.0, 522.52 359.17, 523.87 359.33, 525.23 359.5, 526.58 359.67, 527.94 359.83, 529.3 360.0, 530.67 360.17, 532.03 360.33, 533.41 360.5, 534.78 360.67, 536.16 360.83, 537.54 361.0, 538.92 361.17, 540.31 361.33, 541.7 361.5, 543.1 361.67, 544.49 361.83, 545.89 362.0, 547.3 362.17, 548.7 362.33, 550.11 362.5, 551.53 362.67, 552.94 362.83, 554.36 363.0, 555.79 363.17, 557.21 363.33, 558.64 363.5, 560.08 363.67, 561.51 363.83, 562.95 364.0, 564.39 364.17, 565.84 364.33, 567.29 364.5, 568.74 364.67, 570.2 364.83, 571.66 365.0, 573.12 365.17, 574.58 365.33, 576.05 365.5, 577.53 365.67, 579.0 365.83, 580.48 366.0, 581.96 366.17, 583.45 366.33, 584.94 366.5, 586.43 366.67, 587.92 366.83, 589.42 367.0, 590.93 367.17, 592.43 367.33, 593.94 367.5, 595.45 367.67, 596.97 367.83, 598.49 368.0, 600.01 368.17, 601.53 368.33, 603.06 368.5, 604.59 368.67, 606.13 368.83, 607.67 369.0, 609.21 369.17, 610.76 369.33, 612.31 369.5, 613.86 369.67, 615.41 369.83, 616.97 370.0, 618.54 370.17, 620.1 370.33, 621.67 370.5, 623.24 370.67, 624.82 370.83, 626.4 371.0, 627.98 371.17, 629.57 371.33, 631.16 371.5, 632.75 371.67, 634.35 371.83, 635.95 372.0, 637.55 372.17, 639.16 372.33, 640.77 372.5, 642.39 372.67, 644.0 372.83, 645.62 373.0, 647.25 373.17, 648.88 373.33, 650.51 373.5, 652.14 373.67, 653.78 373.83, 655.42 374.0, 657.07 374.17, 658.71 374.33, 660.37 374.5, 662.02 374.67, 663.68 374.83, 665.34 375.0, 667.01 375.17, 668.68 375.33, 670.35 375.5, 672.03 375.67, 673.71 375.83, 675.39 376.0, 677.08 376.17, 678.77 376.33, 680.46 376.5, 682.16 376.67, 683.86 376.83, 685.56 377.0, 687.27 377.17, 688.98 377.33, 690.7 377.5, 692.42 377.67, 694.14 377.83, 695.87 378.0, 697.6 378.17, 699.33 378.33, 701.06 378.5, 702.8 378.67, 704.55 378.83, 706.3 379.0, 708.05 379.17, 709.8 379.33, 711.56 379.5, 713.32 379.67, 715.08 379.83, 716.85 380.0, 718.63 380.17, 720.4 380.33, 722.18 380.5, 723.96 380.67, 725.75 380.83, 727.54 381.0, 729.33 381.17, 731.13 381.33, 732.93 381.5, 734.74 381.67, 736.54 381.83, 738.36 382.0, 740.17 382.17, 741.99 382.33, 743.81 382.5, 745.64 382.67, 747.47 382.83, 749.3 383.0, 751.14 383.17, 752.98 383.33, 754.83 383.5, 756.68 383.67, 758.53 383.83, 760.38 384.0, 762.24 384.17, 764.11 384.33, 765.97 384.5, 767.84 384.67, 769.72 384.83, 771.59 385.0, 773.48 385.17, 775.36 385.33, 777.25 385.5, 779.14 385.67, 781.04 385.83, 782.94 386.0, 784.84 386.17, 786.75 386.33, 788.66 386.5, 790.58 386.67, 792.49 386.83, 794.42 387.0, 796.34 387.17, 798.27 387.33, 800.21 387.5, 802.14 387.67, 804.08 387.83, 806.03 388.0, 807.98 388.17, 809.93 388.33, 811.88 388.5, 813.84 388.67, 815.81 388.83, 817.77 389.0, 819.75 389.17, 821.72 389.33, 823.7 389.5, 825.68 389.67, 827.67 389.83, 829.66 390.0, 831.65 390.17, 833.65 390.33, 835.65 390.5, 837.65 390.67, 839.66 390.83, 841.68 391.0, 843.69 391.17, 845.71 391.33, 847.74 391.5, 849.77 391.67, 851.8 391.83, 853.83 392.0, 855.87 392.17, 857.92 392.33, 859.96 392.5, 862.01 392.67, 864.07 392.83, 866.13 393.0, 868.19 393.17, 870.26 393.33, 872.33 393.5, 874.4 393.67, 876.48 393.83, 878.56 394.0, 880.64 394.17, 882.73 394.33, 884.83 394.5, 886.93 394.67, 889.03 394.83, 891.13 395.0, 893.24 395.17, 895.35 395.33, 897.47 395.5, 899.59 395.67, 901.71 395.83, 903.84 396.0, 905.98 396.17, 908.11 396.33, 910.25 396.5, 912.4 396.67, 914.54 396.83, 916.7 397.0, 918.85 397.17, 921.01 397.33, 923.18 397.5, 925.34 397.67, 927.51 397.83, 929.69 398.0, 931.87 398.17, 934.05 398.33, 936.24 398.5, 938.43 398.67, 940.63 398.83, 942.83 399.0, 945.03 399.17, 947.24 399.33, 949.45 399.5, 951.66 399.67, 953.88 399.83, 956.11 400.0, 958.33 " fill="none" stroke="white" stroke-width="1.5" stroke-linejoin="round" stroke-opacity="1"/>

 </svg>