<svg version="1.1" 
 baseProfile="full" 
 width="400" 
 height="400" 
 xmlns="http://www.w3.org/2000/svg">
<rect x="0.0" y="0.0" width="400" height="400" fill="black" stroke="black" stroke-width="0" opacity="1"/>
<line x1="0.0" y1="0.0" x2="0.0" y2="400.0" stroke="white" stroke-width="1" opacity="0.4" stroke-linecap="butt"/>
<line x1="40.0" y1="0.0" x2="40.0" y2="400.0" stroke="white" stroke-width="1" opacity="0.4" stroke-linecap="butt"/>
<line x1="80.0" y1="0.0" x2="80.0" y2="400.0" stroke="white" stroke-width="1" opacity="0.4" stroke-linecap="butt"/>
<line x1="120.0" y1="0.0" x2="120.0" y2="400.0" stroke="white" stroke-width="1" opacity="0.4" stroke-linecap="butt"/>
<line x1="160.0" y1="0.0" x2="160.0" y2="400.0" stroke="white" stroke-width="1" opacity="0.4" stroke-linecap="butt"/>
<line x1="200.0" y1="0.0" x2="200.0" y2="400.0" stroke="white" stroke-width="1" opacity="0.4" stroke-linecap="butt"/>
<line x1="240.0" y1="0.0" x2="240.0" y2="400.0" stroke="white" stroke-width="1" opacity="0.4" stroke-linecap="butt"/>
<line x1="280.0" y1="0.0" x2="280.0" y2="400.0" stroke="white" stroke-width="1" opacity="0.4" stroke-linecap="butt"/>
<line x1="320.0" y1="0.0" x2="320.0" y2="400.0" stroke="white" stroke-width="1" opacity="0.4" stroke-linecap="butt"/>
<line x1="360.0" y1="0.0" x2="360.0" y2="400.0" stroke="white" stroke-width="1" opacity="0.4" stroke-linecap="butt"/>
<line x1="0.0" y1="0.0" x2="400.0" y2="0.0" stroke="white" stroke-width="1" opacity="0.4" stroke-linecap="butt"/>
<line x1="0.0" y1="40.0" x2="400.0" y2="40.0" stroke="white" stroke-width="1" opacity="0.4" stroke-linecap="butt"/>
<line x1="0.0" y1="80.0" x2="400.0" y2="80.0" stroke="white" stroke-width="1" opacity="0.4" stroke-linecap="butt"/>
<line x1="0.0" y1="120.0" x2="400.0" y2="120.0" stroke="white" stroke-width="1" opacity="0.4" stroke-linecap="butt"/>
<line x1="0.0" y1="160.0" x2="400.0" y2="160.0" stroke="white" stroke-width="1" opacity="0.4" stroke-linecap="butt"/>
<line x1="0.0" y1="200.0" x2="400.0" y2="200.0" stroke="white" stroke-width="1" opacity="0.4" stroke-linecap="butt"/>
<line x1="0.0" y1="240.0" x2="400.0" y2="240.0" stroke="white" stroke-width="1" opacity="0.4" stroke-linecap="butt"/>
<line x1="0.0" y1="280.0" x2="400.0" y2="280.0" stroke="white" stroke-width="1" opacity="0.4" stroke-linecap="butt"/>
<line x1="0.0" y1="320.0" x2="400.0" y2="320.0" stroke="white" stroke-width="1" opacity="0.4" stroke-linecap="butt"/>
<line x1="0.0" y1="360.0" x2="400.0" y2="360.0" stroke="white" stroke-width="1" opacity="0.4" stroke-linecap="butt"/>
<line x1="0.0" y1="200.0" x2="400.0" y2="200.0" stroke="yellow" stroke-width="2.5" opacity="1" stroke-linecap="butt"/>
<line x1="200.0" y1="0.0" x2="200.0" y2="400.0" stroke="yellow" stroke-width="2.5" opacity="1" stroke-linecap="butt"/>
<polygon points="391.0 204.0, 401.0 200.0, 391.0 196.0, 393.0 200.0" fill="yellow"/><polygon points="204.0 9.0, 200.0 -1.0, 196.0 9.0, 200.0 7.0" fill="yellow"/><image x="-60.0" y="-60.0" width="200" height="200" href="/Users/girirajhira/PycharmProjects/Giraphics3/Taylor/expr.png"/><polyline points="0.0, -433.33 0.17, -431.42 0.33, -429.51 0.5, -427.6 0.67, -425.69 0.83, -423.79 1.0, -421.9 1.17, -420.0 1.33, -418.11 1.5, -416.22 1.67, -414.34 1.83, -412.46 2.0, -410.58 2.17, -408.71 2.33, -406.84 2.5, -404.97 2.67, -403.11 2.83, -401.25 3.0, -399.39 3.17, -397.54 3.33, -395.69 3.5, -393.84 3.67, -392.0 3.83, -390.16 4.0, -388.33 4.17, -386.49 4.33, -384.67 4.5, -382.84 4.67, -381.02 4.83, -379.2 5.0, -377.38 5.17, -375.57 5.33, -373.76 5.5, -371.96 5.67, -370.15 5.83, -368.36 6.0, -366.56 6.17, -364.77 6.33, -362.98 6.5, -361.2 6.67, -359.41 6.83, -357.64 7.0, -355.86 7.17, -354.09 7.33, -352.32 7.5, -350.56 7.67, -348.79 7.83, -347.04 8.0, -345.28 8.17, -343.53 8.33, -341.78 8.5, -340.03 8.67, -338.29 8.83, -336.55 9.0, -334.82 9.17, -333.09 9.33, -331.36 9.5, -329.63 9.67, -327.91 9.83, -326.19 10.0, -324.48 10.17, -322.77 10.33, -321.06 10.5, -319.35 10.67, -317.65 10.83, -315.95 11.0, -314.26 11.17, -312.57 11.33, -310.88 11.5, -309.19 11.67, -307.51 11.83, -305.83 12.0, -304.15 12.17, -302.48 12.33, -300.81 12.5, -299.15 12.67, -297.48 12.83, -295.82 13.0, -294.17 13.17, -292.51 13.33, -290.86 13.5, -289.22 13.67, -287.57 13.83, -285.93 14.0, -284.3 14.17, -282.66 14.33, -281.03 14.5, -279.41 14.67, -277.78 14.83, -276.16 15.0, -274.54 15.17, -272.93 15.33, -271.32 15.5, -269.71 15.67, -268.11 15.83, -266.5 16.0, -264.91 16.17, -263.31 16.33, -261.72 16.5, -260.13 16.67, -258.55 16.83, -256.96 17.0, -255.38 17.17, -253.81 17.33, -252.24 17.5, -250.67 17.67, -249.1 17.83, -247.54 18.0, -245.98 18.17, -244.42 18.33, -242.87 18.5, -241.31 18.67, -239.77 18.83, -238.22 19.0, -236.68 19.17, -235.14 19.33, -233.61 19.5, -232.08 19.67, -230.55 19.83, -229.02 20.0, -227.5 20.17, -225.98 20.33, -224.46 20.5, -222.95 20.67, -221.44 20.83, -219.93 21.0, -218.43 21.17, -216.93 21.33, -215.43 21.5, -213.94 21.67, -212.45 21.83, -210.96 22.0, -209.47 22.17, -207.99 22.33, -206.51 22.5, -205.04 22.67, -203.56 22.83, -202.1 23.0, -200.63 23.17, -199.16 23.33, -197.7 23.5, -196.25 23.67, -194.79 23.83, -193.34 24.0, -191.89 24.17, -190.45 24.33, -189.01 24.5, -187.57 24.67, -186.13 24.83, -184.7 25.0, -183.27 25.17, -181.84 25.33, -180.42 25.5, -179.0 25.67, -177.58 25.83, -176.16 26.0, -174.75 26.17, -173.34 26.33, -171.94 26.5, -170.54 26.67, -169.14 26.83, -167.74 27.0, -166.35 27.17, -164.95 27.33, -163.57 27.5, -162.18 27.67, -160.8 27.83, -159.42 28.0, -158.05 28.17, -156.67 28.33, -155.3 28.5, -153.94 28.67, -152.57 28.83, -151.21 29.0, -149.86 29.17, -148.5 29.33, -147.15 29.5, -145.8 29.67, -144.45 29.83, -143.11 30.0, -141.77 30.17, -140.43 30.33, -139.1 30.5, -137.77 30.67, -136.44 30.83, -135.11 31.0, -133.79 31.17, -132.47 31.33, -131.16 31.5, -129.84 31.67, -128.53 31.83, -127.22 32.0, -125.92 32.17, -124.62 32.33, -123.32 32.5, -122.02 32.67, -120.73 32.83, -119.44 33.0, -118.15 33.17, -116.87 33.33, -115.59 33.5, -114.31 33.67, -113.03 33.83, -111.76 34.0, -110.49 34.17, -109.22 34.33, -107.96 34.5, -106.7 34.67, -105.44 34.83, -104.18 35.0, -102.93 35.17, -101.68 35.33, -100.43 35.5, -99.19 35.67, -97.95 35.83, -96.71 36.0, -95.47 36.17, -94.24 36.33, -93.01 36.5, -91.78 36.67, -90.56 36.83, -89.34 37.0, -88.12 37.17, -86.9 37.33, -85.69 37.5, -84.48 37.67, -83.27 37.83, -82.07 38.0, -80.87 38.17, -79.67 38.33, -78.47 38.5, -77.28 38.67, -76.09 38.83, -74.9 39.0, -73.72 39.17, -72.53 39.33, -71.36 39.5, -70.18 39.67, -69.01 39.83, -67.83 40.0, -66.67 40.17, -65.5 40.33, -64.34 40.5, -63.18 40.67, -62.02 40.83, -60.87 41.0, -59.72 41.17, -58.57 41.33, -57.42 41.5, -56.28 41.67, -55.14 41.83, -54.0 42.0, -52.87 42.17, -51.73 42.33, -50.6 42.5, -49.48 42.67, -48.35 42.83, -47.23 43.0, -46.11 43.17, -45.0 43.33, -43.89 43.5, -42.77 43.67, -41.67 43.83, -40.56 44.0, -39.46 44.17, -38.36 44.33, -37.26 44.5, -36.17 44.67, -35.08 44.83, -33.99 45.0, -32.9 45.17, -31.82 45.33, -30.74 45.5, -29.66 45.67, -28.59 45.83, -27.51 46.0, -26.44 46.17, -25.38 46.33, -24.31 46.5, -23.25 46.67, -22.19 46.83, -21.13 47.0, -20.08 47.17, -19.03 47.33, -17.98 47.5, -16.94 47.67, -15.89 47.83, -14.85 48.0, -13.81 48.17, -12.78 48.33, -11.75 48.5, -10.72 48.67, -9.69 48.83, -8.66 49.0, -7.64 49.17, -6.62 49.33, -5.6 49.5, -4.59 49.67, -3.58 49.83, -2.57 50.0, -1.56 50.17, -0.56 50.33, 0.44 50.5, 1.44 50.67, 2.44 50.83, 3.43 51.0, 4.42 51.17, 5.41 51.33, 6.4 51.5, 7.38 51.67, 8.36 51.83, 9.34 52.0, 10.31 52.17, 11.29 52.33, 12.26 52.5, 13.22 52.67, 14.19 52.83, 15.15 53.0, 16.11 53.17, 17.07 53.33, 18.02 53.5, 18.98 53.67, 19.93 53.83, 20.87 54.0, 21.82 54.17, 22.76 54.33, 23.7 54.5, 24.64 54.67, 25.57 54.83, 26.51 55.0, 27.43 55.17, 28.36 55.33, 29.29 55.5, 30.21 55.67, 31.13 55.83, 32.05 56.0, 32.96 56.17, 33.87 56.33, 34.78 56.5, 35.69 56.67, 36.59 56.83, 37.5 57.0, 38.4 57.17, 39.29 57.33, 40.19 57.5, 41.08 57.67, 41.97 57.83, 42.86 58.0, 43.74 58.17, 44.62 58.33, 45.5 58.5, 46.38 58.67, 47.26 58.83, 48.13 59.0, 49.0 59.17, 49.87 59.33, 50.73 59.5, 51.59 59.67, 52.45 59.83, 53.31 60.0, 54.17 60.17, 55.02 60.33, 55.87 60.5, 56.72 60.67, 57.56 60.83, 58.41 61.0, 59.25 61.17, 60.09 61.33, 60.92 61.5, 61.76 61.67, 62.59 61.83, 63.42 62.0, 64.24 62.17, 65.07 62.33, 65.89 62.5, 66.71 62.67, 67.52 62.83, 68.34 63.0, 69.15 63.17, 69.96 63.33, 70.77 63.5, 71.57 63.67, 72.38 63.83, 73.18 64.0, 73.97 64.17, 74.77 64.33, 75.56 64.5, 76.35 64.67, 77.14 64.83, 77.93 65.0, 78.71 65.17, 79.49 65.33, 80.27 65.5, 81.05 65.67, 81.82 65.83, 82.59 66.0, 83.36 66.17, 84.13 66.33, 84.9 66.5, 85.66 66.67, 86.42 66.83, 87.18 67.0, 87.93 67.17, 88.69 67.33, 89.44 67.5, 90.19 67.67, 90.93 67.83, 91.68 68.0, 92.42 68.17, 93.16 68.33, 93.9 68.5, 94.63 68.67, 95.37 68.83, 96.1 69.0, 96.82 69.17, 97.55 69.33, 98.27 69.5, 99.0 69.67, 99.71 69.83, 100.43 70.0, 101.15 70.17, 101.86 70.33, 102.57 70.5, 103.28 70.67, 103.98 70.83, 104.69 71.0, 105.39 71.17, 106.09 71.33, 106.78 71.5, 107.48 71.67, 108.17 71.83, 108.86 72.0, 109.55 72.17, 110.23 72.33, 110.92 72.5, 111.6 72.67, 112.28 72.83, 112.95 73.0, 113.63 73.17, 114.3 73.33, 114.97 73.5, 115.64 73.67, 116.3 73.83, 116.97 74.0, 117.63 74.17, 118.29 74.33, 118.94 74.5, 119.6 74.67, 120.25 74.83, 120.9 75.0, 121.55 75.17, 122.2 75.33, 122.84 75.5, 123.48 75.67, 124.12 75.83, 124.76 76.0, 125.39 76.17, 126.03 76.33, 126.66 76.5, 127.29 76.67, 127.91 76.83, 128.54 77.0, 129.16 77.17, 129.78 77.33, 130.4 77.5, 131.01 77.67, 131.63 77.83, 132.24 78.0, 132.85 78.17, 133.46 78.33, 134.06 78.5, 134.67 78.67, 135.27 78.83, 135.87 79.0, 136.46 79.17, 137.06 79.33, 137.65 79.5, 138.24 79.67, 138.83 79.83, 139.42 80.0, 140.0 80.17, 140.58 80.33, 141.16 80.5, 141.74 80.67, 142.32 80.83, 142.89 81.0, 143.46 81.17, 144.03 81.33, 144.6 81.5, 145.17 81.67, 145.73 81.83, 146.29 82.0, 146.85 82.17, 147.41 82.33, 147.96 82.5, 148.52 82.67, 149.07 82.83, 149.62 83.0, 150.17 83.17, 150.71 83.33, 151.25 83.5, 151.8 83.67, 152.33 83.83, 152.87 84.0, 153.41 84.17, 153.94 84.33, 154.47 84.5, 155.0 84.67, 155.53 84.83, 156.05 85.0, 156.58 85.17, 157.1 85.33, 157.62 85.5, 158.13 85.67, 158.65 85.83, 159.16 86.0, 159.67 86.17, 160.18 86.33, 160.69 86.5, 161.19 86.67, 161.7 86.83, 162.2 87.0, 162.7 87.17, 163.2 87.33, 163.69 87.5, 164.18 87.67, 164.68 87.83, 165.17 88.0, 165.65 88.17, 166.14 88.33, 166.62 88.5, 167.1 88.67, 167.58 88.83, 168.06 89.0, 168.54 89.17, 169.01 89.33, 169.48 89.5, 169.95 89.67, 170.42 89.83, 170.89 90.0, 171.35 90.17, 171.82 90.33, 172.28 90.5, 172.74 90.67, 173.19 90.83, 173.65 91.0, 174.1 91.17, 174.55 91.33, 175.0 91.5, 175.45 91.67, 175.89 91.83, 176.34 92.0, 176.78 92.17, 177.22 92.33, 177.66 92.5, 178.09 92.67, 178.53 92.83, 178.96 93.0, 179.39 93.17, 179.82 93.33, 180.25 93.5, 180.67 93.67, 181.1 93.83, 181.52 94.0, 181.94 94.17, 182.35 94.33, 182.77 94.5, 183.18 94.67, 183.6 94.83, 184.01 95.0, 184.41 95.17, 184.82 95.33, 185.23 95.5, 185.63 95.67, 186.03 95.83, 186.43 96.0, 186.83 96.17, 187.22 96.33, 187.62 96.5, 188.01 96.67, 188.4 96.83, 188.79 97.0, 189.17 97.17, 189.56 97.33, 189.94 97.5, 190.32 97.67, 190.7 97.83, 191.08 98.0, 191.46 98.17, 191.83 98.33, 192.2 98.5, 192.58 98.67, 192.94 98.83, 193.31 99.0, 193.68 99.17, 194.04 99.33, 194.4 99.5, 194.76 99.67, 195.12 99.83, 195.48 100.0, 195.83 100.17, 196.19 100.33, 196.54 100.5, 196.89 100.67, 197.24 100.83, 197.58 101.0, 197.93 101.17, 198.27 101.33, 198.61 101.5, 198.95 101.67, 199.29 101.83, 199.62 102.0, 199.96 102.17, 200.29 102.33, 200.62 102.5, 200.95 102.67, 201.28 102.83, 201.61 103.0, 201.93 103.17, 202.25 103.33, 202.57 103.5, 202.89 103.67, 203.21 103.83, 203.53 104.0, 203.84 104.17, 204.15 104.33, 204.46 104.5, 204.77 104.67, 205.08 104.83, 205.39 105.0, 205.69 105.17, 205.99 105.33, 206.29 105.5, 206.59 105.67, 206.89 105.83, 207.19 106.0, 207.48 106.17, 207.77 106.33, 208.06 106.5, 208.35 106.67, 208.64 106.83, 208.93 107.0, 209.21 107.17, 209.5 107.33, 209.78 107.5, 210.06 107.67, 210.34 107.83, 210.61 108.0, 210.89 108.17, 211.16 108.33, 211.43 108.5, 211.7 108.67, 211.97 108.83, 212.24 109.0, 212.5 109.17, 212.77 109.33, 213.03 109.5, 213.29 109.67, 213.55 109.83, 213.81 110.0, 214.06 110.17, 214.32 110.33, 214.57 110.5, 214.82 110.67, 215.07 110.83, 215.32 111.0, 215.57 111.17, 215.81 111.33, 216.05 111.5, 216.3 111.67, 216.54 111.83, 216.78 112.0, 217.01 112.17, 217.25 112.33, 217.48 112.5, 217.72 112.67, 217.95 112.83, 218.18 113.0, 218.41 113.17, 218.63 113.33, 218.86 113.5, 219.08 113.67, 219.3 113.83, 219.52 114.0, 219.74 114.17, 219.96 114.33, 220.18 114.5, 220.39 114.67, 220.61 114.83, 220.82 115.0, 221.03 115.17, 221.24 115.33, 221.44 115.5, 221.65 115.67, 221.86 115.83, 222.06 116.0, 222.26 116.17, 222.46 116.33, 222.66 116.5, 222.86 116.67, 223.05 116.83, 223.25 117.0, 223.44 117.17, 223.63 117.33, 223.82 117.5, 224.01 117.67, 224.2 117.83, 224.38 118.0, 224.57 118.17, 224.75 118.33, 224.93 118.5, 225.11 118.67, 225.29 118.83, 225.47 119.0, 225.64 119.17, 225.82 119.33, 225.99 119.5, 226.16 119.67, 226.33 119.83, 226.5 120.0, 226.67 120.17, 226.83 120.33, 227.0 120.5, 227.16 120.67, 227.32 120.83, 227.48 121.0, 227.64 121.17, 227.8 121.33, 227.96 121.5, 228.11 121.67, 228.26 121.83, 228.42 122.0, 228.57 122.17, 228.72 122.33, 228.87 122.5, 229.01 122.67, 229.16 122.83, 229.3 123.0, 229.44 123.17, 229.59 123.33, 229.73 123.5, 229.86 123.67, 230.0 123.83, 230.14 124.0, 230.27 124.17, 230.41 124.33, 230.54 124.5, 230.67 124.67, 230.8 124.83, 230.93 125.0, 231.05 125.17, 231.18 125.33, 231.3 125.5, 231.43 125.67, 231.55 125.83, 231.67 126.0, 231.79 126.17, 231.91 126.33, 232.02 126.5, 232.14 126.67, 232.25 126.83, 232.37 127.0, 232.48 127.17, 232.59 127.33, 232.7 127.5, 232.8 127.67, 232.91 127.83, 233.02 128.0, 233.12 128.17, 233.22 128.33, 233.32 128.5, 233.42 128.67, 233.52 128.83, 233.62 129.0, 233.72 129.17, 233.81 129.33, 233.91 129.5, 234.0 129.67, 234.09 129.83, 234.18 130.0, 234.27 130.17, 234.36 130.33, 234.45 130.5, 234.53 130.67, 234.62 130.83, 234.7 131.0, 234.78 131.17, 234.86 131.33, 234.94 131.5, 235.02 131.67, 235.1 131.83, 235.17 132.0, 235.25 132.17, 235.32 132.33, 235.39 132.5, 235.46 132.67, 235.53 132.83, 235.6 133.0, 235.67 133.17, 235.74 133.33, 235.8 133.5, 235.87 133.67, 235.93 133.83, 235.99 134.0, 236.05 134.17, 236.11 134.33, 236.17 134.5, 236.23 134.67, 236.28 134.83, 236.34 135.0, 236.39 135.17, 236.45 135.33, 236.5 135.5, 236.55 135.67, 236.6 135.83, 236.65 136.0, 236.69 136.17, 236.74 136.33, 236.78 136.5, 236.83 136.67, 236.87 136.83, 236.91 137.0, 236.95 137.17, 236.99 137.33, 237.03 137.5, 237.07 137.67, 237.1 137.83, 237.14 138.0, 237.17 138.17, 237.21 138.33, 237.24 138.5, 237.27 138.67, 237.3 138.83, 237.33 139.0, 237.36 139.17, 237.38 139.33, 237.41 139.5, 237.43 139.67, 237.46 139.83, 237.48 140.0, 237.5 140.17, 237.52 140.33, 237.54 140.5, 237.56 140.67, 237.58 140.83, 237.59 141.0, 237.61 141.17, 237.62 141.33, 237.63 141.5, 237.65 141.67, 237.66 141.83, 237.67 142.0, 237.68 142.17, 237.68 142.33, 237.69 142.5, 237.7 142.67, 237.7 142.83, 237.71 143.0, 237.71 143.17, 237.71 143.33, 237.71 143.5, 237.71 143.67, 237.71 143.83, 237.71 144.0, 237.71 144.17, 237.7 144.33, 237.7 144.5, 237.69 144.67, 237.69 144.83, 237.68 145.0, 237.67 145.17, 237.66 145.33, 237.65 145.5, 237.64 145.67, 237.63 145.83, 237.61 146.0, 237.6 146.17, 237.58 146.33, 237.57 146.5, 237.55 146.67, 237.53 146.83, 237.51 147.0, 237.49 147.17, 237.47 147.33, 237.45 147.5, 237.43 147.67, 237.4 147.83, 237.38 148.0, 237.35 148.17, 237.33 148.33, 237.3 148.5, 237.27 148.67, 237.24 148.83, 237.21 149.0, 237.18 149.17, 237.15 149.33, 237.12 149.5, 237.08 149.67, 237.05 149.83, 237.02 150.0, 236.98 150.17, 236.94 150.33, 236.9 150.5, 236.87 150.67, 236.83 150.83, 236.79 151.0, 236.74 151.17, 236.7 151.33, 236.66 151.5, 236.62 151.67, 236.57 151.83, 236.53 152.0, 236.48 152.17, 236.43 152.33, 236.39 152.5, 236.34 152.67, 236.29 152.83, 236.24 153.0, 236.19 153.17, 236.13 153.33, 236.08 153.5, 236.03 153.67, 235.97 153.83, 235.92 154.0, 235.86 154.17, 235.8 154.33, 235.75 154.5, 235.69 154.67, 235.63 154.83, 235.57 155.0, 235.51 155.17, 235.45 155.33, 235.38 155.5, 235.32 155.67, 235.26 155.83, 235.19 156.0, 235.13 156.17, 235.06 156.33, 234.99 156.5, 234.93 156.67, 234.86 156.83, 234.79 157.0, 234.72 157.17, 234.65 157.33, 234.58 157.5, 234.5 157.67, 234.43 157.83, 234.36 158.0, 234.28 158.17, 234.21 158.33, 234.13 158.5, 234.05 158.67, 233.98 158.83, 233.9 159.0, 233.82 159.17, 233.74 159.33, 233.66 159.5, 233.58 159.67, 233.5 159.83, 233.42 160.0, 233.33 160.17, 233.25 160.33, 233.17 160.5, 233.08 160.67, 232.99 160.83, 232.91 161.0, 232.82 161.17, 232.73 161.33, 232.64 161.5, 232.56 161.67, 232.47 161.83, 232.38 162.0, 232.28 162.17, 232.19 162.33, 232.1 162.5, 232.01 162.67, 231.91 162.83, 231.82 163.0, 231.72 163.17, 231.63 163.33, 231.53 163.5, 231.43 163.67, 231.34 163.83, 231.24 164.0, 231.14 164.17, 231.04 164.33, 230.94 164.5, 230.84 164.67, 230.74 164.83, 230.64 165.0, 230.53 165.17, 230.43 165.33, 230.33 165.5, 230.22 165.67, 230.12 165.83, 230.01 166.0, 229.91 166.17, 229.8 166.33, 229.69 166.5, 229.58 166.67, 229.48 166.83, 229.37 167.0, 229.26 167.17, 229.15 167.33, 229.04 167.5, 228.92 167.67, 228.81 167.83, 228.7 168.0, 228.59 168.17, 228.47 168.33, 228.36 168.5, 228.24 168.67, 228.13 168.83, 228.01 169.0, 227.9 169.17, 227.78 169.33, 227.66 169.5, 227.54 169.67, 227.43 169.83, 227.31 170.0, 227.19 170.17, 227.07 170.33, 226.95 170.5, 226.83 170.67, 226.7 170.83, 226.58 171.0, 226.46 171.17, 226.34 171.33, 226.21 171.5, 226.09 171.67, 225.96 171.83, 225.84 172.0, 225.71 172.17, 225.59 172.33, 225.46 172.5, 225.33 172.67, 225.21 172.83, 225.08 173.0, 224.95 173.17, 224.82 173.33, 224.69 173.5, 224.56 173.67, 224.43 173.83, 224.3 174.0, 224.17 174.17, 224.04 174.33, 223.91 174.5, 223.77 174.67, 223.64 174.83, 223.51 175.0, 223.37 175.17, 223.24 175.33, 223.1 175.5, 222.97 175.67, 222.83 175.83, 222.7 176.0, 222.56 176.17, 222.42 176.33, 222.29 176.5, 222.15 176.67, 222.01 176.83, 221.87 177.0, 221.73 177.17, 221.59 177.33, 221.45 177.5, 221.31 177.67, 221.17 177.83, 221.03 178.0, 220.89 178.17, 220.75 178.33, 220.61 178.5, 220.46 178.67, 220.32 178.83, 220.18 179.0, 220.04 179.17, 219.89 179.33, 219.75 179.5, 219.6 179.67, 219.46 179.83, 219.31 180.0, 219.17 180.17, 219.02 180.33, 218.87 180.5, 218.73 180.67, 218.58 180.83, 218.43 181.0, 218.29 181.17, 218.14 181.33, 217.99 181.5, 217.84 181.67, 217.69 181.83, 217.54 182.0, 217.39 182.17, 217.24 182.33, 217.09 182.5, 216.94 182.67, 216.79 182.83, 216.64 183.0, 216.49 183.17, 216.34 183.33, 216.18 183.5, 216.03 183.67, 215.88 183.83, 215.73 184.0, 215.57 184.17, 215.42 184.33, 215.27 184.5, 215.11 184.67, 214.96 184.83, 214.8 185.0, 214.65 185.17, 214.49 185.33, 214.34 185.5, 214.18 185.67, 214.03 185.83, 213.87 186.0, 213.71 186.17, 213.56 186.33, 213.4 186.5, 213.24 186.67, 213.09 186.83, 212.93 187.0, 212.77 187.17, 212.61 187.33, 212.45 187.5, 212.3 187.67, 212.14 187.83, 211.98 188.0, 211.82 188.17, 211.66 188.33, 211.5 188.5, 211.34 188.67, 211.18 188.83, 211.02 189.0, 210.86 189.17, 210.7 189.33, 210.54 189.5, 210.38 189.67, 210.22 189.83, 210.06 190.0, 209.9 190.17, 209.73 190.33, 209.57 190.5, 209.41 190.67, 209.25 190.83, 209.09 191.0, 208.92 191.17, 208.76 191.33, 208.6 191.5, 208.44 191.67, 208.27 191.83, 208.11 192.0, 207.95 192.17, 207.78 192.33, 207.62 192.5, 207.46 192.67, 207.29 192.83, 207.13 193.0, 206.96 193.17, 206.8 193.33, 206.64 193.5, 206.47 193.67, 206.31 193.83, 206.14 194.0, 205.98 194.17, 205.81 194.33, 205.65 194.5, 205.48 194.67, 205.32 194.83, 205.15 195.0, 204.99 195.17, 204.82 195.33, 204.66 195.5, 204.49 195.67, 204.32 195.83, 204.16 196.0, 203.99 196.17, 203.83 196.33, 203.66 196.5, 203.5 196.67, 203.33 196.83, 203.16 197.0, 203.0 197.17, 202.83 197.33, 202.66 197.5, 202.5 197.67, 202.33 197.83, 202.17 198.0, 202.0 198.17, 201.83 198.33, 201.67 198.5, 201.5 198.67, 201.33 198.83, 201.17 199.0, 201.0 199.17, 200.83 199.33, 200.67 199.5, 200.5 199.67, 200.33 199.83, 200.17 200.0, 200.0 200.17, 199.83 200.33, 199.67 200.5, 199.5 200.67, 199.33 200.83, 199.17 201.0, 199.0 201.17, 198.83 201.33, 198.67 201.5, 198.5 201.67, 198.33 201.83, 198.17 202.0, 198.0 202.17, 197.83 202.33, 197.67 202.5, 197.5 202.67, 197.34 202.83, 197.17 203.0, 197.0 203.17, 196.84 203.33, 196.67 203.5, 196.5 203.67, 196.34 203.83, 196.17 204.0, 196.01 204.17, 195.84 204.33, 195.68 204.5, 195.51 204.67, 195.34 204.83, 195.18 205.0, 195.01 205.17, 194.85 205.33, 194.68 205.5, 194.52 205.67, 194.35 205.83, 194.19 206.0, 194.02 206.17, 193.86 206.33, 193.69 206.5, 193.53 206.67, 193.36 206.83, 193.2 207.0, 193.04 207.17, 192.87 207.33, 192.71 207.5, 192.54 207.67, 192.38 207.83, 192.22 208.0, 192.05 208.17, 191.89 208.33, 191.73 208.5, 191.56 208.67, 191.4 208.83, 191.24 209.0, 191.08 209.17, 190.91 209.33, 190.75 209.5, 190.59 209.67, 190.43 209.83, 190.27 210.0, 190.1 210.17, 189.94 210.33, 189.78 210.5, 189.62 210.67, 189.46 210.83, 189.3 211.0, 189.14 211.17, 188.98 211.33, 188.82 211.5, 188.66 211.67, 188.5 211.83, 188.34 212.0, 188.18 212.17, 188.02 212.33, 187.86 212.5, 187.7 212.67, 187.55 212.83, 187.39 213.0, 187.23 213.17, 187.07 213.33, 186.91 213.5, 186.76 213.67, 186.6 213.83, 186.44 214.0, 186.29 214.17, 186.13 214.33, 185.97 214.5, 185.82 214.67, 185.66 214.83, 185.51 215.0, 185.35 215.17, 185.2 215.33, 185.04 215.5, 184.89 215.67, 184.73 215.83, 184.58 216.0, 184.43 216.17, 184.27 216.33, 184.12 216.5, 183.97 216.67, 183.82 216.83, 183.66 217.0, 183.51 217.17, 183.36 217.33, 183.21 217.5, 183.06 217.67, 182.91 217.83, 182.76 218.0, 182.61 218.17, 182.46 218.33, 182.31 218.5, 182.16 218.67, 182.01 218.83, 181.86 219.0, 181.71 219.17, 181.57 219.33, 181.42 219.5, 181.27 219.67, 181.13 219.83, 180.98 220.0, 180.83 220.17, 180.69 220.33, 180.54 220.5, 180.4 220.67, 180.25 220.83, 180.11 221.0, 179.96 221.17, 179.82 221.33, 179.68 221.5, 179.54 221.67, 179.39 221.83, 179.25 222.0, 179.11 222.17, 178.97 222.33, 178.83 222.5, 178.69 222.67, 178.55 222.83, 178.41 223.0, 178.27 223.17, 178.13 223.33, 177.99 223.5, 177.85 223.67, 177.71 223.83, 177.58 224.0, 177.44 224.17, 177.3 224.33, 177.17 224.5, 177.03 224.67, 176.9 224.83, 176.76 225.0, 176.63 225.17, 176.49 225.33, 176.36 225.5, 176.23 225.67, 176.09 225.83, 175.96 226.0, 175.83 226.17, 175.7 226.33, 175.57 226.5, 175.44 226.67, 175.31 226.83, 175.18 227.0, 175.05 227.17, 174.92 227.33, 174.79 227.5, 174.67 227.67, 174.54 227.83, 174.41 228.0, 174.29 228.17, 174.16 228.33, 174.04 228.5, 173.91 228.67, 173.79 228.83, 173.66 229.0, 173.54 229.17, 173.42 229.33, 173.3 229.5, 173.17 229.67, 173.05 229.83, 172.93 230.0, 172.81 230.17, 172.69 230.33, 172.57 230.5, 172.46 230.67, 172.34 230.83, 172.22 231.0, 172.1 231.17, 171.99 231.33, 171.87 231.5, 171.76 231.67, 171.64 231.83, 171.53 232.0, 171.41 232.17, 171.3 232.33, 171.19 232.5, 171.08 232.67, 170.96 232.83, 170.85 233.0, 170.74 233.17, 170.63 233.33, 170.52 233.5, 170.42 233.67, 170.31 233.83, 170.2 234.0, 170.09 234.17, 169.99 234.33, 169.88 234.5, 169.78 234.67, 169.67 234.83, 169.57 235.0, 169.47 235.17, 169.36 235.33, 169.26 235.5, 169.16 235.67, 169.06 235.83, 168.96 236.0, 168.86 236.17, 168.76 236.33, 168.66 236.5, 168.57 236.67, 168.47 236.83, 168.37 237.0, 168.28 237.17, 168.18 237.33, 168.09 237.5, 167.99 237.67, 167.9 237.83, 167.81 238.0, 167.72 238.17, 167.62 238.33, 167.53 238.5, 167.44 238.67, 167.36 238.83, 167.27 239.0, 167.18 239.17, 167.09 239.33, 167.01 239.5, 166.92 239.67, 166.83 239.83, 166.75 240.0, 166.67 240.17, 166.58 240.33, 166.5 240.5, 166.42 240.67, 166.34 240.83, 166.26 241.0, 166.18 241.17, 166.1 241.33, 166.02 241.5, 165.95 241.67, 165.87 241.83, 165.79 242.0, 165.72 242.17, 165.64 242.33, 165.57 242.5, 165.5 242.67, 165.42 242.83, 165.35 243.0, 165.28 243.17, 165.21 243.33, 165.14 243.5, 165.07 243.67, 165.01 243.83, 164.94 244.0, 164.87 244.17, 164.81 244.33, 164.74 244.5, 164.68 244.67, 164.62 244.83, 164.55 245.0, 164.49 245.17, 164.43 245.33, 164.37 245.5, 164.31 245.67, 164.25 245.83, 164.2 246.0, 164.14 246.17, 164.08 246.33, 164.03 246.5, 163.97 246.67, 163.92 246.83, 163.87 247.0, 163.81 247.17, 163.76 247.33, 163.71 247.5, 163.66 247.67, 163.61 247.83, 163.57 248.0, 163.52 248.17, 163.47 248.33, 163.43 248.5, 163.38 248.67, 163.34 248.83, 163.3 249.0, 163.26 249.17, 163.21 249.33, 163.17 249.5, 163.13 249.67, 163.1 249.83, 163.06 250.0, 163.02 250.17, 162.98 250.33, 162.95 250.5, 162.92 250.67, 162.88 250.83, 162.85 251.0, 162.82 251.17, 162.79 251.33, 162.76 251.5, 162.73 251.67, 162.7 251.83, 162.67 252.0, 162.65 252.17, 162.62 252.33, 162.6 252.5, 162.57 252.67, 162.55 252.83, 162.53 253.0, 162.51 253.17, 162.49 253.33, 162.47 253.5, 162.45 253.67, 162.43 253.83, 162.42 254.0, 162.4 254.17, 162.39 254.33, 162.37 254.5, 162.36 254.67, 162.35 254.83, 162.34 255.0, 162.33 255.17, 162.32 255.33, 162.31 255.5, 162.31 255.67, 162.3 255.83, 162.3 256.0, 162.29 256.17, 162.29 256.33, 162.29 256.5, 162.29 256.67, 162.29 256.83, 162.29 257.0, 162.29 257.17, 162.29 257.33, 162.3 257.5, 162.3 257.67, 162.31 257.83, 162.32 258.0, 162.32 258.17, 162.33 258.33, 162.34 258.5, 162.35 258.67, 162.37 258.83, 162.38 259.0, 162.39 259.17, 162.41 259.33, 162.42 259.5, 162.44 259.67, 162.46 259.83, 162.48 260.0, 162.5 260.17, 162.52 260.33, 162.54 260.5, 162.57 260.67, 162.59 260.83, 162.62 261.0, 162.64 261.17, 162.67 261.33, 162.7 261.5, 162.73 261.67, 162.76 261.83, 162.79 262.0, 162.83 262.17, 162.86 262.33, 162.9 262.5, 162.93 262.67, 162.97 262.83, 163.01 263.0, 163.05 263.17, 163.09 263.33, 163.13 263.5, 163.17 263.67, 163.22 263.83, 163.26 264.0, 163.31 264.17, 163.35 264.33, 163.4 264.5, 163.45 264.67, 163.5 264.83, 163.55 265.0, 163.61 265.17, 163.66 265.33, 163.72 265.5, 163.77 265.67, 163.83 265.83, 163.89 266.0, 163.95 266.17, 164.01 266.33, 164.07 266.5, 164.13 266.67, 164.2 266.83, 164.26 267.0, 164.33 267.17, 164.4 267.33, 164.47 267.5, 164.54 267.67, 164.61 267.83, 164.68 268.0, 164.75 268.17, 164.83 268.33, 164.9 268.5, 164.98 268.67, 165.06 268.83, 165.14 269.0, 165.22 269.17, 165.3 269.33, 165.38 269.5, 165.47 269.67, 165.55 269.83, 165.64 270.0, 165.73 270.17, 165.82 270.33, 165.91 270.5, 166.0 270.67, 166.09 270.83, 166.19 271.0, 166.28 271.17, 166.38 271.33, 166.48 271.5, 166.58 271.67, 166.68 271.83, 166.78 272.0, 166.88 272.17, 166.98 272.33, 167.09 272.5, 167.2 272.67, 167.3 272.83, 167.41 273.0, 167.52 273.17, 167.63 273.33, 167.75 273.5, 167.86 273.67, 167.98 273.83, 168.09 274.0, 168.21 274.17, 168.33 274.33, 168.45 274.5, 168.57 274.67, 168.7 274.83, 168.82 275.0, 168.95 275.17, 169.07 275.33, 169.2 275.5, 169.33 275.67, 169.46 275.83, 169.59 276.0, 169.73 276.17, 169.86 276.33, 170.0 276.5, 170.14 276.67, 170.27 276.83, 170.41 277.0, 170.56 277.17, 170.7 277.33, 170.84 277.5, 170.99 277.67, 171.13 277.83, 171.28 278.0, 171.43 278.17, 171.58 278.33, 171.74 278.5, 171.89 278.67, 172.04 278.83, 172.2 279.0, 172.36 279.17, 172.52 279.33, 172.68 279.5, 172.84 279.67, 173.0 279.83, 173.17 280.0, 173.33 280.17, 173.5 280.33, 173.67 280.5, 173.84 280.67, 174.01 280.83, 174.18 281.0, 174.36 281.17, 174.53 281.33, 174.71 281.5, 174.89 281.67, 175.07 281.83, 175.25 282.0, 175.43 282.17, 175.62 282.33, 175.8 282.5, 175.99 282.67, 176.18 282.83, 176.37 283.0, 176.56 283.17, 176.75 283.33, 176.95 283.5, 177.14 283.67, 177.34 283.83, 177.54 284.0, 177.74 284.17, 177.94 284.33, 178.14 284.5, 178.35 284.67, 178.56 284.83, 178.76 285.0, 178.97 285.17, 179.18 285.33, 179.39 285.5, 179.61 285.67, 179.82 285.83, 180.04 286.0, 180.26 286.17, 180.48 286.33, 180.7 286.5, 180.92 286.67, 181.14 286.83, 181.37 287.0, 181.59 287.17, 181.82 287.33, 182.05 287.5, 182.28 287.67, 182.52 287.83, 182.75 288.0, 182.99 288.17, 183.22 288.33, 183.46 288.5, 183.7 288.67, 183.95 288.83, 184.19 289.0, 184.43 289.17, 184.68 289.33, 184.93 289.5, 185.18 289.67, 185.43 289.83, 185.68 290.0, 185.94 290.17, 186.19 290.33, 186.45 290.5, 186.71 290.67, 186.97 290.83, 187.23 291.0, 187.5 291.17, 187.76 291.33, 188.03 291.5, 188.3 291.67, 188.57 291.83, 188.84 292.0, 189.11 292.17, 189.39 292.33, 189.66 292.5, 189.94 292.67, 190.22 292.83, 190.5 293.0, 190.79 293.17, 191.07 293.33, 191.36 293.5, 191.65 293.67, 191.94 293.83, 192.23 294.0, 192.52 294.17, 192.81 294.33, 193.11 294.5, 193.41 294.67, 193.71 294.83, 194.01 295.0, 194.31 295.17, 194.61 295.33, 194.92 295.5, 195.23 295.67, 195.54 295.83, 195.85 296.0, 196.16 296.17, 196.47 296.33, 196.79 296.5, 197.11 296.67, 197.43 296.83, 197.75 297.0, 198.07 297.17, 198.39 297.33, 198.72 297.5, 199.05 297.67, 199.38 297.83, 199.71 298.0, 200.04 298.17, 200.38 298.33, 200.71 298.5, 201.05 298.67, 201.39 298.83, 201.73 299.0, 202.07 299.17, 202.42 299.33, 202.76 299.5, 203.11 299.67, 203.46 299.83, 203.81 300.0, 204.17 300.17, 204.52 300.33, 204.88 300.5, 205.24 300.67, 205.6 300.83, 205.96 301.0, 206.32 301.17, 206.69 301.33, 207.06 301.5, 207.42 301.67, 207.8 301.83, 208.17 302.0, 208.54 302.17, 208.92 302.33, 209.3 302.5, 209.68 302.67, 210.06 302.83, 210.44 303.0, 210.83 303.17, 211.21 303.33, 211.6 303.5, 211.99 303.67, 212.38 303.83, 212.78 304.0, 213.17 304.17, 213.57 304.33, 213.97 304.5, 214.37 304.67, 214.77 304.83, 215.18 305.0, 215.59 305.17, 215.99 305.33, 216.4 305.5, 216.82 305.67, 217.23 305.83, 217.65 306.0, 218.06 306.17, 218.48 306.33, 218.9 306.5, 219.33 306.67, 219.75 306.83, 220.18 307.0, 220.61 307.17, 221.04 307.33, 221.47 307.5, 221.91 307.67, 222.34 307.83, 222.78 308.0, 223.22 308.17, 223.66 308.33, 224.11 308.5, 224.55 308.67, 225.0 308.83, 225.45 309.0, 225.9 309.17, 226.35 309.33, 226.81 309.5, 227.26 309.67, 227.72 309.83, 228.18 310.0, 228.65 310.17, 229.11 310.33, 229.58 310.5, 230.05 310.67, 230.52 310.83, 230.99 311.0, 231.46 311.17, 231.94 311.33, 232.42 311.5, 232.9 311.67, 233.38 311.83, 233.86 312.0, 234.35 312.17, 234.83 312.33, 235.32 312.5, 235.82 312.67, 236.31 312.83, 236.8 313.0, 237.3 313.17, 237.8 313.33, 238.3 313.5, 238.81 313.67, 239.31 313.83, 239.82 314.0, 240.33 314.17, 240.84 314.33, 241.35 314.5, 241.87 314.67, 242.38 314.83, 242.9 315.0, 243.42 315.17, 243.95 315.33, 244.47 315.5, 245.0 315.67, 245.53 315.83, 246.06 316.0, 246.59 316.17, 247.13 316.33, 247.67 316.5, 248.2 316.67, 248.75 316.83, 249.29 317.0, 249.83 317.17, 250.38 317.33, 250.93 317.5, 251.48 317.67, 252.04 317.83, 252.59 318.0, 253.15 318.17, 253.71 318.33, 254.27 318.5, 254.83 318.67, 255.4 318.83, 255.97 319.0, 256.54 319.17, 257.11 319.33, 257.68 319.5, 258.26 319.67, 258.84 319.83, 259.42 320.0, 260.0 320.17, 260.58 320.33, 261.17 320.5, 261.76 320.67, 262.35 320.83, 262.94 321.0, 263.54 321.17, 264.13 321.33, 264.73 321.5, 265.33 321.67, 265.94 321.83, 266.54 322.0, 267.15 322.17, 267.76 322.33, 268.37 322.5, 268.99 322.67, 269.6 322.83, 270.22 323.0, 270.84 323.17, 271.46 323.33, 272.09 323.5, 272.71 323.67, 273.34 323.83, 273.97 324.0, 274.61 324.17, 275.24 324.33, 275.88 324.5, 276.52 324.67, 277.16 324.83, 277.8 325.0, 278.45 325.17, 279.1 325.33, 279.75 325.5, 280.4 325.67, 281.06 325.83, 281.71 326.0, 282.37 326.17, 283.03 326.33, 283.7 326.5, 284.36 326.67, 285.03 326.83, 285.7 327.0, 286.37 327.17, 287.05 327.33, 287.72 327.5, 288.4 327.67, 289.08 327.83, 289.77 328.0, 290.45 328.17, 291.14 328.33, 291.83 328.5, 292.52 328.67, 293.22 328.83, 293.91 329.0, 294.61 329.17, 295.31 329.33, 296.02 329.5, 296.72 329.67, 297.43 329.83, 298.14 330.0, 298.85 330.17, 299.57 330.33, 300.29 330.5, 301.0 330.67, 301.73 330.83, 302.45 331.0, 303.18 331.17, 303.9 331.33, 304.63 331.5, 305.37 331.67, 306.1 331.83, 306.84 332.0, 307.58 332.17, 308.32 332.33, 309.07 332.5, 309.81 332.67, 310.56 332.83, 311.31 333.0, 312.07 333.17, 312.82 333.33, 313.58 333.5, 314.34 333.67, 315.1 333.83, 315.87 334.0, 316.64 334.17, 317.41 334.33, 318.18 334.5, 318.95 334.67, 319.73 334.83, 320.51 335.0, 321.29 335.17, 322.07 335.33, 322.86 335.5, 323.65 335.67, 324.44 335.83, 325.23 336.0, 326.03 336.17, 326.82 336.33, 327.62 336.5, 328.43 336.67, 329.23 336.83, 330.04 337.0, 330.85 337.17, 331.66 337.33, 332.48 337.5, 333.29 337.67, 334.11 337.83, 334.93 338.0, 335.76 338.17, 336.58 338.33, 337.41 338.5, 338.24 338.67, 339.08 338.83, 339.91 339.0, 340.75 339.17, 341.59 339.33, 342.44 339.5, 343.28 339.67, 344.13 339.83, 344.98 340.0, 345.83 340.17, 346.69 340.33, 347.55 340.5, 348.41 340.67, 349.27 340.83, 350.13 341.0, 351.0 341.17, 351.87 341.33, 352.74 341.5, 353.62 341.67, 354.5 341.83, 355.38 342.0, 356.26 342.17, 357.14 342.33, 358.03 342.5, 358.92 342.67, 359.81 342.83, 360.71 343.0, 361.6 343.17, 362.5 343.33, 363.41 343.5, 364.31 343.67, 365.22 343.83, 366.13 344.0, 367.04 344.17, 367.95 344.33, 368.87 344.5, 369.79 344.67, 370.71 344.83, 371.64 345.0, 372.57 345.17, 373.49 345.33, 374.43 345.5, 375.36 345.67, 376.3 345.83, 377.24 346.0, 378.18 346.17, 379.13 346.33, 380.07 346.5, 381.02 346.67, 381.98 346.83, 382.93 347.0, 383.89 347.17, 384.85 347.33, 385.81 347.5, 386.78 347.67, 387.74 347.83, 388.71 348.0, 389.69 348.17, 390.66 348.33, 391.64 348.5, 392.62 348.67, 393.6 348.83, 394.59 349.0, 395.58 349.17, 396.57 349.33, 397.56 349.5, 398.56 349.67, 399.56 349.83, 400.56 350.0, 401.56 350.17, 402.57 350.33, 403.58 350.5, 404.59 350.67, 405.6 350.83, 406.62 351.0, 407.64 351.17, 408.66 351.33, 409.69 351.5, 410.72 351.67, 411.75 351.83, 412.78 352.0, 413.81 352.17, 414.85 352.33, 415.89 352.5, 416.94 352.67, 417.98 352.83, 419.03 353.0, 420.08 353.17, 421.13 353.33, 422.19 353.5, 423.25 353.67, 424.31 353.83, 425.38 354.0, 426.44 354.17, 427.51 354.33, 428.59 354.5, 429.66 354.67, 430.74 354.83, 431.82 355.0, 432.9 355.17, 433.99 355.33, 435.08 355.5, 436.17 355.67, 437.26 355.83, 438.36 356.0, 439.46 356.17, 440.56 356.33, 441.67 356.5, 442.77 356.67, 443.89 356.83, 445.0 357.0, 446.11 357.17, 447.23 357.33, 448.35 357.5, 449.48 357.67, 450.6 357.83, 451.73 358.0, 452.87 358.17, 454.0 358.33, 455.14 358.5, 456.28 358.67, 457.42 358.83, 458.57 359.0, 459.72 359.17, 460.87 359.33, 462.02 359.5, 463.18 359.67, 464.34 359.83, 465.5 360.0, 466.67 360.17, 467.83 360.33, 469.01 360.5, 470.18 360.67, 471.36 360.83, 472.53 361.0, 473.72 361.17, 474.9 361.33, 476.09 361.5, 477.28 361.67, 478.47 361.83, 479.67 362.0, 480.87 362.17, 482.07 362.33, 483.27 362.5, 484.48 362.67, 485.69 362.83, 486.9 363.0, 488.12 363.17, 489.34 363.33, 490.56 363.5, 491.78 363.67, 493.01 363.83, 494.24 364.0, 495.47 364.17, 496.71 364.33, 497.95 364.5, 499.19 364.67, 500.43 364.83, 501.68 365.0, 502.93 365.17, 504.18 365.33, 505.44 365.5, 506.7 365.67, 507.96 365.83, 509.22 366.0, 510.49 366.17, 511.76 366.33, 513.03 366.5, 514.31 366.67, 515.59 366.83, 516.87 367.0, 518.15 367.17, 519.44 367.33, 520.73 367.5, 522.02 367.67, 523.32 367.83, 524.62 368.0, 525.92 368.17, 527.22 368.33, 528.53 368.5, 529.84 368.67, 531.16 368.83, 532.47 369.0, 533.79 369.17, 535.11 369.33, 536.44 369.5, 537.77 369.67, 539.1 369.83, 540.43 370.0, 541.77 370.17, 543.11 370.33, 544.45 370.5, 545.8 370.67, 547.15 370.83, 548.5 371.0, 549.86 371.17, 551.21 371.33, 552.57 371.5, 553.94 371.67, 555.3 371.83, 556.67 372.0, 558.05 372.17, 559.42 372.33, 560.8 372.5, 562.18 372.67, 563.57 372.83, 564.95 373.0, 566.35 373.17, 567.74 373.33, 569.14 373.5, 570.54 373.67, 571.94 373.83, 573.34 374.0, 574.75 374.17, 576.16 374.33, 577.58 374.5, 579.0 374.67, 580.42 374.83, 581.84 375.0, 583.27 375.17, 584.7 375.33, 586.13 375.5, 587.57 375.67, 589.01 375.83, 590.45 376.0, 591.89 376.17, 593.34 376.33, 594.79 376.5, 596.25 376.67, 597.7 376.83, 599.16 377.0, 600.63 377.17, 602.1 377.33, 603.56 377.5, 605.04 377.67, 606.51 377.83, 607.99 378.0, 609.47 378.17, 610.96 378.33, 612.45 378.5, 613.94 378.67, 615.43 378.83, 616.93 379.0, 618.43 379.17, 619.93 379.33, 621.44 379.5, 622.95 379.67, 624.46 379.83, 625.98 380.0, 627.5 380.17, 629.02 380.33, 630.55 380.5, 632.08 380.67, 633.61 380.83, 635.14 381.0, 636.68 381.17, 638.22 381.33, 639.77 381.5, 641.31 381.67, 642.87 381.83, 644.42 382.0, 645.98 382.17, 647.54 382.33, 649.1 382.5, 650.67 382.67, 652.24 382.83, 653.81 383.0, 655.38 383.17, 656.96 383.33, 658.55 383.5, 660.13 383.67, 661.72 383.83, 663.31 384.0, 664.91 384.17, 666.5 384.33, 668.11 384.5, 669.71 384.67, 671.32 384.83, 672.93 385.0, 674.54 385.17, 676.16 385.33, 677.78 385.5, 679.41 385.67, 681.03 385.83, 682.66 386.0, 684.3 386.17, 685.93 386.33, 687.57 386.5, 689.22 386.67, 690.86 386.83, 692.51 387.0, 694.17 387.17, 695.82 387.33, 697.48 387.5, 699.15 387.67, 700.81 387.83, 702.48 388.0, 704.15 388.17, 705.83 388.33, 707.51 388.5, 709.19 388.67, 710.88 388.83, 712.57 389.0, 714.26 389.17, 715.95 389.33, 717.65 389.5, 719.35 389.67, 721.06 389.83, 722.77 390.0, 724.48 390.17, 726.19 390.33, 727.91 390.5, 729.63 390.67, 731.36 390.83, 733.09 391.0, 734.82 391.17, 736.55 391.33, 738.29 391.5, 740.03 391.67, 741.78 391.83, 743.53 392.0, 745.28 392.17, 747.04 392.33, 748.79 392.5, 750.56 392.67, 752.32 392.83, 754.09 393.0, 755.86 393.17, 757.64 393.33, 759.41 393.5, 761.2 393.67, 762.98 393.83, 764.77 394.0, 766.56 394.17, 768.36 394.33, 770.15 394.5, 771.96 394.67, 773.76 394.83, 775.57 395.0, 777.38 395.17, 779.2 395.33, 781.02 395.5, 782.84 395.67, 784.67 395.83, 786.49 396.0, 788.33 396.17, 790.16 396.33, 792.0 396.5, 793.84 396.67, 795.69 396.83, 797.54 397.0, 799.39 397.17, 801.25 397.33, 803.11 397.5, 804.97 397.67, 806.84 397.83, 808.71 398.0, 810.58 398.17, 812.46 398.33, 814.34 398.5, 816.22 398.67, 818.11 398.83, 820.0 399.0, 821.9 399.17, 823.79 399.33, 825.69 399.5, 827.6 399.67, 829.51 399.83, 831.42 400.0, 833.33 " fill="none" stroke="white" stroke-width="1.5" stroke-linejoin="round" stroke-opacity="1"/>

 </svg>