<svg version="1.1" 
 baseProfile="full" 
 width="400" 
 height="400" 
 xmlns="http://www.w3.org/2000/svg">
<rect x="0.0" y="0.0" width="400" height="400" fill="black" stroke="black" stroke-width="0" opacity="1"/>
<line x1="0.0" y1="0.0" x2="0.0" y2="400.0" stroke="white" stroke-width="1" opacity="0.4" stroke-linecap="butt"/>
<line x1="40.0" y1="0.0" x2="40.0" y2="400.0" stroke="white" stroke-width="1" opacity="0.4" stroke-linecap="butt"/>
<line x1="80.0" y1="0.0" x2="80.0" y2="400.0" stroke="white" stroke-width="1" opacity="0.4" stroke-linecap="butt"/>
<line x1="120.0" y1="0.0" x2="120.0" y2="400.0" stroke="white" stroke-width="1" opacity="0.4" stroke-linecap="butt"/>
<line x1="160.0" y1="0.0" x2="160.0" y2="400.0" stroke="white" stroke-width="1" opacity="0.4" stroke-linecap="butt"/>
<line x1="200.0" y1="0.0" x2="200.0" y2="400.0" stroke="white" stroke-width="1" opacity="0.4" stroke-linecap="butt"/>
<line x1="240.0" y1="0.0" x2="240.0" y2="400.0" stroke="white" stroke-width="1" opacity="0.4" stroke-linecap="butt"/>
<line x1="280.0" y1="0.0" x2="280.0" y2="400.0" stroke="white" stroke-width="1" opacity="0.4" stroke-linecap="butt"/>
<line x1="320.0" y1="0.0" x2="320.0" y2="400.0" stroke="white" stroke-width="1" opacity="0.4" stroke-linecap="butt"/>
<line x1="360.0" y1="0.0" x2="360.0" y2="400.0" stroke="white" stroke-width="1" opacity="0.4" stroke-linecap="butt"/>
<line x1="0.0" y1="0.0" x2="400.0" y2="0.0" stroke="white" stroke-width="1" opacity="0.4" stroke-linecap="butt"/>
<line x1="0.0" y1="40.0" x2="400.0" y2="40.0" stroke="white" stroke-width="1" opacity="0.4" stroke-linecap="butt"/>
<line x1="0.0" y1="80.0" x2="400.0" y2="80.0" stroke="white" stroke-width="1" opacity="0.4" stroke-linecap="butt"/>
<line x1="0.0" y1="120.0" x2="400.0" y2="120.0" stroke="white" stroke-width="1" opacity="0.4" stroke-linecap="butt"/>
<line x1="0.0" y1="160.0" x2="400.0" y2="160.0" stroke="white" stroke-width="1" opacity="0.4" stroke-linecap="butt"/>
<line x1="0.0" y1="200.0" x2="400.0" y2="200.0" stroke="white" stroke-width="1" opacity="0.4" stroke-linecap="butt"/>
<line x1="0.0" y1="240.0" x2="400.0" y2="240.0" stroke="white" stroke-width="1" opacity="0.4" stroke-linecap="butt"/>
<line x1="0.0" y1="280.0" x2="400.0" y2="280.0" stroke="white" stroke-width="1" opacity="0.4" stroke-linecap="butt"/>
<line x1="0.0" y1="320.0" x2="400.0" y2="320.0" stroke="white" stroke-width="1" opacity="0.4" stroke-linecap="butt"/>
<line x1="0.0" y1="360.0" x2="400.0" y2="360.0" stroke="white" stroke-width="1" opacity="0.4" stroke-linecap="butt"/>
<line x1="0.0" y1="200.0" x2="400.0" y2="200.0" stroke="yellow" stroke-width="2.5" opacity="1" stroke-linecap="butt"/>
<line x1="200.0" y1="0.0" x2="200.0" y2="400.0" stroke="yellow" stroke-width="2.5" opacity="1" stroke-linecap="butt"/>
<polygon points="391.0 204.0, 401.0 200.0, 391.0 196.0, 393.0 200.0" fill="yellow"/><polygon points="204.0 9.0, 200.0 -1.0, 196.0 9.0, 200.0 7.0" fill="yellow"/><image x="-60.0" y="-60.0" width="200" height="200" href="/Users/girirajhira/PycharmProjects/Giraphics3/Taylor/expr.png"/><polyline points="0.0, -975.0 0.17, -971.73 0.33, -968.47 0.5, -965.21 0.67, -961.96 0.83, -958.72 1.0, -955.48 1.17, -952.24 1.33, -949.02 1.5, -945.79 1.67, -942.58 1.83, -939.37 2.0, -936.16 2.17, -932.96 2.33, -929.77 2.5, -926.58 2.67, -923.4 2.83, -920.22 3.0, -917.05 3.17, -913.88 3.33, -910.72 3.5, -907.57 3.67, -904.42 3.83, -901.28 4.0, -898.14 4.17, -895.01 4.33, -891.88 4.5, -888.76 4.67, -885.65 4.83, -882.54 5.0, -879.43 5.17, -876.33 5.33, -873.24 5.5, -870.15 5.67, -867.07 5.83, -864.0 6.0, -860.93 6.17, -857.86 6.33, -854.8 6.5, -851.75 6.67, -848.7 6.83, -845.66 7.0, -842.62 7.17, -839.59 7.33, -836.56 7.5, -833.54 7.67, -830.53 7.83, -827.52 8.0, -824.51 8.17, -821.51 8.33, -818.52 8.5, -815.53 8.67, -812.55 8.83, -809.57 9.0, -806.6 9.17, -803.64 9.33, -800.68 9.5, -797.72 9.67, -794.77 9.83, -791.83 10.0, -788.89 10.17, -785.96 10.33, -783.03 10.5, -780.11 10.67, -777.19 10.83, -774.28 11.0, -771.37 11.17, -768.47 11.33, -765.58 11.5, -762.69 11.67, -759.81 11.83, -756.93 12.0, -754.05 12.17, -751.18 12.33, -748.32 12.5, -745.47 12.67, -742.61 12.83, -739.77 13.0, -736.93 13.17, -734.09 13.33, -731.26 13.5, -728.43 13.67, -725.61 13.83, -722.8 14.0, -719.99 14.17, -717.19 14.33, -714.39 14.5, -711.6 14.67, -708.81 14.83, -706.03 15.0, -703.25 15.17, -700.48 15.33, -697.71 15.5, -694.95 15.67, -692.19 15.83, -689.44 16.0, -686.7 16.17, -683.96 16.33, -681.22 16.5, -678.49 16.67, -675.77 16.83, -673.05 17.0, -670.33 17.17, -667.63 17.33, -664.92 17.5, -662.22 17.67, -659.53 17.83, -656.84 18.0, -654.16 18.17, -651.48 18.33, -648.81 18.5, -646.14 18.67, -643.48 18.83, -640.83 19.0, -638.17 19.17, -635.53 19.33, -632.89 19.5, -630.25 19.67, -627.62 19.83, -625.0 20.0, -622.38 20.17, -619.76 20.33, -617.15 20.5, -614.55 20.67, -611.95 20.83, -609.35 21.0, -606.76 21.17, -604.18 21.33, -601.6 21.5, -599.02 21.67, -596.45 21.83, -593.89 22.0, -591.33 22.17, -588.78 22.33, -586.23 22.5, -583.69 22.67, -581.15 22.83, -578.62 23.0, -576.09 23.17, -573.56 23.33, -571.05 23.5, -568.53 23.67, -566.02 23.83, -563.52 24.0, -561.02 24.17, -558.53 24.33, -556.04 24.5, -553.56 24.67, -551.08 24.83, -548.61 25.0, -546.14 25.17, -543.68 25.33, -541.22 25.5, -538.77 25.67, -536.32 25.83, -533.88 26.0, -531.44 26.17, -529.01 26.33, -526.58 26.5, -524.16 26.67, -521.74 26.83, -519.33 27.0, -516.92 27.17, -514.52 27.33, -512.12 27.5, -509.73 27.67, -507.34 27.83, -504.96 28.0, -502.58 28.17, -500.2 28.33, -497.84 28.5, -495.47 28.67, -493.11 28.83, -490.76 29.0, -488.41 29.17, -486.07 29.33, -483.73 29.5, -481.39 29.67, -479.07 29.83, -476.74 30.0, -474.42 30.17, -472.11 30.33, -469.8 30.5, -467.49 30.67, -465.19 30.83, -462.9 31.0, -460.61 31.17, -458.32 31.33, -456.04 31.5, -453.77 31.67, -451.5 31.83, -449.23 32.0, -446.97 32.17, -444.71 32.33, -442.46 32.5, -440.21 32.67, -437.97 32.83, -435.73 33.0, -433.5 33.17, -431.27 33.33, -429.05 33.5, -426.83 33.67, -424.62 33.83, -422.41 34.0, -420.21 34.17, -418.01 34.33, -415.81 34.5, -413.62 34.67, -411.44 34.83, -409.26 35.0, -407.08 35.17, -404.91 35.33, -402.75 35.5, -400.59 35.67, -398.43 35.83, -396.28 36.0, -394.13 36.17, -391.99 36.33, -389.85 36.5, -387.72 36.67, -385.59 36.83, -383.47 37.0, -381.35 37.17, -379.23 37.33, -377.12 37.5, -375.02 37.67, -372.92 37.83, -370.82 38.0, -368.73 38.17, -366.65 38.33, -364.56 38.5, -362.49 38.67, -360.41 38.83, -358.35 39.0, -356.28 39.17, -354.22 39.33, -352.17 39.5, -350.12 39.67, -348.08 39.83, -346.04 40.0, -344.0 40.17, -341.97 40.33, -339.94 40.5, -337.92 40.67, -335.9 40.83, -333.89 41.0, -331.88 41.17, -329.88 41.33, -327.88 41.5, -325.89 41.67, -323.9 41.83, -321.91 42.0, -319.93 42.17, -317.95 42.33, -315.98 42.5, -314.01 42.67, -312.05 42.83, -310.09 43.0, -308.14 43.17, -306.19 43.33, -304.24 43.5, -302.3 43.67, -300.37 43.83, -298.44 44.0, -296.51 44.17, -294.59 44.33, -292.67 44.5, -290.75 44.67, -288.85 44.83, -286.94 45.0, -285.04 45.17, -283.15 45.33, -281.25 45.5, -279.37 45.67, -277.48 45.83, -275.61 46.0, -273.73 46.17, -271.86 46.33, -270.0 46.5, -268.14 46.67, -266.28 46.83, -264.43 47.0, -262.58 47.17, -260.74 47.33, -258.9 47.5, -257.07 47.67, -255.24 47.83, -253.41 48.0, -251.59 48.17, -249.78 48.33, -247.96 48.5, -246.16 48.67, -244.35 48.83, -242.55 49.0, -240.76 49.17, -238.97 49.33, -237.18 49.5, -235.4 49.67, -233.62 49.83, -231.85 50.0, -230.08 50.17, -228.31 50.33, -226.55 50.5, -224.8 50.67, -223.04 50.83, -221.3 51.0, -219.55 51.17, -217.81 51.33, -216.08 51.5, -214.35 51.67, -212.62 51.83, -210.9 52.0, -209.18 52.17, -207.47 52.33, -205.76 52.5, -204.05 52.67, -202.35 52.83, -200.66 53.0, -198.96 53.17, -197.28 53.33, -195.59 53.5, -193.91 53.67, -192.24 53.83, -190.57 54.0, -188.9 54.17, -187.24 54.33, -185.58 54.5, -183.92 54.67, -182.27 54.83, -180.62 55.0, -178.98 55.17, -177.34 55.33, -175.71 55.5, -174.08 55.67, -172.45 55.83, -170.83 56.0, -169.22 56.17, -167.6 56.33, -165.99 56.5, -164.39 56.67, -162.79 56.83, -161.19 57.0, -159.6 57.17, -158.01 57.33, -156.42 57.5, -154.84 57.67, -153.27 57.83, -151.7 58.0, -150.13 58.17, -148.56 58.33, -147.0 58.5, -145.45 58.67, -143.9 58.83, -142.35 59.0, -140.8 59.17, -139.26 59.33, -137.73 59.5, -136.2 59.67, -134.67 59.83, -133.14 60.0, -131.63 60.17, -130.11 60.33, -128.6 60.5, -127.09 60.67, -125.59 60.83, -124.09 61.0, -122.59 61.17, -121.1 61.33, -119.61 61.5, -118.13 61.67, -116.65 61.83, -115.17 62.0, -113.7 62.17, -112.23 62.33, -110.77 62.5, -109.31 62.67, -107.85 62.83, -106.4 63.0, -104.95 63.17, -103.51 63.33, -102.07 63.5, -100.63 63.67, -99.2 63.83, -97.77 64.0, -96.34 64.17, -94.92 64.33, -93.51 64.5, -92.09 64.67, -90.68 64.83, -89.28 65.0, -87.88 65.17, -86.48 65.33, -85.09 65.5, -83.7 65.67, -82.31 65.83, -80.93 66.0, -79.55 66.17, -78.17 66.33, -76.8 66.5, -75.44 66.67, -74.07 66.83, -72.71 67.0, -71.36 67.17, -70.01 67.33, -68.66 67.5, -67.32 67.67, -65.98 67.83, -64.64 68.0, -63.31 68.17, -61.98 68.33, -60.65 68.5, -59.33 68.67, -58.01 68.83, -56.7 69.0, -55.39 69.17, -54.08 69.33, -52.78 69.5, -51.48 69.67, -50.19 69.83, -48.9 70.0, -47.61 70.17, -46.33 70.33, -45.05 70.5, -43.77 70.67, -42.5 70.83, -41.23 71.0, -39.96 71.17, -38.7 71.33, -37.44 71.5, -36.19 71.67, -34.94 71.83, -33.69 72.0, -32.45 72.17, -31.21 72.33, -29.97 72.5, -28.74 72.67, -27.51 72.83, -26.29 73.0, -25.07 73.17, -23.85 73.33, -22.63 73.5, -21.42 73.67, -20.22 73.83, -19.01 74.0, -17.81 74.17, -16.62 74.33, -15.43 74.5, -14.24 74.67, -13.05 74.83, -11.87 75.0, -10.69 75.17, -9.52 75.33, -8.35 75.5, -7.18 75.67, -6.02 75.83, -4.86 76.0, -3.7 76.17, -2.55 76.33, -1.4 76.5, -0.25 76.67, 0.89 76.83, 2.03 77.0, 3.16 77.17, 4.3 77.33, 5.42 77.5, 6.55 77.67, 7.67 77.83, 8.79 78.0, 9.9 78.17, 11.01 78.33, 12.12 78.5, 13.22 78.67, 14.32 78.83, 15.42 79.0, 16.51 79.17, 17.6 79.33, 18.69 79.5, 19.77 79.67, 20.85 79.83, 21.93 80.0, 23.0 80.17, 24.07 80.33, 25.13 80.5, 26.2 80.67, 27.26 80.83, 28.31 81.0, 29.36 81.17, 30.41 81.33, 31.46 81.5, 32.5 81.67, 33.54 81.83, 34.57 82.0, 35.6 82.17, 36.63 82.33, 37.66 82.5, 38.68 82.67, 39.7 82.83, 40.71 83.0, 41.72 83.17, 42.73 83.33, 43.74 83.5, 44.74 83.67, 45.73 83.83, 46.73 84.0, 47.72 84.17, 48.71 84.33, 49.69 84.5, 50.68 84.67, 51.65 84.83, 52.63 85.0, 53.6 85.17, 54.57 85.33, 55.53 85.5, 56.49 85.67, 57.45 85.83, 58.41 86.0, 59.36 86.17, 60.31 86.33, 61.25 86.5, 62.2 86.67, 63.13 86.83, 64.07 87.0, 65.0 87.17, 65.93 87.33, 66.86 87.5, 67.78 87.67, 68.7 87.83, 69.62 88.0, 70.53 88.17, 71.44 88.33, 72.34 88.5, 73.25 88.67, 74.15 88.83, 75.04 89.0, 75.94 89.17, 76.83 89.33, 77.72 89.5, 78.6 89.67, 79.48 89.83, 80.36 90.0, 81.23 90.17, 82.11 90.33, 82.97 90.5, 83.84 90.67, 84.7 90.83, 85.56 91.0, 86.42 91.17, 87.27 91.33, 88.12 91.5, 88.97 91.67, 89.81 91.83, 90.65 92.0, 91.49 92.17, 92.32 92.33, 93.15 92.5, 93.98 92.67, 94.81 92.83, 95.63 93.0, 96.45 93.17, 97.26 93.33, 98.07 93.5, 98.88 93.67, 99.69 93.83, 100.49 94.0, 101.29 94.17, 102.09 94.33, 102.89 94.5, 103.68 94.67, 104.47 94.83, 105.25 95.0, 106.03 95.17, 106.81 95.33, 107.59 95.5, 108.36 95.67, 109.13 95.83, 109.9 96.0, 110.66 96.17, 111.43 96.33, 112.18 96.5, 112.94 96.67, 113.69 96.83, 114.44 97.0, 115.19 97.17, 115.93 97.33, 116.67 97.5, 117.41 97.67, 118.14 97.83, 118.88 98.0, 119.6 98.17, 120.33 98.33, 121.05 98.5, 121.77 98.67, 122.49 98.83, 123.21 99.0, 123.92 99.17, 124.63 99.33, 125.33 99.5, 126.03 99.67, 126.73 99.83, 127.43 100.0, 128.12 100.17, 128.82 100.33, 129.5 100.5, 130.19 100.67, 130.87 100.83, 131.55 101.0, 132.23 101.17, 132.9 101.33, 133.58 101.5, 134.24 101.67, 134.91 101.83, 135.57 102.0, 136.23 102.17, 136.89 102.33, 137.54 102.5, 138.2 102.67, 138.84 102.83, 139.49 103.0, 140.13 103.17, 140.77 103.33, 141.41 103.5, 142.05 103.67, 142.68 103.83, 143.31 104.0, 143.94 104.17, 144.56 104.33, 145.18 104.5, 145.8 104.67, 146.42 104.83, 147.03 105.0, 147.64 105.17, 148.25 105.33, 148.85 105.5, 149.45 105.67, 150.05 105.83, 150.65 106.0, 151.24 106.17, 151.83 106.33, 152.42 106.5, 153.01 106.67, 153.59 106.83, 154.17 107.0, 154.75 107.17, 155.33 107.33, 155.9 107.5, 156.47 107.67, 157.04 107.83, 157.6 108.0, 158.16 108.17, 158.72 108.33, 159.28 108.5, 159.83 108.67, 160.38 108.83, 160.93 109.0, 161.48 109.17, 162.02 109.33, 162.56 109.5, 163.1 109.67, 163.64 109.83, 164.17 110.0, 164.7 110.17, 165.23 110.33, 165.76 110.5, 166.28 110.67, 166.8 110.83, 167.32 111.0, 167.83 111.17, 168.35 111.33, 168.86 111.5, 169.36 111.67, 169.87 111.83, 170.37 112.0, 170.87 112.17, 171.37 112.33, 171.86 112.5, 172.36 112.67, 172.85 112.83, 173.33 113.0, 173.82 113.17, 174.3 113.33, 174.78 113.5, 175.26 113.67, 175.74 113.83, 176.21 114.0, 176.68 114.17, 177.15 114.33, 177.61 114.5, 178.07 114.67, 178.53 114.83, 178.99 115.0, 179.45 115.17, 179.9 115.33, 180.35 115.5, 180.8 115.67, 181.24 115.83, 181.69 116.0, 182.13 116.17, 182.57 116.33, 183.0 116.5, 183.44 116.67, 183.87 116.83, 184.3 117.0, 184.72 117.17, 185.15 117.33, 185.57 117.5, 185.99 117.67, 186.41 117.83, 186.82 118.0, 187.23 118.17, 187.64 118.33, 188.05 118.5, 188.46 118.67, 188.86 118.83, 189.26 119.0, 189.66 119.17, 190.05 119.33, 190.45 119.5, 190.84 119.67, 191.23 119.83, 191.62 120.0, 192.0 120.17, 192.38 120.33, 192.76 120.5, 193.14 120.67, 193.52 120.83, 193.89 121.0, 194.26 121.17, 194.63 121.33, 194.99 121.5, 195.36 121.67, 195.72 121.83, 196.08 122.0, 196.44 122.17, 196.79 122.33, 197.14 122.5, 197.49 122.67, 197.84 122.83, 198.19 123.0, 198.53 123.17, 198.88 123.33, 199.21 123.5, 199.55 123.67, 199.89 123.83, 200.22 124.0, 200.55 124.17, 200.88 124.33, 201.21 124.5, 201.53 124.67, 201.85 124.83, 202.17 125.0, 202.49 125.17, 202.81 125.33, 203.12 125.5, 203.43 125.67, 203.74 125.83, 204.05 126.0, 204.35 126.17, 204.65 126.33, 204.96 126.5, 205.25 126.67, 205.55 126.83, 205.85 127.0, 206.14 127.17, 206.43 127.33, 206.72 127.5, 207.0 127.67, 207.29 127.83, 207.57 128.0, 207.85 128.17, 208.13 128.33, 208.4 128.5, 208.68 128.67, 208.95 128.83, 209.22 129.0, 209.48 129.17, 209.75 129.33, 210.01 129.5, 210.27 129.67, 210.53 129.83, 210.79 130.0, 211.05 130.17, 211.3 130.33, 211.55 130.5, 211.8 130.67, 212.05 130.83, 212.29 131.0, 212.54 131.17, 212.78 131.33, 213.02 131.5, 213.26 131.67, 213.49 131.83, 213.73 132.0, 213.96 132.17, 214.19 132.33, 214.41 132.5, 214.64 132.67, 214.86 132.83, 215.09 133.0, 215.31 133.17, 215.52 133.33, 215.74 133.5, 215.96 133.67, 216.17 133.83, 216.38 134.0, 216.59 134.17, 216.79 134.33, 217.0 134.5, 217.2 134.67, 217.4 134.83, 217.6 135.0, 217.8 135.17, 217.99 135.33, 218.19 135.5, 218.38 135.67, 218.57 135.83, 218.76 136.0, 218.94 136.17, 219.13 136.33, 219.31 136.5, 219.49 136.67, 219.67 136.83, 219.85 137.0, 220.02 137.17, 220.2 137.33, 220.37 137.5, 220.54 137.67, 220.71 137.83, 220.87 138.0, 221.04 138.17, 221.2 138.33, 221.36 138.5, 221.52 138.67, 221.68 138.83, 221.83 139.0, 221.99 139.17, 222.14 139.33, 222.29 139.5, 222.44 139.67, 222.59 139.83, 222.73 140.0, 222.88 140.17, 223.02 140.33, 223.16 140.5, 223.3 140.67, 223.43 140.83, 223.57 141.0, 223.7 141.17, 223.83 141.33, 223.96 141.5, 224.09 141.67, 224.22 141.83, 224.34 142.0, 224.47 142.17, 224.59 142.33, 224.71 142.5, 224.82 142.67, 224.94 142.83, 225.06 143.0, 225.17 143.17, 225.28 143.33, 225.39 143.5, 225.5 143.67, 225.61 143.83, 225.71 144.0, 225.82 144.17, 225.92 144.33, 226.02 144.5, 226.12 144.67, 226.21 144.83, 226.31 145.0, 226.4 145.17, 226.5 145.33, 226.59 145.5, 226.68 145.67, 226.76 145.83, 226.85 146.0, 226.94 146.17, 227.02 146.33, 227.1 146.5, 227.18 146.67, 227.26 146.83, 227.34 147.0, 227.41 147.17, 227.49 147.33, 227.56 147.5, 227.63 147.67, 227.7 147.83, 227.77 148.0, 227.83 148.17, 227.9 148.33, 227.96 148.5, 228.02 148.67, 228.08 148.83, 228.14 149.0, 228.2 149.17, 228.26 149.33, 228.31 149.5, 228.36 149.67, 228.42 149.83, 228.47 150.0, 228.52 150.17, 228.56 150.33, 228.61 150.5, 228.65 150.67, 228.7 150.83, 228.74 151.0, 228.78 151.17, 228.82 151.33, 228.86 151.5, 228.89 151.67, 228.93 151.83, 228.96 152.0, 228.99 152.17, 229.02 152.33, 229.05 152.5, 229.08 152.67, 229.11 152.83, 229.13 153.0, 229.16 153.17, 229.18 153.33, 229.2 153.5, 229.22 153.67, 229.24 153.83, 229.25 154.0, 229.27 154.17, 229.28 154.33, 229.3 154.5, 229.31 154.67, 229.32 154.83, 229.33 155.0, 229.34 155.17, 229.34 155.33, 229.35 155.5, 229.35 155.67, 229.36 155.83, 229.36 156.0, 229.36 156.17, 229.36 156.33, 229.36 156.5, 229.35 156.67, 229.35 156.83, 229.34 157.0, 229.33 157.17, 229.33 157.33, 229.32 157.5, 229.31 157.67, 229.29 157.83, 229.28 158.0, 229.27 158.17, 229.25 158.33, 229.23 158.5, 229.22 158.67, 229.2 158.83, 229.18 159.0, 229.15 159.17, 229.13 159.33, 229.11 159.5, 229.08 159.67, 229.06 159.83, 229.03 160.0, 229.0 160.17, 228.97 160.33, 228.94 160.5, 228.91 160.67, 228.87 160.83, 228.84 161.0, 228.8 161.17, 228.77 161.33, 228.73 161.5, 228.69 161.67, 228.65 161.83, 228.61 162.0, 228.57 162.17, 228.53 162.33, 228.48 162.5, 228.44 162.67, 228.39 162.83, 228.34 163.0, 228.29 163.17, 228.24 163.33, 228.19 163.5, 228.14 163.67, 228.09 163.83, 228.04 164.0, 227.98 164.17, 227.93 164.33, 227.87 164.5, 227.81 164.67, 227.75 164.83, 227.69 165.0, 227.63 165.17, 227.57 165.33, 227.51 165.5, 227.44 165.67, 227.38 165.83, 227.31 166.0, 227.24 166.17, 227.18 166.33, 227.11 166.5, 227.04 166.67, 226.97 166.83, 226.9 167.0, 226.82 167.17, 226.75 167.33, 226.68 167.5, 226.6 167.67, 226.52 167.83, 226.45 168.0, 226.37 168.17, 226.29 168.33, 226.21 168.5, 226.13 168.67, 226.05 168.83, 225.96 169.0, 225.88 169.17, 225.8 169.33, 225.71 169.5, 225.62 169.67, 225.54 169.83, 225.45 170.0, 225.36 170.17, 225.27 170.33, 225.18 170.5, 225.09 170.67, 225.0 170.83, 224.9 171.0, 224.81 171.17, 224.71 171.33, 224.62 171.5, 224.52 171.67, 224.42 171.83, 224.33 172.0, 224.23 172.17, 224.13 172.33, 224.03 172.5, 223.93 172.67, 223.82 172.83, 223.72 173.0, 223.62 173.17, 223.51 173.33, 223.41 173.5, 223.3 173.67, 223.19 173.83, 223.09 174.0, 222.98 174.17, 222.87 174.33, 222.76 174.5, 222.65 174.67, 222.54 174.83, 222.43 175.0, 222.31 175.17, 222.2 175.33, 222.09 175.5, 221.97 175.67, 221.86 175.83, 221.74 176.0, 221.62 176.17, 221.51 176.33, 221.39 176.5, 221.27 176.67, 221.15 176.83, 221.03 177.0, 220.91 177.17, 220.79 177.33, 220.67 177.5, 220.54 177.67, 220.42 177.83, 220.29 178.0, 220.17 178.17, 220.04 178.33, 219.92 178.5, 219.79 178.67, 219.66 178.83, 219.54 179.0, 219.41 179.17, 219.28 179.33, 219.15 179.5, 219.02 179.67, 218.89 179.83, 218.76 180.0, 218.62 180.17, 218.49 180.33, 218.36 180.5, 218.23 180.67, 218.09 180.83, 217.96 181.0, 217.82 181.17, 217.69 181.33, 217.55 181.5, 217.41 181.67, 217.27 181.83, 217.14 182.0, 217.0 182.17, 216.86 182.33, 216.72 182.5, 216.58 182.67, 216.44 182.83, 216.3 183.0, 216.16 183.17, 216.01 183.33, 215.87 183.5, 215.73 183.67, 215.58 183.83, 215.44 184.0, 215.3 184.17, 215.15 184.33, 215.01 184.5, 214.86 184.67, 214.71 184.83, 214.57 185.0, 214.42 185.17, 214.27 185.33, 214.12 185.5, 213.98 185.67, 213.83 185.83, 213.68 186.0, 213.53 186.17, 213.38 186.33, 213.23 186.5, 213.08 186.67, 212.93 186.83, 212.77 187.0, 212.62 187.17, 212.47 187.33, 212.32 187.5, 212.16 187.67, 212.01 187.83, 211.86 188.0, 211.7 188.17, 211.55 188.33, 211.39 188.5, 211.24 188.67, 211.08 188.83, 210.93 189.0, 210.77 189.17, 210.61 189.33, 210.46 189.5, 210.3 189.67, 210.14 189.83, 209.99 190.0, 209.83 190.17, 209.67 190.33, 209.51 190.5, 209.35 190.67, 209.19 190.83, 209.03 191.0, 208.87 191.17, 208.71 191.33, 208.55 191.5, 208.39 191.67, 208.23 191.83, 208.07 192.0, 207.91 192.17, 207.75 192.33, 207.59 192.5, 207.43 192.67, 207.27 192.83, 207.1 193.0, 206.94 193.17, 206.78 193.33, 206.62 193.5, 206.45 193.67, 206.29 193.83, 206.13 194.0, 205.96 194.17, 205.8 194.33, 205.64 194.5, 205.47 194.67, 205.31 194.83, 205.14 195.0, 204.98 195.17, 204.81 195.33, 204.65 195.5, 204.48 195.67, 204.32 195.83, 204.15 196.0, 203.99 196.17, 203.82 196.33, 203.66 196.5, 203.49 196.67, 203.33 196.83, 203.16 197.0, 203.0 197.17, 202.83 197.33, 202.66 197.5, 202.5 197.67, 202.33 197.83, 202.16 198.0, 202.0 198.17, 201.83 198.33, 201.67 198.5, 201.5 198.67, 201.33 198.83, 201.17 199.0, 201.0 199.17, 200.83 199.33, 200.67 199.5, 200.5 199.67, 200.33 199.83, 200.17 200.0, 200.0 200.17, 199.83 200.33, 199.67 200.5, 199.5 200.67, 199.33 200.83, 199.17 201.0, 199.0 201.17, 198.83 201.33, 198.67 201.5, 198.5 201.67, 198.33 201.83, 198.17 202.0, 198.0 202.17, 197.84 202.33, 197.67 202.5, 197.5 202.67, 197.34 202.83, 197.17 203.0, 197.0 203.17, 196.84 203.33, 196.67 203.5, 196.51 203.67, 196.34 203.83, 196.18 204.0, 196.01 204.17, 195.85 204.33, 195.68 204.5, 195.52 204.67, 195.35 204.83, 195.19 205.0, 195.02 205.17, 194.86 205.33, 194.69 205.5, 194.53 205.67, 194.36 205.83, 194.2 206.0, 194.04 206.17, 193.87 206.33, 193.71 206.5, 193.55 206.67, 193.38 206.83, 193.22 207.0, 193.06 207.17, 192.9 207.33, 192.73 207.5, 192.57 207.67, 192.41 207.83, 192.25 208.0, 192.09 208.17, 191.93 208.33, 191.77 208.5, 191.61 208.67, 191.45 208.83, 191.29 209.0, 191.13 209.17, 190.97 209.33, 190.81 209.5, 190.65 209.67, 190.49 209.83, 190.33 210.0, 190.17 210.17, 190.01 210.33, 189.86 210.5, 189.7 210.67, 189.54 210.83, 189.39 211.0, 189.23 211.17, 189.07 211.33, 188.92 211.5, 188.76 211.67, 188.61 211.83, 188.45 212.0, 188.3 212.17, 188.14 212.33, 187.99 212.5, 187.84 212.67, 187.68 212.83, 187.53 213.0, 187.38 213.17, 187.23 213.33, 187.07 213.5, 186.92 213.67, 186.77 213.83, 186.62 214.0, 186.47 214.17, 186.32 214.33, 186.17 214.5, 186.02 214.67, 185.88 214.83, 185.73 215.0, 185.58 215.17, 185.43 215.33, 185.29 215.5, 185.14 215.67, 184.99 215.83, 184.85 216.0, 184.7 216.17, 184.56 216.33, 184.42 216.5, 184.27 216.67, 184.13 216.83, 183.99 217.0, 183.84 217.17, 183.7 217.33, 183.56 217.5, 183.42 217.67, 183.28 217.83, 183.14 218.0, 183.0 218.17, 182.86 218.33, 182.73 218.5, 182.59 218.67, 182.45 218.83, 182.31 219.0, 182.18 219.17, 182.04 219.33, 181.91 219.5, 181.77 219.67, 181.64 219.83, 181.51 220.0, 181.38 220.17, 181.24 220.33, 181.11 220.5, 180.98 220.67, 180.85 220.83, 180.72 221.0, 180.59 221.17, 180.46 221.33, 180.34 221.5, 180.21 221.67, 180.08 221.83, 179.96 222.0, 179.83 222.17, 179.71 222.33, 179.58 222.5, 179.46 222.67, 179.33 222.83, 179.21 223.0, 179.09 223.17, 178.97 223.33, 178.85 223.5, 178.73 223.67, 178.61 223.83, 178.49 224.0, 178.38 224.17, 178.26 224.33, 178.14 224.5, 178.03 224.67, 177.91 224.83, 177.8 225.0, 177.69 225.17, 177.57 225.33, 177.46 225.5, 177.35 225.67, 177.24 225.83, 177.13 226.0, 177.02 226.17, 176.91 226.33, 176.81 226.5, 176.7 226.67, 176.59 226.83, 176.49 227.0, 176.38 227.17, 176.28 227.33, 176.18 227.5, 176.07 227.67, 175.97 227.83, 175.87 228.0, 175.77 228.17, 175.67 228.33, 175.58 228.5, 175.48 228.67, 175.38 228.83, 175.29 229.0, 175.19 229.17, 175.1 229.33, 175.0 229.5, 174.91 229.67, 174.82 229.83, 174.73 230.0, 174.64 230.17, 174.55 230.33, 174.46 230.5, 174.38 230.67, 174.29 230.83, 174.2 231.0, 174.12 231.17, 174.04 231.33, 173.95 231.5, 173.87 231.67, 173.79 231.83, 173.71 232.0, 173.63 232.17, 173.55 232.33, 173.48 232.5, 173.4 232.67, 173.32 232.83, 173.25 233.0, 173.18 233.17, 173.1 233.33, 173.03 233.5, 172.96 233.67, 172.89 233.83, 172.82 234.0, 172.76 234.17, 172.69 234.33, 172.62 234.5, 172.56 234.67, 172.49 234.83, 172.43 235.0, 172.37 235.17, 172.31 235.33, 172.25 235.5, 172.19 235.67, 172.13 235.83, 172.07 236.0, 172.02 236.17, 171.96 236.33, 171.91 236.5, 171.86 236.67, 171.81 236.83, 171.76 237.0, 171.71 237.17, 171.66 237.33, 171.61 237.5, 171.56 237.67, 171.52 237.83, 171.47 238.0, 171.43 238.17, 171.39 238.33, 171.35 238.5, 171.31 238.67, 171.27 238.83, 171.23 239.0, 171.2 239.17, 171.16 239.33, 171.13 239.5, 171.09 239.67, 171.06 239.83, 171.03 240.0, 171.0 240.17, 170.97 240.33, 170.94 240.5, 170.92 240.67, 170.89 240.83, 170.87 241.0, 170.85 241.17, 170.82 241.33, 170.8 241.5, 170.78 241.67, 170.77 241.83, 170.75 242.0, 170.73 242.17, 170.72 242.33, 170.71 242.5, 170.69 242.67, 170.68 242.83, 170.67 243.0, 170.67 243.17, 170.66 243.33, 170.65 243.5, 170.65 243.67, 170.64 243.83, 170.64 244.0, 170.64 244.17, 170.64 244.33, 170.64 244.5, 170.65 244.67, 170.65 244.83, 170.66 245.0, 170.66 245.17, 170.67 245.33, 170.68 245.5, 170.69 245.67, 170.7 245.83, 170.72 246.0, 170.73 246.17, 170.75 246.33, 170.76 246.5, 170.78 246.67, 170.8 246.83, 170.82 247.0, 170.84 247.17, 170.87 247.33, 170.89 247.5, 170.92 247.67, 170.95 247.83, 170.98 248.0, 171.01 248.17, 171.04 248.33, 171.07 248.5, 171.11 248.67, 171.14 248.83, 171.18 249.0, 171.22 249.17, 171.26 249.33, 171.3 249.5, 171.35 249.67, 171.39 249.83, 171.44 250.0, 171.48 250.17, 171.53 250.33, 171.58 250.5, 171.64 250.67, 171.69 250.83, 171.74 251.0, 171.8 251.17, 171.86 251.33, 171.92 251.5, 171.98 251.67, 172.04 251.83, 172.1 252.0, 172.17 252.17, 172.23 252.33, 172.3 252.5, 172.37 252.67, 172.44 252.83, 172.51 253.0, 172.59 253.17, 172.66 253.33, 172.74 253.5, 172.82 253.67, 172.9 253.83, 172.98 254.0, 173.06 254.17, 173.15 254.33, 173.24 254.5, 173.32 254.67, 173.41 254.83, 173.5 255.0, 173.6 255.17, 173.69 255.33, 173.79 255.5, 173.88 255.67, 173.98 255.83, 174.08 256.0, 174.18 256.17, 174.29 256.33, 174.39 256.5, 174.5 256.67, 174.61 256.83, 174.72 257.0, 174.83 257.17, 174.94 257.33, 175.06 257.5, 175.18 257.67, 175.29 257.83, 175.41 258.0, 175.53 258.17, 175.66 258.33, 175.78 258.5, 175.91 258.67, 176.04 258.83, 176.17 259.0, 176.3 259.17, 176.43 259.33, 176.57 259.5, 176.7 259.67, 176.84 259.83, 176.98 260.0, 177.12 260.17, 177.27 260.33, 177.41 260.5, 177.56 260.67, 177.71 260.83, 177.86 261.0, 178.01 261.17, 178.17 261.33, 178.32 261.5, 178.48 261.67, 178.64 261.83, 178.8 262.0, 178.96 262.17, 179.13 262.33, 179.29 262.5, 179.46 262.67, 179.63 262.83, 179.8 263.0, 179.98 263.17, 180.15 263.33, 180.33 263.5, 180.51 263.67, 180.69 263.83, 180.87 264.0, 181.06 264.17, 181.24 264.33, 181.43 264.5, 181.62 264.67, 181.81 264.83, 182.01 265.0, 182.2 265.17, 182.4 265.33, 182.6 265.5, 182.8 265.67, 183.0 265.83, 183.21 266.0, 183.41 266.17, 183.62 266.33, 183.83 266.5, 184.04 266.67, 184.26 266.83, 184.48 267.0, 184.69 267.17, 184.91 267.33, 185.14 267.5, 185.36 267.67, 185.59 267.83, 185.81 268.0, 186.04 268.17, 186.27 268.33, 186.51 268.5, 186.74 268.67, 186.98 268.83, 187.22 269.0, 187.46 269.17, 187.71 269.33, 187.95 269.5, 188.2 269.67, 188.45 269.83, 188.7 270.0, 188.95 270.17, 189.21 270.33, 189.47 270.5, 189.73 270.67, 189.99 270.83, 190.25 271.0, 190.52 271.17, 190.78 271.33, 191.05 271.5, 191.32 271.67, 191.6 271.83, 191.87 272.0, 192.15 272.17, 192.43 272.33, 192.71 272.5, 193.0 272.67, 193.28 272.83, 193.57 273.0, 193.86 273.17, 194.15 273.33, 194.45 273.5, 194.75 273.67, 195.04 273.83, 195.35 274.0, 195.65 274.17, 195.95 274.33, 196.26 274.5, 196.57 274.67, 196.88 274.83, 197.19 275.0, 197.51 275.17, 197.83 275.33, 198.15 275.5, 198.47 275.67, 198.79 275.83, 199.12 276.0, 199.45 276.17, 199.78 276.33, 200.11 276.5, 200.45 276.67, 200.79 276.83, 201.12 277.0, 201.47 277.17, 201.81 277.33, 202.16 277.5, 202.51 277.67, 202.86 277.83, 203.21 278.0, 203.56 278.17, 203.92 278.33, 204.28 278.5, 204.64 278.67, 205.01 278.83, 205.37 279.0, 205.74 279.17, 206.11 279.33, 206.48 279.5, 206.86 279.67, 207.24 279.83, 207.62 280.0, 208.0 280.17, 208.38 280.33, 208.77 280.5, 209.16 280.67, 209.55 280.83, 209.95 281.0, 210.34 281.17, 210.74 281.33, 211.14 281.5, 211.54 281.67, 211.95 281.83, 212.36 282.0, 212.77 282.17, 213.18 282.33, 213.59 282.5, 214.01 282.67, 214.43 282.83, 214.85 283.0, 215.28 283.17, 215.7 283.33, 216.13 283.5, 216.56 283.67, 217.0 283.83, 217.43 284.0, 217.87 284.17, 218.31 284.33, 218.76 284.5, 219.2 284.67, 219.65 284.83, 220.1 285.0, 220.55 285.17, 221.01 285.33, 221.47 285.5, 221.93 285.67, 222.39 285.83, 222.85 286.0, 223.32 286.17, 223.79 286.33, 224.26 286.5, 224.74 286.67, 225.22 286.83, 225.7 287.0, 226.18 287.17, 226.67 287.33, 227.15 287.5, 227.64 287.67, 228.14 287.83, 228.63 288.0, 229.13 288.17, 229.63 288.33, 230.13 288.5, 230.64 288.67, 231.14 288.83, 231.65 289.0, 232.17 289.17, 232.68 289.33, 233.2 289.5, 233.72 289.67, 234.24 289.83, 234.77 290.0, 235.3 290.17, 235.83 290.33, 236.36 290.5, 236.9 290.67, 237.44 290.83, 237.98 291.0, 238.52 291.17, 239.07 291.33, 239.62 291.5, 240.17 291.67, 240.72 291.83, 241.28 292.0, 241.84 292.17, 242.4 292.33, 242.96 292.5, 243.53 292.67, 244.1 292.83, 244.67 293.0, 245.25 293.17, 245.83 293.33, 246.41 293.5, 246.99 293.67, 247.58 293.83, 248.17 294.0, 248.76 294.17, 249.35 294.33, 249.95 294.5, 250.55 294.67, 251.15 294.83, 251.75 295.0, 252.36 295.17, 252.97 295.33, 253.58 295.5, 254.2 295.67, 254.82 295.83, 255.44 296.0, 256.06 296.17, 256.69 296.33, 257.32 296.5, 257.95 296.67, 258.59 296.83, 259.23 297.0, 259.87 297.17, 260.51 297.33, 261.16 297.5, 261.8 297.67, 262.46 297.83, 263.11 298.0, 263.77 298.17, 264.43 298.33, 265.09 298.5, 265.76 298.67, 266.42 298.83, 267.1 299.0, 267.77 299.17, 268.45 299.33, 269.13 299.5, 269.81 299.67, 270.5 299.83, 271.18 300.0, 271.88 300.17, 272.57 300.33, 273.27 300.5, 273.97 300.67, 274.67 300.83, 275.37 301.0, 276.08 301.17, 276.79 301.33, 277.51 301.5, 278.23 301.67, 278.95 301.83, 279.67 302.0, 280.4 302.17, 281.12 302.33, 281.86 302.5, 282.59 302.67, 283.33 302.83, 284.07 303.0, 284.81 303.17, 285.56 303.33, 286.31 303.5, 287.06 303.67, 287.82 303.83, 288.57 304.0, 289.34 304.17, 290.1 304.33, 290.87 304.5, 291.64 304.67, 292.41 304.83, 293.19 305.0, 293.97 305.17, 294.75 305.33, 295.53 305.5, 296.32 305.67, 297.11 305.83, 297.91 306.0, 298.71 306.17, 299.51 306.33, 300.31 306.5, 301.12 306.67, 301.93 306.83, 302.74 307.0, 303.55 307.17, 304.37 307.33, 305.19 307.5, 306.02 307.67, 306.85 307.83, 307.68 308.0, 308.51 308.17, 309.35 308.33, 310.19 308.5, 311.03 308.67, 311.88 308.83, 312.73 309.0, 313.58 309.17, 314.44 309.33, 315.3 309.5, 316.16 309.67, 317.03 309.83, 317.89 310.0, 318.77 310.17, 319.64 310.33, 320.52 310.5, 321.4 310.67, 322.28 310.83, 323.17 311.0, 324.06 311.17, 324.96 311.33, 325.85 311.5, 326.75 311.67, 327.66 311.83, 328.56 312.0, 329.47 312.17, 330.38 312.33, 331.3 312.5, 332.22 312.67, 333.14 312.83, 334.07 313.0, 335.0 313.17, 335.93 313.33, 336.87 313.5, 337.8 313.67, 338.75 313.83, 339.69 314.0, 340.64 314.17, 341.59 314.33, 342.55 314.5, 343.51 314.67, 344.47 314.83, 345.43 315.0, 346.4 315.17, 347.37 315.33, 348.35 315.5, 349.32 315.67, 350.31 315.83, 351.29 316.0, 352.28 316.17, 353.27 316.33, 354.27 316.5, 355.26 316.67, 356.26 316.83, 357.27 317.0, 358.28 317.17, 359.29 317.33, 360.3 317.5, 361.32 317.67, 362.34 317.83, 363.37 318.0, 364.4 318.17, 365.43 318.33, 366.46 318.5, 367.5 318.67, 368.54 318.83, 369.59 319.0, 370.64 319.17, 371.69 319.33, 372.74 319.5, 373.8 319.67, 374.87 319.83, 375.93 320.0, 377.0 320.17, 378.07 320.33, 379.15 320.5, 380.23 320.67, 381.31 320.83, 382.4 321.0, 383.49 321.17, 384.58 321.33, 385.68 321.5, 386.78 321.67, 387.88 321.83, 388.99 322.0, 390.1 322.17, 391.21 322.33, 392.33 322.5, 393.45 322.67, 394.58 322.83, 395.7 323.0, 396.84 323.17, 397.97 323.33, 399.11 323.5, 400.25 323.67, 401.4 323.83, 402.55 324.0, 403.7 324.17, 404.86 324.33, 406.02 324.5, 407.18 324.67, 408.35 324.83, 409.52 325.0, 410.69 325.17, 411.87 325.33, 413.05 325.5, 414.24 325.67, 415.43 325.83, 416.62 326.0, 417.81 326.17, 419.01 326.33, 420.22 326.5, 421.42 326.67, 422.63 326.83, 423.85 327.0, 425.07 327.17, 426.29 327.33, 427.51 327.5, 428.74 327.67, 429.97 327.83, 431.21 328.0, 432.45 328.17, 433.69 328.33, 434.94 328.5, 436.19 328.67, 437.44 328.83, 438.7 329.0, 439.96 329.17, 441.23 329.33, 442.5 329.5, 443.77 329.67, 445.05 329.83, 446.33 330.0, 447.61 330.17, 448.9 330.33, 450.19 330.5, 451.48 330.67, 452.78 330.83, 454.08 331.0, 455.39 331.17, 456.7 331.33, 458.01 331.5, 459.33 331.67, 460.65 331.83, 461.98 332.0, 463.31 332.17, 464.64 332.33, 465.98 332.5, 467.32 332.67, 468.66 332.83, 470.01 333.0, 471.36 333.17, 472.71 333.33, 474.07 333.5, 475.44 333.67, 476.8 333.83, 478.17 334.0, 479.55 334.17, 480.93 334.33, 482.31 334.5, 483.7 334.67, 485.09 334.83, 486.48 335.0, 487.88 335.17, 489.28 335.33, 490.68 335.5, 492.09 335.67, 493.51 335.83, 494.92 336.0, 496.34 336.17, 497.77 336.33, 499.2 336.5, 500.63 336.67, 502.07 336.83, 503.51 337.0, 504.95 337.17, 506.4 337.33, 507.85 337.5, 509.31 337.67, 510.77 337.83, 512.23 338.0, 513.7 338.17, 515.17 338.33, 516.65 338.5, 518.13 338.67, 519.61 338.83, 521.1 339.0, 522.59 339.17, 524.09 339.33, 525.59 339.5, 527.09 339.67, 528.6 339.83, 530.11 340.0, 531.63 340.17, 533.14 340.33, 534.67 340.5, 536.2 340.67, 537.73 340.83, 539.26 341.0, 540.8 341.17, 542.35 341.33, 543.9 341.5, 545.45 341.67, 547.0 341.83, 548.56 342.0, 550.13 342.17, 551.7 342.33, 553.27 342.5, 554.84 342.67, 556.42 342.83, 558.01 343.0, 559.6 343.17, 561.19 343.33, 562.79 343.5, 564.39 343.67, 565.99 343.83, 567.6 344.0, 569.22 344.17, 570.83 344.33, 572.45 344.5, 574.08 344.67, 575.71 344.83, 577.34 345.0, 578.98 345.17, 580.62 345.33, 582.27 345.5, 583.92 345.67, 585.58 345.83, 587.24 346.0, 588.9 346.17, 590.57 346.33, 592.24 346.5, 593.91 346.67, 595.59 346.83, 597.28 347.0, 598.96 347.17, 600.66 347.33, 602.35 347.5, 604.05 347.67, 605.76 347.83, 607.47 348.0, 609.18 348.17, 610.9 348.33, 612.62 348.5, 614.35 348.67, 616.08 348.83, 617.81 349.0, 619.55 349.17, 621.3 349.33, 623.04 349.5, 624.8 349.67, 626.55 349.83, 628.31 350.0, 630.08 350.17, 631.85 350.33, 633.62 350.5, 635.4 350.67, 637.18 350.83, 638.97 351.0, 640.76 351.17, 642.55 351.33, 644.35 351.5, 646.16 351.67, 647.96 351.83, 649.78 352.0, 651.59 352.17, 653.41 352.33, 655.24 352.5, 657.07 352.67, 658.9 352.83, 660.74 353.0, 662.58 353.17, 664.43 353.33, 666.28 353.5, 668.14 353.67, 670.0 353.83, 671.86 354.0, 673.73 354.17, 675.61 354.33, 677.48 354.5, 679.37 354.67, 681.25 354.83, 683.15 355.0, 685.04 355.17, 686.94 355.33, 688.85 355.5, 690.75 355.67, 692.67 355.83, 694.59 356.0, 696.51 356.17, 698.44 356.33, 700.37 356.5, 702.3 356.67, 704.24 356.83, 706.19 357.0, 708.14 357.17, 710.09 357.33, 712.05 357.5, 714.01 357.67, 715.98 357.83, 717.95 358.0, 719.93 358.17, 721.91 358.33, 723.9 358.5, 725.89 358.67, 727.88 358.83, 729.88 359.0, 731.88 359.17, 733.89 359.33, 735.9 359.5, 737.92 359.67, 739.94 359.83, 741.97 360.0, 744.0 360.17, 746.04 360.33, 748.08 360.5, 750.12 360.67, 752.17 360.83, 754.22 361.0, 756.28 361.17, 758.35 361.33, 760.41 361.5, 762.49 361.67, 764.56 361.83, 766.65 362.0, 768.73 362.17, 770.82 362.33, 772.92 362.5, 775.02 362.67, 777.12 362.83, 779.23 363.0, 781.35 363.17, 783.47 363.33, 785.59 363.5, 787.72 363.67, 789.85 363.83, 791.99 364.0, 794.13 364.17, 796.28 364.33, 798.43 364.5, 800.59 364.67, 802.75 364.83, 804.91 365.0, 807.08 365.17, 809.26 365.33, 811.44 365.5, 813.62 365.67, 815.81 365.83, 818.01 366.0, 820.21 366.17, 822.41 366.33, 824.62 366.5, 826.83 366.67, 829.05 366.83, 831.27 367.0, 833.5 367.17, 835.73 367.33, 837.97 367.5, 840.21 367.67, 842.46 367.83, 844.71 368.0, 846.97 368.17, 849.23 368.33, 851.5 368.5, 853.77 368.67, 856.04 368.83, 858.32 369.0, 860.61 369.17, 862.9 369.33, 865.19 369.5, 867.49 369.67, 869.8 369.83, 872.11 370.0, 874.42 370.17, 876.74 370.33, 879.07 370.5, 881.39 370.67, 883.73 370.83, 886.07 371.0, 888.41 371.17, 890.76 371.33, 893.11 371.5, 895.47 371.67, 897.84 371.83, 900.2 372.0, 902.58 372.17, 904.96 372.33, 907.34 372.5, 909.73 372.67, 912.12 372.83, 914.52 373.0, 916.92 373.17, 919.33 373.33, 921.74 373.5, 924.16 373.67, 926.58 373.83, 929.01 374.0, 931.44 374.17, 933.88 374.33, 936.32 374.5, 938.77 374.67, 941.22 374.83, 943.68 375.0, 946.14 375.17, 948.61 375.33, 951.08 375.5, 953.56 375.67, 956.04 375.83, 958.53 376.0, 961.02 376.17, 963.52 376.33, 966.02 376.5, 968.53 376.67, 971.05 376.83, 973.56 377.0, 976.09 377.17, 978.62 377.33, 981.15 377.5, 983.69 377.67, 986.23 377.83, 988.78 378.0, 991.33 378.17, 993.89 378.33, 996.45 378.5, 999.02 378.67, 1001.6 378.83, 1004.18 379.0, 1006.76 379.17, 1009.35 379.33, 1011.95 379.5, 1014.55 379.67, 1017.15 379.83, 1019.76 380.0, 1022.38 380.17, 1025.0 380.33, 1027.62 380.5, 1030.25 380.67, 1032.89 380.83, 1035.53 381.0, 1038.17 381.17, 1040.83 381.33, 1043.48 381.5, 1046.14 381.67, 1048.81 381.83, 1051.48 382.0, 1054.16 382.17, 1056.84 382.33, 1059.53 382.5, 1062.22 382.67, 1064.92 382.83, 1067.63 383.0, 1070.33 383.17, 1073.05 383.33, 1075.77 383.5, 1078.49 383.67, 1081.22 383.83, 1083.96 384.0, 1086.7 384.17, 1089.44 384.33, 1092.19 384.5, 1094.95 384.67, 1097.71 384.83, 1100.48 385.0, 1103.25 385.17, 1106.03 385.33, 1108.81 385.5, 1111.6 385.67, 1114.39 385.83, 1117.19 386.0, 1119.99 386.17, 1122.8 386.33, 1125.61 386.5, 1128.43 386.67, 1131.26 386.83, 1134.09 387.0, 1136.93 387.17, 1139.77 387.33, 1142.61 387.5, 1145.47 387.67, 1148.32 387.83, 1151.18 388.0, 1154.05 388.17, 1156.93 388.33, 1159.81 388.5, 1162.69 388.67, 1165.58 388.83, 1168.47 389.0, 1171.37 389.17, 1174.28 389.33, 1177.19 389.5, 1180.11 389.67, 1183.03 389.83, 1185.96 390.0, 1188.89 390.17, 1191.83 390.33, 1194.77 390.5, 1197.72 390.67, 1200.68 390.83, 1203.64 391.0, 1206.6 391.17, 1209.57 391.33, 1212.55 391.5, 1215.53 391.67, 1218.52 391.83, 1221.51 392.0, 1224.51 392.17, 1227.52 392.33, 1230.53 392.5, 1233.54 392.67, 1236.56 392.83, 1239.59 393.0, 1242.62 393.17, 1245.66 393.33, 1248.7 393.5, 1251.75 393.67, 1254.8 393.83, 1257.86 394.0, 1260.93 394.17, 1264.0 394.33, 1267.07 394.5, 1270.15 394.67, 1273.24 394.83, 1276.33 395.0, 1279.43 395.17, 1282.54 395.33, 1285.65 395.5, 1288.76 395.67, 1291.88 395.83, 1295.01 396.0, 1298.14 396.17, 1301.28 396.33, 1304.42 396.5, 1307.57 396.67, 1310.72 396.83, 1313.88 397.0, 1317.05 397.17, 1320.22 397.33, 1323.4 397.5, 1326.58 397.67, 1329.77 397.83, 1332.96 398.0, 1336.16 398.17, 1339.37 398.33, 1342.58 398.5, 1345.79 398.67, 1349.02 398.83, 1352.24 399.0, 1355.48 399.17, 1358.72 399.33, 1361.96 399.5, 1365.21 399.67, 1368.47 399.83, 1371.73 400.0, 1375.0 " fill="none" stroke="white" stroke-width="1.5" stroke-linejoin="round" stroke-opacity="1"/>

 </svg>