<svg version="1.1" 
 baseProfile="full" 
 width="400" 
 height="400" 
 xmlns="http://www.w3.org/2000/svg">
<rect x="0.0" y="0.0" width="400" height="400" fill="black" stroke="black" stroke-width="0" opacity="1"/>
<line x1="0.0" y1="0.0" x2="0.0" y2="400.0" stroke="white" stroke-width="1" opacity="0.4" stroke-linecap="butt"/>
<line x1="40.0" y1="0.0" x2="40.0" y2="400.0" stroke="white" stroke-width="1" opacity="0.4" stroke-linecap="butt"/>
<line x1="80.0" y1="0.0" x2="80.0" y2="400.0" stroke="white" stroke-width="1" opacity="0.4" stroke-linecap="butt"/>
<line x1="120.0" y1="0.0" x2="120.0" y2="400.0" stroke="white" stroke-width="1" opacity="0.4" stroke-linecap="butt"/>
<line x1="160.0" y1="0.0" x2="160.0" y2="400.0" stroke="white" stroke-width="1" opacity="0.4" stroke-linecap="butt"/>
<line x1="200.0" y1="0.0" x2="200.0" y2="400.0" stroke="white" stroke-width="1" opacity="0.4" stroke-linecap="butt"/>
<line x1="240.0" y1="0.0" x2="240.0" y2="400.0" stroke="white" stroke-width="1" opacity="0.4" stroke-linecap="butt"/>
<line x1="280.0" y1="0.0" x2="280.0" y2="400.0" stroke="white" stroke-width="1" opacity="0.4" stroke-linecap="butt"/>
<line x1="320.0" y1="0.0" x2="320.0" y2="400.0" stroke="white" stroke-width="1" opacity="0.4" stroke-linecap="butt"/>
<line x1="360.0" y1="0.0" x2="360.0" y2="400.0" stroke="white" stroke-width="1" opacity="0.4" stroke-linecap="butt"/>
<line x1="0.0" y1="0.0" x2="400.0" y2="0.0" stroke="white" stroke-width="1" opacity="0.4" stroke-linecap="butt"/>
<line x1="0.0" y1="40.0" x2="400.0" y2="40.0" stroke="white" stroke-width="1" opacity="0.4" stroke-linecap="butt"/>
<line x1="0.0" y1="80.0" x2="400.0" y2="80.0" stroke="white" stroke-width="1" opacity="0.4" stroke-linecap="butt"/>
<line x1="0.0" y1="120.0" x2="400.0" y2="120.0" stroke="white" stroke-width="1" opacity="0.4" stroke-linecap="butt"/>
<line x1="0.0" y1="160.0" x2="400.0" y2="160.0" stroke="white" stroke-width="1" opacity="0.4" stroke-linecap="butt"/>
<line x1="0.0" y1="200.0" x2="400.0" y2="200.0" stroke="white" stroke-width="1" opacity="0.4" stroke-linecap="butt"/>
<line x1="0.0" y1="240.0" x2="400.0" y2="240.0" stroke="white" stroke-width="1" opacity="0.4" stroke-linecap="butt"/>
<line x1="0.0" y1="280.0" x2="400.0" y2="280.0" stroke="white" stroke-width="1" opacity="0.4" stroke-linecap="butt"/>
<line x1="0.0" y1="320.0" x2="400.0" y2="320.0" stroke="white" stroke-width="1" opacity="0.4" stroke-linecap="butt"/>
<line x1="0.0" y1="360.0" x2="400.0" y2="360.0" stroke="white" stroke-width="1" opacity="0.4" stroke-linecap="butt"/>
<line x1="0.0" y1="200.0" x2="400.0" y2="200.0" stroke="yellow" stroke-width="2.5" opacity="1" stroke-linecap="butt"/>
<line x1="200.0" y1="0.0" x2="200.0" y2="400.0" stroke="yellow" stroke-width="2.5" opacity="1" stroke-linecap="butt"/>
<polygon points="391.0 204.0, 401.0 200.0, 391.0 196.0, 393.0 200.0" fill="yellow"/><polygon points="204.0 9.0, 200.0 -1.0, 196.0 9.0, 200.0 7.0" fill="yellow"/><image x="-60.0" y="-60.0" width="200" height="200" href="/Users/girirajhira/PycharmProjects/Giraphics3/Taylor/expr.png"/><polyline points="0.0, -1016.67 0.17, -1013.29 0.33, -1009.93 0.5, -1006.57 0.67, -1003.21 0.83, -999.87 1.0, -996.52 1.17, -993.19 1.33, -989.86 1.5, -986.53 1.67, -983.21 1.83, -979.9 2.0, -976.59 2.17, -973.29 2.33, -969.99 2.5, -966.7 2.67, -963.42 2.83, -960.14 3.0, -956.87 3.17, -953.6 3.33, -950.34 3.5, -947.09 3.67, -943.84 3.83, -940.59 4.0, -937.36 4.17, -934.12 4.33, -930.9 4.5, -927.68 4.67, -924.46 4.83, -921.25 5.0, -918.05 5.17, -914.85 5.33, -911.66 5.5, -908.48 5.67, -905.3 5.83, -902.12 6.0, -898.95 6.17, -895.79 6.33, -892.63 6.5, -889.48 6.67, -886.34 6.83, -883.2 7.0, -880.06 7.17, -876.93 7.33, -873.81 7.5, -870.69 7.67, -867.58 7.83, -864.48 8.0, -861.38 8.17, -858.28 8.33, -855.19 8.5, -852.11 8.67, -849.03 8.83, -845.96 9.0, -842.89 9.17, -839.83 9.33, -836.78 9.5, -833.73 9.67, -830.69 9.83, -827.65 10.0, -824.61 10.17, -821.59 10.33, -818.57 10.5, -815.55 10.67, -812.54 10.83, -809.54 11.0, -806.54 11.17, -803.54 11.33, -800.56 11.5, -797.57 11.67, -794.6 11.83, -791.63 12.0, -788.66 12.17, -785.7 12.33, -782.75 12.5, -779.8 12.67, -776.85 12.83, -773.92 13.0, -770.98 13.17, -768.06 13.33, -765.14 13.5, -762.22 13.67, -759.31 13.83, -756.41 14.0, -753.51 14.17, -750.61 14.33, -747.72 14.5, -744.84 14.67, -741.96 14.83, -739.09 15.0, -736.23 15.17, -733.36 15.33, -730.51 15.5, -727.66 15.67, -724.81 15.83, -721.98 16.0, -719.14 16.17, -716.31 16.33, -713.49 16.5, -710.67 16.67, -707.86 16.83, -705.05 17.0, -702.25 17.17, -699.46 17.33, -696.67 17.5, -693.88 17.67, -691.1 17.83, -688.33 18.0, -685.56 18.17, -682.8 18.33, -680.04 18.5, -677.28 18.67, -674.54 18.83, -671.8 19.0, -669.06 19.17, -666.33 19.33, -663.6 19.5, -660.88 19.67, -658.16 19.83, -655.45 20.0, -652.75 20.17, -650.05 20.33, -647.36 20.5, -644.67 20.67, -641.98 20.83, -639.31 21.0, -636.63 21.17, -633.97 21.33, -631.3 21.5, -628.65 21.67, -625.99 21.83, -623.35 22.0, -620.71 22.17, -618.07 22.33, -615.44 22.5, -612.81 22.67, -610.19 22.83, -607.58 23.0, -604.97 23.17, -602.36 23.33, -599.76 23.5, -597.17 23.67, -594.58 23.83, -592.0 24.0, -589.42 24.17, -586.85 24.33, -584.28 24.5, -581.71 24.67, -579.16 24.83, -576.6 25.0, -574.06 25.17, -571.51 25.33, -568.98 25.5, -566.44 25.67, -563.92 25.83, -561.4 26.0, -558.88 26.17, -556.37 26.33, -553.86 26.5, -551.36 26.67, -548.86 26.83, -546.37 27.0, -543.89 27.17, -541.41 27.33, -538.93 27.5, -536.46 27.67, -533.99 27.83, -531.53 28.0, -529.08 28.17, -526.63 28.33, -524.18 28.5, -521.74 28.67, -519.31 28.83, -516.88 29.0, -514.45 29.17, -512.03 29.33, -509.62 29.5, -507.21 29.67, -504.8 29.83, -502.41 30.0, -500.01 30.17, -497.62 30.33, -495.24 30.5, -492.86 30.67, -490.48 30.83, -488.11 31.0, -485.75 31.17, -483.39 31.33, -481.03 31.5, -478.68 31.67, -476.34 31.83, -474.0 32.0, -471.66 32.17, -469.33 32.33, -467.01 32.5, -464.69 32.67, -462.37 32.83, -460.06 33.0, -457.76 33.17, -455.46 33.33, -453.16 33.5, -450.87 33.67, -448.59 33.83, -446.31 34.0, -444.03 34.17, -441.76 34.33, -439.5 34.5, -437.23 34.67, -434.98 34.83, -432.73 35.0, -430.48 35.17, -428.24 35.33, -426.0 35.5, -423.77 35.67, -421.54 35.83, -419.32 36.0, -417.1 36.17, -414.89 36.33, -412.68 36.5, -410.48 36.67, -408.28 36.83, -406.09 37.0, -403.9 37.17, -401.72 37.33, -399.54 37.5, -397.37 37.67, -395.2 37.83, -393.03 38.0, -390.87 38.17, -388.72 38.33, -386.57 38.5, -384.43 38.67, -382.28 38.83, -380.15 39.0, -378.02 39.17, -375.89 39.33, -373.77 39.5, -371.65 39.67, -369.54 39.83, -367.44 40.0, -365.33 40.17, -363.24 40.33, -361.14 40.5, -359.05 40.67, -356.97 40.83, -354.89 41.0, -352.82 41.17, -350.75 41.33, -348.68 41.5, -346.62 41.67, -344.57 41.83, -342.52 42.0, -340.47 42.17, -338.43 42.33, -336.39 42.5, -334.36 42.67, -332.33 42.83, -330.31 43.0, -328.29 43.17, -326.28 43.33, -324.27 43.5, -322.27 43.67, -320.27 43.83, -318.27 44.0, -316.28 44.17, -314.3 44.33, -312.32 44.5, -310.34 44.67, -308.37 44.83, -306.4 45.0, -304.44 45.17, -302.48 45.33, -300.52 45.5, -298.58 45.67, -296.63 45.83, -294.69 46.0, -292.76 46.17, -290.82 46.33, -288.9 46.5, -286.98 46.67, -285.06 46.83, -283.15 47.0, -281.24 47.17, -279.33 47.33, -277.43 47.5, -275.54 47.67, -273.65 47.83, -271.76 48.0, -269.88 48.17, -268.01 48.33, -266.13 48.5, -264.27 48.67, -262.4 48.83, -260.54 49.0, -258.69 49.17, -256.84 49.33, -254.99 49.5, -253.15 49.67, -251.32 49.83, -249.48 50.0, -247.66 50.17, -245.83 50.33, -244.01 50.5, -242.2 50.67, -240.39 50.83, -238.58 51.0, -236.78 51.17, -234.99 51.33, -233.19 51.5, -231.41 51.67, -229.62 51.83, -227.84 52.0, -226.07 52.17, -224.3 52.33, -222.53 52.5, -220.77 52.67, -219.01 52.83, -217.26 53.0, -215.51 53.17, -213.76 53.33, -212.02 53.5, -210.29 53.67, -208.56 53.83, -206.83 54.0, -205.11 54.17, -203.39 54.33, -201.67 54.5, -199.96 54.67, -198.26 54.83, -196.56 55.0, -194.86 55.17, -193.17 55.33, -191.48 55.5, -189.8 55.67, -188.12 55.83, -186.44 56.0, -184.77 56.17, -183.1 56.33, -181.44 56.5, -179.78 56.67, -178.12 56.83, -176.47 57.0, -174.83 57.17, -173.19 57.33, -171.55 57.5, -169.92 57.67, -168.29 57.83, -166.66 58.0, -165.04 58.17, -163.42 58.33, -161.81 58.5, -160.2 58.67, -158.6 58.83, -157.0 59.0, -155.4 59.17, -153.81 59.33, -152.22 59.5, -150.64 59.67, -149.06 59.83, -147.49 60.0, -145.92 60.17, -144.35 60.33, -142.79 60.5, -141.23 60.67, -139.67 60.83, -138.12 61.0, -136.58 61.17, -135.04 61.33, -133.5 61.5, -131.96 61.67, -130.43 61.83, -128.91 62.0, -127.39 62.17, -125.87 62.33, -124.36 62.5, -122.85 62.67, -121.34 62.83, -119.84 63.0, -118.34 63.17, -116.85 63.33, -115.36 63.5, -113.88 63.67, -112.4 63.83, -110.92 64.0, -109.45 64.17, -107.98 64.33, -106.51 64.5, -105.05 64.67, -103.59 64.83, -102.14 65.0, -100.69 65.17, -99.25 65.33, -97.81 65.5, -96.37 65.67, -94.94 65.83, -93.51 66.0, -92.08 66.17, -90.66 66.33, -89.24 66.5, -87.83 66.67, -86.42 66.83, -85.01 67.0, -83.61 67.17, -82.22 67.33, -80.82 67.5, -79.43 67.67, -78.05 67.83, -76.66 68.0, -75.29 68.17, -73.91 68.33, -72.54 68.5, -71.18 68.67, -69.81 68.83, -68.45 69.0, -67.1 69.17, -65.75 69.33, -64.4 69.5, -63.06 69.67, -61.72 69.83, -60.38 70.0, -59.05 70.17, -57.72 70.33, -56.4 70.5, -55.08 70.67, -53.76 70.83, -52.45 71.0, -51.14 71.17, -49.84 71.33, -48.54 71.5, -47.24 71.67, -45.95 71.83, -44.66 72.0, -43.37 72.17, -42.09 72.33, -40.81 72.5, -39.54 72.67, -38.26 72.83, -37.0 73.0, -35.73 73.17, -34.47 73.33, -33.22 73.5, -31.97 73.67, -30.72 73.83, -29.47 74.0, -28.23 74.17, -27.0 74.33, -25.76 74.5, -24.53 74.67, -23.31 74.83, -22.08 75.0, -20.87 75.17, -19.65 75.33, -18.44 75.5, -17.23 75.67, -16.03 75.83, -14.83 76.0, -13.63 76.17, -12.44 76.33, -11.25 76.5, -10.06 76.67, -8.88 76.83, -7.7 77.0, -6.53 77.17, -5.36 77.33, -4.19 77.5, -3.03 77.67, -1.87 77.83, -0.71 78.0, 0.44 78.17, 1.59 78.33, 2.74 78.5, 3.88 78.67, 5.02 78.83, 6.15 79.0, 7.29 79.17, 8.41 79.33, 9.54 79.5, 10.66 79.67, 11.78 79.83, 12.89 80.0, 14.0 80.17, 15.11 80.33, 16.21 80.5, 17.31 80.67, 18.41 80.83, 19.5 81.0, 20.59 81.17, 21.67 81.33, 22.75 81.5, 23.83 81.67, 24.91 81.83, 25.98 82.0, 27.05 82.17, 28.11 82.33, 29.17 82.5, 30.23 82.67, 31.28 82.83, 32.33 83.0, 33.38 83.17, 34.42 83.33, 35.46 83.5, 36.5 83.67, 37.53 83.83, 38.56 84.0, 39.59 84.17, 40.61 84.33, 41.63 84.5, 42.65 84.67, 43.66 84.83, 44.67 85.0, 45.68 85.17, 46.68 85.33, 47.68 85.5, 48.68 85.67, 49.67 85.83, 50.66 86.0, 51.64 86.17, 52.63 86.33, 53.6 86.5, 54.58 86.67, 55.55 86.83, 56.52 87.0, 57.49 87.17, 58.45 87.33, 59.41 87.5, 60.36 87.67, 61.32 87.83, 62.27 88.0, 63.21 88.17, 64.15 88.33, 65.09 88.5, 66.03 88.67, 66.96 88.83, 67.89 89.0, 68.82 89.17, 69.74 89.33, 70.66 89.5, 71.57 89.67, 72.49 89.83, 73.4 90.0, 74.3 90.17, 75.21 90.33, 76.1 90.5, 77.0 90.67, 77.89 90.83, 78.79 91.0, 79.67 91.17, 80.56 91.33, 81.44 91.5, 82.31 91.67, 83.19 91.83, 84.06 92.0, 84.93 92.17, 85.79 92.33, 86.65 92.5, 87.51 92.67, 88.36 92.83, 89.22 93.0, 90.07 93.17, 90.91 93.33, 91.75 93.5, 92.59 93.67, 93.43 93.83, 94.26 94.0, 95.09 94.17, 95.92 94.33, 96.74 94.5, 97.56 94.67, 98.38 94.83, 99.19 95.0, 100.0 95.17, 100.81 95.33, 101.62 95.5, 102.42 95.67, 103.22 95.83, 104.01 96.0, 104.81 96.17, 105.59 96.33, 106.38 96.5, 107.16 96.67, 107.94 96.83, 108.72 97.0, 109.5 97.17, 110.27 97.33, 111.04 97.5, 111.8 97.67, 112.56 97.83, 113.32 98.0, 114.08 98.17, 114.83 98.33, 115.58 98.5, 116.33 98.67, 117.07 98.83, 117.81 99.0, 118.55 99.17, 119.29 99.33, 120.02 99.5, 120.75 99.67, 121.47 99.83, 122.2 100.0, 122.92 100.17, 123.63 100.33, 124.35 100.5, 125.06 100.67, 125.77 100.83, 126.47 101.0, 127.18 101.17, 127.88 101.33, 128.57 101.5, 129.27 101.67, 129.96 101.83, 130.65 102.0, 131.33 102.17, 132.01 102.33, 132.69 102.5, 133.37 102.67, 134.04 102.83, 134.71 103.0, 135.38 103.17, 136.05 103.33, 136.71 103.5, 137.37 103.67, 138.02 103.83, 138.68 104.0, 139.33 104.17, 139.98 104.33, 140.62 104.5, 141.26 104.67, 141.9 104.83, 142.54 105.0, 143.17 105.17, 143.8 105.33, 144.43 105.5, 145.06 105.67, 145.68 105.83, 146.3 106.0, 146.92 106.17, 147.53 106.33, 148.14 106.5, 148.75 106.67, 149.36 106.83, 149.96 107.0, 150.56 107.17, 151.16 107.33, 151.75 107.5, 152.35 107.67, 152.94 107.83, 153.52 108.0, 154.11 108.17, 154.69 108.33, 155.27 108.5, 155.84 108.67, 156.42 108.83, 156.99 109.0, 157.56 109.17, 158.12 109.33, 158.68 109.5, 159.24 109.67, 159.8 109.83, 160.35 110.0, 160.91 110.17, 161.46 110.33, 162.0 110.5, 162.55 110.67, 163.09 110.83, 163.63 111.0, 164.16 111.17, 164.7 111.33, 165.23 111.5, 165.75 111.67, 166.28 111.83, 166.8 112.0, 167.32 112.17, 167.84 112.33, 168.36 112.5, 168.87 112.67, 169.38 112.83, 169.89 113.0, 170.39 113.17, 170.89 113.33, 171.39 113.5, 171.89 113.67, 172.38 113.83, 172.88 114.0, 173.37 114.17, 173.85 114.33, 174.34 114.5, 174.82 114.67, 175.3 114.83, 175.77 115.0, 176.25 115.17, 176.72 115.33, 177.19 115.5, 177.66 115.67, 178.12 115.83, 178.58 116.0, 179.04 116.17, 179.5 116.33, 179.95 116.5, 180.41 116.67, 180.85 116.83, 181.3 117.0, 181.75 117.17, 182.19 117.33, 182.63 117.5, 183.06 117.67, 183.5 117.83, 183.93 118.0, 184.36 118.17, 184.79 118.33, 185.21 118.5, 185.64 118.67, 186.06 118.83, 186.48 119.0, 186.89 119.17, 187.3 119.33, 187.71 119.5, 188.12 119.67, 188.53 119.83, 188.93 120.0, 189.33 120.17, 189.73 120.33, 190.13 120.5, 190.52 120.67, 190.91 120.83, 191.3 121.0, 191.69 121.17, 192.08 121.33, 192.46 121.5, 192.84 121.67, 193.22 121.83, 193.59 122.0, 193.96 122.17, 194.34 122.33, 194.7 122.5, 195.07 122.67, 195.43 122.83, 195.8 123.0, 196.16 123.17, 196.51 123.33, 196.87 123.5, 197.22 123.67, 197.57 123.83, 197.92 124.0, 198.26 124.17, 198.61 124.33, 198.95 124.5, 199.29 124.67, 199.63 124.83, 199.96 125.0, 200.29 125.17, 200.62 125.33, 200.95 125.5, 201.28 125.67, 201.6 125.83, 201.92 126.0, 202.24 126.17, 202.56 126.33, 202.87 126.5, 203.19 126.67, 203.5 126.83, 203.81 127.0, 204.11 127.17, 204.42 127.33, 204.72 127.5, 205.02 127.67, 205.32 127.83, 205.61 128.0, 205.9 128.17, 206.2 128.33, 206.48 128.5, 206.77 128.67, 207.06 128.83, 207.34 129.0, 207.62 129.17, 207.9 129.33, 208.18 129.5, 208.45 129.67, 208.72 129.83, 208.99 130.0, 209.26 130.17, 209.53 130.33, 209.79 130.5, 210.05 130.67, 210.31 130.83, 210.57 131.0, 210.83 131.17, 211.08 131.33, 211.33 131.5, 211.58 131.67, 211.83 131.83, 212.08 132.0, 212.32 132.17, 212.56 132.33, 212.8 132.5, 213.04 132.67, 213.27 132.83, 213.51 133.0, 213.74 133.17, 213.97 133.33, 214.2 133.5, 214.42 133.67, 214.65 133.83, 214.87 134.0, 215.09 134.17, 215.31 134.33, 215.52 134.5, 215.74 134.67, 215.95 134.83, 216.16 135.0, 216.37 135.17, 216.57 135.33, 216.78 135.5, 216.98 135.67, 217.18 135.83, 217.38 136.0, 217.58 136.17, 217.77 136.33, 217.97 136.5, 218.16 136.67, 218.35 136.83, 218.54 137.0, 218.72 137.17, 218.9 137.33, 219.09 137.5, 219.27 137.67, 219.45 137.83, 219.62 138.0, 219.8 138.17, 219.97 138.33, 220.14 138.5, 220.31 138.67, 220.48 138.83, 220.64 139.0, 220.81 139.17, 220.97 139.33, 221.13 139.5, 221.29 139.67, 221.44 139.83, 221.6 140.0, 221.75 140.17, 221.9 140.33, 222.05 140.5, 222.2 140.67, 222.34 140.83, 222.49 141.0, 222.63 141.17, 222.77 141.33, 222.91 141.5, 223.05 141.67, 223.18 141.83, 223.32 142.0, 223.45 142.17, 223.58 142.33, 223.71 142.5, 223.83 142.67, 223.96 142.83, 224.08 143.0, 224.21 143.17, 224.33 143.33, 224.44 143.5, 224.56 143.67, 224.68 143.83, 224.79 144.0, 224.9 144.17, 225.01 144.33, 225.12 144.5, 225.23 144.67, 225.33 144.83, 225.44 145.0, 225.54 145.17, 225.64 145.33, 225.74 145.5, 225.83 145.67, 225.93 145.83, 226.02 146.0, 226.12 146.17, 226.21 146.33, 226.3 146.5, 226.38 146.67, 226.47 146.83, 226.55 147.0, 226.64 147.17, 226.72 147.33, 226.8 147.5, 226.88 147.67, 226.95 147.83, 227.03 148.0, 227.1 148.17, 227.17 148.33, 227.24 148.5, 227.31 148.67, 227.38 148.83, 227.45 149.0, 227.51 149.17, 227.57 149.33, 227.63 149.5, 227.69 149.67, 227.75 149.83, 227.81 150.0, 227.86 150.17, 227.92 150.33, 227.97 150.5, 228.02 150.67, 228.07 150.83, 228.12 151.0, 228.17 151.17, 228.21 151.33, 228.26 151.5, 228.3 151.67, 228.34 151.83, 228.38 152.0, 228.42 152.17, 228.45 152.33, 228.49 152.5, 228.52 152.67, 228.55 152.83, 228.59 153.0, 228.61 153.17, 228.64 153.33, 228.67 153.5, 228.7 153.67, 228.72 153.83, 228.74 154.0, 228.76 154.17, 228.78 154.33, 228.8 154.5, 228.82 154.67, 228.84 154.83, 228.85 155.0, 228.86 155.17, 228.88 155.33, 228.89 155.5, 228.9 155.67, 228.9 155.83, 228.91 156.0, 228.92 156.17, 228.92 156.33, 228.92 156.5, 228.92 156.67, 228.92 156.83, 228.92 157.0, 228.92 157.17, 228.92 157.33, 228.91 157.5, 228.91 157.67, 228.9 157.83, 228.89 158.0, 228.88 158.17, 228.87 158.33, 228.86 158.5, 228.84 158.67, 228.83 158.83, 228.81 159.0, 228.8 159.17, 228.78 159.33, 228.76 159.5, 228.74 159.67, 228.71 159.83, 228.69 160.0, 228.67 160.17, 228.64 160.33, 228.61 160.5, 228.59 160.67, 228.56 160.83, 228.53 161.0, 228.5 161.17, 228.46 161.33, 228.43 161.5, 228.39 161.67, 228.36 161.83, 228.32 162.0, 228.28 162.17, 228.24 162.33, 228.2 162.5, 228.16 162.67, 228.12 162.83, 228.08 163.0, 228.03 163.17, 227.98 163.33, 227.94 163.5, 227.89 163.67, 227.84 163.83, 227.79 164.0, 227.74 164.17, 227.69 164.33, 227.63 164.5, 227.58 164.67, 227.52 164.83, 227.47 165.0, 227.41 165.17, 227.35 165.33, 227.29 165.5, 227.23 165.67, 227.17 165.83, 227.1 166.0, 227.04 166.17, 226.98 166.33, 226.91 166.5, 226.84 166.67, 226.77 166.83, 226.71 167.0, 226.64 167.17, 226.57 167.33, 226.49 167.5, 226.42 167.67, 226.35 167.83, 226.27 168.0, 226.2 168.17, 226.12 168.33, 226.04 168.5, 225.97 168.67, 225.89 168.83, 225.81 169.0, 225.72 169.17, 225.64 169.33, 225.56 169.5, 225.48 169.67, 225.39 169.83, 225.31 170.0, 225.22 170.17, 225.13 170.33, 225.04 170.5, 224.95 170.67, 224.86 170.83, 224.77 171.0, 224.68 171.17, 224.59 171.33, 224.5 171.5, 224.4 171.67, 224.31 171.83, 224.21 172.0, 224.11 172.17, 224.02 172.33, 223.92 172.5, 223.82 172.67, 223.72 172.83, 223.62 173.0, 223.51 173.17, 223.41 173.33, 223.31 173.5, 223.2 173.67, 223.1 173.83, 222.99 174.0, 222.89 174.17, 222.78 174.33, 222.67 174.5, 222.56 174.67, 222.45 174.83, 222.34 175.0, 222.23 175.17, 222.12 175.33, 222.01 175.5, 221.9 175.67, 221.78 175.83, 221.67 176.0, 221.55 176.17, 221.44 176.33, 221.32 176.5, 221.2 176.67, 221.08 176.83, 220.96 177.0, 220.85 177.17, 220.73 177.33, 220.6 177.5, 220.48 177.67, 220.36 177.83, 220.24 178.0, 220.11 178.17, 219.99 178.33, 219.87 178.5, 219.74 178.67, 219.61 178.83, 219.49 179.0, 219.36 179.17, 219.23 179.33, 219.1 179.5, 218.97 179.67, 218.84 179.83, 218.71 180.0, 218.58 180.17, 218.45 180.33, 218.32 180.5, 218.19 180.67, 218.05 180.83, 217.92 181.0, 217.79 181.17, 217.65 181.33, 217.51 181.5, 217.38 181.67, 217.24 181.83, 217.1 182.0, 216.97 182.17, 216.83 182.33, 216.69 182.5, 216.55 182.67, 216.41 182.83, 216.27 183.0, 216.13 183.17, 215.99 183.33, 215.85 183.5, 215.7 183.67, 215.56 183.83, 215.42 184.0, 215.27 184.17, 215.13 184.33, 214.99 184.5, 214.84 184.67, 214.69 184.83, 214.55 185.0, 214.4 185.17, 214.26 185.33, 214.11 185.5, 213.96 185.67, 213.81 185.83, 213.66 186.0, 213.51 186.17, 213.36 186.33, 213.21 186.5, 213.06 186.67, 212.91 186.83, 212.76 187.0, 212.61 187.17, 212.46 187.33, 212.31 187.5, 212.15 187.67, 212.0 187.83, 211.85 188.0, 211.69 188.17, 211.54 188.33, 211.39 188.5, 211.23 188.67, 211.08 188.83, 210.92 189.0, 210.76 189.17, 210.61 189.33, 210.45 189.5, 210.3 189.67, 210.14 189.83, 209.98 190.0, 209.82 190.17, 209.66 190.33, 209.51 190.5, 209.35 190.67, 209.19 190.83, 209.03 191.0, 208.87 191.17, 208.71 191.33, 208.55 191.5, 208.39 191.67, 208.23 191.83, 208.07 192.0, 207.91 192.17, 207.75 192.33, 207.59 192.5, 207.43 192.67, 207.26 192.83, 207.1 193.0, 206.94 193.17, 206.78 193.33, 206.61 193.5, 206.45 193.67, 206.29 193.83, 206.13 194.0, 205.96 194.17, 205.8 194.33, 205.63 194.5, 205.47 194.67, 205.31 194.83, 205.14 195.0, 204.98 195.17, 204.81 195.33, 204.65 195.5, 204.48 195.67, 204.32 195.83, 204.15 196.0, 203.99 196.17, 203.82 196.33, 203.66 196.5, 203.49 196.67, 203.33 196.83, 203.16 197.0, 203.0 197.17, 202.83 197.33, 202.66 197.5, 202.5 197.67, 202.33 197.83, 202.16 198.0, 202.0 198.17, 201.83 198.33, 201.67 198.5, 201.5 198.67, 201.33 198.83, 201.17 199.0, 201.0 199.17, 200.83 199.33, 200.67 199.5, 200.5 199.67, 200.33 199.83, 200.17 200.0, 200.0 200.17, 199.83 200.33, 199.67 200.5, 199.5 200.67, 199.33 200.83, 199.17 201.0, 199.0 201.17, 198.83 201.33, 198.67 201.5, 198.5 201.67, 198.33 201.83, 198.17 202.0, 198.0 202.17, 197.84 202.33, 197.67 202.5, 197.5 202.67, 197.34 202.83, 197.17 203.0, 197.0 203.17, 196.84 203.33, 196.67 203.5, 196.51 203.67, 196.34 203.83, 196.18 204.0, 196.01 204.17, 195.85 204.33, 195.68 204.5, 195.52 204.67, 195.35 204.83, 195.19 205.0, 195.02 205.17, 194.86 205.33, 194.69 205.5, 194.53 205.67, 194.37 205.83, 194.2 206.0, 194.04 206.17, 193.87 206.33, 193.71 206.5, 193.55 206.67, 193.39 206.83, 193.22 207.0, 193.06 207.17, 192.9 207.33, 192.74 207.5, 192.57 207.67, 192.41 207.83, 192.25 208.0, 192.09 208.17, 191.93 208.33, 191.77 208.5, 191.61 208.67, 191.45 208.83, 191.29 209.0, 191.13 209.17, 190.97 209.33, 190.81 209.5, 190.65 209.67, 190.49 209.83, 190.34 210.0, 190.18 210.17, 190.02 210.33, 189.86 210.5, 189.7 210.67, 189.55 210.83, 189.39 211.0, 189.24 211.17, 189.08 211.33, 188.92 211.5, 188.77 211.67, 188.61 211.83, 188.46 212.0, 188.31 212.17, 188.15 212.33, 188.0 212.5, 187.85 212.67, 187.69 212.83, 187.54 213.0, 187.39 213.17, 187.24 213.33, 187.09 213.5, 186.94 213.67, 186.79 213.83, 186.64 214.0, 186.49 214.17, 186.34 214.33, 186.19 214.5, 186.04 214.67, 185.89 214.83, 185.74 215.0, 185.6 215.17, 185.45 215.33, 185.31 215.5, 185.16 215.67, 185.01 215.83, 184.87 216.0, 184.73 216.17, 184.58 216.33, 184.44 216.5, 184.3 216.67, 184.15 216.83, 184.01 217.0, 183.87 217.17, 183.73 217.33, 183.59 217.5, 183.45 217.67, 183.31 217.83, 183.17 218.0, 183.03 218.17, 182.9 218.33, 182.76 218.5, 182.62 218.67, 182.49 218.83, 182.35 219.0, 182.21 219.17, 182.08 219.33, 181.95 219.5, 181.81 219.67, 181.68 219.83, 181.55 220.0, 181.42 220.17, 181.29 220.33, 181.16 220.5, 181.03 220.67, 180.9 220.83, 180.77 221.0, 180.64 221.17, 180.51 221.33, 180.39 221.5, 180.26 221.67, 180.13 221.83, 180.01 222.0, 179.89 222.17, 179.76 222.33, 179.64 222.5, 179.52 222.67, 179.4 222.83, 179.27 223.0, 179.15 223.17, 179.04 223.33, 178.92 223.5, 178.8 223.67, 178.68 223.83, 178.56 224.0, 178.45 224.17, 178.33 224.33, 178.22 224.5, 178.1 224.67, 177.99 224.83, 177.88 225.0, 177.77 225.17, 177.66 225.33, 177.55 225.5, 177.44 225.67, 177.33 225.83, 177.22 226.0, 177.11 226.17, 177.01 226.33, 176.9 226.5, 176.8 226.67, 176.69 226.83, 176.59 227.0, 176.49 227.17, 176.38 227.33, 176.28 227.5, 176.18 227.67, 176.08 227.83, 175.98 228.0, 175.89 228.17, 175.79 228.33, 175.69 228.5, 175.6 228.67, 175.5 228.83, 175.41 229.0, 175.32 229.17, 175.23 229.33, 175.14 229.5, 175.05 229.67, 174.96 229.83, 174.87 230.0, 174.78 230.17, 174.69 230.33, 174.61 230.5, 174.52 230.67, 174.44 230.83, 174.36 231.0, 174.28 231.17, 174.19 231.33, 174.11 231.5, 174.03 231.67, 173.96 231.83, 173.88 232.0, 173.8 232.17, 173.73 232.33, 173.65 232.5, 173.58 232.67, 173.51 232.83, 173.43 233.0, 173.36 233.17, 173.29 233.33, 173.23 233.5, 173.16 233.67, 173.09 233.83, 173.02 234.0, 172.96 234.17, 172.9 234.33, 172.83 234.5, 172.77 234.67, 172.71 234.83, 172.65 235.0, 172.59 235.17, 172.53 235.33, 172.48 235.5, 172.42 235.67, 172.37 235.83, 172.31 236.0, 172.26 236.17, 172.21 236.33, 172.16 236.5, 172.11 236.67, 172.06 236.83, 172.02 237.0, 171.97 237.17, 171.92 237.33, 171.88 237.5, 171.84 237.67, 171.8 237.83, 171.76 238.0, 171.72 238.17, 171.68 238.33, 171.64 238.5, 171.61 238.67, 171.57 238.83, 171.54 239.0, 171.5 239.17, 171.47 239.33, 171.44 239.5, 171.41 239.67, 171.39 239.83, 171.36 240.0, 171.33 240.17, 171.31 240.33, 171.29 240.5, 171.26 240.67, 171.24 240.83, 171.22 241.0, 171.2 241.17, 171.19 241.33, 171.17 241.5, 171.16 241.67, 171.14 241.83, 171.13 242.0, 171.12 242.17, 171.11 242.33, 171.1 242.5, 171.09 242.67, 171.09 242.83, 171.08 243.0, 171.08 243.17, 171.08 243.33, 171.08 243.5, 171.08 243.67, 171.08 243.83, 171.08 244.0, 171.08 244.17, 171.09 244.33, 171.1 244.5, 171.1 244.67, 171.11 244.83, 171.12 245.0, 171.14 245.17, 171.15 245.33, 171.16 245.5, 171.18 245.67, 171.2 245.83, 171.22 246.0, 171.24 246.17, 171.26 246.33, 171.28 246.5, 171.3 246.67, 171.33 246.83, 171.36 247.0, 171.39 247.17, 171.41 247.33, 171.45 247.5, 171.48 247.67, 171.51 247.83, 171.55 248.0, 171.58 248.17, 171.62 248.33, 171.66 248.5, 171.7 248.67, 171.74 248.83, 171.79 249.0, 171.83 249.17, 171.88 249.33, 171.93 249.5, 171.98 249.67, 172.03 249.83, 172.08 250.0, 172.14 250.17, 172.19 250.33, 172.25 250.5, 172.31 250.67, 172.37 250.83, 172.43 251.0, 172.49 251.17, 172.55 251.33, 172.62 251.5, 172.69 251.67, 172.76 251.83, 172.83 252.0, 172.9 252.17, 172.97 252.33, 173.05 252.5, 173.12 252.67, 173.2 252.83, 173.28 253.0, 173.36 253.17, 173.45 253.33, 173.53 253.5, 173.62 253.67, 173.7 253.83, 173.79 254.0, 173.88 254.17, 173.98 254.33, 174.07 254.5, 174.17 254.67, 174.26 254.83, 174.36 255.0, 174.46 255.17, 174.56 255.33, 174.67 255.5, 174.77 255.67, 174.88 255.83, 174.99 256.0, 175.1 256.17, 175.21 256.33, 175.32 256.5, 175.44 256.67, 175.56 256.83, 175.67 257.0, 175.79 257.17, 175.92 257.33, 176.04 257.5, 176.17 257.67, 176.29 257.83, 176.42 258.0, 176.55 258.17, 176.68 258.33, 176.82 258.5, 176.95 258.67, 177.09 258.83, 177.23 259.0, 177.37 259.17, 177.51 259.33, 177.66 259.5, 177.8 259.67, 177.95 259.83, 178.1 260.0, 178.25 260.17, 178.4 260.33, 178.56 260.5, 178.71 260.67, 178.87 260.83, 179.03 261.0, 179.19 261.17, 179.36 261.33, 179.52 261.5, 179.69 261.67, 179.86 261.83, 180.03 262.0, 180.2 262.17, 180.38 262.33, 180.55 262.5, 180.73 262.67, 180.91 262.83, 181.1 263.0, 181.28 263.17, 181.46 263.33, 181.65 263.5, 181.84 263.67, 182.03 263.83, 182.23 264.0, 182.42 264.17, 182.62 264.33, 182.82 264.5, 183.02 264.67, 183.22 264.83, 183.43 265.0, 183.63 265.17, 183.84 265.33, 184.05 265.5, 184.26 265.67, 184.48 265.83, 184.69 266.0, 184.91 266.17, 185.13 266.33, 185.35 266.5, 185.58 266.67, 185.8 266.83, 186.03 267.0, 186.26 267.17, 186.49 267.33, 186.73 267.5, 186.96 267.67, 187.2 267.83, 187.44 268.0, 187.68 268.17, 187.92 268.33, 188.17 268.5, 188.42 268.67, 188.67 268.83, 188.92 269.0, 189.17 269.17, 189.43 269.33, 189.69 269.5, 189.95 269.67, 190.21 269.83, 190.47 270.0, 190.74 270.17, 191.01 270.33, 191.28 270.5, 191.55 270.67, 191.82 270.83, 192.1 271.0, 192.38 271.17, 192.66 271.33, 192.94 271.5, 193.23 271.67, 193.52 271.83, 193.8 272.0, 194.1 272.17, 194.39 272.33, 194.68 272.5, 194.98 272.67, 195.28 272.83, 195.58 273.0, 195.89 273.17, 196.19 273.33, 196.5 273.5, 196.81 273.67, 197.13 273.83, 197.44 274.0, 197.76 274.17, 198.08 274.33, 198.4 274.5, 198.72 274.67, 199.05 274.83, 199.38 275.0, 199.71 275.17, 200.04 275.33, 200.37 275.5, 200.71 275.67, 201.05 275.83, 201.39 276.0, 201.74 276.17, 202.08 276.33, 202.43 276.5, 202.78 276.67, 203.13 276.83, 203.49 277.0, 203.84 277.17, 204.2 277.33, 204.57 277.5, 204.93 277.67, 205.3 277.83, 205.66 278.0, 206.04 278.17, 206.41 278.33, 206.78 278.5, 207.16 278.67, 207.54 278.83, 207.92 279.0, 208.31 279.17, 208.7 279.33, 209.09 279.5, 209.48 279.67, 209.87 279.83, 210.27 280.0, 210.67 280.17, 211.07 280.33, 211.47 280.5, 211.88 280.67, 212.29 280.83, 212.7 281.0, 213.11 281.17, 213.52 281.33, 213.94 281.5, 214.36 281.67, 214.79 281.83, 215.21 282.0, 215.64 282.17, 216.07 282.33, 216.5 282.5, 216.94 282.67, 217.37 282.83, 217.81 283.0, 218.25 283.17, 218.7 283.33, 219.15 283.5, 219.59 283.67, 220.05 283.83, 220.5 284.0, 220.96 284.17, 221.42 284.33, 221.88 284.5, 222.34 284.67, 222.81 284.83, 223.28 285.0, 223.75 285.17, 224.23 285.33, 224.7 285.5, 225.18 285.67, 225.66 285.83, 226.15 286.0, 226.63 286.17, 227.12 286.33, 227.62 286.5, 228.11 286.67, 228.61 286.83, 229.11 287.0, 229.61 287.17, 230.11 287.33, 230.62 287.5, 231.13 287.67, 231.64 287.83, 232.16 288.0, 232.68 288.17, 233.2 288.33, 233.72 288.5, 234.25 288.67, 234.77 288.83, 235.3 289.0, 235.84 289.17, 236.37 289.33, 236.91 289.5, 237.45 289.67, 238.0 289.83, 238.54 290.0, 239.09 290.17, 239.65 290.33, 240.2 290.5, 240.76 290.67, 241.32 290.83, 241.88 291.0, 242.44 291.17, 243.01 291.33, 243.58 291.5, 244.16 291.67, 244.73 291.83, 245.31 292.0, 245.89 292.17, 246.48 292.33, 247.06 292.5, 247.65 292.67, 248.25 292.83, 248.84 293.0, 249.44 293.17, 250.04 293.33, 250.64 293.5, 251.25 293.67, 251.86 293.83, 252.47 294.0, 253.08 294.17, 253.7 294.33, 254.32 294.5, 254.94 294.67, 255.57 294.83, 256.2 295.0, 256.83 295.17, 257.46 295.33, 258.1 295.5, 258.74 295.67, 259.38 295.83, 260.02 296.0, 260.67 296.17, 261.32 296.33, 261.98 296.5, 262.63 296.67, 263.29 296.83, 263.95 297.0, 264.62 297.17, 265.29 297.33, 265.96 297.5, 266.63 297.67, 267.31 297.83, 267.99 298.0, 268.67 298.17, 269.35 298.33, 270.04 298.5, 270.73 298.67, 271.43 298.83, 272.12 299.0, 272.82 299.17, 273.53 299.33, 274.23 299.5, 274.94 299.67, 275.65 299.83, 276.37 300.0, 277.08 300.17, 277.8 300.33, 278.53 300.5, 279.25 300.67, 279.98 300.83, 280.71 301.0, 281.45 301.17, 282.19 301.33, 282.93 301.5, 283.67 301.67, 284.42 301.83, 285.17 302.0, 285.92 302.17, 286.68 302.33, 287.44 302.5, 288.2 302.67, 288.96 302.83, 289.73 303.0, 290.5 303.17, 291.28 303.33, 292.06 303.5, 292.84 303.67, 293.62 303.83, 294.41 304.0, 295.19 304.17, 295.99 304.33, 296.78 304.5, 297.58 304.67, 298.38 304.83, 299.19 305.0, 300.0 305.17, 300.81 305.33, 301.62 305.5, 302.44 305.67, 303.26 305.83, 304.08 306.0, 304.91 306.17, 305.74 306.33, 306.57 306.5, 307.41 306.67, 308.25 306.83, 309.09 307.0, 309.93 307.17, 310.78 307.33, 311.64 307.5, 312.49 307.67, 313.35 307.83, 314.21 308.0, 315.07 308.17, 315.94 308.33, 316.81 308.5, 317.69 308.67, 318.56 308.83, 319.44 309.0, 320.33 309.17, 321.21 309.33, 322.11 309.5, 323.0 309.67, 323.9 309.83, 324.79 310.0, 325.7 310.17, 326.6 310.33, 327.51 310.5, 328.43 310.67, 329.34 310.83, 330.26 311.0, 331.18 311.17, 332.11 311.33, 333.04 311.5, 333.97 311.67, 334.91 311.83, 335.85 312.0, 336.79 312.17, 337.73 312.33, 338.68 312.5, 339.64 312.67, 340.59 312.83, 341.55 313.0, 342.51 313.17, 343.48 313.33, 344.45 313.5, 345.42 313.67, 346.4 313.83, 347.37 314.0, 348.36 314.17, 349.34 314.33, 350.33 314.5, 351.32 314.67, 352.32 314.83, 353.32 315.0, 354.32 315.17, 355.33 315.33, 356.34 315.5, 357.35 315.67, 358.37 315.83, 359.39 316.0, 360.41 316.17, 361.44 316.33, 362.47 316.5, 363.5 316.67, 364.54 316.83, 365.58 317.0, 366.62 317.17, 367.67 317.33, 368.72 317.5, 369.77 317.67, 370.83 317.83, 371.89 318.0, 372.95 318.17, 374.02 318.33, 375.09 318.5, 376.17 318.67, 377.25 318.83, 378.33 319.0, 379.41 319.17, 380.5 319.33, 381.59 319.5, 382.69 319.67, 383.79 319.83, 384.89 320.0, 386.0 320.17, 387.11 320.33, 388.22 320.5, 389.34 320.67, 390.46 320.83, 391.59 321.0, 392.71 321.17, 393.85 321.33, 394.98 321.5, 396.12 321.67, 397.26 321.83, 398.41 322.0, 399.56 322.17, 400.71 322.33, 401.87 322.5, 403.03 322.67, 404.19 322.83, 405.36 323.0, 406.53 323.17, 407.7 323.33, 408.88 323.5, 410.06 323.67, 411.25 323.83, 412.44 324.0, 413.63 324.17, 414.83 324.33, 416.03 324.5, 417.23 324.67, 418.44 324.83, 419.65 325.0, 420.87 325.17, 422.08 325.33, 423.31 325.5, 424.53 325.67, 425.76 325.83, 427.0 326.0, 428.23 326.17, 429.47 326.33, 430.72 326.5, 431.97 326.67, 433.22 326.83, 434.47 327.0, 435.73 327.17, 437.0 327.33, 438.26 327.5, 439.54 327.67, 440.81 327.83, 442.09 328.0, 443.37 328.17, 444.66 328.33, 445.95 328.5, 447.24 328.67, 448.54 328.83, 449.84 329.0, 451.14 329.17, 452.45 329.33, 453.76 329.5, 455.08 329.67, 456.4 329.83, 457.72 330.0, 459.05 330.17, 460.38 330.33, 461.72 330.5, 463.06 330.67, 464.4 330.83, 465.75 331.0, 467.1 331.17, 468.45 331.33, 469.81 331.5, 471.18 331.67, 472.54 331.83, 473.91 332.0, 475.29 332.17, 476.66 332.33, 478.05 332.5, 479.43 332.67, 480.82 332.83, 482.22 333.0, 483.61 333.17, 485.01 333.33, 486.42 333.5, 487.83 333.67, 489.24 333.83, 490.66 334.0, 492.08 334.17, 493.51 334.33, 494.94 334.5, 496.37 334.67, 497.81 334.83, 499.25 335.0, 500.69 335.17, 502.14 335.33, 503.59 335.5, 505.05 335.67, 506.51 335.83, 507.98 336.0, 509.45 336.17, 510.92 336.33, 512.4 336.5, 513.88 336.67, 515.36 336.83, 516.85 337.0, 518.34 337.17, 519.84 337.33, 521.34 337.5, 522.85 337.67, 524.36 337.83, 525.87 338.0, 527.39 338.17, 528.91 338.33, 530.43 338.5, 531.96 338.67, 533.5 338.83, 535.04 339.0, 536.58 339.17, 538.12 339.33, 539.67 339.5, 541.23 339.67, 542.79 339.83, 544.35 340.0, 545.92 340.17, 547.49 340.33, 549.06 340.5, 550.64 340.67, 552.22 340.83, 553.81 341.0, 555.4 341.17, 557.0 341.33, 558.6 341.5, 560.2 341.67, 561.81 341.83, 563.42 342.0, 565.04 342.17, 566.66 342.33, 568.29 342.5, 569.92 342.67, 571.55 342.83, 573.19 343.0, 574.83 343.17, 576.47 343.33, 578.12 343.5, 579.78 343.67, 581.44 343.83, 583.1 344.0, 584.77 344.17, 586.44 344.33, 588.12 344.5, 589.8 344.67, 591.48 344.83, 593.17 345.0, 594.86 345.17, 596.56 345.33, 598.26 345.5, 599.96 345.67, 601.67 345.83, 603.39 346.0, 605.11 346.17, 606.83 346.33, 608.56 346.5, 610.29 346.67, 612.02 346.83, 613.76 347.0, 615.51 347.17, 617.26 347.33, 619.01 347.5, 620.77 347.67, 622.53 347.83, 624.3 348.0, 626.07 348.17, 627.84 348.33, 629.62 348.5, 631.41 348.67, 633.19 348.83, 634.99 349.0, 636.78 349.17, 638.58 349.33, 640.39 349.5, 642.2 349.67, 644.01 349.83, 645.83 350.0, 647.66 350.17, 649.48 350.33, 651.32 350.5, 653.15 350.67, 654.99 350.83, 656.84 351.0, 658.69 351.17, 660.54 351.33, 662.4 351.5, 664.27 351.67, 666.13 351.83, 668.01 352.0, 669.88 352.17, 671.76 352.33, 673.65 352.5, 675.54 352.67, 677.43 352.83, 679.33 353.0, 681.24 353.17, 683.15 353.33, 685.06 353.5, 686.98 353.67, 688.9 353.83, 690.82 354.0, 692.76 354.17, 694.69 354.33, 696.63 354.5, 698.58 354.67, 700.52 354.83, 702.48 355.0, 704.44 355.17, 706.4 355.33, 708.37 355.5, 710.34 355.67, 712.32 355.83, 714.3 356.0, 716.28 356.17, 718.27 356.33, 720.27 356.5, 722.27 356.67, 724.27 356.83, 726.28 357.0, 728.29 357.17, 730.31 357.33, 732.33 357.5, 734.36 357.67, 736.39 357.83, 738.43 358.0, 740.47 358.17, 742.52 358.33, 744.57 358.5, 746.62 358.67, 748.68 358.83, 750.75 359.0, 752.82 359.17, 754.89 359.33, 756.97 359.5, 759.05 359.67, 761.14 359.83, 763.24 360.0, 765.33 360.17, 767.44 360.33, 769.54 360.5, 771.65 360.67, 773.77 360.83, 775.89 361.0, 778.02 361.17, 780.15 361.33, 782.28 361.5, 784.43 361.67, 786.57 361.83, 788.72 362.0, 790.87 362.17, 793.03 362.33, 795.2 362.5, 797.37 362.67, 799.54 362.83, 801.72 363.0, 803.9 363.17, 806.09 363.33, 808.28 363.5, 810.48 363.67, 812.68 363.83, 814.89 364.0, 817.1 364.17, 819.32 364.33, 821.54 364.5, 823.77 364.67, 826.0 364.83, 828.24 365.0, 830.48 365.17, 832.73 365.33, 834.98 365.5, 837.23 365.67, 839.5 365.83, 841.76 366.0, 844.03 366.17, 846.31 366.33, 848.59 366.5, 850.87 366.67, 853.16 366.83, 855.46 367.0, 857.76 367.17, 860.06 367.33, 862.37 367.5, 864.69 367.67, 867.01 367.83, 869.33 368.0, 871.66 368.17, 874.0 368.33, 876.34 368.5, 878.68 368.67, 881.03 368.83, 883.39 369.0, 885.75 369.17, 888.11 369.33, 890.48 369.5, 892.86 369.67, 895.24 369.83, 897.62 370.0, 900.01 370.17, 902.41 370.33, 904.8 370.5, 907.21 370.67, 909.62 370.83, 912.03 371.0, 914.45 371.17, 916.88 371.33, 919.31 371.5, 921.74 371.67, 924.18 371.83, 926.63 372.0, 929.08 372.17, 931.53 372.33, 933.99 372.5, 936.46 372.67, 938.93 372.83, 941.41 373.0, 943.89 373.17, 946.37 373.33, 948.86 373.5, 951.36 373.67, 953.86 373.83, 956.37 374.0, 958.88 374.17, 961.4 374.33, 963.92 374.5, 966.44 374.67, 968.98 374.83, 971.51 375.0, 974.06 375.17, 976.6 375.33, 979.16 375.5, 981.71 375.67, 984.28 375.83, 986.85 376.0, 989.42 376.17, 992.0 376.33, 994.58 376.5, 997.17 376.67, 999.76 376.83, 1002.36 377.0, 1004.97 377.17, 1007.58 377.33, 1010.19 377.5, 1012.81 377.67, 1015.44 377.83, 1018.07 378.0, 1020.71 378.17, 1023.35 378.33, 1025.99 378.5, 1028.65 378.67, 1031.3 378.83, 1033.97 379.0, 1036.63 379.17, 1039.31 379.33, 1041.98 379.5, 1044.67 379.67, 1047.36 379.83, 1050.05 380.0, 1052.75 380.17, 1055.45 380.33, 1058.16 380.5, 1060.88 380.67, 1063.6 380.83, 1066.33 381.0, 1069.06 381.17, 1071.8 381.33, 1074.54 381.5, 1077.28 381.67, 1080.04 381.83, 1082.8 382.0, 1085.56 382.17, 1088.33 382.33, 1091.1 382.5, 1093.88 382.67, 1096.67 382.83, 1099.46 383.0, 1102.25 383.17, 1105.05 383.33, 1107.86 383.5, 1110.67 383.67, 1113.49 383.83, 1116.31 384.0, 1119.14 384.17, 1121.98 384.33, 1124.81 384.5, 1127.66 384.67, 1130.51 384.83, 1133.36 385.0, 1136.23 385.17, 1139.09 385.33, 1141.96 385.5, 1144.84 385.67, 1147.72 385.83, 1150.61 386.0, 1153.51 386.17, 1156.41 386.33, 1159.31 386.5, 1162.22 386.67, 1165.14 386.83, 1168.06 387.0, 1170.98 387.17, 1173.92 387.33, 1176.85 387.5, 1179.8 387.67, 1182.75 387.83, 1185.7 388.0, 1188.66 388.17, 1191.63 388.33, 1194.6 388.5, 1197.57 388.67, 1200.56 388.83, 1203.54 389.0, 1206.54 389.17, 1209.54 389.33, 1212.54 389.5, 1215.55 389.67, 1218.57 389.83, 1221.59 390.0, 1224.61 390.17, 1227.65 390.33, 1230.69 390.5, 1233.73 390.67, 1236.78 390.83, 1239.83 391.0, 1242.89 391.17, 1245.96 391.33, 1249.03 391.5, 1252.11 391.67, 1255.19 391.83, 1258.28 392.0, 1261.38 392.17, 1264.48 392.33, 1267.58 392.5, 1270.69 392.67, 1273.81 392.83, 1276.93 393.0, 1280.06 393.17, 1283.2 393.33, 1286.34 393.5, 1289.48 393.67, 1292.63 393.83, 1295.79 394.0, 1298.95 394.17, 1302.12 394.33, 1305.3 394.5, 1308.48 394.67, 1311.66 394.83, 1314.85 395.0, 1318.05 395.17, 1321.25 395.33, 1324.46 395.5, 1327.68 395.67, 1330.9 395.83, 1334.12 396.0, 1337.36 396.17, 1340.59 396.33, 1343.84 396.5, 1347.09 396.67, 1350.34 396.83, 1353.6 397.0, 1356.87 397.17, 1360.14 397.33, 1363.42 397.5, 1366.7 397.67, 1369.99 397.83, 1373.29 398.0, 1376.59 398.17, 1379.9 398.33, 1383.21 398.5, 1386.53 398.67, 1389.86 398.83, 1393.19 399.0, 1396.52 399.17, 1399.87 399.33, 1403.21 399.5, 1406.57 399.67, 1409.93 399.83, 1413.29 400.0, 1416.67 " fill="none" stroke="white" stroke-width="1.5" stroke-linejoin="round" stroke-opacity="1"/>

 </svg>