<svg version="1.1" 
 baseProfile="full" 
 width="400" 
 height="400" 
 xmlns="http://www.w3.org/2000/svg">
<rect x="0.0" y="0.0" width="400" height="400" fill="black" stroke="black" stroke-width="0" opacity="1"/>
<line x1="0.0" y1="0.0" x2="0.0" y2="400.0" stroke="white" stroke-width="1" opacity="0.4" stroke-linecap="butt"/>
<line x1="40.0" y1="0.0" x2="40.0" y2="400.0" stroke="white" stroke-width="1" opacity="0.4" stroke-linecap="butt"/>
<line x1="80.0" y1="0.0" x2="80.0" y2="400.0" stroke="white" stroke-width="1" opacity="0.4" stroke-linecap="butt"/>
<line x1="120.0" y1="0.0" x2="120.0" y2="400.0" stroke="white" stroke-width="1" opacity="0.4" stroke-linecap="butt"/>
<line x1="160.0" y1="0.0" x2="160.0" y2="400.0" stroke="white" stroke-width="1" opacity="0.4" stroke-linecap="butt"/>
<line x1="200.0" y1="0.0" x2="200.0" y2="400.0" stroke="white" stroke-width="1" opacity="0.4" stroke-linecap="butt"/>
<line x1="240.0" y1="0.0" x2="240.0" y2="400.0" stroke="white" stroke-width="1" opacity="0.4" stroke-linecap="butt"/>
<line x1="280.0" y1="0.0" x2="280.0" y2="400.0" stroke="white" stroke-width="1" opacity="0.4" stroke-linecap="butt"/>
<line x1="320.0" y1="0.0" x2="320.0" y2="400.0" stroke="white" stroke-width="1" opacity="0.4" stroke-linecap="butt"/>
<line x1="360.0" y1="0.0" x2="360.0" y2="400.0" stroke="white" stroke-width="1" opacity="0.4" stroke-linecap="butt"/>
<line x1="0.0" y1="0.0" x2="400.0" y2="0.0" stroke="white" stroke-width="1" opacity="0.4" stroke-linecap="butt"/>
<line x1="0.0" y1="40.0" x2="400.0" y2="40.0" stroke="white" stroke-width="1" opacity="0.4" stroke-linecap="butt"/>
<line x1="0.0" y1="80.0" x2="400.0" y2="80.0" stroke="white" stroke-width="1" opacity="0.4" stroke-linecap="butt"/>
<line x1="0.0" y1="120.0" x2="400.0" y2="120.0" stroke="white" stroke-width="1" opacity="0.4" stroke-linecap="butt"/>
<line x1="0.0" y1="160.0" x2="400.0" y2="160.0" stroke="white" stroke-width="1" opacity="0.4" stroke-linecap="butt"/>
<line x1="0.0" y1="200.0" x2="400.0" y2="200.0" stroke="white" stroke-width="1" opacity="0.4" stroke-linecap="butt"/>
<line x1="0.0" y1="240.0" x2="400.0" y2="240.0" stroke="white" stroke-width="1" opacity="0.4" stroke-linecap="butt"/>
<line x1="0.0" y1="280.0" x2="400.0" y2="280.0" stroke="white" stroke-width="1" opacity="0.4" stroke-linecap="butt"/>
<line x1="0.0" y1="320.0" x2="400.0" y2="320.0" stroke="white" stroke-width="1" opacity="0.4" stroke-linecap="butt"/>
<line x1="0.0" y1="360.0" x2="400.0" y2="360.0" stroke="white" stroke-width="1" opacity="0.4" stroke-linecap="butt"/>
<line x1="0.0" y1="200.0" x2="400.0" y2="200.0" stroke="yellow" stroke-width="2.5" opacity="1" stroke-linecap="butt"/>
<line x1="200.0" y1="0.0" x2="200.0" y2="400.0" stroke="yellow" stroke-width="2.5" opacity="1" stroke-linecap="butt"/>
<polygon points="391.0 204.0, 401.0 200.0, 391.0 196.0, 393.0 200.0" fill="yellow"/><polygon points="204.0 9.0, 200.0 -1.0, 196.0 9.0, 200.0 7.0" fill="yellow"/><image x="-60.0" y="-60.0" width="200" height="200" href="/Users/girirajhira/PycharmProjects/Giraphics3/Taylor/expr.png"/><polyline points="0.0, -1891.67 0.17, -1886.11 0.33, -1880.56 0.5, -1875.02 0.67, -1869.49 0.83, -1863.97 1.0, -1858.46 1.17, -1852.96 1.33, -1847.47 1.5, -1841.99 1.67, -1836.52 1.83, -1831.06 2.0, -1825.6 2.17, -1820.16 2.33, -1814.72 2.5, -1809.3 2.67, -1803.88 2.83, -1798.48 3.0, -1793.08 3.17, -1787.69 3.33, -1782.32 3.5, -1776.95 3.67, -1771.59 3.83, -1766.24 4.0, -1760.9 4.17, -1755.57 4.33, -1750.25 4.5, -1744.93 4.67, -1739.63 4.83, -1734.34 5.0, -1729.05 5.17, -1723.78 5.33, -1718.51 5.5, -1713.26 5.67, -1708.01 5.83, -1702.77 6.0, -1697.54 6.17, -1692.32 6.33, -1687.11 6.5, -1681.91 6.67, -1676.72 6.83, -1671.54 7.0, -1666.37 7.17, -1661.2 7.33, -1656.05 7.5, -1650.9 7.67, -1645.77 7.83, -1640.64 8.0, -1635.52 8.17, -1630.41 8.33, -1625.31 8.5, -1620.22 8.67, -1615.14 8.83, -1610.07 9.0, -1605.0 9.17, -1599.95 9.33, -1594.91 9.5, -1589.87 9.67, -1584.84 9.83, -1579.83 10.0, -1574.82 10.17, -1569.82 10.33, -1564.83 10.5, -1559.85 10.67, -1554.87 10.83, -1549.91 11.0, -1544.96 11.17, -1540.01 11.33, -1535.08 11.5, -1530.15 11.67, -1525.23 11.83, -1520.32 12.0, -1515.42 12.17, -1510.53 12.33, -1505.65 12.5, -1500.78 12.67, -1495.91 12.83, -1491.06 13.0, -1486.21 13.17, -1481.37 13.33, -1476.54 13.5, -1471.72 13.67, -1466.91 13.83, -1462.11 14.0, -1457.32 14.17, -1452.53 14.33, -1447.76 14.5, -1442.99 14.67, -1438.24 14.83, -1433.49 15.0, -1428.75 15.17, -1424.02 15.33, -1419.29 15.5, -1414.58 15.67, -1409.88 15.83, -1405.18 16.0, -1400.49 16.17, -1395.82 16.33, -1391.15 16.5, -1386.49 16.67, -1381.83 16.83, -1377.19 17.0, -1372.56 17.17, -1367.93 17.33, -1363.31 17.5, -1358.71 17.67, -1354.11 17.83, -1349.52 18.0, -1344.93 18.17, -1340.36 18.33, -1335.8 18.5, -1331.24 18.67, -1326.69 18.83, -1322.15 19.0, -1317.62 19.17, -1313.1 19.33, -1308.59 19.5, -1304.09 19.67, -1299.59 19.83, -1295.1 20.0, -1290.62 20.17, -1286.16 20.33, -1281.69 20.5, -1277.24 20.67, -1272.8 20.83, -1268.36 21.0, -1263.94 21.17, -1259.52 21.33, -1255.11 21.5, -1250.71 21.67, -1246.31 21.83, -1241.93 22.0, -1237.55 22.17, -1233.19 22.33, -1228.83 22.5, -1224.48 22.67, -1220.14 22.83, -1215.8 23.0, -1211.48 23.17, -1207.16 23.33, -1202.85 23.5, -1198.55 23.67, -1194.26 23.83, -1189.98 24.0, -1185.71 24.17, -1181.44 24.33, -1177.18 24.5, -1172.93 24.67, -1168.69 24.83, -1164.46 25.0, -1160.24 25.17, -1156.02 25.33, -1151.81 25.5, -1147.62 25.67, -1143.43 25.83, -1139.24 26.0, -1135.07 26.17, -1130.9 26.33, -1126.75 26.5, -1122.6 26.67, -1118.46 26.83, -1114.32 27.0, -1110.2 27.17, -1106.08 27.33, -1101.98 27.5, -1097.88 27.67, -1093.79 27.83, -1089.7 28.0, -1085.63 28.17, -1081.56 28.33, -1077.5 28.5, -1073.45 28.67, -1069.41 28.83, -1065.38 29.0, -1061.35 29.17, -1057.33 29.33, -1053.33 29.5, -1049.32 29.67, -1045.33 29.83, -1041.35 30.0, -1037.37 30.17, -1033.4 30.33, -1029.44 30.5, -1025.49 30.67, -1021.54 30.83, -1017.61 31.0, -1013.68 31.17, -1009.76 31.33, -1005.85 31.5, -1001.94 31.67, -998.05 31.83, -994.16 32.0, -990.28 32.17, -986.41 32.33, -982.54 32.5, -978.69 32.67, -974.84 32.83, -971.0 33.0, -967.17 33.17, -963.35 33.33, -959.53 33.5, -955.72 33.67, -951.92 33.83, -948.13 34.0, -944.35 34.17, -940.57 34.33, -936.8 34.5, -933.04 34.67, -929.29 34.83, -925.54 35.0, -921.81 35.17, -918.08 35.33, -914.36 35.5, -910.64 35.67, -906.94 35.83, -903.24 36.0, -899.55 36.17, -895.87 36.33, -892.2 36.5, -888.53 36.67, -884.87 36.83, -881.22 37.0, -877.58 37.17, -873.94 37.33, -870.32 37.5, -866.7 37.67, -863.09 37.83, -859.48 38.0, -855.89 38.17, -852.3 38.33, -848.72 38.5, -845.14 38.67, -841.58 38.83, -838.02 39.0, -834.47 39.17, -830.93 39.33, -827.39 39.5, -823.87 39.67, -820.35 39.83, -816.84 40.0, -813.33 40.17, -809.84 40.33, -806.35 40.5, -802.87 40.67, -799.39 40.83, -795.93 41.0, -792.47 41.17, -789.02 41.33, -785.58 41.5, -782.14 41.67, -778.71 41.83, -775.29 42.0, -771.88 42.17, -768.48 42.33, -765.08 42.5, -761.69 42.67, -758.31 42.83, -754.93 43.0, -751.56 43.17, -748.2 43.33, -744.85 43.5, -741.51 43.67, -738.17 43.83, -734.84 44.0, -731.51 44.17, -728.2 44.33, -724.89 44.5, -721.59 44.67, -718.3 44.83, -715.01 45.0, -711.74 45.17, -708.46 45.33, -705.2 45.5, -701.95 45.67, -698.7 45.83, -695.46 46.0, -692.22 46.17, -688.99 46.33, -685.78 46.5, -682.56 46.67, -679.36 46.83, -676.16 47.0, -672.97 47.17, -669.79 47.33, -666.61 47.5, -663.45 47.67, -660.29 47.83, -657.13 48.0, -653.99 48.17, -650.85 48.33, -647.72 48.5, -644.59 48.67, -641.47 48.83, -638.36 49.0, -635.26 49.17, -632.17 49.33, -629.08 49.5, -626.0 49.67, -622.92 49.83, -619.86 50.0, -616.8 50.17, -613.74 50.33, -610.7 50.5, -607.66 50.67, -604.63 50.83, -601.61 51.0, -598.59 51.17, -595.58 51.33, -592.58 51.5, -589.58 51.67, -586.59 51.83, -583.61 52.0, -580.64 52.17, -577.67 52.33, -574.71 52.5, -571.76 52.67, -568.81 52.83, -565.87 53.0, -562.94 53.17, -560.02 53.33, -557.1 53.5, -554.19 53.67, -551.28 53.83, -548.39 54.0, -545.5 54.17, -542.61 54.33, -539.74 54.5, -536.87 54.67, -534.01 54.83, -531.15 55.0, -528.3 55.17, -525.46 55.33, -522.63 55.5, -519.8 55.67, -516.98 55.83, -514.17 56.0, -511.36 56.17, -508.56 56.33, -505.77 56.5, -502.98 56.67, -500.2 56.83, -497.43 57.0, -494.66 57.17, -491.9 57.33, -489.15 57.5, -486.41 57.67, -483.67 57.83, -480.94 58.0, -478.21 58.17, -475.49 58.33, -472.78 58.5, -470.08 58.67, -467.38 58.83, -464.69 59.0, -462.01 59.17, -459.33 59.33, -456.66 59.5, -453.99 59.67, -451.34 59.83, -448.69 60.0, -446.04 60.17, -443.4 60.33, -440.77 60.5, -438.15 60.67, -435.53 60.83, -432.92 61.0, -430.32 61.17, -427.72 61.33, -425.13 61.5, -422.55 61.67, -419.97 61.83, -417.4 62.0, -414.83 62.17, -412.28 62.33, -409.72 62.5, -407.18 62.67, -404.64 62.83, -402.11 63.0, -399.59 63.17, -397.07 63.33, -394.56 63.5, -392.05 63.67, -389.55 63.83, -387.06 64.0, -384.57 64.17, -382.09 64.33, -379.62 64.5, -377.16 64.67, -374.7 64.83, -372.24 65.0, -369.79 65.17, -367.35 65.33, -364.92 65.5, -362.49 65.67, -360.07 65.83, -357.66 66.0, -355.25 66.17, -352.85 66.33, -350.45 66.5, -348.06 66.67, -345.68 66.83, -343.3 67.0, -340.93 67.17, -338.57 67.33, -336.21 67.5, -333.86 67.67, -331.52 67.83, -329.18 68.0, -326.84 68.17, -324.52 68.33, -322.2 68.5, -319.89 68.67, -317.58 68.83, -315.28 69.0, -312.98 69.17, -310.7 69.33, -308.41 69.5, -306.14 69.67, -303.87 69.83, -301.61 70.0, -299.35 70.17, -297.1 70.33, -294.85 70.5, -292.62 70.67, -290.38 70.83, -288.16 71.0, -285.94 71.17, -283.72 71.33, -281.52 71.5, -279.31 71.67, -277.12 71.83, -274.93 72.0, -272.75 72.17, -270.57 72.33, -268.4 72.5, -266.23 72.67, -264.08 72.83, -261.92 73.0, -259.78 73.17, -257.64 73.33, -255.5 73.5, -253.37 73.67, -251.25 73.83, -249.13 74.0, -247.02 74.17, -244.92 74.33, -242.82 74.5, -240.73 74.67, -238.64 74.83, -236.56 75.0, -234.49 75.17, -232.42 75.33, -230.36 75.5, -228.3 75.67, -226.25 75.83, -224.21 76.0, -222.17 76.17, -220.14 76.33, -218.11 76.5, -216.09 76.67, -214.07 76.83, -212.06 77.0, -210.06 77.17, -208.06 77.33, -206.07 77.5, -204.09 77.67, -202.11 77.83, -200.13 78.0, -198.16 78.17, -196.2 78.33, -194.25 78.5, -192.3 78.67, -190.35 78.83, -188.41 79.0, -186.48 79.17, -184.55 79.33, -182.63 79.5, -180.71 79.67, -178.8 79.83, -176.9 80.0, -175.0 80.17, -173.11 80.33, -171.22 80.5, -169.34 80.67, -167.46 80.83, -165.59 81.0, -163.73 81.17, -161.87 81.33, -160.02 81.5, -158.17 81.67, -156.33 81.83, -154.49 82.0, -152.66 82.17, -150.84 82.33, -149.02 82.5, -147.2 82.67, -145.39 82.83, -143.59 83.0, -141.8 83.17, -140.0 83.33, -138.22 83.5, -136.44 83.67, -134.66 83.83, -132.9 84.0, -131.13 84.17, -129.37 84.33, -127.62 84.5, -125.87 84.67, -124.13 84.83, -122.4 85.0, -120.67 85.17, -118.94 85.33, -117.22 85.5, -115.51 85.67, -113.8 85.83, -112.1 86.0, -110.4 86.17, -108.71 86.33, -107.02 86.5, -105.34 86.67, -103.67 86.83, -101.99 87.0, -100.33 87.17, -98.67 87.33, -97.02 87.5, -95.37 87.67, -93.72 87.83, -92.09 88.0, -90.45 88.17, -88.83 88.33, -87.2 88.5, -85.59 88.67, -83.98 88.83, -82.37 89.0, -80.77 89.17, -79.17 89.33, -77.58 89.5, -76.0 89.67, -74.42 89.83, -72.85 90.0, -71.28 90.17, -69.71 90.33, -68.15 90.5, -66.6 90.67, -65.05 90.83, -63.51 91.0, -61.97 91.17, -60.44 91.33, -58.91 91.5, -57.39 91.67, -55.87 91.83, -54.36 92.0, -52.86 92.17, -51.35 92.33, -49.86 92.5, -48.37 92.67, -46.88 92.83, -45.4 93.0, -43.92 93.17, -42.45 93.33, -40.99 93.5, -39.53 93.67, -38.07 93.83, -36.62 94.0, -35.18 94.17, -33.74 94.33, -32.3 94.5, -30.87 94.67, -29.45 94.83, -28.03 95.0, -26.61 95.17, -25.2 95.33, -23.8 95.5, -22.4 95.67, -21.0 95.83, -19.61 96.0, -18.23 96.17, -16.85 96.33, -15.47 96.5, -14.1 96.67, -12.74 96.83, -11.38 97.0, -10.02 97.17, -8.67 97.33, -7.32 97.5, -5.98 97.67, -4.65 97.83, -3.32 98.0, -1.99 98.17, -0.67 98.33, 0.65 98.5, 1.96 98.67, 3.26 98.83, 4.56 99.0, 5.86 99.17, 7.15 99.33, 8.44 99.5, 9.72 99.67, 11.0 99.83, 12.27 100.0, 13.54 100.17, 14.8 100.33, 16.06 100.5, 17.32 100.67, 18.57 100.83, 19.81 101.0, 21.05 101.17, 22.28 101.33, 23.51 101.5, 24.74 101.67, 25.96 101.83, 27.18 102.0, 28.39 102.17, 29.59 102.33, 30.8 102.5, 31.99 102.67, 33.19 102.83, 34.37 103.0, 35.56 103.17, 36.74 103.33, 37.91 103.5, 39.08 103.67, 40.24 103.83, 41.4 104.0, 42.56 104.17, 43.71 104.33, 44.86 104.5, 46.0 104.67, 47.14 104.83, 48.27 105.0, 49.4 105.17, 50.52 105.33, 51.64 105.5, 52.76 105.67, 53.87 105.83, 54.97 106.0, 56.07 106.17, 57.17 106.33, 58.26 106.5, 59.35 106.67, 60.43 106.83, 61.51 107.0, 62.59 107.17, 63.66 107.33, 64.72 107.5, 65.78 107.67, 66.84 107.83, 67.89 108.0, 68.94 108.17, 69.98 108.33, 71.02 108.5, 72.06 108.67, 73.09 108.83, 74.11 109.0, 75.13 109.17, 76.15 109.33, 77.16 109.5, 78.17 109.67, 79.18 109.83, 80.18 110.0, 81.17 110.17, 82.16 110.33, 83.15 110.5, 84.13 110.67, 85.11 110.83, 86.09 111.0, 87.06 111.17, 88.02 111.33, 88.98 111.5, 89.94 111.67, 90.89 111.83, 91.84 112.0, 92.79 112.17, 93.73 112.33, 94.66 112.5, 95.6 112.67, 96.52 112.83, 97.45 113.0, 98.37 113.17, 99.28 113.33, 100.19 113.5, 101.1 113.67, 102.0 113.83, 102.9 114.0, 103.8 114.17, 104.69 114.33, 105.57 114.5, 106.46 114.67, 107.33 114.83, 108.21 115.0, 109.08 115.17, 109.94 115.33, 110.81 115.5, 111.67 115.67, 112.52 115.83, 113.37 116.0, 114.22 116.17, 115.06 116.33, 115.89 116.5, 116.73 116.67, 117.56 116.83, 118.38 117.0, 119.21 117.17, 120.02 117.33, 120.84 117.5, 121.65 117.67, 122.46 117.83, 123.26 118.0, 124.06 118.17, 124.85 118.33, 125.64 118.5, 126.43 118.67, 127.21 118.83, 127.99 119.0, 128.76 119.17, 129.54 119.33, 130.3 119.5, 131.07 119.67, 131.83 119.83, 132.58 120.0, 133.33 120.17, 134.08 120.33, 134.83 120.5, 135.57 120.67, 136.3 120.83, 137.04 121.0, 137.76 121.17, 138.49 121.33, 139.21 121.5, 139.93 121.67, 140.64 121.83, 141.35 122.0, 142.06 122.17, 142.76 122.33, 143.46 122.5, 144.16 122.67, 144.85 122.83, 145.54 123.0, 146.22 123.17, 146.9 123.33, 147.58 123.5, 148.25 123.67, 148.92 123.83, 149.59 124.0, 150.25 124.17, 150.91 124.33, 151.57 124.5, 152.22 124.67, 152.87 124.83, 153.51 125.0, 154.15 125.17, 154.79 125.33, 155.42 125.5, 156.05 125.67, 156.68 125.83, 157.3 126.0, 157.92 126.17, 158.54 126.33, 159.15 126.5, 159.76 126.67, 160.36 126.83, 160.96 127.0, 161.56 127.17, 162.16 127.33, 162.75 127.5, 163.34 127.67, 163.92 127.83, 164.5 128.0, 165.08 128.17, 165.65 128.33, 166.22 128.5, 166.79 128.67, 167.36 128.83, 167.92 129.0, 168.47 129.17, 169.03 129.33, 169.58 129.5, 170.12 129.67, 170.67 129.83, 171.21 130.0, 171.74 130.17, 172.28 130.33, 172.81 130.5, 173.34 130.67, 173.86 130.83, 174.38 131.0, 174.9 131.17, 175.41 131.33, 175.92 131.5, 176.43 131.67, 176.93 131.83, 177.43 132.0, 177.93 132.17, 178.42 132.33, 178.91 132.5, 179.4 132.67, 179.88 132.83, 180.37 133.0, 180.84 133.17, 181.32 133.33, 181.79 133.5, 182.26 133.67, 182.72 133.83, 183.19 134.0, 183.64 134.17, 184.1 134.33, 184.55 134.5, 185.0 134.67, 185.45 134.83, 185.89 135.0, 186.33 135.17, 186.77 135.33, 187.2 135.5, 187.63 135.67, 188.06 135.83, 188.49 136.0, 188.91 136.17, 189.33 136.33, 189.74 136.5, 190.15 136.67, 190.56 136.83, 190.97 137.0, 191.37 137.17, 191.77 137.33, 192.17 137.5, 192.56 137.67, 192.96 137.83, 193.34 138.0, 193.73 138.17, 194.11 138.33, 194.49 138.5, 194.87 138.67, 195.24 138.83, 195.61 139.0, 195.98 139.17, 196.34 139.33, 196.71 139.5, 197.07 139.67, 197.42 139.83, 197.77 140.0, 198.12 140.17, 198.47 140.33, 198.82 140.5, 199.16 140.67, 199.5 140.83, 199.83 141.0, 200.17 141.17, 200.5 141.33, 200.83 141.5, 201.15 141.67, 201.47 141.83, 201.79 142.0, 202.11 142.17, 202.42 142.33, 202.73 142.5, 203.04 142.67, 203.35 142.83, 203.65 143.0, 203.95 143.17, 204.25 143.33, 204.54 143.5, 204.83 143.67, 205.12 143.83, 205.41 144.0, 205.69 144.17, 205.97 144.33, 206.25 144.5, 206.53 144.67, 206.8 144.83, 207.07 145.0, 207.34 145.17, 207.61 145.33, 207.87 145.5, 208.13 145.67, 208.39 145.83, 208.64 146.0, 208.89 146.17, 209.14 146.33, 209.39 146.5, 209.63 146.67, 209.88 146.83, 210.12 147.0, 210.35 147.17, 210.59 147.33, 210.82 147.5, 211.05 147.67, 211.28 147.83, 211.5 148.0, 211.72 148.17, 211.94 148.33, 212.16 148.5, 212.37 148.67, 212.58 148.83, 212.79 149.0, 213.0 149.17, 213.21 149.33, 213.41 149.5, 213.61 149.67, 213.81 149.83, 214.0 150.0, 214.19 150.17, 214.38 150.33, 214.57 150.5, 214.76 150.67, 214.94 150.83, 215.12 151.0, 215.3 151.17, 215.47 151.33, 215.65 151.5, 215.82 151.67, 215.99 151.83, 216.16 152.0, 216.32 152.17, 216.48 152.33, 216.64 152.5, 216.8 152.67, 216.96 152.83, 217.11 153.0, 217.26 153.17, 217.41 153.33, 217.55 153.5, 217.7 153.67, 217.84 153.83, 217.98 154.0, 218.12 154.17, 218.25 154.33, 218.39 154.5, 218.52 154.67, 218.65 154.83, 218.77 155.0, 218.9 155.17, 219.02 155.33, 219.14 155.5, 219.26 155.67, 219.37 155.83, 219.49 156.0, 219.6 156.17, 219.71 156.33, 219.82 156.5, 219.92 156.67, 220.02 156.83, 220.13 157.0, 220.22 157.17, 220.32 157.33, 220.42 157.5, 220.51 157.67, 220.6 157.83, 220.69 158.0, 220.78 158.17, 220.86 158.33, 220.94 158.5, 221.03 158.67, 221.1 158.83, 221.18 159.0, 221.26 159.17, 221.33 159.33, 221.4 159.5, 221.47 159.67, 221.54 159.83, 221.6 160.0, 221.67 160.17, 221.73 160.33, 221.79 160.5, 221.85 160.67, 221.9 160.83, 221.96 161.0, 222.01 161.17, 222.06 161.33, 222.11 161.5, 222.15 161.67, 222.2 161.83, 222.24 162.0, 222.28 162.17, 222.32 162.33, 222.36 162.5, 222.39 162.67, 222.43 162.83, 222.46 163.0, 222.49 163.17, 222.52 163.33, 222.55 163.5, 222.57 163.67, 222.59 163.83, 222.62 164.0, 222.64 164.17, 222.65 164.33, 222.67 164.5, 222.68 164.67, 222.7 164.83, 222.71 165.0, 222.72 165.17, 222.73 165.33, 222.73 165.5, 222.74 165.67, 222.74 165.83, 222.74 166.0, 222.74 166.17, 222.74 166.33, 222.74 166.5, 222.73 166.67, 222.72 166.83, 222.72 167.0, 222.71 167.17, 222.69 167.33, 222.68 167.5, 222.67 167.67, 222.65 167.83, 222.63 168.0, 222.61 168.17, 222.59 168.33, 222.57 168.5, 222.55 168.67, 222.52 168.83, 222.49 169.0, 222.47 169.17, 222.44 169.33, 222.41 169.5, 222.37 169.67, 222.34 169.83, 222.3 170.0, 222.27 170.17, 222.23 170.33, 222.19 170.5, 222.15 170.67, 222.1 170.83, 222.06 171.0, 222.01 171.17, 221.97 171.33, 221.92 171.5, 221.87 171.67, 221.82 171.83, 221.77 172.0, 221.71 172.17, 221.66 172.33, 221.6 172.5, 221.54 172.67, 221.48 172.83, 221.42 173.0, 221.36 173.17, 221.3 173.33, 221.23 173.5, 221.17 173.67, 221.1 173.83, 221.03 174.0, 220.97 174.17, 220.89 174.33, 220.82 174.5, 220.75 174.67, 220.68 174.83, 220.6 175.0, 220.52 175.17, 220.45 175.33, 220.37 175.5, 220.29 175.67, 220.21 175.83, 220.12 176.0, 220.04 176.17, 219.96 176.33, 219.87 176.5, 219.78 176.67, 219.69 176.83, 219.61 177.0, 219.51 177.17, 219.42 177.33, 219.33 177.5, 219.24 177.67, 219.14 177.83, 219.05 178.0, 218.95 178.17, 218.85 178.33, 218.75 178.5, 218.65 178.67, 218.55 178.83, 218.45 179.0, 218.35 179.17, 218.24 179.33, 218.14 179.5, 218.03 179.67, 217.93 179.83, 217.82 180.0, 217.71 180.17, 217.6 180.33, 217.49 180.5, 217.38 180.67, 217.26 180.83, 217.15 181.0, 217.04 181.17, 216.92 181.33, 216.8 181.5, 216.69 181.67, 216.57 181.83, 216.45 182.0, 216.33 182.17, 216.21 182.33, 216.09 182.5, 215.96 182.67, 215.84 182.83, 215.72 183.0, 215.59 183.17, 215.47 183.33, 215.34 183.5, 215.21 183.67, 215.09 183.83, 214.96 184.0, 214.83 184.17, 214.7 184.33, 214.57 184.5, 214.43 184.67, 214.3 184.83, 214.17 185.0, 214.03 185.17, 213.9 185.33, 213.76 185.5, 213.63 185.67, 213.49 185.83, 213.35 186.0, 213.21 186.17, 213.08 186.33, 212.94 186.5, 212.8 186.67, 212.65 186.83, 212.51 187.0, 212.37 187.17, 212.23 187.33, 212.08 187.5, 211.94 187.67, 211.8 187.83, 211.65 188.0, 211.5 188.17, 211.36 188.33, 211.21 188.5, 211.06 188.67, 210.92 188.83, 210.77 189.0, 210.62 189.17, 210.47 189.33, 210.32 189.5, 210.17 189.67, 210.02 189.83, 209.87 190.0, 209.71 190.17, 209.56 190.33, 209.41 190.5, 209.25 190.67, 209.1 190.83, 208.95 191.0, 208.79 191.17, 208.64 191.33, 208.48 191.5, 208.32 191.67, 208.17 191.83, 208.01 192.0, 207.85 192.17, 207.7 192.33, 207.54 192.5, 207.38 192.67, 207.22 192.83, 207.06 193.0, 206.9 193.17, 206.74 193.33, 206.58 193.5, 206.42 193.67, 206.26 193.83, 206.1 194.0, 205.94 194.17, 205.78 194.33, 205.61 194.5, 205.45 194.67, 205.29 194.83, 205.13 195.0, 204.96 195.17, 204.8 195.33, 204.64 195.5, 204.47 195.67, 204.31 195.83, 204.15 196.0, 203.98 196.17, 203.82 196.33, 203.65 196.5, 203.49 196.67, 203.32 196.83, 203.16 197.0, 202.99 197.17, 202.83 197.33, 202.66 197.5, 202.5 197.67, 202.33 197.83, 202.16 198.0, 202.0 198.17, 201.83 198.33, 201.67 198.5, 201.5 198.67, 201.33 198.83, 201.17 199.0, 201.0 199.17, 200.83 199.33, 200.67 199.5, 200.5 199.67, 200.33 199.83, 200.17 200.0, 200.0 200.17, 199.83 200.33, 199.67 200.5, 199.5 200.67, 199.33 200.83, 199.17 201.0, 199.0 201.17, 198.83 201.33, 198.67 201.5, 198.5 201.67, 198.33 201.83, 198.17 202.0, 198.0 202.17, 197.84 202.33, 197.67 202.5, 197.5 202.67, 197.34 202.83, 197.17 203.0, 197.01 203.17, 196.84 203.33, 196.68 203.5, 196.51 203.67, 196.35 203.83, 196.18 204.0, 196.02 204.17, 195.85 204.33, 195.69 204.5, 195.53 204.67, 195.36 204.83, 195.2 205.0, 195.04 205.17, 194.87 205.33, 194.71 205.5, 194.55 205.67, 194.39 205.83, 194.22 206.0, 194.06 206.17, 193.9 206.33, 193.74 206.5, 193.58 206.67, 193.42 206.83, 193.26 207.0, 193.1 207.17, 192.94 207.33, 192.78 207.5, 192.62 207.67, 192.46 207.83, 192.3 208.0, 192.15 208.17, 191.99 208.33, 191.83 208.5, 191.68 208.67, 191.52 208.83, 191.36 209.0, 191.21 209.17, 191.05 209.33, 190.9 209.5, 190.75 209.67, 190.59 209.83, 190.44 210.0, 190.29 210.17, 190.13 210.33, 189.98 210.5, 189.83 210.67, 189.68 210.83, 189.53 211.0, 189.38 211.17, 189.23 211.33, 189.08 211.5, 188.94 211.67, 188.79 211.83, 188.64 212.0, 188.5 212.17, 188.35 212.33, 188.2 212.5, 188.06 212.67, 187.92 212.83, 187.77 213.0, 187.63 213.17, 187.49 213.33, 187.35 213.5, 187.2 213.67, 187.06 213.83, 186.92 214.0, 186.79 214.17, 186.65 214.33, 186.51 214.5, 186.37 214.67, 186.24 214.83, 186.1 215.0, 185.97 215.17, 185.83 215.33, 185.7 215.5, 185.57 215.67, 185.43 215.83, 185.3 216.0, 185.17 216.17, 185.04 216.33, 184.91 216.5, 184.79 216.67, 184.66 216.83, 184.53 217.0, 184.41 217.17, 184.28 217.33, 184.16 217.5, 184.04 217.67, 183.91 217.83, 183.79 218.0, 183.67 218.17, 183.55 218.33, 183.43 218.5, 183.31 218.67, 183.2 218.83, 183.08 219.0, 182.96 219.17, 182.85 219.33, 182.74 219.5, 182.62 219.67, 182.51 219.83, 182.4 220.0, 182.29 220.17, 182.18 220.33, 182.07 220.5, 181.97 220.67, 181.86 220.83, 181.76 221.0, 181.65 221.17, 181.55 221.33, 181.45 221.5, 181.35 221.67, 181.25 221.83, 181.15 222.0, 181.05 222.17, 180.95 222.33, 180.86 222.5, 180.76 222.67, 180.67 222.83, 180.58 223.0, 180.49 223.17, 180.39 223.33, 180.31 223.5, 180.22 223.67, 180.13 223.83, 180.04 224.0, 179.96 224.17, 179.88 224.33, 179.79 224.5, 179.71 224.67, 179.63 224.83, 179.55 225.0, 179.48 225.17, 179.4 225.33, 179.32 225.5, 179.25 225.67, 179.18 225.83, 179.11 226.0, 179.03 226.17, 178.97 226.33, 178.9 226.5, 178.83 226.67, 178.77 226.83, 178.7 227.0, 178.64 227.17, 178.58 227.33, 178.52 227.5, 178.46 227.67, 178.4 227.83, 178.34 228.0, 178.29 228.17, 178.23 228.33, 178.18 228.5, 178.13 228.67, 178.08 228.83, 178.03 229.0, 177.99 229.17, 177.94 229.33, 177.9 229.5, 177.85 229.67, 177.81 229.83, 177.77 230.0, 177.73 230.17, 177.7 230.33, 177.66 230.5, 177.63 230.67, 177.59 230.83, 177.56 231.0, 177.53 231.17, 177.51 231.33, 177.48 231.5, 177.45 231.67, 177.43 231.83, 177.41 232.0, 177.39 232.17, 177.37 232.33, 177.35 232.5, 177.33 232.67, 177.32 232.83, 177.31 233.0, 177.29 233.17, 177.28 233.33, 177.28 233.5, 177.27 233.67, 177.26 233.83, 177.26 234.0, 177.26 234.17, 177.26 234.33, 177.26 234.5, 177.26 234.67, 177.27 234.83, 177.27 235.0, 177.28 235.17, 177.29 235.33, 177.3 235.5, 177.32 235.67, 177.33 235.83, 177.35 236.0, 177.36 236.17, 177.38 236.33, 177.41 236.5, 177.43 236.67, 177.45 236.83, 177.48 237.0, 177.51 237.17, 177.54 237.33, 177.57 237.5, 177.61 237.67, 177.64 237.83, 177.68 238.0, 177.72 238.17, 177.76 238.33, 177.8 238.5, 177.85 238.67, 177.89 238.83, 177.94 239.0, 177.99 239.17, 178.04 239.33, 178.1 239.5, 178.15 239.67, 178.21 239.83, 178.27 240.0, 178.33 240.17, 178.4 240.33, 178.46 240.5, 178.53 240.67, 178.6 240.83, 178.67 241.0, 178.74 241.17, 178.82 241.33, 178.9 241.5, 178.97 241.67, 179.06 241.83, 179.14 242.0, 179.22 242.17, 179.31 242.33, 179.4 242.5, 179.49 242.67, 179.58 242.83, 179.68 243.0, 179.78 243.17, 179.87 243.33, 179.98 243.5, 180.08 243.67, 180.18 243.83, 180.29 244.0, 180.4 244.17, 180.51 244.33, 180.63 244.5, 180.74 244.67, 180.86 244.83, 180.98 245.0, 181.1 245.17, 181.23 245.33, 181.35 245.5, 181.48 245.67, 181.61 245.83, 181.75 246.0, 181.88 246.17, 182.02 246.33, 182.16 246.5, 182.3 246.67, 182.45 246.83, 182.59 247.0, 182.74 247.17, 182.89 247.33, 183.04 247.5, 183.2 247.67, 183.36 247.83, 183.52 248.0, 183.68 248.17, 183.84 248.33, 184.01 248.5, 184.18 248.67, 184.35 248.83, 184.53 249.0, 184.7 249.17, 184.88 249.33, 185.06 249.5, 185.24 249.67, 185.43 249.83, 185.62 250.0, 185.81 250.17, 186.0 250.33, 186.19 250.5, 186.39 250.67, 186.59 250.83, 186.79 251.0, 187.0 251.17, 187.21 251.33, 187.42 251.5, 187.63 251.67, 187.84 251.83, 188.06 252.0, 188.28 252.17, 188.5 252.33, 188.72 252.5, 188.95 252.67, 189.18 252.83, 189.41 253.0, 189.65 253.17, 189.88 253.33, 190.12 253.5, 190.37 253.67, 190.61 253.83, 190.86 254.0, 191.11 254.17, 191.36 254.33, 191.61 254.5, 191.87 254.67, 192.13 254.83, 192.39 255.0, 192.66 255.17, 192.93 255.33, 193.2 255.5, 193.47 255.67, 193.75 255.83, 194.03 256.0, 194.31 256.17, 194.59 256.33, 194.88 256.5, 195.17 256.67, 195.46 256.83, 195.75 257.0, 196.05 257.17, 196.35 257.33, 196.65 257.5, 196.96 257.67, 197.27 257.83, 197.58 258.0, 197.89 258.17, 198.21 258.33, 198.53 258.5, 198.85 258.67, 199.17 258.83, 199.5 259.0, 199.83 259.17, 200.17 259.33, 200.5 259.5, 200.84 259.67, 201.18 259.83, 201.53 260.0, 201.88 260.17, 202.23 260.33, 202.58 260.5, 202.93 260.67, 203.29 260.83, 203.66 261.0, 204.02 261.17, 204.39 261.33, 204.76 261.5, 205.13 261.67, 205.51 261.83, 205.89 262.0, 206.27 262.17, 206.66 262.33, 207.04 262.5, 207.44 262.67, 207.83 262.83, 208.23 263.0, 208.63 263.17, 209.03 263.33, 209.44 263.5, 209.85 263.67, 210.26 263.83, 210.67 264.0, 211.09 264.17, 211.51 264.33, 211.94 264.5, 212.37 264.67, 212.8 264.83, 213.23 265.0, 213.67 265.17, 214.11 265.33, 214.55 265.5, 215.0 265.67, 215.45 265.83, 215.9 266.0, 216.36 266.17, 216.81 266.33, 217.28 266.5, 217.74 266.67, 218.21 266.83, 218.68 267.0, 219.16 267.17, 219.63 267.33, 220.12 267.5, 220.6 267.67, 221.09 267.83, 221.58 268.0, 222.07 268.17, 222.57 268.33, 223.07 268.5, 223.57 268.67, 224.08 268.83, 224.59 269.0, 225.1 269.17, 225.62 269.33, 226.14 269.5, 226.66 269.67, 227.19 269.83, 227.72 270.0, 228.26 270.17, 228.79 270.33, 229.33 270.5, 229.88 270.67, 230.42 270.83, 230.97 271.0, 231.53 271.17, 232.08 271.33, 232.64 271.5, 233.21 271.67, 233.78 271.83, 234.35 272.0, 234.92 272.17, 235.5 272.33, 236.08 272.5, 236.66 272.67, 237.25 272.83, 237.84 273.0, 238.44 273.17, 239.04 273.33, 239.64 273.5, 240.24 273.67, 240.85 273.83, 241.46 274.0, 242.08 274.17, 242.7 274.33, 243.32 274.5, 243.95 274.67, 244.58 274.83, 245.21 275.0, 245.85 275.17, 246.49 275.33, 247.13 275.5, 247.78 275.67, 248.43 275.83, 249.09 276.0, 249.75 276.17, 250.41 276.33, 251.08 276.5, 251.75 276.67, 252.42 276.83, 253.1 277.0, 253.78 277.17, 254.46 277.33, 255.15 277.5, 255.84 277.67, 256.54 277.83, 257.24 278.0, 257.94 278.17, 258.65 278.33, 259.36 278.5, 260.07 278.67, 260.79 278.83, 261.51 279.0, 262.24 279.17, 262.96 279.33, 263.7 279.5, 264.43 279.67, 265.17 279.83, 265.92 280.0, 266.67 280.17, 267.42 280.33, 268.17 280.5, 268.93 280.67, 269.7 280.83, 270.46 281.0, 271.24 281.17, 272.01 281.33, 272.79 281.5, 273.57 281.67, 274.36 281.83, 275.15 282.0, 275.94 282.17, 276.74 282.33, 277.54 282.5, 278.35 282.67, 279.16 282.83, 279.98 283.0, 280.79 283.17, 281.62 283.33, 282.44 283.5, 283.27 283.67, 284.11 283.83, 284.94 284.0, 285.78 284.17, 286.63 284.33, 287.48 284.5, 288.33 284.67, 289.19 284.83, 290.06 285.0, 290.92 285.17, 291.79 285.33, 292.67 285.5, 293.54 285.67, 294.43 285.83, 295.31 286.0, 296.2 286.17, 297.1 286.33, 298.0 286.5, 298.9 286.67, 299.81 286.83, 300.72 287.0, 301.63 287.17, 302.55 287.33, 303.48 287.5, 304.4 287.67, 305.34 287.83, 306.27 288.0, 307.21 288.17, 308.16 288.33, 309.11 288.5, 310.06 288.67, 311.02 288.83, 311.98 289.0, 312.94 289.17, 313.91 289.33, 314.89 289.5, 315.87 289.67, 316.85 289.83, 317.84 290.0, 318.83 290.17, 319.82 290.33, 320.82 290.5, 321.83 290.67, 322.84 290.83, 323.85 291.0, 324.87 291.17, 325.89 291.33, 326.91 291.5, 327.94 291.67, 328.98 291.83, 330.02 292.0, 331.06 292.17, 332.11 292.33, 333.16 292.5, 334.22 292.67, 335.28 292.83, 336.34 293.0, 337.41 293.17, 338.49 293.33, 339.57 293.5, 340.65 293.67, 341.74 293.83, 342.83 294.0, 343.93 294.17, 345.03 294.33, 346.13 294.5, 347.24 294.67, 348.36 294.83, 349.48 295.0, 350.6 295.17, 351.73 295.33, 352.86 295.5, 354.0 295.67, 355.14 295.83, 356.29 296.0, 357.44 296.17, 358.6 296.33, 359.76 296.5, 360.92 296.67, 362.09 296.83, 363.26 297.0, 364.44 297.17, 365.63 297.33, 366.81 297.5, 368.01 297.67, 369.2 297.83, 370.41 298.0, 371.61 298.17, 372.82 298.33, 374.04 298.5, 375.26 298.67, 376.49 298.83, 377.72 299.0, 378.95 299.17, 380.19 299.33, 381.43 299.5, 382.68 299.67, 383.94 299.83, 385.2 300.0, 386.46 300.17, 387.73 300.33, 389.0 300.5, 390.28 300.67, 391.56 300.83, 392.85 301.0, 394.14 301.17, 395.44 301.33, 396.74 301.5, 398.04 301.67, 399.35 301.83, 400.67 302.0, 401.99 302.17, 403.32 302.33, 404.65 302.5, 405.98 302.67, 407.32 302.83, 408.67 303.0, 410.02 303.17, 411.38 303.33, 412.74 303.5, 414.1 303.67, 415.47 303.83, 416.85 304.0, 418.23 304.17, 419.61 304.33, 421.0 304.5, 422.4 304.67, 423.8 304.83, 425.2 305.0, 426.61 305.17, 428.03 305.33, 429.45 305.5, 430.87 305.67, 432.3 305.83, 433.74 306.0, 435.18 306.17, 436.62 306.33, 438.07 306.5, 439.53 306.67, 440.99 306.83, 442.45 307.0, 443.92 307.17, 445.4 307.33, 446.88 307.5, 448.37 307.67, 449.86 307.83, 451.35 308.0, 452.86 308.17, 454.36 308.33, 455.87 308.5, 457.39 308.67, 458.91 308.83, 460.44 309.0, 461.97 309.17, 463.51 309.33, 465.05 309.5, 466.6 309.67, 468.15 309.83, 469.71 310.0, 471.28 310.17, 472.85 310.33, 474.42 310.5, 476.0 310.67, 477.58 310.83, 479.17 311.0, 480.77 311.17, 482.37 311.33, 483.98 311.5, 485.59 311.67, 487.2 311.83, 488.83 312.0, 490.45 312.17, 492.09 312.33, 493.72 312.5, 495.37 312.67, 497.02 312.83, 498.67 313.0, 500.33 313.17, 501.99 313.33, 503.67 313.5, 505.34 313.67, 507.02 313.83, 508.71 314.0, 510.4 314.17, 512.1 314.33, 513.8 314.5, 515.51 314.67, 517.22 314.83, 518.94 315.0, 520.67 315.17, 522.4 315.33, 524.13 315.5, 525.87 315.67, 527.62 315.83, 529.37 316.0, 531.13 316.17, 532.9 316.33, 534.66 316.5, 536.44 316.67, 538.22 316.83, 540.0 317.0, 541.8 317.17, 543.59 317.33, 545.39 317.5, 547.2 317.67, 549.02 317.83, 550.84 318.0, 552.66 318.17, 554.49 318.33, 556.33 318.5, 558.17 318.67, 560.02 318.83, 561.87 319.0, 563.73 319.17, 565.59 319.33, 567.46 319.5, 569.34 319.67, 571.22 319.83, 573.11 320.0, 575.0 320.17, 576.9 320.33, 578.8 320.5, 580.71 320.67, 582.63 320.83, 584.55 321.0, 586.48 321.17, 588.41 321.33, 590.35 321.5, 592.3 321.67, 594.25 321.83, 596.2 322.0, 598.16 322.17, 600.13 322.33, 602.11 322.5, 604.09 322.67, 606.07 322.83, 608.06 323.0, 610.06 323.17, 612.06 323.33, 614.07 323.5, 616.09 323.67, 618.11 323.83, 620.14 324.0, 622.17 324.17, 624.21 324.33, 626.25 324.5, 628.3 324.67, 630.36 324.83, 632.42 325.0, 634.49 325.17, 636.56 325.33, 638.64 325.5, 640.73 325.67, 642.82 325.83, 644.92 326.0, 647.02 326.17, 649.13 326.33, 651.25 326.5, 653.37 326.67, 655.5 326.83, 657.64 327.0, 659.78 327.17, 661.92 327.33, 664.08 327.5, 666.23 327.67, 668.4 327.83, 670.57 328.0, 672.75 328.17, 674.93 328.33, 677.12 328.5, 679.31 328.67, 681.52 328.83, 683.72 329.0, 685.94 329.17, 688.16 329.33, 690.38 329.5, 692.62 329.67, 694.85 329.83, 697.1 330.0, 699.35 330.17, 701.61 330.33, 703.87 330.5, 706.14 330.67, 708.41 330.83, 710.7 331.0, 712.98 331.17, 715.28 331.33, 717.58 331.5, 719.89 331.67, 722.2 331.83, 724.52 332.0, 726.84 332.17, 729.18 332.33, 731.52 332.5, 733.86 332.67, 736.21 332.83, 738.57 333.0, 740.93 333.17, 743.3 333.33, 745.68 333.5, 748.06 333.67, 750.45 333.83, 752.85 334.0, 755.25 334.17, 757.66 334.33, 760.07 334.5, 762.49 334.67, 764.92 334.83, 767.35 335.0, 769.79 335.17, 772.24 335.33, 774.7 335.5, 777.16 335.67, 779.62 335.83, 782.09 336.0, 784.57 336.17, 787.06 336.33, 789.55 336.5, 792.05 336.67, 794.56 336.83, 797.07 337.0, 799.59 337.17, 802.11 337.33, 804.64 337.5, 807.18 337.67, 809.72 337.83, 812.28 338.0, 814.83 338.17, 817.4 338.33, 819.97 338.5, 822.55 338.67, 825.13 338.83, 827.72 339.0, 830.32 339.17, 832.92 339.33, 835.53 339.5, 838.15 339.67, 840.77 339.83, 843.4 340.0, 846.04 340.17, 848.69 340.33, 851.34 340.5, 853.99 340.67, 856.66 340.83, 859.33 341.0, 862.01 341.17, 864.69 341.33, 867.38 341.5, 870.08 341.67, 872.78 341.83, 875.49 342.0, 878.21 342.17, 880.94 342.33, 883.67 342.5, 886.41 342.67, 889.15 342.83, 891.9 343.0, 894.66 343.17, 897.43 343.33, 900.2 343.5, 902.98 343.67, 905.77 343.83, 908.56 344.0, 911.36 344.17, 914.17 344.33, 916.98 344.5, 919.8 344.67, 922.63 344.83, 925.46 345.0, 928.3 345.17, 931.15 345.33, 934.01 345.5, 936.87 345.67, 939.74 345.83, 942.61 346.0, 945.5 346.17, 948.39 346.33, 951.28 346.5, 954.19 346.67, 957.1 346.83, 960.02 347.0, 962.94 347.17, 965.87 347.33, 968.81 347.5, 971.76 347.67, 974.71 347.83, 977.67 348.0, 980.64 348.17, 983.61 348.33, 986.59 348.5, 989.58 348.67, 992.58 348.83, 995.58 349.0, 998.59 349.17, 1001.61 349.33, 1004.63 349.5, 1007.66 349.67, 1010.7 349.83, 1013.74 350.0, 1016.8 350.17, 1019.86 350.33, 1022.92 350.5, 1026.0 350.67, 1029.08 350.83, 1032.17 351.0, 1035.26 351.17, 1038.36 351.33, 1041.47 351.5, 1044.59 351.67, 1047.72 351.83, 1050.85 352.0, 1053.99 352.17, 1057.13 352.33, 1060.29 352.5, 1063.45 352.67, 1066.61 352.83, 1069.79 353.0, 1072.97 353.17, 1076.16 353.33, 1079.36 353.5, 1082.56 353.67, 1085.78 353.83, 1088.99 354.0, 1092.22 354.17, 1095.46 354.33, 1098.7 354.5, 1101.95 354.67, 1105.2 354.83, 1108.46 355.0, 1111.74 355.17, 1115.01 355.33, 1118.3 355.5, 1121.59 355.67, 1124.89 355.83, 1128.2 356.0, 1131.51 356.17, 1134.84 356.33, 1138.17 356.5, 1141.51 356.67, 1144.85 356.83, 1148.2 357.0, 1151.56 357.17, 1154.93 357.33, 1158.31 357.5, 1161.69 357.67, 1165.08 357.83, 1168.48 358.0, 1171.88 358.17, 1175.29 358.33, 1178.71 358.5, 1182.14 358.67, 1185.58 358.83, 1189.02 359.0, 1192.47 359.17, 1195.93 359.33, 1199.39 359.5, 1202.87 359.67, 1206.35 359.83, 1209.84 360.0, 1213.33 360.17, 1216.84 360.33, 1220.35 360.5, 1223.87 360.67, 1227.39 360.83, 1230.93 361.0, 1234.47 361.17, 1238.02 361.33, 1241.58 361.5, 1245.14 361.67, 1248.72 361.83, 1252.3 362.0, 1255.89 362.17, 1259.48 362.33, 1263.09 362.5, 1266.7 362.67, 1270.32 362.83, 1273.94 363.0, 1277.58 363.17, 1281.22 363.33, 1284.87 363.5, 1288.53 363.67, 1292.2 363.83, 1295.87 364.0, 1299.55 364.17, 1303.24 364.33, 1306.94 364.5, 1310.64 364.67, 1314.36 364.83, 1318.08 365.0, 1321.81 365.17, 1325.54 365.33, 1329.29 365.5, 1333.04 365.67, 1336.8 365.83, 1340.57 366.0, 1344.35 366.17, 1348.13 366.33, 1351.92 366.5, 1355.72 366.67, 1359.53 366.83, 1363.35 367.0, 1367.17 367.17, 1371.0 367.33, 1374.84 367.5, 1378.69 367.67, 1382.54 367.83, 1386.41 368.0, 1390.28 368.17, 1394.16 368.33, 1398.05 368.5, 1401.94 368.67, 1405.85 368.83, 1409.76 369.0, 1413.68 369.17, 1417.61 369.33, 1421.54 369.5, 1425.49 369.67, 1429.44 369.83, 1433.4 370.0, 1437.37 370.17, 1441.35 370.33, 1445.33 370.5, 1449.32 370.67, 1453.33 370.83, 1457.33 371.0, 1461.35 371.17, 1465.38 371.33, 1469.41 371.5, 1473.45 371.67, 1477.5 371.83, 1481.56 372.0, 1485.63 372.17, 1489.7 372.33, 1493.79 372.5, 1497.88 372.67, 1501.98 372.83, 1506.08 373.0, 1510.2 373.17, 1514.32 373.33, 1518.46 373.5, 1522.6 373.67, 1526.75 373.83, 1530.9 374.0, 1535.07 374.17, 1539.24 374.33, 1543.43 374.5, 1547.62 374.67, 1551.81 374.83, 1556.02 375.0, 1560.24 375.17, 1564.46 375.33, 1568.69 375.5, 1572.93 375.67, 1577.18 375.83, 1581.44 376.0, 1585.71 376.17, 1589.98 376.33, 1594.26 376.5, 1598.55 376.67, 1602.85 376.83, 1607.16 377.0, 1611.48 377.17, 1615.8 377.33, 1620.14 377.5, 1624.48 377.67, 1628.83 377.83, 1633.19 378.0, 1637.55 378.17, 1641.93 378.33, 1646.31 378.5, 1650.71 378.67, 1655.11 378.83, 1659.52 379.0, 1663.94 379.17, 1668.36 379.33, 1672.8 379.5, 1677.24 379.67, 1681.69 379.83, 1686.16 380.0, 1690.62 380.17, 1695.1 380.33, 1699.59 380.5, 1704.09 380.67, 1708.59 380.83, 1713.1 381.0, 1717.62 381.17, 1722.15 381.33, 1726.69 381.5, 1731.24 381.67, 1735.8 381.83, 1740.36 382.0, 1744.93 382.17, 1749.52 382.33, 1754.11 382.5, 1758.71 382.67, 1763.31 382.83, 1767.93 383.0, 1772.56 383.17, 1777.19 383.33, 1781.83 383.5, 1786.49 383.67, 1791.15 383.83, 1795.82 384.0, 1800.49 384.17, 1805.18 384.33, 1809.88 384.5, 1814.58 384.67, 1819.29 384.83, 1824.02 385.0, 1828.75 385.17, 1833.49 385.33, 1838.24 385.5, 1842.99 385.67, 1847.76 385.83, 1852.53 386.0, 1857.32 386.17, 1862.11 386.33, 1866.91 386.5, 1871.72 386.67, 1876.54 386.83, 1881.37 387.0, 1886.21 387.17, 1891.06 387.33, 1895.91 387.5, 1900.78 387.67, 1905.65 387.83, 1910.53 388.0, 1915.42 388.17, 1920.32 388.33, 1925.23 388.5, 1930.15 388.67, 1935.08 388.83, 1940.01 389.0, 1944.96 389.17, 1949.91 389.33, 1954.87 389.5, 1959.85 389.67, 1964.83 389.83, 1969.82 390.0, 1974.82 390.17, 1979.83 390.33, 1984.84 390.5, 1989.87 390.67, 1994.91 390.83, 1999.95 391.0, 2005.0 391.17, 2010.07 391.33, 2015.14 391.5, 2020.22 391.67, 2025.31 391.83, 2030.41 392.0, 2035.52 392.17, 2040.64 392.33, 2045.77 392.5, 2050.9 392.67, 2056.05 392.83, 2061.2 393.0, 2066.37 393.17, 2071.54 393.33, 2076.72 393.5, 2081.91 393.67, 2087.11 393.83, 2092.32 394.0, 2097.54 394.17, 2102.77 394.33, 2108.01 394.5, 2113.26 394.67, 2118.51 394.83, 2123.78 395.0, 2129.05 395.17, 2134.34 395.33, 2139.63 395.5, 2144.93 395.67, 2150.25 395.83, 2155.57 396.0, 2160.9 396.17, 2166.24 396.33, 2171.59 396.5, 2176.95 396.67, 2182.32 396.83, 2187.69 397.0, 2193.08 397.17, 2198.48 397.33, 2203.88 397.5, 2209.3 397.67, 2214.72 397.83, 2220.16 398.0, 2225.6 398.17, 2231.06 398.33, 2236.52 398.5, 2241.99 398.67, 2247.47 398.83, 2252.96 399.0, 2258.46 399.17, 2263.97 399.33, 2269.49 399.5, 2275.02 399.67, 2280.56 399.83, 2286.11 400.0, 2291.67 " fill="none" stroke="white" stroke-width="1.5" stroke-linejoin="round" stroke-opacity="1"/>

 </svg>