<svg version="1.1" 
 baseProfile="full" 
 width="400" 
 height="400" 
 xmlns="http://www.w3.org/2000/svg">
<rect x="0.0" y="0.0" width="400" height="400" fill="black" stroke="black" stroke-width="0" opacity="1"/>
<line x1="0.0" y1="0.0" x2="0.0" y2="400.0" stroke="white" stroke-width="1" opacity="0.4" stroke-linecap="butt"/>
<line x1="40.0" y1="0.0" x2="40.0" y2="400.0" stroke="white" stroke-width="1" opacity="0.4" stroke-linecap="butt"/>
<line x1="80.0" y1="0.0" x2="80.0" y2="400.0" stroke="white" stroke-width="1" opacity="0.4" stroke-linecap="butt"/>
<line x1="120.0" y1="0.0" x2="120.0" y2="400.0" stroke="white" stroke-width="1" opacity="0.4" stroke-linecap="butt"/>
<line x1="160.0" y1="0.0" x2="160.0" y2="400.0" stroke="white" stroke-width="1" opacity="0.4" stroke-linecap="butt"/>
<line x1="200.0" y1="0.0" x2="200.0" y2="400.0" stroke="white" stroke-width="1" opacity="0.4" stroke-linecap="butt"/>
<line x1="240.0" y1="0.0" x2="240.0" y2="400.0" stroke="white" stroke-width="1" opacity="0.4" stroke-linecap="butt"/>
<line x1="280.0" y1="0.0" x2="280.0" y2="400.0" stroke="white" stroke-width="1" opacity="0.4" stroke-linecap="butt"/>
<line x1="320.0" y1="0.0" x2="320.0" y2="400.0" stroke="white" stroke-width="1" opacity="0.4" stroke-linecap="butt"/>
<line x1="360.0" y1="0.0" x2="360.0" y2="400.0" stroke="white" stroke-width="1" opacity="0.4" stroke-linecap="butt"/>
<line x1="0.0" y1="0.0" x2="400.0" y2="0.0" stroke="white" stroke-width="1" opacity="0.4" stroke-linecap="butt"/>
<line x1="0.0" y1="40.0" x2="400.0" y2="40.0" stroke="white" stroke-width="1" opacity="0.4" stroke-linecap="butt"/>
<line x1="0.0" y1="80.0" x2="400.0" y2="80.0" stroke="white" stroke-width="1" opacity="0.4" stroke-linecap="butt"/>
<line x1="0.0" y1="120.0" x2="400.0" y2="120.0" stroke="white" stroke-width="1" opacity="0.4" stroke-linecap="butt"/>
<line x1="0.0" y1="160.0" x2="400.0" y2="160.0" stroke="white" stroke-width="1" opacity="0.4" stroke-linecap="butt"/>
<line x1="0.0" y1="200.0" x2="400.0" y2="200.0" stroke="white" stroke-width="1" opacity="0.4" stroke-linecap="butt"/>
<line x1="0.0" y1="240.0" x2="400.0" y2="240.0" stroke="white" stroke-width="1" opacity="0.4" stroke-linecap="butt"/>
<line x1="0.0" y1="280.0" x2="400.0" y2="280.0" stroke="white" stroke-width="1" opacity="0.4" stroke-linecap="butt"/>
<line x1="0.0" y1="320.0" x2="400.0" y2="320.0" stroke="white" stroke-width="1" opacity="0.4" stroke-linecap="butt"/>
<line x1="0.0" y1="360.0" x2="400.0" y2="360.0" stroke="white" stroke-width="1" opacity="0.4" stroke-linecap="butt"/>
<line x1="0.0" y1="200.0" x2="400.0" y2="200.0" stroke="yellow" stroke-width="2.5" opacity="1" stroke-linecap="butt"/>
<line x1="200.0" y1="0.0" x2="200.0" y2="400.0" stroke="yellow" stroke-width="2.5" opacity="1" stroke-linecap="butt"/>
<polygon points="391.0 204.0, 401.0 200.0, 391.0 196.0, 393.0 200.0" fill="yellow"/><polygon points="204.0 9.0, 200.0 -1.0, 196.0 9.0, 200.0 7.0" fill="yellow"/><image x="-60.0" y="-60.0" width="200" height="200" href="/Users/girirajhira/PycharmProjects/Giraphics3/Taylor/expr.png"/><polyline points="0.0, -1725.0 0.17, -1719.86 0.33, -1714.73 0.5, -1709.6 0.67, -1704.49 0.83, -1699.38 1.0, -1694.28 1.17, -1689.2 1.33, -1684.12 1.5, -1679.05 1.67, -1673.98 1.83, -1668.93 2.0, -1663.89 2.17, -1658.85 2.33, -1653.82 2.5, -1648.8 2.67, -1643.79 2.83, -1638.79 3.0, -1633.8 3.17, -1628.82 3.33, -1623.84 3.5, -1618.88 3.67, -1613.92 3.83, -1608.97 4.0, -1604.03 4.17, -1599.1 4.33, -1594.18 4.5, -1589.27 4.67, -1584.36 4.83, -1579.46 5.0, -1574.58 5.17, -1569.7 5.33, -1564.83 5.5, -1559.96 5.67, -1555.11 5.83, -1550.27 6.0, -1545.43 6.17, -1540.6 6.33, -1535.78 6.5, -1530.97 6.67, -1526.17 6.83, -1521.38 7.0, -1516.59 7.17, -1511.82 7.33, -1507.05 7.5, -1502.29 7.67, -1497.54 7.83, -1492.8 8.0, -1488.06 8.17, -1483.34 8.33, -1478.62 8.5, -1473.91 8.67, -1469.21 8.83, -1464.52 9.0, -1459.84 9.17, -1455.17 9.33, -1450.5 9.5, -1445.84 9.67, -1441.19 9.83, -1436.55 10.0, -1431.92 10.17, -1427.3 10.33, -1422.68 10.5, -1418.08 10.67, -1413.48 10.83, -1408.89 11.0, -1404.31 11.17, -1399.73 11.33, -1395.17 11.5, -1390.61 11.67, -1386.06 11.83, -1381.52 12.0, -1376.99 12.17, -1372.47 12.33, -1367.95 12.5, -1363.45 12.67, -1358.95 12.83, -1354.46 13.0, -1349.98 13.17, -1345.5 13.33, -1341.04 13.5, -1336.58 13.67, -1332.13 13.83, -1327.69 14.0, -1323.26 14.17, -1318.83 14.33, -1314.42 14.5, -1310.01 14.67, -1305.61 14.83, -1301.22 15.0, -1296.84 15.17, -1292.46 15.33, -1288.1 15.5, -1283.74 15.67, -1279.39 15.83, -1275.05 16.0, -1270.71 16.17, -1266.39 16.33, -1262.07 16.5, -1257.76 16.67, -1253.46 16.83, -1249.16 17.0, -1244.88 17.17, -1240.6 17.33, -1236.33 17.5, -1232.07 17.67, -1227.82 17.83, -1223.58 18.0, -1219.34 18.17, -1215.11 18.33, -1210.89 18.5, -1206.68 18.67, -1202.47 18.83, -1198.28 19.0, -1194.09 19.17, -1189.91 19.33, -1185.73 19.5, -1181.57 19.67, -1177.41 19.83, -1173.27 20.0, -1169.12 20.17, -1164.99 20.33, -1160.87 20.5, -1156.75 20.67, -1152.64 20.83, -1148.54 21.0, -1144.45 21.17, -1140.36 21.33, -1136.29 21.5, -1132.22 21.67, -1128.16 21.83, -1124.1 22.0, -1120.06 22.17, -1116.02 22.33, -1111.99 22.5, -1107.97 22.67, -1103.96 22.83, -1099.95 23.0, -1095.95 23.17, -1091.96 23.33, -1087.98 23.5, -1084.01 23.67, -1080.04 23.83, -1076.08 24.0, -1072.13 24.17, -1068.18 24.33, -1064.25 24.5, -1060.32 24.67, -1056.4 24.83, -1052.49 25.0, -1048.58 25.17, -1044.69 25.33, -1040.8 25.5, -1036.92 25.67, -1033.04 25.83, -1029.18 26.0, -1025.32 26.17, -1021.47 26.33, -1017.63 26.5, -1013.79 26.67, -1009.96 26.83, -1006.14 27.0, -1002.33 27.17, -998.53 27.33, -994.73 27.5, -990.94 27.67, -987.16 27.83, -983.39 28.0, -979.62 28.17, -975.86 28.33, -972.11 28.5, -968.37 28.67, -964.63 28.83, -960.9 29.0, -957.18 29.17, -953.47 29.33, -949.76 29.5, -946.06 29.67, -942.37 29.83, -938.69 30.0, -935.02 30.17, -931.35 30.33, -927.69 30.5, -924.03 30.67, -920.39 30.83, -916.75 31.0, -913.12 31.17, -909.5 31.33, -905.88 31.5, -902.28 31.67, -898.67 31.83, -895.08 32.0, -891.5 32.17, -887.92 32.33, -884.35 32.5, -880.78 32.67, -877.23 32.83, -873.68 33.0, -870.14 33.17, -866.6 33.33, -863.08 33.5, -859.56 33.67, -856.05 33.83, -852.54 34.0, -849.05 34.17, -845.56 34.33, -842.08 34.5, -838.6 34.67, -835.13 34.83, -831.67 35.0, -828.22 35.17, -824.78 35.33, -821.34 35.5, -817.91 35.67, -814.48 35.83, -811.07 36.0, -807.66 36.17, -804.26 36.33, -800.86 36.5, -797.47 36.67, -794.09 36.83, -790.72 37.0, -787.35 37.17, -784.0 37.33, -780.65 37.5, -777.3 37.67, -773.96 37.83, -770.63 38.0, -767.31 38.17, -764.0 38.33, -760.69 38.5, -757.39 38.67, -754.09 38.83, -750.81 39.0, -747.53 39.17, -744.26 39.33, -740.99 39.5, -737.73 39.67, -734.48 39.83, -731.24 40.0, -728.0 40.17, -724.77 40.33, -721.55 40.5, -718.33 40.67, -715.12 40.83, -711.92 41.0, -708.73 41.17, -705.54 41.33, -702.36 41.5, -699.19 41.67, -696.02 41.83, -692.86 42.0, -689.71 42.17, -686.56 42.33, -683.42 42.5, -680.29 42.67, -677.17 42.83, -674.05 43.0, -670.94 43.17, -667.84 43.33, -664.74 43.5, -661.65 43.67, -658.57 43.83, -655.49 44.0, -652.42 44.17, -649.36 44.33, -646.31 44.5, -643.26 44.67, -640.22 44.83, -637.18 45.0, -634.15 45.17, -631.13 45.33, -628.12 45.5, -625.11 45.67, -622.11 45.83, -619.12 46.0, -616.13 46.17, -613.15 46.33, -610.18 46.5, -607.21 46.67, -604.25 46.83, -601.3 47.0, -598.36 47.17, -595.42 47.33, -592.49 47.5, -589.56 47.67, -586.64 47.83, -583.73 48.0, -580.82 48.17, -577.93 48.33, -575.03 48.5, -572.15 48.67, -569.27 48.83, -566.4 49.0, -563.53 49.17, -560.68 49.33, -557.82 49.5, -554.98 49.67, -552.14 49.83, -549.31 50.0, -546.48 50.17, -543.67 50.33, -540.85 50.5, -538.05 50.67, -535.25 50.83, -532.46 51.0, -529.67 51.17, -526.9 51.33, -524.12 51.5, -521.36 51.67, -518.6 51.83, -515.85 52.0, -513.1 52.17, -510.36 52.33, -507.63 52.5, -504.9 52.67, -502.18 52.83, -499.47 53.0, -496.76 53.17, -494.06 53.33, -491.37 53.5, -488.68 53.67, -486.0 53.83, -483.33 54.0, -480.66 54.17, -478.0 54.33, -475.35 54.5, -472.7 54.67, -470.06 54.83, -467.42 55.0, -464.79 55.17, -462.17 55.33, -459.55 55.5, -456.94 55.67, -454.34 55.83, -451.74 56.0, -449.15 56.17, -446.57 56.33, -443.99 56.5, -441.42 56.67, -438.85 56.83, -436.29 57.0, -433.74 57.17, -431.2 57.33, -428.66 57.5, -426.12 57.67, -423.6 57.83, -421.08 58.0, -418.56 58.17, -416.05 58.33, -413.55 58.5, -411.06 58.67, -408.57 58.83, -406.08 59.0, -403.61 59.17, -401.13 59.33, -398.67 59.5, -396.21 59.67, -393.76 59.83, -391.31 60.0, -388.88 60.17, -386.44 60.33, -384.01 60.5, -381.59 60.67, -379.18 60.83, -376.77 61.0, -374.37 61.17, -371.97 61.33, -369.58 61.5, -367.2 61.67, -364.82 61.83, -362.45 62.0, -360.08 62.17, -357.72 62.33, -355.37 62.5, -353.02 62.67, -350.68 62.83, -348.34 63.0, -346.02 63.17, -343.69 63.33, -341.38 63.5, -339.06 63.67, -336.76 63.83, -334.46 64.0, -332.17 64.17, -329.88 64.33, -327.6 64.5, -325.33 64.67, -323.06 64.83, -320.79 65.0, -318.54 65.17, -316.29 65.33, -314.04 65.5, -311.8 65.67, -309.57 65.83, -307.34 66.0, -305.12 66.17, -302.91 66.33, -300.7 66.5, -298.49 66.67, -296.3 66.83, -294.1 67.0, -291.92 67.17, -289.74 67.33, -287.57 67.5, -285.4 67.67, -283.24 67.83, -281.08 68.0, -278.93 68.17, -276.78 68.33, -274.65 68.5, -272.51 68.67, -270.39 68.83, -268.26 69.0, -266.15 69.17, -264.04 69.33, -261.94 69.5, -259.84 69.67, -257.75 69.83, -255.66 70.0, -253.58 70.17, -251.5 70.33, -249.43 70.5, -247.37 70.67, -245.31 70.83, -243.26 71.0, -241.21 71.17, -239.17 71.33, -237.14 71.5, -235.11 71.67, -233.09 71.83, -231.07 72.0, -229.06 72.17, -227.05 72.33, -225.05 72.5, -223.05 72.67, -221.06 72.83, -219.08 73.0, -217.1 73.17, -215.13 73.33, -213.16 73.5, -211.2 73.67, -209.24 73.83, -207.29 74.0, -205.35 74.17, -203.41 74.33, -201.48 74.5, -199.55 74.67, -197.63 74.83, -195.71 75.0, -193.8 75.17, -191.89 75.33, -189.99 75.5, -188.1 75.67, -186.21 75.83, -184.33 76.0, -182.45 76.17, -180.57 76.33, -178.71 76.5, -176.85 76.67, -174.99 76.83, -173.14 77.0, -171.29 77.17, -169.45 77.33, -167.62 77.5, -165.79 77.67, -163.97 77.83, -162.15 78.0, -160.33 78.17, -158.53 78.33, -156.73 78.5, -154.93 78.67, -153.14 78.83, -151.35 79.0, -149.57 79.17, -147.8 79.33, -146.03 79.5, -144.26 79.67, -142.5 79.83, -140.75 80.0, -139.0 80.17, -137.26 80.33, -135.52 80.5, -133.79 80.67, -132.06 80.83, -130.34 81.0, -128.62 81.17, -126.91 81.33, -125.2 81.5, -123.5 81.67, -121.81 81.83, -120.12 82.0, -118.43 82.17, -116.75 82.33, -115.08 82.5, -113.41 82.67, -111.74 82.83, -110.08 83.0, -108.43 83.17, -106.78 83.33, -105.14 83.5, -103.5 83.67, -101.86 83.83, -100.24 84.0, -98.61 84.17, -97.0 84.33, -95.38 84.5, -93.77 84.67, -92.17 84.83, -90.57 85.0, -88.98 85.17, -87.4 85.33, -85.81 85.5, -84.24 85.67, -82.66 85.83, -81.1 86.0, -79.54 86.17, -77.98 86.33, -76.43 86.5, -74.88 86.67, -73.34 86.83, -71.8 87.0, -70.27 87.17, -68.74 87.33, -67.22 87.5, -65.7 87.67, -64.19 87.83, -62.69 88.0, -61.18 88.17, -59.69 88.33, -58.2 88.5, -56.71 88.67, -55.23 88.83, -53.75 89.0, -52.28 89.17, -50.81 89.33, -49.35 89.5, -47.89 89.67, -46.44 89.83, -44.99 90.0, -43.55 90.17, -42.11 90.33, -40.68 90.5, -39.25 90.67, -37.82 90.83, -36.41 91.0, -34.99 91.17, -33.58 91.33, -32.18 91.5, -30.78 91.67, -29.39 91.83, -28.0 92.0, -26.61 92.17, -25.23 92.33, -23.86 92.5, -22.49 92.67, -21.12 92.83, -19.76 93.0, -18.4 93.17, -17.05 93.33, -15.7 93.5, -14.36 93.67, -13.02 93.83, -11.69 94.0, -10.36 94.17, -9.04 94.33, -7.72 94.5, -6.41 94.67, -5.1 94.83, -3.79 95.0, -2.49 95.17, -1.2 95.33, 0.09 95.5, 1.38 95.67, 2.66 95.83, 3.94 96.0, 5.21 96.17, 6.48 96.33, 7.74 96.5, 9.0 96.67, 10.25 96.83, 11.5 97.0, 12.74 97.17, 13.98 97.33, 15.22 97.5, 16.45 97.67, 17.68 97.83, 18.9 98.0, 20.12 98.17, 21.33 98.33, 22.54 98.5, 23.74 98.67, 24.94 98.83, 26.14 99.0, 27.33 99.17, 28.51 99.33, 29.69 99.5, 30.87 99.67, 32.04 99.83, 33.21 100.0, 34.38 100.17, 35.53 100.33, 36.69 100.5, 37.84 100.67, 38.99 100.83, 40.13 101.0, 41.26 101.17, 42.4 101.33, 43.53 101.5, 44.65 101.67, 45.77 101.83, 46.88 102.0, 48.0 102.17, 49.1 102.33, 50.2 102.5, 51.3 102.67, 52.4 102.83, 53.49 103.0, 54.57 103.17, 55.65 103.33, 56.73 103.5, 57.8 103.67, 58.87 103.83, 59.93 104.0, 60.99 104.17, 62.05 104.33, 63.1 104.5, 64.14 104.67, 65.19 104.83, 66.23 105.0, 67.26 105.17, 68.29 105.33, 69.32 105.5, 70.34 105.67, 71.35 105.83, 72.37 106.0, 73.38 106.17, 74.38 106.33, 75.38 106.5, 76.38 106.67, 77.37 106.83, 78.36 107.0, 79.34 107.17, 80.32 107.33, 81.3 107.5, 82.27 107.67, 83.24 107.83, 84.2 108.0, 85.16 108.17, 86.12 108.33, 87.07 108.5, 88.02 108.67, 88.96 108.83, 89.9 109.0, 90.83 109.17, 91.76 109.33, 92.69 109.5, 93.61 109.67, 94.53 109.83, 95.45 110.0, 96.36 110.17, 97.27 110.33, 98.17 110.5, 99.07 110.67, 99.96 110.83, 100.86 111.0, 101.74 111.17, 102.63 111.33, 103.51 111.5, 104.38 111.67, 105.25 111.83, 106.12 112.0, 106.98 112.17, 107.84 112.33, 108.7 112.5, 109.55 112.67, 110.4 112.83, 111.24 113.0, 112.09 113.17, 112.92 113.33, 113.75 113.5, 114.58 113.67, 115.41 113.83, 116.23 114.0, 117.05 114.17, 117.86 114.33, 118.67 114.5, 119.48 114.67, 120.28 114.83, 121.08 115.0, 121.87 115.17, 122.66 115.33, 123.45 115.5, 124.23 115.67, 125.01 115.83, 125.79 116.0, 126.56 116.17, 127.33 116.33, 128.1 116.5, 128.86 116.67, 129.62 116.83, 130.37 117.0, 131.12 117.17, 131.87 117.33, 132.61 117.5, 133.35 117.67, 134.08 117.83, 134.81 118.0, 135.54 118.17, 136.27 118.33, 136.99 118.5, 137.71 118.67, 138.42 118.83, 139.13 119.0, 139.84 119.17, 140.54 119.33, 141.24 119.5, 141.93 119.67, 142.63 119.83, 143.31 120.0, 144.0 120.17, 144.68 120.33, 145.36 120.5, 146.03 120.67, 146.71 120.83, 147.37 121.0, 148.04 121.17, 148.7 121.33, 149.35 121.5, 150.01 121.67, 150.66 121.83, 151.3 122.0, 151.95 122.17, 152.59 122.33, 153.22 122.5, 153.86 122.67, 154.49 122.83, 155.11 123.0, 155.73 123.17, 156.35 123.33, 156.97 123.5, 157.58 123.67, 158.19 123.83, 158.79 124.0, 159.4 124.17, 160.0 124.33, 160.59 124.5, 161.18 124.67, 161.77 124.83, 162.36 125.0, 162.94 125.17, 163.52 125.33, 164.09 125.5, 164.67 125.67, 165.23 125.83, 165.8 126.0, 166.36 126.17, 166.92 126.33, 167.48 126.5, 168.03 126.67, 168.58 126.83, 169.12 127.0, 169.67 127.17, 170.21 127.33, 170.74 127.5, 171.28 127.67, 171.81 127.83, 172.33 128.0, 172.86 128.17, 173.38 128.33, 173.89 128.5, 174.41 128.67, 174.92 128.83, 175.43 129.0, 175.93 129.17, 176.43 129.33, 176.93 129.5, 177.42 129.67, 177.92 129.83, 178.4 130.0, 178.89 130.17, 179.37 130.33, 179.85 130.5, 180.33 130.67, 180.8 130.83, 181.27 131.0, 181.74 131.17, 182.2 131.33, 182.67 131.5, 183.12 131.67, 183.58 131.83, 184.03 132.0, 184.48 132.17, 184.92 132.33, 185.37 132.5, 185.81 132.67, 186.24 132.83, 186.68 133.0, 187.11 133.17, 187.54 133.33, 187.96 133.5, 188.39 133.67, 188.8 133.83, 189.22 134.0, 189.63 134.17, 190.04 134.33, 190.45 134.5, 190.86 134.67, 191.26 134.83, 191.66 135.0, 192.05 135.17, 192.45 135.33, 192.84 135.5, 193.22 135.67, 193.61 135.83, 193.99 136.0, 194.37 136.17, 194.74 136.33, 195.12 136.5, 195.49 136.67, 195.85 136.83, 196.22 137.0, 196.58 137.17, 196.94 137.33, 197.3 137.5, 197.65 137.67, 198.0 137.83, 198.35 138.0, 198.69 138.17, 199.04 138.33, 199.38 138.5, 199.71 138.67, 200.05 138.83, 200.38 139.0, 200.71 139.17, 201.03 139.33, 201.36 139.5, 201.68 139.67, 202.0 139.83, 202.31 140.0, 202.62 140.17, 202.94 140.33, 203.24 140.5, 203.55 140.67, 203.85 140.83, 204.15 141.0, 204.45 141.17, 204.74 141.33, 205.03 141.5, 205.32 141.67, 205.61 141.83, 205.89 142.0, 206.17 142.17, 206.45 142.33, 206.73 142.5, 207.0 142.67, 207.27 142.83, 207.54 143.0, 207.81 143.17, 208.07 143.33, 208.33 143.5, 208.59 143.67, 208.85 143.83, 209.1 144.0, 209.35 144.17, 209.6 144.33, 209.85 144.5, 210.09 144.67, 210.33 144.83, 210.57 145.0, 210.81 145.17, 211.04 145.33, 211.27 145.5, 211.5 145.67, 211.73 145.83, 211.95 146.0, 212.17 146.17, 212.39 146.33, 212.61 146.5, 212.82 146.67, 213.04 146.83, 213.25 147.0, 213.45 147.17, 213.66 147.33, 213.86 147.5, 214.06 147.67, 214.26 147.83, 214.46 148.0, 214.65 148.17, 214.84 148.33, 215.03 148.5, 215.22 148.67, 215.4 148.83, 215.58 149.0, 215.76 149.17, 215.94 149.33, 216.12 149.5, 216.29 149.67, 216.46 149.83, 216.63 150.0, 216.8 150.17, 216.96 150.33, 217.12 150.5, 217.28 150.67, 217.44 150.83, 217.6 151.0, 217.75 151.17, 217.9 151.33, 218.05 151.5, 218.2 151.67, 218.34 151.83, 218.48 152.0, 218.62 152.17, 218.76 152.33, 218.9 152.5, 219.03 152.67, 219.16 152.83, 219.29 153.0, 219.42 153.17, 219.55 153.33, 219.67 153.5, 219.79 153.67, 219.91 153.83, 220.03 154.0, 220.15 154.17, 220.26 154.33, 220.37 154.5, 220.48 154.67, 220.59 154.83, 220.69 155.0, 220.79 155.17, 220.9 155.33, 221.0 155.5, 221.09 155.67, 221.19 155.83, 221.28 156.0, 221.37 156.17, 221.46 156.33, 221.55 156.5, 221.64 156.67, 221.72 156.83, 221.8 157.0, 221.88 157.17, 221.96 157.33, 222.03 157.5, 222.11 157.67, 222.18 157.83, 222.25 158.0, 222.32 158.17, 222.39 158.33, 222.45 158.5, 222.51 158.67, 222.58 158.83, 222.64 159.0, 222.69 159.17, 222.75 159.33, 222.8 159.5, 222.85 159.67, 222.9 159.83, 222.95 160.0, 223.0 160.17, 223.04 160.33, 223.09 160.5, 223.13 160.67, 223.17 160.83, 223.21 161.0, 223.24 161.17, 223.28 161.33, 223.31 161.5, 223.34 161.67, 223.37 161.83, 223.4 162.0, 223.42 162.17, 223.45 162.33, 223.47 162.5, 223.49 162.67, 223.51 162.83, 223.53 163.0, 223.55 163.17, 223.56 163.33, 223.57 163.5, 223.58 163.67, 223.59 163.83, 223.6 164.0, 223.61 164.17, 223.61 164.33, 223.61 164.5, 223.62 164.67, 223.62 164.83, 223.61 165.0, 223.61 165.17, 223.61 165.33, 223.6 165.5, 223.59 165.67, 223.58 165.83, 223.57 166.0, 223.56 166.17, 223.55 166.33, 223.53 166.5, 223.51 166.67, 223.5 166.83, 223.48 167.0, 223.45 167.17, 223.43 167.33, 223.41 167.5, 223.38 167.67, 223.35 167.83, 223.33 168.0, 223.3 168.17, 223.26 168.33, 223.23 168.5, 223.2 168.67, 223.16 168.83, 223.13 169.0, 223.09 169.17, 223.05 169.33, 223.01 169.5, 222.96 169.67, 222.92 169.83, 222.87 170.0, 222.83 170.17, 222.78 170.33, 222.73 170.5, 222.68 170.67, 222.63 170.83, 222.58 171.0, 222.52 171.17, 222.47 171.33, 222.41 171.5, 222.35 171.67, 222.29 171.83, 222.23 172.0, 222.17 172.17, 222.11 172.33, 222.04 172.5, 221.98 172.67, 221.91 172.83, 221.84 173.0, 221.77 173.17, 221.7 173.33, 221.63 173.5, 221.56 173.67, 221.48 173.83, 221.41 174.0, 221.33 174.17, 221.25 174.33, 221.18 174.5, 221.1 174.67, 221.01 174.83, 220.93 175.0, 220.85 175.17, 220.77 175.33, 220.68 175.5, 220.59 175.67, 220.51 175.83, 220.42 176.0, 220.33 176.17, 220.24 176.33, 220.15 176.5, 220.05 176.67, 219.96 176.83, 219.86 177.0, 219.77 177.17, 219.67 177.33, 219.57 177.5, 219.47 177.67, 219.37 177.83, 219.27 178.0, 219.17 178.17, 219.07 178.33, 218.96 178.5, 218.86 178.67, 218.75 178.83, 218.65 179.0, 218.54 179.17, 218.43 179.33, 218.32 179.5, 218.21 179.67, 218.1 179.83, 217.99 180.0, 217.88 180.17, 217.76 180.33, 217.65 180.5, 217.53 180.67, 217.41 180.83, 217.3 181.0, 217.18 181.17, 217.06 181.33, 216.94 181.5, 216.82 181.67, 216.7 181.83, 216.57 182.0, 216.45 182.17, 216.33 182.33, 216.2 182.5, 216.08 182.67, 215.95 182.83, 215.82 183.0, 215.69 183.17, 215.57 183.33, 215.44 183.5, 215.31 183.67, 215.18 183.83, 215.04 184.0, 214.91 184.17, 214.78 184.33, 214.65 184.5, 214.51 184.67, 214.38 184.83, 214.24 185.0, 214.1 185.17, 213.97 185.33, 213.83 185.5, 213.69 185.67, 213.55 185.83, 213.41 186.0, 213.27 186.17, 213.13 186.33, 212.99 186.5, 212.85 186.67, 212.7 186.83, 212.56 187.0, 212.42 187.17, 212.27 187.33, 212.13 187.5, 211.98 187.67, 211.84 187.83, 211.69 188.0, 211.54 188.17, 211.39 188.33, 211.24 188.5, 211.1 188.67, 210.95 188.83, 210.8 189.0, 210.65 189.17, 210.5 189.33, 210.34 189.5, 210.19 189.67, 210.04 189.83, 209.89 190.0, 209.73 190.17, 209.58 190.33, 209.43 190.5, 209.27 190.67, 209.12 190.83, 208.96 191.0, 208.81 191.17, 208.65 191.33, 208.49 191.5, 208.34 191.67, 208.18 191.83, 208.02 192.0, 207.86 192.17, 207.71 192.33, 207.55 192.5, 207.39 192.67, 207.23 192.83, 207.07 193.0, 206.91 193.17, 206.75 193.33, 206.59 193.5, 206.43 193.67, 206.27 193.83, 206.1 194.0, 205.94 194.17, 205.78 194.33, 205.62 194.5, 205.46 194.67, 205.29 194.83, 205.13 195.0, 204.97 195.17, 204.8 195.33, 204.64 195.5, 204.48 195.67, 204.31 195.83, 204.15 196.0, 203.98 196.17, 203.82 196.33, 203.65 196.5, 203.49 196.67, 203.32 196.83, 203.16 197.0, 202.99 197.17, 202.83 197.33, 202.66 197.5, 202.5 197.67, 202.33 197.83, 202.16 198.0, 202.0 198.17, 201.83 198.33, 201.67 198.5, 201.5 198.67, 201.33 198.83, 201.17 199.0, 201.0 199.17, 200.83 199.33, 200.67 199.5, 200.5 199.67, 200.33 199.83, 200.17 200.0, 200.0 200.17, 199.83 200.33, 199.67 200.5, 199.5 200.67, 199.33 200.83, 199.17 201.0, 199.0 201.17, 198.83 201.33, 198.67 201.5, 198.5 201.67, 198.33 201.83, 198.17 202.0, 198.0 202.17, 197.84 202.33, 197.67 202.5, 197.5 202.67, 197.34 202.83, 197.17 203.0, 197.01 203.17, 196.84 203.33, 196.68 203.5, 196.51 203.67, 196.35 203.83, 196.18 204.0, 196.02 204.17, 195.85 204.33, 195.69 204.5, 195.52 204.67, 195.36 204.83, 195.2 205.0, 195.03 205.17, 194.87 205.33, 194.71 205.5, 194.54 205.67, 194.38 205.83, 194.22 206.0, 194.06 206.17, 193.9 206.33, 193.73 206.5, 193.57 206.67, 193.41 206.83, 193.25 207.0, 193.09 207.17, 192.93 207.33, 192.77 207.5, 192.61 207.67, 192.45 207.83, 192.29 208.0, 192.14 208.17, 191.98 208.33, 191.82 208.5, 191.66 208.67, 191.51 208.83, 191.35 209.0, 191.19 209.17, 191.04 209.33, 190.88 209.5, 190.73 209.67, 190.57 209.83, 190.42 210.0, 190.27 210.17, 190.11 210.33, 189.96 210.5, 189.81 210.67, 189.66 210.83, 189.5 211.0, 189.35 211.17, 189.2 211.33, 189.05 211.5, 188.9 211.67, 188.76 211.83, 188.61 212.0, 188.46 212.17, 188.31 212.33, 188.16 212.5, 188.02 212.67, 187.87 212.83, 187.73 213.0, 187.58 213.17, 187.44 213.33, 187.3 213.5, 187.15 213.67, 187.01 213.83, 186.87 214.0, 186.73 214.17, 186.59 214.33, 186.45 214.5, 186.31 214.67, 186.17 214.83, 186.03 215.0, 185.9 215.17, 185.76 215.33, 185.62 215.5, 185.49 215.67, 185.35 215.83, 185.22 216.0, 185.09 216.17, 184.96 216.33, 184.82 216.5, 184.69 216.67, 184.56 216.83, 184.43 217.0, 184.31 217.17, 184.18 217.33, 184.05 217.5, 183.92 217.67, 183.8 217.83, 183.67 218.0, 183.55 218.17, 183.43 218.33, 183.3 218.5, 183.18 218.67, 183.06 218.83, 182.94 219.0, 182.82 219.17, 182.7 219.33, 182.59 219.5, 182.47 219.67, 182.35 219.83, 182.24 220.0, 182.12 220.17, 182.01 220.33, 181.9 220.5, 181.79 220.67, 181.68 220.83, 181.57 221.0, 181.46 221.17, 181.35 221.33, 181.25 221.5, 181.14 221.67, 181.04 221.83, 180.93 222.0, 180.83 222.17, 180.73 222.33, 180.63 222.5, 180.53 222.67, 180.43 222.83, 180.33 223.0, 180.23 223.17, 180.14 223.33, 180.04 223.5, 179.95 223.67, 179.85 223.83, 179.76 224.0, 179.67 224.17, 179.58 224.33, 179.49 224.5, 179.41 224.67, 179.32 224.83, 179.23 225.0, 179.15 225.17, 179.07 225.33, 178.99 225.5, 178.9 225.67, 178.82 225.83, 178.75 226.0, 178.67 226.17, 178.59 226.33, 178.52 226.5, 178.44 226.67, 178.37 226.83, 178.3 227.0, 178.23 227.17, 178.16 227.33, 178.09 227.5, 178.02 227.67, 177.96 227.83, 177.89 228.0, 177.83 228.17, 177.77 228.33, 177.71 228.5, 177.65 228.67, 177.59 228.83, 177.53 229.0, 177.48 229.17, 177.42 229.33, 177.37 229.5, 177.32 229.67, 177.27 229.83, 177.22 230.0, 177.17 230.17, 177.13 230.33, 177.08 230.5, 177.04 230.67, 176.99 230.83, 176.95 231.0, 176.91 231.17, 176.87 231.33, 176.84 231.5, 176.8 231.67, 176.77 231.83, 176.74 232.0, 176.7 232.17, 176.67 232.33, 176.65 232.5, 176.62 232.67, 176.59 232.83, 176.57 233.0, 176.55 233.17, 176.52 233.33, 176.5 233.5, 176.49 233.67, 176.47 233.83, 176.45 234.0, 176.44 234.17, 176.43 234.33, 176.42 234.5, 176.41 234.67, 176.4 234.83, 176.39 235.0, 176.39 235.17, 176.39 235.33, 176.38 235.5, 176.38 235.67, 176.39 235.83, 176.39 236.0, 176.39 236.17, 176.4 236.33, 176.41 236.5, 176.42 236.67, 176.43 236.83, 176.44 237.0, 176.45 237.17, 176.47 237.33, 176.49 237.5, 176.51 237.67, 176.53 237.83, 176.55 238.0, 176.58 238.17, 176.6 238.33, 176.63 238.5, 176.66 238.67, 176.69 238.83, 176.72 239.0, 176.76 239.17, 176.79 239.33, 176.83 239.5, 176.87 239.67, 176.91 239.83, 176.96 240.0, 177.0 240.17, 177.05 240.33, 177.1 240.5, 177.15 240.67, 177.2 240.83, 177.25 241.0, 177.31 241.17, 177.36 241.33, 177.42 241.5, 177.49 241.67, 177.55 241.83, 177.61 242.0, 177.68 242.17, 177.75 242.33, 177.82 242.5, 177.89 242.67, 177.97 242.83, 178.04 243.0, 178.12 243.17, 178.2 243.33, 178.28 243.5, 178.36 243.67, 178.45 243.83, 178.54 244.0, 178.63 244.17, 178.72 244.33, 178.81 244.5, 178.91 244.67, 179.0 244.83, 179.1 245.0, 179.21 245.17, 179.31 245.33, 179.41 245.5, 179.52 245.67, 179.63 245.83, 179.74 246.0, 179.85 246.17, 179.97 246.33, 180.09 246.5, 180.21 246.67, 180.33 246.83, 180.45 247.0, 180.58 247.17, 180.71 247.33, 180.84 247.5, 180.97 247.67, 181.1 247.83, 181.24 248.0, 181.38 248.17, 181.52 248.33, 181.66 248.5, 181.8 248.67, 181.95 248.83, 182.1 249.0, 182.25 249.17, 182.4 249.33, 182.56 249.5, 182.72 249.67, 182.88 249.83, 183.04 250.0, 183.2 250.17, 183.37 250.33, 183.54 250.5, 183.71 250.67, 183.88 250.83, 184.06 251.0, 184.24 251.17, 184.42 251.33, 184.6 251.5, 184.78 251.67, 184.97 251.83, 185.16 252.0, 185.35 252.17, 185.54 252.33, 185.74 252.5, 185.94 252.67, 186.14 252.83, 186.34 253.0, 186.55 253.17, 186.75 253.33, 186.96 253.5, 187.18 253.67, 187.39 253.83, 187.61 254.0, 187.83 254.17, 188.05 254.33, 188.27 254.5, 188.5 254.67, 188.73 254.83, 188.96 255.0, 189.19 255.17, 189.43 255.33, 189.67 255.5, 189.91 255.67, 190.15 255.83, 190.4 256.0, 190.65 256.17, 190.9 256.33, 191.15 256.5, 191.41 256.67, 191.67 256.83, 191.93 257.0, 192.19 257.17, 192.46 257.33, 192.73 257.5, 193.0 257.67, 193.27 257.83, 193.55 258.0, 193.83 258.17, 194.11 258.33, 194.39 258.5, 194.68 258.67, 194.97 258.83, 195.26 259.0, 195.55 259.17, 195.85 259.33, 196.15 259.5, 196.45 259.67, 196.76 259.83, 197.06 260.0, 197.38 260.17, 197.69 260.33, 198.0 260.5, 198.32 260.67, 198.64 260.83, 198.97 261.0, 199.29 261.17, 199.62 261.33, 199.95 261.5, 200.29 261.67, 200.62 261.83, 200.96 262.0, 201.31 262.17, 201.65 262.33, 202.0 262.5, 202.35 262.67, 202.7 262.83, 203.06 263.0, 203.42 263.17, 203.78 263.33, 204.15 263.5, 204.51 263.67, 204.88 263.83, 205.26 264.0, 205.63 264.17, 206.01 264.33, 206.39 264.5, 206.78 264.67, 207.16 264.83, 207.55 265.0, 207.95 265.17, 208.34 265.33, 208.74 265.5, 209.14 265.67, 209.55 265.83, 209.96 266.0, 210.37 266.17, 210.78 266.33, 211.2 266.5, 211.61 266.67, 212.04 266.83, 212.46 267.0, 212.89 267.17, 213.32 267.33, 213.76 267.5, 214.19 267.67, 214.63 267.83, 215.08 268.0, 215.52 268.17, 215.97 268.33, 216.42 268.5, 216.88 268.67, 217.33 268.83, 217.8 269.0, 218.26 269.17, 218.73 269.33, 219.2 269.5, 219.67 269.67, 220.15 269.83, 220.63 270.0, 221.11 270.17, 221.6 270.33, 222.08 270.5, 222.58 270.67, 223.07 270.83, 223.57 271.0, 224.07 271.17, 224.57 271.33, 225.08 271.5, 225.59 271.67, 226.11 271.83, 226.62 272.0, 227.14 272.17, 227.67 272.33, 228.19 272.5, 228.72 272.67, 229.26 272.83, 229.79 273.0, 230.33 273.17, 230.88 273.33, 231.42 273.5, 231.97 273.67, 232.52 273.83, 233.08 274.0, 233.64 274.17, 234.2 274.33, 234.77 274.5, 235.33 274.67, 235.91 274.83, 236.48 275.0, 237.06 275.17, 237.64 275.33, 238.23 275.5, 238.82 275.67, 239.41 275.83, 240.0 276.0, 240.6 276.17, 241.21 276.33, 241.81 276.5, 242.42 276.67, 243.03 276.83, 243.65 277.0, 244.27 277.17, 244.89 277.33, 245.51 277.5, 246.14 277.67, 246.78 277.83, 247.41 278.0, 248.05 278.17, 248.7 278.33, 249.34 278.5, 249.99 278.67, 250.65 278.83, 251.3 279.0, 251.96 279.17, 252.63 279.33, 253.29 279.5, 253.97 279.67, 254.64 279.83, 255.32 280.0, 256.0 280.17, 256.69 280.33, 257.37 280.5, 258.07 280.67, 258.76 280.83, 259.46 281.0, 260.16 281.17, 260.87 281.33, 261.58 281.5, 262.29 281.67, 263.01 281.83, 263.73 282.0, 264.46 282.17, 265.19 282.33, 265.92 282.5, 266.65 282.67, 267.39 282.83, 268.13 283.0, 268.88 283.17, 269.63 283.33, 270.38 283.5, 271.14 283.67, 271.9 283.83, 272.67 284.0, 273.44 284.17, 274.21 284.33, 274.99 284.5, 275.77 284.67, 276.55 284.83, 277.34 285.0, 278.13 285.17, 278.92 285.33, 279.72 285.5, 280.52 285.67, 281.33 285.83, 282.14 286.0, 282.95 286.17, 283.77 286.33, 284.59 286.5, 285.42 286.67, 286.25 286.83, 287.08 287.0, 287.91 287.17, 288.76 287.33, 289.6 287.5, 290.45 287.67, 291.3 287.83, 292.16 288.0, 293.02 288.17, 293.88 288.33, 294.75 288.5, 295.62 288.67, 296.49 288.83, 297.37 289.0, 298.26 289.17, 299.14 289.33, 300.04 289.5, 300.93 289.67, 301.83 289.83, 302.73 290.0, 303.64 290.17, 304.55 290.33, 305.47 290.5, 306.39 290.67, 307.31 290.83, 308.24 291.0, 309.17 291.17, 310.1 291.33, 311.04 291.5, 311.98 291.67, 312.93 291.83, 313.88 292.0, 314.84 292.17, 315.8 292.33, 316.76 292.5, 317.73 292.67, 318.7 292.83, 319.68 293.0, 320.66 293.17, 321.64 293.33, 322.63 293.5, 323.62 293.67, 324.62 293.83, 325.62 294.0, 326.62 294.17, 327.63 294.33, 328.65 294.5, 329.66 294.67, 330.68 294.83, 331.71 295.0, 332.74 295.17, 333.77 295.33, 334.81 295.5, 335.86 295.67, 336.9 295.83, 337.95 296.0, 339.01 296.17, 340.07 296.33, 341.13 296.5, 342.2 296.67, 343.27 296.83, 344.35 297.0, 345.43 297.17, 346.51 297.33, 347.6 297.5, 348.7 297.67, 349.8 297.83, 350.9 298.0, 352.0 298.17, 353.12 298.33, 354.23 298.5, 355.35 298.67, 356.47 298.83, 357.6 299.0, 358.74 299.17, 359.87 299.33, 361.01 299.5, 362.16 299.67, 363.31 299.83, 364.47 300.0, 365.62 300.17, 366.79 300.33, 367.96 300.5, 369.13 300.67, 370.31 300.83, 371.49 301.0, 372.67 301.17, 373.86 301.33, 375.06 301.5, 376.26 301.67, 377.46 301.83, 378.67 302.0, 379.88 302.17, 381.1 302.33, 382.32 302.5, 383.55 302.67, 384.78 302.83, 386.02 303.0, 387.26 303.17, 388.5 303.33, 389.75 303.5, 391.0 303.67, 392.26 303.83, 393.52 304.0, 394.79 304.17, 396.06 304.33, 397.34 304.5, 398.62 304.67, 399.91 304.83, 401.2 305.0, 402.49 305.17, 403.79 305.33, 405.1 305.5, 406.41 305.67, 407.72 305.83, 409.04 306.0, 410.36 306.17, 411.69 306.33, 413.02 306.5, 414.36 306.67, 415.7 306.83, 417.05 307.0, 418.4 307.17, 419.76 307.33, 421.12 307.5, 422.49 307.67, 423.86 307.83, 425.23 308.0, 426.61 308.17, 428.0 308.33, 429.39 308.5, 430.78 308.67, 432.18 308.83, 433.58 309.0, 434.99 309.17, 436.41 309.33, 437.82 309.5, 439.25 309.67, 440.68 309.83, 442.11 310.0, 443.55 310.17, 444.99 310.33, 446.44 310.5, 447.89 310.67, 449.35 310.83, 450.81 311.0, 452.28 311.17, 453.75 311.33, 455.23 311.5, 456.71 311.67, 458.2 311.83, 459.69 312.0, 461.18 312.17, 462.69 312.33, 464.19 312.5, 465.7 312.67, 467.22 312.83, 468.74 313.0, 470.27 313.17, 471.8 313.33, 473.34 313.5, 474.88 313.67, 476.43 313.83, 477.98 314.0, 479.54 314.17, 481.1 314.33, 482.66 314.5, 484.24 314.67, 485.81 314.83, 487.4 315.0, 488.98 315.17, 490.57 315.33, 492.17 315.5, 493.77 315.67, 495.38 315.83, 497.0 316.0, 498.61 316.17, 500.24 316.33, 501.86 316.5, 503.5 316.67, 505.14 316.83, 506.78 317.0, 508.43 317.17, 510.08 317.33, 511.74 317.5, 513.41 317.67, 515.08 317.83, 516.75 318.0, 518.43 318.17, 520.12 318.33, 521.81 318.5, 523.5 318.67, 525.2 318.83, 526.91 319.0, 528.62 319.17, 530.34 319.33, 532.06 319.5, 533.79 319.67, 535.52 319.83, 537.26 320.0, 539.0 320.17, 540.75 320.33, 542.5 320.5, 544.26 320.67, 546.03 320.83, 547.8 321.0, 549.57 321.17, 551.35 321.33, 553.14 321.5, 554.93 321.67, 556.73 321.83, 558.53 322.0, 560.33 322.17, 562.15 322.33, 563.97 322.5, 565.79 322.67, 567.62 322.83, 569.45 323.0, 571.29 323.17, 573.14 323.33, 574.99 323.5, 576.85 323.67, 578.71 323.83, 580.57 324.0, 582.45 324.17, 584.33 324.33, 586.21 324.5, 588.1 324.67, 589.99 324.83, 591.89 325.0, 593.8 325.17, 595.71 325.33, 597.63 325.5, 599.55 325.67, 601.48 325.83, 603.41 326.0, 605.35 326.17, 607.29 326.33, 609.24 326.5, 611.2 326.67, 613.16 326.83, 615.13 327.0, 617.1 327.17, 619.08 327.33, 621.06 327.5, 623.05 327.67, 625.05 327.83, 627.05 328.0, 629.06 328.17, 631.07 328.33, 633.09 328.5, 635.11 328.67, 637.14 328.83, 639.17 329.0, 641.21 329.17, 643.26 329.33, 645.31 329.5, 647.37 329.67, 649.43 329.83, 651.5 330.0, 653.58 330.17, 655.66 330.33, 657.75 330.5, 659.84 330.67, 661.94 330.83, 664.04 331.0, 666.15 331.17, 668.26 331.33, 670.39 331.5, 672.51 331.67, 674.65 331.83, 676.78 332.0, 678.93 332.17, 681.08 332.33, 683.24 332.5, 685.4 332.67, 687.57 332.83, 689.74 333.0, 691.92 333.17, 694.1 333.33, 696.3 333.5, 698.49 333.67, 700.7 333.83, 702.91 334.0, 705.12 334.17, 707.34 334.33, 709.57 334.5, 711.8 334.67, 714.04 334.83, 716.29 335.0, 718.54 335.17, 720.79 335.33, 723.06 335.5, 725.33 335.67, 727.6 335.83, 729.88 336.0, 732.17 336.17, 734.46 336.33, 736.76 336.5, 739.06 336.67, 741.38 336.83, 743.69 337.0, 746.02 337.17, 748.34 337.33, 750.68 337.5, 753.02 337.67, 755.37 337.83, 757.72 338.0, 760.08 338.17, 762.45 338.33, 764.82 338.5, 767.2 338.67, 769.58 338.83, 771.97 339.0, 774.37 339.17, 776.77 339.33, 779.18 339.5, 781.59 339.67, 784.01 339.83, 786.44 340.0, 788.88 340.17, 791.31 340.33, 793.76 340.5, 796.21 340.67, 798.67 340.83, 801.13 341.0, 803.61 341.17, 806.08 341.33, 808.57 341.5, 811.06 341.67, 813.55 341.83, 816.05 342.0, 818.56 342.17, 821.08 342.33, 823.6 342.5, 826.12 342.67, 828.66 342.83, 831.2 343.0, 833.74 343.17, 836.29 343.33, 838.85 343.5, 841.42 343.67, 843.99 343.83, 846.57 344.0, 849.15 344.17, 851.74 344.33, 854.34 344.5, 856.94 344.67, 859.55 344.83, 862.17 345.0, 864.79 345.17, 867.42 345.33, 870.06 345.5, 872.7 345.67, 875.35 345.83, 878.0 346.0, 880.66 346.17, 883.33 346.33, 886.0 346.5, 888.68 346.67, 891.37 346.83, 894.06 347.0, 896.76 347.17, 899.47 347.33, 902.18 347.5, 904.9 347.67, 907.63 347.83, 910.36 348.0, 913.1 348.17, 915.85 348.33, 918.6 348.5, 921.36 348.67, 924.12 348.83, 926.9 349.0, 929.67 349.17, 932.46 349.33, 935.25 349.5, 938.05 349.67, 940.85 349.83, 943.67 350.0, 946.48 350.17, 949.31 350.33, 952.14 350.5, 954.98 350.67, 957.82 350.83, 960.68 351.0, 963.53 351.17, 966.4 351.33, 969.27 351.5, 972.15 351.67, 975.03 351.83, 977.93 352.0, 980.82 352.17, 983.73 352.33, 986.64 352.5, 989.56 352.67, 992.49 352.83, 995.42 353.0, 998.36 353.17, 1001.3 353.33, 1004.25 353.5, 1007.21 353.67, 1010.18 353.83, 1013.15 354.0, 1016.13 354.17, 1019.12 354.33, 1022.11 354.5, 1025.11 354.67, 1028.12 354.83, 1031.13 355.0, 1034.15 355.17, 1037.18 355.33, 1040.22 355.5, 1043.26 355.67, 1046.31 355.83, 1049.36 356.0, 1052.42 356.17, 1055.49 356.33, 1058.57 356.5, 1061.65 356.67, 1064.74 356.83, 1067.84 357.0, 1070.94 357.17, 1074.05 357.33, 1077.17 357.5, 1080.29 357.67, 1083.42 357.83, 1086.56 358.0, 1089.71 358.17, 1092.86 358.33, 1096.02 358.5, 1099.19 358.67, 1102.36 358.83, 1105.54 359.0, 1108.73 359.17, 1111.92 359.33, 1115.12 359.5, 1118.33 359.67, 1121.55 359.83, 1124.77 360.0, 1128.0 360.17, 1131.24 360.33, 1134.48 360.5, 1137.73 360.67, 1140.99 360.83, 1144.26 361.0, 1147.53 361.17, 1150.81 361.33, 1154.09 361.5, 1157.39 361.67, 1160.69 361.83, 1164.0 362.0, 1167.31 362.17, 1170.63 362.33, 1173.96 362.5, 1177.3 362.67, 1180.65 362.83, 1184.0 363.0, 1187.35 363.17, 1190.72 363.33, 1194.09 363.5, 1197.47 363.67, 1200.86 363.83, 1204.26 364.0, 1207.66 364.17, 1211.07 364.33, 1214.48 364.5, 1217.91 364.67, 1221.34 364.83, 1224.78 365.0, 1228.22 365.17, 1231.67 365.33, 1235.13 365.5, 1238.6 365.67, 1242.08 365.83, 1245.56 366.0, 1249.05 366.17, 1252.54 366.33, 1256.05 366.5, 1259.56 366.67, 1263.08 366.83, 1266.6 367.0, 1270.14 367.17, 1273.68 367.33, 1277.23 367.5, 1280.78 367.67, 1284.35 367.83, 1287.92 368.0, 1291.5 368.17, 1295.08 368.33, 1298.67 368.5, 1302.28 368.67, 1305.88 368.83, 1309.5 369.0, 1313.12 369.17, 1316.75 369.33, 1320.39 369.5, 1324.03 369.67, 1327.69 369.83, 1331.35 370.0, 1335.02 370.17, 1338.69 370.33, 1342.37 370.5, 1346.06 370.67, 1349.76 370.83, 1353.47 371.0, 1357.18 371.17, 1360.9 371.33, 1364.63 371.5, 1368.37 371.67, 1372.11 371.83, 1375.86 372.0, 1379.62 372.17, 1383.39 372.33, 1387.16 372.5, 1390.94 372.67, 1394.73 372.83, 1398.53 373.0, 1402.33 373.17, 1406.14 373.33, 1409.96 373.5, 1413.79 373.67, 1417.63 373.83, 1421.47 374.0, 1425.32 374.17, 1429.18 374.33, 1433.04 374.5, 1436.92 374.67, 1440.8 374.83, 1444.69 375.0, 1448.58 375.17, 1452.49 375.33, 1456.4 375.5, 1460.32 375.67, 1464.25 375.83, 1468.18 376.0, 1472.13 376.17, 1476.08 376.33, 1480.04 376.5, 1484.01 376.67, 1487.98 376.83, 1491.96 377.0, 1495.95 377.17, 1499.95 377.33, 1503.96 377.5, 1507.97 377.67, 1511.99 377.83, 1516.02 378.0, 1520.06 378.17, 1524.1 378.33, 1528.16 378.5, 1532.22 378.67, 1536.29 378.83, 1540.36 379.0, 1544.45 379.17, 1548.54 379.33, 1552.64 379.5, 1556.75 379.67, 1560.87 379.83, 1564.99 380.0, 1569.12 380.17, 1573.27 380.33, 1577.41 380.5, 1581.57 380.67, 1585.73 380.83, 1589.91 381.0, 1594.09 381.17, 1598.28 381.33, 1602.47 381.5, 1606.68 381.67, 1610.89 381.83, 1615.11 382.0, 1619.34 382.17, 1623.58 382.33, 1627.82 382.5, 1632.07 382.67, 1636.33 382.83, 1640.6 383.0, 1644.88 383.17, 1649.16 383.33, 1653.46 383.5, 1657.76 383.67, 1662.07 383.83, 1666.39 384.0, 1670.71 384.17, 1675.05 384.33, 1679.39 384.5, 1683.74 384.67, 1688.1 384.83, 1692.46 385.0, 1696.84 385.17, 1701.22 385.33, 1705.61 385.5, 1710.01 385.67, 1714.42 385.83, 1718.83 386.0, 1723.26 386.17, 1727.69 386.33, 1732.13 386.5, 1736.58 386.67, 1741.04 386.83, 1745.5 387.0, 1749.98 387.17, 1754.46 387.33, 1758.95 387.5, 1763.45 387.67, 1767.95 387.83, 1772.47 388.0, 1776.99 388.17, 1781.52 388.33, 1786.06 388.5, 1790.61 388.67, 1795.17 388.83, 1799.73 389.0, 1804.31 389.17, 1808.89 389.33, 1813.48 389.5, 1818.08 389.67, 1822.68 389.83, 1827.3 390.0, 1831.92 390.17, 1836.55 390.33, 1841.19 390.5, 1845.84 390.67, 1850.5 390.83, 1855.17 391.0, 1859.84 391.17, 1864.52 391.33, 1869.21 391.5, 1873.91 391.67, 1878.62 391.83, 1883.34 392.0, 1888.06 392.17, 1892.8 392.33, 1897.54 392.5, 1902.29 392.67, 1907.05 392.83, 1911.82 393.0, 1916.59 393.17, 1921.38 393.33, 1926.17 393.5, 1930.97 393.67, 1935.78 393.83, 1940.6 394.0, 1945.43 394.17, 1950.27 394.33, 1955.11 394.5, 1959.96 394.67, 1964.83 394.83, 1969.7 395.0, 1974.58 395.17, 1979.46 395.33, 1984.36 395.5, 1989.27 395.67, 1994.18 395.83, 1999.1 396.0, 2004.03 396.17, 2008.97 396.33, 2013.92 396.5, 2018.88 396.67, 2023.84 396.83, 2028.82 397.0, 2033.8 397.17, 2038.79 397.33, 2043.79 397.5, 2048.8 397.67, 2053.82 397.83, 2058.85 398.0, 2063.89 398.17, 2068.93 398.33, 2073.98 398.5, 2079.05 398.67, 2084.12 398.83, 2089.2 399.0, 2094.28 399.17, 2099.38 399.33, 2104.49 399.5, 2109.6 399.67, 2114.73 399.83, 2119.86 400.0, 2125.0 " fill="none" stroke="white" stroke-width="1.5" stroke-linejoin="round" stroke-opacity="1"/>

 </svg>