<svg version="1.1" 
 baseProfile="full" 
 width="400" 
 height="400" 
 xmlns="http://www.w3.org/2000/svg">
<rect x="0.0" y="0.0" width="400" height="400" fill="black" stroke="black" stroke-width="0" opacity="1"/>
<line x1="0.0" y1="0.0" x2="0.0" y2="400.0" stroke="white" stroke-width="1" opacity="0.4" stroke-linecap="butt"/>
<line x1="40.0" y1="0.0" x2="40.0" y2="400.0" stroke="white" stroke-width="1" opacity="0.4" stroke-linecap="butt"/>
<line x1="80.0" y1="0.0" x2="80.0" y2="400.0" stroke="white" stroke-width="1" opacity="0.4" stroke-linecap="butt"/>
<line x1="120.0" y1="0.0" x2="120.0" y2="400.0" stroke="white" stroke-width="1" opacity="0.4" stroke-linecap="butt"/>
<line x1="160.0" y1="0.0" x2="160.0" y2="400.0" stroke="white" stroke-width="1" opacity="0.4" stroke-linecap="butt"/>
<line x1="200.0" y1="0.0" x2="200.0" y2="400.0" stroke="white" stroke-width="1" opacity="0.4" stroke-linecap="butt"/>
<line x1="240.0" y1="0.0" x2="240.0" y2="400.0" stroke="white" stroke-width="1" opacity="0.4" stroke-linecap="butt"/>
<line x1="280.0" y1="0.0" x2="280.0" y2="400.0" stroke="white" stroke-width="1" opacity="0.4" stroke-linecap="butt"/>
<line x1="320.0" y1="0.0" x2="320.0" y2="400.0" stroke="white" stroke-width="1" opacity="0.4" stroke-linecap="butt"/>
<line x1="360.0" y1="0.0" x2="360.0" y2="400.0" stroke="white" stroke-width="1" opacity="0.4" stroke-linecap="butt"/>
<line x1="0.0" y1="0.0" x2="400.0" y2="0.0" stroke="white" stroke-width="1" opacity="0.4" stroke-linecap="butt"/>
<line x1="0.0" y1="40.0" x2="400.0" y2="40.0" stroke="white" stroke-width="1" opacity="0.4" stroke-linecap="butt"/>
<line x1="0.0" y1="80.0" x2="400.0" y2="80.0" stroke="white" stroke-width="1" opacity="0.4" stroke-linecap="butt"/>
<line x1="0.0" y1="120.0" x2="400.0" y2="120.0" stroke="white" stroke-width="1" opacity="0.4" stroke-linecap="butt"/>
<line x1="0.0" y1="160.0" x2="400.0" y2="160.0" stroke="white" stroke-width="1" opacity="0.4" stroke-linecap="butt"/>
<line x1="0.0" y1="200.0" x2="400.0" y2="200.0" stroke="white" stroke-width="1" opacity="0.4" stroke-linecap="butt"/>
<line x1="0.0" y1="240.0" x2="400.0" y2="240.0" stroke="white" stroke-width="1" opacity="0.4" stroke-linecap="butt"/>
<line x1="0.0" y1="280.0" x2="400.0" y2="280.0" stroke="white" stroke-width="1" opacity="0.4" stroke-linecap="butt"/>
<line x1="0.0" y1="320.0" x2="400.0" y2="320.0" stroke="white" stroke-width="1" opacity="0.4" stroke-linecap="butt"/>
<line x1="0.0" y1="360.0" x2="400.0" y2="360.0" stroke="white" stroke-width="1" opacity="0.4" stroke-linecap="butt"/>
<line x1="0.0" y1="200.0" x2="400.0" y2="200.0" stroke="yellow" stroke-width="2.5" opacity="1" stroke-linecap="butt"/>
<line x1="200.0" y1="0.0" x2="200.0" y2="400.0" stroke="yellow" stroke-width="2.5" opacity="1" stroke-linecap="butt"/>
<polygon points="391.0 204.0, 401.0 200.0, 391.0 196.0, 393.0 200.0" fill="yellow"/><polygon points="204.0 9.0, 200.0 -1.0, 196.0 9.0, 200.0 7.0" fill="yellow"/><image x="-60.0" y="-60.0" width="200" height="200" href="/Users/girirajhira/PycharmProjects/Giraphics3/Taylor/expr.png"/><polyline points="0.0, -2516.67 0.17, -2509.55 0.33, -2502.44 0.5, -2495.35 0.67, -2488.26 0.83, -2481.19 1.0, -2474.14 1.17, -2467.09 1.33, -2460.05 1.5, -2453.03 1.67, -2446.02 1.83, -2439.02 2.0, -2432.04 2.17, -2425.06 2.33, -2418.1 2.5, -2411.15 2.67, -2404.22 2.83, -2397.29 3.0, -2390.38 3.17, -2383.47 3.33, -2376.58 3.5, -2369.71 3.67, -2362.84 3.83, -2355.99 4.0, -2349.14 4.17, -2342.31 4.33, -2335.49 4.5, -2328.69 4.67, -2321.89 4.83, -2315.11 5.0, -2308.34 5.17, -2301.58 5.33, -2294.83 5.5, -2288.1 5.67, -2281.37 5.83, -2274.66 6.0, -2267.96 6.17, -2261.27 6.33, -2254.6 6.5, -2247.93 6.67, -2241.28 6.83, -2234.64 7.0, -2228.01 7.17, -2221.39 7.33, -2214.79 7.5, -2208.19 7.67, -2201.61 7.83, -2195.04 8.0, -2188.48 8.17, -2181.93 8.33, -2175.4 8.5, -2168.87 8.67, -2162.36 8.83, -2155.86 9.0, -2149.37 9.17, -2142.89 9.33, -2136.43 9.5, -2129.97 9.67, -2123.53 9.83, -2117.1 10.0, -2110.68 10.17, -2104.27 10.33, -2097.87 10.5, -2091.49 10.67, -2085.11 10.83, -2078.75 11.0, -2072.4 11.17, -2066.06 11.33, -2059.73 11.5, -2053.42 11.67, -2047.11 11.83, -2040.82 12.0, -2034.54 12.17, -2028.27 12.33, -2022.01 12.5, -2015.76 12.67, -2009.52 12.83, -2003.3 13.0, -1997.08 13.17, -1990.88 13.33, -1984.69 13.5, -1978.51 13.67, -1972.34 13.83, -1966.19 14.0, -1960.04 14.17, -1953.91 14.33, -1947.78 14.5, -1941.67 14.67, -1935.57 14.83, -1929.48 15.0, -1923.4 15.17, -1917.34 15.33, -1911.28 15.5, -1905.24 15.67, -1899.21 15.83, -1893.18 16.0, -1887.17 16.17, -1881.17 16.33, -1875.19 16.5, -1869.21 16.67, -1863.24 16.83, -1857.29 17.0, -1851.34 17.17, -1845.41 17.33, -1839.49 17.5, -1833.58 17.67, -1827.68 17.83, -1821.79 18.0, -1815.92 18.17, -1810.05 18.33, -1804.19 18.5, -1798.35 18.67, -1792.52 18.83, -1786.7 19.0, -1780.88 19.17, -1775.08 19.33, -1769.3 19.5, -1763.52 19.67, -1757.75 19.83, -1752.0 20.0, -1746.25 20.17, -1740.52 20.33, -1734.79 20.5, -1729.08 20.67, -1723.38 20.83, -1717.69 21.0, -1712.01 21.17, -1706.34 21.33, -1700.68 21.5, -1695.04 21.67, -1689.4 21.83, -1683.77 22.0, -1678.16 22.17, -1672.56 22.33, -1666.96 22.5, -1661.38 22.67, -1655.81 22.83, -1650.25 23.0, -1644.7 23.17, -1639.16 23.33, -1633.63 23.5, -1628.11 23.67, -1622.61 23.83, -1617.11 24.0, -1611.63 24.17, -1606.15 24.33, -1600.69 24.5, -1595.23 24.67, -1589.79 24.83, -1584.36 25.0, -1578.94 25.17, -1573.53 25.33, -1568.13 25.5, -1562.74 25.67, -1557.36 25.83, -1551.99 26.0, -1546.63 26.17, -1541.29 26.33, -1535.95 26.5, -1530.62 26.67, -1525.31 26.83, -1520.0 27.0, -1514.71 27.17, -1509.43 27.33, -1504.15 27.5, -1498.89 27.67, -1493.64 27.83, -1488.39 28.0, -1483.16 28.17, -1477.94 28.33, -1472.73 28.5, -1467.53 28.67, -1462.34 28.83, -1457.16 29.0, -1451.99 29.17, -1446.84 29.33, -1441.69 29.5, -1436.55 29.67, -1431.42 29.83, -1426.3 30.0, -1421.2 30.17, -1416.1 30.33, -1411.02 30.5, -1405.94 30.67, -1400.87 30.83, -1395.82 31.0, -1390.77 31.17, -1385.74 31.33, -1380.72 31.5, -1375.7 31.67, -1370.7 31.83, -1365.7 32.0, -1360.72 32.17, -1355.75 32.33, -1350.78 32.5, -1345.83 32.67, -1340.89 32.83, -1335.96 33.0, -1331.03 33.17, -1326.12 33.33, -1321.22 33.5, -1316.33 33.67, -1311.45 33.83, -1306.57 34.0, -1301.71 34.17, -1296.86 34.33, -1292.02 34.5, -1287.19 34.67, -1282.37 34.83, -1277.56 35.0, -1272.75 35.17, -1267.96 35.33, -1263.18 35.5, -1258.41 35.67, -1253.65 35.83, -1248.9 36.0, -1244.16 36.17, -1239.43 36.33, -1234.7 36.5, -1229.99 36.67, -1225.29 36.83, -1220.6 37.0, -1215.92 37.17, -1211.25 37.33, -1206.58 37.5, -1201.93 37.67, -1197.29 37.83, -1192.66 38.0, -1188.04 38.17, -1183.42 38.33, -1178.82 38.5, -1174.23 38.67, -1169.65 38.83, -1165.07 39.0, -1160.51 39.17, -1155.96 39.33, -1151.41 39.5, -1146.88 39.67, -1142.35 39.83, -1137.84 40.0, -1133.33 40.17, -1128.84 40.33, -1124.35 40.5, -1119.88 40.67, -1115.41 40.83, -1110.95 41.0, -1106.51 41.17, -1102.07 41.33, -1097.64 41.5, -1093.23 41.67, -1088.82 41.83, -1084.42 42.0, -1080.03 42.17, -1075.65 42.33, -1071.28 42.5, -1066.92 42.67, -1062.57 42.83, -1058.23 43.0, -1053.9 43.17, -1049.58 43.33, -1045.26 43.5, -1040.96 43.67, -1036.67 43.83, -1032.38 44.0, -1028.11 44.17, -1023.85 44.33, -1019.59 44.5, -1015.34 44.67, -1011.11 44.83, -1006.88 45.0, -1002.66 45.17, -998.45 45.33, -994.26 45.5, -990.07 45.67, -985.89 45.83, -981.72 46.0, -977.55 46.17, -973.4 46.33, -969.26 46.5, -965.13 46.67, -961.0 46.83, -956.89 47.0, -952.78 47.17, -948.69 47.33, -944.6 47.5, -940.52 47.67, -936.46 47.83, -932.4 48.0, -928.35 48.17, -924.31 48.33, -920.28 48.5, -916.25 48.67, -912.24 48.83, -908.24 49.0, -904.24 49.17, -900.26 49.33, -896.28 49.5, -892.31 49.67, -888.36 49.83, -884.41 50.0, -880.47 50.17, -876.54 50.33, -872.62 50.5, -868.71 50.67, -864.8 50.83, -860.91 51.0, -857.02 51.17, -853.15 51.33, -849.28 51.5, -845.42 51.67, -841.57 51.83, -837.73 52.0, -833.9 52.17, -830.08 52.33, -826.27 52.5, -822.47 52.67, -818.67 52.83, -814.88 53.0, -811.11 53.17, -807.34 53.33, -803.58 53.5, -799.83 53.67, -796.09 53.83, -792.36 54.0, -788.63 54.17, -784.92 54.33, -781.21 54.5, -777.52 54.67, -773.83 54.83, -770.15 55.0, -766.48 55.17, -762.82 55.33, -759.16 55.5, -755.52 55.67, -751.88 55.83, -748.26 56.0, -744.64 56.17, -741.03 56.33, -737.43 56.5, -733.84 56.67, -730.26 56.83, -726.68 57.0, -723.12 57.17, -719.56 57.33, -716.01 57.5, -712.47 57.67, -708.94 57.83, -705.42 58.0, -701.91 58.17, -698.4 58.33, -694.91 58.5, -691.42 58.67, -687.94 58.83, -684.47 59.0, -681.01 59.17, -677.55 59.33, -674.11 59.5, -670.67 59.67, -667.25 59.83, -663.83 60.0, -660.42 60.17, -657.01 60.33, -653.62 60.5, -650.24 60.67, -646.86 60.83, -643.49 61.0, -640.13 61.17, -636.78 61.33, -633.44 61.5, -630.1 61.67, -626.78 61.83, -623.46 62.0, -620.15 62.17, -616.85 62.33, -613.56 62.5, -610.27 62.67, -607.0 62.83, -603.73 63.0, -600.47 63.17, -597.22 63.33, -593.98 63.5, -590.75 63.67, -587.52 63.83, -584.3 64.0, -581.09 64.17, -577.89 64.33, -574.7 64.5, -571.52 64.67, -568.34 64.83, -565.17 65.0, -562.01 65.17, -558.86 65.33, -555.72 65.5, -552.58 65.67, -549.45 65.83, -546.34 66.0, -543.23 66.17, -540.12 66.33, -537.03 66.5, -533.94 66.67, -530.86 66.83, -527.79 67.0, -524.73 67.17, -521.68 67.33, -518.63 67.5, -515.59 67.67, -512.57 67.83, -509.54 68.0, -506.53 68.17, -503.52 68.33, -500.53 68.5, -497.54 68.67, -494.56 68.83, -491.58 69.0, -488.62 69.17, -485.66 69.33, -482.71 69.5, -479.77 69.67, -476.83 69.83, -473.91 70.0, -470.99 70.17, -468.08 70.33, -465.18 70.5, -462.28 70.67, -459.4 70.83, -456.52 71.0, -453.65 71.17, -450.78 71.33, -447.93 71.5, -445.08 71.67, -442.24 71.83, -439.41 72.0, -436.59 72.17, -433.77 72.33, -430.96 72.5, -428.16 72.67, -425.37 72.83, -422.58 73.0, -419.81 73.17, -417.04 73.33, -414.27 73.5, -411.52 73.67, -408.77 73.83, -406.03 74.0, -403.3 74.17, -400.58 74.33, -397.86 74.5, -395.16 74.67, -392.46 74.83, -389.76 75.0, -387.08 75.17, -384.4 75.33, -381.73 75.5, -379.07 75.67, -376.41 75.83, -373.76 76.0, -371.12 76.17, -368.49 76.33, -365.87 76.5, -363.25 76.67, -360.64 76.83, -358.04 77.0, -355.44 77.17, -352.85 77.33, -350.27 77.5, -347.7 77.67, -345.14 77.83, -342.58 78.0, -340.03 78.17, -337.49 78.33, -334.95 78.5, -332.42 78.67, -329.9 78.83, -327.39 79.0, -324.88 79.17, -322.38 79.33, -319.89 79.5, -317.41 79.67, -314.93 79.83, -312.46 80.0, -310.0 80.17, -307.55 80.33, -305.1 80.5, -302.66 80.67, -300.22 80.83, -297.8 81.0, -295.38 81.17, -292.97 81.33, -290.57 81.5, -288.17 81.67, -285.78 81.83, -283.4 82.0, -281.02 82.17, -278.65 82.33, -276.29 82.5, -273.94 82.67, -271.59 82.83, -269.25 83.0, -266.92 83.17, -264.6 83.33, -262.28 83.5, -259.97 83.67, -257.66 83.83, -255.37 84.0, -253.08 84.17, -250.79 84.33, -248.52 84.5, -246.25 84.67, -243.99 84.83, -241.73 85.0, -239.49 85.17, -237.25 85.33, -235.01 85.5, -232.78 85.67, -230.56 85.83, -228.35 86.0, -226.15 86.17, -223.95 86.33, -221.76 86.5, -219.57 86.67, -217.39 86.83, -215.22 87.0, -213.06 87.17, -210.9 87.33, -208.75 87.5, -206.6 87.67, -204.47 87.83, -202.34 88.0, -200.21 88.17, -198.1 88.33, -195.99 88.5, -193.88 88.67, -191.79 88.83, -189.7 89.0, -187.62 89.17, -185.54 89.33, -183.47 89.5, -181.41 89.67, -179.35 89.83, -177.3 90.0, -175.26 90.17, -173.22 90.33, -171.2 90.5, -169.17 90.67, -167.16 90.83, -165.15 91.0, -163.15 91.17, -161.15 91.33, -159.16 91.5, -157.18 91.67, -155.2 91.83, -153.23 92.0, -151.27 92.17, -149.31 92.33, -147.36 92.5, -145.42 92.67, -143.48 92.83, -141.55 93.0, -139.63 93.17, -137.71 93.33, -135.8 93.5, -133.9 93.67, -132.0 93.83, -130.11 94.0, -128.22 94.17, -126.35 94.33, -124.47 94.5, -122.61 94.67, -120.75 94.83, -118.9 95.0, -117.05 95.17, -115.21 95.33, -113.38 95.5, -111.55 95.67, -109.73 95.83, -107.91 96.0, -106.11 96.17, -104.3 96.33, -102.51 96.5, -100.72 96.67, -98.94 96.83, -97.16 97.0, -95.39 97.17, -93.63 97.33, -91.87 97.5, -90.12 97.67, -88.37 97.83, -86.63 98.0, -84.9 98.17, -83.17 98.33, -81.45 98.5, -79.74 98.67, -78.03 98.83, -76.33 99.0, -74.63 99.17, -72.94 99.33, -71.26 99.5, -69.58 99.67, -67.91 99.83, -66.24 100.0, -64.58 100.17, -62.93 100.33, -61.28 100.5, -59.64 100.67, -58.01 100.83, -56.38 101.0, -54.75 101.17, -53.14 101.33, -51.53 101.5, -49.92 101.67, -48.32 101.83, -46.73 102.0, -45.14 102.17, -43.56 102.33, -41.99 102.5, -40.42 102.67, -38.85 102.83, -37.3 103.0, -35.75 103.17, -34.2 103.33, -32.66 103.5, -31.13 103.67, -29.6 103.83, -28.08 104.0, -26.56 104.17, -25.05 104.33, -23.54 104.5, -22.05 104.67, -20.55 104.83, -19.07 105.0, -17.58 105.17, -16.11 105.33, -14.64 105.5, -13.18 105.67, -11.72 105.83, -10.26 106.0, -8.82 106.17, -7.38 106.33, -5.94 106.5, -4.51 106.67, -3.09 106.83, -1.67 107.0, -0.26 107.17, 1.15 107.33, 2.55 107.5, 3.95 107.67, 5.34 107.83, 6.72 108.0, 8.1 108.17, 9.48 108.33, 10.84 108.5, 12.21 108.67, 13.56 108.83, 14.91 109.0, 16.26 109.17, 17.6 109.33, 18.94 109.5, 20.26 109.67, 21.59 109.83, 22.91 110.0, 24.22 110.17, 25.53 110.33, 26.83 110.5, 28.12 110.67, 29.41 110.83, 30.7 111.0, 31.98 111.17, 33.25 111.33, 34.52 111.5, 35.79 111.67, 37.05 111.83, 38.3 112.0, 39.55 112.17, 40.79 112.33, 42.03 112.5, 43.26 112.67, 44.48 112.83, 45.71 113.0, 46.92 113.17, 48.13 113.33, 49.34 113.5, 50.54 113.67, 51.73 113.83, 52.92 114.0, 54.1 114.17, 55.28 114.33, 56.46 114.5, 57.63 114.67, 58.79 114.83, 59.95 115.0, 61.1 115.17, 62.25 115.33, 63.39 115.5, 64.53 115.67, 65.66 115.83, 66.79 116.0, 67.91 116.17, 69.03 116.33, 70.14 116.5, 71.25 116.67, 72.35 116.83, 73.44 117.0, 74.54 117.17, 75.62 117.33, 76.7 117.5, 77.78 117.67, 78.85 117.83, 79.92 118.0, 80.98 118.17, 82.04 118.33, 83.09 118.5, 84.14 118.67, 85.18 118.83, 86.21 119.0, 87.25 119.17, 88.27 119.33, 89.29 119.5, 90.31 119.67, 91.32 119.83, 92.33 120.0, 93.33 120.17, 94.33 120.33, 95.32 120.5, 96.31 120.67, 97.29 120.83, 98.27 121.0, 99.25 121.17, 100.21 121.33, 101.18 121.5, 102.14 121.67, 103.09 121.83, 104.04 122.0, 104.99 122.17, 105.93 122.33, 106.86 122.5, 107.79 122.67, 108.72 122.83, 109.64 123.0, 110.56 123.17, 111.47 123.33, 112.37 123.5, 113.28 123.67, 114.17 123.83, 115.07 124.0, 115.96 124.17, 116.84 124.33, 117.72 124.5, 118.59 124.67, 119.46 124.83, 120.33 125.0, 121.19 125.17, 122.05 125.33, 122.9 125.5, 123.75 125.67, 124.59 125.83, 125.43 126.0, 126.26 126.17, 127.09 126.33, 127.92 126.5, 128.74 126.67, 129.55 126.83, 130.36 127.0, 131.17 127.17, 131.97 127.33, 132.77 127.5, 133.57 127.67, 134.35 127.83, 135.14 128.0, 135.92 128.17, 136.7 128.33, 137.47 128.5, 138.24 128.67, 139.0 128.83, 139.76 129.0, 140.51 129.17, 141.26 129.33, 142.01 129.5, 142.75 129.67, 143.49 129.83, 144.22 130.0, 144.95 130.17, 145.67 130.33, 146.39 130.5, 147.11 130.67, 147.82 130.83, 148.53 131.0, 149.23 131.17, 149.93 131.33, 150.63 131.5, 151.32 131.67, 152.0 131.83, 152.69 132.0, 153.36 132.17, 154.04 132.33, 154.71 132.5, 155.37 132.67, 156.04 132.83, 156.69 133.0, 157.35 133.17, 158.0 133.33, 158.64 133.5, 159.28 133.67, 159.92 133.83, 160.55 134.0, 161.18 134.17, 161.81 134.33, 162.43 134.5, 163.05 134.67, 163.66 134.83, 164.27 135.0, 164.88 135.17, 165.48 135.33, 166.08 135.5, 166.67 135.67, 167.26 135.83, 167.84 136.0, 168.43 136.17, 169.0 136.33, 169.58 136.5, 170.15 136.67, 170.72 136.83, 171.28 137.0, 171.84 137.17, 172.39 137.33, 172.94 137.5, 173.49 137.67, 174.03 137.83, 174.57 138.0, 175.11 138.17, 175.64 138.33, 176.17 138.5, 176.69 138.67, 177.22 138.83, 177.73 139.0, 178.25 139.17, 178.76 139.33, 179.26 139.5, 179.76 139.67, 180.26 139.83, 180.76 140.0, 181.25 140.17, 181.74 140.33, 182.22 140.5, 182.7 140.67, 183.18 140.83, 183.65 141.0, 184.12 141.17, 184.59 141.33, 185.05 141.5, 185.51 141.67, 185.97 141.83, 186.42 142.0, 186.87 142.17, 187.31 142.33, 187.75 142.5, 188.19 142.67, 188.62 142.83, 189.05 143.0, 189.48 143.17, 189.91 143.33, 190.33 143.5, 190.74 143.67, 191.16 143.83, 191.57 144.0, 191.97 144.17, 192.38 144.33, 192.78 144.5, 193.17 144.67, 193.57 144.83, 193.96 145.0, 194.34 145.17, 194.73 145.33, 195.11 145.5, 195.48 145.67, 195.85 145.83, 196.22 146.0, 196.59 146.17, 196.95 146.33, 197.31 146.5, 197.67 146.67, 198.02 146.83, 198.37 147.0, 198.72 147.17, 199.07 147.33, 199.41 147.5, 199.74 147.67, 200.08 147.83, 200.41 148.0, 200.74 148.17, 201.06 148.33, 201.38 148.5, 201.7 148.67, 202.02 148.83, 202.33 149.0, 202.64 149.17, 202.94 149.33, 203.25 149.5, 203.55 149.67, 203.84 149.83, 204.14 150.0, 204.43 150.17, 204.71 150.33, 205.0 150.5, 205.28 150.67, 205.56 150.83, 205.83 151.0, 206.11 151.17, 206.38 151.33, 206.64 151.5, 206.91 151.67, 207.17 151.83, 207.43 152.0, 207.68 152.17, 207.93 152.33, 208.18 152.5, 208.43 152.67, 208.67 152.83, 208.91 153.0, 209.15 153.17, 209.38 153.33, 209.61 153.5, 209.84 153.67, 210.07 153.83, 210.29 154.0, 210.51 154.17, 210.73 154.33, 210.95 154.5, 211.16 154.67, 211.37 154.83, 211.57 155.0, 211.78 155.17, 211.98 155.33, 212.18 155.5, 212.37 155.67, 212.57 155.83, 212.76 156.0, 212.94 156.17, 213.13 156.33, 213.31 156.5, 213.49 156.67, 213.67 156.83, 213.84 157.0, 214.01 157.17, 214.18 157.33, 214.35 157.5, 214.51 157.67, 214.67 157.83, 214.83 158.0, 214.99 158.17, 215.14 158.33, 215.29 158.5, 215.44 158.67, 215.59 158.83, 215.73 159.0, 215.87 159.17, 216.01 159.33, 216.15 159.5, 216.28 159.67, 216.41 159.83, 216.54 160.0, 216.67 160.17, 216.79 160.33, 216.91 160.5, 217.03 160.67, 217.15 160.83, 217.26 161.0, 217.37 161.17, 217.48 161.33, 217.59 161.5, 217.69 161.67, 217.8 161.83, 217.9 162.0, 217.99 162.17, 218.09 162.33, 218.18 162.5, 218.27 162.67, 218.36 162.83, 218.45 163.0, 218.53 163.17, 218.61 163.33, 218.69 163.5, 218.77 163.67, 218.85 163.83, 218.92 164.0, 218.99 164.17, 219.06 164.33, 219.12 164.5, 219.19 164.67, 219.25 164.83, 219.31 165.0, 219.37 165.17, 219.42 165.33, 219.48 165.5, 219.53 165.67, 219.58 165.83, 219.63 166.0, 219.67 166.17, 219.71 166.33, 219.75 166.5, 219.79 166.67, 219.83 166.83, 219.87 167.0, 219.9 167.17, 219.93 167.33, 219.96 167.5, 219.98 167.67, 220.01 167.83, 220.03 168.0, 220.05 168.17, 220.07 168.33, 220.09 168.5, 220.1 168.67, 220.12 168.83, 220.13 169.0, 220.14 169.17, 220.15 169.33, 220.15 169.5, 220.16 169.67, 220.16 169.83, 220.16 170.0, 220.16 170.17, 220.15 170.33, 220.15 170.5, 220.14 170.67, 220.13 170.83, 220.12 171.0, 220.11 171.17, 220.09 171.33, 220.08 171.5, 220.06 171.67, 220.04 171.83, 220.02 172.0, 220.0 172.17, 219.97 172.33, 219.95 172.5, 219.92 172.67, 219.89 172.83, 219.86 173.0, 219.82 173.17, 219.79 173.33, 219.75 173.5, 219.72 173.67, 219.68 173.83, 219.63 174.0, 219.59 174.17, 219.55 174.33, 219.5 174.5, 219.45 174.67, 219.41 174.83, 219.36 175.0, 219.3 175.17, 219.25 175.33, 219.19 175.5, 219.14 175.67, 219.08 175.83, 219.02 176.0, 218.96 176.17, 218.9 176.33, 218.83 176.5, 218.77 176.67, 218.7 176.83, 218.63 177.0, 218.56 177.17, 218.49 177.33, 218.42 177.5, 218.35 177.67, 218.27 177.83, 218.2 178.0, 218.12 178.17, 218.04 178.33, 217.96 178.5, 217.88 178.67, 217.79 178.83, 217.71 179.0, 217.62 179.17, 217.54 179.33, 217.45 179.5, 217.36 179.67, 217.27 179.83, 217.18 180.0, 217.08 180.17, 216.99 180.33, 216.89 180.5, 216.8 180.67, 216.7 180.83, 216.6 181.0, 216.5 181.17, 216.4 181.33, 216.3 181.5, 216.19 181.67, 216.09 181.83, 215.98 182.0, 215.87 182.17, 215.77 182.33, 215.66 182.5, 215.55 182.67, 215.43 182.83, 215.32 183.0, 215.21 183.17, 215.09 183.33, 214.98 183.5, 214.86 183.67, 214.74 183.83, 214.63 184.0, 214.51 184.17, 214.39 184.33, 214.26 184.5, 214.14 184.67, 214.02 184.83, 213.89 185.0, 213.77 185.17, 213.64 185.33, 213.52 185.5, 213.39 185.67, 213.26 185.83, 213.13 186.0, 213.0 186.17, 212.87 186.33, 212.74 186.5, 212.6 186.67, 212.47 186.83, 212.33 187.0, 212.2 187.17, 212.06 187.33, 211.93 187.5, 211.79 187.67, 211.65 187.83, 211.51 188.0, 211.37 188.17, 211.23 188.33, 211.09 188.5, 210.95 188.67, 210.8 188.83, 210.66 189.0, 210.51 189.17, 210.37 189.33, 210.22 189.5, 210.08 189.67, 209.93 189.83, 209.78 190.0, 209.64 190.17, 209.49 190.33, 209.34 190.5, 209.19 190.67, 209.04 190.83, 208.89 191.0, 208.73 191.17, 208.58 191.33, 208.43 191.5, 208.28 191.67, 208.12 191.83, 207.97 192.0, 207.81 192.17, 207.66 192.33, 207.5 192.5, 207.35 192.67, 207.19 192.83, 207.03 193.0, 206.87 193.17, 206.72 193.33, 206.56 193.5, 206.4 193.67, 206.24 193.83, 206.08 194.0, 205.92 194.17, 205.76 194.33, 205.6 194.5, 205.44 194.67, 205.28 194.83, 205.12 195.0, 204.95 195.17, 204.79 195.33, 204.63 195.5, 204.47 195.67, 204.3 195.83, 204.14 196.0, 203.98 196.17, 203.81 196.33, 203.65 196.5, 203.48 196.67, 203.32 196.83, 203.16 197.0, 202.99 197.17, 202.83 197.33, 202.66 197.5, 202.49 197.67, 202.33 197.83, 202.16 198.0, 202.0 198.17, 201.83 198.33, 201.66 198.5, 201.5 198.67, 201.33 198.83, 201.17 199.0, 201.0 199.17, 200.83 199.33, 200.67 199.5, 200.5 199.67, 200.33 199.83, 200.17 200.0, 200.0 200.17, 199.83 200.33, 199.67 200.5, 199.5 200.67, 199.33 200.83, 199.17 201.0, 199.0 201.17, 198.83 201.33, 198.67 201.5, 198.5 201.67, 198.34 201.83, 198.17 202.0, 198.0 202.17, 197.84 202.33, 197.67 202.5, 197.51 202.67, 197.34 202.83, 197.17 203.0, 197.01 203.17, 196.84 203.33, 196.68 203.5, 196.52 203.67, 196.35 203.83, 196.19 204.0, 196.02 204.17, 195.86 204.33, 195.7 204.5, 195.53 204.67, 195.37 204.83, 195.21 205.0, 195.05 205.17, 194.88 205.33, 194.72 205.5, 194.56 205.67, 194.4 205.83, 194.24 206.0, 194.08 206.17, 193.92 206.33, 193.76 206.5, 193.6 206.67, 193.44 206.83, 193.28 207.0, 193.13 207.17, 192.97 207.33, 192.81 207.5, 192.65 207.67, 192.5 207.83, 192.34 208.0, 192.19 208.17, 192.03 208.33, 191.88 208.5, 191.72 208.67, 191.57 208.83, 191.42 209.0, 191.27 209.17, 191.11 209.33, 190.96 209.5, 190.81 209.67, 190.66 209.83, 190.51 210.0, 190.36 210.17, 190.22 210.33, 190.07 210.5, 189.92 210.67, 189.78 210.83, 189.63 211.0, 189.49 211.17, 189.34 211.33, 189.2 211.5, 189.05 211.67, 188.91 211.83, 188.77 212.0, 188.63 212.17, 188.49 212.33, 188.35 212.5, 188.21 212.67, 188.07 212.83, 187.94 213.0, 187.8 213.17, 187.67 213.33, 187.53 213.5, 187.4 213.67, 187.26 213.83, 187.13 214.0, 187.0 214.17, 186.87 214.33, 186.74 214.5, 186.61 214.67, 186.48 214.83, 186.36 215.0, 186.23 215.17, 186.11 215.33, 185.98 215.5, 185.86 215.67, 185.74 215.83, 185.61 216.0, 185.49 216.17, 185.37 216.33, 185.26 216.5, 185.14 216.67, 185.02 216.83, 184.91 217.0, 184.79 217.17, 184.68 217.33, 184.57 217.5, 184.45 217.67, 184.34 217.83, 184.23 218.0, 184.13 218.17, 184.02 218.33, 183.91 218.5, 183.81 218.67, 183.7 218.83, 183.6 219.0, 183.5 219.17, 183.4 219.33, 183.3 219.5, 183.2 219.67, 183.11 219.83, 183.01 220.0, 182.92 220.17, 182.82 220.33, 182.73 220.5, 182.64 220.67, 182.55 220.83, 182.46 221.0, 182.38 221.17, 182.29 221.33, 182.21 221.5, 182.12 221.67, 182.04 221.83, 181.96 222.0, 181.88 222.17, 181.8 222.33, 181.73 222.5, 181.65 222.67, 181.58 222.83, 181.51 223.0, 181.44 223.17, 181.37 223.33, 181.3 223.5, 181.23 223.67, 181.17 223.83, 181.1 224.0, 181.04 224.17, 180.98 224.33, 180.92 224.5, 180.86 224.67, 180.81 224.83, 180.75 225.0, 180.7 225.17, 180.64 225.33, 180.59 225.5, 180.55 225.67, 180.5 225.83, 180.45 226.0, 180.41 226.17, 180.37 226.33, 180.32 226.5, 180.28 226.67, 180.25 226.83, 180.21 227.0, 180.18 227.17, 180.14 227.33, 180.11 227.5, 180.08 227.67, 180.05 227.83, 180.03 228.0, 180.0 228.17, 179.98 228.33, 179.96 228.5, 179.94 228.67, 179.92 228.83, 179.91 229.0, 179.89 229.17, 179.88 229.33, 179.87 229.5, 179.86 229.67, 179.85 229.83, 179.85 230.0, 179.84 230.17, 179.84 230.33, 179.84 230.5, 179.84 230.67, 179.85 230.83, 179.85 231.0, 179.86 231.17, 179.87 231.33, 179.88 231.5, 179.9 231.67, 179.91 231.83, 179.93 232.0, 179.95 232.17, 179.97 232.33, 179.99 232.5, 180.02 232.67, 180.04 232.83, 180.07 233.0, 180.1 233.17, 180.13 233.33, 180.17 233.5, 180.21 233.67, 180.25 233.83, 180.29 234.0, 180.33 234.17, 180.37 234.33, 180.42 234.5, 180.47 234.67, 180.52 234.83, 180.58 235.0, 180.63 235.17, 180.69 235.33, 180.75 235.5, 180.81 235.67, 180.88 235.83, 180.94 236.0, 181.01 236.17, 181.08 236.33, 181.15 236.5, 181.23 236.67, 181.31 236.83, 181.39 237.0, 181.47 237.17, 181.55 237.33, 181.64 237.5, 181.73 237.67, 181.82 237.83, 181.91 238.0, 182.01 238.17, 182.1 238.33, 182.2 238.5, 182.31 238.67, 182.41 238.83, 182.52 239.0, 182.63 239.17, 182.74 239.33, 182.85 239.5, 182.97 239.67, 183.09 239.83, 183.21 240.0, 183.33 240.17, 183.46 240.33, 183.59 240.5, 183.72 240.67, 183.85 240.83, 183.99 241.0, 184.13 241.17, 184.27 241.33, 184.41 241.5, 184.56 241.67, 184.71 241.83, 184.86 242.0, 185.01 242.17, 185.17 242.33, 185.33 242.5, 185.49 242.67, 185.65 242.83, 185.82 243.0, 185.99 243.17, 186.16 243.33, 186.33 243.5, 186.51 243.67, 186.69 243.83, 186.87 244.0, 187.06 244.17, 187.24 244.33, 187.43 244.5, 187.63 244.67, 187.82 244.83, 188.02 245.0, 188.22 245.17, 188.43 245.33, 188.63 245.5, 188.84 245.67, 189.05 245.83, 189.27 246.0, 189.49 246.17, 189.71 246.33, 189.93 246.5, 190.16 246.67, 190.39 246.83, 190.62 247.0, 190.85 247.17, 191.09 247.33, 191.33 247.5, 191.57 247.67, 191.82 247.83, 192.07 248.0, 192.32 248.17, 192.57 248.33, 192.83 248.5, 193.09 248.67, 193.36 248.83, 193.62 249.0, 193.89 249.17, 194.17 249.33, 194.44 249.5, 194.72 249.67, 195.0 249.83, 195.29 250.0, 195.57 250.17, 195.86 250.33, 196.16 250.5, 196.45 250.67, 196.75 250.83, 197.06 251.0, 197.36 251.17, 197.67 251.33, 197.98 251.5, 198.3 251.67, 198.62 251.83, 198.94 252.0, 199.26 252.17, 199.59 252.33, 199.92 252.5, 200.26 252.67, 200.59 252.83, 200.93 253.0, 201.28 253.17, 201.63 253.33, 201.98 253.5, 202.33 253.67, 202.69 253.83, 203.05 254.0, 203.41 254.17, 203.78 254.33, 204.15 254.5, 204.52 254.67, 204.89 254.83, 205.27 255.0, 205.66 255.17, 206.04 255.33, 206.43 255.5, 206.83 255.67, 207.22 255.83, 207.62 256.0, 208.03 256.17, 208.43 256.33, 208.84 256.5, 209.26 256.67, 209.67 256.83, 210.09 257.0, 210.52 257.17, 210.95 257.33, 211.38 257.5, 211.81 257.67, 212.25 257.83, 212.69 258.0, 213.13 258.17, 213.58 258.33, 214.03 258.5, 214.49 258.67, 214.95 258.83, 215.41 259.0, 215.88 259.17, 216.35 259.33, 216.82 259.5, 217.3 259.67, 217.78 259.83, 218.26 260.0, 218.75 260.17, 219.24 260.33, 219.74 260.5, 220.24 260.67, 220.74 260.83, 221.24 261.0, 221.75 261.17, 222.27 261.33, 222.78 261.5, 223.31 261.67, 223.83 261.83, 224.36 262.0, 224.89 262.17, 225.43 262.33, 225.97 262.5, 226.51 262.67, 227.06 262.83, 227.61 263.0, 228.16 263.17, 228.72 263.33, 229.28 263.5, 229.85 263.67, 230.42 263.83, 231.0 264.0, 231.57 264.17, 232.16 264.33, 232.74 264.5, 233.33 264.67, 233.92 264.83, 234.52 265.0, 235.12 265.17, 235.73 265.33, 236.34 265.5, 236.95 265.67, 237.57 265.83, 238.19 266.0, 238.82 266.17, 239.45 266.33, 240.08 266.5, 240.72 266.67, 241.36 266.83, 242.0 267.0, 242.65 267.17, 243.31 267.33, 243.96 267.5, 244.63 267.67, 245.29 267.83, 245.96 268.0, 246.64 268.17, 247.31 268.33, 248.0 268.5, 248.68 268.67, 249.37 268.83, 250.07 269.0, 250.77 269.17, 251.47 269.33, 252.18 269.5, 252.89 269.67, 253.61 269.83, 254.33 270.0, 255.05 270.17, 255.78 270.33, 256.51 270.5, 257.25 270.67, 257.99 270.83, 258.74 271.0, 259.49 271.17, 260.24 271.33, 261.0 271.5, 261.76 271.67, 262.53 271.83, 263.3 272.0, 264.08 272.17, 264.86 272.33, 265.65 272.5, 266.43 272.67, 267.23 272.83, 268.03 273.0, 268.83 273.17, 269.64 273.33, 270.45 273.5, 271.26 273.67, 272.08 273.83, 272.91 274.0, 273.74 274.17, 274.57 274.33, 275.41 274.5, 276.25 274.67, 277.1 274.83, 277.95 275.0, 278.81 275.17, 279.67 275.33, 280.54 275.5, 281.41 275.67, 282.28 275.83, 283.16 276.0, 284.04 276.17, 284.93 276.33, 285.83 276.5, 286.72 276.67, 287.63 276.83, 288.53 277.0, 289.44 277.17, 290.36 277.33, 291.28 277.5, 292.21 277.67, 293.14 277.83, 294.07 278.0, 295.01 278.17, 295.96 278.33, 296.91 278.5, 297.86 278.67, 298.82 278.83, 299.79 279.0, 300.75 279.17, 301.73 279.33, 302.71 279.5, 303.69 279.67, 304.68 279.83, 305.67 280.0, 306.67 280.17, 307.67 280.33, 308.68 280.5, 309.69 280.67, 310.71 280.83, 311.73 281.0, 312.75 281.17, 313.79 281.33, 314.82 281.5, 315.86 281.67, 316.91 281.83, 317.96 282.0, 319.02 282.17, 320.08 282.33, 321.15 282.5, 322.22 282.67, 323.3 282.83, 324.38 283.0, 325.46 283.17, 326.56 283.33, 327.65 283.5, 328.75 283.67, 329.86 283.83, 330.97 284.0, 332.09 284.17, 333.21 284.33, 334.34 284.5, 335.47 284.67, 336.61 284.83, 337.75 285.0, 338.9 285.17, 340.05 285.33, 341.21 285.5, 342.37 285.67, 343.54 285.83, 344.72 286.0, 345.9 286.17, 347.08 286.33, 348.27 286.5, 349.46 286.67, 350.66 286.83, 351.87 287.0, 353.08 287.17, 354.29 287.33, 355.52 287.5, 356.74 287.67, 357.97 287.83, 359.21 288.0, 360.45 288.17, 361.7 288.33, 362.95 288.5, 364.21 288.67, 365.48 288.83, 366.75 289.0, 368.02 289.17, 369.3 289.33, 370.59 289.5, 371.88 289.67, 373.17 289.83, 374.47 290.0, 375.78 290.17, 377.09 290.33, 378.41 290.5, 379.74 290.67, 381.06 290.83, 382.4 291.0, 383.74 291.17, 385.09 291.33, 386.44 291.5, 387.79 291.67, 389.16 291.83, 390.52 292.0, 391.9 292.17, 393.28 292.33, 394.66 292.5, 396.05 292.67, 397.45 292.83, 398.85 293.0, 400.26 293.17, 401.67 293.33, 403.09 293.5, 404.51 293.67, 405.94 293.83, 407.38 294.0, 408.82 294.17, 410.26 294.33, 411.72 294.5, 413.18 294.67, 414.64 294.83, 416.11 295.0, 417.58 295.17, 419.07 295.33, 420.55 295.5, 422.05 295.67, 423.54 295.83, 425.05 296.0, 426.56 296.17, 428.08 296.33, 429.6 296.5, 431.13 296.67, 432.66 296.83, 434.2 297.0, 435.75 297.17, 437.3 297.33, 438.85 297.5, 440.42 297.67, 441.99 297.83, 443.56 298.0, 445.14 298.17, 446.73 298.33, 448.32 298.5, 449.92 298.67, 451.53 298.83, 453.14 299.0, 454.75 299.17, 456.38 299.33, 458.01 299.5, 459.64 299.67, 461.28 299.83, 462.93 300.0, 464.58 300.17, 466.24 300.33, 467.91 300.5, 469.58 300.67, 471.26 300.83, 472.94 301.0, 474.63 301.17, 476.33 301.33, 478.03 301.5, 479.74 301.67, 481.45 301.83, 483.17 302.0, 484.9 302.17, 486.63 302.33, 488.37 302.5, 490.12 302.67, 491.87 302.83, 493.63 303.0, 495.39 303.17, 497.16 303.33, 498.94 303.5, 500.72 303.67, 502.51 303.83, 504.3 304.0, 506.11 304.17, 507.91 304.33, 509.73 304.5, 511.55 304.67, 513.38 304.83, 515.21 305.0, 517.05 305.17, 518.9 305.33, 520.75 305.5, 522.61 305.67, 524.47 305.83, 526.35 306.0, 528.22 306.17, 530.11 306.33, 532.0 306.5, 533.9 306.67, 535.8 306.83, 537.71 307.0, 539.63 307.17, 541.55 307.33, 543.48 307.5, 545.42 307.67, 547.36 307.83, 549.31 308.0, 551.27 308.17, 553.23 308.33, 555.2 308.5, 557.18 308.67, 559.16 308.83, 561.15 309.0, 563.15 309.17, 565.15 309.33, 567.16 309.5, 569.17 309.67, 571.2 309.83, 573.22 310.0, 575.26 310.17, 577.3 310.33, 579.35 310.5, 581.41 310.67, 583.47 310.83, 585.54 311.0, 587.62 311.17, 589.7 311.33, 591.79 311.5, 593.88 311.67, 595.99 311.83, 598.1 312.0, 600.21 312.17, 602.34 312.33, 604.47 312.5, 606.6 312.67, 608.75 312.83, 610.9 313.0, 613.06 313.17, 615.22 313.33, 617.39 313.5, 619.57 313.67, 621.76 313.83, 623.95 314.0, 626.15 314.17, 628.35 314.33, 630.56 314.5, 632.78 314.67, 635.01 314.83, 637.25 315.0, 639.49 315.17, 641.73 315.33, 643.99 315.5, 646.25 315.67, 648.52 315.83, 650.79 316.0, 653.08 316.17, 655.37 316.33, 657.66 316.5, 659.97 316.67, 662.28 316.83, 664.6 317.0, 666.92 317.17, 669.25 317.33, 671.59 317.5, 673.94 317.67, 676.29 317.83, 678.65 318.0, 681.02 318.17, 683.4 318.33, 685.78 318.5, 688.17 318.67, 690.57 318.83, 692.97 319.0, 695.38 319.17, 697.8 319.33, 700.22 319.5, 702.66 319.67, 705.1 319.83, 707.55 320.0, 710.0 320.17, 712.46 320.33, 714.93 320.5, 717.41 320.67, 719.89 320.83, 722.38 321.0, 724.88 321.17, 727.39 321.33, 729.9 321.5, 732.42 321.67, 734.95 321.83, 737.49 322.0, 740.03 322.17, 742.58 322.33, 745.14 322.5, 747.7 322.67, 750.27 322.83, 752.85 323.0, 755.44 323.17, 758.04 323.33, 760.64 323.5, 763.25 323.67, 765.87 323.83, 768.49 324.0, 771.12 324.17, 773.76 324.33, 776.41 324.5, 779.07 324.67, 781.73 324.83, 784.4 325.0, 787.08 325.17, 789.76 325.33, 792.46 325.5, 795.16 325.67, 797.86 325.83, 800.58 326.0, 803.3 326.17, 806.03 326.33, 808.77 326.5, 811.52 326.67, 814.27 326.83, 817.04 327.0, 819.81 327.17, 822.58 327.33, 825.37 327.5, 828.16 327.67, 830.96 327.83, 833.77 328.0, 836.59 328.17, 839.41 328.33, 842.24 328.5, 845.08 328.67, 847.93 328.83, 850.78 329.0, 853.65 329.17, 856.52 329.33, 859.4 329.5, 862.28 329.67, 865.18 329.83, 868.08 330.0, 870.99 330.17, 873.91 330.33, 876.83 330.5, 879.77 330.67, 882.71 330.83, 885.66 331.0, 888.62 331.17, 891.58 331.33, 894.56 331.5, 897.54 331.67, 900.53 331.83, 903.52 332.0, 906.53 332.17, 909.54 332.33, 912.57 332.5, 915.59 332.67, 918.63 332.83, 921.68 333.0, 924.73 333.17, 927.79 333.33, 930.86 333.5, 933.94 333.67, 937.03 333.83, 940.12 334.0, 943.23 334.17, 946.34 334.33, 949.45 334.5, 952.58 334.67, 955.72 334.83, 958.86 335.0, 962.01 335.17, 965.17 335.33, 968.34 335.5, 971.52 335.67, 974.7 335.83, 977.89 336.0, 981.09 336.17, 984.3 336.33, 987.52 336.5, 990.75 336.67, 993.98 336.83, 997.22 337.0, 1000.47 337.17, 1003.73 337.33, 1007.0 337.5, 1010.27 337.67, 1013.56 337.83, 1016.85 338.0, 1020.15 338.17, 1023.46 338.33, 1026.78 338.5, 1030.1 338.67, 1033.44 338.83, 1036.78 339.0, 1040.13 339.17, 1043.49 339.33, 1046.86 339.5, 1050.24 339.67, 1053.62 339.83, 1057.01 340.0, 1060.42 340.17, 1063.83 340.33, 1067.25 340.5, 1070.67 340.67, 1074.11 340.83, 1077.55 341.0, 1081.01 341.17, 1084.47 341.33, 1087.94 341.5, 1091.42 341.67, 1094.91 341.83, 1098.4 342.0, 1101.91 342.17, 1105.42 342.33, 1108.94 342.5, 1112.47 342.67, 1116.01 342.83, 1119.56 343.0, 1123.12 343.17, 1126.68 343.33, 1130.26 343.5, 1133.84 343.67, 1137.43 343.83, 1141.03 344.0, 1144.64 344.17, 1148.26 344.33, 1151.88 344.5, 1155.52 344.67, 1159.16 344.83, 1162.82 345.0, 1166.48 345.17, 1170.15 345.33, 1173.83 345.5, 1177.52 345.67, 1181.21 345.83, 1184.92 346.0, 1188.63 346.17, 1192.36 346.33, 1196.09 346.5, 1199.83 346.67, 1203.58 346.83, 1207.34 347.0, 1211.11 347.17, 1214.88 347.33, 1218.67 347.5, 1222.47 347.67, 1226.27 347.83, 1230.08 348.0, 1233.9 348.17, 1237.73 348.33, 1241.57 348.5, 1245.42 348.67, 1249.28 348.83, 1253.15 349.0, 1257.02 349.17, 1260.91 349.33, 1264.8 349.5, 1268.71 349.67, 1272.62 349.83, 1276.54 350.0, 1280.47 350.17, 1284.41 350.33, 1288.36 350.5, 1292.31 350.67, 1296.28 350.83, 1300.26 351.0, 1304.24 351.17, 1308.24 351.33, 1312.24 351.5, 1316.25 351.67, 1320.28 351.83, 1324.31 352.0, 1328.35 352.17, 1332.4 352.33, 1336.46 352.5, 1340.52 352.67, 1344.6 352.83, 1348.69 353.0, 1352.78 353.17, 1356.89 353.33, 1361.0 353.5, 1365.13 353.67, 1369.26 353.83, 1373.4 354.0, 1377.55 354.17, 1381.72 354.33, 1385.89 354.5, 1390.07 354.67, 1394.26 354.83, 1398.45 355.0, 1402.66 355.17, 1406.88 355.33, 1411.11 355.5, 1415.34 355.67, 1419.59 355.83, 1423.85 356.0, 1428.11 356.17, 1432.38 356.33, 1436.67 356.5, 1440.96 356.67, 1445.26 356.83, 1449.58 357.0, 1453.9 357.17, 1458.23 357.33, 1462.57 357.5, 1466.92 357.67, 1471.28 357.83, 1475.65 358.0, 1480.03 358.17, 1484.42 358.33, 1488.82 358.5, 1493.23 358.67, 1497.64 358.83, 1502.07 359.0, 1506.51 359.17, 1510.95 359.33, 1515.41 359.5, 1519.88 359.67, 1524.35 359.83, 1528.84 360.0, 1533.33 360.17, 1537.84 360.33, 1542.35 360.5, 1546.88 360.67, 1551.41 360.83, 1555.96 361.0, 1560.51 361.17, 1565.07 361.33, 1569.65 361.5, 1574.23 361.67, 1578.82 361.83, 1583.42 362.0, 1588.04 362.17, 1592.66 362.33, 1597.29 362.5, 1601.93 362.67, 1606.58 362.83, 1611.25 363.0, 1615.92 363.17, 1620.6 363.33, 1625.29 363.5, 1629.99 363.67, 1634.7 363.83, 1639.43 364.0, 1644.16 364.17, 1648.9 364.33, 1653.65 364.5, 1658.41 364.67, 1663.18 364.83, 1667.96 365.0, 1672.75 365.17, 1677.56 365.33, 1682.37 365.5, 1687.19 365.67, 1692.02 365.83, 1696.86 366.0, 1701.71 366.17, 1706.57 366.33, 1711.45 366.5, 1716.33 366.67, 1721.22 366.83, 1726.12 367.0, 1731.03 367.17, 1735.96 367.33, 1740.89 367.5, 1745.83 367.67, 1750.78 367.83, 1755.75 368.0, 1760.72 368.17, 1765.7 368.33, 1770.7 368.5, 1775.7 368.67, 1780.72 368.83, 1785.74 369.0, 1790.77 369.17, 1795.82 369.33, 1800.87 369.5, 1805.94 369.67, 1811.02 369.83, 1816.1 370.0, 1821.2 370.17, 1826.3 370.33, 1831.42 370.5, 1836.55 370.67, 1841.69 370.83, 1846.84 371.0, 1851.99 371.17, 1857.16 371.33, 1862.34 371.5, 1867.53 371.67, 1872.73 371.83, 1877.94 372.0, 1883.16 372.17, 1888.39 372.33, 1893.64 372.5, 1898.89 372.67, 1904.15 372.83, 1909.43 373.0, 1914.71 373.17, 1920.0 373.33, 1925.31 373.5, 1930.62 373.67, 1935.95 373.83, 1941.29 374.0, 1946.63 374.17, 1951.99 374.33, 1957.36 374.5, 1962.74 374.67, 1968.13 374.83, 1973.53 375.0, 1978.94 375.17, 1984.36 375.33, 1989.79 375.5, 1995.23 375.67, 2000.69 375.83, 2006.15 376.0, 2011.63 376.17, 2017.11 376.33, 2022.61 376.5, 2028.11 376.67, 2033.63 376.83, 2039.16 377.0, 2044.7 377.17, 2050.25 377.33, 2055.81 377.5, 2061.38 377.67, 2066.96 377.83, 2072.56 378.0, 2078.16 378.17, 2083.77 378.33, 2089.4 378.5, 2095.04 378.67, 2100.68 378.83, 2106.34 379.0, 2112.01 379.17, 2117.69 379.33, 2123.38 379.5, 2129.08 379.67, 2134.79 379.83, 2140.52 380.0, 2146.25 380.17, 2152.0 380.33, 2157.75 380.5, 2163.52 380.67, 2169.3 380.83, 2175.08 381.0, 2180.88 381.17, 2186.7 381.33, 2192.52 381.5, 2198.35 381.67, 2204.19 381.83, 2210.05 382.0, 2215.92 382.17, 2221.79 382.33, 2227.68 382.5, 2233.58 382.67, 2239.49 382.83, 2245.41 383.0, 2251.34 383.17, 2257.29 383.33, 2263.24 383.5, 2269.21 383.67, 2275.19 383.83, 2281.17 384.0, 2287.17 384.17, 2293.18 384.33, 2299.21 384.5, 2305.24 384.67, 2311.28 384.83, 2317.34 385.0, 2323.4 385.17, 2329.48 385.33, 2335.57 385.5, 2341.67 385.67, 2347.78 385.83, 2353.91 386.0, 2360.04 386.17, 2366.19 386.33, 2372.34 386.5, 2378.51 386.67, 2384.69 386.83, 2390.88 387.0, 2397.08 387.17, 2403.3 387.33, 2409.52 387.5, 2415.76 387.67, 2422.01 387.83, 2428.27 388.0, 2434.54 388.17, 2440.82 388.33, 2447.11 388.5, 2453.42 388.67, 2459.73 388.83, 2466.06 389.0, 2472.4 389.17, 2478.75 389.33, 2485.11 389.5, 2491.49 389.67, 2497.87 389.83, 2504.27 390.0, 2510.68 390.17, 2517.1 390.33, 2523.53 390.5, 2529.97 390.67, 2536.43 390.83, 2542.89 391.0, 2549.37 391.17, 2555.86 391.33, 2562.36 391.5, 2568.87 391.67, 2575.4 391.83, 2581.93 392.0, 2588.48 392.17, 2595.04 392.33, 2601.61 392.5, 2608.19 392.67, 2614.79 392.83, 2621.39 393.0, 2628.01 393.17, 2634.64 393.33, 2641.28 393.5, 2647.93 393.67, 2654.6 393.83, 2661.27 394.0, 2667.96 394.17, 2674.66 394.33, 2681.37 394.5, 2688.1 394.67, 2694.83 394.83, 2701.58 395.0, 2708.34 395.17, 2715.11 395.33, 2721.89 395.5, 2728.69 395.67, 2735.49 395.83, 2742.31 396.0, 2749.14 396.17, 2755.99 396.33, 2762.84 396.5, 2769.71 396.67, 2776.58 396.83, 2783.47 397.0, 2790.38 397.17, 2797.29 397.33, 2804.22 397.5, 2811.15 397.67, 2818.1 397.83, 2825.06 398.0, 2832.04 398.17, 2839.02 398.33, 2846.02 398.5, 2853.03 398.67, 2860.05 398.83, 2867.09 399.0, 2874.14 399.17, 2881.19 399.33, 2888.26 399.5, 2895.35 399.67, 2902.44 399.83, 2909.55 400.0, 2916.67 " fill="none" stroke="white" stroke-width="1.5" stroke-linejoin="round" stroke-opacity="1"/>

 </svg>