<svg version="1.1" 
 baseProfile="full" 
 width="400" 
 height="400" 
 xmlns="http://www.w3.org/2000/svg">
<rect x="0.0" y="0.0" width="400" height="400" fill="black" stroke="black" stroke-width="0" opacity="1"/>
<line x1="0.0" y1="0.0" x2="0.0" y2="400.0" stroke="white" stroke-width="1" opacity="0.4" stroke-linecap="butt"/>
<line x1="40.0" y1="0.0" x2="40.0" y2="400.0" stroke="white" stroke-width="1" opacity="0.4" stroke-linecap="butt"/>
<line x1="80.0" y1="0.0" x2="80.0" y2="400.0" stroke="white" stroke-width="1" opacity="0.4" stroke-linecap="butt"/>
<line x1="120.0" y1="0.0" x2="120.0" y2="400.0" stroke="white" stroke-width="1" opacity="0.4" stroke-linecap="butt"/>
<line x1="160.0" y1="0.0" x2="160.0" y2="400.0" stroke="white" stroke-width="1" opacity="0.4" stroke-linecap="butt"/>
<line x1="200.0" y1="0.0" x2="200.0" y2="400.0" stroke="white" stroke-width="1" opacity="0.4" stroke-linecap="butt"/>
<line x1="240.0" y1="0.0" x2="240.0" y2="400.0" stroke="white" stroke-width="1" opacity="0.4" stroke-linecap="butt"/>
<line x1="280.0" y1="0.0" x2="280.0" y2="400.0" stroke="white" stroke-width="1" opacity="0.4" stroke-linecap="butt"/>
<line x1="320.0" y1="0.0" x2="320.0" y2="400.0" stroke="white" stroke-width="1" opacity="0.4" stroke-linecap="butt"/>
<line x1="360.0" y1="0.0" x2="360.0" y2="400.0" stroke="white" stroke-width="1" opacity="0.4" stroke-linecap="butt"/>
<line x1="0.0" y1="0.0" x2="400.0" y2="0.0" stroke="white" stroke-width="1" opacity="0.4" stroke-linecap="butt"/>
<line x1="0.0" y1="40.0" x2="400.0" y2="40.0" stroke="white" stroke-width="1" opacity="0.4" stroke-linecap="butt"/>
<line x1="0.0" y1="80.0" x2="400.0" y2="80.0" stroke="white" stroke-width="1" opacity="0.4" stroke-linecap="butt"/>
<line x1="0.0" y1="120.0" x2="400.0" y2="120.0" stroke="white" stroke-width="1" opacity="0.4" stroke-linecap="butt"/>
<line x1="0.0" y1="160.0" x2="400.0" y2="160.0" stroke="white" stroke-width="1" opacity="0.4" stroke-linecap="butt"/>
<line x1="0.0" y1="200.0" x2="400.0" y2="200.0" stroke="white" stroke-width="1" opacity="0.4" stroke-linecap="butt"/>
<line x1="0.0" y1="240.0" x2="400.0" y2="240.0" stroke="white" stroke-width="1" opacity="0.4" stroke-linecap="butt"/>
<line x1="0.0" y1="280.0" x2="400.0" y2="280.0" stroke="white" stroke-width="1" opacity="0.4" stroke-linecap="butt"/>
<line x1="0.0" y1="320.0" x2="400.0" y2="320.0" stroke="white" stroke-width="1" opacity="0.4" stroke-linecap="butt"/>
<line x1="0.0" y1="360.0" x2="400.0" y2="360.0" stroke="white" stroke-width="1" opacity="0.4" stroke-linecap="butt"/>
<line x1="0.0" y1="200.0" x2="400.0" y2="200.0" stroke="yellow" stroke-width="2.5" opacity="1" stroke-linecap="butt"/>
<line x1="200.0" y1="0.0" x2="200.0" y2="400.0" stroke="yellow" stroke-width="2.5" opacity="1" stroke-linecap="butt"/>
<polygon points="391.0 204.0, 401.0 200.0, 391.0 196.0, 393.0 200.0" fill="yellow"/><polygon points="204.0 9.0, 200.0 -1.0, 196.0 9.0, 200.0 7.0" fill="yellow"/><image x="-60.0" y="-60.0" width="200" height="200" href="/Users/girirajhira/PycharmProjects/Giraphics3/Taylor/expr.png"/><polyline points="0.0, -2641.67 0.17, -2634.24 0.33, -2626.82 0.5, -2619.41 0.67, -2612.02 0.83, -2604.64 1.0, -2597.27 1.17, -2589.91 1.33, -2582.57 1.5, -2575.24 1.67, -2567.92 1.83, -2560.62 2.0, -2553.33 2.17, -2546.05 2.33, -2538.78 2.5, -2531.52 2.67, -2524.28 2.83, -2517.05 3.0, -2509.83 3.17, -2502.63 3.33, -2495.44 3.5, -2488.26 3.67, -2481.09 3.83, -2473.93 4.0, -2466.79 4.17, -2459.66 4.33, -2452.54 4.5, -2445.44 4.67, -2438.35 4.83, -2431.27 5.0, -2424.2 5.17, -2417.14 5.33, -2410.1 5.5, -2403.07 5.67, -2396.05 5.83, -2389.04 6.0, -2382.05 6.17, -2375.07 6.33, -2368.1 6.5, -2361.14 6.67, -2354.19 6.83, -2347.26 7.0, -2340.34 7.17, -2333.43 7.33, -2326.53 7.5, -2319.65 7.67, -2312.78 7.83, -2305.92 8.0, -2299.07 8.17, -2292.24 8.33, -2285.41 8.5, -2278.6 8.67, -2271.8 8.83, -2265.02 9.0, -2258.24 9.17, -2251.48 9.33, -2244.73 9.5, -2237.99 9.67, -2231.27 9.83, -2224.55 10.0, -2217.85 10.17, -2211.16 10.33, -2204.48 10.5, -2197.81 10.67, -2191.16 10.83, -2184.52 11.0, -2177.89 11.17, -2171.27 11.33, -2164.66 11.5, -2158.07 11.67, -2151.49 11.83, -2144.92 12.0, -2138.36 12.17, -2131.81 12.33, -2125.28 12.5, -2118.76 12.67, -2112.25 12.83, -2105.75 13.0, -2099.26 13.17, -2092.78 13.33, -2086.32 13.5, -2079.87 13.67, -2073.43 13.83, -2067.0 14.0, -2060.59 14.17, -2054.18 14.33, -2047.79 14.5, -2041.41 14.67, -2035.04 14.83, -2028.68 15.0, -2022.34 15.17, -2016.0 15.33, -2009.68 15.5, -2003.37 15.67, -1997.07 15.83, -1990.78 16.0, -1984.51 16.17, -1978.25 16.33, -1971.99 16.5, -1965.75 16.67, -1959.52 16.83, -1953.31 17.0, -1947.1 17.17, -1940.91 17.33, -1934.73 17.5, -1928.55 17.67, -1922.4 17.83, -1916.25 18.0, -1910.11 18.17, -1903.99 18.33, -1897.87 18.5, -1891.77 18.67, -1885.68 18.83, -1879.6 19.0, -1873.54 19.17, -1867.48 19.33, -1861.44 19.5, -1855.4 19.67, -1849.38 19.83, -1843.37 20.0, -1837.38 20.17, -1831.39 20.33, -1825.41 20.5, -1819.45 20.67, -1813.5 20.83, -1807.55 21.0, -1801.62 21.17, -1795.7 21.33, -1789.8 21.5, -1783.9 21.67, -1778.02 21.83, -1772.14 22.0, -1766.28 22.17, -1760.43 22.33, -1754.59 22.5, -1748.76 22.67, -1742.94 22.83, -1737.14 23.0, -1731.34 23.17, -1725.56 23.33, -1719.79 23.5, -1714.03 23.67, -1708.28 23.83, -1702.54 24.0, -1696.81 24.17, -1691.09 24.33, -1685.39 24.5, -1679.69 24.67, -1674.01 24.83, -1668.34 25.0, -1662.68 25.17, -1657.03 25.33, -1651.39 25.5, -1645.76 25.67, -1640.15 25.83, -1634.54 26.0, -1628.95 26.17, -1623.36 26.33, -1617.79 26.5, -1612.23 26.67, -1606.68 26.83, -1601.14 27.0, -1595.61 27.17, -1590.09 27.33, -1584.59 27.5, -1579.09 27.67, -1573.61 27.83, -1568.13 28.0, -1562.67 28.17, -1557.22 28.33, -1551.78 28.5, -1546.35 28.67, -1540.93 28.83, -1535.52 29.0, -1530.12 29.17, -1524.74 29.33, -1519.36 29.5, -1513.99 29.67, -1508.64 29.83, -1503.3 30.0, -1497.96 30.17, -1492.64 30.33, -1487.33 30.5, -1482.03 30.67, -1476.74 30.83, -1471.46 31.0, -1466.19 31.17, -1460.94 31.33, -1455.69 31.5, -1450.45 31.67, -1445.23 31.83, -1440.01 32.0, -1434.81 32.17, -1429.61 32.33, -1424.43 32.5, -1419.26 32.67, -1414.1 32.83, -1408.95 33.0, -1403.81 33.17, -1398.68 33.33, -1393.56 33.5, -1388.45 33.67, -1383.35 33.83, -1378.26 34.0, -1373.19 34.17, -1368.12 34.33, -1363.06 34.5, -1358.02 34.67, -1352.98 34.83, -1347.96 35.0, -1342.94 35.17, -1337.94 35.33, -1332.95 35.5, -1327.96 35.67, -1322.99 35.83, -1318.03 36.0, -1313.08 36.17, -1308.14 36.33, -1303.21 36.5, -1298.29 36.67, -1293.38 36.83, -1288.48 37.0, -1283.59 37.17, -1278.71 37.33, -1273.84 37.5, -1268.98 37.67, -1264.13 37.83, -1259.29 38.0, -1254.47 38.17, -1249.65 38.33, -1244.84 38.5, -1240.05 38.67, -1235.26 38.83, -1230.48 39.0, -1225.72 39.17, -1220.96 39.33, -1216.21 39.5, -1211.48 39.67, -1206.75 39.83, -1202.04 40.0, -1197.33 40.17, -1192.64 40.33, -1187.95 40.5, -1183.28 40.67, -1178.61 40.83, -1173.96 41.0, -1169.32 41.17, -1164.68 41.33, -1160.06 41.5, -1155.44 41.67, -1150.84 41.83, -1146.24 42.0, -1141.66 42.17, -1137.09 42.33, -1132.52 42.5, -1127.97 42.67, -1123.42 42.83, -1118.89 43.0, -1114.37 43.17, -1109.85 43.33, -1105.35 43.5, -1100.85 43.67, -1096.37 43.83, -1091.89 44.0, -1087.43 44.17, -1082.97 44.33, -1078.53 44.5, -1074.09 44.67, -1069.67 44.83, -1065.25 45.0, -1060.85 45.17, -1056.45 45.33, -1052.07 45.5, -1047.69 45.67, -1043.32 45.83, -1038.97 46.0, -1034.62 46.17, -1030.28 46.33, -1025.96 46.5, -1021.64 46.67, -1017.33 46.83, -1013.03 47.0, -1008.75 47.17, -1004.47 47.33, -1000.2 47.5, -995.94 47.67, -991.69 47.83, -987.45 48.0, -983.22 48.17, -979.0 48.33, -974.79 48.5, -970.59 48.67, -966.39 48.83, -962.21 49.0, -958.04 49.17, -953.88 49.33, -949.72 49.5, -945.58 49.67, -941.44 49.83, -937.32 50.0, -933.2 50.17, -929.1 50.33, -925.0 50.5, -920.91 50.67, -916.84 50.83, -912.77 51.0, -908.71 51.17, -904.66 51.33, -900.62 51.5, -896.59 51.67, -892.57 51.83, -888.56 52.0, -884.56 52.17, -880.56 52.33, -876.58 52.5, -872.61 52.67, -868.64 52.83, -864.69 53.0, -860.74 53.17, -856.8 53.33, -852.88 53.5, -848.96 53.67, -845.05 53.83, -841.15 54.0, -837.26 54.17, -833.38 54.33, -829.51 54.5, -825.64 54.67, -821.79 54.83, -817.95 55.0, -814.11 55.17, -810.29 55.33, -806.47 55.5, -802.66 55.67, -798.86 55.83, -795.08 56.0, -791.3 56.17, -787.53 56.33, -783.76 56.5, -780.01 56.67, -776.27 56.83, -772.53 57.0, -768.81 57.17, -765.09 57.33, -761.38 57.5, -757.69 57.67, -754.0 57.83, -750.32 58.0, -746.65 58.17, -742.98 58.33, -739.33 58.5, -735.69 58.67, -732.05 58.83, -728.43 59.0, -724.81 59.17, -721.2 59.33, -717.6 59.5, -714.01 59.67, -710.43 59.83, -706.86 60.0, -703.29 60.17, -699.74 60.33, -696.19 60.5, -692.65 60.67, -689.13 60.83, -685.61 61.0, -682.09 61.17, -678.59 61.33, -675.1 61.5, -671.62 61.67, -668.14 61.83, -664.67 62.0, -661.21 62.17, -657.77 62.33, -654.32 62.5, -650.89 62.67, -647.47 62.83, -644.06 63.0, -640.65 63.17, -637.25 63.33, -633.86 63.5, -630.48 63.67, -627.11 63.83, -623.75 64.0, -620.4 64.17, -617.05 64.33, -613.72 64.5, -610.39 64.67, -607.07 64.83, -603.76 65.0, -600.46 65.17, -597.16 65.33, -593.88 65.5, -590.6 65.67, -587.33 65.83, -584.07 66.0, -580.82 66.17, -577.58 66.33, -574.34 66.5, -571.12 66.67, -567.9 66.83, -564.69 67.0, -561.49 67.17, -558.3 67.33, -555.12 67.5, -551.94 67.67, -548.78 67.83, -545.62 68.0, -542.47 68.17, -539.33 68.33, -536.19 68.5, -533.07 68.67, -529.95 68.83, -526.84 69.0, -523.74 69.17, -520.65 69.33, -517.57 69.5, -514.49 69.67, -511.43 69.83, -508.37 70.0, -505.32 70.17, -502.28 70.33, -499.24 70.5, -496.22 70.67, -493.2 70.83, -490.19 71.0, -487.19 71.17, -484.2 71.33, -481.21 71.5, -478.24 71.67, -475.27 71.83, -472.31 72.0, -469.35 72.17, -466.41 72.33, -463.47 72.5, -460.55 72.67, -457.63 72.83, -454.72 73.0, -451.81 73.17, -448.92 73.33, -446.03 73.5, -443.15 73.67, -440.28 73.83, -437.42 74.0, -434.56 74.17, -431.71 74.33, -428.87 74.5, -426.04 74.67, -423.22 74.83, -420.4 75.0, -417.59 75.17, -414.79 75.33, -412.0 75.5, -409.22 75.67, -406.44 75.83, -403.67 76.0, -400.91 76.17, -398.16 76.33, -395.42 76.5, -392.68 76.67, -389.95 76.83, -387.23 77.0, -384.52 77.17, -381.81 77.33, -379.11 77.5, -376.42 77.67, -373.74 77.83, -371.07 78.0, -368.4 78.17, -365.74 78.33, -363.09 78.5, -360.45 78.67, -357.81 78.83, -355.18 79.0, -352.56 79.17, -349.95 79.33, -347.34 79.5, -344.75 79.67, -342.16 79.83, -339.57 80.0, -337.0 80.17, -334.43 80.33, -331.87 80.5, -329.32 80.67, -326.78 80.83, -324.24 81.0, -321.71 81.17, -319.19 81.33, -316.68 81.5, -314.17 81.67, -311.67 81.83, -309.18 82.0, -306.69 82.17, -304.22 82.33, -301.75 82.5, -299.29 82.67, -296.83 82.83, -294.39 83.0, -291.95 83.17, -289.51 83.33, -287.09 83.5, -284.67 83.67, -282.26 83.83, -279.86 84.0, -277.47 84.17, -275.08 84.33, -272.7 84.5, -270.32 84.67, -267.96 84.83, -265.6 85.0, -263.25 85.17, -260.91 85.33, -258.57 85.5, -256.24 85.67, -253.92 85.83, -251.6 86.0, -249.3 86.17, -247.0 86.33, -244.7 86.5, -242.42 86.67, -240.14 86.83, -237.87 87.0, -235.6 87.17, -233.34 87.33, -231.09 87.5, -228.85 87.67, -226.62 87.83, -224.39 88.0, -222.17 88.17, -219.95 88.33, -217.74 88.5, -215.54 88.67, -213.35 88.83, -211.16 89.0, -208.98 89.17, -206.81 89.33, -204.65 89.5, -202.49 89.67, -200.34 89.83, -198.19 90.0, -196.06 90.17, -193.93 90.33, -191.8 90.5, -189.69 90.67, -187.58 90.83, -185.48 91.0, -183.38 91.17, -181.29 91.33, -179.21 91.5, -177.14 91.67, -175.07 91.83, -173.01 92.0, -170.95 92.17, -168.91 92.33, -166.87 92.5, -164.83 92.67, -162.8 92.83, -160.78 93.0, -158.77 93.17, -156.77 93.33, -154.77 93.5, -152.77 93.67, -150.79 93.83, -148.81 94.0, -146.83 94.17, -144.87 94.33, -142.91 94.5, -140.96 94.67, -139.01 94.83, -137.07 95.0, -135.14 95.17, -133.21 95.33, -131.29 95.5, -129.38 95.67, -127.47 95.83, -125.58 96.0, -123.68 96.17, -121.8 96.33, -119.92 96.5, -118.04 96.67, -116.18 96.83, -114.32 97.0, -112.46 97.17, -110.62 97.33, -108.78 97.5, -106.94 97.67, -105.12 97.83, -103.29 98.0, -101.48 98.17, -99.67 98.33, -97.87 98.5, -96.08 98.67, -94.29 98.83, -92.5 99.0, -90.73 99.17, -88.96 99.33, -87.2 99.5, -85.44 99.67, -83.69 99.83, -81.95 100.0, -80.21 100.17, -78.48 100.33, -76.75 100.5, -75.03 100.67, -73.32 100.83, -71.62 101.0, -69.92 101.17, -68.22 101.33, -66.54 101.5, -64.85 101.67, -63.18 101.83, -61.51 102.0, -59.85 102.17, -58.19 102.33, -56.54 102.5, -54.9 102.67, -53.26 102.83, -51.63 103.0, -50.01 103.17, -48.39 103.33, -46.77 103.5, -45.17 103.67, -43.57 103.83, -41.97 104.0, -40.38 104.17, -38.8 104.33, -37.23 104.5, -35.66 104.67, -34.09 104.83, -32.53 105.0, -30.98 105.17, -29.44 105.33, -27.9 105.5, -26.36 105.67, -24.83 105.83, -23.31 106.0, -21.79 106.17, -20.28 106.33, -18.78 106.5, -17.28 106.67, -15.79 106.83, -14.3 107.0, -12.82 107.17, -11.35 107.33, -9.88 107.5, -8.42 107.67, -6.96 107.83, -5.51 108.0, -4.06 108.17, -2.62 108.33, -1.19 108.5, 0.24 108.67, 1.66 108.83, 3.08 109.0, 4.49 109.17, 5.89 109.33, 7.29 109.5, 8.68 109.67, 10.07 109.83, 11.45 110.0, 12.83 110.17, 14.2 110.33, 15.56 110.5, 16.92 110.67, 18.28 110.83, 19.62 111.0, 20.96 111.17, 22.3 111.33, 23.63 111.5, 24.96 111.67, 26.28 111.83, 27.59 112.0, 28.9 112.17, 30.2 112.33, 31.5 112.5, 32.79 112.67, 34.08 112.83, 35.36 113.0, 36.63 113.17, 37.9 113.33, 39.17 113.5, 40.42 113.67, 41.68 113.83, 42.92 114.0, 44.17 114.17, 45.4 114.33, 46.63 114.5, 47.86 114.67, 49.08 114.83, 50.3 115.0, 51.5 115.17, 52.71 115.33, 53.91 115.5, 55.1 115.67, 56.29 115.83, 57.47 116.0, 58.65 116.17, 59.82 116.33, 60.99 116.5, 62.15 116.67, 63.31 116.83, 64.46 117.0, 65.6 117.17, 66.74 117.33, 67.88 117.5, 69.01 117.67, 70.13 117.83, 71.25 118.0, 72.37 118.17, 73.47 118.33, 74.58 118.5, 75.68 118.67, 76.77 118.83, 77.86 119.0, 78.94 119.17, 80.02 119.33, 81.09 119.5, 82.16 119.67, 83.22 119.83, 84.28 120.0, 85.33 120.17, 86.38 120.33, 87.42 120.5, 88.46 120.67, 89.49 120.83, 90.52 121.0, 91.54 121.17, 92.56 121.33, 93.57 121.5, 94.58 121.67, 95.58 121.83, 96.58 122.0, 97.57 122.17, 98.56 122.33, 99.54 122.5, 100.52 122.67, 101.49 122.83, 102.46 123.0, 103.42 123.17, 104.38 123.33, 105.33 123.5, 106.28 123.67, 107.23 123.83, 108.16 124.0, 109.1 124.17, 110.03 124.33, 110.95 124.5, 111.87 124.67, 112.78 124.83, 113.69 125.0, 114.6 125.17, 115.5 125.33, 116.4 125.5, 117.29 125.67, 118.17 125.83, 119.05 126.0, 119.93 126.17, 120.8 126.33, 121.67 126.5, 122.53 126.67, 123.39 126.83, 124.24 127.0, 125.09 127.17, 125.94 127.33, 126.78 127.5, 127.61 127.67, 128.44 127.83, 129.27 128.0, 130.09 128.17, 130.9 128.33, 131.72 128.5, 132.52 128.67, 133.33 128.83, 134.13 129.0, 134.92 129.17, 135.71 129.33, 136.49 129.5, 137.27 129.67, 138.05 129.83, 138.82 130.0, 139.59 130.17, 140.35 130.33, 141.11 130.5, 141.86 130.67, 142.61 130.83, 143.36 131.0, 144.1 131.17, 144.83 131.33, 145.57 131.5, 146.29 131.67, 147.02 131.83, 147.74 132.0, 148.45 132.17, 149.16 132.33, 149.87 132.5, 150.57 132.67, 151.27 132.83, 151.96 133.0, 152.65 133.17, 153.33 133.33, 154.01 133.5, 154.69 133.67, 155.36 133.83, 156.03 134.0, 156.69 134.17, 157.35 134.33, 158.01 134.5, 158.66 134.67, 159.3 134.83, 159.95 135.0, 160.59 135.17, 161.22 135.33, 161.85 135.5, 162.48 135.67, 163.1 135.83, 163.72 136.0, 164.33 136.17, 164.94 136.33, 165.55 136.5, 166.15 136.67, 166.75 136.83, 167.34 137.0, 167.93 137.17, 168.52 137.33, 169.1 137.5, 169.68 137.67, 170.25 137.83, 170.82 138.0, 171.39 138.17, 171.95 138.33, 172.51 138.5, 173.06 138.67, 173.61 138.83, 174.16 139.0, 174.7 139.17, 175.24 139.33, 175.77 139.5, 176.3 139.67, 176.83 139.83, 177.36 140.0, 177.88 140.17, 178.39 140.33, 178.9 140.5, 179.41 140.67, 179.92 140.83, 180.42 141.0, 180.91 141.17, 181.41 141.33, 181.9 141.5, 182.38 141.67, 182.86 141.83, 183.34 142.0, 183.82 142.17, 184.29 142.33, 184.76 142.5, 185.22 142.67, 185.68 142.83, 186.14 143.0, 186.59 143.17, 187.04 143.33, 187.48 143.5, 187.92 143.67, 188.36 143.83, 188.8 144.0, 189.23 144.17, 189.66 144.33, 190.08 144.5, 190.5 144.67, 190.92 144.83, 191.33 145.0, 191.74 145.17, 192.15 145.33, 192.55 145.5, 192.95 145.67, 193.35 145.83, 193.74 146.0, 194.13 146.17, 194.52 146.33, 194.9 146.5, 195.28 146.67, 195.65 146.83, 196.03 147.0, 196.4 147.17, 196.76 147.33, 197.12 147.5, 197.48 147.67, 197.84 147.83, 198.19 148.0, 198.54 148.17, 198.89 148.33, 199.23 148.5, 199.57 148.67, 199.9 148.83, 200.24 149.0, 200.56 149.17, 200.89 149.33, 201.21 149.5, 201.53 149.67, 201.85 149.83, 202.16 150.0, 202.47 150.17, 202.78 150.33, 203.08 150.5, 203.39 150.67, 203.68 150.83, 203.98 151.0, 204.27 151.17, 204.56 151.33, 204.84 151.5, 205.12 151.67, 205.4 151.83, 205.68 152.0, 205.95 152.17, 206.22 152.33, 206.49 152.5, 206.75 152.67, 207.01 152.83, 207.27 153.0, 207.53 153.17, 207.78 153.33, 208.03 153.5, 208.27 153.67, 208.52 153.83, 208.75 154.0, 208.99 154.17, 209.23 154.33, 209.46 154.5, 209.69 154.67, 209.91 154.83, 210.13 155.0, 210.35 155.17, 210.57 155.33, 210.78 155.5, 211.0 155.67, 211.2 155.83, 211.41 156.0, 211.61 156.17, 211.81 156.33, 212.01 156.5, 212.2 156.67, 212.4 156.83, 212.58 157.0, 212.77 157.17, 212.95 157.33, 213.14 157.5, 213.31 157.67, 213.49 157.83, 213.66 158.0, 213.83 158.17, 214.0 158.33, 214.16 158.5, 214.33 158.67, 214.48 158.83, 214.64 159.0, 214.8 159.17, 214.95 159.33, 215.1 159.5, 215.24 159.67, 215.39 159.83, 215.53 160.0, 215.67 160.17, 215.8 160.33, 215.94 160.5, 216.07 160.67, 216.2 160.83, 216.32 161.0, 216.45 161.17, 216.57 161.33, 216.69 161.5, 216.8 161.67, 216.92 161.83, 217.03 162.0, 217.14 162.17, 217.24 162.33, 217.35 162.5, 217.45 162.67, 217.55 162.83, 217.65 163.0, 217.74 163.17, 217.83 163.33, 217.92 163.5, 218.01 163.67, 218.1 163.83, 218.18 164.0, 218.26 164.17, 218.34 164.33, 218.42 164.5, 218.49 164.67, 218.56 164.83, 218.63 165.0, 218.7 165.17, 218.76 165.33, 218.83 165.5, 218.89 165.67, 218.95 165.83, 219.0 166.0, 219.06 166.17, 219.11 166.33, 219.16 166.5, 219.21 166.67, 219.25 166.83, 219.3 167.0, 219.34 167.17, 219.38 167.33, 219.41 167.5, 219.45 167.67, 219.48 167.83, 219.51 168.0, 219.54 168.17, 219.57 168.33, 219.59 168.5, 219.62 168.67, 219.64 168.83, 219.66 169.0, 219.67 169.17, 219.69 169.33, 219.7 169.5, 219.71 169.67, 219.72 169.83, 219.73 170.0, 219.73 170.17, 219.74 170.33, 219.74 170.5, 219.74 170.67, 219.74 170.83, 219.73 171.0, 219.73 171.17, 219.72 171.33, 219.71 171.5, 219.7 171.67, 219.69 171.83, 219.67 172.0, 219.65 172.17, 219.64 172.33, 219.61 172.5, 219.59 172.67, 219.57 172.83, 219.54 173.0, 219.52 173.17, 219.49 173.33, 219.46 173.5, 219.42 173.67, 219.39 173.83, 219.35 174.0, 219.32 174.17, 219.28 174.33, 219.24 174.5, 219.2 174.67, 219.15 174.83, 219.11 175.0, 219.06 175.17, 219.01 175.33, 218.96 175.5, 218.91 175.67, 218.86 175.83, 218.8 176.0, 218.74 176.17, 218.69 176.33, 218.63 176.5, 218.57 176.67, 218.5 176.83, 218.44 177.0, 218.37 177.17, 218.31 177.33, 218.24 177.5, 218.17 177.67, 218.1 177.83, 218.03 178.0, 217.95 178.17, 217.88 178.33, 217.8 178.5, 217.72 178.67, 217.64 178.83, 217.56 179.0, 217.48 179.17, 217.4 179.33, 217.31 179.5, 217.22 179.67, 217.14 179.83, 217.05 180.0, 216.96 180.17, 216.87 180.33, 216.77 180.5, 216.68 180.67, 216.59 180.83, 216.49 181.0, 216.39 181.17, 216.29 181.33, 216.19 181.5, 216.09 181.67, 215.99 181.83, 215.89 182.0, 215.78 182.17, 215.68 182.33, 215.57 182.5, 215.46 182.67, 215.35 182.83, 215.24 183.0, 215.13 183.17, 215.02 183.33, 214.91 183.5, 214.79 183.67, 214.68 183.83, 214.56 184.0, 214.44 184.17, 214.32 184.33, 214.2 184.5, 214.08 184.67, 213.96 184.83, 213.84 185.0, 213.72 185.17, 213.59 185.33, 213.47 185.5, 213.34 185.67, 213.21 185.83, 213.09 186.0, 212.96 186.17, 212.83 186.33, 212.7 186.5, 212.56 186.67, 212.43 186.83, 212.3 187.0, 212.16 187.17, 212.03 187.33, 211.89 187.5, 211.76 187.67, 211.62 187.83, 211.48 188.0, 211.34 188.17, 211.2 188.33, 211.06 188.5, 210.92 188.67, 210.78 188.83, 210.64 189.0, 210.49 189.17, 210.35 189.33, 210.21 189.5, 210.06 189.67, 209.91 189.83, 209.77 190.0, 209.62 190.17, 209.47 190.33, 209.32 190.5, 209.17 190.67, 209.02 190.83, 208.87 191.0, 208.72 191.17, 208.57 191.33, 208.42 191.5, 208.27 191.67, 208.11 191.83, 207.96 192.0, 207.81 192.17, 207.65 192.33, 207.5 192.5, 207.34 192.67, 207.18 192.83, 207.03 193.0, 206.87 193.17, 206.71 193.33, 206.55 193.5, 206.4 193.67, 206.24 193.83, 206.08 194.0, 205.92 194.17, 205.76 194.33, 205.6 194.5, 205.44 194.67, 205.28 194.83, 205.11 195.0, 204.95 195.17, 204.79 195.33, 204.63 195.5, 204.47 195.67, 204.3 195.83, 204.14 196.0, 203.98 196.17, 203.81 196.33, 203.65 196.5, 203.48 196.67, 203.32 196.83, 203.15 197.0, 202.99 197.17, 202.82 197.33, 202.66 197.5, 202.49 197.67, 202.33 197.83, 202.16 198.0, 202.0 198.17, 201.83 198.33, 201.66 198.5, 201.5 198.67, 201.33 198.83, 201.17 199.0, 201.0 199.17, 200.83 199.33, 200.67 199.5, 200.5 199.67, 200.33 199.83, 200.17 200.0, 200.0 200.17, 199.83 200.33, 199.67 200.5, 199.5 200.67, 199.33 200.83, 199.17 201.0, 199.0 201.17, 198.83 201.33, 198.67 201.5, 198.5 201.67, 198.34 201.83, 198.17 202.0, 198.0 202.17, 197.84 202.33, 197.67 202.5, 197.51 202.67, 197.34 202.83, 197.18 203.0, 197.01 203.17, 196.85 203.33, 196.68 203.5, 196.52 203.67, 196.35 203.83, 196.19 204.0, 196.02 204.17, 195.86 204.33, 195.7 204.5, 195.53 204.67, 195.37 204.83, 195.21 205.0, 195.05 205.17, 194.89 205.33, 194.72 205.5, 194.56 205.67, 194.4 205.83, 194.24 206.0, 194.08 206.17, 193.92 206.33, 193.76 206.5, 193.6 206.67, 193.45 206.83, 193.29 207.0, 193.13 207.17, 192.97 207.33, 192.82 207.5, 192.66 207.67, 192.5 207.83, 192.35 208.0, 192.19 208.17, 192.04 208.33, 191.89 208.5, 191.73 208.67, 191.58 208.83, 191.43 209.0, 191.28 209.17, 191.13 209.33, 190.98 209.5, 190.83 209.67, 190.68 209.83, 190.53 210.0, 190.38 210.17, 190.23 210.33, 190.09 210.5, 189.94 210.67, 189.79 210.83, 189.65 211.0, 189.51 211.17, 189.36 211.33, 189.22 211.5, 189.08 211.67, 188.94 211.83, 188.8 212.0, 188.66 212.17, 188.52 212.33, 188.38 212.5, 188.24 212.67, 188.11 212.83, 187.97 213.0, 187.84 213.17, 187.7 213.33, 187.57 213.5, 187.44 213.67, 187.3 213.83, 187.17 214.0, 187.04 214.17, 186.91 214.33, 186.79 214.5, 186.66 214.67, 186.53 214.83, 186.41 215.0, 186.28 215.17, 186.16 215.33, 186.04 215.5, 185.92 215.67, 185.8 215.83, 185.68 216.0, 185.56 216.17, 185.44 216.33, 185.32 216.5, 185.21 216.67, 185.09 216.83, 184.98 217.0, 184.87 217.17, 184.76 217.33, 184.65 217.5, 184.54 217.67, 184.43 217.83, 184.32 218.0, 184.22 218.17, 184.11 218.33, 184.01 218.5, 183.91 218.67, 183.81 218.83, 183.71 219.0, 183.61 219.17, 183.51 219.33, 183.41 219.5, 183.32 219.67, 183.23 219.83, 183.13 220.0, 183.04 220.17, 182.95 220.33, 182.86 220.5, 182.78 220.67, 182.69 220.83, 182.6 221.0, 182.52 221.17, 182.44 221.33, 182.36 221.5, 182.28 221.67, 182.2 221.83, 182.12 222.0, 182.05 222.17, 181.97 222.33, 181.9 222.5, 181.83 222.67, 181.76 222.83, 181.69 223.0, 181.63 223.17, 181.56 223.33, 181.5 223.5, 181.43 223.67, 181.37 223.83, 181.31 224.0, 181.26 224.17, 181.2 224.33, 181.14 224.5, 181.09 224.67, 181.04 224.83, 180.99 225.0, 180.94 225.17, 180.89 225.33, 180.85 225.5, 180.8 225.67, 180.76 225.83, 180.72 226.0, 180.68 226.17, 180.65 226.33, 180.61 226.5, 180.58 226.67, 180.54 226.83, 180.51 227.0, 180.48 227.17, 180.46 227.33, 180.43 227.5, 180.41 227.67, 180.39 227.83, 180.36 228.0, 180.35 228.17, 180.33 228.33, 180.31 228.5, 180.3 228.67, 180.29 228.83, 180.28 229.0, 180.27 229.17, 180.27 229.33, 180.26 229.5, 180.26 229.67, 180.26 229.83, 180.26 230.0, 180.27 230.17, 180.27 230.33, 180.28 230.5, 180.29 230.67, 180.3 230.83, 180.31 231.0, 180.33 231.17, 180.34 231.33, 180.36 231.5, 180.38 231.67, 180.41 231.83, 180.43 232.0, 180.46 232.17, 180.49 232.33, 180.52 232.5, 180.55 232.67, 180.59 232.83, 180.62 233.0, 180.66 233.17, 180.7 233.33, 180.75 233.5, 180.79 233.67, 180.84 233.83, 180.89 234.0, 180.94 234.17, 181.0 234.33, 181.05 234.5, 181.11 234.67, 181.17 234.83, 181.24 235.0, 181.3 235.17, 181.37 235.33, 181.44 235.5, 181.51 235.67, 181.58 235.83, 181.66 236.0, 181.74 236.17, 181.82 236.33, 181.9 236.5, 181.99 236.67, 182.08 236.83, 182.17 237.0, 182.26 237.17, 182.35 237.33, 182.45 237.5, 182.55 237.67, 182.65 237.83, 182.76 238.0, 182.86 238.17, 182.97 238.33, 183.08 238.5, 183.2 238.67, 183.31 238.83, 183.43 239.0, 183.55 239.17, 183.68 239.33, 183.8 239.5, 183.93 239.67, 184.06 239.83, 184.2 240.0, 184.33 240.17, 184.47 240.33, 184.61 240.5, 184.76 240.67, 184.9 240.83, 185.05 241.0, 185.2 241.17, 185.36 241.33, 185.52 241.5, 185.67 241.67, 185.84 241.83, 186.0 242.0, 186.17 242.17, 186.34 242.33, 186.51 242.5, 186.69 242.67, 186.86 242.83, 187.05 243.0, 187.23 243.17, 187.42 243.33, 187.6 243.5, 187.8 243.67, 187.99 243.83, 188.19 244.0, 188.39 244.17, 188.59 244.33, 188.8 244.5, 189.0 244.67, 189.22 244.83, 189.43 245.0, 189.65 245.17, 189.87 245.33, 190.09 245.5, 190.31 245.67, 190.54 245.83, 190.77 246.0, 191.01 246.17, 191.25 246.33, 191.48 246.5, 191.73 246.67, 191.97 246.83, 192.22 247.0, 192.47 247.17, 192.73 247.33, 192.99 247.5, 193.25 247.67, 193.51 247.83, 193.78 248.0, 194.05 248.17, 194.32 248.33, 194.6 248.5, 194.88 248.67, 195.16 248.83, 195.44 249.0, 195.73 249.17, 196.02 249.33, 196.32 249.5, 196.61 249.67, 196.92 249.83, 197.22 250.0, 197.53 250.17, 197.84 250.33, 198.15 250.5, 198.47 250.67, 198.79 250.83, 199.11 251.0, 199.44 251.17, 199.76 251.33, 200.1 251.5, 200.43 251.67, 200.77 251.83, 201.11 252.0, 201.46 252.17, 201.81 252.33, 202.16 252.5, 202.52 252.67, 202.88 252.83, 203.24 253.0, 203.6 253.17, 203.97 253.33, 204.35 253.5, 204.72 253.67, 205.1 253.83, 205.48 254.0, 205.87 254.17, 206.26 254.33, 206.65 254.5, 207.05 254.67, 207.45 254.83, 207.85 255.0, 208.26 255.17, 208.67 255.33, 209.08 255.5, 209.5 255.67, 209.92 255.83, 210.34 256.0, 210.77 256.17, 211.2 256.33, 211.64 256.5, 212.08 256.67, 212.52 256.83, 212.96 257.0, 213.41 257.17, 213.86 257.33, 214.32 257.5, 214.78 257.67, 215.24 257.83, 215.71 258.0, 216.18 258.17, 216.66 258.33, 217.14 258.5, 217.62 258.67, 218.1 258.83, 218.59 259.0, 219.09 259.17, 219.58 259.33, 220.08 259.5, 220.59 259.67, 221.1 259.83, 221.61 260.0, 222.12 260.17, 222.64 260.33, 223.17 260.5, 223.7 260.67, 224.23 260.83, 224.76 261.0, 225.3 261.17, 225.84 261.33, 226.39 261.5, 226.94 261.67, 227.49 261.83, 228.05 262.0, 228.61 262.17, 229.18 262.33, 229.75 262.5, 230.32 262.67, 230.9 262.83, 231.48 263.0, 232.07 263.17, 232.66 263.33, 233.25 263.5, 233.85 263.67, 234.45 263.83, 235.06 264.0, 235.67 264.17, 236.28 264.33, 236.9 264.5, 237.52 264.67, 238.15 264.83, 238.78 265.0, 239.41 265.17, 240.05 265.33, 240.7 265.5, 241.34 265.67, 241.99 265.83, 242.65 266.0, 243.31 266.17, 243.97 266.33, 244.64 266.5, 245.31 266.67, 245.99 266.83, 246.67 267.0, 247.35 267.17, 248.04 267.33, 248.73 267.5, 249.43 267.67, 250.13 267.83, 250.84 268.0, 251.55 268.17, 252.26 268.33, 252.98 268.5, 253.71 268.67, 254.43 268.83, 255.17 269.0, 255.9 269.17, 256.64 269.33, 257.39 269.5, 258.14 269.67, 258.89 269.83, 259.65 270.0, 260.41 270.17, 261.18 270.33, 261.95 270.5, 262.73 270.67, 263.51 270.83, 264.29 271.0, 265.08 271.17, 265.87 271.33, 266.67 271.5, 267.48 271.67, 268.28 271.83, 269.1 272.0, 269.91 272.17, 270.73 272.33, 271.56 272.5, 272.39 272.67, 273.22 272.83, 274.06 273.0, 274.91 273.17, 275.76 273.33, 276.61 273.5, 277.47 273.67, 278.33 273.83, 279.2 274.0, 280.07 274.17, 280.95 274.33, 281.83 274.5, 282.71 274.67, 283.6 274.83, 284.5 275.0, 285.4 275.17, 286.31 275.33, 287.22 275.5, 288.13 275.67, 289.05 275.83, 289.97 276.0, 290.9 276.17, 291.84 276.33, 292.77 276.5, 293.72 276.67, 294.67 276.83, 295.62 277.0, 296.58 277.17, 297.54 277.33, 298.51 277.5, 299.48 277.67, 300.46 277.83, 301.44 278.0, 302.43 278.17, 303.42 278.33, 304.42 278.5, 305.42 278.67, 306.43 278.83, 307.44 279.0, 308.46 279.17, 309.48 279.33, 310.51 279.5, 311.54 279.67, 312.58 279.83, 313.62 280.0, 314.67 280.17, 315.72 280.33, 316.78 280.5, 317.84 280.67, 318.91 280.83, 319.98 281.0, 321.06 281.17, 322.14 281.33, 323.23 281.5, 324.32 281.67, 325.42 281.83, 326.53 282.0, 327.63 282.17, 328.75 282.33, 329.87 282.5, 330.99 282.67, 332.12 282.83, 333.26 283.0, 334.4 283.17, 335.54 283.33, 336.69 283.5, 337.85 283.67, 339.01 283.83, 340.18 284.0, 341.35 284.17, 342.53 284.33, 343.71 284.5, 344.9 284.67, 346.09 284.83, 347.29 285.0, 348.5 285.17, 349.7 285.33, 350.92 285.5, 352.14 285.67, 353.37 285.83, 354.6 286.0, 355.83 286.17, 357.08 286.33, 358.32 286.5, 359.58 286.67, 360.83 286.83, 362.1 287.0, 363.37 287.17, 364.64 287.33, 365.92 287.5, 367.21 287.67, 368.5 287.83, 369.8 288.0, 371.1 288.17, 372.41 288.33, 373.72 288.5, 375.04 288.67, 376.37 288.83, 377.7 289.0, 379.04 289.17, 380.38 289.33, 381.72 289.5, 383.08 289.67, 384.44 289.83, 385.8 290.0, 387.17 290.17, 388.55 290.33, 389.93 290.5, 391.32 290.67, 392.71 290.83, 394.11 291.0, 395.51 291.17, 396.92 291.33, 398.34 291.5, 399.76 291.67, 401.19 291.83, 402.62 292.0, 404.06 292.17, 405.51 292.33, 406.96 292.5, 408.42 292.67, 409.88 292.83, 411.35 293.0, 412.82 293.17, 414.3 293.33, 415.79 293.5, 417.28 293.67, 418.78 293.83, 420.28 294.0, 421.79 294.17, 423.31 294.33, 424.83 294.5, 426.36 294.67, 427.9 294.83, 429.44 295.0, 430.98 295.17, 432.53 295.33, 434.09 295.5, 435.66 295.67, 437.23 295.83, 438.8 296.0, 440.38 296.17, 441.97 296.33, 443.57 296.5, 445.17 296.67, 446.77 296.83, 448.39 297.0, 450.01 297.17, 451.63 297.33, 453.26 297.5, 454.9 297.67, 456.54 297.83, 458.19 298.0, 459.85 298.17, 461.51 298.33, 463.18 298.5, 464.85 298.67, 466.54 298.83, 468.22 299.0, 469.92 299.17, 471.62 299.33, 473.32 299.5, 475.03 299.67, 476.75 299.83, 478.48 300.0, 480.21 300.17, 481.95 300.33, 483.69 300.5, 485.44 300.67, 487.2 300.83, 488.96 301.0, 490.73 301.17, 492.5 301.33, 494.29 301.5, 496.08 301.67, 497.87 301.83, 499.67 302.0, 501.48 302.17, 503.29 302.33, 505.12 302.5, 506.94 302.67, 508.78 302.83, 510.62 303.0, 512.46 303.17, 514.32 303.33, 516.18 303.5, 518.04 303.67, 519.92 303.83, 521.8 304.0, 523.68 304.17, 525.58 304.33, 527.47 304.5, 529.38 304.67, 531.29 304.83, 533.21 305.0, 535.14 305.17, 537.07 305.33, 539.01 305.5, 540.96 305.67, 542.91 305.83, 544.87 306.0, 546.83 306.17, 548.81 306.33, 550.79 306.5, 552.77 306.67, 554.77 306.83, 556.77 307.0, 558.77 307.17, 560.78 307.33, 562.8 307.5, 564.83 307.67, 566.87 307.83, 568.91 308.0, 570.95 308.17, 573.01 308.33, 575.07 308.5, 577.14 308.67, 579.21 308.83, 581.29 309.0, 583.38 309.17, 585.48 309.33, 587.58 309.5, 589.69 309.67, 591.8 309.83, 593.93 310.0, 596.06 310.17, 598.19 310.33, 600.34 310.5, 602.49 310.67, 604.65 310.83, 606.81 311.0, 608.98 311.17, 611.16 311.33, 613.35 311.5, 615.54 311.67, 617.74 311.83, 619.95 312.0, 622.17 312.17, 624.39 312.33, 626.62 312.5, 628.85 312.67, 631.09 312.83, 633.34 313.0, 635.6 313.17, 637.87 313.33, 640.14 313.5, 642.42 313.67, 644.7 313.83, 647.0 314.0, 649.3 314.17, 651.6 314.33, 653.92 314.5, 656.24 314.67, 658.57 314.83, 660.91 315.0, 663.25 315.17, 665.6 315.33, 667.96 315.5, 670.32 315.67, 672.7 315.83, 675.08 316.0, 677.47 316.17, 679.86 316.33, 682.26 316.5, 684.67 316.67, 687.09 316.83, 689.51 317.0, 691.95 317.17, 694.39 317.33, 696.83 317.5, 699.29 317.67, 701.75 317.83, 704.22 318.0, 706.69 318.17, 709.18 318.33, 711.67 318.5, 714.17 318.67, 716.68 318.83, 719.19 319.0, 721.71 319.17, 724.24 319.33, 726.78 319.5, 729.32 319.67, 731.87 319.83, 734.43 320.0, 737.0 320.17, 739.57 320.33, 742.16 320.5, 744.75 320.67, 747.34 320.83, 749.95 321.0, 752.56 321.17, 755.18 321.33, 757.81 321.5, 760.45 321.67, 763.09 321.83, 765.74 322.0, 768.4 322.17, 771.07 322.33, 773.74 322.5, 776.42 322.67, 779.11 322.83, 781.81 323.0, 784.52 323.17, 787.23 323.33, 789.95 323.5, 792.68 323.67, 795.42 323.83, 798.16 324.0, 800.91 324.17, 803.67 324.33, 806.44 324.5, 809.22 324.67, 812.0 324.83, 814.79 325.0, 817.59 325.17, 820.4 325.33, 823.22 325.5, 826.04 325.67, 828.87 325.83, 831.71 326.0, 834.56 326.17, 837.42 326.33, 840.28 326.5, 843.15 326.67, 846.03 326.83, 848.92 327.0, 851.81 327.17, 854.72 327.33, 857.63 327.5, 860.55 327.67, 863.47 327.83, 866.41 328.0, 869.35 328.17, 872.31 328.33, 875.27 328.5, 878.24 328.67, 881.21 328.83, 884.2 329.0, 887.19 329.17, 890.19 329.33, 893.2 329.5, 896.22 329.67, 899.24 329.83, 902.28 330.0, 905.32 330.17, 908.37 330.33, 911.43 330.5, 914.49 330.67, 917.57 330.83, 920.65 331.0, 923.74 331.17, 926.84 331.33, 929.95 331.5, 933.07 331.67, 936.19 331.83, 939.33 332.0, 942.47 332.17, 945.62 332.33, 948.78 332.5, 951.94 332.67, 955.12 332.83, 958.3 333.0, 961.49 333.17, 964.69 333.33, 967.9 333.5, 971.12 333.67, 974.34 333.83, 977.58 334.0, 980.82 334.17, 984.07 334.33, 987.33 334.5, 990.6 334.67, 993.88 334.83, 997.16 335.0, 1000.46 335.17, 1003.76 335.33, 1007.07 335.5, 1010.39 335.67, 1013.72 335.83, 1017.05 336.0, 1020.4 336.17, 1023.75 336.33, 1027.11 336.5, 1030.48 336.67, 1033.86 336.83, 1037.25 337.0, 1040.65 337.17, 1044.06 337.33, 1047.47 337.5, 1050.89 337.67, 1054.32 337.83, 1057.77 338.0, 1061.21 338.17, 1064.67 338.33, 1068.14 338.5, 1071.62 338.67, 1075.1 338.83, 1078.59 339.0, 1082.09 339.17, 1085.61 339.33, 1089.13 339.5, 1092.65 339.67, 1096.19 339.83, 1099.74 340.0, 1103.29 340.17, 1106.86 340.33, 1110.43 340.5, 1114.01 340.67, 1117.6 340.83, 1121.2 341.0, 1124.81 341.17, 1128.43 341.33, 1132.05 341.5, 1135.69 341.67, 1139.33 341.83, 1142.98 342.0, 1146.65 342.17, 1150.32 342.33, 1154.0 342.5, 1157.69 342.67, 1161.38 342.83, 1165.09 343.0, 1168.81 343.17, 1172.53 343.33, 1176.27 343.5, 1180.01 343.67, 1183.76 343.83, 1187.53 344.0, 1191.3 344.17, 1195.08 344.33, 1198.86 344.5, 1202.66 344.67, 1206.47 344.83, 1210.29 345.0, 1214.11 345.17, 1217.95 345.33, 1221.79 345.5, 1225.64 345.67, 1229.51 345.83, 1233.38 346.0, 1237.26 346.17, 1241.15 346.33, 1245.05 346.5, 1248.96 346.67, 1252.88 346.83, 1256.8 347.0, 1260.74 347.17, 1264.69 347.33, 1268.64 347.5, 1272.61 347.67, 1276.58 347.83, 1280.56 348.0, 1284.56 348.17, 1288.56 348.33, 1292.57 348.5, 1296.59 348.67, 1300.62 348.83, 1304.66 349.0, 1308.71 349.17, 1312.77 349.33, 1316.84 349.5, 1320.91 349.67, 1325.0 349.83, 1329.1 350.0, 1333.2 350.17, 1337.32 350.33, 1341.44 350.5, 1345.58 350.67, 1349.72 350.83, 1353.88 351.0, 1358.04 351.17, 1362.21 351.33, 1366.39 351.5, 1370.59 351.67, 1374.79 351.83, 1379.0 352.0, 1383.22 352.17, 1387.45 352.33, 1391.69 352.5, 1395.94 352.67, 1400.2 352.83, 1404.47 353.0, 1408.75 353.17, 1413.03 353.33, 1417.33 353.5, 1421.64 353.67, 1425.96 353.83, 1430.28 354.0, 1434.62 354.17, 1438.97 354.33, 1443.32 354.5, 1447.69 354.67, 1452.07 354.83, 1456.45 355.0, 1460.85 355.17, 1465.25 355.33, 1469.67 355.5, 1474.09 355.67, 1478.53 355.83, 1482.97 356.0, 1487.43 356.17, 1491.89 356.33, 1496.37 356.5, 1500.85 356.67, 1505.35 356.83, 1509.85 357.0, 1514.37 357.17, 1518.89 357.33, 1523.42 357.5, 1527.97 357.67, 1532.52 357.83, 1537.09 358.0, 1541.66 358.17, 1546.24 358.33, 1550.84 358.5, 1555.44 358.67, 1560.06 358.83, 1564.68 359.0, 1569.32 359.17, 1573.96 359.33, 1578.61 359.5, 1583.28 359.67, 1587.95 359.83, 1592.64 360.0, 1597.33 360.17, 1602.04 360.33, 1606.75 360.5, 1611.48 360.67, 1616.21 360.83, 1620.96 361.0, 1625.72 361.17, 1630.48 361.33, 1635.26 361.5, 1640.05 361.67, 1644.84 361.83, 1649.65 362.0, 1654.47 362.17, 1659.29 362.33, 1664.13 362.5, 1668.98 362.67, 1673.84 362.83, 1678.71 363.0, 1683.59 363.17, 1688.48 363.33, 1693.38 363.5, 1698.29 363.67, 1703.21 363.83, 1708.14 364.0, 1713.08 364.17, 1718.03 364.33, 1722.99 364.5, 1727.96 364.67, 1732.95 364.83, 1737.94 365.0, 1742.94 365.17, 1747.96 365.33, 1752.98 365.5, 1758.02 365.67, 1763.06 365.83, 1768.12 366.0, 1773.19 366.17, 1778.26 366.33, 1783.35 366.5, 1788.45 366.67, 1793.56 366.83, 1798.68 367.0, 1803.81 367.17, 1808.95 367.33, 1814.1 367.5, 1819.26 367.67, 1824.43 367.83, 1829.61 368.0, 1834.81 368.17, 1840.01 368.33, 1845.23 368.5, 1850.45 368.67, 1855.69 368.83, 1860.94 369.0, 1866.19 369.17, 1871.46 369.33, 1876.74 369.5, 1882.03 369.67, 1887.33 369.83, 1892.64 370.0, 1897.96 370.17, 1903.3 370.33, 1908.64 370.5, 1913.99 370.67, 1919.36 370.83, 1924.74 371.0, 1930.12 371.17, 1935.52 371.33, 1940.93 371.5, 1946.35 371.67, 1951.78 371.83, 1957.22 372.0, 1962.67 372.17, 1968.13 372.33, 1973.61 372.5, 1979.09 372.67, 1984.59 372.83, 1990.09 373.0, 1995.61 373.17, 2001.14 373.33, 2006.68 373.5, 2012.23 373.67, 2017.79 373.83, 2023.36 374.0, 2028.95 374.17, 2034.54 374.33, 2040.15 374.5, 2045.76 374.67, 2051.39 374.83, 2057.03 375.0, 2062.68 375.17, 2068.34 375.33, 2074.01 375.5, 2079.69 375.67, 2085.39 375.83, 2091.09 376.0, 2096.81 376.17, 2102.54 376.33, 2108.28 376.5, 2114.03 376.67, 2119.79 376.83, 2125.56 377.0, 2131.34 377.17, 2137.14 377.33, 2142.94 377.5, 2148.76 377.67, 2154.59 377.83, 2160.43 378.0, 2166.28 378.17, 2172.14 378.33, 2178.02 378.5, 2183.9 378.67, 2189.8 378.83, 2195.7 379.0, 2201.62 379.17, 2207.55 379.33, 2213.5 379.5, 2219.45 379.67, 2225.41 379.83, 2231.39 380.0, 2237.38 380.17, 2243.37 380.33, 2249.38 380.5, 2255.4 380.67, 2261.44 380.83, 2267.48 381.0, 2273.54 381.17, 2279.6 381.33, 2285.68 381.5, 2291.77 381.67, 2297.87 381.83, 2303.99 382.0, 2310.11 382.17, 2316.25 382.33, 2322.4 382.5, 2328.55 382.67, 2334.73 382.83, 2340.91 383.0, 2347.1 383.17, 2353.31 383.33, 2359.52 383.5, 2365.75 383.67, 2371.99 383.83, 2378.25 384.0, 2384.51 384.17, 2390.78 384.33, 2397.07 384.5, 2403.37 384.67, 2409.68 384.83, 2416.0 385.0, 2422.34 385.17, 2428.68 385.33, 2435.04 385.5, 2441.41 385.67, 2447.79 385.83, 2454.18 386.0, 2460.59 386.17, 2467.0 386.33, 2473.43 386.5, 2479.87 386.67, 2486.32 386.83, 2492.78 387.0, 2499.26 387.17, 2505.75 387.33, 2512.25 387.5, 2518.76 387.67, 2525.28 387.83, 2531.81 388.0, 2538.36 388.17, 2544.92 388.33, 2551.49 388.5, 2558.07 388.67, 2564.66 388.83, 2571.27 389.0, 2577.89 389.17, 2584.52 389.33, 2591.16 389.5, 2597.81 389.67, 2604.48 389.83, 2611.16 390.0, 2617.85 390.17, 2624.55 390.33, 2631.27 390.5, 2637.99 390.67, 2644.73 390.83, 2651.48 391.0, 2658.24 391.17, 2665.02 391.33, 2671.8 391.5, 2678.6 391.67, 2685.41 391.83, 2692.24 392.0, 2699.07 392.17, 2705.92 392.33, 2712.78 392.5, 2719.65 392.67, 2726.53 392.83, 2733.43 393.0, 2740.34 393.17, 2747.26 393.33, 2754.19 393.5, 2761.14 393.67, 2768.1 393.83, 2775.07 394.0, 2782.05 394.17, 2789.04 394.33, 2796.05 394.5, 2803.07 394.67, 2810.1 394.83, 2817.14 395.0, 2824.2 395.17, 2831.27 395.33, 2838.35 395.5, 2845.44 395.67, 2852.54 395.83, 2859.66 396.0, 2866.79 396.17, 2873.93 396.33, 2881.09 396.5, 2888.26 396.67, 2895.44 396.83, 2902.63 397.0, 2909.83 397.17, 2917.05 397.33, 2924.28 397.5, 2931.52 397.67, 2938.78 397.83, 2946.05 398.0, 2953.33 398.17, 2960.62 398.33, 2967.92 398.5, 2975.24 398.67, 2982.57 398.83, 2989.91 399.0, 2997.27 399.17, 3004.64 399.33, 3012.02 399.5, 3019.41 399.67, 3026.82 399.83, 3034.24 400.0, 3041.67 " fill="none" stroke="white" stroke-width="1.5" stroke-linejoin="round" stroke-opacity="1"/>

 </svg>