<svg version="1.1" 
 baseProfile="full" 
 width="400" 
 height="400" 
 xmlns="http://www.w3.org/2000/svg">
<rect x="0.0" y="0.0" width="400" height="400" fill="black" stroke="black" stroke-width="0" opacity="1"/>
<line x1="0.0" y1="0.0" x2="0.0" y2="400.0" stroke="white" stroke-width="1" opacity="0.4" stroke-linecap="butt"/>
<line x1="40.0" y1="0.0" x2="40.0" y2="400.0" stroke="white" stroke-width="1" opacity="0.4" stroke-linecap="butt"/>
<line x1="80.0" y1="0.0" x2="80.0" y2="400.0" stroke="white" stroke-width="1" opacity="0.4" stroke-linecap="butt"/>
<line x1="120.0" y1="0.0" x2="120.0" y2="400.0" stroke="white" stroke-width="1" opacity="0.4" stroke-linecap="butt"/>
<line x1="160.0" y1="0.0" x2="160.0" y2="400.0" stroke="white" stroke-width="1" opacity="0.4" stroke-linecap="butt"/>
<line x1="200.0" y1="0.0" x2="200.0" y2="400.0" stroke="white" stroke-width="1" opacity="0.4" stroke-linecap="butt"/>
<line x1="240.0" y1="0.0" x2="240.0" y2="400.0" stroke="white" stroke-width="1" opacity="0.4" stroke-linecap="butt"/>
<line x1="280.0" y1="0.0" x2="280.0" y2="400.0" stroke="white" stroke-width="1" opacity="0.4" stroke-linecap="butt"/>
<line x1="320.0" y1="0.0" x2="320.0" y2="400.0" stroke="white" stroke-width="1" opacity="0.4" stroke-linecap="butt"/>
<line x1="360.0" y1="0.0" x2="360.0" y2="400.0" stroke="white" stroke-width="1" opacity="0.4" stroke-linecap="butt"/>
<line x1="0.0" y1="0.0" x2="400.0" y2="0.0" stroke="white" stroke-width="1" opacity="0.4" stroke-linecap="butt"/>
<line x1="0.0" y1="40.0" x2="400.0" y2="40.0" stroke="white" stroke-width="1" opacity="0.4" stroke-linecap="butt"/>
<line x1="0.0" y1="80.0" x2="400.0" y2="80.0" stroke="white" stroke-width="1" opacity="0.4" stroke-linecap="butt"/>
<line x1="0.0" y1="120.0" x2="400.0" y2="120.0" stroke="white" stroke-width="1" opacity="0.4" stroke-linecap="butt"/>
<line x1="0.0" y1="160.0" x2="400.0" y2="160.0" stroke="white" stroke-width="1" opacity="0.4" stroke-linecap="butt"/>
<line x1="0.0" y1="200.0" x2="400.0" y2="200.0" stroke="white" stroke-width="1" opacity="0.4" stroke-linecap="butt"/>
<line x1="0.0" y1="240.0" x2="400.0" y2="240.0" stroke="white" stroke-width="1" opacity="0.4" stroke-linecap="butt"/>
<line x1="0.0" y1="280.0" x2="400.0" y2="280.0" stroke="white" stroke-width="1" opacity="0.4" stroke-linecap="butt"/>
<line x1="0.0" y1="320.0" x2="400.0" y2="320.0" stroke="white" stroke-width="1" opacity="0.4" stroke-linecap="butt"/>
<line x1="0.0" y1="360.0" x2="400.0" y2="360.0" stroke="white" stroke-width="1" opacity="0.4" stroke-linecap="butt"/>
<line x1="0.0" y1="200.0" x2="400.0" y2="200.0" stroke="yellow" stroke-width="2.5" opacity="1" stroke-linecap="butt"/>
<line x1="200.0" y1="0.0" x2="200.0" y2="400.0" stroke="yellow" stroke-width="2.5" opacity="1" stroke-linecap="butt"/>
<polygon points="391.0 204.0, 401.0 200.0, 391.0 196.0, 393.0 200.0" fill="yellow"/><polygon points="204.0 9.0, 200.0 -1.0, 196.0 9.0, 200.0 7.0" fill="yellow"/><image x="-60.0" y="-60.0" width="200" height="200" href="/Users/girirajhira/PycharmProjects/Giraphics3/Taylor/expr.png"/><polyline points="0.0, -1475.0 0.17, -1472.91 0.33, -1470.81 0.5, -1468.7 0.67, -1466.59 0.83, -1464.47 1.0, -1462.35 1.17, -1460.21 1.33, -1458.08 1.5, -1455.93 1.67, -1453.79 1.83, -1451.63 2.0, -1449.47 2.17, -1447.3 2.33, -1445.13 2.5, -1442.95 2.67, -1440.77 2.83, -1438.58 3.0, -1436.38 3.17, -1434.18 3.33, -1431.97 3.5, -1429.76 3.67, -1427.54 3.83, -1425.32 4.0, -1423.09 4.17, -1420.85 4.33, -1418.61 4.5, -1416.37 4.67, -1414.12 4.83, -1411.86 5.0, -1409.6 5.17, -1407.33 5.33, -1405.06 5.5, -1402.78 5.67, -1400.5 5.83, -1398.22 6.0, -1395.92 6.17, -1393.63 6.33, -1391.32 6.5, -1389.02 6.67, -1386.7 6.83, -1384.39 7.0, -1382.07 7.17, -1379.74 7.33, -1377.41 7.5, -1375.07 7.67, -1372.73 7.83, -1370.38 8.0, -1368.03 8.17, -1365.68 8.33, -1363.32 8.5, -1360.96 8.67, -1358.59 8.83, -1356.22 9.0, -1353.84 9.17, -1351.46 9.33, -1349.07 9.5, -1346.68 9.67, -1344.29 9.83, -1341.89 10.0, -1339.49 10.17, -1337.08 10.33, -1334.67 10.5, -1332.25 10.67, -1329.83 10.83, -1327.41 11.0, -1324.98 11.17, -1322.55 11.33, -1320.12 11.5, -1317.68 11.67, -1315.23 11.83, -1312.79 12.0, -1310.34 12.17, -1307.88 12.33, -1305.42 12.5, -1302.96 12.67, -1300.5 12.83, -1298.03 13.0, -1295.55 13.17, -1293.08 13.33, -1290.6 13.5, -1288.12 13.67, -1285.63 13.83, -1283.14 14.0, -1280.64 14.17, -1278.15 14.33, -1275.65 14.5, -1273.14 14.67, -1270.64 14.83, -1268.13 15.0, -1265.61 15.17, -1263.1 15.33, -1260.58 15.5, -1258.05 15.67, -1255.53 15.83, -1253.0 16.0, -1250.47 16.17, -1247.93 16.33, -1245.39 16.5, -1242.85 16.67, -1240.31 16.83, -1237.76 17.0, -1235.21 17.17, -1232.66 17.33, -1230.1 17.5, -1227.55 17.67, -1224.99 17.83, -1222.42 18.0, -1219.86 18.17, -1217.29 18.33, -1214.72 18.5, -1212.14 18.67, -1209.57 18.83, -1206.99 19.0, -1204.41 19.17, -1201.82 19.33, -1199.24 19.5, -1196.65 19.67, -1194.06 19.83, -1191.46 20.0, -1188.87 20.17, -1186.27 20.33, -1183.67 20.5, -1181.07 20.67, -1178.46 20.83, -1175.86 21.0, -1173.25 21.17, -1170.64 21.33, -1168.03 21.5, -1165.41 21.67, -1162.79 21.83, -1160.18 22.0, -1157.55 22.17, -1154.93 22.33, -1152.31 22.5, -1149.68 22.67, -1147.05 22.83, -1144.42 23.0, -1141.79 23.17, -1139.16 23.33, -1136.52 23.5, -1133.89 23.67, -1131.25 23.83, -1128.61 24.0, -1125.96 24.17, -1123.32 24.33, -1120.68 24.5, -1118.03 24.67, -1115.38 24.83, -1112.73 25.0, -1110.08 25.17, -1107.43 25.33, -1104.77 25.5, -1102.12 25.67, -1099.46 25.83, -1096.81 26.0, -1094.15 26.17, -1091.49 26.33, -1088.82 26.5, -1086.16 26.67, -1083.5 26.83, -1080.83 27.0, -1078.17 27.17, -1075.5 27.33, -1072.83 27.5, -1070.16 27.67, -1067.49 27.83, -1064.82 28.0, -1062.15 28.17, -1059.47 28.33, -1056.8 28.5, -1054.12 28.67, -1051.45 28.83, -1048.77 29.0, -1046.09 29.17, -1043.42 29.33, -1040.74 29.5, -1038.06 29.67, -1035.38 29.83, -1032.7 30.0, -1030.01 30.17, -1027.33 30.33, -1024.65 30.5, -1021.96 30.67, -1019.28 30.83, -1016.59 31.0, -1013.91 31.17, -1011.22 31.33, -1008.54 31.5, -1005.85 31.67, -1003.16 31.83, -1000.48 32.0, -997.79 32.17, -995.1 32.33, -992.41 32.5, -989.72 32.67, -987.03 32.83, -984.34 33.0, -981.65 33.17, -978.96 33.33, -976.27 33.5, -973.58 33.67, -970.89 33.83, -968.2 34.0, -965.51 34.17, -962.82 34.33, -960.13 34.5, -957.44 34.67, -954.75 34.83, -952.06 35.0, -949.37 35.17, -946.68 35.33, -943.99 35.5, -941.3 35.67, -938.61 35.83, -935.92 36.0, -933.23 36.17, -930.54 36.33, -927.85 36.5, -925.16 36.67, -922.48 36.83, -919.79 37.0, -917.1 37.17, -914.41 37.33, -911.72 37.5, -909.04 37.67, -906.35 37.83, -903.67 38.0, -900.98 38.17, -898.3 38.33, -895.61 38.5, -892.93 38.67, -890.24 38.83, -887.56 39.0, -884.88 39.17, -882.2 39.33, -879.52 39.5, -876.84 39.67, -874.16 39.83, -871.48 40.0, -868.8 40.17, -866.12 40.33, -863.45 40.5, -860.77 40.67, -858.1 40.83, -855.42 41.0, -852.75 41.17, -850.07 41.33, -847.4 41.5, -844.73 41.67, -842.06 41.83, -839.39 42.0, -836.73 42.17, -834.06 42.33, -831.39 42.5, -828.73 42.67, -826.06 42.83, -823.4 43.0, -820.74 43.17, -818.08 43.33, -815.42 43.5, -812.76 43.67, -810.1 43.83, -807.45 44.0, -804.79 44.17, -802.14 44.33, -799.49 44.5, -796.84 44.67, -794.19 44.83, -791.54 45.0, -788.89 45.17, -786.25 45.33, -783.6 45.5, -780.96 45.67, -778.32 45.83, -775.68 46.0, -773.04 46.17, -770.4 46.33, -767.76 46.5, -765.13 46.67, -762.5 46.83, -759.87 47.0, -757.24 47.17, -754.61 47.33, -751.98 47.5, -749.35 47.67, -746.73 47.83, -744.11 48.0, -741.49 48.17, -738.87 48.33, -736.25 48.5, -733.64 48.67, -731.02 48.83, -728.41 49.0, -725.8 49.17, -723.19 49.33, -720.59 49.5, -717.98 49.67, -715.38 49.83, -712.78 50.0, -710.18 50.17, -707.58 50.33, -704.99 50.5, -702.39 50.67, -699.8 50.83, -697.21 51.0, -694.63 51.17, -692.04 51.33, -689.46 51.5, -686.87 51.67, -684.29 51.83, -681.72 52.0, -679.14 52.17, -676.57 52.33, -674.0 52.5, -671.43 52.67, -668.86 52.83, -666.29 53.0, -663.73 53.17, -661.17 53.33, -658.61 53.5, -656.06 53.67, -653.5 53.83, -650.95 54.0, -648.4 54.17, -645.85 54.33, -643.31 54.5, -640.76 54.67, -638.22 54.83, -635.69 55.0, -633.15 55.17, -630.62 55.33, -628.09 55.5, -625.56 55.67, -623.03 55.83, -620.51 56.0, -617.98 56.17, -615.47 56.33, -612.95 56.5, -610.43 56.67, -607.92 56.83, -605.41 57.0, -602.91 57.17, -600.4 57.33, -597.9 57.5, -595.4 57.67, -592.91 57.83, -590.41 58.0, -587.92 58.17, -585.43 58.33, -582.95 58.5, -580.46 58.67, -577.98 58.83, -575.5 59.0, -573.03 59.17, -570.55 59.33, -568.08 59.5, -565.62 59.67, -563.15 59.83, -560.69 60.0, -558.23 60.17, -555.77 60.33, -553.32 60.5, -550.87 60.67, -548.42 60.83, -545.98 61.0, -543.54 61.17, -541.1 61.33, -538.66 61.5, -536.23 61.67, -533.79 61.83, -531.37 62.0, -528.94 62.17, -526.52 62.33, -524.1 62.5, -521.68 62.67, -519.27 62.83, -516.86 63.0, -514.45 63.17, -512.05 63.33, -509.65 63.5, -507.25 63.67, -504.86 63.83, -502.46 64.0, -500.07 64.17, -497.69 64.33, -495.31 64.5, -492.93 64.67, -490.55 64.83, -488.18 65.0, -485.81 65.17, -483.44 65.33, -481.07 65.5, -478.71 65.67, -476.36 65.83, -474.0 66.0, -471.65 66.17, -469.3 66.33, -466.96 66.5, -464.62 66.67, -462.28 66.83, -459.94 67.0, -457.61 67.17, -455.28 67.33, -452.96 67.5, -450.63 67.67, -448.32 67.83, -446.0 68.0, -443.69 68.17, -441.38 68.33, -439.07 68.5, -436.77 68.67, -434.47 68.83, -432.18 69.0, -429.89 69.17, -427.6 69.33, -425.31 69.5, -423.03 69.67, -420.75 69.83, -418.48 70.0, -416.21 70.17, -413.94 70.33, -411.68 70.5, -409.41 70.67, -407.16 70.83, -404.9 71.0, -402.65 71.17, -400.41 71.33, -398.16 71.5, -395.92 71.67, -393.69 71.83, -391.45 72.0, -389.23 72.17, -387.0 72.33, -384.78 72.5, -382.56 72.67, -380.35 72.83, -378.13 73.0, -375.93 73.17, -373.72 73.33, -371.52 73.5, -369.33 73.67, -367.13 73.83, -364.95 74.0, -362.76 74.17, -360.58 74.33, -358.4 74.5, -356.23 74.67, -354.05 74.83, -351.89 75.0, -349.72 75.17, -347.57 75.33, -345.41 75.5, -343.26 75.67, -341.11 75.83, -338.96 76.0, -336.82 76.17, -334.69 76.33, -332.55 76.5, -330.42 76.67, -328.3 76.83, -326.18 77.0, -324.06 77.17, -321.95 77.33, -319.84 77.5, -317.73 77.67, -315.63 77.83, -313.53 78.0, -311.43 78.17, -309.34 78.33, -307.26 78.5, -305.17 78.67, -303.09 78.83, -301.02 79.0, -298.95 79.17, -296.88 79.33, -294.81 79.5, -292.76 79.67, -290.7 79.83, -288.65 80.0, -286.6 80.17, -284.56 80.33, -282.52 80.5, -280.48 80.67, -278.45 80.83, -276.42 81.0, -274.4 81.17, -272.38 81.33, -270.36 81.5, -268.35 81.67, -266.34 81.83, -264.34 82.0, -262.34 82.17, -260.34 82.33, -258.35 82.5, -256.36 82.67, -254.38 82.83, -252.4 83.0, -250.42 83.17, -248.45 83.33, -246.48 83.5, -244.52 83.67, -242.56 83.83, -240.61 84.0, -238.65 84.17, -236.71 84.33, -234.76 84.5, -232.83 84.67, -230.89 84.83, -228.96 85.0, -227.03 85.17, -225.11 85.33, -223.19 85.5, -221.28 85.67, -219.37 85.83, -217.46 86.0, -215.56 86.17, -213.67 86.33, -211.77 86.5, -209.88 86.67, -208.0 86.83, -206.12 87.0, -204.24 87.17, -202.37 87.33, -200.5 87.5, -198.64 87.67, -196.78 87.83, -194.92 88.0, -193.07 88.17, -191.22 88.33, -189.38 88.5, -187.54 88.67, -185.71 88.83, -183.88 89.0, -182.05 89.17, -180.23 89.33, -178.41 89.5, -176.6 89.67, -174.79 89.83, -172.99 90.0, -171.19 90.17, -169.39 90.33, -167.6 90.5, -165.81 90.67, -164.03 90.83, -162.25 91.0, -160.48 91.17, -158.71 91.33, -156.94 91.5, -155.18 91.67, -153.42 91.83, -151.67 92.0, -149.92 92.17, -148.17 92.33, -146.43 92.5, -144.7 92.67, -142.97 92.83, -141.24 93.0, -139.52 93.17, -137.8 93.33, -136.08 93.5, -134.37 93.67, -132.67 93.83, -130.97 94.0, -129.27 94.17, -127.58 94.33, -125.89 94.5, -124.21 94.67, -122.53 94.83, -120.85 95.0, -119.18 95.17, -117.51 95.33, -115.85 95.5, -114.19 95.67, -112.54 95.83, -110.89 96.0, -109.25 96.17, -107.61 96.33, -105.97 96.5, -104.34 96.67, -102.71 96.83, -101.09 97.0, -99.47 97.17, -97.86 97.33, -96.25 97.5, -94.64 97.67, -93.04 97.83, -91.45 98.0, -89.85 98.17, -88.27 98.33, -86.68 98.5, -85.1 98.67, -83.53 98.83, -81.96 99.0, -80.39 99.17, -78.83 99.33, -77.28 99.5, -75.72 99.67, -74.18 99.83, -72.63 100.0, -71.09 100.17, -69.56 100.33, -68.03 100.5, -66.5 100.67, -64.98 100.83, -63.46 101.0, -61.95 101.17, -60.44 101.33, -58.94 101.5, -57.44 101.67, -55.95 101.83, -54.46 102.0, -52.97 102.17, -51.49 102.33, -50.01 102.5, -48.54 102.67, -47.07 102.83, -45.6 103.0, -44.15 103.17, -42.69 103.33, -41.24 103.5, -39.79 103.67, -38.35 103.83, -36.91 104.0, -35.48 104.17, -34.05 104.33, -32.63 104.5, -31.21 104.67, -29.79 104.83, -28.38 105.0, -26.98 105.17, -25.57 105.33, -24.18 105.5, -22.78 105.67, -21.39 105.83, -20.01 106.0, -18.63 106.17, -17.26 106.33, -15.88 106.5, -14.52 106.67, -13.16 106.83, -11.8 107.0, -10.44 107.17, -9.1 107.33, -7.75 107.5, -6.41 107.67, -5.08 107.83, -3.74 108.0, -2.42 108.17, -1.09 108.33, 0.22 108.5, 1.54 108.67, 2.85 108.83, 4.15 109.0, 5.45 109.17, 6.75 109.33, 8.04 109.5, 9.33 109.67, 10.61 109.83, 11.89 110.0, 13.16 110.17, 14.43 110.33, 15.69 110.5, 16.96 110.67, 18.21 110.83, 19.46 111.0, 20.71 111.17, 21.95 111.33, 23.19 111.5, 24.43 111.67, 25.66 111.83, 26.88 112.0, 28.1 112.17, 29.32 112.33, 30.53 112.5, 31.74 112.67, 32.94 112.83, 34.14 113.0, 35.34 113.17, 36.53 113.33, 37.71 113.5, 38.9 113.67, 40.07 113.83, 41.25 114.0, 42.42 114.17, 43.58 114.33, 44.74 114.5, 45.9 114.67, 47.05 114.83, 48.19 115.0, 49.34 115.17, 50.47 115.33, 51.61 115.5, 52.74 115.67, 53.86 115.83, 54.98 116.0, 56.1 116.17, 57.21 116.33, 58.32 116.5, 59.42 116.67, 60.52 116.83, 61.62 117.0, 62.71 117.17, 63.79 117.33, 64.87 117.5, 65.95 117.67, 67.03 117.83, 68.09 118.0, 69.16 118.17, 70.22 118.33, 71.28 118.5, 72.33 118.67, 73.37 118.83, 74.42 119.0, 75.46 119.17, 76.49 119.33, 77.52 119.5, 78.55 119.67, 79.57 119.83, 80.59 120.0, 81.6 120.17, 82.61 120.33, 83.61 120.5, 84.61 120.67, 85.61 120.83, 86.6 121.0, 87.59 121.17, 88.57 121.33, 89.55 121.5, 90.53 121.67, 91.5 121.83, 92.47 122.0, 93.43 122.17, 94.39 122.33, 95.34 122.5, 96.29 122.67, 97.24 122.83, 98.18 123.0, 99.11 123.17, 100.05 123.33, 100.98 123.5, 101.9 123.67, 102.82 123.83, 103.74 124.0, 104.65 124.17, 105.56 124.33, 106.46 124.5, 107.36 124.67, 108.26 124.83, 109.15 125.0, 110.03 125.17, 110.92 125.33, 111.8 125.5, 112.67 125.67, 113.54 125.83, 114.41 126.0, 115.27 126.17, 116.13 126.33, 116.98 126.5, 117.83 126.67, 118.68 126.83, 119.52 127.0, 120.36 127.17, 121.19 127.33, 122.02 127.5, 122.85 127.67, 123.67 127.83, 124.48 128.0, 125.3 128.17, 126.11 128.33, 126.91 128.5, 127.71 128.67, 128.51 128.83, 129.3 129.0, 130.09 129.17, 130.88 129.33, 131.66 129.5, 132.44 129.67, 133.21 129.83, 133.98 130.0, 134.74 130.17, 135.5 130.33, 136.26 130.5, 137.01 130.67, 137.76 130.83, 138.51 131.0, 139.25 131.17, 139.99 131.33, 140.72 131.5, 141.45 131.67, 142.17 131.83, 142.9 132.0, 143.61 132.17, 144.33 132.33, 145.04 132.5, 145.74 132.67, 146.44 132.83, 147.14 133.0, 147.83 133.17, 148.53 133.33, 149.21 133.5, 149.89 133.67, 150.57 133.83, 151.25 134.0, 151.92 134.17, 152.58 134.33, 153.25 134.5, 153.91 134.67, 154.56 134.83, 155.21 135.0, 155.86 135.17, 156.5 135.33, 157.14 135.5, 157.78 135.67, 158.41 135.83, 159.04 136.0, 159.67 136.17, 160.29 136.33, 160.91 136.5, 161.52 136.67, 162.13 136.83, 162.73 137.0, 163.34 137.17, 163.94 137.33, 164.53 137.5, 165.12 137.67, 165.71 137.83, 166.29 138.0, 166.87 138.17, 167.45 138.33, 168.02 138.5, 168.59 138.67, 169.15 138.83, 169.72 139.0, 170.27 139.17, 170.83 139.33, 171.38 139.5, 171.93 139.67, 172.47 139.83, 173.01 140.0, 173.54 140.17, 174.08 140.33, 174.6 140.5, 175.13 140.67, 175.65 140.83, 176.17 141.0, 176.68 141.17, 177.19 141.33, 177.7 141.5, 178.21 141.67, 178.71 141.83, 179.2 142.0, 179.69 142.17, 180.18 142.33, 180.67 142.5, 181.15 142.67, 181.63 142.83, 182.11 143.0, 182.58 143.17, 183.05 143.33, 183.51 143.5, 183.97 143.67, 184.43 143.83, 184.89 144.0, 185.34 144.17, 185.78 144.33, 186.23 144.5, 186.67 144.67, 187.11 144.83, 187.54 145.0, 187.97 145.17, 188.4 145.33, 188.82 145.5, 189.24 145.67, 189.66 145.83, 190.07 146.0, 190.48 146.17, 190.89 146.33, 191.29 146.5, 191.69 146.67, 192.09 146.83, 192.48 147.0, 192.87 147.17, 193.26 147.33, 193.64 147.5, 194.02 147.67, 194.4 147.83, 194.78 148.0, 195.15 148.17, 195.51 148.33, 195.88 148.5, 196.24 148.67, 196.6 148.83, 196.95 149.0, 197.3 149.17, 197.65 149.33, 197.99 149.5, 198.34 149.67, 198.67 149.83, 199.01 150.0, 199.34 150.17, 199.67 150.33, 200.0 150.5, 200.32 150.67, 200.64 150.83, 200.95 151.0, 201.27 151.17, 201.58 151.33, 201.88 151.5, 202.19 151.67, 202.49 151.83, 202.79 152.0, 203.08 152.17, 203.37 152.33, 203.66 152.5, 203.95 152.67, 204.23 152.83, 204.51 153.0, 204.79 153.17, 205.06 153.33, 205.33 153.5, 205.6 153.67, 205.86 153.83, 206.12 154.0, 206.38 154.17, 206.64 154.33, 206.89 154.5, 207.14 154.67, 207.39 154.83, 207.63 155.0, 207.87 155.17, 208.11 155.33, 208.35 155.5, 208.58 155.67, 208.81 155.83, 209.03 156.0, 209.26 156.17, 209.48 156.33, 209.7 156.5, 209.91 156.67, 210.13 156.83, 210.34 157.0, 210.54 157.17, 210.75 157.33, 210.95 157.5, 211.15 157.67, 211.34 157.83, 211.54 158.0, 211.73 158.17, 211.91 158.33, 212.1 158.5, 212.28 158.67, 212.46 158.83, 212.64 159.0, 212.81 159.17, 212.98 159.33, 213.15 159.5, 213.32 159.67, 213.48 159.83, 213.64 160.0, 213.8 160.17, 213.96 160.33, 214.11 160.5, 214.26 160.67, 214.41 160.83, 214.55 161.0, 214.69 161.17, 214.84 161.33, 214.97 161.5, 215.11 161.67, 215.24 161.83, 215.37 162.0, 215.5 162.17, 215.62 162.33, 215.75 162.5, 215.87 162.67, 215.98 162.83, 216.1 163.0, 216.21 163.17, 216.32 163.33, 216.43 163.5, 216.53 163.67, 216.64 163.83, 216.74 164.0, 216.84 164.17, 216.93 164.33, 217.02 164.5, 217.12 164.67, 217.2 164.83, 217.29 165.0, 217.37 165.17, 217.46 165.33, 217.54 165.5, 217.61 165.67, 217.69 165.83, 217.76 166.0, 217.83 166.17, 217.9 166.33, 217.96 166.5, 218.03 166.67, 218.09 166.83, 218.15 167.0, 218.2 167.17, 218.26 167.33, 218.31 167.5, 218.36 167.67, 218.41 167.83, 218.46 168.0, 218.5 168.17, 218.54 168.33, 218.58 168.5, 218.62 168.67, 218.65 168.83, 218.69 169.0, 218.72 169.17, 218.75 169.33, 218.77 169.5, 218.8 169.67, 218.82 169.83, 218.84 170.0, 218.86 170.17, 218.88 170.33, 218.89 170.5, 218.9 170.67, 218.92 170.83, 218.92 171.0, 218.93 171.17, 218.94 171.33, 218.94 171.5, 218.94 171.67, 218.94 171.83, 218.94 172.0, 218.93 172.17, 218.93 172.33, 218.92 172.5, 218.91 172.67, 218.89 172.83, 218.88 173.0, 218.86 173.17, 218.85 173.33, 218.83 173.5, 218.81 173.67, 218.78 173.83, 218.76 174.0, 218.73 174.17, 218.7 174.33, 218.67 174.5, 218.64 174.67, 218.61 174.83, 218.57 175.0, 218.53 175.17, 218.5 175.33, 218.45 175.5, 218.41 175.67, 218.37 175.83, 218.32 176.0, 218.28 176.17, 218.23 176.33, 218.18 176.5, 218.13 176.67, 218.07 176.83, 218.02 177.0, 217.96 177.17, 217.9 177.33, 217.84 177.5, 217.78 177.67, 217.72 177.83, 217.65 178.0, 217.59 178.17, 217.52 178.33, 217.45 178.5, 217.38 178.67, 217.31 178.83, 217.23 179.0, 217.16 179.17, 217.08 179.33, 217.01 179.5, 216.93 179.67, 216.85 179.83, 216.76 180.0, 216.68 180.17, 216.6 180.33, 216.51 180.5, 216.42 180.67, 216.33 180.83, 216.24 181.0, 216.15 181.17, 216.06 181.33, 215.97 181.5, 215.87 181.67, 215.78 181.83, 215.68 182.0, 215.58 182.17, 215.48 182.33, 215.38 182.5, 215.27 182.67, 215.17 182.83, 215.07 183.0, 214.96 183.17, 214.85 183.33, 214.74 183.5, 214.63 183.67, 214.52 183.83, 214.41 184.0, 214.3 184.17, 214.18 184.33, 214.07 184.5, 213.95 184.67, 213.84 184.83, 213.72 185.0, 213.6 185.17, 213.48 185.33, 213.36 185.5, 213.23 185.67, 213.11 185.83, 212.98 186.0, 212.86 186.17, 212.73 186.33, 212.61 186.5, 212.48 186.67, 212.35 186.83, 212.22 187.0, 212.09 187.17, 211.95 187.33, 211.82 187.5, 211.69 187.67, 211.55 187.83, 211.42 188.0, 211.28 188.17, 211.14 188.33, 211.01 188.5, 210.87 188.67, 210.73 188.83, 210.59 189.0, 210.45 189.17, 210.3 189.33, 210.16 189.5, 210.02 189.67, 209.87 189.83, 209.73 190.0, 209.58 190.17, 209.44 190.33, 209.29 190.5, 209.14 190.67, 208.99 190.83, 208.85 191.0, 208.7 191.17, 208.55 191.33, 208.4 191.5, 208.24 191.67, 208.09 191.83, 207.94 192.0, 207.79 192.17, 207.63 192.33, 207.48 192.5, 207.32 192.67, 207.17 192.83, 207.01 193.0, 206.86 193.17, 206.7 193.33, 206.54 193.5, 206.39 193.67, 206.23 193.83, 206.07 194.0, 205.91 194.17, 205.75 194.33, 205.59 194.5, 205.43 194.67, 205.27 194.83, 205.11 195.0, 204.95 195.17, 204.79 195.33, 204.62 195.5, 204.46 195.67, 204.3 195.83, 204.14 196.0, 203.97 196.17, 203.81 196.33, 203.65 196.5, 203.48 196.67, 203.32 196.83, 203.15 197.0, 202.99 197.17, 202.82 197.33, 202.66 197.5, 202.49 197.67, 202.33 197.83, 202.16 198.0, 202.0 198.17, 201.83 198.33, 201.66 198.5, 201.5 198.67, 201.33 198.83, 201.17 199.0, 201.0 199.17, 200.83 199.33, 200.67 199.5, 200.5 199.67, 200.33 199.83, 200.17 200.0, 200.0 200.17, 199.83 200.33, 199.67 200.5, 199.5 200.67, 199.33 200.83, 199.17 201.0, 199.0 201.17, 198.83 201.33, 198.67 201.5, 198.5 201.67, 198.34 201.83, 198.17 202.0, 198.0 202.17, 197.84 202.33, 197.67 202.5, 197.51 202.67, 197.34 202.83, 197.18 203.0, 197.01 203.17, 196.85 203.33, 196.68 203.5, 196.52 203.67, 196.35 203.83, 196.19 204.0, 196.03 204.17, 195.86 204.33, 195.7 204.5, 195.54 204.67, 195.38 204.83, 195.21 205.0, 195.05 205.17, 194.89 205.33, 194.73 205.5, 194.57 205.67, 194.41 205.83, 194.25 206.0, 194.09 206.17, 193.93 206.33, 193.77 206.5, 193.61 206.67, 193.46 206.83, 193.3 207.0, 193.14 207.17, 192.99 207.33, 192.83 207.5, 192.68 207.67, 192.52 207.83, 192.37 208.0, 192.21 208.17, 192.06 208.33, 191.91 208.5, 191.76 208.67, 191.6 208.83, 191.45 209.0, 191.3 209.17, 191.15 209.33, 191.01 209.5, 190.86 209.67, 190.71 209.83, 190.56 210.0, 190.42 210.17, 190.27 210.33, 190.13 210.5, 189.98 210.67, 189.84 210.83, 189.7 211.0, 189.55 211.17, 189.41 211.33, 189.27 211.5, 189.13 211.67, 188.99 211.83, 188.86 212.0, 188.72 212.17, 188.58 212.33, 188.45 212.5, 188.31 212.67, 188.18 212.83, 188.05 213.0, 187.91 213.17, 187.78 213.33, 187.65 213.5, 187.52 213.67, 187.39 213.83, 187.27 214.0, 187.14 214.17, 187.02 214.33, 186.89 214.5, 186.77 214.67, 186.64 214.83, 186.52 215.0, 186.4 215.17, 186.28 215.33, 186.16 215.5, 186.05 215.67, 185.93 215.83, 185.82 216.0, 185.7 216.17, 185.59 216.33, 185.48 216.5, 185.37 216.67, 185.26 216.83, 185.15 217.0, 185.04 217.17, 184.93 217.33, 184.83 217.5, 184.73 217.67, 184.62 217.83, 184.52 218.0, 184.42 218.17, 184.32 218.33, 184.22 218.5, 184.13 218.67, 184.03 218.83, 183.94 219.0, 183.85 219.17, 183.76 219.33, 183.67 219.5, 183.58 219.67, 183.49 219.83, 183.4 220.0, 183.32 220.17, 183.24 220.33, 183.15 220.5, 183.07 220.67, 182.99 220.83, 182.92 221.0, 182.84 221.17, 182.77 221.33, 182.69 221.5, 182.62 221.67, 182.55 221.83, 182.48 222.0, 182.41 222.17, 182.35 222.33, 182.28 222.5, 182.22 222.67, 182.16 222.83, 182.1 223.0, 182.04 223.17, 181.98 223.33, 181.93 223.5, 181.87 223.67, 181.82 223.83, 181.77 224.0, 181.72 224.17, 181.68 224.33, 181.63 224.5, 181.59 224.67, 181.55 224.83, 181.5 225.0, 181.47 225.17, 181.43 225.33, 181.39 225.5, 181.36 225.67, 181.33 225.83, 181.3 226.0, 181.27 226.17, 181.24 226.33, 181.22 226.5, 181.19 226.67, 181.17 226.83, 181.15 227.0, 181.14 227.17, 181.12 227.33, 181.11 227.5, 181.09 227.67, 181.08 227.83, 181.07 228.0, 181.07 228.17, 181.06 228.33, 181.06 228.5, 181.06 228.67, 181.06 228.83, 181.06 229.0, 181.07 229.17, 181.08 229.33, 181.08 229.5, 181.1 229.67, 181.11 229.83, 181.12 230.0, 181.14 230.17, 181.16 230.33, 181.18 230.5, 181.2 230.67, 181.23 230.83, 181.25 231.0, 181.28 231.17, 181.31 231.33, 181.35 231.5, 181.38 231.67, 181.42 231.83, 181.46 232.0, 181.5 232.17, 181.54 232.33, 181.59 232.5, 181.64 232.67, 181.69 232.83, 181.74 233.0, 181.8 233.17, 181.85 233.33, 181.91 233.5, 181.97 233.67, 182.04 233.83, 182.1 234.0, 182.17 234.17, 182.24 234.33, 182.31 234.5, 182.39 234.67, 182.46 234.83, 182.54 235.0, 182.63 235.17, 182.71 235.33, 182.8 235.5, 182.88 235.67, 182.98 235.83, 183.07 236.0, 183.16 236.17, 183.26 236.33, 183.36 236.5, 183.47 236.67, 183.57 236.83, 183.68 237.0, 183.79 237.17, 183.9 237.33, 184.02 237.5, 184.13 237.67, 184.25 237.83, 184.38 238.0, 184.5 238.17, 184.63 238.33, 184.76 238.5, 184.89 238.67, 185.03 238.83, 185.16 239.0, 185.31 239.17, 185.45 239.33, 185.59 239.5, 185.74 239.67, 185.89 239.83, 186.04 240.0, 186.2 240.17, 186.36 240.33, 186.52 240.5, 186.68 240.67, 186.85 240.83, 187.02 241.0, 187.19 241.17, 187.36 241.33, 187.54 241.5, 187.72 241.67, 187.9 241.83, 188.09 242.0, 188.27 242.17, 188.46 242.33, 188.66 242.5, 188.85 242.67, 189.05 242.83, 189.25 243.0, 189.46 243.17, 189.66 243.33, 189.87 243.5, 190.09 243.67, 190.3 243.83, 190.52 244.0, 190.74 244.17, 190.97 244.33, 191.19 244.5, 191.42 244.67, 191.65 244.83, 191.89 245.0, 192.13 245.17, 192.37 245.33, 192.61 245.5, 192.86 245.67, 193.11 245.83, 193.36 246.0, 193.62 246.17, 193.88 246.33, 194.14 246.5, 194.4 246.67, 194.67 246.83, 194.94 247.0, 195.21 247.17, 195.49 247.33, 195.77 247.5, 196.05 247.67, 196.34 247.83, 196.63 248.0, 196.92 248.17, 197.21 248.33, 197.51 248.5, 197.81 248.67, 198.12 248.83, 198.42 249.0, 198.73 249.17, 199.05 249.33, 199.36 249.5, 199.68 249.67, 200.0 249.83, 200.33 250.0, 200.66 250.17, 200.99 250.33, 201.33 250.5, 201.66 250.67, 202.01 250.83, 202.35 251.0, 202.7 251.17, 203.05 251.33, 203.4 251.5, 203.76 251.67, 204.12 251.83, 204.49 252.0, 204.85 252.17, 205.22 252.33, 205.6 252.5, 205.98 252.67, 206.36 252.83, 206.74 253.0, 207.13 253.17, 207.52 253.33, 207.91 253.5, 208.31 253.67, 208.71 253.83, 209.11 254.0, 209.52 254.17, 209.93 254.33, 210.34 254.5, 210.76 254.67, 211.18 254.83, 211.6 255.0, 212.03 255.17, 212.46 255.33, 212.89 255.5, 213.33 255.67, 213.77 255.83, 214.22 256.0, 214.66 256.17, 215.11 256.33, 215.57 256.5, 216.03 256.67, 216.49 256.83, 216.95 257.0, 217.42 257.17, 217.89 257.33, 218.37 257.5, 218.85 257.67, 219.33 257.83, 219.82 258.0, 220.31 258.17, 220.8 258.33, 221.29 258.5, 221.79 258.67, 222.3 258.83, 222.81 259.0, 223.32 259.17, 223.83 259.33, 224.35 259.5, 224.87 259.67, 225.4 259.83, 225.92 260.0, 226.46 260.17, 226.99 260.33, 227.53 260.5, 228.07 260.67, 228.62 260.83, 229.17 261.0, 229.73 261.17, 230.28 261.33, 230.85 261.5, 231.41 261.67, 231.98 261.83, 232.55 262.0, 233.13 262.17, 233.71 262.33, 234.29 262.5, 234.88 262.67, 235.47 262.83, 236.06 263.0, 236.66 263.17, 237.27 263.33, 237.87 263.5, 238.48 263.67, 239.09 263.83, 239.71 264.0, 240.33 264.17, 240.96 264.33, 241.59 264.5, 242.22 264.67, 242.86 264.83, 243.5 265.0, 244.14 265.17, 244.79 265.33, 245.44 265.5, 246.09 265.67, 246.75 265.83, 247.42 266.0, 248.08 266.17, 248.75 266.33, 249.43 266.5, 250.11 266.67, 250.79 266.83, 251.47 267.0, 252.17 267.17, 252.86 267.33, 253.56 267.5, 254.26 267.67, 254.96 267.83, 255.67 268.0, 256.39 268.17, 257.1 268.33, 257.83 268.5, 258.55 268.67, 259.28 268.83, 260.01 269.0, 260.75 269.17, 261.49 269.33, 262.24 269.5, 262.99 269.67, 263.74 269.83, 264.5 270.0, 265.26 270.17, 266.02 270.33, 266.79 270.5, 267.56 270.67, 268.34 270.83, 269.12 271.0, 269.91 271.17, 270.7 271.33, 271.49 271.5, 272.29 271.67, 273.09 271.83, 273.89 272.0, 274.7 272.17, 275.52 272.33, 276.33 272.5, 277.15 272.67, 277.98 272.83, 278.81 273.0, 279.64 273.17, 280.48 273.33, 281.32 273.5, 282.17 273.67, 283.02 273.83, 283.87 274.0, 284.73 274.17, 285.59 274.33, 286.46 274.5, 287.33 274.67, 288.2 274.83, 289.08 275.0, 289.97 275.17, 290.85 275.33, 291.74 275.5, 292.64 275.67, 293.54 275.83, 294.44 276.0, 295.35 276.17, 296.26 276.33, 297.18 276.5, 298.1 276.67, 299.02 276.83, 299.95 277.0, 300.89 277.17, 301.82 277.33, 302.76 277.5, 303.71 277.67, 304.66 277.83, 305.61 278.0, 306.57 278.17, 307.53 278.33, 308.5 278.5, 309.47 278.67, 310.45 278.83, 311.43 279.0, 312.41 279.17, 313.4 279.33, 314.39 279.5, 315.39 279.67, 316.39 279.83, 317.39 280.0, 318.4 280.17, 319.41 280.33, 320.43 280.5, 321.45 280.67, 322.48 280.83, 323.51 281.0, 324.54 281.17, 325.58 281.33, 326.63 281.5, 327.67 281.67, 328.72 281.83, 329.78 282.0, 330.84 282.17, 331.91 282.33, 332.97 282.5, 334.05 282.67, 335.13 282.83, 336.21 283.0, 337.29 283.17, 338.38 283.33, 339.48 283.5, 340.58 283.67, 341.68 283.83, 342.79 284.0, 343.9 284.17, 345.02 284.33, 346.14 284.5, 347.26 284.67, 348.39 284.83, 349.53 285.0, 350.66 285.17, 351.81 285.33, 352.95 285.5, 354.1 285.67, 355.26 285.83, 356.42 286.0, 357.58 286.17, 358.75 286.33, 359.93 286.5, 361.1 286.67, 362.29 286.83, 363.47 287.0, 364.66 287.17, 365.86 287.33, 367.06 287.5, 368.26 287.67, 369.47 287.83, 370.68 288.0, 371.9 288.17, 373.12 288.33, 374.34 288.5, 375.57 288.67, 376.81 288.83, 378.05 289.0, 379.29 289.17, 380.54 289.33, 381.79 289.5, 383.04 289.67, 384.31 289.83, 385.57 290.0, 386.84 290.17, 388.11 290.33, 389.39 290.5, 390.67 290.67, 391.96 290.83, 393.25 291.0, 394.55 291.17, 395.85 291.33, 397.15 291.5, 398.46 291.67, 399.78 291.83, 401.09 292.0, 402.42 292.17, 403.74 292.33, 405.08 292.5, 406.41 292.67, 407.75 292.83, 409.1 293.0, 410.44 293.17, 411.8 293.33, 413.16 293.5, 414.52 293.67, 415.88 293.83, 417.26 294.0, 418.63 294.17, 420.01 294.33, 421.39 294.5, 422.78 294.67, 424.18 294.83, 425.57 295.0, 426.98 295.17, 428.38 295.33, 429.79 295.5, 431.21 295.67, 432.63 295.83, 434.05 296.0, 435.48 296.17, 436.91 296.33, 438.35 296.5, 439.79 296.67, 441.24 296.83, 442.69 297.0, 444.15 297.17, 445.6 297.33, 447.07 297.5, 448.54 297.67, 450.01 297.83, 451.49 298.0, 452.97 298.17, 454.46 298.33, 455.95 298.5, 457.44 298.67, 458.94 298.83, 460.44 299.0, 461.95 299.17, 463.46 299.33, 464.98 299.5, 466.5 299.67, 468.03 299.83, 469.56 300.0, 471.09 300.17, 472.63 300.33, 474.18 300.5, 475.72 300.67, 477.28 300.83, 478.83 301.0, 480.39 301.17, 481.96 301.33, 483.53 301.5, 485.1 301.67, 486.68 301.83, 488.27 302.0, 489.85 302.17, 491.45 302.33, 493.04 302.5, 494.64 302.67, 496.25 302.83, 497.86 303.0, 499.47 303.17, 501.09 303.33, 502.71 303.5, 504.34 303.67, 505.97 303.83, 507.61 304.0, 509.25 304.17, 510.89 304.33, 512.54 304.5, 514.19 304.67, 515.85 304.83, 517.51 305.0, 519.18 305.17, 520.85 305.33, 522.53 305.5, 524.21 305.67, 525.89 305.83, 527.58 306.0, 529.27 306.17, 530.97 306.33, 532.67 306.5, 534.37 306.67, 536.08 306.83, 537.8 307.0, 539.52 307.17, 541.24 307.33, 542.97 307.5, 544.7 307.67, 546.43 307.83, 548.17 308.0, 549.92 308.17, 551.67 308.33, 553.42 308.5, 555.18 308.67, 556.94 308.83, 558.71 309.0, 560.48 309.17, 562.25 309.33, 564.03 309.5, 565.81 309.67, 567.6 309.83, 569.39 310.0, 571.19 310.17, 572.99 310.33, 574.79 310.5, 576.6 310.67, 578.41 310.83, 580.23 311.0, 582.05 311.17, 583.88 311.33, 585.71 311.5, 587.54 311.67, 589.38 311.83, 591.22 312.0, 593.07 312.17, 594.92 312.33, 596.78 312.5, 598.64 312.67, 600.5 312.83, 602.37 313.0, 604.24 313.17, 606.12 313.33, 608.0 313.5, 609.88 313.67, 611.77 313.83, 613.67 314.0, 615.56 314.17, 617.46 314.33, 619.37 314.5, 621.28 314.67, 623.19 314.83, 625.11 315.0, 627.03 315.17, 628.96 315.33, 630.89 315.5, 632.83 315.67, 634.76 315.83, 636.71 316.0, 638.65 316.17, 640.61 316.33, 642.56 316.5, 644.52 316.67, 646.48 316.83, 648.45 317.0, 650.42 317.17, 652.4 317.33, 654.38 317.5, 656.36 317.67, 658.35 317.83, 660.34 318.0, 662.34 318.17, 664.34 318.33, 666.34 318.5, 668.35 318.67, 670.36 318.83, 672.38 319.0, 674.4 319.17, 676.42 319.33, 678.45 319.5, 680.48 319.67, 682.52 319.83, 684.56 320.0, 686.6 320.17, 688.65 320.33, 690.7 320.5, 692.76 320.67, 694.81 320.83, 696.88 321.0, 698.95 321.17, 701.02 321.33, 703.09 321.5, 705.17 321.67, 707.26 321.83, 709.34 322.0, 711.43 322.17, 713.53 322.33, 715.63 322.5, 717.73 322.67, 719.84 322.83, 721.95 323.0, 724.06 323.17, 726.18 323.33, 728.3 323.5, 730.42 323.67, 732.55 323.83, 734.69 324.0, 736.82 324.17, 738.96 324.33, 741.11 324.5, 743.26 324.67, 745.41 324.83, 747.57 325.0, 749.72 325.17, 751.89 325.33, 754.05 325.5, 756.23 325.67, 758.4 325.83, 760.58 326.0, 762.76 326.17, 764.95 326.33, 767.13 326.5, 769.33 326.67, 771.52 326.83, 773.72 327.0, 775.93 327.17, 778.13 327.33, 780.35 327.5, 782.56 327.67, 784.78 327.83, 787.0 328.0, 789.23 328.17, 791.45 328.33, 793.69 328.5, 795.92 328.67, 798.16 328.83, 800.41 329.0, 802.65 329.17, 804.9 329.33, 807.16 329.5, 809.41 329.67, 811.68 329.83, 813.94 330.0, 816.21 330.17, 818.48 330.33, 820.75 330.5, 823.03 330.67, 825.31 330.83, 827.6 331.0, 829.89 331.17, 832.18 331.33, 834.47 331.5, 836.77 331.67, 839.07 331.83, 841.38 332.0, 843.69 332.17, 846.0 332.33, 848.32 332.5, 850.63 332.67, 852.96 332.83, 855.28 333.0, 857.61 333.17, 859.94 333.33, 862.28 333.5, 864.62 333.67, 866.96 333.83, 869.3 334.0, 871.65 334.17, 874.0 334.33, 876.36 334.5, 878.71 334.67, 881.07 334.83, 883.44 335.0, 885.81 335.17, 888.18 335.33, 890.55 335.5, 892.93 335.67, 895.31 335.83, 897.69 336.0, 900.07 336.17, 902.46 336.33, 904.86 336.5, 907.25 336.67, 909.65 336.83, 912.05 337.0, 914.45 337.17, 916.86 337.33, 919.27 337.5, 921.68 337.67, 924.1 337.83, 926.52 338.0, 928.94 338.17, 931.37 338.33, 933.79 338.5, 936.23 338.67, 938.66 338.83, 941.1 339.0, 943.54 339.17, 945.98 339.33, 948.42 339.5, 950.87 339.67, 953.32 339.83, 955.77 340.0, 958.23 340.17, 960.69 340.33, 963.15 340.5, 965.62 340.67, 968.08 340.83, 970.55 341.0, 973.03 341.17, 975.5 341.33, 977.98 341.5, 980.46 341.67, 982.95 341.83, 985.43 342.0, 987.92 342.17, 990.41 342.33, 992.91 342.5, 995.4 342.67, 997.9 342.83, 1000.4 343.0, 1002.91 343.17, 1005.41 343.33, 1007.92 343.5, 1010.43 343.67, 1012.95 343.83, 1015.47 344.0, 1017.98 344.17, 1020.51 344.33, 1023.03 344.5, 1025.56 344.67, 1028.09 344.83, 1030.62 345.0, 1033.15 345.17, 1035.69 345.33, 1038.22 345.5, 1040.76 345.67, 1043.31 345.83, 1045.85 346.0, 1048.4 346.17, 1050.95 346.33, 1053.5 346.5, 1056.06 346.67, 1058.61 346.83, 1061.17 347.0, 1063.73 347.17, 1066.29 347.33, 1068.86 347.5, 1071.43 347.67, 1074.0 347.83, 1076.57 348.0, 1079.14 348.17, 1081.72 348.33, 1084.29 348.5, 1086.87 348.67, 1089.46 348.83, 1092.04 349.0, 1094.63 349.17, 1097.21 349.33, 1099.8 349.5, 1102.39 349.67, 1104.99 349.83, 1107.58 350.0, 1110.18 350.17, 1112.78 350.33, 1115.38 350.5, 1117.98 350.67, 1120.59 350.83, 1123.19 351.0, 1125.8 351.17, 1128.41 351.33, 1131.02 351.5, 1133.64 351.67, 1136.25 351.83, 1138.87 352.0, 1141.49 352.17, 1144.11 352.33, 1146.73 352.5, 1149.35 352.67, 1151.98 352.83, 1154.61 353.0, 1157.24 353.17, 1159.87 353.33, 1162.5 353.5, 1165.13 353.67, 1167.76 353.83, 1170.4 354.0, 1173.04 354.17, 1175.68 354.33, 1178.32 354.5, 1180.96 354.67, 1183.6 354.83, 1186.25 355.0, 1188.89 355.17, 1191.54 355.33, 1194.19 355.5, 1196.84 355.67, 1199.49 355.83, 1202.14 356.0, 1204.79 356.17, 1207.45 356.33, 1210.1 356.5, 1212.76 356.67, 1215.42 356.83, 1218.08 357.0, 1220.74 357.17, 1223.4 357.33, 1226.06 357.5, 1228.73 357.67, 1231.39 357.83, 1234.06 358.0, 1236.73 358.17, 1239.39 358.33, 1242.06 358.5, 1244.73 358.67, 1247.4 358.83, 1250.07 359.0, 1252.75 359.17, 1255.42 359.33, 1258.1 359.5, 1260.77 359.67, 1263.45 359.83, 1266.12 360.0, 1268.8 360.17, 1271.48 360.33, 1274.16 360.5, 1276.84 360.67, 1279.52 360.83, 1282.2 361.0, 1284.88 361.17, 1287.56 361.33, 1290.24 361.5, 1292.93 361.67, 1295.61 361.83, 1298.3 362.0, 1300.98 362.17, 1303.67 362.33, 1306.35 362.5, 1309.04 362.67, 1311.72 362.83, 1314.41 363.0, 1317.1 363.17, 1319.79 363.33, 1322.48 363.5, 1325.16 363.67, 1327.85 363.83, 1330.54 364.0, 1333.23 364.17, 1335.92 364.33, 1338.61 364.5, 1341.3 364.67, 1343.99 364.83, 1346.68 365.0, 1349.37 365.17, 1352.06 365.33, 1354.75 365.5, 1357.44 365.67, 1360.13 365.83, 1362.82 366.0, 1365.51 366.17, 1368.2 366.33, 1370.89 366.5, 1373.58 366.67, 1376.27 366.83, 1378.96 367.0, 1381.65 367.17, 1384.34 367.33, 1387.03 367.5, 1389.72 367.67, 1392.41 367.83, 1395.1 368.0, 1397.79 368.17, 1400.48 368.33, 1403.16 368.5, 1405.85 368.67, 1408.54 368.83, 1411.22 369.0, 1413.91 369.17, 1416.59 369.33, 1419.28 369.5, 1421.96 369.67, 1424.65 369.83, 1427.33 370.0, 1430.01 370.17, 1432.7 370.33, 1435.38 370.5, 1438.06 370.67, 1440.74 370.83, 1443.42 371.0, 1446.09 371.17, 1448.77 371.33, 1451.45 371.5, 1454.12 371.67, 1456.8 371.83, 1459.47 372.0, 1462.15 372.17, 1464.82 372.33, 1467.49 372.5, 1470.16 372.67, 1472.83 372.83, 1475.5 373.0, 1478.17 373.17, 1480.83 373.33, 1483.5 373.5, 1486.16 373.67, 1488.82 373.83, 1491.49 374.0, 1494.15 374.17, 1496.81 374.33, 1499.46 374.5, 1502.12 374.67, 1504.77 374.83, 1507.43 375.0, 1510.08 375.17, 1512.73 375.33, 1515.38 375.5, 1518.03 375.67, 1520.68 375.83, 1523.32 376.0, 1525.96 376.17, 1528.61 376.33, 1531.25 376.5, 1533.89 376.67, 1536.52 376.83, 1539.16 377.0, 1541.79 377.17, 1544.42 377.33, 1547.05 377.5, 1549.68 377.67, 1552.31 377.83, 1554.93 378.0, 1557.55 378.17, 1560.18 378.33, 1562.79 378.5, 1565.41 378.67, 1568.03 378.83, 1570.64 379.0, 1573.25 379.17, 1575.86 379.33, 1578.46 379.5, 1581.07 379.67, 1583.67 379.83, 1586.27 380.0, 1588.87 380.17, 1591.46 380.33, 1594.06 380.5, 1596.65 380.67, 1599.24 380.83, 1601.82 381.0, 1604.41 381.17, 1606.99 381.33, 1609.57 381.5, 1612.14 381.67, 1614.72 381.83, 1617.29 382.0, 1619.86 382.17, 1622.42 382.33, 1624.99 382.5, 1627.55 382.67, 1630.1 382.83, 1632.66 383.0, 1635.21 383.17, 1637.76 383.33, 1640.31 383.5, 1642.85 383.67, 1645.39 383.83, 1647.93 384.0, 1650.47 384.17, 1653.0 384.33, 1655.53 384.5, 1658.05 384.67, 1660.58 384.83, 1663.1 385.0, 1665.61 385.17, 1668.13 385.33, 1670.64 385.5, 1673.14 385.67, 1675.65 385.83, 1678.15 386.0, 1680.64 386.17, 1683.14 386.33, 1685.63 386.5, 1688.12 386.67, 1690.6 386.83, 1693.08 387.0, 1695.55 387.17, 1698.03 387.33, 1700.5 387.5, 1702.96 387.67, 1705.42 387.83, 1707.88 388.0, 1710.34 388.17, 1712.79 388.33, 1715.23 388.5, 1717.68 388.67, 1720.12 388.83, 1722.55 389.0, 1724.98 389.17, 1727.41 389.33, 1729.83 389.5, 1732.25 389.67, 1734.67 389.83, 1737.08 390.0, 1739.49 390.17, 1741.89 390.33, 1744.29 390.5, 1746.68 390.67, 1749.07 390.83, 1751.46 391.0, 1753.84 391.17, 1756.22 391.33, 1758.59 391.5, 1760.96 391.67, 1763.32 391.83, 1765.68 392.0, 1768.03 392.17, 1770.38 392.33, 1772.73 392.5, 1775.07 392.67, 1777.41 392.83, 1779.74 393.0, 1782.07 393.17, 1784.39 393.33, 1786.7 393.5, 1789.02 393.67, 1791.32 393.83, 1793.63 394.0, 1795.92 394.17, 1798.22 394.33, 1800.5 394.5, 1802.78 394.67, 1805.06 394.83, 1807.33 395.0, 1809.6 395.17, 1811.86 395.33, 1814.12 395.5, 1816.37 395.67, 1818.61 395.83, 1820.85 396.0, 1823.09 396.17, 1825.32 396.33, 1827.54 396.5, 1829.76 396.67, 1831.97 396.83, 1834.18 397.0, 1836.38 397.17, 1838.58 397.33, 1840.77 397.5, 1842.95 397.67, 1845.13 397.83, 1847.3 398.0, 1849.47 398.17, 1851.63 398.33, 1853.79 398.5, 1855.93 398.67, 1858.08 398.83, 1860.21 399.0, 1862.35 399.17, 1864.47 399.33, 1866.59 399.5, 1868.7 399.67, 1870.81 399.83, 1872.91 400.0, 1875.0 " fill="none" stroke="white" stroke-width="1.5" stroke-linejoin="round" stroke-opacity="1"/>

 </svg>