<svg version="1.1" 
 baseProfile="full" 
 width="400" 
 height="400" 
 xmlns="http://www.w3.org/2000/svg">
<rect x="0.0" y="0.0" width="400" height="400" fill="black" stroke="black" stroke-width="0" opacity="1"/>
<line x1="0.0" y1="0.0" x2="0.0" y2="400.0" stroke="white" stroke-width="1" opacity="0.4" stroke-linecap="butt"/>
<line x1="40.0" y1="0.0" x2="40.0" y2="400.0" stroke="white" stroke-width="1" opacity="0.4" stroke-linecap="butt"/>
<line x1="80.0" y1="0.0" x2="80.0" y2="400.0" stroke="white" stroke-width="1" opacity="0.4" stroke-linecap="butt"/>
<line x1="120.0" y1="0.0" x2="120.0" y2="400.0" stroke="white" stroke-width="1" opacity="0.4" stroke-linecap="butt"/>
<line x1="160.0" y1="0.0" x2="160.0" y2="400.0" stroke="white" stroke-width="1" opacity="0.4" stroke-linecap="butt"/>
<line x1="200.0" y1="0.0" x2="200.0" y2="400.0" stroke="white" stroke-width="1" opacity="0.4" stroke-linecap="butt"/>
<line x1="240.0" y1="0.0" x2="240.0" y2="400.0" stroke="white" stroke-width="1" opacity="0.4" stroke-linecap="butt"/>
<line x1="280.0" y1="0.0" x2="280.0" y2="400.0" stroke="white" stroke-width="1" opacity="0.4" stroke-linecap="butt"/>
<line x1="320.0" y1="0.0" x2="320.0" y2="400.0" stroke="white" stroke-width="1" opacity="0.4" stroke-linecap="butt"/>
<line x1="360.0" y1="0.0" x2="360.0" y2="400.0" stroke="white" stroke-width="1" opacity="0.4" stroke-linecap="butt"/>
<line x1="0.0" y1="0.0" x2="400.0" y2="0.0" stroke="white" stroke-width="1" opacity="0.4" stroke-linecap="butt"/>
<line x1="0.0" y1="40.0" x2="400.0" y2="40.0" stroke="white" stroke-width="1" opacity="0.4" stroke-linecap="butt"/>
<line x1="0.0" y1="80.0" x2="400.0" y2="80.0" stroke="white" stroke-width="1" opacity="0.4" stroke-linecap="butt"/>
<line x1="0.0" y1="120.0" x2="400.0" y2="120.0" stroke="white" stroke-width="1" opacity="0.4" stroke-linecap="butt"/>
<line x1="0.0" y1="160.0" x2="400.0" y2="160.0" stroke="white" stroke-width="1" opacity="0.4" stroke-linecap="butt"/>
<line x1="0.0" y1="200.0" x2="400.0" y2="200.0" stroke="white" stroke-width="1" opacity="0.4" stroke-linecap="butt"/>
<line x1="0.0" y1="240.0" x2="400.0" y2="240.0" stroke="white" stroke-width="1" opacity="0.4" stroke-linecap="butt"/>
<line x1="0.0" y1="280.0" x2="400.0" y2="280.0" stroke="white" stroke-width="1" opacity="0.4" stroke-linecap="butt"/>
<line x1="0.0" y1="320.0" x2="400.0" y2="320.0" stroke="white" stroke-width="1" opacity="0.4" stroke-linecap="butt"/>
<line x1="0.0" y1="360.0" x2="400.0" y2="360.0" stroke="white" stroke-width="1" opacity="0.4" stroke-linecap="butt"/>
<line x1="0.0" y1="200.0" x2="400.0" y2="200.0" stroke="yellow" stroke-width="2.5" opacity="1" stroke-linecap="butt"/>
<line x1="200.0" y1="0.0" x2="200.0" y2="400.0" stroke="yellow" stroke-width="2.5" opacity="1" stroke-linecap="butt"/>
<polygon points="391.0 204.0, 401.0 200.0, 391.0 196.0, 393.0 200.0" fill="yellow"/><polygon points="204.0 9.0, 200.0 -1.0, 196.0 9.0, 200.0 7.0" fill="yellow"/><image x="-60.0" y="-60.0" width="200" height="200" href="/Users/girirajhira/PycharmProjects/Giraphics3/Taylor/expr.png"/><polyline points="0.0, -1891.67 0.17, -1887.84 0.33, -1884.01 0.5, -1880.19 0.67, -1876.36 0.83, -1872.53 1.0, -1868.7 1.17, -1864.87 1.33, -1861.04 1.5, -1857.21 1.67, -1853.38 1.83, -1849.55 2.0, -1845.72 2.17, -1841.88 2.33, -1838.05 2.5, -1834.22 2.67, -1830.39 2.83, -1826.55 3.0, -1822.72 3.17, -1818.89 3.33, -1815.06 3.5, -1811.22 3.67, -1807.39 3.83, -1803.56 4.0, -1799.72 4.17, -1795.89 4.33, -1792.06 4.5, -1788.22 4.67, -1784.39 4.83, -1780.56 5.0, -1776.72 5.17, -1772.89 5.33, -1769.06 5.5, -1765.23 5.67, -1761.39 5.83, -1757.56 6.0, -1753.73 6.17, -1749.9 6.33, -1746.07 6.5, -1742.23 6.67, -1738.4 6.83, -1734.57 7.0, -1730.74 7.17, -1726.91 7.33, -1723.09 7.5, -1719.26 7.67, -1715.43 7.83, -1711.6 8.0, -1707.77 8.17, -1703.95 8.33, -1700.12 8.5, -1696.3 8.67, -1692.47 8.83, -1688.65 9.0, -1684.82 9.17, -1681.0 9.33, -1677.18 9.5, -1673.36 9.67, -1669.53 9.83, -1665.71 10.0, -1661.89 10.17, -1658.08 10.33, -1654.26 10.5, -1650.44 10.67, -1646.63 10.83, -1642.81 11.0, -1639.0 11.17, -1635.18 11.33, -1631.37 11.5, -1627.56 11.67, -1623.75 11.83, -1619.94 12.0, -1616.13 12.17, -1612.32 12.33, -1608.52 12.5, -1604.71 12.67, -1600.91 12.83, -1597.1 13.0, -1593.3 13.17, -1589.5 13.33, -1585.7 13.5, -1581.9 13.67, -1578.11 13.83, -1574.31 14.0, -1570.51 14.17, -1566.72 14.33, -1562.93 14.5, -1559.14 14.67, -1555.35 14.83, -1551.56 15.0, -1547.77 15.17, -1543.99 15.33, -1540.2 15.5, -1536.42 15.67, -1532.64 15.83, -1528.86 16.0, -1525.08 16.17, -1521.31 16.33, -1517.53 16.5, -1513.76 16.67, -1509.99 16.83, -1506.22 17.0, -1502.45 17.17, -1498.68 17.33, -1494.91 17.5, -1491.15 17.67, -1487.39 17.83, -1483.63 18.0, -1479.87 18.17, -1476.11 18.33, -1472.36 18.5, -1468.6 18.67, -1464.85 18.83, -1461.1 19.0, -1457.35 19.17, -1453.61 19.33, -1449.86 19.5, -1446.12 19.67, -1442.38 19.83, -1438.64 20.0, -1434.91 20.17, -1431.17 20.33, -1427.44 20.5, -1423.71 20.67, -1419.98 20.83, -1416.25 21.0, -1412.53 21.17, -1408.81 21.33, -1405.08 21.5, -1401.37 21.67, -1397.65 21.83, -1393.94 22.0, -1390.22 22.17, -1386.51 22.33, -1382.81 22.5, -1379.1 22.67, -1375.4 22.83, -1371.7 23.0, -1368.0 23.17, -1364.3 23.33, -1360.61 23.5, -1356.91 23.67, -1353.22 23.83, -1349.54 24.0, -1345.85 24.17, -1342.17 24.33, -1338.49 24.5, -1334.81 24.67, -1331.14 24.83, -1327.46 25.0, -1323.79 25.17, -1320.12 25.33, -1316.46 25.5, -1312.8 25.67, -1309.14 25.83, -1305.48 26.0, -1301.82 26.17, -1298.17 26.33, -1294.52 26.5, -1290.87 26.67, -1287.22 26.83, -1283.58 27.0, -1279.94 27.17, -1276.3 27.33, -1272.67 27.5, -1269.04 27.67, -1265.41 27.83, -1261.78 28.0, -1258.16 28.17, -1254.54 28.33, -1250.92 28.5, -1247.3 28.67, -1243.69 28.83, -1240.08 29.0, -1236.47 29.17, -1232.87 29.33, -1229.27 29.5, -1225.67 29.67, -1222.07 29.83, -1218.48 30.0, -1214.89 30.17, -1211.3 30.33, -1207.72 30.5, -1204.14 30.67, -1200.56 30.83, -1196.98 31.0, -1193.41 31.17, -1189.84 31.33, -1186.28 31.5, -1182.71 31.67, -1179.15 31.83, -1175.6 32.0, -1172.04 32.17, -1168.49 32.33, -1164.94 32.5, -1161.4 32.67, -1157.86 32.83, -1154.32 33.0, -1150.78 33.17, -1147.25 33.33, -1143.72 33.5, -1140.2 33.67, -1136.68 33.83, -1133.16 34.0, -1129.64 34.17, -1126.13 34.33, -1122.62 34.5, -1119.11 34.67, -1115.61 34.83, -1112.11 35.0, -1108.61 35.17, -1105.12 35.33, -1101.63 35.5, -1098.14 35.67, -1094.66 35.83, -1091.18 36.0, -1087.71 36.17, -1084.23 36.33, -1080.76 36.5, -1077.3 36.67, -1073.84 36.83, -1070.38 37.0, -1066.92 37.17, -1063.47 37.33, -1060.02 37.5, -1056.58 37.67, -1053.14 37.83, -1049.7 38.0, -1046.26 38.17, -1042.83 38.33, -1039.41 38.5, -1035.98 38.67, -1032.56 38.83, -1029.15 39.0, -1025.73 39.17, -1022.32 39.33, -1018.92 39.5, -1015.52 39.67, -1012.12 39.83, -1008.72 40.0, -1005.33 40.17, -1001.95 40.33, -998.56 40.5, -995.18 40.67, -991.81 40.83, -988.44 41.0, -985.07 41.17, -981.7 41.33, -978.34 41.5, -974.98 41.67, -971.63 41.83, -968.28 42.0, -964.94 42.17, -961.59 42.33, -958.26 42.5, -954.92 42.67, -951.59 42.83, -948.27 43.0, -944.94 43.17, -941.63 43.33, -938.31 43.5, -935.0 43.67, -931.69 43.83, -928.39 44.0, -925.09 44.17, -921.8 44.33, -918.51 44.5, -915.22 44.67, -911.94 44.83, -908.66 45.0, -905.38 45.17, -902.11 45.33, -898.85 45.5, -895.58 45.67, -892.33 45.83, -889.07 46.0, -885.82 46.17, -882.57 46.33, -879.33 46.5, -876.09 46.67, -872.86 46.83, -869.63 47.0, -866.4 47.17, -863.18 47.33, -859.96 47.5, -856.75 47.67, -853.54 47.83, -850.34 48.0, -847.14 48.17, -843.94 48.33, -840.75 48.5, -837.56 48.67, -834.38 48.83, -831.2 49.0, -828.02 49.17, -824.85 49.33, -821.68 49.5, -818.52 49.67, -815.36 49.83, -812.21 50.0, -809.06 50.17, -805.91 50.33, -802.77 50.5, -799.63 50.67, -796.5 50.83, -793.37 51.0, -790.25 51.17, -787.13 51.33, -784.02 51.5, -780.91 51.67, -777.8 51.83, -774.7 52.0, -771.6 52.17, -768.51 52.33, -765.42 52.5, -762.33 52.67, -759.25 52.83, -756.18 53.0, -753.11 53.17, -750.04 53.33, -746.98 53.5, -743.92 53.67, -740.87 53.83, -737.82 54.0, -734.78 54.17, -731.74 54.33, -728.7 54.5, -725.67 54.67, -722.65 54.83, -719.63 55.0, -716.61 55.17, -713.6 55.33, -710.59 55.5, -707.59 55.67, -704.59 55.83, -701.6 56.0, -698.61 56.17, -695.62 56.33, -692.64 56.5, -689.67 56.67, -686.7 56.83, -683.73 57.0, -680.77 57.17, -677.81 57.33, -674.86 57.5, -671.91 57.67, -668.97 57.83, -666.03 58.0, -663.1 58.17, -660.17 58.33, -657.24 58.5, -654.32 58.67, -651.41 58.83, -648.5 59.0, -645.59 59.17, -642.69 59.33, -639.8 59.5, -636.91 59.67, -634.02 59.83, -631.14 60.0, -628.26 60.17, -625.39 60.33, -622.52 60.5, -619.66 60.67, -616.8 60.83, -613.95 61.0, -611.1 61.17, -608.26 61.33, -605.42 61.5, -602.58 61.67, -599.75 61.83, -596.93 62.0, -594.11 62.17, -591.3 62.33, -588.49 62.5, -585.68 62.67, -582.88 62.83, -580.09 63.0, -577.3 63.17, -574.51 63.33, -571.73 63.5, -568.95 63.67, -566.18 63.83, -563.42 64.0, -560.66 64.17, -557.9 64.33, -555.15 64.5, -552.4 64.67, -549.66 64.83, -546.92 65.0, -544.19 65.17, -541.46 65.33, -538.74 65.5, -536.03 65.67, -533.31 65.83, -530.61 66.0, -527.91 66.17, -525.21 66.33, -522.52 66.5, -519.83 66.67, -517.15 66.83, -514.47 67.0, -511.8 67.17, -509.13 67.33, -506.47 67.5, -503.81 67.67, -501.16 67.83, -498.51 68.0, -495.87 68.17, -493.23 68.33, -490.6 68.5, -487.97 68.67, -485.35 68.83, -482.73 69.0, -480.12 69.17, -477.51 69.33, -474.91 69.5, -472.31 69.67, -469.72 69.83, -467.13 70.0, -464.55 70.17, -461.98 70.33, -459.4 70.5, -456.84 70.67, -454.28 70.83, -451.72 71.0, -449.17 71.17, -446.62 71.33, -444.08 71.5, -441.54 71.67, -439.01 71.83, -436.49 72.0, -433.97 72.17, -431.45 72.33, -428.94 72.5, -426.43 72.67, -423.93 72.83, -421.44 73.0, -418.95 73.17, -416.46 73.33, -413.98 73.5, -411.51 73.67, -409.04 73.83, -406.57 74.0, -404.11 74.17, -401.66 74.33, -399.21 74.5, -396.76 74.67, -394.32 74.83, -391.89 75.0, -389.46 75.17, -387.04 75.33, -384.62 75.5, -382.21 75.67, -379.8 75.83, -377.39 76.0, -375.0 76.17, -372.6 76.33, -370.22 76.5, -367.83 76.67, -365.46 76.83, -363.08 77.0, -360.72 77.17, -358.36 77.33, -356.0 77.5, -353.65 77.67, -351.3 77.83, -348.96 78.0, -346.62 78.17, -344.29 78.33, -341.97 78.5, -339.65 78.67, -337.33 78.83, -335.02 79.0, -332.72 79.17, -330.42 79.33, -328.12 79.5, -325.84 79.67, -323.55 79.83, -321.27 80.0, -319.0 80.17, -316.73 80.33, -314.47 80.5, -312.21 80.67, -309.96 80.83, -307.71 81.0, -305.47 81.17, -303.23 81.33, -301.0 81.5, -298.77 81.67, -296.55 81.83, -294.34 82.0, -292.13 82.17, -289.92 82.33, -287.72 82.5, -285.52 82.67, -283.33 82.83, -281.15 83.0, -278.97 83.17, -276.8 83.33, -274.63 83.5, -272.46 83.67, -270.3 83.83, -268.15 84.0, -266.0 84.17, -263.86 84.33, -261.72 84.5, -259.59 84.67, -257.46 84.83, -255.34 85.0, -253.22 85.17, -251.11 85.33, -249.01 85.5, -246.91 85.67, -244.81 85.83, -242.72 86.0, -240.63 86.17, -238.55 86.33, -236.48 86.5, -234.41 86.67, -232.34 86.83, -230.29 87.0, -228.23 87.17, -226.18 87.33, -224.14 87.5, -222.1 87.67, -220.07 87.83, -218.04 88.0, -216.02 88.17, -214.0 88.33, -211.99 88.5, -209.98 88.67, -207.98 88.83, -205.99 89.0, -203.99 89.17, -202.01 89.33, -200.03 89.5, -198.05 89.67, -196.08 89.83, -194.12 90.0, -192.16 90.17, -190.2 90.33, -188.25 90.5, -186.31 90.67, -184.37 90.83, -182.44 91.0, -180.51 91.17, -178.59 91.33, -176.67 91.5, -174.76 91.67, -172.85 91.83, -170.95 92.0, -169.05 92.17, -167.16 92.33, -165.27 92.5, -163.39 92.67, -161.51 92.83, -159.64 93.0, -157.78 93.17, -155.92 93.33, -154.06 93.5, -152.21 93.67, -150.37 93.83, -148.53 94.0, -146.69 94.17, -144.87 94.33, -143.04 94.5, -141.22 94.67, -139.41 94.83, -137.6 95.0, -135.8 95.17, -134.0 95.33, -132.21 95.5, -130.42 95.67, -128.64 95.83, -126.86 96.0, -125.09 96.17, -123.32 96.33, -121.56 96.5, -119.8 96.67, -118.05 96.83, -116.31 97.0, -114.57 97.17, -112.83 97.33, -111.1 97.5, -109.37 97.67, -107.65 97.83, -105.94 98.0, -104.23 98.17, -102.53 98.33, -100.83 98.5, -99.13 98.67, -97.44 98.83, -95.76 99.0, -94.08 99.17, -92.41 99.33, -90.74 99.5, -89.07 99.67, -87.42 99.83, -85.76 100.0, -84.11 100.17, -82.47 100.33, -80.83 100.5, -79.2 100.67, -77.57 100.83, -75.95 101.0, -74.33 101.17, -72.72 101.33, -71.12 101.5, -69.51 101.67, -67.92 101.83, -66.33 102.0, -64.74 102.17, -63.16 102.33, -61.58 102.5, -60.01 102.67, -58.44 102.83, -56.88 103.0, -55.33 103.17, -53.78 103.33, -52.23 103.5, -50.69 103.67, -49.15 103.83, -47.62 104.0, -46.1 104.17, -44.58 104.33, -43.06 104.5, -41.55 104.67, -40.05 104.83, -38.55 105.0, -37.05 105.17, -35.56 105.33, -34.08 105.5, -32.6 105.67, -31.12 105.83, -29.65 106.0, -28.19 106.17, -26.73 106.33, -25.27 106.5, -23.82 106.67, -22.38 106.83, -20.94 107.0, -19.5 107.17, -18.07 107.33, -16.65 107.5, -15.23 107.67, -13.81 107.83, -12.4 108.0, -11.0 108.17, -9.6 108.33, -8.2 108.5, -6.81 108.67, -5.43 108.83, -4.05 109.0, -2.67 109.17, -1.3 109.33, 0.06 109.5, 1.42 109.67, 2.78 109.83, 4.13 110.0, 5.47 110.17, 6.81 110.33, 8.15 110.5, 9.48 110.67, 10.8 110.83, 12.12 111.0, 13.44 111.17, 14.75 111.33, 16.06 111.5, 17.36 111.67, 18.65 111.83, 19.95 112.0, 21.23 112.17, 22.51 112.33, 23.79 112.5, 25.06 112.67, 26.33 112.83, 27.59 113.0, 28.85 113.17, 30.1 113.33, 31.35 113.5, 32.59 113.67, 33.83 113.83, 35.06 114.0, 36.29 114.17, 37.51 114.33, 38.73 114.5, 39.95 114.67, 41.15 114.83, 42.36 115.0, 43.56 115.17, 44.75 115.33, 45.94 115.5, 47.13 115.67, 48.31 115.83, 49.48 116.0, 50.65 116.17, 51.82 116.33, 52.98 116.5, 54.14 116.67, 55.29 116.83, 56.44 117.0, 57.58 117.17, 58.72 117.33, 59.85 117.5, 60.98 117.67, 62.1 117.83, 63.22 118.0, 64.33 118.17, 65.44 118.33, 66.55 118.5, 67.65 118.67, 68.74 118.83, 69.83 119.0, 70.92 119.17, 72.0 119.33, 73.07 119.5, 74.15 119.67, 75.21 119.83, 76.28 120.0, 77.33 120.17, 78.39 120.33, 79.44 120.5, 80.48 120.67, 81.52 120.83, 82.55 121.0, 83.58 121.17, 84.61 121.33, 85.63 121.5, 86.65 121.67, 87.66 121.83, 88.67 122.0, 89.67 122.17, 90.67 122.33, 91.66 122.5, 92.65 122.67, 93.63 122.83, 94.61 123.0, 95.59 123.17, 96.56 123.33, 97.53 123.5, 98.49 123.67, 99.45 123.83, 100.4 124.0, 101.35 124.17, 102.29 124.33, 103.23 124.5, 104.17 124.67, 105.1 124.83, 106.02 125.0, 106.94 125.17, 107.86 125.33, 108.77 125.5, 109.68 125.67, 110.59 125.83, 111.48 126.0, 112.38 126.17, 113.27 126.33, 114.16 126.5, 115.04 126.67, 115.92 126.83, 116.79 127.0, 117.66 127.17, 118.52 127.33, 119.38 127.5, 120.24 127.67, 121.09 127.83, 121.94 128.0, 122.78 128.17, 123.62 128.33, 124.45 128.5, 125.28 128.67, 126.11 128.83, 126.93 129.0, 127.74 129.17, 128.56 129.33, 129.36 129.5, 130.17 129.67, 130.97 129.83, 131.76 130.0, 132.55 130.17, 133.34 130.33, 134.12 130.5, 134.9 130.67, 135.68 130.83, 136.45 131.0, 137.21 131.17, 137.97 131.33, 138.73 131.5, 139.48 131.67, 140.23 131.83, 140.98 132.0, 141.72 132.17, 142.46 132.33, 143.19 132.5, 143.92 132.67, 144.64 132.83, 145.36 133.0, 146.08 133.17, 146.79 133.33, 147.5 133.5, 148.2 133.67, 148.9 133.83, 149.6 134.0, 150.29 134.17, 150.97 134.33, 151.66 134.5, 152.34 134.67, 153.01 134.83, 153.68 135.0, 154.35 135.17, 155.01 135.33, 155.67 135.5, 156.33 135.67, 156.98 135.83, 157.63 136.0, 158.27 136.17, 158.91 136.33, 159.54 136.5, 160.17 136.67, 160.8 136.83, 161.42 137.0, 162.04 137.17, 162.66 137.33, 163.27 137.5, 163.88 137.67, 164.48 137.83, 165.08 138.0, 165.68 138.17, 166.27 138.33, 166.86 138.5, 167.44 138.67, 168.02 138.83, 168.6 139.0, 169.17 139.17, 169.74 139.33, 170.31 139.5, 170.87 139.67, 171.43 139.83, 171.98 140.0, 172.53 140.17, 173.08 140.33, 173.62 140.5, 174.16 140.67, 174.69 140.83, 175.23 141.0, 175.75 141.17, 176.28 141.33, 176.8 141.5, 177.31 141.67, 177.83 141.83, 178.33 142.0, 178.84 142.17, 179.34 142.33, 179.84 142.5, 180.33 142.67, 180.82 142.83, 181.31 143.0, 181.79 143.17, 182.27 143.33, 182.75 143.5, 183.22 143.67, 183.69 143.83, 184.16 144.0, 184.62 144.17, 185.08 144.33, 185.53 144.5, 185.98 144.67, 186.43 144.83, 186.87 145.0, 187.32 145.17, 187.75 145.33, 188.19 145.5, 188.62 145.67, 189.04 145.83, 189.47 146.0, 189.88 146.17, 190.3 146.33, 190.71 146.5, 191.12 146.67, 191.53 146.83, 191.93 147.0, 192.33 147.17, 192.72 147.33, 193.12 147.5, 193.51 147.67, 193.89 147.83, 194.27 148.0, 194.65 148.17, 195.03 148.33, 195.4 148.5, 195.77 148.67, 196.13 148.83, 196.49 149.0, 196.85 149.17, 197.21 149.33, 197.56 149.5, 197.91 149.67, 198.25 149.83, 198.6 150.0, 198.93 150.17, 199.27 150.33, 199.6 150.5, 199.93 150.67, 200.26 150.83, 200.58 151.0, 200.9 151.17, 201.22 151.33, 201.53 151.5, 201.84 151.67, 202.15 151.83, 202.45 152.0, 202.75 152.17, 203.05 152.33, 203.34 152.5, 203.63 152.67, 203.92 152.83, 204.21 153.0, 204.49 153.17, 204.77 153.33, 205.04 153.5, 205.31 153.67, 205.58 153.83, 205.85 154.0, 206.11 154.17, 206.37 154.33, 206.63 154.5, 206.89 154.67, 207.14 154.83, 207.39 155.0, 207.63 155.17, 207.87 155.33, 208.11 155.5, 208.35 155.67, 208.58 155.83, 208.82 156.0, 209.04 156.17, 209.27 156.33, 209.49 156.5, 209.71 156.67, 209.93 156.83, 210.14 157.0, 210.35 157.17, 210.56 157.33, 210.76 157.5, 210.97 157.67, 211.17 157.83, 211.36 158.0, 211.56 158.17, 211.75 158.33, 211.93 158.5, 212.12 158.67, 212.3 158.83, 212.48 159.0, 212.66 159.17, 212.83 159.33, 213.01 159.5, 213.18 159.67, 213.34 159.83, 213.51 160.0, 213.67 160.17, 213.83 160.33, 213.98 160.5, 214.13 160.67, 214.28 160.83, 214.43 161.0, 214.58 161.17, 214.72 161.33, 214.86 161.5, 215.0 161.67, 215.13 161.83, 215.26 162.0, 215.39 162.17, 215.52 162.33, 215.65 162.5, 215.77 162.67, 215.89 162.83, 216.01 163.0, 216.12 163.17, 216.23 163.33, 216.34 163.5, 216.45 163.67, 216.55 163.83, 216.66 164.0, 216.76 164.17, 216.85 164.33, 216.95 164.5, 217.04 164.67, 217.13 164.83, 217.22 165.0, 217.31 165.17, 217.39 165.33, 217.47 165.5, 217.55 165.67, 217.63 165.83, 217.7 166.0, 217.77 166.17, 217.84 166.33, 217.91 166.5, 217.97 166.67, 218.04 166.83, 218.1 167.0, 218.15 167.17, 218.21 167.33, 218.26 167.5, 218.31 167.67, 218.36 167.83, 218.41 168.0, 218.46 168.17, 218.5 168.33, 218.54 168.5, 218.58 168.67, 218.61 168.83, 218.65 169.0, 218.68 169.17, 218.71 169.33, 218.74 169.5, 218.76 169.67, 218.79 169.83, 218.81 170.0, 218.83 170.17, 218.85 170.33, 218.86 170.5, 218.88 170.67, 218.89 170.83, 218.9 171.0, 218.9 171.17, 218.91 171.33, 218.91 171.5, 218.92 171.67, 218.92 171.83, 218.91 172.0, 218.91 172.17, 218.9 172.33, 218.9 172.5, 218.89 172.67, 218.87 172.83, 218.86 173.0, 218.85 173.17, 218.83 173.33, 218.81 173.5, 218.79 173.67, 218.77 173.83, 218.74 174.0, 218.72 174.17, 218.69 174.33, 218.66 174.5, 218.63 174.67, 218.59 174.83, 218.56 175.0, 218.52 175.17, 218.48 175.33, 218.44 175.5, 218.4 175.67, 218.36 175.83, 218.31 176.0, 218.27 176.17, 218.22 176.33, 218.17 176.5, 218.12 176.67, 218.06 176.83, 218.01 177.0, 217.95 177.17, 217.89 177.33, 217.83 177.5, 217.77 177.67, 217.71 177.83, 217.65 178.0, 217.58 178.17, 217.51 178.33, 217.44 178.5, 217.37 178.67, 217.3 178.83, 217.23 179.0, 217.15 179.17, 217.08 179.33, 217.0 179.5, 216.92 179.67, 216.84 179.83, 216.76 180.0, 216.68 180.17, 216.59 180.33, 216.51 180.5, 216.42 180.67, 216.33 180.83, 216.24 181.0, 216.15 181.17, 216.06 181.33, 215.96 181.5, 215.87 181.67, 215.77 181.83, 215.67 182.0, 215.58 182.17, 215.48 182.33, 215.37 182.5, 215.27 182.67, 215.17 182.83, 215.06 183.0, 214.96 183.17, 214.85 183.33, 214.74 183.5, 214.63 183.67, 214.52 183.83, 214.41 184.0, 214.3 184.17, 214.18 184.33, 214.07 184.5, 213.95 184.67, 213.83 184.83, 213.72 185.0, 213.6 185.17, 213.48 185.33, 213.35 185.5, 213.23 185.67, 213.11 185.83, 212.98 186.0, 212.86 186.17, 212.73 186.33, 212.6 186.5, 212.48 186.67, 212.35 186.83, 212.22 187.0, 212.09 187.17, 211.95 187.33, 211.82 187.5, 211.69 187.67, 211.55 187.83, 211.42 188.0, 211.28 188.17, 211.14 188.33, 211.01 188.5, 210.87 188.67, 210.73 188.83, 210.59 189.0, 210.45 189.17, 210.3 189.33, 210.16 189.5, 210.02 189.67, 209.87 189.83, 209.73 190.0, 209.58 190.17, 209.44 190.33, 209.29 190.5, 209.14 190.67, 208.99 190.83, 208.85 191.0, 208.7 191.17, 208.55 191.33, 208.4 191.5, 208.24 191.67, 208.09 191.83, 207.94 192.0, 207.79 192.17, 207.63 192.33, 207.48 192.5, 207.32 192.67, 207.17 192.83, 207.01 193.0, 206.86 193.17, 206.7 193.33, 206.54 193.5, 206.39 193.67, 206.23 193.83, 206.07 194.0, 205.91 194.17, 205.75 194.33, 205.59 194.5, 205.43 194.67, 205.27 194.83, 205.11 195.0, 204.95 195.17, 204.79 195.33, 204.62 195.5, 204.46 195.67, 204.3 195.83, 204.14 196.0, 203.97 196.17, 203.81 196.33, 203.65 196.5, 203.48 196.67, 203.32 196.83, 203.15 197.0, 202.99 197.17, 202.82 197.33, 202.66 197.5, 202.49 197.67, 202.33 197.83, 202.16 198.0, 202.0 198.17, 201.83 198.33, 201.66 198.5, 201.5 198.67, 201.33 198.83, 201.17 199.0, 201.0 199.17, 200.83 199.33, 200.67 199.5, 200.5 199.67, 200.33 199.83, 200.17 200.0, 200.0 200.17, 199.83 200.33, 199.67 200.5, 199.5 200.67, 199.33 200.83, 199.17 201.0, 199.0 201.17, 198.83 201.33, 198.67 201.5, 198.5 201.67, 198.34 201.83, 198.17 202.0, 198.0 202.17, 197.84 202.33, 197.67 202.5, 197.51 202.67, 197.34 202.83, 197.18 203.0, 197.01 203.17, 196.85 203.33, 196.68 203.5, 196.52 203.67, 196.35 203.83, 196.19 204.0, 196.03 204.17, 195.86 204.33, 195.7 204.5, 195.54 204.67, 195.38 204.83, 195.21 205.0, 195.05 205.17, 194.89 205.33, 194.73 205.5, 194.57 205.67, 194.41 205.83, 194.25 206.0, 194.09 206.17, 193.93 206.33, 193.77 206.5, 193.61 206.67, 193.46 206.83, 193.3 207.0, 193.14 207.17, 192.99 207.33, 192.83 207.5, 192.68 207.67, 192.52 207.83, 192.37 208.0, 192.21 208.17, 192.06 208.33, 191.91 208.5, 191.76 208.67, 191.6 208.83, 191.45 209.0, 191.3 209.17, 191.15 209.33, 191.01 209.5, 190.86 209.67, 190.71 209.83, 190.56 210.0, 190.42 210.17, 190.27 210.33, 190.13 210.5, 189.98 210.67, 189.84 210.83, 189.7 211.0, 189.55 211.17, 189.41 211.33, 189.27 211.5, 189.13 211.67, 188.99 211.83, 188.86 212.0, 188.72 212.17, 188.58 212.33, 188.45 212.5, 188.31 212.67, 188.18 212.83, 188.05 213.0, 187.91 213.17, 187.78 213.33, 187.65 213.5, 187.52 213.67, 187.4 213.83, 187.27 214.0, 187.14 214.17, 187.02 214.33, 186.89 214.5, 186.77 214.67, 186.65 214.83, 186.52 215.0, 186.4 215.17, 186.28 215.33, 186.17 215.5, 186.05 215.67, 185.93 215.83, 185.82 216.0, 185.7 216.17, 185.59 216.33, 185.48 216.5, 185.37 216.67, 185.26 216.83, 185.15 217.0, 185.04 217.17, 184.94 217.33, 184.83 217.5, 184.73 217.67, 184.63 217.83, 184.52 218.0, 184.42 218.17, 184.33 218.33, 184.23 218.5, 184.13 218.67, 184.04 218.83, 183.94 219.0, 183.85 219.17, 183.76 219.33, 183.67 219.5, 183.58 219.67, 183.49 219.83, 183.41 220.0, 183.32 220.17, 183.24 220.33, 183.16 220.5, 183.08 220.67, 183.0 220.83, 182.92 221.0, 182.85 221.17, 182.77 221.33, 182.7 221.5, 182.63 221.67, 182.56 221.83, 182.49 222.0, 182.42 222.17, 182.35 222.33, 182.29 222.5, 182.23 222.67, 182.17 222.83, 182.11 223.0, 182.05 223.17, 181.99 223.33, 181.94 223.5, 181.88 223.67, 181.83 223.83, 181.78 224.0, 181.73 224.17, 181.69 224.33, 181.64 224.5, 181.6 224.67, 181.56 224.83, 181.52 225.0, 181.48 225.17, 181.44 225.33, 181.41 225.5, 181.37 225.67, 181.34 225.83, 181.31 226.0, 181.28 226.17, 181.26 226.33, 181.23 226.5, 181.21 226.67, 181.19 226.83, 181.17 227.0, 181.15 227.17, 181.14 227.33, 181.13 227.5, 181.11 227.67, 181.1 227.83, 181.1 228.0, 181.09 228.17, 181.09 228.33, 181.08 228.5, 181.08 228.67, 181.09 228.83, 181.09 229.0, 181.1 229.17, 181.1 229.33, 181.11 229.5, 181.12 229.67, 181.14 229.83, 181.15 230.0, 181.17 230.17, 181.19 230.33, 181.21 230.5, 181.24 230.67, 181.26 230.83, 181.29 231.0, 181.32 231.17, 181.35 231.33, 181.39 231.5, 181.42 231.67, 181.46 231.83, 181.5 232.0, 181.54 232.17, 181.59 232.33, 181.64 232.5, 181.69 232.67, 181.74 232.83, 181.79 233.0, 181.85 233.17, 181.9 233.33, 181.96 233.5, 182.03 233.67, 182.09 233.83, 182.16 234.0, 182.23 234.17, 182.3 234.33, 182.37 234.5, 182.45 234.67, 182.53 234.83, 182.61 235.0, 182.69 235.17, 182.78 235.33, 182.87 235.5, 182.96 235.67, 183.05 235.83, 183.15 236.0, 183.24 236.17, 183.34 236.33, 183.45 236.5, 183.55 236.67, 183.66 236.83, 183.77 237.0, 183.88 237.17, 183.99 237.33, 184.11 237.5, 184.23 237.67, 184.35 237.83, 184.48 238.0, 184.61 238.17, 184.74 238.33, 184.87 238.5, 185.0 238.67, 185.14 238.83, 185.28 239.0, 185.42 239.17, 185.57 239.33, 185.72 239.5, 185.87 239.67, 186.02 239.83, 186.17 240.0, 186.33 240.17, 186.49 240.33, 186.66 240.5, 186.82 240.67, 186.99 240.83, 187.17 241.0, 187.34 241.17, 187.52 241.33, 187.7 241.5, 187.88 241.67, 188.07 241.83, 188.25 242.0, 188.44 242.17, 188.64 242.33, 188.83 242.5, 189.03 242.67, 189.24 242.83, 189.44 243.0, 189.65 243.17, 189.86 243.33, 190.07 243.5, 190.29 243.67, 190.51 243.83, 190.73 244.0, 190.96 244.17, 191.18 244.33, 191.42 244.5, 191.65 244.67, 191.89 244.83, 192.13 245.0, 192.37 245.17, 192.61 245.33, 192.86 245.5, 193.11 245.67, 193.37 245.83, 193.63 246.0, 193.89 246.17, 194.15 246.33, 194.42 246.5, 194.69 246.67, 194.96 246.83, 195.23 247.0, 195.51 247.17, 195.79 247.33, 196.08 247.5, 196.37 247.67, 196.66 247.83, 196.95 248.0, 197.25 248.17, 197.55 248.33, 197.85 248.5, 198.16 248.67, 198.47 248.83, 198.78 249.0, 199.1 249.17, 199.42 249.33, 199.74 249.5, 200.07 249.67, 200.4 249.83, 200.73 250.0, 201.07 250.17, 201.4 250.33, 201.75 250.5, 202.09 250.67, 202.44 250.83, 202.79 251.0, 203.15 251.17, 203.51 251.33, 203.87 251.5, 204.23 251.67, 204.6 251.83, 204.97 252.0, 205.35 252.17, 205.73 252.33, 206.11 252.5, 206.49 252.67, 206.88 252.83, 207.28 253.0, 207.67 253.17, 208.07 253.33, 208.47 253.5, 208.88 253.67, 209.29 253.83, 209.7 254.0, 210.12 254.17, 210.53 254.33, 210.96 254.5, 211.38 254.67, 211.81 254.83, 212.25 255.0, 212.68 255.17, 213.13 255.33, 213.57 255.5, 214.02 255.67, 214.47 255.83, 214.92 256.0, 215.38 256.17, 215.84 256.33, 216.31 256.5, 216.78 256.67, 217.25 256.83, 217.73 257.0, 218.21 257.17, 218.69 257.33, 219.18 257.5, 219.67 257.67, 220.16 257.83, 220.66 258.0, 221.16 258.17, 221.67 258.33, 222.17 258.5, 222.69 258.67, 223.2 258.83, 223.72 259.0, 224.25 259.17, 224.77 259.33, 225.31 259.5, 225.84 259.67, 226.38 259.83, 226.92 260.0, 227.47 260.17, 228.02 260.33, 228.57 260.5, 229.13 260.67, 229.69 260.83, 230.26 261.0, 230.83 261.17, 231.4 261.33, 231.98 261.5, 232.56 261.67, 233.14 261.83, 233.73 262.0, 234.32 262.17, 234.92 262.33, 235.52 262.5, 236.12 262.67, 236.73 262.83, 237.34 263.0, 237.96 263.17, 238.58 263.33, 239.2 263.5, 239.83 263.67, 240.46 263.83, 241.09 264.0, 241.73 264.17, 242.37 264.33, 243.02 264.5, 243.67 264.67, 244.33 264.83, 244.99 265.0, 245.65 265.17, 246.32 265.33, 246.99 265.5, 247.66 265.67, 248.34 265.83, 249.03 266.0, 249.71 266.17, 250.4 266.33, 251.1 266.5, 251.8 266.67, 252.5 266.83, 253.21 267.0, 253.92 267.17, 254.64 267.33, 255.36 267.5, 256.08 267.67, 256.81 267.83, 257.54 268.0, 258.28 268.17, 259.02 268.33, 259.77 268.5, 260.52 268.67, 261.27 268.83, 262.03 269.0, 262.79 269.17, 263.55 269.33, 264.32 269.5, 265.1 269.67, 265.88 269.83, 266.66 270.0, 267.45 270.17, 268.24 270.33, 269.03 270.5, 269.83 270.67, 270.64 270.83, 271.44 271.0, 272.26 271.17, 273.07 271.33, 273.89 271.5, 274.72 271.67, 275.55 271.83, 276.38 272.0, 277.22 272.17, 278.06 272.33, 278.91 272.5, 279.76 272.67, 280.62 272.83, 281.48 273.0, 282.34 273.17, 283.21 273.33, 284.08 273.5, 284.96 273.67, 285.84 273.83, 286.73 274.0, 287.62 274.17, 288.52 274.33, 289.41 274.5, 290.32 274.67, 291.23 274.83, 292.14 275.0, 293.06 275.17, 293.98 275.33, 294.9 275.5, 295.83 275.67, 296.77 275.83, 297.71 276.0, 298.65 276.17, 299.6 276.33, 300.55 276.5, 301.51 276.67, 302.47 276.83, 303.44 277.0, 304.41 277.17, 305.39 277.33, 306.37 277.5, 307.35 277.67, 308.34 277.83, 309.33 278.0, 310.33 278.17, 311.33 278.33, 312.34 278.5, 313.35 278.67, 314.37 278.83, 315.39 279.0, 316.42 279.17, 317.45 279.33, 318.48 279.5, 319.52 279.67, 320.56 279.83, 321.61 280.0, 322.67 280.17, 323.72 280.33, 324.79 280.5, 325.85 280.67, 326.93 280.83, 328.0 281.0, 329.08 281.17, 330.17 281.33, 331.26 281.5, 332.35 281.67, 333.45 281.83, 334.56 282.0, 335.67 282.17, 336.78 282.33, 337.9 282.5, 339.02 282.67, 340.15 282.83, 341.28 283.0, 342.42 283.17, 343.56 283.33, 344.71 283.5, 345.86 283.67, 347.02 283.83, 348.18 284.0, 349.35 284.17, 350.52 284.33, 351.69 284.5, 352.87 284.67, 354.06 284.83, 355.25 285.0, 356.44 285.17, 357.64 285.33, 358.85 285.5, 360.05 285.67, 361.27 285.83, 362.49 286.0, 363.71 286.17, 364.94 286.33, 366.17 286.5, 367.41 286.67, 368.65 286.83, 369.9 287.0, 371.15 287.17, 372.41 287.33, 373.67 287.5, 374.94 287.67, 376.21 287.83, 377.49 288.0, 378.77 288.17, 380.05 288.33, 381.35 288.5, 382.64 288.67, 383.94 288.83, 385.25 289.0, 386.56 289.17, 387.88 289.33, 389.2 289.5, 390.52 289.67, 391.85 289.83, 393.19 290.0, 394.53 290.17, 395.87 290.33, 397.22 290.5, 398.58 290.67, 399.94 290.83, 401.3 291.0, 402.67 291.17, 404.05 291.33, 405.43 291.5, 406.81 291.67, 408.2 291.83, 409.6 292.0, 411.0 292.17, 412.4 292.33, 413.81 292.5, 415.23 292.67, 416.65 292.83, 418.07 293.0, 419.5 293.17, 420.94 293.33, 422.38 293.5, 423.82 293.67, 425.27 293.83, 426.73 294.0, 428.19 294.17, 429.65 294.33, 431.12 294.5, 432.6 294.67, 434.08 294.83, 435.56 295.0, 437.05 295.17, 438.55 295.33, 440.05 295.5, 441.55 295.67, 443.06 295.83, 444.58 296.0, 446.1 296.17, 447.62 296.33, 449.15 296.5, 450.69 296.67, 452.23 296.83, 453.78 297.0, 455.33 297.17, 456.88 297.33, 458.44 297.5, 460.01 297.67, 461.58 297.83, 463.16 298.0, 464.74 298.17, 466.33 298.33, 467.92 298.5, 469.51 298.67, 471.12 298.83, 472.72 299.0, 474.33 299.17, 475.95 299.33, 477.57 299.5, 479.2 299.67, 480.83 299.83, 482.47 300.0, 484.11 300.17, 485.76 300.33, 487.42 300.5, 489.07 300.67, 490.74 300.83, 492.41 301.0, 494.08 301.17, 495.76 301.33, 497.44 301.5, 499.13 301.67, 500.83 301.83, 502.53 302.0, 504.23 302.17, 505.94 302.33, 507.65 302.5, 509.37 302.67, 511.1 302.83, 512.83 303.0, 514.57 303.17, 516.31 303.33, 518.05 303.5, 519.8 303.67, 521.56 303.83, 523.32 304.0, 525.09 304.17, 526.86 304.33, 528.64 304.5, 530.42 304.67, 532.21 304.83, 534.0 305.0, 535.8 305.17, 537.6 305.33, 539.41 305.5, 541.22 305.67, 543.04 305.83, 544.87 306.0, 546.69 306.17, 548.53 306.33, 550.37 306.5, 552.21 306.67, 554.06 306.83, 555.92 307.0, 557.78 307.17, 559.64 307.33, 561.51 307.5, 563.39 307.67, 565.27 307.83, 567.16 308.0, 569.05 308.17, 570.95 308.33, 572.85 308.5, 574.76 308.67, 576.67 308.83, 578.59 309.0, 580.51 309.17, 582.44 309.33, 584.37 309.5, 586.31 309.67, 588.25 309.83, 590.2 310.0, 592.16 310.17, 594.12 310.33, 596.08 310.5, 598.05 310.67, 600.03 310.83, 602.01 311.0, 603.99 311.17, 605.99 311.33, 607.98 311.5, 609.98 311.67, 611.99 311.83, 614.0 312.0, 616.02 312.17, 618.04 312.33, 620.07 312.5, 622.1 312.67, 624.14 312.83, 626.18 313.0, 628.23 313.17, 630.29 313.33, 632.34 313.5, 634.41 313.67, 636.48 313.83, 638.55 314.0, 640.63 314.17, 642.72 314.33, 644.81 314.5, 646.91 314.67, 649.01 314.83, 651.11 315.0, 653.22 315.17, 655.34 315.33, 657.46 315.5, 659.59 315.67, 661.72 315.83, 663.86 316.0, 666.0 316.17, 668.15 316.33, 670.3 316.5, 672.46 316.67, 674.63 316.83, 676.8 317.0, 678.97 317.17, 681.15 317.33, 683.33 317.5, 685.52 317.67, 687.72 317.83, 689.92 318.0, 692.13 318.17, 694.34 318.33, 696.55 318.5, 698.77 318.67, 701.0 318.83, 703.23 319.0, 705.47 319.17, 707.71 319.33, 709.96 319.5, 712.21 319.67, 714.47 319.83, 716.73 320.0, 719.0 320.17, 721.27 320.33, 723.55 320.5, 725.84 320.67, 728.12 320.83, 730.42 321.0, 732.72 321.17, 735.02 321.33, 737.33 321.5, 739.65 321.67, 741.97 321.83, 744.29 322.0, 746.62 322.17, 748.96 322.33, 751.3 322.5, 753.65 322.67, 756.0 322.83, 758.36 323.0, 760.72 323.17, 763.08 323.33, 765.46 323.5, 767.83 323.67, 770.22 323.83, 772.6 324.0, 775.0 324.17, 777.39 324.33, 779.8 324.5, 782.21 324.67, 784.62 324.83, 787.04 325.0, 789.46 325.17, 791.89 325.33, 794.32 325.5, 796.76 325.67, 799.21 325.83, 801.66 326.0, 804.11 326.17, 806.57 326.33, 809.04 326.5, 811.51 326.67, 813.98 326.83, 816.46 327.0, 818.95 327.17, 821.44 327.33, 823.93 327.5, 826.43 327.67, 828.94 327.83, 831.45 328.0, 833.97 328.17, 836.49 328.33, 839.01 328.5, 841.54 328.67, 844.08 328.83, 846.62 329.0, 849.17 329.17, 851.72 329.33, 854.28 329.5, 856.84 329.67, 859.4 329.83, 861.98 330.0, 864.55 330.17, 867.13 330.33, 869.72 330.5, 872.31 330.67, 874.91 330.83, 877.51 331.0, 880.12 331.17, 882.73 331.33, 885.35 331.5, 887.97 331.67, 890.6 331.83, 893.23 332.0, 895.87 332.17, 898.51 332.33, 901.16 332.5, 903.81 332.67, 906.47 332.83, 909.13 333.0, 911.8 333.17, 914.47 333.33, 917.15 333.5, 919.83 333.67, 922.52 333.83, 925.21 334.0, 927.91 334.17, 930.61 334.33, 933.31 334.5, 936.03 334.67, 938.74 334.83, 941.46 335.0, 944.19 335.17, 946.92 335.33, 949.66 335.5, 952.4 335.67, 955.15 335.83, 957.9 336.0, 960.66 336.17, 963.42 336.33, 966.18 336.5, 968.95 336.67, 971.73 336.83, 974.51 337.0, 977.3 337.17, 980.09 337.33, 982.88 337.5, 985.68 337.67, 988.49 337.83, 991.3 338.0, 994.11 338.17, 996.93 338.33, 999.75 338.5, 1002.58 338.67, 1005.42 338.83, 1008.26 339.0, 1011.1 339.17, 1013.95 339.33, 1016.8 339.5, 1019.66 339.67, 1022.52 339.83, 1025.39 340.0, 1028.26 340.17, 1031.14 340.33, 1034.02 340.5, 1036.91 340.67, 1039.8 340.83, 1042.69 341.0, 1045.59 341.17, 1048.5 341.33, 1051.41 341.5, 1054.32 341.67, 1057.24 341.83, 1060.17 342.0, 1063.1 342.17, 1066.03 342.33, 1068.97 342.5, 1071.91 342.67, 1074.86 342.83, 1077.81 343.0, 1080.77 343.17, 1083.73 343.33, 1086.7 343.5, 1089.67 343.67, 1092.64 343.83, 1095.62 344.0, 1098.61 344.17, 1101.6 344.33, 1104.59 344.5, 1107.59 344.67, 1110.59 344.83, 1113.6 345.0, 1116.61 345.17, 1119.63 345.33, 1122.65 345.5, 1125.67 345.67, 1128.7 345.83, 1131.74 346.0, 1134.78 346.17, 1137.82 346.33, 1140.87 346.5, 1143.92 346.67, 1146.98 346.83, 1150.04 347.0, 1153.11 347.17, 1156.18 347.33, 1159.25 347.5, 1162.33 347.67, 1165.42 347.83, 1168.51 348.0, 1171.6 348.17, 1174.7 348.33, 1177.8 348.5, 1180.91 348.67, 1184.02 348.83, 1187.13 349.0, 1190.25 349.17, 1193.37 349.33, 1196.5 349.5, 1199.63 349.67, 1202.77 349.83, 1205.91 350.0, 1209.06 350.17, 1212.21 350.33, 1215.36 350.5, 1218.52 350.67, 1221.68 350.83, 1224.85 351.0, 1228.02 351.17, 1231.2 351.33, 1234.38 351.5, 1237.56 351.67, 1240.75 351.83, 1243.94 352.0, 1247.14 352.17, 1250.34 352.33, 1253.54 352.5, 1256.75 352.67, 1259.96 352.83, 1263.18 353.0, 1266.4 353.17, 1269.63 353.33, 1272.86 353.5, 1276.09 353.67, 1279.33 353.83, 1282.57 354.0, 1285.82 354.17, 1289.07 354.33, 1292.33 354.5, 1295.58 354.67, 1298.85 354.83, 1302.11 355.0, 1305.38 355.17, 1308.66 355.33, 1311.94 355.5, 1315.22 355.67, 1318.51 355.83, 1321.8 356.0, 1325.09 356.17, 1328.39 356.33, 1331.69 356.5, 1335.0 356.67, 1338.31 356.83, 1341.63 357.0, 1344.94 357.17, 1348.27 357.33, 1351.59 357.5, 1354.92 357.67, 1358.26 357.83, 1361.59 358.0, 1364.94 358.17, 1368.28 358.33, 1371.63 358.5, 1374.98 358.67, 1378.34 358.83, 1381.7 359.0, 1385.07 359.17, 1388.44 359.33, 1391.81 359.5, 1395.18 359.67, 1398.56 359.83, 1401.95 360.0, 1405.33 360.17, 1408.72 360.33, 1412.12 360.5, 1415.52 360.67, 1418.92 360.83, 1422.32 361.0, 1425.73 361.17, 1429.15 361.33, 1432.56 361.5, 1435.98 361.67, 1439.41 361.83, 1442.83 362.0, 1446.26 362.17, 1449.7 362.33, 1453.14 362.5, 1456.58 362.67, 1460.02 362.83, 1463.47 363.0, 1466.92 363.17, 1470.38 363.33, 1473.84 363.5, 1477.3 363.67, 1480.76 363.83, 1484.23 364.0, 1487.71 364.17, 1491.18 364.33, 1494.66 364.5, 1498.14 364.67, 1501.63 364.83, 1505.12 365.0, 1508.61 365.17, 1512.11 365.33, 1515.61 365.5, 1519.11 365.67, 1522.62 365.83, 1526.13 366.0, 1529.64 366.17, 1533.16 366.33, 1536.68 366.5, 1540.2 366.67, 1543.72 366.83, 1547.25 367.0, 1550.78 367.17, 1554.32 367.33, 1557.86 367.5, 1561.4 367.67, 1564.94 367.83, 1568.49 368.0, 1572.04 368.17, 1575.6 368.33, 1579.15 368.5, 1582.71 368.67, 1586.28 368.83, 1589.84 369.0, 1593.41 369.17, 1596.98 369.33, 1600.56 369.5, 1604.14 369.67, 1607.72 369.83, 1611.3 370.0, 1614.89 370.17, 1618.48 370.33, 1622.07 370.5, 1625.67 370.67, 1629.27 370.83, 1632.87 371.0, 1636.47 371.17, 1640.08 371.33, 1643.69 371.5, 1647.3 371.67, 1650.92 371.83, 1654.54 372.0, 1658.16 372.17, 1661.78 372.33, 1665.41 372.5, 1669.04 372.67, 1672.67 372.83, 1676.3 373.0, 1679.94 373.17, 1683.58 373.33, 1687.22 373.5, 1690.87 373.67, 1694.52 373.83, 1698.17 374.0, 1701.82 374.17, 1705.48 374.33, 1709.14 374.5, 1712.8 374.67, 1716.46 374.83, 1720.12 375.0, 1723.79 375.17, 1727.46 375.33, 1731.14 375.5, 1734.81 375.67, 1738.49 375.83, 1742.17 376.0, 1745.85 376.17, 1749.54 376.33, 1753.22 376.5, 1756.91 376.67, 1760.61 376.83, 1764.3 377.0, 1768.0 377.17, 1771.7 377.33, 1775.4 377.5, 1779.1 377.67, 1782.81 377.83, 1786.51 378.0, 1790.22 378.17, 1793.94 378.33, 1797.65 378.5, 1801.37 378.67, 1805.08 378.83, 1808.81 379.0, 1812.53 379.17, 1816.25 379.33, 1819.98 379.5, 1823.71 379.67, 1827.44 379.83, 1831.17 380.0, 1834.91 380.17, 1838.64 380.33, 1842.38 380.5, 1846.12 380.67, 1849.86 380.83, 1853.61 381.0, 1857.35 381.17, 1861.1 381.33, 1864.85 381.5, 1868.6 381.67, 1872.36 381.83, 1876.11 382.0, 1879.87 382.17, 1883.63 382.33, 1887.39 382.5, 1891.15 382.67, 1894.91 382.83, 1898.68 383.0, 1902.45 383.17, 1906.22 383.33, 1909.99 383.5, 1913.76 383.67, 1917.53 383.83, 1921.31 384.0, 1925.08 384.17, 1928.86 384.33, 1932.64 384.5, 1936.42 384.67, 1940.2 384.83, 1943.99 385.0, 1947.77 385.17, 1951.56 385.33, 1955.35 385.5, 1959.14 385.67, 1962.93 385.83, 1966.72 386.0, 1970.51 386.17, 1974.31 386.33, 1978.11 386.5, 1981.9 386.67, 1985.7 386.83, 1989.5 387.0, 1993.3 387.17, 1997.1 387.33, 2000.91 387.5, 2004.71 387.67, 2008.52 387.83, 2012.32 388.0, 2016.13 388.17, 2019.94 388.33, 2023.75 388.5, 2027.56 388.67, 2031.37 388.83, 2035.18 389.0, 2039.0 389.17, 2042.81 389.33, 2046.63 389.5, 2050.44 389.67, 2054.26 389.83, 2058.08 390.0, 2061.89 390.17, 2065.71 390.33, 2069.53 390.5, 2073.36 390.67, 2077.18 390.83, 2081.0 391.0, 2084.82 391.17, 2088.65 391.33, 2092.47 391.5, 2096.3 391.67, 2100.12 391.83, 2103.95 392.0, 2107.77 392.17, 2111.6 392.33, 2115.43 392.5, 2119.26 392.67, 2123.09 392.83, 2126.91 393.0, 2130.74 393.17, 2134.57 393.33, 2138.4 393.5, 2142.23 393.67, 2146.07 393.83, 2149.9 394.0, 2153.73 394.17, 2157.56 394.33, 2161.39 394.5, 2165.23 394.67, 2169.06 394.83, 2172.89 395.0, 2176.72 395.17, 2180.56 395.33, 2184.39 395.5, 2188.22 395.67, 2192.06 395.83, 2195.89 396.0, 2199.72 396.17, 2203.56 396.33, 2207.39 396.5, 2211.22 396.67, 2215.06 396.83, 2218.89 397.0, 2222.72 397.17, 2226.55 397.33, 2230.39 397.5, 2234.22 397.67, 2238.05 397.83, 2241.88 398.0, 2245.72 398.17, 2249.55 398.33, 2253.38 398.5, 2257.21 398.67, 2261.04 398.83, 2264.87 399.0, 2268.7 399.17, 2272.53 399.33, 2276.36 399.5, 2280.19 399.67, 2284.01 399.83, 2287.84 400.0, 2291.67 " fill="none" stroke="white" stroke-width="1.5" stroke-linejoin="round" stroke-opacity="1"/>

 </svg>