<svg version="1.1" 
 baseProfile="full" 
 width="400" 
 height="400" 
 xmlns="http://www.w3.org/2000/svg">
<rect x="0.0" y="0.0" width="400" height="400" fill="black" stroke="black" stroke-width="0" opacity="1"/>
<line x1="0.0" y1="0.0" x2="0.0" y2="400.0" stroke="white" stroke-width="1" opacity="0.4" stroke-linecap="butt"/>
<line x1="40.0" y1="0.0" x2="40.0" y2="400.0" stroke="white" stroke-width="1" opacity="0.4" stroke-linecap="butt"/>
<line x1="80.0" y1="0.0" x2="80.0" y2="400.0" stroke="white" stroke-width="1" opacity="0.4" stroke-linecap="butt"/>
<line x1="120.0" y1="0.0" x2="120.0" y2="400.0" stroke="white" stroke-width="1" opacity="0.4" stroke-linecap="butt"/>
<line x1="160.0" y1="0.0" x2="160.0" y2="400.0" stroke="white" stroke-width="1" opacity="0.4" stroke-linecap="butt"/>
<line x1="200.0" y1="0.0" x2="200.0" y2="400.0" stroke="white" stroke-width="1" opacity="0.4" stroke-linecap="butt"/>
<line x1="240.0" y1="0.0" x2="240.0" y2="400.0" stroke="white" stroke-width="1" opacity="0.4" stroke-linecap="butt"/>
<line x1="280.0" y1="0.0" x2="280.0" y2="400.0" stroke="white" stroke-width="1" opacity="0.4" stroke-linecap="butt"/>
<line x1="320.0" y1="0.0" x2="320.0" y2="400.0" stroke="white" stroke-width="1" opacity="0.4" stroke-linecap="butt"/>
<line x1="360.0" y1="0.0" x2="360.0" y2="400.0" stroke="white" stroke-width="1" opacity="0.4" stroke-linecap="butt"/>
<line x1="0.0" y1="0.0" x2="400.0" y2="0.0" stroke="white" stroke-width="1" opacity="0.4" stroke-linecap="butt"/>
<line x1="0.0" y1="40.0" x2="400.0" y2="40.0" stroke="white" stroke-width="1" opacity="0.4" stroke-linecap="butt"/>
<line x1="0.0" y1="80.0" x2="400.0" y2="80.0" stroke="white" stroke-width="1" opacity="0.4" stroke-linecap="butt"/>
<line x1="0.0" y1="120.0" x2="400.0" y2="120.0" stroke="white" stroke-width="1" opacity="0.4" stroke-linecap="butt"/>
<line x1="0.0" y1="160.0" x2="400.0" y2="160.0" stroke="white" stroke-width="1" opacity="0.4" stroke-linecap="butt"/>
<line x1="0.0" y1="200.0" x2="400.0" y2="200.0" stroke="white" stroke-width="1" opacity="0.4" stroke-linecap="butt"/>
<line x1="0.0" y1="240.0" x2="400.0" y2="240.0" stroke="white" stroke-width="1" opacity="0.4" stroke-linecap="butt"/>
<line x1="0.0" y1="280.0" x2="400.0" y2="280.0" stroke="white" stroke-width="1" opacity="0.4" stroke-linecap="butt"/>
<line x1="0.0" y1="320.0" x2="400.0" y2="320.0" stroke="white" stroke-width="1" opacity="0.4" stroke-linecap="butt"/>
<line x1="0.0" y1="360.0" x2="400.0" y2="360.0" stroke="white" stroke-width="1" opacity="0.4" stroke-linecap="butt"/>
<line x1="0.0" y1="200.0" x2="400.0" y2="200.0" stroke="yellow" stroke-width="2.5" opacity="1" stroke-linecap="butt"/>
<line x1="200.0" y1="0.0" x2="200.0" y2="400.0" stroke="yellow" stroke-width="2.5" opacity="1" stroke-linecap="butt"/>
<polygon points="391.0 204.0, 401.0 200.0, 391.0 196.0, 393.0 200.0" fill="yellow"/><polygon points="204.0 9.0, 200.0 -1.0, 196.0 9.0, 200.0 7.0" fill="yellow"/><image x="-60.0" y="-60.0" width="200" height="200" href="/Users/girirajhira/PycharmProjects/Giraphics3/Taylor/expr.png"/><polyline points="0.0, 5191.67 0.17, 5166.03 0.33, 5140.49 0.5, 5115.05 0.67, 5089.71 0.83, 5064.46 1.0, 5039.31 1.17, 5014.26 1.33, 4989.31 1.5, 4964.45 1.67, 4939.69 1.83, 4915.03 2.0, 4890.46 2.17, 4865.99 2.33, 4841.62 2.5, 4817.34 2.67, 4793.15 2.83, 4769.06 3.0, 4745.06 3.17, 4721.16 3.33, 4697.35 3.5, 4673.64 3.67, 4650.01 3.83, 4626.49 4.0, 4603.05 4.17, 4579.71 4.33, 4556.46 4.5, 4533.3 4.67, 4510.23 4.83, 4487.26 5.0, 4464.37 5.17, 4441.58 5.33, 4418.88 5.5, 4396.26 5.67, 4373.74 5.83, 4351.31 6.0, 4328.97 6.17, 4306.72 6.33, 4284.56 6.5, 4262.48 6.67, 4240.5 6.83, 4218.6 7.0, 4196.79 7.17, 4175.07 7.33, 4153.44 7.5, 4131.9 7.67, 4110.44 7.83, 4089.07 8.0, 4067.78 8.17, 4046.59 8.33, 4025.47 8.5, 4004.45 8.67, 3983.51 8.83, 3962.66 9.0, 3941.89 9.17, 3921.2 9.33, 3900.61 9.5, 3880.09 9.67, 3859.66 9.83, 3839.32 10.0, 3819.05 10.17, 3798.87 10.33, 3778.78 10.5, 3758.77 10.67, 3738.84 10.83, 3718.99 11.0, 3699.23 11.17, 3679.54 11.33, 3659.94 11.5, 3640.43 11.67, 3620.99 11.83, 3601.63 12.0, 3582.36 12.17, 3563.16 12.33, 3544.05 12.5, 3525.01 12.67, 3506.06 12.83, 3487.19 13.0, 3468.39 13.17, 3449.68 13.33, 3431.04 13.5, 3412.48 13.67, 3394.0 13.83, 3375.6 14.0, 3357.28 14.17, 3339.03 14.33, 3320.87 14.5, 3302.78 14.67, 3284.76 14.83, 3266.83 15.0, 3248.97 15.17, 3231.19 15.33, 3213.48 15.5, 3195.85 15.67, 3178.29 15.83, 3160.81 16.0, 3143.41 16.17, 3126.08 16.33, 3108.83 16.5, 3091.65 16.67, 3074.54 16.83, 3057.51 17.0, 3040.56 17.17, 3023.67 17.33, 3006.86 17.5, 2990.13 17.67, 2973.47 17.83, 2956.88 18.0, 2940.36 18.17, 2923.91 18.33, 2907.54 18.5, 2891.24 18.67, 2875.01 18.83, 2858.85 19.0, 2842.77 19.17, 2826.75 19.33, 2810.81 19.5, 2794.93 19.67, 2779.13 19.83, 2763.39 20.0, 2747.73 20.17, 2732.14 20.33, 2716.61 20.5, 2701.16 20.67, 2685.77 20.83, 2670.46 21.0, 2655.21 21.17, 2640.03 21.33, 2624.92 21.5, 2609.88 21.67, 2594.9 21.83, 2579.99 22.0, 2565.15 22.17, 2550.38 22.33, 2535.67 22.5, 2521.03 22.67, 2506.46 22.83, 2491.95 23.0, 2477.51 23.17, 2463.14 23.33, 2448.83 23.5, 2434.59 23.67, 2420.41 23.83, 2406.3 24.0, 2392.25 24.17, 2378.27 24.33, 2364.35 24.5, 2350.49 24.67, 2336.7 24.83, 2322.98 25.0, 2309.31 25.17, 2295.71 25.33, 2282.18 25.5, 2268.7 25.67, 2255.29 25.83, 2241.95 26.0, 2228.66 26.17, 2215.44 26.33, 2202.28 26.5, 2189.18 26.67, 2176.14 26.83, 2163.16 27.0, 2150.25 27.17, 2137.39 27.33, 2124.6 27.5, 2111.87 27.67, 2099.2 27.83, 2086.58 28.0, 2074.03 28.17, 2061.54 28.33, 2049.11 28.5, 2036.74 28.67, 2024.42 28.83, 2012.17 29.0, 1999.97 29.17, 1987.83 29.33, 1975.76 29.5, 1963.74 29.67, 1951.77 29.83, 1939.87 30.0, 1928.02 30.17, 1916.23 30.33, 1904.5 30.5, 1892.83 30.67, 1881.21 30.83, 1869.65 31.0, 1858.14 31.17, 1846.69 31.33, 1835.3 31.5, 1823.97 31.67, 1812.69 31.83, 1801.46 32.0, 1790.29 32.17, 1779.18 32.33, 1768.12 32.5, 1757.11 32.67, 1746.17 32.83, 1735.27 33.0, 1724.43 33.17, 1713.64 33.33, 1702.91 33.5, 1692.23 33.67, 1681.6 33.83, 1671.03 34.0, 1660.51 34.17, 1650.05 34.33, 1639.63 34.5, 1629.27 34.67, 1618.97 34.83, 1608.71 35.0, 1598.51 35.17, 1588.35 35.33, 1578.25 35.5, 1568.21 35.67, 1558.21 35.83, 1548.26 36.0, 1538.37 36.17, 1528.52 36.33, 1518.73 36.5, 1508.99 36.67, 1499.29 36.83, 1489.65 37.0, 1480.06 37.17, 1470.52 37.33, 1461.02 37.5, 1451.58 37.67, 1442.18 37.83, 1432.84 38.0, 1423.54 38.17, 1414.29 38.33, 1405.09 38.5, 1395.94 38.67, 1386.84 38.83, 1377.79 39.0, 1368.78 39.17, 1359.82 39.33, 1350.91 39.5, 1342.04 39.67, 1333.23 39.83, 1324.46 40.0, 1315.73 40.17, 1307.06 40.33, 1298.43 40.5, 1289.84 40.67, 1281.3 40.83, 1272.81 41.0, 1264.37 41.17, 1255.97 41.33, 1247.61 41.5, 1239.3 41.67, 1231.04 41.83, 1222.82 42.0, 1214.64 42.17, 1206.52 42.33, 1198.43 42.5, 1190.39 42.67, 1182.39 42.83, 1174.44 43.0, 1166.53 43.17, 1158.67 43.33, 1150.84 43.5, 1143.07 43.67, 1135.33 43.83, 1127.64 44.0, 1119.99 44.17, 1112.38 44.33, 1104.82 44.5, 1097.3 44.67, 1089.82 44.83, 1082.38 45.0, 1074.99 45.17, 1067.63 45.33, 1060.32 45.5, 1053.05 45.67, 1045.82 45.83, 1038.63 46.0, 1031.49 46.17, 1024.38 46.33, 1017.31 46.5, 1010.29 46.67, 1003.3 46.83, 996.36 47.0, 989.46 47.17, 982.59 47.33, 975.77 47.5, 968.98 47.67, 962.23 47.83, 955.53 48.0, 948.86 48.17, 942.23 48.33, 935.64 48.5, 929.09 48.67, 922.58 48.83, 916.11 49.0, 909.67 49.17, 903.27 49.33, 896.91 49.5, 890.59 49.67, 884.31 49.83, 878.06 50.0, 871.85 50.17, 865.68 50.33, 859.54 50.5, 853.44 50.67, 847.38 50.83, 841.36 51.0, 835.37 51.17, 829.42 51.33, 823.5 51.5, 817.62 51.67, 811.78 51.83, 805.97 52.0, 800.2 52.17, 794.46 52.33, 788.76 52.5, 783.09 52.67, 777.46 52.83, 771.86 53.0, 766.3 53.17, 760.77 53.33, 755.28 53.5, 749.82 53.67, 744.39 53.83, 739.0 54.0, 733.65 54.17, 728.32 54.33, 723.04 54.5, 717.78 54.67, 712.56 54.83, 707.37 55.0, 702.21 55.17, 697.09 55.33, 692.0 55.5, 686.94 55.67, 681.91 55.83, 676.92 56.0, 671.96 56.17, 667.03 56.33, 662.14 56.5, 657.27 56.67, 652.44 56.83, 647.64 57.0, 642.87 57.17, 638.13 57.33, 633.42 57.5, 628.74 57.67, 624.1 57.83, 619.48 58.0, 614.9 58.17, 610.35 58.33, 605.82 58.5, 601.33 58.67, 596.87 58.83, 592.43 59.0, 588.03 59.17, 583.66 59.33, 579.32 59.5, 575.0 59.67, 570.72 59.83, 566.46 60.0, 562.24 60.17, 558.04 60.33, 553.87 60.5, 549.73 60.67, 545.62 60.83, 541.54 61.0, 537.48 61.17, 533.46 61.33, 529.46 61.5, 525.49 61.67, 521.55 61.83, 517.63 62.0, 513.75 62.17, 509.89 62.33, 506.05 62.5, 502.25 62.67, 498.47 62.83, 494.72 63.0, 491.0 63.17, 487.3 63.33, 483.63 63.5, 479.99 63.67, 476.37 63.83, 472.78 64.0, 469.21 64.17, 465.68 64.33, 462.16 64.5, 458.68 64.67, 455.21 64.83, 451.78 65.0, 448.37 65.17, 444.98 65.33, 441.62 65.5, 438.29 65.67, 434.98 65.83, 431.69 66.0, 428.43 66.17, 425.2 66.33, 421.99 66.5, 418.8 66.67, 415.64 66.83, 412.5 67.0, 409.39 67.17, 406.3 67.33, 403.23 67.5, 400.19 67.67, 397.17 67.83, 394.17 68.0, 391.2 68.17, 388.25 68.33, 385.33 68.5, 382.42 68.67, 379.54 68.83, 376.69 69.0, 373.85 69.17, 371.04 69.33, 368.25 69.5, 365.49 69.67, 362.74 69.83, 360.02 70.0, 357.32 70.17, 354.64 70.33, 351.99 70.5, 349.35 70.67, 346.74 70.83, 344.15 71.0, 341.58 71.17, 339.03 71.33, 336.5 71.5, 333.99 71.67, 331.51 71.83, 329.05 72.0, 326.6 72.17, 324.18 72.33, 321.78 72.5, 319.4 72.67, 317.03 72.83, 314.69 73.0, 312.37 73.17, 310.07 73.33, 307.79 73.5, 305.53 73.67, 303.29 73.83, 301.07 74.0, 298.86 74.17, 296.68 74.33, 294.52 74.5, 292.38 74.67, 290.25 74.83, 288.14 75.0, 286.06 75.17, 283.99 75.33, 281.94 75.5, 279.91 75.67, 277.9 75.83, 275.91 76.0, 273.93 76.17, 271.97 76.33, 270.04 76.5, 268.12 76.67, 266.21 76.83, 264.33 77.0, 262.46 77.17, 260.61 77.33, 258.78 77.5, 256.97 77.67, 255.17 77.83, 253.39 78.0, 251.63 78.17, 249.89 78.33, 248.16 78.5, 246.45 78.67, 244.75 78.83, 243.08 79.0, 241.42 79.17, 239.77 79.33, 238.15 79.5, 236.54 79.67, 234.94 79.83, 233.36 80.0, 231.8 80.17, 230.25 80.33, 228.72 80.5, 227.21 80.67, 225.71 80.83, 224.23 81.0, 222.76 81.17, 221.31 81.33, 219.87 81.5, 218.45 81.67, 217.05 81.83, 215.65 82.0, 214.28 82.17, 212.92 82.33, 211.57 82.5, 210.24 82.67, 208.93 82.83, 207.62 83.0, 206.34 83.17, 205.07 83.33, 203.81 83.5, 202.56 83.67, 201.33 83.83, 200.12 84.0, 198.92 84.17, 197.73 84.33, 196.56 84.5, 195.4 84.67, 194.25 84.83, 193.12 85.0, 192.0 85.17, 190.89 85.33, 189.8 85.5, 188.72 85.67, 187.66 85.83, 186.6 86.0, 185.56 86.17, 184.54 86.33, 183.53 86.5, 182.52 86.67, 181.54 86.83, 180.56 87.0, 179.6 87.17, 178.65 87.33, 177.71 87.5, 176.79 87.67, 175.87 87.83, 174.97 88.0, 174.08 88.17, 173.21 88.33, 172.34 88.5, 171.49 88.67, 170.65 88.83, 169.82 89.0, 169.0 89.17, 168.19 89.33, 167.4 89.5, 166.62 89.67, 165.84 89.83, 165.08 90.0, 164.34 90.17, 163.6 90.33, 162.87 90.5, 162.15 90.67, 161.45 90.83, 160.75 91.0, 160.07 91.17, 159.4 91.33, 158.74 91.5, 158.08 91.67, 157.44 91.83, 156.81 92.0, 156.19 92.17, 155.58 92.33, 154.98 92.5, 154.39 92.67, 153.81 92.83, 153.24 93.0, 152.68 93.17, 152.13 93.33, 151.59 93.5, 151.06 93.67, 150.54 93.83, 150.03 94.0, 149.53 94.17, 149.03 94.33, 148.55 94.5, 148.08 94.67, 147.61 94.83, 147.16 95.0, 146.71 95.17, 146.27 95.33, 145.85 95.5, 145.43 95.67, 145.02 95.83, 144.62 96.0, 144.22 96.17, 143.84 96.33, 143.46 96.5, 143.1 96.67, 142.74 96.83, 142.39 97.0, 142.04 97.17, 141.71 97.33, 141.38 97.5, 141.07 97.67, 140.76 97.83, 140.46 98.0, 140.16 98.17, 139.88 98.33, 139.6 98.5, 139.33 98.67, 139.07 98.83, 138.81 99.0, 138.57 99.17, 138.33 99.33, 138.09 99.5, 137.87 99.67, 137.65 99.83, 137.44 100.0, 137.24 100.17, 137.04 100.33, 136.86 100.5, 136.67 100.67, 136.5 100.83, 136.33 101.0, 136.17 101.17, 136.02 101.33, 135.87 101.5, 135.73 101.67, 135.6 101.83, 135.47 102.0, 135.35 102.17, 135.23 102.33, 135.13 102.5, 135.02 102.67, 134.93 102.83, 134.84 103.0, 134.76 103.17, 134.68 103.33, 134.61 103.5, 134.55 103.67, 134.49 103.83, 134.43 104.0, 134.39 104.17, 134.35 104.33, 134.31 104.5, 134.28 104.67, 134.26 104.83, 134.24 105.0, 134.23 105.17, 134.22 105.33, 134.22 105.5, 134.22 105.67, 134.23 105.83, 134.25 106.0, 134.27 106.17, 134.29 106.33, 134.32 106.5, 134.36 106.67, 134.4 106.83, 134.44 107.0, 134.49 107.17, 134.55 107.33, 134.61 107.5, 134.67 107.67, 134.74 107.83, 134.81 108.0, 134.89 108.17, 134.97 108.33, 135.06 108.5, 135.15 108.67, 135.25 108.83, 135.35 109.0, 135.46 109.17, 135.57 109.33, 135.68 109.5, 135.8 109.67, 135.92 109.83, 136.05 110.0, 136.18 110.17, 136.31 110.33, 136.45 110.5, 136.59 110.67, 136.74 110.83, 136.89 111.0, 137.05 111.17, 137.2 111.33, 137.37 111.5, 137.53 111.67, 137.7 111.83, 137.87 112.0, 138.05 112.17, 138.23 112.33, 138.41 112.5, 138.6 112.67, 138.79 112.83, 138.98 113.0, 139.18 113.17, 139.38 113.33, 139.58 113.5, 139.78 113.67, 139.99 113.83, 140.21 114.0, 140.42 114.17, 140.64 114.33, 140.86 114.5, 141.08 114.67, 141.31 114.83, 141.54 115.0, 141.77 115.17, 142.01 115.33, 142.25 115.5, 142.49 115.67, 142.73 115.83, 142.98 116.0, 143.23 116.17, 143.48 116.33, 143.73 116.5, 143.99 116.67, 144.25 116.83, 144.51 117.0, 144.77 117.17, 145.04 117.33, 145.3 117.5, 145.57 117.67, 145.85 117.83, 146.12 118.0, 146.4 118.17, 146.68 118.33, 146.96 118.5, 147.24 118.67, 147.52 118.83, 147.81 119.0, 148.1 119.17, 148.39 119.33, 148.68 119.5, 148.97 119.67, 149.27 119.83, 149.57 120.0, 149.87 120.17, 150.17 120.33, 150.47 120.5, 150.77 120.67, 151.08 120.83, 151.39 121.0, 151.7 121.17, 152.01 121.33, 152.32 121.5, 152.63 121.67, 152.94 121.83, 153.26 122.0, 153.58 122.17, 153.9 122.33, 154.21 122.5, 154.54 122.67, 154.86 122.83, 155.18 123.0, 155.5 123.17, 155.83 123.33, 156.16 123.5, 156.48 123.67, 156.81 123.83, 157.14 124.0, 157.47 124.17, 157.8 124.33, 158.14 124.5, 158.47 124.67, 158.8 124.83, 159.14 125.0, 159.47 125.17, 159.81 125.33, 160.14 125.5, 160.48 125.67, 160.82 125.83, 161.16 126.0, 161.5 126.17, 161.84 126.33, 162.18 126.5, 162.52 126.67, 162.86 126.83, 163.2 127.0, 163.55 127.17, 163.89 127.33, 164.23 127.5, 164.58 127.67, 164.92 127.83, 165.26 128.0, 165.61 128.17, 165.95 128.33, 166.3 128.5, 166.64 128.67, 166.99 128.83, 167.34 129.0, 167.68 129.17, 168.03 129.33, 168.37 129.5, 168.72 129.67, 169.07 129.83, 169.41 130.0, 169.76 130.17, 170.1 130.33, 170.45 130.5, 170.8 130.67, 171.14 130.83, 171.49 131.0, 171.83 131.17, 172.18 131.33, 172.52 131.5, 172.87 131.67, 173.21 131.83, 173.56 132.0, 173.9 132.17, 174.25 132.33, 174.59 132.5, 174.93 132.67, 175.28 132.83, 175.62 133.0, 175.96 133.17, 176.3 133.33, 176.65 133.5, 176.99 133.67, 177.33 133.83, 177.67 134.0, 178.01 134.17, 178.35 134.33, 178.69 134.5, 179.02 134.67, 179.36 134.83, 179.7 135.0, 180.03 135.17, 180.37 135.33, 180.7 135.5, 181.04 135.67, 181.37 135.83, 181.7 136.0, 182.04 136.17, 182.37 136.33, 182.7 136.5, 183.03 136.67, 183.36 136.83, 183.69 137.0, 184.01 137.17, 184.34 137.33, 184.66 137.5, 184.99 137.67, 185.31 137.83, 185.64 138.0, 185.96 138.17, 186.28 138.33, 186.6 138.5, 186.92 138.67, 187.24 138.83, 187.55 139.0, 187.87 139.17, 188.18 139.33, 188.5 139.5, 188.81 139.67, 189.12 139.83, 189.43 140.0, 189.74 140.17, 190.05 140.33, 190.36 140.5, 190.67 140.67, 190.97 140.83, 191.28 141.0, 191.58 141.17, 191.88 141.33, 192.18 141.5, 192.48 141.67, 192.78 141.83, 193.07 142.0, 193.37 142.17, 193.66 142.33, 193.96 142.5, 194.25 142.67, 194.54 142.83, 194.83 143.0, 195.11 143.17, 195.4 143.33, 195.68 143.5, 195.97 143.67, 196.25 143.83, 196.53 144.0, 196.81 144.17, 197.09 144.33, 197.36 144.5, 197.64 144.67, 197.91 144.83, 198.19 145.0, 198.46 145.17, 198.72 145.33, 198.99 145.5, 199.26 145.67, 199.52 145.83, 199.79 146.0, 200.05 146.17, 200.31 146.33, 200.57 146.5, 200.82 146.67, 201.08 146.83, 201.33 147.0, 201.59 147.17, 201.84 147.33, 202.09 147.5, 202.33 147.67, 202.58 147.83, 202.82 148.0, 203.07 148.17, 203.31 148.33, 203.55 148.5, 203.79 148.67, 204.02 148.83, 204.26 149.0, 204.49 149.17, 204.72 149.33, 204.95 149.5, 205.18 149.67, 205.4 149.83, 205.63 150.0, 205.85 150.17, 206.07 150.33, 206.29 150.5, 206.51 150.67, 206.73 150.83, 206.94 151.0, 207.15 151.17, 207.36 151.33, 207.57 151.5, 207.78 151.67, 207.98 151.83, 208.19 152.0, 208.39 152.17, 208.59 152.33, 208.79 152.5, 208.98 152.67, 209.18 152.83, 209.37 153.0, 209.56 153.17, 209.75 153.33, 209.94 153.5, 210.13 153.67, 210.31 153.83, 210.49 154.0, 210.67 154.17, 210.85 154.33, 211.03 154.5, 211.2 154.67, 211.38 154.83, 211.55 155.0, 211.72 155.17, 211.88 155.33, 212.05 155.5, 212.21 155.67, 212.38 155.83, 212.54 156.0, 212.69 156.17, 212.85 156.33, 213.01 156.5, 213.16 156.67, 213.31 156.83, 213.46 157.0, 213.6 157.17, 213.75 157.33, 213.89 157.5, 214.03 157.67, 214.17 157.83, 214.31 158.0, 214.45 158.17, 214.58 158.33, 214.71 158.5, 214.84 158.67, 214.97 158.83, 215.1 159.0, 215.22 159.17, 215.35 159.33, 215.47 159.5, 215.59 159.67, 215.7 159.83, 215.82 160.0, 215.93 160.17, 216.04 160.33, 216.15 160.5, 216.26 160.67, 216.37 160.83, 216.47 161.0, 216.57 161.17, 216.67 161.33, 216.77 161.5, 216.87 161.67, 216.96 161.83, 217.06 162.0, 217.15 162.17, 217.24 162.33, 217.32 162.5, 217.41 162.67, 217.49 162.83, 217.58 163.0, 217.66 163.17, 217.73 163.33, 217.81 163.5, 217.88 163.67, 217.96 163.83, 218.03 164.0, 218.1 164.17, 218.16 164.33, 218.23 164.5, 218.29 164.67, 218.35 164.83, 218.41 165.0, 218.47 165.17, 218.52 165.33, 218.58 165.5, 218.63 165.67, 218.68 165.83, 218.73 166.0, 218.78 166.17, 218.82 166.33, 218.87 166.5, 218.91 166.67, 218.95 166.83, 218.98 167.0, 219.02 167.17, 219.05 167.33, 219.09 167.5, 219.12 167.67, 219.15 167.83, 219.17 168.0, 219.2 168.17, 219.22 168.33, 219.24 168.5, 219.26 168.67, 219.28 168.83, 219.3 169.0, 219.31 169.17, 219.33 169.33, 219.34 169.5, 219.35 169.67, 219.36 169.83, 219.36 170.0, 219.37 170.17, 219.37 170.33, 219.37 170.5, 219.37 170.67, 219.37 170.83, 219.36 171.0, 219.36 171.17, 219.35 171.33, 219.34 171.5, 219.33 171.67, 219.32 171.83, 219.31 172.0, 219.29 172.17, 219.27 172.33, 219.25 172.5, 219.23 172.67, 219.21 172.83, 219.19 173.0, 219.16 173.17, 219.14 173.33, 219.11 173.5, 219.08 173.67, 219.05 173.83, 219.01 174.0, 218.98 174.17, 218.94 174.33, 218.9 174.5, 218.86 174.67, 218.82 174.83, 218.78 175.0, 218.74 175.17, 218.69 175.33, 218.65 175.5, 218.6 175.67, 218.55 175.83, 218.5 176.0, 218.44 176.17, 218.39 176.33, 218.33 176.5, 218.27 176.67, 218.22 176.83, 218.16 177.0, 218.09 177.17, 218.03 177.33, 217.97 177.5, 217.9 177.67, 217.83 177.83, 217.76 178.0, 217.69 178.17, 217.62 178.33, 217.55 178.5, 217.48 178.67, 217.4 178.83, 217.32 179.0, 217.24 179.17, 217.17 179.33, 217.08 179.5, 217.0 179.67, 216.92 179.83, 216.83 180.0, 216.75 180.17, 216.66 180.33, 216.57 180.5, 216.48 180.67, 216.39 180.83, 216.3 181.0, 216.2 181.17, 216.11 181.33, 216.01 181.5, 215.92 181.67, 215.82 181.83, 215.72 182.0, 215.62 182.17, 215.52 182.33, 215.41 182.5, 215.31 182.67, 215.2 182.83, 215.1 183.0, 214.99 183.17, 214.88 183.33, 214.77 183.5, 214.66 183.67, 214.55 183.83, 214.43 184.0, 214.32 184.17, 214.2 184.33, 214.09 184.5, 213.97 184.67, 213.85 184.83, 213.73 185.0, 213.61 185.17, 213.49 185.33, 213.37 185.5, 213.25 185.67, 213.12 185.83, 213.0 186.0, 212.87 186.17, 212.74 186.33, 212.62 186.5, 212.49 186.67, 212.36 186.83, 212.23 187.0, 212.09 187.17, 211.96 187.33, 211.83 187.5, 211.69 187.67, 211.56 187.83, 211.42 188.0, 211.29 188.17, 211.15 188.33, 211.01 188.5, 210.87 188.67, 210.73 188.83, 210.59 189.0, 210.45 189.17, 210.31 189.33, 210.16 189.5, 210.02 189.67, 209.88 189.83, 209.73 190.0, 209.59 190.17, 209.44 190.33, 209.29 190.5, 209.14 190.67, 209.0 190.83, 208.85 191.0, 208.7 191.17, 208.55 191.33, 208.4 191.5, 208.25 191.67, 208.09 191.83, 207.94 192.0, 207.79 192.17, 207.63 192.33, 207.48 192.5, 207.32 192.67, 207.17 192.83, 207.01 193.0, 206.86 193.17, 206.7 193.33, 206.54 193.5, 206.39 193.67, 206.23 193.83, 206.07 194.0, 205.91 194.17, 205.75 194.33, 205.59 194.5, 205.43 194.67, 205.27 194.83, 205.11 195.0, 204.95 195.17, 204.79 195.33, 204.62 195.5, 204.46 195.67, 204.3 195.83, 204.14 196.0, 203.97 196.17, 203.81 196.33, 203.65 196.5, 203.48 196.67, 203.32 196.83, 203.15 197.0, 202.99 197.17, 202.82 197.33, 202.66 197.5, 202.49 197.67, 202.33 197.83, 202.16 198.0, 202.0 198.17, 201.83 198.33, 201.66 198.5, 201.5 198.67, 201.33 198.83, 201.17 199.0, 201.0 199.17, 200.83 199.33, 200.67 199.5, 200.5 199.67, 200.33 199.83, 200.17 200.0, 200.0 200.17, 199.83 200.33, 199.67 200.5, 199.5 200.67, 199.33 200.83, 199.17 201.0, 199.0 201.17, 198.83 201.33, 198.67 201.5, 198.5 201.67, 198.34 201.83, 198.17 202.0, 198.0 202.17, 197.84 202.33, 197.67 202.5, 197.51 202.67, 197.34 202.83, 197.18 203.0, 197.01 203.17, 196.85 203.33, 196.68 203.5, 196.52 203.67, 196.35 203.83, 196.19 204.0, 196.03 204.17, 195.86 204.33, 195.7 204.5, 195.54 204.67, 195.38 204.83, 195.21 205.0, 195.05 205.17, 194.89 205.33, 194.73 205.5, 194.57 205.67, 194.41 205.83, 194.25 206.0, 194.09 206.17, 193.93 206.33, 193.77 206.5, 193.61 206.67, 193.46 206.83, 193.3 207.0, 193.14 207.17, 192.99 207.33, 192.83 207.5, 192.68 207.67, 192.52 207.83, 192.37 208.0, 192.21 208.17, 192.06 208.33, 191.91 208.5, 191.75 208.67, 191.6 208.83, 191.45 209.0, 191.3 209.17, 191.15 209.33, 191.0 209.5, 190.86 209.67, 190.71 209.83, 190.56 210.0, 190.41 210.17, 190.27 210.33, 190.12 210.5, 189.98 210.67, 189.84 210.83, 189.69 211.0, 189.55 211.17, 189.41 211.33, 189.27 211.5, 189.13 211.67, 188.99 211.83, 188.85 212.0, 188.71 212.17, 188.58 212.33, 188.44 212.5, 188.31 212.67, 188.17 212.83, 188.04 213.0, 187.91 213.17, 187.77 213.33, 187.64 213.5, 187.51 213.67, 187.38 213.83, 187.26 214.0, 187.13 214.17, 187.0 214.33, 186.88 214.5, 186.75 214.67, 186.63 214.83, 186.51 215.0, 186.39 215.17, 186.27 215.33, 186.15 215.5, 186.03 215.67, 185.91 215.83, 185.8 216.0, 185.68 216.17, 185.57 216.33, 185.45 216.5, 185.34 216.67, 185.23 216.83, 185.12 217.0, 185.01 217.17, 184.9 217.33, 184.8 217.5, 184.69 217.67, 184.59 217.83, 184.48 218.0, 184.38 218.17, 184.28 218.33, 184.18 218.5, 184.08 218.67, 183.99 218.83, 183.89 219.0, 183.8 219.17, 183.7 219.33, 183.61 219.5, 183.52 219.67, 183.43 219.83, 183.34 220.0, 183.25 220.17, 183.17 220.33, 183.08 220.5, 183.0 220.67, 182.92 220.83, 182.83 221.0, 182.76 221.17, 182.68 221.33, 182.6 221.5, 182.52 221.67, 182.45 221.83, 182.38 222.0, 182.31 222.17, 182.24 222.33, 182.17 222.5, 182.1 222.67, 182.03 222.83, 181.97 223.0, 181.91 223.17, 181.84 223.33, 181.78 223.5, 181.73 223.67, 181.67 223.83, 181.61 224.0, 181.56 224.17, 181.5 224.33, 181.45 224.5, 181.4 224.67, 181.35 224.83, 181.31 225.0, 181.26 225.17, 181.22 225.33, 181.18 225.5, 181.14 225.67, 181.1 225.83, 181.06 226.0, 181.02 226.17, 180.99 226.33, 180.95 226.5, 180.92 226.67, 180.89 226.83, 180.86 227.0, 180.84 227.17, 180.81 227.33, 180.79 227.5, 180.77 227.67, 180.75 227.83, 180.73 228.0, 180.71 228.17, 180.69 228.33, 180.68 228.5, 180.67 228.67, 180.66 228.83, 180.65 229.0, 180.64 229.17, 180.64 229.33, 180.63 229.5, 180.63 229.67, 180.63 229.83, 180.63 230.0, 180.63 230.17, 180.64 230.33, 180.64 230.5, 180.65 230.67, 180.66 230.83, 180.67 231.0, 180.69 231.17, 180.7 231.33, 180.72 231.5, 180.74 231.67, 180.76 231.83, 180.78 232.0, 180.8 232.17, 180.83 232.33, 180.85 232.5, 180.88 232.67, 180.91 232.83, 180.95 233.0, 180.98 233.17, 181.02 233.33, 181.05 233.5, 181.09 233.67, 181.13 233.83, 181.18 234.0, 181.22 234.17, 181.27 234.33, 181.32 234.5, 181.37 234.67, 181.42 234.83, 181.48 235.0, 181.53 235.17, 181.59 235.33, 181.65 235.5, 181.71 235.67, 181.77 235.83, 181.84 236.0, 181.9 236.17, 181.97 236.33, 182.04 236.5, 182.12 236.67, 182.19 236.83, 182.27 237.0, 182.34 237.17, 182.42 237.33, 182.51 237.5, 182.59 237.67, 182.68 237.83, 182.76 238.0, 182.85 238.17, 182.94 238.33, 183.04 238.5, 183.13 238.67, 183.23 238.83, 183.33 239.0, 183.43 239.17, 183.53 239.33, 183.63 239.5, 183.74 239.67, 183.85 239.83, 183.96 240.0, 184.07 240.17, 184.18 240.33, 184.3 240.5, 184.41 240.67, 184.53 240.83, 184.65 241.0, 184.78 241.17, 184.9 241.33, 185.03 241.5, 185.16 241.67, 185.29 241.83, 185.42 242.0, 185.55 242.17, 185.69 242.33, 185.83 242.5, 185.97 242.67, 186.11 242.83, 186.25 243.0, 186.4 243.17, 186.54 243.33, 186.69 243.5, 186.84 243.67, 186.99 243.83, 187.15 244.0, 187.31 244.17, 187.46 244.33, 187.62 244.5, 187.79 244.67, 187.95 244.83, 188.12 245.0, 188.28 245.17, 188.45 245.33, 188.62 245.5, 188.8 245.67, 188.97 245.83, 189.15 246.0, 189.33 246.17, 189.51 246.33, 189.69 246.5, 189.87 246.67, 190.06 246.83, 190.25 247.0, 190.44 247.17, 190.63 247.33, 190.82 247.5, 191.02 247.67, 191.21 247.83, 191.41 248.0, 191.61 248.17, 191.81 248.33, 192.02 248.5, 192.22 248.67, 192.43 248.83, 192.64 249.0, 192.85 249.17, 193.06 249.33, 193.27 249.5, 193.49 249.67, 193.71 249.83, 193.93 250.0, 194.15 250.17, 194.37 250.33, 194.6 250.5, 194.82 250.67, 195.05 250.83, 195.28 251.0, 195.51 251.17, 195.74 251.33, 195.98 251.5, 196.21 251.67, 196.45 251.83, 196.69 252.0, 196.93 252.17, 197.18 252.33, 197.42 252.5, 197.67 252.67, 197.91 252.83, 198.16 253.0, 198.41 253.17, 198.67 253.33, 198.92 253.5, 199.18 253.67, 199.43 253.83, 199.69 254.0, 199.95 254.17, 200.21 254.33, 200.48 254.5, 200.74 254.67, 201.01 254.83, 201.28 255.0, 201.54 255.17, 201.81 255.33, 202.09 255.5, 202.36 255.67, 202.64 255.83, 202.91 256.0, 203.19 256.17, 203.47 256.33, 203.75 256.5, 204.03 256.67, 204.32 256.83, 204.6 257.0, 204.89 257.17, 205.17 257.33, 205.46 257.5, 205.75 257.67, 206.04 257.83, 206.34 258.0, 206.63 258.17, 206.93 258.33, 207.22 258.5, 207.52 258.67, 207.82 258.83, 208.12 259.0, 208.42 259.17, 208.72 259.33, 209.03 259.5, 209.33 259.67, 209.64 259.83, 209.95 260.0, 210.26 260.17, 210.57 260.33, 210.88 260.5, 211.19 260.67, 211.5 260.83, 211.82 261.0, 212.13 261.17, 212.45 261.33, 212.76 261.5, 213.08 261.67, 213.4 261.83, 213.72 262.0, 214.04 262.17, 214.36 262.33, 214.69 262.5, 215.01 262.67, 215.34 262.83, 215.66 263.0, 215.99 263.17, 216.31 263.33, 216.64 263.5, 216.97 263.67, 217.3 263.83, 217.63 264.0, 217.96 264.17, 218.3 264.33, 218.63 264.5, 218.96 264.67, 219.3 264.83, 219.63 265.0, 219.97 265.17, 220.3 265.33, 220.64 265.5, 220.98 265.67, 221.31 265.83, 221.65 266.0, 221.99 266.17, 222.33 266.33, 222.67 266.5, 223.01 266.67, 223.35 266.83, 223.7 267.0, 224.04 267.17, 224.38 267.33, 224.72 267.5, 225.07 267.67, 225.41 267.83, 225.75 268.0, 226.1 268.17, 226.44 268.33, 226.79 268.5, 227.13 268.67, 227.48 268.83, 227.82 269.0, 228.17 269.17, 228.51 269.33, 228.86 269.5, 229.2 269.67, 229.55 269.83, 229.9 270.0, 230.24 270.17, 230.59 270.33, 230.93 270.5, 231.28 270.67, 231.63 270.83, 231.97 271.0, 232.32 271.17, 232.66 271.33, 233.01 271.5, 233.36 271.67, 233.7 271.83, 234.05 272.0, 234.39 272.17, 234.74 272.33, 235.08 272.5, 235.42 272.67, 235.77 272.83, 236.11 273.0, 236.45 273.17, 236.8 273.33, 237.14 273.5, 237.48 273.67, 237.82 273.83, 238.16 274.0, 238.5 274.17, 238.84 274.33, 239.18 274.5, 239.52 274.67, 239.86 274.83, 240.19 275.0, 240.53 275.17, 240.86 275.33, 241.2 275.5, 241.53 275.67, 241.86 275.83, 242.2 276.0, 242.53 276.17, 242.86 276.33, 243.19 276.5, 243.52 276.67, 243.84 276.83, 244.17 277.0, 244.5 277.17, 244.82 277.33, 245.14 277.5, 245.46 277.67, 245.79 277.83, 246.1 278.0, 246.42 278.17, 246.74 278.33, 247.06 278.5, 247.37 278.67, 247.68 278.83, 247.99 279.0, 248.3 279.17, 248.61 279.33, 248.92 279.5, 249.23 279.67, 249.53 279.83, 249.83 280.0, 250.13 280.17, 250.43 280.33, 250.73 280.5, 251.03 280.67, 251.32 280.83, 251.61 281.0, 251.9 281.17, 252.19 281.33, 252.48 281.5, 252.76 281.67, 253.04 281.83, 253.32 282.0, 253.6 282.17, 253.88 282.33, 254.15 282.5, 254.43 282.67, 254.7 282.83, 254.96 283.0, 255.23 283.17, 255.49 283.33, 255.75 283.5, 256.01 283.67, 256.27 283.83, 256.52 284.0, 256.77 284.17, 257.02 284.33, 257.27 284.5, 257.51 284.67, 257.75 284.83, 257.99 285.0, 258.23 285.17, 258.46 285.33, 258.69 285.5, 258.92 285.67, 259.14 285.83, 259.36 286.0, 259.58 286.17, 259.79 286.33, 260.01 286.5, 260.22 286.67, 260.42 286.83, 260.62 287.0, 260.82 287.17, 261.02 287.33, 261.21 287.5, 261.4 287.67, 261.59 287.83, 261.77 288.0, 261.95 288.17, 262.13 288.33, 262.3 288.5, 262.47 288.67, 262.63 288.83, 262.8 289.0, 262.95 289.17, 263.11 289.33, 263.26 289.5, 263.41 289.67, 263.55 289.83, 263.69 290.0, 263.82 290.17, 263.95 290.33, 264.08 290.5, 264.2 290.67, 264.32 290.83, 264.43 291.0, 264.54 291.17, 264.65 291.33, 264.75 291.5, 264.85 291.67, 264.94 291.83, 265.03 292.0, 265.11 292.17, 265.19 292.33, 265.26 292.5, 265.33 292.67, 265.39 292.83, 265.45 293.0, 265.51 293.17, 265.56 293.33, 265.6 293.5, 265.64 293.67, 265.68 293.83, 265.71 294.0, 265.73 294.17, 265.75 294.33, 265.77 294.5, 265.78 294.67, 265.78 294.83, 265.78 295.0, 265.77 295.17, 265.76 295.33, 265.74 295.5, 265.72 295.67, 265.69 295.83, 265.65 296.0, 265.61 296.17, 265.57 296.33, 265.51 296.5, 265.45 296.67, 265.39 296.83, 265.32 297.0, 265.24 297.17, 265.16 297.33, 265.07 297.5, 264.98 297.67, 264.87 297.83, 264.77 298.0, 264.65 298.17, 264.53 298.33, 264.4 298.5, 264.27 298.67, 264.13 298.83, 263.98 299.0, 263.83 299.17, 263.67 299.33, 263.5 299.5, 263.33 299.67, 263.14 299.83, 262.96 300.0, 262.76 300.17, 262.56 300.33, 262.35 300.5, 262.13 300.67, 261.91 300.83, 261.67 301.0, 261.43 301.17, 261.19 301.33, 260.93 301.5, 260.67 301.67, 260.4 301.83, 260.12 302.0, 259.84 302.17, 259.54 302.33, 259.24 302.5, 258.93 302.67, 258.62 302.83, 258.29 303.0, 257.96 303.17, 257.61 303.33, 257.26 303.5, 256.9 303.67, 256.54 303.83, 256.16 304.0, 255.78 304.17, 255.38 304.33, 254.98 304.5, 254.57 304.67, 254.15 304.83, 253.73 305.0, 253.29 305.17, 252.84 305.33, 252.39 305.5, 251.92 305.67, 251.45 305.83, 250.97 306.0, 250.47 306.17, 249.97 306.33, 249.46 306.5, 248.94 306.67, 248.41 306.83, 247.87 307.0, 247.32 307.17, 246.76 307.33, 246.19 307.5, 245.61 307.67, 245.02 307.83, 244.42 308.0, 243.81 308.17, 243.19 308.33, 242.56 308.5, 241.92 308.67, 241.26 308.83, 240.6 309.0, 239.93 309.17, 239.25 309.33, 238.55 309.5, 237.85 309.67, 237.13 309.83, 236.4 310.0, 235.66 310.17, 234.92 310.33, 234.16 310.5, 233.38 310.67, 232.6 310.83, 231.81 311.0, 231.0 311.17, 230.18 311.33, 229.35 311.5, 228.51 311.67, 227.66 311.83, 226.79 312.0, 225.92 312.17, 225.03 312.33, 224.13 312.5, 223.21 312.67, 222.29 312.83, 221.35 313.0, 220.4 313.17, 219.44 313.33, 218.46 313.5, 217.48 313.67, 216.47 313.83, 215.46 314.0, 214.44 314.17, 213.4 314.33, 212.34 314.5, 211.28 314.67, 210.2 314.83, 209.11 315.0, 208.0 315.17, 206.88 315.33, 205.75 315.5, 204.6 315.67, 203.44 315.83, 202.27 316.0, 201.08 316.17, 199.88 316.33, 198.67 316.5, 197.44 316.67, 196.19 316.83, 194.93 317.0, 193.66 317.17, 192.38 317.33, 191.07 317.5, 189.76 317.67, 188.43 317.83, 187.08 318.0, 185.72 318.17, 184.35 318.33, 182.95 318.5, 181.55 318.67, 180.13 318.83, 178.69 319.0, 177.24 319.17, 175.77 319.33, 174.29 319.5, 172.79 319.67, 171.28 319.83, 169.75 320.0, 168.2 320.17, 166.64 320.33, 165.06 320.5, 163.46 320.67, 161.85 320.83, 160.23 321.0, 158.58 321.17, 156.92 321.33, 155.25 321.5, 153.55 321.67, 151.84 321.83, 150.11 322.0, 148.37 322.17, 146.61 322.33, 144.83 322.5, 143.03 322.67, 141.22 322.83, 139.39 323.0, 137.54 323.17, 135.67 323.33, 133.79 323.5, 131.88 323.67, 129.96 323.83, 128.03 324.0, 126.07 324.17, 124.09 324.33, 122.1 324.5, 120.09 324.67, 118.06 324.83, 116.01 325.0, 113.94 325.17, 111.86 325.33, 109.75 325.5, 107.62 325.67, 105.48 325.83, 103.32 326.0, 101.14 326.17, 98.93 326.33, 96.71 326.5, 94.47 326.67, 92.21 326.83, 89.93 327.0, 87.63 327.17, 85.31 327.33, 82.97 327.5, 80.6 327.67, 78.22 327.83, 75.82 328.0, 73.4 328.17, 70.95 328.33, 68.49 328.5, 66.01 328.67, 63.5 328.83, 60.97 329.0, 58.42 329.17, 55.85 329.33, 53.26 329.5, 50.65 329.67, 48.01 329.83, 45.36 330.0, 42.68 330.17, 39.98 330.33, 37.26 330.5, 34.51 330.67, 31.75 330.83, 28.96 331.0, 26.15 331.17, 23.31 331.33, 20.46 331.5, 17.58 331.67, 14.67 331.83, 11.75 332.0, 8.8 332.17, 5.83 332.33, 2.83 332.5, -0.19 332.67, -3.23 332.83, -6.3 333.0, -9.39 333.17, -12.5 333.33, -15.64 333.5, -18.8 333.67, -21.99 333.83, -25.2 334.0, -28.43 334.17, -31.69 334.33, -34.98 334.5, -38.29 334.67, -41.62 334.83, -44.98 335.0, -48.37 335.17, -51.78 335.33, -55.21 335.5, -58.68 335.67, -62.16 335.83, -65.68 336.0, -69.21 336.17, -72.78 336.33, -76.37 336.5, -79.99 336.67, -83.63 336.83, -87.3 337.0, -91.0 337.17, -94.72 337.33, -98.47 337.5, -102.25 337.67, -106.05 337.83, -109.89 338.0, -113.75 338.17, -117.63 338.33, -121.55 338.5, -125.49 338.67, -129.46 338.83, -133.46 339.0, -137.48 339.17, -141.54 339.33, -145.62 339.5, -149.73 339.67, -153.87 339.83, -158.04 340.0, -162.24 340.17, -166.46 340.33, -170.72 340.5, -175.0 340.67, -179.32 340.83, -183.66 341.0, -188.03 341.17, -192.43 341.33, -196.87 341.5, -201.33 341.67, -205.82 341.83, -210.35 342.0, -214.9 342.17, -219.48 342.33, -224.1 342.5, -228.74 342.67, -233.42 342.83, -238.13 343.0, -242.87 343.17, -247.64 343.33, -252.44 343.5, -257.27 343.67, -262.14 343.83, -267.03 344.0, -271.96 344.17, -276.92 344.33, -281.91 344.5, -286.94 344.67, -292.0 344.83, -297.09 345.0, -302.21 345.17, -307.37 345.33, -312.56 345.5, -317.78 345.67, -323.04 345.83, -328.32 346.0, -333.65 346.17, -339.0 346.33, -344.39 346.5, -349.82 346.67, -355.28 346.83, -360.77 347.0, -366.3 347.17, -371.86 347.33, -377.46 347.5, -383.09 347.67, -388.76 347.83, -394.46 348.0, -400.2 348.17, -405.97 348.33, -411.78 348.5, -417.62 348.67, -423.5 348.83, -429.42 349.0, -435.37 349.17, -441.36 349.33, -447.38 349.5, -453.44 349.67, -459.54 349.83, -465.68 350.0, -471.85 350.17, -478.06 350.33, -484.31 350.5, -490.59 350.67, -496.91 350.83, -503.27 351.0, -509.67 351.17, -516.11 351.33, -522.58 351.5, -529.09 351.67, -535.64 351.83, -542.23 352.0, -548.86 352.17, -555.53 352.33, -562.23 352.5, -568.98 352.67, -575.77 352.83, -582.59 353.0, -589.46 353.17, -596.36 353.33, -603.3 353.5, -610.29 353.67, -617.31 353.83, -624.38 354.0, -631.49 354.17, -638.63 354.33, -645.82 354.5, -653.05 354.67, -660.32 354.83, -667.63 355.0, -674.99 355.17, -682.38 355.33, -689.82 355.5, -697.3 355.67, -704.82 355.83, -712.38 356.0, -719.99 356.17, -727.64 356.33, -735.33 356.5, -743.07 356.67, -750.84 356.83, -758.67 357.0, -766.53 357.17, -774.44 357.33, -782.39 357.5, -790.39 357.67, -798.43 357.83, -806.52 358.0, -814.64 358.17, -822.82 358.33, -831.04 358.5, -839.3 358.67, -847.61 358.83, -855.97 359.0, -864.37 359.17, -872.81 359.33, -881.3 359.5, -889.84 359.67, -898.43 359.83, -907.06 360.0, -915.73 360.17, -924.46 360.33, -933.23 360.5, -942.04 360.67, -950.91 360.83, -959.82 361.0, -968.78 361.17, -977.79 361.33, -986.84 361.5, -995.94 361.67, -1005.09 361.83, -1014.29 362.0, -1023.54 362.17, -1032.84 362.33, -1042.18 362.5, -1051.58 362.67, -1061.02 362.83, -1070.52 363.0, -1080.06 363.17, -1089.65 363.33, -1099.29 363.5, -1108.99 363.67, -1118.73 363.83, -1128.52 364.0, -1138.37 364.17, -1148.26 364.33, -1158.21 364.5, -1168.21 364.67, -1178.25 364.83, -1188.35 365.0, -1198.51 365.17, -1208.71 365.33, -1218.97 365.5, -1229.27 365.67, -1239.63 365.83, -1250.05 366.0, -1260.51 366.17, -1271.03 366.33, -1281.6 366.5, -1292.23 366.67, -1302.91 366.83, -1313.64 367.0, -1324.43 367.17, -1335.27 367.33, -1346.17 367.5, -1357.11 367.67, -1368.12 367.83, -1379.18 368.0, -1390.29 368.17, -1401.46 368.33, -1412.69 368.5, -1423.97 368.67, -1435.3 368.83, -1446.69 369.0, -1458.14 369.17, -1469.65 369.33, -1481.21 369.5, -1492.83 369.67, -1504.5 369.83, -1516.23 370.0, -1528.02 370.17, -1539.87 370.33, -1551.77 370.5, -1563.74 370.67, -1575.76 370.83, -1587.83 371.0, -1599.97 371.17, -1612.17 371.33, -1624.42 371.5, -1636.74 371.67, -1649.11 371.83, -1661.54 372.0, -1674.03 372.17, -1686.58 372.33, -1699.2 372.5, -1711.87 372.67, -1724.6 372.83, -1737.39 373.0, -1750.25 373.17, -1763.16 373.33, -1776.14 373.5, -1789.18 373.67, -1802.28 373.83, -1815.44 374.0, -1828.66 374.17, -1841.95 374.33, -1855.29 374.5, -1868.7 374.67, -1882.18 374.83, -1895.71 375.0, -1909.31 375.17, -1922.98 375.33, -1936.7 375.5, -1950.49 375.67, -1964.35 375.83, -1978.27 376.0, -1992.25 376.17, -2006.3 376.33, -2020.41 376.5, -2034.59 376.67, -2048.83 376.83, -2063.14 377.0, -2077.51 377.17, -2091.95 377.33, -2106.46 377.5, -2121.03 377.67, -2135.67 377.83, -2150.38 378.0, -2165.15 378.17, -2179.99 378.33, -2194.9 378.5, -2209.88 378.67, -2224.92 378.83, -2240.03 379.0, -2255.21 379.17, -2270.46 379.33, -2285.77 379.5, -2301.16 379.67, -2316.61 379.83, -2332.14 380.0, -2347.73 380.17, -2363.39 380.33, -2379.13 380.5, -2394.93 380.67, -2410.81 380.83, -2426.75 381.0, -2442.77 381.17, -2458.85 381.33, -2475.01 381.5, -2491.24 381.67, -2507.54 381.83, -2523.91 382.0, -2540.36 382.17, -2556.88 382.33, -2573.47 382.5, -2590.13 382.67, -2606.86 382.83, -2623.67 383.0, -2640.56 383.17, -2657.51 383.33, -2674.54 383.5, -2691.65 383.67, -2708.83 383.83, -2726.08 384.0, -2743.41 384.17, -2760.81 384.33, -2778.29 384.5, -2795.85 384.67, -2813.48 384.83, -2831.19 385.0, -2848.97 385.17, -2866.83 385.33, -2884.76 385.5, -2902.78 385.67, -2920.87 385.83, -2939.03 386.0, -2957.28 386.17, -2975.6 386.33, -2994.0 386.5, -3012.48 386.67, -3031.04 386.83, -3049.68 387.0, -3068.39 387.17, -3087.19 387.33, -3106.06 387.5, -3125.01 387.67, -3144.05 387.83, -3163.16 388.0, -3182.36 388.17, -3201.63 388.33, -3220.99 388.5, -3240.43 388.67, -3259.94 388.83, -3279.54 389.0, -3299.23 389.17, -3318.99 389.33, -3338.84 389.5, -3358.77 389.67, -3378.78 389.83, -3398.87 390.0, -3419.05 390.17, -3439.32 390.33, -3459.66 390.5, -3480.09 390.67, -3500.61 390.83, -3521.2 391.0, -3541.89 391.17, -3562.66 391.33, -3583.51 391.5, -3604.45 391.67, -3625.47 391.83, -3646.59 392.0, -3667.78 392.17, -3689.07 392.33, -3710.44 392.5, -3731.9 392.67, -3753.44 392.83, -3775.07 393.0, -3796.79 393.17, -3818.6 393.33, -3840.5 393.5, -3862.48 393.67, -3884.56 393.83, -3906.72 394.0, -3928.97 394.17, -3951.31 394.33, -3973.74 394.5, -3996.26 394.67, -4018.88 394.83, -4041.58 395.0, -4064.37 395.17, -4087.26 395.33, -4110.23 395.5, -4133.3 395.67, -4156.46 395.83, -4179.71 396.0, -4203.05 396.17, -4226.49 396.33, -4250.01 396.5, -4273.64 396.67, -4297.35 396.83, -4321.16 397.0, -4345.06 397.17, -4369.06 397.33, -4393.15 397.5, -4417.34 397.67, -4441.62 397.83, -4465.99 398.0, -4490.46 398.17, -4515.03 398.33, -4539.69 398.5, -4564.45 398.67, -4589.31 398.83, -4614.26 399.0, -4639.31 399.17, -4664.46 399.33, -4689.71 399.5, -4715.05 399.67, -4740.49 399.83, -4766.03 400.0, -4791.67 " fill="none" stroke="white" stroke-width="1.5" stroke-linejoin="round" stroke-opacity="1"/>

 </svg>