<svg version="1.1" 
 baseProfile="full" 
 width="400" 
 height="400" 
 xmlns="http://www.w3.org/2000/svg">
<rect x="0.0" y="0.0" width="400" height="400" fill="black" stroke="black" stroke-width="0" opacity="1"/>
<line x1="0.0" y1="0.0" x2="0.0" y2="400.0" stroke="white" stroke-width="1" opacity="0.4" stroke-linecap="butt"/>
<line x1="40.0" y1="0.0" x2="40.0" y2="400.0" stroke="white" stroke-width="1" opacity="0.4" stroke-linecap="butt"/>
<line x1="80.0" y1="0.0" x2="80.0" y2="400.0" stroke="white" stroke-width="1" opacity="0.4" stroke-linecap="butt"/>
<line x1="120.0" y1="0.0" x2="120.0" y2="400.0" stroke="white" stroke-width="1" opacity="0.4" stroke-linecap="butt"/>
<line x1="160.0" y1="0.0" x2="160.0" y2="400.0" stroke="white" stroke-width="1" opacity="0.4" stroke-linecap="butt"/>
<line x1="200.0" y1="0.0" x2="200.0" y2="400.0" stroke="white" stroke-width="1" opacity="0.4" stroke-linecap="butt"/>
<line x1="240.0" y1="0.0" x2="240.0" y2="400.0" stroke="white" stroke-width="1" opacity="0.4" stroke-linecap="butt"/>
<line x1="280.0" y1="0.0" x2="280.0" y2="400.0" stroke="white" stroke-width="1" opacity="0.4" stroke-linecap="butt"/>
<line x1="320.0" y1="0.0" x2="320.0" y2="400.0" stroke="white" stroke-width="1" opacity="0.4" stroke-linecap="butt"/>
<line x1="360.0" y1="0.0" x2="360.0" y2="400.0" stroke="white" stroke-width="1" opacity="0.4" stroke-linecap="butt"/>
<line x1="0.0" y1="0.0" x2="400.0" y2="0.0" stroke="white" stroke-width="1" opacity="0.4" stroke-linecap="butt"/>
<line x1="0.0" y1="40.0" x2="400.0" y2="40.0" stroke="white" stroke-width="1" opacity="0.4" stroke-linecap="butt"/>
<line x1="0.0" y1="80.0" x2="400.0" y2="80.0" stroke="white" stroke-width="1" opacity="0.4" stroke-linecap="butt"/>
<line x1="0.0" y1="120.0" x2="400.0" y2="120.0" stroke="white" stroke-width="1" opacity="0.4" stroke-linecap="butt"/>
<line x1="0.0" y1="160.0" x2="400.0" y2="160.0" stroke="white" stroke-width="1" opacity="0.4" stroke-linecap="butt"/>
<line x1="0.0" y1="200.0" x2="400.0" y2="200.0" stroke="white" stroke-width="1" opacity="0.4" stroke-linecap="butt"/>
<line x1="0.0" y1="240.0" x2="400.0" y2="240.0" stroke="white" stroke-width="1" opacity="0.4" stroke-linecap="butt"/>
<line x1="0.0" y1="280.0" x2="400.0" y2="280.0" stroke="white" stroke-width="1" opacity="0.4" stroke-linecap="butt"/>
<line x1="0.0" y1="320.0" x2="400.0" y2="320.0" stroke="white" stroke-width="1" opacity="0.4" stroke-linecap="butt"/>
<line x1="0.0" y1="360.0" x2="400.0" y2="360.0" stroke="white" stroke-width="1" opacity="0.4" stroke-linecap="butt"/>
<line x1="0.0" y1="200.0" x2="400.0" y2="200.0" stroke="yellow" stroke-width="2.5" opacity="1" stroke-linecap="butt"/>
<line x1="200.0" y1="0.0" x2="200.0" y2="400.0" stroke="yellow" stroke-width="2.5" opacity="1" stroke-linecap="butt"/>
<polygon points="391.0 204.0, 401.0 200.0, 391.0 196.0, 393.0 200.0" fill="yellow"/><polygon points="204.0 9.0, 200.0 -1.0, 196.0 9.0, 200.0 7.0" fill="yellow"/><image x="-60.0" y="-60.0" width="200" height="200" href="/Users/girirajhira/PycharmProjects/Giraphics3/Taylor/expr.png"/><polyline points="0.0, 5608.33 0.17, 5580.96 0.33, 5553.7 0.5, 5526.53 0.67, 5499.47 0.83, 5472.52 1.0, 5445.67 1.17, 5418.92 1.33, 5392.27 1.5, 5365.73 1.67, 5339.29 1.83, 5312.95 2.0, 5286.71 2.17, 5260.57 2.33, 5234.54 2.5, 5208.6 2.67, 5182.77 2.83, 5157.04 3.0, 5131.4 3.17, 5105.87 3.33, 5080.43 3.5, 5055.1 3.67, 5029.86 3.83, 5004.72 4.0, 4979.68 4.17, 4954.74 4.33, 4929.9 4.5, 4905.15 4.67, 4880.5 4.83, 4855.95 5.0, 4831.49 5.17, 4807.14 5.33, 4782.87 5.5, 4758.71 5.67, 4734.63 5.83, 4710.66 6.0, 4686.78 6.17, 4662.99 6.33, 4639.3 6.5, 4615.7 6.67, 4592.2 6.83, 4568.79 7.0, 4545.47 7.17, 4522.25 7.33, 4499.12 7.5, 4476.08 7.67, 4453.14 7.83, 4430.28 8.0, 4407.52 8.17, 4384.85 8.33, 4362.27 8.5, 4339.79 8.67, 4317.39 8.83, 4295.09 9.0, 4272.87 9.17, 4250.75 9.33, 4228.71 9.5, 4206.76 9.67, 4184.91 9.83, 4163.14 10.0, 4141.46 10.17, 4119.87 10.33, 4098.37 10.5, 4076.96 10.67, 4055.63 10.83, 4034.39 11.0, 4013.24 11.17, 3992.18 11.33, 3971.2 11.5, 3950.31 11.67, 3929.5 11.83, 3908.78 12.0, 3888.15 12.17, 3867.6 12.33, 3847.14 12.5, 3826.76 12.67, 3806.47 12.83, 3786.26 13.0, 3766.14 13.17, 3746.1 13.33, 3726.14 13.5, 3706.27 13.67, 3686.48 13.83, 3666.77 14.0, 3647.15 14.17, 3627.61 14.33, 3608.15 14.5, 3588.77 14.67, 3569.48 14.83, 3550.26 15.0, 3531.13 15.17, 3512.08 15.33, 3493.11 15.5, 3474.22 15.67, 3455.41 15.83, 3436.68 16.0, 3418.03 16.17, 3399.46 16.33, 3380.97 16.5, 3362.56 16.67, 3344.22 16.83, 3325.97 17.0, 3307.79 17.17, 3289.69 17.33, 3271.68 17.5, 3253.73 17.67, 3235.87 17.83, 3218.08 18.0, 3200.37 18.17, 3182.74 18.33, 3165.18 18.5, 3147.7 18.67, 3130.3 18.83, 3112.97 19.0, 3095.71 19.17, 3078.54 19.33, 3061.43 19.5, 3044.41 19.67, 3027.45 19.83, 3010.57 20.0, 2993.77 20.17, 2977.04 20.33, 2960.38 20.5, 2943.8 20.67, 2927.29 20.83, 2910.85 21.0, 2894.49 21.17, 2878.2 21.33, 2861.98 21.5, 2845.83 21.67, 2829.76 21.83, 2813.75 22.0, 2797.82 22.17, 2781.96 22.33, 2766.17 22.5, 2750.45 22.67, 2734.8 22.83, 2719.23 23.0, 2703.72 23.17, 2688.28 23.33, 2672.91 23.5, 2657.62 23.67, 2642.39 23.83, 2627.23 24.0, 2612.14 24.17, 2597.11 24.33, 2582.16 24.5, 2567.27 24.67, 2552.46 24.83, 2537.71 25.0, 2523.02 25.17, 2508.41 25.33, 2493.86 25.5, 2479.38 25.67, 2464.97 25.83, 2450.62 26.0, 2436.34 26.17, 2422.12 26.33, 2407.97 26.5, 2393.89 26.67, 2379.87 26.83, 2365.91 27.0, 2352.02 27.17, 2338.2 27.33, 2324.44 27.5, 2310.75 27.67, 2297.11 27.83, 2283.55 28.0, 2270.04 28.17, 2256.6 28.33, 2243.23 28.5, 2229.91 28.67, 2216.66 28.83, 2203.48 29.0, 2190.35 29.17, 2177.29 29.33, 2164.29 29.5, 2151.35 29.67, 2138.47 29.83, 2125.65 30.0, 2112.9 30.17, 2100.21 30.33, 2087.57 30.5, 2075.0 30.67, 2062.49 30.83, 2050.04 31.0, 2037.65 31.17, 2025.31 31.33, 2013.04 31.5, 2000.83 31.67, 1988.68 31.83, 1976.58 32.0, 1964.55 32.17, 1952.57 32.33, 1940.65 32.5, 1928.79 32.67, 1916.99 32.83, 1905.25 33.0, 1893.56 33.17, 1881.93 33.33, 1870.36 33.5, 1858.84 33.67, 1847.39 33.83, 1835.99 34.0, 1824.64 34.17, 1813.35 34.33, 1802.12 34.5, 1790.94 34.67, 1779.82 34.83, 1768.76 35.0, 1757.75 35.17, 1746.79 35.33, 1735.89 35.5, 1725.05 35.67, 1714.26 35.83, 1703.52 36.0, 1692.84 36.17, 1682.22 36.33, 1671.64 36.5, 1661.12 36.67, 1650.66 36.83, 1640.24 37.0, 1629.88 37.17, 1619.57 37.33, 1609.32 37.5, 1599.12 37.67, 1588.97 37.83, 1578.87 38.0, 1568.83 38.17, 1558.83 38.33, 1548.89 38.5, 1539.0 38.67, 1529.16 38.83, 1519.37 39.0, 1509.63 39.17, 1499.95 39.33, 1490.31 39.5, 1480.72 39.67, 1471.19 39.83, 1461.7 40.0, 1452.27 40.17, 1442.88 40.33, 1433.54 40.5, 1424.26 40.67, 1415.02 40.83, 1405.83 41.0, 1396.69 41.17, 1387.59 41.33, 1378.55 41.5, 1369.56 41.67, 1360.61 41.83, 1351.71 42.0, 1342.86 42.17, 1334.05 42.33, 1325.29 42.5, 1316.58 42.67, 1307.92 42.83, 1299.3 43.0, 1290.74 43.17, 1282.21 43.33, 1273.74 43.5, 1265.3 43.67, 1256.92 43.83, 1248.58 44.0, 1240.29 44.17, 1232.04 44.33, 1223.84 44.5, 1215.68 44.67, 1207.57 44.83, 1199.5 45.0, 1191.48 45.17, 1183.5 45.33, 1175.57 45.5, 1167.68 45.67, 1159.83 45.83, 1152.03 46.0, 1144.27 46.17, 1136.55 46.33, 1128.88 46.5, 1121.25 46.67, 1113.67 46.83, 1106.12 47.0, 1098.62 47.17, 1091.17 47.33, 1083.75 47.5, 1076.38 47.67, 1069.05 47.83, 1061.76 48.0, 1054.51 48.17, 1047.3 48.33, 1040.14 48.5, 1033.01 48.67, 1025.93 48.83, 1018.89 49.0, 1011.89 49.17, 1004.93 49.33, 998.01 49.5, 991.13 49.67, 984.29 49.83, 977.49 50.0, 970.73 50.17, 964.01 50.33, 957.33 50.5, 950.68 50.67, 944.08 50.83, 937.52 51.0, 930.99 51.17, 924.51 51.33, 918.06 51.5, 911.65 51.67, 905.28 51.83, 898.95 52.0, 892.65 52.17, 886.4 52.33, 880.18 52.5, 874.0 52.67, 867.85 52.83, 861.75 53.0, 855.68 53.17, 849.64 53.33, 843.65 53.5, 837.69 53.67, 831.76 53.83, 825.88 54.0, 820.03 54.17, 814.21 54.33, 808.43 54.5, 802.69 54.67, 796.98 54.83, 791.31 55.0, 785.67 55.17, 780.07 55.33, 774.5 55.5, 768.97 55.67, 763.47 55.83, 758.01 56.0, 752.58 56.17, 747.19 56.33, 741.83 56.5, 736.5 56.67, 731.21 56.83, 725.95 57.0, 720.73 57.17, 715.54 57.33, 710.38 57.5, 705.25 57.67, 700.16 57.83, 695.1 58.0, 690.08 58.17, 685.08 58.33, 680.12 58.5, 675.19 58.67, 670.3 58.83, 665.43 59.0, 660.6 59.17, 655.8 59.33, 651.03 59.5, 646.29 59.67, 641.58 59.83, 636.91 60.0, 632.26 60.17, 627.65 60.33, 623.07 60.5, 618.52 60.67, 614.0 60.83, 609.51 61.0, 605.05 61.17, 600.62 61.33, 596.22 61.5, 591.85 61.67, 587.51 61.83, 583.19 62.0, 578.91 62.17, 574.66 62.33, 570.44 62.5, 566.25 62.67, 562.08 62.83, 557.95 63.0, 553.84 63.17, 549.76 63.33, 545.71 63.5, 541.69 63.67, 537.7 63.83, 533.73 64.0, 529.79 64.17, 525.89 64.33, 522.0 64.5, 518.15 64.67, 514.32 64.83, 510.53 65.0, 506.75 65.17, 503.01 65.33, 499.29 65.5, 495.6 65.67, 491.94 65.83, 488.3 66.0, 484.69 66.17, 481.1 66.33, 477.55 66.5, 474.01 66.67, 470.51 66.83, 467.03 67.0, 463.57 67.17, 460.14 67.33, 456.74 67.5, 453.36 67.67, 450.01 67.83, 446.68 68.0, 443.38 68.17, 440.1 68.33, 436.85 68.5, 433.62 68.67, 430.42 68.83, 427.24 69.0, 424.09 69.17, 420.96 69.33, 417.85 69.5, 414.77 69.67, 411.71 69.83, 408.68 70.0, 405.66 70.17, 402.68 70.33, 399.71 70.5, 396.77 70.67, 393.86 70.83, 390.96 71.0, 388.09 71.17, 385.24 71.33, 382.42 71.5, 379.61 71.67, 376.83 71.83, 374.08 72.0, 371.34 72.17, 368.63 72.33, 365.94 72.5, 363.27 72.67, 360.62 72.83, 357.99 73.0, 355.39 73.17, 352.81 73.33, 350.25 73.5, 347.71 73.67, 345.19 73.83, 342.69 74.0, 340.22 74.17, 337.76 74.33, 335.33 74.5, 332.91 74.67, 330.52 74.83, 328.15 75.0, 325.79 75.17, 323.46 75.33, 321.15 75.5, 318.86 75.67, 316.59 75.83, 314.34 76.0, 312.1 76.17, 309.89 76.33, 307.7 76.5, 305.52 76.67, 303.37 76.83, 301.24 77.0, 299.12 77.17, 297.02 77.33, 294.95 77.5, 292.89 77.67, 290.85 77.83, 288.83 78.0, 286.82 78.17, 284.84 78.33, 282.87 78.5, 280.92 78.67, 278.99 78.83, 277.08 79.0, 275.19 79.17, 273.31 79.33, 271.46 79.5, 269.62 79.67, 267.79 79.83, 265.99 80.0, 264.2 80.17, 262.43 80.33, 260.68 80.5, 258.94 80.67, 257.22 80.83, 255.52 81.0, 253.83 81.17, 252.16 81.33, 250.51 81.5, 248.88 81.67, 247.26 81.83, 245.65 82.0, 244.07 82.17, 242.5 82.33, 240.94 82.5, 239.4 82.67, 237.88 82.83, 236.38 83.0, 234.89 83.17, 233.41 83.33, 231.95 83.5, 230.51 83.67, 229.08 83.83, 227.66 84.0, 226.26 84.17, 224.88 84.33, 223.51 84.5, 222.16 84.67, 220.82 84.83, 219.5 85.0, 218.19 85.17, 216.89 85.33, 215.61 85.5, 214.35 85.67, 213.1 85.83, 211.86 86.0, 210.64 86.17, 209.43 86.33, 208.23 86.5, 207.05 86.67, 205.88 86.83, 204.73 87.0, 203.59 87.17, 202.46 87.33, 201.35 87.5, 200.25 87.67, 199.16 87.83, 198.09 88.0, 197.03 88.17, 195.98 88.33, 194.95 88.5, 193.93 88.67, 192.92 88.83, 191.92 89.0, 190.94 89.17, 189.97 89.33, 189.01 89.5, 188.07 89.67, 187.13 89.83, 186.21 90.0, 185.31 90.17, 184.41 90.33, 183.52 90.5, 182.65 90.67, 181.79 90.83, 180.94 91.0, 180.1 91.17, 179.28 91.33, 178.47 91.5, 177.66 91.67, 176.87 91.83, 176.09 92.0, 175.32 92.17, 174.57 92.33, 173.82 92.5, 173.08 92.67, 172.36 92.83, 171.65 93.0, 170.94 93.17, 170.25 93.33, 169.57 93.5, 168.9 93.67, 168.24 93.83, 167.59 94.0, 166.95 94.17, 166.32 94.33, 165.7 94.5, 165.1 94.67, 164.5 94.83, 163.91 95.0, 163.33 95.17, 162.76 95.33, 162.2 95.5, 161.65 95.67, 161.11 95.83, 160.58 96.0, 160.06 96.17, 159.55 96.33, 159.05 96.5, 158.56 96.67, 158.08 96.83, 157.6 97.0, 157.14 97.17, 156.68 97.33, 156.24 97.5, 155.8 97.67, 155.37 97.83, 154.95 98.0, 154.54 98.17, 154.14 98.33, 153.74 98.5, 153.36 98.67, 152.98 98.83, 152.61 99.0, 152.25 99.17, 151.9 99.33, 151.56 99.5, 151.22 99.67, 150.89 99.83, 150.57 100.0, 150.26 100.17, 149.96 100.33, 149.66 100.5, 149.37 100.67, 149.09 100.83, 148.82 101.0, 148.55 101.17, 148.3 101.33, 148.05 101.5, 147.8 101.67, 147.57 101.83, 147.34 102.0, 147.12 102.17, 146.9 102.33, 146.7 102.5, 146.5 102.67, 146.3 102.83, 146.12 103.0, 145.94 103.17, 145.77 103.33, 145.6 103.5, 145.44 103.67, 145.29 103.83, 145.14 104.0, 145.01 104.17, 144.87 104.33, 144.75 104.5, 144.63 104.67, 144.51 104.83, 144.4 105.0, 144.3 105.17, 144.21 105.33, 144.12 105.5, 144.04 105.67, 143.96 105.83, 143.89 106.0, 143.82 106.17, 143.76 106.33, 143.71 106.5, 143.66 106.67, 143.62 106.83, 143.58 107.0, 143.55 107.17, 143.52 107.33, 143.5 107.5, 143.49 107.67, 143.48 107.83, 143.47 108.0, 143.47 108.17, 143.48 108.33, 143.49 108.5, 143.51 108.67, 143.53 108.83, 143.55 109.0, 143.58 109.17, 143.62 109.33, 143.66 109.5, 143.7 109.67, 143.75 109.83, 143.81 110.0, 143.87 110.17, 143.93 110.33, 144.0 110.5, 144.07 110.67, 144.15 110.83, 144.23 111.0, 144.32 111.17, 144.41 111.33, 144.5 111.5, 144.6 111.67, 144.7 111.83, 144.81 112.0, 144.92 112.17, 145.03 112.33, 145.15 112.5, 145.28 112.67, 145.4 112.83, 145.53 113.0, 145.67 113.17, 145.8 113.33, 145.94 113.5, 146.09 113.67, 146.24 113.83, 146.39 114.0, 146.55 114.17, 146.71 114.33, 146.87 114.5, 147.03 114.67, 147.2 114.83, 147.38 115.0, 147.55 115.17, 147.73 115.33, 147.91 115.5, 148.1 115.67, 148.29 115.83, 148.48 116.0, 148.67 116.17, 148.87 116.33, 149.07 116.5, 149.27 116.67, 149.48 116.83, 149.69 117.0, 149.9 117.17, 150.11 117.33, 150.33 117.5, 150.55 117.67, 150.77 117.83, 151.0 118.0, 151.22 118.17, 151.45 118.33, 151.69 118.5, 151.92 118.67, 152.16 118.83, 152.4 119.0, 152.64 119.17, 152.88 119.33, 153.13 119.5, 153.38 119.67, 153.63 119.83, 153.88 120.0, 154.13 120.17, 154.39 120.33, 154.65 120.5, 154.91 120.67, 155.17 120.83, 155.44 121.0, 155.7 121.17, 155.97 121.33, 156.24 121.5, 156.51 121.67, 156.78 121.83, 157.06 122.0, 157.34 122.17, 157.61 122.33, 157.89 122.5, 158.18 122.67, 158.46 122.83, 158.74 123.0, 159.03 123.17, 159.32 123.33, 159.61 123.5, 159.9 123.67, 160.19 123.83, 160.48 124.0, 160.77 124.17, 161.07 124.33, 161.36 124.5, 161.66 124.67, 161.96 124.83, 162.26 125.0, 162.56 125.17, 162.86 125.33, 163.17 125.5, 163.47 125.67, 163.78 125.83, 164.08 126.0, 164.39 126.17, 164.7 126.33, 165.0 126.5, 165.31 126.67, 165.62 126.83, 165.93 127.0, 166.25 127.17, 166.56 127.33, 166.87 127.5, 167.18 127.67, 167.5 127.83, 167.81 128.0, 168.13 128.17, 168.44 128.33, 168.76 128.5, 169.08 128.67, 169.39 128.83, 169.71 129.0, 170.03 129.17, 170.35 129.33, 170.67 129.5, 170.99 129.67, 171.31 129.83, 171.63 130.0, 171.95 130.17, 172.27 130.33, 172.59 130.5, 172.91 130.67, 173.23 130.83, 173.55 131.0, 173.87 131.17, 174.19 131.33, 174.51 131.5, 174.83 131.67, 175.15 131.83, 175.48 132.0, 175.8 132.17, 176.12 132.33, 176.44 132.5, 176.76 132.67, 177.08 132.83, 177.4 133.0, 177.72 133.17, 178.04 133.33, 178.36 133.5, 178.68 133.67, 179.0 133.83, 179.32 134.0, 179.64 134.17, 179.96 134.33, 180.28 134.5, 180.59 134.67, 180.91 134.83, 181.23 135.0, 181.54 135.17, 181.86 135.33, 182.18 135.5, 182.49 135.67, 182.81 135.83, 183.12 136.0, 183.43 136.17, 183.75 136.33, 184.06 136.5, 184.37 136.67, 184.68 136.83, 184.99 137.0, 185.3 137.17, 185.61 137.33, 185.92 137.5, 186.23 137.67, 186.54 137.83, 186.84 138.0, 187.15 138.17, 187.46 138.33, 187.76 138.5, 188.06 138.67, 188.37 138.83, 188.67 139.0, 188.97 139.17, 189.27 139.33, 189.57 139.5, 189.87 139.67, 190.16 139.83, 190.46 140.0, 190.76 140.17, 191.05 140.33, 191.34 140.5, 191.64 140.67, 191.93 140.83, 192.22 141.0, 192.51 141.17, 192.8 141.33, 193.08 141.5, 193.37 141.67, 193.66 141.83, 193.94 142.0, 194.22 142.17, 194.51 142.33, 194.79 142.5, 195.07 142.67, 195.34 142.83, 195.62 143.0, 195.9 143.17, 196.17 143.33, 196.45 143.5, 196.72 143.67, 196.99 143.83, 197.26 144.0, 197.53 144.17, 197.79 144.33, 198.06 144.5, 198.33 144.67, 198.59 144.83, 198.85 145.0, 199.11 145.17, 199.37 145.33, 199.63 145.5, 199.88 145.67, 200.14 145.83, 200.39 146.0, 200.65 146.17, 200.9 146.33, 201.15 146.5, 201.4 146.67, 201.64 146.83, 201.89 147.0, 202.13 147.17, 202.37 147.33, 202.61 147.5, 202.85 147.67, 203.09 147.83, 203.33 148.0, 203.56 148.17, 203.8 148.33, 204.03 148.5, 204.26 148.67, 204.49 148.83, 204.71 149.0, 204.94 149.17, 205.16 149.33, 205.38 149.5, 205.61 149.67, 205.82 149.83, 206.04 150.0, 206.26 150.17, 206.47 150.33, 206.69 150.5, 206.9 150.67, 207.11 150.83, 207.31 151.0, 207.52 151.17, 207.72 151.33, 207.93 151.5, 208.13 151.67, 208.33 151.83, 208.53 152.0, 208.72 152.17, 208.92 152.33, 209.11 152.5, 209.3 152.67, 209.49 152.83, 209.68 153.0, 209.86 153.17, 210.05 153.33, 210.23 153.5, 210.41 153.67, 210.59 153.83, 210.77 154.0, 210.94 154.17, 211.11 154.33, 211.29 154.5, 211.46 154.67, 211.63 154.83, 211.79 155.0, 211.96 155.17, 212.12 155.33, 212.28 155.5, 212.44 155.67, 212.6 155.83, 212.75 156.0, 212.91 156.17, 213.06 156.33, 213.21 156.5, 213.36 156.67, 213.51 156.83, 213.65 157.0, 213.8 157.17, 213.94 157.33, 214.08 157.5, 214.22 157.67, 214.35 157.83, 214.49 158.0, 214.62 158.17, 214.75 158.33, 214.88 158.5, 215.01 158.67, 215.13 158.83, 215.25 159.0, 215.38 159.17, 215.5 159.33, 215.61 159.5, 215.73 159.67, 215.84 159.83, 215.96 160.0, 216.07 160.17, 216.18 160.33, 216.28 160.5, 216.39 160.67, 216.49 160.83, 216.59 161.0, 216.69 161.17, 216.79 161.33, 216.89 161.5, 216.98 161.67, 217.07 161.83, 217.16 162.0, 217.25 162.17, 217.34 162.33, 217.42 162.5, 217.51 162.67, 217.59 162.83, 217.67 163.0, 217.75 163.17, 217.82 163.33, 217.9 163.5, 217.97 163.67, 218.04 163.83, 218.11 164.0, 218.17 164.17, 218.24 164.33, 218.3 164.5, 218.36 164.67, 218.42 164.83, 218.48 165.0, 218.54 165.17, 218.59 165.33, 218.64 165.5, 218.69 165.67, 218.74 165.83, 218.79 166.0, 218.84 166.17, 218.88 166.33, 218.92 166.5, 218.96 166.67, 219.0 166.83, 219.04 167.0, 219.07 167.17, 219.1 167.33, 219.14 167.5, 219.16 167.67, 219.19 167.83, 219.22 168.0, 219.24 168.17, 219.26 168.33, 219.29 168.5, 219.3 168.67, 219.32 168.83, 219.34 169.0, 219.35 169.17, 219.36 169.33, 219.37 169.5, 219.38 169.67, 219.39 169.83, 219.39 170.0, 219.4 170.17, 219.4 170.33, 219.4 170.5, 219.4 170.67, 219.4 170.83, 219.39 171.0, 219.39 171.17, 219.38 171.33, 219.37 171.5, 219.36 171.67, 219.34 171.83, 219.33 172.0, 219.31 172.17, 219.29 172.33, 219.28 172.5, 219.25 172.67, 219.23 172.83, 219.21 173.0, 219.18 173.17, 219.15 173.33, 219.13 173.5, 219.09 173.67, 219.06 173.83, 219.03 174.0, 218.99 174.17, 218.96 174.33, 218.92 174.5, 218.88 174.67, 218.84 174.83, 218.79 175.0, 218.75 175.17, 218.7 175.33, 218.66 175.5, 218.61 175.67, 218.56 175.83, 218.51 176.0, 218.45 176.17, 218.4 176.33, 218.34 176.5, 218.28 176.67, 218.22 176.83, 218.16 177.0, 218.1 177.17, 218.04 177.33, 217.97 177.5, 217.91 177.67, 217.84 177.83, 217.77 178.0, 217.7 178.17, 217.63 178.33, 217.56 178.5, 217.48 178.67, 217.41 178.83, 217.33 179.0, 217.25 179.17, 217.17 179.33, 217.09 179.5, 217.01 179.67, 216.92 179.83, 216.84 180.0, 216.75 180.17, 216.66 180.33, 216.58 180.5, 216.49 180.67, 216.39 180.83, 216.3 181.0, 216.21 181.17, 216.11 181.33, 216.02 181.5, 215.92 181.67, 215.82 181.83, 215.72 182.0, 215.62 182.17, 215.52 182.33, 215.42 182.5, 215.31 182.67, 215.21 182.83, 215.1 183.0, 214.99 183.17, 214.88 183.33, 214.77 183.5, 214.66 183.67, 214.55 183.83, 214.44 184.0, 214.32 184.17, 214.21 184.33, 214.09 184.5, 213.97 184.67, 213.85 184.83, 213.73 185.0, 213.61 185.17, 213.49 185.33, 213.37 185.5, 213.25 185.67, 213.12 185.83, 213.0 186.0, 212.87 186.17, 212.74 186.33, 212.62 186.5, 212.49 186.67, 212.36 186.83, 212.23 187.0, 212.09 187.17, 211.96 187.33, 211.83 187.5, 211.69 187.67, 211.56 187.83, 211.42 188.0, 211.29 188.17, 211.15 188.33, 211.01 188.5, 210.87 188.67, 210.73 188.83, 210.59 189.0, 210.45 189.17, 210.31 189.33, 210.16 189.5, 210.02 189.67, 209.88 189.83, 209.73 190.0, 209.59 190.17, 209.44 190.33, 209.29 190.5, 209.14 190.67, 209.0 190.83, 208.85 191.0, 208.7 191.17, 208.55 191.33, 208.4 191.5, 208.25 191.67, 208.09 191.83, 207.94 192.0, 207.79 192.17, 207.63 192.33, 207.48 192.5, 207.32 192.67, 207.17 192.83, 207.01 193.0, 206.86 193.17, 206.7 193.33, 206.54 193.5, 206.39 193.67, 206.23 193.83, 206.07 194.0, 205.91 194.17, 205.75 194.33, 205.59 194.5, 205.43 194.67, 205.27 194.83, 205.11 195.0, 204.95 195.17, 204.79 195.33, 204.62 195.5, 204.46 195.67, 204.3 195.83, 204.14 196.0, 203.97 196.17, 203.81 196.33, 203.65 196.5, 203.48 196.67, 203.32 196.83, 203.15 197.0, 202.99 197.17, 202.82 197.33, 202.66 197.5, 202.49 197.67, 202.33 197.83, 202.16 198.0, 202.0 198.17, 201.83 198.33, 201.66 198.5, 201.5 198.67, 201.33 198.83, 201.17 199.0, 201.0 199.17, 200.83 199.33, 200.67 199.5, 200.5 199.67, 200.33 199.83, 200.17 200.0, 200.0 200.17, 199.83 200.33, 199.67 200.5, 199.5 200.67, 199.33 200.83, 199.17 201.0, 199.0 201.17, 198.83 201.33, 198.67 201.5, 198.5 201.67, 198.34 201.83, 198.17 202.0, 198.0 202.17, 197.84 202.33, 197.67 202.5, 197.51 202.67, 197.34 202.83, 197.18 203.0, 197.01 203.17, 196.85 203.33, 196.68 203.5, 196.52 203.67, 196.35 203.83, 196.19 204.0, 196.03 204.17, 195.86 204.33, 195.7 204.5, 195.54 204.67, 195.38 204.83, 195.21 205.0, 195.05 205.17, 194.89 205.33, 194.73 205.5, 194.57 205.67, 194.41 205.83, 194.25 206.0, 194.09 206.17, 193.93 206.33, 193.77 206.5, 193.61 206.67, 193.46 206.83, 193.3 207.0, 193.14 207.17, 192.99 207.33, 192.83 207.5, 192.68 207.67, 192.52 207.83, 192.37 208.0, 192.21 208.17, 192.06 208.33, 191.91 208.5, 191.75 208.67, 191.6 208.83, 191.45 209.0, 191.3 209.17, 191.15 209.33, 191.0 209.5, 190.86 209.67, 190.71 209.83, 190.56 210.0, 190.41 210.17, 190.27 210.33, 190.12 210.5, 189.98 210.67, 189.84 210.83, 189.69 211.0, 189.55 211.17, 189.41 211.33, 189.27 211.5, 189.13 211.67, 188.99 211.83, 188.85 212.0, 188.71 212.17, 188.58 212.33, 188.44 212.5, 188.31 212.67, 188.17 212.83, 188.04 213.0, 187.91 213.17, 187.77 213.33, 187.64 213.5, 187.51 213.67, 187.38 213.83, 187.26 214.0, 187.13 214.17, 187.0 214.33, 186.88 214.5, 186.75 214.67, 186.63 214.83, 186.51 215.0, 186.39 215.17, 186.27 215.33, 186.15 215.5, 186.03 215.67, 185.91 215.83, 185.79 216.0, 185.68 216.17, 185.56 216.33, 185.45 216.5, 185.34 216.67, 185.23 216.83, 185.12 217.0, 185.01 217.17, 184.9 217.33, 184.79 217.5, 184.69 217.67, 184.58 217.83, 184.48 218.0, 184.38 218.17, 184.28 218.33, 184.18 218.5, 184.08 218.67, 183.98 218.83, 183.89 219.0, 183.79 219.17, 183.7 219.33, 183.61 219.5, 183.51 219.67, 183.42 219.83, 183.34 220.0, 183.25 220.17, 183.16 220.33, 183.08 220.5, 182.99 220.67, 182.91 220.83, 182.83 221.0, 182.75 221.17, 182.67 221.33, 182.59 221.5, 182.52 221.67, 182.44 221.83, 182.37 222.0, 182.3 222.17, 182.23 222.33, 182.16 222.5, 182.09 222.67, 182.03 222.83, 181.96 223.0, 181.9 223.17, 181.84 223.33, 181.78 223.5, 181.72 223.67, 181.66 223.83, 181.6 224.0, 181.55 224.17, 181.49 224.33, 181.44 224.5, 181.39 224.67, 181.34 224.83, 181.3 225.0, 181.25 225.17, 181.21 225.33, 181.16 225.5, 181.12 225.67, 181.08 225.83, 181.04 226.0, 181.01 226.17, 180.97 226.33, 180.94 226.5, 180.91 226.67, 180.87 226.83, 180.85 227.0, 180.82 227.17, 180.79 227.33, 180.77 227.5, 180.75 227.67, 180.72 227.83, 180.71 228.0, 180.69 228.17, 180.67 228.33, 180.66 228.5, 180.64 228.67, 180.63 228.83, 180.62 229.0, 180.61 229.17, 180.61 229.33, 180.6 229.5, 180.6 229.67, 180.6 229.83, 180.6 230.0, 180.6 230.17, 180.61 230.33, 180.61 230.5, 180.62 230.67, 180.63 230.83, 180.64 231.0, 180.65 231.17, 180.66 231.33, 180.68 231.5, 180.7 231.67, 180.71 231.83, 180.74 232.0, 180.76 232.17, 180.78 232.33, 180.81 232.5, 180.84 232.67, 180.86 232.83, 180.9 233.0, 180.93 233.17, 180.96 233.33, 181.0 233.5, 181.04 233.67, 181.08 233.83, 181.12 234.0, 181.16 234.17, 181.21 234.33, 181.26 234.5, 181.31 234.67, 181.36 234.83, 181.41 235.0, 181.46 235.17, 181.52 235.33, 181.58 235.5, 181.64 235.67, 181.7 235.83, 181.76 236.0, 181.83 236.17, 181.89 236.33, 181.96 236.5, 182.03 236.67, 182.1 236.83, 182.18 237.0, 182.25 237.17, 182.33 237.33, 182.41 237.5, 182.49 237.67, 182.58 237.83, 182.66 238.0, 182.75 238.17, 182.84 238.33, 182.93 238.5, 183.02 238.67, 183.11 238.83, 183.21 239.0, 183.31 239.17, 183.41 239.33, 183.51 239.5, 183.61 239.67, 183.72 239.83, 183.82 240.0, 183.93 240.17, 184.04 240.33, 184.16 240.5, 184.27 240.67, 184.39 240.83, 184.5 241.0, 184.62 241.17, 184.75 241.33, 184.87 241.5, 184.99 241.67, 185.12 241.83, 185.25 242.0, 185.38 242.17, 185.51 242.33, 185.65 242.5, 185.78 242.67, 185.92 242.83, 186.06 243.0, 186.2 243.17, 186.35 243.33, 186.49 243.5, 186.64 243.67, 186.79 243.83, 186.94 244.0, 187.09 244.17, 187.25 244.33, 187.4 244.5, 187.56 244.67, 187.72 244.83, 187.88 245.0, 188.04 245.17, 188.21 245.33, 188.37 245.5, 188.54 245.67, 188.71 245.83, 188.89 246.0, 189.06 246.17, 189.23 246.33, 189.41 246.5, 189.59 246.67, 189.77 246.83, 189.95 247.0, 190.14 247.17, 190.32 247.33, 190.51 247.5, 190.7 247.67, 190.89 247.83, 191.08 248.0, 191.28 248.17, 191.47 248.33, 191.67 248.5, 191.87 248.67, 192.07 248.83, 192.28 249.0, 192.48 249.17, 192.69 249.33, 192.89 249.5, 193.1 249.67, 193.31 249.83, 193.53 250.0, 193.74 250.17, 193.96 250.33, 194.18 250.5, 194.39 250.67, 194.62 250.83, 194.84 251.0, 195.06 251.17, 195.29 251.33, 195.51 251.5, 195.74 251.67, 195.97 251.83, 196.2 252.0, 196.44 252.17, 196.67 252.33, 196.91 252.5, 197.15 252.67, 197.39 252.83, 197.63 253.0, 197.87 253.17, 198.11 253.33, 198.36 253.5, 198.6 253.67, 198.85 253.83, 199.1 254.0, 199.35 254.17, 199.61 254.33, 199.86 254.5, 200.12 254.67, 200.37 254.83, 200.63 255.0, 200.89 255.17, 201.15 255.33, 201.41 255.5, 201.67 255.67, 201.94 255.83, 202.21 256.0, 202.47 256.17, 202.74 256.33, 203.01 256.5, 203.28 256.67, 203.55 256.83, 203.83 257.0, 204.1 257.17, 204.38 257.33, 204.66 257.5, 204.93 257.67, 205.21 257.83, 205.49 258.0, 205.78 258.17, 206.06 258.33, 206.34 258.5, 206.63 258.67, 206.92 258.83, 207.2 259.0, 207.49 259.17, 207.78 259.33, 208.07 259.5, 208.36 259.67, 208.66 259.83, 208.95 260.0, 209.24 260.17, 209.54 260.33, 209.84 260.5, 210.13 260.67, 210.43 260.83, 210.73 261.0, 211.03 261.17, 211.33 261.33, 211.63 261.5, 211.94 261.67, 212.24 261.83, 212.54 262.0, 212.85 262.17, 213.16 262.33, 213.46 262.5, 213.77 262.67, 214.08 262.83, 214.39 263.0, 214.7 263.17, 215.01 263.33, 215.32 263.5, 215.63 263.67, 215.94 263.83, 216.25 264.0, 216.57 264.17, 216.88 264.33, 217.19 264.5, 217.51 264.67, 217.82 264.83, 218.14 265.0, 218.46 265.17, 218.77 265.33, 219.09 265.5, 219.41 265.67, 219.72 265.83, 220.04 266.0, 220.36 266.17, 220.68 266.33, 221.0 266.5, 221.32 266.67, 221.64 266.83, 221.96 267.0, 222.28 267.17, 222.6 267.33, 222.92 267.5, 223.24 267.67, 223.56 267.83, 223.88 268.0, 224.2 268.17, 224.52 268.33, 224.85 268.5, 225.17 268.67, 225.49 268.83, 225.81 269.0, 226.13 269.17, 226.45 269.33, 226.77 269.5, 227.09 269.67, 227.41 269.83, 227.73 270.0, 228.05 270.17, 228.37 270.33, 228.69 270.5, 229.01 270.67, 229.33 270.83, 229.65 271.0, 229.97 271.17, 230.29 271.33, 230.61 271.5, 230.92 271.67, 231.24 271.83, 231.56 272.0, 231.87 272.17, 232.19 272.33, 232.5 272.5, 232.82 272.67, 233.13 272.83, 233.44 273.0, 233.75 273.17, 234.07 273.33, 234.38 273.5, 234.69 273.67, 235.0 273.83, 235.3 274.0, 235.61 274.17, 235.92 274.33, 236.22 274.5, 236.53 274.67, 236.83 274.83, 237.14 275.0, 237.44 275.17, 237.74 275.33, 238.04 275.5, 238.34 275.67, 238.64 275.83, 238.93 276.0, 239.23 276.17, 239.52 276.33, 239.81 276.5, 240.1 276.67, 240.39 276.83, 240.68 277.0, 240.97 277.17, 241.26 277.33, 241.54 277.5, 241.82 277.67, 242.11 277.83, 242.39 278.0, 242.66 278.17, 242.94 278.33, 243.22 278.5, 243.49 278.67, 243.76 278.83, 244.03 279.0, 244.3 279.17, 244.56 279.33, 244.83 279.5, 245.09 279.67, 245.35 279.83, 245.61 280.0, 245.87 280.17, 246.12 280.33, 246.37 280.5, 246.62 280.67, 246.87 280.83, 247.12 281.0, 247.36 281.17, 247.6 281.33, 247.84 281.5, 248.08 281.67, 248.31 281.83, 248.55 282.0, 248.78 282.17, 249.0 282.33, 249.23 282.5, 249.45 282.67, 249.67 282.83, 249.89 283.0, 250.1 283.17, 250.31 283.33, 250.52 283.5, 250.73 283.67, 250.93 283.83, 251.13 284.0, 251.33 284.17, 251.52 284.33, 251.71 284.5, 251.9 284.67, 252.09 284.83, 252.27 285.0, 252.45 285.17, 252.62 285.33, 252.8 285.5, 252.97 285.67, 253.13 285.83, 253.29 286.0, 253.45 286.17, 253.61 286.33, 253.76 286.5, 253.91 286.67, 254.06 286.83, 254.2 287.0, 254.33 287.17, 254.47 287.33, 254.6 287.5, 254.72 287.67, 254.85 287.83, 254.97 288.0, 255.08 288.17, 255.19 288.33, 255.3 288.5, 255.4 288.67, 255.5 288.83, 255.59 289.0, 255.68 289.17, 255.77 289.33, 255.85 289.5, 255.93 289.67, 256.0 289.83, 256.07 290.0, 256.13 290.17, 256.19 290.33, 256.25 290.5, 256.3 290.67, 256.34 290.83, 256.38 291.0, 256.42 291.17, 256.45 291.33, 256.47 291.5, 256.49 291.67, 256.51 291.83, 256.52 292.0, 256.53 292.17, 256.53 292.33, 256.52 292.5, 256.51 292.67, 256.5 292.83, 256.48 293.0, 256.45 293.17, 256.42 293.33, 256.38 293.5, 256.34 293.67, 256.29 293.83, 256.24 294.0, 256.18 294.17, 256.11 294.33, 256.04 294.5, 255.96 294.67, 255.88 294.83, 255.79 295.0, 255.7 295.17, 255.6 295.33, 255.49 295.5, 255.37 295.67, 255.25 295.83, 255.13 296.0, 254.99 296.17, 254.86 296.33, 254.71 296.5, 254.56 296.67, 254.4 296.83, 254.23 297.0, 254.06 297.17, 253.88 297.33, 253.7 297.5, 253.5 297.67, 253.3 297.83, 253.1 298.0, 252.88 298.17, 252.66 298.33, 252.43 298.5, 252.2 298.67, 251.95 298.83, 251.7 299.0, 251.45 299.17, 251.18 299.33, 250.91 299.5, 250.63 299.67, 250.34 299.83, 250.04 300.0, 249.74 300.17, 249.43 300.33, 249.11 300.5, 248.78 300.67, 248.44 300.83, 248.1 301.0, 247.75 301.17, 247.39 301.33, 247.02 301.5, 246.64 301.67, 246.26 301.83, 245.86 302.0, 245.46 302.17, 245.05 302.33, 244.63 302.5, 244.2 302.67, 243.76 302.83, 243.32 303.0, 242.86 303.17, 242.4 303.33, 241.92 303.5, 241.44 303.67, 240.95 303.83, 240.45 304.0, 239.94 304.17, 239.42 304.33, 238.89 304.5, 238.35 304.67, 237.8 304.83, 237.24 305.0, 236.67 305.17, 236.09 305.33, 235.5 305.5, 234.9 305.67, 234.3 305.83, 233.68 306.0, 233.05 306.17, 232.41 306.33, 231.76 306.5, 231.1 306.67, 230.43 306.83, 229.75 307.0, 229.06 307.17, 228.35 307.33, 227.64 307.5, 226.92 307.67, 226.18 307.83, 225.43 308.0, 224.68 308.17, 223.91 308.33, 223.13 308.5, 222.34 308.67, 221.53 308.83, 220.72 309.0, 219.9 309.17, 219.06 309.33, 218.21 309.5, 217.35 309.67, 216.48 309.83, 215.59 310.0, 214.69 310.17, 213.79 310.33, 212.87 310.5, 211.93 310.67, 210.99 310.83, 210.03 311.0, 209.06 311.17, 208.08 311.33, 207.08 311.5, 206.07 311.67, 205.05 311.83, 204.02 312.0, 202.97 312.17, 201.91 312.33, 200.84 312.5, 199.75 312.67, 198.65 312.83, 197.54 313.0, 196.41 313.17, 195.27 313.33, 194.12 313.5, 192.95 313.67, 191.77 313.83, 190.57 314.0, 189.36 314.17, 188.14 314.33, 186.9 314.5, 185.65 314.67, 184.39 314.83, 183.11 315.0, 181.81 315.17, 180.5 315.33, 179.18 315.5, 177.84 315.67, 176.49 315.83, 175.12 316.0, 173.74 316.17, 172.34 316.33, 170.92 316.5, 169.49 316.67, 168.05 316.83, 166.59 317.0, 165.11 317.17, 163.62 317.33, 162.12 317.5, 160.6 317.67, 159.06 317.83, 157.5 318.0, 155.93 318.17, 154.35 318.33, 152.74 318.5, 151.12 318.67, 149.49 318.83, 147.84 319.0, 146.17 319.17, 144.48 319.33, 142.78 319.5, 141.06 319.67, 139.32 319.83, 137.57 320.0, 135.8 320.17, 134.01 320.33, 132.21 320.5, 130.38 320.67, 128.54 320.83, 126.69 321.0, 124.81 321.17, 122.92 321.33, 121.01 321.5, 119.08 321.67, 117.13 321.83, 115.16 322.0, 113.18 322.17, 111.17 322.33, 109.15 322.5, 107.11 322.67, 105.05 322.83, 102.98 323.0, 100.88 323.17, 98.76 323.33, 96.63 323.5, 94.48 323.67, 92.3 323.83, 90.11 324.0, 87.9 324.17, 85.66 324.33, 83.41 324.5, 81.14 324.67, 78.85 324.83, 76.54 325.0, 74.21 325.17, 71.85 325.33, 69.48 325.5, 67.09 325.67, 64.67 325.83, 62.24 326.0, 59.78 326.17, 57.31 326.33, 54.81 326.5, 52.29 326.67, 49.75 326.83, 47.19 327.0, 44.61 327.17, 42.01 327.33, 39.38 327.5, 36.73 327.67, 34.06 327.83, 31.37 328.0, 28.66 328.17, 25.92 328.33, 23.17 328.5, 20.39 328.67, 17.58 328.83, 14.76 329.0, 11.91 329.17, 9.04 329.33, 6.14 329.5, 3.23 329.67, 0.29 329.83, -2.68 330.0, -5.66 330.17, -8.68 330.33, -11.71 330.5, -14.77 330.67, -17.85 330.83, -20.96 331.0, -24.09 331.17, -27.24 331.33, -30.42 331.5, -33.62 331.67, -36.85 331.83, -40.1 332.0, -43.38 332.17, -46.68 332.33, -50.01 332.5, -53.36 332.67, -56.74 332.83, -60.14 333.0, -63.57 333.17, -67.03 333.33, -70.51 333.5, -74.01 333.67, -77.55 333.83, -81.1 334.0, -84.69 334.17, -88.3 334.33, -91.94 334.5, -95.6 334.67, -99.29 334.83, -103.01 335.0, -106.75 335.17, -110.53 335.33, -114.32 335.5, -118.15 335.67, -122.0 335.83, -125.89 336.0, -129.79 336.17, -133.73 336.33, -137.7 336.5, -141.69 336.67, -145.71 336.83, -149.76 337.0, -153.84 337.17, -157.95 337.33, -162.08 337.5, -166.25 337.67, -170.44 337.83, -174.66 338.0, -178.91 338.17, -183.19 338.33, -187.51 338.5, -191.85 338.67, -196.22 338.83, -200.62 339.0, -205.05 339.17, -209.51 339.33, -214.0 339.5, -218.52 339.67, -223.07 339.83, -227.65 340.0, -232.26 340.17, -236.91 340.33, -241.58 340.5, -246.29 340.67, -251.03 340.83, -255.8 341.0, -260.6 341.17, -265.43 341.33, -270.3 341.5, -275.19 341.67, -280.12 341.83, -285.08 342.0, -290.08 342.17, -295.1 342.33, -300.16 342.5, -305.25 342.67, -310.38 342.83, -315.54 343.0, -320.73 343.17, -325.95 343.33, -331.21 343.5, -336.5 343.67, -341.83 343.83, -347.19 344.0, -352.58 344.17, -358.01 344.33, -363.47 344.5, -368.97 344.67, -374.5 344.83, -380.07 345.0, -385.67 345.17, -391.31 345.33, -396.98 345.5, -402.69 345.67, -408.43 345.83, -414.21 346.0, -420.03 346.17, -425.88 346.33, -431.76 346.5, -437.69 346.67, -443.65 346.83, -449.64 347.0, -455.68 347.17, -461.75 347.33, -467.85 347.5, -474.0 347.67, -480.18 347.83, -486.4 348.0, -492.65 348.17, -498.95 348.33, -505.28 348.5, -511.65 348.67, -518.06 348.83, -524.51 349.0, -530.99 349.17, -537.52 349.33, -544.08 349.5, -550.68 349.67, -557.33 349.83, -564.01 350.0, -570.73 350.17, -577.49 350.33, -584.29 350.5, -591.13 350.67, -598.01 350.83, -604.93 351.0, -611.89 351.17, -618.89 351.33, -625.93 351.5, -633.01 351.67, -640.14 351.83, -647.3 352.0, -654.51 352.17, -661.76 352.33, -669.05 352.5, -676.38 352.67, -683.75 352.83, -691.17 353.0, -698.62 353.17, -706.12 353.33, -713.67 353.5, -721.25 353.67, -728.88 353.83, -736.55 354.0, -744.27 354.17, -752.03 354.33, -759.83 354.5, -767.68 354.67, -775.57 354.83, -783.5 355.0, -791.48 355.17, -799.5 355.33, -807.57 355.5, -815.68 355.67, -823.84 355.83, -832.04 356.0, -840.29 356.17, -848.58 356.33, -856.92 356.5, -865.3 356.67, -873.74 356.83, -882.21 357.0, -890.74 357.17, -899.3 357.33, -907.92 357.5, -916.58 357.67, -925.29 357.83, -934.05 358.0, -942.86 358.17, -951.71 358.33, -960.61 358.5, -969.56 358.67, -978.55 358.83, -987.59 359.0, -996.69 359.17, -1005.83 359.33, -1015.02 359.5, -1024.26 359.67, -1033.54 359.83, -1042.88 360.0, -1052.27 360.17, -1061.7 360.33, -1071.19 360.5, -1080.72 360.67, -1090.31 360.83, -1099.95 361.0, -1109.63 361.17, -1119.37 361.33, -1129.16 361.5, -1139.0 361.67, -1148.89 361.83, -1158.83 362.0, -1168.83 362.17, -1178.87 362.33, -1188.97 362.5, -1199.12 362.67, -1209.32 362.83, -1219.57 363.0, -1229.88 363.17, -1240.24 363.33, -1250.66 363.5, -1261.12 363.67, -1271.64 363.83, -1282.22 364.0, -1292.84 364.17, -1303.52 364.33, -1314.26 364.5, -1325.05 364.67, -1335.89 364.83, -1346.79 365.0, -1357.75 365.17, -1368.76 365.33, -1379.82 365.5, -1390.94 365.67, -1402.12 365.83, -1413.35 366.0, -1424.64 366.17, -1435.99 366.33, -1447.39 366.5, -1458.84 366.67, -1470.36 366.83, -1481.93 367.0, -1493.56 367.17, -1505.25 367.33, -1516.99 367.5, -1528.79 367.67, -1540.65 367.83, -1552.57 368.0, -1564.55 368.17, -1576.58 368.33, -1588.68 368.5, -1600.83 368.67, -1613.04 368.83, -1625.31 369.0, -1637.65 369.17, -1650.04 369.33, -1662.49 369.5, -1675.0 369.67, -1687.57 369.83, -1700.21 370.0, -1712.9 370.17, -1725.65 370.33, -1738.47 370.5, -1751.35 370.67, -1764.29 370.83, -1777.29 371.0, -1790.35 371.17, -1803.48 371.33, -1816.66 371.5, -1829.91 371.67, -1843.23 371.83, -1856.6 372.0, -1870.04 372.17, -1883.55 372.33, -1897.11 372.5, -1910.75 372.67, -1924.44 372.83, -1938.2 373.0, -1952.02 373.17, -1965.91 373.33, -1979.87 373.5, -1993.89 373.67, -2007.97 373.83, -2022.12 374.0, -2036.34 374.17, -2050.62 374.33, -2064.97 374.5, -2079.38 374.67, -2093.86 374.83, -2108.41 375.0, -2123.02 375.17, -2137.71 375.33, -2152.46 375.5, -2167.27 375.67, -2182.16 375.83, -2197.11 376.0, -2212.14 376.17, -2227.23 376.33, -2242.39 376.5, -2257.62 376.67, -2272.91 376.83, -2288.28 377.0, -2303.72 377.17, -2319.23 377.33, -2334.8 377.5, -2350.45 377.67, -2366.17 377.83, -2381.96 378.0, -2397.82 378.17, -2413.75 378.33, -2429.76 378.5, -2445.83 378.67, -2461.98 378.83, -2478.2 379.0, -2494.49 379.17, -2510.85 379.33, -2527.29 379.5, -2543.8 379.67, -2560.38 379.83, -2577.04 380.0, -2593.77 380.17, -2610.57 380.33, -2627.45 380.5, -2644.41 380.67, -2661.43 380.83, -2678.54 381.0, -2695.71 381.17, -2712.97 381.33, -2730.3 381.5, -2747.7 381.67, -2765.18 381.83, -2782.74 382.0, -2800.37 382.17, -2818.08 382.33, -2835.87 382.5, -2853.73 382.67, -2871.68 382.83, -2889.69 383.0, -2907.79 383.17, -2925.97 383.33, -2944.22 383.5, -2962.56 383.67, -2980.97 383.83, -2999.46 384.0, -3018.03 384.17, -3036.68 384.33, -3055.41 384.5, -3074.22 384.67, -3093.11 384.83, -3112.08 385.0, -3131.13 385.17, -3150.26 385.33, -3169.48 385.5, -3188.77 385.67, -3208.15 385.83, -3227.61 386.0, -3247.15 386.17, -3266.77 386.33, -3286.48 386.5, -3306.27 386.67, -3326.14 386.83, -3346.1 387.0, -3366.14 387.17, -3386.26 387.33, -3406.47 387.5, -3426.76 387.67, -3447.14 387.83, -3467.6 388.0, -3488.15 388.17, -3508.78 388.33, -3529.5 388.5, -3550.31 388.67, -3571.2 388.83, -3592.18 389.0, -3613.24 389.17, -3634.39 389.33, -3655.63 389.5, -3676.96 389.67, -3698.37 389.83, -3719.87 390.0, -3741.46 390.17, -3763.14 390.33, -3784.91 390.5, -3806.76 390.67, -3828.71 390.83, -3850.75 391.0, -3872.87 391.17, -3895.09 391.33, -3917.39 391.5, -3939.79 391.67, -3962.27 391.83, -3984.85 392.0, -4007.52 392.17, -4030.28 392.33, -4053.14 392.5, -4076.08 392.67, -4099.12 392.83, -4122.25 393.0, -4145.47 393.17, -4168.79 393.33, -4192.2 393.5, -4215.7 393.67, -4239.3 393.83, -4262.99 394.0, -4286.78 394.17, -4310.66 394.33, -4334.63 394.5, -4358.71 394.67, -4382.87 394.83, -4407.14 395.0, -4431.49 395.17, -4455.95 395.33, -4480.5 395.5, -4505.15 395.67, -4529.9 395.83, -4554.74 396.0, -4579.68 396.17, -4604.72 396.33, -4629.86 396.5, -4655.1 396.67, -4680.43 396.83, -4705.87 397.0, -4731.4 397.17, -4757.04 397.33, -4782.77 397.5, -4808.6 397.67, -4834.54 397.83, -4860.57 398.0, -4886.71 398.17, -4912.95 398.33, -4939.29 398.5, -4965.73 398.67, -4992.27 398.83, -5018.92 399.0, -5045.67 399.17, -5072.52 399.33, -5099.47 399.5, -5126.53 399.67, -5153.7 399.83, -5180.96 400.0, -5208.33 " fill="none" stroke="white" stroke-width="1.5" stroke-linejoin="round" stroke-opacity="1"/>

 </svg>