<svg version="1.1" 
 baseProfile="full" 
 width="400" 
 height="400" 
 xmlns="http://www.w3.org/2000/svg">
<rect x="0.0" y="0.0" width="400" height="400" fill="black" stroke="black" stroke-width="0" opacity="1"/>
<line x1="0.0" y1="0.0" x2="0.0" y2="400.0" stroke="white" stroke-width="1" opacity="0.4" stroke-linecap="butt"/>
<line x1="40.0" y1="0.0" x2="40.0" y2="400.0" stroke="white" stroke-width="1" opacity="0.4" stroke-linecap="butt"/>
<line x1="80.0" y1="0.0" x2="80.0" y2="400.0" stroke="white" stroke-width="1" opacity="0.4" stroke-linecap="butt"/>
<line x1="120.0" y1="0.0" x2="120.0" y2="400.0" stroke="white" stroke-width="1" opacity="0.4" stroke-linecap="butt"/>
<line x1="160.0" y1="0.0" x2="160.0" y2="400.0" stroke="white" stroke-width="1" opacity="0.4" stroke-linecap="butt"/>
<line x1="200.0" y1="0.0" x2="200.0" y2="400.0" stroke="white" stroke-width="1" opacity="0.4" stroke-linecap="butt"/>
<line x1="240.0" y1="0.0" x2="240.0" y2="400.0" stroke="white" stroke-width="1" opacity="0.4" stroke-linecap="butt"/>
<line x1="280.0" y1="0.0" x2="280.0" y2="400.0" stroke="white" stroke-width="1" opacity="0.4" stroke-linecap="butt"/>
<line x1="320.0" y1="0.0" x2="320.0" y2="400.0" stroke="white" stroke-width="1" opacity="0.4" stroke-linecap="butt"/>
<line x1="360.0" y1="0.0" x2="360.0" y2="400.0" stroke="white" stroke-width="1" opacity="0.4" stroke-linecap="butt"/>
<line x1="0.0" y1="0.0" x2="400.0" y2="0.0" stroke="white" stroke-width="1" opacity="0.4" stroke-linecap="butt"/>
<line x1="0.0" y1="40.0" x2="400.0" y2="40.0" stroke="white" stroke-width="1" opacity="0.4" stroke-linecap="butt"/>
<line x1="0.0" y1="80.0" x2="400.0" y2="80.0" stroke="white" stroke-width="1" opacity="0.4" stroke-linecap="butt"/>
<line x1="0.0" y1="120.0" x2="400.0" y2="120.0" stroke="white" stroke-width="1" opacity="0.4" stroke-linecap="butt"/>
<line x1="0.0" y1="160.0" x2="400.0" y2="160.0" stroke="white" stroke-width="1" opacity="0.4" stroke-linecap="butt"/>
<line x1="0.0" y1="200.0" x2="400.0" y2="200.0" stroke="white" stroke-width="1" opacity="0.4" stroke-linecap="butt"/>
<line x1="0.0" y1="240.0" x2="400.0" y2="240.0" stroke="white" stroke-width="1" opacity="0.4" stroke-linecap="butt"/>
<line x1="0.0" y1="280.0" x2="400.0" y2="280.0" stroke="white" stroke-width="1" opacity="0.4" stroke-linecap="butt"/>
<line x1="0.0" y1="320.0" x2="400.0" y2="320.0" stroke="white" stroke-width="1" opacity="0.4" stroke-linecap="butt"/>
<line x1="0.0" y1="360.0" x2="400.0" y2="360.0" stroke="white" stroke-width="1" opacity="0.4" stroke-linecap="butt"/>
<line x1="0.0" y1="200.0" x2="400.0" y2="200.0" stroke="yellow" stroke-width="2.5" opacity="1" stroke-linecap="butt"/>
<line x1="200.0" y1="0.0" x2="200.0" y2="400.0" stroke="yellow" stroke-width="2.5" opacity="1" stroke-linecap="butt"/>
<polygon points="391.0 204.0, 401.0 200.0, 391.0 196.0, 393.0 200.0" fill="yellow"/><polygon points="204.0 9.0, 200.0 -1.0, 196.0 9.0, 200.0 7.0" fill="yellow"/><image x="-60.0" y="-60.0" width="200" height="200" href="/Users/girirajhira/PycharmProjects/Giraphics3/Taylor/expr.png"/><polyline points="0.0, 7275.0 0.17, 7240.7 0.33, 7206.52 0.5, 7172.47 0.67, 7138.55 0.83, 7104.75 1.0, 7071.08 1.17, 7037.54 1.33, 7004.12 1.5, 6970.83 1.67, 6937.66 1.83, 6904.61 2.0, 6871.69 2.17, 6838.9 2.33, 6806.22 2.5, 6773.68 2.67, 6741.25 2.83, 6708.94 3.0, 6676.76 3.17, 6644.7 3.33, 6612.76 3.5, 6580.95 3.67, 6549.25 3.83, 6517.67 4.0, 6486.22 4.17, 6454.88 4.33, 6423.67 4.5, 6392.57 4.67, 6361.59 4.83, 6330.73 5.0, 6299.99 5.17, 6269.36 5.33, 6238.86 5.5, 6208.47 5.67, 6178.2 5.83, 6148.04 6.0, 6118.0 6.17, 6088.08 6.33, 6058.27 6.5, 6028.58 6.67, 5999.0 6.83, 5969.53 7.0, 5940.19 7.17, 5910.95 7.33, 5881.83 7.5, 5852.82 7.67, 5823.93 7.83, 5795.15 8.0, 5766.48 8.17, 5737.92 8.33, 5709.47 8.5, 5681.14 8.67, 5652.92 8.83, 5624.8 9.0, 5596.8 9.17, 5568.91 9.33, 5541.13 9.5, 5513.46 9.67, 5485.9 9.83, 5458.44 10.0, 5431.1 10.17, 5403.86 10.33, 5376.73 10.5, 5349.71 10.67, 5322.8 10.83, 5295.99 11.0, 5269.29 11.17, 5242.7 11.33, 5216.21 11.5, 5189.83 11.67, 5163.56 11.83, 5137.39 12.0, 5111.32 12.17, 5085.36 12.33, 5059.51 12.5, 5033.76 12.67, 5008.11 12.83, 4982.56 13.0, 4957.12 13.17, 4931.79 13.33, 4906.55 13.5, 4881.42 13.67, 4856.39 13.83, 4831.46 14.0, 4806.63 14.17, 4781.9 14.33, 4757.28 14.5, 4732.75 14.67, 4708.33 14.83, 4684.0 15.0, 4659.77 15.17, 4635.65 15.33, 4611.62 15.5, 4587.69 15.67, 4563.86 15.83, 4540.13 16.0, 4516.5 16.17, 4492.96 16.33, 4469.52 16.5, 4446.18 16.67, 4422.94 16.83, 4399.79 17.0, 4376.73 17.17, 4353.78 17.33, 4330.92 17.5, 4308.15 17.67, 4285.48 17.83, 4262.91 18.0, 4240.42 18.17, 4218.04 18.33, 4195.74 18.5, 4173.55 18.67, 4151.44 18.83, 4129.43 19.0, 4107.51 19.17, 4085.68 19.33, 4063.94 19.5, 4042.3 19.67, 4020.75 19.83, 3999.29 20.0, 3977.92 20.17, 3956.64 20.33, 3935.45 20.5, 3914.36 20.67, 3893.35 20.83, 3872.43 21.0, 3851.6 21.17, 3830.86 21.33, 3810.21 21.5, 3789.65 21.67, 3769.18 21.83, 3748.79 22.0, 3728.5 22.17, 3708.29 22.33, 3688.17 22.5, 3668.13 22.67, 3648.18 22.83, 3628.32 23.0, 3608.55 23.17, 3588.86 23.33, 3569.25 23.5, 3549.73 23.67, 3530.3 23.83, 3510.95 24.0, 3491.69 24.17, 3472.51 24.33, 3453.42 24.5, 3434.4 24.67, 3415.48 24.83, 3396.63 25.0, 3377.87 25.17, 3359.19 25.33, 3340.6 25.5, 3322.09 25.67, 3303.65 25.83, 3285.3 26.0, 3267.04 26.17, 3248.85 26.33, 3230.74 26.5, 3212.72 26.67, 3194.78 26.83, 3176.91 27.0, 3159.13 27.17, 3141.42 27.33, 3123.8 27.5, 3106.25 27.67, 3088.79 27.83, 3071.4 28.0, 3054.09 28.17, 3036.86 28.33, 3019.7 28.5, 3002.63 28.67, 2985.63 28.83, 2968.71 29.0, 2951.87 29.17, 2935.1 29.33, 2918.41 29.5, 2901.8 29.67, 2885.26 29.83, 2868.8 30.0, 2852.41 30.17, 2836.1 30.33, 2819.86 30.5, 2803.7 30.67, 2787.61 30.83, 2771.6 31.0, 2755.66 31.17, 2739.79 31.33, 2724.0 31.5, 2708.28 31.67, 2692.64 31.83, 2677.07 32.0, 2661.57 32.17, 2646.14 32.33, 2630.78 32.5, 2615.5 32.67, 2600.29 32.83, 2585.15 33.0, 2570.08 33.17, 2555.08 33.33, 2540.15 33.5, 2525.3 33.67, 2510.51 33.83, 2495.79 34.0, 2481.15 34.17, 2466.57 34.33, 2452.06 34.5, 2437.62 34.67, 2423.25 34.83, 2408.95 35.0, 2394.72 35.17, 2380.55 35.33, 2366.46 35.5, 2352.43 35.67, 2338.46 35.83, 2324.57 36.0, 2310.74 36.17, 2296.98 36.33, 2283.29 36.5, 2269.66 36.67, 2256.1 36.83, 2242.6 37.0, 2229.17 37.17, 2215.81 37.33, 2202.51 37.5, 2189.27 37.67, 2176.1 37.83, 2163.0 38.0, 2149.96 38.17, 2136.98 38.33, 2124.07 38.5, 2111.22 38.67, 2098.43 38.83, 2085.71 39.0, 2073.05 39.17, 2060.45 39.33, 2047.92 39.5, 2035.44 39.67, 2023.03 39.83, 2010.69 40.0, 1998.4 40.17, 1986.18 40.33, 1974.01 40.5, 1961.91 40.67, 1949.87 40.83, 1937.89 41.0, 1925.97 41.17, 1914.11 41.33, 1902.3 41.5, 1890.56 41.67, 1878.88 41.83, 1867.26 42.0, 1855.7 42.17, 1844.19 42.33, 1832.75 42.5, 1821.36 42.67, 1810.04 42.83, 1798.76 43.0, 1787.55 43.17, 1776.4 43.33, 1765.3 43.5, 1754.26 43.67, 1743.28 43.83, 1732.35 44.0, 1721.48 44.17, 1710.67 44.33, 1699.91 44.5, 1689.21 44.67, 1678.57 44.83, 1667.98 45.0, 1657.45 45.17, 1646.97 45.33, 1636.55 45.5, 1626.18 45.67, 1615.86 45.83, 1605.6 46.0, 1595.4 46.17, 1585.25 46.33, 1575.15 46.5, 1565.11 46.67, 1555.12 46.83, 1545.18 47.0, 1535.3 47.17, 1525.46 47.33, 1515.69 47.5, 1505.96 47.67, 1496.29 47.83, 1486.67 48.0, 1477.1 48.17, 1467.58 48.33, 1458.11 48.5, 1448.7 48.67, 1439.33 48.83, 1430.02 49.0, 1420.76 49.17, 1411.54 49.33, 1402.38 49.5, 1393.27 49.67, 1384.21 49.83, 1375.2 50.0, 1366.24 50.17, 1357.32 50.33, 1348.46 50.5, 1339.64 50.67, 1330.88 50.83, 1322.16 51.0, 1313.49 51.17, 1304.87 51.33, 1296.3 51.5, 1287.78 51.67, 1279.3 51.83, 1270.87 52.0, 1262.49 52.17, 1254.15 52.33, 1245.87 52.5, 1237.63 52.67, 1229.43 52.83, 1221.28 53.0, 1213.18 53.17, 1205.13 53.33, 1197.12 53.5, 1189.16 53.67, 1181.24 53.83, 1173.36 54.0, 1165.54 54.17, 1157.75 54.33, 1150.02 54.5, 1142.32 54.67, 1134.68 54.83, 1127.07 55.0, 1119.51 55.17, 1112.0 55.33, 1104.52 55.5, 1097.09 55.67, 1089.71 55.83, 1082.37 56.0, 1075.07 56.17, 1067.81 56.33, 1060.6 56.5, 1053.43 56.67, 1046.3 56.83, 1039.21 57.0, 1032.17 57.17, 1025.17 57.33, 1018.21 57.5, 1011.29 57.67, 1004.41 57.83, 997.58 58.0, 990.78 58.17, 984.03 58.33, 977.31 58.5, 970.64 58.67, 964.01 58.83, 957.42 59.0, 950.86 59.17, 944.35 59.33, 937.88 59.5, 931.44 59.67, 925.05 59.83, 918.7 60.0, 912.38 60.17, 906.1 60.33, 899.87 60.5, 893.67 60.67, 887.51 60.83, 881.38 61.0, 875.3 61.17, 869.25 61.33, 863.25 61.5, 857.27 61.67, 851.34 61.83, 845.44 62.0, 839.59 62.17, 833.76 62.33, 827.98 62.5, 822.23 62.67, 816.52 62.83, 810.84 63.0, 805.2 63.17, 799.6 63.33, 794.03 63.5, 788.5 63.67, 783.0 63.83, 777.54 64.0, 772.12 64.17, 766.73 64.33, 761.37 64.5, 756.05 64.67, 750.77 64.83, 745.51 65.0, 740.3 65.17, 735.11 65.33, 729.97 65.5, 724.85 65.67, 719.77 65.83, 714.72 66.0, 709.71 66.17, 704.73 66.33, 699.78 66.5, 694.87 66.67, 689.99 66.83, 685.14 67.0, 680.32 67.17, 675.54 67.33, 670.79 67.5, 666.07 67.67, 661.38 67.83, 656.73 68.0, 652.1 68.17, 647.51 68.33, 642.95 68.5, 638.42 68.67, 633.92 68.83, 629.46 69.0, 625.02 69.17, 620.62 69.33, 616.24 69.5, 611.9 69.67, 607.58 69.83, 603.3 70.0, 599.05 70.17, 594.82 70.33, 590.63 70.5, 586.47 70.67, 582.33 70.83, 578.22 71.0, 574.15 71.17, 570.1 71.33, 566.08 71.5, 562.09 71.67, 558.13 71.83, 554.2 72.0, 550.3 72.17, 546.42 72.33, 542.58 72.5, 538.76 72.67, 534.97 72.83, 531.2 73.0, 527.47 73.17, 523.76 73.33, 520.08 73.5, 516.42 73.67, 512.8 73.83, 509.2 74.0, 505.62 74.17, 502.08 74.33, 498.56 74.5, 495.06 74.67, 491.6 74.83, 488.16 75.0, 484.74 75.17, 481.35 75.33, 477.99 75.5, 474.65 75.67, 471.34 75.83, 468.05 76.0, 464.79 76.17, 461.56 76.33, 458.35 76.5, 455.16 76.67, 452.0 76.83, 448.86 77.0, 445.75 77.17, 442.66 77.33, 439.6 77.5, 436.56 77.67, 433.55 77.83, 430.56 78.0, 427.59 78.17, 424.65 78.33, 421.73 78.5, 418.83 78.67, 415.96 78.83, 413.11 79.0, 410.28 79.17, 407.48 79.33, 404.7 79.5, 401.94 79.67, 399.2 79.83, 396.49 80.0, 393.8 80.17, 391.13 80.33, 388.49 80.5, 385.86 80.67, 383.26 80.83, 380.68 81.0, 378.12 81.17, 375.59 81.33, 373.07 81.5, 370.58 81.67, 368.1 81.83, 365.65 82.0, 363.22 82.17, 360.81 82.33, 358.42 82.5, 356.06 82.67, 353.71 82.83, 351.38 83.0, 349.08 83.17, 346.79 83.33, 344.52 83.5, 342.28 83.67, 340.05 83.83, 337.84 84.0, 335.66 84.17, 333.49 84.33, 331.34 84.5, 329.21 84.67, 327.11 84.83, 325.02 85.0, 322.95 85.17, 320.89 85.33, 318.86 85.5, 316.85 85.67, 314.85 85.83, 312.88 86.0, 310.92 86.17, 308.98 86.33, 307.06 86.5, 305.15 86.67, 303.27 86.83, 301.4 87.0, 299.55 87.17, 297.72 87.33, 295.9 87.5, 294.11 87.67, 292.33 87.83, 290.56 88.0, 288.82 88.17, 287.09 88.33, 285.38 88.5, 283.69 88.67, 282.01 88.83, 280.35 89.0, 278.7 89.17, 277.08 89.33, 275.47 89.5, 273.87 89.67, 272.29 89.83, 270.73 90.0, 269.19 90.17, 267.66 90.33, 266.14 90.5, 264.64 90.67, 263.16 90.83, 261.69 91.0, 260.24 91.17, 258.81 91.33, 257.38 91.5, 255.98 91.67, 254.59 91.83, 253.21 92.0, 251.85 92.17, 250.5 92.33, 249.17 92.5, 247.86 92.67, 246.55 92.83, 245.27 93.0, 243.99 93.17, 242.74 93.33, 241.49 93.5, 240.26 93.67, 239.04 93.83, 237.84 94.0, 236.65 94.17, 235.48 94.33, 234.31 94.5, 233.17 94.67, 232.03 94.83, 230.91 95.0, 229.8 95.17, 228.71 95.33, 227.63 95.5, 226.56 95.67, 225.5 95.83, 224.46 96.0, 223.43 96.17, 222.41 96.33, 221.41 96.5, 220.42 96.67, 219.44 96.83, 218.47 97.0, 217.52 97.17, 216.58 97.33, 215.64 97.5, 214.73 97.67, 213.82 97.83, 212.93 98.0, 212.04 98.17, 211.17 98.33, 210.31 98.5, 209.47 98.67, 208.63 98.83, 207.8 99.0, 206.99 99.17, 206.19 99.33, 205.4 99.5, 204.62 99.67, 203.85 99.83, 203.09 100.0, 202.34 100.17, 201.61 100.33, 200.88 100.5, 200.17 100.67, 199.46 100.83, 198.77 101.0, 198.08 101.17, 197.41 101.33, 196.75 101.5, 196.1 101.67, 195.45 101.83, 194.82 102.0, 194.2 102.17, 193.58 102.33, 192.98 102.5, 192.39 102.67, 191.8 102.83, 191.23 103.0, 190.66 103.17, 190.11 103.33, 189.56 103.5, 189.03 103.67, 188.5 103.83, 187.98 104.0, 187.47 104.17, 186.97 104.33, 186.48 104.5, 186.0 104.67, 185.53 104.83, 185.06 105.0, 184.6 105.17, 184.16 105.33, 183.72 105.5, 183.29 105.67, 182.87 105.83, 182.45 106.0, 182.05 106.17, 181.65 106.33, 181.26 106.5, 180.88 106.67, 180.51 106.83, 180.14 107.0, 179.78 107.17, 179.43 107.33, 179.09 107.5, 178.76 107.67, 178.43 107.83, 178.11 108.0, 177.8 108.17, 177.5 108.33, 177.2 108.5, 176.91 108.67, 176.63 108.83, 176.35 109.0, 176.08 109.17, 175.82 109.33, 175.57 109.5, 175.32 109.67, 175.08 109.83, 174.85 110.0, 174.62 110.17, 174.4 110.33, 174.19 110.5, 173.98 110.67, 173.78 110.83, 173.59 111.0, 173.4 111.17, 173.22 111.33, 173.04 111.5, 172.88 111.67, 172.71 111.83, 172.56 112.0, 172.41 112.17, 172.26 112.33, 172.12 112.5, 171.99 112.67, 171.86 112.83, 171.74 113.0, 171.63 113.17, 171.52 113.33, 171.41 113.5, 171.31 113.67, 171.22 113.83, 171.13 114.0, 171.05 114.17, 170.97 114.33, 170.9 114.5, 170.83 114.67, 170.77 114.83, 170.71 115.0, 170.66 115.17, 170.61 115.33, 170.57 115.5, 170.54 115.67, 170.5 115.83, 170.48 116.0, 170.45 116.17, 170.44 116.33, 170.42 116.5, 170.41 116.67, 170.41 116.83, 170.41 117.0, 170.41 117.17, 170.42 117.33, 170.44 117.5, 170.46 117.67, 170.48 117.83, 170.5 118.0, 170.53 118.17, 170.57 118.33, 170.61 118.5, 170.65 118.67, 170.69 118.83, 170.74 119.0, 170.8 119.17, 170.86 119.33, 170.92 119.5, 170.98 119.67, 171.05 119.83, 171.12 120.0, 171.2 120.17, 171.28 120.33, 171.36 120.5, 171.45 120.67, 171.54 120.83, 171.63 121.0, 171.73 121.17, 171.83 121.33, 171.93 121.5, 172.04 121.67, 172.15 121.83, 172.26 122.0, 172.37 122.17, 172.49 122.33, 172.61 122.5, 172.74 122.67, 172.86 122.83, 172.99 123.0, 173.13 123.17, 173.26 123.33, 173.4 123.5, 173.54 123.67, 173.68 123.83, 173.83 124.0, 173.98 124.17, 174.13 124.33, 174.28 124.5, 174.44 124.67, 174.6 124.83, 174.76 125.0, 174.92 125.17, 175.09 125.33, 175.25 125.5, 175.42 125.67, 175.6 125.83, 175.77 126.0, 175.95 126.17, 176.12 126.33, 176.3 126.5, 176.49 126.67, 176.67 126.83, 176.86 127.0, 177.04 127.17, 177.23 127.33, 177.42 127.5, 177.62 127.67, 177.81 127.83, 178.01 128.0, 178.21 128.17, 178.41 128.33, 178.61 128.5, 178.81 128.67, 179.01 128.83, 179.22 129.0, 179.43 129.17, 179.64 129.33, 179.85 129.5, 180.06 129.67, 180.27 129.83, 180.48 130.0, 180.7 130.17, 180.92 130.33, 181.13 130.5, 181.35 130.67, 181.57 130.83, 181.79 131.0, 182.02 131.17, 182.24 131.33, 182.46 131.5, 182.69 131.67, 182.91 131.83, 183.14 132.0, 183.37 132.17, 183.6 132.33, 183.83 132.5, 184.06 132.67, 184.29 132.83, 184.52 133.0, 184.75 133.17, 184.99 133.33, 185.22 133.5, 185.45 133.67, 185.69 133.83, 185.92 134.0, 186.16 134.17, 186.4 134.33, 186.63 134.5, 186.87 134.67, 187.11 134.83, 187.35 135.0, 187.59 135.17, 187.83 135.33, 188.07 135.5, 188.31 135.67, 188.55 135.83, 188.79 136.0, 189.03 136.17, 189.27 136.33, 189.51 136.5, 189.75 136.67, 189.99 136.83, 190.23 137.0, 190.47 137.17, 190.71 137.33, 190.96 137.5, 191.2 137.67, 191.44 137.83, 191.68 138.0, 191.92 138.17, 192.16 138.33, 192.4 138.5, 192.65 138.67, 192.89 138.83, 193.13 139.0, 193.37 139.17, 193.61 139.33, 193.85 139.5, 194.09 139.67, 194.33 139.83, 194.57 140.0, 194.81 140.17, 195.04 140.33, 195.28 140.5, 195.52 140.67, 195.76 140.83, 196.0 141.0, 196.23 141.17, 196.47 141.33, 196.7 141.5, 196.94 141.67, 197.17 141.83, 197.41 142.0, 197.64 142.17, 197.87 142.33, 198.11 142.5, 198.34 142.67, 198.57 142.83, 198.8 143.0, 199.03 143.17, 199.26 143.33, 199.49 143.5, 199.72 143.67, 199.94 143.83, 200.17 144.0, 200.4 144.17, 200.62 144.33, 200.84 144.5, 201.07 144.67, 201.29 144.83, 201.51 145.0, 201.73 145.17, 201.95 145.33, 202.17 145.5, 202.39 145.67, 202.61 145.83, 202.82 146.0, 203.04 146.17, 203.25 146.33, 203.47 146.5, 203.68 146.67, 203.89 146.83, 204.1 147.0, 204.31 147.17, 204.52 147.33, 204.72 147.5, 204.93 147.67, 205.14 147.83, 205.34 148.0, 205.54 148.17, 205.74 148.33, 205.94 148.5, 206.14 148.67, 206.34 148.83, 206.54 149.0, 206.74 149.17, 206.93 149.33, 207.12 149.5, 207.32 149.67, 207.51 149.83, 207.7 150.0, 207.89 150.17, 208.07 150.33, 208.26 150.5, 208.44 150.67, 208.63 150.83, 208.81 151.0, 208.99 151.17, 209.17 151.33, 209.35 151.5, 209.53 151.67, 209.7 151.83, 209.88 152.0, 210.05 152.17, 210.22 152.33, 210.39 152.5, 210.56 152.67, 210.73 152.83, 210.89 153.0, 211.06 153.17, 211.22 153.33, 211.38 153.5, 211.54 153.67, 211.7 153.83, 211.86 154.0, 212.01 154.17, 212.17 154.33, 212.32 154.5, 212.47 154.67, 212.62 154.83, 212.77 155.0, 212.92 155.17, 213.06 155.33, 213.21 155.5, 213.35 155.67, 213.49 155.83, 213.63 156.0, 213.77 156.17, 213.9 156.33, 214.04 156.5, 214.17 156.67, 214.3 156.83, 214.43 157.0, 214.56 157.17, 214.69 157.33, 214.81 157.5, 214.94 157.67, 215.06 157.83, 215.18 158.0, 215.3 158.17, 215.42 158.33, 215.53 158.5, 215.65 158.67, 215.76 158.83, 215.87 159.0, 215.98 159.17, 216.09 159.33, 216.19 159.5, 216.3 159.67, 216.4 159.83, 216.5 160.0, 216.6 160.17, 216.7 160.33, 216.79 160.5, 216.89 160.67, 216.98 160.83, 217.07 161.0, 217.16 161.17, 217.25 161.33, 217.34 161.5, 217.42 161.67, 217.5 161.83, 217.58 162.0, 217.66 162.17, 217.74 162.33, 217.82 162.5, 217.89 162.67, 217.97 162.83, 218.04 163.0, 218.11 163.17, 218.17 163.33, 218.24 163.5, 218.31 163.67, 218.37 163.83, 218.43 164.0, 218.49 164.17, 218.55 164.33, 218.6 164.5, 218.66 164.67, 218.71 164.83, 218.76 165.0, 218.81 165.17, 218.86 165.33, 218.9 165.5, 218.95 165.67, 218.99 165.83, 219.03 166.0, 219.07 166.17, 219.11 166.33, 219.15 166.5, 219.18 166.67, 219.21 166.83, 219.25 167.0, 219.27 167.17, 219.3 167.33, 219.33 167.5, 219.35 167.67, 219.38 167.83, 219.4 168.0, 219.42 168.17, 219.44 168.33, 219.45 168.5, 219.47 168.67, 219.48 168.83, 219.49 169.0, 219.5 169.17, 219.51 169.33, 219.52 169.5, 219.52 169.67, 219.52 169.83, 219.53 170.0, 219.53 170.17, 219.52 170.33, 219.52 170.5, 219.52 170.67, 219.51 170.83, 219.5 171.0, 219.49 171.17, 219.48 171.33, 219.47 171.5, 219.45 171.67, 219.44 171.83, 219.42 172.0, 219.4 172.17, 219.38 172.33, 219.36 172.5, 219.34 172.67, 219.31 172.83, 219.28 173.0, 219.26 173.17, 219.23 173.33, 219.2 173.5, 219.16 173.67, 219.13 173.83, 219.09 174.0, 219.06 174.17, 219.02 174.33, 218.98 174.5, 218.94 174.67, 218.89 174.83, 218.85 175.0, 218.8 175.17, 218.75 175.33, 218.7 175.5, 218.65 175.67, 218.6 175.83, 218.55 176.0, 218.49 176.17, 218.44 176.33, 218.38 176.5, 218.32 176.67, 218.26 176.83, 218.2 177.0, 218.14 177.17, 218.07 177.33, 218.01 177.5, 217.94 177.67, 217.87 177.83, 217.8 178.0, 217.73 178.17, 217.66 178.33, 217.58 178.5, 217.51 178.67, 217.43 178.83, 217.35 179.0, 217.27 179.17, 217.19 179.33, 217.11 179.5, 217.03 179.67, 216.94 179.83, 216.86 180.0, 216.77 180.17, 216.68 180.33, 216.59 180.5, 216.5 180.67, 216.41 180.83, 216.32 181.0, 216.22 181.17, 216.13 181.33, 216.03 181.5, 215.93 181.67, 215.83 181.83, 215.73 182.0, 215.63 182.17, 215.53 182.33, 215.42 182.5, 215.32 182.67, 215.21 182.83, 215.11 183.0, 215.0 183.17, 214.89 183.33, 214.78 183.5, 214.67 183.67, 214.55 183.83, 214.44 184.0, 214.33 184.17, 214.21 184.33, 214.09 184.5, 213.98 184.67, 213.86 184.83, 213.74 185.0, 213.62 185.17, 213.5 185.33, 213.37 185.5, 213.25 185.67, 213.13 185.83, 213.0 186.0, 212.87 186.17, 212.75 186.33, 212.62 186.5, 212.49 186.67, 212.36 186.83, 212.23 187.0, 212.1 187.17, 211.96 187.33, 211.83 187.5, 211.7 187.67, 211.56 187.83, 211.42 188.0, 211.29 188.17, 211.15 188.33, 211.01 188.5, 210.87 188.67, 210.73 188.83, 210.59 189.0, 210.45 189.17, 210.31 189.33, 210.17 189.5, 210.02 189.67, 209.88 189.83, 209.73 190.0, 209.59 190.17, 209.44 190.33, 209.29 190.5, 209.15 190.67, 209.0 190.83, 208.85 191.0, 208.7 191.17, 208.55 191.33, 208.4 191.5, 208.25 191.67, 208.09 191.83, 207.94 192.0, 207.79 192.17, 207.63 192.33, 207.48 192.5, 207.32 192.67, 207.17 192.83, 207.01 193.0, 206.86 193.17, 206.7 193.33, 206.54 193.5, 206.39 193.67, 206.23 193.83, 206.07 194.0, 205.91 194.17, 205.75 194.33, 205.59 194.5, 205.43 194.67, 205.27 194.83, 205.11 195.0, 204.95 195.17, 204.79 195.33, 204.62 195.5, 204.46 195.67, 204.3 195.83, 204.14 196.0, 203.97 196.17, 203.81 196.33, 203.65 196.5, 203.48 196.67, 203.32 196.83, 203.15 197.0, 202.99 197.17, 202.82 197.33, 202.66 197.5, 202.49 197.67, 202.33 197.83, 202.16 198.0, 202.0 198.17, 201.83 198.33, 201.66 198.5, 201.5 198.67, 201.33 198.83, 201.17 199.0, 201.0 199.17, 200.83 199.33, 200.67 199.5, 200.5 199.67, 200.33 199.83, 200.17 200.0, 200.0 200.17, 199.83 200.33, 199.67 200.5, 199.5 200.67, 199.33 200.83, 199.17 201.0, 199.0 201.17, 198.83 201.33, 198.67 201.5, 198.5 201.67, 198.34 201.83, 198.17 202.0, 198.0 202.17, 197.84 202.33, 197.67 202.5, 197.51 202.67, 197.34 202.83, 197.18 203.0, 197.01 203.17, 196.85 203.33, 196.68 203.5, 196.52 203.67, 196.35 203.83, 196.19 204.0, 196.03 204.17, 195.86 204.33, 195.7 204.5, 195.54 204.67, 195.38 204.83, 195.21 205.0, 195.05 205.17, 194.89 205.33, 194.73 205.5, 194.57 205.67, 194.41 205.83, 194.25 206.0, 194.09 206.17, 193.93 206.33, 193.77 206.5, 193.61 206.67, 193.46 206.83, 193.3 207.0, 193.14 207.17, 192.99 207.33, 192.83 207.5, 192.68 207.67, 192.52 207.83, 192.37 208.0, 192.21 208.17, 192.06 208.33, 191.91 208.5, 191.75 208.67, 191.6 208.83, 191.45 209.0, 191.3 209.17, 191.15 209.33, 191.0 209.5, 190.85 209.67, 190.71 209.83, 190.56 210.0, 190.41 210.17, 190.27 210.33, 190.12 210.5, 189.98 210.67, 189.83 210.83, 189.69 211.0, 189.55 211.17, 189.41 211.33, 189.27 211.5, 189.13 211.67, 188.99 211.83, 188.85 212.0, 188.71 212.17, 188.58 212.33, 188.44 212.5, 188.3 212.67, 188.17 212.83, 188.04 213.0, 187.9 213.17, 187.77 213.33, 187.64 213.5, 187.51 213.67, 187.38 213.83, 187.25 214.0, 187.13 214.17, 187.0 214.33, 186.87 214.5, 186.75 214.67, 186.63 214.83, 186.5 215.0, 186.38 215.17, 186.26 215.33, 186.14 215.5, 186.02 215.67, 185.91 215.83, 185.79 216.0, 185.67 216.17, 185.56 216.33, 185.45 216.5, 185.33 216.67, 185.22 216.83, 185.11 217.0, 185.0 217.17, 184.89 217.33, 184.79 217.5, 184.68 217.67, 184.58 217.83, 184.47 218.0, 184.37 218.17, 184.27 218.33, 184.17 218.5, 184.07 218.67, 183.97 218.83, 183.87 219.0, 183.78 219.17, 183.68 219.33, 183.59 219.5, 183.5 219.67, 183.41 219.83, 183.32 220.0, 183.23 220.17, 183.14 220.33, 183.06 220.5, 182.97 220.67, 182.89 220.83, 182.81 221.0, 182.73 221.17, 182.65 221.33, 182.57 221.5, 182.49 221.67, 182.42 221.83, 182.34 222.0, 182.27 222.17, 182.2 222.33, 182.13 222.5, 182.06 222.67, 181.99 222.83, 181.93 223.0, 181.86 223.17, 181.8 223.33, 181.74 223.5, 181.68 223.67, 181.62 223.83, 181.56 224.0, 181.51 224.17, 181.45 224.33, 181.4 224.5, 181.35 224.67, 181.3 224.83, 181.25 225.0, 181.2 225.17, 181.15 225.33, 181.11 225.5, 181.06 225.67, 181.02 225.83, 180.98 226.0, 180.94 226.17, 180.91 226.33, 180.87 226.5, 180.84 226.67, 180.8 226.83, 180.77 227.0, 180.74 227.17, 180.72 227.33, 180.69 227.5, 180.66 227.67, 180.64 227.83, 180.62 228.0, 180.6 228.17, 180.58 228.33, 180.56 228.5, 180.55 228.67, 180.53 228.83, 180.52 229.0, 180.51 229.17, 180.5 229.33, 180.49 229.5, 180.48 229.67, 180.48 229.83, 180.48 230.0, 180.47 230.17, 180.47 230.33, 180.48 230.5, 180.48 230.67, 180.48 230.83, 180.49 231.0, 180.5 231.17, 180.51 231.33, 180.52 231.5, 180.53 231.67, 180.55 231.83, 180.56 232.0, 180.58 232.17, 180.6 232.33, 180.62 232.5, 180.65 232.67, 180.67 232.83, 180.7 233.0, 180.73 233.17, 180.75 233.33, 180.79 233.5, 180.82 233.67, 180.85 233.83, 180.89 234.0, 180.93 234.17, 180.97 234.33, 181.01 234.5, 181.05 234.67, 181.1 234.83, 181.14 235.0, 181.19 235.17, 181.24 235.33, 181.29 235.5, 181.34 235.67, 181.4 235.83, 181.45 236.0, 181.51 236.17, 181.57 236.33, 181.63 236.5, 181.69 236.67, 181.76 236.83, 181.83 237.0, 181.89 237.17, 181.96 237.33, 182.03 237.5, 182.11 237.67, 182.18 237.83, 182.26 238.0, 182.34 238.17, 182.42 238.33, 182.5 238.5, 182.58 238.67, 182.66 238.83, 182.75 239.0, 182.84 239.17, 182.93 239.33, 183.02 239.5, 183.11 239.67, 183.21 239.83, 183.3 240.0, 183.4 240.17, 183.5 240.33, 183.6 240.5, 183.7 240.67, 183.81 240.83, 183.91 241.0, 184.02 241.17, 184.13 241.33, 184.24 241.5, 184.35 241.67, 184.47 241.83, 184.58 242.0, 184.7 242.17, 184.82 242.33, 184.94 242.5, 185.06 242.67, 185.19 242.83, 185.31 243.0, 185.44 243.17, 185.57 243.33, 185.7 243.5, 185.83 243.67, 185.96 243.83, 186.1 244.0, 186.23 244.17, 186.37 244.33, 186.51 244.5, 186.65 244.67, 186.79 244.83, 186.94 245.0, 187.08 245.17, 187.23 245.33, 187.38 245.5, 187.53 245.67, 187.68 245.83, 187.83 246.0, 187.99 246.17, 188.14 246.33, 188.3 246.5, 188.46 246.67, 188.62 246.83, 188.78 247.0, 188.94 247.17, 189.11 247.33, 189.27 247.5, 189.44 247.67, 189.61 247.83, 189.78 248.0, 189.95 248.17, 190.12 248.33, 190.3 248.5, 190.47 248.67, 190.65 248.83, 190.83 249.0, 191.01 249.17, 191.19 249.33, 191.37 249.5, 191.56 249.67, 191.74 249.83, 191.93 250.0, 192.11 250.17, 192.3 250.33, 192.49 250.5, 192.68 250.67, 192.88 250.83, 193.07 251.0, 193.26 251.17, 193.46 251.33, 193.66 251.5, 193.86 251.67, 194.06 251.83, 194.26 252.0, 194.46 252.17, 194.66 252.33, 194.86 252.5, 195.07 252.67, 195.28 252.83, 195.48 253.0, 195.69 253.17, 195.9 253.33, 196.11 253.5, 196.32 253.67, 196.53 253.83, 196.75 254.0, 196.96 254.17, 197.18 254.33, 197.39 254.5, 197.61 254.67, 197.83 254.83, 198.05 255.0, 198.27 255.17, 198.49 255.33, 198.71 255.5, 198.93 255.67, 199.16 255.83, 199.38 256.0, 199.6 256.17, 199.83 256.33, 200.06 256.5, 200.28 256.67, 200.51 256.83, 200.74 257.0, 200.97 257.17, 201.2 257.33, 201.43 257.5, 201.66 257.67, 201.89 257.83, 202.13 258.0, 202.36 258.17, 202.59 258.33, 202.83 258.5, 203.06 258.67, 203.3 258.83, 203.53 259.0, 203.77 259.17, 204.0 259.33, 204.24 259.5, 204.48 259.67, 204.72 259.83, 204.96 260.0, 205.19 260.17, 205.43 260.33, 205.67 260.5, 205.91 260.67, 206.15 260.83, 206.39 261.0, 206.63 261.17, 206.87 261.33, 207.11 261.5, 207.35 261.67, 207.6 261.83, 207.84 262.0, 208.08 262.17, 208.32 262.33, 208.56 262.5, 208.8 262.67, 209.04 262.83, 209.29 263.0, 209.53 263.17, 209.77 263.33, 210.01 263.5, 210.25 263.67, 210.49 263.83, 210.73 264.0, 210.97 264.17, 211.21 264.33, 211.45 264.5, 211.69 264.67, 211.93 264.83, 212.17 265.0, 212.41 265.17, 212.65 265.33, 212.89 265.5, 213.13 265.67, 213.37 265.83, 213.6 266.0, 213.84 266.17, 214.08 266.33, 214.31 266.5, 214.55 266.67, 214.78 266.83, 215.01 267.0, 215.25 267.17, 215.48 267.33, 215.71 267.5, 215.94 267.67, 216.17 267.83, 216.4 268.0, 216.63 268.17, 216.86 268.33, 217.09 268.5, 217.31 268.67, 217.54 268.83, 217.76 269.0, 217.98 269.17, 218.21 269.33, 218.43 269.5, 218.65 269.67, 218.87 269.83, 219.08 270.0, 219.3 270.17, 219.52 270.33, 219.73 270.5, 219.94 270.67, 220.15 270.83, 220.36 271.0, 220.57 271.17, 220.78 271.33, 220.99 271.5, 221.19 271.67, 221.39 271.83, 221.59 272.0, 221.79 272.17, 221.99 272.33, 222.19 272.5, 222.38 272.67, 222.58 272.83, 222.77 273.0, 222.96 273.17, 223.14 273.33, 223.33 273.5, 223.51 273.67, 223.7 273.83, 223.88 274.0, 224.05 274.17, 224.23 274.33, 224.4 274.5, 224.58 274.67, 224.75 274.83, 224.91 275.0, 225.08 275.17, 225.24 275.33, 225.4 275.5, 225.56 275.67, 225.72 275.83, 225.87 276.0, 226.02 276.17, 226.17 276.33, 226.32 276.5, 226.46 276.67, 226.6 276.83, 226.74 277.0, 226.87 277.17, 227.01 277.33, 227.14 277.5, 227.26 277.67, 227.39 277.83, 227.51 278.0, 227.63 278.17, 227.74 278.33, 227.85 278.5, 227.96 278.67, 228.07 278.83, 228.17 279.0, 228.27 279.17, 228.37 279.33, 228.46 279.5, 228.55 279.67, 228.64 279.83, 228.72 280.0, 228.8 280.17, 228.88 280.33, 228.95 280.5, 229.02 280.67, 229.08 280.83, 229.14 281.0, 229.2 281.17, 229.26 281.33, 229.31 281.5, 229.35 281.67, 229.39 281.83, 229.43 282.0, 229.47 282.17, 229.5 282.33, 229.52 282.5, 229.54 282.67, 229.56 282.83, 229.58 283.0, 229.59 283.17, 229.59 283.33, 229.59 283.5, 229.59 283.67, 229.58 283.83, 229.56 284.0, 229.55 284.17, 229.52 284.33, 229.5 284.5, 229.46 284.67, 229.43 284.83, 229.39 285.0, 229.34 285.17, 229.29 285.33, 229.23 285.5, 229.17 285.67, 229.1 285.83, 229.03 286.0, 228.95 286.17, 228.87 286.33, 228.78 286.5, 228.69 286.67, 228.59 286.83, 228.48 287.0, 228.37 287.17, 228.26 287.33, 228.14 287.5, 228.01 287.67, 227.88 287.83, 227.74 288.0, 227.59 288.17, 227.44 288.33, 227.29 288.5, 227.12 288.67, 226.96 288.83, 226.78 289.0, 226.6 289.17, 226.41 289.33, 226.22 289.5, 226.02 289.67, 225.81 289.83, 225.6 290.0, 225.38 290.17, 225.15 290.33, 224.92 290.5, 224.68 290.67, 224.43 290.83, 224.18 291.0, 223.92 291.17, 223.65 291.33, 223.37 291.5, 223.09 291.67, 222.8 291.83, 222.5 292.0, 222.2 292.17, 221.89 292.33, 221.57 292.5, 221.24 292.67, 220.91 292.83, 220.57 293.0, 220.22 293.17, 219.86 293.33, 219.49 293.5, 219.12 293.67, 218.74 293.83, 218.35 294.0, 217.95 294.17, 217.55 294.33, 217.13 294.5, 216.71 294.67, 216.28 294.83, 215.84 295.0, 215.4 295.17, 214.94 295.33, 214.47 295.5, 214.0 295.67, 213.52 295.83, 213.03 296.0, 212.53 296.17, 212.02 296.33, 211.5 296.5, 210.97 296.67, 210.44 296.83, 209.89 297.0, 209.34 297.17, 208.77 297.33, 208.2 297.5, 207.61 297.67, 207.02 297.83, 206.42 298.0, 205.8 298.17, 205.18 298.33, 204.55 298.5, 203.9 298.67, 203.25 298.83, 202.59 299.0, 201.92 299.17, 201.23 299.33, 200.54 299.5, 199.83 299.67, 199.12 299.83, 198.39 300.0, 197.66 300.17, 196.91 300.33, 196.15 300.5, 195.38 300.67, 194.6 300.83, 193.81 301.0, 193.01 301.17, 192.2 301.33, 191.37 301.5, 190.53 301.67, 189.69 301.83, 188.83 302.0, 187.96 302.17, 187.07 302.33, 186.18 302.5, 185.27 302.67, 184.36 302.83, 183.42 303.0, 182.48 303.17, 181.53 303.33, 180.56 303.5, 179.58 303.67, 178.59 303.83, 177.59 304.0, 176.57 304.17, 175.54 304.33, 174.5 304.5, 173.44 304.67, 172.37 304.83, 171.29 305.0, 170.2 305.17, 169.09 305.33, 167.97 305.5, 166.83 305.67, 165.69 305.83, 164.52 306.0, 163.35 306.17, 162.16 306.33, 160.96 306.5, 159.74 306.67, 158.51 306.83, 157.26 307.0, 156.01 307.17, 154.73 307.33, 153.45 307.5, 152.14 307.67, 150.83 307.83, 149.5 308.0, 148.15 308.17, 146.79 308.33, 145.41 308.5, 144.02 308.67, 142.62 308.83, 141.19 309.0, 139.76 309.17, 138.31 309.33, 136.84 309.5, 135.36 309.67, 133.86 309.83, 132.34 310.0, 130.81 310.17, 129.27 310.33, 127.71 310.5, 126.13 310.67, 124.53 310.83, 122.92 311.0, 121.3 311.17, 119.65 311.33, 117.99 311.5, 116.31 311.67, 114.62 311.83, 112.91 312.0, 111.18 312.17, 109.44 312.33, 107.67 312.5, 105.89 312.67, 104.1 312.83, 102.28 313.0, 100.45 313.17, 98.6 313.33, 96.73 313.5, 94.85 313.67, 92.94 313.83, 91.02 314.0, 89.08 314.17, 87.12 314.33, 85.15 314.5, 83.15 314.67, 81.14 314.83, 79.11 315.0, 77.05 315.17, 74.98 315.33, 72.89 315.5, 70.79 315.67, 68.66 315.83, 66.51 316.0, 64.34 316.17, 62.16 316.33, 59.95 316.5, 57.72 316.67, 55.48 316.83, 53.21 317.0, 50.92 317.17, 48.62 317.33, 46.29 317.5, 43.94 317.67, 41.58 317.83, 39.19 318.0, 36.78 318.17, 34.35 318.33, 31.9 318.5, 29.42 318.67, 26.93 318.83, 24.41 319.0, 21.88 319.17, 19.32 319.33, 16.74 319.5, 14.14 319.67, 11.51 319.83, 8.87 320.0, 6.2 320.17, 3.51 320.33, 0.8 320.5, -1.94 320.67, -4.7 320.83, -7.48 321.0, -10.28 321.17, -13.11 321.33, -15.96 321.5, -18.83 321.67, -21.73 321.83, -24.65 322.0, -27.59 322.17, -30.56 322.33, -33.55 322.5, -36.56 322.67, -39.6 322.83, -42.66 323.0, -45.75 323.17, -48.86 323.33, -52.0 323.5, -55.16 323.67, -58.35 323.83, -61.56 324.0, -64.79 324.17, -68.05 324.33, -71.34 324.5, -74.65 324.67, -77.99 324.83, -81.35 325.0, -84.74 325.17, -88.16 325.33, -91.6 325.5, -95.06 325.67, -98.56 325.83, -102.08 326.0, -105.62 326.17, -109.2 326.33, -112.8 326.5, -116.42 326.67, -120.08 326.83, -123.76 327.0, -127.47 327.17, -131.2 327.33, -134.97 327.5, -138.76 327.67, -142.58 327.83, -146.42 328.0, -150.3 328.17, -154.2 328.33, -158.13 328.5, -162.09 328.67, -166.08 328.83, -170.1 329.0, -174.15 329.17, -178.22 329.33, -182.33 329.5, -186.47 329.67, -190.63 329.83, -194.82 330.0, -199.05 330.17, -203.3 330.33, -207.58 330.5, -211.9 330.67, -216.24 330.83, -220.62 331.0, -225.02 331.17, -229.46 331.33, -233.92 331.5, -238.42 331.67, -242.95 331.83, -247.51 332.0, -252.1 332.17, -256.73 332.33, -261.38 332.5, -266.07 332.67, -270.79 332.83, -275.54 333.0, -280.32 333.17, -285.14 333.33, -289.99 333.5, -294.87 333.67, -299.78 333.83, -304.73 334.0, -309.71 334.17, -314.72 334.33, -319.77 334.5, -324.85 334.67, -329.97 334.83, -335.11 335.0, -340.3 335.17, -345.51 335.33, -350.77 335.5, -356.05 335.67, -361.37 335.83, -366.73 336.0, -372.12 336.17, -377.54 336.33, -383.0 336.5, -388.5 336.67, -394.03 336.83, -399.6 337.0, -405.2 337.17, -410.84 337.33, -416.52 337.5, -422.23 337.67, -427.98 337.83, -433.76 338.0, -439.59 338.17, -445.44 338.33, -451.34 338.5, -457.27 338.67, -463.25 338.83, -469.25 339.0, -475.3 339.17, -481.38 339.33, -487.51 339.5, -493.67 339.67, -499.87 339.83, -506.1 340.0, -512.38 340.17, -518.7 340.33, -525.05 340.5, -531.44 340.67, -537.88 340.83, -544.35 341.0, -550.86 341.17, -557.42 341.33, -564.01 341.5, -570.64 341.67, -577.31 341.83, -584.03 342.0, -590.78 342.17, -597.58 342.33, -604.41 342.5, -611.29 342.67, -618.21 342.83, -625.17 343.0, -632.17 343.17, -639.21 343.33, -646.3 343.5, -653.43 343.67, -660.6 343.83, -667.81 344.0, -675.07 344.17, -682.37 344.33, -689.71 344.5, -697.09 344.67, -704.52 344.83, -712.0 345.0, -719.51 345.17, -727.07 345.33, -734.68 345.5, -742.32 345.67, -750.02 345.83, -757.75 346.0, -765.54 346.17, -773.36 346.33, -781.24 346.5, -789.16 346.67, -797.12 346.83, -805.13 347.0, -813.18 347.17, -821.28 347.33, -829.43 347.5, -837.63 347.67, -845.87 347.83, -854.15 348.0, -862.49 348.17, -870.87 348.33, -879.3 348.5, -887.78 348.67, -896.3 348.83, -904.87 349.0, -913.49 349.17, -922.16 349.33, -930.88 349.5, -939.64 349.67, -948.46 349.83, -957.32 350.0, -966.24 350.17, -975.2 350.33, -984.21 350.5, -993.27 350.67, -1002.38 350.83, -1011.54 351.0, -1020.76 351.17, -1030.02 351.33, -1039.33 351.5, -1048.7 351.67, -1058.11 351.83, -1067.58 352.0, -1077.1 352.17, -1086.67 352.33, -1096.29 352.5, -1105.96 352.67, -1115.69 352.83, -1125.46 353.0, -1135.3 353.17, -1145.18 353.33, -1155.12 353.5, -1165.11 353.67, -1175.15 353.83, -1185.25 354.0, -1195.4 354.17, -1205.6 354.33, -1215.86 354.5, -1226.18 354.67, -1236.55 354.83, -1246.97 355.0, -1257.45 355.17, -1267.98 355.33, -1278.57 355.5, -1289.21 355.67, -1299.91 355.83, -1310.67 356.0, -1321.48 356.17, -1332.35 356.33, -1343.28 356.5, -1354.26 356.67, -1365.3 356.83, -1376.4 357.0, -1387.55 357.17, -1398.76 357.33, -1410.04 357.5, -1421.36 357.67, -1432.75 357.83, -1444.19 358.0, -1455.7 358.17, -1467.26 358.33, -1478.88 358.5, -1490.56 358.67, -1502.3 358.83, -1514.11 359.0, -1525.97 359.17, -1537.89 359.33, -1549.87 359.5, -1561.91 359.67, -1574.01 359.83, -1586.18 360.0, -1598.4 360.17, -1610.69 360.33, -1623.03 360.5, -1635.44 360.67, -1647.92 360.83, -1660.45 361.0, -1673.05 361.17, -1685.71 361.33, -1698.43 361.5, -1711.22 361.67, -1724.07 361.83, -1736.98 362.0, -1749.96 362.17, -1763.0 362.33, -1776.1 362.5, -1789.27 362.67, -1802.51 362.83, -1815.81 363.0, -1829.17 363.17, -1842.6 363.33, -1856.1 363.5, -1869.66 363.67, -1883.29 363.83, -1896.98 364.0, -1910.74 364.17, -1924.57 364.33, -1938.46 364.5, -1952.43 364.67, -1966.46 364.83, -1980.55 365.0, -1994.72 365.17, -2008.95 365.33, -2023.25 365.5, -2037.62 365.67, -2052.06 365.83, -2066.57 366.0, -2081.15 366.17, -2095.79 366.33, -2110.51 366.5, -2125.3 366.67, -2140.15 366.83, -2155.08 367.0, -2170.08 367.17, -2185.15 367.33, -2200.29 367.5, -2215.5 367.67, -2230.78 367.83, -2246.14 368.0, -2261.57 368.17, -2277.07 368.33, -2292.64 368.5, -2308.28 368.67, -2324.0 368.83, -2339.79 369.0, -2355.66 369.17, -2371.6 369.33, -2387.61 369.5, -2403.7 369.67, -2419.86 369.83, -2436.1 370.0, -2452.41 370.17, -2468.8 370.33, -2485.26 370.5, -2501.8 370.67, -2518.41 370.83, -2535.1 371.0, -2551.87 371.17, -2568.71 371.33, -2585.63 371.5, -2602.63 371.67, -2619.7 371.83, -2636.86 372.0, -2654.09 372.17, -2671.4 372.33, -2688.79 372.5, -2706.25 372.67, -2723.8 372.83, -2741.42 373.0, -2759.13 373.17, -2776.91 373.33, -2794.78 373.5, -2812.72 373.67, -2830.74 373.83, -2848.85 374.0, -2867.04 374.17, -2885.3 374.33, -2903.65 374.5, -2922.09 374.67, -2940.6 374.83, -2959.19 375.0, -2977.87 375.17, -2996.63 375.33, -3015.48 375.5, -3034.4 375.67, -3053.42 375.83, -3072.51 376.0, -3091.69 376.17, -3110.95 376.33, -3130.3 376.5, -3149.73 376.67, -3169.25 376.83, -3188.86 377.0, -3208.55 377.17, -3228.32 377.33, -3248.18 377.5, -3268.13 377.67, -3288.17 377.83, -3308.29 378.0, -3328.5 378.17, -3348.79 378.33, -3369.18 378.5, -3389.65 378.67, -3410.21 378.83, -3430.86 379.0, -3451.6 379.17, -3472.43 379.33, -3493.35 379.5, -3514.36 379.67, -3535.45 379.83, -3556.64 380.0, -3577.92 380.17, -3599.29 380.33, -3620.75 380.5, -3642.3 380.67, -3663.94 380.83, -3685.68 381.0, -3707.51 381.17, -3729.43 381.33, -3751.44 381.5, -3773.55 381.67, -3795.74 381.83, -3818.04 382.0, -3840.42 382.17, -3862.91 382.33, -3885.48 382.5, -3908.15 382.67, -3930.92 382.83, -3953.78 383.0, -3976.73 383.17, -3999.79 383.33, -4022.94 383.5, -4046.18 383.67, -4069.52 383.83, -4092.96 384.0, -4116.5 384.17, -4140.13 384.33, -4163.86 384.5, -4187.69 384.67, -4211.62 384.83, -4235.65 385.0, -4259.77 385.17, -4284.0 385.33, -4308.33 385.5, -4332.75 385.67, -4357.28 385.83, -4381.9 386.0, -4406.63 386.17, -4431.46 386.33, -4456.39 386.5, -4481.42 386.67, -4506.55 386.83, -4531.79 387.0, -4557.12 387.17, -4582.56 387.33, -4608.11 387.5, -4633.76 387.67, -4659.51 387.83, -4685.36 388.0, -4711.32 388.17, -4737.39 388.33, -4763.56 388.5, -4789.83 388.67, -4816.21 388.83, -4842.7 389.0, -4869.29 389.17, -4895.99 389.33, -4922.8 389.5, -4949.71 389.67, -4976.73 389.83, -5003.86 390.0, -5031.1 390.17, -5058.44 390.33, -5085.9 390.5, -5113.46 390.67, -5141.13 390.83, -5168.91 391.0, -5196.8 391.17, -5224.8 391.33, -5252.92 391.5, -5281.14 391.67, -5309.47 391.83, -5337.92 392.0, -5366.48 392.17, -5395.15 392.33, -5423.93 392.5, -5452.82 392.67, -5481.83 392.83, -5510.95 393.0, -5540.19 393.17, -5569.53 393.33, -5599.0 393.5, -5628.58 393.67, -5658.27 393.83, -5688.08 394.0, -5718.0 394.17, -5748.04 394.33, -5778.2 394.5, -5808.47 394.67, -5838.86 394.83, -5869.36 395.0, -5899.99 395.17, -5930.73 395.33, -5961.59 395.5, -5992.57 395.67, -6023.67 395.83, -6054.88 396.0, -6086.22 396.17, -6117.67 396.33, -6149.25 396.5, -6180.95 396.67, -6212.76 396.83, -6244.7 397.0, -6276.76 397.17, -6308.94 397.33, -6341.25 397.5, -6373.68 397.67, -6406.22 397.83, -6438.9 398.0, -6471.69 398.17, -6504.61 398.33, -6537.66 398.5, -6570.83 398.67, -6604.12 398.83, -6637.54 399.0, -6671.08 399.17, -6704.75 399.33, -6738.55 399.5, -6772.47 399.67, -6806.52 399.83, -6840.7 400.0, -6875.0 " fill="none" stroke="white" stroke-width="1.5" stroke-linejoin="round" stroke-opacity="1"/>

 </svg>