<svg version="1.1" 
 baseProfile="full" 
 width="400" 
 height="400" 
 xmlns="http://www.w3.org/2000/svg">
<rect x="0.0" y="0.0" width="400" height="400" fill="black" stroke="black" stroke-width="0" opacity="1"/>
<line x1="0.0" y1="0.0" x2="0.0" y2="400.0" stroke="white" stroke-width="1" opacity="0.4" stroke-linecap="butt"/>
<line x1="40.0" y1="0.0" x2="40.0" y2="400.0" stroke="white" stroke-width="1" opacity="0.4" stroke-linecap="butt"/>
<line x1="80.0" y1="0.0" x2="80.0" y2="400.0" stroke="white" stroke-width="1" opacity="0.4" stroke-linecap="butt"/>
<line x1="120.0" y1="0.0" x2="120.0" y2="400.0" stroke="white" stroke-width="1" opacity="0.4" stroke-linecap="butt"/>
<line x1="160.0" y1="0.0" x2="160.0" y2="400.0" stroke="white" stroke-width="1" opacity="0.4" stroke-linecap="butt"/>
<line x1="200.0" y1="0.0" x2="200.0" y2="400.0" stroke="white" stroke-width="1" opacity="0.4" stroke-linecap="butt"/>
<line x1="240.0" y1="0.0" x2="240.0" y2="400.0" stroke="white" stroke-width="1" opacity="0.4" stroke-linecap="butt"/>
<line x1="280.0" y1="0.0" x2="280.0" y2="400.0" stroke="white" stroke-width="1" opacity="0.4" stroke-linecap="butt"/>
<line x1="320.0" y1="0.0" x2="320.0" y2="400.0" stroke="white" stroke-width="1" opacity="0.4" stroke-linecap="butt"/>
<line x1="360.0" y1="0.0" x2="360.0" y2="400.0" stroke="white" stroke-width="1" opacity="0.4" stroke-linecap="butt"/>
<line x1="0.0" y1="0.0" x2="400.0" y2="0.0" stroke="white" stroke-width="1" opacity="0.4" stroke-linecap="butt"/>
<line x1="0.0" y1="40.0" x2="400.0" y2="40.0" stroke="white" stroke-width="1" opacity="0.4" stroke-linecap="butt"/>
<line x1="0.0" y1="80.0" x2="400.0" y2="80.0" stroke="white" stroke-width="1" opacity="0.4" stroke-linecap="butt"/>
<line x1="0.0" y1="120.0" x2="400.0" y2="120.0" stroke="white" stroke-width="1" opacity="0.4" stroke-linecap="butt"/>
<line x1="0.0" y1="160.0" x2="400.0" y2="160.0" stroke="white" stroke-width="1" opacity="0.4" stroke-linecap="butt"/>
<line x1="0.0" y1="200.0" x2="400.0" y2="200.0" stroke="white" stroke-width="1" opacity="0.4" stroke-linecap="butt"/>
<line x1="0.0" y1="240.0" x2="400.0" y2="240.0" stroke="white" stroke-width="1" opacity="0.4" stroke-linecap="butt"/>
<line x1="0.0" y1="280.0" x2="400.0" y2="280.0" stroke="white" stroke-width="1" opacity="0.4" stroke-linecap="butt"/>
<line x1="0.0" y1="320.0" x2="400.0" y2="320.0" stroke="white" stroke-width="1" opacity="0.4" stroke-linecap="butt"/>
<line x1="0.0" y1="360.0" x2="400.0" y2="360.0" stroke="white" stroke-width="1" opacity="0.4" stroke-linecap="butt"/>
<line x1="0.0" y1="200.0" x2="400.0" y2="200.0" stroke="yellow" stroke-width="2.5" opacity="1" stroke-linecap="butt"/>
<line x1="200.0" y1="0.0" x2="200.0" y2="400.0" stroke="yellow" stroke-width="2.5" opacity="1" stroke-linecap="butt"/>
<polygon points="391.0 204.0, 401.0 200.0, 391.0 196.0, 393.0 200.0" fill="yellow"/><polygon points="204.0 9.0, 200.0 -1.0, 196.0 9.0, 200.0 7.0" fill="yellow"/><image x="-60.0" y="-60.0" width="200" height="200" href="/Users/girirajhira/PycharmProjects/Giraphics3/Taylor/expr.png"/><polyline points="0.0, 6025.0 0.17, 5995.9 0.33, 5966.9 0.5, 5938.02 0.67, 5909.24 0.83, 5880.58 1.0, 5852.02 1.17, 5823.57 1.33, 5795.23 1.5, 5767.0 1.67, 5738.88 1.83, 5710.86 2.0, 5682.96 2.17, 5655.15 2.33, 5627.46 2.5, 5599.87 2.67, 5572.39 2.83, 5545.01 3.0, 5517.74 3.17, 5490.58 3.33, 5463.52 3.5, 5436.56 3.67, 5409.71 3.83, 5382.96 4.0, 5356.32 4.17, 5329.78 4.33, 5303.34 4.5, 5277.01 4.67, 5250.77 4.83, 5224.64 5.0, 5198.62 5.17, 5172.69 5.33, 5146.87 5.5, 5121.15 5.67, 5095.52 5.83, 5070.0 6.0, 5044.58 6.17, 5019.26 6.33, 4994.04 6.5, 4968.92 6.67, 4943.9 6.83, 4918.97 7.0, 4894.15 7.17, 4869.42 7.33, 4844.8 7.5, 4820.27 7.67, 4795.83 7.83, 4771.5 8.0, 4747.26 8.17, 4723.12 8.33, 4699.07 8.5, 4675.13 8.67, 4651.27 8.83, 4627.52 9.0, 4603.85 9.17, 4580.29 9.33, 4556.82 9.5, 4533.44 9.67, 4510.16 9.83, 4486.97 10.0, 4463.87 10.17, 4440.87 10.33, 4417.96 10.5, 4395.15 10.67, 4372.42 10.83, 4349.79 11.0, 4327.25 11.17, 4304.81 11.33, 4282.45 11.5, 4260.19 11.67, 4238.02 11.83, 4215.93 12.0, 4193.94 12.17, 4172.04 12.33, 4150.23 12.5, 4128.51 12.67, 4106.88 12.83, 4085.34 13.0, 4063.88 13.17, 4042.52 13.33, 4021.24 13.5, 4000.06 13.67, 3978.96 13.83, 3957.94 14.0, 3937.02 14.17, 3916.18 14.33, 3895.43 14.5, 3874.77 14.67, 3854.19 14.83, 3833.7 15.0, 3813.29 15.17, 3792.97 15.33, 3772.74 15.5, 3752.59 15.67, 3732.52 15.83, 3712.54 16.0, 3692.65 16.17, 3672.83 16.33, 3653.11 16.5, 3633.46 16.67, 3613.9 16.83, 3594.42 17.0, 3575.03 17.17, 3555.72 17.33, 3536.49 17.5, 3517.34 17.67, 3498.27 17.83, 3479.29 18.0, 3460.38 18.17, 3441.56 18.33, 3422.82 18.5, 3404.16 18.67, 3385.58 18.83, 3367.08 19.0, 3348.66 19.17, 3330.32 19.33, 3312.06 19.5, 3293.88 19.67, 3275.78 19.83, 3257.75 20.0, 3239.81 20.17, 3221.94 20.33, 3204.15 20.5, 3186.44 20.67, 3168.8 20.83, 3151.25 21.0, 3133.77 21.17, 3116.36 21.33, 3099.04 21.5, 3081.79 21.67, 3064.61 21.83, 3047.51 22.0, 3030.49 22.17, 3013.54 22.33, 2996.67 22.5, 2979.87 22.67, 2963.15 22.83, 2946.5 23.0, 2929.93 23.17, 2913.43 23.33, 2897.0 23.5, 2880.65 23.67, 2864.37 23.83, 2848.16 24.0, 2832.03 24.17, 2815.96 24.33, 2799.97 24.5, 2784.06 24.67, 2768.21 24.83, 2752.44 25.0, 2736.74 25.17, 2721.11 25.33, 2705.55 25.5, 2690.06 25.67, 2674.64 25.83, 2659.29 26.0, 2644.01 26.17, 2628.8 26.33, 2613.66 26.5, 2598.59 26.67, 2583.59 26.83, 2568.66 27.0, 2553.8 27.17, 2539.01 27.33, 2524.28 27.5, 2509.62 27.67, 2495.03 27.83, 2480.51 28.0, 2466.06 28.17, 2451.67 28.33, 2437.35 28.5, 2423.09 28.67, 2408.91 28.83, 2394.78 29.0, 2380.73 29.17, 2366.74 29.33, 2352.82 29.5, 2338.96 29.67, 2325.17 29.83, 2311.44 30.0, 2297.78 30.17, 2284.18 30.33, 2270.64 30.5, 2257.18 30.67, 2243.77 30.83, 2230.43 31.0, 2217.15 31.17, 2203.93 31.33, 2190.78 31.5, 2177.69 31.67, 2164.67 31.83, 2151.7 32.0, 2138.8 32.17, 2125.96 32.33, 2113.19 32.5, 2100.47 32.67, 2087.81 32.83, 2075.22 33.0, 2062.69 33.17, 2050.22 33.33, 2037.81 33.5, 2025.46 33.67, 2013.17 33.83, 2000.94 34.0, 1988.77 34.17, 1976.66 34.33, 1964.61 34.5, 1952.61 34.67, 1940.68 34.83, 1928.81 35.0, 1916.99 35.17, 1905.23 35.33, 1893.54 35.5, 1881.89 35.67, 1870.31 35.83, 1858.79 36.0, 1847.32 36.17, 1835.91 36.33, 1824.55 36.5, 1813.26 36.67, 1802.02 36.83, 1790.83 37.0, 1779.7 37.17, 1768.63 37.33, 1757.62 37.5, 1746.66 37.67, 1735.75 37.83, 1724.9 38.0, 1714.11 38.17, 1703.37 38.33, 1692.68 38.5, 1682.05 38.67, 1671.48 38.83, 1660.95 39.0, 1650.49 39.17, 1640.07 39.33, 1629.71 39.5, 1619.4 39.67, 1609.15 39.83, 1598.95 40.0, 1588.8 40.17, 1578.7 40.33, 1568.66 40.5, 1558.67 40.67, 1548.73 40.83, 1538.84 41.0, 1529.01 41.17, 1519.22 41.33, 1509.49 41.5, 1499.81 41.67, 1490.18 41.83, 1480.6 42.0, 1471.07 42.17, 1461.59 42.33, 1452.16 42.5, 1442.78 42.67, 1433.45 42.83, 1424.17 43.0, 1414.94 43.17, 1405.76 43.33, 1396.63 43.5, 1387.54 43.67, 1378.51 43.83, 1369.52 44.0, 1360.59 44.17, 1351.7 44.33, 1342.86 44.5, 1334.06 44.67, 1325.32 44.83, 1316.62 45.0, 1307.97 45.17, 1299.37 45.33, 1290.81 45.5, 1282.3 45.67, 1273.84 45.83, 1265.42 46.0, 1257.05 46.17, 1248.73 46.33, 1240.45 46.5, 1232.22 46.67, 1224.03 46.83, 1215.89 47.0, 1207.79 47.17, 1199.74 47.33, 1191.73 47.5, 1183.77 47.67, 1175.86 47.83, 1167.98 48.0, 1160.15 48.17, 1152.37 48.33, 1144.63 48.5, 1136.93 48.67, 1129.28 48.83, 1121.67 49.0, 1114.1 49.17, 1106.58 49.33, 1099.1 49.5, 1091.66 49.67, 1084.27 49.83, 1076.92 50.0, 1069.6 50.17, 1062.34 50.33, 1055.11 50.5, 1047.92 50.67, 1040.78 50.83, 1033.68 51.0, 1026.62 51.17, 1019.6 51.33, 1012.62 51.5, 1005.68 51.67, 998.79 51.83, 991.93 52.0, 985.11 52.17, 978.34 52.33, 971.6 52.5, 964.9 52.67, 958.25 52.83, 951.63 53.0, 945.05 53.17, 938.51 53.33, 932.01 53.5, 925.55 53.67, 919.13 53.83, 912.75 54.0, 906.4 54.17, 900.1 54.33, 893.83 54.5, 887.6 54.67, 881.4 54.83, 875.25 55.0, 869.13 55.17, 863.05 55.33, 857.01 55.5, 851.0 55.67, 845.03 55.83, 839.1 56.0, 833.2 56.17, 827.34 56.33, 821.52 56.5, 815.73 56.67, 809.98 56.83, 804.27 57.0, 798.59 57.17, 792.94 57.33, 787.34 57.5, 781.76 57.67, 776.22 57.83, 770.72 58.0, 765.25 58.17, 759.82 58.33, 754.42 58.5, 749.05 58.67, 743.72 58.83, 738.43 59.0, 733.16 59.17, 727.94 59.33, 722.74 59.5, 717.58 59.67, 712.45 59.83, 707.36 60.0, 702.29 60.17, 697.26 60.33, 692.27 60.5, 687.31 60.67, 682.37 60.83, 677.48 61.0, 672.61 61.17, 667.78 61.33, 662.97 61.5, 658.2 61.67, 653.46 61.83, 648.76 62.0, 644.08 62.17, 639.44 62.33, 634.82 62.5, 630.24 62.67, 625.69 62.83, 621.17 63.0, 616.68 63.17, 612.22 63.33, 607.79 63.5, 603.39 63.67, 599.02 63.83, 594.68 64.0, 590.38 64.17, 586.1 64.33, 581.85 64.5, 577.63 64.67, 573.43 64.83, 569.27 65.0, 565.14 65.17, 561.04 65.33, 556.96 65.5, 552.91 65.67, 548.9 65.83, 544.91 66.0, 540.94 66.17, 537.01 66.33, 533.1 66.5, 529.23 66.67, 525.38 66.83, 521.55 67.0, 517.76 67.17, 513.99 67.33, 510.25 67.5, 506.54 67.67, 502.85 67.83, 499.19 68.0, 495.56 68.17, 491.96 68.33, 488.38 68.5, 484.82 68.67, 481.3 68.83, 477.79 69.0, 474.32 69.17, 470.87 69.33, 467.45 69.5, 464.05 69.67, 460.68 69.83, 457.33 70.0, 454.01 70.17, 450.71 70.33, 447.44 70.5, 444.2 70.67, 440.97 70.83, 437.78 71.0, 434.61 71.17, 431.46 71.33, 428.33 71.5, 425.23 71.67, 422.16 71.83, 419.11 72.0, 416.08 72.17, 413.08 72.33, 410.1 72.5, 407.14 72.67, 404.21 72.83, 401.3 73.0, 398.41 73.17, 395.55 73.33, 392.7 73.5, 389.89 73.67, 387.09 73.83, 384.32 74.0, 381.57 74.17, 378.84 74.33, 376.13 74.5, 373.45 74.67, 370.79 74.83, 368.15 75.0, 365.53 75.17, 362.93 75.33, 360.36 75.5, 357.81 75.67, 355.28 75.83, 352.77 76.0, 350.28 76.17, 347.81 76.33, 345.36 76.5, 342.93 76.67, 340.53 76.83, 338.14 77.0, 335.78 77.17, 333.43 77.33, 331.11 77.5, 328.81 77.67, 326.52 77.83, 324.26 78.0, 322.01 78.17, 319.79 78.33, 317.59 78.5, 315.4 78.67, 313.24 78.83, 311.09 79.0, 308.96 79.17, 306.85 79.33, 304.77 79.5, 302.7 79.67, 300.65 79.83, 298.61 80.0, 296.6 80.17, 294.61 80.33, 292.63 80.5, 290.67 80.67, 288.73 80.83, 286.81 81.0, 284.91 81.17, 283.02 81.33, 281.15 81.5, 279.3 81.67, 277.47 81.83, 275.65 82.0, 273.86 82.17, 272.08 82.33, 270.31 82.5, 268.57 82.67, 266.84 82.83, 265.13 83.0, 263.43 83.17, 261.75 83.33, 260.09 83.5, 258.45 83.67, 256.82 83.83, 255.21 84.0, 253.61 84.17, 252.03 84.33, 250.47 84.5, 248.92 84.67, 247.39 84.83, 245.88 85.0, 244.38 85.17, 242.89 85.33, 241.43 85.5, 239.97 85.67, 238.53 85.83, 237.11 86.0, 235.71 86.17, 234.31 86.33, 232.94 86.5, 231.58 86.67, 230.23 86.83, 228.9 87.0, 227.58 87.17, 226.28 87.33, 224.99 87.5, 223.71 87.67, 222.45 87.83, 221.21 88.0, 219.98 88.17, 218.76 88.33, 217.56 88.5, 216.37 88.67, 215.19 88.83, 214.03 89.0, 212.88 89.17, 211.75 89.33, 210.63 89.5, 209.52 89.67, 208.42 89.83, 207.34 90.0, 206.28 90.17, 205.22 90.33, 204.18 90.5, 203.15 90.67, 202.13 90.83, 201.13 91.0, 200.14 91.17, 199.16 91.33, 198.2 91.5, 197.24 91.67, 196.3 91.83, 195.37 92.0, 194.46 92.17, 193.55 92.33, 192.66 92.5, 191.78 92.67, 190.91 92.83, 190.05 93.0, 189.21 93.17, 188.37 93.33, 187.55 93.5, 186.74 93.67, 185.94 93.83, 185.15 94.0, 184.38 94.17, 183.61 94.33, 182.86 94.5, 182.11 94.67, 181.38 94.83, 180.66 95.0, 179.95 95.17, 179.25 95.33, 178.56 95.5, 177.88 95.67, 177.21 95.83, 176.55 96.0, 175.91 96.17, 175.27 96.33, 174.64 96.5, 174.02 96.67, 173.42 96.83, 172.82 97.0, 172.23 97.17, 171.66 97.33, 171.09 97.5, 170.53 97.67, 169.98 97.83, 169.44 98.0, 168.92 98.17, 168.4 98.33, 167.89 98.5, 167.38 98.67, 166.89 98.83, 166.41 99.0, 165.94 99.17, 165.47 99.33, 165.02 99.5, 164.57 99.67, 164.13 99.83, 163.7 100.0, 163.28 100.17, 162.87 100.33, 162.47 100.5, 162.07 100.67, 161.68 100.83, 161.31 101.0, 160.94 101.17, 160.57 101.33, 160.22 101.5, 159.88 101.67, 159.54 101.83, 159.21 102.0, 158.89 102.17, 158.57 102.33, 158.27 102.5, 157.97 102.67, 157.68 102.83, 157.4 103.0, 157.12 103.17, 156.85 103.33, 156.59 103.5, 156.34 103.67, 156.09 103.83, 155.85 104.0, 155.62 104.17, 155.4 104.33, 155.18 104.5, 154.97 104.67, 154.77 104.83, 154.57 105.0, 154.38 105.17, 154.2 105.33, 154.02 105.5, 153.85 105.67, 153.69 105.83, 153.53 106.0, 153.38 106.17, 153.23 106.33, 153.1 106.5, 152.97 106.67, 152.84 106.83, 152.72 107.0, 152.61 107.17, 152.5 107.33, 152.4 107.5, 152.3 107.67, 152.22 107.83, 152.13 108.0, 152.06 108.17, 151.98 108.33, 151.92 108.5, 151.86 108.67, 151.8 108.83, 151.75 109.0, 151.71 109.17, 151.67 109.33, 151.64 109.5, 151.61 109.67, 151.59 109.83, 151.57 110.0, 151.56 110.17, 151.55 110.33, 151.55 110.5, 151.55 110.67, 151.56 110.83, 151.57 111.0, 151.59 111.17, 151.61 111.33, 151.64 111.5, 151.67 111.67, 151.7 111.83, 151.75 112.0, 151.79 112.17, 151.84 112.33, 151.89 112.5, 151.95 112.67, 152.02 112.83, 152.08 113.0, 152.16 113.17, 152.23 113.33, 152.31 113.5, 152.4 113.67, 152.48 113.83, 152.58 114.0, 152.67 114.17, 152.77 114.33, 152.88 114.5, 152.98 114.67, 153.09 114.83, 153.21 115.0, 153.33 115.17, 153.45 115.33, 153.58 115.5, 153.71 115.67, 153.84 115.83, 153.98 116.0, 154.12 116.17, 154.26 116.33, 154.41 116.5, 154.56 116.67, 154.71 116.83, 154.87 117.0, 155.03 117.17, 155.19 117.33, 155.36 117.5, 155.53 117.67, 155.7 117.83, 155.87 118.0, 156.05 118.17, 156.23 118.33, 156.42 118.5, 156.6 118.67, 156.79 118.83, 156.98 119.0, 157.18 119.17, 157.38 119.33, 157.58 119.5, 157.78 119.67, 157.98 119.83, 158.19 120.0, 158.4 120.17, 158.61 120.33, 158.83 120.5, 159.04 120.67, 159.26 120.83, 159.48 121.0, 159.71 121.17, 159.93 121.33, 160.16 121.5, 160.39 121.67, 160.63 121.83, 160.86 122.0, 161.1 122.17, 161.33 122.33, 161.57 122.5, 161.82 122.67, 162.06 122.83, 162.31 123.0, 162.55 123.17, 162.8 123.33, 163.05 123.5, 163.31 123.67, 163.56 123.83, 163.82 124.0, 164.07 124.17, 164.33 124.33, 164.59 124.5, 164.86 124.67, 165.12 124.83, 165.39 125.0, 165.65 125.17, 165.92 125.33, 166.19 125.5, 166.46 125.67, 166.73 125.83, 167.0 126.0, 167.28 126.17, 167.55 126.33, 167.83 126.5, 168.11 126.67, 168.38 126.83, 168.66 127.0, 168.94 127.17, 169.23 127.33, 169.51 127.5, 169.79 127.67, 170.08 127.83, 170.36 128.0, 170.65 128.17, 170.93 128.33, 171.22 128.5, 171.51 128.67, 171.8 128.83, 172.09 129.0, 172.38 129.17, 172.67 129.33, 172.96 129.5, 173.25 129.67, 173.55 129.83, 173.84 130.0, 174.13 130.17, 174.43 130.33, 174.72 130.5, 175.02 130.67, 175.31 130.83, 175.61 131.0, 175.91 131.17, 176.2 131.33, 176.5 131.5, 176.8 131.67, 177.09 131.83, 177.39 132.0, 177.69 132.17, 177.99 132.33, 178.29 132.5, 178.58 132.67, 178.88 132.83, 179.18 133.0, 179.48 133.17, 179.78 133.33, 180.08 133.5, 180.37 133.67, 180.67 133.83, 180.97 134.0, 181.27 134.17, 181.57 134.33, 181.86 134.5, 182.16 134.67, 182.46 134.83, 182.76 135.0, 183.06 135.17, 183.35 135.33, 183.65 135.5, 183.95 135.67, 184.24 135.83, 184.54 136.0, 184.83 136.17, 185.13 136.33, 185.42 136.5, 185.72 136.67, 186.01 136.83, 186.3 137.0, 186.6 137.17, 186.89 137.33, 187.18 137.5, 187.47 137.67, 187.76 137.83, 188.05 138.0, 188.34 138.17, 188.63 138.33, 188.92 138.5, 189.21 138.67, 189.5 138.83, 189.78 139.0, 190.07 139.17, 190.35 139.33, 190.64 139.5, 190.92 139.67, 191.21 139.83, 191.49 140.0, 191.77 140.17, 192.05 140.33, 192.33 140.5, 192.61 140.67, 192.89 140.83, 193.16 141.0, 193.44 141.17, 193.71 141.33, 193.99 141.5, 194.26 141.67, 194.54 141.83, 194.81 142.0, 195.08 142.17, 195.35 142.33, 195.62 142.5, 195.88 142.67, 196.15 142.83, 196.42 143.0, 196.68 143.17, 196.94 143.33, 197.21 143.5, 197.47 143.67, 197.73 143.83, 197.99 144.0, 198.24 144.17, 198.5 144.33, 198.76 144.5, 199.01 144.67, 199.26 144.83, 199.52 145.0, 199.77 145.17, 200.02 145.33, 200.26 145.5, 200.51 145.67, 200.76 145.83, 201.0 146.0, 201.24 146.17, 201.49 146.33, 201.73 146.5, 201.97 146.67, 202.2 146.83, 202.44 147.0, 202.68 147.17, 202.91 147.33, 203.14 147.5, 203.37 147.67, 203.6 147.83, 203.83 148.0, 204.06 148.17, 204.28 148.33, 204.51 148.5, 204.73 148.67, 204.95 148.83, 205.17 149.0, 205.39 149.17, 205.6 149.33, 205.82 149.5, 206.03 149.67, 206.25 149.83, 206.46 150.0, 206.67 150.17, 206.87 150.33, 207.08 150.5, 207.28 150.67, 207.49 150.83, 207.69 151.0, 207.89 151.17, 208.09 151.33, 208.28 151.5, 208.48 151.67, 208.67 151.83, 208.86 152.0, 209.05 152.17, 209.24 152.33, 209.43 152.5, 209.61 152.67, 209.8 152.83, 209.98 153.0, 210.16 153.17, 210.34 153.33, 210.52 153.5, 210.69 153.67, 210.87 153.83, 211.04 154.0, 211.21 154.17, 211.38 154.33, 211.55 154.5, 211.71 154.67, 211.87 154.83, 212.04 155.0, 212.2 155.17, 212.36 155.33, 212.51 155.5, 212.67 155.67, 212.82 155.83, 212.97 156.0, 213.12 156.17, 213.27 156.33, 213.42 156.5, 213.56 156.67, 213.71 156.83, 213.85 157.0, 213.99 157.17, 214.13 157.33, 214.26 157.5, 214.4 157.67, 214.53 157.83, 214.66 158.0, 214.79 158.17, 214.92 158.33, 215.04 158.5, 215.17 158.67, 215.29 158.83, 215.41 159.0, 215.53 159.17, 215.64 159.33, 215.76 159.5, 215.87 159.67, 215.98 159.83, 216.09 160.0, 216.2 160.17, 216.31 160.33, 216.41 160.5, 216.51 160.67, 216.61 160.83, 216.71 161.0, 216.81 161.17, 216.9 161.33, 217.0 161.5, 217.09 161.67, 217.18 161.83, 217.27 162.0, 217.35 162.17, 217.44 162.33, 217.52 162.5, 217.6 162.67, 217.68 162.83, 217.76 163.0, 217.84 163.17, 217.91 163.33, 217.98 163.5, 218.05 163.67, 218.12 163.83, 218.19 164.0, 218.25 164.17, 218.32 164.33, 218.38 164.5, 218.44 164.67, 218.5 164.83, 218.55 165.0, 218.61 165.17, 218.66 165.33, 218.71 165.5, 218.76 165.67, 218.81 165.83, 218.85 166.0, 218.9 166.17, 218.94 166.33, 218.98 166.5, 219.02 166.67, 219.05 166.83, 219.09 167.0, 219.12 167.17, 219.15 167.33, 219.18 167.5, 219.21 167.67, 219.24 167.83, 219.26 168.0, 219.29 168.17, 219.31 168.33, 219.33 168.5, 219.34 168.67, 219.36 168.83, 219.38 169.0, 219.39 169.17, 219.4 169.33, 219.41 169.5, 219.42 169.67, 219.42 169.83, 219.43 170.0, 219.43 170.17, 219.43 170.33, 219.43 170.5, 219.43 170.67, 219.42 170.83, 219.42 171.0, 219.41 171.17, 219.4 171.33, 219.39 171.5, 219.38 171.67, 219.37 171.83, 219.35 172.0, 219.34 172.17, 219.32 172.33, 219.3 172.5, 219.27 172.67, 219.25 172.83, 219.23 173.0, 219.2 173.17, 219.17 173.33, 219.14 173.5, 219.11 173.67, 219.08 173.83, 219.05 174.0, 219.01 174.17, 218.97 174.33, 218.93 174.5, 218.89 174.67, 218.85 174.83, 218.81 175.0, 218.76 175.17, 218.72 175.33, 218.67 175.5, 218.62 175.67, 218.57 175.83, 218.52 176.0, 218.46 176.17, 218.41 176.33, 218.35 176.5, 218.29 176.67, 218.23 176.83, 218.17 177.0, 218.11 177.17, 218.05 177.33, 217.98 177.5, 217.92 177.67, 217.85 177.83, 217.78 178.0, 217.71 178.17, 217.64 178.33, 217.56 178.5, 217.49 178.67, 217.41 178.83, 217.33 179.0, 217.26 179.17, 217.18 179.33, 217.09 179.5, 217.01 179.67, 216.93 179.83, 216.84 180.0, 216.76 180.17, 216.67 180.33, 216.58 180.5, 216.49 180.67, 216.4 180.83, 216.31 181.0, 216.21 181.17, 216.12 181.33, 216.02 181.5, 215.92 181.67, 215.82 181.83, 215.72 182.0, 215.62 182.17, 215.52 182.33, 215.42 182.5, 215.31 182.67, 215.21 182.83, 215.1 183.0, 214.99 183.17, 214.88 183.33, 214.77 183.5, 214.66 183.67, 214.55 183.83, 214.44 184.0, 214.32 184.17, 214.21 184.33, 214.09 184.5, 213.97 184.67, 213.85 184.83, 213.74 185.0, 213.62 185.17, 213.49 185.33, 213.37 185.5, 213.25 185.67, 213.12 185.83, 213.0 186.0, 212.87 186.17, 212.74 186.33, 212.62 186.5, 212.49 186.67, 212.36 186.83, 212.23 187.0, 212.09 187.17, 211.96 187.33, 211.83 187.5, 211.69 187.67, 211.56 187.83, 211.42 188.0, 211.29 188.17, 211.15 188.33, 211.01 188.5, 210.87 188.67, 210.73 188.83, 210.59 189.0, 210.45 189.17, 210.31 189.33, 210.16 189.5, 210.02 189.67, 209.88 189.83, 209.73 190.0, 209.59 190.17, 209.44 190.33, 209.29 190.5, 209.14 190.67, 209.0 190.83, 208.85 191.0, 208.7 191.17, 208.55 191.33, 208.4 191.5, 208.25 191.67, 208.09 191.83, 207.94 192.0, 207.79 192.17, 207.63 192.33, 207.48 192.5, 207.32 192.67, 207.17 192.83, 207.01 193.0, 206.86 193.17, 206.7 193.33, 206.54 193.5, 206.39 193.67, 206.23 193.83, 206.07 194.0, 205.91 194.17, 205.75 194.33, 205.59 194.5, 205.43 194.67, 205.27 194.83, 205.11 195.0, 204.95 195.17, 204.79 195.33, 204.62 195.5, 204.46 195.67, 204.3 195.83, 204.14 196.0, 203.97 196.17, 203.81 196.33, 203.65 196.5, 203.48 196.67, 203.32 196.83, 203.15 197.0, 202.99 197.17, 202.82 197.33, 202.66 197.5, 202.49 197.67, 202.33 197.83, 202.16 198.0, 202.0 198.17, 201.83 198.33, 201.66 198.5, 201.5 198.67, 201.33 198.83, 201.17 199.0, 201.0 199.17, 200.83 199.33, 200.67 199.5, 200.5 199.67, 200.33 199.83, 200.17 200.0, 200.0 200.17, 199.83 200.33, 199.67 200.5, 199.5 200.67, 199.33 200.83, 199.17 201.0, 199.0 201.17, 198.83 201.33, 198.67 201.5, 198.5 201.67, 198.34 201.83, 198.17 202.0, 198.0 202.17, 197.84 202.33, 197.67 202.5, 197.51 202.67, 197.34 202.83, 197.18 203.0, 197.01 203.17, 196.85 203.33, 196.68 203.5, 196.52 203.67, 196.35 203.83, 196.19 204.0, 196.03 204.17, 195.86 204.33, 195.7 204.5, 195.54 204.67, 195.38 204.83, 195.21 205.0, 195.05 205.17, 194.89 205.33, 194.73 205.5, 194.57 205.67, 194.41 205.83, 194.25 206.0, 194.09 206.17, 193.93 206.33, 193.77 206.5, 193.61 206.67, 193.46 206.83, 193.3 207.0, 193.14 207.17, 192.99 207.33, 192.83 207.5, 192.68 207.67, 192.52 207.83, 192.37 208.0, 192.21 208.17, 192.06 208.33, 191.91 208.5, 191.75 208.67, 191.6 208.83, 191.45 209.0, 191.3 209.17, 191.15 209.33, 191.0 209.5, 190.86 209.67, 190.71 209.83, 190.56 210.0, 190.41 210.17, 190.27 210.33, 190.12 210.5, 189.98 210.67, 189.84 210.83, 189.69 211.0, 189.55 211.17, 189.41 211.33, 189.27 211.5, 189.13 211.67, 188.99 211.83, 188.85 212.0, 188.71 212.17, 188.58 212.33, 188.44 212.5, 188.31 212.67, 188.17 212.83, 188.04 213.0, 187.91 213.17, 187.77 213.33, 187.64 213.5, 187.51 213.67, 187.38 213.83, 187.26 214.0, 187.13 214.17, 187.0 214.33, 186.88 214.5, 186.75 214.67, 186.63 214.83, 186.51 215.0, 186.38 215.17, 186.26 215.33, 186.15 215.5, 186.03 215.67, 185.91 215.83, 185.79 216.0, 185.68 216.17, 185.56 216.33, 185.45 216.5, 185.34 216.67, 185.23 216.83, 185.12 217.0, 185.01 217.17, 184.9 217.33, 184.79 217.5, 184.69 217.67, 184.58 217.83, 184.48 218.0, 184.38 218.17, 184.28 218.33, 184.18 218.5, 184.08 218.67, 183.98 218.83, 183.88 219.0, 183.79 219.17, 183.69 219.33, 183.6 219.5, 183.51 219.67, 183.42 219.83, 183.33 220.0, 183.24 220.17, 183.16 220.33, 183.07 220.5, 182.99 220.67, 182.91 220.83, 182.82 221.0, 182.74 221.17, 182.67 221.33, 182.59 221.5, 182.51 221.67, 182.44 221.83, 182.36 222.0, 182.29 222.17, 182.22 222.33, 182.15 222.5, 182.08 222.67, 182.02 222.83, 181.95 223.0, 181.89 223.17, 181.83 223.33, 181.77 223.5, 181.71 223.67, 181.65 223.83, 181.59 224.0, 181.54 224.17, 181.48 224.33, 181.43 224.5, 181.38 224.67, 181.33 224.83, 181.28 225.0, 181.24 225.17, 181.19 225.33, 181.15 225.5, 181.11 225.67, 181.07 225.83, 181.03 226.0, 180.99 226.17, 180.95 226.33, 180.92 226.5, 180.89 226.67, 180.86 226.83, 180.83 227.0, 180.8 227.17, 180.77 227.33, 180.75 227.5, 180.73 227.67, 180.7 227.83, 180.68 228.0, 180.66 228.17, 180.65 228.33, 180.63 228.5, 180.62 228.67, 180.61 228.83, 180.6 229.0, 180.59 229.17, 180.58 229.33, 180.58 229.5, 180.57 229.67, 180.57 229.83, 180.57 230.0, 180.57 230.17, 180.57 230.33, 180.58 230.5, 180.58 230.67, 180.59 230.83, 180.6 231.0, 180.61 231.17, 180.62 231.33, 180.64 231.5, 180.66 231.67, 180.67 231.83, 180.69 232.0, 180.71 232.17, 180.74 232.33, 180.76 232.5, 180.79 232.67, 180.82 232.83, 180.85 233.0, 180.88 233.17, 180.91 233.33, 180.95 233.5, 180.98 233.67, 181.02 233.83, 181.06 234.0, 181.1 234.17, 181.15 234.33, 181.19 234.5, 181.24 234.67, 181.29 234.83, 181.34 235.0, 181.39 235.17, 181.45 235.33, 181.5 235.5, 181.56 235.67, 181.62 235.83, 181.68 236.0, 181.75 236.17, 181.81 236.33, 181.88 236.5, 181.95 236.67, 182.02 236.83, 182.09 237.0, 182.16 237.17, 182.24 237.33, 182.32 237.5, 182.4 237.67, 182.48 237.83, 182.56 238.0, 182.65 238.17, 182.73 238.33, 182.82 238.5, 182.91 238.67, 183.0 238.83, 183.1 239.0, 183.19 239.17, 183.29 239.33, 183.39 239.5, 183.49 239.67, 183.59 239.83, 183.69 240.0, 183.8 240.17, 183.91 240.33, 184.02 240.5, 184.13 240.67, 184.24 240.83, 184.36 241.0, 184.47 241.17, 184.59 241.33, 184.71 241.5, 184.83 241.67, 184.96 241.83, 185.08 242.0, 185.21 242.17, 185.34 242.33, 185.47 242.5, 185.6 242.67, 185.74 242.83, 185.87 243.0, 186.01 243.17, 186.15 243.33, 186.29 243.5, 186.44 243.67, 186.58 243.83, 186.73 244.0, 186.88 244.17, 187.03 244.33, 187.18 244.5, 187.33 244.67, 187.49 244.83, 187.64 245.0, 187.8 245.17, 187.96 245.33, 188.13 245.5, 188.29 245.67, 188.45 245.83, 188.62 246.0, 188.79 246.17, 188.96 246.33, 189.13 246.5, 189.31 246.67, 189.48 246.83, 189.66 247.0, 189.84 247.17, 190.02 247.33, 190.2 247.5, 190.39 247.67, 190.57 247.83, 190.76 248.0, 190.95 248.17, 191.14 248.33, 191.33 248.5, 191.52 248.67, 191.72 248.83, 191.91 249.0, 192.11 249.17, 192.31 249.33, 192.51 249.5, 192.72 249.67, 192.92 249.83, 193.13 250.0, 193.33 250.17, 193.54 250.33, 193.75 250.5, 193.97 250.67, 194.18 250.83, 194.4 251.0, 194.61 251.17, 194.83 251.33, 195.05 251.5, 195.27 251.67, 195.49 251.83, 195.72 252.0, 195.94 252.17, 196.17 252.33, 196.4 252.5, 196.63 252.67, 196.86 252.83, 197.09 253.0, 197.32 253.17, 197.56 253.33, 197.8 253.5, 198.03 253.67, 198.27 253.83, 198.51 254.0, 198.76 254.17, 199.0 254.33, 199.24 254.5, 199.49 254.67, 199.74 254.83, 199.98 255.0, 200.23 255.17, 200.48 255.33, 200.74 255.5, 200.99 255.67, 201.24 255.83, 201.5 256.0, 201.76 256.17, 202.01 256.33, 202.27 256.5, 202.53 256.67, 202.79 256.83, 203.06 257.0, 203.32 257.17, 203.58 257.33, 203.85 257.5, 204.12 257.67, 204.38 257.83, 204.65 258.0, 204.92 258.17, 205.19 258.33, 205.46 258.5, 205.74 258.67, 206.01 258.83, 206.29 259.0, 206.56 259.17, 206.84 259.33, 207.11 259.5, 207.39 259.67, 207.67 259.83, 207.95 260.0, 208.23 260.17, 208.51 260.33, 208.79 260.5, 209.08 260.67, 209.36 260.83, 209.65 261.0, 209.93 261.17, 210.22 261.33, 210.5 261.5, 210.79 261.67, 211.08 261.83, 211.37 262.0, 211.66 262.17, 211.95 262.33, 212.24 262.5, 212.53 262.67, 212.82 262.83, 213.11 263.0, 213.4 263.17, 213.7 263.33, 213.99 263.5, 214.28 263.67, 214.58 263.83, 214.87 264.0, 215.17 264.17, 215.46 264.33, 215.76 264.5, 216.05 264.67, 216.35 264.83, 216.65 265.0, 216.94 265.17, 217.24 265.33, 217.54 265.5, 217.84 265.67, 218.14 265.83, 218.43 266.0, 218.73 266.17, 219.03 266.33, 219.33 266.5, 219.63 266.67, 219.92 266.83, 220.22 267.0, 220.52 267.17, 220.82 267.33, 221.12 267.5, 221.42 267.67, 221.71 267.83, 222.01 268.0, 222.31 268.17, 222.61 268.33, 222.91 268.5, 223.2 268.67, 223.5 268.83, 223.8 269.0, 224.09 269.17, 224.39 269.33, 224.69 269.5, 224.98 269.67, 225.28 269.83, 225.57 270.0, 225.87 270.17, 226.16 270.33, 226.45 270.5, 226.75 270.67, 227.04 270.83, 227.33 271.0, 227.62 271.17, 227.91 271.33, 228.2 271.5, 228.49 271.67, 228.78 271.83, 229.07 272.0, 229.35 272.17, 229.64 272.33, 229.92 272.5, 230.21 272.67, 230.49 272.83, 230.77 273.0, 231.06 273.17, 231.34 273.33, 231.62 273.5, 231.89 273.67, 232.17 273.83, 232.45 274.0, 232.72 274.17, 233.0 274.33, 233.27 274.5, 233.54 274.67, 233.81 274.83, 234.08 275.0, 234.35 275.17, 234.61 275.33, 234.88 275.5, 235.14 275.67, 235.41 275.83, 235.67 276.0, 235.93 276.17, 236.18 276.33, 236.44 276.5, 236.69 276.67, 236.95 276.83, 237.2 277.0, 237.45 277.17, 237.69 277.33, 237.94 277.5, 238.18 277.67, 238.43 277.83, 238.67 278.0, 238.9 278.17, 239.14 278.33, 239.37 278.5, 239.61 278.67, 239.84 278.83, 240.07 279.0, 240.29 279.17, 240.52 279.33, 240.74 279.5, 240.96 279.67, 241.17 279.83, 241.39 280.0, 241.6 280.17, 241.81 280.33, 242.02 280.5, 242.22 280.67, 242.42 280.83, 242.62 281.0, 242.82 281.17, 243.02 281.33, 243.21 281.5, 243.4 281.67, 243.58 281.83, 243.77 282.0, 243.95 282.17, 244.13 282.33, 244.3 282.5, 244.47 282.67, 244.64 282.83, 244.81 283.0, 244.97 283.17, 245.13 283.33, 245.29 283.5, 245.44 283.67, 245.59 283.83, 245.74 284.0, 245.88 284.17, 246.02 284.33, 246.16 284.5, 246.29 284.67, 246.42 284.83, 246.55 285.0, 246.67 285.17, 246.79 285.33, 246.91 285.5, 247.02 285.67, 247.12 285.83, 247.23 286.0, 247.33 286.17, 247.42 286.33, 247.52 286.5, 247.6 286.67, 247.69 286.83, 247.77 287.0, 247.84 287.17, 247.92 287.33, 247.98 287.5, 248.05 287.67, 248.11 287.83, 248.16 288.0, 248.21 288.17, 248.25 288.33, 248.3 288.5, 248.33 288.67, 248.36 288.83, 248.39 289.0, 248.41 289.17, 248.43 289.33, 248.44 289.5, 248.45 289.67, 248.45 289.83, 248.45 290.0, 248.44 290.17, 248.43 290.33, 248.41 290.5, 248.39 290.67, 248.36 290.83, 248.33 291.0, 248.29 291.17, 248.25 291.33, 248.2 291.5, 248.14 291.67, 248.08 291.83, 248.02 292.0, 247.94 292.17, 247.87 292.33, 247.78 292.5, 247.7 292.67, 247.6 292.83, 247.5 293.0, 247.39 293.17, 247.28 293.33, 247.16 293.5, 247.03 293.67, 246.9 293.83, 246.77 294.0, 246.62 294.17, 246.47 294.33, 246.31 294.5, 246.15 294.67, 245.98 294.83, 245.8 295.0, 245.62 295.17, 245.43 295.33, 245.23 295.5, 245.03 295.67, 244.82 295.83, 244.6 296.0, 244.38 296.17, 244.15 296.33, 243.91 296.5, 243.66 296.67, 243.41 296.83, 243.15 297.0, 242.88 297.17, 242.6 297.33, 242.32 297.5, 242.03 297.67, 241.73 297.83, 241.43 298.0, 241.11 298.17, 240.79 298.33, 240.46 298.5, 240.12 298.67, 239.78 298.83, 239.43 299.0, 239.06 299.17, 238.69 299.33, 238.32 299.5, 237.93 299.67, 237.53 299.83, 237.13 300.0, 236.72 300.17, 236.3 300.33, 235.87 300.5, 235.43 300.67, 234.98 300.83, 234.53 301.0, 234.06 301.17, 233.59 301.33, 233.11 301.5, 232.62 301.67, 232.11 301.83, 231.6 302.0, 231.08 302.17, 230.56 302.33, 230.02 302.5, 229.47 302.67, 228.91 302.83, 228.34 303.0, 227.77 303.17, 227.18 303.33, 226.58 303.5, 225.98 303.67, 225.36 303.83, 224.73 304.0, 224.09 304.17, 223.45 304.33, 222.79 304.5, 222.12 304.67, 221.44 304.83, 220.75 305.0, 220.05 305.17, 219.34 305.33, 218.62 305.5, 217.89 305.67, 217.14 305.83, 216.39 306.0, 215.62 306.17, 214.85 306.33, 214.06 306.5, 213.26 306.67, 212.45 306.83, 211.63 307.0, 210.79 307.17, 209.95 307.33, 209.09 307.5, 208.22 307.67, 207.34 307.83, 206.45 308.0, 205.54 308.17, 204.63 308.33, 203.7 308.5, 202.76 308.67, 201.8 308.83, 200.84 309.0, 199.86 309.17, 198.87 309.33, 197.87 309.5, 196.85 309.67, 195.82 309.83, 194.78 310.0, 193.72 310.17, 192.66 310.33, 191.58 310.5, 190.48 310.67, 189.37 310.83, 188.25 311.0, 187.12 311.17, 185.97 311.33, 184.81 311.5, 183.63 311.67, 182.44 311.83, 181.24 312.0, 180.02 312.17, 178.79 312.33, 177.55 312.5, 176.29 312.67, 175.01 312.83, 173.72 313.0, 172.42 313.17, 171.1 313.33, 169.77 313.5, 168.42 313.67, 167.06 313.83, 165.69 314.0, 164.29 314.17, 162.89 314.33, 161.47 314.5, 160.03 314.67, 158.57 314.83, 157.11 315.0, 155.62 315.17, 154.12 315.33, 152.61 315.5, 151.08 315.67, 149.53 315.83, 147.97 316.0, 146.39 316.17, 144.79 316.33, 143.18 316.5, 141.55 316.67, 139.91 316.83, 138.25 317.0, 136.57 317.17, 134.87 317.33, 133.16 317.5, 131.43 317.67, 129.69 317.83, 127.92 318.0, 126.14 318.17, 124.35 318.33, 122.53 318.5, 120.7 318.67, 118.85 318.83, 116.98 319.0, 115.09 319.17, 113.19 319.33, 111.27 319.5, 109.33 319.67, 107.37 319.83, 105.39 320.0, 103.4 320.17, 101.39 320.33, 99.35 320.5, 97.3 320.67, 95.23 320.83, 93.15 321.0, 91.04 321.17, 88.91 321.33, 86.76 321.5, 84.6 321.67, 82.41 321.83, 80.21 322.0, 77.99 322.17, 75.74 322.33, 73.48 322.5, 71.19 322.67, 68.89 322.83, 66.57 323.0, 64.22 323.17, 61.86 323.33, 59.47 323.5, 57.07 323.67, 54.64 323.83, 52.19 324.0, 49.72 324.17, 47.23 324.33, 44.72 324.5, 42.19 324.67, 39.64 324.83, 37.07 325.0, 34.47 325.17, 31.85 325.33, 29.21 325.5, 26.55 325.67, 23.87 325.83, 21.16 326.0, 18.43 326.17, 15.68 326.33, 12.91 326.5, 10.11 326.67, 7.3 326.83, 4.45 327.0, 1.59 327.17, -1.3 327.33, -4.21 327.5, -7.14 327.67, -10.1 327.83, -13.08 328.0, -16.08 328.17, -19.11 328.33, -22.16 328.5, -25.23 328.67, -28.33 328.83, -31.46 329.0, -34.61 329.17, -37.78 329.33, -40.97 329.5, -44.2 329.67, -47.44 329.83, -50.71 330.0, -54.01 330.17, -57.33 330.33, -60.68 330.5, -64.05 330.67, -67.45 330.83, -70.87 331.0, -74.32 331.17, -77.79 331.33, -81.3 331.5, -84.82 331.67, -88.38 331.83, -91.96 332.0, -95.56 332.17, -99.19 332.33, -102.85 332.5, -106.54 332.67, -110.25 332.83, -113.99 333.0, -117.76 333.17, -121.55 333.33, -125.38 333.5, -129.23 333.67, -133.1 333.83, -137.01 334.0, -140.94 334.17, -144.91 334.33, -148.9 334.5, -152.91 334.67, -156.96 334.83, -161.04 335.0, -165.14 335.17, -169.27 335.33, -173.43 335.5, -177.63 335.67, -181.85 335.83, -186.1 336.0, -190.38 336.17, -194.68 336.33, -199.02 336.5, -203.39 336.67, -207.79 336.83, -212.22 337.0, -216.68 337.17, -221.17 337.33, -225.69 337.5, -230.24 337.67, -234.82 337.83, -239.44 338.0, -244.08 338.17, -248.76 338.33, -253.46 338.5, -258.2 338.67, -262.97 338.83, -267.78 339.0, -272.61 339.17, -277.48 339.33, -282.37 339.5, -287.31 339.67, -292.27 339.83, -297.26 340.0, -302.29 340.17, -307.36 340.33, -312.45 340.5, -317.58 340.67, -322.74 340.83, -327.94 341.0, -333.16 341.17, -338.43 341.33, -343.72 341.5, -349.05 341.67, -354.42 341.83, -359.82 342.0, -365.25 342.17, -370.72 342.33, -376.22 342.5, -381.76 342.67, -387.34 342.83, -392.94 343.0, -398.59 343.17, -404.27 343.33, -409.98 343.5, -415.73 343.67, -421.52 343.83, -427.34 344.0, -433.2 344.17, -439.1 344.33, -445.03 344.5, -451.0 344.67, -457.01 344.83, -463.05 345.0, -469.13 345.17, -475.25 345.33, -481.4 345.5, -487.6 345.67, -493.83 345.83, -500.1 346.0, -506.4 346.17, -512.75 346.33, -519.13 346.5, -525.55 346.67, -532.01 346.83, -538.51 347.0, -545.05 347.17, -551.63 347.33, -558.25 347.5, -564.9 347.67, -571.6 347.83, -578.34 348.0, -585.11 348.17, -591.93 348.33, -598.79 348.5, -605.68 348.67, -612.62 348.83, -619.6 349.0, -626.62 349.17, -633.68 349.33, -640.78 349.5, -647.92 349.67, -655.11 349.83, -662.34 350.0, -669.6 350.17, -676.92 350.33, -684.27 350.5, -691.66 350.67, -699.1 350.83, -706.58 351.0, -714.1 351.17, -721.67 351.33, -729.28 351.5, -736.93 351.67, -744.63 351.83, -752.37 352.0, -760.15 352.17, -767.98 352.33, -775.86 352.5, -783.77 352.67, -791.73 352.83, -799.74 353.0, -807.79 353.17, -815.89 353.33, -824.03 353.5, -832.22 353.67, -840.45 353.83, -848.73 354.0, -857.05 354.17, -865.42 354.33, -873.84 354.5, -882.3 354.67, -890.81 354.83, -899.37 355.0, -907.97 355.17, -916.62 355.33, -925.32 355.5, -934.06 355.67, -942.86 355.83, -951.7 356.0, -960.59 356.17, -969.52 356.33, -978.51 356.5, -987.54 356.67, -996.63 356.83, -1005.76 357.0, -1014.94 357.17, -1024.17 357.33, -1033.45 357.5, -1042.78 357.67, -1052.16 357.83, -1061.59 358.0, -1071.07 358.17, -1080.6 358.33, -1090.18 358.5, -1099.81 358.67, -1109.49 358.83, -1119.22 359.0, -1129.01 359.17, -1138.84 359.33, -1148.73 359.5, -1158.67 359.67, -1168.66 359.83, -1178.7 360.0, -1188.8 360.17, -1198.95 360.33, -1209.15 360.5, -1219.4 360.67, -1229.71 360.83, -1240.07 361.0, -1250.49 361.17, -1260.95 361.33, -1271.48 361.5, -1282.05 361.67, -1292.68 361.83, -1303.37 362.0, -1314.11 362.17, -1324.9 362.33, -1335.75 362.5, -1346.66 362.67, -1357.62 362.83, -1368.63 363.0, -1379.7 363.17, -1390.83 363.33, -1402.02 363.5, -1413.26 363.67, -1424.55 363.83, -1435.91 364.0, -1447.32 364.17, -1458.79 364.33, -1470.31 364.5, -1481.89 364.67, -1493.54 364.83, -1505.23 365.0, -1516.99 365.17, -1528.81 365.33, -1540.68 365.5, -1552.61 365.67, -1564.61 365.83, -1576.66 366.0, -1588.77 366.17, -1600.94 366.33, -1613.17 366.5, -1625.46 366.67, -1637.81 366.83, -1650.22 367.0, -1662.69 367.17, -1675.22 367.33, -1687.81 367.5, -1700.47 367.67, -1713.19 367.83, -1725.96 368.0, -1738.8 368.17, -1751.7 368.33, -1764.67 368.5, -1777.69 368.67, -1790.78 368.83, -1803.93 369.0, -1817.15 369.17, -1830.43 369.33, -1843.77 369.5, -1857.18 369.67, -1870.64 369.83, -1884.18 370.0, -1897.78 370.17, -1911.44 370.33, -1925.17 370.5, -1938.96 370.67, -1952.82 370.83, -1966.74 371.0, -1980.73 371.17, -1994.78 371.33, -2008.91 371.5, -2023.09 371.67, -2037.35 371.83, -2051.67 372.0, -2066.06 372.17, -2080.51 372.33, -2095.03 372.5, -2109.62 372.67, -2124.28 372.83, -2139.01 373.0, -2153.8 373.17, -2168.66 373.33, -2183.59 373.5, -2198.59 373.67, -2213.66 373.83, -2228.8 374.0, -2244.01 374.17, -2259.29 374.33, -2274.64 374.5, -2290.06 374.67, -2305.55 374.83, -2321.11 375.0, -2336.74 375.17, -2352.44 375.33, -2368.21 375.5, -2384.06 375.67, -2399.97 375.83, -2415.96 376.0, -2432.03 376.17, -2448.16 376.33, -2464.37 376.5, -2480.65 376.67, -2497.0 376.83, -2513.43 377.0, -2529.93 377.17, -2546.5 377.33, -2563.15 377.5, -2579.87 377.67, -2596.67 377.83, -2613.54 378.0, -2630.49 378.17, -2647.51 378.33, -2664.61 378.5, -2681.79 378.67, -2699.04 378.83, -2716.36 379.0, -2733.77 379.17, -2751.25 379.33, -2768.8 379.5, -2786.44 379.67, -2804.15 379.83, -2821.94 380.0, -2839.81 380.17, -2857.75 380.33, -2875.78 380.5, -2893.88 380.67, -2912.06 380.83, -2930.32 381.0, -2948.66 381.17, -2967.08 381.33, -2985.58 381.5, -3004.16 381.67, -3022.82 381.83, -3041.56 382.0, -3060.38 382.17, -3079.29 382.33, -3098.27 382.5, -3117.34 382.67, -3136.49 382.83, -3155.72 383.0, -3175.03 383.17, -3194.42 383.33, -3213.9 383.5, -3233.46 383.67, -3253.11 383.83, -3272.83 384.0, -3292.65 384.17, -3312.54 384.33, -3332.52 384.5, -3352.59 384.67, -3372.74 384.83, -3392.97 385.0, -3413.29 385.17, -3433.7 385.33, -3454.19 385.5, -3474.77 385.67, -3495.43 385.83, -3516.18 386.0, -3537.02 386.17, -3557.94 386.33, -3578.96 386.5, -3600.06 386.67, -3621.24 386.83, -3642.52 387.0, -3663.88 387.17, -3685.34 387.33, -3706.88 387.5, -3728.51 387.67, -3750.23 387.83, -3772.04 388.0, -3793.94 388.17, -3815.93 388.33, -3838.02 388.5, -3860.19 388.67, -3882.45 388.83, -3904.81 389.0, -3927.25 389.17, -3949.79 389.33, -3972.42 389.5, -3995.15 389.67, -4017.96 389.83, -4040.87 390.0, -4063.87 390.17, -4086.97 390.33, -4110.16 390.5, -4133.44 390.67, -4156.82 390.83, -4180.29 391.0, -4203.85 391.17, -4227.52 391.33, -4251.27 391.5, -4275.13 391.67, -4299.07 391.83, -4323.12 392.0, -4347.26 392.17, -4371.5 392.33, -4395.83 392.5, -4420.27 392.67, -4444.8 392.83, -4469.42 393.0, -4494.15 393.17, -4518.97 393.33, -4543.9 393.5, -4568.92 393.67, -4594.04 393.83, -4619.26 394.0, -4644.58 394.17, -4670.0 394.33, -4695.52 394.5, -4721.15 394.67, -4746.87 394.83, -4772.69 395.0, -4798.62 395.17, -4824.64 395.33, -4850.77 395.5, -4877.01 395.67, -4903.34 395.83, -4929.78 396.0, -4956.32 396.17, -4982.96 396.33, -5009.71 396.5, -5036.56 396.67, -5063.52 396.83, -5090.58 397.0, -5117.74 397.17, -5145.01 397.33, -5172.39 397.5, -5199.87 397.67, -5227.46 397.83, -5255.15 398.0, -5282.96 398.17, -5310.86 398.33, -5338.88 398.5, -5367.0 398.67, -5395.23 398.83, -5423.57 399.0, -5452.02 399.17, -5480.58 399.33, -5509.24 399.5, -5538.02 399.67, -5566.9 399.83, -5595.9 400.0, -5625.0 " fill="none" stroke="white" stroke-width="1.5" stroke-linejoin="round" stroke-opacity="1"/>

 </svg>