<svg version="1.1" 
 baseProfile="full" 
 width="400" 
 height="400" 
 xmlns="http://www.w3.org/2000/svg">
<rect x="0.0" y="0.0" width="400" height="400" fill="black" stroke="black" stroke-width="0" opacity="1"/>
<line x1="0.0" y1="0.0" x2="0.0" y2="400.0" stroke="white" stroke-width="1" opacity="0.4" stroke-linecap="butt"/>
<line x1="40.0" y1="0.0" x2="40.0" y2="400.0" stroke="white" stroke-width="1" opacity="0.4" stroke-linecap="butt"/>
<line x1="80.0" y1="0.0" x2="80.0" y2="400.0" stroke="white" stroke-width="1" opacity="0.4" stroke-linecap="butt"/>
<line x1="120.0" y1="0.0" x2="120.0" y2="400.0" stroke="white" stroke-width="1" opacity="0.4" stroke-linecap="butt"/>
<line x1="160.0" y1="0.0" x2="160.0" y2="400.0" stroke="white" stroke-width="1" opacity="0.4" stroke-linecap="butt"/>
<line x1="200.0" y1="0.0" x2="200.0" y2="400.0" stroke="white" stroke-width="1" opacity="0.4" stroke-linecap="butt"/>
<line x1="240.0" y1="0.0" x2="240.0" y2="400.0" stroke="white" stroke-width="1" opacity="0.4" stroke-linecap="butt"/>
<line x1="280.0" y1="0.0" x2="280.0" y2="400.0" stroke="white" stroke-width="1" opacity="0.4" stroke-linecap="butt"/>
<line x1="320.0" y1="0.0" x2="320.0" y2="400.0" stroke="white" stroke-width="1" opacity="0.4" stroke-linecap="butt"/>
<line x1="360.0" y1="0.0" x2="360.0" y2="400.0" stroke="white" stroke-width="1" opacity="0.4" stroke-linecap="butt"/>
<line x1="0.0" y1="0.0" x2="400.0" y2="0.0" stroke="white" stroke-width="1" opacity="0.4" stroke-linecap="butt"/>
<line x1="0.0" y1="40.0" x2="400.0" y2="40.0" stroke="white" stroke-width="1" opacity="0.4" stroke-linecap="butt"/>
<line x1="0.0" y1="80.0" x2="400.0" y2="80.0" stroke="white" stroke-width="1" opacity="0.4" stroke-linecap="butt"/>
<line x1="0.0" y1="120.0" x2="400.0" y2="120.0" stroke="white" stroke-width="1" opacity="0.4" stroke-linecap="butt"/>
<line x1="0.0" y1="160.0" x2="400.0" y2="160.0" stroke="white" stroke-width="1" opacity="0.4" stroke-linecap="butt"/>
<line x1="0.0" y1="200.0" x2="400.0" y2="200.0" stroke="white" stroke-width="1" opacity="0.4" stroke-linecap="butt"/>
<line x1="0.0" y1="240.0" x2="400.0" y2="240.0" stroke="white" stroke-width="1" opacity="0.4" stroke-linecap="butt"/>
<line x1="0.0" y1="280.0" x2="400.0" y2="280.0" stroke="white" stroke-width="1" opacity="0.4" stroke-linecap="butt"/>
<line x1="0.0" y1="320.0" x2="400.0" y2="320.0" stroke="white" stroke-width="1" opacity="0.4" stroke-linecap="butt"/>
<line x1="0.0" y1="360.0" x2="400.0" y2="360.0" stroke="white" stroke-width="1" opacity="0.4" stroke-linecap="butt"/>
<line x1="0.0" y1="200.0" x2="400.0" y2="200.0" stroke="yellow" stroke-width="2.5" opacity="1" stroke-linecap="butt"/>
<line x1="200.0" y1="0.0" x2="200.0" y2="400.0" stroke="yellow" stroke-width="2.5" opacity="1" stroke-linecap="butt"/>
<polygon points="391.0 204.0, 401.0 200.0, 391.0 196.0, 393.0 200.0" fill="yellow"/><polygon points="204.0 9.0, 200.0 -1.0, 196.0 9.0, 200.0 7.0" fill="yellow"/><image x="-60.0" y="-60.0" width="200" height="200" href="/Users/girirajhira/PycharmProjects/Giraphics3/Taylor/expr.png"/><polyline points="0.0, 7900.0 0.17, 7863.1 0.33, 7826.33 0.5, 7789.7 0.67, 7753.2 0.83, 7716.84 1.0, 7680.61 1.17, 7644.52 1.33, 7608.56 1.5, 7572.74 1.67, 7537.05 1.83, 7501.49 2.0, 7466.06 2.17, 7430.77 2.33, 7395.61 2.5, 7360.58 2.67, 7325.68 2.83, 7290.91 3.0, 7256.27 3.17, 7221.77 3.33, 7187.39 3.5, 7153.14 3.67, 7119.02 3.83, 7085.03 4.0, 7051.17 4.17, 7017.43 4.33, 6983.83 4.5, 6950.35 4.67, 6917.0 4.83, 6883.77 5.0, 6850.67 5.17, 6817.7 5.33, 6784.85 5.5, 6752.13 5.67, 6719.53 5.83, 6687.06 6.0, 6654.71 6.17, 6622.48 6.33, 6590.38 6.5, 6558.4 6.67, 6526.55 6.83, 6494.81 7.0, 6463.2 7.17, 6431.71 7.33, 6400.35 7.5, 6369.1 7.67, 6337.97 7.83, 6306.97 8.0, 6276.08 8.17, 6245.32 8.33, 6214.67 8.5, 6184.15 8.67, 6153.74 8.83, 6123.45 9.0, 6093.28 9.17, 6063.22 9.33, 6033.29 9.5, 6003.47 9.67, 5973.77 9.83, 5944.18 10.0, 5914.71 10.17, 5885.36 10.33, 5856.12 10.5, 5826.99 10.67, 5797.99 10.83, 5769.09 11.0, 5740.31 11.17, 5711.65 11.33, 5683.09 11.5, 5654.66 11.67, 5626.33 11.83, 5598.12 12.0, 5570.01 12.17, 5542.02 12.33, 5514.15 12.5, 5486.38 12.67, 5458.72 12.83, 5431.18 13.0, 5403.74 13.17, 5376.42 13.33, 5349.2 13.5, 5322.1 13.67, 5295.1 13.83, 5268.21 14.0, 5241.43 14.17, 5214.76 14.33, 5188.2 14.5, 5161.74 14.67, 5135.39 14.83, 5109.15 15.0, 5083.02 15.17, 5056.99 15.33, 5031.06 15.5, 5005.25 15.67, 4979.53 15.83, 4953.93 16.0, 4928.42 16.17, 4903.02 16.33, 4877.73 16.5, 4852.54 16.67, 4827.45 16.83, 4802.47 17.0, 4777.59 17.17, 4752.81 17.33, 4728.13 17.5, 4703.56 17.67, 4679.09 17.83, 4654.72 18.0, 4630.44 18.17, 4606.28 18.33, 4582.21 18.5, 4558.24 18.67, 4534.37 18.83, 4510.6 19.0, 4486.93 19.17, 4463.36 19.33, 4439.88 19.5, 4416.51 19.67, 4393.23 19.83, 4370.06 20.0, 4346.97 20.17, 4323.99 20.33, 4301.1 20.5, 4278.31 20.67, 4255.62 20.83, 4233.02 21.0, 4210.52 21.17, 4188.11 21.33, 4165.8 21.5, 4143.59 21.67, 4121.46 21.83, 4099.43 22.0, 4077.5 22.17, 4055.66 22.33, 4033.91 22.5, 4012.26 22.67, 3990.7 22.83, 3969.23 23.0, 3947.86 23.17, 3926.57 23.33, 3905.38 23.5, 3884.28 23.67, 3863.27 23.83, 3842.35 24.0, 3821.52 24.17, 3800.78 24.33, 3780.14 24.5, 3759.58 24.67, 3739.11 24.83, 3718.73 25.0, 3698.44 25.17, 3678.24 25.33, 3658.13 25.5, 3638.1 25.67, 3618.16 25.83, 3598.31 26.0, 3578.55 26.17, 3558.87 26.33, 3539.29 26.5, 3519.78 26.67, 3500.37 26.83, 3481.04 27.0, 3461.79 27.17, 3442.63 27.33, 3423.56 27.5, 3404.57 27.67, 3385.66 27.83, 3366.84 28.0, 3348.11 28.17, 3329.45 28.33, 3310.88 28.5, 3292.4 28.67, 3273.99 28.83, 3255.67 29.0, 3237.44 29.17, 3219.28 29.33, 3201.21 29.5, 3183.21 29.67, 3165.3 29.83, 3147.47 30.0, 3129.72 30.17, 3112.06 30.33, 3094.47 30.5, 3076.96 30.67, 3059.53 30.83, 3042.18 31.0, 3024.91 31.17, 3007.72 31.33, 2990.61 31.5, 2973.58 31.67, 2956.62 31.83, 2939.75 32.0, 2922.95 32.17, 2906.23 32.33, 2889.58 32.5, 2873.02 32.67, 2856.53 32.83, 2840.11 33.0, 2823.78 33.17, 2807.51 33.33, 2791.33 33.5, 2775.22 33.67, 2759.18 33.83, 2743.22 34.0, 2727.34 34.17, 2711.53 34.33, 2695.79 34.5, 2680.13 34.67, 2664.54 34.83, 2649.02 35.0, 2633.58 35.17, 2618.21 35.33, 2602.92 35.5, 2587.69 35.67, 2572.54 35.83, 2557.46 36.0, 2542.45 36.17, 2527.52 36.33, 2512.65 36.5, 2497.86 36.67, 2483.14 36.83, 2468.49 37.0, 2453.9 37.17, 2439.39 37.33, 2424.95 37.5, 2410.58 37.67, 2396.28 37.83, 2382.04 38.0, 2367.88 38.17, 2353.78 38.33, 2339.76 38.5, 2325.8 38.67, 2311.91 38.83, 2298.08 39.0, 2284.33 39.17, 2270.64 39.33, 2257.02 39.5, 2243.46 39.67, 2229.98 39.83, 2216.56 40.0, 2203.2 40.17, 2189.91 40.33, 2176.69 40.5, 2163.53 40.67, 2150.44 40.83, 2137.41 41.0, 2124.45 41.17, 2111.55 41.33, 2098.71 41.5, 2085.94 41.67, 2073.24 41.83, 2060.59 42.0, 2048.01 42.17, 2035.5 42.33, 2023.05 42.5, 2010.66 42.67, 1998.33 42.83, 1986.06 43.0, 1973.86 43.17, 1961.72 43.33, 1949.64 43.5, 1937.62 43.67, 1925.66 43.83, 1913.77 44.0, 1901.93 44.17, 1890.16 44.33, 1878.44 44.5, 1866.79 44.67, 1855.2 44.83, 1843.66 45.0, 1832.19 45.17, 1820.77 45.33, 1809.41 45.5, 1798.12 45.67, 1786.88 45.83, 1775.7 46.0, 1764.57 46.17, 1753.51 46.33, 1742.5 46.5, 1731.55 46.67, 1720.66 46.83, 1709.83 47.0, 1699.05 47.17, 1688.33 47.33, 1677.66 47.5, 1667.05 47.67, 1656.5 47.83, 1646.01 48.0, 1635.57 48.17, 1625.18 48.33, 1614.85 48.5, 1604.58 48.67, 1594.36 48.83, 1584.19 49.0, 1574.08 49.17, 1564.03 49.33, 1554.02 49.5, 1544.07 49.67, 1534.18 49.83, 1524.34 50.0, 1514.55 50.17, 1504.82 50.33, 1495.13 50.5, 1485.5 50.67, 1475.93 50.83, 1466.4 51.0, 1456.93 51.17, 1447.51 51.33, 1438.14 51.5, 1428.82 51.67, 1419.56 51.83, 1410.34 52.0, 1401.18 52.17, 1392.06 52.33, 1383.0 52.5, 1373.99 52.67, 1365.02 52.83, 1356.11 53.0, 1347.25 53.17, 1338.44 53.33, 1329.67 53.5, 1320.96 53.67, 1312.29 53.83, 1303.67 54.0, 1295.1 54.17, 1286.58 54.33, 1278.11 54.5, 1269.69 54.67, 1261.31 54.83, 1252.98 55.0, 1244.7 55.17, 1236.47 55.33, 1228.28 55.5, 1220.14 55.67, 1212.05 55.83, 1204.0 56.0, 1196.0 56.17, 1188.05 56.33, 1180.14 56.5, 1172.28 56.67, 1164.46 56.83, 1156.69 57.0, 1148.96 57.17, 1141.28 57.33, 1133.64 57.5, 1126.05 57.67, 1118.51 57.83, 1111.0 58.0, 1103.55 58.17, 1096.13 58.33, 1088.76 58.5, 1081.43 58.67, 1074.15 58.83, 1066.91 59.0, 1059.71 59.17, 1052.56 59.33, 1045.45 59.5, 1038.38 59.67, 1031.35 59.83, 1024.37 60.0, 1017.42 60.17, 1010.52 60.33, 1003.67 60.5, 996.85 60.67, 990.07 60.83, 983.34 61.0, 976.65 61.17, 969.99 61.33, 963.38 61.5, 956.81 61.67, 950.28 61.83, 943.79 62.0, 937.34 62.17, 930.93 62.33, 924.56 62.5, 918.22 62.67, 911.93 62.83, 905.68 63.0, 899.46 63.17, 893.29 63.33, 887.15 63.5, 881.05 63.67, 874.99 63.83, 868.97 64.0, 862.99 64.17, 857.04 64.33, 851.13 64.5, 845.26 64.67, 839.43 64.83, 833.63 65.0, 827.88 65.17, 822.15 65.33, 816.47 65.5, 810.82 65.67, 805.21 65.83, 799.63 66.0, 794.09 66.17, 788.59 66.33, 783.12 66.5, 777.69 66.67, 772.29 66.83, 766.93 67.0, 761.6 67.17, 756.31 67.33, 751.05 67.5, 745.83 67.67, 740.65 67.83, 735.49 68.0, 730.37 68.17, 725.29 68.33, 720.24 68.5, 715.22 68.67, 710.24 68.83, 705.29 69.0, 700.37 69.17, 695.49 69.33, 690.64 69.5, 685.82 69.67, 681.04 69.83, 676.28 70.0, 671.56 70.17, 666.88 70.33, 662.22 70.5, 657.6 70.67, 653.01 70.83, 648.45 71.0, 643.92 71.17, 639.42 71.33, 634.96 71.5, 630.52 71.67, 626.12 71.83, 621.75 72.0, 617.41 72.17, 613.1 72.33, 608.82 72.5, 604.56 72.67, 600.34 72.83, 596.15 73.0, 591.99 73.17, 587.86 73.33, 583.76 73.5, 579.69 73.67, 575.65 73.83, 571.63 74.0, 567.65 74.17, 563.69 74.33, 559.77 74.5, 555.87 74.67, 552.0 74.83, 548.16 75.0, 544.35 75.17, 540.56 75.33, 536.8 75.5, 533.07 75.67, 529.37 75.83, 525.7 76.0, 522.05 76.17, 518.43 76.33, 514.84 76.5, 511.27 76.67, 507.73 76.83, 504.22 77.0, 500.74 77.17, 497.28 77.33, 493.85 77.5, 490.44 77.67, 487.06 77.83, 483.7 78.0, 480.38 78.17, 477.07 78.33, 473.8 78.5, 470.54 78.67, 467.32 78.83, 464.12 79.0, 460.94 79.17, 457.79 79.33, 454.66 79.5, 451.56 79.67, 448.48 79.83, 445.43 80.0, 442.4 80.17, 439.4 80.33, 436.41 80.5, 433.46 80.67, 430.53 80.83, 427.62 81.0, 424.73 81.17, 421.87 81.33, 419.03 81.5, 416.21 81.67, 413.42 81.83, 410.65 82.0, 407.9 82.17, 405.18 82.33, 402.48 82.5, 399.8 82.67, 397.14 82.83, 394.51 83.0, 391.9 83.17, 389.31 83.33, 386.74 83.5, 384.19 83.67, 381.67 83.83, 379.16 84.0, 376.68 84.17, 374.22 84.33, 371.78 84.5, 369.36 84.67, 366.96 84.83, 364.59 85.0, 362.23 85.17, 359.89 85.33, 357.58 85.5, 355.29 85.67, 353.01 85.83, 350.76 86.0, 348.52 86.17, 346.31 86.33, 344.11 86.5, 341.94 86.67, 339.79 86.83, 337.65 87.0, 335.53 87.17, 333.44 87.33, 331.36 87.5, 329.3 87.67, 327.26 87.83, 325.24 88.0, 323.24 88.17, 321.26 88.33, 319.29 88.5, 317.35 88.67, 315.42 88.83, 313.51 89.0, 311.62 89.17, 309.74 89.33, 307.89 89.5, 306.05 89.67, 304.23 89.83, 302.43 90.0, 300.64 90.17, 298.87 90.33, 297.12 90.5, 295.39 90.67, 293.67 90.83, 291.98 91.0, 290.29 91.17, 288.63 91.33, 286.98 91.5, 285.35 91.67, 283.73 91.83, 282.13 92.0, 280.55 92.17, 278.98 92.33, 277.43 92.5, 275.9 92.67, 274.38 92.83, 272.87 93.0, 271.39 93.17, 269.92 93.33, 268.46 93.5, 267.02 93.67, 265.59 93.83, 264.18 94.0, 262.79 94.17, 261.41 94.33, 260.04 94.5, 258.69 94.67, 257.36 94.83, 256.04 95.0, 254.73 95.17, 253.44 95.33, 252.16 95.5, 250.9 95.67, 249.65 95.83, 248.42 96.0, 247.19 96.17, 245.99 96.33, 244.79 96.5, 243.62 96.67, 242.45 96.83, 241.3 97.0, 240.16 97.17, 239.03 97.33, 237.92 97.5, 236.82 97.67, 235.74 97.83, 234.67 98.0, 233.61 98.17, 232.56 98.33, 231.53 98.5, 230.51 98.67, 229.5 98.83, 228.5 99.0, 227.52 99.17, 226.55 99.33, 225.59 99.5, 224.64 99.67, 223.71 99.83, 222.79 100.0, 221.88 100.17, 220.98 100.33, 220.09 100.5, 219.21 100.67, 218.35 100.83, 217.5 101.0, 216.66 101.17, 215.83 101.33, 215.01 101.5, 214.2 101.67, 213.41 101.83, 212.62 102.0, 211.85 102.17, 211.09 102.33, 210.34 102.5, 209.6 102.67, 208.87 102.83, 208.15 103.0, 207.44 103.17, 206.74 103.33, 206.05 103.5, 205.37 103.67, 204.7 103.83, 204.05 104.0, 203.4 104.17, 202.76 104.33, 202.13 104.5, 201.51 104.67, 200.91 104.83, 200.31 105.0, 199.72 105.17, 199.14 105.33, 198.57 105.5, 198.01 105.67, 197.46 105.83, 196.91 106.0, 196.38 106.17, 195.86 106.33, 195.34 106.5, 194.84 106.67, 194.34 106.83, 193.85 107.0, 193.37 107.17, 192.9 107.33, 192.44 107.5, 191.98 107.67, 191.54 107.83, 191.1 108.0, 190.67 108.17, 190.25 108.33, 189.84 108.5, 189.44 108.67, 189.04 108.83, 188.65 109.0, 188.27 109.17, 187.9 109.33, 187.54 109.5, 187.18 109.67, 186.83 109.83, 186.49 110.0, 186.16 110.17, 185.83 110.33, 185.51 110.5, 185.2 110.67, 184.89 110.83, 184.6 111.0, 184.31 111.17, 184.02 111.33, 183.75 111.5, 183.48 111.67, 183.22 111.83, 182.96 112.0, 182.71 112.17, 182.47 112.33, 182.24 112.5, 182.01 112.67, 181.78 112.83, 181.57 113.0, 181.36 113.17, 181.16 113.33, 180.96 113.5, 180.77 113.67, 180.59 113.83, 180.41 114.0, 180.24 114.17, 180.07 114.33, 179.91 114.5, 179.76 114.67, 179.61 114.83, 179.46 115.0, 179.33 115.17, 179.2 115.33, 179.07 115.5, 178.95 115.67, 178.84 115.83, 178.73 116.0, 178.62 116.17, 178.52 116.33, 178.43 116.5, 178.34 116.67, 178.26 116.83, 178.18 117.0, 178.11 117.17, 178.04 117.33, 177.98 117.5, 177.92 117.67, 177.87 117.83, 177.82 118.0, 177.77 118.17, 177.74 118.33, 177.7 118.5, 177.67 118.67, 177.65 118.83, 177.62 119.0, 177.61 119.17, 177.6 119.33, 177.59 119.5, 177.59 119.67, 177.59 119.83, 177.59 120.0, 177.6 120.17, 177.61 120.33, 177.63 120.5, 177.65 120.67, 177.68 120.83, 177.71 121.0, 177.74 121.17, 177.77 121.33, 177.82 121.5, 177.86 121.67, 177.91 121.83, 177.96 122.0, 178.01 122.17, 178.07 122.33, 178.13 122.5, 178.2 122.67, 178.27 122.83, 178.34 123.0, 178.41 123.17, 178.49 123.33, 178.57 123.5, 178.66 123.67, 178.75 123.83, 178.84 124.0, 178.93 124.17, 179.03 124.33, 179.13 124.5, 179.23 124.67, 179.34 124.83, 179.45 125.0, 179.56 125.17, 179.67 125.33, 179.79 125.5, 179.91 125.67, 180.03 125.83, 180.15 126.0, 180.28 126.17, 180.41 126.33, 180.54 126.5, 180.67 126.67, 180.81 126.83, 180.95 127.0, 181.09 127.17, 181.24 127.33, 181.38 127.5, 181.53 127.67, 181.68 127.83, 181.83 128.0, 181.99 128.17, 182.14 128.33, 182.3 128.5, 182.46 128.67, 182.62 128.83, 182.79 129.0, 182.95 129.17, 183.12 129.33, 183.29 129.5, 183.46 129.67, 183.63 129.83, 183.81 130.0, 183.98 130.17, 184.16 130.33, 184.34 130.5, 184.52 130.67, 184.7 130.83, 184.89 131.0, 185.07 131.17, 185.26 131.33, 185.44 131.5, 185.63 131.67, 185.82 131.83, 186.02 132.0, 186.21 132.17, 186.4 132.33, 186.6 132.5, 186.79 132.67, 186.99 132.83, 187.19 133.0, 187.39 133.17, 187.59 133.33, 187.79 133.5, 187.99 133.67, 188.2 133.83, 188.4 134.0, 188.61 134.17, 188.81 134.33, 189.02 134.5, 189.23 134.67, 189.44 134.83, 189.64 135.0, 189.85 135.17, 190.06 135.33, 190.27 135.5, 190.49 135.67, 190.7 135.83, 190.91 136.0, 191.12 136.17, 191.34 136.33, 191.55 136.5, 191.77 136.67, 191.98 136.83, 192.2 137.0, 192.41 137.17, 192.63 137.33, 192.84 137.5, 193.06 137.67, 193.28 137.83, 193.49 138.0, 193.71 138.17, 193.93 138.33, 194.15 138.5, 194.36 138.67, 194.58 138.83, 194.8 139.0, 195.02 139.17, 195.24 139.33, 195.45 139.5, 195.67 139.67, 195.89 139.83, 196.11 140.0, 196.32 140.17, 196.54 140.33, 196.76 140.5, 196.98 140.67, 197.19 140.83, 197.41 141.0, 197.63 141.17, 197.85 141.33, 198.06 141.5, 198.28 141.67, 198.49 141.83, 198.71 142.0, 198.92 142.17, 199.14 142.33, 199.35 142.5, 199.57 142.67, 199.78 142.83, 199.99 143.0, 200.21 143.17, 200.42 143.33, 200.63 143.5, 200.84 143.67, 201.05 143.83, 201.26 144.0, 201.47 144.17, 201.68 144.33, 201.89 144.5, 202.1 144.67, 202.3 144.83, 202.51 145.0, 202.72 145.17, 202.92 145.33, 203.12 145.5, 203.33 145.67, 203.53 145.83, 203.73 146.0, 203.93 146.17, 204.14 146.33, 204.33 146.5, 204.53 146.67, 204.73 146.83, 204.93 147.0, 205.13 147.17, 205.32 147.33, 205.52 147.5, 205.71 147.67, 205.9 147.83, 206.09 148.0, 206.28 148.17, 206.47 148.33, 206.66 148.5, 206.85 148.67, 207.04 148.83, 207.22 149.0, 207.41 149.17, 207.59 149.33, 207.78 149.5, 207.96 149.67, 208.14 149.83, 208.32 150.0, 208.5 150.17, 208.67 150.33, 208.85 150.5, 209.02 150.67, 209.2 150.83, 209.37 151.0, 209.54 151.17, 209.71 151.33, 209.88 151.5, 210.05 151.67, 210.22 151.83, 210.38 152.0, 210.55 152.17, 210.71 152.33, 210.87 152.5, 211.03 152.67, 211.19 152.83, 211.35 153.0, 211.5 153.17, 211.66 153.33, 211.81 153.5, 211.97 153.67, 212.12 153.83, 212.27 154.0, 212.42 154.17, 212.56 154.33, 212.71 154.5, 212.85 154.67, 213.0 154.83, 213.14 155.0, 213.28 155.17, 213.42 155.33, 213.55 155.5, 213.69 155.67, 213.83 155.83, 213.96 156.0, 214.09 156.17, 214.22 156.33, 214.35 156.5, 214.48 156.67, 214.6 156.83, 214.73 157.0, 214.85 157.17, 214.97 157.33, 215.09 157.5, 215.21 157.67, 215.33 157.83, 215.44 158.0, 215.55 158.17, 215.67 158.33, 215.78 158.5, 215.89 158.67, 215.99 158.83, 216.1 159.0, 216.21 159.17, 216.31 159.33, 216.41 159.5, 216.51 159.67, 216.61 159.83, 216.7 160.0, 216.8 160.17, 216.89 160.33, 216.99 160.5, 217.08 160.67, 217.17 160.83, 217.25 161.0, 217.34 161.17, 217.42 161.33, 217.5 161.5, 217.59 161.67, 217.67 161.83, 217.74 162.0, 217.82 162.17, 217.89 162.33, 217.97 162.5, 218.04 162.67, 218.11 162.83, 218.18 163.0, 218.24 163.17, 218.31 163.33, 218.37 163.5, 218.43 163.67, 218.49 163.83, 218.55 164.0, 218.61 164.17, 218.66 164.33, 218.72 164.5, 218.77 164.67, 218.82 164.83, 218.87 165.0, 218.91 165.17, 218.96 165.33, 219.0 165.5, 219.04 165.67, 219.09 165.83, 219.12 166.0, 219.16 166.17, 219.2 166.33, 219.23 166.5, 219.26 166.67, 219.29 166.83, 219.32 167.0, 219.35 167.17, 219.38 167.33, 219.4 167.5, 219.42 167.67, 219.45 167.83, 219.46 168.0, 219.48 168.17, 219.5 168.33, 219.51 168.5, 219.53 168.67, 219.54 168.83, 219.55 169.0, 219.56 169.17, 219.56 169.33, 219.57 169.5, 219.57 169.67, 219.57 169.83, 219.57 170.0, 219.57 170.17, 219.57 170.33, 219.57 170.5, 219.56 170.67, 219.55 170.83, 219.54 171.0, 219.53 171.17, 219.52 171.33, 219.51 171.5, 219.49 171.67, 219.47 171.83, 219.46 172.0, 219.44 172.17, 219.41 172.33, 219.39 172.5, 219.37 172.67, 219.34 172.83, 219.31 173.0, 219.28 173.17, 219.25 173.33, 219.22 173.5, 219.19 173.67, 219.15 173.83, 219.12 174.0, 219.08 174.17, 219.04 174.33, 219.0 174.5, 218.96 174.67, 218.91 174.83, 218.87 175.0, 218.82 175.17, 218.77 175.33, 218.72 175.5, 218.67 175.67, 218.62 175.83, 218.56 176.0, 218.51 176.17, 218.45 176.33, 218.39 176.5, 218.34 176.67, 218.27 176.83, 218.21 177.0, 218.15 177.17, 218.08 177.33, 218.02 177.5, 217.95 177.67, 217.88 177.83, 217.81 178.0, 217.74 178.17, 217.66 178.33, 217.59 178.5, 217.51 178.67, 217.44 178.83, 217.36 179.0, 217.28 179.17, 217.2 179.33, 217.12 179.5, 217.03 179.67, 216.95 179.83, 216.86 180.0, 216.78 180.17, 216.69 180.33, 216.6 180.5, 216.51 180.67, 216.41 180.83, 216.32 181.0, 216.23 181.17, 216.13 181.33, 216.03 181.5, 215.94 181.67, 215.84 181.83, 215.74 182.0, 215.63 182.17, 215.53 182.33, 215.43 182.5, 215.32 182.67, 215.22 182.83, 215.11 183.0, 215.0 183.17, 214.89 183.33, 214.78 183.5, 214.67 183.67, 214.56 183.83, 214.44 184.0, 214.33 184.17, 214.21 184.33, 214.1 184.5, 213.98 184.67, 213.86 184.83, 213.74 185.0, 213.62 185.17, 213.5 185.33, 213.38 185.5, 213.25 185.67, 213.13 185.83, 213.0 186.0, 212.87 186.17, 212.75 186.33, 212.62 186.5, 212.49 186.67, 212.36 186.83, 212.23 187.0, 212.1 187.17, 211.96 187.33, 211.83 187.5, 211.7 187.67, 211.56 187.83, 211.43 188.0, 211.29 188.17, 211.15 188.33, 211.01 188.5, 210.87 188.67, 210.73 188.83, 210.59 189.0, 210.45 189.17, 210.31 189.33, 210.17 189.5, 210.02 189.67, 209.88 189.83, 209.73 190.0, 209.59 190.17, 209.44 190.33, 209.29 190.5, 209.15 190.67, 209.0 190.83, 208.85 191.0, 208.7 191.17, 208.55 191.33, 208.4 191.5, 208.25 191.67, 208.09 191.83, 207.94 192.0, 207.79 192.17, 207.63 192.33, 207.48 192.5, 207.33 192.67, 207.17 192.83, 207.01 193.0, 206.86 193.17, 206.7 193.33, 206.54 193.5, 206.39 193.67, 206.23 193.83, 206.07 194.0, 205.91 194.17, 205.75 194.33, 205.59 194.5, 205.43 194.67, 205.27 194.83, 205.11 195.0, 204.95 195.17, 204.79 195.33, 204.62 195.5, 204.46 195.67, 204.3 195.83, 204.14 196.0, 203.97 196.17, 203.81 196.33, 203.65 196.5, 203.48 196.67, 203.32 196.83, 203.15 197.0, 202.99 197.17, 202.82 197.33, 202.66 197.5, 202.49 197.67, 202.33 197.83, 202.16 198.0, 202.0 198.17, 201.83 198.33, 201.66 198.5, 201.5 198.67, 201.33 198.83, 201.17 199.0, 201.0 199.17, 200.83 199.33, 200.67 199.5, 200.5 199.67, 200.33 199.83, 200.17 200.0, 200.0 200.17, 199.83 200.33, 199.67 200.5, 199.5 200.67, 199.33 200.83, 199.17 201.0, 199.0 201.17, 198.83 201.33, 198.67 201.5, 198.5 201.67, 198.34 201.83, 198.17 202.0, 198.0 202.17, 197.84 202.33, 197.67 202.5, 197.51 202.67, 197.34 202.83, 197.18 203.0, 197.01 203.17, 196.85 203.33, 196.68 203.5, 196.52 203.67, 196.35 203.83, 196.19 204.0, 196.03 204.17, 195.86 204.33, 195.7 204.5, 195.54 204.67, 195.38 204.83, 195.21 205.0, 195.05 205.17, 194.89 205.33, 194.73 205.5, 194.57 205.67, 194.41 205.83, 194.25 206.0, 194.09 206.17, 193.93 206.33, 193.77 206.5, 193.61 206.67, 193.46 206.83, 193.3 207.0, 193.14 207.17, 192.99 207.33, 192.83 207.5, 192.67 207.67, 192.52 207.83, 192.37 208.0, 192.21 208.17, 192.06 208.33, 191.91 208.5, 191.75 208.67, 191.6 208.83, 191.45 209.0, 191.3 209.17, 191.15 209.33, 191.0 209.5, 190.85 209.67, 190.71 209.83, 190.56 210.0, 190.41 210.17, 190.27 210.33, 190.12 210.5, 189.98 210.67, 189.83 210.83, 189.69 211.0, 189.55 211.17, 189.41 211.33, 189.27 211.5, 189.13 211.67, 188.99 211.83, 188.85 212.0, 188.71 212.17, 188.57 212.33, 188.44 212.5, 188.3 212.67, 188.17 212.83, 188.04 213.0, 187.9 213.17, 187.77 213.33, 187.64 213.5, 187.51 213.67, 187.38 213.83, 187.25 214.0, 187.13 214.17, 187.0 214.33, 186.87 214.5, 186.75 214.67, 186.62 214.83, 186.5 215.0, 186.38 215.17, 186.26 215.33, 186.14 215.5, 186.02 215.67, 185.9 215.83, 185.79 216.0, 185.67 216.17, 185.56 216.33, 185.44 216.5, 185.33 216.67, 185.22 216.83, 185.11 217.0, 185.0 217.17, 184.89 217.33, 184.78 217.5, 184.68 217.67, 184.57 217.83, 184.47 218.0, 184.37 218.17, 184.26 218.33, 184.16 218.5, 184.06 218.67, 183.97 218.83, 183.87 219.0, 183.77 219.17, 183.68 219.33, 183.59 219.5, 183.49 219.67, 183.4 219.83, 183.31 220.0, 183.22 220.17, 183.14 220.33, 183.05 220.5, 182.97 220.67, 182.88 220.83, 182.8 221.0, 182.72 221.17, 182.64 221.33, 182.56 221.5, 182.49 221.67, 182.41 221.83, 182.34 222.0, 182.26 222.17, 182.19 222.33, 182.12 222.5, 182.05 222.67, 181.98 222.83, 181.92 223.0, 181.85 223.17, 181.79 223.33, 181.73 223.5, 181.66 223.67, 181.61 223.83, 181.55 224.0, 181.49 224.17, 181.44 224.33, 181.38 224.5, 181.33 224.67, 181.28 224.83, 181.23 225.0, 181.18 225.17, 181.13 225.33, 181.09 225.5, 181.04 225.67, 181.0 225.83, 180.96 226.0, 180.92 226.17, 180.88 226.33, 180.85 226.5, 180.81 226.67, 180.78 226.83, 180.75 227.0, 180.72 227.17, 180.69 227.33, 180.66 227.5, 180.63 227.67, 180.61 227.83, 180.59 228.0, 180.56 228.17, 180.54 228.33, 180.53 228.5, 180.51 228.67, 180.49 228.83, 180.48 229.0, 180.47 229.17, 180.46 229.33, 180.45 229.5, 180.44 229.67, 180.43 229.83, 180.43 230.0, 180.43 230.17, 180.43 230.33, 180.43 230.5, 180.43 230.67, 180.43 230.83, 180.44 231.0, 180.44 231.17, 180.45 231.33, 180.46 231.5, 180.47 231.67, 180.49 231.83, 180.5 232.0, 180.52 232.17, 180.54 232.33, 180.55 232.5, 180.58 232.67, 180.6 232.83, 180.62 233.0, 180.65 233.17, 180.68 233.33, 180.71 233.5, 180.74 233.67, 180.77 233.83, 180.8 234.0, 180.84 234.17, 180.88 234.33, 180.91 234.5, 180.96 234.67, 181.0 234.83, 181.04 235.0, 181.09 235.17, 181.13 235.33, 181.18 235.5, 181.23 235.67, 181.28 235.83, 181.34 236.0, 181.39 236.17, 181.45 236.33, 181.51 236.5, 181.57 236.67, 181.63 236.83, 181.69 237.0, 181.76 237.17, 181.82 237.33, 181.89 237.5, 181.96 237.67, 182.03 237.83, 182.11 238.0, 182.18 238.17, 182.26 238.33, 182.33 238.5, 182.41 238.67, 182.5 238.83, 182.58 239.0, 182.66 239.17, 182.75 239.33, 182.83 239.5, 182.92 239.67, 183.01 239.83, 183.11 240.0, 183.2 240.17, 183.3 240.33, 183.39 240.5, 183.49 240.67, 183.59 240.83, 183.69 241.0, 183.79 241.17, 183.9 241.33, 184.01 241.5, 184.11 241.67, 184.22 241.83, 184.33 242.0, 184.45 242.17, 184.56 242.33, 184.67 242.5, 184.79 242.67, 184.91 242.83, 185.03 243.0, 185.15 243.17, 185.27 243.33, 185.4 243.5, 185.52 243.67, 185.65 243.83, 185.78 244.0, 185.91 244.17, 186.04 244.33, 186.17 244.5, 186.31 244.67, 186.45 244.83, 186.58 245.0, 186.72 245.17, 186.86 245.33, 187.0 245.5, 187.15 245.67, 187.29 245.83, 187.44 246.0, 187.58 246.17, 187.73 246.33, 187.88 246.5, 188.03 246.67, 188.19 246.83, 188.34 247.0, 188.5 247.17, 188.65 247.33, 188.81 247.5, 188.97 247.67, 189.13 247.83, 189.29 248.0, 189.45 248.17, 189.62 248.33, 189.78 248.5, 189.95 248.67, 190.12 248.83, 190.29 249.0, 190.46 249.17, 190.63 249.33, 190.8 249.5, 190.98 249.67, 191.15 249.83, 191.33 250.0, 191.5 250.17, 191.68 250.33, 191.86 250.5, 192.04 250.67, 192.22 250.83, 192.41 251.0, 192.59 251.17, 192.78 251.33, 192.96 251.5, 193.15 251.67, 193.34 251.83, 193.53 252.0, 193.72 252.17, 193.91 252.33, 194.1 252.5, 194.29 252.67, 194.48 252.83, 194.68 253.0, 194.87 253.17, 195.07 253.33, 195.27 253.5, 195.47 253.67, 195.67 253.83, 195.86 254.0, 196.07 254.17, 196.27 254.33, 196.47 254.5, 196.67 254.67, 196.88 254.83, 197.08 255.0, 197.28 255.17, 197.49 255.33, 197.7 255.5, 197.9 255.67, 198.11 255.83, 198.32 256.0, 198.53 256.17, 198.74 256.33, 198.95 256.5, 199.16 256.67, 199.37 256.83, 199.58 257.0, 199.79 257.17, 200.01 257.33, 200.22 257.5, 200.43 257.67, 200.65 257.83, 200.86 258.0, 201.08 258.17, 201.29 258.33, 201.51 258.5, 201.72 258.67, 201.94 258.83, 202.15 259.0, 202.37 259.17, 202.59 259.33, 202.81 259.5, 203.02 259.67, 203.24 259.83, 203.46 260.0, 203.68 260.17, 203.89 260.33, 204.11 260.5, 204.33 260.67, 204.55 260.83, 204.76 261.0, 204.98 261.17, 205.2 261.33, 205.42 261.5, 205.64 261.67, 205.85 261.83, 206.07 262.0, 206.29 262.17, 206.51 262.33, 206.72 262.5, 206.94 262.67, 207.16 262.83, 207.37 263.0, 207.59 263.17, 207.8 263.33, 208.02 263.5, 208.23 263.67, 208.45 263.83, 208.66 264.0, 208.88 264.17, 209.09 264.33, 209.3 264.5, 209.51 264.67, 209.73 264.83, 209.94 265.0, 210.15 265.17, 210.36 265.33, 210.56 265.5, 210.77 265.67, 210.98 265.83, 211.19 266.0, 211.39 266.17, 211.6 266.33, 211.8 266.5, 212.01 266.67, 212.21 266.83, 212.41 267.0, 212.61 267.17, 212.81 267.33, 213.01 267.5, 213.21 267.67, 213.4 267.83, 213.6 268.0, 213.79 268.17, 213.98 268.33, 214.18 268.5, 214.37 268.67, 214.56 268.83, 214.74 269.0, 214.93 269.17, 215.11 269.33, 215.3 269.5, 215.48 269.67, 215.66 269.83, 215.84 270.0, 216.02 270.17, 216.19 270.33, 216.37 270.5, 216.54 270.67, 216.71 270.83, 216.88 271.0, 217.05 271.17, 217.21 271.33, 217.38 271.5, 217.54 271.67, 217.7 271.83, 217.86 272.0, 218.01 272.17, 218.17 272.33, 218.32 272.5, 218.47 272.67, 218.62 272.83, 218.76 273.0, 218.91 273.17, 219.05 273.33, 219.19 273.5, 219.33 273.67, 219.46 273.83, 219.59 274.0, 219.72 274.17, 219.85 274.33, 219.97 274.5, 220.09 274.67, 220.21 274.83, 220.33 275.0, 220.44 275.17, 220.55 275.33, 220.66 275.5, 220.77 275.67, 220.87 275.83, 220.97 276.0, 221.07 276.17, 221.16 276.33, 221.25 276.5, 221.34 276.67, 221.43 276.83, 221.51 277.0, 221.59 277.17, 221.66 277.33, 221.73 277.5, 221.8 277.67, 221.87 277.83, 221.93 278.0, 221.99 278.17, 222.04 278.33, 222.09 278.5, 222.14 278.67, 222.18 278.83, 222.23 279.0, 222.26 279.17, 222.29 279.33, 222.32 279.5, 222.35 279.67, 222.37 279.83, 222.39 280.0, 222.4 280.17, 222.41 280.33, 222.41 280.5, 222.41 280.67, 222.41 280.83, 222.4 281.0, 222.39 281.17, 222.38 281.33, 222.35 281.5, 222.33 281.67, 222.3 281.83, 222.26 282.0, 222.23 282.17, 222.18 282.33, 222.13 282.5, 222.08 282.67, 222.02 282.83, 221.96 283.0, 221.89 283.17, 221.82 283.33, 221.74 283.5, 221.66 283.67, 221.57 283.83, 221.48 284.0, 221.38 284.17, 221.27 284.33, 221.16 284.5, 221.05 284.67, 220.93 284.83, 220.8 285.0, 220.67 285.17, 220.54 285.33, 220.39 285.5, 220.24 285.67, 220.09 285.83, 219.93 286.0, 219.76 286.17, 219.59 286.33, 219.41 286.5, 219.23 286.67, 219.04 286.83, 218.84 287.0, 218.64 287.17, 218.43 287.33, 218.22 287.5, 217.99 287.67, 217.76 287.83, 217.53 288.0, 217.29 288.17, 217.04 288.33, 216.78 288.5, 216.52 288.67, 216.25 288.83, 215.98 289.0, 215.69 289.17, 215.4 289.33, 215.11 289.5, 214.8 289.67, 214.49 289.83, 214.17 290.0, 213.84 290.17, 213.51 290.33, 213.17 290.5, 212.82 290.67, 212.46 290.83, 212.1 291.0, 211.73 291.17, 211.35 291.33, 210.96 291.5, 210.56 291.67, 210.16 291.83, 209.75 292.0, 209.33 292.17, 208.9 292.33, 208.46 292.5, 208.02 292.67, 207.56 292.83, 207.1 293.0, 206.63 293.17, 206.15 293.33, 205.66 293.5, 205.16 293.67, 204.66 293.83, 204.14 294.0, 203.62 294.17, 203.09 294.33, 202.54 294.5, 201.99 294.67, 201.43 294.83, 200.86 295.0, 200.28 295.17, 199.69 295.33, 199.09 295.5, 198.49 295.67, 197.87 295.83, 197.24 296.0, 196.6 296.17, 195.95 296.33, 195.3 296.5, 194.63 296.67, 193.95 296.83, 193.26 297.0, 192.56 297.17, 191.85 297.33, 191.13 297.5, 190.4 297.67, 189.66 297.83, 188.91 298.0, 188.15 298.17, 187.38 298.33, 186.59 298.5, 185.8 298.67, 184.99 298.83, 184.17 299.0, 183.34 299.17, 182.5 299.33, 181.65 299.5, 180.79 299.67, 179.91 299.83, 179.02 300.0, 178.12 300.17, 177.21 300.33, 176.29 300.5, 175.36 300.67, 174.41 300.83, 173.45 301.0, 172.48 301.17, 171.5 301.33, 170.5 301.5, 169.49 301.67, 168.47 301.83, 167.44 302.0, 166.39 302.17, 165.33 302.33, 164.26 302.5, 163.18 302.67, 162.08 302.83, 160.97 303.0, 159.84 303.17, 158.7 303.33, 157.55 303.5, 156.38 303.67, 155.21 303.83, 154.01 304.0, 152.81 304.17, 151.58 304.33, 150.35 304.5, 149.1 304.67, 147.84 304.83, 146.56 305.0, 145.27 305.17, 143.96 305.33, 142.64 305.5, 141.31 305.67, 139.96 305.83, 138.59 306.0, 137.21 306.17, 135.82 306.33, 134.41 306.5, 132.98 306.67, 131.54 306.83, 130.08 307.0, 128.61 307.17, 127.13 307.33, 125.62 307.5, 124.1 307.67, 122.57 307.83, 121.02 308.0, 119.45 308.17, 117.87 308.33, 116.27 308.5, 114.65 308.67, 113.02 308.83, 111.37 309.0, 109.71 309.17, 108.02 309.33, 106.33 309.5, 104.61 309.67, 102.88 309.83, 101.13 310.0, 99.36 310.17, 97.57 310.33, 95.77 310.5, 93.95 310.67, 92.11 310.83, 90.26 311.0, 88.38 311.17, 86.49 311.33, 84.58 311.5, 82.65 311.67, 80.71 311.83, 78.74 312.0, 76.76 312.17, 74.76 312.33, 72.74 312.5, 70.7 312.67, 68.64 312.83, 66.56 313.0, 64.47 313.17, 62.35 313.33, 60.21 313.5, 58.06 313.67, 55.89 313.83, 53.69 314.0, 51.48 314.17, 49.24 314.33, 46.99 314.5, 44.71 314.67, 42.42 314.83, 40.11 315.0, 37.77 315.17, 35.41 315.33, 33.04 315.5, 30.64 315.67, 28.22 315.83, 25.78 316.0, 23.32 316.17, 20.84 316.33, 18.33 316.5, 15.81 316.67, 13.26 316.83, 10.69 317.0, 8.1 317.17, 5.49 317.33, 2.86 317.5, 0.2 317.67, -2.48 317.83, -5.18 318.0, -7.9 318.17, -10.65 318.33, -13.42 318.5, -16.21 318.67, -19.03 318.83, -21.87 319.0, -24.73 319.17, -27.62 319.33, -30.53 319.5, -33.46 319.67, -36.41 319.83, -39.4 320.0, -42.4 320.17, -45.43 320.33, -48.48 320.5, -51.56 320.67, -54.66 320.83, -57.79 321.0, -60.94 321.17, -64.12 321.33, -67.32 321.5, -70.54 321.67, -73.8 321.83, -77.07 322.0, -80.38 322.17, -83.7 322.33, -87.06 322.5, -90.44 322.67, -93.85 322.83, -97.28 323.0, -100.74 323.17, -104.22 323.33, -107.73 323.5, -111.27 323.67, -114.84 323.83, -118.43 324.0, -122.05 324.17, -125.7 324.33, -129.37 324.5, -133.07 324.67, -136.8 324.83, -140.56 325.0, -144.35 325.17, -148.16 325.33, -152.0 325.5, -155.87 325.67, -159.77 325.83, -163.69 326.0, -167.65 326.17, -171.63 326.33, -175.65 326.5, -179.69 326.67, -183.76 326.83, -187.86 327.0, -191.99 327.17, -196.15 327.33, -200.34 327.5, -204.56 327.67, -208.82 327.83, -213.1 328.0, -217.41 328.17, -221.75 328.33, -226.12 328.5, -230.52 328.67, -234.96 328.83, -239.42 329.0, -243.92 329.17, -248.45 329.33, -253.01 329.5, -257.6 329.67, -262.22 329.83, -266.88 330.0, -271.56 330.17, -276.28 330.33, -281.04 330.5, -285.82 330.67, -290.64 330.83, -295.49 331.0, -300.37 331.17, -305.29 331.33, -310.24 331.5, -315.22 331.67, -320.24 331.83, -325.29 332.0, -330.37 332.17, -335.49 332.33, -340.65 332.5, -345.83 332.67, -351.05 332.83, -356.31 333.0, -361.6 333.17, -366.93 333.33, -372.29 333.5, -377.69 333.67, -383.12 333.83, -388.59 334.0, -394.09 334.17, -399.63 334.33, -405.21 334.5, -410.82 334.67, -416.47 334.83, -422.15 335.0, -427.88 335.17, -433.63 335.33, -439.43 335.5, -445.26 335.67, -451.13 335.83, -457.04 336.0, -462.99 336.17, -468.97 336.33, -474.99 336.5, -481.05 336.67, -487.15 336.83, -493.29 337.0, -499.46 337.17, -505.68 337.33, -511.93 337.5, -518.22 337.67, -524.56 337.83, -530.93 338.0, -537.34 338.17, -543.79 338.33, -550.28 338.5, -556.81 338.67, -563.38 338.83, -569.99 339.0, -576.65 339.17, -583.34 339.33, -590.07 339.5, -596.85 339.67, -603.67 339.83, -610.52 340.0, -617.42 340.17, -624.37 340.33, -631.35 340.5, -638.38 340.67, -645.45 340.83, -652.56 341.0, -659.71 341.17, -666.91 341.33, -674.15 341.5, -681.43 341.67, -688.76 341.83, -696.13 342.0, -703.55 342.17, -711.0 342.33, -718.51 342.5, -726.05 342.67, -733.64 342.83, -741.28 343.0, -748.96 343.17, -756.69 343.33, -764.46 343.5, -772.28 343.67, -780.14 343.83, -788.05 344.0, -796.0 344.17, -804.0 344.33, -812.05 344.5, -820.14 344.67, -828.28 344.83, -836.47 345.0, -844.7 345.17, -852.98 345.33, -861.31 345.5, -869.69 345.67, -878.11 345.83, -886.58 346.0, -895.1 346.17, -903.67 346.33, -912.29 346.5, -920.96 346.67, -929.67 346.83, -938.44 347.0, -947.25 347.17, -956.11 347.33, -965.02 347.5, -973.99 347.67, -983.0 347.83, -992.06 348.0, -1001.18 348.17, -1010.34 348.33, -1019.56 348.5, -1028.82 348.67, -1038.14 348.83, -1047.51 349.0, -1056.93 349.17, -1066.4 349.33, -1075.93 349.5, -1085.5 349.67, -1095.13 349.83, -1104.82 350.0, -1114.55 350.17, -1124.34 350.33, -1134.18 350.5, -1144.07 350.67, -1154.02 350.83, -1164.03 351.0, -1174.08 351.17, -1184.19 351.33, -1194.36 351.5, -1204.58 351.67, -1214.85 351.83, -1225.18 352.0, -1235.57 352.17, -1246.01 352.33, -1256.5 352.5, -1267.05 352.67, -1277.66 352.83, -1288.33 353.0, -1299.05 353.17, -1309.83 353.33, -1320.66 353.5, -1331.55 353.67, -1342.5 353.83, -1353.51 354.0, -1364.57 354.17, -1375.7 354.33, -1386.88 354.5, -1398.12 354.67, -1409.41 354.83, -1420.77 355.0, -1432.19 355.17, -1443.66 355.33, -1455.2 355.5, -1466.79 355.67, -1478.44 355.83, -1490.16 356.0, -1501.93 356.17, -1513.77 356.33, -1525.66 356.5, -1537.62 356.67, -1549.64 356.83, -1561.72 357.0, -1573.86 357.17, -1586.06 357.33, -1598.33 357.5, -1610.66 357.67, -1623.05 357.83, -1635.5 358.0, -1648.01 358.17, -1660.59 358.33, -1673.24 358.5, -1685.94 358.67, -1698.71 358.83, -1711.55 359.0, -1724.45 359.17, -1737.41 359.33, -1750.44 359.5, -1763.53 359.67, -1776.69 359.83, -1789.91 360.0, -1803.2 360.17, -1816.56 360.33, -1829.98 360.5, -1843.46 360.67, -1857.02 360.83, -1870.64 361.0, -1884.33 361.17, -1898.08 361.33, -1911.91 361.5, -1925.8 361.67, -1939.76 361.83, -1953.78 362.0, -1967.88 362.17, -1982.04 362.33, -1996.28 362.5, -2010.58 362.67, -2024.95 362.83, -2039.39 363.0, -2053.9 363.17, -2068.49 363.33, -2083.14 363.5, -2097.86 363.67, -2112.65 363.83, -2127.52 364.0, -2142.45 364.17, -2157.46 364.33, -2172.54 364.5, -2187.69 364.67, -2202.92 364.83, -2218.21 365.0, -2233.58 365.17, -2249.02 365.33, -2264.54 365.5, -2280.13 365.67, -2295.79 365.83, -2311.53 366.0, -2327.34 366.17, -2343.22 366.33, -2359.18 366.5, -2375.22 366.67, -2391.33 366.83, -2407.51 367.0, -2423.78 367.17, -2440.11 367.33, -2456.53 367.5, -2473.02 367.67, -2489.58 367.83, -2506.23 368.0, -2522.95 368.17, -2539.75 368.33, -2556.62 368.5, -2573.58 368.67, -2590.61 368.83, -2607.72 369.0, -2624.91 369.17, -2642.18 369.33, -2659.53 369.5, -2676.96 369.67, -2694.47 369.83, -2712.06 370.0, -2729.72 370.17, -2747.47 370.33, -2765.3 370.5, -2783.21 370.67, -2801.21 370.83, -2819.28 371.0, -2837.44 371.17, -2855.67 371.33, -2873.99 371.5, -2892.4 371.67, -2910.88 371.83, -2929.45 372.0, -2948.11 372.17, -2966.84 372.33, -2985.66 372.5, -3004.57 372.67, -3023.56 372.83, -3042.63 373.0, -3061.79 373.17, -3081.04 373.33, -3100.37 373.5, -3119.78 373.67, -3139.29 373.83, -3158.87 374.0, -3178.55 374.17, -3198.31 374.33, -3218.16 374.5, -3238.1 374.67, -3258.13 374.83, -3278.24 375.0, -3298.44 375.17, -3318.73 375.33, -3339.11 375.5, -3359.58 375.67, -3380.14 375.83, -3400.78 376.0, -3421.52 376.17, -3442.35 376.33, -3463.27 376.5, -3484.28 376.67, -3505.38 376.83, -3526.57 377.0, -3547.86 377.17, -3569.23 377.33, -3590.7 377.5, -3612.26 377.67, -3633.91 377.83, -3655.66 378.0, -3677.5 378.17, -3699.43 378.33, -3721.46 378.5, -3743.59 378.67, -3765.8 378.83, -3788.11 379.0, -3810.52 379.17, -3833.02 379.33, -3855.62 379.5, -3878.31 379.67, -3901.1 379.83, -3923.99 380.0, -3946.97 380.17, -3970.06 380.33, -3993.23 380.5, -4016.51 380.67, -4039.88 380.83, -4063.36 381.0, -4086.93 381.17, -4110.6 381.33, -4134.37 381.5, -4158.24 381.67, -4182.21 381.83, -4206.28 382.0, -4230.44 382.17, -4254.72 382.33, -4279.09 382.5, -4303.56 382.67, -4328.13 382.83, -4352.81 383.0, -4377.59 383.17, -4402.47 383.33, -4427.45 383.5, -4452.54 383.67, -4477.73 383.83, -4503.02 384.0, -4528.42 384.17, -4553.93 384.33, -4579.53 384.5, -4605.25 384.67, -4631.06 384.83, -4656.99 385.0, -4683.02 385.17, -4709.15 385.33, -4735.39 385.5, -4761.74 385.67, -4788.2 385.83, -4814.76 386.0, -4841.43 386.17, -4868.21 386.33, -4895.1 386.5, -4922.1 386.67, -4949.2 386.83, -4976.42 387.0, -5003.74 387.17, -5031.18 387.33, -5058.72 387.5, -5086.38 387.67, -5114.15 387.83, -5142.02 388.0, -5170.01 388.17, -5198.12 388.33, -5226.33 388.5, -5254.66 388.67, -5283.09 388.83, -5311.65 389.0, -5340.31 389.17, -5369.09 389.33, -5397.99 389.5, -5426.99 389.67, -5456.12 389.83, -5485.36 390.0, -5514.71 390.17, -5544.18 390.33, -5573.77 390.5, -5603.47 390.67, -5633.29 390.83, -5663.22 391.0, -5693.28 391.17, -5723.45 391.33, -5753.74 391.5, -5784.15 391.67, -5814.67 391.83, -5845.32 392.0, -5876.08 392.17, -5906.97 392.33, -5937.97 392.5, -5969.1 392.67, -6000.35 392.83, -6031.71 393.0, -6063.2 393.17, -6094.81 393.33, -6126.55 393.5, -6158.4 393.67, -6190.38 393.83, -6222.48 394.0, -6254.71 394.17, -6287.06 394.33, -6319.53 394.5, -6352.13 394.67, -6384.85 394.83, -6417.7 395.0, -6450.67 395.17, -6483.77 395.33, -6517.0 395.5, -6550.35 395.67, -6583.83 395.83, -6617.43 396.0, -6651.17 396.17, -6685.03 396.33, -6719.02 396.5, -6753.14 396.67, -6787.39 396.83, -6821.77 397.0, -6856.27 397.17, -6890.91 397.33, -6925.68 397.5, -6960.58 397.67, -6995.61 397.83, -7030.77 398.0, -7066.06 398.17, -7101.49 398.33, -7137.05 398.5, -7172.74 398.67, -7208.56 398.83, -7244.52 399.0, -7280.61 399.17, -7316.84 399.33, -7353.2 399.5, -7389.7 399.67, -7426.33 399.83, -7463.1 400.0, -7500.0 " fill="none" stroke="white" stroke-width="1.5" stroke-linejoin="round" stroke-opacity="1"/>

 </svg>