<svg version="1.1" 
 baseProfile="full" 
 width="400" 
 height="400" 
 xmlns="http://www.w3.org/2000/svg">
<rect x="0.0" y="0.0" width="400" height="400" fill="black" stroke="black" stroke-width="0" opacity="1"/>
<line x1="0.0" y1="0.0" x2="0.0" y2="400.0" stroke="white" stroke-width="1" opacity="0.4" stroke-linecap="butt"/>
<line x1="40.0" y1="0.0" x2="40.0" y2="400.0" stroke="white" stroke-width="1" opacity="0.4" stroke-linecap="butt"/>
<line x1="80.0" y1="0.0" x2="80.0" y2="400.0" stroke="white" stroke-width="1" opacity="0.4" stroke-linecap="butt"/>
<line x1="120.0" y1="0.0" x2="120.0" y2="400.0" stroke="white" stroke-width="1" opacity="0.4" stroke-linecap="butt"/>
<line x1="160.0" y1="0.0" x2="160.0" y2="400.0" stroke="white" stroke-width="1" opacity="0.4" stroke-linecap="butt"/>
<line x1="200.0" y1="0.0" x2="200.0" y2="400.0" stroke="white" stroke-width="1" opacity="0.4" stroke-linecap="butt"/>
<line x1="240.0" y1="0.0" x2="240.0" y2="400.0" stroke="white" stroke-width="1" opacity="0.4" stroke-linecap="butt"/>
<line x1="280.0" y1="0.0" x2="280.0" y2="400.0" stroke="white" stroke-width="1" opacity="0.4" stroke-linecap="butt"/>
<line x1="320.0" y1="0.0" x2="320.0" y2="400.0" stroke="white" stroke-width="1" opacity="0.4" stroke-linecap="butt"/>
<line x1="360.0" y1="0.0" x2="360.0" y2="400.0" stroke="white" stroke-width="1" opacity="0.4" stroke-linecap="butt"/>
<line x1="0.0" y1="0.0" x2="400.0" y2="0.0" stroke="white" stroke-width="1" opacity="0.4" stroke-linecap="butt"/>
<line x1="0.0" y1="40.0" x2="400.0" y2="40.0" stroke="white" stroke-width="1" opacity="0.4" stroke-linecap="butt"/>
<line x1="0.0" y1="80.0" x2="400.0" y2="80.0" stroke="white" stroke-width="1" opacity="0.4" stroke-linecap="butt"/>
<line x1="0.0" y1="120.0" x2="400.0" y2="120.0" stroke="white" stroke-width="1" opacity="0.4" stroke-linecap="butt"/>
<line x1="0.0" y1="160.0" x2="400.0" y2="160.0" stroke="white" stroke-width="1" opacity="0.4" stroke-linecap="butt"/>
<line x1="0.0" y1="200.0" x2="400.0" y2="200.0" stroke="white" stroke-width="1" opacity="0.4" stroke-linecap="butt"/>
<line x1="0.0" y1="240.0" x2="400.0" y2="240.0" stroke="white" stroke-width="1" opacity="0.4" stroke-linecap="butt"/>
<line x1="0.0" y1="280.0" x2="400.0" y2="280.0" stroke="white" stroke-width="1" opacity="0.4" stroke-linecap="butt"/>
<line x1="0.0" y1="320.0" x2="400.0" y2="320.0" stroke="white" stroke-width="1" opacity="0.4" stroke-linecap="butt"/>
<line x1="0.0" y1="360.0" x2="400.0" y2="360.0" stroke="white" stroke-width="1" opacity="0.4" stroke-linecap="butt"/>
<line x1="0.0" y1="200.0" x2="400.0" y2="200.0" stroke="yellow" stroke-width="2.5" opacity="1" stroke-linecap="butt"/>
<line x1="200.0" y1="0.0" x2="200.0" y2="400.0" stroke="yellow" stroke-width="2.5" opacity="1" stroke-linecap="butt"/>
<polygon points="391.0 204.0, 401.0 200.0, 391.0 196.0, 393.0 200.0" fill="yellow"/><polygon points="204.0 9.0, 200.0 -1.0, 196.0 9.0, 200.0 7.0" fill="yellow"/><image x="-60.0" y="-60.0" width="200" height="200" href="/Users/girirajhira/PycharmProjects/Giraphics3/Taylor/expr.png"/><polyline points="0.0, 11441.67 0.17, 11390.03 0.33, 11338.58 0.5, 11287.31 0.67, 11236.23 0.83, 11185.33 1.0, 11134.62 1.17, 11084.09 1.33, 11033.74 1.5, 10983.57 1.67, 10933.58 1.83, 10883.78 2.0, 10834.15 2.17, 10784.71 2.33, 10735.44 2.5, 10686.36 2.67, 10637.45 2.83, 10588.72 3.0, 10540.17 3.17, 10491.79 3.33, 10443.59 3.5, 10395.57 3.67, 10347.72 3.83, 10300.05 4.0, 10252.55 4.17, 10205.23 4.33, 10158.08 4.5, 10111.11 4.67, 10064.31 4.83, 10017.68 5.0, 9971.22 5.17, 9924.93 5.33, 9878.82 5.5, 9832.87 5.67, 9787.1 5.83, 9741.49 6.0, 9696.06 6.17, 9650.79 6.33, 9605.69 6.5, 9560.76 6.67, 9516.0 6.83, 9471.4 7.0, 9426.97 7.17, 9382.71 7.33, 9338.61 7.5, 9294.68 7.67, 9250.91 7.83, 9207.3 8.0, 9163.86 8.17, 9120.59 8.33, 9077.47 8.5, 9034.52 8.67, 8991.73 8.83, 8949.1 9.0, 8906.63 9.17, 8864.33 9.33, 8822.18 9.5, 8780.19 9.67, 8738.36 9.83, 8696.69 10.0, 8655.18 10.17, 8613.83 10.33, 8572.64 10.5, 8531.6 10.67, 8490.72 10.83, 8449.99 11.0, 8409.42 11.17, 8369.01 11.33, 8328.75 11.5, 8288.65 11.67, 8248.7 11.83, 8208.9 12.0, 8169.26 12.17, 8129.77 12.33, 8090.43 12.5, 8051.24 12.67, 8012.21 12.83, 7973.32 13.0, 7934.59 13.17, 7896.01 13.33, 7857.57 13.5, 7819.29 13.67, 7781.15 13.83, 7743.17 14.0, 7705.33 14.17, 7667.64 14.33, 7630.1 14.5, 7592.7 14.67, 7555.45 14.83, 7518.35 15.0, 7481.39 15.17, 7444.57 15.33, 7407.91 15.5, 7371.38 15.67, 7335.0 15.83, 7298.76 16.0, 7262.67 16.17, 7226.72 16.33, 7190.91 16.5, 7155.24 16.67, 7119.72 16.83, 7084.33 17.0, 7049.09 17.17, 7013.99 17.33, 6979.02 17.5, 6944.2 17.67, 6909.51 17.83, 6874.97 18.0, 6840.56 18.17, 6806.29 18.33, 6772.16 18.5, 6738.16 18.67, 6704.3 18.83, 6670.58 19.0, 6636.99 19.17, 6603.54 19.33, 6570.22 19.5, 6537.04 19.67, 6503.99 19.83, 6471.07 20.0, 6438.29 20.17, 6405.65 20.33, 6373.13 20.5, 6340.75 20.67, 6308.5 20.83, 6276.38 21.0, 6244.39 21.17, 6212.53 21.33, 6180.8 21.5, 6149.21 21.67, 6117.74 21.83, 6086.4 22.0, 6055.19 22.17, 6024.11 22.33, 5993.15 22.5, 5962.33 22.67, 5931.63 22.83, 5901.06 23.0, 5870.61 23.17, 5840.29 23.33, 5810.1 23.5, 5780.03 23.67, 5750.09 23.83, 5720.27 24.0, 5690.57 24.17, 5661.0 24.33, 5631.55 24.5, 5602.23 24.67, 5573.03 24.83, 5543.95 25.0, 5514.99 25.17, 5486.16 25.33, 5457.44 25.5, 5428.85 25.67, 5400.38 25.83, 5372.02 26.0, 5343.79 26.17, 5315.68 26.33, 5287.68 26.5, 5259.81 26.67, 5232.05 26.83, 5204.41 27.0, 5176.89 27.17, 5149.48 27.33, 5122.19 27.5, 5095.02 27.67, 5067.97 27.83, 5041.03 28.0, 5014.2 28.17, 4987.49 28.33, 4960.9 28.5, 4934.42 28.67, 4908.05 28.83, 4881.8 29.0, 4855.66 29.17, 4829.63 29.33, 4803.72 29.5, 4777.92 29.67, 4752.23 29.83, 4726.65 30.0, 4701.18 30.17, 4675.82 30.33, 4650.58 30.5, 4625.44 30.67, 4600.42 30.83, 4575.5 31.0, 4550.69 31.17, 4525.99 31.33, 4501.4 31.5, 4476.92 31.67, 4452.54 31.83, 4428.28 32.0, 4404.12 32.17, 4380.06 32.33, 4356.12 32.5, 4332.27 32.67, 4308.54 32.83, 4284.91 33.0, 4261.38 33.17, 4237.96 33.33, 4214.64 33.5, 4191.43 33.67, 4168.32 33.83, 4145.32 34.0, 4122.41 34.17, 4099.61 34.33, 4076.92 34.5, 4054.32 34.67, 4031.83 34.83, 4009.43 35.0, 3987.14 35.17, 3964.95 35.33, 3942.86 35.5, 3920.87 35.67, 3898.98 35.83, 3877.18 36.0, 3855.49 36.17, 3833.9 36.33, 3812.4 36.5, 3791.0 36.67, 3769.7 36.83, 3748.5 37.0, 3727.4 37.17, 3706.39 37.33, 3685.47 37.5, 3664.66 37.67, 3643.94 37.83, 3623.31 38.0, 3602.78 38.17, 3582.35 38.33, 3562.01 38.5, 3541.76 38.67, 3521.61 38.83, 3501.55 39.0, 3481.58 39.17, 3461.71 39.33, 3441.93 39.5, 3422.24 39.67, 3402.65 39.83, 3383.15 40.0, 3363.73 40.17, 3344.41 40.33, 3325.18 40.5, 3306.04 40.67, 3286.99 40.83, 3268.03 41.0, 3249.16 41.17, 3230.38 41.33, 3211.69 41.5, 3193.09 41.67, 3174.57 41.83, 3156.14 42.0, 3137.81 42.17, 3119.55 42.33, 3101.39 42.5, 3083.31 42.67, 3065.32 42.83, 3047.42 43.0, 3029.6 43.17, 3011.86 43.33, 2994.22 43.5, 2976.65 43.67, 2959.18 43.83, 2941.78 44.0, 2924.47 44.17, 2907.25 44.33, 2890.11 44.5, 2873.05 44.67, 2856.07 44.83, 2839.18 45.0, 2822.37 45.17, 2805.64 45.33, 2789.0 45.5, 2772.43 45.67, 2755.95 45.83, 2739.55 46.0, 2723.23 46.17, 2706.98 46.33, 2690.82 46.5, 2674.74 46.67, 2658.74 46.83, 2642.82 47.0, 2626.98 47.17, 2611.21 47.33, 2595.53 47.5, 2579.92 47.67, 2564.39 47.83, 2548.94 48.0, 2533.56 48.17, 2518.27 48.33, 2503.05 48.5, 2487.9 48.67, 2472.83 48.83, 2457.84 49.0, 2442.93 49.17, 2428.09 49.33, 2413.32 49.5, 2398.63 49.67, 2384.01 49.83, 2369.47 50.0, 2355.0 50.17, 2340.61 50.33, 2326.29 50.5, 2312.04 50.67, 2297.87 50.83, 2283.77 51.0, 2269.74 51.17, 2255.78 51.33, 2241.9 51.5, 2228.09 51.67, 2214.35 51.83, 2200.67 52.0, 2187.08 52.17, 2173.55 52.33, 2160.09 52.5, 2146.7 52.67, 2133.38 52.83, 2120.13 53.0, 2106.95 53.17, 2093.84 53.33, 2080.8 53.5, 2067.83 53.67, 2054.92 53.83, 2042.09 54.0, 2029.32 54.17, 2016.62 54.33, 2003.98 54.5, 1991.41 54.67, 1978.91 54.83, 1966.48 55.0, 1954.11 55.17, 1941.81 55.33, 1929.57 55.5, 1917.4 55.67, 1905.3 55.83, 1893.26 56.0, 1881.28 56.17, 1869.37 56.33, 1857.53 56.5, 1845.74 56.67, 1834.03 56.83, 1822.37 57.0, 1810.78 57.17, 1799.25 57.33, 1787.78 57.5, 1776.38 57.67, 1765.04 57.83, 1753.76 58.0, 1742.54 58.17, 1731.39 58.33, 1720.29 58.5, 1709.26 58.67, 1698.29 58.83, 1687.38 59.0, 1676.52 59.17, 1665.73 59.33, 1655.0 59.5, 1644.33 59.67, 1633.72 59.83, 1623.17 60.0, 1612.67 60.17, 1602.24 60.33, 1591.86 60.5, 1581.54 60.67, 1571.28 60.83, 1561.08 61.0, 1550.94 61.17, 1540.85 61.33, 1530.82 61.5, 1520.85 61.67, 1510.93 61.83, 1501.07 62.0, 1491.27 62.17, 1481.52 62.33, 1471.83 62.5, 1462.19 62.67, 1452.61 62.83, 1443.08 63.0, 1433.61 63.17, 1424.19 63.33, 1414.83 63.5, 1405.52 63.67, 1396.27 63.83, 1387.07 64.0, 1377.92 64.17, 1368.83 64.33, 1359.79 64.5, 1350.8 64.67, 1341.87 64.83, 1332.99 65.0, 1324.16 65.17, 1315.38 65.33, 1306.65 65.5, 1297.98 65.67, 1289.35 65.83, 1280.78 66.0, 1272.26 66.17, 1263.79 66.33, 1255.37 66.5, 1247.0 66.67, 1238.68 66.83, 1230.41 67.0, 1222.19 67.17, 1214.02 67.33, 1205.9 67.5, 1197.83 67.67, 1189.81 67.83, 1181.83 68.0, 1173.91 68.17, 1166.03 68.33, 1158.2 68.5, 1150.42 68.67, 1142.68 68.83, 1135.0 69.0, 1127.36 69.17, 1119.77 69.33, 1112.22 69.5, 1104.72 69.67, 1097.27 69.83, 1089.86 70.0, 1082.5 70.17, 1075.19 70.33, 1067.92 70.5, 1060.69 70.67, 1053.51 70.83, 1046.38 71.0, 1039.29 71.17, 1032.25 71.33, 1025.25 71.5, 1018.29 71.67, 1011.38 71.83, 1004.51 72.0, 997.69 72.17, 990.91 72.33, 984.17 72.5, 977.48 72.67, 970.83 72.83, 964.22 73.0, 957.65 73.17, 951.13 73.33, 944.65 73.5, 938.21 73.67, 931.81 73.83, 925.45 74.0, 919.14 74.17, 912.86 74.33, 906.63 74.5, 900.44 74.67, 894.29 74.83, 888.18 75.0, 882.1 75.17, 876.07 75.33, 870.08 75.5, 864.13 75.67, 858.22 75.83, 852.35 76.0, 846.51 76.17, 840.72 76.33, 834.96 76.5, 829.25 76.67, 823.57 76.83, 817.93 77.0, 812.33 77.17, 806.76 77.33, 801.24 77.5, 795.75 77.67, 790.3 77.83, 784.88 78.0, 779.5 78.17, 774.16 78.33, 768.86 78.5, 763.59 78.67, 758.36 78.83, 753.17 79.0, 748.01 79.17, 742.88 79.33, 737.8 79.5, 732.74 79.67, 727.73 79.83, 722.75 80.0, 717.8 80.17, 712.89 80.33, 708.01 80.5, 703.17 80.67, 698.36 80.83, 693.59 81.0, 688.85 81.17, 684.14 81.33, 679.47 81.5, 674.83 81.67, 670.22 81.83, 665.65 82.0, 661.11 82.17, 656.6 82.33, 652.13 82.5, 647.68 82.67, 643.27 82.83, 638.9 83.0, 634.55 83.17, 630.24 83.33, 625.95 83.5, 621.7 83.67, 617.48 83.83, 613.3 84.0, 609.14 84.17, 605.01 84.33, 600.92 84.5, 596.85 84.67, 592.82 84.83, 588.82 85.0, 584.84 85.17, 580.9 85.33, 576.98 85.5, 573.1 85.67, 569.24 85.83, 565.42 86.0, 561.62 86.17, 557.86 86.33, 554.12 86.5, 550.41 86.67, 546.73 86.83, 543.07 87.0, 539.45 87.17, 535.85 87.33, 532.29 87.5, 528.75 87.67, 525.23 87.83, 521.75 88.0, 518.29 88.17, 514.86 88.33, 511.46 88.5, 508.08 88.67, 504.73 88.83, 501.41 89.0, 498.11 89.17, 494.84 89.33, 491.6 89.5, 488.38 89.67, 485.19 89.83, 482.03 90.0, 478.89 90.17, 475.77 90.33, 472.69 90.5, 469.62 90.67, 466.58 90.83, 463.57 91.0, 460.58 91.17, 457.62 91.33, 454.68 91.5, 451.77 91.67, 448.88 91.83, 446.01 92.0, 443.17 92.17, 440.35 92.33, 437.56 92.5, 434.79 92.67, 432.04 92.83, 429.32 93.0, 426.62 93.17, 423.94 93.33, 421.29 93.5, 418.66 93.67, 416.05 93.83, 413.46 94.0, 410.9 94.17, 408.36 94.33, 405.84 94.5, 403.34 94.67, 400.87 94.83, 398.42 95.0, 395.99 95.17, 393.58 95.33, 391.19 95.5, 388.82 95.67, 386.48 95.83, 384.15 96.0, 381.85 96.17, 379.57 96.33, 377.31 96.5, 375.07 96.67, 372.84 96.83, 370.64 97.0, 368.46 97.17, 366.3 97.33, 364.17 97.5, 362.05 97.67, 359.95 97.83, 357.86 98.0, 355.8 98.17, 353.76 98.33, 351.74 98.5, 349.74 98.67, 347.75 98.83, 345.79 99.0, 343.84 99.17, 341.91 99.33, 340.0 99.5, 338.11 99.67, 336.24 99.83, 334.39 100.0, 332.55 100.17, 330.73 100.33, 328.93 100.5, 327.15 100.67, 325.39 100.83, 323.64 101.0, 321.91 101.17, 320.2 101.33, 318.5 101.5, 316.83 101.67, 315.17 101.83, 313.52 102.0, 311.89 102.17, 310.28 102.33, 308.69 102.5, 307.11 102.67, 305.55 102.83, 304.01 103.0, 302.48 103.17, 300.97 103.33, 299.47 103.5, 297.99 103.67, 296.52 103.83, 295.07 104.0, 293.64 104.17, 292.22 104.33, 290.82 104.5, 289.43 104.67, 288.06 104.83, 286.7 105.0, 285.36 105.17, 284.03 105.33, 282.72 105.5, 281.42 105.67, 280.13 105.83, 278.86 106.0, 277.61 106.17, 276.37 106.33, 275.14 106.5, 273.92 106.67, 272.73 106.83, 271.54 107.0, 270.37 107.17, 269.21 107.33, 268.06 107.5, 266.93 107.67, 265.81 107.83, 264.71 108.0, 263.62 108.17, 262.54 108.33, 261.47 108.5, 260.42 108.67, 259.38 108.83, 258.35 109.0, 257.34 109.17, 256.34 109.33, 255.35 109.5, 254.37 109.67, 253.4 109.83, 252.45 110.0, 251.51 110.17, 250.58 110.33, 249.66 110.5, 248.76 110.67, 247.86 110.83, 246.98 111.0, 246.11 111.17, 245.25 111.33, 244.4 111.5, 243.56 111.67, 242.74 111.83, 241.92 112.0, 241.12 112.17, 240.33 112.33, 239.55 112.5, 238.77 112.67, 238.01 112.83, 237.26 113.0, 236.52 113.17, 235.79 113.33, 235.08 113.5, 234.37 113.67, 233.67 113.83, 232.98 114.0, 232.3 114.17, 231.63 114.33, 230.97 114.5, 230.32 114.67, 229.69 114.83, 229.06 115.0, 228.44 115.17, 227.82 115.33, 227.22 115.5, 226.63 115.67, 226.05 115.83, 225.47 116.0, 224.91 116.17, 224.35 116.33, 223.81 116.5, 223.27 116.67, 222.74 116.83, 222.22 117.0, 221.7 117.17, 221.2 117.33, 220.71 117.5, 220.22 117.67, 219.74 117.83, 219.27 118.0, 218.81 118.17, 218.35 118.33, 217.91 118.5, 217.47 118.67, 217.04 118.83, 216.61 119.0, 216.2 119.17, 215.79 119.33, 215.39 119.5, 215.0 119.67, 214.61 119.83, 214.24 120.0, 213.87 120.17, 213.5 120.33, 213.15 120.5, 212.8 120.67, 212.46 120.83, 212.12 121.0, 211.79 121.17, 211.47 121.33, 211.16 121.5, 210.85 121.67, 210.55 121.83, 210.26 122.0, 209.97 122.17, 209.69 122.33, 209.41 122.5, 209.14 122.67, 208.88 122.83, 208.62 123.0, 208.37 123.17, 208.13 123.33, 207.89 123.5, 207.66 123.67, 207.43 123.83, 207.21 124.0, 206.99 124.17, 206.78 124.33, 206.58 124.5, 206.38 124.67, 206.19 124.83, 206.0 125.0, 205.82 125.17, 205.64 125.33, 205.47 125.5, 205.31 125.67, 205.15 125.83, 204.99 126.0, 204.84 126.17, 204.69 126.33, 204.55 126.5, 204.42 126.67, 204.28 126.83, 204.16 127.0, 204.04 127.17, 203.92 127.33, 203.81 127.5, 203.7 127.67, 203.59 127.83, 203.49 128.0, 203.4 128.17, 203.31 128.33, 203.22 128.5, 203.14 128.67, 203.06 128.83, 202.99 129.0, 202.92 129.17, 202.85 129.33, 202.79 129.5, 202.73 129.67, 202.68 129.83, 202.63 130.0, 202.58 130.17, 202.54 130.33, 202.5 130.5, 202.47 130.67, 202.43 130.83, 202.41 131.0, 202.38 131.17, 202.36 131.33, 202.34 131.5, 202.33 131.67, 202.31 131.83, 202.31 132.0, 202.3 132.17, 202.3 132.33, 202.3 132.5, 202.3 132.67, 202.31 132.83, 202.32 133.0, 202.33 133.17, 202.35 133.33, 202.37 133.5, 202.39 133.67, 202.41 133.83, 202.44 134.0, 202.47 134.17, 202.5 134.33, 202.53 134.5, 202.57 134.67, 202.61 134.83, 202.65 135.0, 202.7 135.17, 202.74 135.33, 202.79 135.5, 202.84 135.67, 202.89 135.83, 202.95 136.0, 203.01 136.17, 203.07 136.33, 203.13 136.5, 203.19 136.67, 203.26 136.83, 203.33 137.0, 203.4 137.17, 203.47 137.33, 203.54 137.5, 203.62 137.67, 203.69 137.83, 203.77 138.0, 203.85 138.17, 203.93 138.33, 204.02 138.5, 204.1 138.67, 204.19 138.83, 204.28 139.0, 204.37 139.17, 204.46 139.33, 204.55 139.5, 204.64 139.67, 204.74 139.83, 204.83 140.0, 204.93 140.17, 205.03 140.33, 205.13 140.5, 205.23 140.67, 205.33 140.83, 205.44 141.0, 205.54 141.17, 205.65 141.33, 205.75 141.5, 205.86 141.67, 205.97 141.83, 206.08 142.0, 206.19 142.17, 206.3 142.33, 206.41 142.5, 206.52 142.67, 206.64 142.83, 206.75 143.0, 206.87 143.17, 206.98 143.33, 207.1 143.5, 207.21 143.67, 207.33 143.83, 207.45 144.0, 207.57 144.17, 207.69 144.33, 207.8 144.5, 207.92 144.67, 208.04 144.83, 208.16 145.0, 208.29 145.17, 208.41 145.33, 208.53 145.5, 208.65 145.67, 208.77 145.83, 208.89 146.0, 209.02 146.17, 209.14 146.33, 209.26 146.5, 209.38 146.67, 209.51 146.83, 209.63 147.0, 209.75 147.17, 209.88 147.33, 210.0 147.5, 210.12 147.67, 210.25 147.83, 210.37 148.0, 210.49 148.17, 210.62 148.33, 210.74 148.5, 210.86 148.67, 210.98 148.83, 211.11 149.0, 211.23 149.17, 211.35 149.33, 211.47 149.5, 211.59 149.67, 211.71 149.83, 211.83 150.0, 211.95 150.17, 212.07 150.33, 212.19 150.5, 212.31 150.67, 212.43 150.83, 212.55 151.0, 212.67 151.17, 212.79 151.33, 212.9 151.5, 213.02 151.67, 213.14 151.83, 213.25 152.0, 213.37 152.17, 213.48 152.33, 213.59 152.5, 213.71 152.67, 213.82 152.83, 213.93 153.0, 214.04 153.17, 214.15 153.33, 214.26 153.5, 214.37 153.67, 214.48 153.83, 214.59 154.0, 214.7 154.17, 214.8 154.33, 214.91 154.5, 215.01 154.67, 215.12 154.83, 215.22 155.0, 215.32 155.17, 215.42 155.33, 215.52 155.5, 215.62 155.67, 215.72 155.83, 215.82 156.0, 215.92 156.17, 216.01 156.33, 216.11 156.5, 216.2 156.67, 216.29 156.83, 216.38 157.0, 216.48 157.17, 216.57 157.33, 216.66 157.5, 216.74 157.67, 216.83 157.83, 216.92 158.0, 217.0 158.17, 217.08 158.33, 217.17 158.5, 217.25 158.67, 217.33 158.83, 217.41 159.0, 217.49 159.17, 217.56 159.33, 217.64 159.5, 217.72 159.67, 217.79 159.83, 217.86 160.0, 217.93 160.17, 218.0 160.33, 218.07 160.5, 218.14 160.67, 218.21 160.83, 218.27 161.0, 218.34 161.17, 218.4 161.33, 218.46 161.5, 218.52 161.67, 218.58 161.83, 218.64 162.0, 218.7 162.17, 218.75 162.33, 218.81 162.5, 218.86 162.67, 218.91 162.83, 218.96 163.0, 219.01 163.17, 219.06 163.33, 219.1 163.5, 219.15 163.67, 219.19 163.83, 219.24 164.0, 219.28 164.17, 219.32 164.33, 219.35 164.5, 219.39 164.67, 219.43 164.83, 219.46 165.0, 219.49 165.17, 219.53 165.33, 219.56 165.5, 219.59 165.67, 219.61 165.83, 219.64 166.0, 219.66 166.17, 219.69 166.33, 219.71 166.5, 219.73 166.67, 219.75 166.83, 219.77 167.0, 219.78 167.17, 219.8 167.33, 219.81 167.5, 219.83 167.67, 219.84 167.83, 219.85 168.0, 219.85 168.17, 219.86 168.33, 219.87 168.5, 219.87 168.67, 219.87 168.83, 219.87 169.0, 219.87 169.17, 219.87 169.33, 219.87 169.5, 219.86 169.67, 219.86 169.83, 219.85 170.0, 219.84 170.17, 219.83 170.33, 219.82 170.5, 219.81 170.67, 219.79 170.83, 219.78 171.0, 219.76 171.17, 219.74 171.33, 219.72 171.5, 219.7 171.67, 219.68 171.83, 219.65 172.0, 219.63 172.17, 219.6 172.33, 219.57 172.5, 219.54 172.67, 219.51 172.83, 219.48 173.0, 219.44 173.17, 219.41 173.33, 219.37 173.5, 219.33 173.67, 219.29 173.83, 219.25 174.0, 219.21 174.17, 219.17 174.33, 219.12 174.5, 219.08 174.67, 219.03 174.83, 218.98 175.0, 218.93 175.17, 218.88 175.33, 218.82 175.5, 218.77 175.67, 218.71 175.83, 218.66 176.0, 218.6 176.17, 218.54 176.33, 218.48 176.5, 218.41 176.67, 218.35 176.83, 218.29 177.0, 218.22 177.17, 218.15 177.33, 218.08 177.5, 218.01 177.67, 217.94 177.83, 217.87 178.0, 217.79 178.17, 217.72 178.33, 217.64 178.5, 217.57 178.67, 217.49 178.83, 217.41 179.0, 217.32 179.17, 217.24 179.33, 217.16 179.5, 217.07 179.67, 216.99 179.83, 216.9 180.0, 216.81 180.17, 216.72 180.33, 216.63 180.5, 216.54 180.67, 216.44 180.83, 216.35 181.0, 216.25 181.17, 216.16 181.33, 216.06 181.5, 215.96 181.67, 215.86 181.83, 215.76 182.0, 215.65 182.17, 215.55 182.33, 215.45 182.5, 215.34 182.67, 215.23 182.83, 215.13 183.0, 215.02 183.17, 214.91 183.33, 214.8 183.5, 214.68 183.67, 214.57 183.83, 214.46 184.0, 214.34 184.17, 214.22 184.33, 214.11 184.5, 213.99 184.67, 213.87 184.83, 213.75 185.0, 213.63 185.17, 213.51 185.33, 213.38 185.5, 213.26 185.67, 213.13 185.83, 213.01 186.0, 212.88 186.17, 212.75 186.33, 212.62 186.5, 212.49 186.67, 212.36 186.83, 212.23 187.0, 212.1 187.17, 211.97 187.33, 211.83 187.5, 211.7 187.67, 211.56 187.83, 211.43 188.0, 211.29 188.17, 211.15 188.33, 211.01 188.5, 210.88 188.67, 210.74 188.83, 210.59 189.0, 210.45 189.17, 210.31 189.33, 210.17 189.5, 210.02 189.67, 209.88 189.83, 209.73 190.0, 209.59 190.17, 209.44 190.33, 209.29 190.5, 209.15 190.67, 209.0 190.83, 208.85 191.0, 208.7 191.17, 208.55 191.33, 208.4 191.5, 208.25 191.67, 208.09 191.83, 207.94 192.0, 207.79 192.17, 207.63 192.33, 207.48 192.5, 207.33 192.67, 207.17 192.83, 207.01 193.0, 206.86 193.17, 206.7 193.33, 206.54 193.5, 206.39 193.67, 206.23 193.83, 206.07 194.0, 205.91 194.17, 205.75 194.33, 205.59 194.5, 205.43 194.67, 205.27 194.83, 205.11 195.0, 204.95 195.17, 204.79 195.33, 204.62 195.5, 204.46 195.67, 204.3 195.83, 204.14 196.0, 203.97 196.17, 203.81 196.33, 203.65 196.5, 203.48 196.67, 203.32 196.83, 203.15 197.0, 202.99 197.17, 202.82 197.33, 202.66 197.5, 202.49 197.67, 202.33 197.83, 202.16 198.0, 202.0 198.17, 201.83 198.33, 201.66 198.5, 201.5 198.67, 201.33 198.83, 201.17 199.0, 201.0 199.17, 200.83 199.33, 200.67 199.5, 200.5 199.67, 200.33 199.83, 200.17 200.0, 200.0 200.17, 199.83 200.33, 199.67 200.5, 199.5 200.67, 199.33 200.83, 199.17 201.0, 199.0 201.17, 198.83 201.33, 198.67 201.5, 198.5 201.67, 198.34 201.83, 198.17 202.0, 198.0 202.17, 197.84 202.33, 197.67 202.5, 197.51 202.67, 197.34 202.83, 197.18 203.0, 197.01 203.17, 196.85 203.33, 196.68 203.5, 196.52 203.67, 196.35 203.83, 196.19 204.0, 196.03 204.17, 195.86 204.33, 195.7 204.5, 195.54 204.67, 195.38 204.83, 195.21 205.0, 195.05 205.17, 194.89 205.33, 194.73 205.5, 194.57 205.67, 194.41 205.83, 194.25 206.0, 194.09 206.17, 193.93 206.33, 193.77 206.5, 193.61 206.67, 193.46 206.83, 193.3 207.0, 193.14 207.17, 192.99 207.33, 192.83 207.5, 192.67 207.67, 192.52 207.83, 192.37 208.0, 192.21 208.17, 192.06 208.33, 191.91 208.5, 191.75 208.67, 191.6 208.83, 191.45 209.0, 191.3 209.17, 191.15 209.33, 191.0 209.5, 190.85 209.67, 190.71 209.83, 190.56 210.0, 190.41 210.17, 190.27 210.33, 190.12 210.5, 189.98 210.67, 189.83 210.83, 189.69 211.0, 189.55 211.17, 189.41 211.33, 189.26 211.5, 189.12 211.67, 188.99 211.83, 188.85 212.0, 188.71 212.17, 188.57 212.33, 188.44 212.5, 188.3 212.67, 188.17 212.83, 188.03 213.0, 187.9 213.17, 187.77 213.33, 187.64 213.5, 187.51 213.67, 187.38 213.83, 187.25 214.0, 187.12 214.17, 186.99 214.33, 186.87 214.5, 186.74 214.67, 186.62 214.83, 186.49 215.0, 186.37 215.17, 186.25 215.33, 186.13 215.5, 186.01 215.67, 185.89 215.83, 185.78 216.0, 185.66 216.17, 185.54 216.33, 185.43 216.5, 185.32 216.67, 185.2 216.83, 185.09 217.0, 184.98 217.17, 184.87 217.33, 184.77 217.5, 184.66 217.67, 184.55 217.83, 184.45 218.0, 184.35 218.17, 184.24 218.33, 184.14 218.5, 184.04 218.67, 183.94 218.83, 183.84 219.0, 183.75 219.17, 183.65 219.33, 183.56 219.5, 183.46 219.67, 183.37 219.83, 183.28 220.0, 183.19 220.17, 183.1 220.33, 183.01 220.5, 182.93 220.67, 182.84 220.83, 182.76 221.0, 182.68 221.17, 182.59 221.33, 182.51 221.5, 182.43 221.67, 182.36 221.83, 182.28 222.0, 182.21 222.17, 182.13 222.33, 182.06 222.5, 181.99 222.67, 181.92 222.83, 181.85 223.0, 181.78 223.17, 181.71 223.33, 181.65 223.5, 181.59 223.67, 181.52 223.83, 181.46 224.0, 181.4 224.17, 181.34 224.33, 181.29 224.5, 181.23 224.67, 181.18 224.83, 181.12 225.0, 181.07 225.17, 181.02 225.33, 180.97 225.5, 180.92 225.67, 180.88 225.83, 180.83 226.0, 180.79 226.17, 180.75 226.33, 180.71 226.5, 180.67 226.67, 180.63 226.83, 180.59 227.0, 180.56 227.17, 180.52 227.33, 180.49 227.5, 180.46 227.67, 180.43 227.83, 180.4 228.0, 180.37 228.17, 180.35 228.33, 180.32 228.5, 180.3 228.67, 180.28 228.83, 180.26 229.0, 180.24 229.17, 180.22 229.33, 180.21 229.5, 180.19 229.67, 180.18 229.83, 180.17 230.0, 180.16 230.17, 180.15 230.33, 180.14 230.5, 180.14 230.67, 180.13 230.83, 180.13 231.0, 180.13 231.17, 180.13 231.33, 180.13 231.5, 180.13 231.67, 180.13 231.83, 180.14 232.0, 180.15 232.17, 180.15 232.33, 180.16 232.5, 180.17 232.67, 180.19 232.83, 180.2 233.0, 180.22 233.17, 180.23 233.33, 180.25 233.5, 180.27 233.67, 180.29 233.83, 180.31 234.0, 180.34 234.17, 180.36 234.33, 180.39 234.5, 180.41 234.67, 180.44 234.83, 180.47 235.0, 180.51 235.17, 180.54 235.33, 180.57 235.5, 180.61 235.67, 180.65 235.83, 180.68 236.0, 180.72 236.17, 180.76 236.33, 180.81 236.5, 180.85 236.67, 180.9 236.83, 180.94 237.0, 180.99 237.17, 181.04 237.33, 181.09 237.5, 181.14 237.67, 181.19 237.83, 181.25 238.0, 181.3 238.17, 181.36 238.33, 181.42 238.5, 181.48 238.67, 181.54 238.83, 181.6 239.0, 181.66 239.17, 181.73 239.33, 181.79 239.5, 181.86 239.67, 181.93 239.83, 182.0 240.0, 182.07 240.17, 182.14 240.33, 182.21 240.5, 182.28 240.67, 182.36 240.83, 182.44 241.0, 182.51 241.17, 182.59 241.33, 182.67 241.5, 182.75 241.67, 182.83 241.83, 182.92 242.0, 183.0 242.17, 183.08 242.33, 183.17 242.5, 183.26 242.67, 183.34 242.83, 183.43 243.0, 183.52 243.17, 183.62 243.33, 183.71 243.5, 183.8 243.67, 183.89 243.83, 183.99 244.0, 184.08 244.17, 184.18 244.33, 184.28 244.5, 184.38 244.67, 184.48 244.83, 184.58 245.0, 184.68 245.17, 184.78 245.33, 184.88 245.5, 184.99 245.67, 185.09 245.83, 185.2 246.0, 185.3 246.17, 185.41 246.33, 185.52 246.5, 185.63 246.67, 185.74 246.83, 185.85 247.0, 185.96 247.17, 186.07 247.33, 186.18 247.5, 186.29 247.67, 186.41 247.83, 186.52 248.0, 186.63 248.17, 186.75 248.33, 186.86 248.5, 186.98 248.67, 187.1 248.83, 187.21 249.0, 187.33 249.17, 187.45 249.33, 187.57 249.5, 187.69 249.67, 187.81 249.83, 187.93 250.0, 188.05 250.17, 188.17 250.33, 188.29 250.5, 188.41 250.67, 188.53 250.83, 188.65 251.0, 188.77 251.17, 188.89 251.33, 189.02 251.5, 189.14 251.67, 189.26 251.83, 189.38 252.0, 189.51 252.17, 189.63 252.33, 189.75 252.5, 189.88 252.67, 190.0 252.83, 190.12 253.0, 190.25 253.17, 190.37 253.33, 190.49 253.5, 190.62 253.67, 190.74 253.83, 190.86 254.0, 190.98 254.17, 191.11 254.33, 191.23 254.5, 191.35 254.67, 191.47 254.83, 191.59 255.0, 191.71 255.17, 191.84 255.33, 191.96 255.5, 192.08 255.67, 192.2 255.83, 192.31 256.0, 192.43 256.17, 192.55 256.33, 192.67 256.5, 192.79 256.67, 192.9 256.83, 193.02 257.0, 193.13 257.17, 193.25 257.33, 193.36 257.5, 193.48 257.67, 193.59 257.83, 193.7 258.0, 193.81 258.17, 193.92 258.33, 194.03 258.5, 194.14 258.67, 194.25 258.83, 194.35 259.0, 194.46 259.17, 194.56 259.33, 194.67 259.5, 194.77 259.67, 194.87 259.83, 194.97 260.0, 195.07 260.17, 195.17 260.33, 195.26 260.5, 195.36 260.67, 195.45 260.83, 195.54 261.0, 195.63 261.17, 195.72 261.33, 195.81 261.5, 195.9 261.67, 195.98 261.83, 196.07 262.0, 196.15 262.17, 196.23 262.33, 196.31 262.5, 196.38 262.67, 196.46 262.83, 196.53 263.0, 196.6 263.17, 196.67 263.33, 196.74 263.5, 196.81 263.67, 196.87 263.83, 196.93 264.0, 196.99 264.17, 197.05 264.33, 197.11 264.5, 197.16 264.67, 197.21 264.83, 197.26 265.0, 197.3 265.17, 197.35 265.33, 197.39 265.5, 197.43 265.67, 197.47 265.83, 197.5 266.0, 197.53 266.17, 197.56 266.33, 197.59 266.5, 197.61 266.67, 197.63 266.83, 197.65 267.0, 197.67 267.17, 197.68 267.33, 197.69 267.5, 197.7 267.67, 197.7 267.83, 197.7 268.0, 197.7 268.17, 197.69 268.33, 197.69 268.5, 197.67 268.67, 197.66 268.83, 197.64 269.0, 197.62 269.17, 197.59 269.33, 197.57 269.5, 197.53 269.67, 197.5 269.83, 197.46 270.0, 197.42 270.17, 197.37 270.33, 197.32 270.5, 197.27 270.67, 197.21 270.83, 197.15 271.0, 197.08 271.17, 197.01 271.33, 196.94 271.5, 196.86 271.67, 196.78 271.83, 196.69 272.0, 196.6 272.17, 196.51 272.33, 196.41 272.5, 196.3 272.67, 196.19 272.83, 196.08 273.0, 195.96 273.17, 195.84 273.33, 195.72 273.5, 195.58 273.67, 195.45 273.83, 195.31 274.0, 195.16 274.17, 195.01 274.33, 194.85 274.5, 194.69 274.67, 194.53 274.83, 194.36 275.0, 194.18 275.17, 194.0 275.33, 193.81 275.5, 193.62 275.67, 193.42 275.83, 193.22 276.0, 193.01 276.17, 192.79 276.33, 192.57 276.5, 192.34 276.67, 192.11 276.83, 191.87 277.0, 191.63 277.17, 191.38 277.33, 191.12 277.5, 190.86 277.67, 190.59 277.83, 190.31 278.0, 190.03 278.17, 189.74 278.33, 189.45 278.5, 189.15 278.67, 188.84 278.83, 188.53 279.0, 188.21 279.17, 187.88 279.33, 187.54 279.5, 187.2 279.67, 186.85 279.83, 186.5 280.0, 186.13 280.17, 185.76 280.33, 185.39 280.5, 185.0 280.67, 184.61 280.83, 184.21 281.0, 183.8 281.17, 183.39 281.33, 182.96 281.5, 182.53 281.67, 182.09 281.83, 181.65 282.0, 181.19 282.17, 180.73 282.33, 180.26 282.5, 179.78 282.67, 179.29 282.83, 178.8 283.0, 178.3 283.17, 177.78 283.33, 177.26 283.5, 176.73 283.67, 176.19 283.83, 175.65 284.0, 175.09 284.17, 174.53 284.33, 173.95 284.5, 173.37 284.67, 172.78 284.83, 172.18 285.0, 171.56 285.17, 170.94 285.33, 170.31 285.5, 169.68 285.67, 169.03 285.83, 168.37 286.0, 167.7 286.17, 167.02 286.33, 166.33 286.5, 165.63 286.67, 164.92 286.83, 164.21 287.0, 163.48 287.17, 162.74 287.33, 161.99 287.5, 161.23 287.67, 160.45 287.83, 159.67 288.0, 158.88 288.17, 158.08 288.33, 157.26 288.5, 156.44 288.67, 155.6 288.83, 154.75 289.0, 153.89 289.17, 153.02 289.33, 152.14 289.5, 151.24 289.67, 150.34 289.83, 149.42 290.0, 148.49 290.17, 147.55 290.33, 146.6 290.5, 145.63 290.67, 144.65 290.83, 143.66 291.0, 142.66 291.17, 141.65 291.33, 140.62 291.5, 139.58 291.67, 138.53 291.83, 137.46 292.0, 136.38 292.17, 135.29 292.33, 134.19 292.5, 133.07 292.67, 131.94 292.83, 130.79 293.0, 129.63 293.17, 128.46 293.33, 127.27 293.5, 126.08 293.67, 124.86 293.83, 123.63 294.0, 122.39 294.17, 121.14 294.33, 119.87 294.5, 118.58 294.67, 117.28 294.83, 115.97 295.0, 114.64 295.17, 113.3 295.33, 111.94 295.5, 110.57 295.67, 109.18 295.83, 107.78 296.0, 106.36 296.17, 104.93 296.33, 103.48 296.5, 102.01 296.67, 100.53 296.83, 99.03 297.0, 97.52 297.17, 95.99 297.33, 94.45 297.5, 92.89 297.67, 91.31 297.83, 89.72 298.0, 88.11 298.17, 86.48 298.33, 84.83 298.5, 83.17 298.67, 81.5 298.83, 79.8 299.0, 78.09 299.17, 76.36 299.33, 74.61 299.5, 72.85 299.67, 71.07 299.83, 69.27 300.0, 67.45 300.17, 65.61 300.33, 63.76 300.5, 61.89 300.67, 60.0 300.83, 58.09 301.0, 56.16 301.17, 54.21 301.33, 52.25 301.5, 50.26 301.67, 48.26 301.83, 46.24 302.0, 44.2 302.17, 42.14 302.33, 40.05 302.5, 37.95 302.67, 35.83 302.83, 33.7 303.0, 31.54 303.17, 29.36 303.33, 27.16 303.5, 24.93 303.67, 22.69 303.83, 20.43 304.0, 18.15 304.17, 15.85 304.33, 13.52 304.5, 11.18 304.67, 8.81 304.83, 6.42 305.0, 4.01 305.17, 1.58 305.33, -0.87 305.5, -3.34 305.67, -5.84 305.83, -8.36 306.0, -10.9 306.17, -13.46 306.33, -16.05 306.5, -18.66 306.67, -21.29 306.83, -23.94 307.0, -26.62 307.17, -29.32 307.33, -32.04 307.5, -34.79 307.67, -37.56 307.83, -40.35 308.0, -43.17 308.17, -46.01 308.33, -48.88 308.5, -51.77 308.67, -54.68 308.83, -57.62 309.0, -60.58 309.17, -63.57 309.33, -66.58 309.5, -69.62 309.67, -72.69 309.83, -75.77 310.0, -78.89 310.17, -82.03 310.33, -85.19 310.5, -88.38 310.67, -91.6 310.83, -94.84 311.0, -98.11 311.17, -101.41 311.33, -104.73 311.5, -108.08 311.67, -111.46 311.83, -114.86 312.0, -118.29 312.17, -121.75 312.33, -125.23 312.5, -128.75 312.67, -132.29 312.83, -135.85 313.0, -139.45 313.17, -143.07 313.33, -146.73 313.5, -150.41 313.67, -154.12 313.83, -157.86 314.0, -161.62 314.17, -165.42 314.33, -169.24 314.5, -173.1 314.67, -176.98 314.83, -180.9 315.0, -184.84 315.17, -188.82 315.33, -192.82 315.5, -196.85 315.67, -200.92 315.83, -205.01 316.0, -209.14 316.17, -213.3 316.33, -217.48 316.5, -221.7 316.67, -225.95 316.83, -230.24 317.0, -234.55 317.17, -238.9 317.33, -243.27 317.5, -247.68 317.67, -252.13 317.83, -256.6 318.0, -261.11 318.17, -265.65 318.33, -270.22 318.5, -274.83 318.67, -279.47 318.83, -284.14 319.0, -288.85 319.17, -293.59 319.33, -298.36 319.5, -303.17 319.67, -308.01 319.83, -312.89 320.0, -317.8 320.17, -322.75 320.33, -327.73 320.5, -332.74 320.67, -337.8 320.83, -342.88 321.0, -348.01 321.17, -353.17 321.33, -358.36 321.5, -363.59 321.67, -368.86 321.83, -374.16 322.0, -379.5 322.17, -384.88 322.33, -390.3 322.5, -395.75 322.67, -401.24 322.83, -406.76 323.0, -412.33 323.17, -417.93 323.33, -423.57 323.5, -429.25 323.67, -434.96 323.83, -440.72 324.0, -446.51 324.17, -452.35 324.33, -458.22 324.5, -464.13 324.67, -470.08 324.83, -476.07 325.0, -482.1 325.17, -488.18 325.33, -494.29 325.5, -500.44 325.67, -506.63 325.83, -512.86 326.0, -519.14 326.17, -525.45 326.33, -531.81 326.5, -538.21 326.67, -544.65 326.83, -551.13 327.0, -557.65 327.17, -564.22 327.33, -570.83 327.5, -577.48 327.67, -584.17 327.83, -590.91 328.0, -597.69 328.17, -604.51 328.33, -611.38 328.5, -618.29 328.67, -625.25 328.83, -632.25 329.0, -639.29 329.17, -646.38 329.33, -653.51 329.5, -660.69 329.67, -667.92 329.83, -675.19 330.0, -682.5 330.17, -689.86 330.33, -697.27 330.5, -704.72 330.67, -712.22 330.83, -719.77 331.0, -727.36 331.17, -735.0 331.33, -742.68 331.5, -750.42 331.67, -758.2 331.83, -766.03 332.0, -773.91 332.17, -781.83 332.33, -789.81 332.5, -797.83 332.67, -805.9 332.83, -814.02 333.0, -822.19 333.17, -830.41 333.33, -838.68 333.5, -847.0 333.67, -855.37 333.83, -863.79 334.0, -872.26 334.17, -880.78 334.33, -889.35 334.5, -897.98 334.67, -906.65 334.83, -915.38 335.0, -924.16 335.17, -932.99 335.33, -941.87 335.5, -950.8 335.67, -959.79 335.83, -968.83 336.0, -977.92 336.17, -987.07 336.33, -996.27 336.5, -1005.52 336.67, -1014.83 336.83, -1024.19 337.0, -1033.61 337.17, -1043.08 337.33, -1052.61 337.5, -1062.19 337.67, -1071.83 337.83, -1081.52 338.0, -1091.27 338.17, -1101.07 338.33, -1110.93 338.5, -1120.85 338.67, -1130.82 338.83, -1140.85 339.0, -1150.94 339.17, -1161.08 339.33, -1171.28 339.5, -1181.54 339.67, -1191.86 339.83, -1202.24 340.0, -1212.67 340.17, -1223.17 340.33, -1233.72 340.5, -1244.33 340.67, -1255.0 340.83, -1265.73 341.0, -1276.52 341.17, -1287.38 341.33, -1298.29 341.5, -1309.26 341.67, -1320.29 341.83, -1331.39 342.0, -1342.54 342.17, -1353.76 342.33, -1365.04 342.5, -1376.38 342.67, -1387.78 342.83, -1399.25 343.0, -1410.78 343.17, -1422.37 343.33, -1434.03 343.5, -1445.74 343.67, -1457.53 343.83, -1469.37 344.0, -1481.28 344.17, -1493.26 344.33, -1505.3 344.5, -1517.4 344.67, -1529.57 344.83, -1541.81 345.0, -1554.11 345.17, -1566.48 345.33, -1578.91 345.5, -1591.41 345.67, -1603.98 345.83, -1616.62 346.0, -1629.32 346.17, -1642.09 346.33, -1654.92 346.5, -1667.83 346.67, -1680.8 346.83, -1693.84 347.0, -1706.95 347.17, -1720.13 347.33, -1733.38 347.5, -1746.7 347.67, -1760.09 347.83, -1773.55 348.0, -1787.08 348.17, -1800.67 348.33, -1814.35 348.5, -1828.09 348.67, -1841.9 348.83, -1855.78 349.0, -1869.74 349.17, -1883.77 349.33, -1897.87 349.5, -1912.04 349.67, -1926.29 349.83, -1940.61 350.0, -1955.0 350.17, -1969.47 350.33, -1984.01 350.5, -1998.63 350.67, -2013.32 350.83, -2028.09 351.0, -2042.93 351.17, -2057.84 351.33, -2072.83 351.5, -2087.9 351.67, -2103.05 351.83, -2118.27 352.0, -2133.56 352.17, -2148.94 352.33, -2164.39 352.5, -2179.92 352.67, -2195.53 352.83, -2211.21 353.0, -2226.98 353.17, -2242.82 353.33, -2258.74 353.5, -2274.74 353.67, -2290.82 353.83, -2306.98 354.0, -2323.23 354.17, -2339.55 354.33, -2355.95 354.5, -2372.43 354.67, -2389.0 354.83, -2405.64 355.0, -2422.37 355.17, -2439.18 355.33, -2456.07 355.5, -2473.05 355.67, -2490.11 355.83, -2507.25 356.0, -2524.47 356.17, -2541.78 356.33, -2559.18 356.5, -2576.65 356.67, -2594.22 356.83, -2611.86 357.0, -2629.6 357.17, -2647.42 357.33, -2665.32 357.5, -2683.31 357.67, -2701.39 357.83, -2719.55 358.0, -2737.81 358.17, -2756.14 358.33, -2774.57 358.5, -2793.09 358.67, -2811.69 358.83, -2830.38 359.0, -2849.16 359.17, -2868.03 359.33, -2886.99 359.5, -2906.04 359.67, -2925.18 359.83, -2944.41 360.0, -2963.73 360.17, -2983.15 360.33, -3002.65 360.5, -3022.24 360.67, -3041.93 360.83, -3061.71 361.0, -3081.58 361.17, -3101.55 361.33, -3121.61 361.5, -3141.76 361.67, -3162.01 361.83, -3182.35 362.0, -3202.78 362.17, -3223.31 362.33, -3243.94 362.5, -3264.66 362.67, -3285.47 362.83, -3306.39 363.0, -3327.4 363.17, -3348.5 363.33, -3369.7 363.5, -3391.0 363.67, -3412.4 363.83, -3433.9 364.0, -3455.49 364.17, -3477.18 364.33, -3498.98 364.5, -3520.87 364.67, -3542.86 364.83, -3564.95 365.0, -3587.14 365.17, -3609.43 365.33, -3631.83 365.5, -3654.32 365.67, -3676.92 365.83, -3699.61 366.0, -3722.41 366.17, -3745.32 366.33, -3768.32 366.5, -3791.43 366.67, -3814.64 366.83, -3837.96 367.0, -3861.38 367.17, -3884.91 367.33, -3908.54 367.5, -3932.27 367.67, -3956.12 367.83, -3980.06 368.0, -4004.12 368.17, -4028.28 368.33, -4052.54 368.5, -4076.92 368.67, -4101.4 368.83, -4125.99 369.0, -4150.69 369.17, -4175.5 369.33, -4200.42 369.5, -4225.44 369.67, -4250.58 369.83, -4275.82 370.0, -4301.18 370.17, -4326.65 370.33, -4352.23 370.5, -4377.92 370.67, -4403.72 370.83, -4429.63 371.0, -4455.66 371.17, -4481.8 371.33, -4508.05 371.5, -4534.42 371.67, -4560.9 371.83, -4587.49 372.0, -4614.2 372.17, -4641.03 372.33, -4667.97 372.5, -4695.02 372.67, -4722.19 372.83, -4749.48 373.0, -4776.89 373.17, -4804.41 373.33, -4832.05 373.5, -4859.81 373.67, -4887.68 373.83, -4915.68 374.0, -4943.79 374.17, -4972.02 374.33, -5000.38 374.5, -5028.85 374.67, -5057.44 374.83, -5086.16 375.0, -5114.99 375.17, -5143.95 375.33, -5173.03 375.5, -5202.23 375.67, -5231.55 375.83, -5261.0 376.0, -5290.57 376.17, -5320.27 376.33, -5350.09 376.5, -5380.03 376.67, -5410.1 376.83, -5440.29 377.0, -5470.61 377.17, -5501.06 377.33, -5531.63 377.5, -5562.33 377.67, -5593.15 377.83, -5624.11 378.0, -5655.19 378.17, -5686.4 378.33, -5717.74 378.5, -5749.21 378.67, -5780.8 378.83, -5812.53 379.0, -5844.39 379.17, -5876.38 379.33, -5908.5 379.5, -5940.75 379.67, -5973.13 379.83, -6005.65 380.0, -6038.29 380.17, -6071.07 380.33, -6103.99 380.5, -6137.04 380.67, -6170.22 380.83, -6203.54 381.0, -6236.99 381.17, -6270.58 381.33, -6304.3 381.5, -6338.16 381.67, -6372.16 381.83, -6406.29 382.0, -6440.56 382.17, -6474.97 382.33, -6509.51 382.5, -6544.2 382.67, -6579.02 382.83, -6613.99 383.0, -6649.09 383.17, -6684.33 383.33, -6719.72 383.5, -6755.24 383.67, -6790.91 383.83, -6826.72 384.0, -6862.67 384.17, -6898.76 384.33, -6935.0 384.5, -6971.38 384.67, -7007.91 384.83, -7044.57 385.0, -7081.39 385.17, -7118.35 385.33, -7155.45 385.5, -7192.7 385.67, -7230.1 385.83, -7267.64 386.0, -7305.33 386.17, -7343.17 386.33, -7381.15 386.5, -7419.29 386.67, -7457.57 386.83, -7496.01 387.0, -7534.59 387.17, -7573.32 387.33, -7612.21 387.5, -7651.24 387.67, -7690.43 387.83, -7729.77 388.0, -7769.26 388.17, -7808.9 388.33, -7848.7 388.5, -7888.65 388.67, -7928.75 388.83, -7969.01 389.0, -8009.42 389.17, -8049.99 389.33, -8090.72 389.5, -8131.6 389.67, -8172.64 389.83, -8213.83 390.0, -8255.18 390.17, -8296.69 390.33, -8338.36 390.5, -8380.19 390.67, -8422.18 390.83, -8464.33 391.0, -8506.63 391.17, -8549.1 391.33, -8591.73 391.5, -8634.52 391.67, -8677.47 391.83, -8720.59 392.0, -8763.86 392.17, -8807.3 392.33, -8850.91 392.5, -8894.68 392.67, -8938.61 392.83, -8982.71 393.0, -9026.97 393.17, -9071.4 393.33, -9116.0 393.5, -9160.76 393.67, -9205.69 393.83, -9250.79 394.0, -9296.06 394.17, -9341.49 394.33, -9387.1 394.5, -9432.87 394.67, -9478.82 394.83, -9524.93 395.0, -9571.22 395.17, -9617.68 395.33, -9664.31 395.5, -9711.11 395.67, -9758.08 395.83, -9805.23 396.0, -9852.55 396.17, -9900.05 396.33, -9947.72 396.5, -9995.57 396.67, -10043.59 396.83, -10091.79 397.0, -10140.17 397.17, -10188.72 397.33, -10237.45 397.5, -10286.36 397.67, -10335.44 397.83, -10384.71 398.0, -10434.15 398.17, -10483.78 398.33, -10533.58 398.5, -10583.57 398.67, -10633.74 398.83, -10684.09 399.0, -10734.62 399.17, -10785.33 399.33, -10836.23 399.5, -10887.31 399.67, -10938.58 399.83, -10990.03 400.0, -11041.67 " fill="none" stroke="white" stroke-width="1.5" stroke-linejoin="round" stroke-opacity="1"/>

 </svg>