<svg version="1.1" 
 baseProfile="full" 
 width="400" 
 height="400" 
 xmlns="http://www.w3.org/2000/svg">
<rect x="0.0" y="0.0" width="400" height="400" fill="black" stroke="black" stroke-width="0" opacity="1"/>
<line x1="0.0" y1="0.0" x2="0.0" y2="400.0" stroke="white" stroke-width="1" opacity="0.4" stroke-linecap="butt"/>
<line x1="40.0" y1="0.0" x2="40.0" y2="400.0" stroke="white" stroke-width="1" opacity="0.4" stroke-linecap="butt"/>
<line x1="80.0" y1="0.0" x2="80.0" y2="400.0" stroke="white" stroke-width="1" opacity="0.4" stroke-linecap="butt"/>
<line x1="120.0" y1="0.0" x2="120.0" y2="400.0" stroke="white" stroke-width="1" opacity="0.4" stroke-linecap="butt"/>
<line x1="160.0" y1="0.0" x2="160.0" y2="400.0" stroke="white" stroke-width="1" opacity="0.4" stroke-linecap="butt"/>
<line x1="200.0" y1="0.0" x2="200.0" y2="400.0" stroke="white" stroke-width="1" opacity="0.4" stroke-linecap="butt"/>
<line x1="240.0" y1="0.0" x2="240.0" y2="400.0" stroke="white" stroke-width="1" opacity="0.4" stroke-linecap="butt"/>
<line x1="280.0" y1="0.0" x2="280.0" y2="400.0" stroke="white" stroke-width="1" opacity="0.4" stroke-linecap="butt"/>
<line x1="320.0" y1="0.0" x2="320.0" y2="400.0" stroke="white" stroke-width="1" opacity="0.4" stroke-linecap="butt"/>
<line x1="360.0" y1="0.0" x2="360.0" y2="400.0" stroke="white" stroke-width="1" opacity="0.4" stroke-linecap="butt"/>
<line x1="0.0" y1="0.0" x2="400.0" y2="0.0" stroke="white" stroke-width="1" opacity="0.4" stroke-linecap="butt"/>
<line x1="0.0" y1="40.0" x2="400.0" y2="40.0" stroke="white" stroke-width="1" opacity="0.4" stroke-linecap="butt"/>
<line x1="0.0" y1="80.0" x2="400.0" y2="80.0" stroke="white" stroke-width="1" opacity="0.4" stroke-linecap="butt"/>
<line x1="0.0" y1="120.0" x2="400.0" y2="120.0" stroke="white" stroke-width="1" opacity="0.4" stroke-linecap="butt"/>
<line x1="0.0" y1="160.0" x2="400.0" y2="160.0" stroke="white" stroke-width="1" opacity="0.4" stroke-linecap="butt"/>
<line x1="0.0" y1="200.0" x2="400.0" y2="200.0" stroke="white" stroke-width="1" opacity="0.4" stroke-linecap="butt"/>
<line x1="0.0" y1="240.0" x2="400.0" y2="240.0" stroke="white" stroke-width="1" opacity="0.4" stroke-linecap="butt"/>
<line x1="0.0" y1="280.0" x2="400.0" y2="280.0" stroke="white" stroke-width="1" opacity="0.4" stroke-linecap="butt"/>
<line x1="0.0" y1="320.0" x2="400.0" y2="320.0" stroke="white" stroke-width="1" opacity="0.4" stroke-linecap="butt"/>
<line x1="0.0" y1="360.0" x2="400.0" y2="360.0" stroke="white" stroke-width="1" opacity="0.4" stroke-linecap="butt"/>
<line x1="0.0" y1="200.0" x2="400.0" y2="200.0" stroke="yellow" stroke-width="2.5" opacity="1" stroke-linecap="butt"/>
<line x1="200.0" y1="0.0" x2="200.0" y2="400.0" stroke="yellow" stroke-width="2.5" opacity="1" stroke-linecap="butt"/>
<polygon points="391.0 204.0, 401.0 200.0, 391.0 196.0, 393.0 200.0" fill="yellow"/><polygon points="204.0 9.0, 200.0 -1.0, 196.0 9.0, 200.0 7.0" fill="yellow"/><image x="-60.0" y="-60.0" width="200" height="200" href="/Users/girirajhira/PycharmProjects/Giraphics3/Taylor/expr.png"/><polyline points="0.0, 12483.33 0.17, 12427.36 0.33, 12371.59 0.5, 12316.02 0.67, 12260.65 0.83, 12205.48 1.0, 12150.5 1.17, 12095.72 1.33, 12041.14 1.5, 11986.75 1.67, 11932.56 1.83, 11878.57 2.0, 11824.77 2.17, 11771.16 2.33, 11717.75 2.5, 11664.52 2.67, 11611.5 2.83, 11558.66 3.0, 11506.02 3.17, 11453.56 3.33, 11401.3 3.5, 11349.22 3.67, 11297.34 3.83, 11245.65 4.0, 11194.14 4.17, 11142.82 4.33, 11091.69 4.5, 11040.74 4.67, 10989.99 4.83, 10939.41 5.0, 10889.03 5.17, 10838.83 5.33, 10788.81 5.5, 10738.97 5.67, 10689.32 5.83, 10639.86 6.0, 10590.57 6.17, 10541.47 6.33, 10492.55 6.5, 10443.81 6.67, 10395.25 6.83, 10346.87 7.0, 10298.67 7.17, 10250.65 7.33, 10202.8 7.5, 10155.14 7.67, 10107.65 7.83, 10060.34 8.0, 10013.21 8.17, 9966.25 8.33, 9919.47 8.5, 9872.86 8.67, 9826.43 8.83, 9780.17 9.0, 9734.09 9.17, 9688.18 9.33, 9642.44 9.5, 9596.87 9.67, 9551.48 9.83, 9506.26 10.0, 9461.21 10.17, 9416.32 10.33, 9371.61 10.5, 9327.07 10.67, 9282.7 10.83, 9238.49 11.0, 9194.46 11.17, 9150.59 11.33, 9106.89 11.5, 9063.35 11.67, 9019.98 11.83, 8976.78 12.0, 8933.74 12.17, 8890.87 12.33, 8848.16 12.5, 8805.61 12.67, 8763.23 12.83, 8721.01 13.0, 8678.96 13.17, 8637.06 13.33, 8595.33 13.5, 8553.76 13.67, 8512.35 13.83, 8471.1 14.0, 8430.01 14.17, 8389.07 14.33, 8348.3 14.5, 8307.69 14.67, 8267.23 14.83, 8226.93 15.0, 8186.79 15.17, 8146.81 15.33, 8106.98 15.5, 8067.3 15.67, 8027.79 15.83, 7988.42 16.0, 7949.21 16.17, 7910.16 16.33, 7871.26 16.5, 7832.51 16.67, 7793.91 16.83, 7755.47 17.0, 7717.18 17.17, 7679.04 17.33, 7641.05 17.5, 7603.21 17.67, 7565.52 17.83, 7527.98 18.0, 7490.59 18.17, 7453.35 18.33, 7416.26 18.5, 7379.31 18.67, 7342.51 18.83, 7305.86 19.0, 7269.36 19.17, 7233.0 19.33, 7196.79 19.5, 7160.72 19.67, 7124.8 19.83, 7089.02 20.0, 7053.39 20.17, 7017.9 20.33, 6982.55 20.5, 6947.35 20.67, 6912.28 20.83, 6877.36 21.0, 6842.59 21.17, 6807.95 21.33, 6773.45 21.5, 6739.09 21.67, 6704.88 21.83, 6670.8 22.0, 6636.86 22.17, 6603.06 22.33, 6569.4 22.5, 6535.88 22.67, 6502.49 22.83, 6469.24 23.0, 6436.13 23.17, 6403.15 23.33, 6370.31 23.5, 6337.6 23.67, 6305.03 23.83, 6272.6 24.0, 6240.29 24.17, 6208.13 24.33, 6176.09 24.5, 6144.19 24.67, 6112.42 24.83, 6080.78 25.0, 6049.27 25.17, 6017.9 25.33, 5986.65 25.5, 5955.54 25.67, 5924.56 25.83, 5893.7 26.0, 5862.98 26.17, 5832.38 26.33, 5801.92 26.5, 5771.58 26.67, 5741.37 26.83, 5711.28 27.0, 5681.33 27.17, 5651.5 27.33, 5621.79 27.5, 5592.21 27.67, 5562.76 27.83, 5533.43 28.0, 5504.23 28.17, 5475.15 28.33, 5446.2 28.5, 5417.36 28.67, 5388.66 28.83, 5360.07 29.0, 5331.61 29.17, 5303.26 29.33, 5275.05 29.5, 5246.95 29.67, 5218.97 29.83, 5191.11 30.0, 5163.37 30.17, 5135.76 30.33, 5108.26 30.5, 5080.88 30.67, 5053.62 30.83, 5026.47 31.0, 4999.45 31.17, 4972.54 31.33, 4945.75 31.5, 4919.08 31.67, 4892.52 31.83, 4866.08 32.0, 4839.75 32.17, 4813.54 32.33, 4787.45 32.5, 4761.47 32.67, 4735.6 32.83, 4709.85 33.0, 4684.21 33.17, 4658.68 33.33, 4633.27 33.5, 4607.97 33.67, 4582.78 33.83, 4557.7 34.0, 4532.73 34.17, 4507.88 34.33, 4483.13 34.5, 4458.49 34.67, 4433.97 34.83, 4409.55 35.0, 4385.25 35.17, 4361.05 35.33, 4336.96 35.5, 4312.98 35.67, 4289.1 35.83, 4265.34 36.0, 4241.68 36.17, 4218.13 36.33, 4194.68 36.5, 4171.34 36.67, 4148.11 36.83, 4124.98 37.0, 4101.95 37.17, 4079.03 37.33, 4056.22 37.5, 4033.5 37.67, 4010.9 37.83, 3988.39 38.0, 3965.99 38.17, 3943.69 38.33, 3921.49 38.5, 3899.4 38.67, 3877.4 38.83, 3855.51 39.0, 3833.72 39.17, 3812.03 39.33, 3790.44 39.5, 3768.94 39.67, 3747.55 39.83, 3726.26 40.0, 3705.07 40.17, 3683.97 40.33, 3662.97 40.5, 3642.08 40.67, 3621.27 40.83, 3600.57 41.0, 3579.96 41.17, 3559.45 41.33, 3539.04 41.5, 3518.72 41.67, 3498.49 41.83, 3478.37 42.0, 3458.33 42.17, 3438.39 42.33, 3418.55 42.5, 3398.8 42.67, 3379.14 42.83, 3359.58 43.0, 3340.11 43.17, 3320.73 43.33, 3301.44 43.5, 3282.25 43.67, 3263.15 43.83, 3244.14 44.0, 3225.22 44.17, 3206.39 44.33, 3187.65 44.5, 3169.01 44.67, 3150.45 44.83, 3131.98 45.0, 3113.6 45.17, 3095.31 45.33, 3077.11 45.5, 3059.0 45.67, 3040.97 45.83, 3023.03 46.0, 3005.18 46.17, 2987.42 46.33, 2969.74 46.5, 2952.15 46.67, 2934.65 46.83, 2917.23 47.0, 2899.9 47.17, 2882.65 47.33, 2865.49 47.5, 2848.41 47.67, 2831.42 47.83, 2814.51 48.0, 2797.68 48.17, 2780.94 48.33, 2764.28 48.5, 2747.7 48.67, 2731.21 48.83, 2714.8 49.0, 2698.47 49.17, 2682.22 49.33, 2666.06 49.5, 2649.97 49.67, 2633.97 49.83, 2618.04 50.0, 2602.2 50.17, 2586.43 50.33, 2570.75 50.5, 2555.14 50.67, 2539.62 50.83, 2524.17 51.0, 2508.8 51.17, 2493.51 51.33, 2478.3 51.5, 2463.16 51.67, 2448.11 51.83, 2433.13 52.0, 2418.22 52.17, 2403.39 52.33, 2388.64 52.5, 2373.97 52.67, 2359.37 52.83, 2344.84 53.0, 2330.4 53.17, 2316.02 53.33, 2301.72 53.5, 2287.5 53.67, 2273.34 53.83, 2259.27 54.0, 2245.26 54.17, 2231.33 54.33, 2217.47 54.5, 2203.69 54.67, 2189.97 54.83, 2176.33 55.0, 2162.76 55.17, 2149.26 55.33, 2135.84 55.5, 2122.48 55.67, 2109.2 55.83, 2095.98 56.0, 2082.84 56.17, 2069.76 56.33, 2056.76 56.5, 2043.82 56.67, 2030.96 56.83, 2018.16 57.0, 2005.43 57.17, 1992.77 57.33, 1980.18 57.5, 1967.65 57.67, 1955.2 57.83, 1942.81 58.0, 1930.48 58.17, 1918.23 58.33, 1906.04 58.5, 1893.91 58.67, 1881.86 58.83, 1869.87 59.0, 1857.94 59.17, 1846.08 59.33, 1834.28 59.5, 1822.55 59.67, 1810.89 59.83, 1799.28 60.0, 1787.75 60.17, 1776.27 60.33, 1764.86 60.5, 1753.51 60.67, 1742.23 60.83, 1731.01 61.0, 1719.85 61.17, 1708.75 61.33, 1697.71 61.5, 1686.74 61.67, 1675.83 61.83, 1664.98 62.0, 1654.18 62.17, 1643.46 62.33, 1632.79 62.5, 1622.18 62.67, 1611.63 62.83, 1601.14 63.0, 1590.71 63.17, 1580.34 63.33, 1570.03 63.5, 1559.78 63.67, 1549.59 63.83, 1539.45 64.0, 1529.37 64.17, 1519.36 64.33, 1509.39 64.5, 1499.49 64.67, 1489.64 64.83, 1479.85 65.0, 1470.12 65.17, 1460.44 65.33, 1450.82 65.5, 1441.26 65.67, 1431.75 65.83, 1422.3 66.0, 1412.9 66.17, 1403.56 66.33, 1394.27 66.5, 1385.04 66.67, 1375.86 66.83, 1366.73 67.0, 1357.66 67.17, 1348.65 67.33, 1339.68 67.5, 1330.77 67.67, 1321.92 67.83, 1313.11 68.0, 1304.36 68.17, 1295.66 68.33, 1287.01 68.5, 1278.42 68.67, 1269.87 68.83, 1261.38 69.0, 1252.94 69.17, 1244.55 69.33, 1236.21 69.5, 1227.93 69.67, 1219.69 69.83, 1211.5 70.0, 1203.36 70.17, 1195.28 70.33, 1187.24 70.5, 1179.25 70.67, 1171.31 70.83, 1163.42 71.0, 1155.58 71.17, 1147.79 71.33, 1140.04 71.5, 1132.34 71.67, 1124.69 71.83, 1117.09 72.0, 1109.54 72.17, 1102.03 72.33, 1094.57 72.5, 1087.16 72.67, 1079.79 72.83, 1072.47 73.0, 1065.2 73.17, 1057.97 73.33, 1050.79 73.5, 1043.65 73.67, 1036.56 73.83, 1029.52 74.0, 1022.52 74.17, 1015.56 74.33, 1008.65 74.5, 1001.78 74.67, 994.96 74.83, 988.18 75.0, 981.45 75.17, 974.75 75.33, 968.11 75.5, 961.5 75.67, 954.94 75.83, 948.42 76.0, 941.94 76.17, 935.51 76.33, 929.12 76.5, 922.77 76.67, 916.46 76.83, 910.2 77.0, 903.97 77.17, 897.79 77.33, 891.65 77.5, 885.54 77.67, 879.48 77.83, 873.46 78.0, 867.48 78.17, 861.54 78.33, 855.64 78.5, 849.78 78.67, 843.96 78.83, 838.18 79.0, 832.44 79.17, 826.74 79.33, 821.07 79.5, 815.45 79.67, 809.86 79.83, 804.31 80.0, 798.8 80.17, 793.33 80.33, 787.89 80.5, 782.49 80.67, 777.13 80.83, 771.81 81.0, 766.53 81.17, 761.28 81.33, 756.06 81.5, 750.89 81.67, 745.75 81.83, 740.65 82.0, 735.58 82.17, 730.55 82.33, 725.55 82.5, 720.59 82.67, 715.66 82.83, 710.77 83.0, 705.92 83.17, 701.1 83.33, 696.31 83.5, 691.56 83.67, 686.84 83.83, 682.16 84.0, 677.51 84.17, 672.89 84.33, 668.31 84.5, 663.76 84.67, 659.25 84.83, 654.76 85.0, 650.32 85.17, 645.9 85.33, 641.51 85.5, 637.16 85.67, 632.84 85.83, 628.55 86.0, 624.3 86.17, 620.07 86.33, 615.88 86.5, 611.72 86.67, 607.59 86.83, 603.49 87.0, 599.42 87.17, 595.39 87.33, 591.38 87.5, 587.4 87.67, 583.46 87.83, 579.54 88.0, 575.66 88.17, 571.8 88.33, 567.98 88.5, 564.18 88.67, 560.41 88.83, 556.67 89.0, 552.97 89.17, 549.29 89.33, 545.63 89.5, 542.01 89.67, 538.42 89.83, 534.85 90.0, 531.31 90.17, 527.8 90.33, 524.32 90.5, 520.87 90.67, 517.44 90.83, 514.04 91.0, 510.67 91.17, 507.32 91.33, 504.01 91.5, 500.71 91.67, 497.45 91.83, 494.21 92.0, 491.0 92.17, 487.81 92.33, 484.65 92.5, 481.52 92.67, 478.41 92.83, 475.33 93.0, 472.27 93.17, 469.24 93.33, 466.24 93.5, 463.26 93.67, 460.3 93.83, 457.37 94.0, 454.46 94.17, 451.58 94.33, 448.72 94.5, 445.89 94.67, 443.08 94.83, 440.29 95.0, 437.53 95.17, 434.79 95.33, 432.08 95.5, 429.39 95.67, 426.72 95.83, 424.08 96.0, 421.45 96.17, 418.86 96.33, 416.28 96.5, 413.73 96.67, 411.2 96.83, 408.69 97.0, 406.2 97.17, 403.74 97.33, 401.3 97.5, 398.88 97.67, 396.48 97.83, 394.1 98.0, 391.74 98.17, 389.41 98.33, 387.1 98.5, 384.8 98.67, 382.53 98.83, 380.28 99.0, 378.05 99.17, 375.84 99.33, 373.66 99.5, 371.49 99.67, 369.34 99.83, 367.21 100.0, 365.1 100.17, 363.02 100.33, 360.95 100.5, 358.9 100.67, 356.87 100.83, 354.86 101.0, 352.87 101.17, 350.9 101.33, 348.94 101.5, 347.01 101.67, 345.09 101.83, 343.2 102.0, 341.32 102.17, 339.46 102.33, 337.62 102.5, 335.79 102.67, 333.99 102.83, 332.2 103.0, 330.43 103.17, 328.68 103.33, 326.95 103.5, 325.23 103.67, 323.53 103.83, 321.85 104.0, 320.18 104.17, 318.53 104.33, 316.9 104.5, 315.29 104.67, 313.69 104.83, 312.11 105.0, 310.55 105.17, 309.0 105.33, 307.47 105.5, 305.95 105.67, 304.45 105.83, 302.97 106.0, 301.5 106.17, 300.04 106.33, 298.61 106.5, 297.19 106.67, 295.78 106.83, 294.39 107.0, 293.01 107.17, 291.65 107.33, 290.31 107.5, 288.98 107.67, 287.66 107.83, 286.36 108.0, 285.07 108.17, 283.8 108.33, 282.54 108.5, 281.3 108.67, 280.07 108.83, 278.85 109.0, 277.65 109.17, 276.46 109.33, 275.29 109.5, 274.13 109.67, 272.98 109.83, 271.85 110.0, 270.73 110.17, 269.62 110.33, 268.53 110.5, 267.45 110.67, 266.38 110.83, 265.33 111.0, 264.29 111.17, 263.26 111.33, 262.24 111.5, 261.24 111.67, 260.25 111.83, 259.27 112.0, 258.3 112.17, 257.34 112.33, 256.4 112.5, 255.47 112.67, 254.55 112.83, 253.64 113.0, 252.75 113.17, 251.86 113.33, 250.99 113.5, 250.13 113.67, 249.28 113.83, 248.44 114.0, 247.61 114.17, 246.8 114.33, 245.99 114.5, 245.2 114.67, 244.41 114.83, 243.64 115.0, 242.88 115.17, 242.13 115.33, 241.39 115.5, 240.65 115.67, 239.93 115.83, 239.22 116.0, 238.52 116.17, 237.83 116.33, 237.15 116.5, 236.48 116.67, 235.82 116.83, 235.17 117.0, 234.53 117.17, 233.89 117.33, 233.27 117.5, 232.66 117.67, 232.06 117.83, 231.46 118.0, 230.87 118.17, 230.3 118.33, 229.73 118.5, 229.17 118.67, 228.62 118.83, 228.08 119.0, 227.55 119.17, 227.03 119.33, 226.51 119.5, 226.0 119.67, 225.51 119.83, 225.02 120.0, 224.53 120.17, 224.06 120.33, 223.59 120.5, 223.14 120.67, 222.69 120.83, 222.24 121.0, 221.81 121.17, 221.38 121.33, 220.97 121.5, 220.55 121.67, 220.15 121.83, 219.75 122.0, 219.37 122.17, 218.98 122.33, 218.61 122.5, 218.24 122.67, 217.88 122.83, 217.53 123.0, 217.18 123.17, 216.84 123.33, 216.51 123.5, 216.19 123.67, 215.87 123.83, 215.55 124.0, 215.25 124.17, 214.95 124.33, 214.65 124.5, 214.37 124.67, 214.09 124.83, 213.81 125.0, 213.55 125.17, 213.28 125.33, 213.03 125.5, 212.78 125.67, 212.53 125.83, 212.29 126.0, 212.06 126.17, 211.84 126.33, 211.61 126.5, 211.4 126.67, 211.19 126.83, 210.98 127.0, 210.78 127.17, 210.59 127.33, 210.4 127.5, 210.22 127.67, 210.04 127.83, 209.87 128.0, 209.7 128.17, 209.54 128.33, 209.38 128.5, 209.22 128.67, 209.08 128.83, 208.93 129.0, 208.79 129.17, 208.66 129.33, 208.53 129.5, 208.4 129.67, 208.28 129.83, 208.17 130.0, 208.05 130.17, 207.95 130.33, 207.84 130.5, 207.74 130.67, 207.65 130.83, 207.56 131.0, 207.47 131.17, 207.39 131.33, 207.31 131.5, 207.24 131.67, 207.16 131.83, 207.1 132.0, 207.03 132.17, 206.97 132.33, 206.92 132.5, 206.86 132.67, 206.81 132.83, 206.77 133.0, 206.73 133.17, 206.69 133.33, 206.65 133.5, 206.62 133.67, 206.59 133.83, 206.57 134.0, 206.54 134.17, 206.52 134.33, 206.51 134.5, 206.49 134.67, 206.48 134.83, 206.48 135.0, 206.47 135.17, 206.47 135.33, 206.47 135.5, 206.48 135.67, 206.48 135.83, 206.49 136.0, 206.5 136.17, 206.52 136.33, 206.53 136.5, 206.55 136.67, 206.58 136.83, 206.6 137.0, 206.63 137.17, 206.66 137.33, 206.69 137.5, 206.72 137.67, 206.76 137.83, 206.79 138.0, 206.83 138.17, 206.88 138.33, 206.92 138.5, 206.97 138.67, 207.01 138.83, 207.06 139.0, 207.11 139.17, 207.17 139.33, 207.22 139.5, 207.28 139.67, 207.34 139.83, 207.4 140.0, 207.46 140.17, 207.53 140.33, 207.59 140.5, 207.66 140.67, 207.73 140.83, 207.8 141.0, 207.87 141.17, 207.94 141.33, 208.02 141.5, 208.09 141.67, 208.17 141.83, 208.25 142.0, 208.32 142.17, 208.41 142.33, 208.49 142.5, 208.57 142.67, 208.65 142.83, 208.74 143.0, 208.82 143.17, 208.91 143.33, 209.0 143.5, 209.09 143.67, 209.18 143.83, 209.27 144.0, 209.36 144.17, 209.45 144.33, 209.54 144.5, 209.64 144.67, 209.73 144.83, 209.83 145.0, 209.92 145.17, 210.02 145.33, 210.12 145.5, 210.22 145.67, 210.31 145.83, 210.41 146.0, 210.51 146.17, 210.61 146.33, 210.71 146.5, 210.81 146.67, 210.91 146.83, 211.01 147.0, 211.12 147.17, 211.22 147.33, 211.32 147.5, 211.42 147.67, 211.52 147.83, 211.63 148.0, 211.73 148.17, 211.83 148.33, 211.94 148.5, 212.04 148.67, 212.14 148.83, 212.25 149.0, 212.35 149.17, 212.45 149.33, 212.56 149.5, 212.66 149.67, 212.77 149.83, 212.87 150.0, 212.97 150.17, 213.08 150.33, 213.18 150.5, 213.28 150.67, 213.38 150.83, 213.49 151.0, 213.59 151.17, 213.69 151.33, 213.79 151.5, 213.89 151.67, 213.99 151.83, 214.1 152.0, 214.2 152.17, 214.3 152.33, 214.4 152.5, 214.49 152.67, 214.59 152.83, 214.69 153.0, 214.79 153.17, 214.89 153.33, 214.98 153.5, 215.08 153.67, 215.18 153.83, 215.27 154.0, 215.37 154.17, 215.46 154.33, 215.55 154.5, 215.65 154.67, 215.74 154.83, 215.83 155.0, 215.92 155.17, 216.01 155.33, 216.1 155.5, 216.19 155.67, 216.28 155.83, 216.37 156.0, 216.45 156.17, 216.54 156.33, 216.62 156.5, 216.71 156.67, 216.79 156.83, 216.87 157.0, 216.95 157.17, 217.04 157.33, 217.12 157.5, 217.19 157.67, 217.27 157.83, 217.35 158.0, 217.43 158.17, 217.5 158.33, 217.58 158.5, 217.65 158.67, 217.72 158.83, 217.79 159.0, 217.86 159.17, 217.93 159.33, 218.0 159.5, 218.07 159.67, 218.14 159.83, 218.2 160.0, 218.27 160.17, 218.33 160.33, 218.39 160.5, 218.45 160.67, 218.51 160.83, 218.57 161.0, 218.63 161.17, 218.69 161.33, 218.74 161.5, 218.8 161.67, 218.85 161.83, 218.9 162.0, 218.95 162.17, 219.0 162.33, 219.05 162.5, 219.1 162.67, 219.15 162.83, 219.19 163.0, 219.24 163.17, 219.28 163.33, 219.32 163.5, 219.36 163.67, 219.4 163.83, 219.44 164.0, 219.47 164.17, 219.51 164.33, 219.54 164.5, 219.58 164.67, 219.61 164.83, 219.64 165.0, 219.67 165.17, 219.69 165.33, 219.72 165.5, 219.74 165.67, 219.77 165.83, 219.79 166.0, 219.81 166.17, 219.83 166.33, 219.85 166.5, 219.87 166.67, 219.88 166.83, 219.9 167.0, 219.91 167.17, 219.92 167.33, 219.93 167.5, 219.94 167.67, 219.95 167.83, 219.96 168.0, 219.96 168.17, 219.97 168.33, 219.97 168.5, 219.97 168.67, 219.97 168.83, 219.97 169.0, 219.97 169.17, 219.96 169.33, 219.96 169.5, 219.95 169.67, 219.94 169.83, 219.93 170.0, 219.92 170.17, 219.91 170.33, 219.89 170.5, 219.88 170.67, 219.86 170.83, 219.85 171.0, 219.83 171.17, 219.81 171.33, 219.78 171.5, 219.76 171.67, 219.74 171.83, 219.71 172.0, 219.68 172.17, 219.65 172.33, 219.62 172.5, 219.59 172.67, 219.56 172.83, 219.53 173.0, 219.49 173.17, 219.45 173.33, 219.42 173.5, 219.38 173.67, 219.33 173.83, 219.29 174.0, 219.25 174.17, 219.2 174.33, 219.16 174.5, 219.11 174.67, 219.06 174.83, 219.01 175.0, 218.96 175.17, 218.91 175.33, 218.85 175.5, 218.8 175.67, 218.74 175.83, 218.68 176.0, 218.62 176.17, 218.56 176.33, 218.5 176.5, 218.44 176.67, 218.37 176.83, 218.31 177.0, 218.24 177.17, 218.17 177.33, 218.1 177.5, 218.03 177.67, 217.96 177.83, 217.89 178.0, 217.81 178.17, 217.74 178.33, 217.66 178.5, 217.58 178.67, 217.5 178.83, 217.42 179.0, 217.34 179.17, 217.25 179.33, 217.17 179.5, 217.08 179.67, 217.0 179.83, 216.91 180.0, 216.82 180.17, 216.73 180.33, 216.64 180.5, 216.55 180.67, 216.45 180.83, 216.36 181.0, 216.26 181.17, 216.16 181.33, 216.07 181.5, 215.97 181.67, 215.87 181.83, 215.76 182.0, 215.66 182.17, 215.56 182.33, 215.45 182.5, 215.35 182.67, 215.24 182.83, 215.13 183.0, 215.02 183.17, 214.91 183.33, 214.8 183.5, 214.69 183.67, 214.57 183.83, 214.46 184.0, 214.34 184.17, 214.23 184.33, 214.11 184.5, 213.99 184.67, 213.87 184.83, 213.75 185.0, 213.63 185.17, 213.51 185.33, 213.38 185.5, 213.26 185.67, 213.14 185.83, 213.01 186.0, 212.88 186.17, 212.75 186.33, 212.63 186.5, 212.5 186.67, 212.37 186.83, 212.23 187.0, 212.1 187.17, 211.97 187.33, 211.84 187.5, 211.7 187.67, 211.57 187.83, 211.43 188.0, 211.29 188.17, 211.15 188.33, 211.02 188.5, 210.88 188.67, 210.74 188.83, 210.59 189.0, 210.45 189.17, 210.31 189.33, 210.17 189.5, 210.02 189.67, 209.88 189.83, 209.73 190.0, 209.59 190.17, 209.44 190.33, 209.29 190.5, 209.15 190.67, 209.0 190.83, 208.85 191.0, 208.7 191.17, 208.55 191.33, 208.4 191.5, 208.25 191.67, 208.09 191.83, 207.94 192.0, 207.79 192.17, 207.63 192.33, 207.48 192.5, 207.33 192.67, 207.17 192.83, 207.01 193.0, 206.86 193.17, 206.7 193.33, 206.54 193.5, 206.39 193.67, 206.23 193.83, 206.07 194.0, 205.91 194.17, 205.75 194.33, 205.59 194.5, 205.43 194.67, 205.27 194.83, 205.11 195.0, 204.95 195.17, 204.79 195.33, 204.62 195.5, 204.46 195.67, 204.3 195.83, 204.14 196.0, 203.97 196.17, 203.81 196.33, 203.65 196.5, 203.48 196.67, 203.32 196.83, 203.15 197.0, 202.99 197.17, 202.82 197.33, 202.66 197.5, 202.49 197.67, 202.33 197.83, 202.16 198.0, 202.0 198.17, 201.83 198.33, 201.66 198.5, 201.5 198.67, 201.33 198.83, 201.17 199.0, 201.0 199.17, 200.83 199.33, 200.67 199.5, 200.5 199.67, 200.33 199.83, 200.17 200.0, 200.0 200.17, 199.83 200.33, 199.67 200.5, 199.5 200.67, 199.33 200.83, 199.17 201.0, 199.0 201.17, 198.83 201.33, 198.67 201.5, 198.5 201.67, 198.34 201.83, 198.17 202.0, 198.0 202.17, 197.84 202.33, 197.67 202.5, 197.51 202.67, 197.34 202.83, 197.18 203.0, 197.01 203.17, 196.85 203.33, 196.68 203.5, 196.52 203.67, 196.35 203.83, 196.19 204.0, 196.03 204.17, 195.86 204.33, 195.7 204.5, 195.54 204.67, 195.38 204.83, 195.21 205.0, 195.05 205.17, 194.89 205.33, 194.73 205.5, 194.57 205.67, 194.41 205.83, 194.25 206.0, 194.09 206.17, 193.93 206.33, 193.77 206.5, 193.61 206.67, 193.46 206.83, 193.3 207.0, 193.14 207.17, 192.99 207.33, 192.83 207.5, 192.67 207.67, 192.52 207.83, 192.37 208.0, 192.21 208.17, 192.06 208.33, 191.91 208.5, 191.75 208.67, 191.6 208.83, 191.45 209.0, 191.3 209.17, 191.15 209.33, 191.0 209.5, 190.85 209.67, 190.71 209.83, 190.56 210.0, 190.41 210.17, 190.27 210.33, 190.12 210.5, 189.98 210.67, 189.83 210.83, 189.69 211.0, 189.55 211.17, 189.41 211.33, 189.26 211.5, 189.12 211.67, 188.98 211.83, 188.85 212.0, 188.71 212.17, 188.57 212.33, 188.43 212.5, 188.3 212.67, 188.16 212.83, 188.03 213.0, 187.9 213.17, 187.77 213.33, 187.63 213.5, 187.5 213.67, 187.37 213.83, 187.25 214.0, 187.12 214.17, 186.99 214.33, 186.86 214.5, 186.74 214.67, 186.62 214.83, 186.49 215.0, 186.37 215.17, 186.25 215.33, 186.13 215.5, 186.01 215.67, 185.89 215.83, 185.77 216.0, 185.66 216.17, 185.54 216.33, 185.43 216.5, 185.31 216.67, 185.2 216.83, 185.09 217.0, 184.98 217.17, 184.87 217.33, 184.76 217.5, 184.65 217.67, 184.55 217.83, 184.44 218.0, 184.34 218.17, 184.24 218.33, 184.13 218.5, 184.03 218.67, 183.93 218.83, 183.84 219.0, 183.74 219.17, 183.64 219.33, 183.55 219.5, 183.45 219.67, 183.36 219.83, 183.27 220.0, 183.18 220.17, 183.09 220.33, 183.0 220.5, 182.92 220.67, 182.83 220.83, 182.75 221.0, 182.66 221.17, 182.58 221.33, 182.5 221.5, 182.42 221.67, 182.34 221.83, 182.26 222.0, 182.19 222.17, 182.11 222.33, 182.04 222.5, 181.97 222.67, 181.9 222.83, 181.83 223.0, 181.76 223.17, 181.69 223.33, 181.63 223.5, 181.56 223.67, 181.5 223.83, 181.44 224.0, 181.38 224.17, 181.32 224.33, 181.26 224.5, 181.2 224.67, 181.15 224.83, 181.09 225.0, 181.04 225.17, 180.99 225.33, 180.94 225.5, 180.89 225.67, 180.84 225.83, 180.8 226.0, 180.75 226.17, 180.71 226.33, 180.67 226.5, 180.62 226.67, 180.58 226.83, 180.55 227.0, 180.51 227.17, 180.47 227.33, 180.44 227.5, 180.41 227.67, 180.38 227.83, 180.35 228.0, 180.32 228.17, 180.29 228.33, 180.26 228.5, 180.24 228.67, 180.22 228.83, 180.19 229.0, 180.17 229.17, 180.15 229.33, 180.14 229.5, 180.12 229.67, 180.11 229.83, 180.09 230.0, 180.08 230.17, 180.07 230.33, 180.06 230.5, 180.05 230.67, 180.04 230.83, 180.04 231.0, 180.03 231.17, 180.03 231.33, 180.03 231.5, 180.03 231.67, 180.03 231.83, 180.03 232.0, 180.04 232.17, 180.04 232.33, 180.05 232.5, 180.06 232.67, 180.07 232.83, 180.08 233.0, 180.09 233.17, 180.1 233.33, 180.12 233.5, 180.13 233.67, 180.15 233.83, 180.17 234.0, 180.19 234.17, 180.21 234.33, 180.23 234.5, 180.26 234.67, 180.28 234.83, 180.31 235.0, 180.33 235.17, 180.36 235.33, 180.39 235.5, 180.42 235.67, 180.46 235.83, 180.49 236.0, 180.53 236.17, 180.56 236.33, 180.6 236.5, 180.64 236.67, 180.68 236.83, 180.72 237.0, 180.76 237.17, 180.81 237.33, 180.85 237.5, 180.9 237.67, 180.95 237.83, 181.0 238.0, 181.05 238.17, 181.1 238.33, 181.15 238.5, 181.2 238.67, 181.26 238.83, 181.31 239.0, 181.37 239.17, 181.43 239.33, 181.49 239.5, 181.55 239.67, 181.61 239.83, 181.67 240.0, 181.73 240.17, 181.8 240.33, 181.86 240.5, 181.93 240.67, 182.0 240.83, 182.07 241.0, 182.14 241.17, 182.21 241.33, 182.28 241.5, 182.35 241.67, 182.42 241.83, 182.5 242.0, 182.57 242.17, 182.65 242.33, 182.73 242.5, 182.81 242.67, 182.88 242.83, 182.96 243.0, 183.05 243.17, 183.13 243.33, 183.21 243.5, 183.29 243.67, 183.38 243.83, 183.46 244.0, 183.55 244.17, 183.63 244.33, 183.72 244.5, 183.81 244.67, 183.9 244.83, 183.99 245.0, 184.08 245.17, 184.17 245.33, 184.26 245.5, 184.35 245.67, 184.45 245.83, 184.54 246.0, 184.63 246.17, 184.73 246.33, 184.82 246.5, 184.92 246.67, 185.02 246.83, 185.11 247.0, 185.21 247.17, 185.31 247.33, 185.41 247.5, 185.51 247.67, 185.6 247.83, 185.7 248.0, 185.8 248.17, 185.9 248.33, 186.01 248.5, 186.11 248.67, 186.21 248.83, 186.31 249.0, 186.41 249.17, 186.51 249.33, 186.62 249.5, 186.72 249.67, 186.82 249.83, 186.92 250.0, 187.03 250.17, 187.13 250.33, 187.23 250.5, 187.34 250.67, 187.44 250.83, 187.55 251.0, 187.65 251.17, 187.75 251.33, 187.86 251.5, 187.96 251.67, 188.06 251.83, 188.17 252.0, 188.27 252.17, 188.37 252.33, 188.48 252.5, 188.58 252.67, 188.68 252.83, 188.78 253.0, 188.88 253.17, 188.99 253.33, 189.09 253.5, 189.19 253.67, 189.29 253.83, 189.39 254.0, 189.49 254.17, 189.59 254.33, 189.69 254.5, 189.78 254.67, 189.88 254.83, 189.98 255.0, 190.08 255.17, 190.17 255.33, 190.27 255.5, 190.36 255.67, 190.46 255.83, 190.55 256.0, 190.64 256.17, 190.73 256.33, 190.82 256.5, 190.91 256.67, 191.0 256.83, 191.09 257.0, 191.18 257.17, 191.26 257.33, 191.35 257.5, 191.43 257.67, 191.51 257.83, 191.59 258.0, 191.68 258.17, 191.75 258.33, 191.83 258.5, 191.91 258.67, 191.98 258.83, 192.06 259.0, 192.13 259.17, 192.2 259.33, 192.27 259.5, 192.34 259.67, 192.41 259.83, 192.47 260.0, 192.54 260.17, 192.6 260.33, 192.66 260.5, 192.72 260.67, 192.78 260.83, 192.83 261.0, 192.89 261.17, 192.94 261.33, 192.99 261.5, 193.03 261.67, 193.08 261.83, 193.12 262.0, 193.17 262.17, 193.21 262.33, 193.24 262.5, 193.28 262.67, 193.31 262.83, 193.34 263.0, 193.37 263.17, 193.4 263.33, 193.42 263.5, 193.45 263.67, 193.47 263.83, 193.48 264.0, 193.5 264.17, 193.51 264.33, 193.52 264.5, 193.52 264.67, 193.53 264.83, 193.53 265.0, 193.53 265.17, 193.52 265.33, 193.52 265.5, 193.51 265.67, 193.49 265.83, 193.48 266.0, 193.46 266.17, 193.43 266.33, 193.41 266.5, 193.38 266.67, 193.35 266.83, 193.31 267.0, 193.27 267.17, 193.23 267.33, 193.19 267.5, 193.14 267.67, 193.08 267.83, 193.03 268.0, 192.97 268.17, 192.9 268.33, 192.84 268.5, 192.76 268.67, 192.69 268.83, 192.61 269.0, 192.53 269.17, 192.44 269.33, 192.35 269.5, 192.26 269.67, 192.16 269.83, 192.05 270.0, 191.95 270.17, 191.83 270.33, 191.72 270.5, 191.6 270.67, 191.47 270.83, 191.34 271.0, 191.21 271.17, 191.07 271.33, 190.92 271.5, 190.78 271.67, 190.62 271.83, 190.46 272.0, 190.3 272.17, 190.13 272.33, 189.96 272.5, 189.78 272.67, 189.6 272.83, 189.41 273.0, 189.22 273.17, 189.02 273.33, 188.81 273.5, 188.6 273.67, 188.39 273.83, 188.16 274.0, 187.94 274.17, 187.71 274.33, 187.47 274.5, 187.22 274.67, 186.97 274.83, 186.72 275.0, 186.45 275.17, 186.19 275.33, 185.91 275.5, 185.63 275.67, 185.35 275.83, 185.05 276.0, 184.75 276.17, 184.45 276.33, 184.13 276.5, 183.81 276.67, 183.49 276.83, 183.16 277.0, 182.82 277.17, 182.47 277.33, 182.12 277.5, 181.76 277.67, 181.39 277.83, 181.02 278.0, 180.63 278.17, 180.25 278.33, 179.85 278.5, 179.45 278.67, 179.03 278.83, 178.62 279.0, 178.19 279.17, 177.76 279.33, 177.31 279.5, 176.86 279.67, 176.41 279.83, 175.94 280.0, 175.47 280.17, 174.98 280.33, 174.49 280.5, 174.0 280.67, 173.49 280.83, 172.97 281.0, 172.45 281.17, 171.92 281.33, 171.38 281.5, 170.83 281.67, 170.27 281.83, 169.7 282.0, 169.13 282.17, 168.54 282.33, 167.94 282.5, 167.34 282.67, 166.73 282.83, 166.11 283.0, 165.47 283.17, 164.83 283.33, 164.18 283.5, 163.52 283.67, 162.85 283.83, 162.17 284.0, 161.48 284.17, 160.78 284.33, 160.07 284.5, 159.35 284.67, 158.61 284.83, 157.87 285.0, 157.12 285.17, 156.36 285.33, 155.59 285.5, 154.8 285.67, 154.01 285.83, 153.2 286.0, 152.39 286.17, 151.56 286.33, 150.72 286.5, 149.87 286.67, 149.01 286.83, 148.14 287.0, 147.25 287.17, 146.36 287.33, 145.45 287.5, 144.53 287.67, 143.6 287.83, 142.66 288.0, 141.7 288.17, 140.73 288.33, 139.75 288.5, 138.76 288.67, 137.76 288.83, 136.74 289.0, 135.71 289.17, 134.67 289.33, 133.62 289.5, 132.55 289.67, 131.47 289.83, 130.38 290.0, 129.27 290.17, 128.15 290.33, 127.02 290.5, 125.87 290.67, 124.71 290.83, 123.54 291.0, 122.35 291.17, 121.15 291.33, 119.93 291.5, 118.7 291.67, 117.46 291.83, 116.2 292.0, 114.93 292.17, 113.64 292.33, 112.34 292.5, 111.02 292.67, 109.69 292.83, 108.35 293.0, 106.99 293.17, 105.61 293.33, 104.22 293.5, 102.81 293.67, 101.39 293.83, 99.96 294.0, 98.5 294.17, 97.03 294.33, 95.55 294.5, 94.05 294.67, 92.53 294.83, 91.0 295.0, 89.45 295.17, 87.89 295.33, 86.31 295.5, 84.71 295.67, 83.1 295.83, 81.47 296.0, 79.82 296.17, 78.15 296.33, 76.47 296.5, 74.77 296.67, 73.05 296.83, 71.32 297.0, 69.57 297.17, 67.8 297.33, 66.01 297.5, 64.21 297.67, 62.38 297.83, 60.54 298.0, 58.68 298.17, 56.8 298.33, 54.91 298.5, 52.99 298.67, 51.06 298.83, 49.1 299.0, 47.13 299.17, 45.14 299.33, 43.13 299.5, 41.1 299.67, 39.05 299.83, 36.98 300.0, 34.9 300.17, 32.79 300.33, 30.66 300.5, 28.51 300.67, 26.34 300.83, 24.16 301.0, 21.95 301.17, 19.72 301.33, 17.47 301.5, 15.2 301.67, 12.9 301.83, 10.59 302.0, 8.26 302.17, 5.9 302.33, 3.52 302.5, 1.12 302.67, -1.3 302.83, -3.74 303.0, -6.2 303.17, -8.69 303.33, -11.2 303.5, -13.73 303.67, -16.28 303.83, -18.86 304.0, -21.45 304.17, -24.08 304.33, -26.72 304.5, -29.39 304.67, -32.08 304.83, -34.79 305.0, -37.53 305.17, -40.29 305.33, -43.08 305.5, -45.89 305.67, -48.72 305.83, -51.58 306.0, -54.46 306.17, -57.37 306.33, -60.3 306.5, -63.26 306.67, -66.24 306.83, -69.24 307.0, -72.27 307.17, -75.33 307.33, -78.41 307.5, -81.52 307.67, -84.65 307.83, -87.81 308.0, -91.0 308.17, -94.21 308.33, -97.45 308.5, -100.71 308.67, -104.01 308.83, -107.32 309.0, -110.67 309.17, -114.04 309.33, -117.44 309.5, -120.87 309.67, -124.32 309.83, -127.8 310.0, -131.31 310.17, -134.85 310.33, -138.42 310.5, -142.01 310.67, -145.63 310.83, -149.29 311.0, -152.97 311.17, -156.67 311.33, -160.41 311.5, -164.18 311.67, -167.98 311.83, -171.8 312.0, -175.66 312.17, -179.54 312.33, -183.46 312.5, -187.4 312.67, -191.38 312.83, -195.39 313.0, -199.42 313.17, -203.49 313.33, -207.59 313.5, -211.72 313.67, -215.88 313.83, -220.07 314.0, -224.3 314.17, -228.55 314.33, -232.84 314.5, -237.16 314.67, -241.51 314.83, -245.9 315.0, -250.32 315.17, -254.76 315.33, -259.25 315.5, -263.76 315.67, -268.31 315.83, -272.89 316.0, -277.51 316.17, -282.16 316.33, -286.84 316.5, -291.56 316.67, -296.31 316.83, -301.1 317.0, -305.92 317.17, -310.77 317.33, -315.66 317.5, -320.59 317.67, -325.55 317.83, -330.55 318.0, -335.58 318.17, -340.65 318.33, -345.75 318.5, -350.89 318.67, -356.06 318.83, -361.28 319.0, -366.53 319.17, -371.81 319.33, -377.13 319.5, -382.49 319.67, -387.89 319.83, -393.33 320.0, -398.8 320.17, -404.31 320.33, -409.86 320.5, -415.45 320.67, -421.07 320.83, -426.74 321.0, -432.44 321.17, -438.18 321.33, -443.96 321.5, -449.78 321.67, -455.64 321.83, -461.54 322.0, -467.48 322.17, -473.46 322.33, -479.48 322.5, -485.54 322.67, -491.65 322.83, -497.79 323.0, -503.97 323.17, -510.2 323.33, -516.46 323.5, -522.77 323.67, -529.12 323.83, -535.51 324.0, -541.94 324.17, -548.42 324.33, -554.94 324.5, -561.5 324.67, -568.11 324.83, -574.75 325.0, -581.45 325.17, -588.18 325.33, -594.96 325.5, -601.78 325.67, -608.65 325.83, -615.56 326.0, -622.52 326.17, -629.52 326.33, -636.56 326.5, -643.65 326.67, -650.79 326.83, -657.97 327.0, -665.2 327.17, -672.47 327.33, -679.79 327.5, -687.16 327.67, -694.57 327.83, -702.03 328.0, -709.54 328.17, -717.09 328.33, -724.69 328.5, -732.34 328.67, -740.04 328.83, -747.79 329.0, -755.58 329.17, -763.42 329.33, -771.31 329.5, -779.25 329.67, -787.24 329.83, -795.28 330.0, -803.36 330.17, -811.5 330.33, -819.69 330.5, -827.93 330.67, -836.21 330.83, -844.55 331.0, -852.94 331.17, -861.38 331.33, -869.87 331.5, -878.42 331.67, -887.01 331.83, -895.66 332.0, -904.36 332.17, -913.11 332.33, -921.92 332.5, -930.77 332.67, -939.68 332.83, -948.65 333.0, -957.66 333.17, -966.73 333.33, -975.86 333.5, -985.04 333.67, -994.27 333.83, -1003.56 334.0, -1012.9 334.17, -1022.3 334.33, -1031.75 334.5, -1041.26 334.67, -1050.82 334.83, -1060.44 335.0, -1070.12 335.17, -1079.85 335.33, -1089.64 335.5, -1099.49 335.67, -1109.39 335.83, -1119.36 336.0, -1129.37 336.17, -1139.45 336.33, -1149.59 336.5, -1159.78 336.67, -1170.03 336.83, -1180.34 337.0, -1190.71 337.17, -1201.14 337.33, -1211.63 337.5, -1222.18 337.67, -1232.79 337.83, -1243.46 338.0, -1254.18 338.17, -1264.98 338.33, -1275.83 338.5, -1286.74 338.67, -1297.71 338.83, -1308.75 339.0, -1319.85 339.17, -1331.01 339.33, -1342.23 339.5, -1353.51 339.67, -1364.86 339.83, -1376.27 340.0, -1387.75 340.17, -1399.28 340.33, -1410.89 340.5, -1422.55 340.67, -1434.28 340.83, -1446.08 341.0, -1457.94 341.17, -1469.87 341.33, -1481.86 341.5, -1493.91 341.67, -1506.04 341.83, -1518.23 342.0, -1530.48 342.17, -1542.81 342.33, -1555.2 342.5, -1567.65 342.67, -1580.18 342.83, -1592.77 343.0, -1605.43 343.17, -1618.16 343.33, -1630.96 343.5, -1643.82 343.67, -1656.76 343.83, -1669.76 344.0, -1682.84 344.17, -1695.98 344.33, -1709.2 344.5, -1722.48 344.67, -1735.84 344.83, -1749.26 345.0, -1762.76 345.17, -1776.33 345.33, -1789.97 345.5, -1803.69 345.67, -1817.47 345.83, -1831.33 346.0, -1845.26 346.17, -1859.27 346.33, -1873.34 346.5, -1887.5 346.67, -1901.72 346.83, -1916.02 347.0, -1930.4 347.17, -1944.84 347.33, -1959.37 347.5, -1973.97 347.67, -1988.64 347.83, -2003.39 348.0, -2018.22 348.17, -2033.13 348.33, -2048.11 348.5, -2063.16 348.67, -2078.3 348.83, -2093.51 349.0, -2108.8 349.17, -2124.17 349.33, -2139.62 349.5, -2155.14 349.67, -2170.75 349.83, -2186.43 350.0, -2202.2 350.17, -2218.04 350.33, -2233.97 350.5, -2249.97 350.67, -2266.06 350.83, -2282.22 351.0, -2298.47 351.17, -2314.8 351.33, -2331.21 351.5, -2347.7 351.67, -2364.28 351.83, -2380.94 352.0, -2397.68 352.17, -2414.51 352.33, -2431.42 352.5, -2448.41 352.67, -2465.49 352.83, -2482.65 353.0, -2499.9 353.17, -2517.23 353.33, -2534.65 353.5, -2552.15 353.67, -2569.74 353.83, -2587.42 354.0, -2605.18 354.17, -2623.03 354.33, -2640.97 354.5, -2659.0 354.67, -2677.11 354.83, -2695.31 355.0, -2713.6 355.17, -2731.98 355.33, -2750.45 355.5, -2769.01 355.67, -2787.65 355.83, -2806.39 356.0, -2825.22 356.17, -2844.14 356.33, -2863.15 356.5, -2882.25 356.67, -2901.44 356.83, -2920.73 357.0, -2940.11 357.17, -2959.58 357.33, -2979.14 357.5, -2998.8 357.67, -3018.55 357.83, -3038.39 358.0, -3058.33 358.17, -3078.37 358.33, -3098.49 358.5, -3118.72 358.67, -3139.04 358.83, -3159.45 359.0, -3179.96 359.17, -3200.57 359.33, -3221.27 359.5, -3242.08 359.67, -3262.97 359.83, -3283.97 360.0, -3305.07 360.17, -3326.26 360.33, -3347.55 360.5, -3368.94 360.67, -3390.44 360.83, -3412.03 361.0, -3433.72 361.17, -3455.51 361.33, -3477.4 361.5, -3499.4 361.67, -3521.49 361.83, -3543.69 362.0, -3565.99 362.17, -3588.39 362.33, -3610.9 362.5, -3633.5 362.67, -3656.22 362.83, -3679.03 363.0, -3701.95 363.17, -3724.98 363.33, -3748.11 363.5, -3771.34 363.67, -3794.68 363.83, -3818.13 364.0, -3841.68 364.17, -3865.34 364.33, -3889.1 364.5, -3912.98 364.67, -3936.96 364.83, -3961.05 365.0, -3985.25 365.17, -4009.55 365.33, -4033.97 365.5, -4058.49 365.67, -4083.13 365.83, -4107.88 366.0, -4132.73 366.17, -4157.7 366.33, -4182.78 366.5, -4207.97 366.67, -4233.27 366.83, -4258.68 367.0, -4284.21 367.17, -4309.85 367.33, -4335.6 367.5, -4361.47 367.67, -4387.45 367.83, -4413.54 368.0, -4439.75 368.17, -4466.08 368.33, -4492.52 368.5, -4519.08 368.67, -4545.75 368.83, -4572.54 369.0, -4599.45 369.17, -4626.47 369.33, -4653.62 369.5, -4680.88 369.67, -4708.26 369.83, -4735.76 370.0, -4763.37 370.17, -4791.11 370.33, -4818.97 370.5, -4846.95 370.67, -4875.05 370.83, -4903.26 371.0, -4931.61 371.17, -4960.07 371.33, -4988.66 371.5, -5017.36 371.67, -5046.2 371.83, -5075.15 372.0, -5104.23 372.17, -5133.43 372.33, -5162.76 372.5, -5192.21 372.67, -5221.79 372.83, -5251.5 373.0, -5281.33 373.17, -5311.28 373.33, -5341.37 373.5, -5371.58 373.67, -5401.92 373.83, -5432.38 374.0, -5462.98 374.17, -5493.7 374.33, -5524.56 374.5, -5555.54 374.67, -5586.65 374.83, -5617.9 375.0, -5649.27 375.17, -5680.78 375.33, -5712.42 375.5, -5744.19 375.67, -5776.09 375.83, -5808.13 376.0, -5840.29 376.17, -5872.6 376.33, -5905.03 376.5, -5937.6 376.67, -5970.31 376.83, -6003.15 377.0, -6036.13 377.17, -6069.24 377.33, -6102.49 377.5, -6135.88 377.67, -6169.4 377.83, -6203.06 378.0, -6236.86 378.17, -6270.8 378.33, -6304.88 378.5, -6339.09 378.67, -6373.45 378.83, -6407.95 379.0, -6442.59 379.17, -6477.36 379.33, -6512.28 379.5, -6547.35 379.67, -6582.55 379.83, -6617.9 380.0, -6653.39 380.17, -6689.02 380.33, -6724.8 380.5, -6760.72 380.67, -6796.79 380.83, -6833.0 381.0, -6869.36 381.17, -6905.86 381.33, -6942.51 381.5, -6979.31 381.67, -7016.26 381.83, -7053.35 382.0, -7090.59 382.17, -7127.98 382.33, -7165.52 382.5, -7203.21 382.67, -7241.05 382.83, -7279.04 383.0, -7317.18 383.17, -7355.47 383.33, -7393.91 383.5, -7432.51 383.67, -7471.26 383.83, -7510.16 384.0, -7549.21 384.17, -7588.42 384.33, -7627.79 384.5, -7667.3 384.67, -7706.98 384.83, -7746.81 385.0, -7786.79 385.17, -7826.93 385.33, -7867.23 385.5, -7907.69 385.67, -7948.3 385.83, -7989.07 386.0, -8030.01 386.17, -8071.1 386.33, -8112.35 386.5, -8153.76 386.67, -8195.33 386.83, -8237.06 387.0, -8278.96 387.17, -8321.01 387.33, -8363.23 387.5, -8405.61 387.67, -8448.16 387.83, -8490.87 388.0, -8533.74 388.17, -8576.78 388.33, -8619.98 388.5, -8663.35 388.67, -8706.89 388.83, -8750.59 389.0, -8794.46 389.17, -8838.49 389.33, -8882.7 389.5, -8927.07 389.67, -8971.61 389.83, -9016.32 390.0, -9061.21 390.17, -9106.26 390.33, -9151.48 390.5, -9196.87 390.67, -9242.44 390.83, -9288.18 391.0, -9334.09 391.17, -9380.17 391.33, -9426.43 391.5, -9472.86 391.67, -9519.47 391.83, -9566.25 392.0, -9613.21 392.17, -9660.34 392.33, -9707.65 392.5, -9755.14 392.67, -9802.8 392.83, -9850.65 393.0, -9898.67 393.17, -9946.87 393.33, -9995.25 393.5, -10043.81 393.67, -10092.55 393.83, -10141.47 394.0, -10190.57 394.17, -10239.86 394.33, -10289.32 394.5, -10338.97 394.67, -10388.81 394.83, -10438.83 395.0, -10489.03 395.17, -10539.41 395.33, -10589.99 395.5, -10640.74 395.67, -10691.69 395.83, -10742.82 396.0, -10794.14 396.17, -10845.65 396.33, -10897.34 396.5, -10949.22 396.67, -11001.3 396.83, -11053.56 397.0, -11106.02 397.17, -11158.66 397.33, -11211.5 397.5, -11264.52 397.67, -11317.75 397.83, -11371.16 398.0, -11424.77 398.17, -11478.57 398.33, -11532.56 398.5, -11586.75 398.67, -11641.14 398.83, -11695.72 399.0, -11750.5 399.17, -11805.48 399.33, -11860.65 399.5, -11916.02 399.67, -11971.59 399.83, -12027.36 400.0, -12083.33 " fill="none" stroke="white" stroke-width="1.5" stroke-linejoin="round" stroke-opacity="1"/>

 </svg>