<svg version="1.1" 
 baseProfile="full" 
 width="400" 
 height="400" 
 xmlns="http://www.w3.org/2000/svg">
<rect x="0.0" y="0.0" width="400" height="400" fill="black" stroke="black" stroke-width="0" opacity="1"/>
<line x1="0.0" y1="0.0" x2="0.0" y2="400.0" stroke="white" stroke-width="1" opacity="0.4" stroke-linecap="butt"/>
<line x1="40.0" y1="0.0" x2="40.0" y2="400.0" stroke="white" stroke-width="1" opacity="0.4" stroke-linecap="butt"/>
<line x1="80.0" y1="0.0" x2="80.0" y2="400.0" stroke="white" stroke-width="1" opacity="0.4" stroke-linecap="butt"/>
<line x1="120.0" y1="0.0" x2="120.0" y2="400.0" stroke="white" stroke-width="1" opacity="0.4" stroke-linecap="butt"/>
<line x1="160.0" y1="0.0" x2="160.0" y2="400.0" stroke="white" stroke-width="1" opacity="0.4" stroke-linecap="butt"/>
<line x1="200.0" y1="0.0" x2="200.0" y2="400.0" stroke="white" stroke-width="1" opacity="0.4" stroke-linecap="butt"/>
<line x1="240.0" y1="0.0" x2="240.0" y2="400.0" stroke="white" stroke-width="1" opacity="0.4" stroke-linecap="butt"/>
<line x1="280.0" y1="0.0" x2="280.0" y2="400.0" stroke="white" stroke-width="1" opacity="0.4" stroke-linecap="butt"/>
<line x1="320.0" y1="0.0" x2="320.0" y2="400.0" stroke="white" stroke-width="1" opacity="0.4" stroke-linecap="butt"/>
<line x1="360.0" y1="0.0" x2="360.0" y2="400.0" stroke="white" stroke-width="1" opacity="0.4" stroke-linecap="butt"/>
<line x1="0.0" y1="0.0" x2="400.0" y2="0.0" stroke="white" stroke-width="1" opacity="0.4" stroke-linecap="butt"/>
<line x1="0.0" y1="40.0" x2="400.0" y2="40.0" stroke="white" stroke-width="1" opacity="0.4" stroke-linecap="butt"/>
<line x1="0.0" y1="80.0" x2="400.0" y2="80.0" stroke="white" stroke-width="1" opacity="0.4" stroke-linecap="butt"/>
<line x1="0.0" y1="120.0" x2="400.0" y2="120.0" stroke="white" stroke-width="1" opacity="0.4" stroke-linecap="butt"/>
<line x1="0.0" y1="160.0" x2="400.0" y2="160.0" stroke="white" stroke-width="1" opacity="0.4" stroke-linecap="butt"/>
<line x1="0.0" y1="200.0" x2="400.0" y2="200.0" stroke="white" stroke-width="1" opacity="0.4" stroke-linecap="butt"/>
<line x1="0.0" y1="240.0" x2="400.0" y2="240.0" stroke="white" stroke-width="1" opacity="0.4" stroke-linecap="butt"/>
<line x1="0.0" y1="280.0" x2="400.0" y2="280.0" stroke="white" stroke-width="1" opacity="0.4" stroke-linecap="butt"/>
<line x1="0.0" y1="320.0" x2="400.0" y2="320.0" stroke="white" stroke-width="1" opacity="0.4" stroke-linecap="butt"/>
<line x1="0.0" y1="360.0" x2="400.0" y2="360.0" stroke="white" stroke-width="1" opacity="0.4" stroke-linecap="butt"/>
<line x1="0.0" y1="200.0" x2="400.0" y2="200.0" stroke="yellow" stroke-width="2.5" opacity="1" stroke-linecap="butt"/>
<line x1="200.0" y1="0.0" x2="200.0" y2="400.0" stroke="yellow" stroke-width="2.5" opacity="1" stroke-linecap="butt"/>
<polygon points="391.0 204.0, 401.0 200.0, 391.0 196.0, 393.0 200.0" fill="yellow"/><polygon points="204.0 9.0, 200.0 -1.0, 196.0 9.0, 200.0 7.0" fill="yellow"/><image x="-60.0" y="-60.0" width="200" height="200" href="/Users/girirajhira/PycharmProjects/Giraphics3/Taylor/expr.png"/><polyline points="0.0, 12900.0 0.17, 12842.3 0.33, 12784.8 0.5, 12727.51 0.67, 12670.42 0.83, 12613.54 1.0, 12556.86 1.17, 12500.38 1.33, 12444.1 1.5, 12388.03 1.67, 12332.16 1.83, 12276.48 2.0, 12221.01 2.17, 12165.74 2.33, 12110.67 2.5, 12055.79 2.67, 12001.12 2.83, 11946.64 3.0, 11892.36 3.17, 11838.27 3.33, 11784.38 3.5, 11730.69 3.67, 11677.19 3.83, 11623.88 4.0, 11570.77 4.17, 11517.86 4.33, 11465.13 4.5, 11412.6 4.67, 11360.26 4.83, 11308.11 5.0, 11256.15 5.17, 11204.38 5.33, 11152.8 5.5, 11101.42 5.67, 11050.22 5.83, 10999.2 6.0, 10948.38 6.17, 10897.74 6.33, 10847.29 6.5, 10797.03 6.67, 10746.95 6.83, 10697.06 7.0, 10647.35 7.17, 10597.82 7.33, 10548.48 7.5, 10499.33 7.67, 10450.35 7.83, 10401.56 8.0, 10352.95 8.17, 10304.52 8.33, 10256.27 8.5, 10208.2 8.67, 10160.31 8.83, 10112.6 9.0, 10065.07 9.17, 10017.72 9.33, 9970.55 9.5, 9923.55 9.67, 9876.73 9.83, 9830.08 10.0, 9783.61 10.17, 9737.32 10.33, 9691.2 10.5, 9645.26 10.67, 9599.49 10.83, 9553.89 11.0, 9508.47 11.17, 9463.22 11.33, 9418.14 11.5, 9373.23 11.67, 9328.5 11.83, 9283.93 12.0, 9239.53 12.17, 9195.31 12.33, 9151.25 12.5, 9107.36 12.67, 9063.64 12.83, 9020.09 13.0, 8976.7 13.17, 8933.48 13.33, 8890.43 13.5, 8847.55 13.67, 8804.82 13.83, 8762.27 14.0, 8719.88 14.17, 8677.65 14.33, 8635.58 14.5, 8593.68 14.67, 8551.94 14.83, 8510.37 15.0, 8468.95 15.17, 8427.7 15.33, 8386.6 15.5, 8345.67 15.67, 8304.9 15.83, 8264.29 16.0, 8223.83 16.17, 8183.53 16.33, 8143.4 16.5, 8103.42 16.67, 8063.59 16.83, 8023.93 17.0, 7984.41 17.17, 7945.06 17.33, 7905.86 17.5, 7866.82 17.67, 7827.92 17.83, 7789.19 18.0, 7750.61 18.17, 7712.18 18.33, 7673.9 18.5, 7635.77 18.67, 7597.8 18.83, 7559.98 19.0, 7522.31 19.17, 7484.79 19.33, 7447.42 19.5, 7410.2 19.67, 7373.12 19.83, 7336.2 20.0, 7299.43 20.17, 7262.8 20.33, 7226.32 20.5, 7189.99 20.67, 7153.8 20.83, 7117.76 21.0, 7081.86 21.17, 7046.11 21.33, 7010.51 21.5, 6975.05 21.67, 6939.73 21.83, 6904.56 22.0, 6869.53 22.17, 6834.64 22.33, 6799.9 22.5, 6765.3 22.67, 6730.83 22.83, 6696.51 23.0, 6662.33 23.17, 6628.29 23.33, 6594.39 23.5, 6560.63 23.67, 6527.01 23.83, 6493.53 24.0, 6460.18 24.17, 6426.97 24.33, 6393.9 24.5, 6360.97 24.67, 6328.17 24.83, 6295.51 25.0, 6262.99 25.17, 6230.59 25.33, 6198.34 25.5, 6166.22 25.67, 6134.23 25.83, 6102.38 26.0, 6070.65 26.17, 6039.07 26.33, 6007.61 26.5, 5976.29 26.67, 5945.09 26.83, 5914.03 27.0, 5883.1 27.17, 5852.3 27.33, 5821.63 27.5, 5791.09 27.67, 5760.68 27.83, 5730.4 28.0, 5700.24 28.17, 5670.21 28.33, 5640.32 28.5, 5610.54 28.67, 5580.9 28.83, 5551.38 29.0, 5521.99 29.17, 5492.72 29.33, 5463.58 29.5, 5434.56 29.67, 5405.67 29.83, 5376.9 30.0, 5348.25 30.17, 5319.73 30.33, 5291.33 30.5, 5263.05 30.67, 5234.9 30.83, 5206.86 31.0, 5178.95 31.17, 5151.16 31.33, 5123.49 31.5, 5095.94 31.67, 5068.51 31.83, 5041.2 32.0, 5014.01 32.17, 4986.94 32.33, 4959.98 32.5, 4933.14 32.67, 4906.43 32.83, 4879.82 33.0, 4853.34 33.17, 4826.97 33.33, 4800.72 33.5, 4774.58 33.67, 4748.56 33.83, 4722.65 34.0, 4696.86 34.17, 4671.18 34.33, 4645.62 34.5, 4620.16 34.67, 4594.83 34.83, 4569.6 35.0, 4544.49 35.17, 4519.49 35.33, 4494.6 35.5, 4469.82 35.67, 4445.16 35.83, 4420.6 36.0, 4396.15 36.17, 4371.82 36.33, 4347.59 36.5, 4323.47 36.67, 4299.47 36.83, 4275.57 37.0, 4251.77 37.17, 4228.09 37.33, 4204.51 37.5, 4181.04 37.67, 4157.68 37.83, 4134.42 38.0, 4111.27 38.17, 4088.23 38.33, 4065.29 38.5, 4042.45 38.67, 4019.72 38.83, 3997.09 39.0, 3974.57 39.17, 3952.15 39.33, 3929.84 39.5, 3907.62 39.67, 3885.51 39.83, 3863.51 40.0, 3841.6 40.17, 3819.8 40.33, 3798.09 40.5, 3776.49 40.67, 3754.99 40.83, 3733.58 41.0, 3712.28 41.17, 3691.08 41.33, 3669.97 41.5, 3648.97 41.67, 3628.06 41.83, 3607.25 42.0, 3586.54 42.17, 3565.93 42.33, 3545.41 42.5, 3524.99 42.67, 3504.67 42.83, 3484.44 43.0, 3464.31 43.17, 3444.28 43.33, 3424.34 43.5, 3404.49 43.67, 3384.74 43.83, 3365.08 44.0, 3345.52 44.17, 3326.05 44.33, 3306.67 44.5, 3287.39 44.67, 3268.2 44.83, 3249.1 45.0, 3230.09 45.17, 3211.18 45.33, 3192.35 45.5, 3173.62 45.67, 3154.98 45.83, 3136.43 46.0, 3117.96 46.17, 3099.59 46.33, 3081.31 46.5, 3063.12 46.67, 3045.01 46.83, 3026.99 47.0, 3009.07 47.17, 2991.23 47.33, 2973.47 47.5, 2955.81 47.67, 2938.23 47.83, 2920.73 48.0, 2903.33 48.17, 2886.01 48.33, 2868.77 48.5, 2851.62 48.67, 2834.56 48.83, 2817.58 49.0, 2800.69 49.17, 2783.88 49.33, 2767.15 49.5, 2750.51 49.67, 2733.95 49.83, 2717.47 50.0, 2701.07 50.17, 2684.76 50.33, 2668.53 50.5, 2652.38 50.67, 2636.32 50.83, 2620.33 51.0, 2604.43 51.17, 2588.6 51.33, 2572.86 51.5, 2557.19 51.67, 2541.61 51.83, 2526.11 52.0, 2510.68 52.17, 2495.33 52.33, 2480.07 52.5, 2464.88 52.67, 2449.76 52.83, 2434.73 53.0, 2419.77 53.17, 2404.89 53.33, 2390.09 53.5, 2375.36 53.67, 2360.71 53.83, 2346.14 54.0, 2331.64 54.17, 2317.22 54.33, 2302.87 54.5, 2288.6 54.67, 2274.4 54.83, 2260.27 55.0, 2246.22 55.17, 2232.25 55.33, 2218.34 55.5, 2204.51 55.67, 2190.76 55.83, 2177.07 56.0, 2163.46 56.17, 2149.92 56.33, 2136.45 56.5, 2123.05 56.67, 2109.73 56.83, 2096.48 57.0, 2083.29 57.17, 2070.18 57.33, 2057.14 57.5, 2044.16 57.67, 2031.26 57.83, 2018.42 58.0, 2005.66 58.17, 1992.96 58.33, 1980.34 58.5, 1967.78 58.67, 1955.29 58.83, 1942.86 59.0, 1930.51 59.17, 1918.22 59.33, 1906.0 59.5, 1893.84 59.67, 1881.75 59.83, 1869.73 60.0, 1857.78 60.17, 1845.88 60.33, 1834.06 60.5, 1822.3 60.67, 1810.6 60.83, 1798.97 61.0, 1787.41 61.17, 1775.91 61.33, 1764.47 61.5, 1753.1 61.67, 1741.78 61.83, 1730.54 62.0, 1719.35 62.17, 1708.23 62.33, 1697.17 62.5, 1686.17 62.67, 1675.24 62.83, 1664.37 63.0, 1653.55 63.17, 1642.8 63.33, 1632.11 63.5, 1621.48 63.67, 1610.91 63.83, 1600.4 64.0, 1589.95 64.17, 1579.57 64.33, 1569.24 64.5, 1558.97 64.67, 1548.75 64.83, 1538.6 65.0, 1528.51 65.17, 1518.47 65.33, 1508.49 65.5, 1498.57 65.67, 1488.71 65.83, 1478.9 66.0, 1469.15 66.17, 1459.46 66.33, 1449.83 66.5, 1440.25 66.67, 1430.73 66.83, 1421.26 67.0, 1411.85 67.17, 1402.49 67.33, 1393.19 67.5, 1383.95 67.67, 1374.76 67.83, 1365.62 68.0, 1356.54 68.17, 1347.51 68.33, 1338.54 68.5, 1329.62 68.67, 1320.75 68.83, 1311.94 69.0, 1303.18 69.17, 1294.47 69.33, 1285.81 69.5, 1277.21 69.67, 1268.66 69.83, 1260.16 70.0, 1251.71 70.17, 1243.31 70.33, 1234.97 70.5, 1226.67 70.67, 1218.43 70.83, 1210.24 71.0, 1202.09 71.17, 1194.0 71.33, 1185.96 71.5, 1177.96 71.67, 1170.02 71.83, 1162.12 72.0, 1154.28 72.17, 1146.48 72.33, 1138.73 72.5, 1131.03 72.67, 1123.38 72.83, 1115.77 73.0, 1108.22 73.17, 1100.71 73.33, 1093.25 73.5, 1085.83 73.67, 1078.46 73.83, 1071.14 74.0, 1063.87 74.17, 1056.64 74.33, 1049.46 74.5, 1042.32 74.67, 1035.23 74.83, 1028.18 75.0, 1021.18 75.17, 1014.23 75.33, 1007.32 75.5, 1000.45 75.67, 993.63 75.83, 986.85 76.0, 980.12 76.17, 973.43 76.33, 966.78 76.5, 960.18 76.67, 953.62 76.83, 947.1 77.0, 940.63 77.17, 934.2 77.33, 927.81 77.5, 921.46 77.67, 915.16 77.83, 908.9 78.0, 902.67 78.17, 896.49 78.33, 890.36 78.5, 884.26 78.67, 878.2 78.83, 872.19 79.0, 866.21 79.17, 860.28 79.33, 854.38 79.5, 848.53 79.67, 842.71 79.83, 836.94 80.0, 831.2 80.17, 825.5 80.33, 819.84 80.5, 814.23 80.67, 808.64 80.83, 803.1 81.0, 797.6 81.17, 792.13 81.33, 786.7 81.5, 781.31 81.67, 775.96 81.83, 770.65 82.0, 765.37 82.17, 760.13 82.33, 754.92 82.5, 749.75 82.67, 744.62 82.83, 739.53 83.0, 734.47 83.17, 729.44 83.33, 724.46 83.5, 719.5 83.67, 714.59 83.83, 709.7 84.0, 704.86 84.17, 700.05 84.33, 695.27 84.5, 690.53 84.67, 685.82 84.83, 681.14 85.0, 676.5 85.17, 671.9 85.33, 667.33 85.5, 662.79 85.67, 658.28 85.83, 653.81 86.0, 649.37 86.17, 644.96 86.33, 640.59 86.5, 636.25 86.67, 631.94 86.83, 627.66 87.0, 623.41 87.17, 619.2 87.33, 615.02 87.5, 610.87 87.67, 606.75 87.83, 602.66 88.0, 598.61 88.17, 594.58 88.33, 590.58 88.5, 586.62 88.67, 582.68 88.83, 578.78 89.0, 574.91 89.17, 571.06 89.33, 567.25 89.5, 563.46 89.67, 559.71 89.83, 555.98 90.0, 552.28 90.17, 548.62 90.33, 544.98 90.5, 541.37 90.67, 537.78 90.83, 534.23 91.0, 530.7 91.17, 527.21 91.33, 523.74 91.5, 520.29 91.67, 516.88 91.83, 513.49 92.0, 510.13 92.17, 506.8 92.33, 503.49 92.5, 500.21 92.67, 496.96 92.83, 493.74 93.0, 490.54 93.17, 487.36 93.33, 484.22 93.5, 481.1 93.67, 478.0 93.83, 474.93 94.0, 471.89 94.17, 468.87 94.33, 465.87 94.5, 462.91 94.67, 459.96 94.83, 457.04 95.0, 454.15 95.17, 451.28 95.33, 448.44 95.5, 445.61 95.67, 442.82 95.83, 440.05 96.0, 437.3 96.17, 434.57 96.33, 431.87 96.5, 429.19 96.67, 426.54 96.83, 423.9 97.0, 421.3 97.17, 418.71 97.33, 416.15 97.5, 413.61 97.67, 411.09 97.83, 408.59 98.0, 406.12 98.17, 403.67 98.33, 401.24 98.5, 398.83 98.67, 396.45 98.83, 394.08 99.0, 391.74 99.17, 389.42 99.33, 387.12 99.5, 384.84 99.67, 382.58 99.83, 380.34 100.0, 378.13 100.17, 375.93 100.33, 373.75 100.5, 371.6 100.67, 369.46 100.83, 367.35 101.0, 365.25 101.17, 363.17 101.33, 361.12 101.5, 359.08 101.67, 357.07 101.83, 355.07 102.0, 353.09 102.17, 351.13 102.33, 349.19 102.5, 347.27 102.67, 345.36 102.83, 343.48 103.0, 341.61 103.17, 339.77 103.33, 337.94 103.5, 336.13 103.67, 334.33 103.83, 332.56 104.0, 330.8 104.17, 329.06 104.33, 327.34 104.5, 325.63 104.67, 323.94 104.83, 322.27 105.0, 320.62 105.17, 318.98 105.33, 317.36 105.5, 315.76 105.67, 314.18 105.83, 312.61 106.0, 311.05 106.17, 309.52 106.33, 308.0 106.5, 306.49 106.67, 305.0 106.83, 303.53 107.0, 302.07 107.17, 300.63 107.33, 299.2 107.5, 297.79 107.67, 296.4 107.83, 295.02 108.0, 293.65 108.17, 292.3 108.33, 290.97 108.5, 289.65 108.67, 288.34 108.83, 287.05 109.0, 285.78 109.17, 284.52 109.33, 283.27 109.5, 282.04 109.67, 280.82 109.83, 279.61 110.0, 278.42 110.17, 277.24 110.33, 276.08 110.5, 274.93 110.67, 273.79 110.83, 272.67 111.0, 271.56 111.17, 270.46 111.33, 269.38 111.5, 268.31 111.67, 267.25 111.83, 266.2 112.0, 265.17 112.17, 264.15 112.33, 263.14 112.5, 262.15 112.67, 261.17 112.83, 260.2 113.0, 259.24 113.17, 258.29 113.33, 257.36 113.5, 256.44 113.67, 255.53 113.83, 254.63 114.0, 253.74 114.17, 252.86 114.33, 252.0 114.5, 251.15 114.67, 250.31 114.83, 249.48 115.0, 248.66 115.17, 247.85 115.33, 247.05 115.5, 246.26 115.67, 245.49 115.83, 244.72 116.0, 243.97 116.17, 243.22 116.33, 242.49 116.5, 241.77 116.67, 241.05 116.83, 240.35 117.0, 239.66 117.17, 238.97 117.33, 238.3 117.5, 237.64 117.67, 236.98 117.83, 236.34 118.0, 235.7 118.17, 235.08 118.33, 234.46 118.5, 233.85 118.67, 233.26 118.83, 232.67 119.0, 232.09 119.17, 231.52 119.33, 230.96 119.5, 230.41 119.67, 229.86 119.83, 229.33 120.0, 228.8 120.17, 228.28 120.33, 227.77 120.5, 227.27 120.67, 226.78 120.83, 226.29 121.0, 225.82 121.17, 225.35 121.33, 224.89 121.5, 224.44 121.67, 223.99 121.83, 223.55 122.0, 223.12 122.17, 222.7 122.33, 222.29 122.5, 221.88 122.67, 221.48 122.83, 221.09 123.0, 220.71 123.17, 220.33 123.33, 219.96 123.5, 219.6 123.67, 219.24 123.83, 218.89 124.0, 218.55 124.17, 218.21 124.33, 217.88 124.5, 217.56 124.67, 217.25 124.83, 216.94 125.0, 216.64 125.17, 216.34 125.33, 216.05 125.5, 215.77 125.67, 215.49 125.83, 215.22 126.0, 214.95 126.17, 214.69 126.33, 214.44 126.5, 214.19 126.67, 213.95 126.83, 213.71 127.0, 213.48 127.17, 213.26 127.33, 213.04 127.5, 212.83 127.67, 212.62 127.83, 212.42 128.0, 212.22 128.17, 212.03 128.33, 211.84 128.5, 211.66 128.67, 211.48 128.83, 211.31 129.0, 211.14 129.17, 210.98 129.33, 210.82 129.5, 210.67 129.67, 210.52 129.83, 210.38 130.0, 210.24 130.17, 210.11 130.33, 209.98 130.5, 209.86 130.67, 209.74 130.83, 209.62 131.0, 209.51 131.17, 209.4 131.33, 209.3 131.5, 209.2 131.67, 209.1 131.83, 209.01 132.0, 208.93 132.17, 208.84 132.33, 208.76 132.5, 208.69 132.67, 208.62 132.83, 208.55 133.0, 208.49 133.17, 208.42 133.33, 208.37 133.5, 208.31 133.67, 208.26 133.83, 208.22 134.0, 208.17 134.17, 208.13 134.33, 208.1 134.5, 208.06 134.67, 208.03 134.83, 208.01 135.0, 207.98 135.17, 207.96 135.33, 207.94 135.5, 207.93 135.67, 207.92 135.83, 207.91 136.0, 207.9 136.17, 207.9 136.33, 207.9 136.5, 207.9 136.67, 207.9 136.83, 207.91 137.0, 207.92 137.17, 207.93 137.33, 207.94 137.5, 207.96 137.67, 207.98 137.83, 208.0 138.0, 208.03 138.17, 208.05 138.33, 208.08 138.5, 208.11 138.67, 208.14 138.83, 208.18 139.0, 208.21 139.17, 208.25 139.33, 208.29 139.5, 208.34 139.67, 208.38 139.83, 208.43 140.0, 208.48 140.17, 208.52 140.33, 208.58 140.5, 208.63 140.67, 208.68 140.83, 208.74 141.0, 208.8 141.17, 208.86 141.33, 208.92 141.5, 208.98 141.67, 209.05 141.83, 209.11 142.0, 209.18 142.17, 209.25 142.33, 209.32 142.5, 209.39 142.67, 209.46 142.83, 209.53 143.0, 209.61 143.17, 209.68 143.33, 209.76 143.5, 209.84 143.67, 209.92 143.83, 210.0 144.0, 210.08 144.17, 210.16 144.33, 210.24 144.5, 210.32 144.67, 210.41 144.83, 210.49 145.0, 210.58 145.17, 210.67 145.33, 210.75 145.5, 210.84 145.67, 210.93 145.83, 211.02 146.0, 211.11 146.17, 211.2 146.33, 211.29 146.5, 211.38 146.67, 211.47 146.83, 211.57 147.0, 211.66 147.17, 211.75 147.33, 211.85 147.5, 211.94 147.67, 212.04 147.83, 212.13 148.0, 212.23 148.17, 212.32 148.33, 212.42 148.5, 212.51 148.67, 212.61 148.83, 212.7 149.0, 212.8 149.17, 212.9 149.33, 212.99 149.5, 213.09 149.67, 213.19 149.83, 213.28 150.0, 213.38 150.17, 213.48 150.33, 213.57 150.5, 213.67 150.67, 213.76 150.83, 213.86 151.0, 213.96 151.17, 214.05 151.33, 214.15 151.5, 214.24 151.67, 214.34 151.83, 214.43 152.0, 214.53 152.17, 214.62 152.33, 214.72 152.5, 214.81 152.67, 214.9 152.83, 215.0 153.0, 215.09 153.17, 215.18 153.33, 215.27 153.5, 215.36 153.67, 215.45 153.83, 215.54 154.0, 215.63 154.17, 215.72 154.33, 215.81 154.5, 215.9 154.67, 215.99 154.83, 216.08 155.0, 216.16 155.17, 216.25 155.33, 216.33 155.5, 216.42 155.67, 216.5 155.83, 216.58 156.0, 216.67 156.17, 216.75 156.33, 216.83 156.5, 216.91 156.67, 216.99 156.83, 217.07 157.0, 217.15 157.17, 217.22 157.33, 217.3 157.5, 217.38 157.67, 217.45 157.83, 217.52 158.0, 217.6 158.17, 217.67 158.33, 217.74 158.5, 217.81 158.67, 217.88 158.83, 217.95 159.0, 218.02 159.17, 218.08 159.33, 218.15 159.5, 218.21 159.67, 218.28 159.83, 218.34 160.0, 218.4 160.17, 218.46 160.33, 218.52 160.5, 218.58 160.67, 218.64 160.83, 218.69 161.0, 218.75 161.17, 218.8 161.33, 218.86 161.5, 218.91 161.67, 218.96 161.83, 219.01 162.0, 219.06 162.17, 219.1 162.33, 219.15 162.5, 219.2 162.67, 219.24 162.83, 219.28 163.0, 219.33 163.17, 219.37 163.33, 219.41 163.5, 219.44 163.67, 219.48 163.83, 219.52 164.0, 219.55 164.17, 219.59 164.33, 219.62 164.5, 219.65 164.67, 219.68 164.83, 219.71 165.0, 219.73 165.17, 219.76 165.33, 219.78 165.5, 219.81 165.67, 219.83 165.83, 219.85 166.0, 219.87 166.17, 219.89 166.33, 219.91 166.5, 219.92 166.67, 219.94 166.83, 219.95 167.0, 219.96 167.17, 219.97 167.33, 219.98 167.5, 219.99 167.67, 220.0 167.83, 220.0 168.0, 220.01 168.17, 220.01 168.33, 220.01 168.5, 220.01 168.67, 220.01 168.83, 220.01 169.0, 220.0 169.17, 220.0 169.33, 219.99 169.5, 219.98 169.67, 219.97 169.83, 219.96 170.0, 219.95 170.17, 219.94 170.33, 219.92 170.5, 219.91 170.67, 219.89 170.83, 219.87 171.0, 219.85 171.17, 219.83 171.33, 219.81 171.5, 219.78 171.67, 219.76 171.83, 219.73 172.0, 219.7 172.17, 219.68 172.33, 219.64 172.5, 219.61 172.67, 219.58 172.83, 219.54 173.0, 219.51 173.17, 219.47 173.33, 219.43 173.5, 219.39 173.67, 219.35 173.83, 219.31 174.0, 219.26 174.17, 219.22 174.33, 219.17 174.5, 219.12 174.67, 219.08 174.83, 219.02 175.0, 218.97 175.17, 218.92 175.33, 218.87 175.5, 218.81 175.67, 218.75 175.83, 218.69 176.0, 218.63 176.17, 218.57 176.33, 218.51 176.5, 218.45 176.67, 218.38 176.83, 218.32 177.0, 218.25 177.17, 218.18 177.33, 218.11 177.5, 218.04 177.67, 217.97 177.83, 217.89 178.0, 217.82 178.17, 217.74 178.33, 217.66 178.5, 217.59 178.67, 217.51 178.83, 217.43 179.0, 217.34 179.17, 217.26 179.33, 217.18 179.5, 217.09 179.67, 217.0 179.83, 216.91 180.0, 216.82 180.17, 216.73 180.33, 216.64 180.5, 216.55 180.67, 216.46 180.83, 216.36 181.0, 216.26 181.17, 216.17 181.33, 216.07 181.5, 215.97 181.67, 215.87 181.83, 215.77 182.0, 215.66 182.17, 215.56 182.33, 215.45 182.5, 215.35 182.67, 215.24 182.83, 215.13 183.0, 215.02 183.17, 214.91 183.33, 214.8 183.5, 214.69 183.67, 214.58 183.83, 214.46 184.0, 214.35 184.17, 214.23 184.33, 214.11 184.5, 213.99 184.67, 213.87 184.83, 213.75 185.0, 213.63 185.17, 213.51 185.33, 213.39 185.5, 213.26 185.67, 213.14 185.83, 213.01 186.0, 212.88 186.17, 212.76 186.33, 212.63 186.5, 212.5 186.67, 212.37 186.83, 212.24 187.0, 212.1 187.17, 211.97 187.33, 211.84 187.5, 211.7 187.67, 211.57 187.83, 211.43 188.0, 211.29 188.17, 211.15 188.33, 211.02 188.5, 210.88 188.67, 210.74 188.83, 210.6 189.0, 210.45 189.17, 210.31 189.33, 210.17 189.5, 210.02 189.67, 209.88 189.83, 209.73 190.0, 209.59 190.17, 209.44 190.33, 209.29 190.5, 209.15 190.67, 209.0 190.83, 208.85 191.0, 208.7 191.17, 208.55 191.33, 208.4 191.5, 208.25 191.67, 208.09 191.83, 207.94 192.0, 207.79 192.17, 207.63 192.33, 207.48 192.5, 207.33 192.67, 207.17 192.83, 207.01 193.0, 206.86 193.17, 206.7 193.33, 206.54 193.5, 206.39 193.67, 206.23 193.83, 206.07 194.0, 205.91 194.17, 205.75 194.33, 205.59 194.5, 205.43 194.67, 205.27 194.83, 205.11 195.0, 204.95 195.17, 204.79 195.33, 204.62 195.5, 204.46 195.67, 204.3 195.83, 204.14 196.0, 203.97 196.17, 203.81 196.33, 203.65 196.5, 203.48 196.67, 203.32 196.83, 203.15 197.0, 202.99 197.17, 202.82 197.33, 202.66 197.5, 202.49 197.67, 202.33 197.83, 202.16 198.0, 202.0 198.17, 201.83 198.33, 201.66 198.5, 201.5 198.67, 201.33 198.83, 201.17 199.0, 201.0 199.17, 200.83 199.33, 200.67 199.5, 200.5 199.67, 200.33 199.83, 200.17 200.0, 200.0 200.17, 199.83 200.33, 199.67 200.5, 199.5 200.67, 199.33 200.83, 199.17 201.0, 199.0 201.17, 198.83 201.33, 198.67 201.5, 198.5 201.67, 198.34 201.83, 198.17 202.0, 198.0 202.17, 197.84 202.33, 197.67 202.5, 197.51 202.67, 197.34 202.83, 197.18 203.0, 197.01 203.17, 196.85 203.33, 196.68 203.5, 196.52 203.67, 196.35 203.83, 196.19 204.0, 196.03 204.17, 195.86 204.33, 195.7 204.5, 195.54 204.67, 195.38 204.83, 195.21 205.0, 195.05 205.17, 194.89 205.33, 194.73 205.5, 194.57 205.67, 194.41 205.83, 194.25 206.0, 194.09 206.17, 193.93 206.33, 193.77 206.5, 193.61 206.67, 193.46 206.83, 193.3 207.0, 193.14 207.17, 192.99 207.33, 192.83 207.5, 192.67 207.67, 192.52 207.83, 192.37 208.0, 192.21 208.17, 192.06 208.33, 191.91 208.5, 191.75 208.67, 191.6 208.83, 191.45 209.0, 191.3 209.17, 191.15 209.33, 191.0 209.5, 190.85 209.67, 190.71 209.83, 190.56 210.0, 190.41 210.17, 190.27 210.33, 190.12 210.5, 189.98 210.67, 189.83 210.83, 189.69 211.0, 189.55 211.17, 189.4 211.33, 189.26 211.5, 189.12 211.67, 188.98 211.83, 188.85 212.0, 188.71 212.17, 188.57 212.33, 188.43 212.5, 188.3 212.67, 188.16 212.83, 188.03 213.0, 187.9 213.17, 187.76 213.33, 187.63 213.5, 187.5 213.67, 187.37 213.83, 187.24 214.0, 187.12 214.17, 186.99 214.33, 186.86 214.5, 186.74 214.67, 186.61 214.83, 186.49 215.0, 186.37 215.17, 186.25 215.33, 186.13 215.5, 186.01 215.67, 185.89 215.83, 185.77 216.0, 185.65 216.17, 185.54 216.33, 185.42 216.5, 185.31 216.67, 185.2 216.83, 185.09 217.0, 184.98 217.17, 184.87 217.33, 184.76 217.5, 184.65 217.67, 184.55 217.83, 184.44 218.0, 184.34 218.17, 184.23 218.33, 184.13 218.5, 184.03 218.67, 183.93 218.83, 183.83 219.0, 183.74 219.17, 183.64 219.33, 183.54 219.5, 183.45 219.67, 183.36 219.83, 183.27 220.0, 183.18 220.17, 183.09 220.33, 183.0 220.5, 182.91 220.67, 182.82 220.83, 182.74 221.0, 182.66 221.17, 182.57 221.33, 182.49 221.5, 182.41 221.67, 182.34 221.83, 182.26 222.0, 182.18 222.17, 182.11 222.33, 182.03 222.5, 181.96 222.67, 181.89 222.83, 181.82 223.0, 181.75 223.17, 181.68 223.33, 181.62 223.5, 181.55 223.67, 181.49 223.83, 181.43 224.0, 181.37 224.17, 181.31 224.33, 181.25 224.5, 181.19 224.67, 181.13 224.83, 181.08 225.0, 181.03 225.17, 180.98 225.33, 180.92 225.5, 180.88 225.67, 180.83 225.83, 180.78 226.0, 180.74 226.17, 180.69 226.33, 180.65 226.5, 180.61 226.67, 180.57 226.83, 180.53 227.0, 180.49 227.17, 180.46 227.33, 180.42 227.5, 180.39 227.67, 180.36 227.83, 180.32 228.0, 180.3 228.17, 180.27 228.33, 180.24 228.5, 180.22 228.67, 180.19 228.83, 180.17 229.0, 180.15 229.17, 180.13 229.33, 180.11 229.5, 180.09 229.67, 180.08 229.83, 180.06 230.0, 180.05 230.17, 180.04 230.33, 180.03 230.5, 180.02 230.67, 180.01 230.83, 180.0 231.0, 180.0 231.17, 179.99 231.33, 179.99 231.5, 179.99 231.67, 179.99 231.83, 179.99 232.0, 179.99 232.17, 180.0 232.33, 180.0 232.5, 180.01 232.67, 180.02 232.83, 180.03 233.0, 180.04 233.17, 180.05 233.33, 180.06 233.5, 180.08 233.67, 180.09 233.83, 180.11 234.0, 180.13 234.17, 180.15 234.33, 180.17 234.5, 180.19 234.67, 180.22 234.83, 180.24 235.0, 180.27 235.17, 180.29 235.33, 180.32 235.5, 180.35 235.67, 180.38 235.83, 180.41 236.0, 180.45 236.17, 180.48 236.33, 180.52 236.5, 180.56 236.67, 180.59 236.83, 180.63 237.0, 180.67 237.17, 180.72 237.33, 180.76 237.5, 180.8 237.67, 180.85 237.83, 180.9 238.0, 180.94 238.17, 180.99 238.33, 181.04 238.5, 181.09 238.67, 181.14 238.83, 181.2 239.0, 181.25 239.17, 181.31 239.33, 181.36 239.5, 181.42 239.67, 181.48 239.83, 181.54 240.0, 181.6 240.17, 181.66 240.33, 181.72 240.5, 181.79 240.67, 181.85 240.83, 181.92 241.0, 181.98 241.17, 182.05 241.33, 182.12 241.5, 182.19 241.67, 182.26 241.83, 182.33 242.0, 182.4 242.17, 182.48 242.33, 182.55 242.5, 182.62 242.67, 182.7 242.83, 182.78 243.0, 182.85 243.17, 182.93 243.33, 183.01 243.5, 183.09 243.67, 183.17 243.83, 183.25 244.0, 183.33 244.17, 183.42 244.33, 183.5 244.5, 183.58 244.67, 183.67 244.83, 183.75 245.0, 183.84 245.17, 183.92 245.33, 184.01 245.5, 184.1 245.67, 184.19 245.83, 184.28 246.0, 184.37 246.17, 184.46 246.33, 184.55 246.5, 184.64 246.67, 184.73 246.83, 184.82 247.0, 184.91 247.17, 185.0 247.33, 185.1 247.5, 185.19 247.67, 185.28 247.83, 185.38 248.0, 185.47 248.17, 185.57 248.33, 185.66 248.5, 185.76 248.67, 185.85 248.83, 185.95 249.0, 186.04 249.17, 186.14 249.33, 186.24 249.5, 186.33 249.67, 186.43 249.83, 186.52 250.0, 186.62 250.17, 186.72 250.33, 186.81 250.5, 186.91 250.67, 187.01 250.83, 187.1 251.0, 187.2 251.17, 187.3 251.33, 187.39 251.5, 187.49 251.67, 187.58 251.83, 187.68 252.0, 187.77 252.17, 187.87 252.33, 187.96 252.5, 188.06 252.67, 188.15 252.83, 188.25 253.0, 188.34 253.17, 188.43 253.33, 188.53 253.5, 188.62 253.67, 188.71 253.83, 188.8 254.0, 188.89 254.17, 188.98 254.33, 189.07 254.5, 189.16 254.67, 189.25 254.83, 189.33 255.0, 189.42 255.17, 189.51 255.33, 189.59 255.5, 189.68 255.67, 189.76 255.83, 189.84 256.0, 189.92 256.17, 190.0 256.33, 190.08 256.5, 190.16 256.67, 190.24 256.83, 190.32 257.0, 190.39 257.17, 190.47 257.33, 190.54 257.5, 190.61 257.67, 190.68 257.83, 190.75 258.0, 190.82 258.17, 190.89 258.33, 190.95 258.5, 191.02 258.67, 191.08 258.83, 191.14 259.0, 191.2 259.17, 191.26 259.33, 191.32 259.5, 191.37 259.67, 191.42 259.83, 191.48 260.0, 191.52 260.17, 191.57 260.33, 191.62 260.5, 191.66 260.67, 191.71 260.83, 191.75 261.0, 191.79 261.17, 191.82 261.33, 191.86 261.5, 191.89 261.67, 191.92 261.83, 191.95 262.0, 191.97 262.17, 192.0 262.33, 192.02 262.5, 192.04 262.67, 192.06 262.83, 192.07 263.0, 192.08 263.17, 192.09 263.33, 192.1 263.5, 192.1 263.67, 192.1 263.83, 192.1 264.0, 192.1 264.17, 192.09 264.33, 192.08 264.5, 192.07 264.67, 192.06 264.83, 192.04 265.0, 192.02 265.17, 191.99 265.33, 191.97 265.5, 191.94 265.67, 191.9 265.83, 191.87 266.0, 191.83 266.17, 191.78 266.33, 191.74 266.5, 191.69 266.67, 191.63 266.83, 191.58 267.0, 191.51 267.17, 191.45 267.33, 191.38 267.5, 191.31 267.67, 191.24 267.83, 191.16 268.0, 191.07 268.17, 190.99 268.33, 190.9 268.5, 190.8 268.67, 190.7 268.83, 190.6 269.0, 190.49 269.17, 190.38 269.33, 190.26 269.5, 190.14 269.67, 190.02 269.83, 189.89 270.0, 189.76 270.17, 189.62 270.33, 189.48 270.5, 189.33 270.67, 189.18 270.83, 189.02 271.0, 188.86 271.17, 188.69 271.33, 188.52 271.5, 188.34 271.67, 188.16 271.83, 187.97 272.0, 187.78 272.17, 187.58 272.33, 187.38 272.5, 187.17 272.67, 186.96 272.83, 186.74 273.0, 186.52 273.17, 186.29 273.33, 186.05 273.5, 185.81 273.67, 185.56 273.83, 185.31 274.0, 185.05 274.17, 184.78 274.33, 184.51 274.5, 184.23 274.67, 183.95 274.83, 183.66 275.0, 183.36 275.17, 183.06 275.33, 182.75 275.5, 182.44 275.67, 182.12 275.83, 181.79 276.0, 181.45 276.17, 181.11 276.33, 180.76 276.5, 180.4 276.67, 180.04 276.83, 179.67 277.0, 179.29 277.17, 178.91 277.33, 178.52 277.5, 178.12 277.67, 177.71 277.83, 177.3 278.0, 176.88 278.17, 176.45 278.33, 176.01 278.5, 175.56 278.67, 175.11 278.83, 174.65 279.0, 174.18 279.17, 173.71 279.33, 173.22 279.5, 172.73 279.67, 172.23 279.83, 171.72 280.0, 171.2 280.17, 170.67 280.33, 170.14 280.5, 169.59 280.67, 169.04 280.83, 168.48 281.0, 167.91 281.17, 167.33 281.33, 166.74 281.5, 166.15 281.67, 165.54 281.83, 164.92 282.0, 164.3 282.17, 163.66 282.33, 163.02 282.5, 162.36 282.67, 161.7 282.83, 161.03 283.0, 160.34 283.17, 159.65 283.33, 158.95 283.5, 158.23 283.67, 157.51 283.83, 156.78 284.0, 156.03 284.17, 155.28 284.33, 154.51 284.5, 153.74 284.67, 152.95 284.83, 152.15 285.0, 151.34 285.17, 150.52 285.33, 149.69 285.5, 148.85 285.67, 148.0 285.83, 147.14 286.0, 146.26 286.17, 145.37 286.33, 144.47 286.5, 143.56 286.67, 142.64 286.83, 141.71 287.0, 140.76 287.17, 139.8 287.33, 138.83 287.5, 137.85 287.67, 136.86 287.83, 135.85 288.0, 134.83 288.17, 133.8 288.33, 132.75 288.5, 131.69 288.67, 130.62 288.83, 129.54 289.0, 128.44 289.17, 127.33 289.33, 126.21 289.5, 125.07 289.67, 123.92 289.83, 122.76 290.0, 121.58 290.17, 120.39 290.33, 119.18 290.5, 117.96 290.67, 116.73 290.83, 115.48 291.0, 114.22 291.17, 112.95 291.33, 111.66 291.5, 110.35 291.67, 109.03 291.83, 107.7 292.0, 106.35 292.17, 104.98 292.33, 103.6 292.5, 102.21 292.67, 100.8 292.83, 99.37 293.0, 97.93 293.17, 96.47 293.33, 95.0 293.5, 93.51 293.67, 92.0 293.83, 90.48 294.0, 88.95 294.17, 87.39 294.33, 85.82 294.5, 84.24 294.67, 82.64 294.83, 81.02 295.0, 79.38 295.17, 77.73 295.33, 76.06 295.5, 74.37 295.67, 72.66 295.83, 70.94 296.0, 69.2 296.17, 67.44 296.33, 65.67 296.5, 63.87 296.67, 62.06 296.83, 60.23 297.0, 58.39 297.17, 56.52 297.33, 54.64 297.5, 52.73 297.67, 50.81 297.83, 48.87 298.0, 46.91 298.17, 44.93 298.33, 42.93 298.5, 40.92 298.67, 38.88 298.83, 36.83 299.0, 34.75 299.17, 32.65 299.33, 30.54 299.5, 28.4 299.67, 26.25 299.83, 24.07 300.0, 21.87 300.17, 19.66 300.33, 17.42 300.5, 15.16 300.67, 12.88 300.83, 10.58 301.0, 8.26 301.17, 5.92 301.33, 3.55 301.5, 1.17 301.67, -1.24 301.83, -3.67 302.0, -6.12 302.17, -8.59 302.33, -11.09 302.5, -13.61 302.67, -16.15 302.83, -18.71 303.0, -21.3 303.17, -23.9 303.33, -26.54 303.5, -29.19 303.67, -31.87 303.83, -34.57 304.0, -37.3 304.17, -40.05 304.33, -42.82 304.5, -45.61 304.67, -48.44 304.83, -51.28 305.0, -54.15 305.17, -57.04 305.33, -59.96 305.5, -62.91 305.67, -65.87 305.83, -68.87 306.0, -71.89 306.17, -74.93 306.33, -78.0 306.5, -81.1 306.67, -84.22 306.83, -87.36 307.0, -90.54 307.17, -93.74 307.33, -96.96 307.5, -100.21 307.67, -103.49 307.83, -106.8 308.0, -110.13 308.17, -113.49 308.33, -116.88 308.5, -120.29 308.67, -123.74 308.83, -127.21 309.0, -130.7 309.17, -134.23 309.33, -137.78 309.5, -141.37 309.67, -144.98 309.83, -148.62 310.0, -152.28 310.17, -155.98 310.33, -159.71 310.5, -163.46 310.67, -167.25 310.83, -171.06 311.0, -174.91 311.17, -178.78 311.33, -182.68 311.5, -186.62 311.67, -190.58 311.83, -194.58 312.0, -198.61 312.17, -202.66 312.33, -206.75 312.5, -210.87 312.67, -215.02 312.83, -219.2 313.0, -223.41 313.17, -227.66 313.33, -231.94 313.5, -236.25 313.67, -240.59 313.83, -244.96 314.0, -249.37 314.17, -253.81 314.33, -258.28 314.5, -262.79 314.67, -267.33 314.83, -271.9 315.0, -276.5 315.17, -281.14 315.33, -285.82 315.5, -290.53 315.67, -295.27 315.83, -300.05 316.0, -304.86 316.17, -309.7 316.33, -314.59 316.5, -319.5 316.67, -324.46 316.83, -329.44 317.0, -334.47 317.17, -339.53 317.33, -344.62 317.5, -349.75 317.67, -354.92 317.83, -360.13 318.0, -365.37 318.17, -370.65 318.33, -375.96 318.5, -381.31 318.67, -386.7 318.83, -392.13 319.0, -397.6 319.17, -403.1 319.33, -408.64 319.5, -414.23 319.67, -419.84 319.83, -425.5 320.0, -431.2 320.17, -436.94 320.33, -442.71 320.5, -448.53 320.67, -454.38 320.83, -460.28 321.0, -466.21 321.17, -472.19 321.33, -478.2 321.5, -484.26 321.67, -490.36 321.83, -496.49 322.0, -502.67 322.17, -508.9 322.33, -515.16 322.5, -521.46 322.67, -527.81 322.83, -534.2 323.0, -540.63 323.17, -547.1 323.33, -553.62 323.5, -560.18 323.67, -566.78 323.83, -573.43 324.0, -580.12 324.17, -586.85 324.33, -593.63 324.5, -600.45 324.67, -607.32 324.83, -614.23 325.0, -621.18 325.17, -628.18 325.33, -635.23 325.5, -642.32 325.67, -649.46 325.83, -656.64 326.0, -663.87 326.17, -671.14 326.33, -678.46 326.5, -685.83 326.67, -693.25 326.83, -700.71 327.0, -708.22 327.17, -715.77 327.33, -723.38 327.5, -731.03 327.67, -738.73 327.83, -746.48 328.0, -754.28 328.17, -762.12 328.33, -770.02 328.5, -777.96 328.67, -785.96 328.83, -794.0 329.0, -802.09 329.17, -810.24 329.33, -818.43 329.5, -826.67 329.67, -834.97 329.83, -843.31 330.0, -851.71 330.17, -860.16 330.33, -868.66 330.5, -877.21 330.67, -885.81 330.83, -894.47 331.0, -903.18 331.17, -911.94 331.33, -920.75 331.5, -929.62 331.67, -938.54 331.83, -947.51 332.0, -956.54 332.17, -965.62 332.33, -974.76 332.5, -983.95 332.67, -993.19 332.83, -1002.49 333.0, -1011.85 333.17, -1021.26 333.33, -1030.73 333.5, -1040.25 333.67, -1049.83 333.83, -1059.46 334.0, -1069.15 334.17, -1078.9 334.33, -1088.71 334.5, -1098.57 334.67, -1108.49 334.83, -1118.47 335.0, -1128.51 335.17, -1138.6 335.33, -1148.75 335.5, -1158.97 335.67, -1169.24 335.83, -1179.57 336.0, -1189.95 336.17, -1200.4 336.33, -1210.91 336.5, -1221.48 336.67, -1232.11 336.83, -1242.8 337.0, -1253.55 337.17, -1264.37 337.33, -1275.24 337.5, -1286.17 337.67, -1297.17 337.83, -1308.23 338.0, -1319.35 338.17, -1330.54 338.33, -1341.78 338.5, -1353.1 338.67, -1364.47 338.83, -1375.91 339.0, -1387.41 339.17, -1398.97 339.33, -1410.6 339.5, -1422.3 339.67, -1434.06 339.83, -1445.88 340.0, -1457.78 340.17, -1469.73 340.33, -1481.75 340.5, -1493.84 340.67, -1506.0 340.83, -1518.22 341.0, -1530.51 341.17, -1542.86 341.33, -1555.29 341.5, -1567.78 341.67, -1580.34 341.83, -1592.96 342.0, -1605.66 342.17, -1618.42 342.33, -1631.26 342.5, -1644.16 342.67, -1657.14 342.83, -1670.18 343.0, -1683.29 343.17, -1696.48 343.33, -1709.73 343.5, -1723.05 343.67, -1736.45 343.83, -1749.92 344.0, -1763.46 344.17, -1777.07 344.33, -1790.76 344.5, -1804.51 344.67, -1818.34 344.83, -1832.25 345.0, -1846.22 345.17, -1860.27 345.33, -1874.4 345.5, -1888.6 345.67, -1902.87 345.83, -1917.22 346.0, -1931.64 346.17, -1946.14 346.33, -1960.71 346.5, -1975.36 346.67, -1990.09 346.83, -2004.89 347.0, -2019.77 347.17, -2034.73 347.33, -2049.76 347.5, -2064.88 347.67, -2080.07 347.83, -2095.33 348.0, -2110.68 348.17, -2126.11 348.33, -2141.61 348.5, -2157.19 348.67, -2172.86 348.83, -2188.6 349.0, -2204.43 349.17, -2220.33 349.33, -2236.32 349.5, -2252.38 349.67, -2268.53 349.83, -2284.76 350.0, -2301.07 350.17, -2317.47 350.33, -2333.95 350.5, -2350.51 350.67, -2367.15 350.83, -2383.88 351.0, -2400.69 351.17, -2417.58 351.33, -2434.56 351.5, -2451.62 351.67, -2468.77 351.83, -2486.01 352.0, -2503.33 352.17, -2520.73 352.33, -2538.23 352.5, -2555.81 352.67, -2573.47 352.83, -2591.23 353.0, -2609.07 353.17, -2626.99 353.33, -2645.01 353.5, -2663.12 353.67, -2681.31 353.83, -2699.59 354.0, -2717.96 354.17, -2736.43 354.33, -2754.98 354.5, -2773.62 354.67, -2792.35 354.83, -2811.18 355.0, -2830.09 355.17, -2849.1 355.33, -2868.2 355.5, -2887.39 355.67, -2906.67 355.83, -2926.05 356.0, -2945.52 356.17, -2965.08 356.33, -2984.74 356.5, -3004.49 356.67, -3024.34 356.83, -3044.28 357.0, -3064.31 357.17, -3084.44 357.33, -3104.67 357.5, -3124.99 357.67, -3145.41 357.83, -3165.93 358.0, -3186.54 358.17, -3207.25 358.33, -3228.06 358.5, -3248.97 358.67, -3269.97 358.83, -3291.08 359.0, -3312.28 359.17, -3333.58 359.33, -3354.99 359.5, -3376.49 359.67, -3398.09 359.83, -3419.8 360.0, -3441.6 360.17, -3463.51 360.33, -3485.51 360.5, -3507.62 360.67, -3529.84 360.83, -3552.15 361.0, -3574.57 361.17, -3597.09 361.33, -3619.72 361.5, -3642.45 361.67, -3665.29 361.83, -3688.23 362.0, -3711.27 362.17, -3734.42 362.33, -3757.68 362.5, -3781.04 362.67, -3804.51 362.83, -3828.09 363.0, -3851.77 363.17, -3875.57 363.33, -3899.47 363.5, -3923.47 363.67, -3947.59 363.83, -3971.82 364.0, -3996.15 364.17, -4020.6 364.33, -4045.16 364.5, -4069.82 364.67, -4094.6 364.83, -4119.49 365.0, -4144.49 365.17, -4169.6 365.33, -4194.83 365.5, -4220.16 365.67, -4245.62 365.83, -4271.18 366.0, -4296.86 366.17, -4322.65 366.33, -4348.56 366.5, -4374.58 366.67, -4400.72 366.83, -4426.97 367.0, -4453.34 367.17, -4479.82 367.33, -4506.43 367.5, -4533.14 367.67, -4559.98 367.83, -4586.94 368.0, -4614.01 368.17, -4641.2 368.33, -4668.51 368.5, -4695.94 368.67, -4723.49 368.83, -4751.16 369.0, -4778.95 369.17, -4806.86 369.33, -4834.9 369.5, -4863.05 369.67, -4891.33 369.83, -4919.73 370.0, -4948.25 370.17, -4976.9 370.33, -5005.67 370.5, -5034.56 370.67, -5063.58 370.83, -5092.72 371.0, -5121.99 371.17, -5151.38 371.33, -5180.9 371.5, -5210.54 371.67, -5240.32 371.83, -5270.21 372.0, -5300.24 372.17, -5330.4 372.33, -5360.68 372.5, -5391.09 372.67, -5421.63 372.83, -5452.3 373.0, -5483.1 373.17, -5514.03 373.33, -5545.09 373.5, -5576.29 373.67, -5607.61 373.83, -5639.07 374.0, -5670.65 374.17, -5702.38 374.33, -5734.23 374.5, -5766.22 374.67, -5798.34 374.83, -5830.59 375.0, -5862.99 375.17, -5895.51 375.33, -5928.17 375.5, -5960.97 375.67, -5993.9 375.83, -6026.97 376.0, -6060.18 376.17, -6093.53 376.33, -6127.01 376.5, -6160.63 376.67, -6194.39 376.83, -6228.29 377.0, -6262.33 377.17, -6296.51 377.33, -6330.83 377.5, -6365.3 377.67, -6399.9 377.83, -6434.64 378.0, -6469.53 378.17, -6504.56 378.33, -6539.73 378.5, -6575.05 378.67, -6610.51 378.83, -6646.11 379.0, -6681.86 379.17, -6717.76 379.33, -6753.8 379.5, -6789.99 379.67, -6826.32 379.83, -6862.8 380.0, -6899.43 380.17, -6936.2 380.33, -6973.12 380.5, -7010.2 380.67, -7047.42 380.83, -7084.79 381.0, -7122.31 381.17, -7159.98 381.33, -7197.8 381.5, -7235.77 381.67, -7273.9 381.83, -7312.18 382.0, -7350.61 382.17, -7389.19 382.33, -7427.92 382.5, -7466.82 382.67, -7505.86 382.83, -7545.06 383.0, -7584.41 383.17, -7623.93 383.33, -7663.59 383.5, -7703.42 383.67, -7743.4 383.83, -7783.53 384.0, -7823.83 384.17, -7864.29 384.33, -7904.9 384.5, -7945.67 384.67, -7986.6 384.83, -8027.7 385.0, -8068.95 385.17, -8110.37 385.33, -8151.94 385.5, -8193.68 385.67, -8235.58 385.83, -8277.65 386.0, -8319.88 386.17, -8362.27 386.33, -8404.82 386.5, -8447.55 386.67, -8490.43 386.83, -8533.48 387.0, -8576.7 387.17, -8620.09 387.33, -8663.64 387.5, -8707.36 387.67, -8751.25 387.83, -8795.31 388.0, -8839.53 388.17, -8883.93 388.33, -8928.5 388.5, -8973.23 388.67, -9018.14 388.83, -9063.22 389.0, -9108.47 389.17, -9153.89 389.33, -9199.49 389.5, -9245.26 389.67, -9291.2 389.83, -9337.32 390.0, -9383.61 390.17, -9430.08 390.33, -9476.73 390.5, -9523.55 390.67, -9570.55 390.83, -9617.72 391.0, -9665.07 391.17, -9712.6 391.33, -9760.31 391.5, -9808.2 391.67, -9856.27 391.83, -9904.52 392.0, -9952.95 392.17, -10001.56 392.33, -10050.35 392.5, -10099.33 392.67, -10148.48 392.83, -10197.82 393.0, -10247.35 393.17, -10297.06 393.33, -10346.95 393.5, -10397.03 393.67, -10447.29 393.83, -10497.74 394.0, -10548.38 394.17, -10599.2 394.33, -10650.22 394.5, -10701.42 394.67, -10752.8 394.83, -10804.38 395.0, -10856.15 395.17, -10908.11 395.33, -10960.26 395.5, -11012.6 395.67, -11065.13 395.83, -11117.86 396.0, -11170.77 396.17, -11223.88 396.33, -11277.19 396.5, -11330.69 396.67, -11384.38 396.83, -11438.27 397.0, -11492.36 397.17, -11546.64 397.33, -11601.12 397.5, -11655.79 397.67, -11710.67 397.83, -11765.74 398.0, -11821.01 398.17, -11876.48 398.33, -11932.16 398.5, -11988.03 398.67, -12044.1 398.83, -12100.38 399.0, -12156.86 399.17, -12213.54 399.33, -12270.42 399.5, -12327.51 399.67, -12384.8 399.83, -12442.3 400.0, -12500.0 " fill="none" stroke="white" stroke-width="1.5" stroke-linejoin="round" stroke-opacity="1"/>

 </svg>