<svg version="1.1" 
 baseProfile="full" 
 width="400" 
 height="400" 
 xmlns="http://www.w3.org/2000/svg">
<rect x="0.0" y="0.0" width="400" height="400" fill="black" stroke="black" stroke-width="0" opacity="1"/>
<line x1="0.0" y1="0.0" x2="0.0" y2="400.0" stroke="white" stroke-width="1" opacity="0.4" stroke-linecap="butt"/>
<line x1="40.0" y1="0.0" x2="40.0" y2="400.0" stroke="white" stroke-width="1" opacity="0.4" stroke-linecap="butt"/>
<line x1="80.0" y1="0.0" x2="80.0" y2="400.0" stroke="white" stroke-width="1" opacity="0.4" stroke-linecap="butt"/>
<line x1="120.0" y1="0.0" x2="120.0" y2="400.0" stroke="white" stroke-width="1" opacity="0.4" stroke-linecap="butt"/>
<line x1="160.0" y1="0.0" x2="160.0" y2="400.0" stroke="white" stroke-width="1" opacity="0.4" stroke-linecap="butt"/>
<line x1="200.0" y1="0.0" x2="200.0" y2="400.0" stroke="white" stroke-width="1" opacity="0.4" stroke-linecap="butt"/>
<line x1="240.0" y1="0.0" x2="240.0" y2="400.0" stroke="white" stroke-width="1" opacity="0.4" stroke-linecap="butt"/>
<line x1="280.0" y1="0.0" x2="280.0" y2="400.0" stroke="white" stroke-width="1" opacity="0.4" stroke-linecap="butt"/>
<line x1="320.0" y1="0.0" x2="320.0" y2="400.0" stroke="white" stroke-width="1" opacity="0.4" stroke-linecap="butt"/>
<line x1="360.0" y1="0.0" x2="360.0" y2="400.0" stroke="white" stroke-width="1" opacity="0.4" stroke-linecap="butt"/>
<line x1="0.0" y1="0.0" x2="400.0" y2="0.0" stroke="white" stroke-width="1" opacity="0.4" stroke-linecap="butt"/>
<line x1="0.0" y1="40.0" x2="400.0" y2="40.0" stroke="white" stroke-width="1" opacity="0.4" stroke-linecap="butt"/>
<line x1="0.0" y1="80.0" x2="400.0" y2="80.0" stroke="white" stroke-width="1" opacity="0.4" stroke-linecap="butt"/>
<line x1="0.0" y1="120.0" x2="400.0" y2="120.0" stroke="white" stroke-width="1" opacity="0.4" stroke-linecap="butt"/>
<line x1="0.0" y1="160.0" x2="400.0" y2="160.0" stroke="white" stroke-width="1" opacity="0.4" stroke-linecap="butt"/>
<line x1="0.0" y1="200.0" x2="400.0" y2="200.0" stroke="white" stroke-width="1" opacity="0.4" stroke-linecap="butt"/>
<line x1="0.0" y1="240.0" x2="400.0" y2="240.0" stroke="white" stroke-width="1" opacity="0.4" stroke-linecap="butt"/>
<line x1="0.0" y1="280.0" x2="400.0" y2="280.0" stroke="white" stroke-width="1" opacity="0.4" stroke-linecap="butt"/>
<line x1="0.0" y1="320.0" x2="400.0" y2="320.0" stroke="white" stroke-width="1" opacity="0.4" stroke-linecap="butt"/>
<line x1="0.0" y1="360.0" x2="400.0" y2="360.0" stroke="white" stroke-width="1" opacity="0.4" stroke-linecap="butt"/>
<line x1="0.0" y1="200.0" x2="400.0" y2="200.0" stroke="yellow" stroke-width="2.5" opacity="1" stroke-linecap="butt"/>
<line x1="200.0" y1="0.0" x2="200.0" y2="400.0" stroke="yellow" stroke-width="2.5" opacity="1" stroke-linecap="butt"/>
<polygon points="391.0 204.0, 401.0 200.0, 391.0 196.0, 393.0 200.0" fill="yellow"/><polygon points="204.0 9.0, 200.0 -1.0, 196.0 9.0, 200.0 7.0" fill="yellow"/><image x="-60.0" y="-60.0" width="200" height="200" href="/Users/girirajhira/PycharmProjects/Giraphics3/Taylor/expr.png"/><polyline points="0.0, 10261.11 0.17, 10220.15 0.33, 10179.3 0.5, 10138.56 0.67, 10097.95 0.83, 10057.45 1.0, 10017.06 1.17, 9976.79 1.33, 9936.64 1.5, 9896.6 1.67, 9856.67 1.83, 9816.86 2.0, 9777.17 2.17, 9737.59 2.33, 9698.12 2.5, 9658.77 2.67, 9619.53 2.83, 9580.41 3.0, 9541.4 3.17, 9502.5 3.33, 9463.72 3.5, 9425.05 3.67, 9386.49 3.83, 9348.05 4.0, 9309.72 4.17, 9271.5 4.33, 9233.39 4.5, 9195.4 4.67, 9157.52 4.83, 9119.75 5.0, 9082.09 5.17, 9044.55 5.33, 9007.11 5.5, 8969.79 5.67, 8932.58 5.83, 8895.48 6.0, 8858.49 6.17, 8821.62 6.33, 8784.85 6.5, 8748.19 6.67, 8711.65 6.83, 8675.21 7.0, 8638.89 7.17, 8602.67 7.33, 8566.56 7.5, 8530.57 7.67, 8494.68 7.83, 8458.9 8.0, 8423.23 8.17, 8387.67 8.33, 8352.22 8.5, 8316.88 8.67, 8281.64 8.83, 8246.52 9.0, 8211.5 9.17, 8176.59 9.33, 8141.79 9.5, 8107.09 9.67, 8072.5 9.83, 8038.02 10.0, 8003.65 10.17, 7969.38 10.33, 7935.22 10.5, 7901.17 10.67, 7867.22 10.83, 7833.38 11.0, 7799.65 11.17, 7766.02 11.33, 7732.5 11.5, 7699.08 11.67, 7665.77 11.83, 7632.56 12.0, 7599.46 12.17, 7566.47 12.33, 7533.57 12.5, 7500.79 12.67, 7468.1 12.83, 7435.52 13.0, 7403.05 13.17, 7370.68 13.33, 7338.41 13.5, 7306.25 13.67, 7274.19 13.83, 7242.23 14.0, 7210.38 14.17, 7178.63 14.33, 7146.98 14.5, 7115.43 14.67, 7083.99 14.83, 7052.65 15.0, 7021.41 15.17, 6990.27 15.33, 6959.23 15.5, 6928.3 15.67, 6897.46 15.83, 6866.73 16.0, 6836.1 16.17, 6805.57 16.33, 6775.14 16.5, 6744.81 16.67, 6714.58 16.83, 6684.45 17.0, 6654.42 17.17, 6624.49 17.33, 6594.66 17.5, 6564.92 17.67, 6535.29 17.83, 6505.76 18.0, 6476.32 18.17, 6446.99 18.33, 6417.75 18.5, 6388.61 18.67, 6359.57 18.83, 6330.63 19.0, 6301.78 19.17, 6273.03 19.33, 6244.38 19.5, 6215.83 19.67, 6187.37 19.83, 6159.01 20.0, 6130.75 20.17, 6102.58 20.33, 6074.51 20.5, 6046.54 20.67, 6018.66 20.83, 5990.87 21.0, 5963.19 21.17, 5935.59 21.33, 5908.1 21.5, 5880.7 21.67, 5853.39 21.83, 5826.18 22.0, 5799.06 22.17, 5772.04 22.33, 5745.11 22.5, 5718.27 22.67, 5691.53 22.83, 5664.88 23.0, 5638.33 23.17, 5611.86 23.33, 5585.49 23.5, 5559.22 23.67, 5533.04 23.83, 5506.94 24.0, 5480.95 24.17, 5455.04 24.33, 5429.23 24.5, 5403.5 24.67, 5377.87 24.83, 5352.33 25.0, 5326.88 25.17, 5301.52 25.33, 5276.26 25.5, 5251.08 25.67, 5225.99 25.83, 5201.0 26.0, 5176.09 26.17, 5151.28 26.33, 5126.55 26.5, 5101.91 26.67, 5077.37 26.83, 5052.91 27.0, 5028.54 27.17, 5004.26 27.33, 4980.07 27.5, 4955.96 27.67, 4931.95 27.83, 4908.02 28.0, 4884.18 28.17, 4860.43 28.33, 4836.76 28.5, 4813.19 28.67, 4789.7 28.83, 4766.29 29.0, 4742.98 29.17, 4719.75 29.33, 4696.6 29.5, 4673.55 29.67, 4650.58 29.83, 4627.69 30.0, 4604.89 30.17, 4582.18 30.33, 4559.55 30.5, 4537.0 30.67, 4514.54 30.83, 4492.17 31.0, 4469.88 31.17, 4447.67 31.33, 4425.55 31.5, 4403.51 31.67, 4381.56 31.83, 4359.69 32.0, 4337.9 32.17, 4316.2 32.33, 4294.57 32.5, 4273.04 32.67, 4251.58 32.83, 4230.21 33.0, 4208.92 33.17, 4187.71 33.33, 4166.58 33.5, 4145.53 33.67, 4124.57 33.83, 4103.69 34.0, 4082.89 34.17, 4062.17 34.33, 4041.53 34.5, 4020.97 34.67, 4000.49 34.83, 3980.09 35.0, 3959.77 35.17, 3939.53 35.33, 3919.37 35.5, 3899.29 35.67, 3879.29 35.83, 3859.37 36.0, 3839.53 36.17, 3819.77 36.33, 3800.08 36.5, 3780.47 36.67, 3760.94 36.83, 3741.49 37.0, 3722.12 37.17, 3702.82 37.33, 3683.61 37.5, 3664.47 37.67, 3645.4 37.83, 3626.41 38.0, 3607.5 38.17, 3588.67 38.33, 3569.91 38.5, 3551.23 38.67, 3532.63 38.83, 3514.1 39.0, 3495.64 39.17, 3477.26 39.33, 3458.96 39.5, 3440.73 39.67, 3422.57 39.83, 3404.49 40.0, 3386.49 40.17, 3368.56 40.33, 3350.7 40.5, 3332.92 40.67, 3315.21 40.83, 3297.57 41.0, 3280.01 41.17, 3262.52 41.33, 3245.1 41.5, 3227.76 41.67, 3210.49 41.83, 3193.29 42.0, 3176.16 42.17, 3159.11 42.33, 3142.12 42.5, 3125.21 42.67, 3108.37 42.83, 3091.6 43.0, 3074.91 43.17, 3058.28 43.33, 3041.72 43.5, 3025.24 43.67, 3008.82 43.83, 2992.48 44.0, 2976.2 44.17, 2960.0 44.33, 2943.86 44.5, 2927.79 44.67, 2911.8 44.83, 2895.87 45.0, 2880.01 45.17, 2864.22 45.33, 2848.5 45.5, 2832.84 45.67, 2817.26 45.83, 2801.74 46.0, 2786.29 46.17, 2770.91 46.33, 2755.59 46.5, 2740.34 46.67, 2725.16 46.83, 2710.05 47.0, 2695.0 47.17, 2680.02 47.33, 2665.11 47.5, 2650.26 47.67, 2635.48 47.83, 2620.76 48.0, 2606.11 48.17, 2591.52 48.33, 2577.0 48.5, 2562.55 48.67, 2548.16 48.83, 2533.83 49.0, 2519.57 49.17, 2505.37 49.33, 2491.24 49.5, 2477.17 49.67, 2463.16 49.83, 2449.22 50.0, 2435.34 50.17, 2421.53 50.33, 2407.77 50.5, 2394.09 50.67, 2380.46 50.83, 2366.89 51.0, 2353.39 51.17, 2339.95 51.33, 2326.57 51.5, 2313.26 51.67, 2300.0 51.83, 2286.81 52.0, 2273.68 52.17, 2260.61 52.33, 2247.6 52.5, 2234.65 52.67, 2221.76 52.83, 2208.93 53.0, 2196.16 53.17, 2183.45 53.33, 2170.81 53.5, 2158.22 53.67, 2145.69 53.83, 2133.22 54.0, 2120.81 54.17, 2108.45 54.33, 2096.16 54.5, 2083.93 54.67, 2071.75 54.83, 2059.63 55.0, 2047.57 55.17, 2035.57 55.33, 2023.62 55.5, 2011.74 55.67, 1999.91 55.83, 1988.13 56.0, 1976.42 56.17, 1964.76 56.33, 1953.16 56.5, 1941.61 56.67, 1930.12 56.83, 1918.69 57.0, 1907.31 57.17, 1895.99 57.33, 1884.72 57.5, 1873.51 57.67, 1862.36 57.83, 1851.26 58.0, 1840.21 58.17, 1829.22 58.33, 1818.28 58.5, 1807.4 58.67, 1796.57 58.83, 1785.8 59.0, 1775.08 59.17, 1764.41 59.33, 1753.8 59.5, 1743.24 59.67, 1732.73 59.83, 1722.28 60.0, 1711.88 60.17, 1701.53 60.33, 1691.24 60.5, 1681.0 60.67, 1670.8 60.83, 1660.67 61.0, 1650.58 61.17, 1640.54 61.33, 1630.56 61.5, 1620.63 61.67, 1610.75 61.83, 1600.91 62.0, 1591.13 62.17, 1581.41 62.33, 1571.73 62.5, 1562.1 62.67, 1552.52 62.83, 1542.99 63.0, 1533.51 63.17, 1524.08 63.33, 1514.71 63.5, 1505.38 63.67, 1496.09 63.83, 1486.86 64.0, 1477.68 64.17, 1468.54 64.33, 1459.46 64.5, 1450.42 64.67, 1441.43 64.83, 1432.49 65.0, 1423.59 65.17, 1414.75 65.33, 1405.95 65.5, 1397.2 65.67, 1388.49 65.83, 1379.83 66.0, 1371.22 66.17, 1362.66 66.33, 1354.14 66.5, 1345.67 66.67, 1337.25 66.83, 1328.87 67.0, 1320.53 67.17, 1312.24 67.33, 1304.0 67.5, 1295.81 67.67, 1287.65 67.83, 1279.55 68.0, 1271.49 68.17, 1263.47 68.33, 1255.5 68.5, 1247.57 68.67, 1239.68 68.83, 1231.84 69.0, 1224.05 69.17, 1216.3 69.33, 1208.59 69.5, 1200.92 69.67, 1193.3 69.83, 1185.72 70.0, 1178.18 70.17, 1170.69 70.33, 1163.24 70.5, 1155.83 70.67, 1148.47 70.83, 1141.14 71.0, 1133.86 71.17, 1126.62 71.33, 1119.42 71.5, 1112.27 71.67, 1105.15 71.83, 1098.08 72.0, 1091.05 72.17, 1084.05 72.33, 1077.1 72.5, 1070.19 72.67, 1063.32 72.83, 1056.49 73.0, 1049.7 73.17, 1042.95 73.33, 1036.24 73.5, 1029.57 73.67, 1022.94 73.83, 1016.35 74.0, 1009.8 74.17, 1003.29 74.33, 996.81 74.5, 990.38 74.67, 983.98 74.83, 977.62 75.0, 971.3 75.17, 965.02 75.33, 958.78 75.5, 952.57 75.67, 946.41 75.83, 940.28 76.0, 934.18 76.17, 928.13 76.33, 922.11 76.5, 916.13 76.67, 910.18 76.83, 904.27 77.0, 898.4 77.17, 892.57 77.33, 886.77 77.5, 881.01 77.67, 875.28 77.83, 869.59 78.0, 863.93 78.17, 858.31 78.33, 852.73 78.5, 847.18 78.67, 841.67 78.83, 836.19 79.0, 830.74 79.17, 825.33 79.33, 819.96 79.5, 814.62 79.67, 809.31 79.83, 804.04 80.0, 798.8 80.17, 793.6 80.33, 788.42 80.5, 783.29 80.67, 778.18 80.83, 773.11 81.0, 768.07 81.17, 763.07 81.33, 758.1 81.5, 753.16 81.67, 748.25 81.83, 743.37 82.0, 738.53 82.17, 733.72 82.33, 728.94 82.5, 724.2 82.67, 719.48 82.83, 714.8 83.0, 710.15 83.17, 705.53 83.33, 700.94 83.5, 696.38 83.67, 691.85 83.83, 687.35 84.0, 682.89 84.17, 678.45 84.33, 674.05 84.5, 669.67 84.67, 665.33 84.83, 661.01 85.0, 656.73 85.17, 652.47 85.33, 648.24 85.5, 644.05 85.67, 639.88 85.83, 635.74 86.0, 631.63 86.17, 627.55 86.33, 623.5 86.5, 619.48 86.67, 615.48 86.83, 611.51 87.0, 607.58 87.17, 603.67 87.33, 599.78 87.5, 595.93 87.67, 592.1 87.83, 588.3 88.0, 584.53 88.17, 580.79 88.33, 577.07 88.5, 573.38 88.67, 569.72 88.83, 566.08 89.0, 562.47 89.17, 558.89 89.33, 555.33 89.5, 551.8 89.67, 548.29 89.83, 544.81 90.0, 541.36 90.17, 537.93 90.33, 534.53 90.5, 531.16 90.67, 527.81 90.83, 524.48 91.0, 521.18 91.17, 517.91 91.33, 514.66 91.5, 511.43 91.67, 508.23 91.83, 505.06 92.0, 501.9 92.17, 498.78 92.33, 495.67 92.5, 492.6 92.67, 489.54 92.83, 486.51 93.0, 483.5 93.17, 480.52 93.33, 477.56 93.5, 474.62 93.67, 471.71 93.83, 468.82 94.0, 465.95 94.17, 463.1 94.33, 460.28 94.5, 457.48 94.67, 454.7 94.83, 451.95 95.0, 449.22 95.17, 446.51 95.33, 443.82 95.5, 441.15 95.67, 438.51 95.83, 435.88 96.0, 433.28 96.17, 430.7 96.33, 428.15 96.5, 425.61 96.67, 423.09 96.83, 420.6 97.0, 418.12 97.17, 415.67 97.33, 413.24 97.5, 410.83 97.67, 408.43 97.83, 406.06 98.0, 403.71 98.17, 401.38 98.33, 399.07 98.5, 396.78 98.67, 394.51 98.83, 392.26 99.0, 390.03 99.17, 387.81 99.33, 385.62 99.5, 383.45 99.67, 381.29 99.83, 379.16 100.0, 377.04 100.17, 374.94 100.33, 372.86 100.5, 370.8 100.67, 368.76 100.83, 366.74 101.0, 364.73 101.17, 362.75 101.33, 360.78 101.5, 358.83 101.67, 356.89 101.83, 354.98 102.0, 353.08 102.17, 351.2 102.33, 349.34 102.5, 347.49 102.67, 345.66 102.83, 343.85 103.0, 342.06 103.17, 340.28 103.33, 338.52 103.5, 336.78 103.67, 335.05 103.83, 333.34 104.0, 331.65 104.17, 329.97 104.33, 328.31 104.5, 326.67 104.67, 325.04 104.83, 323.42 105.0, 321.83 105.17, 320.25 105.33, 318.68 105.5, 317.13 105.67, 315.6 105.83, 314.08 106.0, 312.57 106.17, 311.09 106.33, 309.61 106.5, 308.15 106.67, 306.71 106.83, 305.28 107.0, 303.87 107.17, 302.47 107.33, 301.08 107.5, 299.71 107.67, 298.36 107.83, 297.01 108.0, 295.69 108.17, 294.37 108.33, 293.07 108.5, 291.79 108.67, 290.51 108.83, 289.26 109.0, 288.01 109.17, 286.78 109.33, 285.56 109.5, 284.36 109.67, 283.17 109.83, 281.99 110.0, 280.82 110.17, 279.67 110.33, 278.53 110.5, 277.4 110.67, 276.29 110.83, 275.19 111.0, 274.1 111.17, 273.02 111.33, 271.96 111.5, 270.91 111.67, 269.87 111.83, 268.84 112.0, 267.83 112.17, 266.82 112.33, 265.83 112.5, 264.85 112.67, 263.89 112.83, 262.93 113.0, 261.98 113.17, 261.05 113.33, 260.13 113.5, 259.22 113.67, 258.32 113.83, 257.43 114.0, 256.55 114.17, 255.69 114.33, 254.83 114.5, 253.99 114.67, 253.15 114.83, 252.33 115.0, 251.51 115.17, 250.71 115.33, 249.92 115.5, 249.14 115.67, 248.37 115.83, 247.61 116.0, 246.85 116.17, 246.11 116.33, 245.38 116.5, 244.66 116.67, 243.95 116.83, 243.25 117.0, 242.55 117.17, 241.87 117.33, 241.2 117.5, 240.53 117.67, 239.88 117.83, 239.23 118.0, 238.59 118.17, 237.97 118.33, 237.35 118.5, 236.74 118.67, 236.14 118.83, 235.55 119.0, 234.96 119.17, 234.39 119.33, 233.82 119.5, 233.27 119.67, 232.72 119.83, 232.18 120.0, 231.64 120.17, 231.12 120.33, 230.6 120.5, 230.1 120.67, 229.6 120.83, 229.11 121.0, 228.62 121.17, 228.14 121.33, 227.68 121.5, 227.22 121.67, 226.76 121.83, 226.32 122.0, 225.88 122.17, 225.45 122.33, 225.02 122.5, 224.61 122.67, 224.2 122.83, 223.8 123.0, 223.4 123.17, 223.02 123.33, 222.63 123.5, 222.26 123.67, 221.89 123.83, 221.53 124.0, 221.18 124.17, 220.83 124.33, 220.49 124.5, 220.16 124.67, 219.83 124.83, 219.51 125.0, 219.19 125.17, 218.89 125.33, 218.58 125.5, 218.29 125.67, 218.0 125.83, 217.71 126.0, 217.43 126.17, 217.16 126.33, 216.89 126.5, 216.63 126.67, 216.38 126.83, 216.13 127.0, 215.89 127.17, 215.65 127.33, 215.41 127.5, 215.19 127.67, 214.96 127.83, 214.75 128.0, 214.54 128.17, 214.33 128.33, 214.13 128.5, 213.93 128.67, 213.74 128.83, 213.55 129.0, 213.37 129.17, 213.2 129.33, 213.03 129.5, 212.86 129.67, 212.7 129.83, 212.54 130.0, 212.39 130.17, 212.24 130.33, 212.09 130.5, 211.95 130.67, 211.82 130.83, 211.69 131.0, 211.56 131.17, 211.44 131.33, 211.32 131.5, 211.21 131.67, 211.1 131.83, 210.99 132.0, 210.89 132.17, 210.79 132.33, 210.7 132.5, 210.61 132.67, 210.52 132.83, 210.44 133.0, 210.36 133.17, 210.28 133.33, 210.21 133.5, 210.14 133.67, 210.08 133.83, 210.01 134.0, 209.96 134.17, 209.9 134.33, 209.85 134.5, 209.8 134.67, 209.76 134.83, 209.71 135.0, 209.67 135.17, 209.64 135.33, 209.61 135.5, 209.58 135.67, 209.55 135.83, 209.53 136.0, 209.5 136.17, 209.49 136.33, 209.47 136.5, 209.46 136.67, 209.45 136.83, 209.44 137.0, 209.43 137.17, 209.43 137.33, 209.43 137.5, 209.43 137.67, 209.44 137.83, 209.45 138.0, 209.46 138.17, 209.47 138.33, 209.48 138.5, 209.5 138.67, 209.52 138.83, 209.54 139.0, 209.56 139.17, 209.59 139.33, 209.61 139.5, 209.64 139.67, 209.67 139.83, 209.71 140.0, 209.74 140.17, 209.78 140.33, 209.82 140.5, 209.86 140.67, 209.9 140.83, 209.94 141.0, 209.99 141.17, 210.03 141.33, 210.08 141.5, 210.13 141.67, 210.18 141.83, 210.24 142.0, 210.29 142.17, 210.35 142.33, 210.4 142.5, 210.46 142.67, 210.52 142.83, 210.58 143.0, 210.64 143.17, 210.71 143.33, 210.77 143.5, 210.84 143.67, 210.91 143.83, 210.97 144.0, 211.04 144.17, 211.11 144.33, 211.18 144.5, 211.26 144.67, 211.33 144.83, 211.4 145.0, 211.48 145.17, 211.55 145.33, 211.63 145.5, 211.71 145.67, 211.78 145.83, 211.86 146.0, 211.94 146.17, 212.02 146.33, 212.1 146.5, 212.18 146.67, 212.27 146.83, 212.35 147.0, 212.43 147.17, 212.51 147.33, 212.6 147.5, 212.68 147.67, 212.77 147.83, 212.85 148.0, 212.94 148.17, 213.02 148.33, 213.11 148.5, 213.19 148.67, 213.28 148.83, 213.37 149.0, 213.46 149.17, 213.54 149.33, 213.63 149.5, 213.72 149.67, 213.81 149.83, 213.89 150.0, 213.98 150.17, 214.07 150.33, 214.16 150.5, 214.24 150.67, 214.33 150.83, 214.42 151.0, 214.51 151.17, 214.6 151.33, 214.68 151.5, 214.77 151.67, 214.86 151.83, 214.94 152.0, 215.03 152.17, 215.12 152.33, 215.2 152.5, 215.29 152.67, 215.38 152.83, 215.46 153.0, 215.55 153.17, 215.63 153.33, 215.72 153.5, 215.8 153.67, 215.89 153.83, 215.97 154.0, 216.05 154.17, 216.13 154.33, 216.22 154.5, 216.3 154.67, 216.38 154.83, 216.46 155.0, 216.54 155.17, 216.62 155.33, 216.7 155.5, 216.78 155.67, 216.86 155.83, 216.93 156.0, 217.01 156.17, 217.09 156.33, 217.16 156.5, 217.24 156.67, 217.31 156.83, 217.38 157.0, 217.46 157.17, 217.53 157.33, 217.6 157.5, 217.67 157.67, 217.74 157.83, 217.81 158.0, 217.87 158.17, 217.94 158.33, 218.01 158.5, 218.07 158.67, 218.14 158.83, 218.2 159.0, 218.26 159.17, 218.33 159.33, 218.39 159.5, 218.45 159.67, 218.51 159.83, 218.56 160.0, 218.62 160.17, 218.68 160.33, 218.73 160.5, 218.79 160.67, 218.84 160.83, 218.89 161.0, 218.95 161.17, 219.0 161.33, 219.05 161.5, 219.09 161.67, 219.14 161.83, 219.19 162.0, 219.23 162.17, 219.28 162.33, 219.32 162.5, 219.36 162.67, 219.4 162.83, 219.44 163.0, 219.48 163.17, 219.52 163.33, 219.55 163.5, 219.59 163.67, 219.62 163.83, 219.66 164.0, 219.69 164.17, 219.72 164.33, 219.75 164.5, 219.78 164.67, 219.8 164.83, 219.83 165.0, 219.85 165.17, 219.88 165.33, 219.9 165.5, 219.92 165.67, 219.94 165.83, 219.96 166.0, 219.98 166.17, 219.99 166.33, 220.01 166.5, 220.02 166.67, 220.03 166.83, 220.04 167.0, 220.05 167.17, 220.06 167.33, 220.07 167.5, 220.07 167.67, 220.08 167.83, 220.08 168.0, 220.08 168.17, 220.09 168.33, 220.09 168.5, 220.08 168.67, 220.08 168.83, 220.08 169.0, 220.07 169.17, 220.06 169.33, 220.06 169.5, 220.05 169.67, 220.04 169.83, 220.02 170.0, 220.01 170.17, 219.99 170.33, 219.98 170.5, 219.96 170.67, 219.94 170.83, 219.92 171.0, 219.9 171.17, 219.88 171.33, 219.85 171.5, 219.83 171.67, 219.8 171.83, 219.78 172.0, 219.75 172.17, 219.72 172.33, 219.68 172.5, 219.65 172.67, 219.62 172.83, 219.58 173.0, 219.54 173.17, 219.5 173.33, 219.47 173.5, 219.42 173.67, 219.38 173.83, 219.34 174.0, 219.29 174.17, 219.25 174.33, 219.2 174.5, 219.15 174.67, 219.1 174.83, 219.05 175.0, 219.0 175.17, 218.94 175.33, 218.89 175.5, 218.83 175.67, 218.77 175.83, 218.71 176.0, 218.65 176.17, 218.59 176.33, 218.53 176.5, 218.46 176.67, 218.4 176.83, 218.33 177.0, 218.26 177.17, 218.2 177.33, 218.13 177.5, 218.05 177.67, 217.98 177.83, 217.91 178.0, 217.83 178.17, 217.75 178.33, 217.68 178.5, 217.6 178.67, 217.52 178.83, 217.44 179.0, 217.35 179.17, 217.27 179.33, 217.18 179.5, 217.1 179.67, 217.01 179.83, 216.92 180.0, 216.83 180.17, 216.74 180.33, 216.65 180.5, 216.56 180.67, 216.46 180.83, 216.37 181.0, 216.27 181.17, 216.17 181.33, 216.07 181.5, 215.97 181.67, 215.87 181.83, 215.77 182.0, 215.67 182.17, 215.56 182.33, 215.46 182.5, 215.35 182.67, 215.24 182.83, 215.14 183.0, 215.03 183.17, 214.92 183.33, 214.8 183.5, 214.69 183.67, 214.58 183.83, 214.46 184.0, 214.35 184.17, 214.23 184.33, 214.11 184.5, 213.99 184.67, 213.88 184.83, 213.75 185.0, 213.63 185.17, 213.51 185.33, 213.39 185.5, 213.26 185.67, 213.14 185.83, 213.01 186.0, 212.88 186.17, 212.76 186.33, 212.63 186.5, 212.5 186.67, 212.37 186.83, 212.24 187.0, 212.1 187.17, 211.97 187.33, 211.84 187.5, 211.7 187.67, 211.57 187.83, 211.43 188.0, 211.29 188.17, 211.15 188.33, 211.02 188.5, 210.88 188.67, 210.74 188.83, 210.6 189.0, 210.45 189.17, 210.31 189.33, 210.17 189.5, 210.02 189.67, 209.88 189.83, 209.73 190.0, 209.59 190.17, 209.44 190.33, 209.29 190.5, 209.15 190.67, 209.0 190.83, 208.85 191.0, 208.7 191.17, 208.55 191.33, 208.4 191.5, 208.25 191.67, 208.09 191.83, 207.94 192.0, 207.79 192.17, 207.63 192.33, 207.48 192.5, 207.33 192.67, 207.17 192.83, 207.01 193.0, 206.86 193.17, 206.7 193.33, 206.54 193.5, 206.39 193.67, 206.23 193.83, 206.07 194.0, 205.91 194.17, 205.75 194.33, 205.59 194.5, 205.43 194.67, 205.27 194.83, 205.11 195.0, 204.95 195.17, 204.79 195.33, 204.62 195.5, 204.46 195.67, 204.3 195.83, 204.14 196.0, 203.97 196.17, 203.81 196.33, 203.65 196.5, 203.48 196.67, 203.32 196.83, 203.15 197.0, 202.99 197.17, 202.82 197.33, 202.66 197.5, 202.49 197.67, 202.33 197.83, 202.16 198.0, 202.0 198.17, 201.83 198.33, 201.66 198.5, 201.5 198.67, 201.33 198.83, 201.17 199.0, 201.0 199.17, 200.83 199.33, 200.67 199.5, 200.5 199.67, 200.33 199.83, 200.17 200.0, 200.0 200.17, 199.83 200.33, 199.67 200.5, 199.5 200.67, 199.33 200.83, 199.17 201.0, 199.0 201.17, 198.83 201.33, 198.67 201.5, 198.5 201.67, 198.34 201.83, 198.17 202.0, 198.0 202.17, 197.84 202.33, 197.67 202.5, 197.51 202.67, 197.34 202.83, 197.18 203.0, 197.01 203.17, 196.85 203.33, 196.68 203.5, 196.52 203.67, 196.35 203.83, 196.19 204.0, 196.03 204.17, 195.86 204.33, 195.7 204.5, 195.54 204.67, 195.38 204.83, 195.21 205.0, 195.05 205.17, 194.89 205.33, 194.73 205.5, 194.57 205.67, 194.41 205.83, 194.25 206.0, 194.09 206.17, 193.93 206.33, 193.77 206.5, 193.61 206.67, 193.46 206.83, 193.3 207.0, 193.14 207.17, 192.99 207.33, 192.83 207.5, 192.67 207.67, 192.52 207.83, 192.37 208.0, 192.21 208.17, 192.06 208.33, 191.91 208.5, 191.75 208.67, 191.6 208.83, 191.45 209.0, 191.3 209.17, 191.15 209.33, 191.0 209.5, 190.85 209.67, 190.71 209.83, 190.56 210.0, 190.41 210.17, 190.27 210.33, 190.12 210.5, 189.98 210.67, 189.83 210.83, 189.69 211.0, 189.55 211.17, 189.4 211.33, 189.26 211.5, 189.12 211.67, 188.98 211.83, 188.85 212.0, 188.71 212.17, 188.57 212.33, 188.43 212.5, 188.3 212.67, 188.16 212.83, 188.03 213.0, 187.9 213.17, 187.76 213.33, 187.63 213.5, 187.5 213.67, 187.37 213.83, 187.24 214.0, 187.12 214.17, 186.99 214.33, 186.86 214.5, 186.74 214.67, 186.61 214.83, 186.49 215.0, 186.37 215.17, 186.25 215.33, 186.12 215.5, 186.01 215.67, 185.89 215.83, 185.77 216.0, 185.65 216.17, 185.54 216.33, 185.42 216.5, 185.31 216.67, 185.2 216.83, 185.08 217.0, 184.97 217.17, 184.86 217.33, 184.76 217.5, 184.65 217.67, 184.54 217.83, 184.44 218.0, 184.33 218.17, 184.23 218.33, 184.13 218.5, 184.03 218.67, 183.93 218.83, 183.83 219.0, 183.73 219.17, 183.63 219.33, 183.54 219.5, 183.44 219.67, 183.35 219.83, 183.26 220.0, 183.17 220.17, 183.08 220.33, 182.99 220.5, 182.9 220.67, 182.82 220.83, 182.73 221.0, 182.65 221.17, 182.56 221.33, 182.48 221.5, 182.4 221.67, 182.32 221.83, 182.25 222.0, 182.17 222.17, 182.09 222.33, 182.02 222.5, 181.95 222.67, 181.87 222.83, 181.8 223.0, 181.74 223.17, 181.67 223.33, 181.6 223.5, 181.54 223.67, 181.47 223.83, 181.41 224.0, 181.35 224.17, 181.29 224.33, 181.23 224.5, 181.17 224.67, 181.11 224.83, 181.06 225.0, 181.0 225.17, 180.95 225.33, 180.9 225.5, 180.85 225.67, 180.8 225.83, 180.75 226.0, 180.71 226.17, 180.66 226.33, 180.62 226.5, 180.58 226.67, 180.53 226.83, 180.5 227.0, 180.46 227.17, 180.42 227.33, 180.38 227.5, 180.35 227.67, 180.32 227.83, 180.28 228.0, 180.25 228.17, 180.22 228.33, 180.2 228.5, 180.17 228.67, 180.15 228.83, 180.12 229.0, 180.1 229.17, 180.08 229.33, 180.06 229.5, 180.04 229.67, 180.02 229.83, 180.01 230.0, 179.99 230.17, 179.98 230.33, 179.96 230.5, 179.95 230.67, 179.94 230.83, 179.94 231.0, 179.93 231.17, 179.92 231.33, 179.92 231.5, 179.92 231.67, 179.91 231.83, 179.91 232.0, 179.92 232.17, 179.92 232.33, 179.92 232.5, 179.93 232.67, 179.93 232.83, 179.94 233.0, 179.95 233.17, 179.96 233.33, 179.97 233.5, 179.98 233.67, 179.99 233.83, 180.01 234.0, 180.02 234.17, 180.04 234.33, 180.06 234.5, 180.08 234.67, 180.1 234.83, 180.12 235.0, 180.15 235.17, 180.17 235.33, 180.2 235.5, 180.22 235.67, 180.25 235.83, 180.28 236.0, 180.31 236.17, 180.34 236.33, 180.38 236.5, 180.41 236.67, 180.45 236.83, 180.48 237.0, 180.52 237.17, 180.56 237.33, 180.6 237.5, 180.64 237.67, 180.68 237.83, 180.72 238.0, 180.77 238.17, 180.81 238.33, 180.86 238.5, 180.91 238.67, 180.95 238.83, 181.0 239.0, 181.05 239.17, 181.11 239.33, 181.16 239.5, 181.21 239.67, 181.27 239.83, 181.32 240.0, 181.38 240.17, 181.44 240.33, 181.49 240.5, 181.55 240.67, 181.61 240.83, 181.67 241.0, 181.74 241.17, 181.8 241.33, 181.86 241.5, 181.93 241.67, 181.99 241.83, 182.06 242.0, 182.13 242.17, 182.19 242.33, 182.26 242.5, 182.33 242.67, 182.4 242.83, 182.47 243.0, 182.54 243.17, 182.62 243.33, 182.69 243.5, 182.76 243.67, 182.84 243.83, 182.91 244.0, 182.99 244.17, 183.07 244.33, 183.14 244.5, 183.22 244.67, 183.3 244.83, 183.38 245.0, 183.46 245.17, 183.54 245.33, 183.62 245.5, 183.7 245.67, 183.78 245.83, 183.87 246.0, 183.95 246.17, 184.03 246.33, 184.11 246.5, 184.2 246.67, 184.28 246.83, 184.37 247.0, 184.45 247.17, 184.54 247.33, 184.62 247.5, 184.71 247.67, 184.8 247.83, 184.88 248.0, 184.97 248.17, 185.06 248.33, 185.14 248.5, 185.23 248.67, 185.32 248.83, 185.4 249.0, 185.49 249.17, 185.58 249.33, 185.67 249.5, 185.76 249.67, 185.84 249.83, 185.93 250.0, 186.02 250.17, 186.11 250.33, 186.19 250.5, 186.28 250.67, 186.37 250.83, 186.46 251.0, 186.54 251.17, 186.63 251.33, 186.72 251.5, 186.81 251.67, 186.89 251.83, 186.98 252.0, 187.06 252.17, 187.15 252.33, 187.23 252.5, 187.32 252.67, 187.4 252.83, 187.49 253.0, 187.57 253.17, 187.65 253.33, 187.73 253.5, 187.82 253.67, 187.9 253.83, 187.98 254.0, 188.06 254.17, 188.14 254.33, 188.22 254.5, 188.29 254.67, 188.37 254.83, 188.45 255.0, 188.52 255.17, 188.6 255.33, 188.67 255.5, 188.74 255.67, 188.82 255.83, 188.89 256.0, 188.96 256.17, 189.03 256.33, 189.09 256.5, 189.16 256.67, 189.23 256.83, 189.29 257.0, 189.36 257.17, 189.42 257.33, 189.48 257.5, 189.54 257.67, 189.6 257.83, 189.65 258.0, 189.71 258.17, 189.76 258.33, 189.82 258.5, 189.87 258.67, 189.92 258.83, 189.97 259.0, 190.01 259.17, 190.06 259.33, 190.1 259.5, 190.14 259.67, 190.18 259.83, 190.22 260.0, 190.26 260.17, 190.29 260.33, 190.33 260.5, 190.36 260.67, 190.39 260.83, 190.41 261.0, 190.44 261.17, 190.46 261.33, 190.48 261.5, 190.5 261.67, 190.52 261.83, 190.53 262.0, 190.54 262.17, 190.55 262.33, 190.56 262.5, 190.57 262.67, 190.57 262.83, 190.57 263.0, 190.57 263.17, 190.56 263.33, 190.55 263.5, 190.54 263.67, 190.53 263.83, 190.51 264.0, 190.5 264.17, 190.47 264.33, 190.45 264.5, 190.42 264.67, 190.39 264.83, 190.36 265.0, 190.33 265.17, 190.29 265.33, 190.24 265.5, 190.2 265.67, 190.15 265.83, 190.1 266.0, 190.04 266.17, 189.99 266.33, 189.92 266.5, 189.86 266.67, 189.79 266.83, 189.72 267.0, 189.64 267.17, 189.56 267.33, 189.48 267.5, 189.39 267.67, 189.3 267.83, 189.21 268.0, 189.11 268.17, 189.01 268.33, 188.9 268.5, 188.79 268.67, 188.68 268.83, 188.56 269.0, 188.44 269.17, 188.31 269.33, 188.18 269.5, 188.05 269.67, 187.91 269.83, 187.76 270.0, 187.61 270.17, 187.46 270.33, 187.3 270.5, 187.14 270.67, 186.97 270.83, 186.8 271.0, 186.63 271.17, 186.45 271.33, 186.26 271.5, 186.07 271.67, 185.87 271.83, 185.67 272.0, 185.46 272.17, 185.25 272.33, 185.04 272.5, 184.81 272.67, 184.59 272.83, 184.35 273.0, 184.11 273.17, 183.87 273.33, 183.62 273.5, 183.37 273.67, 183.11 273.83, 182.84 274.0, 182.57 274.17, 182.29 274.33, 182.0 274.5, 181.71 274.67, 181.42 274.83, 181.11 275.0, 180.81 275.17, 180.49 275.33, 180.17 275.5, 179.84 275.67, 179.51 275.83, 179.17 276.0, 178.82 276.17, 178.47 276.33, 178.11 276.5, 177.74 276.67, 177.37 276.83, 176.98 277.0, 176.6 277.17, 176.2 277.33, 175.8 277.5, 175.39 277.67, 174.98 277.83, 174.55 278.0, 174.12 278.17, 173.68 278.33, 173.24 278.5, 172.78 278.67, 172.32 278.83, 171.86 279.0, 171.38 279.17, 170.89 279.33, 170.4 279.5, 169.9 279.67, 169.4 279.83, 168.88 280.0, 168.36 280.17, 167.82 280.33, 167.28 280.5, 166.73 280.67, 166.18 280.83, 165.61 281.0, 165.04 281.17, 164.45 281.33, 163.86 281.5, 163.26 281.67, 162.65 281.83, 162.03 282.0, 161.41 282.17, 160.77 282.33, 160.12 282.5, 159.47 282.67, 158.8 282.83, 158.13 283.0, 157.45 283.17, 156.75 283.33, 156.05 283.5, 155.34 283.67, 154.62 283.83, 153.89 284.0, 153.15 284.17, 152.39 284.33, 151.63 284.5, 150.86 284.67, 150.08 284.83, 149.29 285.0, 148.49 285.17, 147.67 285.33, 146.85 285.5, 146.01 285.67, 145.17 285.83, 144.31 286.0, 143.45 286.17, 142.57 286.33, 141.68 286.5, 140.78 286.67, 139.87 286.83, 138.95 287.0, 138.02 287.17, 137.07 287.33, 136.11 287.5, 135.15 287.67, 134.17 287.83, 133.18 288.0, 132.17 288.17, 131.16 288.33, 130.13 288.5, 129.09 288.67, 128.04 288.83, 126.98 289.0, 125.9 289.17, 124.81 289.33, 123.71 289.5, 122.6 289.67, 121.47 289.83, 120.33 290.0, 119.18 290.17, 118.01 290.33, 116.83 290.5, 115.64 290.67, 114.44 290.83, 113.22 291.0, 111.99 291.17, 110.74 291.33, 109.49 291.5, 108.21 291.67, 106.93 291.83, 105.63 292.0, 104.31 292.17, 102.99 292.33, 101.64 292.5, 100.29 292.67, 98.92 292.83, 97.53 293.0, 96.13 293.17, 94.72 293.33, 93.29 293.5, 91.85 293.67, 90.39 293.83, 88.91 294.0, 87.43 294.17, 85.92 294.33, 84.4 294.5, 82.87 294.67, 81.32 294.83, 79.75 295.0, 78.17 295.17, 76.58 295.33, 74.96 295.5, 73.33 295.67, 71.69 295.83, 70.03 296.0, 68.35 296.17, 66.66 296.33, 64.95 296.5, 63.22 296.67, 61.48 296.83, 59.72 297.0, 57.94 297.17, 56.15 297.33, 54.34 297.5, 52.51 297.67, 50.66 297.83, 48.8 298.0, 46.92 298.17, 45.02 298.33, 43.11 298.5, 41.17 298.67, 39.22 298.83, 37.25 299.0, 35.27 299.17, 33.26 299.33, 31.24 299.5, 29.2 299.67, 27.14 299.83, 25.06 300.0, 22.96 300.17, 20.84 300.33, 18.71 300.5, 16.55 300.67, 14.38 300.83, 12.19 301.0, 9.97 301.17, 7.74 301.33, 5.49 301.5, 3.22 301.67, 0.93 301.83, -1.38 302.0, -3.71 302.17, -6.06 302.33, -8.43 302.5, -10.83 302.67, -13.24 302.83, -15.67 303.0, -18.12 303.17, -20.6 303.33, -23.09 303.5, -25.61 303.67, -28.15 303.83, -30.7 304.0, -33.28 304.17, -35.88 304.33, -38.51 304.5, -41.15 304.67, -43.82 304.83, -46.51 305.0, -49.22 305.17, -51.95 305.33, -54.7 305.5, -57.48 305.67, -60.28 305.83, -63.1 306.0, -65.95 306.17, -68.82 306.33, -71.71 306.5, -74.62 306.67, -77.56 306.83, -80.52 307.0, -83.5 307.17, -86.51 307.33, -89.54 307.5, -92.6 307.67, -95.67 307.83, -98.78 308.0, -101.9 308.17, -105.06 308.33, -108.23 308.5, -111.43 308.67, -114.66 308.83, -117.91 309.0, -121.18 309.17, -124.48 309.33, -127.81 309.5, -131.16 309.67, -134.53 309.83, -137.93 310.0, -141.36 310.17, -144.81 310.33, -148.29 310.5, -151.8 310.67, -155.33 310.83, -158.89 311.0, -162.47 311.17, -166.08 311.33, -169.72 311.5, -173.38 311.67, -177.07 311.83, -180.79 312.0, -184.53 312.17, -188.3 312.33, -192.1 312.5, -195.93 312.67, -199.78 312.83, -203.67 313.0, -207.58 313.17, -211.51 313.33, -215.48 313.5, -219.48 313.67, -223.5 313.83, -227.55 314.0, -231.63 314.17, -235.74 314.33, -239.88 314.5, -244.05 314.67, -248.24 314.83, -252.47 315.0, -256.73 315.17, -261.01 315.33, -265.33 315.5, -269.67 315.67, -274.05 315.83, -278.45 316.0, -282.89 316.17, -287.35 316.33, -291.85 316.5, -296.38 316.67, -300.94 316.83, -305.53 317.0, -310.15 317.17, -314.8 317.33, -319.48 317.5, -324.2 317.67, -328.94 317.83, -333.72 318.0, -338.53 318.17, -343.37 318.33, -348.25 318.5, -353.16 318.67, -358.1 318.83, -363.07 319.0, -368.07 319.17, -373.11 319.33, -378.18 319.5, -383.29 319.67, -388.42 319.83, -393.6 320.0, -398.8 320.17, -404.04 320.33, -409.31 320.5, -414.62 320.67, -419.96 320.83, -425.33 321.0, -430.74 321.17, -436.19 321.33, -441.67 321.5, -447.18 321.67, -452.73 321.83, -458.31 322.0, -463.93 322.17, -469.59 322.33, -475.28 322.5, -481.01 322.67, -486.77 322.83, -492.57 323.0, -498.4 323.17, -504.27 323.33, -510.18 323.5, -516.13 323.67, -522.11 323.83, -528.13 324.0, -534.18 324.17, -540.28 324.33, -546.41 324.5, -552.57 324.67, -558.78 324.83, -565.02 325.0, -571.3 325.17, -577.62 325.33, -583.98 325.5, -590.38 325.67, -596.81 325.83, -603.29 326.0, -609.8 326.17, -616.35 326.33, -622.94 326.5, -629.57 326.67, -636.24 326.83, -642.95 327.0, -649.7 327.17, -656.49 327.33, -663.32 327.5, -670.19 327.67, -677.1 327.83, -684.05 328.0, -691.05 328.17, -698.08 328.33, -705.15 328.5, -712.27 328.67, -719.42 328.83, -726.62 329.0, -733.86 329.17, -741.14 329.33, -748.47 329.5, -755.83 329.67, -763.24 329.83, -770.69 330.0, -778.18 330.17, -785.72 330.33, -793.3 330.5, -800.92 330.67, -808.59 330.83, -816.3 331.0, -824.05 331.17, -831.84 331.33, -839.68 331.5, -847.57 331.67, -855.5 331.83, -863.47 332.0, -871.49 332.17, -879.55 332.33, -887.65 332.5, -895.81 332.67, -904.0 332.83, -912.24 333.0, -920.53 333.17, -928.87 333.33, -937.25 333.5, -945.67 333.67, -954.14 333.83, -962.66 334.0, -971.22 334.17, -979.83 334.33, -988.49 334.5, -997.2 334.67, -1005.95 334.83, -1014.75 335.0, -1023.59 335.17, -1032.49 335.33, -1041.43 335.5, -1050.42 335.67, -1059.46 335.83, -1068.54 336.0, -1077.68 336.17, -1086.86 336.33, -1096.09 336.5, -1105.38 336.67, -1114.71 336.83, -1124.08 337.0, -1133.51 337.17, -1142.99 337.33, -1152.52 337.5, -1162.1 337.67, -1171.73 337.83, -1181.41 338.0, -1191.13 338.17, -1200.91 338.33, -1210.75 338.5, -1220.63 338.67, -1230.56 338.83, -1240.54 339.0, -1250.58 339.17, -1260.67 339.33, -1270.8 339.5, -1281.0 339.67, -1291.24 339.83, -1301.53 340.0, -1311.88 340.17, -1322.28 340.33, -1332.73 340.5, -1343.24 340.67, -1353.8 340.83, -1364.41 341.0, -1375.08 341.17, -1385.8 341.33, -1396.57 341.5, -1407.4 341.67, -1418.28 341.83, -1429.22 342.0, -1440.21 342.17, -1451.26 342.33, -1462.36 342.5, -1473.51 342.67, -1484.72 342.83, -1495.99 343.0, -1507.31 343.17, -1518.69 343.33, -1530.12 343.5, -1541.61 343.67, -1553.16 343.83, -1564.76 344.0, -1576.42 344.17, -1588.13 344.33, -1599.91 344.5, -1611.74 344.67, -1623.62 344.83, -1635.57 345.0, -1647.57 345.17, -1659.63 345.33, -1671.75 345.5, -1683.93 345.67, -1696.16 345.83, -1708.45 346.0, -1720.81 346.17, -1733.22 346.33, -1745.69 346.5, -1758.22 346.67, -1770.81 346.83, -1783.45 347.0, -1796.16 347.17, -1808.93 347.33, -1821.76 347.5, -1834.65 347.67, -1847.6 347.83, -1860.61 348.0, -1873.68 348.17, -1886.81 348.33, -1900.0 348.5, -1913.26 348.67, -1926.57 348.83, -1939.95 349.0, -1953.39 349.17, -1966.89 349.33, -1980.46 349.5, -1994.09 349.67, -2007.77 349.83, -2021.53 350.0, -2035.34 350.17, -2049.22 350.33, -2063.16 350.5, -2077.17 350.67, -2091.24 350.83, -2105.37 351.0, -2119.57 351.17, -2133.83 351.33, -2148.16 351.5, -2162.55 351.67, -2177.0 351.83, -2191.52 352.0, -2206.11 352.17, -2220.76 352.33, -2235.48 352.5, -2250.26 352.67, -2265.11 352.83, -2280.02 353.0, -2295.0 353.17, -2310.05 353.33, -2325.16 353.5, -2340.34 353.67, -2355.59 353.83, -2370.91 354.0, -2386.29 354.17, -2401.74 354.33, -2417.26 354.5, -2432.84 354.67, -2448.5 354.83, -2464.22 355.0, -2480.01 355.17, -2495.87 355.33, -2511.8 355.5, -2527.79 355.67, -2543.86 355.83, -2560.0 356.0, -2576.2 356.17, -2592.48 356.33, -2608.82 356.5, -2625.24 356.67, -2641.72 356.83, -2658.28 357.0, -2674.91 357.17, -2691.6 357.33, -2708.37 357.5, -2725.21 357.67, -2742.12 357.83, -2759.11 358.0, -2776.16 358.17, -2793.29 358.33, -2810.49 358.5, -2827.76 358.67, -2845.1 358.83, -2862.52 359.0, -2880.01 359.17, -2897.57 359.33, -2915.21 359.5, -2932.92 359.67, -2950.7 359.83, -2968.56 360.0, -2986.49 360.17, -3004.49 360.33, -3022.57 360.5, -3040.73 360.67, -3058.96 360.83, -3077.26 361.0, -3095.64 361.17, -3114.1 361.33, -3132.63 361.5, -3151.23 361.67, -3169.91 361.83, -3188.67 362.0, -3207.5 362.17, -3226.41 362.33, -3245.4 362.5, -3264.47 362.67, -3283.61 362.83, -3302.82 363.0, -3322.12 363.17, -3341.49 363.33, -3360.94 363.5, -3380.47 363.67, -3400.08 363.83, -3419.77 364.0, -3439.53 364.17, -3459.37 364.33, -3479.29 364.5, -3499.29 364.67, -3519.37 364.83, -3539.53 365.0, -3559.77 365.17, -3580.09 365.33, -3600.49 365.5, -3620.97 365.67, -3641.53 365.83, -3662.17 366.0, -3682.89 366.17, -3703.69 366.33, -3724.57 366.5, -3745.53 366.67, -3766.58 366.83, -3787.71 367.0, -3808.92 367.17, -3830.21 367.33, -3851.58 367.5, -3873.04 367.67, -3894.57 367.83, -3916.2 368.0, -3937.9 368.17, -3959.69 368.33, -3981.56 368.5, -4003.51 368.67, -4025.55 368.83, -4047.67 369.0, -4069.88 369.17, -4092.17 369.33, -4114.54 369.5, -4137.0 369.67, -4159.55 369.83, -4182.18 370.0, -4204.89 370.17, -4227.69 370.33, -4250.58 370.5, -4273.55 370.67, -4296.6 370.83, -4319.75 371.0, -4342.98 371.17, -4366.29 371.33, -4389.7 371.5, -4413.19 371.67, -4436.76 371.83, -4460.43 372.0, -4484.18 372.17, -4508.02 372.33, -4531.95 372.5, -4555.96 372.67, -4580.07 372.83, -4604.26 373.0, -4628.54 373.17, -4652.91 373.33, -4677.37 373.5, -4701.91 373.67, -4726.55 373.83, -4751.28 374.0, -4776.09 374.17, -4801.0 374.33, -4825.99 374.5, -4851.08 374.67, -4876.26 374.83, -4901.52 375.0, -4926.88 375.17, -4952.33 375.33, -4977.87 375.5, -5003.5 375.67, -5029.23 375.83, -5055.04 376.0, -5080.95 376.17, -5106.94 376.33, -5133.04 376.5, -5159.22 376.67, -5185.49 376.83, -5211.86 377.0, -5238.33 377.17, -5264.88 377.33, -5291.53 377.5, -5318.27 377.67, -5345.11 377.83, -5372.04 378.0, -5399.06 378.17, -5426.18 378.33, -5453.39 378.5, -5480.7 378.67, -5508.1 378.83, -5535.59 379.0, -5563.19 379.17, -5590.87 379.33, -5618.66 379.5, -5646.54 379.67, -5674.51 379.83, -5702.58 380.0, -5730.75 380.17, -5759.01 380.33, -5787.37 380.5, -5815.83 380.67, -5844.38 380.83, -5873.03 381.0, -5901.78 381.17, -5930.63 381.33, -5959.57 381.5, -5988.61 381.67, -6017.75 381.83, -6046.99 382.0, -6076.32 382.17, -6105.76 382.33, -6135.29 382.5, -6164.92 382.67, -6194.66 382.83, -6224.49 383.0, -6254.42 383.17, -6284.45 383.33, -6314.58 383.5, -6344.81 383.67, -6375.14 383.83, -6405.57 384.0, -6436.1 384.17, -6466.73 384.33, -6497.46 384.5, -6528.3 384.67, -6559.23 384.83, -6590.27 385.0, -6621.41 385.17, -6652.65 385.33, -6683.99 385.5, -6715.43 385.67, -6746.98 385.83, -6778.63 386.0, -6810.38 386.17, -6842.23 386.33, -6874.19 386.5, -6906.25 386.67, -6938.41 386.83, -6970.68 387.0, -7003.05 387.17, -7035.52 387.33, -7068.1 387.5, -7100.79 387.67, -7133.57 387.83, -7166.47 388.0, -7199.46 388.17, -7232.56 388.33, -7265.77 388.5, -7299.08 388.67, -7332.5 388.83, -7366.02 389.0, -7399.65 389.17, -7433.38 389.33, -7467.22 389.5, -7501.17 389.67, -7535.22 389.83, -7569.38 390.0, -7603.65 390.17, -7638.02 390.33, -7672.5 390.5, -7707.09 390.67, -7741.79 390.83, -7776.59 391.0, -7811.5 391.17, -7846.52 391.33, -7881.64 391.5, -7916.88 391.67, -7952.22 391.83, -7987.67 392.0, -8023.23 392.17, -8058.9 392.33, -8094.68 392.5, -8130.57 392.67, -8166.56 392.83, -8202.67 393.0, -8238.89 393.17, -8275.21 393.33, -8311.65 393.5, -8348.19 393.67, -8384.85 393.83, -8421.62 394.0, -8458.49 394.17, -8495.48 394.33, -8532.58 394.5, -8569.79 394.67, -8607.11 394.83, -8644.55 395.0, -8682.09 395.17, -8719.75 395.33, -8757.52 395.5, -8795.4 395.67, -8833.39 395.83, -8871.5 396.0, -8909.72 396.17, -8948.05 396.33, -8986.49 396.5, -9025.05 396.67, -9063.72 396.83, -9102.5 397.0, -9141.4 397.17, -9180.41 397.33, -9219.53 397.5, -9258.77 397.67, -9298.12 397.83, -9337.59 398.0, -9377.17 398.17, -9416.86 398.33, -9456.67 398.5, -9496.6 398.67, -9536.64 398.83, -9576.79 399.0, -9617.06 399.17, -9657.45 399.33, -9697.95 399.5, -9738.56 399.67, -9779.3 399.83, -9820.15 400.0, -9861.11 " fill="none" stroke="white" stroke-width="1.5" stroke-linejoin="round" stroke-opacity="1"/>

 </svg>