<svg version="1.1" 
 baseProfile="full" 
 width="400" 
 height="400" 
 xmlns="http://www.w3.org/2000/svg">
<rect x="0.0" y="0.0" width="400" height="400" fill="black" stroke="black" stroke-width="0" opacity="1"/>
<line x1="0.0" y1="0.0" x2="0.0" y2="400.0" stroke="white" stroke-width="1" opacity="0.4" stroke-linecap="butt"/>
<line x1="40.0" y1="0.0" x2="40.0" y2="400.0" stroke="white" stroke-width="1" opacity="0.4" stroke-linecap="butt"/>
<line x1="80.0" y1="0.0" x2="80.0" y2="400.0" stroke="white" stroke-width="1" opacity="0.4" stroke-linecap="butt"/>
<line x1="120.0" y1="0.0" x2="120.0" y2="400.0" stroke="white" stroke-width="1" opacity="0.4" stroke-linecap="butt"/>
<line x1="160.0" y1="0.0" x2="160.0" y2="400.0" stroke="white" stroke-width="1" opacity="0.4" stroke-linecap="butt"/>
<line x1="200.0" y1="0.0" x2="200.0" y2="400.0" stroke="white" stroke-width="1" opacity="0.4" stroke-linecap="butt"/>
<line x1="240.0" y1="0.0" x2="240.0" y2="400.0" stroke="white" stroke-width="1" opacity="0.4" stroke-linecap="butt"/>
<line x1="280.0" y1="0.0" x2="280.0" y2="400.0" stroke="white" stroke-width="1" opacity="0.4" stroke-linecap="butt"/>
<line x1="320.0" y1="0.0" x2="320.0" y2="400.0" stroke="white" stroke-width="1" opacity="0.4" stroke-linecap="butt"/>
<line x1="360.0" y1="0.0" x2="360.0" y2="400.0" stroke="white" stroke-width="1" opacity="0.4" stroke-linecap="butt"/>
<line x1="0.0" y1="0.0" x2="400.0" y2="0.0" stroke="white" stroke-width="1" opacity="0.4" stroke-linecap="butt"/>
<line x1="0.0" y1="40.0" x2="400.0" y2="40.0" stroke="white" stroke-width="1" opacity="0.4" stroke-linecap="butt"/>
<line x1="0.0" y1="80.0" x2="400.0" y2="80.0" stroke="white" stroke-width="1" opacity="0.4" stroke-linecap="butt"/>
<line x1="0.0" y1="120.0" x2="400.0" y2="120.0" stroke="white" stroke-width="1" opacity="0.4" stroke-linecap="butt"/>
<line x1="0.0" y1="160.0" x2="400.0" y2="160.0" stroke="white" stroke-width="1" opacity="0.4" stroke-linecap="butt"/>
<line x1="0.0" y1="200.0" x2="400.0" y2="200.0" stroke="white" stroke-width="1" opacity="0.4" stroke-linecap="butt"/>
<line x1="0.0" y1="240.0" x2="400.0" y2="240.0" stroke="white" stroke-width="1" opacity="0.4" stroke-linecap="butt"/>
<line x1="0.0" y1="280.0" x2="400.0" y2="280.0" stroke="white" stroke-width="1" opacity="0.4" stroke-linecap="butt"/>
<line x1="0.0" y1="320.0" x2="400.0" y2="320.0" stroke="white" stroke-width="1" opacity="0.4" stroke-linecap="butt"/>
<line x1="0.0" y1="360.0" x2="400.0" y2="360.0" stroke="white" stroke-width="1" opacity="0.4" stroke-linecap="butt"/>
<line x1="0.0" y1="200.0" x2="400.0" y2="200.0" stroke="yellow" stroke-width="2.5" opacity="1" stroke-linecap="butt"/>
<line x1="200.0" y1="0.0" x2="200.0" y2="400.0" stroke="yellow" stroke-width="2.5" opacity="1" stroke-linecap="butt"/>
<polygon points="391.0 204.0, 401.0 200.0, 391.0 196.0, 393.0 200.0" fill="yellow"/><polygon points="204.0 9.0, 200.0 -1.0, 196.0 9.0, 200.0 7.0" fill="yellow"/><image x="-60.0" y="-60.0" width="200" height="200" href="/Users/girirajhira/PycharmProjects/Giraphics3/Taylor/expr.png"/><polyline points="0.0, 4804.76 0.17, 4795.55 0.33, 4786.29 0.5, 4776.99 0.67, 4767.65 0.83, 4758.27 1.0, 4748.84 1.17, 4739.38 1.33, 4729.88 1.5, 4720.34 1.67, 4710.76 1.83, 4701.15 2.0, 4691.49 2.17, 4681.8 2.33, 4672.08 2.5, 4662.31 2.67, 4652.52 2.83, 4642.68 3.0, 4632.82 3.17, 4622.92 3.33, 4612.98 3.5, 4603.01 3.67, 4593.01 3.83, 4582.98 4.0, 4572.92 4.17, 4562.82 4.33, 4552.7 4.5, 4542.54 4.67, 4532.36 4.83, 4522.14 5.0, 4511.9 5.17, 4501.63 5.33, 4491.33 5.5, 4481.0 5.67, 4470.65 5.83, 4460.27 6.0, 4449.86 6.17, 4439.42 6.33, 4428.97 6.5, 4418.48 6.67, 4407.97 6.83, 4397.44 7.0, 4386.88 7.17, 4376.31 7.33, 4365.7 7.5, 4355.08 7.67, 4344.43 7.83, 4333.76 8.0, 4323.07 8.17, 4312.36 8.33, 4301.63 8.5, 4290.88 8.67, 4280.11 8.83, 4269.32 9.0, 4258.51 9.17, 4247.68 9.33, 4236.83 9.5, 4225.97 9.67, 4215.09 9.83, 4204.19 10.0, 4193.28 10.17, 4182.35 10.33, 4171.4 10.5, 4160.44 10.67, 4149.46 10.83, 4138.47 11.0, 4127.46 11.17, 4116.44 11.33, 4105.41 11.5, 4094.36 11.67, 4083.3 11.83, 4072.23 12.0, 4061.14 12.17, 4050.04 12.33, 4038.94 12.5, 4027.82 12.67, 4016.69 12.83, 4005.54 13.0, 3994.39 13.17, 3983.23 13.33, 3972.06 13.5, 3960.88 13.67, 3949.69 13.83, 3938.49 14.0, 3927.29 14.17, 3916.07 14.33, 3904.85 14.5, 3893.62 14.67, 3882.39 14.83, 3871.15 15.0, 3859.9 15.17, 3848.64 15.33, 3837.38 15.5, 3826.12 15.67, 3814.85 15.83, 3803.57 16.0, 3792.29 16.17, 3781.01 16.33, 3769.72 16.5, 3758.43 16.67, 3747.13 16.83, 3735.84 17.0, 3724.54 17.17, 3713.23 17.33, 3701.93 17.5, 3690.62 17.67, 3679.31 17.83, 3668.01 18.0, 3656.69 18.17, 3645.38 18.33, 3634.07 18.5, 3622.76 18.67, 3611.45 18.83, 3600.14 19.0, 3588.83 19.17, 3577.52 19.33, 3566.21 19.5, 3554.9 19.67, 3543.6 19.83, 3532.29 20.0, 3520.99 20.17, 3509.69 20.33, 3498.4 20.5, 3487.1 20.67, 3475.81 20.83, 3464.53 21.0, 3453.25 21.17, 3441.97 21.33, 3430.69 21.5, 3419.42 21.67, 3408.16 21.83, 3396.9 22.0, 3385.64 22.17, 3374.39 22.33, 3363.15 22.5, 3351.91 22.67, 3340.68 22.83, 3329.45 23.0, 3318.23 23.17, 3307.02 23.33, 3295.82 23.5, 3284.62 23.67, 3273.43 23.83, 3262.24 24.0, 3251.07 24.17, 3239.9 24.33, 3228.74 24.5, 3217.59 24.67, 3206.45 24.83, 3195.32 25.0, 3184.2 25.17, 3173.08 25.33, 3161.98 25.5, 3150.88 25.67, 3139.8 25.83, 3128.72 26.0, 3117.66 26.17, 3106.61 26.33, 3095.56 26.5, 3084.53 26.67, 3073.51 26.83, 3062.5 27.0, 3051.5 27.17, 3040.52 27.33, 3029.54 27.5, 3018.58 27.67, 3007.63 27.83, 2996.69 28.0, 2985.77 28.17, 2974.85 28.33, 2963.95 28.5, 2953.07 28.67, 2942.19 28.83, 2931.33 29.0, 2920.49 29.17, 2909.66 29.33, 2898.84 29.5, 2888.03 29.67, 2877.25 29.83, 2866.47 30.0, 2855.71 30.17, 2844.96 30.33, 2834.23 30.5, 2823.52 30.67, 2812.82 30.83, 2802.13 31.0, 2791.46 31.17, 2780.81 31.33, 2770.17 31.5, 2759.55 31.67, 2748.95 31.83, 2738.36 32.0, 2727.78 32.17, 2717.23 32.33, 2706.69 32.5, 2696.17 32.67, 2685.66 32.83, 2675.17 33.0, 2664.7 33.17, 2654.25 33.33, 2643.81 33.5, 2633.4 33.67, 2623.0 33.83, 2612.61 34.0, 2602.25 34.17, 2591.9 34.33, 2581.58 34.5, 2571.27 34.67, 2560.98 34.83, 2550.71 35.0, 2540.45 35.17, 2530.22 35.33, 2520.01 35.5, 2509.81 35.67, 2499.63 35.83, 2489.48 36.0, 2479.34 36.17, 2469.22 36.33, 2459.13 36.5, 2449.05 36.67, 2438.99 36.83, 2428.95 37.0, 2418.94 37.17, 2408.94 37.33, 2398.96 37.5, 2389.01 37.67, 2379.07 37.83, 2369.16 38.0, 2359.27 38.17, 2349.39 38.33, 2339.54 38.5, 2329.71 38.67, 2319.9 38.83, 2310.12 39.0, 2300.35 39.17, 2290.61 39.33, 2280.88 39.5, 2271.18 39.67, 2261.5 39.83, 2251.84 40.0, 2242.21 40.17, 2232.6 40.33, 2223.0 40.5, 2213.44 40.67, 2203.89 40.83, 2194.36 41.0, 2184.86 41.17, 2175.38 41.33, 2165.93 41.5, 2156.49 41.67, 2147.08 41.83, 2137.69 42.0, 2128.33 42.17, 2118.99 42.33, 2109.67 42.5, 2100.37 42.67, 2091.1 42.83, 2081.85 43.0, 2072.62 43.17, 2063.42 43.33, 2054.24 43.5, 2045.09 43.67, 2035.96 43.83, 2026.85 44.0, 2017.76 44.17, 2008.7 44.33, 1999.67 44.5, 1990.65 44.67, 1981.66 44.83, 1972.7 45.0, 1963.76 45.17, 1954.84 45.33, 1945.95 45.5, 1937.08 45.67, 1928.24 45.83, 1919.42 46.0, 1910.63 46.17, 1901.86 46.33, 1893.11 46.5, 1884.39 46.67, 1875.69 46.83, 1867.02 47.0, 1858.38 47.17, 1849.75 47.33, 1841.16 47.5, 1832.58 47.67, 1824.04 47.83, 1815.51 48.0, 1807.02 48.17, 1798.54 48.33, 1790.1 48.5, 1781.67 48.67, 1773.28 48.83, 1764.9 49.0, 1756.56 49.17, 1748.24 49.33, 1739.94 49.5, 1731.67 49.67, 1723.42 49.83, 1715.2 50.0, 1707.01 50.17, 1698.84 50.33, 1690.69 50.5, 1682.58 50.67, 1674.48 50.83, 1666.42 51.0, 1658.37 51.17, 1650.36 51.33, 1642.37 51.5, 1634.4 51.67, 1626.46 51.83, 1618.55 52.0, 1610.66 52.17, 1602.8 52.33, 1594.96 52.5, 1587.15 52.67, 1579.37 52.83, 1571.61 53.0, 1563.88 53.17, 1556.17 53.33, 1548.49 53.5, 1540.83 53.67, 1533.2 53.83, 1525.6 54.0, 1518.02 54.17, 1510.47 54.33, 1502.94 54.5, 1495.44 54.67, 1487.97 54.83, 1480.52 55.0, 1473.1 55.17, 1465.7 55.33, 1458.33 55.5, 1450.99 55.67, 1443.67 55.83, 1436.38 56.0, 1429.11 56.17, 1421.87 56.33, 1414.66 56.5, 1407.47 56.67, 1400.31 56.83, 1393.17 57.0, 1386.06 57.17, 1378.98 57.33, 1371.92 57.5, 1364.89 57.67, 1357.88 57.83, 1350.9 58.0, 1343.95 58.17, 1337.02 58.33, 1330.12 58.5, 1323.24 58.67, 1316.39 58.83, 1309.57 59.0, 1302.77 59.17, 1296.0 59.33, 1289.25 59.5, 1282.53 59.67, 1275.84 59.83, 1269.17 60.0, 1262.53 60.17, 1255.91 60.33, 1249.32 60.5, 1242.76 60.67, 1236.22 60.83, 1229.7 61.0, 1223.22 61.17, 1216.76 61.33, 1210.32 61.5, 1203.91 61.67, 1197.53 61.83, 1191.17 62.0, 1184.84 62.17, 1178.53 62.33, 1172.25 62.5, 1165.99 62.67, 1159.76 62.83, 1153.56 63.0, 1147.38 63.17, 1141.23 63.33, 1135.1 63.5, 1129.0 63.67, 1122.92 63.83, 1116.87 64.0, 1110.85 64.17, 1104.85 64.33, 1098.88 64.5, 1092.93 64.67, 1087.0 64.83, 1081.11 65.0, 1075.23 65.17, 1069.39 65.33, 1063.56 65.5, 1057.77 65.67, 1052.0 65.83, 1046.25 66.0, 1040.53 66.17, 1034.83 66.33, 1029.16 66.5, 1023.52 66.67, 1017.9 66.83, 1012.3 67.0, 1006.73 67.17, 1001.19 67.33, 995.67 67.5, 990.17 67.67, 984.7 67.83, 979.25 68.0, 973.83 68.17, 968.44 68.33, 963.07 68.5, 957.72 68.67, 952.4 68.83, 947.1 69.0, 941.83 69.17, 936.58 69.33, 931.35 69.5, 926.15 69.67, 920.98 69.83, 915.83 70.0, 910.7 70.17, 905.6 70.33, 900.52 70.5, 895.47 70.67, 890.44 70.83, 885.44 71.0, 880.45 71.17, 875.5 71.33, 870.56 71.5, 865.66 71.67, 860.77 71.83, 855.91 72.0, 851.07 72.17, 846.26 72.33, 841.47 72.5, 836.71 72.67, 831.96 72.83, 827.25 73.0, 822.55 73.17, 817.88 73.33, 813.23 73.5, 808.61 73.67, 804.01 73.83, 799.43 74.0, 794.88 74.17, 790.35 74.33, 785.84 74.5, 781.35 74.67, 776.89 74.83, 772.45 75.0, 768.04 75.17, 763.65 75.33, 759.28 75.5, 754.93 75.67, 750.61 75.83, 746.31 76.0, 742.03 76.17, 737.78 76.33, 733.54 76.5, 729.33 76.67, 725.15 76.83, 720.98 77.0, 716.84 77.17, 712.72 77.33, 708.62 77.5, 704.55 77.67, 700.49 77.83, 696.46 78.0, 692.46 78.17, 688.47 78.33, 684.5 78.5, 680.56 78.67, 676.64 78.83, 672.74 79.0, 668.86 79.17, 665.01 79.33, 661.18 79.5, 657.36 79.67, 653.57 79.83, 649.8 80.0, 646.06 80.17, 642.33 80.33, 638.63 80.5, 634.94 80.67, 631.28 80.83, 627.64 81.0, 624.02 81.17, 620.42 81.33, 616.84 81.5, 613.29 81.67, 609.75 81.83, 606.24 82.0, 602.74 82.17, 599.27 82.33, 595.82 82.5, 592.38 82.67, 588.97 82.83, 585.58 83.0, 582.21 83.17, 578.86 83.33, 575.53 83.5, 572.22 83.67, 568.93 83.83, 565.66 84.0, 562.41 84.17, 559.18 84.33, 555.97 84.5, 552.79 84.67, 549.62 84.83, 546.47 85.0, 543.34 85.17, 540.23 85.33, 537.13 85.5, 534.06 85.67, 531.01 85.83, 527.98 86.0, 524.97 86.17, 521.97 86.33, 519.0 86.5, 516.04 86.67, 513.11 86.83, 510.19 87.0, 507.29 87.17, 504.41 87.33, 501.55 87.5, 498.71 87.67, 495.88 87.83, 493.08 88.0, 490.29 88.17, 487.53 88.33, 484.78 88.5, 482.05 88.67, 479.34 88.83, 476.64 89.0, 473.97 89.17, 471.31 89.33, 468.67 89.5, 466.05 89.67, 463.45 89.83, 460.86 90.0, 458.29 90.17, 455.74 90.33, 453.21 90.5, 450.7 90.67, 448.2 90.83, 445.72 91.0, 443.26 91.17, 440.81 91.33, 438.39 91.5, 435.98 91.67, 433.58 91.83, 431.21 92.0, 428.85 92.17, 426.51 92.33, 424.18 92.5, 421.87 92.67, 419.58 92.83, 417.31 93.0, 415.05 93.17, 412.81 93.33, 410.59 93.5, 408.38 93.67, 406.19 93.83, 404.01 94.0, 401.85 94.17, 399.71 94.33, 397.58 94.5, 395.47 94.67, 393.38 94.83, 391.3 95.0, 389.23 95.17, 387.19 95.33, 385.16 95.5, 383.14 95.67, 381.14 95.83, 379.16 96.0, 377.19 96.17, 375.23 96.33, 373.3 96.5, 371.37 96.67, 369.47 96.83, 367.57 97.0, 365.7 97.17, 363.83 97.33, 361.99 97.5, 360.15 97.67, 358.34 97.83, 356.53 98.0, 354.75 98.17, 352.97 98.33, 351.21 98.5, 349.47 98.67, 347.74 98.83, 346.02 99.0, 344.32 99.17, 342.64 99.33, 340.96 99.5, 339.3 99.67, 337.66 99.83, 336.03 100.0, 334.41 100.17, 332.81 100.33, 331.22 100.5, 329.64 100.67, 328.08 100.83, 326.53 101.0, 325.0 101.17, 323.48 101.33, 321.97 101.5, 320.48 101.67, 319.0 101.83, 317.53 102.0, 316.07 102.17, 314.63 102.33, 313.2 102.5, 311.79 102.67, 310.38 102.83, 308.99 103.0, 307.62 103.17, 306.25 103.33, 304.9 103.5, 303.56 103.67, 302.23 103.83, 300.92 104.0, 299.62 104.17, 298.33 104.33, 297.05 104.5, 295.78 104.67, 294.53 104.83, 293.29 105.0, 292.06 105.17, 290.84 105.33, 289.64 105.5, 288.44 105.67, 287.26 105.83, 286.09 106.0, 284.93 106.17, 283.78 106.33, 282.65 106.5, 281.52 106.67, 280.41 106.83, 279.31 107.0, 278.22 107.17, 277.14 107.33, 276.07 107.5, 275.01 107.67, 273.97 107.83, 272.93 108.0, 271.91 108.17, 270.89 108.33, 269.89 108.5, 268.9 108.67, 267.91 108.83, 266.94 109.0, 265.98 109.17, 265.03 109.33, 264.09 109.5, 263.16 109.67, 262.24 109.83, 261.33 110.0, 260.43 110.17, 259.54 110.33, 258.66 110.5, 257.8 110.67, 256.94 110.83, 256.09 111.0, 255.25 111.17, 254.42 111.33, 253.59 111.5, 252.78 111.67, 251.98 111.83, 251.19 112.0, 250.41 112.17, 249.63 112.33, 248.87 112.5, 248.11 112.67, 247.37 112.83, 246.63 113.0, 245.9 113.17, 245.18 113.33, 244.47 113.5, 243.77 113.67, 243.08 113.83, 242.4 114.0, 241.72 114.17, 241.05 114.33, 240.4 114.5, 239.75 114.67, 239.11 114.83, 238.47 115.0, 237.85 115.17, 237.23 115.33, 236.63 115.5, 236.03 115.67, 235.43 115.83, 234.85 116.0, 234.27 116.17, 233.71 116.33, 233.15 116.5, 232.6 116.67, 232.05 116.83, 231.51 117.0, 230.99 117.17, 230.46 117.33, 229.95 117.5, 229.44 117.67, 228.94 117.83, 228.45 118.0, 227.97 118.17, 227.49 118.33, 227.02 118.5, 226.56 118.67, 226.1 118.83, 225.65 119.0, 225.21 119.17, 224.78 119.33, 224.35 119.5, 223.93 119.67, 223.51 119.83, 223.11 120.0, 222.7 120.17, 222.31 120.33, 221.92 120.5, 221.54 120.67, 221.17 120.83, 220.8 121.0, 220.43 121.17, 220.08 121.33, 219.73 121.5, 219.39 121.67, 219.05 121.83, 218.72 122.0, 218.39 122.17, 218.07 122.33, 217.76 122.5, 217.45 122.67, 217.15 122.83, 216.85 123.0, 216.56 123.17, 216.28 123.33, 216.0 123.5, 215.72 123.67, 215.46 123.83, 215.19 124.0, 214.94 124.17, 214.68 124.33, 214.44 124.5, 214.2 124.67, 213.96 124.83, 213.73 125.0, 213.5 125.17, 213.28 125.33, 213.07 125.5, 212.86 125.67, 212.65 125.83, 212.45 126.0, 212.25 126.17, 212.06 126.33, 211.88 126.5, 211.69 126.67, 211.52 126.83, 211.34 127.0, 211.18 127.17, 211.01 127.33, 210.85 127.5, 210.7 127.67, 210.55 127.83, 210.4 128.0, 210.26 128.17, 210.12 128.33, 209.99 128.5, 209.86 128.67, 209.73 128.83, 209.61 129.0, 209.5 129.17, 209.38 129.33, 209.27 129.5, 209.17 129.67, 209.07 129.83, 208.97 130.0, 208.88 130.17, 208.78 130.33, 208.7 130.5, 208.62 130.67, 208.54 130.83, 208.46 131.0, 208.39 131.17, 208.32 131.33, 208.25 131.5, 208.19 131.67, 208.13 131.83, 208.08 132.0, 208.02 132.17, 207.97 132.33, 207.93 132.5, 207.88 132.67, 207.84 132.83, 207.81 133.0, 207.77 133.17, 207.74 133.33, 207.71 133.5, 207.69 133.67, 207.67 133.83, 207.65 134.0, 207.63 134.17, 207.62 134.33, 207.6 134.5, 207.6 134.67, 207.59 134.83, 207.59 135.0, 207.59 135.17, 207.59 135.33, 207.59 135.5, 207.6 135.67, 207.61 135.83, 207.62 136.0, 207.63 136.17, 207.65 136.33, 207.66 136.5, 207.68 136.67, 207.7 136.83, 207.73 137.0, 207.76 137.17, 207.78 137.33, 207.81 137.5, 207.85 137.67, 207.88 137.83, 207.92 138.0, 207.96 138.17, 208.0 138.33, 208.04 138.5, 208.08 138.67, 208.13 138.83, 208.17 139.0, 208.22 139.17, 208.27 139.33, 208.32 139.5, 208.38 139.67, 208.43 139.83, 208.49 140.0, 208.55 140.17, 208.61 140.33, 208.67 140.5, 208.73 140.67, 208.79 140.83, 208.86 141.0, 208.93 141.17, 208.99 141.33, 209.06 141.5, 209.13 141.67, 209.2 141.83, 209.27 142.0, 209.35 142.17, 209.42 142.33, 209.5 142.5, 209.58 142.67, 209.65 142.83, 209.73 143.0, 209.81 143.17, 209.89 143.33, 209.97 143.5, 210.05 143.67, 210.14 143.83, 210.22 144.0, 210.31 144.17, 210.39 144.33, 210.48 144.5, 210.56 144.67, 210.65 144.83, 210.74 145.0, 210.83 145.17, 210.92 145.33, 211.01 145.5, 211.1 145.67, 211.19 145.83, 211.28 146.0, 211.37 146.17, 211.46 146.33, 211.56 146.5, 211.65 146.67, 211.74 146.83, 211.84 147.0, 211.93 147.17, 212.02 147.33, 212.12 147.5, 212.21 147.67, 212.31 147.83, 212.4 148.0, 212.5 148.17, 212.59 148.33, 212.69 148.5, 212.79 148.67, 212.88 148.83, 212.98 149.0, 213.07 149.17, 213.17 149.33, 213.26 149.5, 213.36 149.67, 213.46 149.83, 213.55 150.0, 213.65 150.17, 213.74 150.33, 213.84 150.5, 213.93 150.67, 214.03 150.83, 214.12 151.0, 214.22 151.17, 214.31 151.33, 214.41 151.5, 214.5 151.67, 214.6 151.83, 214.69 152.0, 214.78 152.17, 214.87 152.33, 214.97 152.5, 215.06 152.67, 215.15 152.83, 215.24 153.0, 215.33 153.17, 215.42 153.33, 215.51 153.5, 215.6 153.67, 215.69 153.83, 215.78 154.0, 215.87 154.17, 215.95 154.33, 216.04 154.5, 216.13 154.67, 216.21 154.83, 216.3 155.0, 216.38 155.17, 216.47 155.33, 216.55 155.5, 216.63 155.67, 216.71 155.83, 216.79 156.0, 216.87 156.17, 216.95 156.33, 217.03 156.5, 217.11 156.67, 217.19 156.83, 217.26 157.0, 217.34 157.17, 217.41 157.33, 217.49 157.5, 217.56 157.67, 217.63 157.83, 217.71 158.0, 217.78 158.17, 217.85 158.33, 217.91 158.5, 217.98 158.67, 218.05 158.83, 218.12 159.0, 218.18 159.17, 218.25 159.33, 218.31 159.5, 218.37 159.67, 218.43 159.83, 218.49 160.0, 218.55 160.17, 218.61 160.33, 218.67 160.5, 218.72 160.67, 218.78 160.83, 218.83 161.0, 218.89 161.17, 218.94 161.33, 218.99 161.5, 219.04 161.67, 219.09 161.83, 219.14 162.0, 219.18 162.17, 219.23 162.33, 219.27 162.5, 219.32 162.67, 219.36 162.83, 219.4 163.0, 219.44 163.17, 219.48 163.33, 219.52 163.5, 219.55 163.67, 219.59 163.83, 219.62 164.0, 219.65 164.17, 219.69 164.33, 219.72 164.5, 219.75 164.67, 219.77 164.83, 219.8 165.0, 219.83 165.17, 219.85 165.33, 219.87 165.5, 219.9 165.67, 219.92 165.83, 219.94 166.0, 219.95 166.17, 219.97 166.33, 219.99 166.5, 220.0 166.67, 220.01 166.83, 220.02 167.0, 220.03 167.17, 220.04 167.33, 220.05 167.5, 220.06 167.67, 220.06 167.83, 220.07 168.0, 220.07 168.17, 220.07 168.33, 220.07 168.5, 220.07 168.67, 220.07 168.83, 220.06 169.0, 220.06 169.17, 220.05 169.33, 220.04 169.5, 220.04 169.67, 220.03 169.83, 220.01 170.0, 220.0 170.17, 219.99 170.33, 219.97 170.5, 219.95 170.67, 219.93 170.83, 219.92 171.0, 219.89 171.17, 219.87 171.33, 219.85 171.5, 219.82 171.67, 219.8 171.83, 219.77 172.0, 219.74 172.17, 219.71 172.33, 219.68 172.5, 219.65 172.67, 219.61 172.83, 219.58 173.0, 219.54 173.17, 219.5 173.33, 219.46 173.5, 219.42 173.67, 219.38 173.83, 219.33 174.0, 219.29 174.17, 219.24 174.33, 219.2 174.5, 219.15 174.67, 219.1 174.83, 219.05 175.0, 218.99 175.17, 218.94 175.33, 218.88 175.5, 218.83 175.67, 218.77 175.83, 218.71 176.0, 218.65 176.17, 218.59 176.33, 218.53 176.5, 218.46 176.67, 218.4 176.83, 218.33 177.0, 218.26 177.17, 218.19 177.33, 218.12 177.5, 218.05 177.67, 217.98 177.83, 217.91 178.0, 217.83 178.17, 217.75 178.33, 217.68 178.5, 217.6 178.67, 217.52 178.83, 217.44 179.0, 217.35 179.17, 217.27 179.33, 217.18 179.5, 217.1 179.67, 217.01 179.83, 216.92 180.0, 216.83 180.17, 216.74 180.33, 216.65 180.5, 216.56 180.67, 216.46 180.83, 216.37 181.0, 216.27 181.17, 216.17 181.33, 216.07 181.5, 215.97 181.67, 215.87 181.83, 215.77 182.0, 215.67 182.17, 215.56 182.33, 215.46 182.5, 215.35 182.67, 215.24 182.83, 215.14 183.0, 215.03 183.17, 214.92 183.33, 214.8 183.5, 214.69 183.67, 214.58 183.83, 214.46 184.0, 214.35 184.17, 214.23 184.33, 214.11 184.5, 213.99 184.67, 213.88 184.83, 213.75 185.0, 213.63 185.17, 213.51 185.33, 213.39 185.5, 213.26 185.67, 213.14 185.83, 213.01 186.0, 212.88 186.17, 212.76 186.33, 212.63 186.5, 212.5 186.67, 212.37 186.83, 212.24 187.0, 212.1 187.17, 211.97 187.33, 211.84 187.5, 211.7 187.67, 211.57 187.83, 211.43 188.0, 211.29 188.17, 211.15 188.33, 211.02 188.5, 210.88 188.67, 210.74 188.83, 210.6 189.0, 210.45 189.17, 210.31 189.33, 210.17 189.5, 210.02 189.67, 209.88 189.83, 209.73 190.0, 209.59 190.17, 209.44 190.33, 209.29 190.5, 209.15 190.67, 209.0 190.83, 208.85 191.0, 208.7 191.17, 208.55 191.33, 208.4 191.5, 208.25 191.67, 208.09 191.83, 207.94 192.0, 207.79 192.17, 207.63 192.33, 207.48 192.5, 207.33 192.67, 207.17 192.83, 207.01 193.0, 206.86 193.17, 206.7 193.33, 206.54 193.5, 206.39 193.67, 206.23 193.83, 206.07 194.0, 205.91 194.17, 205.75 194.33, 205.59 194.5, 205.43 194.67, 205.27 194.83, 205.11 195.0, 204.95 195.17, 204.79 195.33, 204.62 195.5, 204.46 195.67, 204.3 195.83, 204.14 196.0, 203.97 196.17, 203.81 196.33, 203.65 196.5, 203.48 196.67, 203.32 196.83, 203.15 197.0, 202.99 197.17, 202.82 197.33, 202.66 197.5, 202.49 197.67, 202.33 197.83, 202.16 198.0, 202.0 198.17, 201.83 198.33, 201.66 198.5, 201.5 198.67, 201.33 198.83, 201.17 199.0, 201.0 199.17, 200.83 199.33, 200.67 199.5, 200.5 199.67, 200.33 199.83, 200.17 200.0, 200.0 200.17, 199.83 200.33, 199.67 200.5, 199.5 200.67, 199.33 200.83, 199.17 201.0, 199.0 201.17, 198.83 201.33, 198.67 201.5, 198.5 201.67, 198.34 201.83, 198.17 202.0, 198.0 202.17, 197.84 202.33, 197.67 202.5, 197.51 202.67, 197.34 202.83, 197.18 203.0, 197.01 203.17, 196.85 203.33, 196.68 203.5, 196.52 203.67, 196.35 203.83, 196.19 204.0, 196.03 204.17, 195.86 204.33, 195.7 204.5, 195.54 204.67, 195.38 204.83, 195.21 205.0, 195.05 205.17, 194.89 205.33, 194.73 205.5, 194.57 205.67, 194.41 205.83, 194.25 206.0, 194.09 206.17, 193.93 206.33, 193.77 206.5, 193.61 206.67, 193.46 206.83, 193.3 207.0, 193.14 207.17, 192.99 207.33, 192.83 207.5, 192.67 207.67, 192.52 207.83, 192.37 208.0, 192.21 208.17, 192.06 208.33, 191.91 208.5, 191.75 208.67, 191.6 208.83, 191.45 209.0, 191.3 209.17, 191.15 209.33, 191.0 209.5, 190.85 209.67, 190.71 209.83, 190.56 210.0, 190.41 210.17, 190.27 210.33, 190.12 210.5, 189.98 210.67, 189.83 210.83, 189.69 211.0, 189.55 211.17, 189.4 211.33, 189.26 211.5, 189.12 211.67, 188.98 211.83, 188.85 212.0, 188.71 212.17, 188.57 212.33, 188.43 212.5, 188.3 212.67, 188.16 212.83, 188.03 213.0, 187.9 213.17, 187.76 213.33, 187.63 213.5, 187.5 213.67, 187.37 213.83, 187.24 214.0, 187.12 214.17, 186.99 214.33, 186.86 214.5, 186.74 214.67, 186.61 214.83, 186.49 215.0, 186.37 215.17, 186.25 215.33, 186.12 215.5, 186.01 215.67, 185.89 215.83, 185.77 216.0, 185.65 216.17, 185.54 216.33, 185.42 216.5, 185.31 216.67, 185.2 216.83, 185.08 217.0, 184.97 217.17, 184.86 217.33, 184.76 217.5, 184.65 217.67, 184.54 217.83, 184.44 218.0, 184.33 218.17, 184.23 218.33, 184.13 218.5, 184.03 218.67, 183.93 218.83, 183.83 219.0, 183.73 219.17, 183.63 219.33, 183.54 219.5, 183.44 219.67, 183.35 219.83, 183.26 220.0, 183.17 220.17, 183.08 220.33, 182.99 220.5, 182.9 220.67, 182.82 220.83, 182.73 221.0, 182.65 221.17, 182.56 221.33, 182.48 221.5, 182.4 221.67, 182.32 221.83, 182.25 222.0, 182.17 222.17, 182.09 222.33, 182.02 222.5, 181.95 222.67, 181.88 222.83, 181.81 223.0, 181.74 223.17, 181.67 223.33, 181.6 223.5, 181.54 223.67, 181.47 223.83, 181.41 224.0, 181.35 224.17, 181.29 224.33, 181.23 224.5, 181.17 224.67, 181.12 224.83, 181.06 225.0, 181.01 225.17, 180.95 225.33, 180.9 225.5, 180.85 225.67, 180.8 225.83, 180.76 226.0, 180.71 226.17, 180.67 226.33, 180.62 226.5, 180.58 226.67, 180.54 226.83, 180.5 227.0, 180.46 227.17, 180.42 227.33, 180.39 227.5, 180.35 227.67, 180.32 227.83, 180.29 228.0, 180.26 228.17, 180.23 228.33, 180.2 228.5, 180.18 228.67, 180.15 228.83, 180.13 229.0, 180.11 229.17, 180.08 229.33, 180.07 229.5, 180.05 229.67, 180.03 229.83, 180.01 230.0, 180.0 230.17, 179.99 230.33, 179.97 230.5, 179.96 230.67, 179.96 230.83, 179.95 231.0, 179.94 231.17, 179.94 231.33, 179.93 231.5, 179.93 231.67, 179.93 231.83, 179.93 232.0, 179.93 232.17, 179.93 232.33, 179.94 232.5, 179.94 232.67, 179.95 232.83, 179.96 233.0, 179.97 233.17, 179.98 233.33, 179.99 233.5, 180.0 233.67, 180.01 233.83, 180.03 234.0, 180.05 234.17, 180.06 234.33, 180.08 234.5, 180.1 234.67, 180.13 234.83, 180.15 235.0, 180.17 235.17, 180.2 235.33, 180.23 235.5, 180.25 235.67, 180.28 235.83, 180.31 236.0, 180.35 236.17, 180.38 236.33, 180.41 236.5, 180.45 236.67, 180.48 236.83, 180.52 237.0, 180.56 237.17, 180.6 237.33, 180.64 237.5, 180.68 237.67, 180.73 237.83, 180.77 238.0, 180.82 238.17, 180.86 238.33, 180.91 238.5, 180.96 238.67, 181.01 238.83, 181.06 239.0, 181.11 239.17, 181.17 239.33, 181.22 239.5, 181.28 239.67, 181.33 239.83, 181.39 240.0, 181.45 240.17, 181.51 240.33, 181.57 240.5, 181.63 240.67, 181.69 240.83, 181.75 241.0, 181.82 241.17, 181.88 241.33, 181.95 241.5, 182.02 241.67, 182.09 241.83, 182.15 242.0, 182.22 242.17, 182.29 242.33, 182.37 242.5, 182.44 242.67, 182.51 242.83, 182.59 243.0, 182.66 243.17, 182.74 243.33, 182.81 243.5, 182.89 243.67, 182.97 243.83, 183.05 244.0, 183.13 244.17, 183.21 244.33, 183.29 244.5, 183.37 244.67, 183.45 244.83, 183.53 245.0, 183.62 245.17, 183.7 245.33, 183.79 245.5, 183.87 245.67, 183.96 245.83, 184.05 246.0, 184.13 246.17, 184.22 246.33, 184.31 246.5, 184.4 246.67, 184.49 246.83, 184.58 247.0, 184.67 247.17, 184.76 247.33, 184.85 247.5, 184.94 247.67, 185.03 247.83, 185.13 248.0, 185.22 248.17, 185.31 248.33, 185.4 248.5, 185.5 248.67, 185.59 248.83, 185.69 249.0, 185.78 249.17, 185.88 249.33, 185.97 249.5, 186.07 249.67, 186.16 249.83, 186.26 250.0, 186.35 250.17, 186.45 250.33, 186.54 250.5, 186.64 250.67, 186.74 250.83, 186.83 251.0, 186.93 251.17, 187.02 251.33, 187.12 251.5, 187.21 251.67, 187.31 251.83, 187.41 252.0, 187.5 252.17, 187.6 252.33, 187.69 252.5, 187.79 252.67, 187.88 252.83, 187.98 253.0, 188.07 253.17, 188.16 253.33, 188.26 253.5, 188.35 253.67, 188.44 253.83, 188.54 254.0, 188.63 254.17, 188.72 254.33, 188.81 254.5, 188.9 254.67, 188.99 254.83, 189.08 255.0, 189.17 255.17, 189.26 255.33, 189.35 255.5, 189.44 255.67, 189.52 255.83, 189.61 256.0, 189.69 256.17, 189.78 256.33, 189.86 256.5, 189.95 256.67, 190.03 256.83, 190.11 257.0, 190.19 257.17, 190.27 257.33, 190.35 257.5, 190.42 257.67, 190.5 257.83, 190.58 258.0, 190.65 258.17, 190.73 258.33, 190.8 258.5, 190.87 258.67, 190.94 258.83, 191.01 259.0, 191.07 259.17, 191.14 259.33, 191.21 259.5, 191.27 259.67, 191.33 259.83, 191.39 260.0, 191.45 260.17, 191.51 260.33, 191.57 260.5, 191.62 260.67, 191.68 260.83, 191.73 261.0, 191.78 261.17, 191.83 261.33, 191.87 261.5, 191.92 261.67, 191.96 261.83, 192.0 262.0, 192.04 262.17, 192.08 262.33, 192.12 262.5, 192.15 262.67, 192.19 262.83, 192.22 263.0, 192.24 263.17, 192.27 263.33, 192.3 263.5, 192.32 263.67, 192.34 263.83, 192.35 264.0, 192.37 264.17, 192.38 264.33, 192.39 264.5, 192.4 264.67, 192.41 264.83, 192.41 265.0, 192.41 265.17, 192.41 265.33, 192.41 265.5, 192.4 265.67, 192.4 265.83, 192.38 266.0, 192.37 266.17, 192.35 266.33, 192.33 266.5, 192.31 266.67, 192.29 266.83, 192.26 267.0, 192.23 267.17, 192.19 267.33, 192.16 267.5, 192.12 267.67, 192.07 267.83, 192.03 268.0, 191.98 268.17, 191.92 268.33, 191.87 268.5, 191.81 268.67, 191.75 268.83, 191.68 269.0, 191.61 269.17, 191.54 269.33, 191.46 269.5, 191.38 269.67, 191.3 269.83, 191.22 270.0, 191.12 270.17, 191.03 270.33, 190.93 270.5, 190.83 270.67, 190.73 270.83, 190.62 271.0, 190.5 271.17, 190.39 271.33, 190.27 271.5, 190.14 271.67, 190.01 271.83, 189.88 272.0, 189.74 272.17, 189.6 272.33, 189.45 272.5, 189.3 272.67, 189.15 272.83, 188.99 273.0, 188.82 273.17, 188.66 273.33, 188.48 273.5, 188.31 273.67, 188.12 273.83, 187.94 274.0, 187.75 274.17, 187.55 274.33, 187.35 274.5, 187.14 274.67, 186.93 274.83, 186.72 275.0, 186.5 275.17, 186.27 275.33, 186.04 275.5, 185.8 275.67, 185.56 275.83, 185.32 276.0, 185.06 276.17, 184.81 276.33, 184.54 276.5, 184.28 276.67, 184.0 276.83, 183.72 277.0, 183.44 277.17, 183.15 277.33, 182.85 277.5, 182.55 277.67, 182.24 277.83, 181.93 278.0, 181.61 278.17, 181.28 278.33, 180.95 278.5, 180.61 278.67, 180.27 278.83, 179.92 279.0, 179.57 279.17, 179.2 279.33, 178.83 279.5, 178.46 279.67, 178.08 279.83, 177.69 280.0, 177.3 280.17, 176.89 280.33, 176.49 280.5, 176.07 280.67, 175.65 280.83, 175.22 281.0, 174.79 281.17, 174.35 281.33, 173.9 281.5, 173.44 281.67, 172.98 281.83, 172.51 282.0, 172.03 282.17, 171.55 282.33, 171.06 282.5, 170.56 282.67, 170.05 282.83, 169.54 283.0, 169.01 283.17, 168.49 283.33, 167.95 283.5, 167.4 283.67, 166.85 283.83, 166.29 284.0, 165.73 284.17, 165.15 284.33, 164.57 284.5, 163.97 284.67, 163.37 284.83, 162.77 285.0, 162.15 285.17, 161.53 285.33, 160.89 285.5, 160.25 285.67, 159.6 285.83, 158.95 286.0, 158.28 286.17, 157.6 286.33, 156.92 286.5, 156.23 286.67, 155.53 286.83, 154.82 287.0, 154.1 287.17, 153.37 287.33, 152.63 287.5, 151.89 287.67, 151.13 287.83, 150.37 288.0, 149.59 288.17, 148.81 288.33, 148.02 288.5, 147.22 288.67, 146.41 288.83, 145.58 289.0, 144.75 289.17, 143.91 289.33, 143.06 289.5, 142.2 289.67, 141.34 289.83, 140.46 290.0, 139.57 290.17, 138.67 290.33, 137.76 290.5, 136.84 290.67, 135.91 290.83, 134.97 291.0, 134.02 291.17, 133.06 291.33, 132.09 291.5, 131.1 291.67, 130.11 291.83, 129.11 292.0, 128.09 292.17, 127.07 292.33, 126.03 292.5, 124.99 292.67, 123.93 292.83, 122.86 293.0, 121.78 293.17, 120.69 293.33, 119.59 293.5, 118.48 293.67, 117.35 293.83, 116.22 294.0, 115.07 294.17, 113.91 294.33, 112.74 294.5, 111.56 294.67, 110.36 294.83, 109.16 295.0, 107.94 295.17, 106.71 295.33, 105.47 295.5, 104.22 295.67, 102.95 295.83, 101.67 296.0, 100.38 296.17, 99.08 296.33, 97.77 296.5, 96.44 296.67, 95.1 296.83, 93.75 297.0, 92.38 297.17, 91.01 297.33, 89.62 297.5, 88.21 297.67, 86.8 297.83, 85.37 298.0, 83.93 298.17, 82.47 298.33, 81.0 298.5, 79.52 298.67, 78.03 298.83, 76.52 299.0, 75.0 299.17, 73.47 299.33, 71.92 299.5, 70.36 299.67, 68.78 299.83, 67.19 300.0, 65.59 300.17, 63.97 300.33, 62.34 300.5, 60.7 300.67, 59.04 300.83, 57.36 301.0, 55.68 301.17, 53.98 301.33, 52.26 301.5, 50.53 301.67, 48.79 301.83, 47.03 302.0, 45.25 302.17, 43.47 302.33, 41.66 302.5, 39.85 302.67, 38.01 302.83, 36.17 303.0, 34.3 303.17, 32.43 303.33, 30.53 303.5, 28.63 303.67, 26.7 303.83, 24.77 304.0, 22.81 304.17, 20.84 304.33, 18.86 304.5, 16.86 304.67, 14.84 304.83, 12.81 305.0, 10.77 305.17, 8.7 305.33, 6.62 305.5, 4.53 305.67, 2.42 305.83, 0.29 306.0, -1.85 306.17, -4.01 306.33, -6.19 306.5, -8.38 306.67, -10.59 306.83, -12.81 307.0, -15.05 307.17, -17.31 307.33, -19.58 307.5, -21.87 307.67, -24.18 307.83, -26.51 308.0, -28.85 308.17, -31.21 308.33, -33.58 308.5, -35.98 308.67, -38.39 308.83, -40.81 309.0, -43.26 309.17, -45.72 309.33, -48.2 309.5, -50.7 309.67, -53.21 309.83, -55.74 310.0, -58.29 310.17, -60.86 310.33, -63.45 310.5, -66.05 310.67, -68.67 310.83, -71.31 311.0, -73.97 311.17, -76.64 311.33, -79.34 311.5, -82.05 311.67, -84.78 311.83, -87.53 312.0, -90.29 312.17, -93.08 312.33, -95.88 312.5, -98.71 312.67, -101.55 312.83, -104.41 313.0, -107.29 313.17, -110.19 313.33, -113.11 313.5, -116.04 313.67, -119.0 313.83, -121.97 314.0, -124.97 314.17, -127.98 314.33, -131.01 314.5, -134.06 314.67, -137.13 314.83, -140.23 315.0, -143.34 315.17, -146.47 315.33, -149.62 315.5, -152.79 315.67, -155.97 315.83, -159.18 316.0, -162.41 316.17, -165.66 316.33, -168.93 316.5, -172.22 316.67, -175.53 316.83, -178.86 317.0, -182.21 317.17, -185.58 317.33, -188.97 317.5, -192.38 317.67, -195.82 317.83, -199.27 318.0, -202.74 318.17, -206.24 318.33, -209.75 318.5, -213.29 318.67, -216.84 318.83, -220.42 319.0, -224.02 319.17, -227.64 319.33, -231.28 319.5, -234.94 319.67, -238.63 319.83, -242.33 320.0, -246.06 320.17, -249.8 320.33, -253.57 320.5, -257.36 320.67, -261.18 320.83, -265.01 321.0, -268.86 321.17, -272.74 321.33, -276.64 321.5, -280.56 321.67, -284.5 321.83, -288.47 322.0, -292.46 322.17, -296.46 322.33, -300.49 322.5, -304.55 322.67, -308.62 322.83, -312.72 323.0, -316.84 323.17, -320.98 323.33, -325.15 323.5, -329.33 323.67, -333.54 323.83, -337.78 324.0, -342.03 324.17, -346.31 324.33, -350.61 324.5, -354.93 324.67, -359.28 324.83, -363.65 325.0, -368.04 325.17, -372.45 325.33, -376.89 325.5, -381.35 325.67, -385.84 325.83, -390.35 326.0, -394.88 326.17, -399.43 326.33, -404.01 326.5, -408.61 326.67, -413.23 326.83, -417.88 327.0, -422.55 327.17, -427.25 327.33, -431.96 327.5, -436.71 327.67, -441.47 327.83, -446.26 328.0, -451.07 328.17, -455.91 328.33, -460.77 328.5, -465.66 328.67, -470.56 328.83, -475.5 329.0, -480.45 329.17, -485.44 329.33, -490.44 329.5, -495.47 329.67, -500.52 329.83, -505.6 330.0, -510.7 330.17, -515.83 330.33, -520.98 330.5, -526.15 330.67, -531.35 330.83, -536.58 331.0, -541.83 331.17, -547.1 331.33, -552.4 331.5, -557.72 331.67, -563.07 331.83, -568.44 332.0, -573.83 332.17, -579.25 332.33, -584.7 332.5, -590.17 332.67, -595.67 332.83, -601.19 333.0, -606.73 333.17, -612.3 333.33, -617.9 333.5, -623.52 333.67, -629.16 333.83, -634.83 334.0, -640.53 334.17, -646.25 334.33, -652.0 334.5, -657.77 334.67, -663.56 334.83, -669.39 335.0, -675.23 335.17, -681.11 335.33, -687.0 335.5, -692.93 335.67, -698.88 335.83, -704.85 336.0, -710.85 336.17, -716.87 336.33, -722.92 336.5, -729.0 336.67, -735.1 336.83, -741.23 337.0, -747.38 337.17, -753.56 337.33, -759.76 337.5, -765.99 337.67, -772.25 337.83, -778.53 338.0, -784.84 338.17, -791.17 338.33, -797.53 338.5, -803.91 338.67, -810.32 338.83, -816.76 339.0, -823.22 339.17, -829.7 339.33, -836.22 339.5, -842.76 339.67, -849.32 339.83, -855.91 340.0, -862.53 340.17, -869.17 340.33, -875.84 340.5, -882.53 340.67, -889.25 340.83, -896.0 341.0, -902.77 341.17, -909.57 341.33, -916.39 341.5, -923.24 341.67, -930.12 341.83, -937.02 342.0, -943.95 342.17, -950.9 342.33, -957.88 342.5, -964.89 342.67, -971.92 342.83, -978.98 343.0, -986.06 343.17, -993.17 343.33, -1000.31 343.5, -1007.47 343.67, -1014.66 343.83, -1021.87 344.0, -1029.11 344.17, -1036.38 344.33, -1043.67 344.5, -1050.99 344.67, -1058.33 344.83, -1065.7 345.0, -1073.1 345.17, -1080.52 345.33, -1087.97 345.5, -1095.44 345.67, -1102.94 345.83, -1110.47 346.0, -1118.02 346.17, -1125.6 346.33, -1133.2 346.5, -1140.83 346.67, -1148.49 346.83, -1156.17 347.0, -1163.88 347.17, -1171.61 347.33, -1179.37 347.5, -1187.15 347.67, -1194.96 347.83, -1202.8 348.0, -1210.66 348.17, -1218.55 348.33, -1226.46 348.5, -1234.4 348.67, -1242.37 348.83, -1250.36 349.0, -1258.37 349.17, -1266.42 349.33, -1274.48 349.5, -1282.58 349.67, -1290.69 349.83, -1298.84 350.0, -1307.01 350.17, -1315.2 350.33, -1323.42 350.5, -1331.67 350.67, -1339.94 350.83, -1348.24 351.0, -1356.56 351.17, -1364.9 351.33, -1373.28 351.5, -1381.67 351.67, -1390.1 351.83, -1398.54 352.0, -1407.02 352.17, -1415.51 352.33, -1424.04 352.5, -1432.58 352.67, -1441.16 352.83, -1449.75 353.0, -1458.38 353.17, -1467.02 353.33, -1475.69 353.5, -1484.39 353.67, -1493.11 353.83, -1501.86 354.0, -1510.63 354.17, -1519.42 354.33, -1528.24 354.5, -1537.08 354.67, -1545.95 354.83, -1554.84 355.0, -1563.76 355.17, -1572.7 355.33, -1581.66 355.5, -1590.65 355.67, -1599.67 355.83, -1608.7 356.0, -1617.76 356.17, -1626.85 356.33, -1635.96 356.5, -1645.09 356.67, -1654.24 356.83, -1663.42 357.0, -1672.62 357.17, -1681.85 357.33, -1691.1 357.5, -1700.37 357.67, -1709.67 357.83, -1718.99 358.0, -1728.33 358.17, -1737.69 358.33, -1747.08 358.5, -1756.49 358.67, -1765.93 358.83, -1775.38 359.0, -1784.86 359.17, -1794.36 359.33, -1803.89 359.5, -1813.44 359.67, -1823.0 359.83, -1832.6 360.0, -1842.21 360.17, -1851.84 360.33, -1861.5 360.5, -1871.18 360.67, -1880.88 360.83, -1890.61 361.0, -1900.35 361.17, -1910.12 361.33, -1919.9 361.5, -1929.71 361.67, -1939.54 361.83, -1949.39 362.0, -1959.27 362.17, -1969.16 362.33, -1979.07 362.5, -1989.01 362.67, -1998.96 362.83, -2008.94 363.0, -2018.94 363.17, -2028.95 363.33, -2038.99 363.5, -2049.05 363.67, -2059.13 363.83, -2069.22 364.0, -2079.34 364.17, -2089.48 364.33, -2099.63 364.5, -2109.81 364.67, -2120.01 364.83, -2130.22 365.0, -2140.45 365.17, -2150.71 365.33, -2160.98 365.5, -2171.27 365.67, -2181.58 365.83, -2191.9 366.0, -2202.25 366.17, -2212.61 366.33, -2223.0 366.5, -2233.4 366.67, -2243.81 366.83, -2254.25 367.0, -2264.7 367.17, -2275.17 367.33, -2285.66 367.5, -2296.17 367.67, -2306.69 367.83, -2317.23 368.0, -2327.78 368.17, -2338.36 368.33, -2348.95 368.5, -2359.55 368.67, -2370.17 368.83, -2380.81 369.0, -2391.46 369.17, -2402.13 369.33, -2412.82 369.5, -2423.52 369.67, -2434.23 369.83, -2444.96 370.0, -2455.71 370.17, -2466.47 370.33, -2477.25 370.5, -2488.03 370.67, -2498.84 370.83, -2509.66 371.0, -2520.49 371.17, -2531.33 371.33, -2542.19 371.5, -2553.07 371.67, -2563.95 371.83, -2574.85 372.0, -2585.77 372.17, -2596.69 372.33, -2607.63 372.5, -2618.58 372.67, -2629.54 372.83, -2640.52 373.0, -2651.5 373.17, -2662.5 373.33, -2673.51 373.5, -2684.53 373.67, -2695.56 373.83, -2706.61 374.0, -2717.66 374.17, -2728.72 374.33, -2739.8 374.5, -2750.88 374.67, -2761.98 374.83, -2773.08 375.0, -2784.2 375.17, -2795.32 375.33, -2806.45 375.5, -2817.59 375.67, -2828.74 375.83, -2839.9 376.0, -2851.07 376.17, -2862.24 376.33, -2873.43 376.5, -2884.62 376.67, -2895.82 376.83, -2907.02 377.0, -2918.23 377.17, -2929.45 377.33, -2940.68 377.5, -2951.91 377.67, -2963.15 377.83, -2974.39 378.0, -2985.64 378.17, -2996.9 378.33, -3008.16 378.5, -3019.42 378.67, -3030.69 378.83, -3041.97 379.0, -3053.25 379.17, -3064.53 379.33, -3075.81 379.5, -3087.1 379.67, -3098.4 379.83, -3109.69 380.0, -3120.99 380.17, -3132.29 380.33, -3143.6 380.5, -3154.9 380.67, -3166.21 380.83, -3177.52 381.0, -3188.83 381.17, -3200.14 381.33, -3211.45 381.5, -3222.76 381.67, -3234.07 381.83, -3245.38 382.0, -3256.69 382.17, -3268.01 382.33, -3279.31 382.5, -3290.62 382.67, -3301.93 382.83, -3313.23 383.0, -3324.54 383.17, -3335.84 383.33, -3347.13 383.5, -3358.43 383.67, -3369.72 383.83, -3381.01 384.0, -3392.29 384.17, -3403.57 384.33, -3414.85 384.5, -3426.12 384.67, -3437.38 384.83, -3448.64 385.0, -3459.9 385.17, -3471.15 385.33, -3482.39 385.5, -3493.62 385.67, -3504.85 385.83, -3516.07 386.0, -3527.29 386.17, -3538.49 386.33, -3549.69 386.5, -3560.88 386.67, -3572.06 386.83, -3583.23 387.0, -3594.39 387.17, -3605.54 387.33, -3616.69 387.5, -3627.82 387.67, -3638.94 387.83, -3650.04 388.0, -3661.14 388.17, -3672.23 388.33, -3683.3 388.5, -3694.36 388.67, -3705.41 388.83, -3716.44 389.0, -3727.46 389.17, -3738.47 389.33, -3749.46 389.5, -3760.44 389.67, -3771.4 389.83, -3782.35 390.0, -3793.28 390.17, -3804.19 390.33, -3815.09 390.5, -3825.97 390.67, -3836.83 390.83, -3847.68 391.0, -3858.51 391.17, -3869.32 391.33, -3880.11 391.5, -3890.88 391.67, -3901.63 391.83, -3912.36 392.0, -3923.07 392.17, -3933.76 392.33, -3944.43 392.5, -3955.08 392.67, -3965.7 392.83, -3976.31 393.0, -3986.88 393.17, -3997.44 393.33, -4007.97 393.5, -4018.48 393.67, -4028.97 393.83, -4039.42 394.0, -4049.86 394.17, -4060.27 394.33, -4070.65 394.5, -4081.0 394.67, -4091.33 394.83, -4101.63 395.0, -4111.9 395.17, -4122.14 395.33, -4132.36 395.5, -4142.54 395.67, -4152.7 395.83, -4162.82 396.0, -4172.92 396.17, -4182.98 396.33, -4193.01 396.5, -4203.01 396.67, -4212.98 396.83, -4222.92 397.0, -4232.82 397.17, -4242.68 397.33, -4252.52 397.5, -4262.31 397.67, -4272.08 397.83, -4281.8 398.0, -4291.49 398.17, -4301.15 398.33, -4310.76 398.5, -4320.34 398.67, -4329.88 398.83, -4339.38 399.0, -4348.84 399.17, -4358.27 399.33, -4367.65 399.5, -4376.99 399.67, -4386.29 399.83, -4395.55 400.0, -4404.76 " fill="none" stroke="white" stroke-width="1.5" stroke-linejoin="round" stroke-opacity="1"/>

 </svg>