<svg version="1.1" 
 baseProfile="full" 
 width="400" 
 height="400" 
 xmlns="http://www.w3.org/2000/svg">
<rect x="0.0" y="0.0" width="400" height="400" fill="black" stroke="black" stroke-width="0" opacity="1"/>
<line x1="0.0" y1="0.0" x2="0.0" y2="400.0" stroke="white" stroke-width="1" opacity="0.4" stroke-linecap="butt"/>
<line x1="40.0" y1="0.0" x2="40.0" y2="400.0" stroke="white" stroke-width="1" opacity="0.4" stroke-linecap="butt"/>
<line x1="80.0" y1="0.0" x2="80.0" y2="400.0" stroke="white" stroke-width="1" opacity="0.4" stroke-linecap="butt"/>
<line x1="120.0" y1="0.0" x2="120.0" y2="400.0" stroke="white" stroke-width="1" opacity="0.4" stroke-linecap="butt"/>
<line x1="160.0" y1="0.0" x2="160.0" y2="400.0" stroke="white" stroke-width="1" opacity="0.4" stroke-linecap="butt"/>
<line x1="200.0" y1="0.0" x2="200.0" y2="400.0" stroke="white" stroke-width="1" opacity="0.4" stroke-linecap="butt"/>
<line x1="240.0" y1="0.0" x2="240.0" y2="400.0" stroke="white" stroke-width="1" opacity="0.4" stroke-linecap="butt"/>
<line x1="280.0" y1="0.0" x2="280.0" y2="400.0" stroke="white" stroke-width="1" opacity="0.4" stroke-linecap="butt"/>
<line x1="320.0" y1="0.0" x2="320.0" y2="400.0" stroke="white" stroke-width="1" opacity="0.4" stroke-linecap="butt"/>
<line x1="360.0" y1="0.0" x2="360.0" y2="400.0" stroke="white" stroke-width="1" opacity="0.4" stroke-linecap="butt"/>
<line x1="0.0" y1="0.0" x2="400.0" y2="0.0" stroke="white" stroke-width="1" opacity="0.4" stroke-linecap="butt"/>
<line x1="0.0" y1="40.0" x2="400.0" y2="40.0" stroke="white" stroke-width="1" opacity="0.4" stroke-linecap="butt"/>
<line x1="0.0" y1="80.0" x2="400.0" y2="80.0" stroke="white" stroke-width="1" opacity="0.4" stroke-linecap="butt"/>
<line x1="0.0" y1="120.0" x2="400.0" y2="120.0" stroke="white" stroke-width="1" opacity="0.4" stroke-linecap="butt"/>
<line x1="0.0" y1="160.0" x2="400.0" y2="160.0" stroke="white" stroke-width="1" opacity="0.4" stroke-linecap="butt"/>
<line x1="0.0" y1="200.0" x2="400.0" y2="200.0" stroke="white" stroke-width="1" opacity="0.4" stroke-linecap="butt"/>
<line x1="0.0" y1="240.0" x2="400.0" y2="240.0" stroke="white" stroke-width="1" opacity="0.4" stroke-linecap="butt"/>
<line x1="0.0" y1="280.0" x2="400.0" y2="280.0" stroke="white" stroke-width="1" opacity="0.4" stroke-linecap="butt"/>
<line x1="0.0" y1="320.0" x2="400.0" y2="320.0" stroke="white" stroke-width="1" opacity="0.4" stroke-linecap="butt"/>
<line x1="0.0" y1="360.0" x2="400.0" y2="360.0" stroke="white" stroke-width="1" opacity="0.4" stroke-linecap="butt"/>
<line x1="0.0" y1="200.0" x2="400.0" y2="200.0" stroke="yellow" stroke-width="2.5" opacity="1" stroke-linecap="butt"/>
<line x1="200.0" y1="0.0" x2="200.0" y2="400.0" stroke="yellow" stroke-width="2.5" opacity="1" stroke-linecap="butt"/>
<polygon points="391.0 204.0, 401.0 200.0, 391.0 196.0, 393.0 200.0" fill="yellow"/><polygon points="204.0 9.0, 200.0 -1.0, 196.0 9.0, 200.0 7.0" fill="yellow"/><image x="-60.0" y="-60.0" width="200" height="200" href="/Users/girirajhira/PycharmProjects/Giraphics3/Taylor/expr.png"/><polyline points="0.0, 6788.89 0.17, 6768.13 0.33, 6747.38 0.5, 6726.65 0.67, 6705.94 0.83, 6685.24 1.0, 6664.56 1.17, 6643.89 1.33, 6623.25 1.5, 6602.61 1.67, 6582.0 1.83, 6561.41 2.0, 6540.83 2.17, 6520.27 2.33, 6499.73 2.5, 6479.21 2.67, 6458.7 2.83, 6438.22 3.0, 6417.75 3.17, 6397.31 3.33, 6376.88 3.5, 6356.48 3.67, 6336.1 3.83, 6315.73 4.0, 6295.39 4.17, 6275.07 4.33, 6254.77 4.5, 6234.49 4.67, 6214.23 4.83, 6194.0 5.0, 6173.79 5.17, 6153.6 5.33, 6133.43 5.5, 6113.29 5.67, 6093.17 5.83, 6073.07 6.0, 6053.0 6.17, 6032.95 6.33, 6012.92 6.5, 5992.92 6.67, 5972.95 6.83, 5952.99 7.0, 5933.07 7.17, 5913.17 7.33, 5893.29 7.5, 5873.44 7.67, 5853.61 7.83, 5833.81 8.0, 5814.04 8.17, 5794.29 8.33, 5774.57 8.5, 5754.88 8.67, 5735.21 8.83, 5715.57 9.0, 5695.96 9.17, 5676.37 9.33, 5656.82 9.5, 5637.29 9.67, 5617.79 9.83, 5598.31 10.0, 5578.87 10.17, 5559.45 10.33, 5540.06 10.5, 5520.7 10.67, 5501.38 10.83, 5482.07 11.0, 5462.8 11.17, 5443.56 11.33, 5424.35 11.5, 5405.17 11.67, 5386.02 11.83, 5366.89 12.0, 5347.8 12.17, 5328.74 12.33, 5309.71 12.5, 5290.71 12.67, 5271.75 12.83, 5252.81 13.0, 5233.9 13.17, 5215.03 13.33, 5196.19 13.5, 5177.38 13.67, 5158.6 13.83, 5139.85 14.0, 5121.14 14.17, 5102.46 14.33, 5083.81 14.5, 5065.19 14.67, 5046.61 14.83, 5028.05 15.0, 5009.54 15.17, 4991.05 15.33, 4972.6 15.5, 4954.18 15.67, 4935.8 15.83, 4917.45 16.0, 4899.13 16.17, 4880.85 16.33, 4862.6 16.5, 4844.38 16.67, 4826.2 16.83, 4808.06 17.0, 4789.95 17.17, 4771.87 17.33, 4753.83 17.5, 4735.82 17.67, 4717.85 17.83, 4699.92 18.0, 4682.01 18.17, 4664.15 18.33, 4646.32 18.5, 4628.52 18.67, 4610.77 18.83, 4593.04 19.0, 4575.36 19.17, 4557.7 19.33, 4540.09 19.5, 4522.51 19.67, 4504.97 19.83, 4487.46 20.0, 4469.99 20.17, 4452.56 20.33, 4435.17 20.5, 4417.81 20.67, 4400.48 20.83, 4383.2 21.0, 4365.95 21.17, 4348.74 21.33, 4331.57 21.5, 4314.43 21.67, 4297.33 21.83, 4280.27 22.0, 4263.25 22.17, 4246.26 22.33, 4229.32 22.5, 4212.41 22.67, 4195.53 22.83, 4178.7 23.0, 4161.9 23.17, 4145.15 23.33, 4128.43 23.5, 4111.75 23.67, 4095.1 23.83, 4078.5 24.0, 4061.93 24.17, 4045.41 24.33, 4028.92 24.5, 4012.47 24.67, 3996.06 24.83, 3979.69 25.0, 3963.35 25.17, 3947.06 25.33, 3930.81 25.5, 3914.59 25.67, 3898.41 25.83, 3882.28 26.0, 3866.18 26.17, 3850.12 26.33, 3834.1 26.5, 3818.12 26.67, 3802.18 26.83, 3786.28 27.0, 3770.42 27.17, 3754.6 27.33, 3738.82 27.5, 3723.08 27.67, 3707.38 27.83, 3691.72 28.0, 3676.1 28.17, 3660.52 28.33, 3644.98 28.5, 3629.47 28.67, 3614.01 28.83, 3598.59 29.0, 3583.21 29.17, 3567.87 29.33, 3552.57 29.5, 3537.31 29.67, 3522.09 29.83, 3506.91 30.0, 3491.78 30.17, 3476.68 30.33, 3461.62 30.5, 3446.6 30.67, 3431.63 30.83, 3416.69 31.0, 3401.8 31.17, 3386.94 31.33, 3372.13 31.5, 3357.35 31.67, 3342.62 31.83, 3327.93 32.0, 3313.28 32.17, 3298.67 32.33, 3284.1 32.5, 3269.57 32.67, 3255.09 32.83, 3240.64 33.0, 3226.23 33.17, 3211.87 33.33, 3197.55 33.5, 3183.26 33.67, 3169.02 33.83, 3154.82 34.0, 3140.66 34.17, 3126.54 34.33, 3112.47 34.5, 3098.43 34.67, 3084.44 34.83, 3070.48 35.0, 3056.57 35.17, 3042.7 35.33, 3028.87 35.5, 3015.08 35.67, 3001.33 35.83, 2987.62 36.0, 2973.95 36.17, 2960.33 36.33, 2946.75 36.5, 2933.2 36.67, 2919.7 36.83, 2906.24 37.0, 2892.82 37.17, 2879.44 37.33, 2866.11 37.5, 2852.81 37.67, 2839.56 37.83, 2826.34 38.0, 2813.17 38.17, 2800.04 38.33, 2786.95 38.5, 2773.9 38.67, 2760.89 38.83, 2747.93 39.0, 2735.0 39.17, 2722.12 39.33, 2709.27 39.5, 2696.47 39.67, 2683.71 39.83, 2670.99 40.0, 2658.31 40.17, 2645.67 40.33, 2633.08 40.5, 2620.52 40.67, 2608.01 40.83, 2595.53 41.0, 2583.1 41.17, 2570.71 41.33, 2558.35 41.5, 2546.04 41.67, 2533.78 41.83, 2521.55 42.0, 2509.36 42.17, 2497.21 42.33, 2485.11 42.5, 2473.04 42.67, 2461.02 42.83, 2449.03 43.0, 2437.09 43.17, 2425.19 43.33, 2413.33 43.5, 2401.51 43.67, 2389.73 43.83, 2377.99 44.0, 2366.29 44.17, 2354.63 44.33, 2343.01 44.5, 2331.43 44.67, 2319.89 44.83, 2308.4 45.0, 2296.94 45.17, 2285.53 45.33, 2274.15 45.5, 2262.81 45.67, 2251.52 45.83, 2240.26 46.0, 2229.05 46.17, 2217.87 46.33, 2206.74 46.5, 2195.65 46.67, 2184.59 46.83, 2173.58 47.0, 2162.6 47.17, 2151.67 47.33, 2140.77 47.5, 2129.92 47.67, 2119.11 47.83, 2108.33 48.0, 2097.59 48.17, 2086.9 48.33, 2076.24 48.5, 2065.63 48.67, 2055.05 48.83, 2044.51 49.0, 2034.02 49.17, 2023.56 49.33, 2013.14 49.5, 2002.76 49.67, 1992.42 49.83, 1982.12 50.0, 1971.86 50.17, 1961.63 50.33, 1951.45 50.5, 1941.31 50.67, 1931.2 50.83, 1921.14 51.0, 1911.11 51.17, 1901.12 51.33, 1891.17 51.5, 1881.26 51.67, 1871.39 51.83, 1861.55 52.0, 1851.76 52.17, 1842.0 52.33, 1832.28 52.5, 1822.61 52.67, 1812.97 52.83, 1803.36 53.0, 1793.8 53.17, 1784.27 53.33, 1774.79 53.5, 1765.34 53.67, 1755.92 53.83, 1746.55 54.0, 1737.22 54.17, 1727.92 54.33, 1718.66 54.5, 1709.44 54.67, 1700.25 54.83, 1691.11 55.0, 1682.0 55.17, 1672.93 55.33, 1663.89 55.5, 1654.9 55.67, 1645.94 55.83, 1637.02 56.0, 1628.13 56.17, 1619.29 56.33, 1610.48 56.5, 1601.7 56.67, 1592.97 56.83, 1584.27 57.0, 1575.61 57.17, 1566.98 57.33, 1558.39 57.5, 1549.84 57.67, 1541.33 57.83, 1532.85 58.0, 1524.41 58.17, 1516.0 58.33, 1507.63 58.5, 1499.3 58.67, 1491.0 58.83, 1482.74 59.0, 1474.52 59.17, 1466.33 59.33, 1458.18 59.5, 1450.06 59.67, 1441.98 59.83, 1433.94 60.0, 1425.93 60.17, 1417.96 60.33, 1410.02 60.5, 1402.12 60.67, 1394.25 60.83, 1386.42 61.0, 1378.62 61.17, 1370.86 61.33, 1363.13 61.5, 1355.44 61.67, 1347.79 61.83, 1340.17 62.0, 1332.58 62.17, 1325.03 62.33, 1317.51 62.5, 1310.03 62.67, 1302.58 62.83, 1295.17 63.0, 1287.79 63.17, 1280.45 63.33, 1273.14 63.5, 1265.86 63.67, 1258.62 63.83, 1251.42 64.0, 1244.24 64.17, 1237.1 64.33, 1230.0 64.5, 1222.92 64.67, 1215.89 64.83, 1208.88 65.0, 1201.91 65.17, 1194.97 65.33, 1188.07 65.5, 1181.2 65.67, 1174.36 65.83, 1167.55 66.0, 1160.78 66.17, 1154.04 66.33, 1147.34 66.5, 1140.66 66.67, 1134.02 66.83, 1127.42 67.0, 1120.84 67.17, 1114.3 67.33, 1107.79 67.5, 1101.31 67.67, 1094.87 67.83, 1088.45 68.0, 1082.07 68.17, 1075.72 68.33, 1069.4 68.5, 1063.12 68.67, 1056.86 68.83, 1050.64 69.0, 1044.45 69.17, 1038.29 69.33, 1032.17 69.5, 1026.07 69.67, 1020.0 69.83, 1013.97 70.0, 1007.97 70.17, 1002.0 70.33, 996.06 70.5, 990.15 70.67, 984.27 70.83, 978.42 71.0, 972.6 71.17, 966.82 71.33, 961.06 71.5, 955.33 71.67, 949.64 71.83, 943.97 72.0, 938.34 72.17, 932.73 72.33, 927.16 72.5, 921.61 72.67, 916.09 72.83, 910.61 73.0, 905.15 73.17, 899.72 73.33, 894.33 73.5, 888.96 73.67, 883.62 73.83, 878.31 74.0, 873.03 74.17, 867.78 74.33, 862.56 74.5, 857.36 74.67, 852.2 74.83, 847.06 75.0, 841.95 75.17, 836.88 75.33, 831.82 75.5, 826.8 75.67, 821.81 75.83, 816.84 76.0, 811.9 76.17, 807.0 76.33, 802.11 76.5, 797.26 76.67, 792.43 76.83, 787.63 77.0, 782.86 77.17, 778.12 77.33, 773.4 77.5, 768.71 77.67, 764.05 77.83, 759.42 78.0, 754.81 78.17, 750.23 78.33, 745.68 78.5, 741.15 78.67, 736.65 78.83, 732.18 79.0, 727.73 79.17, 723.31 79.33, 718.91 79.5, 714.55 79.67, 710.21 79.83, 705.89 80.0, 701.6 80.17, 697.34 80.33, 693.1 80.5, 688.89 80.67, 684.7 80.83, 680.54 81.0, 676.4 81.17, 672.29 81.33, 668.21 81.5, 664.15 81.67, 660.11 81.83, 656.11 82.0, 652.12 82.17, 648.16 82.33, 644.23 82.5, 640.32 82.67, 636.43 82.83, 632.57 83.0, 628.73 83.17, 624.92 83.33, 621.13 83.5, 617.37 83.67, 613.63 83.83, 609.91 84.0, 606.22 84.17, 602.55 84.33, 598.91 84.5, 595.29 84.67, 591.69 84.83, 588.12 85.0, 584.57 85.17, 581.04 85.33, 577.54 85.5, 574.06 85.67, 570.6 85.83, 567.17 86.0, 563.75 86.17, 560.36 86.33, 557.0 86.5, 553.65 86.67, 550.33 86.83, 547.03 87.0, 543.76 87.17, 540.5 87.33, 537.27 87.5, 534.06 87.67, 530.87 87.83, 527.71 88.0, 524.56 88.17, 521.44 88.33, 518.34 88.5, 515.26 88.67, 512.2 88.83, 509.16 89.0, 506.15 89.17, 503.16 89.33, 500.18 89.5, 497.23 89.67, 494.3 89.83, 491.39 90.0, 488.5 90.17, 485.63 90.33, 482.78 90.5, 479.95 90.67, 477.15 90.83, 474.36 91.0, 471.59 91.17, 468.85 91.33, 466.12 91.5, 463.41 91.67, 460.73 91.83, 458.06 92.0, 455.41 92.17, 452.79 92.33, 450.18 92.5, 447.59 92.67, 445.02 92.83, 442.47 93.0, 439.94 93.17, 437.43 93.33, 434.94 93.5, 432.47 93.67, 430.01 93.83, 427.58 94.0, 425.16 94.17, 422.76 94.33, 420.38 94.5, 418.02 94.67, 415.68 94.83, 413.35 95.0, 411.05 95.17, 408.76 95.33, 406.49 95.5, 404.24 95.67, 402.0 95.83, 399.78 96.0, 397.59 96.17, 395.41 96.33, 393.24 96.5, 391.1 96.67, 388.97 96.83, 386.86 97.0, 384.76 97.17, 382.68 97.33, 380.62 97.5, 378.58 97.67, 376.55 97.83, 374.54 98.0, 372.55 98.17, 370.58 98.33, 368.62 98.5, 366.67 98.67, 364.75 98.83, 362.84 99.0, 360.94 99.17, 359.06 99.33, 357.2 99.5, 355.36 99.67, 353.53 99.83, 351.71 100.0, 349.91 100.17, 348.13 100.33, 346.36 100.5, 344.61 100.67, 342.88 100.83, 341.15 101.0, 339.45 101.17, 337.76 101.33, 336.08 101.5, 334.42 101.67, 332.78 101.83, 331.15 102.0, 329.53 102.17, 327.93 102.33, 326.34 102.5, 324.77 102.67, 323.21 102.83, 321.67 103.0, 320.14 103.17, 318.63 103.33, 317.13 103.5, 315.64 103.67, 314.17 103.83, 312.71 104.0, 311.26 104.17, 309.83 104.33, 308.42 104.5, 307.01 104.67, 305.62 104.83, 304.25 105.0, 302.88 105.17, 301.53 105.33, 300.2 105.5, 298.87 105.67, 297.56 105.83, 296.27 106.0, 294.98 106.17, 293.71 106.33, 292.45 106.5, 291.21 106.67, 289.97 106.83, 288.75 107.0, 287.54 107.17, 286.35 107.33, 285.17 107.5, 283.99 107.67, 282.83 107.83, 281.69 108.0, 280.55 108.17, 279.43 108.33, 278.32 108.5, 277.22 108.67, 276.13 108.83, 275.06 109.0, 273.99 109.17, 272.94 109.33, 271.9 109.5, 270.87 109.67, 269.85 109.83, 268.84 110.0, 267.85 110.17, 266.86 110.33, 265.89 110.5, 264.93 110.67, 263.97 110.83, 263.03 111.0, 262.1 111.17, 261.18 111.33, 260.27 111.5, 259.37 111.67, 258.49 111.83, 257.61 112.0, 256.74 112.17, 255.88 112.33, 255.04 112.5, 254.2 112.67, 253.37 112.83, 252.56 113.0, 251.75 113.17, 250.95 113.33, 250.17 113.5, 249.39 113.67, 248.62 113.83, 247.86 114.0, 247.11 114.17, 246.38 114.33, 245.65 114.5, 244.92 114.67, 244.21 114.83, 243.51 115.0, 242.82 115.17, 242.13 115.33, 241.46 115.5, 240.79 115.67, 240.14 115.83, 239.49 116.0, 238.85 116.17, 238.22 116.33, 237.6 116.5, 236.98 116.67, 236.38 116.83, 235.78 117.0, 235.19 117.17, 234.61 117.33, 234.04 117.5, 233.48 117.67, 232.92 117.83, 232.37 118.0, 231.83 118.17, 231.3 118.33, 230.78 118.5, 230.26 118.67, 229.75 118.83, 229.25 119.0, 228.76 119.17, 228.27 119.33, 227.79 119.5, 227.32 119.67, 226.86 119.83, 226.4 120.0, 225.96 120.17, 225.51 120.33, 225.08 120.5, 224.65 120.67, 224.23 120.83, 223.82 121.0, 223.41 121.17, 223.01 121.33, 222.62 121.5, 222.23 121.67, 221.85 121.83, 221.48 122.0, 221.11 122.17, 220.75 122.33, 220.4 122.5, 220.05 122.67, 219.71 122.83, 219.38 123.0, 219.05 123.17, 218.73 123.33, 218.41 123.5, 218.1 123.67, 217.8 123.83, 217.5 124.0, 217.21 124.17, 216.92 124.33, 216.64 124.5, 216.36 124.67, 216.09 124.83, 215.83 125.0, 215.57 125.17, 215.32 125.33, 215.07 125.5, 214.83 125.67, 214.59 125.83, 214.36 126.0, 214.14 126.17, 213.92 126.33, 213.7 126.5, 213.49 126.67, 213.28 126.83, 213.08 127.0, 212.89 127.17, 212.7 127.33, 212.51 127.5, 212.33 127.67, 212.15 127.83, 211.98 128.0, 211.82 128.17, 211.65 128.33, 211.49 128.5, 211.34 128.67, 211.19 128.83, 211.05 129.0, 210.91 129.17, 210.77 129.33, 210.64 129.5, 210.51 129.67, 210.39 129.83, 210.27 130.0, 210.15 130.17, 210.04 130.33, 209.93 130.5, 209.83 130.67, 209.73 130.83, 209.63 131.0, 209.54 131.17, 209.45 131.33, 209.37 131.5, 209.29 131.67, 209.21 131.83, 209.14 132.0, 209.06 132.17, 209.0 132.33, 208.93 132.5, 208.87 132.67, 208.82 132.83, 208.76 133.0, 208.71 133.17, 208.67 133.33, 208.62 133.5, 208.58 133.67, 208.54 133.83, 208.51 134.0, 208.48 134.17, 208.45 134.33, 208.42 134.5, 208.4 134.67, 208.38 134.83, 208.36 135.0, 208.35 135.17, 208.33 135.33, 208.32 135.5, 208.32 135.67, 208.31 135.83, 208.31 136.0, 208.31 136.17, 208.31 136.33, 208.32 136.5, 208.33 136.67, 208.34 136.83, 208.35 137.0, 208.37 137.17, 208.38 137.33, 208.4 137.5, 208.42 137.67, 208.45 137.83, 208.47 138.0, 208.5 138.17, 208.53 138.33, 208.56 138.5, 208.6 138.67, 208.63 138.83, 208.67 139.0, 208.71 139.17, 208.75 139.33, 208.79 139.5, 208.84 139.67, 208.88 139.83, 208.93 140.0, 208.98 140.17, 209.03 140.33, 209.09 140.5, 209.14 140.67, 209.2 140.83, 209.25 141.0, 209.31 141.17, 209.37 141.33, 209.43 141.5, 209.49 141.67, 209.56 141.83, 209.62 142.0, 209.69 142.17, 209.76 142.33, 209.83 142.5, 209.9 142.67, 209.97 142.83, 210.04 143.0, 210.11 143.17, 210.19 143.33, 210.26 143.5, 210.34 143.67, 210.42 143.83, 210.49 144.0, 210.57 144.17, 210.65 144.33, 210.73 144.5, 210.82 144.67, 210.9 144.83, 210.98 145.0, 211.06 145.17, 211.15 145.33, 211.23 145.5, 211.32 145.67, 211.4 145.83, 211.49 146.0, 211.58 146.17, 211.67 146.33, 211.75 146.5, 211.84 146.67, 211.93 146.83, 212.02 147.0, 212.11 147.17, 212.2 147.33, 212.29 147.5, 212.38 147.67, 212.47 147.83, 212.57 148.0, 212.66 148.17, 212.75 148.33, 212.84 148.5, 212.93 148.67, 213.03 148.83, 213.12 149.0, 213.21 149.17, 213.3 149.33, 213.4 149.5, 213.49 149.67, 213.58 149.83, 213.68 150.0, 213.77 150.17, 213.86 150.33, 213.95 150.5, 214.05 150.67, 214.14 150.83, 214.23 151.0, 214.32 151.17, 214.42 151.33, 214.51 151.5, 214.6 151.67, 214.69 151.83, 214.78 152.0, 214.87 152.17, 214.96 152.33, 215.05 152.5, 215.14 152.67, 215.23 152.83, 215.32 153.0, 215.41 153.17, 215.5 153.33, 215.59 153.5, 215.67 153.67, 215.76 153.83, 215.85 154.0, 215.93 154.17, 216.02 154.33, 216.1 154.5, 216.19 154.67, 216.27 154.83, 216.36 155.0, 216.44 155.17, 216.52 155.33, 216.6 155.5, 216.68 155.67, 216.76 155.83, 216.84 156.0, 216.92 156.17, 217.0 156.33, 217.08 156.5, 217.16 156.67, 217.23 156.83, 217.31 157.0, 217.38 157.17, 217.46 157.33, 217.53 157.5, 217.6 157.67, 217.67 157.83, 217.74 158.0, 217.81 158.17, 217.88 158.33, 217.95 158.5, 218.02 158.67, 218.08 158.83, 218.15 159.0, 218.21 159.17, 218.27 159.33, 218.34 159.5, 218.4 159.67, 218.46 159.83, 218.52 160.0, 218.58 160.17, 218.64 160.33, 218.69 160.5, 218.75 160.67, 218.8 160.83, 218.86 161.0, 218.91 161.17, 218.96 161.33, 219.01 161.5, 219.06 161.67, 219.11 161.83, 219.16 162.0, 219.2 162.17, 219.25 162.33, 219.29 162.5, 219.33 162.67, 219.37 162.83, 219.42 163.0, 219.45 163.17, 219.49 163.33, 219.53 163.5, 219.57 163.67, 219.6 163.83, 219.63 164.0, 219.67 164.17, 219.7 164.33, 219.73 164.5, 219.76 164.67, 219.78 164.83, 219.81 165.0, 219.84 165.17, 219.86 165.33, 219.88 165.5, 219.9 165.67, 219.92 165.83, 219.94 166.0, 219.96 166.17, 219.98 166.33, 219.99 166.5, 220.01 166.67, 220.02 166.83, 220.03 167.0, 220.04 167.17, 220.05 167.33, 220.06 167.5, 220.06 167.67, 220.07 167.83, 220.07 168.0, 220.08 168.17, 220.08 168.33, 220.08 168.5, 220.08 168.67, 220.07 168.83, 220.07 169.0, 220.06 169.17, 220.06 169.33, 220.05 169.5, 220.04 169.67, 220.03 169.83, 220.02 170.0, 220.0 170.17, 219.99 170.33, 219.97 170.5, 219.96 170.67, 219.94 170.83, 219.92 171.0, 219.9 171.17, 219.87 171.33, 219.85 171.5, 219.83 171.67, 219.8 171.83, 219.77 172.0, 219.74 172.17, 219.71 172.33, 219.68 172.5, 219.65 172.67, 219.61 172.83, 219.58 173.0, 219.54 173.17, 219.5 173.33, 219.46 173.5, 219.42 173.67, 219.38 173.83, 219.34 174.0, 219.29 174.17, 219.25 174.33, 219.2 174.5, 219.15 174.67, 219.1 174.83, 219.05 175.0, 218.99 175.17, 218.94 175.33, 218.89 175.5, 218.83 175.67, 218.77 175.83, 218.71 176.0, 218.65 176.17, 218.59 176.33, 218.53 176.5, 218.46 176.67, 218.4 176.83, 218.33 177.0, 218.26 177.17, 218.19 177.33, 218.12 177.5, 218.05 177.67, 217.98 177.83, 217.91 178.0, 217.83 178.17, 217.75 178.33, 217.68 178.5, 217.6 178.67, 217.52 178.83, 217.44 179.0, 217.35 179.17, 217.27 179.33, 217.18 179.5, 217.1 179.67, 217.01 179.83, 216.92 180.0, 216.83 180.17, 216.74 180.33, 216.65 180.5, 216.56 180.67, 216.46 180.83, 216.37 181.0, 216.27 181.17, 216.17 181.33, 216.07 181.5, 215.97 181.67, 215.87 181.83, 215.77 182.0, 215.67 182.17, 215.56 182.33, 215.46 182.5, 215.35 182.67, 215.24 182.83, 215.14 183.0, 215.03 183.17, 214.92 183.33, 214.8 183.5, 214.69 183.67, 214.58 183.83, 214.46 184.0, 214.35 184.17, 214.23 184.33, 214.11 184.5, 213.99 184.67, 213.88 184.83, 213.75 185.0, 213.63 185.17, 213.51 185.33, 213.39 185.5, 213.26 185.67, 213.14 185.83, 213.01 186.0, 212.88 186.17, 212.76 186.33, 212.63 186.5, 212.5 186.67, 212.37 186.83, 212.24 187.0, 212.1 187.17, 211.97 187.33, 211.84 187.5, 211.7 187.67, 211.57 187.83, 211.43 188.0, 211.29 188.17, 211.15 188.33, 211.02 188.5, 210.88 188.67, 210.74 188.83, 210.6 189.0, 210.45 189.17, 210.31 189.33, 210.17 189.5, 210.02 189.67, 209.88 189.83, 209.73 190.0, 209.59 190.17, 209.44 190.33, 209.29 190.5, 209.15 190.67, 209.0 190.83, 208.85 191.0, 208.7 191.17, 208.55 191.33, 208.4 191.5, 208.25 191.67, 208.09 191.83, 207.94 192.0, 207.79 192.17, 207.63 192.33, 207.48 192.5, 207.33 192.67, 207.17 192.83, 207.01 193.0, 206.86 193.17, 206.7 193.33, 206.54 193.5, 206.39 193.67, 206.23 193.83, 206.07 194.0, 205.91 194.17, 205.75 194.33, 205.59 194.5, 205.43 194.67, 205.27 194.83, 205.11 195.0, 204.95 195.17, 204.79 195.33, 204.62 195.5, 204.46 195.67, 204.3 195.83, 204.14 196.0, 203.97 196.17, 203.81 196.33, 203.65 196.5, 203.48 196.67, 203.32 196.83, 203.15 197.0, 202.99 197.17, 202.82 197.33, 202.66 197.5, 202.49 197.67, 202.33 197.83, 202.16 198.0, 202.0 198.17, 201.83 198.33, 201.66 198.5, 201.5 198.67, 201.33 198.83, 201.17 199.0, 201.0 199.17, 200.83 199.33, 200.67 199.5, 200.5 199.67, 200.33 199.83, 200.17 200.0, 200.0 200.17, 199.83 200.33, 199.67 200.5, 199.5 200.67, 199.33 200.83, 199.17 201.0, 199.0 201.17, 198.83 201.33, 198.67 201.5, 198.5 201.67, 198.34 201.83, 198.17 202.0, 198.0 202.17, 197.84 202.33, 197.67 202.5, 197.51 202.67, 197.34 202.83, 197.18 203.0, 197.01 203.17, 196.85 203.33, 196.68 203.5, 196.52 203.67, 196.35 203.83, 196.19 204.0, 196.03 204.17, 195.86 204.33, 195.7 204.5, 195.54 204.67, 195.38 204.83, 195.21 205.0, 195.05 205.17, 194.89 205.33, 194.73 205.5, 194.57 205.67, 194.41 205.83, 194.25 206.0, 194.09 206.17, 193.93 206.33, 193.77 206.5, 193.61 206.67, 193.46 206.83, 193.3 207.0, 193.14 207.17, 192.99 207.33, 192.83 207.5, 192.67 207.67, 192.52 207.83, 192.37 208.0, 192.21 208.17, 192.06 208.33, 191.91 208.5, 191.75 208.67, 191.6 208.83, 191.45 209.0, 191.3 209.17, 191.15 209.33, 191.0 209.5, 190.85 209.67, 190.71 209.83, 190.56 210.0, 190.41 210.17, 190.27 210.33, 190.12 210.5, 189.98 210.67, 189.83 210.83, 189.69 211.0, 189.55 211.17, 189.4 211.33, 189.26 211.5, 189.12 211.67, 188.98 211.83, 188.85 212.0, 188.71 212.17, 188.57 212.33, 188.43 212.5, 188.3 212.67, 188.16 212.83, 188.03 213.0, 187.9 213.17, 187.76 213.33, 187.63 213.5, 187.5 213.67, 187.37 213.83, 187.24 214.0, 187.12 214.17, 186.99 214.33, 186.86 214.5, 186.74 214.67, 186.61 214.83, 186.49 215.0, 186.37 215.17, 186.25 215.33, 186.12 215.5, 186.01 215.67, 185.89 215.83, 185.77 216.0, 185.65 216.17, 185.54 216.33, 185.42 216.5, 185.31 216.67, 185.2 216.83, 185.08 217.0, 184.97 217.17, 184.86 217.33, 184.76 217.5, 184.65 217.67, 184.54 217.83, 184.44 218.0, 184.33 218.17, 184.23 218.33, 184.13 218.5, 184.03 218.67, 183.93 218.83, 183.83 219.0, 183.73 219.17, 183.63 219.33, 183.54 219.5, 183.44 219.67, 183.35 219.83, 183.26 220.0, 183.17 220.17, 183.08 220.33, 182.99 220.5, 182.9 220.67, 182.82 220.83, 182.73 221.0, 182.65 221.17, 182.56 221.33, 182.48 221.5, 182.4 221.67, 182.32 221.83, 182.25 222.0, 182.17 222.17, 182.09 222.33, 182.02 222.5, 181.95 222.67, 181.88 222.83, 181.81 223.0, 181.74 223.17, 181.67 223.33, 181.6 223.5, 181.54 223.67, 181.47 223.83, 181.41 224.0, 181.35 224.17, 181.29 224.33, 181.23 224.5, 181.17 224.67, 181.11 224.83, 181.06 225.0, 181.01 225.17, 180.95 225.33, 180.9 225.5, 180.85 225.67, 180.8 225.83, 180.75 226.0, 180.71 226.17, 180.66 226.33, 180.62 226.5, 180.58 226.67, 180.54 226.83, 180.5 227.0, 180.46 227.17, 180.42 227.33, 180.39 227.5, 180.35 227.67, 180.32 227.83, 180.29 228.0, 180.26 228.17, 180.23 228.33, 180.2 228.5, 180.17 228.67, 180.15 228.83, 180.13 229.0, 180.1 229.17, 180.08 229.33, 180.06 229.5, 180.04 229.67, 180.03 229.83, 180.01 230.0, 180.0 230.17, 179.98 230.33, 179.97 230.5, 179.96 230.67, 179.95 230.83, 179.94 231.0, 179.94 231.17, 179.93 231.33, 179.93 231.5, 179.92 231.67, 179.92 231.83, 179.92 232.0, 179.92 232.17, 179.93 232.33, 179.93 232.5, 179.94 232.67, 179.94 232.83, 179.95 233.0, 179.96 233.17, 179.97 233.33, 179.98 233.5, 179.99 233.67, 180.01 233.83, 180.02 234.0, 180.04 234.17, 180.06 234.33, 180.08 234.5, 180.1 234.67, 180.12 234.83, 180.14 235.0, 180.16 235.17, 180.19 235.33, 180.22 235.5, 180.24 235.67, 180.27 235.83, 180.3 236.0, 180.33 236.17, 180.37 236.33, 180.4 236.5, 180.43 236.67, 180.47 236.83, 180.51 237.0, 180.55 237.17, 180.58 237.33, 180.63 237.5, 180.67 237.67, 180.71 237.83, 180.75 238.0, 180.8 238.17, 180.84 238.33, 180.89 238.5, 180.94 238.67, 180.99 238.83, 181.04 239.0, 181.09 239.17, 181.14 239.33, 181.2 239.5, 181.25 239.67, 181.31 239.83, 181.36 240.0, 181.42 240.17, 181.48 240.33, 181.54 240.5, 181.6 240.67, 181.66 240.83, 181.73 241.0, 181.79 241.17, 181.85 241.33, 181.92 241.5, 181.98 241.67, 182.05 241.83, 182.12 242.0, 182.19 242.17, 182.26 242.33, 182.33 242.5, 182.4 242.67, 182.47 242.83, 182.54 243.0, 182.62 243.17, 182.69 243.33, 182.77 243.5, 182.84 243.67, 182.92 243.83, 183.0 244.0, 183.08 244.17, 183.16 244.33, 183.24 244.5, 183.32 244.67, 183.4 244.83, 183.48 245.0, 183.56 245.17, 183.64 245.33, 183.73 245.5, 183.81 245.67, 183.9 245.83, 183.98 246.0, 184.07 246.17, 184.15 246.33, 184.24 246.5, 184.33 246.67, 184.41 246.83, 184.5 247.0, 184.59 247.17, 184.68 247.33, 184.77 247.5, 184.86 247.67, 184.95 247.83, 185.04 248.0, 185.13 248.17, 185.22 248.33, 185.31 248.5, 185.4 248.67, 185.49 248.83, 185.58 249.0, 185.68 249.17, 185.77 249.33, 185.86 249.5, 185.95 249.67, 186.05 249.83, 186.14 250.0, 186.23 250.17, 186.32 250.33, 186.42 250.5, 186.51 250.67, 186.6 250.83, 186.7 251.0, 186.79 251.17, 186.88 251.33, 186.97 251.5, 187.07 251.67, 187.16 251.83, 187.25 252.0, 187.34 252.17, 187.43 252.33, 187.53 252.5, 187.62 252.67, 187.71 252.83, 187.8 253.0, 187.89 253.17, 187.98 253.33, 188.07 253.5, 188.16 253.67, 188.25 253.83, 188.33 254.0, 188.42 254.17, 188.51 254.33, 188.6 254.5, 188.68 254.67, 188.77 254.83, 188.85 255.0, 188.94 255.17, 189.02 255.33, 189.1 255.5, 189.18 255.67, 189.27 255.83, 189.35 256.0, 189.43 256.17, 189.51 256.33, 189.58 256.5, 189.66 256.67, 189.74 256.83, 189.81 257.0, 189.89 257.17, 189.96 257.33, 190.03 257.5, 190.1 257.67, 190.17 257.83, 190.24 258.0, 190.31 258.17, 190.38 258.33, 190.44 258.5, 190.51 258.67, 190.57 258.83, 190.63 259.0, 190.69 259.17, 190.75 259.33, 190.8 259.5, 190.86 259.67, 190.91 259.83, 190.97 260.0, 191.02 260.17, 191.07 260.33, 191.12 260.5, 191.16 260.67, 191.21 260.83, 191.25 261.0, 191.29 261.17, 191.33 261.33, 191.37 261.5, 191.4 261.67, 191.44 261.83, 191.47 262.0, 191.5 262.17, 191.53 262.33, 191.55 262.5, 191.58 262.67, 191.6 262.83, 191.62 263.0, 191.63 263.17, 191.65 263.33, 191.66 263.5, 191.67 263.67, 191.68 263.83, 191.69 264.0, 191.69 264.17, 191.69 264.33, 191.69 264.5, 191.68 264.67, 191.68 264.83, 191.67 265.0, 191.65 265.17, 191.64 265.33, 191.62 265.5, 191.6 265.67, 191.58 265.83, 191.55 266.0, 191.52 266.17, 191.49 266.33, 191.46 266.5, 191.42 266.67, 191.38 266.83, 191.33 267.0, 191.29 267.17, 191.24 267.33, 191.18 267.5, 191.13 267.67, 191.07 267.83, 191.0 268.0, 190.94 268.17, 190.86 268.33, 190.79 268.5, 190.71 268.67, 190.63 268.83, 190.55 269.0, 190.46 269.17, 190.37 269.33, 190.27 269.5, 190.17 269.67, 190.07 269.83, 189.96 270.0, 189.85 270.17, 189.73 270.33, 189.61 270.5, 189.49 270.67, 189.36 270.83, 189.23 271.0, 189.09 271.17, 188.95 271.33, 188.81 271.5, 188.66 271.67, 188.51 271.83, 188.35 272.0, 188.18 272.17, 188.02 272.33, 187.85 272.5, 187.67 272.67, 187.49 272.83, 187.3 273.0, 187.11 273.17, 186.92 273.33, 186.72 273.5, 186.51 273.67, 186.3 273.83, 186.08 274.0, 185.86 274.17, 185.64 274.33, 185.41 274.5, 185.17 274.67, 184.93 274.83, 184.68 275.0, 184.43 275.17, 184.17 275.33, 183.91 275.5, 183.64 275.67, 183.36 275.83, 183.08 276.0, 182.79 276.17, 182.5 276.33, 182.2 276.5, 181.9 276.67, 181.59 276.83, 181.27 277.0, 180.95 277.17, 180.62 277.33, 180.29 277.5, 179.95 277.67, 179.6 277.83, 179.25 278.0, 178.89 278.17, 178.52 278.33, 178.15 278.5, 177.77 278.67, 177.38 278.83, 176.99 279.0, 176.59 279.17, 176.18 279.33, 175.77 279.5, 175.35 279.67, 174.92 279.83, 174.49 280.0, 174.04 280.17, 173.6 280.33, 173.14 280.5, 172.68 280.67, 172.21 280.83, 171.73 281.0, 171.24 281.17, 170.75 281.33, 170.25 281.5, 169.74 281.67, 169.22 281.83, 168.7 282.0, 168.17 282.17, 167.63 282.33, 167.08 282.5, 166.52 282.67, 165.96 282.83, 165.39 283.0, 164.81 283.17, 164.22 283.33, 163.62 283.5, 163.02 283.67, 162.4 283.83, 161.78 284.0, 161.15 284.17, 160.51 284.33, 159.86 284.5, 159.21 284.67, 158.54 284.83, 157.87 285.0, 157.18 285.17, 156.49 285.33, 155.79 285.5, 155.08 285.67, 154.35 285.83, 153.62 286.0, 152.89 286.17, 152.14 286.33, 151.38 286.5, 150.61 286.67, 149.83 286.83, 149.05 287.0, 148.25 287.17, 147.44 287.33, 146.63 287.5, 145.8 287.67, 144.96 287.83, 144.12 288.0, 143.26 288.17, 142.39 288.33, 141.51 288.5, 140.63 288.67, 139.73 288.83, 138.82 289.0, 137.9 289.17, 136.97 289.33, 136.03 289.5, 135.07 289.67, 134.11 289.83, 133.14 290.0, 132.15 290.17, 131.16 290.33, 130.15 290.5, 129.13 290.67, 128.1 290.83, 127.06 291.0, 126.01 291.17, 124.94 291.33, 123.87 291.5, 122.78 291.67, 121.68 291.83, 120.57 292.0, 119.45 292.17, 118.31 292.33, 117.17 292.5, 116.01 292.67, 114.83 292.83, 113.65 293.0, 112.46 293.17, 111.25 293.33, 110.03 293.5, 108.79 293.67, 107.55 293.83, 106.29 294.0, 105.02 294.17, 103.73 294.33, 102.44 294.5, 101.13 294.67, 99.8 294.83, 98.47 295.0, 97.12 295.17, 95.75 295.33, 94.38 295.5, 92.99 295.67, 91.58 295.83, 90.17 296.0, 88.74 296.17, 87.29 296.33, 85.83 296.5, 84.36 296.67, 82.87 296.83, 81.37 297.0, 79.86 297.17, 78.33 297.33, 76.79 297.5, 75.23 297.67, 73.66 297.83, 72.07 298.0, 70.47 298.17, 68.85 298.33, 67.22 298.5, 65.58 298.67, 63.92 298.83, 62.24 299.0, 60.55 299.17, 58.85 299.33, 57.12 299.5, 55.39 299.67, 53.64 299.83, 51.87 300.0, 50.09 300.17, 48.29 300.33, 46.47 300.5, 44.64 300.67, 42.8 300.83, 40.94 301.0, 39.06 301.17, 37.16 301.33, 35.25 301.5, 33.33 301.67, 31.38 301.83, 29.42 302.0, 27.45 302.17, 25.46 302.33, 23.45 302.5, 21.42 302.67, 19.38 302.83, 17.32 303.0, 15.24 303.17, 13.14 303.33, 11.03 303.5, 8.9 303.67, 6.76 303.83, 4.59 304.0, 2.41 304.17, 0.22 304.33, -2.0 304.5, -4.24 304.67, -6.49 304.83, -8.76 305.0, -11.05 305.17, -13.35 305.33, -15.68 305.5, -18.02 305.67, -20.38 305.83, -22.76 306.0, -25.16 306.17, -27.58 306.33, -30.01 306.5, -32.47 306.67, -34.94 306.83, -37.43 307.0, -39.94 307.17, -42.47 307.33, -45.02 307.5, -47.59 307.67, -50.18 307.83, -52.79 308.0, -55.41 308.17, -58.06 308.33, -60.73 308.5, -63.41 308.67, -66.12 308.83, -68.85 309.0, -71.59 309.17, -74.36 309.33, -77.15 309.5, -79.95 309.67, -82.78 309.83, -85.63 310.0, -88.5 310.17, -91.39 310.33, -94.3 310.5, -97.23 310.67, -100.18 310.83, -103.16 311.0, -106.15 311.17, -109.16 311.33, -112.2 311.5, -115.26 311.67, -118.34 311.83, -121.44 312.0, -124.56 312.17, -127.71 312.33, -130.87 312.5, -134.06 312.67, -137.27 312.83, -140.5 313.0, -143.76 313.17, -147.03 313.33, -150.33 313.5, -153.65 313.67, -157.0 313.83, -160.36 314.0, -163.75 314.17, -167.17 314.33, -170.6 314.5, -174.06 314.67, -177.54 314.83, -181.04 315.0, -184.57 315.17, -188.12 315.33, -191.69 315.5, -195.29 315.67, -198.91 315.83, -202.55 316.0, -206.22 316.17, -209.91 316.33, -213.63 316.5, -217.37 316.67, -221.13 316.83, -224.92 317.0, -228.73 317.17, -232.57 317.33, -236.43 317.5, -240.32 317.67, -244.23 317.83, -248.16 318.0, -252.12 318.17, -256.11 318.33, -260.11 318.5, -264.15 318.67, -268.21 318.83, -272.29 319.0, -276.4 319.17, -280.54 319.33, -284.7 319.5, -288.89 319.67, -293.1 319.83, -297.34 320.0, -301.6 320.17, -305.89 320.33, -310.21 320.5, -314.55 320.67, -318.91 320.83, -323.31 321.0, -327.73 321.17, -332.18 321.33, -336.65 321.5, -341.15 321.67, -345.68 321.83, -350.23 322.0, -354.81 322.17, -359.42 322.33, -364.05 322.5, -368.71 322.67, -373.4 322.83, -378.12 323.0, -382.86 323.17, -387.63 323.33, -392.43 323.5, -397.26 323.67, -402.11 323.83, -407.0 324.0, -411.9 324.17, -416.84 324.33, -421.81 324.5, -426.8 324.67, -431.82 324.83, -436.88 325.0, -441.95 325.17, -447.06 325.33, -452.2 325.5, -457.36 325.67, -462.56 325.83, -467.78 326.0, -473.03 326.17, -478.31 326.33, -483.62 326.5, -488.96 326.67, -494.33 326.83, -499.72 327.0, -505.15 327.17, -510.61 327.33, -516.09 327.5, -521.61 327.67, -527.16 327.83, -532.73 328.0, -538.34 328.17, -543.97 328.33, -549.64 328.5, -555.33 328.67, -561.06 328.83, -566.82 329.0, -572.6 329.17, -578.42 329.33, -584.27 329.5, -590.15 329.67, -596.06 329.83, -602.0 330.0, -607.97 330.17, -613.97 330.33, -620.0 330.5, -626.07 330.67, -632.17 330.83, -638.29 331.0, -644.45 331.17, -650.64 331.33, -656.86 331.5, -663.12 331.67, -669.4 331.83, -675.72 332.0, -682.07 332.17, -688.45 332.33, -694.87 332.5, -701.31 332.67, -707.79 332.83, -714.3 333.0, -720.84 333.17, -727.42 333.33, -734.02 333.5, -740.66 333.67, -747.34 333.83, -754.04 334.0, -760.78 334.17, -767.55 334.33, -774.36 334.5, -781.2 334.67, -788.07 334.83, -794.97 335.0, -801.91 335.17, -808.88 335.33, -815.89 335.5, -822.92 335.67, -830.0 335.83, -837.1 336.0, -844.24 336.17, -851.42 336.33, -858.62 336.5, -865.86 336.67, -873.14 336.83, -880.45 337.0, -887.79 337.17, -895.17 337.33, -902.58 337.5, -910.03 337.67, -917.51 337.83, -925.03 338.0, -932.58 338.17, -940.17 338.33, -947.79 338.5, -955.44 338.67, -963.13 338.83, -970.86 339.0, -978.62 339.17, -986.42 339.33, -994.25 339.5, -1002.12 339.67, -1010.02 339.83, -1017.96 340.0, -1025.93 340.17, -1033.94 340.33, -1041.98 340.5, -1050.06 340.67, -1058.18 340.83, -1066.33 341.0, -1074.52 341.17, -1082.74 341.33, -1091.0 341.5, -1099.3 341.67, -1107.63 341.83, -1116.0 342.0, -1124.41 342.17, -1132.85 342.33, -1141.33 342.5, -1149.84 342.67, -1158.39 342.83, -1166.98 343.0, -1175.61 343.17, -1184.27 343.33, -1192.97 343.5, -1201.7 343.67, -1210.48 343.83, -1219.29 344.0, -1228.13 344.17, -1237.02 344.33, -1245.94 344.5, -1254.9 344.67, -1263.89 344.83, -1272.93 345.0, -1282.0 345.17, -1291.11 345.33, -1300.25 345.5, -1309.44 345.67, -1318.66 345.83, -1327.92 346.0, -1337.22 346.17, -1346.55 346.33, -1355.92 346.5, -1365.34 346.67, -1374.79 346.83, -1384.27 347.0, -1393.8 347.17, -1403.36 347.33, -1412.97 347.5, -1422.61 347.67, -1432.28 347.83, -1442.0 348.0, -1451.76 348.17, -1461.55 348.33, -1471.39 348.5, -1481.26 348.67, -1491.17 348.83, -1501.12 349.0, -1511.11 349.17, -1521.14 349.33, -1531.2 349.5, -1541.31 349.67, -1551.45 349.83, -1561.63 350.0, -1571.86 350.17, -1582.12 350.33, -1592.42 350.5, -1602.76 350.67, -1613.14 350.83, -1623.56 351.0, -1634.02 351.17, -1644.51 351.33, -1655.05 351.5, -1665.63 351.67, -1676.24 351.83, -1686.9 352.0, -1697.59 352.17, -1708.33 352.33, -1719.11 352.5, -1729.92 352.67, -1740.77 352.83, -1751.67 353.0, -1762.6 353.17, -1773.58 353.33, -1784.59 353.5, -1795.65 353.67, -1806.74 353.83, -1817.87 354.0, -1829.05 354.17, -1840.26 354.33, -1851.52 354.5, -1862.81 354.67, -1874.15 354.83, -1885.53 355.0, -1896.94 355.17, -1908.4 355.33, -1919.89 355.5, -1931.43 355.67, -1943.01 355.83, -1954.63 356.0, -1966.29 356.17, -1977.99 356.33, -1989.73 356.5, -2001.51 356.67, -2013.33 356.83, -2025.19 357.0, -2037.09 357.17, -2049.03 357.33, -2061.02 357.5, -2073.04 357.67, -2085.11 357.83, -2097.21 358.0, -2109.36 358.17, -2121.55 358.33, -2133.78 358.5, -2146.04 358.67, -2158.35 358.83, -2170.71 359.0, -2183.1 359.17, -2195.53 359.33, -2208.01 359.5, -2220.52 359.67, -2233.08 359.83, -2245.67 360.0, -2258.31 360.17, -2270.99 360.33, -2283.71 360.5, -2296.47 360.67, -2309.27 360.83, -2322.12 361.0, -2335.0 361.17, -2347.93 361.33, -2360.89 361.5, -2373.9 361.67, -2386.95 361.83, -2400.04 362.0, -2413.17 362.17, -2426.34 362.33, -2439.56 362.5, -2452.81 362.67, -2466.11 362.83, -2479.44 363.0, -2492.82 363.17, -2506.24 363.33, -2519.7 363.5, -2533.2 363.67, -2546.75 363.83, -2560.33 364.0, -2573.95 364.17, -2587.62 364.33, -2601.33 364.5, -2615.08 364.67, -2628.87 364.83, -2642.7 365.0, -2656.57 365.17, -2670.48 365.33, -2684.44 365.5, -2698.43 365.67, -2712.47 365.83, -2726.54 366.0, -2740.66 366.17, -2754.82 366.33, -2769.02 366.5, -2783.26 366.67, -2797.55 366.83, -2811.87 367.0, -2826.23 367.17, -2840.64 367.33, -2855.09 367.5, -2869.57 367.67, -2884.1 367.83, -2898.67 368.0, -2913.28 368.17, -2927.93 368.33, -2942.62 368.5, -2957.35 368.67, -2972.13 368.83, -2986.94 369.0, -3001.8 369.17, -3016.69 369.33, -3031.63 369.5, -3046.6 369.67, -3061.62 369.83, -3076.68 370.0, -3091.78 370.17, -3106.91 370.33, -3122.09 370.5, -3137.31 370.67, -3152.57 370.83, -3167.87 371.0, -3183.21 371.17, -3198.59 371.33, -3214.01 371.5, -3229.47 371.67, -3244.98 371.83, -3260.52 372.0, -3276.1 372.17, -3291.72 372.33, -3307.38 372.5, -3323.08 372.67, -3338.82 372.83, -3354.6 373.0, -3370.42 373.17, -3386.28 373.33, -3402.18 373.5, -3418.12 373.67, -3434.1 373.83, -3450.12 374.0, -3466.18 374.17, -3482.28 374.33, -3498.41 374.5, -3514.59 374.67, -3530.81 374.83, -3547.06 375.0, -3563.35 375.17, -3579.69 375.33, -3596.06 375.5, -3612.47 375.67, -3628.92 375.83, -3645.41 376.0, -3661.93 376.17, -3678.5 376.33, -3695.1 376.5, -3711.75 376.67, -3728.43 376.83, -3745.15 377.0, -3761.9 377.17, -3778.7 377.33, -3795.53 377.5, -3812.41 377.67, -3829.32 377.83, -3846.26 378.0, -3863.25 378.17, -3880.27 378.33, -3897.33 378.5, -3914.43 378.67, -3931.57 378.83, -3948.74 379.0, -3965.95 379.17, -3983.2 379.33, -4000.48 379.5, -4017.81 379.67, -4035.17 379.83, -4052.56 380.0, -4069.99 380.17, -4087.46 380.33, -4104.97 380.5, -4122.51 380.67, -4140.09 380.83, -4157.7 381.0, -4175.36 381.17, -4193.04 381.33, -4210.77 381.5, -4228.52 381.67, -4246.32 381.83, -4264.15 382.0, -4282.01 382.17, -4299.92 382.33, -4317.85 382.5, -4335.82 382.67, -4353.83 382.83, -4371.87 383.0, -4389.95 383.17, -4408.06 383.33, -4426.2 383.5, -4444.38 383.67, -4462.6 383.83, -4480.85 384.0, -4499.13 384.17, -4517.45 384.33, -4535.8 384.5, -4554.18 384.67, -4572.6 384.83, -4591.05 385.0, -4609.54 385.17, -4628.05 385.33, -4646.61 385.5, -4665.19 385.67, -4683.81 385.83, -4702.46 386.0, -4721.14 386.17, -4739.85 386.33, -4758.6 386.5, -4777.38 386.67, -4796.19 386.83, -4815.03 387.0, -4833.9 387.17, -4852.81 387.33, -4871.75 387.5, -4890.71 387.67, -4909.71 387.83, -4928.74 388.0, -4947.8 388.17, -4966.89 388.33, -4986.02 388.5, -5005.17 388.67, -5024.35 388.83, -5043.56 389.0, -5062.8 389.17, -5082.07 389.33, -5101.38 389.5, -5120.7 389.67, -5140.06 389.83, -5159.45 390.0, -5178.87 390.17, -5198.31 390.33, -5217.79 390.5, -5237.29 390.67, -5256.82 390.83, -5276.37 391.0, -5295.96 391.17, -5315.57 391.33, -5335.21 391.5, -5354.88 391.67, -5374.57 391.83, -5394.29 392.0, -5414.04 392.17, -5433.81 392.33, -5453.61 392.5, -5473.44 392.67, -5493.29 392.83, -5513.17 393.0, -5533.07 393.17, -5552.99 393.33, -5572.95 393.5, -5592.92 393.67, -5612.92 393.83, -5632.95 394.0, -5653.0 394.17, -5673.07 394.33, -5693.17 394.5, -5713.29 394.67, -5733.43 394.83, -5753.6 395.0, -5773.79 395.17, -5794.0 395.33, -5814.23 395.5, -5834.49 395.67, -5854.77 395.83, -5875.07 396.0, -5895.39 396.17, -5915.73 396.33, -5936.1 396.5, -5956.48 396.67, -5976.88 396.83, -5997.31 397.0, -6017.75 397.17, -6038.22 397.33, -6058.7 397.5, -6079.21 397.67, -6099.73 397.83, -6120.27 398.0, -6140.83 398.17, -6161.41 398.33, -6182.0 398.5, -6202.61 398.67, -6223.25 398.83, -6243.89 399.0, -6264.56 399.17, -6285.24 399.33, -6305.94 399.5, -6326.65 399.67, -6347.38 399.83, -6368.13 400.0, -6388.89 " fill="none" stroke="white" stroke-width="1.5" stroke-linejoin="round" stroke-opacity="1"/>

 </svg>