<svg version="1.1" 
 baseProfile="full" 
 width="400" 
 height="400" 
 xmlns="http://www.w3.org/2000/svg">
<rect x="0.0" y="0.0" width="400" height="400" fill="black" stroke="black" stroke-width="0" opacity="1"/>
<line x1="0.0" y1="0.0" x2="0.0" y2="400.0" stroke="white" stroke-width="1" opacity="0.4" stroke-linecap="butt"/>
<line x1="40.0" y1="0.0" x2="40.0" y2="400.0" stroke="white" stroke-width="1" opacity="0.4" stroke-linecap="butt"/>
<line x1="80.0" y1="0.0" x2="80.0" y2="400.0" stroke="white" stroke-width="1" opacity="0.4" stroke-linecap="butt"/>
<line x1="120.0" y1="0.0" x2="120.0" y2="400.0" stroke="white" stroke-width="1" opacity="0.4" stroke-linecap="butt"/>
<line x1="160.0" y1="0.0" x2="160.0" y2="400.0" stroke="white" stroke-width="1" opacity="0.4" stroke-linecap="butt"/>
<line x1="200.0" y1="0.0" x2="200.0" y2="400.0" stroke="white" stroke-width="1" opacity="0.4" stroke-linecap="butt"/>
<line x1="240.0" y1="0.0" x2="240.0" y2="400.0" stroke="white" stroke-width="1" opacity="0.4" stroke-linecap="butt"/>
<line x1="280.0" y1="0.0" x2="280.0" y2="400.0" stroke="white" stroke-width="1" opacity="0.4" stroke-linecap="butt"/>
<line x1="320.0" y1="0.0" x2="320.0" y2="400.0" stroke="white" stroke-width="1" opacity="0.4" stroke-linecap="butt"/>
<line x1="360.0" y1="0.0" x2="360.0" y2="400.0" stroke="white" stroke-width="1" opacity="0.4" stroke-linecap="butt"/>
<line x1="0.0" y1="0.0" x2="400.0" y2="0.0" stroke="white" stroke-width="1" opacity="0.4" stroke-linecap="butt"/>
<line x1="0.0" y1="40.0" x2="400.0" y2="40.0" stroke="white" stroke-width="1" opacity="0.4" stroke-linecap="butt"/>
<line x1="0.0" y1="80.0" x2="400.0" y2="80.0" stroke="white" stroke-width="1" opacity="0.4" stroke-linecap="butt"/>
<line x1="0.0" y1="120.0" x2="400.0" y2="120.0" stroke="white" stroke-width="1" opacity="0.4" stroke-linecap="butt"/>
<line x1="0.0" y1="160.0" x2="400.0" y2="160.0" stroke="white" stroke-width="1" opacity="0.4" stroke-linecap="butt"/>
<line x1="0.0" y1="200.0" x2="400.0" y2="200.0" stroke="white" stroke-width="1" opacity="0.4" stroke-linecap="butt"/>
<line x1="0.0" y1="240.0" x2="400.0" y2="240.0" stroke="white" stroke-width="1" opacity="0.4" stroke-linecap="butt"/>
<line x1="0.0" y1="280.0" x2="400.0" y2="280.0" stroke="white" stroke-width="1" opacity="0.4" stroke-linecap="butt"/>
<line x1="0.0" y1="320.0" x2="400.0" y2="320.0" stroke="white" stroke-width="1" opacity="0.4" stroke-linecap="butt"/>
<line x1="0.0" y1="360.0" x2="400.0" y2="360.0" stroke="white" stroke-width="1" opacity="0.4" stroke-linecap="butt"/>
<line x1="0.0" y1="200.0" x2="400.0" y2="200.0" stroke="yellow" stroke-width="2.5" opacity="1" stroke-linecap="butt"/>
<line x1="200.0" y1="0.0" x2="200.0" y2="400.0" stroke="yellow" stroke-width="2.5" opacity="1" stroke-linecap="butt"/>
<polygon points="391.0 204.0, 401.0 200.0, 391.0 196.0, 393.0 200.0" fill="yellow"/><polygon points="204.0 9.0, 200.0 -1.0, 196.0 9.0, 200.0 7.0" fill="yellow"/><image x="-60.0" y="-60.0" width="200" height="200" href="/Users/girirajhira/PycharmProjects/Giraphics3/Taylor/expr.png"/><polyline points="0.0, 7780.95 0.17, 7754.42 0.33, 7727.93 0.5, 7701.48 0.67, 7675.08 0.83, 7648.73 1.0, 7622.42 1.17, 7596.15 1.33, 7569.93 1.5, 7543.75 1.67, 7517.62 1.83, 7491.54 2.0, 7465.5 2.17, 7439.5 2.33, 7413.55 2.5, 7387.65 2.67, 7361.8 2.83, 7335.99 3.0, 7310.22 3.17, 7284.51 3.33, 7258.84 3.5, 7233.21 3.67, 7207.64 3.83, 7182.11 4.0, 7156.63 4.17, 7131.19 4.33, 7105.8 4.5, 7080.46 4.67, 7055.17 4.83, 7029.93 5.0, 7004.73 5.17, 6979.58 5.33, 6954.48 5.5, 6929.43 5.67, 6904.43 5.83, 6879.47 6.0, 6854.57 6.17, 6829.71 6.33, 6804.9 6.5, 6780.14 6.67, 6755.43 6.83, 6730.77 7.0, 6706.16 7.17, 6681.6 7.33, 6657.08 7.5, 6632.62 7.67, 6608.2 7.83, 6583.84 8.0, 6559.52 8.17, 6535.26 8.33, 6511.04 8.5, 6486.88 8.67, 6462.76 8.83, 6438.7 9.0, 6414.69 9.17, 6390.72 9.33, 6366.81 9.5, 6342.95 9.67, 6319.13 9.83, 6295.37 10.0, 6271.66 10.17, 6248.0 10.33, 6224.4 10.5, 6200.84 10.67, 6177.33 10.83, 6153.88 11.0, 6130.47 11.17, 6107.12 11.33, 6083.82 11.5, 6060.57 11.67, 6037.37 11.83, 6014.23 12.0, 5991.13 12.17, 5968.09 12.33, 5945.1 12.5, 5922.16 12.67, 5899.28 12.83, 5876.44 13.0, 5853.66 13.17, 5830.93 13.33, 5808.25 13.5, 5785.63 13.67, 5763.05 13.83, 5740.53 14.0, 5718.06 14.17, 5695.65 14.33, 5673.28 14.5, 5650.97 14.67, 5628.71 14.83, 5606.51 15.0, 5584.36 15.17, 5562.26 15.33, 5540.21 15.5, 5518.21 15.67, 5496.27 15.83, 5474.39 16.0, 5452.55 16.17, 5430.77 16.33, 5409.04 16.5, 5387.36 16.67, 5365.74 16.83, 5344.17 17.0, 5322.65 17.17, 5301.19 17.33, 5279.78 17.5, 5258.42 17.67, 5237.12 17.83, 5215.87 18.0, 5194.67 18.17, 5173.53 18.33, 5152.44 18.5, 5131.41 18.67, 5110.42 18.83, 5089.49 19.0, 5068.62 19.17, 5047.8 19.33, 5027.03 19.5, 5006.32 19.67, 4985.65 19.83, 4965.05 20.0, 4944.49 20.17, 4924.0 20.33, 4903.55 20.5, 4883.16 20.67, 4862.82 20.83, 4842.53 21.0, 4822.3 21.17, 4802.13 21.33, 4782.0 21.5, 4761.94 21.67, 4741.92 21.83, 4721.96 22.0, 4702.05 22.17, 4682.2 22.33, 4662.4 22.5, 4642.65 22.67, 4622.96 22.83, 4603.32 23.0, 4583.74 23.17, 4564.21 23.33, 4544.73 23.5, 4525.31 23.67, 4505.94 23.83, 4486.63 24.0, 4467.37 24.17, 4448.16 24.33, 4429.01 24.5, 4409.91 24.67, 4390.86 24.83, 4371.87 25.0, 4352.93 25.17, 4334.05 25.33, 4315.22 25.5, 4296.45 25.67, 4277.72 25.83, 4259.06 26.0, 4240.44 26.17, 4221.88 26.33, 4203.37 26.5, 4184.92 26.67, 4166.52 26.83, 4148.18 27.0, 4129.89 27.17, 4111.65 27.33, 4093.46 27.5, 4075.33 27.67, 4057.26 27.83, 4039.23 28.0, 4021.26 28.17, 4003.35 28.33, 3985.49 28.5, 3967.68 28.67, 3949.92 28.83, 3932.22 29.0, 3914.57 29.17, 3896.98 29.33, 3879.44 29.5, 3861.95 29.67, 3844.52 29.83, 3827.14 30.0, 3809.81 30.17, 3792.53 30.33, 3775.31 30.5, 3758.15 30.67, 3741.03 30.83, 3723.97 31.0, 3706.96 31.17, 3690.01 31.33, 3673.11 31.5, 3656.26 31.67, 3639.46 31.83, 3622.72 32.0, 3606.03 32.17, 3589.39 32.33, 3572.81 32.5, 3556.28 32.67, 3539.8 32.83, 3523.37 33.0, 3507.0 33.17, 3490.68 33.33, 3474.41 33.5, 3458.2 33.67, 3442.04 33.83, 3425.93 34.0, 3409.87 34.17, 3393.87 34.33, 3377.91 34.5, 3362.01 34.67, 3346.17 34.83, 3330.37 35.0, 3314.63 35.17, 3298.94 35.33, 3283.3 35.5, 3267.71 35.67, 3252.18 35.83, 3236.69 36.0, 3221.26 36.17, 3205.88 36.33, 3190.56 36.5, 3175.28 36.67, 3160.06 36.83, 3144.88 37.0, 3129.76 37.17, 3114.7 37.33, 3099.68 37.5, 3084.71 37.67, 3069.8 37.83, 3054.94 38.0, 3040.12 38.17, 3025.36 38.33, 3010.65 38.5, 2996.0 38.67, 2981.39 38.83, 2966.83 39.0, 2952.33 39.17, 2937.87 39.33, 2923.47 39.5, 2909.12 39.67, 2894.81 39.83, 2880.56 40.0, 2866.36 40.17, 2852.21 40.33, 2838.11 40.5, 2824.06 40.67, 2810.06 40.83, 2796.11 41.0, 2782.22 41.17, 2768.37 41.33, 2754.57 41.5, 2740.82 41.67, 2727.12 41.83, 2713.47 42.0, 2699.87 42.17, 2686.33 42.33, 2672.83 42.5, 2659.38 42.67, 2645.98 42.83, 2632.62 43.0, 2619.32 43.17, 2606.07 43.33, 2592.87 43.5, 2579.71 43.67, 2566.61 43.83, 2553.55 44.0, 2540.55 44.17, 2527.59 44.33, 2514.68 44.5, 2501.82 44.67, 2489.01 44.83, 2476.25 45.0, 2463.53 45.17, 2450.87 45.33, 2438.25 45.5, 2425.68 45.67, 2413.16 45.83, 2400.69 46.0, 2388.26 46.17, 2375.88 46.33, 2363.56 46.5, 2351.27 46.67, 2339.04 46.83, 2326.86 47.0, 2314.72 47.17, 2302.63 47.33, 2290.58 47.5, 2278.59 47.67, 2266.64 47.83, 2254.74 48.0, 2242.88 48.17, 2231.08 48.33, 2219.32 48.5, 2207.6 48.67, 2195.94 48.83, 2184.32 49.0, 2172.75 49.17, 2161.22 49.33, 2149.74 49.5, 2138.3 49.67, 2126.92 49.83, 2115.58 50.0, 2104.28 50.17, 2093.03 50.33, 2081.83 50.5, 2070.67 50.67, 2059.56 50.83, 2048.49 51.0, 2037.47 51.17, 2026.5 51.33, 2015.57 51.5, 2004.69 51.67, 1993.85 51.83, 1983.06 52.0, 1972.31 52.17, 1961.6 52.33, 1950.95 52.5, 1940.33 52.67, 1929.76 52.83, 1919.24 53.0, 1908.76 53.17, 1898.32 53.33, 1887.93 53.5, 1877.59 53.67, 1867.29 53.83, 1857.03 54.0, 1846.81 54.17, 1836.64 54.33, 1826.52 54.5, 1816.43 54.67, 1806.39 54.83, 1796.4 55.0, 1786.45 55.17, 1776.54 55.33, 1766.67 55.5, 1756.85 55.67, 1747.07 55.83, 1737.34 56.0, 1727.64 56.17, 1717.99 56.33, 1708.38 56.5, 1698.82 56.67, 1689.3 56.83, 1679.82 57.0, 1670.38 57.17, 1660.98 57.33, 1651.63 57.5, 1642.32 57.67, 1633.05 57.83, 1623.82 58.0, 1614.64 58.17, 1605.49 58.33, 1596.39 58.5, 1587.33 58.67, 1578.31 58.83, 1569.33 59.0, 1560.39 59.17, 1551.5 59.33, 1542.64 59.5, 1533.83 59.67, 1525.05 59.83, 1516.32 60.0, 1507.63 60.17, 1498.98 60.33, 1490.37 60.5, 1481.8 60.67, 1473.26 60.83, 1464.77 61.0, 1456.32 61.17, 1447.91 61.33, 1439.54 61.5, 1431.21 61.67, 1422.92 61.83, 1414.67 62.0, 1406.45 62.17, 1398.28 62.33, 1390.15 62.5, 1382.05 62.67, 1373.99 62.83, 1365.98 63.0, 1358.0 63.17, 1350.06 63.33, 1342.16 63.5, 1334.3 63.67, 1326.47 63.83, 1318.69 64.0, 1310.94 64.17, 1303.23 64.33, 1295.56 64.5, 1287.92 64.67, 1280.33 64.83, 1272.77 65.0, 1265.25 65.17, 1257.77 65.33, 1250.32 65.5, 1242.91 65.67, 1235.54 65.83, 1228.21 66.0, 1220.91 66.17, 1213.65 66.33, 1206.42 66.5, 1199.24 66.67, 1192.09 66.83, 1184.97 67.0, 1177.9 67.17, 1170.85 67.33, 1163.85 67.5, 1156.88 67.67, 1149.95 67.83, 1143.05 68.0, 1136.19 68.17, 1129.36 68.33, 1122.57 68.5, 1115.82 68.67, 1109.1 68.83, 1102.41 69.0, 1095.77 69.17, 1089.15 69.33, 1082.57 69.5, 1076.03 69.67, 1069.52 69.83, 1063.04 70.0, 1056.6 70.17, 1050.2 70.33, 1043.82 70.5, 1037.49 70.67, 1031.18 70.83, 1024.91 71.0, 1018.68 71.17, 1012.47 71.33, 1006.31 71.5, 1000.17 71.67, 994.07 71.83, 988.0 72.0, 981.97 72.17, 975.97 72.33, 970.0 72.5, 964.06 72.67, 958.16 72.83, 952.29 73.0, 946.45 73.17, 940.65 73.33, 934.88 73.5, 929.14 73.67, 923.43 73.83, 917.75 74.0, 912.11 74.17, 906.5 74.33, 900.92 74.5, 895.37 74.67, 889.85 74.83, 884.37 75.0, 878.91 75.17, 873.49 75.33, 868.1 75.5, 862.74 75.67, 857.41 75.83, 852.11 76.0, 846.84 76.17, 841.6 76.33, 836.4 76.5, 831.22 76.67, 826.08 76.83, 820.96 77.0, 815.87 77.17, 810.82 77.33, 805.79 77.5, 800.8 77.67, 795.83 77.83, 790.9 78.0, 785.99 78.17, 781.11 78.33, 776.26 78.5, 771.44 78.67, 766.65 78.83, 761.89 79.0, 757.16 79.17, 752.46 79.33, 747.78 79.5, 743.14 79.67, 738.52 79.83, 733.93 80.0, 729.37 80.17, 724.84 80.33, 720.33 80.5, 715.86 80.67, 711.41 80.83, 706.99 81.0, 702.59 81.17, 698.23 81.33, 693.89 81.5, 689.58 81.67, 685.3 81.83, 681.04 82.0, 676.81 82.17, 672.61 82.33, 668.43 82.5, 664.28 82.67, 660.16 82.83, 656.06 83.0, 651.99 83.17, 647.95 83.33, 643.93 83.5, 639.94 83.67, 635.98 83.83, 632.04 84.0, 628.13 84.17, 624.24 84.33, 620.38 84.5, 616.54 84.67, 612.73 84.83, 608.95 85.0, 605.19 85.17, 601.45 85.33, 597.74 85.5, 594.05 85.67, 590.39 85.83, 586.76 86.0, 583.15 86.17, 579.56 86.33, 576.0 86.5, 572.46 86.67, 568.95 86.83, 565.46 87.0, 561.99 87.17, 558.55 87.33, 555.13 87.5, 551.74 87.67, 548.37 87.83, 545.02 88.0, 541.7 88.17, 538.4 88.33, 535.12 88.5, 531.86 88.67, 528.63 88.83, 525.43 89.0, 522.24 89.17, 519.08 89.33, 515.94 89.5, 512.82 89.67, 509.73 89.83, 506.65 90.0, 503.6 90.17, 500.57 90.33, 497.57 90.5, 494.58 90.67, 491.62 90.83, 488.68 91.0, 485.76 91.17, 482.86 91.33, 479.99 91.5, 477.13 91.67, 474.3 91.83, 471.49 92.0, 468.7 92.17, 465.93 92.33, 463.18 92.5, 460.45 92.67, 457.74 92.83, 455.05 93.0, 452.39 93.17, 449.74 93.33, 447.12 93.5, 444.51 93.67, 441.92 93.83, 439.36 94.0, 436.81 94.17, 434.29 94.33, 431.78 94.5, 429.29 94.67, 426.83 94.83, 424.38 95.0, 421.95 95.17, 419.54 95.33, 417.15 95.5, 414.78 95.67, 412.43 95.83, 410.1 96.0, 407.79 96.17, 405.49 96.33, 403.21 96.5, 400.96 96.67, 398.72 96.83, 396.5 97.0, 394.29 97.17, 392.11 97.33, 389.94 97.5, 387.79 97.67, 385.66 97.83, 383.55 98.0, 381.45 98.17, 379.38 98.33, 377.32 98.5, 375.28 98.67, 373.25 98.83, 371.24 99.0, 369.25 99.17, 367.28 99.33, 365.32 99.5, 363.38 99.67, 361.46 99.83, 359.55 100.0, 357.66 100.17, 355.79 100.33, 353.93 100.5, 352.09 100.67, 350.27 100.83, 348.46 101.0, 346.67 101.17, 344.9 101.33, 343.14 101.5, 341.39 101.67, 339.67 101.83, 337.95 102.0, 336.26 102.17, 334.58 102.33, 332.91 102.5, 331.26 102.67, 329.63 102.83, 328.01 103.0, 326.4 103.17, 324.81 103.33, 323.24 103.5, 321.68 103.67, 320.13 103.83, 318.6 104.0, 317.09 104.17, 315.59 104.33, 314.1 104.5, 312.63 104.67, 311.17 104.83, 309.73 105.0, 308.3 105.17, 306.88 105.33, 305.48 105.5, 304.09 105.67, 302.72 105.83, 301.36 106.0, 300.01 106.17, 298.68 106.33, 297.36 106.5, 296.05 106.67, 294.76 106.83, 293.48 107.0, 292.21 107.17, 290.95 107.33, 289.71 107.5, 288.48 107.67, 287.27 107.83, 286.07 108.0, 284.88 108.17, 283.7 108.33, 282.53 108.5, 281.38 108.67, 280.24 108.83, 279.11 109.0, 278.0 109.17, 276.89 109.33, 275.8 109.5, 274.72 109.67, 273.66 109.83, 272.6 110.0, 271.55 110.17, 270.52 110.33, 269.5 110.5, 268.49 110.67, 267.49 110.83, 266.51 111.0, 265.53 111.17, 264.57 111.33, 263.61 111.5, 262.67 111.67, 261.74 111.83, 260.82 112.0, 259.91 112.17, 259.01 112.33, 258.12 112.5, 257.24 112.67, 256.38 112.83, 255.52 113.0, 254.67 113.17, 253.84 113.33, 253.01 113.5, 252.2 113.67, 251.39 113.83, 250.6 114.0, 249.81 114.17, 249.04 114.33, 248.27 114.5, 247.51 114.67, 246.77 114.83, 246.03 115.0, 245.3 115.17, 244.59 115.33, 243.88 115.5, 243.18 115.67, 242.49 115.83, 241.81 116.0, 241.14 116.17, 240.47 116.33, 239.82 116.5, 239.18 116.67, 238.54 116.83, 237.91 117.0, 237.29 117.17, 236.69 117.33, 236.08 117.5, 235.49 117.67, 234.91 117.83, 234.33 118.0, 233.76 118.17, 233.21 118.33, 232.65 118.5, 232.11 118.67, 231.58 118.83, 231.05 119.0, 230.53 119.17, 230.02 119.33, 229.52 119.5, 229.02 119.67, 228.53 119.83, 228.05 120.0, 227.58 120.17, 227.12 120.33, 226.66 120.5, 226.21 120.67, 225.76 120.83, 225.33 121.0, 224.9 121.17, 224.48 121.33, 224.06 121.5, 223.66 121.67, 223.26 121.83, 222.86 122.0, 222.48 122.17, 222.09 122.33, 221.72 122.5, 221.35 122.67, 220.99 122.83, 220.64 123.0, 220.29 123.17, 219.95 123.33, 219.62 123.5, 219.29 123.67, 218.97 123.83, 218.65 124.0, 218.34 124.17, 218.04 124.33, 217.74 124.5, 217.45 124.67, 217.16 124.83, 216.88 125.0, 216.61 125.17, 216.34 125.33, 216.08 125.5, 215.82 125.67, 215.57 125.83, 215.32 126.0, 215.08 126.17, 214.84 126.33, 214.61 126.5, 214.39 126.67, 214.17 126.83, 213.95 127.0, 213.74 127.17, 213.54 127.33, 213.34 127.5, 213.15 127.67, 212.96 127.83, 212.77 128.0, 212.59 128.17, 212.42 128.33, 212.25 128.5, 212.08 128.67, 211.92 128.83, 211.76 129.0, 211.61 129.17, 211.46 129.33, 211.32 129.5, 211.18 129.67, 211.05 129.83, 210.92 130.0, 210.79 130.17, 210.67 130.33, 210.55 130.5, 210.44 130.67, 210.33 130.83, 210.22 131.0, 210.12 131.17, 210.02 131.33, 209.93 131.5, 209.84 131.67, 209.75 131.83, 209.67 132.0, 209.59 132.17, 209.51 132.33, 209.44 132.5, 209.37 132.67, 209.3 132.83, 209.24 133.0, 209.18 133.17, 209.13 133.33, 209.08 133.5, 209.03 133.67, 208.98 133.83, 208.94 134.0, 208.9 134.17, 208.86 134.33, 208.83 134.5, 208.8 134.67, 208.77 134.83, 208.75 135.0, 208.73 135.17, 208.71 135.33, 208.69 135.5, 208.68 135.67, 208.67 135.83, 208.66 136.0, 208.65 136.17, 208.65 136.33, 208.65 136.5, 208.65 136.67, 208.66 136.83, 208.66 137.0, 208.67 137.17, 208.68 137.33, 208.7 137.5, 208.71 137.67, 208.73 137.83, 208.75 138.0, 208.77 138.17, 208.8 138.33, 208.83 138.5, 208.85 138.67, 208.89 138.83, 208.92 139.0, 208.95 139.17, 208.99 139.33, 209.03 139.5, 209.07 139.67, 209.11 139.83, 209.15 140.0, 209.2 140.17, 209.25 140.33, 209.29 140.5, 209.34 140.67, 209.4 140.83, 209.45 141.0, 209.5 141.17, 209.56 141.33, 209.62 141.5, 209.68 141.67, 209.74 141.83, 209.8 142.0, 209.86 142.17, 209.93 142.33, 209.99 142.5, 210.06 142.67, 210.13 142.83, 210.2 143.0, 210.27 143.17, 210.34 143.33, 210.41 143.5, 210.48 143.67, 210.56 143.83, 210.63 144.0, 210.71 144.17, 210.78 144.33, 210.86 144.5, 210.94 144.67, 211.02 144.83, 211.1 145.0, 211.18 145.17, 211.26 145.33, 211.35 145.5, 211.43 145.67, 211.51 145.83, 211.6 146.0, 211.68 146.17, 211.77 146.33, 211.85 146.5, 211.94 146.67, 212.03 146.83, 212.11 147.0, 212.2 147.17, 212.29 147.33, 212.38 147.5, 212.47 147.67, 212.56 147.83, 212.65 148.0, 212.74 148.17, 212.83 148.33, 212.92 148.5, 213.01 148.67, 213.1 148.83, 213.19 149.0, 213.28 149.17, 213.37 149.33, 213.46 149.5, 213.56 149.67, 213.65 149.83, 213.74 150.0, 213.83 150.17, 213.92 150.33, 214.01 150.5, 214.1 150.67, 214.19 150.83, 214.29 151.0, 214.38 151.17, 214.47 151.33, 214.56 151.5, 214.65 151.67, 214.74 151.83, 214.83 152.0, 214.92 152.17, 215.01 152.33, 215.1 152.5, 215.19 152.67, 215.27 152.83, 215.36 153.0, 215.45 153.17, 215.54 153.33, 215.62 153.5, 215.71 153.67, 215.8 153.83, 215.88 154.0, 215.97 154.17, 216.05 154.33, 216.14 154.5, 216.22 154.67, 216.3 154.83, 216.39 155.0, 216.47 155.17, 216.55 155.33, 216.63 155.5, 216.71 155.67, 216.79 155.83, 216.87 156.0, 216.95 156.17, 217.03 156.33, 217.1 156.5, 217.18 156.67, 217.25 156.83, 217.33 157.0, 217.4 157.17, 217.48 157.33, 217.55 157.5, 217.62 157.67, 217.69 157.83, 217.76 158.0, 217.83 158.17, 217.9 158.33, 217.97 158.5, 218.03 158.67, 218.1 158.83, 218.16 159.0, 218.23 159.17, 218.29 159.33, 218.35 159.5, 218.41 159.67, 218.47 159.83, 218.53 160.0, 218.59 160.17, 218.65 160.33, 218.7 160.5, 218.76 160.67, 218.81 160.83, 218.87 161.0, 218.92 161.17, 218.97 161.33, 219.02 161.5, 219.07 161.67, 219.12 161.83, 219.16 162.0, 219.21 162.17, 219.26 162.33, 219.3 162.5, 219.34 162.67, 219.38 162.83, 219.42 163.0, 219.46 163.17, 219.5 163.33, 219.54 163.5, 219.57 163.67, 219.61 163.83, 219.64 164.0, 219.67 164.17, 219.7 164.33, 219.73 164.5, 219.76 164.67, 219.79 164.83, 219.82 165.0, 219.84 165.17, 219.86 165.33, 219.89 165.5, 219.91 165.67, 219.93 165.83, 219.95 166.0, 219.97 166.17, 219.98 166.33, 220.0 166.5, 220.01 166.67, 220.02 166.83, 220.03 167.0, 220.04 167.17, 220.05 167.33, 220.06 167.5, 220.07 167.67, 220.07 167.83, 220.08 168.0, 220.08 168.17, 220.08 168.33, 220.08 168.5, 220.08 168.67, 220.07 168.83, 220.07 169.0, 220.07 169.17, 220.06 169.33, 220.05 169.5, 220.04 169.67, 220.03 169.83, 220.02 170.0, 220.01 170.17, 219.99 170.33, 219.97 170.5, 219.96 170.67, 219.94 170.83, 219.92 171.0, 219.9 171.17, 219.88 171.33, 219.85 171.5, 219.83 171.67, 219.8 171.83, 219.77 172.0, 219.74 172.17, 219.71 172.33, 219.68 172.5, 219.65 172.67, 219.61 172.83, 219.58 173.0, 219.54 173.17, 219.5 173.33, 219.46 173.5, 219.42 173.67, 219.38 173.83, 219.34 174.0, 219.29 174.17, 219.25 174.33, 219.2 174.5, 219.15 174.67, 219.1 174.83, 219.05 175.0, 219.0 175.17, 218.94 175.33, 218.89 175.5, 218.83 175.67, 218.77 175.83, 218.71 176.0, 218.65 176.17, 218.59 176.33, 218.53 176.5, 218.46 176.67, 218.4 176.83, 218.33 177.0, 218.26 177.17, 218.19 177.33, 218.12 177.5, 218.05 177.67, 217.98 177.83, 217.91 178.0, 217.83 178.17, 217.75 178.33, 217.68 178.5, 217.6 178.67, 217.52 178.83, 217.44 179.0, 217.35 179.17, 217.27 179.33, 217.18 179.5, 217.1 179.67, 217.01 179.83, 216.92 180.0, 216.83 180.17, 216.74 180.33, 216.65 180.5, 216.56 180.67, 216.46 180.83, 216.37 181.0, 216.27 181.17, 216.17 181.33, 216.07 181.5, 215.97 181.67, 215.87 181.83, 215.77 182.0, 215.67 182.17, 215.56 182.33, 215.46 182.5, 215.35 182.67, 215.24 182.83, 215.14 183.0, 215.03 183.17, 214.92 183.33, 214.8 183.5, 214.69 183.67, 214.58 183.83, 214.46 184.0, 214.35 184.17, 214.23 184.33, 214.11 184.5, 213.99 184.67, 213.88 184.83, 213.75 185.0, 213.63 185.17, 213.51 185.33, 213.39 185.5, 213.26 185.67, 213.14 185.83, 213.01 186.0, 212.88 186.17, 212.76 186.33, 212.63 186.5, 212.5 186.67, 212.37 186.83, 212.24 187.0, 212.1 187.17, 211.97 187.33, 211.84 187.5, 211.7 187.67, 211.57 187.83, 211.43 188.0, 211.29 188.17, 211.15 188.33, 211.02 188.5, 210.88 188.67, 210.74 188.83, 210.6 189.0, 210.45 189.17, 210.31 189.33, 210.17 189.5, 210.02 189.67, 209.88 189.83, 209.73 190.0, 209.59 190.17, 209.44 190.33, 209.29 190.5, 209.15 190.67, 209.0 190.83, 208.85 191.0, 208.7 191.17, 208.55 191.33, 208.4 191.5, 208.25 191.67, 208.09 191.83, 207.94 192.0, 207.79 192.17, 207.63 192.33, 207.48 192.5, 207.33 192.67, 207.17 192.83, 207.01 193.0, 206.86 193.17, 206.7 193.33, 206.54 193.5, 206.39 193.67, 206.23 193.83, 206.07 194.0, 205.91 194.17, 205.75 194.33, 205.59 194.5, 205.43 194.67, 205.27 194.83, 205.11 195.0, 204.95 195.17, 204.79 195.33, 204.62 195.5, 204.46 195.67, 204.3 195.83, 204.14 196.0, 203.97 196.17, 203.81 196.33, 203.65 196.5, 203.48 196.67, 203.32 196.83, 203.15 197.0, 202.99 197.17, 202.82 197.33, 202.66 197.5, 202.49 197.67, 202.33 197.83, 202.16 198.0, 202.0 198.17, 201.83 198.33, 201.66 198.5, 201.5 198.67, 201.33 198.83, 201.17 199.0, 201.0 199.17, 200.83 199.33, 200.67 199.5, 200.5 199.67, 200.33 199.83, 200.17 200.0, 200.0 200.17, 199.83 200.33, 199.67 200.5, 199.5 200.67, 199.33 200.83, 199.17 201.0, 199.0 201.17, 198.83 201.33, 198.67 201.5, 198.5 201.67, 198.34 201.83, 198.17 202.0, 198.0 202.17, 197.84 202.33, 197.67 202.5, 197.51 202.67, 197.34 202.83, 197.18 203.0, 197.01 203.17, 196.85 203.33, 196.68 203.5, 196.52 203.67, 196.35 203.83, 196.19 204.0, 196.03 204.17, 195.86 204.33, 195.7 204.5, 195.54 204.67, 195.38 204.83, 195.21 205.0, 195.05 205.17, 194.89 205.33, 194.73 205.5, 194.57 205.67, 194.41 205.83, 194.25 206.0, 194.09 206.17, 193.93 206.33, 193.77 206.5, 193.61 206.67, 193.46 206.83, 193.3 207.0, 193.14 207.17, 192.99 207.33, 192.83 207.5, 192.67 207.67, 192.52 207.83, 192.37 208.0, 192.21 208.17, 192.06 208.33, 191.91 208.5, 191.75 208.67, 191.6 208.83, 191.45 209.0, 191.3 209.17, 191.15 209.33, 191.0 209.5, 190.85 209.67, 190.71 209.83, 190.56 210.0, 190.41 210.17, 190.27 210.33, 190.12 210.5, 189.98 210.67, 189.83 210.83, 189.69 211.0, 189.55 211.17, 189.4 211.33, 189.26 211.5, 189.12 211.67, 188.98 211.83, 188.85 212.0, 188.71 212.17, 188.57 212.33, 188.43 212.5, 188.3 212.67, 188.16 212.83, 188.03 213.0, 187.9 213.17, 187.76 213.33, 187.63 213.5, 187.5 213.67, 187.37 213.83, 187.24 214.0, 187.12 214.17, 186.99 214.33, 186.86 214.5, 186.74 214.67, 186.61 214.83, 186.49 215.0, 186.37 215.17, 186.25 215.33, 186.12 215.5, 186.01 215.67, 185.89 215.83, 185.77 216.0, 185.65 216.17, 185.54 216.33, 185.42 216.5, 185.31 216.67, 185.2 216.83, 185.08 217.0, 184.97 217.17, 184.86 217.33, 184.76 217.5, 184.65 217.67, 184.54 217.83, 184.44 218.0, 184.33 218.17, 184.23 218.33, 184.13 218.5, 184.03 218.67, 183.93 218.83, 183.83 219.0, 183.73 219.17, 183.63 219.33, 183.54 219.5, 183.44 219.67, 183.35 219.83, 183.26 220.0, 183.17 220.17, 183.08 220.33, 182.99 220.5, 182.9 220.67, 182.82 220.83, 182.73 221.0, 182.65 221.17, 182.56 221.33, 182.48 221.5, 182.4 221.67, 182.32 221.83, 182.25 222.0, 182.17 222.17, 182.09 222.33, 182.02 222.5, 181.95 222.67, 181.88 222.83, 181.81 223.0, 181.74 223.17, 181.67 223.33, 181.6 223.5, 181.54 223.67, 181.47 223.83, 181.41 224.0, 181.35 224.17, 181.29 224.33, 181.23 224.5, 181.17 224.67, 181.11 224.83, 181.06 225.0, 181.0 225.17, 180.95 225.33, 180.9 225.5, 180.85 225.67, 180.8 225.83, 180.75 226.0, 180.71 226.17, 180.66 226.33, 180.62 226.5, 180.58 226.67, 180.54 226.83, 180.5 227.0, 180.46 227.17, 180.42 227.33, 180.39 227.5, 180.35 227.67, 180.32 227.83, 180.29 228.0, 180.26 228.17, 180.23 228.33, 180.2 228.5, 180.17 228.67, 180.15 228.83, 180.12 229.0, 180.1 229.17, 180.08 229.33, 180.06 229.5, 180.04 229.67, 180.03 229.83, 180.01 230.0, 179.99 230.17, 179.98 230.33, 179.97 230.5, 179.96 230.67, 179.95 230.83, 179.94 231.0, 179.93 231.17, 179.93 231.33, 179.93 231.5, 179.92 231.67, 179.92 231.83, 179.92 232.0, 179.92 232.17, 179.92 232.33, 179.93 232.5, 179.93 232.67, 179.94 232.83, 179.95 233.0, 179.96 233.17, 179.97 233.33, 179.98 233.5, 179.99 233.67, 180.0 233.83, 180.02 234.0, 180.03 234.17, 180.05 234.33, 180.07 234.5, 180.09 234.67, 180.11 234.83, 180.14 235.0, 180.16 235.17, 180.18 235.33, 180.21 235.5, 180.24 235.67, 180.27 235.83, 180.3 236.0, 180.33 236.17, 180.36 236.33, 180.39 236.5, 180.43 236.67, 180.46 236.83, 180.5 237.0, 180.54 237.17, 180.58 237.33, 180.62 237.5, 180.66 237.67, 180.7 237.83, 180.74 238.0, 180.79 238.17, 180.84 238.33, 180.88 238.5, 180.93 238.67, 180.98 238.83, 181.03 239.0, 181.08 239.17, 181.13 239.33, 181.19 239.5, 181.24 239.67, 181.3 239.83, 181.35 240.0, 181.41 240.17, 181.47 240.33, 181.53 240.5, 181.59 240.67, 181.65 240.83, 181.71 241.0, 181.77 241.17, 181.84 241.33, 181.9 241.5, 181.97 241.67, 182.03 241.83, 182.1 242.0, 182.17 242.17, 182.24 242.33, 182.31 242.5, 182.38 242.67, 182.45 242.83, 182.52 243.0, 182.6 243.17, 182.67 243.33, 182.75 243.5, 182.82 243.67, 182.9 243.83, 182.97 244.0, 183.05 244.17, 183.13 244.33, 183.21 244.5, 183.29 244.67, 183.37 244.83, 183.45 245.0, 183.53 245.17, 183.61 245.33, 183.7 245.5, 183.78 245.67, 183.86 245.83, 183.95 246.0, 184.03 246.17, 184.12 246.33, 184.2 246.5, 184.29 246.67, 184.38 246.83, 184.46 247.0, 184.55 247.17, 184.64 247.33, 184.73 247.5, 184.81 247.67, 184.9 247.83, 184.99 248.0, 185.08 248.17, 185.17 248.33, 185.26 248.5, 185.35 248.67, 185.44 248.83, 185.53 249.0, 185.62 249.17, 185.71 249.33, 185.81 249.5, 185.9 249.67, 185.99 249.83, 186.08 250.0, 186.17 250.17, 186.26 250.33, 186.35 250.5, 186.44 250.67, 186.54 250.83, 186.63 251.0, 186.72 251.17, 186.81 251.33, 186.9 251.5, 186.99 251.67, 187.08 251.83, 187.17 252.0, 187.26 252.17, 187.35 252.33, 187.44 252.5, 187.53 252.67, 187.62 252.83, 187.71 253.0, 187.8 253.17, 187.89 253.33, 187.97 253.5, 188.06 253.67, 188.15 253.83, 188.23 254.0, 188.32 254.17, 188.4 254.33, 188.49 254.5, 188.57 254.67, 188.65 254.83, 188.74 255.0, 188.82 255.17, 188.9 255.33, 188.98 255.5, 189.06 255.67, 189.14 255.83, 189.22 256.0, 189.29 256.17, 189.37 256.33, 189.44 256.5, 189.52 256.67, 189.59 256.83, 189.66 257.0, 189.73 257.17, 189.8 257.33, 189.87 257.5, 189.94 257.67, 190.01 257.83, 190.07 258.0, 190.14 258.17, 190.2 258.33, 190.26 258.5, 190.32 258.67, 190.38 258.83, 190.44 259.0, 190.5 259.17, 190.55 259.33, 190.6 259.5, 190.66 259.67, 190.71 259.83, 190.75 260.0, 190.8 260.17, 190.85 260.33, 190.89 260.5, 190.93 260.67, 190.97 260.83, 191.01 261.0, 191.05 261.17, 191.08 261.33, 191.11 261.5, 191.15 261.67, 191.17 261.83, 191.2 262.0, 191.23 262.17, 191.25 262.33, 191.27 262.5, 191.29 262.67, 191.3 262.83, 191.32 263.0, 191.33 263.17, 191.34 263.33, 191.34 263.5, 191.35 263.67, 191.35 263.83, 191.35 264.0, 191.35 264.17, 191.34 264.33, 191.33 264.5, 191.32 264.67, 191.31 264.83, 191.29 265.0, 191.27 265.17, 191.25 265.33, 191.23 265.5, 191.2 265.67, 191.17 265.83, 191.14 266.0, 191.1 266.17, 191.06 266.33, 191.02 266.5, 190.97 266.67, 190.92 266.83, 190.87 267.0, 190.82 267.17, 190.76 267.33, 190.7 267.5, 190.63 267.67, 190.56 267.83, 190.49 268.0, 190.41 268.17, 190.33 268.33, 190.25 268.5, 190.16 268.67, 190.07 268.83, 189.98 269.0, 189.88 269.17, 189.78 269.33, 189.67 269.5, 189.56 269.67, 189.45 269.83, 189.33 270.0, 189.21 270.17, 189.08 270.33, 188.95 270.5, 188.82 270.67, 188.68 270.83, 188.54 271.0, 188.39 271.17, 188.24 271.33, 188.08 271.5, 187.92 271.67, 187.75 271.83, 187.58 272.0, 187.41 272.17, 187.23 272.33, 187.04 272.5, 186.85 272.67, 186.66 272.83, 186.46 273.0, 186.26 273.17, 186.05 273.33, 185.83 273.5, 185.61 273.67, 185.39 273.83, 185.16 274.0, 184.92 274.17, 184.68 274.33, 184.43 274.5, 184.18 274.67, 183.92 274.83, 183.66 275.0, 183.39 275.17, 183.12 275.33, 182.84 275.5, 182.55 275.67, 182.26 275.83, 181.96 276.0, 181.66 276.17, 181.35 276.33, 181.03 276.5, 180.71 276.67, 180.38 276.83, 180.05 277.0, 179.71 277.17, 179.36 277.33, 179.01 277.5, 178.65 277.67, 178.28 277.83, 177.91 278.0, 177.52 278.17, 177.14 278.33, 176.74 278.5, 176.34 278.67, 175.94 278.83, 175.52 279.0, 175.1 279.17, 174.67 279.33, 174.24 279.5, 173.79 279.67, 173.34 279.83, 172.88 280.0, 172.42 280.17, 171.95 280.33, 171.47 280.5, 170.98 280.67, 170.48 280.83, 169.98 281.0, 169.47 281.17, 168.95 281.33, 168.42 281.5, 167.89 281.67, 167.35 281.83, 166.79 282.0, 166.24 282.17, 165.67 282.33, 165.09 282.5, 164.51 282.67, 163.92 282.83, 163.31 283.0, 162.71 283.17, 162.09 283.33, 161.46 283.5, 160.82 283.67, 160.18 283.83, 159.53 284.0, 158.86 284.17, 158.19 284.33, 157.51 284.5, 156.82 284.67, 156.12 284.83, 155.41 285.0, 154.7 285.17, 153.97 285.33, 153.23 285.5, 152.49 285.67, 151.73 285.83, 150.96 286.0, 150.19 286.17, 149.4 286.33, 148.61 286.5, 147.8 286.67, 146.99 286.83, 146.16 287.0, 145.33 287.17, 144.48 287.33, 143.62 287.5, 142.76 287.67, 141.88 287.83, 140.99 288.0, 140.09 288.17, 139.18 288.33, 138.26 288.5, 137.33 288.67, 136.39 288.83, 135.43 289.0, 134.47 289.17, 133.49 289.33, 132.51 289.5, 131.51 289.67, 130.5 289.83, 129.48 290.0, 128.45 290.17, 127.4 290.33, 126.34 290.5, 125.28 290.67, 124.2 290.83, 123.11 291.0, 122.0 291.17, 120.89 291.33, 119.76 291.5, 118.62 291.67, 117.47 291.83, 116.3 292.0, 115.12 292.17, 113.93 292.33, 112.73 292.5, 111.52 292.67, 110.29 292.83, 109.05 293.0, 107.79 293.17, 106.52 293.33, 105.24 293.5, 103.95 293.67, 102.64 293.83, 101.32 294.0, 99.99 294.17, 98.64 294.33, 97.28 294.5, 95.91 294.67, 94.52 294.83, 93.12 295.0, 91.7 295.17, 90.27 295.33, 88.83 295.5, 87.37 295.67, 85.9 295.83, 84.41 296.0, 82.91 296.17, 81.4 296.33, 79.87 296.5, 78.32 296.67, 76.76 296.83, 75.19 297.0, 73.6 297.17, 71.99 297.33, 70.37 297.5, 68.74 297.67, 67.09 297.83, 65.42 298.0, 63.74 298.17, 62.05 298.33, 60.33 298.5, 58.61 298.67, 56.86 298.83, 55.1 299.0, 53.33 299.17, 51.54 299.33, 49.73 299.5, 47.91 299.67, 46.07 299.83, 44.21 300.0, 42.34 300.17, 40.45 300.33, 38.54 300.5, 36.62 300.67, 34.68 300.83, 32.72 301.0, 30.75 301.17, 28.76 301.33, 26.75 301.5, 24.72 301.67, 22.68 301.83, 20.62 302.0, 18.55 302.17, 16.45 302.33, 14.34 302.5, 12.21 302.67, 10.06 302.83, 7.89 303.0, 5.71 303.17, 3.5 303.33, 1.28 303.5, -0.96 303.67, -3.21 303.83, -5.49 304.0, -7.79 304.17, -10.1 304.33, -12.43 304.5, -14.78 304.67, -17.15 304.83, -19.54 305.0, -21.95 305.17, -24.38 305.33, -26.83 305.5, -29.29 305.67, -31.78 305.83, -34.29 306.0, -36.81 306.17, -39.36 306.33, -41.92 306.5, -44.51 306.67, -47.12 306.83, -49.74 307.0, -52.39 307.17, -55.05 307.33, -57.74 307.5, -60.45 307.67, -63.18 307.83, -65.93 308.0, -68.7 308.17, -71.49 308.33, -74.3 308.5, -77.13 308.67, -79.99 308.83, -82.86 309.0, -85.76 309.17, -88.68 309.33, -91.62 309.5, -94.58 309.67, -97.57 309.83, -100.57 310.0, -103.6 310.17, -106.65 310.33, -109.73 310.5, -112.82 310.67, -115.94 310.83, -119.08 311.0, -122.24 311.17, -125.43 311.33, -128.63 311.5, -131.86 311.67, -135.12 311.83, -138.4 312.0, -141.7 312.17, -145.02 312.33, -148.37 312.5, -151.74 312.67, -155.13 312.83, -158.55 313.0, -161.99 313.17, -165.46 313.33, -168.95 313.5, -172.46 313.67, -176.0 313.83, -179.56 314.0, -183.15 314.17, -186.76 314.33, -190.39 314.5, -194.05 314.67, -197.74 314.83, -201.45 315.0, -205.19 315.17, -208.95 315.33, -212.73 315.5, -216.54 315.67, -220.38 315.83, -224.24 316.0, -228.13 316.17, -232.04 316.33, -235.98 316.5, -239.94 316.67, -243.93 316.83, -247.95 317.0, -251.99 317.17, -256.06 317.33, -260.16 317.5, -264.28 317.67, -268.43 317.83, -272.61 318.0, -276.81 318.17, -281.04 318.33, -285.3 318.5, -289.58 318.67, -293.89 318.83, -298.23 319.0, -302.59 319.17, -306.99 319.33, -311.41 319.5, -315.86 319.67, -320.33 319.83, -324.84 320.0, -329.37 320.17, -333.93 320.33, -338.52 320.5, -343.14 320.67, -347.78 320.83, -352.46 321.0, -357.16 321.17, -361.89 321.33, -366.65 321.5, -371.44 321.67, -376.26 321.83, -381.11 322.0, -385.99 322.17, -390.9 322.33, -395.83 322.5, -400.8 322.67, -405.79 322.83, -410.82 323.0, -415.87 323.17, -420.96 323.33, -426.08 323.5, -431.22 323.67, -436.4 323.83, -441.6 324.0, -446.84 324.17, -452.11 324.33, -457.41 324.5, -462.74 324.67, -468.1 324.83, -473.49 325.0, -478.91 325.17, -484.37 325.33, -489.85 325.5, -495.37 325.67, -500.92 325.83, -506.5 326.0, -512.11 326.17, -517.75 326.33, -523.43 326.5, -529.14 326.67, -534.88 326.83, -540.65 327.0, -546.45 327.17, -552.29 327.33, -558.16 327.5, -564.06 327.67, -570.0 327.83, -575.97 328.0, -581.97 328.17, -588.0 328.33, -594.07 328.5, -600.17 328.67, -606.31 328.83, -612.47 329.0, -618.68 329.17, -624.91 329.33, -631.18 329.5, -637.49 329.67, -643.82 329.83, -650.2 330.0, -656.6 330.17, -663.04 330.33, -669.52 330.5, -676.03 330.67, -682.57 330.83, -689.15 331.0, -695.77 331.17, -702.41 331.33, -709.1 331.5, -715.82 331.67, -722.57 331.83, -729.36 332.0, -736.19 332.17, -743.05 332.33, -749.95 332.5, -756.88 332.67, -763.85 332.83, -770.85 333.0, -777.9 333.17, -784.97 333.33, -792.09 333.5, -799.24 333.67, -806.42 333.83, -813.65 334.0, -820.91 334.17, -828.21 334.33, -835.54 334.5, -842.91 334.67, -850.32 334.83, -857.77 335.0, -865.25 335.17, -872.77 335.33, -880.33 335.5, -887.92 335.67, -895.56 335.83, -903.23 336.0, -910.94 336.17, -918.69 336.33, -926.47 336.5, -934.3 336.67, -942.16 336.83, -950.06 337.0, -958.0 337.17, -965.98 337.33, -973.99 337.5, -982.05 337.67, -990.15 337.83, -998.28 338.0, -1006.45 338.17, -1014.67 338.33, -1022.92 338.5, -1031.21 338.67, -1039.54 338.83, -1047.91 339.0, -1056.32 339.17, -1064.77 339.33, -1073.26 339.5, -1081.8 339.67, -1090.37 339.83, -1098.98 340.0, -1107.63 340.17, -1116.32 340.33, -1125.05 340.5, -1133.83 340.67, -1142.64 340.83, -1151.5 341.0, -1160.39 341.17, -1169.33 341.33, -1178.31 341.5, -1187.33 341.67, -1196.39 341.83, -1205.49 342.0, -1214.64 342.17, -1223.82 342.33, -1233.05 342.5, -1242.32 342.67, -1251.63 342.83, -1260.98 343.0, -1270.38 343.17, -1279.82 343.33, -1289.3 343.5, -1298.82 343.67, -1308.38 343.83, -1317.99 344.0, -1327.64 344.17, -1337.34 344.33, -1347.07 344.5, -1356.85 344.67, -1366.67 344.83, -1376.54 345.0, -1386.45 345.17, -1396.4 345.33, -1406.39 345.5, -1416.43 345.67, -1426.52 345.83, -1436.64 346.0, -1446.81 346.17, -1457.03 346.33, -1467.29 346.5, -1477.59 346.67, -1487.93 346.83, -1498.32 347.0, -1508.76 347.17, -1519.24 347.33, -1529.76 347.5, -1540.33 347.67, -1550.95 347.83, -1561.6 348.0, -1572.31 348.17, -1583.06 348.33, -1593.85 348.5, -1604.69 348.67, -1615.57 348.83, -1626.5 349.0, -1637.47 349.17, -1648.49 349.33, -1659.56 349.5, -1670.67 349.67, -1681.83 349.83, -1693.03 350.0, -1704.28 350.17, -1715.58 350.33, -1726.92 350.5, -1738.3 350.67, -1749.74 350.83, -1761.22 351.0, -1772.75 351.17, -1784.32 351.33, -1795.94 351.5, -1807.6 351.67, -1819.32 351.83, -1831.08 352.0, -1842.88 352.17, -1854.74 352.33, -1866.64 352.5, -1878.59 352.67, -1890.58 352.83, -1902.63 353.0, -1914.72 353.17, -1926.86 353.33, -1939.04 353.5, -1951.27 353.67, -1963.56 353.83, -1975.88 354.0, -1988.26 354.17, -2000.69 354.33, -2013.16 354.5, -2025.68 354.67, -2038.25 354.83, -2050.87 355.0, -2063.53 355.17, -2076.25 355.33, -2089.01 355.5, -2101.82 355.67, -2114.68 355.83, -2127.59 356.0, -2140.55 356.17, -2153.55 356.33, -2166.61 356.5, -2179.71 356.67, -2192.87 356.83, -2206.07 357.0, -2219.32 357.17, -2232.62 357.33, -2245.98 357.5, -2259.38 357.67, -2272.83 357.83, -2286.33 358.0, -2299.87 358.17, -2313.47 358.33, -2327.12 358.5, -2340.82 358.67, -2354.57 358.83, -2368.37 359.0, -2382.22 359.17, -2396.11 359.33, -2410.06 359.5, -2424.06 359.67, -2438.11 359.83, -2452.21 360.0, -2466.36 360.17, -2480.56 360.33, -2494.81 360.5, -2509.12 360.67, -2523.47 360.83, -2537.87 361.0, -2552.33 361.17, -2566.83 361.33, -2581.39 361.5, -2596.0 361.67, -2610.65 361.83, -2625.36 362.0, -2640.12 362.17, -2654.94 362.33, -2669.8 362.5, -2684.71 362.67, -2699.68 362.83, -2714.7 363.0, -2729.76 363.17, -2744.88 363.33, -2760.06 363.5, -2775.28 363.67, -2790.56 363.83, -2805.88 364.0, -2821.26 364.17, -2836.69 364.33, -2852.18 364.5, -2867.71 364.67, -2883.3 364.83, -2898.94 365.0, -2914.63 365.17, -2930.37 365.33, -2946.17 365.5, -2962.01 365.67, -2977.91 365.83, -2993.87 366.0, -3009.87 366.17, -3025.93 366.33, -3042.04 366.5, -3058.2 366.67, -3074.41 366.83, -3090.68 367.0, -3107.0 367.17, -3123.37 367.33, -3139.8 367.5, -3156.28 367.67, -3172.81 367.83, -3189.39 368.0, -3206.03 368.17, -3222.72 368.33, -3239.46 368.5, -3256.26 368.67, -3273.11 368.83, -3290.01 369.0, -3306.96 369.17, -3323.97 369.33, -3341.03 369.5, -3358.15 369.67, -3375.31 369.83, -3392.53 370.0, -3409.81 370.17, -3427.14 370.33, -3444.52 370.5, -3461.95 370.67, -3479.44 370.83, -3496.98 371.0, -3514.57 371.17, -3532.22 371.33, -3549.92 371.5, -3567.68 371.67, -3585.49 371.83, -3603.35 372.0, -3621.26 372.17, -3639.23 372.33, -3657.26 372.5, -3675.33 372.67, -3693.46 372.83, -3711.65 373.0, -3729.89 373.17, -3748.18 373.33, -3766.52 373.5, -3784.92 373.67, -3803.37 373.83, -3821.88 374.0, -3840.44 374.17, -3859.06 374.33, -3877.72 374.5, -3896.45 374.67, -3915.22 374.83, -3934.05 375.0, -3952.93 375.17, -3971.87 375.33, -3990.86 375.5, -4009.91 375.67, -4029.01 375.83, -4048.16 376.0, -4067.37 376.17, -4086.63 376.33, -4105.94 376.5, -4125.31 376.67, -4144.73 376.83, -4164.21 377.0, -4183.74 377.17, -4203.32 377.33, -4222.96 377.5, -4242.65 377.67, -4262.4 377.83, -4282.2 378.0, -4302.05 378.17, -4321.96 378.33, -4341.92 378.5, -4361.94 378.67, -4382.0 378.83, -4402.13 379.0, -4422.3 379.17, -4442.53 379.33, -4462.82 379.5, -4483.16 379.67, -4503.55 379.83, -4524.0 380.0, -4544.49 380.17, -4565.05 380.33, -4585.65 380.5, -4606.32 380.67, -4627.03 380.83, -4647.8 381.0, -4668.62 381.17, -4689.49 381.33, -4710.42 381.5, -4731.41 381.67, -4752.44 381.83, -4773.53 382.0, -4794.67 382.17, -4815.87 382.33, -4837.12 382.5, -4858.42 382.67, -4879.78 382.83, -4901.19 383.0, -4922.65 383.17, -4944.17 383.33, -4965.74 383.5, -4987.36 383.67, -5009.04 383.83, -5030.77 384.0, -5052.55 384.17, -5074.39 384.33, -5096.27 384.5, -5118.21 384.67, -5140.21 384.83, -5162.26 385.0, -5184.36 385.17, -5206.51 385.33, -5228.71 385.5, -5250.97 385.67, -5273.28 385.83, -5295.65 386.0, -5318.06 386.17, -5340.53 386.33, -5363.05 386.5, -5385.63 386.67, -5408.25 386.83, -5430.93 387.0, -5453.66 387.17, -5476.44 387.33, -5499.28 387.5, -5522.16 387.67, -5545.1 387.83, -5568.09 388.0, -5591.13 388.17, -5614.23 388.33, -5637.37 388.5, -5660.57 388.67, -5683.82 388.83, -5707.12 389.0, -5730.47 389.17, -5753.88 389.33, -5777.33 389.5, -5800.84 389.67, -5824.4 389.83, -5848.0 390.0, -5871.66 390.17, -5895.37 390.33, -5919.13 390.5, -5942.95 390.67, -5966.81 390.83, -5990.72 391.0, -6014.69 391.17, -6038.7 391.33, -6062.76 391.5, -6086.88 391.67, -6111.04 391.83, -6135.26 392.0, -6159.52 392.17, -6183.84 392.33, -6208.2 392.5, -6232.62 392.67, -6257.08 392.83, -6281.6 393.0, -6306.16 393.17, -6330.77 393.33, -6355.43 393.5, -6380.14 393.67, -6404.9 393.83, -6429.71 394.0, -6454.57 394.17, -6479.47 394.33, -6504.43 394.5, -6529.43 394.67, -6554.48 394.83, -6579.58 395.0, -6604.73 395.17, -6629.93 395.33, -6655.17 395.5, -6680.46 395.67, -6705.8 395.83, -6731.19 396.0, -6756.63 396.17, -6782.11 396.33, -6807.64 396.5, -6833.21 396.67, -6858.84 396.83, -6884.51 397.0, -6910.22 397.17, -6935.99 397.33, -6961.8 397.5, -6987.65 397.67, -7013.55 397.83, -7039.5 398.0, -7065.5 398.17, -7091.54 398.33, -7117.62 398.5, -7143.75 398.67, -7169.93 398.83, -7196.15 399.0, -7222.42 399.17, -7248.73 399.33, -7275.08 399.5, -7301.48 399.67, -7327.93 399.83, -7354.42 400.0, -7380.95 " fill="none" stroke="white" stroke-width="1.5" stroke-linejoin="round" stroke-opacity="1"/>

 </svg>