<svg version="1.1" 
 baseProfile="full" 
 width="400" 
 height="400" 
 xmlns="http://www.w3.org/2000/svg">
<rect x="0.0" y="0.0" width="400" height="400" fill="black" stroke="black" stroke-width="0" opacity="1"/>
<line x1="0.0" y1="0.0" x2="0.0" y2="400.0" stroke="white" stroke-width="1" opacity="0.4" stroke-linecap="butt"/>
<line x1="40.0" y1="0.0" x2="40.0" y2="400.0" stroke="white" stroke-width="1" opacity="0.4" stroke-linecap="butt"/>
<line x1="80.0" y1="0.0" x2="80.0" y2="400.0" stroke="white" stroke-width="1" opacity="0.4" stroke-linecap="butt"/>
<line x1="120.0" y1="0.0" x2="120.0" y2="400.0" stroke="white" stroke-width="1" opacity="0.4" stroke-linecap="butt"/>
<line x1="160.0" y1="0.0" x2="160.0" y2="400.0" stroke="white" stroke-width="1" opacity="0.4" stroke-linecap="butt"/>
<line x1="200.0" y1="0.0" x2="200.0" y2="400.0" stroke="white" stroke-width="1" opacity="0.4" stroke-linecap="butt"/>
<line x1="240.0" y1="0.0" x2="240.0" y2="400.0" stroke="white" stroke-width="1" opacity="0.4" stroke-linecap="butt"/>
<line x1="280.0" y1="0.0" x2="280.0" y2="400.0" stroke="white" stroke-width="1" opacity="0.4" stroke-linecap="butt"/>
<line x1="320.0" y1="0.0" x2="320.0" y2="400.0" stroke="white" stroke-width="1" opacity="0.4" stroke-linecap="butt"/>
<line x1="360.0" y1="0.0" x2="360.0" y2="400.0" stroke="white" stroke-width="1" opacity="0.4" stroke-linecap="butt"/>
<line x1="0.0" y1="0.0" x2="400.0" y2="0.0" stroke="white" stroke-width="1" opacity="0.4" stroke-linecap="butt"/>
<line x1="0.0" y1="40.0" x2="400.0" y2="40.0" stroke="white" stroke-width="1" opacity="0.4" stroke-linecap="butt"/>
<line x1="0.0" y1="80.0" x2="400.0" y2="80.0" stroke="white" stroke-width="1" opacity="0.4" stroke-linecap="butt"/>
<line x1="0.0" y1="120.0" x2="400.0" y2="120.0" stroke="white" stroke-width="1" opacity="0.4" stroke-linecap="butt"/>
<line x1="0.0" y1="160.0" x2="400.0" y2="160.0" stroke="white" stroke-width="1" opacity="0.4" stroke-linecap="butt"/>
<line x1="0.0" y1="200.0" x2="400.0" y2="200.0" stroke="white" stroke-width="1" opacity="0.4" stroke-linecap="butt"/>
<line x1="0.0" y1="240.0" x2="400.0" y2="240.0" stroke="white" stroke-width="1" opacity="0.4" stroke-linecap="butt"/>
<line x1="0.0" y1="280.0" x2="400.0" y2="280.0" stroke="white" stroke-width="1" opacity="0.4" stroke-linecap="butt"/>
<line x1="0.0" y1="320.0" x2="400.0" y2="320.0" stroke="white" stroke-width="1" opacity="0.4" stroke-linecap="butt"/>
<line x1="0.0" y1="360.0" x2="400.0" y2="360.0" stroke="white" stroke-width="1" opacity="0.4" stroke-linecap="butt"/>
<line x1="0.0" y1="200.0" x2="400.0" y2="200.0" stroke="yellow" stroke-width="2.5" opacity="1" stroke-linecap="butt"/>
<line x1="200.0" y1="0.0" x2="200.0" y2="400.0" stroke="yellow" stroke-width="2.5" opacity="1" stroke-linecap="butt"/>
<polygon points="391.0 204.0, 401.0 200.0, 391.0 196.0, 393.0 200.0" fill="yellow"/><polygon points="204.0 9.0, 200.0 -1.0, 196.0 9.0, 200.0 7.0" fill="yellow"/><image x="-60.0" y="-60.0" width="200" height="200" href="/Users/girirajhira/PycharmProjects/Giraphics3/Taylor/expr.png"/><polyline points="0.0, 340.48 0.17, 357.24 0.33, 373.83 0.5, 390.24 0.67, 406.49 0.83, 422.57 1.0, 438.48 1.17, 454.23 1.33, 469.81 1.5, 485.22 1.67, 500.47 1.83, 515.56 2.0, 530.49 2.17, 545.25 2.33, 559.86 2.5, 574.31 2.67, 588.6 2.83, 602.73 3.0, 616.71 3.17, 630.53 3.33, 644.2 3.5, 657.72 3.67, 671.08 3.83, 684.29 4.0, 697.36 4.17, 710.27 4.33, 723.04 4.5, 735.66 4.67, 748.14 4.83, 760.47 5.0, 772.65 5.17, 784.69 5.33, 796.59 5.5, 808.35 5.67, 819.97 5.83, 831.45 6.0, 842.79 6.17, 853.99 6.33, 865.06 6.5, 875.99 6.67, 886.79 6.83, 897.45 7.0, 907.98 7.17, 918.37 7.33, 928.64 7.5, 938.77 7.67, 948.77 7.83, 958.65 8.0, 968.4 8.17, 978.02 8.33, 987.51 8.5, 996.88 8.67, 1006.12 8.83, 1015.25 9.0, 1024.24 9.17, 1033.12 9.33, 1041.87 9.5, 1050.51 9.67, 1059.03 9.83, 1067.42 10.0, 1075.7 10.17, 1083.86 10.33, 1091.91 10.5, 1099.84 10.67, 1107.65 10.83, 1115.36 11.0, 1122.95 11.17, 1130.42 11.33, 1137.79 11.5, 1145.04 11.67, 1152.19 11.83, 1159.22 12.0, 1166.15 12.17, 1172.97 12.33, 1179.69 12.5, 1186.29 12.67, 1192.8 12.83, 1199.2 13.0, 1205.49 13.17, 1211.68 13.33, 1217.77 13.5, 1223.76 13.67, 1229.65 13.83, 1235.43 14.0, 1241.12 14.17, 1246.71 14.33, 1252.2 14.5, 1257.6 14.67, 1262.9 14.83, 1268.1 15.0, 1273.21 15.17, 1278.22 15.33, 1283.14 15.5, 1287.97 15.67, 1292.71 15.83, 1297.35 16.0, 1301.91 16.17, 1306.37 16.33, 1310.74 16.5, 1315.03 16.67, 1319.23 16.83, 1323.34 17.0, 1327.36 17.17, 1331.3 17.33, 1335.15 17.5, 1338.92 17.67, 1342.61 17.83, 1346.21 18.0, 1349.73 18.17, 1353.16 18.33, 1356.52 18.5, 1359.79 18.67, 1362.99 18.83, 1366.1 19.0, 1369.14 19.17, 1372.1 19.33, 1374.98 19.5, 1377.78 19.67, 1380.51 19.83, 1383.16 20.0, 1385.74 20.17, 1388.24 20.33, 1390.67 20.5, 1393.02 20.67, 1395.31 20.83, 1397.52 21.0, 1399.66 21.17, 1401.73 21.33, 1403.73 21.5, 1405.65 21.67, 1407.51 21.83, 1409.31 22.0, 1411.03 22.17, 1412.69 22.33, 1414.28 22.5, 1415.8 22.67, 1417.26 22.83, 1418.65 23.0, 1419.98 23.17, 1421.24 23.33, 1422.44 23.5, 1423.58 23.67, 1424.66 23.83, 1425.67 24.0, 1426.62 24.17, 1427.52 24.33, 1428.35 24.5, 1429.12 24.67, 1429.84 24.83, 1430.49 25.0, 1431.09 25.17, 1431.63 25.33, 1432.11 25.5, 1432.54 25.67, 1432.91 25.83, 1433.23 26.0, 1433.49 26.17, 1433.69 26.33, 1433.84 26.5, 1433.94 26.67, 1433.99 26.83, 1433.98 27.0, 1433.93 27.17, 1433.82 27.33, 1433.66 27.5, 1433.45 27.67, 1433.18 27.83, 1432.87 28.0, 1432.52 28.17, 1432.11 28.33, 1431.65 28.5, 1431.15 28.67, 1430.6 28.83, 1430.0 29.0, 1429.36 29.17, 1428.67 29.33, 1427.94 29.5, 1427.16 29.67, 1426.34 29.83, 1425.47 30.0, 1424.56 30.17, 1423.61 30.33, 1422.61 30.5, 1421.58 30.67, 1420.5 30.83, 1419.38 31.0, 1418.22 31.17, 1417.01 31.33, 1415.77 31.5, 1414.49 31.67, 1413.17 31.83, 1411.81 32.0, 1410.42 32.17, 1408.98 32.33, 1407.51 32.5, 1406.0 32.67, 1404.45 32.83, 1402.87 33.0, 1401.25 33.17, 1399.6 33.33, 1397.91 33.5, 1396.19 33.67, 1394.43 33.83, 1392.64 34.0, 1390.82 34.17, 1388.96 34.33, 1387.07 34.5, 1385.15 34.67, 1383.2 34.83, 1381.21 35.0, 1379.19 35.17, 1377.15 35.33, 1375.07 35.5, 1372.96 35.67, 1370.82 35.83, 1368.66 36.0, 1366.46 36.17, 1364.23 36.33, 1361.98 36.5, 1359.7 36.67, 1357.39 36.83, 1355.06 37.0, 1352.7 37.17, 1350.31 37.33, 1347.89 37.5, 1345.45 37.67, 1342.99 37.83, 1340.5 38.0, 1337.98 38.17, 1335.44 38.33, 1332.88 38.5, 1330.29 38.67, 1327.68 38.83, 1325.04 39.0, 1322.39 39.17, 1319.71 39.33, 1317.0 39.5, 1314.28 39.67, 1311.53 39.83, 1308.77 40.0, 1305.98 40.17, 1303.17 40.33, 1300.34 40.5, 1297.5 40.67, 1294.63 40.83, 1291.74 41.0, 1288.83 41.17, 1285.91 41.33, 1282.97 41.5, 1280.0 41.67, 1277.02 41.83, 1274.03 42.0, 1271.01 42.17, 1267.98 42.33, 1264.93 42.5, 1261.87 42.67, 1258.79 42.83, 1255.69 43.0, 1252.58 43.17, 1249.45 43.33, 1246.3 43.5, 1243.15 43.67, 1239.97 43.83, 1236.79 44.0, 1233.59 44.17, 1230.37 44.33, 1227.14 44.5, 1223.9 44.67, 1220.65 44.83, 1217.38 45.0, 1214.1 45.17, 1210.81 45.33, 1207.5 45.5, 1204.19 45.67, 1200.86 45.83, 1197.52 46.0, 1194.17 46.17, 1190.81 46.33, 1187.44 46.5, 1184.06 46.67, 1180.67 46.83, 1177.27 47.0, 1173.86 47.17, 1170.44 47.33, 1167.01 47.5, 1163.58 47.67, 1160.13 47.83, 1156.68 48.0, 1153.21 48.17, 1149.74 48.33, 1146.26 48.5, 1142.78 48.67, 1139.28 48.83, 1135.78 49.0, 1132.28 49.17, 1128.76 49.33, 1125.24 49.5, 1121.71 49.67, 1118.18 49.83, 1114.64 50.0, 1111.1 50.17, 1107.55 50.33, 1103.99 50.5, 1100.43 50.67, 1096.87 50.83, 1093.3 51.0, 1089.72 51.17, 1086.14 51.33, 1082.56 51.5, 1078.98 51.67, 1075.38 51.83, 1071.79 52.0, 1068.19 52.17, 1064.59 52.33, 1060.99 52.5, 1057.38 52.67, 1053.78 52.83, 1050.16 53.0, 1046.55 53.17, 1042.94 53.33, 1039.32 53.5, 1035.7 53.67, 1032.08 53.83, 1028.46 54.0, 1024.83 54.17, 1021.21 54.33, 1017.58 54.5, 1013.96 54.67, 1010.33 54.83, 1006.7 55.0, 1003.08 55.17, 999.45 55.33, 995.82 55.5, 992.2 55.67, 988.57 55.83, 984.94 56.0, 981.32 56.17, 977.69 56.33, 974.07 56.5, 970.45 56.67, 966.82 56.83, 963.2 57.0, 959.59 57.17, 955.97 57.33, 952.35 57.5, 948.74 57.67, 945.13 57.83, 941.52 58.0, 937.92 58.17, 934.31 58.33, 930.71 58.5, 927.11 58.67, 923.52 58.83, 919.92 59.0, 916.34 59.17, 912.75 59.33, 909.17 59.5, 905.59 59.67, 902.01 59.83, 898.44 60.0, 894.87 60.17, 891.31 60.33, 887.75 60.5, 884.2 60.67, 880.64 60.83, 877.1 61.0, 873.56 61.17, 870.02 61.33, 866.49 61.5, 862.96 61.67, 859.44 61.83, 855.92 62.0, 852.41 62.17, 848.9 62.33, 845.4 62.5, 841.91 62.67, 838.42 62.83, 834.93 63.0, 831.46 63.17, 827.98 63.33, 824.52 63.5, 821.06 63.67, 817.6 63.83, 814.16 64.0, 810.72 64.17, 807.28 64.33, 803.85 64.5, 800.43 64.67, 797.02 64.83, 793.61 65.0, 790.21 65.17, 786.82 65.33, 783.43 65.5, 780.05 65.67, 776.68 65.83, 773.32 66.0, 769.96 66.17, 766.61 66.33, 763.27 66.5, 759.94 66.67, 756.61 66.83, 753.3 67.0, 749.99 67.17, 746.68 67.33, 743.39 67.5, 740.11 67.67, 736.83 67.83, 733.56 68.0, 730.3 68.17, 727.05 68.33, 723.8 68.5, 720.57 68.67, 717.34 68.83, 714.13 69.0, 710.92 69.17, 707.72 69.33, 704.53 69.5, 701.34 69.67, 698.17 69.83, 695.01 70.0, 691.85 70.17, 688.71 70.33, 685.57 70.5, 682.44 70.67, 679.33 70.83, 676.22 71.0, 673.12 71.17, 670.03 71.33, 666.95 71.5, 663.88 71.67, 660.82 71.83, 657.77 72.0, 654.73 72.17, 651.7 72.33, 648.68 72.5, 645.67 72.67, 642.67 72.83, 639.68 73.0, 636.7 73.17, 633.73 73.33, 630.77 73.5, 627.82 73.67, 624.88 73.83, 621.95 74.0, 619.03 74.17, 616.12 74.33, 613.22 74.5, 610.33 74.67, 607.46 74.83, 604.59 75.0, 601.73 75.17, 598.89 75.33, 596.05 75.5, 593.23 75.67, 590.41 75.83, 587.61 76.0, 584.82 76.17, 582.03 76.33, 579.26 76.5, 576.5 76.67, 573.75 76.83, 571.02 77.0, 568.29 77.17, 565.57 77.33, 562.87 77.5, 560.17 77.67, 557.49 77.83, 554.82 78.0, 552.15 78.17, 549.5 78.33, 546.86 78.5, 544.24 78.67, 541.62 78.83, 539.01 79.0, 536.42 79.17, 533.83 79.33, 531.26 79.5, 528.7 79.67, 526.15 79.83, 523.61 80.0, 521.09 80.17, 518.57 80.33, 516.06 80.5, 513.57 80.67, 511.09 80.83, 508.62 81.0, 506.16 81.17, 503.71 81.33, 501.27 81.5, 498.85 81.67, 496.44 81.83, 494.03 82.0, 491.64 82.17, 489.26 82.33, 486.89 82.5, 484.54 82.67, 482.19 82.83, 479.86 83.0, 477.54 83.17, 475.23 83.33, 472.93 83.5, 470.64 83.67, 468.36 83.83, 466.1 84.0, 463.84 84.17, 461.6 84.33, 459.37 84.5, 457.15 84.67, 454.94 84.83, 452.75 85.0, 450.56 85.17, 448.39 85.33, 446.23 85.5, 444.08 85.67, 441.94 85.83, 439.81 86.0, 437.69 86.17, 435.59 86.33, 433.5 86.5, 431.41 86.67, 429.34 86.83, 427.28 87.0, 425.24 87.17, 423.2 87.33, 421.18 87.5, 419.16 87.67, 417.16 87.83, 415.17 88.0, 413.19 88.17, 411.22 88.33, 409.27 88.5, 407.32 88.67, 405.39 88.83, 403.47 89.0, 401.56 89.17, 399.66 89.33, 397.77 89.5, 395.89 89.67, 394.02 89.83, 392.17 90.0, 390.33 90.17, 388.49 90.33, 386.67 90.5, 384.86 90.67, 383.06 90.83, 381.28 91.0, 379.5 91.17, 377.74 91.33, 375.98 91.5, 374.24 91.67, 372.51 91.83, 370.78 92.0, 369.07 92.17, 367.38 92.33, 365.69 92.5, 364.01 92.67, 362.34 92.83, 360.69 93.0, 359.05 93.17, 357.41 93.33, 355.79 93.5, 354.18 93.67, 352.58 93.83, 350.99 94.0, 349.41 94.17, 347.84 94.33, 346.28 94.5, 344.74 94.67, 343.2 94.83, 341.67 95.0, 340.16 95.17, 338.65 95.33, 337.16 95.5, 335.68 95.67, 334.21 95.83, 332.74 96.0, 331.29 96.17, 329.85 96.33, 328.42 96.5, 327.0 96.67, 325.59 96.83, 324.19 97.0, 322.8 97.17, 321.42 97.33, 320.05 97.5, 318.7 97.67, 317.35 97.83, 316.01 98.0, 314.68 98.17, 313.37 98.33, 312.06 98.5, 310.76 98.67, 309.47 98.83, 308.2 99.0, 306.93 99.17, 305.67 99.33, 304.43 99.5, 303.19 99.67, 301.96 99.83, 300.74 100.0, 299.53 100.17, 298.34 100.33, 297.15 100.5, 295.97 100.67, 294.8 100.83, 293.64 101.0, 292.49 101.17, 291.35 101.33, 290.22 101.5, 289.1 101.67, 287.99 101.83, 286.89 102.0, 285.8 102.17, 284.71 102.33, 283.64 102.5, 282.57 102.67, 281.52 102.83, 280.47 103.0, 279.44 103.17, 278.41 103.33, 277.39 103.5, 276.38 103.67, 275.38 103.83, 274.39 104.0, 273.41 104.17, 272.43 104.33, 271.47 104.5, 270.52 104.67, 269.57 104.83, 268.63 105.0, 267.7 105.17, 266.78 105.33, 265.87 105.5, 264.97 105.67, 264.08 105.83, 263.19 106.0, 262.31 106.17, 261.45 106.33, 260.59 106.5, 259.73 106.67, 258.89 106.83, 258.06 107.0, 257.23 107.17, 256.41 107.33, 255.61 107.5, 254.8 107.67, 254.01 107.83, 253.23 108.0, 252.45 108.17, 251.68 108.33, 250.92 108.5, 250.17 108.67, 249.42 108.83, 248.69 109.0, 247.96 109.17, 247.24 109.33, 246.53 109.5, 245.82 109.67, 245.12 109.83, 244.43 110.0, 243.75 110.17, 243.08 110.33, 242.41 110.5, 241.75 110.67, 241.1 110.83, 240.46 111.0, 239.82 111.17, 239.19 111.33, 238.57 111.5, 237.95 111.67, 237.35 111.83, 236.75 112.0, 236.15 112.17, 235.57 112.33, 234.99 112.5, 234.42 112.67, 233.85 112.83, 233.3 113.0, 232.75 113.17, 232.2 113.33, 231.66 113.5, 231.14 113.67, 230.61 113.83, 230.1 114.0, 229.59 114.17, 229.08 114.33, 228.59 114.5, 228.1 114.67, 227.61 114.83, 227.14 115.0, 226.67 115.17, 226.21 115.33, 225.75 115.5, 225.3 115.67, 224.85 115.83, 224.41 116.0, 223.98 116.17, 223.56 116.33, 223.14 116.5, 222.72 116.67, 222.32 116.83, 221.92 117.0, 221.52 117.17, 221.13 117.33, 220.75 117.5, 220.37 117.67, 220.0 117.83, 219.63 118.0, 219.27 118.17, 218.92 118.33, 218.57 118.5, 218.23 118.67, 217.89 118.83, 217.56 119.0, 217.23 119.17, 216.91 119.33, 216.6 119.5, 216.29 119.67, 215.98 119.83, 215.68 120.0, 215.39 120.17, 215.1 120.33, 214.82 120.5, 214.54 120.67, 214.27 120.83, 214.0 121.0, 213.74 121.17, 213.48 121.33, 213.23 121.5, 212.98 121.67, 212.74 121.83, 212.5 122.0, 212.26 122.17, 212.04 122.33, 211.81 122.5, 211.59 122.67, 211.38 122.83, 211.17 123.0, 210.96 123.17, 210.76 123.33, 210.57 123.5, 210.38 123.67, 210.19 123.83, 210.01 124.0, 209.83 124.17, 209.65 124.33, 209.48 124.5, 209.32 124.67, 209.16 124.83, 209.0 125.0, 208.85 125.17, 208.7 125.33, 208.55 125.5, 208.41 125.67, 208.28 125.83, 208.14 126.0, 208.02 126.17, 207.89 126.33, 207.77 126.5, 207.65 126.67, 207.54 126.83, 207.43 127.0, 207.32 127.17, 207.22 127.33, 207.12 127.5, 207.03 127.67, 206.93 127.83, 206.85 128.0, 206.76 128.17, 206.68 128.33, 206.6 128.5, 206.53 128.67, 206.46 128.83, 206.39 129.0, 206.32 129.17, 206.26 129.33, 206.2 129.5, 206.15 129.67, 206.1 129.83, 206.05 130.0, 206.0 130.17, 205.96 130.33, 205.92 130.5, 205.88 130.67, 205.85 130.83, 205.82 131.0, 205.79 131.17, 205.76 131.33, 205.74 131.5, 205.72 131.67, 205.7 131.83, 205.69 132.0, 205.68 132.17, 205.67 132.33, 205.66 132.5, 205.66 132.67, 205.66 132.83, 205.66 133.0, 205.66 133.17, 205.67 133.33, 205.67 133.5, 205.68 133.67, 205.7 133.83, 205.71 134.0, 205.73 134.17, 205.75 134.33, 205.77 134.5, 205.79 134.67, 205.82 134.83, 205.85 135.0, 205.88 135.17, 205.91 135.33, 205.94 135.5, 205.98 135.67, 206.01 135.83, 206.05 136.0, 206.1 136.17, 206.14 136.33, 206.18 136.5, 206.23 136.67, 206.28 136.83, 206.33 137.0, 206.38 137.17, 206.44 137.33, 206.49 137.5, 206.55 137.67, 206.61 137.83, 206.67 138.0, 206.73 138.17, 206.79 138.33, 206.85 138.5, 206.92 138.67, 206.99 138.83, 207.06 139.0, 207.13 139.17, 207.2 139.33, 207.27 139.5, 207.34 139.67, 207.42 139.83, 207.49 140.0, 207.57 140.17, 207.65 140.33, 207.73 140.5, 207.81 140.67, 207.89 140.83, 207.97 141.0, 208.06 141.17, 208.14 141.33, 208.23 141.5, 208.31 141.67, 208.4 141.83, 208.49 142.0, 208.58 142.17, 208.67 142.33, 208.76 142.5, 208.85 142.67, 208.94 142.83, 209.04 143.0, 209.13 143.17, 209.22 143.33, 209.32 143.5, 209.41 143.67, 209.51 143.83, 209.61 144.0, 209.7 144.17, 209.8 144.33, 209.9 144.5, 210.0 144.67, 210.1 144.83, 210.2 145.0, 210.3 145.17, 210.4 145.33, 210.5 145.5, 210.6 145.67, 210.7 145.83, 210.8 146.0, 210.9 146.17, 211.01 146.33, 211.11 146.5, 211.21 146.67, 211.31 146.83, 211.42 147.0, 211.52 147.17, 211.62 147.33, 211.73 147.5, 211.83 147.67, 211.93 147.83, 212.04 148.0, 212.14 148.17, 212.24 148.33, 212.35 148.5, 212.45 148.67, 212.55 148.83, 212.66 149.0, 212.76 149.17, 212.86 149.33, 212.97 149.5, 213.07 149.67, 213.17 149.83, 213.27 150.0, 213.38 150.17, 213.48 150.33, 213.58 150.5, 213.68 150.67, 213.78 150.83, 213.88 151.0, 213.98 151.17, 214.08 151.33, 214.18 151.5, 214.28 151.67, 214.38 151.83, 214.48 152.0, 214.58 152.17, 214.67 152.33, 214.77 152.5, 214.87 152.67, 214.96 152.83, 215.06 153.0, 215.16 153.17, 215.25 153.33, 215.34 153.5, 215.44 153.67, 215.53 153.83, 215.62 154.0, 215.71 154.17, 215.81 154.33, 215.9 154.5, 215.99 154.67, 216.07 154.83, 216.16 155.0, 216.25 155.17, 216.34 155.33, 216.42 155.5, 216.51 155.67, 216.59 155.83, 216.68 156.0, 216.76 156.17, 216.84 156.33, 216.93 156.5, 217.01 156.67, 217.09 156.83, 217.17 157.0, 217.24 157.17, 217.32 157.33, 217.4 157.5, 217.47 157.67, 217.55 157.83, 217.62 158.0, 217.7 158.17, 217.77 158.33, 217.84 158.5, 217.91 158.67, 217.98 158.83, 218.05 159.0, 218.11 159.17, 218.18 159.33, 218.24 159.5, 218.31 159.67, 218.37 159.83, 218.43 160.0, 218.5 160.17, 218.56 160.33, 218.61 160.5, 218.67 160.67, 218.73 160.83, 218.78 161.0, 218.84 161.17, 218.89 161.33, 218.95 161.5, 219.0 161.67, 219.05 161.83, 219.1 162.0, 219.14 162.17, 219.19 162.33, 219.24 162.5, 219.28 162.67, 219.32 162.83, 219.37 163.0, 219.41 163.17, 219.45 163.33, 219.49 163.5, 219.52 163.67, 219.56 163.83, 219.59 164.0, 219.63 164.17, 219.66 164.33, 219.69 164.5, 219.72 164.67, 219.75 164.83, 219.78 165.0, 219.8 165.17, 219.83 165.33, 219.85 165.5, 219.87 165.67, 219.9 165.83, 219.92 166.0, 219.93 166.17, 219.95 166.33, 219.97 166.5, 219.98 166.67, 220.0 166.83, 220.01 167.0, 220.02 167.17, 220.03 167.33, 220.04 167.5, 220.05 167.67, 220.05 167.83, 220.06 168.0, 220.06 168.17, 220.06 168.33, 220.06 168.5, 220.06 168.67, 220.06 168.83, 220.05 169.0, 220.05 169.17, 220.04 169.33, 220.04 169.5, 220.03 169.67, 220.02 169.83, 220.01 170.0, 219.99 170.17, 219.98 170.33, 219.96 170.5, 219.95 170.67, 219.93 170.83, 219.91 171.0, 219.89 171.17, 219.87 171.33, 219.84 171.5, 219.82 171.67, 219.79 171.83, 219.76 172.0, 219.74 172.17, 219.71 172.33, 219.67 172.5, 219.64 172.67, 219.61 172.83, 219.57 173.0, 219.54 173.17, 219.5 173.33, 219.46 173.5, 219.42 173.67, 219.38 173.83, 219.33 174.0, 219.29 174.17, 219.24 174.33, 219.19 174.5, 219.15 174.67, 219.1 174.83, 219.04 175.0, 218.99 175.17, 218.94 175.33, 218.88 175.5, 218.83 175.67, 218.77 175.83, 218.71 176.0, 218.65 176.17, 218.59 176.33, 218.53 176.5, 218.46 176.67, 218.4 176.83, 218.33 177.0, 218.26 177.17, 218.19 177.33, 218.12 177.5, 218.05 177.67, 217.98 177.83, 217.9 178.0, 217.83 178.17, 217.75 178.33, 217.67 178.5, 217.6 178.67, 217.52 178.83, 217.43 179.0, 217.35 179.17, 217.27 179.33, 217.18 179.5, 217.1 179.67, 217.01 179.83, 216.92 180.0, 216.83 180.17, 216.74 180.33, 216.65 180.5, 216.56 180.67, 216.46 180.83, 216.37 181.0, 216.27 181.17, 216.17 181.33, 216.07 181.5, 215.97 181.67, 215.87 181.83, 215.77 182.0, 215.67 182.17, 215.56 182.33, 215.46 182.5, 215.35 182.67, 215.24 182.83, 215.14 183.0, 215.03 183.17, 214.92 183.33, 214.8 183.5, 214.69 183.67, 214.58 183.83, 214.46 184.0, 214.35 184.17, 214.23 184.33, 214.11 184.5, 213.99 184.67, 213.88 184.83, 213.75 185.0, 213.63 185.17, 213.51 185.33, 213.39 185.5, 213.26 185.67, 213.14 185.83, 213.01 186.0, 212.88 186.17, 212.76 186.33, 212.63 186.5, 212.5 186.67, 212.37 186.83, 212.24 187.0, 212.1 187.17, 211.97 187.33, 211.84 187.5, 211.7 187.67, 211.57 187.83, 211.43 188.0, 211.29 188.17, 211.15 188.33, 211.02 188.5, 210.88 188.67, 210.74 188.83, 210.6 189.0, 210.45 189.17, 210.31 189.33, 210.17 189.5, 210.02 189.67, 209.88 189.83, 209.73 190.0, 209.59 190.17, 209.44 190.33, 209.29 190.5, 209.15 190.67, 209.0 190.83, 208.85 191.0, 208.7 191.17, 208.55 191.33, 208.4 191.5, 208.25 191.67, 208.09 191.83, 207.94 192.0, 207.79 192.17, 207.63 192.33, 207.48 192.5, 207.33 192.67, 207.17 192.83, 207.01 193.0, 206.86 193.17, 206.7 193.33, 206.54 193.5, 206.39 193.67, 206.23 193.83, 206.07 194.0, 205.91 194.17, 205.75 194.33, 205.59 194.5, 205.43 194.67, 205.27 194.83, 205.11 195.0, 204.95 195.17, 204.79 195.33, 204.62 195.5, 204.46 195.67, 204.3 195.83, 204.14 196.0, 203.97 196.17, 203.81 196.33, 203.65 196.5, 203.48 196.67, 203.32 196.83, 203.15 197.0, 202.99 197.17, 202.82 197.33, 202.66 197.5, 202.49 197.67, 202.33 197.83, 202.16 198.0, 202.0 198.17, 201.83 198.33, 201.66 198.5, 201.5 198.67, 201.33 198.83, 201.17 199.0, 201.0 199.17, 200.83 199.33, 200.67 199.5, 200.5 199.67, 200.33 199.83, 200.17 200.0, 200.0 200.17, 199.83 200.33, 199.67 200.5, 199.5 200.67, 199.33 200.83, 199.17 201.0, 199.0 201.17, 198.83 201.33, 198.67 201.5, 198.5 201.67, 198.34 201.83, 198.17 202.0, 198.0 202.17, 197.84 202.33, 197.67 202.5, 197.51 202.67, 197.34 202.83, 197.18 203.0, 197.01 203.17, 196.85 203.33, 196.68 203.5, 196.52 203.67, 196.35 203.83, 196.19 204.0, 196.03 204.17, 195.86 204.33, 195.7 204.5, 195.54 204.67, 195.38 204.83, 195.21 205.0, 195.05 205.17, 194.89 205.33, 194.73 205.5, 194.57 205.67, 194.41 205.83, 194.25 206.0, 194.09 206.17, 193.93 206.33, 193.77 206.5, 193.61 206.67, 193.46 206.83, 193.3 207.0, 193.14 207.17, 192.99 207.33, 192.83 207.5, 192.67 207.67, 192.52 207.83, 192.37 208.0, 192.21 208.17, 192.06 208.33, 191.91 208.5, 191.75 208.67, 191.6 208.83, 191.45 209.0, 191.3 209.17, 191.15 209.33, 191.0 209.5, 190.85 209.67, 190.71 209.83, 190.56 210.0, 190.41 210.17, 190.27 210.33, 190.12 210.5, 189.98 210.67, 189.83 210.83, 189.69 211.0, 189.55 211.17, 189.4 211.33, 189.26 211.5, 189.12 211.67, 188.98 211.83, 188.85 212.0, 188.71 212.17, 188.57 212.33, 188.43 212.5, 188.3 212.67, 188.16 212.83, 188.03 213.0, 187.9 213.17, 187.76 213.33, 187.63 213.5, 187.5 213.67, 187.37 213.83, 187.24 214.0, 187.12 214.17, 186.99 214.33, 186.86 214.5, 186.74 214.67, 186.61 214.83, 186.49 215.0, 186.37 215.17, 186.25 215.33, 186.12 215.5, 186.01 215.67, 185.89 215.83, 185.77 216.0, 185.65 216.17, 185.54 216.33, 185.42 216.5, 185.31 216.67, 185.2 216.83, 185.08 217.0, 184.97 217.17, 184.86 217.33, 184.76 217.5, 184.65 217.67, 184.54 217.83, 184.44 218.0, 184.33 218.17, 184.23 218.33, 184.13 218.5, 184.03 218.67, 183.93 218.83, 183.83 219.0, 183.73 219.17, 183.63 219.33, 183.54 219.5, 183.44 219.67, 183.35 219.83, 183.26 220.0, 183.17 220.17, 183.08 220.33, 182.99 220.5, 182.9 220.67, 182.82 220.83, 182.73 221.0, 182.65 221.17, 182.57 221.33, 182.48 221.5, 182.4 221.67, 182.33 221.83, 182.25 222.0, 182.17 222.17, 182.1 222.33, 182.02 222.5, 181.95 222.67, 181.88 222.83, 181.81 223.0, 181.74 223.17, 181.67 223.33, 181.6 223.5, 181.54 223.67, 181.47 223.83, 181.41 224.0, 181.35 224.17, 181.29 224.33, 181.23 224.5, 181.17 224.67, 181.12 224.83, 181.06 225.0, 181.01 225.17, 180.96 225.33, 180.9 225.5, 180.85 225.67, 180.81 225.83, 180.76 226.0, 180.71 226.17, 180.67 226.33, 180.62 226.5, 180.58 226.67, 180.54 226.83, 180.5 227.0, 180.46 227.17, 180.43 227.33, 180.39 227.5, 180.36 227.67, 180.33 227.83, 180.29 228.0, 180.26 228.17, 180.24 228.33, 180.21 228.5, 180.18 228.67, 180.16 228.83, 180.13 229.0, 180.11 229.17, 180.09 229.33, 180.07 229.5, 180.05 229.67, 180.04 229.83, 180.02 230.0, 180.01 230.17, 179.99 230.33, 179.98 230.5, 179.97 230.67, 179.96 230.83, 179.96 231.0, 179.95 231.17, 179.95 231.33, 179.94 231.5, 179.94 231.67, 179.94 231.83, 179.94 232.0, 179.94 232.17, 179.94 232.33, 179.95 232.5, 179.95 232.67, 179.96 232.83, 179.97 233.0, 179.98 233.17, 179.99 233.33, 180.0 233.5, 180.02 233.67, 180.03 233.83, 180.05 234.0, 180.07 234.17, 180.08 234.33, 180.1 234.5, 180.13 234.67, 180.15 234.83, 180.17 235.0, 180.2 235.17, 180.22 235.33, 180.25 235.5, 180.28 235.67, 180.31 235.83, 180.34 236.0, 180.37 236.17, 180.41 236.33, 180.44 236.5, 180.48 236.67, 180.51 236.83, 180.55 237.0, 180.59 237.17, 180.63 237.33, 180.68 237.5, 180.72 237.67, 180.76 237.83, 180.81 238.0, 180.86 238.17, 180.9 238.33, 180.95 238.5, 181.0 238.67, 181.05 238.83, 181.11 239.0, 181.16 239.17, 181.22 239.33, 181.27 239.5, 181.33 239.67, 181.39 239.83, 181.44 240.0, 181.5 240.17, 181.57 240.33, 181.63 240.5, 181.69 240.67, 181.76 240.83, 181.82 241.0, 181.89 241.17, 181.95 241.33, 182.02 241.5, 182.09 241.67, 182.16 241.83, 182.23 242.0, 182.3 242.17, 182.38 242.33, 182.45 242.5, 182.53 242.67, 182.6 242.83, 182.68 243.0, 182.76 243.17, 182.83 243.33, 182.91 243.5, 182.99 243.67, 183.07 243.83, 183.16 244.0, 183.24 244.17, 183.32 244.33, 183.41 244.5, 183.49 244.67, 183.58 244.83, 183.66 245.0, 183.75 245.17, 183.84 245.33, 183.93 245.5, 184.01 245.67, 184.1 245.83, 184.19 246.0, 184.29 246.17, 184.38 246.33, 184.47 246.5, 184.56 246.67, 184.66 246.83, 184.75 247.0, 184.84 247.17, 184.94 247.33, 185.04 247.5, 185.13 247.67, 185.23 247.83, 185.33 248.0, 185.42 248.17, 185.52 248.33, 185.62 248.5, 185.72 248.67, 185.82 248.83, 185.92 249.0, 186.02 249.17, 186.12 249.33, 186.22 249.5, 186.32 249.67, 186.42 249.83, 186.52 250.0, 186.62 250.17, 186.73 250.33, 186.83 250.5, 186.93 250.67, 187.03 250.83, 187.14 251.0, 187.24 251.17, 187.34 251.33, 187.45 251.5, 187.55 251.67, 187.65 251.83, 187.76 252.0, 187.86 252.17, 187.96 252.33, 188.07 252.5, 188.17 252.67, 188.27 252.83, 188.38 253.0, 188.48 253.17, 188.58 253.33, 188.69 253.5, 188.79 253.67, 188.89 253.83, 188.99 254.0, 189.1 254.17, 189.2 254.33, 189.3 254.5, 189.4 254.67, 189.5 254.83, 189.6 255.0, 189.7 255.17, 189.8 255.33, 189.9 255.5, 190.0 255.67, 190.1 255.83, 190.2 256.0, 190.3 256.17, 190.39 256.33, 190.49 256.5, 190.59 256.67, 190.68 256.83, 190.78 257.0, 190.87 257.17, 190.96 257.33, 191.06 257.5, 191.15 257.67, 191.24 257.83, 191.33 258.0, 191.42 258.17, 191.51 258.33, 191.6 258.5, 191.69 258.67, 191.77 258.83, 191.86 259.0, 191.94 259.17, 192.03 259.33, 192.11 259.5, 192.19 259.67, 192.27 259.83, 192.35 260.0, 192.43 260.17, 192.51 260.33, 192.58 260.5, 192.66 260.67, 192.73 260.83, 192.8 261.0, 192.87 261.17, 192.94 261.33, 193.01 261.5, 193.08 261.67, 193.15 261.83, 193.21 262.0, 193.27 262.17, 193.33 262.33, 193.39 262.5, 193.45 262.67, 193.51 262.83, 193.56 263.0, 193.62 263.17, 193.67 263.33, 193.72 263.5, 193.77 263.67, 193.82 263.83, 193.86 264.0, 193.9 264.17, 193.95 264.33, 193.99 264.5, 194.02 264.67, 194.06 264.83, 194.09 265.0, 194.12 265.17, 194.15 265.33, 194.18 265.5, 194.21 265.67, 194.23 265.83, 194.25 266.0, 194.27 266.17, 194.29 266.33, 194.3 266.5, 194.32 266.67, 194.33 266.83, 194.33 267.0, 194.34 267.17, 194.34 267.33, 194.34 267.5, 194.34 267.67, 194.34 267.83, 194.33 268.0, 194.32 268.17, 194.31 268.33, 194.3 268.5, 194.28 268.67, 194.26 268.83, 194.24 269.0, 194.21 269.17, 194.18 269.33, 194.15 269.5, 194.12 269.67, 194.08 269.83, 194.04 270.0, 194.0 270.17, 193.95 270.33, 193.9 270.5, 193.85 270.67, 193.8 270.83, 193.74 271.0, 193.68 271.17, 193.61 271.33, 193.54 271.5, 193.47 271.67, 193.4 271.83, 193.32 272.0, 193.24 272.17, 193.15 272.33, 193.07 272.5, 192.97 272.67, 192.88 272.83, 192.78 273.0, 192.68 273.17, 192.57 273.33, 192.46 273.5, 192.35 273.67, 192.23 273.83, 192.11 274.0, 191.98 274.17, 191.86 274.33, 191.72 274.5, 191.59 274.67, 191.45 274.83, 191.3 275.0, 191.15 275.17, 191.0 275.33, 190.84 275.5, 190.68 275.67, 190.52 275.83, 190.35 276.0, 190.17 276.17, 189.99 276.33, 189.81 276.5, 189.62 276.67, 189.43 276.83, 189.24 277.0, 189.04 277.17, 188.83 277.33, 188.62 277.5, 188.41 277.67, 188.19 277.83, 187.96 278.0, 187.74 278.17, 187.5 278.33, 187.26 278.5, 187.02 278.67, 186.77 278.83, 186.52 279.0, 186.26 279.17, 186.0 279.33, 185.73 279.5, 185.46 279.67, 185.18 279.83, 184.9 280.0, 184.61 280.17, 184.32 280.33, 184.02 280.5, 183.71 280.67, 183.4 280.83, 183.09 281.0, 182.77 281.17, 182.44 281.33, 182.11 281.5, 181.77 281.67, 181.43 281.83, 181.08 282.0, 180.73 282.17, 180.37 282.33, 180.0 282.5, 179.63 282.67, 179.25 282.83, 178.87 283.0, 178.48 283.17, 178.08 283.33, 177.68 283.5, 177.28 283.67, 176.86 283.83, 176.44 284.0, 176.02 284.17, 175.59 284.33, 175.15 284.5, 174.7 284.67, 174.25 284.83, 173.79 285.0, 173.33 285.17, 172.86 285.33, 172.39 285.5, 171.9 285.67, 171.41 285.83, 170.92 286.0, 170.41 286.17, 169.9 286.33, 169.39 286.5, 168.86 286.67, 168.34 286.83, 167.8 287.0, 167.25 287.17, 166.7 287.33, 166.15 287.5, 165.58 287.67, 165.01 287.83, 164.43 288.0, 163.85 288.17, 163.25 288.33, 162.65 288.5, 162.05 288.67, 161.43 288.83, 160.81 289.0, 160.18 289.17, 159.54 289.33, 158.9 289.5, 158.25 289.67, 157.59 289.83, 156.92 290.0, 156.25 290.17, 155.57 290.33, 154.88 290.5, 154.18 290.67, 153.47 290.83, 152.76 291.0, 152.04 291.17, 151.31 291.33, 150.58 291.5, 149.83 291.67, 149.08 291.83, 148.32 292.0, 147.55 292.17, 146.77 292.33, 145.99 292.5, 145.2 292.67, 144.39 292.83, 143.59 293.0, 142.77 293.17, 141.94 293.33, 141.11 293.5, 140.27 293.67, 139.41 293.83, 138.55 294.0, 137.69 294.17, 136.81 294.33, 135.92 294.5, 135.03 294.67, 134.13 294.83, 133.22 295.0, 132.3 295.17, 131.37 295.33, 130.43 295.5, 129.48 295.67, 128.53 295.83, 127.57 296.0, 126.59 296.17, 125.61 296.33, 124.62 296.5, 123.62 296.67, 122.61 296.83, 121.59 297.0, 120.56 297.17, 119.53 297.33, 118.48 297.5, 117.43 297.67, 116.36 297.83, 115.29 298.0, 114.2 298.17, 113.11 298.33, 112.01 298.5, 110.9 298.67, 109.78 298.83, 108.65 299.0, 107.51 299.17, 106.36 299.33, 105.2 299.5, 104.03 299.67, 102.85 299.83, 101.66 300.0, 100.47 300.17, 99.26 300.33, 98.04 300.5, 96.81 300.67, 95.57 300.83, 94.33 301.0, 93.07 301.17, 91.8 301.33, 90.53 301.5, 89.24 301.67, 87.94 301.83, 86.63 302.0, 85.32 302.17, 83.99 302.33, 82.65 302.5, 81.3 302.67, 79.95 302.83, 78.58 303.0, 77.2 303.17, 75.81 303.33, 74.41 303.5, 73.0 303.67, 71.58 303.83, 70.15 304.0, 68.71 304.17, 67.26 304.33, 65.79 304.5, 64.32 304.67, 62.84 304.83, 61.35 305.0, 59.84 305.17, 58.33 305.33, 56.8 305.5, 55.26 305.67, 53.72 305.83, 52.16 306.0, 50.59 306.17, 49.01 306.33, 47.42 306.5, 45.82 306.67, 44.21 306.83, 42.59 307.0, 40.95 307.17, 39.31 307.33, 37.66 307.5, 35.99 307.67, 34.31 307.83, 32.62 308.0, 30.93 308.17, 29.22 308.33, 27.49 308.5, 25.76 308.67, 24.02 308.83, 22.26 309.0, 20.5 309.17, 18.72 309.33, 16.94 309.5, 15.14 309.67, 13.33 309.83, 11.51 310.0, 9.67 310.17, 7.83 310.33, 5.98 310.5, 4.11 310.67, 2.23 310.83, 0.34 311.0, -1.56 311.17, -3.47 311.33, -5.39 311.5, -7.32 311.67, -9.27 311.83, -11.22 312.0, -13.19 312.17, -15.17 312.33, -17.16 312.5, -19.16 312.67, -21.18 312.83, -23.2 313.0, -25.24 313.17, -27.28 313.33, -29.34 313.5, -31.41 313.67, -33.5 313.83, -35.59 314.0, -37.69 314.17, -39.81 314.33, -41.94 314.5, -44.08 314.67, -46.23 314.83, -48.39 315.0, -50.56 315.17, -52.75 315.33, -54.94 315.5, -57.15 315.67, -59.37 315.83, -61.6 316.0, -63.84 316.17, -66.1 316.33, -68.36 316.5, -70.64 316.67, -72.93 316.83, -75.23 317.0, -77.54 317.17, -79.86 317.33, -82.19 317.5, -84.54 317.67, -86.89 317.83, -89.26 318.0, -91.64 318.17, -94.03 318.33, -96.44 318.5, -98.85 318.67, -101.27 318.83, -103.71 319.0, -106.16 319.17, -108.62 319.33, -111.09 319.5, -113.57 319.67, -116.06 319.83, -118.57 320.0, -121.09 320.17, -123.61 320.33, -126.15 320.5, -128.7 320.67, -131.26 320.83, -133.83 321.0, -136.42 321.17, -139.01 321.33, -141.62 321.5, -144.24 321.67, -146.86 321.83, -149.5 322.0, -152.15 322.17, -154.82 322.33, -157.49 322.5, -160.17 322.67, -162.87 322.83, -165.57 323.0, -168.29 323.17, -171.02 323.33, -173.75 323.5, -176.5 323.67, -179.26 323.83, -182.03 324.0, -184.82 324.17, -187.61 324.33, -190.41 324.5, -193.23 324.67, -196.05 324.83, -198.89 325.0, -201.73 325.17, -204.59 325.33, -207.46 325.5, -210.33 325.67, -213.22 325.83, -216.12 326.0, -219.03 326.17, -221.95 326.33, -224.88 326.5, -227.82 326.67, -230.77 326.83, -233.73 327.0, -236.7 327.17, -239.68 327.33, -242.67 327.5, -245.67 327.67, -248.68 327.83, -251.7 328.0, -254.73 328.17, -257.77 328.33, -260.82 328.5, -263.88 328.67, -266.95 328.83, -270.03 329.0, -273.12 329.17, -276.22 329.33, -279.33 329.5, -282.44 329.67, -285.57 329.83, -288.71 330.0, -291.85 330.17, -295.01 330.33, -298.17 330.5, -301.34 330.67, -304.53 330.83, -307.72 331.0, -310.92 331.17, -314.13 331.33, -317.34 331.5, -320.57 331.67, -323.8 331.83, -327.05 332.0, -330.3 332.17, -333.56 332.33, -336.83 332.5, -340.11 332.67, -343.39 332.83, -346.68 333.0, -349.99 333.17, -353.3 333.33, -356.61 333.5, -359.94 333.67, -363.27 333.83, -366.61 334.0, -369.96 334.17, -373.32 334.33, -376.68 334.5, -380.05 334.67, -383.43 334.83, -386.82 335.0, -390.21 335.17, -393.61 335.33, -397.02 335.5, -400.43 335.67, -403.85 335.83, -407.28 336.0, -410.72 336.17, -414.16 336.33, -417.6 336.5, -421.06 336.67, -424.52 336.83, -427.98 337.0, -431.46 337.17, -434.93 337.33, -438.42 337.5, -441.91 337.67, -445.4 337.83, -448.9 338.0, -452.41 338.17, -455.92 338.33, -459.44 338.5, -462.96 338.67, -466.49 338.83, -470.02 339.0, -473.56 339.17, -477.1 339.33, -480.64 339.5, -484.2 339.67, -487.75 339.83, -491.31 340.0, -494.87 340.17, -498.44 340.33, -502.01 340.5, -505.59 340.67, -509.17 340.83, -512.75 341.0, -516.34 341.17, -519.92 341.33, -523.52 341.5, -527.11 341.67, -530.71 341.83, -534.31 342.0, -537.92 342.17, -541.52 342.33, -545.13 342.5, -548.74 342.67, -552.35 342.83, -555.97 343.0, -559.59 343.17, -563.2 343.33, -566.82 343.5, -570.45 343.67, -574.07 343.83, -577.69 344.0, -581.32 344.17, -584.94 344.33, -588.57 344.5, -592.2 344.67, -595.82 344.83, -599.45 345.0, -603.08 345.17, -606.7 345.33, -610.33 345.5, -613.96 345.67, -617.58 345.83, -621.21 346.0, -624.83 346.17, -628.46 346.33, -632.08 346.5, -635.7 346.67, -639.32 346.83, -642.94 347.0, -646.55 347.17, -650.16 347.33, -653.78 347.5, -657.38 347.67, -660.99 347.83, -664.59 348.0, -668.19 348.17, -671.79 348.33, -675.38 348.5, -678.98 348.67, -682.56 348.83, -686.14 349.0, -689.72 349.17, -693.3 349.33, -696.87 349.5, -700.43 349.67, -703.99 349.83, -707.55 350.0, -711.1 350.17, -714.64 350.33, -718.18 350.5, -721.71 350.67, -725.24 350.83, -728.76 351.0, -732.28 351.17, -735.78 351.33, -739.28 351.5, -742.78 351.67, -746.26 351.83, -749.74 352.0, -753.21 352.17, -756.68 352.33, -760.13 352.5, -763.58 352.67, -767.01 352.83, -770.44 353.0, -773.86 353.17, -777.27 353.33, -780.67 353.5, -784.06 353.67, -787.44 353.83, -790.81 354.0, -794.17 354.17, -797.52 354.33, -800.86 354.5, -804.19 354.67, -807.5 354.83, -810.81 355.0, -814.1 355.17, -817.38 355.33, -820.65 355.5, -823.9 355.67, -827.14 355.83, -830.37 356.0, -833.59 356.17, -836.79 356.33, -839.97 356.5, -843.15 356.67, -846.3 356.83, -849.45 357.0, -852.58 357.17, -855.69 357.33, -858.79 357.5, -861.87 357.67, -864.93 357.83, -867.98 358.0, -871.01 358.17, -874.03 358.33, -877.02 358.5, -880.0 358.67, -882.97 358.83, -885.91 359.0, -888.83 359.17, -891.74 359.33, -894.63 359.5, -897.5 359.67, -900.34 359.83, -903.17 360.0, -905.98 360.17, -908.77 360.33, -911.53 360.5, -914.28 360.67, -917.0 360.83, -919.71 361.0, -922.39 361.17, -925.04 361.33, -927.68 361.5, -930.29 361.67, -932.88 361.83, -935.44 362.0, -937.98 362.17, -940.5 362.33, -942.99 362.5, -945.45 362.67, -947.89 362.83, -950.31 363.0, -952.7 363.17, -955.06 363.33, -957.39 363.5, -959.7 363.67, -961.98 363.83, -964.23 364.0, -966.46 364.17, -968.66 364.33, -970.82 364.5, -972.96 364.67, -975.07 364.83, -977.15 365.0, -979.19 365.17, -981.21 365.33, -983.2 365.5, -985.15 365.67, -987.07 365.83, -988.96 366.0, -990.82 366.17, -992.64 366.33, -994.43 366.5, -996.19 366.67, -997.91 366.83, -999.6 367.0, -1001.25 367.17, -1002.87 367.33, -1004.45 367.5, -1006.0 367.67, -1007.51 367.83, -1008.98 368.0, -1010.42 368.17, -1011.81 368.33, -1013.17 368.5, -1014.49 368.67, -1015.77 368.83, -1017.01 369.0, -1018.22 369.17, -1019.38 369.33, -1020.5 369.5, -1021.58 369.67, -1022.61 369.83, -1023.61 370.0, -1024.56 370.17, -1025.47 370.33, -1026.34 370.5, -1027.16 370.67, -1027.94 370.83, -1028.67 371.0, -1029.36 371.17, -1030.0 371.33, -1030.6 371.5, -1031.15 371.67, -1031.65 371.83, -1032.11 372.0, -1032.52 372.17, -1032.87 372.33, -1033.18 372.5, -1033.45 372.67, -1033.66 372.83, -1033.82 373.0, -1033.93 373.17, -1033.98 373.33, -1033.99 373.5, -1033.94 373.67, -1033.84 373.83, -1033.69 374.0, -1033.49 374.17, -1033.23 374.33, -1032.91 374.5, -1032.54 374.67, -1032.11 374.83, -1031.63 375.0, -1031.09 375.17, -1030.49 375.33, -1029.84 375.5, -1029.12 375.67, -1028.35 375.83, -1027.52 376.0, -1026.62 376.17, -1025.67 376.33, -1024.66 376.5, -1023.58 376.67, -1022.44 376.83, -1021.24 377.0, -1019.98 377.17, -1018.65 377.33, -1017.26 377.5, -1015.8 377.67, -1014.28 377.83, -1012.69 378.0, -1011.03 378.17, -1009.31 378.33, -1007.51 378.5, -1005.65 378.67, -1003.73 378.83, -1001.73 379.0, -999.66 379.17, -997.52 379.33, -995.31 379.5, -993.02 379.67, -990.67 379.83, -988.24 380.0, -985.74 380.17, -983.16 380.33, -980.51 380.5, -977.78 380.67, -974.98 380.83, -972.1 381.0, -969.14 381.17, -966.1 381.33, -962.99 381.5, -959.79 381.67, -956.52 381.83, -953.16 382.0, -949.73 382.17, -946.21 382.33, -942.61 382.5, -938.92 382.67, -935.15 382.83, -931.3 383.0, -927.36 383.17, -923.34 383.33, -919.23 383.5, -915.03 383.67, -910.74 383.83, -906.37 384.0, -901.91 384.17, -897.35 384.33, -892.71 384.5, -887.97 384.67, -883.14 384.83, -878.22 385.0, -873.21 385.17, -868.1 385.33, -862.9 385.5, -857.6 385.67, -852.2 385.83, -846.71 386.0, -841.12 386.17, -835.43 386.33, -829.65 386.5, -823.76 386.67, -817.77 386.83, -811.68 387.0, -805.49 387.17, -799.2 387.33, -792.8 387.5, -786.29 387.67, -779.69 387.83, -772.97 388.0, -766.15 388.17, -759.22 388.33, -752.19 388.5, -745.04 388.67, -737.79 388.83, -730.42 389.0, -722.95 389.17, -715.36 389.33, -707.65 389.5, -699.84 389.67, -691.91 389.83, -683.86 390.0, -675.7 390.17, -667.42 390.33, -659.03 390.5, -650.51 390.67, -641.87 390.83, -633.12 391.0, -624.24 391.17, -615.25 391.33, -606.12 391.5, -596.88 391.67, -587.51 391.83, -578.02 392.0, -568.4 392.17, -558.65 392.33, -548.77 392.5, -538.77 392.67, -528.64 392.83, -518.37 393.0, -507.98 393.17, -497.45 393.33, -486.79 393.5, -475.99 393.67, -465.06 393.83, -453.99 394.0, -442.79 394.17, -431.45 394.33, -419.97 394.5, -408.35 394.67, -396.59 394.83, -384.69 395.0, -372.65 395.17, -360.47 395.33, -348.14 395.5, -335.66 395.67, -323.04 395.83, -310.27 396.0, -297.36 396.17, -284.29 396.33, -271.08 396.5, -257.72 396.67, -244.2 396.83, -230.53 397.0, -216.71 397.17, -202.73 397.33, -188.6 397.5, -174.31 397.67, -159.86 397.83, -145.25 398.0, -130.49 398.17, -115.56 398.33, -100.47 398.5, -85.22 398.67, -69.81 398.83, -54.23 399.0, -38.48 399.17, -22.57 399.33, -6.49 399.5, 9.76 399.67, 26.17 399.83, 42.76 400.0, 59.52 " fill="none" stroke="white" stroke-width="1.5" stroke-linejoin="round" stroke-opacity="1"/>

 </svg>