<svg version="1.1" 
 baseProfile="full" 
 width="400" 
 height="400" 
 xmlns="http://www.w3.org/2000/svg">
<rect x="0.0" y="0.0" width="400" height="400" fill="black" stroke="black" stroke-width="0" opacity="1"/>
<line x1="0.0" y1="0.0" x2="0.0" y2="400.0" stroke="white" stroke-width="1" opacity="0.4" stroke-linecap="butt"/>
<line x1="40.0" y1="0.0" x2="40.0" y2="400.0" stroke="white" stroke-width="1" opacity="0.4" stroke-linecap="butt"/>
<line x1="80.0" y1="0.0" x2="80.0" y2="400.0" stroke="white" stroke-width="1" opacity="0.4" stroke-linecap="butt"/>
<line x1="120.0" y1="0.0" x2="120.0" y2="400.0" stroke="white" stroke-width="1" opacity="0.4" stroke-linecap="butt"/>
<line x1="160.0" y1="0.0" x2="160.0" y2="400.0" stroke="white" stroke-width="1" opacity="0.4" stroke-linecap="butt"/>
<line x1="200.0" y1="0.0" x2="200.0" y2="400.0" stroke="white" stroke-width="1" opacity="0.4" stroke-linecap="butt"/>
<line x1="240.0" y1="0.0" x2="240.0" y2="400.0" stroke="white" stroke-width="1" opacity="0.4" stroke-linecap="butt"/>
<line x1="280.0" y1="0.0" x2="280.0" y2="400.0" stroke="white" stroke-width="1" opacity="0.4" stroke-linecap="butt"/>
<line x1="320.0" y1="0.0" x2="320.0" y2="400.0" stroke="white" stroke-width="1" opacity="0.4" stroke-linecap="butt"/>
<line x1="360.0" y1="0.0" x2="360.0" y2="400.0" stroke="white" stroke-width="1" opacity="0.4" stroke-linecap="butt"/>
<line x1="0.0" y1="0.0" x2="400.0" y2="0.0" stroke="white" stroke-width="1" opacity="0.4" stroke-linecap="butt"/>
<line x1="0.0" y1="40.0" x2="400.0" y2="40.0" stroke="white" stroke-width="1" opacity="0.4" stroke-linecap="butt"/>
<line x1="0.0" y1="80.0" x2="400.0" y2="80.0" stroke="white" stroke-width="1" opacity="0.4" stroke-linecap="butt"/>
<line x1="0.0" y1="120.0" x2="400.0" y2="120.0" stroke="white" stroke-width="1" opacity="0.4" stroke-linecap="butt"/>
<line x1="0.0" y1="160.0" x2="400.0" y2="160.0" stroke="white" stroke-width="1" opacity="0.4" stroke-linecap="butt"/>
<line x1="0.0" y1="200.0" x2="400.0" y2="200.0" stroke="white" stroke-width="1" opacity="0.4" stroke-linecap="butt"/>
<line x1="0.0" y1="240.0" x2="400.0" y2="240.0" stroke="white" stroke-width="1" opacity="0.4" stroke-linecap="butt"/>
<line x1="0.0" y1="280.0" x2="400.0" y2="280.0" stroke="white" stroke-width="1" opacity="0.4" stroke-linecap="butt"/>
<line x1="0.0" y1="320.0" x2="400.0" y2="320.0" stroke="white" stroke-width="1" opacity="0.4" stroke-linecap="butt"/>
<line x1="0.0" y1="360.0" x2="400.0" y2="360.0" stroke="white" stroke-width="1" opacity="0.4" stroke-linecap="butt"/>
<line x1="0.0" y1="200.0" x2="400.0" y2="200.0" stroke="yellow" stroke-width="2.5" opacity="1" stroke-linecap="butt"/>
<line x1="200.0" y1="0.0" x2="200.0" y2="400.0" stroke="yellow" stroke-width="2.5" opacity="1" stroke-linecap="butt"/>
<polygon points="391.0 204.0, 401.0 200.0, 391.0 196.0, 393.0 200.0" fill="yellow"/><polygon points="204.0 9.0, 200.0 -1.0, 196.0 9.0, 200.0 7.0" fill="yellow"/><image x="-60.0" y="-60.0" width="200" height="200" href="/Users/girirajhira/PycharmProjects/Giraphics3/Taylor/expr.png"/><polyline points="0.0, -3131.75 0.17, -3094.78 0.33, -3058.09 0.5, -3021.67 0.67, -2985.52 0.83, -2949.63 1.0, -2914.02 1.17, -2878.67 1.33, -2843.58 1.5, -2808.76 1.67, -2774.2 1.83, -2739.9 2.0, -2705.85 2.17, -2672.06 2.33, -2638.53 2.5, -2605.26 2.67, -2572.23 2.83, -2539.46 3.0, -2506.93 3.17, -2474.66 3.33, -2442.63 3.5, -2410.85 3.67, -2379.31 3.83, -2348.02 4.0, -2316.97 4.17, -2286.15 4.33, -2255.58 4.5, -2225.25 4.67, -2195.15 4.83, -2165.28 5.0, -2135.65 5.17, -2106.25 5.33, -2077.09 5.5, -2048.15 5.67, -2019.44 5.83, -1990.96 6.0, -1962.7 6.17, -1934.67 6.33, -1906.87 6.5, -1879.28 6.67, -1851.92 6.83, -1824.77 7.0, -1797.84 7.17, -1771.13 7.33, -1744.64 7.5, -1718.36 7.67, -1692.29 7.83, -1666.44 8.0, -1640.8 8.17, -1615.36 8.33, -1590.14 8.5, -1565.12 8.67, -1540.31 8.83, -1515.7 9.0, -1491.3 9.17, -1467.09 9.33, -1443.09 9.5, -1419.29 9.67, -1395.69 9.83, -1372.29 10.0, -1349.08 10.17, -1326.07 10.33, -1303.25 10.5, -1280.63 10.67, -1258.19 10.83, -1235.95 11.0, -1213.9 11.17, -1192.04 11.33, -1170.36 11.5, -1148.87 11.67, -1127.57 11.83, -1106.44 12.0, -1085.51 12.17, -1064.75 12.33, -1044.17 12.5, -1023.78 12.67, -1003.56 12.83, -983.52 13.0, -963.66 13.17, -943.97 13.33, -924.45 13.5, -905.11 13.67, -885.94 13.83, -866.94 14.0, -848.12 14.17, -829.46 14.33, -810.97 14.5, -792.64 14.67, -774.48 14.83, -756.49 15.0, -738.66 15.17, -720.99 15.33, -703.49 15.5, -686.14 15.67, -668.96 15.83, -651.93 16.0, -635.06 16.17, -618.35 16.33, -601.79 16.5, -585.39 16.67, -569.14 16.83, -553.05 17.0, -537.11 17.17, -521.31 17.33, -505.67 17.5, -490.18 17.67, -474.83 17.83, -459.64 18.0, -444.58 18.17, -429.68 18.33, -414.91 18.5, -400.29 18.67, -385.82 18.83, -371.48 19.0, -357.29 19.17, -343.23 19.33, -329.31 19.5, -315.53 19.67, -301.89 19.83, -288.39 20.0, -275.02 20.17, -261.78 20.33, -248.67 20.5, -235.7 20.67, -222.86 20.83, -210.16 21.0, -197.58 21.17, -185.13 21.33, -172.8 21.5, -160.61 21.67, -148.54 21.83, -136.6 22.0, -124.78 22.17, -113.09 22.33, -101.52 22.5, -90.07 22.67, -78.74 22.83, -67.53 23.0, -56.44 23.17, -45.48 23.33, -34.62 23.5, -23.89 23.67, -13.28 23.83, -2.77 24.0, 7.61 24.17, 17.88 24.33, 28.04 24.5, 38.09 24.67, 48.02 24.83, 57.85 25.0, 67.56 25.17, 77.17 25.33, 86.66 25.5, 96.05 25.67, 105.33 25.83, 114.5 26.0, 123.57 26.17, 132.54 26.33, 141.4 26.5, 150.15 26.67, 158.81 26.83, 167.36 27.0, 175.81 27.17, 184.16 27.33, 192.41 27.5, 200.56 27.67, 208.62 27.83, 216.57 28.0, 224.43 28.17, 232.2 28.33, 239.86 28.5, 247.44 28.67, 254.92 28.83, 262.3 29.0, 269.6 29.17, 276.8 29.33, 283.91 29.5, 290.93 29.67, 297.86 29.83, 304.7 30.0, 311.45 30.17, 318.11 30.33, 324.69 30.5, 331.18 30.67, 337.58 30.83, 343.9 31.0, 350.13 31.17, 356.28 31.33, 362.35 31.5, 368.33 31.67, 374.24 31.83, 380.06 32.0, 385.8 32.17, 391.46 32.33, 397.04 32.5, 402.54 32.67, 407.96 32.83, 413.31 33.0, 418.57 33.17, 423.76 33.33, 428.88 33.5, 433.92 33.67, 438.89 33.83, 443.78 34.0, 448.59 34.17, 453.34 34.33, 458.01 34.5, 462.61 34.67, 467.14 34.83, 471.6 35.0, 475.99 35.17, 480.31 35.33, 484.56 35.5, 488.74 35.67, 492.86 35.83, 496.9 36.0, 500.88 36.17, 504.8 36.33, 508.65 36.5, 512.43 36.67, 516.15 36.83, 519.81 37.0, 523.4 37.17, 526.93 37.33, 530.39 37.5, 533.8 37.67, 537.14 37.83, 540.43 38.0, 543.65 38.17, 546.81 38.33, 549.91 38.5, 552.96 38.67, 555.95 38.83, 558.87 39.0, 561.75 39.17, 564.56 39.33, 567.32 39.5, 570.02 39.67, 572.67 39.83, 575.26 40.0, 577.8 40.17, 580.29 40.33, 582.72 40.5, 585.1 40.67, 587.43 40.83, 589.7 41.0, 591.92 41.17, 594.1 41.33, 596.22 41.5, 598.29 41.67, 600.31 41.83, 602.28 42.0, 604.21 42.17, 606.09 42.33, 607.91 42.5, 609.7 42.67, 611.43 42.83, 613.12 43.0, 614.76 43.17, 616.36 43.33, 617.91 43.5, 619.41 43.67, 620.88 43.83, 622.3 44.0, 623.67 44.17, 625.0 44.33, 626.29 44.5, 627.54 44.67, 628.74 44.83, 629.91 45.0, 631.03 45.17, 632.11 45.33, 633.16 45.5, 634.16 45.67, 635.12 45.83, 636.05 46.0, 636.93 46.17, 637.78 46.33, 638.59 46.5, 639.36 46.67, 640.1 46.83, 640.8 47.0, 641.46 47.17, 642.09 47.33, 642.68 47.5, 643.24 47.67, 643.76 47.83, 644.25 48.0, 644.7 48.17, 645.12 48.33, 645.5 48.5, 645.86 48.67, 646.18 48.83, 646.47 49.0, 646.72 49.17, 646.95 49.33, 647.14 49.5, 647.3 49.67, 647.44 49.83, 647.54 50.0, 647.61 50.17, 647.65 50.33, 647.67 50.5, 647.65 50.67, 647.61 50.83, 647.54 51.0, 647.44 51.17, 647.31 51.33, 647.16 51.5, 646.98 51.67, 646.77 51.83, 646.53 52.0, 646.27 52.17, 645.99 52.33, 645.68 52.5, 645.34 52.67, 644.98 52.83, 644.6 53.0, 644.19 53.17, 643.75 53.33, 643.3 53.5, 642.82 53.67, 642.32 53.83, 641.79 54.0, 641.24 54.17, 640.67 54.33, 640.08 54.5, 639.47 54.67, 638.84 54.83, 638.18 55.0, 637.5 55.17, 636.81 55.33, 636.09 55.5, 635.36 55.67, 634.6 55.83, 633.83 56.0, 633.03 56.17, 632.22 56.33, 631.39 56.5, 630.54 56.67, 629.67 56.83, 628.79 57.0, 627.88 57.17, 626.96 57.33, 626.03 57.5, 625.07 57.67, 624.1 57.83, 623.12 58.0, 622.11 58.17, 621.09 58.33, 620.06 58.5, 619.01 58.67, 617.95 58.83, 616.87 59.0, 615.78 59.17, 614.67 59.33, 613.55 59.5, 612.41 59.67, 611.26 59.83, 610.1 60.0, 608.92 60.17, 607.73 60.33, 606.53 60.5, 605.32 60.67, 604.09 60.83, 602.85 61.0, 601.6 61.17, 600.34 61.33, 599.06 61.5, 597.78 61.67, 596.48 61.83, 595.17 62.0, 593.86 62.17, 592.53 62.33, 591.19 62.5, 589.84 62.67, 588.48 62.83, 587.11 63.0, 585.73 63.17, 584.35 63.33, 582.95 63.5, 581.55 63.67, 580.13 63.83, 578.71 64.0, 577.28 64.17, 575.84 64.33, 574.39 64.5, 572.94 64.67, 571.48 64.83, 570.01 65.0, 568.53 65.17, 567.04 65.33, 565.55 65.5, 564.05 65.67, 562.55 65.83, 561.04 66.0, 559.52 66.17, 558.0 66.33, 556.47 66.5, 554.93 66.67, 553.39 66.83, 551.85 67.0, 550.3 67.17, 548.74 67.33, 547.18 67.5, 545.61 67.67, 544.04 67.83, 542.46 68.0, 540.88 68.17, 539.3 68.33, 537.71 68.5, 536.12 68.67, 534.52 68.83, 532.92 69.0, 531.32 69.17, 529.71 69.33, 528.1 69.5, 526.49 69.67, 524.88 69.83, 523.26 70.0, 521.64 70.17, 520.01 70.33, 518.39 70.5, 516.76 70.67, 515.13 70.83, 513.5 71.0, 511.86 71.17, 510.22 71.33, 508.59 71.5, 506.95 71.67, 505.31 71.83, 503.67 72.0, 502.02 72.17, 500.38 72.33, 498.73 72.5, 497.09 72.67, 495.44 72.83, 493.79 73.0, 492.15 73.17, 490.5 73.33, 488.85 73.5, 487.2 73.67, 485.55 73.83, 483.91 74.0, 482.26 74.17, 480.61 74.33, 478.96 74.5, 477.32 74.67, 475.67 74.83, 474.03 75.0, 472.38 75.17, 470.74 75.33, 469.1 75.5, 467.45 75.67, 465.81 75.83, 464.18 76.0, 462.54 76.17, 460.9 76.33, 459.27 76.5, 457.64 76.67, 456.0 76.83, 454.38 77.0, 452.75 77.17, 451.12 77.33, 449.5 77.5, 447.88 77.67, 446.26 77.83, 444.64 78.0, 443.03 78.17, 441.42 78.33, 439.81 78.5, 438.21 78.67, 436.6 78.83, 435.0 79.0, 433.4 79.17, 431.81 79.33, 430.22 79.5, 428.63 79.67, 427.05 79.83, 425.46 80.0, 423.89 80.17, 422.31 80.33, 420.74 80.5, 419.17 80.67, 417.61 80.83, 416.05 81.0, 414.49 81.17, 412.94 81.33, 411.39 81.5, 409.84 81.67, 408.3 81.83, 406.76 82.0, 405.23 82.17, 403.7 82.33, 402.18 82.5, 400.66 82.67, 399.14 82.83, 397.63 83.0, 396.12 83.17, 394.62 83.33, 393.12 83.5, 391.63 83.67, 390.14 83.83, 388.66 84.0, 387.18 84.17, 385.7 84.33, 384.23 84.5, 382.77 84.67, 381.31 84.83, 379.85 85.0, 378.4 85.17, 376.96 85.33, 375.52 85.5, 374.09 85.67, 372.66 85.83, 371.23 86.0, 369.82 86.17, 368.4 86.33, 366.99 86.5, 365.59 86.67, 364.2 86.83, 362.8 87.0, 361.42 87.17, 360.04 87.33, 358.66 87.5, 357.3 87.67, 355.93 87.83, 354.58 88.0, 353.22 88.17, 351.88 88.33, 350.54 88.5, 349.2 88.67, 347.88 88.83, 346.55 89.0, 345.24 89.17, 343.93 89.33, 342.62 89.5, 341.32 89.67, 340.03 89.83, 338.74 90.0, 337.46 90.17, 336.19 90.33, 334.92 90.5, 333.66 90.67, 332.4 90.83, 331.15 91.0, 329.91 91.17, 328.67 91.33, 327.44 91.5, 326.22 91.67, 325.0 91.83, 323.79 92.0, 322.58 92.17, 321.39 92.33, 320.19 92.5, 319.01 92.67, 317.83 92.83, 316.65 93.0, 315.49 93.17, 314.33 93.33, 313.17 93.5, 312.02 93.67, 310.88 93.83, 309.75 94.0, 308.62 94.17, 307.5 94.33, 306.38 94.5, 305.27 94.67, 304.17 94.83, 303.08 95.0, 301.99 95.17, 300.91 95.33, 299.83 95.5, 298.76 95.67, 297.7 95.83, 296.64 96.0, 295.59 96.17, 294.55 96.33, 293.52 96.5, 292.49 96.67, 291.46 96.83, 290.45 97.0, 289.44 97.17, 288.44 97.33, 287.44 97.5, 286.45 97.67, 285.47 97.83, 284.49 98.0, 283.52 98.17, 282.56 98.33, 281.6 98.5, 280.65 98.67, 279.71 98.83, 278.78 99.0, 277.85 99.17, 276.92 99.33, 276.01 99.5, 275.1 99.67, 274.19 99.83, 273.3 100.0, 272.41 100.17, 271.53 100.33, 270.65 100.5, 269.78 100.67, 268.92 100.83, 268.06 101.0, 267.21 101.17, 266.37 101.33, 265.53 101.5, 264.7 101.67, 263.87 101.83, 263.06 102.0, 262.25 102.17, 261.44 102.33, 260.64 102.5, 259.85 102.67, 259.07 102.83, 258.29 103.0, 257.52 103.17, 256.75 103.33, 255.99 103.5, 255.24 103.67, 254.5 103.83, 253.76 104.0, 253.02 104.17, 252.3 104.33, 251.58 104.5, 250.86 104.67, 250.16 104.83, 249.45 105.0, 248.76 105.17, 248.07 105.33, 247.39 105.5, 246.71 105.67, 246.04 105.83, 245.38 106.0, 244.72 106.17, 244.07 106.33, 243.43 106.5, 242.79 106.67, 242.16 106.83, 241.53 107.0, 240.91 107.17, 240.3 107.33, 239.69 107.5, 239.09 107.67, 238.49 107.83, 237.9 108.0, 237.32 108.17, 236.74 108.33, 236.17 108.5, 235.6 108.67, 235.04 108.83, 234.49 109.0, 233.94 109.17, 233.4 109.33, 232.86 109.5, 232.33 109.67, 231.81 109.83, 231.29 110.0, 230.78 110.17, 230.27 110.33, 229.77 110.5, 229.27 110.67, 228.78 110.83, 228.3 111.0, 227.82 111.17, 227.35 111.33, 226.88 111.5, 226.42 111.67, 225.96 111.83, 225.51 112.0, 225.07 112.17, 224.63 112.33, 224.19 112.5, 223.76 112.67, 223.34 112.83, 222.92 113.0, 222.51 113.17, 222.1 113.33, 221.7 113.5, 221.31 113.67, 220.91 113.83, 220.53 114.0, 220.15 114.17, 219.77 114.33, 219.4 114.5, 219.04 114.67, 218.68 114.83, 218.32 115.0, 217.97 115.17, 217.63 115.33, 217.29 115.5, 216.95 115.67, 216.62 115.83, 216.3 116.0, 215.98 116.17, 215.66 116.33, 215.35 116.5, 215.05 116.67, 214.75 116.83, 214.45 117.0, 214.16 117.17, 213.87 117.33, 213.59 117.5, 213.31 117.67, 213.04 117.83, 212.77 118.0, 212.51 118.17, 212.25 118.33, 212.0 118.5, 211.75 118.67, 211.5 118.83, 211.26 119.0, 211.03 119.17, 210.8 119.33, 210.57 119.5, 210.35 119.67, 210.13 119.83, 209.91 120.0, 209.7 120.17, 209.5 120.33, 209.29 120.5, 209.1 120.67, 208.9 120.83, 208.71 121.0, 208.53 121.17, 208.35 121.33, 208.17 121.5, 208.0 121.67, 207.83 121.83, 207.66 122.0, 207.5 122.17, 207.34 122.33, 207.19 122.5, 207.04 122.67, 206.89 122.83, 206.75 123.0, 206.61 123.17, 206.48 123.33, 206.34 123.5, 206.22 123.67, 206.09 123.83, 205.97 124.0, 205.86 124.17, 205.74 124.33, 205.63 124.5, 205.53 124.67, 205.42 124.83, 205.32 125.0, 205.23 125.17, 205.13 125.33, 205.04 125.5, 204.96 125.67, 204.88 125.83, 204.8 126.0, 204.72 126.17, 204.65 126.33, 204.58 126.5, 204.51 126.67, 204.45 126.83, 204.38 127.0, 204.33 127.17, 204.27 127.33, 204.22 127.5, 204.17 127.67, 204.12 127.83, 204.08 128.0, 204.04 128.17, 204.0 128.33, 203.97 128.5, 203.94 128.67, 203.91 128.83, 203.88 129.0, 203.86 129.17, 203.84 129.33, 203.82 129.5, 203.8 129.67, 203.79 129.83, 203.78 130.0, 203.77 130.17, 203.76 130.33, 203.76 130.5, 203.76 130.67, 203.76 130.83, 203.76 131.0, 203.77 131.17, 203.78 131.33, 203.79 131.5, 203.8 131.67, 203.82 131.83, 203.83 132.0, 203.85 132.17, 203.88 132.33, 203.9 132.5, 203.93 132.67, 203.95 132.83, 203.98 133.0, 204.02 133.17, 204.05 133.33, 204.09 133.5, 204.12 133.67, 204.16 133.83, 204.2 134.0, 204.25 134.17, 204.29 134.33, 204.34 134.5, 204.39 134.67, 204.44 134.83, 204.49 135.0, 204.55 135.17, 204.6 135.33, 204.66 135.5, 204.72 135.67, 204.78 135.83, 204.84 136.0, 204.9 136.17, 204.97 136.33, 205.03 136.5, 205.1 136.67, 205.17 136.83, 205.24 137.0, 205.31 137.17, 205.39 137.33, 205.46 137.5, 205.54 137.67, 205.61 137.83, 205.69 138.0, 205.77 138.17, 205.85 138.33, 205.93 138.5, 206.02 138.67, 206.1 138.83, 206.19 139.0, 206.27 139.17, 206.36 139.33, 206.45 139.5, 206.54 139.67, 206.63 139.83, 206.72 140.0, 206.81 140.17, 206.9 140.33, 207.0 140.5, 207.09 140.67, 207.19 140.83, 207.28 141.0, 207.38 141.17, 207.48 141.33, 207.58 141.5, 207.68 141.67, 207.78 141.83, 207.88 142.0, 207.98 142.17, 208.08 142.33, 208.18 142.5, 208.29 142.67, 208.39 142.83, 208.49 143.0, 208.6 143.17, 208.7 143.33, 208.81 143.5, 208.91 143.67, 209.02 143.83, 209.13 144.0, 209.24 144.17, 209.34 144.33, 209.45 144.5, 209.56 144.67, 209.67 144.83, 209.78 145.0, 209.88 145.17, 209.99 145.33, 210.1 145.5, 210.21 145.67, 210.32 145.83, 210.43 146.0, 210.54 146.17, 210.65 146.33, 210.76 146.5, 210.87 146.67, 210.98 146.83, 211.09 147.0, 211.2 147.17, 211.31 147.33, 211.42 147.5, 211.53 147.67, 211.64 147.83, 211.75 148.0, 211.86 148.17, 211.97 148.33, 212.08 148.5, 212.19 148.67, 212.3 148.83, 212.41 149.0, 212.52 149.17, 212.62 149.33, 212.73 149.5, 212.84 149.67, 212.95 149.83, 213.06 150.0, 213.16 150.17, 213.27 150.33, 213.38 150.5, 213.48 150.67, 213.59 150.83, 213.69 151.0, 213.8 151.17, 213.9 151.33, 214.01 151.5, 214.11 151.67, 214.21 151.83, 214.32 152.0, 214.42 152.17, 214.52 152.33, 214.62 152.5, 214.72 152.67, 214.82 152.83, 214.92 153.0, 215.02 153.17, 215.12 153.33, 215.21 153.5, 215.31 153.67, 215.41 153.83, 215.5 154.0, 215.6 154.17, 215.69 154.33, 215.78 154.5, 215.88 154.67, 215.97 154.83, 216.06 155.0, 216.15 155.17, 216.24 155.33, 216.33 155.5, 216.42 155.67, 216.5 155.83, 216.59 156.0, 216.68 156.17, 216.76 156.33, 216.84 156.5, 216.93 156.67, 217.01 156.83, 217.09 157.0, 217.17 157.17, 217.25 157.33, 217.33 157.5, 217.41 157.67, 217.48 157.83, 217.56 158.0, 217.63 158.17, 217.71 158.33, 217.78 158.5, 217.85 158.67, 217.92 158.83, 217.99 159.0, 218.06 159.17, 218.13 159.33, 218.19 159.5, 218.26 159.67, 218.32 159.83, 218.39 160.0, 218.45 160.17, 218.51 160.33, 218.57 160.5, 218.63 160.67, 218.69 160.83, 218.75 161.0, 218.8 161.17, 218.86 161.33, 218.91 161.5, 218.96 161.67, 219.01 161.83, 219.06 162.0, 219.11 162.17, 219.16 162.33, 219.21 162.5, 219.25 162.67, 219.3 162.83, 219.34 163.0, 219.38 163.17, 219.42 163.33, 219.46 163.5, 219.5 163.67, 219.54 163.83, 219.57 164.0, 219.61 164.17, 219.64 164.33, 219.67 164.5, 219.7 164.67, 219.73 164.83, 219.76 165.0, 219.79 165.17, 219.81 165.33, 219.84 165.5, 219.86 165.67, 219.88 165.83, 219.9 166.0, 219.92 166.17, 219.94 166.33, 219.96 166.5, 219.97 166.67, 219.98 166.83, 220.0 167.0, 220.01 167.17, 220.02 167.33, 220.03 167.5, 220.03 167.67, 220.04 167.83, 220.05 168.0, 220.05 168.17, 220.05 168.33, 220.05 168.5, 220.05 168.67, 220.05 168.83, 220.05 169.0, 220.04 169.17, 220.04 169.33, 220.03 169.5, 220.02 169.67, 220.01 169.83, 220.0 170.0, 219.99 170.17, 219.97 170.33, 219.96 170.5, 219.94 170.67, 219.92 170.83, 219.9 171.0, 219.88 171.17, 219.86 171.33, 219.84 171.5, 219.81 171.67, 219.79 171.83, 219.76 172.0, 219.73 172.17, 219.7 172.33, 219.67 172.5, 219.64 172.67, 219.6 172.83, 219.57 173.0, 219.53 173.17, 219.49 173.33, 219.46 173.5, 219.41 173.67, 219.37 173.83, 219.33 174.0, 219.28 174.17, 219.24 174.33, 219.19 174.5, 219.14 174.67, 219.09 174.83, 219.04 175.0, 218.99 175.17, 218.94 175.33, 218.88 175.5, 218.83 175.67, 218.77 175.83, 218.71 176.0, 218.65 176.17, 218.59 176.33, 218.52 176.5, 218.46 176.67, 218.4 176.83, 218.33 177.0, 218.26 177.17, 218.19 177.33, 218.12 177.5, 218.05 177.67, 217.98 177.83, 217.9 178.0, 217.83 178.17, 217.75 178.33, 217.67 178.5, 217.6 178.67, 217.52 178.83, 217.43 179.0, 217.35 179.17, 217.27 179.33, 217.18 179.5, 217.1 179.67, 217.01 179.83, 216.92 180.0, 216.83 180.17, 216.74 180.33, 216.65 180.5, 216.56 180.67, 216.46 180.83, 216.37 181.0, 216.27 181.17, 216.17 181.33, 216.07 181.5, 215.97 181.67, 215.87 181.83, 215.77 182.0, 215.67 182.17, 215.56 182.33, 215.46 182.5, 215.35 182.67, 215.24 182.83, 215.14 183.0, 215.03 183.17, 214.92 183.33, 214.8 183.5, 214.69 183.67, 214.58 183.83, 214.46 184.0, 214.35 184.17, 214.23 184.33, 214.11 184.5, 213.99 184.67, 213.88 184.83, 213.75 185.0, 213.63 185.17, 213.51 185.33, 213.39 185.5, 213.26 185.67, 213.14 185.83, 213.01 186.0, 212.88 186.17, 212.76 186.33, 212.63 186.5, 212.5 186.67, 212.37 186.83, 212.24 187.0, 212.1 187.17, 211.97 187.33, 211.84 187.5, 211.7 187.67, 211.57 187.83, 211.43 188.0, 211.29 188.17, 211.15 188.33, 211.02 188.5, 210.88 188.67, 210.74 188.83, 210.6 189.0, 210.45 189.17, 210.31 189.33, 210.17 189.5, 210.02 189.67, 209.88 189.83, 209.73 190.0, 209.59 190.17, 209.44 190.33, 209.29 190.5, 209.15 190.67, 209.0 190.83, 208.85 191.0, 208.7 191.17, 208.55 191.33, 208.4 191.5, 208.25 191.67, 208.09 191.83, 207.94 192.0, 207.79 192.17, 207.63 192.33, 207.48 192.5, 207.33 192.67, 207.17 192.83, 207.01 193.0, 206.86 193.17, 206.7 193.33, 206.54 193.5, 206.39 193.67, 206.23 193.83, 206.07 194.0, 205.91 194.17, 205.75 194.33, 205.59 194.5, 205.43 194.67, 205.27 194.83, 205.11 195.0, 204.95 195.17, 204.79 195.33, 204.62 195.5, 204.46 195.67, 204.3 195.83, 204.14 196.0, 203.97 196.17, 203.81 196.33, 203.65 196.5, 203.48 196.67, 203.32 196.83, 203.15 197.0, 202.99 197.17, 202.82 197.33, 202.66 197.5, 202.49 197.67, 202.33 197.83, 202.16 198.0, 202.0 198.17, 201.83 198.33, 201.66 198.5, 201.5 198.67, 201.33 198.83, 201.17 199.0, 201.0 199.17, 200.83 199.33, 200.67 199.5, 200.5 199.67, 200.33 199.83, 200.17 200.0, 200.0 200.17, 199.83 200.33, 199.67 200.5, 199.5 200.67, 199.33 200.83, 199.17 201.0, 199.0 201.17, 198.83 201.33, 198.67 201.5, 198.5 201.67, 198.34 201.83, 198.17 202.0, 198.0 202.17, 197.84 202.33, 197.67 202.5, 197.51 202.67, 197.34 202.83, 197.18 203.0, 197.01 203.17, 196.85 203.33, 196.68 203.5, 196.52 203.67, 196.35 203.83, 196.19 204.0, 196.03 204.17, 195.86 204.33, 195.7 204.5, 195.54 204.67, 195.38 204.83, 195.21 205.0, 195.05 205.17, 194.89 205.33, 194.73 205.5, 194.57 205.67, 194.41 205.83, 194.25 206.0, 194.09 206.17, 193.93 206.33, 193.77 206.5, 193.61 206.67, 193.46 206.83, 193.3 207.0, 193.14 207.17, 192.99 207.33, 192.83 207.5, 192.67 207.67, 192.52 207.83, 192.37 208.0, 192.21 208.17, 192.06 208.33, 191.91 208.5, 191.75 208.67, 191.6 208.83, 191.45 209.0, 191.3 209.17, 191.15 209.33, 191.0 209.5, 190.85 209.67, 190.71 209.83, 190.56 210.0, 190.41 210.17, 190.27 210.33, 190.12 210.5, 189.98 210.67, 189.83 210.83, 189.69 211.0, 189.55 211.17, 189.4 211.33, 189.26 211.5, 189.12 211.67, 188.98 211.83, 188.85 212.0, 188.71 212.17, 188.57 212.33, 188.43 212.5, 188.3 212.67, 188.16 212.83, 188.03 213.0, 187.9 213.17, 187.76 213.33, 187.63 213.5, 187.5 213.67, 187.37 213.83, 187.24 214.0, 187.12 214.17, 186.99 214.33, 186.86 214.5, 186.74 214.67, 186.61 214.83, 186.49 215.0, 186.37 215.17, 186.25 215.33, 186.12 215.5, 186.01 215.67, 185.89 215.83, 185.77 216.0, 185.65 216.17, 185.54 216.33, 185.42 216.5, 185.31 216.67, 185.2 216.83, 185.08 217.0, 184.97 217.17, 184.86 217.33, 184.76 217.5, 184.65 217.67, 184.54 217.83, 184.44 218.0, 184.33 218.17, 184.23 218.33, 184.13 218.5, 184.03 218.67, 183.93 218.83, 183.83 219.0, 183.73 219.17, 183.63 219.33, 183.54 219.5, 183.44 219.67, 183.35 219.83, 183.26 220.0, 183.17 220.17, 183.08 220.33, 182.99 220.5, 182.9 220.67, 182.82 220.83, 182.73 221.0, 182.65 221.17, 182.57 221.33, 182.48 221.5, 182.4 221.67, 182.33 221.83, 182.25 222.0, 182.17 222.17, 182.1 222.33, 182.02 222.5, 181.95 222.67, 181.88 222.83, 181.81 223.0, 181.74 223.17, 181.67 223.33, 181.6 223.5, 181.54 223.67, 181.48 223.83, 181.41 224.0, 181.35 224.17, 181.29 224.33, 181.23 224.5, 181.17 224.67, 181.12 224.83, 181.06 225.0, 181.01 225.17, 180.96 225.33, 180.91 225.5, 180.86 225.67, 180.81 225.83, 180.76 226.0, 180.72 226.17, 180.67 226.33, 180.63 226.5, 180.59 226.67, 180.54 226.83, 180.51 227.0, 180.47 227.17, 180.43 227.33, 180.4 227.5, 180.36 227.67, 180.33 227.83, 180.3 228.0, 180.27 228.17, 180.24 228.33, 180.21 228.5, 180.19 228.67, 180.16 228.83, 180.14 229.0, 180.12 229.17, 180.1 229.33, 180.08 229.5, 180.06 229.67, 180.04 229.83, 180.03 230.0, 180.01 230.17, 180.0 230.33, 179.99 230.5, 179.98 230.67, 179.97 230.83, 179.96 231.0, 179.96 231.17, 179.95 231.33, 179.95 231.5, 179.95 231.67, 179.95 231.83, 179.95 232.0, 179.95 232.17, 179.95 232.33, 179.96 232.5, 179.97 232.67, 179.97 232.83, 179.98 233.0, 179.99 233.17, 180.0 233.33, 180.02 233.5, 180.03 233.67, 180.04 233.83, 180.06 234.0, 180.08 234.17, 180.1 234.33, 180.12 234.5, 180.14 234.67, 180.16 234.83, 180.19 235.0, 180.21 235.17, 180.24 235.33, 180.27 235.5, 180.3 235.67, 180.33 235.83, 180.36 236.0, 180.39 236.17, 180.43 236.33, 180.46 236.5, 180.5 236.67, 180.54 236.83, 180.58 237.0, 180.62 237.17, 180.66 237.33, 180.7 237.5, 180.75 237.67, 180.79 237.83, 180.84 238.0, 180.89 238.17, 180.94 238.33, 180.99 238.5, 181.04 238.67, 181.09 238.83, 181.14 239.0, 181.2 239.17, 181.25 239.33, 181.31 239.5, 181.37 239.67, 181.43 239.83, 181.49 240.0, 181.55 240.17, 181.61 240.33, 181.68 240.5, 181.74 240.67, 181.81 240.83, 181.87 241.0, 181.94 241.17, 182.01 241.33, 182.08 241.5, 182.15 241.67, 182.22 241.83, 182.29 242.0, 182.37 242.17, 182.44 242.33, 182.52 242.5, 182.59 242.67, 182.67 242.83, 182.75 243.0, 182.83 243.17, 182.91 243.33, 182.99 243.5, 183.07 243.67, 183.16 243.83, 183.24 244.0, 183.32 244.17, 183.41 244.33, 183.5 244.5, 183.58 244.67, 183.67 244.83, 183.76 245.0, 183.85 245.17, 183.94 245.33, 184.03 245.5, 184.12 245.67, 184.22 245.83, 184.31 246.0, 184.4 246.17, 184.5 246.33, 184.59 246.5, 184.69 246.67, 184.79 246.83, 184.88 247.0, 184.98 247.17, 185.08 247.33, 185.18 247.5, 185.28 247.67, 185.38 247.83, 185.48 248.0, 185.58 248.17, 185.68 248.33, 185.79 248.5, 185.89 248.67, 185.99 248.83, 186.1 249.0, 186.2 249.17, 186.31 249.33, 186.41 249.5, 186.52 249.67, 186.62 249.83, 186.73 250.0, 186.84 250.17, 186.94 250.33, 187.05 250.5, 187.16 250.67, 187.27 250.83, 187.38 251.0, 187.48 251.17, 187.59 251.33, 187.7 251.5, 187.81 251.67, 187.92 251.83, 188.03 252.0, 188.14 252.17, 188.25 252.33, 188.36 252.5, 188.47 252.67, 188.58 252.83, 188.69 253.0, 188.8 253.17, 188.91 253.33, 189.02 253.5, 189.13 253.67, 189.24 253.83, 189.35 254.0, 189.46 254.17, 189.57 254.33, 189.68 254.5, 189.79 254.67, 189.9 254.83, 190.01 255.0, 190.12 255.17, 190.22 255.33, 190.33 255.5, 190.44 255.67, 190.55 255.83, 190.66 256.0, 190.76 256.17, 190.87 256.33, 190.98 256.5, 191.09 256.67, 191.19 256.83, 191.3 257.0, 191.4 257.17, 191.51 257.33, 191.61 257.5, 191.71 257.67, 191.82 257.83, 191.92 258.0, 192.02 258.17, 192.12 258.33, 192.22 258.5, 192.32 258.67, 192.42 258.83, 192.52 259.0, 192.62 259.17, 192.72 259.33, 192.81 259.5, 192.91 259.67, 193.0 259.83, 193.1 260.0, 193.19 260.17, 193.28 260.33, 193.37 260.5, 193.46 260.67, 193.55 260.83, 193.64 261.0, 193.73 261.17, 193.81 261.33, 193.9 261.5, 193.98 261.67, 194.07 261.83, 194.15 262.0, 194.23 262.17, 194.31 262.33, 194.39 262.5, 194.46 262.67, 194.54 262.83, 194.61 263.0, 194.69 263.17, 194.76 263.33, 194.83 263.5, 194.9 263.67, 194.97 263.83, 195.03 264.0, 195.1 264.17, 195.16 264.33, 195.22 264.5, 195.28 264.67, 195.34 264.83, 195.4 265.0, 195.45 265.17, 195.51 265.33, 195.56 265.5, 195.61 265.67, 195.66 265.83, 195.71 266.0, 195.75 266.17, 195.8 266.33, 195.84 266.5, 195.88 266.67, 195.91 266.83, 195.95 267.0, 195.98 267.17, 196.02 267.33, 196.05 267.5, 196.07 267.67, 196.1 267.83, 196.12 268.0, 196.15 268.17, 196.17 268.33, 196.18 268.5, 196.2 268.67, 196.21 268.83, 196.22 269.0, 196.23 269.17, 196.24 269.33, 196.24 269.5, 196.24 269.67, 196.24 269.83, 196.24 270.0, 196.23 270.17, 196.22 270.33, 196.21 270.5, 196.2 270.67, 196.18 270.83, 196.16 271.0, 196.14 271.17, 196.12 271.33, 196.09 271.5, 196.06 271.67, 196.03 271.83, 196.0 272.0, 195.96 272.17, 195.92 272.33, 195.88 272.5, 195.83 272.67, 195.78 272.83, 195.73 273.0, 195.67 273.17, 195.62 273.33, 195.55 273.5, 195.49 273.67, 195.42 273.83, 195.35 274.0, 195.28 274.17, 195.2 274.33, 195.12 274.5, 195.04 274.67, 194.96 274.83, 194.87 275.0, 194.77 275.17, 194.68 275.33, 194.58 275.5, 194.47 275.67, 194.37 275.83, 194.26 276.0, 194.14 276.17, 194.03 276.33, 193.91 276.5, 193.78 276.67, 193.66 276.83, 193.52 277.0, 193.39 277.17, 193.25 277.33, 193.11 277.5, 192.96 277.67, 192.81 277.83, 192.66 278.0, 192.5 278.17, 192.34 278.33, 192.17 278.5, 192.0 278.67, 191.83 278.83, 191.65 279.0, 191.47 279.17, 191.29 279.33, 191.1 279.5, 190.9 279.67, 190.71 279.83, 190.5 280.0, 190.3 280.17, 190.09 280.33, 189.87 280.5, 189.65 280.67, 189.43 280.83, 189.2 281.0, 188.97 281.17, 188.74 281.33, 188.5 281.5, 188.25 281.67, 188.0 281.83, 187.75 282.0, 187.49 282.17, 187.23 282.33, 186.96 282.5, 186.69 282.67, 186.41 282.83, 186.13 283.0, 185.84 283.17, 185.55 283.33, 185.25 283.5, 184.95 283.67, 184.65 283.83, 184.34 284.0, 184.02 284.17, 183.7 284.33, 183.38 284.5, 183.05 284.67, 182.71 284.83, 182.37 285.0, 182.03 285.17, 181.68 285.33, 181.32 285.5, 180.96 285.67, 180.6 285.83, 180.23 286.0, 179.85 286.17, 179.47 286.33, 179.09 286.5, 178.69 286.67, 178.3 286.83, 177.9 287.0, 177.49 287.17, 177.08 287.33, 176.66 287.5, 176.24 287.67, 175.81 287.83, 175.37 288.0, 174.93 288.17, 174.49 288.33, 174.04 288.5, 173.58 288.67, 173.12 288.83, 172.65 289.0, 172.18 289.17, 171.7 289.33, 171.22 289.5, 170.73 289.67, 170.23 289.83, 169.73 290.0, 169.22 290.17, 168.71 290.33, 168.19 290.5, 167.67 290.67, 167.14 290.83, 166.6 291.0, 166.06 291.17, 165.51 291.33, 164.96 291.5, 164.4 291.67, 163.83 291.83, 163.26 292.0, 162.68 292.17, 162.1 292.33, 161.51 292.5, 160.91 292.67, 160.31 292.83, 159.7 293.0, 159.09 293.17, 158.47 293.33, 157.84 293.5, 157.21 293.67, 156.57 293.83, 155.93 294.0, 155.28 294.17, 154.62 294.33, 153.96 294.5, 153.29 294.67, 152.61 294.83, 151.93 295.0, 151.24 295.17, 150.55 295.33, 149.84 295.5, 149.14 295.67, 148.42 295.83, 147.7 296.0, 146.98 296.17, 146.24 296.33, 145.5 296.5, 144.76 296.67, 144.01 296.83, 143.25 297.0, 142.48 297.17, 141.71 297.33, 140.93 297.5, 140.15 297.67, 139.36 297.83, 138.56 298.0, 137.75 298.17, 136.94 298.33, 136.13 298.5, 135.3 298.67, 134.47 298.83, 133.63 299.0, 132.79 299.17, 131.94 299.33, 131.08 299.5, 130.22 299.67, 129.35 299.83, 128.47 300.0, 127.59 300.17, 126.7 300.33, 125.81 300.5, 124.9 300.67, 123.99 300.83, 123.08 301.0, 122.15 301.17, 121.22 301.33, 120.29 301.5, 119.35 301.67, 118.4 301.83, 117.44 302.0, 116.48 302.17, 115.51 302.33, 114.53 302.5, 113.55 302.67, 112.56 302.83, 111.56 303.0, 110.56 303.17, 109.55 303.33, 108.54 303.5, 107.51 303.67, 106.48 303.83, 105.45 304.0, 104.41 304.17, 103.36 304.33, 102.3 304.5, 101.24 304.67, 100.17 304.83, 99.09 305.0, 98.01 305.17, 96.92 305.33, 95.83 305.5, 94.73 305.67, 93.62 305.83, 92.5 306.0, 91.38 306.17, 90.25 306.33, 89.12 306.5, 87.98 306.67, 86.83 306.83, 85.67 307.0, 84.51 307.17, 83.35 307.33, 82.17 307.5, 80.99 307.67, 79.81 307.83, 78.61 308.0, 77.42 308.17, 76.21 308.33, 75.0 308.5, 73.78 308.67, 72.56 308.83, 71.33 309.0, 70.09 309.17, 68.85 309.33, 67.6 309.5, 66.34 309.67, 65.08 309.83, 63.81 310.0, 62.54 310.17, 61.26 310.33, 59.97 310.5, 58.68 310.67, 57.38 310.83, 56.07 311.0, 54.76 311.17, 53.45 311.33, 52.12 311.5, 50.8 311.67, 49.46 311.83, 48.12 312.0, 46.78 312.17, 45.42 312.33, 44.07 312.5, 42.7 312.67, 41.34 312.83, 39.96 313.0, 38.58 313.17, 37.2 313.33, 35.8 313.5, 34.41 313.67, 33.01 313.83, 31.6 314.0, 30.18 314.17, 28.77 314.33, 27.34 314.5, 25.91 314.67, 24.48 314.83, 23.04 315.0, 21.6 315.17, 20.15 315.33, 18.69 315.5, 17.23 315.67, 15.77 315.83, 14.3 316.0, 12.82 316.17, 11.34 316.33, 9.86 316.5, 8.37 316.67, 6.88 316.83, 5.38 317.0, 3.88 317.17, 2.37 317.33, 0.86 317.5, -0.66 317.67, -2.18 317.83, -3.7 318.0, -5.23 318.17, -6.76 318.33, -8.3 318.5, -9.84 318.67, -11.39 318.83, -12.94 319.0, -14.49 319.17, -16.05 319.33, -17.61 319.5, -19.17 319.67, -20.74 319.83, -22.31 320.0, -23.89 320.17, -25.46 320.33, -27.05 320.5, -28.63 320.67, -30.22 320.83, -31.81 321.0, -33.4 321.17, -35.0 321.33, -36.6 321.5, -38.21 321.67, -39.81 321.83, -41.42 322.0, -43.03 322.17, -44.64 322.33, -46.26 322.5, -47.88 322.67, -49.5 322.83, -51.12 323.0, -52.75 323.17, -54.38 323.33, -56.0 323.5, -57.64 323.67, -59.27 323.83, -60.9 324.0, -62.54 324.17, -64.18 324.33, -65.81 324.5, -67.45 324.67, -69.1 324.83, -70.74 325.0, -72.38 325.17, -74.03 325.33, -75.67 325.5, -77.32 325.67, -78.96 325.83, -80.61 326.0, -82.26 326.17, -83.91 326.33, -85.55 326.5, -87.2 326.67, -88.85 326.83, -90.5 327.0, -92.15 327.17, -93.79 327.33, -95.44 327.5, -97.09 327.67, -98.73 327.83, -100.38 328.0, -102.02 328.17, -103.67 328.33, -105.31 328.5, -106.95 328.67, -108.59 328.83, -110.22 329.0, -111.86 329.17, -113.5 329.33, -115.13 329.5, -116.76 329.67, -118.39 329.83, -120.01 330.0, -121.64 330.17, -123.26 330.33, -124.88 330.5, -126.49 330.67, -128.1 330.83, -129.71 331.0, -131.32 331.17, -132.92 331.33, -134.52 331.5, -136.12 331.67, -137.71 331.83, -139.3 332.0, -140.88 332.17, -142.46 332.33, -144.04 332.5, -145.61 332.67, -147.18 332.83, -148.74 333.0, -150.3 333.17, -151.85 333.33, -153.39 333.5, -154.93 333.67, -156.47 333.83, -158.0 334.0, -159.52 334.17, -161.04 334.33, -162.55 334.5, -164.05 334.67, -165.55 334.83, -167.04 335.0, -168.53 335.17, -170.01 335.33, -171.48 335.5, -172.94 335.67, -174.39 335.83, -175.84 336.0, -177.28 336.17, -178.71 336.33, -180.13 336.5, -181.55 336.67, -182.95 336.83, -184.35 337.0, -185.73 337.17, -187.11 337.33, -188.48 337.5, -189.84 337.67, -191.19 337.83, -192.53 338.0, -193.86 338.17, -195.17 338.33, -196.48 338.5, -197.78 338.67, -199.06 338.83, -200.34 339.0, -201.6 339.17, -202.85 339.33, -204.09 339.5, -205.32 339.67, -206.53 339.83, -207.73 340.0, -208.92 340.17, -210.1 340.33, -211.26 340.5, -212.41 340.67, -213.55 340.83, -214.67 341.0, -215.78 341.17, -216.87 341.33, -217.95 341.5, -219.01 341.67, -220.06 341.83, -221.09 342.0, -222.11 342.17, -223.12 342.33, -224.1 342.5, -225.07 342.67, -226.03 342.83, -226.96 343.0, -227.88 343.17, -228.79 343.33, -229.67 343.5, -230.54 343.67, -231.39 343.83, -232.22 344.0, -233.03 344.17, -233.83 344.33, -234.6 344.5, -235.36 344.67, -236.09 344.83, -236.81 345.0, -237.5 345.17, -238.18 345.33, -238.84 345.5, -239.47 345.67, -240.08 345.83, -240.67 346.0, -241.24 346.17, -241.79 346.33, -242.32 346.5, -242.82 346.67, -243.3 346.83, -243.75 347.0, -244.19 347.17, -244.6 347.33, -244.98 347.5, -245.34 347.67, -245.68 347.83, -245.99 348.0, -246.27 348.17, -246.53 348.33, -246.77 348.5, -246.98 348.67, -247.16 348.83, -247.31 349.0, -247.44 349.17, -247.54 349.33, -247.61 349.5, -247.65 349.67, -247.67 349.83, -247.65 350.0, -247.61 350.17, -247.54 350.33, -247.44 350.5, -247.3 350.67, -247.14 350.83, -246.95 351.0, -246.72 351.17, -246.47 351.33, -246.18 351.5, -245.86 351.67, -245.5 351.83, -245.12 352.0, -244.7 352.17, -244.25 352.33, -243.76 352.5, -243.24 352.67, -242.68 352.83, -242.09 353.0, -241.46 353.17, -240.8 353.33, -240.1 353.5, -239.36 353.67, -238.59 353.83, -237.78 354.0, -236.93 354.17, -236.05 354.33, -235.12 354.5, -234.16 354.67, -233.16 354.83, -232.11 355.0, -231.03 355.17, -229.91 355.33, -228.74 355.5, -227.54 355.67, -226.29 355.83, -225.0 356.0, -223.67 356.17, -222.3 356.33, -220.88 356.5, -219.41 356.67, -217.91 356.83, -216.36 357.0, -214.76 357.17, -213.12 357.33, -211.43 357.5, -209.7 357.67, -207.91 357.83, -206.09 358.0, -204.21 358.17, -202.28 358.33, -200.31 358.5, -198.29 358.67, -196.22 358.83, -194.1 359.0, -191.92 359.17, -189.7 359.33, -187.43 359.5, -185.1 359.67, -182.72 359.83, -180.29 360.0, -177.8 360.17, -175.26 360.33, -172.67 360.5, -170.02 360.67, -167.32 360.83, -164.56 361.0, -161.75 361.17, -158.87 361.33, -155.95 361.5, -152.96 361.67, -149.91 361.83, -146.81 362.0, -143.65 362.17, -140.43 362.33, -137.14 362.5, -133.8 362.67, -130.39 362.83, -126.93 363.0, -123.4 363.17, -119.81 363.33, -116.15 363.5, -112.43 363.67, -108.65 363.83, -104.8 364.0, -100.88 364.17, -96.9 364.33, -92.86 364.5, -88.74 364.67, -84.56 364.83, -80.31 365.0, -75.99 365.17, -71.6 365.33, -67.14 365.5, -62.61 365.67, -58.01 365.83, -53.34 366.0, -48.59 366.17, -43.78 366.33, -38.89 366.5, -33.92 366.67, -28.88 366.83, -23.76 367.0, -18.57 367.17, -13.31 367.33, -7.96 367.5, -2.54 367.67, 2.96 367.83, 8.54 368.0, 14.2 368.17, 19.94 368.33, 25.76 368.5, 31.67 368.67, 37.65 368.83, 43.72 369.0, 49.87 369.17, 56.1 369.33, 62.42 369.5, 68.82 369.67, 75.31 369.83, 81.89 370.0, 88.55 370.17, 95.3 370.33, 102.14 370.5, 109.07 370.67, 116.09 370.83, 123.2 371.0, 130.4 371.17, 137.7 371.33, 145.08 371.5, 152.56 371.67, 160.14 371.83, 167.8 372.0, 175.57 372.17, 183.43 372.33, 191.38 372.5, 199.44 372.67, 207.59 372.83, 215.84 373.0, 224.19 373.17, 232.64 373.33, 241.19 373.5, 249.85 373.67, 258.6 373.83, 267.46 374.0, 276.43 374.17, 285.5 374.33, 294.67 374.5, 303.95 374.67, 313.34 374.83, 322.83 375.0, 332.44 375.17, 342.15 375.33, 351.98 375.5, 361.91 375.67, 371.96 375.83, 382.12 376.0, 392.39 376.17, 402.77 376.33, 413.28 376.5, 423.89 376.67, 434.62 376.83, 445.48 377.0, 456.44 377.17, 467.53 377.33, 478.74 377.5, 490.07 377.67, 501.52 377.83, 513.09 378.0, 524.78 378.17, 536.6 378.33, 548.54 378.5, 560.61 378.67, 572.8 378.83, 585.13 379.0, 597.58 379.17, 610.16 379.33, 622.86 379.5, 635.7 379.67, 648.67 379.83, 661.78 380.0, 675.02 380.17, 688.39 380.33, 701.89 380.5, 715.53 380.67, 729.31 380.83, 743.23 381.0, 757.29 381.17, 771.48 381.33, 785.82 381.5, 800.29 381.67, 814.91 381.83, 829.68 382.0, 844.58 382.17, 859.64 382.33, 874.83 382.5, 890.18 382.67, 905.67 382.83, 921.31 383.0, 937.11 383.17, 953.05 383.33, 969.14 383.5, 985.39 383.67, 1001.79 383.83, 1018.35 384.0, 1035.06 384.17, 1051.93 384.33, 1068.96 384.5, 1086.14 384.67, 1103.49 384.83, 1120.99 385.0, 1138.66 385.17, 1156.49 385.33, 1174.48 385.5, 1192.64 385.67, 1210.97 385.83, 1229.46 386.0, 1248.12 386.17, 1266.94 386.33, 1285.94 386.5, 1305.11 386.67, 1324.45 386.83, 1343.97 387.0, 1363.66 387.17, 1383.52 387.33, 1403.56 387.5, 1423.78 387.67, 1444.17 387.83, 1464.75 388.0, 1485.51 388.17, 1506.44 388.33, 1527.57 388.5, 1548.87 388.67, 1570.36 388.83, 1592.04 389.0, 1613.9 389.17, 1635.95 389.33, 1658.19 389.5, 1680.63 389.67, 1703.25 389.83, 1726.07 390.0, 1749.08 390.17, 1772.29 390.33, 1795.69 390.5, 1819.29 390.67, 1843.09 390.83, 1867.09 391.0, 1891.3 391.17, 1915.7 391.33, 1940.31 391.5, 1965.12 391.67, 1990.14 391.83, 2015.36 392.0, 2040.8 392.17, 2066.44 392.33, 2092.29 392.5, 2118.36 392.67, 2144.64 392.83, 2171.13 393.0, 2197.84 393.17, 2224.77 393.33, 2251.92 393.5, 2279.28 393.67, 2306.87 393.83, 2334.67 394.0, 2362.7 394.17, 2390.96 394.33, 2419.44 394.5, 2448.15 394.67, 2477.09 394.83, 2506.25 395.0, 2535.65 395.17, 2565.28 395.33, 2595.15 395.5, 2625.25 395.67, 2655.58 395.83, 2686.15 396.0, 2716.97 396.17, 2748.02 396.33, 2779.31 396.5, 2810.85 396.67, 2842.63 396.83, 2874.66 397.0, 2906.93 397.17, 2939.46 397.33, 2972.23 397.5, 3005.26 397.67, 3038.53 397.83, 3072.06 398.0, 3105.85 398.17, 3139.9 398.33, 3174.2 398.5, 3208.76 398.67, 3243.58 398.83, 3278.67 399.0, 3314.02 399.17, 3349.63 399.33, 3385.52 399.5, 3421.67 399.67, 3458.09 399.83, 3494.78 400.0, 3531.75 " fill="none" stroke="white" stroke-width="1.5" stroke-linejoin="round" stroke-opacity="1"/>

 </svg>