<svg version="1.1" 
 baseProfile="full" 
 width="400" 
 height="400" 
 xmlns="http://www.w3.org/2000/svg">
<rect x="0.0" y="0.0" width="400" height="400" fill="black" stroke="black" stroke-width="0" opacity="1"/>
<line x1="0.0" y1="0.0" x2="0.0" y2="400.0" stroke="white" stroke-width="1" opacity="0.4" stroke-linecap="butt"/>
<line x1="40.0" y1="0.0" x2="40.0" y2="400.0" stroke="white" stroke-width="1" opacity="0.4" stroke-linecap="butt"/>
<line x1="80.0" y1="0.0" x2="80.0" y2="400.0" stroke="white" stroke-width="1" opacity="0.4" stroke-linecap="butt"/>
<line x1="120.0" y1="0.0" x2="120.0" y2="400.0" stroke="white" stroke-width="1" opacity="0.4" stroke-linecap="butt"/>
<line x1="160.0" y1="0.0" x2="160.0" y2="400.0" stroke="white" stroke-width="1" opacity="0.4" stroke-linecap="butt"/>
<line x1="200.0" y1="0.0" x2="200.0" y2="400.0" stroke="white" stroke-width="1" opacity="0.4" stroke-linecap="butt"/>
<line x1="240.0" y1="0.0" x2="240.0" y2="400.0" stroke="white" stroke-width="1" opacity="0.4" stroke-linecap="butt"/>
<line x1="280.0" y1="0.0" x2="280.0" y2="400.0" stroke="white" stroke-width="1" opacity="0.4" stroke-linecap="butt"/>
<line x1="320.0" y1="0.0" x2="320.0" y2="400.0" stroke="white" stroke-width="1" opacity="0.4" stroke-linecap="butt"/>
<line x1="360.0" y1="0.0" x2="360.0" y2="400.0" stroke="white" stroke-width="1" opacity="0.4" stroke-linecap="butt"/>
<line x1="0.0" y1="0.0" x2="400.0" y2="0.0" stroke="white" stroke-width="1" opacity="0.4" stroke-linecap="butt"/>
<line x1="0.0" y1="40.0" x2="400.0" y2="40.0" stroke="white" stroke-width="1" opacity="0.4" stroke-linecap="butt"/>
<line x1="0.0" y1="80.0" x2="400.0" y2="80.0" stroke="white" stroke-width="1" opacity="0.4" stroke-linecap="butt"/>
<line x1="0.0" y1="120.0" x2="400.0" y2="120.0" stroke="white" stroke-width="1" opacity="0.4" stroke-linecap="butt"/>
<line x1="0.0" y1="160.0" x2="400.0" y2="160.0" stroke="white" stroke-width="1" opacity="0.4" stroke-linecap="butt"/>
<line x1="0.0" y1="200.0" x2="400.0" y2="200.0" stroke="white" stroke-width="1" opacity="0.4" stroke-linecap="butt"/>
<line x1="0.0" y1="240.0" x2="400.0" y2="240.0" stroke="white" stroke-width="1" opacity="0.4" stroke-linecap="butt"/>
<line x1="0.0" y1="280.0" x2="400.0" y2="280.0" stroke="white" stroke-width="1" opacity="0.4" stroke-linecap="butt"/>
<line x1="0.0" y1="320.0" x2="400.0" y2="320.0" stroke="white" stroke-width="1" opacity="0.4" stroke-linecap="butt"/>
<line x1="0.0" y1="360.0" x2="400.0" y2="360.0" stroke="white" stroke-width="1" opacity="0.4" stroke-linecap="butt"/>
<line x1="0.0" y1="200.0" x2="400.0" y2="200.0" stroke="yellow" stroke-width="2.5" opacity="1" stroke-linecap="butt"/>
<line x1="200.0" y1="0.0" x2="200.0" y2="400.0" stroke="yellow" stroke-width="2.5" opacity="1" stroke-linecap="butt"/>
<polygon points="391.0 204.0, 401.0 200.0, 391.0 196.0, 393.0 200.0" fill="yellow"/><polygon points="204.0 9.0, 200.0 -1.0, 196.0 9.0, 200.0 7.0" fill="yellow"/><image x="-60.0" y="-60.0" width="200" height="200" href="/Users/girirajhira/PycharmProjects/Giraphics3/Taylor/expr.png"/><polyline points="0.0, -8588.1 0.17, -8519.38 0.33, -8451.1 0.5, -8383.24 0.67, -8315.82 0.83, -8248.82 1.0, -8182.24 1.17, -8116.08 1.33, -8050.34 1.5, -7985.02 1.67, -7920.11 1.83, -7855.61 2.0, -7791.53 2.17, -7727.85 2.33, -7664.58 2.5, -7601.71 2.67, -7539.25 2.83, -7477.18 3.0, -7415.51 3.17, -7354.24 3.33, -7293.37 3.5, -7232.88 3.67, -7172.79 3.83, -7113.08 4.0, -7053.76 4.17, -6994.83 4.33, -6936.27 4.5, -6878.1 4.67, -6820.31 4.83, -6762.89 5.0, -6705.84 5.17, -6649.17 5.33, -6592.87 5.5, -6536.94 5.67, -6481.38 5.83, -6426.18 6.0, -6371.34 6.17, -6316.87 6.33, -6262.75 6.5, -6208.99 6.67, -6155.59 6.83, -6102.54 7.0, -6049.84 7.17, -5997.5 7.33, -5945.5 7.5, -5893.85 7.67, -5842.54 7.83, -5791.58 8.0, -5740.96 8.17, -5690.67 8.33, -5640.73 8.5, -5591.12 8.67, -5541.84 8.83, -5492.9 9.0, -5444.29 9.17, -5396.0 9.33, -5348.05 9.5, -5300.41 9.67, -5253.11 9.83, -5206.12 10.0, -5159.45 10.17, -5113.11 10.33, -5067.08 10.5, -5021.36 10.67, -4975.96 10.83, -4930.87 11.0, -4886.09 11.17, -4841.62 11.33, -4797.45 11.5, -4753.59 11.67, -4710.03 11.83, -4666.78 12.0, -4623.83 12.17, -4581.17 12.33, -4538.81 12.5, -4496.75 12.67, -4454.98 12.83, -4413.5 13.0, -4372.31 13.17, -4331.42 13.33, -4290.81 13.5, -4250.48 13.67, -4210.44 13.83, -4170.68 14.0, -4131.21 14.17, -4092.01 14.33, -4053.09 14.5, -4014.45 14.67, -3976.08 14.83, -3937.99 15.0, -3900.17 15.17, -3862.62 15.33, -3825.33 15.5, -3788.32 15.67, -3751.57 15.83, -3715.09 16.0, -3678.87 16.17, -3642.91 16.33, -3607.21 16.5, -3571.77 16.67, -3536.59 16.83, -3501.66 17.0, -3466.99 17.17, -3432.57 17.33, -3398.4 17.5, -3364.48 17.67, -3330.81 17.83, -3297.39 18.0, -3264.21 18.17, -3231.28 18.33, -3198.59 18.5, -3166.14 18.67, -3133.94 18.83, -3101.97 19.0, -3070.24 19.17, -3038.74 19.33, -3007.49 19.5, -2976.46 19.67, -2945.67 19.83, -2915.1 20.0, -2884.77 20.17, -2854.67 20.33, -2824.79 20.5, -2795.13 20.67, -2765.71 20.83, -2736.5 21.0, -2707.52 21.17, -2678.75 21.33, -2650.21 21.5, -2621.88 21.67, -2593.77 21.83, -2565.88 22.0, -2538.2 22.17, -2510.73 22.33, -2483.47 22.5, -2456.43 22.67, -2429.59 22.83, -2402.96 23.0, -2376.54 23.17, -2350.32 23.33, -2324.3 23.5, -2298.49 23.67, -2272.88 23.83, -2247.47 24.0, -2222.26 24.17, -2197.25 24.33, -2172.44 24.5, -2147.82 24.67, -2123.39 24.83, -2099.16 25.0, -2075.12 25.17, -2051.28 25.33, -2027.62 25.5, -2004.15 25.67, -1980.87 25.83, -1957.77 26.0, -1934.86 26.17, -1912.13 26.33, -1889.59 26.5, -1867.23 26.67, -1845.05 26.83, -1823.05 27.0, -1801.23 27.17, -1779.58 27.33, -1758.11 27.5, -1736.82 27.67, -1715.7 27.83, -1694.76 28.0, -1673.98 28.17, -1653.38 28.33, -1632.95 28.5, -1612.68 28.67, -1592.59 28.83, -1572.66 29.0, -1552.89 29.17, -1533.29 29.33, -1513.86 29.5, -1494.59 29.67, -1475.48 29.83, -1456.52 30.0, -1437.73 30.17, -1419.1 30.33, -1400.63 30.5, -1382.31 30.67, -1364.14 30.83, -1346.14 31.0, -1328.28 31.17, -1310.58 31.33, -1293.03 31.5, -1275.63 31.67, -1258.38 31.83, -1241.27 32.0, -1224.32 32.17, -1207.51 32.33, -1190.85 32.5, -1174.33 32.67, -1157.96 32.83, -1141.73 33.0, -1125.64 33.17, -1109.69 33.33, -1093.89 33.5, -1078.22 33.67, -1062.69 33.83, -1047.3 34.0, -1032.04 34.17, -1016.92 34.33, -1001.94 34.5, -987.09 34.67, -972.37 34.83, -957.78 35.0, -943.33 35.17, -929.0 35.33, -914.81 35.5, -900.74 35.67, -886.8 35.83, -872.99 36.0, -859.3 36.17, -845.74 36.33, -832.31 36.5, -818.99 36.67, -805.8 36.83, -792.73 37.0, -779.78 37.17, -766.96 37.33, -754.25 37.5, -741.66 37.67, -729.19 37.83, -716.83 38.0, -704.59 38.17, -692.47 38.33, -680.46 38.5, -668.56 38.67, -656.78 38.83, -645.1 39.0, -633.54 39.17, -622.09 39.33, -610.75 39.5, -599.52 39.67, -588.4 39.83, -577.38 40.0, -566.48 40.17, -555.67 40.33, -544.98 40.5, -534.38 40.67, -523.89 40.83, -513.51 41.0, -503.22 41.17, -493.04 41.33, -482.96 41.5, -472.98 41.67, -463.09 41.83, -453.31 42.0, -443.62 42.17, -434.03 42.33, -424.54 42.5, -415.14 42.67, -405.84 42.83, -396.64 43.0, -387.52 43.17, -378.5 43.33, -369.57 43.5, -360.74 43.67, -351.99 43.83, -343.33 44.0, -334.77 44.17, -326.29 44.33, -317.9 44.5, -309.6 44.67, -301.39 44.83, -293.26 45.0, -285.22 45.17, -277.26 45.33, -269.39 45.5, -261.6 45.67, -253.89 45.83, -246.27 46.0, -238.73 46.17, -231.27 46.33, -223.89 46.5, -216.59 46.67, -209.37 46.83, -202.23 47.0, -195.17 47.17, -188.18 47.33, -181.27 47.5, -174.44 47.67, -167.68 47.83, -161.0 48.0, -154.39 48.17, -147.86 48.33, -141.4 48.5, -135.02 48.67, -128.7 48.83, -122.46 49.0, -116.29 49.17, -110.19 49.33, -104.16 49.5, -98.2 49.67, -92.3 49.83, -86.48 50.0, -80.72 50.17, -75.03 50.33, -69.41 50.5, -63.86 50.67, -58.37 50.83, -52.94 51.0, -47.58 51.17, -42.28 51.33, -37.05 51.5, -31.88 51.67, -26.77 51.83, -21.73 52.0, -16.74 52.17, -11.82 52.33, -6.96 52.5, -2.15 52.67, 2.59 52.83, 7.28 53.0, 11.9 53.17, 16.47 53.33, 20.98 53.5, 25.43 53.67, 29.83 53.83, 34.17 54.0, 38.46 54.17, 42.69 54.33, 46.87 54.5, 50.99 54.67, 55.06 54.83, 59.07 55.0, 63.03 55.17, 66.94 55.33, 70.8 55.5, 74.61 55.67, 78.37 55.83, 82.07 56.0, 85.73 56.17, 89.33 56.33, 92.89 56.5, 96.4 56.67, 99.86 56.83, 103.27 57.0, 106.63 57.17, 109.95 57.33, 113.22 57.5, 116.45 57.67, 119.63 57.83, 122.76 58.0, 125.85 58.17, 128.9 58.33, 131.9 58.5, 134.85 58.67, 137.77 58.83, 140.64 59.0, 143.47 59.17, 146.25 59.33, 149.0 59.5, 151.7 59.67, 154.36 59.83, 156.99 60.0, 159.57 60.17, 162.11 60.33, 164.61 60.5, 167.08 60.67, 169.5 60.83, 171.89 61.0, 174.24 61.17, 176.55 61.33, 178.82 61.5, 181.06 61.67, 183.26 61.83, 185.43 62.0, 187.56 62.17, 189.65 62.33, 191.71 62.5, 193.73 62.67, 195.72 62.83, 197.68 63.0, 199.6 63.17, 201.49 63.33, 203.35 63.5, 205.17 63.67, 206.96 63.83, 208.72 64.0, 210.45 64.17, 212.15 64.33, 213.81 64.5, 215.44 64.67, 217.05 64.83, 218.62 65.0, 220.17 65.17, 221.68 65.33, 223.17 65.5, 224.63 65.67, 226.05 65.83, 227.46 66.0, 228.83 66.17, 230.17 66.33, 231.49 66.5, 232.78 66.67, 234.05 66.83, 235.28 67.0, 236.49 67.17, 237.68 67.33, 238.84 67.5, 239.98 67.67, 241.09 67.83, 242.17 68.0, 243.23 68.17, 244.27 68.33, 245.28 68.5, 246.27 68.67, 247.24 68.83, 248.18 69.0, 249.1 69.17, 250.0 69.33, 250.87 69.5, 251.72 69.67, 252.56 69.83, 253.37 70.0, 254.15 70.17, 254.92 70.33, 255.67 70.5, 256.39 70.67, 257.1 70.83, 257.79 71.0, 258.45 71.17, 259.1 71.33, 259.73 71.5, 260.34 71.67, 260.93 71.83, 261.5 72.0, 262.05 72.17, 262.58 72.33, 263.1 72.5, 263.6 72.67, 264.08 72.83, 264.55 73.0, 264.99 73.17, 265.42 73.33, 265.84 73.5, 266.24 73.67, 266.62 73.83, 266.98 74.0, 267.33 74.17, 267.67 74.33, 267.99 74.5, 268.29 74.67, 268.58 74.83, 268.86 75.0, 269.12 75.17, 269.36 75.33, 269.6 75.5, 269.81 75.67, 270.02 75.83, 270.21 76.0, 270.39 76.17, 270.55 76.33, 270.7 76.5, 270.84 76.67, 270.97 76.83, 271.08 77.0, 271.19 77.17, 271.28 77.33, 271.35 77.5, 271.42 77.67, 271.48 77.83, 271.52 78.0, 271.55 78.17, 271.57 78.33, 271.59 78.5, 271.59 78.67, 271.58 78.83, 271.56 79.0, 271.53 79.17, 271.49 79.33, 271.44 79.5, 271.38 79.67, 271.31 79.83, 271.23 80.0, 271.14 80.17, 271.05 80.33, 270.94 80.5, 270.83 80.67, 270.71 80.83, 270.58 81.0, 270.44 81.17, 270.29 81.33, 270.14 81.5, 269.97 81.67, 269.8 81.83, 269.63 82.0, 269.44 82.17, 269.25 82.33, 269.05 82.5, 268.84 82.67, 268.63 82.83, 268.41 83.0, 268.19 83.17, 267.95 83.33, 267.72 83.5, 267.47 83.67, 267.22 83.83, 266.96 84.0, 266.7 84.17, 266.43 84.33, 266.16 84.5, 265.88 84.67, 265.6 84.83, 265.31 85.0, 265.01 85.17, 264.71 85.33, 264.41 85.5, 264.1 85.67, 263.79 85.83, 263.47 86.0, 263.15 86.17, 262.82 86.33, 262.49 86.5, 262.16 86.67, 261.82 86.83, 261.48 87.0, 261.13 87.17, 260.78 87.33, 260.43 87.5, 260.07 87.67, 259.72 87.83, 259.35 88.0, 258.99 88.17, 258.62 88.33, 258.25 88.5, 257.87 88.67, 257.5 88.83, 257.12 89.0, 256.73 89.17, 256.35 89.33, 255.96 89.5, 255.57 89.67, 255.18 89.83, 254.79 90.0, 254.39 90.17, 254.0 90.33, 253.6 90.5, 253.2 90.67, 252.8 90.83, 252.39 91.0, 251.99 91.17, 251.58 91.33, 251.17 91.5, 250.76 91.67, 250.35 91.83, 249.94 92.0, 249.53 92.17, 249.11 92.33, 248.7 92.5, 248.28 92.67, 247.87 92.83, 247.45 93.0, 247.04 93.17, 246.62 93.33, 246.2 93.5, 245.78 93.67, 245.36 93.83, 244.94 94.0, 244.52 94.17, 244.1 94.33, 243.68 94.5, 243.27 94.67, 242.85 94.83, 242.43 95.0, 242.01 95.17, 241.59 95.33, 241.17 95.5, 240.75 95.67, 240.33 95.83, 239.92 96.0, 239.5 96.17, 239.08 96.33, 238.67 96.5, 238.25 96.67, 237.84 96.83, 237.43 97.0, 237.01 97.17, 236.6 97.33, 236.19 97.5, 235.78 97.67, 235.37 97.83, 234.96 98.0, 234.56 98.17, 234.15 98.33, 233.75 98.5, 233.34 98.67, 232.94 98.83, 232.54 99.0, 232.14 99.17, 231.75 99.33, 231.35 99.5, 230.96 99.67, 230.56 99.83, 230.17 100.0, 229.78 100.17, 229.39 100.33, 229.01 100.5, 228.62 100.67, 228.24 100.83, 227.86 101.0, 227.48 101.17, 227.1 101.33, 226.72 101.5, 226.35 101.67, 225.98 101.83, 225.61 102.0, 225.24 102.17, 224.87 102.33, 224.51 102.5, 224.15 102.67, 223.79 102.83, 223.43 103.0, 223.08 103.17, 222.72 103.33, 222.37 103.5, 222.02 103.67, 221.68 103.83, 221.33 104.0, 220.99 104.17, 220.65 104.33, 220.31 104.5, 219.98 104.67, 219.65 104.83, 219.32 105.0, 218.99 105.17, 218.67 105.33, 218.34 105.5, 218.02 105.67, 217.71 105.83, 217.39 106.0, 217.08 106.17, 216.77 106.33, 216.46 106.5, 216.16 106.67, 215.86 106.83, 215.56 107.0, 215.26 107.17, 214.97 107.33, 214.68 107.5, 214.39 107.67, 214.1 107.83, 213.82 108.0, 213.54 108.17, 213.26 108.33, 212.98 108.5, 212.71 108.67, 212.44 108.83, 212.18 109.0, 211.91 109.17, 211.65 109.33, 211.39 109.5, 211.14 109.67, 210.89 109.83, 210.64 110.0, 210.39 110.17, 210.14 110.33, 209.9 110.5, 209.66 110.67, 209.43 110.83, 209.2 111.0, 208.97 111.17, 208.74 111.33, 208.51 111.5, 208.29 111.67, 208.07 111.83, 207.86 112.0, 207.65 112.17, 207.44 112.33, 207.23 112.5, 207.03 112.67, 206.82 112.83, 206.63 113.0, 206.43 113.17, 206.24 113.33, 206.05 113.5, 205.86 113.67, 205.68 113.83, 205.5 114.0, 205.32 114.17, 205.14 114.33, 204.97 114.5, 204.8 114.67, 204.63 114.83, 204.47 115.0, 204.31 115.17, 204.15 115.33, 203.99 115.5, 203.84 115.67, 203.69 115.83, 203.54 116.0, 203.4 116.17, 203.26 116.33, 203.12 116.5, 202.98 116.67, 202.85 116.83, 202.72 117.0, 202.59 117.17, 202.47 117.33, 202.35 117.5, 202.23 117.67, 202.11 117.83, 202.0 118.0, 201.89 118.17, 201.78 118.33, 201.67 118.5, 201.57 118.67, 201.47 118.83, 201.37 119.0, 201.28 119.17, 201.18 119.33, 201.09 119.5, 201.01 119.67, 200.92 119.83, 200.84 120.0, 200.76 120.17, 200.69 120.33, 200.61 120.5, 200.54 120.67, 200.47 120.83, 200.41 121.0, 200.34 121.17, 200.28 121.33, 200.22 121.5, 200.17 121.67, 200.11 121.83, 200.06 122.0, 200.01 122.17, 199.97 122.33, 199.92 122.5, 199.88 122.67, 199.84 122.83, 199.8 123.0, 199.77 123.17, 199.74 123.33, 199.71 123.5, 199.68 123.67, 199.66 123.83, 199.63 124.0, 199.61 124.17, 199.59 124.33, 199.58 124.5, 199.56 124.67, 199.55 124.83, 199.54 125.0, 199.54 125.17, 199.53 125.33, 199.53 125.5, 199.53 125.67, 199.53 125.83, 199.53 126.0, 199.54 126.17, 199.55 126.33, 199.56 126.5, 199.57 126.67, 199.58 126.83, 199.6 127.0, 199.62 127.17, 199.64 127.33, 199.66 127.5, 199.68 127.67, 199.71 127.83, 199.74 128.0, 199.76 128.17, 199.8 128.33, 199.83 128.5, 199.86 128.67, 199.9 128.83, 199.94 129.0, 199.98 129.17, 200.02 129.33, 200.07 129.5, 200.11 129.67, 200.16 129.83, 200.21 130.0, 200.26 130.17, 200.31 130.33, 200.36 130.5, 200.42 130.67, 200.48 130.83, 200.54 131.0, 200.6 131.17, 200.66 131.33, 200.72 131.5, 200.79 131.67, 200.85 131.83, 200.92 132.0, 200.99 132.17, 201.06 132.33, 201.13 132.5, 201.2 132.67, 201.28 132.83, 201.35 133.0, 201.43 133.17, 201.51 133.33, 201.59 133.5, 201.67 133.67, 201.75 133.83, 201.84 134.0, 201.92 134.17, 202.01 134.33, 202.1 134.5, 202.18 134.67, 202.27 134.83, 202.36 135.0, 202.46 135.17, 202.55 135.33, 202.64 135.5, 202.74 135.67, 202.83 135.83, 202.93 136.0, 203.03 136.17, 203.13 136.33, 203.23 136.5, 203.33 136.67, 203.43 136.83, 203.53 137.0, 203.63 137.17, 203.74 137.33, 203.84 137.5, 203.95 137.67, 204.06 137.83, 204.16 138.0, 204.27 138.17, 204.38 138.33, 204.49 138.5, 204.6 138.67, 204.71 138.83, 204.82 139.0, 204.93 139.17, 205.05 139.33, 205.16 139.5, 205.27 139.67, 205.39 139.83, 205.5 140.0, 205.62 140.17, 205.73 140.33, 205.85 140.5, 205.97 140.67, 206.09 140.83, 206.2 141.0, 206.32 141.17, 206.44 141.33, 206.56 141.5, 206.68 141.67, 206.8 141.83, 206.92 142.0, 207.04 142.17, 207.16 142.33, 207.28 142.5, 207.4 142.67, 207.52 142.83, 207.64 143.0, 207.77 143.17, 207.89 143.33, 208.01 143.5, 208.13 143.67, 208.25 143.83, 208.38 144.0, 208.5 144.17, 208.62 144.33, 208.74 144.5, 208.87 144.67, 208.99 144.83, 209.11 145.0, 209.23 145.17, 209.36 145.33, 209.48 145.5, 209.6 145.67, 209.73 145.83, 209.85 146.0, 209.97 146.17, 210.09 146.33, 210.21 146.5, 210.34 146.67, 210.46 146.83, 210.58 147.0, 210.7 147.17, 210.82 147.33, 210.94 147.5, 211.06 147.67, 211.18 147.83, 211.3 148.0, 211.42 148.17, 211.54 148.33, 211.66 148.5, 211.78 148.67, 211.9 148.83, 212.02 149.0, 212.13 149.17, 212.25 149.33, 212.37 149.5, 212.48 149.67, 212.6 149.83, 212.72 150.0, 212.83 150.17, 212.94 150.33, 213.06 150.5, 213.17 150.67, 213.28 150.83, 213.4 151.0, 213.51 151.17, 213.62 151.33, 213.73 151.5, 213.84 151.67, 213.95 151.83, 214.06 152.0, 214.17 152.17, 214.27 152.33, 214.38 152.5, 214.49 152.67, 214.59 152.83, 214.7 153.0, 214.8 153.17, 214.91 153.33, 215.01 153.5, 215.11 153.67, 215.21 153.83, 215.31 154.0, 215.41 154.17, 215.51 154.33, 215.61 154.5, 215.7 154.67, 215.8 154.83, 215.9 155.0, 215.99 155.17, 216.08 155.33, 216.18 155.5, 216.27 155.67, 216.36 155.83, 216.45 156.0, 216.54 156.17, 216.63 156.33, 216.71 156.5, 216.8 156.67, 216.89 156.83, 216.97 157.0, 217.05 157.17, 217.14 157.33, 217.22 157.5, 217.3 157.67, 217.38 157.83, 217.46 158.0, 217.53 158.17, 217.61 158.33, 217.69 158.5, 217.76 158.67, 217.83 158.83, 217.91 159.0, 217.98 159.17, 218.05 159.33, 218.12 159.5, 218.18 159.67, 218.25 159.83, 218.32 160.0, 218.38 160.17, 218.44 160.33, 218.51 160.5, 218.57 160.67, 218.63 160.83, 218.69 161.0, 218.74 161.17, 218.8 161.33, 218.86 161.5, 218.91 161.67, 218.96 161.83, 219.01 162.0, 219.06 162.17, 219.11 162.33, 219.16 162.5, 219.21 162.67, 219.25 162.83, 219.3 163.0, 219.34 163.17, 219.38 163.33, 219.42 163.5, 219.46 163.67, 219.5 163.83, 219.54 164.0, 219.57 164.17, 219.61 164.33, 219.64 164.5, 219.67 164.67, 219.7 164.83, 219.73 165.0, 219.76 165.17, 219.79 165.33, 219.81 165.5, 219.83 165.67, 219.86 165.83, 219.88 166.0, 219.9 166.17, 219.92 166.33, 219.93 166.5, 219.95 166.67, 219.96 166.83, 219.98 167.0, 219.99 167.17, 220.0 167.33, 220.01 167.5, 220.02 167.67, 220.03 167.83, 220.03 168.0, 220.03 168.17, 220.04 168.33, 220.04 168.5, 220.04 168.67, 220.04 168.83, 220.03 169.0, 220.03 169.17, 220.02 169.33, 220.02 169.5, 220.01 169.67, 220.0 169.83, 219.99 170.0, 219.98 170.17, 219.96 170.33, 219.95 170.5, 219.93 170.67, 219.92 170.83, 219.9 171.0, 219.88 171.17, 219.85 171.33, 219.83 171.5, 219.81 171.67, 219.78 171.83, 219.75 172.0, 219.73 172.17, 219.7 172.33, 219.67 172.5, 219.63 172.67, 219.6 172.83, 219.56 173.0, 219.53 173.17, 219.49 173.33, 219.45 173.5, 219.41 173.67, 219.37 173.83, 219.33 174.0, 219.28 174.17, 219.24 174.33, 219.19 174.5, 219.14 174.67, 219.09 174.83, 219.04 175.0, 218.99 175.17, 218.93 175.33, 218.88 175.5, 218.82 175.67, 218.77 175.83, 218.71 176.0, 218.65 176.17, 218.59 176.33, 218.52 176.5, 218.46 176.67, 218.39 176.83, 218.33 177.0, 218.26 177.17, 218.19 177.33, 218.12 177.5, 218.05 177.67, 217.98 177.83, 217.9 178.0, 217.83 178.17, 217.75 178.33, 217.67 178.5, 217.59 178.67, 217.51 178.83, 217.43 179.0, 217.35 179.17, 217.27 179.33, 217.18 179.5, 217.1 179.67, 217.01 179.83, 216.92 180.0, 216.83 180.17, 216.74 180.33, 216.65 180.5, 216.56 180.67, 216.46 180.83, 216.37 181.0, 216.27 181.17, 216.17 181.33, 216.07 181.5, 215.97 181.67, 215.87 181.83, 215.77 182.0, 215.67 182.17, 215.56 182.33, 215.46 182.5, 215.35 182.67, 215.24 182.83, 215.14 183.0, 215.03 183.17, 214.92 183.33, 214.8 183.5, 214.69 183.67, 214.58 183.83, 214.46 184.0, 214.35 184.17, 214.23 184.33, 214.11 184.5, 213.99 184.67, 213.88 184.83, 213.75 185.0, 213.63 185.17, 213.51 185.33, 213.39 185.5, 213.26 185.67, 213.14 185.83, 213.01 186.0, 212.88 186.17, 212.76 186.33, 212.63 186.5, 212.5 186.67, 212.37 186.83, 212.24 187.0, 212.1 187.17, 211.97 187.33, 211.84 187.5, 211.7 187.67, 211.57 187.83, 211.43 188.0, 211.29 188.17, 211.15 188.33, 211.02 188.5, 210.88 188.67, 210.74 188.83, 210.6 189.0, 210.45 189.17, 210.31 189.33, 210.17 189.5, 210.02 189.67, 209.88 189.83, 209.73 190.0, 209.59 190.17, 209.44 190.33, 209.29 190.5, 209.15 190.67, 209.0 190.83, 208.85 191.0, 208.7 191.17, 208.55 191.33, 208.4 191.5, 208.25 191.67, 208.09 191.83, 207.94 192.0, 207.79 192.17, 207.63 192.33, 207.48 192.5, 207.33 192.67, 207.17 192.83, 207.01 193.0, 206.86 193.17, 206.7 193.33, 206.54 193.5, 206.39 193.67, 206.23 193.83, 206.07 194.0, 205.91 194.17, 205.75 194.33, 205.59 194.5, 205.43 194.67, 205.27 194.83, 205.11 195.0, 204.95 195.17, 204.79 195.33, 204.62 195.5, 204.46 195.67, 204.3 195.83, 204.14 196.0, 203.97 196.17, 203.81 196.33, 203.65 196.5, 203.48 196.67, 203.32 196.83, 203.15 197.0, 202.99 197.17, 202.82 197.33, 202.66 197.5, 202.49 197.67, 202.33 197.83, 202.16 198.0, 202.0 198.17, 201.83 198.33, 201.66 198.5, 201.5 198.67, 201.33 198.83, 201.17 199.0, 201.0 199.17, 200.83 199.33, 200.67 199.5, 200.5 199.67, 200.33 199.83, 200.17 200.0, 200.0 200.17, 199.83 200.33, 199.67 200.5, 199.5 200.67, 199.33 200.83, 199.17 201.0, 199.0 201.17, 198.83 201.33, 198.67 201.5, 198.5 201.67, 198.34 201.83, 198.17 202.0, 198.0 202.17, 197.84 202.33, 197.67 202.5, 197.51 202.67, 197.34 202.83, 197.18 203.0, 197.01 203.17, 196.85 203.33, 196.68 203.5, 196.52 203.67, 196.35 203.83, 196.19 204.0, 196.03 204.17, 195.86 204.33, 195.7 204.5, 195.54 204.67, 195.38 204.83, 195.21 205.0, 195.05 205.17, 194.89 205.33, 194.73 205.5, 194.57 205.67, 194.41 205.83, 194.25 206.0, 194.09 206.17, 193.93 206.33, 193.77 206.5, 193.61 206.67, 193.46 206.83, 193.3 207.0, 193.14 207.17, 192.99 207.33, 192.83 207.5, 192.67 207.67, 192.52 207.83, 192.37 208.0, 192.21 208.17, 192.06 208.33, 191.91 208.5, 191.75 208.67, 191.6 208.83, 191.45 209.0, 191.3 209.17, 191.15 209.33, 191.0 209.5, 190.85 209.67, 190.71 209.83, 190.56 210.0, 190.41 210.17, 190.27 210.33, 190.12 210.5, 189.98 210.67, 189.83 210.83, 189.69 211.0, 189.55 211.17, 189.4 211.33, 189.26 211.5, 189.12 211.67, 188.98 211.83, 188.85 212.0, 188.71 212.17, 188.57 212.33, 188.43 212.5, 188.3 212.67, 188.16 212.83, 188.03 213.0, 187.9 213.17, 187.76 213.33, 187.63 213.5, 187.5 213.67, 187.37 213.83, 187.24 214.0, 187.12 214.17, 186.99 214.33, 186.86 214.5, 186.74 214.67, 186.61 214.83, 186.49 215.0, 186.37 215.17, 186.25 215.33, 186.12 215.5, 186.01 215.67, 185.89 215.83, 185.77 216.0, 185.65 216.17, 185.54 216.33, 185.42 216.5, 185.31 216.67, 185.2 216.83, 185.08 217.0, 184.97 217.17, 184.86 217.33, 184.76 217.5, 184.65 217.67, 184.54 217.83, 184.44 218.0, 184.33 218.17, 184.23 218.33, 184.13 218.5, 184.03 218.67, 183.93 218.83, 183.83 219.0, 183.73 219.17, 183.63 219.33, 183.54 219.5, 183.44 219.67, 183.35 219.83, 183.26 220.0, 183.17 220.17, 183.08 220.33, 182.99 220.5, 182.9 220.67, 182.82 220.83, 182.73 221.0, 182.65 221.17, 182.57 221.33, 182.49 221.5, 182.41 221.67, 182.33 221.83, 182.25 222.0, 182.17 222.17, 182.1 222.33, 182.02 222.5, 181.95 222.67, 181.88 222.83, 181.81 223.0, 181.74 223.17, 181.67 223.33, 181.61 223.5, 181.54 223.67, 181.48 223.83, 181.41 224.0, 181.35 224.17, 181.29 224.33, 181.23 224.5, 181.18 224.67, 181.12 224.83, 181.07 225.0, 181.01 225.17, 180.96 225.33, 180.91 225.5, 180.86 225.67, 180.81 225.83, 180.76 226.0, 180.72 226.17, 180.67 226.33, 180.63 226.5, 180.59 226.67, 180.55 226.83, 180.51 227.0, 180.47 227.17, 180.44 227.33, 180.4 227.5, 180.37 227.67, 180.33 227.83, 180.3 228.0, 180.27 228.17, 180.25 228.33, 180.22 228.5, 180.19 228.67, 180.17 228.83, 180.15 229.0, 180.12 229.17, 180.1 229.33, 180.08 229.5, 180.07 229.67, 180.05 229.83, 180.04 230.0, 180.02 230.17, 180.01 230.33, 180.0 230.5, 179.99 230.67, 179.98 230.83, 179.98 231.0, 179.97 231.17, 179.97 231.33, 179.96 231.5, 179.96 231.67, 179.96 231.83, 179.96 232.0, 179.97 232.17, 179.97 232.33, 179.97 232.5, 179.98 232.67, 179.99 232.83, 180.0 233.0, 180.01 233.17, 180.02 233.33, 180.04 233.5, 180.05 233.67, 180.07 233.83, 180.08 234.0, 180.1 234.17, 180.12 234.33, 180.14 234.5, 180.17 234.67, 180.19 234.83, 180.21 235.0, 180.24 235.17, 180.27 235.33, 180.3 235.5, 180.33 235.67, 180.36 235.83, 180.39 236.0, 180.43 236.17, 180.46 236.33, 180.5 236.5, 180.54 236.67, 180.58 236.83, 180.62 237.0, 180.66 237.17, 180.7 237.33, 180.75 237.5, 180.79 237.67, 180.84 237.83, 180.89 238.0, 180.94 238.17, 180.99 238.33, 181.04 238.5, 181.09 238.67, 181.14 238.83, 181.2 239.0, 181.26 239.17, 181.31 239.33, 181.37 239.5, 181.43 239.67, 181.49 239.83, 181.56 240.0, 181.62 240.17, 181.68 240.33, 181.75 240.5, 181.82 240.67, 181.88 240.83, 181.95 241.0, 182.02 241.17, 182.09 241.33, 182.17 241.5, 182.24 241.67, 182.31 241.83, 182.39 242.0, 182.47 242.17, 182.54 242.33, 182.62 242.5, 182.7 242.67, 182.78 242.83, 182.86 243.0, 182.95 243.17, 183.03 243.33, 183.11 243.5, 183.2 243.67, 183.29 243.83, 183.37 244.0, 183.46 244.17, 183.55 244.33, 183.64 244.5, 183.73 244.67, 183.82 244.83, 183.92 245.0, 184.01 245.17, 184.1 245.33, 184.2 245.5, 184.3 245.67, 184.39 245.83, 184.49 246.0, 184.59 246.17, 184.69 246.33, 184.79 246.5, 184.89 246.67, 184.99 246.83, 185.09 247.0, 185.2 247.17, 185.3 247.33, 185.41 247.5, 185.51 247.67, 185.62 247.83, 185.73 248.0, 185.83 248.17, 185.94 248.33, 186.05 248.5, 186.16 248.67, 186.27 248.83, 186.38 249.0, 186.49 249.17, 186.6 249.33, 186.72 249.5, 186.83 249.67, 186.94 249.83, 187.06 250.0, 187.17 250.17, 187.28 250.33, 187.4 250.5, 187.52 250.67, 187.63 250.83, 187.75 251.0, 187.87 251.17, 187.98 251.33, 188.1 251.5, 188.22 251.67, 188.34 251.83, 188.46 252.0, 188.58 252.17, 188.7 252.33, 188.82 252.5, 188.94 252.67, 189.06 252.83, 189.18 253.0, 189.3 253.17, 189.42 253.33, 189.54 253.5, 189.66 253.67, 189.79 253.83, 189.91 254.0, 190.03 254.17, 190.15 254.33, 190.27 254.5, 190.4 254.67, 190.52 254.83, 190.64 255.0, 190.77 255.17, 190.89 255.33, 191.01 255.5, 191.13 255.67, 191.26 255.83, 191.38 256.0, 191.5 256.17, 191.62 256.33, 191.75 256.5, 191.87 256.67, 191.99 256.83, 192.11 257.0, 192.23 257.17, 192.36 257.33, 192.48 257.5, 192.6 257.67, 192.72 257.83, 192.84 258.0, 192.96 258.17, 193.08 258.33, 193.2 258.5, 193.32 258.67, 193.44 258.83, 193.56 259.0, 193.68 259.17, 193.8 259.33, 193.91 259.5, 194.03 259.67, 194.15 259.83, 194.27 260.0, 194.38 260.17, 194.5 260.33, 194.61 260.5, 194.73 260.67, 194.84 260.83, 194.95 261.0, 195.07 261.17, 195.18 261.33, 195.29 261.5, 195.4 261.67, 195.51 261.83, 195.62 262.0, 195.73 262.17, 195.84 262.33, 195.94 262.5, 196.05 262.67, 196.16 262.83, 196.26 263.0, 196.37 263.17, 196.47 263.33, 196.57 263.5, 196.67 263.67, 196.77 263.83, 196.87 264.0, 196.97 264.17, 197.07 264.33, 197.17 264.5, 197.26 264.67, 197.36 264.83, 197.45 265.0, 197.54 265.17, 197.64 265.33, 197.73 265.5, 197.82 265.67, 197.9 265.83, 197.99 266.0, 198.08 266.17, 198.16 266.33, 198.25 266.5, 198.33 266.67, 198.41 266.83, 198.49 267.0, 198.57 267.17, 198.65 267.33, 198.72 267.5, 198.8 267.67, 198.87 267.83, 198.94 268.0, 199.01 268.17, 199.08 268.33, 199.15 268.5, 199.21 268.67, 199.28 268.83, 199.34 269.0, 199.4 269.17, 199.46 269.33, 199.52 269.5, 199.58 269.67, 199.64 269.83, 199.69 270.0, 199.74 270.17, 199.79 270.33, 199.84 270.5, 199.89 270.67, 199.93 270.83, 199.98 271.0, 200.02 271.17, 200.06 271.33, 200.1 271.5, 200.14 271.67, 200.17 271.83, 200.2 272.0, 200.24 272.17, 200.26 272.33, 200.29 272.5, 200.32 272.67, 200.34 272.83, 200.36 273.0, 200.38 273.17, 200.4 273.33, 200.42 273.5, 200.43 273.67, 200.44 273.83, 200.45 274.0, 200.46 274.17, 200.47 274.33, 200.47 274.5, 200.47 274.67, 200.47 274.83, 200.47 275.0, 200.46 275.17, 200.46 275.33, 200.45 275.5, 200.44 275.67, 200.42 275.83, 200.41 276.0, 200.39 276.17, 200.37 276.33, 200.34 276.5, 200.32 276.67, 200.29 276.83, 200.26 277.0, 200.23 277.17, 200.2 277.33, 200.16 277.5, 200.12 277.67, 200.08 277.83, 200.03 278.0, 199.99 278.17, 199.94 278.33, 199.89 278.5, 199.83 278.67, 199.78 278.83, 199.72 279.0, 199.66 279.17, 199.59 279.33, 199.53 279.5, 199.46 279.67, 199.39 279.83, 199.31 280.0, 199.24 280.17, 199.16 280.33, 199.08 280.5, 198.99 280.67, 198.91 280.83, 198.82 281.0, 198.72 281.17, 198.63 281.33, 198.53 281.5, 198.43 281.67, 198.33 281.83, 198.22 282.0, 198.11 282.17, 198.0 282.33, 197.89 282.5, 197.77 282.67, 197.65 282.83, 197.53 283.0, 197.41 283.17, 197.28 283.33, 197.15 283.5, 197.02 283.67, 196.88 283.83, 196.74 284.0, 196.6 284.17, 196.46 284.33, 196.31 284.5, 196.16 284.67, 196.01 284.83, 195.85 285.0, 195.69 285.17, 195.53 285.33, 195.37 285.5, 195.2 285.67, 195.03 285.83, 194.86 286.0, 194.68 286.17, 194.5 286.33, 194.32 286.5, 194.14 286.67, 193.95 286.83, 193.76 287.0, 193.57 287.17, 193.37 287.33, 193.18 287.5, 192.97 287.67, 192.77 287.83, 192.56 288.0, 192.35 288.17, 192.14 288.33, 191.93 288.5, 191.71 288.67, 191.49 288.83, 191.26 289.0, 191.03 289.17, 190.8 289.33, 190.57 289.5, 190.34 289.67, 190.1 289.83, 189.86 290.0, 189.61 290.17, 189.36 290.33, 189.11 290.5, 188.86 290.67, 188.61 290.83, 188.35 291.0, 188.09 291.17, 187.82 291.33, 187.56 291.5, 187.29 291.67, 187.02 291.83, 186.74 292.0, 186.46 292.17, 186.18 292.33, 185.9 292.5, 185.61 292.67, 185.32 292.83, 185.03 293.0, 184.74 293.17, 184.44 293.33, 184.14 293.5, 183.84 293.67, 183.54 293.83, 183.23 294.0, 182.92 294.17, 182.61 294.33, 182.29 294.5, 181.98 294.67, 181.66 294.83, 181.33 295.0, 181.01 295.17, 180.68 295.33, 180.35 295.5, 180.02 295.67, 179.69 295.83, 179.35 296.0, 179.01 296.17, 178.67 296.33, 178.32 296.5, 177.98 296.67, 177.63 296.83, 177.28 297.0, 176.92 297.17, 176.57 297.33, 176.21 297.5, 175.85 297.67, 175.49 297.83, 175.13 298.0, 174.76 298.17, 174.39 298.33, 174.02 298.5, 173.65 298.67, 173.28 298.83, 172.9 299.0, 172.52 299.17, 172.14 299.33, 171.76 299.5, 171.38 299.67, 170.99 299.83, 170.61 300.0, 170.22 300.17, 169.83 300.33, 169.44 300.5, 169.04 300.67, 168.65 300.83, 168.25 301.0, 167.86 301.17, 167.46 301.33, 167.06 301.5, 166.66 301.67, 166.25 301.83, 165.85 302.0, 165.44 302.17, 165.04 302.33, 164.63 302.5, 164.22 302.67, 163.81 302.83, 163.4 303.0, 162.99 303.17, 162.57 303.33, 162.16 303.5, 161.75 303.67, 161.33 303.83, 160.92 304.0, 160.5 304.17, 160.08 304.33, 159.67 304.5, 159.25 304.67, 158.83 304.83, 158.41 305.0, 157.99 305.17, 157.57 305.33, 157.15 305.5, 156.73 305.67, 156.32 305.83, 155.9 306.0, 155.48 306.17, 155.06 306.33, 154.64 306.5, 154.22 306.67, 153.8 306.83, 153.38 307.0, 152.96 307.17, 152.55 307.33, 152.13 307.5, 151.72 307.67, 151.3 307.83, 150.89 308.0, 150.47 308.17, 150.06 308.33, 149.65 308.5, 149.24 308.67, 148.83 308.83, 148.42 309.0, 148.01 309.17, 147.61 309.33, 147.2 309.5, 146.8 309.67, 146.4 309.83, 146.0 310.0, 145.61 310.17, 145.21 310.33, 144.82 310.5, 144.43 310.67, 144.04 310.83, 143.65 311.0, 143.27 311.17, 142.88 311.33, 142.5 311.5, 142.13 311.67, 141.75 311.83, 141.38 312.0, 141.01 312.17, 140.65 312.33, 140.28 312.5, 139.93 312.67, 139.57 312.83, 139.22 313.0, 138.87 313.17, 138.52 313.33, 138.18 313.5, 137.84 313.67, 137.51 313.83, 137.18 314.0, 136.85 314.17, 136.53 314.33, 136.21 314.5, 135.9 314.67, 135.59 314.83, 135.29 315.0, 134.99 315.17, 134.69 315.33, 134.4 315.5, 134.12 315.67, 133.84 315.83, 133.57 316.0, 133.3 316.17, 133.04 316.33, 132.78 316.5, 132.53 316.67, 132.28 316.83, 132.05 317.0, 131.81 317.17, 131.59 317.33, 131.37 317.5, 131.16 317.67, 130.95 317.83, 130.75 318.0, 130.56 318.17, 130.37 318.33, 130.2 318.5, 130.03 318.67, 129.86 318.83, 129.71 319.0, 129.56 319.17, 129.42 319.33, 129.29 319.5, 129.17 319.67, 129.06 319.83, 128.95 320.0, 128.86 320.17, 128.77 320.33, 128.69 320.5, 128.62 320.67, 128.56 320.83, 128.51 321.0, 128.47 321.17, 128.44 321.33, 128.42 321.5, 128.41 321.67, 128.41 321.83, 128.43 322.0, 128.45 322.17, 128.48 322.33, 128.52 322.5, 128.58 322.67, 128.65 322.83, 128.72 323.0, 128.81 323.17, 128.92 323.33, 129.03 323.5, 129.16 323.67, 129.3 323.83, 129.45 324.0, 129.61 324.17, 129.79 324.33, 129.98 324.5, 130.19 324.67, 130.4 324.83, 130.64 325.0, 130.88 325.17, 131.14 325.33, 131.42 325.5, 131.71 325.67, 132.01 325.83, 132.33 326.0, 132.67 326.17, 133.02 326.33, 133.38 326.5, 133.76 326.67, 134.16 326.83, 134.58 327.0, 135.01 327.17, 135.45 327.33, 135.92 327.5, 136.4 327.67, 136.9 327.83, 137.42 328.0, 137.95 328.17, 138.5 328.33, 139.07 328.5, 139.66 328.67, 140.27 328.83, 140.9 329.0, 141.55 329.17, 142.21 329.33, 142.9 329.5, 143.61 329.67, 144.33 329.83, 145.08 330.0, 145.85 330.17, 146.63 330.33, 147.44 330.5, 148.28 330.67, 149.13 330.83, 150.0 331.0, 150.9 331.17, 151.82 331.33, 152.76 331.5, 153.73 331.67, 154.72 331.83, 155.73 332.0, 156.77 332.17, 157.83 332.33, 158.91 332.5, 160.02 332.67, 161.16 332.83, 162.32 333.0, 163.51 333.17, 164.72 333.33, 165.95 333.5, 167.22 333.67, 168.51 333.83, 169.83 334.0, 171.17 334.17, 172.54 334.33, 173.95 334.5, 175.37 334.67, 176.83 334.83, 178.32 335.0, 179.83 335.17, 181.38 335.33, 182.95 335.5, 184.56 335.67, 186.19 335.83, 187.85 336.0, 189.55 336.17, 191.28 336.33, 193.04 336.5, 194.83 336.67, 196.65 336.83, 198.51 337.0, 200.4 337.17, 202.32 337.33, 204.28 337.5, 206.27 337.67, 208.29 337.83, 210.35 338.0, 212.44 338.17, 214.57 338.33, 216.74 338.5, 218.94 338.67, 221.18 338.83, 223.45 339.0, 225.76 339.17, 228.11 339.33, 230.5 339.5, 232.92 339.67, 235.39 339.83, 237.89 340.0, 240.43 340.17, 243.01 340.33, 245.64 340.5, 248.3 340.67, 251.0 340.83, 253.75 341.0, 256.53 341.17, 259.36 341.33, 262.23 341.5, 265.15 341.67, 268.1 341.83, 271.1 342.0, 274.15 342.17, 277.24 342.33, 280.37 342.5, 283.55 342.67, 286.78 342.83, 290.05 343.0, 293.37 343.17, 296.73 343.33, 300.14 343.5, 303.6 343.67, 307.11 343.83, 310.67 344.0, 314.27 344.17, 317.93 344.33, 321.63 344.5, 325.39 344.67, 329.2 344.83, 333.06 345.0, 336.97 345.17, 340.93 345.33, 344.94 345.5, 349.01 345.67, 353.13 345.83, 357.31 346.0, 361.54 346.17, 365.83 346.33, 370.17 346.5, 374.57 346.67, 379.02 346.83, 383.53 347.0, 388.1 347.17, 392.72 347.33, 397.41 347.5, 402.15 347.67, 406.96 347.83, 411.82 348.0, 416.74 348.17, 421.73 348.33, 426.77 348.5, 431.88 348.67, 437.05 348.83, 442.28 349.0, 447.58 349.17, 452.94 349.33, 458.37 349.5, 463.86 349.67, 469.41 349.83, 475.03 350.0, 480.72 350.17, 486.48 350.33, 492.3 350.5, 498.2 350.67, 504.16 350.83, 510.19 351.0, 516.29 351.17, 522.46 351.33, 528.7 351.5, 535.02 351.67, 541.4 351.83, 547.86 352.0, 554.39 352.17, 561.0 352.33, 567.68 352.5, 574.44 352.67, 581.27 352.83, 588.18 353.0, 595.17 353.17, 602.23 353.33, 609.37 353.5, 616.59 353.67, 623.89 353.83, 631.27 354.0, 638.73 354.17, 646.27 354.33, 653.89 354.5, 661.6 354.67, 669.39 354.83, 677.26 355.0, 685.22 355.17, 693.26 355.33, 701.39 355.5, 709.6 355.67, 717.9 355.83, 726.29 356.0, 734.77 356.17, 743.33 356.33, 751.99 356.5, 760.74 356.67, 769.57 356.83, 778.5 357.0, 787.52 357.17, 796.64 357.33, 805.84 357.5, 815.14 357.67, 824.54 357.83, 834.03 358.0, 843.62 358.17, 853.31 358.33, 863.09 358.5, 872.98 358.67, 882.96 358.83, 893.04 359.0, 903.22 359.17, 913.51 359.33, 923.89 359.5, 934.38 359.67, 944.98 359.83, 955.67 360.0, 966.48 360.17, 977.38 360.33, 988.4 360.5, 999.52 360.67, 1010.75 360.83, 1022.09 361.0, 1033.54 361.17, 1045.1 361.33, 1056.78 361.5, 1068.56 361.67, 1080.46 361.83, 1092.47 362.0, 1104.59 362.17, 1116.83 362.33, 1129.19 362.5, 1141.66 362.67, 1154.25 362.83, 1166.96 363.0, 1179.78 363.17, 1192.73 363.33, 1205.8 363.5, 1218.99 363.67, 1232.31 363.83, 1245.74 364.0, 1259.3 364.17, 1272.99 364.33, 1286.8 364.5, 1300.74 364.67, 1314.81 364.83, 1329.0 365.0, 1343.33 365.17, 1357.78 365.33, 1372.37 365.5, 1387.09 365.67, 1401.94 365.83, 1416.92 366.0, 1432.04 366.17, 1447.3 366.33, 1462.69 366.5, 1478.22 366.67, 1493.89 366.83, 1509.69 367.0, 1525.64 367.17, 1541.73 367.33, 1557.96 367.5, 1574.33 367.67, 1590.85 367.83, 1607.51 368.0, 1624.32 368.17, 1641.27 368.33, 1658.38 368.5, 1675.63 368.67, 1693.03 368.83, 1710.58 369.0, 1728.28 369.17, 1746.14 369.33, 1764.14 369.5, 1782.31 369.67, 1800.63 369.83, 1819.1 370.0, 1837.73 370.17, 1856.52 370.33, 1875.48 370.5, 1894.59 370.67, 1913.86 370.83, 1933.29 371.0, 1952.89 371.17, 1972.66 371.33, 1992.59 371.5, 2012.68 371.67, 2032.95 371.83, 2053.38 372.0, 2073.98 372.17, 2094.76 372.33, 2115.7 372.5, 2136.82 372.67, 2158.11 372.83, 2179.58 373.0, 2201.23 373.17, 2223.05 373.33, 2245.05 373.5, 2267.23 373.67, 2289.59 373.83, 2312.13 374.0, 2334.86 374.17, 2357.77 374.33, 2380.87 374.5, 2404.15 374.67, 2427.62 374.83, 2451.28 375.0, 2475.12 375.17, 2499.16 375.33, 2523.39 375.5, 2547.82 375.67, 2572.44 375.83, 2597.25 376.0, 2622.26 376.17, 2647.47 376.33, 2672.88 376.5, 2698.49 376.67, 2724.3 376.83, 2750.32 377.0, 2776.54 377.17, 2802.96 377.33, 2829.59 377.5, 2856.43 377.67, 2883.47 377.83, 2910.73 378.0, 2938.2 378.17, 2965.88 378.33, 2993.77 378.5, 3021.88 378.67, 3050.21 378.83, 3078.75 379.0, 3107.52 379.17, 3136.5 379.33, 3165.71 379.5, 3195.13 379.67, 3224.79 379.83, 3254.67 380.0, 3284.77 380.17, 3315.1 380.33, 3345.67 380.5, 3376.46 380.67, 3407.49 380.83, 3438.74 381.0, 3470.24 381.17, 3501.97 381.33, 3533.94 381.5, 3566.14 381.67, 3598.59 381.83, 3631.28 382.0, 3664.21 382.17, 3697.39 382.33, 3730.81 382.5, 3764.48 382.67, 3798.4 382.83, 3832.57 383.0, 3866.99 383.17, 3901.66 383.33, 3936.59 383.5, 3971.77 383.67, 4007.21 383.83, 4042.91 384.0, 4078.87 384.17, 4115.09 384.33, 4151.57 384.5, 4188.32 384.67, 4225.33 384.83, 4262.62 385.0, 4300.17 385.17, 4337.99 385.33, 4376.08 385.5, 4414.45 385.67, 4453.09 385.83, 4492.01 386.0, 4531.21 386.17, 4570.68 386.33, 4610.44 386.5, 4650.48 386.67, 4690.81 386.83, 4731.42 387.0, 4772.31 387.17, 4813.5 387.33, 4854.98 387.5, 4896.75 387.67, 4938.81 387.83, 4981.17 388.0, 5023.83 388.17, 5066.78 388.33, 5110.03 388.5, 5153.59 388.67, 5197.45 388.83, 5241.62 389.0, 5286.09 389.17, 5330.87 389.33, 5375.96 389.5, 5421.36 389.67, 5467.08 389.83, 5513.11 390.0, 5559.45 390.17, 5606.12 390.33, 5653.11 390.5, 5700.41 390.67, 5748.05 390.83, 5796.0 391.0, 5844.29 391.17, 5892.9 391.33, 5941.84 391.5, 5991.12 391.67, 6040.73 391.83, 6090.67 392.0, 6140.96 392.17, 6191.58 392.33, 6242.54 392.5, 6293.85 392.67, 6345.5 392.83, 6397.5 393.0, 6449.84 393.17, 6502.54 393.33, 6555.59 393.5, 6608.99 393.67, 6662.75 393.83, 6716.87 394.0, 6771.34 394.17, 6826.18 394.33, 6881.38 394.5, 6936.94 394.67, 6992.87 394.83, 7049.17 395.0, 7105.84 395.17, 7162.89 395.33, 7220.31 395.5, 7278.1 395.67, 7336.27 395.83, 7394.83 396.0, 7453.76 396.17, 7513.08 396.33, 7572.79 396.5, 7632.88 396.67, 7693.37 396.83, 7754.24 397.0, 7815.51 397.17, 7877.18 397.33, 7939.25 397.5, 8001.71 397.67, 8064.58 397.83, 8127.85 398.0, 8191.53 398.17, 8255.61 398.33, 8320.11 398.5, 8385.02 398.67, 8450.34 398.83, 8516.08 399.0, 8582.24 399.17, 8648.82 399.33, 8715.82 399.5, 8783.24 399.67, 8851.1 399.83, 8919.38 400.0, 8988.1 " fill="none" stroke="white" stroke-width="1.5" stroke-linejoin="round" stroke-opacity="1"/>

 </svg>