<svg version="1.1" 
 baseProfile="full" 
 width="400" 
 height="400" 
 xmlns="http://www.w3.org/2000/svg">
<rect x="0.0" y="0.0" width="400" height="400" fill="black" stroke="black" stroke-width="0" opacity="1"/>
<line x1="0.0" y1="0.0" x2="0.0" y2="400.0" stroke="white" stroke-width="1" opacity="0.4" stroke-linecap="butt"/>
<line x1="40.0" y1="0.0" x2="40.0" y2="400.0" stroke="white" stroke-width="1" opacity="0.4" stroke-linecap="butt"/>
<line x1="80.0" y1="0.0" x2="80.0" y2="400.0" stroke="white" stroke-width="1" opacity="0.4" stroke-linecap="butt"/>
<line x1="120.0" y1="0.0" x2="120.0" y2="400.0" stroke="white" stroke-width="1" opacity="0.4" stroke-linecap="butt"/>
<line x1="160.0" y1="0.0" x2="160.0" y2="400.0" stroke="white" stroke-width="1" opacity="0.4" stroke-linecap="butt"/>
<line x1="200.0" y1="0.0" x2="200.0" y2="400.0" stroke="white" stroke-width="1" opacity="0.4" stroke-linecap="butt"/>
<line x1="240.0" y1="0.0" x2="240.0" y2="400.0" stroke="white" stroke-width="1" opacity="0.4" stroke-linecap="butt"/>
<line x1="280.0" y1="0.0" x2="280.0" y2="400.0" stroke="white" stroke-width="1" opacity="0.4" stroke-linecap="butt"/>
<line x1="320.0" y1="0.0" x2="320.0" y2="400.0" stroke="white" stroke-width="1" opacity="0.4" stroke-linecap="butt"/>
<line x1="360.0" y1="0.0" x2="360.0" y2="400.0" stroke="white" stroke-width="1" opacity="0.4" stroke-linecap="butt"/>
<line x1="0.0" y1="0.0" x2="400.0" y2="0.0" stroke="white" stroke-width="1" opacity="0.4" stroke-linecap="butt"/>
<line x1="0.0" y1="40.0" x2="400.0" y2="40.0" stroke="white" stroke-width="1" opacity="0.4" stroke-linecap="butt"/>
<line x1="0.0" y1="80.0" x2="400.0" y2="80.0" stroke="white" stroke-width="1" opacity="0.4" stroke-linecap="butt"/>
<line x1="0.0" y1="120.0" x2="400.0" y2="120.0" stroke="white" stroke-width="1" opacity="0.4" stroke-linecap="butt"/>
<line x1="0.0" y1="160.0" x2="400.0" y2="160.0" stroke="white" stroke-width="1" opacity="0.4" stroke-linecap="butt"/>
<line x1="0.0" y1="200.0" x2="400.0" y2="200.0" stroke="white" stroke-width="1" opacity="0.4" stroke-linecap="butt"/>
<line x1="0.0" y1="240.0" x2="400.0" y2="240.0" stroke="white" stroke-width="1" opacity="0.4" stroke-linecap="butt"/>
<line x1="0.0" y1="280.0" x2="400.0" y2="280.0" stroke="white" stroke-width="1" opacity="0.4" stroke-linecap="butt"/>
<line x1="0.0" y1="320.0" x2="400.0" y2="320.0" stroke="white" stroke-width="1" opacity="0.4" stroke-linecap="butt"/>
<line x1="0.0" y1="360.0" x2="400.0" y2="360.0" stroke="white" stroke-width="1" opacity="0.4" stroke-linecap="butt"/>
<line x1="0.0" y1="200.0" x2="400.0" y2="200.0" stroke="yellow" stroke-width="2.5" opacity="1" stroke-linecap="butt"/>
<line x1="200.0" y1="0.0" x2="200.0" y2="400.0" stroke="yellow" stroke-width="2.5" opacity="1" stroke-linecap="butt"/>
<polygon points="391.0 204.0, 401.0 200.0, 391.0 196.0, 393.0 200.0" fill="yellow"/><polygon points="204.0 9.0, 200.0 -1.0, 196.0 9.0, 200.0 7.0" fill="yellow"/><image x="-60.0" y="-60.0" width="200" height="200" href="/Users/girirajhira/PycharmProjects/Giraphics3/Taylor/expr.png"/><polyline points="0.0, -8092.06 0.17, -8026.24 0.33, -7960.82 0.5, -7895.83 0.67, -7831.25 0.83, -7767.07 1.0, -7703.31 1.17, -7639.95 1.33, -7577.0 1.5, -7514.45 1.67, -7452.3 1.83, -7390.55 2.0, -7329.19 2.17, -7268.23 2.33, -7207.66 2.5, -7147.49 2.67, -7087.7 2.83, -7028.3 3.0, -6969.28 3.17, -6910.64 3.33, -6852.39 3.5, -6794.52 3.67, -6737.02 3.83, -6679.89 4.0, -6623.14 4.17, -6566.77 4.33, -6510.76 4.5, -6455.11 4.67, -6399.84 4.83, -6344.92 5.0, -6290.37 5.17, -6236.18 5.33, -6182.35 5.5, -6128.87 5.67, -6075.75 5.83, -6022.98 6.0, -5970.56 6.17, -5918.48 6.33, -5866.76 6.5, -5815.38 6.67, -5764.35 6.83, -5713.65 7.0, -5663.3 7.17, -5613.28 7.33, -5563.6 7.5, -5514.26 7.67, -5465.25 7.83, -5416.57 8.0, -5368.21 8.17, -5320.19 8.33, -5272.49 8.5, -5225.12 8.67, -5178.07 8.83, -5131.34 9.0, -5084.92 9.17, -5038.83 9.33, -4993.05 9.5, -4947.58 9.67, -4902.43 9.83, -4857.59 10.0, -4813.06 10.17, -4768.83 10.33, -4724.91 10.5, -4681.29 10.67, -4637.98 10.83, -4594.97 11.0, -4552.25 11.17, -4509.84 11.33, -4467.72 11.5, -4425.89 11.67, -4384.36 11.83, -4343.11 12.0, -4302.16 12.17, -4261.5 12.33, -4221.12 12.5, -4181.02 12.67, -4141.21 12.83, -4101.68 13.0, -4062.44 13.17, -4023.47 13.33, -3984.77 13.5, -3946.36 13.67, -3908.21 13.83, -3870.34 14.0, -3832.74 14.17, -3795.41 14.33, -3758.35 14.5, -3721.56 14.67, -3685.03 14.83, -3648.76 15.0, -3612.76 15.17, -3577.01 15.33, -3541.53 15.5, -3506.3 15.67, -3471.33 15.83, -3436.62 16.0, -3402.16 16.17, -3367.95 16.33, -3333.99 16.5, -3300.28 16.67, -3266.82 16.83, -3233.6 17.0, -3200.63 17.17, -3167.91 17.33, -3135.42 17.5, -3103.18 17.67, -3071.18 17.83, -3039.41 18.0, -3007.88 18.17, -2976.59 18.33, -2945.53 18.5, -2914.7 18.67, -2884.11 18.83, -2853.74 19.0, -2823.61 19.17, -2793.7 19.33, -2764.02 19.5, -2734.56 19.67, -2705.32 19.83, -2676.31 20.0, -2647.52 20.17, -2618.95 20.33, -2590.59 20.5, -2562.46 20.67, -2534.54 20.83, -2506.83 21.0, -2479.34 21.17, -2452.06 21.33, -2424.99 21.5, -2398.13 21.67, -2371.48 21.83, -2345.03 22.0, -2318.8 22.17, -2292.76 22.33, -2266.93 22.5, -2241.3 22.67, -2215.87 22.83, -2190.65 23.0, -2165.62 23.17, -2140.79 23.33, -2116.15 23.5, -2091.71 23.67, -2067.46 23.83, -2043.41 24.0, -2019.55 24.17, -1995.88 24.33, -1972.39 24.5, -1949.1 24.67, -1925.99 24.83, -1903.07 25.0, -1880.33 25.17, -1857.78 25.33, -1835.41 25.5, -1813.22 25.67, -1791.21 25.83, -1769.38 26.0, -1747.73 26.17, -1726.26 26.33, -1704.96 26.5, -1683.83 26.67, -1662.88 26.83, -1642.1 27.0, -1621.5 27.17, -1601.06 27.33, -1580.79 27.5, -1560.69 27.67, -1540.76 27.83, -1521.0 28.0, -1501.4 28.17, -1481.96 28.33, -1462.69 28.5, -1443.58 28.67, -1424.63 28.83, -1405.84 29.0, -1387.21 29.17, -1368.74 29.33, -1350.43 29.5, -1332.27 29.67, -1314.26 29.83, -1296.41 30.0, -1278.72 30.17, -1261.17 30.33, -1243.78 30.5, -1226.54 30.67, -1209.44 30.83, -1192.5 31.0, -1175.7 31.17, -1159.04 31.33, -1142.54 31.5, -1126.18 31.67, -1109.96 31.83, -1093.88 32.0, -1077.94 32.17, -1062.15 32.33, -1046.5 32.5, -1030.98 32.67, -1015.6 32.83, -1000.36 33.0, -985.26 33.17, -970.29 33.33, -955.45 33.5, -940.75 33.67, -926.18 33.83, -911.75 34.0, -897.44 34.17, -883.26 34.33, -869.22 34.5, -855.3 34.67, -841.5 34.83, -827.84 35.0, -814.3 35.17, -800.88 35.33, -787.59 35.5, -774.42 35.67, -761.38 35.83, -748.45 36.0, -735.65 36.17, -722.97 36.33, -710.4 36.5, -697.95 36.67, -685.62 36.83, -673.41 37.0, -661.31 37.17, -649.33 37.33, -637.46 37.5, -625.71 37.67, -614.06 37.83, -602.53 38.0, -591.11 38.17, -579.8 38.33, -568.6 38.5, -557.51 38.67, -546.53 38.83, -535.65 39.0, -524.88 39.17, -514.22 39.33, -503.66 39.5, -493.2 39.67, -482.85 39.83, -472.6 40.0, -462.45 40.17, -452.4 40.33, -442.46 40.5, -432.61 40.67, -422.86 40.83, -413.22 41.0, -403.66 41.17, -394.21 41.33, -384.85 41.5, -375.59 41.67, -366.42 41.83, -357.35 42.0, -348.37 42.17, -339.48 42.33, -330.68 42.5, -321.98 42.67, -313.36 42.83, -304.84 43.0, -296.41 43.17, -288.06 43.33, -279.8 43.5, -271.63 43.67, -263.55 43.83, -255.55 44.0, -247.64 44.17, -239.81 44.33, -232.07 44.5, -224.41 44.67, -216.83 44.83, -209.34 45.0, -201.92 45.17, -194.59 45.33, -187.34 45.5, -180.17 45.67, -173.07 45.83, -166.06 46.0, -159.12 46.17, -152.26 46.33, -145.48 46.5, -138.78 46.67, -132.15 46.83, -125.59 47.0, -119.11 47.17, -112.7 47.33, -106.37 47.5, -100.1 47.67, -93.92 47.83, -87.8 48.0, -81.75 48.17, -75.77 48.33, -69.87 48.5, -64.03 48.67, -58.26 48.83, -52.56 49.0, -46.92 49.17, -41.36 49.33, -35.86 49.5, -30.42 49.67, -25.05 49.83, -19.75 50.0, -14.51 50.17, -9.34 50.33, -4.22 50.5, 0.83 50.67, 5.81 50.83, 10.74 51.0, 15.6 51.17, 20.41 51.33, 25.15 51.5, 29.83 51.67, 34.46 51.83, 39.03 52.0, 43.53 52.17, 47.98 52.33, 52.37 52.5, 56.71 52.67, 60.99 52.83, 65.21 53.0, 69.38 53.17, 73.5 53.33, 77.56 53.5, 81.56 53.67, 85.51 53.83, 89.41 54.0, 93.26 54.17, 97.05 54.33, 100.79 54.5, 104.49 54.67, 108.13 54.83, 111.72 55.0, 115.26 55.17, 118.75 55.33, 122.19 55.5, 125.59 55.67, 128.93 55.83, 132.23 56.0, 135.48 56.17, 138.69 56.33, 141.84 56.5, 144.96 56.67, 148.02 56.83, 151.04 57.0, 154.02 57.17, 156.95 57.33, 159.84 57.5, 162.69 57.67, 165.49 57.83, 168.25 58.0, 170.97 58.17, 173.64 58.33, 176.28 58.5, 178.87 58.67, 181.42 58.83, 183.93 59.0, 186.4 59.17, 188.84 59.33, 191.23 59.5, 193.58 59.67, 195.9 59.83, 198.18 60.0, 200.42 60.17, 202.62 60.33, 204.79 60.5, 206.92 60.67, 209.01 60.83, 211.07 61.0, 213.09 61.17, 215.08 61.33, 217.03 61.5, 218.94 61.67, 220.83 61.83, 222.68 62.0, 224.49 62.17, 226.28 62.33, 228.03 62.5, 229.74 62.67, 231.43 62.83, 233.08 63.0, 234.71 63.17, 236.3 63.33, 237.86 63.5, 239.39 63.67, 240.89 63.83, 242.36 64.0, 243.8 64.17, 245.21 64.33, 246.59 64.5, 247.94 64.67, 249.27 64.83, 250.57 65.0, 251.84 65.17, 253.08 65.33, 254.29 65.5, 255.48 65.67, 256.65 65.83, 257.78 66.0, 258.89 66.17, 259.98 66.33, 261.03 66.5, 262.07 66.67, 263.08 66.83, 264.06 67.0, 265.02 67.17, 265.96 67.33, 266.87 67.5, 267.76 67.67, 268.63 67.83, 269.47 68.0, 270.29 68.17, 271.09 68.33, 271.87 68.5, 272.62 68.67, 273.35 68.83, 274.06 69.0, 274.75 69.17, 275.42 69.33, 276.07 69.5, 276.7 69.67, 277.31 69.83, 277.9 70.0, 278.47 70.17, 279.02 70.33, 279.55 70.5, 280.06 70.67, 280.56 70.83, 281.03 71.0, 281.49 71.17, 281.93 71.33, 282.35 71.5, 282.76 71.67, 283.14 71.83, 283.51 72.0, 283.87 72.17, 284.2 72.33, 284.52 72.5, 284.83 72.67, 285.11 72.83, 285.39 73.0, 285.64 73.17, 285.89 73.33, 286.11 73.5, 286.32 73.67, 286.52 73.83, 286.7 74.0, 286.87 74.17, 287.03 74.33, 287.17 74.5, 287.29 74.67, 287.41 74.83, 287.51 75.0, 287.6 75.17, 287.67 75.33, 287.73 75.5, 287.78 75.67, 287.82 75.83, 287.84 76.0, 287.86 76.17, 287.86 76.33, 287.85 76.5, 287.82 76.67, 287.79 76.83, 287.75 77.0, 287.69 77.17, 287.62 77.33, 287.55 77.5, 287.46 77.67, 287.36 77.83, 287.26 78.0, 287.14 78.17, 287.01 78.33, 286.88 78.5, 286.73 78.67, 286.58 78.83, 286.41 79.0, 286.24 79.17, 286.06 79.33, 285.87 79.5, 285.67 79.67, 285.47 79.83, 285.25 80.0, 285.03 80.17, 284.8 80.33, 284.56 80.5, 284.31 80.67, 284.06 80.83, 283.8 81.0, 283.53 81.17, 283.26 81.33, 282.98 81.5, 282.69 81.67, 282.39 81.83, 282.09 82.0, 281.79 82.17, 281.47 82.33, 281.15 82.5, 280.83 82.67, 280.5 82.83, 280.16 83.0, 279.82 83.17, 279.47 83.33, 279.12 83.5, 278.76 83.67, 278.39 83.83, 278.03 84.0, 277.65 84.17, 277.28 84.33, 276.89 84.5, 276.51 84.67, 276.12 84.83, 275.72 85.0, 275.32 85.17, 274.92 85.33, 274.51 85.5, 274.1 85.67, 273.69 85.83, 273.27 86.0, 272.85 86.17, 272.42 86.33, 271.99 86.5, 271.56 86.67, 271.13 86.83, 270.69 87.0, 270.25 87.17, 269.81 87.33, 269.36 87.5, 268.91 87.67, 268.46 87.83, 268.01 88.0, 267.55 88.17, 267.1 88.33, 266.64 88.5, 266.18 88.67, 265.71 88.83, 265.25 89.0, 264.78 89.17, 264.31 89.33, 263.84 89.5, 263.37 89.67, 262.9 89.83, 262.42 90.0, 261.95 90.17, 261.47 90.33, 260.99 90.5, 260.51 90.67, 260.03 90.83, 259.55 91.0, 259.07 91.17, 258.59 91.33, 258.11 91.5, 257.62 91.67, 257.14 91.83, 256.65 92.0, 256.17 92.17, 255.68 92.33, 255.2 92.5, 254.71 92.67, 254.23 92.83, 253.74 93.0, 253.26 93.17, 252.77 93.33, 252.29 93.5, 251.8 93.67, 251.32 93.83, 250.83 94.0, 250.35 94.17, 249.87 94.33, 249.38 94.5, 248.9 94.67, 248.42 94.83, 247.94 95.0, 247.46 95.17, 246.98 95.33, 246.5 95.5, 246.03 95.67, 245.55 95.83, 245.07 96.0, 244.6 96.17, 244.13 96.33, 243.65 96.5, 243.18 96.67, 242.71 96.83, 242.25 97.0, 241.78 97.17, 241.31 97.33, 240.85 97.5, 240.39 97.67, 239.93 97.83, 239.47 98.0, 239.01 98.17, 238.55 98.33, 238.1 98.5, 237.65 98.67, 237.19 98.83, 236.75 99.0, 236.3 99.17, 235.85 99.33, 235.41 99.5, 234.97 99.67, 234.53 99.83, 234.09 100.0, 233.66 100.17, 233.22 100.33, 232.79 100.5, 232.36 100.67, 231.94 100.83, 231.51 101.0, 231.09 101.17, 230.67 101.33, 230.25 101.5, 229.84 101.67, 229.42 101.83, 229.01 102.0, 228.6 102.17, 228.2 102.33, 227.79 102.5, 227.39 102.67, 227.0 102.83, 226.6 103.0, 226.21 103.17, 225.82 103.33, 225.43 103.5, 225.04 103.67, 224.66 103.83, 224.28 104.0, 223.9 104.17, 223.53 104.33, 223.16 104.5, 222.79 104.67, 222.42 104.83, 222.06 105.0, 221.7 105.17, 221.34 105.33, 220.98 105.5, 220.63 105.67, 220.28 105.83, 219.94 106.0, 219.59 106.17, 219.25 106.33, 218.91 106.5, 218.58 106.67, 218.25 106.83, 217.92 107.0, 217.59 107.17, 217.27 107.33, 216.95 107.5, 216.63 107.67, 216.32 107.83, 216.01 108.0, 215.7 108.17, 215.39 108.33, 215.09 108.5, 214.79 108.67, 214.5 108.83, 214.21 109.0, 213.92 109.17, 213.63 109.33, 213.35 109.5, 213.06 109.67, 212.79 109.83, 212.51 110.0, 212.24 110.17, 211.97 110.33, 211.71 110.5, 211.45 110.67, 211.19 110.83, 210.93 111.0, 210.68 111.17, 210.43 111.33, 210.18 111.5, 209.94 111.67, 209.7 111.83, 209.46 112.0, 209.23 112.17, 209.0 112.33, 208.77 112.5, 208.55 112.67, 208.33 112.83, 208.11 113.0, 207.89 113.17, 207.68 113.33, 207.47 113.5, 207.26 113.67, 207.06 113.83, 206.86 114.0, 206.67 114.17, 206.47 114.33, 206.28 114.5, 206.09 114.67, 205.91 114.83, 205.73 115.0, 205.55 115.17, 205.37 115.33, 205.2 115.5, 205.03 115.67, 204.87 115.83, 204.7 116.0, 204.54 116.17, 204.39 116.33, 204.23 116.5, 204.08 116.67, 203.93 116.83, 203.79 117.0, 203.64 117.17, 203.5 117.33, 203.37 117.5, 203.23 117.67, 203.1 117.83, 202.98 118.0, 202.85 118.17, 202.73 118.33, 202.61 118.5, 202.49 118.67, 202.38 118.83, 202.27 119.0, 202.16 119.17, 202.06 119.33, 201.96 119.5, 201.86 119.67, 201.76 119.83, 201.67 120.0, 201.57 120.17, 201.49 120.33, 201.4 120.5, 201.32 120.67, 201.24 120.83, 201.16 121.0, 201.09 121.17, 201.01 121.33, 200.94 121.5, 200.88 121.67, 200.81 121.83, 200.75 122.0, 200.69 122.17, 200.64 122.33, 200.58 122.5, 200.53 122.67, 200.48 122.83, 200.44 123.0, 200.39 123.17, 200.35 123.33, 200.31 123.5, 200.28 123.67, 200.24 123.83, 200.21 124.0, 200.18 124.17, 200.15 124.33, 200.13 124.5, 200.11 124.67, 200.09 124.83, 200.07 125.0, 200.05 125.17, 200.04 125.33, 200.03 125.5, 200.02 125.67, 200.02 125.83, 200.01 126.0, 200.01 126.17, 200.01 126.33, 200.01 126.5, 200.02 126.67, 200.03 126.83, 200.03 127.0, 200.05 127.17, 200.06 127.33, 200.07 127.5, 200.09 127.67, 200.11 127.83, 200.13 128.0, 200.15 128.17, 200.18 128.33, 200.21 128.5, 200.23 128.67, 200.27 128.83, 200.3 129.0, 200.33 129.17, 200.37 129.33, 200.41 129.5, 200.45 129.67, 200.49 129.83, 200.53 130.0, 200.58 130.17, 200.62 130.33, 200.67 130.5, 200.72 130.67, 200.78 130.83, 200.83 131.0, 200.88 131.17, 200.94 131.33, 201.0 131.5, 201.06 131.67, 201.12 131.83, 201.18 132.0, 201.25 132.17, 201.32 132.33, 201.38 132.5, 201.45 132.67, 201.52 132.83, 201.59 133.0, 201.67 133.17, 201.74 133.33, 201.82 133.5, 201.89 133.67, 201.97 133.83, 202.05 134.0, 202.13 134.17, 202.22 134.33, 202.3 134.5, 202.38 134.67, 202.47 134.83, 202.56 135.0, 202.65 135.17, 202.74 135.33, 202.83 135.5, 202.92 135.67, 203.01 135.83, 203.1 136.0, 203.2 136.17, 203.29 136.33, 203.39 136.5, 203.49 136.67, 203.59 136.83, 203.69 137.0, 203.79 137.17, 203.89 137.33, 203.99 137.5, 204.09 137.67, 204.2 137.83, 204.3 138.0, 204.41 138.17, 204.51 138.33, 204.62 138.5, 204.73 138.67, 204.84 138.83, 204.95 139.0, 205.06 139.17, 205.17 139.33, 205.28 139.5, 205.39 139.67, 205.5 139.83, 205.61 140.0, 205.73 140.17, 205.84 140.33, 205.96 140.5, 206.07 140.67, 206.19 140.83, 206.3 141.0, 206.42 141.17, 206.53 141.33, 206.65 141.5, 206.77 141.67, 206.89 141.83, 207.01 142.0, 207.12 142.17, 207.24 142.33, 207.36 142.5, 207.48 142.67, 207.6 142.83, 207.72 143.0, 207.84 143.17, 207.96 143.33, 208.08 143.5, 208.2 143.67, 208.32 143.83, 208.44 144.0, 208.57 144.17, 208.69 144.33, 208.81 144.5, 208.93 144.67, 209.05 144.83, 209.17 145.0, 209.29 145.17, 209.42 145.33, 209.54 145.5, 209.66 145.67, 209.78 145.83, 209.9 146.0, 210.02 146.17, 210.14 146.33, 210.26 146.5, 210.38 146.67, 210.51 146.83, 210.63 147.0, 210.75 147.17, 210.87 147.33, 210.99 147.5, 211.11 147.67, 211.22 147.83, 211.34 148.0, 211.46 148.17, 211.58 148.33, 211.7 148.5, 211.82 148.67, 211.93 148.83, 212.05 149.0, 212.17 149.17, 212.29 149.33, 212.4 149.5, 212.52 149.67, 212.63 149.83, 212.75 150.0, 212.86 150.17, 212.97 150.33, 213.09 150.5, 213.2 150.67, 213.31 150.83, 213.42 151.0, 213.54 151.17, 213.65 151.33, 213.76 151.5, 213.87 151.67, 213.97 151.83, 214.08 152.0, 214.19 152.17, 214.3 152.33, 214.4 152.5, 214.51 152.67, 214.61 152.83, 214.72 153.0, 214.82 153.17, 214.92 153.33, 215.03 153.5, 215.13 153.67, 215.23 153.83, 215.33 154.0, 215.43 154.17, 215.53 154.33, 215.62 154.5, 215.72 154.67, 215.82 154.83, 215.91 155.0, 216.0 155.17, 216.1 155.33, 216.19 155.5, 216.28 155.67, 216.37 155.83, 216.46 156.0, 216.55 156.17, 216.64 156.33, 216.73 156.5, 216.81 156.67, 216.9 156.83, 216.98 157.0, 217.07 157.17, 217.15 157.33, 217.23 157.5, 217.31 157.67, 217.39 157.83, 217.47 158.0, 217.54 158.17, 217.62 158.33, 217.7 158.5, 217.77 158.67, 217.84 158.83, 217.91 159.0, 217.99 159.17, 218.05 159.33, 218.12 159.5, 218.19 159.67, 218.26 159.83, 218.32 160.0, 218.39 160.17, 218.45 160.33, 218.51 160.5, 218.57 160.67, 218.63 160.83, 218.69 161.0, 218.75 161.17, 218.81 161.33, 218.86 161.5, 218.91 161.67, 218.97 161.83, 219.02 162.0, 219.07 162.17, 219.12 162.33, 219.17 162.5, 219.21 162.67, 219.26 162.83, 219.3 163.0, 219.34 163.17, 219.39 163.33, 219.43 163.5, 219.47 163.67, 219.5 163.83, 219.54 164.0, 219.58 164.17, 219.61 164.33, 219.64 164.5, 219.67 164.67, 219.7 164.83, 219.73 165.0, 219.76 165.17, 219.79 165.33, 219.81 165.5, 219.84 165.67, 219.86 165.83, 219.88 166.0, 219.9 166.17, 219.92 166.33, 219.94 166.5, 219.95 166.67, 219.97 166.83, 219.98 167.0, 219.99 167.17, 220.0 167.33, 220.01 167.5, 220.02 167.67, 220.03 167.83, 220.03 168.0, 220.04 168.17, 220.04 168.33, 220.04 168.5, 220.04 168.67, 220.04 168.83, 220.04 169.0, 220.03 169.17, 220.03 169.33, 220.02 169.5, 220.01 169.67, 220.0 169.83, 219.99 170.0, 219.98 170.17, 219.96 170.33, 219.95 170.5, 219.93 170.67, 219.92 170.83, 219.9 171.0, 219.88 171.17, 219.86 171.33, 219.83 171.5, 219.81 171.67, 219.78 171.83, 219.76 172.0, 219.73 172.17, 219.7 172.33, 219.67 172.5, 219.63 172.67, 219.6 172.83, 219.56 173.0, 219.53 173.17, 219.49 173.33, 219.45 173.5, 219.41 173.67, 219.37 173.83, 219.33 174.0, 219.28 174.17, 219.24 174.33, 219.19 174.5, 219.14 174.67, 219.09 174.83, 219.04 175.0, 218.99 175.17, 218.93 175.33, 218.88 175.5, 218.82 175.67, 218.77 175.83, 218.71 176.0, 218.65 176.17, 218.59 176.33, 218.52 176.5, 218.46 176.67, 218.39 176.83, 218.33 177.0, 218.26 177.17, 218.19 177.33, 218.12 177.5, 218.05 177.67, 217.98 177.83, 217.9 178.0, 217.83 178.17, 217.75 178.33, 217.67 178.5, 217.59 178.67, 217.51 178.83, 217.43 179.0, 217.35 179.17, 217.27 179.33, 217.18 179.5, 217.1 179.67, 217.01 179.83, 216.92 180.0, 216.83 180.17, 216.74 180.33, 216.65 180.5, 216.56 180.67, 216.46 180.83, 216.37 181.0, 216.27 181.17, 216.17 181.33, 216.07 181.5, 215.97 181.67, 215.87 181.83, 215.77 182.0, 215.67 182.17, 215.56 182.33, 215.46 182.5, 215.35 182.67, 215.24 182.83, 215.14 183.0, 215.03 183.17, 214.92 183.33, 214.8 183.5, 214.69 183.67, 214.58 183.83, 214.46 184.0, 214.35 184.17, 214.23 184.33, 214.11 184.5, 213.99 184.67, 213.88 184.83, 213.75 185.0, 213.63 185.17, 213.51 185.33, 213.39 185.5, 213.26 185.67, 213.14 185.83, 213.01 186.0, 212.88 186.17, 212.76 186.33, 212.63 186.5, 212.5 186.67, 212.37 186.83, 212.24 187.0, 212.1 187.17, 211.97 187.33, 211.84 187.5, 211.7 187.67, 211.57 187.83, 211.43 188.0, 211.29 188.17, 211.15 188.33, 211.02 188.5, 210.88 188.67, 210.74 188.83, 210.6 189.0, 210.45 189.17, 210.31 189.33, 210.17 189.5, 210.02 189.67, 209.88 189.83, 209.73 190.0, 209.59 190.17, 209.44 190.33, 209.29 190.5, 209.15 190.67, 209.0 190.83, 208.85 191.0, 208.7 191.17, 208.55 191.33, 208.4 191.5, 208.25 191.67, 208.09 191.83, 207.94 192.0, 207.79 192.17, 207.63 192.33, 207.48 192.5, 207.33 192.67, 207.17 192.83, 207.01 193.0, 206.86 193.17, 206.7 193.33, 206.54 193.5, 206.39 193.67, 206.23 193.83, 206.07 194.0, 205.91 194.17, 205.75 194.33, 205.59 194.5, 205.43 194.67, 205.27 194.83, 205.11 195.0, 204.95 195.17, 204.79 195.33, 204.62 195.5, 204.46 195.67, 204.3 195.83, 204.14 196.0, 203.97 196.17, 203.81 196.33, 203.65 196.5, 203.48 196.67, 203.32 196.83, 203.15 197.0, 202.99 197.17, 202.82 197.33, 202.66 197.5, 202.49 197.67, 202.33 197.83, 202.16 198.0, 202.0 198.17, 201.83 198.33, 201.66 198.5, 201.5 198.67, 201.33 198.83, 201.17 199.0, 201.0 199.17, 200.83 199.33, 200.67 199.5, 200.5 199.67, 200.33 199.83, 200.17 200.0, 200.0 200.17, 199.83 200.33, 199.67 200.5, 199.5 200.67, 199.33 200.83, 199.17 201.0, 199.0 201.17, 198.83 201.33, 198.67 201.5, 198.5 201.67, 198.34 201.83, 198.17 202.0, 198.0 202.17, 197.84 202.33, 197.67 202.5, 197.51 202.67, 197.34 202.83, 197.18 203.0, 197.01 203.17, 196.85 203.33, 196.68 203.5, 196.52 203.67, 196.35 203.83, 196.19 204.0, 196.03 204.17, 195.86 204.33, 195.7 204.5, 195.54 204.67, 195.38 204.83, 195.21 205.0, 195.05 205.17, 194.89 205.33, 194.73 205.5, 194.57 205.67, 194.41 205.83, 194.25 206.0, 194.09 206.17, 193.93 206.33, 193.77 206.5, 193.61 206.67, 193.46 206.83, 193.3 207.0, 193.14 207.17, 192.99 207.33, 192.83 207.5, 192.67 207.67, 192.52 207.83, 192.37 208.0, 192.21 208.17, 192.06 208.33, 191.91 208.5, 191.75 208.67, 191.6 208.83, 191.45 209.0, 191.3 209.17, 191.15 209.33, 191.0 209.5, 190.85 209.67, 190.71 209.83, 190.56 210.0, 190.41 210.17, 190.27 210.33, 190.12 210.5, 189.98 210.67, 189.83 210.83, 189.69 211.0, 189.55 211.17, 189.4 211.33, 189.26 211.5, 189.12 211.67, 188.98 211.83, 188.85 212.0, 188.71 212.17, 188.57 212.33, 188.43 212.5, 188.3 212.67, 188.16 212.83, 188.03 213.0, 187.9 213.17, 187.76 213.33, 187.63 213.5, 187.5 213.67, 187.37 213.83, 187.24 214.0, 187.12 214.17, 186.99 214.33, 186.86 214.5, 186.74 214.67, 186.61 214.83, 186.49 215.0, 186.37 215.17, 186.25 215.33, 186.12 215.5, 186.01 215.67, 185.89 215.83, 185.77 216.0, 185.65 216.17, 185.54 216.33, 185.42 216.5, 185.31 216.67, 185.2 216.83, 185.08 217.0, 184.97 217.17, 184.86 217.33, 184.76 217.5, 184.65 217.67, 184.54 217.83, 184.44 218.0, 184.33 218.17, 184.23 218.33, 184.13 218.5, 184.03 218.67, 183.93 218.83, 183.83 219.0, 183.73 219.17, 183.63 219.33, 183.54 219.5, 183.44 219.67, 183.35 219.83, 183.26 220.0, 183.17 220.17, 183.08 220.33, 182.99 220.5, 182.9 220.67, 182.82 220.83, 182.73 221.0, 182.65 221.17, 182.57 221.33, 182.49 221.5, 182.41 221.67, 182.33 221.83, 182.25 222.0, 182.17 222.17, 182.1 222.33, 182.02 222.5, 181.95 222.67, 181.88 222.83, 181.81 223.0, 181.74 223.17, 181.67 223.33, 181.61 223.5, 181.54 223.67, 181.48 223.83, 181.41 224.0, 181.35 224.17, 181.29 224.33, 181.23 224.5, 181.18 224.67, 181.12 224.83, 181.07 225.0, 181.01 225.17, 180.96 225.33, 180.91 225.5, 180.86 225.67, 180.81 225.83, 180.76 226.0, 180.72 226.17, 180.67 226.33, 180.63 226.5, 180.59 226.67, 180.55 226.83, 180.51 227.0, 180.47 227.17, 180.44 227.33, 180.4 227.5, 180.37 227.67, 180.33 227.83, 180.3 228.0, 180.27 228.17, 180.24 228.33, 180.22 228.5, 180.19 228.67, 180.17 228.83, 180.14 229.0, 180.12 229.17, 180.1 229.33, 180.08 229.5, 180.07 229.67, 180.05 229.83, 180.04 230.0, 180.02 230.17, 180.01 230.33, 180.0 230.5, 179.99 230.67, 179.98 230.83, 179.97 231.0, 179.97 231.17, 179.96 231.33, 179.96 231.5, 179.96 231.67, 179.96 231.83, 179.96 232.0, 179.96 232.17, 179.97 232.33, 179.97 232.5, 179.98 232.67, 179.99 232.83, 180.0 233.0, 180.01 233.17, 180.02 233.33, 180.03 233.5, 180.05 233.67, 180.06 233.83, 180.08 234.0, 180.1 234.17, 180.12 234.33, 180.14 234.5, 180.16 234.67, 180.19 234.83, 180.21 235.0, 180.24 235.17, 180.27 235.33, 180.3 235.5, 180.33 235.67, 180.36 235.83, 180.39 236.0, 180.42 236.17, 180.46 236.33, 180.5 236.5, 180.53 236.67, 180.57 236.83, 180.61 237.0, 180.66 237.17, 180.7 237.33, 180.74 237.5, 180.79 237.67, 180.83 237.83, 180.88 238.0, 180.93 238.17, 180.98 238.33, 181.03 238.5, 181.09 238.67, 181.14 238.83, 181.19 239.0, 181.25 239.17, 181.31 239.33, 181.37 239.5, 181.43 239.67, 181.49 239.83, 181.55 240.0, 181.61 240.17, 181.68 240.33, 181.74 240.5, 181.81 240.67, 181.88 240.83, 181.95 241.0, 182.01 241.17, 182.09 241.33, 182.16 241.5, 182.23 241.67, 182.3 241.83, 182.38 242.0, 182.46 242.17, 182.53 242.33, 182.61 242.5, 182.69 242.67, 182.77 242.83, 182.85 243.0, 182.93 243.17, 183.02 243.33, 183.1 243.5, 183.19 243.67, 183.27 243.83, 183.36 244.0, 183.45 244.17, 183.54 244.33, 183.63 244.5, 183.72 244.67, 183.81 244.83, 183.9 245.0, 184.0 245.17, 184.09 245.33, 184.18 245.5, 184.28 245.67, 184.38 245.83, 184.47 246.0, 184.57 246.17, 184.67 246.33, 184.77 246.5, 184.87 246.67, 184.97 246.83, 185.08 247.0, 185.18 247.17, 185.28 247.33, 185.39 247.5, 185.49 247.67, 185.6 247.83, 185.7 248.0, 185.81 248.17, 185.92 248.33, 186.03 248.5, 186.13 248.67, 186.24 248.83, 186.35 249.0, 186.46 249.17, 186.58 249.33, 186.69 249.5, 186.8 249.67, 186.91 249.83, 187.03 250.0, 187.14 250.17, 187.25 250.33, 187.37 250.5, 187.48 250.67, 187.6 250.83, 187.71 251.0, 187.83 251.17, 187.95 251.33, 188.07 251.5, 188.18 251.67, 188.3 251.83, 188.42 252.0, 188.54 252.17, 188.66 252.33, 188.78 252.5, 188.89 252.67, 189.01 252.83, 189.13 253.0, 189.25 253.17, 189.37 253.33, 189.49 253.5, 189.62 253.67, 189.74 253.83, 189.86 254.0, 189.98 254.17, 190.1 254.33, 190.22 254.5, 190.34 254.67, 190.46 254.83, 190.58 255.0, 190.71 255.17, 190.83 255.33, 190.95 255.5, 191.07 255.67, 191.19 255.83, 191.31 256.0, 191.43 256.17, 191.56 256.33, 191.68 256.5, 191.8 256.67, 191.92 256.83, 192.04 257.0, 192.16 257.17, 192.28 257.33, 192.4 257.5, 192.52 257.67, 192.64 257.83, 192.76 258.0, 192.88 258.17, 192.99 258.33, 193.11 258.5, 193.23 258.67, 193.35 258.83, 193.47 259.0, 193.58 259.17, 193.7 259.33, 193.81 259.5, 193.93 259.67, 194.04 259.83, 194.16 260.0, 194.27 260.17, 194.39 260.33, 194.5 260.5, 194.61 260.67, 194.72 260.83, 194.83 261.0, 194.94 261.17, 195.05 261.33, 195.16 261.5, 195.27 261.67, 195.38 261.83, 195.49 262.0, 195.59 262.17, 195.7 262.33, 195.8 262.5, 195.91 262.67, 196.01 262.83, 196.11 263.0, 196.21 263.17, 196.31 263.33, 196.41 263.5, 196.51 263.67, 196.61 263.83, 196.71 264.0, 196.8 264.17, 196.9 264.33, 196.99 264.5, 197.08 264.67, 197.17 264.83, 197.26 265.0, 197.35 265.17, 197.44 265.33, 197.53 265.5, 197.62 265.67, 197.7 265.83, 197.78 266.0, 197.87 266.17, 197.95 266.33, 198.03 266.5, 198.11 266.67, 198.18 266.83, 198.26 267.0, 198.33 267.17, 198.41 267.33, 198.48 267.5, 198.55 267.67, 198.62 267.83, 198.68 268.0, 198.75 268.17, 198.82 268.33, 198.88 268.5, 198.94 268.67, 199.0 268.83, 199.06 269.0, 199.12 269.17, 199.17 269.33, 199.22 269.5, 199.28 269.67, 199.33 269.83, 199.38 270.0, 199.42 270.17, 199.47 270.33, 199.51 270.5, 199.55 270.67, 199.59 270.83, 199.63 271.0, 199.67 271.17, 199.7 271.33, 199.73 271.5, 199.77 271.67, 199.79 271.83, 199.82 272.0, 199.85 272.17, 199.87 272.33, 199.89 272.5, 199.91 272.67, 199.93 272.83, 199.94 273.0, 199.95 273.17, 199.97 273.33, 199.97 273.5, 199.98 273.67, 199.99 273.83, 199.99 274.0, 199.99 274.17, 199.99 274.33, 199.98 274.5, 199.98 274.67, 199.97 274.83, 199.96 275.0, 199.95 275.17, 199.93 275.33, 199.91 275.5, 199.89 275.67, 199.87 275.83, 199.85 276.0, 199.82 276.17, 199.79 276.33, 199.76 276.5, 199.72 276.67, 199.69 276.83, 199.65 277.0, 199.61 277.17, 199.56 277.33, 199.52 277.5, 199.47 277.67, 199.42 277.83, 199.36 278.0, 199.31 278.17, 199.25 278.33, 199.19 278.5, 199.12 278.67, 199.06 278.83, 198.99 279.0, 198.91 279.17, 198.84 279.33, 198.76 279.5, 198.68 279.67, 198.6 279.83, 198.51 280.0, 198.43 280.17, 198.33 280.33, 198.24 280.5, 198.14 280.67, 198.04 280.83, 197.94 281.0, 197.84 281.17, 197.73 281.33, 197.62 281.5, 197.51 281.67, 197.39 281.83, 197.27 282.0, 197.15 282.17, 197.02 282.33, 196.9 282.5, 196.77 282.67, 196.63 282.83, 196.5 283.0, 196.36 283.17, 196.21 283.33, 196.07 283.5, 195.92 283.67, 195.77 283.83, 195.61 284.0, 195.46 284.17, 195.3 284.33, 195.13 284.5, 194.97 284.67, 194.8 284.83, 194.63 285.0, 194.45 285.17, 194.27 285.33, 194.09 285.5, 193.91 285.67, 193.72 285.83, 193.53 286.0, 193.33 286.17, 193.14 286.33, 192.94 286.5, 192.74 286.67, 192.53 286.83, 192.32 287.0, 192.11 287.17, 191.89 287.33, 191.67 287.5, 191.45 287.67, 191.23 287.83, 191.0 288.0, 190.77 288.17, 190.54 288.33, 190.3 288.5, 190.06 288.67, 189.82 288.83, 189.57 289.0, 189.32 289.17, 189.07 289.33, 188.81 289.5, 188.55 289.67, 188.29 289.83, 188.03 290.0, 187.76 290.17, 187.49 290.33, 187.21 290.5, 186.94 290.67, 186.65 290.83, 186.37 291.0, 186.08 291.17, 185.79 291.33, 185.5 291.5, 185.21 291.67, 184.91 291.83, 184.61 292.0, 184.3 292.17, 183.99 292.33, 183.68 292.5, 183.37 292.67, 183.05 292.83, 182.73 293.0, 182.41 293.17, 182.08 293.33, 181.75 293.5, 181.42 293.67, 181.09 293.83, 180.75 294.0, 180.41 294.17, 180.06 294.33, 179.72 294.5, 179.37 294.67, 179.02 294.83, 178.66 295.0, 178.3 295.17, 177.94 295.33, 177.58 295.5, 177.21 295.67, 176.84 295.83, 176.47 296.0, 176.1 296.17, 175.72 296.33, 175.34 296.5, 174.96 296.67, 174.57 296.83, 174.18 297.0, 173.79 297.17, 173.4 297.33, 173.0 297.5, 172.61 297.67, 172.21 297.83, 171.8 298.0, 171.4 298.17, 170.99 298.33, 170.58 298.5, 170.16 298.67, 169.75 298.83, 169.33 299.0, 168.91 299.17, 168.49 299.33, 168.06 299.5, 167.64 299.67, 167.21 299.83, 166.78 300.0, 166.34 300.17, 165.91 300.33, 165.47 300.5, 165.03 300.67, 164.59 300.83, 164.15 301.0, 163.7 301.17, 163.25 301.33, 162.81 301.5, 162.35 301.67, 161.9 301.83, 161.45 302.0, 160.99 302.17, 160.53 302.33, 160.07 302.5, 159.61 302.67, 159.15 302.83, 158.69 303.0, 158.22 303.17, 157.75 303.33, 157.29 303.5, 156.82 303.67, 156.35 303.83, 155.87 304.0, 155.4 304.17, 154.93 304.33, 154.45 304.5, 153.97 304.67, 153.5 304.83, 153.02 305.0, 152.54 305.17, 152.06 305.33, 151.58 305.5, 151.1 305.67, 150.62 305.83, 150.13 306.0, 149.65 306.17, 149.17 306.33, 148.68 306.5, 148.2 306.67, 147.71 306.83, 147.23 307.0, 146.74 307.17, 146.26 307.33, 145.77 307.5, 145.29 307.67, 144.8 307.83, 144.32 308.0, 143.83 308.17, 143.35 308.33, 142.86 308.5, 142.38 308.67, 141.89 308.83, 141.41 309.0, 140.93 309.17, 140.45 309.33, 139.97 309.5, 139.49 309.67, 139.01 309.83, 138.53 310.0, 138.05 310.17, 137.58 310.33, 137.1 310.5, 136.63 310.67, 136.16 310.83, 135.69 311.0, 135.22 311.17, 134.75 311.33, 134.29 311.5, 133.82 311.67, 133.36 311.83, 132.9 312.0, 132.45 312.17, 131.99 312.33, 131.54 312.5, 131.09 312.67, 130.64 312.83, 130.19 313.0, 129.75 313.17, 129.31 313.33, 128.87 313.5, 128.44 313.67, 128.01 313.83, 127.58 314.0, 127.15 314.17, 126.73 314.33, 126.31 314.5, 125.9 314.67, 125.49 314.83, 125.08 315.0, 124.68 315.17, 124.28 315.33, 123.88 315.5, 123.49 315.67, 123.11 315.83, 122.72 316.0, 122.35 316.17, 121.97 316.33, 121.61 316.5, 121.24 316.67, 120.88 316.83, 120.53 317.0, 120.18 317.17, 119.84 317.33, 119.5 317.5, 119.17 317.67, 118.85 317.83, 118.53 318.0, 118.21 318.17, 117.91 318.33, 117.61 318.5, 117.31 318.67, 117.02 318.83, 116.74 319.0, 116.47 319.17, 116.2 319.33, 115.94 319.5, 115.69 319.67, 115.44 319.83, 115.2 320.0, 114.97 320.17, 114.75 320.33, 114.53 320.5, 114.33 320.67, 114.13 320.83, 113.94 321.0, 113.76 321.17, 113.59 321.33, 113.42 321.5, 113.27 321.67, 113.12 321.83, 112.99 322.0, 112.86 322.17, 112.74 322.33, 112.64 322.5, 112.54 322.67, 112.45 322.83, 112.38 323.0, 112.31 323.17, 112.25 323.33, 112.21 323.5, 112.18 323.67, 112.15 323.83, 112.14 324.0, 112.14 324.17, 112.16 324.33, 112.18 324.5, 112.22 324.67, 112.27 324.83, 112.33 325.0, 112.4 325.17, 112.49 325.33, 112.59 325.5, 112.71 325.67, 112.83 325.83, 112.97 326.0, 113.13 326.17, 113.3 326.33, 113.48 326.5, 113.68 326.67, 113.89 326.83, 114.11 327.0, 114.36 327.17, 114.61 327.33, 114.89 327.5, 115.17 327.67, 115.48 327.83, 115.8 328.0, 116.13 328.17, 116.49 328.33, 116.86 328.5, 117.24 328.67, 117.65 328.83, 118.07 329.0, 118.51 329.17, 118.97 329.33, 119.44 329.5, 119.94 329.67, 120.45 329.83, 120.98 330.0, 121.53 330.17, 122.1 330.33, 122.69 330.5, 123.3 330.67, 123.93 330.83, 124.58 331.0, 125.25 331.17, 125.94 331.33, 126.65 331.5, 127.38 331.67, 128.13 331.83, 128.91 332.0, 129.71 332.17, 130.53 332.33, 131.37 332.5, 132.24 332.67, 133.13 332.83, 134.04 333.0, 134.98 333.17, 135.94 333.33, 136.92 333.5, 137.93 333.67, 138.97 333.83, 140.02 334.0, 141.11 334.17, 142.22 334.33, 143.35 334.5, 144.52 334.67, 145.71 334.83, 146.92 335.0, 148.16 335.17, 149.43 335.33, 150.73 335.5, 152.06 335.67, 153.41 335.83, 154.79 336.0, 156.2 336.17, 157.64 336.33, 159.11 336.5, 160.61 336.67, 162.14 336.83, 163.7 337.0, 165.29 337.17, 166.92 337.33, 168.57 337.5, 170.26 337.67, 171.97 337.83, 173.72 338.0, 175.51 338.17, 177.32 338.33, 179.17 338.5, 181.06 338.67, 182.97 338.83, 184.92 339.0, 186.91 339.17, 188.93 339.33, 190.99 339.5, 193.08 339.67, 195.21 339.83, 197.38 340.0, 199.58 340.17, 201.82 340.33, 204.1 340.5, 206.42 340.67, 208.77 340.83, 211.16 341.0, 213.6 341.17, 216.07 341.33, 218.58 341.5, 221.13 341.67, 223.72 341.83, 226.36 342.0, 229.03 342.17, 231.75 342.33, 234.51 342.5, 237.31 342.67, 240.16 342.83, 243.05 343.0, 245.98 343.17, 248.96 343.33, 251.98 343.5, 255.04 343.67, 258.16 343.83, 261.31 344.0, 264.52 344.17, 267.77 344.33, 271.07 344.5, 274.41 344.67, 277.81 344.83, 281.25 345.0, 284.74 345.17, 288.28 345.33, 291.87 345.5, 295.51 345.67, 299.21 345.83, 302.95 346.0, 306.74 346.17, 310.59 346.33, 314.49 346.5, 318.44 346.67, 322.44 346.83, 326.5 347.0, 330.62 347.17, 334.79 347.33, 339.01 347.5, 343.29 347.67, 347.63 347.83, 352.02 348.0, 356.47 348.17, 360.97 348.33, 365.54 348.5, 370.17 348.67, 374.85 348.83, 379.59 349.0, 384.4 349.17, 389.26 349.33, 394.19 349.5, 399.17 349.67, 404.22 349.83, 409.34 350.0, 414.51 350.17, 419.75 350.33, 425.05 350.5, 430.42 350.67, 435.86 350.83, 441.36 351.0, 446.92 351.17, 452.56 351.33, 458.26 351.5, 464.03 351.67, 469.87 351.83, 475.77 352.0, 481.75 352.17, 487.8 352.33, 493.92 352.5, 500.1 352.67, 506.37 352.83, 512.7 353.0, 519.11 353.17, 525.59 353.33, 532.15 353.5, 538.78 353.67, 545.48 353.83, 552.26 354.0, 559.12 354.17, 566.06 354.33, 573.07 354.5, 580.17 354.67, 587.34 354.83, 594.59 355.0, 601.92 355.17, 609.34 355.33, 616.83 355.5, 624.41 355.67, 632.07 355.83, 639.81 356.0, 647.64 356.17, 655.55 356.33, 663.55 356.5, 671.63 356.67, 679.8 356.83, 688.06 357.0, 696.41 357.17, 704.84 357.33, 713.36 357.5, 721.98 357.67, 730.68 357.83, 739.48 358.0, 748.37 358.17, 757.35 358.33, 766.42 358.5, 775.59 358.67, 784.85 358.83, 794.21 359.0, 803.66 359.17, 813.22 359.33, 822.86 359.5, 832.61 359.67, 842.46 359.83, 852.4 360.0, 862.45 360.17, 872.6 360.33, 882.85 360.5, 893.2 360.67, 903.66 360.83, 914.22 361.0, 924.88 361.17, 935.65 361.33, 946.53 361.5, 957.51 361.67, 968.6 361.83, 979.8 362.0, 991.11 362.17, 1002.53 362.33, 1014.06 362.5, 1025.71 362.67, 1037.46 362.83, 1049.33 363.0, 1061.31 363.17, 1073.41 363.33, 1085.62 363.5, 1097.95 363.67, 1110.4 363.83, 1122.97 364.0, 1135.65 364.17, 1148.45 364.33, 1161.38 364.5, 1174.42 364.67, 1187.59 364.83, 1200.88 365.0, 1214.3 365.17, 1227.84 365.33, 1241.5 365.5, 1255.3 365.67, 1269.22 365.83, 1283.26 366.0, 1297.44 366.17, 1311.75 366.33, 1326.18 366.5, 1340.75 366.67, 1355.45 366.83, 1370.29 367.0, 1385.26 367.17, 1400.36 367.33, 1415.6 367.5, 1430.98 367.67, 1446.5 367.83, 1462.15 368.0, 1477.94 368.17, 1493.88 368.33, 1509.96 368.5, 1526.18 368.67, 1542.54 368.83, 1559.04 369.0, 1575.7 369.17, 1592.5 369.33, 1609.44 369.5, 1626.54 369.67, 1643.78 369.83, 1661.17 370.0, 1678.72 370.17, 1696.41 370.33, 1714.26 370.5, 1732.27 370.67, 1750.43 370.83, 1768.74 371.0, 1787.21 371.17, 1805.84 371.33, 1824.63 371.5, 1843.58 371.67, 1862.69 371.83, 1881.96 372.0, 1901.4 372.17, 1921.0 372.33, 1940.76 372.5, 1960.69 372.67, 1980.79 372.83, 2001.06 373.0, 2021.5 373.17, 2042.1 373.33, 2062.88 373.5, 2083.83 373.67, 2104.96 373.83, 2126.26 374.0, 2147.73 374.17, 2169.38 374.33, 2191.21 374.5, 2213.22 374.67, 2235.41 374.83, 2257.78 375.0, 2280.33 375.17, 2303.07 375.33, 2325.99 375.5, 2349.1 375.67, 2372.39 375.83, 2395.88 376.0, 2419.55 376.17, 2443.41 376.33, 2467.46 376.5, 2491.71 376.67, 2516.15 376.83, 2540.79 377.0, 2565.62 377.17, 2590.65 377.33, 2615.87 377.5, 2641.3 377.67, 2666.93 377.83, 2692.76 378.0, 2718.8 378.17, 2745.03 378.33, 2771.48 378.5, 2798.13 378.67, 2824.99 378.83, 2852.06 379.0, 2879.34 379.17, 2906.83 379.33, 2934.54 379.5, 2962.46 379.67, 2990.59 379.83, 3018.95 380.0, 3047.52 380.17, 3076.31 380.33, 3105.32 380.5, 3134.56 380.67, 3164.02 380.83, 3193.7 381.0, 3223.61 381.17, 3253.74 381.33, 3284.11 381.5, 3314.7 381.67, 3345.53 381.83, 3376.59 382.0, 3407.88 382.17, 3439.41 382.33, 3471.18 382.5, 3503.18 382.67, 3535.42 382.83, 3567.91 383.0, 3600.63 383.17, 3633.6 383.33, 3666.82 383.5, 3700.28 383.67, 3733.99 383.83, 3767.95 384.0, 3802.16 384.17, 3836.62 384.33, 3871.33 384.5, 3906.3 384.67, 3941.53 384.83, 3977.01 385.0, 4012.76 385.17, 4048.76 385.33, 4085.03 385.5, 4121.56 385.67, 4158.35 385.83, 4195.41 386.0, 4232.74 386.17, 4270.34 386.33, 4308.21 386.5, 4346.36 386.67, 4384.77 386.83, 4423.47 387.0, 4462.44 387.17, 4501.68 387.33, 4541.21 387.5, 4581.02 387.67, 4621.12 387.83, 4661.5 388.0, 4702.16 388.17, 4743.11 388.33, 4784.36 388.5, 4825.89 388.67, 4867.72 388.83, 4909.84 389.0, 4952.25 389.17, 4994.97 389.33, 5037.98 389.5, 5081.29 389.67, 5124.91 389.83, 5168.83 390.0, 5213.06 390.17, 5257.59 390.33, 5302.43 390.5, 5347.58 390.67, 5393.05 390.83, 5438.83 391.0, 5484.92 391.17, 5531.34 391.33, 5578.07 391.5, 5625.12 391.67, 5672.49 391.83, 5720.19 392.0, 5768.21 392.17, 5816.57 392.33, 5865.25 392.5, 5914.26 392.67, 5963.6 392.83, 6013.28 393.0, 6063.3 393.17, 6113.65 393.33, 6164.35 393.5, 6215.38 393.67, 6266.76 393.83, 6318.48 394.0, 6370.56 394.17, 6422.98 394.33, 6475.75 394.5, 6528.87 394.67, 6582.35 394.83, 6636.18 395.0, 6690.37 395.17, 6744.92 395.33, 6799.84 395.5, 6855.11 395.67, 6910.76 395.83, 6966.77 396.0, 7023.14 396.17, 7079.89 396.33, 7137.02 396.5, 7194.52 396.67, 7252.39 396.83, 7310.64 397.0, 7369.28 397.17, 7428.3 397.33, 7487.7 397.5, 7547.49 397.67, 7607.66 397.83, 7668.23 398.0, 7729.19 398.17, 7790.55 398.33, 7852.3 398.5, 7914.45 398.67, 7977.0 398.83, 8039.95 399.0, 8103.31 399.17, 8167.07 399.33, 8231.25 399.5, 8295.83 399.67, 8360.82 399.83, 8426.24 400.0, 8492.06 " fill="none" stroke="white" stroke-width="1.5" stroke-linejoin="round" stroke-opacity="1"/>

 </svg>