<svg version="1.1" 
 baseProfile="full" 
 width="400" 
 height="400" 
 xmlns="http://www.w3.org/2000/svg">
<rect x="0.0" y="0.0" width="400" height="400" fill="black" stroke="black" stroke-width="0" opacity="1"/>
<line x1="0.0" y1="0.0" x2="0.0" y2="400.0" stroke="white" stroke-width="1" opacity="0.4" stroke-linecap="butt"/>
<line x1="40.0" y1="0.0" x2="40.0" y2="400.0" stroke="white" stroke-width="1" opacity="0.4" stroke-linecap="butt"/>
<line x1="80.0" y1="0.0" x2="80.0" y2="400.0" stroke="white" stroke-width="1" opacity="0.4" stroke-linecap="butt"/>
<line x1="120.0" y1="0.0" x2="120.0" y2="400.0" stroke="white" stroke-width="1" opacity="0.4" stroke-linecap="butt"/>
<line x1="160.0" y1="0.0" x2="160.0" y2="400.0" stroke="white" stroke-width="1" opacity="0.4" stroke-linecap="butt"/>
<line x1="200.0" y1="0.0" x2="200.0" y2="400.0" stroke="white" stroke-width="1" opacity="0.4" stroke-linecap="butt"/>
<line x1="240.0" y1="0.0" x2="240.0" y2="400.0" stroke="white" stroke-width="1" opacity="0.4" stroke-linecap="butt"/>
<line x1="280.0" y1="0.0" x2="280.0" y2="400.0" stroke="white" stroke-width="1" opacity="0.4" stroke-linecap="butt"/>
<line x1="320.0" y1="0.0" x2="320.0" y2="400.0" stroke="white" stroke-width="1" opacity="0.4" stroke-linecap="butt"/>
<line x1="360.0" y1="0.0" x2="360.0" y2="400.0" stroke="white" stroke-width="1" opacity="0.4" stroke-linecap="butt"/>
<line x1="0.0" y1="0.0" x2="400.0" y2="0.0" stroke="white" stroke-width="1" opacity="0.4" stroke-linecap="butt"/>
<line x1="0.0" y1="40.0" x2="400.0" y2="40.0" stroke="white" stroke-width="1" opacity="0.4" stroke-linecap="butt"/>
<line x1="0.0" y1="80.0" x2="400.0" y2="80.0" stroke="white" stroke-width="1" opacity="0.4" stroke-linecap="butt"/>
<line x1="0.0" y1="120.0" x2="400.0" y2="120.0" stroke="white" stroke-width="1" opacity="0.4" stroke-linecap="butt"/>
<line x1="0.0" y1="160.0" x2="400.0" y2="160.0" stroke="white" stroke-width="1" opacity="0.4" stroke-linecap="butt"/>
<line x1="0.0" y1="200.0" x2="400.0" y2="200.0" stroke="white" stroke-width="1" opacity="0.4" stroke-linecap="butt"/>
<line x1="0.0" y1="240.0" x2="400.0" y2="240.0" stroke="white" stroke-width="1" opacity="0.4" stroke-linecap="butt"/>
<line x1="0.0" y1="280.0" x2="400.0" y2="280.0" stroke="white" stroke-width="1" opacity="0.4" stroke-linecap="butt"/>
<line x1="0.0" y1="320.0" x2="400.0" y2="320.0" stroke="white" stroke-width="1" opacity="0.4" stroke-linecap="butt"/>
<line x1="0.0" y1="360.0" x2="400.0" y2="360.0" stroke="white" stroke-width="1" opacity="0.4" stroke-linecap="butt"/>
<line x1="0.0" y1="200.0" x2="400.0" y2="200.0" stroke="yellow" stroke-width="2.5" opacity="1" stroke-linecap="butt"/>
<line x1="200.0" y1="0.0" x2="200.0" y2="400.0" stroke="yellow" stroke-width="2.5" opacity="1" stroke-linecap="butt"/>
<polygon points="391.0 204.0, 401.0 200.0, 391.0 196.0, 393.0 200.0" fill="yellow"/><polygon points="204.0 9.0, 200.0 -1.0, 196.0 9.0, 200.0 7.0" fill="yellow"/><image x="-60.0" y="-60.0" width="200" height="200" href="/Users/girirajhira/PycharmProjects/Giraphics3/Taylor/expr.png"/><polyline points="0.0, -10076.19 0.17, -9998.82 0.33, -9921.92 0.5, -9845.49 0.67, -9769.54 0.83, -9694.05 1.0, -9619.02 1.17, -9544.46 1.33, -9470.36 1.5, -9396.72 1.67, -9323.54 1.83, -9250.81 2.0, -9178.53 2.17, -9106.7 2.33, -9035.32 2.5, -8964.38 2.67, -8893.89 2.83, -8823.83 3.0, -8754.22 3.17, -8685.04 3.33, -8616.29 3.5, -8547.98 3.67, -8480.1 3.83, -8412.64 4.0, -8345.62 4.17, -8279.01 4.33, -8212.83 4.5, -8147.06 4.67, -8081.71 4.83, -8016.78 5.0, -7952.26 5.17, -7888.15 5.33, -7824.45 5.5, -7761.16 5.67, -7698.27 5.83, -7635.78 6.0, -7573.7 6.17, -7512.01 6.33, -7450.72 6.5, -7389.82 6.67, -7329.32 6.83, -7269.21 7.0, -7209.48 7.17, -7150.14 7.33, -7091.19 7.5, -7032.62 7.67, -6974.43 7.83, -6916.62 8.0, -6859.18 8.17, -6802.12 8.33, -6745.43 8.5, -6689.12 8.67, -6633.17 8.83, -6577.59 9.0, -6522.37 9.17, -6467.52 9.33, -6413.03 9.5, -6358.9 9.67, -6305.13 9.83, -6251.71 10.0, -6198.65 10.17, -6145.93 10.33, -6093.57 10.5, -6041.56 10.67, -5989.89 10.83, -5938.57 11.0, -5887.59 11.17, -5836.96 11.33, -5786.66 11.5, -5736.7 11.67, -5687.07 11.83, -5637.78 12.0, -5588.82 12.17, -5540.19 12.33, -5491.89 12.5, -5443.92 12.67, -5396.27 12.83, -5348.95 13.0, -5301.95 13.17, -5255.27 13.33, -5208.9 13.5, -5162.85 13.67, -5117.12 13.83, -5071.7 14.0, -5026.6 14.17, -4981.8 14.33, -4937.31 14.5, -4893.12 14.67, -4849.25 14.83, -4805.67 15.0, -4762.4 15.17, -4719.42 15.33, -4676.75 15.5, -4634.37 15.67, -4592.29 15.83, -4550.5 16.0, -4509.0 16.17, -4467.79 16.33, -4426.87 16.5, -4386.24 16.67, -4345.89 16.83, -4305.83 17.0, -4266.04 17.17, -4226.54 17.33, -4187.32 17.5, -4148.38 17.67, -4109.71 17.83, -4071.32 18.0, -4033.2 18.17, -3995.35 18.33, -3957.78 18.5, -3920.47 18.67, -3883.42 18.83, -3846.65 19.0, -3810.13 19.17, -3773.88 19.33, -3737.9 19.5, -3702.17 19.67, -3666.7 19.83, -3631.48 20.0, -3596.52 20.17, -3561.82 20.33, -3527.36 20.5, -3493.16 20.67, -3459.21 20.83, -3425.5 21.0, -3392.05 21.17, -3358.83 21.33, -3325.86 21.5, -3293.14 21.67, -3260.65 21.83, -3228.41 22.0, -3196.4 22.17, -3164.63 22.33, -3133.1 22.5, -3101.8 22.67, -3070.73 22.83, -3039.89 23.0, -3009.29 23.17, -2978.91 23.33, -2948.76 23.5, -2918.84 23.67, -2889.14 23.83, -2859.67 24.0, -2830.41 24.17, -2801.38 24.33, -2772.57 24.5, -2743.98 24.67, -2715.6 24.83, -2687.44 25.0, -2659.49 25.17, -2631.76 25.33, -2604.24 25.5, -2576.93 25.67, -2549.83 25.83, -2522.94 26.0, -2496.25 26.17, -2469.77 26.33, -2443.5 26.5, -2417.43 26.67, -2391.56 26.83, -2365.89 27.0, -2340.42 27.17, -2315.15 27.33, -2290.08 27.5, -2265.2 27.67, -2240.52 27.83, -2216.03 28.0, -2191.73 28.17, -2167.63 28.33, -2143.71 28.5, -2119.99 28.67, -2096.45 28.83, -2073.1 29.0, -2049.94 29.17, -2026.96 29.33, -2004.16 29.5, -1981.54 29.67, -1959.11 29.83, -1936.86 30.0, -1914.78 30.17, -1892.89 30.33, -1871.17 30.5, -1849.62 30.67, -1828.25 30.83, -1807.05 31.0, -1786.03 31.17, -1765.18 31.33, -1744.49 31.5, -1723.98 31.67, -1703.63 31.83, -1683.45 32.0, -1663.44 32.17, -1643.59 32.33, -1623.91 32.5, -1604.39 32.67, -1585.03 32.83, -1565.83 33.0, -1546.79 33.17, -1527.91 33.33, -1509.19 33.5, -1490.62 33.67, -1472.21 33.83, -1453.96 34.0, -1435.85 34.17, -1417.9 34.33, -1400.11 34.5, -1382.46 34.67, -1364.96 34.83, -1347.62 35.0, -1330.41 35.17, -1313.36 35.33, -1296.45 35.5, -1279.69 35.67, -1263.07 35.83, -1246.6 36.0, -1230.26 36.17, -1214.07 36.33, -1198.02 36.5, -1182.11 36.67, -1166.33 36.83, -1150.7 37.0, -1135.2 37.17, -1119.83 37.33, -1104.6 37.5, -1089.51 37.67, -1074.55 37.83, -1059.72 38.0, -1045.02 38.17, -1030.45 38.33, -1016.01 38.5, -1001.7 38.67, -987.52 38.83, -973.46 39.0, -959.53 39.17, -945.73 39.33, -932.05 39.5, -918.49 39.67, -905.06 39.83, -891.74 40.0, -878.55 40.17, -865.48 40.33, -852.53 40.5, -839.7 40.67, -826.98 40.83, -814.38 41.0, -801.9 41.17, -789.53 41.33, -777.28 41.5, -765.14 41.67, -753.11 41.83, -741.2 42.0, -729.4 42.17, -717.7 42.33, -706.12 42.5, -694.65 42.67, -683.28 42.83, -672.02 43.0, -660.87 43.17, -649.83 43.33, -638.89 43.5, -628.05 43.67, -617.32 43.83, -606.69 44.0, -596.16 44.17, -585.74 44.33, -575.41 44.5, -565.19 44.67, -555.06 44.83, -545.03 45.0, -535.1 45.17, -525.27 45.33, -515.54 45.5, -505.9 45.67, -496.35 45.83, -486.9 46.0, -477.55 46.17, -468.28 46.33, -459.11 46.5, -450.03 46.67, -441.04 46.83, -432.15 47.0, -423.34 47.17, -414.62 47.33, -405.99 47.5, -397.44 47.67, -388.98 47.83, -380.61 48.0, -372.33 48.17, -364.13 48.33, -356.01 48.5, -347.98 48.67, -340.03 48.83, -332.17 49.0, -324.38 49.17, -316.68 49.33, -309.06 49.5, -301.51 49.67, -294.05 49.83, -286.67 50.0, -279.36 50.17, -272.13 50.33, -264.98 50.5, -257.9 50.67, -250.9 50.83, -243.98 51.0, -237.13 51.17, -230.35 51.33, -223.65 51.5, -217.02 51.67, -210.46 51.83, -203.98 52.0, -197.56 52.17, -191.22 52.33, -184.95 52.5, -178.74 52.67, -172.61 52.83, -166.54 53.0, -160.54 53.17, -154.61 53.33, -148.74 53.5, -142.94 53.67, -137.21 53.83, -131.54 54.0, -125.94 54.17, -120.4 54.33, -114.92 54.5, -109.51 54.67, -104.16 54.83, -98.87 55.0, -93.64 55.17, -88.47 55.33, -83.37 55.5, -78.32 55.67, -73.34 55.83, -68.41 56.0, -63.54 56.17, -58.73 56.33, -53.97 56.5, -49.28 56.67, -44.64 56.83, -40.05 57.0, -35.52 57.17, -31.05 57.33, -26.63 57.5, -22.27 57.67, -17.96 57.83, -13.7 58.0, -9.49 58.17, -5.34 58.33, -1.24 58.5, 2.81 58.67, 6.81 58.83, 10.76 59.0, 14.66 59.17, 18.5 59.33, 22.3 59.5, 26.05 59.67, 29.76 59.83, 33.41 60.0, 37.02 60.17, 40.58 60.33, 44.09 60.5, 47.56 60.67, 50.98 60.83, 54.35 61.0, 57.68 61.17, 60.97 61.33, 64.21 61.5, 67.41 61.67, 70.57 61.83, 73.68 62.0, 76.75 62.17, 79.78 62.33, 82.76 62.5, 85.7 62.67, 88.61 62.83, 91.47 63.0, 94.29 63.17, 97.08 63.33, 99.82 63.5, 102.52 63.67, 105.19 63.83, 107.82 64.0, 110.4 64.17, 112.96 64.33, 115.47 64.5, 117.95 64.67, 120.39 64.83, 122.79 65.0, 125.16 65.17, 127.49 65.33, 129.79 65.5, 132.05 65.67, 134.28 65.83, 136.48 66.0, 138.64 66.17, 140.77 66.33, 142.86 66.5, 144.92 66.67, 146.95 66.83, 148.95 67.0, 150.91 67.17, 152.85 67.33, 154.75 67.5, 156.62 67.67, 158.46 67.83, 160.27 68.0, 162.05 68.17, 163.8 68.33, 165.53 68.5, 167.22 68.67, 168.88 68.83, 170.52 69.0, 172.13 69.17, 173.71 69.33, 175.26 69.5, 176.79 69.67, 178.29 69.83, 179.76 70.0, 181.2 70.17, 182.62 70.33, 184.02 70.5, 185.39 70.67, 186.73 70.83, 188.05 71.0, 189.34 71.17, 190.61 71.33, 191.86 71.5, 193.08 71.67, 194.28 71.83, 195.45 72.0, 196.6 72.17, 197.73 72.33, 198.84 72.5, 199.92 72.67, 200.98 72.83, 202.02 73.0, 203.04 73.17, 204.04 73.33, 205.02 73.5, 205.97 73.67, 206.91 73.83, 207.82 74.0, 208.72 74.17, 209.59 74.33, 210.45 74.5, 211.29 74.67, 212.1 74.83, 212.9 75.0, 213.68 75.17, 214.44 75.33, 215.19 75.5, 215.91 75.67, 216.62 75.83, 217.31 76.0, 217.98 76.17, 218.64 76.33, 219.28 76.5, 219.9 76.67, 220.5 76.83, 221.09 77.0, 221.67 77.17, 222.23 77.33, 222.77 77.5, 223.29 77.67, 223.81 77.83, 224.3 78.0, 224.79 78.17, 225.25 78.33, 225.71 78.5, 226.14 78.67, 226.57 78.83, 226.98 79.0, 227.38 79.17, 227.76 79.33, 228.13 79.5, 228.49 79.67, 228.83 79.83, 229.17 80.0, 229.49 80.17, 229.79 80.33, 230.09 80.5, 230.37 80.67, 230.64 80.83, 230.9 81.0, 231.15 81.17, 231.39 81.33, 231.61 81.5, 231.83 81.67, 232.03 81.83, 232.22 82.0, 232.41 82.17, 232.58 82.33, 232.74 82.5, 232.9 82.67, 233.04 82.83, 233.17 83.0, 233.29 83.17, 233.41 83.33, 233.51 83.5, 233.61 83.67, 233.7 83.83, 233.77 84.0, 233.84 84.17, 233.91 84.33, 233.96 84.5, 234.0 84.67, 234.04 84.83, 234.07 85.0, 234.09 85.17, 234.1 85.33, 234.11 85.5, 234.11 85.67, 234.1 85.83, 234.08 86.0, 234.06 86.17, 234.03 86.33, 233.99 86.5, 233.95 86.67, 233.9 86.83, 233.84 87.0, 233.78 87.17, 233.71 87.33, 233.64 87.5, 233.56 87.67, 233.47 87.83, 233.38 88.0, 233.29 88.17, 233.18 88.33, 233.08 88.5, 232.96 88.67, 232.85 88.83, 232.72 89.0, 232.6 89.17, 232.47 89.33, 232.33 89.5, 232.19 89.67, 232.04 89.83, 231.89 90.0, 231.74 90.17, 231.58 90.33, 231.42 90.5, 231.25 90.67, 231.08 90.83, 230.91 91.0, 230.73 91.17, 230.55 91.33, 230.37 91.5, 230.18 91.67, 229.99 91.83, 229.8 92.0, 229.6 92.17, 229.4 92.33, 229.2 92.5, 229.0 92.67, 228.79 92.83, 228.58 93.0, 228.37 93.17, 228.15 93.33, 227.93 93.5, 227.71 93.67, 227.49 93.83, 227.27 94.0, 227.04 94.17, 226.81 94.33, 226.59 94.5, 226.35 94.67, 226.12 94.83, 225.89 95.0, 225.65 95.17, 225.41 95.33, 225.17 95.5, 224.93 95.67, 224.69 95.83, 224.45 96.0, 224.2 96.17, 223.96 96.33, 223.71 96.5, 223.46 96.67, 223.21 96.83, 222.96 97.0, 222.71 97.17, 222.46 97.33, 222.21 97.5, 221.96 97.67, 221.71 97.83, 221.46 98.0, 221.2 98.17, 220.95 98.33, 220.7 98.5, 220.44 98.67, 220.19 98.83, 219.93 99.0, 219.68 99.17, 219.42 99.33, 219.17 99.5, 218.92 99.67, 218.66 99.83, 218.41 100.0, 218.15 100.17, 217.9 100.33, 217.65 100.5, 217.4 100.67, 217.14 100.83, 216.89 101.0, 216.64 101.17, 216.39 101.33, 216.14 101.5, 215.89 101.67, 215.64 101.83, 215.39 102.0, 215.15 102.17, 214.9 102.33, 214.66 102.5, 214.41 102.67, 214.17 102.83, 213.92 103.0, 213.68 103.17, 213.44 103.33, 213.2 103.5, 212.96 103.67, 212.73 103.83, 212.49 104.0, 212.26 104.17, 212.02 104.33, 211.79 104.5, 211.56 104.67, 211.33 104.83, 211.1 105.0, 210.87 105.17, 210.65 105.33, 210.42 105.5, 210.2 105.67, 209.98 105.83, 209.76 106.0, 209.54 106.17, 209.32 106.33, 209.11 106.5, 208.9 106.67, 208.68 106.83, 208.47 107.0, 208.27 107.17, 208.06 107.33, 207.85 107.5, 207.65 107.67, 207.45 107.83, 207.25 108.0, 207.05 108.17, 206.86 108.33, 206.66 108.5, 206.47 108.67, 206.28 108.83, 206.09 109.0, 205.91 109.17, 205.72 109.33, 205.54 109.5, 205.36 109.67, 205.18 109.83, 205.0 110.0, 204.83 110.17, 204.66 110.33, 204.48 110.5, 204.32 110.67, 204.15 110.83, 203.99 111.0, 203.82 111.17, 203.66 111.33, 203.51 111.5, 203.35 111.67, 203.2 111.83, 203.04 112.0, 202.9 112.17, 202.75 112.33, 202.6 112.5, 202.46 112.67, 202.32 112.83, 202.18 113.0, 202.04 113.17, 201.91 113.33, 201.78 113.5, 201.65 113.67, 201.52 113.83, 201.4 114.0, 201.27 114.17, 201.15 114.33, 201.03 114.5, 200.92 114.67, 200.8 114.83, 200.69 115.0, 200.58 115.17, 200.47 115.33, 200.37 115.5, 200.26 115.67, 200.16 115.83, 200.06 116.0, 199.97 116.17, 199.87 116.33, 199.78 116.5, 199.69 116.67, 199.61 116.83, 199.52 117.0, 199.44 117.17, 199.36 117.33, 199.28 117.5, 199.2 117.67, 199.13 117.83, 199.06 118.0, 198.99 118.17, 198.92 118.33, 198.85 118.5, 198.79 118.67, 198.73 118.83, 198.67 119.0, 198.62 119.17, 198.56 119.33, 198.51 119.5, 198.46 119.67, 198.41 119.83, 198.37 120.0, 198.32 120.17, 198.28 120.33, 198.24 120.5, 198.21 120.67, 198.17 120.83, 198.14 121.0, 198.11 121.17, 198.08 121.33, 198.05 121.5, 198.03 121.67, 198.01 121.83, 197.99 122.0, 197.97 122.17, 197.95 122.33, 197.94 122.5, 197.93 122.67, 197.92 122.83, 197.91 123.0, 197.9 123.17, 197.9 123.33, 197.9 123.5, 197.9 123.67, 197.9 123.83, 197.9 124.0, 197.91 124.17, 197.92 124.33, 197.93 124.5, 197.94 124.67, 197.95 124.83, 197.97 125.0, 197.99 125.17, 198.0 125.33, 198.03 125.5, 198.05 125.67, 198.07 125.83, 198.1 126.0, 198.13 126.17, 198.16 126.33, 198.19 126.5, 198.22 126.67, 198.26 126.83, 198.29 127.0, 198.33 127.17, 198.37 127.33, 198.41 127.5, 198.46 127.67, 198.5 127.83, 198.55 128.0, 198.6 128.17, 198.65 128.33, 198.7 128.5, 198.75 128.67, 198.81 128.83, 198.86 129.0, 198.92 129.17, 198.98 129.33, 199.04 129.5, 199.11 129.67, 199.17 129.83, 199.23 130.0, 199.3 130.17, 199.37 130.33, 199.44 130.5, 199.51 130.67, 199.58 130.83, 199.66 131.0, 199.73 131.17, 199.81 131.33, 199.88 131.5, 199.96 131.67, 200.04 131.83, 200.12 132.0, 200.21 132.17, 200.29 132.33, 200.38 132.5, 200.46 132.67, 200.55 132.83, 200.64 133.0, 200.73 133.17, 200.82 133.33, 200.91 133.5, 201.0 133.67, 201.1 133.83, 201.19 134.0, 201.29 134.17, 201.39 134.33, 201.48 134.5, 201.58 134.67, 201.68 134.83, 201.78 135.0, 201.89 135.17, 201.99 135.33, 202.09 135.5, 202.2 135.67, 202.3 135.83, 202.41 136.0, 202.52 136.17, 202.62 136.33, 202.73 136.5, 202.84 136.67, 202.95 136.83, 203.06 137.0, 203.18 137.17, 203.29 137.33, 203.4 137.5, 203.52 137.67, 203.63 137.83, 203.75 138.0, 203.86 138.17, 203.98 138.33, 204.09 138.5, 204.21 138.67, 204.33 138.83, 204.45 139.0, 204.57 139.17, 204.69 139.33, 204.81 139.5, 204.93 139.67, 205.05 139.83, 205.17 140.0, 205.29 140.17, 205.42 140.33, 205.54 140.5, 205.66 140.67, 205.78 140.83, 205.91 141.0, 206.03 141.17, 206.16 141.33, 206.28 141.5, 206.41 141.67, 206.53 141.83, 206.66 142.0, 206.78 142.17, 206.91 142.33, 207.03 142.5, 207.16 142.67, 207.29 142.83, 207.41 143.0, 207.54 143.17, 207.66 143.33, 207.79 143.5, 207.92 143.67, 208.04 143.83, 208.17 144.0, 208.3 144.17, 208.42 144.33, 208.55 144.5, 208.68 144.67, 208.8 144.83, 208.93 145.0, 209.06 145.17, 209.18 145.33, 209.31 145.5, 209.44 145.67, 209.56 145.83, 209.69 146.0, 209.81 146.17, 209.94 146.33, 210.07 146.5, 210.19 146.67, 210.31 146.83, 210.44 147.0, 210.56 147.17, 210.69 147.33, 210.81 147.5, 210.94 147.67, 211.06 147.83, 211.18 148.0, 211.3 148.17, 211.43 148.33, 211.55 148.5, 211.67 148.67, 211.79 148.83, 211.91 149.0, 212.03 149.17, 212.15 149.33, 212.27 149.5, 212.39 149.67, 212.5 149.83, 212.62 150.0, 212.74 150.17, 212.86 150.33, 212.97 150.5, 213.09 150.67, 213.2 150.83, 213.32 151.0, 213.43 151.17, 213.54 151.33, 213.66 151.5, 213.77 151.67, 213.88 151.83, 213.99 152.0, 214.1 152.17, 214.21 152.33, 214.32 152.5, 214.42 152.67, 214.53 152.83, 214.64 153.0, 214.74 153.17, 214.85 153.33, 214.95 153.5, 215.06 153.67, 215.16 153.83, 215.26 154.0, 215.36 154.17, 215.46 154.33, 215.56 154.5, 215.66 154.67, 215.75 154.83, 215.85 155.0, 215.95 155.17, 216.04 155.33, 216.14 155.5, 216.23 155.67, 216.32 155.83, 216.41 156.0, 216.5 156.17, 216.59 156.33, 216.68 156.5, 216.77 156.67, 216.85 156.83, 216.94 157.0, 217.02 157.17, 217.11 157.33, 217.19 157.5, 217.27 157.67, 217.35 157.83, 217.43 158.0, 217.51 158.17, 217.59 158.33, 217.66 158.5, 217.74 158.67, 217.81 158.83, 217.88 159.0, 217.95 159.17, 218.03 159.33, 218.1 159.5, 218.16 159.67, 218.23 159.83, 218.3 160.0, 218.36 160.17, 218.43 160.33, 218.49 160.5, 218.55 160.67, 218.61 160.83, 218.67 161.0, 218.73 161.17, 218.78 161.33, 218.84 161.5, 218.89 161.67, 218.95 161.83, 219.0 162.0, 219.05 162.17, 219.1 162.33, 219.15 162.5, 219.2 162.67, 219.24 162.83, 219.29 163.0, 219.33 163.17, 219.37 163.33, 219.41 163.5, 219.45 163.67, 219.49 163.83, 219.53 164.0, 219.56 164.17, 219.6 164.33, 219.63 164.5, 219.66 164.67, 219.69 164.83, 219.72 165.0, 219.75 165.17, 219.78 165.33, 219.8 165.5, 219.83 165.67, 219.85 165.83, 219.87 166.0, 219.89 166.17, 219.91 166.33, 219.93 166.5, 219.94 166.67, 219.96 166.83, 219.97 167.0, 219.99 167.17, 220.0 167.33, 220.01 167.5, 220.01 167.67, 220.02 167.83, 220.03 168.0, 220.03 168.17, 220.03 168.33, 220.03 168.5, 220.03 168.67, 220.03 168.83, 220.03 169.0, 220.03 169.17, 220.02 169.33, 220.02 169.5, 220.01 169.67, 220.0 169.83, 219.99 170.0, 219.97 170.17, 219.96 170.33, 219.95 170.5, 219.93 170.67, 219.91 170.83, 219.89 171.0, 219.87 171.17, 219.85 171.33, 219.83 171.5, 219.81 171.67, 219.78 171.83, 219.75 172.0, 219.72 172.17, 219.69 172.33, 219.66 172.5, 219.63 172.67, 219.6 172.83, 219.56 173.0, 219.53 173.17, 219.49 173.33, 219.45 173.5, 219.41 173.67, 219.37 173.83, 219.32 174.0, 219.28 174.17, 219.23 174.33, 219.19 174.5, 219.14 174.67, 219.09 174.83, 219.04 175.0, 218.99 175.17, 218.93 175.33, 218.88 175.5, 218.82 175.67, 218.76 175.83, 218.71 176.0, 218.65 176.17, 218.58 176.33, 218.52 176.5, 218.46 176.67, 218.39 176.83, 218.33 177.0, 218.26 177.17, 218.19 177.33, 218.12 177.5, 218.05 177.67, 217.98 177.83, 217.9 178.0, 217.83 178.17, 217.75 178.33, 217.67 178.5, 217.59 178.67, 217.51 178.83, 217.43 179.0, 217.35 179.17, 217.27 179.33, 217.18 179.5, 217.1 179.67, 217.01 179.83, 216.92 180.0, 216.83 180.17, 216.74 180.33, 216.65 180.5, 216.56 180.67, 216.46 180.83, 216.37 181.0, 216.27 181.17, 216.17 181.33, 216.07 181.5, 215.97 181.67, 215.87 181.83, 215.77 182.0, 215.67 182.17, 215.56 182.33, 215.46 182.5, 215.35 182.67, 215.24 182.83, 215.14 183.0, 215.03 183.17, 214.92 183.33, 214.8 183.5, 214.69 183.67, 214.58 183.83, 214.46 184.0, 214.35 184.17, 214.23 184.33, 214.11 184.5, 213.99 184.67, 213.88 184.83, 213.75 185.0, 213.63 185.17, 213.51 185.33, 213.39 185.5, 213.26 185.67, 213.14 185.83, 213.01 186.0, 212.88 186.17, 212.76 186.33, 212.63 186.5, 212.5 186.67, 212.37 186.83, 212.24 187.0, 212.1 187.17, 211.97 187.33, 211.84 187.5, 211.7 187.67, 211.57 187.83, 211.43 188.0, 211.29 188.17, 211.15 188.33, 211.02 188.5, 210.88 188.67, 210.74 188.83, 210.6 189.0, 210.45 189.17, 210.31 189.33, 210.17 189.5, 210.02 189.67, 209.88 189.83, 209.73 190.0, 209.59 190.17, 209.44 190.33, 209.29 190.5, 209.15 190.67, 209.0 190.83, 208.85 191.0, 208.7 191.17, 208.55 191.33, 208.4 191.5, 208.25 191.67, 208.09 191.83, 207.94 192.0, 207.79 192.17, 207.63 192.33, 207.48 192.5, 207.33 192.67, 207.17 192.83, 207.01 193.0, 206.86 193.17, 206.7 193.33, 206.54 193.5, 206.39 193.67, 206.23 193.83, 206.07 194.0, 205.91 194.17, 205.75 194.33, 205.59 194.5, 205.43 194.67, 205.27 194.83, 205.11 195.0, 204.95 195.17, 204.79 195.33, 204.62 195.5, 204.46 195.67, 204.3 195.83, 204.14 196.0, 203.97 196.17, 203.81 196.33, 203.65 196.5, 203.48 196.67, 203.32 196.83, 203.15 197.0, 202.99 197.17, 202.82 197.33, 202.66 197.5, 202.49 197.67, 202.33 197.83, 202.16 198.0, 202.0 198.17, 201.83 198.33, 201.66 198.5, 201.5 198.67, 201.33 198.83, 201.17 199.0, 201.0 199.17, 200.83 199.33, 200.67 199.5, 200.5 199.67, 200.33 199.83, 200.17 200.0, 200.0 200.17, 199.83 200.33, 199.67 200.5, 199.5 200.67, 199.33 200.83, 199.17 201.0, 199.0 201.17, 198.83 201.33, 198.67 201.5, 198.5 201.67, 198.34 201.83, 198.17 202.0, 198.0 202.17, 197.84 202.33, 197.67 202.5, 197.51 202.67, 197.34 202.83, 197.18 203.0, 197.01 203.17, 196.85 203.33, 196.68 203.5, 196.52 203.67, 196.35 203.83, 196.19 204.0, 196.03 204.17, 195.86 204.33, 195.7 204.5, 195.54 204.67, 195.38 204.83, 195.21 205.0, 195.05 205.17, 194.89 205.33, 194.73 205.5, 194.57 205.67, 194.41 205.83, 194.25 206.0, 194.09 206.17, 193.93 206.33, 193.77 206.5, 193.61 206.67, 193.46 206.83, 193.3 207.0, 193.14 207.17, 192.99 207.33, 192.83 207.5, 192.67 207.67, 192.52 207.83, 192.37 208.0, 192.21 208.17, 192.06 208.33, 191.91 208.5, 191.75 208.67, 191.6 208.83, 191.45 209.0, 191.3 209.17, 191.15 209.33, 191.0 209.5, 190.85 209.67, 190.71 209.83, 190.56 210.0, 190.41 210.17, 190.27 210.33, 190.12 210.5, 189.98 210.67, 189.83 210.83, 189.69 211.0, 189.55 211.17, 189.4 211.33, 189.26 211.5, 189.12 211.67, 188.98 211.83, 188.85 212.0, 188.71 212.17, 188.57 212.33, 188.43 212.5, 188.3 212.67, 188.16 212.83, 188.03 213.0, 187.9 213.17, 187.76 213.33, 187.63 213.5, 187.5 213.67, 187.37 213.83, 187.24 214.0, 187.12 214.17, 186.99 214.33, 186.86 214.5, 186.74 214.67, 186.61 214.83, 186.49 215.0, 186.37 215.17, 186.25 215.33, 186.12 215.5, 186.01 215.67, 185.89 215.83, 185.77 216.0, 185.65 216.17, 185.54 216.33, 185.42 216.5, 185.31 216.67, 185.2 216.83, 185.08 217.0, 184.97 217.17, 184.86 217.33, 184.76 217.5, 184.65 217.67, 184.54 217.83, 184.44 218.0, 184.33 218.17, 184.23 218.33, 184.13 218.5, 184.03 218.67, 183.93 218.83, 183.83 219.0, 183.73 219.17, 183.63 219.33, 183.54 219.5, 183.44 219.67, 183.35 219.83, 183.26 220.0, 183.17 220.17, 183.08 220.33, 182.99 220.5, 182.9 220.67, 182.82 220.83, 182.73 221.0, 182.65 221.17, 182.57 221.33, 182.49 221.5, 182.41 221.67, 182.33 221.83, 182.25 222.0, 182.17 222.17, 182.1 222.33, 182.02 222.5, 181.95 222.67, 181.88 222.83, 181.81 223.0, 181.74 223.17, 181.67 223.33, 181.61 223.5, 181.54 223.67, 181.48 223.83, 181.42 224.0, 181.35 224.17, 181.29 224.33, 181.24 224.5, 181.18 224.67, 181.12 224.83, 181.07 225.0, 181.01 225.17, 180.96 225.33, 180.91 225.5, 180.86 225.67, 180.81 225.83, 180.77 226.0, 180.72 226.17, 180.68 226.33, 180.63 226.5, 180.59 226.67, 180.55 226.83, 180.51 227.0, 180.47 227.17, 180.44 227.33, 180.4 227.5, 180.37 227.67, 180.34 227.83, 180.31 228.0, 180.28 228.17, 180.25 228.33, 180.22 228.5, 180.19 228.67, 180.17 228.83, 180.15 229.0, 180.13 229.17, 180.11 229.33, 180.09 229.5, 180.07 229.67, 180.05 229.83, 180.04 230.0, 180.03 230.17, 180.01 230.33, 180.0 230.5, 179.99 230.67, 179.98 230.83, 179.98 231.0, 179.97 231.17, 179.97 231.33, 179.97 231.5, 179.97 231.67, 179.97 231.83, 179.97 232.0, 179.97 232.17, 179.97 232.33, 179.98 232.5, 179.99 232.67, 179.99 232.83, 180.0 233.0, 180.01 233.17, 180.03 233.33, 180.04 233.5, 180.06 233.67, 180.07 233.83, 180.09 234.0, 180.11 234.17, 180.13 234.33, 180.15 234.5, 180.17 234.67, 180.2 234.83, 180.22 235.0, 180.25 235.17, 180.28 235.33, 180.31 235.5, 180.34 235.67, 180.37 235.83, 180.4 236.0, 180.44 236.17, 180.47 236.33, 180.51 236.5, 180.55 236.67, 180.59 236.83, 180.63 237.0, 180.67 237.17, 180.71 237.33, 180.76 237.5, 180.8 237.67, 180.85 237.83, 180.9 238.0, 180.95 238.17, 181.0 238.33, 181.05 238.5, 181.11 238.67, 181.16 238.83, 181.22 239.0, 181.27 239.17, 181.33 239.33, 181.39 239.5, 181.45 239.67, 181.51 239.83, 181.57 240.0, 181.64 240.17, 181.7 240.33, 181.77 240.5, 181.84 240.67, 181.9 240.83, 181.97 241.0, 182.05 241.17, 182.12 241.33, 182.19 241.5, 182.26 241.67, 182.34 241.83, 182.41 242.0, 182.49 242.17, 182.57 242.33, 182.65 242.5, 182.73 242.67, 182.81 242.83, 182.89 243.0, 182.98 243.17, 183.06 243.33, 183.15 243.5, 183.23 243.67, 183.32 243.83, 183.41 244.0, 183.5 244.17, 183.59 244.33, 183.68 244.5, 183.77 244.67, 183.86 244.83, 183.96 245.0, 184.05 245.17, 184.15 245.33, 184.25 245.5, 184.34 245.67, 184.44 245.83, 184.54 246.0, 184.64 246.17, 184.74 246.33, 184.84 246.5, 184.94 246.67, 185.05 246.83, 185.15 247.0, 185.26 247.17, 185.36 247.33, 185.47 247.5, 185.58 247.67, 185.68 247.83, 185.79 248.0, 185.9 248.17, 186.01 248.33, 186.12 248.5, 186.23 248.67, 186.34 248.83, 186.46 249.0, 186.57 249.17, 186.68 249.33, 186.8 249.5, 186.91 249.67, 187.03 249.83, 187.14 250.0, 187.26 250.17, 187.38 250.33, 187.5 250.5, 187.61 250.67, 187.73 250.83, 187.85 251.0, 187.97 251.17, 188.09 251.33, 188.21 251.5, 188.33 251.67, 188.45 251.83, 188.57 252.0, 188.7 252.17, 188.82 252.33, 188.94 252.5, 189.06 252.67, 189.19 252.83, 189.31 253.0, 189.44 253.17, 189.56 253.33, 189.69 253.5, 189.81 253.67, 189.93 253.83, 190.06 254.0, 190.19 254.17, 190.31 254.33, 190.44 254.5, 190.56 254.67, 190.69 254.83, 190.82 255.0, 190.94 255.17, 191.07 255.33, 191.2 255.5, 191.32 255.67, 191.45 255.83, 191.58 256.0, 191.7 256.17, 191.83 256.33, 191.96 256.5, 192.08 256.67, 192.21 256.83, 192.34 257.0, 192.46 257.17, 192.59 257.33, 192.71 257.5, 192.84 257.67, 192.97 257.83, 193.09 258.0, 193.22 258.17, 193.34 258.33, 193.47 258.5, 193.59 258.67, 193.72 258.83, 193.84 259.0, 193.97 259.17, 194.09 259.33, 194.22 259.5, 194.34 259.67, 194.46 259.83, 194.58 260.0, 194.71 260.17, 194.83 260.33, 194.95 260.5, 195.07 260.67, 195.19 260.83, 195.31 261.0, 195.43 261.17, 195.55 261.33, 195.67 261.5, 195.79 261.67, 195.91 261.83, 196.02 262.0, 196.14 262.17, 196.25 262.33, 196.37 262.5, 196.48 262.67, 196.6 262.83, 196.71 263.0, 196.82 263.17, 196.94 263.33, 197.05 263.5, 197.16 263.67, 197.27 263.83, 197.38 264.0, 197.48 264.17, 197.59 264.33, 197.7 264.5, 197.8 264.67, 197.91 264.83, 198.01 265.0, 198.11 265.17, 198.22 265.33, 198.32 265.5, 198.42 265.67, 198.52 265.83, 198.61 266.0, 198.71 266.17, 198.81 266.33, 198.9 266.5, 199.0 266.67, 199.09 266.83, 199.18 267.0, 199.27 267.17, 199.36 267.33, 199.45 267.5, 199.54 267.67, 199.62 267.83, 199.71 268.0, 199.79 268.17, 199.88 268.33, 199.96 268.5, 200.04 268.67, 200.12 268.83, 200.19 269.0, 200.27 269.17, 200.34 269.33, 200.42 269.5, 200.49 269.67, 200.56 269.83, 200.63 270.0, 200.7 270.17, 200.77 270.33, 200.83 270.5, 200.89 270.67, 200.96 270.83, 201.02 271.0, 201.08 271.17, 201.14 271.33, 201.19 271.5, 201.25 271.67, 201.3 271.83, 201.35 272.0, 201.4 272.17, 201.45 272.33, 201.5 272.5, 201.54 272.67, 201.59 272.83, 201.63 273.0, 201.67 273.17, 201.71 273.33, 201.74 273.5, 201.78 273.67, 201.81 273.83, 201.84 274.0, 201.87 274.17, 201.9 274.33, 201.93 274.5, 201.95 274.67, 201.97 274.83, 202.0 275.0, 202.01 275.17, 202.03 275.33, 202.05 275.5, 202.06 275.67, 202.07 275.83, 202.08 276.0, 202.09 276.17, 202.1 276.33, 202.1 276.5, 202.1 276.67, 202.1 276.83, 202.1 277.0, 202.1 277.17, 202.09 277.33, 202.08 277.5, 202.07 277.67, 202.06 277.83, 202.05 278.0, 202.03 278.17, 202.01 278.33, 201.99 278.5, 201.97 278.67, 201.95 278.83, 201.92 279.0, 201.89 279.17, 201.86 279.33, 201.83 279.5, 201.79 279.67, 201.76 279.83, 201.72 280.0, 201.68 280.17, 201.63 280.33, 201.59 280.5, 201.54 280.67, 201.49 280.83, 201.44 281.0, 201.38 281.17, 201.33 281.33, 201.27 281.5, 201.21 281.67, 201.15 281.83, 201.08 282.0, 201.01 282.17, 200.94 282.33, 200.87 282.5, 200.8 282.67, 200.72 282.83, 200.64 283.0, 200.56 283.17, 200.48 283.33, 200.39 283.5, 200.31 283.67, 200.22 283.83, 200.13 284.0, 200.03 284.17, 199.94 284.33, 199.84 284.5, 199.74 284.67, 199.63 284.83, 199.53 285.0, 199.42 285.17, 199.31 285.33, 199.2 285.5, 199.08 285.67, 198.97 285.83, 198.85 286.0, 198.73 286.17, 198.6 286.33, 198.48 286.5, 198.35 286.67, 198.22 286.83, 198.09 287.0, 197.96 287.17, 197.82 287.33, 197.68 287.5, 197.54 287.67, 197.4 287.83, 197.25 288.0, 197.1 288.17, 196.96 288.33, 196.8 288.5, 196.65 288.67, 196.49 288.83, 196.34 289.0, 196.18 289.17, 196.01 289.33, 195.85 289.5, 195.68 289.67, 195.52 289.83, 195.34 290.0, 195.17 290.17, 195.0 290.33, 194.82 290.5, 194.64 290.67, 194.46 290.83, 194.28 291.0, 194.09 291.17, 193.91 291.33, 193.72 291.5, 193.53 291.67, 193.34 291.83, 193.14 292.0, 192.95 292.17, 192.75 292.33, 192.55 292.5, 192.35 292.67, 192.15 292.83, 191.94 293.0, 191.73 293.17, 191.53 293.33, 191.32 293.5, 191.1 293.67, 190.89 293.83, 190.68 294.0, 190.46 294.17, 190.24 294.33, 190.02 294.5, 189.8 294.67, 189.58 294.83, 189.35 295.0, 189.13 295.17, 188.9 295.33, 188.67 295.5, 188.44 295.67, 188.21 295.83, 187.98 296.0, 187.74 296.17, 187.51 296.33, 187.27 296.5, 187.04 296.67, 186.8 296.83, 186.56 297.0, 186.32 297.17, 186.08 297.33, 185.83 297.5, 185.59 297.67, 185.34 297.83, 185.1 298.0, 184.85 298.17, 184.61 298.33, 184.36 298.5, 184.11 298.67, 183.86 298.83, 183.61 299.0, 183.36 299.17, 183.11 299.33, 182.86 299.5, 182.6 299.67, 182.35 299.83, 182.1 300.0, 181.85 300.17, 181.59 300.33, 181.34 300.5, 181.08 300.67, 180.83 300.83, 180.58 301.0, 180.32 301.17, 180.07 301.33, 179.81 301.5, 179.56 301.67, 179.3 301.83, 179.05 302.0, 178.8 302.17, 178.54 302.33, 178.29 302.5, 178.04 302.67, 177.79 302.83, 177.54 303.0, 177.29 303.17, 177.04 303.33, 176.79 303.5, 176.54 303.67, 176.29 303.83, 176.04 304.0, 175.8 304.17, 175.55 304.33, 175.31 304.5, 175.07 304.67, 174.83 304.83, 174.59 305.0, 174.35 305.17, 174.11 305.33, 173.88 305.5, 173.65 305.67, 173.41 305.83, 173.19 306.0, 172.96 306.17, 172.73 306.33, 172.51 306.5, 172.29 306.67, 172.07 306.83, 171.85 307.0, 171.63 307.17, 171.42 307.33, 171.21 307.5, 171.0 307.67, 170.8 307.83, 170.6 308.0, 170.4 308.17, 170.2 308.33, 170.01 308.5, 169.82 308.67, 169.63 308.83, 169.45 309.0, 169.27 309.17, 169.09 309.33, 168.92 309.5, 168.75 309.67, 168.58 309.83, 168.42 310.0, 168.26 310.17, 168.11 310.33, 167.96 310.5, 167.81 310.67, 167.67 310.83, 167.53 311.0, 167.4 311.17, 167.28 311.33, 167.15 311.5, 167.04 311.67, 166.92 311.83, 166.82 312.0, 166.71 312.17, 166.62 312.33, 166.53 312.5, 166.44 312.67, 166.36 312.83, 166.29 313.0, 166.22 313.17, 166.16 313.33, 166.1 313.5, 166.05 313.67, 166.01 313.83, 165.97 314.0, 165.94 314.17, 165.92 314.33, 165.9 314.5, 165.89 314.67, 165.89 314.83, 165.9 315.0, 165.91 315.17, 165.93 315.33, 165.96 315.5, 166.0 315.67, 166.04 315.83, 166.09 316.0, 166.16 316.17, 166.23 316.33, 166.3 316.5, 166.39 316.67, 166.49 316.83, 166.59 317.0, 166.71 317.17, 166.83 317.33, 166.96 317.5, 167.1 317.67, 167.26 317.83, 167.42 318.0, 167.59 318.17, 167.78 318.33, 167.97 318.5, 168.17 318.67, 168.39 318.83, 168.61 319.0, 168.85 319.17, 169.1 319.33, 169.36 319.5, 169.63 319.67, 169.91 319.83, 170.21 320.0, 170.51 320.17, 170.83 320.33, 171.17 320.5, 171.51 320.67, 171.87 320.83, 172.24 321.0, 172.62 321.17, 173.02 321.33, 173.43 321.5, 173.86 321.67, 174.29 321.83, 174.75 322.0, 175.21 322.17, 175.7 322.33, 176.19 322.5, 176.71 322.67, 177.23 322.83, 177.77 323.0, 178.33 323.17, 178.91 323.33, 179.5 323.5, 180.1 323.67, 180.72 323.83, 181.36 324.0, 182.02 324.17, 182.69 324.33, 183.38 324.5, 184.09 324.67, 184.81 324.83, 185.56 325.0, 186.32 325.17, 187.1 325.33, 187.9 325.5, 188.71 325.67, 189.55 325.83, 190.41 326.0, 191.28 326.17, 192.18 326.33, 193.09 326.5, 194.03 326.67, 194.98 326.83, 195.96 327.0, 196.96 327.17, 197.98 327.33, 199.02 327.5, 200.08 327.67, 201.16 327.83, 202.27 328.0, 203.4 328.17, 204.55 328.33, 205.72 328.5, 206.92 328.67, 208.14 328.83, 209.39 329.0, 210.66 329.17, 211.95 329.33, 213.27 329.5, 214.61 329.67, 215.98 329.83, 217.38 330.0, 218.8 330.17, 220.24 330.33, 221.71 330.5, 223.21 330.67, 224.74 330.83, 226.29 331.0, 227.87 331.17, 229.48 331.33, 231.12 331.5, 232.78 331.67, 234.47 331.83, 236.2 332.0, 237.95 332.17, 239.73 332.33, 241.54 332.5, 243.38 332.67, 245.25 332.83, 247.15 333.0, 249.09 333.17, 251.05 333.33, 253.05 333.5, 255.08 333.67, 257.14 333.83, 259.23 334.0, 261.36 334.17, 263.52 334.33, 265.72 334.5, 267.95 334.67, 270.21 334.83, 272.51 335.0, 274.84 335.17, 277.21 335.33, 279.61 335.5, 282.05 335.67, 284.53 335.83, 287.04 336.0, 289.6 336.17, 292.18 336.33, 294.81 336.5, 297.48 336.67, 300.18 336.83, 302.92 337.0, 305.71 337.17, 308.53 337.33, 311.39 337.5, 314.3 337.67, 317.24 337.83, 320.22 338.0, 323.25 338.17, 326.32 338.33, 329.43 338.5, 332.59 338.67, 335.79 338.83, 339.03 339.0, 342.32 339.17, 345.65 339.33, 349.02 339.5, 352.44 339.67, 355.91 339.83, 359.42 340.0, 362.98 340.17, 366.59 340.33, 370.24 340.5, 373.95 340.67, 377.7 340.83, 381.5 341.0, 385.34 341.17, 389.24 341.33, 393.19 341.5, 397.19 341.67, 401.24 341.83, 405.34 342.0, 409.49 342.17, 413.7 342.33, 417.96 342.5, 422.27 342.67, 426.63 342.83, 431.05 343.0, 435.52 343.17, 440.05 343.33, 444.64 343.5, 449.28 343.67, 453.97 343.83, 458.73 344.0, 463.54 344.17, 468.41 344.33, 473.34 344.5, 478.32 344.67, 483.37 344.83, 488.47 345.0, 493.64 345.17, 498.87 345.33, 504.16 345.5, 509.51 345.67, 514.92 345.83, 520.4 346.0, 525.94 346.17, 531.54 346.33, 537.21 346.5, 542.94 346.67, 548.74 346.83, 554.61 347.0, 560.54 347.17, 566.54 347.33, 572.61 347.5, 578.74 347.67, 584.95 347.83, 591.22 348.0, 597.56 348.17, 603.98 348.33, 610.46 348.5, 617.02 348.67, 623.65 348.83, 630.35 349.0, 637.13 349.17, 643.98 349.33, 650.9 349.5, 657.9 349.67, 664.98 349.83, 672.13 350.0, 679.36 350.17, 686.67 350.33, 694.05 350.5, 701.51 350.67, 709.06 350.83, 716.68 351.0, 724.38 351.17, 732.17 351.33, 740.03 351.5, 747.98 351.67, 756.01 351.83, 764.13 352.0, 772.33 352.17, 780.61 352.33, 788.98 352.5, 797.44 352.67, 805.99 352.83, 814.62 353.0, 823.34 353.17, 832.15 353.33, 841.04 353.5, 850.03 353.67, 859.11 353.83, 868.28 354.0, 877.55 354.17, 886.9 354.33, 896.35 354.5, 905.9 354.67, 915.54 354.83, 925.27 355.0, 935.1 355.17, 945.03 355.33, 955.06 355.5, 965.19 355.67, 975.41 355.83, 985.74 356.0, 996.16 356.17, 1006.69 356.33, 1017.32 356.5, 1028.05 356.67, 1038.89 356.83, 1049.83 357.0, 1060.87 357.17, 1072.02 357.33, 1083.28 357.5, 1094.65 357.67, 1106.12 357.83, 1117.7 358.0, 1129.4 358.17, 1141.2 358.33, 1153.11 358.5, 1165.14 358.67, 1177.28 358.83, 1189.53 359.0, 1201.9 359.17, 1214.38 359.33, 1226.98 359.5, 1239.7 359.67, 1252.53 359.83, 1265.48 360.0, 1278.55 360.17, 1291.74 360.33, 1305.06 360.5, 1318.49 360.67, 1332.05 360.83, 1345.73 361.0, 1359.53 361.17, 1373.46 361.33, 1387.52 361.5, 1401.7 361.67, 1416.01 361.83, 1430.45 362.0, 1445.02 362.17, 1459.72 362.33, 1474.55 362.5, 1489.51 362.67, 1504.6 362.83, 1519.83 363.0, 1535.2 363.17, 1550.7 363.33, 1566.33 363.5, 1582.11 363.67, 1598.02 363.83, 1614.07 364.0, 1630.26 364.17, 1646.6 364.33, 1663.07 364.5, 1679.69 364.67, 1696.45 364.83, 1713.36 365.0, 1730.41 365.17, 1747.62 365.33, 1764.96 365.5, 1782.46 365.67, 1800.11 365.83, 1817.9 366.0, 1835.85 366.17, 1853.96 366.33, 1872.21 366.5, 1890.62 366.67, 1909.19 366.83, 1927.91 367.0, 1946.79 367.17, 1965.83 367.33, 1985.03 367.5, 2004.39 367.67, 2023.91 367.83, 2043.59 368.0, 2063.44 368.17, 2083.45 368.33, 2103.63 368.5, 2123.98 368.67, 2144.49 368.83, 2165.18 369.0, 2186.03 369.17, 2207.05 369.33, 2228.25 369.5, 2249.62 369.67, 2271.17 369.83, 2292.89 370.0, 2314.78 370.17, 2336.86 370.33, 2359.11 370.5, 2381.54 370.67, 2404.16 370.83, 2426.96 371.0, 2449.94 371.17, 2473.1 371.33, 2496.45 371.5, 2519.99 371.67, 2543.71 371.83, 2567.63 372.0, 2591.73 372.17, 2616.03 372.33, 2640.52 372.5, 2665.2 372.67, 2690.08 372.83, 2715.15 373.0, 2740.42 373.17, 2765.89 373.33, 2791.56 373.5, 2817.43 373.67, 2843.5 373.83, 2869.77 374.0, 2896.25 374.17, 2922.94 374.33, 2949.83 374.5, 2976.93 374.67, 3004.24 374.83, 3031.76 375.0, 3059.49 375.17, 3087.44 375.33, 3115.6 375.5, 3143.98 375.67, 3172.57 375.83, 3201.38 376.0, 3230.41 376.17, 3259.67 376.33, 3289.14 376.5, 3318.84 376.67, 3348.76 376.83, 3378.91 377.0, 3409.29 377.17, 3439.89 377.33, 3470.73 377.5, 3501.8 377.67, 3533.1 377.83, 3564.63 378.0, 3596.4 378.17, 3628.41 378.33, 3660.65 378.5, 3693.14 378.67, 3725.86 378.83, 3758.83 379.0, 3792.05 379.17, 3825.5 379.33, 3859.21 379.5, 3893.16 379.67, 3927.36 379.83, 3961.82 380.0, 3996.52 380.17, 4031.48 380.33, 4066.7 380.5, 4102.17 380.67, 4137.9 380.83, 4173.88 381.0, 4210.13 381.17, 4246.65 381.33, 4283.42 381.5, 4320.47 381.67, 4357.78 381.83, 4395.35 382.0, 4433.2 382.17, 4471.32 382.33, 4509.71 382.5, 4548.38 382.67, 4587.32 382.83, 4626.54 383.0, 4666.04 383.17, 4705.83 383.33, 4745.89 383.5, 4786.24 383.67, 4826.87 383.83, 4867.79 384.0, 4909.0 384.17, 4950.5 384.33, 4992.29 384.5, 5034.37 384.67, 5076.75 384.83, 5119.42 385.0, 5162.4 385.17, 5205.67 385.33, 5249.25 385.5, 5293.12 385.67, 5337.31 385.83, 5381.8 386.0, 5426.6 386.17, 5471.7 386.33, 5517.12 386.5, 5562.85 386.67, 5608.9 386.83, 5655.27 387.0, 5701.95 387.17, 5748.95 387.33, 5796.27 387.5, 5843.92 387.67, 5891.89 387.83, 5940.19 388.0, 5988.82 388.17, 6037.78 388.33, 6087.07 388.5, 6136.7 388.67, 6186.66 388.83, 6236.96 389.0, 6287.59 389.17, 6338.57 389.33, 6389.89 389.5, 6441.56 389.67, 6493.57 389.83, 6545.93 390.0, 6598.65 390.17, 6651.71 390.33, 6705.13 390.5, 6758.9 390.67, 6813.03 390.83, 6867.52 391.0, 6922.37 391.17, 6977.59 391.33, 7033.17 391.5, 7089.12 391.67, 7145.43 391.83, 7202.12 392.0, 7259.18 392.17, 7316.62 392.33, 7374.43 392.5, 7432.62 392.67, 7491.19 392.83, 7550.14 393.0, 7609.48 393.17, 7669.21 393.33, 7729.32 393.5, 7789.82 393.67, 7850.72 393.83, 7912.01 394.0, 7973.7 394.17, 8035.78 394.33, 8098.27 394.5, 8161.16 394.67, 8224.45 394.83, 8288.15 395.0, 8352.26 395.17, 8416.78 395.33, 8481.71 395.5, 8547.06 395.67, 8612.83 395.83, 8679.01 396.0, 8745.62 396.17, 8812.64 396.33, 8880.1 396.5, 8947.98 396.67, 9016.29 396.83, 9085.04 397.0, 9154.22 397.17, 9223.83 397.33, 9293.89 397.5, 9364.38 397.67, 9435.32 397.83, 9506.7 398.0, 9578.53 398.17, 9650.81 398.33, 9723.54 398.5, 9796.72 398.67, 9870.36 398.83, 9944.46 399.0, 10019.02 399.17, 10094.05 399.33, 10169.54 399.5, 10245.49 399.67, 10321.92 399.83, 10398.82 400.0, 10476.19 " fill="none" stroke="white" stroke-width="1.5" stroke-linejoin="round" stroke-opacity="1"/>

 </svg>