<svg version="1.1" 
 baseProfile="full" 
 width="400" 
 height="400" 
 xmlns="http://www.w3.org/2000/svg">
<rect x="0.0" y="0.0" width="400" height="400" fill="black" stroke="black" stroke-width="0" opacity="1"/>
<line x1="0.0" y1="0.0" x2="0.0" y2="400.0" stroke="white" stroke-width="1" opacity="0.4" stroke-linecap="butt"/>
<line x1="40.0" y1="0.0" x2="40.0" y2="400.0" stroke="white" stroke-width="1" opacity="0.4" stroke-linecap="butt"/>
<line x1="80.0" y1="0.0" x2="80.0" y2="400.0" stroke="white" stroke-width="1" opacity="0.4" stroke-linecap="butt"/>
<line x1="120.0" y1="0.0" x2="120.0" y2="400.0" stroke="white" stroke-width="1" opacity="0.4" stroke-linecap="butt"/>
<line x1="160.0" y1="0.0" x2="160.0" y2="400.0" stroke="white" stroke-width="1" opacity="0.4" stroke-linecap="butt"/>
<line x1="200.0" y1="0.0" x2="200.0" y2="400.0" stroke="white" stroke-width="1" opacity="0.4" stroke-linecap="butt"/>
<line x1="240.0" y1="0.0" x2="240.0" y2="400.0" stroke="white" stroke-width="1" opacity="0.4" stroke-linecap="butt"/>
<line x1="280.0" y1="0.0" x2="280.0" y2="400.0" stroke="white" stroke-width="1" opacity="0.4" stroke-linecap="butt"/>
<line x1="320.0" y1="0.0" x2="320.0" y2="400.0" stroke="white" stroke-width="1" opacity="0.4" stroke-linecap="butt"/>
<line x1="360.0" y1="0.0" x2="360.0" y2="400.0" stroke="white" stroke-width="1" opacity="0.4" stroke-linecap="butt"/>
<line x1="0.0" y1="0.0" x2="400.0" y2="0.0" stroke="white" stroke-width="1" opacity="0.4" stroke-linecap="butt"/>
<line x1="0.0" y1="40.0" x2="400.0" y2="40.0" stroke="white" stroke-width="1" opacity="0.4" stroke-linecap="butt"/>
<line x1="0.0" y1="80.0" x2="400.0" y2="80.0" stroke="white" stroke-width="1" opacity="0.4" stroke-linecap="butt"/>
<line x1="0.0" y1="120.0" x2="400.0" y2="120.0" stroke="white" stroke-width="1" opacity="0.4" stroke-linecap="butt"/>
<line x1="0.0" y1="160.0" x2="400.0" y2="160.0" stroke="white" stroke-width="1" opacity="0.4" stroke-linecap="butt"/>
<line x1="0.0" y1="200.0" x2="400.0" y2="200.0" stroke="white" stroke-width="1" opacity="0.4" stroke-linecap="butt"/>
<line x1="0.0" y1="240.0" x2="400.0" y2="240.0" stroke="white" stroke-width="1" opacity="0.4" stroke-linecap="butt"/>
<line x1="0.0" y1="280.0" x2="400.0" y2="280.0" stroke="white" stroke-width="1" opacity="0.4" stroke-linecap="butt"/>
<line x1="0.0" y1="320.0" x2="400.0" y2="320.0" stroke="white" stroke-width="1" opacity="0.4" stroke-linecap="butt"/>
<line x1="0.0" y1="360.0" x2="400.0" y2="360.0" stroke="white" stroke-width="1" opacity="0.4" stroke-linecap="butt"/>
<line x1="0.0" y1="200.0" x2="400.0" y2="200.0" stroke="yellow" stroke-width="2.5" opacity="1" stroke-linecap="butt"/>
<line x1="200.0" y1="0.0" x2="200.0" y2="400.0" stroke="yellow" stroke-width="2.5" opacity="1" stroke-linecap="butt"/>
<polygon points="391.0 204.0, 401.0 200.0, 391.0 196.0, 393.0 200.0" fill="yellow"/><polygon points="204.0 9.0, 200.0 -1.0, 196.0 9.0, 200.0 7.0" fill="yellow"/><image x="-60.0" y="-60.0" width="200" height="200" href="/Users/girirajhira/PycharmProjects/Giraphics3/Taylor/expr.png"/><polyline points="0.0, -14044.44 0.17, -13943.98 0.33, -13844.11 0.5, -13744.82 0.67, -13646.12 0.83, -13548.0 1.0, -13450.45 1.17, -13353.49 1.33, -13257.1 1.5, -13161.27 1.67, -13066.02 1.83, -12971.33 2.0, -12877.2 2.17, -12783.63 2.33, -12690.62 2.5, -12598.16 2.67, -12506.26 2.83, -12414.9 3.0, -12324.09 3.17, -12233.83 3.33, -12144.1 3.5, -12054.91 3.67, -11966.26 3.83, -11878.15 4.0, -11790.56 4.17, -11703.5 4.33, -11616.97 4.5, -11530.96 4.67, -11445.47 4.83, -11360.49 5.0, -11276.04 5.17, -11192.09 5.33, -11108.66 5.5, -11025.73 5.67, -10943.31 5.83, -10861.39 6.0, -10779.98 6.17, -10699.06 6.33, -10618.63 6.5, -10538.7 6.67, -10459.26 6.83, -10380.31 7.0, -10301.85 7.17, -10223.86 7.33, -10146.36 7.5, -10069.34 7.67, -9992.79 7.83, -9916.72 8.0, -9841.12 8.17, -9765.98 8.33, -9691.32 8.5, -9617.12 8.67, -9543.38 8.83, -9470.1 9.0, -9397.28 9.17, -9324.91 9.33, -9253.0 9.5, -9181.53 9.67, -9110.52 9.83, -9039.95 10.0, -8969.83 10.17, -8900.14 10.33, -8830.9 10.5, -8762.09 10.67, -8693.72 10.83, -8625.78 11.0, -8558.28 11.17, -8491.2 11.33, -8424.54 11.5, -8358.31 11.67, -8292.5 11.83, -8227.12 12.0, -8162.15 12.17, -8097.59 12.33, -8033.45 12.5, -7969.72 12.67, -7906.4 12.83, -7843.48 13.0, -7780.97 13.17, -7718.86 13.33, -7657.16 13.5, -7595.85 13.67, -7534.94 13.83, -7474.42 14.0, -7414.3 14.17, -7354.56 14.33, -7295.22 14.5, -7236.26 14.67, -7177.68 14.83, -7119.49 15.0, -7061.68 15.17, -7004.24 15.33, -6947.18 15.5, -6890.5 15.67, -6834.19 15.83, -6778.25 16.0, -6722.67 16.17, -6667.47 16.33, -6612.63 16.5, -6558.15 16.67, -6504.03 16.83, -6450.27 17.0, -6396.87 17.17, -6343.82 17.33, -6291.12 17.5, -6238.78 17.67, -6186.79 17.83, -6135.14 18.0, -6083.84 18.17, -6032.88 18.33, -5982.27 18.5, -5931.99 18.67, -5882.06 18.83, -5832.46 19.0, -5783.19 19.17, -5734.26 19.33, -5685.66 19.5, -5637.38 19.67, -5589.44 19.83, -5541.82 20.0, -5494.53 20.17, -5447.55 20.33, -5400.9 20.5, -5354.56 20.67, -5308.55 20.83, -5262.85 21.0, -5217.46 21.17, -5172.38 21.33, -5127.61 21.5, -5083.16 21.67, -5039.0 21.83, -4995.16 22.0, -4951.61 22.17, -4908.37 22.33, -4865.43 22.5, -4822.78 22.67, -4780.44 22.83, -4738.39 23.0, -4696.63 23.17, -4655.16 23.33, -4613.98 23.5, -4573.09 23.67, -4532.49 23.83, -4492.17 24.0, -4452.14 24.17, -4412.39 24.33, -4372.92 24.5, -4333.73 24.67, -4294.81 24.83, -4256.17 25.0, -4217.81 25.17, -4179.72 25.33, -4141.9 25.5, -4104.35 25.67, -4067.06 25.83, -4030.05 26.0, -3993.29 26.17, -3956.81 26.33, -3920.58 26.5, -3884.61 26.67, -3848.91 26.83, -3813.46 27.0, -3778.26 27.17, -3743.33 27.33, -3708.64 27.5, -3674.21 27.67, -3640.02 27.83, -3606.09 28.0, -3572.4 28.17, -3538.96 28.33, -3505.76 28.5, -3472.8 28.67, -3440.09 28.83, -3407.62 29.0, -3375.38 29.17, -3343.39 29.33, -3311.63 29.5, -3280.1 29.67, -3248.81 29.83, -3217.74 30.0, -3186.91 30.17, -3156.31 30.33, -3125.94 30.5, -3095.79 30.67, -3065.87 30.83, -3036.17 31.0, -3006.69 31.17, -2977.44 31.33, -2948.4 31.5, -2919.59 31.67, -2890.99 31.83, -2862.6 32.0, -2834.44 32.17, -2806.48 32.33, -2778.74 32.5, -2751.2 32.67, -2723.88 32.83, -2696.76 33.0, -2669.86 33.17, -2643.15 33.33, -2616.65 33.5, -2590.36 33.67, -2564.27 33.83, -2538.37 34.0, -2512.68 34.17, -2487.19 34.33, -2461.89 34.5, -2436.79 34.67, -2411.88 34.83, -2387.17 35.0, -2362.65 35.17, -2338.32 35.33, -2314.18 35.5, -2290.23 35.67, -2266.46 35.83, -2242.88 36.0, -2219.49 36.17, -2196.28 36.33, -2173.26 36.5, -2150.42 36.67, -2127.75 36.83, -2105.27 37.0, -2082.97 37.17, -2060.84 37.33, -2038.89 37.5, -2017.11 37.67, -1995.51 37.83, -1974.08 38.0, -1952.83 38.17, -1931.74 38.33, -1910.82 38.5, -1890.08 38.67, -1869.5 38.83, -1849.08 39.0, -1828.83 39.17, -1808.75 39.33, -1788.83 39.5, -1769.07 39.67, -1749.47 39.83, -1730.03 40.0, -1710.76 40.17, -1691.64 40.33, -1672.67 40.5, -1653.86 40.67, -1635.21 40.83, -1616.71 41.0, -1598.37 41.17, -1580.18 41.33, -1562.13 41.5, -1544.24 41.67, -1526.5 41.83, -1508.9 42.0, -1491.46 42.17, -1474.15 42.33, -1457.0 42.5, -1439.98 42.67, -1423.12 42.83, -1406.39 43.0, -1389.8 43.17, -1373.36 43.33, -1357.05 43.5, -1340.89 43.67, -1324.86 43.83, -1308.96 44.0, -1293.21 44.17, -1277.59 44.33, -1262.1 44.5, -1246.74 44.67, -1231.52 44.83, -1216.43 45.0, -1201.47 45.17, -1186.64 45.33, -1171.93 45.5, -1157.36 45.67, -1142.91 45.83, -1128.59 46.0, -1114.39 46.17, -1100.32 46.33, -1086.37 46.5, -1072.55 46.67, -1058.84 46.83, -1045.26 47.0, -1031.79 47.17, -1018.45 47.33, -1005.22 47.5, -992.11 47.67, -979.12 47.83, -966.25 48.0, -953.49 48.17, -940.84 48.33, -928.31 48.5, -915.89 48.67, -903.58 48.83, -891.39 49.0, -879.3 49.17, -867.32 49.33, -855.46 49.5, -843.7 49.67, -832.04 49.83, -820.5 50.0, -809.06 50.17, -797.72 50.33, -786.49 50.5, -775.36 50.67, -764.34 50.83, -753.42 51.0, -742.6 51.17, -731.88 51.33, -721.26 51.5, -710.73 51.67, -700.31 51.83, -689.99 52.0, -679.76 52.17, -669.63 52.33, -659.59 52.5, -649.65 52.67, -639.8 52.83, -630.05 53.0, -620.38 53.17, -610.81 53.33, -601.34 53.5, -591.95 53.67, -582.65 53.83, -573.44 54.0, -564.33 54.17, -555.29 54.33, -546.35 54.5, -537.49 54.67, -528.72 54.83, -520.04 55.0, -511.44 55.17, -502.92 55.33, -494.49 55.5, -486.14 55.67, -477.87 55.83, -469.68 56.0, -461.58 56.17, -453.55 56.33, -445.61 56.5, -437.74 56.67, -429.96 56.83, -422.25 57.0, -414.61 57.17, -407.06 57.33, -399.58 57.5, -392.17 57.67, -384.85 57.83, -377.59 58.0, -370.41 58.17, -363.3 58.33, -356.27 58.5, -349.3 58.67, -342.41 58.83, -335.59 59.0, -328.84 59.17, -322.16 59.33, -315.55 59.5, -309.01 59.67, -302.53 59.83, -296.13 60.0, -289.79 60.17, -283.51 60.33, -277.31 60.5, -271.16 60.67, -265.09 60.83, -259.07 61.0, -253.12 61.17, -247.24 61.33, -241.42 61.5, -235.66 61.67, -229.96 61.83, -224.32 62.0, -218.74 62.17, -213.23 62.33, -207.77 62.5, -202.37 62.67, -197.03 62.83, -191.75 63.0, -186.53 63.17, -181.36 63.33, -176.26 63.5, -171.2 63.67, -166.21 63.83, -161.27 64.0, -156.38 64.17, -151.55 64.33, -146.77 64.5, -142.05 64.67, -137.38 64.83, -132.76 65.0, -128.19 65.17, -123.68 65.33, -119.21 65.5, -114.8 65.67, -110.44 65.83, -106.13 66.0, -101.87 66.17, -97.65 66.33, -93.49 66.5, -89.37 66.67, -85.3 66.83, -81.28 67.0, -77.31 67.17, -73.38 67.33, -69.5 67.5, -65.66 67.67, -61.87 67.83, -58.12 68.0, -54.42 68.17, -50.76 68.33, -47.15 68.5, -43.58 68.67, -40.05 68.83, -36.57 69.0, -33.12 69.17, -29.72 69.33, -26.36 69.5, -23.04 69.67, -19.77 69.83, -16.53 70.0, -13.33 70.17, -10.17 70.33, -7.05 70.5, -3.97 70.67, -0.93 70.83, 2.08 71.0, 5.05 71.17, 7.98 71.33, 10.87 71.5, 13.72 71.67, 16.54 71.83, 19.33 72.0, 22.08 72.17, 24.79 72.33, 27.47 72.5, 30.11 72.67, 32.72 72.83, 35.3 73.0, 37.84 73.17, 40.35 73.33, 42.83 73.5, 45.27 73.67, 47.68 73.83, 50.06 74.0, 52.41 74.17, 54.73 74.33, 57.01 74.5, 59.27 74.67, 61.49 74.83, 63.69 75.0, 65.85 75.17, 67.99 75.33, 70.09 75.5, 72.17 75.67, 74.22 75.83, 76.24 76.0, 78.24 76.17, 80.2 76.33, 82.14 76.5, 84.05 76.67, 85.93 76.83, 87.79 77.0, 89.62 77.17, 91.43 77.33, 93.21 77.5, 94.96 77.67, 96.69 77.83, 98.39 78.0, 100.07 78.17, 101.73 78.33, 103.36 78.5, 104.97 78.67, 106.55 78.83, 108.11 79.0, 109.65 79.17, 111.16 79.33, 112.65 79.5, 114.12 79.67, 115.57 79.83, 117.0 80.0, 118.4 80.17, 119.78 80.33, 121.14 80.5, 122.49 80.67, 123.81 80.83, 125.1 81.0, 126.38 81.17, 127.64 81.33, 128.88 81.5, 130.1 81.67, 131.31 81.83, 132.49 82.0, 133.65 82.17, 134.8 82.33, 135.92 82.5, 137.03 82.67, 138.12 82.83, 139.19 83.0, 140.25 83.17, 141.29 83.33, 142.31 83.5, 143.31 83.67, 144.3 83.83, 145.27 84.0, 146.23 84.17, 147.16 84.33, 148.09 84.5, 148.99 84.67, 149.89 84.83, 150.76 85.0, 151.62 85.17, 152.47 85.33, 153.3 85.5, 154.12 85.67, 154.92 85.83, 155.71 86.0, 156.48 86.17, 157.24 86.33, 157.99 86.5, 158.72 86.67, 159.44 86.83, 160.15 87.0, 160.85 87.17, 161.53 87.33, 162.2 87.5, 162.85 87.67, 163.5 87.83, 164.13 88.0, 164.75 88.17, 165.36 88.33, 165.96 88.5, 166.54 88.67, 167.12 88.83, 167.68 89.0, 168.23 89.17, 168.77 89.33, 169.31 89.5, 169.83 89.67, 170.34 89.83, 170.84 90.0, 171.33 90.17, 171.81 90.33, 172.28 90.5, 172.74 90.67, 173.19 90.83, 173.63 91.0, 174.06 91.17, 174.48 91.33, 174.9 91.5, 175.31 91.67, 175.7 91.83, 176.09 92.0, 176.47 92.17, 176.84 92.33, 177.21 92.5, 177.56 92.67, 177.91 92.83, 178.25 93.0, 178.58 93.17, 178.91 93.33, 179.23 93.5, 179.54 93.67, 179.84 93.83, 180.14 94.0, 180.43 94.17, 180.71 94.33, 180.99 94.5, 181.26 94.67, 181.52 94.83, 181.78 95.0, 182.03 95.17, 182.27 95.33, 182.51 95.5, 182.74 95.67, 182.97 95.83, 183.19 96.0, 183.4 96.17, 183.61 96.33, 183.82 96.5, 184.02 96.67, 184.21 96.83, 184.4 97.0, 184.59 97.17, 184.77 97.33, 184.94 97.5, 185.11 97.67, 185.27 97.83, 185.44 98.0, 185.59 98.17, 185.74 98.33, 185.89 98.5, 186.03 98.67, 186.17 98.83, 186.31 99.0, 186.44 99.17, 186.57 99.33, 186.69 99.5, 186.81 99.67, 186.93 99.83, 187.04 100.0, 187.15 100.17, 187.26 100.33, 187.36 100.5, 187.46 100.67, 187.56 100.83, 187.65 101.0, 187.74 101.17, 187.83 101.33, 187.92 101.5, 188.0 101.67, 188.08 101.83, 188.16 102.0, 188.23 102.17, 188.31 102.33, 188.38 102.5, 188.44 102.67, 188.51 102.83, 188.57 103.0, 188.63 103.17, 188.69 103.33, 188.75 103.5, 188.8 103.67, 188.86 103.83, 188.91 104.0, 188.96 104.17, 189.01 104.33, 189.05 104.5, 189.1 104.67, 189.14 104.83, 189.18 105.0, 189.22 105.17, 189.26 105.33, 189.3 105.5, 189.33 105.67, 189.37 105.83, 189.4 106.0, 189.44 106.17, 189.47 106.33, 189.5 106.5, 189.53 106.67, 189.56 106.83, 189.58 107.0, 189.61 107.17, 189.64 107.33, 189.66 107.5, 189.69 107.67, 189.71 107.83, 189.74 108.0, 189.76 108.17, 189.78 108.33, 189.8 108.5, 189.82 108.67, 189.84 108.83, 189.86 109.0, 189.88 109.17, 189.9 109.33, 189.92 109.5, 189.94 109.67, 189.96 109.83, 189.98 110.0, 190.0 110.17, 190.02 110.33, 190.04 110.5, 190.06 110.67, 190.07 110.83, 190.09 111.0, 190.11 111.17, 190.13 111.33, 190.15 111.5, 190.17 111.67, 190.19 111.83, 190.21 112.0, 190.23 112.17, 190.25 112.33, 190.27 112.5, 190.29 112.67, 190.31 112.83, 190.33 113.0, 190.35 113.17, 190.37 113.33, 190.39 113.5, 190.41 113.67, 190.44 113.83, 190.46 114.0, 190.49 114.17, 190.51 114.33, 190.54 114.5, 190.56 114.67, 190.59 114.83, 190.61 115.0, 190.64 115.17, 190.67 115.33, 190.7 115.5, 190.73 115.67, 190.76 115.83, 190.79 116.0, 190.82 116.17, 190.85 116.33, 190.89 116.5, 190.92 116.67, 190.95 116.83, 190.99 117.0, 191.02 117.17, 191.06 117.33, 191.1 117.5, 191.14 117.67, 191.18 117.83, 191.22 118.0, 191.26 118.17, 191.3 118.33, 191.34 118.5, 191.39 118.67, 191.43 118.83, 191.48 119.0, 191.52 119.17, 191.57 119.33, 191.62 119.5, 191.67 119.67, 191.72 119.83, 191.77 120.0, 191.82 120.17, 191.88 120.33, 191.93 120.5, 191.98 120.67, 192.04 120.83, 192.1 121.0, 192.16 121.17, 192.21 121.33, 192.27 121.5, 192.34 121.67, 192.4 121.83, 192.46 122.0, 192.52 122.17, 192.59 122.33, 192.65 122.5, 192.72 122.67, 192.79 122.83, 192.86 123.0, 192.93 123.17, 193.0 123.33, 193.07 123.5, 193.14 123.67, 193.22 123.83, 193.29 124.0, 193.37 124.17, 193.45 124.33, 193.52 124.5, 193.6 124.67, 193.68 124.83, 193.77 125.0, 193.85 125.17, 193.93 125.33, 194.01 125.5, 194.1 125.67, 194.19 125.83, 194.27 126.0, 194.36 126.17, 194.45 126.33, 194.54 126.5, 194.63 126.67, 194.72 126.83, 194.81 127.0, 194.91 127.17, 195.0 127.33, 195.1 127.5, 195.19 127.67, 195.29 127.83, 195.39 128.0, 195.49 128.17, 195.59 128.33, 195.69 128.5, 195.79 128.67, 195.89 128.83, 196.0 129.0, 196.1 129.17, 196.21 129.33, 196.31 129.5, 196.42 129.67, 196.53 129.83, 196.64 130.0, 196.75 130.17, 196.86 130.33, 196.97 130.5, 197.08 130.67, 197.19 130.83, 197.31 131.0, 197.42 131.17, 197.54 131.33, 197.65 131.5, 197.77 131.67, 197.89 131.83, 198.0 132.0, 198.12 132.17, 198.24 132.33, 198.36 132.5, 198.48 132.67, 198.6 132.83, 198.73 133.0, 198.85 133.17, 198.97 133.33, 199.1 133.5, 199.22 133.67, 199.35 133.83, 199.47 134.0, 199.6 134.17, 199.72 134.33, 199.85 134.5, 199.98 134.67, 200.11 134.83, 200.24 135.0, 200.37 135.17, 200.5 135.33, 200.63 135.5, 200.76 135.67, 200.89 135.83, 201.02 136.0, 201.15 136.17, 201.29 136.33, 201.42 136.5, 201.55 136.67, 201.69 136.83, 201.82 137.0, 201.96 137.17, 202.09 137.33, 202.23 137.5, 202.36 137.67, 202.5 137.83, 202.63 138.0, 202.77 138.17, 202.91 138.33, 203.04 138.5, 203.18 138.67, 203.32 138.83, 203.46 139.0, 203.59 139.17, 203.73 139.33, 203.87 139.5, 204.01 139.67, 204.15 139.83, 204.29 140.0, 204.42 140.17, 204.56 140.33, 204.7 140.5, 204.84 140.67, 204.98 140.83, 205.12 141.0, 205.26 141.17, 205.4 141.33, 205.54 141.5, 205.68 141.67, 205.82 141.83, 205.96 142.0, 206.1 142.17, 206.24 142.33, 206.38 142.5, 206.51 142.67, 206.65 142.83, 206.79 143.0, 206.93 143.17, 207.07 143.33, 207.21 143.5, 207.35 143.67, 207.49 143.83, 207.62 144.0, 207.76 144.17, 207.9 144.33, 208.04 144.5, 208.18 144.67, 208.31 144.83, 208.45 145.0, 208.59 145.17, 208.72 145.33, 208.86 145.5, 208.99 145.67, 209.13 145.83, 209.26 146.0, 209.4 146.17, 209.53 146.33, 209.67 146.5, 209.8 146.67, 209.93 146.83, 210.07 147.0, 210.2 147.17, 210.33 147.33, 210.46 147.5, 210.59 147.67, 210.72 147.83, 210.85 148.0, 210.98 148.17, 211.11 148.33, 211.24 148.5, 211.37 148.67, 211.5 148.83, 211.62 149.0, 211.75 149.17, 211.88 149.33, 212.0 149.5, 212.13 149.67, 212.25 149.83, 212.37 150.0, 212.5 150.17, 212.62 150.33, 212.74 150.5, 212.86 150.67, 212.98 150.83, 213.1 151.0, 213.22 151.17, 213.34 151.33, 213.46 151.5, 213.57 151.67, 213.69 151.83, 213.8 152.0, 213.92 152.17, 214.03 152.33, 214.14 152.5, 214.26 152.67, 214.37 152.83, 214.48 153.0, 214.59 153.17, 214.69 153.33, 214.8 153.5, 214.91 153.67, 215.02 153.83, 215.12 154.0, 215.22 154.17, 215.33 154.33, 215.43 154.5, 215.53 154.67, 215.63 154.83, 215.73 155.0, 215.83 155.17, 215.93 155.33, 216.03 155.5, 216.12 155.67, 216.22 155.83, 216.31 156.0, 216.4 156.17, 216.5 156.33, 216.59 156.5, 216.68 156.67, 216.76 156.83, 216.85 157.0, 216.94 157.17, 217.02 157.33, 217.11 157.5, 217.19 157.67, 217.27 157.83, 217.36 158.0, 217.44 158.17, 217.52 158.33, 217.59 158.5, 217.67 158.67, 217.75 158.83, 217.82 159.0, 217.89 159.17, 217.97 159.33, 218.04 159.5, 218.11 159.67, 218.18 159.83, 218.24 160.0, 218.31 160.17, 218.38 160.33, 218.44 160.5, 218.5 160.67, 218.57 160.83, 218.63 161.0, 218.69 161.17, 218.74 161.33, 218.8 161.5, 218.86 161.67, 218.91 161.83, 218.96 162.0, 219.02 162.17, 219.07 162.33, 219.12 162.5, 219.16 162.67, 219.21 162.83, 219.26 163.0, 219.3 163.17, 219.34 163.33, 219.39 163.5, 219.43 163.67, 219.46 163.83, 219.5 164.0, 219.54 164.17, 219.57 164.33, 219.61 164.5, 219.64 164.67, 219.67 164.83, 219.7 165.0, 219.73 165.17, 219.76 165.33, 219.78 165.5, 219.81 165.67, 219.83 165.83, 219.86 166.0, 219.88 166.17, 219.9 166.33, 219.91 166.5, 219.93 166.67, 219.95 166.83, 219.96 167.0, 219.97 167.17, 219.98 167.33, 219.99 167.5, 220.0 167.67, 220.01 167.83, 220.02 168.0, 220.02 168.17, 220.02 168.33, 220.02 168.5, 220.03 168.67, 220.02 168.83, 220.02 169.0, 220.02 169.17, 220.01 169.33, 220.01 169.5, 220.0 169.67, 219.99 169.83, 219.98 170.0, 219.97 170.17, 219.96 170.33, 219.94 170.5, 219.92 170.67, 219.91 170.83, 219.89 171.0, 219.87 171.17, 219.85 171.33, 219.82 171.5, 219.8 171.67, 219.78 171.83, 219.75 172.0, 219.72 172.17, 219.69 172.33, 219.66 172.5, 219.63 172.67, 219.59 172.83, 219.56 173.0, 219.52 173.17, 219.49 173.33, 219.45 173.5, 219.41 173.67, 219.37 173.83, 219.32 174.0, 219.28 174.17, 219.23 174.33, 219.19 174.5, 219.14 174.67, 219.09 174.83, 219.04 175.0, 218.98 175.17, 218.93 175.33, 218.88 175.5, 218.82 175.67, 218.76 175.83, 218.7 176.0, 218.64 176.17, 218.58 176.33, 218.52 176.5, 218.46 176.67, 218.39 176.83, 218.33 177.0, 218.26 177.17, 218.19 177.33, 218.12 177.5, 218.05 177.67, 217.98 177.83, 217.9 178.0, 217.83 178.17, 217.75 178.33, 217.67 178.5, 217.59 178.67, 217.51 178.83, 217.43 179.0, 217.35 179.17, 217.27 179.33, 217.18 179.5, 217.1 179.67, 217.01 179.83, 216.92 180.0, 216.83 180.17, 216.74 180.33, 216.65 180.5, 216.55 180.67, 216.46 180.83, 216.37 181.0, 216.27 181.17, 216.17 181.33, 216.07 181.5, 215.97 181.67, 215.87 181.83, 215.77 182.0, 215.67 182.17, 215.56 182.33, 215.46 182.5, 215.35 182.67, 215.24 182.83, 215.14 183.0, 215.03 183.17, 214.92 183.33, 214.8 183.5, 214.69 183.67, 214.58 183.83, 214.46 184.0, 214.35 184.17, 214.23 184.33, 214.11 184.5, 213.99 184.67, 213.87 184.83, 213.75 185.0, 213.63 185.17, 213.51 185.33, 213.39 185.5, 213.26 185.67, 213.14 185.83, 213.01 186.0, 212.88 186.17, 212.76 186.33, 212.63 186.5, 212.5 186.67, 212.37 186.83, 212.24 187.0, 212.1 187.17, 211.97 187.33, 211.84 187.5, 211.7 187.67, 211.57 187.83, 211.43 188.0, 211.29 188.17, 211.15 188.33, 211.02 188.5, 210.88 188.67, 210.74 188.83, 210.6 189.0, 210.45 189.17, 210.31 189.33, 210.17 189.5, 210.02 189.67, 209.88 189.83, 209.73 190.0, 209.59 190.17, 209.44 190.33, 209.29 190.5, 209.15 190.67, 209.0 190.83, 208.85 191.0, 208.7 191.17, 208.55 191.33, 208.4 191.5, 208.25 191.67, 208.09 191.83, 207.94 192.0, 207.79 192.17, 207.63 192.33, 207.48 192.5, 207.33 192.67, 207.17 192.83, 207.01 193.0, 206.86 193.17, 206.7 193.33, 206.54 193.5, 206.39 193.67, 206.23 193.83, 206.07 194.0, 205.91 194.17, 205.75 194.33, 205.59 194.5, 205.43 194.67, 205.27 194.83, 205.11 195.0, 204.95 195.17, 204.79 195.33, 204.62 195.5, 204.46 195.67, 204.3 195.83, 204.14 196.0, 203.97 196.17, 203.81 196.33, 203.65 196.5, 203.48 196.67, 203.32 196.83, 203.15 197.0, 202.99 197.17, 202.82 197.33, 202.66 197.5, 202.49 197.67, 202.33 197.83, 202.16 198.0, 202.0 198.17, 201.83 198.33, 201.66 198.5, 201.5 198.67, 201.33 198.83, 201.17 199.0, 201.0 199.17, 200.83 199.33, 200.67 199.5, 200.5 199.67, 200.33 199.83, 200.17 200.0, 200.0 200.17, 199.83 200.33, 199.67 200.5, 199.5 200.67, 199.33 200.83, 199.17 201.0, 199.0 201.17, 198.83 201.33, 198.67 201.5, 198.5 201.67, 198.34 201.83, 198.17 202.0, 198.0 202.17, 197.84 202.33, 197.67 202.5, 197.51 202.67, 197.34 202.83, 197.18 203.0, 197.01 203.17, 196.85 203.33, 196.68 203.5, 196.52 203.67, 196.35 203.83, 196.19 204.0, 196.03 204.17, 195.86 204.33, 195.7 204.5, 195.54 204.67, 195.38 204.83, 195.21 205.0, 195.05 205.17, 194.89 205.33, 194.73 205.5, 194.57 205.67, 194.41 205.83, 194.25 206.0, 194.09 206.17, 193.93 206.33, 193.77 206.5, 193.61 206.67, 193.46 206.83, 193.3 207.0, 193.14 207.17, 192.99 207.33, 192.83 207.5, 192.67 207.67, 192.52 207.83, 192.37 208.0, 192.21 208.17, 192.06 208.33, 191.91 208.5, 191.75 208.67, 191.6 208.83, 191.45 209.0, 191.3 209.17, 191.15 209.33, 191.0 209.5, 190.85 209.67, 190.71 209.83, 190.56 210.0, 190.41 210.17, 190.27 210.33, 190.12 210.5, 189.98 210.67, 189.83 210.83, 189.69 211.0, 189.55 211.17, 189.4 211.33, 189.26 211.5, 189.12 211.67, 188.98 211.83, 188.85 212.0, 188.71 212.17, 188.57 212.33, 188.43 212.5, 188.3 212.67, 188.16 212.83, 188.03 213.0, 187.9 213.17, 187.76 213.33, 187.63 213.5, 187.5 213.67, 187.37 213.83, 187.24 214.0, 187.12 214.17, 186.99 214.33, 186.86 214.5, 186.74 214.67, 186.61 214.83, 186.49 215.0, 186.37 215.17, 186.25 215.33, 186.13 215.5, 186.01 215.67, 185.89 215.83, 185.77 216.0, 185.65 216.17, 185.54 216.33, 185.42 216.5, 185.31 216.67, 185.2 216.83, 185.08 217.0, 184.97 217.17, 184.86 217.33, 184.76 217.5, 184.65 217.67, 184.54 217.83, 184.44 218.0, 184.33 218.17, 184.23 218.33, 184.13 218.5, 184.03 218.67, 183.93 218.83, 183.83 219.0, 183.73 219.17, 183.63 219.33, 183.54 219.5, 183.45 219.67, 183.35 219.83, 183.26 220.0, 183.17 220.17, 183.08 220.33, 182.99 220.5, 182.9 220.67, 182.82 220.83, 182.73 221.0, 182.65 221.17, 182.57 221.33, 182.49 221.5, 182.41 221.67, 182.33 221.83, 182.25 222.0, 182.17 222.17, 182.1 222.33, 182.02 222.5, 181.95 222.67, 181.88 222.83, 181.81 223.0, 181.74 223.17, 181.67 223.33, 181.61 223.5, 181.54 223.67, 181.48 223.83, 181.42 224.0, 181.36 224.17, 181.3 224.33, 181.24 224.5, 181.18 224.67, 181.12 224.83, 181.07 225.0, 181.02 225.17, 180.96 225.33, 180.91 225.5, 180.86 225.67, 180.81 225.83, 180.77 226.0, 180.72 226.17, 180.68 226.33, 180.63 226.5, 180.59 226.67, 180.55 226.83, 180.51 227.0, 180.48 227.17, 180.44 227.33, 180.41 227.5, 180.37 227.67, 180.34 227.83, 180.31 228.0, 180.28 228.17, 180.25 228.33, 180.22 228.5, 180.2 228.67, 180.18 228.83, 180.15 229.0, 180.13 229.17, 180.11 229.33, 180.09 229.5, 180.08 229.67, 180.06 229.83, 180.04 230.0, 180.03 230.17, 180.02 230.33, 180.01 230.5, 180.0 230.67, 179.99 230.83, 179.99 231.0, 179.98 231.17, 179.98 231.33, 179.98 231.5, 179.97 231.67, 179.98 231.83, 179.98 232.0, 179.98 232.17, 179.98 232.33, 179.99 232.5, 180.0 232.67, 180.01 232.83, 180.02 233.0, 180.03 233.17, 180.04 233.33, 180.05 233.5, 180.07 233.67, 180.09 233.83, 180.1 234.0, 180.12 234.17, 180.14 234.33, 180.17 234.5, 180.19 234.67, 180.22 234.83, 180.24 235.0, 180.27 235.17, 180.3 235.33, 180.33 235.5, 180.36 235.67, 180.39 235.83, 180.43 236.0, 180.46 236.17, 180.5 236.33, 180.54 236.5, 180.57 236.67, 180.61 236.83, 180.66 237.0, 180.7 237.17, 180.74 237.33, 180.79 237.5, 180.84 237.67, 180.88 237.83, 180.93 238.0, 180.98 238.17, 181.04 238.33, 181.09 238.5, 181.14 238.67, 181.2 238.83, 181.26 239.0, 181.31 239.17, 181.37 239.33, 181.43 239.5, 181.5 239.67, 181.56 239.83, 181.62 240.0, 181.69 240.17, 181.76 240.33, 181.82 240.5, 181.89 240.67, 181.96 240.83, 182.03 241.0, 182.11 241.17, 182.18 241.33, 182.25 241.5, 182.33 241.67, 182.41 241.83, 182.48 242.0, 182.56 242.17, 182.64 242.33, 182.73 242.5, 182.81 242.67, 182.89 242.83, 182.98 243.0, 183.06 243.17, 183.15 243.33, 183.24 243.5, 183.32 243.67, 183.41 243.83, 183.5 244.0, 183.6 244.17, 183.69 244.33, 183.78 244.5, 183.88 244.67, 183.97 244.83, 184.07 245.0, 184.17 245.17, 184.27 245.33, 184.37 245.5, 184.47 245.67, 184.57 245.83, 184.67 246.0, 184.78 246.17, 184.88 246.33, 184.98 246.5, 185.09 246.67, 185.2 246.83, 185.31 247.0, 185.41 247.17, 185.52 247.33, 185.63 247.5, 185.74 247.67, 185.86 247.83, 185.97 248.0, 186.08 248.17, 186.2 248.33, 186.31 248.5, 186.43 248.67, 186.54 248.83, 186.66 249.0, 186.78 249.17, 186.9 249.33, 187.02 249.5, 187.14 249.67, 187.26 249.83, 187.38 250.0, 187.5 250.17, 187.63 250.33, 187.75 250.5, 187.87 250.67, 188.0 250.83, 188.12 251.0, 188.25 251.17, 188.38 251.33, 188.5 251.5, 188.63 251.67, 188.76 251.83, 188.89 252.0, 189.02 252.17, 189.15 252.33, 189.28 252.5, 189.41 252.67, 189.54 252.83, 189.67 253.0, 189.8 253.17, 189.93 253.33, 190.07 253.5, 190.2 253.67, 190.33 253.83, 190.47 254.0, 190.6 254.17, 190.74 254.33, 190.87 254.5, 191.01 254.67, 191.14 254.83, 191.28 255.0, 191.41 255.17, 191.55 255.33, 191.69 255.5, 191.82 255.67, 191.96 255.83, 192.1 256.0, 192.24 256.17, 192.38 256.33, 192.51 256.5, 192.65 256.67, 192.79 256.83, 192.93 257.0, 193.07 257.17, 193.21 257.33, 193.35 257.5, 193.49 257.67, 193.62 257.83, 193.76 258.0, 193.9 258.17, 194.04 258.33, 194.18 258.5, 194.32 258.67, 194.46 258.83, 194.6 259.0, 194.74 259.17, 194.88 259.33, 195.02 259.5, 195.16 259.67, 195.3 259.83, 195.44 260.0, 195.58 260.17, 195.71 260.33, 195.85 260.5, 195.99 260.67, 196.13 260.83, 196.27 261.0, 196.41 261.17, 196.54 261.33, 196.68 261.5, 196.82 261.67, 196.96 261.83, 197.09 262.0, 197.23 262.17, 197.37 262.33, 197.5 262.5, 197.64 262.67, 197.77 262.83, 197.91 263.0, 198.04 263.17, 198.18 263.33, 198.31 263.5, 198.45 263.67, 198.58 263.83, 198.71 264.0, 198.85 264.17, 198.98 264.33, 199.11 264.5, 199.24 264.67, 199.37 264.83, 199.5 265.0, 199.63 265.17, 199.76 265.33, 199.89 265.5, 200.02 265.67, 200.15 265.83, 200.28 266.0, 200.4 266.17, 200.53 266.33, 200.65 266.5, 200.78 266.67, 200.9 266.83, 201.03 267.0, 201.15 267.17, 201.27 267.33, 201.4 267.5, 201.52 267.67, 201.64 267.83, 201.76 268.0, 201.88 268.17, 202.0 268.33, 202.11 268.5, 202.23 268.67, 202.35 268.83, 202.46 269.0, 202.58 269.17, 202.69 269.33, 202.81 269.5, 202.92 269.67, 203.03 269.83, 203.14 270.0, 203.25 270.17, 203.36 270.33, 203.47 270.5, 203.58 270.67, 203.69 270.83, 203.79 271.0, 203.9 271.17, 204.0 271.33, 204.11 271.5, 204.21 271.67, 204.31 271.83, 204.41 272.0, 204.51 272.17, 204.61 272.33, 204.71 272.5, 204.81 272.67, 204.9 272.83, 205.0 273.0, 205.09 273.17, 205.19 273.33, 205.28 273.5, 205.37 273.67, 205.46 273.83, 205.55 274.0, 205.64 274.17, 205.73 274.33, 205.81 274.5, 205.9 274.67, 205.99 274.83, 206.07 275.0, 206.15 275.17, 206.23 275.33, 206.32 275.5, 206.4 275.67, 206.48 275.83, 206.55 276.0, 206.63 276.17, 206.71 276.33, 206.78 276.5, 206.86 276.67, 206.93 276.83, 207.0 277.0, 207.07 277.17, 207.14 277.33, 207.21 277.5, 207.28 277.67, 207.35 277.83, 207.41 278.0, 207.48 278.17, 207.54 278.33, 207.6 278.5, 207.66 278.67, 207.73 278.83, 207.79 279.0, 207.84 279.17, 207.9 279.33, 207.96 279.5, 208.02 279.67, 208.07 279.83, 208.12 280.0, 208.18 280.17, 208.23 280.33, 208.28 280.5, 208.33 280.67, 208.38 280.83, 208.43 281.0, 208.48 281.17, 208.52 281.33, 208.57 281.5, 208.61 281.67, 208.66 281.83, 208.7 282.0, 208.74 282.17, 208.78 282.33, 208.82 282.5, 208.86 282.67, 208.9 282.83, 208.94 283.0, 208.98 283.17, 209.01 283.33, 209.05 283.5, 209.08 283.67, 209.11 283.83, 209.15 284.0, 209.18 284.17, 209.21 284.33, 209.24 284.5, 209.27 284.67, 209.3 284.83, 209.33 285.0, 209.36 285.17, 209.39 285.33, 209.41 285.5, 209.44 285.67, 209.46 285.83, 209.49 286.0, 209.51 286.17, 209.54 286.33, 209.56 286.5, 209.59 286.67, 209.61 286.83, 209.63 287.0, 209.65 287.17, 209.67 287.33, 209.69 287.5, 209.71 287.67, 209.73 287.83, 209.75 288.0, 209.77 288.17, 209.79 288.33, 209.81 288.5, 209.83 288.67, 209.85 288.83, 209.87 289.0, 209.89 289.17, 209.91 289.33, 209.93 289.5, 209.94 289.67, 209.96 289.83, 209.98 290.0, 210.0 290.17, 210.02 290.33, 210.04 290.5, 210.06 290.67, 210.08 290.83, 210.1 291.0, 210.12 291.17, 210.14 291.33, 210.16 291.5, 210.18 291.67, 210.2 291.83, 210.22 292.0, 210.24 292.17, 210.26 292.33, 210.29 292.5, 210.31 292.67, 210.34 292.83, 210.36 293.0, 210.39 293.17, 210.42 293.33, 210.44 293.5, 210.47 293.67, 210.5 293.83, 210.53 294.0, 210.56 294.17, 210.6 294.33, 210.63 294.5, 210.67 294.67, 210.7 294.83, 210.74 295.0, 210.78 295.17, 210.82 295.33, 210.86 295.5, 210.9 295.67, 210.95 295.83, 210.99 296.0, 211.04 296.17, 211.09 296.33, 211.14 296.5, 211.2 296.67, 211.25 296.83, 211.31 297.0, 211.37 297.17, 211.43 297.33, 211.49 297.5, 211.56 297.67, 211.62 297.83, 211.69 298.0, 211.77 298.17, 211.84 298.33, 211.92 298.5, 212.0 298.67, 212.08 298.83, 212.17 299.0, 212.26 299.17, 212.35 299.33, 212.44 299.5, 212.54 299.67, 212.64 299.83, 212.74 300.0, 212.85 300.17, 212.96 300.33, 213.07 300.5, 213.19 300.67, 213.31 300.83, 213.43 301.0, 213.56 301.17, 213.69 301.33, 213.83 301.5, 213.97 301.67, 214.11 301.83, 214.26 302.0, 214.41 302.17, 214.56 302.33, 214.73 302.5, 214.89 302.67, 215.06 302.83, 215.23 303.0, 215.41 303.17, 215.6 303.33, 215.79 303.5, 215.98 303.67, 216.18 303.83, 216.39 304.0, 216.6 304.17, 216.81 304.33, 217.03 304.5, 217.26 304.67, 217.49 304.83, 217.73 305.0, 217.97 305.17, 218.22 305.33, 218.48 305.5, 218.74 305.67, 219.01 305.83, 219.29 306.0, 219.57 306.17, 219.86 306.33, 220.16 306.5, 220.46 306.67, 220.77 306.83, 221.09 307.0, 221.42 307.17, 221.75 307.33, 222.09 307.5, 222.44 307.67, 222.79 307.83, 223.16 308.0, 223.53 308.17, 223.91 308.33, 224.3 308.5, 224.69 308.67, 225.1 308.83, 225.52 309.0, 225.94 309.17, 226.37 309.33, 226.81 309.5, 227.26 309.67, 227.72 309.83, 228.19 310.0, 228.67 310.17, 229.16 310.33, 229.66 310.5, 230.17 310.67, 230.69 310.83, 231.23 311.0, 231.77 311.17, 232.32 311.33, 232.88 311.5, 233.46 311.67, 234.04 311.83, 234.64 312.0, 235.25 312.17, 235.87 312.33, 236.5 312.5, 237.15 312.67, 237.8 312.83, 238.47 313.0, 239.15 313.17, 239.85 313.33, 240.56 313.5, 241.28 313.67, 242.01 313.83, 242.76 314.0, 243.52 314.17, 244.29 314.33, 245.08 314.5, 245.88 314.67, 246.7 314.83, 247.53 315.0, 248.38 315.17, 249.24 315.33, 250.11 315.5, 251.01 315.67, 251.91 315.83, 252.84 316.0, 253.77 316.17, 254.73 316.33, 255.7 316.5, 256.69 316.67, 257.69 316.83, 258.71 317.0, 259.75 317.17, 260.81 317.33, 261.88 317.5, 262.97 317.67, 264.08 317.83, 265.2 318.0, 266.35 318.17, 267.51 318.33, 268.69 318.5, 269.9 318.67, 271.12 318.83, 272.36 319.0, 273.62 319.17, 274.9 319.33, 276.19 319.5, 277.51 319.67, 278.86 319.83, 280.22 320.0, 281.6 320.17, 283.0 320.33, 284.43 320.5, 285.88 320.67, 287.35 320.83, 288.84 321.0, 290.35 321.17, 291.89 321.33, 293.45 321.5, 295.03 321.67, 296.64 321.83, 298.27 322.0, 299.93 322.17, 301.61 322.33, 303.31 322.5, 305.04 322.67, 306.79 322.83, 308.57 323.0, 310.38 323.17, 312.21 323.33, 314.07 323.5, 315.95 323.67, 317.86 323.83, 319.8 324.0, 321.76 324.17, 323.76 324.33, 325.78 324.5, 327.83 324.67, 329.91 324.83, 332.01 325.0, 334.15 325.17, 336.31 325.33, 338.51 325.5, 340.73 325.67, 342.99 325.83, 345.27 326.0, 347.59 326.17, 349.94 326.33, 352.32 326.5, 354.73 326.67, 357.17 326.83, 359.65 327.0, 362.16 327.17, 364.7 327.33, 367.28 327.5, 369.89 327.67, 372.53 327.83, 375.21 328.0, 377.92 328.17, 380.67 328.33, 383.46 328.5, 386.28 328.67, 389.13 328.83, 392.02 329.0, 394.95 329.17, 397.92 329.33, 400.93 329.5, 403.97 329.67, 407.05 329.83, 410.17 330.0, 413.33 330.17, 416.53 330.33, 419.77 330.5, 423.04 330.67, 426.36 330.83, 429.72 331.0, 433.12 331.17, 436.57 331.33, 440.05 331.5, 443.58 331.67, 447.15 331.83, 450.76 332.0, 454.42 332.17, 458.12 332.33, 461.87 332.5, 465.66 332.67, 469.5 332.83, 473.38 333.0, 477.31 333.17, 481.28 333.33, 485.3 333.5, 489.37 333.67, 493.49 333.83, 497.65 334.0, 501.87 334.17, 506.13 334.33, 510.44 334.5, 514.8 334.67, 519.21 334.83, 523.68 335.0, 528.19 335.17, 532.76 335.33, 537.38 335.5, 542.05 335.67, 546.77 335.83, 551.55 336.0, 556.38 336.17, 561.27 336.33, 566.21 336.5, 571.2 336.67, 576.26 336.83, 581.36 337.0, 586.53 337.17, 591.75 337.33, 597.03 337.5, 602.37 337.67, 607.77 337.83, 613.23 338.0, 618.74 338.17, 624.32 338.33, 629.96 338.5, 635.66 338.67, 641.42 338.83, 647.24 339.0, 653.12 339.17, 659.07 339.33, 665.09 339.5, 671.16 339.67, 677.31 339.83, 683.51 340.0, 689.79 340.17, 696.13 340.33, 702.53 340.5, 709.01 340.67, 715.55 340.83, 722.16 341.0, 728.84 341.17, 735.59 341.33, 742.41 341.5, 749.3 341.67, 756.27 341.83, 763.3 342.0, 770.41 342.17, 777.59 342.33, 784.85 342.5, 792.17 342.67, 799.58 342.83, 807.06 343.0, 814.61 343.17, 822.25 343.33, 829.96 343.5, 837.74 343.67, 845.61 343.83, 853.55 344.0, 861.58 344.17, 869.68 344.33, 877.87 344.5, 886.14 344.67, 894.49 344.83, 902.92 345.0, 911.44 345.17, 920.04 345.33, 928.72 345.5, 937.49 345.67, 946.35 345.83, 955.29 346.0, 964.33 346.17, 973.44 346.33, 982.65 346.5, 991.95 346.67, 1001.34 346.83, 1010.81 347.0, 1020.38 347.17, 1030.05 347.33, 1039.8 347.5, 1049.65 347.67, 1059.59 347.83, 1069.63 348.0, 1079.76 348.17, 1089.99 348.33, 1100.31 348.5, 1110.73 348.67, 1121.26 348.83, 1131.88 349.0, 1142.6 349.17, 1153.42 349.33, 1164.34 349.5, 1175.36 349.67, 1186.49 349.83, 1197.72 350.0, 1209.06 350.17, 1220.5 350.33, 1232.04 350.5, 1243.7 350.67, 1255.46 350.83, 1267.32 351.0, 1279.3 351.17, 1291.39 351.33, 1303.58 351.5, 1315.89 351.67, 1328.31 351.83, 1340.84 352.0, 1353.49 352.17, 1366.25 352.33, 1379.12 352.5, 1392.11 352.67, 1405.22 352.83, 1418.45 353.0, 1431.79 353.17, 1445.26 353.33, 1458.84 353.5, 1472.55 353.67, 1486.37 353.83, 1500.32 354.0, 1514.39 354.17, 1528.59 354.33, 1542.91 354.5, 1557.36 354.67, 1571.93 354.83, 1586.64 355.0, 1601.47 355.17, 1616.43 355.33, 1631.52 355.5, 1646.74 355.67, 1662.1 355.83, 1677.59 356.0, 1693.21 356.17, 1708.96 356.33, 1724.86 356.5, 1740.89 356.67, 1757.05 356.83, 1773.36 357.0, 1789.8 357.17, 1806.39 357.33, 1823.12 357.5, 1839.98 357.67, 1857.0 357.83, 1874.15 358.0, 1891.46 358.17, 1908.9 358.33, 1926.5 358.5, 1944.24 358.67, 1962.13 358.83, 1980.18 359.0, 1998.37 359.17, 2016.71 359.33, 2035.21 359.5, 2053.86 359.67, 2072.67 359.83, 2091.64 360.0, 2110.76 360.17, 2130.03 360.33, 2149.47 360.5, 2169.07 360.67, 2188.83 360.83, 2208.75 361.0, 2228.83 361.17, 2249.08 361.33, 2269.5 361.5, 2290.08 361.67, 2310.82 361.83, 2331.74 362.0, 2352.83 362.17, 2374.08 362.33, 2395.51 362.5, 2417.11 362.67, 2438.89 362.83, 2460.84 363.0, 2482.97 363.17, 2505.27 363.33, 2527.75 363.5, 2550.42 363.67, 2573.26 363.83, 2596.28 364.0, 2619.49 364.17, 2642.88 364.33, 2666.46 364.5, 2690.23 364.67, 2714.18 364.83, 2738.32 365.0, 2762.65 365.17, 2787.17 365.33, 2811.88 365.5, 2836.79 365.67, 2861.89 365.83, 2887.19 366.0, 2912.68 366.17, 2938.37 366.33, 2964.27 366.5, 2990.36 366.67, 3016.65 366.83, 3043.15 367.0, 3069.86 367.17, 3096.76 367.33, 3123.88 367.5, 3151.2 367.67, 3178.74 367.83, 3206.48 368.0, 3234.44 368.17, 3262.6 368.33, 3290.99 368.5, 3319.59 368.67, 3348.4 368.83, 3377.44 369.0, 3406.69 369.17, 3436.17 369.33, 3465.87 369.5, 3495.79 369.67, 3525.94 369.83, 3556.31 370.0, 3586.91 370.17, 3617.74 370.33, 3648.81 370.5, 3680.1 370.67, 3711.63 370.83, 3743.39 371.0, 3775.38 371.17, 3807.62 371.33, 3840.09 371.5, 3872.8 371.67, 3905.76 371.83, 3938.96 372.0, 3972.4 372.17, 4006.09 372.33, 4040.02 372.5, 4074.21 372.67, 4108.64 372.83, 4143.33 373.0, 4178.26 373.17, 4213.46 373.33, 4248.91 373.5, 4284.61 373.67, 4320.58 373.83, 4356.81 374.0, 4393.29 374.17, 4430.05 374.33, 4467.06 374.5, 4504.35 374.67, 4541.9 374.83, 4579.72 375.0, 4617.81 375.17, 4656.17 375.33, 4694.81 375.5, 4733.73 375.67, 4772.92 375.83, 4812.39 376.0, 4852.14 376.17, 4892.17 376.33, 4932.49 376.5, 4973.09 376.67, 5013.98 376.83, 5055.16 377.0, 5096.63 377.17, 5138.39 377.33, 5180.44 377.5, 5222.78 377.67, 5265.43 377.83, 5308.37 378.0, 5351.61 378.17, 5395.16 378.33, 5439.0 378.5, 5483.16 378.67, 5527.61 378.83, 5572.38 379.0, 5617.46 379.17, 5662.85 379.33, 5708.55 379.5, 5754.56 379.67, 5800.9 379.83, 5847.55 380.0, 5894.53 380.17, 5941.82 380.33, 5989.44 380.5, 6037.38 380.67, 6085.66 380.83, 6134.26 381.0, 6183.19 381.17, 6232.46 381.33, 6282.06 381.5, 6331.99 381.67, 6382.27 381.83, 6432.88 382.0, 6483.84 382.17, 6535.14 382.33, 6586.79 382.5, 6638.78 382.67, 6691.12 382.83, 6743.82 383.0, 6796.87 383.17, 6850.27 383.33, 6904.03 383.5, 6958.15 383.67, 7012.63 383.83, 7067.47 384.0, 7122.67 384.17, 7178.25 384.33, 7234.19 384.5, 7290.5 384.67, 7347.18 384.83, 7404.24 385.0, 7461.68 385.17, 7519.49 385.33, 7577.68 385.5, 7636.26 385.67, 7695.22 385.83, 7754.56 386.0, 7814.3 386.17, 7874.42 386.33, 7934.94 386.5, 7995.85 386.67, 8057.16 386.83, 8118.86 387.0, 8180.97 387.17, 8243.48 387.33, 8306.4 387.5, 8369.72 387.67, 8433.45 387.83, 8497.59 388.0, 8562.15 388.17, 8627.12 388.33, 8692.5 388.5, 8758.31 388.67, 8824.54 388.83, 8891.2 389.0, 8958.28 389.17, 9025.78 389.33, 9093.72 389.5, 9162.09 389.67, 9230.9 389.83, 9300.14 390.0, 9369.83 390.17, 9439.95 390.33, 9510.52 390.5, 9581.53 390.67, 9653.0 390.83, 9724.91 391.0, 9797.28 391.17, 9870.1 391.33, 9943.38 391.5, 10017.12 391.67, 10091.32 391.83, 10165.98 392.0, 10241.12 392.17, 10316.72 392.33, 10392.79 392.5, 10469.34 392.67, 10546.36 392.83, 10623.86 393.0, 10701.85 393.17, 10780.31 393.33, 10859.26 393.5, 10938.7 393.67, 11018.63 393.83, 11099.06 394.0, 11179.98 394.17, 11261.39 394.33, 11343.31 394.5, 11425.73 394.67, 11508.66 394.83, 11592.09 395.0, 11676.04 395.17, 11760.49 395.33, 11845.47 395.5, 11930.96 395.67, 12016.97 395.83, 12103.5 396.0, 12190.56 396.17, 12278.15 396.33, 12366.26 396.5, 12454.91 396.67, 12544.1 396.83, 12633.83 397.0, 12724.09 397.17, 12814.9 397.33, 12906.26 397.5, 12998.16 397.67, 13090.62 397.83, 13183.63 398.0, 13277.2 398.17, 13371.33 398.33, 13466.02 398.5, 13561.27 398.67, 13657.1 398.83, 13753.49 399.0, 13850.45 399.17, 13948.0 399.33, 14046.12 399.5, 14144.82 399.67, 14244.11 399.83, 14343.98 400.0, 14444.44 " fill="none" stroke="white" stroke-width="1.5" stroke-linejoin="round" stroke-opacity="1"/>

 </svg>