<svg version="1.1" 
 baseProfile="full" 
 width="400" 
 height="400" 
 xmlns="http://www.w3.org/2000/svg">
<rect x="0.0" y="0.0" width="400" height="400" fill="black" stroke="black" stroke-width="0" opacity="1"/>
<line x1="0.0" y1="0.0" x2="0.0" y2="400.0" stroke="white" stroke-width="1" opacity="0.4" stroke-linecap="butt"/>
<line x1="40.0" y1="0.0" x2="40.0" y2="400.0" stroke="white" stroke-width="1" opacity="0.4" stroke-linecap="butt"/>
<line x1="80.0" y1="0.0" x2="80.0" y2="400.0" stroke="white" stroke-width="1" opacity="0.4" stroke-linecap="butt"/>
<line x1="120.0" y1="0.0" x2="120.0" y2="400.0" stroke="white" stroke-width="1" opacity="0.4" stroke-linecap="butt"/>
<line x1="160.0" y1="0.0" x2="160.0" y2="400.0" stroke="white" stroke-width="1" opacity="0.4" stroke-linecap="butt"/>
<line x1="200.0" y1="0.0" x2="200.0" y2="400.0" stroke="white" stroke-width="1" opacity="0.4" stroke-linecap="butt"/>
<line x1="240.0" y1="0.0" x2="240.0" y2="400.0" stroke="white" stroke-width="1" opacity="0.4" stroke-linecap="butt"/>
<line x1="280.0" y1="0.0" x2="280.0" y2="400.0" stroke="white" stroke-width="1" opacity="0.4" stroke-linecap="butt"/>
<line x1="320.0" y1="0.0" x2="320.0" y2="400.0" stroke="white" stroke-width="1" opacity="0.4" stroke-linecap="butt"/>
<line x1="360.0" y1="0.0" x2="360.0" y2="400.0" stroke="white" stroke-width="1" opacity="0.4" stroke-linecap="butt"/>
<line x1="0.0" y1="0.0" x2="400.0" y2="0.0" stroke="white" stroke-width="1" opacity="0.4" stroke-linecap="butt"/>
<line x1="0.0" y1="40.0" x2="400.0" y2="40.0" stroke="white" stroke-width="1" opacity="0.4" stroke-linecap="butt"/>
<line x1="0.0" y1="80.0" x2="400.0" y2="80.0" stroke="white" stroke-width="1" opacity="0.4" stroke-linecap="butt"/>
<line x1="0.0" y1="120.0" x2="400.0" y2="120.0" stroke="white" stroke-width="1" opacity="0.4" stroke-linecap="butt"/>
<line x1="0.0" y1="160.0" x2="400.0" y2="160.0" stroke="white" stroke-width="1" opacity="0.4" stroke-linecap="butt"/>
<line x1="0.0" y1="200.0" x2="400.0" y2="200.0" stroke="white" stroke-width="1" opacity="0.4" stroke-linecap="butt"/>
<line x1="0.0" y1="240.0" x2="400.0" y2="240.0" stroke="white" stroke-width="1" opacity="0.4" stroke-linecap="butt"/>
<line x1="0.0" y1="280.0" x2="400.0" y2="280.0" stroke="white" stroke-width="1" opacity="0.4" stroke-linecap="butt"/>
<line x1="0.0" y1="320.0" x2="400.0" y2="320.0" stroke="white" stroke-width="1" opacity="0.4" stroke-linecap="butt"/>
<line x1="0.0" y1="360.0" x2="400.0" y2="360.0" stroke="white" stroke-width="1" opacity="0.4" stroke-linecap="butt"/>
<line x1="0.0" y1="200.0" x2="400.0" y2="200.0" stroke="yellow" stroke-width="2.5" opacity="1" stroke-linecap="butt"/>
<line x1="200.0" y1="0.0" x2="200.0" y2="400.0" stroke="yellow" stroke-width="2.5" opacity="1" stroke-linecap="butt"/>
<polygon points="391.0 204.0, 401.0 200.0, 391.0 196.0, 393.0 200.0" fill="yellow"/><polygon points="204.0 9.0, 200.0 -1.0, 196.0 9.0, 200.0 7.0" fill="yellow"/><image x="-60.0" y="-60.0" width="200" height="200" href="/Users/girirajhira/PycharmProjects/Giraphics3/Taylor/expr.png"/><polyline points="0.0, -16524.6 0.17, -16409.71 0.33, -16295.48 0.5, -16181.9 0.67, -16068.98 0.83, -15956.72 1.0, -15845.1 1.17, -15734.13 1.33, -15623.8 1.5, -15514.12 1.67, -15405.07 1.83, -15296.65 2.0, -15188.87 2.17, -15081.72 2.33, -14975.19 2.5, -14869.28 2.67, -14763.99 2.83, -14659.32 3.0, -14555.26 3.17, -14451.82 3.33, -14348.98 3.5, -14246.75 3.67, -14145.12 3.83, -14044.08 4.0, -13943.65 4.17, -13843.8 4.33, -13744.55 4.5, -13645.89 4.67, -13547.81 4.83, -13450.31 5.0, -13353.4 5.17, -13257.06 5.33, -13161.29 5.5, -13066.09 5.67, -12971.46 5.83, -12877.4 6.0, -12783.9 6.17, -12690.96 6.33, -12598.58 6.5, -12506.75 6.67, -12415.48 6.83, -12324.75 7.0, -12234.57 7.17, -12144.94 7.33, -12055.84 7.5, -11967.29 7.67, -11879.27 7.83, -11791.78 8.0, -11704.83 8.17, -11618.4 8.33, -11532.5 8.5, -11447.12 8.67, -11362.26 8.83, -11277.92 9.0, -11194.09 9.17, -11110.78 9.33, -11027.97 9.5, -10945.68 9.67, -10863.89 9.83, -10782.6 10.0, -10701.81 10.17, -10621.52 10.33, -10541.73 10.5, -10462.43 10.67, -10383.61 10.83, -10305.29 11.0, -10227.45 11.17, -10150.1 11.33, -10073.22 11.5, -9996.82 11.67, -9920.9 11.83, -9845.45 12.0, -9770.47 12.17, -9695.96 12.33, -9621.92 12.5, -9548.34 12.67, -9475.22 12.83, -9402.56 13.0, -9330.36 13.17, -9258.61 13.33, -9187.32 13.5, -9116.47 13.67, -9046.07 13.83, -8976.12 14.0, -8906.61 14.17, -8837.54 14.33, -8768.91 14.5, -8700.71 14.67, -8632.95 14.83, -8565.62 15.0, -8498.72 15.17, -8432.25 15.33, -8366.2 15.5, -8300.58 15.67, -8235.38 15.83, -8170.59 16.0, -8106.22 16.17, -8042.27 16.33, -7978.72 16.5, -7915.59 16.67, -7852.87 16.83, -7790.55 17.0, -7728.63 17.17, -7667.12 17.33, -7606.0 17.5, -7545.28 17.67, -7484.96 17.83, -7425.03 18.0, -7365.49 18.17, -7306.34 18.33, -7247.58 18.5, -7189.2 18.67, -7131.2 18.83, -7073.59 19.0, -7016.35 19.17, -6959.49 19.33, -6903.01 19.5, -6846.9 19.67, -6791.15 19.83, -6735.78 20.0, -6680.78 20.17, -6626.14 20.33, -6571.86 20.5, -6517.94 20.67, -6464.38 20.83, -6411.18 21.0, -6358.34 21.17, -6305.85 21.33, -6253.71 21.5, -6201.92 21.67, -6150.47 21.83, -6099.37 22.0, -6048.62 22.17, -5998.21 22.33, -5948.14 22.5, -5898.4 22.67, -5849.01 22.83, -5799.94 23.0, -5751.21 23.17, -5702.81 23.33, -5654.74 23.5, -5607.0 23.67, -5559.59 23.83, -5512.49 24.0, -5465.72 24.17, -5419.27 24.33, -5373.14 24.5, -5327.32 24.67, -5281.82 24.83, -5236.63 25.0, -5191.76 25.17, -5147.19 25.33, -5102.93 25.5, -5058.98 25.67, -5015.33 25.83, -4971.99 26.0, -4928.95 26.17, -4886.2 26.33, -4843.76 26.5, -4801.61 26.67, -4759.75 26.83, -4718.19 27.0, -4676.92 27.17, -4635.94 27.33, -4595.24 27.5, -4554.83 27.67, -4514.71 27.83, -4474.87 28.0, -4435.31 28.17, -4396.04 28.33, -4357.04 28.5, -4318.31 28.67, -4279.86 28.83, -4241.69 29.0, -4203.79 29.17, -4166.15 29.33, -4128.79 29.5, -4091.7 29.67, -4054.87 29.83, -4018.3 30.0, -3982.0 30.17, -3945.95 30.33, -3910.17 30.5, -3874.65 30.67, -3839.38 30.83, -3804.37 31.0, -3769.61 31.17, -3735.1 31.33, -3700.85 31.5, -3666.84 31.67, -3633.08 31.83, -3599.57 32.0, -3566.31 32.17, -3533.28 32.33, -3500.5 32.5, -3467.96 32.67, -3435.66 32.83, -3403.6 33.0, -3371.77 33.17, -3340.18 33.33, -3308.82 33.5, -3277.7 33.67, -3246.8 33.83, -3216.14 34.0, -3185.7 34.17, -3155.49 34.33, -3125.5 34.5, -3095.74 34.67, -3066.2 34.83, -3036.89 35.0, -3007.79 35.17, -2978.91 35.33, -2950.25 35.5, -2921.81 35.67, -2893.58 35.83, -2865.56 36.0, -2837.76 36.17, -2810.17 36.33, -2782.78 36.5, -2755.61 36.67, -2728.64 36.83, -2701.88 37.0, -2675.32 37.17, -2648.97 37.33, -2622.82 37.5, -2596.87 37.67, -2571.12 37.83, -2545.56 38.0, -2520.21 38.17, -2495.05 38.33, -2470.08 38.5, -2445.31 38.67, -2420.73 38.83, -2396.35 39.0, -2372.15 39.17, -2348.14 39.33, -2324.32 39.5, -2300.68 39.67, -2277.23 39.83, -2253.97 40.0, -2230.88 40.17, -2207.98 40.33, -2185.26 40.5, -2162.72 40.67, -2140.36 40.83, -2118.17 41.0, -2096.16 41.17, -2074.33 41.33, -2052.67 41.5, -2031.18 41.67, -2009.86 41.83, -1988.72 42.0, -1967.74 42.17, -1946.94 42.33, -1926.29 42.5, -1905.82 42.67, -1885.51 42.83, -1865.37 43.0, -1845.39 43.17, -1825.57 43.33, -1805.91 43.5, -1786.41 43.67, -1767.07 43.83, -1747.89 44.0, -1728.86 44.17, -1709.99 44.33, -1691.28 44.5, -1672.72 44.67, -1654.31 44.83, -1636.05 45.0, -1617.95 45.17, -1599.99 45.33, -1582.18 45.5, -1564.52 45.67, -1547.01 45.83, -1529.64 46.0, -1512.42 46.17, -1495.34 46.33, -1478.41 46.5, -1461.62 46.67, -1444.96 46.83, -1428.45 47.0, -1412.08 47.17, -1395.84 47.33, -1379.75 47.5, -1363.79 47.67, -1347.96 47.83, -1332.27 48.0, -1316.71 48.17, -1301.29 48.33, -1285.99 48.5, -1270.83 48.67, -1255.8 48.83, -1240.9 49.0, -1226.12 49.17, -1211.48 49.33, -1196.95 49.5, -1182.56 49.67, -1168.29 49.83, -1154.14 50.0, -1140.12 50.17, -1126.22 50.33, -1112.44 50.5, -1098.78 50.67, -1085.24 50.83, -1071.82 51.0, -1058.51 51.17, -1045.33 51.33, -1032.26 51.5, -1019.31 51.67, -1006.47 51.83, -993.74 52.0, -981.13 52.17, -968.63 52.33, -956.24 52.5, -943.96 52.67, -931.8 52.83, -919.74 53.0, -907.79 53.17, -895.94 53.33, -884.21 53.5, -872.58 53.67, -861.05 53.83, -849.63 54.0, -838.32 54.17, -827.11 54.33, -816.0 54.5, -804.99 54.67, -794.08 54.83, -783.27 55.0, -772.56 55.17, -761.95 55.33, -751.44 55.5, -741.02 55.67, -730.7 55.83, -720.48 56.0, -710.35 56.17, -700.32 56.33, -690.38 56.5, -680.53 56.67, -670.78 56.83, -661.12 57.0, -651.54 57.17, -642.06 57.33, -632.67 57.5, -623.37 57.67, -614.15 57.83, -605.02 58.0, -595.98 58.17, -587.03 58.33, -578.16 58.5, -569.38 58.67, -560.68 58.83, -552.06 59.0, -543.53 59.17, -535.08 59.33, -526.71 59.5, -518.42 59.67, -510.21 59.83, -502.09 60.0, -494.04 60.17, -486.07 60.33, -478.18 60.5, -470.36 60.67, -462.63 60.83, -454.97 61.0, -447.38 61.17, -439.87 61.33, -432.43 61.5, -425.07 61.67, -417.78 61.83, -410.57 62.0, -403.42 62.17, -396.35 62.33, -389.35 62.5, -382.42 62.67, -375.56 62.83, -368.77 63.0, -362.04 63.17, -355.39 63.33, -348.8 63.5, -342.28 63.67, -335.83 63.83, -329.44 64.0, -323.12 64.17, -316.87 64.33, -310.67 64.5, -304.54 64.67, -298.48 64.83, -292.48 65.0, -286.54 65.17, -280.66 65.33, -274.84 65.5, -269.09 65.67, -263.39 65.83, -257.76 66.0, -252.18 66.17, -246.66 66.33, -241.2 66.5, -235.8 66.67, -230.46 66.83, -225.17 67.0, -219.94 67.17, -214.77 67.33, -209.65 67.5, -204.59 67.67, -199.58 67.83, -194.62 68.0, -189.72 68.17, -184.87 68.33, -180.07 68.5, -175.33 68.67, -170.64 68.83, -166.0 69.0, -161.41 69.17, -156.87 69.33, -152.38 69.5, -147.94 69.67, -143.55 69.83, -139.21 70.0, -134.91 70.17, -130.67 70.33, -126.47 70.5, -122.32 70.67, -118.21 70.83, -114.15 71.0, -110.14 71.17, -106.17 71.33, -102.25 71.5, -98.37 71.67, -94.54 71.83, -90.75 72.0, -87.0 72.17, -83.3 72.33, -79.64 72.5, -76.02 72.67, -72.44 72.83, -68.91 73.0, -65.41 73.17, -61.96 73.33, -58.54 73.5, -55.17 73.67, -51.83 73.83, -48.54 74.0, -45.28 74.17, -42.07 74.33, -38.89 74.5, -35.74 74.67, -32.64 74.83, -29.57 75.0, -26.54 75.17, -23.55 75.33, -20.59 75.5, -17.66 75.67, -14.78 75.83, -11.92 76.0, -9.11 76.17, -6.32 76.33, -3.57 76.5, -0.86 76.67, 1.83 76.83, 4.48 77.0, 7.09 77.17, 9.68 77.33, 12.23 77.5, 14.75 77.67, 17.24 77.83, 19.7 78.0, 22.13 78.17, 24.53 78.33, 26.89 78.5, 29.23 78.67, 31.54 78.83, 33.82 79.0, 36.07 79.17, 38.29 79.33, 40.48 79.5, 42.64 79.67, 44.78 79.83, 46.89 80.0, 48.97 80.17, 51.03 80.33, 53.05 80.5, 55.06 80.67, 57.03 80.83, 58.98 81.0, 60.91 81.17, 62.81 81.33, 64.68 81.5, 66.53 81.67, 68.35 81.83, 70.15 82.0, 71.93 82.17, 73.68 82.33, 75.41 82.5, 77.12 82.67, 78.8 82.83, 80.46 83.0, 82.1 83.17, 83.71 83.33, 85.31 83.5, 86.88 83.67, 88.43 83.83, 89.96 84.0, 91.46 84.17, 92.95 84.33, 94.42 84.5, 95.86 84.67, 97.29 84.83, 98.7 85.0, 100.08 85.17, 101.45 85.33, 102.8 85.5, 104.12 85.67, 105.43 85.83, 106.73 86.0, 108.0 86.17, 109.25 86.33, 110.49 86.5, 111.71 86.67, 112.91 86.83, 114.09 87.0, 115.26 87.17, 116.41 87.33, 117.55 87.5, 118.66 87.67, 119.76 87.83, 120.85 88.0, 121.92 88.17, 122.97 88.33, 124.01 88.5, 125.03 88.67, 126.04 88.83, 127.03 89.0, 128.0 89.17, 128.97 89.33, 129.91 89.5, 130.85 89.67, 131.77 89.83, 132.67 90.0, 133.57 90.17, 134.45 90.33, 135.31 90.5, 136.16 90.67, 137.0 90.83, 137.83 91.0, 138.64 91.17, 139.44 91.33, 140.23 91.5, 141.01 91.67, 141.77 91.83, 142.52 92.0, 143.26 92.17, 143.99 92.33, 144.71 92.5, 145.42 92.67, 146.11 92.83, 146.8 93.0, 147.47 93.17, 148.13 93.33, 148.79 93.5, 149.43 93.67, 150.06 93.83, 150.68 94.0, 151.29 94.17, 151.89 94.33, 152.49 94.5, 153.07 94.67, 153.64 94.83, 154.21 95.0, 154.76 95.17, 155.31 95.33, 155.84 95.5, 156.37 95.67, 156.89 95.83, 157.4 96.0, 157.91 96.17, 158.4 96.33, 158.89 96.5, 159.37 96.67, 159.84 96.83, 160.3 97.0, 160.76 97.17, 161.2 97.33, 161.64 97.5, 162.08 97.67, 162.5 97.83, 162.92 98.0, 163.33 98.17, 163.74 98.33, 164.14 98.5, 164.53 98.67, 164.92 98.83, 165.29 99.0, 165.67 99.17, 166.03 99.33, 166.39 99.5, 166.75 99.67, 167.1 99.83, 167.44 100.0, 167.78 100.17, 168.11 100.33, 168.43 100.5, 168.75 100.67, 169.07 100.83, 169.38 101.0, 169.69 101.17, 169.98 101.33, 170.28 101.5, 170.57 101.67, 170.86 101.83, 171.14 102.0, 171.41 102.17, 171.68 102.33, 171.95 102.5, 172.21 102.67, 172.47 102.83, 172.73 103.0, 172.98 103.17, 173.22 103.33, 173.47 103.5, 173.71 103.67, 173.94 103.83, 174.17 104.0, 174.4 104.17, 174.62 104.33, 174.84 104.5, 175.06 104.67, 175.27 104.83, 175.48 105.0, 175.69 105.17, 175.9 105.33, 176.1 105.5, 176.29 105.67, 176.49 105.83, 176.68 106.0, 176.87 106.17, 177.06 106.33, 177.24 106.5, 177.42 106.67, 177.6 106.83, 177.78 107.0, 177.95 107.17, 178.12 107.33, 178.29 107.5, 178.46 107.67, 178.63 107.83, 178.79 108.0, 178.95 108.17, 179.11 108.33, 179.26 108.5, 179.42 108.67, 179.57 108.83, 179.72 109.0, 179.87 109.17, 180.02 109.33, 180.16 109.5, 180.31 109.67, 180.45 109.83, 180.59 110.0, 180.73 110.17, 180.87 110.33, 181.01 110.5, 181.14 110.67, 181.28 110.83, 181.41 111.0, 181.54 111.17, 181.67 111.33, 181.8 111.5, 181.93 111.67, 182.06 111.83, 182.18 112.0, 182.31 112.17, 182.43 112.33, 182.55 112.5, 182.68 112.67, 182.8 112.83, 182.92 113.0, 183.04 113.17, 183.16 113.33, 183.28 113.5, 183.39 113.67, 183.51 113.83, 183.63 114.0, 183.74 114.17, 183.86 114.33, 183.97 114.5, 184.09 114.67, 184.2 114.83, 184.32 115.0, 184.43 115.17, 184.54 115.33, 184.66 115.5, 184.77 115.67, 184.88 115.83, 184.99 116.0, 185.1 116.17, 185.21 116.33, 185.32 116.5, 185.44 116.67, 185.55 116.83, 185.66 117.0, 185.77 117.17, 185.88 117.33, 185.99 117.5, 186.1 117.67, 186.21 117.83, 186.32 118.0, 186.43 118.17, 186.54 118.33, 186.65 118.5, 186.76 118.67, 186.87 118.83, 186.98 119.0, 187.09 119.17, 187.2 119.33, 187.31 119.5, 187.42 119.67, 187.54 119.83, 187.65 120.0, 187.76 120.17, 187.87 120.33, 187.98 120.5, 188.1 120.67, 188.21 120.83, 188.32 121.0, 188.43 121.17, 188.55 121.33, 188.66 121.5, 188.78 121.67, 188.89 121.83, 189.01 122.0, 189.12 122.17, 189.24 122.33, 189.35 122.5, 189.47 122.67, 189.58 122.83, 189.7 123.0, 189.82 123.17, 189.94 123.33, 190.06 123.5, 190.17 123.67, 190.29 123.83, 190.41 124.0, 190.53 124.17, 190.65 124.33, 190.77 124.5, 190.89 124.67, 191.02 124.83, 191.14 125.0, 191.26 125.17, 191.38 125.33, 191.51 125.5, 191.63 125.67, 191.76 125.83, 191.88 126.0, 192.01 126.17, 192.13 126.33, 192.26 126.5, 192.38 126.67, 192.51 126.83, 192.64 127.0, 192.77 127.17, 192.9 127.33, 193.02 127.5, 193.15 127.67, 193.28 127.83, 193.41 128.0, 193.55 128.17, 193.68 128.33, 193.81 128.5, 193.94 128.67, 194.07 128.83, 194.21 129.0, 194.34 129.17, 194.47 129.33, 194.61 129.5, 194.74 129.67, 194.88 129.83, 195.02 130.0, 195.15 130.17, 195.29 130.33, 195.43 130.5, 195.56 130.67, 195.7 130.83, 195.84 131.0, 195.98 131.17, 196.12 131.33, 196.26 131.5, 196.4 131.67, 196.54 131.83, 196.68 132.0, 196.82 132.17, 196.96 132.33, 197.1 132.5, 197.25 132.67, 197.39 132.83, 197.53 133.0, 197.67 133.17, 197.82 133.33, 197.96 133.5, 198.11 133.67, 198.25 133.83, 198.4 134.0, 198.54 134.17, 198.69 134.33, 198.83 134.5, 198.98 134.67, 199.12 134.83, 199.27 135.0, 199.42 135.17, 199.56 135.33, 199.71 135.5, 199.86 135.67, 200.01 135.83, 200.15 136.0, 200.3 136.17, 200.45 136.33, 200.6 136.5, 200.75 136.67, 200.89 136.83, 201.04 137.0, 201.19 137.17, 201.34 137.33, 201.49 137.5, 201.64 137.67, 201.79 137.83, 201.94 138.0, 202.09 138.17, 202.24 138.33, 202.39 138.5, 202.54 138.67, 202.69 138.83, 202.84 139.0, 202.98 139.17, 203.13 139.33, 203.28 139.5, 203.43 139.67, 203.58 139.83, 203.73 140.0, 203.88 140.17, 204.03 140.33, 204.18 140.5, 204.33 140.67, 204.48 140.83, 204.63 141.0, 204.78 141.17, 204.93 141.33, 205.08 141.5, 205.22 141.67, 205.37 141.83, 205.52 142.0, 205.67 142.17, 205.82 142.33, 205.96 142.5, 206.11 142.67, 206.26 142.83, 206.41 143.0, 206.55 143.17, 206.7 143.33, 206.85 143.5, 206.99 143.67, 207.14 143.83, 207.28 144.0, 207.43 144.17, 207.57 144.33, 207.72 144.5, 207.86 144.67, 208.0 144.83, 208.15 145.0, 208.29 145.17, 208.43 145.33, 208.58 145.5, 208.72 145.67, 208.86 145.83, 209.0 146.0, 209.14 146.17, 209.28 146.33, 209.42 146.5, 209.56 146.67, 209.7 146.83, 209.83 147.0, 209.97 147.17, 210.11 147.33, 210.25 147.5, 210.38 147.67, 210.52 147.83, 210.65 148.0, 210.79 148.17, 210.92 148.33, 211.05 148.5, 211.18 148.67, 211.32 148.83, 211.45 149.0, 211.58 149.17, 211.71 149.33, 211.84 149.5, 211.96 149.67, 212.09 149.83, 212.22 150.0, 212.35 150.17, 212.47 150.33, 212.6 150.5, 212.72 150.67, 212.84 150.83, 212.97 151.0, 213.09 151.17, 213.21 151.33, 213.33 151.5, 213.45 151.67, 213.57 151.83, 213.69 152.0, 213.8 152.17, 213.92 152.33, 214.03 152.5, 214.15 152.67, 214.26 152.83, 214.38 153.0, 214.49 153.17, 214.6 153.33, 214.71 153.5, 214.82 153.67, 214.93 153.83, 215.03 154.0, 215.14 154.17, 215.25 154.33, 215.35 154.5, 215.45 154.67, 215.56 154.83, 215.66 155.0, 215.76 155.17, 215.86 155.33, 215.96 155.5, 216.05 155.67, 216.15 155.83, 216.25 156.0, 216.34 156.17, 216.43 156.33, 216.53 156.5, 216.62 156.67, 216.71 156.83, 216.8 157.0, 216.89 157.17, 216.97 157.33, 217.06 157.5, 217.14 157.67, 217.23 157.83, 217.31 158.0, 217.39 158.17, 217.47 158.33, 217.55 158.5, 217.63 158.67, 217.71 158.83, 217.78 159.0, 217.86 159.17, 217.93 159.33, 218.0 159.5, 218.07 159.67, 218.14 159.83, 218.21 160.0, 218.28 160.17, 218.35 160.33, 218.41 160.5, 218.47 160.67, 218.54 160.83, 218.6 161.0, 218.66 161.17, 218.72 161.33, 218.78 161.5, 218.83 161.67, 218.89 161.83, 218.94 162.0, 218.99 162.17, 219.04 162.33, 219.09 162.5, 219.14 162.67, 219.19 162.83, 219.24 163.0, 219.28 163.17, 219.33 163.33, 219.37 163.5, 219.41 163.67, 219.45 163.83, 219.49 164.0, 219.52 164.17, 219.56 164.33, 219.59 164.5, 219.63 164.67, 219.66 164.83, 219.69 165.0, 219.72 165.17, 219.75 165.33, 219.77 165.5, 219.8 165.67, 219.82 165.83, 219.84 166.0, 219.87 166.17, 219.89 166.33, 219.9 166.5, 219.92 166.67, 219.94 166.83, 219.95 167.0, 219.96 167.17, 219.98 167.33, 219.99 167.5, 219.99 167.67, 220.0 167.83, 220.01 168.0, 220.01 168.17, 220.02 168.33, 220.02 168.5, 220.02 168.67, 220.02 168.83, 220.02 169.0, 220.01 169.17, 220.01 169.33, 220.0 169.5, 219.99 169.67, 219.99 169.83, 219.98 170.0, 219.96 170.17, 219.95 170.33, 219.94 170.5, 219.92 170.67, 219.9 170.83, 219.89 171.0, 219.87 171.17, 219.84 171.33, 219.82 171.5, 219.8 171.67, 219.77 171.83, 219.75 172.0, 219.72 172.17, 219.69 172.33, 219.66 172.5, 219.63 172.67, 219.59 172.83, 219.56 173.0, 219.52 173.17, 219.48 173.33, 219.45 173.5, 219.4 173.67, 219.36 173.83, 219.32 174.0, 219.28 174.17, 219.23 174.33, 219.18 174.5, 219.14 174.67, 219.09 174.83, 219.04 175.0, 218.98 175.17, 218.93 175.33, 218.88 175.5, 218.82 175.67, 218.76 175.83, 218.7 176.0, 218.64 176.17, 218.58 176.33, 218.52 176.5, 218.46 176.67, 218.39 176.83, 218.33 177.0, 218.26 177.17, 218.19 177.33, 218.12 177.5, 218.05 177.67, 217.97 177.83, 217.9 178.0, 217.83 178.17, 217.75 178.33, 217.67 178.5, 217.59 178.67, 217.51 178.83, 217.43 179.0, 217.35 179.17, 217.27 179.33, 217.18 179.5, 217.1 179.67, 217.01 179.83, 216.92 180.0, 216.83 180.17, 216.74 180.33, 216.65 180.5, 216.55 180.67, 216.46 180.83, 216.37 181.0, 216.27 181.17, 216.17 181.33, 216.07 181.5, 215.97 181.67, 215.87 181.83, 215.77 182.0, 215.67 182.17, 215.56 182.33, 215.46 182.5, 215.35 182.67, 215.24 182.83, 215.14 183.0, 215.03 183.17, 214.92 183.33, 214.8 183.5, 214.69 183.67, 214.58 183.83, 214.46 184.0, 214.35 184.17, 214.23 184.33, 214.11 184.5, 213.99 184.67, 213.87 184.83, 213.75 185.0, 213.63 185.17, 213.51 185.33, 213.39 185.5, 213.26 185.67, 213.14 185.83, 213.01 186.0, 212.88 186.17, 212.76 186.33, 212.63 186.5, 212.5 186.67, 212.37 186.83, 212.24 187.0, 212.1 187.17, 211.97 187.33, 211.84 187.5, 211.7 187.67, 211.57 187.83, 211.43 188.0, 211.29 188.17, 211.15 188.33, 211.02 188.5, 210.88 188.67, 210.74 188.83, 210.6 189.0, 210.45 189.17, 210.31 189.33, 210.17 189.5, 210.02 189.67, 209.88 189.83, 209.73 190.0, 209.59 190.17, 209.44 190.33, 209.29 190.5, 209.15 190.67, 209.0 190.83, 208.85 191.0, 208.7 191.17, 208.55 191.33, 208.4 191.5, 208.25 191.67, 208.09 191.83, 207.94 192.0, 207.79 192.17, 207.63 192.33, 207.48 192.5, 207.33 192.67, 207.17 192.83, 207.01 193.0, 206.86 193.17, 206.7 193.33, 206.54 193.5, 206.39 193.67, 206.23 193.83, 206.07 194.0, 205.91 194.17, 205.75 194.33, 205.59 194.5, 205.43 194.67, 205.27 194.83, 205.11 195.0, 204.95 195.17, 204.79 195.33, 204.62 195.5, 204.46 195.67, 204.3 195.83, 204.14 196.0, 203.97 196.17, 203.81 196.33, 203.65 196.5, 203.48 196.67, 203.32 196.83, 203.15 197.0, 202.99 197.17, 202.82 197.33, 202.66 197.5, 202.49 197.67, 202.33 197.83, 202.16 198.0, 202.0 198.17, 201.83 198.33, 201.66 198.5, 201.5 198.67, 201.33 198.83, 201.17 199.0, 201.0 199.17, 200.83 199.33, 200.67 199.5, 200.5 199.67, 200.33 199.83, 200.17 200.0, 200.0 200.17, 199.83 200.33, 199.67 200.5, 199.5 200.67, 199.33 200.83, 199.17 201.0, 199.0 201.17, 198.83 201.33, 198.67 201.5, 198.5 201.67, 198.34 201.83, 198.17 202.0, 198.0 202.17, 197.84 202.33, 197.67 202.5, 197.51 202.67, 197.34 202.83, 197.18 203.0, 197.01 203.17, 196.85 203.33, 196.68 203.5, 196.52 203.67, 196.35 203.83, 196.19 204.0, 196.03 204.17, 195.86 204.33, 195.7 204.5, 195.54 204.67, 195.38 204.83, 195.21 205.0, 195.05 205.17, 194.89 205.33, 194.73 205.5, 194.57 205.67, 194.41 205.83, 194.25 206.0, 194.09 206.17, 193.93 206.33, 193.77 206.5, 193.61 206.67, 193.46 206.83, 193.3 207.0, 193.14 207.17, 192.99 207.33, 192.83 207.5, 192.67 207.67, 192.52 207.83, 192.37 208.0, 192.21 208.17, 192.06 208.33, 191.91 208.5, 191.75 208.67, 191.6 208.83, 191.45 209.0, 191.3 209.17, 191.15 209.33, 191.0 209.5, 190.85 209.67, 190.71 209.83, 190.56 210.0, 190.41 210.17, 190.27 210.33, 190.12 210.5, 189.98 210.67, 189.83 210.83, 189.69 211.0, 189.55 211.17, 189.4 211.33, 189.26 211.5, 189.12 211.67, 188.98 211.83, 188.85 212.0, 188.71 212.17, 188.57 212.33, 188.43 212.5, 188.3 212.67, 188.16 212.83, 188.03 213.0, 187.9 213.17, 187.76 213.33, 187.63 213.5, 187.5 213.67, 187.37 213.83, 187.24 214.0, 187.12 214.17, 186.99 214.33, 186.86 214.5, 186.74 214.67, 186.61 214.83, 186.49 215.0, 186.37 215.17, 186.25 215.33, 186.13 215.5, 186.01 215.67, 185.89 215.83, 185.77 216.0, 185.65 216.17, 185.54 216.33, 185.42 216.5, 185.31 216.67, 185.2 216.83, 185.08 217.0, 184.97 217.17, 184.86 217.33, 184.76 217.5, 184.65 217.67, 184.54 217.83, 184.44 218.0, 184.33 218.17, 184.23 218.33, 184.13 218.5, 184.03 218.67, 183.93 218.83, 183.83 219.0, 183.73 219.17, 183.63 219.33, 183.54 219.5, 183.45 219.67, 183.35 219.83, 183.26 220.0, 183.17 220.17, 183.08 220.33, 182.99 220.5, 182.9 220.67, 182.82 220.83, 182.73 221.0, 182.65 221.17, 182.57 221.33, 182.49 221.5, 182.41 221.67, 182.33 221.83, 182.25 222.0, 182.17 222.17, 182.1 222.33, 182.03 222.5, 181.95 222.67, 181.88 222.83, 181.81 223.0, 181.74 223.17, 181.67 223.33, 181.61 223.5, 181.54 223.67, 181.48 223.83, 181.42 224.0, 181.36 224.17, 181.3 224.33, 181.24 224.5, 181.18 224.67, 181.12 224.83, 181.07 225.0, 181.02 225.17, 180.96 225.33, 180.91 225.5, 180.86 225.67, 180.82 225.83, 180.77 226.0, 180.72 226.17, 180.68 226.33, 180.64 226.5, 180.6 226.67, 180.55 226.83, 180.52 227.0, 180.48 227.17, 180.44 227.33, 180.41 227.5, 180.37 227.67, 180.34 227.83, 180.31 228.0, 180.28 228.17, 180.25 228.33, 180.23 228.5, 180.2 228.67, 180.18 228.83, 180.16 229.0, 180.13 229.17, 180.11 229.33, 180.1 229.5, 180.08 229.67, 180.06 229.83, 180.05 230.0, 180.04 230.17, 180.02 230.33, 180.01 230.5, 180.01 230.67, 180.0 230.83, 179.99 231.0, 179.99 231.17, 179.98 231.33, 179.98 231.5, 179.98 231.67, 179.98 231.83, 179.98 232.0, 179.99 232.17, 179.99 232.33, 180.0 232.5, 180.01 232.67, 180.01 232.83, 180.02 233.0, 180.04 233.17, 180.05 233.33, 180.06 233.5, 180.08 233.67, 180.1 233.83, 180.11 234.0, 180.13 234.17, 180.16 234.33, 180.18 234.5, 180.2 234.67, 180.23 234.83, 180.25 235.0, 180.28 235.17, 180.31 235.33, 180.34 235.5, 180.37 235.67, 180.41 235.83, 180.44 236.0, 180.48 236.17, 180.51 236.33, 180.55 236.5, 180.59 236.67, 180.63 236.83, 180.67 237.0, 180.72 237.17, 180.76 237.33, 180.81 237.5, 180.86 237.67, 180.91 237.83, 180.96 238.0, 181.01 238.17, 181.06 238.33, 181.11 238.5, 181.17 238.67, 181.22 238.83, 181.28 239.0, 181.34 239.17, 181.4 239.33, 181.46 239.5, 181.53 239.67, 181.59 239.83, 181.65 240.0, 181.72 240.17, 181.79 240.33, 181.86 240.5, 181.93 240.67, 182.0 240.83, 182.07 241.0, 182.14 241.17, 182.22 241.33, 182.29 241.5, 182.37 241.67, 182.45 241.83, 182.53 242.0, 182.61 242.17, 182.69 242.33, 182.77 242.5, 182.86 242.67, 182.94 242.83, 183.03 243.0, 183.11 243.17, 183.2 243.33, 183.29 243.5, 183.38 243.67, 183.47 243.83, 183.57 244.0, 183.66 244.17, 183.75 244.33, 183.85 244.5, 183.95 244.67, 184.04 244.83, 184.14 245.0, 184.24 245.17, 184.34 245.33, 184.44 245.5, 184.55 245.67, 184.65 245.83, 184.75 246.0, 184.86 246.17, 184.97 246.33, 185.07 246.5, 185.18 246.67, 185.29 246.83, 185.4 247.0, 185.51 247.17, 185.62 247.33, 185.74 247.5, 185.85 247.67, 185.97 247.83, 186.08 248.0, 186.2 248.17, 186.31 248.33, 186.43 248.5, 186.55 248.67, 186.67 248.83, 186.79 249.0, 186.91 249.17, 187.03 249.33, 187.16 249.5, 187.28 249.67, 187.4 249.83, 187.53 250.0, 187.65 250.17, 187.78 250.33, 187.91 250.5, 188.04 250.67, 188.16 250.83, 188.29 251.0, 188.42 251.17, 188.55 251.33, 188.68 251.5, 188.82 251.67, 188.95 251.83, 189.08 252.0, 189.21 252.17, 189.35 252.33, 189.48 252.5, 189.62 252.67, 189.75 252.83, 189.89 253.0, 190.03 253.17, 190.17 253.33, 190.3 253.5, 190.44 253.67, 190.58 253.83, 190.72 254.0, 190.86 254.17, 191.0 254.33, 191.14 254.5, 191.28 254.67, 191.42 254.83, 191.57 255.0, 191.71 255.17, 191.85 255.33, 192.0 255.5, 192.14 255.67, 192.28 255.83, 192.43 256.0, 192.57 256.17, 192.72 256.33, 192.86 256.5, 193.01 256.67, 193.15 256.83, 193.3 257.0, 193.45 257.17, 193.59 257.33, 193.74 257.5, 193.89 257.67, 194.04 257.83, 194.18 258.0, 194.33 258.17, 194.48 258.33, 194.63 258.5, 194.78 258.67, 194.92 258.83, 195.07 259.0, 195.22 259.17, 195.37 259.33, 195.52 259.5, 195.67 259.67, 195.82 259.83, 195.97 260.0, 196.12 260.17, 196.27 260.33, 196.42 260.5, 196.57 260.67, 196.72 260.83, 196.87 261.0, 197.02 261.17, 197.16 261.33, 197.31 261.5, 197.46 261.67, 197.61 261.83, 197.76 262.0, 197.91 262.17, 198.06 262.33, 198.21 262.5, 198.36 262.67, 198.51 262.83, 198.66 263.0, 198.81 263.17, 198.96 263.33, 199.11 263.5, 199.25 263.67, 199.4 263.83, 199.55 264.0, 199.7 264.17, 199.85 264.33, 199.99 264.5, 200.14 264.67, 200.29 264.83, 200.44 265.0, 200.58 265.17, 200.73 265.33, 200.88 265.5, 201.02 265.67, 201.17 265.83, 201.31 266.0, 201.46 266.17, 201.6 266.33, 201.75 266.5, 201.89 266.67, 202.04 266.83, 202.18 267.0, 202.33 267.17, 202.47 267.33, 202.61 267.5, 202.75 267.67, 202.9 267.83, 203.04 268.0, 203.18 268.17, 203.32 268.33, 203.46 268.5, 203.6 268.67, 203.74 268.83, 203.88 269.0, 204.02 269.17, 204.16 269.33, 204.3 269.5, 204.44 269.67, 204.57 269.83, 204.71 270.0, 204.85 270.17, 204.98 270.33, 205.12 270.5, 205.26 270.67, 205.39 270.83, 205.53 271.0, 205.66 271.17, 205.79 271.33, 205.93 271.5, 206.06 271.67, 206.19 271.83, 206.32 272.0, 206.45 272.17, 206.59 272.33, 206.72 272.5, 206.85 272.67, 206.98 272.83, 207.1 273.0, 207.23 273.17, 207.36 273.33, 207.49 273.5, 207.62 273.67, 207.74 273.83, 207.87 274.0, 207.99 274.17, 208.12 274.33, 208.24 274.5, 208.37 274.67, 208.49 274.83, 208.62 275.0, 208.74 275.17, 208.86 275.33, 208.98 275.5, 209.11 275.67, 209.23 275.83, 209.35 276.0, 209.47 276.17, 209.59 276.33, 209.71 276.5, 209.83 276.67, 209.94 276.83, 210.06 277.0, 210.18 277.17, 210.3 277.33, 210.42 277.5, 210.53 277.67, 210.65 277.83, 210.76 278.0, 210.88 278.17, 210.99 278.33, 211.11 278.5, 211.22 278.67, 211.34 278.83, 211.45 279.0, 211.57 279.17, 211.68 279.33, 211.79 279.5, 211.9 279.67, 212.02 279.83, 212.13 280.0, 212.24 280.17, 212.35 280.33, 212.46 280.5, 212.58 280.67, 212.69 280.83, 212.8 281.0, 212.91 281.17, 213.02 281.33, 213.13 281.5, 213.24 281.67, 213.35 281.83, 213.46 282.0, 213.57 282.17, 213.68 282.33, 213.79 282.5, 213.9 282.67, 214.01 282.83, 214.12 283.0, 214.23 283.17, 214.34 283.33, 214.45 283.5, 214.56 283.67, 214.68 283.83, 214.79 284.0, 214.9 284.17, 215.01 284.33, 215.12 284.5, 215.23 284.67, 215.34 284.83, 215.46 285.0, 215.57 285.17, 215.68 285.33, 215.8 285.5, 215.91 285.67, 216.03 285.83, 216.14 286.0, 216.26 286.17, 216.37 286.33, 216.49 286.5, 216.61 286.67, 216.72 286.83, 216.84 287.0, 216.96 287.17, 217.08 287.33, 217.2 287.5, 217.32 287.67, 217.45 287.83, 217.57 288.0, 217.69 288.17, 217.82 288.33, 217.94 288.5, 218.07 288.67, 218.2 288.83, 218.33 289.0, 218.46 289.17, 218.59 289.33, 218.72 289.5, 218.86 289.67, 218.99 289.83, 219.13 290.0, 219.27 290.17, 219.41 290.33, 219.55 290.5, 219.69 290.67, 219.84 290.83, 219.98 291.0, 220.13 291.17, 220.28 291.33, 220.43 291.5, 220.58 291.67, 220.74 291.83, 220.89 292.0, 221.05 292.17, 221.21 292.33, 221.37 292.5, 221.54 292.67, 221.71 292.83, 221.88 293.0, 222.05 293.17, 222.22 293.33, 222.4 293.5, 222.58 293.67, 222.76 293.83, 222.94 294.0, 223.13 294.17, 223.32 294.33, 223.51 294.5, 223.71 294.67, 223.9 294.83, 224.1 295.0, 224.31 295.17, 224.52 295.33, 224.73 295.5, 224.94 295.67, 225.16 295.83, 225.38 296.0, 225.6 296.17, 225.83 296.33, 226.06 296.5, 226.29 296.67, 226.53 296.83, 226.78 297.0, 227.02 297.17, 227.27 297.33, 227.53 297.5, 227.79 297.67, 228.05 297.83, 228.32 298.0, 228.59 298.17, 228.86 298.33, 229.14 298.5, 229.43 298.67, 229.72 298.83, 230.02 299.0, 230.31 299.17, 230.62 299.33, 230.93 299.5, 231.25 299.67, 231.57 299.83, 231.89 300.0, 232.22 300.17, 232.56 300.33, 232.9 300.5, 233.25 300.67, 233.61 300.83, 233.97 301.0, 234.33 301.17, 234.71 301.33, 235.08 301.5, 235.47 301.67, 235.86 301.83, 236.26 302.0, 236.67 302.17, 237.08 302.33, 237.5 302.5, 237.92 302.67, 238.36 302.83, 238.8 303.0, 239.24 303.17, 239.7 303.33, 240.16 303.5, 240.63 303.67, 241.11 303.83, 241.6 304.0, 242.09 304.17, 242.6 304.33, 243.11 304.5, 243.63 304.67, 244.16 304.83, 244.69 305.0, 245.24 305.17, 245.79 305.33, 246.36 305.5, 246.93 305.67, 247.51 305.83, 248.11 306.0, 248.71 306.17, 249.32 306.33, 249.94 306.5, 250.57 306.67, 251.21 306.83, 251.87 307.0, 252.53 307.17, 253.2 307.33, 253.89 307.5, 254.58 307.67, 255.29 307.83, 256.01 308.0, 256.74 308.17, 257.48 308.33, 258.23 308.5, 258.99 308.67, 259.77 308.83, 260.56 309.0, 261.36 309.17, 262.17 309.33, 263.0 309.5, 263.84 309.67, 264.69 309.83, 265.55 310.0, 266.43 310.17, 267.33 310.33, 268.23 310.5, 269.15 310.67, 270.09 310.83, 271.03 311.0, 272.0 311.17, 272.97 311.33, 273.96 311.5, 274.97 311.67, 275.99 311.83, 277.03 312.0, 278.08 312.17, 279.15 312.33, 280.24 312.5, 281.34 312.67, 282.45 312.83, 283.59 313.0, 284.74 313.17, 285.91 313.33, 287.09 313.5, 288.29 313.67, 289.51 313.83, 290.75 314.0, 292.0 314.17, 293.27 314.33, 294.57 314.5, 295.88 314.67, 297.2 314.83, 298.55 315.0, 299.92 315.17, 301.3 315.33, 302.71 315.5, 304.14 315.67, 305.58 315.83, 307.05 316.0, 308.54 316.17, 310.04 316.33, 311.57 316.5, 313.12 316.67, 314.69 316.83, 316.29 317.0, 317.9 317.17, 319.54 317.33, 321.2 317.5, 322.88 317.67, 324.59 317.83, 326.32 318.0, 328.07 318.17, 329.85 318.33, 331.65 318.5, 333.47 318.67, 335.32 318.83, 337.19 319.0, 339.09 319.17, 341.02 319.33, 342.97 319.5, 344.94 319.67, 346.95 319.83, 348.97 320.0, 351.03 320.17, 353.11 320.33, 355.22 320.5, 357.36 320.67, 359.52 320.83, 361.71 321.0, 363.93 321.17, 366.18 321.33, 368.46 321.5, 370.77 321.67, 373.11 321.83, 375.47 322.0, 377.87 322.17, 380.3 322.33, 382.76 322.5, 385.25 322.67, 387.77 322.83, 390.32 323.0, 392.91 323.17, 395.52 323.33, 398.17 323.5, 400.86 323.67, 403.57 323.83, 406.32 324.0, 409.11 324.17, 411.92 324.33, 414.78 324.5, 417.66 324.67, 420.59 324.83, 423.55 325.0, 426.54 325.17, 429.57 325.33, 432.64 325.5, 435.74 325.67, 438.89 325.83, 442.07 326.0, 445.28 326.17, 448.54 326.33, 451.83 326.5, 455.17 326.67, 458.54 326.83, 461.96 327.0, 465.41 327.17, 468.91 327.33, 472.44 327.5, 476.02 327.67, 479.64 327.83, 483.3 328.0, 487.0 328.17, 490.75 328.33, 494.54 328.5, 498.37 328.67, 502.25 328.83, 506.17 329.0, 510.14 329.17, 514.15 329.33, 518.21 329.5, 522.32 329.67, 526.47 329.83, 530.67 330.0, 534.91 330.17, 539.21 330.33, 543.55 330.5, 547.94 330.67, 552.38 330.83, 556.87 331.0, 561.41 331.17, 566.0 331.33, 570.64 331.5, 575.33 331.67, 580.07 331.83, 584.87 332.0, 589.72 332.17, 594.62 332.33, 599.58 332.5, 604.59 332.67, 609.65 332.83, 614.77 333.0, 619.94 333.17, 625.17 333.33, 630.46 333.5, 635.8 333.67, 641.2 333.83, 646.66 334.0, 652.18 334.17, 657.76 334.33, 663.39 334.5, 669.09 334.67, 674.84 334.83, 680.66 335.0, 686.54 335.17, 692.48 335.33, 698.48 335.5, 704.54 335.67, 710.67 335.83, 716.87 336.0, 723.12 336.17, 729.44 336.33, 735.83 336.5, 742.28 336.67, 748.8 336.83, 755.39 337.0, 762.04 337.17, 768.77 337.33, 775.56 337.5, 782.42 337.67, 789.35 337.83, 796.35 338.0, 803.42 338.17, 810.57 338.33, 817.78 338.5, 825.07 338.67, 832.43 338.83, 839.87 339.0, 847.38 339.17, 854.97 339.33, 862.63 339.5, 870.36 339.67, 878.18 339.83, 886.07 340.0, 894.04 340.17, 902.09 340.33, 910.21 340.5, 918.42 340.67, 926.71 340.83, 935.08 341.0, 943.53 341.17, 952.06 341.33, 960.68 341.5, 969.38 341.67, 978.16 341.83, 987.03 342.0, 995.98 342.17, 1005.02 342.33, 1014.15 342.5, 1023.37 342.67, 1032.67 342.83, 1042.06 343.0, 1051.54 343.17, 1061.12 343.33, 1070.78 343.5, 1080.53 343.67, 1090.38 343.83, 1100.32 344.0, 1110.35 344.17, 1120.48 344.33, 1130.7 344.5, 1141.02 344.67, 1151.44 344.83, 1161.95 345.0, 1172.56 345.17, 1183.27 345.33, 1194.08 345.5, 1204.99 345.67, 1216.0 345.83, 1227.11 346.0, 1238.32 346.17, 1249.63 346.33, 1261.05 346.5, 1272.58 346.67, 1284.21 346.83, 1295.94 347.0, 1307.79 347.17, 1319.74 347.33, 1331.8 347.5, 1343.96 347.67, 1356.24 347.83, 1368.63 348.0, 1381.13 348.17, 1393.74 348.33, 1406.47 348.5, 1419.31 348.67, 1432.26 348.83, 1445.33 349.0, 1458.51 349.17, 1471.82 349.33, 1485.24 349.5, 1498.78 349.67, 1512.44 349.83, 1526.22 350.0, 1540.12 350.17, 1554.14 350.33, 1568.29 350.5, 1582.56 350.67, 1596.95 350.83, 1611.48 351.0, 1626.12 351.17, 1640.9 351.33, 1655.8 351.5, 1670.83 351.67, 1685.99 351.83, 1701.29 352.0, 1716.71 352.17, 1732.27 352.33, 1747.96 352.5, 1763.79 352.67, 1779.75 352.83, 1795.84 353.0, 1812.08 353.17, 1828.45 353.33, 1844.96 353.5, 1861.62 353.67, 1878.41 353.83, 1895.34 354.0, 1912.42 354.17, 1929.64 354.33, 1947.01 354.5, 1964.52 354.67, 1982.18 354.83, 1999.99 355.0, 2017.95 355.17, 2036.05 355.33, 2054.31 355.5, 2072.72 355.67, 2091.28 355.83, 2109.99 356.0, 2128.86 356.17, 2147.89 356.33, 2167.07 356.5, 2186.41 356.67, 2205.91 356.83, 2225.57 357.0, 2245.39 357.17, 2265.37 357.33, 2285.51 357.5, 2305.82 357.67, 2326.29 357.83, 2346.94 358.0, 2367.74 358.17, 2388.72 358.33, 2409.86 358.5, 2431.18 358.67, 2452.67 358.83, 2474.33 359.0, 2496.16 359.17, 2518.17 359.33, 2540.36 359.5, 2562.72 359.67, 2585.26 359.83, 2607.98 360.0, 2630.88 360.17, 2653.97 360.33, 2677.23 360.5, 2700.68 360.67, 2724.32 360.83, 2748.14 361.0, 2772.15 361.17, 2796.35 361.33, 2820.73 361.5, 2845.31 361.67, 2870.08 361.83, 2895.05 362.0, 2920.21 362.17, 2945.56 362.33, 2971.12 362.5, 2996.87 362.67, 3022.82 362.83, 3048.97 363.0, 3075.32 363.17, 3101.88 363.33, 3128.64 363.5, 3155.61 363.67, 3182.78 363.83, 3210.17 364.0, 3237.76 364.17, 3265.56 364.33, 3293.58 364.5, 3321.81 364.67, 3350.25 364.83, 3378.91 365.0, 3407.79 365.17, 3436.89 365.33, 3466.2 365.5, 3495.74 365.67, 3525.5 365.83, 3555.49 366.0, 3585.7 366.17, 3616.14 366.33, 3646.8 366.5, 3677.7 366.67, 3708.82 366.83, 3740.18 367.0, 3771.77 367.17, 3803.6 367.33, 3835.66 367.5, 3867.96 367.67, 3900.5 367.83, 3933.28 368.0, 3966.31 368.17, 3999.57 368.33, 4033.08 368.5, 4066.84 368.67, 4100.85 368.83, 4135.1 369.0, 4169.61 369.17, 4204.37 369.33, 4239.38 369.5, 4274.65 369.67, 4310.17 369.83, 4345.95 370.0, 4382.0 370.17, 4418.3 370.33, 4454.87 370.5, 4491.7 370.67, 4528.79 370.83, 4566.15 371.0, 4603.79 371.17, 4641.69 371.33, 4679.86 371.5, 4718.31 371.67, 4757.04 371.83, 4796.04 372.0, 4835.31 372.17, 4874.87 372.33, 4914.71 372.5, 4954.83 372.67, 4995.24 372.83, 5035.94 373.0, 5076.92 373.17, 5118.19 373.33, 5159.75 373.5, 5201.61 373.67, 5243.76 373.83, 5286.2 374.0, 5328.95 374.17, 5371.99 374.33, 5415.33 374.5, 5458.98 374.67, 5502.93 374.83, 5547.19 375.0, 5591.76 375.17, 5636.63 375.33, 5681.82 375.5, 5727.32 375.67, 5773.14 375.83, 5819.27 376.0, 5865.72 376.17, 5912.49 376.33, 5959.59 376.5, 6007.0 376.67, 6054.74 376.83, 6102.81 377.0, 6151.21 377.17, 6199.94 377.33, 6249.01 377.5, 6298.4 377.67, 6348.14 377.83, 6398.21 378.0, 6448.62 378.17, 6499.37 378.33, 6550.47 378.5, 6601.92 378.67, 6653.71 378.83, 6705.85 379.0, 6758.34 379.17, 6811.18 379.33, 6864.38 379.5, 6917.94 379.67, 6971.86 379.83, 7026.14 380.0, 7080.78 380.17, 7135.78 380.33, 7191.15 380.5, 7246.9 380.67, 7303.01 380.83, 7359.49 381.0, 7416.35 381.17, 7473.59 381.33, 7531.2 381.5, 7589.2 381.67, 7647.58 381.83, 7706.34 382.0, 7765.49 382.17, 7825.03 382.33, 7884.96 382.5, 7945.28 382.67, 8006.0 382.83, 8067.12 383.0, 8128.63 383.17, 8190.55 383.33, 8252.87 383.5, 8315.59 383.67, 8378.72 383.83, 8442.27 384.0, 8506.22 384.17, 8570.59 384.33, 8635.38 384.5, 8700.58 384.67, 8766.2 384.83, 8832.25 385.0, 8898.72 385.17, 8965.62 385.33, 9032.95 385.5, 9100.71 385.67, 9168.91 385.83, 9237.54 386.0, 9306.61 386.17, 9376.12 386.33, 9446.07 386.5, 9516.47 386.67, 9587.32 386.83, 9658.61 387.0, 9730.36 387.17, 9802.56 387.33, 9875.22 387.5, 9948.34 387.67, 10021.92 387.83, 10095.96 388.0, 10170.47 388.17, 10245.45 388.33, 10320.9 388.5, 10396.82 388.67, 10473.22 388.83, 10550.1 389.0, 10627.45 389.17, 10705.29 389.33, 10783.61 389.5, 10862.43 389.67, 10941.73 389.83, 11021.52 390.0, 11101.81 390.17, 11182.6 390.33, 11263.89 390.5, 11345.68 390.67, 11427.97 390.83, 11510.78 391.0, 11594.09 391.17, 11677.92 391.33, 11762.26 391.5, 11847.12 391.67, 11932.5 391.83, 12018.4 392.0, 12104.83 392.17, 12191.78 392.33, 12279.27 392.5, 12367.29 392.67, 12455.84 392.83, 12544.94 393.0, 12634.57 393.17, 12724.75 393.33, 12815.48 393.5, 12906.75 393.67, 12998.58 393.83, 13090.96 394.0, 13183.9 394.17, 13277.4 394.33, 13371.46 394.5, 13466.09 394.67, 13561.29 394.83, 13657.06 395.0, 13753.4 395.17, 13850.31 395.33, 13947.81 395.5, 14045.89 395.67, 14144.55 395.83, 14243.8 396.0, 14343.65 396.17, 14444.08 396.33, 14545.12 396.5, 14646.75 396.67, 14748.98 396.83, 14851.82 397.0, 14955.26 397.17, 15059.32 397.33, 15163.99 397.5, 15269.28 397.67, 15375.19 397.83, 15481.72 398.0, 15588.87 398.17, 15696.65 398.33, 15805.07 398.5, 15914.12 398.67, 16023.8 398.83, 16134.13 399.0, 16245.1 399.17, 16356.72 399.33, 16468.98 399.5, 16581.9 399.67, 16695.48 399.83, 16809.71 400.0, 16924.6 " fill="none" stroke="white" stroke-width="1.5" stroke-linejoin="round" stroke-opacity="1"/>

 </svg>