<svg version="1.1" 
 baseProfile="full" 
 width="400" 
 height="400" 
 xmlns="http://www.w3.org/2000/svg">
<rect x="0.0" y="0.0" width="400" height="400" fill="black" stroke="black" stroke-width="0" opacity="1"/>
<line x1="0.0" y1="0.0" x2="0.0" y2="400.0" stroke="white" stroke-width="1" opacity="0.4" stroke-linecap="butt"/>
<line x1="40.0" y1="0.0" x2="40.0" y2="400.0" stroke="white" stroke-width="1" opacity="0.4" stroke-linecap="butt"/>
<line x1="80.0" y1="0.0" x2="80.0" y2="400.0" stroke="white" stroke-width="1" opacity="0.4" stroke-linecap="butt"/>
<line x1="120.0" y1="0.0" x2="120.0" y2="400.0" stroke="white" stroke-width="1" opacity="0.4" stroke-linecap="butt"/>
<line x1="160.0" y1="0.0" x2="160.0" y2="400.0" stroke="white" stroke-width="1" opacity="0.4" stroke-linecap="butt"/>
<line x1="200.0" y1="0.0" x2="200.0" y2="400.0" stroke="white" stroke-width="1" opacity="0.4" stroke-linecap="butt"/>
<line x1="240.0" y1="0.0" x2="240.0" y2="400.0" stroke="white" stroke-width="1" opacity="0.4" stroke-linecap="butt"/>
<line x1="280.0" y1="0.0" x2="280.0" y2="400.0" stroke="white" stroke-width="1" opacity="0.4" stroke-linecap="butt"/>
<line x1="320.0" y1="0.0" x2="320.0" y2="400.0" stroke="white" stroke-width="1" opacity="0.4" stroke-linecap="butt"/>
<line x1="360.0" y1="0.0" x2="360.0" y2="400.0" stroke="white" stroke-width="1" opacity="0.4" stroke-linecap="butt"/>
<line x1="0.0" y1="0.0" x2="400.0" y2="0.0" stroke="white" stroke-width="1" opacity="0.4" stroke-linecap="butt"/>
<line x1="0.0" y1="40.0" x2="400.0" y2="40.0" stroke="white" stroke-width="1" opacity="0.4" stroke-linecap="butt"/>
<line x1="0.0" y1="80.0" x2="400.0" y2="80.0" stroke="white" stroke-width="1" opacity="0.4" stroke-linecap="butt"/>
<line x1="0.0" y1="120.0" x2="400.0" y2="120.0" stroke="white" stroke-width="1" opacity="0.4" stroke-linecap="butt"/>
<line x1="0.0" y1="160.0" x2="400.0" y2="160.0" stroke="white" stroke-width="1" opacity="0.4" stroke-linecap="butt"/>
<line x1="0.0" y1="200.0" x2="400.0" y2="200.0" stroke="white" stroke-width="1" opacity="0.4" stroke-linecap="butt"/>
<line x1="0.0" y1="240.0" x2="400.0" y2="240.0" stroke="white" stroke-width="1" opacity="0.4" stroke-linecap="butt"/>
<line x1="0.0" y1="280.0" x2="400.0" y2="280.0" stroke="white" stroke-width="1" opacity="0.4" stroke-linecap="butt"/>
<line x1="0.0" y1="320.0" x2="400.0" y2="320.0" stroke="white" stroke-width="1" opacity="0.4" stroke-linecap="butt"/>
<line x1="0.0" y1="360.0" x2="400.0" y2="360.0" stroke="white" stroke-width="1" opacity="0.4" stroke-linecap="butt"/>
<line x1="0.0" y1="200.0" x2="400.0" y2="200.0" stroke="yellow" stroke-width="2.5" opacity="1" stroke-linecap="butt"/>
<line x1="200.0" y1="0.0" x2="200.0" y2="400.0" stroke="yellow" stroke-width="2.5" opacity="1" stroke-linecap="butt"/>
<polygon points="391.0 204.0, 401.0 200.0, 391.0 196.0, 393.0 200.0" fill="yellow"/><polygon points="204.0 9.0, 200.0 -1.0, 196.0 9.0, 200.0 7.0" fill="yellow"/><image x="-60.0" y="-60.0" width="200" height="200" href="/Users/girirajhira/PycharmProjects/Giraphics3/Taylor/expr.png"/><polyline points="0.0, -17516.67 0.17, -17396.0 0.33, -17276.02 0.5, -17156.73 0.67, -17038.13 0.83, -16920.2 1.0, -16802.96 1.17, -16686.39 1.33, -16570.49 1.5, -16455.25 1.67, -16340.69 1.83, -16226.78 2.0, -16113.54 2.17, -16000.95 2.33, -15889.01 2.5, -15777.73 2.67, -15667.09 2.83, -15557.09 3.0, -15447.73 3.17, -15339.02 3.33, -15230.93 3.5, -15123.48 3.67, -15016.66 3.83, -14910.46 4.0, -14804.88 4.17, -14699.93 4.33, -14595.59 4.5, -14491.86 4.67, -14388.75 4.83, -14286.24 5.0, -14184.34 5.17, -14083.04 5.33, -13982.34 5.5, -13882.24 5.67, -13782.73 5.83, -13683.81 6.0, -13585.47 6.17, -13487.73 6.33, -13390.56 6.5, -13293.97 6.67, -13197.97 6.83, -13102.53 7.0, -13007.66 7.17, -12913.37 7.33, -12819.64 7.5, -12726.47 7.67, -12633.86 7.83, -12541.81 8.0, -12450.31 8.17, -12359.36 8.33, -12268.97 8.5, -12179.12 8.67, -12089.81 8.83, -12001.04 9.0, -11912.82 9.17, -11825.12 9.33, -11737.97 9.5, -11651.34 9.67, -11565.24 9.83, -11479.66 10.0, -11394.61 10.17, -11310.08 10.33, -11226.06 10.5, -11142.56 10.67, -11059.57 10.83, -10977.09 11.0, -10895.12 11.17, -10813.65 11.33, -10732.69 11.5, -10652.23 11.67, -10572.26 11.83, -10492.79 12.0, -10413.8 12.17, -10335.31 12.33, -10257.31 12.5, -10179.79 12.67, -10102.75 12.83, -10026.2 13.0, -9950.12 13.17, -9874.51 13.33, -9799.38 13.5, -9724.72 13.67, -9650.53 13.83, -9576.8 14.0, -9503.54 14.17, -9430.73 14.33, -9358.39 14.5, -9286.5 14.67, -9215.06 14.83, -9144.08 15.0, -9073.54 15.17, -9003.46 15.33, -8933.81 15.5, -8864.61 15.67, -8795.85 15.83, -8727.53 16.0, -8659.64 16.17, -8592.19 16.33, -8525.16 16.5, -8458.57 16.67, -8392.4 16.83, -8326.66 17.0, -8261.34 17.17, -8196.43 17.33, -8131.95 17.5, -8067.88 17.67, -8004.23 17.83, -7940.98 18.0, -7878.15 18.17, -7815.72 18.33, -7753.7 18.5, -7692.08 18.67, -7630.86 18.83, -7570.04 19.0, -7509.62 19.17, -7449.59 19.33, -7389.95 19.5, -7330.7 19.67, -7271.84 19.83, -7213.37 20.0, -7155.28 20.17, -7097.57 20.33, -7040.24 20.5, -6983.29 20.67, -6926.72 20.83, -6870.52 21.0, -6814.69 21.17, -6759.23 21.33, -6704.14 21.5, -6649.42 21.67, -6595.06 21.83, -6541.06 22.0, -6487.42 22.17, -6434.14 22.33, -6381.22 22.5, -6328.65 22.67, -6276.43 22.83, -6224.57 23.0, -6173.05 23.17, -6121.88 23.33, -6071.05 23.5, -6020.57 23.67, -5970.42 23.83, -5920.62 24.0, -5871.15 24.17, -5822.02 24.33, -5773.23 24.5, -5724.76 24.67, -5676.63 24.83, -5628.82 25.0, -5581.34 25.17, -5534.18 25.33, -5487.35 25.5, -5440.84 25.67, -5394.64 25.83, -5348.77 26.0, -5303.21 26.17, -5257.96 26.33, -5213.03 26.5, -5168.4 26.67, -5124.09 26.83, -5080.08 27.0, -5036.38 27.17, -4992.98 27.33, -4949.88 27.5, -4907.09 27.67, -4864.59 27.83, -4822.39 28.0, -4780.48 28.17, -4738.87 28.33, -4697.55 28.5, -4656.52 28.67, -4615.77 28.83, -4575.32 29.0, -4535.15 29.17, -4495.26 29.33, -4455.66 29.5, -4416.33 29.67, -4377.29 29.83, -4338.52 30.0, -4300.03 30.17, -4261.81 30.33, -4223.86 30.5, -4186.19 30.67, -4148.78 30.83, -4111.65 31.0, -4074.78 31.17, -4038.17 31.33, -4001.83 31.5, -3965.74 31.67, -3929.92 31.83, -3894.36 32.0, -3859.05 32.17, -3824.0 32.33, -3789.21 32.5, -3754.67 32.67, -3720.37 32.83, -3686.33 33.0, -3652.54 33.17, -3618.99 33.33, -3585.69 33.5, -3552.63 33.67, -3519.81 33.83, -3487.24 34.0, -3454.9 34.17, -3422.81 34.33, -3390.95 34.5, -3359.32 34.67, -3327.93 34.83, -3296.78 35.0, -3265.85 35.17, -3235.15 35.33, -3204.68 35.5, -3174.44 35.67, -3144.43 35.83, -3114.64 36.0, -3085.07 36.17, -3055.72 36.33, -3026.59 36.5, -2997.69 36.67, -2969.0 36.83, -2940.52 37.0, -2912.27 37.17, -2884.22 37.33, -2856.39 37.5, -2828.77 37.67, -2801.36 37.83, -2774.16 38.0, -2747.16 38.17, -2720.37 38.33, -2693.79 38.5, -2667.41 38.67, -2641.23 38.83, -2615.25 39.0, -2589.47 39.17, -2563.89 39.33, -2538.51 39.5, -2513.33 39.67, -2488.34 39.83, -2463.54 40.0, -2438.93 40.17, -2414.52 40.33, -2390.3 40.5, -2366.26 40.67, -2342.42 40.83, -2318.75 41.0, -2295.28 41.17, -2271.99 41.33, -2248.88 41.5, -2225.96 41.67, -2203.21 41.83, -2180.64 42.0, -2158.26 42.17, -2136.05 42.33, -2114.01 42.5, -2092.16 42.67, -2070.47 42.83, -2048.96 43.0, -2027.62 43.17, -2006.45 43.33, -1985.45 43.5, -1964.62 43.67, -1943.95 43.83, -1923.46 44.0, -1903.12 44.17, -1882.95 44.33, -1862.95 44.5, -1843.11 44.67, -1823.42 44.83, -1803.9 45.0, -1784.54 45.17, -1765.33 45.33, -1746.28 45.5, -1727.39 45.67, -1708.65 45.83, -1690.07 46.0, -1671.63 46.17, -1653.35 46.33, -1635.22 46.5, -1617.24 46.67, -1599.41 46.83, -1581.73 47.0, -1564.19 47.17, -1546.8 47.33, -1529.56 47.5, -1512.45 47.67, -1495.49 47.83, -1478.68 48.0, -1462.0 48.17, -1445.46 48.33, -1429.07 48.5, -1412.81 48.67, -1396.69 48.83, -1380.7 49.0, -1364.85 49.17, -1349.14 49.33, -1333.55 49.5, -1318.1 49.67, -1302.79 49.83, -1287.6 50.0, -1272.54 50.17, -1257.62 50.33, -1242.82 50.5, -1228.14 50.67, -1213.6 50.83, -1199.18 51.0, -1184.88 51.17, -1170.71 51.33, -1156.66 51.5, -1142.73 51.67, -1128.93 51.83, -1115.24 52.0, -1101.68 52.17, -1088.23 52.33, -1074.9 52.5, -1061.69 52.67, -1048.59 52.83, -1035.61 53.0, -1022.75 53.17, -1010.0 53.33, -997.36 53.5, -984.83 53.67, -972.42 53.83, -960.11 54.0, -947.92 54.17, -935.83 54.33, -923.85 54.5, -911.98 54.67, -900.22 54.83, -888.56 55.0, -877.01 55.17, -865.56 55.33, -854.22 55.5, -842.98 55.67, -831.84 55.83, -820.8 56.0, -809.86 56.17, -799.03 56.33, -788.29 56.5, -777.65 56.67, -767.11 56.83, -756.66 57.0, -746.32 57.17, -736.06 57.33, -725.91 57.5, -715.84 57.67, -705.87 57.83, -696.0 58.0, -686.21 58.17, -676.52 58.33, -666.92 58.5, -657.4 58.67, -647.98 58.83, -638.65 59.0, -629.4 59.17, -620.24 59.33, -611.17 59.5, -602.19 59.67, -593.29 59.83, -584.47 60.0, -575.74 60.17, -567.09 60.33, -558.53 60.5, -550.04 60.67, -541.64 60.83, -533.32 61.0, -525.08 61.17, -516.92 61.33, -508.84 61.5, -500.84 61.67, -492.91 61.83, -485.07 62.0, -477.3 62.17, -469.6 62.33, -461.98 62.5, -454.44 62.67, -446.97 62.83, -439.57 63.0, -432.25 63.17, -425.0 63.33, -417.82 63.5, -410.72 63.67, -403.68 63.83, -396.71 64.0, -389.82 64.17, -382.99 64.33, -376.23 64.5, -369.54 64.67, -362.92 64.83, -356.37 65.0, -349.88 65.17, -343.45 65.33, -337.1 65.5, -330.8 65.67, -324.57 65.83, -318.41 66.0, -312.31 66.17, -306.27 66.33, -300.29 66.5, -294.38 66.67, -288.52 66.83, -282.73 67.0, -277.0 67.17, -271.32 67.33, -265.71 67.5, -260.16 67.67, -254.66 67.83, -249.22 68.0, -243.84 68.17, -238.51 68.33, -233.24 68.5, -228.03 68.67, -222.87 68.83, -217.77 69.0, -212.72 69.17, -207.73 69.33, -202.78 69.5, -197.9 69.67, -193.06 69.83, -188.28 70.0, -183.55 70.17, -178.86 70.33, -174.23 70.5, -169.66 70.67, -165.13 70.83, -160.65 71.0, -156.21 71.17, -151.83 71.33, -147.5 71.5, -143.21 71.67, -138.97 71.83, -134.78 72.0, -130.63 72.17, -126.53 72.33, -122.48 72.5, -118.47 72.67, -114.51 72.83, -110.59 73.0, -106.71 73.17, -102.88 73.33, -99.09 73.5, -95.34 73.67, -91.64 73.83, -87.98 74.0, -84.36 74.17, -80.78 74.33, -77.25 74.5, -73.75 74.67, -70.29 74.83, -66.88 75.0, -63.5 75.17, -60.16 75.33, -56.86 75.5, -53.6 75.67, -50.38 75.83, -47.19 76.0, -44.04 76.17, -40.93 76.33, -37.86 76.5, -34.82 76.67, -31.82 76.83, -28.85 77.0, -25.92 77.17, -23.02 77.33, -20.16 77.5, -17.33 77.67, -14.54 77.83, -11.78 78.0, -9.05 78.17, -6.36 78.33, -3.69 78.5, -1.06 78.67, 1.53 78.83, 4.1 79.0, 6.63 79.17, 9.14 79.33, 11.61 79.5, 14.05 79.67, 16.46 79.83, 18.85 80.0, 21.2 80.17, 23.52 80.33, 25.82 80.5, 28.08 80.67, 30.32 80.83, 32.53 81.0, 34.71 81.17, 36.87 81.33, 39.0 81.5, 41.1 81.67, 43.17 81.83, 45.22 82.0, 47.24 82.17, 49.24 82.33, 51.21 82.5, 53.15 82.67, 55.07 82.83, 56.97 83.0, 58.84 83.17, 60.68 83.33, 62.5 83.5, 64.3 83.67, 66.08 83.83, 67.83 84.0, 69.56 84.17, 71.27 84.33, 72.95 84.5, 74.61 84.67, 76.25 84.83, 77.87 85.0, 79.47 85.17, 81.04 85.33, 82.59 85.5, 84.13 85.67, 85.64 85.83, 87.13 86.0, 88.6 86.17, 90.06 86.33, 91.49 86.5, 92.9 86.67, 94.3 86.83, 95.67 87.0, 97.03 87.17, 98.37 87.33, 99.68 87.5, 100.99 87.67, 102.27 87.83, 103.53 88.0, 104.78 88.17, 106.01 88.33, 107.23 88.5, 108.42 88.67, 109.6 88.83, 110.77 89.0, 111.91 89.17, 113.04 89.33, 114.16 89.5, 115.26 89.67, 116.34 89.83, 117.41 90.0, 118.46 90.17, 119.5 90.33, 120.52 90.5, 121.53 90.67, 122.53 90.83, 123.51 91.0, 124.47 91.17, 125.42 91.33, 126.36 91.5, 127.29 91.67, 128.2 91.83, 129.1 92.0, 129.98 92.17, 130.85 92.33, 131.71 92.5, 132.56 92.67, 133.39 92.83, 134.21 93.0, 135.02 93.17, 135.82 93.33, 136.61 93.5, 137.38 93.67, 138.15 93.83, 138.9 94.0, 139.64 94.17, 140.37 94.33, 141.09 94.5, 141.79 94.67, 142.49 94.83, 143.18 95.0, 143.86 95.17, 144.52 95.33, 145.18 95.5, 145.83 95.67, 146.46 95.83, 147.09 96.0, 147.71 96.17, 148.32 96.33, 148.92 96.5, 149.51 96.67, 150.09 96.83, 150.66 97.0, 151.22 97.17, 151.78 97.33, 152.33 97.5, 152.86 97.67, 153.39 97.83, 153.92 98.0, 154.43 98.17, 154.94 98.33, 155.44 98.5, 155.93 98.67, 156.41 98.83, 156.89 99.0, 157.36 99.17, 157.82 99.33, 158.27 99.5, 158.72 99.67, 159.16 99.83, 159.6 100.0, 160.03 100.17, 160.45 100.33, 160.86 100.5, 161.27 100.67, 161.67 100.83, 162.07 101.0, 162.46 101.17, 162.85 101.33, 163.22 101.5, 163.6 101.67, 163.97 101.83, 164.33 102.0, 164.68 102.17, 165.04 102.33, 165.38 102.5, 165.72 102.67, 166.06 102.83, 166.39 103.0, 166.72 103.17, 167.04 103.33, 167.35 103.5, 167.67 103.67, 167.97 103.83, 168.28 104.0, 168.57 104.17, 168.87 104.33, 169.16 104.5, 169.44 104.67, 169.73 104.83, 170.0 105.0, 170.28 105.17, 170.55 105.33, 170.82 105.5, 171.08 105.67, 171.34 105.83, 171.59 106.0, 171.85 106.17, 172.09 106.33, 172.34 106.5, 172.58 106.67, 172.82 106.83, 173.06 107.0, 173.29 107.17, 173.52 107.33, 173.75 107.5, 173.97 107.67, 174.19 107.83, 174.41 108.0, 174.63 108.17, 174.84 108.33, 175.05 108.5, 175.26 108.67, 175.46 108.83, 175.67 109.0, 175.87 109.17, 176.06 109.33, 176.26 109.5, 176.46 109.67, 176.65 109.83, 176.84 110.0, 177.03 110.17, 177.21 110.33, 177.4 110.5, 177.58 110.67, 177.76 110.83, 177.94 111.0, 178.11 111.17, 178.29 111.33, 178.46 111.5, 178.63 111.67, 178.8 111.83, 178.97 112.0, 179.14 112.17, 179.31 112.33, 179.47 112.5, 179.63 112.67, 179.79 112.83, 179.96 113.0, 180.11 113.17, 180.27 113.33, 180.43 113.5, 180.59 113.67, 180.74 113.83, 180.89 114.0, 181.05 114.17, 181.2 114.33, 181.35 114.5, 181.5 114.67, 181.65 114.83, 181.8 115.0, 181.95 115.17, 182.09 115.33, 182.24 115.5, 182.38 115.67, 182.53 115.83, 182.67 116.0, 182.82 116.17, 182.96 116.33, 183.1 116.5, 183.24 116.67, 183.38 116.83, 183.52 117.0, 183.66 117.17, 183.8 117.33, 183.94 117.5, 184.08 117.67, 184.22 117.83, 184.36 118.0, 184.5 118.17, 184.63 118.33, 184.77 118.5, 184.91 118.67, 185.05 118.83, 185.18 119.0, 185.32 119.17, 185.45 119.33, 185.59 119.5, 185.73 119.67, 185.86 119.83, 186.0 120.0, 186.13 120.17, 186.27 120.33, 186.4 120.5, 186.54 120.67, 186.68 120.83, 186.81 121.0, 186.95 121.17, 187.08 121.33, 187.22 121.5, 187.35 121.67, 187.49 121.83, 187.62 122.0, 187.76 122.17, 187.89 122.33, 188.03 122.5, 188.17 122.67, 188.3 122.83, 188.44 123.0, 188.58 123.17, 188.71 123.33, 188.85 123.5, 188.99 123.67, 189.12 123.83, 189.26 124.0, 189.4 124.17, 189.53 124.33, 189.67 124.5, 189.81 124.67, 189.95 124.83, 190.09 125.0, 190.23 125.17, 190.37 125.33, 190.5 125.5, 190.64 125.67, 190.78 125.83, 190.92 126.0, 191.06 126.17, 191.2 126.33, 191.35 126.5, 191.49 126.67, 191.63 126.83, 191.77 127.0, 191.91 127.17, 192.05 127.33, 192.2 127.5, 192.34 127.67, 192.48 127.83, 192.62 128.0, 192.77 128.17, 192.91 128.33, 193.06 128.5, 193.2 128.67, 193.35 128.83, 193.49 129.0, 193.64 129.17, 193.78 129.33, 193.93 129.5, 194.07 129.67, 194.22 129.83, 194.37 130.0, 194.51 130.17, 194.66 130.33, 194.81 130.5, 194.96 130.67, 195.1 130.83, 195.25 131.0, 195.4 131.17, 195.55 131.33, 195.7 131.5, 195.85 131.67, 196.0 131.83, 196.15 132.0, 196.3 132.17, 196.45 132.33, 196.6 132.5, 196.75 132.67, 196.9 132.83, 197.05 133.0, 197.2 133.17, 197.36 133.33, 197.51 133.5, 197.66 133.67, 197.81 133.83, 197.96 134.0, 198.12 134.17, 198.27 134.33, 198.42 134.5, 198.58 134.67, 198.73 134.83, 198.88 135.0, 199.04 135.17, 199.19 135.33, 199.34 135.5, 199.5 135.67, 199.65 135.83, 199.81 136.0, 199.96 136.17, 200.11 136.33, 200.27 136.5, 200.42 136.67, 200.58 136.83, 200.73 137.0, 200.89 137.17, 201.04 137.33, 201.2 137.5, 201.35 137.67, 201.5 137.83, 201.66 138.0, 201.81 138.17, 201.97 138.33, 202.12 138.5, 202.28 138.67, 202.43 138.83, 202.59 139.0, 202.74 139.17, 202.9 139.33, 203.05 139.5, 203.2 139.67, 203.36 139.83, 203.51 140.0, 203.67 140.17, 203.82 140.33, 203.97 140.5, 204.13 140.67, 204.28 140.83, 204.43 141.0, 204.59 141.17, 204.74 141.33, 204.89 141.5, 205.04 141.67, 205.19 141.83, 205.35 142.0, 205.5 142.17, 205.65 142.33, 205.8 142.5, 205.95 142.67, 206.1 142.83, 206.25 143.0, 206.4 143.17, 206.55 143.33, 206.7 143.5, 206.85 143.67, 207.0 143.83, 207.15 144.0, 207.29 144.17, 207.44 144.33, 207.59 144.5, 207.74 144.67, 207.88 144.83, 208.03 145.0, 208.17 145.17, 208.32 145.33, 208.46 145.5, 208.61 145.67, 208.75 145.83, 208.89 146.0, 209.04 146.17, 209.18 146.33, 209.32 146.5, 209.46 146.67, 209.6 146.83, 209.74 147.0, 209.88 147.17, 210.02 147.33, 210.16 147.5, 210.3 147.67, 210.43 147.83, 210.57 148.0, 210.71 148.17, 210.84 148.33, 210.98 148.5, 211.11 148.67, 211.24 148.83, 211.38 149.0, 211.51 149.17, 211.64 149.33, 211.77 149.5, 211.9 149.67, 212.03 149.83, 212.16 150.0, 212.29 150.17, 212.41 150.33, 212.54 150.5, 212.66 150.67, 212.79 150.83, 212.91 151.0, 213.04 151.17, 213.16 151.33, 213.28 151.5, 213.4 151.67, 213.52 151.83, 213.64 152.0, 213.76 152.17, 213.88 152.33, 213.99 152.5, 214.11 152.67, 214.22 152.83, 214.34 153.0, 214.45 153.17, 214.56 153.33, 214.67 153.5, 214.78 153.67, 214.89 153.83, 215.0 154.0, 215.11 154.17, 215.21 154.33, 215.32 154.5, 215.42 154.67, 215.53 154.83, 215.63 155.0, 215.73 155.17, 215.83 155.33, 215.93 155.5, 216.03 155.67, 216.13 155.83, 216.22 156.0, 216.32 156.17, 216.41 156.33, 216.5 156.5, 216.6 156.67, 216.69 156.83, 216.78 157.0, 216.87 157.17, 216.95 157.33, 217.04 157.5, 217.12 157.67, 217.21 157.83, 217.29 158.0, 217.37 158.17, 217.45 158.33, 217.53 158.5, 217.61 158.67, 217.69 158.83, 217.77 159.0, 217.84 159.17, 217.92 159.33, 217.99 159.5, 218.06 159.67, 218.13 159.83, 218.2 160.0, 218.27 160.17, 218.33 160.33, 218.4 160.5, 218.46 160.67, 218.53 160.83, 218.59 161.0, 218.65 161.17, 218.71 161.33, 218.77 161.5, 218.82 161.67, 218.88 161.83, 218.93 162.0, 218.98 162.17, 219.04 162.33, 219.09 162.5, 219.14 162.67, 219.18 162.83, 219.23 163.0, 219.27 163.17, 219.32 163.33, 219.36 163.5, 219.4 163.67, 219.44 163.83, 219.48 164.0, 219.52 164.17, 219.55 164.33, 219.59 164.5, 219.62 164.67, 219.65 164.83, 219.68 165.0, 219.71 165.17, 219.74 165.33, 219.77 165.5, 219.79 165.67, 219.82 165.83, 219.84 166.0, 219.86 166.17, 219.88 166.33, 219.9 166.5, 219.92 166.67, 219.93 166.83, 219.95 167.0, 219.96 167.17, 219.97 167.33, 219.98 167.5, 219.99 167.67, 220.0 167.83, 220.01 168.0, 220.01 168.17, 220.01 168.33, 220.02 168.5, 220.02 168.67, 220.02 168.83, 220.01 169.0, 220.01 169.17, 220.01 169.33, 220.0 169.5, 219.99 169.67, 219.98 169.83, 219.97 170.0, 219.96 170.17, 219.95 170.33, 219.93 170.5, 219.92 170.67, 219.9 170.83, 219.88 171.0, 219.86 171.17, 219.84 171.33, 219.82 171.5, 219.8 171.67, 219.77 171.83, 219.74 172.0, 219.72 172.17, 219.69 172.33, 219.66 172.5, 219.62 172.67, 219.59 172.83, 219.56 173.0, 219.52 173.17, 219.48 173.33, 219.44 173.5, 219.4 173.67, 219.36 173.83, 219.32 174.0, 219.28 174.17, 219.23 174.33, 219.18 174.5, 219.14 174.67, 219.09 174.83, 219.04 175.0, 218.98 175.17, 218.93 175.33, 218.88 175.5, 218.82 175.67, 218.76 175.83, 218.7 176.0, 218.64 176.17, 218.58 176.33, 218.52 176.5, 218.46 176.67, 218.39 176.83, 218.32 177.0, 218.26 177.17, 218.19 177.33, 218.12 177.5, 218.05 177.67, 217.97 177.83, 217.9 178.0, 217.83 178.17, 217.75 178.33, 217.67 178.5, 217.59 178.67, 217.51 178.83, 217.43 179.0, 217.35 179.17, 217.27 179.33, 217.18 179.5, 217.1 179.67, 217.01 179.83, 216.92 180.0, 216.83 180.17, 216.74 180.33, 216.65 180.5, 216.55 180.67, 216.46 180.83, 216.37 181.0, 216.27 181.17, 216.17 181.33, 216.07 181.5, 215.97 181.67, 215.87 181.83, 215.77 182.0, 215.67 182.17, 215.56 182.33, 215.46 182.5, 215.35 182.67, 215.24 182.83, 215.14 183.0, 215.03 183.17, 214.92 183.33, 214.8 183.5, 214.69 183.67, 214.58 183.83, 214.46 184.0, 214.35 184.17, 214.23 184.33, 214.11 184.5, 213.99 184.67, 213.87 184.83, 213.75 185.0, 213.63 185.17, 213.51 185.33, 213.39 185.5, 213.26 185.67, 213.14 185.83, 213.01 186.0, 212.88 186.17, 212.76 186.33, 212.63 186.5, 212.5 186.67, 212.37 186.83, 212.24 187.0, 212.1 187.17, 211.97 187.33, 211.84 187.5, 211.7 187.67, 211.57 187.83, 211.43 188.0, 211.29 188.17, 211.15 188.33, 211.02 188.5, 210.88 188.67, 210.74 188.83, 210.6 189.0, 210.45 189.17, 210.31 189.33, 210.17 189.5, 210.02 189.67, 209.88 189.83, 209.73 190.0, 209.59 190.17, 209.44 190.33, 209.29 190.5, 209.15 190.67, 209.0 190.83, 208.85 191.0, 208.7 191.17, 208.55 191.33, 208.4 191.5, 208.25 191.67, 208.09 191.83, 207.94 192.0, 207.79 192.17, 207.63 192.33, 207.48 192.5, 207.33 192.67, 207.17 192.83, 207.01 193.0, 206.86 193.17, 206.7 193.33, 206.54 193.5, 206.39 193.67, 206.23 193.83, 206.07 194.0, 205.91 194.17, 205.75 194.33, 205.59 194.5, 205.43 194.67, 205.27 194.83, 205.11 195.0, 204.95 195.17, 204.79 195.33, 204.62 195.5, 204.46 195.67, 204.3 195.83, 204.14 196.0, 203.97 196.17, 203.81 196.33, 203.65 196.5, 203.48 196.67, 203.32 196.83, 203.15 197.0, 202.99 197.17, 202.82 197.33, 202.66 197.5, 202.49 197.67, 202.33 197.83, 202.16 198.0, 202.0 198.17, 201.83 198.33, 201.66 198.5, 201.5 198.67, 201.33 198.83, 201.17 199.0, 201.0 199.17, 200.83 199.33, 200.67 199.5, 200.5 199.67, 200.33 199.83, 200.17 200.0, 200.0 200.17, 199.83 200.33, 199.67 200.5, 199.5 200.67, 199.33 200.83, 199.17 201.0, 199.0 201.17, 198.83 201.33, 198.67 201.5, 198.5 201.67, 198.34 201.83, 198.17 202.0, 198.0 202.17, 197.84 202.33, 197.67 202.5, 197.51 202.67, 197.34 202.83, 197.18 203.0, 197.01 203.17, 196.85 203.33, 196.68 203.5, 196.52 203.67, 196.35 203.83, 196.19 204.0, 196.03 204.17, 195.86 204.33, 195.7 204.5, 195.54 204.67, 195.38 204.83, 195.21 205.0, 195.05 205.17, 194.89 205.33, 194.73 205.5, 194.57 205.67, 194.41 205.83, 194.25 206.0, 194.09 206.17, 193.93 206.33, 193.77 206.5, 193.61 206.67, 193.46 206.83, 193.3 207.0, 193.14 207.17, 192.99 207.33, 192.83 207.5, 192.67 207.67, 192.52 207.83, 192.37 208.0, 192.21 208.17, 192.06 208.33, 191.91 208.5, 191.75 208.67, 191.6 208.83, 191.45 209.0, 191.3 209.17, 191.15 209.33, 191.0 209.5, 190.85 209.67, 190.71 209.83, 190.56 210.0, 190.41 210.17, 190.27 210.33, 190.12 210.5, 189.98 210.67, 189.83 210.83, 189.69 211.0, 189.55 211.17, 189.4 211.33, 189.26 211.5, 189.12 211.67, 188.98 211.83, 188.85 212.0, 188.71 212.17, 188.57 212.33, 188.43 212.5, 188.3 212.67, 188.16 212.83, 188.03 213.0, 187.9 213.17, 187.76 213.33, 187.63 213.5, 187.5 213.67, 187.37 213.83, 187.24 214.0, 187.12 214.17, 186.99 214.33, 186.86 214.5, 186.74 214.67, 186.61 214.83, 186.49 215.0, 186.37 215.17, 186.25 215.33, 186.13 215.5, 186.01 215.67, 185.89 215.83, 185.77 216.0, 185.65 216.17, 185.54 216.33, 185.42 216.5, 185.31 216.67, 185.2 216.83, 185.08 217.0, 184.97 217.17, 184.86 217.33, 184.76 217.5, 184.65 217.67, 184.54 217.83, 184.44 218.0, 184.33 218.17, 184.23 218.33, 184.13 218.5, 184.03 218.67, 183.93 218.83, 183.83 219.0, 183.73 219.17, 183.63 219.33, 183.54 219.5, 183.45 219.67, 183.35 219.83, 183.26 220.0, 183.17 220.17, 183.08 220.33, 182.99 220.5, 182.9 220.67, 182.82 220.83, 182.73 221.0, 182.65 221.17, 182.57 221.33, 182.49 221.5, 182.41 221.67, 182.33 221.83, 182.25 222.0, 182.17 222.17, 182.1 222.33, 182.03 222.5, 181.95 222.67, 181.88 222.83, 181.81 223.0, 181.74 223.17, 181.68 223.33, 181.61 223.5, 181.54 223.67, 181.48 223.83, 181.42 224.0, 181.36 224.17, 181.3 224.33, 181.24 224.5, 181.18 224.67, 181.12 224.83, 181.07 225.0, 181.02 225.17, 180.96 225.33, 180.91 225.5, 180.86 225.67, 180.82 225.83, 180.77 226.0, 180.72 226.17, 180.68 226.33, 180.64 226.5, 180.6 226.67, 180.56 226.83, 180.52 227.0, 180.48 227.17, 180.44 227.33, 180.41 227.5, 180.38 227.67, 180.34 227.83, 180.31 228.0, 180.28 228.17, 180.26 228.33, 180.23 228.5, 180.2 228.67, 180.18 228.83, 180.16 229.0, 180.14 229.17, 180.12 229.33, 180.1 229.5, 180.08 229.67, 180.07 229.83, 180.05 230.0, 180.04 230.17, 180.03 230.33, 180.02 230.5, 180.01 230.67, 180.0 230.83, 179.99 231.0, 179.99 231.17, 179.99 231.33, 179.98 231.5, 179.98 231.67, 179.98 231.83, 179.99 232.0, 179.99 232.17, 179.99 232.33, 180.0 232.5, 180.01 232.67, 180.02 232.83, 180.03 233.0, 180.04 233.17, 180.05 233.33, 180.07 233.5, 180.08 233.67, 180.1 233.83, 180.12 234.0, 180.14 234.17, 180.16 234.33, 180.18 234.5, 180.21 234.67, 180.23 234.83, 180.26 235.0, 180.29 235.17, 180.32 235.33, 180.35 235.5, 180.38 235.67, 180.41 235.83, 180.45 236.0, 180.48 236.17, 180.52 236.33, 180.56 236.5, 180.6 236.67, 180.64 236.83, 180.68 237.0, 180.73 237.17, 180.77 237.33, 180.82 237.5, 180.86 237.67, 180.91 237.83, 180.96 238.0, 181.02 238.17, 181.07 238.33, 181.12 238.5, 181.18 238.67, 181.23 238.83, 181.29 239.0, 181.35 239.17, 181.41 239.33, 181.47 239.5, 181.54 239.67, 181.6 239.83, 181.67 240.0, 181.73 240.17, 181.8 240.33, 181.87 240.5, 181.94 240.67, 182.01 240.83, 182.08 241.0, 182.16 241.17, 182.23 241.33, 182.31 241.5, 182.39 241.67, 182.47 241.83, 182.55 242.0, 182.63 242.17, 182.71 242.33, 182.79 242.5, 182.88 242.67, 182.96 242.83, 183.05 243.0, 183.13 243.17, 183.22 243.33, 183.31 243.5, 183.4 243.67, 183.5 243.83, 183.59 244.0, 183.68 244.17, 183.78 244.33, 183.87 244.5, 183.97 244.67, 184.07 244.83, 184.17 245.0, 184.27 245.17, 184.37 245.33, 184.47 245.5, 184.58 245.67, 184.68 245.83, 184.79 246.0, 184.89 246.17, 185.0 246.33, 185.11 246.5, 185.22 246.67, 185.33 246.83, 185.44 247.0, 185.55 247.17, 185.66 247.33, 185.78 247.5, 185.89 247.67, 186.01 247.83, 186.12 248.0, 186.24 248.17, 186.36 248.33, 186.48 248.5, 186.6 248.67, 186.72 248.83, 186.84 249.0, 186.96 249.17, 187.09 249.33, 187.21 249.5, 187.34 249.67, 187.46 249.83, 187.59 250.0, 187.71 250.17, 187.84 250.33, 187.97 250.5, 188.1 250.67, 188.23 250.83, 188.36 251.0, 188.49 251.17, 188.62 251.33, 188.76 251.5, 188.89 251.67, 189.02 251.83, 189.16 252.0, 189.29 252.17, 189.43 252.33, 189.57 252.5, 189.7 252.67, 189.84 252.83, 189.98 253.0, 190.12 253.17, 190.26 253.33, 190.4 253.5, 190.54 253.67, 190.68 253.83, 190.82 254.0, 190.96 254.17, 191.11 254.33, 191.25 254.5, 191.39 254.67, 191.54 254.83, 191.68 255.0, 191.83 255.17, 191.97 255.33, 192.12 255.5, 192.26 255.67, 192.41 255.83, 192.56 256.0, 192.71 256.17, 192.85 256.33, 193.0 256.5, 193.15 256.67, 193.3 256.83, 193.45 257.0, 193.6 257.17, 193.75 257.33, 193.9 257.5, 194.05 257.67, 194.2 257.83, 194.35 258.0, 194.5 258.17, 194.65 258.33, 194.81 258.5, 194.96 258.67, 195.11 258.83, 195.26 259.0, 195.41 259.17, 195.57 259.33, 195.72 259.5, 195.87 259.67, 196.03 259.83, 196.18 260.0, 196.33 260.17, 196.49 260.33, 196.64 260.5, 196.8 260.67, 196.95 260.83, 197.1 261.0, 197.26 261.17, 197.41 261.33, 197.57 261.5, 197.72 261.67, 197.88 261.83, 198.03 262.0, 198.19 262.17, 198.34 262.33, 198.5 262.5, 198.65 262.67, 198.8 262.83, 198.96 263.0, 199.11 263.17, 199.27 263.33, 199.42 263.5, 199.58 263.67, 199.73 263.83, 199.89 264.0, 200.04 264.17, 200.19 264.33, 200.35 264.5, 200.5 264.67, 200.66 264.83, 200.81 265.0, 200.96 265.17, 201.12 265.33, 201.27 265.5, 201.42 265.67, 201.58 265.83, 201.73 266.0, 201.88 266.17, 202.04 266.33, 202.19 266.5, 202.34 266.67, 202.49 266.83, 202.64 267.0, 202.8 267.17, 202.95 267.33, 203.1 267.5, 203.25 267.67, 203.4 267.83, 203.55 268.0, 203.7 268.17, 203.85 268.33, 204.0 268.5, 204.15 268.67, 204.3 268.83, 204.45 269.0, 204.6 269.17, 204.75 269.33, 204.9 269.5, 205.04 269.67, 205.19 269.83, 205.34 270.0, 205.49 270.17, 205.63 270.33, 205.78 270.5, 205.93 270.67, 206.07 270.83, 206.22 271.0, 206.36 271.17, 206.51 271.33, 206.65 271.5, 206.8 271.67, 206.94 271.83, 207.09 272.0, 207.23 272.17, 207.38 272.33, 207.52 272.5, 207.66 272.67, 207.8 272.83, 207.95 273.0, 208.09 273.17, 208.23 273.33, 208.37 273.5, 208.51 273.67, 208.65 273.83, 208.8 274.0, 208.94 274.17, 209.08 274.33, 209.22 274.5, 209.36 274.67, 209.5 274.83, 209.63 275.0, 209.77 275.17, 209.91 275.33, 210.05 275.5, 210.19 275.67, 210.33 275.83, 210.47 276.0, 210.6 276.17, 210.74 276.33, 210.88 276.5, 211.01 276.67, 211.15 276.83, 211.29 277.0, 211.42 277.17, 211.56 277.33, 211.7 277.5, 211.83 277.67, 211.97 277.83, 212.11 278.0, 212.24 278.17, 212.38 278.33, 212.51 278.5, 212.65 278.67, 212.78 278.83, 212.92 279.0, 213.05 279.17, 213.19 279.33, 213.32 279.5, 213.46 279.67, 213.6 279.83, 213.73 280.0, 213.87 280.17, 214.0 280.33, 214.14 280.5, 214.27 280.67, 214.41 280.83, 214.55 281.0, 214.68 281.17, 214.82 281.33, 214.95 281.5, 215.09 281.67, 215.23 281.83, 215.37 282.0, 215.5 282.17, 215.64 282.33, 215.78 282.5, 215.92 282.67, 216.06 282.83, 216.2 283.0, 216.34 283.17, 216.48 283.33, 216.62 283.5, 216.76 283.67, 216.9 283.83, 217.04 284.0, 217.18 284.17, 217.33 284.33, 217.47 284.5, 217.62 284.67, 217.76 284.83, 217.91 285.0, 218.05 285.17, 218.2 285.33, 218.35 285.5, 218.5 285.67, 218.65 285.83, 218.8 286.0, 218.95 286.17, 219.11 286.33, 219.26 286.5, 219.41 286.67, 219.57 286.83, 219.73 287.0, 219.89 287.17, 220.04 287.33, 220.21 287.5, 220.37 287.67, 220.53 287.83, 220.69 288.0, 220.86 288.17, 221.03 288.33, 221.2 288.5, 221.37 288.67, 221.54 288.83, 221.71 289.0, 221.89 289.17, 222.06 289.33, 222.24 289.5, 222.42 289.67, 222.6 289.83, 222.79 290.0, 222.97 290.17, 223.16 290.33, 223.35 290.5, 223.54 290.67, 223.74 290.83, 223.94 291.0, 224.13 291.17, 224.33 291.33, 224.54 291.5, 224.74 291.67, 224.95 291.83, 225.16 292.0, 225.37 292.17, 225.59 292.33, 225.81 292.5, 226.03 292.67, 226.25 292.83, 226.48 293.0, 226.71 293.17, 226.94 293.33, 227.18 293.5, 227.42 293.67, 227.66 293.83, 227.91 294.0, 228.15 294.17, 228.41 294.33, 228.66 294.5, 228.92 294.67, 229.18 294.83, 229.45 295.0, 229.72 295.17, 230.0 295.33, 230.27 295.5, 230.56 295.67, 230.84 295.83, 231.13 296.0, 231.43 296.17, 231.72 296.33, 232.03 296.5, 232.33 296.67, 232.65 296.83, 232.96 297.0, 233.28 297.17, 233.61 297.33, 233.94 297.5, 234.28 297.67, 234.62 297.83, 234.96 298.0, 235.32 298.17, 235.67 298.33, 236.03 298.5, 236.4 298.67, 236.78 298.83, 237.15 299.0, 237.54 299.17, 237.93 299.33, 238.33 299.5, 238.73 299.67, 239.14 299.83, 239.55 300.0, 239.97 300.17, 240.4 300.33, 240.84 300.5, 241.28 300.67, 241.73 300.83, 242.18 301.0, 242.64 301.17, 243.11 301.33, 243.59 301.5, 244.07 301.67, 244.56 301.83, 245.06 302.0, 245.57 302.17, 246.08 302.33, 246.61 302.5, 247.14 302.67, 247.67 302.83, 248.22 303.0, 248.78 303.17, 249.34 303.33, 249.91 303.5, 250.49 303.67, 251.08 303.83, 251.68 304.0, 252.29 304.17, 252.91 304.33, 253.54 304.5, 254.17 304.67, 254.82 304.83, 255.48 305.0, 256.14 305.17, 256.82 305.33, 257.51 305.5, 258.21 305.67, 258.91 305.83, 259.63 306.0, 260.36 306.17, 261.1 306.33, 261.85 306.5, 262.62 306.67, 263.39 306.83, 264.18 307.0, 264.98 307.17, 265.79 307.33, 266.61 307.5, 267.44 307.67, 268.29 307.83, 269.15 308.0, 270.02 308.17, 270.9 308.33, 271.8 308.5, 272.71 308.67, 273.64 308.83, 274.58 309.0, 275.53 309.17, 276.49 309.33, 277.47 309.5, 278.47 309.67, 279.48 309.83, 280.5 310.0, 281.54 310.17, 282.59 310.33, 283.66 310.5, 284.74 310.67, 285.84 310.83, 286.96 311.0, 288.09 311.17, 289.23 311.33, 290.4 311.5, 291.58 311.67, 292.77 311.83, 293.99 312.0, 295.22 312.17, 296.47 312.33, 297.73 312.5, 299.01 312.67, 300.32 312.83, 301.63 313.0, 302.97 313.17, 304.33 313.33, 305.7 313.5, 307.1 313.67, 308.51 313.83, 309.94 314.0, 311.4 314.17, 312.87 314.33, 314.36 314.5, 315.87 314.67, 317.41 314.83, 318.96 315.0, 320.53 315.17, 322.13 315.33, 323.75 315.5, 325.39 315.67, 327.05 315.83, 328.73 316.0, 330.44 316.17, 332.17 316.33, 333.92 316.5, 335.7 316.67, 337.5 316.83, 339.32 317.0, 341.16 317.17, 343.03 317.33, 344.93 317.5, 346.85 317.67, 348.79 317.83, 350.76 318.0, 352.76 318.17, 354.78 318.33, 356.83 318.5, 358.9 318.67, 361.0 318.83, 363.13 319.0, 365.29 319.17, 367.47 319.33, 369.68 319.5, 371.92 319.67, 374.18 319.83, 376.48 320.0, 378.8 320.17, 381.15 320.33, 383.54 320.5, 385.95 320.67, 388.39 320.83, 390.86 321.0, 393.37 321.17, 395.9 321.33, 398.47 321.5, 401.06 321.67, 403.69 321.83, 406.36 322.0, 409.05 322.17, 411.78 322.33, 414.54 322.5, 417.33 322.67, 420.16 322.83, 423.02 323.0, 425.92 323.17, 428.85 323.33, 431.82 323.5, 434.82 323.67, 437.86 323.83, 440.93 324.0, 444.04 324.17, 447.19 324.33, 450.38 324.5, 453.6 324.67, 456.86 324.83, 460.16 325.0, 463.5 325.17, 466.88 325.33, 470.29 325.5, 473.75 325.67, 477.25 325.83, 480.78 326.0, 484.36 326.17, 487.98 326.33, 491.64 326.5, 495.34 326.67, 499.09 326.83, 502.88 327.0, 506.71 327.17, 510.59 327.33, 514.51 327.5, 518.47 327.67, 522.48 327.83, 526.53 328.0, 530.63 328.17, 534.78 328.33, 538.97 328.5, 543.21 328.67, 547.5 328.83, 551.83 329.0, 556.21 329.17, 560.65 329.33, 565.13 329.5, 569.66 329.67, 574.23 329.83, 578.86 330.0, 583.55 330.17, 588.28 330.33, 593.06 330.5, 597.9 330.67, 602.78 330.83, 607.73 331.0, 612.72 331.17, 617.77 331.33, 622.87 331.5, 628.03 331.67, 633.24 331.83, 638.51 332.0, 643.84 332.17, 649.22 332.33, 654.66 332.5, 660.16 332.67, 665.71 332.83, 671.32 333.0, 677.0 333.17, 682.73 333.33, 688.52 333.5, 694.38 333.67, 700.29 333.83, 706.27 334.0, 712.31 334.17, 718.41 334.33, 724.57 334.5, 730.8 334.67, 737.1 334.83, 743.45 335.0, 749.88 335.17, 756.37 335.33, 762.92 335.5, 769.54 335.67, 776.23 335.83, 782.99 336.0, 789.82 336.17, 796.71 336.33, 803.68 336.5, 810.72 336.67, 817.82 336.83, 825.0 337.0, 832.25 337.17, 839.57 337.33, 846.97 337.5, 854.44 337.67, 861.98 337.83, 869.6 338.0, 877.3 338.17, 885.07 338.33, 892.91 338.5, 900.84 338.67, 908.84 338.83, 916.92 339.0, 925.08 339.17, 933.32 339.33, 941.64 339.5, 950.04 339.67, 958.53 339.83, 967.09 340.0, 975.74 340.17, 984.47 340.33, 993.29 340.5, 1002.19 340.67, 1011.17 340.83, 1020.24 341.0, 1029.4 341.17, 1038.65 341.33, 1047.98 341.5, 1057.4 341.67, 1066.92 341.83, 1076.52 342.0, 1086.21 342.17, 1096.0 342.33, 1105.87 342.5, 1115.84 342.67, 1125.91 342.83, 1136.06 343.0, 1146.32 343.17, 1156.66 343.33, 1167.11 343.5, 1177.65 343.67, 1188.29 343.83, 1199.03 344.0, 1209.86 344.17, 1220.8 344.33, 1231.84 344.5, 1242.98 344.67, 1254.22 344.83, 1265.56 345.0, 1277.01 345.17, 1288.56 345.33, 1300.22 345.5, 1311.98 345.67, 1323.85 345.83, 1335.83 346.0, 1347.92 346.17, 1360.11 346.33, 1372.42 346.5, 1384.83 346.67, 1397.36 346.83, 1410.0 347.0, 1422.75 347.17, 1435.61 347.33, 1448.59 347.5, 1461.69 347.67, 1474.9 347.83, 1488.23 348.0, 1501.68 348.17, 1515.24 348.33, 1528.93 348.5, 1542.73 348.67, 1556.66 348.83, 1570.71 349.0, 1584.88 349.17, 1599.18 349.33, 1613.6 349.5, 1628.14 349.67, 1642.82 349.83, 1657.62 350.0, 1672.54 350.17, 1687.6 350.33, 1702.79 350.5, 1718.1 350.67, 1733.55 350.83, 1749.14 351.0, 1764.85 351.17, 1780.7 351.33, 1796.69 351.5, 1812.81 351.67, 1829.07 351.83, 1845.46 352.0, 1862.0 352.17, 1878.68 352.33, 1895.49 352.5, 1912.45 352.67, 1929.56 352.83, 1946.8 353.0, 1964.19 353.17, 1981.73 353.33, 1999.41 353.5, 2017.24 353.67, 2035.22 353.83, 2053.35 354.0, 2071.63 354.17, 2090.07 354.33, 2108.65 354.5, 2127.39 354.67, 2146.28 354.83, 2165.33 355.0, 2184.54 355.17, 2203.9 355.33, 2223.42 355.5, 2243.11 355.67, 2262.95 355.83, 2282.95 356.0, 2303.12 356.17, 2323.46 356.33, 2343.95 356.5, 2364.62 356.67, 2385.45 356.83, 2406.45 357.0, 2427.62 357.17, 2448.96 357.33, 2470.47 357.5, 2492.16 357.67, 2514.01 357.83, 2536.05 358.0, 2558.26 358.17, 2580.64 358.33, 2603.21 358.5, 2625.96 358.67, 2648.88 358.83, 2671.99 359.0, 2695.28 359.17, 2718.75 359.33, 2742.42 359.5, 2766.26 359.67, 2790.3 359.83, 2814.52 360.0, 2838.93 360.17, 2863.54 360.33, 2888.34 360.5, 2913.33 360.67, 2938.51 360.83, 2963.89 361.0, 2989.47 361.17, 3015.25 361.33, 3041.23 361.5, 3067.41 361.67, 3093.79 361.83, 3120.37 362.0, 3147.16 362.17, 3174.16 362.33, 3201.36 362.5, 3228.77 362.67, 3256.39 362.83, 3284.22 363.0, 3312.27 363.17, 3340.52 363.33, 3369.0 363.5, 3397.69 363.67, 3426.59 363.83, 3455.72 364.0, 3485.07 364.17, 3514.64 364.33, 3544.43 364.5, 3574.44 364.67, 3604.68 364.83, 3635.15 365.0, 3665.85 365.17, 3696.78 365.33, 3727.93 365.5, 3759.32 365.67, 3790.95 365.83, 3822.81 366.0, 3854.9 366.17, 3887.24 366.33, 3919.81 366.5, 3952.63 366.67, 3985.69 366.83, 4018.99 367.0, 4052.54 367.17, 4086.33 367.33, 4120.37 367.5, 4154.67 367.67, 4189.21 367.83, 4224.0 368.0, 4259.05 368.17, 4294.36 368.33, 4329.92 368.5, 4365.74 368.67, 4401.83 368.83, 4438.17 369.0, 4474.78 369.17, 4511.65 369.33, 4548.78 369.5, 4586.19 369.67, 4623.86 369.83, 4661.81 370.0, 4700.03 370.17, 4738.52 370.33, 4777.29 370.5, 4816.33 370.67, 4855.66 370.83, 4895.26 371.0, 4935.15 371.17, 4975.32 371.33, 5015.77 371.5, 5056.52 371.67, 5097.55 371.83, 5138.87 372.0, 5180.48 372.17, 5222.39 372.33, 5264.59 372.5, 5307.09 372.67, 5349.88 372.83, 5392.98 373.0, 5436.38 373.17, 5480.08 373.33, 5524.09 373.5, 5568.4 373.67, 5613.03 373.83, 5657.96 374.0, 5703.21 374.17, 5748.77 374.33, 5794.64 374.5, 5840.84 374.67, 5887.35 374.83, 5934.18 375.0, 5981.34 375.17, 6028.82 375.33, 6076.63 375.5, 6124.76 375.67, 6173.23 375.83, 6222.02 376.0, 6271.15 376.17, 6320.62 376.33, 6370.42 376.5, 6420.57 376.67, 6471.05 376.83, 6521.88 377.0, 6573.05 377.17, 6624.57 377.33, 6676.43 377.5, 6728.65 377.67, 6781.22 377.83, 6834.14 378.0, 6887.42 378.17, 6941.06 378.33, 6995.06 378.5, 7049.42 378.67, 7104.14 378.83, 7159.23 379.0, 7214.69 379.17, 7270.52 379.33, 7326.72 379.5, 7383.29 379.67, 7440.24 379.83, 7497.57 380.0, 7555.28 380.17, 7613.37 380.33, 7671.84 380.5, 7730.7 380.67, 7789.95 380.83, 7849.59 381.0, 7909.62 381.17, 7970.04 381.33, 8030.86 381.5, 8092.08 381.67, 8153.7 381.83, 8215.72 382.0, 8278.15 382.17, 8340.98 382.33, 8404.23 382.5, 8467.88 382.67, 8531.95 382.83, 8596.43 383.0, 8661.34 383.17, 8726.66 383.33, 8792.4 383.5, 8858.57 383.67, 8925.16 383.83, 8992.19 384.0, 9059.64 384.17, 9127.53 384.33, 9195.85 384.5, 9264.61 384.67, 9333.81 384.83, 9403.46 385.0, 9473.54 385.17, 9544.08 385.33, 9615.06 385.5, 9686.5 385.67, 9758.39 385.83, 9830.73 386.0, 9903.54 386.17, 9976.8 386.33, 10050.53 386.5, 10124.72 386.67, 10199.38 386.83, 10274.51 387.0, 10350.12 387.17, 10426.2 387.33, 10502.75 387.5, 10579.79 387.67, 10657.31 387.83, 10735.31 388.0, 10813.8 388.17, 10892.79 388.33, 10972.26 388.5, 11052.23 388.67, 11132.69 388.83, 11213.65 389.0, 11295.12 389.17, 11377.09 389.33, 11459.57 389.5, 11542.56 389.67, 11626.06 389.83, 11710.08 390.0, 11794.61 390.17, 11879.66 390.33, 11965.24 390.5, 12051.34 390.67, 12137.97 390.83, 12225.12 391.0, 12312.82 391.17, 12401.04 391.33, 12489.81 391.5, 12579.12 391.67, 12668.97 391.83, 12759.36 392.0, 12850.31 392.17, 12941.81 392.33, 13033.86 392.5, 13126.47 392.67, 13219.64 392.83, 13313.37 393.0, 13407.66 393.17, 13502.53 393.33, 13597.97 393.5, 13693.97 393.67, 13790.56 393.83, 13887.73 394.0, 13985.47 394.17, 14083.81 394.33, 14182.73 394.5, 14282.24 394.67, 14382.34 394.83, 14483.04 395.0, 14584.34 395.17, 14686.24 395.33, 14788.75 395.5, 14891.86 395.67, 14995.59 395.83, 15099.93 396.0, 15204.88 396.17, 15310.46 396.33, 15416.66 396.5, 15523.48 396.67, 15630.93 396.83, 15739.02 397.0, 15847.73 397.17, 15957.09 397.33, 16067.09 397.5, 16177.73 397.67, 16289.01 397.83, 16400.95 398.0, 16513.54 398.17, 16626.78 398.33, 16740.69 398.5, 16855.25 398.67, 16970.49 398.83, 17086.39 399.0, 17202.96 399.17, 17320.2 399.33, 17438.13 399.5, 17556.73 399.67, 17676.02 399.83, 17796.0 400.0, 17916.67 " fill="none" stroke="white" stroke-width="1.5" stroke-linejoin="round" stroke-opacity="1"/>

 </svg>