<svg version="1.1" 
 baseProfile="full" 
 width="400" 
 height="400" 
 xmlns="http://www.w3.org/2000/svg">
<rect x="0.0" y="0.0" width="400" height="400" fill="black" stroke="black" stroke-width="0" opacity="1"/>
<line x1="0.0" y1="0.0" x2="0.0" y2="400.0" stroke="white" stroke-width="1" opacity="0.4" stroke-linecap="butt"/>
<line x1="40.0" y1="0.0" x2="40.0" y2="400.0" stroke="white" stroke-width="1" opacity="0.4" stroke-linecap="butt"/>
<line x1="80.0" y1="0.0" x2="80.0" y2="400.0" stroke="white" stroke-width="1" opacity="0.4" stroke-linecap="butt"/>
<line x1="120.0" y1="0.0" x2="120.0" y2="400.0" stroke="white" stroke-width="1" opacity="0.4" stroke-linecap="butt"/>
<line x1="160.0" y1="0.0" x2="160.0" y2="400.0" stroke="white" stroke-width="1" opacity="0.4" stroke-linecap="butt"/>
<line x1="200.0" y1="0.0" x2="200.0" y2="400.0" stroke="white" stroke-width="1" opacity="0.4" stroke-linecap="butt"/>
<line x1="240.0" y1="0.0" x2="240.0" y2="400.0" stroke="white" stroke-width="1" opacity="0.4" stroke-linecap="butt"/>
<line x1="280.0" y1="0.0" x2="280.0" y2="400.0" stroke="white" stroke-width="1" opacity="0.4" stroke-linecap="butt"/>
<line x1="320.0" y1="0.0" x2="320.0" y2="400.0" stroke="white" stroke-width="1" opacity="0.4" stroke-linecap="butt"/>
<line x1="360.0" y1="0.0" x2="360.0" y2="400.0" stroke="white" stroke-width="1" opacity="0.4" stroke-linecap="butt"/>
<line x1="0.0" y1="0.0" x2="400.0" y2="0.0" stroke="white" stroke-width="1" opacity="0.4" stroke-linecap="butt"/>
<line x1="0.0" y1="40.0" x2="400.0" y2="40.0" stroke="white" stroke-width="1" opacity="0.4" stroke-linecap="butt"/>
<line x1="0.0" y1="80.0" x2="400.0" y2="80.0" stroke="white" stroke-width="1" opacity="0.4" stroke-linecap="butt"/>
<line x1="0.0" y1="120.0" x2="400.0" y2="120.0" stroke="white" stroke-width="1" opacity="0.4" stroke-linecap="butt"/>
<line x1="0.0" y1="160.0" x2="400.0" y2="160.0" stroke="white" stroke-width="1" opacity="0.4" stroke-linecap="butt"/>
<line x1="0.0" y1="200.0" x2="400.0" y2="200.0" stroke="white" stroke-width="1" opacity="0.4" stroke-linecap="butt"/>
<line x1="0.0" y1="240.0" x2="400.0" y2="240.0" stroke="white" stroke-width="1" opacity="0.4" stroke-linecap="butt"/>
<line x1="0.0" y1="280.0" x2="400.0" y2="280.0" stroke="white" stroke-width="1" opacity="0.4" stroke-linecap="butt"/>
<line x1="0.0" y1="320.0" x2="400.0" y2="320.0" stroke="white" stroke-width="1" opacity="0.4" stroke-linecap="butt"/>
<line x1="0.0" y1="360.0" x2="400.0" y2="360.0" stroke="white" stroke-width="1" opacity="0.4" stroke-linecap="butt"/>
<line x1="0.0" y1="200.0" x2="400.0" y2="200.0" stroke="yellow" stroke-width="2.5" opacity="1" stroke-linecap="butt"/>
<line x1="200.0" y1="0.0" x2="200.0" y2="400.0" stroke="yellow" stroke-width="2.5" opacity="1" stroke-linecap="butt"/>
<polygon points="391.0 204.0, 401.0 200.0, 391.0 196.0, 393.0 200.0" fill="yellow"/><polygon points="204.0 9.0, 200.0 -1.0, 196.0 9.0, 200.0 7.0" fill="yellow"/><image x="-60.0" y="-60.0" width="200" height="200" href="/Users/girirajhira/PycharmProjects/Giraphics3/Taylor/expr.png"/><polyline points="0.0, -19500.79 0.17, -19368.58 0.33, -19237.12 0.5, -19106.4 0.67, -18976.42 0.83, -18847.18 1.0, -18718.67 1.17, -18590.9 1.33, -18463.85 1.5, -18337.53 1.67, -18211.93 1.83, -18087.04 2.0, -17962.87 2.17, -17839.42 2.33, -17716.66 2.5, -17594.62 2.67, -17473.27 2.83, -17352.62 3.0, -17232.67 3.17, -17113.41 3.33, -16994.84 3.5, -16876.95 3.67, -16759.74 3.83, -16643.21 4.0, -16527.35 4.17, -16412.17 4.33, -16297.66 4.5, -16183.81 4.67, -16070.62 4.83, -15958.1 5.0, -15846.23 5.17, -15735.01 5.33, -15624.44 5.5, -15514.52 5.67, -15405.25 5.83, -15296.61 6.0, -15188.61 6.17, -15081.25 6.33, -14974.52 6.5, -14868.42 6.67, -14762.94 6.83, -14658.08 7.0, -14553.85 7.17, -14450.23 7.33, -14347.22 7.5, -14244.83 7.67, -14143.04 7.83, -14041.86 8.0, -13941.28 8.17, -13841.29 8.33, -13741.91 8.5, -13643.12 8.67, -13544.91 8.83, -13447.3 9.0, -13350.27 9.17, -13253.82 9.33, -13157.95 9.5, -13062.65 9.67, -12967.93 9.83, -12873.78 10.0, -12780.2 10.17, -12687.18 10.33, -12594.72 10.5, -12502.83 10.67, -12411.49 10.83, -12320.7 11.0, -12230.46 11.17, -12140.77 11.33, -12051.63 11.5, -11963.03 11.67, -11874.97 11.83, -11787.45 12.0, -11700.47 12.17, -11614.01 12.33, -11528.09 12.5, -11442.69 12.67, -11357.82 12.83, -11273.46 13.0, -11189.63 13.17, -11106.31 13.33, -11023.51 13.5, -10941.22 13.67, -10859.44 13.83, -10778.16 14.0, -10697.39 14.17, -10617.12 14.33, -10537.34 14.5, -10458.06 14.67, -10379.28 14.83, -10300.99 15.0, -10223.18 15.17, -10145.87 15.33, -10069.03 15.5, -9992.68 15.67, -9916.8 15.83, -9841.4 16.0, -9766.48 16.17, -9692.03 16.33, -9618.04 16.5, -9544.52 16.67, -9471.47 16.83, -9398.88 17.0, -9326.75 17.17, -9255.07 17.33, -9183.85 17.5, -9113.08 17.67, -9042.76 17.83, -8972.89 18.0, -8903.47 18.17, -8834.49 18.33, -8765.95 18.5, -8697.84 18.67, -8630.18 18.83, -8562.94 19.0, -8496.14 19.17, -8429.77 19.33, -8363.83 19.5, -8298.31 19.67, -8233.21 19.83, -8168.54 20.0, -8104.28 20.17, -8040.44 20.33, -7977.01 20.5, -7914.0 20.67, -7851.39 20.83, -7789.19 21.0, -7727.4 21.17, -7666.01 21.33, -7605.02 21.5, -7544.43 21.67, -7484.23 21.83, -7424.44 22.0, -7365.03 22.17, -7306.01 22.33, -7247.39 22.5, -7189.14 22.67, -7131.29 22.83, -7073.81 23.0, -7016.72 23.17, -6960.0 23.33, -6903.66 23.5, -6847.69 23.67, -6792.1 23.83, -6736.87 24.0, -6682.02 24.17, -6627.53 24.33, -6573.4 24.5, -6519.64 24.67, -6466.23 24.83, -6413.19 25.0, -6360.5 25.17, -6308.16 25.33, -6256.18 25.5, -6204.54 25.67, -6153.26 25.83, -6102.32 26.0, -6051.73 26.17, -6001.48 26.33, -5951.57 26.5, -5902.0 26.67, -5852.76 26.83, -5803.87 27.0, -5755.3 27.17, -5707.07 27.33, -5659.17 27.5, -5611.59 27.67, -5564.34 27.83, -5517.42 28.0, -5470.81 28.17, -5424.53 28.33, -5378.57 28.5, -5332.92 28.67, -5287.59 28.83, -5242.58 29.0, -5197.87 29.17, -5153.48 29.33, -5109.39 29.5, -5065.61 29.67, -5022.14 29.83, -4978.96 30.0, -4936.09 30.17, -4893.52 30.33, -4851.25 30.5, -4809.28 30.67, -4767.59 30.83, -4726.21 31.0, -4685.11 31.17, -4644.3 31.33, -4603.78 31.5, -4563.55 31.67, -4523.6 31.83, -4483.93 32.0, -4444.55 32.17, -4405.45 32.33, -4366.62 32.5, -4328.07 32.67, -4289.8 32.83, -4251.8 33.0, -4214.07 33.17, -4176.61 33.33, -4139.42 33.5, -4102.5 33.67, -4065.84 33.83, -4029.45 34.0, -3993.32 34.17, -3957.45 34.33, -3921.84 34.5, -3886.49 34.67, -3851.39 34.83, -3816.55 35.0, -3781.96 35.17, -3747.63 35.33, -3713.54 35.5, -3679.71 35.67, -3646.12 35.83, -3612.78 36.0, -3579.68 36.17, -3546.83 36.33, -3514.21 36.5, -3481.84 36.67, -3449.71 36.83, -3417.81 37.0, -3386.15 37.17, -3354.72 37.33, -3323.53 37.5, -3292.57 37.67, -3261.84 37.83, -3231.34 38.0, -3201.06 38.17, -3171.02 38.33, -3141.19 38.5, -3111.59 38.67, -3082.22 38.83, -3053.06 39.0, -3024.12 39.17, -2995.4 39.33, -2966.9 39.5, -2938.62 39.67, -2910.54 39.83, -2882.68 40.0, -2855.03 40.17, -2827.6 40.33, -2800.37 40.5, -2773.35 40.67, -2746.53 40.83, -2719.92 41.0, -2693.51 41.17, -2667.31 41.33, -2641.31 41.5, -2615.51 41.67, -2589.9 41.83, -2564.5 42.0, -2539.29 42.17, -2514.27 42.33, -2489.45 42.5, -2464.82 42.67, -2440.39 42.83, -2416.14 43.0, -2392.08 43.17, -2368.22 43.33, -2344.53 43.5, -2321.04 43.67, -2297.72 43.83, -2274.59 44.0, -2251.65 44.17, -2228.88 44.33, -2206.29 44.5, -2183.88 44.67, -2161.65 44.83, -2139.6 45.0, -2117.72 45.17, -2096.01 45.33, -2074.48 45.5, -2053.12 45.67, -2031.93 45.83, -2010.91 46.0, -1990.06 46.17, -1969.37 46.33, -1948.85 46.5, -1928.5 46.67, -1908.31 46.83, -1888.28 47.0, -1868.42 47.17, -1848.72 47.33, -1829.17 47.5, -1809.79 47.67, -1790.56 47.83, -1771.49 48.0, -1752.58 48.17, -1733.82 48.33, -1715.22 48.5, -1696.76 48.67, -1678.46 48.83, -1660.31 49.0, -1642.31 49.17, -1624.46 49.33, -1606.75 49.5, -1589.2 49.67, -1571.78 49.83, -1554.52 50.0, -1537.39 50.17, -1520.41 50.33, -1503.57 50.5, -1486.87 50.67, -1470.32 50.83, -1453.9 51.0, -1437.62 51.17, -1421.47 51.33, -1405.46 51.5, -1389.59 51.67, -1373.85 51.83, -1358.25 52.0, -1342.77 52.17, -1327.43 52.33, -1312.22 52.5, -1297.14 52.67, -1282.19 52.83, -1267.37 53.0, -1252.67 53.17, -1238.1 53.33, -1223.65 53.5, -1209.33 53.67, -1195.14 53.83, -1181.06 54.0, -1167.11 54.17, -1153.28 54.33, -1139.57 54.5, -1125.98 54.67, -1112.5 54.83, -1099.15 55.0, -1085.91 55.17, -1072.79 55.33, -1059.78 55.5, -1046.89 55.67, -1034.11 55.83, -1021.44 56.0, -1008.88 56.17, -996.44 56.33, -984.11 56.5, -971.88 56.67, -959.77 56.83, -947.76 57.0, -935.86 57.17, -924.07 57.33, -912.38 57.5, -900.8 57.67, -889.32 57.83, -877.94 58.0, -866.67 58.17, -855.5 58.33, -844.43 58.5, -833.46 58.67, -822.59 58.83, -811.82 59.0, -801.15 59.17, -790.58 59.33, -780.1 59.5, -769.72 59.67, -759.43 59.83, -749.24 60.0, -739.14 60.17, -729.14 60.33, -719.22 60.5, -709.4 60.67, -699.67 60.83, -690.04 61.0, -680.49 61.17, -671.03 61.33, -661.66 61.5, -652.37 61.67, -643.18 61.83, -634.07 62.0, -625.04 62.17, -616.1 62.33, -607.25 62.5, -598.48 62.67, -589.79 62.83, -581.19 63.0, -572.66 63.17, -564.22 63.33, -555.86 63.5, -547.58 63.67, -539.38 63.83, -531.26 64.0, -523.21 64.17, -515.24 64.33, -507.35 64.5, -499.54 64.67, -491.8 64.83, -484.14 65.0, -476.55 65.17, -469.04 65.33, -461.6 65.5, -454.23 65.67, -446.94 65.83, -439.71 66.0, -432.56 66.17, -425.48 66.33, -418.47 66.5, -411.52 66.67, -404.65 66.83, -397.84 67.0, -391.11 67.17, -384.44 67.33, -377.83 67.5, -371.3 67.67, -364.82 67.83, -358.42 68.0, -352.07 68.17, -345.8 68.33, -339.58 68.5, -333.43 68.67, -327.34 68.83, -321.31 69.0, -315.35 69.17, -309.44 69.33, -303.6 69.5, -297.81 69.67, -292.09 69.83, -286.42 70.0, -280.81 70.17, -275.26 70.33, -269.77 70.5, -264.33 70.67, -258.95 70.83, -253.63 71.0, -248.36 71.17, -243.15 71.33, -237.99 71.5, -232.89 71.67, -227.84 71.83, -222.84 72.0, -217.9 72.17, -213.0 72.33, -208.16 72.5, -203.37 72.67, -198.64 72.83, -193.95 73.0, -189.31 73.17, -184.72 73.33, -180.19 73.5, -175.7 73.67, -171.25 73.83, -166.86 74.0, -162.51 74.17, -158.22 74.33, -153.96 74.5, -149.76 74.67, -145.6 74.83, -141.48 75.0, -137.41 75.17, -133.39 75.33, -129.41 75.5, -125.47 75.67, -121.58 75.83, -117.72 76.0, -113.92 76.17, -110.15 76.33, -106.43 76.5, -102.74 76.67, -99.1 76.83, -95.5 77.0, -91.94 77.17, -88.42 77.33, -84.94 77.5, -81.5 77.67, -78.1 77.83, -74.73 78.0, -71.41 78.17, -68.12 78.33, -64.87 78.5, -61.65 78.67, -58.48 78.83, -55.34 79.0, -52.23 79.17, -49.16 79.33, -46.13 79.5, -43.13 79.67, -40.17 79.83, -37.24 80.0, -34.34 80.17, -31.48 80.33, -28.65 80.5, -25.86 80.67, -23.1 80.83, -20.37 81.0, -17.67 81.17, -15.0 81.33, -12.37 81.5, -9.76 81.67, -7.19 81.83, -4.65 82.0, -2.14 82.17, 0.34 82.33, 2.8 82.5, 5.22 82.67, 7.61 82.83, 9.98 83.0, 12.31 83.17, 14.62 83.33, 16.9 83.5, 19.16 83.67, 21.38 83.83, 23.58 84.0, 25.75 84.17, 27.9 84.33, 30.01 84.5, 32.11 84.67, 34.17 84.83, 36.22 85.0, 38.23 85.17, 40.22 85.33, 42.19 85.5, 44.13 85.67, 46.05 85.83, 47.95 86.0, 49.82 86.17, 51.66 86.33, 53.49 86.5, 55.29 86.67, 57.07 86.83, 58.83 87.0, 60.56 87.17, 62.27 87.33, 63.96 87.5, 65.63 87.67, 67.28 87.83, 68.91 88.0, 70.51 88.17, 72.1 88.33, 73.67 88.5, 75.21 88.67, 76.74 88.83, 78.24 89.0, 79.73 89.17, 81.2 89.33, 82.65 89.5, 84.08 89.67, 85.49 89.83, 86.88 90.0, 88.26 90.17, 89.61 90.33, 90.95 90.5, 92.27 90.67, 93.58 90.83, 94.87 91.0, 96.14 91.17, 97.39 91.33, 98.63 91.5, 99.85 91.67, 101.05 91.83, 102.24 92.0, 103.41 92.17, 104.57 92.33, 105.71 92.5, 106.84 92.67, 107.95 92.83, 109.05 93.0, 110.13 93.17, 111.2 93.33, 112.26 93.5, 113.29 93.67, 114.32 93.83, 115.33 94.0, 116.33 94.17, 117.32 94.33, 118.29 94.5, 119.25 94.67, 120.19 94.83, 121.12 95.0, 122.04 95.17, 122.95 95.33, 123.85 95.5, 124.73 95.67, 125.6 95.83, 126.46 96.0, 127.31 96.17, 128.15 96.33, 128.97 96.5, 129.78 96.67, 130.59 96.83, 131.38 97.0, 132.16 97.17, 132.93 97.33, 133.69 97.5, 134.44 97.67, 135.18 97.83, 135.91 98.0, 136.63 98.17, 137.33 98.33, 138.03 98.5, 138.72 98.67, 139.4 98.83, 140.08 99.0, 140.74 99.17, 141.39 99.33, 142.04 99.5, 142.67 99.67, 143.3 99.83, 143.92 100.0, 144.53 100.17, 145.13 100.33, 145.72 100.5, 146.3 100.67, 146.88 100.83, 147.45 101.0, 148.01 101.17, 148.57 101.33, 149.11 101.5, 149.65 101.67, 150.18 101.83, 150.71 102.0, 151.23 102.17, 151.74 102.33, 152.24 102.5, 152.74 102.67, 153.23 102.83, 153.71 103.0, 154.19 103.17, 154.66 103.33, 155.13 103.5, 155.59 103.67, 156.04 103.83, 156.49 104.0, 156.93 104.17, 157.36 104.33, 157.79 104.5, 158.21 104.67, 158.63 104.83, 159.05 105.0, 159.45 105.17, 159.86 105.33, 160.25 105.5, 160.65 105.67, 161.03 105.83, 161.42 106.0, 161.79 106.17, 162.17 106.33, 162.53 106.5, 162.9 106.67, 163.26 106.83, 163.61 107.0, 163.96 107.17, 164.31 107.33, 164.65 107.5, 164.99 107.67, 165.32 107.83, 165.65 108.0, 165.98 108.17, 166.3 108.33, 166.62 108.5, 166.93 108.67, 167.24 108.83, 167.55 109.0, 167.86 109.17, 168.16 109.33, 168.45 109.5, 168.75 109.67, 169.04 109.83, 169.33 110.0, 169.61 110.17, 169.89 110.33, 170.17 110.5, 170.45 110.67, 170.72 110.83, 170.99 111.0, 171.26 111.17, 171.52 111.33, 171.78 111.5, 172.04 111.67, 172.3 111.83, 172.55 112.0, 172.8 112.17, 173.05 112.33, 173.3 112.5, 173.55 112.67, 173.79 112.83, 174.03 113.0, 174.27 113.17, 174.5 113.33, 174.74 113.5, 174.97 113.67, 175.2 113.83, 175.43 114.0, 175.65 114.17, 175.88 114.33, 176.1 114.5, 176.32 114.67, 176.54 114.83, 176.76 115.0, 176.98 115.17, 177.19 115.33, 177.4 115.5, 177.62 115.67, 177.83 115.83, 178.03 116.0, 178.24 116.17, 178.45 116.33, 178.65 116.5, 178.85 116.67, 179.06 116.83, 179.26 117.0, 179.46 117.17, 179.66 117.33, 179.85 117.5, 180.05 117.67, 180.24 117.83, 180.44 118.0, 180.63 118.17, 180.82 118.33, 181.02 118.5, 181.21 118.67, 181.4 118.83, 181.58 119.0, 181.77 119.17, 181.96 119.33, 182.15 119.5, 182.33 119.67, 182.52 119.83, 182.7 120.0, 182.88 120.17, 183.07 120.33, 183.25 120.5, 183.43 120.67, 183.61 120.83, 183.79 121.0, 183.97 121.17, 184.15 121.33, 184.33 121.5, 184.5 121.67, 184.68 121.83, 184.86 122.0, 185.04 122.17, 185.21 122.33, 185.39 122.5, 185.56 122.67, 185.74 122.83, 185.91 123.0, 186.09 123.17, 186.26 123.33, 186.44 123.5, 186.61 123.67, 186.78 123.83, 186.95 124.0, 187.13 124.17, 187.3 124.33, 187.47 124.5, 187.64 124.67, 187.81 124.83, 187.99 125.0, 188.16 125.17, 188.33 125.33, 188.5 125.5, 188.67 125.67, 188.84 125.83, 189.01 126.0, 189.18 126.17, 189.35 126.33, 189.52 126.5, 189.69 126.67, 189.86 126.83, 190.03 127.0, 190.2 127.17, 190.37 127.33, 190.54 127.5, 190.71 127.67, 190.88 127.83, 191.04 128.0, 191.21 128.17, 191.38 128.33, 191.55 128.5, 191.72 128.67, 191.89 128.83, 192.06 129.0, 192.23 129.17, 192.39 129.33, 192.56 129.5, 192.73 129.67, 192.9 129.83, 193.07 130.0, 193.24 130.17, 193.41 130.33, 193.57 130.5, 193.74 130.67, 193.91 130.83, 194.08 131.0, 194.25 131.17, 194.42 131.33, 194.58 131.5, 194.75 131.67, 194.92 131.83, 195.09 132.0, 195.26 132.17, 195.42 132.33, 195.59 132.5, 195.76 132.67, 195.93 132.83, 196.1 133.0, 196.26 133.17, 196.43 133.33, 196.6 133.5, 196.77 133.67, 196.94 133.83, 197.1 134.0, 197.27 134.17, 197.44 134.33, 197.61 134.5, 197.77 134.67, 197.94 134.83, 198.11 135.0, 198.28 135.17, 198.44 135.33, 198.61 135.5, 198.78 135.67, 198.94 135.83, 199.11 136.0, 199.28 136.17, 199.44 136.33, 199.61 136.5, 199.78 136.67, 199.94 136.83, 200.11 137.0, 200.28 137.17, 200.44 137.33, 200.61 137.5, 200.77 137.67, 200.94 137.83, 201.1 138.0, 201.27 138.17, 201.43 138.33, 201.6 138.5, 201.76 138.67, 201.93 138.83, 202.09 139.0, 202.25 139.17, 202.42 139.33, 202.58 139.5, 202.74 139.67, 202.91 139.83, 203.07 140.0, 203.23 140.17, 203.39 140.33, 203.56 140.5, 203.72 140.67, 203.88 140.83, 204.04 141.0, 204.2 141.17, 204.36 141.33, 204.52 141.5, 204.68 141.67, 204.84 141.83, 205.0 142.0, 205.16 142.17, 205.31 142.33, 205.47 142.5, 205.63 142.67, 205.79 142.83, 205.94 143.0, 206.1 143.17, 206.25 143.33, 206.41 143.5, 206.56 143.67, 206.72 143.83, 206.87 144.0, 207.03 144.17, 207.18 144.33, 207.33 144.5, 207.48 144.67, 207.64 144.83, 207.79 145.0, 207.94 145.17, 208.09 145.33, 208.24 145.5, 208.39 145.67, 208.53 145.83, 208.68 146.0, 208.83 146.17, 208.98 146.33, 209.12 146.5, 209.27 146.67, 209.41 146.83, 209.56 147.0, 209.7 147.17, 209.84 147.33, 209.98 147.5, 210.13 147.67, 210.27 147.83, 210.41 148.0, 210.55 148.17, 210.69 148.33, 210.82 148.5, 210.96 148.67, 211.1 148.83, 211.23 149.0, 211.37 149.17, 211.5 149.33, 211.64 149.5, 211.77 149.67, 211.9 149.83, 212.03 150.0, 212.16 150.17, 212.29 150.33, 212.42 150.5, 212.55 150.67, 212.68 150.83, 212.81 151.0, 212.93 151.17, 213.06 151.33, 213.18 151.5, 213.3 151.67, 213.43 151.83, 213.55 152.0, 213.67 152.17, 213.79 152.33, 213.9 152.5, 214.02 152.67, 214.14 152.83, 214.26 153.0, 214.37 153.17, 214.48 153.33, 214.6 153.5, 214.71 153.67, 214.82 153.83, 214.93 154.0, 215.04 154.17, 215.15 154.33, 215.25 154.5, 215.36 154.67, 215.47 154.83, 215.57 155.0, 215.67 155.17, 215.77 155.33, 215.87 155.5, 215.97 155.67, 216.07 155.83, 216.17 156.0, 216.27 156.17, 216.36 156.33, 216.46 156.5, 216.55 156.67, 216.64 156.83, 216.73 157.0, 216.82 157.17, 216.91 157.33, 217.0 157.5, 217.09 157.67, 217.17 157.83, 217.26 158.0, 217.34 158.17, 217.42 158.33, 217.5 158.5, 217.58 158.67, 217.66 158.83, 217.74 159.0, 217.81 159.17, 217.89 159.33, 217.96 159.5, 218.03 159.67, 218.1 159.83, 218.17 160.0, 218.24 160.17, 218.31 160.33, 218.37 160.5, 218.44 160.67, 218.5 160.83, 218.57 161.0, 218.63 161.17, 218.69 161.33, 218.74 161.5, 218.8 161.67, 218.86 161.83, 218.91 162.0, 218.97 162.17, 219.02 162.33, 219.07 162.5, 219.12 162.67, 219.17 162.83, 219.21 163.0, 219.26 163.17, 219.3 163.33, 219.35 163.5, 219.39 163.67, 219.43 163.83, 219.47 164.0, 219.51 164.17, 219.54 164.33, 219.58 164.5, 219.61 164.67, 219.64 164.83, 219.67 165.0, 219.7 165.17, 219.73 165.33, 219.76 165.5, 219.78 165.67, 219.81 165.83, 219.83 166.0, 219.85 166.17, 219.87 166.33, 219.89 166.5, 219.91 166.67, 219.93 166.83, 219.94 167.0, 219.95 167.17, 219.97 167.33, 219.98 167.5, 219.99 167.67, 219.99 167.83, 220.0 168.0, 220.01 168.17, 220.01 168.33, 220.01 168.5, 220.01 168.67, 220.01 168.83, 220.01 169.0, 220.01 169.17, 220.0 169.33, 220.0 169.5, 219.99 169.67, 219.98 169.83, 219.97 170.0, 219.96 170.17, 219.95 170.33, 219.93 170.5, 219.92 170.67, 219.9 170.83, 219.88 171.0, 219.86 171.17, 219.84 171.33, 219.82 171.5, 219.79 171.67, 219.77 171.83, 219.74 172.0, 219.71 172.17, 219.69 172.33, 219.65 172.5, 219.62 172.67, 219.59 172.83, 219.55 173.0, 219.52 173.17, 219.48 173.33, 219.44 173.5, 219.4 173.67, 219.36 173.83, 219.32 174.0, 219.27 174.17, 219.23 174.33, 219.18 174.5, 219.13 174.67, 219.09 174.83, 219.03 175.0, 218.98 175.17, 218.93 175.33, 218.87 175.5, 218.82 175.67, 218.76 175.83, 218.7 176.0, 218.64 176.17, 218.58 176.33, 218.52 176.5, 218.46 176.67, 218.39 176.83, 218.32 177.0, 218.26 177.17, 218.19 177.33, 218.12 177.5, 218.05 177.67, 217.97 177.83, 217.9 178.0, 217.83 178.17, 217.75 178.33, 217.67 178.5, 217.59 178.67, 217.51 178.83, 217.43 179.0, 217.35 179.17, 217.27 179.33, 217.18 179.5, 217.09 179.67, 217.01 179.83, 216.92 180.0, 216.83 180.17, 216.74 180.33, 216.65 180.5, 216.55 180.67, 216.46 180.83, 216.37 181.0, 216.27 181.17, 216.17 181.33, 216.07 181.5, 215.97 181.67, 215.87 181.83, 215.77 182.0, 215.67 182.17, 215.56 182.33, 215.46 182.5, 215.35 182.67, 215.24 182.83, 215.14 183.0, 215.03 183.17, 214.92 183.33, 214.8 183.5, 214.69 183.67, 214.58 183.83, 214.46 184.0, 214.35 184.17, 214.23 184.33, 214.11 184.5, 213.99 184.67, 213.87 184.83, 213.75 185.0, 213.63 185.17, 213.51 185.33, 213.39 185.5, 213.26 185.67, 213.14 185.83, 213.01 186.0, 212.88 186.17, 212.76 186.33, 212.63 186.5, 212.5 186.67, 212.37 186.83, 212.24 187.0, 212.1 187.17, 211.97 187.33, 211.84 187.5, 211.7 187.67, 211.57 187.83, 211.43 188.0, 211.29 188.17, 211.15 188.33, 211.02 188.5, 210.88 188.67, 210.74 188.83, 210.6 189.0, 210.45 189.17, 210.31 189.33, 210.17 189.5, 210.02 189.67, 209.88 189.83, 209.73 190.0, 209.59 190.17, 209.44 190.33, 209.29 190.5, 209.15 190.67, 209.0 190.83, 208.85 191.0, 208.7 191.17, 208.55 191.33, 208.4 191.5, 208.25 191.67, 208.09 191.83, 207.94 192.0, 207.79 192.17, 207.63 192.33, 207.48 192.5, 207.33 192.67, 207.17 192.83, 207.01 193.0, 206.86 193.17, 206.7 193.33, 206.54 193.5, 206.39 193.67, 206.23 193.83, 206.07 194.0, 205.91 194.17, 205.75 194.33, 205.59 194.5, 205.43 194.67, 205.27 194.83, 205.11 195.0, 204.95 195.17, 204.79 195.33, 204.62 195.5, 204.46 195.67, 204.3 195.83, 204.14 196.0, 203.97 196.17, 203.81 196.33, 203.65 196.5, 203.48 196.67, 203.32 196.83, 203.15 197.0, 202.99 197.17, 202.82 197.33, 202.66 197.5, 202.49 197.67, 202.33 197.83, 202.16 198.0, 202.0 198.17, 201.83 198.33, 201.66 198.5, 201.5 198.67, 201.33 198.83, 201.17 199.0, 201.0 199.17, 200.83 199.33, 200.67 199.5, 200.5 199.67, 200.33 199.83, 200.17 200.0, 200.0 200.17, 199.83 200.33, 199.67 200.5, 199.5 200.67, 199.33 200.83, 199.17 201.0, 199.0 201.17, 198.83 201.33, 198.67 201.5, 198.5 201.67, 198.34 201.83, 198.17 202.0, 198.0 202.17, 197.84 202.33, 197.67 202.5, 197.51 202.67, 197.34 202.83, 197.18 203.0, 197.01 203.17, 196.85 203.33, 196.68 203.5, 196.52 203.67, 196.35 203.83, 196.19 204.0, 196.03 204.17, 195.86 204.33, 195.7 204.5, 195.54 204.67, 195.38 204.83, 195.21 205.0, 195.05 205.17, 194.89 205.33, 194.73 205.5, 194.57 205.67, 194.41 205.83, 194.25 206.0, 194.09 206.17, 193.93 206.33, 193.77 206.5, 193.61 206.67, 193.46 206.83, 193.3 207.0, 193.14 207.17, 192.99 207.33, 192.83 207.5, 192.67 207.67, 192.52 207.83, 192.37 208.0, 192.21 208.17, 192.06 208.33, 191.91 208.5, 191.75 208.67, 191.6 208.83, 191.45 209.0, 191.3 209.17, 191.15 209.33, 191.0 209.5, 190.85 209.67, 190.71 209.83, 190.56 210.0, 190.41 210.17, 190.27 210.33, 190.12 210.5, 189.98 210.67, 189.83 210.83, 189.69 211.0, 189.55 211.17, 189.4 211.33, 189.26 211.5, 189.12 211.67, 188.98 211.83, 188.85 212.0, 188.71 212.17, 188.57 212.33, 188.43 212.5, 188.3 212.67, 188.16 212.83, 188.03 213.0, 187.9 213.17, 187.76 213.33, 187.63 213.5, 187.5 213.67, 187.37 213.83, 187.24 214.0, 187.12 214.17, 186.99 214.33, 186.86 214.5, 186.74 214.67, 186.61 214.83, 186.49 215.0, 186.37 215.17, 186.25 215.33, 186.13 215.5, 186.01 215.67, 185.89 215.83, 185.77 216.0, 185.65 216.17, 185.54 216.33, 185.42 216.5, 185.31 216.67, 185.2 216.83, 185.08 217.0, 184.97 217.17, 184.86 217.33, 184.76 217.5, 184.65 217.67, 184.54 217.83, 184.44 218.0, 184.33 218.17, 184.23 218.33, 184.13 218.5, 184.03 218.67, 183.93 218.83, 183.83 219.0, 183.73 219.17, 183.63 219.33, 183.54 219.5, 183.45 219.67, 183.35 219.83, 183.26 220.0, 183.17 220.17, 183.08 220.33, 182.99 220.5, 182.91 220.67, 182.82 220.83, 182.73 221.0, 182.65 221.17, 182.57 221.33, 182.49 221.5, 182.41 221.67, 182.33 221.83, 182.25 222.0, 182.17 222.17, 182.1 222.33, 182.03 222.5, 181.95 222.67, 181.88 222.83, 181.81 223.0, 181.74 223.17, 181.68 223.33, 181.61 223.5, 181.54 223.67, 181.48 223.83, 181.42 224.0, 181.36 224.17, 181.3 224.33, 181.24 224.5, 181.18 224.67, 181.13 224.83, 181.07 225.0, 181.02 225.17, 180.97 225.33, 180.91 225.5, 180.87 225.67, 180.82 225.83, 180.77 226.0, 180.73 226.17, 180.68 226.33, 180.64 226.5, 180.6 226.67, 180.56 226.83, 180.52 227.0, 180.48 227.17, 180.45 227.33, 180.41 227.5, 180.38 227.67, 180.35 227.83, 180.31 228.0, 180.29 228.17, 180.26 228.33, 180.23 228.5, 180.21 228.67, 180.18 228.83, 180.16 229.0, 180.14 229.17, 180.12 229.33, 180.1 229.5, 180.08 229.67, 180.07 229.83, 180.05 230.0, 180.04 230.17, 180.03 230.33, 180.02 230.5, 180.01 230.67, 180.0 230.83, 180.0 231.0, 179.99 231.17, 179.99 231.33, 179.99 231.5, 179.99 231.67, 179.99 231.83, 179.99 232.0, 179.99 232.17, 180.0 232.33, 180.01 232.5, 180.01 232.67, 180.02 232.83, 180.03 233.0, 180.05 233.17, 180.06 233.33, 180.07 233.5, 180.09 233.67, 180.11 233.83, 180.13 234.0, 180.15 234.17, 180.17 234.33, 180.19 234.5, 180.22 234.67, 180.24 234.83, 180.27 235.0, 180.3 235.17, 180.33 235.33, 180.36 235.5, 180.39 235.67, 180.42 235.83, 180.46 236.0, 180.49 236.17, 180.53 236.33, 180.57 236.5, 180.61 236.67, 180.65 236.83, 180.7 237.0, 180.74 237.17, 180.79 237.33, 180.83 237.5, 180.88 237.67, 180.93 237.83, 180.98 238.0, 181.03 238.17, 181.09 238.33, 181.14 238.5, 181.2 238.67, 181.26 238.83, 181.31 239.0, 181.37 239.17, 181.43 239.33, 181.5 239.5, 181.56 239.67, 181.63 239.83, 181.69 240.0, 181.76 240.17, 181.83 240.33, 181.9 240.5, 181.97 240.67, 182.04 240.83, 182.11 241.0, 182.19 241.17, 182.26 241.33, 182.34 241.5, 182.42 241.67, 182.5 241.83, 182.58 242.0, 182.66 242.17, 182.74 242.33, 182.83 242.5, 182.91 242.67, 183.0 242.83, 183.09 243.0, 183.18 243.17, 183.27 243.33, 183.36 243.5, 183.45 243.67, 183.54 243.83, 183.64 244.0, 183.73 244.17, 183.83 244.33, 183.93 244.5, 184.03 244.67, 184.13 244.83, 184.23 245.0, 184.33 245.17, 184.43 245.33, 184.53 245.5, 184.64 245.67, 184.75 245.83, 184.85 246.0, 184.96 246.17, 185.07 246.33, 185.18 246.5, 185.29 246.67, 185.4 246.83, 185.52 247.0, 185.63 247.17, 185.74 247.33, 185.86 247.5, 185.98 247.67, 186.1 247.83, 186.21 248.0, 186.33 248.17, 186.45 248.33, 186.57 248.5, 186.7 248.67, 186.82 248.83, 186.94 249.0, 187.07 249.17, 187.19 249.33, 187.32 249.5, 187.45 249.67, 187.58 249.83, 187.71 250.0, 187.84 250.17, 187.97 250.33, 188.1 250.5, 188.23 250.67, 188.36 250.83, 188.5 251.0, 188.63 251.17, 188.77 251.33, 188.9 251.5, 189.04 251.67, 189.18 251.83, 189.31 252.0, 189.45 252.17, 189.59 252.33, 189.73 252.5, 189.87 252.67, 190.02 252.83, 190.16 253.0, 190.3 253.17, 190.44 253.33, 190.59 253.5, 190.73 253.67, 190.88 253.83, 191.02 254.0, 191.17 254.17, 191.32 254.33, 191.47 254.5, 191.61 254.67, 191.76 254.83, 191.91 255.0, 192.06 255.17, 192.21 255.33, 192.36 255.5, 192.52 255.67, 192.67 255.83, 192.82 256.0, 192.97 256.17, 193.13 256.33, 193.28 256.5, 193.44 256.67, 193.59 256.83, 193.75 257.0, 193.9 257.17, 194.06 257.33, 194.21 257.5, 194.37 257.67, 194.53 257.83, 194.69 258.0, 194.84 258.17, 195.0 258.33, 195.16 258.5, 195.32 258.67, 195.48 258.83, 195.64 259.0, 195.8 259.17, 195.96 259.33, 196.12 259.5, 196.28 259.67, 196.44 259.83, 196.61 260.0, 196.77 260.17, 196.93 260.33, 197.09 260.5, 197.26 260.67, 197.42 260.83, 197.58 261.0, 197.75 261.17, 197.91 261.33, 198.07 261.5, 198.24 261.67, 198.4 261.83, 198.57 262.0, 198.73 262.17, 198.9 262.33, 199.06 262.5, 199.23 262.67, 199.39 262.83, 199.56 263.0, 199.72 263.17, 199.89 263.33, 200.06 263.5, 200.22 263.67, 200.39 263.83, 200.56 264.0, 200.72 264.17, 200.89 264.33, 201.06 264.5, 201.22 264.67, 201.39 264.83, 201.56 265.0, 201.72 265.17, 201.89 265.33, 202.06 265.5, 202.23 265.67, 202.39 265.83, 202.56 266.0, 202.73 266.17, 202.9 266.33, 203.06 266.5, 203.23 266.67, 203.4 266.83, 203.57 267.0, 203.74 267.17, 203.9 267.33, 204.07 267.5, 204.24 267.67, 204.41 267.83, 204.58 268.0, 204.74 268.17, 204.91 268.33, 205.08 268.5, 205.25 268.67, 205.42 268.83, 205.58 269.0, 205.75 269.17, 205.92 269.33, 206.09 269.5, 206.26 269.67, 206.43 269.83, 206.59 270.0, 206.76 270.17, 206.93 270.33, 207.1 270.5, 207.27 270.67, 207.44 270.83, 207.61 271.0, 207.77 271.17, 207.94 271.33, 208.11 271.5, 208.28 271.67, 208.45 271.83, 208.62 272.0, 208.79 272.17, 208.96 272.33, 209.12 272.5, 209.29 272.67, 209.46 272.83, 209.63 273.0, 209.8 273.17, 209.97 273.33, 210.14 273.5, 210.31 273.67, 210.48 273.83, 210.65 274.0, 210.82 274.17, 210.99 274.33, 211.16 274.5, 211.33 274.67, 211.5 274.83, 211.67 275.0, 211.84 275.17, 212.01 275.33, 212.19 275.5, 212.36 275.67, 212.53 275.83, 212.7 276.0, 212.87 276.17, 213.05 276.33, 213.22 276.5, 213.39 276.67, 213.56 276.83, 213.74 277.0, 213.91 277.17, 214.09 277.33, 214.26 277.5, 214.44 277.67, 214.61 277.83, 214.79 278.0, 214.96 278.17, 215.14 278.33, 215.32 278.5, 215.5 278.67, 215.67 278.83, 215.85 279.0, 216.03 279.17, 216.21 279.33, 216.39 279.5, 216.57 279.67, 216.75 279.83, 216.93 280.0, 217.12 280.17, 217.3 280.33, 217.48 280.5, 217.67 280.67, 217.85 280.83, 218.04 281.0, 218.23 281.17, 218.42 281.33, 218.6 281.5, 218.79 281.67, 218.98 281.83, 219.18 282.0, 219.37 282.17, 219.56 282.33, 219.76 282.5, 219.95 282.67, 220.15 282.83, 220.34 283.0, 220.54 283.17, 220.74 283.33, 220.94 283.5, 221.15 283.67, 221.35 283.83, 221.55 284.0, 221.76 284.17, 221.97 284.33, 222.17 284.5, 222.38 284.67, 222.6 284.83, 222.81 285.0, 223.02 285.17, 223.24 285.33, 223.46 285.5, 223.68 285.67, 223.9 285.83, 224.12 286.0, 224.35 286.17, 224.57 286.33, 224.8 286.5, 225.03 286.67, 225.26 286.83, 225.5 287.0, 225.73 287.17, 225.97 287.33, 226.21 287.5, 226.45 287.67, 226.7 287.83, 226.95 288.0, 227.2 288.17, 227.45 288.33, 227.7 288.5, 227.96 288.67, 228.22 288.83, 228.48 289.0, 228.74 289.17, 229.01 289.33, 229.28 289.5, 229.55 289.67, 229.83 289.83, 230.11 290.0, 230.39 290.17, 230.67 290.33, 230.96 290.5, 231.25 290.67, 231.55 290.83, 231.84 291.0, 232.14 291.17, 232.45 291.33, 232.76 291.5, 233.07 291.67, 233.38 291.83, 233.7 292.0, 234.02 292.17, 234.35 292.33, 234.68 292.5, 235.01 292.67, 235.35 292.83, 235.69 293.0, 236.04 293.17, 236.39 293.33, 236.74 293.5, 237.1 293.67, 237.47 293.83, 237.83 294.0, 238.21 294.17, 238.58 294.33, 238.97 294.5, 239.35 294.67, 239.75 294.83, 240.14 295.0, 240.55 295.17, 240.95 295.33, 241.37 295.5, 241.79 295.67, 242.21 295.83, 242.64 296.0, 243.07 296.17, 243.51 296.33, 243.96 296.5, 244.41 296.67, 244.87 296.83, 245.34 297.0, 245.81 297.17, 246.29 297.33, 246.77 297.5, 247.26 297.67, 247.76 297.83, 248.26 298.0, 248.77 298.17, 249.29 298.33, 249.82 298.5, 250.35 298.67, 250.89 298.83, 251.43 299.0, 251.99 299.17, 252.55 299.33, 253.12 299.5, 253.7 299.67, 254.28 299.83, 254.87 300.0, 255.47 300.17, 256.08 300.33, 256.7 300.5, 257.33 300.67, 257.96 300.83, 258.61 301.0, 259.26 301.17, 259.92 301.33, 260.6 301.5, 261.28 301.67, 261.97 301.83, 262.67 302.0, 263.37 302.17, 264.09 302.33, 264.82 302.5, 265.56 302.67, 266.31 302.83, 267.07 303.0, 267.84 303.17, 268.62 303.33, 269.41 303.5, 270.22 303.67, 271.03 303.83, 271.85 304.0, 272.69 304.17, 273.54 304.33, 274.4 304.5, 275.27 304.67, 276.15 304.83, 277.05 305.0, 277.96 305.17, 278.88 305.33, 279.81 305.5, 280.75 305.67, 281.71 305.83, 282.68 306.0, 283.67 306.17, 284.67 306.33, 285.68 306.5, 286.71 306.67, 287.74 306.83, 288.8 307.0, 289.87 307.17, 290.95 307.33, 292.05 307.5, 293.16 307.67, 294.29 307.83, 295.43 308.0, 296.59 308.17, 297.76 308.33, 298.95 308.5, 300.15 308.67, 301.37 308.83, 302.61 309.0, 303.86 309.17, 305.13 309.33, 306.42 309.5, 307.73 309.67, 309.05 309.83, 310.39 310.0, 311.74 310.17, 313.12 310.33, 314.51 310.5, 315.92 310.67, 317.35 310.83, 318.8 311.0, 320.27 311.17, 321.76 311.33, 323.26 311.5, 324.79 311.67, 326.33 311.83, 327.9 312.0, 329.49 312.17, 331.09 312.33, 332.72 312.5, 334.37 312.67, 336.04 312.83, 337.73 313.0, 339.44 313.17, 341.17 313.33, 342.93 313.5, 344.71 313.67, 346.51 313.83, 348.34 314.0, 350.18 314.17, 352.05 314.33, 353.95 314.5, 355.87 314.67, 357.81 314.83, 359.78 315.0, 361.77 315.17, 363.78 315.33, 365.83 315.5, 367.89 315.67, 369.99 315.83, 372.1 316.0, 374.25 316.17, 376.42 316.33, 378.62 316.5, 380.84 316.67, 383.1 316.83, 385.38 317.0, 387.69 317.17, 390.02 317.33, 392.39 317.5, 394.78 317.67, 397.2 317.83, 399.66 318.0, 402.14 318.17, 404.65 318.33, 407.19 318.5, 409.76 318.67, 412.37 318.83, 415.0 319.0, 417.67 319.17, 420.37 319.33, 423.1 319.5, 425.86 319.67, 428.65 319.83, 431.48 320.0, 434.34 320.17, 437.24 320.33, 440.17 320.5, 443.13 320.67, 446.13 320.83, 449.16 321.0, 452.23 321.17, 455.34 321.33, 458.48 321.5, 461.65 321.67, 464.87 321.83, 468.12 322.0, 471.41 322.17, 474.73 322.33, 478.1 322.5, 481.5 322.67, 484.94 322.83, 488.42 323.0, 491.94 323.17, 495.5 323.33, 499.1 323.5, 502.74 323.67, 506.43 323.83, 510.15 324.0, 513.92 324.17, 517.72 324.33, 521.58 324.5, 525.47 324.67, 529.41 324.83, 533.39 325.0, 537.41 325.17, 541.48 325.33, 545.6 325.5, 549.76 325.67, 553.96 325.83, 558.22 326.0, 562.51 326.17, 566.86 326.33, 571.25 326.5, 575.7 326.67, 580.19 326.83, 584.72 327.0, 589.31 327.17, 593.95 327.33, 598.64 327.5, 603.37 327.67, 608.16 327.83, 613.0 328.0, 617.9 328.17, 622.84 328.33, 627.84 328.5, 632.89 328.67, 637.99 328.83, 643.15 329.0, 648.36 329.17, 653.63 329.33, 658.95 329.5, 664.33 329.67, 669.77 329.83, 675.26 330.0, 680.81 330.17, 686.42 330.33, 692.09 330.5, 697.81 330.67, 703.6 330.83, 709.44 331.0, 715.35 331.17, 721.31 331.33, 727.34 331.5, 733.43 331.67, 739.58 331.83, 745.8 332.0, 752.07 332.17, 758.42 332.33, 764.82 332.5, 771.3 332.67, 777.83 332.83, 784.44 333.0, 791.11 333.17, 797.84 333.33, 804.65 333.5, 811.52 333.67, 818.47 333.83, 825.48 334.0, 832.56 334.17, 839.71 334.33, 846.94 334.5, 854.23 334.67, 861.6 334.83, 869.04 335.0, 876.55 335.17, 884.14 335.33, 891.8 335.5, 899.54 335.67, 907.35 335.83, 915.24 336.0, 923.21 336.17, 931.26 336.33, 939.38 336.5, 947.58 336.67, 955.86 336.83, 964.22 337.0, 972.66 337.17, 981.19 337.33, 989.79 337.5, 998.48 337.67, 1007.25 337.83, 1016.1 338.0, 1025.04 338.17, 1034.07 338.33, 1043.18 338.5, 1052.37 338.67, 1061.66 338.83, 1071.03 339.0, 1080.49 339.17, 1090.04 339.33, 1099.67 339.5, 1109.4 339.67, 1119.22 339.83, 1129.14 340.0, 1139.14 340.17, 1149.24 340.33, 1159.43 340.5, 1169.72 340.67, 1180.1 340.83, 1190.58 341.0, 1201.15 341.17, 1211.82 341.33, 1222.59 341.5, 1233.46 341.67, 1244.43 341.83, 1255.5 342.0, 1266.67 342.17, 1277.94 342.33, 1289.32 342.5, 1300.8 342.67, 1312.38 342.83, 1324.07 343.0, 1335.86 343.17, 1347.76 343.33, 1359.77 343.5, 1371.88 343.67, 1384.11 343.83, 1396.44 344.0, 1408.88 344.17, 1421.44 344.33, 1434.11 344.5, 1446.89 344.67, 1459.78 344.83, 1472.79 345.0, 1485.91 345.17, 1499.15 345.33, 1512.5 345.5, 1525.98 345.67, 1539.57 345.83, 1553.28 346.0, 1567.11 346.17, 1581.06 346.33, 1595.14 346.5, 1609.33 346.67, 1623.65 346.83, 1638.1 347.0, 1652.67 347.17, 1667.37 347.33, 1682.19 347.5, 1697.14 347.67, 1712.22 347.83, 1727.43 348.0, 1742.77 348.17, 1758.25 348.33, 1773.85 348.5, 1789.59 348.67, 1805.46 348.83, 1821.47 349.0, 1837.62 349.17, 1853.9 349.33, 1870.32 349.5, 1886.87 349.67, 1903.57 349.83, 1920.41 350.0, 1937.39 350.17, 1954.52 350.33, 1971.78 350.5, 1989.2 350.67, 2006.75 350.83, 2024.46 351.0, 2042.31 351.17, 2060.31 351.33, 2078.46 351.5, 2096.76 351.67, 2115.22 351.83, 2133.82 352.0, 2152.58 352.17, 2171.49 352.33, 2190.56 352.5, 2209.79 352.67, 2229.17 352.83, 2248.72 353.0, 2268.42 353.17, 2288.28 353.33, 2308.31 353.5, 2328.5 353.67, 2348.85 353.83, 2369.37 354.0, 2390.06 354.17, 2410.91 354.33, 2431.93 354.5, 2453.12 354.67, 2474.48 354.83, 2496.01 355.0, 2517.72 355.17, 2539.6 355.33, 2561.65 355.5, 2583.88 355.67, 2606.29 355.83, 2628.88 356.0, 2651.65 356.17, 2674.59 356.33, 2697.72 356.5, 2721.04 356.67, 2744.53 356.83, 2768.22 357.0, 2792.08 357.17, 2816.14 357.33, 2840.39 357.5, 2864.82 357.67, 2889.45 357.83, 2914.27 358.0, 2939.29 358.17, 2964.5 358.33, 2989.9 358.5, 3015.51 358.67, 3041.31 358.83, 3067.31 359.0, 3093.51 359.17, 3119.92 359.33, 3146.53 359.5, 3173.35 359.67, 3200.37 359.83, 3227.6 360.0, 3255.03 360.17, 3282.68 360.33, 3310.54 360.5, 3338.62 360.67, 3366.9 360.83, 3395.4 361.0, 3424.12 361.17, 3453.06 361.33, 3482.22 361.5, 3511.59 361.67, 3541.19 361.83, 3571.02 362.0, 3601.06 362.17, 3631.34 362.33, 3661.84 362.5, 3692.57 362.67, 3723.53 362.83, 3754.72 363.0, 3786.15 363.17, 3817.81 363.33, 3849.71 363.5, 3881.84 363.67, 3914.21 363.83, 3946.83 364.0, 3979.68 364.17, 4012.78 364.33, 4046.12 364.5, 4079.71 364.67, 4113.54 364.83, 4147.63 365.0, 4181.96 365.17, 4216.55 365.33, 4251.39 365.5, 4286.49 365.67, 4321.84 365.83, 4357.45 366.0, 4393.32 366.17, 4429.45 366.33, 4465.84 366.5, 4502.5 366.67, 4539.42 366.83, 4576.61 367.0, 4614.07 367.17, 4651.8 367.33, 4689.8 367.5, 4728.07 367.67, 4766.62 367.83, 4805.45 368.0, 4844.55 368.17, 4883.93 368.33, 4923.6 368.5, 4963.55 368.67, 5003.78 368.83, 5044.3 369.0, 5085.11 369.17, 5126.21 369.33, 5167.59 369.5, 5209.28 369.67, 5251.25 369.83, 5293.52 370.0, 5336.09 370.17, 5378.96 370.33, 5422.14 370.5, 5465.61 370.67, 5509.39 370.83, 5553.48 371.0, 5597.87 371.17, 5642.58 371.33, 5687.59 371.5, 5732.92 371.67, 5778.57 371.83, 5824.53 372.0, 5870.81 372.17, 5917.42 372.33, 5964.34 372.5, 6011.59 372.67, 6059.17 372.83, 6107.07 373.0, 6155.3 373.17, 6203.87 373.33, 6252.76 373.5, 6302.0 373.67, 6351.57 373.83, 6401.48 374.0, 6451.73 374.17, 6502.32 374.33, 6553.26 374.5, 6604.54 374.67, 6656.18 374.83, 6708.16 375.0, 6760.5 375.17, 6813.19 375.33, 6866.23 375.5, 6919.64 375.67, 6973.4 375.83, 7027.53 376.0, 7082.02 376.17, 7136.87 376.33, 7192.1 376.5, 7247.69 376.67, 7303.66 376.83, 7360.0 377.0, 7416.72 377.17, 7473.81 377.33, 7531.29 377.5, 7589.14 377.67, 7647.39 377.83, 7706.01 378.0, 7765.03 378.17, 7824.44 378.33, 7884.23 378.5, 7944.43 378.67, 8005.02 378.83, 8066.01 379.0, 8127.4 379.17, 8189.19 379.33, 8251.39 379.5, 8314.0 379.67, 8377.01 379.83, 8440.44 380.0, 8504.28 380.17, 8568.54 380.33, 8633.21 380.5, 8698.31 380.67, 8763.83 380.83, 8829.77 381.0, 8896.14 381.17, 8962.94 381.33, 9030.18 381.5, 9097.84 381.67, 9165.95 381.83, 9234.49 382.0, 9303.47 382.17, 9372.89 382.33, 9442.76 382.5, 9513.08 382.67, 9583.85 382.83, 9655.07 383.0, 9726.75 383.17, 9798.88 383.33, 9871.47 383.5, 9944.52 383.67, 10018.04 383.83, 10092.03 384.0, 10166.48 384.17, 10241.4 384.33, 10316.8 384.5, 10392.68 384.67, 10469.03 384.83, 10545.87 385.0, 10623.18 385.17, 10700.99 385.33, 10779.28 385.5, 10858.06 385.67, 10937.34 385.83, 11017.12 386.0, 11097.39 386.17, 11178.16 386.33, 11259.44 386.5, 11341.22 386.67, 11423.51 386.83, 11506.31 387.0, 11589.63 387.17, 11673.46 387.33, 11757.82 387.5, 11842.69 387.67, 11928.09 387.83, 12014.01 388.0, 12100.47 388.17, 12187.45 388.33, 12274.97 388.5, 12363.03 388.67, 12451.63 388.83, 12540.77 389.0, 12630.46 389.17, 12720.7 389.33, 12811.49 389.5, 12902.83 389.67, 12994.72 389.83, 13087.18 390.0, 13180.2 390.17, 13273.78 390.33, 13367.93 390.5, 13462.65 390.67, 13557.95 390.83, 13653.82 391.0, 13750.27 391.17, 13847.3 391.33, 13944.91 391.5, 14043.12 391.67, 14141.91 391.83, 14241.29 392.0, 14341.28 392.17, 14441.86 392.33, 14543.04 392.5, 14644.83 392.67, 14747.22 392.83, 14850.23 393.0, 14953.85 393.17, 15058.08 393.33, 15162.94 393.5, 15268.42 393.67, 15374.52 393.83, 15481.25 394.0, 15588.61 394.17, 15696.61 394.33, 15805.25 394.5, 15914.52 394.67, 16024.44 394.83, 16135.01 395.0, 16246.23 395.17, 16358.1 395.33, 16470.62 395.5, 16583.81 395.67, 16697.66 395.83, 16812.17 396.0, 16927.35 396.17, 17043.21 396.33, 17159.74 396.5, 17276.95 396.67, 17394.84 396.83, 17513.41 397.0, 17632.67 397.17, 17752.62 397.33, 17873.27 397.5, 17994.62 397.67, 18116.66 397.83, 18239.42 398.0, 18362.87 398.17, 18487.04 398.33, 18611.93 398.5, 18737.53 398.67, 18863.85 398.83, 18990.9 399.0, 19118.67 399.17, 19247.18 399.33, 19376.42 399.5, 19506.4 399.67, 19637.12 399.83, 19768.58 400.0, 19900.79 " fill="none" stroke="white" stroke-width="1.5" stroke-linejoin="round" stroke-opacity="1"/>

 </svg>