<svg version="1.1" 
 baseProfile="full" 
 width="400" 
 height="400" 
 xmlns="http://www.w3.org/2000/svg">
<rect x="0.0" y="0.0" width="400" height="400" fill="black" stroke="black" stroke-width="0" opacity="1"/>
<line x1="0.0" y1="0.0" x2="0.0" y2="400.0" stroke="white" stroke-width="1" opacity="0.4" stroke-linecap="butt"/>
<line x1="40.0" y1="0.0" x2="40.0" y2="400.0" stroke="white" stroke-width="1" opacity="0.4" stroke-linecap="butt"/>
<line x1="80.0" y1="0.0" x2="80.0" y2="400.0" stroke="white" stroke-width="1" opacity="0.4" stroke-linecap="butt"/>
<line x1="120.0" y1="0.0" x2="120.0" y2="400.0" stroke="white" stroke-width="1" opacity="0.4" stroke-linecap="butt"/>
<line x1="160.0" y1="0.0" x2="160.0" y2="400.0" stroke="white" stroke-width="1" opacity="0.4" stroke-linecap="butt"/>
<line x1="200.0" y1="0.0" x2="200.0" y2="400.0" stroke="white" stroke-width="1" opacity="0.4" stroke-linecap="butt"/>
<line x1="240.0" y1="0.0" x2="240.0" y2="400.0" stroke="white" stroke-width="1" opacity="0.4" stroke-linecap="butt"/>
<line x1="280.0" y1="0.0" x2="280.0" y2="400.0" stroke="white" stroke-width="1" opacity="0.4" stroke-linecap="butt"/>
<line x1="320.0" y1="0.0" x2="320.0" y2="400.0" stroke="white" stroke-width="1" opacity="0.4" stroke-linecap="butt"/>
<line x1="360.0" y1="0.0" x2="360.0" y2="400.0" stroke="white" stroke-width="1" opacity="0.4" stroke-linecap="butt"/>
<line x1="0.0" y1="0.0" x2="400.0" y2="0.0" stroke="white" stroke-width="1" opacity="0.4" stroke-linecap="butt"/>
<line x1="0.0" y1="40.0" x2="400.0" y2="40.0" stroke="white" stroke-width="1" opacity="0.4" stroke-linecap="butt"/>
<line x1="0.0" y1="80.0" x2="400.0" y2="80.0" stroke="white" stroke-width="1" opacity="0.4" stroke-linecap="butt"/>
<line x1="0.0" y1="120.0" x2="400.0" y2="120.0" stroke="white" stroke-width="1" opacity="0.4" stroke-linecap="butt"/>
<line x1="0.0" y1="160.0" x2="400.0" y2="160.0" stroke="white" stroke-width="1" opacity="0.4" stroke-linecap="butt"/>
<line x1="0.0" y1="200.0" x2="400.0" y2="200.0" stroke="white" stroke-width="1" opacity="0.4" stroke-linecap="butt"/>
<line x1="0.0" y1="240.0" x2="400.0" y2="240.0" stroke="white" stroke-width="1" opacity="0.4" stroke-linecap="butt"/>
<line x1="0.0" y1="280.0" x2="400.0" y2="280.0" stroke="white" stroke-width="1" opacity="0.4" stroke-linecap="butt"/>
<line x1="0.0" y1="320.0" x2="400.0" y2="320.0" stroke="white" stroke-width="1" opacity="0.4" stroke-linecap="butt"/>
<line x1="0.0" y1="360.0" x2="400.0" y2="360.0" stroke="white" stroke-width="1" opacity="0.4" stroke-linecap="butt"/>
<line x1="0.0" y1="200.0" x2="400.0" y2="200.0" stroke="yellow" stroke-width="2.5" opacity="1" stroke-linecap="butt"/>
<line x1="200.0" y1="0.0" x2="200.0" y2="400.0" stroke="yellow" stroke-width="2.5" opacity="1" stroke-linecap="butt"/>
<polygon points="391.0 204.0, 401.0 200.0, 391.0 196.0, 393.0 200.0" fill="yellow"/><polygon points="204.0 9.0, 200.0 -1.0, 196.0 9.0, 200.0 7.0" fill="yellow"/><image x="-60.0" y="-60.0" width="200" height="200" href="/Users/girirajhira/PycharmProjects/Giraphics3/Taylor/expr.png"/><polyline points="0.0, -23469.05 0.17, -23313.74 0.33, -23159.31 0.5, -23005.73 0.67, -22853.0 0.83, -22701.13 1.0, -22550.1 1.17, -22399.92 1.33, -22250.58 1.5, -22102.08 1.67, -21954.41 1.83, -21807.56 2.0, -21661.55 2.17, -21516.35 2.33, -21371.97 2.5, -21228.4 2.67, -21085.65 2.83, -20943.7 3.0, -20802.55 3.17, -20662.2 3.33, -20522.64 3.5, -20383.88 3.67, -20245.9 3.83, -20108.71 4.0, -19972.3 4.17, -19836.66 4.33, -19701.8 4.5, -19567.7 4.67, -19434.38 4.83, -19301.81 5.0, -19170.0 5.17, -19038.95 5.33, -18908.65 5.5, -18779.1 5.67, -18650.29 5.83, -18522.22 6.0, -18394.9 6.17, -18268.3 6.33, -18142.43 6.5, -18017.3 6.67, -17892.88 6.83, -17769.19 7.0, -17646.21 7.17, -17523.95 7.33, -17402.39 7.5, -17281.55 7.67, -17161.4 7.83, -17041.96 8.0, -16923.21 8.17, -16805.16 8.33, -16687.79 8.5, -16571.11 8.67, -16455.12 8.83, -16339.81 9.0, -16225.17 9.17, -16111.21 9.33, -15997.91 9.5, -15885.29 9.67, -15773.32 9.83, -15662.02 10.0, -15551.38 10.17, -15441.39 10.33, -15332.05 10.5, -15223.36 10.67, -15115.31 10.83, -15007.91 11.0, -14901.14 11.17, -14795.01 11.33, -14689.52 11.5, -14584.65 11.67, -14480.41 11.83, -14376.79 12.0, -14273.79 12.17, -14171.41 12.33, -14069.64 12.5, -13968.49 12.67, -13867.94 12.83, -13767.99 13.0, -13668.65 13.17, -13569.91 13.33, -13471.77 13.5, -13374.21 13.67, -13277.25 13.83, -13180.88 14.0, -13085.09 14.17, -12989.88 14.33, -12895.25 14.5, -12801.2 14.67, -12707.72 14.83, -12614.81 15.0, -12522.46 15.17, -12430.68 15.33, -12339.47 15.5, -12248.81 15.67, -12158.7 15.83, -12069.16 16.0, -11980.16 16.17, -11891.71 16.33, -11803.8 16.5, -11716.43 16.67, -11629.61 16.83, -11543.32 17.0, -11457.57 17.17, -11372.35 17.33, -11287.65 17.5, -11203.48 17.67, -11119.84 17.83, -11036.71 18.0, -10954.11 18.17, -10872.02 18.33, -10790.44 18.5, -10709.37 18.67, -10628.81 18.83, -10548.75 19.0, -10469.2 19.17, -10390.15 19.33, -10311.59 19.5, -10233.53 19.67, -10155.96 19.83, -10078.88 20.0, -10002.28 20.17, -9926.17 20.33, -9850.55 20.5, -9775.4 20.67, -9700.73 20.83, -9626.53 21.0, -9552.81 21.17, -9479.55 21.33, -9406.77 21.5, -9334.44 21.67, -9262.58 21.83, -9191.18 22.0, -9120.24 22.17, -9049.75 22.33, -8979.72 22.5, -8910.13 22.67, -8841.0 22.83, -8772.3 23.0, -8704.06 23.17, -8636.25 23.33, -8568.88 23.5, -8501.95 23.67, -8435.45 23.83, -8369.38 24.0, -8303.75 24.17, -8238.54 24.33, -8173.75 24.5, -8109.39 24.67, -8045.45 24.83, -7981.92 25.0, -7918.81 25.17, -7856.12 25.33, -7793.83 25.5, -7731.96 25.67, -7670.49 25.83, -7609.43 26.0, -7548.77 26.17, -7488.51 26.33, -7428.65 26.5, -7369.19 26.67, -7310.12 26.83, -7251.44 27.0, -7193.15 27.17, -7135.25 27.33, -7077.73 27.5, -7020.6 27.67, -6963.85 27.83, -6907.47 28.0, -6851.48 28.17, -6795.86 28.33, -6740.61 28.5, -6685.74 28.67, -6631.23 28.83, -6577.09 29.0, -6523.32 29.17, -6469.91 29.33, -6416.86 29.5, -6364.17 29.67, -6311.83 29.83, -6259.85 30.0, -6208.23 30.17, -6156.95 30.33, -6106.02 30.5, -6055.45 30.67, -6005.21 30.83, -5955.32 31.0, -5905.77 31.17, -5856.56 31.33, -5807.69 31.5, -5759.16 31.67, -5710.95 31.83, -5663.08 32.0, -5615.54 32.17, -5568.33 32.33, -5521.45 32.5, -5474.89 32.67, -5428.65 32.83, -5382.73 33.0, -5337.13 33.17, -5291.85 33.33, -5246.89 33.5, -5202.24 33.67, -5157.9 33.83, -5113.87 34.0, -5070.15 34.17, -5026.73 34.33, -4983.62 34.5, -4940.81 34.67, -4898.31 34.83, -4856.1 35.0, -4814.2 35.17, -4772.58 35.33, -4731.27 35.5, -4690.24 35.67, -4649.51 35.83, -4609.07 36.0, -4568.91 36.17, -4529.04 36.33, -4489.45 36.5, -4450.15 36.67, -4411.13 36.83, -4372.38 37.0, -4333.92 37.17, -4295.73 37.33, -4257.82 37.5, -4220.18 37.67, -4182.81 37.83, -4145.71 38.0, -4108.87 38.17, -4072.31 38.33, -4036.01 38.5, -3999.97 38.67, -3964.2 38.83, -3928.68 39.0, -3893.43 39.17, -3858.43 39.33, -3823.68 39.5, -3789.19 39.67, -3754.96 39.83, -3720.97 40.0, -3687.24 40.17, -3653.75 40.33, -3620.51 40.5, -3587.51 40.67, -3554.76 40.83, -3522.25 41.0, -3489.98 41.17, -3457.96 41.33, -3426.16 41.5, -3394.61 41.67, -3363.29 41.83, -3332.2 42.0, -3301.35 42.17, -3270.72 42.33, -3240.33 42.5, -3210.16 42.67, -3180.22 42.83, -3150.51 43.0, -3121.02 43.17, -3091.75 43.33, -3062.7 43.5, -3033.87 43.67, -3005.26 43.83, -2976.87 44.0, -2948.69 44.17, -2920.73 44.33, -2892.98 44.5, -2865.44 44.67, -2838.11 44.83, -2810.99 45.0, -2784.08 45.17, -2757.38 45.33, -2730.88 45.5, -2704.58 45.67, -2678.49 45.83, -2652.59 46.0, -2626.9 46.17, -2601.41 46.33, -2576.11 46.5, -2551.01 46.67, -2526.11 46.83, -2501.4 47.0, -2476.88 47.17, -2452.55 47.33, -2428.41 47.5, -2404.46 47.67, -2380.7 47.83, -2357.13 48.0, -2333.74 48.17, -2310.53 48.33, -2287.51 48.5, -2264.67 48.67, -2242.01 48.83, -2219.53 49.0, -2197.23 49.17, -2175.1 49.33, -2153.15 49.5, -2131.38 49.67, -2109.78 49.83, -2088.35 50.0, -2067.09 50.17, -2046.0 50.33, -2025.09 50.5, -2004.34 50.67, -1983.75 50.83, -1963.34 51.0, -1943.08 51.17, -1922.99 51.33, -1903.07 51.5, -1883.3 51.67, -1863.7 51.83, -1844.25 52.0, -1824.97 52.17, -1805.84 52.33, -1786.87 52.5, -1768.05 52.67, -1749.38 52.83, -1730.87 53.0, -1712.51 53.17, -1694.31 53.33, -1676.25 53.5, -1658.34 53.67, -1640.58 53.83, -1622.97 54.0, -1605.5 54.17, -1588.18 54.33, -1571.0 54.5, -1553.96 54.67, -1537.07 54.83, -1520.32 55.0, -1503.71 55.17, -1487.23 55.33, -1470.9 55.5, -1454.7 55.67, -1438.64 55.83, -1422.72 56.0, -1406.92 56.17, -1391.27 56.33, -1375.74 56.5, -1360.35 56.67, -1345.09 56.83, -1329.95 57.0, -1314.95 57.17, -1300.08 57.33, -1285.33 57.5, -1270.71 57.67, -1256.21 57.83, -1241.84 58.0, -1227.59 58.17, -1213.46 58.33, -1199.46 58.5, -1185.58 58.67, -1171.82 58.83, -1158.17 59.0, -1144.65 59.17, -1131.24 59.33, -1117.95 59.5, -1104.78 59.67, -1091.72 59.83, -1078.77 60.0, -1065.94 60.17, -1053.22 60.33, -1040.62 60.5, -1028.12 60.67, -1015.74 60.83, -1003.46 61.0, -991.29 61.17, -979.24 61.33, -967.28 61.5, -955.44 61.67, -943.7 61.83, -932.06 62.0, -920.53 62.17, -909.1 62.33, -897.78 62.5, -886.55 62.67, -875.43 62.83, -864.41 63.0, -853.49 63.17, -842.66 63.33, -831.94 63.5, -821.31 63.67, -810.77 63.83, -800.34 64.0, -790.0 64.17, -779.75 64.33, -769.6 64.5, -759.54 64.67, -749.57 64.83, -739.69 65.0, -729.91 65.17, -720.21 65.33, -710.6 65.5, -701.09 65.67, -691.66 65.83, -682.32 66.0, -673.06 66.17, -663.9 66.33, -654.81 66.5, -645.82 66.67, -636.9 66.83, -628.07 67.0, -619.33 67.17, -610.66 67.33, -602.08 67.5, -593.58 67.67, -585.15 67.83, -576.81 68.0, -568.55 68.17, -560.36 68.33, -552.26 68.5, -544.23 68.67, -536.28 68.83, -528.4 69.0, -520.6 69.17, -512.87 69.33, -505.22 69.5, -497.64 69.67, -490.14 69.83, -482.71 70.0, -475.34 70.17, -468.06 70.33, -460.84 70.5, -453.69 70.67, -446.61 70.83, -439.6 71.0, -432.66 71.17, -425.79 71.33, -418.98 71.5, -412.24 71.67, -405.57 71.83, -398.96 72.0, -392.42 72.17, -385.95 72.33, -379.53 72.5, -373.18 72.67, -366.9 72.83, -360.68 73.0, -354.51 73.17, -348.41 73.33, -342.38 73.5, -336.4 73.67, -330.48 73.83, -324.62 74.0, -318.82 74.17, -313.08 74.33, -307.4 74.5, -301.78 74.67, -296.21 74.83, -290.7 75.0, -285.24 75.17, -279.84 75.33, -274.5 75.5, -269.21 75.67, -263.97 75.83, -258.79 76.0, -253.66 76.17, -248.59 76.33, -243.56 76.5, -238.59 76.67, -233.67 76.83, -228.81 77.0, -223.99 77.17, -219.22 77.33, -214.5 77.5, -209.83 77.67, -205.21 77.83, -200.64 78.0, -196.12 78.17, -191.64 78.33, -187.21 78.5, -182.83 78.67, -178.5 78.83, -174.21 79.0, -169.96 79.17, -165.76 79.33, -161.61 79.5, -157.5 79.67, -153.43 79.83, -149.41 80.0, -145.43 80.17, -141.49 80.33, -137.6 80.5, -133.74 80.67, -129.93 80.83, -126.16 81.0, -122.43 81.17, -118.74 81.33, -115.1 81.5, -111.49 81.67, -107.92 81.83, -104.39 82.0, -100.89 82.17, -97.44 82.33, -94.02 82.5, -90.64 82.67, -87.3 82.83, -84.0 83.0, -80.73 83.17, -77.5 83.33, -74.3 83.5, -71.14 83.67, -68.02 83.83, -64.92 84.0, -61.87 84.17, -58.85 84.33, -55.86 84.5, -52.9 84.67, -49.98 84.83, -47.09 85.0, -44.23 85.17, -41.41 85.33, -38.62 85.5, -35.86 85.67, -33.13 85.83, -30.43 86.0, -27.76 86.17, -25.12 86.33, -22.51 86.5, -19.93 86.67, -17.39 86.83, -14.87 87.0, -12.38 87.17, -9.91 87.33, -7.48 87.5, -5.07 87.67, -2.7 87.83, -0.34 88.0, 1.98 88.17, 4.28 88.33, 6.55 88.5, 8.79 88.67, 11.01 88.83, 13.2 89.0, 15.37 89.17, 17.51 89.33, 19.62 89.5, 21.71 89.67, 23.78 89.83, 25.82 90.0, 27.84 90.17, 29.84 90.33, 31.81 90.5, 33.76 90.67, 35.68 90.83, 37.58 91.0, 39.46 91.17, 41.32 91.33, 43.16 91.5, 44.97 91.67, 46.76 91.83, 48.53 92.0, 50.28 92.17, 52.01 92.33, 53.72 92.5, 55.41 92.67, 57.08 92.83, 58.72 93.0, 60.35 93.17, 61.96 93.33, 63.55 93.5, 65.12 93.67, 66.67 93.83, 68.2 94.0, 69.72 94.17, 71.21 94.33, 72.69 94.5, 74.15 94.67, 75.59 94.83, 77.01 95.0, 78.42 95.17, 79.81 95.33, 81.18 95.5, 82.54 95.67, 83.88 95.83, 85.21 96.0, 86.51 96.17, 87.8 96.33, 89.08 96.5, 90.34 96.67, 91.59 96.83, 92.82 97.0, 94.03 97.17, 95.23 97.33, 96.42 97.5, 97.59 97.67, 98.74 97.83, 99.89 98.0, 101.01 98.17, 102.13 98.33, 103.23 98.5, 104.32 98.67, 105.39 98.83, 106.45 99.0, 107.5 99.17, 108.53 99.33, 109.56 99.5, 110.57 99.67, 111.56 99.83, 112.55 100.0, 113.52 100.17, 114.48 100.33, 115.43 100.5, 116.37 100.67, 117.3 100.83, 118.21 101.0, 119.12 101.17, 120.01 101.33, 120.89 101.5, 121.76 101.67, 122.62 101.83, 123.47 102.0, 124.31 102.17, 125.14 102.33, 125.96 102.5, 126.77 102.67, 127.57 102.83, 128.36 103.0, 129.14 103.17, 129.91 103.33, 130.67 103.5, 131.43 103.67, 132.17 103.83, 132.9 104.0, 133.63 104.17, 134.35 104.33, 135.05 104.5, 135.75 104.67, 136.45 104.83, 137.13 105.0, 137.8 105.17, 138.47 105.33, 139.13 105.5, 139.78 105.67, 140.42 105.83, 141.06 106.0, 141.69 106.17, 142.31 106.33, 142.92 106.5, 143.53 106.67, 144.13 106.83, 144.72 107.0, 145.31 107.17, 145.89 107.33, 146.46 107.5, 147.03 107.67, 147.58 107.83, 148.14 108.0, 148.68 108.17, 149.22 108.33, 149.76 108.5, 150.29 108.67, 150.81 108.83, 151.32 109.0, 151.84 109.17, 152.34 109.33, 152.84 109.5, 153.33 109.67, 153.82 109.83, 154.31 110.0, 154.78 110.17, 155.26 110.33, 155.72 110.5, 156.19 110.67, 156.64 110.83, 157.1 111.0, 157.54 111.17, 157.99 111.33, 158.43 111.5, 158.86 111.67, 159.29 111.83, 159.71 112.0, 160.13 112.17, 160.55 112.33, 160.96 112.5, 161.37 112.67, 161.78 112.83, 162.18 113.0, 162.57 113.17, 162.96 113.33, 163.35 113.5, 163.74 113.67, 164.12 113.83, 164.49 114.0, 164.87 114.17, 165.24 114.33, 165.6 114.5, 165.97 114.67, 166.33 114.83, 166.68 115.0, 167.04 115.17, 167.39 115.33, 167.73 115.5, 168.08 115.67, 168.42 115.83, 168.76 116.0, 169.09 116.17, 169.42 116.33, 169.75 116.5, 170.08 116.67, 170.4 116.83, 170.73 117.0, 171.04 117.17, 171.36 117.33, 171.67 117.5, 171.99 117.67, 172.29 117.83, 172.6 118.0, 172.9 118.17, 173.21 118.33, 173.5 118.5, 173.8 118.67, 174.1 118.83, 174.39 119.0, 174.68 119.17, 174.97 119.33, 175.25 119.5, 175.54 119.67, 175.82 119.83, 176.1 120.0, 176.38 120.17, 176.66 120.33, 176.93 120.5, 177.21 120.67, 177.48 120.83, 177.75 121.0, 178.02 121.17, 178.28 121.33, 178.55 121.5, 178.81 121.67, 179.07 121.83, 179.33 122.0, 179.59 122.17, 179.85 122.33, 180.1 122.5, 180.36 122.67, 180.61 122.83, 180.86 123.0, 181.11 123.17, 181.36 123.33, 181.61 123.5, 181.86 123.67, 182.1 123.83, 182.34 124.0, 182.59 124.17, 182.83 124.33, 183.07 124.5, 183.31 124.67, 183.55 124.83, 183.78 125.0, 184.02 125.17, 184.25 125.33, 184.49 125.5, 184.72 125.67, 184.95 125.83, 185.18 126.0, 185.41 126.17, 185.64 126.33, 185.87 126.5, 186.1 126.67, 186.32 126.83, 186.55 127.0, 186.77 127.17, 187.0 127.33, 187.22 127.5, 187.44 127.67, 187.66 127.83, 187.88 128.0, 188.1 128.17, 188.32 128.33, 188.54 128.5, 188.76 128.67, 188.97 128.83, 189.19 129.0, 189.41 129.17, 189.62 129.33, 189.83 129.5, 190.05 129.67, 190.26 129.83, 190.47 130.0, 190.68 130.17, 190.89 130.33, 191.1 130.5, 191.31 130.67, 191.52 130.83, 191.73 131.0, 191.94 131.17, 192.15 131.33, 192.35 131.5, 192.56 131.67, 192.76 131.83, 192.97 132.0, 193.17 132.17, 193.38 132.33, 193.58 132.5, 193.78 132.67, 193.98 132.83, 194.19 133.0, 194.39 133.17, 194.59 133.33, 194.79 133.5, 194.99 133.67, 195.18 133.83, 195.38 134.0, 195.58 134.17, 195.78 134.33, 195.97 134.5, 196.17 134.67, 196.37 134.83, 196.56 135.0, 196.76 135.17, 196.95 135.33, 197.14 135.5, 197.34 135.67, 197.53 135.83, 197.72 136.0, 197.91 136.17, 198.11 136.33, 198.3 136.5, 198.49 136.67, 198.68 136.83, 198.87 137.0, 199.05 137.17, 199.24 137.33, 199.43 137.5, 199.62 137.67, 199.8 137.83, 199.99 138.0, 200.18 138.17, 200.36 138.33, 200.55 138.5, 200.73 138.67, 200.91 138.83, 201.1 139.0, 201.28 139.17, 201.46 139.33, 201.64 139.5, 201.82 139.67, 202.0 139.83, 202.18 140.0, 202.36 140.17, 202.54 140.33, 202.72 140.5, 202.9 140.67, 203.08 140.83, 203.25 141.0, 203.43 141.17, 203.6 141.33, 203.78 141.5, 203.95 141.67, 204.13 141.83, 204.3 142.0, 204.47 142.17, 204.64 142.33, 204.81 142.5, 204.98 142.67, 205.15 142.83, 205.32 143.0, 205.49 143.17, 205.66 143.33, 205.83 143.5, 205.99 143.67, 206.16 143.83, 206.33 144.0, 206.49 144.17, 206.65 144.33, 206.82 144.5, 206.98 144.67, 207.14 144.83, 207.3 145.0, 207.46 145.17, 207.62 145.33, 207.78 145.5, 207.94 145.67, 208.1 145.83, 208.26 146.0, 208.41 146.17, 208.57 146.33, 208.72 146.5, 208.88 146.67, 209.03 146.83, 209.18 147.0, 209.33 147.17, 209.49 147.33, 209.64 147.5, 209.78 147.67, 209.93 147.83, 210.08 148.0, 210.23 148.17, 210.37 148.33, 210.52 148.5, 210.66 148.67, 210.81 148.83, 210.95 149.0, 211.09 149.17, 211.23 149.33, 211.37 149.5, 211.51 149.67, 211.65 149.83, 211.79 150.0, 211.92 150.17, 212.06 150.33, 212.19 150.5, 212.33 150.67, 212.46 150.83, 212.59 151.0, 212.72 151.17, 212.85 151.33, 212.98 151.5, 213.11 151.67, 213.23 151.83, 213.36 152.0, 213.48 152.17, 213.61 152.33, 213.73 152.5, 213.85 152.67, 213.97 152.83, 214.09 153.0, 214.21 153.17, 214.33 153.33, 214.45 153.5, 214.56 153.67, 214.68 153.83, 214.79 154.0, 214.9 154.17, 215.02 154.33, 215.13 154.5, 215.23 154.67, 215.34 154.83, 215.45 155.0, 215.56 155.17, 215.66 155.33, 215.76 155.5, 215.87 155.67, 215.97 155.83, 216.07 156.0, 216.17 156.17, 216.27 156.33, 216.36 156.5, 216.46 156.67, 216.55 156.83, 216.65 157.0, 216.74 157.17, 216.83 157.33, 216.92 157.5, 217.01 157.67, 217.1 157.83, 217.18 158.0, 217.27 158.17, 217.35 158.33, 217.43 158.5, 217.51 158.67, 217.59 158.83, 217.67 159.0, 217.75 159.17, 217.83 159.33, 217.9 159.5, 217.98 159.67, 218.05 159.83, 218.12 160.0, 218.19 160.17, 218.26 160.33, 218.33 160.5, 218.39 160.67, 218.46 160.83, 218.52 161.0, 218.58 161.17, 218.65 161.33, 218.7 161.5, 218.76 161.67, 218.82 161.83, 218.88 162.0, 218.93 162.17, 218.98 162.33, 219.04 162.5, 219.09 162.67, 219.14 162.83, 219.18 163.0, 219.23 163.17, 219.28 163.33, 219.32 163.5, 219.36 163.67, 219.4 163.83, 219.44 164.0, 219.48 164.17, 219.52 164.33, 219.55 164.5, 219.59 164.67, 219.62 164.83, 219.65 165.0, 219.68 165.17, 219.71 165.33, 219.74 165.5, 219.77 165.67, 219.79 165.83, 219.82 166.0, 219.84 166.17, 219.86 166.33, 219.88 166.5, 219.9 166.67, 219.91 166.83, 219.93 167.0, 219.94 167.17, 219.95 167.33, 219.96 167.5, 219.97 167.67, 219.98 167.83, 219.99 168.0, 219.99 168.17, 220.0 168.33, 220.0 168.5, 220.0 168.67, 220.0 168.83, 220.0 169.0, 220.0 169.17, 219.99 169.33, 219.99 169.5, 219.98 169.67, 219.97 169.83, 219.96 170.0, 219.95 170.17, 219.94 170.33, 219.93 170.5, 219.91 170.67, 219.89 170.83, 219.88 171.0, 219.86 171.17, 219.84 171.33, 219.81 171.5, 219.79 171.67, 219.76 171.83, 219.74 172.0, 219.71 172.17, 219.68 172.33, 219.65 172.5, 219.62 172.67, 219.59 172.83, 219.55 173.0, 219.52 173.17, 219.48 173.33, 219.44 173.5, 219.4 173.67, 219.36 173.83, 219.32 174.0, 219.27 174.17, 219.23 174.33, 219.18 174.5, 219.13 174.67, 219.08 174.83, 219.03 175.0, 218.98 175.17, 218.93 175.33, 218.87 175.5, 218.82 175.67, 218.76 175.83, 218.7 176.0, 218.64 176.17, 218.58 176.33, 218.52 176.5, 218.45 176.67, 218.39 176.83, 218.32 177.0, 218.26 177.17, 218.19 177.33, 218.12 177.5, 218.05 177.67, 217.97 177.83, 217.9 178.0, 217.82 178.17, 217.75 178.33, 217.67 178.5, 217.59 178.67, 217.51 178.83, 217.43 179.0, 217.35 179.17, 217.27 179.33, 217.18 179.5, 217.09 179.67, 217.01 179.83, 216.92 180.0, 216.83 180.17, 216.74 180.33, 216.65 180.5, 216.55 180.67, 216.46 180.83, 216.36 181.0, 216.27 181.17, 216.17 181.33, 216.07 181.5, 215.97 181.67, 215.87 181.83, 215.77 182.0, 215.67 182.17, 215.56 182.33, 215.46 182.5, 215.35 182.67, 215.24 182.83, 215.14 183.0, 215.03 183.17, 214.92 183.33, 214.8 183.5, 214.69 183.67, 214.58 183.83, 214.46 184.0, 214.35 184.17, 214.23 184.33, 214.11 184.5, 213.99 184.67, 213.87 184.83, 213.75 185.0, 213.63 185.17, 213.51 185.33, 213.39 185.5, 213.26 185.67, 213.14 185.83, 213.01 186.0, 212.88 186.17, 212.76 186.33, 212.63 186.5, 212.5 186.67, 212.37 186.83, 212.24 187.0, 212.1 187.17, 211.97 187.33, 211.84 187.5, 211.7 187.67, 211.57 187.83, 211.43 188.0, 211.29 188.17, 211.15 188.33, 211.02 188.5, 210.88 188.67, 210.74 188.83, 210.6 189.0, 210.45 189.17, 210.31 189.33, 210.17 189.5, 210.02 189.67, 209.88 189.83, 209.73 190.0, 209.59 190.17, 209.44 190.33, 209.29 190.5, 209.15 190.67, 209.0 190.83, 208.85 191.0, 208.7 191.17, 208.55 191.33, 208.4 191.5, 208.25 191.67, 208.09 191.83, 207.94 192.0, 207.79 192.17, 207.63 192.33, 207.48 192.5, 207.33 192.67, 207.17 192.83, 207.01 193.0, 206.86 193.17, 206.7 193.33, 206.54 193.5, 206.39 193.67, 206.23 193.83, 206.07 194.0, 205.91 194.17, 205.75 194.33, 205.59 194.5, 205.43 194.67, 205.27 194.83, 205.11 195.0, 204.95 195.17, 204.79 195.33, 204.62 195.5, 204.46 195.67, 204.3 195.83, 204.14 196.0, 203.97 196.17, 203.81 196.33, 203.65 196.5, 203.48 196.67, 203.32 196.83, 203.15 197.0, 202.99 197.17, 202.82 197.33, 202.66 197.5, 202.49 197.67, 202.33 197.83, 202.16 198.0, 202.0 198.17, 201.83 198.33, 201.66 198.5, 201.5 198.67, 201.33 198.83, 201.17 199.0, 201.0 199.17, 200.83 199.33, 200.67 199.5, 200.5 199.67, 200.33 199.83, 200.17 200.0, 200.0 200.17, 199.83 200.33, 199.67 200.5, 199.5 200.67, 199.33 200.83, 199.17 201.0, 199.0 201.17, 198.83 201.33, 198.67 201.5, 198.5 201.67, 198.34 201.83, 198.17 202.0, 198.0 202.17, 197.84 202.33, 197.67 202.5, 197.51 202.67, 197.34 202.83, 197.18 203.0, 197.01 203.17, 196.85 203.33, 196.68 203.5, 196.52 203.67, 196.35 203.83, 196.19 204.0, 196.03 204.17, 195.86 204.33, 195.7 204.5, 195.54 204.67, 195.38 204.83, 195.21 205.0, 195.05 205.17, 194.89 205.33, 194.73 205.5, 194.57 205.67, 194.41 205.83, 194.25 206.0, 194.09 206.17, 193.93 206.33, 193.77 206.5, 193.61 206.67, 193.46 206.83, 193.3 207.0, 193.14 207.17, 192.99 207.33, 192.83 207.5, 192.67 207.67, 192.52 207.83, 192.37 208.0, 192.21 208.17, 192.06 208.33, 191.91 208.5, 191.75 208.67, 191.6 208.83, 191.45 209.0, 191.3 209.17, 191.15 209.33, 191.0 209.5, 190.85 209.67, 190.71 209.83, 190.56 210.0, 190.41 210.17, 190.27 210.33, 190.12 210.5, 189.98 210.67, 189.83 210.83, 189.69 211.0, 189.55 211.17, 189.4 211.33, 189.26 211.5, 189.12 211.67, 188.98 211.83, 188.85 212.0, 188.71 212.17, 188.57 212.33, 188.43 212.5, 188.3 212.67, 188.16 212.83, 188.03 213.0, 187.9 213.17, 187.76 213.33, 187.63 213.5, 187.5 213.67, 187.37 213.83, 187.24 214.0, 187.12 214.17, 186.99 214.33, 186.86 214.5, 186.74 214.67, 186.61 214.83, 186.49 215.0, 186.37 215.17, 186.25 215.33, 186.13 215.5, 186.01 215.67, 185.89 215.83, 185.77 216.0, 185.65 216.17, 185.54 216.33, 185.42 216.5, 185.31 216.67, 185.2 216.83, 185.08 217.0, 184.97 217.17, 184.86 217.33, 184.76 217.5, 184.65 217.67, 184.54 217.83, 184.44 218.0, 184.33 218.17, 184.23 218.33, 184.13 218.5, 184.03 218.67, 183.93 218.83, 183.83 219.0, 183.73 219.17, 183.64 219.33, 183.54 219.5, 183.45 219.67, 183.35 219.83, 183.26 220.0, 183.17 220.17, 183.08 220.33, 182.99 220.5, 182.91 220.67, 182.82 220.83, 182.73 221.0, 182.65 221.17, 182.57 221.33, 182.49 221.5, 182.41 221.67, 182.33 221.83, 182.25 222.0, 182.18 222.17, 182.1 222.33, 182.03 222.5, 181.95 222.67, 181.88 222.83, 181.81 223.0, 181.74 223.17, 181.68 223.33, 181.61 223.5, 181.55 223.67, 181.48 223.83, 181.42 224.0, 181.36 224.17, 181.3 224.33, 181.24 224.5, 181.18 224.67, 181.13 224.83, 181.07 225.0, 181.02 225.17, 180.97 225.33, 180.92 225.5, 180.87 225.67, 180.82 225.83, 180.77 226.0, 180.73 226.17, 180.68 226.33, 180.64 226.5, 180.6 226.67, 180.56 226.83, 180.52 227.0, 180.48 227.17, 180.45 227.33, 180.41 227.5, 180.38 227.67, 180.35 227.83, 180.32 228.0, 180.29 228.17, 180.26 228.33, 180.24 228.5, 180.21 228.67, 180.19 228.83, 180.16 229.0, 180.14 229.17, 180.12 229.33, 180.11 229.5, 180.09 229.67, 180.07 229.83, 180.06 230.0, 180.05 230.17, 180.04 230.33, 180.03 230.5, 180.02 230.67, 180.01 230.83, 180.01 231.0, 180.0 231.17, 180.0 231.33, 180.0 231.5, 180.0 231.67, 180.0 231.83, 180.0 232.0, 180.01 232.17, 180.01 232.33, 180.02 232.5, 180.03 232.67, 180.04 232.83, 180.05 233.0, 180.06 233.17, 180.07 233.33, 180.09 233.5, 180.1 233.67, 180.12 233.83, 180.14 234.0, 180.16 234.17, 180.18 234.33, 180.21 234.5, 180.23 234.67, 180.26 234.83, 180.29 235.0, 180.32 235.17, 180.35 235.33, 180.38 235.5, 180.41 235.67, 180.45 235.83, 180.48 236.0, 180.52 236.17, 180.56 236.33, 180.6 236.5, 180.64 236.67, 180.68 236.83, 180.72 237.0, 180.77 237.17, 180.82 237.33, 180.86 237.5, 180.91 237.67, 180.96 237.83, 181.02 238.0, 181.07 238.17, 181.12 238.33, 181.18 238.5, 181.24 238.67, 181.3 238.83, 181.35 239.0, 181.42 239.17, 181.48 239.33, 181.54 239.5, 181.61 239.67, 181.67 239.83, 181.74 240.0, 181.81 240.17, 181.88 240.33, 181.95 240.5, 182.02 240.67, 182.1 240.83, 182.17 241.0, 182.25 241.17, 182.33 241.33, 182.41 241.5, 182.49 241.67, 182.57 241.83, 182.65 242.0, 182.73 242.17, 182.82 242.33, 182.9 242.5, 182.99 242.67, 183.08 242.83, 183.17 243.0, 183.26 243.17, 183.35 243.33, 183.45 243.5, 183.54 243.67, 183.64 243.83, 183.73 244.0, 183.83 244.17, 183.93 244.33, 184.03 244.5, 184.13 244.67, 184.24 244.83, 184.34 245.0, 184.44 245.17, 184.55 245.33, 184.66 245.5, 184.77 245.67, 184.87 245.83, 184.98 246.0, 185.1 246.17, 185.21 246.33, 185.32 246.5, 185.44 246.67, 185.55 246.83, 185.67 247.0, 185.79 247.17, 185.91 247.33, 186.03 247.5, 186.15 247.67, 186.27 247.83, 186.39 248.0, 186.52 248.17, 186.64 248.33, 186.77 248.5, 186.89 248.67, 187.02 248.83, 187.15 249.0, 187.28 249.17, 187.41 249.33, 187.54 249.5, 187.67 249.67, 187.81 249.83, 187.94 250.0, 188.08 250.17, 188.21 250.33, 188.35 250.5, 188.49 250.67, 188.63 250.83, 188.77 251.0, 188.91 251.17, 189.05 251.33, 189.19 251.5, 189.34 251.67, 189.48 251.83, 189.63 252.0, 189.77 252.17, 189.92 252.33, 190.07 252.5, 190.22 252.67, 190.36 252.83, 190.51 253.0, 190.67 253.17, 190.82 253.33, 190.97 253.5, 191.12 253.67, 191.28 253.83, 191.43 254.0, 191.59 254.17, 191.74 254.33, 191.9 254.5, 192.06 254.67, 192.22 254.83, 192.38 255.0, 192.54 255.17, 192.7 255.33, 192.86 255.5, 193.02 255.67, 193.18 255.83, 193.35 256.0, 193.51 256.17, 193.67 256.33, 193.84 256.5, 194.01 256.67, 194.17 256.83, 194.34 257.0, 194.51 257.17, 194.68 257.33, 194.85 257.5, 195.02 257.67, 195.19 257.83, 195.36 258.0, 195.53 258.17, 195.7 258.33, 195.87 258.5, 196.05 258.67, 196.22 258.83, 196.4 259.0, 196.57 259.17, 196.75 259.33, 196.92 259.5, 197.1 259.67, 197.28 259.83, 197.46 260.0, 197.64 260.17, 197.82 260.33, 198.0 260.5, 198.18 260.67, 198.36 260.83, 198.54 261.0, 198.72 261.17, 198.9 261.33, 199.09 261.5, 199.27 261.67, 199.45 261.83, 199.64 262.0, 199.82 262.17, 200.01 262.33, 200.2 262.5, 200.38 262.67, 200.57 262.83, 200.76 263.0, 200.95 263.17, 201.13 263.33, 201.32 263.5, 201.51 263.67, 201.7 263.83, 201.89 264.0, 202.09 264.17, 202.28 264.33, 202.47 264.5, 202.66 264.67, 202.86 264.83, 203.05 265.0, 203.24 265.17, 203.44 265.33, 203.63 265.5, 203.83 265.67, 204.03 265.83, 204.22 266.0, 204.42 266.17, 204.62 266.33, 204.82 266.5, 205.01 266.67, 205.21 266.83, 205.41 267.0, 205.61 267.17, 205.81 267.33, 206.02 267.5, 206.22 267.67, 206.42 267.83, 206.62 268.0, 206.83 268.17, 207.03 268.33, 207.24 268.5, 207.44 268.67, 207.65 268.83, 207.85 269.0, 208.06 269.17, 208.27 269.33, 208.48 269.5, 208.69 269.67, 208.9 269.83, 209.11 270.0, 209.32 270.17, 209.53 270.33, 209.74 270.5, 209.95 270.67, 210.17 270.83, 210.38 271.0, 210.59 271.17, 210.81 271.33, 211.03 271.5, 211.24 271.67, 211.46 271.83, 211.68 272.0, 211.9 272.17, 212.12 272.33, 212.34 272.5, 212.56 272.67, 212.78 272.83, 213.0 273.0, 213.23 273.17, 213.45 273.33, 213.68 273.5, 213.9 273.67, 214.13 273.83, 214.36 274.0, 214.59 274.17, 214.82 274.33, 215.05 274.5, 215.28 274.67, 215.51 274.83, 215.75 275.0, 215.98 275.17, 216.22 275.33, 216.45 275.5, 216.69 275.67, 216.93 275.83, 217.17 276.0, 217.41 276.17, 217.66 276.33, 217.9 276.5, 218.14 276.67, 218.39 276.83, 218.64 277.0, 218.89 277.17, 219.14 277.33, 219.39 277.5, 219.64 277.67, 219.9 277.83, 220.15 278.0, 220.41 278.17, 220.67 278.33, 220.93 278.5, 221.19 278.67, 221.45 278.83, 221.72 279.0, 221.98 279.17, 222.25 279.33, 222.52 279.5, 222.79 279.67, 223.07 279.83, 223.34 280.0, 223.62 280.17, 223.9 280.33, 224.18 280.5, 224.46 280.67, 224.75 280.83, 225.03 281.0, 225.32 281.17, 225.61 281.33, 225.9 281.5, 226.2 281.67, 226.5 281.83, 226.79 282.0, 227.1 282.17, 227.4 282.33, 227.71 282.5, 228.01 282.67, 228.33 282.83, 228.64 283.0, 228.96 283.17, 229.27 283.33, 229.6 283.5, 229.92 283.67, 230.25 283.83, 230.58 284.0, 230.91 284.17, 231.24 284.33, 231.58 284.5, 231.92 284.67, 232.27 284.83, 232.61 285.0, 232.96 285.17, 233.32 285.33, 233.67 285.5, 234.03 285.67, 234.4 285.83, 234.76 286.0, 235.13 286.17, 235.51 286.33, 235.88 286.5, 236.26 286.67, 236.65 286.83, 237.04 287.0, 237.43 287.17, 237.82 287.33, 238.22 287.5, 238.63 287.67, 239.04 287.83, 239.45 288.0, 239.87 288.17, 240.29 288.33, 240.71 288.5, 241.14 288.67, 241.57 288.83, 242.01 289.0, 242.46 289.17, 242.9 289.33, 243.36 289.5, 243.81 289.67, 244.28 289.83, 244.74 290.0, 245.22 290.17, 245.69 290.33, 246.18 290.5, 246.67 290.67, 247.16 290.83, 247.66 291.0, 248.16 291.17, 248.68 291.33, 249.19 291.5, 249.71 291.67, 250.24 291.83, 250.78 292.0, 251.32 292.17, 251.86 292.33, 252.42 292.5, 252.97 292.67, 253.54 292.83, 254.11 293.0, 254.69 293.17, 255.28 293.33, 255.87 293.5, 256.47 293.67, 257.08 293.83, 257.69 294.0, 258.31 294.17, 258.94 294.33, 259.58 294.5, 260.22 294.67, 260.87 294.83, 261.53 295.0, 262.2 295.17, 262.87 295.33, 263.55 295.5, 264.25 295.67, 264.95 295.83, 265.65 296.0, 266.37 296.17, 267.1 296.33, 267.83 296.5, 268.57 296.67, 269.33 296.83, 270.09 297.0, 270.86 297.17, 271.64 297.33, 272.43 297.5, 273.23 297.67, 274.04 297.83, 274.86 298.0, 275.69 298.17, 276.53 298.33, 277.38 298.5, 278.24 298.67, 279.11 298.83, 279.99 299.0, 280.88 299.17, 281.79 299.33, 282.7 299.5, 283.63 299.67, 284.57 299.83, 285.52 300.0, 286.48 300.17, 287.45 300.33, 288.44 300.5, 289.43 300.67, 290.44 300.83, 291.47 301.0, 292.5 301.17, 293.55 301.33, 294.61 301.5, 295.68 301.67, 296.77 301.83, 297.87 302.0, 298.99 302.17, 300.11 302.33, 301.26 302.5, 302.41 302.67, 303.58 302.83, 304.77 303.0, 305.97 303.17, 307.18 303.33, 308.41 303.5, 309.66 303.67, 310.92 303.83, 312.2 304.0, 313.49 304.17, 314.79 304.33, 316.12 304.5, 317.46 304.67, 318.82 304.83, 320.19 305.0, 321.58 305.17, 322.99 305.33, 324.41 305.5, 325.85 305.67, 327.31 305.83, 328.79 306.0, 330.28 306.17, 331.8 306.33, 333.33 306.5, 334.88 306.67, 336.45 306.83, 338.04 307.0, 339.65 307.17, 341.28 307.33, 342.92 307.5, 344.59 307.67, 346.28 307.83, 347.99 308.0, 349.72 308.17, 351.47 308.33, 353.24 308.5, 355.03 308.67, 356.84 308.83, 358.68 309.0, 360.54 309.17, 362.42 309.33, 364.32 309.5, 366.24 309.67, 368.19 309.83, 370.16 310.0, 372.16 310.17, 374.18 310.33, 376.22 310.5, 378.29 310.67, 380.38 310.83, 382.49 311.0, 384.63 311.17, 386.8 311.33, 388.99 311.5, 391.21 311.67, 393.45 311.83, 395.72 312.0, 398.02 312.17, 400.34 312.33, 402.7 312.5, 405.07 312.67, 407.48 312.83, 409.91 313.0, 412.38 313.17, 414.87 313.33, 417.39 313.5, 419.93 313.67, 422.51 313.83, 425.12 314.0, 427.76 314.17, 430.43 314.33, 433.13 314.5, 435.86 314.67, 438.62 314.83, 441.41 315.0, 444.23 315.17, 447.09 315.33, 449.98 315.5, 452.9 315.67, 455.86 315.83, 458.85 316.0, 461.87 316.17, 464.92 316.33, 468.02 316.5, 471.14 316.67, 474.3 316.83, 477.5 317.0, 480.73 317.17, 484.0 317.33, 487.3 317.5, 490.64 317.67, 494.02 317.83, 497.44 318.0, 500.89 318.17, 504.39 318.33, 507.92 318.5, 511.49 318.67, 515.1 318.83, 518.74 319.0, 522.43 319.17, 526.16 319.33, 529.93 319.5, 533.74 319.67, 537.6 319.83, 541.49 320.0, 545.43 320.17, 549.41 320.33, 553.43 320.5, 557.5 320.67, 561.61 320.83, 565.76 321.0, 569.96 321.17, 574.21 321.33, 578.5 321.5, 582.83 321.67, 587.21 321.83, 591.64 322.0, 596.12 322.17, 600.64 322.33, 605.21 322.5, 609.83 322.67, 614.5 322.83, 619.22 323.0, 623.99 323.17, 628.81 323.33, 633.67 323.5, 638.59 323.67, 643.56 323.83, 648.59 324.0, 653.66 324.17, 658.79 324.33, 663.97 324.5, 669.21 324.67, 674.5 324.83, 679.84 325.0, 685.24 325.17, 690.7 325.33, 696.21 325.5, 701.78 325.67, 707.4 325.83, 713.08 326.0, 718.82 326.17, 724.62 326.33, 730.48 326.5, 736.4 326.67, 742.38 326.83, 748.41 327.0, 754.51 327.17, 760.68 327.33, 766.9 327.5, 773.18 327.67, 779.53 327.83, 785.95 328.0, 792.42 328.17, 798.96 328.33, 805.57 328.5, 812.24 328.67, 818.98 328.83, 825.79 329.0, 832.66 329.17, 839.6 329.33, 846.61 329.5, 853.69 329.67, 860.84 329.83, 868.06 330.0, 875.34 330.17, 882.71 330.33, 890.14 330.5, 897.64 330.67, 905.22 330.83, 912.87 331.0, 920.6 331.17, 928.4 331.33, 936.28 331.5, 944.23 331.67, 952.26 331.83, 960.36 332.0, 968.55 332.17, 976.81 332.33, 985.15 332.5, 993.58 332.67, 1002.08 332.83, 1010.66 333.0, 1019.33 333.17, 1028.07 333.33, 1036.9 333.5, 1045.82 333.67, 1054.81 333.83, 1063.9 334.0, 1073.06 334.17, 1082.32 334.33, 1091.66 334.5, 1101.09 334.67, 1110.6 334.83, 1120.21 335.0, 1129.91 335.17, 1139.69 335.33, 1149.57 335.5, 1159.54 335.67, 1169.6 335.83, 1179.75 336.0, 1190.0 336.17, 1200.34 336.33, 1210.77 336.5, 1221.31 336.67, 1231.94 336.83, 1242.66 337.0, 1253.49 337.17, 1264.41 337.33, 1275.43 337.5, 1286.55 337.67, 1297.78 337.83, 1309.1 338.0, 1320.53 338.17, 1332.06 338.33, 1343.7 338.5, 1355.44 338.67, 1367.28 338.83, 1379.24 339.0, 1391.29 339.17, 1403.46 339.33, 1415.74 339.5, 1428.12 339.67, 1440.62 339.83, 1453.22 340.0, 1465.94 340.17, 1478.77 340.33, 1491.72 340.5, 1504.78 340.67, 1517.95 340.83, 1531.24 341.0, 1544.65 341.17, 1558.17 341.33, 1571.82 341.5, 1585.58 341.67, 1599.46 341.83, 1613.46 342.0, 1627.59 342.17, 1641.84 342.33, 1656.21 342.5, 1670.71 342.67, 1685.33 342.83, 1700.08 343.0, 1714.95 343.17, 1729.95 343.33, 1745.09 343.5, 1760.35 343.67, 1775.74 343.83, 1791.27 344.0, 1806.92 344.17, 1822.72 344.33, 1838.64 344.5, 1854.7 344.67, 1870.9 344.83, 1887.23 345.0, 1903.71 345.17, 1920.32 345.33, 1937.07 345.5, 1953.96 345.67, 1971.0 345.83, 1988.18 346.0, 2005.5 346.17, 2022.97 346.33, 2040.58 346.5, 2058.34 346.67, 2076.25 346.83, 2094.31 347.0, 2112.51 347.17, 2130.87 347.33, 2149.38 347.5, 2168.05 347.67, 2186.87 347.83, 2205.84 348.0, 2224.97 348.17, 2244.25 348.33, 2263.7 348.5, 2283.3 348.67, 2303.07 348.83, 2322.99 349.0, 2343.08 349.17, 2363.34 349.33, 2383.75 349.5, 2404.34 349.67, 2425.09 349.83, 2446.0 350.0, 2467.09 350.17, 2488.35 350.33, 2509.78 350.5, 2531.38 350.67, 2553.15 350.83, 2575.1 351.0, 2597.23 351.17, 2619.53 351.33, 2642.01 351.5, 2664.67 351.67, 2687.51 351.83, 2710.53 352.0, 2733.74 352.17, 2757.13 352.33, 2780.7 352.5, 2804.46 352.67, 2828.41 352.83, 2852.55 353.0, 2876.88 353.17, 2901.4 353.33, 2926.11 353.5, 2951.01 353.67, 2976.11 353.83, 3001.41 354.0, 3026.9 354.17, 3052.59 354.33, 3078.49 354.5, 3104.58 354.67, 3130.88 354.83, 3157.38 355.0, 3184.08 355.17, 3210.99 355.33, 3238.11 355.5, 3265.44 355.67, 3292.98 355.83, 3320.73 356.0, 3348.69 356.17, 3376.87 356.33, 3405.26 356.5, 3433.87 356.67, 3462.7 356.83, 3491.75 357.0, 3521.02 357.17, 3550.51 357.33, 3580.22 357.5, 3610.16 357.67, 3640.33 357.83, 3670.72 358.0, 3701.35 358.17, 3732.2 358.33, 3763.29 358.5, 3794.61 358.67, 3826.16 358.83, 3857.96 359.0, 3889.98 359.17, 3922.25 359.33, 3954.76 359.5, 3987.51 359.67, 4020.51 359.83, 4053.75 360.0, 4087.24 360.17, 4120.97 360.33, 4154.96 360.5, 4189.19 360.67, 4223.68 360.83, 4258.43 361.0, 4293.43 361.17, 4328.68 361.33, 4364.2 361.5, 4399.97 361.67, 4436.01 361.83, 4472.31 362.0, 4508.87 362.17, 4545.71 362.33, 4582.81 362.5, 4620.18 362.67, 4657.82 362.83, 4695.73 363.0, 4733.92 363.17, 4772.38 363.33, 4811.13 363.5, 4850.15 363.67, 4889.45 363.83, 4929.04 364.0, 4968.91 364.17, 5009.07 364.33, 5049.51 364.5, 5090.24 364.67, 5131.27 364.83, 5172.58 365.0, 5214.2 365.17, 5256.1 365.33, 5298.31 365.5, 5340.81 365.67, 5383.62 365.83, 5426.73 366.0, 5470.15 366.17, 5513.87 366.33, 5557.9 366.5, 5602.24 366.67, 5646.89 366.83, 5691.85 367.0, 5737.13 367.17, 5782.73 367.33, 5828.65 367.5, 5874.89 367.67, 5921.45 367.83, 5968.33 368.0, 6015.54 368.17, 6063.08 368.33, 6110.95 368.5, 6159.16 368.67, 6207.69 368.83, 6256.56 369.0, 6305.77 369.17, 6355.32 369.33, 6405.21 369.5, 6455.45 369.67, 6506.02 369.83, 6556.95 370.0, 6608.23 370.17, 6659.85 370.33, 6711.83 370.5, 6764.17 370.67, 6816.86 370.83, 6869.91 371.0, 6923.32 371.17, 6977.09 371.33, 7031.23 371.5, 7085.74 371.67, 7140.61 371.83, 7195.86 372.0, 7251.48 372.17, 7307.47 372.33, 7363.85 372.5, 7420.6 372.67, 7477.73 372.83, 7535.25 373.0, 7593.15 373.17, 7651.44 373.33, 7710.12 373.5, 7769.19 373.67, 7828.65 373.83, 7888.51 374.0, 7948.77 374.17, 8009.43 374.33, 8070.49 374.5, 8131.96 374.67, 8193.83 374.83, 8256.12 375.0, 8318.81 375.17, 8381.92 375.33, 8445.45 375.5, 8509.39 375.67, 8573.75 375.83, 8638.54 376.0, 8703.75 376.17, 8769.38 376.33, 8835.45 376.5, 8901.95 376.67, 8968.88 376.83, 9036.25 377.0, 9104.06 377.17, 9172.3 377.33, 9241.0 377.5, 9310.13 377.67, 9379.72 377.83, 9449.75 378.0, 9520.24 378.17, 9591.18 378.33, 9662.58 378.5, 9734.44 378.67, 9806.77 378.83, 9879.55 379.0, 9952.81 379.17, 10026.53 379.33, 10100.73 379.5, 10175.4 379.67, 10250.55 379.83, 10326.17 380.0, 10402.28 380.17, 10478.88 380.33, 10555.96 380.5, 10633.53 380.67, 10711.59 380.83, 10790.15 381.0, 10869.2 381.17, 10948.75 381.33, 11028.81 381.5, 11109.37 381.67, 11190.44 381.83, 11272.02 382.0, 11354.11 382.17, 11436.71 382.33, 11519.84 382.5, 11603.48 382.67, 11687.65 382.83, 11772.35 383.0, 11857.57 383.17, 11943.32 383.33, 12029.61 383.5, 12116.43 383.67, 12203.8 383.83, 12291.71 384.0, 12380.16 384.17, 12469.16 384.33, 12558.7 384.5, 12648.81 384.67, 12739.47 384.83, 12830.68 385.0, 12922.46 385.17, 13014.81 385.33, 13107.72 385.5, 13201.2 385.67, 13295.25 385.83, 13389.88 386.0, 13485.09 386.17, 13580.88 386.33, 13677.25 386.5, 13774.21 386.67, 13871.77 386.83, 13969.91 387.0, 14068.65 387.17, 14167.99 387.33, 14267.94 387.5, 14368.49 387.67, 14469.64 387.83, 14571.41 388.0, 14673.79 388.17, 14776.79 388.33, 14880.41 388.5, 14984.65 388.67, 15089.52 388.83, 15195.01 389.0, 15301.14 389.17, 15407.91 389.33, 15515.31 389.5, 15623.36 389.67, 15732.05 389.83, 15841.39 390.0, 15951.38 390.17, 16062.02 390.33, 16173.32 390.5, 16285.29 390.67, 16397.91 390.83, 16511.21 391.0, 16625.17 391.17, 16739.81 391.33, 16855.12 391.5, 16971.11 391.67, 17087.79 391.83, 17205.16 392.0, 17323.21 392.17, 17441.96 392.33, 17561.4 392.5, 17681.55 392.67, 17802.39 392.83, 17923.95 393.0, 18046.21 393.17, 18169.19 393.33, 18292.88 393.5, 18417.3 393.67, 18542.43 393.83, 18668.3 394.0, 18794.9 394.17, 18922.22 394.33, 19050.29 394.5, 19179.1 394.67, 19308.65 394.83, 19438.95 395.0, 19570.0 395.17, 19701.81 395.33, 19834.38 395.5, 19967.7 395.67, 20101.8 395.83, 20236.66 396.0, 20372.3 396.17, 20508.71 396.33, 20645.9 396.5, 20783.88 396.67, 20922.64 396.83, 21062.2 397.0, 21202.55 397.17, 21343.7 397.33, 21485.65 397.5, 21628.4 397.67, 21771.97 397.83, 21916.35 398.0, 22061.55 398.17, 22207.56 398.33, 22354.41 398.5, 22502.08 398.67, 22650.58 398.83, 22799.92 399.0, 22950.1 399.17, 23101.13 399.33, 23253.0 399.5, 23405.73 399.67, 23559.31 399.83, 23713.74 400.0, 23869.05 " fill="none" stroke="white" stroke-width="1.5" stroke-linejoin="round" stroke-opacity="1"/>

 </svg>