<svg version="1.1" 
 baseProfile="full" 
 width="400" 
 height="400" 
 xmlns="http://www.w3.org/2000/svg">
<rect x="0.0" y="0.0" width="400" height="400" fill="black" stroke="black" stroke-width="0" opacity="1"/>
<line x1="0.0" y1="0.0" x2="0.0" y2="400.0" stroke="white" stroke-width="1" opacity="0.4" stroke-linecap="butt"/>
<line x1="40.0" y1="0.0" x2="40.0" y2="400.0" stroke="white" stroke-width="1" opacity="0.4" stroke-linecap="butt"/>
<line x1="80.0" y1="0.0" x2="80.0" y2="400.0" stroke="white" stroke-width="1" opacity="0.4" stroke-linecap="butt"/>
<line x1="120.0" y1="0.0" x2="120.0" y2="400.0" stroke="white" stroke-width="1" opacity="0.4" stroke-linecap="butt"/>
<line x1="160.0" y1="0.0" x2="160.0" y2="400.0" stroke="white" stroke-width="1" opacity="0.4" stroke-linecap="butt"/>
<line x1="200.0" y1="0.0" x2="200.0" y2="400.0" stroke="white" stroke-width="1" opacity="0.4" stroke-linecap="butt"/>
<line x1="240.0" y1="0.0" x2="240.0" y2="400.0" stroke="white" stroke-width="1" opacity="0.4" stroke-linecap="butt"/>
<line x1="280.0" y1="0.0" x2="280.0" y2="400.0" stroke="white" stroke-width="1" opacity="0.4" stroke-linecap="butt"/>
<line x1="320.0" y1="0.0" x2="320.0" y2="400.0" stroke="white" stroke-width="1" opacity="0.4" stroke-linecap="butt"/>
<line x1="360.0" y1="0.0" x2="360.0" y2="400.0" stroke="white" stroke-width="1" opacity="0.4" stroke-linecap="butt"/>
<line x1="0.0" y1="0.0" x2="400.0" y2="0.0" stroke="white" stroke-width="1" opacity="0.4" stroke-linecap="butt"/>
<line x1="0.0" y1="40.0" x2="400.0" y2="40.0" stroke="white" stroke-width="1" opacity="0.4" stroke-linecap="butt"/>
<line x1="0.0" y1="80.0" x2="400.0" y2="80.0" stroke="white" stroke-width="1" opacity="0.4" stroke-linecap="butt"/>
<line x1="0.0" y1="120.0" x2="400.0" y2="120.0" stroke="white" stroke-width="1" opacity="0.4" stroke-linecap="butt"/>
<line x1="0.0" y1="160.0" x2="400.0" y2="160.0" stroke="white" stroke-width="1" opacity="0.4" stroke-linecap="butt"/>
<line x1="0.0" y1="200.0" x2="400.0" y2="200.0" stroke="white" stroke-width="1" opacity="0.4" stroke-linecap="butt"/>
<line x1="0.0" y1="240.0" x2="400.0" y2="240.0" stroke="white" stroke-width="1" opacity="0.4" stroke-linecap="butt"/>
<line x1="0.0" y1="280.0" x2="400.0" y2="280.0" stroke="white" stroke-width="1" opacity="0.4" stroke-linecap="butt"/>
<line x1="0.0" y1="320.0" x2="400.0" y2="320.0" stroke="white" stroke-width="1" opacity="0.4" stroke-linecap="butt"/>
<line x1="0.0" y1="360.0" x2="400.0" y2="360.0" stroke="white" stroke-width="1" opacity="0.4" stroke-linecap="butt"/>
<line x1="0.0" y1="200.0" x2="400.0" y2="200.0" stroke="yellow" stroke-width="2.5" opacity="1" stroke-linecap="butt"/>
<line x1="200.0" y1="0.0" x2="200.0" y2="400.0" stroke="yellow" stroke-width="2.5" opacity="1" stroke-linecap="butt"/>
<polygon points="391.0 204.0, 401.0 200.0, 391.0 196.0, 393.0 200.0" fill="yellow"/><polygon points="204.0 9.0, 200.0 -1.0, 196.0 9.0, 200.0 7.0" fill="yellow"/><image x="-60.0" y="-60.0" width="200" height="200" href="/Users/girirajhira/PycharmProjects/Giraphics3/Taylor/expr.png"/><polyline points="0.0, -24957.14 0.17, -24793.18 0.33, -24630.13 0.5, -24467.97 0.67, -24306.72 0.83, -24146.36 1.0, -23986.89 1.17, -23828.31 1.33, -23670.61 1.5, -23513.79 1.67, -23357.84 1.83, -23202.76 2.0, -23048.55 2.17, -22895.2 2.33, -22742.71 2.5, -22591.07 2.67, -22440.29 2.83, -22290.35 3.0, -22141.25 3.17, -21992.99 3.33, -21845.57 3.5, -21698.98 3.67, -21553.21 3.83, -21408.27 4.0, -21264.15 4.17, -21120.84 4.33, -20978.35 4.5, -20836.67 4.67, -20695.78 4.83, -20555.7 5.0, -20416.42 5.17, -20277.93 5.33, -20140.23 5.5, -20003.32 5.67, -19867.18 5.83, -19731.83 6.0, -19597.25 6.17, -19463.44 6.33, -19330.4 6.5, -19198.13 6.67, -19066.61 6.83, -18935.85 7.0, -18805.85 7.17, -18676.59 7.33, -18548.08 7.5, -18420.32 7.67, -18293.29 7.83, -18167.0 8.0, -18041.44 8.17, -17916.6 8.33, -17792.5 8.5, -17669.11 8.67, -17546.45 8.83, -17424.5 9.0, -17303.26 9.17, -17182.73 9.33, -17062.9 9.5, -16943.77 9.67, -16825.35 9.83, -16707.61 10.0, -16590.57 10.17, -16474.22 10.33, -16358.55 10.5, -16243.56 10.67, -16129.25 10.83, -16015.61 11.0, -15902.65 11.17, -15790.35 11.33, -15678.72 11.5, -15567.75 11.67, -15457.44 11.83, -15347.79 12.0, -15238.79 12.17, -15130.43 12.33, -15022.72 12.5, -14915.66 12.67, -14809.23 12.83, -14703.44 13.0, -14598.29 13.17, -14493.76 13.33, -14389.86 13.5, -14286.59 13.67, -14183.93 13.83, -14081.9 14.0, -13980.48 14.17, -13879.67 14.33, -13779.47 14.5, -13679.87 14.67, -13580.88 14.83, -13482.49 15.0, -13384.69 15.17, -13287.49 15.33, -13190.88 15.5, -13094.86 15.67, -12999.42 15.83, -12904.56 16.0, -12810.29 16.17, -12716.58 16.33, -12623.46 16.5, -12530.9 16.67, -12438.91 16.83, -12347.49 17.0, -12256.63 17.17, -12166.32 17.33, -12076.58 17.5, -11987.38 17.67, -11898.74 17.83, -11810.65 18.0, -11723.1 18.17, -11636.09 18.33, -11549.62 18.5, -11463.69 18.67, -11378.3 18.83, -11293.43 19.0, -11209.1 19.17, -11125.29 19.33, -11042.0 19.5, -10959.23 19.67, -10876.99 19.83, -10795.25 20.0, -10714.03 20.17, -10633.33 20.33, -10553.12 20.5, -10473.43 20.67, -10394.23 20.83, -10315.54 21.0, -10237.34 21.17, -10159.63 21.33, -10082.42 21.5, -10005.7 21.67, -9929.47 21.83, -9853.71 22.0, -9778.45 22.17, -9703.66 22.33, -9629.34 22.5, -9555.5 22.67, -9482.14 22.83, -9409.24 23.0, -9336.81 23.17, -9264.84 23.33, -9193.34 23.5, -9122.29 23.67, -9051.71 23.83, -8981.57 24.0, -8911.89 24.17, -8842.66 24.33, -8773.88 24.5, -8705.55 24.67, -8637.65 24.83, -8570.2 25.0, -8503.18 25.17, -8436.6 25.33, -8370.46 25.5, -8304.74 25.67, -8239.46 25.83, -8174.6 26.0, -8110.16 26.17, -8046.15 26.33, -7982.56 26.5, -7919.38 26.67, -7856.62 26.83, -7794.28 27.0, -7732.34 27.17, -7670.81 27.33, -7609.69 27.5, -7548.98 27.67, -7488.66 27.83, -7428.75 28.0, -7369.23 28.17, -7310.11 28.33, -7251.38 28.5, -7193.04 28.67, -7135.1 28.83, -7077.54 29.0, -7020.36 29.17, -6963.57 29.33, -6907.16 29.5, -6851.12 29.67, -6795.47 29.83, -6740.18 30.0, -6685.27 30.17, -6630.74 30.33, -6576.56 30.5, -6522.76 30.67, -6469.32 30.83, -6416.24 31.0, -6363.52 31.17, -6311.16 31.33, -6259.16 31.5, -6207.51 31.67, -6156.21 31.83, -6105.27 32.0, -6054.67 32.17, -6004.41 32.33, -5954.51 32.5, -5904.94 32.67, -5855.72 32.83, -5806.83 33.0, -5758.28 33.17, -5710.07 33.33, -5662.19 33.5, -5614.64 33.67, -5567.42 33.83, -5520.52 34.0, -5473.96 34.17, -5427.71 34.33, -5381.79 34.5, -5336.19 34.67, -5290.9 34.83, -5245.94 35.0, -5201.28 35.17, -5156.94 35.33, -5112.91 35.5, -5069.19 35.67, -5025.78 35.83, -4982.67 36.0, -4939.87 36.17, -4897.37 36.33, -4855.17 36.5, -4813.27 36.67, -4771.66 36.83, -4730.35 37.0, -4689.33 37.17, -4648.61 37.33, -4608.17 37.5, -4568.03 37.67, -4528.17 37.83, -4488.59 38.0, -4449.3 38.17, -4410.29 38.33, -4371.56 38.5, -4333.11 38.67, -4294.94 38.83, -4257.04 39.0, -4219.41 39.17, -4182.06 39.33, -4144.98 39.5, -4108.16 39.67, -4071.61 39.83, -4035.33 40.0, -3999.31 40.17, -3963.56 40.33, -3928.06 40.5, -3892.83 40.67, -3857.85 40.83, -3823.13 41.0, -3788.66 41.17, -3754.45 41.33, -3720.48 41.5, -3686.77 41.67, -3653.31 41.83, -3620.09 42.0, -3587.12 42.17, -3554.39 42.33, -3521.91 42.5, -3489.66 42.67, -3457.66 42.83, -3425.9 43.0, -3394.37 43.17, -3363.07 43.33, -3332.01 43.5, -3301.19 43.67, -3270.59 43.83, -3240.22 44.0, -3210.08 44.17, -3180.17 44.33, -3150.49 44.5, -3121.03 44.67, -3091.79 44.83, -3062.77 45.0, -3033.97 45.17, -3005.39 45.33, -2977.03 45.5, -2948.88 45.67, -2920.95 45.83, -2893.23 46.0, -2865.72 46.17, -2838.42 46.33, -2811.33 46.5, -2784.45 46.67, -2757.78 46.83, -2731.31 47.0, -2705.05 47.17, -2678.99 47.33, -2653.13 47.5, -2627.47 47.67, -2602.0 47.83, -2576.74 48.0, -2551.67 48.17, -2526.8 48.33, -2502.12 48.5, -2477.64 48.67, -2453.34 48.83, -2429.24 49.0, -2405.32 49.17, -2381.59 49.33, -2358.05 49.5, -2334.7 49.67, -2311.52 49.83, -2288.53 50.0, -2265.73 50.17, -2243.1 50.33, -2220.65 50.5, -2198.38 50.67, -2176.29 50.83, -2154.37 51.0, -2132.63 51.17, -2111.07 51.33, -2089.67 51.5, -2068.45 51.67, -2047.39 51.83, -2026.51 52.0, -2005.79 52.17, -1985.24 52.33, -1964.86 52.5, -1944.64 52.67, -1924.58 52.83, -1904.69 53.0, -1884.96 53.17, -1865.38 53.33, -1845.97 53.5, -1826.72 53.67, -1807.62 53.83, -1788.68 54.0, -1769.9 54.17, -1751.26 54.33, -1732.78 54.5, -1714.46 54.67, -1696.28 54.83, -1678.26 55.0, -1660.38 55.17, -1642.65 55.33, -1625.07 55.5, -1607.63 55.67, -1590.34 55.83, -1573.19 56.0, -1556.19 56.17, -1539.33 56.33, -1522.61 56.5, -1506.02 56.67, -1489.58 56.83, -1473.28 57.0, -1457.11 57.17, -1441.08 57.33, -1425.18 57.5, -1409.42 57.67, -1393.79 57.83, -1378.3 58.0, -1362.93 58.17, -1347.7 58.33, -1332.6 58.5, -1317.62 58.67, -1302.77 58.83, -1288.05 59.0, -1273.46 59.17, -1258.99 59.33, -1244.65 59.5, -1230.42 59.67, -1216.33 59.83, -1202.35 60.0, -1188.49 60.17, -1174.76 60.33, -1161.14 60.5, -1147.64 60.67, -1134.26 60.83, -1121.0 61.0, -1107.85 61.17, -1094.81 61.33, -1081.89 61.5, -1069.09 61.67, -1056.39 61.83, -1043.81 62.0, -1031.34 62.17, -1018.98 62.33, -1006.73 62.5, -994.58 62.67, -982.55 62.83, -970.62 63.0, -958.79 63.17, -947.08 63.33, -935.46 63.5, -923.95 63.67, -912.55 63.83, -901.24 64.0, -890.04 64.17, -878.94 64.33, -867.94 64.5, -857.03 64.67, -846.23 64.83, -835.52 65.0, -824.91 65.17, -814.4 65.33, -803.98 65.5, -793.66 65.67, -783.43 65.83, -773.3 66.0, -763.25 66.17, -753.3 66.33, -743.44 66.5, -733.68 66.67, -724.0 66.83, -714.41 67.0, -704.91 67.17, -695.49 67.33, -686.17 67.5, -676.93 67.67, -667.78 67.83, -658.71 68.0, -649.73 68.17, -640.83 68.33, -632.01 68.5, -623.28 68.67, -614.63 68.83, -606.06 69.0, -597.57 69.17, -589.16 69.33, -580.83 69.5, -572.58 69.67, -564.41 69.83, -556.31 70.0, -548.29 70.17, -540.35 70.33, -532.49 70.5, -524.7 70.67, -516.98 70.83, -509.34 71.0, -501.77 71.17, -494.27 71.33, -486.85 71.5, -479.5 71.67, -472.22 71.83, -465.01 72.0, -457.87 72.17, -450.8 72.33, -443.8 72.5, -436.86 72.67, -430.0 72.83, -423.2 73.0, -416.46 73.17, -409.8 73.33, -403.2 73.5, -396.66 73.67, -390.19 73.83, -383.78 74.0, -377.44 74.17, -371.16 74.33, -364.94 74.5, -358.78 74.67, -352.69 74.83, -346.65 75.0, -340.68 75.17, -334.76 75.33, -328.91 75.5, -323.11 75.67, -317.37 75.83, -311.69 76.0, -306.07 76.17, -300.5 76.33, -294.99 76.5, -289.54 76.67, -284.14 76.83, -278.79 77.0, -273.5 77.17, -268.27 77.33, -263.09 77.5, -257.96 77.67, -252.88 77.83, -247.86 78.0, -242.89 78.17, -237.96 78.33, -233.09 78.5, -228.27 78.67, -223.5 78.83, -218.78 79.0, -214.11 79.17, -209.49 79.33, -204.91 79.5, -200.38 79.67, -195.91 79.83, -191.47 80.0, -187.09 80.17, -182.75 80.33, -178.45 80.5, -174.2 80.67, -170.0 80.83, -165.84 81.0, -161.72 81.17, -157.65 81.33, -153.62 81.5, -149.63 81.67, -145.69 81.83, -141.79 82.0, -137.93 82.17, -134.11 82.33, -130.33 82.5, -126.59 82.67, -122.9 82.83, -119.24 83.0, -115.62 83.17, -112.04 83.33, -108.5 83.5, -105.0 83.67, -101.54 83.83, -98.11 84.0, -94.72 84.17, -91.37 84.33, -88.06 84.5, -84.78 84.67, -81.54 84.83, -78.33 85.0, -75.16 85.17, -72.02 85.33, -68.92 85.5, -65.85 85.67, -62.82 85.83, -59.82 86.0, -56.85 86.17, -53.91 86.33, -51.01 86.5, -48.14 86.67, -45.31 86.83, -42.5 87.0, -39.73 87.17, -36.98 87.33, -34.27 87.5, -31.59 87.67, -28.94 87.83, -26.31 88.0, -23.72 88.17, -21.16 88.33, -18.62 88.5, -16.12 88.67, -13.64 88.83, -11.19 89.0, -8.77 89.17, -6.38 89.33, -4.01 89.5, -1.67 89.67, 0.64 89.83, 2.93 90.0, 5.19 90.17, 7.42 90.33, 9.63 90.5, 11.81 90.67, 13.97 90.83, 16.1 91.0, 18.21 91.17, 20.3 91.33, 22.35 91.5, 24.39 91.67, 26.4 91.83, 28.39 92.0, 30.36 92.17, 32.3 92.33, 34.22 92.5, 36.12 92.67, 38.0 92.83, 39.85 93.0, 41.68 93.17, 43.49 93.33, 45.28 93.5, 47.05 93.67, 48.8 93.83, 50.53 94.0, 52.23 94.17, 53.92 94.33, 55.59 94.5, 57.24 94.67, 58.86 94.83, 60.47 95.0, 62.06 95.17, 63.63 95.33, 65.19 95.5, 66.72 95.67, 68.24 95.83, 69.73 96.0, 71.21 96.17, 72.68 96.33, 74.12 96.5, 75.55 96.67, 76.96 96.83, 78.35 97.0, 79.73 97.17, 81.09 97.33, 82.44 97.5, 83.77 97.67, 85.08 97.83, 86.38 98.0, 87.66 98.17, 88.93 98.33, 90.18 98.5, 91.41 98.67, 92.64 98.83, 93.84 99.0, 95.04 99.17, 96.21 99.33, 97.38 99.5, 98.53 99.67, 99.66 99.83, 100.79 100.0, 101.9 100.17, 102.99 100.33, 104.08 100.5, 105.15 100.67, 106.2 100.83, 107.25 101.0, 108.28 101.17, 109.3 101.33, 110.31 101.5, 111.3 101.67, 112.29 101.83, 113.26 102.0, 114.22 102.17, 115.17 102.33, 116.11 102.5, 117.03 102.67, 117.95 102.83, 118.85 103.0, 119.75 103.17, 120.63 103.33, 121.5 103.5, 122.37 103.67, 123.22 103.83, 124.06 104.0, 124.89 104.17, 125.72 104.33, 126.53 104.5, 127.33 104.67, 128.13 104.83, 128.91 105.0, 129.69 105.17, 130.45 105.33, 131.21 105.5, 131.96 105.67, 132.7 105.83, 133.43 106.0, 134.15 106.17, 134.86 106.33, 135.57 106.5, 136.27 106.67, 136.96 106.83, 137.64 107.0, 138.31 107.17, 138.98 107.33, 139.64 107.5, 140.29 107.67, 140.93 107.83, 141.57 108.0, 142.2 108.17, 142.82 108.33, 143.44 108.5, 144.04 108.67, 144.65 108.83, 145.24 109.0, 145.83 109.17, 146.41 109.33, 146.98 109.5, 147.55 109.67, 148.12 109.83, 148.67 110.0, 149.22 110.17, 149.77 110.33, 150.31 110.5, 150.84 110.67, 151.36 110.83, 151.89 111.0, 152.4 111.17, 152.91 111.33, 153.42 111.5, 153.92 111.67, 154.41 111.83, 154.9 112.0, 155.38 112.17, 155.86 112.33, 156.34 112.5, 156.81 112.67, 157.27 112.83, 157.73 113.0, 158.19 113.17, 158.64 113.33, 159.08 113.5, 159.52 113.67, 159.96 113.83, 160.39 114.0, 160.82 114.17, 161.25 114.33, 161.67 114.5, 162.08 114.67, 162.5 114.83, 162.91 115.0, 163.31 115.17, 163.71 115.33, 164.11 115.5, 164.5 115.67, 164.89 115.83, 165.28 116.0, 165.66 116.17, 166.04 116.33, 166.42 116.5, 166.79 116.67, 167.16 116.83, 167.53 117.0, 167.89 117.17, 168.25 117.33, 168.61 117.5, 168.96 117.67, 169.31 117.83, 169.66 118.0, 170.01 118.17, 170.35 118.33, 170.69 118.5, 171.02 118.67, 171.36 118.83, 171.69 119.0, 172.02 119.17, 172.35 119.33, 172.67 119.5, 172.99 119.67, 173.31 119.83, 173.63 120.0, 173.94 120.17, 174.26 120.33, 174.56 120.5, 174.87 120.67, 175.18 120.83, 175.48 121.0, 175.78 121.17, 176.08 121.33, 176.38 121.5, 176.67 121.67, 176.97 121.83, 177.26 122.0, 177.55 122.17, 177.84 122.33, 178.12 122.5, 178.41 122.67, 178.69 122.83, 178.97 123.0, 179.25 123.17, 179.52 123.33, 179.8 123.5, 180.07 123.67, 180.34 123.83, 180.62 124.0, 180.88 124.17, 181.15 124.33, 181.42 124.5, 181.68 124.67, 181.94 124.83, 182.21 125.0, 182.47 125.17, 182.73 125.33, 182.98 125.5, 183.24 125.67, 183.49 125.83, 183.75 126.0, 184.0 126.17, 184.25 126.33, 184.5 126.5, 184.75 126.67, 185.0 126.83, 185.24 127.0, 185.49 127.17, 185.73 127.33, 185.98 127.5, 186.22 127.67, 186.46 127.83, 186.7 128.0, 186.94 128.17, 187.18 128.33, 187.41 128.5, 187.65 128.67, 187.88 128.83, 188.12 129.0, 188.35 129.17, 188.58 129.33, 188.81 129.5, 189.04 129.67, 189.27 129.83, 189.5 130.0, 189.73 130.17, 189.95 130.33, 190.18 130.5, 190.4 130.67, 190.63 130.83, 190.85 131.0, 191.07 131.17, 191.29 131.33, 191.52 131.5, 191.74 131.67, 191.95 131.83, 192.17 132.0, 192.39 132.17, 192.61 132.33, 192.82 132.5, 193.04 132.67, 193.25 132.83, 193.47 133.0, 193.68 133.17, 193.89 133.33, 194.11 133.5, 194.32 133.67, 194.53 133.83, 194.74 134.0, 194.95 134.17, 195.15 134.33, 195.36 134.5, 195.57 134.67, 195.78 134.83, 195.98 135.0, 196.19 135.17, 196.39 135.33, 196.59 135.5, 196.8 135.67, 197.0 135.83, 197.2 136.0, 197.4 136.17, 197.6 136.33, 197.8 136.5, 198.0 136.67, 198.2 136.83, 198.4 137.0, 198.6 137.17, 198.79 137.33, 198.99 137.5, 199.18 137.67, 199.38 137.83, 199.57 138.0, 199.77 138.17, 199.96 138.33, 200.15 138.5, 200.34 138.67, 200.53 138.83, 200.72 139.0, 200.91 139.17, 201.1 139.33, 201.29 139.5, 201.48 139.67, 201.67 139.83, 201.85 140.0, 202.04 140.17, 202.22 140.33, 202.41 140.5, 202.59 140.67, 202.77 140.83, 202.96 141.0, 203.14 141.17, 203.32 141.33, 203.5 141.5, 203.68 141.67, 203.86 141.83, 204.04 142.0, 204.21 142.17, 204.39 142.33, 204.57 142.5, 204.74 142.67, 204.92 142.83, 205.09 143.0, 205.27 143.17, 205.44 143.33, 205.61 143.5, 205.78 143.67, 205.95 143.83, 206.12 144.0, 206.29 144.17, 206.46 144.33, 206.63 144.5, 206.79 144.67, 206.96 144.83, 207.12 145.0, 207.29 145.17, 207.45 145.33, 207.61 145.5, 207.78 145.67, 207.94 145.83, 208.1 146.0, 208.26 146.17, 208.42 146.33, 208.57 146.5, 208.73 146.67, 208.89 146.83, 209.04 147.0, 209.2 147.17, 209.35 147.33, 209.5 147.5, 209.66 147.67, 209.81 147.83, 209.96 148.0, 210.11 148.17, 210.26 148.33, 210.4 148.5, 210.55 148.67, 210.7 148.83, 210.84 149.0, 210.99 149.17, 211.13 149.33, 211.27 149.5, 211.41 149.67, 211.55 149.83, 211.69 150.0, 211.83 150.17, 211.97 150.33, 212.11 150.5, 212.24 150.67, 212.38 150.83, 212.51 151.0, 212.64 151.17, 212.77 151.33, 212.9 151.5, 213.03 151.67, 213.16 151.83, 213.29 152.0, 213.42 152.17, 213.54 152.33, 213.67 152.5, 213.79 152.67, 213.91 152.83, 214.03 153.0, 214.15 153.17, 214.27 153.33, 214.39 153.5, 214.51 153.67, 214.62 153.83, 214.74 154.0, 214.85 154.17, 214.97 154.33, 215.08 154.5, 215.19 154.67, 215.3 154.83, 215.41 155.0, 215.51 155.17, 215.62 155.33, 215.72 155.5, 215.83 155.67, 215.93 155.83, 216.03 156.0, 216.13 156.17, 216.23 156.33, 216.33 156.5, 216.42 156.67, 216.52 156.83, 216.61 157.0, 216.71 157.17, 216.8 157.33, 216.89 157.5, 216.98 157.67, 217.07 157.83, 217.15 158.0, 217.24 158.17, 217.32 158.33, 217.41 158.5, 217.49 158.67, 217.57 158.83, 217.65 159.0, 217.73 159.17, 217.81 159.33, 217.88 159.5, 217.96 159.67, 218.03 159.83, 218.1 160.0, 218.17 160.17, 218.24 160.33, 218.31 160.5, 218.38 160.67, 218.44 160.83, 218.51 161.0, 218.57 161.17, 218.63 161.33, 218.69 161.5, 218.75 161.67, 218.81 161.83, 218.86 162.0, 218.92 162.17, 218.97 162.33, 219.02 162.5, 219.07 162.67, 219.12 162.83, 219.17 163.0, 219.22 163.17, 219.26 163.33, 219.31 163.5, 219.35 163.67, 219.39 163.83, 219.43 164.0, 219.47 164.17, 219.51 164.33, 219.55 164.5, 219.58 164.67, 219.61 164.83, 219.65 165.0, 219.68 165.17, 219.71 165.33, 219.73 165.5, 219.76 165.67, 219.79 165.83, 219.81 166.0, 219.83 166.17, 219.85 166.33, 219.87 166.5, 219.89 166.67, 219.91 166.83, 219.92 167.0, 219.94 167.17, 219.95 167.33, 219.96 167.5, 219.97 167.67, 219.98 167.83, 219.98 168.0, 219.99 168.17, 219.99 168.33, 220.0 168.5, 220.0 168.67, 220.0 168.83, 220.0 169.0, 220.0 169.17, 219.99 169.33, 219.99 169.5, 219.98 169.67, 219.97 169.83, 219.96 170.0, 219.95 170.17, 219.94 170.33, 219.92 170.5, 219.91 170.67, 219.89 170.83, 219.87 171.0, 219.85 171.17, 219.83 171.33, 219.81 171.5, 219.79 171.67, 219.76 171.83, 219.74 172.0, 219.71 172.17, 219.68 172.33, 219.65 172.5, 219.62 172.67, 219.58 172.83, 219.55 173.0, 219.51 173.17, 219.48 173.33, 219.44 173.5, 219.4 173.67, 219.36 173.83, 219.32 174.0, 219.27 174.17, 219.23 174.33, 219.18 174.5, 219.13 174.67, 219.08 174.83, 219.03 175.0, 218.98 175.17, 218.93 175.33, 218.87 175.5, 218.82 175.67, 218.76 175.83, 218.7 176.0, 218.64 176.17, 218.58 176.33, 218.52 176.5, 218.45 176.67, 218.39 176.83, 218.32 177.0, 218.26 177.17, 218.19 177.33, 218.12 177.5, 218.05 177.67, 217.97 177.83, 217.9 178.0, 217.82 178.17, 217.75 178.33, 217.67 178.5, 217.59 178.67, 217.51 178.83, 217.43 179.0, 217.35 179.17, 217.26 179.33, 217.18 179.5, 217.09 179.67, 217.01 179.83, 216.92 180.0, 216.83 180.17, 216.74 180.33, 216.65 180.5, 216.55 180.67, 216.46 180.83, 216.36 181.0, 216.27 181.17, 216.17 181.33, 216.07 181.5, 215.97 181.67, 215.87 181.83, 215.77 182.0, 215.67 182.17, 215.56 182.33, 215.46 182.5, 215.35 182.67, 215.24 182.83, 215.14 183.0, 215.03 183.17, 214.92 183.33, 214.8 183.5, 214.69 183.67, 214.58 183.83, 214.46 184.0, 214.35 184.17, 214.23 184.33, 214.11 184.5, 213.99 184.67, 213.87 184.83, 213.75 185.0, 213.63 185.17, 213.51 185.33, 213.39 185.5, 213.26 185.67, 213.14 185.83, 213.01 186.0, 212.88 186.17, 212.76 186.33, 212.63 186.5, 212.5 186.67, 212.37 186.83, 212.24 187.0, 212.1 187.17, 211.97 187.33, 211.84 187.5, 211.7 187.67, 211.57 187.83, 211.43 188.0, 211.29 188.17, 211.15 188.33, 211.02 188.5, 210.88 188.67, 210.74 188.83, 210.6 189.0, 210.45 189.17, 210.31 189.33, 210.17 189.5, 210.02 189.67, 209.88 189.83, 209.73 190.0, 209.59 190.17, 209.44 190.33, 209.29 190.5, 209.15 190.67, 209.0 190.83, 208.85 191.0, 208.7 191.17, 208.55 191.33, 208.4 191.5, 208.25 191.67, 208.09 191.83, 207.94 192.0, 207.79 192.17, 207.63 192.33, 207.48 192.5, 207.33 192.67, 207.17 192.83, 207.01 193.0, 206.86 193.17, 206.7 193.33, 206.54 193.5, 206.39 193.67, 206.23 193.83, 206.07 194.0, 205.91 194.17, 205.75 194.33, 205.59 194.5, 205.43 194.67, 205.27 194.83, 205.11 195.0, 204.95 195.17, 204.79 195.33, 204.62 195.5, 204.46 195.67, 204.3 195.83, 204.14 196.0, 203.97 196.17, 203.81 196.33, 203.65 196.5, 203.48 196.67, 203.32 196.83, 203.15 197.0, 202.99 197.17, 202.82 197.33, 202.66 197.5, 202.49 197.67, 202.33 197.83, 202.16 198.0, 202.0 198.17, 201.83 198.33, 201.66 198.5, 201.5 198.67, 201.33 198.83, 201.17 199.0, 201.0 199.17, 200.83 199.33, 200.67 199.5, 200.5 199.67, 200.33 199.83, 200.17 200.0, 200.0 200.17, 199.83 200.33, 199.67 200.5, 199.5 200.67, 199.33 200.83, 199.17 201.0, 199.0 201.17, 198.83 201.33, 198.67 201.5, 198.5 201.67, 198.34 201.83, 198.17 202.0, 198.0 202.17, 197.84 202.33, 197.67 202.5, 197.51 202.67, 197.34 202.83, 197.18 203.0, 197.01 203.17, 196.85 203.33, 196.68 203.5, 196.52 203.67, 196.35 203.83, 196.19 204.0, 196.03 204.17, 195.86 204.33, 195.7 204.5, 195.54 204.67, 195.38 204.83, 195.21 205.0, 195.05 205.17, 194.89 205.33, 194.73 205.5, 194.57 205.67, 194.41 205.83, 194.25 206.0, 194.09 206.17, 193.93 206.33, 193.77 206.5, 193.61 206.67, 193.46 206.83, 193.3 207.0, 193.14 207.17, 192.99 207.33, 192.83 207.5, 192.67 207.67, 192.52 207.83, 192.37 208.0, 192.21 208.17, 192.06 208.33, 191.91 208.5, 191.75 208.67, 191.6 208.83, 191.45 209.0, 191.3 209.17, 191.15 209.33, 191.0 209.5, 190.85 209.67, 190.71 209.83, 190.56 210.0, 190.41 210.17, 190.27 210.33, 190.12 210.5, 189.98 210.67, 189.83 210.83, 189.69 211.0, 189.55 211.17, 189.4 211.33, 189.26 211.5, 189.12 211.67, 188.98 211.83, 188.85 212.0, 188.71 212.17, 188.57 212.33, 188.43 212.5, 188.3 212.67, 188.16 212.83, 188.03 213.0, 187.9 213.17, 187.76 213.33, 187.63 213.5, 187.5 213.67, 187.37 213.83, 187.24 214.0, 187.12 214.17, 186.99 214.33, 186.86 214.5, 186.74 214.67, 186.61 214.83, 186.49 215.0, 186.37 215.17, 186.25 215.33, 186.13 215.5, 186.01 215.67, 185.89 215.83, 185.77 216.0, 185.65 216.17, 185.54 216.33, 185.42 216.5, 185.31 216.67, 185.2 216.83, 185.08 217.0, 184.97 217.17, 184.86 217.33, 184.76 217.5, 184.65 217.67, 184.54 217.83, 184.44 218.0, 184.33 218.17, 184.23 218.33, 184.13 218.5, 184.03 218.67, 183.93 218.83, 183.83 219.0, 183.73 219.17, 183.64 219.33, 183.54 219.5, 183.45 219.67, 183.35 219.83, 183.26 220.0, 183.17 220.17, 183.08 220.33, 182.99 220.5, 182.91 220.67, 182.82 220.83, 182.74 221.0, 182.65 221.17, 182.57 221.33, 182.49 221.5, 182.41 221.67, 182.33 221.83, 182.25 222.0, 182.18 222.17, 182.1 222.33, 182.03 222.5, 181.95 222.67, 181.88 222.83, 181.81 223.0, 181.74 223.17, 181.68 223.33, 181.61 223.5, 181.55 223.67, 181.48 223.83, 181.42 224.0, 181.36 224.17, 181.3 224.33, 181.24 224.5, 181.18 224.67, 181.13 224.83, 181.07 225.0, 181.02 225.17, 180.97 225.33, 180.92 225.5, 180.87 225.67, 180.82 225.83, 180.77 226.0, 180.73 226.17, 180.68 226.33, 180.64 226.5, 180.6 226.67, 180.56 226.83, 180.52 227.0, 180.49 227.17, 180.45 227.33, 180.42 227.5, 180.38 227.67, 180.35 227.83, 180.32 228.0, 180.29 228.17, 180.26 228.33, 180.24 228.5, 180.21 228.67, 180.19 228.83, 180.17 229.0, 180.15 229.17, 180.13 229.33, 180.11 229.5, 180.09 229.67, 180.08 229.83, 180.06 230.0, 180.05 230.17, 180.04 230.33, 180.03 230.5, 180.02 230.67, 180.01 230.83, 180.01 231.0, 180.0 231.17, 180.0 231.33, 180.0 231.5, 180.0 231.67, 180.0 231.83, 180.01 232.0, 180.01 232.17, 180.02 232.33, 180.02 232.5, 180.03 232.67, 180.04 232.83, 180.05 233.0, 180.06 233.17, 180.08 233.33, 180.09 233.5, 180.11 233.67, 180.13 233.83, 180.15 234.0, 180.17 234.17, 180.19 234.33, 180.21 234.5, 180.24 234.67, 180.27 234.83, 180.29 235.0, 180.32 235.17, 180.35 235.33, 180.39 235.5, 180.42 235.67, 180.45 235.83, 180.49 236.0, 180.53 236.17, 180.57 236.33, 180.61 236.5, 180.65 236.67, 180.69 236.83, 180.74 237.0, 180.78 237.17, 180.83 237.33, 180.88 237.5, 180.93 237.67, 180.98 237.83, 181.03 238.0, 181.08 238.17, 181.14 238.33, 181.19 238.5, 181.25 238.67, 181.31 238.83, 181.37 239.0, 181.43 239.17, 181.49 239.33, 181.56 239.5, 181.62 239.67, 181.69 239.83, 181.76 240.0, 181.83 240.17, 181.9 240.33, 181.97 240.5, 182.04 240.67, 182.12 240.83, 182.19 241.0, 182.27 241.17, 182.35 241.33, 182.43 241.5, 182.51 241.67, 182.59 241.83, 182.68 242.0, 182.76 242.17, 182.85 242.33, 182.93 242.5, 183.02 242.67, 183.11 242.83, 183.2 243.0, 183.29 243.17, 183.39 243.33, 183.48 243.5, 183.58 243.67, 183.67 243.83, 183.77 244.0, 183.87 244.17, 183.97 244.33, 184.07 244.5, 184.17 244.67, 184.28 244.83, 184.38 245.0, 184.49 245.17, 184.59 245.33, 184.7 245.5, 184.81 245.67, 184.92 245.83, 185.03 246.0, 185.15 246.17, 185.26 246.33, 185.38 246.5, 185.49 246.67, 185.61 246.83, 185.73 247.0, 185.85 247.17, 185.97 247.33, 186.09 247.5, 186.21 247.67, 186.33 247.83, 186.46 248.0, 186.58 248.17, 186.71 248.33, 186.84 248.5, 186.97 248.67, 187.1 248.83, 187.23 249.0, 187.36 249.17, 187.49 249.33, 187.62 249.5, 187.76 249.67, 187.89 249.83, 188.03 250.0, 188.17 250.17, 188.31 250.33, 188.45 250.5, 188.59 250.67, 188.73 250.83, 188.87 251.0, 189.01 251.17, 189.16 251.33, 189.3 251.5, 189.45 251.67, 189.6 251.83, 189.74 252.0, 189.89 252.17, 190.04 252.33, 190.19 252.5, 190.34 252.67, 190.5 252.83, 190.65 253.0, 190.8 253.17, 190.96 253.33, 191.11 253.5, 191.27 253.67, 191.43 253.83, 191.58 254.0, 191.74 254.17, 191.9 254.33, 192.06 254.5, 192.22 254.67, 192.39 254.83, 192.55 255.0, 192.71 255.17, 192.88 255.33, 193.04 255.5, 193.21 255.67, 193.37 255.83, 193.54 256.0, 193.71 256.17, 193.88 256.33, 194.05 256.5, 194.22 256.67, 194.39 256.83, 194.56 257.0, 194.73 257.17, 194.91 257.33, 195.08 257.5, 195.26 257.67, 195.43 257.83, 195.61 258.0, 195.79 258.17, 195.96 258.33, 196.14 258.5, 196.32 258.67, 196.5 258.83, 196.68 259.0, 196.86 259.17, 197.04 259.33, 197.23 259.5, 197.41 259.67, 197.59 259.83, 197.78 260.0, 197.96 260.17, 198.15 260.33, 198.33 260.5, 198.52 260.67, 198.71 260.83, 198.9 261.0, 199.09 261.17, 199.28 261.33, 199.47 261.5, 199.66 261.67, 199.85 261.83, 200.04 262.0, 200.23 262.17, 200.43 262.33, 200.62 262.5, 200.82 262.67, 201.01 262.83, 201.21 263.0, 201.4 263.17, 201.6 263.33, 201.8 263.5, 202.0 263.67, 202.2 263.83, 202.4 264.0, 202.6 264.17, 202.8 264.33, 203.0 264.5, 203.2 264.67, 203.41 264.83, 203.61 265.0, 203.81 265.17, 204.02 265.33, 204.22 265.5, 204.43 265.67, 204.64 265.83, 204.85 266.0, 205.05 266.17, 205.26 266.33, 205.47 266.5, 205.68 266.67, 205.89 266.83, 206.11 267.0, 206.32 267.17, 206.53 267.33, 206.75 267.5, 206.96 267.67, 207.18 267.83, 207.39 268.0, 207.61 268.17, 207.83 268.33, 208.05 268.5, 208.26 268.67, 208.48 268.83, 208.71 269.0, 208.93 269.17, 209.15 269.33, 209.37 269.5, 209.6 269.67, 209.82 269.83, 210.05 270.0, 210.27 270.17, 210.5 270.33, 210.73 270.5, 210.96 270.67, 211.19 270.83, 211.42 271.0, 211.65 271.17, 211.88 271.33, 212.12 271.5, 212.35 271.67, 212.59 271.83, 212.82 272.0, 213.06 272.17, 213.3 272.33, 213.54 272.5, 213.78 272.67, 214.02 272.83, 214.27 273.0, 214.51 273.17, 214.76 273.33, 215.0 273.5, 215.25 273.67, 215.5 273.83, 215.75 274.0, 216.0 274.17, 216.25 274.33, 216.51 274.5, 216.76 274.67, 217.02 274.83, 217.27 275.0, 217.53 275.17, 217.79 275.33, 218.06 275.5, 218.32 275.67, 218.58 275.83, 218.85 276.0, 219.12 276.17, 219.38 276.33, 219.66 276.5, 219.93 276.67, 220.2 276.83, 220.48 277.0, 220.75 277.17, 221.03 277.33, 221.31 277.5, 221.59 277.67, 221.88 277.83, 222.16 278.0, 222.45 278.17, 222.74 278.33, 223.03 278.5, 223.33 278.67, 223.62 278.83, 223.92 279.0, 224.22 279.17, 224.52 279.33, 224.82 279.5, 225.13 279.67, 225.44 279.83, 225.74 280.0, 226.06 280.17, 226.37 280.33, 226.69 280.5, 227.01 280.67, 227.33 280.83, 227.65 281.0, 227.98 281.17, 228.31 281.33, 228.64 281.5, 228.98 281.67, 229.31 281.83, 229.65 282.0, 229.99 282.17, 230.34 282.33, 230.69 282.5, 231.04 282.67, 231.39 282.83, 231.75 283.0, 232.11 283.17, 232.47 283.33, 232.84 283.5, 233.21 283.67, 233.58 283.83, 233.96 284.0, 234.34 284.17, 234.72 284.33, 235.11 284.5, 235.5 284.67, 235.89 284.83, 236.29 285.0, 236.69 285.17, 237.09 285.33, 237.5 285.5, 237.92 285.67, 238.33 285.83, 238.75 286.0, 239.18 286.17, 239.61 286.33, 240.04 286.5, 240.48 286.67, 240.92 286.83, 241.36 287.0, 241.81 287.17, 242.27 287.33, 242.73 287.5, 243.19 287.67, 243.66 287.83, 244.14 288.0, 244.62 288.17, 245.1 288.33, 245.59 288.5, 246.08 288.67, 246.58 288.83, 247.09 289.0, 247.6 289.17, 248.11 289.33, 248.64 289.5, 249.16 289.67, 249.69 289.83, 250.23 290.0, 250.78 290.17, 251.33 290.33, 251.88 290.5, 252.45 290.67, 253.02 290.83, 253.59 291.0, 254.17 291.17, 254.76 291.33, 255.35 291.5, 255.96 291.67, 256.56 291.83, 257.18 292.0, 257.8 292.17, 258.43 292.33, 259.07 292.5, 259.71 292.67, 260.36 292.83, 261.02 293.0, 261.69 293.17, 262.36 293.33, 263.04 293.5, 263.73 293.67, 264.43 293.83, 265.14 294.0, 265.85 294.17, 266.57 294.33, 267.3 294.5, 268.04 294.67, 268.79 294.83, 269.55 295.0, 270.31 295.17, 271.09 295.33, 271.87 295.5, 272.67 295.67, 273.47 295.83, 274.28 296.0, 275.11 296.17, 275.94 296.33, 276.78 296.5, 277.63 296.67, 278.5 296.83, 279.37 297.0, 280.25 297.17, 281.15 297.33, 282.05 297.5, 282.97 297.67, 283.89 297.83, 284.83 298.0, 285.78 298.17, 286.74 298.33, 287.71 298.5, 288.7 298.67, 289.69 298.83, 290.7 299.0, 291.72 299.17, 292.75 299.33, 293.8 299.5, 294.85 299.67, 295.92 299.83, 297.01 300.0, 298.1 300.17, 299.21 300.33, 300.34 300.5, 301.47 300.67, 302.62 300.83, 303.79 301.0, 304.96 301.17, 306.16 301.33, 307.36 301.5, 308.59 301.67, 309.82 301.83, 311.07 302.0, 312.34 302.17, 313.62 302.33, 314.92 302.5, 316.23 302.67, 317.56 302.83, 318.91 303.0, 320.27 303.17, 321.65 303.33, 323.04 303.5, 324.45 303.67, 325.88 303.83, 327.32 304.0, 328.79 304.17, 330.27 304.33, 331.76 304.5, 333.28 304.67, 334.81 304.83, 336.37 305.0, 337.94 305.17, 339.53 305.33, 341.14 305.5, 342.76 305.67, 344.41 305.83, 346.08 306.0, 347.77 306.17, 349.47 306.33, 351.2 306.5, 352.95 306.67, 354.72 306.83, 356.51 307.0, 358.32 307.17, 360.15 307.33, 362.0 307.5, 363.88 307.67, 365.78 307.83, 367.7 308.0, 369.64 308.17, 371.61 308.33, 373.6 308.5, 375.61 308.67, 377.65 308.83, 379.7 309.0, 381.79 309.17, 383.9 309.33, 386.03 309.5, 388.19 309.67, 390.37 309.83, 392.58 310.0, 394.81 310.17, 397.07 310.33, 399.36 310.5, 401.67 310.67, 404.01 310.83, 406.38 311.0, 408.77 311.17, 411.19 311.33, 413.64 311.5, 416.12 311.67, 418.62 311.83, 421.16 312.0, 423.72 312.17, 426.31 312.33, 428.94 312.5, 431.59 312.67, 434.27 312.83, 436.98 313.0, 439.73 313.17, 442.5 313.33, 445.31 313.5, 448.14 313.67, 451.01 313.83, 453.91 314.0, 456.85 314.17, 459.82 314.33, 462.82 314.5, 465.85 314.67, 468.92 314.83, 472.02 315.0, 475.16 315.17, 478.33 315.33, 481.54 315.5, 484.78 315.67, 488.06 315.83, 491.37 316.0, 494.72 316.17, 498.11 316.33, 501.54 316.5, 505.0 316.67, 508.5 316.83, 512.04 317.0, 515.62 317.17, 519.24 317.33, 522.9 317.5, 526.59 317.67, 530.33 317.83, 534.11 318.0, 537.93 318.17, 541.79 318.33, 545.69 318.5, 549.63 318.67, 553.62 318.83, 557.65 319.0, 561.72 319.17, 565.84 319.33, 570.0 319.5, 574.2 319.67, 578.45 319.83, 582.75 320.0, 587.09 320.17, 591.47 320.33, 595.91 320.5, 600.38 320.67, 604.91 320.83, 609.49 321.0, 614.11 321.17, 618.78 321.33, 623.5 321.5, 628.27 321.67, 633.09 321.83, 637.96 322.0, 642.89 322.17, 647.86 322.33, 652.88 322.5, 657.96 322.67, 663.09 322.83, 668.27 323.0, 673.5 323.17, 678.79 323.33, 684.14 323.5, 689.54 323.67, 694.99 323.83, 700.5 324.0, 706.07 324.17, 711.69 324.33, 717.37 324.5, 723.11 324.67, 728.91 324.83, 734.76 325.0, 740.68 325.17, 746.65 325.33, 752.69 325.5, 758.78 325.67, 764.94 325.83, 771.16 326.0, 777.44 326.17, 783.78 326.33, 790.19 326.5, 796.66 326.67, 803.2 326.83, 809.8 327.0, 816.46 327.17, 823.2 327.33, 830.0 327.5, 836.86 327.67, 843.8 327.83, 850.8 328.0, 857.87 328.17, 865.01 328.33, 872.22 328.5, 879.5 328.67, 886.85 328.83, 894.27 329.0, 901.77 329.17, 909.34 329.33, 916.98 329.5, 924.7 329.67, 932.49 329.83, 940.35 330.0, 948.29 330.17, 956.31 330.33, 964.41 330.5, 972.58 330.67, 980.83 330.83, 989.16 331.0, 997.57 331.17, 1006.06 331.33, 1014.63 331.5, 1023.28 331.67, 1032.01 331.83, 1040.83 332.0, 1049.73 332.17, 1058.71 332.33, 1067.78 332.5, 1076.93 332.67, 1086.17 332.83, 1095.49 333.0, 1104.91 333.17, 1114.41 333.33, 1124.0 333.5, 1133.68 333.67, 1143.44 333.83, 1153.3 334.0, 1163.25 334.17, 1173.3 334.33, 1183.43 334.5, 1193.66 334.67, 1203.98 334.83, 1214.4 335.0, 1224.91 335.17, 1235.52 335.33, 1246.23 335.5, 1257.03 335.67, 1267.94 335.83, 1278.94 336.0, 1290.04 336.17, 1301.24 336.33, 1312.55 336.5, 1323.95 336.67, 1335.46 336.83, 1347.08 337.0, 1358.79 337.17, 1370.62 337.33, 1382.55 337.5, 1394.58 337.67, 1406.73 337.83, 1418.98 338.0, 1431.34 338.17, 1443.81 338.33, 1456.39 338.5, 1469.09 338.67, 1481.89 338.83, 1494.81 339.0, 1507.85 339.17, 1521.0 339.33, 1534.26 339.5, 1547.64 339.67, 1561.14 339.83, 1574.76 340.0, 1588.49 340.17, 1602.35 340.33, 1616.33 340.5, 1630.42 340.67, 1644.65 340.83, 1658.99 341.0, 1673.46 341.17, 1688.05 341.33, 1702.77 341.5, 1717.62 341.67, 1732.6 341.83, 1747.7 342.0, 1762.93 342.17, 1778.3 342.33, 1793.79 342.5, 1809.42 342.67, 1825.18 342.83, 1841.08 343.0, 1857.11 343.17, 1873.28 343.33, 1889.58 343.5, 1906.02 343.67, 1922.61 343.83, 1939.33 344.0, 1956.19 344.17, 1973.19 344.33, 1990.34 344.5, 2007.63 344.67, 2025.07 344.83, 2042.65 345.0, 2060.38 345.17, 2078.26 345.33, 2096.28 345.5, 2114.46 345.67, 2132.78 345.83, 2151.26 346.0, 2169.9 346.17, 2188.68 346.33, 2207.62 346.5, 2226.72 346.67, 2245.97 346.83, 2265.38 347.0, 2284.96 347.17, 2304.69 347.33, 2324.58 347.5, 2344.64 347.67, 2364.86 347.83, 2385.24 348.0, 2405.79 348.17, 2426.51 348.33, 2447.39 348.5, 2468.45 348.67, 2489.67 348.83, 2511.07 349.0, 2532.63 349.17, 2554.37 349.33, 2576.29 349.5, 2598.38 349.67, 2620.65 349.83, 2643.1 350.0, 2665.73 350.17, 2688.53 350.33, 2711.52 350.5, 2734.7 350.67, 2758.05 350.83, 2781.59 351.0, 2805.32 351.17, 2829.24 351.33, 2853.34 351.5, 2877.64 351.67, 2902.12 351.83, 2926.8 352.0, 2951.67 352.17, 2976.74 352.33, 3002.0 352.5, 3027.47 352.67, 3053.13 352.83, 3078.99 353.0, 3105.05 353.17, 3131.31 353.33, 3157.78 353.5, 3184.45 353.67, 3211.33 353.83, 3238.42 354.0, 3265.72 354.17, 3293.23 354.33, 3320.95 354.5, 3348.88 354.67, 3377.03 354.83, 3405.39 355.0, 3433.97 355.17, 3462.77 355.33, 3491.79 355.5, 3521.03 355.67, 3550.49 355.83, 3580.17 356.0, 3610.08 356.17, 3640.22 356.33, 3670.59 356.5, 3701.19 356.67, 3732.01 356.83, 3763.07 357.0, 3794.37 357.17, 3825.9 357.33, 3857.66 357.5, 3889.66 357.67, 3921.91 357.83, 3954.39 358.0, 3987.12 358.17, 4020.09 358.33, 4053.31 358.5, 4086.77 358.67, 4120.48 358.83, 4154.45 359.0, 4188.66 359.17, 4223.13 359.33, 4257.85 359.5, 4292.83 359.67, 4328.06 359.83, 4363.56 360.0, 4399.31 360.17, 4435.33 360.33, 4471.61 360.5, 4508.16 360.67, 4544.98 360.83, 4582.06 361.0, 4619.41 361.17, 4657.04 361.33, 4694.94 361.5, 4733.11 361.67, 4771.56 361.83, 4810.29 362.0, 4849.3 362.17, 4888.59 362.33, 4928.17 362.5, 4968.03 362.67, 5008.17 362.83, 5048.61 363.0, 5089.33 363.17, 5130.35 363.33, 5171.66 363.5, 5213.27 363.67, 5255.17 363.83, 5297.37 364.0, 5339.87 364.17, 5382.67 364.33, 5425.78 364.5, 5469.19 364.67, 5512.91 364.83, 5556.94 365.0, 5601.28 365.17, 5645.94 365.33, 5690.9 365.5, 5736.19 365.67, 5781.79 365.83, 5827.71 366.0, 5873.96 366.17, 5920.52 366.33, 5967.42 366.5, 6014.64 366.67, 6062.19 366.83, 6110.07 367.0, 6158.28 367.17, 6206.83 367.33, 6255.72 367.5, 6304.94 367.67, 6354.51 367.83, 6404.41 368.0, 6454.67 368.17, 6505.27 368.33, 6556.21 368.5, 6607.51 368.67, 6659.16 368.83, 6711.16 369.0, 6763.52 369.17, 6816.24 369.33, 6869.32 369.5, 6922.76 369.67, 6976.56 369.83, 7030.74 370.0, 7085.27 370.17, 7140.18 370.33, 7195.47 370.5, 7251.12 370.67, 7307.16 370.83, 7363.57 371.0, 7420.36 371.17, 7477.54 371.33, 7535.1 371.5, 7593.04 371.67, 7651.38 371.83, 7710.11 372.0, 7769.23 372.17, 7828.75 372.33, 7888.66 372.5, 7948.98 372.67, 8009.69 372.83, 8070.81 373.0, 8132.34 373.17, 8194.28 373.33, 8256.62 373.5, 8319.38 373.67, 8382.56 373.83, 8446.15 374.0, 8510.16 374.17, 8574.6 374.33, 8639.46 374.5, 8704.74 374.67, 8770.46 374.83, 8836.6 375.0, 8903.18 375.17, 8970.2 375.33, 9037.65 375.5, 9105.55 375.67, 9173.88 375.83, 9242.66 376.0, 9311.89 376.17, 9381.57 376.33, 9451.71 376.5, 9522.29 376.67, 9593.34 376.83, 9664.84 377.0, 9736.81 377.17, 9809.24 377.33, 9882.14 377.5, 9955.5 377.67, 10029.34 377.83, 10103.66 378.0, 10178.45 378.17, 10253.71 378.33, 10329.47 378.5, 10405.7 378.67, 10482.42 378.83, 10559.63 379.0, 10637.34 379.17, 10715.54 379.33, 10794.23 379.5, 10873.43 379.67, 10953.12 379.83, 11033.33 380.0, 11114.03 380.17, 11195.25 380.33, 11276.99 380.5, 11359.23 380.67, 11442.0 380.83, 11525.29 381.0, 11609.1 381.17, 11693.43 381.33, 11778.3 381.5, 11863.69 381.67, 11949.62 381.83, 12036.09 382.0, 12123.1 382.17, 12210.65 382.33, 12298.74 382.5, 12387.38 382.67, 12476.58 382.83, 12566.32 383.0, 12656.63 383.17, 12747.49 383.33, 12838.91 383.5, 12930.9 383.67, 13023.46 383.83, 13116.58 384.0, 13210.29 384.17, 13304.56 384.33, 13399.42 384.5, 13494.86 384.67, 13590.88 384.83, 13687.49 385.0, 13784.69 385.17, 13882.49 385.33, 13980.88 385.5, 14079.87 385.67, 14179.47 385.83, 14279.67 386.0, 14380.48 386.17, 14481.9 386.33, 14583.93 386.5, 14686.59 386.67, 14789.86 386.83, 14893.76 387.0, 14998.29 387.17, 15103.44 387.33, 15209.23 387.5, 15315.66 387.67, 15422.72 387.83, 15530.43 388.0, 15638.79 388.17, 15747.79 388.33, 15857.44 388.5, 15967.75 388.67, 16078.72 388.83, 16190.35 389.0, 16302.65 389.17, 16415.61 389.33, 16529.25 389.5, 16643.56 389.67, 16758.55 389.83, 16874.22 390.0, 16990.57 390.17, 17107.61 390.33, 17225.35 390.5, 17343.77 390.67, 17462.9 390.83, 17582.73 391.0, 17703.26 391.17, 17824.5 391.33, 17946.45 391.5, 18069.11 391.67, 18192.5 391.83, 18316.6 392.0, 18441.44 392.17, 18567.0 392.33, 18693.29 392.5, 18820.32 392.67, 18948.08 392.83, 19076.59 393.0, 19205.85 393.17, 19335.85 393.33, 19466.61 393.5, 19598.13 393.67, 19730.4 393.83, 19863.44 394.0, 19997.25 394.17, 20131.83 394.33, 20267.18 394.5, 20403.32 394.67, 20540.23 394.83, 20677.93 395.0, 20816.42 395.17, 20955.7 395.33, 21095.78 395.5, 21236.67 395.67, 21378.35 395.83, 21520.84 396.0, 21664.15 396.17, 21808.27 396.33, 21953.21 396.5, 22098.98 396.67, 22245.57 396.83, 22392.99 397.0, 22541.25 397.17, 22690.35 397.33, 22840.29 397.5, 22991.07 397.67, 23142.71 397.83, 23295.2 398.0, 23448.55 398.17, 23602.76 398.33, 23757.84 398.5, 23913.79 398.67, 24070.61 398.83, 24228.31 399.0, 24386.89 399.17, 24546.36 399.33, 24706.72 399.5, 24867.97 399.67, 25030.13 399.83, 25193.18 400.0, 25357.14 " fill="none" stroke="white" stroke-width="1.5" stroke-linejoin="round" stroke-opacity="1"/>

 </svg>