<svg version="1.1" 
 baseProfile="full" 
 width="400" 
 height="400" 
 xmlns="http://www.w3.org/2000/svg">
<rect x="0.0" y="0.0" width="400" height="400" fill="black" stroke="black" stroke-width="0" opacity="1"/>
<line x1="0.0" y1="0.0" x2="0.0" y2="400.0" stroke="white" stroke-width="1" opacity="0.4" stroke-linecap="butt"/>
<line x1="40.0" y1="0.0" x2="40.0" y2="400.0" stroke="white" stroke-width="1" opacity="0.4" stroke-linecap="butt"/>
<line x1="80.0" y1="0.0" x2="80.0" y2="400.0" stroke="white" stroke-width="1" opacity="0.4" stroke-linecap="butt"/>
<line x1="120.0" y1="0.0" x2="120.0" y2="400.0" stroke="white" stroke-width="1" opacity="0.4" stroke-linecap="butt"/>
<line x1="160.0" y1="0.0" x2="160.0" y2="400.0" stroke="white" stroke-width="1" opacity="0.4" stroke-linecap="butt"/>
<line x1="200.0" y1="0.0" x2="200.0" y2="400.0" stroke="white" stroke-width="1" opacity="0.4" stroke-linecap="butt"/>
<line x1="240.0" y1="0.0" x2="240.0" y2="400.0" stroke="white" stroke-width="1" opacity="0.4" stroke-linecap="butt"/>
<line x1="280.0" y1="0.0" x2="280.0" y2="400.0" stroke="white" stroke-width="1" opacity="0.4" stroke-linecap="butt"/>
<line x1="320.0" y1="0.0" x2="320.0" y2="400.0" stroke="white" stroke-width="1" opacity="0.4" stroke-linecap="butt"/>
<line x1="360.0" y1="0.0" x2="360.0" y2="400.0" stroke="white" stroke-width="1" opacity="0.4" stroke-linecap="butt"/>
<line x1="0.0" y1="0.0" x2="400.0" y2="0.0" stroke="white" stroke-width="1" opacity="0.4" stroke-linecap="butt"/>
<line x1="0.0" y1="40.0" x2="400.0" y2="40.0" stroke="white" stroke-width="1" opacity="0.4" stroke-linecap="butt"/>
<line x1="0.0" y1="80.0" x2="400.0" y2="80.0" stroke="white" stroke-width="1" opacity="0.4" stroke-linecap="butt"/>
<line x1="0.0" y1="120.0" x2="400.0" y2="120.0" stroke="white" stroke-width="1" opacity="0.4" stroke-linecap="butt"/>
<line x1="0.0" y1="160.0" x2="400.0" y2="160.0" stroke="white" stroke-width="1" opacity="0.4" stroke-linecap="butt"/>
<line x1="0.0" y1="200.0" x2="400.0" y2="200.0" stroke="white" stroke-width="1" opacity="0.4" stroke-linecap="butt"/>
<line x1="0.0" y1="240.0" x2="400.0" y2="240.0" stroke="white" stroke-width="1" opacity="0.4" stroke-linecap="butt"/>
<line x1="0.0" y1="280.0" x2="400.0" y2="280.0" stroke="white" stroke-width="1" opacity="0.4" stroke-linecap="butt"/>
<line x1="0.0" y1="320.0" x2="400.0" y2="320.0" stroke="white" stroke-width="1" opacity="0.4" stroke-linecap="butt"/>
<line x1="0.0" y1="360.0" x2="400.0" y2="360.0" stroke="white" stroke-width="1" opacity="0.4" stroke-linecap="butt"/>
<line x1="0.0" y1="200.0" x2="400.0" y2="200.0" stroke="yellow" stroke-width="2.5" opacity="1" stroke-linecap="butt"/>
<line x1="200.0" y1="0.0" x2="200.0" y2="400.0" stroke="yellow" stroke-width="2.5" opacity="1" stroke-linecap="butt"/>
<polygon points="391.0 204.0, 401.0 200.0, 391.0 196.0, 393.0 200.0" fill="yellow"/><polygon points="204.0 9.0, 200.0 -1.0, 196.0 9.0, 200.0 7.0" fill="yellow"/><image x="-60.0" y="-60.0" width="200" height="200" href="/Users/girirajhira/PycharmProjects/Giraphics3/Taylor/expr.png"/><polyline points="0.0, -23193.47 0.17, -23044.34 0.33, -22896.0 0.5, -22748.46 0.67, -22601.71 0.83, -22455.75 1.0, -22310.57 1.17, -22166.18 1.33, -22022.56 1.5, -21879.72 1.67, -21737.65 1.83, -21596.35 2.0, -21455.81 2.17, -21316.03 2.33, -21177.01 2.5, -21038.75 2.67, -20901.24 2.83, -20764.47 3.0, -20628.45 3.17, -20493.18 3.33, -20358.64 3.5, -20224.83 3.67, -20091.76 3.83, -19959.42 4.0, -19827.8 4.17, -19696.91 4.33, -19566.73 4.5, -19437.27 4.67, -19308.52 4.83, -19180.48 5.0, -19053.15 5.17, -18926.53 5.33, -18800.6 5.5, -18675.37 5.67, -18550.83 5.83, -18426.99 6.0, -18303.83 6.17, -18181.36 6.33, -18059.56 6.5, -17938.45 6.67, -17818.01 6.83, -17698.25 7.0, -17579.16 7.17, -17460.73 7.33, -17342.96 7.5, -17225.86 7.67, -17109.41 7.83, -16993.62 8.0, -16878.48 8.17, -16763.99 8.33, -16650.14 8.5, -16536.94 8.67, -16424.38 8.83, -16312.45 9.0, -16201.16 9.17, -16090.5 9.33, -15980.47 9.5, -15871.06 9.67, -15762.28 9.83, -15654.11 10.0, -15546.57 10.17, -15439.63 10.33, -15333.31 10.5, -15227.6 10.67, -15122.49 10.83, -15017.99 11.0, -14914.08 11.17, -14810.77 11.33, -14708.06 11.5, -14605.94 11.67, -14504.41 11.83, -14403.46 12.0, -14303.1 12.17, -14203.32 12.33, -14104.11 12.5, -14005.48 12.67, -13907.43 12.83, -13809.94 13.0, -13713.03 13.17, -13616.67 13.33, -13520.88 13.5, -13425.65 13.67, -13330.98 13.83, -13236.86 14.0, -13143.29 14.17, -13050.27 14.33, -12957.8 14.5, -12865.87 14.67, -12774.48 14.83, -12683.63 15.0, -12593.32 15.17, -12503.54 15.33, -12414.29 15.5, -12325.57 15.67, -12237.37 15.83, -12149.7 16.0, -12062.55 16.17, -11975.92 16.33, -11889.81 16.5, -11804.21 16.67, -11719.12 16.83, -11634.53 17.0, -11550.46 17.17, -11466.89 17.33, -11383.82 17.5, -11301.24 17.67, -11219.17 17.83, -11137.59 18.0, -11056.5 18.17, -10975.9 18.33, -10895.78 18.5, -10816.15 18.67, -10737.01 18.83, -10658.34 19.0, -10580.15 19.17, -10502.44 19.33, -10425.19 19.5, -10348.42 19.67, -10272.12 19.83, -10196.28 20.0, -10120.91 20.17, -10046.0 20.33, -9971.54 20.5, -9897.55 20.67, -9824.0 20.83, -9750.91 21.0, -9678.27 21.17, -9606.08 21.33, -9534.34 21.5, -9463.03 21.67, -9392.17 21.83, -9321.75 22.0, -9251.76 22.17, -9182.21 22.33, -9113.09 22.5, -9044.4 22.67, -8976.14 22.83, -8908.3 23.0, -8840.89 23.17, -8773.9 23.33, -8707.33 23.5, -8641.17 23.67, -8575.44 23.83, -8510.11 24.0, -8445.2 24.17, -8380.69 24.33, -8316.59 24.5, -8252.9 24.67, -8189.61 24.83, -8126.72 25.0, -8064.23 25.17, -8002.13 25.33, -7940.43 25.5, -7879.13 25.67, -7818.21 25.83, -7757.68 26.0, -7697.54 26.17, -7637.78 26.33, -7578.41 26.5, -7519.41 26.67, -7460.8 26.83, -7402.56 27.0, -7344.7 27.17, -7287.2 27.33, -7230.08 27.5, -7173.33 27.67, -7116.95 27.83, -7060.93 28.0, -7005.27 28.17, -6949.98 28.33, -6895.04 28.5, -6840.46 28.67, -6786.24 28.83, -6732.37 29.0, -6678.85 29.17, -6625.68 29.33, -6572.87 29.5, -6520.39 29.67, -6468.26 29.83, -6416.48 30.0, -6365.03 30.17, -6313.93 30.33, -6263.16 30.5, -6212.73 30.67, -6162.63 30.83, -6112.86 31.0, -6063.42 31.17, -6014.31 31.33, -5965.53 31.5, -5917.07 31.67, -5868.94 31.83, -5821.12 32.0, -5773.63 32.17, -5726.45 32.33, -5679.59 32.5, -5633.05 32.67, -5586.81 32.83, -5540.89 33.0, -5495.28 33.17, -5449.97 33.33, -5404.98 33.5, -5360.28 33.67, -5315.89 33.83, -5271.8 34.0, -5228.01 34.17, -5184.51 34.33, -5141.31 34.5, -5098.41 34.67, -5055.8 34.83, -5013.48 35.0, -4971.45 35.17, -4929.71 35.33, -4888.25 35.5, -4847.08 35.67, -4806.19 35.83, -4765.59 36.0, -4725.26 36.17, -4685.21 36.33, -4645.44 36.5, -4605.95 36.67, -4566.73 36.83, -4527.78 37.0, -4489.1 37.17, -4450.69 37.33, -4412.55 37.5, -4374.68 37.67, -4337.07 37.83, -4299.72 38.0, -4262.63 38.17, -4225.81 38.33, -4189.24 38.5, -4152.93 38.67, -4116.88 38.83, -4081.08 39.0, -4045.54 39.17, -4010.24 39.33, -3975.2 39.5, -3940.41 39.67, -3905.86 39.83, -3871.55 40.0, -3837.5 40.17, -3803.68 40.33, -3770.11 40.5, -3736.78 40.67, -3703.68 40.83, -3670.82 41.0, -3638.2 41.17, -3605.82 41.33, -3573.66 41.5, -3541.74 41.67, -3510.05 41.83, -3478.59 42.0, -3447.36 42.17, -3416.35 42.33, -3385.57 42.5, -3355.01 42.67, -3324.67 42.83, -3294.56 43.0, -3264.66 43.17, -3234.99 43.33, -3205.53 43.5, -3176.29 43.67, -3147.26 43.83, -3118.45 44.0, -3089.84 44.17, -3061.45 44.33, -3033.27 44.5, -3005.3 44.67, -2977.53 44.83, -2949.97 45.0, -2922.62 45.17, -2895.47 45.33, -2868.52 45.5, -2841.77 45.67, -2815.22 45.83, -2788.87 46.0, -2762.72 46.17, -2736.76 46.33, -2711.0 46.5, -2685.43 46.67, -2660.06 46.83, -2634.88 47.0, -2609.88 47.17, -2585.08 47.33, -2560.46 47.5, -2536.03 47.67, -2511.79 47.83, -2487.73 48.0, -2463.85 48.17, -2440.16 48.33, -2416.65 48.5, -2393.32 48.67, -2370.16 48.83, -2347.19 49.0, -2324.39 49.17, -2301.76 49.33, -2279.31 49.5, -2257.04 49.67, -2234.93 49.83, -2213.0 50.0, -2191.24 50.17, -2169.64 50.33, -2148.22 50.5, -2126.96 50.67, -2105.87 50.83, -2084.94 51.0, -2064.18 51.17, -2043.57 51.33, -2023.13 51.5, -2002.86 51.67, -1982.74 51.83, -1962.77 52.0, -1942.97 52.17, -1923.32 52.33, -1903.83 52.5, -1884.5 52.67, -1865.31 52.83, -1846.28 53.0, -1827.4 53.17, -1808.68 53.33, -1790.1 53.5, -1771.67 53.67, -1753.38 53.83, -1735.25 54.0, -1717.26 54.17, -1699.41 54.33, -1681.71 54.5, -1664.15 54.67, -1646.74 54.83, -1629.46 55.0, -1612.33 55.17, -1595.33 55.33, -1578.47 55.5, -1561.75 55.67, -1545.17 55.83, -1528.72 56.0, -1512.4 56.17, -1496.22 56.33, -1480.18 56.5, -1464.26 56.67, -1448.48 56.83, -1432.82 57.0, -1417.3 57.17, -1401.9 57.33, -1386.63 57.5, -1371.49 57.67, -1356.47 57.83, -1341.58 58.0, -1326.82 58.17, -1312.17 58.33, -1297.65 58.5, -1283.25 58.67, -1268.97 58.83, -1254.81 59.0, -1240.77 59.17, -1226.85 59.33, -1213.05 59.5, -1199.36 59.67, -1185.79 59.83, -1172.33 60.0, -1158.99 60.17, -1145.76 60.33, -1132.65 60.5, -1119.64 60.67, -1106.75 60.83, -1093.97 61.0, -1081.29 61.17, -1068.73 61.33, -1056.27 61.5, -1043.93 61.67, -1031.68 61.83, -1019.55 62.0, -1007.52 62.17, -995.59 62.33, -983.77 62.5, -972.05 62.67, -960.43 62.83, -948.91 63.0, -937.49 63.17, -926.18 63.33, -914.96 63.5, -903.84 63.67, -892.82 63.83, -881.9 64.0, -871.07 64.17, -860.34 64.33, -849.7 64.5, -839.16 64.67, -828.71 64.83, -818.35 65.0, -808.09 65.17, -797.92 65.33, -787.84 65.5, -777.84 65.67, -767.94 65.83, -758.13 66.0, -748.41 66.17, -738.77 66.33, -729.22 66.5, -719.75 66.67, -710.38 66.83, -701.08 67.0, -691.88 67.17, -682.75 67.33, -673.71 67.5, -664.75 67.67, -655.87 67.83, -647.08 68.0, -638.36 68.17, -629.73 68.33, -621.17 68.5, -612.69 68.67, -604.3 68.83, -595.97 69.0, -587.73 69.17, -579.56 69.33, -571.47 69.5, -563.45 69.67, -555.51 69.83, -547.65 70.0, -539.85 70.17, -532.13 70.33, -524.48 70.5, -516.9 70.67, -509.4 70.83, -501.96 71.0, -494.6 71.17, -487.31 71.33, -480.08 71.5, -472.92 71.67, -465.83 71.83, -458.81 72.0, -451.86 72.17, -444.97 72.33, -438.15 72.5, -431.39 72.67, -424.7 72.83, -418.07 73.0, -411.51 73.17, -405.01 73.33, -398.57 73.5, -392.19 73.67, -385.88 73.83, -379.63 74.0, -373.43 74.17, -367.3 74.33, -361.23 74.5, -355.22 74.67, -349.27 74.83, -343.37 75.0, -337.53 75.17, -331.75 75.33, -326.03 75.5, -320.36 75.67, -314.75 75.83, -309.2 76.0, -303.7 76.17, -298.26 76.33, -292.86 76.5, -287.53 76.67, -282.24 76.83, -277.01 77.0, -271.83 77.17, -266.71 77.33, -261.63 77.5, -256.61 77.67, -251.63 77.83, -246.71 78.0, -241.84 78.17, -237.01 78.33, -232.24 78.5, -227.51 78.67, -222.83 78.83, -218.2 79.0, -213.62 79.17, -209.08 79.33, -204.59 79.5, -200.15 79.67, -195.75 79.83, -191.39 80.0, -187.09 80.17, -182.82 80.33, -178.6 80.5, -174.43 80.67, -170.29 80.83, -166.2 81.0, -162.16 81.17, -158.15 81.33, -154.19 81.5, -150.26 81.67, -146.38 81.83, -142.54 82.0, -138.74 82.17, -134.98 82.33, -131.26 82.5, -127.58 82.67, -123.94 82.83, -120.34 83.0, -116.77 83.17, -113.24 83.33, -109.75 83.5, -106.3 83.67, -102.88 83.83, -99.5 84.0, -96.16 84.17, -92.85 84.33, -89.58 84.5, -86.34 84.67, -83.14 84.83, -79.97 85.0, -76.84 85.17, -73.74 85.33, -70.68 85.5, -67.64 85.67, -64.64 85.83, -61.67 86.0, -58.74 86.17, -55.84 86.33, -52.97 86.5, -50.13 86.67, -47.32 86.83, -44.54 87.0, -41.79 87.17, -39.07 87.33, -36.39 87.5, -33.73 87.67, -31.1 87.83, -28.5 88.0, -25.93 88.17, -23.39 88.33, -20.87 88.5, -18.39 88.67, -15.93 88.83, -13.5 89.0, -11.09 89.17, -8.72 89.33, -6.37 89.5, -4.04 89.67, -1.74 89.83, 0.53 90.0, 2.77 90.17, 5.0 90.33, 7.19 90.5, 9.36 90.67, 11.51 90.83, 13.63 91.0, 15.73 91.17, 17.81 91.33, 19.86 91.5, 21.89 91.67, 23.89 91.83, 25.87 92.0, 27.83 92.17, 29.77 92.33, 31.69 92.5, 33.58 92.67, 35.45 92.83, 37.3 93.0, 39.13 93.17, 40.94 93.33, 42.73 93.5, 44.49 93.67, 46.24 93.83, 47.97 94.0, 49.67 94.17, 51.36 94.33, 53.03 94.5, 54.68 94.67, 56.31 94.83, 57.92 95.0, 59.51 95.17, 61.08 95.33, 62.63 95.5, 64.17 95.67, 65.69 95.83, 67.19 96.0, 68.68 96.17, 70.14 96.33, 71.59 96.5, 73.02 96.67, 74.44 96.83, 75.84 97.0, 77.22 97.17, 78.59 97.33, 79.94 97.5, 81.28 97.67, 82.6 97.83, 83.9 98.0, 85.19 98.17, 86.46 98.33, 87.72 98.5, 88.97 98.67, 90.2 98.83, 91.41 99.0, 92.61 99.17, 93.8 99.33, 94.97 99.5, 96.13 99.67, 97.28 99.83, 98.41 100.0, 99.53 100.17, 100.64 100.33, 101.73 100.5, 102.81 100.67, 103.88 100.83, 104.93 101.0, 105.97 101.17, 107.0 101.33, 108.02 101.5, 109.03 101.67, 110.02 101.83, 111.01 102.0, 111.98 102.17, 112.94 102.33, 113.89 102.5, 114.83 102.67, 115.76 102.83, 116.67 103.0, 117.58 103.17, 118.47 103.33, 119.36 103.5, 120.23 103.67, 121.1 103.83, 121.95 104.0, 122.8 104.17, 123.63 104.33, 124.46 104.5, 125.27 104.67, 126.08 104.83, 126.88 105.0, 127.67 105.17, 128.44 105.33, 129.21 105.5, 129.98 105.67, 130.73 105.83, 131.47 106.0, 132.21 106.17, 132.94 106.33, 133.65 106.5, 134.37 106.67, 135.07 106.83, 135.76 107.0, 136.45 107.17, 137.13 107.33, 137.8 107.5, 138.47 107.67, 139.12 107.83, 139.77 108.0, 140.42 108.17, 141.05 108.33, 141.68 108.5, 142.3 108.67, 142.92 108.83, 143.52 109.0, 144.13 109.17, 144.72 109.33, 145.31 109.5, 145.89 109.67, 146.47 109.83, 147.04 110.0, 147.6 110.17, 148.16 110.33, 148.71 110.5, 149.26 110.67, 149.8 110.83, 150.33 111.0, 150.86 111.17, 151.38 111.33, 151.9 111.5, 152.41 111.67, 152.92 111.83, 153.42 112.0, 153.92 112.17, 154.41 112.33, 154.9 112.5, 155.38 112.67, 155.86 112.83, 156.33 113.0, 156.8 113.17, 157.26 113.33, 157.72 113.5, 158.17 113.67, 158.62 113.83, 159.07 114.0, 159.51 114.17, 159.95 114.33, 160.38 114.5, 160.81 114.67, 161.23 114.83, 161.66 115.0, 162.07 115.17, 162.49 115.33, 162.89 115.5, 163.3 115.67, 163.7 115.83, 164.1 116.0, 164.5 116.17, 164.89 116.33, 165.27 116.5, 165.66 116.67, 166.04 116.83, 166.42 117.0, 166.79 117.17, 167.16 117.33, 167.53 117.5, 167.9 117.67, 168.26 117.83, 168.62 118.0, 168.98 118.17, 169.33 118.33, 169.68 118.5, 170.03 118.67, 170.37 118.83, 170.72 119.0, 171.05 119.17, 171.39 119.33, 171.73 119.5, 172.06 119.67, 172.39 119.83, 172.72 120.0, 173.04 120.17, 173.36 120.33, 173.68 120.5, 174.0 120.67, 174.32 120.83, 174.63 121.0, 174.94 121.17, 175.25 121.33, 175.56 121.5, 175.86 121.67, 176.16 121.83, 176.46 122.0, 176.76 122.17, 177.06 122.33, 177.35 122.5, 177.65 122.67, 177.94 122.83, 178.23 123.0, 178.51 123.17, 178.8 123.33, 179.08 123.5, 179.37 123.67, 179.65 123.83, 179.93 124.0, 180.2 124.17, 180.48 124.33, 180.75 124.5, 181.03 124.67, 181.3 124.83, 181.57 125.0, 181.84 125.17, 182.1 125.33, 182.37 125.5, 182.63 125.67, 182.9 125.83, 183.16 126.0, 183.42 126.17, 183.68 126.33, 183.93 126.5, 184.19 126.67, 184.44 126.83, 184.7 127.0, 184.95 127.17, 185.2 127.33, 185.45 127.5, 185.7 127.67, 185.95 127.83, 186.19 128.0, 186.44 128.17, 186.68 128.33, 186.93 128.5, 187.17 128.67, 187.41 128.83, 187.65 129.0, 187.89 129.17, 188.13 129.33, 188.37 129.5, 188.6 129.67, 188.84 129.83, 189.07 130.0, 189.31 130.17, 189.54 130.33, 189.77 130.5, 190.0 130.67, 190.23 130.83, 190.46 131.0, 190.69 131.17, 190.91 131.33, 191.14 131.5, 191.37 131.67, 191.59 131.83, 191.81 132.0, 192.04 132.17, 192.26 132.33, 192.48 132.5, 192.7 132.67, 192.92 132.83, 193.14 133.0, 193.36 133.17, 193.58 133.33, 193.79 133.5, 194.01 133.67, 194.22 133.83, 194.44 134.0, 194.65 134.17, 194.86 134.33, 195.08 134.5, 195.29 134.67, 195.5 134.83, 195.71 135.0, 195.92 135.17, 196.13 135.33, 196.33 135.5, 196.54 135.67, 196.75 135.83, 196.95 136.0, 197.16 136.17, 197.36 136.33, 197.57 136.5, 197.77 136.67, 197.97 136.83, 198.17 137.0, 198.38 137.17, 198.58 137.33, 198.78 137.5, 198.97 137.67, 199.17 137.83, 199.37 138.0, 199.57 138.17, 199.76 138.33, 199.96 138.5, 200.15 138.67, 200.35 138.83, 200.54 139.0, 200.73 139.17, 200.93 139.33, 201.12 139.5, 201.31 139.67, 201.5 139.83, 201.69 140.0, 201.88 140.17, 202.06 140.33, 202.25 140.5, 202.44 140.67, 202.62 140.83, 202.81 141.0, 202.99 141.17, 203.18 141.33, 203.36 141.5, 203.54 141.67, 203.72 141.83, 203.9 142.0, 204.08 142.17, 204.26 142.33, 204.44 142.5, 204.62 142.67, 204.8 142.83, 204.97 143.0, 205.15 143.17, 205.32 143.33, 205.5 143.5, 205.67 143.67, 205.84 143.83, 206.01 144.0, 206.19 144.17, 206.36 144.33, 206.53 144.5, 206.69 144.67, 206.86 144.83, 207.03 145.0, 207.19 145.17, 207.36 145.33, 207.52 145.5, 207.69 145.67, 207.85 145.83, 208.01 146.0, 208.17 146.17, 208.34 146.33, 208.49 146.5, 208.65 146.67, 208.81 146.83, 208.97 147.0, 209.12 147.17, 209.28 147.33, 209.43 147.5, 209.59 147.67, 209.74 147.83, 209.89 148.0, 210.04 148.17, 210.19 148.33, 210.34 148.5, 210.49 148.67, 210.64 148.83, 210.78 149.0, 210.93 149.17, 211.07 149.33, 211.22 149.5, 211.36 149.67, 211.5 149.83, 211.64 150.0, 211.78 150.17, 211.92 150.33, 212.06 150.5, 212.19 150.67, 212.33 150.83, 212.46 151.0, 212.6 151.17, 212.73 151.33, 212.86 151.5, 212.99 151.67, 213.12 151.83, 213.25 152.0, 213.38 152.17, 213.5 152.33, 213.63 152.5, 213.75 152.67, 213.88 152.83, 214.0 153.0, 214.12 153.17, 214.24 153.33, 214.36 153.5, 214.48 153.67, 214.59 153.83, 214.71 154.0, 214.82 154.17, 214.94 154.33, 215.05 154.5, 215.16 154.67, 215.27 154.83, 215.38 155.0, 215.49 155.17, 215.59 155.33, 215.7 155.5, 215.8 155.67, 215.91 155.83, 216.01 156.0, 216.11 156.17, 216.21 156.33, 216.31 156.5, 216.4 156.67, 216.5 156.83, 216.6 157.0, 216.69 157.17, 216.78 157.33, 216.87 157.5, 216.96 157.67, 217.05 157.83, 217.14 158.0, 217.22 158.17, 217.31 158.33, 217.39 158.5, 217.48 158.67, 217.56 158.83, 217.64 159.0, 217.72 159.17, 217.79 159.33, 217.87 159.5, 217.94 159.67, 218.02 159.83, 218.09 160.0, 218.16 160.17, 218.23 160.33, 218.3 160.5, 218.37 160.67, 218.43 160.83, 218.5 161.0, 218.56 161.17, 218.62 161.33, 218.68 161.5, 218.74 161.67, 218.8 161.83, 218.85 162.0, 218.91 162.17, 218.96 162.33, 219.02 162.5, 219.07 162.67, 219.12 162.83, 219.17 163.0, 219.21 163.17, 219.26 163.33, 219.3 163.5, 219.35 163.67, 219.39 163.83, 219.43 164.0, 219.47 164.17, 219.5 164.33, 219.54 164.5, 219.58 164.67, 219.61 164.83, 219.64 165.0, 219.67 165.17, 219.7 165.33, 219.73 165.5, 219.76 165.67, 219.78 165.83, 219.8 166.0, 219.83 166.17, 219.85 166.33, 219.87 166.5, 219.89 166.67, 219.9 166.83, 219.92 167.0, 219.93 167.17, 219.95 167.33, 219.96 167.5, 219.97 167.67, 219.98 167.83, 219.98 168.0, 219.99 168.17, 219.99 168.33, 220.0 168.5, 220.0 168.67, 220.0 168.83, 220.0 169.0, 219.99 169.17, 219.99 169.33, 219.98 169.5, 219.98 169.67, 219.97 169.83, 219.96 170.0, 219.95 170.17, 219.94 170.33, 219.92 170.5, 219.91 170.67, 219.89 170.83, 219.87 171.0, 219.85 171.17, 219.83 171.33, 219.81 171.5, 219.79 171.67, 219.76 171.83, 219.74 172.0, 219.71 172.17, 219.68 172.33, 219.65 172.5, 219.62 172.67, 219.58 172.83, 219.55 173.0, 219.51 173.17, 219.48 173.33, 219.44 173.5, 219.4 173.67, 219.36 173.83, 219.31 174.0, 219.27 174.17, 219.23 174.33, 219.18 174.5, 219.13 174.67, 219.08 174.83, 219.03 175.0, 218.98 175.17, 218.93 175.33, 218.87 175.5, 218.82 175.67, 218.76 175.83, 218.7 176.0, 218.64 176.17, 218.58 176.33, 218.52 176.5, 218.45 176.67, 218.39 176.83, 218.32 177.0, 218.26 177.17, 218.19 177.33, 218.12 177.5, 218.05 177.67, 217.97 177.83, 217.9 178.0, 217.82 178.17, 217.75 178.33, 217.67 178.5, 217.59 178.67, 217.51 178.83, 217.43 179.0, 217.35 179.17, 217.26 179.33, 217.18 179.5, 217.09 179.67, 217.01 179.83, 216.92 180.0, 216.83 180.17, 216.74 180.33, 216.65 180.5, 216.55 180.67, 216.46 180.83, 216.36 181.0, 216.27 181.17, 216.17 181.33, 216.07 181.5, 215.97 181.67, 215.87 181.83, 215.77 182.0, 215.67 182.17, 215.56 182.33, 215.46 182.5, 215.35 182.67, 215.24 182.83, 215.14 183.0, 215.03 183.17, 214.92 183.33, 214.8 183.5, 214.69 183.67, 214.58 183.83, 214.46 184.0, 214.35 184.17, 214.23 184.33, 214.11 184.5, 213.99 184.67, 213.87 184.83, 213.75 185.0, 213.63 185.17, 213.51 185.33, 213.39 185.5, 213.26 185.67, 213.14 185.83, 213.01 186.0, 212.88 186.17, 212.76 186.33, 212.63 186.5, 212.5 186.67, 212.37 186.83, 212.24 187.0, 212.1 187.17, 211.97 187.33, 211.84 187.5, 211.7 187.67, 211.57 187.83, 211.43 188.0, 211.29 188.17, 211.15 188.33, 211.02 188.5, 210.88 188.67, 210.74 188.83, 210.6 189.0, 210.45 189.17, 210.31 189.33, 210.17 189.5, 210.02 189.67, 209.88 189.83, 209.73 190.0, 209.59 190.17, 209.44 190.33, 209.29 190.5, 209.15 190.67, 209.0 190.83, 208.85 191.0, 208.7 191.17, 208.55 191.33, 208.4 191.5, 208.25 191.67, 208.09 191.83, 207.94 192.0, 207.79 192.17, 207.63 192.33, 207.48 192.5, 207.33 192.67, 207.17 192.83, 207.01 193.0, 206.86 193.17, 206.7 193.33, 206.54 193.5, 206.39 193.67, 206.23 193.83, 206.07 194.0, 205.91 194.17, 205.75 194.33, 205.59 194.5, 205.43 194.67, 205.27 194.83, 205.11 195.0, 204.95 195.17, 204.79 195.33, 204.62 195.5, 204.46 195.67, 204.3 195.83, 204.14 196.0, 203.97 196.17, 203.81 196.33, 203.65 196.5, 203.48 196.67, 203.32 196.83, 203.15 197.0, 202.99 197.17, 202.82 197.33, 202.66 197.5, 202.49 197.67, 202.33 197.83, 202.16 198.0, 202.0 198.17, 201.83 198.33, 201.66 198.5, 201.5 198.67, 201.33 198.83, 201.17 199.0, 201.0 199.17, 200.83 199.33, 200.67 199.5, 200.5 199.67, 200.33 199.83, 200.17 200.0, 200.0 200.17, 199.83 200.33, 199.67 200.5, 199.5 200.67, 199.33 200.83, 199.17 201.0, 199.0 201.17, 198.83 201.33, 198.67 201.5, 198.5 201.67, 198.34 201.83, 198.17 202.0, 198.0 202.17, 197.84 202.33, 197.67 202.5, 197.51 202.67, 197.34 202.83, 197.18 203.0, 197.01 203.17, 196.85 203.33, 196.68 203.5, 196.52 203.67, 196.35 203.83, 196.19 204.0, 196.03 204.17, 195.86 204.33, 195.7 204.5, 195.54 204.67, 195.38 204.83, 195.21 205.0, 195.05 205.17, 194.89 205.33, 194.73 205.5, 194.57 205.67, 194.41 205.83, 194.25 206.0, 194.09 206.17, 193.93 206.33, 193.77 206.5, 193.61 206.67, 193.46 206.83, 193.3 207.0, 193.14 207.17, 192.99 207.33, 192.83 207.5, 192.67 207.67, 192.52 207.83, 192.37 208.0, 192.21 208.17, 192.06 208.33, 191.91 208.5, 191.75 208.67, 191.6 208.83, 191.45 209.0, 191.3 209.17, 191.15 209.33, 191.0 209.5, 190.85 209.67, 190.71 209.83, 190.56 210.0, 190.41 210.17, 190.27 210.33, 190.12 210.5, 189.98 210.67, 189.83 210.83, 189.69 211.0, 189.55 211.17, 189.4 211.33, 189.26 211.5, 189.12 211.67, 188.98 211.83, 188.85 212.0, 188.71 212.17, 188.57 212.33, 188.43 212.5, 188.3 212.67, 188.16 212.83, 188.03 213.0, 187.9 213.17, 187.76 213.33, 187.63 213.5, 187.5 213.67, 187.37 213.83, 187.24 214.0, 187.12 214.17, 186.99 214.33, 186.86 214.5, 186.74 214.67, 186.61 214.83, 186.49 215.0, 186.37 215.17, 186.25 215.33, 186.13 215.5, 186.01 215.67, 185.89 215.83, 185.77 216.0, 185.65 216.17, 185.54 216.33, 185.42 216.5, 185.31 216.67, 185.2 216.83, 185.08 217.0, 184.97 217.17, 184.86 217.33, 184.76 217.5, 184.65 217.67, 184.54 217.83, 184.44 218.0, 184.33 218.17, 184.23 218.33, 184.13 218.5, 184.03 218.67, 183.93 218.83, 183.83 219.0, 183.73 219.17, 183.64 219.33, 183.54 219.5, 183.45 219.67, 183.35 219.83, 183.26 220.0, 183.17 220.17, 183.08 220.33, 182.99 220.5, 182.91 220.67, 182.82 220.83, 182.74 221.0, 182.65 221.17, 182.57 221.33, 182.49 221.5, 182.41 221.67, 182.33 221.83, 182.25 222.0, 182.18 222.17, 182.1 222.33, 182.03 222.5, 181.95 222.67, 181.88 222.83, 181.81 223.0, 181.74 223.17, 181.68 223.33, 181.61 223.5, 181.55 223.67, 181.48 223.83, 181.42 224.0, 181.36 224.17, 181.3 224.33, 181.24 224.5, 181.18 224.67, 181.13 224.83, 181.07 225.0, 181.02 225.17, 180.97 225.33, 180.92 225.5, 180.87 225.67, 180.82 225.83, 180.77 226.0, 180.73 226.17, 180.69 226.33, 180.64 226.5, 180.6 226.67, 180.56 226.83, 180.52 227.0, 180.49 227.17, 180.45 227.33, 180.42 227.5, 180.38 227.67, 180.35 227.83, 180.32 228.0, 180.29 228.17, 180.26 228.33, 180.24 228.5, 180.21 228.67, 180.19 228.83, 180.17 229.0, 180.15 229.17, 180.13 229.33, 180.11 229.5, 180.09 229.67, 180.08 229.83, 180.06 230.0, 180.05 230.17, 180.04 230.33, 180.03 230.5, 180.02 230.67, 180.02 230.83, 180.01 231.0, 180.01 231.17, 180.0 231.33, 180.0 231.5, 180.0 231.67, 180.0 231.83, 180.01 232.0, 180.01 232.17, 180.02 232.33, 180.02 232.5, 180.03 232.67, 180.04 232.83, 180.05 233.0, 180.07 233.17, 180.08 233.33, 180.1 233.5, 180.11 233.67, 180.13 233.83, 180.15 234.0, 180.17 234.17, 180.2 234.33, 180.22 234.5, 180.24 234.67, 180.27 234.83, 180.3 235.0, 180.33 235.17, 180.36 235.33, 180.39 235.5, 180.42 235.67, 180.46 235.83, 180.5 236.0, 180.53 236.17, 180.57 236.33, 180.61 236.5, 180.65 236.67, 180.7 236.83, 180.74 237.0, 180.79 237.17, 180.83 237.33, 180.88 237.5, 180.93 237.67, 180.98 237.83, 181.04 238.0, 181.09 238.17, 181.15 238.33, 181.2 238.5, 181.26 238.67, 181.32 238.83, 181.38 239.0, 181.44 239.17, 181.5 239.33, 181.57 239.5, 181.63 239.67, 181.7 239.83, 181.77 240.0, 181.84 240.17, 181.91 240.33, 181.98 240.5, 182.06 240.67, 182.13 240.83, 182.21 241.0, 182.28 241.17, 182.36 241.33, 182.44 241.5, 182.52 241.67, 182.61 241.83, 182.69 242.0, 182.78 242.17, 182.86 242.33, 182.95 242.5, 183.04 242.67, 183.13 242.83, 183.22 243.0, 183.31 243.17, 183.4 243.33, 183.5 243.5, 183.6 243.67, 183.69 243.83, 183.79 244.0, 183.89 244.17, 183.99 244.33, 184.09 244.5, 184.2 244.67, 184.3 244.83, 184.41 245.0, 184.51 245.17, 184.62 245.33, 184.73 245.5, 184.84 245.67, 184.95 245.83, 185.06 246.0, 185.18 246.17, 185.29 246.33, 185.41 246.5, 185.52 246.67, 185.64 246.83, 185.76 247.0, 185.88 247.17, 186.0 247.33, 186.12 247.5, 186.25 247.67, 186.37 247.83, 186.5 248.0, 186.62 248.17, 186.75 248.33, 186.88 248.5, 187.01 248.67, 187.14 248.83, 187.27 249.0, 187.4 249.17, 187.54 249.33, 187.67 249.5, 187.81 249.67, 187.94 249.83, 188.08 250.0, 188.22 250.17, 188.36 250.33, 188.5 250.5, 188.64 250.67, 188.78 250.83, 188.93 251.0, 189.07 251.17, 189.22 251.33, 189.36 251.5, 189.51 251.67, 189.66 251.83, 189.81 252.0, 189.96 252.17, 190.11 252.33, 190.26 252.5, 190.41 252.67, 190.57 252.83, 190.72 253.0, 190.88 253.17, 191.03 253.33, 191.19 253.5, 191.35 253.67, 191.51 253.83, 191.66 254.0, 191.83 254.17, 191.99 254.33, 192.15 254.5, 192.31 254.67, 192.48 254.83, 192.64 255.0, 192.81 255.17, 192.97 255.33, 193.14 255.5, 193.31 255.67, 193.47 255.83, 193.64 256.0, 193.81 256.17, 193.99 256.33, 194.16 256.5, 194.33 256.67, 194.5 256.83, 194.68 257.0, 194.85 257.17, 195.03 257.33, 195.2 257.5, 195.38 257.67, 195.56 257.83, 195.74 258.0, 195.92 258.17, 196.1 258.33, 196.28 258.5, 196.46 258.67, 196.64 258.83, 196.82 259.0, 197.01 259.17, 197.19 259.33, 197.38 259.5, 197.56 259.67, 197.75 259.83, 197.94 260.0, 198.12 260.17, 198.31 260.33, 198.5 260.5, 198.69 260.67, 198.88 260.83, 199.07 261.0, 199.27 261.17, 199.46 261.33, 199.65 261.5, 199.85 261.67, 200.04 261.83, 200.24 262.0, 200.43 262.17, 200.63 262.33, 200.83 262.5, 201.03 262.67, 201.22 262.83, 201.42 263.0, 201.62 263.17, 201.83 263.33, 202.03 263.5, 202.23 263.67, 202.43 263.83, 202.64 264.0, 202.84 264.17, 203.05 264.33, 203.25 264.5, 203.46 264.67, 203.67 264.83, 203.87 265.0, 204.08 265.17, 204.29 265.33, 204.5 265.5, 204.71 265.67, 204.92 265.83, 205.14 266.0, 205.35 266.17, 205.56 266.33, 205.78 266.5, 205.99 266.67, 206.21 266.83, 206.42 267.0, 206.64 267.17, 206.86 267.33, 207.08 267.5, 207.3 267.67, 207.52 267.83, 207.74 268.0, 207.96 268.17, 208.19 268.33, 208.41 268.5, 208.63 268.67, 208.86 268.83, 209.09 269.0, 209.31 269.17, 209.54 269.33, 209.77 269.5, 210.0 269.67, 210.23 269.83, 210.46 270.0, 210.69 270.17, 210.93 270.33, 211.16 270.5, 211.4 270.67, 211.63 270.83, 211.87 271.0, 212.11 271.17, 212.35 271.33, 212.59 271.5, 212.83 271.67, 213.07 271.83, 213.32 272.0, 213.56 272.17, 213.81 272.33, 214.05 272.5, 214.3 272.67, 214.55 272.83, 214.8 273.0, 215.05 273.17, 215.3 273.33, 215.56 273.5, 215.81 273.67, 216.07 273.83, 216.32 274.0, 216.58 274.17, 216.84 274.33, 217.1 274.5, 217.37 274.67, 217.63 274.83, 217.9 275.0, 218.16 275.17, 218.43 275.33, 218.7 275.5, 218.97 275.67, 219.25 275.83, 219.52 276.0, 219.8 276.17, 220.07 276.33, 220.35 276.5, 220.63 276.67, 220.92 276.83, 221.2 277.0, 221.49 277.17, 221.77 277.33, 222.06 277.5, 222.35 277.67, 222.65 277.83, 222.94 278.0, 223.24 278.17, 223.54 278.33, 223.84 278.5, 224.14 278.67, 224.44 278.83, 224.75 279.0, 225.06 279.17, 225.37 279.33, 225.68 279.5, 226.0 279.67, 226.32 279.83, 226.64 280.0, 226.96 280.17, 227.28 280.33, 227.61 280.5, 227.94 280.67, 228.27 280.83, 228.61 281.0, 228.95 281.17, 229.28 281.33, 229.63 281.5, 229.97 281.67, 230.32 281.83, 230.67 282.0, 231.02 282.17, 231.38 282.33, 231.74 282.5, 232.1 282.67, 232.47 282.83, 232.84 283.0, 233.21 283.17, 233.58 283.33, 233.96 283.5, 234.34 283.67, 234.73 283.83, 235.11 284.0, 235.5 284.17, 235.9 284.33, 236.3 284.5, 236.7 284.67, 237.11 284.83, 237.51 285.0, 237.93 285.17, 238.34 285.33, 238.77 285.5, 239.19 285.67, 239.62 285.83, 240.05 286.0, 240.49 286.17, 240.93 286.33, 241.38 286.5, 241.83 286.67, 242.28 286.83, 242.74 287.0, 243.2 287.17, 243.67 287.33, 244.14 287.5, 244.62 287.67, 245.1 287.83, 245.59 288.0, 246.08 288.17, 246.58 288.33, 247.08 288.5, 247.59 288.67, 248.1 288.83, 248.62 289.0, 249.14 289.17, 249.67 289.33, 250.2 289.5, 250.74 289.67, 251.29 289.83, 251.84 290.0, 252.4 290.17, 252.96 290.33, 253.53 290.5, 254.11 290.67, 254.69 290.83, 255.28 291.0, 255.87 291.17, 256.48 291.33, 257.08 291.5, 257.7 291.67, 258.32 291.83, 258.95 292.0, 259.58 292.17, 260.23 292.33, 260.88 292.5, 261.53 292.67, 262.2 292.83, 262.87 293.0, 263.55 293.17, 264.24 293.33, 264.93 293.5, 265.63 293.67, 266.35 293.83, 267.06 294.0, 267.79 294.17, 268.53 294.33, 269.27 294.5, 270.02 294.67, 270.79 294.83, 271.56 295.0, 272.33 295.17, 273.12 295.33, 273.92 295.5, 274.73 295.67, 275.54 295.83, 276.37 296.0, 277.2 296.17, 278.05 296.33, 278.9 296.5, 279.77 296.67, 280.64 296.83, 281.53 297.0, 282.42 297.17, 283.33 297.33, 284.24 297.5, 285.17 297.67, 286.11 297.83, 287.06 298.0, 288.02 298.17, 288.99 298.33, 289.98 298.5, 290.97 298.67, 291.98 298.83, 293.0 299.0, 294.03 299.17, 295.07 299.33, 296.12 299.5, 297.19 299.67, 298.27 299.83, 299.36 300.0, 300.47 300.17, 301.59 300.33, 302.72 300.5, 303.87 300.67, 305.03 300.83, 306.2 301.0, 307.39 301.17, 308.59 301.33, 309.8 301.5, 311.03 301.67, 312.28 301.83, 313.54 302.0, 314.81 302.17, 316.1 302.33, 317.4 302.5, 318.72 302.67, 320.06 302.83, 321.41 303.0, 322.78 303.17, 324.16 303.33, 325.56 303.5, 326.98 303.67, 328.41 303.83, 329.86 304.0, 331.32 304.17, 332.81 304.33, 334.31 304.5, 335.83 304.67, 337.37 304.83, 338.92 305.0, 340.49 305.17, 342.08 305.33, 343.69 305.5, 345.32 305.67, 346.97 305.83, 348.64 306.0, 350.33 306.17, 352.03 306.33, 353.76 306.5, 355.51 306.67, 357.27 306.83, 359.06 307.0, 360.87 307.17, 362.7 307.33, 364.55 307.5, 366.42 307.67, 368.31 307.83, 370.23 308.0, 372.17 308.17, 374.13 308.33, 376.11 308.5, 378.11 308.67, 380.14 308.83, 382.19 309.0, 384.27 309.17, 386.37 309.33, 388.49 309.5, 390.64 309.67, 392.81 309.83, 395.0 310.0, 397.23 310.17, 399.47 310.33, 401.74 310.5, 404.04 310.67, 406.37 310.83, 408.72 311.0, 411.09 311.17, 413.5 311.33, 415.93 311.5, 418.39 311.67, 420.87 311.83, 423.39 312.0, 425.93 312.17, 428.5 312.33, 431.1 312.5, 433.73 312.67, 436.39 312.83, 439.07 313.0, 441.79 313.17, 444.54 313.33, 447.32 313.5, 450.13 313.67, 452.97 313.83, 455.84 314.0, 458.74 314.17, 461.67 314.33, 464.64 314.5, 467.64 314.67, 470.68 314.83, 473.74 315.0, 476.84 315.17, 479.97 315.33, 483.14 315.5, 486.34 315.67, 489.58 315.83, 492.85 316.0, 496.16 316.17, 499.5 316.33, 502.88 316.5, 506.3 316.67, 509.75 316.83, 513.24 317.0, 516.77 317.17, 520.34 317.33, 523.94 317.5, 527.58 317.67, 531.26 317.83, 534.98 318.0, 538.74 318.17, 542.54 318.33, 546.38 318.5, 550.26 318.67, 554.19 318.83, 558.15 319.0, 562.16 319.17, 566.2 319.33, 570.29 319.5, 574.43 319.67, 578.6 319.83, 582.82 320.0, 587.09 320.17, 591.39 320.33, 595.75 320.5, 600.15 320.67, 604.59 320.83, 609.08 321.0, 613.62 321.17, 618.2 321.33, 622.83 321.5, 627.51 321.67, 632.24 321.83, 637.01 322.0, 641.84 322.17, 646.71 322.33, 651.63 322.5, 656.61 322.67, 661.63 322.83, 666.71 323.0, 671.83 323.17, 677.01 323.33, 682.24 323.5, 687.53 323.67, 692.86 323.83, 698.26 324.0, 703.7 324.17, 709.2 324.33, 714.75 324.5, 720.36 324.67, 726.03 324.83, 731.75 325.0, 737.53 325.17, 743.37 325.33, 749.27 325.5, 755.22 325.67, 761.23 325.83, 767.3 326.0, 773.43 326.17, 779.63 326.33, 785.88 326.5, 792.19 326.67, 798.57 326.83, 805.01 327.0, 811.51 327.17, 818.07 327.33, 824.7 327.5, 831.39 327.67, 838.15 327.83, 844.97 328.0, 851.86 328.17, 858.81 328.33, 865.83 328.5, 872.92 328.67, 880.08 328.83, 887.31 329.0, 894.6 329.17, 901.96 329.33, 909.4 329.5, 916.9 329.67, 924.48 329.83, 932.13 330.0, 939.85 330.17, 947.65 330.33, 955.51 330.5, 963.45 330.67, 971.47 330.83, 979.56 331.0, 987.73 331.17, 995.97 331.33, 1004.3 331.5, 1012.69 331.67, 1021.17 331.83, 1029.73 332.0, 1038.36 332.17, 1047.08 332.33, 1055.87 332.5, 1064.75 332.67, 1073.71 332.83, 1082.75 333.0, 1091.88 333.17, 1101.08 333.33, 1110.38 333.5, 1119.75 333.67, 1129.22 333.83, 1138.77 334.0, 1148.41 334.17, 1158.13 334.33, 1167.94 334.5, 1177.84 334.67, 1187.84 334.83, 1197.92 335.0, 1208.09 335.17, 1218.35 335.33, 1228.71 335.5, 1239.16 335.67, 1249.7 335.83, 1260.34 336.0, 1271.07 336.17, 1281.9 336.33, 1292.82 336.5, 1303.84 336.67, 1314.96 336.83, 1326.18 337.0, 1337.49 337.17, 1348.91 337.33, 1360.43 337.5, 1372.05 337.67, 1383.77 337.83, 1395.59 338.0, 1407.52 338.17, 1419.55 338.33, 1431.68 338.5, 1443.93 338.67, 1456.27 338.83, 1468.73 339.0, 1481.29 339.17, 1493.97 339.33, 1506.75 339.5, 1519.64 339.67, 1532.65 339.83, 1545.76 340.0, 1558.99 340.17, 1572.33 340.33, 1585.79 340.5, 1599.36 340.67, 1613.05 340.83, 1626.85 341.0, 1640.77 341.17, 1654.81 341.33, 1668.97 341.5, 1683.25 341.67, 1697.65 341.83, 1712.17 342.0, 1726.82 342.17, 1741.58 342.33, 1756.47 342.5, 1771.49 342.67, 1786.63 342.83, 1801.9 343.0, 1817.3 343.17, 1832.82 343.33, 1848.48 343.5, 1864.26 343.67, 1880.18 343.83, 1896.22 344.0, 1912.4 344.17, 1928.72 344.33, 1945.17 344.5, 1961.75 344.67, 1978.47 344.83, 1995.33 345.0, 2012.33 345.17, 2029.46 345.33, 2046.74 345.5, 2064.15 345.67, 2081.71 345.83, 2099.41 346.0, 2117.26 346.17, 2135.25 346.33, 2153.38 346.5, 2171.67 346.67, 2190.1 346.83, 2208.68 347.0, 2227.4 347.17, 2246.28 347.33, 2265.31 347.5, 2284.5 347.67, 2303.83 347.83, 2323.32 348.0, 2342.97 348.17, 2362.77 348.33, 2382.74 348.5, 2402.86 348.67, 2423.13 348.83, 2443.57 349.0, 2464.18 349.17, 2484.94 349.33, 2505.87 349.5, 2526.96 349.67, 2548.22 349.83, 2569.64 350.0, 2591.24 350.17, 2613.0 350.33, 2634.93 350.5, 2657.04 350.67, 2679.31 350.83, 2701.76 351.0, 2724.39 351.17, 2747.19 351.33, 2770.16 351.5, 2793.32 351.67, 2816.65 351.83, 2840.16 352.0, 2863.85 352.17, 2887.73 352.33, 2911.79 352.5, 2936.03 352.67, 2960.46 352.83, 2985.08 353.0, 3009.88 353.17, 3034.88 353.33, 3060.06 353.5, 3085.43 353.67, 3111.0 353.83, 3136.76 354.0, 3162.72 354.17, 3188.87 354.33, 3215.22 354.5, 3241.77 354.67, 3268.52 354.83, 3295.47 355.0, 3322.62 355.17, 3349.97 355.33, 3377.53 355.5, 3405.3 355.67, 3433.27 355.83, 3461.45 356.0, 3489.84 356.17, 3518.45 356.33, 3547.26 356.5, 3576.29 356.67, 3605.53 356.83, 3634.99 357.0, 3664.66 357.17, 3694.56 357.33, 3724.67 357.5, 3755.01 357.67, 3785.57 357.83, 3816.35 358.0, 3847.36 358.17, 3878.59 358.33, 3910.05 358.5, 3941.74 358.67, 3973.66 358.83, 4005.82 359.0, 4038.2 359.17, 4070.82 359.33, 4103.68 359.5, 4136.78 359.67, 4170.11 359.83, 4203.68 360.0, 4237.5 360.17, 4271.55 360.33, 4305.86 360.5, 4340.41 360.67, 4375.2 360.83, 4410.24 361.0, 4445.54 361.17, 4481.08 361.33, 4516.88 361.5, 4552.93 361.67, 4589.24 361.83, 4625.81 362.0, 4662.63 362.17, 4699.72 362.33, 4737.07 362.5, 4774.68 362.67, 4812.55 362.83, 4850.69 363.0, 4889.1 363.17, 4927.78 363.33, 4966.73 363.5, 5005.95 363.67, 5045.44 363.83, 5085.21 364.0, 5125.26 364.17, 5165.59 364.33, 5206.19 364.5, 5247.08 364.67, 5288.25 364.83, 5329.71 365.0, 5371.45 365.17, 5413.48 365.33, 5455.8 365.5, 5498.41 365.67, 5541.31 365.83, 5584.51 366.0, 5628.01 366.17, 5671.8 366.33, 5715.89 366.5, 5760.28 366.67, 5804.98 366.83, 5849.97 367.0, 5895.28 367.17, 5940.89 367.33, 5986.81 367.5, 6033.05 367.67, 6079.59 367.83, 6126.45 368.0, 6173.63 368.17, 6221.12 368.33, 6268.94 368.5, 6317.07 368.67, 6365.53 368.83, 6414.31 369.0, 6463.42 369.17, 6512.86 369.33, 6562.63 369.5, 6612.73 369.67, 6663.16 369.83, 6713.93 370.0, 6765.03 370.17, 6816.48 370.33, 6868.26 370.5, 6920.39 370.67, 6972.87 370.83, 7025.68 371.0, 7078.85 371.17, 7132.37 371.33, 7186.24 371.5, 7240.46 371.67, 7295.04 371.83, 7349.98 372.0, 7405.27 372.17, 7460.93 372.33, 7516.95 372.5, 7573.33 372.67, 7630.08 372.83, 7687.2 373.0, 7744.7 373.17, 7802.56 373.33, 7860.8 373.5, 7919.41 373.67, 7978.41 373.83, 8037.78 374.0, 8097.54 374.17, 8157.68 374.33, 8218.21 374.5, 8279.13 374.67, 8340.43 374.83, 8402.13 375.0, 8464.23 375.17, 8526.72 375.33, 8589.61 375.5, 8652.9 375.67, 8716.59 375.83, 8780.69 376.0, 8845.2 376.17, 8910.11 376.33, 8975.44 376.5, 9041.17 376.67, 9107.33 376.83, 9173.9 377.0, 9240.89 377.17, 9308.3 377.33, 9376.14 377.5, 9444.4 377.67, 9513.09 377.83, 9582.21 378.0, 9651.76 378.17, 9721.75 378.33, 9792.17 378.5, 9863.03 378.67, 9934.34 378.83, 10006.08 379.0, 10078.27 379.17, 10150.91 379.33, 10224.0 379.5, 10297.55 379.67, 10371.54 379.83, 10446.0 380.0, 10520.91 380.17, 10596.28 380.33, 10672.12 380.5, 10748.42 380.67, 10825.19 380.83, 10902.44 381.0, 10980.15 381.17, 11058.34 381.33, 11137.01 381.5, 11216.15 381.67, 11295.78 381.83, 11375.9 382.0, 11456.5 382.17, 11537.59 382.33, 11619.17 382.5, 11701.24 382.67, 11783.82 382.83, 11866.89 383.0, 11950.46 383.17, 12034.53 383.33, 12119.12 383.5, 12204.21 383.67, 12289.81 383.83, 12375.92 384.0, 12462.55 384.17, 12549.7 384.33, 12637.37 384.5, 12725.57 384.67, 12814.29 384.83, 12903.54 385.0, 12993.32 385.17, 13083.63 385.33, 13174.48 385.5, 13265.87 385.67, 13357.8 385.83, 13450.27 386.0, 13543.29 386.17, 13636.86 386.33, 13730.98 386.5, 13825.65 386.67, 13920.88 386.83, 14016.67 387.0, 14113.03 387.17, 14209.94 387.33, 14307.43 387.5, 14405.48 387.67, 14504.11 387.83, 14603.32 388.0, 14703.1 388.17, 14803.46 388.33, 14904.41 388.5, 15005.94 388.67, 15108.06 388.83, 15210.77 389.0, 15314.08 389.17, 15417.99 389.33, 15522.49 389.5, 15627.6 389.67, 15733.31 389.83, 15839.63 390.0, 15946.57 390.17, 16054.11 390.33, 16162.28 390.5, 16271.06 390.67, 16380.47 390.83, 16490.5 391.0, 16601.16 391.17, 16712.45 391.33, 16824.38 391.5, 16936.94 391.67, 17050.14 391.83, 17163.99 392.0, 17278.48 392.17, 17393.62 392.33, 17509.41 392.5, 17625.86 392.67, 17742.96 392.83, 17860.73 393.0, 17979.16 393.17, 18098.25 393.33, 18218.01 393.5, 18338.45 393.67, 18459.56 393.83, 18581.36 394.0, 18703.83 394.17, 18826.99 394.33, 18950.83 394.5, 19075.37 394.67, 19200.6 394.83, 19326.53 395.0, 19453.15 395.17, 19580.48 395.33, 19708.52 395.5, 19837.27 395.67, 19966.73 395.83, 20096.91 396.0, 20227.8 396.17, 20359.42 396.33, 20491.76 396.5, 20624.83 396.67, 20758.64 396.83, 20893.18 397.0, 21028.45 397.17, 21164.47 397.33, 21301.24 397.5, 21438.75 397.67, 21577.01 397.83, 21716.03 398.0, 21855.81 398.17, 21996.35 398.33, 22137.65 398.5, 22279.72 398.67, 22422.56 398.83, 22566.18 399.0, 22710.57 399.17, 22855.75 399.33, 23001.71 399.5, 23148.46 399.67, 23296.0 399.83, 23444.34 400.0, 23593.47 " fill="none" stroke="white" stroke-width="1.5" stroke-linejoin="round" stroke-opacity="1"/>

 </svg>