<svg version="1.1" 
 baseProfile="full" 
 width="400" 
 height="400" 
 xmlns="http://www.w3.org/2000/svg">
<rect x="0.0" y="0.0" width="400" height="400" fill="black" stroke="black" stroke-width="0" opacity="1"/>
<line x1="0.0" y1="0.0" x2="0.0" y2="400.0" stroke="white" stroke-width="1" opacity="0.4" stroke-linecap="butt"/>
<line x1="40.0" y1="0.0" x2="40.0" y2="400.0" stroke="white" stroke-width="1" opacity="0.4" stroke-linecap="butt"/>
<line x1="80.0" y1="0.0" x2="80.0" y2="400.0" stroke="white" stroke-width="1" opacity="0.4" stroke-linecap="butt"/>
<line x1="120.0" y1="0.0" x2="120.0" y2="400.0" stroke="white" stroke-width="1" opacity="0.4" stroke-linecap="butt"/>
<line x1="160.0" y1="0.0" x2="160.0" y2="400.0" stroke="white" stroke-width="1" opacity="0.4" stroke-linecap="butt"/>
<line x1="200.0" y1="0.0" x2="200.0" y2="400.0" stroke="white" stroke-width="1" opacity="0.4" stroke-linecap="butt"/>
<line x1="240.0" y1="0.0" x2="240.0" y2="400.0" stroke="white" stroke-width="1" opacity="0.4" stroke-linecap="butt"/>
<line x1="280.0" y1="0.0" x2="280.0" y2="400.0" stroke="white" stroke-width="1" opacity="0.4" stroke-linecap="butt"/>
<line x1="320.0" y1="0.0" x2="320.0" y2="400.0" stroke="white" stroke-width="1" opacity="0.4" stroke-linecap="butt"/>
<line x1="360.0" y1="0.0" x2="360.0" y2="400.0" stroke="white" stroke-width="1" opacity="0.4" stroke-linecap="butt"/>
<line x1="0.0" y1="0.0" x2="400.0" y2="0.0" stroke="white" stroke-width="1" opacity="0.4" stroke-linecap="butt"/>
<line x1="0.0" y1="40.0" x2="400.0" y2="40.0" stroke="white" stroke-width="1" opacity="0.4" stroke-linecap="butt"/>
<line x1="0.0" y1="80.0" x2="400.0" y2="80.0" stroke="white" stroke-width="1" opacity="0.4" stroke-linecap="butt"/>
<line x1="0.0" y1="120.0" x2="400.0" y2="120.0" stroke="white" stroke-width="1" opacity="0.4" stroke-linecap="butt"/>
<line x1="0.0" y1="160.0" x2="400.0" y2="160.0" stroke="white" stroke-width="1" opacity="0.4" stroke-linecap="butt"/>
<line x1="0.0" y1="200.0" x2="400.0" y2="200.0" stroke="white" stroke-width="1" opacity="0.4" stroke-linecap="butt"/>
<line x1="0.0" y1="240.0" x2="400.0" y2="240.0" stroke="white" stroke-width="1" opacity="0.4" stroke-linecap="butt"/>
<line x1="0.0" y1="280.0" x2="400.0" y2="280.0" stroke="white" stroke-width="1" opacity="0.4" stroke-linecap="butt"/>
<line x1="0.0" y1="320.0" x2="400.0" y2="320.0" stroke="white" stroke-width="1" opacity="0.4" stroke-linecap="butt"/>
<line x1="0.0" y1="360.0" x2="400.0" y2="360.0" stroke="white" stroke-width="1" opacity="0.4" stroke-linecap="butt"/>
<line x1="0.0" y1="200.0" x2="400.0" y2="200.0" stroke="yellow" stroke-width="2.5" opacity="1" stroke-linecap="butt"/>
<line x1="200.0" y1="0.0" x2="200.0" y2="400.0" stroke="yellow" stroke-width="2.5" opacity="1" stroke-linecap="butt"/>
<polygon points="391.0 204.0, 401.0 200.0, 391.0 196.0, 393.0 200.0" fill="yellow"/><polygon points="204.0 9.0, 200.0 -1.0, 196.0 9.0, 200.0 7.0" fill="yellow"/><image x="-60.0" y="-60.0" width="200" height="200" href="/Users/girirajhira/PycharmProjects/Giraphics3/Taylor/expr.png"/><polyline points="0.0, -22504.54 0.17, -22360.56 0.33, -22217.33 0.5, -22074.87 0.67, -21933.17 0.83, -21792.23 1.0, -21652.03 1.17, -21512.58 1.33, -21373.88 1.5, -21235.92 1.67, -21098.7 1.83, -20962.21 2.0, -20826.46 2.17, -20691.43 2.33, -20557.13 2.5, -20423.56 2.67, -20290.7 2.83, -20158.56 3.0, -20027.14 3.17, -19896.42 3.33, -19766.42 3.5, -19637.11 3.67, -19508.51 3.83, -19380.61 4.0, -19253.4 4.17, -19126.89 4.33, -19001.07 4.5, -18875.93 4.67, -18751.47 4.83, -18627.7 5.0, -18504.6 5.17, -18382.18 5.33, -18260.43 5.5, -18139.34 5.67, -18018.93 5.83, -17899.17 6.0, -17780.08 6.17, -17661.64 6.33, -17543.86 6.5, -17426.73 6.67, -17310.24 6.83, -17194.41 7.0, -17079.21 7.17, -16964.65 7.33, -16850.74 7.5, -16737.45 7.67, -16624.8 7.83, -16512.77 8.0, -16401.37 8.17, -16290.6 8.33, -16180.44 8.5, -16070.9 8.67, -15961.97 8.83, -15853.66 9.0, -15745.96 9.17, -15638.86 9.33, -15532.36 9.5, -15426.47 9.67, -15321.17 9.83, -15216.47 10.0, -15112.37 10.17, -15008.85 10.33, -14905.92 10.5, -14803.57 10.67, -14701.81 10.83, -14600.63 11.0, -14500.02 11.17, -14399.99 11.33, -14300.53 11.5, -14201.63 11.67, -14103.31 11.83, -14005.54 12.0, -13908.34 12.17, -13811.7 12.33, -13715.61 12.5, -13620.08 12.67, -13525.1 12.83, -13430.66 13.0, -13336.77 13.17, -13243.43 13.33, -13150.62 13.5, -13058.36 13.67, -12966.63 13.83, -12875.43 14.0, -12784.76 14.17, -12694.62 14.33, -12605.01 14.5, -12515.92 14.67, -12427.35 14.83, -12339.3 15.0, -12251.77 15.17, -12164.75 15.33, -12078.24 15.5, -11992.24 15.67, -11906.74 15.83, -11821.75 16.0, -11737.27 16.17, -11653.28 16.33, -11569.79 16.5, -11486.79 16.67, -11404.28 16.83, -11322.27 17.0, -11240.74 17.17, -11159.7 17.33, -11079.14 17.5, -10999.06 17.67, -10919.46 17.83, -10840.33 18.0, -10761.68 18.17, -10683.5 18.33, -10605.79 18.5, -10528.55 18.67, -10451.77 18.83, -10375.45 19.0, -10299.6 19.17, -10224.2 19.33, -10149.26 19.5, -10074.77 19.67, -10000.73 19.83, -9927.14 20.0, -9854.0 20.17, -9781.31 20.33, -9709.05 20.5, -9637.24 20.67, -9565.86 20.83, -9494.92 21.0, -9424.42 21.17, -9354.35 21.33, -9284.7 21.5, -9215.49 21.67, -9146.7 21.83, -9078.33 22.0, -9010.39 22.17, -8942.86 22.33, -8875.75 22.5, -8809.06 22.67, -8742.78 22.83, -8676.91 23.0, -8611.45 23.17, -8546.4 23.33, -8481.75 23.5, -8417.5 23.67, -8353.66 23.83, -8290.21 24.0, -8227.16 24.17, -8164.51 24.33, -8102.25 24.5, -8040.38 24.67, -7978.9 24.83, -7917.81 25.0, -7857.1 25.17, -7796.77 25.33, -7736.83 25.5, -7677.26 25.67, -7618.07 25.83, -7559.26 26.0, -7500.82 26.17, -7442.75 26.33, -7385.05 26.5, -7327.72 26.67, -7270.76 26.83, -7214.16 27.0, -7157.92 27.17, -7102.04 27.33, -7046.52 27.5, -6991.36 27.67, -6936.55 27.83, -6882.09 28.0, -6827.99 28.17, -6774.23 28.33, -6720.83 28.5, -6667.76 28.67, -6615.05 28.83, -6562.67 29.0, -6510.63 29.17, -6458.94 29.33, -6407.58 29.5, -6356.55 29.67, -6305.86 29.83, -6255.5 30.0, -6205.47 30.17, -6155.76 30.33, -6106.38 30.5, -6057.33 30.67, -6008.6 30.83, -5960.19 31.0, -5912.1 31.17, -5864.33 31.33, -5816.88 31.5, -5769.74 31.67, -5722.91 31.83, -5676.39 32.0, -5630.18 32.17, -5584.28 32.33, -5538.69 32.5, -5493.4 32.67, -5448.41 32.83, -5403.72 33.0, -5359.34 33.17, -5315.25 33.33, -5271.46 33.5, -5227.96 33.67, -5184.75 33.83, -5141.84 34.0, -5099.22 34.17, -5056.88 34.33, -5014.83 34.5, -4973.07 34.67, -4931.59 34.83, -4890.39 35.0, -4849.48 35.17, -4808.84 35.33, -4768.48 35.5, -4728.4 35.67, -4688.59 35.83, -4649.05 36.0, -4609.78 36.17, -4570.79 36.33, -4532.06 36.5, -4493.6 36.67, -4455.41 36.83, -4417.48 37.0, -4379.81 37.17, -4342.4 37.33, -4305.25 37.5, -4268.36 37.67, -4231.73 37.83, -4195.35 38.0, -4159.23 38.17, -4123.36 38.33, -4087.74 38.5, -4052.37 38.67, -4017.24 38.83, -3982.37 39.0, -3947.74 39.17, -3913.35 39.33, -3879.21 39.5, -3845.3 39.67, -3811.64 39.83, -3778.22 40.0, -3745.03 40.17, -3712.08 40.33, -3679.36 40.5, -3646.88 40.67, -3614.62 40.83, -3582.6 41.0, -3550.81 41.17, -3519.24 41.33, -3487.9 41.5, -3456.79 41.67, -3425.9 41.83, -3395.23 42.0, -3364.79 42.17, -3334.56 42.33, -3304.55 42.5, -3274.76 42.67, -3245.19 42.83, -3215.83 43.0, -3186.68 43.17, -3157.75 43.33, -3129.02 43.5, -3100.51 43.67, -3072.21 43.83, -3044.11 44.0, -3016.22 44.17, -2988.53 44.33, -2961.05 44.5, -2933.77 44.67, -2906.69 44.83, -2879.81 45.0, -2853.13 45.17, -2826.65 45.33, -2800.37 45.5, -2774.28 45.67, -2748.38 45.83, -2722.68 46.0, -2697.17 46.17, -2671.85 46.33, -2646.71 46.5, -2621.77 46.67, -2597.02 46.83, -2572.45 47.0, -2548.06 47.17, -2523.86 47.33, -2499.84 47.5, -2476.01 47.67, -2452.35 47.83, -2428.87 48.0, -2405.58 48.17, -2382.46 48.33, -2359.51 48.5, -2336.74 48.67, -2314.14 48.83, -2291.72 49.0, -2269.47 49.17, -2247.39 49.33, -2225.48 49.5, -2203.74 49.67, -2182.16 49.83, -2160.75 50.0, -2139.51 50.17, -2118.43 50.33, -2097.52 50.5, -2076.76 50.67, -2056.17 50.83, -2035.74 51.0, -2015.47 51.17, -1995.36 51.33, -1975.4 51.5, -1955.6 51.67, -1935.96 51.83, -1916.47 52.0, -1897.13 52.17, -1877.95 52.33, -1858.91 52.5, -1840.03 52.67, -1821.3 52.83, -1802.71 53.0, -1784.28 53.17, -1765.98 53.33, -1747.84 53.5, -1729.84 53.67, -1711.98 53.83, -1694.27 54.0, -1676.7 54.17, -1659.27 54.33, -1641.98 54.5, -1624.83 54.67, -1607.81 54.83, -1590.94 55.0, -1574.2 55.17, -1557.6 55.33, -1541.13 55.5, -1524.79 55.67, -1508.59 55.83, -1492.52 56.0, -1476.58 56.17, -1460.77 56.33, -1445.09 56.5, -1429.54 56.67, -1414.12 56.83, -1398.82 57.0, -1383.65 57.17, -1368.61 57.33, -1353.69 57.5, -1338.89 57.67, -1324.21 57.83, -1309.66 58.0, -1295.23 58.17, -1280.92 58.33, -1266.73 58.5, -1252.65 58.67, -1238.7 58.83, -1224.86 59.0, -1211.13 59.17, -1197.53 59.33, -1184.03 59.5, -1170.65 59.67, -1157.39 59.83, -1144.23 60.0, -1131.19 60.17, -1118.26 60.33, -1105.44 60.5, -1092.72 60.67, -1080.12 60.83, -1067.62 61.0, -1055.23 61.17, -1042.95 61.33, -1030.77 61.5, -1018.69 61.67, -1006.72 61.83, -994.86 62.0, -983.09 62.17, -971.43 62.33, -959.87 62.5, -948.41 62.67, -937.05 62.83, -925.78 63.0, -914.62 63.17, -903.55 63.33, -892.58 63.5, -881.71 63.67, -870.93 63.83, -860.24 64.0, -849.65 64.17, -839.16 64.33, -828.75 64.5, -818.44 64.67, -808.22 64.83, -798.09 65.0, -788.05 65.17, -778.1 65.33, -768.24 65.5, -758.46 65.67, -748.77 65.83, -739.18 66.0, -729.66 66.17, -720.23 66.33, -710.89 66.5, -701.63 66.67, -692.46 66.83, -683.36 67.0, -674.35 67.17, -665.43 67.33, -656.58 67.5, -647.81 67.67, -639.13 67.83, -630.52 68.0, -621.99 68.17, -613.54 68.33, -605.17 68.5, -596.87 68.67, -588.65 68.83, -580.51 69.0, -572.44 69.17, -564.45 69.33, -556.53 69.5, -548.68 69.67, -540.91 69.83, -533.21 70.0, -525.58 70.17, -518.02 70.33, -510.54 70.5, -503.12 70.67, -495.78 70.83, -488.5 71.0, -481.29 71.17, -474.15 71.33, -467.08 71.5, -460.07 71.67, -453.13 71.83, -446.26 72.0, -439.45 72.17, -432.7 72.33, -426.02 72.5, -419.41 72.67, -412.86 72.83, -406.37 73.0, -399.94 73.17, -393.58 73.33, -387.27 73.5, -381.03 73.67, -374.85 73.83, -368.73 74.0, -362.66 74.17, -356.66 74.33, -350.71 74.5, -344.83 74.67, -339.0 74.83, -333.22 75.0, -327.51 75.17, -321.85 75.33, -316.24 75.5, -310.69 75.67, -305.2 75.83, -299.76 76.0, -294.37 76.17, -289.04 76.33, -283.76 76.5, -278.53 76.67, -273.36 76.83, -268.24 77.0, -263.16 77.17, -258.14 77.33, -253.17 77.5, -248.25 77.67, -243.38 77.83, -238.55 78.0, -233.78 78.17, -229.05 78.33, -224.38 78.5, -219.75 78.67, -215.16 78.83, -210.63 79.0, -206.14 79.17, -201.69 79.33, -197.29 79.5, -192.94 79.67, -188.63 79.83, -184.36 80.0, -180.14 80.17, -175.97 80.33, -171.83 80.5, -167.74 80.67, -163.69 80.83, -159.68 81.0, -155.72 81.17, -151.79 81.33, -147.91 81.5, -144.06 81.67, -140.26 81.83, -136.5 82.0, -132.78 82.17, -129.09 82.33, -125.44 82.5, -121.84 82.67, -118.27 82.83, -114.74 83.0, -111.24 83.17, -107.79 83.33, -104.37 83.5, -100.98 83.67, -97.63 83.83, -94.32 84.0, -91.04 84.17, -87.8 84.33, -84.59 84.5, -81.42 84.67, -78.28 84.83, -75.18 85.0, -72.11 85.17, -69.07 85.33, -66.06 85.5, -63.09 85.67, -60.15 85.83, -57.24 86.0, -54.36 86.17, -51.52 86.33, -48.7 86.5, -45.92 86.67, -43.17 86.83, -40.44 87.0, -37.75 87.17, -35.09 87.33, -32.45 87.5, -29.84 87.67, -27.27 87.83, -24.72 88.0, -22.2 88.17, -19.71 88.33, -17.24 88.5, -14.8 88.67, -12.39 88.83, -10.01 89.0, -7.65 89.17, -5.32 89.33, -3.02 89.5, -0.74 89.67, 1.52 89.83, 3.74 90.0, 5.95 90.17, 8.13 90.33, 10.28 90.5, 12.41 90.67, 14.51 90.83, 16.6 91.0, 18.66 91.17, 20.69 91.33, 22.7 91.5, 24.69 91.67, 26.66 91.83, 28.6 92.0, 30.52 92.17, 32.42 92.33, 34.3 92.5, 36.16 92.67, 38.0 92.83, 39.81 93.0, 41.61 93.17, 43.38 93.33, 45.13 93.5, 46.87 93.67, 48.58 93.83, 50.27 94.0, 51.95 94.17, 53.6 94.33, 55.24 94.5, 56.85 94.67, 58.45 94.83, 60.03 95.0, 61.59 95.17, 63.14 95.33, 64.66 95.5, 66.17 95.67, 67.66 95.83, 69.13 96.0, 70.59 96.17, 72.03 96.33, 73.45 96.5, 74.86 96.67, 76.25 96.83, 77.62 97.0, 78.98 97.17, 80.32 97.33, 81.65 97.5, 82.96 97.67, 84.25 97.83, 85.53 98.0, 86.8 98.17, 88.05 98.33, 89.28 98.5, 90.5 98.67, 91.71 98.83, 92.9 99.0, 94.08 99.17, 95.25 99.33, 96.4 99.5, 97.54 99.67, 98.66 99.83, 99.78 100.0, 100.87 100.17, 101.96 100.33, 103.03 100.5, 104.09 100.67, 105.14 100.83, 106.18 101.0, 107.2 101.17, 108.22 101.33, 109.22 101.5, 110.2 101.67, 111.18 101.83, 112.15 102.0, 113.1 102.17, 114.05 102.33, 114.98 102.5, 115.9 102.67, 116.81 102.83, 117.71 103.0, 118.6 103.17, 119.48 103.33, 120.35 103.5, 121.21 103.67, 122.06 103.83, 122.9 104.0, 123.73 104.17, 124.55 104.33, 125.36 104.5, 126.16 104.67, 126.95 104.83, 127.74 105.0, 128.51 105.17, 129.28 105.33, 130.04 105.5, 130.78 105.67, 131.52 105.83, 132.26 106.0, 132.98 106.17, 133.69 106.33, 134.4 106.5, 135.1 106.67, 135.79 106.83, 136.48 107.0, 137.15 107.17, 137.82 107.33, 138.48 107.5, 139.13 107.67, 139.78 107.83, 140.42 108.0, 141.05 108.17, 141.68 108.33, 142.29 108.5, 142.91 108.67, 143.51 108.83, 144.11 109.0, 144.7 109.17, 145.29 109.33, 145.87 109.5, 146.44 109.67, 147.01 109.83, 147.57 110.0, 148.12 110.17, 148.67 110.33, 149.21 110.5, 149.75 110.67, 150.28 110.83, 150.81 111.0, 151.33 111.17, 151.85 111.33, 152.36 111.5, 152.86 111.67, 153.36 111.83, 153.86 112.0, 154.35 112.17, 154.83 112.33, 155.31 112.5, 155.79 112.67, 156.26 112.83, 156.72 113.0, 157.18 113.17, 157.64 113.33, 158.09 113.5, 158.54 113.67, 158.98 113.83, 159.42 114.0, 159.86 114.17, 160.29 114.33, 160.72 114.5, 161.14 114.67, 161.56 114.83, 161.97 115.0, 162.38 115.17, 162.79 115.33, 163.2 115.5, 163.6 115.67, 163.99 115.83, 164.39 116.0, 164.78 116.17, 165.16 116.33, 165.55 116.5, 165.92 116.67, 166.3 116.83, 166.67 117.0, 167.04 117.17, 167.41 117.33, 167.78 117.5, 168.14 117.67, 168.49 117.83, 168.85 118.0, 169.2 118.17, 169.55 118.33, 169.9 118.5, 170.24 118.67, 170.58 118.83, 170.92 119.0, 171.26 119.17, 171.59 119.33, 171.92 119.5, 172.25 119.67, 172.58 119.83, 172.9 120.0, 173.22 120.17, 173.54 120.33, 173.86 120.5, 174.17 120.67, 174.48 120.83, 174.79 121.0, 175.1 121.17, 175.41 121.33, 175.71 121.5, 176.01 121.67, 176.31 121.83, 176.61 122.0, 176.91 122.17, 177.2 122.33, 177.49 122.5, 177.78 122.67, 178.07 122.83, 178.36 123.0, 178.64 123.17, 178.93 123.33, 179.21 123.5, 179.49 123.67, 179.77 123.83, 180.04 124.0, 180.32 124.17, 180.59 124.33, 180.86 124.5, 181.13 124.67, 181.4 124.83, 181.67 125.0, 181.94 125.17, 182.2 125.33, 182.47 125.5, 182.73 125.67, 182.99 125.83, 183.25 126.0, 183.51 126.17, 183.76 126.33, 184.02 126.5, 184.27 126.67, 184.53 126.83, 184.78 127.0, 185.03 127.17, 185.28 127.33, 185.53 127.5, 185.77 127.67, 186.02 127.83, 186.27 128.0, 186.51 128.17, 186.75 128.33, 186.99 128.5, 187.24 128.67, 187.48 128.83, 187.71 129.0, 187.95 129.17, 188.19 129.33, 188.43 129.5, 188.66 129.67, 188.89 129.83, 189.13 130.0, 189.36 130.17, 189.59 130.33, 189.82 130.5, 190.05 130.67, 190.28 130.83, 190.51 131.0, 190.73 131.17, 190.96 131.33, 191.19 131.5, 191.41 131.67, 191.63 131.83, 191.86 132.0, 192.08 132.17, 192.3 132.33, 192.52 132.5, 192.74 132.67, 192.96 132.83, 193.18 133.0, 193.39 133.17, 193.61 133.33, 193.83 133.5, 194.04 133.67, 194.26 133.83, 194.47 134.0, 194.68 134.17, 194.9 134.33, 195.11 134.5, 195.32 134.67, 195.53 134.83, 195.74 135.0, 195.95 135.17, 196.15 135.33, 196.36 135.5, 196.57 135.67, 196.77 135.83, 196.98 136.0, 197.18 136.17, 197.39 136.33, 197.59 136.5, 197.79 136.67, 198.0 136.83, 198.2 137.0, 198.4 137.17, 198.6 137.33, 198.8 137.5, 198.99 137.67, 199.19 137.83, 199.39 138.0, 199.59 138.17, 199.78 138.33, 199.98 138.5, 200.17 138.67, 200.36 138.83, 200.56 139.0, 200.75 139.17, 200.94 139.33, 201.13 139.5, 201.32 139.67, 201.51 139.83, 201.7 140.0, 201.89 140.17, 202.08 140.33, 202.26 140.5, 202.45 140.67, 202.64 140.83, 202.82 141.0, 203.0 141.17, 203.19 141.33, 203.37 141.5, 203.55 141.67, 203.73 141.83, 203.91 142.0, 204.09 142.17, 204.27 142.33, 204.45 142.5, 204.63 142.67, 204.81 142.83, 204.98 143.0, 205.16 143.17, 205.33 143.33, 205.5 143.5, 205.68 143.67, 205.85 143.83, 206.02 144.0, 206.19 144.17, 206.36 144.33, 206.53 144.5, 206.7 144.67, 206.87 144.83, 207.03 145.0, 207.2 145.17, 207.37 145.33, 207.53 145.5, 207.69 145.67, 207.86 145.83, 208.02 146.0, 208.18 146.17, 208.34 146.33, 208.5 146.5, 208.66 146.67, 208.82 146.83, 208.97 147.0, 209.13 147.17, 209.28 147.33, 209.44 147.5, 209.59 147.67, 209.74 147.83, 209.9 148.0, 210.05 148.17, 210.2 148.33, 210.35 148.5, 210.49 148.67, 210.64 148.83, 210.79 149.0, 210.93 149.17, 211.08 149.33, 211.22 149.5, 211.36 149.67, 211.5 149.83, 211.64 150.0, 211.78 150.17, 211.92 150.33, 212.06 150.5, 212.2 150.67, 212.33 150.83, 212.47 151.0, 212.6 151.17, 212.73 151.33, 212.86 151.5, 212.99 151.67, 213.12 151.83, 213.25 152.0, 213.38 152.17, 213.51 152.33, 213.63 152.5, 213.76 152.67, 213.88 152.83, 214.0 153.0, 214.12 153.17, 214.24 153.33, 214.36 153.5, 214.48 153.67, 214.6 153.83, 214.71 154.0, 214.83 154.17, 214.94 154.33, 215.05 154.5, 215.16 154.67, 215.27 154.83, 215.38 155.0, 215.49 155.17, 215.6 155.33, 215.7 155.5, 215.8 155.67, 215.91 155.83, 216.01 156.0, 216.11 156.17, 216.21 156.33, 216.31 156.5, 216.41 156.67, 216.5 156.83, 216.6 157.0, 216.69 157.17, 216.78 157.33, 216.87 157.5, 216.96 157.67, 217.05 157.83, 217.14 158.0, 217.22 158.17, 217.31 158.33, 217.39 158.5, 217.48 158.67, 217.56 158.83, 217.64 159.0, 217.72 159.17, 217.79 159.33, 217.87 159.5, 217.94 159.67, 218.02 159.83, 218.09 160.0, 218.16 160.17, 218.23 160.33, 218.3 160.5, 218.37 160.67, 218.43 160.83, 218.5 161.0, 218.56 161.17, 218.62 161.33, 218.68 161.5, 218.74 161.67, 218.8 161.83, 218.85 162.0, 218.91 162.17, 218.96 162.33, 219.02 162.5, 219.07 162.67, 219.12 162.83, 219.17 163.0, 219.21 163.17, 219.26 163.33, 219.3 163.5, 219.35 163.67, 219.39 163.83, 219.43 164.0, 219.47 164.17, 219.5 164.33, 219.54 164.5, 219.58 164.67, 219.61 164.83, 219.64 165.0, 219.67 165.17, 219.7 165.33, 219.73 165.5, 219.76 165.67, 219.78 165.83, 219.8 166.0, 219.83 166.17, 219.85 166.33, 219.87 166.5, 219.89 166.67, 219.9 166.83, 219.92 167.0, 219.93 167.17, 219.95 167.33, 219.96 167.5, 219.97 167.67, 219.98 167.83, 219.98 168.0, 219.99 168.17, 219.99 168.33, 220.0 168.5, 220.0 168.67, 220.0 168.83, 220.0 169.0, 219.99 169.17, 219.99 169.33, 219.98 169.5, 219.98 169.67, 219.97 169.83, 219.96 170.0, 219.95 170.17, 219.94 170.33, 219.92 170.5, 219.91 170.67, 219.89 170.83, 219.87 171.0, 219.85 171.17, 219.83 171.33, 219.81 171.5, 219.79 171.67, 219.76 171.83, 219.74 172.0, 219.71 172.17, 219.68 172.33, 219.65 172.5, 219.62 172.67, 219.58 172.83, 219.55 173.0, 219.51 173.17, 219.48 173.33, 219.44 173.5, 219.4 173.67, 219.36 173.83, 219.31 174.0, 219.27 174.17, 219.23 174.33, 219.18 174.5, 219.13 174.67, 219.08 174.83, 219.03 175.0, 218.98 175.17, 218.93 175.33, 218.87 175.5, 218.82 175.67, 218.76 175.83, 218.7 176.0, 218.64 176.17, 218.58 176.33, 218.52 176.5, 218.45 176.67, 218.39 176.83, 218.32 177.0, 218.26 177.17, 218.19 177.33, 218.12 177.5, 218.05 177.67, 217.97 177.83, 217.9 178.0, 217.82 178.17, 217.75 178.33, 217.67 178.5, 217.59 178.67, 217.51 178.83, 217.43 179.0, 217.35 179.17, 217.26 179.33, 217.18 179.5, 217.09 179.67, 217.01 179.83, 216.92 180.0, 216.83 180.17, 216.74 180.33, 216.65 180.5, 216.55 180.67, 216.46 180.83, 216.36 181.0, 216.27 181.17, 216.17 181.33, 216.07 181.5, 215.97 181.67, 215.87 181.83, 215.77 182.0, 215.67 182.17, 215.56 182.33, 215.46 182.5, 215.35 182.67, 215.24 182.83, 215.14 183.0, 215.03 183.17, 214.92 183.33, 214.8 183.5, 214.69 183.67, 214.58 183.83, 214.46 184.0, 214.35 184.17, 214.23 184.33, 214.11 184.5, 213.99 184.67, 213.87 184.83, 213.75 185.0, 213.63 185.17, 213.51 185.33, 213.39 185.5, 213.26 185.67, 213.14 185.83, 213.01 186.0, 212.88 186.17, 212.76 186.33, 212.63 186.5, 212.5 186.67, 212.37 186.83, 212.24 187.0, 212.1 187.17, 211.97 187.33, 211.84 187.5, 211.7 187.67, 211.57 187.83, 211.43 188.0, 211.29 188.17, 211.15 188.33, 211.02 188.5, 210.88 188.67, 210.74 188.83, 210.6 189.0, 210.45 189.17, 210.31 189.33, 210.17 189.5, 210.02 189.67, 209.88 189.83, 209.73 190.0, 209.59 190.17, 209.44 190.33, 209.29 190.5, 209.15 190.67, 209.0 190.83, 208.85 191.0, 208.7 191.17, 208.55 191.33, 208.4 191.5, 208.25 191.67, 208.09 191.83, 207.94 192.0, 207.79 192.17, 207.63 192.33, 207.48 192.5, 207.33 192.67, 207.17 192.83, 207.01 193.0, 206.86 193.17, 206.7 193.33, 206.54 193.5, 206.39 193.67, 206.23 193.83, 206.07 194.0, 205.91 194.17, 205.75 194.33, 205.59 194.5, 205.43 194.67, 205.27 194.83, 205.11 195.0, 204.95 195.17, 204.79 195.33, 204.62 195.5, 204.46 195.67, 204.3 195.83, 204.14 196.0, 203.97 196.17, 203.81 196.33, 203.65 196.5, 203.48 196.67, 203.32 196.83, 203.15 197.0, 202.99 197.17, 202.82 197.33, 202.66 197.5, 202.49 197.67, 202.33 197.83, 202.16 198.0, 202.0 198.17, 201.83 198.33, 201.66 198.5, 201.5 198.67, 201.33 198.83, 201.17 199.0, 201.0 199.17, 200.83 199.33, 200.67 199.5, 200.5 199.67, 200.33 199.83, 200.17 200.0, 200.0 200.17, 199.83 200.33, 199.67 200.5, 199.5 200.67, 199.33 200.83, 199.17 201.0, 199.0 201.17, 198.83 201.33, 198.67 201.5, 198.5 201.67, 198.34 201.83, 198.17 202.0, 198.0 202.17, 197.84 202.33, 197.67 202.5, 197.51 202.67, 197.34 202.83, 197.18 203.0, 197.01 203.17, 196.85 203.33, 196.68 203.5, 196.52 203.67, 196.35 203.83, 196.19 204.0, 196.03 204.17, 195.86 204.33, 195.7 204.5, 195.54 204.67, 195.38 204.83, 195.21 205.0, 195.05 205.17, 194.89 205.33, 194.73 205.5, 194.57 205.67, 194.41 205.83, 194.25 206.0, 194.09 206.17, 193.93 206.33, 193.77 206.5, 193.61 206.67, 193.46 206.83, 193.3 207.0, 193.14 207.17, 192.99 207.33, 192.83 207.5, 192.67 207.67, 192.52 207.83, 192.37 208.0, 192.21 208.17, 192.06 208.33, 191.91 208.5, 191.75 208.67, 191.6 208.83, 191.45 209.0, 191.3 209.17, 191.15 209.33, 191.0 209.5, 190.85 209.67, 190.71 209.83, 190.56 210.0, 190.41 210.17, 190.27 210.33, 190.12 210.5, 189.98 210.67, 189.83 210.83, 189.69 211.0, 189.55 211.17, 189.4 211.33, 189.26 211.5, 189.12 211.67, 188.98 211.83, 188.85 212.0, 188.71 212.17, 188.57 212.33, 188.43 212.5, 188.3 212.67, 188.16 212.83, 188.03 213.0, 187.9 213.17, 187.76 213.33, 187.63 213.5, 187.5 213.67, 187.37 213.83, 187.24 214.0, 187.12 214.17, 186.99 214.33, 186.86 214.5, 186.74 214.67, 186.61 214.83, 186.49 215.0, 186.37 215.17, 186.25 215.33, 186.13 215.5, 186.01 215.67, 185.89 215.83, 185.77 216.0, 185.65 216.17, 185.54 216.33, 185.42 216.5, 185.31 216.67, 185.2 216.83, 185.08 217.0, 184.97 217.17, 184.86 217.33, 184.76 217.5, 184.65 217.67, 184.54 217.83, 184.44 218.0, 184.33 218.17, 184.23 218.33, 184.13 218.5, 184.03 218.67, 183.93 218.83, 183.83 219.0, 183.73 219.17, 183.64 219.33, 183.54 219.5, 183.45 219.67, 183.35 219.83, 183.26 220.0, 183.17 220.17, 183.08 220.33, 182.99 220.5, 182.91 220.67, 182.82 220.83, 182.74 221.0, 182.65 221.17, 182.57 221.33, 182.49 221.5, 182.41 221.67, 182.33 221.83, 182.25 222.0, 182.18 222.17, 182.1 222.33, 182.03 222.5, 181.95 222.67, 181.88 222.83, 181.81 223.0, 181.74 223.17, 181.68 223.33, 181.61 223.5, 181.55 223.67, 181.48 223.83, 181.42 224.0, 181.36 224.17, 181.3 224.33, 181.24 224.5, 181.18 224.67, 181.13 224.83, 181.07 225.0, 181.02 225.17, 180.97 225.33, 180.92 225.5, 180.87 225.67, 180.82 225.83, 180.77 226.0, 180.73 226.17, 180.69 226.33, 180.64 226.5, 180.6 226.67, 180.56 226.83, 180.52 227.0, 180.49 227.17, 180.45 227.33, 180.42 227.5, 180.38 227.67, 180.35 227.83, 180.32 228.0, 180.29 228.17, 180.26 228.33, 180.24 228.5, 180.21 228.67, 180.19 228.83, 180.17 229.0, 180.15 229.17, 180.13 229.33, 180.11 229.5, 180.09 229.67, 180.08 229.83, 180.06 230.0, 180.05 230.17, 180.04 230.33, 180.03 230.5, 180.02 230.67, 180.02 230.83, 180.01 231.0, 180.01 231.17, 180.0 231.33, 180.0 231.5, 180.0 231.67, 180.0 231.83, 180.01 232.0, 180.01 232.17, 180.02 232.33, 180.02 232.5, 180.03 232.67, 180.04 232.83, 180.05 233.0, 180.07 233.17, 180.08 233.33, 180.1 233.5, 180.11 233.67, 180.13 233.83, 180.15 234.0, 180.17 234.17, 180.2 234.33, 180.22 234.5, 180.24 234.67, 180.27 234.83, 180.3 235.0, 180.33 235.17, 180.36 235.33, 180.39 235.5, 180.42 235.67, 180.46 235.83, 180.5 236.0, 180.53 236.17, 180.57 236.33, 180.61 236.5, 180.65 236.67, 180.7 236.83, 180.74 237.0, 180.79 237.17, 180.83 237.33, 180.88 237.5, 180.93 237.67, 180.98 237.83, 181.04 238.0, 181.09 238.17, 181.15 238.33, 181.2 238.5, 181.26 238.67, 181.32 238.83, 181.38 239.0, 181.44 239.17, 181.5 239.33, 181.57 239.5, 181.63 239.67, 181.7 239.83, 181.77 240.0, 181.84 240.17, 181.91 240.33, 181.98 240.5, 182.06 240.67, 182.13 240.83, 182.21 241.0, 182.28 241.17, 182.36 241.33, 182.44 241.5, 182.52 241.67, 182.61 241.83, 182.69 242.0, 182.78 242.17, 182.86 242.33, 182.95 242.5, 183.04 242.67, 183.13 242.83, 183.22 243.0, 183.31 243.17, 183.4 243.33, 183.5 243.5, 183.59 243.67, 183.69 243.83, 183.79 244.0, 183.89 244.17, 183.99 244.33, 184.09 244.5, 184.2 244.67, 184.3 244.83, 184.4 245.0, 184.51 245.17, 184.62 245.33, 184.73 245.5, 184.84 245.67, 184.95 245.83, 185.06 246.0, 185.17 246.17, 185.29 246.33, 185.4 246.5, 185.52 246.67, 185.64 246.83, 185.76 247.0, 185.88 247.17, 186.0 247.33, 186.12 247.5, 186.24 247.67, 186.37 247.83, 186.49 248.0, 186.62 248.17, 186.75 248.33, 186.88 248.5, 187.01 248.67, 187.14 248.83, 187.27 249.0, 187.4 249.17, 187.53 249.33, 187.67 249.5, 187.8 249.67, 187.94 249.83, 188.08 250.0, 188.22 250.17, 188.36 250.33, 188.5 250.5, 188.64 250.67, 188.78 250.83, 188.92 251.0, 189.07 251.17, 189.21 251.33, 189.36 251.5, 189.51 251.67, 189.65 251.83, 189.8 252.0, 189.95 252.17, 190.1 252.33, 190.26 252.5, 190.41 252.67, 190.56 252.83, 190.72 253.0, 190.87 253.17, 191.03 253.33, 191.18 253.5, 191.34 253.67, 191.5 253.83, 191.66 254.0, 191.82 254.17, 191.98 254.33, 192.14 254.5, 192.31 254.67, 192.47 254.83, 192.63 255.0, 192.8 255.17, 192.97 255.33, 193.13 255.5, 193.3 255.67, 193.47 255.83, 193.64 256.0, 193.81 256.17, 193.98 256.33, 194.15 256.5, 194.32 256.67, 194.5 256.83, 194.67 257.0, 194.84 257.17, 195.02 257.33, 195.19 257.5, 195.37 257.67, 195.55 257.83, 195.73 258.0, 195.91 258.17, 196.09 258.33, 196.27 258.5, 196.45 258.67, 196.63 258.83, 196.81 259.0, 197.0 259.17, 197.18 259.33, 197.36 259.5, 197.55 259.67, 197.74 259.83, 197.92 260.0, 198.11 260.17, 198.3 260.33, 198.49 260.5, 198.68 260.67, 198.87 260.83, 199.06 261.0, 199.25 261.17, 199.44 261.33, 199.64 261.5, 199.83 261.67, 200.02 261.83, 200.22 262.0, 200.41 262.17, 200.61 262.33, 200.81 262.5, 201.01 262.67, 201.2 262.83, 201.4 263.0, 201.6 263.17, 201.8 263.33, 202.0 263.5, 202.21 263.67, 202.41 263.83, 202.61 264.0, 202.82 264.17, 203.02 264.33, 203.23 264.5, 203.43 264.67, 203.64 264.83, 203.85 265.0, 204.05 265.17, 204.26 265.33, 204.47 265.5, 204.68 265.67, 204.89 265.83, 205.1 266.0, 205.32 266.17, 205.53 266.33, 205.74 266.5, 205.96 266.67, 206.17 266.83, 206.39 267.0, 206.61 267.17, 206.82 267.33, 207.04 267.5, 207.26 267.67, 207.48 267.83, 207.7 268.0, 207.92 268.17, 208.14 268.33, 208.37 268.5, 208.59 268.67, 208.81 268.83, 209.04 269.0, 209.27 269.17, 209.49 269.33, 209.72 269.5, 209.95 269.67, 210.18 269.83, 210.41 270.0, 210.64 270.17, 210.87 270.33, 211.11 270.5, 211.34 270.67, 211.57 270.83, 211.81 271.0, 212.05 271.17, 212.29 271.33, 212.52 271.5, 212.76 271.67, 213.01 271.83, 213.25 272.0, 213.49 272.17, 213.73 272.33, 213.98 272.5, 214.23 272.67, 214.47 272.83, 214.72 273.0, 214.97 273.17, 215.22 273.33, 215.47 273.5, 215.73 273.67, 215.98 273.83, 216.24 274.0, 216.49 274.17, 216.75 274.33, 217.01 274.5, 217.27 274.67, 217.53 274.83, 217.8 275.0, 218.06 275.17, 218.33 275.33, 218.6 275.5, 218.87 275.67, 219.14 275.83, 219.41 276.0, 219.68 276.17, 219.96 276.33, 220.23 276.5, 220.51 276.67, 220.79 276.83, 221.07 277.0, 221.36 277.17, 221.64 277.33, 221.93 277.5, 222.22 277.67, 222.51 277.83, 222.8 278.0, 223.09 278.17, 223.39 278.33, 223.69 278.5, 223.99 278.67, 224.29 278.83, 224.59 279.0, 224.9 279.17, 225.21 279.33, 225.52 279.5, 225.83 279.67, 226.14 279.83, 226.46 280.0, 226.78 280.17, 227.1 280.33, 227.42 280.5, 227.75 280.67, 228.08 280.83, 228.41 281.0, 228.74 281.17, 229.08 281.33, 229.42 281.5, 229.76 281.67, 230.1 281.83, 230.45 282.0, 230.8 282.17, 231.15 282.33, 231.51 282.5, 231.86 282.67, 232.22 282.83, 232.59 283.0, 232.96 283.17, 233.33 283.33, 233.7 283.5, 234.08 283.67, 234.45 283.83, 234.84 284.0, 235.22 284.17, 235.61 284.33, 236.01 284.5, 236.4 284.67, 236.8 284.83, 237.21 285.0, 237.62 285.17, 238.03 285.33, 238.44 285.5, 238.86 285.67, 239.28 285.83, 239.71 286.0, 240.14 286.17, 240.58 286.33, 241.02 286.5, 241.46 286.67, 241.91 286.83, 242.36 287.0, 242.82 287.17, 243.28 287.33, 243.74 287.5, 244.21 287.67, 244.69 287.83, 245.17 288.0, 245.65 288.17, 246.14 288.33, 246.64 288.5, 247.14 288.67, 247.64 288.83, 248.15 289.0, 248.67 289.17, 249.19 289.33, 249.72 289.5, 250.25 289.67, 250.79 289.83, 251.33 290.0, 251.88 290.17, 252.43 290.33, 252.99 290.5, 253.56 290.67, 254.13 290.83, 254.71 291.0, 255.3 291.17, 255.89 291.33, 256.49 291.5, 257.09 291.67, 257.71 291.83, 258.32 292.0, 258.95 292.17, 259.58 292.33, 260.22 292.5, 260.87 292.67, 261.52 292.83, 262.18 293.0, 262.85 293.17, 263.52 293.33, 264.21 293.5, 264.9 293.67, 265.6 293.83, 266.31 294.0, 267.02 294.17, 267.74 294.33, 268.48 294.5, 269.22 294.67, 269.96 294.83, 270.72 295.0, 271.49 295.17, 272.26 295.33, 273.05 295.5, 273.84 295.67, 274.64 295.83, 275.45 296.0, 276.27 296.17, 277.1 296.33, 277.94 296.5, 278.79 296.67, 279.65 296.83, 280.52 297.0, 281.4 297.17, 282.29 297.33, 283.19 297.5, 284.1 297.67, 285.02 297.83, 285.95 298.0, 286.9 298.17, 287.85 298.33, 288.82 298.5, 289.8 298.67, 290.78 298.83, 291.78 299.0, 292.8 299.17, 293.82 299.33, 294.86 299.5, 295.91 299.67, 296.97 299.83, 298.04 300.0, 299.13 300.17, 300.22 300.33, 301.34 300.5, 302.46 300.67, 303.6 300.83, 304.75 301.0, 305.92 301.17, 307.1 301.33, 308.29 301.5, 309.5 301.67, 310.72 301.83, 311.95 302.0, 313.2 302.17, 314.47 302.33, 315.75 302.5, 317.04 302.67, 318.35 302.83, 319.68 303.0, 321.02 303.17, 322.38 303.33, 323.75 303.5, 325.14 303.67, 326.55 303.83, 327.97 304.0, 329.41 304.17, 330.87 304.33, 332.34 304.5, 333.83 304.67, 335.34 304.83, 336.86 305.0, 338.41 305.17, 339.97 305.33, 341.55 305.5, 343.15 305.67, 344.76 305.83, 346.4 306.0, 348.05 306.17, 349.73 306.33, 351.42 306.5, 353.13 306.67, 354.87 306.83, 356.62 307.0, 358.39 307.17, 360.19 307.33, 362.0 307.5, 363.84 307.67, 365.7 307.83, 367.58 308.0, 369.48 308.17, 371.4 308.33, 373.34 308.5, 375.31 308.67, 377.3 308.83, 379.31 309.0, 381.34 309.17, 383.4 309.33, 385.49 309.5, 387.59 309.67, 389.72 309.83, 391.87 310.0, 394.05 310.17, 396.26 310.33, 398.48 310.5, 400.74 310.67, 403.02 310.83, 405.32 311.0, 407.65 311.17, 410.01 311.33, 412.39 311.5, 414.8 311.67, 417.24 311.83, 419.71 312.0, 422.2 312.17, 424.72 312.33, 427.27 312.5, 429.84 312.67, 432.45 312.83, 435.09 313.0, 437.75 313.17, 440.44 313.33, 443.17 313.5, 445.92 313.67, 448.7 313.83, 451.52 314.0, 454.36 314.17, 457.24 314.33, 460.15 314.5, 463.09 314.67, 466.06 314.83, 469.07 315.0, 472.11 315.17, 475.18 315.33, 478.28 315.5, 481.42 315.67, 484.59 315.83, 487.8 316.0, 491.04 316.17, 494.32 316.33, 497.63 316.5, 500.98 316.67, 504.37 316.83, 507.79 317.0, 511.24 317.17, 514.74 317.33, 518.27 317.5, 521.84 317.67, 525.44 317.83, 529.09 318.0, 532.78 318.17, 536.5 318.33, 540.26 318.5, 544.06 318.67, 547.91 318.83, 551.79 319.0, 555.72 319.17, 559.68 319.33, 563.69 319.5, 567.74 319.67, 571.83 319.83, 575.97 320.0, 580.14 320.17, 584.36 320.33, 588.63 320.5, 592.94 320.67, 597.29 320.83, 601.69 321.0, 606.14 321.17, 610.63 321.33, 615.16 321.5, 619.75 321.67, 624.38 321.83, 629.05 322.0, 633.78 322.17, 638.55 322.33, 643.38 322.5, 648.25 322.67, 653.17 322.83, 658.14 323.0, 663.16 323.17, 668.24 323.33, 673.36 323.5, 678.53 323.67, 683.76 323.83, 689.04 324.0, 694.37 324.17, 699.76 324.33, 705.2 324.5, 710.69 324.67, 716.24 324.83, 721.85 325.0, 727.51 325.17, 733.22 325.33, 739.0 325.5, 744.83 325.67, 750.71 325.83, 756.66 326.0, 762.66 326.17, 768.73 326.33, 774.85 326.5, 781.03 326.67, 787.27 326.83, 793.58 327.0, 799.94 327.17, 806.37 327.33, 812.86 327.5, 819.41 327.67, 826.02 327.83, 832.7 328.0, 839.45 328.17, 846.26 328.33, 853.13 328.5, 860.07 328.67, 867.08 328.83, 874.15 329.0, 881.29 329.17, 888.5 329.33, 895.78 329.5, 903.12 329.67, 910.54 329.83, 918.02 330.0, 925.58 330.17, 933.21 330.33, 940.91 330.5, 948.68 330.67, 956.53 330.83, 964.45 331.0, 972.44 331.17, 980.51 331.33, 988.65 331.5, 996.87 331.67, 1005.17 331.83, 1013.54 332.0, 1021.99 332.17, 1030.52 332.33, 1039.13 332.5, 1047.81 332.67, 1056.58 332.83, 1065.43 333.0, 1074.35 333.17, 1083.36 333.33, 1092.46 333.5, 1101.63 333.67, 1110.89 333.83, 1120.23 334.0, 1129.66 334.17, 1139.18 334.33, 1148.77 334.5, 1158.46 334.67, 1168.24 334.83, 1178.1 335.0, 1188.05 335.17, 1198.09 335.33, 1208.22 335.5, 1218.44 335.67, 1228.75 335.83, 1239.16 336.0, 1249.65 336.17, 1260.24 336.33, 1270.93 336.5, 1281.71 336.67, 1292.58 336.83, 1303.55 337.0, 1314.62 337.17, 1325.78 337.33, 1337.05 337.5, 1348.41 337.67, 1359.87 337.83, 1371.43 338.0, 1383.09 338.17, 1394.86 338.33, 1406.72 338.5, 1418.69 338.67, 1430.77 338.83, 1442.95 339.0, 1455.23 339.17, 1467.62 339.33, 1480.12 339.5, 1492.72 339.67, 1505.44 339.83, 1518.26 340.0, 1531.19 340.17, 1544.23 340.33, 1557.39 340.5, 1570.65 340.67, 1584.03 340.83, 1597.53 341.0, 1611.13 341.17, 1624.86 341.33, 1638.7 341.5, 1652.65 341.67, 1666.73 341.83, 1680.92 342.0, 1695.23 342.17, 1709.66 342.33, 1724.21 342.5, 1738.89 342.67, 1753.69 342.83, 1768.61 343.0, 1783.65 343.17, 1798.82 343.33, 1814.12 343.5, 1829.54 343.67, 1845.09 343.83, 1860.77 344.0, 1876.58 344.17, 1892.52 344.33, 1908.59 344.5, 1924.79 344.67, 1941.13 344.83, 1957.6 345.0, 1974.2 345.17, 1990.94 345.33, 2007.81 345.5, 2024.83 345.67, 2041.98 345.83, 2059.27 346.0, 2076.7 346.17, 2094.27 346.33, 2111.98 346.5, 2129.84 346.67, 2147.84 346.83, 2165.98 347.0, 2184.28 347.17, 2202.71 347.33, 2221.3 347.5, 2240.03 347.67, 2258.91 347.83, 2277.95 348.0, 2297.13 348.17, 2316.47 348.33, 2335.96 348.5, 2355.6 348.67, 2375.4 348.83, 2395.36 349.0, 2415.47 349.17, 2435.74 349.33, 2456.17 349.5, 2476.76 349.67, 2497.52 349.83, 2518.43 350.0, 2539.51 350.17, 2560.75 350.33, 2582.16 350.5, 2603.74 350.67, 2625.48 350.83, 2647.39 351.0, 2669.47 351.17, 2691.72 351.33, 2714.14 351.5, 2736.74 351.67, 2759.51 351.83, 2782.46 352.0, 2805.58 352.17, 2828.87 352.33, 2852.35 352.5, 2876.01 352.67, 2899.84 352.83, 2923.86 353.0, 2948.06 353.17, 2972.45 353.33, 2997.02 353.5, 3021.77 353.67, 3046.71 353.83, 3071.85 354.0, 3097.17 354.17, 3122.68 354.33, 3148.38 354.5, 3174.28 354.67, 3200.37 354.83, 3226.65 355.0, 3253.13 355.17, 3279.81 355.33, 3306.69 355.5, 3333.77 355.67, 3361.05 355.83, 3388.53 356.0, 3416.22 356.17, 3444.11 356.33, 3472.21 356.5, 3500.51 356.67, 3529.02 356.83, 3557.75 357.0, 3586.68 357.17, 3615.83 357.33, 3645.19 357.5, 3674.76 357.67, 3704.55 357.83, 3734.56 358.0, 3764.79 358.17, 3795.23 358.33, 3825.9 358.5, 3856.79 358.67, 3887.9 358.83, 3919.24 359.0, 3950.81 359.17, 3982.6 359.33, 4014.62 359.5, 4046.88 359.67, 4079.36 359.83, 4112.08 360.0, 4145.03 360.17, 4178.22 360.33, 4211.64 360.5, 4245.3 360.67, 4279.21 360.83, 4313.35 361.0, 4347.74 361.17, 4382.37 361.33, 4417.24 361.5, 4452.37 361.67, 4487.74 361.83, 4523.36 362.0, 4559.23 362.17, 4595.35 362.33, 4631.73 362.5, 4668.36 362.67, 4705.25 362.83, 4742.4 363.0, 4779.81 363.17, 4817.48 363.33, 4855.41 363.5, 4893.6 363.67, 4932.06 363.83, 4970.79 364.0, 5009.78 364.17, 5049.05 364.33, 5088.59 364.5, 5128.4 364.67, 5168.48 364.83, 5208.84 365.0, 5249.48 365.17, 5290.39 365.33, 5331.59 365.5, 5373.07 365.67, 5414.83 365.83, 5456.88 366.0, 5499.22 366.17, 5541.84 366.33, 5584.75 366.5, 5627.96 366.67, 5671.46 366.83, 5715.25 367.0, 5759.34 367.17, 5803.72 367.33, 5848.41 367.5, 5893.4 367.67, 5938.69 367.83, 5984.28 368.0, 6030.18 368.17, 6076.39 368.33, 6122.91 368.5, 6169.74 368.67, 6216.88 368.83, 6264.33 369.0, 6312.1 369.17, 6360.19 369.33, 6408.6 369.5, 6457.33 369.67, 6506.38 369.83, 6555.76 370.0, 6605.47 370.17, 6655.5 370.33, 6705.86 370.5, 6756.55 370.67, 6807.58 370.83, 6858.94 371.0, 6910.63 371.17, 6962.67 371.33, 7015.05 371.5, 7067.76 371.67, 7120.83 371.83, 7174.23 372.0, 7227.99 372.17, 7282.09 372.33, 7336.55 372.5, 7391.36 372.67, 7446.52 372.83, 7502.04 373.0, 7557.92 373.17, 7614.16 373.33, 7670.76 373.5, 7727.72 373.67, 7785.05 373.83, 7842.75 374.0, 7900.82 374.17, 7959.26 374.33, 8018.07 374.5, 8077.26 374.67, 8136.83 374.83, 8196.77 375.0, 8257.1 375.17, 8317.81 375.33, 8378.9 375.5, 8440.38 375.67, 8502.25 375.83, 8564.51 376.0, 8627.16 376.17, 8690.21 376.33, 8753.66 376.5, 8817.5 376.67, 8881.75 376.83, 8946.4 377.0, 9011.45 377.17, 9076.91 377.33, 9142.78 377.5, 9209.06 377.67, 9275.75 377.83, 9342.86 378.0, 9410.39 378.17, 9478.33 378.33, 9546.7 378.5, 9615.49 378.67, 9684.7 378.83, 9754.35 379.0, 9824.42 379.17, 9894.92 379.33, 9965.86 379.5, 10037.24 379.67, 10109.05 379.83, 10181.31 380.0, 10254.0 380.17, 10327.14 380.33, 10400.73 380.5, 10474.77 380.67, 10549.26 380.83, 10624.2 381.0, 10699.6 381.17, 10775.45 381.33, 10851.77 381.5, 10928.55 381.67, 11005.79 381.83, 11083.5 382.0, 11161.68 382.17, 11240.33 382.33, 11319.46 382.5, 11399.06 382.67, 11479.14 382.83, 11559.7 383.0, 11640.74 383.17, 11722.27 383.33, 11804.28 383.5, 11886.79 383.67, 11969.79 383.83, 12053.28 384.0, 12137.27 384.17, 12221.75 384.33, 12306.74 384.5, 12392.24 384.67, 12478.24 384.83, 12564.75 385.0, 12651.77 385.17, 12739.3 385.33, 12827.35 385.5, 12915.92 385.67, 13005.01 385.83, 13094.62 386.0, 13184.76 386.17, 13275.43 386.33, 13366.63 386.5, 13458.36 386.67, 13550.62 386.83, 13643.43 387.0, 13736.77 387.17, 13830.66 387.33, 13925.1 387.5, 14020.08 387.67, 14115.61 387.83, 14211.7 388.0, 14308.34 388.17, 14405.54 388.33, 14503.31 388.5, 14601.63 388.67, 14700.53 388.83, 14799.99 389.0, 14900.02 389.17, 15000.63 389.33, 15101.81 389.5, 15203.57 389.67, 15305.92 389.83, 15408.85 390.0, 15512.37 390.17, 15616.47 390.33, 15721.17 390.5, 15826.47 390.67, 15932.36 390.83, 16038.86 391.0, 16145.96 391.17, 16253.66 391.33, 16361.97 391.5, 16470.9 391.67, 16580.44 391.83, 16690.6 392.0, 16801.37 392.17, 16912.77 392.33, 17024.8 392.5, 17137.45 392.67, 17250.74 392.83, 17364.65 393.0, 17479.21 393.17, 17594.41 393.33, 17710.24 393.5, 17826.73 393.67, 17943.86 393.83, 18061.64 394.0, 18180.08 394.17, 18299.17 394.33, 18418.93 394.5, 18539.34 394.67, 18660.43 394.83, 18782.18 395.0, 18904.6 395.17, 19027.7 395.33, 19151.47 395.5, 19275.93 395.67, 19401.07 395.83, 19526.89 396.0, 19653.4 396.17, 19780.61 396.33, 19908.51 396.5, 20037.11 396.67, 20166.42 396.83, 20296.42 397.0, 20427.14 397.17, 20558.56 397.33, 20690.7 397.5, 20823.56 397.67, 20957.13 397.83, 21091.43 398.0, 21226.46 398.17, 21362.21 398.33, 21498.7 398.5, 21635.92 398.67, 21773.88 398.83, 21912.58 399.0, 22052.03 399.17, 22192.23 399.33, 22333.17 399.5, 22474.87 399.67, 22617.33 399.83, 22760.56 400.0, 22904.54 " fill="none" stroke="white" stroke-width="1.5" stroke-linejoin="round" stroke-opacity="1"/>

 </svg>