<svg version="1.1" 
 baseProfile="full" 
 width="400" 
 height="400" 
 xmlns="http://www.w3.org/2000/svg">
<rect x="0.0" y="0.0" width="400" height="400" fill="black" stroke="black" stroke-width="0" opacity="1"/>
<line x1="0.0" y1="0.0" x2="0.0" y2="400.0" stroke="white" stroke-width="1" opacity="0.4" stroke-linecap="butt"/>
<line x1="40.0" y1="0.0" x2="40.0" y2="400.0" stroke="white" stroke-width="1" opacity="0.4" stroke-linecap="butt"/>
<line x1="80.0" y1="0.0" x2="80.0" y2="400.0" stroke="white" stroke-width="1" opacity="0.4" stroke-linecap="butt"/>
<line x1="120.0" y1="0.0" x2="120.0" y2="400.0" stroke="white" stroke-width="1" opacity="0.4" stroke-linecap="butt"/>
<line x1="160.0" y1="0.0" x2="160.0" y2="400.0" stroke="white" stroke-width="1" opacity="0.4" stroke-linecap="butt"/>
<line x1="200.0" y1="0.0" x2="200.0" y2="400.0" stroke="white" stroke-width="1" opacity="0.4" stroke-linecap="butt"/>
<line x1="240.0" y1="0.0" x2="240.0" y2="400.0" stroke="white" stroke-width="1" opacity="0.4" stroke-linecap="butt"/>
<line x1="280.0" y1="0.0" x2="280.0" y2="400.0" stroke="white" stroke-width="1" opacity="0.4" stroke-linecap="butt"/>
<line x1="320.0" y1="0.0" x2="320.0" y2="400.0" stroke="white" stroke-width="1" opacity="0.4" stroke-linecap="butt"/>
<line x1="360.0" y1="0.0" x2="360.0" y2="400.0" stroke="white" stroke-width="1" opacity="0.4" stroke-linecap="butt"/>
<line x1="0.0" y1="0.0" x2="400.0" y2="0.0" stroke="white" stroke-width="1" opacity="0.4" stroke-linecap="butt"/>
<line x1="0.0" y1="40.0" x2="400.0" y2="40.0" stroke="white" stroke-width="1" opacity="0.4" stroke-linecap="butt"/>
<line x1="0.0" y1="80.0" x2="400.0" y2="80.0" stroke="white" stroke-width="1" opacity="0.4" stroke-linecap="butt"/>
<line x1="0.0" y1="120.0" x2="400.0" y2="120.0" stroke="white" stroke-width="1" opacity="0.4" stroke-linecap="butt"/>
<line x1="0.0" y1="160.0" x2="400.0" y2="160.0" stroke="white" stroke-width="1" opacity="0.4" stroke-linecap="butt"/>
<line x1="0.0" y1="200.0" x2="400.0" y2="200.0" stroke="white" stroke-width="1" opacity="0.4" stroke-linecap="butt"/>
<line x1="0.0" y1="240.0" x2="400.0" y2="240.0" stroke="white" stroke-width="1" opacity="0.4" stroke-linecap="butt"/>
<line x1="0.0" y1="280.0" x2="400.0" y2="280.0" stroke="white" stroke-width="1" opacity="0.4" stroke-linecap="butt"/>
<line x1="0.0" y1="320.0" x2="400.0" y2="320.0" stroke="white" stroke-width="1" opacity="0.4" stroke-linecap="butt"/>
<line x1="0.0" y1="360.0" x2="400.0" y2="360.0" stroke="white" stroke-width="1" opacity="0.4" stroke-linecap="butt"/>
<line x1="0.0" y1="200.0" x2="400.0" y2="200.0" stroke="yellow" stroke-width="2.5" opacity="1" stroke-linecap="butt"/>
<line x1="200.0" y1="0.0" x2="200.0" y2="400.0" stroke="yellow" stroke-width="2.5" opacity="1" stroke-linecap="butt"/>
<polygon points="391.0 204.0, 401.0 200.0, 391.0 196.0, 393.0 200.0" fill="yellow"/><polygon points="204.0 9.0, 200.0 -1.0, 196.0 9.0, 200.0 7.0" fill="yellow"/><image x="-60.0" y="-60.0" width="200" height="200" href="/Users/girirajhira/PycharmProjects/Giraphics3/Taylor/expr.png"/><polyline points="0.0, -25949.21 0.17, -25779.47 0.33, -25610.67 0.5, -25442.81 0.67, -25275.86 0.83, -25109.85 1.0, -24944.75 1.17, -24780.56 1.33, -24617.29 1.5, -24454.92 1.67, -24293.46 1.83, -24132.89 2.0, -23973.22 2.17, -23814.43 2.33, -23656.53 2.5, -23499.52 2.67, -23343.38 2.83, -23188.11 3.0, -23033.72 3.17, -22880.19 3.33, -22727.52 3.5, -22575.71 3.67, -22424.75 3.83, -22274.65 4.0, -22125.39 4.17, -21976.97 4.33, -21829.39 4.5, -21682.64 4.67, -21536.72 4.83, -21391.63 5.0, -21247.36 5.17, -21103.92 5.33, -20961.28 5.5, -20819.46 5.67, -20678.44 5.83, -20538.23 6.0, -20398.82 6.17, -20260.21 6.33, -20122.38 6.5, -19985.35 6.67, -19849.1 6.83, -19713.63 7.0, -19578.94 7.17, -19445.02 7.33, -19311.88 7.5, -19179.5 7.67, -19047.88 7.83, -18917.02 8.0, -18786.92 8.17, -18657.57 8.33, -18528.97 8.5, -18401.11 8.67, -18274.0 8.83, -18147.62 9.0, -18021.98 9.17, -17897.07 9.33, -17772.89 9.5, -17649.43 9.67, -17526.69 9.83, -17404.67 10.0, -17283.37 10.17, -17162.77 10.33, -17042.88 10.5, -16923.69 10.67, -16805.21 10.83, -16687.42 11.0, -16570.32 11.17, -16453.91 11.33, -16338.19 11.5, -16223.16 11.67, -16108.8 11.83, -15995.12 12.0, -15882.12 12.17, -15769.78 12.33, -15658.11 12.5, -15547.11 12.67, -15436.76 12.83, -15327.08 13.0, -15218.04 13.17, -15109.66 13.33, -15001.93 13.5, -14894.84 13.67, -14788.39 13.83, -14682.58 14.0, -14577.4 14.17, -14472.86 14.33, -14368.94 14.5, -14265.66 14.67, -14162.99 14.83, -14060.94 15.0, -13959.51 15.17, -13858.69 15.33, -13758.49 15.5, -13658.89 15.67, -13559.89 15.83, -13461.5 16.0, -13363.7 16.17, -13266.5 16.33, -13169.9 16.5, -13073.88 16.67, -12978.45 16.83, -12883.6 17.0, -12789.33 17.17, -12695.64 17.33, -12602.53 17.5, -12509.98 17.67, -12418.01 17.83, -12326.6 18.0, -12235.76 18.17, -12145.47 18.33, -12055.75 18.5, -11966.57 18.67, -11877.96 18.83, -11789.88 19.0, -11702.36 19.17, -11615.38 19.33, -11528.94 19.5, -11443.04 19.67, -11357.67 19.83, -11272.84 20.0, -11188.54 20.17, -11104.76 20.33, -11021.51 20.5, -10938.78 20.67, -10856.57 20.83, -10774.87 21.0, -10693.69 21.17, -10613.02 21.33, -10532.86 21.5, -10453.2 21.67, -10374.05 21.83, -10295.4 22.0, -10217.25 22.17, -10139.59 22.33, -10062.43 22.5, -9985.75 22.67, -9909.56 22.83, -9833.86 23.0, -9758.64 23.17, -9683.9 23.33, -9609.64 23.5, -9535.86 23.67, -9462.54 23.83, -9389.7 24.0, -9317.33 24.17, -9245.42 24.33, -9173.97 24.5, -9102.98 24.67, -9032.45 24.83, -8962.38 25.0, -8892.76 25.17, -8823.59 25.33, -8754.87 25.5, -8686.6 25.67, -8618.76 25.83, -8551.37 26.0, -8484.42 26.17, -8417.91 26.33, -8351.83 26.5, -8286.18 26.67, -8220.96 26.83, -8156.17 27.0, -8091.8 27.17, -8027.86 27.33, -7964.33 27.5, -7901.23 27.67, -7838.54 27.83, -7776.26 28.0, -7714.4 28.17, -7652.94 28.33, -7591.89 28.5, -7531.25 28.67, -7471.01 28.83, -7411.17 29.0, -7351.72 29.17, -7292.68 29.33, -7234.02 29.5, -7175.76 29.67, -7117.89 29.83, -7060.41 30.0, -7003.31 30.17, -6946.59 30.33, -6890.26 30.5, -6834.3 30.67, -6778.72 30.83, -6723.52 31.0, -6668.69 31.17, -6614.23 31.33, -6560.14 31.5, -6506.41 31.67, -6453.05 31.83, -6400.05 32.0, -6347.42 32.17, -6295.14 32.33, -6243.21 32.5, -6191.65 32.67, -6140.43 32.83, -6089.57 33.0, -6039.05 33.17, -5988.88 33.33, -5939.05 33.5, -5889.57 33.67, -5840.43 33.83, -5791.63 34.0, -5743.16 34.17, -5695.03 34.33, -5647.24 34.5, -5599.77 34.67, -5552.63 34.83, -5505.82 35.0, -5459.34 35.17, -5413.18 35.33, -5367.34 35.5, -5321.83 35.67, -5276.63 35.83, -5231.74 36.0, -5187.18 36.17, -5142.92 36.33, -5098.98 36.5, -5055.34 36.67, -5012.02 36.83, -4968.99 37.0, -4926.28 37.17, -4883.86 37.33, -4841.75 37.5, -4799.93 37.67, -4758.41 37.83, -4717.19 38.0, -4676.25 38.17, -4635.62 38.33, -4595.27 38.5, -4555.21 38.67, -4515.43 38.83, -4475.94 39.0, -4436.74 39.17, -4397.82 39.33, -4359.17 39.5, -4320.81 39.67, -4282.72 39.83, -4244.9 40.0, -4207.37 40.17, -4170.1 40.33, -4133.1 40.5, -4096.37 40.67, -4059.91 40.83, -4023.71 41.0, -3987.78 41.17, -3952.11 41.33, -3916.7 41.5, -3881.55 41.67, -3846.65 41.83, -3812.02 42.0, -3777.63 42.17, -3743.51 42.33, -3709.63 42.5, -3676.0 42.67, -3642.62 42.83, -3609.49 43.0, -3576.6 43.17, -3543.96 43.33, -3511.56 43.5, -3479.4 43.67, -3447.47 43.83, -3415.79 44.0, -3384.35 44.17, -3353.14 44.33, -3322.16 44.5, -3291.41 44.67, -3260.9 44.83, -3230.62 45.0, -3200.56 45.17, -3170.73 45.33, -3141.13 45.5, -3111.74 45.67, -3082.59 45.83, -3053.65 46.0, -3024.93 46.17, -2996.43 46.33, -2968.15 46.5, -2940.08 46.67, -2912.23 46.83, -2884.59 47.0, -2857.16 47.17, -2829.94 47.33, -2802.94 47.5, -2776.13 47.67, -2749.54 47.83, -2723.15 48.0, -2696.96 48.17, -2670.98 48.33, -2645.2 48.5, -2619.61 48.67, -2594.23 48.83, -2569.04 49.0, -2544.05 49.17, -2519.25 49.33, -2494.65 49.5, -2470.24 49.67, -2446.02 49.83, -2421.99 50.0, -2398.15 50.17, -2374.5 50.33, -2351.03 50.5, -2327.75 50.67, -2304.65 50.83, -2281.73 51.0, -2259.0 51.17, -2236.45 51.33, -2214.07 51.5, -2191.87 51.67, -2169.85 51.83, -2148.01 52.0, -2126.34 52.17, -2104.84 52.33, -2083.52 52.5, -2062.36 52.67, -2041.38 52.83, -2020.56 53.0, -1999.92 53.17, -1979.44 53.33, -1959.12 53.5, -1938.97 53.67, -1918.98 53.83, -1899.16 54.0, -1879.49 54.17, -1859.99 54.33, -1840.64 54.5, -1821.45 54.67, -1802.42 54.83, -1783.55 55.0, -1764.83 55.17, -1746.26 55.33, -1727.85 55.5, -1709.59 55.67, -1691.47 55.83, -1673.51 56.0, -1655.7 56.17, -1638.03 56.33, -1620.51 56.5, -1603.14 56.67, -1585.91 56.83, -1568.82 57.0, -1551.88 57.17, -1535.08 57.33, -1518.42 57.5, -1501.9 57.67, -1485.52 57.83, -1469.27 58.0, -1453.16 58.17, -1437.19 58.33, -1421.35 58.5, -1405.65 58.67, -1390.08 58.83, -1374.64 59.0, -1359.33 59.17, -1344.16 59.33, -1329.11 59.5, -1314.19 59.67, -1299.4 59.83, -1284.73 60.0, -1270.19 60.17, -1255.78 60.33, -1241.49 60.5, -1227.32 60.67, -1213.28 60.83, -1199.35 61.0, -1185.55 61.17, -1171.87 61.33, -1158.3 61.5, -1144.85 61.67, -1131.53 61.83, -1118.31 62.0, -1105.21 62.17, -1092.23 62.33, -1079.36 62.5, -1066.6 62.67, -1053.96 62.83, -1041.42 63.0, -1029.0 63.17, -1016.69 63.33, -1004.48 63.5, -992.39 63.67, -980.4 63.83, -968.51 64.0, -956.74 64.17, -945.06 64.33, -933.5 64.5, -922.03 64.67, -910.67 64.83, -899.41 65.0, -888.25 65.17, -877.19 65.33, -866.23 65.5, -855.37 65.67, -844.61 65.83, -833.95 66.0, -823.38 66.17, -812.91 66.33, -802.53 66.5, -792.25 66.67, -782.06 66.83, -771.96 67.0, -761.96 67.17, -752.05 67.33, -742.23 67.5, -732.5 67.67, -722.86 67.83, -713.31 68.0, -703.85 68.17, -694.47 68.33, -685.18 68.5, -675.98 68.67, -666.86 68.83, -657.83 69.0, -648.88 69.17, -640.02 69.33, -631.24 69.5, -622.54 69.67, -613.92 69.83, -605.38 70.0, -596.93 70.17, -588.55 70.33, -580.25 70.5, -572.04 70.67, -563.89 70.83, -555.83 71.0, -547.84 71.17, -539.93 71.33, -532.1 71.5, -524.34 71.67, -516.65 71.83, -509.04 72.0, -501.5 72.17, -494.03 72.33, -486.64 72.5, -479.31 72.67, -472.06 72.83, -464.88 73.0, -457.77 73.17, -450.72 73.33, -443.75 73.5, -436.84 73.67, -430.0 73.83, -423.22 74.0, -416.52 74.17, -409.88 74.33, -403.3 74.5, -396.79 74.67, -390.34 74.83, -383.96 75.0, -377.63 75.17, -371.38 75.33, -365.18 75.5, -359.05 75.67, -352.97 75.83, -346.96 76.0, -341.0 76.17, -335.11 76.33, -329.28 76.5, -323.5 76.67, -317.78 76.83, -312.12 77.0, -306.52 77.17, -300.97 77.33, -295.48 77.5, -290.04 77.67, -284.66 77.83, -279.33 78.0, -274.06 78.17, -268.84 78.33, -263.68 78.5, -258.57 78.67, -253.51 78.83, -248.5 79.0, -243.54 79.17, -238.64 79.33, -233.78 79.5, -228.98 79.67, -224.22 79.83, -219.51 80.0, -214.86 80.17, -210.25 80.33, -205.69 80.5, -201.17 80.67, -196.71 80.83, -192.29 81.0, -187.91 81.17, -183.58 81.33, -179.3 81.5, -175.06 81.67, -170.87 81.83, -166.72 82.0, -162.62 82.17, -158.55 82.33, -154.54 82.5, -150.56 82.67, -146.63 82.83, -142.73 83.0, -138.88 83.17, -135.07 83.33, -131.31 83.5, -127.58 83.67, -123.89 83.83, -120.24 84.0, -116.63 84.17, -113.06 84.33, -109.53 84.5, -106.03 84.67, -102.58 84.83, -99.16 85.0, -95.77 85.17, -92.43 85.33, -89.12 85.5, -85.85 85.67, -82.61 85.83, -79.41 86.0, -76.24 86.17, -73.11 86.33, -70.01 86.5, -66.95 86.67, -63.92 86.83, -60.92 87.0, -57.96 87.17, -55.03 87.33, -52.13 87.5, -49.26 87.67, -46.43 87.83, -43.63 88.0, -40.86 88.17, -38.11 88.33, -35.4 88.5, -32.72 88.67, -30.07 88.83, -27.45 89.0, -24.86 89.17, -22.3 89.33, -19.77 89.5, -17.26 89.67, -14.79 89.83, -12.34 90.0, -9.92 90.17, -7.52 90.33, -5.16 90.5, -2.82 90.67, -0.5 90.83, 1.78 91.0, 4.04 91.17, 6.28 91.33, 8.49 91.5, 10.67 91.67, 12.83 91.83, 14.97 92.0, 17.08 92.17, 19.16 92.33, 21.22 92.5, 23.26 92.67, 25.28 92.83, 27.27 93.0, 29.24 93.17, 31.18 93.33, 33.11 93.5, 35.01 93.67, 36.89 93.83, 38.74 94.0, 40.58 94.17, 42.4 94.33, 44.19 94.5, 45.96 94.67, 47.71 94.83, 49.45 95.0, 51.16 95.17, 52.85 95.33, 54.52 95.5, 56.17 95.67, 57.81 95.83, 59.42 96.0, 61.02 96.17, 62.59 96.33, 64.15 96.5, 65.69 96.67, 67.21 96.83, 68.71 97.0, 70.2 97.17, 71.67 97.33, 73.12 97.5, 74.55 97.67, 75.97 97.83, 77.37 98.0, 78.76 98.17, 80.12 98.33, 81.48 98.5, 82.81 98.67, 84.13 98.83, 85.44 99.0, 86.73 99.17, 88.0 99.33, 89.26 99.5, 90.5 99.67, 91.73 99.83, 92.95 100.0, 94.15 100.17, 95.33 100.33, 96.51 100.5, 97.66 100.67, 98.81 100.83, 99.94 101.0, 101.06 101.17, 102.16 101.33, 103.25 101.5, 104.33 101.67, 105.4 101.83, 106.45 102.0, 107.49 102.17, 108.52 102.33, 109.54 102.5, 110.54 102.67, 111.54 102.83, 112.52 103.0, 113.49 103.17, 114.44 103.33, 115.39 103.5, 116.33 103.67, 117.25 103.83, 118.17 104.0, 119.07 104.17, 119.96 104.33, 120.84 104.5, 121.72 104.67, 122.58 104.83, 123.43 105.0, 124.27 105.17, 125.11 105.33, 125.93 105.5, 126.74 105.67, 127.54 105.83, 128.34 106.0, 129.12 106.17, 129.9 106.33, 130.67 106.5, 131.43 106.67, 132.18 106.83, 132.92 107.0, 133.65 107.17, 134.37 107.33, 135.09 107.5, 135.8 107.67, 136.5 107.83, 137.19 108.0, 137.87 108.17, 138.55 108.33, 139.22 108.5, 139.88 108.67, 140.54 108.83, 141.18 109.0, 141.82 109.17, 142.46 109.33, 143.08 109.5, 143.7 109.67, 144.31 109.83, 144.92 110.0, 145.52 110.17, 146.11 110.33, 146.69 110.5, 147.27 110.67, 147.85 110.83, 148.41 111.0, 148.97 111.17, 149.53 111.33, 150.08 111.5, 150.62 111.67, 151.16 111.83, 151.69 112.0, 152.22 112.17, 152.74 112.33, 153.25 112.5, 153.76 112.67, 154.27 112.83, 154.77 113.0, 155.26 113.17, 155.75 113.33, 156.24 113.5, 156.72 113.67, 157.19 113.83, 157.66 114.0, 158.13 114.17, 158.59 114.33, 159.04 114.5, 159.5 114.67, 159.94 114.83, 160.39 115.0, 160.83 115.17, 161.26 115.33, 161.69 115.5, 162.12 115.67, 162.54 115.83, 162.96 116.0, 163.37 116.17, 163.79 116.33, 164.19 116.5, 164.6 116.67, 165.0 116.83, 165.39 117.0, 165.79 117.17, 166.18 117.33, 166.56 117.5, 166.94 117.67, 167.32 117.83, 167.7 118.0, 168.07 118.17, 168.44 118.33, 168.81 118.5, 169.17 118.67, 169.53 118.83, 169.89 119.0, 170.25 119.17, 170.6 119.33, 170.95 119.5, 171.29 119.67, 171.64 119.83, 171.98 120.0, 172.32 120.17, 172.65 120.33, 172.99 120.5, 173.32 120.67, 173.65 120.83, 173.97 121.0, 174.29 121.17, 174.62 121.33, 174.93 121.5, 175.25 121.67, 175.57 121.83, 175.88 122.0, 176.19 122.17, 176.49 122.33, 176.8 122.5, 177.1 122.67, 177.41 122.83, 177.71 123.0, 178.0 123.17, 178.3 123.33, 178.59 123.5, 178.88 123.67, 179.17 123.83, 179.46 124.0, 179.75 124.17, 180.03 124.33, 180.32 124.5, 180.6 124.67, 180.88 124.83, 181.16 125.0, 181.43 125.17, 181.71 125.33, 181.98 125.5, 182.25 125.67, 182.52 125.83, 182.79 126.0, 183.06 126.17, 183.32 126.33, 183.59 126.5, 183.85 126.67, 184.11 126.83, 184.37 127.0, 184.63 127.17, 184.89 127.33, 185.15 127.5, 185.4 127.67, 185.66 127.83, 185.91 128.0, 186.16 128.17, 186.41 128.33, 186.66 128.5, 186.91 128.67, 187.15 128.83, 187.4 129.0, 187.64 129.17, 187.89 129.33, 188.13 129.5, 188.37 129.67, 188.61 129.83, 188.85 130.0, 189.09 130.17, 189.33 130.33, 189.56 130.5, 189.8 130.67, 190.03 130.83, 190.26 131.0, 190.5 131.17, 190.73 131.33, 190.96 131.5, 191.19 131.67, 191.42 131.83, 191.64 132.0, 191.87 132.17, 192.1 132.33, 192.32 132.5, 192.54 132.67, 192.77 132.83, 192.99 133.0, 193.21 133.17, 193.43 133.33, 193.65 133.5, 193.87 133.67, 194.09 133.83, 194.31 134.0, 194.52 134.17, 194.74 134.33, 194.95 134.5, 195.17 134.67, 195.38 134.83, 195.59 135.0, 195.81 135.17, 196.02 135.33, 196.23 135.5, 196.44 135.67, 196.65 135.83, 196.86 136.0, 197.06 136.17, 197.27 136.33, 197.48 136.5, 197.68 136.67, 197.88 136.83, 198.09 137.0, 198.29 137.17, 198.49 137.33, 198.7 137.5, 198.9 137.67, 199.1 137.83, 199.3 138.0, 199.49 138.17, 199.69 138.33, 199.89 138.5, 200.09 138.67, 200.28 138.83, 200.48 139.0, 200.67 139.17, 200.86 139.33, 201.06 139.5, 201.25 139.67, 201.44 139.83, 201.63 140.0, 201.82 140.17, 202.01 140.33, 202.2 140.5, 202.39 140.67, 202.57 140.83, 202.76 141.0, 202.95 141.17, 203.13 141.33, 203.31 141.5, 203.5 141.67, 203.68 141.83, 203.86 142.0, 204.04 142.17, 204.22 142.33, 204.4 142.5, 204.58 142.67, 204.76 142.83, 204.94 143.0, 205.11 143.17, 205.29 143.33, 205.46 143.5, 205.64 143.67, 205.81 143.83, 205.98 144.0, 206.16 144.17, 206.33 144.33, 206.5 144.5, 206.67 144.67, 206.84 144.83, 207.0 145.0, 207.17 145.17, 207.34 145.33, 207.5 145.5, 207.67 145.67, 207.83 145.83, 207.99 146.0, 208.15 146.17, 208.31 146.33, 208.48 146.5, 208.63 146.67, 208.79 146.83, 208.95 147.0, 209.11 147.17, 209.26 147.33, 209.42 147.5, 209.57 147.67, 209.72 147.83, 209.88 148.0, 210.03 148.17, 210.18 148.33, 210.33 148.5, 210.48 148.67, 210.62 148.83, 210.77 149.0, 210.92 149.17, 211.06 149.33, 211.21 149.5, 211.35 149.67, 211.49 149.83, 211.63 150.0, 211.77 150.17, 211.91 150.33, 212.05 150.5, 212.18 150.67, 212.32 150.83, 212.46 151.0, 212.59 151.17, 212.72 151.33, 212.85 151.5, 212.98 151.67, 213.11 151.83, 213.24 152.0, 213.37 152.17, 213.5 152.33, 213.62 152.5, 213.75 152.67, 213.87 152.83, 213.99 153.0, 214.11 153.17, 214.24 153.33, 214.35 153.5, 214.47 153.67, 214.59 153.83, 214.7 154.0, 214.82 154.17, 214.93 154.33, 215.05 154.5, 215.16 154.67, 215.27 154.83, 215.38 155.0, 215.48 155.17, 215.59 155.33, 215.7 155.5, 215.8 155.67, 215.9 155.83, 216.01 156.0, 216.11 156.17, 216.21 156.33, 216.3 156.5, 216.4 156.67, 216.5 156.83, 216.59 157.0, 216.69 157.17, 216.78 157.33, 216.87 157.5, 216.96 157.67, 217.05 157.83, 217.14 158.0, 217.22 158.17, 217.31 158.33, 217.39 158.5, 217.47 158.67, 217.55 158.83, 217.63 159.0, 217.71 159.17, 217.79 159.33, 217.87 159.5, 217.94 159.67, 218.02 159.83, 218.09 160.0, 218.16 160.17, 218.23 160.33, 218.3 160.5, 218.36 160.67, 218.43 160.83, 218.49 161.0, 218.56 161.17, 218.62 161.33, 218.68 161.5, 218.74 161.67, 218.8 161.83, 218.85 162.0, 218.91 162.17, 218.96 162.33, 219.02 162.5, 219.07 162.67, 219.12 162.83, 219.16 163.0, 219.21 163.17, 219.26 163.33, 219.3 163.5, 219.35 163.67, 219.39 163.83, 219.43 164.0, 219.47 164.17, 219.5 164.33, 219.54 164.5, 219.58 164.67, 219.61 164.83, 219.64 165.0, 219.67 165.17, 219.7 165.33, 219.73 165.5, 219.76 165.67, 219.78 165.83, 219.8 166.0, 219.83 166.17, 219.85 166.33, 219.87 166.5, 219.89 166.67, 219.9 166.83, 219.92 167.0, 219.93 167.17, 219.95 167.33, 219.96 167.5, 219.97 167.67, 219.97 167.83, 219.98 168.0, 219.99 168.17, 219.99 168.33, 220.0 168.5, 220.0 168.67, 220.0 168.83, 220.0 169.0, 219.99 169.17, 219.99 169.33, 219.98 169.5, 219.98 169.67, 219.97 169.83, 219.96 170.0, 219.95 170.17, 219.94 170.33, 219.92 170.5, 219.91 170.67, 219.89 170.83, 219.87 171.0, 219.85 171.17, 219.83 171.33, 219.81 171.5, 219.79 171.67, 219.76 171.83, 219.74 172.0, 219.71 172.17, 219.68 172.33, 219.65 172.5, 219.62 172.67, 219.58 172.83, 219.55 173.0, 219.51 173.17, 219.48 173.33, 219.44 173.5, 219.4 173.67, 219.36 173.83, 219.31 174.0, 219.27 174.17, 219.23 174.33, 219.18 174.5, 219.13 174.67, 219.08 174.83, 219.03 175.0, 218.98 175.17, 218.93 175.33, 218.87 175.5, 218.82 175.67, 218.76 175.83, 218.7 176.0, 218.64 176.17, 218.58 176.33, 218.52 176.5, 218.45 176.67, 218.39 176.83, 218.32 177.0, 218.26 177.17, 218.19 177.33, 218.12 177.5, 218.05 177.67, 217.97 177.83, 217.9 178.0, 217.82 178.17, 217.75 178.33, 217.67 178.5, 217.59 178.67, 217.51 178.83, 217.43 179.0, 217.35 179.17, 217.26 179.33, 217.18 179.5, 217.09 179.67, 217.01 179.83, 216.92 180.0, 216.83 180.17, 216.74 180.33, 216.65 180.5, 216.55 180.67, 216.46 180.83, 216.36 181.0, 216.27 181.17, 216.17 181.33, 216.07 181.5, 215.97 181.67, 215.87 181.83, 215.77 182.0, 215.67 182.17, 215.56 182.33, 215.46 182.5, 215.35 182.67, 215.24 182.83, 215.14 183.0, 215.03 183.17, 214.92 183.33, 214.8 183.5, 214.69 183.67, 214.58 183.83, 214.46 184.0, 214.35 184.17, 214.23 184.33, 214.11 184.5, 213.99 184.67, 213.87 184.83, 213.75 185.0, 213.63 185.17, 213.51 185.33, 213.39 185.5, 213.26 185.67, 213.14 185.83, 213.01 186.0, 212.88 186.17, 212.76 186.33, 212.63 186.5, 212.5 186.67, 212.37 186.83, 212.24 187.0, 212.1 187.17, 211.97 187.33, 211.84 187.5, 211.7 187.67, 211.57 187.83, 211.43 188.0, 211.29 188.17, 211.15 188.33, 211.02 188.5, 210.88 188.67, 210.74 188.83, 210.6 189.0, 210.45 189.17, 210.31 189.33, 210.17 189.5, 210.02 189.67, 209.88 189.83, 209.73 190.0, 209.59 190.17, 209.44 190.33, 209.29 190.5, 209.15 190.67, 209.0 190.83, 208.85 191.0, 208.7 191.17, 208.55 191.33, 208.4 191.5, 208.25 191.67, 208.09 191.83, 207.94 192.0, 207.79 192.17, 207.63 192.33, 207.48 192.5, 207.33 192.67, 207.17 192.83, 207.01 193.0, 206.86 193.17, 206.7 193.33, 206.54 193.5, 206.39 193.67, 206.23 193.83, 206.07 194.0, 205.91 194.17, 205.75 194.33, 205.59 194.5, 205.43 194.67, 205.27 194.83, 205.11 195.0, 204.95 195.17, 204.79 195.33, 204.62 195.5, 204.46 195.67, 204.3 195.83, 204.14 196.0, 203.97 196.17, 203.81 196.33, 203.65 196.5, 203.48 196.67, 203.32 196.83, 203.15 197.0, 202.99 197.17, 202.82 197.33, 202.66 197.5, 202.49 197.67, 202.33 197.83, 202.16 198.0, 202.0 198.17, 201.83 198.33, 201.66 198.5, 201.5 198.67, 201.33 198.83, 201.17 199.0, 201.0 199.17, 200.83 199.33, 200.67 199.5, 200.5 199.67, 200.33 199.83, 200.17 200.0, 200.0 200.17, 199.83 200.33, 199.67 200.5, 199.5 200.67, 199.33 200.83, 199.17 201.0, 199.0 201.17, 198.83 201.33, 198.67 201.5, 198.5 201.67, 198.34 201.83, 198.17 202.0, 198.0 202.17, 197.84 202.33, 197.67 202.5, 197.51 202.67, 197.34 202.83, 197.18 203.0, 197.01 203.17, 196.85 203.33, 196.68 203.5, 196.52 203.67, 196.35 203.83, 196.19 204.0, 196.03 204.17, 195.86 204.33, 195.7 204.5, 195.54 204.67, 195.38 204.83, 195.21 205.0, 195.05 205.17, 194.89 205.33, 194.73 205.5, 194.57 205.67, 194.41 205.83, 194.25 206.0, 194.09 206.17, 193.93 206.33, 193.77 206.5, 193.61 206.67, 193.46 206.83, 193.3 207.0, 193.14 207.17, 192.99 207.33, 192.83 207.5, 192.67 207.67, 192.52 207.83, 192.37 208.0, 192.21 208.17, 192.06 208.33, 191.91 208.5, 191.75 208.67, 191.6 208.83, 191.45 209.0, 191.3 209.17, 191.15 209.33, 191.0 209.5, 190.85 209.67, 190.71 209.83, 190.56 210.0, 190.41 210.17, 190.27 210.33, 190.12 210.5, 189.98 210.67, 189.83 210.83, 189.69 211.0, 189.55 211.17, 189.4 211.33, 189.26 211.5, 189.12 211.67, 188.98 211.83, 188.85 212.0, 188.71 212.17, 188.57 212.33, 188.43 212.5, 188.3 212.67, 188.16 212.83, 188.03 213.0, 187.9 213.17, 187.76 213.33, 187.63 213.5, 187.5 213.67, 187.37 213.83, 187.24 214.0, 187.12 214.17, 186.99 214.33, 186.86 214.5, 186.74 214.67, 186.61 214.83, 186.49 215.0, 186.37 215.17, 186.25 215.33, 186.13 215.5, 186.01 215.67, 185.89 215.83, 185.77 216.0, 185.65 216.17, 185.54 216.33, 185.42 216.5, 185.31 216.67, 185.2 216.83, 185.08 217.0, 184.97 217.17, 184.86 217.33, 184.76 217.5, 184.65 217.67, 184.54 217.83, 184.44 218.0, 184.33 218.17, 184.23 218.33, 184.13 218.5, 184.03 218.67, 183.93 218.83, 183.83 219.0, 183.73 219.17, 183.64 219.33, 183.54 219.5, 183.45 219.67, 183.35 219.83, 183.26 220.0, 183.17 220.17, 183.08 220.33, 182.99 220.5, 182.91 220.67, 182.82 220.83, 182.74 221.0, 182.65 221.17, 182.57 221.33, 182.49 221.5, 182.41 221.67, 182.33 221.83, 182.25 222.0, 182.18 222.17, 182.1 222.33, 182.03 222.5, 181.95 222.67, 181.88 222.83, 181.81 223.0, 181.74 223.17, 181.68 223.33, 181.61 223.5, 181.55 223.67, 181.48 223.83, 181.42 224.0, 181.36 224.17, 181.3 224.33, 181.24 224.5, 181.18 224.67, 181.13 224.83, 181.07 225.0, 181.02 225.17, 180.97 225.33, 180.92 225.5, 180.87 225.67, 180.82 225.83, 180.77 226.0, 180.73 226.17, 180.69 226.33, 180.64 226.5, 180.6 226.67, 180.56 226.83, 180.52 227.0, 180.49 227.17, 180.45 227.33, 180.42 227.5, 180.38 227.67, 180.35 227.83, 180.32 228.0, 180.29 228.17, 180.26 228.33, 180.24 228.5, 180.21 228.67, 180.19 228.83, 180.17 229.0, 180.15 229.17, 180.13 229.33, 180.11 229.5, 180.09 229.67, 180.08 229.83, 180.06 230.0, 180.05 230.17, 180.04 230.33, 180.03 230.5, 180.02 230.67, 180.02 230.83, 180.01 231.0, 180.01 231.17, 180.0 231.33, 180.0 231.5, 180.0 231.67, 180.0 231.83, 180.01 232.0, 180.01 232.17, 180.02 232.33, 180.03 232.5, 180.03 232.67, 180.04 232.83, 180.05 233.0, 180.07 233.17, 180.08 233.33, 180.1 233.5, 180.11 233.67, 180.13 233.83, 180.15 234.0, 180.17 234.17, 180.2 234.33, 180.22 234.5, 180.24 234.67, 180.27 234.83, 180.3 235.0, 180.33 235.17, 180.36 235.33, 180.39 235.5, 180.42 235.67, 180.46 235.83, 180.5 236.0, 180.53 236.17, 180.57 236.33, 180.61 236.5, 180.65 236.67, 180.7 236.83, 180.74 237.0, 180.79 237.17, 180.84 237.33, 180.88 237.5, 180.93 237.67, 180.98 237.83, 181.04 238.0, 181.09 238.17, 181.15 238.33, 181.2 238.5, 181.26 238.67, 181.32 238.83, 181.38 239.0, 181.44 239.17, 181.51 239.33, 181.57 239.5, 181.64 239.67, 181.7 239.83, 181.77 240.0, 181.84 240.17, 181.91 240.33, 181.98 240.5, 182.06 240.67, 182.13 240.83, 182.21 241.0, 182.29 241.17, 182.37 241.33, 182.45 241.5, 182.53 241.67, 182.61 241.83, 182.69 242.0, 182.78 242.17, 182.86 242.33, 182.95 242.5, 183.04 242.67, 183.13 242.83, 183.22 243.0, 183.31 243.17, 183.41 243.33, 183.5 243.5, 183.6 243.67, 183.7 243.83, 183.79 244.0, 183.89 244.17, 183.99 244.33, 184.1 244.5, 184.2 244.67, 184.3 244.83, 184.41 245.0, 184.52 245.17, 184.62 245.33, 184.73 245.5, 184.84 245.67, 184.95 245.83, 185.07 246.0, 185.18 246.17, 185.3 246.33, 185.41 246.5, 185.53 246.67, 185.65 246.83, 185.76 247.0, 185.89 247.17, 186.01 247.33, 186.13 247.5, 186.25 247.67, 186.38 247.83, 186.5 248.0, 186.63 248.17, 186.76 248.33, 186.89 248.5, 187.02 248.67, 187.15 248.83, 187.28 249.0, 187.41 249.17, 187.54 249.33, 187.68 249.5, 187.82 249.67, 187.95 249.83, 188.09 250.0, 188.23 250.17, 188.37 250.33, 188.51 250.5, 188.65 250.67, 188.79 250.83, 188.94 251.0, 189.08 251.17, 189.23 251.33, 189.38 251.5, 189.52 251.67, 189.67 251.83, 189.82 252.0, 189.97 252.17, 190.12 252.33, 190.28 252.5, 190.43 252.67, 190.58 252.83, 190.74 253.0, 190.89 253.17, 191.05 253.33, 191.21 253.5, 191.37 253.67, 191.52 253.83, 191.69 254.0, 191.85 254.17, 192.01 254.33, 192.17 254.5, 192.33 254.67, 192.5 254.83, 192.66 255.0, 192.83 255.17, 193.0 255.33, 193.16 255.5, 193.33 255.67, 193.5 255.83, 193.67 256.0, 193.84 256.17, 194.02 256.33, 194.19 256.5, 194.36 256.67, 194.54 256.83, 194.71 257.0, 194.89 257.17, 195.06 257.33, 195.24 257.5, 195.42 257.67, 195.6 257.83, 195.78 258.0, 195.96 258.17, 196.14 258.33, 196.32 258.5, 196.5 258.67, 196.69 258.83, 196.87 259.0, 197.05 259.17, 197.24 259.33, 197.43 259.5, 197.61 259.67, 197.8 259.83, 197.99 260.0, 198.18 260.17, 198.37 260.33, 198.56 260.5, 198.75 260.67, 198.94 260.83, 199.14 261.0, 199.33 261.17, 199.52 261.33, 199.72 261.5, 199.91 261.67, 200.11 261.83, 200.31 262.0, 200.51 262.17, 200.7 262.33, 200.9 262.5, 201.1 262.67, 201.3 262.83, 201.51 263.0, 201.71 263.17, 201.91 263.33, 202.12 263.5, 202.32 263.67, 202.52 263.83, 202.73 264.0, 202.94 264.17, 203.14 264.33, 203.35 264.5, 203.56 264.67, 203.77 264.83, 203.98 265.0, 204.19 265.17, 204.41 265.33, 204.62 265.5, 204.83 265.67, 205.05 265.83, 205.26 266.0, 205.48 266.17, 205.69 266.33, 205.91 266.5, 206.13 266.67, 206.35 266.83, 206.57 267.0, 206.79 267.17, 207.01 267.33, 207.23 267.5, 207.46 267.67, 207.68 267.83, 207.9 268.0, 208.13 268.17, 208.36 268.33, 208.58 268.5, 208.81 268.67, 209.04 268.83, 209.27 269.0, 209.5 269.17, 209.74 269.33, 209.97 269.5, 210.2 269.67, 210.44 269.83, 210.67 270.0, 210.91 270.17, 211.15 270.33, 211.39 270.5, 211.63 270.67, 211.87 270.83, 212.11 271.0, 212.36 271.17, 212.6 271.33, 212.85 271.5, 213.09 271.67, 213.34 271.83, 213.59 272.0, 213.84 272.17, 214.09 272.33, 214.34 272.5, 214.6 272.67, 214.85 272.83, 215.11 273.0, 215.37 273.17, 215.63 273.33, 215.89 273.5, 216.15 273.67, 216.41 273.83, 216.68 274.0, 216.94 274.17, 217.21 274.33, 217.48 274.5, 217.75 274.67, 218.02 274.83, 218.29 275.0, 218.57 275.17, 218.84 275.33, 219.12 275.5, 219.4 275.67, 219.68 275.83, 219.97 276.0, 220.25 276.17, 220.54 276.33, 220.83 276.5, 221.12 276.67, 221.41 276.83, 221.7 277.0, 222.0 277.17, 222.29 277.33, 222.59 277.5, 222.9 277.67, 223.2 277.83, 223.51 278.0, 223.81 278.17, 224.12 278.33, 224.43 278.5, 224.75 278.67, 225.07 278.83, 225.38 279.0, 225.71 279.17, 226.03 279.33, 226.35 279.5, 226.68 279.67, 227.01 279.83, 227.35 280.0, 227.68 280.17, 228.02 280.33, 228.36 280.5, 228.71 280.67, 229.05 280.83, 229.4 281.0, 229.75 281.17, 230.11 281.33, 230.47 281.5, 230.83 281.67, 231.19 281.83, 231.56 282.0, 231.93 282.17, 232.3 282.33, 232.68 282.5, 233.06 282.67, 233.44 282.83, 233.82 283.0, 234.21 283.17, 234.61 283.33, 235.0 283.5, 235.4 283.67, 235.81 283.83, 236.21 284.0, 236.63 284.17, 237.04 284.33, 237.46 284.5, 237.88 284.67, 238.31 284.83, 238.74 285.0, 239.17 285.17, 239.61 285.33, 240.06 285.5, 240.5 285.67, 240.96 285.83, 241.41 286.0, 241.87 286.17, 242.34 286.33, 242.81 286.5, 243.28 286.67, 243.76 286.83, 244.25 287.0, 244.74 287.17, 245.23 287.33, 245.73 287.5, 246.24 287.67, 246.75 287.83, 247.26 288.0, 247.78 288.17, 248.31 288.33, 248.84 288.5, 249.38 288.67, 249.92 288.83, 250.47 289.0, 251.03 289.17, 251.59 289.33, 252.15 289.5, 252.73 289.67, 253.31 289.83, 253.89 290.0, 254.48 290.17, 255.08 290.33, 255.69 290.5, 256.3 290.67, 256.92 290.83, 257.54 291.0, 258.18 291.17, 258.82 291.33, 259.46 291.5, 260.12 291.67, 260.78 291.83, 261.45 292.0, 262.13 292.17, 262.81 292.33, 263.5 292.5, 264.2 292.67, 264.91 292.83, 265.63 293.0, 266.35 293.17, 267.08 293.33, 267.82 293.5, 268.57 293.67, 269.33 293.83, 270.1 294.0, 270.88 294.17, 271.66 294.33, 272.46 294.5, 273.26 294.67, 274.07 294.83, 274.89 295.0, 275.73 295.17, 276.57 295.33, 277.42 295.5, 278.28 295.67, 279.16 295.83, 280.04 296.0, 280.93 296.17, 281.83 296.33, 282.75 296.5, 283.67 296.67, 284.61 296.83, 285.56 297.0, 286.51 297.17, 287.48 297.33, 288.46 297.5, 289.46 297.67, 290.46 297.83, 291.48 298.0, 292.51 298.17, 293.55 298.33, 294.6 298.5, 295.67 298.67, 296.75 298.83, 297.84 299.0, 298.94 299.17, 300.06 299.33, 301.19 299.5, 302.34 299.67, 303.49 299.83, 304.67 300.0, 305.85 300.17, 307.05 300.33, 308.27 300.5, 309.5 300.67, 310.74 300.83, 312.0 301.0, 313.27 301.17, 314.56 301.33, 315.87 301.5, 317.19 301.67, 318.52 301.83, 319.88 302.0, 321.24 302.17, 322.63 302.33, 324.03 302.5, 325.45 302.67, 326.88 302.83, 328.33 303.0, 329.8 303.17, 331.29 303.33, 332.79 303.5, 334.31 303.67, 335.85 303.83, 337.41 304.0, 338.98 304.17, 340.58 304.33, 342.19 304.5, 343.83 304.67, 345.48 304.83, 347.15 305.0, 348.84 305.17, 350.55 305.33, 352.29 305.5, 354.04 305.67, 355.81 305.83, 357.6 306.0, 359.42 306.17, 361.26 306.33, 363.11 306.5, 364.99 306.67, 366.89 306.83, 368.82 307.0, 370.76 307.17, 372.73 307.33, 374.72 307.5, 376.74 307.67, 378.78 307.83, 380.84 308.0, 382.92 308.17, 385.03 308.33, 387.17 308.5, 389.33 308.67, 391.51 308.83, 393.72 309.0, 395.96 309.17, 398.22 309.33, 400.5 309.5, 402.82 309.67, 405.16 309.83, 407.52 310.0, 409.92 310.17, 412.34 310.33, 414.79 310.5, 417.26 310.67, 419.77 310.83, 422.3 311.0, 424.86 311.17, 427.45 311.33, 430.07 311.5, 432.72 311.67, 435.4 311.83, 438.11 312.0, 440.86 312.17, 443.63 312.33, 446.43 312.5, 449.26 312.67, 452.13 312.83, 455.03 313.0, 457.96 313.17, 460.92 313.33, 463.92 313.5, 466.95 313.67, 470.01 313.83, 473.11 314.0, 476.24 314.17, 479.41 314.33, 482.61 314.5, 485.85 314.67, 489.12 314.83, 492.43 315.0, 495.77 315.17, 499.16 315.33, 502.58 315.5, 506.03 315.67, 509.53 315.83, 513.06 316.0, 516.63 316.17, 520.24 316.33, 523.89 316.5, 527.58 316.67, 531.31 316.83, 535.07 317.0, 538.88 317.17, 542.73 317.33, 546.63 317.5, 550.56 317.67, 554.54 317.83, 558.55 318.0, 562.62 318.17, 566.72 318.33, 570.87 318.5, 575.06 318.67, 579.3 318.83, 583.58 319.0, 587.91 319.17, 592.29 319.33, 596.71 319.5, 601.17 319.67, 605.69 319.83, 610.25 320.0, 614.86 320.17, 619.51 320.33, 624.22 320.5, 628.98 320.67, 633.78 320.83, 638.64 321.0, 643.54 321.17, 648.5 321.33, 653.51 321.5, 658.57 321.67, 663.68 321.83, 668.84 322.0, 674.06 322.17, 679.33 322.33, 684.66 322.5, 690.04 322.67, 695.48 322.83, 700.97 323.0, 706.52 323.17, 712.12 323.33, 717.78 323.5, 723.5 323.67, 729.28 323.83, 735.11 324.0, 741.0 324.17, 746.96 324.33, 752.97 324.5, 759.05 324.67, 765.18 324.83, 771.38 325.0, 777.63 325.17, 783.96 325.33, 790.34 325.5, 796.79 325.67, 803.3 325.83, 809.88 326.0, 816.52 326.17, 823.22 326.33, 830.0 326.5, 836.84 326.67, 843.75 326.83, 850.72 327.0, 857.77 327.17, 864.88 327.33, 872.06 327.5, 879.31 327.67, 886.64 327.83, 894.03 328.0, 901.5 328.17, 909.04 328.33, 916.65 328.5, 924.34 328.67, 932.1 328.83, 939.93 329.0, 947.84 329.17, 955.83 329.33, 963.89 329.5, 972.04 329.67, 980.25 329.83, 988.55 330.0, 996.93 330.17, 1005.38 330.33, 1013.92 330.5, 1022.54 330.67, 1031.24 330.83, 1040.02 331.0, 1048.88 331.17, 1057.83 331.33, 1066.86 331.5, 1075.98 331.67, 1085.18 331.83, 1094.47 332.0, 1103.85 332.17, 1113.31 332.33, 1122.86 332.5, 1132.5 332.67, 1142.23 332.83, 1152.05 333.0, 1161.96 333.17, 1171.96 333.33, 1182.06 333.5, 1192.25 333.67, 1202.53 333.83, 1212.91 334.0, 1223.38 334.17, 1233.95 334.33, 1244.61 334.5, 1255.37 334.67, 1266.23 334.83, 1277.19 335.0, 1288.25 335.17, 1299.41 335.33, 1310.67 335.5, 1322.03 335.67, 1333.5 335.83, 1345.06 336.0, 1356.74 336.17, 1368.51 336.33, 1380.4 336.5, 1392.39 336.67, 1404.48 336.83, 1416.69 337.0, 1429.0 337.17, 1441.42 337.33, 1453.96 337.5, 1466.6 337.67, 1479.36 337.83, 1492.23 338.0, 1505.21 338.17, 1518.31 338.33, 1531.53 338.5, 1544.85 338.67, 1558.3 338.83, 1571.87 339.0, 1585.55 339.17, 1599.35 339.33, 1613.28 339.5, 1627.32 339.67, 1641.49 339.83, 1655.78 340.0, 1670.19 340.17, 1684.73 340.33, 1699.4 340.5, 1714.19 340.67, 1729.11 340.83, 1744.16 341.0, 1759.33 341.17, 1774.64 341.33, 1790.08 341.5, 1805.65 341.67, 1821.35 341.83, 1837.19 342.0, 1853.16 342.17, 1869.27 342.33, 1885.52 342.5, 1901.9 342.67, 1918.42 342.83, 1935.08 343.0, 1951.88 343.17, 1968.82 343.33, 1985.91 343.5, 2003.14 343.67, 2020.51 343.83, 2038.03 344.0, 2055.7 344.17, 2073.51 344.33, 2091.47 344.5, 2109.59 344.67, 2127.85 344.83, 2146.26 345.0, 2164.83 345.17, 2183.55 345.33, 2202.42 345.5, 2221.45 345.67, 2240.64 345.83, 2259.99 346.0, 2279.49 346.17, 2299.16 346.33, 2318.98 346.5, 2338.97 346.67, 2359.12 346.83, 2379.44 347.0, 2399.92 347.17, 2420.56 347.33, 2441.38 347.5, 2462.36 347.67, 2483.52 347.83, 2504.84 348.0, 2526.34 348.17, 2548.01 348.33, 2569.85 348.5, 2591.87 348.67, 2614.07 348.83, 2636.45 349.0, 2659.0 349.17, 2681.73 349.33, 2704.65 349.5, 2727.75 349.67, 2751.03 349.83, 2774.5 350.0, 2798.15 350.17, 2821.99 350.33, 2846.02 350.5, 2870.24 350.67, 2894.65 350.83, 2919.25 351.0, 2944.05 351.17, 2969.04 351.33, 2994.23 351.5, 3019.61 351.67, 3045.2 351.83, 3070.98 352.0, 3096.96 352.17, 3123.15 352.33, 3149.54 352.5, 3176.13 352.67, 3202.94 352.83, 3229.94 353.0, 3257.16 353.17, 3284.59 353.33, 3312.23 353.5, 3340.08 353.67, 3368.15 353.83, 3396.43 354.0, 3424.93 354.17, 3453.65 354.33, 3482.59 354.5, 3511.74 354.67, 3541.13 354.83, 3570.73 355.0, 3600.56 355.17, 3630.62 355.33, 3660.9 355.5, 3691.41 355.67, 3722.16 355.83, 3753.14 356.0, 3784.35 356.17, 3815.79 356.33, 3847.47 356.5, 3879.4 356.67, 3911.56 356.83, 3943.96 357.0, 3976.6 357.17, 4009.49 357.33, 4042.62 357.5, 4076.0 357.67, 4109.63 357.83, 4143.51 358.0, 4177.63 358.17, 4212.02 358.33, 4246.65 358.5, 4281.55 358.67, 4316.7 358.83, 4352.11 359.0, 4387.78 359.17, 4423.71 359.33, 4459.91 359.5, 4496.37 359.67, 4533.1 359.83, 4570.1 360.0, 4607.37 360.17, 4644.9 360.33, 4682.72 360.5, 4720.81 360.67, 4759.17 360.83, 4797.82 361.0, 4836.74 361.17, 4875.94 361.33, 4915.43 361.5, 4955.21 361.67, 4995.27 361.83, 5035.62 362.0, 5076.25 362.17, 5117.19 362.33, 5158.41 362.5, 5199.93 362.67, 5241.75 362.83, 5283.86 363.0, 5326.28 363.17, 5368.99 363.33, 5412.02 363.5, 5455.34 363.67, 5498.98 363.83, 5542.92 364.0, 5587.18 364.17, 5631.74 364.33, 5676.63 364.5, 5721.83 364.67, 5767.34 364.83, 5813.18 365.0, 5859.34 365.17, 5905.82 365.33, 5952.63 365.5, 5999.77 365.67, 6047.24 365.83, 6095.03 366.0, 6143.16 366.17, 6191.63 366.33, 6240.43 366.5, 6289.57 366.67, 6339.05 366.83, 6388.88 367.0, 6439.05 367.17, 6489.57 367.33, 6540.43 367.5, 6591.65 367.67, 6643.21 367.83, 6695.14 368.0, 6747.42 368.17, 6800.05 368.33, 6853.05 368.5, 6906.41 368.67, 6960.14 368.83, 7014.23 369.0, 7068.69 369.17, 7123.52 369.33, 7178.72 369.5, 7234.3 369.67, 7290.26 369.83, 7346.59 370.0, 7403.31 370.17, 7460.41 370.33, 7517.89 370.5, 7575.76 370.67, 7634.02 370.83, 7692.68 371.0, 7751.72 371.17, 7811.17 371.33, 7871.01 371.5, 7931.25 371.67, 7991.89 371.83, 8052.94 372.0, 8114.4 372.17, 8176.26 372.33, 8238.54 372.5, 8301.23 372.67, 8364.33 372.83, 8427.86 373.0, 8491.8 373.17, 8556.17 373.33, 8620.96 373.5, 8686.18 373.67, 8751.83 373.83, 8817.91 374.0, 8884.42 374.17, 8951.37 374.33, 9018.76 374.5, 9086.6 374.67, 9154.87 374.83, 9223.59 375.0, 9292.76 375.17, 9362.38 375.33, 9432.45 375.5, 9502.98 375.67, 9573.97 375.83, 9645.42 376.0, 9717.33 376.17, 9789.7 376.33, 9862.54 376.5, 9935.86 376.67, 10009.64 376.83, 10083.9 377.0, 10158.64 377.17, 10233.86 377.33, 10309.56 377.5, 10385.75 377.67, 10462.43 377.83, 10539.59 378.0, 10617.25 378.17, 10695.4 378.33, 10774.05 378.5, 10853.2 378.67, 10932.86 378.83, 11013.02 379.0, 11093.69 379.17, 11174.87 379.33, 11256.57 379.5, 11338.78 379.67, 11421.51 379.83, 11504.76 380.0, 11588.54 380.17, 11672.84 380.33, 11757.67 380.5, 11843.04 380.67, 11928.94 380.83, 12015.38 381.0, 12102.36 381.17, 12189.88 381.33, 12277.96 381.5, 12366.57 381.67, 12455.75 381.83, 12545.47 382.0, 12635.76 382.17, 12726.6 382.33, 12818.01 382.5, 12909.98 382.67, 13002.53 382.83, 13095.64 383.0, 13189.33 383.17, 13283.6 383.33, 13378.45 383.5, 13473.88 383.67, 13569.9 383.83, 13666.5 384.0, 13763.7 384.17, 13861.5 384.33, 13959.89 384.5, 14058.89 384.67, 14158.49 384.83, 14258.69 385.0, 14359.51 385.17, 14460.94 385.33, 14562.99 385.5, 14665.66 385.67, 14768.94 385.83, 14872.86 386.0, 14977.4 386.17, 15082.58 386.33, 15188.39 386.5, 15294.84 386.67, 15401.93 386.83, 15509.66 387.0, 15618.04 387.17, 15727.08 387.33, 15836.76 387.5, 15947.11 387.67, 16058.11 387.83, 16169.78 388.0, 16282.12 388.17, 16395.12 388.33, 16508.8 388.5, 16623.16 388.67, 16738.19 388.83, 16853.91 389.0, 16970.32 389.17, 17087.42 389.33, 17205.21 389.5, 17323.69 389.67, 17442.88 389.83, 17562.77 390.0, 17683.37 390.17, 17804.67 390.33, 17926.69 390.5, 18049.43 390.67, 18172.89 390.83, 18297.07 391.0, 18421.98 391.17, 18547.62 391.33, 18674.0 391.5, 18801.11 391.67, 18928.97 391.83, 19057.57 392.0, 19186.92 392.17, 19317.02 392.33, 19447.88 392.5, 19579.5 392.67, 19711.88 392.83, 19845.02 393.0, 19978.94 393.17, 20113.63 393.33, 20249.1 393.5, 20385.35 393.67, 20522.38 393.83, 20660.21 394.0, 20798.82 394.17, 20938.23 394.33, 21078.44 394.5, 21219.46 394.67, 21361.28 394.83, 21503.92 395.0, 21647.36 395.17, 21791.63 395.33, 21936.72 395.5, 22082.64 395.67, 22229.39 395.83, 22376.97 396.0, 22525.39 396.17, 22674.65 396.33, 22824.75 396.5, 22975.71 396.67, 23127.52 396.83, 23280.19 397.0, 23433.72 397.17, 23588.11 397.33, 23743.38 397.5, 23899.52 397.67, 24056.53 397.83, 24214.43 398.0, 24373.22 398.17, 24532.89 398.33, 24693.46 398.5, 24854.92 398.67, 25017.29 398.83, 25180.56 399.0, 25344.75 399.17, 25509.85 399.33, 25675.86 399.5, 25842.81 399.67, 26010.67 399.83, 26179.47 400.0, 26349.21 " fill="none" stroke="white" stroke-width="1.5" stroke-linejoin="round" stroke-opacity="1"/>

 </svg>