<svg version="1.1" 
 baseProfile="full" 
 width="400" 
 height="400" 
 xmlns="http://www.w3.org/2000/svg">
<rect x="0.0" y="0.0" width="400" height="400" fill="black" stroke="black" stroke-width="0" opacity="1"/>
<line x1="0.0" y1="0.0" x2="0.0" y2="400.0" stroke="white" stroke-width="1" opacity="0.4" stroke-linecap="butt"/>
<line x1="40.0" y1="0.0" x2="40.0" y2="400.0" stroke="white" stroke-width="1" opacity="0.4" stroke-linecap="butt"/>
<line x1="80.0" y1="0.0" x2="80.0" y2="400.0" stroke="white" stroke-width="1" opacity="0.4" stroke-linecap="butt"/>
<line x1="120.0" y1="0.0" x2="120.0" y2="400.0" stroke="white" stroke-width="1" opacity="0.4" stroke-linecap="butt"/>
<line x1="160.0" y1="0.0" x2="160.0" y2="400.0" stroke="white" stroke-width="1" opacity="0.4" stroke-linecap="butt"/>
<line x1="200.0" y1="0.0" x2="200.0" y2="400.0" stroke="white" stroke-width="1" opacity="0.4" stroke-linecap="butt"/>
<line x1="240.0" y1="0.0" x2="240.0" y2="400.0" stroke="white" stroke-width="1" opacity="0.4" stroke-linecap="butt"/>
<line x1="280.0" y1="0.0" x2="280.0" y2="400.0" stroke="white" stroke-width="1" opacity="0.4" stroke-linecap="butt"/>
<line x1="320.0" y1="0.0" x2="320.0" y2="400.0" stroke="white" stroke-width="1" opacity="0.4" stroke-linecap="butt"/>
<line x1="360.0" y1="0.0" x2="360.0" y2="400.0" stroke="white" stroke-width="1" opacity="0.4" stroke-linecap="butt"/>
<line x1="0.0" y1="0.0" x2="400.0" y2="0.0" stroke="white" stroke-width="1" opacity="0.4" stroke-linecap="butt"/>
<line x1="0.0" y1="40.0" x2="400.0" y2="40.0" stroke="white" stroke-width="1" opacity="0.4" stroke-linecap="butt"/>
<line x1="0.0" y1="80.0" x2="400.0" y2="80.0" stroke="white" stroke-width="1" opacity="0.4" stroke-linecap="butt"/>
<line x1="0.0" y1="120.0" x2="400.0" y2="120.0" stroke="white" stroke-width="1" opacity="0.4" stroke-linecap="butt"/>
<line x1="0.0" y1="160.0" x2="400.0" y2="160.0" stroke="white" stroke-width="1" opacity="0.4" stroke-linecap="butt"/>
<line x1="0.0" y1="200.0" x2="400.0" y2="200.0" stroke="white" stroke-width="1" opacity="0.4" stroke-linecap="butt"/>
<line x1="0.0" y1="240.0" x2="400.0" y2="240.0" stroke="white" stroke-width="1" opacity="0.4" stroke-linecap="butt"/>
<line x1="0.0" y1="280.0" x2="400.0" y2="280.0" stroke="white" stroke-width="1" opacity="0.4" stroke-linecap="butt"/>
<line x1="0.0" y1="320.0" x2="400.0" y2="320.0" stroke="white" stroke-width="1" opacity="0.4" stroke-linecap="butt"/>
<line x1="0.0" y1="360.0" x2="400.0" y2="360.0" stroke="white" stroke-width="1" opacity="0.4" stroke-linecap="butt"/>
<line x1="0.0" y1="200.0" x2="400.0" y2="200.0" stroke="yellow" stroke-width="2.5" opacity="1" stroke-linecap="butt"/>
<line x1="200.0" y1="0.0" x2="200.0" y2="400.0" stroke="yellow" stroke-width="2.5" opacity="1" stroke-linecap="butt"/>
<polygon points="391.0 204.0, 401.0 200.0, 391.0 196.0, 393.0 200.0" fill="yellow"/><polygon points="204.0 9.0, 200.0 -1.0, 196.0 9.0, 200.0 7.0" fill="yellow"/><image x="-60.0" y="-60.0" width="200" height="200" href="/Users/girirajhira/PycharmProjects/Giraphics3/Taylor/expr.png"/><polyline points="0.0, -16304.14 0.17, -16206.51 0.33, -16109.33 0.5, -16012.6 0.67, -15916.33 0.83, -15820.51 1.0, -15725.13 1.17, -15630.21 1.33, -15535.74 1.5, -15441.71 1.67, -15348.13 1.83, -15254.98 2.0, -15162.29 2.17, -15070.03 2.33, -14978.21 2.5, -14886.83 2.67, -14795.88 2.83, -14705.37 3.0, -14615.29 3.17, -14525.64 3.33, -14436.43 3.5, -14347.64 3.67, -14259.28 3.83, -14171.35 4.0, -14083.84 4.17, -13996.75 4.33, -13910.09 4.5, -13823.84 4.67, -13738.02 4.83, -13652.61 5.0, -13567.62 5.17, -13483.05 5.33, -13398.89 5.5, -13315.14 5.67, -13231.8 5.83, -13148.87 6.0, -13066.35 6.17, -12984.23 6.33, -12902.52 6.5, -12821.21 6.67, -12740.31 6.83, -12659.8 7.0, -12579.7 7.17, -12499.99 7.33, -12420.68 7.5, -12341.77 7.67, -12263.25 7.83, -12185.12 8.0, -12107.39 8.17, -12030.04 8.33, -11953.08 8.5, -11876.51 8.67, -11800.33 8.83, -11724.53 9.0, -11649.11 9.17, -11574.07 9.33, -11499.42 9.5, -11425.14 9.67, -11351.24 9.83, -11277.72 10.0, -11204.57 10.17, -11131.8 10.33, -11059.39 10.5, -10987.36 10.67, -10915.7 10.83, -10844.41 11.0, -10773.48 11.17, -10702.92 11.33, -10632.72 11.5, -10562.89 11.67, -10493.41 11.83, -10424.3 12.0, -10355.55 12.17, -10287.15 12.33, -10219.11 12.5, -10151.42 12.67, -10084.09 12.83, -10017.11 13.0, -9950.48 13.17, -9884.2 13.33, -9818.27 13.5, -9752.69 13.67, -9687.45 13.83, -9622.56 14.0, -9558.01 14.17, -9493.8 14.33, -9429.93 14.5, -9366.4 14.67, -9303.21 14.83, -9240.35 15.0, -9177.83 15.17, -9115.64 15.33, -9053.79 15.5, -8992.27 15.67, -8931.08 15.83, -8870.21 16.0, -8809.68 16.17, -8749.47 16.33, -8689.59 16.5, -8630.03 16.67, -8570.79 16.83, -8511.87 17.0, -8453.28 17.17, -8395.0 17.33, -8337.04 17.5, -8279.39 17.67, -8222.07 17.83, -8165.05 18.0, -8108.35 18.17, -8051.96 18.33, -7995.88 18.5, -7940.1 18.67, -7884.64 18.83, -7829.48 19.0, -7774.63 19.17, -7720.08 19.33, -7665.83 19.5, -7611.88 19.67, -7558.24 19.83, -7504.89 20.0, -7451.84 20.17, -7399.09 20.33, -7346.63 20.5, -7294.47 20.67, -7242.6 20.83, -7191.02 21.0, -7139.73 21.17, -7088.73 21.33, -7038.02 21.5, -6987.6 21.67, -6937.46 21.83, -6887.61 22.0, -6838.04 22.17, -6788.75 22.33, -6739.74 22.5, -6691.02 22.67, -6642.57 22.83, -6594.4 23.0, -6546.5 23.17, -6498.88 23.33, -6451.54 23.5, -6404.47 23.67, -6357.67 23.83, -6311.13 24.0, -6264.87 24.17, -6218.88 24.33, -6173.15 24.5, -6127.69 24.67, -6082.5 24.83, -6037.57 25.0, -5992.9 25.17, -5948.49 25.33, -5904.34 25.5, -5860.45 25.67, -5816.82 25.83, -5773.45 26.0, -5730.33 26.17, -5687.47 26.33, -5644.86 26.5, -5602.5 26.67, -5560.39 26.83, -5518.54 27.0, -5476.93 27.17, -5435.57 27.33, -5394.46 27.5, -5353.59 27.67, -5312.97 27.83, -5272.59 28.0, -5232.46 28.17, -5192.56 28.33, -5152.91 28.5, -5113.49 28.67, -5074.32 28.83, -5035.38 29.0, -4996.67 29.17, -4958.2 29.33, -4919.97 29.5, -4881.97 29.67, -4844.2 29.83, -4806.66 30.0, -4769.35 30.17, -4732.27 30.33, -4695.41 30.5, -4658.79 30.67, -4622.38 30.83, -4586.21 31.0, -4550.25 31.17, -4514.52 31.33, -4479.01 31.5, -4443.72 31.67, -4408.65 31.83, -4373.8 32.0, -4339.16 32.17, -4304.74 32.33, -4270.54 32.5, -4236.55 32.67, -4202.77 32.83, -4169.21 33.0, -4135.85 33.17, -4102.71 33.33, -4069.78 33.5, -4037.05 33.67, -4004.53 33.83, -3972.22 34.0, -3940.11 34.17, -3908.21 34.33, -3876.51 34.5, -3845.01 34.67, -3813.72 34.83, -3782.62 35.0, -3751.72 35.17, -3721.03 35.33, -3690.52 35.5, -3660.22 35.67, -3630.11 35.83, -3600.2 36.0, -3570.48 36.17, -3540.95 36.33, -3511.61 36.5, -3482.47 36.67, -3453.51 36.83, -3424.74 37.0, -3396.16 37.17, -3367.77 37.33, -3339.56 37.5, -3311.54 37.67, -3283.71 37.83, -3256.05 38.0, -3228.58 38.17, -3201.29 38.33, -3174.18 38.5, -3147.26 38.67, -3120.5 38.83, -3093.93 39.0, -3067.54 39.17, -3041.32 39.33, -3015.27 39.5, -2989.4 39.67, -2963.7 39.83, -2938.18 40.0, -2912.83 40.17, -2887.64 40.33, -2862.63 40.5, -2837.79 40.67, -2813.11 40.83, -2788.61 41.0, -2764.26 41.17, -2740.09 41.33, -2716.08 41.5, -2692.23 41.67, -2668.54 41.83, -2645.02 42.0, -2621.66 42.17, -2598.46 42.33, -2575.42 42.5, -2552.53 42.67, -2529.81 42.83, -2507.24 43.0, -2484.83 43.17, -2462.57 43.33, -2440.47 43.5, -2418.52 43.67, -2396.72 43.83, -2375.08 44.0, -2353.59 44.17, -2332.25 44.33, -2311.06 44.5, -2290.01 44.67, -2269.12 44.83, -2248.37 45.0, -2227.77 45.17, -2207.31 45.33, -2187.0 45.5, -2166.83 45.67, -2146.81 45.83, -2126.93 46.0, -2107.19 46.17, -2087.59 46.33, -2068.13 46.5, -2048.81 46.67, -2029.63 46.83, -2010.59 47.0, -1991.68 47.17, -1972.91 47.33, -1954.28 47.5, -1935.78 47.67, -1917.41 47.83, -1899.18 48.0, -1881.08 48.17, -1863.11 48.33, -1845.28 48.5, -1827.57 48.67, -1809.99 48.83, -1792.55 49.0, -1775.23 49.17, -1758.03 49.33, -1740.97 49.5, -1724.03 49.67, -1707.21 49.83, -1690.52 50.0, -1673.96 50.17, -1657.51 50.33, -1641.19 50.5, -1624.99 50.67, -1608.91 50.83, -1592.95 51.0, -1577.11 51.17, -1561.39 51.33, -1545.79 51.5, -1530.31 51.67, -1514.94 51.83, -1499.69 52.0, -1484.55 52.17, -1469.53 52.33, -1454.62 52.5, -1439.83 52.67, -1425.15 52.83, -1410.58 53.0, -1396.12 53.17, -1381.77 53.33, -1367.54 53.5, -1353.41 53.67, -1339.39 53.83, -1325.48 54.0, -1311.67 54.17, -1297.98 54.33, -1284.38 54.5, -1270.9 54.67, -1257.52 54.83, -1244.24 55.0, -1231.07 55.17, -1218.0 55.33, -1205.03 55.5, -1192.16 55.67, -1179.4 55.83, -1166.73 56.0, -1154.17 56.17, -1141.7 56.33, -1129.34 56.5, -1117.07 56.67, -1104.89 56.83, -1092.82 57.0, -1080.84 57.17, -1068.96 57.33, -1057.17 57.5, -1045.47 57.67, -1033.87 57.83, -1022.37 58.0, -1010.95 58.17, -999.63 58.33, -988.4 58.5, -977.26 58.67, -966.21 58.83, -955.24 59.0, -944.37 59.17, -933.59 59.33, -922.89 59.5, -912.29 59.67, -901.77 59.83, -891.33 60.0, -880.98 60.17, -870.72 60.33, -860.54 60.5, -850.44 60.67, -840.43 60.83, -830.5 61.0, -820.66 61.17, -810.89 61.33, -801.21 61.5, -791.6 61.67, -782.08 61.83, -772.64 62.0, -763.28 62.17, -753.99 62.33, -744.78 62.5, -735.65 62.67, -726.6 62.83, -717.63 63.0, -708.73 63.17, -699.9 63.33, -691.16 63.5, -682.48 63.67, -673.88 63.83, -665.35 64.0, -656.9 64.17, -648.52 64.33, -640.21 64.5, -631.97 64.67, -623.8 64.83, -615.71 65.0, -607.68 65.17, -599.73 65.33, -591.84 65.5, -584.02 65.67, -576.27 65.83, -568.59 66.0, -560.97 66.17, -553.42 66.33, -545.94 66.5, -538.52 66.67, -531.17 66.83, -523.88 67.0, -516.66 67.17, -509.5 67.33, -502.41 67.5, -495.37 67.67, -488.41 67.83, -481.5 68.0, -474.65 68.17, -467.87 68.33, -461.15 68.5, -454.48 68.67, -447.88 68.83, -441.34 69.0, -434.85 69.17, -428.42 69.33, -422.06 69.5, -415.75 69.67, -409.49 69.83, -403.3 70.0, -397.16 70.17, -391.08 70.33, -385.05 70.5, -379.08 70.67, -373.16 70.83, -367.3 71.0, -361.49 71.17, -355.73 71.33, -350.03 71.5, -344.38 71.67, -338.79 71.83, -333.24 72.0, -327.75 72.17, -322.31 72.33, -316.92 72.5, -311.58 72.67, -306.29 72.83, -301.05 73.0, -295.86 73.17, -290.72 73.33, -285.62 73.5, -280.58 73.67, -275.58 73.83, -270.63 74.0, -265.73 74.17, -260.87 74.33, -256.06 74.5, -251.3 74.67, -246.58 74.83, -241.91 75.0, -237.28 75.17, -232.7 75.33, -228.16 75.5, -223.66 75.67, -219.21 75.83, -214.8 76.0, -210.44 76.17, -206.12 76.33, -201.84 76.5, -197.6 76.67, -193.4 76.83, -189.24 77.0, -185.13 77.17, -181.05 77.33, -177.02 77.5, -173.02 77.67, -169.07 77.83, -165.15 78.0, -161.27 78.17, -157.43 78.33, -153.63 78.5, -149.87 78.67, -146.14 78.83, -142.46 79.0, -138.8 79.17, -135.19 79.33, -131.61 79.5, -128.07 79.67, -124.56 79.83, -121.09 80.0, -117.66 80.17, -114.26 80.33, -110.89 80.5, -107.56 80.67, -104.26 80.83, -100.99 81.0, -97.76 81.17, -94.57 81.33, -91.4 81.5, -88.27 81.67, -85.17 81.83, -82.1 82.0, -79.06 82.17, -76.06 82.33, -73.08 82.5, -70.14 82.67, -67.22 82.83, -64.34 83.0, -61.49 83.17, -58.67 83.33, -55.87 83.5, -53.11 83.67, -50.37 83.83, -47.67 84.0, -44.99 84.17, -42.34 84.33, -39.72 84.5, -37.12 84.67, -34.56 84.83, -32.02 85.0, -29.51 85.17, -27.02 85.33, -24.56 85.5, -22.13 85.67, -19.72 85.83, -17.34 86.0, -14.98 86.17, -12.65 86.33, -10.35 86.5, -8.07 86.67, -5.81 86.83, -3.58 87.0, -1.37 87.17, 0.81 87.33, 2.97 87.5, 5.11 87.67, 7.23 87.83, 9.32 88.0, 11.38 88.17, 13.43 88.33, 15.45 88.5, 17.45 88.67, 19.43 88.83, 21.39 89.0, 23.33 89.17, 25.24 89.33, 27.13 89.5, 29.01 89.67, 30.86 89.83, 32.69 90.0, 34.5 90.17, 36.29 90.33, 38.07 90.5, 39.82 90.67, 41.55 90.83, 43.26 91.0, 44.96 91.17, 46.63 91.33, 48.29 91.5, 49.93 91.67, 51.55 91.83, 53.15 92.0, 54.73 92.17, 56.3 92.33, 57.85 92.5, 59.38 92.67, 60.89 92.83, 62.39 93.0, 63.87 93.17, 65.33 93.33, 66.78 93.5, 68.21 93.67, 69.63 93.83, 71.02 94.0, 72.41 94.17, 73.77 94.33, 75.13 94.5, 76.46 94.67, 77.78 94.83, 79.09 95.0, 80.38 95.17, 81.66 95.33, 82.92 95.5, 84.17 95.67, 85.4 95.83, 86.62 96.0, 87.83 96.17, 89.02 96.33, 90.2 96.5, 91.36 96.67, 92.52 96.83, 93.65 97.0, 94.78 97.17, 95.89 97.33, 96.99 97.5, 98.08 97.67, 99.16 97.83, 100.22 98.0, 101.27 98.17, 102.31 98.33, 103.34 98.5, 104.35 98.67, 105.36 98.83, 106.35 99.0, 107.33 99.17, 108.3 99.33, 109.26 99.5, 110.21 99.67, 111.14 99.83, 112.07 100.0, 112.98 100.17, 113.89 100.33, 114.79 100.5, 115.67 100.67, 116.55 100.83, 117.41 101.0, 118.27 101.17, 119.11 101.33, 119.95 101.5, 120.77 101.67, 121.59 101.83, 122.4 102.0, 123.2 102.17, 123.99 102.33, 124.77 102.5, 125.54 102.67, 126.31 102.83, 127.06 103.0, 127.81 103.17, 128.55 103.33, 129.28 103.5, 130.0 103.67, 130.71 103.83, 131.42 104.0, 132.12 104.17, 132.81 104.33, 133.49 104.5, 134.16 104.67, 134.83 104.83, 135.49 105.0, 136.15 105.17, 136.79 105.33, 137.43 105.5, 138.06 105.67, 138.69 105.83, 139.31 106.0, 139.92 106.17, 140.52 106.33, 141.12 106.5, 141.71 106.67, 142.3 106.83, 142.88 107.0, 143.45 107.17, 144.02 107.33, 144.58 107.5, 145.14 107.67, 145.69 107.83, 146.23 108.0, 146.77 108.17, 147.3 108.33, 147.83 108.5, 148.35 108.67, 148.87 108.83, 149.38 109.0, 149.88 109.17, 150.38 109.33, 150.88 109.5, 151.37 109.67, 151.86 109.83, 152.34 110.0, 152.81 110.17, 153.28 110.33, 153.75 110.5, 154.21 110.67, 154.67 110.83, 155.12 111.0, 155.57 111.17, 156.02 111.33, 156.46 111.5, 156.89 111.67, 157.33 111.83, 157.75 112.0, 158.18 112.17, 158.6 112.33, 159.01 112.5, 159.43 112.67, 159.83 112.83, 160.24 113.0, 160.64 113.17, 161.04 113.33, 161.43 113.5, 161.82 113.67, 162.21 113.83, 162.59 114.0, 162.97 114.17, 163.35 114.33, 163.72 114.5, 164.1 114.67, 164.46 114.83, 164.83 115.0, 165.19 115.17, 165.55 115.33, 165.9 115.5, 166.26 115.67, 166.61 115.83, 166.95 116.0, 167.3 116.17, 167.64 116.33, 167.98 116.5, 168.31 116.67, 168.65 116.83, 168.98 117.0, 169.31 117.17, 169.63 117.33, 169.96 117.5, 170.28 117.67, 170.6 117.83, 170.92 118.0, 171.23 118.17, 171.54 118.33, 171.85 118.5, 172.16 118.67, 172.47 118.83, 172.77 119.0, 173.07 119.17, 173.37 119.33, 173.67 119.5, 173.97 119.67, 174.26 119.83, 174.56 120.0, 174.85 120.17, 175.13 120.33, 175.42 120.5, 175.71 120.67, 175.99 120.83, 176.27 121.0, 176.55 121.17, 176.83 121.33, 177.11 121.5, 177.38 121.67, 177.66 121.83, 177.93 122.0, 178.2 122.17, 178.47 122.33, 178.74 122.5, 179.0 122.67, 179.27 122.83, 179.53 123.0, 179.8 123.17, 180.06 123.33, 180.32 123.5, 180.57 123.67, 180.83 123.83, 181.09 124.0, 181.34 124.17, 181.6 124.33, 181.85 124.5, 182.1 124.67, 182.35 124.83, 182.6 125.0, 182.85 125.17, 183.09 125.33, 183.34 125.5, 183.58 125.67, 183.83 125.83, 184.07 126.0, 184.31 126.17, 184.55 126.33, 184.79 126.5, 185.03 126.67, 185.27 126.83, 185.51 127.0, 185.74 127.17, 185.98 127.33, 186.21 127.5, 186.44 127.67, 186.68 127.83, 186.91 128.0, 187.14 128.17, 187.37 128.33, 187.6 128.5, 187.83 128.67, 188.05 128.83, 188.28 129.0, 188.51 129.17, 188.73 129.33, 188.96 129.5, 189.18 129.67, 189.4 129.83, 189.63 130.0, 189.85 130.17, 190.07 130.33, 190.29 130.5, 190.51 130.67, 190.73 130.83, 190.95 131.0, 191.16 131.17, 191.38 131.33, 191.6 131.5, 191.81 131.67, 192.03 131.83, 192.24 132.0, 192.46 132.17, 192.67 132.33, 192.88 132.5, 193.09 132.67, 193.3 132.83, 193.51 133.0, 193.72 133.17, 193.93 133.33, 194.14 133.5, 194.35 133.67, 194.56 133.83, 194.76 134.0, 194.97 134.17, 195.18 134.33, 195.38 134.5, 195.59 134.67, 195.79 134.83, 195.99 135.0, 196.2 135.17, 196.4 135.33, 196.6 135.5, 196.8 135.67, 197.0 135.83, 197.2 136.0, 197.4 136.17, 197.6 136.33, 197.8 136.5, 198.0 136.67, 198.19 136.83, 198.39 137.0, 198.59 137.17, 198.78 137.33, 198.98 137.5, 199.17 137.67, 199.36 137.83, 199.56 138.0, 199.75 138.17, 199.94 138.33, 200.13 138.5, 200.32 138.67, 200.51 138.83, 200.7 139.0, 200.89 139.17, 201.08 139.33, 201.27 139.5, 201.45 139.67, 201.64 139.83, 201.83 140.0, 202.01 140.17, 202.2 140.33, 202.38 140.5, 202.56 140.67, 202.75 140.83, 202.93 141.0, 203.11 141.17, 203.29 141.33, 203.47 141.5, 203.65 141.67, 203.83 141.83, 204.01 142.0, 204.18 142.17, 204.36 142.33, 204.54 142.5, 204.71 142.67, 204.89 142.83, 205.06 143.0, 205.23 143.17, 205.41 143.33, 205.58 143.5, 205.75 143.67, 205.92 143.83, 206.09 144.0, 206.26 144.17, 206.43 144.33, 206.59 144.5, 206.76 144.67, 206.93 144.83, 207.09 145.0, 207.26 145.17, 207.42 145.33, 207.58 145.5, 207.75 145.67, 207.91 145.83, 208.07 146.0, 208.23 146.17, 208.39 146.33, 208.54 146.5, 208.7 146.67, 208.86 146.83, 209.01 147.0, 209.17 147.17, 209.32 147.33, 209.48 147.5, 209.63 147.67, 209.78 147.83, 209.93 148.0, 210.08 148.17, 210.23 148.33, 210.38 148.5, 210.52 148.67, 210.67 148.83, 210.82 149.0, 210.96 149.17, 211.1 149.33, 211.25 149.5, 211.39 149.67, 211.53 149.83, 211.67 150.0, 211.81 150.17, 211.95 150.33, 212.08 150.5, 212.22 150.67, 212.35 150.83, 212.49 151.0, 212.62 151.17, 212.75 151.33, 212.88 151.5, 213.01 151.67, 213.14 151.83, 213.27 152.0, 213.4 152.17, 213.52 152.33, 213.65 152.5, 213.77 152.67, 213.89 152.83, 214.02 153.0, 214.14 153.17, 214.26 153.33, 214.37 153.5, 214.49 153.67, 214.61 153.83, 214.72 154.0, 214.84 154.17, 214.95 154.33, 215.06 154.5, 215.17 154.67, 215.28 154.83, 215.39 155.0, 215.5 155.17, 215.6 155.33, 215.71 155.5, 215.81 155.67, 215.92 155.83, 216.02 156.0, 216.12 156.17, 216.22 156.33, 216.32 156.5, 216.41 156.67, 216.51 156.83, 216.6 157.0, 216.7 157.17, 216.79 157.33, 216.88 157.5, 216.97 157.67, 217.06 157.83, 217.14 158.0, 217.23 158.17, 217.31 158.33, 217.4 158.5, 217.48 158.67, 217.56 158.83, 217.64 159.0, 217.72 159.17, 217.8 159.33, 217.87 159.5, 217.95 159.67, 218.02 159.83, 218.09 160.0, 218.16 160.17, 218.23 160.33, 218.3 160.5, 218.37 160.67, 218.43 160.83, 218.5 161.0, 218.56 161.17, 218.62 161.33, 218.68 161.5, 218.74 161.67, 218.8 161.83, 218.86 162.0, 218.91 162.17, 218.97 162.33, 219.02 162.5, 219.07 162.67, 219.12 162.83, 219.17 163.0, 219.21 163.17, 219.26 163.33, 219.3 163.5, 219.35 163.67, 219.39 163.83, 219.43 164.0, 219.47 164.17, 219.51 164.33, 219.54 164.5, 219.58 164.67, 219.61 164.83, 219.64 165.0, 219.67 165.17, 219.7 165.33, 219.73 165.5, 219.76 165.67, 219.78 165.83, 219.81 166.0, 219.83 166.17, 219.85 166.33, 219.87 166.5, 219.89 166.67, 219.9 166.83, 219.92 167.0, 219.93 167.17, 219.95 167.33, 219.96 167.5, 219.97 167.67, 219.98 167.83, 219.98 168.0, 219.99 168.17, 219.99 168.33, 220.0 168.5, 220.0 168.67, 220.0 168.83, 220.0 169.0, 219.99 169.17, 219.99 169.33, 219.98 169.5, 219.98 169.67, 219.97 169.83, 219.96 170.0, 219.95 170.17, 219.94 170.33, 219.92 170.5, 219.91 170.67, 219.89 170.83, 219.87 171.0, 219.85 171.17, 219.83 171.33, 219.81 171.5, 219.79 171.67, 219.76 171.83, 219.74 172.0, 219.71 172.17, 219.68 172.33, 219.65 172.5, 219.62 172.67, 219.58 172.83, 219.55 173.0, 219.51 173.17, 219.48 173.33, 219.44 173.5, 219.4 173.67, 219.36 173.83, 219.31 174.0, 219.27 174.17, 219.23 174.33, 219.18 174.5, 219.13 174.67, 219.08 174.83, 219.03 175.0, 218.98 175.17, 218.93 175.33, 218.87 175.5, 218.82 175.67, 218.76 175.83, 218.7 176.0, 218.64 176.17, 218.58 176.33, 218.52 176.5, 218.45 176.67, 218.39 176.83, 218.32 177.0, 218.26 177.17, 218.19 177.33, 218.12 177.5, 218.05 177.67, 217.97 177.83, 217.9 178.0, 217.82 178.17, 217.75 178.33, 217.67 178.5, 217.59 178.67, 217.51 178.83, 217.43 179.0, 217.35 179.17, 217.26 179.33, 217.18 179.5, 217.09 179.67, 217.01 179.83, 216.92 180.0, 216.83 180.17, 216.74 180.33, 216.65 180.5, 216.55 180.67, 216.46 180.83, 216.36 181.0, 216.27 181.17, 216.17 181.33, 216.07 181.5, 215.97 181.67, 215.87 181.83, 215.77 182.0, 215.67 182.17, 215.56 182.33, 215.46 182.5, 215.35 182.67, 215.24 182.83, 215.14 183.0, 215.03 183.17, 214.92 183.33, 214.8 183.5, 214.69 183.67, 214.58 183.83, 214.46 184.0, 214.35 184.17, 214.23 184.33, 214.11 184.5, 213.99 184.67, 213.87 184.83, 213.75 185.0, 213.63 185.17, 213.51 185.33, 213.39 185.5, 213.26 185.67, 213.14 185.83, 213.01 186.0, 212.88 186.17, 212.76 186.33, 212.63 186.5, 212.5 186.67, 212.37 186.83, 212.24 187.0, 212.1 187.17, 211.97 187.33, 211.84 187.5, 211.7 187.67, 211.57 187.83, 211.43 188.0, 211.29 188.17, 211.15 188.33, 211.02 188.5, 210.88 188.67, 210.74 188.83, 210.6 189.0, 210.45 189.17, 210.31 189.33, 210.17 189.5, 210.02 189.67, 209.88 189.83, 209.73 190.0, 209.59 190.17, 209.44 190.33, 209.29 190.5, 209.15 190.67, 209.0 190.83, 208.85 191.0, 208.7 191.17, 208.55 191.33, 208.4 191.5, 208.25 191.67, 208.09 191.83, 207.94 192.0, 207.79 192.17, 207.63 192.33, 207.48 192.5, 207.33 192.67, 207.17 192.83, 207.01 193.0, 206.86 193.17, 206.7 193.33, 206.54 193.5, 206.39 193.67, 206.23 193.83, 206.07 194.0, 205.91 194.17, 205.75 194.33, 205.59 194.5, 205.43 194.67, 205.27 194.83, 205.11 195.0, 204.95 195.17, 204.79 195.33, 204.62 195.5, 204.46 195.67, 204.3 195.83, 204.14 196.0, 203.97 196.17, 203.81 196.33, 203.65 196.5, 203.48 196.67, 203.32 196.83, 203.15 197.0, 202.99 197.17, 202.82 197.33, 202.66 197.5, 202.49 197.67, 202.33 197.83, 202.16 198.0, 202.0 198.17, 201.83 198.33, 201.66 198.5, 201.5 198.67, 201.33 198.83, 201.17 199.0, 201.0 199.17, 200.83 199.33, 200.67 199.5, 200.5 199.67, 200.33 199.83, 200.17 200.0, 200.0 200.17, 199.83 200.33, 199.67 200.5, 199.5 200.67, 199.33 200.83, 199.17 201.0, 199.0 201.17, 198.83 201.33, 198.67 201.5, 198.5 201.67, 198.34 201.83, 198.17 202.0, 198.0 202.17, 197.84 202.33, 197.67 202.5, 197.51 202.67, 197.34 202.83, 197.18 203.0, 197.01 203.17, 196.85 203.33, 196.68 203.5, 196.52 203.67, 196.35 203.83, 196.19 204.0, 196.03 204.17, 195.86 204.33, 195.7 204.5, 195.54 204.67, 195.38 204.83, 195.21 205.0, 195.05 205.17, 194.89 205.33, 194.73 205.5, 194.57 205.67, 194.41 205.83, 194.25 206.0, 194.09 206.17, 193.93 206.33, 193.77 206.5, 193.61 206.67, 193.46 206.83, 193.3 207.0, 193.14 207.17, 192.99 207.33, 192.83 207.5, 192.67 207.67, 192.52 207.83, 192.37 208.0, 192.21 208.17, 192.06 208.33, 191.91 208.5, 191.75 208.67, 191.6 208.83, 191.45 209.0, 191.3 209.17, 191.15 209.33, 191.0 209.5, 190.85 209.67, 190.71 209.83, 190.56 210.0, 190.41 210.17, 190.27 210.33, 190.12 210.5, 189.98 210.67, 189.83 210.83, 189.69 211.0, 189.55 211.17, 189.4 211.33, 189.26 211.5, 189.12 211.67, 188.98 211.83, 188.85 212.0, 188.71 212.17, 188.57 212.33, 188.43 212.5, 188.3 212.67, 188.16 212.83, 188.03 213.0, 187.9 213.17, 187.76 213.33, 187.63 213.5, 187.5 213.67, 187.37 213.83, 187.24 214.0, 187.12 214.17, 186.99 214.33, 186.86 214.5, 186.74 214.67, 186.61 214.83, 186.49 215.0, 186.37 215.17, 186.25 215.33, 186.13 215.5, 186.01 215.67, 185.89 215.83, 185.77 216.0, 185.65 216.17, 185.54 216.33, 185.42 216.5, 185.31 216.67, 185.2 216.83, 185.08 217.0, 184.97 217.17, 184.86 217.33, 184.76 217.5, 184.65 217.67, 184.54 217.83, 184.44 218.0, 184.33 218.17, 184.23 218.33, 184.13 218.5, 184.03 218.67, 183.93 218.83, 183.83 219.0, 183.73 219.17, 183.64 219.33, 183.54 219.5, 183.45 219.67, 183.35 219.83, 183.26 220.0, 183.17 220.17, 183.08 220.33, 182.99 220.5, 182.91 220.67, 182.82 220.83, 182.74 221.0, 182.65 221.17, 182.57 221.33, 182.49 221.5, 182.41 221.67, 182.33 221.83, 182.25 222.0, 182.18 222.17, 182.1 222.33, 182.03 222.5, 181.95 222.67, 181.88 222.83, 181.81 223.0, 181.74 223.17, 181.68 223.33, 181.61 223.5, 181.55 223.67, 181.48 223.83, 181.42 224.0, 181.36 224.17, 181.3 224.33, 181.24 224.5, 181.18 224.67, 181.13 224.83, 181.07 225.0, 181.02 225.17, 180.97 225.33, 180.92 225.5, 180.87 225.67, 180.82 225.83, 180.77 226.0, 180.73 226.17, 180.69 226.33, 180.64 226.5, 180.6 226.67, 180.56 226.83, 180.52 227.0, 180.49 227.17, 180.45 227.33, 180.42 227.5, 180.38 227.67, 180.35 227.83, 180.32 228.0, 180.29 228.17, 180.26 228.33, 180.24 228.5, 180.21 228.67, 180.19 228.83, 180.17 229.0, 180.15 229.17, 180.13 229.33, 180.11 229.5, 180.09 229.67, 180.08 229.83, 180.06 230.0, 180.05 230.17, 180.04 230.33, 180.03 230.5, 180.02 230.67, 180.02 230.83, 180.01 231.0, 180.01 231.17, 180.0 231.33, 180.0 231.5, 180.0 231.67, 180.0 231.83, 180.01 232.0, 180.01 232.17, 180.02 232.33, 180.02 232.5, 180.03 232.67, 180.04 232.83, 180.05 233.0, 180.07 233.17, 180.08 233.33, 180.1 233.5, 180.11 233.67, 180.13 233.83, 180.15 234.0, 180.17 234.17, 180.19 234.33, 180.22 234.5, 180.24 234.67, 180.27 234.83, 180.3 235.0, 180.33 235.17, 180.36 235.33, 180.39 235.5, 180.42 235.67, 180.46 235.83, 180.49 236.0, 180.53 236.17, 180.57 236.33, 180.61 236.5, 180.65 236.67, 180.7 236.83, 180.74 237.0, 180.79 237.17, 180.83 237.33, 180.88 237.5, 180.93 237.67, 180.98 237.83, 181.03 238.0, 181.09 238.17, 181.14 238.33, 181.2 238.5, 181.26 238.67, 181.32 238.83, 181.38 239.0, 181.44 239.17, 181.5 239.33, 181.57 239.5, 181.63 239.67, 181.7 239.83, 181.77 240.0, 181.84 240.17, 181.91 240.33, 181.98 240.5, 182.05 240.67, 182.13 240.83, 182.2 241.0, 182.28 241.17, 182.36 241.33, 182.44 241.5, 182.52 241.67, 182.6 241.83, 182.69 242.0, 182.77 242.17, 182.86 242.33, 182.94 242.5, 183.03 242.67, 183.12 242.83, 183.21 243.0, 183.3 243.17, 183.4 243.33, 183.49 243.5, 183.59 243.67, 183.68 243.83, 183.78 244.0, 183.88 244.17, 183.98 244.33, 184.08 244.5, 184.19 244.67, 184.29 244.83, 184.4 245.0, 184.5 245.17, 184.61 245.33, 184.72 245.5, 184.83 245.67, 184.94 245.83, 185.05 246.0, 185.16 246.17, 185.28 246.33, 185.39 246.5, 185.51 246.67, 185.63 246.83, 185.74 247.0, 185.86 247.17, 185.98 247.33, 186.11 247.5, 186.23 247.67, 186.35 247.83, 186.48 248.0, 186.6 248.17, 186.73 248.33, 186.86 248.5, 186.99 248.67, 187.12 248.83, 187.25 249.0, 187.38 249.17, 187.51 249.33, 187.65 249.5, 187.78 249.67, 187.92 249.83, 188.05 250.0, 188.19 250.17, 188.33 250.33, 188.47 250.5, 188.61 250.67, 188.75 250.83, 188.9 251.0, 189.04 251.17, 189.18 251.33, 189.33 251.5, 189.48 251.67, 189.62 251.83, 189.77 252.0, 189.92 252.17, 190.07 252.33, 190.22 252.5, 190.37 252.67, 190.52 252.83, 190.68 253.0, 190.83 253.17, 190.99 253.33, 191.14 253.5, 191.3 253.67, 191.46 253.83, 191.61 254.0, 191.77 254.17, 191.93 254.33, 192.09 254.5, 192.25 254.67, 192.42 254.83, 192.58 255.0, 192.74 255.17, 192.91 255.33, 193.07 255.5, 193.24 255.67, 193.41 255.83, 193.57 256.0, 193.74 256.17, 193.91 256.33, 194.08 256.5, 194.25 256.67, 194.42 256.83, 194.59 257.0, 194.77 257.17, 194.94 257.33, 195.11 257.5, 195.29 257.67, 195.46 257.83, 195.64 258.0, 195.82 258.17, 195.99 258.33, 196.17 258.5, 196.35 258.67, 196.53 258.83, 196.71 259.0, 196.89 259.17, 197.07 259.33, 197.25 259.5, 197.44 259.67, 197.62 259.83, 197.8 260.0, 197.99 260.17, 198.17 260.33, 198.36 260.5, 198.55 260.67, 198.73 260.83, 198.92 261.0, 199.11 261.17, 199.3 261.33, 199.49 261.5, 199.68 261.67, 199.87 261.83, 200.06 262.0, 200.25 262.17, 200.44 262.33, 200.64 262.5, 200.83 262.67, 201.02 262.83, 201.22 263.0, 201.41 263.17, 201.61 263.33, 201.81 263.5, 202.0 263.67, 202.2 263.83, 202.4 264.0, 202.6 264.17, 202.8 264.33, 203.0 264.5, 203.2 264.67, 203.4 264.83, 203.6 265.0, 203.8 265.17, 204.01 265.33, 204.21 265.5, 204.41 265.67, 204.62 265.83, 204.82 266.0, 205.03 266.17, 205.24 266.33, 205.44 266.5, 205.65 266.67, 205.86 266.83, 206.07 267.0, 206.28 267.17, 206.49 267.33, 206.7 267.5, 206.91 267.67, 207.12 267.83, 207.33 268.0, 207.54 268.17, 207.76 268.33, 207.97 268.5, 208.19 268.67, 208.4 268.83, 208.62 269.0, 208.84 269.17, 209.05 269.33, 209.27 269.5, 209.49 269.67, 209.71 269.83, 209.93 270.0, 210.15 270.17, 210.37 270.33, 210.6 270.5, 210.82 270.67, 211.04 270.83, 211.27 271.0, 211.49 271.17, 211.72 271.33, 211.95 271.5, 212.17 271.67, 212.4 271.83, 212.63 272.0, 212.86 272.17, 213.09 272.33, 213.32 272.5, 213.56 272.67, 213.79 272.83, 214.02 273.0, 214.26 273.17, 214.49 273.33, 214.73 273.5, 214.97 273.67, 215.21 273.83, 215.45 274.0, 215.69 274.17, 215.93 274.33, 216.17 274.5, 216.42 274.67, 216.66 274.83, 216.91 275.0, 217.15 275.17, 217.4 275.33, 217.65 275.5, 217.9 275.67, 218.15 275.83, 218.4 276.0, 218.66 276.17, 218.91 276.33, 219.17 276.5, 219.43 276.67, 219.68 276.83, 219.94 277.0, 220.2 277.17, 220.47 277.33, 220.73 277.5, 221.0 277.67, 221.26 277.83, 221.53 278.0, 221.8 278.17, 222.07 278.33, 222.34 278.5, 222.62 278.67, 222.89 278.83, 223.17 279.0, 223.45 279.17, 223.73 279.33, 224.01 279.5, 224.29 279.67, 224.58 279.83, 224.87 280.0, 225.15 280.17, 225.44 280.33, 225.74 280.5, 226.03 280.67, 226.33 280.83, 226.63 281.0, 226.93 281.17, 227.23 281.33, 227.53 281.5, 227.84 281.67, 228.15 281.83, 228.46 282.0, 228.77 282.17, 229.08 282.33, 229.4 282.5, 229.72 282.67, 230.04 282.83, 230.37 283.0, 230.69 283.17, 231.02 283.33, 231.35 283.5, 231.69 283.67, 232.02 283.83, 232.36 284.0, 232.7 284.17, 233.05 284.33, 233.39 284.5, 233.74 284.67, 234.1 284.83, 234.45 285.0, 234.81 285.17, 235.17 285.33, 235.54 285.5, 235.9 285.67, 236.28 285.83, 236.65 286.0, 237.03 286.17, 237.41 286.33, 237.79 286.5, 238.18 286.67, 238.57 286.83, 238.96 287.0, 239.36 287.17, 239.76 287.33, 240.17 287.5, 240.57 287.67, 240.99 287.83, 241.4 288.0, 241.82 288.17, 242.25 288.33, 242.67 288.5, 243.11 288.67, 243.54 288.83, 243.98 289.0, 244.43 289.17, 244.88 289.33, 245.33 289.5, 245.79 289.67, 246.25 289.83, 246.72 290.0, 247.19 290.17, 247.66 290.33, 248.14 290.5, 248.63 290.67, 249.12 290.83, 249.62 291.0, 250.12 291.17, 250.62 291.33, 251.13 291.5, 251.65 291.67, 252.17 291.83, 252.7 292.0, 253.23 292.17, 253.77 292.33, 254.31 292.5, 254.86 292.67, 255.42 292.83, 255.98 293.0, 256.55 293.17, 257.12 293.33, 257.7 293.5, 258.29 293.67, 258.88 293.83, 259.48 294.0, 260.08 294.17, 260.69 294.33, 261.31 294.5, 261.94 294.67, 262.57 294.83, 263.21 295.0, 263.85 295.17, 264.51 295.33, 265.17 295.5, 265.84 295.67, 266.51 295.83, 267.19 296.0, 267.88 296.17, 268.58 296.33, 269.29 296.5, 270.0 296.67, 270.72 296.83, 271.45 297.0, 272.19 297.17, 272.94 297.33, 273.69 297.5, 274.46 297.67, 275.23 297.83, 276.01 298.0, 276.8 298.17, 277.6 298.33, 278.41 298.5, 279.23 298.67, 280.05 298.83, 280.89 299.0, 281.73 299.17, 282.59 299.33, 283.45 299.5, 284.33 299.67, 285.21 299.83, 286.11 300.0, 287.02 300.17, 287.93 300.33, 288.86 300.5, 289.79 300.67, 290.74 300.83, 291.7 301.0, 292.67 301.17, 293.65 301.33, 294.64 301.5, 295.65 301.67, 296.66 301.83, 297.69 302.0, 298.73 302.17, 299.78 302.33, 300.84 302.5, 301.92 302.67, 303.01 302.83, 304.11 303.0, 305.22 303.17, 306.35 303.33, 307.48 303.5, 308.64 303.67, 309.8 303.83, 310.98 304.0, 312.17 304.17, 313.38 304.33, 314.6 304.5, 315.83 304.67, 317.08 304.83, 318.34 305.0, 319.62 305.17, 320.91 305.33, 322.22 305.5, 323.54 305.67, 324.87 305.83, 326.23 306.0, 327.59 306.17, 328.98 306.33, 330.37 306.5, 331.79 306.67, 333.22 306.83, 334.67 307.0, 336.13 307.17, 337.61 307.33, 339.11 307.5, 340.62 307.67, 342.15 307.83, 343.7 308.0, 345.27 308.17, 346.85 308.33, 348.45 308.5, 350.07 308.67, 351.71 308.83, 353.37 309.0, 355.04 309.17, 356.74 309.33, 358.45 309.5, 360.18 309.67, 361.93 309.83, 363.71 310.0, 365.5 310.17, 367.31 310.33, 369.14 310.5, 370.99 310.67, 372.87 310.83, 374.76 311.0, 376.67 311.17, 378.61 311.33, 380.57 311.5, 382.55 311.67, 384.55 311.83, 386.57 312.0, 388.62 312.17, 390.68 312.33, 392.77 312.5, 394.89 312.67, 397.03 312.83, 399.19 313.0, 401.37 313.17, 403.58 313.33, 405.81 313.5, 408.07 313.67, 410.35 313.83, 412.65 314.0, 414.98 314.17, 417.34 314.33, 419.72 314.5, 422.13 314.67, 424.56 314.83, 427.02 315.0, 429.51 315.17, 432.02 315.33, 434.56 315.5, 437.12 315.67, 439.72 315.83, 442.34 316.0, 444.99 316.17, 447.67 316.33, 450.37 316.5, 453.11 316.67, 455.87 316.83, 458.67 317.0, 461.49 317.17, 464.34 317.33, 467.22 317.5, 470.14 317.67, 473.08 317.83, 476.06 318.0, 479.06 318.17, 482.1 318.33, 485.17 318.5, 488.27 318.67, 491.4 318.83, 494.57 319.0, 497.76 319.17, 500.99 319.33, 504.26 319.5, 507.56 319.67, 510.89 319.83, 514.26 320.0, 517.66 320.17, 521.09 320.33, 524.56 320.5, 528.07 320.67, 531.61 320.83, 535.19 321.0, 538.8 321.17, 542.46 321.33, 546.14 321.5, 549.87 321.67, 553.63 321.83, 557.43 322.0, 561.27 322.17, 565.15 322.33, 569.07 322.5, 573.02 322.67, 577.02 322.83, 581.05 323.0, 585.13 323.17, 589.24 323.33, 593.4 323.5, 597.6 323.67, 601.84 323.83, 606.12 324.0, 610.44 324.17, 614.8 324.33, 619.21 324.5, 623.66 324.67, 628.16 324.83, 632.7 325.0, 637.28 325.17, 641.91 325.33, 646.58 325.5, 651.3 325.67, 656.06 325.83, 660.87 326.0, 665.73 326.17, 670.63 326.33, 675.58 326.5, 680.58 326.67, 685.62 326.83, 690.72 327.0, 695.86 327.17, 701.05 327.33, 706.29 327.5, 711.58 327.67, 716.92 327.83, 722.31 328.0, 727.75 328.17, 733.24 328.33, 738.79 328.5, 744.38 328.67, 750.03 328.83, 755.73 329.0, 761.49 329.17, 767.3 329.33, 773.16 329.5, 779.08 329.67, 785.05 329.83, 791.08 330.0, 797.16 330.17, 803.3 330.33, 809.49 330.5, 815.75 330.67, 822.06 330.83, 828.42 331.0, 834.85 331.17, 841.34 331.33, 847.88 331.5, 854.48 331.67, 861.15 331.83, 867.87 332.0, 874.65 332.17, 881.5 332.33, 888.41 332.5, 895.37 332.67, 902.41 332.83, 909.5 333.0, 916.66 333.17, 923.88 333.33, 931.17 333.5, 938.52 333.67, 945.94 333.83, 953.42 334.0, 960.97 334.17, 968.59 334.33, 976.27 334.5, 984.02 334.67, 991.84 334.83, 999.73 335.0, 1007.68 335.17, 1015.71 335.33, 1023.8 335.5, 1031.97 335.67, 1040.21 335.83, 1048.52 336.0, 1056.9 336.17, 1065.35 336.33, 1073.88 336.5, 1082.48 336.67, 1091.16 336.83, 1099.9 337.0, 1108.73 337.17, 1117.63 337.33, 1126.6 337.5, 1135.65 337.67, 1144.78 337.83, 1153.99 338.0, 1163.28 338.17, 1172.64 338.33, 1182.08 338.5, 1191.6 338.67, 1201.21 338.83, 1210.89 339.0, 1220.66 339.17, 1230.5 339.33, 1240.43 339.5, 1250.44 339.67, 1260.54 339.83, 1270.72 340.0, 1280.98 340.17, 1291.33 340.33, 1301.77 340.5, 1312.29 340.67, 1322.89 340.83, 1333.59 341.0, 1344.37 341.17, 1355.24 341.33, 1366.21 341.5, 1377.26 341.67, 1388.4 341.83, 1399.63 342.0, 1410.95 342.17, 1422.37 342.33, 1433.87 342.5, 1445.47 342.67, 1457.17 342.83, 1468.96 343.0, 1480.84 343.17, 1492.82 343.33, 1504.89 343.5, 1517.07 343.67, 1529.34 343.83, 1541.7 344.0, 1554.17 344.17, 1566.73 344.33, 1579.4 344.5, 1592.16 344.67, 1605.03 344.83, 1618.0 345.0, 1631.07 345.17, 1644.24 345.33, 1657.52 345.5, 1670.9 345.67, 1684.38 345.83, 1697.98 346.0, 1711.67 346.17, 1725.48 346.33, 1739.39 346.5, 1753.41 346.67, 1767.54 346.83, 1781.77 347.0, 1796.12 347.17, 1810.58 347.33, 1825.15 347.5, 1839.83 347.67, 1854.62 347.83, 1869.53 348.0, 1884.55 348.17, 1899.69 348.33, 1914.94 348.5, 1930.31 348.67, 1945.79 348.83, 1961.39 349.0, 1977.11 349.17, 1992.95 349.33, 2008.91 349.5, 2024.99 349.67, 2041.19 349.83, 2057.51 350.0, 2073.96 350.17, 2090.52 350.33, 2107.21 350.5, 2124.03 350.67, 2140.97 350.83, 2158.03 351.0, 2175.23 351.17, 2192.55 351.33, 2209.99 351.5, 2227.57 351.67, 2245.28 351.83, 2263.11 352.0, 2281.08 352.17, 2299.18 352.33, 2317.41 352.5, 2335.78 352.67, 2354.28 352.83, 2372.91 353.0, 2391.68 353.17, 2410.59 353.33, 2429.63 353.5, 2448.81 353.67, 2468.13 353.83, 2487.59 354.0, 2507.19 354.17, 2526.93 354.33, 2546.81 354.5, 2566.83 354.67, 2587.0 354.83, 2607.31 355.0, 2627.77 355.17, 2648.37 355.33, 2669.12 355.5, 2690.01 355.67, 2711.06 355.83, 2732.25 356.0, 2753.59 356.17, 2775.08 356.33, 2796.72 356.5, 2818.52 356.67, 2840.47 356.83, 2862.57 357.0, 2884.83 357.17, 2907.24 357.33, 2929.81 357.5, 2952.53 357.67, 2975.42 357.83, 2998.46 358.0, 3021.66 358.17, 3045.02 358.33, 3068.54 358.5, 3092.23 358.67, 3116.08 358.83, 3140.09 359.0, 3164.26 359.17, 3188.61 359.33, 3213.11 359.5, 3237.79 359.67, 3262.63 359.83, 3287.64 360.0, 3312.83 360.17, 3338.18 360.33, 3363.7 360.5, 3389.4 360.67, 3415.27 360.83, 3441.32 361.0, 3467.54 361.17, 3493.93 361.33, 3520.5 361.5, 3547.26 361.67, 3574.18 361.83, 3601.29 362.0, 3628.58 362.17, 3656.05 362.33, 3683.71 362.5, 3711.54 362.67, 3739.56 362.83, 3767.77 363.0, 3796.16 363.17, 3824.74 363.33, 3853.51 363.5, 3882.47 363.67, 3911.61 363.83, 3940.95 364.0, 3970.48 364.17, 4000.2 364.33, 4030.11 364.5, 4060.22 364.67, 4090.52 364.83, 4121.03 365.0, 4151.72 365.17, 4182.62 365.33, 4213.72 365.5, 4245.01 365.67, 4276.51 365.83, 4308.21 366.0, 4340.11 366.17, 4372.22 366.33, 4404.53 366.5, 4437.05 366.67, 4469.78 366.83, 4502.71 367.0, 4535.85 367.17, 4569.21 367.33, 4602.77 367.5, 4636.55 367.67, 4670.54 367.83, 4704.74 368.0, 4739.16 368.17, 4773.8 368.33, 4808.65 368.5, 4843.72 368.67, 4879.01 368.83, 4914.52 369.0, 4950.25 369.17, 4986.21 369.33, 5022.38 369.5, 5058.79 369.67, 5095.41 369.83, 5132.27 370.0, 5169.35 370.17, 5206.66 370.33, 5244.2 370.5, 5281.97 370.67, 5319.97 370.83, 5358.2 371.0, 5396.67 371.17, 5435.38 371.33, 5474.32 371.5, 5513.49 371.67, 5552.91 371.83, 5592.56 372.0, 5632.46 372.17, 5672.59 372.33, 5712.97 372.5, 5753.59 372.67, 5794.46 372.83, 5835.57 373.0, 5876.93 373.17, 5918.54 373.33, 5960.39 373.5, 6002.5 373.67, 6044.86 373.83, 6087.47 374.0, 6130.33 374.17, 6173.45 374.33, 6216.82 374.5, 6260.45 374.67, 6304.34 374.83, 6348.49 375.0, 6392.9 375.17, 6437.57 375.33, 6482.5 375.5, 6527.69 375.67, 6573.15 375.83, 6618.88 376.0, 6664.87 376.17, 6711.13 376.33, 6757.67 376.5, 6804.47 376.67, 6851.54 376.83, 6898.88 377.0, 6946.5 377.17, 6994.4 377.33, 7042.57 377.5, 7091.02 377.67, 7139.74 377.83, 7188.75 378.0, 7238.04 378.17, 7287.61 378.33, 7337.46 378.5, 7387.6 378.67, 7438.02 378.83, 7488.73 379.0, 7539.73 379.17, 7591.02 379.33, 7642.6 379.5, 7694.47 379.67, 7746.63 379.83, 7799.09 380.0, 7851.84 380.17, 7904.89 380.33, 7958.24 380.5, 8011.88 380.67, 8065.83 380.83, 8120.08 381.0, 8174.63 381.17, 8229.48 381.33, 8284.64 381.5, 8340.1 381.67, 8395.88 381.83, 8451.96 382.0, 8508.35 382.17, 8565.05 382.33, 8622.07 382.5, 8679.39 382.67, 8737.04 382.83, 8795.0 383.0, 8853.28 383.17, 8911.87 383.33, 8970.79 383.5, 9030.03 383.67, 9089.59 383.83, 9149.47 384.0, 9209.68 384.17, 9270.21 384.33, 9331.08 384.5, 9392.27 384.67, 9453.79 384.83, 9515.64 385.0, 9577.83 385.17, 9640.35 385.33, 9703.21 385.5, 9766.4 385.67, 9829.93 385.83, 9893.8 386.0, 9958.01 386.17, 10022.56 386.33, 10087.45 386.5, 10152.69 386.67, 10218.27 386.83, 10284.2 387.0, 10350.48 387.17, 10417.11 387.33, 10484.09 387.5, 10551.42 387.67, 10619.11 387.83, 10687.15 388.0, 10755.55 388.17, 10824.3 388.33, 10893.41 388.5, 10962.89 388.67, 11032.72 388.83, 11102.92 389.0, 11173.48 389.17, 11244.41 389.33, 11315.7 389.5, 11387.36 389.67, 11459.39 389.83, 11531.8 390.0, 11604.57 390.17, 11677.72 390.33, 11751.24 390.5, 11825.14 390.67, 11899.42 390.83, 11974.07 391.0, 12049.11 391.17, 12124.53 391.33, 12200.33 391.5, 12276.51 391.67, 12353.08 391.83, 12430.04 392.0, 12507.39 392.17, 12585.12 392.33, 12663.25 392.5, 12741.77 392.67, 12820.68 392.83, 12899.99 393.0, 12979.7 393.17, 13059.8 393.33, 13140.31 393.5, 13221.21 393.67, 13302.52 393.83, 13384.23 394.0, 13466.35 394.17, 13548.87 394.33, 13631.8 394.5, 13715.14 394.67, 13798.89 394.83, 13883.05 395.0, 13967.62 395.17, 14052.61 395.33, 14138.02 395.5, 14223.84 395.67, 14310.09 395.83, 14396.75 396.0, 14483.84 396.17, 14571.35 396.33, 14659.28 396.5, 14747.64 396.67, 14836.43 396.83, 14925.64 397.0, 15015.29 397.17, 15105.37 397.33, 15195.88 397.5, 15286.83 397.67, 15378.21 397.83, 15470.03 398.0, 15562.29 398.17, 15654.98 398.33, 15748.13 398.5, 15841.71 398.67, 15935.74 398.83, 16030.21 399.0, 16125.13 399.17, 16220.51 399.33, 16316.33 399.5, 16412.6 399.67, 16509.33 399.83, 16606.51 400.0, 16704.14 " fill="none" stroke="white" stroke-width="1.5" stroke-linejoin="round" stroke-opacity="1"/>

 </svg>