<svg version="1.1" 
 baseProfile="full" 
 width="400" 
 height="400" 
 xmlns="http://www.w3.org/2000/svg">
<rect x="0.0" y="0.0" width="400" height="400" fill="black" stroke="black" stroke-width="0" opacity="1"/>
<line x1="0.0" y1="0.0" x2="0.0" y2="400.0" stroke="white" stroke-width="1" opacity="0.4" stroke-linecap="butt"/>
<line x1="40.0" y1="0.0" x2="40.0" y2="400.0" stroke="white" stroke-width="1" opacity="0.4" stroke-linecap="butt"/>
<line x1="80.0" y1="0.0" x2="80.0" y2="400.0" stroke="white" stroke-width="1" opacity="0.4" stroke-linecap="butt"/>
<line x1="120.0" y1="0.0" x2="120.0" y2="400.0" stroke="white" stroke-width="1" opacity="0.4" stroke-linecap="butt"/>
<line x1="160.0" y1="0.0" x2="160.0" y2="400.0" stroke="white" stroke-width="1" opacity="0.4" stroke-linecap="butt"/>
<line x1="200.0" y1="0.0" x2="200.0" y2="400.0" stroke="white" stroke-width="1" opacity="0.4" stroke-linecap="butt"/>
<line x1="240.0" y1="0.0" x2="240.0" y2="400.0" stroke="white" stroke-width="1" opacity="0.4" stroke-linecap="butt"/>
<line x1="280.0" y1="0.0" x2="280.0" y2="400.0" stroke="white" stroke-width="1" opacity="0.4" stroke-linecap="butt"/>
<line x1="320.0" y1="0.0" x2="320.0" y2="400.0" stroke="white" stroke-width="1" opacity="0.4" stroke-linecap="butt"/>
<line x1="360.0" y1="0.0" x2="360.0" y2="400.0" stroke="white" stroke-width="1" opacity="0.4" stroke-linecap="butt"/>
<line x1="0.0" y1="0.0" x2="400.0" y2="0.0" stroke="white" stroke-width="1" opacity="0.4" stroke-linecap="butt"/>
<line x1="0.0" y1="40.0" x2="400.0" y2="40.0" stroke="white" stroke-width="1" opacity="0.4" stroke-linecap="butt"/>
<line x1="0.0" y1="80.0" x2="400.0" y2="80.0" stroke="white" stroke-width="1" opacity="0.4" stroke-linecap="butt"/>
<line x1="0.0" y1="120.0" x2="400.0" y2="120.0" stroke="white" stroke-width="1" opacity="0.4" stroke-linecap="butt"/>
<line x1="0.0" y1="160.0" x2="400.0" y2="160.0" stroke="white" stroke-width="1" opacity="0.4" stroke-linecap="butt"/>
<line x1="0.0" y1="200.0" x2="400.0" y2="200.0" stroke="white" stroke-width="1" opacity="0.4" stroke-linecap="butt"/>
<line x1="0.0" y1="240.0" x2="400.0" y2="240.0" stroke="white" stroke-width="1" opacity="0.4" stroke-linecap="butt"/>
<line x1="0.0" y1="280.0" x2="400.0" y2="280.0" stroke="white" stroke-width="1" opacity="0.4" stroke-linecap="butt"/>
<line x1="0.0" y1="320.0" x2="400.0" y2="320.0" stroke="white" stroke-width="1" opacity="0.4" stroke-linecap="butt"/>
<line x1="0.0" y1="360.0" x2="400.0" y2="360.0" stroke="white" stroke-width="1" opacity="0.4" stroke-linecap="butt"/>
<line x1="0.0" y1="200.0" x2="400.0" y2="200.0" stroke="yellow" stroke-width="2.5" opacity="1" stroke-linecap="butt"/>
<line x1="200.0" y1="0.0" x2="200.0" y2="400.0" stroke="yellow" stroke-width="2.5" opacity="1" stroke-linecap="butt"/>
<polygon points="391.0 204.0, 401.0 200.0, 391.0 196.0, 393.0 200.0" fill="yellow"/><polygon points="204.0 9.0, 200.0 -1.0, 196.0 9.0, 200.0 7.0" fill="yellow"/><image x="-60.0" y="-60.0" width="200" height="200" href="/Users/girirajhira/PycharmProjects/Giraphics3/Taylor/expr.png"/><polyline points="0.0, -16993.08 0.17, -16890.29 0.33, -16787.99 0.5, -16686.19 0.67, -16584.87 0.83, -16484.03 1.0, -16383.68 1.17, -16283.81 1.33, -16184.42 1.5, -16085.51 1.67, -15987.08 1.83, -15889.12 2.0, -15791.64 2.17, -15694.63 2.33, -15598.09 2.5, -15502.02 2.67, -15406.41 2.83, -15311.28 3.0, -15216.61 3.17, -15122.4 3.33, -15028.65 3.5, -14935.36 3.67, -14842.53 3.83, -14750.15 4.0, -14658.23 4.17, -14566.77 4.33, -14475.75 4.5, -14385.19 4.67, -14295.07 4.83, -14205.4 5.0, -14116.18 5.17, -14027.4 5.33, -13939.06 5.5, -13851.16 5.67, -13763.7 5.83, -13676.68 6.0, -13590.09 6.17, -13503.94 6.33, -13418.22 6.5, -13332.94 6.67, -13248.08 6.83, -13163.65 7.0, -13079.65 7.17, -12996.07 7.33, -12912.91 7.5, -12830.18 7.67, -12747.87 7.83, -12665.97 8.0, -12584.5 8.17, -12503.43 8.33, -12422.79 8.5, -12342.55 8.67, -12262.73 8.83, -12183.32 9.0, -12104.31 9.17, -12025.72 9.33, -11947.52 9.5, -11869.73 9.67, -11792.35 9.83, -11715.36 10.0, -11638.77 10.17, -11562.58 10.33, -11486.79 10.5, -11411.39 10.67, -11336.38 10.83, -11261.77 11.0, -11187.54 11.17, -11113.7 11.33, -11040.26 11.5, -10967.19 11.67, -10894.51 11.83, -10822.22 12.0, -10750.3 12.17, -10678.77 12.33, -10607.61 12.5, -10536.83 12.67, -10466.43 12.83, -10396.4 13.0, -10326.74 13.17, -10257.45 13.33, -10188.53 13.5, -10119.99 13.67, -10051.8 13.83, -9983.99 14.0, -9916.53 14.17, -9849.44 14.33, -9782.71 14.5, -9716.34 14.67, -9650.33 14.83, -9584.68 15.0, -9519.38 15.17, -9454.43 15.33, -9389.84 15.5, -9325.6 15.67, -9261.71 15.83, -9198.16 16.0, -9134.97 16.17, -9072.12 16.33, -9009.61 16.5, -8947.44 16.67, -8885.62 16.83, -8824.14 17.0, -8762.99 17.17, -8702.19 17.33, -8641.72 17.5, -8581.58 17.67, -8521.78 17.83, -8462.3 18.0, -8403.16 18.17, -8344.35 18.33, -8285.87 18.5, -8227.71 18.67, -8169.87 18.83, -8112.37 19.0, -8055.18 19.17, -7998.31 19.33, -7941.76 19.5, -7885.54 19.67, -7829.63 19.83, -7774.03 20.0, -7718.75 20.17, -7663.78 20.33, -7609.12 20.5, -7554.78 20.67, -7500.74 20.83, -7447.01 21.0, -7393.59 21.17, -7340.47 21.33, -7287.65 21.5, -7235.14 21.67, -7182.93 21.83, -7131.02 22.0, -7079.41 22.17, -7028.1 22.33, -6977.08 22.5, -6926.36 22.67, -6875.93 22.83, -6825.79 23.0, -6775.94 23.17, -6726.39 23.33, -6677.12 23.5, -6628.14 23.67, -6579.44 23.83, -6531.03 24.0, -6482.91 24.17, -6435.06 24.33, -6387.5 24.5, -6340.22 24.67, -6293.21 24.83, -6246.48 25.0, -6200.03 25.17, -6153.85 25.33, -6107.95 25.5, -6062.32 25.67, -6016.96 25.83, -5971.87 26.0, -5927.05 26.17, -5882.5 26.33, -5838.21 26.5, -5794.19 26.67, -5750.44 26.83, -5706.94 27.0, -5663.71 27.17, -5620.74 27.33, -5578.02 27.5, -5535.57 27.67, -5493.37 27.83, -5451.43 28.0, -5409.74 28.17, -5368.3 28.33, -5327.12 28.5, -5286.19 28.67, -5245.51 28.83, -5205.08 29.0, -5164.89 29.17, -5124.95 29.33, -5085.26 29.5, -5045.81 29.67, -5006.6 29.83, -4967.64 30.0, -4928.92 30.17, -4890.43 30.33, -4852.19 30.5, -4814.18 30.67, -4776.41 30.83, -4738.87 31.0, -4701.57 31.17, -4664.5 31.33, -4627.66 31.5, -4591.06 31.67, -4554.68 31.83, -4518.53 32.0, -4482.61 32.17, -4446.91 32.33, -4411.44 32.5, -4376.2 32.67, -4341.18 32.83, -4306.38 33.0, -4271.8 33.17, -4237.44 33.33, -4203.3 33.5, -4169.37 33.67, -4135.67 33.83, -4102.18 34.0, -4068.9 34.17, -4035.84 34.33, -4002.99 34.5, -3970.35 34.67, -3937.92 34.83, -3905.71 35.0, -3873.7 35.17, -3841.89 35.33, -3810.3 35.5, -3778.91 35.67, -3747.72 35.83, -3716.74 36.0, -3685.95 36.17, -3655.37 36.33, -3624.99 36.5, -3594.81 36.67, -3564.83 36.83, -3535.05 37.0, -3505.46 37.17, -3476.06 37.33, -3446.86 37.5, -3417.86 37.67, -3389.04 37.83, -3360.42 38.0, -3331.99 38.17, -3303.74 38.33, -3275.69 38.5, -3247.82 38.67, -3220.14 38.83, -3192.65 39.0, -3165.34 39.17, -3138.21 39.33, -3111.26 39.5, -3084.5 39.67, -3057.92 39.83, -3031.52 40.0, -3005.29 40.17, -2979.25 40.33, -2953.38 40.5, -2927.69 40.67, -2902.17 40.83, -2876.83 41.0, -2851.66 41.17, -2826.66 41.33, -2801.83 41.5, -2777.18 41.67, -2752.69 41.83, -2728.38 42.0, -2704.23 42.17, -2680.25 42.33, -2656.43 42.5, -2632.78 42.67, -2609.29 42.83, -2585.97 43.0, -2562.81 43.17, -2539.81 43.33, -2516.97 43.5, -2494.3 43.67, -2471.78 43.83, -2449.42 44.0, -2427.21 44.17, -2405.17 44.33, -2383.28 44.5, -2361.54 44.67, -2339.96 44.83, -2318.53 45.0, -2297.25 45.17, -2276.13 45.33, -2255.15 45.5, -2234.33 45.67, -2213.65 45.83, -2193.12 46.0, -2172.74 46.17, -2152.51 46.33, -2132.42 46.5, -2112.47 46.67, -2092.67 46.83, -2073.02 47.0, -2053.5 47.17, -2034.13 47.33, -2014.9 47.5, -1995.8 47.67, -1976.85 47.83, -1958.04 48.0, -1939.36 48.17, -1920.82 48.33, -1902.41 48.5, -1884.14 48.67, -1866.01 48.83, -1848.01 49.0, -1830.14 49.17, -1812.41 49.33, -1794.8 49.5, -1777.33 49.67, -1759.98 49.83, -1742.77 50.0, -1725.68 50.17, -1708.72 50.33, -1691.89 50.5, -1675.19 50.67, -1658.61 50.83, -1642.15 51.0, -1625.82 51.17, -1609.61 51.33, -1593.53 51.5, -1577.56 51.67, -1561.72 51.83, -1546.0 52.0, -1530.39 52.17, -1514.91 52.33, -1499.54 52.5, -1484.3 52.67, -1469.16 52.83, -1454.15 53.0, -1439.25 53.17, -1424.46 53.33, -1409.79 53.5, -1395.23 53.67, -1380.79 53.83, -1366.45 54.0, -1352.23 54.17, -1338.12 54.33, -1324.12 54.5, -1310.22 54.67, -1296.44 54.83, -1282.76 55.0, -1269.19 55.17, -1255.73 55.33, -1242.37 55.5, -1229.12 55.67, -1215.98 55.83, -1202.93 56.0, -1189.99 56.17, -1177.15 56.33, -1164.42 56.5, -1151.79 56.67, -1139.25 56.83, -1126.82 57.0, -1114.49 57.17, -1102.25 57.33, -1090.11 57.5, -1078.08 57.67, -1066.13 57.83, -1054.29 58.0, -1042.54 58.17, -1030.88 58.33, -1019.32 58.5, -1007.86 58.67, -996.48 58.83, -985.2 59.0, -974.01 59.17, -962.92 59.33, -951.91 59.5, -940.99 59.67, -930.17 59.83, -919.43 60.0, -908.78 60.17, -898.22 60.33, -887.75 60.5, -877.36 60.67, -867.06 60.83, -856.85 61.0, -846.72 61.17, -836.67 61.33, -826.71 61.5, -816.84 61.67, -807.04 61.83, -797.33 62.0, -787.7 62.17, -778.15 62.33, -768.68 62.5, -759.29 62.67, -749.99 62.83, -740.76 63.0, -731.6 63.17, -722.53 63.33, -713.54 63.5, -704.62 63.67, -695.77 63.83, -687.01 64.0, -678.32 64.17, -669.7 64.33, -661.16 64.5, -652.69 64.67, -644.3 64.83, -635.97 65.0, -627.72 65.17, -619.55 65.33, -611.44 65.5, -603.4 65.67, -595.44 65.83, -587.54 66.0, -579.71 66.17, -571.96 66.33, -564.27 66.5, -556.64 66.67, -549.09 66.83, -541.6 67.0, -534.18 67.17, -526.83 67.33, -519.54 67.5, -512.31 67.67, -505.15 67.83, -498.06 68.0, -491.02 68.17, -484.05 68.33, -477.15 68.5, -470.3 68.67, -463.52 68.83, -456.8 69.0, -450.14 69.17, -443.54 69.33, -437.0 69.5, -430.52 69.67, -424.1 69.83, -417.73 70.0, -411.43 70.17, -405.18 70.33, -398.99 70.5, -392.86 70.67, -386.78 70.83, -380.76 71.0, -374.8 71.17, -368.89 71.33, -363.04 71.5, -357.24 71.67, -351.49 71.83, -345.8 72.0, -340.16 72.17, -334.57 72.33, -329.04 72.5, -323.56 72.67, -318.13 72.83, -312.75 73.0, -307.42 73.17, -302.14 73.33, -296.92 73.5, -291.74 73.67, -286.61 73.83, -281.53 74.0, -276.5 74.17, -271.51 74.33, -266.58 74.5, -261.69 74.67, -256.85 74.83, -252.05 75.0, -247.31 75.17, -242.6 75.33, -237.95 75.5, -233.33 75.67, -228.77 75.83, -224.24 76.0, -219.76 76.17, -215.33 76.33, -210.94 76.5, -206.59 76.67, -202.28 76.83, -198.02 77.0, -193.8 77.17, -189.62 77.33, -185.48 77.5, -181.38 77.67, -177.32 77.83, -173.31 78.0, -169.33 78.17, -165.39 78.33, -161.49 78.5, -157.63 78.67, -153.81 78.83, -150.03 79.0, -146.29 79.17, -142.58 79.33, -138.91 79.5, -135.28 79.67, -131.68 79.83, -128.12 80.0, -124.6 80.17, -121.11 80.33, -117.66 80.5, -114.24 80.67, -110.86 80.83, -107.52 81.0, -104.2 81.17, -100.92 81.33, -97.68 81.5, -94.47 81.67, -91.29 81.83, -88.14 82.0, -85.03 82.17, -81.95 82.33, -78.9 82.5, -75.88 82.67, -72.9 82.83, -69.94 83.0, -67.02 83.17, -64.12 83.33, -61.26 83.5, -58.43 83.67, -55.62 83.83, -52.85 84.0, -50.11 84.17, -47.39 84.33, -44.7 84.5, -42.05 84.67, -39.42 84.83, -36.81 85.0, -34.24 85.17, -31.69 85.33, -29.17 85.5, -26.68 85.67, -24.21 85.83, -21.77 86.0, -19.36 86.17, -16.97 86.33, -14.61 86.5, -12.27 86.67, -9.96 86.83, -7.67 87.0, -5.41 87.17, -3.17 87.33, -0.96 87.5, 1.23 87.67, 3.39 87.83, 5.53 88.0, 7.65 88.17, 9.75 88.33, 11.82 88.5, 13.87 88.67, 15.9 88.83, 17.9 89.0, 19.88 89.17, 21.84 89.33, 23.78 89.5, 25.7 89.67, 27.6 89.83, 29.47 90.0, 31.33 90.17, 33.16 90.33, 34.98 90.5, 36.77 90.67, 38.55 90.83, 40.3 91.0, 42.03 91.17, 43.75 91.33, 45.45 91.5, 47.12 91.67, 48.78 91.83, 50.42 92.0, 52.04 92.17, 53.65 92.33, 55.23 92.5, 56.8 92.67, 58.35 92.83, 59.88 93.0, 61.4 93.17, 62.89 93.33, 64.38 93.5, 65.84 93.67, 67.29 93.83, 68.72 94.0, 70.13 94.17, 71.53 94.33, 72.92 94.5, 74.28 94.67, 75.64 94.83, 76.97 95.0, 78.29 95.17, 79.6 95.33, 80.89 95.5, 82.17 95.67, 83.43 95.83, 84.68 96.0, 85.91 96.17, 87.13 96.33, 88.34 96.5, 89.53 96.67, 90.71 96.83, 91.87 97.0, 93.02 97.17, 94.16 97.33, 95.29 97.5, 96.4 97.67, 97.5 97.83, 98.59 98.0, 99.66 98.17, 100.72 98.33, 101.77 98.5, 102.81 98.67, 103.84 98.83, 104.85 99.0, 105.86 99.17, 106.85 99.33, 107.83 99.5, 108.8 99.67, 109.76 99.83, 110.7 100.0, 111.64 100.17, 112.56 100.33, 113.48 100.5, 114.38 100.67, 115.28 100.83, 116.16 101.0, 117.04 101.17, 117.9 101.33, 118.76 101.5, 119.6 101.67, 120.44 101.83, 121.26 102.0, 122.08 102.17, 122.88 102.33, 123.68 102.5, 124.47 102.67, 125.25 102.83, 126.02 103.0, 126.78 103.17, 127.54 103.33, 128.28 103.5, 129.02 103.67, 129.75 103.83, 130.47 104.0, 131.18 104.17, 131.89 104.33, 132.59 104.5, 133.27 104.67, 133.96 104.83, 134.63 105.0, 135.3 105.17, 135.96 105.33, 136.61 105.5, 137.25 105.67, 137.89 105.83, 138.52 106.0, 139.15 106.17, 139.76 106.33, 140.38 106.5, 140.98 106.67, 141.58 106.83, 142.17 107.0, 142.75 107.17, 143.33 107.33, 143.9 107.5, 144.47 107.67, 145.03 107.83, 145.59 108.0, 146.13 108.17, 146.68 108.33, 147.21 108.5, 147.75 108.67, 148.27 108.83, 148.79 109.0, 149.31 109.17, 149.82 109.33, 150.32 109.5, 150.82 109.67, 151.32 109.83, 151.81 110.0, 152.29 110.17, 152.77 110.33, 153.25 110.5, 153.72 110.67, 154.18 110.83, 154.65 111.0, 155.1 111.17, 155.55 111.33, 156.0 111.5, 156.45 111.67, 156.89 111.83, 157.32 112.0, 157.75 112.17, 158.18 112.33, 158.6 112.5, 159.02 112.67, 159.44 112.83, 159.85 113.0, 160.26 113.17, 160.66 113.33, 161.06 113.5, 161.46 113.67, 161.85 113.83, 162.24 114.0, 162.63 114.17, 163.01 114.33, 163.39 114.5, 163.77 114.67, 164.14 114.83, 164.51 115.0, 164.88 115.17, 165.24 115.33, 165.6 115.5, 165.96 115.67, 166.32 115.83, 166.67 116.0, 167.02 116.17, 167.36 116.33, 167.71 116.5, 168.05 116.67, 168.39 116.83, 168.72 117.0, 169.06 117.17, 169.39 117.33, 169.72 117.5, 170.04 117.67, 170.37 117.83, 170.69 118.0, 171.01 118.17, 171.32 118.33, 171.64 118.5, 171.95 118.67, 172.26 118.83, 172.57 119.0, 172.87 119.17, 173.18 119.33, 173.48 119.5, 173.78 119.67, 174.08 119.83, 174.37 120.0, 174.67 120.17, 174.96 120.33, 175.25 120.5, 175.54 120.67, 175.82 120.83, 176.11 121.0, 176.39 121.17, 176.67 121.33, 176.95 121.5, 177.23 121.67, 177.51 121.83, 177.78 122.0, 178.06 122.17, 178.33 122.33, 178.6 122.5, 178.87 122.67, 179.14 122.83, 179.4 123.0, 179.67 123.17, 179.93 123.33, 180.19 123.5, 180.45 123.67, 180.71 123.83, 180.97 124.0, 181.23 124.17, 181.48 124.33, 181.74 124.5, 181.99 124.67, 182.24 124.83, 182.5 125.0, 182.75 125.17, 182.99 125.33, 183.24 125.5, 183.49 125.67, 183.73 125.83, 183.98 126.0, 184.22 126.17, 184.46 126.33, 184.71 126.5, 184.95 126.67, 185.19 126.83, 185.43 127.0, 185.66 127.17, 185.9 127.33, 186.14 127.5, 186.37 127.67, 186.6 127.83, 186.84 128.0, 187.07 128.17, 187.3 128.33, 187.53 128.5, 187.76 128.67, 187.99 128.83, 188.22 129.0, 188.45 129.17, 188.67 129.33, 188.9 129.5, 189.12 129.67, 189.35 129.83, 189.57 130.0, 189.79 130.17, 190.02 130.33, 190.24 130.5, 190.46 130.67, 190.68 130.83, 190.9 131.0, 191.12 131.17, 191.33 131.33, 191.55 131.5, 191.77 131.67, 191.98 131.83, 192.2 132.0, 192.41 132.17, 192.63 132.33, 192.84 132.5, 193.05 132.67, 193.27 132.83, 193.48 133.0, 193.69 133.17, 193.9 133.33, 194.11 133.5, 194.32 133.67, 194.52 133.83, 194.73 134.0, 194.94 134.17, 195.15 134.33, 195.35 134.5, 195.56 134.67, 195.76 134.83, 195.97 135.0, 196.17 135.17, 196.37 135.33, 196.57 135.5, 196.78 135.67, 196.98 135.83, 197.18 136.0, 197.38 136.17, 197.58 136.33, 197.78 136.5, 197.97 136.67, 198.17 136.83, 198.37 137.0, 198.57 137.17, 198.76 137.33, 198.96 137.5, 199.15 137.67, 199.34 137.83, 199.54 138.0, 199.73 138.17, 199.92 138.33, 200.11 138.5, 200.31 138.67, 200.5 138.83, 200.69 139.0, 200.88 139.17, 201.06 139.33, 201.25 139.5, 201.44 139.67, 201.63 139.83, 201.81 140.0, 202.0 140.17, 202.18 140.33, 202.37 140.5, 202.55 140.67, 202.73 140.83, 202.92 141.0, 203.1 141.17, 203.28 141.33, 203.46 141.5, 203.64 141.67, 203.82 141.83, 204.0 142.0, 204.17 142.17, 204.35 142.33, 204.53 142.5, 204.7 142.67, 204.88 142.83, 205.05 143.0, 205.22 143.17, 205.4 143.33, 205.57 143.5, 205.74 143.67, 205.91 143.83, 206.08 144.0, 206.25 144.17, 206.42 144.33, 206.59 144.5, 206.75 144.67, 206.92 144.83, 207.09 145.0, 207.25 145.17, 207.41 145.33, 207.58 145.5, 207.74 145.67, 207.9 145.83, 208.06 146.0, 208.22 146.17, 208.38 146.33, 208.54 146.5, 208.7 146.67, 208.85 146.83, 209.01 147.0, 209.16 147.17, 209.32 147.33, 209.47 147.5, 209.62 147.67, 209.78 147.83, 209.93 148.0, 210.08 148.17, 210.23 148.33, 210.37 148.5, 210.52 148.67, 210.67 148.83, 210.81 149.0, 210.96 149.17, 211.1 149.33, 211.24 149.5, 211.39 149.67, 211.53 149.83, 211.67 150.0, 211.8 150.17, 211.94 150.33, 212.08 150.5, 212.22 150.67, 212.35 150.83, 212.48 151.0, 212.62 151.17, 212.75 151.33, 212.88 151.5, 213.01 151.67, 213.14 151.83, 213.27 152.0, 213.39 152.17, 213.52 152.33, 213.65 152.5, 213.77 152.67, 213.89 152.83, 214.01 153.0, 214.13 153.17, 214.25 153.33, 214.37 153.5, 214.49 153.67, 214.61 153.83, 214.72 154.0, 214.84 154.17, 214.95 154.33, 215.06 154.5, 215.17 154.67, 215.28 154.83, 215.39 155.0, 215.5 155.17, 215.6 155.33, 215.71 155.5, 215.81 155.67, 215.91 155.83, 216.02 156.0, 216.12 156.17, 216.22 156.33, 216.31 156.5, 216.41 156.67, 216.51 156.83, 216.6 157.0, 216.69 157.17, 216.79 157.33, 216.88 157.5, 216.97 157.67, 217.06 157.83, 217.14 158.0, 217.23 158.17, 217.31 158.33, 217.4 158.5, 217.48 158.67, 217.56 158.83, 217.64 159.0, 217.72 159.17, 217.8 159.33, 217.87 159.5, 217.95 159.67, 218.02 159.83, 218.09 160.0, 218.16 160.17, 218.23 160.33, 218.3 160.5, 218.37 160.67, 218.43 160.83, 218.5 161.0, 218.56 161.17, 218.62 161.33, 218.68 161.5, 218.74 161.67, 218.8 161.83, 218.86 162.0, 218.91 162.17, 218.97 162.33, 219.02 162.5, 219.07 162.67, 219.12 162.83, 219.17 163.0, 219.21 163.17, 219.26 163.33, 219.3 163.5, 219.35 163.67, 219.39 163.83, 219.43 164.0, 219.47 164.17, 219.51 164.33, 219.54 164.5, 219.58 164.67, 219.61 164.83, 219.64 165.0, 219.67 165.17, 219.7 165.33, 219.73 165.5, 219.76 165.67, 219.78 165.83, 219.81 166.0, 219.83 166.17, 219.85 166.33, 219.87 166.5, 219.89 166.67, 219.9 166.83, 219.92 167.0, 219.93 167.17, 219.95 167.33, 219.96 167.5, 219.97 167.67, 219.98 167.83, 219.98 168.0, 219.99 168.17, 219.99 168.33, 220.0 168.5, 220.0 168.67, 220.0 168.83, 220.0 169.0, 219.99 169.17, 219.99 169.33, 219.98 169.5, 219.98 169.67, 219.97 169.83, 219.96 170.0, 219.95 170.17, 219.94 170.33, 219.92 170.5, 219.91 170.67, 219.89 170.83, 219.87 171.0, 219.85 171.17, 219.83 171.33, 219.81 171.5, 219.79 171.67, 219.76 171.83, 219.74 172.0, 219.71 172.17, 219.68 172.33, 219.65 172.5, 219.62 172.67, 219.58 172.83, 219.55 173.0, 219.51 173.17, 219.48 173.33, 219.44 173.5, 219.4 173.67, 219.36 173.83, 219.31 174.0, 219.27 174.17, 219.23 174.33, 219.18 174.5, 219.13 174.67, 219.08 174.83, 219.03 175.0, 218.98 175.17, 218.93 175.33, 218.87 175.5, 218.82 175.67, 218.76 175.83, 218.7 176.0, 218.64 176.17, 218.58 176.33, 218.52 176.5, 218.45 176.67, 218.39 176.83, 218.32 177.0, 218.26 177.17, 218.19 177.33, 218.12 177.5, 218.05 177.67, 217.97 177.83, 217.9 178.0, 217.82 178.17, 217.75 178.33, 217.67 178.5, 217.59 178.67, 217.51 178.83, 217.43 179.0, 217.35 179.17, 217.26 179.33, 217.18 179.5, 217.09 179.67, 217.01 179.83, 216.92 180.0, 216.83 180.17, 216.74 180.33, 216.65 180.5, 216.55 180.67, 216.46 180.83, 216.36 181.0, 216.27 181.17, 216.17 181.33, 216.07 181.5, 215.97 181.67, 215.87 181.83, 215.77 182.0, 215.67 182.17, 215.56 182.33, 215.46 182.5, 215.35 182.67, 215.24 182.83, 215.14 183.0, 215.03 183.17, 214.92 183.33, 214.8 183.5, 214.69 183.67, 214.58 183.83, 214.46 184.0, 214.35 184.17, 214.23 184.33, 214.11 184.5, 213.99 184.67, 213.87 184.83, 213.75 185.0, 213.63 185.17, 213.51 185.33, 213.39 185.5, 213.26 185.67, 213.14 185.83, 213.01 186.0, 212.88 186.17, 212.76 186.33, 212.63 186.5, 212.5 186.67, 212.37 186.83, 212.24 187.0, 212.1 187.17, 211.97 187.33, 211.84 187.5, 211.7 187.67, 211.57 187.83, 211.43 188.0, 211.29 188.17, 211.15 188.33, 211.02 188.5, 210.88 188.67, 210.74 188.83, 210.6 189.0, 210.45 189.17, 210.31 189.33, 210.17 189.5, 210.02 189.67, 209.88 189.83, 209.73 190.0, 209.59 190.17, 209.44 190.33, 209.29 190.5, 209.15 190.67, 209.0 190.83, 208.85 191.0, 208.7 191.17, 208.55 191.33, 208.4 191.5, 208.25 191.67, 208.09 191.83, 207.94 192.0, 207.79 192.17, 207.63 192.33, 207.48 192.5, 207.33 192.67, 207.17 192.83, 207.01 193.0, 206.86 193.17, 206.7 193.33, 206.54 193.5, 206.39 193.67, 206.23 193.83, 206.07 194.0, 205.91 194.17, 205.75 194.33, 205.59 194.5, 205.43 194.67, 205.27 194.83, 205.11 195.0, 204.95 195.17, 204.79 195.33, 204.62 195.5, 204.46 195.67, 204.3 195.83, 204.14 196.0, 203.97 196.17, 203.81 196.33, 203.65 196.5, 203.48 196.67, 203.32 196.83, 203.15 197.0, 202.99 197.17, 202.82 197.33, 202.66 197.5, 202.49 197.67, 202.33 197.83, 202.16 198.0, 202.0 198.17, 201.83 198.33, 201.66 198.5, 201.5 198.67, 201.33 198.83, 201.17 199.0, 201.0 199.17, 200.83 199.33, 200.67 199.5, 200.5 199.67, 200.33 199.83, 200.17 200.0, 200.0 200.17, 199.83 200.33, 199.67 200.5, 199.5 200.67, 199.33 200.83, 199.17 201.0, 199.0 201.17, 198.83 201.33, 198.67 201.5, 198.5 201.67, 198.34 201.83, 198.17 202.0, 198.0 202.17, 197.84 202.33, 197.67 202.5, 197.51 202.67, 197.34 202.83, 197.18 203.0, 197.01 203.17, 196.85 203.33, 196.68 203.5, 196.52 203.67, 196.35 203.83, 196.19 204.0, 196.03 204.17, 195.86 204.33, 195.7 204.5, 195.54 204.67, 195.38 204.83, 195.21 205.0, 195.05 205.17, 194.89 205.33, 194.73 205.5, 194.57 205.67, 194.41 205.83, 194.25 206.0, 194.09 206.17, 193.93 206.33, 193.77 206.5, 193.61 206.67, 193.46 206.83, 193.3 207.0, 193.14 207.17, 192.99 207.33, 192.83 207.5, 192.67 207.67, 192.52 207.83, 192.37 208.0, 192.21 208.17, 192.06 208.33, 191.91 208.5, 191.75 208.67, 191.6 208.83, 191.45 209.0, 191.3 209.17, 191.15 209.33, 191.0 209.5, 190.85 209.67, 190.71 209.83, 190.56 210.0, 190.41 210.17, 190.27 210.33, 190.12 210.5, 189.98 210.67, 189.83 210.83, 189.69 211.0, 189.55 211.17, 189.4 211.33, 189.26 211.5, 189.12 211.67, 188.98 211.83, 188.85 212.0, 188.71 212.17, 188.57 212.33, 188.43 212.5, 188.3 212.67, 188.16 212.83, 188.03 213.0, 187.9 213.17, 187.76 213.33, 187.63 213.5, 187.5 213.67, 187.37 213.83, 187.24 214.0, 187.12 214.17, 186.99 214.33, 186.86 214.5, 186.74 214.67, 186.61 214.83, 186.49 215.0, 186.37 215.17, 186.25 215.33, 186.13 215.5, 186.01 215.67, 185.89 215.83, 185.77 216.0, 185.65 216.17, 185.54 216.33, 185.42 216.5, 185.31 216.67, 185.2 216.83, 185.08 217.0, 184.97 217.17, 184.86 217.33, 184.76 217.5, 184.65 217.67, 184.54 217.83, 184.44 218.0, 184.33 218.17, 184.23 218.33, 184.13 218.5, 184.03 218.67, 183.93 218.83, 183.83 219.0, 183.73 219.17, 183.64 219.33, 183.54 219.5, 183.45 219.67, 183.35 219.83, 183.26 220.0, 183.17 220.17, 183.08 220.33, 182.99 220.5, 182.91 220.67, 182.82 220.83, 182.74 221.0, 182.65 221.17, 182.57 221.33, 182.49 221.5, 182.41 221.67, 182.33 221.83, 182.25 222.0, 182.18 222.17, 182.1 222.33, 182.03 222.5, 181.95 222.67, 181.88 222.83, 181.81 223.0, 181.74 223.17, 181.68 223.33, 181.61 223.5, 181.55 223.67, 181.48 223.83, 181.42 224.0, 181.36 224.17, 181.3 224.33, 181.24 224.5, 181.18 224.67, 181.13 224.83, 181.07 225.0, 181.02 225.17, 180.97 225.33, 180.92 225.5, 180.87 225.67, 180.82 225.83, 180.77 226.0, 180.73 226.17, 180.69 226.33, 180.64 226.5, 180.6 226.67, 180.56 226.83, 180.52 227.0, 180.49 227.17, 180.45 227.33, 180.42 227.5, 180.38 227.67, 180.35 227.83, 180.32 228.0, 180.29 228.17, 180.26 228.33, 180.24 228.5, 180.21 228.67, 180.19 228.83, 180.17 229.0, 180.15 229.17, 180.13 229.33, 180.11 229.5, 180.09 229.67, 180.08 229.83, 180.06 230.0, 180.05 230.17, 180.04 230.33, 180.03 230.5, 180.02 230.67, 180.02 230.83, 180.01 231.0, 180.01 231.17, 180.0 231.33, 180.0 231.5, 180.0 231.67, 180.0 231.83, 180.01 232.0, 180.01 232.17, 180.02 232.33, 180.02 232.5, 180.03 232.67, 180.04 232.83, 180.05 233.0, 180.07 233.17, 180.08 233.33, 180.1 233.5, 180.11 233.67, 180.13 233.83, 180.15 234.0, 180.17 234.17, 180.19 234.33, 180.22 234.5, 180.24 234.67, 180.27 234.83, 180.3 235.0, 180.33 235.17, 180.36 235.33, 180.39 235.5, 180.42 235.67, 180.46 235.83, 180.49 236.0, 180.53 236.17, 180.57 236.33, 180.61 236.5, 180.65 236.67, 180.7 236.83, 180.74 237.0, 180.79 237.17, 180.83 237.33, 180.88 237.5, 180.93 237.67, 180.98 237.83, 181.03 238.0, 181.09 238.17, 181.14 238.33, 181.2 238.5, 181.26 238.67, 181.32 238.83, 181.38 239.0, 181.44 239.17, 181.5 239.33, 181.57 239.5, 181.63 239.67, 181.7 239.83, 181.77 240.0, 181.84 240.17, 181.91 240.33, 181.98 240.5, 182.05 240.67, 182.13 240.83, 182.2 241.0, 182.28 241.17, 182.36 241.33, 182.44 241.5, 182.52 241.67, 182.6 241.83, 182.69 242.0, 182.77 242.17, 182.86 242.33, 182.94 242.5, 183.03 242.67, 183.12 242.83, 183.21 243.0, 183.31 243.17, 183.4 243.33, 183.49 243.5, 183.59 243.67, 183.69 243.83, 183.78 244.0, 183.88 244.17, 183.98 244.33, 184.09 244.5, 184.19 244.67, 184.29 244.83, 184.4 245.0, 184.5 245.17, 184.61 245.33, 184.72 245.5, 184.83 245.67, 184.94 245.83, 185.05 246.0, 185.16 246.17, 185.28 246.33, 185.39 246.5, 185.51 246.67, 185.63 246.83, 185.75 247.0, 185.87 247.17, 185.99 247.33, 186.11 247.5, 186.23 247.67, 186.35 247.83, 186.48 248.0, 186.61 248.17, 186.73 248.33, 186.86 248.5, 186.99 248.67, 187.12 248.83, 187.25 249.0, 187.38 249.17, 187.52 249.33, 187.65 249.5, 187.78 249.67, 187.92 249.83, 188.06 250.0, 188.2 250.17, 188.33 250.33, 188.47 250.5, 188.61 250.67, 188.76 250.83, 188.9 251.0, 189.04 251.17, 189.19 251.33, 189.33 251.5, 189.48 251.67, 189.63 251.83, 189.77 252.0, 189.92 252.17, 190.07 252.33, 190.22 252.5, 190.38 252.67, 190.53 252.83, 190.68 253.0, 190.84 253.17, 190.99 253.33, 191.15 253.5, 191.3 253.67, 191.46 253.83, 191.62 254.0, 191.78 254.17, 191.94 254.33, 192.1 254.5, 192.26 254.67, 192.42 254.83, 192.59 255.0, 192.75 255.17, 192.91 255.33, 193.08 255.5, 193.25 255.67, 193.41 255.83, 193.58 256.0, 193.75 256.17, 193.92 256.33, 194.09 256.5, 194.26 256.67, 194.43 256.83, 194.6 257.0, 194.78 257.17, 194.95 257.33, 195.12 257.5, 195.3 257.67, 195.47 257.83, 195.65 258.0, 195.83 258.17, 196.0 258.33, 196.18 258.5, 196.36 258.67, 196.54 258.83, 196.72 259.0, 196.9 259.17, 197.08 259.33, 197.27 259.5, 197.45 259.67, 197.63 259.83, 197.82 260.0, 198.0 260.17, 198.19 260.33, 198.37 260.5, 198.56 260.67, 198.75 260.83, 198.94 261.0, 199.12 261.17, 199.31 261.33, 199.5 261.5, 199.69 261.67, 199.89 261.83, 200.08 262.0, 200.27 262.17, 200.46 262.33, 200.66 262.5, 200.85 262.67, 201.04 262.83, 201.24 263.0, 201.43 263.17, 201.63 263.33, 201.83 263.5, 202.03 263.67, 202.22 263.83, 202.42 264.0, 202.62 264.17, 202.82 264.33, 203.02 264.5, 203.22 264.67, 203.43 264.83, 203.63 265.0, 203.83 265.17, 204.03 265.33, 204.24 265.5, 204.44 265.67, 204.65 265.83, 204.85 266.0, 205.06 266.17, 205.27 266.33, 205.48 266.5, 205.68 266.67, 205.89 266.83, 206.1 267.0, 206.31 267.17, 206.52 267.33, 206.73 267.5, 206.95 267.67, 207.16 267.83, 207.37 268.0, 207.59 268.17, 207.8 268.33, 208.02 268.5, 208.23 268.67, 208.45 268.83, 208.67 269.0, 208.88 269.17, 209.1 269.33, 209.32 269.5, 209.54 269.67, 209.76 269.83, 209.98 270.0, 210.21 270.17, 210.43 270.33, 210.65 270.5, 210.88 270.67, 211.1 270.83, 211.33 271.0, 211.55 271.17, 211.78 271.33, 212.01 271.5, 212.24 271.67, 212.47 271.83, 212.7 272.0, 212.93 272.17, 213.16 272.33, 213.4 272.5, 213.63 272.67, 213.86 272.83, 214.1 273.0, 214.34 273.17, 214.57 273.33, 214.81 273.5, 215.05 273.67, 215.29 273.83, 215.54 274.0, 215.78 274.17, 216.02 274.33, 216.27 274.5, 216.51 274.67, 216.76 274.83, 217.01 275.0, 217.25 275.17, 217.5 275.33, 217.76 275.5, 218.01 275.67, 218.26 275.83, 218.52 276.0, 218.77 276.17, 219.03 276.33, 219.29 276.5, 219.55 276.67, 219.81 276.83, 220.07 277.0, 220.33 277.17, 220.6 277.33, 220.86 277.5, 221.13 277.67, 221.4 277.83, 221.67 278.0, 221.94 278.17, 222.22 278.33, 222.49 278.5, 222.77 278.67, 223.05 278.83, 223.33 279.0, 223.61 279.17, 223.89 279.33, 224.18 279.5, 224.46 279.67, 224.75 279.83, 225.04 280.0, 225.33 280.17, 225.63 280.33, 225.92 280.5, 226.22 280.67, 226.52 280.83, 226.82 281.0, 227.13 281.17, 227.43 281.33, 227.74 281.5, 228.05 281.67, 228.36 281.83, 228.68 282.0, 228.99 282.17, 229.31 282.33, 229.63 282.5, 229.96 282.67, 230.28 282.83, 230.61 283.0, 230.94 283.17, 231.28 283.33, 231.61 283.5, 231.95 283.67, 232.29 283.83, 232.64 284.0, 232.98 284.17, 233.33 284.33, 233.68 284.5, 234.04 284.67, 234.4 284.83, 234.76 285.0, 235.12 285.17, 235.49 285.33, 235.86 285.5, 236.23 285.67, 236.61 285.83, 236.99 286.0, 237.37 286.17, 237.76 286.33, 238.15 286.5, 238.54 286.67, 238.94 286.83, 239.34 287.0, 239.74 287.17, 240.15 287.33, 240.56 287.5, 240.98 287.67, 241.4 287.83, 241.82 288.0, 242.25 288.17, 242.68 288.33, 243.11 288.5, 243.55 288.67, 244.0 288.83, 244.45 289.0, 244.9 289.17, 245.35 289.33, 245.82 289.5, 246.28 289.67, 246.75 289.83, 247.23 290.0, 247.71 290.17, 248.19 290.33, 248.68 290.5, 249.18 290.67, 249.68 290.83, 250.18 291.0, 250.69 291.17, 251.21 291.33, 251.73 291.5, 252.25 291.67, 252.79 291.83, 253.32 292.0, 253.87 292.17, 254.41 292.33, 254.97 292.5, 255.53 292.67, 256.1 292.83, 256.67 293.0, 257.25 293.17, 257.83 293.33, 258.42 293.5, 259.02 293.67, 259.62 293.83, 260.24 294.0, 260.85 294.17, 261.48 294.33, 262.11 294.5, 262.75 294.67, 263.39 294.83, 264.04 295.0, 264.7 295.17, 265.37 295.33, 266.04 295.5, 266.73 295.67, 267.41 295.83, 268.11 296.0, 268.82 296.17, 269.53 296.33, 270.25 296.5, 270.98 296.67, 271.72 296.83, 272.46 297.0, 273.22 297.17, 273.98 297.33, 274.75 297.5, 275.53 297.67, 276.32 297.83, 277.12 298.0, 277.92 298.17, 278.74 298.33, 279.56 298.5, 280.4 298.67, 281.24 298.83, 282.1 299.0, 282.96 299.17, 283.84 299.33, 284.72 299.5, 285.62 299.67, 286.52 299.83, 287.44 300.0, 288.36 300.17, 289.3 300.33, 290.24 300.5, 291.2 300.67, 292.17 300.83, 293.15 301.0, 294.14 301.17, 295.15 301.33, 296.16 301.5, 297.19 301.67, 298.23 301.83, 299.28 302.0, 300.34 302.17, 301.41 302.33, 302.5 302.5, 303.6 302.67, 304.71 302.83, 305.84 303.0, 306.98 303.17, 308.13 303.33, 309.29 303.5, 310.47 303.67, 311.66 303.83, 312.87 304.0, 314.09 304.17, 315.32 304.33, 316.57 304.5, 317.83 304.67, 319.11 304.83, 320.4 305.0, 321.71 305.17, 323.03 305.33, 324.36 305.5, 325.72 305.67, 327.08 305.83, 328.47 306.0, 329.87 306.17, 331.28 306.33, 332.71 306.5, 334.16 306.67, 335.62 306.83, 337.11 307.0, 338.6 307.17, 340.12 307.33, 341.65 307.5, 343.2 307.67, 344.77 307.83, 346.35 308.0, 347.96 308.17, 349.58 308.33, 351.22 308.5, 352.88 308.67, 354.55 308.83, 356.25 309.0, 357.97 309.17, 359.7 309.33, 361.45 309.5, 363.23 309.67, 365.02 309.83, 366.84 310.0, 368.67 310.17, 370.53 310.33, 372.4 310.5, 374.3 310.67, 376.22 310.83, 378.16 311.0, 380.12 311.17, 382.1 311.33, 384.1 311.5, 386.13 311.67, 388.18 311.83, 390.25 312.0, 392.35 312.17, 394.47 312.33, 396.61 312.5, 398.77 312.67, 400.96 312.83, 403.17 313.0, 405.41 313.17, 407.67 313.33, 409.96 313.5, 412.27 313.67, 414.61 313.83, 416.97 314.0, 419.36 314.17, 421.77 314.33, 424.21 314.5, 426.68 314.67, 429.17 314.83, 431.69 315.0, 434.24 315.17, 436.81 315.33, 439.42 315.5, 442.05 315.67, 444.7 315.83, 447.39 316.0, 450.11 316.17, 452.85 316.33, 455.62 316.5, 458.43 316.67, 461.26 316.83, 464.12 317.0, 467.02 317.17, 469.94 317.33, 472.9 317.5, 475.88 317.67, 478.9 317.83, 481.95 318.0, 485.03 318.17, 488.14 318.33, 491.29 318.5, 494.47 318.67, 497.68 318.83, 500.92 319.0, 504.2 319.17, 507.52 319.33, 510.86 319.5, 514.24 319.67, 517.66 319.83, 521.11 320.0, 524.6 320.17, 528.12 320.33, 531.68 320.5, 535.28 320.67, 538.91 320.83, 542.58 321.0, 546.29 321.17, 550.03 321.33, 553.81 321.5, 557.63 321.67, 561.49 321.83, 565.39 322.0, 569.33 322.17, 573.31 322.33, 577.32 322.5, 581.38 322.67, 585.48 322.83, 589.62 323.0, 593.8 323.17, 598.02 323.33, 602.28 323.5, 606.59 323.67, 610.94 323.83, 615.33 324.0, 619.76 324.17, 624.24 324.33, 628.77 324.5, 633.33 324.67, 637.95 324.83, 642.6 325.0, 647.31 325.17, 652.05 325.33, 656.85 325.5, 661.69 325.67, 666.58 325.83, 671.51 326.0, 676.5 326.17, 681.53 326.33, 686.61 326.5, 691.74 326.67, 696.92 326.83, 702.14 327.0, 707.42 327.17, 712.75 327.33, 718.13 327.5, 723.56 327.67, 729.04 327.83, 734.57 328.0, 740.16 328.17, 745.8 328.33, 751.49 328.5, 757.24 328.67, 763.04 328.83, 768.89 329.0, 774.8 329.17, 780.76 329.33, 786.78 329.5, 792.86 329.67, 798.99 329.83, 805.18 330.0, 811.43 330.17, 817.73 330.33, 824.1 330.5, 830.52 330.67, 837.0 330.83, 843.54 331.0, 850.14 331.17, 856.8 331.33, 863.52 331.5, 870.3 331.67, 877.15 331.83, 884.05 332.0, 891.02 332.17, 898.06 332.33, 905.15 332.5, 912.31 332.67, 919.54 332.83, 926.83 333.0, 934.18 333.17, 941.6 333.33, 949.09 333.5, 956.64 333.67, 964.27 333.83, 971.96 334.0, 979.71 334.17, 987.54 334.33, 995.44 334.5, 1003.4 334.67, 1011.44 334.83, 1019.55 335.0, 1027.72 335.17, 1035.97 335.33, 1044.3 335.5, 1052.69 335.67, 1061.16 335.83, 1069.7 336.0, 1078.32 336.17, 1087.01 336.33, 1095.77 336.5, 1104.62 336.67, 1113.54 336.83, 1122.53 337.0, 1131.6 337.17, 1140.76 337.33, 1149.99 337.5, 1159.29 337.67, 1168.68 337.83, 1178.15 338.0, 1187.7 338.17, 1197.33 338.33, 1207.04 338.5, 1216.84 338.67, 1226.71 338.83, 1236.67 339.0, 1246.72 339.17, 1256.85 339.33, 1267.06 339.5, 1277.36 339.67, 1287.75 339.83, 1298.22 340.0, 1308.78 340.17, 1319.43 340.33, 1330.17 340.5, 1340.99 340.67, 1351.91 340.83, 1362.92 341.0, 1374.01 341.17, 1385.2 341.33, 1396.48 341.5, 1407.86 341.67, 1419.32 341.83, 1430.88 342.0, 1442.54 342.17, 1454.29 342.33, 1466.13 342.5, 1478.08 342.67, 1490.11 342.83, 1502.25 343.0, 1514.49 343.17, 1526.82 343.33, 1539.25 343.5, 1551.79 343.67, 1564.42 343.83, 1577.15 344.0, 1589.99 344.17, 1602.93 344.33, 1615.98 344.5, 1629.12 344.67, 1642.37 344.83, 1655.73 345.0, 1669.19 345.17, 1682.76 345.33, 1696.44 345.5, 1710.22 345.67, 1724.12 345.83, 1738.12 346.0, 1752.23 346.17, 1766.45 346.33, 1780.79 346.5, 1795.23 346.67, 1809.79 346.83, 1824.46 347.0, 1839.25 347.17, 1854.15 347.33, 1869.16 347.5, 1884.3 347.67, 1899.54 347.83, 1914.91 348.0, 1930.39 348.17, 1946.0 348.33, 1961.72 348.5, 1977.56 348.67, 1993.53 348.83, 2009.61 349.0, 2025.82 349.17, 2042.15 349.33, 2058.61 349.5, 2075.19 349.67, 2091.89 349.83, 2108.72 350.0, 2125.68 350.17, 2142.77 350.33, 2159.98 350.5, 2177.33 350.67, 2194.8 350.83, 2212.41 351.0, 2230.14 351.17, 2248.01 351.33, 2266.01 351.5, 2284.14 351.67, 2302.41 351.83, 2320.82 352.0, 2339.36 352.17, 2358.04 352.33, 2376.85 352.5, 2395.8 352.67, 2414.9 352.83, 2434.13 353.0, 2453.5 353.17, 2473.02 353.33, 2492.67 353.5, 2512.47 353.67, 2532.42 353.83, 2552.51 354.0, 2572.74 354.17, 2593.12 354.33, 2613.65 354.5, 2634.33 354.67, 2655.15 354.83, 2676.13 355.0, 2697.25 355.17, 2718.53 355.33, 2739.96 355.5, 2761.54 355.67, 2783.28 355.83, 2805.17 356.0, 2827.21 356.17, 2849.42 356.33, 2871.78 356.5, 2894.3 356.67, 2916.97 356.83, 2939.81 357.0, 2962.81 357.17, 2985.97 357.33, 3009.29 357.5, 3032.78 357.67, 3056.43 357.83, 3080.25 358.0, 3104.23 358.17, 3128.38 358.33, 3152.69 358.5, 3177.18 358.67, 3201.83 358.83, 3226.66 359.0, 3251.66 359.17, 3276.83 359.33, 3302.17 359.5, 3327.69 359.67, 3353.38 359.83, 3379.25 360.0, 3405.29 360.17, 3431.52 360.33, 3457.92 360.5, 3484.5 360.67, 3511.26 360.83, 3538.21 361.0, 3565.34 361.17, 3592.65 361.33, 3620.14 361.5, 3647.82 361.67, 3675.69 361.83, 3703.74 362.0, 3731.99 362.17, 3760.42 362.33, 3789.04 362.5, 3817.86 362.67, 3846.86 362.83, 3876.06 363.0, 3905.46 363.17, 3935.05 363.33, 3964.83 363.5, 3994.81 363.67, 4024.99 363.83, 4055.37 364.0, 4085.95 364.17, 4116.74 364.33, 4147.72 364.5, 4178.91 364.67, 4210.3 364.83, 4241.89 365.0, 4273.7 365.17, 4305.71 365.33, 4337.92 365.5, 4370.35 365.67, 4402.99 365.83, 4435.84 366.0, 4468.9 366.17, 4502.18 366.33, 4535.67 366.5, 4569.37 366.67, 4603.3 366.83, 4637.44 367.0, 4671.8 367.17, 4706.38 367.33, 4741.18 367.5, 4776.2 367.67, 4811.44 367.83, 4846.91 368.0, 4882.61 368.17, 4918.53 368.33, 4954.68 368.5, 4991.06 368.67, 5027.66 368.83, 5064.5 369.0, 5101.57 369.17, 5138.87 369.33, 5176.41 369.5, 5214.18 369.67, 5252.19 369.83, 5290.43 370.0, 5328.92 370.17, 5367.64 370.33, 5406.6 370.5, 5445.81 370.67, 5485.26 370.83, 5524.95 371.0, 5564.89 371.17, 5605.08 371.33, 5645.51 371.5, 5686.19 371.67, 5727.12 371.83, 5768.3 372.0, 5809.74 372.17, 5851.43 372.33, 5893.37 372.5, 5935.57 372.67, 5978.02 372.83, 6020.74 373.0, 6063.71 373.17, 6106.94 373.33, 6150.44 373.5, 6194.19 373.67, 6238.21 373.83, 6282.5 374.0, 6327.05 374.17, 6371.87 374.33, 6416.96 374.5, 6462.32 374.67, 6507.95 374.83, 6553.85 375.0, 6600.03 375.17, 6646.48 375.33, 6693.21 375.5, 6740.22 375.67, 6787.5 375.83, 6835.06 376.0, 6882.91 376.17, 6931.03 376.33, 6979.44 376.5, 7028.14 376.67, 7077.12 376.83, 7126.39 377.0, 7175.94 377.17, 7225.79 377.33, 7275.93 377.5, 7326.36 377.67, 7377.08 377.83, 7428.1 378.0, 7479.41 378.17, 7531.02 378.33, 7582.93 378.5, 7635.14 378.67, 7687.65 378.83, 7740.47 379.0, 7793.59 379.17, 7847.01 379.33, 7900.74 379.5, 7954.78 379.67, 8009.12 379.83, 8063.78 380.0, 8118.75 380.17, 8174.03 380.33, 8229.63 380.5, 8285.54 380.67, 8341.76 380.83, 8398.31 381.0, 8455.18 381.17, 8512.37 381.33, 8569.87 381.5, 8627.71 381.67, 8685.87 381.83, 8744.35 382.0, 8803.16 382.17, 8862.3 382.33, 8921.78 382.5, 8981.58 382.67, 9041.72 382.83, 9102.19 383.0, 9162.99 383.17, 9224.14 383.33, 9285.62 383.5, 9347.44 383.67, 9409.61 383.83, 9472.12 384.0, 9534.97 384.17, 9598.16 384.33, 9661.71 384.5, 9725.6 384.67, 9789.84 384.83, 9854.43 385.0, 9919.38 385.17, 9984.68 385.33, 10050.33 385.5, 10116.34 385.67, 10182.71 385.83, 10249.44 386.0, 10316.53 386.17, 10383.99 386.33, 10451.8 386.5, 10519.99 386.67, 10588.53 386.83, 10657.45 387.0, 10726.74 387.17, 10796.4 387.33, 10866.43 387.5, 10936.83 387.67, 11007.61 387.83, 11078.77 388.0, 11150.3 388.17, 11222.22 388.33, 11294.51 388.5, 11367.19 388.67, 11440.26 388.83, 11513.7 389.0, 11587.54 389.17, 11661.77 389.33, 11736.38 389.5, 11811.39 389.67, 11886.79 389.83, 11962.58 390.0, 12038.77 390.17, 12115.36 390.33, 12192.35 390.5, 12269.73 390.67, 12347.52 390.83, 12425.72 391.0, 12504.31 391.17, 12583.32 391.33, 12662.73 391.5, 12742.55 391.67, 12822.79 391.83, 12903.43 392.0, 12984.5 392.17, 13065.97 392.33, 13147.87 392.5, 13230.18 392.67, 13312.91 392.83, 13396.07 393.0, 13479.65 393.17, 13563.65 393.33, 13648.08 393.5, 13732.94 393.67, 13818.22 393.83, 13903.94 394.0, 13990.09 394.17, 14076.68 394.33, 14163.7 394.5, 14251.16 394.67, 14339.06 394.83, 14427.4 395.0, 14516.18 395.17, 14605.4 395.33, 14695.07 395.5, 14785.19 395.67, 14875.75 395.83, 14966.77 396.0, 15058.23 396.17, 15150.15 396.33, 15242.53 396.5, 15335.36 396.67, 15428.65 396.83, 15522.4 397.0, 15616.61 397.17, 15711.28 397.33, 15806.41 397.5, 15902.02 397.67, 15998.09 397.83, 16094.63 398.0, 16191.64 398.17, 16289.12 398.33, 16387.08 398.5, 16485.51 398.67, 16584.42 398.83, 16683.81 399.0, 16783.68 399.17, 16884.03 399.33, 16984.87 399.5, 17086.19 399.67, 17187.99 399.83, 17290.29 400.0, 17393.08 " fill="none" stroke="white" stroke-width="1.5" stroke-linejoin="round" stroke-opacity="1"/>

 </svg>