<svg version="1.1" 
 baseProfile="full" 
 width="400" 
 height="400" 
 xmlns="http://www.w3.org/2000/svg">
<rect x="0.0" y="0.0" width="400" height="400" fill="black" stroke="black" stroke-width="0" opacity="1"/>
<line x1="0.0" y1="0.0" x2="0.0" y2="400.0" stroke="white" stroke-width="1" opacity="0.4" stroke-linecap="butt"/>
<line x1="40.0" y1="0.0" x2="40.0" y2="400.0" stroke="white" stroke-width="1" opacity="0.4" stroke-linecap="butt"/>
<line x1="80.0" y1="0.0" x2="80.0" y2="400.0" stroke="white" stroke-width="1" opacity="0.4" stroke-linecap="butt"/>
<line x1="120.0" y1="0.0" x2="120.0" y2="400.0" stroke="white" stroke-width="1" opacity="0.4" stroke-linecap="butt"/>
<line x1="160.0" y1="0.0" x2="160.0" y2="400.0" stroke="white" stroke-width="1" opacity="0.4" stroke-linecap="butt"/>
<line x1="200.0" y1="0.0" x2="200.0" y2="400.0" stroke="white" stroke-width="1" opacity="0.4" stroke-linecap="butt"/>
<line x1="240.0" y1="0.0" x2="240.0" y2="400.0" stroke="white" stroke-width="1" opacity="0.4" stroke-linecap="butt"/>
<line x1="280.0" y1="0.0" x2="280.0" y2="400.0" stroke="white" stroke-width="1" opacity="0.4" stroke-linecap="butt"/>
<line x1="320.0" y1="0.0" x2="320.0" y2="400.0" stroke="white" stroke-width="1" opacity="0.4" stroke-linecap="butt"/>
<line x1="360.0" y1="0.0" x2="360.0" y2="400.0" stroke="white" stroke-width="1" opacity="0.4" stroke-linecap="butt"/>
<line x1="0.0" y1="0.0" x2="400.0" y2="0.0" stroke="white" stroke-width="1" opacity="0.4" stroke-linecap="butt"/>
<line x1="0.0" y1="40.0" x2="400.0" y2="40.0" stroke="white" stroke-width="1" opacity="0.4" stroke-linecap="butt"/>
<line x1="0.0" y1="80.0" x2="400.0" y2="80.0" stroke="white" stroke-width="1" opacity="0.4" stroke-linecap="butt"/>
<line x1="0.0" y1="120.0" x2="400.0" y2="120.0" stroke="white" stroke-width="1" opacity="0.4" stroke-linecap="butt"/>
<line x1="0.0" y1="160.0" x2="400.0" y2="160.0" stroke="white" stroke-width="1" opacity="0.4" stroke-linecap="butt"/>
<line x1="0.0" y1="200.0" x2="400.0" y2="200.0" stroke="white" stroke-width="1" opacity="0.4" stroke-linecap="butt"/>
<line x1="0.0" y1="240.0" x2="400.0" y2="240.0" stroke="white" stroke-width="1" opacity="0.4" stroke-linecap="butt"/>
<line x1="0.0" y1="280.0" x2="400.0" y2="280.0" stroke="white" stroke-width="1" opacity="0.4" stroke-linecap="butt"/>
<line x1="0.0" y1="320.0" x2="400.0" y2="320.0" stroke="white" stroke-width="1" opacity="0.4" stroke-linecap="butt"/>
<line x1="0.0" y1="360.0" x2="400.0" y2="360.0" stroke="white" stroke-width="1" opacity="0.4" stroke-linecap="butt"/>
<line x1="0.0" y1="200.0" x2="400.0" y2="200.0" stroke="yellow" stroke-width="2.5" opacity="1" stroke-linecap="butt"/>
<line x1="200.0" y1="0.0" x2="200.0" y2="400.0" stroke="yellow" stroke-width="2.5" opacity="1" stroke-linecap="butt"/>
<polygon points="391.0 204.0, 401.0 200.0, 391.0 196.0, 393.0 200.0" fill="yellow"/><polygon points="204.0 9.0, 200.0 -1.0, 196.0 9.0, 200.0 7.0" fill="yellow"/><image x="-60.0" y="-60.0" width="200" height="200" href="/Users/girirajhira/PycharmProjects/Giraphics3/Taylor/expr.png"/><polyline points="0.0, 230.25 0.17, 204.29 0.33, 178.7 0.5, 153.47 0.67, 128.6 0.83, 104.08 1.0, 79.92 1.17, 56.1 1.33, 32.64 1.5, 9.51 1.67, -13.27 1.83, -35.72 2.0, -57.83 2.17, -79.62 2.33, -101.08 2.5, -122.21 2.67, -143.02 2.83, -163.52 3.0, -183.7 3.17, -203.56 3.33, -223.12 3.5, -242.37 3.67, -261.32 3.83, -279.97 4.0, -298.33 4.17, -316.38 4.33, -334.15 4.5, -351.63 4.67, -368.82 4.83, -385.73 5.0, -402.35 5.17, -418.7 5.33, -434.78 5.5, -450.58 5.67, -466.12 5.83, -481.38 6.0, -496.39 6.17, -511.13 6.33, -525.61 6.5, -539.84 6.67, -553.81 6.83, -567.53 7.0, -581.0 7.17, -594.23 7.33, -607.21 7.5, -619.95 7.67, -632.46 7.83, -644.72 8.0, -656.76 8.17, -668.56 8.33, -680.13 8.5, -691.48 8.67, -702.6 8.83, -713.5 9.0, -724.18 9.17, -734.64 9.33, -744.89 9.5, -754.93 9.67, -764.75 9.83, -774.37 10.0, -783.78 10.17, -792.99 10.33, -801.99 10.5, -810.8 10.67, -819.41 10.83, -827.82 11.0, -836.04 11.17, -844.07 11.33, -851.91 11.5, -859.57 11.67, -867.03 11.83, -874.32 12.0, -881.43 12.17, -888.35 12.33, -895.1 12.5, -901.68 12.67, -908.08 12.83, -914.32 13.0, -920.38 13.17, -926.28 13.33, -932.01 13.5, -937.58 13.67, -942.99 13.83, -948.23 14.0, -953.32 14.17, -958.26 14.33, -963.04 14.5, -967.67 14.67, -972.15 14.83, -976.48 15.0, -980.66 15.17, -984.7 15.33, -988.6 15.5, -992.35 15.67, -995.96 15.83, -999.44 16.0, -1002.78 16.17, -1005.98 16.33, -1009.05 16.5, -1011.99 16.67, -1014.8 16.83, -1017.48 17.0, -1020.04 17.17, -1022.47 17.33, -1024.77 17.5, -1026.96 17.67, -1029.02 17.83, -1030.96 18.0, -1032.79 18.17, -1034.5 18.33, -1036.1 18.5, -1037.58 18.67, -1038.95 18.83, -1040.21 19.0, -1041.36 19.17, -1042.41 19.33, -1043.35 19.5, -1044.19 19.67, -1044.92 19.83, -1045.55 20.0, -1046.08 20.17, -1046.51 20.33, -1046.84 20.5, -1047.08 20.67, -1047.23 20.83, -1047.28 21.0, -1047.23 21.17, -1047.1 21.33, -1046.88 21.5, -1046.56 21.67, -1046.16 21.83, -1045.68 22.0, -1045.11 22.17, -1044.46 22.33, -1043.72 22.5, -1042.9 22.67, -1042.01 22.83, -1041.03 23.0, -1039.98 23.17, -1038.85 23.33, -1037.64 23.5, -1036.37 23.67, -1035.01 23.83, -1033.59 24.0, -1032.1 24.17, -1030.53 24.33, -1028.9 24.5, -1027.2 24.67, -1025.43 24.83, -1023.6 25.0, -1021.7 25.17, -1019.75 25.33, -1017.72 25.5, -1015.64 25.67, -1013.5 25.83, -1011.29 26.0, -1009.03 26.17, -1006.72 26.33, -1004.34 26.5, -1001.91 26.67, -999.43 26.83, -996.89 27.0, -994.3 27.17, -991.66 27.33, -988.96 27.5, -986.22 27.67, -983.43 27.83, -980.59 28.0, -977.7 28.17, -974.77 28.33, -971.79 28.5, -968.77 28.67, -965.71 28.83, -962.6 29.0, -959.45 29.17, -956.25 29.33, -953.02 29.5, -949.75 29.67, -946.44 29.83, -943.09 30.0, -939.7 30.17, -936.28 30.33, -932.82 30.5, -929.33 30.67, -925.8 30.83, -922.24 31.0, -918.65 31.17, -915.02 31.33, -911.37 31.5, -907.68 31.67, -903.96 31.83, -900.22 32.0, -896.44 32.17, -892.64 32.33, -888.81 32.5, -884.95 32.67, -881.07 32.83, -877.17 33.0, -873.23 33.17, -869.28 33.33, -865.3 33.5, -861.3 33.67, -857.28 33.83, -853.23 34.0, -849.17 34.17, -845.08 34.33, -840.98 34.5, -836.86 34.67, -832.72 34.83, -828.56 35.0, -824.38 35.17, -820.19 35.33, -815.98 35.5, -811.75 35.67, -807.51 35.83, -803.26 36.0, -798.99 36.17, -794.71 36.33, -790.41 36.5, -786.1 36.67, -781.78 36.83, -777.45 37.0, -773.11 37.17, -768.76 37.33, -764.4 37.5, -760.03 37.67, -755.65 37.83, -751.26 38.0, -746.86 38.17, -742.45 38.33, -738.04 38.5, -733.62 38.67, -729.2 38.83, -724.77 39.0, -720.33 39.17, -715.89 39.33, -711.44 39.5, -706.99 39.67, -702.54 39.83, -698.08 40.0, -693.62 40.17, -689.15 40.33, -684.69 40.5, -680.22 40.67, -675.75 40.83, -671.28 41.0, -666.81 41.17, -662.34 41.33, -657.87 41.5, -653.4 41.67, -648.92 41.83, -644.45 42.0, -639.99 42.17, -635.52 42.33, -631.05 42.5, -626.59 42.67, -622.13 42.83, -617.67 43.0, -613.22 43.17, -608.77 43.33, -604.32 43.5, -599.88 43.67, -595.44 43.83, -591.01 44.0, -586.58 44.17, -582.15 44.33, -577.73 44.5, -573.32 44.67, -568.92 44.83, -564.52 45.0, -560.12 45.17, -555.74 45.33, -551.36 45.5, -546.98 45.67, -542.62 45.83, -538.26 46.0, -533.91 46.17, -529.57 46.33, -525.24 46.5, -520.91 46.67, -516.6 46.83, -512.29 47.0, -508.0 47.17, -503.71 47.33, -499.43 47.5, -495.17 47.67, -490.91 47.83, -486.66 48.0, -482.43 48.17, -478.2 48.33, -473.99 48.5, -469.78 48.67, -465.59 48.83, -461.41 49.0, -457.24 49.17, -453.08 49.33, -448.94 49.5, -444.8 49.67, -440.68 49.83, -436.57 50.0, -432.48 50.17, -428.39 50.33, -424.32 50.5, -420.26 50.67, -416.22 50.83, -412.19 51.0, -408.17 51.17, -404.16 51.33, -400.17 51.5, -396.2 51.67, -392.23 51.83, -388.28 52.0, -384.35 52.17, -380.43 52.33, -376.52 52.5, -372.63 52.67, -368.75 52.83, -364.89 53.0, -361.04 53.17, -357.21 53.33, -353.39 53.5, -349.58 53.67, -345.8 53.83, -342.02 54.0, -338.27 54.17, -334.52 54.33, -330.8 54.5, -327.09 54.67, -323.39 54.83, -319.71 55.0, -316.05 55.17, -312.4 55.33, -308.77 55.5, -305.15 55.67, -301.55 55.83, -297.97 56.0, -294.4 56.17, -290.85 56.33, -287.32 56.5, -283.8 56.67, -280.29 56.83, -276.81 57.0, -273.34 57.17, -269.89 57.33, -266.45 57.5, -263.03 57.67, -259.63 57.83, -256.24 58.0, -252.87 58.17, -249.52 58.33, -246.19 58.5, -242.87 58.67, -239.56 58.83, -236.28 59.0, -233.01 59.17, -229.76 59.33, -226.53 59.5, -223.31 59.67, -220.11 59.83, -216.93 60.0, -213.76 60.17, -210.61 60.33, -207.48 60.5, -204.36 60.67, -201.26 60.83, -198.18 61.0, -195.12 61.17, -192.07 61.33, -189.04 61.5, -186.03 61.67, -183.04 61.83, -180.06 62.0, -177.1 62.17, -174.15 62.33, -171.23 62.5, -168.32 62.67, -165.42 62.83, -162.55 63.0, -159.69 63.17, -156.85 63.33, -154.02 63.5, -151.21 63.67, -148.42 63.83, -145.65 64.0, -142.89 64.17, -140.15 64.33, -137.43 64.5, -134.72 64.67, -132.04 64.83, -129.36 65.0, -126.71 65.17, -124.07 65.33, -121.45 65.5, -118.84 65.67, -116.25 65.83, -113.68 66.0, -111.13 66.17, -108.59 66.33, -106.07 66.5, -103.56 66.67, -101.07 66.83, -98.6 67.0, -96.14 67.17, -93.7 67.33, -91.28 67.5, -88.87 67.67, -86.48 67.83, -84.11 68.0, -81.75 68.17, -79.41 68.33, -77.08 68.5, -74.77 68.67, -72.48 68.83, -70.2 69.0, -67.94 69.17, -65.69 69.33, -63.46 69.5, -61.25 69.67, -59.05 69.83, -56.87 70.0, -54.7 70.17, -52.55 70.33, -50.41 70.5, -48.29 70.67, -46.19 70.83, -44.1 71.0, -42.02 71.17, -39.96 71.33, -37.92 71.5, -35.89 71.67, -33.88 71.83, -31.88 72.0, -29.89 72.17, -27.92 72.33, -25.97 72.5, -24.03 72.67, -22.11 72.83, -20.2 73.0, -18.3 73.17, -16.42 73.33, -14.55 73.5, -12.7 73.67, -10.86 73.83, -9.04 74.0, -7.23 74.17, -5.44 74.33, -3.66 74.5, -1.89 74.67, -0.14 74.83, 1.6 75.0, 3.33 75.17, 5.04 75.33, 6.74 75.5, 8.42 75.67, 10.09 75.83, 11.75 76.0, 13.39 76.17, 15.02 76.33, 16.64 76.5, 18.24 76.67, 19.83 76.83, 21.41 77.0, 22.97 77.17, 24.52 77.33, 26.06 77.5, 27.58 77.67, 29.1 77.83, 30.6 78.0, 32.08 78.17, 33.56 78.33, 35.02 78.5, 36.47 78.67, 37.91 78.83, 39.33 79.0, 40.75 79.17, 42.15 79.33, 43.54 79.5, 44.91 79.67, 46.28 79.83, 47.63 80.0, 48.97 80.17, 50.3 80.33, 51.62 80.5, 52.93 80.67, 54.22 80.83, 55.5 81.0, 56.78 81.17, 58.04 81.33, 59.29 81.5, 60.53 81.67, 61.75 81.83, 62.97 82.0, 64.18 82.17, 65.37 82.33, 66.56 82.5, 67.73 82.67, 68.89 82.83, 70.04 83.0, 71.19 83.17, 72.32 83.33, 73.44 83.5, 74.55 83.67, 75.65 83.83, 76.74 84.0, 77.82 84.17, 78.89 84.33, 79.95 84.5, 81.01 84.67, 82.05 84.83, 83.08 85.0, 84.1 85.17, 85.11 85.33, 86.12 85.5, 87.11 85.67, 88.09 85.83, 89.07 86.0, 90.03 86.17, 90.99 86.33, 91.94 86.5, 92.88 86.67, 93.81 86.83, 94.73 87.0, 95.64 87.17, 96.55 87.33, 97.44 87.5, 98.33 87.67, 99.21 87.83, 100.08 88.0, 100.94 88.17, 101.79 88.33, 102.63 88.5, 103.47 88.67, 104.3 88.83, 105.12 89.0, 105.93 89.17, 106.74 89.33, 107.54 89.5, 108.33 89.67, 109.11 89.83, 109.88 90.0, 110.65 90.17, 111.41 90.33, 112.16 90.5, 112.9 90.67, 113.64 90.83, 114.37 91.0, 115.1 91.17, 115.81 91.33, 116.52 91.5, 117.22 91.67, 117.92 91.83, 118.61 92.0, 119.29 92.17, 119.96 92.33, 120.63 92.5, 121.29 92.67, 121.95 92.83, 122.6 93.0, 123.24 93.17, 123.88 93.33, 124.51 93.5, 125.13 93.67, 125.75 93.83, 126.36 94.0, 126.97 94.17, 127.57 94.33, 128.16 94.5, 128.75 94.67, 129.33 94.83, 129.91 95.0, 130.48 95.17, 131.04 95.33, 131.61 95.5, 132.16 95.67, 132.71 95.83, 133.25 96.0, 133.79 96.17, 134.32 96.33, 134.85 96.5, 135.38 96.67, 135.89 96.83, 136.41 97.0, 136.92 97.17, 137.42 97.33, 137.92 97.5, 138.41 97.67, 138.9 97.83, 139.38 98.0, 139.86 98.17, 140.34 98.33, 140.81 98.5, 141.28 98.67, 141.74 98.83, 142.19 99.0, 142.65 99.17, 143.1 99.33, 143.54 99.5, 143.98 99.67, 144.42 99.83, 144.85 100.0, 145.28 100.17, 145.7 100.33, 146.12 100.5, 146.54 100.67, 146.95 100.83, 147.36 101.0, 147.77 101.17, 148.17 101.33, 148.57 101.5, 148.96 101.67, 149.35 101.83, 149.74 102.0, 150.12 102.17, 150.5 102.33, 150.88 102.5, 151.26 102.67, 151.63 102.83, 151.99 103.0, 152.36 103.17, 152.72 103.33, 153.08 103.5, 153.43 103.67, 153.78 103.83, 154.13 104.0, 154.48 104.17, 154.82 104.33, 155.16 104.5, 155.5 104.67, 155.84 104.83, 156.17 105.0, 156.5 105.17, 156.83 105.33, 157.15 105.5, 157.47 105.67, 157.79 105.83, 158.11 106.0, 158.42 106.17, 158.73 106.33, 159.04 106.5, 159.35 106.67, 159.66 106.83, 159.96 107.0, 160.26 107.17, 160.56 107.33, 160.85 107.5, 161.15 107.67, 161.44 107.83, 161.73 108.0, 162.02 108.17, 162.3 108.33, 162.59 108.5, 162.87 108.67, 163.15 108.83, 163.43 109.0, 163.7 109.17, 163.98 109.33, 164.25 109.5, 164.52 109.67, 164.79 109.83, 165.06 110.0, 165.32 110.17, 165.59 110.33, 165.85 110.5, 166.11 110.67, 166.37 110.83, 166.63 111.0, 166.89 111.17, 167.14 111.33, 167.4 111.5, 167.65 111.67, 167.9 111.83, 168.15 112.0, 168.4 112.17, 168.65 112.33, 168.89 112.5, 169.14 112.67, 169.38 112.83, 169.62 113.0, 169.86 113.17, 170.1 113.33, 170.34 113.5, 170.58 113.67, 170.81 113.83, 171.05 114.0, 171.28 114.17, 171.52 114.33, 171.75 114.5, 171.98 114.67, 172.21 114.83, 172.44 115.0, 172.67 115.17, 172.9 115.33, 173.12 115.5, 173.35 115.67, 173.57 115.83, 173.8 116.0, 174.02 116.17, 174.24 116.33, 174.47 116.5, 174.69 116.67, 174.91 116.83, 175.13 117.0, 175.35 117.17, 175.56 117.33, 175.78 117.5, 176.0 117.67, 176.21 117.83, 176.43 118.0, 176.64 118.17, 176.86 118.33, 177.07 118.5, 177.29 118.67, 177.5 118.83, 177.71 119.0, 177.92 119.17, 178.13 119.33, 178.34 119.5, 178.55 119.67, 178.76 119.83, 178.97 120.0, 179.18 120.17, 179.39 120.33, 179.6 120.5, 179.8 120.67, 180.01 120.83, 180.22 121.0, 180.42 121.17, 180.63 121.33, 180.83 121.5, 181.04 121.67, 181.24 121.83, 181.45 122.0, 181.65 122.17, 181.85 122.33, 182.06 122.5, 182.26 122.67, 182.46 122.83, 182.67 123.0, 182.87 123.17, 183.07 123.33, 183.27 123.5, 183.47 123.67, 183.67 123.83, 183.87 124.0, 184.07 124.17, 184.27 124.33, 184.47 124.5, 184.67 124.67, 184.87 124.83, 185.07 125.0, 185.27 125.17, 185.47 125.33, 185.67 125.5, 185.87 125.67, 186.07 125.83, 186.26 126.0, 186.46 126.17, 186.66 126.33, 186.86 126.5, 187.05 126.67, 187.25 126.83, 187.45 127.0, 187.64 127.17, 187.84 127.33, 188.04 127.5, 188.23 127.67, 188.43 127.83, 188.62 128.0, 188.82 128.17, 189.01 128.33, 189.21 128.5, 189.4 128.67, 189.6 128.83, 189.79 129.0, 189.99 129.17, 190.18 129.33, 190.38 129.5, 190.57 129.67, 190.76 129.83, 190.96 130.0, 191.15 130.17, 191.34 130.33, 191.54 130.5, 191.73 130.67, 191.92 130.83, 192.12 131.0, 192.31 131.17, 192.5 131.33, 192.69 131.5, 192.88 131.67, 193.08 131.83, 193.27 132.0, 193.46 132.17, 193.65 132.33, 193.84 132.5, 194.03 132.67, 194.22 132.83, 194.41 133.0, 194.6 133.17, 194.79 133.33, 194.98 133.5, 195.17 133.67, 195.36 133.83, 195.55 134.0, 195.74 134.17, 195.93 134.33, 196.12 134.5, 196.3 134.67, 196.49 134.83, 196.68 135.0, 196.87 135.17, 197.05 135.33, 197.24 135.5, 197.43 135.67, 197.61 135.83, 197.8 136.0, 197.98 136.17, 198.17 136.33, 198.35 136.5, 198.54 136.67, 198.72 136.83, 198.91 137.0, 199.09 137.17, 199.27 137.33, 199.46 137.5, 199.64 137.67, 199.82 137.83, 200.0 138.0, 200.19 138.17, 200.37 138.33, 200.55 138.5, 200.73 138.67, 200.91 138.83, 201.09 139.0, 201.27 139.17, 201.45 139.33, 201.63 139.5, 201.8 139.67, 201.98 139.83, 202.16 140.0, 202.34 140.17, 202.51 140.33, 202.69 140.5, 202.86 140.67, 203.04 140.83, 203.21 141.0, 203.39 141.17, 203.56 141.33, 203.74 141.5, 203.91 141.67, 204.08 141.83, 204.25 142.0, 204.42 142.17, 204.59 142.33, 204.76 142.5, 204.93 142.67, 205.1 142.83, 205.27 143.0, 205.44 143.17, 205.61 143.33, 205.77 143.5, 205.94 143.67, 206.1 143.83, 206.27 144.0, 206.43 144.17, 206.6 144.33, 206.76 144.5, 206.92 144.67, 207.08 144.83, 207.25 145.0, 207.41 145.17, 207.57 145.33, 207.72 145.5, 207.88 145.67, 208.04 145.83, 208.2 146.0, 208.35 146.17, 208.51 146.33, 208.66 146.5, 208.82 146.67, 208.97 146.83, 209.12 147.0, 209.28 147.17, 209.43 147.33, 209.58 147.5, 209.73 147.67, 209.88 147.83, 210.02 148.0, 210.17 148.17, 210.32 148.33, 210.46 148.5, 210.61 148.67, 210.75 148.83, 210.89 149.0, 211.04 149.17, 211.18 149.33, 211.32 149.5, 211.46 149.67, 211.6 149.83, 211.73 150.0, 211.87 150.17, 212.01 150.33, 212.14 150.5, 212.28 150.67, 212.41 150.83, 212.54 151.0, 212.67 151.17, 212.8 151.33, 212.93 151.5, 213.06 151.67, 213.19 151.83, 213.31 152.0, 213.44 152.17, 213.56 152.33, 213.69 152.5, 213.81 152.67, 213.93 152.83, 214.05 153.0, 214.17 153.17, 214.29 153.33, 214.41 153.5, 214.52 153.67, 214.64 153.83, 214.75 154.0, 214.87 154.17, 214.98 154.33, 215.09 154.5, 215.2 154.67, 215.31 154.83, 215.42 155.0, 215.52 155.17, 215.63 155.33, 215.73 155.5, 215.84 155.67, 215.94 155.83, 216.04 156.0, 216.14 156.17, 216.24 156.33, 216.33 156.5, 216.43 156.67, 216.53 156.83, 216.62 157.0, 216.71 157.17, 216.8 157.33, 216.89 157.5, 216.98 157.67, 217.07 157.83, 217.16 158.0, 217.24 158.17, 217.33 158.33, 217.41 158.5, 217.49 158.67, 217.57 158.83, 217.65 159.0, 217.73 159.17, 217.81 159.33, 217.88 159.5, 217.96 159.67, 218.03 159.83, 218.1 160.0, 218.17 160.17, 218.24 160.33, 218.31 160.5, 218.38 160.67, 218.44 160.83, 218.51 161.0, 218.57 161.17, 218.63 161.33, 218.69 161.5, 218.75 161.67, 218.81 161.83, 218.86 162.0, 218.92 162.17, 218.97 162.33, 219.02 162.5, 219.07 162.67, 219.12 162.83, 219.17 163.0, 219.22 163.17, 219.26 163.33, 219.31 163.5, 219.35 163.67, 219.39 163.83, 219.43 164.0, 219.47 164.17, 219.51 164.33, 219.54 164.5, 219.58 164.67, 219.61 164.83, 219.64 165.0, 219.68 165.17, 219.7 165.33, 219.73 165.5, 219.76 165.67, 219.78 165.83, 219.81 166.0, 219.83 166.17, 219.85 166.33, 219.87 166.5, 219.89 166.67, 219.91 166.83, 219.92 167.0, 219.93 167.17, 219.95 167.33, 219.96 167.5, 219.97 167.67, 219.98 167.83, 219.98 168.0, 219.99 168.17, 219.99 168.33, 220.0 168.5, 220.0 168.67, 220.0 168.83, 220.0 169.0, 219.99 169.17, 219.99 169.33, 219.98 169.5, 219.98 169.67, 219.97 169.83, 219.96 170.0, 219.95 170.17, 219.94 170.33, 219.92 170.5, 219.91 170.67, 219.89 170.83, 219.87 171.0, 219.85 171.17, 219.83 171.33, 219.81 171.5, 219.79 171.67, 219.76 171.83, 219.74 172.0, 219.71 172.17, 219.68 172.33, 219.65 172.5, 219.62 172.67, 219.58 172.83, 219.55 173.0, 219.51 173.17, 219.48 173.33, 219.44 173.5, 219.4 173.67, 219.36 173.83, 219.31 174.0, 219.27 174.17, 219.23 174.33, 219.18 174.5, 219.13 174.67, 219.08 174.83, 219.03 175.0, 218.98 175.17, 218.93 175.33, 218.87 175.5, 218.82 175.67, 218.76 175.83, 218.7 176.0, 218.64 176.17, 218.58 176.33, 218.52 176.5, 218.45 176.67, 218.39 176.83, 218.32 177.0, 218.26 177.17, 218.19 177.33, 218.12 177.5, 218.05 177.67, 217.97 177.83, 217.9 178.0, 217.82 178.17, 217.75 178.33, 217.67 178.5, 217.59 178.67, 217.51 178.83, 217.43 179.0, 217.35 179.17, 217.26 179.33, 217.18 179.5, 217.09 179.67, 217.01 179.83, 216.92 180.0, 216.83 180.17, 216.74 180.33, 216.65 180.5, 216.55 180.67, 216.46 180.83, 216.36 181.0, 216.27 181.17, 216.17 181.33, 216.07 181.5, 215.97 181.67, 215.87 181.83, 215.77 182.0, 215.67 182.17, 215.56 182.33, 215.46 182.5, 215.35 182.67, 215.24 182.83, 215.14 183.0, 215.03 183.17, 214.92 183.33, 214.8 183.5, 214.69 183.67, 214.58 183.83, 214.46 184.0, 214.35 184.17, 214.23 184.33, 214.11 184.5, 213.99 184.67, 213.87 184.83, 213.75 185.0, 213.63 185.17, 213.51 185.33, 213.39 185.5, 213.26 185.67, 213.14 185.83, 213.01 186.0, 212.88 186.17, 212.76 186.33, 212.63 186.5, 212.5 186.67, 212.37 186.83, 212.24 187.0, 212.1 187.17, 211.97 187.33, 211.84 187.5, 211.7 187.67, 211.57 187.83, 211.43 188.0, 211.29 188.17, 211.15 188.33, 211.02 188.5, 210.88 188.67, 210.74 188.83, 210.6 189.0, 210.45 189.17, 210.31 189.33, 210.17 189.5, 210.02 189.67, 209.88 189.83, 209.73 190.0, 209.59 190.17, 209.44 190.33, 209.29 190.5, 209.15 190.67, 209.0 190.83, 208.85 191.0, 208.7 191.17, 208.55 191.33, 208.4 191.5, 208.25 191.67, 208.09 191.83, 207.94 192.0, 207.79 192.17, 207.63 192.33, 207.48 192.5, 207.33 192.67, 207.17 192.83, 207.01 193.0, 206.86 193.17, 206.7 193.33, 206.54 193.5, 206.39 193.67, 206.23 193.83, 206.07 194.0, 205.91 194.17, 205.75 194.33, 205.59 194.5, 205.43 194.67, 205.27 194.83, 205.11 195.0, 204.95 195.17, 204.79 195.33, 204.62 195.5, 204.46 195.67, 204.3 195.83, 204.14 196.0, 203.97 196.17, 203.81 196.33, 203.65 196.5, 203.48 196.67, 203.32 196.83, 203.15 197.0, 202.99 197.17, 202.82 197.33, 202.66 197.5, 202.49 197.67, 202.33 197.83, 202.16 198.0, 202.0 198.17, 201.83 198.33, 201.66 198.5, 201.5 198.67, 201.33 198.83, 201.17 199.0, 201.0 199.17, 200.83 199.33, 200.67 199.5, 200.5 199.67, 200.33 199.83, 200.17 200.0, 200.0 200.17, 199.83 200.33, 199.67 200.5, 199.5 200.67, 199.33 200.83, 199.17 201.0, 199.0 201.17, 198.83 201.33, 198.67 201.5, 198.5 201.67, 198.34 201.83, 198.17 202.0, 198.0 202.17, 197.84 202.33, 197.67 202.5, 197.51 202.67, 197.34 202.83, 197.18 203.0, 197.01 203.17, 196.85 203.33, 196.68 203.5, 196.52 203.67, 196.35 203.83, 196.19 204.0, 196.03 204.17, 195.86 204.33, 195.7 204.5, 195.54 204.67, 195.38 204.83, 195.21 205.0, 195.05 205.17, 194.89 205.33, 194.73 205.5, 194.57 205.67, 194.41 205.83, 194.25 206.0, 194.09 206.17, 193.93 206.33, 193.77 206.5, 193.61 206.67, 193.46 206.83, 193.3 207.0, 193.14 207.17, 192.99 207.33, 192.83 207.5, 192.67 207.67, 192.52 207.83, 192.37 208.0, 192.21 208.17, 192.06 208.33, 191.91 208.5, 191.75 208.67, 191.6 208.83, 191.45 209.0, 191.3 209.17, 191.15 209.33, 191.0 209.5, 190.85 209.67, 190.71 209.83, 190.56 210.0, 190.41 210.17, 190.27 210.33, 190.12 210.5, 189.98 210.67, 189.83 210.83, 189.69 211.0, 189.55 211.17, 189.4 211.33, 189.26 211.5, 189.12 211.67, 188.98 211.83, 188.85 212.0, 188.71 212.17, 188.57 212.33, 188.43 212.5, 188.3 212.67, 188.16 212.83, 188.03 213.0, 187.9 213.17, 187.76 213.33, 187.63 213.5, 187.5 213.67, 187.37 213.83, 187.24 214.0, 187.12 214.17, 186.99 214.33, 186.86 214.5, 186.74 214.67, 186.61 214.83, 186.49 215.0, 186.37 215.17, 186.25 215.33, 186.13 215.5, 186.01 215.67, 185.89 215.83, 185.77 216.0, 185.65 216.17, 185.54 216.33, 185.42 216.5, 185.31 216.67, 185.2 216.83, 185.08 217.0, 184.97 217.17, 184.86 217.33, 184.76 217.5, 184.65 217.67, 184.54 217.83, 184.44 218.0, 184.33 218.17, 184.23 218.33, 184.13 218.5, 184.03 218.67, 183.93 218.83, 183.83 219.0, 183.73 219.17, 183.64 219.33, 183.54 219.5, 183.45 219.67, 183.35 219.83, 183.26 220.0, 183.17 220.17, 183.08 220.33, 182.99 220.5, 182.91 220.67, 182.82 220.83, 182.74 221.0, 182.65 221.17, 182.57 221.33, 182.49 221.5, 182.41 221.67, 182.33 221.83, 182.25 222.0, 182.18 222.17, 182.1 222.33, 182.03 222.5, 181.95 222.67, 181.88 222.83, 181.81 223.0, 181.74 223.17, 181.68 223.33, 181.61 223.5, 181.55 223.67, 181.48 223.83, 181.42 224.0, 181.36 224.17, 181.3 224.33, 181.24 224.5, 181.18 224.67, 181.13 224.83, 181.07 225.0, 181.02 225.17, 180.97 225.33, 180.92 225.5, 180.87 225.67, 180.82 225.83, 180.77 226.0, 180.73 226.17, 180.69 226.33, 180.64 226.5, 180.6 226.67, 180.56 226.83, 180.52 227.0, 180.49 227.17, 180.45 227.33, 180.42 227.5, 180.38 227.67, 180.35 227.83, 180.32 228.0, 180.29 228.17, 180.26 228.33, 180.24 228.5, 180.21 228.67, 180.19 228.83, 180.17 229.0, 180.15 229.17, 180.13 229.33, 180.11 229.5, 180.09 229.67, 180.08 229.83, 180.06 230.0, 180.05 230.17, 180.04 230.33, 180.03 230.5, 180.02 230.67, 180.02 230.83, 180.01 231.0, 180.01 231.17, 180.0 231.33, 180.0 231.5, 180.0 231.67, 180.0 231.83, 180.01 232.0, 180.01 232.17, 180.02 232.33, 180.02 232.5, 180.03 232.67, 180.04 232.83, 180.05 233.0, 180.07 233.17, 180.08 233.33, 180.09 233.5, 180.11 233.67, 180.13 233.83, 180.15 234.0, 180.17 234.17, 180.19 234.33, 180.22 234.5, 180.24 234.67, 180.27 234.83, 180.3 235.0, 180.32 235.17, 180.36 235.33, 180.39 235.5, 180.42 235.67, 180.46 235.83, 180.49 236.0, 180.53 236.17, 180.57 236.33, 180.61 236.5, 180.65 236.67, 180.69 236.83, 180.74 237.0, 180.78 237.17, 180.83 237.33, 180.88 237.5, 180.93 237.67, 180.98 237.83, 181.03 238.0, 181.08 238.17, 181.14 238.33, 181.19 238.5, 181.25 238.67, 181.31 238.83, 181.37 239.0, 181.43 239.17, 181.49 239.33, 181.56 239.5, 181.62 239.67, 181.69 239.83, 181.76 240.0, 181.83 240.17, 181.9 240.33, 181.97 240.5, 182.04 240.67, 182.12 240.83, 182.19 241.0, 182.27 241.17, 182.35 241.33, 182.43 241.5, 182.51 241.67, 182.59 241.83, 182.67 242.0, 182.76 242.17, 182.84 242.33, 182.93 242.5, 183.02 242.67, 183.11 242.83, 183.2 243.0, 183.29 243.17, 183.38 243.33, 183.47 243.5, 183.57 243.67, 183.67 243.83, 183.76 244.0, 183.86 244.17, 183.96 244.33, 184.06 244.5, 184.16 244.67, 184.27 244.83, 184.37 245.0, 184.48 245.17, 184.58 245.33, 184.69 245.5, 184.8 245.67, 184.91 245.83, 185.02 246.0, 185.13 246.17, 185.25 246.33, 185.36 246.5, 185.48 246.67, 185.59 246.83, 185.71 247.0, 185.83 247.17, 185.95 247.33, 186.07 247.5, 186.19 247.67, 186.31 247.83, 186.44 248.0, 186.56 248.17, 186.69 248.33, 186.81 248.5, 186.94 248.67, 187.07 248.83, 187.2 249.0, 187.33 249.17, 187.46 249.33, 187.59 249.5, 187.72 249.67, 187.86 249.83, 187.99 250.0, 188.13 250.17, 188.27 250.33, 188.4 250.5, 188.54 250.67, 188.68 250.83, 188.82 251.0, 188.96 251.17, 189.11 251.33, 189.25 251.5, 189.39 251.67, 189.54 251.83, 189.68 252.0, 189.83 252.17, 189.98 252.33, 190.12 252.5, 190.27 252.67, 190.42 252.83, 190.57 253.0, 190.72 253.17, 190.88 253.33, 191.03 253.5, 191.18 253.67, 191.34 253.83, 191.49 254.0, 191.65 254.17, 191.8 254.33, 191.96 254.5, 192.12 254.67, 192.28 254.83, 192.43 255.0, 192.59 255.17, 192.75 255.33, 192.92 255.5, 193.08 255.67, 193.24 255.83, 193.4 256.0, 193.57 256.17, 193.73 256.33, 193.9 256.5, 194.06 256.67, 194.23 256.83, 194.39 257.0, 194.56 257.17, 194.73 257.33, 194.9 257.5, 195.07 257.67, 195.24 257.83, 195.41 258.0, 195.58 258.17, 195.75 258.33, 195.92 258.5, 196.09 258.67, 196.26 258.83, 196.44 259.0, 196.61 259.17, 196.79 259.33, 196.96 259.5, 197.14 259.67, 197.31 259.83, 197.49 260.0, 197.66 260.17, 197.84 260.33, 198.02 260.5, 198.2 260.67, 198.37 260.83, 198.55 261.0, 198.73 261.17, 198.91 261.33, 199.09 261.5, 199.27 261.67, 199.45 261.83, 199.63 262.0, 199.81 262.17, 200.0 262.33, 200.18 262.5, 200.36 262.67, 200.54 262.83, 200.73 263.0, 200.91 263.17, 201.09 263.33, 201.28 263.5, 201.46 263.67, 201.65 263.83, 201.83 264.0, 202.02 264.17, 202.2 264.33, 202.39 264.5, 202.57 264.67, 202.76 264.83, 202.95 265.0, 203.13 265.17, 203.32 265.33, 203.51 265.5, 203.7 265.67, 203.88 265.83, 204.07 266.0, 204.26 266.17, 204.45 266.33, 204.64 266.5, 204.83 266.67, 205.02 266.83, 205.21 267.0, 205.4 267.17, 205.59 267.33, 205.78 267.5, 205.97 267.67, 206.16 267.83, 206.35 268.0, 206.54 268.17, 206.73 268.33, 206.92 268.5, 207.12 268.67, 207.31 268.83, 207.5 269.0, 207.69 269.17, 207.88 269.33, 208.08 269.5, 208.27 269.67, 208.46 269.83, 208.66 270.0, 208.85 270.17, 209.04 270.33, 209.24 270.5, 209.43 270.67, 209.62 270.83, 209.82 271.0, 210.01 271.17, 210.21 271.33, 210.4 271.5, 210.6 271.67, 210.79 271.83, 210.99 272.0, 211.18 272.17, 211.38 272.33, 211.57 272.5, 211.77 272.67, 211.96 272.83, 212.16 273.0, 212.36 273.17, 212.55 273.33, 212.75 273.5, 212.95 273.67, 213.14 273.83, 213.34 274.0, 213.54 274.17, 213.74 274.33, 213.93 274.5, 214.13 274.67, 214.33 274.83, 214.53 275.0, 214.73 275.17, 214.93 275.33, 215.13 275.5, 215.33 275.67, 215.53 275.83, 215.73 276.0, 215.93 276.17, 216.13 276.33, 216.33 276.5, 216.53 276.67, 216.73 276.83, 216.93 277.0, 217.13 277.17, 217.33 277.33, 217.54 277.5, 217.74 277.67, 217.94 277.83, 218.15 278.0, 218.35 278.17, 218.55 278.33, 218.76 278.5, 218.96 278.67, 219.17 278.83, 219.37 279.0, 219.58 279.17, 219.78 279.33, 219.99 279.5, 220.2 279.67, 220.4 279.83, 220.61 280.0, 220.82 280.17, 221.03 280.33, 221.24 280.5, 221.45 280.67, 221.66 280.83, 221.87 281.0, 222.08 281.17, 222.29 281.33, 222.5 281.5, 222.71 281.67, 222.93 281.83, 223.14 282.0, 223.36 282.17, 223.57 282.33, 223.79 282.5, 224.0 282.67, 224.22 282.83, 224.44 283.0, 224.65 283.17, 224.87 283.33, 225.09 283.5, 225.31 283.67, 225.53 283.83, 225.76 284.0, 225.98 284.17, 226.2 284.33, 226.43 284.5, 226.65 284.67, 226.88 284.83, 227.1 285.0, 227.33 285.17, 227.56 285.33, 227.79 285.5, 228.02 285.67, 228.25 285.83, 228.48 286.0, 228.72 286.17, 228.95 286.33, 229.19 286.5, 229.42 286.67, 229.66 286.83, 229.9 287.0, 230.14 287.17, 230.38 287.33, 230.62 287.5, 230.86 287.67, 231.11 287.83, 231.35 288.0, 231.6 288.17, 231.85 288.33, 232.1 288.5, 232.35 288.67, 232.6 288.83, 232.86 289.0, 233.11 289.17, 233.37 289.33, 233.63 289.5, 233.89 289.67, 234.15 289.83, 234.41 290.0, 234.68 290.17, 234.94 290.33, 235.21 290.5, 235.48 290.67, 235.75 290.83, 236.02 291.0, 236.3 291.17, 236.57 291.33, 236.85 291.5, 237.13 291.67, 237.41 291.83, 237.7 292.0, 237.98 292.17, 238.27 292.33, 238.56 292.5, 238.85 292.67, 239.15 292.83, 239.44 293.0, 239.74 293.17, 240.04 293.33, 240.34 293.5, 240.65 293.67, 240.96 293.83, 241.27 294.0, 241.58 294.17, 241.89 294.33, 242.21 294.5, 242.53 294.67, 242.85 294.83, 243.17 295.0, 243.5 295.17, 243.83 295.33, 244.16 295.5, 244.5 295.67, 244.84 295.83, 245.18 296.0, 245.52 296.17, 245.87 296.33, 246.22 296.5, 246.57 296.67, 246.92 296.83, 247.28 297.0, 247.64 297.17, 248.01 297.33, 248.37 297.5, 248.74 297.67, 249.12 297.83, 249.5 298.0, 249.88 298.17, 250.26 298.33, 250.65 298.5, 251.04 298.67, 251.43 298.83, 251.83 299.0, 252.23 299.17, 252.64 299.33, 253.05 299.5, 253.46 299.67, 253.88 299.83, 254.3 300.0, 254.72 300.17, 255.15 300.33, 255.58 300.5, 256.02 300.67, 256.46 300.83, 256.9 301.0, 257.35 301.17, 257.81 301.33, 258.26 301.5, 258.72 301.67, 259.19 301.83, 259.66 302.0, 260.14 302.17, 260.62 302.33, 261.1 302.5, 261.59 302.67, 262.08 302.83, 262.58 303.0, 263.08 303.17, 263.59 303.33, 264.11 303.5, 264.62 303.67, 265.15 303.83, 265.68 304.0, 266.21 304.17, 266.75 304.33, 267.29 304.5, 267.84 304.67, 268.39 304.83, 268.96 305.0, 269.52 305.17, 270.09 305.33, 270.67 305.5, 271.25 305.67, 271.84 305.83, 272.43 306.0, 273.03 306.17, 273.64 306.33, 274.25 306.5, 274.87 306.67, 275.49 306.83, 276.12 307.0, 276.76 307.17, 277.4 307.33, 278.05 307.5, 278.71 307.67, 279.37 307.83, 280.04 308.0, 280.71 308.17, 281.39 308.33, 282.08 308.5, 282.78 308.67, 283.48 308.83, 284.19 309.0, 284.9 309.17, 285.63 309.33, 286.36 309.5, 287.1 309.67, 287.84 309.83, 288.59 310.0, 289.35 310.17, 290.12 310.33, 290.89 310.5, 291.67 310.67, 292.46 310.83, 293.26 311.0, 294.07 311.17, 294.88 311.33, 295.7 311.5, 296.53 311.67, 297.37 311.83, 298.21 312.0, 299.06 312.17, 299.92 312.33, 300.79 312.5, 301.67 312.67, 302.56 312.83, 303.45 313.0, 304.36 313.17, 305.27 313.33, 306.19 313.5, 307.12 313.67, 308.06 313.83, 309.01 314.0, 309.97 314.17, 310.93 314.33, 311.91 314.5, 312.89 314.67, 313.88 314.83, 314.89 315.0, 315.9 315.17, 316.92 315.33, 317.95 315.5, 318.99 315.67, 320.05 315.83, 321.11 316.0, 322.18 316.17, 323.26 316.33, 324.35 316.5, 325.45 316.67, 326.56 316.83, 327.68 317.0, 328.81 317.17, 329.96 317.33, 331.11 317.5, 332.27 317.67, 333.44 317.83, 334.63 318.0, 335.82 318.17, 337.03 318.33, 338.25 318.5, 339.47 318.67, 340.71 318.83, 341.96 319.0, 343.22 319.17, 344.5 319.33, 345.78 319.5, 347.07 319.67, 348.38 319.83, 349.7 320.0, 351.03 320.17, 352.37 320.33, 353.72 320.5, 355.09 320.67, 356.46 320.83, 357.85 321.0, 359.25 321.17, 360.67 321.33, 362.09 321.5, 363.53 321.67, 364.98 321.83, 366.44 322.0, 367.92 322.17, 369.4 322.33, 370.9 322.5, 372.42 322.67, 373.94 322.83, 375.48 323.0, 377.03 323.17, 378.59 323.33, 380.17 323.5, 381.76 323.67, 383.36 323.83, 384.98 324.0, 386.61 324.17, 388.25 324.33, 389.91 324.5, 391.58 324.67, 393.26 324.83, 394.96 325.0, 396.67 325.17, 398.4 325.33, 400.14 325.5, 401.89 325.67, 403.66 325.83, 405.44 326.0, 407.23 326.17, 409.04 326.33, 410.86 326.5, 412.7 326.67, 414.55 326.83, 416.42 327.0, 418.3 327.17, 420.2 327.33, 422.11 327.5, 424.03 327.67, 425.97 327.83, 427.92 328.0, 429.89 328.17, 431.88 328.33, 433.88 328.5, 435.89 328.67, 437.92 328.83, 439.96 329.0, 442.02 329.17, 444.1 329.33, 446.19 329.5, 448.29 329.67, 450.41 329.83, 452.55 330.0, 454.7 330.17, 456.87 330.33, 459.05 330.5, 461.25 330.67, 463.46 330.83, 465.69 331.0, 467.94 331.17, 470.2 331.33, 472.48 331.5, 474.77 331.67, 477.08 331.83, 479.41 332.0, 481.75 332.17, 484.11 332.33, 486.48 332.5, 488.87 332.67, 491.28 332.83, 493.7 333.0, 496.14 333.17, 498.6 333.33, 501.07 333.5, 503.56 333.67, 506.07 333.83, 508.59 334.0, 511.13 334.17, 513.68 334.33, 516.25 334.5, 518.84 334.67, 521.45 334.83, 524.07 335.0, 526.71 335.17, 529.36 335.33, 532.04 335.5, 534.72 335.67, 537.43 335.83, 540.15 336.0, 542.89 336.17, 545.65 336.33, 548.42 336.5, 551.21 336.67, 554.02 336.83, 556.85 337.0, 559.69 337.17, 562.55 337.33, 565.42 337.5, 568.32 337.67, 571.23 337.83, 574.15 338.0, 577.1 338.17, 580.06 338.33, 583.04 338.5, 586.03 338.67, 589.04 338.83, 592.07 339.0, 595.12 339.17, 598.18 339.33, 601.26 339.5, 604.36 339.67, 607.48 339.83, 610.61 340.0, 613.76 340.17, 616.93 340.33, 620.11 340.5, 623.31 340.67, 626.53 340.83, 629.76 341.0, 633.01 341.17, 636.28 341.33, 639.56 341.5, 642.87 341.67, 646.19 341.83, 649.52 342.0, 652.87 342.17, 656.24 342.33, 659.63 342.5, 663.03 342.67, 666.45 342.83, 669.89 343.0, 673.34 343.17, 676.81 343.33, 680.29 343.5, 683.8 343.67, 687.32 343.83, 690.85 344.0, 694.4 344.17, 697.97 344.33, 701.55 344.5, 705.15 344.67, 708.77 344.83, 712.4 345.0, 716.05 345.17, 719.71 345.33, 723.39 345.5, 727.09 345.67, 730.8 345.83, 734.52 346.0, 738.27 346.17, 742.02 346.33, 745.8 346.5, 749.58 346.67, 753.39 346.83, 757.21 347.0, 761.04 347.17, 764.89 347.33, 768.75 347.5, 772.63 347.67, 776.52 347.83, 780.43 348.0, 784.35 348.17, 788.28 348.33, 792.23 348.5, 796.2 348.67, 800.17 348.83, 804.16 349.0, 808.17 349.17, 812.19 349.33, 816.22 349.5, 820.26 349.67, 824.32 349.83, 828.39 350.0, 832.48 350.17, 836.57 350.33, 840.68 350.5, 844.8 350.67, 848.94 350.83, 853.08 351.0, 857.24 351.17, 861.41 351.33, 865.59 351.5, 869.78 351.67, 873.99 351.83, 878.2 352.0, 882.43 352.17, 886.66 352.33, 890.91 352.5, 895.17 352.67, 899.43 352.83, 903.71 353.0, 908.0 353.17, 912.29 353.33, 916.6 353.5, 920.91 353.67, 925.24 353.83, 929.57 354.0, 933.91 354.17, 938.26 354.33, 942.62 354.5, 946.98 354.67, 951.36 354.83, 955.74 355.0, 960.12 355.17, 964.52 355.33, 968.92 355.5, 973.32 355.67, 977.73 355.83, 982.15 356.0, 986.58 356.17, 991.01 356.33, 995.44 356.5, 999.88 356.67, 1004.32 356.83, 1008.77 357.0, 1013.22 357.17, 1017.67 357.33, 1022.13 357.5, 1026.59 357.67, 1031.05 357.83, 1035.52 358.0, 1039.99 358.17, 1044.45 358.33, 1048.92 358.5, 1053.4 358.67, 1057.87 358.83, 1062.34 359.0, 1066.81 359.17, 1071.28 359.33, 1075.75 359.5, 1080.22 359.67, 1084.69 359.83, 1089.15 360.0, 1093.62 360.17, 1098.08 360.33, 1102.54 360.5, 1106.99 360.67, 1111.44 360.83, 1115.89 361.0, 1120.33 361.17, 1124.77 361.33, 1129.2 361.5, 1133.62 361.67, 1138.04 361.83, 1142.45 362.0, 1146.86 362.17, 1151.26 362.33, 1155.65 362.5, 1160.03 362.67, 1164.4 362.83, 1168.76 363.0, 1173.11 363.17, 1177.45 363.33, 1181.78 363.5, 1186.1 363.67, 1190.41 363.83, 1194.71 364.0, 1198.99 364.17, 1203.26 364.33, 1207.51 364.5, 1211.75 364.67, 1215.98 364.83, 1220.19 365.0, 1224.38 365.17, 1228.56 365.33, 1232.72 365.5, 1236.86 365.67, 1240.98 365.83, 1245.08 366.0, 1249.17 366.17, 1253.23 366.33, 1257.28 366.5, 1261.3 366.67, 1265.3 366.83, 1269.28 367.0, 1273.23 367.17, 1277.17 367.33, 1281.07 367.5, 1284.95 367.67, 1288.81 367.83, 1292.64 368.0, 1296.44 368.17, 1300.22 368.33, 1303.96 368.5, 1307.68 368.67, 1311.37 368.83, 1315.02 369.0, 1318.65 369.17, 1322.24 369.33, 1325.8 369.5, 1329.33 369.67, 1332.82 369.83, 1336.28 370.0, 1339.7 370.17, 1343.09 370.33, 1346.44 370.5, 1349.75 370.67, 1353.02 370.83, 1356.25 371.0, 1359.45 371.17, 1362.6 371.33, 1365.71 371.5, 1368.77 371.67, 1371.79 371.83, 1374.77 372.0, 1377.7 372.17, 1380.59 372.33, 1383.43 372.5, 1386.22 372.67, 1388.96 372.83, 1391.66 373.0, 1394.3 373.17, 1396.89 373.33, 1399.43 373.5, 1401.91 373.67, 1404.34 373.83, 1406.72 374.0, 1409.03 374.17, 1411.29 374.33, 1413.5 374.5, 1415.64 374.67, 1417.72 374.83, 1419.75 375.0, 1421.7 375.17, 1423.6 375.33, 1425.43 375.5, 1427.2 375.67, 1428.9 375.83, 1430.53 376.0, 1432.1 376.17, 1433.59 376.33, 1435.01 376.5, 1436.37 376.67, 1437.64 376.83, 1438.85 377.0, 1439.98 377.17, 1441.03 377.33, 1442.01 377.5, 1442.9 377.67, 1443.72 377.83, 1444.46 378.0, 1445.11 378.17, 1445.68 378.33, 1446.16 378.5, 1446.56 378.67, 1446.88 378.83, 1447.1 379.0, 1447.23 379.17, 1447.28 379.33, 1447.23 379.5, 1447.08 379.67, 1446.84 379.83, 1446.51 380.0, 1446.08 380.17, 1445.55 380.33, 1444.92 380.5, 1444.19 380.67, 1443.35 380.83, 1442.41 381.0, 1441.36 381.17, 1440.21 381.33, 1438.95 381.5, 1437.58 381.67, 1436.1 381.83, 1434.5 382.0, 1432.79 382.17, 1430.96 382.33, 1429.02 382.5, 1426.96 382.67, 1424.77 382.83, 1422.47 383.0, 1420.04 383.17, 1417.48 383.33, 1414.8 383.5, 1411.99 383.67, 1409.05 383.83, 1405.98 384.0, 1402.78 384.17, 1399.44 384.33, 1395.96 384.5, 1392.35 384.67, 1388.6 384.83, 1384.7 385.0, 1380.66 385.17, 1376.48 385.33, 1372.15 385.5, 1367.67 385.67, 1363.04 385.83, 1358.26 386.0, 1353.32 386.17, 1348.23 386.33, 1342.99 386.5, 1337.58 386.67, 1332.01 386.83, 1326.28 387.0, 1320.38 387.17, 1314.32 387.33, 1308.08 387.5, 1301.68 387.67, 1295.1 387.83, 1288.35 388.0, 1281.43 388.17, 1274.32 388.33, 1267.03 388.5, 1259.57 388.67, 1251.91 388.83, 1244.07 389.0, 1236.04 389.17, 1227.82 389.33, 1219.41 389.5, 1210.8 389.67, 1201.99 389.83, 1192.99 390.0, 1183.78 390.17, 1174.37 390.33, 1164.75 390.5, 1154.93 390.67, 1144.89 390.83, 1134.64 391.0, 1124.18 391.17, 1113.5 391.33, 1102.6 391.5, 1091.48 391.67, 1080.13 391.83, 1068.56 392.0, 1056.76 392.17, 1044.72 392.33, 1032.46 392.5, 1019.95 392.67, 1007.21 392.83, 994.23 393.0, 981.0 393.17, 967.53 393.33, 953.81 393.5, 939.84 393.67, 925.61 393.83, 911.13 394.0, 896.39 394.17, 881.38 394.33, 866.12 394.5, 850.58 394.67, 834.78 394.83, 818.7 395.0, 802.35 395.17, 785.73 395.33, 768.82 395.5, 751.63 395.67, 734.15 395.83, 716.38 396.0, 698.33 396.17, 679.97 396.33, 661.32 396.5, 642.37 396.67, 623.12 396.83, 603.56 397.0, 583.7 397.17, 563.52 397.33, 543.02 397.5, 522.21 397.67, 501.08 397.83, 479.62 398.0, 457.83 398.17, 435.72 398.33, 413.27 398.5, 390.49 398.67, 367.36 398.83, 343.9 399.0, 320.08 399.17, 295.92 399.33, 271.4 399.5, 246.53 399.67, 221.3 399.83, 195.71 400.0, 169.75 " fill="none" stroke="white" stroke-width="1.5" stroke-linejoin="round" stroke-opacity="1"/>

 </svg>