<svg version="1.1" 
 baseProfile="full" 
 width="400" 
 height="400" 
 xmlns="http://www.w3.org/2000/svg">
<rect x="0.0" y="0.0" width="400" height="400" fill="black" stroke="black" stroke-width="0" opacity="1"/>
<line x1="0.0" y1="0.0" x2="0.0" y2="400.0" stroke="white" stroke-width="1" opacity="0.4" stroke-linecap="butt"/>
<line x1="40.0" y1="0.0" x2="40.0" y2="400.0" stroke="white" stroke-width="1" opacity="0.4" stroke-linecap="butt"/>
<line x1="80.0" y1="0.0" x2="80.0" y2="400.0" stroke="white" stroke-width="1" opacity="0.4" stroke-linecap="butt"/>
<line x1="120.0" y1="0.0" x2="120.0" y2="400.0" stroke="white" stroke-width="1" opacity="0.4" stroke-linecap="butt"/>
<line x1="160.0" y1="0.0" x2="160.0" y2="400.0" stroke="white" stroke-width="1" opacity="0.4" stroke-linecap="butt"/>
<line x1="200.0" y1="0.0" x2="200.0" y2="400.0" stroke="white" stroke-width="1" opacity="0.4" stroke-linecap="butt"/>
<line x1="240.0" y1="0.0" x2="240.0" y2="400.0" stroke="white" stroke-width="1" opacity="0.4" stroke-linecap="butt"/>
<line x1="280.0" y1="0.0" x2="280.0" y2="400.0" stroke="white" stroke-width="1" opacity="0.4" stroke-linecap="butt"/>
<line x1="320.0" y1="0.0" x2="320.0" y2="400.0" stroke="white" stroke-width="1" opacity="0.4" stroke-linecap="butt"/>
<line x1="360.0" y1="0.0" x2="360.0" y2="400.0" stroke="white" stroke-width="1" opacity="0.4" stroke-linecap="butt"/>
<line x1="0.0" y1="0.0" x2="400.0" y2="0.0" stroke="white" stroke-width="1" opacity="0.4" stroke-linecap="butt"/>
<line x1="0.0" y1="40.0" x2="400.0" y2="40.0" stroke="white" stroke-width="1" opacity="0.4" stroke-linecap="butt"/>
<line x1="0.0" y1="80.0" x2="400.0" y2="80.0" stroke="white" stroke-width="1" opacity="0.4" stroke-linecap="butt"/>
<line x1="0.0" y1="120.0" x2="400.0" y2="120.0" stroke="white" stroke-width="1" opacity="0.4" stroke-linecap="butt"/>
<line x1="0.0" y1="160.0" x2="400.0" y2="160.0" stroke="white" stroke-width="1" opacity="0.4" stroke-linecap="butt"/>
<line x1="0.0" y1="200.0" x2="400.0" y2="200.0" stroke="white" stroke-width="1" opacity="0.4" stroke-linecap="butt"/>
<line x1="0.0" y1="240.0" x2="400.0" y2="240.0" stroke="white" stroke-width="1" opacity="0.4" stroke-linecap="butt"/>
<line x1="0.0" y1="280.0" x2="400.0" y2="280.0" stroke="white" stroke-width="1" opacity="0.4" stroke-linecap="butt"/>
<line x1="0.0" y1="320.0" x2="400.0" y2="320.0" stroke="white" stroke-width="1" opacity="0.4" stroke-linecap="butt"/>
<line x1="0.0" y1="360.0" x2="400.0" y2="360.0" stroke="white" stroke-width="1" opacity="0.4" stroke-linecap="butt"/>
<line x1="0.0" y1="200.0" x2="400.0" y2="200.0" stroke="yellow" stroke-width="2.5" opacity="1" stroke-linecap="butt"/>
<line x1="200.0" y1="0.0" x2="200.0" y2="400.0" stroke="yellow" stroke-width="2.5" opacity="1" stroke-linecap="butt"/>
<polygon points="391.0 204.0, 401.0 200.0, 391.0 196.0, 393.0 200.0" fill="yellow"/><polygon points="204.0 9.0, 200.0 -1.0, 196.0 9.0, 200.0 7.0" fill="yellow"/><image x="-60.0" y="-60.0" width="200" height="200" href="/Users/girirajhira/PycharmProjects/Giraphics3/Taylor/expr.png"/><polyline points="0.0, 2297.05 0.17, 2255.64 0.33, 2214.7 0.5, 2174.22 0.67, 2134.21 0.83, 2094.65 1.0, 2055.55 1.17, 2016.89 1.33, 1978.68 1.5, 1940.92 1.67, 1903.59 1.83, 1866.69 2.0, 1830.22 2.17, 1794.18 2.33, 1758.57 2.5, 1723.37 2.67, 1688.59 2.83, 1654.22 3.0, 1620.25 3.17, 1586.7 3.33, 1553.54 3.5, 1520.78 3.67, 1488.42 3.83, 1456.45 4.0, 1424.86 4.17, 1393.66 4.33, 1362.84 4.5, 1332.4 4.67, 1302.33 4.83, 1272.63 5.0, 1243.3 5.17, 1214.34 5.33, 1185.73 5.5, 1157.49 5.67, 1129.59 5.83, 1102.05 6.0, 1074.86 6.17, 1048.01 6.33, 1021.5 6.5, 995.33 6.67, 969.5 6.83, 944.0 7.0, 918.83 7.17, 893.99 7.33, 869.47 7.5, 845.27 7.67, 821.39 7.83, 797.82 8.0, 774.57 8.17, 751.63 8.33, 728.99 8.5, 706.65 8.67, 684.62 8.83, 662.88 9.0, 641.43 9.17, 620.28 9.33, 599.42 9.5, 578.85 9.67, 558.56 9.83, 538.55 10.0, 518.82 10.17, 499.36 10.33, 480.18 10.5, 461.27 10.67, 442.63 10.83, 424.25 11.0, 406.14 11.17, 388.29 11.33, 370.69 11.5, 353.35 11.67, 336.26 11.83, 319.43 12.0, 302.84 12.17, 286.5 12.33, 270.4 12.5, 254.54 12.67, 238.92 12.83, 223.53 13.0, 208.38 13.17, 193.46 13.33, 178.77 13.5, 164.31 13.67, 150.07 13.83, 136.06 14.0, 122.26 14.17, 108.68 14.33, 95.32 14.5, 82.17 14.67, 69.23 14.83, 56.5 15.0, 43.98 15.17, 31.67 15.33, 19.55 15.5, 7.64 15.67, -4.07 15.83, -15.59 16.0, -26.92 16.17, -38.05 16.33, -48.99 16.5, -59.74 16.67, -70.3 16.83, -80.68 17.0, -90.88 17.17, -100.9 17.33, -110.74 17.5, -120.4 17.67, -129.89 17.83, -139.2 18.0, -148.34 18.17, -157.32 18.33, -166.12 18.5, -174.76 18.67, -183.24 18.83, -191.55 19.0, -199.71 19.17, -207.7 19.33, -215.54 19.5, -223.22 19.67, -230.75 19.83, -238.13 20.0, -245.36 20.17, -252.44 20.33, -259.37 20.5, -266.16 20.67, -272.8 20.83, -279.31 21.0, -285.67 21.17, -291.89 21.33, -297.98 21.5, -303.93 21.67, -309.75 21.83, -315.44 22.0, -320.99 22.17, -326.42 22.33, -331.72 22.5, -336.89 22.67, -341.94 22.83, -346.86 23.0, -351.66 23.17, -356.34 23.33, -360.91 23.5, -365.35 23.67, -369.68 23.83, -373.9 24.0, -378.0 24.17, -381.99 24.33, -385.87 24.5, -389.64 24.67, -393.3 24.83, -396.86 25.0, -400.31 25.17, -403.65 25.33, -406.9 25.5, -410.04 25.67, -413.08 25.83, -416.02 26.0, -418.87 26.17, -421.62 26.33, -424.28 26.5, -426.84 26.67, -429.31 26.83, -431.68 27.0, -433.97 27.17, -436.17 27.33, -438.28 27.5, -440.3 27.67, -442.24 27.83, -444.09 28.0, -445.86 28.17, -447.55 28.33, -449.16 28.5, -450.68 28.67, -452.13 28.83, -453.5 29.0, -454.79 29.17, -456.01 29.33, -457.15 29.5, -458.22 29.67, -459.22 29.83, -460.14 30.0, -461.0 30.17, -461.78 30.33, -462.5 30.5, -463.15 30.67, -463.73 30.83, -464.25 31.0, -464.7 31.17, -465.08 31.33, -465.41 31.5, -465.67 31.67, -465.88 31.83, -466.02 32.0, -466.1 32.17, -466.13 32.33, -466.09 32.5, -466.0 32.67, -465.86 32.83, -465.66 33.0, -465.41 33.17, -465.1 33.33, -464.74 33.5, -464.33 33.67, -463.87 33.83, -463.36 34.0, -462.8 34.17, -462.19 34.33, -461.54 34.5, -460.84 34.67, -460.09 34.83, -459.3 35.0, -458.46 35.17, -457.58 35.33, -456.66 35.5, -455.69 35.67, -454.69 35.83, -453.64 36.0, -452.55 36.17, -451.43 36.33, -450.26 36.5, -449.06 36.67, -447.82 36.83, -446.54 37.0, -445.23 37.17, -443.88 37.33, -442.5 37.5, -441.09 37.67, -439.64 37.83, -438.16 38.0, -436.64 38.17, -435.1 38.33, -433.52 38.5, -431.92 38.67, -430.28 38.83, -428.62 39.0, -426.93 39.17, -425.21 39.33, -423.46 39.5, -421.69 39.67, -419.89 39.83, -418.07 40.0, -416.22 40.17, -414.34 40.33, -412.45 40.5, -410.53 40.67, -408.58 40.83, -406.62 41.0, -404.63 41.17, -402.62 41.33, -400.59 41.5, -398.54 41.67, -396.47 41.83, -394.38 42.0, -392.28 42.17, -390.15 42.33, -388.01 42.5, -385.85 42.67, -383.67 42.83, -381.48 43.0, -379.27 43.17, -377.04 43.33, -374.8 43.5, -372.55 43.67, -370.28 43.83, -368.0 44.0, -365.7 44.17, -363.39 44.33, -361.07 44.5, -358.74 44.67, -356.39 44.83, -354.03 45.0, -351.67 45.17, -349.29 45.33, -346.9 45.5, -344.5 45.67, -342.09 45.83, -339.68 46.0, -337.25 46.17, -334.82 46.33, -332.38 46.5, -329.93 46.67, -327.47 46.83, -325.01 47.0, -322.54 47.17, -320.06 47.33, -317.58 47.5, -315.09 47.67, -312.6 47.83, -310.1 48.0, -307.59 48.17, -305.09 48.33, -302.57 48.5, -300.06 48.67, -297.54 48.83, -295.02 49.0, -292.49 49.17, -289.96 49.33, -287.43 49.5, -284.9 49.67, -282.36 49.83, -279.83 50.0, -277.29 50.17, -274.75 50.33, -272.21 50.5, -269.67 50.67, -267.13 50.83, -264.59 51.0, -262.05 51.17, -259.51 51.33, -256.97 51.5, -254.43 51.67, -251.89 51.83, -249.36 52.0, -246.82 52.17, -244.29 52.33, -241.76 52.5, -239.23 52.67, -236.7 52.83, -234.18 53.0, -231.65 53.17, -229.14 53.33, -226.62 53.5, -224.11 53.67, -221.6 53.83, -219.09 54.0, -216.59 54.17, -214.09 54.33, -211.6 54.5, -209.11 54.67, -206.63 54.83, -204.15 55.0, -201.67 55.17, -199.2 55.33, -196.74 55.5, -194.28 55.67, -191.82 55.83, -189.37 56.0, -186.93 56.17, -184.49 56.33, -182.06 56.5, -179.64 56.67, -177.22 56.83, -174.81 57.0, -172.4 57.17, -170.0 57.33, -167.61 57.5, -165.23 57.67, -162.85 57.83, -160.48 58.0, -158.11 58.17, -155.76 58.33, -153.41 58.5, -151.07 58.67, -148.73 58.83, -146.41 59.0, -144.09 59.17, -141.78 59.33, -139.48 59.5, -137.19 59.67, -134.9 59.83, -132.62 60.0, -130.36 60.17, -128.1 60.33, -125.85 60.5, -123.6 60.67, -121.37 60.83, -119.14 61.0, -116.93 61.17, -114.72 61.33, -112.52 61.5, -110.34 61.67, -108.16 61.83, -105.99 62.0, -103.82 62.17, -101.67 62.33, -99.53 62.5, -97.4 62.67, -95.28 62.83, -93.16 63.0, -91.06 63.17, -88.96 63.33, -86.88 63.5, -84.81 63.67, -82.74 63.83, -80.69 64.0, -78.64 64.17, -76.61 64.33, -74.58 64.5, -72.57 64.67, -70.56 64.83, -68.57 65.0, -66.59 65.17, -64.61 65.33, -62.65 65.5, -60.7 65.67, -58.75 65.83, -56.82 66.0, -54.9 66.17, -52.98 66.33, -51.08 66.5, -49.19 66.67, -47.31 66.83, -45.44 67.0, -43.58 67.17, -41.73 67.33, -39.89 67.5, -38.06 67.67, -36.24 67.83, -34.44 68.0, -32.64 68.17, -30.85 68.33, -29.08 68.5, -27.31 68.67, -25.56 68.83, -23.81 69.0, -22.08 69.17, -20.35 69.33, -18.64 69.5, -16.94 69.67, -15.25 69.83, -13.56 70.0, -11.89 70.17, -10.23 70.33, -8.58 70.5, -6.94 70.67, -5.32 70.83, -3.7 71.0, -2.09 71.17, -0.49 71.33, 1.1 71.5, 2.67 71.67, 4.24 71.83, 5.79 72.0, 7.34 72.17, 8.87 72.33, 10.4 72.5, 11.91 72.67, 13.42 72.83, 14.91 73.0, 16.39 73.17, 17.87 73.33, 19.33 73.5, 20.78 73.67, 22.23 73.83, 23.66 74.0, 25.08 74.17, 26.49 74.33, 27.89 74.5, 29.29 74.67, 30.67 74.83, 32.04 75.0, 33.4 75.17, 34.75 75.33, 36.1 75.5, 37.43 75.67, 38.75 75.83, 40.06 76.0, 41.37 76.17, 42.66 76.33, 43.94 76.5, 45.22 76.67, 46.48 76.83, 47.74 77.0, 48.98 77.17, 50.22 77.33, 51.44 77.5, 52.66 77.67, 53.87 77.83, 55.06 78.0, 56.25 78.17, 57.43 78.33, 58.6 78.5, 59.76 78.67, 60.91 78.83, 62.06 79.0, 63.19 79.17, 64.31 79.33, 65.43 79.5, 66.53 79.67, 67.63 79.83, 68.72 80.0, 69.8 80.17, 70.87 80.33, 71.93 80.5, 72.99 80.67, 74.03 80.83, 75.07 81.0, 76.09 81.17, 77.11 81.33, 78.12 81.5, 79.13 81.67, 80.12 81.83, 81.1 82.0, 82.08 82.17, 83.05 82.33, 84.01 82.5, 84.96 82.67, 85.91 82.83, 86.84 83.0, 87.77 83.17, 88.69 83.33, 89.6 83.5, 90.51 83.67, 91.4 83.83, 92.29 84.0, 93.17 84.17, 94.05 84.33, 94.91 84.5, 95.77 84.67, 96.62 84.83, 97.47 85.0, 98.3 85.17, 99.13 85.33, 99.95 85.5, 100.76 85.67, 101.57 85.83, 102.37 86.0, 103.16 86.17, 103.95 86.33, 104.73 86.5, 105.5 86.67, 106.26 86.83, 107.02 87.0, 107.77 87.17, 108.51 87.33, 109.25 87.5, 109.98 87.67, 110.7 87.83, 111.42 88.0, 112.13 88.17, 112.84 88.33, 113.53 88.5, 114.22 88.67, 114.91 88.83, 115.59 89.0, 116.26 89.17, 116.93 89.33, 117.59 89.5, 118.24 89.67, 118.89 89.83, 119.53 90.0, 120.17 90.17, 120.8 90.33, 121.42 90.5, 122.04 90.67, 122.65 90.83, 123.26 91.0, 123.86 91.17, 124.46 91.33, 125.05 91.5, 125.63 91.67, 126.21 91.83, 126.79 92.0, 127.36 92.17, 127.92 92.33, 128.48 92.5, 129.03 92.67, 129.58 92.83, 130.12 93.0, 130.66 93.17, 131.19 93.33, 131.72 93.5, 132.25 93.67, 132.76 93.83, 133.28 94.0, 133.79 94.17, 134.29 94.33, 134.79 94.5, 135.28 94.67, 135.77 94.83, 136.26 95.0, 136.74 95.17, 137.22 95.33, 137.69 95.5, 138.16 95.67, 138.62 95.83, 139.08 96.0, 139.54 96.17, 139.99 96.33, 140.44 96.5, 140.88 96.67, 141.32 96.83, 141.75 97.0, 142.18 97.17, 142.61 97.33, 143.03 97.5, 143.45 97.67, 143.87 97.83, 144.28 98.0, 144.69 98.17, 145.09 98.33, 145.49 98.5, 145.89 98.67, 146.29 98.83, 146.68 99.0, 147.06 99.17, 147.45 99.33, 147.83 99.5, 148.2 99.67, 148.58 99.83, 148.95 100.0, 149.32 100.17, 149.68 100.33, 150.04 100.5, 150.4 100.67, 150.75 100.83, 151.11 101.0, 151.45 101.17, 151.8 101.33, 152.14 101.5, 152.48 101.67, 152.82 101.83, 153.16 102.0, 153.49 102.17, 153.82 102.33, 154.15 102.5, 154.47 102.67, 154.79 102.83, 155.11 103.0, 155.43 103.17, 155.74 103.33, 156.05 103.5, 156.36 103.67, 156.67 103.83, 156.97 104.0, 157.28 104.17, 157.58 104.33, 157.87 104.5, 158.17 104.67, 158.46 104.83, 158.75 105.0, 159.04 105.17, 159.33 105.33, 159.61 105.5, 159.9 105.67, 160.18 105.83, 160.46 106.0, 160.74 106.17, 161.01 106.33, 161.28 106.5, 161.56 106.67, 161.83 106.83, 162.09 107.0, 162.36 107.17, 162.62 107.33, 162.89 107.5, 163.15 107.67, 163.41 107.83, 163.67 108.0, 163.92 108.17, 164.18 108.33, 164.43 108.5, 164.68 108.67, 164.93 108.83, 165.18 109.0, 165.43 109.17, 165.68 109.33, 165.92 109.5, 166.17 109.67, 166.41 109.83, 166.65 110.0, 166.89 110.17, 167.13 110.33, 167.36 110.5, 167.6 110.67, 167.84 110.83, 168.07 111.0, 168.3 111.17, 168.53 111.33, 168.76 111.5, 168.99 111.67, 169.22 111.83, 169.45 112.0, 169.68 112.17, 169.9 112.33, 170.13 112.5, 170.35 112.67, 170.57 112.83, 170.79 113.0, 171.01 113.17, 171.23 113.33, 171.45 113.5, 171.67 113.67, 171.89 113.83, 172.11 114.0, 172.32 114.17, 172.54 114.33, 172.75 114.5, 172.97 114.67, 173.18 114.83, 173.39 115.0, 173.6 115.17, 173.81 115.33, 174.03 115.5, 174.24 115.67, 174.44 115.83, 174.65 116.0, 174.86 116.17, 175.07 116.33, 175.28 116.5, 175.48 116.67, 175.69 116.83, 175.89 117.0, 176.1 117.17, 176.3 117.33, 176.51 117.5, 176.71 117.67, 176.92 117.83, 177.12 118.0, 177.32 118.17, 177.52 118.33, 177.72 118.5, 177.93 118.67, 178.13 118.83, 178.33 119.0, 178.53 119.17, 178.73 119.33, 178.93 119.5, 179.13 119.67, 179.33 119.83, 179.52 120.0, 179.72 120.17, 179.92 120.33, 180.12 120.5, 180.32 120.67, 180.51 120.83, 180.71 121.0, 180.91 121.17, 181.1 121.33, 181.3 121.5, 181.5 121.67, 181.69 121.83, 181.89 122.0, 182.08 122.17, 182.28 122.33, 182.47 122.5, 182.67 122.67, 182.86 122.83, 183.06 123.0, 183.25 123.17, 183.45 123.33, 183.64 123.5, 183.83 123.67, 184.03 123.83, 184.22 124.0, 184.42 124.17, 184.61 124.33, 184.8 124.5, 185.0 124.67, 185.19 124.83, 185.38 125.0, 185.57 125.17, 185.77 125.33, 185.96 125.5, 186.15 125.67, 186.34 125.83, 186.54 126.0, 186.73 126.17, 186.92 126.33, 187.11 126.5, 187.31 126.67, 187.5 126.83, 187.69 127.0, 187.88 127.17, 188.07 127.33, 188.26 127.5, 188.46 127.67, 188.65 127.83, 188.84 128.0, 189.03 128.17, 189.22 128.33, 189.41 128.5, 189.6 128.67, 189.79 128.83, 189.98 129.0, 190.17 129.17, 190.36 129.33, 190.55 129.5, 190.74 129.67, 190.93 129.83, 191.12 130.0, 191.31 130.17, 191.5 130.33, 191.69 130.5, 191.88 130.67, 192.07 130.83, 192.26 131.0, 192.45 131.17, 192.64 131.33, 192.83 131.5, 193.02 131.67, 193.21 131.83, 193.4 132.0, 193.58 132.17, 193.77 132.33, 193.96 132.5, 194.15 132.67, 194.34 132.83, 194.53 133.0, 194.71 133.17, 194.9 133.33, 195.09 133.5, 195.27 133.67, 195.46 133.83, 195.65 134.0, 195.83 134.17, 196.02 134.33, 196.21 134.5, 196.39 134.67, 196.58 134.83, 196.76 135.0, 196.95 135.17, 197.13 135.33, 197.32 135.5, 197.5 135.67, 197.69 135.83, 197.87 136.0, 198.06 136.17, 198.24 136.33, 198.42 136.5, 198.61 136.67, 198.79 136.83, 198.97 137.0, 199.15 137.17, 199.34 137.33, 199.52 137.5, 199.7 137.67, 199.88 137.83, 200.06 138.0, 200.24 138.17, 200.42 138.33, 200.6 138.5, 200.78 138.67, 200.96 138.83, 201.14 139.0, 201.32 139.17, 201.49 139.33, 201.67 139.5, 201.85 139.67, 202.03 139.83, 202.2 140.0, 202.38 140.17, 202.55 140.33, 202.73 140.5, 202.9 140.67, 203.08 140.83, 203.25 141.0, 203.42 141.17, 203.6 141.33, 203.77 141.5, 203.94 141.67, 204.11 141.83, 204.28 142.0, 204.45 142.17, 204.62 142.33, 204.79 142.5, 204.96 142.67, 205.13 142.83, 205.3 143.0, 205.46 143.17, 205.63 143.33, 205.8 143.5, 205.96 143.67, 206.13 143.83, 206.29 144.0, 206.46 144.17, 206.62 144.33, 206.78 144.5, 206.94 144.67, 207.1 144.83, 207.26 145.0, 207.42 145.17, 207.58 145.33, 207.74 145.5, 207.9 145.67, 208.06 145.83, 208.21 146.0, 208.37 146.17, 208.52 146.33, 208.68 146.5, 208.83 146.67, 208.99 146.83, 209.14 147.0, 209.29 147.17, 209.44 147.33, 209.59 147.5, 209.74 147.67, 209.89 147.83, 210.03 148.0, 210.18 148.17, 210.33 148.33, 210.47 148.5, 210.62 148.67, 210.76 148.83, 210.9 149.0, 211.05 149.17, 211.19 149.33, 211.33 149.5, 211.47 149.67, 211.6 149.83, 211.74 150.0, 211.88 150.17, 212.01 150.33, 212.15 150.5, 212.28 150.67, 212.42 150.83, 212.55 151.0, 212.68 151.17, 212.81 151.33, 212.94 151.5, 213.07 151.67, 213.19 151.83, 213.32 152.0, 213.45 152.17, 213.57 152.33, 213.69 152.5, 213.82 152.67, 213.94 152.83, 214.06 153.0, 214.18 153.17, 214.29 153.33, 214.41 153.5, 214.53 153.67, 214.64 153.83, 214.76 154.0, 214.87 154.17, 214.98 154.33, 215.09 154.5, 215.2 154.67, 215.31 154.83, 215.42 155.0, 215.53 155.17, 215.63 155.33, 215.73 155.5, 215.84 155.67, 215.94 155.83, 216.04 156.0, 216.14 156.17, 216.24 156.33, 216.34 156.5, 216.43 156.67, 216.53 156.83, 216.62 157.0, 216.71 157.17, 216.81 157.33, 216.9 157.5, 216.98 157.67, 217.07 157.83, 217.16 158.0, 217.24 158.17, 217.33 158.33, 217.41 158.5, 217.49 158.67, 217.57 158.83, 217.65 159.0, 217.73 159.17, 217.81 159.33, 217.88 159.5, 217.96 159.67, 218.03 159.83, 218.1 160.0, 218.17 160.17, 218.24 160.33, 218.31 160.5, 218.38 160.67, 218.44 160.83, 218.51 161.0, 218.57 161.17, 218.63 161.33, 218.69 161.5, 218.75 161.67, 218.81 161.83, 218.86 162.0, 218.92 162.17, 218.97 162.33, 219.02 162.5, 219.07 162.67, 219.12 162.83, 219.17 163.0, 219.22 163.17, 219.26 163.33, 219.31 163.5, 219.35 163.67, 219.39 163.83, 219.43 164.0, 219.47 164.17, 219.51 164.33, 219.55 164.5, 219.58 164.67, 219.61 164.83, 219.65 165.0, 219.68 165.17, 219.71 165.33, 219.73 165.5, 219.76 165.67, 219.78 165.83, 219.81 166.0, 219.83 166.17, 219.85 166.33, 219.87 166.5, 219.89 166.67, 219.91 166.83, 219.92 167.0, 219.93 167.17, 219.95 167.33, 219.96 167.5, 219.97 167.67, 219.98 167.83, 219.98 168.0, 219.99 168.17, 219.99 168.33, 220.0 168.5, 220.0 168.67, 220.0 168.83, 220.0 169.0, 219.99 169.17, 219.99 169.33, 219.98 169.5, 219.98 169.67, 219.97 169.83, 219.96 170.0, 219.95 170.17, 219.94 170.33, 219.92 170.5, 219.91 170.67, 219.89 170.83, 219.87 171.0, 219.85 171.17, 219.83 171.33, 219.81 171.5, 219.79 171.67, 219.76 171.83, 219.74 172.0, 219.71 172.17, 219.68 172.33, 219.65 172.5, 219.62 172.67, 219.58 172.83, 219.55 173.0, 219.51 173.17, 219.48 173.33, 219.44 173.5, 219.4 173.67, 219.36 173.83, 219.31 174.0, 219.27 174.17, 219.23 174.33, 219.18 174.5, 219.13 174.67, 219.08 174.83, 219.03 175.0, 218.98 175.17, 218.93 175.33, 218.87 175.5, 218.82 175.67, 218.76 175.83, 218.7 176.0, 218.64 176.17, 218.58 176.33, 218.52 176.5, 218.45 176.67, 218.39 176.83, 218.32 177.0, 218.26 177.17, 218.19 177.33, 218.12 177.5, 218.05 177.67, 217.97 177.83, 217.9 178.0, 217.82 178.17, 217.75 178.33, 217.67 178.5, 217.59 178.67, 217.51 178.83, 217.43 179.0, 217.35 179.17, 217.26 179.33, 217.18 179.5, 217.09 179.67, 217.01 179.83, 216.92 180.0, 216.83 180.17, 216.74 180.33, 216.65 180.5, 216.55 180.67, 216.46 180.83, 216.36 181.0, 216.27 181.17, 216.17 181.33, 216.07 181.5, 215.97 181.67, 215.87 181.83, 215.77 182.0, 215.67 182.17, 215.56 182.33, 215.46 182.5, 215.35 182.67, 215.24 182.83, 215.14 183.0, 215.03 183.17, 214.92 183.33, 214.8 183.5, 214.69 183.67, 214.58 183.83, 214.46 184.0, 214.35 184.17, 214.23 184.33, 214.11 184.5, 213.99 184.67, 213.87 184.83, 213.75 185.0, 213.63 185.17, 213.51 185.33, 213.39 185.5, 213.26 185.67, 213.14 185.83, 213.01 186.0, 212.88 186.17, 212.76 186.33, 212.63 186.5, 212.5 186.67, 212.37 186.83, 212.24 187.0, 212.1 187.17, 211.97 187.33, 211.84 187.5, 211.7 187.67, 211.57 187.83, 211.43 188.0, 211.29 188.17, 211.15 188.33, 211.02 188.5, 210.88 188.67, 210.74 188.83, 210.6 189.0, 210.45 189.17, 210.31 189.33, 210.17 189.5, 210.02 189.67, 209.88 189.83, 209.73 190.0, 209.59 190.17, 209.44 190.33, 209.29 190.5, 209.15 190.67, 209.0 190.83, 208.85 191.0, 208.7 191.17, 208.55 191.33, 208.4 191.5, 208.25 191.67, 208.09 191.83, 207.94 192.0, 207.79 192.17, 207.63 192.33, 207.48 192.5, 207.33 192.67, 207.17 192.83, 207.01 193.0, 206.86 193.17, 206.7 193.33, 206.54 193.5, 206.39 193.67, 206.23 193.83, 206.07 194.0, 205.91 194.17, 205.75 194.33, 205.59 194.5, 205.43 194.67, 205.27 194.83, 205.11 195.0, 204.95 195.17, 204.79 195.33, 204.62 195.5, 204.46 195.67, 204.3 195.83, 204.14 196.0, 203.97 196.17, 203.81 196.33, 203.65 196.5, 203.48 196.67, 203.32 196.83, 203.15 197.0, 202.99 197.17, 202.82 197.33, 202.66 197.5, 202.49 197.67, 202.33 197.83, 202.16 198.0, 202.0 198.17, 201.83 198.33, 201.66 198.5, 201.5 198.67, 201.33 198.83, 201.17 199.0, 201.0 199.17, 200.83 199.33, 200.67 199.5, 200.5 199.67, 200.33 199.83, 200.17 200.0, 200.0 200.17, 199.83 200.33, 199.67 200.5, 199.5 200.67, 199.33 200.83, 199.17 201.0, 199.0 201.17, 198.83 201.33, 198.67 201.5, 198.5 201.67, 198.34 201.83, 198.17 202.0, 198.0 202.17, 197.84 202.33, 197.67 202.5, 197.51 202.67, 197.34 202.83, 197.18 203.0, 197.01 203.17, 196.85 203.33, 196.68 203.5, 196.52 203.67, 196.35 203.83, 196.19 204.0, 196.03 204.17, 195.86 204.33, 195.7 204.5, 195.54 204.67, 195.38 204.83, 195.21 205.0, 195.05 205.17, 194.89 205.33, 194.73 205.5, 194.57 205.67, 194.41 205.83, 194.25 206.0, 194.09 206.17, 193.93 206.33, 193.77 206.5, 193.61 206.67, 193.46 206.83, 193.3 207.0, 193.14 207.17, 192.99 207.33, 192.83 207.5, 192.67 207.67, 192.52 207.83, 192.37 208.0, 192.21 208.17, 192.06 208.33, 191.91 208.5, 191.75 208.67, 191.6 208.83, 191.45 209.0, 191.3 209.17, 191.15 209.33, 191.0 209.5, 190.85 209.67, 190.71 209.83, 190.56 210.0, 190.41 210.17, 190.27 210.33, 190.12 210.5, 189.98 210.67, 189.83 210.83, 189.69 211.0, 189.55 211.17, 189.4 211.33, 189.26 211.5, 189.12 211.67, 188.98 211.83, 188.85 212.0, 188.71 212.17, 188.57 212.33, 188.43 212.5, 188.3 212.67, 188.16 212.83, 188.03 213.0, 187.9 213.17, 187.76 213.33, 187.63 213.5, 187.5 213.67, 187.37 213.83, 187.24 214.0, 187.12 214.17, 186.99 214.33, 186.86 214.5, 186.74 214.67, 186.61 214.83, 186.49 215.0, 186.37 215.17, 186.25 215.33, 186.13 215.5, 186.01 215.67, 185.89 215.83, 185.77 216.0, 185.65 216.17, 185.54 216.33, 185.42 216.5, 185.31 216.67, 185.2 216.83, 185.08 217.0, 184.97 217.17, 184.86 217.33, 184.76 217.5, 184.65 217.67, 184.54 217.83, 184.44 218.0, 184.33 218.17, 184.23 218.33, 184.13 218.5, 184.03 218.67, 183.93 218.83, 183.83 219.0, 183.73 219.17, 183.64 219.33, 183.54 219.5, 183.45 219.67, 183.35 219.83, 183.26 220.0, 183.17 220.17, 183.08 220.33, 182.99 220.5, 182.91 220.67, 182.82 220.83, 182.74 221.0, 182.65 221.17, 182.57 221.33, 182.49 221.5, 182.41 221.67, 182.33 221.83, 182.25 222.0, 182.18 222.17, 182.1 222.33, 182.03 222.5, 181.95 222.67, 181.88 222.83, 181.81 223.0, 181.74 223.17, 181.68 223.33, 181.61 223.5, 181.55 223.67, 181.48 223.83, 181.42 224.0, 181.36 224.17, 181.3 224.33, 181.24 224.5, 181.18 224.67, 181.13 224.83, 181.07 225.0, 181.02 225.17, 180.97 225.33, 180.92 225.5, 180.87 225.67, 180.82 225.83, 180.77 226.0, 180.73 226.17, 180.69 226.33, 180.64 226.5, 180.6 226.67, 180.56 226.83, 180.52 227.0, 180.49 227.17, 180.45 227.33, 180.42 227.5, 180.38 227.67, 180.35 227.83, 180.32 228.0, 180.29 228.17, 180.26 228.33, 180.24 228.5, 180.21 228.67, 180.19 228.83, 180.17 229.0, 180.15 229.17, 180.13 229.33, 180.11 229.5, 180.09 229.67, 180.08 229.83, 180.06 230.0, 180.05 230.17, 180.04 230.33, 180.03 230.5, 180.02 230.67, 180.02 230.83, 180.01 231.0, 180.01 231.17, 180.0 231.33, 180.0 231.5, 180.0 231.67, 180.0 231.83, 180.01 232.0, 180.01 232.17, 180.02 232.33, 180.02 232.5, 180.03 232.67, 180.04 232.83, 180.05 233.0, 180.07 233.17, 180.08 233.33, 180.09 233.5, 180.11 233.67, 180.13 233.83, 180.15 234.0, 180.17 234.17, 180.19 234.33, 180.22 234.5, 180.24 234.67, 180.27 234.83, 180.29 235.0, 180.32 235.17, 180.35 235.33, 180.39 235.5, 180.42 235.67, 180.45 235.83, 180.49 236.0, 180.53 236.17, 180.57 236.33, 180.61 236.5, 180.65 236.67, 180.69 236.83, 180.74 237.0, 180.78 237.17, 180.83 237.33, 180.88 237.5, 180.93 237.67, 180.98 237.83, 181.03 238.0, 181.08 238.17, 181.14 238.33, 181.19 238.5, 181.25 238.67, 181.31 238.83, 181.37 239.0, 181.43 239.17, 181.49 239.33, 181.56 239.5, 181.62 239.67, 181.69 239.83, 181.76 240.0, 181.83 240.17, 181.9 240.33, 181.97 240.5, 182.04 240.67, 182.12 240.83, 182.19 241.0, 182.27 241.17, 182.35 241.33, 182.43 241.5, 182.51 241.67, 182.59 241.83, 182.67 242.0, 182.76 242.17, 182.84 242.33, 182.93 242.5, 183.02 242.67, 183.1 242.83, 183.19 243.0, 183.29 243.17, 183.38 243.33, 183.47 243.5, 183.57 243.67, 183.66 243.83, 183.76 244.0, 183.86 244.17, 183.96 244.33, 184.06 244.5, 184.16 244.67, 184.27 244.83, 184.37 245.0, 184.47 245.17, 184.58 245.33, 184.69 245.5, 184.8 245.67, 184.91 245.83, 185.02 246.0, 185.13 246.17, 185.24 246.33, 185.36 246.5, 185.47 246.67, 185.59 246.83, 185.71 247.0, 185.82 247.17, 185.94 247.33, 186.06 247.5, 186.18 247.67, 186.31 247.83, 186.43 248.0, 186.55 248.17, 186.68 248.33, 186.81 248.5, 186.93 248.67, 187.06 248.83, 187.19 249.0, 187.32 249.17, 187.45 249.33, 187.58 249.5, 187.72 249.67, 187.85 249.83, 187.99 250.0, 188.12 250.17, 188.26 250.33, 188.4 250.5, 188.53 250.67, 188.67 250.83, 188.81 251.0, 188.95 251.17, 189.1 251.33, 189.24 251.5, 189.38 251.67, 189.53 251.83, 189.67 252.0, 189.82 252.17, 189.97 252.33, 190.11 252.5, 190.26 252.67, 190.41 252.83, 190.56 253.0, 190.71 253.17, 190.86 253.33, 191.01 253.5, 191.17 253.67, 191.32 253.83, 191.48 254.0, 191.63 254.17, 191.79 254.33, 191.94 254.5, 192.1 254.67, 192.26 254.83, 192.42 255.0, 192.58 255.17, 192.74 255.33, 192.9 255.5, 193.06 255.67, 193.22 255.83, 193.38 256.0, 193.54 256.17, 193.71 256.33, 193.87 256.5, 194.04 256.67, 194.2 256.83, 194.37 257.0, 194.54 257.17, 194.7 257.33, 194.87 257.5, 195.04 257.67, 195.21 257.83, 195.38 258.0, 195.55 258.17, 195.72 258.33, 195.89 258.5, 196.06 258.67, 196.23 258.83, 196.4 259.0, 196.58 259.17, 196.75 259.33, 196.92 259.5, 197.1 259.67, 197.27 259.83, 197.45 260.0, 197.62 260.17, 197.8 260.33, 197.97 260.5, 198.15 260.67, 198.33 260.83, 198.51 261.0, 198.68 261.17, 198.86 261.33, 199.04 261.5, 199.22 261.67, 199.4 261.83, 199.58 262.0, 199.76 262.17, 199.94 262.33, 200.12 262.5, 200.3 262.67, 200.48 262.83, 200.66 263.0, 200.85 263.17, 201.03 263.33, 201.21 263.5, 201.39 263.67, 201.58 263.83, 201.76 264.0, 201.94 264.17, 202.13 264.33, 202.31 264.5, 202.5 264.67, 202.68 264.83, 202.87 265.0, 203.05 265.17, 203.24 265.33, 203.42 265.5, 203.61 265.67, 203.79 265.83, 203.98 266.0, 204.17 266.17, 204.35 266.33, 204.54 266.5, 204.73 266.67, 204.91 266.83, 205.1 267.0, 205.29 267.17, 205.47 267.33, 205.66 267.5, 205.85 267.67, 206.04 267.83, 206.23 268.0, 206.42 268.17, 206.6 268.33, 206.79 268.5, 206.98 268.67, 207.17 268.83, 207.36 269.0, 207.55 269.17, 207.74 269.33, 207.93 269.5, 208.12 269.67, 208.31 269.83, 208.5 270.0, 208.69 270.17, 208.88 270.33, 209.07 270.5, 209.26 270.67, 209.45 270.83, 209.64 271.0, 209.83 271.17, 210.02 271.33, 210.21 271.5, 210.4 271.67, 210.59 271.83, 210.78 272.0, 210.97 272.17, 211.16 272.33, 211.35 272.5, 211.54 272.67, 211.74 272.83, 211.93 273.0, 212.12 273.17, 212.31 273.33, 212.5 273.5, 212.69 273.67, 212.89 273.83, 213.08 274.0, 213.27 274.17, 213.46 274.33, 213.66 274.5, 213.85 274.67, 214.04 274.83, 214.23 275.0, 214.43 275.17, 214.62 275.33, 214.81 275.5, 215.0 275.67, 215.2 275.83, 215.39 276.0, 215.58 276.17, 215.78 276.33, 215.97 276.5, 216.17 276.67, 216.36 276.83, 216.55 277.0, 216.75 277.17, 216.94 277.33, 217.14 277.5, 217.33 277.67, 217.53 277.83, 217.72 278.0, 217.92 278.17, 218.11 278.33, 218.31 278.5, 218.5 278.67, 218.7 278.83, 218.9 279.0, 219.09 279.17, 219.29 279.33, 219.49 279.5, 219.68 279.67, 219.88 279.83, 220.08 280.0, 220.28 280.17, 220.48 280.33, 220.67 280.5, 220.87 280.67, 221.07 280.83, 221.27 281.0, 221.47 281.17, 221.67 281.33, 221.87 281.5, 222.07 281.67, 222.28 281.83, 222.48 282.0, 222.68 282.17, 222.88 282.33, 223.08 282.5, 223.29 282.67, 223.49 282.83, 223.7 283.0, 223.9 283.17, 224.11 283.33, 224.31 283.5, 224.52 283.67, 224.72 283.83, 224.93 284.0, 225.14 284.17, 225.35 284.33, 225.56 284.5, 225.76 284.67, 225.97 284.83, 226.19 285.0, 226.4 285.17, 226.61 285.33, 226.82 285.5, 227.03 285.67, 227.25 285.83, 227.46 286.0, 227.68 286.17, 227.89 286.33, 228.11 286.5, 228.33 286.67, 228.55 286.83, 228.77 287.0, 228.99 287.17, 229.21 287.33, 229.43 287.5, 229.65 287.67, 229.87 287.83, 230.1 288.0, 230.32 288.17, 230.55 288.33, 230.78 288.5, 231.01 288.67, 231.24 288.83, 231.47 289.0, 231.7 289.17, 231.93 289.33, 232.16 289.5, 232.4 289.67, 232.64 289.83, 232.87 290.0, 233.11 290.17, 233.35 290.33, 233.59 290.5, 233.83 290.67, 234.08 290.83, 234.32 291.0, 234.57 291.17, 234.82 291.33, 235.07 291.5, 235.32 291.67, 235.57 291.83, 235.82 292.0, 236.08 292.17, 236.33 292.33, 236.59 292.5, 236.85 292.67, 237.11 292.83, 237.38 293.0, 237.64 293.17, 237.91 293.33, 238.17 293.5, 238.44 293.67, 238.72 293.83, 238.99 294.0, 239.26 294.17, 239.54 294.33, 239.82 294.5, 240.1 294.67, 240.39 294.83, 240.67 295.0, 240.96 295.17, 241.25 295.33, 241.54 295.5, 241.83 295.67, 242.13 295.83, 242.42 296.0, 242.72 296.17, 243.03 296.33, 243.33 296.5, 243.64 296.67, 243.95 296.83, 244.26 297.0, 244.57 297.17, 244.89 297.33, 245.21 297.5, 245.53 297.67, 245.85 297.83, 246.18 298.0, 246.51 298.17, 246.84 298.33, 247.18 298.5, 247.52 298.67, 247.86 298.83, 248.2 299.0, 248.55 299.17, 248.89 299.33, 249.25 299.5, 249.6 299.67, 249.96 299.83, 250.32 300.0, 250.68 300.17, 251.05 300.33, 251.42 300.5, 251.8 300.67, 252.17 300.83, 252.55 301.0, 252.94 301.17, 253.32 301.33, 253.71 301.5, 254.11 301.67, 254.51 301.83, 254.91 302.0, 255.31 302.17, 255.72 302.33, 256.13 302.5, 256.55 302.67, 256.97 302.83, 257.39 303.0, 257.82 303.17, 258.25 303.33, 258.68 303.5, 259.12 303.67, 259.56 303.83, 260.01 304.0, 260.46 304.17, 260.92 304.33, 261.38 304.5, 261.84 304.67, 262.31 304.83, 262.78 305.0, 263.26 305.17, 263.74 305.33, 264.23 305.5, 264.72 305.67, 265.21 305.83, 265.71 306.0, 266.21 306.17, 266.72 306.33, 267.24 306.5, 267.75 306.67, 268.28 306.83, 268.81 307.0, 269.34 307.17, 269.88 307.33, 270.42 307.5, 270.97 307.67, 271.52 307.83, 272.08 308.0, 272.64 308.17, 273.21 308.33, 273.79 308.5, 274.37 308.67, 274.95 308.83, 275.54 309.0, 276.14 309.17, 276.74 309.33, 277.35 309.5, 277.96 309.67, 278.58 309.83, 279.2 310.0, 279.83 310.17, 280.47 310.33, 281.11 310.5, 281.76 310.67, 282.41 310.83, 283.07 311.0, 283.74 311.17, 284.41 311.33, 285.09 311.5, 285.78 311.67, 286.47 311.83, 287.16 312.0, 287.87 312.17, 288.58 312.33, 289.3 312.5, 290.02 312.67, 290.75 312.83, 291.49 313.0, 292.23 313.17, 292.98 313.33, 293.74 313.5, 294.5 313.67, 295.27 313.83, 296.05 314.0, 296.84 314.17, 297.63 314.33, 298.43 314.5, 299.24 314.67, 300.05 314.83, 300.87 315.0, 301.7 315.17, 302.53 315.33, 303.38 315.5, 304.23 315.67, 305.09 315.83, 305.95 316.0, 306.83 316.17, 307.71 316.33, 308.6 316.5, 309.49 316.67, 310.4 316.83, 311.31 317.0, 312.23 317.17, 313.16 317.33, 314.09 317.5, 315.04 317.67, 315.99 317.83, 316.95 318.0, 317.92 318.17, 318.9 318.33, 319.88 318.5, 320.87 318.67, 321.88 318.83, 322.89 319.0, 323.91 319.17, 324.93 319.33, 325.97 319.5, 327.01 319.67, 328.07 319.83, 329.13 320.0, 330.2 320.17, 331.28 320.33, 332.37 320.5, 333.47 320.67, 334.57 320.83, 335.69 321.0, 336.81 321.17, 337.94 321.33, 339.09 321.5, 340.24 321.67, 341.4 321.83, 342.57 322.0, 343.75 322.17, 344.94 322.33, 346.13 322.5, 347.34 322.67, 348.56 322.83, 349.78 323.0, 351.02 323.17, 352.26 323.33, 353.52 323.5, 354.78 323.67, 356.06 323.83, 357.34 324.0, 358.63 324.17, 359.94 324.33, 361.25 324.5, 362.57 324.67, 363.9 324.83, 365.25 325.0, 366.6 325.17, 367.96 325.33, 369.33 325.5, 370.71 325.67, 372.11 325.83, 373.51 326.0, 374.92 326.17, 376.34 326.33, 377.77 326.5, 379.22 326.67, 380.67 326.83, 382.13 327.0, 383.61 327.17, 385.09 327.33, 386.58 327.5, 388.09 327.67, 389.6 327.83, 391.13 328.0, 392.66 328.17, 394.21 328.33, 395.76 328.5, 397.33 328.67, 398.9 328.83, 400.49 329.0, 402.09 329.17, 403.7 329.33, 405.32 329.5, 406.94 329.67, 408.58 329.83, 410.23 330.0, 411.89 330.17, 413.56 330.33, 415.25 330.5, 416.94 330.67, 418.64 330.83, 420.35 331.0, 422.08 331.17, 423.81 331.33, 425.56 331.5, 427.31 331.67, 429.08 331.83, 430.85 332.0, 432.64 332.17, 434.44 332.33, 436.24 332.5, 438.06 332.67, 439.89 332.83, 441.73 333.0, 443.58 333.17, 445.44 333.33, 447.31 333.5, 449.19 333.67, 451.08 333.83, 452.98 334.0, 454.9 334.17, 456.82 334.33, 458.75 334.5, 460.7 334.67, 462.65 334.83, 464.61 335.0, 466.59 335.17, 468.57 335.33, 470.56 335.5, 472.57 335.67, 474.58 335.83, 476.61 336.0, 478.64 336.17, 480.69 336.33, 482.74 336.5, 484.81 336.67, 486.88 336.83, 488.96 337.0, 491.06 337.17, 493.16 337.33, 495.28 337.5, 497.4 337.67, 499.53 337.83, 501.67 338.0, 503.82 338.17, 505.99 338.33, 508.16 338.5, 510.34 338.67, 512.52 338.83, 514.72 339.0, 516.93 339.17, 519.14 339.33, 521.37 339.5, 523.6 339.67, 525.85 339.83, 528.1 340.0, 530.36 340.17, 532.62 340.33, 534.9 340.5, 537.19 340.67, 539.48 340.83, 541.78 341.0, 544.09 341.17, 546.41 341.33, 548.73 341.5, 551.07 341.67, 553.41 341.83, 555.76 342.0, 558.11 342.17, 560.48 342.33, 562.85 342.5, 565.23 342.67, 567.61 342.83, 570.0 343.0, 572.4 343.17, 574.81 343.33, 577.22 343.5, 579.64 343.67, 582.06 343.83, 584.49 344.0, 586.93 344.17, 589.37 344.33, 591.82 344.5, 594.28 344.67, 596.74 344.83, 599.2 345.0, 601.67 345.17, 604.15 345.33, 606.63 345.5, 609.11 345.67, 611.6 345.83, 614.09 346.0, 616.59 346.17, 619.09 346.33, 621.6 346.5, 624.11 346.67, 626.62 346.83, 629.14 347.0, 631.65 347.17, 634.18 347.33, 636.7 347.5, 639.23 347.67, 641.76 347.83, 644.29 348.0, 646.82 348.17, 649.36 348.33, 651.89 348.5, 654.43 348.67, 656.97 348.83, 659.51 349.0, 662.05 349.17, 664.59 349.33, 667.13 349.5, 669.67 349.67, 672.21 349.83, 674.75 350.0, 677.29 350.17, 679.83 350.33, 682.36 350.5, 684.9 350.67, 687.43 350.83, 689.96 351.0, 692.49 351.17, 695.02 351.33, 697.54 351.5, 700.06 351.67, 702.57 351.83, 705.09 352.0, 707.59 352.17, 710.1 352.33, 712.6 352.5, 715.09 352.67, 717.58 352.83, 720.06 353.0, 722.54 353.17, 725.01 353.33, 727.47 353.5, 729.93 353.67, 732.38 353.83, 734.82 354.0, 737.25 354.17, 739.68 354.33, 742.09 354.5, 744.5 354.67, 746.9 354.83, 749.29 355.0, 751.67 355.17, 754.03 355.33, 756.39 355.5, 758.74 355.67, 761.07 355.83, 763.39 356.0, 765.7 356.17, 768.0 356.33, 770.28 356.5, 772.55 356.67, 774.8 356.83, 777.04 357.0, 779.27 357.17, 781.48 357.33, 783.67 357.5, 785.85 357.67, 788.01 357.83, 790.15 358.0, 792.28 358.17, 794.38 358.33, 796.47 358.5, 798.54 358.67, 800.59 358.83, 802.62 359.0, 804.63 359.17, 806.62 359.33, 808.58 359.5, 810.53 359.67, 812.45 359.83, 814.34 360.0, 816.22 360.17, 818.07 360.33, 819.89 360.5, 821.69 360.67, 823.46 360.83, 825.21 361.0, 826.93 361.17, 828.62 361.33, 830.28 361.5, 831.92 361.67, 833.52 361.83, 835.1 362.0, 836.64 362.17, 838.16 362.33, 839.64 362.5, 841.09 362.67, 842.5 362.83, 843.88 363.0, 845.23 363.17, 846.54 363.33, 847.82 363.5, 849.06 363.67, 850.26 363.83, 851.43 364.0, 852.55 364.17, 853.64 364.33, 854.69 364.5, 855.69 364.67, 856.66 364.83, 857.58 365.0, 858.46 365.17, 859.3 365.33, 860.09 365.5, 860.84 365.67, 861.54 365.83, 862.19 366.0, 862.8 366.17, 863.36 366.33, 863.87 366.5, 864.33 366.67, 864.74 366.83, 865.1 367.0, 865.41 367.17, 865.66 367.33, 865.86 367.5, 866.0 367.67, 866.09 367.83, 866.13 368.0, 866.1 368.17, 866.02 368.33, 865.88 368.5, 865.67 368.67, 865.41 368.83, 865.08 369.0, 864.7 369.17, 864.25 369.33, 863.73 369.5, 863.15 369.67, 862.5 369.83, 861.78 370.0, 861.0 370.17, 860.14 370.33, 859.22 370.5, 858.22 370.67, 857.15 370.83, 856.01 371.0, 854.79 371.17, 853.5 371.33, 852.13 371.5, 850.68 371.67, 849.16 371.83, 847.55 372.0, 845.86 372.17, 844.09 372.33, 842.24 372.5, 840.3 372.67, 838.28 372.83, 836.17 373.0, 833.97 373.17, 831.68 373.33, 829.31 373.5, 826.84 373.67, 824.28 373.83, 821.62 374.0, 818.87 374.17, 816.02 374.33, 813.08 374.5, 810.04 374.67, 806.9 374.83, 803.65 375.0, 800.31 375.17, 796.86 375.33, 793.3 375.5, 789.64 375.67, 785.87 375.83, 781.99 376.0, 778.0 376.17, 773.9 376.33, 769.68 376.5, 765.35 376.67, 760.91 376.83, 756.34 377.0, 751.66 377.17, 746.86 377.33, 741.94 377.5, 736.89 377.67, 731.72 377.83, 726.42 378.0, 720.99 378.17, 715.44 378.33, 709.75 378.5, 703.93 378.67, 697.98 378.83, 691.89 379.0, 685.67 379.17, 679.31 379.33, 672.8 379.5, 666.16 379.67, 659.37 379.83, 652.44 380.0, 645.36 380.17, 638.13 380.33, 630.75 380.5, 623.22 380.67, 615.54 380.83, 607.7 381.0, 599.71 381.17, 591.55 381.33, 583.24 381.5, 574.76 381.67, 566.12 381.83, 557.32 382.0, 548.34 382.17, 539.2 382.33, 529.89 382.5, 520.4 382.67, 510.74 382.83, 500.9 383.0, 490.88 383.17, 480.68 383.33, 470.3 383.5, 459.74 383.67, 448.99 383.83, 438.05 384.0, 426.92 384.17, 415.59 384.33, 404.07 384.5, 392.36 384.67, 380.45 384.83, 368.33 385.0, 356.02 385.17, 343.5 385.33, 330.77 385.5, 317.83 385.67, 304.68 385.83, 291.32 386.0, 277.74 386.17, 263.94 386.33, 249.93 386.5, 235.69 386.67, 221.23 386.83, 206.54 387.0, 191.62 387.17, 176.47 387.33, 161.08 387.5, 145.46 387.67, 129.6 387.83, 113.5 388.0, 97.16 388.17, 80.57 388.33, 63.74 388.5, 46.65 388.67, 29.31 388.83, 11.71 389.0, -6.14 389.17, -24.25 389.33, -42.63 389.5, -61.27 389.67, -80.18 389.83, -99.36 390.0, -118.82 390.17, -138.55 390.33, -158.56 390.5, -178.85 390.67, -199.42 390.83, -220.28 391.0, -241.43 391.17, -262.88 391.33, -284.62 391.5, -306.65 391.67, -328.99 391.83, -351.63 392.0, -374.57 392.17, -397.82 392.33, -421.39 392.5, -445.27 392.67, -469.47 392.83, -493.99 393.0, -518.83 393.17, -544.0 393.33, -569.5 393.5, -595.33 393.67, -621.5 393.83, -648.01 394.0, -674.86 394.17, -702.05 394.33, -729.59 394.5, -757.49 394.67, -785.73 394.83, -814.34 395.0, -843.3 395.17, -872.63 395.33, -902.33 395.5, -932.4 395.67, -962.84 395.83, -993.66 396.0, -1024.86 396.17, -1056.45 396.33, -1088.42 396.5, -1120.78 396.67, -1153.54 396.83, -1186.7 397.0, -1220.25 397.17, -1254.22 397.33, -1288.59 397.5, -1323.37 397.67, -1358.57 397.83, -1394.18 398.0, -1430.22 398.17, -1466.69 398.33, -1503.59 398.5, -1540.92 398.67, -1578.68 398.83, -1616.89 399.0, -1655.55 399.17, -1694.65 399.33, -1734.21 399.5, -1774.22 399.67, -1814.7 399.83, -1855.64 400.0, -1897.05 " fill="none" stroke="white" stroke-width="1.5" stroke-linejoin="round" stroke-opacity="1"/>

 </svg>