<svg version="1.1" 
 baseProfile="full" 
 width="400" 
 height="400" 
 xmlns="http://www.w3.org/2000/svg">
<rect x="0.0" y="0.0" width="400" height="400" fill="black" stroke="black" stroke-width="0" opacity="1"/>
<line x1="0.0" y1="0.0" x2="0.0" y2="400.0" stroke="white" stroke-width="1" opacity="0.4" stroke-linecap="butt"/>
<line x1="40.0" y1="0.0" x2="40.0" y2="400.0" stroke="white" stroke-width="1" opacity="0.4" stroke-linecap="butt"/>
<line x1="80.0" y1="0.0" x2="80.0" y2="400.0" stroke="white" stroke-width="1" opacity="0.4" stroke-linecap="butt"/>
<line x1="120.0" y1="0.0" x2="120.0" y2="400.0" stroke="white" stroke-width="1" opacity="0.4" stroke-linecap="butt"/>
<line x1="160.0" y1="0.0" x2="160.0" y2="400.0" stroke="white" stroke-width="1" opacity="0.4" stroke-linecap="butt"/>
<line x1="200.0" y1="0.0" x2="200.0" y2="400.0" stroke="white" stroke-width="1" opacity="0.4" stroke-linecap="butt"/>
<line x1="240.0" y1="0.0" x2="240.0" y2="400.0" stroke="white" stroke-width="1" opacity="0.4" stroke-linecap="butt"/>
<line x1="280.0" y1="0.0" x2="280.0" y2="400.0" stroke="white" stroke-width="1" opacity="0.4" stroke-linecap="butt"/>
<line x1="320.0" y1="0.0" x2="320.0" y2="400.0" stroke="white" stroke-width="1" opacity="0.4" stroke-linecap="butt"/>
<line x1="360.0" y1="0.0" x2="360.0" y2="400.0" stroke="white" stroke-width="1" opacity="0.4" stroke-linecap="butt"/>
<line x1="0.0" y1="0.0" x2="400.0" y2="0.0" stroke="white" stroke-width="1" opacity="0.4" stroke-linecap="butt"/>
<line x1="0.0" y1="40.0" x2="400.0" y2="40.0" stroke="white" stroke-width="1" opacity="0.4" stroke-linecap="butt"/>
<line x1="0.0" y1="80.0" x2="400.0" y2="80.0" stroke="white" stroke-width="1" opacity="0.4" stroke-linecap="butt"/>
<line x1="0.0" y1="120.0" x2="400.0" y2="120.0" stroke="white" stroke-width="1" opacity="0.4" stroke-linecap="butt"/>
<line x1="0.0" y1="160.0" x2="400.0" y2="160.0" stroke="white" stroke-width="1" opacity="0.4" stroke-linecap="butt"/>
<line x1="0.0" y1="200.0" x2="400.0" y2="200.0" stroke="white" stroke-width="1" opacity="0.4" stroke-linecap="butt"/>
<line x1="0.0" y1="240.0" x2="400.0" y2="240.0" stroke="white" stroke-width="1" opacity="0.4" stroke-linecap="butt"/>
<line x1="0.0" y1="280.0" x2="400.0" y2="280.0" stroke="white" stroke-width="1" opacity="0.4" stroke-linecap="butt"/>
<line x1="0.0" y1="320.0" x2="400.0" y2="320.0" stroke="white" stroke-width="1" opacity="0.4" stroke-linecap="butt"/>
<line x1="0.0" y1="360.0" x2="400.0" y2="360.0" stroke="white" stroke-width="1" opacity="0.4" stroke-linecap="butt"/>
<line x1="0.0" y1="200.0" x2="400.0" y2="200.0" stroke="yellow" stroke-width="2.5" opacity="1" stroke-linecap="butt"/>
<line x1="200.0" y1="0.0" x2="200.0" y2="400.0" stroke="yellow" stroke-width="2.5" opacity="1" stroke-linecap="butt"/>
<polygon points="391.0 204.0, 401.0 200.0, 391.0 196.0, 393.0 200.0" fill="yellow"/><polygon points="204.0 9.0, 200.0 -1.0, 196.0 9.0, 200.0 7.0" fill="yellow"/><image x="-60.0" y="-60.0" width="200" height="200" href="/Users/girirajhira/PycharmProjects/Giraphics3/Taylor/expr.png"/><polyline points="0.0, 8497.44 0.17, 8409.69 0.33, 8322.71 0.5, 8236.5 0.67, 8151.06 0.83, 8066.37 1.0, 7982.44 1.17, 7899.26 1.33, 7816.83 1.5, 7735.13 1.67, 7654.16 1.83, 7573.91 2.0, 7494.39 2.17, 7415.59 2.33, 7337.49 2.5, 7260.1 2.67, 7183.41 2.83, 7107.41 3.0, 7032.1 3.17, 6957.48 3.33, 6883.53 3.5, 6810.26 3.67, 6737.65 3.83, 6665.71 4.0, 6594.43 4.17, 6523.8 4.33, 6453.82 4.5, 6384.48 4.67, 6315.78 4.83, 6247.72 5.0, 6180.28 5.17, 6113.47 5.33, 6047.27 5.5, 5981.69 5.67, 5916.72 5.83, 5852.36 6.0, 5788.59 6.17, 5725.42 6.33, 5662.84 6.5, 5600.85 6.67, 5539.44 6.83, 5478.61 7.0, 5418.34 7.17, 5358.65 7.33, 5299.52 7.5, 5240.95 7.67, 5182.94 7.83, 5125.47 8.0, 5068.56 8.17, 5012.18 8.33, 4956.34 8.5, 4901.04 8.67, 4846.26 8.83, 4792.01 9.0, 4738.28 9.17, 4685.07 9.33, 4632.37 9.5, 4580.18 9.67, 4528.49 9.83, 4477.31 10.0, 4426.62 10.17, 4376.42 10.33, 4326.71 10.5, 4277.48 10.67, 4228.74 10.83, 4180.47 11.0, 4132.68 11.17, 4085.35 11.33, 4038.49 11.5, 3992.1 11.67, 3946.16 11.83, 3900.67 12.0, 3855.63 12.17, 3811.04 12.33, 3766.9 12.5, 3723.19 12.67, 3679.92 12.83, 3637.08 13.0, 3594.67 13.17, 3552.69 13.33, 3511.12 13.5, 3469.98 13.67, 3429.25 13.83, 3388.93 14.0, 3349.02 14.17, 3309.51 14.33, 3270.4 14.5, 3231.69 14.67, 3193.38 14.83, 3155.46 15.0, 3117.92 15.17, 3080.77 15.33, 3044.0 15.5, 3007.61 15.67, 2971.59 15.83, 2935.95 16.0, 2900.67 16.17, 2865.76 16.33, 2831.21 16.5, 2797.02 16.67, 2763.19 16.83, 2729.71 17.0, 2696.58 17.17, 2663.8 17.33, 2631.36 17.5, 2599.26 17.67, 2567.5 17.83, 2536.08 18.0, 2504.99 18.17, 2474.23 18.33, 2443.79 18.5, 2413.68 18.67, 2383.89 18.83, 2354.42 19.0, 2325.27 19.17, 2296.42 19.33, 2267.89 19.5, 2239.66 19.67, 2211.74 19.83, 2184.12 20.0, 2156.8 20.17, 2129.78 20.33, 2103.05 20.5, 2076.61 20.67, 2050.46 20.83, 2024.6 21.0, 1999.02 21.17, 1973.72 21.33, 1948.7 21.5, 1923.96 21.67, 1899.49 21.83, 1875.29 22.0, 1851.36 22.17, 1827.69 22.33, 1804.29 22.5, 1781.15 22.67, 1758.27 22.83, 1735.65 23.0, 1713.28 23.17, 1691.17 23.33, 1669.3 23.5, 1647.68 23.67, 1626.31 23.83, 1605.18 24.0, 1584.29 24.17, 1563.64 24.33, 1543.23 24.5, 1523.05 24.67, 1503.1 24.83, 1483.38 25.0, 1463.89 25.17, 1444.63 25.33, 1425.59 25.5, 1406.77 25.67, 1388.17 25.83, 1369.78 26.0, 1351.62 26.17, 1333.66 26.33, 1315.92 26.5, 1298.38 26.67, 1281.06 26.83, 1263.94 27.0, 1247.02 27.17, 1230.3 27.33, 1213.78 27.5, 1197.46 27.67, 1181.34 27.83, 1165.41 28.0, 1149.67 28.17, 1134.12 28.33, 1118.76 28.5, 1103.59 28.67, 1088.6 28.83, 1073.79 29.0, 1059.17 29.17, 1044.72 29.33, 1030.45 29.5, 1016.36 29.67, 1002.44 29.83, 988.7 30.0, 975.12 30.17, 961.71 30.33, 948.47 30.5, 935.4 30.67, 922.49 30.83, 909.74 31.0, 897.15 31.17, 884.73 31.33, 872.46 31.5, 860.34 31.67, 848.38 31.83, 836.58 32.0, 824.92 32.17, 813.41 32.33, 802.06 32.5, 790.84 32.67, 779.78 32.83, 768.86 33.0, 758.08 33.17, 747.44 33.33, 736.94 33.5, 726.57 33.67, 716.35 33.83, 706.26 34.0, 696.3 34.17, 686.48 34.33, 676.78 34.5, 667.22 34.67, 657.78 34.83, 648.48 35.0, 639.29 35.17, 630.23 35.33, 621.3 35.5, 612.48 35.67, 603.79 35.83, 595.21 36.0, 586.76 36.17, 578.41 36.33, 570.19 36.5, 562.08 36.67, 554.08 36.83, 546.19 37.0, 538.41 37.17, 530.75 37.33, 523.19 37.5, 515.73 37.67, 508.38 37.83, 501.14 38.0, 494.0 38.17, 486.96 38.33, 480.03 38.5, 473.19 38.67, 466.46 38.83, 459.82 39.0, 453.27 39.17, 446.83 39.33, 440.47 39.5, 434.21 39.67, 428.05 39.83, 421.97 40.0, 415.99 40.17, 410.09 40.33, 404.28 40.5, 398.56 40.67, 392.93 40.83, 387.38 41.0, 381.92 41.17, 376.54 41.33, 371.24 41.5, 366.02 41.67, 360.89 41.83, 355.83 42.0, 350.85 42.17, 345.95 42.33, 341.13 42.5, 336.38 42.67, 331.71 42.83, 327.11 43.0, 322.59 43.17, 318.13 43.33, 313.75 43.5, 309.44 43.67, 305.2 43.83, 301.03 44.0, 296.93 44.17, 292.89 44.33, 288.93 44.5, 285.02 44.67, 281.18 44.83, 277.41 45.0, 273.7 45.17, 270.05 45.33, 266.47 45.5, 262.94 45.67, 259.48 45.83, 256.07 46.0, 252.73 46.17, 249.44 46.33, 246.21 46.5, 243.03 46.67, 239.91 46.83, 236.85 47.0, 233.84 47.17, 230.89 47.33, 227.99 47.5, 225.14 47.67, 222.34 47.83, 219.6 48.0, 216.9 48.17, 214.26 48.33, 211.66 48.5, 209.11 48.67, 206.61 48.83, 204.16 49.0, 201.75 49.17, 199.39 49.33, 197.08 49.5, 194.81 49.67, 192.58 49.83, 190.4 50.0, 188.26 50.17, 186.17 50.33, 184.11 50.5, 182.1 50.67, 180.13 50.83, 178.2 51.0, 176.31 51.17, 174.45 51.33, 172.64 51.5, 170.86 51.67, 169.12 51.83, 167.42 52.0, 165.76 52.17, 164.13 52.33, 162.53 52.5, 160.97 52.67, 159.45 52.83, 157.96 53.0, 156.5 53.17, 155.08 53.33, 153.69 53.5, 152.33 53.67, 151.0 53.83, 149.7 54.0, 148.44 54.17, 147.2 54.33, 146.0 54.5, 144.82 54.67, 143.67 54.83, 142.55 55.0, 141.46 55.17, 140.4 55.33, 139.36 55.5, 138.35 55.67, 137.37 55.83, 136.41 56.0, 135.48 56.17, 134.58 56.33, 133.69 56.5, 132.84 56.67, 132.0 56.83, 131.2 57.0, 130.41 57.17, 129.65 57.33, 128.91 57.5, 128.19 57.67, 127.49 57.83, 126.82 58.0, 126.16 58.17, 125.53 58.33, 124.92 58.5, 124.33 58.67, 123.76 58.83, 123.2 59.0, 122.67 59.17, 122.15 59.33, 121.66 59.5, 121.18 59.67, 120.72 59.83, 120.28 60.0, 119.85 60.17, 119.44 60.33, 119.05 60.5, 118.68 60.67, 118.32 60.83, 117.97 61.0, 117.65 61.17, 117.33 61.33, 117.04 61.5, 116.75 61.67, 116.49 61.83, 116.23 62.0, 115.99 62.17, 115.77 62.33, 115.55 62.5, 115.35 62.67, 115.17 62.83, 114.99 63.0, 114.83 63.17, 114.68 63.33, 114.54 63.5, 114.42 63.67, 114.3 63.83, 114.2 64.0, 114.11 64.17, 114.03 64.33, 113.96 64.5, 113.9 64.67, 113.85 64.83, 113.81 65.0, 113.78 65.17, 113.76 65.33, 113.75 65.5, 113.75 65.67, 113.75 65.83, 113.77 66.0, 113.79 66.17, 113.83 66.33, 113.87 66.5, 113.92 66.67, 113.98 66.83, 114.04 67.0, 114.11 67.17, 114.19 67.33, 114.28 67.5, 114.38 67.67, 114.48 67.83, 114.58 68.0, 114.7 68.17, 114.82 68.33, 114.95 68.5, 115.08 68.67, 115.22 68.83, 115.36 69.0, 115.51 69.17, 115.67 69.33, 115.83 69.5, 116.0 69.67, 116.17 69.83, 116.35 70.0, 116.53 70.17, 116.71 70.33, 116.91 70.5, 117.1 70.67, 117.3 70.83, 117.5 71.0, 117.71 71.17, 117.92 71.33, 118.14 71.5, 118.36 71.67, 118.58 71.83, 118.81 72.0, 119.04 72.17, 119.27 72.33, 119.5 72.5, 119.74 72.67, 119.99 72.83, 120.23 73.0, 120.48 73.17, 120.73 73.33, 120.98 73.5, 121.24 73.67, 121.49 73.83, 121.75 74.0, 122.02 74.17, 122.28 74.33, 122.55 74.5, 122.81 74.67, 123.08 74.83, 123.36 75.0, 123.63 75.17, 123.91 75.33, 124.18 75.5, 124.46 75.67, 124.74 75.83, 125.02 76.0, 125.3 76.17, 125.59 76.33, 125.87 76.5, 126.16 76.67, 126.44 76.83, 126.73 77.0, 127.02 77.17, 127.31 77.33, 127.6 77.5, 127.89 77.67, 128.18 77.83, 128.47 78.0, 128.76 78.17, 129.05 78.33, 129.35 78.5, 129.64 78.67, 129.93 78.83, 130.23 79.0, 130.52 79.17, 130.81 79.33, 131.11 79.5, 131.4 79.67, 131.7 79.83, 131.99 80.0, 132.29 80.17, 132.58 80.33, 132.87 80.5, 133.17 80.67, 133.46 80.83, 133.75 81.0, 134.05 81.17, 134.34 81.33, 134.63 81.5, 134.92 81.67, 135.21 81.83, 135.5 82.0, 135.79 82.17, 136.08 82.33, 136.37 82.5, 136.66 82.67, 136.95 82.83, 137.24 83.0, 137.52 83.17, 137.81 83.33, 138.1 83.5, 138.38 83.67, 138.66 83.83, 138.95 84.0, 139.23 84.17, 139.51 84.33, 139.79 84.5, 140.07 84.67, 140.35 84.83, 140.63 85.0, 140.9 85.17, 141.18 85.33, 141.45 85.5, 141.73 85.67, 142.0 85.83, 142.27 86.0, 142.54 86.17, 142.81 86.33, 143.08 86.5, 143.35 86.67, 143.62 86.83, 143.88 87.0, 144.15 87.17, 144.41 87.33, 144.67 87.5, 144.94 87.67, 145.2 87.83, 145.46 88.0, 145.71 88.17, 145.97 88.33, 146.23 88.5, 146.48 88.67, 146.73 88.83, 146.99 89.0, 147.24 89.17, 147.49 89.33, 147.74 89.5, 147.99 89.67, 148.23 89.83, 148.48 90.0, 148.72 90.17, 148.97 90.33, 149.21 90.5, 149.45 90.67, 149.69 90.83, 149.93 91.0, 150.16 91.17, 150.4 91.33, 150.64 91.5, 150.87 91.67, 151.1 91.83, 151.34 92.0, 151.57 92.17, 151.8 92.33, 152.02 92.5, 152.25 92.67, 152.48 92.83, 152.7 93.0, 152.93 93.17, 153.15 93.33, 153.37 93.5, 153.59 93.67, 153.81 93.83, 154.03 94.0, 154.25 94.17, 154.46 94.33, 154.68 94.5, 154.89 94.67, 155.11 94.83, 155.32 95.0, 155.53 95.17, 155.74 95.33, 155.95 95.5, 156.16 95.67, 156.36 95.83, 156.57 96.0, 156.77 96.17, 156.98 96.33, 157.18 96.5, 157.38 96.67, 157.58 96.83, 157.78 97.0, 157.98 97.17, 158.18 97.33, 158.38 97.5, 158.58 97.67, 158.77 97.83, 158.97 98.0, 159.16 98.17, 159.35 98.33, 159.55 98.5, 159.74 98.67, 159.93 98.83, 160.12 99.0, 160.31 99.17, 160.5 99.33, 160.68 99.5, 160.87 99.67, 161.06 99.83, 161.24 100.0, 161.43 100.17, 161.61 100.33, 161.79 100.5, 161.97 100.67, 162.16 100.83, 162.34 101.0, 162.52 101.17, 162.7 101.33, 162.88 101.5, 163.05 101.67, 163.23 101.83, 163.41 102.0, 163.59 102.17, 163.76 102.33, 163.94 102.5, 164.11 102.67, 164.29 102.83, 164.46 103.0, 164.63 103.17, 164.81 103.33, 164.98 103.5, 165.15 103.67, 165.32 103.83, 165.49 104.0, 165.66 104.17, 165.83 104.33, 166.0 104.5, 166.17 104.67, 166.34 104.83, 166.51 105.0, 166.68 105.17, 166.84 105.33, 167.01 105.5, 167.18 105.67, 167.34 105.83, 167.51 106.0, 167.67 106.17, 167.84 106.33, 168.0 106.5, 168.17 106.67, 168.33 106.83, 168.5 107.0, 168.66 107.17, 168.83 107.33, 168.99 107.5, 169.15 107.67, 169.32 107.83, 169.48 108.0, 169.64 108.17, 169.8 108.33, 169.97 108.5, 170.13 108.67, 170.29 108.83, 170.45 109.0, 170.61 109.17, 170.77 109.33, 170.94 109.5, 171.1 109.67, 171.26 109.83, 171.42 110.0, 171.58 110.17, 171.74 110.33, 171.9 110.5, 172.06 110.67, 172.22 110.83, 172.38 111.0, 172.54 111.17, 172.71 111.33, 172.87 111.5, 173.03 111.67, 173.19 111.83, 173.35 112.0, 173.51 112.17, 173.67 112.33, 173.83 112.5, 173.99 112.67, 174.15 112.83, 174.31 113.0, 174.47 113.17, 174.63 113.33, 174.79 113.5, 174.96 113.67, 175.12 113.83, 175.28 114.0, 175.44 114.17, 175.6 114.33, 175.76 114.5, 175.92 114.67, 176.08 114.83, 176.25 115.0, 176.41 115.17, 176.57 115.33, 176.73 115.5, 176.9 115.67, 177.06 115.83, 177.22 116.0, 177.38 116.17, 177.55 116.33, 177.71 116.5, 177.87 116.67, 178.04 116.83, 178.2 117.0, 178.36 117.17, 178.53 117.33, 178.69 117.5, 178.86 117.67, 179.02 117.83, 179.19 118.0, 179.35 118.17, 179.52 118.33, 179.68 118.5, 179.85 118.67, 180.01 118.83, 180.18 119.0, 180.35 119.17, 180.51 119.33, 180.68 119.5, 180.85 119.67, 181.01 119.83, 181.18 120.0, 181.35 120.17, 181.52 120.33, 181.68 120.5, 181.85 120.67, 182.02 120.83, 182.19 121.0, 182.36 121.17, 182.53 121.33, 182.7 121.5, 182.87 121.67, 183.04 121.83, 183.21 122.0, 183.38 122.17, 183.55 122.33, 183.72 122.5, 183.89 122.67, 184.06 122.83, 184.23 123.0, 184.4 123.17, 184.58 123.33, 184.75 123.5, 184.92 123.67, 185.09 123.83, 185.27 124.0, 185.44 124.17, 185.61 124.33, 185.79 124.5, 185.96 124.67, 186.14 124.83, 186.31 125.0, 186.48 125.17, 186.66 125.33, 186.83 125.5, 187.01 125.67, 187.18 125.83, 187.36 126.0, 187.54 126.17, 187.71 126.33, 187.89 126.5, 188.06 126.67, 188.24 126.83, 188.42 127.0, 188.59 127.17, 188.77 127.33, 188.95 127.5, 189.13 127.67, 189.3 127.83, 189.48 128.0, 189.66 128.17, 189.84 128.33, 190.01 128.5, 190.19 128.67, 190.37 128.83, 190.55 129.0, 190.73 129.17, 190.91 129.33, 191.09 129.5, 191.27 129.67, 191.44 129.83, 191.62 130.0, 191.8 130.17, 191.98 130.33, 192.16 130.5, 192.34 130.67, 192.52 130.83, 192.7 131.0, 192.88 131.17, 193.06 131.33, 193.24 131.5, 193.42 131.67, 193.6 131.83, 193.78 132.0, 193.96 132.17, 194.14 132.33, 194.32 132.5, 194.5 132.67, 194.68 132.83, 194.86 133.0, 195.04 133.17, 195.22 133.33, 195.4 133.5, 195.58 133.67, 195.76 133.83, 195.94 134.0, 196.12 134.17, 196.3 134.33, 196.48 134.5, 196.66 134.67, 196.84 134.83, 197.02 135.0, 197.2 135.17, 197.38 135.33, 197.56 135.5, 197.74 135.67, 197.92 135.83, 198.1 136.0, 198.27 136.17, 198.45 136.33, 198.63 136.5, 198.81 136.67, 198.99 136.83, 199.17 137.0, 199.34 137.17, 199.52 137.33, 199.7 137.5, 199.88 137.67, 200.05 137.83, 200.23 138.0, 200.4 138.17, 200.58 138.33, 200.76 138.5, 200.93 138.67, 201.11 138.83, 201.28 139.0, 201.46 139.17, 201.63 139.33, 201.81 139.5, 201.98 139.67, 202.15 139.83, 202.33 140.0, 202.5 140.17, 202.67 140.33, 202.84 140.5, 203.02 140.67, 203.19 140.83, 203.36 141.0, 203.53 141.17, 203.7 141.33, 203.87 141.5, 204.04 141.67, 204.21 141.83, 204.38 142.0, 204.54 142.17, 204.71 142.33, 204.88 142.5, 205.04 142.67, 205.21 142.83, 205.38 143.0, 205.54 143.17, 205.71 143.33, 205.87 143.5, 206.03 143.67, 206.2 143.83, 206.36 144.0, 206.52 144.17, 206.68 144.33, 206.84 144.5, 207.0 144.67, 207.16 144.83, 207.32 145.0, 207.48 145.17, 207.64 145.33, 207.79 145.5, 207.95 145.67, 208.11 145.83, 208.26 146.0, 208.42 146.17, 208.57 146.33, 208.72 146.5, 208.88 146.67, 209.03 146.83, 209.18 147.0, 209.33 147.17, 209.48 147.33, 209.63 147.5, 209.78 147.67, 209.92 147.83, 210.07 148.0, 210.22 148.17, 210.36 148.33, 210.5 148.5, 210.65 148.67, 210.79 148.83, 210.93 149.0, 211.07 149.17, 211.21 149.33, 211.35 149.5, 211.49 149.67, 211.63 149.83, 211.77 150.0, 211.9 150.17, 212.04 150.33, 212.17 150.5, 212.3 150.67, 212.44 150.83, 212.57 151.0, 212.7 151.17, 212.83 151.33, 212.96 151.5, 213.08 151.67, 213.21 151.83, 213.34 152.0, 213.46 152.17, 213.59 152.33, 213.71 152.5, 213.83 152.67, 213.95 152.83, 214.07 153.0, 214.19 153.17, 214.31 153.33, 214.42 153.5, 214.54 153.67, 214.66 153.83, 214.77 154.0, 214.88 154.17, 214.99 154.33, 215.1 154.5, 215.21 154.67, 215.32 154.83, 215.43 155.0, 215.53 155.17, 215.64 155.33, 215.74 155.5, 215.85 155.67, 215.95 155.83, 216.05 156.0, 216.15 156.17, 216.25 156.33, 216.34 156.5, 216.44 156.67, 216.53 156.83, 216.63 157.0, 216.72 157.17, 216.81 157.33, 216.9 157.5, 216.99 157.67, 217.08 157.83, 217.16 158.0, 217.25 158.17, 217.33 158.33, 217.42 158.5, 217.5 158.67, 217.58 158.83, 217.66 159.0, 217.74 159.17, 217.81 159.33, 217.89 159.5, 217.96 159.67, 218.03 159.83, 218.11 160.0, 218.18 160.17, 218.25 160.33, 218.31 160.5, 218.38 160.67, 218.44 160.83, 218.51 161.0, 218.57 161.17, 218.63 161.33, 218.69 161.5, 218.75 161.67, 218.81 161.83, 218.87 162.0, 218.92 162.17, 218.97 162.33, 219.03 162.5, 219.08 162.67, 219.13 162.83, 219.17 163.0, 219.22 163.17, 219.27 163.33, 219.31 163.5, 219.35 163.67, 219.39 163.83, 219.43 164.0, 219.47 164.17, 219.51 164.33, 219.55 164.5, 219.58 164.67, 219.61 164.83, 219.65 165.0, 219.68 165.17, 219.71 165.33, 219.73 165.5, 219.76 165.67, 219.79 165.83, 219.81 166.0, 219.83 166.17, 219.85 166.33, 219.87 166.5, 219.89 166.67, 219.91 166.83, 219.92 167.0, 219.94 167.17, 219.95 167.33, 219.96 167.5, 219.97 167.67, 219.98 167.83, 219.98 168.0, 219.99 168.17, 219.99 168.33, 220.0 168.5, 220.0 168.67, 220.0 168.83, 220.0 169.0, 219.99 169.17, 219.99 169.33, 219.99 169.5, 219.98 169.67, 219.97 169.83, 219.96 170.0, 219.95 170.17, 219.94 170.33, 219.92 170.5, 219.91 170.67, 219.89 170.83, 219.87 171.0, 219.85 171.17, 219.83 171.33, 219.81 171.5, 219.79 171.67, 219.76 171.83, 219.74 172.0, 219.71 172.17, 219.68 172.33, 219.65 172.5, 219.62 172.67, 219.58 172.83, 219.55 173.0, 219.51 173.17, 219.48 173.33, 219.44 173.5, 219.4 173.67, 219.36 173.83, 219.31 174.0, 219.27 174.17, 219.23 174.33, 219.18 174.5, 219.13 174.67, 219.08 174.83, 219.03 175.0, 218.98 175.17, 218.93 175.33, 218.87 175.5, 218.82 175.67, 218.76 175.83, 218.7 176.0, 218.64 176.17, 218.58 176.33, 218.52 176.5, 218.45 176.67, 218.39 176.83, 218.32 177.0, 218.26 177.17, 218.19 177.33, 218.12 177.5, 218.05 177.67, 217.97 177.83, 217.9 178.0, 217.82 178.17, 217.75 178.33, 217.67 178.5, 217.59 178.67, 217.51 178.83, 217.43 179.0, 217.35 179.17, 217.26 179.33, 217.18 179.5, 217.09 179.67, 217.01 179.83, 216.92 180.0, 216.83 180.17, 216.74 180.33, 216.65 180.5, 216.55 180.67, 216.46 180.83, 216.36 181.0, 216.27 181.17, 216.17 181.33, 216.07 181.5, 215.97 181.67, 215.87 181.83, 215.77 182.0, 215.67 182.17, 215.56 182.33, 215.46 182.5, 215.35 182.67, 215.24 182.83, 215.14 183.0, 215.03 183.17, 214.92 183.33, 214.8 183.5, 214.69 183.67, 214.58 183.83, 214.46 184.0, 214.35 184.17, 214.23 184.33, 214.11 184.5, 213.99 184.67, 213.87 184.83, 213.75 185.0, 213.63 185.17, 213.51 185.33, 213.39 185.5, 213.26 185.67, 213.14 185.83, 213.01 186.0, 212.88 186.17, 212.76 186.33, 212.63 186.5, 212.5 186.67, 212.37 186.83, 212.24 187.0, 212.1 187.17, 211.97 187.33, 211.84 187.5, 211.7 187.67, 211.57 187.83, 211.43 188.0, 211.29 188.17, 211.15 188.33, 211.02 188.5, 210.88 188.67, 210.74 188.83, 210.6 189.0, 210.45 189.17, 210.31 189.33, 210.17 189.5, 210.02 189.67, 209.88 189.83, 209.73 190.0, 209.59 190.17, 209.44 190.33, 209.29 190.5, 209.15 190.67, 209.0 190.83, 208.85 191.0, 208.7 191.17, 208.55 191.33, 208.4 191.5, 208.25 191.67, 208.09 191.83, 207.94 192.0, 207.79 192.17, 207.63 192.33, 207.48 192.5, 207.33 192.67, 207.17 192.83, 207.01 193.0, 206.86 193.17, 206.7 193.33, 206.54 193.5, 206.39 193.67, 206.23 193.83, 206.07 194.0, 205.91 194.17, 205.75 194.33, 205.59 194.5, 205.43 194.67, 205.27 194.83, 205.11 195.0, 204.95 195.17, 204.79 195.33, 204.62 195.5, 204.46 195.67, 204.3 195.83, 204.14 196.0, 203.97 196.17, 203.81 196.33, 203.65 196.5, 203.48 196.67, 203.32 196.83, 203.15 197.0, 202.99 197.17, 202.82 197.33, 202.66 197.5, 202.49 197.67, 202.33 197.83, 202.16 198.0, 202.0 198.17, 201.83 198.33, 201.66 198.5, 201.5 198.67, 201.33 198.83, 201.17 199.0, 201.0 199.17, 200.83 199.33, 200.67 199.5, 200.5 199.67, 200.33 199.83, 200.17 200.0, 200.0 200.17, 199.83 200.33, 199.67 200.5, 199.5 200.67, 199.33 200.83, 199.17 201.0, 199.0 201.17, 198.83 201.33, 198.67 201.5, 198.5 201.67, 198.34 201.83, 198.17 202.0, 198.0 202.17, 197.84 202.33, 197.67 202.5, 197.51 202.67, 197.34 202.83, 197.18 203.0, 197.01 203.17, 196.85 203.33, 196.68 203.5, 196.52 203.67, 196.35 203.83, 196.19 204.0, 196.03 204.17, 195.86 204.33, 195.7 204.5, 195.54 204.67, 195.38 204.83, 195.21 205.0, 195.05 205.17, 194.89 205.33, 194.73 205.5, 194.57 205.67, 194.41 205.83, 194.25 206.0, 194.09 206.17, 193.93 206.33, 193.77 206.5, 193.61 206.67, 193.46 206.83, 193.3 207.0, 193.14 207.17, 192.99 207.33, 192.83 207.5, 192.67 207.67, 192.52 207.83, 192.37 208.0, 192.21 208.17, 192.06 208.33, 191.91 208.5, 191.75 208.67, 191.6 208.83, 191.45 209.0, 191.3 209.17, 191.15 209.33, 191.0 209.5, 190.85 209.67, 190.71 209.83, 190.56 210.0, 190.41 210.17, 190.27 210.33, 190.12 210.5, 189.98 210.67, 189.83 210.83, 189.69 211.0, 189.55 211.17, 189.4 211.33, 189.26 211.5, 189.12 211.67, 188.98 211.83, 188.85 212.0, 188.71 212.17, 188.57 212.33, 188.43 212.5, 188.3 212.67, 188.16 212.83, 188.03 213.0, 187.9 213.17, 187.76 213.33, 187.63 213.5, 187.5 213.67, 187.37 213.83, 187.24 214.0, 187.12 214.17, 186.99 214.33, 186.86 214.5, 186.74 214.67, 186.61 214.83, 186.49 215.0, 186.37 215.17, 186.25 215.33, 186.13 215.5, 186.01 215.67, 185.89 215.83, 185.77 216.0, 185.65 216.17, 185.54 216.33, 185.42 216.5, 185.31 216.67, 185.2 216.83, 185.08 217.0, 184.97 217.17, 184.86 217.33, 184.76 217.5, 184.65 217.67, 184.54 217.83, 184.44 218.0, 184.33 218.17, 184.23 218.33, 184.13 218.5, 184.03 218.67, 183.93 218.83, 183.83 219.0, 183.73 219.17, 183.64 219.33, 183.54 219.5, 183.45 219.67, 183.35 219.83, 183.26 220.0, 183.17 220.17, 183.08 220.33, 182.99 220.5, 182.91 220.67, 182.82 220.83, 182.74 221.0, 182.65 221.17, 182.57 221.33, 182.49 221.5, 182.41 221.67, 182.33 221.83, 182.25 222.0, 182.18 222.17, 182.1 222.33, 182.03 222.5, 181.95 222.67, 181.88 222.83, 181.81 223.0, 181.74 223.17, 181.68 223.33, 181.61 223.5, 181.55 223.67, 181.48 223.83, 181.42 224.0, 181.36 224.17, 181.3 224.33, 181.24 224.5, 181.18 224.67, 181.13 224.83, 181.07 225.0, 181.02 225.17, 180.97 225.33, 180.92 225.5, 180.87 225.67, 180.82 225.83, 180.77 226.0, 180.73 226.17, 180.69 226.33, 180.64 226.5, 180.6 226.67, 180.56 226.83, 180.52 227.0, 180.49 227.17, 180.45 227.33, 180.42 227.5, 180.38 227.67, 180.35 227.83, 180.32 228.0, 180.29 228.17, 180.26 228.33, 180.24 228.5, 180.21 228.67, 180.19 228.83, 180.17 229.0, 180.15 229.17, 180.13 229.33, 180.11 229.5, 180.09 229.67, 180.08 229.83, 180.06 230.0, 180.05 230.17, 180.04 230.33, 180.03 230.5, 180.02 230.67, 180.01 230.83, 180.01 231.0, 180.01 231.17, 180.0 231.33, 180.0 231.5, 180.0 231.67, 180.0 231.83, 180.01 232.0, 180.01 232.17, 180.02 232.33, 180.02 232.5, 180.03 232.67, 180.04 232.83, 180.05 233.0, 180.06 233.17, 180.08 233.33, 180.09 233.5, 180.11 233.67, 180.13 233.83, 180.15 234.0, 180.17 234.17, 180.19 234.33, 180.21 234.5, 180.24 234.67, 180.27 234.83, 180.29 235.0, 180.32 235.17, 180.35 235.33, 180.39 235.5, 180.42 235.67, 180.45 235.83, 180.49 236.0, 180.53 236.17, 180.57 236.33, 180.61 236.5, 180.65 236.67, 180.69 236.83, 180.73 237.0, 180.78 237.17, 180.83 237.33, 180.87 237.5, 180.92 237.67, 180.97 237.83, 181.03 238.0, 181.08 238.17, 181.13 238.33, 181.19 238.5, 181.25 238.67, 181.31 238.83, 181.37 239.0, 181.43 239.17, 181.49 239.33, 181.56 239.5, 181.62 239.67, 181.69 239.83, 181.75 240.0, 181.82 240.17, 181.89 240.33, 181.97 240.5, 182.04 240.67, 182.11 240.83, 182.19 241.0, 182.26 241.17, 182.34 241.33, 182.42 241.5, 182.5 241.67, 182.58 241.83, 182.67 242.0, 182.75 242.17, 182.84 242.33, 182.92 242.5, 183.01 242.67, 183.1 242.83, 183.19 243.0, 183.28 243.17, 183.37 243.33, 183.47 243.5, 183.56 243.67, 183.66 243.83, 183.75 244.0, 183.85 244.17, 183.95 244.33, 184.05 244.5, 184.15 244.67, 184.26 244.83, 184.36 245.0, 184.47 245.17, 184.57 245.33, 184.68 245.5, 184.79 245.67, 184.9 245.83, 185.01 246.0, 185.12 246.17, 185.23 246.33, 185.34 246.5, 185.46 246.67, 185.58 246.83, 185.69 247.0, 185.81 247.17, 185.93 247.33, 186.05 247.5, 186.17 247.67, 186.29 247.83, 186.41 248.0, 186.54 248.17, 186.66 248.33, 186.79 248.5, 186.92 248.67, 187.04 248.83, 187.17 249.0, 187.3 249.17, 187.43 249.33, 187.56 249.5, 187.7 249.67, 187.83 249.83, 187.96 250.0, 188.1 250.17, 188.23 250.33, 188.37 250.5, 188.51 250.67, 188.65 250.83, 188.79 251.0, 188.93 251.17, 189.07 251.33, 189.21 251.5, 189.35 251.67, 189.5 251.83, 189.64 252.0, 189.78 252.17, 189.93 252.33, 190.08 252.5, 190.22 252.67, 190.37 252.83, 190.52 253.0, 190.67 253.17, 190.82 253.33, 190.97 253.5, 191.12 253.67, 191.28 253.83, 191.43 254.0, 191.58 254.17, 191.74 254.33, 191.89 254.5, 192.05 254.67, 192.21 254.83, 192.36 255.0, 192.52 255.17, 192.68 255.33, 192.84 255.5, 193.0 255.67, 193.16 255.83, 193.32 256.0, 193.48 256.17, 193.64 256.33, 193.8 256.5, 193.97 256.67, 194.13 256.83, 194.29 257.0, 194.46 257.17, 194.62 257.33, 194.79 257.5, 194.96 257.67, 195.12 257.83, 195.29 258.0, 195.46 258.17, 195.62 258.33, 195.79 258.5, 195.96 258.67, 196.13 258.83, 196.3 259.0, 196.47 259.17, 196.64 259.33, 196.81 259.5, 196.98 259.67, 197.16 259.83, 197.33 260.0, 197.5 260.17, 197.67 260.33, 197.85 260.5, 198.02 260.67, 198.19 260.83, 198.37 261.0, 198.54 261.17, 198.72 261.33, 198.89 261.5, 199.07 261.67, 199.24 261.83, 199.42 262.0, 199.6 262.17, 199.77 262.33, 199.95 262.5, 200.12 262.67, 200.3 262.83, 200.48 263.0, 200.66 263.17, 200.83 263.33, 201.01 263.5, 201.19 263.67, 201.37 263.83, 201.55 264.0, 201.73 264.17, 201.9 264.33, 202.08 264.5, 202.26 264.67, 202.44 264.83, 202.62 265.0, 202.8 265.17, 202.98 265.33, 203.16 265.5, 203.34 265.67, 203.52 265.83, 203.7 266.0, 203.88 266.17, 204.06 266.33, 204.24 266.5, 204.42 266.67, 204.6 266.83, 204.78 267.0, 204.96 267.17, 205.14 267.33, 205.32 267.5, 205.5 267.67, 205.68 267.83, 205.86 268.0, 206.04 268.17, 206.22 268.33, 206.4 268.5, 206.58 268.67, 206.76 268.83, 206.94 269.0, 207.12 269.17, 207.3 269.33, 207.48 269.5, 207.66 269.67, 207.84 269.83, 208.02 270.0, 208.2 270.17, 208.38 270.33, 208.56 270.5, 208.73 270.67, 208.91 270.83, 209.09 271.0, 209.27 271.17, 209.45 271.33, 209.63 271.5, 209.81 271.67, 209.99 271.83, 210.16 272.0, 210.34 272.17, 210.52 272.33, 210.7 272.5, 210.87 272.67, 211.05 272.83, 211.23 273.0, 211.41 273.17, 211.58 273.33, 211.76 273.5, 211.94 273.67, 212.11 273.83, 212.29 274.0, 212.46 274.17, 212.64 274.33, 212.82 274.5, 212.99 274.67, 213.17 274.83, 213.34 275.0, 213.52 275.17, 213.69 275.33, 213.86 275.5, 214.04 275.67, 214.21 275.83, 214.39 276.0, 214.56 276.17, 214.73 276.33, 214.91 276.5, 215.08 276.67, 215.25 276.83, 215.42 277.0, 215.6 277.17, 215.77 277.33, 215.94 277.5, 216.11 277.67, 216.28 277.83, 216.45 278.0, 216.62 278.17, 216.79 278.33, 216.96 278.5, 217.13 278.67, 217.3 278.83, 217.47 279.0, 217.64 279.17, 217.81 279.33, 217.98 279.5, 218.15 279.67, 218.32 279.83, 218.48 280.0, 218.65 280.17, 218.82 280.33, 218.99 280.5, 219.15 280.67, 219.32 280.83, 219.49 281.0, 219.65 281.17, 219.82 281.33, 219.99 281.5, 220.15 281.67, 220.32 281.83, 220.48 282.0, 220.65 282.17, 220.81 282.33, 220.98 282.5, 221.14 282.67, 221.31 282.83, 221.47 283.0, 221.64 283.17, 221.8 283.33, 221.96 283.5, 222.13 283.67, 222.29 283.83, 222.45 284.0, 222.62 284.17, 222.78 284.33, 222.94 284.5, 223.1 284.67, 223.27 284.83, 223.43 285.0, 223.59 285.17, 223.75 285.33, 223.92 285.5, 224.08 285.67, 224.24 285.83, 224.4 286.0, 224.56 286.17, 224.72 286.33, 224.88 286.5, 225.04 286.67, 225.21 286.83, 225.37 287.0, 225.53 287.17, 225.69 287.33, 225.85 287.5, 226.01 287.67, 226.17 287.83, 226.33 288.0, 226.49 288.17, 226.65 288.33, 226.81 288.5, 226.97 288.67, 227.13 288.83, 227.29 289.0, 227.46 289.17, 227.62 289.33, 227.78 289.5, 227.94 289.67, 228.1 289.83, 228.26 290.0, 228.42 290.17, 228.58 290.33, 228.74 290.5, 228.9 290.67, 229.06 290.83, 229.23 291.0, 229.39 291.17, 229.55 291.33, 229.71 291.5, 229.87 291.67, 230.03 291.83, 230.2 292.0, 230.36 292.17, 230.52 292.33, 230.68 292.5, 230.85 292.67, 231.01 292.83, 231.17 293.0, 231.34 293.17, 231.5 293.33, 231.67 293.5, 231.83 293.67, 232.0 293.83, 232.16 294.0, 232.33 294.17, 232.49 294.33, 232.66 294.5, 232.82 294.67, 232.99 294.83, 233.16 295.0, 233.32 295.17, 233.49 295.33, 233.66 295.5, 233.83 295.67, 234.0 295.83, 234.17 296.0, 234.34 296.17, 234.51 296.33, 234.68 296.5, 234.85 296.67, 235.02 296.83, 235.19 297.0, 235.37 297.17, 235.54 297.33, 235.71 297.5, 235.89 297.67, 236.06 297.83, 236.24 298.0, 236.41 298.17, 236.59 298.33, 236.77 298.5, 236.95 298.67, 237.12 298.83, 237.3 299.0, 237.48 299.17, 237.66 299.33, 237.84 299.5, 238.03 299.67, 238.21 299.83, 238.39 300.0, 238.57 300.17, 238.76 300.33, 238.94 300.5, 239.13 300.67, 239.32 300.83, 239.5 301.0, 239.69 301.17, 239.88 301.33, 240.07 301.5, 240.26 301.67, 240.45 301.83, 240.65 302.0, 240.84 302.17, 241.03 302.33, 241.23 302.5, 241.42 302.67, 241.62 302.83, 241.82 303.0, 242.02 303.17, 242.22 303.33, 242.42 303.5, 242.62 303.67, 242.82 303.83, 243.02 304.0, 243.23 304.17, 243.43 304.33, 243.64 304.5, 243.84 304.67, 244.05 304.83, 244.26 305.0, 244.47 305.17, 244.68 305.33, 244.89 305.5, 245.11 305.67, 245.32 305.83, 245.54 306.0, 245.75 306.17, 245.97 306.33, 246.19 306.5, 246.41 306.67, 246.63 306.83, 246.85 307.0, 247.07 307.17, 247.3 307.33, 247.52 307.5, 247.75 307.67, 247.98 307.83, 248.2 308.0, 248.43 308.17, 248.66 308.33, 248.9 308.5, 249.13 308.67, 249.36 308.83, 249.6 309.0, 249.84 309.17, 250.07 309.33, 250.31 309.5, 250.55 309.67, 250.79 309.83, 251.03 310.0, 251.28 310.17, 251.52 310.33, 251.77 310.5, 252.01 310.67, 252.26 310.83, 252.51 311.0, 252.76 311.17, 253.01 311.33, 253.27 311.5, 253.52 311.67, 253.77 311.83, 254.03 312.0, 254.29 312.17, 254.54 312.33, 254.8 312.5, 255.06 312.67, 255.33 312.83, 255.59 313.0, 255.85 313.17, 256.12 313.33, 256.38 313.5, 256.65 313.67, 256.92 313.83, 257.19 314.0, 257.46 314.17, 257.73 314.33, 258.0 314.5, 258.27 314.67, 258.55 314.83, 258.82 315.0, 259.1 315.17, 259.37 315.33, 259.65 315.5, 259.93 315.67, 260.21 315.83, 260.49 316.0, 260.77 316.17, 261.05 316.33, 261.34 316.5, 261.62 316.67, 261.9 316.83, 262.19 317.0, 262.48 317.17, 262.76 317.33, 263.05 317.5, 263.34 317.67, 263.63 317.83, 263.92 318.0, 264.21 318.17, 264.5 318.33, 264.79 318.5, 265.08 318.67, 265.37 318.83, 265.66 319.0, 265.95 319.17, 266.25 319.33, 266.54 319.5, 266.83 319.67, 267.13 319.83, 267.42 320.0, 267.71 320.17, 268.01 320.33, 268.3 320.5, 268.6 320.67, 268.89 320.83, 269.19 321.0, 269.48 321.17, 269.77 321.33, 270.07 321.5, 270.36 321.67, 270.65 321.83, 270.95 322.0, 271.24 322.17, 271.53 322.33, 271.82 322.5, 272.11 322.67, 272.4 322.83, 272.69 323.0, 272.98 323.17, 273.27 323.33, 273.56 323.5, 273.84 323.67, 274.13 323.83, 274.41 324.0, 274.7 324.17, 274.98 324.33, 275.26 324.5, 275.54 324.67, 275.82 324.83, 276.09 325.0, 276.37 325.17, 276.64 325.33, 276.92 325.5, 277.19 325.67, 277.45 325.83, 277.72 326.0, 277.98 326.17, 278.25 326.33, 278.51 326.5, 278.76 326.67, 279.02 326.83, 279.27 327.0, 279.52 327.17, 279.77 327.33, 280.01 327.5, 280.26 327.67, 280.5 327.83, 280.73 328.0, 280.96 328.17, 281.19 328.33, 281.42 328.5, 281.64 328.67, 281.86 328.83, 282.08 329.0, 282.29 329.17, 282.5 329.33, 282.7 329.5, 282.9 329.67, 283.09 329.83, 283.29 330.0, 283.47 330.17, 283.65 330.33, 283.83 330.5, 284.0 330.67, 284.17 330.83, 284.33 331.0, 284.49 331.17, 284.64 331.33, 284.78 331.5, 284.92 331.67, 285.05 331.83, 285.18 332.0, 285.3 332.17, 285.42 332.33, 285.52 332.5, 285.62 332.67, 285.72 332.83, 285.81 333.0, 285.89 333.17, 285.96 333.33, 286.02 333.5, 286.08 333.67, 286.13 333.83, 286.17 334.0, 286.21 334.17, 286.23 334.33, 286.25 334.5, 286.25 334.67, 286.25 334.83, 286.24 335.0, 286.22 335.17, 286.19 335.33, 286.15 335.5, 286.1 335.67, 286.04 335.83, 285.97 336.0, 285.89 336.17, 285.8 336.33, 285.7 336.5, 285.58 336.67, 285.46 336.83, 285.32 337.0, 285.17 337.17, 285.01 337.33, 284.83 337.5, 284.65 337.67, 284.45 337.83, 284.23 338.0, 284.01 338.17, 283.77 338.33, 283.51 338.5, 283.25 338.67, 282.96 338.83, 282.67 339.0, 282.35 339.17, 282.03 339.33, 281.68 339.5, 281.32 339.67, 280.95 339.83, 280.56 340.0, 280.15 340.17, 279.72 340.33, 279.28 340.5, 278.82 340.67, 278.34 340.83, 277.85 341.0, 277.33 341.17, 276.8 341.33, 276.24 341.5, 275.67 341.67, 275.08 341.83, 274.47 342.0, 273.84 342.17, 273.18 342.33, 272.51 342.5, 271.81 342.67, 271.09 342.83, 270.35 343.0, 269.59 343.17, 268.8 343.33, 268.0 343.5, 267.16 343.67, 266.31 343.83, 265.42 344.0, 264.52 344.17, 263.59 344.33, 262.63 344.5, 261.65 344.67, 260.64 344.83, 259.6 345.0, 258.54 345.17, 257.45 345.33, 256.33 345.5, 255.18 345.67, 254.0 345.83, 252.8 346.0, 251.56 346.17, 250.3 346.33, 249.0 346.5, 247.67 346.67, 246.31 346.83, 244.92 347.0, 243.5 347.17, 242.04 347.33, 240.55 347.5, 239.03 347.67, 237.47 347.83, 235.87 348.0, 234.24 348.17, 232.58 348.33, 230.88 348.5, 229.14 348.67, 227.36 348.83, 225.55 349.0, 223.69 349.17, 221.8 349.33, 219.87 349.5, 217.9 349.67, 215.89 349.83, 213.83 350.0, 211.74 350.17, 209.6 350.33, 207.42 350.5, 205.19 350.67, 202.92 350.83, 200.61 351.0, 198.25 351.17, 195.84 351.33, 193.39 351.5, 190.89 351.67, 188.34 351.83, 185.74 352.0, 183.1 352.17, 180.4 352.33, 177.66 352.5, 174.86 352.67, 172.01 352.83, 169.11 353.0, 166.16 353.17, 163.15 353.33, 160.09 353.5, 156.97 353.67, 153.79 353.83, 150.56 354.0, 147.27 354.17, 143.93 354.33, 140.52 354.5, 137.06 354.67, 133.53 354.83, 129.95 355.0, 126.3 355.17, 122.59 355.33, 118.82 355.5, 114.98 355.67, 111.07 355.83, 107.11 356.0, 103.07 356.17, 98.97 356.33, 94.8 356.5, 90.56 356.67, 86.25 356.83, 81.87 357.0, 77.41 357.17, 72.89 357.33, 68.29 357.5, 63.62 357.67, 58.87 357.83, 54.05 358.0, 49.15 358.17, 44.17 358.33, 39.11 358.5, 33.98 358.67, 28.76 358.83, 23.46 359.0, 18.08 359.17, 12.62 359.33, 7.07 359.5, 1.44 359.67, -4.28 359.83, -10.09 360.0, -15.99 360.17, -21.97 360.33, -28.05 360.5, -34.21 360.67, -40.47 360.83, -46.83 361.0, -53.27 361.17, -59.82 361.33, -66.46 361.5, -73.19 361.67, -80.03 361.83, -86.96 362.0, -94.0 362.17, -101.14 362.33, -108.38 362.5, -115.73 362.67, -123.19 362.83, -130.75 363.0, -138.41 363.17, -146.19 363.33, -154.08 363.5, -162.08 363.67, -170.19 363.83, -178.41 364.0, -186.76 364.17, -195.21 364.33, -203.79 364.5, -212.48 364.67, -221.3 364.83, -230.23 365.0, -239.29 365.17, -248.48 365.33, -257.78 365.5, -267.22 365.67, -276.78 365.83, -286.48 366.0, -296.3 366.17, -306.26 366.33, -316.35 366.5, -326.57 366.67, -336.94 366.83, -347.44 367.0, -358.08 367.17, -368.86 367.33, -379.78 367.5, -390.84 367.67, -402.06 367.83, -413.41 368.0, -424.92 368.17, -436.58 368.33, -448.38 368.5, -460.34 368.67, -472.46 368.83, -484.73 369.0, -497.15 369.17, -509.74 369.33, -522.49 369.5, -535.4 369.67, -548.47 369.83, -561.71 370.0, -575.12 370.17, -588.7 370.33, -602.44 370.5, -616.36 370.67, -630.45 370.83, -644.72 371.0, -659.17 371.17, -673.79 371.33, -688.6 371.5, -703.59 371.67, -718.76 371.83, -734.12 372.0, -749.67 372.17, -765.41 372.33, -781.34 372.5, -797.46 372.67, -813.78 372.83, -830.3 373.0, -847.02 373.17, -863.94 373.33, -881.06 373.5, -898.38 373.67, -915.92 373.83, -933.66 374.0, -951.62 374.17, -969.78 374.33, -988.17 374.5, -1006.77 374.67, -1025.59 374.83, -1044.63 375.0, -1063.89 375.17, -1083.38 375.33, -1103.1 375.5, -1123.05 375.67, -1143.23 375.83, -1163.64 376.0, -1184.29 376.17, -1205.18 376.33, -1226.31 376.5, -1247.68 376.67, -1269.3 376.83, -1291.17 377.0, -1313.28 377.17, -1335.65 377.33, -1358.27 377.5, -1381.15 377.67, -1404.29 377.83, -1427.69 378.0, -1451.36 378.17, -1475.29 378.33, -1499.49 378.5, -1523.96 378.67, -1548.7 378.83, -1573.72 379.0, -1599.02 379.17, -1624.6 379.33, -1650.46 379.5, -1676.61 379.67, -1703.05 379.83, -1729.78 380.0, -1756.8 380.17, -1784.12 380.33, -1811.74 380.5, -1839.66 380.67, -1867.89 380.83, -1896.42 381.0, -1925.27 381.17, -1954.42 381.33, -1983.89 381.5, -2013.68 381.67, -2043.79 381.83, -2074.23 382.0, -2104.99 382.17, -2136.08 382.33, -2167.5 382.5, -2199.26 382.67, -2231.36 382.83, -2263.8 383.0, -2296.58 383.17, -2329.71 383.33, -2363.19 383.5, -2397.02 383.67, -2431.21 383.83, -2465.76 384.0, -2500.67 384.17, -2535.95 384.33, -2571.59 384.5, -2607.61 384.67, -2644.0 384.83, -2680.77 385.0, -2717.92 385.17, -2755.46 385.33, -2793.38 385.5, -2831.69 385.67, -2870.4 385.83, -2909.51 386.0, -2949.02 386.17, -2988.93 386.33, -3029.25 386.5, -3069.98 386.67, -3111.12 386.83, -3152.69 387.0, -3194.67 387.17, -3237.08 387.33, -3279.92 387.5, -3323.19 387.67, -3366.9 387.83, -3411.04 388.0, -3455.63 388.17, -3500.67 388.33, -3546.16 388.5, -3592.1 388.67, -3638.49 388.83, -3685.35 389.0, -3732.68 389.17, -3780.47 389.33, -3828.74 389.5, -3877.48 389.67, -3926.71 389.83, -3976.42 390.0, -4026.62 390.17, -4077.31 390.33, -4128.49 390.5, -4180.18 390.67, -4232.37 390.83, -4285.07 391.0, -4338.28 391.17, -4392.01 391.33, -4446.26 391.5, -4501.04 391.67, -4556.34 391.83, -4612.18 392.0, -4668.56 392.17, -4725.47 392.33, -4782.94 392.5, -4840.95 392.67, -4899.52 392.83, -4958.65 393.0, -5018.34 393.17, -5078.61 393.33, -5139.44 393.5, -5200.85 393.67, -5262.84 393.83, -5325.42 394.0, -5388.59 394.17, -5452.36 394.33, -5516.72 394.5, -5581.69 394.67, -5647.27 394.83, -5713.47 395.0, -5780.28 395.17, -5847.72 395.33, -5915.78 395.5, -5984.48 395.67, -6053.82 395.83, -6123.8 396.0, -6194.43 396.17, -6265.71 396.33, -6337.65 396.5, -6410.26 396.67, -6483.53 396.83, -6557.48 397.0, -6632.1 397.17, -6707.41 397.33, -6783.41 397.5, -6860.1 397.67, -6937.49 397.83, -7015.59 398.0, -7094.39 398.17, -7173.91 398.33, -7254.16 398.5, -7335.13 398.67, -7416.83 398.83, -7499.26 399.0, -7582.44 399.17, -7666.37 399.33, -7751.06 399.5, -7836.5 399.67, -7922.71 399.83, -8009.69 400.0, -8097.44 " fill="none" stroke="white" stroke-width="1.5" stroke-linejoin="round" stroke-opacity="1"/>

 </svg>