<svg version="1.1" 
 baseProfile="full" 
 width="400" 
 height="400" 
 xmlns="http://www.w3.org/2000/svg">
<rect x="0.0" y="0.0" width="400" height="400" fill="black" stroke="black" stroke-width="0" opacity="1"/>
<line x1="0.0" y1="0.0" x2="0.0" y2="400.0" stroke="white" stroke-width="1" opacity="0.4" stroke-linecap="butt"/>
<line x1="40.0" y1="0.0" x2="40.0" y2="400.0" stroke="white" stroke-width="1" opacity="0.4" stroke-linecap="butt"/>
<line x1="80.0" y1="0.0" x2="80.0" y2="400.0" stroke="white" stroke-width="1" opacity="0.4" stroke-linecap="butt"/>
<line x1="120.0" y1="0.0" x2="120.0" y2="400.0" stroke="white" stroke-width="1" opacity="0.4" stroke-linecap="butt"/>
<line x1="160.0" y1="0.0" x2="160.0" y2="400.0" stroke="white" stroke-width="1" opacity="0.4" stroke-linecap="butt"/>
<line x1="200.0" y1="0.0" x2="200.0" y2="400.0" stroke="white" stroke-width="1" opacity="0.4" stroke-linecap="butt"/>
<line x1="240.0" y1="0.0" x2="240.0" y2="400.0" stroke="white" stroke-width="1" opacity="0.4" stroke-linecap="butt"/>
<line x1="280.0" y1="0.0" x2="280.0" y2="400.0" stroke="white" stroke-width="1" opacity="0.4" stroke-linecap="butt"/>
<line x1="320.0" y1="0.0" x2="320.0" y2="400.0" stroke="white" stroke-width="1" opacity="0.4" stroke-linecap="butt"/>
<line x1="360.0" y1="0.0" x2="360.0" y2="400.0" stroke="white" stroke-width="1" opacity="0.4" stroke-linecap="butt"/>
<line x1="0.0" y1="0.0" x2="400.0" y2="0.0" stroke="white" stroke-width="1" opacity="0.4" stroke-linecap="butt"/>
<line x1="0.0" y1="40.0" x2="400.0" y2="40.0" stroke="white" stroke-width="1" opacity="0.4" stroke-linecap="butt"/>
<line x1="0.0" y1="80.0" x2="400.0" y2="80.0" stroke="white" stroke-width="1" opacity="0.4" stroke-linecap="butt"/>
<line x1="0.0" y1="120.0" x2="400.0" y2="120.0" stroke="white" stroke-width="1" opacity="0.4" stroke-linecap="butt"/>
<line x1="0.0" y1="160.0" x2="400.0" y2="160.0" stroke="white" stroke-width="1" opacity="0.4" stroke-linecap="butt"/>
<line x1="0.0" y1="200.0" x2="400.0" y2="200.0" stroke="white" stroke-width="1" opacity="0.4" stroke-linecap="butt"/>
<line x1="0.0" y1="240.0" x2="400.0" y2="240.0" stroke="white" stroke-width="1" opacity="0.4" stroke-linecap="butt"/>
<line x1="0.0" y1="280.0" x2="400.0" y2="280.0" stroke="white" stroke-width="1" opacity="0.4" stroke-linecap="butt"/>
<line x1="0.0" y1="320.0" x2="400.0" y2="320.0" stroke="white" stroke-width="1" opacity="0.4" stroke-linecap="butt"/>
<line x1="0.0" y1="360.0" x2="400.0" y2="360.0" stroke="white" stroke-width="1" opacity="0.4" stroke-linecap="butt"/>
<line x1="0.0" y1="200.0" x2="400.0" y2="200.0" stroke="yellow" stroke-width="2.5" opacity="1" stroke-linecap="butt"/>
<line x1="200.0" y1="0.0" x2="200.0" y2="400.0" stroke="yellow" stroke-width="2.5" opacity="1" stroke-linecap="butt"/>
<polygon points="391.0 204.0, 401.0 200.0, 391.0 196.0, 393.0 200.0" fill="yellow"/><polygon points="204.0 9.0, 200.0 -1.0, 196.0 9.0, 200.0 7.0" fill="yellow"/><image x="-60.0" y="-60.0" width="200" height="200" href="/Users/girirajhira/PycharmProjects/Giraphics3/Taylor/expr.png"/><polyline points="0.0, 14697.84 0.17, 14563.74 0.33, 14430.72 0.5, 14298.77 0.67, 14167.9 0.83, 14038.09 1.0, 13909.34 1.17, 13781.63 1.33, 13654.97 1.5, 13529.33 1.67, 13404.73 1.83, 13281.14 2.0, 13158.56 2.17, 13036.99 2.33, 12916.41 2.5, 12796.83 2.67, 12678.23 2.83, 12560.6 3.0, 12443.95 3.17, 12328.26 3.33, 12213.52 3.5, 12099.73 3.67, 11986.89 3.83, 11874.98 4.0, 11764.0 4.17, 11653.94 4.33, 11544.8 4.5, 11436.56 4.67, 11329.23 4.83, 11222.8 5.0, 11117.26 5.17, 11012.6 5.33, 10908.81 5.5, 10805.9 5.67, 10703.85 5.83, 10602.66 6.0, 10502.33 6.17, 10402.83 6.33, 10304.18 6.5, 10206.37 6.67, 10109.38 6.83, 10013.21 7.0, 9917.85 7.17, 9823.31 7.33, 9729.57 7.5, 9636.63 7.67, 9544.48 7.83, 9453.12 8.0, 9362.54 8.17, 9272.74 8.33, 9183.7 8.5, 9095.43 8.67, 9007.91 8.83, 8921.15 9.0, 8835.13 9.17, 8749.86 9.33, 8665.32 9.5, 8581.51 9.67, 8498.42 9.83, 8416.06 10.0, 8334.41 10.17, 8253.47 10.33, 8173.23 10.5, 8093.7 10.67, 8014.85 10.83, 7936.69 11.0, 7859.22 11.17, 7782.42 11.33, 7706.3 11.5, 7630.84 11.67, 7556.05 11.83, 7481.91 12.0, 7408.43 12.17, 7335.59 12.33, 7263.4 12.5, 7191.84 12.67, 7120.92 12.83, 7050.63 13.0, 6980.96 13.17, 6911.91 13.33, 6843.47 13.5, 6775.64 13.67, 6708.42 13.83, 6641.8 14.0, 6575.77 14.17, 6510.33 14.33, 6445.48 14.5, 6381.22 14.67, 6317.53 14.83, 6254.41 15.0, 6191.86 15.17, 6129.87 15.33, 6068.45 15.5, 6007.58 15.67, 5947.26 15.83, 5887.49 16.0, 5828.26 16.17, 5769.57 16.33, 5711.41 16.5, 5653.79 16.67, 5596.69 16.83, 5540.11 17.0, 5484.05 17.17, 5428.5 17.33, 5373.46 17.5, 5318.93 17.67, 5264.9 17.83, 5211.36 18.0, 5158.32 18.17, 5105.78 18.33, 5053.71 18.5, 5002.13 18.67, 4951.03 18.83, 4900.4 19.0, 4850.24 19.17, 4800.55 19.33, 4751.32 19.5, 4702.55 19.67, 4654.24 19.83, 4606.38 20.0, 4558.96 20.17, 4511.99 20.33, 4465.47 20.5, 4419.38 20.67, 4373.73 20.83, 4328.5 21.0, 4283.71 21.17, 4239.33 21.33, 4195.38 21.5, 4151.84 21.67, 4108.72 21.83, 4066.01 22.0, 4023.7 22.17, 3981.8 22.33, 3940.3 22.5, 3899.2 22.67, 3858.49 22.83, 3818.17 23.0, 3778.23 23.17, 3738.68 23.33, 3699.51 23.5, 3660.72 23.67, 3622.31 23.83, 3584.26 24.0, 3546.58 24.17, 3509.27 24.33, 3472.32 24.5, 3435.73 24.67, 3399.5 24.83, 3363.62 25.0, 3328.09 25.17, 3292.91 25.33, 3258.07 25.5, 3223.57 25.67, 3189.41 25.83, 3155.59 26.0, 3122.1 26.17, 3088.94 26.33, 3056.11 26.5, 3023.61 26.67, 2991.42 26.83, 2959.55 27.0, 2928.01 27.17, 2896.77 27.33, 2865.84 27.5, 2835.23 27.67, 2804.92 27.83, 2774.91 28.0, 2745.2 28.17, 2715.79 28.33, 2686.68 28.5, 2657.86 28.67, 2629.33 28.83, 2601.09 29.0, 2573.13 29.17, 2545.45 29.33, 2518.06 29.5, 2490.94 29.67, 2464.1 29.83, 2437.53 30.0, 2411.24 30.17, 2385.21 30.33, 2359.45 30.5, 2333.95 30.67, 2308.71 30.83, 2283.73 31.0, 2259.01 31.17, 2234.54 31.33, 2210.32 31.5, 2186.36 31.67, 2162.64 31.83, 2139.17 32.0, 2115.94 32.17, 2092.95 32.33, 2070.2 32.5, 2047.69 32.67, 2025.42 32.83, 2003.37 33.0, 1981.56 33.17, 1959.97 33.33, 1938.62 33.5, 1917.48 33.67, 1896.57 33.83, 1875.88 34.0, 1855.41 34.17, 1835.15 34.33, 1815.11 34.5, 1795.28 34.67, 1775.66 34.83, 1756.25 35.0, 1737.05 35.17, 1718.05 35.33, 1699.25 35.5, 1680.66 35.67, 1662.26 35.83, 1644.07 36.0, 1626.06 36.17, 1608.25 36.33, 1590.64 36.5, 1573.21 36.67, 1555.97 36.83, 1538.92 37.0, 1522.06 37.17, 1505.37 37.33, 1488.87 37.5, 1472.55 37.67, 1456.41 37.83, 1440.44 38.0, 1424.65 38.17, 1409.03 38.33, 1393.58 38.5, 1378.3 38.67, 1363.19 38.83, 1348.25 39.0, 1333.47 39.17, 1318.86 39.33, 1304.41 39.5, 1290.12 39.67, 1275.98 39.83, 1262.01 40.0, 1248.19 40.17, 1234.52 40.33, 1221.01 40.5, 1207.65 40.67, 1194.44 40.83, 1181.38 41.0, 1168.46 41.17, 1155.69 41.33, 1143.07 41.5, 1130.58 41.67, 1118.24 41.83, 1106.04 42.0, 1093.98 42.17, 1082.05 42.33, 1070.26 42.5, 1058.61 42.67, 1047.09 42.83, 1035.7 43.0, 1024.44 43.17, 1013.31 43.33, 1002.31 43.5, 991.43 43.67, 980.69 43.83, 970.06 44.0, 959.56 44.17, 949.18 44.33, 938.92 44.5, 928.78 44.67, 918.76 44.83, 908.86 45.0, 899.07 45.17, 889.39 45.33, 879.83 45.5, 870.38 45.67, 861.05 45.83, 851.82 46.0, 842.7 46.17, 833.69 46.33, 824.79 46.5, 815.99 46.67, 807.3 46.83, 798.71 47.0, 790.22 47.17, 781.84 47.33, 773.55 47.5, 765.37 47.67, 757.28 47.83, 749.29 48.0, 741.4 48.17, 733.6 48.33, 725.89 48.5, 718.28 48.67, 710.76 48.83, 703.34 49.0, 696.0 49.17, 688.75 49.33, 681.59 49.5, 674.52 49.67, 667.53 49.83, 660.63 50.0, 653.82 50.17, 647.09 50.33, 640.44 50.5, 633.87 50.67, 627.39 50.83, 620.99 51.0, 614.66 51.17, 608.41 51.33, 602.25 51.5, 596.15 51.67, 590.14 51.83, 584.2 52.0, 578.33 52.17, 572.54 52.33, 566.82 52.5, 561.17 52.67, 555.6 52.83, 550.09 53.0, 544.66 53.17, 539.29 53.33, 533.99 53.5, 528.76 53.67, 523.6 53.83, 518.5 54.0, 513.46 54.17, 508.49 54.33, 503.59 54.5, 498.75 54.67, 493.97 54.83, 489.25 55.0, 484.59 55.17, 480.0 55.33, 475.46 55.5, 470.98 55.67, 466.56 55.83, 462.2 56.0, 457.89 56.17, 453.65 56.33, 449.45 56.5, 445.31 56.67, 441.23 56.83, 437.2 57.0, 433.22 57.17, 429.3 57.33, 425.43 57.5, 421.6 57.67, 417.83 57.83, 414.11 58.0, 410.44 58.17, 406.82 58.33, 403.25 58.5, 399.72 58.67, 396.25 58.83, 392.81 59.0, 389.43 59.17, 386.09 59.33, 382.8 59.5, 379.55 59.67, 376.34 59.83, 373.18 60.0, 370.06 60.17, 366.98 60.33, 363.95 60.5, 360.96 60.67, 358.01 60.83, 355.09 61.0, 352.22 61.17, 349.39 61.33, 346.6 61.5, 343.84 61.67, 341.13 61.83, 338.45 62.0, 335.81 62.17, 333.21 62.33, 330.64 62.5, 328.11 62.67, 325.61 62.83, 323.15 63.0, 320.72 63.17, 318.33 63.33, 315.97 63.5, 313.64 63.67, 311.35 63.83, 309.09 64.0, 306.86 64.17, 304.67 64.33, 302.5 64.5, 300.37 64.67, 298.26 64.83, 296.19 65.0, 294.14 65.17, 292.13 65.33, 290.14 65.5, 288.19 65.67, 286.26 65.83, 284.36 66.0, 282.49 66.17, 280.64 66.33, 278.82 66.5, 277.03 66.67, 275.26 66.83, 273.52 67.0, 271.81 67.17, 270.12 67.33, 268.45 67.5, 266.81 67.67, 265.2 67.83, 263.61 68.0, 262.04 68.17, 260.49 68.33, 258.97 68.5, 257.47 68.67, 255.99 68.83, 254.54 69.0, 253.11 69.17, 251.69 69.33, 250.3 69.5, 248.94 69.67, 247.59 69.83, 246.26 70.0, 244.95 70.17, 243.66 70.33, 242.39 70.5, 241.14 70.67, 239.91 70.83, 238.7 71.0, 237.51 71.17, 236.34 71.33, 235.18 71.5, 234.04 71.67, 232.92 71.83, 231.82 72.0, 230.73 72.17, 229.66 72.33, 228.61 72.5, 227.57 72.67, 226.55 72.83, 225.55 73.0, 224.56 73.17, 223.59 73.33, 222.63 73.5, 221.69 73.67, 220.76 73.83, 219.85 74.0, 218.95 74.17, 218.07 74.33, 217.2 74.5, 216.34 74.67, 215.5 74.83, 214.67 75.0, 213.86 75.17, 213.06 75.33, 212.27 75.5, 211.49 75.67, 210.73 75.83, 209.98 76.0, 209.24 76.17, 208.51 76.33, 207.8 76.5, 207.09 76.67, 206.4 76.83, 205.72 77.0, 205.05 77.17, 204.4 77.33, 203.75 77.5, 203.11 77.67, 202.49 77.83, 201.87 78.0, 201.27 78.17, 200.68 78.33, 200.09 78.5, 199.52 78.67, 198.95 78.83, 198.4 79.0, 197.85 79.17, 197.32 79.33, 196.79 79.5, 196.27 79.67, 195.76 79.83, 195.26 80.0, 194.77 80.17, 194.29 80.33, 193.81 80.5, 193.35 80.67, 192.89 80.83, 192.44 81.0, 192.0 81.17, 191.57 81.33, 191.14 81.5, 190.72 81.67, 190.31 81.83, 189.91 82.0, 189.51 82.17, 189.12 82.33, 188.74 82.5, 188.36 82.67, 187.99 82.83, 187.63 83.0, 187.28 83.17, 186.93 83.33, 186.59 83.5, 186.25 83.67, 185.92 83.83, 185.6 84.0, 185.28 84.17, 184.97 84.33, 184.67 84.5, 184.37 84.67, 184.07 84.83, 183.79 85.0, 183.5 85.17, 183.23 85.33, 182.96 85.5, 182.69 85.67, 182.43 85.83, 182.18 86.0, 181.93 86.17, 181.68 86.33, 181.44 86.5, 181.2 86.67, 180.97 86.83, 180.75 87.0, 180.53 87.17, 180.31 87.33, 180.1 87.5, 179.89 87.67, 179.69 87.83, 179.49 88.0, 179.3 88.17, 179.11 88.33, 178.92 88.5, 178.74 88.67, 178.56 88.83, 178.39 89.0, 178.22 89.17, 178.05 89.33, 177.89 89.5, 177.73 89.67, 177.58 89.83, 177.42 90.0, 177.28 90.17, 177.13 90.33, 176.99 90.5, 176.86 90.67, 176.72 90.83, 176.59 91.0, 176.47 91.17, 176.34 91.33, 176.22 91.5, 176.11 91.67, 175.99 91.83, 175.88 92.0, 175.77 92.17, 175.67 92.33, 175.57 92.5, 175.47 92.67, 175.37 92.83, 175.28 93.0, 175.19 93.17, 175.1 93.33, 175.02 93.5, 174.94 93.67, 174.86 93.83, 174.78 94.0, 174.71 94.17, 174.63 94.33, 174.57 94.5, 174.5 94.67, 174.44 94.83, 174.37 95.0, 174.32 95.17, 174.26 95.33, 174.2 95.5, 174.15 95.67, 174.1 95.83, 174.06 96.0, 174.01 96.17, 173.97 96.33, 173.93 96.5, 173.89 96.67, 173.85 96.83, 173.82 97.0, 173.78 97.17, 173.75 97.33, 173.73 97.5, 173.7 97.67, 173.68 97.83, 173.65 98.0, 173.63 98.17, 173.62 98.33, 173.6 98.5, 173.58 98.67, 173.57 98.83, 173.56 99.0, 173.55 99.17, 173.54 99.33, 173.54 99.5, 173.54 99.67, 173.53 99.83, 173.53 100.0, 173.54 100.17, 173.54 100.33, 173.54 100.5, 173.55 100.67, 173.56 100.83, 173.57 101.0, 173.58 101.17, 173.59 101.33, 173.61 101.5, 173.62 101.67, 173.64 101.83, 173.66 102.0, 173.68 102.17, 173.71 102.33, 173.73 102.5, 173.75 102.67, 173.78 102.83, 173.81 103.0, 173.84 103.17, 173.87 103.33, 173.9 103.5, 173.94 103.67, 173.97 103.83, 174.01 104.0, 174.05 104.17, 174.09 104.33, 174.13 104.5, 174.17 104.67, 174.22 104.83, 174.26 105.0, 174.31 105.17, 174.36 105.33, 174.4 105.5, 174.45 105.67, 174.51 105.83, 174.56 106.0, 174.61 106.17, 174.67 106.33, 174.73 106.5, 174.78 106.67, 174.84 106.83, 174.9 107.0, 174.96 107.17, 175.03 107.33, 175.09 107.5, 175.16 107.67, 175.22 107.83, 175.29 108.0, 175.36 108.17, 175.43 108.33, 175.5 108.5, 175.57 108.67, 175.65 108.83, 175.72 109.0, 175.8 109.17, 175.87 109.33, 175.95 109.5, 176.03 109.67, 176.11 109.83, 176.19 110.0, 176.27 110.17, 176.36 110.33, 176.44 110.5, 176.53 110.67, 176.61 110.83, 176.7 111.0, 176.79 111.17, 176.88 111.33, 176.97 111.5, 177.06 111.67, 177.15 111.83, 177.25 112.0, 177.34 112.17, 177.44 112.33, 177.53 112.5, 177.63 112.67, 177.73 112.83, 177.83 113.0, 177.93 113.17, 178.03 113.33, 178.13 113.5, 178.24 113.67, 178.34 113.83, 178.45 114.0, 178.56 114.17, 178.66 114.33, 178.77 114.5, 178.88 114.67, 178.99 114.83, 179.1 115.0, 179.21 115.17, 179.33 115.33, 179.44 115.5, 179.56 115.67, 179.67 115.83, 179.79 116.0, 179.9 116.17, 180.02 116.33, 180.14 116.5, 180.26 116.67, 180.38 116.83, 180.51 117.0, 180.63 117.17, 180.75 117.33, 180.88 117.5, 181.0 117.67, 181.13 117.83, 181.25 118.0, 181.38 118.17, 181.51 118.33, 181.64 118.5, 181.77 118.67, 181.9 118.83, 182.03 119.0, 182.16 119.17, 182.3 119.33, 182.43 119.5, 182.56 119.67, 182.7 119.83, 182.84 120.0, 182.97 120.17, 183.11 120.33, 183.25 120.5, 183.39 120.67, 183.53 120.83, 183.67 121.0, 183.81 121.17, 183.95 121.33, 184.09 121.5, 184.24 121.67, 184.38 121.83, 184.53 122.0, 184.67 122.17, 184.82 122.33, 184.96 122.5, 185.11 122.67, 185.26 122.83, 185.41 123.0, 185.56 123.17, 185.71 123.33, 185.86 123.5, 186.01 123.67, 186.16 123.83, 186.31 124.0, 186.46 124.17, 186.62 124.33, 186.77 124.5, 186.93 124.67, 187.08 124.83, 187.24 125.0, 187.39 125.17, 187.55 125.33, 187.71 125.5, 187.86 125.67, 188.02 125.83, 188.18 126.0, 188.34 126.17, 188.5 126.33, 188.66 126.5, 188.82 126.67, 188.98 126.83, 189.14 127.0, 189.31 127.17, 189.47 127.33, 189.63 127.5, 189.8 127.67, 189.96 127.83, 190.12 128.0, 190.29 128.17, 190.45 128.33, 190.62 128.5, 190.78 128.67, 190.95 128.83, 191.12 129.0, 191.28 129.17, 191.45 129.33, 191.62 129.5, 191.79 129.67, 191.95 129.83, 192.12 130.0, 192.29 130.17, 192.46 130.33, 192.63 130.5, 192.8 130.67, 192.97 130.83, 193.14 131.0, 193.31 131.17, 193.48 131.33, 193.65 131.5, 193.82 131.67, 193.99 131.83, 194.17 132.0, 194.34 132.17, 194.51 132.33, 194.68 132.5, 194.85 132.67, 195.03 132.83, 195.2 133.0, 195.37 133.17, 195.54 133.33, 195.72 133.5, 195.89 133.67, 196.06 133.83, 196.24 134.0, 196.41 134.17, 196.58 134.33, 196.76 134.5, 196.93 134.67, 197.1 134.83, 197.28 135.0, 197.45 135.17, 197.62 135.33, 197.8 135.5, 197.97 135.67, 198.15 135.83, 198.32 136.0, 198.49 136.17, 198.67 136.33, 198.84 136.5, 199.01 136.67, 199.19 136.83, 199.36 137.0, 199.53 137.17, 199.71 137.33, 199.88 137.5, 200.05 137.67, 200.22 137.83, 200.4 138.0, 200.57 138.17, 200.74 138.33, 200.91 138.5, 201.08 138.67, 201.26 138.83, 201.43 139.0, 201.6 139.17, 201.77 139.33, 201.94 139.5, 202.11 139.67, 202.28 139.83, 202.45 140.0, 202.62 140.17, 202.79 140.33, 202.96 140.5, 203.13 140.67, 203.3 140.83, 203.47 141.0, 203.63 141.17, 203.8 141.33, 203.97 141.5, 204.13 141.67, 204.3 141.83, 204.47 142.0, 204.63 142.17, 204.8 142.33, 204.96 142.5, 205.13 142.67, 205.29 142.83, 205.45 143.0, 205.62 143.17, 205.78 143.33, 205.94 143.5, 206.1 143.67, 206.27 143.83, 206.43 144.0, 206.59 144.17, 206.75 144.33, 206.9 144.5, 207.06 144.67, 207.22 144.83, 207.38 145.0, 207.54 145.17, 207.69 145.33, 207.85 145.5, 208.0 145.67, 208.16 145.83, 208.31 146.0, 208.46 146.17, 208.62 146.33, 208.77 146.5, 208.92 146.67, 209.07 146.83, 209.22 147.0, 209.37 147.17, 209.52 147.33, 209.67 147.5, 209.81 147.67, 209.96 147.83, 210.1 148.0, 210.25 148.17, 210.39 148.33, 210.54 148.5, 210.68 148.67, 210.82 148.83, 210.96 149.0, 211.1 149.17, 211.24 149.33, 211.38 149.5, 211.52 149.67, 211.65 149.83, 211.79 150.0, 211.93 150.17, 212.06 150.33, 212.19 150.5, 212.33 150.67, 212.46 150.83, 212.59 151.0, 212.72 151.17, 212.85 151.33, 212.98 151.5, 213.1 151.67, 213.23 151.83, 213.35 152.0, 213.48 152.17, 213.6 152.33, 213.72 152.5, 213.85 152.67, 213.97 152.83, 214.09 153.0, 214.2 153.17, 214.32 153.33, 214.44 153.5, 214.55 153.67, 214.67 153.83, 214.78 154.0, 214.89 154.17, 215.0 154.33, 215.11 154.5, 215.22 154.67, 215.33 154.83, 215.44 155.0, 215.54 155.17, 215.65 155.33, 215.75 155.5, 215.85 155.67, 215.96 155.83, 216.06 156.0, 216.16 156.17, 216.25 156.33, 216.35 156.5, 216.45 156.67, 216.54 156.83, 216.63 157.0, 216.73 157.17, 216.82 157.33, 216.91 157.5, 217.0 157.67, 217.08 157.83, 217.17 158.0, 217.25 158.17, 217.34 158.33, 217.42 158.5, 217.5 158.67, 217.58 158.83, 217.66 159.0, 217.74 159.17, 217.82 159.33, 217.89 159.5, 217.97 159.67, 218.04 159.83, 218.11 160.0, 218.18 160.17, 218.25 160.33, 218.32 160.5, 218.38 160.67, 218.45 160.83, 218.51 161.0, 218.57 161.17, 218.64 161.33, 218.7 161.5, 218.75 161.67, 218.81 161.83, 218.87 162.0, 218.92 162.17, 218.98 162.33, 219.03 162.5, 219.08 162.67, 219.13 162.83, 219.18 163.0, 219.22 163.17, 219.27 163.33, 219.31 163.5, 219.35 163.67, 219.4 163.83, 219.44 164.0, 219.47 164.17, 219.51 164.33, 219.55 164.5, 219.58 164.67, 219.62 164.83, 219.65 165.0, 219.68 165.17, 219.71 165.33, 219.73 165.5, 219.76 165.67, 219.79 165.83, 219.81 166.0, 219.83 166.17, 219.85 166.33, 219.87 166.5, 219.89 166.67, 219.91 166.83, 219.92 167.0, 219.94 167.17, 219.95 167.33, 219.96 167.5, 219.97 167.67, 219.98 167.83, 219.98 168.0, 219.99 168.17, 219.99 168.33, 220.0 168.5, 220.0 168.67, 220.0 168.83, 220.0 169.0, 219.99 169.17, 219.99 169.33, 219.99 169.5, 219.98 169.67, 219.97 169.83, 219.96 170.0, 219.95 170.17, 219.94 170.33, 219.92 170.5, 219.91 170.67, 219.89 170.83, 219.87 171.0, 219.85 171.17, 219.83 171.33, 219.81 171.5, 219.79 171.67, 219.76 171.83, 219.74 172.0, 219.71 172.17, 219.68 172.33, 219.65 172.5, 219.62 172.67, 219.58 172.83, 219.55 173.0, 219.51 173.17, 219.48 173.33, 219.44 173.5, 219.4 173.67, 219.36 173.83, 219.31 174.0, 219.27 174.17, 219.23 174.33, 219.18 174.5, 219.13 174.67, 219.08 174.83, 219.03 175.0, 218.98 175.17, 218.93 175.33, 218.87 175.5, 218.82 175.67, 218.76 175.83, 218.7 176.0, 218.64 176.17, 218.58 176.33, 218.52 176.5, 218.45 176.67, 218.39 176.83, 218.32 177.0, 218.26 177.17, 218.19 177.33, 218.12 177.5, 218.05 177.67, 217.97 177.83, 217.9 178.0, 217.82 178.17, 217.75 178.33, 217.67 178.5, 217.59 178.67, 217.51 178.83, 217.43 179.0, 217.35 179.17, 217.26 179.33, 217.18 179.5, 217.09 179.67, 217.01 179.83, 216.92 180.0, 216.83 180.17, 216.74 180.33, 216.65 180.5, 216.55 180.67, 216.46 180.83, 216.36 181.0, 216.27 181.17, 216.17 181.33, 216.07 181.5, 215.97 181.67, 215.87 181.83, 215.77 182.0, 215.67 182.17, 215.56 182.33, 215.46 182.5, 215.35 182.67, 215.24 182.83, 215.14 183.0, 215.03 183.17, 214.92 183.33, 214.8 183.5, 214.69 183.67, 214.58 183.83, 214.46 184.0, 214.35 184.17, 214.23 184.33, 214.11 184.5, 213.99 184.67, 213.87 184.83, 213.75 185.0, 213.63 185.17, 213.51 185.33, 213.39 185.5, 213.26 185.67, 213.14 185.83, 213.01 186.0, 212.88 186.17, 212.76 186.33, 212.63 186.5, 212.5 186.67, 212.37 186.83, 212.24 187.0, 212.1 187.17, 211.97 187.33, 211.84 187.5, 211.7 187.67, 211.57 187.83, 211.43 188.0, 211.29 188.17, 211.15 188.33, 211.02 188.5, 210.88 188.67, 210.74 188.83, 210.6 189.0, 210.45 189.17, 210.31 189.33, 210.17 189.5, 210.02 189.67, 209.88 189.83, 209.73 190.0, 209.59 190.17, 209.44 190.33, 209.29 190.5, 209.15 190.67, 209.0 190.83, 208.85 191.0, 208.7 191.17, 208.55 191.33, 208.4 191.5, 208.25 191.67, 208.09 191.83, 207.94 192.0, 207.79 192.17, 207.63 192.33, 207.48 192.5, 207.33 192.67, 207.17 192.83, 207.01 193.0, 206.86 193.17, 206.7 193.33, 206.54 193.5, 206.39 193.67, 206.23 193.83, 206.07 194.0, 205.91 194.17, 205.75 194.33, 205.59 194.5, 205.43 194.67, 205.27 194.83, 205.11 195.0, 204.95 195.17, 204.79 195.33, 204.62 195.5, 204.46 195.67, 204.3 195.83, 204.14 196.0, 203.97 196.17, 203.81 196.33, 203.65 196.5, 203.48 196.67, 203.32 196.83, 203.15 197.0, 202.99 197.17, 202.82 197.33, 202.66 197.5, 202.49 197.67, 202.33 197.83, 202.16 198.0, 202.0 198.17, 201.83 198.33, 201.66 198.5, 201.5 198.67, 201.33 198.83, 201.17 199.0, 201.0 199.17, 200.83 199.33, 200.67 199.5, 200.5 199.67, 200.33 199.83, 200.17 200.0, 200.0 200.17, 199.83 200.33, 199.67 200.5, 199.5 200.67, 199.33 200.83, 199.17 201.0, 199.0 201.17, 198.83 201.33, 198.67 201.5, 198.5 201.67, 198.34 201.83, 198.17 202.0, 198.0 202.17, 197.84 202.33, 197.67 202.5, 197.51 202.67, 197.34 202.83, 197.18 203.0, 197.01 203.17, 196.85 203.33, 196.68 203.5, 196.52 203.67, 196.35 203.83, 196.19 204.0, 196.03 204.17, 195.86 204.33, 195.7 204.5, 195.54 204.67, 195.38 204.83, 195.21 205.0, 195.05 205.17, 194.89 205.33, 194.73 205.5, 194.57 205.67, 194.41 205.83, 194.25 206.0, 194.09 206.17, 193.93 206.33, 193.77 206.5, 193.61 206.67, 193.46 206.83, 193.3 207.0, 193.14 207.17, 192.99 207.33, 192.83 207.5, 192.67 207.67, 192.52 207.83, 192.37 208.0, 192.21 208.17, 192.06 208.33, 191.91 208.5, 191.75 208.67, 191.6 208.83, 191.45 209.0, 191.3 209.17, 191.15 209.33, 191.0 209.5, 190.85 209.67, 190.71 209.83, 190.56 210.0, 190.41 210.17, 190.27 210.33, 190.12 210.5, 189.98 210.67, 189.83 210.83, 189.69 211.0, 189.55 211.17, 189.4 211.33, 189.26 211.5, 189.12 211.67, 188.98 211.83, 188.85 212.0, 188.71 212.17, 188.57 212.33, 188.43 212.5, 188.3 212.67, 188.16 212.83, 188.03 213.0, 187.9 213.17, 187.76 213.33, 187.63 213.5, 187.5 213.67, 187.37 213.83, 187.24 214.0, 187.12 214.17, 186.99 214.33, 186.86 214.5, 186.74 214.67, 186.61 214.83, 186.49 215.0, 186.37 215.17, 186.25 215.33, 186.13 215.5, 186.01 215.67, 185.89 215.83, 185.77 216.0, 185.65 216.17, 185.54 216.33, 185.42 216.5, 185.31 216.67, 185.2 216.83, 185.08 217.0, 184.97 217.17, 184.86 217.33, 184.76 217.5, 184.65 217.67, 184.54 217.83, 184.44 218.0, 184.33 218.17, 184.23 218.33, 184.13 218.5, 184.03 218.67, 183.93 218.83, 183.83 219.0, 183.73 219.17, 183.64 219.33, 183.54 219.5, 183.45 219.67, 183.35 219.83, 183.26 220.0, 183.17 220.17, 183.08 220.33, 182.99 220.5, 182.91 220.67, 182.82 220.83, 182.74 221.0, 182.65 221.17, 182.57 221.33, 182.49 221.5, 182.41 221.67, 182.33 221.83, 182.25 222.0, 182.18 222.17, 182.1 222.33, 182.03 222.5, 181.95 222.67, 181.88 222.83, 181.81 223.0, 181.74 223.17, 181.68 223.33, 181.61 223.5, 181.55 223.67, 181.48 223.83, 181.42 224.0, 181.36 224.17, 181.3 224.33, 181.24 224.5, 181.18 224.67, 181.13 224.83, 181.07 225.0, 181.02 225.17, 180.97 225.33, 180.92 225.5, 180.87 225.67, 180.82 225.83, 180.77 226.0, 180.73 226.17, 180.69 226.33, 180.64 226.5, 180.6 226.67, 180.56 226.83, 180.52 227.0, 180.49 227.17, 180.45 227.33, 180.42 227.5, 180.38 227.67, 180.35 227.83, 180.32 228.0, 180.29 228.17, 180.26 228.33, 180.24 228.5, 180.21 228.67, 180.19 228.83, 180.17 229.0, 180.15 229.17, 180.13 229.33, 180.11 229.5, 180.09 229.67, 180.08 229.83, 180.06 230.0, 180.05 230.17, 180.04 230.33, 180.03 230.5, 180.02 230.67, 180.01 230.83, 180.01 231.0, 180.01 231.17, 180.0 231.33, 180.0 231.5, 180.0 231.67, 180.0 231.83, 180.01 232.0, 180.01 232.17, 180.02 232.33, 180.02 232.5, 180.03 232.67, 180.04 232.83, 180.05 233.0, 180.06 233.17, 180.08 233.33, 180.09 233.5, 180.11 233.67, 180.13 233.83, 180.15 234.0, 180.17 234.17, 180.19 234.33, 180.21 234.5, 180.24 234.67, 180.27 234.83, 180.29 235.0, 180.32 235.17, 180.35 235.33, 180.38 235.5, 180.42 235.67, 180.45 235.83, 180.49 236.0, 180.53 236.17, 180.56 236.33, 180.6 236.5, 180.65 236.67, 180.69 236.83, 180.73 237.0, 180.78 237.17, 180.82 237.33, 180.87 237.5, 180.92 237.67, 180.97 237.83, 181.02 238.0, 181.08 238.17, 181.13 238.33, 181.19 238.5, 181.25 238.67, 181.3 238.83, 181.36 239.0, 181.43 239.17, 181.49 239.33, 181.55 239.5, 181.62 239.67, 181.68 239.83, 181.75 240.0, 181.82 240.17, 181.89 240.33, 181.96 240.5, 182.03 240.67, 182.11 240.83, 182.18 241.0, 182.26 241.17, 182.34 241.33, 182.42 241.5, 182.5 241.67, 182.58 241.83, 182.66 242.0, 182.75 242.17, 182.83 242.33, 182.92 242.5, 183.0 242.67, 183.09 242.83, 183.18 243.0, 183.27 243.17, 183.37 243.33, 183.46 243.5, 183.55 243.67, 183.65 243.83, 183.75 244.0, 183.84 244.17, 183.94 244.33, 184.04 244.5, 184.15 244.67, 184.25 244.83, 184.35 245.0, 184.46 245.17, 184.56 245.33, 184.67 245.5, 184.78 245.67, 184.89 245.83, 185.0 246.0, 185.11 246.17, 185.22 246.33, 185.33 246.5, 185.45 246.67, 185.56 246.83, 185.68 247.0, 185.8 247.17, 185.91 247.33, 186.03 247.5, 186.15 247.67, 186.28 247.83, 186.4 248.0, 186.52 248.17, 186.65 248.33, 186.77 248.5, 186.9 248.67, 187.02 248.83, 187.15 249.0, 187.28 249.17, 187.41 249.33, 187.54 249.5, 187.67 249.67, 187.81 249.83, 187.94 250.0, 188.07 250.17, 188.21 250.33, 188.35 250.5, 188.48 250.67, 188.62 250.83, 188.76 251.0, 188.9 251.17, 189.04 251.33, 189.18 251.5, 189.32 251.67, 189.46 251.83, 189.61 252.0, 189.75 252.17, 189.9 252.33, 190.04 252.5, 190.19 252.67, 190.33 252.83, 190.48 253.0, 190.63 253.17, 190.78 253.33, 190.93 253.5, 191.08 253.67, 191.23 253.83, 191.38 254.0, 191.54 254.17, 191.69 254.33, 191.84 254.5, 192.0 254.67, 192.15 254.83, 192.31 255.0, 192.46 255.17, 192.62 255.33, 192.78 255.5, 192.94 255.67, 193.1 255.83, 193.25 256.0, 193.41 256.17, 193.57 256.33, 193.73 256.5, 193.9 256.67, 194.06 256.83, 194.22 257.0, 194.38 257.17, 194.55 257.33, 194.71 257.5, 194.87 257.67, 195.04 257.83, 195.2 258.0, 195.37 258.17, 195.53 258.33, 195.7 258.5, 195.87 258.67, 196.03 258.83, 196.2 259.0, 196.37 259.17, 196.53 259.33, 196.7 259.5, 196.87 259.67, 197.04 259.83, 197.21 260.0, 197.38 260.17, 197.55 260.33, 197.72 260.5, 197.89 260.67, 198.06 260.83, 198.23 261.0, 198.4 261.17, 198.57 261.33, 198.74 261.5, 198.92 261.67, 199.09 261.83, 199.26 262.0, 199.43 262.17, 199.6 262.33, 199.78 262.5, 199.95 262.67, 200.12 262.83, 200.29 263.0, 200.47 263.17, 200.64 263.33, 200.81 263.5, 200.99 263.67, 201.16 263.83, 201.33 264.0, 201.51 264.17, 201.68 264.33, 201.85 264.5, 202.03 264.67, 202.2 264.83, 202.38 265.0, 202.55 265.17, 202.72 265.33, 202.9 265.5, 203.07 265.67, 203.24 265.83, 203.42 266.0, 203.59 266.17, 203.76 266.33, 203.94 266.5, 204.11 266.67, 204.28 266.83, 204.46 267.0, 204.63 267.17, 204.8 267.33, 204.97 267.5, 205.15 267.67, 205.32 267.83, 205.49 268.0, 205.66 268.17, 205.83 268.33, 206.01 268.5, 206.18 268.67, 206.35 268.83, 206.52 269.0, 206.69 269.17, 206.86 269.33, 207.03 269.5, 207.2 269.67, 207.37 269.83, 207.54 270.0, 207.71 270.17, 207.88 270.33, 208.05 270.5, 208.21 270.67, 208.38 270.83, 208.55 271.0, 208.72 271.17, 208.88 271.33, 209.05 271.5, 209.22 271.67, 209.38 271.83, 209.55 272.0, 209.71 272.17, 209.88 272.33, 210.04 272.5, 210.2 272.67, 210.37 272.83, 210.53 273.0, 210.69 273.17, 210.86 273.33, 211.02 273.5, 211.18 273.67, 211.34 273.83, 211.5 274.0, 211.66 274.17, 211.82 274.33, 211.98 274.5, 212.14 274.67, 212.29 274.83, 212.45 275.0, 212.61 275.17, 212.76 275.33, 212.92 275.5, 213.07 275.67, 213.23 275.83, 213.38 276.0, 213.54 276.17, 213.69 276.33, 213.84 276.5, 213.99 276.67, 214.14 276.83, 214.29 277.0, 214.44 277.17, 214.59 277.33, 214.74 277.5, 214.89 277.67, 215.04 277.83, 215.18 278.0, 215.33 278.17, 215.47 278.33, 215.62 278.5, 215.76 278.67, 215.91 278.83, 216.05 279.0, 216.19 279.17, 216.33 279.33, 216.47 279.5, 216.61 279.67, 216.75 279.83, 216.89 280.0, 217.03 280.17, 217.16 280.33, 217.3 280.5, 217.44 280.67, 217.57 280.83, 217.7 281.0, 217.84 281.17, 217.97 281.33, 218.1 281.5, 218.23 281.67, 218.36 281.83, 218.49 282.0, 218.62 282.17, 218.75 282.33, 218.87 282.5, 219.0 282.67, 219.12 282.83, 219.25 283.0, 219.37 283.17, 219.49 283.33, 219.62 283.5, 219.74 283.67, 219.86 283.83, 219.98 284.0, 220.1 284.17, 220.21 284.33, 220.33 284.5, 220.44 284.67, 220.56 284.83, 220.67 285.0, 220.79 285.17, 220.9 285.33, 221.01 285.5, 221.12 285.67, 221.23 285.83, 221.34 286.0, 221.44 286.17, 221.55 286.33, 221.66 286.5, 221.76 286.67, 221.87 286.83, 221.97 287.0, 222.07 287.17, 222.17 287.33, 222.27 287.5, 222.37 287.67, 222.47 287.83, 222.56 288.0, 222.66 288.17, 222.75 288.33, 222.85 288.5, 222.94 288.67, 223.03 288.83, 223.12 289.0, 223.21 289.17, 223.3 289.33, 223.39 289.5, 223.47 289.67, 223.56 289.83, 223.64 290.0, 223.73 290.17, 223.81 290.33, 223.89 290.5, 223.97 290.67, 224.05 290.83, 224.13 291.0, 224.2 291.17, 224.28 291.33, 224.35 291.5, 224.43 291.67, 224.5 291.83, 224.57 292.0, 224.64 292.17, 224.71 292.33, 224.78 292.5, 224.84 292.67, 224.91 292.83, 224.97 293.0, 225.04 293.17, 225.1 293.33, 225.16 293.5, 225.22 293.67, 225.27 293.83, 225.33 294.0, 225.39 294.17, 225.44 294.33, 225.49 294.5, 225.55 294.67, 225.6 294.83, 225.64 295.0, 225.69 295.17, 225.74 295.33, 225.78 295.5, 225.83 295.67, 225.87 295.83, 225.91 296.0, 225.95 296.17, 225.99 296.33, 226.03 296.5, 226.06 296.67, 226.1 296.83, 226.13 297.0, 226.16 297.17, 226.19 297.33, 226.22 297.5, 226.25 297.67, 226.27 297.83, 226.29 298.0, 226.32 298.17, 226.34 298.33, 226.36 298.5, 226.38 298.67, 226.39 298.83, 226.41 299.0, 226.42 299.17, 226.43 299.33, 226.44 299.5, 226.45 299.67, 226.46 299.83, 226.46 300.0, 226.46 300.17, 226.47 300.33, 226.47 300.5, 226.46 300.67, 226.46 300.83, 226.46 301.0, 226.45 301.17, 226.44 301.33, 226.43 301.5, 226.42 301.67, 226.4 301.83, 226.38 302.0, 226.37 302.17, 226.35 302.33, 226.32 302.5, 226.3 302.67, 226.27 302.83, 226.25 303.0, 226.22 303.17, 226.18 303.33, 226.15 303.5, 226.11 303.67, 226.07 303.83, 226.03 304.0, 225.99 304.17, 225.94 304.33, 225.9 304.5, 225.85 304.67, 225.8 304.83, 225.74 305.0, 225.68 305.17, 225.63 305.33, 225.56 305.5, 225.5 305.67, 225.43 305.83, 225.37 306.0, 225.29 306.17, 225.22 306.33, 225.14 306.5, 225.06 306.67, 224.98 306.83, 224.9 307.0, 224.81 307.17, 224.72 307.33, 224.63 307.5, 224.53 307.67, 224.43 307.83, 224.33 308.0, 224.23 308.17, 224.12 308.33, 224.01 308.5, 223.89 308.67, 223.78 308.83, 223.66 309.0, 223.53 309.17, 223.41 309.33, 223.28 309.5, 223.14 309.67, 223.01 309.83, 222.87 310.0, 222.72 310.17, 222.58 310.33, 222.42 310.5, 222.27 310.67, 222.11 310.83, 221.95 311.0, 221.78 311.17, 221.61 311.33, 221.44 311.5, 221.26 311.67, 221.08 311.83, 220.89 312.0, 220.7 312.17, 220.51 312.33, 220.31 312.5, 220.11 312.67, 219.9 312.83, 219.69 313.0, 219.47 313.17, 219.25 313.33, 219.03 313.5, 218.8 313.67, 218.56 313.83, 218.32 314.0, 218.07 314.17, 217.82 314.33, 217.57 314.5, 217.31 314.67, 217.04 314.83, 216.77 315.0, 216.5 315.17, 216.21 315.33, 215.93 315.5, 215.63 315.67, 215.33 315.83, 215.03 316.0, 214.72 316.17, 214.4 316.33, 214.08 316.5, 213.75 316.67, 213.41 316.83, 213.07 317.0, 212.72 317.17, 212.37 317.33, 212.01 317.5, 211.64 317.67, 211.26 317.83, 210.88 318.0, 210.49 318.17, 210.09 318.33, 209.69 318.5, 209.28 318.67, 208.86 318.83, 208.43 319.0, 208.0 319.17, 207.56 319.33, 207.11 319.5, 206.65 319.67, 206.19 319.83, 205.71 320.0, 205.23 320.17, 204.74 320.33, 204.24 320.5, 203.73 320.67, 203.21 320.83, 202.68 321.0, 202.15 321.17, 201.6 321.33, 201.05 321.5, 200.48 321.67, 199.91 321.83, 199.32 322.0, 198.73 322.17, 198.13 322.33, 197.51 322.5, 196.89 322.67, 196.25 322.83, 195.6 323.0, 194.95 323.17, 194.28 323.33, 193.6 323.5, 192.91 323.67, 192.2 323.83, 191.49 324.0, 190.76 324.17, 190.02 324.33, 189.27 324.5, 188.51 324.67, 187.73 324.83, 186.94 325.0, 186.14 325.17, 185.33 325.33, 184.5 325.5, 183.66 325.67, 182.8 325.83, 181.93 326.0, 181.05 326.17, 180.15 326.33, 179.24 326.5, 178.31 326.67, 177.37 326.83, 176.41 327.0, 175.44 327.17, 174.45 327.33, 173.45 327.5, 172.43 327.67, 171.39 327.83, 170.34 328.0, 169.27 328.17, 168.18 328.33, 167.08 328.5, 165.96 328.67, 164.82 328.83, 163.66 329.0, 162.49 329.17, 161.3 329.33, 160.09 329.5, 158.86 329.67, 157.61 329.83, 156.34 330.0, 155.05 330.17, 153.74 330.33, 152.41 330.5, 151.06 330.67, 149.7 330.83, 148.31 331.0, 146.89 331.17, 145.46 331.33, 144.01 331.5, 142.53 331.67, 141.03 331.83, 139.51 332.0, 137.96 332.17, 136.39 332.33, 134.8 332.5, 133.19 332.67, 131.55 332.83, 129.88 333.0, 128.19 333.17, 126.48 333.33, 124.74 333.5, 122.97 333.67, 121.18 333.83, 119.36 334.0, 117.51 334.17, 115.64 334.33, 113.74 334.5, 111.81 334.67, 109.86 334.83, 107.87 335.0, 105.86 335.17, 103.81 335.33, 101.74 335.5, 99.63 335.67, 97.5 335.83, 95.33 336.0, 93.14 336.17, 90.91 336.33, 88.65 336.5, 86.36 336.67, 84.03 336.83, 81.67 337.0, 79.28 337.17, 76.85 337.33, 74.39 337.5, 71.89 337.67, 69.36 337.83, 66.79 338.0, 64.19 338.17, 61.55 338.33, 58.87 338.5, 56.16 338.67, 53.4 338.83, 50.61 339.0, 47.78 339.17, 44.91 339.33, 41.99 339.5, 39.04 339.67, 36.05 339.83, 33.02 340.0, 29.94 340.17, 26.82 340.33, 23.66 340.5, 20.45 340.67, 17.2 340.83, 13.91 341.0, 10.57 341.17, 7.19 341.33, 3.75 341.5, 0.28 341.67, -3.25 341.83, -6.82 342.0, -10.44 342.17, -14.11 342.33, -17.83 342.5, -21.6 342.67, -25.43 342.83, -29.3 343.0, -33.22 343.17, -37.2 343.33, -41.23 343.5, -45.31 343.67, -49.45 343.83, -53.65 344.0, -57.89 344.17, -62.2 344.33, -66.56 344.5, -70.98 344.67, -75.46 344.83, -80.0 345.0, -84.59 345.17, -89.25 345.33, -93.97 345.5, -98.75 345.67, -103.59 345.83, -108.49 346.0, -113.46 346.17, -118.5 346.33, -123.6 346.5, -128.76 346.67, -133.99 346.83, -139.29 347.0, -144.66 347.17, -150.09 347.33, -155.6 347.5, -161.17 347.67, -166.82 347.83, -172.54 348.0, -178.33 348.17, -184.2 348.33, -190.14 348.5, -196.15 348.67, -202.25 348.83, -208.41 349.0, -214.66 349.17, -220.99 349.33, -227.39 349.5, -233.87 349.67, -240.44 349.83, -247.09 350.0, -253.82 350.17, -260.63 350.33, -267.53 350.5, -274.52 350.67, -281.59 350.83, -288.75 351.0, -296.0 351.17, -303.34 351.33, -310.76 351.5, -318.28 351.67, -325.89 351.83, -333.6 352.0, -341.4 352.17, -349.29 352.33, -357.28 352.5, -365.37 352.67, -373.55 352.83, -381.84 353.0, -390.22 353.17, -398.71 353.33, -407.3 353.5, -415.99 353.67, -424.79 353.83, -433.69 354.0, -442.7 354.17, -451.82 354.33, -461.05 354.5, -470.38 354.67, -479.83 354.83, -489.39 355.0, -499.07 355.17, -508.86 355.33, -518.76 355.5, -528.78 355.67, -538.92 355.83, -549.18 356.0, -559.56 356.17, -570.06 356.33, -580.69 356.5, -591.43 356.67, -602.31 356.83, -613.31 357.0, -624.44 357.17, -635.7 357.33, -647.09 357.5, -658.61 357.67, -670.26 357.83, -682.05 358.0, -693.98 358.17, -706.04 358.33, -718.24 358.5, -730.58 358.67, -743.07 358.83, -755.69 359.0, -768.46 359.17, -781.38 359.33, -794.44 359.5, -807.65 359.67, -821.01 359.83, -834.52 360.0, -848.19 360.17, -862.01 360.33, -875.98 360.5, -890.12 360.67, -904.41 360.83, -918.86 361.0, -933.47 361.17, -948.25 361.33, -963.19 361.5, -978.3 361.67, -993.58 361.83, -1009.03 362.0, -1024.65 362.17, -1040.44 362.33, -1056.41 362.5, -1072.55 362.67, -1088.87 362.83, -1105.37 363.0, -1122.06 363.17, -1138.92 363.33, -1155.97 363.5, -1173.21 363.67, -1190.64 363.83, -1208.25 364.0, -1226.06 364.17, -1244.07 364.33, -1262.26 364.5, -1280.66 364.67, -1299.25 364.83, -1318.05 365.0, -1337.05 365.17, -1356.25 365.33, -1375.66 365.5, -1395.28 365.67, -1415.11 365.83, -1435.15 366.0, -1455.41 366.17, -1475.88 366.33, -1496.57 366.5, -1517.48 366.67, -1538.62 366.83, -1559.97 367.0, -1581.56 367.17, -1603.37 367.33, -1625.42 367.5, -1647.69 367.67, -1670.2 367.83, -1692.95 368.0, -1715.94 368.17, -1739.17 368.33, -1762.64 368.5, -1786.36 368.67, -1810.32 368.83, -1834.54 369.0, -1859.01 369.17, -1883.73 369.33, -1908.71 369.5, -1933.95 369.67, -1959.45 369.83, -1985.21 370.0, -2011.24 370.17, -2037.53 370.33, -2064.1 370.5, -2090.94 370.67, -2118.06 370.83, -2145.45 371.0, -2173.13 371.17, -2201.09 371.33, -2229.33 371.5, -2257.86 371.67, -2286.68 371.83, -2315.79 372.0, -2345.2 372.17, -2374.91 372.33, -2404.92 372.5, -2435.23 372.67, -2465.84 372.83, -2496.77 373.0, -2528.01 373.17, -2559.55 373.33, -2591.42 373.5, -2623.61 373.67, -2656.11 373.83, -2688.94 374.0, -2722.1 374.17, -2755.59 374.33, -2789.41 374.5, -2823.57 374.67, -2858.07 374.83, -2892.91 375.0, -2928.09 375.17, -2963.62 375.33, -2999.5 375.5, -3035.73 375.67, -3072.32 375.83, -3109.27 376.0, -3146.58 376.17, -3184.26 376.33, -3222.31 376.5, -3260.72 376.67, -3299.51 376.83, -3338.68 377.0, -3378.23 377.17, -3418.17 377.33, -3458.49 377.5, -3499.2 377.67, -3540.3 377.83, -3581.8 378.0, -3623.7 378.17, -3666.01 378.33, -3708.72 378.5, -3751.84 378.67, -3795.38 378.83, -3839.33 379.0, -3883.71 379.17, -3928.5 379.33, -3973.73 379.5, -4019.38 379.67, -4065.47 379.83, -4111.99 380.0, -4158.96 380.17, -4206.38 380.33, -4254.24 380.5, -4302.55 380.67, -4351.32 380.83, -4400.55 381.0, -4450.24 381.17, -4500.4 381.33, -4551.03 381.5, -4602.13 381.67, -4653.71 381.83, -4705.78 382.0, -4758.32 382.17, -4811.36 382.33, -4864.9 382.5, -4918.93 382.67, -4973.46 382.83, -5028.5 383.0, -5084.05 383.17, -5140.11 383.33, -5196.69 383.5, -5253.79 383.67, -5311.41 383.83, -5369.57 384.0, -5428.26 384.17, -5487.49 384.33, -5547.26 384.5, -5607.58 384.67, -5668.45 384.83, -5729.87 385.0, -5791.86 385.17, -5854.41 385.33, -5917.53 385.5, -5981.22 385.67, -6045.48 385.83, -6110.33 386.0, -6175.77 386.17, -6241.8 386.33, -6308.42 386.5, -6375.64 386.67, -6443.47 386.83, -6511.91 387.0, -6580.96 387.17, -6650.63 387.33, -6720.92 387.5, -6791.84 387.67, -6863.4 387.83, -6935.59 388.0, -7008.43 388.17, -7081.91 388.33, -7156.05 388.5, -7230.84 388.67, -7306.3 388.83, -7382.42 389.0, -7459.22 389.17, -7536.69 389.33, -7614.85 389.5, -7693.7 389.67, -7773.23 389.83, -7853.47 390.0, -7934.41 390.17, -8016.06 390.33, -8098.42 390.5, -8181.51 390.67, -8265.32 390.83, -8349.86 391.0, -8435.13 391.17, -8521.15 391.33, -8607.91 391.5, -8695.43 391.67, -8783.7 391.83, -8872.74 392.0, -8962.54 392.17, -9053.12 392.33, -9144.48 392.5, -9236.63 392.67, -9329.57 392.83, -9423.31 393.0, -9517.85 393.17, -9613.21 393.33, -9709.38 393.5, -9806.37 393.67, -9904.18 393.83, -10002.83 394.0, -10102.33 394.17, -10202.66 394.33, -10303.85 394.5, -10405.9 394.67, -10508.81 394.83, -10612.6 395.0, -10717.26 395.17, -10822.8 395.33, -10929.23 395.5, -11036.56 395.67, -11144.8 395.83, -11253.94 396.0, -11364.0 396.17, -11474.98 396.33, -11586.89 396.5, -11699.73 396.67, -11813.52 396.83, -11928.26 397.0, -12043.95 397.17, -12160.6 397.33, -12278.23 397.5, -12396.83 397.67, -12516.41 397.83, -12636.99 398.0, -12758.56 398.17, -12881.14 398.33, -13004.73 398.5, -13129.33 398.67, -13254.97 398.83, -13381.63 399.0, -13509.34 399.17, -13638.09 399.33, -13767.9 399.5, -13898.77 399.67, -14030.72 399.83, -14163.74 400.0, -14297.84 " fill="none" stroke="white" stroke-width="1.5" stroke-linejoin="round" stroke-opacity="1"/>

 </svg>