<svg version="1.1" 
 baseProfile="full" 
 width="400" 
 height="400" 
 xmlns="http://www.w3.org/2000/svg">
<rect x="0.0" y="0.0" width="400" height="400" fill="black" stroke="black" stroke-width="0" opacity="1"/>
<line x1="0.0" y1="0.0" x2="0.0" y2="400.0" stroke="white" stroke-width="1" opacity="0.4" stroke-linecap="butt"/>
<line x1="40.0" y1="0.0" x2="40.0" y2="400.0" stroke="white" stroke-width="1" opacity="0.4" stroke-linecap="butt"/>
<line x1="80.0" y1="0.0" x2="80.0" y2="400.0" stroke="white" stroke-width="1" opacity="0.4" stroke-linecap="butt"/>
<line x1="120.0" y1="0.0" x2="120.0" y2="400.0" stroke="white" stroke-width="1" opacity="0.4" stroke-linecap="butt"/>
<line x1="160.0" y1="0.0" x2="160.0" y2="400.0" stroke="white" stroke-width="1" opacity="0.4" stroke-linecap="butt"/>
<line x1="200.0" y1="0.0" x2="200.0" y2="400.0" stroke="white" stroke-width="1" opacity="0.4" stroke-linecap="butt"/>
<line x1="240.0" y1="0.0" x2="240.0" y2="400.0" stroke="white" stroke-width="1" opacity="0.4" stroke-linecap="butt"/>
<line x1="280.0" y1="0.0" x2="280.0" y2="400.0" stroke="white" stroke-width="1" opacity="0.4" stroke-linecap="butt"/>
<line x1="320.0" y1="0.0" x2="320.0" y2="400.0" stroke="white" stroke-width="1" opacity="0.4" stroke-linecap="butt"/>
<line x1="360.0" y1="0.0" x2="360.0" y2="400.0" stroke="white" stroke-width="1" opacity="0.4" stroke-linecap="butt"/>
<line x1="0.0" y1="0.0" x2="400.0" y2="0.0" stroke="white" stroke-width="1" opacity="0.4" stroke-linecap="butt"/>
<line x1="0.0" y1="40.0" x2="400.0" y2="40.0" stroke="white" stroke-width="1" opacity="0.4" stroke-linecap="butt"/>
<line x1="0.0" y1="80.0" x2="400.0" y2="80.0" stroke="white" stroke-width="1" opacity="0.4" stroke-linecap="butt"/>
<line x1="0.0" y1="120.0" x2="400.0" y2="120.0" stroke="white" stroke-width="1" opacity="0.4" stroke-linecap="butt"/>
<line x1="0.0" y1="160.0" x2="400.0" y2="160.0" stroke="white" stroke-width="1" opacity="0.4" stroke-linecap="butt"/>
<line x1="0.0" y1="200.0" x2="400.0" y2="200.0" stroke="white" stroke-width="1" opacity="0.4" stroke-linecap="butt"/>
<line x1="0.0" y1="240.0" x2="400.0" y2="240.0" stroke="white" stroke-width="1" opacity="0.4" stroke-linecap="butt"/>
<line x1="0.0" y1="280.0" x2="400.0" y2="280.0" stroke="white" stroke-width="1" opacity="0.4" stroke-linecap="butt"/>
<line x1="0.0" y1="320.0" x2="400.0" y2="320.0" stroke="white" stroke-width="1" opacity="0.4" stroke-linecap="butt"/>
<line x1="0.0" y1="360.0" x2="400.0" y2="360.0" stroke="white" stroke-width="1" opacity="0.4" stroke-linecap="butt"/>
<line x1="0.0" y1="200.0" x2="400.0" y2="200.0" stroke="yellow" stroke-width="2.5" opacity="1" stroke-linecap="butt"/>
<line x1="200.0" y1="0.0" x2="200.0" y2="400.0" stroke="yellow" stroke-width="2.5" opacity="1" stroke-linecap="butt"/>
<polygon points="391.0 204.0, 401.0 200.0, 391.0 196.0, 393.0 200.0" fill="yellow"/><polygon points="204.0 9.0, 200.0 -1.0, 196.0 9.0, 200.0 7.0" fill="yellow"/><image x="-60.0" y="-60.0" width="200" height="200" href="/Users/girirajhira/PycharmProjects/Giraphics3/Taylor/expr.png"/><polyline points="0.0, 17453.57 0.17, 17298.87 0.33, 17145.39 0.5, 16993.12 0.67, 16842.06 0.83, 16692.19 1.0, 16543.51 1.17, 16396.02 1.33, 16249.7 1.5, 16104.54 1.67, 15960.54 1.83, 15817.68 2.0, 15675.97 2.17, 15535.39 2.33, 15395.94 2.5, 15257.6 2.67, 15120.37 2.83, 14984.25 3.0, 14849.21 3.17, 14715.27 3.33, 14582.4 3.5, 14450.61 3.67, 14319.88 3.83, 14190.21 4.0, 14061.58 4.17, 13934.0 4.33, 13807.45 4.5, 13681.93 4.67, 13557.43 4.83, 13433.95 5.0, 13311.47 5.17, 13189.99 5.33, 13069.5 5.5, 12949.99 5.67, 12831.47 5.83, 12713.91 6.0, 12597.32 6.17, 12481.68 6.33, 12367.0 6.5, 12253.26 6.67, 12140.46 6.83, 12028.59 7.0, 11917.64 7.17, 11807.61 7.33, 11698.49 7.5, 11590.27 7.67, 11482.95 7.83, 11376.52 8.0, 11270.98 8.17, 11166.32 8.33, 11062.52 8.5, 10959.6 8.67, 10857.53 8.83, 10756.32 9.0, 10655.95 9.17, 10556.43 9.33, 10457.74 9.5, 10359.88 9.67, 10262.84 9.83, 10166.62 10.0, 10071.21 10.17, 9976.61 10.33, 9882.8 10.5, 9789.79 10.67, 9697.57 10.83, 9606.12 11.0, 9515.46 11.17, 9425.56 11.33, 9336.43 11.5, 9248.06 11.67, 9160.44 11.83, 9073.58 12.0, 8987.45 12.17, 8902.06 12.33, 8817.4 12.5, 8733.47 12.67, 8650.26 12.83, 8567.76 13.0, 8485.98 13.17, 8404.9 13.33, 8324.52 13.5, 8244.83 13.67, 8165.83 13.83, 8087.52 14.0, 8009.88 14.17, 7932.92 14.33, 7856.63 14.5, 7781.0 14.67, 7706.04 14.83, 7631.72 15.0, 7558.05 15.17, 7485.03 15.33, 7412.65 15.5, 7340.9 15.67, 7269.78 15.83, 7199.28 16.0, 7129.41 16.17, 7060.15 16.33, 6991.5 16.5, 6923.46 16.67, 6856.02 16.83, 6789.17 17.0, 6722.92 17.17, 6657.25 17.33, 6592.17 17.5, 6527.67 17.67, 6463.74 17.83, 6400.38 18.0, 6337.58 18.17, 6275.35 18.33, 6213.67 18.5, 6152.55 18.67, 6091.97 18.83, 6031.94 19.0, 5972.45 19.17, 5913.49 19.33, 5855.06 19.5, 5797.17 19.67, 5739.79 19.83, 5682.93 20.0, 5626.59 20.17, 5570.76 20.33, 5515.43 20.5, 5460.61 20.67, 5406.29 20.83, 5352.46 21.0, 5299.12 21.17, 5246.27 21.33, 5193.9 21.5, 5142.02 21.67, 5090.61 21.83, 5039.67 22.0, 4989.19 22.17, 4939.19 22.33, 4889.64 22.5, 4840.55 22.67, 4791.91 22.83, 4743.73 23.0, 4695.99 23.17, 4648.69 23.33, 4601.83 23.5, 4555.41 23.67, 4509.41 23.83, 4463.85 24.0, 4418.71 24.17, 4374.0 24.33, 4329.7 24.5, 4285.82 24.67, 4242.34 24.83, 4199.28 25.0, 4156.62 25.17, 4114.36 25.33, 4072.51 25.5, 4031.04 25.67, 3989.97 25.83, 3949.29 26.0, 3908.99 26.17, 3869.07 26.33, 3829.53 26.5, 3790.37 26.67, 3751.58 26.83, 3713.16 27.0, 3675.11 27.17, 3637.42 27.33, 3600.09 27.5, 3563.12 27.67, 3526.51 27.83, 3490.24 28.0, 3454.33 28.17, 3418.76 28.33, 3383.53 28.5, 3348.65 28.67, 3314.1 28.83, 3279.88 29.0, 3246.0 29.17, 3212.45 29.33, 3179.22 29.5, 3146.31 29.67, 3113.73 29.83, 3081.46 30.0, 3049.51 30.17, 3017.87 30.33, 2986.54 30.5, 2955.52 30.67, 2924.8 30.83, 2894.39 31.0, 2864.27 31.17, 2834.46 31.33, 2804.93 31.5, 2775.7 31.67, 2746.76 31.83, 2718.1 32.0, 2689.73 32.17, 2661.64 32.33, 2633.83 32.5, 2606.29 32.67, 2579.03 32.83, 2552.05 33.0, 2525.33 33.17, 2498.88 33.33, 2472.69 33.5, 2446.77 33.67, 2421.11 33.83, 2395.71 34.0, 2370.56 34.17, 2345.67 34.33, 2321.03 34.5, 2296.64 34.67, 2272.49 34.83, 2248.59 35.0, 2224.94 35.17, 2201.52 35.33, 2178.34 35.5, 2155.4 35.67, 2132.7 35.83, 2110.22 36.0, 2087.98 36.17, 2065.96 36.33, 2044.17 36.5, 2022.61 36.67, 2001.26 36.83, 1980.14 37.0, 1959.23 37.17, 1938.54 37.33, 1918.07 37.5, 1897.8 37.67, 1877.75 37.83, 1857.91 38.0, 1838.27 38.17, 1818.84 38.33, 1799.61 38.5, 1780.58 38.67, 1761.75 38.83, 1743.11 39.0, 1724.68 39.17, 1706.43 39.33, 1688.38 39.5, 1670.52 39.67, 1652.85 39.83, 1635.36 40.0, 1618.06 40.17, 1600.94 40.33, 1584.0 40.5, 1567.25 40.67, 1550.67 40.83, 1534.26 41.0, 1518.04 41.17, 1501.98 41.33, 1486.1 41.5, 1470.39 41.67, 1454.85 41.83, 1439.47 42.0, 1424.26 42.17, 1409.21 42.33, 1394.32 42.5, 1379.6 42.67, 1365.03 42.83, 1350.63 43.0, 1336.37 43.17, 1322.28 43.33, 1308.33 43.5, 1294.54 43.67, 1280.9 43.83, 1267.41 44.0, 1254.06 44.17, 1240.86 44.33, 1227.81 44.5, 1214.9 44.67, 1202.13 44.83, 1189.5 45.0, 1177.01 45.17, 1164.66 45.33, 1152.44 45.5, 1140.36 45.67, 1128.41 45.83, 1116.6 46.0, 1104.92 46.17, 1093.36 46.33, 1081.94 46.5, 1070.64 46.67, 1059.47 46.83, 1048.43 47.0, 1037.51 47.17, 1026.71 47.33, 1016.03 47.5, 1005.47 47.67, 995.03 47.83, 984.71 48.0, 974.51 48.17, 964.42 48.33, 954.44 48.5, 944.58 48.67, 934.83 48.83, 925.19 49.0, 915.66 49.17, 906.24 49.33, 896.93 49.5, 887.72 49.67, 878.62 49.83, 869.63 50.0, 860.73 50.17, 851.94 50.33, 843.25 50.5, 834.66 50.67, 826.17 50.83, 817.78 51.0, 809.48 51.17, 801.29 51.33, 793.18 51.5, 785.17 51.67, 777.26 51.83, 769.43 52.0, 761.7 52.17, 754.06 52.33, 746.5 52.5, 739.04 52.67, 731.66 52.83, 724.37 53.0, 717.17 53.17, 710.05 53.33, 703.02 53.5, 696.06 53.67, 689.19 53.83, 682.41 54.0, 675.7 54.17, 669.07 54.33, 662.52 54.5, 656.05 54.67, 649.66 54.83, 643.34 55.0, 637.1 55.17, 630.93 55.33, 624.84 55.5, 618.82 55.67, 612.87 55.83, 606.99 56.0, 601.19 56.17, 595.45 56.33, 589.79 56.5, 584.19 56.67, 578.66 56.83, 573.2 57.0, 567.81 57.17, 562.48 57.33, 557.21 57.5, 552.01 57.67, 546.88 57.83, 541.8 58.0, 536.79 58.17, 531.84 58.33, 526.95 58.5, 522.12 58.67, 517.35 58.83, 512.64 59.0, 507.99 59.17, 503.4 59.33, 498.86 59.5, 494.38 59.67, 489.95 59.83, 485.58 60.0, 481.26 60.17, 477.0 60.33, 472.79 60.5, 468.64 60.67, 464.53 60.83, 460.48 61.0, 456.48 61.17, 452.53 61.33, 448.63 61.5, 444.77 61.67, 440.97 61.83, 437.21 62.0, 433.51 62.17, 429.84 62.33, 426.23 62.5, 422.66 62.67, 419.14 62.83, 415.66 63.0, 412.23 63.17, 408.84 63.33, 405.49 63.5, 402.19 63.67, 398.93 63.83, 395.71 64.0, 392.53 64.17, 389.39 64.33, 386.3 64.5, 383.24 64.67, 380.22 64.83, 377.25 65.0, 374.31 65.17, 371.41 65.33, 368.54 65.5, 365.72 65.67, 362.93 65.83, 360.18 66.0, 357.46 66.17, 354.78 66.33, 352.13 66.5, 349.52 66.67, 346.95 66.83, 344.4 67.0, 341.89 67.17, 339.42 67.33, 336.97 67.5, 334.56 67.67, 332.18 67.83, 329.84 68.0, 327.52 68.17, 325.24 68.33, 322.98 68.5, 320.76 68.67, 318.56 68.83, 316.39 69.0, 314.26 69.17, 312.15 69.33, 310.07 69.5, 308.02 69.67, 305.99 69.83, 304.0 70.0, 302.03 70.17, 300.08 70.33, 298.17 70.5, 296.28 70.67, 294.41 70.83, 292.57 71.0, 290.76 71.17, 288.97 71.33, 287.2 71.5, 285.46 71.67, 283.74 71.83, 282.05 72.0, 280.37 72.17, 278.73 72.33, 277.1 72.5, 275.5 72.67, 273.92 72.83, 272.36 73.0, 270.82 73.17, 269.3 73.33, 267.81 73.5, 266.34 73.67, 264.88 73.83, 263.45 74.0, 262.03 74.17, 260.64 74.33, 259.27 74.5, 257.91 74.67, 256.57 74.83, 255.26 75.0, 253.96 75.17, 252.68 75.33, 251.42 75.5, 250.17 75.67, 248.94 75.83, 247.73 76.0, 246.54 76.17, 245.37 76.33, 244.21 76.5, 243.07 76.67, 241.94 76.83, 240.83 77.0, 239.74 77.17, 238.66 77.33, 237.6 77.5, 236.55 77.67, 235.52 77.83, 234.5 78.0, 233.5 78.17, 232.51 78.33, 231.53 78.5, 230.57 78.67, 229.63 78.83, 228.7 79.0, 227.78 79.17, 226.87 79.33, 225.98 79.5, 225.1 79.67, 224.24 79.83, 223.38 80.0, 222.54 80.17, 221.71 80.33, 220.9 80.5, 220.1 80.67, 219.3 80.83, 218.52 81.0, 217.76 81.17, 217.0 81.33, 216.25 81.5, 215.52 81.67, 214.8 81.83, 214.08 82.0, 213.38 82.17, 212.69 82.33, 212.01 82.5, 211.34 82.67, 210.68 82.83, 210.03 83.0, 209.39 83.17, 208.76 83.33, 208.14 83.5, 207.53 83.67, 206.93 83.83, 206.33 84.0, 205.75 84.17, 205.18 84.33, 204.61 84.5, 204.06 84.67, 203.51 84.83, 202.97 85.0, 202.44 85.17, 201.92 85.33, 201.4 85.5, 200.9 85.67, 200.4 85.83, 199.91 86.0, 199.43 86.17, 198.95 86.33, 198.49 86.5, 198.03 86.67, 197.58 86.83, 197.13 87.0, 196.7 87.17, 196.27 87.33, 195.84 87.5, 195.43 87.67, 195.02 87.83, 194.62 88.0, 194.22 88.17, 193.83 88.33, 193.45 88.5, 193.07 88.67, 192.71 88.83, 192.34 89.0, 191.98 89.17, 191.63 89.33, 191.29 89.5, 190.95 89.67, 190.62 89.83, 190.29 90.0, 189.97 90.17, 189.65 90.33, 189.34 90.5, 189.04 90.67, 188.74 90.83, 188.45 91.0, 188.16 91.17, 187.87 91.33, 187.6 91.5, 187.32 91.67, 187.05 91.83, 186.79 92.0, 186.53 92.17, 186.28 92.33, 186.03 92.5, 185.79 92.67, 185.55 92.83, 185.31 93.0, 185.09 93.17, 184.86 93.33, 184.64 93.5, 184.42 93.67, 184.21 93.83, 184.0 94.0, 183.8 94.17, 183.6 94.33, 183.41 94.5, 183.21 94.67, 183.03 94.83, 182.84 95.0, 182.66 95.17, 182.49 95.33, 182.32 95.5, 182.15 95.67, 181.99 95.83, 181.83 96.0, 181.67 96.17, 181.52 96.33, 181.37 96.5, 181.22 96.67, 181.08 96.83, 180.94 97.0, 180.81 97.17, 180.68 97.33, 180.55 97.5, 180.42 97.67, 180.3 97.83, 180.18 98.0, 180.07 98.17, 179.95 98.33, 179.84 98.5, 179.74 98.67, 179.64 98.83, 179.54 99.0, 179.44 99.17, 179.34 99.33, 179.25 99.5, 179.17 99.67, 179.08 99.83, 179.0 100.0, 178.92 100.17, 178.84 100.33, 178.77 100.5, 178.7 100.67, 178.63 100.83, 178.56 101.0, 178.5 101.17, 178.44 101.33, 178.38 101.5, 178.32 101.67, 178.27 101.83, 178.22 102.0, 178.17 102.17, 178.12 102.33, 178.08 102.5, 178.04 102.67, 178.0 102.83, 177.97 103.0, 177.93 103.17, 177.9 103.33, 177.87 103.5, 177.84 103.67, 177.82 103.83, 177.8 104.0, 177.78 104.17, 177.76 104.33, 177.74 104.5, 177.73 104.67, 177.72 104.83, 177.71 105.0, 177.7 105.17, 177.69 105.33, 177.69 105.5, 177.69 105.67, 177.69 105.83, 177.69 106.0, 177.7 106.17, 177.7 106.33, 177.71 106.5, 177.72 106.67, 177.74 106.83, 177.75 107.0, 177.77 107.17, 177.78 107.33, 177.8 107.5, 177.82 107.67, 177.85 107.83, 177.87 108.0, 177.9 108.17, 177.93 108.33, 177.96 108.5, 177.99 108.67, 178.03 108.83, 178.06 109.0, 178.1 109.17, 178.14 109.33, 178.18 109.5, 178.22 109.67, 178.26 109.83, 178.31 110.0, 178.36 110.17, 178.41 110.33, 178.46 110.5, 178.51 110.67, 178.56 110.83, 178.62 111.0, 178.67 111.17, 178.73 111.33, 178.79 111.5, 178.85 111.67, 178.91 111.83, 178.98 112.0, 179.04 112.17, 179.11 112.33, 179.18 112.5, 179.25 112.67, 179.32 112.83, 179.39 113.0, 179.47 113.17, 179.54 113.33, 179.62 113.5, 179.7 113.67, 179.78 113.83, 179.86 114.0, 179.94 114.17, 180.02 114.33, 180.11 114.5, 180.19 114.67, 180.28 114.83, 180.37 115.0, 180.46 115.17, 180.55 115.33, 180.64 115.5, 180.74 115.67, 180.83 115.83, 180.93 116.0, 181.03 116.17, 181.12 116.33, 181.22 116.5, 181.32 116.67, 181.43 116.83, 181.53 117.0, 181.63 117.17, 181.74 117.33, 181.85 117.5, 181.95 117.67, 182.06 117.83, 182.17 118.0, 182.28 118.17, 182.39 118.33, 182.51 118.5, 182.62 118.67, 182.74 118.83, 182.85 119.0, 182.97 119.17, 183.09 119.33, 183.21 119.5, 183.33 119.67, 183.45 119.83, 183.57 120.0, 183.7 120.17, 183.82 120.33, 183.94 120.5, 184.07 120.67, 184.2 120.83, 184.33 121.0, 184.45 121.17, 184.58 121.33, 184.71 121.5, 184.85 121.67, 184.98 121.83, 185.11 122.0, 185.25 122.17, 185.38 122.33, 185.52 122.5, 185.65 122.67, 185.79 122.83, 185.93 123.0, 186.07 123.17, 186.21 123.33, 186.35 123.5, 186.49 123.67, 186.63 123.83, 186.78 124.0, 186.92 124.17, 187.06 124.33, 187.21 124.5, 187.36 124.67, 187.5 124.83, 187.65 125.0, 187.8 125.17, 187.95 125.33, 188.1 125.5, 188.25 125.67, 188.4 125.83, 188.55 126.0, 188.7 126.17, 188.85 126.33, 189.0 126.5, 189.16 126.67, 189.31 126.83, 189.47 127.0, 189.62 127.17, 189.78 127.33, 189.94 127.5, 190.09 127.67, 190.25 127.83, 190.41 128.0, 190.57 128.17, 190.73 128.33, 190.89 128.5, 191.05 128.67, 191.21 128.83, 191.37 129.0, 191.53 129.17, 191.69 129.33, 191.86 129.5, 192.02 129.67, 192.18 129.83, 192.35 130.0, 192.51 130.17, 192.67 130.33, 192.84 130.5, 193.0 130.67, 193.17 130.83, 193.34 131.0, 193.5 131.17, 193.67 131.33, 193.83 131.5, 194.0 131.67, 194.17 131.83, 194.34 132.0, 194.51 132.17, 194.67 132.33, 194.84 132.5, 195.01 132.67, 195.18 132.83, 195.35 133.0, 195.52 133.17, 195.69 133.33, 195.86 133.5, 196.03 133.67, 196.2 133.83, 196.37 134.0, 196.54 134.17, 196.71 134.33, 196.88 134.5, 197.05 134.67, 197.22 134.83, 197.39 135.0, 197.56 135.17, 197.73 135.33, 197.9 135.5, 198.08 135.67, 198.25 135.83, 198.42 136.0, 198.59 136.17, 198.76 136.33, 198.93 136.5, 199.1 136.67, 199.27 136.83, 199.45 137.0, 199.62 137.17, 199.79 137.33, 199.96 137.5, 200.13 137.67, 200.3 137.83, 200.47 138.0, 200.64 138.17, 200.81 138.33, 200.98 138.5, 201.15 138.67, 201.32 138.83, 201.49 139.0, 201.66 139.17, 201.83 139.33, 202.0 139.5, 202.17 139.67, 202.34 139.83, 202.51 140.0, 202.68 140.17, 202.84 140.33, 203.01 140.5, 203.18 140.67, 203.35 140.83, 203.51 141.0, 203.68 141.17, 203.85 141.33, 204.01 141.5, 204.18 141.67, 204.34 141.83, 204.51 142.0, 204.67 142.17, 204.84 142.33, 205.0 142.5, 205.16 142.67, 205.33 142.83, 205.49 143.0, 205.65 143.17, 205.81 143.33, 205.98 143.5, 206.14 143.67, 206.3 143.83, 206.46 144.0, 206.62 144.17, 206.77 144.33, 206.93 144.5, 207.09 144.67, 207.25 144.83, 207.4 145.0, 207.56 145.17, 207.72 145.33, 207.87 145.5, 208.03 145.67, 208.18 145.83, 208.33 146.0, 208.48 146.17, 208.64 146.33, 208.79 146.5, 208.94 146.67, 209.09 146.83, 209.24 147.0, 209.39 147.17, 209.53 147.33, 209.68 147.5, 209.83 147.67, 209.97 147.83, 210.12 148.0, 210.26 148.17, 210.41 148.33, 210.55 148.5, 210.69 148.67, 210.83 148.83, 210.97 149.0, 211.11 149.17, 211.25 149.33, 211.39 149.5, 211.53 149.67, 211.67 149.83, 211.8 150.0, 211.94 150.17, 212.07 150.33, 212.2 150.5, 212.34 150.67, 212.47 150.83, 212.6 151.0, 212.73 151.17, 212.86 151.33, 212.98 151.5, 213.11 151.67, 213.24 151.83, 213.36 152.0, 213.49 152.17, 213.61 152.33, 213.73 152.5, 213.85 152.67, 213.97 152.83, 214.09 153.0, 214.21 153.17, 214.33 153.33, 214.44 153.5, 214.56 153.67, 214.67 153.83, 214.79 154.0, 214.9 154.17, 215.01 154.33, 215.12 154.5, 215.23 154.67, 215.34 154.83, 215.44 155.0, 215.55 155.17, 215.65 155.33, 215.76 155.5, 215.86 155.67, 215.96 155.83, 216.06 156.0, 216.16 156.17, 216.26 156.33, 216.35 156.5, 216.45 156.67, 216.54 156.83, 216.64 157.0, 216.73 157.17, 216.82 157.33, 216.91 157.5, 217.0 157.67, 217.09 157.83, 217.17 158.0, 217.26 158.17, 217.34 158.33, 217.42 158.5, 217.5 158.67, 217.58 158.83, 217.66 159.0, 217.74 159.17, 217.82 159.33, 217.89 159.5, 217.97 159.67, 218.04 159.83, 218.11 160.0, 218.18 160.17, 218.25 160.33, 218.32 160.5, 218.38 160.67, 218.45 160.83, 218.51 161.0, 218.58 161.17, 218.64 161.33, 218.7 161.5, 218.75 161.67, 218.81 161.83, 218.87 162.0, 218.92 162.17, 218.98 162.33, 219.03 162.5, 219.08 162.67, 219.13 162.83, 219.18 163.0, 219.22 163.17, 219.27 163.33, 219.31 163.5, 219.36 163.67, 219.4 163.83, 219.44 164.0, 219.47 164.17, 219.51 164.33, 219.55 164.5, 219.58 164.67, 219.62 164.83, 219.65 165.0, 219.68 165.17, 219.71 165.33, 219.73 165.5, 219.76 165.67, 219.79 165.83, 219.81 166.0, 219.83 166.17, 219.85 166.33, 219.87 166.5, 219.89 166.67, 219.91 166.83, 219.92 167.0, 219.94 167.17, 219.95 167.33, 219.96 167.5, 219.97 167.67, 219.98 167.83, 219.99 168.0, 219.99 168.17, 219.99 168.33, 220.0 168.5, 220.0 168.67, 220.0 168.83, 220.0 169.0, 220.0 169.17, 219.99 169.33, 219.99 169.5, 219.98 169.67, 219.97 169.83, 219.96 170.0, 219.95 170.17, 219.94 170.33, 219.92 170.5, 219.91 170.67, 219.89 170.83, 219.87 171.0, 219.85 171.17, 219.83 171.33, 219.81 171.5, 219.79 171.67, 219.76 171.83, 219.74 172.0, 219.71 172.17, 219.68 172.33, 219.65 172.5, 219.62 172.67, 219.58 172.83, 219.55 173.0, 219.51 173.17, 219.48 173.33, 219.44 173.5, 219.4 173.67, 219.36 173.83, 219.31 174.0, 219.27 174.17, 219.23 174.33, 219.18 174.5, 219.13 174.67, 219.08 174.83, 219.03 175.0, 218.98 175.17, 218.93 175.33, 218.87 175.5, 218.82 175.67, 218.76 175.83, 218.7 176.0, 218.64 176.17, 218.58 176.33, 218.52 176.5, 218.45 176.67, 218.39 176.83, 218.32 177.0, 218.26 177.17, 218.19 177.33, 218.12 177.5, 218.05 177.67, 217.97 177.83, 217.9 178.0, 217.82 178.17, 217.75 178.33, 217.67 178.5, 217.59 178.67, 217.51 178.83, 217.43 179.0, 217.35 179.17, 217.26 179.33, 217.18 179.5, 217.09 179.67, 217.01 179.83, 216.92 180.0, 216.83 180.17, 216.74 180.33, 216.65 180.5, 216.55 180.67, 216.46 180.83, 216.36 181.0, 216.27 181.17, 216.17 181.33, 216.07 181.5, 215.97 181.67, 215.87 181.83, 215.77 182.0, 215.67 182.17, 215.56 182.33, 215.46 182.5, 215.35 182.67, 215.24 182.83, 215.14 183.0, 215.03 183.17, 214.92 183.33, 214.8 183.5, 214.69 183.67, 214.58 183.83, 214.46 184.0, 214.35 184.17, 214.23 184.33, 214.11 184.5, 213.99 184.67, 213.87 184.83, 213.75 185.0, 213.63 185.17, 213.51 185.33, 213.39 185.5, 213.26 185.67, 213.14 185.83, 213.01 186.0, 212.88 186.17, 212.76 186.33, 212.63 186.5, 212.5 186.67, 212.37 186.83, 212.24 187.0, 212.1 187.17, 211.97 187.33, 211.84 187.5, 211.7 187.67, 211.57 187.83, 211.43 188.0, 211.29 188.17, 211.15 188.33, 211.02 188.5, 210.88 188.67, 210.74 188.83, 210.6 189.0, 210.45 189.17, 210.31 189.33, 210.17 189.5, 210.02 189.67, 209.88 189.83, 209.73 190.0, 209.59 190.17, 209.44 190.33, 209.29 190.5, 209.15 190.67, 209.0 190.83, 208.85 191.0, 208.7 191.17, 208.55 191.33, 208.4 191.5, 208.25 191.67, 208.09 191.83, 207.94 192.0, 207.79 192.17, 207.63 192.33, 207.48 192.5, 207.33 192.67, 207.17 192.83, 207.01 193.0, 206.86 193.17, 206.7 193.33, 206.54 193.5, 206.39 193.67, 206.23 193.83, 206.07 194.0, 205.91 194.17, 205.75 194.33, 205.59 194.5, 205.43 194.67, 205.27 194.83, 205.11 195.0, 204.95 195.17, 204.79 195.33, 204.62 195.5, 204.46 195.67, 204.3 195.83, 204.14 196.0, 203.97 196.17, 203.81 196.33, 203.65 196.5, 203.48 196.67, 203.32 196.83, 203.15 197.0, 202.99 197.17, 202.82 197.33, 202.66 197.5, 202.49 197.67, 202.33 197.83, 202.16 198.0, 202.0 198.17, 201.83 198.33, 201.66 198.5, 201.5 198.67, 201.33 198.83, 201.17 199.0, 201.0 199.17, 200.83 199.33, 200.67 199.5, 200.5 199.67, 200.33 199.83, 200.17 200.0, 200.0 200.17, 199.83 200.33, 199.67 200.5, 199.5 200.67, 199.33 200.83, 199.17 201.0, 199.0 201.17, 198.83 201.33, 198.67 201.5, 198.5 201.67, 198.34 201.83, 198.17 202.0, 198.0 202.17, 197.84 202.33, 197.67 202.5, 197.51 202.67, 197.34 202.83, 197.18 203.0, 197.01 203.17, 196.85 203.33, 196.68 203.5, 196.52 203.67, 196.35 203.83, 196.19 204.0, 196.03 204.17, 195.86 204.33, 195.7 204.5, 195.54 204.67, 195.38 204.83, 195.21 205.0, 195.05 205.17, 194.89 205.33, 194.73 205.5, 194.57 205.67, 194.41 205.83, 194.25 206.0, 194.09 206.17, 193.93 206.33, 193.77 206.5, 193.61 206.67, 193.46 206.83, 193.3 207.0, 193.14 207.17, 192.99 207.33, 192.83 207.5, 192.67 207.67, 192.52 207.83, 192.37 208.0, 192.21 208.17, 192.06 208.33, 191.91 208.5, 191.75 208.67, 191.6 208.83, 191.45 209.0, 191.3 209.17, 191.15 209.33, 191.0 209.5, 190.85 209.67, 190.71 209.83, 190.56 210.0, 190.41 210.17, 190.27 210.33, 190.12 210.5, 189.98 210.67, 189.83 210.83, 189.69 211.0, 189.55 211.17, 189.4 211.33, 189.26 211.5, 189.12 211.67, 188.98 211.83, 188.85 212.0, 188.71 212.17, 188.57 212.33, 188.43 212.5, 188.3 212.67, 188.16 212.83, 188.03 213.0, 187.9 213.17, 187.76 213.33, 187.63 213.5, 187.5 213.67, 187.37 213.83, 187.24 214.0, 187.12 214.17, 186.99 214.33, 186.86 214.5, 186.74 214.67, 186.61 214.83, 186.49 215.0, 186.37 215.17, 186.25 215.33, 186.13 215.5, 186.01 215.67, 185.89 215.83, 185.77 216.0, 185.65 216.17, 185.54 216.33, 185.42 216.5, 185.31 216.67, 185.2 216.83, 185.08 217.0, 184.97 217.17, 184.86 217.33, 184.76 217.5, 184.65 217.67, 184.54 217.83, 184.44 218.0, 184.33 218.17, 184.23 218.33, 184.13 218.5, 184.03 218.67, 183.93 218.83, 183.83 219.0, 183.73 219.17, 183.64 219.33, 183.54 219.5, 183.45 219.67, 183.35 219.83, 183.26 220.0, 183.17 220.17, 183.08 220.33, 182.99 220.5, 182.91 220.67, 182.82 220.83, 182.74 221.0, 182.65 221.17, 182.57 221.33, 182.49 221.5, 182.41 221.67, 182.33 221.83, 182.25 222.0, 182.18 222.17, 182.1 222.33, 182.03 222.5, 181.95 222.67, 181.88 222.83, 181.81 223.0, 181.74 223.17, 181.68 223.33, 181.61 223.5, 181.55 223.67, 181.48 223.83, 181.42 224.0, 181.36 224.17, 181.3 224.33, 181.24 224.5, 181.18 224.67, 181.13 224.83, 181.07 225.0, 181.02 225.17, 180.97 225.33, 180.92 225.5, 180.87 225.67, 180.82 225.83, 180.77 226.0, 180.73 226.17, 180.69 226.33, 180.64 226.5, 180.6 226.67, 180.56 226.83, 180.52 227.0, 180.49 227.17, 180.45 227.33, 180.42 227.5, 180.38 227.67, 180.35 227.83, 180.32 228.0, 180.29 228.17, 180.26 228.33, 180.24 228.5, 180.21 228.67, 180.19 228.83, 180.17 229.0, 180.15 229.17, 180.13 229.33, 180.11 229.5, 180.09 229.67, 180.08 229.83, 180.06 230.0, 180.05 230.17, 180.04 230.33, 180.03 230.5, 180.02 230.67, 180.01 230.83, 180.01 231.0, 180.0 231.17, 180.0 231.33, 180.0 231.5, 180.0 231.67, 180.0 231.83, 180.01 232.0, 180.01 232.17, 180.01 232.33, 180.02 232.5, 180.03 232.67, 180.04 232.83, 180.05 233.0, 180.06 233.17, 180.08 233.33, 180.09 233.5, 180.11 233.67, 180.13 233.83, 180.15 234.0, 180.17 234.17, 180.19 234.33, 180.21 234.5, 180.24 234.67, 180.27 234.83, 180.29 235.0, 180.32 235.17, 180.35 235.33, 180.38 235.5, 180.42 235.67, 180.45 235.83, 180.49 236.0, 180.53 236.17, 180.56 236.33, 180.6 236.5, 180.64 236.67, 180.69 236.83, 180.73 237.0, 180.78 237.17, 180.82 237.33, 180.87 237.5, 180.92 237.67, 180.97 237.83, 181.02 238.0, 181.08 238.17, 181.13 238.33, 181.19 238.5, 181.25 238.67, 181.3 238.83, 181.36 239.0, 181.42 239.17, 181.49 239.33, 181.55 239.5, 181.62 239.67, 181.68 239.83, 181.75 240.0, 181.82 240.17, 181.89 240.33, 181.96 240.5, 182.03 240.67, 182.11 240.83, 182.18 241.0, 182.26 241.17, 182.34 241.33, 182.42 241.5, 182.5 241.67, 182.58 241.83, 182.66 242.0, 182.74 242.17, 182.83 242.33, 182.91 242.5, 183.0 242.67, 183.09 242.83, 183.18 243.0, 183.27 243.17, 183.36 243.33, 183.46 243.5, 183.55 243.67, 183.65 243.83, 183.74 244.0, 183.84 244.17, 183.94 244.33, 184.04 244.5, 184.14 244.67, 184.24 244.83, 184.35 245.0, 184.45 245.17, 184.56 245.33, 184.66 245.5, 184.77 245.67, 184.88 245.83, 184.99 246.0, 185.1 246.17, 185.21 246.33, 185.33 246.5, 185.44 246.67, 185.56 246.83, 185.67 247.0, 185.79 247.17, 185.91 247.33, 186.03 247.5, 186.15 247.67, 186.27 247.83, 186.39 248.0, 186.51 248.17, 186.64 248.33, 186.76 248.5, 186.89 248.67, 187.02 248.83, 187.14 249.0, 187.27 249.17, 187.4 249.33, 187.53 249.5, 187.66 249.67, 187.8 249.83, 187.93 250.0, 188.06 250.17, 188.2 250.33, 188.33 250.5, 188.47 250.67, 188.61 250.83, 188.75 251.0, 188.89 251.17, 189.03 251.33, 189.17 251.5, 189.31 251.67, 189.45 251.83, 189.59 252.0, 189.74 252.17, 189.88 252.33, 190.03 252.5, 190.17 252.67, 190.32 252.83, 190.47 253.0, 190.61 253.17, 190.76 253.33, 190.91 253.5, 191.06 253.67, 191.21 253.83, 191.36 254.0, 191.52 254.17, 191.67 254.33, 191.82 254.5, 191.97 254.67, 192.13 254.83, 192.28 255.0, 192.44 255.17, 192.6 255.33, 192.75 255.5, 192.91 255.67, 193.07 255.83, 193.23 256.0, 193.38 256.17, 193.54 256.33, 193.7 256.5, 193.86 256.67, 194.02 256.83, 194.19 257.0, 194.35 257.17, 194.51 257.33, 194.67 257.5, 194.84 257.67, 195.0 257.83, 195.16 258.0, 195.33 258.17, 195.49 258.33, 195.66 258.5, 195.82 258.67, 195.99 258.83, 196.15 259.0, 196.32 259.17, 196.49 259.33, 196.65 259.5, 196.82 259.67, 196.99 259.83, 197.16 260.0, 197.32 260.17, 197.49 260.33, 197.66 260.5, 197.83 260.67, 198.0 260.83, 198.17 261.0, 198.34 261.17, 198.51 261.33, 198.68 261.5, 198.85 261.67, 199.02 261.83, 199.19 262.0, 199.36 262.17, 199.53 262.33, 199.7 262.5, 199.87 262.67, 200.04 262.83, 200.21 263.0, 200.38 263.17, 200.55 263.33, 200.73 263.5, 200.9 263.67, 201.07 263.83, 201.24 264.0, 201.41 264.17, 201.58 264.33, 201.75 264.5, 201.92 264.67, 202.1 264.83, 202.27 265.0, 202.44 265.17, 202.61 265.33, 202.78 265.5, 202.95 265.67, 203.12 265.83, 203.29 266.0, 203.46 266.17, 203.63 266.33, 203.8 266.5, 203.97 266.67, 204.14 266.83, 204.31 267.0, 204.48 267.17, 204.65 267.33, 204.82 267.5, 204.99 267.67, 205.16 267.83, 205.33 268.0, 205.49 268.17, 205.66 268.33, 205.83 268.5, 206.0 268.67, 206.17 268.83, 206.33 269.0, 206.5 269.17, 206.66 269.33, 206.83 269.5, 207.0 269.67, 207.16 269.83, 207.33 270.0, 207.49 270.17, 207.65 270.33, 207.82 270.5, 207.98 270.67, 208.14 270.83, 208.31 271.0, 208.47 271.17, 208.63 271.33, 208.79 271.5, 208.95 271.67, 209.11 271.83, 209.27 272.0, 209.43 272.17, 209.59 272.33, 209.75 272.5, 209.91 272.67, 210.06 272.83, 210.22 273.0, 210.38 273.17, 210.53 273.33, 210.69 273.5, 210.84 273.67, 211.0 273.83, 211.15 274.0, 211.3 274.17, 211.45 274.33, 211.6 274.5, 211.75 274.67, 211.9 274.83, 212.05 275.0, 212.2 275.17, 212.35 275.33, 212.5 275.5, 212.64 275.67, 212.79 275.83, 212.94 276.0, 213.08 276.17, 213.22 276.33, 213.37 276.5, 213.51 276.67, 213.65 276.83, 213.79 277.0, 213.93 277.17, 214.07 277.33, 214.21 277.5, 214.35 277.67, 214.48 277.83, 214.62 278.0, 214.75 278.17, 214.89 278.33, 215.02 278.5, 215.15 278.67, 215.29 278.83, 215.42 279.0, 215.55 279.17, 215.67 279.33, 215.8 279.5, 215.93 279.67, 216.06 279.83, 216.18 280.0, 216.3 280.17, 216.43 280.33, 216.55 280.5, 216.67 280.67, 216.79 280.83, 216.91 281.0, 217.03 281.17, 217.15 281.33, 217.26 281.5, 217.38 281.67, 217.49 281.83, 217.61 282.0, 217.72 282.17, 217.83 282.33, 217.94 282.5, 218.05 282.67, 218.15 282.83, 218.26 283.0, 218.37 283.17, 218.47 283.33, 218.57 283.5, 218.68 283.67, 218.78 283.83, 218.88 284.0, 218.97 284.17, 219.07 284.33, 219.17 284.5, 219.26 284.67, 219.36 284.83, 219.45 285.0, 219.54 285.17, 219.63 285.33, 219.72 285.5, 219.81 285.67, 219.89 285.83, 219.98 286.0, 220.06 286.17, 220.14 286.33, 220.22 286.5, 220.3 286.67, 220.38 286.83, 220.46 287.0, 220.53 287.17, 220.61 287.33, 220.68 287.5, 220.75 287.67, 220.82 287.83, 220.89 288.0, 220.96 288.17, 221.02 288.33, 221.09 288.5, 221.15 288.67, 221.21 288.83, 221.27 289.0, 221.33 289.17, 221.38 289.33, 221.44 289.5, 221.49 289.67, 221.54 289.83, 221.59 290.0, 221.64 290.17, 221.69 290.33, 221.74 290.5, 221.78 290.67, 221.82 290.83, 221.86 291.0, 221.9 291.17, 221.94 291.33, 221.97 291.5, 222.01 291.67, 222.04 291.83, 222.07 292.0, 222.1 292.17, 222.13 292.33, 222.15 292.5, 222.18 292.67, 222.2 292.83, 222.22 293.0, 222.23 293.17, 222.25 293.33, 222.26 293.5, 222.28 293.67, 222.29 293.83, 222.3 294.0, 222.3 294.17, 222.31 294.33, 222.31 294.5, 222.31 294.67, 222.31 294.83, 222.31 295.0, 222.3 295.17, 222.29 295.33, 222.28 295.5, 222.27 295.67, 222.26 295.83, 222.24 296.0, 222.22 296.17, 222.2 296.33, 222.18 296.5, 222.16 296.67, 222.13 296.83, 222.1 297.0, 222.07 297.17, 222.03 297.33, 222.0 297.5, 221.96 297.67, 221.92 297.83, 221.88 298.0, 221.83 298.17, 221.78 298.33, 221.73 298.5, 221.68 298.67, 221.62 298.83, 221.56 299.0, 221.5 299.17, 221.44 299.33, 221.37 299.5, 221.3 299.67, 221.23 299.83, 221.16 300.0, 221.08 300.17, 221.0 300.33, 220.92 300.5, 220.83 300.67, 220.75 300.83, 220.66 301.0, 220.56 301.17, 220.46 301.33, 220.36 301.5, 220.26 301.67, 220.16 301.83, 220.05 302.0, 219.93 302.17, 219.82 302.33, 219.7 302.5, 219.58 302.67, 219.45 302.83, 219.32 303.0, 219.19 303.17, 219.06 303.33, 218.92 303.5, 218.78 303.67, 218.63 303.83, 218.48 304.0, 218.33 304.17, 218.17 304.33, 218.01 304.5, 217.85 304.67, 217.68 304.83, 217.51 305.0, 217.34 305.17, 217.16 305.33, 216.97 305.5, 216.79 305.67, 216.59 305.83, 216.4 306.0, 216.2 306.17, 216.0 306.33, 215.79 306.5, 215.58 306.67, 215.36 306.83, 215.14 307.0, 214.91 307.17, 214.69 307.33, 214.45 307.5, 214.21 307.67, 213.97 307.83, 213.72 308.0, 213.47 308.17, 213.21 308.33, 212.95 308.5, 212.68 308.67, 212.4 308.83, 212.13 309.0, 211.84 309.17, 211.55 309.33, 211.26 309.5, 210.96 309.67, 210.66 309.83, 210.35 310.0, 210.03 310.17, 209.71 310.33, 209.38 310.5, 209.05 310.67, 208.71 310.83, 208.37 311.0, 208.02 311.17, 207.66 311.33, 207.29 311.5, 206.93 311.67, 206.55 311.83, 206.17 312.0, 205.78 312.17, 205.38 312.33, 204.98 312.5, 204.57 312.67, 204.16 312.83, 203.73 313.0, 203.3 313.17, 202.87 313.33, 202.42 313.5, 201.97 313.67, 201.51 313.83, 201.05 314.0, 200.57 314.17, 200.09 314.33, 199.6 314.5, 199.1 314.67, 198.6 314.83, 198.08 315.0, 197.56 315.17, 197.03 315.33, 196.49 315.5, 195.94 315.67, 195.39 315.83, 194.82 316.0, 194.25 316.17, 193.67 316.33, 193.07 316.5, 192.47 316.67, 191.86 316.83, 191.24 317.0, 190.61 317.17, 189.97 317.33, 189.32 317.5, 188.66 317.67, 187.99 317.83, 187.31 318.0, 186.62 318.17, 185.92 318.33, 185.2 318.5, 184.48 318.67, 183.75 318.83, 183.0 319.0, 182.24 319.17, 181.48 319.33, 180.7 319.5, 179.9 319.67, 179.1 319.83, 178.29 320.0, 177.46 320.17, 176.62 320.33, 175.76 320.5, 174.9 320.67, 174.02 320.83, 173.13 321.0, 172.22 321.17, 171.3 321.33, 170.37 321.5, 169.43 321.67, 168.47 321.83, 167.49 322.0, 166.5 322.17, 165.5 322.33, 164.48 322.5, 163.45 322.67, 162.4 322.83, 161.34 323.0, 160.26 323.17, 159.17 323.33, 158.06 323.5, 156.93 323.67, 155.79 323.83, 154.63 324.0, 153.46 324.17, 152.27 324.33, 151.06 324.5, 149.83 324.67, 148.58 324.83, 147.32 325.0, 146.04 325.17, 144.74 325.33, 143.43 325.5, 142.09 325.67, 140.73 325.83, 139.36 326.0, 137.97 326.17, 136.55 326.33, 135.12 326.5, 133.66 326.67, 132.19 326.83, 130.7 327.0, 129.18 327.17, 127.64 327.33, 126.08 327.5, 124.5 327.67, 122.9 327.83, 121.27 328.0, 119.63 328.17, 117.95 328.33, 116.26 328.5, 114.54 328.67, 112.8 328.83, 111.03 329.0, 109.24 329.17, 107.43 329.33, 105.59 329.5, 103.72 329.67, 101.83 329.83, 99.92 330.0, 97.97 330.17, 96.0 330.33, 94.01 330.5, 91.98 330.67, 89.93 330.83, 87.85 331.0, 85.74 331.17, 83.61 331.33, 81.44 331.5, 79.24 331.67, 77.02 331.83, 74.76 332.0, 72.48 332.17, 70.16 332.33, 67.82 332.5, 65.44 332.67, 63.03 332.83, 60.58 333.0, 58.11 333.17, 55.6 333.33, 53.05 333.5, 50.48 333.67, 47.87 333.83, 45.22 334.0, 42.54 334.17, 39.82 334.33, 37.07 334.5, 34.28 334.67, 31.46 334.83, 28.59 335.0, 25.69 335.17, 22.75 335.33, 19.78 335.5, 16.76 335.67, 13.7 335.83, 10.61 336.0, 7.47 336.17, 4.29 336.33, 1.07 336.5, -2.19 336.67, -5.49 336.83, -8.84 337.0, -12.23 337.17, -15.66 337.33, -19.14 337.5, -22.66 337.67, -26.23 337.83, -29.84 338.0, -33.51 338.17, -37.21 338.33, -40.97 338.5, -44.77 338.67, -48.63 338.83, -52.53 339.0, -56.48 339.17, -60.48 339.33, -64.53 339.5, -68.64 339.67, -72.79 339.83, -77.0 340.0, -81.26 340.17, -85.58 340.33, -89.95 340.5, -94.38 340.67, -98.86 340.83, -103.4 341.0, -107.99 341.17, -112.64 341.33, -117.35 341.5, -122.12 341.67, -126.95 341.83, -131.84 342.0, -136.79 342.17, -141.8 342.33, -146.88 342.5, -152.01 342.67, -157.21 342.83, -162.48 343.0, -167.81 343.17, -173.2 343.33, -178.66 343.5, -184.19 343.67, -189.79 343.83, -195.45 344.0, -201.19 344.17, -206.99 344.33, -212.87 344.5, -218.82 344.67, -224.84 344.83, -230.93 345.0, -237.1 345.17, -243.34 345.33, -249.66 345.5, -256.05 345.67, -262.52 345.83, -269.07 346.0, -275.7 346.17, -282.41 346.33, -289.19 346.5, -296.06 346.67, -303.02 346.83, -310.05 347.0, -317.17 347.17, -324.37 347.33, -331.66 347.5, -339.04 347.67, -346.5 347.83, -354.06 348.0, -361.7 348.17, -369.43 348.33, -377.26 348.5, -385.17 348.67, -393.18 348.83, -401.29 349.0, -409.48 349.17, -417.78 349.33, -426.17 349.5, -434.66 349.67, -443.25 349.83, -451.94 350.0, -460.73 350.17, -469.63 350.33, -478.62 350.5, -487.72 350.67, -496.93 350.83, -506.24 351.0, -515.66 351.17, -525.19 351.33, -534.83 351.5, -544.58 351.67, -554.44 351.83, -564.42 352.0, -574.51 352.17, -584.71 352.33, -595.03 352.5, -605.47 352.67, -616.03 352.83, -626.71 353.0, -637.51 353.17, -648.43 353.33, -659.47 353.5, -670.64 353.67, -681.94 353.83, -693.36 354.0, -704.92 354.17, -716.6 354.33, -728.41 354.5, -740.36 354.67, -752.44 354.83, -764.66 355.0, -777.01 355.17, -789.5 355.33, -802.13 355.5, -814.9 355.67, -827.81 355.83, -840.86 356.0, -854.06 356.17, -867.41 356.33, -880.9 356.5, -894.54 356.67, -908.33 356.83, -922.28 357.0, -936.37 357.17, -950.63 357.33, -965.03 357.5, -979.6 357.67, -994.32 357.83, -1009.21 358.0, -1024.26 358.17, -1039.47 358.33, -1054.85 358.5, -1070.39 358.67, -1086.1 358.83, -1101.98 359.0, -1118.04 359.17, -1134.26 359.33, -1150.67 359.5, -1167.25 359.67, -1184.0 359.83, -1200.94 360.0, -1218.06 360.17, -1235.36 360.33, -1252.85 360.5, -1270.52 360.67, -1288.38 360.83, -1306.43 361.0, -1324.68 361.17, -1343.11 361.33, -1361.75 361.5, -1380.58 361.67, -1399.61 361.83, -1418.84 362.0, -1438.27 362.17, -1457.91 362.33, -1477.75 362.5, -1497.8 362.67, -1518.07 362.83, -1538.54 363.0, -1559.23 363.17, -1580.14 363.33, -1601.26 363.5, -1622.61 363.67, -1644.17 363.83, -1665.96 364.0, -1687.98 364.17, -1710.22 364.33, -1732.7 364.5, -1755.4 364.67, -1778.34 364.83, -1801.52 365.0, -1824.94 365.17, -1848.59 365.33, -1872.49 365.5, -1896.64 365.67, -1921.03 365.83, -1945.67 366.0, -1970.56 366.17, -1995.71 366.33, -2021.11 366.5, -2046.77 366.67, -2072.69 366.83, -2098.88 367.0, -2125.33 367.17, -2152.05 367.33, -2179.03 367.5, -2206.29 367.67, -2233.83 367.83, -2261.64 368.0, -2289.73 368.17, -2318.1 368.33, -2346.76 368.5, -2375.7 368.67, -2404.93 368.83, -2434.46 369.0, -2464.27 369.17, -2494.39 369.33, -2524.8 369.5, -2555.52 369.67, -2586.54 369.83, -2617.87 370.0, -2649.51 370.17, -2681.46 370.33, -2713.73 370.5, -2746.31 370.67, -2779.22 370.83, -2812.45 371.0, -2846.0 371.17, -2879.88 371.33, -2914.1 371.5, -2948.65 371.67, -2983.53 371.83, -3018.76 372.0, -3054.33 372.17, -3090.24 372.33, -3126.51 372.5, -3163.12 372.67, -3200.09 372.83, -3237.42 373.0, -3275.11 373.17, -3313.16 373.33, -3351.58 373.5, -3390.37 373.67, -3429.53 373.83, -3469.07 374.0, -3508.99 374.17, -3549.29 374.33, -3589.97 374.5, -3631.04 374.67, -3672.51 374.83, -3714.36 375.0, -3756.62 375.17, -3799.28 375.33, -3842.34 375.5, -3885.82 375.67, -3929.7 375.83, -3974.0 376.0, -4018.71 376.17, -4063.85 376.33, -4109.41 376.5, -4155.41 376.67, -4201.83 376.83, -4248.69 377.0, -4295.99 377.17, -4343.73 377.33, -4391.91 377.5, -4440.55 377.67, -4489.64 377.83, -4539.19 378.0, -4589.19 378.17, -4639.67 378.33, -4690.61 378.5, -4742.02 378.67, -4793.9 378.83, -4846.27 379.0, -4899.12 379.17, -4952.46 379.33, -5006.29 379.5, -5060.61 379.67, -5115.43 379.83, -5170.76 380.0, -5226.59 380.17, -5282.93 380.33, -5339.79 380.5, -5397.17 380.67, -5455.06 380.83, -5513.49 381.0, -5572.45 381.17, -5631.94 381.33, -5691.97 381.5, -5752.55 381.67, -5813.67 381.83, -5875.35 382.0, -5937.58 382.17, -6000.38 382.33, -6063.74 382.5, -6127.67 382.67, -6192.17 382.83, -6257.25 383.0, -6322.92 383.17, -6389.17 383.33, -6456.02 383.5, -6523.46 383.67, -6591.5 383.83, -6660.15 384.0, -6729.41 384.17, -6799.28 384.33, -6869.78 384.5, -6940.9 384.67, -7012.65 384.83, -7085.03 385.0, -7158.05 385.17, -7231.72 385.33, -7306.04 385.5, -7381.0 385.67, -7456.63 385.83, -7532.92 386.0, -7609.88 386.17, -7687.52 386.33, -7765.83 386.5, -7844.83 386.67, -7924.52 386.83, -8004.9 387.0, -8085.98 387.17, -8167.76 387.33, -8250.26 387.5, -8333.47 387.67, -8417.4 387.83, -8502.06 388.0, -8587.45 388.17, -8673.58 388.33, -8760.44 388.5, -8848.06 388.67, -8936.43 388.83, -9025.56 389.0, -9115.46 389.17, -9206.12 389.33, -9297.57 389.5, -9389.79 389.67, -9482.8 389.83, -9576.61 390.0, -9671.21 390.17, -9766.62 390.33, -9862.84 390.5, -9959.88 390.67, -10057.74 390.83, -10156.43 391.0, -10255.95 391.17, -10356.32 391.33, -10457.53 391.5, -10559.6 391.67, -10662.52 391.83, -10766.32 392.0, -10870.98 392.17, -10976.52 392.33, -11082.95 392.5, -11190.27 392.67, -11298.49 392.83, -11407.61 393.0, -11517.64 393.17, -11628.59 393.33, -11740.46 393.5, -11853.26 393.67, -11967.0 393.83, -12081.68 394.0, -12197.32 394.17, -12313.91 394.33, -12431.47 394.5, -12549.99 394.67, -12669.5 394.83, -12789.99 395.0, -12911.47 395.17, -13033.95 395.33, -13157.43 395.5, -13281.93 395.67, -13407.45 395.83, -13534.0 396.0, -13661.58 396.17, -13790.21 396.33, -13919.88 396.5, -14050.61 396.67, -14182.4 396.83, -14315.27 397.0, -14449.21 397.17, -14584.25 397.33, -14720.37 397.5, -14857.6 397.67, -14995.94 397.83, -15135.39 398.0, -15275.97 398.17, -15417.68 398.33, -15560.54 398.5, -15704.54 398.67, -15849.7 398.83, -15996.02 399.0, -16143.51 399.17, -16292.19 399.33, -16442.06 399.5, -16593.12 399.67, -16745.39 399.83, -16898.87 400.0, -17053.57 " fill="none" stroke="white" stroke-width="1.5" stroke-linejoin="round" stroke-opacity="1"/>

 </svg>