<svg version="1.1" 
 baseProfile="full" 
 width="400" 
 height="400" 
 xmlns="http://www.w3.org/2000/svg">
<rect x="0.0" y="0.0" width="400" height="400" fill="black" stroke="black" stroke-width="0" opacity="1"/>
<line x1="0.0" y1="0.0" x2="0.0" y2="400.0" stroke="white" stroke-width="1" opacity="0.4" stroke-linecap="butt"/>
<line x1="40.0" y1="0.0" x2="40.0" y2="400.0" stroke="white" stroke-width="1" opacity="0.4" stroke-linecap="butt"/>
<line x1="80.0" y1="0.0" x2="80.0" y2="400.0" stroke="white" stroke-width="1" opacity="0.4" stroke-linecap="butt"/>
<line x1="120.0" y1="0.0" x2="120.0" y2="400.0" stroke="white" stroke-width="1" opacity="0.4" stroke-linecap="butt"/>
<line x1="160.0" y1="0.0" x2="160.0" y2="400.0" stroke="white" stroke-width="1" opacity="0.4" stroke-linecap="butt"/>
<line x1="200.0" y1="0.0" x2="200.0" y2="400.0" stroke="white" stroke-width="1" opacity="0.4" stroke-linecap="butt"/>
<line x1="240.0" y1="0.0" x2="240.0" y2="400.0" stroke="white" stroke-width="1" opacity="0.4" stroke-linecap="butt"/>
<line x1="280.0" y1="0.0" x2="280.0" y2="400.0" stroke="white" stroke-width="1" opacity="0.4" stroke-linecap="butt"/>
<line x1="320.0" y1="0.0" x2="320.0" y2="400.0" stroke="white" stroke-width="1" opacity="0.4" stroke-linecap="butt"/>
<line x1="360.0" y1="0.0" x2="360.0" y2="400.0" stroke="white" stroke-width="1" opacity="0.4" stroke-linecap="butt"/>
<line x1="0.0" y1="0.0" x2="400.0" y2="0.0" stroke="white" stroke-width="1" opacity="0.4" stroke-linecap="butt"/>
<line x1="0.0" y1="40.0" x2="400.0" y2="40.0" stroke="white" stroke-width="1" opacity="0.4" stroke-linecap="butt"/>
<line x1="0.0" y1="80.0" x2="400.0" y2="80.0" stroke="white" stroke-width="1" opacity="0.4" stroke-linecap="butt"/>
<line x1="0.0" y1="120.0" x2="400.0" y2="120.0" stroke="white" stroke-width="1" opacity="0.4" stroke-linecap="butt"/>
<line x1="0.0" y1="160.0" x2="400.0" y2="160.0" stroke="white" stroke-width="1" opacity="0.4" stroke-linecap="butt"/>
<line x1="0.0" y1="200.0" x2="400.0" y2="200.0" stroke="white" stroke-width="1" opacity="0.4" stroke-linecap="butt"/>
<line x1="0.0" y1="240.0" x2="400.0" y2="240.0" stroke="white" stroke-width="1" opacity="0.4" stroke-linecap="butt"/>
<line x1="0.0" y1="280.0" x2="400.0" y2="280.0" stroke="white" stroke-width="1" opacity="0.4" stroke-linecap="butt"/>
<line x1="0.0" y1="320.0" x2="400.0" y2="320.0" stroke="white" stroke-width="1" opacity="0.4" stroke-linecap="butt"/>
<line x1="0.0" y1="360.0" x2="400.0" y2="360.0" stroke="white" stroke-width="1" opacity="0.4" stroke-linecap="butt"/>
<line x1="0.0" y1="200.0" x2="400.0" y2="200.0" stroke="yellow" stroke-width="2.5" opacity="1" stroke-linecap="butt"/>
<line x1="200.0" y1="0.0" x2="200.0" y2="400.0" stroke="yellow" stroke-width="2.5" opacity="1" stroke-linecap="butt"/>
<polygon points="391.0 204.0, 401.0 200.0, 391.0 196.0, 393.0 200.0" fill="yellow"/><polygon points="204.0 9.0, 200.0 -1.0, 196.0 9.0, 200.0 7.0" fill="yellow"/><image x="-60.0" y="-60.0" width="200" height="200" href="/Users/girirajhira/PycharmProjects/Giraphics3/Taylor/expr.png"/><polyline points="0.0, 16764.64 0.17, 16615.08 0.33, 16466.72 0.5, 16319.53 0.67, 16173.52 0.83, 16028.67 1.0, 15884.97 1.17, 15742.42 1.33, 15601.01 1.5, 15460.74 1.67, 15321.58 1.83, 15183.55 2.0, 15046.62 2.17, 14910.79 2.33, 14776.06 2.5, 14642.41 2.67, 14509.84 2.83, 14378.34 3.0, 14247.9 3.17, 14118.52 3.33, 13990.18 3.5, 13862.89 3.67, 13736.63 3.83, 13611.4 4.0, 13487.19 4.17, 13363.99 4.33, 13241.79 4.5, 13120.59 4.67, 13000.38 4.83, 12881.16 5.0, 12762.92 5.17, 12645.64 5.33, 12529.33 5.5, 12413.97 5.67, 12299.56 5.83, 12186.1 6.0, 12073.57 6.17, 11961.97 6.33, 11851.3 6.5, 11741.54 6.67, 11632.69 6.83, 11524.74 7.0, 11417.69 7.17, 11311.53 7.33, 11206.26 7.5, 11101.86 7.67, 10998.33 7.83, 10895.67 8.0, 10793.87 8.17, 10692.92 8.33, 10592.82 8.5, 10493.55 8.67, 10395.13 8.83, 10297.52 9.0, 10200.75 9.17, 10104.78 9.33, 10009.63 9.5, 9915.28 9.67, 9821.74 9.83, 9728.98 10.0, 9637.01 10.17, 9545.82 10.33, 9455.41 10.5, 9365.77 10.67, 9276.89 10.83, 9188.77 11.0, 9101.4 11.17, 9014.78 11.33, 8928.9 11.5, 8843.76 11.67, 8759.35 11.83, 8675.66 12.0, 8592.69 12.17, 8510.44 12.33, 8428.9 12.5, 8348.06 12.67, 8267.92 12.83, 8188.48 13.0, 8109.72 13.17, 8031.65 13.33, 7954.25 13.5, 7877.53 13.67, 7801.48 13.83, 7726.09 14.0, 7651.36 14.17, 7577.28 14.33, 7503.85 14.5, 7431.06 14.67, 7358.91 14.83, 7287.39 15.0, 7216.5 15.17, 7146.24 15.33, 7076.6 15.5, 7007.57 15.67, 6939.15 15.83, 6871.34 16.0, 6804.12 16.17, 6737.51 16.33, 6671.48 16.5, 6606.04 16.67, 6541.18 16.83, 6476.91 17.0, 6413.2 17.17, 6350.07 17.33, 6287.49 17.5, 6225.48 17.67, 6164.03 17.83, 6103.13 18.0, 6042.77 18.17, 5982.96 18.33, 5923.68 18.5, 5864.95 18.67, 5806.74 18.83, 5749.06 19.0, 5691.9 19.17, 5635.26 19.33, 5579.13 19.5, 5523.51 19.67, 5468.4 19.83, 5413.79 20.0, 5359.68 20.17, 5306.07 20.33, 5252.94 20.5, 5200.3 20.67, 5148.15 20.83, 5096.47 21.0, 5045.27 21.17, 4994.54 21.33, 4944.27 21.5, 4894.47 21.67, 4845.13 21.83, 4796.25 22.0, 4747.82 22.17, 4699.84 22.33, 4652.3 22.5, 4605.21 22.67, 4558.56 22.83, 4512.34 23.0, 4466.55 23.17, 4421.19 23.33, 4376.25 23.5, 4331.74 23.67, 4287.64 23.83, 4243.95 24.0, 4200.68 24.17, 4157.82 24.33, 4115.36 24.5, 4073.3 24.67, 4031.63 24.83, 3990.37 25.0, 3949.49 25.17, 3909.0 25.33, 3868.9 25.5, 3829.17 25.67, 3789.83 25.83, 3750.86 26.0, 3712.27 26.17, 3674.04 26.33, 3636.18 26.5, 3598.68 26.67, 3561.54 26.83, 3524.76 27.0, 3488.33 27.17, 3452.26 27.33, 3416.53 27.5, 3381.15 27.67, 3346.11 27.83, 3311.41 28.0, 3277.05 28.17, 3243.02 28.33, 3209.32 28.5, 3175.95 28.67, 3142.91 28.83, 3110.18 29.0, 3077.78 29.17, 3045.7 29.33, 3013.93 29.5, 2982.47 29.67, 2951.32 29.83, 2920.48 30.0, 2889.94 30.17, 2859.71 30.33, 2829.77 30.5, 2800.13 30.67, 2770.78 30.83, 2741.72 31.0, 2712.96 31.17, 2684.48 31.33, 2656.28 31.5, 2628.36 31.67, 2600.73 31.83, 2573.37 32.0, 2546.28 32.17, 2519.47 32.33, 2492.92 32.5, 2466.64 32.67, 2440.63 32.83, 2414.88 33.0, 2389.39 33.17, 2364.15 33.33, 2339.17 33.5, 2314.45 33.67, 2289.98 33.83, 2265.75 34.0, 2241.77 34.17, 2218.04 34.33, 2194.55 34.5, 2171.3 34.67, 2148.29 34.83, 2125.51 35.0, 2102.96 35.17, 2080.65 35.33, 2058.57 35.5, 2036.72 35.67, 2015.09 35.83, 1993.68 36.0, 1972.5 36.17, 1951.53 36.33, 1930.79 36.5, 1910.26 36.67, 1889.94 36.83, 1869.83 37.0, 1849.94 37.17, 1830.25 37.33, 1810.77 37.5, 1791.49 37.67, 1772.42 37.83, 1753.54 38.0, 1734.86 38.17, 1716.38 38.33, 1698.1 38.5, 1680.01 38.67, 1662.11 38.83, 1644.4 39.0, 1626.88 39.17, 1609.54 39.33, 1592.39 39.5, 1575.42 39.67, 1558.63 39.83, 1542.02 40.0, 1525.59 40.17, 1509.34 40.33, 1493.25 40.5, 1477.35 40.67, 1461.61 40.83, 1446.04 41.0, 1430.64 41.17, 1415.41 41.33, 1400.34 41.5, 1385.44 41.67, 1370.69 41.83, 1356.11 42.0, 1341.69 42.17, 1327.42 42.33, 1313.31 42.5, 1299.35 42.67, 1285.55 42.83, 1271.89 43.0, 1258.39 43.17, 1245.04 43.33, 1231.83 43.5, 1218.76 43.67, 1205.85 43.83, 1193.07 44.0, 1180.44 44.17, 1167.94 44.33, 1155.59 44.5, 1143.37 44.67, 1131.28 44.83, 1119.34 45.0, 1107.52 45.17, 1095.84 45.33, 1084.29 45.5, 1072.87 45.67, 1061.57 45.83, 1050.4 46.0, 1039.36 46.17, 1028.45 46.33, 1017.65 46.5, 1006.98 46.67, 996.43 46.83, 986.0 47.0, 975.69 47.17, 965.49 47.33, 955.41 47.5, 945.45 47.67, 935.59 47.83, 925.86 48.0, 916.23 48.17, 906.71 48.33, 897.3 48.5, 888.01 48.67, 878.81 48.83, 869.73 49.0, 860.75 49.17, 851.87 49.33, 843.09 49.5, 834.42 49.67, 825.85 49.83, 817.38 50.0, 809.0 50.17, 800.73 50.33, 792.55 50.5, 784.47 50.67, 776.48 50.83, 768.58 51.0, 760.78 51.17, 753.07 51.33, 745.45 51.5, 737.92 51.67, 730.48 51.83, 723.12 52.0, 715.86 52.17, 708.68 52.33, 701.58 52.5, 694.57 52.67, 687.65 52.83, 680.8 53.0, 674.04 53.17, 667.36 53.33, 660.76 53.5, 654.24 53.67, 647.79 53.83, 641.43 54.0, 635.14 54.17, 628.93 54.33, 622.79 54.5, 616.72 54.67, 610.73 54.83, 604.82 55.0, 598.97 55.17, 593.2 55.33, 587.49 55.5, 581.86 55.67, 576.29 55.83, 570.8 56.0, 565.37 56.17, 560.0 56.33, 554.7 56.5, 549.47 56.67, 544.3 56.83, 539.2 57.0, 534.16 57.17, 529.18 57.33, 524.27 57.5, 519.41 57.67, 514.61 57.83, 509.88 58.0, 505.2 58.17, 500.59 58.33, 496.03 58.5, 491.52 58.67, 487.08 58.83, 482.69 59.0, 478.35 59.17, 474.07 59.33, 469.84 59.5, 465.67 59.67, 461.55 59.83, 457.48 60.0, 453.46 60.17, 449.5 60.33, 445.58 60.5, 441.72 60.67, 437.9 60.83, 434.13 61.0, 430.41 61.17, 426.74 61.33, 423.12 61.5, 419.54 61.67, 416.01 61.83, 412.52 62.0, 409.08 62.17, 405.69 62.33, 402.33 62.5, 399.02 62.67, 395.76 62.83, 392.53 63.0, 389.35 63.17, 386.21 63.33, 383.11 63.5, 380.05 63.67, 377.03 63.83, 374.05 64.0, 371.11 64.17, 368.21 64.33, 365.35 64.5, 362.52 64.67, 359.73 64.83, 356.98 65.0, 354.27 65.17, 351.59 65.33, 348.94 65.5, 346.34 65.67, 343.76 65.83, 341.22 66.0, 338.72 66.17, 336.24 66.33, 333.81 66.5, 331.4 66.67, 329.03 66.83, 326.68 67.0, 324.37 67.17, 322.09 67.33, 319.84 67.5, 317.63 67.67, 315.44 67.83, 313.28 68.0, 311.15 68.17, 309.05 68.33, 306.98 68.5, 304.93 68.67, 302.92 68.83, 300.93 69.0, 298.97 69.17, 297.04 69.33, 295.13 69.5, 293.25 69.67, 291.39 69.83, 289.56 70.0, 287.76 70.17, 285.98 70.33, 284.22 70.5, 282.49 70.67, 280.79 70.83, 279.1 71.0, 277.44 71.17, 275.81 71.33, 274.19 71.5, 272.6 71.67, 271.04 71.83, 269.49 72.0, 267.96 72.17, 266.46 72.33, 264.98 72.5, 263.52 72.67, 262.08 72.83, 260.66 73.0, 259.26 73.17, 257.88 73.33, 256.52 73.5, 255.17 73.67, 253.85 73.83, 252.55 74.0, 251.26 74.17, 250.0 74.33, 248.75 74.5, 247.52 74.67, 246.31 74.83, 245.11 75.0, 243.93 75.17, 242.77 75.33, 241.63 75.5, 240.5 75.67, 239.39 75.83, 238.3 76.0, 237.22 76.17, 236.15 76.33, 235.11 76.5, 234.07 76.67, 233.06 76.83, 232.05 77.0, 231.07 77.17, 230.09 77.33, 229.13 77.5, 228.19 77.67, 227.26 77.83, 226.34 78.0, 225.44 78.17, 224.55 78.33, 223.67 78.5, 222.81 78.67, 221.96 78.83, 221.12 79.0, 220.3 79.17, 219.48 79.33, 218.68 79.5, 217.89 79.67, 217.12 79.83, 216.35 80.0, 215.6 80.17, 214.86 80.33, 214.13 80.5, 213.41 80.67, 212.7 80.83, 212.0 81.0, 211.32 81.17, 210.64 81.33, 209.97 81.5, 209.32 81.67, 208.67 81.83, 208.04 82.0, 207.41 82.17, 206.8 82.33, 206.19 82.5, 205.6 82.67, 205.01 82.83, 204.43 83.0, 203.86 83.17, 203.3 83.33, 202.75 83.5, 202.21 83.67, 201.68 83.83, 201.15 84.0, 200.63 84.17, 200.13 84.33, 199.63 84.5, 199.13 84.67, 198.65 84.83, 198.17 85.0, 197.71 85.17, 197.24 85.33, 196.79 85.5, 196.35 85.67, 195.91 85.83, 195.48 86.0, 195.05 86.17, 194.64 86.33, 194.23 86.5, 193.82 86.67, 193.43 86.83, 193.04 87.0, 192.65 87.17, 192.28 87.33, 191.91 87.5, 191.54 87.67, 191.19 87.83, 190.84 88.0, 190.49 88.17, 190.15 88.33, 189.82 88.5, 189.49 88.67, 189.17 88.83, 188.85 89.0, 188.54 89.17, 188.24 89.33, 187.94 89.5, 187.65 89.67, 187.36 89.83, 187.07 90.0, 186.8 90.17, 186.52 90.33, 186.26 90.5, 185.99 90.67, 185.73 90.83, 185.48 91.0, 185.23 91.17, 184.99 91.33, 184.75 91.5, 184.52 91.67, 184.29 91.83, 184.06 92.0, 183.84 92.17, 183.63 92.33, 183.42 92.5, 183.21 92.67, 183.01 92.83, 182.81 93.0, 182.61 93.17, 182.42 93.33, 182.23 93.5, 182.05 93.67, 181.87 93.83, 181.7 94.0, 181.53 94.17, 181.36 94.33, 181.2 94.5, 181.04 94.67, 180.88 94.83, 180.73 95.0, 180.58 95.17, 180.43 95.33, 180.29 95.5, 180.15 95.67, 180.02 95.83, 179.88 96.0, 179.76 96.17, 179.63 96.33, 179.51 96.5, 179.39 96.67, 179.27 96.83, 179.16 97.0, 179.05 97.17, 178.95 97.33, 178.84 97.5, 178.74 97.67, 178.64 97.83, 178.55 98.0, 178.46 98.17, 178.37 98.33, 178.28 98.5, 178.2 98.67, 178.12 98.83, 178.04 99.0, 177.97 99.17, 177.89 99.33, 177.83 99.5, 177.76 99.67, 177.69 99.83, 177.63 100.0, 177.57 100.17, 177.52 100.33, 177.46 100.5, 177.41 100.67, 177.36 100.83, 177.31 101.0, 177.27 101.17, 177.23 101.33, 177.19 101.5, 177.15 101.67, 177.11 101.83, 177.08 102.0, 177.05 102.17, 177.02 102.33, 176.99 102.5, 176.97 102.67, 176.95 102.83, 176.93 103.0, 176.91 103.17, 176.89 103.33, 176.88 103.5, 176.87 103.67, 176.86 103.83, 176.85 104.0, 176.84 104.17, 176.84 104.33, 176.84 104.5, 176.84 104.67, 176.84 104.83, 176.85 105.0, 176.85 105.17, 176.86 105.33, 176.87 105.5, 176.88 105.67, 176.89 105.83, 176.91 106.0, 176.93 106.17, 176.95 106.33, 176.97 106.5, 176.99 106.67, 177.01 106.83, 177.04 107.0, 177.07 107.17, 177.09 107.33, 177.13 107.5, 177.16 107.67, 177.19 107.83, 177.23 108.0, 177.27 108.17, 177.3 108.33, 177.34 108.5, 177.39 108.67, 177.43 108.83, 177.48 109.0, 177.52 109.17, 177.57 109.33, 177.62 109.5, 177.67 109.67, 177.73 109.83, 177.78 110.0, 177.84 110.17, 177.89 110.33, 177.95 110.5, 178.01 110.67, 178.07 110.83, 178.14 111.0, 178.2 111.17, 178.27 111.33, 178.34 111.5, 178.4 111.67, 178.47 111.83, 178.55 112.0, 178.62 112.17, 178.69 112.33, 178.77 112.5, 178.84 112.67, 178.92 112.83, 179.0 113.0, 179.08 113.17, 179.17 113.33, 179.25 113.5, 179.33 113.67, 179.42 113.83, 179.51 114.0, 179.59 114.17, 179.68 114.33, 179.77 114.5, 179.87 114.67, 179.96 114.83, 180.05 115.0, 180.15 115.17, 180.25 115.33, 180.34 115.5, 180.44 115.67, 180.54 115.83, 180.64 116.0, 180.75 116.17, 180.85 116.33, 180.95 116.5, 181.06 116.67, 181.17 116.83, 181.27 117.0, 181.38 117.17, 181.49 117.33, 181.6 117.5, 181.72 117.67, 181.83 117.83, 181.94 118.0, 182.06 118.17, 182.17 118.33, 182.29 118.5, 182.41 118.67, 182.53 118.83, 182.65 119.0, 182.77 119.17, 182.89 119.33, 183.01 119.5, 183.14 119.67, 183.26 119.83, 183.39 120.0, 183.51 120.17, 183.64 120.33, 183.77 120.5, 183.9 120.67, 184.03 120.83, 184.16 121.0, 184.29 121.17, 184.43 121.33, 184.56 121.5, 184.69 121.67, 184.83 121.83, 184.97 122.0, 185.1 122.17, 185.24 122.33, 185.38 122.5, 185.52 122.67, 185.66 122.83, 185.8 123.0, 185.94 123.17, 186.08 123.33, 186.23 123.5, 186.37 123.67, 186.51 123.83, 186.66 124.0, 186.81 124.17, 186.95 124.33, 187.1 124.5, 187.25 124.67, 187.4 124.83, 187.55 125.0, 187.7 125.17, 187.85 125.33, 188.0 125.5, 188.15 125.67, 188.3 125.83, 188.46 126.0, 188.61 126.17, 188.76 126.33, 188.92 126.5, 189.07 126.67, 189.23 126.83, 189.39 127.0, 189.54 127.17, 189.7 127.33, 189.86 127.5, 190.02 127.67, 190.18 127.83, 190.34 128.0, 190.5 128.17, 190.66 128.33, 190.82 128.5, 190.98 128.67, 191.14 128.83, 191.31 129.0, 191.47 129.17, 191.63 129.33, 191.8 129.5, 191.96 129.67, 192.12 129.83, 192.29 130.0, 192.45 130.17, 192.62 130.33, 192.79 130.5, 192.95 130.67, 193.12 130.83, 193.29 131.0, 193.45 131.17, 193.62 131.33, 193.79 131.5, 193.96 131.67, 194.13 131.83, 194.29 132.0, 194.46 132.17, 194.63 132.33, 194.8 132.5, 194.97 132.67, 195.14 132.83, 195.31 133.0, 195.48 133.17, 195.65 133.33, 195.82 133.5, 195.99 133.67, 196.16 133.83, 196.33 134.0, 196.51 134.17, 196.68 134.33, 196.85 134.5, 197.02 134.67, 197.19 134.83, 197.36 135.0, 197.53 135.17, 197.71 135.33, 197.88 135.5, 198.05 135.67, 198.22 135.83, 198.39 136.0, 198.57 136.17, 198.74 136.33, 198.91 136.5, 199.08 136.67, 199.25 136.83, 199.42 137.0, 199.6 137.17, 199.77 137.33, 199.94 137.5, 200.11 137.67, 200.28 137.83, 200.45 138.0, 200.62 138.17, 200.79 138.33, 200.97 138.5, 201.14 138.67, 201.31 138.83, 201.48 139.0, 201.65 139.17, 201.82 139.33, 201.99 139.5, 202.16 139.67, 202.32 139.83, 202.49 140.0, 202.66 140.17, 202.83 140.33, 203.0 140.5, 203.17 140.67, 203.33 140.83, 203.5 141.0, 203.67 141.17, 203.84 141.33, 204.0 141.5, 204.17 141.67, 204.33 141.83, 204.5 142.0, 204.66 142.17, 204.83 142.33, 204.99 142.5, 205.16 142.67, 205.32 142.83, 205.48 143.0, 205.64 143.17, 205.81 143.33, 205.97 143.5, 206.13 143.67, 206.29 143.83, 206.45 144.0, 206.61 144.17, 206.77 144.33, 206.93 144.5, 207.08 144.67, 207.24 144.83, 207.4 145.0, 207.55 145.17, 207.71 145.33, 207.87 145.5, 208.02 145.67, 208.17 145.83, 208.33 146.0, 208.48 146.17, 208.63 146.33, 208.78 146.5, 208.93 146.67, 209.08 146.83, 209.23 147.0, 209.38 147.17, 209.53 147.33, 209.68 147.5, 209.82 147.67, 209.97 147.83, 210.12 148.0, 210.26 148.17, 210.4 148.33, 210.55 148.5, 210.69 148.67, 210.83 148.83, 210.97 149.0, 211.11 149.17, 211.25 149.33, 211.39 149.5, 211.53 149.67, 211.66 149.83, 211.8 150.0, 211.93 150.17, 212.07 150.33, 212.2 150.5, 212.33 150.67, 212.46 150.83, 212.6 151.0, 212.73 151.17, 212.85 151.33, 212.98 151.5, 213.11 151.67, 213.23 151.83, 213.36 152.0, 213.48 152.17, 213.61 152.33, 213.73 152.5, 213.85 152.67, 213.97 152.83, 214.09 153.0, 214.21 153.17, 214.33 153.33, 214.44 153.5, 214.56 153.67, 214.67 153.83, 214.78 154.0, 214.9 154.17, 215.01 154.33, 215.12 154.5, 215.23 154.67, 215.33 154.83, 215.44 155.0, 215.55 155.17, 215.65 155.33, 215.75 155.5, 215.86 155.67, 215.96 155.83, 216.06 156.0, 216.16 156.17, 216.26 156.33, 216.35 156.5, 216.45 156.67, 216.54 156.83, 216.64 157.0, 216.73 157.17, 216.82 157.33, 216.91 157.5, 217.0 157.67, 217.08 157.83, 217.17 158.0, 217.26 158.17, 217.34 158.33, 217.42 158.5, 217.5 158.67, 217.58 158.83, 217.66 159.0, 217.74 159.17, 217.82 159.33, 217.89 159.5, 217.97 159.67, 218.04 159.83, 218.11 160.0, 218.18 160.17, 218.25 160.33, 218.32 160.5, 218.38 160.67, 218.45 160.83, 218.51 161.0, 218.57 161.17, 218.64 161.33, 218.7 161.5, 218.75 161.67, 218.81 161.83, 218.87 162.0, 218.92 162.17, 218.98 162.33, 219.03 162.5, 219.08 162.67, 219.13 162.83, 219.18 163.0, 219.22 163.17, 219.27 163.33, 219.31 163.5, 219.35 163.67, 219.4 163.83, 219.44 164.0, 219.47 164.17, 219.51 164.33, 219.55 164.5, 219.58 164.67, 219.62 164.83, 219.65 165.0, 219.68 165.17, 219.71 165.33, 219.73 165.5, 219.76 165.67, 219.79 165.83, 219.81 166.0, 219.83 166.17, 219.85 166.33, 219.87 166.5, 219.89 166.67, 219.91 166.83, 219.92 167.0, 219.94 167.17, 219.95 167.33, 219.96 167.5, 219.97 167.67, 219.98 167.83, 219.99 168.0, 219.99 168.17, 219.99 168.33, 220.0 168.5, 220.0 168.67, 220.0 168.83, 220.0 169.0, 220.0 169.17, 219.99 169.33, 219.99 169.5, 219.98 169.67, 219.97 169.83, 219.96 170.0, 219.95 170.17, 219.94 170.33, 219.92 170.5, 219.91 170.67, 219.89 170.83, 219.87 171.0, 219.85 171.17, 219.83 171.33, 219.81 171.5, 219.79 171.67, 219.76 171.83, 219.74 172.0, 219.71 172.17, 219.68 172.33, 219.65 172.5, 219.62 172.67, 219.58 172.83, 219.55 173.0, 219.51 173.17, 219.48 173.33, 219.44 173.5, 219.4 173.67, 219.36 173.83, 219.31 174.0, 219.27 174.17, 219.23 174.33, 219.18 174.5, 219.13 174.67, 219.08 174.83, 219.03 175.0, 218.98 175.17, 218.93 175.33, 218.87 175.5, 218.82 175.67, 218.76 175.83, 218.7 176.0, 218.64 176.17, 218.58 176.33, 218.52 176.5, 218.45 176.67, 218.39 176.83, 218.32 177.0, 218.26 177.17, 218.19 177.33, 218.12 177.5, 218.05 177.67, 217.97 177.83, 217.9 178.0, 217.82 178.17, 217.75 178.33, 217.67 178.5, 217.59 178.67, 217.51 178.83, 217.43 179.0, 217.35 179.17, 217.26 179.33, 217.18 179.5, 217.09 179.67, 217.01 179.83, 216.92 180.0, 216.83 180.17, 216.74 180.33, 216.65 180.5, 216.55 180.67, 216.46 180.83, 216.36 181.0, 216.27 181.17, 216.17 181.33, 216.07 181.5, 215.97 181.67, 215.87 181.83, 215.77 182.0, 215.67 182.17, 215.56 182.33, 215.46 182.5, 215.35 182.67, 215.24 182.83, 215.14 183.0, 215.03 183.17, 214.92 183.33, 214.8 183.5, 214.69 183.67, 214.58 183.83, 214.46 184.0, 214.35 184.17, 214.23 184.33, 214.11 184.5, 213.99 184.67, 213.87 184.83, 213.75 185.0, 213.63 185.17, 213.51 185.33, 213.39 185.5, 213.26 185.67, 213.14 185.83, 213.01 186.0, 212.88 186.17, 212.76 186.33, 212.63 186.5, 212.5 186.67, 212.37 186.83, 212.24 187.0, 212.1 187.17, 211.97 187.33, 211.84 187.5, 211.7 187.67, 211.57 187.83, 211.43 188.0, 211.29 188.17, 211.15 188.33, 211.02 188.5, 210.88 188.67, 210.74 188.83, 210.6 189.0, 210.45 189.17, 210.31 189.33, 210.17 189.5, 210.02 189.67, 209.88 189.83, 209.73 190.0, 209.59 190.17, 209.44 190.33, 209.29 190.5, 209.15 190.67, 209.0 190.83, 208.85 191.0, 208.7 191.17, 208.55 191.33, 208.4 191.5, 208.25 191.67, 208.09 191.83, 207.94 192.0, 207.79 192.17, 207.63 192.33, 207.48 192.5, 207.33 192.67, 207.17 192.83, 207.01 193.0, 206.86 193.17, 206.7 193.33, 206.54 193.5, 206.39 193.67, 206.23 193.83, 206.07 194.0, 205.91 194.17, 205.75 194.33, 205.59 194.5, 205.43 194.67, 205.27 194.83, 205.11 195.0, 204.95 195.17, 204.79 195.33, 204.62 195.5, 204.46 195.67, 204.3 195.83, 204.14 196.0, 203.97 196.17, 203.81 196.33, 203.65 196.5, 203.48 196.67, 203.32 196.83, 203.15 197.0, 202.99 197.17, 202.82 197.33, 202.66 197.5, 202.49 197.67, 202.33 197.83, 202.16 198.0, 202.0 198.17, 201.83 198.33, 201.66 198.5, 201.5 198.67, 201.33 198.83, 201.17 199.0, 201.0 199.17, 200.83 199.33, 200.67 199.5, 200.5 199.67, 200.33 199.83, 200.17 200.0, 200.0 200.17, 199.83 200.33, 199.67 200.5, 199.5 200.67, 199.33 200.83, 199.17 201.0, 199.0 201.17, 198.83 201.33, 198.67 201.5, 198.5 201.67, 198.34 201.83, 198.17 202.0, 198.0 202.17, 197.84 202.33, 197.67 202.5, 197.51 202.67, 197.34 202.83, 197.18 203.0, 197.01 203.17, 196.85 203.33, 196.68 203.5, 196.52 203.67, 196.35 203.83, 196.19 204.0, 196.03 204.17, 195.86 204.33, 195.7 204.5, 195.54 204.67, 195.38 204.83, 195.21 205.0, 195.05 205.17, 194.89 205.33, 194.73 205.5, 194.57 205.67, 194.41 205.83, 194.25 206.0, 194.09 206.17, 193.93 206.33, 193.77 206.5, 193.61 206.67, 193.46 206.83, 193.3 207.0, 193.14 207.17, 192.99 207.33, 192.83 207.5, 192.67 207.67, 192.52 207.83, 192.37 208.0, 192.21 208.17, 192.06 208.33, 191.91 208.5, 191.75 208.67, 191.6 208.83, 191.45 209.0, 191.3 209.17, 191.15 209.33, 191.0 209.5, 190.85 209.67, 190.71 209.83, 190.56 210.0, 190.41 210.17, 190.27 210.33, 190.12 210.5, 189.98 210.67, 189.83 210.83, 189.69 211.0, 189.55 211.17, 189.4 211.33, 189.26 211.5, 189.12 211.67, 188.98 211.83, 188.85 212.0, 188.71 212.17, 188.57 212.33, 188.43 212.5, 188.3 212.67, 188.16 212.83, 188.03 213.0, 187.9 213.17, 187.76 213.33, 187.63 213.5, 187.5 213.67, 187.37 213.83, 187.24 214.0, 187.12 214.17, 186.99 214.33, 186.86 214.5, 186.74 214.67, 186.61 214.83, 186.49 215.0, 186.37 215.17, 186.25 215.33, 186.13 215.5, 186.01 215.67, 185.89 215.83, 185.77 216.0, 185.65 216.17, 185.54 216.33, 185.42 216.5, 185.31 216.67, 185.2 216.83, 185.08 217.0, 184.97 217.17, 184.86 217.33, 184.76 217.5, 184.65 217.67, 184.54 217.83, 184.44 218.0, 184.33 218.17, 184.23 218.33, 184.13 218.5, 184.03 218.67, 183.93 218.83, 183.83 219.0, 183.73 219.17, 183.64 219.33, 183.54 219.5, 183.45 219.67, 183.35 219.83, 183.26 220.0, 183.17 220.17, 183.08 220.33, 182.99 220.5, 182.91 220.67, 182.82 220.83, 182.74 221.0, 182.65 221.17, 182.57 221.33, 182.49 221.5, 182.41 221.67, 182.33 221.83, 182.25 222.0, 182.18 222.17, 182.1 222.33, 182.03 222.5, 181.95 222.67, 181.88 222.83, 181.81 223.0, 181.74 223.17, 181.68 223.33, 181.61 223.5, 181.55 223.67, 181.48 223.83, 181.42 224.0, 181.36 224.17, 181.3 224.33, 181.24 224.5, 181.18 224.67, 181.13 224.83, 181.07 225.0, 181.02 225.17, 180.97 225.33, 180.92 225.5, 180.87 225.67, 180.82 225.83, 180.77 226.0, 180.73 226.17, 180.69 226.33, 180.64 226.5, 180.6 226.67, 180.56 226.83, 180.52 227.0, 180.49 227.17, 180.45 227.33, 180.42 227.5, 180.38 227.67, 180.35 227.83, 180.32 228.0, 180.29 228.17, 180.26 228.33, 180.24 228.5, 180.21 228.67, 180.19 228.83, 180.17 229.0, 180.15 229.17, 180.13 229.33, 180.11 229.5, 180.09 229.67, 180.08 229.83, 180.06 230.0, 180.05 230.17, 180.04 230.33, 180.03 230.5, 180.02 230.67, 180.01 230.83, 180.01 231.0, 180.0 231.17, 180.0 231.33, 180.0 231.5, 180.0 231.67, 180.0 231.83, 180.01 232.0, 180.01 232.17, 180.01 232.33, 180.02 232.5, 180.03 232.67, 180.04 232.83, 180.05 233.0, 180.06 233.17, 180.08 233.33, 180.09 233.5, 180.11 233.67, 180.13 233.83, 180.15 234.0, 180.17 234.17, 180.19 234.33, 180.21 234.5, 180.24 234.67, 180.27 234.83, 180.29 235.0, 180.32 235.17, 180.35 235.33, 180.38 235.5, 180.42 235.67, 180.45 235.83, 180.49 236.0, 180.53 236.17, 180.56 236.33, 180.6 236.5, 180.65 236.67, 180.69 236.83, 180.73 237.0, 180.78 237.17, 180.82 237.33, 180.87 237.5, 180.92 237.67, 180.97 237.83, 181.02 238.0, 181.08 238.17, 181.13 238.33, 181.19 238.5, 181.25 238.67, 181.3 238.83, 181.36 239.0, 181.43 239.17, 181.49 239.33, 181.55 239.5, 181.62 239.67, 181.68 239.83, 181.75 240.0, 181.82 240.17, 181.89 240.33, 181.96 240.5, 182.03 240.67, 182.11 240.83, 182.18 241.0, 182.26 241.17, 182.34 241.33, 182.42 241.5, 182.5 241.67, 182.58 241.83, 182.66 242.0, 182.74 242.17, 182.83 242.33, 182.92 242.5, 183.0 242.67, 183.09 242.83, 183.18 243.0, 183.27 243.17, 183.36 243.33, 183.46 243.5, 183.55 243.67, 183.65 243.83, 183.74 244.0, 183.84 244.17, 183.94 244.33, 184.04 244.5, 184.14 244.67, 184.25 244.83, 184.35 245.0, 184.45 245.17, 184.56 245.33, 184.67 245.5, 184.77 245.67, 184.88 245.83, 184.99 246.0, 185.1 246.17, 185.22 246.33, 185.33 246.5, 185.44 246.67, 185.56 246.83, 185.67 247.0, 185.79 247.17, 185.91 247.33, 186.03 247.5, 186.15 247.67, 186.27 247.83, 186.39 248.0, 186.52 248.17, 186.64 248.33, 186.77 248.5, 186.89 248.67, 187.02 248.83, 187.15 249.0, 187.27 249.17, 187.4 249.33, 187.54 249.5, 187.67 249.67, 187.8 249.83, 187.93 250.0, 188.07 250.17, 188.2 250.33, 188.34 250.5, 188.47 250.67, 188.61 250.83, 188.75 251.0, 188.89 251.17, 189.03 251.33, 189.17 251.5, 189.31 251.67, 189.45 251.83, 189.6 252.0, 189.74 252.17, 189.88 252.33, 190.03 252.5, 190.18 252.67, 190.32 252.83, 190.47 253.0, 190.62 253.17, 190.77 253.33, 190.92 253.5, 191.07 253.67, 191.22 253.83, 191.37 254.0, 191.52 254.17, 191.67 254.33, 191.83 254.5, 191.98 254.67, 192.13 254.83, 192.29 255.0, 192.45 255.17, 192.6 255.33, 192.76 255.5, 192.92 255.67, 193.07 255.83, 193.23 256.0, 193.39 256.17, 193.55 256.33, 193.71 256.5, 193.87 256.67, 194.03 256.83, 194.19 257.0, 194.36 257.17, 194.52 257.33, 194.68 257.5, 194.84 257.67, 195.01 257.83, 195.17 258.0, 195.34 258.17, 195.5 258.33, 195.67 258.5, 195.83 258.67, 196.0 258.83, 196.16 259.0, 196.33 259.17, 196.5 259.33, 196.67 259.5, 196.83 259.67, 197.0 259.83, 197.17 260.0, 197.34 260.17, 197.51 260.33, 197.68 260.5, 197.84 260.67, 198.01 260.83, 198.18 261.0, 198.35 261.17, 198.52 261.33, 198.69 261.5, 198.86 261.67, 199.03 261.83, 199.21 262.0, 199.38 262.17, 199.55 262.33, 199.72 262.5, 199.89 262.67, 200.06 262.83, 200.23 263.0, 200.4 263.17, 200.58 263.33, 200.75 263.5, 200.92 263.67, 201.09 263.83, 201.26 264.0, 201.43 264.17, 201.61 264.33, 201.78 264.5, 201.95 264.67, 202.12 264.83, 202.29 265.0, 202.47 265.17, 202.64 265.33, 202.81 265.5, 202.98 265.67, 203.15 265.83, 203.32 266.0, 203.49 266.17, 203.67 266.33, 203.84 266.5, 204.01 266.67, 204.18 266.83, 204.35 267.0, 204.52 267.17, 204.69 267.33, 204.86 267.5, 205.03 267.67, 205.2 267.83, 205.37 268.0, 205.54 268.17, 205.71 268.33, 205.87 268.5, 206.04 268.67, 206.21 268.83, 206.38 269.0, 206.55 269.17, 206.71 269.33, 206.88 269.5, 207.05 269.67, 207.21 269.83, 207.38 270.0, 207.55 270.17, 207.71 270.33, 207.88 270.5, 208.04 270.67, 208.2 270.83, 208.37 271.0, 208.53 271.17, 208.69 271.33, 208.86 271.5, 209.02 271.67, 209.18 271.83, 209.34 272.0, 209.5 272.17, 209.66 272.33, 209.82 272.5, 209.98 272.67, 210.14 272.83, 210.3 273.0, 210.46 273.17, 210.61 273.33, 210.77 273.5, 210.93 273.67, 211.08 273.83, 211.24 274.0, 211.39 274.17, 211.54 274.33, 211.7 274.5, 211.85 274.67, 212.0 274.83, 212.15 275.0, 212.3 275.17, 212.45 275.33, 212.6 275.5, 212.75 275.67, 212.9 275.83, 213.05 276.0, 213.19 276.17, 213.34 276.33, 213.49 276.5, 213.63 276.67, 213.77 276.83, 213.92 277.0, 214.06 277.17, 214.2 277.33, 214.34 277.5, 214.48 277.67, 214.62 277.83, 214.76 278.0, 214.9 278.17, 215.03 278.33, 215.17 278.5, 215.31 278.67, 215.44 278.83, 215.57 279.0, 215.71 279.17, 215.84 279.33, 215.97 279.5, 216.1 279.67, 216.23 279.83, 216.36 280.0, 216.49 280.17, 216.61 280.33, 216.74 280.5, 216.86 280.67, 216.99 280.83, 217.11 281.0, 217.23 281.17, 217.35 281.33, 217.47 281.5, 217.59 281.67, 217.71 281.83, 217.83 282.0, 217.94 282.17, 218.06 282.33, 218.17 282.5, 218.28 282.67, 218.4 282.83, 218.51 283.0, 218.62 283.17, 218.73 283.33, 218.83 283.5, 218.94 283.67, 219.05 283.83, 219.15 284.0, 219.25 284.17, 219.36 284.33, 219.46 284.5, 219.56 284.67, 219.66 284.83, 219.75 285.0, 219.85 285.17, 219.95 285.33, 220.04 285.5, 220.13 285.67, 220.23 285.83, 220.32 286.0, 220.41 286.17, 220.49 286.33, 220.58 286.5, 220.67 286.67, 220.75 286.83, 220.83 287.0, 220.92 287.17, 221.0 287.33, 221.08 287.5, 221.16 287.67, 221.23 287.83, 221.31 288.0, 221.38 288.17, 221.45 288.33, 221.53 288.5, 221.6 288.67, 221.66 288.83, 221.73 289.0, 221.8 289.17, 221.86 289.33, 221.93 289.5, 221.99 289.67, 222.05 289.83, 222.11 290.0, 222.16 290.17, 222.22 290.33, 222.27 290.5, 222.33 290.67, 222.38 290.83, 222.43 291.0, 222.48 291.17, 222.52 291.33, 222.57 291.5, 222.61 291.67, 222.66 291.83, 222.7 292.0, 222.73 292.17, 222.77 292.33, 222.81 292.5, 222.84 292.67, 222.87 292.83, 222.91 293.0, 222.93 293.17, 222.96 293.33, 222.99 293.5, 223.01 293.67, 223.03 293.83, 223.05 294.0, 223.07 294.17, 223.09 294.33, 223.11 294.5, 223.12 294.67, 223.13 294.83, 223.14 295.0, 223.15 295.17, 223.15 295.33, 223.16 295.5, 223.16 295.67, 223.16 295.83, 223.16 296.0, 223.16 296.17, 223.15 296.33, 223.14 296.5, 223.13 296.67, 223.12 296.83, 223.11 297.0, 223.09 297.17, 223.07 297.33, 223.05 297.5, 223.03 297.67, 223.01 297.83, 222.98 298.0, 222.95 298.17, 222.92 298.33, 222.89 298.5, 222.85 298.67, 222.81 298.83, 222.77 299.0, 222.73 299.17, 222.69 299.33, 222.64 299.5, 222.59 299.67, 222.54 299.83, 222.48 300.0, 222.43 300.17, 222.37 300.33, 222.31 300.5, 222.24 300.67, 222.17 300.83, 222.11 301.0, 222.03 301.17, 221.96 301.33, 221.88 301.5, 221.8 301.67, 221.72 301.83, 221.63 302.0, 221.54 302.17, 221.45 302.33, 221.36 302.5, 221.26 302.67, 221.16 302.83, 221.05 303.0, 220.95 303.17, 220.84 303.33, 220.73 303.5, 220.61 303.67, 220.49 303.83, 220.37 304.0, 220.24 304.17, 220.12 304.33, 219.98 304.5, 219.85 304.67, 219.71 304.83, 219.57 305.0, 219.42 305.17, 219.27 305.33, 219.12 305.5, 218.96 305.67, 218.8 305.83, 218.64 306.0, 218.47 306.17, 218.3 306.33, 218.13 306.5, 217.95 306.67, 217.77 306.83, 217.58 307.0, 217.39 307.17, 217.19 307.33, 216.99 307.5, 216.79 307.67, 216.58 307.83, 216.37 308.0, 216.16 308.17, 215.94 308.33, 215.71 308.5, 215.48 308.67, 215.25 308.83, 215.01 309.0, 214.77 309.17, 214.52 309.33, 214.27 309.5, 214.01 309.67, 213.74 309.83, 213.48 310.0, 213.2 310.17, 212.93 310.33, 212.64 310.5, 212.35 310.67, 212.06 310.83, 211.76 311.0, 211.46 311.17, 211.15 311.33, 210.83 311.5, 210.51 311.67, 210.18 311.83, 209.85 312.0, 209.51 312.17, 209.16 312.33, 208.81 312.5, 208.46 312.67, 208.09 312.83, 207.72 313.0, 207.35 313.17, 206.96 313.33, 206.57 313.5, 206.18 313.67, 205.77 313.83, 205.36 314.0, 204.95 314.17, 204.52 314.33, 204.09 314.5, 203.65 314.67, 203.21 314.83, 202.76 315.0, 202.29 315.17, 201.83 315.33, 201.35 315.5, 200.87 315.67, 200.37 315.83, 199.87 316.0, 199.37 316.17, 198.85 316.33, 198.32 316.5, 197.79 316.67, 197.25 316.83, 196.7 317.0, 196.14 317.17, 195.57 317.33, 194.99 317.5, 194.4 317.67, 193.81 317.83, 193.2 318.0, 192.59 318.17, 191.96 318.33, 191.33 318.5, 190.68 318.67, 190.03 318.83, 189.36 319.0, 188.68 319.17, 188.0 319.33, 187.3 319.5, 186.59 319.67, 185.87 319.83, 185.14 320.0, 184.4 320.17, 183.65 320.33, 182.88 320.5, 182.11 320.67, 181.32 320.83, 180.52 321.0, 179.7 321.17, 178.88 321.33, 178.04 321.5, 177.19 321.67, 176.33 321.83, 175.45 322.0, 174.56 322.17, 173.66 322.33, 172.74 322.5, 171.81 322.67, 170.87 322.83, 169.91 323.0, 168.93 323.17, 167.95 323.33, 166.94 323.5, 165.93 323.67, 164.89 323.83, 163.85 324.0, 162.78 324.17, 161.7 324.33, 160.61 324.5, 159.5 324.67, 158.37 324.83, 157.23 325.0, 156.07 325.17, 154.89 325.33, 153.69 325.5, 152.48 325.67, 151.25 325.83, 150.0 326.0, 148.74 326.17, 147.45 326.33, 146.15 326.5, 144.83 326.67, 143.48 326.83, 142.12 327.0, 140.74 327.17, 139.34 327.33, 137.92 327.5, 136.48 327.67, 135.02 327.83, 133.54 328.0, 132.04 328.17, 130.51 328.33, 128.96 328.5, 127.4 328.67, 125.81 328.83, 124.19 329.0, 122.56 329.17, 120.9 329.33, 119.21 329.5, 117.51 329.67, 115.78 329.83, 114.02 330.0, 112.24 330.17, 110.44 330.33, 108.61 330.5, 106.75 330.67, 104.87 330.83, 102.96 331.0, 101.03 331.17, 99.07 331.33, 97.08 331.5, 95.07 331.67, 93.02 331.83, 90.95 332.0, 88.85 332.17, 86.72 332.33, 84.56 332.5, 82.37 332.67, 80.16 332.83, 77.91 333.0, 75.63 333.17, 73.32 333.33, 70.97 333.5, 68.6 333.67, 66.19 333.83, 63.76 334.0, 61.28 334.17, 58.78 334.33, 56.24 334.5, 53.66 334.67, 51.06 334.83, 48.41 335.0, 45.73 335.17, 43.02 335.33, 40.27 335.5, 37.48 335.67, 34.65 335.83, 31.79 336.0, 28.89 336.17, 25.95 336.33, 22.97 336.5, 19.95 336.67, 16.89 336.83, 13.79 337.0, 10.65 337.17, 7.47 337.33, 4.24 337.5, 0.98 337.67, -2.33 337.83, -5.69 338.0, -9.08 338.17, -12.52 338.33, -16.01 338.5, -19.54 338.67, -23.12 338.83, -26.74 339.0, -30.41 339.17, -34.13 339.33, -37.9 339.5, -41.72 339.67, -45.58 339.83, -49.5 340.0, -53.46 340.17, -57.48 340.33, -61.55 340.5, -65.67 340.67, -69.84 340.83, -74.07 341.0, -78.35 341.17, -82.69 341.33, -87.08 341.5, -91.52 341.67, -96.03 341.83, -100.59 342.0, -105.2 342.17, -109.88 342.33, -114.61 342.5, -119.41 342.67, -124.27 342.83, -129.18 343.0, -134.16 343.17, -139.2 343.33, -144.3 343.5, -149.47 343.67, -154.7 343.83, -160.0 344.0, -165.37 344.17, -170.8 344.33, -176.29 344.5, -181.86 344.67, -187.49 344.83, -193.2 345.0, -198.97 345.17, -204.82 345.33, -210.73 345.5, -216.72 345.67, -222.79 345.83, -228.93 346.0, -235.14 346.17, -241.43 346.33, -247.79 346.5, -254.24 346.67, -260.76 346.83, -267.36 347.0, -274.04 347.17, -280.8 347.33, -287.65 347.5, -294.57 347.67, -301.58 347.83, -308.68 348.0, -315.86 348.17, -323.12 348.33, -330.48 348.5, -337.92 348.67, -345.45 348.83, -353.07 349.0, -360.78 349.17, -368.58 349.33, -376.48 349.5, -384.47 349.67, -392.55 349.83, -400.73 350.0, -409.0 350.17, -417.38 350.33, -425.85 350.5, -434.42 350.67, -443.09 350.83, -451.87 351.0, -460.75 351.17, -469.73 351.33, -478.81 351.5, -488.01 351.67, -497.3 351.83, -506.71 352.0, -516.23 352.17, -525.86 352.33, -535.59 352.5, -545.45 352.67, -555.41 352.83, -565.49 353.0, -575.69 353.17, -586.0 353.33, -596.43 353.5, -606.98 353.67, -617.65 353.83, -628.45 354.0, -639.36 354.17, -650.4 354.33, -661.57 354.5, -672.87 354.67, -684.29 354.83, -695.84 355.0, -707.52 355.17, -719.34 355.33, -731.28 355.5, -743.37 355.67, -755.59 355.83, -767.94 356.0, -780.44 356.17, -793.07 356.33, -805.85 356.5, -818.76 356.67, -831.83 356.83, -845.04 357.0, -858.39 357.17, -871.89 357.33, -885.55 357.5, -899.35 357.67, -913.31 357.83, -927.42 358.0, -941.69 358.17, -956.11 358.33, -970.69 358.5, -985.44 358.67, -1000.34 358.83, -1015.41 359.0, -1030.64 359.17, -1046.04 359.33, -1061.61 359.5, -1077.35 359.67, -1093.25 359.83, -1109.34 360.0, -1125.59 360.17, -1142.02 360.33, -1158.63 360.5, -1175.42 360.67, -1192.39 360.83, -1209.54 361.0, -1226.88 361.17, -1244.4 361.33, -1262.11 361.5, -1280.01 361.67, -1298.1 361.83, -1316.38 362.0, -1334.86 362.17, -1353.54 362.33, -1372.42 362.5, -1391.49 362.67, -1410.77 362.83, -1430.25 363.0, -1449.94 363.17, -1469.83 363.33, -1489.94 363.5, -1510.26 363.67, -1530.79 363.83, -1551.53 364.0, -1572.5 364.17, -1593.68 364.33, -1615.09 364.5, -1636.72 364.67, -1658.57 364.83, -1680.65 365.0, -1702.96 365.17, -1725.51 365.33, -1748.29 365.5, -1771.3 365.67, -1794.55 365.83, -1818.04 366.0, -1841.77 366.17, -1865.75 366.33, -1889.98 366.5, -1914.45 366.67, -1939.17 366.83, -1964.15 367.0, -1989.39 367.17, -2014.88 367.33, -2040.63 367.5, -2066.64 367.67, -2092.92 367.83, -2119.47 368.0, -2146.28 368.17, -2173.37 368.33, -2200.73 368.5, -2228.36 368.67, -2256.28 368.83, -2284.48 369.0, -2312.96 369.17, -2341.72 369.33, -2370.78 369.5, -2400.13 369.67, -2429.77 369.83, -2459.71 370.0, -2489.94 370.17, -2520.48 370.33, -2551.32 370.5, -2582.47 370.67, -2613.93 370.83, -2645.7 371.0, -2677.78 371.17, -2710.18 371.33, -2742.91 371.5, -2775.95 371.67, -2809.32 371.83, -2843.02 372.0, -2877.05 372.17, -2911.41 372.33, -2946.11 372.5, -2981.15 372.67, -3016.53 372.83, -3052.26 373.0, -3088.33 373.17, -3124.76 373.33, -3161.54 373.5, -3198.68 373.67, -3236.18 373.83, -3274.04 374.0, -3312.27 374.17, -3350.86 374.33, -3389.83 374.5, -3429.17 374.67, -3468.9 374.83, -3509.0 375.0, -3549.49 375.17, -3590.37 375.33, -3631.63 375.5, -3673.3 375.67, -3715.36 375.83, -3757.82 376.0, -3800.68 376.17, -3843.95 376.33, -3887.64 376.5, -3931.74 376.67, -3976.25 376.83, -4021.19 377.0, -4066.55 377.17, -4112.34 377.33, -4158.56 377.5, -4205.21 377.67, -4252.3 377.83, -4299.84 378.0, -4347.82 378.17, -4396.25 378.33, -4445.13 378.5, -4494.47 378.67, -4544.27 378.83, -4594.54 379.0, -4645.27 379.17, -4696.47 379.33, -4748.15 379.5, -4800.3 379.67, -4852.94 379.83, -4906.07 380.0, -4959.68 380.17, -5013.79 380.33, -5068.4 380.5, -5123.51 380.67, -5179.13 380.83, -5235.26 381.0, -5291.9 381.17, -5349.06 381.33, -5406.74 381.5, -5464.95 381.67, -5523.68 381.83, -5582.96 382.0, -5642.77 382.17, -5703.13 382.33, -5764.03 382.5, -5825.48 382.67, -5887.49 382.83, -5950.07 383.0, -6013.2 383.17, -6076.91 383.33, -6141.18 383.5, -6206.04 383.67, -6271.48 383.83, -6337.51 384.0, -6404.12 384.17, -6471.34 384.33, -6539.15 384.5, -6607.57 384.67, -6676.6 384.83, -6746.24 385.0, -6816.5 385.17, -6887.39 385.33, -6958.91 385.5, -7031.06 385.67, -7103.85 385.83, -7177.28 386.0, -7251.36 386.17, -7326.09 386.33, -7401.48 386.5, -7477.53 386.67, -7554.25 386.83, -7631.65 387.0, -7709.72 387.17, -7788.48 387.33, -7867.92 387.5, -7948.06 387.67, -8028.9 387.83, -8110.44 388.0, -8192.69 388.17, -8275.66 388.33, -8359.35 388.5, -8443.76 388.67, -8528.9 388.83, -8614.78 389.0, -8701.4 389.17, -8788.77 389.33, -8876.89 389.5, -8965.77 389.67, -9055.41 389.83, -9145.82 390.0, -9237.01 390.17, -9328.98 390.33, -9421.74 390.5, -9515.28 390.67, -9609.63 390.83, -9704.78 391.0, -9800.75 391.17, -9897.52 391.33, -9995.13 391.5, -10093.55 391.67, -10192.82 391.83, -10292.92 392.0, -10393.87 392.17, -10495.67 392.33, -10598.33 392.5, -10701.86 392.67, -10806.26 392.83, -10911.53 393.0, -11017.69 393.17, -11124.74 393.33, -11232.69 393.5, -11341.54 393.67, -11451.3 393.83, -11561.97 394.0, -11673.57 394.17, -11786.1 394.33, -11899.56 394.5, -12013.97 394.67, -12129.33 394.83, -12245.64 395.0, -12362.92 395.17, -12481.16 395.33, -12600.38 395.5, -12720.59 395.67, -12841.79 395.83, -12963.99 396.0, -13087.19 396.17, -13211.4 396.33, -13336.63 396.5, -13462.89 396.67, -13590.18 396.83, -13718.52 397.0, -13847.9 397.17, -13978.34 397.33, -14109.84 397.5, -14242.41 397.67, -14376.06 397.83, -14510.79 398.0, -14646.62 398.17, -14783.55 398.33, -14921.58 398.5, -15060.74 398.67, -15201.01 398.83, -15342.42 399.0, -15484.97 399.17, -15628.67 399.33, -15773.52 399.5, -15919.53 399.67, -16066.72 399.83, -16215.08 400.0, -16364.64 " fill="none" stroke="white" stroke-width="1.5" stroke-linejoin="round" stroke-opacity="1"/>

 </svg>