<svg version="1.1" 
 baseProfile="full" 
 width="400" 
 height="400" 
 xmlns="http://www.w3.org/2000/svg">
<rect x="0.0" y="0.0" width="400" height="400" fill="black" stroke="black" stroke-width="0" opacity="1"/>
<line x1="0.0" y1="0.0" x2="0.0" y2="400.0" stroke="white" stroke-width="1" opacity="0.4" stroke-linecap="butt"/>
<line x1="40.0" y1="0.0" x2="40.0" y2="400.0" stroke="white" stroke-width="1" opacity="0.4" stroke-linecap="butt"/>
<line x1="80.0" y1="0.0" x2="80.0" y2="400.0" stroke="white" stroke-width="1" opacity="0.4" stroke-linecap="butt"/>
<line x1="120.0" y1="0.0" x2="120.0" y2="400.0" stroke="white" stroke-width="1" opacity="0.4" stroke-linecap="butt"/>
<line x1="160.0" y1="0.0" x2="160.0" y2="400.0" stroke="white" stroke-width="1" opacity="0.4" stroke-linecap="butt"/>
<line x1="200.0" y1="0.0" x2="200.0" y2="400.0" stroke="white" stroke-width="1" opacity="0.4" stroke-linecap="butt"/>
<line x1="240.0" y1="0.0" x2="240.0" y2="400.0" stroke="white" stroke-width="1" opacity="0.4" stroke-linecap="butt"/>
<line x1="280.0" y1="0.0" x2="280.0" y2="400.0" stroke="white" stroke-width="1" opacity="0.4" stroke-linecap="butt"/>
<line x1="320.0" y1="0.0" x2="320.0" y2="400.0" stroke="white" stroke-width="1" opacity="0.4" stroke-linecap="butt"/>
<line x1="360.0" y1="0.0" x2="360.0" y2="400.0" stroke="white" stroke-width="1" opacity="0.4" stroke-linecap="butt"/>
<line x1="0.0" y1="0.0" x2="400.0" y2="0.0" stroke="white" stroke-width="1" opacity="0.4" stroke-linecap="butt"/>
<line x1="0.0" y1="40.0" x2="400.0" y2="40.0" stroke="white" stroke-width="1" opacity="0.4" stroke-linecap="butt"/>
<line x1="0.0" y1="80.0" x2="400.0" y2="80.0" stroke="white" stroke-width="1" opacity="0.4" stroke-linecap="butt"/>
<line x1="0.0" y1="120.0" x2="400.0" y2="120.0" stroke="white" stroke-width="1" opacity="0.4" stroke-linecap="butt"/>
<line x1="0.0" y1="160.0" x2="400.0" y2="160.0" stroke="white" stroke-width="1" opacity="0.4" stroke-linecap="butt"/>
<line x1="0.0" y1="200.0" x2="400.0" y2="200.0" stroke="white" stroke-width="1" opacity="0.4" stroke-linecap="butt"/>
<line x1="0.0" y1="240.0" x2="400.0" y2="240.0" stroke="white" stroke-width="1" opacity="0.4" stroke-linecap="butt"/>
<line x1="0.0" y1="280.0" x2="400.0" y2="280.0" stroke="white" stroke-width="1" opacity="0.4" stroke-linecap="butt"/>
<line x1="0.0" y1="320.0" x2="400.0" y2="320.0" stroke="white" stroke-width="1" opacity="0.4" stroke-linecap="butt"/>
<line x1="0.0" y1="360.0" x2="400.0" y2="360.0" stroke="white" stroke-width="1" opacity="0.4" stroke-linecap="butt"/>
<line x1="0.0" y1="200.0" x2="400.0" y2="200.0" stroke="yellow" stroke-width="2.5" opacity="1" stroke-linecap="butt"/>
<line x1="200.0" y1="0.0" x2="200.0" y2="400.0" stroke="yellow" stroke-width="2.5" opacity="1" stroke-linecap="butt"/>
<polygon points="391.0 204.0, 401.0 200.0, 391.0 196.0, 393.0 200.0" fill="yellow"/><polygon points="204.0 9.0, 200.0 -1.0, 196.0 9.0, 200.0 7.0" fill="yellow"/><image x="-60.0" y="-60.0" width="200" height="200" href="/Users/girirajhira/PycharmProjects/Giraphics3/Taylor/expr.png"/><polyline points="0.0, 22965.04 0.17, 22769.13 0.33, 22574.73 0.5, 22381.81 0.67, 22190.36 0.83, 22000.39 1.0, 21811.87 1.17, 21624.79 1.33, 21439.15 1.5, 21254.95 1.67, 21072.15 1.83, 20890.77 2.0, 20710.79 2.17, 20532.19 2.33, 20354.98 2.5, 20179.14 2.67, 20004.66 2.83, 19831.53 3.0, 19659.75 3.17, 19489.3 3.33, 19320.17 3.5, 19152.36 3.67, 18985.87 3.83, 18820.66 4.0, 18656.75 4.17, 18494.12 4.33, 18332.77 4.5, 18172.67 4.67, 18013.84 4.83, 17856.24 5.0, 17699.89 5.17, 17544.77 5.33, 17390.87 5.5, 17238.18 5.67, 17086.69 5.83, 16936.4 6.0, 16787.3 6.17, 16639.38 6.33, 16492.64 6.5, 16347.05 6.67, 16202.62 6.83, 16059.34 7.0, 15917.2 7.17, 15776.19 7.33, 15636.31 7.5, 15497.54 7.67, 15359.88 7.83, 15223.32 8.0, 15087.86 8.17, 14953.48 8.33, 14820.17 8.5, 14687.94 8.67, 14556.77 8.83, 14426.66 9.0, 14297.59 9.17, 14169.57 9.33, 14042.58 9.5, 13916.61 9.67, 13791.67 9.83, 13667.74 10.0, 13544.81 10.17, 13422.88 10.33, 13301.93 10.5, 13181.98 10.67, 13063.0 10.83, 12944.99 11.0, 12827.94 11.17, 12711.85 11.33, 12596.7 11.5, 12482.5 11.67, 12369.24 11.83, 12256.9 12.0, 12145.49 12.17, 12034.99 12.33, 11925.4 12.5, 11816.72 12.67, 11708.93 12.83, 11602.03 13.0, 11496.01 13.17, 11390.87 13.33, 11286.6 13.5, 11183.2 13.67, 11080.65 13.83, 10978.96 14.0, 10878.11 14.17, 10778.1 14.33, 10678.93 14.5, 10580.58 14.67, 10483.05 14.83, 10386.34 15.0, 10290.44 15.17, 10195.35 15.33, 10101.05 15.5, 10007.54 15.67, 9914.82 15.83, 9822.88 16.0, 9731.71 16.17, 9641.31 16.33, 9551.68 16.5, 9462.8 16.67, 9374.68 16.83, 9287.3 17.0, 9200.67 17.17, 9114.76 17.33, 9029.59 17.5, 8945.15 17.67, 8861.42 17.83, 8778.41 18.0, 8696.1 18.17, 8614.5 18.33, 8533.6 18.5, 8453.39 18.67, 8373.87 18.83, 8295.03 19.0, 8216.87 19.17, 8139.38 19.33, 8062.56 19.5, 7986.4 19.67, 7910.9 19.83, 7836.05 20.0, 7761.84 20.17, 7688.28 20.33, 7615.36 20.5, 7543.07 20.67, 7471.41 20.83, 7400.37 21.0, 7329.96 21.17, 7260.15 21.33, 7190.95 21.5, 7122.36 21.67, 7054.37 21.83, 6986.98 22.0, 6920.17 22.17, 6853.95 22.33, 6788.31 22.5, 6723.25 22.67, 6658.77 22.83, 6594.85 23.0, 6531.49 23.17, 6468.7 23.33, 6406.46 23.5, 6344.77 23.67, 6283.63 23.83, 6223.03 24.0, 6162.97 24.17, 6103.45 24.33, 6044.45 24.5, 5985.98 24.67, 5928.03 24.83, 5870.6 25.0, 5813.69 25.17, 5757.28 25.33, 5701.38 25.5, 5645.98 25.67, 5591.08 25.83, 5536.67 26.0, 5482.75 26.17, 5429.32 26.33, 5376.37 26.5, 5323.9 26.67, 5271.91 26.83, 5220.38 27.0, 5169.32 27.17, 5118.73 27.33, 5068.59 27.5, 5018.91 27.67, 4969.69 27.83, 4920.91 28.0, 4872.58 28.17, 4824.69 28.33, 4777.24 28.5, 4730.22 28.67, 4683.63 28.83, 4637.48 29.0, 4591.74 29.17, 4546.43 29.33, 4501.53 29.5, 4457.05 29.67, 4412.98 29.83, 4369.32 30.0, 4326.06 30.17, 4283.2 30.33, 4240.74 30.5, 4198.67 30.67, 4157.0 30.83, 4115.71 31.0, 4074.81 31.17, 4034.29 31.33, 3994.15 31.5, 3954.38 31.67, 3914.98 31.83, 3875.96 32.0, 3837.3 32.17, 3799.0 32.33, 3761.07 32.5, 3723.49 32.67, 3686.27 32.83, 3649.39 33.0, 3612.87 33.17, 3576.69 33.33, 3540.85 33.5, 3505.36 33.67, 3470.2 33.83, 3435.37 34.0, 3400.88 34.17, 3366.71 34.33, 3332.87 34.5, 3299.36 34.67, 3266.16 34.83, 3233.28 35.0, 3200.72 35.17, 3168.47 35.33, 3136.53 35.5, 3104.89 35.67, 3073.56 35.83, 3042.53 36.0, 3011.81 36.17, 2981.38 36.33, 2951.24 36.5, 2921.39 36.67, 2891.84 36.83, 2862.57 37.0, 2833.58 37.17, 2804.88 37.33, 2776.46 37.5, 2748.31 37.67, 2720.44 37.83, 2692.84 38.0, 2665.51 38.17, 2638.45 38.33, 2611.65 38.5, 2585.12 38.67, 2558.85 38.83, 2532.83 39.0, 2507.08 39.17, 2481.57 39.33, 2456.32 39.5, 2431.32 39.67, 2406.57 39.83, 2382.06 40.0, 2357.79 40.17, 2333.77 40.33, 2309.98 40.5, 2286.43 40.67, 2263.12 40.83, 2240.04 41.0, 2217.19 41.17, 2194.57 41.33, 2172.17 41.5, 2150.0 41.67, 2128.05 41.83, 2106.32 42.0, 2084.82 42.17, 2063.52 42.33, 2042.45 42.5, 2021.58 42.67, 2000.93 42.83, 1980.48 43.0, 1960.24 43.17, 1940.21 43.33, 1920.38 43.5, 1900.76 43.67, 1881.33 43.83, 1862.1 44.0, 1843.07 44.17, 1824.23 44.33, 1805.58 44.5, 1787.13 44.67, 1768.86 44.83, 1750.78 45.0, 1732.89 45.17, 1715.18 45.33, 1697.65 45.5, 1680.31 45.67, 1663.14 45.83, 1646.15 46.0, 1629.34 46.17, 1612.7 46.33, 1596.24 46.5, 1579.94 46.67, 1563.82 46.83, 1547.86 47.0, 1532.07 47.17, 1516.44 47.33, 1500.98 47.5, 1485.67 47.67, 1470.53 47.83, 1455.55 48.0, 1440.72 48.17, 1426.05 48.33, 1411.54 48.5, 1397.18 48.67, 1382.97 48.83, 1368.9 49.0, 1354.99 49.17, 1341.23 49.33, 1327.61 49.5, 1314.13 49.67, 1300.8 49.83, 1287.61 50.0, 1274.56 50.17, 1261.65 50.33, 1248.87 50.5, 1236.24 50.67, 1223.74 50.83, 1211.37 51.0, 1199.13 51.17, 1187.03 51.33, 1175.06 51.5, 1163.21 51.67, 1151.49 51.83, 1139.9 52.0, 1128.43 52.17, 1117.09 52.33, 1105.87 52.5, 1094.77 52.67, 1083.8 52.83, 1072.94 53.0, 1062.2 53.17, 1051.57 53.33, 1041.06 53.5, 1030.67 53.67, 1020.39 53.83, 1010.22 54.0, 1000.17 54.17, 990.22 54.33, 980.38 54.5, 970.65 54.67, 961.03 54.83, 951.51 55.0, 942.1 55.17, 932.8 55.33, 923.59 55.5, 914.49 55.67, 905.48 55.83, 896.58 56.0, 887.78 56.17, 879.07 56.33, 870.46 56.5, 861.95 56.67, 853.53 56.83, 845.2 57.0, 836.97 57.17, 828.83 57.33, 820.78 57.5, 812.83 57.67, 804.96 57.83, 797.18 58.0, 789.48 58.17, 781.88 58.33, 774.35 58.5, 766.92 58.67, 759.57 58.83, 752.3 59.0, 745.11 59.17, 738.01 59.33, 730.98 59.5, 724.04 59.67, 717.17 59.83, 710.38 60.0, 703.67 60.17, 697.04 60.33, 690.48 60.5, 684.0 60.67, 677.59 60.83, 671.25 61.0, 664.99 61.17, 658.8 61.33, 652.68 61.5, 646.63 61.67, 640.65 61.83, 634.74 62.0, 628.9 62.17, 623.12 62.33, 617.42 62.5, 611.78 62.67, 606.2 62.83, 600.69 63.0, 595.24 63.17, 589.86 63.33, 584.54 63.5, 579.28 63.67, 574.08 63.83, 568.94 64.0, 563.87 64.17, 558.85 64.33, 553.89 64.5, 548.99 64.67, 544.15 64.83, 539.36 65.0, 534.63 65.17, 529.96 65.33, 525.34 65.5, 520.78 65.67, 516.27 65.83, 511.81 66.0, 507.41 66.17, 503.06 66.33, 498.76 66.5, 494.51 66.67, 490.31 66.83, 486.16 67.0, 482.07 67.17, 478.02 67.33, 474.02 67.5, 470.06 67.67, 466.16 67.83, 462.3 68.0, 458.49 68.17, 454.72 68.33, 451.0 68.5, 447.33 68.67, 443.69 68.83, 440.11 69.0, 436.56 69.17, 433.06 69.33, 429.6 69.5, 426.18 69.67, 422.81 69.83, 419.47 70.0, 416.18 70.17, 412.93 70.33, 409.71 70.5, 406.54 70.67, 403.4 70.83, 400.3 71.0, 397.24 71.17, 394.22 71.33, 391.24 71.5, 388.29 71.67, 385.38 71.83, 382.5 72.0, 379.66 72.17, 376.85 72.33, 374.08 72.5, 371.35 72.67, 368.64 72.83, 365.98 73.0, 363.34 73.17, 360.74 73.33, 358.17 73.5, 355.63 73.67, 353.12 73.83, 350.64 74.0, 348.2 74.17, 345.79 74.33, 343.4 74.5, 341.05 74.67, 338.72 74.83, 336.43 75.0, 334.16 75.17, 331.92 75.33, 329.71 75.5, 327.53 75.67, 325.38 75.83, 323.25 76.0, 321.15 76.17, 319.08 76.33, 317.03 76.5, 315.01 76.67, 313.02 76.83, 311.05 77.0, 309.1 77.17, 307.18 77.33, 305.29 77.5, 303.42 77.67, 301.57 77.83, 299.75 78.0, 297.95 78.17, 296.17 78.33, 294.42 78.5, 292.69 78.67, 290.98 78.83, 289.29 79.0, 287.63 79.17, 285.98 79.33, 284.36 79.5, 282.76 79.67, 281.18 79.83, 279.62 80.0, 278.09 80.17, 276.57 80.33, 275.07 80.5, 273.59 80.67, 272.13 80.83, 270.69 81.0, 269.27 81.17, 267.87 81.33, 266.48 81.5, 265.12 81.67, 263.77 81.83, 262.44 82.0, 261.13 82.17, 259.83 82.33, 258.56 82.5, 257.3 82.67, 256.05 82.83, 254.83 83.0, 253.62 83.17, 252.42 83.33, 251.24 83.5, 250.08 83.67, 248.94 83.83, 247.8 84.0, 246.69 84.17, 245.59 84.33, 244.5 84.5, 243.43 84.67, 242.38 84.83, 241.33 85.0, 240.31 85.17, 239.29 85.33, 238.3 85.5, 237.31 85.67, 236.34 85.83, 235.38 86.0, 234.43 86.17, 233.5 86.33, 232.58 86.5, 231.68 86.67, 230.78 86.83, 229.9 87.0, 229.03 87.17, 228.18 87.33, 227.33 87.5, 226.5 87.67, 225.68 87.83, 224.87 88.0, 224.07 88.17, 223.29 88.33, 222.51 88.5, 221.75 88.67, 220.99 88.83, 220.25 89.0, 219.52 89.17, 218.8 89.33, 218.09 89.5, 217.39 89.67, 216.7 89.83, 216.02 90.0, 215.35 90.17, 214.69 90.33, 214.04 90.5, 213.4 90.67, 212.77 90.83, 212.15 91.0, 211.54 91.17, 210.93 91.33, 210.34 91.5, 209.75 91.67, 209.18 91.83, 208.61 92.0, 208.05 92.17, 207.5 92.33, 206.96 92.5, 206.43 92.67, 205.9 92.83, 205.38 93.0, 204.88 93.17, 204.37 93.33, 203.88 93.5, 203.4 93.67, 202.92 93.83, 202.45 94.0, 201.99 94.17, 201.53 94.33, 201.08 94.5, 200.64 94.67, 200.21 94.83, 199.78 95.0, 199.36 95.17, 198.95 95.33, 198.55 95.5, 198.15 95.67, 197.76 95.83, 197.37 96.0, 196.99 96.17, 196.62 96.33, 196.25 96.5, 195.89 96.67, 195.54 96.83, 195.19 97.0, 194.85 97.17, 194.52 97.33, 194.19 97.5, 193.87 97.67, 193.55 97.83, 193.24 98.0, 192.93 98.17, 192.63 98.33, 192.34 98.5, 192.05 98.67, 191.76 98.83, 191.48 99.0, 191.21 99.17, 190.94 99.33, 190.68 99.5, 190.42 99.67, 190.17 99.83, 189.92 100.0, 189.68 100.17, 189.45 100.33, 189.21 100.5, 188.99 100.67, 188.76 100.83, 188.54 101.0, 188.33 101.17, 188.12 101.33, 187.92 101.5, 187.72 101.67, 187.52 101.83, 187.33 102.0, 187.15 102.17, 186.96 102.33, 186.79 102.5, 186.61 102.67, 186.44 102.83, 186.28 103.0, 186.12 103.17, 185.96 103.33, 185.8 103.5, 185.66 103.67, 185.51 103.83, 185.37 104.0, 185.23 104.17, 185.1 104.33, 184.97 104.5, 184.84 104.67, 184.72 104.83, 184.6 105.0, 184.48 105.17, 184.37 105.33, 184.26 105.5, 184.16 105.67, 184.06 105.83, 183.96 106.0, 183.87 106.17, 183.77 106.33, 183.69 106.5, 183.6 106.67, 183.52 106.83, 183.44 107.0, 183.37 107.17, 183.3 107.33, 183.23 107.5, 183.16 107.67, 183.1 107.83, 183.04 108.0, 182.98 108.17, 182.93 108.33, 182.88 108.5, 182.83 108.67, 182.79 108.83, 182.74 109.0, 182.71 109.17, 182.67 109.33, 182.64 109.5, 182.6 109.67, 182.58 109.83, 182.55 110.0, 182.53 110.17, 182.51 110.33, 182.49 110.5, 182.47 110.67, 182.46 110.83, 182.45 111.0, 182.44 111.17, 182.44 111.33, 182.44 111.5, 182.44 111.67, 182.44 111.83, 182.44 112.0, 182.45 112.17, 182.46 112.33, 182.47 112.5, 182.49 112.67, 182.5 112.83, 182.52 113.0, 182.54 113.17, 182.56 113.33, 182.59 113.5, 182.62 113.67, 182.65 113.83, 182.68 114.0, 182.71 114.17, 182.75 114.33, 182.78 114.5, 182.82 114.67, 182.86 114.83, 182.91 115.0, 182.95 115.17, 183.0 115.33, 183.05 115.5, 183.1 115.67, 183.15 115.83, 183.21 116.0, 183.27 116.17, 183.33 116.33, 183.39 116.5, 183.45 116.67, 183.51 116.83, 183.58 117.0, 183.65 117.17, 183.72 117.33, 183.79 117.5, 183.86 117.67, 183.93 117.83, 184.01 118.0, 184.09 118.17, 184.17 118.33, 184.25 118.5, 184.33 118.67, 184.41 118.83, 184.5 119.0, 184.59 119.17, 184.67 119.33, 184.77 119.5, 184.86 119.67, 184.95 119.83, 185.04 120.0, 185.14 120.17, 185.24 120.33, 185.34 120.5, 185.44 120.67, 185.54 120.83, 185.64 121.0, 185.74 121.17, 185.85 121.33, 185.96 121.5, 186.06 121.67, 186.17 121.83, 186.28 122.0, 186.4 122.17, 186.51 122.33, 186.62 122.5, 186.74 122.67, 186.86 122.83, 186.97 123.0, 187.09 123.17, 187.21 123.33, 187.33 123.5, 187.46 123.67, 187.58 123.83, 187.7 124.0, 187.83 124.17, 187.96 124.33, 188.08 124.5, 188.21 124.67, 188.34 124.83, 188.47 125.0, 188.61 125.17, 188.74 125.33, 188.87 125.5, 189.01 125.67, 189.14 125.83, 189.28 126.0, 189.42 126.17, 189.55 126.33, 189.69 126.5, 189.83 126.67, 189.97 126.83, 190.11 127.0, 190.26 127.17, 190.4 127.33, 190.54 127.5, 190.69 127.67, 190.83 127.83, 190.98 128.0, 191.13 128.17, 191.28 128.33, 191.42 128.5, 191.57 128.67, 191.72 128.83, 191.87 129.0, 192.02 129.17, 192.18 129.33, 192.33 129.5, 192.48 129.67, 192.63 129.83, 192.79 130.0, 192.94 130.17, 193.1 130.33, 193.25 130.5, 193.41 130.67, 193.57 130.83, 193.73 131.0, 193.88 131.17, 194.04 131.33, 194.2 131.5, 194.36 131.67, 194.52 131.83, 194.68 132.0, 194.84 132.17, 195.0 132.33, 195.16 132.5, 195.32 132.67, 195.49 132.83, 195.65 133.0, 195.81 133.17, 195.97 133.33, 196.14 133.5, 196.3 133.67, 196.47 133.83, 196.63 134.0, 196.79 134.17, 196.96 134.33, 197.12 134.5, 197.29 134.67, 197.45 134.83, 197.62 135.0, 197.79 135.17, 197.95 135.33, 198.12 135.5, 198.28 135.67, 198.45 135.83, 198.62 136.0, 198.78 136.17, 198.95 136.33, 199.12 136.5, 199.28 136.67, 199.45 136.83, 199.62 137.0, 199.79 137.17, 199.95 137.33, 200.12 137.5, 200.29 137.67, 200.45 137.83, 200.62 138.0, 200.79 138.17, 200.95 138.33, 201.12 138.5, 201.29 138.67, 201.45 138.83, 201.62 139.0, 201.79 139.17, 201.95 139.33, 202.12 139.5, 202.29 139.67, 202.45 139.83, 202.62 140.0, 202.78 140.17, 202.95 140.33, 203.11 140.5, 203.28 140.67, 203.44 140.83, 203.61 141.0, 203.77 141.17, 203.94 141.33, 204.1 141.5, 204.26 141.67, 204.43 141.83, 204.59 142.0, 204.75 142.17, 204.92 142.33, 205.08 142.5, 205.24 142.67, 205.4 142.83, 205.56 143.0, 205.72 143.17, 205.88 143.33, 206.04 143.5, 206.2 143.67, 206.36 143.83, 206.52 144.0, 206.67 144.17, 206.83 144.33, 206.99 144.5, 207.14 144.67, 207.3 144.83, 207.46 145.0, 207.61 145.17, 207.76 145.33, 207.92 145.5, 208.07 145.67, 208.22 145.83, 208.38 146.0, 208.53 146.17, 208.68 146.33, 208.83 146.5, 208.98 146.67, 209.13 146.83, 209.27 147.0, 209.42 147.17, 209.57 147.33, 209.72 147.5, 209.86 147.67, 210.01 147.83, 210.15 148.0, 210.29 148.17, 210.44 148.33, 210.58 148.5, 210.72 148.67, 210.86 148.83, 211.0 149.0, 211.14 149.17, 211.28 149.33, 211.42 149.5, 211.55 149.67, 211.69 149.83, 211.82 150.0, 211.96 150.17, 212.09 150.33, 212.22 150.5, 212.35 150.67, 212.49 150.83, 212.62 151.0, 212.74 151.17, 212.87 151.33, 213.0 151.5, 213.13 151.67, 213.25 151.83, 213.38 152.0, 213.5 152.17, 213.62 152.33, 213.74 152.5, 213.87 152.67, 213.99 152.83, 214.1 153.0, 214.22 153.17, 214.34 153.33, 214.45 153.5, 214.57 153.67, 214.68 153.83, 214.8 154.0, 214.91 154.17, 215.02 154.33, 215.13 154.5, 215.24 154.67, 215.34 154.83, 215.45 155.0, 215.56 155.17, 215.66 155.33, 215.76 155.5, 215.87 155.67, 215.97 155.83, 216.07 156.0, 216.17 156.17, 216.26 156.33, 216.36 156.5, 216.45 156.67, 216.55 156.83, 216.64 157.0, 216.73 157.17, 216.82 157.33, 216.91 157.5, 217.0 157.67, 217.09 157.83, 217.18 158.0, 217.26 158.17, 217.34 158.33, 217.43 158.5, 217.51 158.67, 217.59 158.83, 217.67 159.0, 217.74 159.17, 217.82 159.33, 217.9 159.5, 217.97 159.67, 218.04 159.83, 218.11 160.0, 218.18 160.17, 218.25 160.33, 218.32 160.5, 218.39 160.67, 218.45 160.83, 218.52 161.0, 218.58 161.17, 218.64 161.33, 218.7 161.5, 218.76 161.67, 218.81 161.83, 218.87 162.0, 218.92 162.17, 218.98 162.33, 219.03 162.5, 219.08 162.67, 219.13 162.83, 219.18 163.0, 219.22 163.17, 219.27 163.33, 219.31 163.5, 219.36 163.67, 219.4 163.83, 219.44 164.0, 219.48 164.17, 219.51 164.33, 219.55 164.5, 219.58 164.67, 219.62 164.83, 219.65 165.0, 219.68 165.17, 219.71 165.33, 219.74 165.5, 219.76 165.67, 219.79 165.83, 219.81 166.0, 219.83 166.17, 219.85 166.33, 219.87 166.5, 219.89 166.67, 219.91 166.83, 219.92 167.0, 219.94 167.17, 219.95 167.33, 219.96 167.5, 219.97 167.67, 219.98 167.83, 219.99 168.0, 219.99 168.17, 220.0 168.33, 220.0 168.5, 220.0 168.67, 220.0 168.83, 220.0 169.0, 220.0 169.17, 219.99 169.33, 219.99 169.5, 219.98 169.67, 219.97 169.83, 219.96 170.0, 219.95 170.17, 219.94 170.33, 219.92 170.5, 219.91 170.67, 219.89 170.83, 219.87 171.0, 219.85 171.17, 219.83 171.33, 219.81 171.5, 219.79 171.67, 219.76 171.83, 219.74 172.0, 219.71 172.17, 219.68 172.33, 219.65 172.5, 219.62 172.67, 219.58 172.83, 219.55 173.0, 219.51 173.17, 219.48 173.33, 219.44 173.5, 219.4 173.67, 219.36 173.83, 219.32 174.0, 219.27 174.17, 219.23 174.33, 219.18 174.5, 219.13 174.67, 219.08 174.83, 219.03 175.0, 218.98 175.17, 218.93 175.33, 218.87 175.5, 218.82 175.67, 218.76 175.83, 218.7 176.0, 218.64 176.17, 218.58 176.33, 218.52 176.5, 218.45 176.67, 218.39 176.83, 218.32 177.0, 218.26 177.17, 218.19 177.33, 218.12 177.5, 218.05 177.67, 217.97 177.83, 217.9 178.0, 217.82 178.17, 217.75 178.33, 217.67 178.5, 217.59 178.67, 217.51 178.83, 217.43 179.0, 217.35 179.17, 217.26 179.33, 217.18 179.5, 217.09 179.67, 217.01 179.83, 216.92 180.0, 216.83 180.17, 216.74 180.33, 216.65 180.5, 216.55 180.67, 216.46 180.83, 216.36 181.0, 216.27 181.17, 216.17 181.33, 216.07 181.5, 215.97 181.67, 215.87 181.83, 215.77 182.0, 215.67 182.17, 215.56 182.33, 215.46 182.5, 215.35 182.67, 215.24 182.83, 215.14 183.0, 215.03 183.17, 214.92 183.33, 214.8 183.5, 214.69 183.67, 214.58 183.83, 214.46 184.0, 214.35 184.17, 214.23 184.33, 214.11 184.5, 213.99 184.67, 213.87 184.83, 213.75 185.0, 213.63 185.17, 213.51 185.33, 213.39 185.5, 213.26 185.67, 213.14 185.83, 213.01 186.0, 212.88 186.17, 212.76 186.33, 212.63 186.5, 212.5 186.67, 212.37 186.83, 212.24 187.0, 212.1 187.17, 211.97 187.33, 211.84 187.5, 211.7 187.67, 211.57 187.83, 211.43 188.0, 211.29 188.17, 211.15 188.33, 211.02 188.5, 210.88 188.67, 210.74 188.83, 210.6 189.0, 210.45 189.17, 210.31 189.33, 210.17 189.5, 210.02 189.67, 209.88 189.83, 209.73 190.0, 209.59 190.17, 209.44 190.33, 209.29 190.5, 209.15 190.67, 209.0 190.83, 208.85 191.0, 208.7 191.17, 208.55 191.33, 208.4 191.5, 208.25 191.67, 208.09 191.83, 207.94 192.0, 207.79 192.17, 207.63 192.33, 207.48 192.5, 207.33 192.67, 207.17 192.83, 207.01 193.0, 206.86 193.17, 206.7 193.33, 206.54 193.5, 206.39 193.67, 206.23 193.83, 206.07 194.0, 205.91 194.17, 205.75 194.33, 205.59 194.5, 205.43 194.67, 205.27 194.83, 205.11 195.0, 204.95 195.17, 204.79 195.33, 204.62 195.5, 204.46 195.67, 204.3 195.83, 204.14 196.0, 203.97 196.17, 203.81 196.33, 203.65 196.5, 203.48 196.67, 203.32 196.83, 203.15 197.0, 202.99 197.17, 202.82 197.33, 202.66 197.5, 202.49 197.67, 202.33 197.83, 202.16 198.0, 202.0 198.17, 201.83 198.33, 201.66 198.5, 201.5 198.67, 201.33 198.83, 201.17 199.0, 201.0 199.17, 200.83 199.33, 200.67 199.5, 200.5 199.67, 200.33 199.83, 200.17 200.0, 200.0 200.17, 199.83 200.33, 199.67 200.5, 199.5 200.67, 199.33 200.83, 199.17 201.0, 199.0 201.17, 198.83 201.33, 198.67 201.5, 198.5 201.67, 198.34 201.83, 198.17 202.0, 198.0 202.17, 197.84 202.33, 197.67 202.5, 197.51 202.67, 197.34 202.83, 197.18 203.0, 197.01 203.17, 196.85 203.33, 196.68 203.5, 196.52 203.67, 196.35 203.83, 196.19 204.0, 196.03 204.17, 195.86 204.33, 195.7 204.5, 195.54 204.67, 195.38 204.83, 195.21 205.0, 195.05 205.17, 194.89 205.33, 194.73 205.5, 194.57 205.67, 194.41 205.83, 194.25 206.0, 194.09 206.17, 193.93 206.33, 193.77 206.5, 193.61 206.67, 193.46 206.83, 193.3 207.0, 193.14 207.17, 192.99 207.33, 192.83 207.5, 192.67 207.67, 192.52 207.83, 192.37 208.0, 192.21 208.17, 192.06 208.33, 191.91 208.5, 191.75 208.67, 191.6 208.83, 191.45 209.0, 191.3 209.17, 191.15 209.33, 191.0 209.5, 190.85 209.67, 190.71 209.83, 190.56 210.0, 190.41 210.17, 190.27 210.33, 190.12 210.5, 189.98 210.67, 189.83 210.83, 189.69 211.0, 189.55 211.17, 189.4 211.33, 189.26 211.5, 189.12 211.67, 188.98 211.83, 188.85 212.0, 188.71 212.17, 188.57 212.33, 188.43 212.5, 188.3 212.67, 188.16 212.83, 188.03 213.0, 187.9 213.17, 187.76 213.33, 187.63 213.5, 187.5 213.67, 187.37 213.83, 187.24 214.0, 187.12 214.17, 186.99 214.33, 186.86 214.5, 186.74 214.67, 186.61 214.83, 186.49 215.0, 186.37 215.17, 186.25 215.33, 186.13 215.5, 186.01 215.67, 185.89 215.83, 185.77 216.0, 185.65 216.17, 185.54 216.33, 185.42 216.5, 185.31 216.67, 185.2 216.83, 185.08 217.0, 184.97 217.17, 184.86 217.33, 184.76 217.5, 184.65 217.67, 184.54 217.83, 184.44 218.0, 184.33 218.17, 184.23 218.33, 184.13 218.5, 184.03 218.67, 183.93 218.83, 183.83 219.0, 183.73 219.17, 183.64 219.33, 183.54 219.5, 183.45 219.67, 183.35 219.83, 183.26 220.0, 183.17 220.17, 183.08 220.33, 182.99 220.5, 182.91 220.67, 182.82 220.83, 182.74 221.0, 182.65 221.17, 182.57 221.33, 182.49 221.5, 182.41 221.67, 182.33 221.83, 182.25 222.0, 182.18 222.17, 182.1 222.33, 182.03 222.5, 181.95 222.67, 181.88 222.83, 181.81 223.0, 181.74 223.17, 181.68 223.33, 181.61 223.5, 181.55 223.67, 181.48 223.83, 181.42 224.0, 181.36 224.17, 181.3 224.33, 181.24 224.5, 181.18 224.67, 181.13 224.83, 181.07 225.0, 181.02 225.17, 180.97 225.33, 180.92 225.5, 180.87 225.67, 180.82 225.83, 180.77 226.0, 180.73 226.17, 180.68 226.33, 180.64 226.5, 180.6 226.67, 180.56 226.83, 180.52 227.0, 180.49 227.17, 180.45 227.33, 180.42 227.5, 180.38 227.67, 180.35 227.83, 180.32 228.0, 180.29 228.17, 180.26 228.33, 180.24 228.5, 180.21 228.67, 180.19 228.83, 180.17 229.0, 180.15 229.17, 180.13 229.33, 180.11 229.5, 180.09 229.67, 180.08 229.83, 180.06 230.0, 180.05 230.17, 180.04 230.33, 180.03 230.5, 180.02 230.67, 180.01 230.83, 180.01 231.0, 180.0 231.17, 180.0 231.33, 180.0 231.5, 180.0 231.67, 180.0 231.83, 180.0 232.0, 180.01 232.17, 180.01 232.33, 180.02 232.5, 180.03 232.67, 180.04 232.83, 180.05 233.0, 180.06 233.17, 180.08 233.33, 180.09 233.5, 180.11 233.67, 180.13 233.83, 180.15 234.0, 180.17 234.17, 180.19 234.33, 180.21 234.5, 180.24 234.67, 180.26 234.83, 180.29 235.0, 180.32 235.17, 180.35 235.33, 180.38 235.5, 180.42 235.67, 180.45 235.83, 180.49 236.0, 180.52 236.17, 180.56 236.33, 180.6 236.5, 180.64 236.67, 180.69 236.83, 180.73 237.0, 180.78 237.17, 180.82 237.33, 180.87 237.5, 180.92 237.67, 180.97 237.83, 181.02 238.0, 181.08 238.17, 181.13 238.33, 181.19 238.5, 181.24 238.67, 181.3 238.83, 181.36 239.0, 181.42 239.17, 181.48 239.33, 181.55 239.5, 181.61 239.67, 181.68 239.83, 181.75 240.0, 181.82 240.17, 181.89 240.33, 181.96 240.5, 182.03 240.67, 182.1 240.83, 182.18 241.0, 182.26 241.17, 182.33 241.33, 182.41 241.5, 182.49 241.67, 182.57 241.83, 182.66 242.0, 182.74 242.17, 182.82 242.33, 182.91 242.5, 183.0 242.67, 183.09 242.83, 183.18 243.0, 183.27 243.17, 183.36 243.33, 183.45 243.5, 183.55 243.67, 183.64 243.83, 183.74 244.0, 183.83 244.17, 183.93 244.33, 184.03 244.5, 184.13 244.67, 184.24 244.83, 184.34 245.0, 184.44 245.17, 184.55 245.33, 184.66 245.5, 184.76 245.67, 184.87 245.83, 184.98 246.0, 185.09 246.17, 185.2 246.33, 185.32 246.5, 185.43 246.67, 185.55 246.83, 185.66 247.0, 185.78 247.17, 185.9 247.33, 186.01 247.5, 186.13 247.67, 186.26 247.83, 186.38 248.0, 186.5 248.17, 186.62 248.33, 186.75 248.5, 186.87 248.67, 187.0 248.83, 187.13 249.0, 187.26 249.17, 187.38 249.33, 187.51 249.5, 187.65 249.67, 187.78 249.83, 187.91 250.0, 188.04 250.17, 188.18 250.33, 188.31 250.5, 188.45 250.67, 188.58 250.83, 188.72 251.0, 188.86 251.17, 189.0 251.33, 189.14 251.5, 189.28 251.67, 189.42 251.83, 189.56 252.0, 189.71 252.17, 189.85 252.33, 189.99 252.5, 190.14 252.67, 190.28 252.83, 190.43 253.0, 190.58 253.17, 190.73 253.33, 190.87 253.5, 191.02 253.67, 191.17 253.83, 191.32 254.0, 191.47 254.17, 191.62 254.33, 191.78 254.5, 191.93 254.67, 192.08 254.83, 192.24 255.0, 192.39 255.17, 192.54 255.33, 192.7 255.5, 192.86 255.67, 193.01 255.83, 193.17 256.0, 193.33 256.17, 193.48 256.33, 193.64 256.5, 193.8 256.67, 193.96 256.83, 194.12 257.0, 194.28 257.17, 194.44 257.33, 194.6 257.5, 194.76 257.67, 194.92 257.83, 195.08 258.0, 195.25 258.17, 195.41 258.33, 195.57 258.5, 195.74 258.67, 195.9 258.83, 196.06 259.0, 196.23 259.17, 196.39 259.33, 196.56 259.5, 196.72 259.67, 196.89 259.83, 197.05 260.0, 197.22 260.17, 197.38 260.33, 197.55 260.5, 197.71 260.67, 197.88 260.83, 198.05 261.0, 198.21 261.17, 198.38 261.33, 198.55 261.5, 198.71 261.67, 198.88 261.83, 199.05 262.0, 199.21 262.17, 199.38 262.33, 199.55 262.5, 199.71 262.67, 199.88 262.83, 200.05 263.0, 200.21 263.17, 200.38 263.33, 200.55 263.5, 200.72 263.67, 200.88 263.83, 201.05 264.0, 201.22 264.17, 201.38 264.33, 201.55 264.5, 201.72 264.67, 201.88 264.83, 202.05 265.0, 202.21 265.17, 202.38 265.33, 202.55 265.5, 202.71 265.67, 202.88 265.83, 203.04 266.0, 203.21 266.17, 203.37 266.33, 203.53 266.5, 203.7 266.67, 203.86 266.83, 204.03 267.0, 204.19 267.17, 204.35 267.33, 204.51 267.5, 204.68 267.67, 204.84 267.83, 205.0 268.0, 205.16 268.17, 205.32 268.33, 205.48 268.5, 205.64 268.67, 205.8 268.83, 205.96 269.0, 206.12 269.17, 206.27 269.33, 206.43 269.5, 206.59 269.67, 206.75 269.83, 206.9 270.0, 207.06 270.17, 207.21 270.33, 207.37 270.5, 207.52 270.67, 207.67 270.83, 207.82 271.0, 207.98 271.17, 208.13 271.33, 208.28 271.5, 208.43 271.67, 208.58 271.83, 208.72 272.0, 208.87 272.17, 209.02 272.33, 209.17 272.5, 209.31 272.67, 209.46 272.83, 209.6 273.0, 209.74 273.17, 209.89 273.33, 210.03 273.5, 210.17 273.67, 210.31 273.83, 210.45 274.0, 210.58 274.17, 210.72 274.33, 210.86 274.5, 210.99 274.67, 211.13 274.83, 211.26 275.0, 211.39 275.17, 211.53 275.33, 211.66 275.5, 211.79 275.67, 211.92 275.83, 212.04 276.0, 212.17 276.17, 212.3 276.33, 212.42 276.5, 212.54 276.67, 212.67 276.83, 212.79 277.0, 212.91 277.17, 213.03 277.33, 213.14 277.5, 213.26 277.67, 213.38 277.83, 213.49 278.0, 213.6 278.17, 213.72 278.33, 213.83 278.5, 213.94 278.67, 214.04 278.83, 214.15 279.0, 214.26 279.17, 214.36 279.33, 214.46 279.5, 214.56 279.67, 214.66 279.83, 214.76 280.0, 214.86 280.17, 214.96 280.33, 215.05 280.5, 215.14 280.67, 215.23 280.83, 215.33 281.0, 215.41 281.17, 215.5 281.33, 215.59 281.5, 215.67 281.67, 215.75 281.83, 215.83 282.0, 215.91 282.17, 215.99 282.33, 216.07 282.5, 216.14 282.67, 216.21 282.83, 216.28 283.0, 216.35 283.17, 216.42 283.33, 216.49 283.5, 216.55 283.67, 216.61 283.83, 216.67 284.0, 216.73 284.17, 216.79 284.33, 216.85 284.5, 216.9 284.67, 216.95 284.83, 217.0 285.0, 217.05 285.17, 217.09 285.33, 217.14 285.5, 217.18 285.67, 217.22 285.83, 217.25 286.0, 217.29 286.17, 217.32 286.33, 217.35 286.5, 217.38 286.67, 217.41 286.83, 217.44 287.0, 217.46 287.17, 217.48 287.33, 217.5 287.5, 217.51 287.67, 217.53 287.83, 217.54 288.0, 217.55 288.17, 217.56 288.33, 217.56 288.5, 217.56 288.67, 217.56 288.83, 217.56 289.0, 217.56 289.17, 217.55 289.33, 217.54 289.5, 217.53 289.67, 217.51 289.83, 217.49 290.0, 217.47 290.17, 217.45 290.33, 217.42 290.5, 217.4 290.67, 217.36 290.83, 217.33 291.0, 217.29 291.17, 217.26 291.33, 217.21 291.5, 217.17 291.67, 217.12 291.83, 217.07 292.0, 217.02 292.17, 216.96 292.33, 216.9 292.5, 216.84 292.67, 216.77 292.83, 216.7 293.0, 216.63 293.17, 216.56 293.33, 216.48 293.5, 216.4 293.67, 216.31 293.83, 216.23 294.0, 216.13 294.17, 216.04 294.33, 215.94 294.5, 215.84 294.67, 215.74 294.83, 215.63 295.0, 215.52 295.17, 215.4 295.33, 215.28 295.5, 215.16 295.67, 215.03 295.83, 214.9 296.0, 214.77 296.17, 214.63 296.33, 214.49 296.5, 214.34 296.67, 214.2 296.83, 214.04 297.0, 213.88 297.17, 213.72 297.33, 213.56 297.5, 213.39 297.67, 213.21 297.83, 213.04 298.0, 212.85 298.17, 212.67 298.33, 212.48 298.5, 212.28 298.67, 212.08 298.83, 211.88 299.0, 211.67 299.17, 211.46 299.33, 211.24 299.5, 211.01 299.67, 210.79 299.83, 210.55 300.0, 210.32 300.17, 210.08 300.33, 209.83 300.5, 209.58 300.67, 209.32 300.83, 209.06 301.0, 208.79 301.17, 208.52 301.33, 208.24 301.5, 207.95 301.67, 207.66 301.83, 207.37 302.0, 207.07 302.17, 206.76 302.33, 206.45 302.5, 206.13 302.67, 205.81 302.83, 205.48 303.0, 205.15 303.17, 204.81 303.33, 204.46 303.5, 204.11 303.67, 203.75 303.83, 203.38 304.0, 203.01 304.17, 202.63 304.33, 202.24 304.5, 201.85 304.67, 201.45 304.83, 201.05 305.0, 200.64 305.17, 200.22 305.33, 199.79 305.5, 199.36 305.67, 198.92 305.83, 198.47 306.0, 198.01 306.17, 197.55 306.33, 197.08 306.5, 196.6 306.67, 196.12 306.83, 195.63 307.0, 195.12 307.17, 194.62 307.33, 194.1 307.5, 193.57 307.67, 193.04 307.83, 192.5 308.0, 191.95 308.17, 191.39 308.33, 190.82 308.5, 190.25 308.67, 189.66 308.83, 189.07 309.0, 188.46 309.17, 187.85 309.33, 187.23 309.5, 186.6 309.67, 185.96 309.83, 185.31 310.0, 184.65 310.17, 183.98 310.33, 183.3 310.5, 182.61 310.67, 181.91 310.83, 181.2 311.0, 180.48 311.17, 179.75 311.33, 179.01 311.5, 178.25 311.67, 177.49 311.83, 176.71 312.0, 175.93 312.17, 175.13 312.33, 174.32 312.5, 173.5 312.67, 172.67 312.83, 171.82 313.0, 170.97 313.17, 170.1 313.33, 169.22 313.5, 168.32 313.67, 167.42 313.83, 166.5 314.0, 165.57 314.17, 164.62 314.33, 163.66 314.5, 162.69 314.67, 161.7 314.83, 160.71 315.0, 159.69 315.17, 158.67 315.33, 157.62 315.5, 156.57 315.67, 155.5 315.83, 154.41 316.0, 153.31 316.17, 152.2 316.33, 151.06 316.5, 149.92 316.67, 148.76 316.83, 147.58 317.0, 146.38 317.17, 145.17 317.33, 143.95 317.5, 142.7 317.67, 141.44 317.83, 140.17 318.0, 138.87 318.17, 137.56 318.33, 136.23 318.5, 134.88 318.67, 133.52 318.83, 132.13 319.0, 130.73 319.17, 129.31 319.33, 127.87 319.5, 126.41 319.67, 124.93 319.83, 123.43 320.0, 121.91 320.17, 120.38 320.33, 118.82 320.5, 117.24 320.67, 115.64 320.83, 114.02 321.0, 112.37 321.17, 110.71 321.33, 109.02 321.5, 107.31 321.67, 105.58 321.83, 103.83 322.0, 102.05 322.17, 100.25 322.33, 98.43 322.5, 96.58 322.67, 94.71 322.83, 92.82 323.0, 90.9 323.17, 88.95 323.33, 86.98 323.5, 84.99 323.67, 82.97 323.83, 80.92 324.0, 78.85 324.17, 76.75 324.33, 74.62 324.5, 72.47 324.67, 70.29 324.83, 68.08 325.0, 65.84 325.17, 63.57 325.33, 61.28 325.5, 58.95 325.67, 56.6 325.83, 54.21 326.0, 51.8 326.17, 49.36 326.33, 46.88 326.5, 44.37 326.67, 41.83 326.83, 39.26 327.0, 36.66 327.17, 34.02 327.33, 31.36 327.5, 28.65 327.67, 25.92 327.83, 23.15 328.0, 20.34 328.17, 17.5 328.33, 14.62 328.5, 11.71 328.67, 8.76 328.83, 5.78 329.0, 2.76 329.17, -0.3 329.33, -3.4 329.5, -6.54 329.67, -9.71 329.83, -12.93 330.0, -16.18 330.17, -19.47 330.33, -22.81 330.5, -26.18 330.67, -29.6 330.83, -33.06 331.0, -36.56 331.17, -40.11 331.33, -43.69 331.5, -47.33 331.67, -51.0 331.83, -54.72 332.0, -58.49 332.17, -62.3 332.33, -66.16 332.5, -70.06 332.67, -74.02 332.83, -78.02 333.0, -82.07 333.17, -86.16 333.33, -90.31 333.5, -94.51 333.67, -98.76 333.83, -103.06 334.0, -107.41 334.17, -111.81 334.33, -116.27 334.5, -120.78 334.67, -125.34 334.83, -129.96 335.0, -134.63 335.17, -139.36 335.33, -144.15 335.5, -148.99 335.67, -153.89 335.83, -158.85 336.0, -163.87 336.17, -168.94 336.33, -174.08 336.5, -179.28 336.67, -184.54 336.83, -189.86 337.0, -195.24 337.17, -200.69 337.33, -206.2 337.5, -211.78 337.67, -217.42 337.83, -223.12 338.0, -228.9 338.17, -234.74 338.33, -240.65 338.5, -246.63 338.67, -252.68 338.83, -258.8 339.0, -264.99 339.17, -271.25 339.33, -277.59 339.5, -284.0 339.67, -290.48 339.83, -297.04 340.0, -303.67 340.17, -310.38 340.33, -317.17 340.5, -324.04 340.67, -330.98 340.83, -338.01 341.0, -345.11 341.17, -352.3 341.33, -359.57 341.5, -366.92 341.67, -374.35 341.83, -381.88 342.0, -389.48 342.17, -397.18 342.33, -404.96 342.5, -412.83 342.67, -420.78 342.83, -428.83 343.0, -436.97 343.17, -445.2 343.33, -453.53 343.5, -461.95 343.67, -470.46 343.83, -479.07 344.0, -487.78 344.17, -496.58 344.33, -505.48 344.5, -514.49 344.67, -523.59 344.83, -532.8 345.0, -542.1 345.17, -551.51 345.33, -561.03 345.5, -570.65 345.67, -580.38 345.83, -590.22 346.0, -600.17 346.17, -610.22 346.33, -620.39 346.5, -630.67 346.67, -641.06 346.83, -651.57 347.0, -662.2 347.17, -672.94 347.33, -683.8 347.5, -694.77 347.67, -705.87 347.83, -717.09 348.0, -728.43 348.17, -739.9 348.33, -751.49 348.5, -763.21 348.67, -775.06 348.83, -787.03 349.0, -799.13 349.17, -811.37 349.33, -823.74 349.5, -836.24 349.67, -848.87 349.83, -861.65 350.0, -874.56 350.17, -887.61 350.33, -900.8 350.5, -914.13 350.67, -927.61 350.83, -941.23 351.0, -954.99 351.17, -968.9 351.33, -982.97 351.5, -997.18 351.67, -1011.54 351.83, -1026.05 352.0, -1040.72 352.17, -1055.55 352.33, -1070.53 352.5, -1085.67 352.67, -1100.98 352.83, -1116.44 353.0, -1132.07 353.17, -1147.86 353.33, -1163.82 353.5, -1179.94 353.67, -1196.24 353.83, -1212.7 354.0, -1229.34 354.17, -1246.15 354.33, -1263.14 354.5, -1280.31 354.67, -1297.65 354.83, -1315.18 355.0, -1332.89 355.17, -1350.78 355.33, -1368.86 355.5, -1387.13 355.67, -1405.58 355.83, -1424.23 356.0, -1443.07 356.17, -1462.1 356.33, -1481.33 356.5, -1500.76 356.67, -1520.38 356.83, -1540.21 357.0, -1560.24 357.17, -1580.48 357.33, -1600.93 357.5, -1621.58 357.67, -1642.45 357.83, -1663.52 358.0, -1684.82 358.17, -1706.32 358.33, -1728.05 358.5, -1750.0 358.67, -1772.17 358.83, -1794.57 359.0, -1817.19 359.17, -1840.04 359.33, -1863.12 359.5, -1886.43 359.67, -1909.98 359.83, -1933.77 360.0, -1957.79 360.17, -1982.06 360.33, -2006.57 360.5, -2031.32 360.67, -2056.32 360.83, -2081.57 361.0, -2107.08 361.17, -2132.83 361.33, -2158.85 361.5, -2185.12 361.67, -2211.65 361.83, -2238.45 362.0, -2265.51 362.17, -2292.84 362.33, -2320.44 362.5, -2348.31 362.67, -2376.46 362.83, -2404.88 363.0, -2433.58 363.17, -2462.57 363.33, -2491.84 363.5, -2521.39 363.67, -2551.24 363.83, -2581.38 364.0, -2611.81 364.17, -2642.53 364.33, -2673.56 364.5, -2704.89 364.67, -2736.53 364.83, -2768.47 365.0, -2800.72 365.17, -2833.28 365.33, -2866.16 365.5, -2899.36 365.67, -2932.87 365.83, -2966.71 366.0, -3000.88 366.17, -3035.37 366.33, -3070.2 366.5, -3105.36 366.67, -3140.85 366.83, -3176.69 367.0, -3212.87 367.17, -3249.39 367.33, -3286.27 367.5, -3323.49 367.67, -3361.07 367.83, -3399.0 368.0, -3437.3 368.17, -3475.96 368.33, -3514.98 368.5, -3554.38 368.67, -3594.15 368.83, -3634.29 369.0, -3674.81 369.17, -3715.71 369.33, -3757.0 369.5, -3798.67 369.67, -3840.74 369.83, -3883.2 370.0, -3926.06 370.17, -3969.32 370.33, -4012.98 370.5, -4057.05 370.67, -4101.53 370.83, -4146.43 371.0, -4191.74 371.17, -4237.48 371.33, -4283.63 371.5, -4330.22 371.67, -4377.24 371.83, -4424.69 372.0, -4472.58 372.17, -4520.91 372.33, -4569.69 372.5, -4618.91 372.67, -4668.59 372.83, -4718.73 373.0, -4769.32 373.17, -4820.38 373.33, -4871.91 373.5, -4923.9 373.67, -4976.37 373.83, -5029.32 374.0, -5082.75 374.17, -5136.67 374.33, -5191.08 374.5, -5245.98 374.67, -5301.38 374.83, -5357.28 375.0, -5413.69 375.17, -5470.6 375.33, -5528.03 375.5, -5585.98 375.67, -5644.45 375.83, -5703.45 376.0, -5762.97 376.17, -5823.03 376.33, -5883.63 376.5, -5944.77 376.67, -6006.46 376.83, -6068.7 377.0, -6131.49 377.17, -6194.85 377.33, -6258.77 377.5, -6323.25 377.67, -6388.31 377.83, -6453.95 378.0, -6520.17 378.17, -6586.98 378.33, -6654.37 378.5, -6722.36 378.67, -6790.95 378.83, -6860.15 379.0, -6929.96 379.17, -7000.37 379.33, -7071.41 379.5, -7143.07 379.67, -7215.36 379.83, -7288.28 380.0, -7361.84 380.17, -7436.05 380.33, -7510.9 380.5, -7586.4 380.67, -7662.56 380.83, -7739.38 381.0, -7816.87 381.17, -7895.03 381.33, -7973.87 381.5, -8053.39 381.67, -8133.6 381.83, -8214.5 382.0, -8296.1 382.17, -8378.41 382.33, -8461.42 382.5, -8545.15 382.67, -8629.59 382.83, -8714.76 383.0, -8800.67 383.17, -8887.3 383.33, -8974.68 383.5, -9062.8 383.67, -9151.68 383.83, -9241.31 384.0, -9331.71 384.17, -9422.88 384.33, -9514.82 384.5, -9607.54 384.67, -9701.05 384.83, -9795.35 385.0, -9890.44 385.17, -9986.34 385.33, -10083.05 385.5, -10180.58 385.67, -10278.93 385.83, -10378.1 386.0, -10478.11 386.17, -10578.96 386.33, -10680.65 386.5, -10783.2 386.67, -10886.6 386.83, -10990.87 387.0, -11096.01 387.17, -11202.03 387.33, -11308.93 387.5, -11416.72 387.67, -11525.4 387.83, -11634.99 388.0, -11745.49 388.17, -11856.9 388.33, -11969.24 388.5, -12082.5 388.67, -12196.7 388.83, -12311.85 389.0, -12427.94 389.17, -12544.99 389.33, -12663.0 389.5, -12781.98 389.67, -12901.93 389.83, -13022.88 390.0, -13144.81 390.17, -13267.74 390.33, -13391.67 390.5, -13516.61 390.67, -13642.58 390.83, -13769.57 391.0, -13897.59 391.17, -14026.66 391.33, -14156.77 391.5, -14287.94 391.67, -14420.17 391.83, -14553.48 392.0, -14687.86 392.17, -14823.32 392.33, -14959.88 392.5, -15097.54 392.67, -15236.31 392.83, -15376.19 393.0, -15517.2 393.17, -15659.34 393.33, -15802.62 393.5, -15947.05 393.67, -16092.64 393.83, -16239.38 394.0, -16387.3 394.17, -16536.4 394.33, -16686.69 394.5, -16838.18 394.67, -16990.87 394.83, -17144.77 395.0, -17299.89 395.17, -17456.24 395.33, -17613.84 395.5, -17772.67 395.67, -17932.77 395.83, -18094.12 396.0, -18256.75 396.17, -18420.66 396.33, -18585.87 396.5, -18752.36 396.67, -18920.17 396.83, -19089.3 397.0, -19259.75 397.17, -19431.53 397.33, -19604.66 397.5, -19779.14 397.67, -19954.98 397.83, -20132.19 398.0, -20310.79 398.17, -20490.77 398.33, -20672.15 398.5, -20854.95 398.67, -21039.15 398.83, -21224.79 399.0, -21411.87 399.17, -21600.39 399.33, -21790.36 399.5, -21981.81 399.67, -22174.73 399.83, -22369.13 400.0, -22565.04 " fill="none" stroke="white" stroke-width="1.5" stroke-linejoin="round" stroke-opacity="1"/>

 </svg>