<svg version="1.1" 
 baseProfile="full" 
 width="400" 
 height="400" 
 xmlns="http://www.w3.org/2000/svg">
<rect x="0.0" y="0.0" width="400" height="400" fill="black" stroke="black" stroke-width="0" opacity="1"/>
<line x1="0.0" y1="0.0" x2="0.0" y2="400.0" stroke="white" stroke-width="1" opacity="0.4" stroke-linecap="butt"/>
<line x1="40.0" y1="0.0" x2="40.0" y2="400.0" stroke="white" stroke-width="1" opacity="0.4" stroke-linecap="butt"/>
<line x1="80.0" y1="0.0" x2="80.0" y2="400.0" stroke="white" stroke-width="1" opacity="0.4" stroke-linecap="butt"/>
<line x1="120.0" y1="0.0" x2="120.0" y2="400.0" stroke="white" stroke-width="1" opacity="0.4" stroke-linecap="butt"/>
<line x1="160.0" y1="0.0" x2="160.0" y2="400.0" stroke="white" stroke-width="1" opacity="0.4" stroke-linecap="butt"/>
<line x1="200.0" y1="0.0" x2="200.0" y2="400.0" stroke="white" stroke-width="1" opacity="0.4" stroke-linecap="butt"/>
<line x1="240.0" y1="0.0" x2="240.0" y2="400.0" stroke="white" stroke-width="1" opacity="0.4" stroke-linecap="butt"/>
<line x1="280.0" y1="0.0" x2="280.0" y2="400.0" stroke="white" stroke-width="1" opacity="0.4" stroke-linecap="butt"/>
<line x1="320.0" y1="0.0" x2="320.0" y2="400.0" stroke="white" stroke-width="1" opacity="0.4" stroke-linecap="butt"/>
<line x1="360.0" y1="0.0" x2="360.0" y2="400.0" stroke="white" stroke-width="1" opacity="0.4" stroke-linecap="butt"/>
<line x1="0.0" y1="0.0" x2="400.0" y2="0.0" stroke="white" stroke-width="1" opacity="0.4" stroke-linecap="butt"/>
<line x1="0.0" y1="40.0" x2="400.0" y2="40.0" stroke="white" stroke-width="1" opacity="0.4" stroke-linecap="butt"/>
<line x1="0.0" y1="80.0" x2="400.0" y2="80.0" stroke="white" stroke-width="1" opacity="0.4" stroke-linecap="butt"/>
<line x1="0.0" y1="120.0" x2="400.0" y2="120.0" stroke="white" stroke-width="1" opacity="0.4" stroke-linecap="butt"/>
<line x1="0.0" y1="160.0" x2="400.0" y2="160.0" stroke="white" stroke-width="1" opacity="0.4" stroke-linecap="butt"/>
<line x1="0.0" y1="200.0" x2="400.0" y2="200.0" stroke="white" stroke-width="1" opacity="0.4" stroke-linecap="butt"/>
<line x1="0.0" y1="240.0" x2="400.0" y2="240.0" stroke="white" stroke-width="1" opacity="0.4" stroke-linecap="butt"/>
<line x1="0.0" y1="280.0" x2="400.0" y2="280.0" stroke="white" stroke-width="1" opacity="0.4" stroke-linecap="butt"/>
<line x1="0.0" y1="320.0" x2="400.0" y2="320.0" stroke="white" stroke-width="1" opacity="0.4" stroke-linecap="butt"/>
<line x1="0.0" y1="360.0" x2="400.0" y2="360.0" stroke="white" stroke-width="1" opacity="0.4" stroke-linecap="butt"/>
<line x1="0.0" y1="200.0" x2="400.0" y2="200.0" stroke="yellow" stroke-width="2.5" opacity="1" stroke-linecap="butt"/>
<line x1="200.0" y1="0.0" x2="200.0" y2="400.0" stroke="yellow" stroke-width="2.5" opacity="1" stroke-linecap="butt"/>
<polygon points="391.0 204.0, 401.0 200.0, 391.0 196.0, 393.0 200.0" fill="yellow"/><polygon points="204.0 9.0, 200.0 -1.0, 196.0 9.0, 200.0 7.0" fill="yellow"/><image x="-60.0" y="-60.0" width="200" height="200" href="/Users/girirajhira/PycharmProjects/Giraphics3/Taylor/expr.png"/><polyline points="0.0, 23528.71 0.17, 23337.91 0.33, 23148.49 0.5, 22960.44 0.67, 22773.75 0.83, 22588.42 1.0, 22404.42 1.17, 22221.76 1.33, 22040.42 1.5, 21860.41 1.67, 21681.7 1.83, 21504.29 2.0, 21328.18 2.17, 21153.36 2.33, 20979.81 2.5, 20807.53 2.67, 20636.51 2.83, 20466.74 3.0, 20298.22 3.17, 20130.94 3.33, 19964.89 3.5, 19800.06 3.67, 19636.44 3.83, 19474.03 4.0, 19312.82 4.17, 19152.8 4.33, 18993.96 4.5, 18836.3 4.67, 18679.81 4.83, 18524.49 5.0, 18370.31 5.17, 18217.28 5.33, 18065.39 5.5, 17914.64 5.67, 17765.0 5.83, 17616.49 6.0, 17469.08 6.17, 17322.78 6.33, 17177.57 6.5, 17033.46 6.67, 16890.42 6.83, 16748.46 7.0, 16607.57 7.17, 16467.74 7.33, 16328.96 7.5, 16191.23 7.67, 16054.55 7.83, 15918.89 8.0, 15784.26 8.17, 15650.65 8.33, 15518.06 8.5, 15386.47 8.67, 15255.89 8.83, 15126.29 9.0, 14997.69 9.17, 14870.07 9.33, 14743.42 9.5, 14617.73 9.67, 14493.01 9.83, 14369.25 10.0, 14246.43 10.17, 14124.56 10.33, 14003.62 10.5, 13883.62 10.67, 13764.54 10.83, 13646.37 11.0, 13529.12 11.17, 13412.77 11.33, 13297.33 11.5, 13182.78 11.67, 13069.11 11.83, 12956.33 12.0, 12844.42 12.17, 12733.38 12.33, 12623.21 12.5, 12513.9 12.67, 12405.44 12.83, 12297.82 13.0, 12191.05 13.17, 12085.11 13.33, 11980.0 13.5, 11875.72 13.67, 11772.25 13.83, 11669.6 14.0, 11567.76 14.17, 11466.71 14.33, 11366.47 14.5, 11267.01 14.67, 11168.35 14.83, 11070.46 15.0, 10973.35 15.17, 10877.0 15.33, 10781.42 15.5, 10686.61 15.67, 10592.54 15.83, 10499.22 16.0, 10406.65 16.17, 10314.82 16.33, 10223.72 16.5, 10133.35 16.67, 10043.7 16.83, 9954.77 17.0, 9866.55 17.17, 9779.04 17.33, 9692.24 17.5, 9606.13 17.67, 9520.72 17.83, 9436.0 18.0, 9351.96 18.17, 9268.6 18.33, 9185.92 18.5, 9103.9 18.67, 9022.55 18.83, 8941.86 19.0, 8861.83 19.17, 8782.44 19.33, 8703.71 19.5, 8625.62 19.67, 8548.16 19.83, 8471.34 20.0, 8395.14 20.17, 8319.57 20.33, 8244.62 20.5, 8170.28 20.67, 8096.56 20.83, 8023.44 21.0, 7950.92 21.17, 7879.0 21.33, 7807.68 21.5, 7736.94 21.67, 7666.79 21.83, 7597.22 22.0, 7528.23 22.17, 7459.81 22.33, 7391.96 22.5, 7324.67 22.67, 7257.94 22.83, 7191.77 23.0, 7126.15 23.17, 7061.08 23.33, 6996.55 23.5, 6932.57 23.67, 6869.12 23.83, 6806.2 24.0, 6743.81 24.17, 6681.95 24.33, 6620.6 24.5, 6559.78 24.67, 6499.46 24.83, 6439.66 25.0, 6380.36 25.17, 6321.56 25.33, 6263.27 25.5, 6205.46 25.67, 6148.15 25.83, 6091.33 26.0, 6034.98 26.17, 5979.12 26.33, 5923.74 26.5, 5868.83 26.67, 5814.38 26.83, 5760.41 27.0, 5706.89 27.17, 5653.84 27.33, 5601.24 27.5, 5549.09 27.67, 5497.4 27.83, 5446.14 28.0, 5395.33 28.17, 5344.96 28.33, 5295.03 28.5, 5245.52 28.67, 5196.45 28.83, 5147.8 29.0, 5099.57 29.17, 5051.77 29.33, 5004.37 29.5, 4957.4 29.67, 4910.83 29.83, 4864.67 30.0, 4818.91 30.17, 4773.55 30.33, 4728.59 30.5, 4684.03 30.67, 4639.85 30.83, 4596.07 31.0, 4552.66 31.17, 4509.65 31.33, 4467.01 31.5, 4424.75 31.67, 4382.86 31.83, 4341.34 32.0, 4300.19 32.17, 4259.4 32.33, 4218.98 32.5, 4178.92 32.67, 4139.21 32.83, 4099.86 33.0, 4060.86 33.17, 4022.2 33.33, 3983.9 33.5, 3945.93 33.67, 3908.31 33.83, 3871.02 34.0, 3834.07 34.17, 3797.45 34.33, 3761.16 34.5, 3725.19 34.67, 3689.55 34.83, 3654.24 35.0, 3619.24 35.17, 3584.56 35.33, 3550.19 35.5, 3516.13 35.67, 3482.39 35.83, 3448.95 36.0, 3415.81 36.17, 3382.98 36.33, 3350.45 36.5, 3318.21 36.67, 3286.27 36.83, 3254.62 37.0, 3223.26 37.17, 3192.19 37.33, 3161.4 37.5, 3130.9 37.67, 3100.68 37.83, 3070.74 38.0, 3041.07 38.17, 3011.68 38.33, 2982.55 38.5, 2953.7 38.67, 2925.12 38.83, 2896.8 39.0, 2868.74 39.17, 2840.94 39.33, 2813.41 39.5, 2786.13 39.67, 2759.1 39.83, 2732.33 40.0, 2705.81 40.17, 2679.53 40.33, 2653.5 40.5, 2627.72 40.67, 2602.18 40.83, 2576.87 41.0, 2551.81 41.17, 2526.98 41.33, 2502.39 41.5, 2478.03 41.67, 2453.9 41.83, 2429.99 42.0, 2406.32 42.17, 2382.87 42.33, 2359.64 42.5, 2336.63 42.67, 2313.84 42.83, 2291.27 43.0, 2268.92 43.17, 2246.77 43.33, 2224.84 43.5, 2203.12 43.67, 2181.61 43.83, 2160.3 44.0, 2139.2 44.17, 2118.3 44.33, 2097.6 44.5, 2077.11 44.67, 2056.81 44.83, 2036.7 45.0, 2016.79 45.17, 1997.07 45.33, 1977.55 45.5, 1958.21 45.67, 1939.06 45.83, 1920.1 46.0, 1901.32 46.17, 1882.73 46.33, 1864.31 46.5, 1846.08 46.67, 1828.02 46.83, 1810.14 47.0, 1792.44 47.17, 1774.91 47.33, 1757.55 47.5, 1740.36 47.67, 1723.35 47.83, 1706.5 48.0, 1689.81 48.17, 1673.29 48.33, 1656.94 48.5, 1640.74 48.67, 1624.71 48.83, 1608.83 49.0, 1593.12 49.17, 1577.56 49.33, 1562.15 49.5, 1546.9 49.67, 1531.8 49.83, 1516.85 50.0, 1502.05 50.17, 1487.39 50.33, 1472.89 50.5, 1458.53 50.67, 1444.31 50.83, 1430.24 51.0, 1416.31 51.17, 1402.52 51.33, 1388.87 51.5, 1375.35 51.67, 1361.97 51.83, 1348.73 52.0, 1335.62 52.17, 1322.65 52.33, 1309.8 52.5, 1297.09 52.67, 1284.51 52.83, 1272.05 53.0, 1259.72 53.17, 1247.52 53.33, 1235.44 53.5, 1223.49 53.67, 1211.66 53.83, 1199.95 54.0, 1188.35 54.17, 1176.88 54.33, 1165.53 54.5, 1154.29 54.67, 1143.17 54.83, 1132.17 55.0, 1121.27 55.17, 1110.49 55.33, 1099.82 55.5, 1089.27 55.67, 1078.82 55.83, 1068.48 56.0, 1058.25 56.17, 1048.12 56.33, 1038.1 56.5, 1028.18 56.67, 1018.37 56.83, 1008.66 57.0, 999.05 57.17, 989.55 57.33, 980.14 57.5, 970.83 57.67, 961.62 57.83, 952.5 58.0, 943.48 58.17, 934.56 58.33, 925.73 58.5, 917.0 58.67, 908.35 58.83, 899.8 59.0, 891.34 59.17, 882.97 59.33, 874.68 59.5, 866.49 59.67, 858.38 59.83, 850.36 60.0, 842.42 60.17, 834.57 60.33, 826.81 60.5, 819.12 60.67, 811.52 60.83, 804.0 61.0, 796.56 61.17, 789.2 61.33, 781.92 61.5, 774.72 61.67, 767.59 61.83, 760.55 62.0, 753.58 62.17, 746.68 62.33, 739.86 62.5, 733.11 62.67, 726.44 62.83, 719.83 63.0, 713.3 63.17, 706.85 63.33, 700.46 63.5, 694.14 63.67, 687.89 63.83, 681.71 64.0, 675.59 64.17, 669.54 64.33, 663.56 64.5, 657.65 64.67, 651.8 64.83, 646.01 65.0, 640.29 65.17, 634.63 65.33, 629.03 65.5, 623.5 65.67, 618.02 65.83, 612.61 66.0, 607.26 66.17, 601.96 66.33, 596.73 66.5, 591.55 66.67, 586.43 66.83, 581.37 67.0, 576.36 67.17, 571.41 67.33, 566.52 67.5, 561.68 67.67, 556.89 67.83, 552.16 68.0, 547.48 68.17, 542.85 68.33, 538.28 68.5, 533.76 68.67, 529.28 68.83, 524.86 69.0, 520.49 69.17, 516.17 69.33, 511.89 69.5, 507.67 69.67, 503.49 69.83, 499.36 70.0, 495.28 70.17, 491.24 70.33, 487.25 70.5, 483.3 70.67, 479.4 70.83, 475.55 71.0, 471.74 71.17, 467.97 71.33, 464.24 71.5, 460.56 71.67, 456.92 71.83, 453.32 72.0, 449.77 72.17, 446.25 72.33, 442.77 72.5, 439.34 72.67, 435.94 72.83, 432.59 73.0, 429.27 73.17, 425.99 73.33, 422.75 73.5, 419.55 73.67, 416.38 73.83, 413.25 74.0, 410.16 74.17, 407.1 74.33, 404.08 74.5, 401.1 74.67, 398.15 74.83, 395.23 75.0, 392.35 75.17, 389.5 75.33, 386.69 75.5, 383.9 75.67, 381.16 75.83, 378.44 76.0, 375.76 76.17, 373.1 76.33, 370.48 76.5, 367.89 76.67, 365.33 76.83, 362.8 77.0, 360.31 77.17, 357.84 77.33, 355.4 77.5, 352.99 77.67, 350.61 77.83, 348.25 78.0, 345.93 78.17, 343.63 78.33, 341.36 78.5, 339.12 78.67, 336.9 78.83, 334.72 79.0, 332.55 79.17, 330.42 79.33, 328.31 79.5, 326.22 79.67, 324.17 79.83, 322.13 80.0, 320.12 80.17, 318.14 80.33, 316.18 80.5, 314.24 80.67, 312.33 80.83, 310.44 81.0, 308.57 81.17, 306.73 81.33, 304.91 81.5, 303.11 81.67, 301.33 81.83, 299.58 82.0, 297.84 82.17, 296.13 82.33, 294.44 82.5, 292.77 82.67, 291.12 82.83, 289.5 83.0, 287.89 83.17, 286.3 83.33, 284.73 83.5, 283.19 83.67, 281.66 83.83, 280.15 84.0, 278.66 84.17, 277.19 84.33, 275.73 84.5, 274.3 84.67, 272.88 84.83, 271.49 85.0, 270.1 85.17, 268.74 85.33, 267.4 85.5, 266.07 85.67, 264.76 85.83, 263.46 86.0, 262.18 86.17, 260.92 86.33, 259.68 86.5, 258.45 86.67, 257.23 86.83, 256.04 87.0, 254.86 87.17, 253.69 87.33, 252.54 87.5, 251.4 87.67, 250.28 87.83, 249.17 88.0, 248.08 88.17, 247.0 88.33, 245.94 88.5, 244.89 88.67, 243.85 88.83, 242.83 89.0, 241.82 89.17, 240.83 89.33, 239.85 89.5, 238.88 89.67, 237.93 89.83, 236.98 90.0, 236.05 90.17, 235.14 90.33, 234.23 90.5, 233.34 90.67, 232.46 90.83, 231.59 91.0, 230.74 91.17, 229.89 91.33, 229.06 91.5, 228.24 91.67, 227.43 91.83, 226.63 92.0, 225.84 92.17, 225.07 92.33, 224.3 92.5, 223.55 92.67, 222.8 92.83, 222.07 93.0, 221.35 93.17, 220.63 93.33, 219.93 93.5, 219.24 93.67, 218.56 93.83, 217.88 94.0, 217.22 94.17, 216.57 94.33, 215.92 94.5, 215.29 94.67, 214.67 94.83, 214.05 95.0, 213.44 95.17, 212.85 95.33, 212.26 95.5, 211.68 95.67, 211.11 95.83, 210.55 96.0, 209.99 96.17, 209.45 96.33, 208.91 96.5, 208.38 96.67, 207.86 96.83, 207.35 97.0, 206.84 97.17, 206.35 97.33, 205.86 97.5, 205.38 97.67, 204.9 97.83, 204.44 98.0, 203.98 98.17, 203.53 98.33, 203.09 98.5, 202.65 98.67, 202.22 98.83, 201.8 99.0, 201.39 99.17, 200.98 99.33, 200.58 99.5, 200.18 99.67, 199.8 99.83, 199.41 100.0, 199.04 100.17, 198.67 100.33, 198.31 100.5, 197.96 100.67, 197.61 100.83, 197.27 101.0, 196.93 101.17, 196.6 101.33, 196.28 101.5, 195.96 101.67, 195.65 101.83, 195.34 102.0, 195.04 102.17, 194.74 102.33, 194.45 102.5, 194.17 102.67, 193.89 102.83, 193.62 103.0, 193.35 103.17, 193.09 103.33, 192.83 103.5, 192.58 103.67, 192.34 103.83, 192.1 104.0, 191.86 104.17, 191.63 104.33, 191.41 104.5, 191.18 104.67, 190.97 104.83, 190.76 105.0, 190.55 105.17, 190.35 105.33, 190.15 105.5, 189.96 105.67, 189.77 105.83, 189.59 106.0, 189.41 106.17, 189.24 106.33, 189.07 106.5, 188.9 106.67, 188.74 106.83, 188.58 107.0, 188.43 107.17, 188.28 107.33, 188.14 107.5, 188.0 107.67, 187.86 107.83, 187.73 108.0, 187.6 108.17, 187.48 108.33, 187.36 108.5, 187.24 108.67, 187.13 108.83, 187.02 109.0, 186.91 109.17, 186.81 109.33, 186.71 109.5, 186.62 109.67, 186.53 109.83, 186.44 110.0, 186.36 110.17, 186.28 110.33, 186.2 110.5, 186.12 110.67, 186.05 110.83, 185.99 111.0, 185.92 111.17, 185.86 111.33, 185.81 111.5, 185.75 111.67, 185.7 111.83, 185.65 112.0, 185.61 112.17, 185.57 112.33, 185.53 112.5, 185.49 112.67, 185.46 112.83, 185.43 113.0, 185.4 113.17, 185.38 113.33, 185.36 113.5, 185.34 113.67, 185.33 113.83, 185.31 114.0, 185.3 114.17, 185.3 114.33, 185.29 114.5, 185.29 114.67, 185.29 114.83, 185.29 115.0, 185.3 115.17, 185.31 115.33, 185.32 115.5, 185.33 115.67, 185.35 115.83, 185.36 116.0, 185.38 116.17, 185.41 116.33, 185.43 116.5, 185.46 116.67, 185.49 116.83, 185.52 117.0, 185.56 117.17, 185.59 117.33, 185.63 117.5, 185.67 117.67, 185.71 117.83, 185.76 118.0, 185.81 118.17, 185.86 118.33, 185.91 118.5, 185.96 118.67, 186.02 118.83, 186.07 119.0, 186.13 119.17, 186.19 119.33, 186.26 119.5, 186.32 119.67, 186.39 119.83, 186.46 120.0, 186.53 120.17, 186.6 120.33, 186.68 120.5, 186.75 120.67, 186.83 120.83, 186.91 121.0, 186.99 121.17, 187.07 121.33, 187.16 121.5, 187.24 121.67, 187.33 121.83, 187.42 122.0, 187.51 122.17, 187.6 122.33, 187.7 122.5, 187.79 122.67, 187.89 122.83, 187.99 123.0, 188.09 123.17, 188.19 123.33, 188.29 123.5, 188.4 123.67, 188.5 123.83, 188.61 124.0, 188.72 124.17, 188.83 124.33, 188.94 124.5, 189.05 124.67, 189.17 124.83, 189.28 125.0, 189.4 125.17, 189.52 125.33, 189.63 125.5, 189.75 125.67, 189.88 125.83, 190.0 126.0, 190.12 126.17, 190.25 126.33, 190.37 126.5, 190.5 126.67, 190.63 126.83, 190.75 127.0, 190.88 127.17, 191.01 127.33, 191.15 127.5, 191.28 127.67, 191.41 127.83, 191.55 128.0, 191.68 128.17, 191.82 128.33, 191.96 128.5, 192.1 128.67, 192.23 128.83, 192.37 129.0, 192.52 129.17, 192.66 129.33, 192.8 129.5, 192.94 129.67, 193.09 129.83, 193.23 130.0, 193.38 130.17, 193.52 130.33, 193.67 130.5, 193.82 130.67, 193.97 130.83, 194.12 131.0, 194.27 131.17, 194.42 131.33, 194.57 131.5, 194.72 131.67, 194.87 131.83, 195.02 132.0, 195.18 132.17, 195.33 132.33, 195.48 132.5, 195.64 132.67, 195.79 132.83, 195.95 133.0, 196.11 133.17, 196.26 133.33, 196.42 133.5, 196.58 133.67, 196.74 133.83, 196.89 134.0, 197.05 134.17, 197.21 134.33, 197.37 134.5, 197.53 134.67, 197.69 134.83, 197.85 135.0, 198.01 135.17, 198.17 135.33, 198.33 135.5, 198.5 135.67, 198.66 135.83, 198.82 136.0, 198.98 136.17, 199.14 136.33, 199.31 136.5, 199.47 136.67, 199.63 136.83, 199.79 137.0, 199.96 137.17, 200.12 137.33, 200.28 137.5, 200.45 137.67, 200.61 137.83, 200.77 138.0, 200.94 138.17, 201.1 138.33, 201.26 138.5, 201.43 138.67, 201.59 138.83, 201.75 139.0, 201.92 139.17, 202.08 139.33, 202.24 139.5, 202.41 139.67, 202.57 139.83, 202.73 140.0, 202.9 140.17, 203.06 140.33, 203.22 140.5, 203.38 140.67, 203.55 140.83, 203.71 141.0, 203.87 141.17, 204.03 141.33, 204.19 141.5, 204.35 141.67, 204.52 141.83, 204.68 142.0, 204.84 142.17, 205.0 142.33, 205.16 142.5, 205.32 142.67, 205.47 142.83, 205.63 143.0, 205.79 143.17, 205.95 143.33, 206.11 143.5, 206.27 143.67, 206.42 143.83, 206.58 144.0, 206.73 144.17, 206.89 144.33, 207.05 144.5, 207.2 144.67, 207.35 144.83, 207.51 145.0, 207.66 145.17, 207.81 145.33, 207.97 145.5, 208.12 145.67, 208.27 145.83, 208.42 146.0, 208.57 146.17, 208.72 146.33, 208.87 146.5, 209.02 146.67, 209.17 146.83, 209.31 147.0, 209.46 147.17, 209.61 147.33, 209.75 147.5, 209.9 147.67, 210.04 147.83, 210.18 148.0, 210.33 148.17, 210.47 148.33, 210.61 148.5, 210.75 148.67, 210.89 148.83, 211.03 149.0, 211.17 149.17, 211.3 149.33, 211.44 149.5, 211.58 149.67, 211.71 149.83, 211.85 150.0, 211.98 150.17, 212.11 150.33, 212.24 150.5, 212.38 150.67, 212.51 150.83, 212.63 151.0, 212.76 151.17, 212.89 151.33, 213.02 151.5, 213.14 151.67, 213.27 151.83, 213.39 152.0, 213.52 152.17, 213.64 152.33, 213.76 152.5, 213.88 152.67, 214.0 152.83, 214.12 153.0, 214.23 153.17, 214.35 153.33, 214.47 153.5, 214.58 153.67, 214.69 153.83, 214.81 154.0, 214.92 154.17, 215.03 154.33, 215.14 154.5, 215.25 154.67, 215.35 154.83, 215.46 155.0, 215.56 155.17, 215.67 155.33, 215.77 155.5, 215.87 155.67, 215.97 155.83, 216.07 156.0, 216.17 156.17, 216.27 156.33, 216.37 156.5, 216.46 156.67, 216.56 156.83, 216.65 157.0, 216.74 157.17, 216.83 157.33, 216.92 157.5, 217.01 157.67, 217.1 157.83, 217.18 158.0, 217.27 158.17, 217.35 158.33, 217.43 158.5, 217.51 158.67, 217.59 158.83, 217.67 159.0, 217.75 159.17, 217.82 159.33, 217.9 159.5, 217.97 159.67, 218.05 159.83, 218.12 160.0, 218.19 160.17, 218.26 160.33, 218.32 160.5, 218.39 160.67, 218.45 160.83, 218.52 161.0, 218.58 161.17, 218.64 161.33, 218.7 161.5, 218.76 161.67, 218.82 161.83, 218.87 162.0, 218.93 162.17, 218.98 162.33, 219.03 162.5, 219.08 162.67, 219.13 162.83, 219.18 163.0, 219.23 163.17, 219.27 163.33, 219.32 163.5, 219.36 163.67, 219.4 163.83, 219.44 164.0, 219.48 164.17, 219.51 164.33, 219.55 164.5, 219.58 164.67, 219.62 164.83, 219.65 165.0, 219.68 165.17, 219.71 165.33, 219.74 165.5, 219.76 165.67, 219.79 165.83, 219.81 166.0, 219.83 166.17, 219.85 166.33, 219.87 166.5, 219.89 166.67, 219.91 166.83, 219.92 167.0, 219.94 167.17, 219.95 167.33, 219.96 167.5, 219.97 167.67, 219.98 167.83, 219.99 168.0, 219.99 168.17, 220.0 168.33, 220.0 168.5, 220.0 168.67, 220.0 168.83, 220.0 169.0, 220.0 169.17, 219.99 169.33, 219.99 169.5, 219.98 169.67, 219.97 169.83, 219.96 170.0, 219.95 170.17, 219.94 170.33, 219.92 170.5, 219.91 170.67, 219.89 170.83, 219.87 171.0, 219.85 171.17, 219.83 171.33, 219.81 171.5, 219.79 171.67, 219.76 171.83, 219.74 172.0, 219.71 172.17, 219.68 172.33, 219.65 172.5, 219.62 172.67, 219.58 172.83, 219.55 173.0, 219.51 173.17, 219.48 173.33, 219.44 173.5, 219.4 173.67, 219.36 173.83, 219.32 174.0, 219.27 174.17, 219.23 174.33, 219.18 174.5, 219.13 174.67, 219.08 174.83, 219.03 175.0, 218.98 175.17, 218.93 175.33, 218.87 175.5, 218.82 175.67, 218.76 175.83, 218.7 176.0, 218.64 176.17, 218.58 176.33, 218.52 176.5, 218.45 176.67, 218.39 176.83, 218.32 177.0, 218.26 177.17, 218.19 177.33, 218.12 177.5, 218.05 177.67, 217.97 177.83, 217.9 178.0, 217.82 178.17, 217.75 178.33, 217.67 178.5, 217.59 178.67, 217.51 178.83, 217.43 179.0, 217.35 179.17, 217.26 179.33, 217.18 179.5, 217.09 179.67, 217.01 179.83, 216.92 180.0, 216.83 180.17, 216.74 180.33, 216.65 180.5, 216.55 180.67, 216.46 180.83, 216.36 181.0, 216.27 181.17, 216.17 181.33, 216.07 181.5, 215.97 181.67, 215.87 181.83, 215.77 182.0, 215.67 182.17, 215.56 182.33, 215.46 182.5, 215.35 182.67, 215.24 182.83, 215.14 183.0, 215.03 183.17, 214.92 183.33, 214.8 183.5, 214.69 183.67, 214.58 183.83, 214.46 184.0, 214.35 184.17, 214.23 184.33, 214.11 184.5, 213.99 184.67, 213.87 184.83, 213.75 185.0, 213.63 185.17, 213.51 185.33, 213.39 185.5, 213.26 185.67, 213.14 185.83, 213.01 186.0, 212.88 186.17, 212.76 186.33, 212.63 186.5, 212.5 186.67, 212.37 186.83, 212.24 187.0, 212.1 187.17, 211.97 187.33, 211.84 187.5, 211.7 187.67, 211.57 187.83, 211.43 188.0, 211.29 188.17, 211.15 188.33, 211.02 188.5, 210.88 188.67, 210.74 188.83, 210.6 189.0, 210.45 189.17, 210.31 189.33, 210.17 189.5, 210.02 189.67, 209.88 189.83, 209.73 190.0, 209.59 190.17, 209.44 190.33, 209.29 190.5, 209.15 190.67, 209.0 190.83, 208.85 191.0, 208.7 191.17, 208.55 191.33, 208.4 191.5, 208.25 191.67, 208.09 191.83, 207.94 192.0, 207.79 192.17, 207.63 192.33, 207.48 192.5, 207.33 192.67, 207.17 192.83, 207.01 193.0, 206.86 193.17, 206.7 193.33, 206.54 193.5, 206.39 193.67, 206.23 193.83, 206.07 194.0, 205.91 194.17, 205.75 194.33, 205.59 194.5, 205.43 194.67, 205.27 194.83, 205.11 195.0, 204.95 195.17, 204.79 195.33, 204.62 195.5, 204.46 195.67, 204.3 195.83, 204.14 196.0, 203.97 196.17, 203.81 196.33, 203.65 196.5, 203.48 196.67, 203.32 196.83, 203.15 197.0, 202.99 197.17, 202.82 197.33, 202.66 197.5, 202.49 197.67, 202.33 197.83, 202.16 198.0, 202.0 198.17, 201.83 198.33, 201.66 198.5, 201.5 198.67, 201.33 198.83, 201.17 199.0, 201.0 199.17, 200.83 199.33, 200.67 199.5, 200.5 199.67, 200.33 199.83, 200.17 200.0, 200.0 200.17, 199.83 200.33, 199.67 200.5, 199.5 200.67, 199.33 200.83, 199.17 201.0, 199.0 201.17, 198.83 201.33, 198.67 201.5, 198.5 201.67, 198.34 201.83, 198.17 202.0, 198.0 202.17, 197.84 202.33, 197.67 202.5, 197.51 202.67, 197.34 202.83, 197.18 203.0, 197.01 203.17, 196.85 203.33, 196.68 203.5, 196.52 203.67, 196.35 203.83, 196.19 204.0, 196.03 204.17, 195.86 204.33, 195.7 204.5, 195.54 204.67, 195.38 204.83, 195.21 205.0, 195.05 205.17, 194.89 205.33, 194.73 205.5, 194.57 205.67, 194.41 205.83, 194.25 206.0, 194.09 206.17, 193.93 206.33, 193.77 206.5, 193.61 206.67, 193.46 206.83, 193.3 207.0, 193.14 207.17, 192.99 207.33, 192.83 207.5, 192.67 207.67, 192.52 207.83, 192.37 208.0, 192.21 208.17, 192.06 208.33, 191.91 208.5, 191.75 208.67, 191.6 208.83, 191.45 209.0, 191.3 209.17, 191.15 209.33, 191.0 209.5, 190.85 209.67, 190.71 209.83, 190.56 210.0, 190.41 210.17, 190.27 210.33, 190.12 210.5, 189.98 210.67, 189.83 210.83, 189.69 211.0, 189.55 211.17, 189.4 211.33, 189.26 211.5, 189.12 211.67, 188.98 211.83, 188.85 212.0, 188.71 212.17, 188.57 212.33, 188.43 212.5, 188.3 212.67, 188.16 212.83, 188.03 213.0, 187.9 213.17, 187.76 213.33, 187.63 213.5, 187.5 213.67, 187.37 213.83, 187.24 214.0, 187.12 214.17, 186.99 214.33, 186.86 214.5, 186.74 214.67, 186.61 214.83, 186.49 215.0, 186.37 215.17, 186.25 215.33, 186.13 215.5, 186.01 215.67, 185.89 215.83, 185.77 216.0, 185.65 216.17, 185.54 216.33, 185.42 216.5, 185.31 216.67, 185.2 216.83, 185.08 217.0, 184.97 217.17, 184.86 217.33, 184.76 217.5, 184.65 217.67, 184.54 217.83, 184.44 218.0, 184.33 218.17, 184.23 218.33, 184.13 218.5, 184.03 218.67, 183.93 218.83, 183.83 219.0, 183.73 219.17, 183.64 219.33, 183.54 219.5, 183.45 219.67, 183.35 219.83, 183.26 220.0, 183.17 220.17, 183.08 220.33, 182.99 220.5, 182.91 220.67, 182.82 220.83, 182.74 221.0, 182.65 221.17, 182.57 221.33, 182.49 221.5, 182.41 221.67, 182.33 221.83, 182.25 222.0, 182.18 222.17, 182.1 222.33, 182.03 222.5, 181.95 222.67, 181.88 222.83, 181.81 223.0, 181.74 223.17, 181.68 223.33, 181.61 223.5, 181.55 223.67, 181.48 223.83, 181.42 224.0, 181.36 224.17, 181.3 224.33, 181.24 224.5, 181.18 224.67, 181.13 224.83, 181.07 225.0, 181.02 225.17, 180.97 225.33, 180.92 225.5, 180.87 225.67, 180.82 225.83, 180.77 226.0, 180.73 226.17, 180.68 226.33, 180.64 226.5, 180.6 226.67, 180.56 226.83, 180.52 227.0, 180.49 227.17, 180.45 227.33, 180.42 227.5, 180.38 227.67, 180.35 227.83, 180.32 228.0, 180.29 228.17, 180.26 228.33, 180.24 228.5, 180.21 228.67, 180.19 228.83, 180.17 229.0, 180.15 229.17, 180.13 229.33, 180.11 229.5, 180.09 229.67, 180.08 229.83, 180.06 230.0, 180.05 230.17, 180.04 230.33, 180.03 230.5, 180.02 230.67, 180.01 230.83, 180.01 231.0, 180.0 231.17, 180.0 231.33, 180.0 231.5, 180.0 231.67, 180.0 231.83, 180.0 232.0, 180.01 232.17, 180.01 232.33, 180.02 232.5, 180.03 232.67, 180.04 232.83, 180.05 233.0, 180.06 233.17, 180.08 233.33, 180.09 233.5, 180.11 233.67, 180.13 233.83, 180.15 234.0, 180.17 234.17, 180.19 234.33, 180.21 234.5, 180.24 234.67, 180.26 234.83, 180.29 235.0, 180.32 235.17, 180.35 235.33, 180.38 235.5, 180.42 235.67, 180.45 235.83, 180.49 236.0, 180.52 236.17, 180.56 236.33, 180.6 236.5, 180.64 236.67, 180.68 236.83, 180.73 237.0, 180.77 237.17, 180.82 237.33, 180.87 237.5, 180.92 237.67, 180.97 237.83, 181.02 238.0, 181.07 238.17, 181.13 238.33, 181.18 238.5, 181.24 238.67, 181.3 238.83, 181.36 239.0, 181.42 239.17, 181.48 239.33, 181.55 239.5, 181.61 239.67, 181.68 239.83, 181.74 240.0, 181.81 240.17, 181.88 240.33, 181.95 240.5, 182.03 240.67, 182.1 240.83, 182.18 241.0, 182.25 241.17, 182.33 241.33, 182.41 241.5, 182.49 241.67, 182.57 241.83, 182.65 242.0, 182.73 242.17, 182.82 242.33, 182.9 242.5, 182.99 242.67, 183.08 242.83, 183.17 243.0, 183.26 243.17, 183.35 243.33, 183.44 243.5, 183.54 243.67, 183.63 243.83, 183.73 244.0, 183.83 244.17, 183.93 244.33, 184.03 244.5, 184.13 244.67, 184.23 244.83, 184.33 245.0, 184.44 245.17, 184.54 245.33, 184.65 245.5, 184.75 245.67, 184.86 245.83, 184.97 246.0, 185.08 246.17, 185.19 246.33, 185.31 246.5, 185.42 246.67, 185.53 246.83, 185.65 247.0, 185.77 247.17, 185.88 247.33, 186.0 247.5, 186.12 247.67, 186.24 247.83, 186.36 248.0, 186.48 248.17, 186.61 248.33, 186.73 248.5, 186.86 248.67, 186.98 248.83, 187.11 249.0, 187.24 249.17, 187.37 249.33, 187.49 249.5, 187.62 249.67, 187.76 249.83, 187.89 250.0, 188.02 250.17, 188.15 250.33, 188.29 250.5, 188.42 250.67, 188.56 250.83, 188.7 251.0, 188.83 251.17, 188.97 251.33, 189.11 251.5, 189.25 251.67, 189.39 251.83, 189.53 252.0, 189.67 252.17, 189.82 252.33, 189.96 252.5, 190.1 252.67, 190.25 252.83, 190.39 253.0, 190.54 253.17, 190.69 253.33, 190.83 253.5, 190.98 253.67, 191.13 253.83, 191.28 254.0, 191.43 254.17, 191.58 254.33, 191.73 254.5, 191.88 254.67, 192.03 254.83, 192.19 255.0, 192.34 255.17, 192.49 255.33, 192.65 255.5, 192.8 255.67, 192.95 255.83, 193.11 256.0, 193.27 256.17, 193.42 256.33, 193.58 256.5, 193.73 256.67, 193.89 256.83, 194.05 257.0, 194.21 257.17, 194.37 257.33, 194.53 257.5, 194.68 257.67, 194.84 257.83, 195.0 258.0, 195.16 258.17, 195.32 258.33, 195.48 258.5, 195.65 258.67, 195.81 258.83, 195.97 259.0, 196.13 259.17, 196.29 259.33, 196.45 259.5, 196.62 259.67, 196.78 259.83, 196.94 260.0, 197.1 260.17, 197.27 260.33, 197.43 260.5, 197.59 260.67, 197.76 260.83, 197.92 261.0, 198.08 261.17, 198.25 261.33, 198.41 261.5, 198.57 261.67, 198.74 261.83, 198.9 262.0, 199.06 262.17, 199.23 262.33, 199.39 262.5, 199.55 262.67, 199.72 262.83, 199.88 263.0, 200.04 263.17, 200.21 263.33, 200.37 263.5, 200.53 263.67, 200.69 263.83, 200.86 264.0, 201.02 264.17, 201.18 264.33, 201.34 264.5, 201.5 264.67, 201.67 264.83, 201.83 265.0, 201.99 265.17, 202.15 265.33, 202.31 265.5, 202.47 265.67, 202.63 265.83, 202.79 266.0, 202.95 266.17, 203.11 266.33, 203.26 266.5, 203.42 266.67, 203.58 266.83, 203.74 267.0, 203.89 267.17, 204.05 267.33, 204.21 267.5, 204.36 267.67, 204.52 267.83, 204.67 268.0, 204.82 268.17, 204.98 268.33, 205.13 268.5, 205.28 268.67, 205.43 268.83, 205.58 269.0, 205.73 269.17, 205.88 269.33, 206.03 269.5, 206.18 269.67, 206.33 269.83, 206.48 270.0, 206.62 270.17, 206.77 270.33, 206.91 270.5, 207.06 270.67, 207.2 270.83, 207.34 271.0, 207.48 271.17, 207.63 271.33, 207.77 271.5, 207.9 271.67, 208.04 271.83, 208.18 272.0, 208.32 272.17, 208.45 272.33, 208.59 272.5, 208.72 272.67, 208.85 272.83, 208.99 273.0, 209.12 273.17, 209.25 273.33, 209.37 273.5, 209.5 273.67, 209.63 273.83, 209.75 274.0, 209.88 274.17, 210.0 274.33, 210.12 274.5, 210.25 274.67, 210.37 274.83, 210.48 275.0, 210.6 275.17, 210.72 275.33, 210.83 275.5, 210.95 275.67, 211.06 275.83, 211.17 276.0, 211.28 276.17, 211.39 276.33, 211.5 276.5, 211.6 276.67, 211.71 276.83, 211.81 277.0, 211.91 277.17, 212.01 277.33, 212.11 277.5, 212.21 277.67, 212.3 277.83, 212.4 278.0, 212.49 278.17, 212.58 278.33, 212.67 278.5, 212.76 278.67, 212.84 278.83, 212.93 279.0, 213.01 279.17, 213.09 279.33, 213.17 279.5, 213.25 279.67, 213.32 279.83, 213.4 280.0, 213.47 280.17, 213.54 280.33, 213.61 280.5, 213.68 280.67, 213.74 280.83, 213.81 281.0, 213.87 281.17, 213.93 281.33, 213.98 281.5, 214.04 281.67, 214.09 281.83, 214.14 282.0, 214.19 282.17, 214.24 282.33, 214.29 282.5, 214.33 282.67, 214.37 282.83, 214.41 283.0, 214.44 283.17, 214.48 283.33, 214.51 283.5, 214.54 283.67, 214.57 283.83, 214.59 284.0, 214.62 284.17, 214.64 284.33, 214.65 284.5, 214.67 284.67, 214.68 284.83, 214.69 285.0, 214.7 285.17, 214.71 285.33, 214.71 285.5, 214.71 285.67, 214.71 285.83, 214.7 286.0, 214.7 286.17, 214.69 286.33, 214.67 286.5, 214.66 286.67, 214.64 286.83, 214.62 287.0, 214.6 287.17, 214.57 287.33, 214.54 287.5, 214.51 287.67, 214.47 287.83, 214.43 288.0, 214.39 288.17, 214.35 288.33, 214.3 288.5, 214.25 288.67, 214.19 288.83, 214.14 289.0, 214.08 289.17, 214.01 289.33, 213.95 289.5, 213.88 289.67, 213.8 289.83, 213.72 290.0, 213.64 290.17, 213.56 290.33, 213.47 290.5, 213.38 290.67, 213.29 290.83, 213.19 291.0, 213.09 291.17, 212.98 291.33, 212.87 291.5, 212.76 291.67, 212.64 291.83, 212.52 292.0, 212.4 292.17, 212.27 292.33, 212.14 292.5, 212.0 292.67, 211.86 292.83, 211.72 293.0, 211.57 293.17, 211.42 293.33, 211.26 293.5, 211.1 293.67, 210.93 293.83, 210.76 294.0, 210.59 294.17, 210.41 294.33, 210.23 294.5, 210.04 294.67, 209.85 294.83, 209.65 295.0, 209.45 295.17, 209.24 295.33, 209.03 295.5, 208.82 295.67, 208.59 295.83, 208.37 296.0, 208.14 296.17, 207.9 296.33, 207.66 296.5, 207.42 296.67, 207.17 296.83, 206.91 297.0, 206.65 297.17, 206.38 297.33, 206.11 297.5, 205.83 297.67, 205.55 297.83, 205.26 298.0, 204.96 298.17, 204.66 298.33, 204.35 298.5, 204.04 298.67, 203.72 298.83, 203.4 299.0, 203.07 299.17, 202.73 299.33, 202.39 299.5, 202.04 299.67, 201.69 299.83, 201.33 300.0, 200.96 300.17, 200.59 300.33, 200.2 300.5, 199.82 300.67, 199.42 300.83, 199.02 301.0, 198.61 301.17, 198.2 301.33, 197.78 301.5, 197.35 301.67, 196.91 301.83, 196.47 302.0, 196.02 302.17, 195.56 302.33, 195.1 302.5, 194.62 302.67, 194.14 302.83, 193.65 303.0, 193.16 303.17, 192.65 303.33, 192.14 303.5, 191.62 303.67, 191.09 303.83, 190.55 304.0, 190.01 304.17, 189.45 304.33, 188.89 304.5, 188.32 304.67, 187.74 304.83, 187.15 305.0, 186.56 305.17, 185.95 305.33, 185.33 305.5, 184.71 305.67, 184.08 305.83, 183.43 306.0, 182.78 306.17, 182.12 306.33, 181.44 306.5, 180.76 306.67, 180.07 306.83, 179.37 307.0, 178.65 307.17, 177.93 307.33, 177.2 307.5, 176.45 307.67, 175.7 307.83, 174.93 308.0, 174.16 308.17, 173.37 308.33, 172.57 308.5, 171.76 308.67, 170.94 308.83, 170.11 309.0, 169.26 309.17, 168.41 309.33, 167.54 309.5, 166.66 309.67, 165.77 309.83, 164.86 310.0, 163.95 310.17, 163.02 310.33, 162.07 310.5, 161.12 310.67, 160.15 310.83, 159.17 311.0, 158.18 311.17, 157.17 311.33, 156.15 311.5, 155.11 311.67, 154.06 311.83, 153.0 312.0, 151.92 312.17, 150.83 312.33, 149.72 312.5, 148.6 312.67, 147.46 312.83, 146.31 313.0, 145.14 313.17, 143.96 313.33, 142.77 313.5, 141.55 313.67, 140.32 313.83, 139.08 314.0, 137.82 314.17, 136.54 314.33, 135.24 314.5, 133.93 314.67, 132.6 314.83, 131.26 315.0, 129.9 315.17, 128.51 315.33, 127.12 315.5, 125.7 315.67, 124.27 315.83, 122.81 316.0, 121.34 316.17, 119.85 316.33, 118.34 316.5, 116.81 316.67, 115.27 316.83, 113.7 317.0, 112.11 317.17, 110.5 317.33, 108.88 317.5, 107.23 317.67, 105.56 317.83, 103.87 318.0, 102.16 318.17, 100.42 318.33, 98.67 318.5, 96.89 318.67, 95.09 318.83, 93.27 319.0, 91.43 319.17, 89.56 319.33, 87.67 319.5, 85.76 319.67, 83.82 319.83, 81.86 320.0, 79.88 320.17, 77.87 320.33, 75.83 320.5, 73.78 320.67, 71.69 320.83, 69.58 321.0, 67.45 321.17, 65.28 321.33, 63.1 321.5, 60.88 321.67, 58.64 321.83, 56.37 322.0, 54.07 322.17, 51.75 322.33, 49.39 322.5, 47.01 322.67, 44.6 322.83, 42.16 323.0, 39.69 323.17, 37.2 323.33, 34.67 323.5, 32.11 323.67, 29.52 323.83, 26.9 324.0, 24.24 324.17, 21.56 324.33, 18.84 324.5, 16.1 324.67, 13.31 324.83, 10.5 325.0, 7.65 325.17, 4.77 325.33, 1.85 325.5, -1.1 325.67, -4.08 325.83, -7.1 326.0, -10.16 326.17, -13.25 326.33, -16.38 326.5, -19.55 326.67, -22.75 326.83, -25.99 327.0, -29.27 327.17, -32.59 327.33, -35.94 327.5, -39.34 327.67, -42.77 327.83, -46.25 328.0, -49.77 328.17, -53.32 328.33, -56.92 328.5, -60.56 328.67, -64.24 328.83, -67.97 329.0, -71.74 329.17, -75.55 329.33, -79.4 329.5, -83.3 329.67, -87.25 329.83, -91.24 330.0, -95.28 330.17, -99.36 330.33, -103.49 330.5, -107.67 330.67, -111.89 330.83, -116.17 331.0, -120.49 331.17, -124.86 331.33, -129.28 331.5, -133.76 331.67, -138.28 331.83, -142.85 332.0, -147.48 332.17, -152.16 332.33, -156.89 332.5, -161.68 332.67, -166.52 332.83, -171.41 333.0, -176.36 333.17, -181.37 333.33, -186.43 333.5, -191.55 333.67, -196.73 333.83, -201.96 334.0, -207.26 334.17, -212.61 334.33, -218.02 334.5, -223.5 334.67, -229.03 334.83, -234.63 335.0, -240.29 335.17, -246.01 335.33, -251.8 335.5, -257.65 335.67, -263.56 335.83, -269.54 336.0, -275.59 336.17, -281.71 336.33, -287.89 336.5, -294.14 336.67, -300.46 336.83, -306.85 337.0, -313.3 337.17, -319.83 337.33, -326.44 337.5, -333.11 337.67, -339.86 337.83, -346.68 338.0, -353.58 338.17, -360.55 338.33, -367.59 338.5, -374.72 338.67, -381.92 338.83, -389.2 339.0, -396.56 339.17, -404.0 339.33, -411.52 339.5, -419.12 339.67, -426.81 339.83, -434.57 340.0, -442.42 340.17, -450.36 340.33, -458.38 340.5, -466.49 340.67, -474.68 340.83, -482.97 341.0, -491.34 341.17, -499.8 341.33, -508.35 341.5, -517.0 341.67, -525.73 341.83, -534.56 342.0, -543.48 342.17, -552.5 342.33, -561.62 342.5, -570.83 342.67, -580.14 342.83, -589.55 343.0, -599.05 343.17, -608.66 343.33, -618.37 343.5, -628.18 343.67, -638.1 343.83, -648.12 344.0, -658.25 344.17, -668.48 344.33, -678.82 344.5, -689.27 344.67, -699.82 344.83, -710.49 345.0, -721.27 345.17, -732.17 345.33, -743.17 345.5, -754.29 345.67, -765.53 345.83, -776.88 346.0, -788.35 346.17, -799.95 346.33, -811.66 346.5, -823.49 346.67, -835.44 346.83, -847.52 347.0, -859.72 347.17, -872.05 347.33, -884.51 347.5, -897.09 347.67, -909.8 347.83, -922.65 348.0, -935.62 348.17, -948.73 348.33, -961.97 348.5, -975.35 348.67, -988.87 348.83, -1002.52 349.0, -1016.31 349.17, -1030.24 349.33, -1044.31 349.5, -1058.53 349.67, -1072.89 349.83, -1087.39 350.0, -1102.05 350.17, -1116.85 350.33, -1131.8 350.5, -1146.9 350.67, -1162.15 350.83, -1177.56 351.0, -1193.12 351.17, -1208.83 351.33, -1224.71 351.5, -1240.74 351.67, -1256.94 351.83, -1273.29 352.0, -1289.81 352.17, -1306.5 352.33, -1323.35 352.5, -1340.36 352.67, -1357.55 352.83, -1374.91 353.0, -1392.44 353.17, -1410.14 353.33, -1428.02 353.5, -1446.08 353.67, -1464.31 353.83, -1482.73 354.0, -1501.32 354.17, -1520.1 354.33, -1539.06 354.5, -1558.21 354.67, -1577.55 354.83, -1597.07 355.0, -1616.79 355.17, -1636.7 355.33, -1656.81 355.5, -1677.11 355.67, -1697.6 355.83, -1718.3 356.0, -1739.2 356.17, -1760.3 356.33, -1781.61 356.5, -1803.12 356.67, -1824.84 356.83, -1846.77 357.0, -1868.92 357.17, -1891.27 357.33, -1913.84 357.5, -1936.63 357.67, -1959.64 357.83, -1982.87 358.0, -2006.32 358.17, -2029.99 358.33, -2053.9 358.5, -2078.03 358.67, -2102.39 358.83, -2126.98 359.0, -2151.81 359.17, -2176.87 359.33, -2202.18 359.5, -2227.72 359.67, -2253.5 359.83, -2279.53 360.0, -2305.81 360.17, -2332.33 360.33, -2359.1 360.5, -2386.13 360.67, -2413.41 360.83, -2440.94 361.0, -2468.74 361.17, -2496.8 361.33, -2525.12 361.5, -2553.7 361.67, -2582.55 361.83, -2611.68 362.0, -2641.07 362.17, -2670.74 362.33, -2700.68 362.5, -2730.9 362.67, -2761.4 362.83, -2792.19 363.0, -2823.26 363.17, -2854.62 363.33, -2886.27 363.5, -2918.21 363.67, -2950.45 363.83, -2982.98 364.0, -3015.81 364.17, -3048.95 364.33, -3082.39 364.5, -3116.13 364.67, -3150.19 364.83, -3184.56 365.0, -3219.24 365.17, -3254.24 365.33, -3289.55 365.5, -3325.19 365.67, -3361.16 365.83, -3397.45 366.0, -3434.07 366.17, -3471.02 366.33, -3508.31 366.5, -3545.93 366.67, -3583.9 366.83, -3622.2 367.0, -3660.86 367.17, -3699.86 367.33, -3739.21 367.5, -3778.92 367.67, -3818.98 367.83, -3859.4 368.0, -3900.19 368.17, -3941.34 368.33, -3982.86 368.5, -4024.75 368.67, -4067.01 368.83, -4109.65 369.0, -4152.66 369.17, -4196.07 369.33, -4239.85 369.5, -4284.03 369.67, -4328.59 369.83, -4373.55 370.0, -4418.91 370.17, -4464.67 370.33, -4510.83 370.5, -4557.4 370.67, -4604.37 370.83, -4651.77 371.0, -4699.57 371.17, -4747.8 371.33, -4796.45 371.5, -4845.52 371.67, -4895.03 371.83, -4944.96 372.0, -4995.33 372.17, -5046.14 372.33, -5097.4 372.5, -5149.09 372.67, -5201.24 372.83, -5253.84 373.0, -5306.89 373.17, -5360.41 373.33, -5414.38 373.5, -5468.83 373.67, -5523.74 373.83, -5579.12 374.0, -5634.98 374.17, -5691.33 374.33, -5748.15 374.5, -5805.46 374.67, -5863.27 374.83, -5921.56 375.0, -5980.36 375.17, -6039.66 375.33, -6099.46 375.5, -6159.78 375.67, -6220.6 375.83, -6281.95 376.0, -6343.81 376.17, -6406.2 376.33, -6469.12 376.5, -6532.57 376.67, -6596.55 376.83, -6661.08 377.0, -6726.15 377.17, -6791.77 377.33, -6857.94 377.5, -6924.67 377.67, -6991.96 377.83, -7059.81 378.0, -7128.23 378.17, -7197.22 378.33, -7266.79 378.5, -7336.94 378.67, -7407.68 378.83, -7479.0 379.0, -7550.92 379.17, -7623.44 379.33, -7696.56 379.5, -7770.28 379.67, -7844.62 379.83, -7919.57 380.0, -7995.14 380.17, -8071.34 380.33, -8148.16 380.5, -8225.62 380.67, -8303.71 380.83, -8382.44 381.0, -8461.83 381.17, -8541.86 381.33, -8622.55 381.5, -8703.9 381.67, -8785.92 381.83, -8868.6 382.0, -8951.96 382.17, -9036.0 382.33, -9120.72 382.5, -9206.13 382.67, -9292.24 382.83, -9379.04 383.0, -9466.55 383.17, -9554.77 383.33, -9643.7 383.5, -9733.35 383.67, -9823.72 383.83, -9914.82 384.0, -10006.65 384.17, -10099.22 384.33, -10192.54 384.5, -10286.61 384.67, -10381.42 384.83, -10477.0 385.0, -10573.35 385.17, -10670.46 385.33, -10768.35 385.5, -10867.01 385.67, -10966.47 385.83, -11066.71 386.0, -11167.76 386.17, -11269.6 386.33, -11372.25 386.5, -11475.72 386.67, -11580.0 386.83, -11685.11 387.0, -11791.05 387.17, -11897.82 387.33, -12005.44 387.5, -12113.9 387.67, -12223.21 387.83, -12333.38 388.0, -12444.42 388.17, -12556.33 388.33, -12669.11 388.5, -12782.78 388.67, -12897.33 388.83, -13012.77 389.0, -13129.12 389.17, -13246.37 389.33, -13364.54 389.5, -13483.62 389.67, -13603.62 389.83, -13724.56 390.0, -13846.43 390.17, -13969.25 390.33, -14093.01 390.5, -14217.73 390.67, -14343.42 390.83, -14470.07 391.0, -14597.69 391.17, -14726.29 391.33, -14855.89 391.5, -14986.47 391.67, -15118.06 391.83, -15250.65 392.0, -15384.26 392.17, -15518.89 392.33, -15654.55 392.5, -15791.23 392.67, -15928.96 392.83, -16067.74 393.0, -16207.57 393.17, -16348.46 393.33, -16490.42 393.5, -16633.46 393.67, -16777.57 393.83, -16922.78 394.0, -17069.08 394.17, -17216.49 394.33, -17365.0 394.5, -17514.64 394.67, -17665.39 394.83, -17817.28 395.0, -17970.31 395.17, -18124.49 395.33, -18279.81 395.5, -18436.3 395.67, -18593.96 395.83, -18752.8 396.0, -18912.82 396.17, -19074.03 396.33, -19236.44 396.5, -19400.06 396.67, -19564.89 396.83, -19730.94 397.0, -19898.22 397.17, -20066.74 397.33, -20236.51 397.5, -20407.53 397.67, -20579.81 397.83, -20753.36 398.0, -20928.18 398.17, -21104.29 398.33, -21281.7 398.5, -21460.41 398.67, -21640.42 398.83, -21821.76 399.0, -22004.42 399.17, -22188.42 399.33, -22373.75 399.5, -22560.44 399.67, -22748.49 399.83, -22937.91 400.0, -23128.71 " fill="none" stroke="white" stroke-width="1.5" stroke-linejoin="round" stroke-opacity="1"/>

 </svg>