<svg version="1.1" 
 baseProfile="full" 
 width="400" 
 height="400" 
 xmlns="http://www.w3.org/2000/svg">
<rect x="0.0" y="0.0" width="400" height="400" fill="black" stroke="black" stroke-width="0" opacity="1"/>
<line x1="0.0" y1="0.0" x2="0.0" y2="400.0" stroke="white" stroke-width="1" opacity="0.4" stroke-linecap="butt"/>
<line x1="40.0" y1="0.0" x2="40.0" y2="400.0" stroke="white" stroke-width="1" opacity="0.4" stroke-linecap="butt"/>
<line x1="80.0" y1="0.0" x2="80.0" y2="400.0" stroke="white" stroke-width="1" opacity="0.4" stroke-linecap="butt"/>
<line x1="120.0" y1="0.0" x2="120.0" y2="400.0" stroke="white" stroke-width="1" opacity="0.4" stroke-linecap="butt"/>
<line x1="160.0" y1="0.0" x2="160.0" y2="400.0" stroke="white" stroke-width="1" opacity="0.4" stroke-linecap="butt"/>
<line x1="200.0" y1="0.0" x2="200.0" y2="400.0" stroke="white" stroke-width="1" opacity="0.4" stroke-linecap="butt"/>
<line x1="240.0" y1="0.0" x2="240.0" y2="400.0" stroke="white" stroke-width="1" opacity="0.4" stroke-linecap="butt"/>
<line x1="280.0" y1="0.0" x2="280.0" y2="400.0" stroke="white" stroke-width="1" opacity="0.4" stroke-linecap="butt"/>
<line x1="320.0" y1="0.0" x2="320.0" y2="400.0" stroke="white" stroke-width="1" opacity="0.4" stroke-linecap="butt"/>
<line x1="360.0" y1="0.0" x2="360.0" y2="400.0" stroke="white" stroke-width="1" opacity="0.4" stroke-linecap="butt"/>
<line x1="0.0" y1="0.0" x2="400.0" y2="0.0" stroke="white" stroke-width="1" opacity="0.4" stroke-linecap="butt"/>
<line x1="0.0" y1="40.0" x2="400.0" y2="40.0" stroke="white" stroke-width="1" opacity="0.4" stroke-linecap="butt"/>
<line x1="0.0" y1="80.0" x2="400.0" y2="80.0" stroke="white" stroke-width="1" opacity="0.4" stroke-linecap="butt"/>
<line x1="0.0" y1="120.0" x2="400.0" y2="120.0" stroke="white" stroke-width="1" opacity="0.4" stroke-linecap="butt"/>
<line x1="0.0" y1="160.0" x2="400.0" y2="160.0" stroke="white" stroke-width="1" opacity="0.4" stroke-linecap="butt"/>
<line x1="0.0" y1="200.0" x2="400.0" y2="200.0" stroke="white" stroke-width="1" opacity="0.4" stroke-linecap="butt"/>
<line x1="0.0" y1="240.0" x2="400.0" y2="240.0" stroke="white" stroke-width="1" opacity="0.4" stroke-linecap="butt"/>
<line x1="0.0" y1="280.0" x2="400.0" y2="280.0" stroke="white" stroke-width="1" opacity="0.4" stroke-linecap="butt"/>
<line x1="0.0" y1="320.0" x2="400.0" y2="320.0" stroke="white" stroke-width="1" opacity="0.4" stroke-linecap="butt"/>
<line x1="0.0" y1="360.0" x2="400.0" y2="360.0" stroke="white" stroke-width="1" opacity="0.4" stroke-linecap="butt"/>
<line x1="0.0" y1="200.0" x2="400.0" y2="200.0" stroke="yellow" stroke-width="2.5" opacity="1" stroke-linecap="butt"/>
<line x1="200.0" y1="0.0" x2="200.0" y2="400.0" stroke="yellow" stroke-width="2.5" opacity="1" stroke-linecap="butt"/>
<polygon points="391.0 204.0, 401.0 200.0, 391.0 196.0, 393.0 200.0" fill="yellow"/><polygon points="204.0 9.0, 200.0 -1.0, 196.0 9.0, 200.0 7.0" fill="yellow"/><image x="-60.0" y="-60.0" width="200" height="200" href="/Users/girirajhira/PycharmProjects/Giraphics3/Taylor/expr.png"/><polyline points="0.0, 17891.98 0.17, 17752.64 0.33, 17614.25 0.5, 17476.81 0.67, 17340.3 0.83, 17204.73 1.0, 17070.08 1.17, 16936.36 1.33, 16803.55 1.5, 16671.66 1.67, 16540.68 1.83, 16410.59 2.0, 16281.41 2.17, 16153.11 2.33, 16025.71 2.5, 15899.18 2.67, 15773.53 2.83, 15648.76 3.0, 15524.85 3.17, 15401.8 3.33, 15279.61 3.5, 15158.27 3.67, 15037.78 3.83, 14918.13 4.0, 14799.32 4.17, 14681.34 4.33, 14564.18 4.5, 14447.85 4.67, 14332.34 4.83, 14217.64 5.0, 14103.75 5.17, 13990.67 5.33, 13878.38 5.5, 13766.89 5.67, 13656.18 5.83, 13546.26 6.0, 13437.13 6.17, 13328.76 6.33, 13221.17 6.5, 13114.35 6.67, 13008.28 6.83, 12902.98 7.0, 12798.43 7.17, 12694.63 7.33, 12591.57 7.5, 12489.25 7.67, 12387.66 7.83, 12286.81 8.0, 12186.68 8.17, 12087.28 8.33, 11988.59 8.5, 11890.62 8.67, 11793.35 8.83, 11696.8 9.0, 11600.94 9.17, 11505.78 9.33, 11411.31 9.5, 11317.52 9.67, 11224.43 9.83, 11132.01 10.0, 11040.26 10.17, 10949.19 10.33, 10858.79 10.5, 10769.05 10.67, 10679.97 10.83, 10591.54 11.0, 10503.76 11.17, 10416.63 11.33, 10330.15 11.5, 10244.3 11.67, 10159.09 11.83, 10074.51 12.0, 9990.56 12.17, 9907.23 12.33, 9824.52 12.5, 9742.42 12.67, 9660.94 12.83, 9580.06 13.0, 9499.79 13.17, 9420.12 13.33, 9341.05 13.5, 9262.57 13.67, 9184.68 13.83, 9107.37 14.0, 9030.65 14.17, 8954.5 14.33, 8878.93 14.5, 8803.93 14.67, 8729.49 14.83, 8655.62 15.0, 8582.31 15.17, 8509.56 15.33, 8437.36 15.5, 8365.7 15.67, 8294.6 15.83, 8224.03 16.0, 8154.01 16.17, 8084.52 16.33, 8015.56 16.5, 7947.13 16.67, 7879.22 16.83, 7811.84 17.0, 7744.98 17.17, 7678.63 17.33, 7612.79 17.5, 7547.46 17.67, 7482.63 17.83, 7418.31 18.0, 7354.48 18.17, 7291.15 18.33, 7228.31 18.5, 7165.96 18.67, 7104.1 18.83, 7042.72 19.0, 6981.81 19.17, 6921.39 19.33, 6861.43 19.5, 6801.95 19.67, 6742.93 19.83, 6684.37 20.0, 6626.28 20.17, 6568.64 20.33, 6511.46 20.5, 6454.72 20.67, 6398.44 20.83, 6342.6 21.0, 6287.2 21.17, 6232.25 21.33, 6177.72 21.5, 6123.64 21.67, 6069.98 21.83, 6016.75 22.0, 5963.94 22.17, 5911.56 22.33, 5859.59 22.5, 5808.04 22.67, 5756.91 22.83, 5706.18 23.0, 5655.86 23.17, 5605.95 23.33, 5556.44 23.5, 5507.33 23.67, 5458.61 23.83, 5410.29 24.0, 5362.36 24.17, 5314.82 24.33, 5267.66 24.5, 5220.89 24.67, 5174.49 24.83, 5128.48 25.0, 5082.84 25.17, 5037.57 25.33, 4992.67 25.5, 4948.14 25.67, 4903.97 25.83, 4860.17 26.0, 4816.73 26.17, 4773.64 26.33, 4730.91 26.5, 4688.53 26.67, 4646.5 26.83, 4604.82 27.0, 4563.48 27.17, 4522.48 27.33, 4481.83 27.5, 4441.51 27.67, 4401.53 27.83, 4361.88 28.0, 4322.56 28.17, 4283.56 28.33, 4244.9 28.5, 4206.55 28.67, 4168.53 28.83, 4130.83 29.0, 4093.44 29.17, 4056.37 29.33, 4019.61 29.5, 3983.16 29.67, 3947.01 29.83, 3911.18 30.0, 3875.64 30.17, 3840.41 30.33, 3805.47 30.5, 3770.83 30.67, 3736.48 30.83, 3702.43 31.0, 3668.67 31.17, 3635.19 31.33, 3602.0 31.5, 3569.1 31.67, 3536.47 31.83, 3504.13 32.0, 3472.06 32.17, 3440.27 32.33, 3408.75 32.5, 3377.5 32.67, 3346.52 32.83, 3315.81 33.0, 3285.36 33.17, 3255.18 33.33, 3225.26 33.5, 3195.6 33.67, 3166.19 33.83, 3137.05 34.0, 3108.15 34.17, 3079.51 34.33, 3051.11 34.5, 3022.97 34.67, 2995.07 34.83, 2967.41 35.0, 2940.0 35.17, 2912.83 35.33, 2885.9 35.5, 2859.2 35.67, 2832.74 35.83, 2806.51 36.0, 2780.51 36.17, 2754.75 36.33, 2729.21 36.5, 2703.9 36.67, 2678.81 36.83, 2653.94 37.0, 2629.3 37.17, 2604.87 37.33, 2580.67 37.5, 2556.67 37.67, 2532.9 37.83, 2509.33 38.0, 2485.98 38.17, 2462.84 38.33, 2439.9 38.5, 2417.17 38.67, 2394.65 38.83, 2372.32 39.0, 2350.2 39.17, 2328.28 39.33, 2306.56 39.5, 2285.03 39.67, 2263.7 39.83, 2242.56 40.0, 2221.61 40.17, 2200.86 40.33, 2180.29 40.5, 2159.91 40.67, 2139.72 40.83, 2119.71 41.0, 2099.89 41.17, 2080.24 41.33, 2060.78 41.5, 2041.49 41.67, 2022.39 41.83, 2003.45 42.0, 1984.7 42.17, 1966.11 42.33, 1947.7 42.5, 1929.46 42.67, 1911.38 42.83, 1893.47 43.0, 1875.73 43.17, 1858.16 43.33, 1840.75 43.5, 1823.5 43.67, 1806.41 43.83, 1789.48 44.0, 1772.71 44.17, 1756.09 44.33, 1739.63 44.5, 1723.33 44.67, 1707.18 44.83, 1691.18 45.0, 1675.33 45.17, 1659.63 45.33, 1644.08 45.5, 1628.67 45.67, 1613.41 45.83, 1598.3 46.0, 1583.32 46.17, 1568.49 46.33, 1553.8 46.5, 1539.25 46.67, 1524.84 46.83, 1510.57 47.0, 1496.43 47.17, 1482.43 47.33, 1468.56 47.5, 1454.83 47.67, 1441.22 47.83, 1427.75 48.0, 1414.4 48.17, 1401.19 48.33, 1388.1 48.5, 1375.14 48.67, 1362.3 48.83, 1349.59 49.0, 1337.0 49.17, 1324.53 49.33, 1312.18 49.5, 1299.95 49.67, 1287.84 49.83, 1275.85 50.0, 1263.98 50.17, 1252.22 50.33, 1240.58 50.5, 1229.05 50.67, 1217.63 50.83, 1206.32 51.0, 1195.13 51.17, 1184.04 51.33, 1173.07 51.5, 1162.2 51.67, 1151.44 51.83, 1140.78 52.0, 1130.24 52.17, 1119.79 52.33, 1109.45 52.5, 1099.21 52.67, 1089.07 52.83, 1079.03 53.0, 1069.1 53.17, 1059.26 53.33, 1049.52 53.5, 1039.87 53.67, 1030.33 53.83, 1020.87 54.0, 1011.52 54.17, 1002.25 54.33, 993.08 54.5, 984.0 54.67, 975.01 54.83, 966.12 55.0, 957.31 55.17, 948.59 55.33, 939.96 55.5, 931.42 55.67, 922.96 55.83, 914.59 56.0, 906.3 56.17, 898.1 56.33, 889.98 56.5, 881.94 56.67, 873.99 56.83, 866.11 57.0, 858.32 57.17, 850.61 57.33, 842.97 57.5, 835.42 57.67, 827.94 57.83, 820.53 58.0, 813.21 58.17, 805.96 58.33, 798.78 58.5, 791.68 58.67, 784.65 58.83, 777.69 59.0, 770.8 59.17, 763.99 59.33, 757.25 59.5, 750.57 59.67, 743.97 59.83, 737.43 60.0, 730.97 60.17, 724.57 60.33, 718.23 60.5, 711.97 60.67, 705.76 60.83, 699.63 61.0, 693.55 61.17, 687.55 61.33, 681.6 61.5, 675.72 61.67, 669.89 61.83, 664.13 62.0, 658.43 62.17, 652.79 62.33, 647.21 62.5, 641.69 62.67, 636.23 62.83, 630.83 63.0, 625.48 63.17, 620.19 63.33, 614.95 63.5, 609.77 63.67, 604.65 63.83, 599.58 64.0, 594.57 64.17, 589.6 64.33, 584.7 64.5, 579.84 64.67, 575.04 64.83, 570.28 65.0, 565.58 65.17, 560.93 65.33, 556.33 65.5, 551.78 65.67, 547.28 65.83, 542.82 66.0, 538.42 66.17, 534.06 66.33, 529.75 66.5, 525.48 66.67, 521.27 66.83, 517.09 67.0, 512.97 67.17, 508.89 67.33, 504.85 67.5, 500.85 67.67, 496.9 67.83, 493.0 68.0, 489.13 68.17, 485.31 68.33, 481.53 68.5, 477.8 68.67, 474.1 68.83, 470.44 69.0, 466.83 69.17, 463.25 69.33, 459.71 69.5, 456.21 69.67, 452.75 69.83, 449.33 70.0, 445.95 70.17, 442.61 70.33, 439.3 70.5, 436.02 70.67, 432.79 70.83, 429.59 71.0, 426.43 71.17, 423.3 71.33, 420.2 71.5, 417.15 71.67, 414.12 71.83, 411.13 72.0, 408.17 72.17, 405.25 72.33, 402.36 72.5, 399.5 72.67, 396.67 72.83, 393.88 73.0, 391.12 73.17, 388.38 73.33, 385.68 73.5, 383.01 73.67, 380.37 73.83, 377.76 74.0, 375.18 74.17, 372.63 74.33, 370.11 74.5, 367.62 74.67, 365.15 74.83, 362.72 75.0, 360.31 75.17, 357.93 75.33, 355.57 75.5, 353.24 75.67, 350.94 75.83, 348.67 76.0, 346.42 76.17, 344.2 76.33, 342.01 76.5, 339.84 76.67, 337.69 76.83, 335.57 77.0, 333.47 77.17, 331.4 77.33, 329.35 77.5, 327.33 77.67, 325.33 77.83, 323.35 78.0, 321.4 78.17, 319.47 78.33, 317.56 78.5, 315.68 78.67, 313.81 78.83, 311.97 79.0, 310.15 79.17, 308.35 79.33, 306.57 79.5, 304.82 79.67, 303.08 79.83, 301.37 80.0, 299.67 80.17, 298.0 80.33, 296.34 80.5, 294.71 80.67, 293.09 80.83, 291.5 81.0, 289.92 81.17, 288.36 81.33, 286.82 81.5, 285.3 81.67, 283.8 81.83, 282.31 82.0, 280.85 82.17, 279.4 82.33, 277.97 82.5, 276.55 82.67, 275.15 82.83, 273.77 83.0, 272.41 83.17, 271.06 83.33, 269.73 83.5, 268.42 83.67, 267.12 83.83, 265.84 84.0, 264.57 84.17, 263.32 84.33, 262.09 84.5, 260.87 84.67, 259.66 84.83, 258.47 85.0, 257.3 85.17, 256.14 85.33, 254.99 85.5, 253.86 85.67, 252.74 85.83, 251.64 86.0, 250.55 86.17, 249.48 86.33, 248.41 86.5, 247.37 86.67, 246.33 86.83, 245.31 87.0, 244.3 87.17, 243.3 87.33, 242.32 87.5, 241.35 87.67, 240.39 87.83, 239.44 88.0, 238.51 88.17, 237.58 88.33, 236.67 88.5, 235.78 88.67, 234.89 88.83, 234.01 89.0, 233.15 89.17, 232.3 89.33, 231.46 89.5, 230.63 89.67, 229.81 89.83, 229.0 90.0, 228.2 90.17, 227.41 90.33, 226.64 90.5, 225.87 90.67, 225.12 90.83, 224.37 91.0, 223.63 91.17, 222.91 91.33, 222.19 91.5, 221.49 91.67, 220.79 91.83, 220.1 92.0, 219.43 92.17, 218.76 92.33, 218.1 92.5, 217.45 92.67, 216.81 92.83, 216.18 93.0, 215.55 93.17, 214.94 93.33, 214.33 93.5, 213.74 93.67, 213.15 93.83, 212.57 94.0, 212.0 94.17, 211.43 94.33, 210.88 94.5, 210.33 94.67, 209.79 94.83, 209.26 95.0, 208.74 95.17, 208.22 95.33, 207.71 95.5, 207.21 95.67, 206.72 95.83, 206.23 96.0, 205.75 96.17, 205.28 96.33, 204.82 96.5, 204.36 96.67, 203.91 96.83, 203.47 97.0, 203.03 97.17, 202.6 97.33, 202.18 97.5, 201.77 97.67, 201.36 97.83, 200.96 98.0, 200.56 98.17, 200.17 98.33, 199.79 98.5, 199.41 98.67, 199.04 98.83, 198.67 99.0, 198.32 99.17, 197.96 99.33, 197.62 99.5, 197.28 99.67, 196.94 99.83, 196.61 100.0, 196.29 100.17, 195.97 100.33, 195.66 100.5, 195.35 100.67, 195.05 100.83, 194.76 101.0, 194.47 101.17, 194.18 101.33, 193.9 101.5, 193.63 101.67, 193.36 101.83, 193.09 102.0, 192.83 102.17, 192.58 102.33, 192.33 102.5, 192.09 102.67, 191.85 102.83, 191.61 103.0, 191.38 103.17, 191.16 103.33, 190.94 103.5, 190.72 103.67, 190.51 103.83, 190.31 104.0, 190.1 104.17, 189.91 104.33, 189.71 104.5, 189.53 104.67, 189.34 104.83, 189.16 105.0, 188.99 105.17, 188.81 105.33, 188.65 105.5, 188.48 105.67, 188.32 105.83, 188.17 106.0, 188.02 106.17, 187.87 106.33, 187.73 106.5, 187.59 106.67, 187.45 106.83, 187.32 107.0, 187.19 107.17, 187.07 107.33, 186.95 107.5, 186.83 107.67, 186.72 107.83, 186.61 108.0, 186.5 108.17, 186.4 108.33, 186.3 108.5, 186.2 108.67, 186.11 108.83, 186.02 109.0, 185.94 109.17, 185.85 109.33, 185.78 109.5, 185.7 109.67, 185.63 109.83, 185.56 110.0, 185.49 110.17, 185.43 110.33, 185.37 110.5, 185.31 110.67, 185.26 110.83, 185.21 111.0, 185.16 111.17, 185.12 111.33, 185.07 111.5, 185.03 111.67, 185.0 111.83, 184.97 112.0, 184.93 112.17, 184.91 112.33, 184.88 112.5, 184.86 112.67, 184.84 112.83, 184.82 113.0, 184.81 113.17, 184.8 113.33, 184.79 113.5, 184.78 113.67, 184.78 113.83, 184.78 114.0, 184.78 114.17, 184.78 114.33, 184.79 114.5, 184.8 114.67, 184.81 114.83, 184.82 115.0, 184.84 115.17, 184.86 115.33, 184.88 115.5, 184.9 115.67, 184.92 115.83, 184.95 116.0, 184.98 116.17, 185.01 116.33, 185.04 116.5, 185.08 116.67, 185.12 116.83, 185.16 117.0, 185.2 117.17, 185.25 117.33, 185.29 117.5, 185.34 117.67, 185.39 117.83, 185.44 118.0, 185.5 118.17, 185.55 118.33, 185.61 118.5, 185.67 118.67, 185.73 118.83, 185.8 119.0, 185.86 119.17, 185.93 119.33, 186.0 119.5, 186.07 119.67, 186.14 119.83, 186.22 120.0, 186.29 120.17, 186.37 120.33, 186.45 120.5, 186.53 120.67, 186.61 120.83, 186.7 121.0, 186.78 121.17, 186.87 121.33, 186.96 121.5, 187.05 121.67, 187.14 121.83, 187.24 122.0, 187.33 122.17, 187.43 122.33, 187.53 122.5, 187.63 122.67, 187.73 122.83, 187.83 123.0, 187.93 123.17, 188.04 123.33, 188.15 123.5, 188.25 123.67, 188.36 123.83, 188.47 124.0, 188.59 124.17, 188.7 124.33, 188.81 124.5, 188.93 124.67, 189.05 124.83, 189.16 125.0, 189.28 125.17, 189.4 125.33, 189.52 125.5, 189.65 125.67, 189.77 125.83, 189.89 126.0, 190.02 126.17, 190.15 126.33, 190.28 126.5, 190.4 126.67, 190.53 126.83, 190.67 127.0, 190.8 127.17, 190.93 127.33, 191.06 127.5, 191.2 127.67, 191.33 127.83, 191.47 128.0, 191.61 128.17, 191.75 128.33, 191.89 128.5, 192.03 128.67, 192.17 128.83, 192.31 129.0, 192.45 129.17, 192.6 129.33, 192.74 129.5, 192.88 129.67, 193.03 129.83, 193.18 130.0, 193.32 130.17, 193.47 130.33, 193.62 130.5, 193.77 130.67, 193.92 130.83, 194.07 131.0, 194.22 131.17, 194.37 131.33, 194.52 131.5, 194.68 131.67, 194.83 131.83, 194.98 132.0, 195.14 132.17, 195.29 132.33, 195.45 132.5, 195.6 132.67, 195.76 132.83, 195.92 133.0, 196.07 133.17, 196.23 133.33, 196.39 133.5, 196.55 133.67, 196.71 133.83, 196.87 134.0, 197.02 134.17, 197.18 134.33, 197.34 134.5, 197.51 134.67, 197.67 134.83, 197.83 135.0, 197.99 135.17, 198.15 135.33, 198.31 135.5, 198.47 135.67, 198.64 135.83, 198.8 136.0, 198.96 136.17, 199.12 136.33, 199.29 136.5, 199.45 136.67, 199.61 136.83, 199.78 137.0, 199.94 137.17, 200.1 137.33, 200.27 137.5, 200.43 137.67, 200.6 137.83, 200.76 138.0, 200.92 138.17, 201.09 138.33, 201.25 138.5, 201.41 138.67, 201.58 138.83, 201.74 139.0, 201.91 139.17, 202.07 139.33, 202.23 139.5, 202.4 139.67, 202.56 139.83, 202.72 140.0, 202.89 140.17, 203.05 140.33, 203.21 140.5, 203.37 140.67, 203.54 140.83, 203.7 141.0, 203.86 141.17, 204.02 141.33, 204.19 141.5, 204.35 141.67, 204.51 141.83, 204.67 142.0, 204.83 142.17, 204.99 142.33, 205.15 142.5, 205.31 142.67, 205.47 142.83, 205.63 143.0, 205.79 143.17, 205.94 143.33, 206.1 143.5, 206.26 143.67, 206.42 143.83, 206.57 144.0, 206.73 144.17, 206.89 144.33, 207.04 144.5, 207.2 144.67, 207.35 144.83, 207.5 145.0, 207.66 145.17, 207.81 145.33, 207.96 145.5, 208.12 145.67, 208.27 145.83, 208.42 146.0, 208.57 146.17, 208.72 146.33, 208.87 146.5, 209.02 146.67, 209.16 146.83, 209.31 147.0, 209.46 147.17, 209.6 147.33, 209.75 147.5, 209.89 147.67, 210.04 147.83, 210.18 148.0, 210.32 148.17, 210.47 148.33, 210.61 148.5, 210.75 148.67, 210.89 148.83, 211.03 149.0, 211.16 149.17, 211.3 149.33, 211.44 149.5, 211.57 149.67, 211.71 149.83, 211.84 150.0, 211.98 150.17, 212.11 150.33, 212.24 150.5, 212.37 150.67, 212.5 150.83, 212.63 151.0, 212.76 151.17, 212.89 151.33, 213.02 151.5, 213.14 151.67, 213.27 151.83, 213.39 152.0, 213.51 152.17, 213.64 152.33, 213.76 152.5, 213.88 152.67, 214.0 152.83, 214.12 153.0, 214.23 153.17, 214.35 153.33, 214.47 153.5, 214.58 153.67, 214.69 153.83, 214.81 154.0, 214.92 154.17, 215.03 154.33, 215.14 154.5, 215.25 154.67, 215.35 154.83, 215.46 155.0, 215.56 155.17, 215.67 155.33, 215.77 155.5, 215.87 155.67, 215.97 155.83, 216.07 156.0, 216.17 156.17, 216.27 156.33, 216.37 156.5, 216.46 156.67, 216.56 156.83, 216.65 157.0, 216.74 157.17, 216.83 157.33, 216.92 157.5, 217.01 157.67, 217.09 157.83, 217.18 158.0, 217.27 158.17, 217.35 158.33, 217.43 158.5, 217.51 158.67, 217.59 158.83, 217.67 159.0, 217.75 159.17, 217.82 159.33, 217.9 159.5, 217.97 159.67, 218.05 159.83, 218.12 160.0, 218.19 160.17, 218.26 160.33, 218.32 160.5, 218.39 160.67, 218.45 160.83, 218.52 161.0, 218.58 161.17, 218.64 161.33, 218.7 161.5, 218.76 161.67, 218.82 161.83, 218.87 162.0, 218.93 162.17, 218.98 162.33, 219.03 162.5, 219.08 162.67, 219.13 162.83, 219.18 163.0, 219.23 163.17, 219.27 163.33, 219.31 163.5, 219.36 163.67, 219.4 163.83, 219.44 164.0, 219.48 164.17, 219.51 164.33, 219.55 164.5, 219.58 164.67, 219.62 164.83, 219.65 165.0, 219.68 165.17, 219.71 165.33, 219.74 165.5, 219.76 165.67, 219.79 165.83, 219.81 166.0, 219.83 166.17, 219.85 166.33, 219.87 166.5, 219.89 166.67, 219.91 166.83, 219.92 167.0, 219.94 167.17, 219.95 167.33, 219.96 167.5, 219.97 167.67, 219.98 167.83, 219.99 168.0, 219.99 168.17, 220.0 168.33, 220.0 168.5, 220.0 168.67, 220.0 168.83, 220.0 169.0, 220.0 169.17, 219.99 169.33, 219.99 169.5, 219.98 169.67, 219.97 169.83, 219.96 170.0, 219.95 170.17, 219.94 170.33, 219.92 170.5, 219.91 170.67, 219.89 170.83, 219.87 171.0, 219.85 171.17, 219.83 171.33, 219.81 171.5, 219.79 171.67, 219.76 171.83, 219.74 172.0, 219.71 172.17, 219.68 172.33, 219.65 172.5, 219.62 172.67, 219.58 172.83, 219.55 173.0, 219.51 173.17, 219.48 173.33, 219.44 173.5, 219.4 173.67, 219.36 173.83, 219.32 174.0, 219.27 174.17, 219.23 174.33, 219.18 174.5, 219.13 174.67, 219.08 174.83, 219.03 175.0, 218.98 175.17, 218.93 175.33, 218.87 175.5, 218.82 175.67, 218.76 175.83, 218.7 176.0, 218.64 176.17, 218.58 176.33, 218.52 176.5, 218.45 176.67, 218.39 176.83, 218.32 177.0, 218.26 177.17, 218.19 177.33, 218.12 177.5, 218.05 177.67, 217.97 177.83, 217.9 178.0, 217.82 178.17, 217.75 178.33, 217.67 178.5, 217.59 178.67, 217.51 178.83, 217.43 179.0, 217.35 179.17, 217.26 179.33, 217.18 179.5, 217.09 179.67, 217.01 179.83, 216.92 180.0, 216.83 180.17, 216.74 180.33, 216.65 180.5, 216.55 180.67, 216.46 180.83, 216.36 181.0, 216.27 181.17, 216.17 181.33, 216.07 181.5, 215.97 181.67, 215.87 181.83, 215.77 182.0, 215.67 182.17, 215.56 182.33, 215.46 182.5, 215.35 182.67, 215.24 182.83, 215.14 183.0, 215.03 183.17, 214.92 183.33, 214.8 183.5, 214.69 183.67, 214.58 183.83, 214.46 184.0, 214.35 184.17, 214.23 184.33, 214.11 184.5, 213.99 184.67, 213.87 184.83, 213.75 185.0, 213.63 185.17, 213.51 185.33, 213.39 185.5, 213.26 185.67, 213.14 185.83, 213.01 186.0, 212.88 186.17, 212.76 186.33, 212.63 186.5, 212.5 186.67, 212.37 186.83, 212.24 187.0, 212.1 187.17, 211.97 187.33, 211.84 187.5, 211.7 187.67, 211.57 187.83, 211.43 188.0, 211.29 188.17, 211.15 188.33, 211.02 188.5, 210.88 188.67, 210.74 188.83, 210.6 189.0, 210.45 189.17, 210.31 189.33, 210.17 189.5, 210.02 189.67, 209.88 189.83, 209.73 190.0, 209.59 190.17, 209.44 190.33, 209.29 190.5, 209.15 190.67, 209.0 190.83, 208.85 191.0, 208.7 191.17, 208.55 191.33, 208.4 191.5, 208.25 191.67, 208.09 191.83, 207.94 192.0, 207.79 192.17, 207.63 192.33, 207.48 192.5, 207.33 192.67, 207.17 192.83, 207.01 193.0, 206.86 193.17, 206.7 193.33, 206.54 193.5, 206.39 193.67, 206.23 193.83, 206.07 194.0, 205.91 194.17, 205.75 194.33, 205.59 194.5, 205.43 194.67, 205.27 194.83, 205.11 195.0, 204.95 195.17, 204.79 195.33, 204.62 195.5, 204.46 195.67, 204.3 195.83, 204.14 196.0, 203.97 196.17, 203.81 196.33, 203.65 196.5, 203.48 196.67, 203.32 196.83, 203.15 197.0, 202.99 197.17, 202.82 197.33, 202.66 197.5, 202.49 197.67, 202.33 197.83, 202.16 198.0, 202.0 198.17, 201.83 198.33, 201.66 198.5, 201.5 198.67, 201.33 198.83, 201.17 199.0, 201.0 199.17, 200.83 199.33, 200.67 199.5, 200.5 199.67, 200.33 199.83, 200.17 200.0, 200.0 200.17, 199.83 200.33, 199.67 200.5, 199.5 200.67, 199.33 200.83, 199.17 201.0, 199.0 201.17, 198.83 201.33, 198.67 201.5, 198.5 201.67, 198.34 201.83, 198.17 202.0, 198.0 202.17, 197.84 202.33, 197.67 202.5, 197.51 202.67, 197.34 202.83, 197.18 203.0, 197.01 203.17, 196.85 203.33, 196.68 203.5, 196.52 203.67, 196.35 203.83, 196.19 204.0, 196.03 204.17, 195.86 204.33, 195.7 204.5, 195.54 204.67, 195.38 204.83, 195.21 205.0, 195.05 205.17, 194.89 205.33, 194.73 205.5, 194.57 205.67, 194.41 205.83, 194.25 206.0, 194.09 206.17, 193.93 206.33, 193.77 206.5, 193.61 206.67, 193.46 206.83, 193.3 207.0, 193.14 207.17, 192.99 207.33, 192.83 207.5, 192.67 207.67, 192.52 207.83, 192.37 208.0, 192.21 208.17, 192.06 208.33, 191.91 208.5, 191.75 208.67, 191.6 208.83, 191.45 209.0, 191.3 209.17, 191.15 209.33, 191.0 209.5, 190.85 209.67, 190.71 209.83, 190.56 210.0, 190.41 210.17, 190.27 210.33, 190.12 210.5, 189.98 210.67, 189.83 210.83, 189.69 211.0, 189.55 211.17, 189.4 211.33, 189.26 211.5, 189.12 211.67, 188.98 211.83, 188.85 212.0, 188.71 212.17, 188.57 212.33, 188.43 212.5, 188.3 212.67, 188.16 212.83, 188.03 213.0, 187.9 213.17, 187.76 213.33, 187.63 213.5, 187.5 213.67, 187.37 213.83, 187.24 214.0, 187.12 214.17, 186.99 214.33, 186.86 214.5, 186.74 214.67, 186.61 214.83, 186.49 215.0, 186.37 215.17, 186.25 215.33, 186.13 215.5, 186.01 215.67, 185.89 215.83, 185.77 216.0, 185.65 216.17, 185.54 216.33, 185.42 216.5, 185.31 216.67, 185.2 216.83, 185.08 217.0, 184.97 217.17, 184.86 217.33, 184.76 217.5, 184.65 217.67, 184.54 217.83, 184.44 218.0, 184.33 218.17, 184.23 218.33, 184.13 218.5, 184.03 218.67, 183.93 218.83, 183.83 219.0, 183.73 219.17, 183.64 219.33, 183.54 219.5, 183.45 219.67, 183.35 219.83, 183.26 220.0, 183.17 220.17, 183.08 220.33, 182.99 220.5, 182.91 220.67, 182.82 220.83, 182.74 221.0, 182.65 221.17, 182.57 221.33, 182.49 221.5, 182.41 221.67, 182.33 221.83, 182.25 222.0, 182.18 222.17, 182.1 222.33, 182.03 222.5, 181.95 222.67, 181.88 222.83, 181.81 223.0, 181.74 223.17, 181.68 223.33, 181.61 223.5, 181.55 223.67, 181.48 223.83, 181.42 224.0, 181.36 224.17, 181.3 224.33, 181.24 224.5, 181.18 224.67, 181.13 224.83, 181.07 225.0, 181.02 225.17, 180.97 225.33, 180.92 225.5, 180.87 225.67, 180.82 225.83, 180.77 226.0, 180.73 226.17, 180.68 226.33, 180.64 226.5, 180.6 226.67, 180.56 226.83, 180.52 227.0, 180.49 227.17, 180.45 227.33, 180.42 227.5, 180.38 227.67, 180.35 227.83, 180.32 228.0, 180.29 228.17, 180.26 228.33, 180.24 228.5, 180.21 228.67, 180.19 228.83, 180.17 229.0, 180.15 229.17, 180.13 229.33, 180.11 229.5, 180.09 229.67, 180.08 229.83, 180.06 230.0, 180.05 230.17, 180.04 230.33, 180.03 230.5, 180.02 230.67, 180.01 230.83, 180.01 231.0, 180.0 231.17, 180.0 231.33, 180.0 231.5, 180.0 231.67, 180.0 231.83, 180.0 232.0, 180.01 232.17, 180.01 232.33, 180.02 232.5, 180.03 232.67, 180.04 232.83, 180.05 233.0, 180.06 233.17, 180.08 233.33, 180.09 233.5, 180.11 233.67, 180.13 233.83, 180.15 234.0, 180.17 234.17, 180.19 234.33, 180.21 234.5, 180.24 234.67, 180.26 234.83, 180.29 235.0, 180.32 235.17, 180.35 235.33, 180.38 235.5, 180.42 235.67, 180.45 235.83, 180.49 236.0, 180.52 236.17, 180.56 236.33, 180.6 236.5, 180.64 236.67, 180.69 236.83, 180.73 237.0, 180.77 237.17, 180.82 237.33, 180.87 237.5, 180.92 237.67, 180.97 237.83, 181.02 238.0, 181.07 238.17, 181.13 238.33, 181.18 238.5, 181.24 238.67, 181.3 238.83, 181.36 239.0, 181.42 239.17, 181.48 239.33, 181.55 239.5, 181.61 239.67, 181.68 239.83, 181.74 240.0, 181.81 240.17, 181.88 240.33, 181.95 240.5, 182.03 240.67, 182.1 240.83, 182.18 241.0, 182.25 241.17, 182.33 241.33, 182.41 241.5, 182.49 241.67, 182.57 241.83, 182.65 242.0, 182.73 242.17, 182.82 242.33, 182.91 242.5, 182.99 242.67, 183.08 242.83, 183.17 243.0, 183.26 243.17, 183.35 243.33, 183.44 243.5, 183.54 243.67, 183.63 243.83, 183.73 244.0, 183.83 244.17, 183.93 244.33, 184.03 244.5, 184.13 244.67, 184.23 244.83, 184.33 245.0, 184.44 245.17, 184.54 245.33, 184.65 245.5, 184.75 245.67, 184.86 245.83, 184.97 246.0, 185.08 246.17, 185.19 246.33, 185.31 246.5, 185.42 246.67, 185.53 246.83, 185.65 247.0, 185.77 247.17, 185.88 247.33, 186.0 247.5, 186.12 247.67, 186.24 247.83, 186.36 248.0, 186.49 248.17, 186.61 248.33, 186.73 248.5, 186.86 248.67, 186.98 248.83, 187.11 249.0, 187.24 249.17, 187.37 249.33, 187.5 249.5, 187.63 249.67, 187.76 249.83, 187.89 250.0, 188.02 250.17, 188.16 250.33, 188.29 250.5, 188.43 250.67, 188.56 250.83, 188.7 251.0, 188.84 251.17, 188.97 251.33, 189.11 251.5, 189.25 251.67, 189.39 251.83, 189.53 252.0, 189.68 252.17, 189.82 252.33, 189.96 252.5, 190.11 252.67, 190.25 252.83, 190.4 253.0, 190.54 253.17, 190.69 253.33, 190.84 253.5, 190.98 253.67, 191.13 253.83, 191.28 254.0, 191.43 254.17, 191.58 254.33, 191.73 254.5, 191.88 254.67, 192.04 254.83, 192.19 255.0, 192.34 255.17, 192.5 255.33, 192.65 255.5, 192.8 255.67, 192.96 255.83, 193.11 256.0, 193.27 256.17, 193.43 256.33, 193.58 256.5, 193.74 256.67, 193.9 256.83, 194.06 257.0, 194.21 257.17, 194.37 257.33, 194.53 257.5, 194.69 257.67, 194.85 257.83, 195.01 258.0, 195.17 258.17, 195.33 258.33, 195.49 258.5, 195.65 258.67, 195.81 258.83, 195.98 259.0, 196.14 259.17, 196.3 259.33, 196.46 259.5, 196.63 259.67, 196.79 259.83, 196.95 260.0, 197.11 260.17, 197.28 260.33, 197.44 260.5, 197.6 260.67, 197.77 260.83, 197.93 261.0, 198.09 261.17, 198.26 261.33, 198.42 261.5, 198.59 261.67, 198.75 261.83, 198.91 262.0, 199.08 262.17, 199.24 262.33, 199.4 262.5, 199.57 262.67, 199.73 262.83, 199.9 263.0, 200.06 263.17, 200.22 263.33, 200.39 263.5, 200.55 263.67, 200.71 263.83, 200.88 264.0, 201.04 264.17, 201.2 264.33, 201.36 264.5, 201.53 264.67, 201.69 264.83, 201.85 265.0, 202.01 265.17, 202.17 265.33, 202.33 265.5, 202.49 265.67, 202.66 265.83, 202.82 266.0, 202.98 266.17, 203.13 266.33, 203.29 266.5, 203.45 266.67, 203.61 266.83, 203.77 267.0, 203.93 267.17, 204.08 267.33, 204.24 267.5, 204.4 267.67, 204.55 267.83, 204.71 268.0, 204.86 268.17, 205.02 268.33, 205.17 268.5, 205.32 268.67, 205.48 268.83, 205.63 269.0, 205.78 269.17, 205.93 269.33, 206.08 269.5, 206.23 269.67, 206.38 269.83, 206.53 270.0, 206.68 270.17, 206.82 270.33, 206.97 270.5, 207.12 270.67, 207.26 270.83, 207.4 271.0, 207.55 271.17, 207.69 271.33, 207.83 271.5, 207.97 271.67, 208.11 271.83, 208.25 272.0, 208.39 272.17, 208.53 272.33, 208.67 272.5, 208.8 272.67, 208.94 272.83, 209.07 273.0, 209.2 273.17, 209.33 273.33, 209.47 273.5, 209.6 273.67, 209.72 273.83, 209.85 274.0, 209.98 274.17, 210.11 274.33, 210.23 274.5, 210.35 274.67, 210.48 274.83, 210.6 275.0, 210.72 275.17, 210.84 275.33, 210.95 275.5, 211.07 275.67, 211.19 275.83, 211.3 276.0, 211.41 276.17, 211.53 276.33, 211.64 276.5, 211.75 276.67, 211.85 276.83, 211.96 277.0, 212.07 277.17, 212.17 277.33, 212.27 277.5, 212.37 277.67, 212.47 277.83, 212.57 278.0, 212.67 278.17, 212.76 278.33, 212.86 278.5, 212.95 278.67, 213.04 278.83, 213.13 279.0, 213.22 279.17, 213.3 279.33, 213.39 279.5, 213.47 279.67, 213.55 279.83, 213.63 280.0, 213.71 280.17, 213.78 280.33, 213.86 280.5, 213.93 280.67, 214.0 280.83, 214.07 281.0, 214.14 281.17, 214.2 281.33, 214.27 281.5, 214.33 281.67, 214.39 281.83, 214.45 282.0, 214.5 282.17, 214.56 282.33, 214.61 282.5, 214.66 282.67, 214.71 282.83, 214.75 283.0, 214.8 283.17, 214.84 283.33, 214.88 283.5, 214.92 283.67, 214.96 283.83, 214.99 284.0, 215.02 284.17, 215.05 284.33, 215.08 284.5, 215.1 284.67, 215.12 284.83, 215.14 285.0, 215.16 285.17, 215.18 285.33, 215.19 285.5, 215.2 285.67, 215.21 285.83, 215.22 286.0, 215.22 286.17, 215.22 286.33, 215.22 286.5, 215.22 286.67, 215.21 286.83, 215.2 287.0, 215.19 287.17, 215.18 287.33, 215.16 287.5, 215.14 287.67, 215.12 287.83, 215.09 288.0, 215.07 288.17, 215.03 288.33, 215.0 288.5, 214.97 288.67, 214.93 288.83, 214.88 289.0, 214.84 289.17, 214.79 289.33, 214.74 289.5, 214.69 289.67, 214.63 289.83, 214.57 290.0, 214.51 290.17, 214.44 290.33, 214.37 290.5, 214.3 290.67, 214.22 290.83, 214.15 291.0, 214.06 291.17, 213.98 291.33, 213.89 291.5, 213.8 291.67, 213.7 291.83, 213.6 292.0, 213.5 292.17, 213.39 292.33, 213.28 292.5, 213.17 292.67, 213.05 292.83, 212.93 293.0, 212.81 293.17, 212.68 293.33, 212.55 293.5, 212.41 293.67, 212.27 293.83, 212.13 294.0, 211.98 294.17, 211.83 294.33, 211.68 294.5, 211.52 294.67, 211.35 294.83, 211.19 295.0, 211.01 295.17, 210.84 295.33, 210.66 295.5, 210.47 295.67, 210.29 295.83, 210.09 296.0, 209.9 296.17, 209.69 296.33, 209.49 296.5, 209.28 296.67, 209.06 296.83, 208.84 297.0, 208.62 297.17, 208.39 297.33, 208.15 297.5, 207.91 297.67, 207.67 297.83, 207.42 298.0, 207.17 298.17, 206.91 298.33, 206.64 298.5, 206.37 298.67, 206.1 298.83, 205.82 299.0, 205.53 299.17, 205.24 299.33, 204.95 299.5, 204.65 299.67, 204.34 299.83, 204.03 300.0, 203.71 300.17, 203.39 300.33, 203.06 300.5, 202.72 300.67, 202.38 300.83, 202.04 301.0, 201.68 301.17, 201.33 301.33, 200.96 301.5, 200.59 301.67, 200.21 301.83, 199.83 302.0, 199.44 302.17, 199.04 302.33, 198.64 302.5, 198.23 302.67, 197.82 302.83, 197.4 303.0, 196.97 303.17, 196.53 303.33, 196.09 303.5, 195.64 303.67, 195.18 303.83, 194.72 304.0, 194.25 304.17, 193.77 304.33, 193.28 304.5, 192.79 304.67, 192.29 304.83, 191.78 305.0, 191.26 305.17, 190.74 305.33, 190.21 305.5, 189.67 305.67, 189.12 305.83, 188.57 306.0, 188.0 306.17, 187.43 306.33, 186.85 306.5, 186.26 306.67, 185.67 306.83, 185.06 307.0, 184.45 307.17, 183.82 307.33, 183.19 307.5, 182.55 307.67, 181.9 307.83, 181.24 308.0, 180.57 308.17, 179.9 308.33, 179.21 308.5, 178.51 308.67, 177.81 308.83, 177.09 309.0, 176.37 309.17, 175.63 309.33, 174.88 309.5, 174.13 309.67, 173.36 309.83, 172.59 310.0, 171.8 310.17, 171.0 310.33, 170.19 310.5, 169.37 310.67, 168.54 310.83, 167.7 311.0, 166.85 311.17, 165.99 311.33, 165.11 311.5, 164.22 311.67, 163.33 311.83, 162.42 312.0, 161.49 312.17, 160.56 312.33, 159.61 312.5, 158.65 312.67, 157.68 312.83, 156.7 313.0, 155.7 313.17, 154.69 313.33, 153.67 313.5, 152.63 313.67, 151.59 313.83, 150.52 314.0, 149.45 314.17, 148.36 314.33, 147.26 314.5, 146.14 314.67, 145.01 314.83, 143.86 315.0, 142.7 315.17, 141.53 315.33, 140.34 315.5, 139.13 315.67, 137.91 315.83, 136.68 316.0, 135.43 316.17, 134.16 316.33, 132.88 316.5, 131.58 316.67, 130.27 316.83, 128.94 317.0, 127.59 317.17, 126.23 317.33, 124.85 317.5, 123.45 317.67, 122.03 317.83, 120.6 318.0, 119.15 318.17, 117.69 318.33, 116.2 318.5, 114.7 318.67, 113.18 318.83, 111.64 319.0, 110.08 319.17, 108.5 319.33, 106.91 319.5, 105.29 319.67, 103.66 319.83, 102.0 320.0, 100.33 320.17, 98.63 320.33, 96.92 320.5, 95.18 320.67, 93.43 320.83, 91.65 321.0, 89.85 321.17, 88.03 321.33, 86.19 321.5, 84.32 321.67, 82.44 321.83, 80.53 322.0, 78.6 322.17, 76.65 322.33, 74.67 322.5, 72.67 322.67, 70.65 322.83, 68.6 323.0, 66.53 323.17, 64.43 323.33, 62.31 323.5, 60.16 323.67, 57.99 323.83, 55.8 324.0, 53.58 324.17, 51.33 324.33, 49.06 324.5, 46.76 324.67, 44.43 324.83, 42.07 325.0, 39.69 325.17, 37.28 325.33, 34.85 325.5, 32.38 325.67, 29.89 325.83, 27.37 326.0, 24.82 326.17, 22.24 326.33, 19.63 326.5, 16.99 326.67, 14.32 326.83, 11.62 327.0, 8.88 327.17, 6.12 327.33, 3.33 327.5, 0.5 327.67, -2.36 327.83, -5.25 328.0, -8.17 328.17, -11.13 328.33, -14.12 328.5, -17.15 328.67, -20.2 328.83, -23.3 329.0, -26.43 329.17, -29.59 329.33, -32.79 329.5, -36.02 329.67, -39.3 329.83, -42.61 330.0, -45.95 330.17, -49.33 330.33, -52.75 330.5, -56.21 330.67, -59.71 330.83, -63.25 331.0, -66.83 331.17, -70.44 331.33, -74.1 331.5, -77.8 331.67, -81.53 331.83, -85.31 332.0, -89.13 332.17, -93.0 332.33, -96.9 332.5, -100.85 332.67, -104.85 332.83, -108.89 333.0, -112.97 333.17, -117.09 333.33, -121.27 333.5, -125.48 333.67, -129.75 333.83, -134.06 334.0, -138.42 334.17, -142.82 334.33, -147.28 334.5, -151.78 334.67, -156.33 334.83, -160.93 335.0, -165.58 335.17, -170.28 335.33, -175.04 335.5, -179.84 335.67, -184.7 335.83, -189.6 336.0, -194.57 336.17, -199.58 336.33, -204.65 336.5, -209.77 336.67, -214.95 336.83, -220.19 337.0, -225.48 337.17, -230.83 337.33, -236.23 337.5, -241.69 337.67, -247.21 337.83, -252.79 338.0, -258.43 338.17, -264.13 338.33, -269.89 338.5, -275.72 338.67, -281.6 338.83, -287.55 339.0, -293.55 339.17, -299.63 339.33, -305.76 339.5, -311.97 339.67, -318.23 339.83, -324.57 340.0, -330.97 340.17, -337.43 340.33, -343.97 340.5, -350.57 340.67, -357.25 340.83, -363.99 341.0, -370.8 341.17, -377.69 341.33, -384.65 341.5, -391.68 341.67, -398.78 341.83, -405.96 342.0, -413.21 342.17, -420.53 342.33, -427.94 342.5, -435.42 342.67, -442.97 342.83, -450.61 343.0, -458.32 343.17, -466.11 343.33, -473.99 343.5, -481.94 343.67, -489.98 343.83, -498.1 344.0, -506.3 344.17, -514.59 344.33, -522.96 344.5, -531.42 344.67, -539.96 344.83, -548.59 345.0, -557.31 345.17, -566.12 345.33, -575.01 345.5, -584.0 345.67, -593.08 345.83, -602.25 346.0, -611.52 346.17, -620.87 346.33, -630.33 346.5, -639.87 346.67, -649.52 346.83, -659.26 347.0, -669.1 347.17, -679.03 347.33, -689.07 347.5, -699.21 347.67, -709.45 347.83, -719.79 348.0, -730.24 348.17, -740.78 348.33, -751.44 348.5, -762.2 348.67, -773.07 348.83, -784.04 349.0, -795.13 349.17, -806.32 349.33, -817.63 349.5, -829.05 349.67, -840.58 349.83, -852.22 350.0, -863.98 350.17, -875.85 350.33, -887.84 350.5, -899.95 350.67, -912.18 350.83, -924.53 351.0, -937.0 351.17, -949.59 351.33, -962.3 351.5, -975.14 351.67, -988.1 351.83, -1001.19 352.0, -1014.4 352.17, -1027.75 352.33, -1041.22 352.5, -1054.83 352.67, -1068.56 352.83, -1082.43 353.0, -1096.43 353.17, -1110.57 353.33, -1124.84 353.5, -1139.25 353.67, -1153.8 353.83, -1168.49 354.0, -1183.32 354.17, -1198.3 354.33, -1213.41 354.5, -1228.67 354.67, -1244.08 354.83, -1259.63 355.0, -1275.33 355.17, -1291.18 355.33, -1307.18 355.5, -1323.33 355.67, -1339.63 355.83, -1356.09 356.0, -1372.71 356.17, -1389.48 356.33, -1406.41 356.5, -1423.5 356.67, -1440.75 356.83, -1458.16 357.0, -1475.73 357.17, -1493.47 357.33, -1511.38 357.5, -1529.46 357.67, -1547.7 357.83, -1566.11 358.0, -1584.7 358.17, -1603.45 358.33, -1622.39 358.5, -1641.49 358.67, -1660.78 358.83, -1680.24 359.0, -1699.89 359.17, -1719.71 359.33, -1739.72 359.5, -1759.91 359.67, -1780.29 359.83, -1800.86 360.0, -1821.61 360.17, -1842.56 360.33, -1863.7 360.5, -1885.03 360.67, -1906.56 360.83, -1928.28 361.0, -1950.2 361.17, -1972.32 361.33, -1994.65 361.5, -2017.17 361.67, -2039.9 361.83, -2062.84 362.0, -2085.98 362.17, -2109.33 362.33, -2132.9 362.5, -2156.67 362.67, -2180.67 362.83, -2204.87 363.0, -2229.3 363.17, -2253.94 363.33, -2278.81 363.5, -2303.9 363.67, -2329.21 363.83, -2354.75 364.0, -2380.51 364.17, -2406.51 364.33, -2432.74 364.5, -2459.2 364.67, -2485.9 364.83, -2512.83 365.0, -2540.0 365.17, -2567.41 365.33, -2595.07 365.5, -2622.97 365.67, -2651.11 365.83, -2679.51 366.0, -2708.15 366.17, -2737.05 366.33, -2766.19 366.5, -2795.6 366.67, -2825.26 366.83, -2855.18 367.0, -2885.36 367.17, -2915.81 367.33, -2946.52 367.5, -2977.5 367.67, -3008.75 367.83, -3040.27 368.0, -3072.06 368.17, -3104.13 368.33, -3136.47 368.5, -3169.1 368.67, -3202.0 368.83, -3235.19 369.0, -3268.67 369.17, -3302.43 369.33, -3336.48 369.5, -3370.83 369.67, -3405.47 369.83, -3440.41 370.0, -3475.64 370.17, -3511.18 370.33, -3547.01 370.5, -3583.16 370.67, -3619.61 370.83, -3656.37 371.0, -3693.44 371.17, -3730.83 371.33, -3768.53 371.5, -3806.55 371.67, -3844.9 371.83, -3883.56 372.0, -3922.56 372.17, -3961.88 372.33, -4001.53 372.5, -4041.51 372.67, -4081.83 372.83, -4122.48 373.0, -4163.48 373.17, -4204.82 373.33, -4246.5 373.5, -4288.53 373.67, -4330.91 373.83, -4373.64 374.0, -4416.73 374.17, -4460.17 374.33, -4503.97 374.5, -4548.14 374.67, -4592.67 374.83, -4637.57 375.0, -4682.84 375.17, -4728.48 375.33, -4774.49 375.5, -4820.89 375.67, -4867.66 375.83, -4914.82 376.0, -4962.36 376.17, -5010.29 376.33, -5058.61 376.5, -5107.33 376.67, -5156.44 376.83, -5205.95 377.0, -5255.86 377.17, -5306.18 377.33, -5356.91 377.5, -5408.04 377.67, -5459.59 377.83, -5511.56 378.0, -5563.94 378.17, -5616.75 378.33, -5669.98 378.5, -5723.64 378.67, -5777.72 378.83, -5832.25 379.0, -5887.2 379.17, -5942.6 379.33, -5998.44 379.5, -6054.72 379.67, -6111.46 379.83, -6168.64 380.0, -6226.28 380.17, -6284.37 380.33, -6342.93 380.5, -6401.95 380.67, -6461.43 380.83, -6521.39 381.0, -6581.81 381.17, -6642.72 381.33, -6704.1 381.5, -6765.96 381.67, -6828.31 381.83, -6891.15 382.0, -6954.48 382.17, -7018.31 382.33, -7082.63 382.5, -7147.46 382.67, -7212.79 382.83, -7278.63 383.0, -7344.98 383.17, -7411.84 383.33, -7479.22 383.5, -7547.13 383.67, -7615.56 383.83, -7684.52 384.0, -7754.01 384.17, -7824.03 384.33, -7894.6 384.5, -7965.7 384.67, -8037.36 384.83, -8109.56 385.0, -8182.31 385.17, -8255.62 385.33, -8329.49 385.5, -8403.93 385.67, -8478.93 385.83, -8554.5 386.0, -8630.65 386.17, -8707.37 386.33, -8784.68 386.5, -8862.57 386.67, -8941.05 386.83, -9020.12 387.0, -9099.79 387.17, -9180.06 387.33, -9260.94 387.5, -9342.42 387.67, -9424.52 387.83, -9507.23 388.0, -9590.56 388.17, -9674.51 388.33, -9759.09 388.5, -9844.3 388.67, -9930.15 388.83, -10016.63 389.0, -10103.76 389.17, -10191.54 389.33, -10279.97 389.5, -10369.05 389.67, -10458.79 389.83, -10549.19 390.0, -10640.26 390.17, -10732.01 390.33, -10824.43 390.5, -10917.52 390.67, -11011.31 390.83, -11105.78 391.0, -11200.94 391.17, -11296.8 391.33, -11393.35 391.5, -11490.62 391.67, -11588.59 391.83, -11687.28 392.0, -11786.68 392.17, -11886.81 392.33, -11987.66 392.5, -12089.25 392.67, -12191.57 392.83, -12294.63 393.0, -12398.43 393.17, -12502.98 393.33, -12608.28 393.5, -12714.35 393.67, -12821.17 393.83, -12928.76 394.0, -13037.13 394.17, -13146.26 394.33, -13256.18 394.5, -13366.89 394.67, -13478.38 394.83, -13590.67 395.0, -13703.75 395.17, -13817.64 395.33, -13932.34 395.5, -14047.85 395.67, -14164.18 395.83, -14281.34 396.0, -14399.32 396.17, -14518.13 396.33, -14637.78 396.5, -14758.27 396.67, -14879.61 396.83, -15001.8 397.0, -15124.85 397.17, -15248.76 397.33, -15373.53 397.5, -15499.18 397.67, -15625.71 397.83, -15753.11 398.0, -15881.41 398.17, -16010.59 398.33, -16140.68 398.5, -16271.66 398.67, -16403.55 398.83, -16536.36 399.0, -16670.08 399.17, -16804.73 399.33, -16940.3 399.5, -17076.81 399.67, -17214.25 399.83, -17352.64 400.0, -17491.98 " fill="none" stroke="white" stroke-width="1.5" stroke-linejoin="round" stroke-opacity="1"/>

 </svg>