<svg version="1.1" 
 baseProfile="full" 
 width="400" 
 height="400" 
 xmlns="http://www.w3.org/2000/svg">
<rect x="0.0" y="0.0" width="400" height="400" fill="black" stroke="black" stroke-width="0" opacity="1"/>
<line x1="0.0" y1="0.0" x2="0.0" y2="400.0" stroke="white" stroke-width="1" opacity="0.4" stroke-linecap="butt"/>
<line x1="40.0" y1="0.0" x2="40.0" y2="400.0" stroke="white" stroke-width="1" opacity="0.4" stroke-linecap="butt"/>
<line x1="80.0" y1="0.0" x2="80.0" y2="400.0" stroke="white" stroke-width="1" opacity="0.4" stroke-linecap="butt"/>
<line x1="120.0" y1="0.0" x2="120.0" y2="400.0" stroke="white" stroke-width="1" opacity="0.4" stroke-linecap="butt"/>
<line x1="160.0" y1="0.0" x2="160.0" y2="400.0" stroke="white" stroke-width="1" opacity="0.4" stroke-linecap="butt"/>
<line x1="200.0" y1="0.0" x2="200.0" y2="400.0" stroke="white" stroke-width="1" opacity="0.4" stroke-linecap="butt"/>
<line x1="240.0" y1="0.0" x2="240.0" y2="400.0" stroke="white" stroke-width="1" opacity="0.4" stroke-linecap="butt"/>
<line x1="280.0" y1="0.0" x2="280.0" y2="400.0" stroke="white" stroke-width="1" opacity="0.4" stroke-linecap="butt"/>
<line x1="320.0" y1="0.0" x2="320.0" y2="400.0" stroke="white" stroke-width="1" opacity="0.4" stroke-linecap="butt"/>
<line x1="360.0" y1="0.0" x2="360.0" y2="400.0" stroke="white" stroke-width="1" opacity="0.4" stroke-linecap="butt"/>
<line x1="0.0" y1="0.0" x2="400.0" y2="0.0" stroke="white" stroke-width="1" opacity="0.4" stroke-linecap="butt"/>
<line x1="0.0" y1="40.0" x2="400.0" y2="40.0" stroke="white" stroke-width="1" opacity="0.4" stroke-linecap="butt"/>
<line x1="0.0" y1="80.0" x2="400.0" y2="80.0" stroke="white" stroke-width="1" opacity="0.4" stroke-linecap="butt"/>
<line x1="0.0" y1="120.0" x2="400.0" y2="120.0" stroke="white" stroke-width="1" opacity="0.4" stroke-linecap="butt"/>
<line x1="0.0" y1="160.0" x2="400.0" y2="160.0" stroke="white" stroke-width="1" opacity="0.4" stroke-linecap="butt"/>
<line x1="0.0" y1="200.0" x2="400.0" y2="200.0" stroke="white" stroke-width="1" opacity="0.4" stroke-linecap="butt"/>
<line x1="0.0" y1="240.0" x2="400.0" y2="240.0" stroke="white" stroke-width="1" opacity="0.4" stroke-linecap="butt"/>
<line x1="0.0" y1="280.0" x2="400.0" y2="280.0" stroke="white" stroke-width="1" opacity="0.4" stroke-linecap="butt"/>
<line x1="0.0" y1="320.0" x2="400.0" y2="320.0" stroke="white" stroke-width="1" opacity="0.4" stroke-linecap="butt"/>
<line x1="0.0" y1="360.0" x2="400.0" y2="360.0" stroke="white" stroke-width="1" opacity="0.4" stroke-linecap="butt"/>
<line x1="0.0" y1="200.0" x2="400.0" y2="200.0" stroke="yellow" stroke-width="2.5" opacity="1" stroke-linecap="butt"/>
<line x1="200.0" y1="0.0" x2="200.0" y2="400.0" stroke="yellow" stroke-width="2.5" opacity="1" stroke-linecap="butt"/>
<polygon points="391.0 204.0, 401.0 200.0, 391.0 196.0, 393.0 200.0" fill="yellow"/><polygon points="204.0 9.0, 200.0 -1.0, 196.0 9.0, 200.0 7.0" fill="yellow"/><image x="-60.0" y="-60.0" width="200" height="200" href="/Users/girirajhira/PycharmProjects/Giraphics3/Taylor/expr.png"/><polyline points="0.0, 14134.17 0.17, 14029.13 0.33, 13924.76 0.5, 13821.05 0.67, 13718.0 0.83, 13615.6 1.0, 13513.85 1.17, 13412.76 1.33, 13312.31 1.5, 13212.5 1.67, 13113.33 1.83, 13014.79 2.0, 12916.89 2.17, 12819.62 2.33, 12722.97 2.5, 12626.95 2.67, 12531.55 2.83, 12436.77 3.0, 12342.6 3.17, 12249.04 3.33, 12156.09 3.5, 12063.75 3.67, 11972.01 3.83, 11880.86 4.0, 11790.32 4.17, 11700.36 4.33, 11611.0 4.5, 11522.22 4.67, 11434.03 4.83, 11346.42 5.0, 11259.38 5.17, 11172.92 5.33, 11087.04 5.5, 11001.72 5.67, 10916.97 5.83, 10832.78 6.0, 10749.15 6.17, 10666.08 6.33, 10583.57 6.5, 10501.61 6.67, 10420.19 6.83, 10339.32 7.0, 10259.0 7.17, 10179.22 7.33, 10099.97 7.5, 10021.26 7.67, 9943.07 7.83, 9865.42 8.0, 9788.3 8.17, 9711.69 8.33, 9635.61 8.5, 9560.05 8.67, 9485.0 8.83, 9410.46 9.0, 9336.44 9.17, 9262.92 9.33, 9189.9 9.5, 9117.38 9.67, 9045.37 9.83, 8973.85 10.0, 8902.82 10.17, 8832.28 10.33, 8762.23 10.5, 8692.67 10.67, 8623.59 10.83, 8554.98 11.0, 8486.86 11.17, 8419.21 11.33, 8352.03 11.5, 8285.32 11.67, 8219.08 11.83, 8153.3 12.0, 8087.98 12.17, 8023.12 12.33, 7958.72 12.5, 7894.77 12.67, 7831.28 12.83, 7768.23 13.0, 7705.63 13.17, 7643.47 13.33, 7581.75 13.5, 7520.47 13.67, 7459.63 13.83, 7399.22 14.0, 7339.24 14.17, 7279.69 14.33, 7220.57 14.5, 7161.87 14.67, 7103.59 14.83, 7045.73 15.0, 6988.29 15.17, 6931.26 15.33, 6874.64 15.5, 6818.43 15.67, 6762.63 15.83, 6707.24 16.0, 6652.24 16.17, 6597.65 16.33, 6543.45 16.5, 6489.65 16.67, 6436.24 16.83, 6383.22 17.0, 6330.59 17.17, 6278.35 17.33, 6226.48 17.5, 6175.0 17.67, 6123.9 17.83, 6073.18 18.0, 6022.83 18.17, 5972.85 18.33, 5923.24 18.5, 5874.0 18.67, 5825.13 18.83, 5776.62 19.0, 5728.47 19.17, 5680.68 19.33, 5633.25 19.5, 5586.17 19.67, 5539.44 19.83, 5493.06 20.0, 5447.03 20.17, 5401.35 20.33, 5356.01 20.5, 5311.02 20.67, 5266.36 20.83, 5222.04 21.0, 5178.06 21.17, 5134.41 21.33, 5091.09 21.5, 5048.1 21.67, 5005.43 21.83, 4963.1 22.0, 4921.08 22.17, 4879.39 22.33, 4838.02 22.5, 4796.96 22.67, 4756.22 22.83, 4715.79 23.0, 4675.67 23.17, 4635.86 23.33, 4596.36 23.5, 4557.16 23.67, 4518.27 23.83, 4479.68 24.0, 4441.39 24.17, 4403.4 24.33, 4365.7 24.5, 4328.29 24.67, 4291.18 24.83, 4254.36 25.0, 4217.82 25.17, 4181.57 25.33, 4145.61 25.5, 4109.93 25.67, 4074.52 25.83, 4039.4 26.0, 4004.56 26.17, 3969.99 26.33, 3935.69 26.5, 3901.67 26.67, 3867.91 26.83, 3834.42 27.0, 3801.2 27.17, 3768.25 27.33, 3735.55 27.5, 3703.12 27.67, 3670.95 27.83, 3639.03 28.0, 3607.37 28.17, 3575.97 28.33, 3544.81 28.5, 3513.91 28.67, 3483.26 28.83, 3452.85 29.0, 3422.69 29.17, 3392.77 29.33, 3363.1 29.5, 3333.67 29.67, 3304.47 29.83, 3275.52 30.0, 3246.8 30.17, 3218.31 30.33, 3190.06 30.5, 3162.03 30.67, 3134.24 30.83, 3106.68 31.0, 3079.34 31.17, 3052.22 31.33, 3025.33 31.5, 2998.66 31.67, 2972.21 31.83, 2945.98 32.0, 2919.97 32.17, 2894.17 32.33, 2868.59 32.5, 2843.22 32.67, 2818.06 32.83, 2793.11 33.0, 2768.37 33.17, 2743.83 33.33, 2719.5 33.5, 2695.38 33.67, 2671.45 33.83, 2647.73 34.0, 2624.21 34.17, 2600.88 34.33, 2577.75 34.5, 2554.82 34.67, 2532.08 34.83, 2509.53 35.0, 2487.18 35.17, 2465.01 35.33, 2443.03 35.5, 2421.24 35.67, 2399.64 35.83, 2378.22 36.0, 2356.98 36.17, 2335.92 36.33, 2315.05 36.5, 2294.35 36.67, 2273.83 36.83, 2253.49 37.0, 2233.32 37.17, 2213.33 37.33, 2193.51 37.5, 2173.86 37.67, 2154.38 37.83, 2135.07 38.0, 2115.92 38.17, 2096.94 38.33, 2078.13 38.5, 2059.48 38.67, 2041.0 38.83, 2022.67 39.0, 2004.51 39.17, 1986.5 39.33, 1968.66 39.5, 1950.97 39.67, 1933.43 39.83, 1916.05 40.0, 1898.82 40.17, 1881.74 40.33, 1864.82 40.5, 1848.04 40.67, 1831.42 40.83, 1814.94 41.0, 1798.6 41.17, 1782.42 41.33, 1766.37 41.5, 1750.47 41.67, 1734.71 41.83, 1719.09 42.0, 1703.61 42.17, 1688.27 42.33, 1673.07 42.5, 1658.0 42.67, 1643.07 42.83, 1628.28 43.0, 1613.61 43.17, 1599.08 43.33, 1584.68 43.5, 1570.41 43.67, 1556.27 43.83, 1542.26 44.0, 1528.38 44.17, 1514.62 44.33, 1500.98 44.5, 1487.48 44.67, 1474.09 44.83, 1460.83 45.0, 1447.68 45.17, 1434.66 45.33, 1421.76 45.5, 1408.98 45.67, 1396.31 45.83, 1383.76 46.0, 1371.32 46.17, 1359.0 46.33, 1346.8 46.5, 1334.71 46.67, 1322.72 46.83, 1310.85 47.0, 1299.09 47.17, 1287.44 47.33, 1275.9 47.5, 1264.47 47.67, 1253.14 47.83, 1241.92 48.0, 1230.8 48.17, 1219.79 48.33, 1208.88 48.5, 1198.07 48.67, 1187.36 48.83, 1176.76 49.0, 1166.25 49.17, 1155.84 49.33, 1145.53 49.5, 1135.32 49.67, 1125.21 49.83, 1115.19 50.0, 1105.27 50.17, 1095.44 50.33, 1085.7 50.5, 1076.06 50.67, 1066.51 50.83, 1057.05 51.0, 1047.68 51.17, 1038.39 51.33, 1029.2 51.5, 1020.1 51.67, 1011.08 51.83, 1002.15 52.0, 993.31 52.17, 984.55 52.33, 975.88 52.5, 967.29 52.67, 958.78 52.83, 950.35 53.0, 942.01 53.17, 933.75 53.33, 925.56 53.5, 917.46 53.67, 909.44 53.83, 901.49 54.0, 893.62 54.17, 885.83 54.33, 878.12 54.5, 870.48 54.67, 862.91 54.83, 855.42 55.0, 848.0 55.17, 840.66 55.33, 833.38 55.5, 826.18 55.67, 819.05 55.83, 812.0 56.0, 805.01 56.17, 798.09 56.33, 791.23 56.5, 784.45 56.67, 777.73 56.83, 771.08 57.0, 764.5 57.17, 757.98 57.33, 751.53 57.5, 745.14 57.67, 738.82 57.83, 732.55 58.0, 726.36 58.17, 720.22 58.33, 714.14 58.5, 708.13 58.67, 702.18 58.83, 696.28 59.0, 690.45 59.17, 684.67 59.33, 678.96 59.5, 673.3 59.67, 667.7 59.83, 662.15 60.0, 656.66 60.17, 651.23 60.33, 645.85 60.5, 640.53 60.67, 635.26 60.83, 630.05 61.0, 624.88 61.17, 619.78 61.33, 614.72 61.5, 609.71 61.67, 604.76 61.83, 599.86 62.0, 595.01 62.17, 590.2 62.33, 585.45 62.5, 580.75 62.67, 576.09 62.83, 571.49 63.0, 566.93 63.17, 562.42 63.33, 557.95 63.5, 553.53 63.67, 549.16 63.83, 544.83 64.0, 540.55 64.17, 536.31 64.33, 532.12 64.5, 527.97 64.67, 523.86 64.83, 519.8 65.0, 515.78 65.17, 511.8 65.33, 507.86 65.5, 503.96 65.67, 500.11 65.83, 496.3 66.0, 492.52 66.17, 488.79 66.33, 485.09 66.5, 481.44 66.67, 477.82 66.83, 474.24 67.0, 470.7 67.17, 467.2 67.33, 463.73 67.5, 460.31 67.67, 456.91 67.83, 453.56 68.0, 450.24 68.17, 446.95 68.33, 443.7 68.5, 440.49 68.67, 437.31 68.83, 434.16 69.0, 431.05 69.17, 427.97 69.33, 424.92 69.5, 421.91 69.67, 418.93 69.83, 415.98 70.0, 413.07 70.17, 410.18 70.33, 407.33 70.5, 404.51 70.67, 401.71 70.83, 398.95 71.0, 396.22 71.17, 393.52 71.33, 390.85 71.5, 388.2 71.67, 385.59 71.83, 383.0 72.0, 380.45 72.17, 377.92 72.33, 375.41 72.5, 372.94 72.67, 370.49 72.83, 368.07 73.0, 365.68 73.17, 363.31 73.33, 360.97 73.5, 358.66 73.67, 356.37 73.83, 354.1 74.0, 351.87 74.17, 349.65 74.33, 347.46 74.5, 345.3 74.67, 343.16 74.83, 341.04 75.0, 338.95 75.17, 336.88 75.33, 334.83 75.5, 332.81 75.67, 330.8 75.83, 328.83 76.0, 326.87 76.17, 324.94 76.33, 323.02 76.5, 321.13 76.67, 319.26 76.83, 317.41 77.0, 315.59 77.17, 313.78 77.33, 311.99 77.5, 310.23 77.67, 308.48 77.83, 306.75 78.0, 305.05 78.17, 303.36 78.33, 301.69 78.5, 300.05 78.67, 298.42 78.83, 296.81 79.0, 295.21 79.17, 293.64 79.33, 292.08 79.5, 290.55 79.67, 289.03 79.83, 287.52 80.0, 286.04 80.17, 284.57 80.33, 283.12 80.5, 281.69 80.67, 280.27 80.83, 278.87 81.0, 277.48 81.17, 276.12 81.33, 274.76 81.5, 273.43 81.67, 272.11 81.83, 270.8 82.0, 269.51 82.17, 268.24 82.33, 266.98 82.5, 265.74 82.67, 264.51 82.83, 263.29 83.0, 262.09 83.17, 260.91 83.33, 259.73 83.5, 258.58 83.67, 257.43 83.83, 256.3 84.0, 255.19 84.17, 254.08 84.33, 252.99 84.5, 251.92 84.67, 250.85 84.83, 249.8 85.0, 248.76 85.17, 247.74 85.33, 246.73 85.5, 245.73 85.67, 244.74 85.83, 243.76 86.0, 242.8 86.17, 241.85 86.33, 240.91 86.5, 239.98 86.67, 239.06 86.83, 238.15 87.0, 237.26 87.17, 236.38 87.33, 235.5 87.5, 234.64 87.67, 233.79 87.83, 232.95 88.0, 232.12 88.17, 231.31 88.33, 230.5 88.5, 229.7 88.67, 228.91 88.83, 228.13 89.0, 227.37 89.17, 226.61 89.33, 225.86 89.5, 225.12 89.67, 224.39 89.83, 223.68 90.0, 222.97 90.17, 222.27 90.33, 221.57 90.5, 220.89 90.67, 220.22 90.83, 219.55 91.0, 218.9 91.17, 218.25 91.33, 217.61 91.5, 216.98 91.67, 216.36 91.83, 215.75 92.0, 215.15 92.17, 214.55 92.33, 213.96 92.5, 213.38 92.67, 212.81 92.83, 212.25 93.0, 211.69 93.17, 211.14 93.33, 210.6 93.5, 210.07 93.67, 209.54 93.83, 209.02 94.0, 208.51 94.17, 208.01 94.33, 207.51 94.5, 207.02 94.67, 206.54 94.83, 206.07 95.0, 205.6 95.17, 205.14 95.33, 204.68 95.5, 204.23 95.67, 203.79 95.83, 203.36 96.0, 202.93 96.17, 202.51 96.33, 202.09 96.5, 201.68 96.67, 201.28 96.83, 200.88 97.0, 200.49 97.17, 200.11 97.33, 199.73 97.5, 199.36 97.67, 198.99 97.83, 198.63 98.0, 198.28 98.17, 197.93 98.33, 197.59 98.5, 197.25 98.67, 196.92 98.83, 196.59 99.0, 196.27 99.17, 195.95 99.33, 195.64 99.5, 195.34 99.67, 195.04 99.83, 194.74 100.0, 194.45 100.17, 194.17 100.33, 193.89 100.5, 193.62 100.67, 193.35 100.83, 193.08 101.0, 192.82 101.17, 192.57 101.33, 192.32 101.5, 192.07 101.67, 191.83 101.83, 191.6 102.0, 191.37 102.17, 191.14 102.33, 190.92 102.5, 190.7 102.67, 190.49 102.83, 190.28 103.0, 190.07 103.17, 189.87 103.33, 189.68 103.5, 189.48 103.67, 189.3 103.83, 189.11 104.0, 188.93 104.17, 188.76 104.33, 188.59 104.5, 188.42 104.67, 188.26 104.83, 188.1 105.0, 187.94 105.17, 187.79 105.33, 187.64 105.5, 187.5 105.67, 187.36 105.83, 187.22 106.0, 187.09 106.17, 186.96 106.33, 186.83 106.5, 186.71 106.67, 186.59 106.83, 186.48 107.0, 186.37 107.17, 186.26 107.33, 186.15 107.5, 186.05 107.67, 185.95 107.83, 185.86 108.0, 185.77 108.17, 185.68 108.33, 185.59 108.5, 185.51 108.67, 185.43 108.83, 185.36 109.0, 185.29 109.17, 185.22 109.33, 185.15 109.5, 185.09 109.67, 185.03 109.83, 184.97 110.0, 184.92 110.17, 184.86 110.33, 184.82 110.5, 184.77 110.67, 184.73 110.83, 184.69 111.0, 184.65 111.17, 184.62 111.33, 184.58 111.5, 184.56 111.67, 184.53 111.83, 184.51 112.0, 184.48 112.17, 184.47 112.33, 184.45 112.5, 184.44 112.67, 184.43 112.83, 184.42 113.0, 184.41 113.17, 184.41 113.33, 184.41 113.5, 184.41 113.67, 184.41 113.83, 184.42 114.0, 184.43 114.17, 184.44 114.33, 184.45 114.5, 184.47 114.67, 184.49 114.83, 184.51 115.0, 184.53 115.17, 184.55 115.33, 184.58 115.5, 184.61 115.67, 184.64 115.83, 184.67 116.0, 184.71 116.17, 184.75 116.33, 184.79 116.5, 184.83 116.67, 184.87 116.83, 184.92 117.0, 184.96 117.17, 185.01 117.33, 185.07 117.5, 185.12 117.67, 185.17 117.83, 185.23 118.0, 185.29 118.17, 185.35 118.33, 185.41 118.5, 185.48 118.67, 185.54 118.83, 185.61 119.0, 185.68 119.17, 185.75 119.33, 185.83 119.5, 185.9 119.67, 185.98 119.83, 186.06 120.0, 186.13 120.17, 186.22 120.33, 186.3 120.5, 186.38 120.67, 186.47 120.83, 186.56 121.0, 186.65 121.17, 186.74 121.33, 186.83 121.5, 186.92 121.67, 187.02 121.83, 187.12 122.0, 187.21 122.17, 187.31 122.33, 187.41 122.5, 187.52 122.67, 187.62 122.83, 187.72 123.0, 187.83 123.17, 187.94 123.33, 188.05 123.5, 188.16 123.67, 188.27 123.83, 188.38 124.0, 188.5 124.17, 188.61 124.33, 188.73 124.5, 188.85 124.67, 188.96 124.83, 189.08 125.0, 189.2 125.17, 189.33 125.33, 189.45 125.5, 189.57 125.67, 189.7 125.83, 189.83 126.0, 189.95 126.17, 190.08 126.33, 190.21 126.5, 190.34 126.67, 190.47 126.83, 190.61 127.0, 190.74 127.17, 190.87 127.33, 191.01 127.5, 191.15 127.67, 191.28 127.83, 191.42 128.0, 191.56 128.17, 191.7 128.33, 191.84 128.5, 191.98 128.67, 192.12 128.83, 192.27 129.0, 192.41 129.17, 192.55 129.33, 192.7 129.5, 192.85 129.67, 192.99 129.83, 193.14 130.0, 193.29 130.17, 193.44 130.33, 193.59 130.5, 193.73 130.67, 193.89 130.83, 194.04 131.0, 194.19 131.17, 194.34 131.33, 194.49 131.5, 194.65 131.67, 194.8 131.83, 194.96 132.0, 195.11 132.17, 195.27 132.33, 195.42 132.5, 195.58 132.67, 195.74 132.83, 195.89 133.0, 196.05 133.17, 196.21 133.33, 196.37 133.5, 196.53 133.67, 196.69 133.83, 196.85 134.0, 197.01 134.17, 197.17 134.33, 197.33 134.5, 197.49 134.67, 197.65 134.83, 197.81 135.0, 197.97 135.17, 198.13 135.33, 198.3 135.5, 198.46 135.67, 198.62 135.83, 198.78 136.0, 198.95 136.17, 199.11 136.33, 199.27 136.5, 199.44 136.67, 199.6 136.83, 199.77 137.0, 199.93 137.17, 200.09 137.33, 200.26 137.5, 200.42 137.67, 200.58 137.83, 200.75 138.0, 200.91 138.17, 201.08 138.33, 201.24 138.5, 201.41 138.67, 201.57 138.83, 201.73 139.0, 201.9 139.17, 202.06 139.33, 202.23 139.5, 202.39 139.67, 202.55 139.83, 202.72 140.0, 202.88 140.17, 203.04 140.33, 203.21 140.5, 203.37 140.67, 203.53 140.83, 203.69 141.0, 203.86 141.17, 204.02 141.33, 204.18 141.5, 204.34 141.67, 204.5 141.83, 204.66 142.0, 204.82 142.17, 204.99 142.33, 205.15 142.5, 205.3 142.67, 205.46 142.83, 205.62 143.0, 205.78 143.17, 205.94 143.33, 206.1 143.5, 206.26 143.67, 206.41 143.83, 206.57 144.0, 206.73 144.17, 206.88 144.33, 207.04 144.5, 207.19 144.67, 207.35 144.83, 207.5 145.0, 207.66 145.17, 207.81 145.33, 207.96 145.5, 208.11 145.67, 208.26 145.83, 208.42 146.0, 208.57 146.17, 208.72 146.33, 208.86 146.5, 209.01 146.67, 209.16 146.83, 209.31 147.0, 209.46 147.17, 209.6 147.33, 209.75 147.5, 209.89 147.67, 210.04 147.83, 210.18 148.0, 210.32 148.17, 210.46 148.33, 210.61 148.5, 210.75 148.67, 210.89 148.83, 211.03 149.0, 211.16 149.17, 211.3 149.33, 211.44 149.5, 211.57 149.67, 211.71 149.83, 211.84 150.0, 211.98 150.17, 212.11 150.33, 212.24 150.5, 212.37 150.67, 212.5 150.83, 212.63 151.0, 212.76 151.17, 212.89 151.33, 213.02 151.5, 213.14 151.67, 213.27 151.83, 213.39 152.0, 213.51 152.17, 213.64 152.33, 213.76 152.5, 213.88 152.67, 214.0 152.83, 214.12 153.0, 214.23 153.17, 214.35 153.33, 214.47 153.5, 214.58 153.67, 214.69 153.83, 214.81 154.0, 214.92 154.17, 215.03 154.33, 215.14 154.5, 215.25 154.67, 215.35 154.83, 215.46 155.0, 215.56 155.17, 215.67 155.33, 215.77 155.5, 215.87 155.67, 215.97 155.83, 216.07 156.0, 216.17 156.17, 216.27 156.33, 216.37 156.5, 216.46 156.67, 216.55 156.83, 216.65 157.0, 216.74 157.17, 216.83 157.33, 216.92 157.5, 217.01 157.67, 217.09 157.83, 217.18 158.0, 217.27 158.17, 217.35 158.33, 217.43 158.5, 217.51 158.67, 217.59 158.83, 217.67 159.0, 217.75 159.17, 217.82 159.33, 217.9 159.5, 217.97 159.67, 218.05 159.83, 218.12 160.0, 218.19 160.17, 218.26 160.33, 218.32 160.5, 218.39 160.67, 218.45 160.83, 218.52 161.0, 218.58 161.17, 218.64 161.33, 218.7 161.5, 218.76 161.67, 218.82 161.83, 218.87 162.0, 218.93 162.17, 218.98 162.33, 219.03 162.5, 219.08 162.67, 219.13 162.83, 219.18 163.0, 219.23 163.17, 219.27 163.33, 219.31 163.5, 219.36 163.67, 219.4 163.83, 219.44 164.0, 219.48 164.17, 219.51 164.33, 219.55 164.5, 219.58 164.67, 219.62 164.83, 219.65 165.0, 219.68 165.17, 219.71 165.33, 219.74 165.5, 219.76 165.67, 219.79 165.83, 219.81 166.0, 219.83 166.17, 219.85 166.33, 219.87 166.5, 219.89 166.67, 219.91 166.83, 219.92 167.0, 219.94 167.17, 219.95 167.33, 219.96 167.5, 219.97 167.67, 219.98 167.83, 219.99 168.0, 219.99 168.17, 220.0 168.33, 220.0 168.5, 220.0 168.67, 220.0 168.83, 220.0 169.0, 220.0 169.17, 219.99 169.33, 219.99 169.5, 219.98 169.67, 219.97 169.83, 219.96 170.0, 219.95 170.17, 219.94 170.33, 219.92 170.5, 219.91 170.67, 219.89 170.83, 219.87 171.0, 219.85 171.17, 219.83 171.33, 219.81 171.5, 219.79 171.67, 219.76 171.83, 219.74 172.0, 219.71 172.17, 219.68 172.33, 219.65 172.5, 219.62 172.67, 219.58 172.83, 219.55 173.0, 219.51 173.17, 219.48 173.33, 219.44 173.5, 219.4 173.67, 219.36 173.83, 219.32 174.0, 219.27 174.17, 219.23 174.33, 219.18 174.5, 219.13 174.67, 219.08 174.83, 219.03 175.0, 218.98 175.17, 218.93 175.33, 218.87 175.5, 218.82 175.67, 218.76 175.83, 218.7 176.0, 218.64 176.17, 218.58 176.33, 218.52 176.5, 218.45 176.67, 218.39 176.83, 218.32 177.0, 218.26 177.17, 218.19 177.33, 218.12 177.5, 218.05 177.67, 217.97 177.83, 217.9 178.0, 217.82 178.17, 217.75 178.33, 217.67 178.5, 217.59 178.67, 217.51 178.83, 217.43 179.0, 217.35 179.17, 217.26 179.33, 217.18 179.5, 217.09 179.67, 217.01 179.83, 216.92 180.0, 216.83 180.17, 216.74 180.33, 216.65 180.5, 216.55 180.67, 216.46 180.83, 216.36 181.0, 216.27 181.17, 216.17 181.33, 216.07 181.5, 215.97 181.67, 215.87 181.83, 215.77 182.0, 215.67 182.17, 215.56 182.33, 215.46 182.5, 215.35 182.67, 215.24 182.83, 215.14 183.0, 215.03 183.17, 214.92 183.33, 214.8 183.5, 214.69 183.67, 214.58 183.83, 214.46 184.0, 214.35 184.17, 214.23 184.33, 214.11 184.5, 213.99 184.67, 213.87 184.83, 213.75 185.0, 213.63 185.17, 213.51 185.33, 213.39 185.5, 213.26 185.67, 213.14 185.83, 213.01 186.0, 212.88 186.17, 212.76 186.33, 212.63 186.5, 212.5 186.67, 212.37 186.83, 212.24 187.0, 212.1 187.17, 211.97 187.33, 211.84 187.5, 211.7 187.67, 211.57 187.83, 211.43 188.0, 211.29 188.17, 211.15 188.33, 211.02 188.5, 210.88 188.67, 210.74 188.83, 210.6 189.0, 210.45 189.17, 210.31 189.33, 210.17 189.5, 210.02 189.67, 209.88 189.83, 209.73 190.0, 209.59 190.17, 209.44 190.33, 209.29 190.5, 209.15 190.67, 209.0 190.83, 208.85 191.0, 208.7 191.17, 208.55 191.33, 208.4 191.5, 208.25 191.67, 208.09 191.83, 207.94 192.0, 207.79 192.17, 207.63 192.33, 207.48 192.5, 207.33 192.67, 207.17 192.83, 207.01 193.0, 206.86 193.17, 206.7 193.33, 206.54 193.5, 206.39 193.67, 206.23 193.83, 206.07 194.0, 205.91 194.17, 205.75 194.33, 205.59 194.5, 205.43 194.67, 205.27 194.83, 205.11 195.0, 204.95 195.17, 204.79 195.33, 204.62 195.5, 204.46 195.67, 204.3 195.83, 204.14 196.0, 203.97 196.17, 203.81 196.33, 203.65 196.5, 203.48 196.67, 203.32 196.83, 203.15 197.0, 202.99 197.17, 202.82 197.33, 202.66 197.5, 202.49 197.67, 202.33 197.83, 202.16 198.0, 202.0 198.17, 201.83 198.33, 201.66 198.5, 201.5 198.67, 201.33 198.83, 201.17 199.0, 201.0 199.17, 200.83 199.33, 200.67 199.5, 200.5 199.67, 200.33 199.83, 200.17 200.0, 200.0 200.17, 199.83 200.33, 199.67 200.5, 199.5 200.67, 199.33 200.83, 199.17 201.0, 199.0 201.17, 198.83 201.33, 198.67 201.5, 198.5 201.67, 198.34 201.83, 198.17 202.0, 198.0 202.17, 197.84 202.33, 197.67 202.5, 197.51 202.67, 197.34 202.83, 197.18 203.0, 197.01 203.17, 196.85 203.33, 196.68 203.5, 196.52 203.67, 196.35 203.83, 196.19 204.0, 196.03 204.17, 195.86 204.33, 195.7 204.5, 195.54 204.67, 195.38 204.83, 195.21 205.0, 195.05 205.17, 194.89 205.33, 194.73 205.5, 194.57 205.67, 194.41 205.83, 194.25 206.0, 194.09 206.17, 193.93 206.33, 193.77 206.5, 193.61 206.67, 193.46 206.83, 193.3 207.0, 193.14 207.17, 192.99 207.33, 192.83 207.5, 192.67 207.67, 192.52 207.83, 192.37 208.0, 192.21 208.17, 192.06 208.33, 191.91 208.5, 191.75 208.67, 191.6 208.83, 191.45 209.0, 191.3 209.17, 191.15 209.33, 191.0 209.5, 190.85 209.67, 190.71 209.83, 190.56 210.0, 190.41 210.17, 190.27 210.33, 190.12 210.5, 189.98 210.67, 189.83 210.83, 189.69 211.0, 189.55 211.17, 189.4 211.33, 189.26 211.5, 189.12 211.67, 188.98 211.83, 188.85 212.0, 188.71 212.17, 188.57 212.33, 188.43 212.5, 188.3 212.67, 188.16 212.83, 188.03 213.0, 187.9 213.17, 187.76 213.33, 187.63 213.5, 187.5 213.67, 187.37 213.83, 187.24 214.0, 187.12 214.17, 186.99 214.33, 186.86 214.5, 186.74 214.67, 186.61 214.83, 186.49 215.0, 186.37 215.17, 186.25 215.33, 186.13 215.5, 186.01 215.67, 185.89 215.83, 185.77 216.0, 185.65 216.17, 185.54 216.33, 185.42 216.5, 185.31 216.67, 185.2 216.83, 185.08 217.0, 184.97 217.17, 184.86 217.33, 184.76 217.5, 184.65 217.67, 184.54 217.83, 184.44 218.0, 184.33 218.17, 184.23 218.33, 184.13 218.5, 184.03 218.67, 183.93 218.83, 183.83 219.0, 183.73 219.17, 183.64 219.33, 183.54 219.5, 183.45 219.67, 183.35 219.83, 183.26 220.0, 183.17 220.17, 183.08 220.33, 182.99 220.5, 182.91 220.67, 182.82 220.83, 182.74 221.0, 182.65 221.17, 182.57 221.33, 182.49 221.5, 182.41 221.67, 182.33 221.83, 182.25 222.0, 182.18 222.17, 182.1 222.33, 182.03 222.5, 181.95 222.67, 181.88 222.83, 181.81 223.0, 181.74 223.17, 181.68 223.33, 181.61 223.5, 181.55 223.67, 181.48 223.83, 181.42 224.0, 181.36 224.17, 181.3 224.33, 181.24 224.5, 181.18 224.67, 181.13 224.83, 181.07 225.0, 181.02 225.17, 180.97 225.33, 180.92 225.5, 180.87 225.67, 180.82 225.83, 180.77 226.0, 180.73 226.17, 180.68 226.33, 180.64 226.5, 180.6 226.67, 180.56 226.83, 180.52 227.0, 180.49 227.17, 180.45 227.33, 180.42 227.5, 180.38 227.67, 180.35 227.83, 180.32 228.0, 180.29 228.17, 180.26 228.33, 180.24 228.5, 180.21 228.67, 180.19 228.83, 180.17 229.0, 180.15 229.17, 180.13 229.33, 180.11 229.5, 180.09 229.67, 180.08 229.83, 180.06 230.0, 180.05 230.17, 180.04 230.33, 180.03 230.5, 180.02 230.67, 180.01 230.83, 180.01 231.0, 180.0 231.17, 180.0 231.33, 180.0 231.5, 180.0 231.67, 180.0 231.83, 180.0 232.0, 180.01 232.17, 180.01 232.33, 180.02 232.5, 180.03 232.67, 180.04 232.83, 180.05 233.0, 180.06 233.17, 180.08 233.33, 180.09 233.5, 180.11 233.67, 180.13 233.83, 180.15 234.0, 180.17 234.17, 180.19 234.33, 180.21 234.5, 180.24 234.67, 180.26 234.83, 180.29 235.0, 180.32 235.17, 180.35 235.33, 180.38 235.5, 180.42 235.67, 180.45 235.83, 180.49 236.0, 180.52 236.17, 180.56 236.33, 180.6 236.5, 180.64 236.67, 180.69 236.83, 180.73 237.0, 180.77 237.17, 180.82 237.33, 180.87 237.5, 180.92 237.67, 180.97 237.83, 181.02 238.0, 181.07 238.17, 181.13 238.33, 181.18 238.5, 181.24 238.67, 181.3 238.83, 181.36 239.0, 181.42 239.17, 181.48 239.33, 181.55 239.5, 181.61 239.67, 181.68 239.83, 181.74 240.0, 181.81 240.17, 181.88 240.33, 181.95 240.5, 182.03 240.67, 182.1 240.83, 182.18 241.0, 182.25 241.17, 182.33 241.33, 182.41 241.5, 182.49 241.67, 182.57 241.83, 182.65 242.0, 182.73 242.17, 182.82 242.33, 182.91 242.5, 182.99 242.67, 183.08 242.83, 183.17 243.0, 183.26 243.17, 183.35 243.33, 183.45 243.5, 183.54 243.67, 183.63 243.83, 183.73 244.0, 183.83 244.17, 183.93 244.33, 184.03 244.5, 184.13 244.67, 184.23 244.83, 184.33 245.0, 184.44 245.17, 184.54 245.33, 184.65 245.5, 184.75 245.67, 184.86 245.83, 184.97 246.0, 185.08 246.17, 185.19 246.33, 185.31 246.5, 185.42 246.67, 185.53 246.83, 185.65 247.0, 185.77 247.17, 185.88 247.33, 186.0 247.5, 186.12 247.67, 186.24 247.83, 186.36 248.0, 186.49 248.17, 186.61 248.33, 186.73 248.5, 186.86 248.67, 186.98 248.83, 187.11 249.0, 187.24 249.17, 187.37 249.33, 187.5 249.5, 187.63 249.67, 187.76 249.83, 187.89 250.0, 188.02 250.17, 188.16 250.33, 188.29 250.5, 188.43 250.67, 188.56 250.83, 188.7 251.0, 188.84 251.17, 188.97 251.33, 189.11 251.5, 189.25 251.67, 189.39 251.83, 189.54 252.0, 189.68 252.17, 189.82 252.33, 189.96 252.5, 190.11 252.67, 190.25 252.83, 190.4 253.0, 190.54 253.17, 190.69 253.33, 190.84 253.5, 190.99 253.67, 191.14 253.83, 191.28 254.0, 191.43 254.17, 191.58 254.33, 191.74 254.5, 191.89 254.67, 192.04 254.83, 192.19 255.0, 192.34 255.17, 192.5 255.33, 192.65 255.5, 192.81 255.67, 192.96 255.83, 193.12 256.0, 193.27 256.17, 193.43 256.33, 193.59 256.5, 193.74 256.67, 193.9 256.83, 194.06 257.0, 194.22 257.17, 194.38 257.33, 194.54 257.5, 194.7 257.67, 194.85 257.83, 195.01 258.0, 195.18 258.17, 195.34 258.33, 195.5 258.5, 195.66 258.67, 195.82 258.83, 195.98 259.0, 196.14 259.17, 196.31 259.33, 196.47 259.5, 196.63 259.67, 196.79 259.83, 196.96 260.0, 197.12 260.17, 197.28 260.33, 197.45 260.5, 197.61 260.67, 197.77 260.83, 197.94 261.0, 198.1 261.17, 198.27 261.33, 198.43 261.5, 198.59 261.67, 198.76 261.83, 198.92 262.0, 199.09 262.17, 199.25 262.33, 199.42 262.5, 199.58 262.67, 199.74 262.83, 199.91 263.0, 200.07 263.17, 200.23 263.33, 200.4 263.5, 200.56 263.67, 200.73 263.83, 200.89 264.0, 201.05 264.17, 201.22 264.33, 201.38 264.5, 201.54 264.67, 201.7 264.83, 201.87 265.0, 202.03 265.17, 202.19 265.33, 202.35 265.5, 202.51 265.67, 202.67 265.83, 202.83 266.0, 202.99 266.17, 203.15 266.33, 203.31 266.5, 203.47 266.67, 203.63 266.83, 203.79 267.0, 203.95 267.17, 204.11 267.33, 204.26 267.5, 204.42 267.67, 204.58 267.83, 204.73 268.0, 204.89 268.17, 205.04 268.33, 205.2 268.5, 205.35 268.67, 205.51 268.83, 205.66 269.0, 205.81 269.17, 205.96 269.33, 206.11 269.5, 206.27 269.67, 206.41 269.83, 206.56 270.0, 206.71 270.17, 206.86 270.33, 207.01 270.5, 207.15 270.67, 207.3 270.83, 207.45 271.0, 207.59 271.17, 207.73 271.33, 207.88 271.5, 208.02 271.67, 208.16 271.83, 208.3 272.0, 208.44 272.17, 208.58 272.33, 208.72 272.5, 208.85 272.67, 208.99 272.83, 209.13 273.0, 209.26 273.17, 209.39 273.33, 209.53 273.5, 209.66 273.67, 209.79 273.83, 209.92 274.0, 210.05 274.17, 210.17 274.33, 210.3 274.5, 210.43 274.67, 210.55 274.83, 210.67 275.0, 210.8 275.17, 210.92 275.33, 211.04 275.5, 211.15 275.67, 211.27 275.83, 211.39 276.0, 211.5 276.17, 211.62 276.33, 211.73 276.5, 211.84 276.67, 211.95 276.83, 212.06 277.0, 212.17 277.17, 212.28 277.33, 212.38 277.5, 212.48 277.67, 212.59 277.83, 212.69 278.0, 212.79 278.17, 212.88 278.33, 212.98 278.5, 213.08 278.67, 213.17 278.83, 213.26 279.0, 213.35 279.17, 213.44 279.33, 213.53 279.5, 213.62 279.67, 213.7 279.83, 213.78 280.0, 213.87 280.17, 213.94 280.33, 214.02 280.5, 214.1 280.67, 214.17 280.83, 214.25 281.0, 214.32 281.17, 214.39 281.33, 214.46 281.5, 214.52 281.67, 214.59 281.83, 214.65 282.0, 214.71 282.17, 214.77 282.33, 214.83 282.5, 214.88 282.67, 214.93 282.83, 214.99 283.0, 215.04 283.17, 215.08 283.33, 215.13 283.5, 215.17 283.67, 215.21 283.83, 215.25 284.0, 215.29 284.17, 215.33 284.33, 215.36 284.5, 215.39 284.67, 215.42 284.83, 215.45 285.0, 215.47 285.17, 215.49 285.33, 215.51 285.5, 215.53 285.67, 215.55 285.83, 215.56 286.0, 215.57 286.17, 215.58 286.33, 215.59 286.5, 215.59 286.67, 215.59 286.83, 215.59 287.0, 215.59 287.17, 215.58 287.33, 215.57 287.5, 215.56 287.67, 215.55 287.83, 215.53 288.0, 215.52 288.17, 215.49 288.33, 215.47 288.5, 215.44 288.67, 215.42 288.83, 215.38 289.0, 215.35 289.17, 215.31 289.33, 215.27 289.5, 215.23 289.67, 215.18 289.83, 215.14 290.0, 215.08 290.17, 215.03 290.33, 214.97 290.5, 214.91 290.67, 214.85 290.83, 214.78 291.0, 214.71 291.17, 214.64 291.33, 214.57 291.5, 214.49 291.67, 214.41 291.83, 214.32 292.0, 214.23 292.17, 214.14 292.33, 214.05 292.5, 213.95 292.67, 213.85 292.83, 213.74 293.0, 213.63 293.17, 213.52 293.33, 213.41 293.5, 213.29 293.67, 213.17 293.83, 213.04 294.0, 212.91 294.17, 212.78 294.33, 212.64 294.5, 212.5 294.67, 212.36 294.83, 212.21 295.0, 212.06 295.17, 211.9 295.33, 211.74 295.5, 211.58 295.67, 211.41 295.83, 211.24 296.0, 211.07 296.17, 210.89 296.33, 210.7 296.5, 210.52 296.67, 210.32 296.83, 210.13 297.0, 209.93 297.17, 209.72 297.33, 209.51 297.5, 209.3 297.67, 209.08 297.83, 208.86 298.0, 208.63 298.17, 208.4 298.33, 208.17 298.5, 207.93 298.67, 207.68 298.83, 207.43 299.0, 207.18 299.17, 206.92 299.33, 206.65 299.5, 206.38 299.67, 206.11 299.83, 205.83 300.0, 205.55 300.17, 205.26 300.33, 204.96 300.5, 204.66 300.67, 204.36 300.83, 204.05 301.0, 203.73 301.17, 203.41 301.33, 203.08 301.5, 202.75 301.67, 202.41 301.83, 202.07 302.0, 201.72 302.17, 201.37 302.33, 201.01 302.5, 200.64 302.67, 200.27 302.83, 199.89 303.0, 199.51 303.17, 199.12 303.33, 198.72 303.5, 198.32 303.67, 197.91 303.83, 197.49 304.0, 197.07 304.17, 196.64 304.33, 196.21 304.5, 195.77 304.67, 195.32 304.83, 194.86 305.0, 194.4 305.17, 193.93 305.33, 193.46 305.5, 192.98 305.67, 192.49 305.83, 191.99 306.0, 191.49 306.17, 190.98 306.33, 190.46 306.5, 189.93 306.67, 189.4 306.83, 188.86 307.0, 188.31 307.17, 187.75 307.33, 187.19 307.5, 186.62 307.67, 186.04 307.83, 185.45 308.0, 184.85 308.17, 184.25 308.33, 183.64 308.5, 183.02 308.67, 182.39 308.83, 181.75 309.0, 181.1 309.17, 180.45 309.33, 179.78 309.5, 179.11 309.67, 178.43 309.83, 177.73 310.0, 177.03 310.17, 176.32 310.33, 175.61 310.5, 174.88 310.67, 174.14 310.83, 173.39 311.0, 172.63 311.17, 171.87 311.33, 171.09 311.5, 170.3 311.67, 169.5 311.83, 168.69 312.0, 167.88 312.17, 167.05 312.33, 166.21 312.5, 165.36 312.67, 164.5 312.83, 163.62 313.0, 162.74 313.17, 161.85 313.33, 160.94 313.5, 160.02 313.67, 159.09 313.83, 158.15 314.0, 157.2 314.17, 156.24 314.33, 155.26 314.5, 154.27 314.67, 153.27 314.83, 152.26 315.0, 151.24 315.17, 150.2 315.33, 149.15 315.5, 148.08 315.67, 147.01 315.83, 145.92 316.0, 144.81 316.17, 143.7 316.33, 142.57 316.5, 141.42 316.67, 140.27 316.83, 139.09 317.0, 137.91 317.17, 136.71 317.33, 135.49 317.5, 134.26 317.67, 133.02 317.83, 131.76 318.0, 130.49 318.17, 129.2 318.33, 127.89 318.5, 126.57 318.67, 125.24 318.83, 123.88 319.0, 122.52 319.17, 121.13 319.33, 119.73 319.5, 118.31 319.67, 116.88 319.83, 115.43 320.0, 113.96 320.17, 112.48 320.33, 110.97 320.5, 109.45 320.67, 107.92 320.83, 106.36 321.0, 104.79 321.17, 103.19 321.33, 101.58 321.5, 99.95 321.67, 98.31 321.83, 96.64 322.0, 94.95 322.17, 93.25 322.33, 91.52 322.5, 89.77 322.67, 88.01 322.83, 86.22 323.0, 84.41 323.17, 82.59 323.33, 80.74 323.5, 78.87 323.67, 76.98 323.83, 75.06 324.0, 73.13 324.17, 71.17 324.33, 69.2 324.5, 67.19 324.67, 65.17 324.83, 63.12 325.0, 61.05 325.17, 58.96 325.33, 56.84 325.5, 54.7 325.67, 52.54 325.83, 50.35 326.0, 48.13 326.17, 45.9 326.33, 43.63 326.5, 41.34 326.67, 39.03 326.83, 36.69 327.0, 34.32 327.17, 31.93 327.33, 29.51 327.5, 27.06 327.67, 24.59 327.83, 22.08 328.0, 19.55 328.17, 17.0 328.33, 14.41 328.5, 11.8 328.67, 9.15 328.83, 6.48 329.0, 3.78 329.17, 1.05 329.33, -1.71 329.5, -4.51 329.67, -7.33 329.83, -10.18 330.0, -13.07 330.17, -15.98 330.33, -18.93 330.5, -21.91 330.67, -24.92 330.83, -27.97 331.0, -31.05 331.17, -34.16 331.33, -37.31 331.5, -40.49 331.67, -43.7 331.83, -46.95 332.0, -50.24 332.17, -53.56 332.33, -56.91 332.5, -60.31 332.67, -63.73 332.83, -67.2 333.0, -70.7 333.17, -74.24 333.33, -77.82 333.5, -81.44 333.67, -85.09 333.83, -88.79 334.0, -92.52 334.17, -96.3 334.33, -100.11 334.5, -103.96 334.67, -107.86 334.83, -111.8 335.0, -115.78 335.17, -119.8 335.33, -123.86 335.5, -127.97 335.67, -132.12 335.83, -136.31 336.0, -140.55 336.17, -144.83 336.33, -149.16 336.5, -153.53 336.67, -157.95 336.83, -162.42 337.0, -166.93 337.17, -171.49 337.33, -176.09 337.5, -180.75 337.67, -185.45 337.83, -190.2 338.0, -195.01 338.17, -199.86 338.33, -204.76 338.5, -209.71 338.67, -214.72 338.83, -219.78 339.0, -224.88 339.17, -230.05 339.33, -235.26 339.5, -240.53 339.67, -245.85 339.83, -251.23 340.0, -256.66 340.17, -262.15 340.33, -267.7 340.5, -273.3 340.67, -278.96 340.83, -284.67 341.0, -290.45 341.17, -296.28 341.33, -302.18 341.5, -308.13 341.67, -314.14 341.83, -320.22 342.0, -326.36 342.17, -332.55 342.33, -338.82 342.5, -345.14 342.67, -351.53 342.83, -357.98 343.0, -364.5 343.17, -371.08 343.33, -377.73 343.5, -384.45 343.67, -391.23 343.83, -398.09 344.0, -405.01 344.17, -412.0 344.33, -419.05 344.5, -426.18 344.67, -433.38 344.83, -440.66 345.0, -448.0 345.17, -455.42 345.33, -462.91 345.5, -470.48 345.67, -478.12 345.83, -485.83 346.0, -493.62 346.17, -501.49 346.33, -509.44 346.5, -517.46 346.67, -525.56 346.83, -533.75 347.0, -542.01 347.17, -550.35 347.33, -558.78 347.5, -567.29 347.67, -575.88 347.83, -584.55 348.0, -593.31 348.17, -602.15 348.33, -611.08 348.5, -620.1 348.67, -629.2 348.83, -638.39 349.0, -647.68 349.17, -657.05 349.33, -666.51 349.5, -676.06 349.67, -685.7 349.83, -695.44 350.0, -705.27 350.17, -715.19 350.33, -725.21 350.5, -735.32 350.67, -745.53 350.83, -755.84 351.0, -766.25 351.17, -776.76 351.33, -787.36 351.5, -798.07 351.67, -808.88 351.83, -819.79 352.0, -830.8 352.17, -841.92 352.33, -853.14 352.5, -864.47 352.67, -875.9 352.83, -887.44 353.0, -899.09 353.17, -910.85 353.33, -922.72 353.5, -934.71 353.67, -946.8 353.83, -959.0 354.0, -971.32 354.17, -983.76 354.33, -996.31 354.5, -1008.98 354.67, -1021.76 354.83, -1034.66 355.0, -1047.68 355.17, -1060.83 355.33, -1074.09 355.5, -1087.48 355.67, -1100.98 355.83, -1114.62 356.0, -1128.38 356.17, -1142.26 356.33, -1156.27 356.5, -1170.41 356.67, -1184.68 356.83, -1199.08 357.0, -1213.61 357.17, -1228.28 357.33, -1243.07 357.5, -1258.0 357.67, -1273.07 357.83, -1288.27 358.0, -1303.61 358.17, -1319.09 358.33, -1334.71 358.5, -1350.47 358.67, -1366.37 358.83, -1382.42 359.0, -1398.6 359.17, -1414.94 359.33, -1431.42 359.5, -1448.04 359.67, -1464.82 359.83, -1481.74 360.0, -1498.82 360.17, -1516.05 360.33, -1533.43 360.5, -1550.97 360.67, -1568.66 360.83, -1586.5 361.0, -1604.51 361.17, -1622.67 361.33, -1641.0 361.5, -1659.48 361.67, -1678.13 361.83, -1696.94 362.0, -1715.92 362.17, -1735.07 362.33, -1754.38 362.5, -1773.86 362.67, -1793.51 362.83, -1813.33 363.0, -1833.32 363.17, -1853.49 363.33, -1873.83 363.5, -1894.35 363.67, -1915.05 363.83, -1935.92 364.0, -1956.98 364.17, -1978.22 364.33, -1999.64 364.5, -2021.24 364.67, -2043.03 364.83, -2065.01 365.0, -2087.18 365.17, -2109.53 365.33, -2132.08 365.5, -2154.82 365.67, -2177.75 365.83, -2200.88 366.0, -2224.21 366.17, -2247.73 366.33, -2271.45 366.5, -2295.38 366.67, -2319.5 366.83, -2343.83 367.0, -2368.37 367.17, -2393.11 367.33, -2418.06 367.5, -2443.22 367.67, -2468.59 367.83, -2494.17 368.0, -2519.97 368.17, -2545.98 368.33, -2572.21 368.5, -2598.66 368.67, -2625.33 368.83, -2652.22 369.0, -2679.34 369.17, -2706.68 369.33, -2734.24 369.5, -2762.03 369.67, -2790.06 369.83, -2818.31 370.0, -2846.8 370.17, -2875.52 370.33, -2904.47 370.5, -2933.67 370.67, -2963.1 370.83, -2992.77 371.0, -3022.69 371.17, -3052.85 371.33, -3083.26 371.5, -3113.91 371.67, -3144.81 371.83, -3175.97 372.0, -3207.37 372.17, -3239.03 372.33, -3270.95 372.5, -3303.12 372.67, -3335.55 372.83, -3368.25 373.0, -3401.2 373.17, -3434.42 373.33, -3467.91 373.5, -3501.67 373.67, -3535.69 373.83, -3569.99 374.0, -3604.56 374.17, -3639.4 374.33, -3674.52 374.5, -3709.93 374.67, -3745.61 374.83, -3781.57 375.0, -3817.82 375.17, -3854.36 375.33, -3891.18 375.5, -3928.29 375.67, -3965.7 375.83, -4003.4 376.0, -4041.39 376.17, -4079.68 376.33, -4118.27 376.5, -4157.16 376.67, -4196.36 376.83, -4235.86 377.0, -4275.67 377.17, -4315.79 377.33, -4356.22 377.5, -4396.96 377.67, -4438.02 377.83, -4479.39 378.0, -4521.08 378.17, -4563.1 378.33, -4605.43 378.5, -4648.1 378.67, -4691.09 378.83, -4734.41 379.0, -4778.06 379.17, -4822.04 379.33, -4866.36 379.5, -4911.02 379.67, -4956.01 379.83, -5001.35 380.0, -5047.03 380.17, -5093.06 380.33, -5139.44 380.5, -5186.17 380.67, -5233.25 380.83, -5280.68 381.0, -5328.47 381.17, -5376.62 381.33, -5425.13 381.5, -5474.0 381.67, -5523.24 381.83, -5572.85 382.0, -5622.83 382.17, -5673.18 382.33, -5723.9 382.5, -5775.0 382.67, -5826.48 382.83, -5878.35 383.0, -5930.59 383.17, -5983.22 383.33, -6036.24 383.5, -6089.65 383.67, -6143.45 383.83, -6197.65 384.0, -6252.24 384.17, -6307.24 384.33, -6362.63 384.5, -6418.43 384.67, -6474.64 384.83, -6531.26 385.0, -6588.29 385.17, -6645.73 385.33, -6703.59 385.5, -6761.87 385.67, -6820.57 385.83, -6879.69 386.0, -6939.24 386.17, -6999.22 386.33, -7059.63 386.5, -7120.47 386.67, -7181.75 386.83, -7243.47 387.0, -7305.63 387.17, -7368.23 387.33, -7431.28 387.5, -7494.77 387.67, -7558.72 387.83, -7623.12 388.0, -7687.98 388.17, -7753.3 388.33, -7819.08 388.5, -7885.32 388.67, -7952.03 388.83, -8019.21 389.0, -8086.86 389.17, -8154.98 389.33, -8223.59 389.5, -8292.67 389.67, -8362.23 389.83, -8432.28 390.0, -8502.82 390.17, -8573.85 390.33, -8645.37 390.5, -8717.38 390.67, -8789.9 390.83, -8862.92 391.0, -8936.44 391.17, -9010.46 391.33, -9085.0 391.5, -9160.05 391.67, -9235.61 391.83, -9311.69 392.0, -9388.3 392.17, -9465.42 392.33, -9543.07 392.5, -9621.26 392.67, -9699.97 392.83, -9779.22 393.0, -9859.0 393.17, -9939.32 393.33, -10020.19 393.5, -10101.61 393.67, -10183.57 393.83, -10266.08 394.0, -10349.15 394.17, -10432.78 394.33, -10516.97 394.5, -10601.72 394.67, -10687.04 394.83, -10772.92 395.0, -10859.38 395.17, -10946.42 395.33, -11034.03 395.5, -11122.22 395.67, -11211.0 395.83, -11300.36 396.0, -11390.32 396.17, -11480.86 396.33, -11572.01 396.5, -11663.75 396.67, -11756.09 396.83, -11849.04 397.0, -11942.6 397.17, -12036.77 397.33, -12131.55 397.5, -12226.95 397.67, -12322.97 397.83, -12419.62 398.0, -12516.89 398.17, -12614.79 398.33, -12713.33 398.5, -12812.5 398.67, -12912.31 398.83, -13012.76 399.0, -13113.85 399.17, -13215.6 399.33, -13318.0 399.5, -13421.05 399.67, -13524.76 399.83, -13629.13 400.0, -13734.17 " fill="none" stroke="white" stroke-width="1.5" stroke-linejoin="round" stroke-opacity="1"/>

 </svg>