<svg version="1.1" 
 baseProfile="full" 
 width="400" 
 height="400" 
 xmlns="http://www.w3.org/2000/svg">
<rect x="0.0" y="0.0" width="400" height="400" fill="black" stroke="black" stroke-width="0" opacity="1"/>
<line x1="0.0" y1="0.0" x2="0.0" y2="400.0" stroke="white" stroke-width="1" opacity="0.4" stroke-linecap="butt"/>
<line x1="40.0" y1="0.0" x2="40.0" y2="400.0" stroke="white" stroke-width="1" opacity="0.4" stroke-linecap="butt"/>
<line x1="80.0" y1="0.0" x2="80.0" y2="400.0" stroke="white" stroke-width="1" opacity="0.4" stroke-linecap="butt"/>
<line x1="120.0" y1="0.0" x2="120.0" y2="400.0" stroke="white" stroke-width="1" opacity="0.4" stroke-linecap="butt"/>
<line x1="160.0" y1="0.0" x2="160.0" y2="400.0" stroke="white" stroke-width="1" opacity="0.4" stroke-linecap="butt"/>
<line x1="200.0" y1="0.0" x2="200.0" y2="400.0" stroke="white" stroke-width="1" opacity="0.4" stroke-linecap="butt"/>
<line x1="240.0" y1="0.0" x2="240.0" y2="400.0" stroke="white" stroke-width="1" opacity="0.4" stroke-linecap="butt"/>
<line x1="280.0" y1="0.0" x2="280.0" y2="400.0" stroke="white" stroke-width="1" opacity="0.4" stroke-linecap="butt"/>
<line x1="320.0" y1="0.0" x2="320.0" y2="400.0" stroke="white" stroke-width="1" opacity="0.4" stroke-linecap="butt"/>
<line x1="360.0" y1="0.0" x2="360.0" y2="400.0" stroke="white" stroke-width="1" opacity="0.4" stroke-linecap="butt"/>
<line x1="0.0" y1="0.0" x2="400.0" y2="0.0" stroke="white" stroke-width="1" opacity="0.4" stroke-linecap="butt"/>
<line x1="0.0" y1="40.0" x2="400.0" y2="40.0" stroke="white" stroke-width="1" opacity="0.4" stroke-linecap="butt"/>
<line x1="0.0" y1="80.0" x2="400.0" y2="80.0" stroke="white" stroke-width="1" opacity="0.4" stroke-linecap="butt"/>
<line x1="0.0" y1="120.0" x2="400.0" y2="120.0" stroke="white" stroke-width="1" opacity="0.4" stroke-linecap="butt"/>
<line x1="0.0" y1="160.0" x2="400.0" y2="160.0" stroke="white" stroke-width="1" opacity="0.4" stroke-linecap="butt"/>
<line x1="0.0" y1="200.0" x2="400.0" y2="200.0" stroke="white" stroke-width="1" opacity="0.4" stroke-linecap="butt"/>
<line x1="0.0" y1="240.0" x2="400.0" y2="240.0" stroke="white" stroke-width="1" opacity="0.4" stroke-linecap="butt"/>
<line x1="0.0" y1="280.0" x2="400.0" y2="280.0" stroke="white" stroke-width="1" opacity="0.4" stroke-linecap="butt"/>
<line x1="0.0" y1="320.0" x2="400.0" y2="320.0" stroke="white" stroke-width="1" opacity="0.4" stroke-linecap="butt"/>
<line x1="0.0" y1="360.0" x2="400.0" y2="360.0" stroke="white" stroke-width="1" opacity="0.4" stroke-linecap="butt"/>
<line x1="0.0" y1="200.0" x2="400.0" y2="200.0" stroke="yellow" stroke-width="2.5" opacity="1" stroke-linecap="butt"/>
<line x1="200.0" y1="0.0" x2="200.0" y2="400.0" stroke="yellow" stroke-width="2.5" opacity="1" stroke-linecap="butt"/>
<polygon points="391.0 204.0, 401.0 200.0, 391.0 196.0, 393.0 200.0" fill="yellow"/><polygon points="204.0 9.0, 200.0 -1.0, 196.0 9.0, 200.0 7.0" fill="yellow"/><image x="-60.0" y="-60.0" width="200" height="200" href="/Users/girirajhira/PycharmProjects/Giraphics3/Taylor/expr.png"/><polyline points="0.0, 16639.38 0.17, 16511.47 0.33, 16384.42 0.5, 16258.22 0.67, 16132.87 0.83, 16008.35 1.0, 15884.67 1.17, 15761.82 1.33, 15639.8 1.5, 15518.61 1.67, 15398.23 1.83, 15278.66 2.0, 15159.9 2.17, 15041.95 2.33, 14924.8 2.5, 14808.44 2.67, 14692.87 2.83, 14578.09 3.0, 14464.1 3.17, 14350.88 3.33, 14238.44 3.5, 14126.76 3.67, 14015.85 3.83, 13905.71 4.0, 13796.32 4.17, 13687.68 4.33, 13579.79 4.5, 13472.64 4.67, 13366.24 4.83, 13260.57 5.0, 13155.63 5.17, 13051.42 5.33, 12947.93 5.5, 12845.16 5.67, 12743.11 5.83, 12641.77 6.0, 12541.13 6.17, 12441.2 6.33, 12341.97 6.5, 12243.43 6.67, 12145.59 6.83, 12048.43 7.0, 11951.95 7.17, 11856.16 7.33, 11761.03 7.5, 11666.58 7.67, 11572.8 7.83, 11479.68 8.0, 11387.22 8.17, 11295.42 8.33, 11204.27 8.5, 11113.76 8.67, 11023.9 8.83, 10934.68 9.0, 10846.1 9.17, 10758.16 9.33, 10670.84 9.5, 10584.14 9.67, 10498.07 9.83, 10412.62 10.0, 10327.78 10.17, 10243.56 10.33, 10159.94 10.5, 10076.92 10.67, 9994.51 10.83, 9912.69 11.0, 9831.46 11.17, 9750.83 11.33, 9670.78 11.5, 9591.31 11.67, 9512.42 11.83, 9434.11 12.0, 9356.37 12.17, 9279.19 12.33, 9202.59 12.5, 9126.54 12.67, 9051.05 12.83, 8976.12 13.0, 8901.74 13.17, 8827.9 13.33, 8754.62 13.5, 8681.87 13.67, 8609.66 13.83, 8537.99 14.0, 8466.84 14.17, 8396.23 14.33, 8326.14 14.5, 8256.57 14.67, 8187.53 14.83, 8118.99 15.0, 8050.97 15.17, 7983.46 15.33, 7916.45 15.5, 7849.95 15.67, 7783.94 15.83, 7718.43 16.0, 7653.42 16.17, 7588.89 16.33, 7524.86 16.5, 7461.3 16.67, 7398.23 16.83, 7335.63 17.0, 7273.51 17.17, 7211.87 17.33, 7150.69 17.5, 7089.97 17.67, 7029.72 17.83, 6969.93 18.0, 6910.6 18.17, 6851.72 18.33, 6793.29 18.5, 6735.31 18.67, 6677.78 18.83, 6620.68 19.0, 6564.03 19.17, 6507.82 19.33, 6452.04 19.5, 6396.69 19.67, 6341.76 19.83, 6287.27 20.0, 6233.2 20.17, 6179.54 20.33, 6126.31 20.5, 6073.49 20.67, 6021.08 20.83, 5969.08 21.0, 5917.49 21.17, 5866.3 21.33, 5815.51 21.5, 5765.12 21.67, 5715.13 21.83, 5665.53 22.0, 5616.32 22.17, 5567.5 22.33, 5519.07 22.5, 5471.01 22.67, 5423.34 22.83, 5376.05 23.0, 5329.13 23.17, 5282.59 23.33, 5236.41 23.5, 5190.61 23.67, 5145.16 23.83, 5100.09 24.0, 5055.37 24.17, 5011.01 24.33, 4967.0 24.5, 4923.35 24.67, 4880.05 24.83, 4837.1 25.0, 4794.5 25.17, 4752.24 25.33, 4710.32 25.5, 4668.74 25.67, 4627.49 25.83, 4586.58 26.0, 4546.0 26.17, 4505.76 26.33, 4465.84 26.5, 4426.24 26.67, 4386.97 26.83, 4348.02 27.0, 4309.39 27.17, 4271.07 27.33, 4233.07 27.5, 4195.38 27.67, 4158.0 27.83, 4120.93 28.0, 4084.16 28.17, 4047.7 28.33, 4011.54 28.5, 3975.67 28.67, 3940.11 28.83, 3904.84 29.0, 3869.86 29.17, 3835.17 29.33, 3800.77 29.5, 3766.66 29.67, 3732.83 29.83, 3699.29 30.0, 3666.03 30.17, 3633.04 30.33, 3600.33 30.5, 3567.9 30.67, 3535.74 30.83, 3503.85 31.0, 3472.22 31.17, 3440.87 31.33, 3409.78 31.5, 3378.95 31.67, 3348.39 31.83, 3318.08 32.0, 3288.03 32.17, 3258.24 32.33, 3228.7 32.5, 3199.41 32.67, 3170.37 32.83, 3141.58 33.0, 3113.03 33.17, 3084.73 33.33, 3056.68 33.5, 3028.86 33.67, 3001.28 33.83, 2973.94 34.0, 2946.84 34.17, 2919.97 34.33, 2893.33 34.5, 2866.92 34.67, 2840.74 34.83, 2814.79 35.0, 2789.06 35.17, 2763.56 35.33, 2738.28 35.5, 2713.21 35.67, 2688.37 35.83, 2663.75 36.0, 2639.34 36.17, 2615.14 36.33, 2591.15 36.5, 2567.38 36.67, 2543.82 36.83, 2520.46 37.0, 2497.31 37.17, 2474.36 37.33, 2451.61 37.5, 2429.07 37.67, 2406.72 37.83, 2384.58 38.0, 2362.63 38.17, 2340.87 38.33, 2319.31 38.5, 2297.94 38.67, 2276.76 38.83, 2255.77 39.0, 2234.97 39.17, 2214.35 39.33, 2193.92 39.5, 2173.68 39.67, 2153.61 39.83, 2133.72 40.0, 2114.02 40.17, 2094.49 40.33, 2075.13 40.5, 2055.96 40.67, 2036.95 40.83, 2018.12 41.0, 1999.46 41.17, 1980.97 41.33, 1962.64 41.5, 1944.49 41.67, 1926.49 41.83, 1908.67 42.0, 1891.0 42.17, 1873.5 42.33, 1856.16 42.5, 1838.97 42.67, 1821.95 42.83, 1805.08 43.0, 1788.36 43.17, 1771.8 43.33, 1755.39 43.5, 1739.14 43.67, 1723.03 43.83, 1707.07 44.0, 1691.26 44.17, 1675.6 44.33, 1660.08 44.5, 1644.71 44.67, 1629.48 44.83, 1614.39 45.0, 1599.45 45.17, 1584.64 45.33, 1569.97 45.5, 1555.44 45.67, 1541.04 45.83, 1526.78 46.0, 1512.66 46.17, 1498.66 46.33, 1484.8 46.5, 1471.07 46.67, 1457.47 46.83, 1444.0 47.0, 1430.65 47.17, 1417.43 47.33, 1404.34 47.5, 1391.37 47.67, 1378.53 47.83, 1365.8 48.0, 1353.2 48.17, 1340.72 48.33, 1328.36 48.5, 1316.11 48.67, 1303.99 48.83, 1291.98 49.0, 1280.08 49.17, 1268.3 49.33, 1256.63 49.5, 1245.08 49.67, 1233.63 49.83, 1222.3 50.0, 1211.07 50.17, 1199.96 50.33, 1188.95 50.5, 1178.05 50.67, 1167.25 50.83, 1156.56 51.0, 1145.98 51.17, 1135.49 51.33, 1125.11 51.5, 1114.83 51.67, 1104.65 51.83, 1094.57 52.0, 1084.59 52.17, 1074.71 52.33, 1064.92 52.5, 1055.23 52.67, 1045.64 52.83, 1036.14 53.0, 1026.73 53.17, 1017.42 53.33, 1008.2 53.5, 999.07 53.67, 990.03 53.83, 981.08 54.0, 972.22 54.17, 963.45 54.33, 954.76 54.5, 946.16 54.67, 937.65 54.83, 929.22 55.0, 920.87 55.17, 912.61 55.33, 904.44 55.5, 896.34 55.67, 888.32 55.83, 880.39 56.0, 872.54 56.17, 864.76 56.33, 857.06 56.5, 849.45 56.67, 841.9 56.83, 834.44 57.0, 827.05 57.17, 819.73 57.33, 812.49 57.5, 805.32 57.67, 798.23 57.83, 791.21 58.0, 784.26 58.17, 777.38 58.33, 770.57 58.5, 763.83 58.67, 757.16 58.83, 750.55 59.0, 744.02 59.17, 737.55 59.33, 731.15 59.5, 724.82 59.67, 718.55 59.83, 712.34 60.0, 706.2 60.17, 700.12 60.33, 694.11 60.5, 688.15 60.67, 682.26 60.83, 676.43 61.0, 670.66 61.17, 664.96 61.33, 659.31 61.5, 653.72 61.67, 648.18 61.83, 642.71 62.0, 637.29 62.17, 631.93 62.33, 626.63 62.5, 621.38 62.67, 616.18 62.83, 611.05 63.0, 605.96 63.17, 600.93 63.33, 595.95 63.5, 591.03 63.67, 586.15 63.83, 581.33 64.0, 576.56 64.17, 571.84 64.33, 567.17 64.5, 562.55 64.67, 557.98 64.83, 553.45 65.0, 548.98 65.17, 544.55 65.33, 540.17 65.5, 535.84 65.67, 531.55 65.83, 527.31 66.0, 523.12 66.17, 518.97 66.33, 514.86 66.5, 510.8 66.67, 506.78 66.83, 502.81 67.0, 498.88 67.17, 494.99 67.33, 491.14 67.5, 487.34 67.67, 483.57 67.83, 479.85 68.0, 476.17 68.17, 472.53 68.33, 468.92 68.5, 465.36 68.67, 461.83 68.83, 458.35 69.0, 454.9 69.17, 451.49 69.33, 448.12 69.5, 444.78 69.67, 441.48 69.83, 438.22 70.0, 434.99 70.17, 431.8 70.33, 428.64 70.5, 425.52 70.67, 422.43 70.83, 419.38 71.0, 416.36 71.17, 413.37 71.33, 410.42 71.5, 407.5 71.67, 404.61 71.83, 401.75 72.0, 398.93 72.17, 396.14 72.33, 393.38 72.5, 390.65 72.67, 387.95 72.83, 385.28 73.0, 382.64 73.17, 380.03 73.33, 377.45 73.5, 374.89 73.67, 372.37 73.83, 369.88 74.0, 367.41 74.17, 364.97 74.33, 362.56 74.5, 360.18 74.67, 357.82 74.83, 355.49 75.0, 353.19 75.17, 350.91 75.33, 348.66 75.5, 346.43 75.67, 344.23 75.83, 342.06 76.0, 339.91 76.17, 337.78 76.33, 335.68 76.5, 333.6 76.67, 331.55 76.83, 329.52 77.0, 327.51 77.17, 325.53 77.33, 323.57 77.5, 321.63 77.67, 319.71 77.83, 317.82 78.0, 315.95 78.17, 314.1 78.33, 312.27 78.5, 310.47 78.67, 308.68 78.83, 306.92 79.0, 305.17 79.17, 303.45 79.33, 301.74 79.5, 300.06 79.67, 298.4 79.83, 296.75 80.0, 295.13 80.17, 293.52 80.33, 291.93 80.5, 290.37 80.67, 288.82 80.83, 287.29 81.0, 285.77 81.17, 284.28 81.33, 282.8 81.5, 281.34 81.67, 279.9 81.83, 278.48 82.0, 277.07 82.17, 275.68 82.33, 274.3 82.5, 272.95 82.67, 271.6 82.83, 270.28 83.0, 268.97 83.17, 267.68 83.33, 266.4 83.5, 265.14 83.67, 263.89 83.83, 262.66 84.0, 261.44 84.17, 260.24 84.33, 259.06 84.5, 257.88 84.67, 256.73 84.83, 255.58 85.0, 254.45 85.17, 253.34 85.33, 252.24 85.5, 251.15 85.67, 250.08 85.83, 249.01 86.0, 247.97 86.17, 246.93 86.33, 245.91 86.5, 244.9 86.67, 243.91 86.83, 242.92 87.0, 241.95 87.17, 240.99 87.33, 240.05 87.5, 239.11 87.67, 238.19 87.83, 237.28 88.0, 236.38 88.17, 235.49 88.33, 234.62 88.5, 233.75 88.67, 232.9 88.83, 232.05 89.0, 231.22 89.17, 230.4 89.33, 229.59 89.5, 228.79 89.67, 228.0 89.83, 227.22 90.0, 226.46 90.17, 225.7 90.33, 224.95 90.5, 224.21 90.67, 223.48 90.83, 222.76 91.0, 222.06 91.17, 221.36 91.33, 220.67 91.5, 219.99 91.67, 219.31 91.83, 218.65 92.0, 218.0 92.17, 217.35 92.33, 216.72 92.5, 216.09 92.67, 215.48 92.83, 214.87 93.0, 214.27 93.17, 213.67 93.33, 213.09 93.5, 212.51 93.67, 211.95 93.83, 211.39 94.0, 210.84 94.17, 210.29 94.33, 209.76 94.5, 209.23 94.67, 208.71 94.83, 208.2 95.0, 207.69 95.17, 207.19 95.33, 206.7 95.5, 206.22 95.67, 205.74 95.83, 205.27 96.0, 204.81 96.17, 204.36 96.33, 203.91 96.5, 203.47 96.67, 203.04 96.83, 202.61 97.0, 202.19 97.17, 201.77 97.33, 201.37 97.5, 200.96 97.67, 200.57 97.83, 200.18 98.0, 199.8 98.17, 199.42 98.33, 199.05 98.5, 198.69 98.67, 198.33 98.83, 197.98 99.0, 197.63 99.17, 197.29 99.33, 196.96 99.5, 196.63 99.67, 196.31 99.83, 195.99 100.0, 195.68 100.17, 195.37 100.33, 195.07 100.5, 194.77 100.67, 194.48 100.83, 194.2 101.0, 193.92 101.17, 193.64 101.33, 193.37 101.5, 193.11 101.67, 192.85 101.83, 192.59 102.0, 192.34 102.17, 192.1 102.33, 191.86 102.5, 191.62 102.67, 191.39 102.83, 191.17 103.0, 190.95 103.17, 190.73 103.33, 190.52 103.5, 190.31 103.67, 190.11 103.83, 189.91 104.0, 189.71 104.17, 189.52 104.33, 189.34 104.5, 189.16 104.67, 188.98 104.83, 188.81 105.0, 188.64 105.17, 188.47 105.33, 188.31 105.5, 188.15 105.67, 188.0 105.83, 187.85 106.0, 187.71 106.17, 187.57 106.33, 187.43 106.5, 187.3 106.67, 187.17 106.83, 187.04 107.0, 186.92 107.17, 186.8 107.33, 186.68 107.5, 186.57 107.67, 186.46 107.83, 186.36 108.0, 186.26 108.17, 186.16 108.33, 186.06 108.5, 185.97 108.67, 185.89 108.83, 185.8 109.0, 185.72 109.17, 185.64 109.33, 185.57 109.5, 185.5 109.67, 185.43 109.83, 185.36 110.0, 185.3 110.17, 185.24 110.33, 185.19 110.5, 185.13 110.67, 185.08 110.83, 185.03 111.0, 184.99 111.17, 184.95 111.33, 184.91 111.5, 184.87 111.67, 184.84 111.83, 184.81 112.0, 184.78 112.17, 184.76 112.33, 184.74 112.5, 184.72 112.67, 184.7 112.83, 184.69 113.0, 184.68 113.17, 184.67 113.33, 184.66 113.5, 184.66 113.67, 184.66 113.83, 184.66 114.0, 184.66 114.17, 184.67 114.33, 184.68 114.5, 184.69 114.67, 184.7 114.83, 184.72 115.0, 184.73 115.17, 184.76 115.33, 184.78 115.5, 184.8 115.67, 184.83 115.83, 184.86 116.0, 184.89 116.17, 184.92 116.33, 184.96 116.5, 185.0 116.67, 185.04 116.83, 185.08 117.0, 185.12 117.17, 185.17 117.33, 185.22 117.5, 185.27 117.67, 185.32 117.83, 185.37 118.0, 185.43 118.17, 185.49 118.33, 185.55 118.5, 185.61 118.67, 185.67 118.83, 185.73 119.0, 185.8 119.17, 185.87 119.33, 185.94 119.5, 186.01 119.67, 186.09 119.83, 186.16 120.0, 186.24 120.17, 186.32 120.33, 186.4 120.5, 186.48 120.67, 186.57 120.83, 186.65 121.0, 186.74 121.17, 186.83 121.33, 186.92 121.5, 187.01 121.67, 187.1 121.83, 187.2 122.0, 187.29 122.17, 187.39 122.33, 187.49 122.5, 187.59 122.67, 187.69 122.83, 187.8 123.0, 187.9 123.17, 188.01 123.33, 188.11 123.5, 188.22 123.67, 188.33 123.83, 188.44 124.0, 188.56 124.17, 188.67 124.33, 188.78 124.5, 188.9 124.67, 189.02 124.83, 189.14 125.0, 189.26 125.17, 189.38 125.33, 189.5 125.5, 189.62 125.67, 189.75 125.83, 189.87 126.0, 190.0 126.17, 190.13 126.33, 190.25 126.5, 190.38 126.67, 190.51 126.83, 190.65 127.0, 190.78 127.17, 190.91 127.33, 191.05 127.5, 191.18 127.67, 191.32 127.83, 191.45 128.0, 191.59 128.17, 191.73 128.33, 191.87 128.5, 192.01 128.67, 192.15 128.83, 192.3 129.0, 192.44 129.17, 192.58 129.33, 192.73 129.5, 192.87 129.67, 193.02 129.83, 193.16 130.0, 193.31 130.17, 193.46 130.33, 193.61 130.5, 193.76 130.67, 193.91 130.83, 194.06 131.0, 194.21 131.17, 194.36 131.33, 194.51 131.5, 194.67 131.67, 194.82 131.83, 194.97 132.0, 195.13 132.17, 195.28 132.33, 195.44 132.5, 195.59 132.67, 195.75 132.83, 195.91 133.0, 196.07 133.17, 196.22 133.33, 196.38 133.5, 196.54 133.67, 196.7 133.83, 196.86 134.0, 197.02 134.17, 197.18 134.33, 197.34 134.5, 197.5 134.67, 197.66 134.83, 197.82 135.0, 197.98 135.17, 198.14 135.33, 198.31 135.5, 198.47 135.67, 198.63 135.83, 198.79 136.0, 198.96 136.17, 199.12 136.33, 199.28 136.5, 199.45 136.67, 199.61 136.83, 199.77 137.0, 199.94 137.17, 200.1 137.33, 200.26 137.5, 200.43 137.67, 200.59 137.83, 200.76 138.0, 200.92 138.17, 201.08 138.33, 201.25 138.5, 201.41 138.67, 201.58 138.83, 201.74 139.0, 201.9 139.17, 202.07 139.33, 202.23 139.5, 202.39 139.67, 202.56 139.83, 202.72 140.0, 202.88 140.17, 203.05 140.33, 203.21 140.5, 203.37 140.67, 203.54 140.83, 203.7 141.0, 203.86 141.17, 204.02 141.33, 204.18 141.5, 204.34 141.67, 204.51 141.83, 204.67 142.0, 204.83 142.17, 204.99 142.33, 205.15 142.5, 205.31 142.67, 205.47 142.83, 205.63 143.0, 205.78 143.17, 205.94 143.33, 206.1 143.5, 206.26 143.67, 206.42 143.83, 206.57 144.0, 206.73 144.17, 206.88 144.33, 207.04 144.5, 207.2 144.67, 207.35 144.83, 207.5 145.0, 207.66 145.17, 207.81 145.33, 207.96 145.5, 208.11 145.67, 208.27 145.83, 208.42 146.0, 208.57 146.17, 208.72 146.33, 208.87 146.5, 209.01 146.67, 209.16 146.83, 209.31 147.0, 209.46 147.17, 209.6 147.33, 209.75 147.5, 209.89 147.67, 210.04 147.83, 210.18 148.0, 210.32 148.17, 210.47 148.33, 210.61 148.5, 210.75 148.67, 210.89 148.83, 211.03 149.0, 211.16 149.17, 211.3 149.33, 211.44 149.5, 211.57 149.67, 211.71 149.83, 211.84 150.0, 211.98 150.17, 212.11 150.33, 212.24 150.5, 212.37 150.67, 212.5 150.83, 212.63 151.0, 212.76 151.17, 212.89 151.33, 213.02 151.5, 213.14 151.67, 213.27 151.83, 213.39 152.0, 213.51 152.17, 213.64 152.33, 213.76 152.5, 213.88 152.67, 214.0 152.83, 214.12 153.0, 214.23 153.17, 214.35 153.33, 214.47 153.5, 214.58 153.67, 214.69 153.83, 214.81 154.0, 214.92 154.17, 215.03 154.33, 215.14 154.5, 215.25 154.67, 215.35 154.83, 215.46 155.0, 215.56 155.17, 215.67 155.33, 215.77 155.5, 215.87 155.67, 215.97 155.83, 216.07 156.0, 216.17 156.17, 216.27 156.33, 216.37 156.5, 216.46 156.67, 216.55 156.83, 216.65 157.0, 216.74 157.17, 216.83 157.33, 216.92 157.5, 217.01 157.67, 217.09 157.83, 217.18 158.0, 217.27 158.17, 217.35 158.33, 217.43 158.5, 217.51 158.67, 217.59 158.83, 217.67 159.0, 217.75 159.17, 217.82 159.33, 217.9 159.5, 217.97 159.67, 218.05 159.83, 218.12 160.0, 218.19 160.17, 218.26 160.33, 218.32 160.5, 218.39 160.67, 218.45 160.83, 218.52 161.0, 218.58 161.17, 218.64 161.33, 218.7 161.5, 218.76 161.67, 218.82 161.83, 218.87 162.0, 218.93 162.17, 218.98 162.33, 219.03 162.5, 219.08 162.67, 219.13 162.83, 219.18 163.0, 219.23 163.17, 219.27 163.33, 219.31 163.5, 219.36 163.67, 219.4 163.83, 219.44 164.0, 219.48 164.17, 219.51 164.33, 219.55 164.5, 219.58 164.67, 219.62 164.83, 219.65 165.0, 219.68 165.17, 219.71 165.33, 219.74 165.5, 219.76 165.67, 219.79 165.83, 219.81 166.0, 219.83 166.17, 219.85 166.33, 219.87 166.5, 219.89 166.67, 219.91 166.83, 219.92 167.0, 219.94 167.17, 219.95 167.33, 219.96 167.5, 219.97 167.67, 219.98 167.83, 219.99 168.0, 219.99 168.17, 220.0 168.33, 220.0 168.5, 220.0 168.67, 220.0 168.83, 220.0 169.0, 220.0 169.17, 219.99 169.33, 219.99 169.5, 219.98 169.67, 219.97 169.83, 219.96 170.0, 219.95 170.17, 219.94 170.33, 219.92 170.5, 219.91 170.67, 219.89 170.83, 219.87 171.0, 219.85 171.17, 219.83 171.33, 219.81 171.5, 219.79 171.67, 219.76 171.83, 219.74 172.0, 219.71 172.17, 219.68 172.33, 219.65 172.5, 219.62 172.67, 219.58 172.83, 219.55 173.0, 219.51 173.17, 219.48 173.33, 219.44 173.5, 219.4 173.67, 219.36 173.83, 219.32 174.0, 219.27 174.17, 219.23 174.33, 219.18 174.5, 219.13 174.67, 219.08 174.83, 219.03 175.0, 218.98 175.17, 218.93 175.33, 218.87 175.5, 218.82 175.67, 218.76 175.83, 218.7 176.0, 218.64 176.17, 218.58 176.33, 218.52 176.5, 218.45 176.67, 218.39 176.83, 218.32 177.0, 218.26 177.17, 218.19 177.33, 218.12 177.5, 218.05 177.67, 217.97 177.83, 217.9 178.0, 217.82 178.17, 217.75 178.33, 217.67 178.5, 217.59 178.67, 217.51 178.83, 217.43 179.0, 217.35 179.17, 217.26 179.33, 217.18 179.5, 217.09 179.67, 217.01 179.83, 216.92 180.0, 216.83 180.17, 216.74 180.33, 216.65 180.5, 216.55 180.67, 216.46 180.83, 216.36 181.0, 216.27 181.17, 216.17 181.33, 216.07 181.5, 215.97 181.67, 215.87 181.83, 215.77 182.0, 215.67 182.17, 215.56 182.33, 215.46 182.5, 215.35 182.67, 215.24 182.83, 215.14 183.0, 215.03 183.17, 214.92 183.33, 214.8 183.5, 214.69 183.67, 214.58 183.83, 214.46 184.0, 214.35 184.17, 214.23 184.33, 214.11 184.5, 213.99 184.67, 213.87 184.83, 213.75 185.0, 213.63 185.17, 213.51 185.33, 213.39 185.5, 213.26 185.67, 213.14 185.83, 213.01 186.0, 212.88 186.17, 212.76 186.33, 212.63 186.5, 212.5 186.67, 212.37 186.83, 212.24 187.0, 212.1 187.17, 211.97 187.33, 211.84 187.5, 211.7 187.67, 211.57 187.83, 211.43 188.0, 211.29 188.17, 211.15 188.33, 211.02 188.5, 210.88 188.67, 210.74 188.83, 210.6 189.0, 210.45 189.17, 210.31 189.33, 210.17 189.5, 210.02 189.67, 209.88 189.83, 209.73 190.0, 209.59 190.17, 209.44 190.33, 209.29 190.5, 209.15 190.67, 209.0 190.83, 208.85 191.0, 208.7 191.17, 208.55 191.33, 208.4 191.5, 208.25 191.67, 208.09 191.83, 207.94 192.0, 207.79 192.17, 207.63 192.33, 207.48 192.5, 207.33 192.67, 207.17 192.83, 207.01 193.0, 206.86 193.17, 206.7 193.33, 206.54 193.5, 206.39 193.67, 206.23 193.83, 206.07 194.0, 205.91 194.17, 205.75 194.33, 205.59 194.5, 205.43 194.67, 205.27 194.83, 205.11 195.0, 204.95 195.17, 204.79 195.33, 204.62 195.5, 204.46 195.67, 204.3 195.83, 204.14 196.0, 203.97 196.17, 203.81 196.33, 203.65 196.5, 203.48 196.67, 203.32 196.83, 203.15 197.0, 202.99 197.17, 202.82 197.33, 202.66 197.5, 202.49 197.67, 202.33 197.83, 202.16 198.0, 202.0 198.17, 201.83 198.33, 201.66 198.5, 201.5 198.67, 201.33 198.83, 201.17 199.0, 201.0 199.17, 200.83 199.33, 200.67 199.5, 200.5 199.67, 200.33 199.83, 200.17 200.0, 200.0 200.17, 199.83 200.33, 199.67 200.5, 199.5 200.67, 199.33 200.83, 199.17 201.0, 199.0 201.17, 198.83 201.33, 198.67 201.5, 198.5 201.67, 198.34 201.83, 198.17 202.0, 198.0 202.17, 197.84 202.33, 197.67 202.5, 197.51 202.67, 197.34 202.83, 197.18 203.0, 197.01 203.17, 196.85 203.33, 196.68 203.5, 196.52 203.67, 196.35 203.83, 196.19 204.0, 196.03 204.17, 195.86 204.33, 195.7 204.5, 195.54 204.67, 195.38 204.83, 195.21 205.0, 195.05 205.17, 194.89 205.33, 194.73 205.5, 194.57 205.67, 194.41 205.83, 194.25 206.0, 194.09 206.17, 193.93 206.33, 193.77 206.5, 193.61 206.67, 193.46 206.83, 193.3 207.0, 193.14 207.17, 192.99 207.33, 192.83 207.5, 192.67 207.67, 192.52 207.83, 192.37 208.0, 192.21 208.17, 192.06 208.33, 191.91 208.5, 191.75 208.67, 191.6 208.83, 191.45 209.0, 191.3 209.17, 191.15 209.33, 191.0 209.5, 190.85 209.67, 190.71 209.83, 190.56 210.0, 190.41 210.17, 190.27 210.33, 190.12 210.5, 189.98 210.67, 189.83 210.83, 189.69 211.0, 189.55 211.17, 189.4 211.33, 189.26 211.5, 189.12 211.67, 188.98 211.83, 188.85 212.0, 188.71 212.17, 188.57 212.33, 188.43 212.5, 188.3 212.67, 188.16 212.83, 188.03 213.0, 187.9 213.17, 187.76 213.33, 187.63 213.5, 187.5 213.67, 187.37 213.83, 187.24 214.0, 187.12 214.17, 186.99 214.33, 186.86 214.5, 186.74 214.67, 186.61 214.83, 186.49 215.0, 186.37 215.17, 186.25 215.33, 186.13 215.5, 186.01 215.67, 185.89 215.83, 185.77 216.0, 185.65 216.17, 185.54 216.33, 185.42 216.5, 185.31 216.67, 185.2 216.83, 185.08 217.0, 184.97 217.17, 184.86 217.33, 184.76 217.5, 184.65 217.67, 184.54 217.83, 184.44 218.0, 184.33 218.17, 184.23 218.33, 184.13 218.5, 184.03 218.67, 183.93 218.83, 183.83 219.0, 183.73 219.17, 183.64 219.33, 183.54 219.5, 183.45 219.67, 183.35 219.83, 183.26 220.0, 183.17 220.17, 183.08 220.33, 182.99 220.5, 182.91 220.67, 182.82 220.83, 182.74 221.0, 182.65 221.17, 182.57 221.33, 182.49 221.5, 182.41 221.67, 182.33 221.83, 182.25 222.0, 182.18 222.17, 182.1 222.33, 182.03 222.5, 181.95 222.67, 181.88 222.83, 181.81 223.0, 181.74 223.17, 181.68 223.33, 181.61 223.5, 181.55 223.67, 181.48 223.83, 181.42 224.0, 181.36 224.17, 181.3 224.33, 181.24 224.5, 181.18 224.67, 181.13 224.83, 181.07 225.0, 181.02 225.17, 180.97 225.33, 180.92 225.5, 180.87 225.67, 180.82 225.83, 180.77 226.0, 180.73 226.17, 180.68 226.33, 180.64 226.5, 180.6 226.67, 180.56 226.83, 180.52 227.0, 180.49 227.17, 180.45 227.33, 180.42 227.5, 180.38 227.67, 180.35 227.83, 180.32 228.0, 180.29 228.17, 180.26 228.33, 180.24 228.5, 180.21 228.67, 180.19 228.83, 180.17 229.0, 180.15 229.17, 180.13 229.33, 180.11 229.5, 180.09 229.67, 180.08 229.83, 180.06 230.0, 180.05 230.17, 180.04 230.33, 180.03 230.5, 180.02 230.67, 180.01 230.83, 180.01 231.0, 180.0 231.17, 180.0 231.33, 180.0 231.5, 180.0 231.67, 180.0 231.83, 180.0 232.0, 180.01 232.17, 180.01 232.33, 180.02 232.5, 180.03 232.67, 180.04 232.83, 180.05 233.0, 180.06 233.17, 180.08 233.33, 180.09 233.5, 180.11 233.67, 180.13 233.83, 180.15 234.0, 180.17 234.17, 180.19 234.33, 180.21 234.5, 180.24 234.67, 180.26 234.83, 180.29 235.0, 180.32 235.17, 180.35 235.33, 180.38 235.5, 180.42 235.67, 180.45 235.83, 180.49 236.0, 180.52 236.17, 180.56 236.33, 180.6 236.5, 180.64 236.67, 180.69 236.83, 180.73 237.0, 180.77 237.17, 180.82 237.33, 180.87 237.5, 180.92 237.67, 180.97 237.83, 181.02 238.0, 181.07 238.17, 181.13 238.33, 181.18 238.5, 181.24 238.67, 181.3 238.83, 181.36 239.0, 181.42 239.17, 181.48 239.33, 181.55 239.5, 181.61 239.67, 181.68 239.83, 181.74 240.0, 181.81 240.17, 181.88 240.33, 181.95 240.5, 182.03 240.67, 182.1 240.83, 182.18 241.0, 182.25 241.17, 182.33 241.33, 182.41 241.5, 182.49 241.67, 182.57 241.83, 182.65 242.0, 182.73 242.17, 182.82 242.33, 182.91 242.5, 182.99 242.67, 183.08 242.83, 183.17 243.0, 183.26 243.17, 183.35 243.33, 183.45 243.5, 183.54 243.67, 183.63 243.83, 183.73 244.0, 183.83 244.17, 183.93 244.33, 184.03 244.5, 184.13 244.67, 184.23 244.83, 184.33 245.0, 184.44 245.17, 184.54 245.33, 184.65 245.5, 184.75 245.67, 184.86 245.83, 184.97 246.0, 185.08 246.17, 185.19 246.33, 185.31 246.5, 185.42 246.67, 185.53 246.83, 185.65 247.0, 185.77 247.17, 185.88 247.33, 186.0 247.5, 186.12 247.67, 186.24 247.83, 186.36 248.0, 186.49 248.17, 186.61 248.33, 186.73 248.5, 186.86 248.67, 186.98 248.83, 187.11 249.0, 187.24 249.17, 187.37 249.33, 187.5 249.5, 187.63 249.67, 187.76 249.83, 187.89 250.0, 188.02 250.17, 188.16 250.33, 188.29 250.5, 188.43 250.67, 188.56 250.83, 188.7 251.0, 188.84 251.17, 188.97 251.33, 189.11 251.5, 189.25 251.67, 189.39 251.83, 189.53 252.0, 189.68 252.17, 189.82 252.33, 189.96 252.5, 190.11 252.67, 190.25 252.83, 190.4 253.0, 190.54 253.17, 190.69 253.33, 190.84 253.5, 190.99 253.67, 191.13 253.83, 191.28 254.0, 191.43 254.17, 191.58 254.33, 191.73 254.5, 191.89 254.67, 192.04 254.83, 192.19 255.0, 192.34 255.17, 192.5 255.33, 192.65 255.5, 192.8 255.67, 192.96 255.83, 193.12 256.0, 193.27 256.17, 193.43 256.33, 193.58 256.5, 193.74 256.67, 193.9 256.83, 194.06 257.0, 194.22 257.17, 194.37 257.33, 194.53 257.5, 194.69 257.67, 194.85 257.83, 195.01 258.0, 195.17 258.17, 195.33 258.33, 195.49 258.5, 195.66 258.67, 195.82 258.83, 195.98 259.0, 196.14 259.17, 196.3 259.33, 196.46 259.5, 196.63 259.67, 196.79 259.83, 196.95 260.0, 197.12 260.17, 197.28 260.33, 197.44 260.5, 197.61 260.67, 197.77 260.83, 197.93 261.0, 198.1 261.17, 198.26 261.33, 198.42 261.5, 198.59 261.67, 198.75 261.83, 198.92 262.0, 199.08 262.17, 199.24 262.33, 199.41 262.5, 199.57 262.67, 199.74 262.83, 199.9 263.0, 200.06 263.17, 200.23 263.33, 200.39 263.5, 200.55 263.67, 200.72 263.83, 200.88 264.0, 201.04 264.17, 201.21 264.33, 201.37 264.5, 201.53 264.67, 201.69 264.83, 201.86 265.0, 202.02 265.17, 202.18 265.33, 202.34 265.5, 202.5 265.67, 202.66 265.83, 202.82 266.0, 202.98 266.17, 203.14 266.33, 203.3 266.5, 203.46 266.67, 203.62 266.83, 203.78 267.0, 203.93 267.17, 204.09 267.33, 204.25 267.5, 204.41 267.67, 204.56 267.83, 204.72 268.0, 204.87 268.17, 205.03 268.33, 205.18 268.5, 205.33 268.67, 205.49 268.83, 205.64 269.0, 205.79 269.17, 205.94 269.33, 206.09 269.5, 206.24 269.67, 206.39 269.83, 206.54 270.0, 206.69 270.17, 206.84 270.33, 206.98 270.5, 207.13 270.67, 207.27 270.83, 207.42 271.0, 207.56 271.17, 207.7 271.33, 207.85 271.5, 207.99 271.67, 208.13 271.83, 208.27 272.0, 208.41 272.17, 208.55 272.33, 208.68 272.5, 208.82 272.67, 208.95 272.83, 209.09 273.0, 209.22 273.17, 209.35 273.33, 209.49 273.5, 209.62 273.67, 209.75 273.83, 209.87 274.0, 210.0 274.17, 210.13 274.33, 210.25 274.5, 210.38 274.67, 210.5 274.83, 210.62 275.0, 210.74 275.17, 210.86 275.33, 210.98 275.5, 211.1 275.67, 211.22 275.83, 211.33 276.0, 211.44 276.17, 211.56 276.33, 211.67 276.5, 211.78 276.67, 211.89 276.83, 211.99 277.0, 212.1 277.17, 212.2 277.33, 212.31 277.5, 212.41 277.67, 212.51 277.83, 212.61 278.0, 212.71 278.17, 212.8 278.33, 212.9 278.5, 212.99 278.67, 213.08 278.83, 213.17 279.0, 213.26 279.17, 213.35 279.33, 213.43 279.5, 213.52 279.67, 213.6 279.83, 213.68 280.0, 213.76 280.17, 213.84 280.33, 213.91 280.5, 213.99 280.67, 214.06 280.83, 214.13 281.0, 214.2 281.17, 214.27 281.33, 214.33 281.5, 214.39 281.67, 214.45 281.83, 214.51 282.0, 214.57 282.17, 214.63 282.33, 214.68 282.5, 214.73 282.67, 214.78 282.83, 214.83 283.0, 214.88 283.17, 214.92 283.33, 214.96 283.5, 215.0 283.67, 215.04 283.83, 215.08 284.0, 215.11 284.17, 215.14 284.33, 215.17 284.5, 215.2 284.67, 215.22 284.83, 215.24 285.0, 215.27 285.17, 215.28 285.33, 215.3 285.5, 215.31 285.67, 215.32 285.83, 215.33 286.0, 215.34 286.17, 215.34 286.33, 215.34 286.5, 215.34 286.67, 215.34 286.83, 215.33 287.0, 215.32 287.17, 215.31 287.33, 215.3 287.5, 215.28 287.67, 215.26 287.83, 215.24 288.0, 215.22 288.17, 215.19 288.33, 215.16 288.5, 215.13 288.67, 215.09 288.83, 215.05 289.0, 215.01 289.17, 214.97 289.33, 214.92 289.5, 214.87 289.67, 214.81 289.83, 214.76 290.0, 214.7 290.17, 214.64 290.33, 214.57 290.5, 214.5 290.67, 214.43 290.83, 214.36 291.0, 214.28 291.17, 214.2 291.33, 214.11 291.5, 214.03 291.67, 213.94 291.83, 213.84 292.0, 213.74 292.17, 213.64 292.33, 213.54 292.5, 213.43 292.67, 213.32 292.83, 213.2 293.0, 213.08 293.17, 212.96 293.33, 212.83 293.5, 212.7 293.67, 212.57 293.83, 212.43 294.0, 212.29 294.17, 212.15 294.33, 212.0 294.5, 211.85 294.67, 211.69 294.83, 211.53 295.0, 211.36 295.17, 211.19 295.33, 211.02 295.5, 210.84 295.67, 210.66 295.83, 210.48 296.0, 210.29 296.17, 210.09 296.33, 209.89 296.5, 209.69 296.67, 209.48 296.83, 209.27 297.0, 209.05 297.17, 208.83 297.33, 208.61 297.5, 208.38 297.67, 208.14 297.83, 207.9 298.0, 207.66 298.17, 207.41 298.33, 207.15 298.5, 206.89 298.67, 206.63 298.83, 206.36 299.0, 206.08 299.17, 205.8 299.33, 205.52 299.5, 205.23 299.67, 204.93 299.83, 204.63 300.0, 204.32 300.17, 204.01 300.33, 203.69 300.5, 203.37 300.67, 203.04 300.83, 202.71 301.0, 202.37 301.17, 202.02 301.33, 201.67 301.5, 201.31 301.67, 200.95 301.83, 200.58 302.0, 200.2 302.17, 199.82 302.33, 199.43 302.5, 199.04 302.67, 198.63 302.83, 198.23 303.0, 197.81 303.17, 197.39 303.33, 196.96 303.5, 196.53 303.67, 196.09 303.83, 195.64 304.0, 195.19 304.17, 194.73 304.33, 194.26 304.5, 193.78 304.67, 193.3 304.83, 192.81 305.0, 192.31 305.17, 191.8 305.33, 191.29 305.5, 190.77 305.67, 190.24 305.83, 189.71 306.0, 189.16 306.17, 188.61 306.33, 188.05 306.5, 187.49 306.67, 186.91 306.83, 186.33 307.0, 185.73 307.17, 185.13 307.33, 184.52 307.5, 183.91 307.67, 183.28 307.83, 182.65 308.0, 182.0 308.17, 181.35 308.33, 180.69 308.5, 180.01 308.67, 179.33 308.83, 178.64 309.0, 177.94 309.17, 177.24 309.33, 176.52 309.5, 175.79 309.67, 175.05 309.83, 174.3 310.0, 173.54 310.17, 172.78 310.33, 172.0 310.5, 171.21 310.67, 170.41 310.83, 169.6 311.0, 168.78 311.17, 167.95 311.33, 167.1 311.5, 166.25 311.67, 165.38 311.83, 164.51 312.0, 163.62 312.17, 162.72 312.33, 161.81 312.5, 160.89 312.67, 159.95 312.83, 159.01 313.0, 158.05 313.17, 157.08 313.33, 156.09 313.5, 155.1 313.67, 154.09 313.83, 153.07 314.0, 152.03 314.17, 150.99 314.33, 149.92 314.5, 148.85 314.67, 147.76 314.83, 146.66 315.0, 145.55 315.17, 144.42 315.33, 143.27 315.5, 142.12 315.67, 140.94 315.83, 139.76 316.0, 138.56 316.17, 137.34 316.33, 136.11 316.5, 134.86 316.67, 133.6 316.83, 132.32 317.0, 131.03 317.17, 129.72 317.33, 128.4 317.5, 127.05 317.67, 125.7 317.83, 124.32 318.0, 122.93 318.17, 121.52 318.33, 120.1 318.5, 118.66 318.67, 117.2 318.83, 115.72 319.0, 114.23 319.17, 112.71 319.33, 111.18 319.5, 109.63 319.67, 108.07 319.83, 106.48 320.0, 104.87 320.17, 103.25 320.33, 101.6 320.5, 99.94 320.67, 98.26 320.83, 96.55 321.0, 94.83 321.17, 93.08 321.33, 91.32 321.5, 89.53 321.67, 87.73 321.83, 85.9 322.0, 84.05 322.17, 82.18 322.33, 80.29 322.5, 78.37 322.67, 76.43 322.83, 74.47 323.0, 72.49 323.17, 70.48 323.33, 68.45 323.5, 66.4 323.67, 64.32 323.83, 62.22 324.0, 60.09 324.17, 57.94 324.33, 55.77 324.5, 53.57 324.67, 51.34 324.83, 49.09 325.0, 46.81 325.17, 44.51 325.33, 42.18 325.5, 39.82 325.67, 37.44 325.83, 35.03 326.0, 32.59 326.17, 30.12 326.33, 27.63 326.5, 25.11 326.67, 22.55 326.83, 19.97 327.0, 17.36 327.17, 14.72 327.33, 12.05 327.5, 9.35 327.67, 6.62 327.83, 3.86 328.0, 1.07 328.17, -1.75 328.33, -4.61 328.5, -7.5 328.67, -10.42 328.83, -13.37 329.0, -16.36 329.17, -19.38 329.33, -22.43 329.5, -25.52 329.67, -28.64 329.83, -31.8 330.0, -34.99 330.17, -38.22 330.33, -41.48 330.5, -44.78 330.67, -48.12 330.83, -51.49 331.0, -54.9 331.17, -58.35 331.33, -61.83 331.5, -65.36 331.67, -68.92 331.83, -72.53 332.0, -76.17 332.17, -79.85 332.33, -83.57 332.5, -87.34 332.67, -91.14 332.83, -94.99 333.0, -98.88 333.17, -102.81 333.33, -106.78 333.5, -110.8 333.67, -114.86 333.83, -118.97 334.0, -123.12 334.17, -127.31 334.33, -131.55 334.5, -135.84 334.67, -140.17 334.83, -144.55 335.0, -148.98 335.17, -153.45 335.33, -157.98 335.5, -162.55 335.67, -167.17 335.83, -171.84 336.0, -176.56 336.17, -181.33 336.33, -186.15 336.5, -191.03 336.67, -195.95 336.83, -200.93 337.0, -205.96 337.17, -211.05 337.33, -216.18 337.5, -221.38 337.67, -226.63 337.83, -231.93 338.0, -237.29 338.17, -242.71 338.33, -248.18 338.5, -253.72 338.67, -259.31 338.83, -264.96 339.0, -270.66 339.17, -276.43 339.33, -282.26 339.5, -288.15 339.67, -294.11 339.83, -300.12 340.0, -306.2 340.17, -312.34 340.33, -318.55 340.5, -324.82 340.67, -331.15 340.83, -337.55 341.0, -344.02 341.17, -350.55 341.33, -357.16 341.5, -363.83 341.67, -370.57 341.83, -377.38 342.0, -384.26 342.17, -391.21 342.33, -398.23 342.5, -405.32 342.67, -412.49 342.83, -419.73 343.0, -427.05 343.17, -434.44 343.33, -441.9 343.5, -449.45 343.67, -457.06 343.83, -464.76 344.0, -472.54 344.17, -480.39 344.33, -488.32 344.5, -496.34 344.67, -504.44 344.83, -512.61 345.0, -520.87 345.17, -529.22 345.33, -537.65 345.5, -546.16 345.67, -554.76 345.83, -563.45 346.0, -572.22 346.17, -581.08 346.33, -590.03 346.5, -599.07 346.67, -608.2 346.83, -617.42 347.0, -626.73 347.17, -636.14 347.33, -645.64 347.5, -655.23 347.67, -664.92 347.83, -674.71 348.0, -684.59 348.17, -694.57 348.33, -704.65 348.5, -714.83 348.67, -725.11 348.83, -735.49 349.0, -745.98 349.17, -756.56 349.33, -767.25 349.5, -778.05 349.67, -788.95 349.83, -799.96 350.0, -811.07 350.17, -822.3 350.33, -833.63 350.5, -845.08 350.67, -856.63 350.83, -868.3 351.0, -880.08 351.17, -891.98 351.33, -903.99 351.5, -916.11 351.67, -928.36 351.83, -940.72 352.0, -953.2 352.17, -965.8 352.33, -978.53 352.5, -991.37 352.67, -1004.34 352.83, -1017.43 353.0, -1030.65 353.17, -1044.0 353.33, -1057.47 353.5, -1071.07 353.67, -1084.8 353.83, -1098.66 354.0, -1112.66 354.17, -1126.78 354.33, -1141.04 354.5, -1155.44 354.67, -1169.97 354.83, -1184.64 355.0, -1199.45 355.17, -1214.39 355.33, -1229.48 355.5, -1244.71 355.67, -1260.08 355.83, -1275.6 356.0, -1291.26 356.17, -1307.07 356.33, -1323.03 356.5, -1339.14 356.67, -1355.39 356.83, -1371.8 357.0, -1388.36 357.17, -1405.08 357.33, -1421.95 357.5, -1438.97 357.67, -1456.16 357.83, -1473.5 358.0, -1491.0 358.17, -1508.67 358.33, -1526.49 358.5, -1544.49 358.67, -1562.64 358.83, -1580.97 359.0, -1599.46 359.17, -1618.12 359.33, -1636.95 359.5, -1655.96 359.67, -1675.13 359.83, -1694.49 360.0, -1714.02 360.17, -1733.72 360.33, -1753.61 360.5, -1773.68 360.67, -1793.92 360.83, -1814.35 361.0, -1834.97 361.17, -1855.77 361.33, -1876.76 361.5, -1897.94 361.67, -1919.31 361.83, -1940.87 362.0, -1962.63 362.17, -1984.58 362.33, -2006.72 362.5, -2029.07 362.67, -2051.61 362.83, -2074.36 363.0, -2097.31 363.17, -2120.46 363.33, -2143.82 363.5, -2167.38 363.67, -2191.15 363.83, -2215.14 364.0, -2239.34 364.17, -2263.75 364.33, -2288.37 364.5, -2313.21 364.67, -2338.28 364.83, -2363.56 365.0, -2389.06 365.17, -2414.79 365.33, -2440.74 365.5, -2466.92 365.67, -2493.33 365.83, -2519.97 366.0, -2546.84 366.17, -2573.94 366.33, -2601.28 366.5, -2628.86 366.67, -2656.68 366.83, -2684.73 367.0, -2713.03 367.17, -2741.58 367.33, -2770.37 367.5, -2799.41 367.67, -2828.7 367.83, -2858.24 368.0, -2888.03 368.17, -2918.08 368.33, -2948.39 368.5, -2978.95 368.67, -3009.78 368.83, -3040.87 369.0, -3072.22 369.17, -3103.85 369.33, -3135.74 369.5, -3167.9 369.67, -3200.33 369.83, -3233.04 370.0, -3266.03 370.17, -3299.29 370.33, -3332.83 370.5, -3366.66 370.67, -3400.77 370.83, -3435.17 371.0, -3469.86 371.17, -3504.84 371.33, -3540.11 371.5, -3575.67 371.67, -3611.54 371.83, -3647.7 372.0, -3684.16 372.17, -3720.93 372.33, -3758.0 372.5, -3795.38 372.67, -3833.07 372.83, -3871.07 373.0, -3909.39 373.17, -3948.02 373.33, -3986.97 373.5, -4026.24 373.67, -4065.84 373.83, -4105.76 374.0, -4146.0 374.17, -4186.58 374.33, -4227.49 374.5, -4268.74 374.67, -4310.32 374.83, -4352.24 375.0, -4394.5 375.17, -4437.1 375.33, -4480.05 375.5, -4523.35 375.67, -4567.0 375.83, -4611.01 376.0, -4655.37 376.17, -4700.09 376.33, -4745.16 376.5, -4790.61 376.67, -4836.41 376.83, -4882.59 377.0, -4929.13 377.17, -4976.05 377.33, -5023.34 377.5, -5071.01 377.67, -5119.07 377.83, -5167.5 378.0, -5216.32 378.17, -5265.53 378.33, -5315.13 378.5, -5365.12 378.67, -5415.51 378.83, -5466.3 379.0, -5517.49 379.17, -5569.08 379.33, -5621.08 379.5, -5673.49 379.67, -5726.31 379.83, -5779.54 380.0, -5833.2 380.17, -5887.27 380.33, -5941.76 380.5, -5996.69 380.67, -6052.04 380.83, -6107.82 381.0, -6164.03 381.17, -6220.68 381.33, -6277.78 381.5, -6335.31 381.67, -6393.29 381.83, -6451.72 382.0, -6510.6 382.17, -6569.93 382.33, -6629.72 382.5, -6689.97 382.67, -6750.69 382.83, -6811.87 383.0, -6873.51 383.17, -6935.63 383.33, -6998.23 383.5, -7061.3 383.67, -7124.86 383.83, -7188.89 384.0, -7253.42 384.17, -7318.43 384.33, -7383.94 384.5, -7449.95 384.67, -7516.45 384.83, -7583.46 385.0, -7650.97 385.17, -7718.99 385.33, -7787.53 385.5, -7856.57 385.67, -7926.14 385.83, -7996.23 386.0, -8066.84 386.17, -8137.99 386.33, -8209.66 386.5, -8281.87 386.67, -8354.62 386.83, -8427.9 387.0, -8501.74 387.17, -8576.12 387.33, -8651.05 387.5, -8726.54 387.67, -8802.59 387.83, -8879.19 388.0, -8956.37 388.17, -9034.11 388.33, -9112.42 388.5, -9191.31 388.67, -9270.78 388.83, -9350.83 389.0, -9431.46 389.17, -9512.69 389.33, -9594.51 389.5, -9676.92 389.67, -9759.94 389.83, -9843.56 390.0, -9927.78 390.17, -10012.62 390.33, -10098.07 390.5, -10184.14 390.67, -10270.84 390.83, -10358.16 391.0, -10446.1 391.17, -10534.68 391.33, -10623.9 391.5, -10713.76 391.67, -10804.27 391.83, -10895.42 392.0, -10987.22 392.17, -11079.68 392.33, -11172.8 392.5, -11266.58 392.67, -11361.03 392.83, -11456.16 393.0, -11551.95 393.17, -11648.43 393.33, -11745.59 393.5, -11843.43 393.67, -11941.97 393.83, -12041.2 394.0, -12141.13 394.17, -12241.77 394.33, -12343.11 394.5, -12445.16 394.67, -12547.93 394.83, -12651.42 395.0, -12755.63 395.17, -12860.57 395.33, -12966.24 395.5, -13072.64 395.67, -13179.79 395.83, -13287.68 396.0, -13396.32 396.17, -13505.71 396.33, -13615.85 396.5, -13726.76 396.67, -13838.44 396.83, -13950.88 397.0, -14064.1 397.17, -14178.09 397.33, -14292.87 397.5, -14408.44 397.67, -14524.8 397.83, -14641.95 398.0, -14759.9 398.17, -14878.66 398.33, -14998.23 398.5, -15118.61 398.67, -15239.8 398.83, -15361.82 399.0, -15484.67 399.17, -15608.35 399.33, -15732.87 399.5, -15858.22 399.67, -15984.42 399.83, -16111.47 400.0, -16239.38 " fill="none" stroke="white" stroke-width="1.5" stroke-linejoin="round" stroke-opacity="1"/>

 </svg>