<svg version="1.1" 
 baseProfile="full" 
 width="400" 
 height="400" 
 xmlns="http://www.w3.org/2000/svg">
<rect x="0.0" y="0.0" width="400" height="400" fill="black" stroke="black" stroke-width="0" opacity="1"/>
<line x1="0.0" y1="0.0" x2="0.0" y2="400.0" stroke="white" stroke-width="1" opacity="0.4" stroke-linecap="butt"/>
<line x1="40.0" y1="0.0" x2="40.0" y2="400.0" stroke="white" stroke-width="1" opacity="0.4" stroke-linecap="butt"/>
<line x1="80.0" y1="0.0" x2="80.0" y2="400.0" stroke="white" stroke-width="1" opacity="0.4" stroke-linecap="butt"/>
<line x1="120.0" y1="0.0" x2="120.0" y2="400.0" stroke="white" stroke-width="1" opacity="0.4" stroke-linecap="butt"/>
<line x1="160.0" y1="0.0" x2="160.0" y2="400.0" stroke="white" stroke-width="1" opacity="0.4" stroke-linecap="butt"/>
<line x1="200.0" y1="0.0" x2="200.0" y2="400.0" stroke="white" stroke-width="1" opacity="0.4" stroke-linecap="butt"/>
<line x1="240.0" y1="0.0" x2="240.0" y2="400.0" stroke="white" stroke-width="1" opacity="0.4" stroke-linecap="butt"/>
<line x1="280.0" y1="0.0" x2="280.0" y2="400.0" stroke="white" stroke-width="1" opacity="0.4" stroke-linecap="butt"/>
<line x1="320.0" y1="0.0" x2="320.0" y2="400.0" stroke="white" stroke-width="1" opacity="0.4" stroke-linecap="butt"/>
<line x1="360.0" y1="0.0" x2="360.0" y2="400.0" stroke="white" stroke-width="1" opacity="0.4" stroke-linecap="butt"/>
<line x1="0.0" y1="0.0" x2="400.0" y2="0.0" stroke="white" stroke-width="1" opacity="0.4" stroke-linecap="butt"/>
<line x1="0.0" y1="40.0" x2="400.0" y2="40.0" stroke="white" stroke-width="1" opacity="0.4" stroke-linecap="butt"/>
<line x1="0.0" y1="80.0" x2="400.0" y2="80.0" stroke="white" stroke-width="1" opacity="0.4" stroke-linecap="butt"/>
<line x1="0.0" y1="120.0" x2="400.0" y2="120.0" stroke="white" stroke-width="1" opacity="0.4" stroke-linecap="butt"/>
<line x1="0.0" y1="160.0" x2="400.0" y2="160.0" stroke="white" stroke-width="1" opacity="0.4" stroke-linecap="butt"/>
<line x1="0.0" y1="200.0" x2="400.0" y2="200.0" stroke="white" stroke-width="1" opacity="0.4" stroke-linecap="butt"/>
<line x1="0.0" y1="240.0" x2="400.0" y2="240.0" stroke="white" stroke-width="1" opacity="0.4" stroke-linecap="butt"/>
<line x1="0.0" y1="280.0" x2="400.0" y2="280.0" stroke="white" stroke-width="1" opacity="0.4" stroke-linecap="butt"/>
<line x1="0.0" y1="320.0" x2="400.0" y2="320.0" stroke="white" stroke-width="1" opacity="0.4" stroke-linecap="butt"/>
<line x1="0.0" y1="360.0" x2="400.0" y2="360.0" stroke="white" stroke-width="1" opacity="0.4" stroke-linecap="butt"/>
<line x1="0.0" y1="200.0" x2="400.0" y2="200.0" stroke="yellow" stroke-width="2.5" opacity="1" stroke-linecap="butt"/>
<line x1="200.0" y1="0.0" x2="200.0" y2="400.0" stroke="yellow" stroke-width="2.5" opacity="1" stroke-linecap="butt"/>
<polygon points="391.0 204.0, 401.0 200.0, 391.0 196.0, 393.0 200.0" fill="yellow"/><polygon points="204.0 9.0, 200.0 -1.0, 196.0 9.0, 200.0 7.0" fill="yellow"/><image x="-60.0" y="-60.0" width="200" height="200" href="/Users/girirajhira/PycharmProjects/Giraphics3/Taylor/expr.png"/><polyline points="0.0, 2234.42 0.17, 2238.01 0.33, 2241.36 0.5, 2244.48 0.67, 2247.37 0.83, 2250.03 1.0, 2252.47 1.17, 2254.69 1.33, 2256.69 1.5, 2258.47 1.67, 2260.05 1.83, 2261.42 2.0, 2262.59 2.17, 2263.55 2.33, 2264.32 2.5, 2264.89 2.67, 2265.28 2.83, 2265.47 3.0, 2265.48 3.17, 2265.31 3.33, 2264.95 3.5, 2264.43 3.67, 2263.72 3.83, 2262.85 4.0, 2261.81 4.17, 2260.61 4.33, 2259.24 4.5, 2257.71 4.67, 2256.03 4.83, 2254.19 5.0, 2252.21 5.17, 2250.07 5.33, 2247.79 5.5, 2245.36 5.67, 2242.79 5.83, 2240.09 6.0, 2237.25 6.17, 2234.27 6.33, 2231.16 6.5, 2227.93 6.67, 2224.57 6.83, 2221.08 7.0, 2217.48 7.17, 2213.75 7.33, 2209.91 7.5, 2205.95 7.67, 2201.88 7.83, 2197.7 8.0, 2193.41 8.17, 2189.01 8.33, 2184.51 8.5, 2179.91 8.67, 2175.21 8.83, 2170.41 9.0, 2165.51 9.17, 2160.52 9.33, 2155.44 9.5, 2150.27 9.67, 2145.01 9.83, 2139.67 10.0, 2134.24 10.17, 2128.73 10.33, 2123.13 10.5, 2117.46 10.67, 2111.71 10.83, 2105.89 11.0, 2099.99 11.17, 2094.02 11.33, 2087.98 11.5, 2081.88 11.67, 2075.7 11.83, 2069.46 12.0, 2063.16 12.17, 2056.79 12.33, 2050.37 12.5, 2043.88 12.67, 2037.34 12.83, 2030.74 13.0, 2024.09 13.17, 2017.39 13.33, 2010.63 13.5, 2003.82 13.67, 1996.97 13.83, 1990.07 14.0, 1983.12 14.17, 1976.13 14.33, 1969.09 14.5, 1962.02 14.67, 1954.9 14.83, 1947.74 15.0, 1940.55 15.17, 1933.32 15.33, 1926.05 15.5, 1918.75 15.67, 1911.42 15.83, 1904.05 16.0, 1896.66 16.17, 1889.23 16.33, 1881.78 16.5, 1874.3 16.67, 1866.79 16.83, 1859.26 17.0, 1851.71 17.17, 1844.13 17.33, 1836.53 17.5, 1828.91 17.67, 1821.27 17.83, 1813.61 18.0, 1805.93 18.17, 1798.24 18.33, 1790.53 18.5, 1782.8 18.67, 1775.07 18.83, 1767.31 19.0, 1759.55 19.17, 1751.78 19.33, 1743.99 19.5, 1736.2 19.67, 1728.39 19.83, 1720.58 20.0, 1712.77 20.17, 1704.94 20.33, 1697.11 20.5, 1689.28 20.67, 1681.44 20.83, 1673.6 21.0, 1665.76 21.17, 1657.91 21.33, 1650.07 21.5, 1642.22 21.67, 1634.38 21.83, 1626.54 22.0, 1618.7 22.17, 1610.86 22.33, 1603.02 22.5, 1595.19 22.67, 1587.36 22.83, 1579.54 23.0, 1571.73 23.17, 1563.92 23.33, 1556.11 23.5, 1548.32 23.67, 1540.53 23.83, 1532.76 24.0, 1524.99 24.17, 1517.23 24.33, 1509.48 24.5, 1501.74 24.67, 1494.02 24.83, 1486.3 25.0, 1478.6 25.17, 1470.92 25.33, 1463.24 25.5, 1455.58 25.67, 1447.93 25.83, 1440.3 26.0, 1432.68 26.17, 1425.08 26.33, 1417.5 26.5, 1409.93 26.67, 1402.38 26.83, 1394.84 27.0, 1387.33 27.17, 1379.83 27.33, 1372.35 27.5, 1364.89 27.67, 1357.44 27.83, 1350.02 28.0, 1342.62 28.17, 1335.24 28.33, 1327.87 28.5, 1320.53 28.67, 1313.21 28.83, 1305.91 29.0, 1298.64 29.17, 1291.38 29.33, 1284.15 29.5, 1276.94 29.67, 1269.76 29.83, 1262.59 30.0, 1255.45 30.17, 1248.34 30.33, 1241.24 30.5, 1234.18 30.67, 1227.13 30.83, 1220.12 31.0, 1213.12 31.17, 1206.15 31.33, 1199.21 31.5, 1192.29 31.67, 1185.4 31.83, 1178.54 32.0, 1171.7 32.17, 1164.88 32.33, 1158.1 32.5, 1151.33 32.67, 1144.6 32.83, 1137.9 33.0, 1131.22 33.17, 1124.56 33.33, 1117.94 33.5, 1111.34 33.67, 1104.77 33.83, 1098.23 34.0, 1091.72 34.17, 1085.24 34.33, 1078.78 34.5, 1072.35 34.67, 1065.95 34.83, 1059.58 35.0, 1053.24 35.17, 1046.92 35.33, 1040.64 35.5, 1034.38 35.67, 1028.16 35.83, 1021.96 36.0, 1015.79 36.17, 1009.65 36.33, 1003.54 36.5, 997.46 36.67, 991.41 36.83, 985.39 37.0, 979.4 37.17, 973.43 37.33, 967.5 37.5, 961.6 37.67, 955.73 37.83, 949.88 38.0, 944.07 38.17, 938.28 38.33, 932.53 38.5, 926.81 38.67, 921.11 38.83, 915.45 39.0, 909.82 39.17, 904.21 39.33, 898.64 39.5, 893.09 39.67, 887.58 39.83, 882.09 40.0, 876.64 40.17, 871.22 40.33, 865.82 40.5, 860.46 40.67, 855.12 40.83, 849.82 41.0, 844.54 41.17, 839.3 41.33, 834.08 41.5, 828.9 41.67, 823.74 41.83, 818.62 42.0, 813.52 42.17, 808.45 42.33, 803.42 42.5, 798.41 42.67, 793.43 42.83, 788.48 43.0, 783.56 43.17, 778.67 43.33, 773.81 43.5, 768.98 43.67, 764.18 43.83, 759.41 44.0, 754.67 44.17, 749.95 44.33, 745.27 44.5, 740.61 44.67, 735.98 44.83, 731.38 45.0, 726.81 45.17, 722.27 45.33, 717.76 45.5, 713.28 45.67, 708.82 45.83, 704.39 46.0, 699.99 46.17, 695.62 46.33, 691.28 46.5, 686.97 46.67, 682.68 46.83, 678.42 47.0, 674.19 47.17, 669.99 47.33, 665.81 47.5, 661.66 47.67, 657.54 47.83, 653.45 48.0, 649.38 48.17, 645.34 48.33, 641.33 48.5, 637.35 48.67, 633.39 48.83, 629.46 49.0, 625.55 49.17, 621.67 49.33, 617.82 49.5, 614.0 49.67, 610.2 49.83, 606.43 50.0, 602.68 50.17, 598.96 50.33, 595.26 50.5, 591.59 50.67, 587.95 50.83, 584.33 51.0, 580.74 51.17, 577.17 51.33, 573.63 51.5, 570.11 51.67, 566.62 51.83, 563.15 52.0, 559.71 52.17, 556.29 52.33, 552.9 52.5, 549.53 52.67, 546.19 52.83, 542.87 53.0, 539.57 53.17, 536.3 53.33, 533.05 53.5, 529.83 53.67, 526.63 53.83, 523.45 54.0, 520.3 54.17, 517.17 54.33, 514.06 54.5, 510.97 54.67, 507.91 54.83, 504.87 55.0, 501.86 55.17, 498.87 55.33, 495.89 55.5, 492.95 55.67, 490.02 55.83, 487.12 56.0, 484.23 56.17, 481.37 56.33, 478.54 56.5, 475.72 56.67, 472.92 56.83, 470.15 57.0, 467.4 57.17, 464.67 57.33, 461.96 57.5, 459.27 57.67, 456.6 57.83, 453.95 58.0, 451.33 58.17, 448.72 58.33, 446.13 58.5, 443.57 58.67, 441.02 58.83, 438.5 59.0, 435.99 59.17, 433.5 59.33, 431.04 59.5, 428.59 59.67, 426.16 59.83, 423.75 60.0, 421.37 60.17, 419.0 60.33, 416.65 60.5, 414.31 60.67, 412.0 60.83, 409.71 61.0, 407.43 61.17, 405.17 61.33, 402.93 61.5, 400.71 61.67, 398.51 61.83, 396.32 62.0, 394.15 62.17, 392.0 62.33, 389.87 62.5, 387.76 62.67, 385.66 62.83, 383.58 63.0, 381.52 63.17, 379.47 63.33, 377.44 63.5, 375.43 63.67, 373.43 63.83, 371.46 64.0, 369.49 64.17, 367.55 64.33, 365.62 64.5, 363.7 64.67, 361.81 64.83, 359.92 65.0, 358.06 65.17, 356.21 65.33, 354.37 65.5, 352.56 65.67, 350.75 65.83, 348.96 66.0, 347.19 66.17, 345.43 66.33, 343.69 66.5, 341.96 66.67, 340.25 66.83, 338.55 67.0, 336.87 67.17, 335.2 67.33, 333.54 67.5, 331.9 67.67, 330.27 67.83, 328.66 68.0, 327.06 68.17, 325.48 68.33, 323.91 68.5, 322.35 68.67, 320.81 68.83, 319.28 69.0, 317.76 69.17, 316.26 69.33, 314.77 69.5, 313.29 69.67, 311.82 69.83, 310.37 70.0, 308.93 70.17, 307.51 70.33, 306.1 70.5, 304.7 70.67, 303.31 70.83, 301.93 71.0, 300.57 71.17, 299.22 71.33, 297.88 71.5, 296.55 71.67, 295.24 71.83, 293.93 72.0, 292.64 72.17, 291.36 72.33, 290.09 72.5, 288.84 72.67, 287.59 72.83, 286.36 73.0, 285.13 73.17, 283.92 73.33, 282.72 73.5, 281.53 73.67, 280.35 73.83, 279.18 74.0, 278.03 74.17, 276.88 74.33, 275.74 74.5, 274.62 74.67, 273.5 74.83, 272.4 75.0, 271.3 75.17, 270.22 75.33, 269.14 75.5, 268.08 75.67, 267.03 75.83, 265.98 76.0, 264.95 76.17, 263.92 76.33, 262.91 76.5, 261.9 76.67, 260.9 76.83, 259.92 77.0, 258.94 77.17, 257.97 77.33, 257.01 77.5, 256.06 77.67, 255.12 77.83, 254.19 78.0, 253.27 78.17, 252.35 78.33, 251.45 78.5, 250.55 78.67, 249.66 78.83, 248.79 79.0, 247.92 79.17, 247.05 79.33, 246.2 79.5, 245.35 79.67, 244.52 79.83, 243.69 80.0, 242.87 80.17, 242.05 80.33, 241.25 80.5, 240.45 80.67, 239.66 80.83, 238.88 81.0, 238.11 81.17, 237.34 81.33, 236.59 81.5, 235.83 81.67, 235.09 81.83, 234.36 82.0, 233.63 82.17, 232.91 82.33, 232.19 82.5, 231.49 82.67, 230.79 82.83, 230.1 83.0, 229.41 83.17, 228.74 83.33, 228.07 83.5, 227.4 83.67, 226.74 83.83, 226.09 84.0, 225.45 84.17, 224.82 84.33, 224.19 84.5, 223.56 84.67, 222.95 84.83, 222.33 85.0, 221.73 85.17, 221.13 85.33, 220.54 85.5, 219.96 85.67, 219.38 85.83, 218.81 86.0, 218.24 86.17, 217.68 86.33, 217.13 86.5, 216.58 86.67, 216.04 86.83, 215.5 87.0, 214.97 87.17, 214.45 87.33, 213.93 87.5, 213.42 87.67, 212.91 87.83, 212.41 88.0, 211.91 88.17, 211.42 88.33, 210.94 88.5, 210.46 88.67, 209.98 88.83, 209.52 89.0, 209.05 89.17, 208.6 89.33, 208.14 89.5, 207.7 89.67, 207.26 89.83, 206.82 90.0, 206.39 90.17, 205.96 90.33, 205.54 90.5, 205.12 90.67, 204.71 90.83, 204.31 91.0, 203.91 91.17, 203.51 91.33, 203.12 91.5, 202.73 91.67, 202.35 91.83, 201.97 92.0, 201.6 92.17, 201.23 92.33, 200.87 92.5, 200.51 92.67, 200.16 92.83, 199.81 93.0, 199.46 93.17, 199.12 93.33, 198.78 93.5, 198.45 93.67, 198.13 93.83, 197.8 94.0, 197.48 94.17, 197.17 94.33, 196.86 94.5, 196.55 94.67, 196.25 94.83, 195.95 95.0, 195.66 95.17, 195.37 95.33, 195.09 95.5, 194.8 95.67, 194.53 95.83, 194.25 96.0, 193.98 96.17, 193.72 96.33, 193.46 96.5, 193.2 96.67, 192.95 96.83, 192.7 97.0, 192.45 97.17, 192.21 97.33, 191.97 97.5, 191.74 97.67, 191.5 97.83, 191.28 98.0, 191.05 98.17, 190.83 98.33, 190.62 98.5, 190.4 98.67, 190.19 98.83, 189.99 99.0, 189.79 99.17, 189.59 99.33, 189.39 99.5, 189.2 99.67, 189.01 99.83, 188.82 100.0, 188.64 100.17, 188.46 100.33, 188.29 100.5, 188.12 100.67, 187.95 100.83, 187.78 101.0, 187.62 101.17, 187.46 101.33, 187.3 101.5, 187.15 101.67, 187.0 101.83, 186.86 102.0, 186.71 102.17, 186.57 102.33, 186.43 102.5, 186.3 102.67, 186.17 102.83, 186.04 103.0, 185.92 103.17, 185.79 103.33, 185.67 103.5, 185.56 103.67, 185.44 103.83, 185.33 104.0, 185.23 104.17, 185.12 104.33, 185.02 104.5, 184.92 104.67, 184.82 104.83, 184.73 105.0, 184.64 105.17, 184.55 105.33, 184.46 105.5, 184.38 105.67, 184.3 105.83, 184.22 106.0, 184.15 106.17, 184.07 106.33, 184.0 106.5, 183.94 106.67, 183.87 106.83, 183.81 107.0, 183.75 107.17, 183.69 107.33, 183.64 107.5, 183.59 107.67, 183.54 107.83, 183.49 108.0, 183.45 108.17, 183.4 108.33, 183.36 108.5, 183.33 108.67, 183.29 108.83, 183.26 109.0, 183.23 109.17, 183.2 109.33, 183.17 109.5, 183.15 109.67, 183.13 109.83, 183.11 110.0, 183.09 110.17, 183.08 110.33, 183.07 110.5, 183.06 110.67, 183.05 110.83, 183.04 111.0, 183.04 111.17, 183.04 111.33, 183.04 111.5, 183.04 111.67, 183.05 111.83, 183.05 112.0, 183.06 112.17, 183.07 112.33, 183.08 112.5, 183.1 112.67, 183.12 112.83, 183.14 113.0, 183.16 113.17, 183.18 113.33, 183.2 113.5, 183.23 113.67, 183.26 113.83, 183.29 114.0, 183.32 114.17, 183.36 114.33, 183.39 114.5, 183.43 114.67, 183.47 114.83, 183.51 115.0, 183.56 115.17, 183.6 115.33, 183.65 115.5, 183.7 115.67, 183.75 115.83, 183.8 116.0, 183.86 116.17, 183.91 116.33, 183.97 116.5, 184.03 116.67, 184.09 116.83, 184.15 117.0, 184.22 117.17, 184.28 117.33, 184.35 117.5, 184.42 117.67, 184.49 117.83, 184.56 118.0, 184.64 118.17, 184.71 118.33, 184.79 118.5, 184.87 118.67, 184.95 118.83, 185.03 119.0, 185.11 119.17, 185.19 119.33, 185.28 119.5, 185.37 119.67, 185.45 119.83, 185.54 120.0, 185.64 120.17, 185.73 120.33, 185.82 120.5, 185.92 120.67, 186.01 120.83, 186.11 121.0, 186.21 121.17, 186.31 121.33, 186.42 121.5, 186.52 121.67, 186.62 121.83, 186.73 122.0, 186.84 122.17, 186.94 122.33, 187.05 122.5, 187.16 122.67, 187.28 122.83, 187.39 123.0, 187.5 123.17, 187.62 123.33, 187.74 123.5, 187.85 123.67, 187.97 123.83, 188.09 124.0, 188.21 124.17, 188.33 124.33, 188.46 124.5, 188.58 124.67, 188.71 124.83, 188.83 125.0, 188.96 125.17, 189.09 125.33, 189.22 125.5, 189.35 125.67, 189.48 125.83, 189.61 126.0, 189.74 126.17, 189.88 126.33, 190.01 126.5, 190.15 126.67, 190.28 126.83, 190.42 127.0, 190.56 127.17, 190.7 127.33, 190.84 127.5, 190.98 127.67, 191.12 127.83, 191.26 128.0, 191.4 128.17, 191.55 128.33, 191.69 128.5, 191.84 128.67, 191.98 128.83, 192.13 129.0, 192.28 129.17, 192.42 129.33, 192.57 129.5, 192.72 129.67, 192.87 129.83, 193.02 130.0, 193.17 130.17, 193.32 130.33, 193.48 130.5, 193.63 130.67, 193.78 130.83, 193.94 131.0, 194.09 131.17, 194.25 131.33, 194.4 131.5, 194.56 131.67, 194.71 131.83, 194.87 132.0, 195.03 132.17, 195.18 132.33, 195.34 132.5, 195.5 132.67, 195.66 132.83, 195.82 133.0, 195.98 133.17, 196.14 133.33, 196.3 133.5, 196.46 133.67, 196.62 133.83, 196.78 134.0, 196.95 134.17, 197.11 134.33, 197.27 134.5, 197.43 134.67, 197.6 134.83, 197.76 135.0, 197.92 135.17, 198.08 135.33, 198.25 135.5, 198.41 135.67, 198.58 135.83, 198.74 136.0, 198.9 136.17, 199.07 136.33, 199.23 136.5, 199.4 136.67, 199.56 136.83, 199.73 137.0, 199.89 137.17, 200.06 137.33, 200.22 137.5, 200.39 137.67, 200.55 137.83, 200.72 138.0, 200.88 138.17, 201.05 138.33, 201.21 138.5, 201.38 138.67, 201.54 138.83, 201.71 139.0, 201.87 139.17, 202.04 139.33, 202.2 139.5, 202.37 139.67, 202.53 139.83, 202.69 140.0, 202.86 140.17, 203.02 140.33, 203.19 140.5, 203.35 140.67, 203.51 140.83, 203.68 141.0, 203.84 141.17, 204.0 141.33, 204.16 141.5, 204.33 141.67, 204.49 141.83, 204.65 142.0, 204.81 142.17, 204.97 142.33, 205.13 142.5, 205.29 142.67, 205.45 142.83, 205.61 143.0, 205.77 143.17, 205.93 143.33, 206.09 143.5, 206.25 143.67, 206.4 143.83, 206.56 144.0, 206.72 144.17, 206.87 144.33, 207.03 144.5, 207.18 144.67, 207.34 144.83, 207.49 145.0, 207.65 145.17, 207.8 145.33, 207.95 145.5, 208.11 145.67, 208.26 145.83, 208.41 146.0, 208.56 146.17, 208.71 146.33, 208.86 146.5, 209.01 146.67, 209.16 146.83, 209.3 147.0, 209.45 147.17, 209.6 147.33, 209.74 147.5, 209.89 147.67, 210.03 147.83, 210.17 148.0, 210.32 148.17, 210.46 148.33, 210.6 148.5, 210.74 148.67, 210.88 148.83, 211.02 149.0, 211.16 149.17, 211.3 149.33, 211.43 149.5, 211.57 149.67, 211.71 149.83, 211.84 150.0, 211.97 150.17, 212.11 150.33, 212.24 150.5, 212.37 150.67, 212.5 150.83, 212.63 151.0, 212.76 151.17, 212.89 151.33, 213.01 151.5, 213.14 151.67, 213.27 151.83, 213.39 152.0, 213.51 152.17, 213.63 152.33, 213.76 152.5, 213.88 152.67, 214.0 152.83, 214.11 153.0, 214.23 153.17, 214.35 153.33, 214.46 153.5, 214.58 153.67, 214.69 153.83, 214.8 154.0, 214.92 154.17, 215.03 154.33, 215.14 154.5, 215.24 154.67, 215.35 154.83, 215.46 155.0, 215.56 155.17, 215.67 155.33, 215.77 155.5, 215.87 155.67, 215.97 155.83, 216.07 156.0, 216.17 156.17, 216.27 156.33, 216.37 156.5, 216.46 156.67, 216.55 156.83, 216.65 157.0, 216.74 157.17, 216.83 157.33, 216.92 157.5, 217.01 157.67, 217.09 157.83, 217.18 158.0, 217.26 158.17, 217.35 158.33, 217.43 158.5, 217.51 158.67, 217.59 158.83, 217.67 159.0, 217.75 159.17, 217.82 159.33, 217.9 159.5, 217.97 159.67, 218.05 159.83, 218.12 160.0, 218.19 160.17, 218.26 160.33, 218.32 160.5, 218.39 160.67, 218.45 160.83, 218.52 161.0, 218.58 161.17, 218.64 161.33, 218.7 161.5, 218.76 161.67, 218.82 161.83, 218.87 162.0, 218.93 162.17, 218.98 162.33, 219.03 162.5, 219.08 162.67, 219.13 162.83, 219.18 163.0, 219.23 163.17, 219.27 163.33, 219.31 163.5, 219.36 163.67, 219.4 163.83, 219.44 164.0, 219.48 164.17, 219.51 164.33, 219.55 164.5, 219.58 164.67, 219.62 164.83, 219.65 165.0, 219.68 165.17, 219.71 165.33, 219.74 165.5, 219.76 165.67, 219.79 165.83, 219.81 166.0, 219.83 166.17, 219.85 166.33, 219.87 166.5, 219.89 166.67, 219.91 166.83, 219.92 167.0, 219.94 167.17, 219.95 167.33, 219.96 167.5, 219.97 167.67, 219.98 167.83, 219.99 168.0, 219.99 168.17, 220.0 168.33, 220.0 168.5, 220.0 168.67, 220.0 168.83, 220.0 169.0, 220.0 169.17, 219.99 169.33, 219.99 169.5, 219.98 169.67, 219.97 169.83, 219.96 170.0, 219.95 170.17, 219.94 170.33, 219.92 170.5, 219.91 170.67, 219.89 170.83, 219.87 171.0, 219.85 171.17, 219.83 171.33, 219.81 171.5, 219.79 171.67, 219.76 171.83, 219.74 172.0, 219.71 172.17, 219.68 172.33, 219.65 172.5, 219.62 172.67, 219.58 172.83, 219.55 173.0, 219.51 173.17, 219.48 173.33, 219.44 173.5, 219.4 173.67, 219.36 173.83, 219.32 174.0, 219.27 174.17, 219.23 174.33, 219.18 174.5, 219.13 174.67, 219.08 174.83, 219.03 175.0, 218.98 175.17, 218.93 175.33, 218.87 175.5, 218.82 175.67, 218.76 175.83, 218.7 176.0, 218.64 176.17, 218.58 176.33, 218.52 176.5, 218.45 176.67, 218.39 176.83, 218.32 177.0, 218.26 177.17, 218.19 177.33, 218.12 177.5, 218.05 177.67, 217.97 177.83, 217.9 178.0, 217.82 178.17, 217.75 178.33, 217.67 178.5, 217.59 178.67, 217.51 178.83, 217.43 179.0, 217.35 179.17, 217.26 179.33, 217.18 179.5, 217.09 179.67, 217.01 179.83, 216.92 180.0, 216.83 180.17, 216.74 180.33, 216.65 180.5, 216.55 180.67, 216.46 180.83, 216.36 181.0, 216.27 181.17, 216.17 181.33, 216.07 181.5, 215.97 181.67, 215.87 181.83, 215.77 182.0, 215.67 182.17, 215.56 182.33, 215.46 182.5, 215.35 182.67, 215.24 182.83, 215.14 183.0, 215.03 183.17, 214.92 183.33, 214.8 183.5, 214.69 183.67, 214.58 183.83, 214.46 184.0, 214.35 184.17, 214.23 184.33, 214.11 184.5, 213.99 184.67, 213.87 184.83, 213.75 185.0, 213.63 185.17, 213.51 185.33, 213.39 185.5, 213.26 185.67, 213.14 185.83, 213.01 186.0, 212.88 186.17, 212.76 186.33, 212.63 186.5, 212.5 186.67, 212.37 186.83, 212.24 187.0, 212.1 187.17, 211.97 187.33, 211.84 187.5, 211.7 187.67, 211.57 187.83, 211.43 188.0, 211.29 188.17, 211.15 188.33, 211.02 188.5, 210.88 188.67, 210.74 188.83, 210.6 189.0, 210.45 189.17, 210.31 189.33, 210.17 189.5, 210.02 189.67, 209.88 189.83, 209.73 190.0, 209.59 190.17, 209.44 190.33, 209.29 190.5, 209.15 190.67, 209.0 190.83, 208.85 191.0, 208.7 191.17, 208.55 191.33, 208.4 191.5, 208.25 191.67, 208.09 191.83, 207.94 192.0, 207.79 192.17, 207.63 192.33, 207.48 192.5, 207.33 192.67, 207.17 192.83, 207.01 193.0, 206.86 193.17, 206.7 193.33, 206.54 193.5, 206.39 193.67, 206.23 193.83, 206.07 194.0, 205.91 194.17, 205.75 194.33, 205.59 194.5, 205.43 194.67, 205.27 194.83, 205.11 195.0, 204.95 195.17, 204.79 195.33, 204.62 195.5, 204.46 195.67, 204.3 195.83, 204.14 196.0, 203.97 196.17, 203.81 196.33, 203.65 196.5, 203.48 196.67, 203.32 196.83, 203.15 197.0, 202.99 197.17, 202.82 197.33, 202.66 197.5, 202.49 197.67, 202.33 197.83, 202.16 198.0, 202.0 198.17, 201.83 198.33, 201.66 198.5, 201.5 198.67, 201.33 198.83, 201.17 199.0, 201.0 199.17, 200.83 199.33, 200.67 199.5, 200.5 199.67, 200.33 199.83, 200.17 200.0, 200.0 200.17, 199.83 200.33, 199.67 200.5, 199.5 200.67, 199.33 200.83, 199.17 201.0, 199.0 201.17, 198.83 201.33, 198.67 201.5, 198.5 201.67, 198.34 201.83, 198.17 202.0, 198.0 202.17, 197.84 202.33, 197.67 202.5, 197.51 202.67, 197.34 202.83, 197.18 203.0, 197.01 203.17, 196.85 203.33, 196.68 203.5, 196.52 203.67, 196.35 203.83, 196.19 204.0, 196.03 204.17, 195.86 204.33, 195.7 204.5, 195.54 204.67, 195.38 204.83, 195.21 205.0, 195.05 205.17, 194.89 205.33, 194.73 205.5, 194.57 205.67, 194.41 205.83, 194.25 206.0, 194.09 206.17, 193.93 206.33, 193.77 206.5, 193.61 206.67, 193.46 206.83, 193.3 207.0, 193.14 207.17, 192.99 207.33, 192.83 207.5, 192.67 207.67, 192.52 207.83, 192.37 208.0, 192.21 208.17, 192.06 208.33, 191.91 208.5, 191.75 208.67, 191.6 208.83, 191.45 209.0, 191.3 209.17, 191.15 209.33, 191.0 209.5, 190.85 209.67, 190.71 209.83, 190.56 210.0, 190.41 210.17, 190.27 210.33, 190.12 210.5, 189.98 210.67, 189.83 210.83, 189.69 211.0, 189.55 211.17, 189.4 211.33, 189.26 211.5, 189.12 211.67, 188.98 211.83, 188.85 212.0, 188.71 212.17, 188.57 212.33, 188.43 212.5, 188.3 212.67, 188.16 212.83, 188.03 213.0, 187.9 213.17, 187.76 213.33, 187.63 213.5, 187.5 213.67, 187.37 213.83, 187.24 214.0, 187.12 214.17, 186.99 214.33, 186.86 214.5, 186.74 214.67, 186.61 214.83, 186.49 215.0, 186.37 215.17, 186.25 215.33, 186.13 215.5, 186.01 215.67, 185.89 215.83, 185.77 216.0, 185.65 216.17, 185.54 216.33, 185.42 216.5, 185.31 216.67, 185.2 216.83, 185.08 217.0, 184.97 217.17, 184.86 217.33, 184.76 217.5, 184.65 217.67, 184.54 217.83, 184.44 218.0, 184.33 218.17, 184.23 218.33, 184.13 218.5, 184.03 218.67, 183.93 218.83, 183.83 219.0, 183.73 219.17, 183.64 219.33, 183.54 219.5, 183.45 219.67, 183.35 219.83, 183.26 220.0, 183.17 220.17, 183.08 220.33, 182.99 220.5, 182.91 220.67, 182.82 220.83, 182.74 221.0, 182.65 221.17, 182.57 221.33, 182.49 221.5, 182.41 221.67, 182.33 221.83, 182.25 222.0, 182.18 222.17, 182.1 222.33, 182.03 222.5, 181.95 222.67, 181.88 222.83, 181.81 223.0, 181.74 223.17, 181.68 223.33, 181.61 223.5, 181.55 223.67, 181.48 223.83, 181.42 224.0, 181.36 224.17, 181.3 224.33, 181.24 224.5, 181.18 224.67, 181.13 224.83, 181.07 225.0, 181.02 225.17, 180.97 225.33, 180.92 225.5, 180.87 225.67, 180.82 225.83, 180.77 226.0, 180.73 226.17, 180.68 226.33, 180.64 226.5, 180.6 226.67, 180.56 226.83, 180.52 227.0, 180.49 227.17, 180.45 227.33, 180.42 227.5, 180.38 227.67, 180.35 227.83, 180.32 228.0, 180.29 228.17, 180.26 228.33, 180.24 228.5, 180.21 228.67, 180.19 228.83, 180.17 229.0, 180.15 229.17, 180.13 229.33, 180.11 229.5, 180.09 229.67, 180.08 229.83, 180.06 230.0, 180.05 230.17, 180.04 230.33, 180.03 230.5, 180.02 230.67, 180.01 230.83, 180.01 231.0, 180.0 231.17, 180.0 231.33, 180.0 231.5, 180.0 231.67, 180.0 231.83, 180.0 232.0, 180.01 232.17, 180.01 232.33, 180.02 232.5, 180.03 232.67, 180.04 232.83, 180.05 233.0, 180.06 233.17, 180.08 233.33, 180.09 233.5, 180.11 233.67, 180.13 233.83, 180.15 234.0, 180.17 234.17, 180.19 234.33, 180.21 234.5, 180.24 234.67, 180.26 234.83, 180.29 235.0, 180.32 235.17, 180.35 235.33, 180.38 235.5, 180.42 235.67, 180.45 235.83, 180.49 236.0, 180.52 236.17, 180.56 236.33, 180.6 236.5, 180.64 236.67, 180.69 236.83, 180.73 237.0, 180.77 237.17, 180.82 237.33, 180.87 237.5, 180.92 237.67, 180.97 237.83, 181.02 238.0, 181.07 238.17, 181.13 238.33, 181.18 238.5, 181.24 238.67, 181.3 238.83, 181.36 239.0, 181.42 239.17, 181.48 239.33, 181.55 239.5, 181.61 239.67, 181.68 239.83, 181.74 240.0, 181.81 240.17, 181.88 240.33, 181.95 240.5, 182.03 240.67, 182.1 240.83, 182.18 241.0, 182.25 241.17, 182.33 241.33, 182.41 241.5, 182.49 241.67, 182.57 241.83, 182.65 242.0, 182.74 242.17, 182.82 242.33, 182.91 242.5, 182.99 242.67, 183.08 242.83, 183.17 243.0, 183.26 243.17, 183.35 243.33, 183.45 243.5, 183.54 243.67, 183.63 243.83, 183.73 244.0, 183.83 244.17, 183.93 244.33, 184.03 244.5, 184.13 244.67, 184.23 244.83, 184.33 245.0, 184.44 245.17, 184.54 245.33, 184.65 245.5, 184.76 245.67, 184.86 245.83, 184.97 246.0, 185.08 246.17, 185.2 246.33, 185.31 246.5, 185.42 246.67, 185.54 246.83, 185.65 247.0, 185.77 247.17, 185.89 247.33, 186.0 247.5, 186.12 247.67, 186.24 247.83, 186.37 248.0, 186.49 248.17, 186.61 248.33, 186.73 248.5, 186.86 248.67, 186.99 248.83, 187.11 249.0, 187.24 249.17, 187.37 249.33, 187.5 249.5, 187.63 249.67, 187.76 249.83, 187.89 250.0, 188.03 250.17, 188.16 250.33, 188.29 250.5, 188.43 250.67, 188.57 250.83, 188.7 251.0, 188.84 251.17, 188.98 251.33, 189.12 251.5, 189.26 251.67, 189.4 251.83, 189.54 252.0, 189.68 252.17, 189.83 252.33, 189.97 252.5, 190.11 252.67, 190.26 252.83, 190.4 253.0, 190.55 253.17, 190.7 253.33, 190.84 253.5, 190.99 253.67, 191.14 253.83, 191.29 254.0, 191.44 254.17, 191.59 254.33, 191.74 254.5, 191.89 254.67, 192.05 254.83, 192.2 255.0, 192.35 255.17, 192.51 255.33, 192.66 255.5, 192.82 255.67, 192.97 255.83, 193.13 256.0, 193.28 256.17, 193.44 256.33, 193.6 256.5, 193.75 256.67, 193.91 256.83, 194.07 257.0, 194.23 257.17, 194.39 257.33, 194.55 257.5, 194.71 257.67, 194.87 257.83, 195.03 258.0, 195.19 258.17, 195.35 258.33, 195.51 258.5, 195.67 258.67, 195.84 258.83, 196.0 259.0, 196.16 259.17, 196.32 259.33, 196.49 259.5, 196.65 259.67, 196.81 259.83, 196.98 260.0, 197.14 260.17, 197.31 260.33, 197.47 260.5, 197.63 260.67, 197.8 260.83, 197.96 261.0, 198.13 261.17, 198.29 261.33, 198.46 261.5, 198.62 261.67, 198.79 261.83, 198.95 262.0, 199.12 262.17, 199.28 262.33, 199.45 262.5, 199.61 262.67, 199.78 262.83, 199.94 263.0, 200.11 263.17, 200.27 263.33, 200.44 263.5, 200.6 263.67, 200.77 263.83, 200.93 264.0, 201.1 264.17, 201.26 264.33, 201.42 264.5, 201.59 264.67, 201.75 264.83, 201.92 265.0, 202.08 265.17, 202.24 265.33, 202.4 265.5, 202.57 265.67, 202.73 265.83, 202.89 266.0, 203.05 266.17, 203.22 266.33, 203.38 266.5, 203.54 266.67, 203.7 266.83, 203.86 267.0, 204.02 267.17, 204.18 267.33, 204.34 267.5, 204.5 267.67, 204.66 267.83, 204.82 268.0, 204.97 268.17, 205.13 268.33, 205.29 268.5, 205.44 268.67, 205.6 268.83, 205.75 269.0, 205.91 269.17, 206.06 269.33, 206.22 269.5, 206.37 269.67, 206.52 269.83, 206.68 270.0, 206.83 270.17, 206.98 270.33, 207.13 270.5, 207.28 270.67, 207.43 270.83, 207.58 271.0, 207.72 271.17, 207.87 271.33, 208.02 271.5, 208.16 271.67, 208.31 271.83, 208.45 272.0, 208.6 272.17, 208.74 272.33, 208.88 272.5, 209.02 272.67, 209.16 272.83, 209.3 273.0, 209.44 273.17, 209.58 273.33, 209.72 273.5, 209.85 273.67, 209.99 273.83, 210.12 274.0, 210.26 274.17, 210.39 274.33, 210.52 274.5, 210.65 274.67, 210.78 274.83, 210.91 275.0, 211.04 275.17, 211.17 275.33, 211.29 275.5, 211.42 275.67, 211.54 275.83, 211.67 276.0, 211.79 276.17, 211.91 276.33, 212.03 276.5, 212.15 276.67, 212.26 276.83, 212.38 277.0, 212.5 277.17, 212.61 277.33, 212.72 277.5, 212.84 277.67, 212.95 277.83, 213.06 278.0, 213.16 278.17, 213.27 278.33, 213.38 278.5, 213.48 278.67, 213.58 278.83, 213.69 279.0, 213.79 279.17, 213.89 279.33, 213.99 279.5, 214.08 279.67, 214.18 279.83, 214.27 280.0, 214.36 280.17, 214.46 280.33, 214.55 280.5, 214.63 280.67, 214.72 280.83, 214.81 281.0, 214.89 281.17, 214.97 281.33, 215.05 281.5, 215.13 281.67, 215.21 281.83, 215.29 282.0, 215.36 282.17, 215.44 282.33, 215.51 282.5, 215.58 282.67, 215.65 282.83, 215.72 283.0, 215.78 283.17, 215.85 283.33, 215.91 283.5, 215.97 283.67, 216.03 283.83, 216.09 284.0, 216.14 284.17, 216.2 284.33, 216.25 284.5, 216.3 284.67, 216.35 284.83, 216.4 285.0, 216.44 285.17, 216.49 285.33, 216.53 285.5, 216.57 285.67, 216.61 285.83, 216.64 286.0, 216.68 286.17, 216.71 286.33, 216.74 286.5, 216.77 286.67, 216.8 286.83, 216.82 287.0, 216.84 287.17, 216.86 287.33, 216.88 287.5, 216.9 287.67, 216.92 287.83, 216.93 288.0, 216.94 288.17, 216.95 288.33, 216.95 288.5, 216.96 288.67, 216.96 288.83, 216.96 289.0, 216.96 289.17, 216.96 289.33, 216.95 289.5, 216.94 289.67, 216.93 289.83, 216.92 290.0, 216.91 290.17, 216.89 290.33, 216.87 290.5, 216.85 290.67, 216.83 290.83, 216.8 291.0, 216.77 291.17, 216.74 291.33, 216.71 291.5, 216.67 291.67, 216.64 291.83, 216.6 292.0, 216.55 292.17, 216.51 292.33, 216.46 292.5, 216.41 292.67, 216.36 292.83, 216.31 293.0, 216.25 293.17, 216.19 293.33, 216.13 293.5, 216.06 293.67, 216.0 293.83, 215.93 294.0, 215.85 294.17, 215.78 294.33, 215.7 294.5, 215.62 294.67, 215.54 294.83, 215.45 295.0, 215.36 295.17, 215.27 295.33, 215.18 295.5, 215.08 295.67, 214.98 295.83, 214.88 296.0, 214.77 296.17, 214.67 296.33, 214.56 296.5, 214.44 296.67, 214.33 296.83, 214.21 297.0, 214.08 297.17, 213.96 297.33, 213.83 297.5, 213.7 297.67, 213.57 297.83, 213.43 298.0, 213.29 298.17, 213.14 298.33, 213.0 298.5, 212.85 298.67, 212.7 298.83, 212.54 299.0, 212.38 299.17, 212.22 299.33, 212.05 299.5, 211.88 299.67, 211.71 299.83, 211.54 300.0, 211.36 300.17, 211.18 300.33, 210.99 300.5, 210.8 300.67, 210.61 300.83, 210.41 301.0, 210.21 301.17, 210.01 301.33, 209.81 301.5, 209.6 301.67, 209.38 301.83, 209.17 302.0, 208.95 302.17, 208.72 302.33, 208.5 302.5, 208.26 302.67, 208.03 302.83, 207.79 303.0, 207.55 303.17, 207.3 303.33, 207.05 303.5, 206.8 303.67, 206.54 303.83, 206.28 304.0, 206.02 304.17, 205.75 304.33, 205.47 304.5, 205.2 304.67, 204.91 304.83, 204.63 305.0, 204.34 305.17, 204.05 305.33, 203.75 305.5, 203.45 305.67, 203.14 305.83, 202.83 306.0, 202.52 306.17, 202.2 306.33, 201.87 306.5, 201.55 306.67, 201.22 306.83, 200.88 307.0, 200.54 307.17, 200.19 307.33, 199.84 307.5, 199.49 307.67, 199.13 307.83, 198.77 308.0, 198.4 308.17, 198.03 308.33, 197.65 308.5, 197.27 308.67, 196.88 308.83, 196.49 309.0, 196.09 309.17, 195.69 309.33, 195.29 309.5, 194.88 309.67, 194.46 309.83, 194.04 310.0, 193.61 310.17, 193.18 310.33, 192.74 310.5, 192.3 310.67, 191.86 310.83, 191.4 311.0, 190.95 311.17, 190.48 311.33, 190.02 311.5, 189.54 311.67, 189.06 311.83, 188.58 312.0, 188.09 312.17, 187.59 312.33, 187.09 312.5, 186.58 312.67, 186.07 312.83, 185.55 313.0, 185.03 313.17, 184.5 313.33, 183.96 313.5, 183.42 313.67, 182.87 313.83, 182.32 314.0, 181.76 314.17, 181.19 314.33, 180.62 314.5, 180.04 314.67, 179.46 314.83, 178.87 315.0, 178.27 315.17, 177.67 315.33, 177.05 315.5, 176.44 315.67, 175.81 315.83, 175.18 316.0, 174.55 316.17, 173.91 316.33, 173.26 316.5, 172.6 316.67, 171.93 316.83, 171.26 317.0, 170.59 317.17, 169.9 317.33, 169.21 317.5, 168.51 317.67, 167.81 317.83, 167.09 318.0, 166.37 318.17, 165.64 318.33, 164.91 318.5, 164.17 318.67, 163.41 318.83, 162.66 319.0, 161.89 319.17, 161.12 319.33, 160.34 319.5, 159.55 319.67, 158.75 319.83, 157.95 320.0, 157.13 320.17, 156.31 320.33, 155.48 320.5, 154.65 320.67, 153.8 320.83, 152.95 321.0, 152.08 321.17, 151.21 321.33, 150.34 321.5, 149.45 321.67, 148.55 321.83, 147.65 322.0, 146.73 322.17, 145.81 322.33, 144.88 322.5, 143.94 322.67, 142.99 322.83, 142.03 323.0, 141.06 323.17, 140.08 323.33, 139.1 323.5, 138.1 323.67, 137.09 323.83, 136.08 324.0, 135.05 324.17, 134.02 324.33, 132.97 324.5, 131.92 324.67, 130.86 324.83, 129.78 325.0, 128.7 325.17, 127.6 325.33, 126.5 325.5, 125.38 325.67, 124.26 325.83, 123.12 326.0, 121.97 326.17, 120.82 326.33, 119.65 326.5, 118.47 326.67, 117.28 326.83, 116.08 327.0, 114.87 327.17, 113.64 327.33, 112.41 327.5, 111.16 327.67, 109.91 327.83, 108.64 328.0, 107.36 328.17, 106.07 328.33, 104.76 328.5, 103.45 328.67, 102.12 328.83, 100.78 329.0, 99.43 329.17, 98.07 329.33, 96.69 329.5, 95.3 329.67, 93.9 329.83, 92.49 330.0, 91.07 330.17, 89.63 330.33, 88.18 330.5, 86.71 330.67, 85.23 330.83, 83.74 331.0, 82.24 331.17, 80.72 331.33, 79.19 331.5, 77.65 331.67, 76.09 331.83, 74.52 332.0, 72.94 332.17, 71.34 332.33, 69.73 332.5, 68.1 332.67, 66.46 332.83, 64.8 333.0, 63.13 333.17, 61.45 333.33, 59.75 333.5, 58.04 333.67, 56.31 333.83, 54.57 334.0, 52.81 334.17, 51.04 334.33, 49.25 334.5, 47.44 334.67, 45.63 334.83, 43.79 335.0, 41.94 335.17, 40.08 335.33, 38.19 335.5, 36.3 335.67, 34.38 335.83, 32.45 336.0, 30.51 336.17, 28.54 336.33, 26.57 336.5, 24.57 336.67, 22.56 336.83, 20.53 337.0, 18.48 337.17, 16.42 337.33, 14.34 337.5, 12.24 337.67, 10.13 337.83, 8.0 338.0, 5.85 338.17, 3.68 338.33, 1.49 338.5, -0.71 338.67, -2.93 338.83, -5.17 339.0, -7.43 339.17, -9.71 339.33, -12.0 339.5, -14.31 339.67, -16.65 339.83, -19.0 340.0, -21.37 340.17, -23.75 340.33, -26.16 340.5, -28.59 340.67, -31.04 340.83, -33.5 341.0, -35.99 341.17, -38.5 341.33, -41.02 341.5, -43.57 341.67, -46.13 341.83, -48.72 342.0, -51.33 342.17, -53.95 342.33, -56.6 342.5, -59.27 342.67, -61.96 342.83, -64.67 343.0, -67.4 343.17, -70.15 343.33, -72.92 343.5, -75.72 343.67, -78.54 343.83, -81.37 344.0, -84.23 344.17, -87.12 344.33, -90.02 344.5, -92.95 344.67, -95.89 344.83, -98.87 345.0, -101.86 345.17, -104.87 345.33, -107.91 345.5, -110.97 345.67, -114.06 345.83, -117.17 346.0, -120.3 346.17, -123.45 346.33, -126.63 346.5, -129.83 346.67, -133.05 346.83, -136.3 347.0, -139.57 347.17, -142.87 347.33, -146.19 347.5, -149.53 347.67, -152.9 347.83, -156.29 348.0, -159.71 348.17, -163.15 348.33, -166.62 348.5, -170.11 348.67, -173.63 348.83, -177.17 349.0, -180.74 349.17, -184.33 349.33, -187.95 349.5, -191.59 349.67, -195.26 349.83, -198.96 350.0, -202.68 350.17, -206.43 350.33, -210.2 350.5, -214.0 350.67, -217.82 350.83, -221.67 351.0, -225.55 351.17, -229.46 351.33, -233.39 351.5, -237.35 351.67, -241.33 351.83, -245.34 352.0, -249.38 352.17, -253.45 352.33, -257.54 352.5, -261.66 352.67, -265.81 352.83, -269.99 353.0, -274.19 353.17, -278.42 353.33, -282.68 353.5, -286.97 353.67, -291.28 353.83, -295.62 354.0, -299.99 354.17, -304.39 354.33, -308.82 354.5, -313.28 354.67, -317.76 354.83, -322.27 355.0, -326.81 355.17, -331.38 355.33, -335.98 355.5, -340.61 355.67, -345.27 355.83, -349.95 356.0, -354.67 356.17, -359.41 356.33, -364.18 356.5, -368.98 356.67, -373.81 356.83, -378.67 357.0, -383.56 357.17, -388.48 357.33, -393.43 357.5, -398.41 357.67, -403.42 357.83, -408.45 358.0, -413.52 358.17, -418.62 358.33, -423.74 358.5, -428.9 358.67, -434.08 358.83, -439.3 359.0, -444.54 359.17, -449.82 359.33, -455.12 359.5, -460.46 359.67, -465.82 359.83, -471.22 360.0, -476.64 360.17, -482.09 360.33, -487.58 360.5, -493.09 360.67, -498.64 360.83, -504.21 361.0, -509.82 361.17, -515.45 361.33, -521.11 361.5, -526.81 361.67, -532.53 361.83, -538.28 362.0, -544.07 362.17, -549.88 362.33, -555.73 362.5, -561.6 362.67, -567.5 362.83, -573.43 363.0, -579.4 363.17, -585.39 363.33, -591.41 363.5, -597.46 363.67, -603.54 363.83, -609.65 364.0, -615.79 364.17, -621.96 364.33, -628.16 364.5, -634.38 364.67, -640.64 364.83, -646.92 365.0, -653.24 365.17, -659.58 365.33, -665.95 365.5, -672.35 365.67, -678.78 365.83, -685.24 366.0, -691.72 366.17, -698.23 366.33, -704.77 366.5, -711.34 366.67, -717.94 366.83, -724.56 367.0, -731.22 367.17, -737.9 367.33, -744.6 367.5, -751.33 367.67, -758.1 367.83, -764.88 368.0, -771.7 368.17, -778.54 368.33, -785.4 368.5, -792.29 368.67, -799.21 368.83, -806.15 369.0, -813.12 369.17, -820.12 369.33, -827.13 369.5, -834.18 369.67, -841.24 369.83, -848.34 370.0, -855.45 370.17, -862.59 370.33, -869.76 370.5, -876.94 370.67, -884.15 370.83, -891.38 371.0, -898.64 371.17, -905.91 371.33, -913.21 371.5, -920.53 371.67, -927.87 371.83, -935.24 372.0, -942.62 372.17, -950.02 372.33, -957.44 372.5, -964.89 372.67, -972.35 372.83, -979.83 373.0, -987.33 373.17, -994.84 373.33, -1002.38 373.5, -1009.93 373.67, -1017.5 373.83, -1025.08 374.0, -1032.68 374.17, -1040.3 374.33, -1047.93 374.5, -1055.58 374.67, -1063.24 374.83, -1070.92 375.0, -1078.6 375.17, -1086.3 375.33, -1094.02 375.5, -1101.74 375.67, -1109.48 375.83, -1117.23 376.0, -1124.99 376.17, -1132.76 376.33, -1140.53 376.5, -1148.32 376.67, -1156.11 376.83, -1163.92 377.0, -1171.73 377.17, -1179.54 377.33, -1187.36 377.5, -1195.19 377.67, -1203.02 377.83, -1210.86 378.0, -1218.7 378.17, -1226.54 378.33, -1234.38 378.5, -1242.22 378.67, -1250.07 378.83, -1257.91 379.0, -1265.76 379.17, -1273.6 379.33, -1281.44 379.5, -1289.28 379.67, -1297.11 379.83, -1304.94 380.0, -1312.77 380.17, -1320.58 380.33, -1328.39 380.5, -1336.2 380.67, -1343.99 380.83, -1351.78 381.0, -1359.55 381.17, -1367.31 381.33, -1375.07 381.5, -1382.8 381.67, -1390.53 381.83, -1398.24 382.0, -1405.93 382.17, -1413.61 382.33, -1421.27 382.5, -1428.91 382.67, -1436.53 382.83, -1444.13 383.0, -1451.71 383.17, -1459.26 383.33, -1466.79 383.5, -1474.3 383.67, -1481.78 383.83, -1489.23 384.0, -1496.66 384.17, -1504.05 384.33, -1511.42 384.5, -1518.75 384.67, -1526.05 384.83, -1533.32 385.0, -1540.55 385.17, -1547.74 385.33, -1554.9 385.5, -1562.02 385.67, -1569.09 385.83, -1576.13 386.0, -1583.12 386.17, -1590.07 386.33, -1596.97 386.5, -1603.82 386.67, -1610.63 386.83, -1617.39 387.0, -1624.09 387.17, -1630.74 387.33, -1637.34 387.5, -1643.88 387.67, -1650.37 387.83, -1656.79 388.0, -1663.16 388.17, -1669.46 388.33, -1675.7 388.5, -1681.88 388.67, -1687.98 388.83, -1694.02 389.0, -1699.99 389.17, -1705.89 389.33, -1711.71 389.5, -1717.46 389.67, -1723.13 389.83, -1728.73 390.0, -1734.24 390.17, -1739.67 390.33, -1745.01 390.5, -1750.27 390.67, -1755.44 390.83, -1760.52 391.0, -1765.51 391.17, -1770.41 391.33, -1775.21 391.5, -1779.91 391.67, -1784.51 391.83, -1789.01 392.0, -1793.41 392.17, -1797.7 392.33, -1801.88 392.5, -1805.95 392.67, -1809.91 392.83, -1813.75 393.0, -1817.48 393.17, -1821.08 393.33, -1824.57 393.5, -1827.93 393.67, -1831.16 393.83, -1834.27 394.0, -1837.25 394.17, -1840.09 394.33, -1842.79 394.5, -1845.36 394.67, -1847.79 394.83, -1850.07 395.0, -1852.21 395.17, -1854.19 395.33, -1856.03 395.5, -1857.71 395.67, -1859.24 395.83, -1860.61 396.0, -1861.81 396.17, -1862.85 396.33, -1863.72 396.5, -1864.43 396.67, -1864.95 396.83, -1865.31 397.0, -1865.48 397.17, -1865.47 397.33, -1865.28 397.5, -1864.89 397.67, -1864.32 397.83, -1863.55 398.0, -1862.59 398.17, -1861.42 398.33, -1860.05 398.5, -1858.47 398.67, -1856.69 398.83, -1854.69 399.0, -1852.47 399.17, -1850.03 399.33, -1847.37 399.5, -1844.48 399.67, -1841.36 399.83, -1838.01 400.0, -1834.42 " fill="none" stroke="white" stroke-width="1.5" stroke-linejoin="round" stroke-opacity="1"/>

 </svg>