<svg version="1.1" 
 baseProfile="full" 
 width="400" 
 height="400" 
 xmlns="http://www.w3.org/2000/svg">
<rect x="0.0" y="0.0" width="400" height="400" fill="black" stroke="black" stroke-width="0" opacity="1"/>
<line x1="0.0" y1="0.0" x2="0.0" y2="400.0" stroke="white" stroke-width="1" opacity="0.4" stroke-linecap="butt"/>
<line x1="40.0" y1="0.0" x2="40.0" y2="400.0" stroke="white" stroke-width="1" opacity="0.4" stroke-linecap="butt"/>
<line x1="80.0" y1="0.0" x2="80.0" y2="400.0" stroke="white" stroke-width="1" opacity="0.4" stroke-linecap="butt"/>
<line x1="120.0" y1="0.0" x2="120.0" y2="400.0" stroke="white" stroke-width="1" opacity="0.4" stroke-linecap="butt"/>
<line x1="160.0" y1="0.0" x2="160.0" y2="400.0" stroke="white" stroke-width="1" opacity="0.4" stroke-linecap="butt"/>
<line x1="200.0" y1="0.0" x2="200.0" y2="400.0" stroke="white" stroke-width="1" opacity="0.4" stroke-linecap="butt"/>
<line x1="240.0" y1="0.0" x2="240.0" y2="400.0" stroke="white" stroke-width="1" opacity="0.4" stroke-linecap="butt"/>
<line x1="280.0" y1="0.0" x2="280.0" y2="400.0" stroke="white" stroke-width="1" opacity="0.4" stroke-linecap="butt"/>
<line x1="320.0" y1="0.0" x2="320.0" y2="400.0" stroke="white" stroke-width="1" opacity="0.4" stroke-linecap="butt"/>
<line x1="360.0" y1="0.0" x2="360.0" y2="400.0" stroke="white" stroke-width="1" opacity="0.4" stroke-linecap="butt"/>
<line x1="0.0" y1="0.0" x2="400.0" y2="0.0" stroke="white" stroke-width="1" opacity="0.4" stroke-linecap="butt"/>
<line x1="0.0" y1="40.0" x2="400.0" y2="40.0" stroke="white" stroke-width="1" opacity="0.4" stroke-linecap="butt"/>
<line x1="0.0" y1="80.0" x2="400.0" y2="80.0" stroke="white" stroke-width="1" opacity="0.4" stroke-linecap="butt"/>
<line x1="0.0" y1="120.0" x2="400.0" y2="120.0" stroke="white" stroke-width="1" opacity="0.4" stroke-linecap="butt"/>
<line x1="0.0" y1="160.0" x2="400.0" y2="160.0" stroke="white" stroke-width="1" opacity="0.4" stroke-linecap="butt"/>
<line x1="0.0" y1="200.0" x2="400.0" y2="200.0" stroke="white" stroke-width="1" opacity="0.4" stroke-linecap="butt"/>
<line x1="0.0" y1="240.0" x2="400.0" y2="240.0" stroke="white" stroke-width="1" opacity="0.4" stroke-linecap="butt"/>
<line x1="0.0" y1="280.0" x2="400.0" y2="280.0" stroke="white" stroke-width="1" opacity="0.4" stroke-linecap="butt"/>
<line x1="0.0" y1="320.0" x2="400.0" y2="320.0" stroke="white" stroke-width="1" opacity="0.4" stroke-linecap="butt"/>
<line x1="0.0" y1="360.0" x2="400.0" y2="360.0" stroke="white" stroke-width="1" opacity="0.4" stroke-linecap="butt"/>
<line x1="0.0" y1="200.0" x2="400.0" y2="200.0" stroke="yellow" stroke-width="2.5" opacity="1" stroke-linecap="butt"/>
<line x1="200.0" y1="0.0" x2="200.0" y2="400.0" stroke="yellow" stroke-width="2.5" opacity="1" stroke-linecap="butt"/>
<polygon points="391.0 204.0, 401.0 200.0, 391.0 196.0, 393.0 200.0" fill="yellow"/><polygon points="204.0 9.0, 200.0 -1.0, 196.0 9.0, 200.0 7.0" fill="yellow"/><image x="-60.0" y="-60.0" width="200" height="200" href="/Users/girirajhira/PycharmProjects/Giraphics3/Taylor/expr.png"/><polyline points="0.0, -5281.22 0.17, -5209.02 0.33, -5137.63 0.5, -5067.04 0.67, -4997.24 0.83, -4928.22 1.0, -4859.98 1.17, -4792.51 1.33, -4725.81 1.5, -4659.85 1.67, -4594.65 1.83, -4530.18 2.0, -4466.45 2.17, -4403.44 2.33, -4341.14 2.5, -4279.56 2.67, -4218.69 2.83, -4158.51 3.0, -4099.02 3.17, -4040.21 3.33, -3982.08 3.5, -3924.62 3.67, -3867.82 3.83, -3811.68 4.0, -3756.19 4.17, -3701.34 4.33, -3647.13 4.5, -3593.55 4.67, -3540.6 4.83, -3488.26 5.0, -3436.54 5.17, -3385.42 5.33, -3334.9 5.5, -3284.97 5.67, -3235.63 5.83, -3186.88 6.0, -3138.7 6.17, -3091.09 6.33, -3044.04 6.5, -2997.55 6.67, -2951.62 6.83, -2906.23 7.0, -2861.38 7.17, -2817.07 7.33, -2773.29 7.5, -2730.03 7.67, -2687.3 7.83, -2645.08 8.0, -2603.36 8.17, -2562.16 8.33, -2521.45 8.5, -2481.23 8.67, -2441.5 8.83, -2402.26 9.0, -2363.49 9.17, -2325.2 9.33, -2287.37 9.5, -2250.01 9.67, -2213.1 9.83, -2176.65 10.0, -2140.65 10.17, -2105.1 10.33, -2069.98 10.5, -2035.3 10.67, -2001.05 10.83, -1967.22 11.0, -1933.82 11.17, -1900.83 11.33, -1868.26 11.5, -1836.09 11.67, -1804.33 11.83, -1772.96 12.0, -1741.99 12.17, -1711.42 12.33, -1681.22 12.5, -1651.42 12.67, -1621.99 12.83, -1592.93 13.0, -1564.25 13.17, -1535.93 13.33, -1507.97 13.5, -1480.37 13.67, -1453.13 13.83, -1426.24 14.0, -1399.69 14.17, -1373.49 14.33, -1347.63 14.5, -1322.1 14.67, -1296.91 14.83, -1272.04 15.0, -1247.5 15.17, -1223.28 15.33, -1199.37 15.5, -1175.79 15.67, -1152.51 15.83, -1129.54 16.0, -1106.87 16.17, -1084.5 16.33, -1062.43 16.5, -1040.66 16.67, -1019.17 16.83, -997.98 17.0, -977.06 17.17, -956.43 17.33, -936.08 17.5, -916.0 17.67, -896.19 17.83, -876.65 18.0, -857.37 18.17, -838.36 18.33, -819.61 18.5, -801.11 18.67, -782.87 18.83, -764.88 19.0, -747.14 19.17, -729.64 19.33, -712.38 19.5, -695.36 19.67, -678.58 19.83, -662.03 20.0, -645.72 20.17, -629.63 20.33, -613.77 20.5, -598.13 20.67, -582.72 20.83, -567.52 21.0, -552.53 21.17, -537.76 21.33, -523.2 21.5, -508.85 21.67, -494.71 21.83, -480.76 22.0, -467.02 22.17, -453.48 22.33, -440.13 22.5, -426.98 22.67, -414.02 22.83, -401.24 23.0, -388.66 23.17, -376.26 23.33, -364.04 23.5, -352.0 23.67, -340.14 23.83, -328.46 24.0, -316.95 24.17, -305.61 24.33, -294.44 24.5, -283.44 24.67, -272.61 24.83, -261.94 25.0, -251.43 25.17, -241.08 25.33, -230.89 25.5, -220.85 25.67, -210.97 25.83, -201.24 26.0, -191.66 26.17, -182.23 26.33, -172.94 26.5, -163.8 26.67, -154.8 26.83, -145.95 27.0, -137.23 27.17, -128.65 27.33, -120.2 27.5, -111.89 27.67, -103.72 27.83, -95.67 28.0, -87.75 28.17, -79.96 28.33, -72.3 28.5, -64.76 28.67, -57.34 28.83, -50.05 29.0, -42.87 29.17, -35.81 29.33, -28.87 29.5, -22.04 29.67, -15.33 29.83, -8.73 30.0, -2.24 30.17, 4.14 30.33, 10.42 30.5, 16.58 30.67, 22.65 30.83, 28.6 31.0, 34.46 31.17, 40.21 31.33, 45.87 31.5, 51.43 31.67, 56.89 31.83, 62.25 32.0, 67.52 32.17, 72.7 32.33, 77.78 32.5, 82.78 32.67, 87.68 32.83, 92.5 33.0, 97.23 33.17, 101.87 33.33, 106.43 33.5, 110.9 33.67, 115.29 33.83, 119.6 34.0, 123.83 34.17, 127.98 34.33, 132.06 34.5, 136.05 34.67, 139.97 34.83, 143.82 35.0, 147.59 35.17, 151.29 35.33, 154.92 35.5, 158.47 35.67, 161.96 35.83, 165.37 36.0, 168.72 36.17, 172.0 36.33, 175.22 36.5, 178.37 36.67, 181.46 36.83, 184.48 37.0, 187.44 37.17, 190.34 37.33, 193.18 37.5, 195.96 37.67, 198.68 37.83, 201.35 38.0, 203.95 38.17, 206.5 38.33, 208.99 38.5, 211.43 38.67, 213.82 38.83, 216.15 39.0, 218.43 39.17, 220.66 39.33, 222.84 39.5, 224.96 39.67, 227.04 39.83, 229.07 40.0, 231.05 40.17, 232.99 40.33, 234.87 40.5, 236.72 40.67, 238.51 40.83, 240.27 41.0, 241.98 41.17, 243.64 41.33, 245.27 41.5, 246.85 41.67, 248.39 41.83, 249.89 42.0, 251.35 42.17, 252.78 42.33, 254.16 42.5, 255.51 42.67, 256.81 42.83, 258.09 43.0, 259.32 43.17, 260.52 43.33, 261.69 43.5, 262.82 43.67, 263.91 43.83, 264.98 44.0, 266.01 44.17, 267.0 44.33, 267.97 44.5, 268.91 44.67, 269.81 44.83, 270.68 45.0, 271.53 45.17, 272.34 45.33, 273.13 45.5, 273.89 45.67, 274.62 45.83, 275.32 46.0, 276.0 46.17, 276.65 46.33, 277.27 46.5, 277.87 46.67, 278.44 46.83, 278.99 47.0, 279.51 47.17, 280.01 47.33, 280.49 47.5, 280.94 47.67, 281.38 47.83, 281.78 48.0, 282.17 48.17, 282.54 48.33, 282.88 48.5, 283.21 48.67, 283.51 48.83, 283.79 49.0, 284.06 49.17, 284.3 49.33, 284.53 49.5, 284.74 49.67, 284.93 49.83, 285.1 50.0, 285.25 50.17, 285.39 50.33, 285.51 50.5, 285.62 50.67, 285.7 50.83, 285.78 51.0, 285.83 51.17, 285.87 51.33, 285.9 51.5, 285.91 51.67, 285.91 51.83, 285.89 52.0, 285.86 52.17, 285.82 52.33, 285.76 52.5, 285.69 52.67, 285.61 52.83, 285.51 53.0, 285.4 53.17, 285.28 53.33, 285.15 53.5, 285.01 53.67, 284.85 53.83, 284.69 54.0, 284.51 54.17, 284.32 54.33, 284.13 54.5, 283.92 54.67, 283.7 54.83, 283.48 55.0, 283.24 55.17, 283.0 55.33, 282.74 55.5, 282.48 55.67, 282.21 55.83, 281.93 56.0, 281.64 56.17, 281.35 56.33, 281.04 56.5, 280.73 56.67, 280.41 56.83, 280.09 57.0, 279.76 57.17, 279.42 57.33, 279.07 57.5, 278.72 57.67, 278.36 57.83, 277.99 58.0, 277.62 58.17, 277.25 58.33, 276.86 58.5, 276.47 58.67, 276.08 58.83, 275.68 59.0, 275.28 59.17, 274.87 59.33, 274.46 59.5, 274.04 59.67, 273.62 59.83, 273.19 60.0, 272.76 60.17, 272.32 60.33, 271.88 60.5, 271.44 60.67, 270.99 60.83, 270.54 61.0, 270.09 61.17, 269.63 61.33, 269.17 61.5, 268.71 61.67, 268.24 61.83, 267.77 62.0, 267.3 62.17, 266.83 62.33, 266.35 62.5, 265.87 62.67, 265.39 62.83, 264.9 63.0, 264.42 63.17, 263.93 63.33, 263.44 63.5, 262.94 63.67, 262.45 63.83, 261.96 64.0, 261.46 64.17, 260.96 64.33, 260.46 64.5, 259.96 64.67, 259.46 64.83, 258.95 65.0, 258.45 65.17, 257.94 65.33, 257.44 65.5, 256.93 65.67, 256.42 65.83, 255.91 66.0, 255.4 66.17, 254.89 66.33, 254.38 66.5, 253.87 66.67, 253.36 66.83, 252.85 67.0, 252.34 67.17, 251.83 67.33, 251.31 67.5, 250.8 67.67, 250.29 67.83, 249.78 68.0, 249.27 68.17, 248.76 68.33, 248.25 68.5, 247.74 68.67, 247.23 68.83, 246.72 69.0, 246.21 69.17, 245.7 69.33, 245.19 69.5, 244.68 69.67, 244.18 69.83, 243.67 70.0, 243.17 70.17, 242.66 70.33, 242.16 70.5, 241.66 70.67, 241.16 70.83, 240.66 71.0, 240.16 71.17, 239.66 71.33, 239.16 71.5, 238.67 71.67, 238.17 71.83, 237.68 72.0, 237.19 72.17, 236.69 72.33, 236.21 72.5, 235.72 72.67, 235.23 72.83, 234.75 73.0, 234.26 73.17, 233.78 73.33, 233.3 73.5, 232.82 73.67, 232.34 73.83, 231.87 74.0, 231.39 74.17, 230.92 74.33, 230.45 74.5, 229.98 74.67, 229.51 74.83, 229.05 75.0, 228.58 75.17, 228.12 75.33, 227.66 75.5, 227.2 75.67, 226.75 75.83, 226.29 76.0, 225.84 76.17, 225.39 76.33, 224.94 76.5, 224.49 76.67, 224.05 76.83, 223.61 77.0, 223.16 77.17, 222.73 77.33, 222.29 77.5, 221.86 77.67, 221.42 77.83, 220.99 78.0, 220.56 78.17, 220.14 78.33, 219.72 78.5, 219.29 78.67, 218.87 78.83, 218.46 79.0, 218.04 79.17, 217.63 79.33, 217.22 79.5, 216.81 79.67, 216.41 79.83, 216.0 80.0, 215.6 80.17, 215.2 80.33, 214.8 80.5, 214.41 80.67, 214.02 80.83, 213.63 81.0, 213.24 81.17, 212.86 81.33, 212.47 81.5, 212.09 81.67, 211.71 81.83, 211.34 82.0, 210.96 82.17, 210.59 82.33, 210.23 82.5, 209.86 82.67, 209.5 82.83, 209.13 83.0, 208.78 83.17, 208.42 83.33, 208.06 83.5, 207.71 83.67, 207.36 83.83, 207.02 84.0, 206.67 84.17, 206.33 84.33, 205.99 84.5, 205.65 84.67, 205.32 84.83, 204.99 85.0, 204.66 85.17, 204.33 85.33, 204.01 85.5, 203.68 85.67, 203.36 85.83, 203.05 86.0, 202.73 86.17, 202.42 86.33, 202.11 86.5, 201.8 86.67, 201.5 86.83, 201.19 87.0, 200.89 87.17, 200.6 87.33, 200.3 87.5, 200.01 87.67, 199.72 87.83, 199.43 88.0, 199.15 88.17, 198.86 88.33, 198.58 88.5, 198.31 88.67, 198.03 88.83, 197.76 89.0, 197.49 89.17, 197.22 89.33, 196.95 89.5, 196.69 89.67, 196.43 89.83, 196.17 90.0, 195.92 90.17, 195.66 90.33, 195.41 90.5, 195.17 90.67, 194.92 90.83, 194.68 91.0, 194.44 91.17, 194.2 91.33, 193.96 91.5, 193.73 91.67, 193.5 91.83, 193.27 92.0, 193.04 92.17, 192.82 92.33, 192.6 92.5, 192.38 92.67, 192.16 92.83, 191.95 93.0, 191.74 93.17, 191.53 93.33, 191.32 93.5, 191.12 93.67, 190.91 93.83, 190.71 94.0, 190.52 94.17, 190.32 94.33, 190.13 94.5, 189.94 94.67, 189.75 94.83, 189.57 95.0, 189.38 95.17, 189.2 95.33, 189.02 95.5, 188.85 95.67, 188.68 95.83, 188.5 96.0, 188.34 96.17, 188.17 96.33, 188.0 96.5, 187.84 96.67, 187.68 96.83, 187.53 97.0, 187.37 97.17, 187.22 97.33, 187.07 97.5, 186.92 97.67, 186.77 97.83, 186.63 98.0, 186.49 98.17, 186.35 98.33, 186.21 98.5, 186.08 98.67, 185.95 98.83, 185.82 99.0, 185.69 99.17, 185.57 99.33, 185.44 99.5, 185.32 99.67, 185.2 99.83, 185.09 100.0, 184.97 100.17, 184.86 100.33, 184.75 100.5, 184.64 100.67, 184.54 100.83, 184.44 101.0, 184.33 101.17, 184.24 101.33, 184.14 101.5, 184.04 101.67, 183.95 101.83, 183.86 102.0, 183.77 102.17, 183.69 102.33, 183.6 102.5, 183.52 102.67, 183.44 102.83, 183.37 103.0, 183.29 103.17, 183.22 103.33, 183.15 103.5, 183.08 103.67, 183.01 103.83, 182.95 104.0, 182.88 104.17, 182.82 104.33, 182.76 104.5, 182.71 104.67, 182.65 104.83, 182.6 105.0, 182.55 105.17, 182.5 105.33, 182.45 105.5, 182.41 105.67, 182.37 105.83, 182.33 106.0, 182.29 106.17, 182.25 106.33, 182.22 106.5, 182.19 106.67, 182.15 106.83, 182.13 107.0, 182.1 107.17, 182.07 107.33, 182.05 107.5, 182.03 107.67, 182.01 107.83, 181.99 108.0, 181.98 108.17, 181.97 108.33, 181.95 108.5, 181.94 108.67, 181.94 108.83, 181.93 109.0, 181.93 109.17, 181.92 109.33, 181.92 109.5, 181.93 109.67, 181.93 109.83, 181.93 110.0, 181.94 110.17, 181.95 110.33, 181.96 110.5, 181.97 110.67, 181.99 110.83, 182.0 111.0, 182.02 111.17, 182.04 111.33, 182.06 111.5, 182.08 111.67, 182.11 111.83, 182.13 112.0, 182.16 112.17, 182.19 112.33, 182.22 112.5, 182.26 112.67, 182.29 112.83, 182.33 113.0, 182.36 113.17, 182.4 113.33, 182.44 113.5, 182.49 113.67, 182.53 113.83, 182.58 114.0, 182.63 114.17, 182.67 114.33, 182.73 114.5, 182.78 114.67, 182.83 114.83, 182.89 115.0, 182.94 115.17, 183.0 115.33, 183.06 115.5, 183.12 115.67, 183.19 115.83, 183.25 116.0, 183.32 116.17, 183.38 116.33, 183.45 116.5, 183.52 116.67, 183.6 116.83, 183.67 117.0, 183.74 117.17, 183.82 117.33, 183.9 117.5, 183.98 117.67, 184.06 117.83, 184.14 118.0, 184.22 118.17, 184.31 118.33, 184.39 118.5, 184.48 118.67, 184.57 118.83, 184.66 119.0, 184.75 119.17, 184.84 119.33, 184.93 119.5, 185.03 119.67, 185.12 119.83, 185.22 120.0, 185.32 120.17, 185.42 120.33, 185.52 120.5, 185.62 120.67, 185.73 120.83, 185.83 121.0, 185.94 121.17, 186.04 121.33, 186.15 121.5, 186.26 121.67, 186.37 121.83, 186.48 122.0, 186.6 122.17, 186.71 122.33, 186.83 122.5, 186.94 122.67, 187.06 122.83, 187.18 123.0, 187.3 123.17, 187.42 123.33, 187.54 123.5, 187.66 123.67, 187.78 123.83, 187.91 124.0, 188.03 124.17, 188.16 124.33, 188.29 124.5, 188.41 124.67, 188.54 124.83, 188.67 125.0, 188.8 125.17, 188.94 125.33, 189.07 125.5, 189.2 125.67, 189.34 125.83, 189.47 126.0, 189.61 126.17, 189.75 126.33, 189.88 126.5, 190.02 126.67, 190.16 126.83, 190.3 127.0, 190.44 127.17, 190.58 127.33, 190.73 127.5, 190.87 127.67, 191.01 127.83, 191.16 128.0, 191.3 128.17, 191.45 128.33, 191.6 128.5, 191.74 128.67, 191.89 128.83, 192.04 129.0, 192.19 129.17, 192.34 129.33, 192.49 129.5, 192.64 129.67, 192.79 129.83, 192.95 130.0, 193.1 130.17, 193.25 130.33, 193.41 130.5, 193.56 130.67, 193.72 130.83, 193.87 131.0, 194.03 131.17, 194.18 131.33, 194.34 131.5, 194.5 131.67, 194.66 131.83, 194.82 132.0, 194.97 132.17, 195.13 132.33, 195.29 132.5, 195.45 132.67, 195.61 132.83, 195.77 133.0, 195.93 133.17, 196.1 133.33, 196.26 133.5, 196.42 133.67, 196.58 133.83, 196.74 134.0, 196.91 134.17, 197.07 134.33, 197.23 134.5, 197.4 134.67, 197.56 134.83, 197.73 135.0, 197.89 135.17, 198.05 135.33, 198.22 135.5, 198.38 135.67, 198.55 135.83, 198.71 136.0, 198.88 136.17, 199.04 136.33, 199.21 136.5, 199.37 136.67, 199.54 136.83, 199.7 137.0, 199.87 137.17, 200.04 137.33, 200.2 137.5, 200.37 137.67, 200.53 137.83, 200.7 138.0, 200.86 138.17, 201.03 138.33, 201.2 138.5, 201.36 138.67, 201.53 138.83, 201.69 139.0, 201.86 139.17, 202.02 139.33, 202.19 139.5, 202.35 139.67, 202.52 139.83, 202.68 140.0, 202.85 140.17, 203.01 140.33, 203.17 140.5, 203.34 140.67, 203.5 140.83, 203.66 141.0, 203.83 141.17, 203.99 141.33, 204.15 141.5, 204.32 141.67, 204.48 141.83, 204.64 142.0, 204.8 142.17, 204.96 142.33, 205.12 142.5, 205.28 142.67, 205.44 142.83, 205.6 143.0, 205.76 143.17, 205.92 143.33, 206.08 143.5, 206.24 143.67, 206.4 143.83, 206.55 144.0, 206.71 144.17, 206.87 144.33, 207.02 144.5, 207.18 144.67, 207.33 144.83, 207.49 145.0, 207.64 145.17, 207.8 145.33, 207.95 145.5, 208.1 145.67, 208.25 145.83, 208.4 146.0, 208.56 146.17, 208.71 146.33, 208.85 146.5, 209.0 146.67, 209.15 146.83, 209.3 147.0, 209.45 147.17, 209.59 147.33, 209.74 147.5, 209.88 147.67, 210.03 147.83, 210.17 148.0, 210.32 148.17, 210.46 148.33, 210.6 148.5, 210.74 148.67, 210.88 148.83, 211.02 149.0, 211.16 149.17, 211.3 149.33, 211.43 149.5, 211.57 149.67, 211.7 149.83, 211.84 150.0, 211.97 150.17, 212.11 150.33, 212.24 150.5, 212.37 150.67, 212.5 150.83, 212.63 151.0, 212.76 151.17, 212.89 151.33, 213.01 151.5, 213.14 151.67, 213.26 151.83, 213.39 152.0, 213.51 152.17, 213.63 152.33, 213.76 152.5, 213.88 152.67, 214.0 152.83, 214.11 153.0, 214.23 153.17, 214.35 153.33, 214.46 153.5, 214.58 153.67, 214.69 153.83, 214.8 154.0, 214.92 154.17, 215.03 154.33, 215.14 154.5, 215.24 154.67, 215.35 154.83, 215.46 155.0, 215.56 155.17, 215.67 155.33, 215.77 155.5, 215.87 155.67, 215.97 155.83, 216.07 156.0, 216.17 156.17, 216.27 156.33, 216.36 156.5, 216.46 156.67, 216.55 156.83, 216.65 157.0, 216.74 157.17, 216.83 157.33, 216.92 157.5, 217.01 157.67, 217.09 157.83, 217.18 158.0, 217.26 158.17, 217.35 158.33, 217.43 158.5, 217.51 158.67, 217.59 158.83, 217.67 159.0, 217.75 159.17, 217.82 159.33, 217.9 159.5, 217.97 159.67, 218.05 159.83, 218.12 160.0, 218.19 160.17, 218.25 160.33, 218.32 160.5, 218.39 160.67, 218.45 160.83, 218.52 161.0, 218.58 161.17, 218.64 161.33, 218.7 161.5, 218.76 161.67, 218.82 161.83, 218.87 162.0, 218.93 162.17, 218.98 162.33, 219.03 162.5, 219.08 162.67, 219.13 162.83, 219.18 163.0, 219.23 163.17, 219.27 163.33, 219.31 163.5, 219.36 163.67, 219.4 163.83, 219.44 164.0, 219.48 164.17, 219.51 164.33, 219.55 164.5, 219.58 164.67, 219.62 164.83, 219.65 165.0, 219.68 165.17, 219.71 165.33, 219.74 165.5, 219.76 165.67, 219.79 165.83, 219.81 166.0, 219.83 166.17, 219.85 166.33, 219.87 166.5, 219.89 166.67, 219.91 166.83, 219.92 167.0, 219.94 167.17, 219.95 167.33, 219.96 167.5, 219.97 167.67, 219.98 167.83, 219.99 168.0, 219.99 168.17, 220.0 168.33, 220.0 168.5, 220.0 168.67, 220.0 168.83, 220.0 169.0, 220.0 169.17, 219.99 169.33, 219.99 169.5, 219.98 169.67, 219.97 169.83, 219.96 170.0, 219.95 170.17, 219.94 170.33, 219.92 170.5, 219.91 170.67, 219.89 170.83, 219.87 171.0, 219.85 171.17, 219.83 171.33, 219.81 171.5, 219.79 171.67, 219.76 171.83, 219.74 172.0, 219.71 172.17, 219.68 172.33, 219.65 172.5, 219.62 172.67, 219.58 172.83, 219.55 173.0, 219.51 173.17, 219.48 173.33, 219.44 173.5, 219.4 173.67, 219.36 173.83, 219.32 174.0, 219.27 174.17, 219.23 174.33, 219.18 174.5, 219.13 174.67, 219.08 174.83, 219.03 175.0, 218.98 175.17, 218.93 175.33, 218.87 175.5, 218.82 175.67, 218.76 175.83, 218.7 176.0, 218.64 176.17, 218.58 176.33, 218.52 176.5, 218.45 176.67, 218.39 176.83, 218.32 177.0, 218.26 177.17, 218.19 177.33, 218.12 177.5, 218.05 177.67, 217.97 177.83, 217.9 178.0, 217.82 178.17, 217.75 178.33, 217.67 178.5, 217.59 178.67, 217.51 178.83, 217.43 179.0, 217.35 179.17, 217.26 179.33, 217.18 179.5, 217.09 179.67, 217.01 179.83, 216.92 180.0, 216.83 180.17, 216.74 180.33, 216.65 180.5, 216.55 180.67, 216.46 180.83, 216.36 181.0, 216.27 181.17, 216.17 181.33, 216.07 181.5, 215.97 181.67, 215.87 181.83, 215.77 182.0, 215.67 182.17, 215.56 182.33, 215.46 182.5, 215.35 182.67, 215.24 182.83, 215.14 183.0, 215.03 183.17, 214.92 183.33, 214.8 183.5, 214.69 183.67, 214.58 183.83, 214.46 184.0, 214.35 184.17, 214.23 184.33, 214.11 184.5, 213.99 184.67, 213.87 184.83, 213.75 185.0, 213.63 185.17, 213.51 185.33, 213.39 185.5, 213.26 185.67, 213.14 185.83, 213.01 186.0, 212.88 186.17, 212.76 186.33, 212.63 186.5, 212.5 186.67, 212.37 186.83, 212.24 187.0, 212.1 187.17, 211.97 187.33, 211.84 187.5, 211.7 187.67, 211.57 187.83, 211.43 188.0, 211.29 188.17, 211.15 188.33, 211.02 188.5, 210.88 188.67, 210.74 188.83, 210.6 189.0, 210.45 189.17, 210.31 189.33, 210.17 189.5, 210.02 189.67, 209.88 189.83, 209.73 190.0, 209.59 190.17, 209.44 190.33, 209.29 190.5, 209.15 190.67, 209.0 190.83, 208.85 191.0, 208.7 191.17, 208.55 191.33, 208.4 191.5, 208.25 191.67, 208.09 191.83, 207.94 192.0, 207.79 192.17, 207.63 192.33, 207.48 192.5, 207.33 192.67, 207.17 192.83, 207.01 193.0, 206.86 193.17, 206.7 193.33, 206.54 193.5, 206.39 193.67, 206.23 193.83, 206.07 194.0, 205.91 194.17, 205.75 194.33, 205.59 194.5, 205.43 194.67, 205.27 194.83, 205.11 195.0, 204.95 195.17, 204.79 195.33, 204.62 195.5, 204.46 195.67, 204.3 195.83, 204.14 196.0, 203.97 196.17, 203.81 196.33, 203.65 196.5, 203.48 196.67, 203.32 196.83, 203.15 197.0, 202.99 197.17, 202.82 197.33, 202.66 197.5, 202.49 197.67, 202.33 197.83, 202.16 198.0, 202.0 198.17, 201.83 198.33, 201.66 198.5, 201.5 198.67, 201.33 198.83, 201.17 199.0, 201.0 199.17, 200.83 199.33, 200.67 199.5, 200.5 199.67, 200.33 199.83, 200.17 200.0, 200.0 200.17, 199.83 200.33, 199.67 200.5, 199.5 200.67, 199.33 200.83, 199.17 201.0, 199.0 201.17, 198.83 201.33, 198.67 201.5, 198.5 201.67, 198.34 201.83, 198.17 202.0, 198.0 202.17, 197.84 202.33, 197.67 202.5, 197.51 202.67, 197.34 202.83, 197.18 203.0, 197.01 203.17, 196.85 203.33, 196.68 203.5, 196.52 203.67, 196.35 203.83, 196.19 204.0, 196.03 204.17, 195.86 204.33, 195.7 204.5, 195.54 204.67, 195.38 204.83, 195.21 205.0, 195.05 205.17, 194.89 205.33, 194.73 205.5, 194.57 205.67, 194.41 205.83, 194.25 206.0, 194.09 206.17, 193.93 206.33, 193.77 206.5, 193.61 206.67, 193.46 206.83, 193.3 207.0, 193.14 207.17, 192.99 207.33, 192.83 207.5, 192.67 207.67, 192.52 207.83, 192.37 208.0, 192.21 208.17, 192.06 208.33, 191.91 208.5, 191.75 208.67, 191.6 208.83, 191.45 209.0, 191.3 209.17, 191.15 209.33, 191.0 209.5, 190.85 209.67, 190.71 209.83, 190.56 210.0, 190.41 210.17, 190.27 210.33, 190.12 210.5, 189.98 210.67, 189.83 210.83, 189.69 211.0, 189.55 211.17, 189.4 211.33, 189.26 211.5, 189.12 211.67, 188.98 211.83, 188.85 212.0, 188.71 212.17, 188.57 212.33, 188.43 212.5, 188.3 212.67, 188.16 212.83, 188.03 213.0, 187.9 213.17, 187.76 213.33, 187.63 213.5, 187.5 213.67, 187.37 213.83, 187.24 214.0, 187.12 214.17, 186.99 214.33, 186.86 214.5, 186.74 214.67, 186.61 214.83, 186.49 215.0, 186.37 215.17, 186.25 215.33, 186.13 215.5, 186.01 215.67, 185.89 215.83, 185.77 216.0, 185.65 216.17, 185.54 216.33, 185.42 216.5, 185.31 216.67, 185.2 216.83, 185.08 217.0, 184.97 217.17, 184.86 217.33, 184.76 217.5, 184.65 217.67, 184.54 217.83, 184.44 218.0, 184.33 218.17, 184.23 218.33, 184.13 218.5, 184.03 218.67, 183.93 218.83, 183.83 219.0, 183.73 219.17, 183.64 219.33, 183.54 219.5, 183.45 219.67, 183.35 219.83, 183.26 220.0, 183.17 220.17, 183.08 220.33, 182.99 220.5, 182.91 220.67, 182.82 220.83, 182.74 221.0, 182.65 221.17, 182.57 221.33, 182.49 221.5, 182.41 221.67, 182.33 221.83, 182.25 222.0, 182.18 222.17, 182.1 222.33, 182.03 222.5, 181.95 222.67, 181.88 222.83, 181.81 223.0, 181.74 223.17, 181.68 223.33, 181.61 223.5, 181.55 223.67, 181.48 223.83, 181.42 224.0, 181.36 224.17, 181.3 224.33, 181.24 224.5, 181.18 224.67, 181.13 224.83, 181.07 225.0, 181.02 225.17, 180.97 225.33, 180.92 225.5, 180.87 225.67, 180.82 225.83, 180.77 226.0, 180.73 226.17, 180.68 226.33, 180.64 226.5, 180.6 226.67, 180.56 226.83, 180.52 227.0, 180.49 227.17, 180.45 227.33, 180.42 227.5, 180.38 227.67, 180.35 227.83, 180.32 228.0, 180.29 228.17, 180.26 228.33, 180.24 228.5, 180.21 228.67, 180.19 228.83, 180.17 229.0, 180.15 229.17, 180.13 229.33, 180.11 229.5, 180.09 229.67, 180.08 229.83, 180.06 230.0, 180.05 230.17, 180.04 230.33, 180.03 230.5, 180.02 230.67, 180.01 230.83, 180.01 231.0, 180.0 231.17, 180.0 231.33, 180.0 231.5, 180.0 231.67, 180.0 231.83, 180.0 232.0, 180.01 232.17, 180.01 232.33, 180.02 232.5, 180.03 232.67, 180.04 232.83, 180.05 233.0, 180.06 233.17, 180.08 233.33, 180.09 233.5, 180.11 233.67, 180.13 233.83, 180.15 234.0, 180.17 234.17, 180.19 234.33, 180.21 234.5, 180.24 234.67, 180.26 234.83, 180.29 235.0, 180.32 235.17, 180.35 235.33, 180.38 235.5, 180.42 235.67, 180.45 235.83, 180.49 236.0, 180.52 236.17, 180.56 236.33, 180.6 236.5, 180.64 236.67, 180.69 236.83, 180.73 237.0, 180.77 237.17, 180.82 237.33, 180.87 237.5, 180.92 237.67, 180.97 237.83, 181.02 238.0, 181.07 238.17, 181.13 238.33, 181.18 238.5, 181.24 238.67, 181.3 238.83, 181.36 239.0, 181.42 239.17, 181.48 239.33, 181.55 239.5, 181.61 239.67, 181.68 239.83, 181.75 240.0, 181.81 240.17, 181.88 240.33, 181.95 240.5, 182.03 240.67, 182.1 240.83, 182.18 241.0, 182.25 241.17, 182.33 241.33, 182.41 241.5, 182.49 241.67, 182.57 241.83, 182.65 242.0, 182.74 242.17, 182.82 242.33, 182.91 242.5, 182.99 242.67, 183.08 242.83, 183.17 243.0, 183.26 243.17, 183.35 243.33, 183.45 243.5, 183.54 243.67, 183.64 243.83, 183.73 244.0, 183.83 244.17, 183.93 244.33, 184.03 244.5, 184.13 244.67, 184.23 244.83, 184.33 245.0, 184.44 245.17, 184.54 245.33, 184.65 245.5, 184.76 245.67, 184.86 245.83, 184.97 246.0, 185.08 246.17, 185.2 246.33, 185.31 246.5, 185.42 246.67, 185.54 246.83, 185.65 247.0, 185.77 247.17, 185.89 247.33, 186.0 247.5, 186.12 247.67, 186.24 247.83, 186.37 248.0, 186.49 248.17, 186.61 248.33, 186.74 248.5, 186.86 248.67, 186.99 248.83, 187.11 249.0, 187.24 249.17, 187.37 249.33, 187.5 249.5, 187.63 249.67, 187.76 249.83, 187.89 250.0, 188.03 250.17, 188.16 250.33, 188.3 250.5, 188.43 250.67, 188.57 250.83, 188.7 251.0, 188.84 251.17, 188.98 251.33, 189.12 251.5, 189.26 251.67, 189.4 251.83, 189.54 252.0, 189.68 252.17, 189.83 252.33, 189.97 252.5, 190.12 252.67, 190.26 252.83, 190.41 253.0, 190.55 253.17, 190.7 253.33, 190.85 253.5, 191.0 253.67, 191.15 253.83, 191.29 254.0, 191.44 254.17, 191.6 254.33, 191.75 254.5, 191.9 254.67, 192.05 254.83, 192.2 255.0, 192.36 255.17, 192.51 255.33, 192.67 255.5, 192.82 255.67, 192.98 255.83, 193.13 256.0, 193.29 256.17, 193.45 256.33, 193.6 256.5, 193.76 256.67, 193.92 256.83, 194.08 257.0, 194.24 257.17, 194.4 257.33, 194.56 257.5, 194.72 257.67, 194.88 257.83, 195.04 258.0, 195.2 258.17, 195.36 258.33, 195.52 258.5, 195.68 258.67, 195.85 258.83, 196.01 259.0, 196.17 259.17, 196.34 259.33, 196.5 259.5, 196.66 259.67, 196.83 259.83, 196.99 260.0, 197.15 260.17, 197.32 260.33, 197.48 260.5, 197.65 260.67, 197.81 260.83, 197.98 261.0, 198.14 261.17, 198.31 261.33, 198.47 261.5, 198.64 261.67, 198.8 261.83, 198.97 262.0, 199.14 262.17, 199.3 262.33, 199.47 262.5, 199.63 262.67, 199.8 262.83, 199.96 263.0, 200.13 263.17, 200.3 263.33, 200.46 263.5, 200.63 263.67, 200.79 263.83, 200.96 264.0, 201.12 264.17, 201.29 264.33, 201.45 264.5, 201.62 264.67, 201.78 264.83, 201.95 265.0, 202.11 265.17, 202.27 265.33, 202.44 265.5, 202.6 265.67, 202.77 265.83, 202.93 266.0, 203.09 266.17, 203.26 266.33, 203.42 266.5, 203.58 266.67, 203.74 266.83, 203.9 267.0, 204.07 267.17, 204.23 267.33, 204.39 267.5, 204.55 267.67, 204.71 267.83, 204.87 268.0, 205.03 268.17, 205.18 268.33, 205.34 268.5, 205.5 268.67, 205.66 268.83, 205.82 269.0, 205.97 269.17, 206.13 269.33, 206.28 269.5, 206.44 269.67, 206.59 269.83, 206.75 270.0, 206.9 270.17, 207.05 270.33, 207.21 270.5, 207.36 270.67, 207.51 270.83, 207.66 271.0, 207.81 271.17, 207.96 271.33, 208.11 271.5, 208.26 271.67, 208.4 271.83, 208.55 272.0, 208.7 272.17, 208.84 272.33, 208.99 272.5, 209.13 272.67, 209.27 272.83, 209.42 273.0, 209.56 273.17, 209.7 273.33, 209.84 273.5, 209.98 273.67, 210.12 273.83, 210.25 274.0, 210.39 274.17, 210.53 274.33, 210.66 274.5, 210.8 274.67, 210.93 274.83, 211.06 275.0, 211.2 275.17, 211.33 275.33, 211.46 275.5, 211.59 275.67, 211.71 275.83, 211.84 276.0, 211.97 276.17, 212.09 276.33, 212.22 276.5, 212.34 276.67, 212.46 276.83, 212.58 277.0, 212.7 277.17, 212.82 277.33, 212.94 277.5, 213.06 277.67, 213.17 277.83, 213.29 278.0, 213.4 278.17, 213.52 278.33, 213.63 278.5, 213.74 278.67, 213.85 278.83, 213.96 279.0, 214.06 279.17, 214.17 279.33, 214.27 279.5, 214.38 279.67, 214.48 279.83, 214.58 280.0, 214.68 280.17, 214.78 280.33, 214.88 280.5, 214.97 280.67, 215.07 280.83, 215.16 281.0, 215.25 281.17, 215.34 281.33, 215.43 281.5, 215.52 281.67, 215.61 281.83, 215.69 282.0, 215.78 282.17, 215.86 282.33, 215.94 282.5, 216.02 282.67, 216.1 282.83, 216.18 283.0, 216.26 283.17, 216.33 283.33, 216.4 283.5, 216.48 283.67, 216.55 283.83, 216.62 284.0, 216.68 284.17, 216.75 284.33, 216.81 284.5, 216.88 284.67, 216.94 284.83, 217.0 285.0, 217.06 285.17, 217.11 285.33, 217.17 285.5, 217.22 285.67, 217.27 285.83, 217.33 286.0, 217.37 286.17, 217.42 286.33, 217.47 286.5, 217.51 286.67, 217.56 286.83, 217.6 287.0, 217.64 287.17, 217.67 287.33, 217.71 287.5, 217.74 287.67, 217.78 287.83, 217.81 288.0, 217.84 288.17, 217.87 288.33, 217.89 288.5, 217.92 288.67, 217.94 288.83, 217.96 289.0, 217.98 289.17, 218.0 289.33, 218.01 289.5, 218.03 289.67, 218.04 289.83, 218.05 290.0, 218.06 290.17, 218.07 290.33, 218.07 290.5, 218.07 290.67, 218.08 290.83, 218.08 291.0, 218.07 291.17, 218.07 291.33, 218.06 291.5, 218.06 291.67, 218.05 291.83, 218.03 292.0, 218.02 292.17, 218.01 292.33, 217.99 292.5, 217.97 292.67, 217.95 292.83, 217.93 293.0, 217.9 293.17, 217.87 293.33, 217.85 293.5, 217.81 293.67, 217.78 293.83, 217.75 294.0, 217.71 294.17, 217.67 294.33, 217.63 294.5, 217.59 294.67, 217.55 294.83, 217.5 295.0, 217.45 295.17, 217.4 295.33, 217.35 295.5, 217.29 295.67, 217.24 295.83, 217.18 296.0, 217.12 296.17, 217.05 296.33, 216.99 296.5, 216.92 296.67, 216.85 296.83, 216.78 297.0, 216.71 297.17, 216.63 297.33, 216.56 297.5, 216.48 297.67, 216.4 297.83, 216.31 298.0, 216.23 298.17, 216.14 298.33, 216.05 298.5, 215.96 298.67, 215.86 298.83, 215.76 299.0, 215.67 299.17, 215.56 299.33, 215.46 299.5, 215.36 299.67, 215.25 299.83, 215.14 300.0, 215.03 300.17, 214.91 300.33, 214.8 300.5, 214.68 300.67, 214.56 300.83, 214.43 301.0, 214.31 301.17, 214.18 301.33, 214.05 301.5, 213.92 301.67, 213.79 301.83, 213.65 302.0, 213.51 302.17, 213.37 302.33, 213.23 302.5, 213.08 302.67, 212.93 302.83, 212.78 303.0, 212.63 303.17, 212.47 303.33, 212.32 303.5, 212.16 303.67, 212.0 303.83, 211.83 304.0, 211.66 304.17, 211.5 304.33, 211.32 304.5, 211.15 304.67, 210.98 304.83, 210.8 305.0, 210.62 305.17, 210.43 305.33, 210.25 305.5, 210.06 305.67, 209.87 305.83, 209.68 306.0, 209.48 306.17, 209.29 306.33, 209.09 306.5, 208.88 306.67, 208.68 306.83, 208.47 307.0, 208.26 307.17, 208.05 307.33, 207.84 307.5, 207.62 307.67, 207.4 307.83, 207.18 308.0, 206.96 308.17, 206.73 308.33, 206.5 308.5, 206.27 308.67, 206.04 308.83, 205.8 309.0, 205.56 309.17, 205.32 309.33, 205.08 309.5, 204.83 309.67, 204.59 309.83, 204.34 310.0, 204.08 310.17, 203.83 310.33, 203.57 310.5, 203.31 310.67, 203.05 310.83, 202.78 311.0, 202.51 311.17, 202.24 311.33, 201.97 311.5, 201.69 311.67, 201.42 311.83, 201.14 312.0, 200.85 312.17, 200.57 312.33, 200.28 312.5, 199.99 312.67, 199.7 312.83, 199.4 313.0, 199.11 313.17, 198.81 313.33, 198.5 313.5, 198.2 313.67, 197.89 313.83, 197.58 314.0, 197.27 314.17, 196.95 314.33, 196.64 314.5, 196.32 314.67, 195.99 314.83, 195.67 315.0, 195.34 315.17, 195.01 315.33, 194.68 315.5, 194.35 315.67, 194.01 315.83, 193.67 316.0, 193.33 316.17, 192.98 316.33, 192.64 316.5, 192.29 316.67, 191.94 316.83, 191.58 317.0, 191.22 317.17, 190.87 317.33, 190.5 317.5, 190.14 317.67, 189.77 317.83, 189.41 318.0, 189.04 318.17, 188.66 318.33, 188.29 318.5, 187.91 318.67, 187.53 318.83, 187.14 319.0, 186.76 319.17, 186.37 319.33, 185.98 319.5, 185.59 319.67, 185.2 319.83, 184.8 320.0, 184.4 320.17, 184.0 320.33, 183.59 320.5, 183.19 320.67, 182.78 320.83, 182.37 321.0, 181.96 321.17, 181.54 321.33, 181.13 321.5, 180.71 321.67, 180.28 321.83, 179.86 322.0, 179.44 322.17, 179.01 322.33, 178.58 322.5, 178.14 322.67, 177.71 322.83, 177.27 323.0, 176.84 323.17, 176.39 323.33, 175.95 323.5, 175.51 323.67, 175.06 323.83, 174.61 324.0, 174.16 324.17, 173.71 324.33, 173.25 324.5, 172.8 324.67, 172.34 324.83, 171.88 325.0, 171.42 325.17, 170.95 325.33, 170.49 325.5, 170.02 325.67, 169.55 325.83, 169.08 326.0, 168.61 326.17, 168.13 326.33, 167.66 326.5, 167.18 326.67, 166.7 326.83, 166.22 327.0, 165.74 327.17, 165.25 327.33, 164.77 327.5, 164.28 327.67, 163.79 327.83, 163.31 328.0, 162.81 328.17, 162.32 328.33, 161.83 328.5, 161.33 328.67, 160.84 328.83, 160.34 329.0, 159.84 329.17, 159.34 329.33, 158.84 329.5, 158.34 329.67, 157.84 329.83, 157.34 330.0, 156.83 330.17, 156.33 330.33, 155.82 330.5, 155.32 330.67, 154.81 330.83, 154.3 331.0, 153.79 331.17, 153.28 331.33, 152.77 331.5, 152.26 331.67, 151.75 331.83, 151.24 332.0, 150.73 332.17, 150.22 332.33, 149.71 332.5, 149.2 332.67, 148.69 332.83, 148.17 333.0, 147.66 333.17, 147.15 333.33, 146.64 333.5, 146.13 333.67, 145.62 333.83, 145.11 334.0, 144.6 334.17, 144.09 334.33, 143.58 334.5, 143.07 334.67, 142.56 334.83, 142.06 335.0, 141.55 335.17, 141.05 335.33, 140.54 335.5, 140.04 335.67, 139.54 335.83, 139.04 336.0, 138.54 336.17, 138.04 336.33, 137.55 336.5, 137.06 336.67, 136.56 336.83, 136.07 337.0, 135.58 337.17, 135.1 337.33, 134.61 337.5, 134.13 337.67, 133.65 337.83, 133.17 338.0, 132.7 338.17, 132.23 338.33, 131.76 338.5, 131.29 338.67, 130.83 338.83, 130.37 339.0, 129.91 339.17, 129.46 339.33, 129.01 339.5, 128.56 339.67, 128.12 339.83, 127.68 340.0, 127.24 340.17, 126.81 340.33, 126.38 340.5, 125.96 340.67, 125.54 340.83, 125.13 341.0, 124.72 341.17, 124.32 341.33, 123.92 341.5, 123.53 341.67, 123.14 341.83, 122.75 342.0, 122.38 342.17, 122.01 342.33, 121.64 342.5, 121.28 342.67, 120.93 342.83, 120.58 343.0, 120.24 343.17, 119.91 343.33, 119.59 343.5, 119.27 343.67, 118.96 343.83, 118.65 344.0, 118.36 344.17, 118.07 344.33, 117.79 344.5, 117.52 344.67, 117.26 344.83, 117.0 345.0, 116.76 345.17, 116.52 345.33, 116.3 345.5, 116.08 345.67, 115.87 345.83, 115.68 346.0, 115.49 346.17, 115.31 346.33, 115.15 346.5, 114.99 346.67, 114.85 346.83, 114.72 347.0, 114.6 347.17, 114.49 347.33, 114.39 347.5, 114.31 347.67, 114.24 347.83, 114.18 348.0, 114.14 348.17, 114.11 348.33, 114.09 348.5, 114.09 348.67, 114.1 348.83, 114.13 349.0, 114.17 349.17, 114.22 349.33, 114.3 349.5, 114.38 349.67, 114.49 349.83, 114.61 350.0, 114.75 350.17, 114.9 350.33, 115.07 350.5, 115.26 350.67, 115.47 350.83, 115.7 351.0, 115.94 351.17, 116.21 351.33, 116.49 351.5, 116.79 351.67, 117.12 351.83, 117.46 352.0, 117.83 352.17, 118.22 352.33, 118.62 352.5, 119.06 352.67, 119.51 352.83, 119.99 353.0, 120.49 353.17, 121.01 353.33, 121.56 353.5, 122.13 353.67, 122.73 353.83, 123.35 354.0, 124.0 354.17, 124.68 354.33, 125.38 354.5, 126.11 354.67, 126.87 354.83, 127.66 355.0, 128.47 355.17, 129.32 355.33, 130.19 355.5, 131.09 355.67, 132.03 355.83, 133.0 356.0, 133.99 356.17, 135.02 356.33, 136.09 356.5, 137.18 356.67, 138.31 356.83, 139.48 357.0, 140.68 357.17, 141.91 357.33, 143.19 357.5, 144.49 357.67, 145.84 357.83, 147.22 358.0, 148.65 358.17, 150.11 358.33, 151.61 358.5, 153.15 358.67, 154.73 358.83, 156.36 359.0, 158.02 359.17, 159.73 359.33, 161.49 359.5, 163.28 359.67, 165.13 359.83, 167.01 360.0, 168.95 360.17, 170.93 360.33, 172.96 360.5, 175.04 360.67, 177.16 360.83, 179.34 361.0, 181.57 361.17, 183.85 361.33, 186.18 361.5, 188.57 361.67, 191.01 361.83, 193.5 362.0, 196.05 362.17, 198.65 362.33, 201.32 362.5, 204.04 362.67, 206.82 362.83, 209.66 363.0, 212.56 363.17, 215.52 363.33, 218.54 363.5, 221.63 363.67, 224.78 363.83, 228.0 364.0, 231.28 364.17, 234.63 364.33, 238.04 364.5, 241.53 364.67, 245.08 364.83, 248.71 365.0, 252.41 365.17, 256.18 365.33, 260.03 365.5, 263.95 365.67, 267.94 365.83, 272.02 366.0, 276.17 366.17, 280.4 366.33, 284.71 366.5, 289.1 366.67, 293.57 366.83, 298.13 367.0, 302.77 367.17, 307.5 367.33, 312.32 367.5, 317.22 367.67, 322.22 367.83, 327.3 368.0, 332.48 368.17, 337.75 368.33, 343.11 368.5, 348.57 368.67, 354.13 368.83, 359.79 369.0, 365.54 369.17, 371.4 369.33, 377.35 369.5, 383.42 369.67, 389.58 369.83, 395.86 370.0, 402.24 370.17, 408.73 370.33, 415.33 370.5, 422.04 370.67, 428.87 370.83, 435.81 371.0, 442.87 371.17, 450.05 371.33, 457.34 371.5, 464.76 371.67, 472.3 371.83, 479.96 372.0, 487.75 372.17, 495.67 372.33, 503.72 372.5, 511.89 372.67, 520.2 372.83, 528.65 373.0, 537.23 373.17, 545.95 373.33, 554.8 373.5, 563.8 373.67, 572.94 373.83, 582.23 374.0, 591.66 374.17, 601.24 374.33, 610.97 374.5, 620.85 374.67, 630.89 374.83, 641.08 375.0, 651.43 375.17, 661.94 375.33, 672.61 375.5, 683.44 375.67, 694.44 375.83, 705.61 376.0, 716.95 376.17, 728.46 376.33, 740.14 376.5, 752.0 376.67, 764.04 376.83, 776.26 377.0, 788.66 377.17, 801.24 377.33, 814.02 377.5, 826.98 377.67, 840.13 377.83, 853.48 378.0, 867.02 378.17, 880.76 378.33, 894.71 378.5, 908.85 378.67, 923.2 378.83, 937.76 379.0, 952.53 379.17, 967.52 379.33, 982.72 379.5, 998.13 379.67, 1013.77 379.83, 1029.63 380.0, 1045.72 380.17, 1062.03 380.33, 1078.58 380.5, 1095.36 380.67, 1112.38 380.83, 1129.64 381.0, 1147.14 381.17, 1164.88 381.33, 1182.87 381.5, 1201.11 381.67, 1219.61 381.83, 1238.36 382.0, 1257.37 382.17, 1276.65 382.33, 1296.19 382.5, 1316.0 382.67, 1336.08 382.83, 1356.43 383.0, 1377.06 383.17, 1397.98 383.33, 1419.17 383.5, 1440.66 383.67, 1462.43 383.83, 1484.5 384.0, 1506.87 384.17, 1529.54 384.33, 1552.51 384.5, 1575.79 384.67, 1599.37 384.83, 1623.28 385.0, 1647.5 385.17, 1672.04 385.33, 1696.91 385.5, 1722.1 385.67, 1747.63 385.83, 1773.49 386.0, 1799.69 386.17, 1826.24 386.33, 1853.13 386.5, 1880.37 386.67, 1907.97 386.83, 1935.93 387.0, 1964.25 387.17, 1992.93 387.33, 2021.99 387.5, 2051.42 387.67, 2081.22 387.83, 2111.42 388.0, 2141.99 388.17, 2172.96 388.33, 2204.33 388.5, 2236.09 388.67, 2268.26 388.83, 2300.83 389.0, 2333.82 389.17, 2367.22 389.33, 2401.05 389.5, 2435.3 389.67, 2469.98 389.83, 2505.1 390.0, 2540.65 390.17, 2576.65 390.33, 2613.1 390.5, 2650.01 390.67, 2687.37 390.83, 2725.2 391.0, 2763.49 391.17, 2802.26 391.33, 2841.5 391.5, 2881.23 391.67, 2921.45 391.83, 2962.16 392.0, 3003.36 392.17, 3045.08 392.33, 3087.3 392.5, 3130.03 392.67, 3173.29 392.83, 3217.07 393.0, 3261.38 393.17, 3306.23 393.33, 3351.62 393.5, 3397.55 393.67, 3444.04 393.83, 3491.09 394.0, 3538.7 394.17, 3586.88 394.33, 3635.63 394.5, 3684.97 394.67, 3734.9 394.83, 3785.42 395.0, 3836.54 395.17, 3888.26 395.33, 3940.6 395.5, 3993.55 395.67, 4047.13 395.83, 4101.34 396.0, 4156.19 396.17, 4211.68 396.33, 4267.82 396.5, 4324.62 396.67, 4382.08 396.83, 4440.21 397.0, 4499.02 397.17, 4558.51 397.33, 4618.69 397.5, 4679.56 397.67, 4741.14 397.83, 4803.44 398.0, 4866.45 398.17, 4930.18 398.33, 4994.65 398.5, 5059.85 398.67, 5125.81 398.83, 5192.51 399.0, 5259.98 399.17, 5328.22 399.33, 5397.24 399.5, 5467.04 399.67, 5537.63 399.83, 5609.02 400.0, 5681.22 " fill="none" stroke="white" stroke-width="1.5" stroke-linejoin="round" stroke-opacity="1"/>

 </svg>