<svg version="1.1" 
 baseProfile="full" 
 width="400" 
 height="400" 
 xmlns="http://www.w3.org/2000/svg">
<rect x="0.0" y="0.0" width="400" height="400" fill="black" stroke="black" stroke-width="0" opacity="1"/>
<line x1="0.0" y1="0.0" x2="0.0" y2="400.0" stroke="white" stroke-width="1" opacity="0.4" stroke-linecap="butt"/>
<line x1="40.0" y1="0.0" x2="40.0" y2="400.0" stroke="white" stroke-width="1" opacity="0.4" stroke-linecap="butt"/>
<line x1="80.0" y1="0.0" x2="80.0" y2="400.0" stroke="white" stroke-width="1" opacity="0.4" stroke-linecap="butt"/>
<line x1="120.0" y1="0.0" x2="120.0" y2="400.0" stroke="white" stroke-width="1" opacity="0.4" stroke-linecap="butt"/>
<line x1="160.0" y1="0.0" x2="160.0" y2="400.0" stroke="white" stroke-width="1" opacity="0.4" stroke-linecap="butt"/>
<line x1="200.0" y1="0.0" x2="200.0" y2="400.0" stroke="white" stroke-width="1" opacity="0.4" stroke-linecap="butt"/>
<line x1="240.0" y1="0.0" x2="240.0" y2="400.0" stroke="white" stroke-width="1" opacity="0.4" stroke-linecap="butt"/>
<line x1="280.0" y1="0.0" x2="280.0" y2="400.0" stroke="white" stroke-width="1" opacity="0.4" stroke-linecap="butt"/>
<line x1="320.0" y1="0.0" x2="320.0" y2="400.0" stroke="white" stroke-width="1" opacity="0.4" stroke-linecap="butt"/>
<line x1="360.0" y1="0.0" x2="360.0" y2="400.0" stroke="white" stroke-width="1" opacity="0.4" stroke-linecap="butt"/>
<line x1="0.0" y1="0.0" x2="400.0" y2="0.0" stroke="white" stroke-width="1" opacity="0.4" stroke-linecap="butt"/>
<line x1="0.0" y1="40.0" x2="400.0" y2="40.0" stroke="white" stroke-width="1" opacity="0.4" stroke-linecap="butt"/>
<line x1="0.0" y1="80.0" x2="400.0" y2="80.0" stroke="white" stroke-width="1" opacity="0.4" stroke-linecap="butt"/>
<line x1="0.0" y1="120.0" x2="400.0" y2="120.0" stroke="white" stroke-width="1" opacity="0.4" stroke-linecap="butt"/>
<line x1="0.0" y1="160.0" x2="400.0" y2="160.0" stroke="white" stroke-width="1" opacity="0.4" stroke-linecap="butt"/>
<line x1="0.0" y1="200.0" x2="400.0" y2="200.0" stroke="white" stroke-width="1" opacity="0.4" stroke-linecap="butt"/>
<line x1="0.0" y1="240.0" x2="400.0" y2="240.0" stroke="white" stroke-width="1" opacity="0.4" stroke-linecap="butt"/>
<line x1="0.0" y1="280.0" x2="400.0" y2="280.0" stroke="white" stroke-width="1" opacity="0.4" stroke-linecap="butt"/>
<line x1="0.0" y1="320.0" x2="400.0" y2="320.0" stroke="white" stroke-width="1" opacity="0.4" stroke-linecap="butt"/>
<line x1="0.0" y1="360.0" x2="400.0" y2="360.0" stroke="white" stroke-width="1" opacity="0.4" stroke-linecap="butt"/>
<line x1="0.0" y1="200.0" x2="400.0" y2="200.0" stroke="yellow" stroke-width="2.5" opacity="1" stroke-linecap="butt"/>
<line x1="200.0" y1="0.0" x2="200.0" y2="400.0" stroke="yellow" stroke-width="2.5" opacity="1" stroke-linecap="butt"/>
<polygon points="391.0 204.0, 401.0 200.0, 391.0 196.0, 393.0 200.0" fill="yellow"/><polygon points="204.0 9.0, 200.0 -1.0, 196.0 9.0, 200.0 7.0" fill="yellow"/><image x="-60.0" y="-60.0" width="200" height="200" href="/Users/girirajhira/PycharmProjects/Giraphics3/Taylor/expr.png"/><polyline points="0.0, -12170.55 0.17, -12035.46 0.33, -11901.7 0.5, -11769.26 0.67, -11638.13 0.83, -11508.29 1.0, -11379.73 1.17, -11252.45 1.33, -11126.43 1.5, -11001.66 1.67, -10878.12 1.83, -10755.82 2.0, -10634.73 2.17, -10514.84 2.33, -10396.15 2.5, -10278.65 2.67, -10162.32 2.83, -10047.15 3.0, -9933.14 3.17, -9820.27 3.33, -9708.53 3.5, -9597.91 3.67, -9488.41 3.83, -9380.0 4.0, -9272.69 4.17, -9166.47 4.33, -9061.31 4.5, -8957.22 4.67, -8854.18 4.83, -8752.18 5.0, -8651.22 5.17, -8551.28 5.33, -8452.36 5.5, -8354.44 5.67, -8257.53 5.83, -8161.6 6.0, -8066.64 6.17, -7972.66 6.33, -7879.64 6.5, -7787.58 6.67, -7696.45 6.83, -7606.26 7.0, -7517.0 7.17, -7428.65 7.33, -7341.22 7.5, -7254.69 7.67, -7169.04 7.83, -7084.29 8.0, -7000.41 8.17, -6917.39 8.33, -6835.24 8.5, -6753.94 8.67, -6673.49 8.83, -6593.87 9.0, -6515.08 9.17, -6437.11 9.33, -6359.95 9.5, -6283.6 9.67, -6208.05 9.83, -6133.28 10.0, -6059.31 10.17, -5986.1 10.33, -5913.67 10.5, -5842.0 10.67, -5771.08 10.83, -5700.91 11.0, -5631.48 11.17, -5562.78 11.33, -5494.81 11.5, -5427.56 11.67, -5361.02 11.83, -5295.18 12.0, -5230.05 12.17, -5165.61 12.33, -5101.85 12.5, -5038.77 12.67, -4976.37 12.83, -4914.63 13.0, -4853.55 13.17, -4793.13 13.33, -4733.36 13.5, -4674.22 13.67, -4615.72 13.83, -4557.85 14.0, -4500.6 14.17, -4443.97 14.33, -4387.96 14.5, -4332.54 14.67, -4277.73 14.83, -4223.51 15.0, -4169.87 15.17, -4116.82 15.33, -4064.35 15.5, -4012.44 15.67, -3961.11 15.83, -3910.33 16.0, -3860.1 16.17, -3810.43 16.33, -3761.3 16.5, -3712.7 16.67, -3664.64 16.83, -3617.11 17.0, -3570.1 17.17, -3523.61 17.33, -3477.63 17.5, -3432.16 17.67, -3387.19 17.83, -3342.72 18.0, -3298.74 18.17, -3255.24 18.33, -3212.24 18.5, -3169.7 18.67, -3127.65 18.83, -3086.06 19.0, -3044.93 19.17, -3004.26 19.33, -2964.05 19.5, -2924.29 19.67, -2884.98 19.83, -2846.1 20.0, -2807.66 20.17, -2769.66 20.33, -2732.08 20.5, -2694.93 20.67, -2658.19 20.83, -2621.88 21.0, -2585.97 21.17, -2550.47 21.33, -2515.37 21.5, -2480.67 21.67, -2446.37 21.83, -2412.46 22.0, -2378.93 22.17, -2345.79 22.33, -2313.02 22.5, -2280.63 22.67, -2248.62 22.83, -2216.97 23.0, -2185.68 23.17, -2154.75 23.33, -2124.18 23.5, -2093.97 23.67, -2064.1 23.83, -2034.57 24.0, -2005.39 24.17, -1976.55 24.33, -1948.04 24.5, -1919.87 24.67, -1892.02 24.83, -1864.49 25.0, -1837.29 25.17, -1810.41 25.33, -1783.84 25.5, -1757.58 25.67, -1731.63 25.83, -1705.98 26.0, -1680.64 26.17, -1655.59 26.33, -1630.84 26.5, -1606.39 26.67, -1582.22 26.83, -1558.33 27.0, -1534.74 27.17, -1511.42 27.33, -1488.38 27.5, -1465.61 27.67, -1443.11 27.83, -1420.89 28.0, -1398.93 28.17, -1377.23 28.33, -1355.79 28.5, -1334.61 28.67, -1313.68 28.83, -1293.01 29.0, -1272.58 29.17, -1252.4 29.33, -1232.47 29.5, -1212.78 29.67, -1193.32 29.83, -1174.1 30.0, -1155.12 30.17, -1136.37 30.33, -1117.84 30.5, -1099.54 30.67, -1081.47 30.83, -1063.62 31.0, -1045.98 31.17, -1028.56 31.33, -1011.36 31.5, -994.37 31.67, -977.58 31.83, -961.01 32.0, -944.64 32.17, -928.47 32.33, -912.5 32.5, -896.74 32.67, -881.16 32.83, -865.79 33.0, -850.6 33.17, -835.6 33.33, -820.79 33.5, -806.17 33.67, -791.73 33.83, -777.47 34.0, -763.4 34.17, -749.49 34.33, -735.77 34.5, -722.22 34.67, -708.84 34.83, -695.63 35.0, -682.59 35.17, -669.71 35.33, -657.0 35.5, -644.45 35.67, -632.06 35.83, -619.83 36.0, -607.76 36.17, -595.84 36.33, -584.07 36.5, -572.46 36.67, -561.0 36.83, -549.68 37.0, -538.51 37.17, -527.49 37.33, -516.61 37.5, -505.87 37.67, -495.27 37.83, -484.81 38.0, -474.49 38.17, -464.3 38.33, -454.25 38.5, -444.33 38.67, -434.54 38.83, -424.87 39.0, -415.34 39.17, -405.93 39.33, -396.65 39.5, -387.49 39.67, -378.45 39.83, -369.54 40.0, -360.74 40.17, -352.06 40.33, -343.49 40.5, -335.04 40.67, -326.71 40.83, -318.49 41.0, -310.37 41.17, -302.37 41.33, -294.48 41.5, -286.69 41.67, -279.01 41.83, -271.44 42.0, -263.96 42.17, -256.59 42.33, -249.32 42.5, -242.15 42.67, -235.08 42.83, -228.11 43.0, -221.23 43.17, -214.45 43.33, -207.76 43.5, -201.17 43.67, -194.67 43.83, -188.25 44.0, -181.93 44.17, -175.7 44.33, -169.55 44.5, -163.49 44.67, -157.51 44.83, -151.62 45.0, -145.82 45.17, -140.09 45.33, -134.45 45.5, -128.88 45.67, -123.4 45.83, -118.0 46.0, -112.67 46.17, -107.42 46.33, -102.24 46.5, -97.14 46.67, -92.11 46.83, -87.16 47.0, -82.27 47.17, -77.46 47.33, -72.72 47.5, -68.05 47.67, -63.44 47.83, -58.91 48.0, -54.44 48.17, -50.03 48.33, -45.7 48.5, -41.42 48.67, -37.21 48.83, -33.06 49.0, -28.98 49.17, -24.95 49.33, -20.99 49.5, -17.08 49.67, -13.24 49.83, -9.45 50.0, -5.72 50.17, -2.04 50.33, 1.58 50.5, 5.14 50.67, 8.65 50.83, 12.1 51.0, 15.5 51.17, 18.85 51.33, 22.15 51.5, 25.39 51.67, 28.59 51.83, 31.73 52.0, 34.83 52.17, 37.88 52.33, 40.88 52.5, 43.83 52.67, 46.74 52.83, 49.6 53.0, 52.41 53.17, 55.18 53.33, 57.91 53.5, 60.59 53.67, 63.22 53.83, 65.82 54.0, 68.37 54.17, 70.89 54.33, 73.36 54.5, 75.79 54.67, 78.18 54.83, 80.53 55.0, 82.84 55.17, 85.12 55.33, 87.35 55.5, 89.55 55.67, 91.72 55.83, 93.84 56.0, 95.93 56.17, 97.99 56.33, 100.01 56.5, 101.99 56.67, 103.95 56.83, 105.86 57.0, 107.75 57.17, 109.6 57.33, 111.42 57.5, 113.21 57.67, 114.97 57.83, 116.7 58.0, 118.39 58.17, 120.06 58.33, 121.7 58.5, 123.31 58.67, 124.89 58.83, 126.44 59.0, 127.96 59.17, 129.46 59.33, 130.92 59.5, 132.37 59.67, 133.78 59.83, 135.17 60.0, 136.53 60.17, 137.87 60.33, 139.18 60.5, 140.47 60.67, 141.74 60.83, 142.98 61.0, 144.19 61.17, 145.39 61.33, 146.56 61.5, 147.71 61.67, 148.83 61.83, 149.93 62.0, 151.02 62.17, 152.08 62.33, 153.12 62.5, 154.14 62.67, 155.14 62.83, 156.11 63.0, 157.07 63.17, 158.01 63.33, 158.93 63.5, 159.83 63.67, 160.72 63.83, 161.58 64.0, 162.43 64.17, 163.25 64.33, 164.07 64.5, 164.86 64.67, 165.63 64.83, 166.39 65.0, 167.14 65.17, 167.86 65.33, 168.57 65.5, 169.27 65.67, 169.95 65.83, 170.61 66.0, 171.26 66.17, 171.9 66.33, 172.52 66.5, 173.12 66.67, 173.71 66.83, 174.29 67.0, 174.85 67.17, 175.4 67.33, 175.94 67.5, 176.46 67.67, 176.97 67.83, 177.47 68.0, 177.96 68.17, 178.43 68.33, 178.89 68.5, 179.34 68.67, 179.78 68.83, 180.2 69.0, 180.62 69.17, 181.02 69.33, 181.41 69.5, 181.8 69.67, 182.17 69.83, 182.53 70.0, 182.88 70.17, 183.22 70.33, 183.55 70.5, 183.87 70.67, 184.18 70.83, 184.49 71.0, 184.78 71.17, 185.06 71.33, 185.34 71.5, 185.6 71.67, 185.86 71.83, 186.11 72.0, 186.35 72.17, 186.58 72.33, 186.81 72.5, 187.02 72.67, 187.23 72.83, 187.44 73.0, 187.63 73.17, 187.82 73.33, 188.0 73.5, 188.17 73.67, 188.33 73.83, 188.49 74.0, 188.64 74.17, 188.79 74.33, 188.93 74.5, 189.06 74.67, 189.19 74.83, 189.31 75.0, 189.42 75.17, 189.53 75.33, 189.63 75.5, 189.73 75.67, 189.82 75.83, 189.91 76.0, 189.99 76.17, 190.06 76.33, 190.14 76.5, 190.2 76.67, 190.26 76.83, 190.32 77.0, 190.37 77.17, 190.42 77.33, 190.46 77.5, 190.5 77.67, 190.53 77.83, 190.56 78.0, 190.59 78.17, 190.61 78.33, 190.63 78.5, 190.64 78.67, 190.65 78.83, 190.66 79.0, 190.66 79.17, 190.66 79.33, 190.65 79.5, 190.65 79.67, 190.64 79.83, 190.62 80.0, 190.61 80.17, 190.59 80.33, 190.56 80.5, 190.54 80.67, 190.51 80.83, 190.48 81.0, 190.44 81.17, 190.41 81.33, 190.37 81.5, 190.33 81.67, 190.28 81.83, 190.24 82.0, 190.19 82.17, 190.14 82.33, 190.09 82.5, 190.03 82.67, 189.98 82.83, 189.92 83.0, 189.86 83.17, 189.79 83.33, 189.73 83.5, 189.66 83.67, 189.6 83.83, 189.53 84.0, 189.46 84.17, 189.39 84.33, 189.31 84.5, 189.24 84.67, 189.16 84.83, 189.09 85.0, 189.01 85.17, 188.93 85.33, 188.85 85.5, 188.77 85.67, 188.68 85.83, 188.6 86.0, 188.52 86.17, 188.43 86.33, 188.34 86.5, 188.26 86.67, 188.17 86.83, 188.08 87.0, 187.99 87.17, 187.9 87.33, 187.81 87.5, 187.72 87.67, 187.63 87.83, 187.54 88.0, 187.45 88.17, 187.35 88.33, 187.26 88.5, 187.17 88.67, 187.07 88.83, 186.98 89.0, 186.89 89.17, 186.79 89.33, 186.7 89.5, 186.6 89.67, 186.51 89.83, 186.41 90.0, 186.32 90.17, 186.23 90.33, 186.13 90.5, 186.04 90.67, 185.94 90.83, 185.85 91.0, 185.76 91.17, 185.66 91.33, 185.57 91.5, 185.48 91.67, 185.38 91.83, 185.29 92.0, 185.2 92.17, 185.11 92.33, 185.02 92.5, 184.93 92.67, 184.84 92.83, 184.75 93.0, 184.66 93.17, 184.57 93.33, 184.48 93.5, 184.39 93.67, 184.3 93.83, 184.22 94.0, 184.13 94.17, 184.05 94.33, 183.96 94.5, 183.88 94.67, 183.79 94.83, 183.71 95.0, 183.63 95.17, 183.55 95.33, 183.47 95.5, 183.39 95.67, 183.31 95.83, 183.23 96.0, 183.16 96.17, 183.08 96.33, 183.01 96.5, 182.93 96.67, 182.86 96.83, 182.79 97.0, 182.71 97.17, 182.64 97.33, 182.58 97.5, 182.51 97.67, 182.44 97.83, 182.37 98.0, 182.31 98.17, 182.24 98.33, 182.18 98.5, 182.12 98.67, 182.06 98.83, 182.0 99.0, 181.94 99.17, 181.88 99.33, 181.82 99.5, 181.77 99.67, 181.71 99.83, 181.66 100.0, 181.61 100.17, 181.56 100.33, 181.51 100.5, 181.46 100.67, 181.41 100.83, 181.37 101.0, 181.32 101.17, 181.28 101.33, 181.24 101.5, 181.2 101.67, 181.16 101.83, 181.12 102.0, 181.08 102.17, 181.04 102.33, 181.01 102.5, 180.98 102.67, 180.94 102.83, 180.91 103.0, 180.88 103.17, 180.86 103.33, 180.83 103.5, 180.8 103.67, 180.78 103.83, 180.76 104.0, 180.74 104.17, 180.72 104.33, 180.7 104.5, 180.68 104.67, 180.66 104.83, 180.65 105.0, 180.64 105.17, 180.62 105.33, 180.61 105.5, 180.6 105.67, 180.6 105.83, 180.59 106.0, 180.59 106.17, 180.58 106.33, 180.58 106.5, 180.58 106.67, 180.58 106.83, 180.58 107.0, 180.59 107.17, 180.59 107.33, 180.6 107.5, 180.6 107.67, 180.61 107.83, 180.62 108.0, 180.63 108.17, 180.65 108.33, 180.66 108.5, 180.68 108.67, 180.7 108.83, 180.71 109.0, 180.74 109.17, 180.76 109.33, 180.78 109.5, 180.8 109.67, 180.83 109.83, 180.86 110.0, 180.89 110.17, 180.92 110.33, 180.95 110.5, 180.98 110.67, 181.01 110.83, 181.05 111.0, 181.09 111.17, 181.12 111.33, 181.16 111.5, 181.21 111.67, 181.25 111.83, 181.29 112.0, 181.34 112.17, 181.38 112.33, 181.43 112.5, 181.48 112.67, 181.53 112.83, 181.58 113.0, 181.64 113.17, 181.69 113.33, 181.75 113.5, 181.8 113.67, 181.86 113.83, 181.92 114.0, 181.99 114.17, 182.05 114.33, 182.11 114.5, 182.18 114.67, 182.24 114.83, 182.31 115.0, 182.38 115.17, 182.45 115.33, 182.52 115.5, 182.6 115.67, 182.67 115.83, 182.75 116.0, 182.82 116.17, 182.9 116.33, 182.98 116.5, 183.06 116.67, 183.14 116.83, 183.23 117.0, 183.31 117.17, 183.4 117.33, 183.48 117.5, 183.57 117.67, 183.66 117.83, 183.75 118.0, 183.84 118.17, 183.94 118.33, 184.03 118.5, 184.12 118.67, 184.22 118.83, 184.32 119.0, 184.42 119.17, 184.52 119.33, 184.62 119.5, 184.72 119.67, 184.82 119.83, 184.93 120.0, 185.03 120.17, 185.14 120.33, 185.25 120.5, 185.35 120.67, 185.46 120.83, 185.57 121.0, 185.69 121.17, 185.8 121.33, 185.91 121.5, 186.03 121.67, 186.14 121.83, 186.26 122.0, 186.38 122.17, 186.5 122.33, 186.62 122.5, 186.74 122.67, 186.86 122.83, 186.98 123.0, 187.11 123.17, 187.23 123.33, 187.36 123.5, 187.48 123.67, 187.61 123.83, 187.74 124.0, 187.87 124.17, 188.0 124.33, 188.13 124.5, 188.26 124.67, 188.39 124.83, 188.53 125.0, 188.66 125.17, 188.8 125.33, 188.93 125.5, 189.07 125.67, 189.21 125.83, 189.35 126.0, 189.49 126.17, 189.63 126.33, 189.77 126.5, 189.91 126.67, 190.05 126.83, 190.19 127.0, 190.34 127.17, 190.48 127.33, 190.63 127.5, 190.77 127.67, 190.92 127.83, 191.07 128.0, 191.21 128.17, 191.36 128.33, 191.51 128.5, 191.66 128.67, 191.81 128.83, 191.96 129.0, 192.11 129.17, 192.26 129.33, 192.42 129.5, 192.57 129.67, 192.72 129.83, 192.88 130.0, 193.03 130.17, 193.19 130.33, 193.34 130.5, 193.5 130.67, 193.66 130.83, 193.81 131.0, 193.97 131.17, 194.13 131.33, 194.29 131.5, 194.45 131.67, 194.61 131.83, 194.77 132.0, 194.93 132.17, 195.09 132.33, 195.25 132.5, 195.41 132.67, 195.57 132.83, 195.73 133.0, 195.89 133.17, 196.06 133.33, 196.22 133.5, 196.38 133.67, 196.55 133.83, 196.71 134.0, 196.87 134.17, 197.04 134.33, 197.2 134.5, 197.37 134.67, 197.53 134.83, 197.69 135.0, 197.86 135.17, 198.02 135.33, 198.19 135.5, 198.36 135.67, 198.52 135.83, 198.69 136.0, 198.85 136.17, 199.02 136.33, 199.18 136.5, 199.35 136.67, 199.52 136.83, 199.68 137.0, 199.85 137.17, 200.02 137.33, 200.18 137.5, 200.35 137.67, 200.51 137.83, 200.68 138.0, 200.85 138.17, 201.01 138.33, 201.18 138.5, 201.34 138.67, 201.51 138.83, 201.68 139.0, 201.84 139.17, 202.01 139.33, 202.17 139.5, 202.34 139.67, 202.5 139.83, 202.67 140.0, 202.83 140.17, 203.0 140.33, 203.16 140.5, 203.33 140.67, 203.49 140.83, 203.65 141.0, 203.82 141.17, 203.98 141.33, 204.14 141.5, 204.31 141.67, 204.47 141.83, 204.63 142.0, 204.79 142.17, 204.95 142.33, 205.12 142.5, 205.28 142.67, 205.44 142.83, 205.6 143.0, 205.76 143.17, 205.92 143.33, 206.07 143.5, 206.23 143.67, 206.39 143.83, 206.55 144.0, 206.71 144.17, 206.86 144.33, 207.02 144.5, 207.17 144.67, 207.33 144.83, 207.48 145.0, 207.64 145.17, 207.79 145.33, 207.94 145.5, 208.1 145.67, 208.25 145.83, 208.4 146.0, 208.55 146.17, 208.7 146.33, 208.85 146.5, 209.0 146.67, 209.15 146.83, 209.3 147.0, 209.44 147.17, 209.59 147.33, 209.74 147.5, 209.88 147.67, 210.03 147.83, 210.17 148.0, 210.31 148.17, 210.45 148.33, 210.6 148.5, 210.74 148.67, 210.88 148.83, 211.02 149.0, 211.16 149.17, 211.29 149.33, 211.43 149.5, 211.57 149.67, 211.7 149.83, 211.84 150.0, 211.97 150.17, 212.1 150.33, 212.24 150.5, 212.37 150.67, 212.5 150.83, 212.63 151.0, 212.76 151.17, 212.88 151.33, 213.01 151.5, 213.14 151.67, 213.26 151.83, 213.39 152.0, 213.51 152.17, 213.63 152.33, 213.75 152.5, 213.87 152.67, 213.99 152.83, 214.11 153.0, 214.23 153.17, 214.35 153.33, 214.46 153.5, 214.58 153.67, 214.69 153.83, 214.8 154.0, 214.91 154.17, 215.03 154.33, 215.13 154.5, 215.24 154.67, 215.35 154.83, 215.46 155.0, 215.56 155.17, 215.67 155.33, 215.77 155.5, 215.87 155.67, 215.97 155.83, 216.07 156.0, 216.17 156.17, 216.27 156.33, 216.36 156.5, 216.46 156.67, 216.55 156.83, 216.65 157.0, 216.74 157.17, 216.83 157.33, 216.92 157.5, 217.01 157.67, 217.09 157.83, 217.18 158.0, 217.26 158.17, 217.35 158.33, 217.43 158.5, 217.51 158.67, 217.59 158.83, 217.67 159.0, 217.75 159.17, 217.82 159.33, 217.9 159.5, 217.97 159.67, 218.04 159.83, 218.12 160.0, 218.19 160.17, 218.25 160.33, 218.32 160.5, 218.39 160.67, 218.45 160.83, 218.52 161.0, 218.58 161.17, 218.64 161.33, 218.7 161.5, 218.76 161.67, 218.82 161.83, 218.87 162.0, 218.93 162.17, 218.98 162.33, 219.03 162.5, 219.08 162.67, 219.13 162.83, 219.18 163.0, 219.23 163.17, 219.27 163.33, 219.31 163.5, 219.36 163.67, 219.4 163.83, 219.44 164.0, 219.48 164.17, 219.51 164.33, 219.55 164.5, 219.58 164.67, 219.62 164.83, 219.65 165.0, 219.68 165.17, 219.71 165.33, 219.74 165.5, 219.76 165.67, 219.79 165.83, 219.81 166.0, 219.83 166.17, 219.85 166.33, 219.87 166.5, 219.89 166.67, 219.91 166.83, 219.92 167.0, 219.94 167.17, 219.95 167.33, 219.96 167.5, 219.97 167.67, 219.98 167.83, 219.99 168.0, 219.99 168.17, 220.0 168.33, 220.0 168.5, 220.0 168.67, 220.0 168.83, 220.0 169.0, 220.0 169.17, 219.99 169.33, 219.99 169.5, 219.98 169.67, 219.97 169.83, 219.96 170.0, 219.95 170.17, 219.94 170.33, 219.92 170.5, 219.91 170.67, 219.89 170.83, 219.87 171.0, 219.85 171.17, 219.83 171.33, 219.81 171.5, 219.79 171.67, 219.76 171.83, 219.74 172.0, 219.71 172.17, 219.68 172.33, 219.65 172.5, 219.62 172.67, 219.58 172.83, 219.55 173.0, 219.51 173.17, 219.48 173.33, 219.44 173.5, 219.4 173.67, 219.36 173.83, 219.32 174.0, 219.27 174.17, 219.23 174.33, 219.18 174.5, 219.13 174.67, 219.08 174.83, 219.03 175.0, 218.98 175.17, 218.93 175.33, 218.87 175.5, 218.82 175.67, 218.76 175.83, 218.7 176.0, 218.64 176.17, 218.58 176.33, 218.52 176.5, 218.45 176.67, 218.39 176.83, 218.32 177.0, 218.26 177.17, 218.19 177.33, 218.12 177.5, 218.05 177.67, 217.97 177.83, 217.9 178.0, 217.82 178.17, 217.75 178.33, 217.67 178.5, 217.59 178.67, 217.51 178.83, 217.43 179.0, 217.35 179.17, 217.26 179.33, 217.18 179.5, 217.09 179.67, 217.01 179.83, 216.92 180.0, 216.83 180.17, 216.74 180.33, 216.65 180.5, 216.55 180.67, 216.46 180.83, 216.36 181.0, 216.27 181.17, 216.17 181.33, 216.07 181.5, 215.97 181.67, 215.87 181.83, 215.77 182.0, 215.67 182.17, 215.56 182.33, 215.46 182.5, 215.35 182.67, 215.24 182.83, 215.14 183.0, 215.03 183.17, 214.92 183.33, 214.8 183.5, 214.69 183.67, 214.58 183.83, 214.46 184.0, 214.35 184.17, 214.23 184.33, 214.11 184.5, 213.99 184.67, 213.87 184.83, 213.75 185.0, 213.63 185.17, 213.51 185.33, 213.39 185.5, 213.26 185.67, 213.14 185.83, 213.01 186.0, 212.88 186.17, 212.76 186.33, 212.63 186.5, 212.5 186.67, 212.37 186.83, 212.24 187.0, 212.1 187.17, 211.97 187.33, 211.84 187.5, 211.7 187.67, 211.57 187.83, 211.43 188.0, 211.29 188.17, 211.15 188.33, 211.02 188.5, 210.88 188.67, 210.74 188.83, 210.6 189.0, 210.45 189.17, 210.31 189.33, 210.17 189.5, 210.02 189.67, 209.88 189.83, 209.73 190.0, 209.59 190.17, 209.44 190.33, 209.29 190.5, 209.15 190.67, 209.0 190.83, 208.85 191.0, 208.7 191.17, 208.55 191.33, 208.4 191.5, 208.25 191.67, 208.09 191.83, 207.94 192.0, 207.79 192.17, 207.63 192.33, 207.48 192.5, 207.33 192.67, 207.17 192.83, 207.01 193.0, 206.86 193.17, 206.7 193.33, 206.54 193.5, 206.39 193.67, 206.23 193.83, 206.07 194.0, 205.91 194.17, 205.75 194.33, 205.59 194.5, 205.43 194.67, 205.27 194.83, 205.11 195.0, 204.95 195.17, 204.79 195.33, 204.62 195.5, 204.46 195.67, 204.3 195.83, 204.14 196.0, 203.97 196.17, 203.81 196.33, 203.65 196.5, 203.48 196.67, 203.32 196.83, 203.15 197.0, 202.99 197.17, 202.82 197.33, 202.66 197.5, 202.49 197.67, 202.33 197.83, 202.16 198.0, 202.0 198.17, 201.83 198.33, 201.66 198.5, 201.5 198.67, 201.33 198.83, 201.17 199.0, 201.0 199.17, 200.83 199.33, 200.67 199.5, 200.5 199.67, 200.33 199.83, 200.17 200.0, 200.0 200.17, 199.83 200.33, 199.67 200.5, 199.5 200.67, 199.33 200.83, 199.17 201.0, 199.0 201.17, 198.83 201.33, 198.67 201.5, 198.5 201.67, 198.34 201.83, 198.17 202.0, 198.0 202.17, 197.84 202.33, 197.67 202.5, 197.51 202.67, 197.34 202.83, 197.18 203.0, 197.01 203.17, 196.85 203.33, 196.68 203.5, 196.52 203.67, 196.35 203.83, 196.19 204.0, 196.03 204.17, 195.86 204.33, 195.7 204.5, 195.54 204.67, 195.38 204.83, 195.21 205.0, 195.05 205.17, 194.89 205.33, 194.73 205.5, 194.57 205.67, 194.41 205.83, 194.25 206.0, 194.09 206.17, 193.93 206.33, 193.77 206.5, 193.61 206.67, 193.46 206.83, 193.3 207.0, 193.14 207.17, 192.99 207.33, 192.83 207.5, 192.67 207.67, 192.52 207.83, 192.37 208.0, 192.21 208.17, 192.06 208.33, 191.91 208.5, 191.75 208.67, 191.6 208.83, 191.45 209.0, 191.3 209.17, 191.15 209.33, 191.0 209.5, 190.85 209.67, 190.71 209.83, 190.56 210.0, 190.41 210.17, 190.27 210.33, 190.12 210.5, 189.98 210.67, 189.83 210.83, 189.69 211.0, 189.55 211.17, 189.4 211.33, 189.26 211.5, 189.12 211.67, 188.98 211.83, 188.85 212.0, 188.71 212.17, 188.57 212.33, 188.43 212.5, 188.3 212.67, 188.16 212.83, 188.03 213.0, 187.9 213.17, 187.76 213.33, 187.63 213.5, 187.5 213.67, 187.37 213.83, 187.24 214.0, 187.12 214.17, 186.99 214.33, 186.86 214.5, 186.74 214.67, 186.61 214.83, 186.49 215.0, 186.37 215.17, 186.25 215.33, 186.13 215.5, 186.01 215.67, 185.89 215.83, 185.77 216.0, 185.65 216.17, 185.54 216.33, 185.42 216.5, 185.31 216.67, 185.2 216.83, 185.08 217.0, 184.97 217.17, 184.86 217.33, 184.76 217.5, 184.65 217.67, 184.54 217.83, 184.44 218.0, 184.33 218.17, 184.23 218.33, 184.13 218.5, 184.03 218.67, 183.93 218.83, 183.83 219.0, 183.73 219.17, 183.64 219.33, 183.54 219.5, 183.45 219.67, 183.35 219.83, 183.26 220.0, 183.17 220.17, 183.08 220.33, 182.99 220.5, 182.91 220.67, 182.82 220.83, 182.74 221.0, 182.65 221.17, 182.57 221.33, 182.49 221.5, 182.41 221.67, 182.33 221.83, 182.25 222.0, 182.18 222.17, 182.1 222.33, 182.03 222.5, 181.95 222.67, 181.88 222.83, 181.81 223.0, 181.74 223.17, 181.68 223.33, 181.61 223.5, 181.55 223.67, 181.48 223.83, 181.42 224.0, 181.36 224.17, 181.3 224.33, 181.24 224.5, 181.18 224.67, 181.13 224.83, 181.07 225.0, 181.02 225.17, 180.97 225.33, 180.92 225.5, 180.87 225.67, 180.82 225.83, 180.77 226.0, 180.73 226.17, 180.68 226.33, 180.64 226.5, 180.6 226.67, 180.56 226.83, 180.52 227.0, 180.49 227.17, 180.45 227.33, 180.42 227.5, 180.38 227.67, 180.35 227.83, 180.32 228.0, 180.29 228.17, 180.26 228.33, 180.24 228.5, 180.21 228.67, 180.19 228.83, 180.17 229.0, 180.15 229.17, 180.13 229.33, 180.11 229.5, 180.09 229.67, 180.08 229.83, 180.06 230.0, 180.05 230.17, 180.04 230.33, 180.03 230.5, 180.02 230.67, 180.01 230.83, 180.01 231.0, 180.0 231.17, 180.0 231.33, 180.0 231.5, 180.0 231.67, 180.0 231.83, 180.0 232.0, 180.01 232.17, 180.01 232.33, 180.02 232.5, 180.03 232.67, 180.04 232.83, 180.05 233.0, 180.06 233.17, 180.08 233.33, 180.09 233.5, 180.11 233.67, 180.13 233.83, 180.15 234.0, 180.17 234.17, 180.19 234.33, 180.21 234.5, 180.24 234.67, 180.26 234.83, 180.29 235.0, 180.32 235.17, 180.35 235.33, 180.38 235.5, 180.42 235.67, 180.45 235.83, 180.49 236.0, 180.52 236.17, 180.56 236.33, 180.6 236.5, 180.64 236.67, 180.69 236.83, 180.73 237.0, 180.77 237.17, 180.82 237.33, 180.87 237.5, 180.92 237.67, 180.97 237.83, 181.02 238.0, 181.07 238.17, 181.13 238.33, 181.18 238.5, 181.24 238.67, 181.3 238.83, 181.36 239.0, 181.42 239.17, 181.48 239.33, 181.55 239.5, 181.61 239.67, 181.68 239.83, 181.75 240.0, 181.81 240.17, 181.88 240.33, 181.96 240.5, 182.03 240.67, 182.1 240.83, 182.18 241.0, 182.25 241.17, 182.33 241.33, 182.41 241.5, 182.49 241.67, 182.57 241.83, 182.65 242.0, 182.74 242.17, 182.82 242.33, 182.91 242.5, 182.99 242.67, 183.08 242.83, 183.17 243.0, 183.26 243.17, 183.35 243.33, 183.45 243.5, 183.54 243.67, 183.64 243.83, 183.73 244.0, 183.83 244.17, 183.93 244.33, 184.03 244.5, 184.13 244.67, 184.23 244.83, 184.33 245.0, 184.44 245.17, 184.54 245.33, 184.65 245.5, 184.76 245.67, 184.87 245.83, 184.97 246.0, 185.09 246.17, 185.2 246.33, 185.31 246.5, 185.42 246.67, 185.54 246.83, 185.65 247.0, 185.77 247.17, 185.89 247.33, 186.01 247.5, 186.13 247.67, 186.25 247.83, 186.37 248.0, 186.49 248.17, 186.61 248.33, 186.74 248.5, 186.86 248.67, 186.99 248.83, 187.12 249.0, 187.24 249.17, 187.37 249.33, 187.5 249.5, 187.63 249.67, 187.76 249.83, 187.9 250.0, 188.03 250.17, 188.16 250.33, 188.3 250.5, 188.43 250.67, 188.57 250.83, 188.71 251.0, 188.84 251.17, 188.98 251.33, 189.12 251.5, 189.26 251.67, 189.4 251.83, 189.55 252.0, 189.69 252.17, 189.83 252.33, 189.97 252.5, 190.12 252.67, 190.26 252.83, 190.41 253.0, 190.56 253.17, 190.7 253.33, 190.85 253.5, 191.0 253.67, 191.15 253.83, 191.3 254.0, 191.45 254.17, 191.6 254.33, 191.75 254.5, 191.9 254.67, 192.06 254.83, 192.21 255.0, 192.36 255.17, 192.52 255.33, 192.67 255.5, 192.83 255.67, 192.98 255.83, 193.14 256.0, 193.29 256.17, 193.45 256.33, 193.61 256.5, 193.77 256.67, 193.93 256.83, 194.08 257.0, 194.24 257.17, 194.4 257.33, 194.56 257.5, 194.72 257.67, 194.88 257.83, 195.05 258.0, 195.21 258.17, 195.37 258.33, 195.53 258.5, 195.69 258.67, 195.86 258.83, 196.02 259.0, 196.18 259.17, 196.35 259.33, 196.51 259.5, 196.67 259.67, 196.84 259.83, 197.0 260.0, 197.17 260.17, 197.33 260.33, 197.5 260.5, 197.66 260.67, 197.83 260.83, 197.99 261.0, 198.16 261.17, 198.32 261.33, 198.49 261.5, 198.66 261.67, 198.82 261.83, 198.99 262.0, 199.15 262.17, 199.32 262.33, 199.49 262.5, 199.65 262.67, 199.82 262.83, 199.98 263.0, 200.15 263.17, 200.32 263.33, 200.48 263.5, 200.65 263.67, 200.82 263.83, 200.98 264.0, 201.15 264.17, 201.31 264.33, 201.48 264.5, 201.64 264.67, 201.81 264.83, 201.98 265.0, 202.14 265.17, 202.31 265.33, 202.47 265.5, 202.63 265.67, 202.8 265.83, 202.96 266.0, 203.13 266.17, 203.29 266.33, 203.45 266.5, 203.62 266.67, 203.78 266.83, 203.94 267.0, 204.11 267.17, 204.27 267.33, 204.43 267.5, 204.59 267.67, 204.75 267.83, 204.91 268.0, 205.07 268.17, 205.23 268.33, 205.39 268.5, 205.55 268.67, 205.71 268.83, 205.87 269.0, 206.03 269.17, 206.19 269.33, 206.34 269.5, 206.5 269.67, 206.66 269.83, 206.81 270.0, 206.97 270.17, 207.12 270.33, 207.28 270.5, 207.43 270.67, 207.58 270.83, 207.74 271.0, 207.89 271.17, 208.04 271.33, 208.19 271.5, 208.34 271.67, 208.49 271.83, 208.64 272.0, 208.79 272.17, 208.93 272.33, 209.08 272.5, 209.23 272.67, 209.37 272.83, 209.52 273.0, 209.66 273.17, 209.81 273.33, 209.95 273.5, 210.09 273.67, 210.23 273.83, 210.37 274.0, 210.51 274.17, 210.65 274.33, 210.79 274.5, 210.93 274.67, 211.07 274.83, 211.2 275.0, 211.34 275.17, 211.47 275.33, 211.61 275.5, 211.74 275.67, 211.87 275.83, 212.0 276.0, 212.13 276.17, 212.26 276.33, 212.39 276.5, 212.52 276.67, 212.64 276.83, 212.77 277.0, 212.89 277.17, 213.02 277.33, 213.14 277.5, 213.26 277.67, 213.38 277.83, 213.5 278.0, 213.62 278.17, 213.74 278.33, 213.86 278.5, 213.97 278.67, 214.09 278.83, 214.2 279.0, 214.31 279.17, 214.43 279.33, 214.54 279.5, 214.65 279.67, 214.75 279.83, 214.86 280.0, 214.97 280.17, 215.07 280.33, 215.18 280.5, 215.28 280.67, 215.38 280.83, 215.48 281.0, 215.58 281.17, 215.68 281.33, 215.78 281.5, 215.88 281.67, 215.97 281.83, 216.06 282.0, 216.16 282.17, 216.25 282.33, 216.34 282.5, 216.43 282.67, 216.52 282.83, 216.6 283.0, 216.69 283.17, 216.77 283.33, 216.86 283.5, 216.94 283.67, 217.02 283.83, 217.1 284.0, 217.18 284.17, 217.25 284.33, 217.33 284.5, 217.4 284.67, 217.48 284.83, 217.55 285.0, 217.62 285.17, 217.69 285.33, 217.76 285.5, 217.82 285.67, 217.89 285.83, 217.95 286.0, 218.01 286.17, 218.08 286.33, 218.14 286.5, 218.2 286.67, 218.25 286.83, 218.31 287.0, 218.36 287.17, 218.42 287.33, 218.47 287.5, 218.52 287.67, 218.57 287.83, 218.62 288.0, 218.66 288.17, 218.71 288.33, 218.75 288.5, 218.79 288.67, 218.84 288.83, 218.88 289.0, 218.91 289.17, 218.95 289.33, 218.99 289.5, 219.02 289.67, 219.05 289.83, 219.08 290.0, 219.11 290.17, 219.14 290.33, 219.17 290.5, 219.2 290.67, 219.22 290.83, 219.24 291.0, 219.26 291.17, 219.29 291.33, 219.3 291.5, 219.32 291.67, 219.34 291.83, 219.35 292.0, 219.37 292.17, 219.38 292.33, 219.39 292.5, 219.4 292.67, 219.4 292.83, 219.41 293.0, 219.41 293.17, 219.42 293.33, 219.42 293.5, 219.42 293.67, 219.42 293.83, 219.42 294.0, 219.41 294.17, 219.41 294.33, 219.4 294.5, 219.4 294.67, 219.39 294.83, 219.38 295.0, 219.36 295.17, 219.35 295.33, 219.34 295.5, 219.32 295.67, 219.3 295.83, 219.28 296.0, 219.26 296.17, 219.24 296.33, 219.22 296.5, 219.2 296.67, 219.17 296.83, 219.14 297.0, 219.12 297.17, 219.09 297.33, 219.06 297.5, 219.02 297.67, 218.99 297.83, 218.96 298.0, 218.92 298.17, 218.88 298.33, 218.84 298.5, 218.8 298.67, 218.76 298.83, 218.72 299.0, 218.68 299.17, 218.63 299.33, 218.59 299.5, 218.54 299.67, 218.49 299.83, 218.44 300.0, 218.39 300.17, 218.34 300.33, 218.29 300.5, 218.23 300.67, 218.18 300.83, 218.12 301.0, 218.06 301.17, 218.0 301.33, 217.94 301.5, 217.88 301.67, 217.82 301.83, 217.76 302.0, 217.69 302.17, 217.63 302.33, 217.56 302.5, 217.49 302.67, 217.42 302.83, 217.36 303.0, 217.29 303.17, 217.21 303.33, 217.14 303.5, 217.07 303.67, 216.99 303.83, 216.92 304.0, 216.84 304.17, 216.77 304.33, 216.69 304.5, 216.61 304.67, 216.53 304.83, 216.45 305.0, 216.37 305.17, 216.29 305.33, 216.21 305.5, 216.12 305.67, 216.04 305.83, 215.95 306.0, 215.87 306.17, 215.78 306.33, 215.7 306.5, 215.61 306.67, 215.52 306.83, 215.43 307.0, 215.34 307.17, 215.25 307.33, 215.16 307.5, 215.07 307.67, 214.98 307.83, 214.89 308.0, 214.8 308.17, 214.71 308.33, 214.62 308.5, 214.52 308.67, 214.43 308.83, 214.34 309.0, 214.24 309.17, 214.15 309.33, 214.06 309.5, 213.96 309.67, 213.87 309.83, 213.77 310.0, 213.68 310.17, 213.59 310.33, 213.49 310.5, 213.4 310.67, 213.3 310.83, 213.21 311.0, 213.11 311.17, 213.02 311.33, 212.93 311.5, 212.83 311.67, 212.74 311.83, 212.65 312.0, 212.55 312.17, 212.46 312.33, 212.37 312.5, 212.28 312.67, 212.19 312.83, 212.1 313.0, 212.01 313.17, 211.92 313.33, 211.83 313.5, 211.74 313.67, 211.66 313.83, 211.57 314.0, 211.48 314.17, 211.4 314.33, 211.32 314.5, 211.23 314.67, 211.15 314.83, 211.07 315.0, 210.99 315.17, 210.91 315.33, 210.84 315.5, 210.76 315.67, 210.69 315.83, 210.61 316.0, 210.54 316.17, 210.47 316.33, 210.4 316.5, 210.34 316.67, 210.27 316.83, 210.21 317.0, 210.14 317.17, 210.08 317.33, 210.02 317.5, 209.97 317.67, 209.91 317.83, 209.86 318.0, 209.81 318.17, 209.76 318.33, 209.72 318.5, 209.67 318.67, 209.63 318.83, 209.59 319.0, 209.56 319.17, 209.52 319.33, 209.49 319.5, 209.46 319.67, 209.44 319.83, 209.41 320.0, 209.39 320.17, 209.38 320.33, 209.36 320.5, 209.35 320.67, 209.35 320.83, 209.34 321.0, 209.34 321.17, 209.34 321.33, 209.35 321.5, 209.36 321.67, 209.37 321.83, 209.39 322.0, 209.41 322.17, 209.44 322.33, 209.47 322.5, 209.5 322.67, 209.54 322.83, 209.58 323.0, 209.63 323.17, 209.68 323.33, 209.74 323.5, 209.8 323.67, 209.86 323.83, 209.94 324.0, 210.01 324.17, 210.09 324.33, 210.18 324.5, 210.27 324.67, 210.37 324.83, 210.47 325.0, 210.58 325.17, 210.69 325.33, 210.81 325.5, 210.94 325.67, 211.07 325.83, 211.21 326.0, 211.36 326.17, 211.51 326.33, 211.67 326.5, 211.83 326.67, 212.0 326.83, 212.18 327.0, 212.37 327.17, 212.56 327.33, 212.77 327.5, 212.98 327.67, 213.19 327.83, 213.42 328.0, 213.65 328.17, 213.89 328.33, 214.14 328.5, 214.4 328.67, 214.66 328.83, 214.94 329.0, 215.22 329.17, 215.51 329.33, 215.82 329.5, 216.13 329.67, 216.45 329.83, 216.78 330.0, 217.12 330.17, 217.47 330.33, 217.83 330.5, 218.2 330.67, 218.59 330.83, 218.98 331.0, 219.38 331.17, 219.8 331.33, 220.22 331.5, 220.66 331.67, 221.11 331.83, 221.57 332.0, 222.04 332.17, 222.53 332.33, 223.03 332.5, 223.54 332.67, 224.06 332.83, 224.6 333.0, 225.15 333.17, 225.71 333.33, 226.29 333.5, 226.88 333.67, 227.48 333.83, 228.1 334.0, 228.74 334.17, 229.39 334.33, 230.05 334.5, 230.73 334.67, 231.43 334.83, 232.14 335.0, 232.86 335.17, 233.61 335.33, 234.37 335.5, 235.14 335.67, 235.93 335.83, 236.75 336.0, 237.57 336.17, 238.42 336.33, 239.28 336.5, 240.17 336.67, 241.07 336.83, 241.99 337.0, 242.93 337.17, 243.89 337.33, 244.86 337.5, 245.86 337.67, 246.88 337.83, 247.92 338.0, 248.98 338.17, 250.07 338.33, 251.17 338.5, 252.29 338.67, 253.44 338.83, 254.61 339.0, 255.81 339.17, 257.02 339.33, 258.26 339.5, 259.53 339.67, 260.82 339.83, 262.13 340.0, 263.47 340.17, 264.83 340.33, 266.22 340.5, 267.63 340.67, 269.08 340.83, 270.54 341.0, 272.04 341.17, 273.56 341.33, 275.11 341.5, 276.69 341.67, 278.3 341.83, 279.94 342.0, 281.61 342.17, 283.3 342.33, 285.03 342.5, 286.79 342.67, 288.58 342.83, 290.4 343.0, 292.25 343.17, 294.14 343.33, 296.05 343.5, 298.01 343.67, 299.99 343.83, 302.01 344.0, 304.07 344.17, 306.16 344.33, 308.28 344.5, 310.45 344.67, 312.65 344.83, 314.88 345.0, 317.16 345.17, 319.47 345.33, 321.82 345.5, 324.21 345.67, 326.64 345.83, 329.11 346.0, 331.63 346.17, 334.18 346.33, 336.78 346.5, 339.41 346.67, 342.09 346.83, 344.82 347.0, 347.59 347.17, 350.4 347.33, 353.26 347.5, 356.17 347.67, 359.12 347.83, 362.12 348.0, 365.17 348.17, 368.27 348.33, 371.41 348.5, 374.61 348.67, 377.85 348.83, 381.15 349.0, 384.5 349.17, 387.9 349.33, 391.35 349.5, 394.86 349.67, 398.42 349.83, 402.04 350.0, 405.72 350.17, 409.45 350.33, 413.24 350.5, 417.08 350.67, 420.99 350.83, 424.95 351.0, 428.98 351.17, 433.06 351.33, 437.21 351.5, 441.42 351.67, 445.7 351.83, 450.03 352.0, 454.44 352.17, 458.91 352.33, 463.44 352.5, 468.05 352.67, 472.72 352.83, 477.46 353.0, 482.27 353.17, 487.16 353.33, 492.11 353.5, 497.14 353.67, 502.24 353.83, 507.42 354.0, 512.67 354.17, 518.0 354.33, 523.4 354.5, 528.88 354.67, 534.45 354.83, 540.09 355.0, 545.82 355.17, 551.62 355.33, 557.51 355.5, 563.49 355.67, 569.55 355.83, 575.7 356.0, 581.93 356.17, 588.25 356.33, 594.67 356.5, 601.17 356.67, 607.76 356.83, 614.45 357.0, 621.23 357.17, 628.11 357.33, 635.08 357.5, 642.15 357.67, 649.32 357.83, 656.59 358.0, 663.96 358.17, 671.44 358.33, 679.01 358.5, 686.69 358.67, 694.48 358.83, 702.37 359.0, 710.37 359.17, 718.49 359.33, 726.71 359.5, 735.04 359.67, 743.49 359.83, 752.06 360.0, 760.74 360.17, 769.54 360.33, 778.45 360.5, 787.49 360.67, 796.65 360.83, 805.93 361.0, 815.34 361.17, 824.87 361.33, 834.54 361.5, 844.33 361.67, 854.25 361.83, 864.3 362.0, 874.49 362.17, 884.81 362.33, 895.27 362.5, 905.87 362.67, 916.61 362.83, 927.49 363.0, 938.51 363.17, 949.68 363.33, 961.0 363.5, 972.46 363.67, 984.07 363.83, 995.84 364.0, 1007.76 364.17, 1019.83 364.33, 1032.06 364.5, 1044.45 364.67, 1057.0 364.83, 1069.71 365.0, 1082.59 365.17, 1095.63 365.33, 1108.84 365.5, 1122.22 365.67, 1135.77 365.83, 1149.49 366.0, 1163.4 366.17, 1177.47 366.33, 1191.73 366.5, 1206.17 366.67, 1220.79 366.83, 1235.6 367.0, 1250.6 367.17, 1265.79 367.33, 1281.16 367.5, 1296.74 367.67, 1312.5 367.83, 1328.47 368.0, 1344.64 368.17, 1361.01 368.33, 1377.58 368.5, 1394.37 368.67, 1411.36 368.83, 1428.56 369.0, 1445.98 369.17, 1463.62 369.33, 1481.47 369.5, 1499.54 369.67, 1517.84 369.83, 1536.37 370.0, 1555.12 370.17, 1574.1 370.33, 1593.32 370.5, 1612.78 370.67, 1632.47 370.83, 1652.4 371.0, 1672.58 371.17, 1693.01 371.33, 1713.68 371.5, 1734.61 371.67, 1755.79 371.83, 1777.23 372.0, 1798.93 372.17, 1820.89 372.33, 1843.11 372.5, 1865.61 372.67, 1888.38 372.83, 1911.42 373.0, 1934.74 373.17, 1958.33 373.33, 1982.22 373.5, 2006.39 373.67, 2030.84 373.83, 2055.59 374.0, 2080.64 374.17, 2105.98 374.33, 2131.63 374.5, 2157.58 374.67, 2183.84 374.83, 2210.41 375.0, 2237.29 375.17, 2264.49 375.33, 2292.02 375.5, 2319.87 375.67, 2348.04 375.83, 2376.55 376.0, 2405.39 376.17, 2434.57 376.33, 2464.1 376.5, 2493.97 376.67, 2524.18 376.83, 2554.75 377.0, 2585.68 377.17, 2616.97 377.33, 2648.62 377.5, 2680.63 377.67, 2713.02 377.83, 2745.79 378.0, 2778.93 378.17, 2812.46 378.33, 2846.37 378.5, 2880.67 378.67, 2915.37 378.83, 2950.47 379.0, 2985.97 379.17, 3021.88 379.33, 3058.19 379.5, 3094.93 379.67, 3132.08 379.83, 3169.66 380.0, 3207.66 380.17, 3246.1 380.33, 3284.98 380.5, 3324.29 380.67, 3364.05 380.83, 3404.26 381.0, 3444.93 381.17, 3486.06 381.33, 3527.65 381.5, 3569.7 381.67, 3612.24 381.83, 3655.24 382.0, 3698.74 382.17, 3742.72 382.33, 3787.19 382.5, 3832.16 382.67, 3877.63 382.83, 3923.61 383.0, 3970.1 383.17, 4017.11 383.33, 4064.64 383.5, 4112.7 383.67, 4161.3 383.83, 4210.43 384.0, 4260.1 384.17, 4310.33 384.33, 4361.11 384.5, 4412.44 384.67, 4464.35 384.83, 4516.82 385.0, 4569.87 385.17, 4623.51 385.33, 4677.73 385.5, 4732.54 385.67, 4787.96 385.83, 4843.97 386.0, 4900.6 386.17, 4957.85 386.33, 5015.72 386.5, 5074.22 386.67, 5133.36 386.83, 5193.13 387.0, 5253.55 387.17, 5314.63 387.33, 5376.37 387.5, 5438.77 387.67, 5501.85 387.83, 5565.61 388.0, 5630.05 388.17, 5695.18 388.33, 5761.02 388.5, 5827.56 388.67, 5894.81 388.83, 5962.78 389.0, 6031.48 389.17, 6100.91 389.33, 6171.08 389.5, 6242.0 389.67, 6313.67 389.83, 6386.1 390.0, 6459.31 390.17, 6533.28 390.33, 6608.05 390.5, 6683.6 390.67, 6759.95 390.83, 6837.11 391.0, 6915.08 391.17, 6993.87 391.33, 7073.49 391.5, 7153.94 391.67, 7235.24 391.83, 7317.39 392.0, 7400.41 392.17, 7484.29 392.33, 7569.04 392.5, 7654.69 392.67, 7741.22 392.83, 7828.65 393.0, 7917.0 393.17, 8006.26 393.33, 8096.45 393.5, 8187.58 393.67, 8279.64 393.83, 8372.66 394.0, 8466.64 394.17, 8561.6 394.33, 8657.53 394.5, 8754.44 394.67, 8852.36 394.83, 8951.28 395.0, 9051.22 395.17, 9152.18 395.33, 9254.18 395.5, 9357.22 395.67, 9461.31 395.83, 9566.47 396.0, 9672.69 396.17, 9780.0 396.33, 9888.41 396.5, 9997.91 396.67, 10108.53 396.83, 10220.27 397.0, 10333.14 397.17, 10447.15 397.33, 10562.32 397.5, 10678.65 397.67, 10796.15 397.83, 10914.84 398.0, 11034.73 398.17, 11155.82 398.33, 11278.12 398.5, 11401.66 398.67, 11526.43 398.83, 11652.45 399.0, 11779.73 399.17, 11908.29 399.33, 12038.13 399.5, 12169.26 399.67, 12301.7 399.83, 12435.46 400.0, 12570.55 " fill="none" stroke="white" stroke-width="1.5" stroke-linejoin="round" stroke-opacity="1"/>

 </svg>