<svg version="1.1" 
 baseProfile="full" 
 width="400" 
 height="400" 
 xmlns="http://www.w3.org/2000/svg">
<rect x="0.0" y="0.0" width="400" height="400" fill="black" stroke="black" stroke-width="0" opacity="1"/>
<line x1="0.0" y1="0.0" x2="0.0" y2="400.0" stroke="white" stroke-width="1" opacity="0.4" stroke-linecap="butt"/>
<line x1="40.0" y1="0.0" x2="40.0" y2="400.0" stroke="white" stroke-width="1" opacity="0.4" stroke-linecap="butt"/>
<line x1="80.0" y1="0.0" x2="80.0" y2="400.0" stroke="white" stroke-width="1" opacity="0.4" stroke-linecap="butt"/>
<line x1="120.0" y1="0.0" x2="120.0" y2="400.0" stroke="white" stroke-width="1" opacity="0.4" stroke-linecap="butt"/>
<line x1="160.0" y1="0.0" x2="160.0" y2="400.0" stroke="white" stroke-width="1" opacity="0.4" stroke-linecap="butt"/>
<line x1="200.0" y1="0.0" x2="200.0" y2="400.0" stroke="white" stroke-width="1" opacity="0.4" stroke-linecap="butt"/>
<line x1="240.0" y1="0.0" x2="240.0" y2="400.0" stroke="white" stroke-width="1" opacity="0.4" stroke-linecap="butt"/>
<line x1="280.0" y1="0.0" x2="280.0" y2="400.0" stroke="white" stroke-width="1" opacity="0.4" stroke-linecap="butt"/>
<line x1="320.0" y1="0.0" x2="320.0" y2="400.0" stroke="white" stroke-width="1" opacity="0.4" stroke-linecap="butt"/>
<line x1="360.0" y1="0.0" x2="360.0" y2="400.0" stroke="white" stroke-width="1" opacity="0.4" stroke-linecap="butt"/>
<line x1="0.0" y1="0.0" x2="400.0" y2="0.0" stroke="white" stroke-width="1" opacity="0.4" stroke-linecap="butt"/>
<line x1="0.0" y1="40.0" x2="400.0" y2="40.0" stroke="white" stroke-width="1" opacity="0.4" stroke-linecap="butt"/>
<line x1="0.0" y1="80.0" x2="400.0" y2="80.0" stroke="white" stroke-width="1" opacity="0.4" stroke-linecap="butt"/>
<line x1="0.0" y1="120.0" x2="400.0" y2="120.0" stroke="white" stroke-width="1" opacity="0.4" stroke-linecap="butt"/>
<line x1="0.0" y1="160.0" x2="400.0" y2="160.0" stroke="white" stroke-width="1" opacity="0.4" stroke-linecap="butt"/>
<line x1="0.0" y1="200.0" x2="400.0" y2="200.0" stroke="white" stroke-width="1" opacity="0.4" stroke-linecap="butt"/>
<line x1="0.0" y1="240.0" x2="400.0" y2="240.0" stroke="white" stroke-width="1" opacity="0.4" stroke-linecap="butt"/>
<line x1="0.0" y1="280.0" x2="400.0" y2="280.0" stroke="white" stroke-width="1" opacity="0.4" stroke-linecap="butt"/>
<line x1="0.0" y1="320.0" x2="400.0" y2="320.0" stroke="white" stroke-width="1" opacity="0.4" stroke-linecap="butt"/>
<line x1="0.0" y1="360.0" x2="400.0" y2="360.0" stroke="white" stroke-width="1" opacity="0.4" stroke-linecap="butt"/>
<line x1="0.0" y1="200.0" x2="400.0" y2="200.0" stroke="yellow" stroke-width="2.5" opacity="1" stroke-linecap="butt"/>
<line x1="200.0" y1="0.0" x2="200.0" y2="400.0" stroke="yellow" stroke-width="2.5" opacity="1" stroke-linecap="butt"/>
<polygon points="391.0 204.0, 401.0 200.0, 391.0 196.0, 393.0 200.0" fill="yellow"/><polygon points="204.0 9.0, 200.0 -1.0, 196.0 9.0, 200.0 7.0" fill="yellow"/><image x="-60.0" y="-60.0" width="200" height="200" href="/Users/girirajhira/PycharmProjects/Giraphics3/Taylor/expr.png"/><polyline points="0.0, -14675.76 0.17, -14517.8 0.33, -14361.36 0.5, -14206.43 0.67, -14053.0 0.83, -13901.04 1.0, -13750.55 1.17, -13601.52 1.33, -13453.93 1.5, -13307.77 1.67, -13163.02 1.83, -13019.68 2.0, -12877.74 2.17, -12737.17 2.33, -12597.98 2.5, -12460.14 2.67, -12323.64 2.83, -12188.48 3.0, -12054.64 3.17, -11922.11 3.33, -11790.87 3.5, -11660.93 3.67, -11532.26 3.83, -11404.85 4.0, -11278.69 4.17, -11153.78 4.33, -11030.1 4.5, -10907.64 4.67, -10786.39 4.83, -10666.33 5.0, -10547.47 5.17, -10429.78 5.33, -10313.25 5.5, -10197.89 5.67, -10083.67 5.83, -9970.58 6.0, -9858.63 6.17, -9747.78 6.33, -9638.04 6.5, -9529.4 6.67, -9421.85 6.83, -9315.37 7.0, -9209.95 7.17, -9105.59 7.33, -9002.29 7.5, -8900.01 7.67, -8798.77 7.83, -8698.54 8.0, -8599.33 8.17, -8501.12 8.33, -8403.89 8.5, -8307.65 8.67, -8212.39 8.83, -8118.09 9.0, -8024.74 9.17, -7932.35 9.33, -7840.89 9.5, -7750.36 9.67, -7660.75 9.83, -7572.06 10.0, -7484.27 10.17, -7397.38 10.33, -7311.37 10.5, -7226.25 10.67, -7142.0 10.83, -7058.61 11.0, -6976.08 11.17, -6894.4 11.33, -6813.55 11.5, -6733.54 11.67, -6654.36 11.83, -6575.99 12.0, -6498.43 12.17, -6421.68 12.33, -6345.71 12.5, -6270.54 12.67, -6196.15 12.83, -6122.52 13.0, -6049.67 13.17, -5977.57 13.33, -5906.22 13.5, -5835.62 13.67, -5765.76 13.83, -5696.62 14.0, -5628.21 14.17, -5560.51 14.33, -5493.53 14.5, -5427.25 14.67, -5361.66 14.83, -5296.77 15.0, -5232.56 15.17, -5169.02 15.33, -5106.16 15.5, -5043.96 15.67, -4982.41 15.83, -4921.52 16.0, -4861.28 16.17, -4801.67 16.33, -4742.7 16.5, -4684.36 16.67, -4626.63 16.83, -4569.53 17.0, -4513.03 17.17, -4457.13 17.33, -4401.83 17.5, -4347.13 17.67, -4293.01 17.83, -4239.47 18.0, -4186.5 18.17, -4134.11 18.33, -4082.28 18.5, -4031.01 18.67, -3980.29 18.83, -3930.12 19.0, -3880.49 19.17, -3831.4 19.33, -3782.84 19.5, -3734.81 19.67, -3687.3 19.83, -3640.31 20.0, -3593.83 20.17, -3547.85 20.33, -3502.38 20.5, -3457.4 20.67, -3412.91 20.83, -3368.92 21.0, -3325.4 21.17, -3282.36 21.33, -3239.8 21.5, -3197.7 21.67, -3156.07 21.83, -3114.89 22.0, -3074.17 22.17, -3033.9 22.33, -2994.07 22.5, -2954.69 22.67, -2915.74 22.83, -2877.23 23.0, -2839.14 23.17, -2801.48 23.33, -2764.23 23.5, -2727.41 23.67, -2690.99 23.83, -2654.98 24.0, -2619.37 24.17, -2584.16 24.33, -2549.35 24.5, -2514.93 24.67, -2480.89 24.83, -2447.24 25.0, -2413.97 25.17, -2381.07 25.33, -2348.55 25.5, -2316.39 25.67, -2284.59 25.83, -2253.16 26.0, -2222.09 26.17, -2191.36 26.33, -2160.99 26.5, -2130.96 26.67, -2101.28 26.83, -2071.93 27.0, -2042.92 27.17, -2014.24 27.33, -1985.89 27.5, -1957.87 27.67, -1930.17 27.83, -1902.78 28.0, -1875.72 28.17, -1848.96 28.33, -1822.51 28.5, -1796.37 28.67, -1770.53 28.83, -1744.99 29.0, -1719.75 29.17, -1694.8 29.33, -1670.14 29.5, -1645.77 29.67, -1621.68 29.83, -1597.88 30.0, -1574.35 30.17, -1551.1 30.33, -1528.12 30.5, -1505.41 30.67, -1482.96 30.83, -1460.79 31.0, -1438.87 31.17, -1417.21 31.33, -1395.81 31.5, -1374.66 31.67, -1353.76 31.83, -1333.1 32.0, -1312.7 32.17, -1292.53 32.33, -1272.61 32.5, -1252.92 32.67, -1233.47 32.83, -1214.25 33.0, -1195.26 33.17, -1176.5 33.33, -1157.97 33.5, -1139.65 33.67, -1121.56 33.83, -1103.68 34.0, -1086.02 34.17, -1068.58 34.33, -1051.34 34.5, -1034.32 34.67, -1017.5 34.83, -1000.88 35.0, -984.47 35.17, -968.26 35.33, -952.24 35.5, -936.42 35.67, -920.79 35.83, -905.36 36.0, -890.11 36.17, -875.05 36.33, -860.18 36.5, -845.49 36.67, -830.98 36.83, -816.65 37.0, -802.5 37.17, -788.52 37.33, -774.72 37.5, -761.08 37.67, -747.62 37.83, -734.33 38.0, -721.2 38.17, -708.23 38.33, -695.43 38.5, -682.79 38.67, -670.3 38.83, -657.97 39.0, -645.8 39.17, -633.78 39.33, -621.92 39.5, -610.2 39.67, -598.63 39.83, -587.21 40.0, -575.93 40.17, -564.8 40.33, -553.81 40.5, -542.96 40.67, -532.24 40.83, -521.67 41.0, -511.23 41.17, -500.92 41.33, -490.75 41.5, -480.71 41.67, -470.79 41.83, -461.01 42.0, -451.35 42.17, -441.82 42.33, -432.41 42.5, -423.12 42.67, -413.96 42.83, -404.91 43.0, -395.98 43.17, -387.17 43.33, -378.47 43.5, -369.89 43.67, -361.42 43.83, -353.06 44.0, -344.82 44.17, -336.68 44.33, -328.65 44.5, -320.72 44.67, -312.91 44.83, -305.19 45.0, -297.58 45.17, -290.07 45.33, -282.66 45.5, -275.35 45.67, -268.14 45.83, -261.02 46.0, -254.0 46.17, -247.08 46.33, -240.24 46.5, -233.5 46.67, -226.86 46.83, -220.3 47.0, -213.83 47.17, -207.45 47.33, -201.16 47.5, -194.95 47.67, -188.83 47.83, -182.8 48.0, -176.84 48.17, -170.97 48.33, -165.18 48.5, -159.47 48.67, -153.84 48.83, -148.28 49.0, -142.81 49.17, -137.41 49.33, -132.08 49.5, -126.83 49.67, -121.66 49.83, -116.56 50.0, -111.52 50.17, -106.56 50.33, -101.67 50.5, -96.85 50.67, -92.1 50.83, -87.42 51.0, -82.8 51.17, -78.25 51.33, -73.76 51.5, -69.34 51.67, -64.98 51.83, -60.69 52.0, -56.45 52.17, -52.28 52.33, -48.17 52.5, -44.12 52.67, -40.12 52.83, -36.19 53.0, -32.31 53.17, -28.49 53.33, -24.73 53.5, -21.02 53.67, -17.37 53.83, -13.77 54.0, -10.22 54.17, -6.73 54.33, -3.29 54.5, 0.1 54.67, 3.44 54.83, 6.73 55.0, 9.97 55.17, 13.16 55.33, 16.3 55.5, 19.4 55.67, 22.45 55.83, 25.45 56.0, 28.4 56.17, 31.31 56.33, 34.18 56.5, 37.0 56.67, 39.78 56.83, 42.51 57.0, 45.2 57.17, 47.85 57.33, 50.46 57.5, 53.03 57.67, 55.56 57.83, 58.04 58.0, 60.49 58.17, 62.9 58.33, 65.28 58.5, 67.61 58.67, 69.91 58.83, 72.17 59.0, 74.39 59.17, 76.58 59.33, 78.73 59.5, 80.85 59.67, 82.93 59.83, 84.98 60.0, 87.0 60.17, 88.98 60.33, 90.93 60.5, 92.85 60.67, 94.73 60.83, 96.59 61.0, 98.41 61.17, 100.21 61.33, 101.97 61.5, 103.7 61.67, 105.41 61.83, 107.08 62.0, 108.73 62.17, 110.35 62.33, 111.94 62.5, 113.51 62.67, 115.04 62.83, 116.55 63.0, 118.04 63.17, 119.5 63.33, 120.93 63.5, 122.34 63.67, 123.72 63.83, 125.08 64.0, 126.41 64.17, 127.73 64.33, 129.01 64.5, 130.28 64.67, 131.52 64.83, 132.74 65.0, 133.93 65.17, 135.11 65.33, 136.26 65.5, 137.39 65.67, 138.51 65.83, 139.6 66.0, 140.67 66.17, 141.72 66.33, 142.75 66.5, 143.76 66.67, 144.75 66.83, 145.72 67.0, 146.68 67.17, 147.61 67.33, 148.53 67.5, 149.43 67.67, 150.31 67.83, 151.18 68.0, 152.02 68.17, 152.86 68.33, 153.67 68.5, 154.47 68.67, 155.25 68.83, 156.02 69.0, 156.77 69.17, 157.5 69.33, 158.22 69.5, 158.93 69.67, 159.62 69.83, 160.3 70.0, 160.96 70.17, 161.61 70.33, 162.24 70.5, 162.86 70.67, 163.47 70.83, 164.06 71.0, 164.64 71.17, 165.21 71.33, 165.77 71.5, 166.31 71.67, 166.84 71.83, 167.36 72.0, 167.87 72.17, 168.36 72.33, 168.85 72.5, 169.32 72.67, 169.78 72.83, 170.23 73.0, 170.67 73.17, 171.1 73.33, 171.52 73.5, 171.93 73.67, 172.33 73.83, 172.72 74.0, 173.1 74.17, 173.47 74.33, 173.83 74.5, 174.18 74.67, 174.52 74.83, 174.86 75.0, 175.18 75.17, 175.5 75.33, 175.8 75.5, 176.1 75.67, 176.39 75.83, 176.68 76.0, 176.95 76.17, 177.22 76.33, 177.48 76.5, 177.73 76.67, 177.98 76.83, 178.21 77.0, 178.44 77.17, 178.67 77.33, 178.88 77.5, 179.09 77.67, 179.3 77.83, 179.49 78.0, 179.69 78.17, 179.87 78.33, 180.05 78.5, 180.22 78.67, 180.39 78.83, 180.55 79.0, 180.7 79.17, 180.85 79.33, 180.99 79.5, 181.13 79.67, 181.27 79.83, 181.39 80.0, 181.52 80.17, 181.63 80.33, 181.75 80.5, 181.86 80.67, 181.96 80.83, 182.06 81.0, 182.15 81.17, 182.24 81.33, 182.33 81.5, 182.41 81.67, 182.49 81.83, 182.56 82.0, 182.63 82.17, 182.7 82.33, 182.76 82.5, 182.82 82.67, 182.88 82.83, 182.93 83.0, 182.98 83.17, 183.02 83.33, 183.06 83.5, 183.1 83.67, 183.14 83.83, 183.17 84.0, 183.2 84.17, 183.23 84.33, 183.25 84.5, 183.27 84.67, 183.29 84.83, 183.3 85.0, 183.32 85.17, 183.33 85.33, 183.34 85.5, 183.34 85.67, 183.34 85.83, 183.35 86.0, 183.35 86.17, 183.34 86.33, 183.34 86.5, 183.33 86.67, 183.32 86.83, 183.31 87.0, 183.3 87.17, 183.28 87.33, 183.27 87.5, 183.25 87.67, 183.23 87.83, 183.21 88.0, 183.19 88.17, 183.17 88.33, 183.14 88.5, 183.12 88.67, 183.09 88.83, 183.06 89.0, 183.03 89.17, 183.0 89.33, 182.97 89.5, 182.93 89.67, 182.9 89.83, 182.87 90.0, 182.83 90.17, 182.79 90.33, 182.76 90.5, 182.72 90.67, 182.68 90.83, 182.64 91.0, 182.6 91.17, 182.56 91.33, 182.52 91.5, 182.48 91.67, 182.43 91.83, 182.39 92.0, 182.35 92.17, 182.3 92.33, 182.26 92.5, 182.22 92.67, 182.17 92.83, 182.13 93.0, 182.08 93.17, 182.04 93.33, 181.99 93.5, 181.95 93.67, 181.9 93.83, 181.85 94.0, 181.81 94.17, 181.76 94.33, 181.72 94.5, 181.67 94.67, 181.63 94.83, 181.58 95.0, 181.54 95.17, 181.49 95.33, 181.45 95.5, 181.4 95.67, 181.36 95.83, 181.32 96.0, 181.27 96.17, 181.23 96.33, 181.19 96.5, 181.15 96.67, 181.1 96.83, 181.06 97.0, 181.02 97.17, 180.98 97.33, 180.94 97.5, 180.9 97.67, 180.86 97.83, 180.82 98.0, 180.79 98.17, 180.75 98.33, 180.71 98.5, 180.68 98.67, 180.64 98.83, 180.61 99.0, 180.57 99.17, 180.54 99.33, 180.51 99.5, 180.48 99.67, 180.45 99.83, 180.42 100.0, 180.39 100.17, 180.36 100.33, 180.33 100.5, 180.3 100.67, 180.28 100.83, 180.25 101.0, 180.23 101.17, 180.2 101.33, 180.18 101.5, 180.16 101.67, 180.14 101.83, 180.12 102.0, 180.1 102.17, 180.08 102.33, 180.07 102.5, 180.05 102.67, 180.04 102.83, 180.02 103.0, 180.01 103.17, 180.0 103.33, 179.99 103.5, 179.98 103.67, 179.97 103.83, 179.96 104.0, 179.96 104.17, 179.95 104.33, 179.95 104.5, 179.94 104.67, 179.94 104.83, 179.94 105.0, 179.94 105.17, 179.94 105.33, 179.94 105.5, 179.95 105.67, 179.95 105.83, 179.96 106.0, 179.97 106.17, 179.97 106.33, 179.98 106.5, 180.0 106.67, 180.01 106.83, 180.02 107.0, 180.03 107.17, 180.05 107.33, 180.07 107.5, 180.08 107.67, 180.1 107.83, 180.12 108.0, 180.15 108.17, 180.17 108.33, 180.19 108.5, 180.22 108.67, 180.24 108.83, 180.27 109.0, 180.3 109.17, 180.33 109.33, 180.36 109.5, 180.4 109.67, 180.43 109.83, 180.47 110.0, 180.5 110.17, 180.54 110.33, 180.58 110.5, 180.62 110.67, 180.66 110.83, 180.7 111.0, 180.75 111.17, 180.79 111.33, 180.84 111.5, 180.89 111.67, 180.94 111.83, 180.99 112.0, 181.04 112.17, 181.09 112.33, 181.14 112.5, 181.2 112.67, 181.26 112.83, 181.31 113.0, 181.37 113.17, 181.43 113.33, 181.49 113.5, 181.56 113.67, 181.62 113.83, 181.69 114.0, 181.75 114.17, 181.82 114.33, 181.89 114.5, 181.96 114.67, 182.03 114.83, 182.1 115.0, 182.18 115.17, 182.25 115.33, 182.33 115.5, 182.4 115.67, 182.48 115.83, 182.56 116.0, 182.64 116.17, 182.73 116.33, 182.81 116.5, 182.89 116.67, 182.98 116.83, 183.07 117.0, 183.15 117.17, 183.24 117.33, 183.33 117.5, 183.42 117.67, 183.52 117.83, 183.61 118.0, 183.7 118.17, 183.8 118.33, 183.9 118.5, 184.0 118.67, 184.09 118.83, 184.19 119.0, 184.3 119.17, 184.4 119.33, 184.5 119.5, 184.61 119.67, 184.71 119.83, 184.82 120.0, 184.93 120.17, 185.04 120.33, 185.15 120.5, 185.26 120.67, 185.37 120.83, 185.48 121.0, 185.59 121.17, 185.71 121.33, 185.83 121.5, 185.94 121.67, 186.06 121.83, 186.18 122.0, 186.3 122.17, 186.42 122.33, 186.54 122.5, 186.66 122.67, 186.79 122.83, 186.91 123.0, 187.04 123.17, 187.16 123.33, 187.29 123.5, 187.42 123.67, 187.55 123.83, 187.68 124.0, 187.81 124.17, 187.94 124.33, 188.07 124.5, 188.21 124.67, 188.34 124.83, 188.48 125.0, 188.61 125.17, 188.75 125.33, 188.88 125.5, 189.02 125.67, 189.16 125.83, 189.3 126.0, 189.44 126.17, 189.58 126.33, 189.72 126.5, 189.87 126.67, 190.01 126.83, 190.15 127.0, 190.3 127.17, 190.44 127.33, 190.59 127.5, 190.74 127.67, 190.88 127.83, 191.03 128.0, 191.18 128.17, 191.33 128.33, 191.48 128.5, 191.63 128.67, 191.78 128.83, 191.93 129.0, 192.08 129.17, 192.24 129.33, 192.39 129.5, 192.54 129.67, 192.7 129.83, 192.85 130.0, 193.01 130.17, 193.16 130.33, 193.32 130.5, 193.48 130.67, 193.64 130.83, 193.79 131.0, 193.95 131.17, 194.11 131.33, 194.27 131.5, 194.43 131.67, 194.59 131.83, 194.75 132.0, 194.91 132.17, 195.07 132.33, 195.23 132.5, 195.39 132.67, 195.55 132.83, 195.72 133.0, 195.88 133.17, 196.04 133.33, 196.2 133.5, 196.37 133.67, 196.53 133.83, 196.7 134.0, 196.86 134.17, 197.02 134.33, 197.19 134.5, 197.35 134.67, 197.52 134.83, 197.68 135.0, 197.85 135.17, 198.01 135.33, 198.18 135.5, 198.35 135.67, 198.51 135.83, 198.68 136.0, 198.84 136.17, 199.01 136.33, 199.18 136.5, 199.34 136.67, 199.51 136.83, 199.68 137.0, 199.84 137.17, 200.01 137.33, 200.17 137.5, 200.34 137.67, 200.51 137.83, 200.67 138.0, 200.84 138.17, 201.01 138.33, 201.17 138.5, 201.34 138.67, 201.5 138.83, 201.67 139.0, 201.84 139.17, 202.0 139.33, 202.17 139.5, 202.33 139.67, 202.5 139.83, 202.66 140.0, 202.83 140.17, 202.99 140.33, 203.16 140.5, 203.32 140.67, 203.49 140.83, 203.65 141.0, 203.81 141.17, 203.98 141.33, 204.14 141.5, 204.3 141.67, 204.47 141.83, 204.63 142.0, 204.79 142.17, 204.95 142.33, 205.11 142.5, 205.27 142.67, 205.43 142.83, 205.59 143.0, 205.75 143.17, 205.91 143.33, 206.07 143.5, 206.23 143.67, 206.39 143.83, 206.55 144.0, 206.7 144.17, 206.86 144.33, 207.02 144.5, 207.17 144.67, 207.33 144.83, 207.48 145.0, 207.64 145.17, 207.79 145.33, 207.94 145.5, 208.1 145.67, 208.25 145.83, 208.4 146.0, 208.55 146.17, 208.7 146.33, 208.85 146.5, 209.0 146.67, 209.15 146.83, 209.3 147.0, 209.44 147.17, 209.59 147.33, 209.73 147.5, 209.88 147.67, 210.02 147.83, 210.17 148.0, 210.31 148.17, 210.45 148.33, 210.6 148.5, 210.74 148.67, 210.88 148.83, 211.02 149.0, 211.15 149.17, 211.29 149.33, 211.43 149.5, 211.57 149.67, 211.7 149.83, 211.84 150.0, 211.97 150.17, 212.1 150.33, 212.24 150.5, 212.37 150.67, 212.5 150.83, 212.63 151.0, 212.76 151.17, 212.88 151.33, 213.01 151.5, 213.14 151.67, 213.26 151.83, 213.39 152.0, 213.51 152.17, 213.63 152.33, 213.75 152.5, 213.87 152.67, 213.99 152.83, 214.11 153.0, 214.23 153.17, 214.35 153.33, 214.46 153.5, 214.58 153.67, 214.69 153.83, 214.8 154.0, 214.91 154.17, 215.03 154.33, 215.13 154.5, 215.24 154.67, 215.35 154.83, 215.46 155.0, 215.56 155.17, 215.67 155.33, 215.77 155.5, 215.87 155.67, 215.97 155.83, 216.07 156.0, 216.17 156.17, 216.27 156.33, 216.36 156.5, 216.46 156.67, 216.55 156.83, 216.65 157.0, 216.74 157.17, 216.83 157.33, 216.92 157.5, 217.01 157.67, 217.09 157.83, 217.18 158.0, 217.26 158.17, 217.35 158.33, 217.43 158.5, 217.51 158.67, 217.59 158.83, 217.67 159.0, 217.75 159.17, 217.82 159.33, 217.9 159.5, 217.97 159.67, 218.04 159.83, 218.12 160.0, 218.19 160.17, 218.25 160.33, 218.32 160.5, 218.39 160.67, 218.45 160.83, 218.52 161.0, 218.58 161.17, 218.64 161.33, 218.7 161.5, 218.76 161.67, 218.82 161.83, 218.87 162.0, 218.93 162.17, 218.98 162.33, 219.03 162.5, 219.08 162.67, 219.13 162.83, 219.18 163.0, 219.23 163.17, 219.27 163.33, 219.31 163.5, 219.36 163.67, 219.4 163.83, 219.44 164.0, 219.48 164.17, 219.51 164.33, 219.55 164.5, 219.58 164.67, 219.62 164.83, 219.65 165.0, 219.68 165.17, 219.71 165.33, 219.74 165.5, 219.76 165.67, 219.79 165.83, 219.81 166.0, 219.83 166.17, 219.85 166.33, 219.87 166.5, 219.89 166.67, 219.91 166.83, 219.92 167.0, 219.94 167.17, 219.95 167.33, 219.96 167.5, 219.97 167.67, 219.98 167.83, 219.99 168.0, 219.99 168.17, 220.0 168.33, 220.0 168.5, 220.0 168.67, 220.0 168.83, 220.0 169.0, 220.0 169.17, 219.99 169.33, 219.99 169.5, 219.98 169.67, 219.97 169.83, 219.96 170.0, 219.95 170.17, 219.94 170.33, 219.92 170.5, 219.91 170.67, 219.89 170.83, 219.87 171.0, 219.85 171.17, 219.83 171.33, 219.81 171.5, 219.79 171.67, 219.76 171.83, 219.74 172.0, 219.71 172.17, 219.68 172.33, 219.65 172.5, 219.62 172.67, 219.58 172.83, 219.55 173.0, 219.51 173.17, 219.48 173.33, 219.44 173.5, 219.4 173.67, 219.36 173.83, 219.32 174.0, 219.27 174.17, 219.23 174.33, 219.18 174.5, 219.13 174.67, 219.08 174.83, 219.03 175.0, 218.98 175.17, 218.93 175.33, 218.87 175.5, 218.82 175.67, 218.76 175.83, 218.7 176.0, 218.64 176.17, 218.58 176.33, 218.52 176.5, 218.45 176.67, 218.39 176.83, 218.32 177.0, 218.26 177.17, 218.19 177.33, 218.12 177.5, 218.05 177.67, 217.97 177.83, 217.9 178.0, 217.82 178.17, 217.75 178.33, 217.67 178.5, 217.59 178.67, 217.51 178.83, 217.43 179.0, 217.35 179.17, 217.26 179.33, 217.18 179.5, 217.09 179.67, 217.01 179.83, 216.92 180.0, 216.83 180.17, 216.74 180.33, 216.65 180.5, 216.55 180.67, 216.46 180.83, 216.36 181.0, 216.27 181.17, 216.17 181.33, 216.07 181.5, 215.97 181.67, 215.87 181.83, 215.77 182.0, 215.67 182.17, 215.56 182.33, 215.46 182.5, 215.35 182.67, 215.24 182.83, 215.14 183.0, 215.03 183.17, 214.92 183.33, 214.8 183.5, 214.69 183.67, 214.58 183.83, 214.46 184.0, 214.35 184.17, 214.23 184.33, 214.11 184.5, 213.99 184.67, 213.87 184.83, 213.75 185.0, 213.63 185.17, 213.51 185.33, 213.39 185.5, 213.26 185.67, 213.14 185.83, 213.01 186.0, 212.88 186.17, 212.76 186.33, 212.63 186.5, 212.5 186.67, 212.37 186.83, 212.24 187.0, 212.1 187.17, 211.97 187.33, 211.84 187.5, 211.7 187.67, 211.57 187.83, 211.43 188.0, 211.29 188.17, 211.15 188.33, 211.02 188.5, 210.88 188.67, 210.74 188.83, 210.6 189.0, 210.45 189.17, 210.31 189.33, 210.17 189.5, 210.02 189.67, 209.88 189.83, 209.73 190.0, 209.59 190.17, 209.44 190.33, 209.29 190.5, 209.15 190.67, 209.0 190.83, 208.85 191.0, 208.7 191.17, 208.55 191.33, 208.4 191.5, 208.25 191.67, 208.09 191.83, 207.94 192.0, 207.79 192.17, 207.63 192.33, 207.48 192.5, 207.33 192.67, 207.17 192.83, 207.01 193.0, 206.86 193.17, 206.7 193.33, 206.54 193.5, 206.39 193.67, 206.23 193.83, 206.07 194.0, 205.91 194.17, 205.75 194.33, 205.59 194.5, 205.43 194.67, 205.27 194.83, 205.11 195.0, 204.95 195.17, 204.79 195.33, 204.62 195.5, 204.46 195.67, 204.3 195.83, 204.14 196.0, 203.97 196.17, 203.81 196.33, 203.65 196.5, 203.48 196.67, 203.32 196.83, 203.15 197.0, 202.99 197.17, 202.82 197.33, 202.66 197.5, 202.49 197.67, 202.33 197.83, 202.16 198.0, 202.0 198.17, 201.83 198.33, 201.66 198.5, 201.5 198.67, 201.33 198.83, 201.17 199.0, 201.0 199.17, 200.83 199.33, 200.67 199.5, 200.5 199.67, 200.33 199.83, 200.17 200.0, 200.0 200.17, 199.83 200.33, 199.67 200.5, 199.5 200.67, 199.33 200.83, 199.17 201.0, 199.0 201.17, 198.83 201.33, 198.67 201.5, 198.5 201.67, 198.34 201.83, 198.17 202.0, 198.0 202.17, 197.84 202.33, 197.67 202.5, 197.51 202.67, 197.34 202.83, 197.18 203.0, 197.01 203.17, 196.85 203.33, 196.68 203.5, 196.52 203.67, 196.35 203.83, 196.19 204.0, 196.03 204.17, 195.86 204.33, 195.7 204.5, 195.54 204.67, 195.38 204.83, 195.21 205.0, 195.05 205.17, 194.89 205.33, 194.73 205.5, 194.57 205.67, 194.41 205.83, 194.25 206.0, 194.09 206.17, 193.93 206.33, 193.77 206.5, 193.61 206.67, 193.46 206.83, 193.3 207.0, 193.14 207.17, 192.99 207.33, 192.83 207.5, 192.67 207.67, 192.52 207.83, 192.37 208.0, 192.21 208.17, 192.06 208.33, 191.91 208.5, 191.75 208.67, 191.6 208.83, 191.45 209.0, 191.3 209.17, 191.15 209.33, 191.0 209.5, 190.85 209.67, 190.71 209.83, 190.56 210.0, 190.41 210.17, 190.27 210.33, 190.12 210.5, 189.98 210.67, 189.83 210.83, 189.69 211.0, 189.55 211.17, 189.4 211.33, 189.26 211.5, 189.12 211.67, 188.98 211.83, 188.85 212.0, 188.71 212.17, 188.57 212.33, 188.43 212.5, 188.3 212.67, 188.16 212.83, 188.03 213.0, 187.9 213.17, 187.76 213.33, 187.63 213.5, 187.5 213.67, 187.37 213.83, 187.24 214.0, 187.12 214.17, 186.99 214.33, 186.86 214.5, 186.74 214.67, 186.61 214.83, 186.49 215.0, 186.37 215.17, 186.25 215.33, 186.13 215.5, 186.01 215.67, 185.89 215.83, 185.77 216.0, 185.65 216.17, 185.54 216.33, 185.42 216.5, 185.31 216.67, 185.2 216.83, 185.08 217.0, 184.97 217.17, 184.86 217.33, 184.76 217.5, 184.65 217.67, 184.54 217.83, 184.44 218.0, 184.33 218.17, 184.23 218.33, 184.13 218.5, 184.03 218.67, 183.93 218.83, 183.83 219.0, 183.73 219.17, 183.64 219.33, 183.54 219.5, 183.45 219.67, 183.35 219.83, 183.26 220.0, 183.17 220.17, 183.08 220.33, 182.99 220.5, 182.91 220.67, 182.82 220.83, 182.74 221.0, 182.65 221.17, 182.57 221.33, 182.49 221.5, 182.41 221.67, 182.33 221.83, 182.25 222.0, 182.18 222.17, 182.1 222.33, 182.03 222.5, 181.95 222.67, 181.88 222.83, 181.81 223.0, 181.74 223.17, 181.68 223.33, 181.61 223.5, 181.55 223.67, 181.48 223.83, 181.42 224.0, 181.36 224.17, 181.3 224.33, 181.24 224.5, 181.18 224.67, 181.13 224.83, 181.07 225.0, 181.02 225.17, 180.97 225.33, 180.92 225.5, 180.87 225.67, 180.82 225.83, 180.77 226.0, 180.73 226.17, 180.68 226.33, 180.64 226.5, 180.6 226.67, 180.56 226.83, 180.52 227.0, 180.49 227.17, 180.45 227.33, 180.42 227.5, 180.38 227.67, 180.35 227.83, 180.32 228.0, 180.29 228.17, 180.26 228.33, 180.24 228.5, 180.21 228.67, 180.19 228.83, 180.17 229.0, 180.15 229.17, 180.13 229.33, 180.11 229.5, 180.09 229.67, 180.08 229.83, 180.06 230.0, 180.05 230.17, 180.04 230.33, 180.03 230.5, 180.02 230.67, 180.01 230.83, 180.01 231.0, 180.0 231.17, 180.0 231.33, 180.0 231.5, 180.0 231.67, 180.0 231.83, 180.0 232.0, 180.01 232.17, 180.01 232.33, 180.02 232.5, 180.03 232.67, 180.04 232.83, 180.05 233.0, 180.06 233.17, 180.08 233.33, 180.09 233.5, 180.11 233.67, 180.13 233.83, 180.15 234.0, 180.17 234.17, 180.19 234.33, 180.21 234.5, 180.24 234.67, 180.26 234.83, 180.29 235.0, 180.32 235.17, 180.35 235.33, 180.38 235.5, 180.42 235.67, 180.45 235.83, 180.49 236.0, 180.52 236.17, 180.56 236.33, 180.6 236.5, 180.64 236.67, 180.69 236.83, 180.73 237.0, 180.77 237.17, 180.82 237.33, 180.87 237.5, 180.92 237.67, 180.97 237.83, 181.02 238.0, 181.07 238.17, 181.13 238.33, 181.18 238.5, 181.24 238.67, 181.3 238.83, 181.36 239.0, 181.42 239.17, 181.48 239.33, 181.55 239.5, 181.61 239.67, 181.68 239.83, 181.75 240.0, 181.81 240.17, 181.88 240.33, 181.96 240.5, 182.03 240.67, 182.1 240.83, 182.18 241.0, 182.25 241.17, 182.33 241.33, 182.41 241.5, 182.49 241.67, 182.57 241.83, 182.65 242.0, 182.74 242.17, 182.82 242.33, 182.91 242.5, 182.99 242.67, 183.08 242.83, 183.17 243.0, 183.26 243.17, 183.35 243.33, 183.45 243.5, 183.54 243.67, 183.64 243.83, 183.73 244.0, 183.83 244.17, 183.93 244.33, 184.03 244.5, 184.13 244.67, 184.23 244.83, 184.33 245.0, 184.44 245.17, 184.54 245.33, 184.65 245.5, 184.76 245.67, 184.87 245.83, 184.97 246.0, 185.09 246.17, 185.2 246.33, 185.31 246.5, 185.42 246.67, 185.54 246.83, 185.65 247.0, 185.77 247.17, 185.89 247.33, 186.01 247.5, 186.13 247.67, 186.25 247.83, 186.37 248.0, 186.49 248.17, 186.61 248.33, 186.74 248.5, 186.86 248.67, 186.99 248.83, 187.12 249.0, 187.24 249.17, 187.37 249.33, 187.5 249.5, 187.63 249.67, 187.76 249.83, 187.9 250.0, 188.03 250.17, 188.16 250.33, 188.3 250.5, 188.43 250.67, 188.57 250.83, 188.71 251.0, 188.85 251.17, 188.98 251.33, 189.12 251.5, 189.26 251.67, 189.4 251.83, 189.55 252.0, 189.69 252.17, 189.83 252.33, 189.98 252.5, 190.12 252.67, 190.27 252.83, 190.41 253.0, 190.56 253.17, 190.7 253.33, 190.85 253.5, 191.0 253.67, 191.15 253.83, 191.3 254.0, 191.45 254.17, 191.6 254.33, 191.75 254.5, 191.9 254.67, 192.06 254.83, 192.21 255.0, 192.36 255.17, 192.52 255.33, 192.67 255.5, 192.83 255.67, 192.98 255.83, 193.14 256.0, 193.3 256.17, 193.45 256.33, 193.61 256.5, 193.77 256.67, 193.93 256.83, 194.09 257.0, 194.25 257.17, 194.41 257.33, 194.57 257.5, 194.73 257.67, 194.89 257.83, 195.05 258.0, 195.21 258.17, 195.37 258.33, 195.53 258.5, 195.7 258.67, 195.86 258.83, 196.02 259.0, 196.19 259.17, 196.35 259.33, 196.51 259.5, 196.68 259.67, 196.84 259.83, 197.01 260.0, 197.17 260.17, 197.34 260.33, 197.5 260.5, 197.67 260.67, 197.83 260.83, 198.0 261.0, 198.16 261.17, 198.33 261.33, 198.5 261.5, 198.66 261.67, 198.83 261.83, 198.99 262.0, 199.16 262.17, 199.33 262.33, 199.49 262.5, 199.66 262.67, 199.83 262.83, 199.99 263.0, 200.16 263.17, 200.32 263.33, 200.49 263.5, 200.66 263.67, 200.82 263.83, 200.99 264.0, 201.16 264.17, 201.32 264.33, 201.49 264.5, 201.65 264.67, 201.82 264.83, 201.99 265.0, 202.15 265.17, 202.32 265.33, 202.48 265.5, 202.65 265.67, 202.81 265.83, 202.98 266.0, 203.14 266.17, 203.3 266.33, 203.47 266.5, 203.63 266.67, 203.8 266.83, 203.96 267.0, 204.12 267.17, 204.28 267.33, 204.45 267.5, 204.61 267.67, 204.77 267.83, 204.93 268.0, 205.09 268.17, 205.25 268.33, 205.41 268.5, 205.57 268.67, 205.73 268.83, 205.89 269.0, 206.05 269.17, 206.21 269.33, 206.36 269.5, 206.52 269.67, 206.68 269.83, 206.84 270.0, 206.99 270.17, 207.15 270.33, 207.3 270.5, 207.46 270.67, 207.61 270.83, 207.76 271.0, 207.92 271.17, 208.07 271.33, 208.22 271.5, 208.37 271.67, 208.52 271.83, 208.67 272.0, 208.82 272.17, 208.97 272.33, 209.12 272.5, 209.26 272.67, 209.41 272.83, 209.56 273.0, 209.7 273.17, 209.85 273.33, 209.99 273.5, 210.13 273.67, 210.28 273.83, 210.42 274.0, 210.56 274.17, 210.7 274.33, 210.84 274.5, 210.98 274.67, 211.12 274.83, 211.25 275.0, 211.39 275.17, 211.52 275.33, 211.66 275.5, 211.79 275.67, 211.93 275.83, 212.06 276.0, 212.19 276.17, 212.32 276.33, 212.45 276.5, 212.58 276.67, 212.71 276.83, 212.84 277.0, 212.96 277.17, 213.09 277.33, 213.21 277.5, 213.34 277.67, 213.46 277.83, 213.58 278.0, 213.7 278.17, 213.82 278.33, 213.94 278.5, 214.06 278.67, 214.17 278.83, 214.29 279.0, 214.41 279.17, 214.52 279.33, 214.63 279.5, 214.74 279.67, 214.85 279.83, 214.96 280.0, 215.07 280.17, 215.18 280.33, 215.29 280.5, 215.39 280.67, 215.5 280.83, 215.6 281.0, 215.7 281.17, 215.81 281.33, 215.91 281.5, 216.0 281.67, 216.1 281.83, 216.2 282.0, 216.3 282.17, 216.39 282.33, 216.48 282.5, 216.58 282.67, 216.67 282.83, 216.76 283.0, 216.85 283.17, 216.93 283.33, 217.02 283.5, 217.11 283.67, 217.19 283.83, 217.27 284.0, 217.36 284.17, 217.44 284.33, 217.52 284.5, 217.6 284.67, 217.67 284.83, 217.75 285.0, 217.82 285.17, 217.9 285.33, 217.97 285.5, 218.04 285.67, 218.11 285.83, 218.18 286.0, 218.25 286.17, 218.31 286.33, 218.38 286.5, 218.44 286.67, 218.51 286.83, 218.57 287.0, 218.63 287.17, 218.69 287.33, 218.74 287.5, 218.8 287.67, 218.86 287.83, 218.91 288.0, 218.96 288.17, 219.01 288.33, 219.06 288.5, 219.11 288.67, 219.16 288.83, 219.21 289.0, 219.25 289.17, 219.3 289.33, 219.34 289.5, 219.38 289.67, 219.42 289.83, 219.46 290.0, 219.5 290.17, 219.53 290.33, 219.57 290.5, 219.6 290.67, 219.64 290.83, 219.67 291.0, 219.7 291.17, 219.73 291.33, 219.76 291.5, 219.78 291.67, 219.81 291.83, 219.83 292.0, 219.85 292.17, 219.88 292.33, 219.9 292.5, 219.92 292.67, 219.93 292.83, 219.95 293.0, 219.97 293.17, 219.98 293.33, 219.99 293.5, 220.0 293.67, 220.02 293.83, 220.03 294.0, 220.03 294.17, 220.04 294.33, 220.05 294.5, 220.05 294.67, 220.06 294.83, 220.06 295.0, 220.06 295.17, 220.06 295.33, 220.06 295.5, 220.06 295.67, 220.05 295.83, 220.05 296.0, 220.04 296.17, 220.04 296.33, 220.03 296.5, 220.02 296.67, 220.01 296.83, 220.0 297.0, 219.99 297.17, 219.98 297.33, 219.96 297.5, 219.95 297.67, 219.93 297.83, 219.92 298.0, 219.9 298.17, 219.88 298.33, 219.86 298.5, 219.84 298.67, 219.82 298.83, 219.8 299.0, 219.77 299.17, 219.75 299.33, 219.72 299.5, 219.7 299.67, 219.67 299.83, 219.64 300.0, 219.61 300.17, 219.58 300.33, 219.55 300.5, 219.52 300.67, 219.49 300.83, 219.46 301.0, 219.43 301.17, 219.39 301.33, 219.36 301.5, 219.32 301.67, 219.29 301.83, 219.25 302.0, 219.21 302.17, 219.18 302.33, 219.14 302.5, 219.1 302.67, 219.06 302.83, 219.02 303.0, 218.98 303.17, 218.94 303.33, 218.9 303.5, 218.85 303.67, 218.81 303.83, 218.77 304.0, 218.73 304.17, 218.68 304.33, 218.64 304.5, 218.6 304.67, 218.55 304.83, 218.51 305.0, 218.46 305.17, 218.42 305.33, 218.37 305.5, 218.33 305.67, 218.28 305.83, 218.24 306.0, 218.19 306.17, 218.15 306.33, 218.1 306.5, 218.05 306.67, 218.01 306.83, 217.96 307.0, 217.92 307.17, 217.87 307.33, 217.83 307.5, 217.78 307.67, 217.74 307.83, 217.7 308.0, 217.65 308.17, 217.61 308.33, 217.57 308.5, 217.52 308.67, 217.48 308.83, 217.44 309.0, 217.4 309.17, 217.36 309.33, 217.32 309.5, 217.28 309.67, 217.24 309.83, 217.21 310.0, 217.17 310.17, 217.13 310.33, 217.1 310.5, 217.07 310.67, 217.03 310.83, 217.0 311.0, 216.97 311.17, 216.94 311.33, 216.91 311.5, 216.88 311.67, 216.86 311.83, 216.83 312.0, 216.81 312.17, 216.79 312.33, 216.77 312.5, 216.75 312.67, 216.73 312.83, 216.72 313.0, 216.7 313.17, 216.69 313.33, 216.68 313.5, 216.67 313.67, 216.66 313.83, 216.66 314.0, 216.65 314.17, 216.65 314.33, 216.66 314.5, 216.66 314.67, 216.66 314.83, 216.67 315.0, 216.68 315.17, 216.7 315.33, 216.71 315.5, 216.73 315.67, 216.75 315.83, 216.77 316.0, 216.8 316.17, 216.83 316.33, 216.86 316.5, 216.9 316.67, 216.94 316.83, 216.98 317.0, 217.02 317.17, 217.07 317.33, 217.12 317.5, 217.18 317.67, 217.24 317.83, 217.3 318.0, 217.37 318.17, 217.44 318.33, 217.51 318.5, 217.59 318.67, 217.67 318.83, 217.76 319.0, 217.85 319.17, 217.94 319.33, 218.04 319.5, 218.14 319.67, 218.25 319.83, 218.37 320.0, 218.48 320.17, 218.61 320.33, 218.73 320.5, 218.87 320.67, 219.01 320.83, 219.15 321.0, 219.3 321.17, 219.45 321.33, 219.61 321.5, 219.78 321.67, 219.95 321.83, 220.13 322.0, 220.31 322.17, 220.51 322.33, 220.7 322.5, 220.91 322.67, 221.12 322.83, 221.33 323.0, 221.56 323.17, 221.79 323.33, 222.02 323.5, 222.27 323.67, 222.52 323.83, 222.78 324.0, 223.05 324.17, 223.32 324.33, 223.61 324.5, 223.9 324.67, 224.2 324.83, 224.5 325.0, 224.82 325.17, 225.14 325.33, 225.48 325.5, 225.82 325.67, 226.17 325.83, 226.53 326.0, 226.9 326.17, 227.28 326.33, 227.67 326.5, 228.07 326.67, 228.48 326.83, 228.9 327.0, 229.33 327.17, 229.77 327.33, 230.22 327.5, 230.68 327.67, 231.15 327.83, 231.64 328.0, 232.13 328.17, 232.64 328.33, 233.16 328.5, 233.69 328.67, 234.23 328.83, 234.79 329.0, 235.36 329.17, 235.94 329.33, 236.53 329.5, 237.14 329.67, 237.76 329.83, 238.39 330.0, 239.04 330.17, 239.7 330.33, 240.38 330.5, 241.07 330.67, 241.78 330.83, 242.5 331.0, 243.23 331.17, 243.98 331.33, 244.75 331.5, 245.53 331.67, 246.33 331.83, 247.14 332.0, 247.98 332.17, 248.82 332.33, 249.69 332.5, 250.57 332.67, 251.47 332.83, 252.39 333.0, 253.32 333.17, 254.28 333.33, 255.25 333.5, 256.24 333.67, 257.25 333.83, 258.28 334.0, 259.33 334.17, 260.4 334.33, 261.49 334.5, 262.61 334.67, 263.74 334.83, 264.89 335.0, 266.07 335.17, 267.26 335.33, 268.48 335.5, 269.72 335.67, 270.99 335.83, 272.27 336.0, 273.59 336.17, 274.92 336.33, 276.28 336.5, 277.66 336.67, 279.07 336.83, 280.5 337.0, 281.96 337.17, 283.45 337.33, 284.96 337.5, 286.49 337.67, 288.06 337.83, 289.65 338.0, 291.27 338.17, 292.92 338.33, 294.59 338.5, 296.3 338.67, 298.03 338.83, 299.79 339.0, 301.59 339.17, 303.41 339.33, 305.27 339.5, 307.15 339.67, 309.07 339.83, 311.02 340.0, 313.0 340.17, 315.02 340.33, 317.07 340.5, 319.15 340.67, 321.27 340.83, 323.42 341.0, 325.61 341.17, 327.83 341.33, 330.09 341.5, 332.39 341.67, 334.72 341.83, 337.1 342.0, 339.51 342.17, 341.96 342.33, 344.44 342.5, 346.97 342.67, 349.54 342.83, 352.15 343.0, 354.8 343.17, 357.49 343.33, 360.22 343.5, 363.0 343.67, 365.82 343.83, 368.69 344.0, 371.6 344.17, 374.55 344.33, 377.55 344.5, 380.6 344.67, 383.7 344.83, 386.84 345.0, 390.03 345.17, 393.27 345.33, 396.56 345.5, 399.9 345.67, 403.29 345.83, 406.73 346.0, 410.22 346.17, 413.77 346.33, 417.37 346.5, 421.02 346.67, 424.73 346.83, 428.49 347.0, 432.31 347.17, 436.19 347.33, 440.12 347.5, 444.12 347.67, 448.17 347.83, 452.28 348.0, 456.45 348.17, 460.69 348.33, 464.98 348.5, 469.34 348.67, 473.76 348.83, 478.25 349.0, 482.8 349.17, 487.42 349.33, 492.1 349.5, 496.85 349.67, 501.67 349.83, 506.56 350.0, 511.52 350.17, 516.56 350.33, 521.66 350.5, 526.83 350.67, 532.08 350.83, 537.41 351.0, 542.81 351.17, 548.28 351.33, 553.84 351.5, 559.47 351.67, 565.18 351.83, 570.97 352.0, 576.84 352.17, 582.8 352.33, 588.83 352.5, 594.95 352.67, 601.16 352.83, 607.45 353.0, 613.83 353.17, 620.3 353.33, 626.86 353.5, 633.5 353.67, 640.24 353.83, 647.08 354.0, 654.0 354.17, 661.02 354.33, 668.14 354.5, 675.35 354.67, 682.66 354.83, 690.07 355.0, 697.58 355.17, 705.19 355.33, 712.91 355.5, 720.72 355.67, 728.65 355.83, 736.68 356.0, 744.82 356.17, 753.06 356.33, 761.42 356.5, 769.89 356.67, 778.47 356.83, 787.17 357.0, 795.98 357.17, 804.91 357.33, 813.96 357.5, 823.12 357.67, 832.41 357.83, 841.82 358.0, 851.35 358.17, 861.01 358.33, 870.79 358.5, 880.71 358.67, 890.75 358.83, 900.92 359.0, 911.23 359.17, 921.67 359.33, 932.24 359.5, 942.96 359.67, 953.81 359.83, 964.8 360.0, 975.93 360.17, 987.21 360.33, 998.63 360.5, 1010.2 360.67, 1021.92 360.83, 1033.78 361.0, 1045.8 361.17, 1057.97 361.33, 1070.3 361.5, 1082.79 361.67, 1095.43 361.83, 1108.23 362.0, 1121.2 362.17, 1134.33 362.33, 1147.62 362.5, 1161.08 362.67, 1174.72 362.83, 1188.52 363.0, 1202.5 363.17, 1216.65 363.33, 1230.98 363.5, 1245.49 363.67, 1260.18 363.83, 1275.05 364.0, 1290.11 364.17, 1305.36 364.33, 1320.79 364.5, 1336.42 364.67, 1352.24 364.83, 1368.26 365.0, 1384.47 365.17, 1400.88 365.33, 1417.5 365.5, 1434.32 365.67, 1451.34 365.83, 1468.58 366.0, 1486.02 366.17, 1503.68 366.33, 1521.56 366.5, 1539.65 366.67, 1557.97 366.83, 1576.5 367.0, 1595.26 367.17, 1614.25 367.33, 1633.47 367.5, 1652.92 367.67, 1672.61 367.83, 1692.53 368.0, 1712.7 368.17, 1733.1 368.33, 1753.76 368.5, 1774.66 368.67, 1795.81 368.83, 1817.21 369.0, 1838.87 369.17, 1860.79 369.33, 1882.96 369.5, 1905.41 369.67, 1928.12 369.83, 1951.1 370.0, 1974.35 370.17, 1997.88 370.33, 2021.68 370.5, 2045.77 370.67, 2070.14 370.83, 2094.8 371.0, 2119.75 371.17, 2144.99 371.33, 2170.53 371.5, 2196.37 371.67, 2222.51 371.83, 2248.96 372.0, 2275.72 372.17, 2302.78 372.33, 2330.17 372.5, 2357.87 372.67, 2385.89 372.83, 2414.24 373.0, 2442.92 373.17, 2471.93 373.33, 2501.28 373.5, 2530.96 373.67, 2560.99 373.83, 2591.36 374.0, 2622.09 374.17, 2653.16 374.33, 2684.59 374.5, 2716.39 374.67, 2748.55 374.83, 2781.07 375.0, 2813.97 375.17, 2847.24 375.33, 2880.89 375.5, 2914.93 375.67, 2949.35 375.83, 2984.16 376.0, 3019.37 376.17, 3054.98 376.33, 3090.99 376.5, 3127.41 376.67, 3164.23 376.83, 3201.48 377.0, 3239.14 377.17, 3277.23 377.33, 3315.74 377.5, 3354.69 377.67, 3394.07 377.83, 3433.9 378.0, 3474.17 378.17, 3514.89 378.33, 3556.07 378.5, 3597.7 378.67, 3639.8 378.83, 3682.36 379.0, 3725.4 379.17, 3768.92 379.33, 3812.91 379.5, 3857.4 379.67, 3902.38 379.83, 3947.85 380.0, 3993.83 380.17, 4040.31 380.33, 4087.3 380.5, 4134.81 380.67, 4182.84 380.83, 4231.4 381.0, 4280.49 381.17, 4330.12 381.33, 4380.29 381.5, 4431.01 381.67, 4482.28 381.83, 4534.11 382.0, 4586.5 382.17, 4639.47 382.33, 4693.01 382.5, 4747.13 382.67, 4801.83 382.83, 4857.13 383.0, 4913.03 383.17, 4969.53 383.33, 5026.63 383.5, 5084.36 383.67, 5142.7 383.83, 5201.67 384.0, 5261.28 384.17, 5321.52 384.33, 5382.41 384.5, 5443.96 384.67, 5506.16 384.83, 5569.02 385.0, 5632.56 385.17, 5696.77 385.33, 5761.66 385.5, 5827.25 385.67, 5893.53 385.83, 5960.51 386.0, 6028.21 386.17, 6096.62 386.33, 6165.76 386.5, 6235.62 386.67, 6306.22 386.83, 6377.57 387.0, 6449.67 387.17, 6522.52 387.33, 6596.15 387.5, 6670.54 387.67, 6745.71 387.83, 6821.68 388.0, 6898.43 388.17, 6975.99 388.33, 7054.36 388.5, 7133.54 388.67, 7213.55 388.83, 7294.4 389.0, 7376.08 389.17, 7458.61 389.33, 7542.0 389.5, 7626.25 389.67, 7711.37 389.83, 7797.38 390.0, 7884.27 390.17, 7972.06 390.33, 8060.75 390.5, 8150.36 390.67, 8240.89 390.83, 8332.35 391.0, 8424.74 391.17, 8518.09 391.33, 8612.39 391.5, 8707.65 391.67, 8803.89 391.83, 8901.12 392.0, 8999.33 392.17, 9098.54 392.33, 9198.77 392.5, 9300.01 392.67, 9402.29 392.83, 9505.59 393.0, 9609.95 393.17, 9715.37 393.33, 9821.85 393.5, 9929.4 393.67, 10038.04 393.83, 10147.78 394.0, 10258.63 394.17, 10370.58 394.33, 10483.67 394.5, 10597.89 394.67, 10713.25 394.83, 10829.78 395.0, 10947.47 395.17, 11066.33 395.33, 11186.39 395.5, 11307.64 395.67, 11430.1 395.83, 11553.78 396.0, 11678.69 396.17, 11804.85 396.33, 11932.26 396.5, 12060.93 396.67, 12190.87 396.83, 12322.11 397.0, 12454.64 397.17, 12588.48 397.33, 12723.64 397.5, 12860.14 397.67, 12997.98 397.83, 13137.17 398.0, 13277.74 398.17, 13419.68 398.33, 13563.02 398.5, 13707.77 398.67, 13853.93 398.83, 14001.52 399.0, 14150.55 399.17, 14301.04 399.33, 14453.0 399.5, 14606.43 399.67, 14761.36 399.83, 14917.8 400.0, 15075.76 " fill="none" stroke="white" stroke-width="1.5" stroke-linejoin="round" stroke-opacity="1"/>

 </svg>