<svg version="1.1" 
 baseProfile="full" 
 width="400" 
 height="400" 
 xmlns="http://www.w3.org/2000/svg">
<rect x="0.0" y="0.0" width="400" height="400" fill="black" stroke="black" stroke-width="0" opacity="1"/>
<line x1="0.0" y1="0.0" x2="0.0" y2="400.0" stroke="white" stroke-width="1" opacity="0.4" stroke-linecap="butt"/>
<line x1="40.0" y1="0.0" x2="40.0" y2="400.0" stroke="white" stroke-width="1" opacity="0.4" stroke-linecap="butt"/>
<line x1="80.0" y1="0.0" x2="80.0" y2="400.0" stroke="white" stroke-width="1" opacity="0.4" stroke-linecap="butt"/>
<line x1="120.0" y1="0.0" x2="120.0" y2="400.0" stroke="white" stroke-width="1" opacity="0.4" stroke-linecap="butt"/>
<line x1="160.0" y1="0.0" x2="160.0" y2="400.0" stroke="white" stroke-width="1" opacity="0.4" stroke-linecap="butt"/>
<line x1="200.0" y1="0.0" x2="200.0" y2="400.0" stroke="white" stroke-width="1" opacity="0.4" stroke-linecap="butt"/>
<line x1="240.0" y1="0.0" x2="240.0" y2="400.0" stroke="white" stroke-width="1" opacity="0.4" stroke-linecap="butt"/>
<line x1="280.0" y1="0.0" x2="280.0" y2="400.0" stroke="white" stroke-width="1" opacity="0.4" stroke-linecap="butt"/>
<line x1="320.0" y1="0.0" x2="320.0" y2="400.0" stroke="white" stroke-width="1" opacity="0.4" stroke-linecap="butt"/>
<line x1="360.0" y1="0.0" x2="360.0" y2="400.0" stroke="white" stroke-width="1" opacity="0.4" stroke-linecap="butt"/>
<line x1="0.0" y1="0.0" x2="400.0" y2="0.0" stroke="white" stroke-width="1" opacity="0.4" stroke-linecap="butt"/>
<line x1="0.0" y1="40.0" x2="400.0" y2="40.0" stroke="white" stroke-width="1" opacity="0.4" stroke-linecap="butt"/>
<line x1="0.0" y1="80.0" x2="400.0" y2="80.0" stroke="white" stroke-width="1" opacity="0.4" stroke-linecap="butt"/>
<line x1="0.0" y1="120.0" x2="400.0" y2="120.0" stroke="white" stroke-width="1" opacity="0.4" stroke-linecap="butt"/>
<line x1="0.0" y1="160.0" x2="400.0" y2="160.0" stroke="white" stroke-width="1" opacity="0.4" stroke-linecap="butt"/>
<line x1="0.0" y1="200.0" x2="400.0" y2="200.0" stroke="white" stroke-width="1" opacity="0.4" stroke-linecap="butt"/>
<line x1="0.0" y1="240.0" x2="400.0" y2="240.0" stroke="white" stroke-width="1" opacity="0.4" stroke-linecap="butt"/>
<line x1="0.0" y1="280.0" x2="400.0" y2="280.0" stroke="white" stroke-width="1" opacity="0.4" stroke-linecap="butt"/>
<line x1="0.0" y1="320.0" x2="400.0" y2="320.0" stroke="white" stroke-width="1" opacity="0.4" stroke-linecap="butt"/>
<line x1="0.0" y1="360.0" x2="400.0" y2="360.0" stroke="white" stroke-width="1" opacity="0.4" stroke-linecap="butt"/>
<line x1="0.0" y1="200.0" x2="400.0" y2="200.0" stroke="yellow" stroke-width="2.5" opacity="1" stroke-linecap="butt"/>
<line x1="200.0" y1="0.0" x2="200.0" y2="400.0" stroke="yellow" stroke-width="2.5" opacity="1" stroke-linecap="butt"/>
<polygon points="391.0 204.0, 401.0 200.0, 391.0 196.0, 393.0 200.0" fill="yellow"/><polygon points="204.0 9.0, 200.0 -1.0, 196.0 9.0, 200.0 7.0" fill="yellow"/><image x="-60.0" y="-60.0" width="200" height="200" href="/Users/girirajhira/PycharmProjects/Giraphics3/Taylor/expr.png"/><polyline points="0.0, -17325.5 0.17, -17149.32 0.33, -16974.74 0.5, -16801.76 0.67, -16630.36 0.83, -16460.53 1.0, -16292.26 1.17, -16125.52 1.33, -15960.31 1.5, -15796.62 1.67, -15634.44 1.83, -15473.75 2.0, -15314.53 2.17, -15156.79 2.33, -15000.49 2.5, -14845.64 2.67, -14692.23 2.83, -14540.23 3.0, -14389.64 3.17, -14240.44 3.33, -14092.63 3.5, -13946.19 3.67, -13801.12 3.83, -13657.39 4.0, -13515.0 4.17, -13373.94 4.33, -13234.19 4.5, -13095.75 4.67, -12958.61 4.83, -12822.74 5.0, -12688.15 5.17, -12554.82 5.33, -12422.75 5.5, -12291.91 5.67, -12162.3 5.83, -12033.92 6.0, -11906.74 6.17, -11780.76 6.33, -11655.97 6.5, -11532.36 6.67, -11409.92 6.83, -11288.64 7.0, -11168.51 7.17, -11049.51 7.33, -10931.65 7.5, -10814.91 7.67, -10699.27 7.83, -10584.74 8.0, -10471.3 8.17, -10358.94 8.33, -10247.66 8.5, -10137.44 8.67, -10028.27 8.83, -9920.15 9.0, -9813.06 9.17, -9707.01 9.33, -9601.97 9.5, -9497.94 9.67, -9394.91 9.83, -9292.88 10.0, -9191.83 10.17, -9091.75 10.33, -8992.65 10.5, -8894.5 10.67, -8797.3 10.83, -8701.04 11.0, -8605.72 11.17, -8511.32 11.33, -8417.84 11.5, -8325.27 11.67, -8233.6 11.83, -8142.82 12.0, -8052.93 12.17, -7963.92 12.33, -7875.78 12.5, -7788.5 12.67, -7702.08 12.83, -7616.5 13.0, -7531.77 13.17, -7447.87 13.33, -7364.79 13.5, -7282.53 13.67, -7201.08 13.83, -7120.44 14.0, -7040.59 14.17, -6961.53 14.33, -6883.25 14.5, -6805.75 14.67, -6729.02 14.83, -6653.05 15.0, -6577.83 15.17, -6503.36 15.33, -6429.64 15.5, -6356.65 15.67, -6284.38 15.83, -6212.84 16.0, -6142.01 16.17, -6071.9 16.33, -6002.48 16.5, -5933.76 16.67, -5865.73 16.83, -5798.39 17.0, -5731.72 17.17, -5665.72 17.33, -5600.39 17.5, -5535.72 17.67, -5471.7 17.83, -5408.33 18.0, -5345.6 18.17, -5283.5 18.33, -5222.04 18.5, -5161.2 18.67, -5100.97 18.83, -5041.36 19.0, -4982.36 19.17, -4923.96 19.33, -4866.15 19.5, -4808.94 19.67, -4752.31 19.83, -4696.26 20.0, -4640.78 20.17, -4585.87 20.33, -4531.53 20.5, -4477.75 20.67, -4424.52 20.83, -4371.83 21.0, -4319.7 21.17, -4268.09 21.33, -4217.03 21.5, -4166.49 21.67, -4116.47 21.83, -4066.97 22.0, -4017.99 22.17, -3969.52 22.33, -3921.55 22.5, -3874.08 22.67, -3827.1 22.83, -3780.61 23.0, -3734.61 23.17, -3689.09 23.33, -3644.05 23.5, -3599.48 23.67, -3555.37 23.83, -3511.73 24.0, -3468.55 24.17, -3425.83 24.33, -3383.55 24.5, -3341.72 24.67, -3300.33 24.83, -3259.37 25.0, -3218.86 25.17, -3178.77 25.33, -3139.1 25.5, -3099.86 25.67, -3061.03 25.83, -3022.62 26.0, -2984.61 26.17, -2947.02 26.33, -2909.82 26.5, -2873.02 26.67, -2836.61 26.83, -2800.59 27.0, -2764.96 27.17, -2729.72 27.33, -2694.85 27.5, -2660.35 27.67, -2626.23 27.83, -2592.47 28.0, -2559.08 28.17, -2526.05 28.33, -2493.38 28.5, -2461.06 28.67, -2429.09 28.83, -2397.47 29.0, -2366.2 29.17, -2335.26 29.33, -2304.66 29.5, -2274.39 29.67, -2244.45 29.83, -2214.85 30.0, -2185.56 30.17, -2156.6 30.33, -2127.95 30.5, -2099.62 30.67, -2071.59 30.83, -2043.88 31.0, -2016.47 31.17, -1989.37 31.33, -1962.56 31.5, -1936.05 31.67, -1909.84 31.83, -1883.91 32.0, -1858.27 32.17, -1832.92 32.33, -1807.85 32.5, -1783.05 32.67, -1758.54 32.83, -1734.3 33.0, -1710.32 33.17, -1686.62 33.33, -1663.18 33.5, -1640.01 33.67, -1617.09 33.83, -1594.43 34.0, -1572.03 34.17, -1549.88 34.33, -1527.98 34.5, -1506.33 34.67, -1484.92 34.83, -1463.75 35.0, -1442.83 35.17, -1422.14 35.33, -1401.68 35.5, -1381.46 35.67, -1361.47 35.83, -1341.71 36.0, -1322.17 36.17, -1302.86 36.33, -1283.76 36.5, -1264.89 36.67, -1246.23 36.83, -1227.79 37.0, -1209.56 37.17, -1191.54 37.33, -1173.72 37.5, -1156.11 37.67, -1138.71 37.83, -1121.51 38.0, -1104.5 38.17, -1087.7 38.33, -1071.09 38.5, -1054.67 38.67, -1038.44 38.83, -1022.41 39.0, -1006.56 39.17, -990.89 39.33, -975.41 39.5, -960.11 39.67, -944.99 39.83, -930.05 40.0, -915.28 40.17, -900.69 40.33, -886.27 40.5, -872.02 40.67, -857.94 40.83, -844.02 41.0, -830.27 41.17, -816.69 41.33, -803.26 41.5, -790.0 41.67, -776.89 41.83, -763.94 42.0, -751.15 42.17, -738.5 42.33, -726.01 42.5, -713.67 42.67, -701.48 42.83, -689.44 43.0, -677.54 43.17, -665.78 43.33, -654.17 43.5, -642.69 43.67, -631.36 43.83, -620.16 44.0, -609.1 44.17, -598.17 44.33, -587.38 44.5, -576.72 44.67, -566.19 44.83, -555.79 45.0, -545.51 45.17, -535.37 45.33, -525.34 45.5, -515.44 45.67, -505.67 45.83, -496.01 46.0, -486.47 46.17, -477.05 46.33, -467.75 46.5, -458.56 46.67, -449.49 46.83, -440.53 47.0, -431.68 47.17, -422.95 47.33, -414.32 47.5, -405.8 47.67, -397.39 47.83, -389.08 48.0, -380.88 48.17, -372.78 48.33, -364.78 48.5, -356.89 48.67, -349.09 48.83, -341.4 49.0, -333.8 49.17, -326.3 49.33, -318.89 49.5, -311.58 49.67, -304.36 49.83, -297.24 50.0, -290.2 50.17, -283.26 50.33, -276.41 50.5, -269.64 50.67, -262.96 50.83, -256.37 51.0, -249.86 51.17, -243.44 51.33, -237.1 51.5, -230.85 51.67, -224.67 51.83, -218.58 52.0, -212.57 52.17, -206.63 52.33, -200.77 52.5, -194.99 52.67, -189.29 52.83, -183.66 53.0, -178.11 53.17, -172.63 53.33, -167.22 53.5, -161.88 53.67, -156.62 53.83, -151.43 54.0, -146.3 54.17, -141.24 54.33, -136.26 54.5, -131.33 54.67, -126.48 54.83, -121.69 55.0, -116.96 55.17, -112.3 55.33, -107.71 55.5, -103.17 55.67, -98.7 55.83, -94.29 56.0, -89.93 56.17, -85.64 56.33, -81.41 56.5, -77.23 56.67, -73.11 56.83, -69.05 57.0, -65.05 57.17, -61.1 57.33, -57.2 57.5, -53.36 57.67, -49.58 57.83, -45.84 58.0, -42.16 58.17, -38.53 58.33, -34.95 58.5, -31.42 58.67, -27.94 58.83, -24.51 59.0, -21.13 59.17, -17.8 59.33, -14.51 59.5, -11.28 59.67, -8.08 59.83, -4.94 60.0, -1.84 60.17, 1.22 60.33, 4.23 60.5, 7.2 60.67, 10.13 60.83, 13.01 61.0, 15.86 61.17, 18.66 61.33, 21.42 61.5, 24.14 61.67, 26.82 61.83, 29.46 62.0, 32.06 62.17, 34.62 62.33, 37.14 62.5, 39.63 62.67, 42.08 62.83, 44.49 63.0, 46.87 63.17, 49.21 63.33, 51.52 63.5, 53.79 63.67, 56.03 63.83, 58.23 64.0, 60.4 64.17, 62.54 64.33, 64.64 64.5, 66.72 64.67, 68.76 64.83, 70.77 65.0, 72.74 65.17, 74.69 65.33, 76.61 65.5, 78.5 65.67, 80.36 65.83, 82.18 66.0, 83.99 66.17, 85.76 66.33, 87.5 66.5, 89.22 66.67, 90.91 66.83, 92.57 67.0, 94.21 67.17, 95.82 67.33, 97.4 67.5, 98.96 67.67, 100.49 67.83, 102.0 68.0, 103.49 68.17, 104.95 68.33, 106.39 68.5, 107.8 68.67, 109.19 68.83, 110.56 69.0, 111.9 69.17, 113.22 69.33, 114.52 69.5, 115.8 69.67, 117.06 69.83, 118.29 70.0, 119.51 70.17, 120.7 70.33, 121.88 70.5, 123.03 70.67, 124.17 70.83, 125.29 71.0, 126.38 71.17, 127.46 71.33, 128.52 71.5, 129.56 71.67, 130.58 71.83, 131.59 72.0, 132.57 72.17, 133.54 72.33, 134.5 72.5, 135.43 72.67, 136.35 72.83, 137.25 73.0, 138.14 73.17, 139.01 73.33, 139.87 73.5, 140.71 73.67, 141.53 73.83, 142.34 74.0, 143.13 74.17, 143.91 74.33, 144.68 74.5, 145.43 74.67, 146.17 74.83, 146.89 75.0, 147.6 75.17, 148.3 75.33, 148.98 75.5, 149.65 75.67, 150.31 75.83, 150.96 76.0, 151.59 76.17, 152.21 76.33, 152.82 76.5, 153.42 76.67, 154.0 76.83, 154.57 77.0, 155.14 77.17, 155.69 77.33, 156.23 77.5, 156.76 77.67, 157.28 77.83, 157.78 78.0, 158.28 78.17, 158.77 78.33, 159.25 78.5, 159.72 78.67, 160.18 78.83, 160.62 79.0, 161.06 79.17, 161.49 79.33, 161.92 79.5, 162.33 79.67, 162.73 79.83, 163.13 80.0, 163.51 80.17, 163.89 80.33, 164.26 80.5, 164.62 80.67, 164.98 80.83, 165.32 81.0, 165.66 81.17, 165.99 81.33, 166.32 81.5, 166.63 81.67, 166.94 81.83, 167.25 82.0, 167.54 82.17, 167.83 82.33, 168.11 82.5, 168.39 82.67, 168.66 82.83, 168.92 83.0, 169.17 83.17, 169.42 83.33, 169.67 83.5, 169.91 83.67, 170.14 83.83, 170.37 84.0, 170.59 84.17, 170.8 84.33, 171.01 84.5, 171.22 84.67, 171.42 84.83, 171.61 85.0, 171.8 85.17, 171.99 85.33, 172.17 85.5, 172.34 85.67, 172.51 85.83, 172.68 86.0, 172.84 86.17, 173.0 86.33, 173.16 86.5, 173.3 86.67, 173.45 86.83, 173.59 87.0, 173.73 87.17, 173.86 87.33, 173.99 87.5, 174.12 87.67, 174.24 87.83, 174.36 88.0, 174.48 88.17, 174.59 88.33, 174.7 88.5, 174.8 88.67, 174.91 88.83, 175.01 89.0, 175.1 89.17, 175.2 89.33, 175.29 89.5, 175.38 89.67, 175.46 89.83, 175.55 90.0, 175.63 90.17, 175.71 90.33, 175.78 90.5, 175.85 90.67, 175.93 90.83, 175.99 91.0, 176.06 91.17, 176.12 91.33, 176.19 91.5, 176.25 91.67, 176.31 91.83, 176.36 92.0, 176.42 92.17, 176.47 92.33, 176.52 92.5, 176.57 92.67, 176.62 92.83, 176.66 93.0, 176.71 93.17, 176.75 93.33, 176.79 93.5, 176.83 93.67, 176.87 93.83, 176.91 94.0, 176.94 94.17, 176.98 94.33, 177.01 94.5, 177.05 94.67, 177.08 94.83, 177.11 95.0, 177.14 95.17, 177.17 95.33, 177.2 95.5, 177.22 95.67, 177.25 95.83, 177.28 96.0, 177.3 96.17, 177.32 96.33, 177.35 96.5, 177.37 96.67, 177.39 96.83, 177.41 97.0, 177.44 97.17, 177.46 97.33, 177.48 97.5, 177.5 97.67, 177.52 97.83, 177.54 98.0, 177.55 98.17, 177.57 98.33, 177.59 98.5, 177.61 98.67, 177.63 98.83, 177.65 99.0, 177.66 99.17, 177.68 99.33, 177.7 99.5, 177.72 99.67, 177.73 99.83, 177.75 100.0, 177.77 100.17, 177.79 100.33, 177.8 100.5, 177.82 100.67, 177.84 100.83, 177.86 101.0, 177.88 101.17, 177.89 101.33, 177.91 101.5, 177.93 101.67, 177.95 101.83, 177.97 102.0, 177.99 102.17, 178.01 102.33, 178.03 102.5, 178.05 102.67, 178.07 102.83, 178.1 103.0, 178.12 103.17, 178.14 103.33, 178.16 103.5, 178.19 103.67, 178.21 103.83, 178.24 104.0, 178.26 104.17, 178.29 104.33, 178.32 104.5, 178.34 104.67, 178.37 104.83, 178.4 105.0, 178.43 105.17, 178.46 105.33, 178.49 105.5, 178.52 105.67, 178.55 105.83, 178.58 106.0, 178.62 106.17, 178.65 106.33, 178.68 106.5, 178.72 106.67, 178.76 106.83, 178.79 107.0, 178.83 107.17, 178.87 107.33, 178.91 107.5, 178.95 107.67, 178.99 107.83, 179.03 108.0, 179.07 108.17, 179.12 108.33, 179.16 108.5, 179.21 108.67, 179.25 108.83, 179.3 109.0, 179.35 109.17, 179.4 109.33, 179.45 109.5, 179.5 109.67, 179.55 109.83, 179.6 110.0, 179.65 110.17, 179.71 110.33, 179.76 110.5, 179.82 110.67, 179.88 110.83, 179.94 111.0, 180.0 111.17, 180.06 111.33, 180.12 111.5, 180.18 111.67, 180.24 111.83, 180.31 112.0, 180.37 112.17, 180.44 112.33, 180.5 112.5, 180.57 112.67, 180.64 112.83, 180.71 113.0, 180.78 113.17, 180.86 113.33, 180.93 113.5, 181.0 113.67, 181.08 113.83, 181.16 114.0, 181.23 114.17, 181.31 114.33, 181.39 114.5, 181.47 114.67, 181.55 114.83, 181.63 115.0, 181.72 115.17, 181.8 115.33, 181.89 115.5, 181.97 115.67, 182.06 115.83, 182.15 116.0, 182.24 116.17, 182.33 116.33, 182.42 116.5, 182.51 116.67, 182.61 116.83, 182.7 117.0, 182.8 117.17, 182.9 117.33, 182.99 117.5, 183.09 117.67, 183.19 117.83, 183.29 118.0, 183.39 118.17, 183.5 118.33, 183.6 118.5, 183.7 118.67, 183.81 118.83, 183.92 119.0, 184.02 119.17, 184.13 119.33, 184.24 119.5, 184.35 119.67, 184.46 119.83, 184.57 120.0, 184.69 120.17, 184.8 120.33, 184.92 120.5, 185.03 120.67, 185.15 120.83, 185.27 121.0, 185.39 121.17, 185.51 121.33, 185.63 121.5, 185.75 121.67, 185.87 121.83, 185.99 122.0, 186.12 122.17, 186.24 122.33, 186.37 122.5, 186.49 122.67, 186.62 122.83, 186.75 123.0, 186.88 123.17, 187.01 123.33, 187.14 123.5, 187.27 123.67, 187.4 123.83, 187.54 124.0, 187.67 124.17, 187.81 124.33, 187.94 124.5, 188.08 124.67, 188.22 124.83, 188.35 125.0, 188.49 125.17, 188.63 125.33, 188.77 125.5, 188.91 125.67, 189.05 125.83, 189.2 126.0, 189.34 126.17, 189.48 126.33, 189.63 126.5, 189.77 126.67, 189.92 126.83, 190.06 127.0, 190.21 127.17, 190.36 127.33, 190.51 127.5, 190.65 127.67, 190.8 127.83, 190.95 128.0, 191.1 128.17, 191.26 128.33, 191.41 128.5, 191.56 128.67, 191.71 128.83, 191.87 129.0, 192.02 129.17, 192.17 129.33, 192.33 129.5, 192.48 129.67, 192.64 129.83, 192.8 130.0, 192.95 130.17, 193.11 130.33, 193.27 130.5, 193.43 130.67, 193.58 130.83, 193.74 131.0, 193.9 131.17, 194.06 131.33, 194.22 131.5, 194.38 131.67, 194.54 131.83, 194.71 132.0, 194.87 132.17, 195.03 132.33, 195.19 132.5, 195.35 132.67, 195.52 132.83, 195.68 133.0, 195.84 133.17, 196.01 133.33, 196.17 133.5, 196.34 133.67, 196.5 133.83, 196.67 134.0, 196.83 134.17, 197.0 134.33, 197.16 134.5, 197.33 134.67, 197.49 134.83, 197.66 135.0, 197.82 135.17, 197.99 135.33, 198.16 135.5, 198.32 135.67, 198.49 135.83, 198.66 136.0, 198.82 136.17, 198.99 136.33, 199.16 136.5, 199.32 136.67, 199.49 136.83, 199.66 137.0, 199.82 137.17, 199.99 137.33, 200.16 137.5, 200.32 137.67, 200.49 137.83, 200.66 138.0, 200.82 138.17, 200.99 138.33, 201.16 138.5, 201.32 138.67, 201.49 138.83, 201.66 139.0, 201.82 139.17, 201.99 139.33, 202.16 139.5, 202.32 139.67, 202.49 139.83, 202.65 140.0, 202.82 140.17, 202.98 140.33, 203.15 140.5, 203.31 140.67, 203.48 140.83, 203.64 141.0, 203.8 141.17, 203.97 141.33, 204.13 141.5, 204.29 141.67, 204.46 141.83, 204.62 142.0, 204.78 142.17, 204.94 142.33, 205.11 142.5, 205.27 142.67, 205.43 142.83, 205.59 143.0, 205.75 143.17, 205.91 143.33, 206.07 143.5, 206.22 143.67, 206.38 143.83, 206.54 144.0, 206.7 144.17, 206.85 144.33, 207.01 144.5, 207.17 144.67, 207.32 144.83, 207.48 145.0, 207.63 145.17, 207.79 145.33, 207.94 145.5, 208.09 145.67, 208.24 145.83, 208.4 146.0, 208.55 146.17, 208.7 146.33, 208.85 146.5, 209.0 146.67, 209.14 146.83, 209.29 147.0, 209.44 147.17, 209.59 147.33, 209.73 147.5, 209.88 147.67, 210.02 147.83, 210.17 148.0, 210.31 148.17, 210.45 148.33, 210.59 148.5, 210.73 148.67, 210.87 148.83, 211.01 149.0, 211.15 149.17, 211.29 149.33, 211.43 149.5, 211.56 149.67, 211.7 149.83, 211.84 150.0, 211.97 150.17, 212.1 150.33, 212.23 150.5, 212.37 150.67, 212.5 150.83, 212.63 151.0, 212.75 151.17, 212.88 151.33, 213.01 151.5, 213.14 151.67, 213.26 151.83, 213.39 152.0, 213.51 152.17, 213.63 152.33, 213.75 152.5, 213.87 152.67, 213.99 152.83, 214.11 153.0, 214.23 153.17, 214.35 153.33, 214.46 153.5, 214.58 153.67, 214.69 153.83, 214.8 154.0, 214.91 154.17, 215.02 154.33, 215.13 154.5, 215.24 154.67, 215.35 154.83, 215.46 155.0, 215.56 155.17, 215.67 155.33, 215.77 155.5, 215.87 155.67, 215.97 155.83, 216.07 156.0, 216.17 156.17, 216.27 156.33, 216.36 156.5, 216.46 156.67, 216.55 156.83, 216.65 157.0, 216.74 157.17, 216.83 157.33, 216.92 157.5, 217.01 157.67, 217.09 157.83, 217.18 158.0, 217.26 158.17, 217.35 158.33, 217.43 158.5, 217.51 158.67, 217.59 158.83, 217.67 159.0, 217.75 159.17, 217.82 159.33, 217.9 159.5, 217.97 159.67, 218.04 159.83, 218.12 160.0, 218.19 160.17, 218.25 160.33, 218.32 160.5, 218.39 160.67, 218.45 160.83, 218.52 161.0, 218.58 161.17, 218.64 161.33, 218.7 161.5, 218.76 161.67, 218.82 161.83, 218.87 162.0, 218.93 162.17, 218.98 162.33, 219.03 162.5, 219.08 162.67, 219.13 162.83, 219.18 163.0, 219.23 163.17, 219.27 163.33, 219.31 163.5, 219.36 163.67, 219.4 163.83, 219.44 164.0, 219.48 164.17, 219.51 164.33, 219.55 164.5, 219.58 164.67, 219.62 164.83, 219.65 165.0, 219.68 165.17, 219.71 165.33, 219.74 165.5, 219.76 165.67, 219.79 165.83, 219.81 166.0, 219.83 166.17, 219.85 166.33, 219.87 166.5, 219.89 166.67, 219.91 166.83, 219.92 167.0, 219.94 167.17, 219.95 167.33, 219.96 167.5, 219.97 167.67, 219.98 167.83, 219.99 168.0, 219.99 168.17, 220.0 168.33, 220.0 168.5, 220.0 168.67, 220.0 168.83, 220.0 169.0, 220.0 169.17, 219.99 169.33, 219.99 169.5, 219.98 169.67, 219.97 169.83, 219.96 170.0, 219.95 170.17, 219.94 170.33, 219.92 170.5, 219.91 170.67, 219.89 170.83, 219.87 171.0, 219.85 171.17, 219.83 171.33, 219.81 171.5, 219.79 171.67, 219.76 171.83, 219.74 172.0, 219.71 172.17, 219.68 172.33, 219.65 172.5, 219.62 172.67, 219.58 172.83, 219.55 173.0, 219.51 173.17, 219.48 173.33, 219.44 173.5, 219.4 173.67, 219.36 173.83, 219.32 174.0, 219.27 174.17, 219.23 174.33, 219.18 174.5, 219.13 174.67, 219.08 174.83, 219.03 175.0, 218.98 175.17, 218.93 175.33, 218.87 175.5, 218.82 175.67, 218.76 175.83, 218.7 176.0, 218.64 176.17, 218.58 176.33, 218.52 176.5, 218.45 176.67, 218.39 176.83, 218.32 177.0, 218.26 177.17, 218.19 177.33, 218.12 177.5, 218.05 177.67, 217.97 177.83, 217.9 178.0, 217.82 178.17, 217.75 178.33, 217.67 178.5, 217.59 178.67, 217.51 178.83, 217.43 179.0, 217.35 179.17, 217.26 179.33, 217.18 179.5, 217.09 179.67, 217.01 179.83, 216.92 180.0, 216.83 180.17, 216.74 180.33, 216.65 180.5, 216.55 180.67, 216.46 180.83, 216.36 181.0, 216.27 181.17, 216.17 181.33, 216.07 181.5, 215.97 181.67, 215.87 181.83, 215.77 182.0, 215.67 182.17, 215.56 182.33, 215.46 182.5, 215.35 182.67, 215.24 182.83, 215.14 183.0, 215.03 183.17, 214.92 183.33, 214.8 183.5, 214.69 183.67, 214.58 183.83, 214.46 184.0, 214.35 184.17, 214.23 184.33, 214.11 184.5, 213.99 184.67, 213.87 184.83, 213.75 185.0, 213.63 185.17, 213.51 185.33, 213.39 185.5, 213.26 185.67, 213.14 185.83, 213.01 186.0, 212.88 186.17, 212.76 186.33, 212.63 186.5, 212.5 186.67, 212.37 186.83, 212.24 187.0, 212.1 187.17, 211.97 187.33, 211.84 187.5, 211.7 187.67, 211.57 187.83, 211.43 188.0, 211.29 188.17, 211.15 188.33, 211.02 188.5, 210.88 188.67, 210.74 188.83, 210.6 189.0, 210.45 189.17, 210.31 189.33, 210.17 189.5, 210.02 189.67, 209.88 189.83, 209.73 190.0, 209.59 190.17, 209.44 190.33, 209.29 190.5, 209.15 190.67, 209.0 190.83, 208.85 191.0, 208.7 191.17, 208.55 191.33, 208.4 191.5, 208.25 191.67, 208.09 191.83, 207.94 192.0, 207.79 192.17, 207.63 192.33, 207.48 192.5, 207.33 192.67, 207.17 192.83, 207.01 193.0, 206.86 193.17, 206.7 193.33, 206.54 193.5, 206.39 193.67, 206.23 193.83, 206.07 194.0, 205.91 194.17, 205.75 194.33, 205.59 194.5, 205.43 194.67, 205.27 194.83, 205.11 195.0, 204.95 195.17, 204.79 195.33, 204.62 195.5, 204.46 195.67, 204.3 195.83, 204.14 196.0, 203.97 196.17, 203.81 196.33, 203.65 196.5, 203.48 196.67, 203.32 196.83, 203.15 197.0, 202.99 197.17, 202.82 197.33, 202.66 197.5, 202.49 197.67, 202.33 197.83, 202.16 198.0, 202.0 198.17, 201.83 198.33, 201.66 198.5, 201.5 198.67, 201.33 198.83, 201.17 199.0, 201.0 199.17, 200.83 199.33, 200.67 199.5, 200.5 199.67, 200.33 199.83, 200.17 200.0, 200.0 200.17, 199.83 200.33, 199.67 200.5, 199.5 200.67, 199.33 200.83, 199.17 201.0, 199.0 201.17, 198.83 201.33, 198.67 201.5, 198.5 201.67, 198.34 201.83, 198.17 202.0, 198.0 202.17, 197.84 202.33, 197.67 202.5, 197.51 202.67, 197.34 202.83, 197.18 203.0, 197.01 203.17, 196.85 203.33, 196.68 203.5, 196.52 203.67, 196.35 203.83, 196.19 204.0, 196.03 204.17, 195.86 204.33, 195.7 204.5, 195.54 204.67, 195.38 204.83, 195.21 205.0, 195.05 205.17, 194.89 205.33, 194.73 205.5, 194.57 205.67, 194.41 205.83, 194.25 206.0, 194.09 206.17, 193.93 206.33, 193.77 206.5, 193.61 206.67, 193.46 206.83, 193.3 207.0, 193.14 207.17, 192.99 207.33, 192.83 207.5, 192.67 207.67, 192.52 207.83, 192.37 208.0, 192.21 208.17, 192.06 208.33, 191.91 208.5, 191.75 208.67, 191.6 208.83, 191.45 209.0, 191.3 209.17, 191.15 209.33, 191.0 209.5, 190.85 209.67, 190.71 209.83, 190.56 210.0, 190.41 210.17, 190.27 210.33, 190.12 210.5, 189.98 210.67, 189.83 210.83, 189.69 211.0, 189.55 211.17, 189.4 211.33, 189.26 211.5, 189.12 211.67, 188.98 211.83, 188.85 212.0, 188.71 212.17, 188.57 212.33, 188.43 212.5, 188.3 212.67, 188.16 212.83, 188.03 213.0, 187.9 213.17, 187.76 213.33, 187.63 213.5, 187.5 213.67, 187.37 213.83, 187.24 214.0, 187.12 214.17, 186.99 214.33, 186.86 214.5, 186.74 214.67, 186.61 214.83, 186.49 215.0, 186.37 215.17, 186.25 215.33, 186.13 215.5, 186.01 215.67, 185.89 215.83, 185.77 216.0, 185.65 216.17, 185.54 216.33, 185.42 216.5, 185.31 216.67, 185.2 216.83, 185.08 217.0, 184.97 217.17, 184.86 217.33, 184.76 217.5, 184.65 217.67, 184.54 217.83, 184.44 218.0, 184.33 218.17, 184.23 218.33, 184.13 218.5, 184.03 218.67, 183.93 218.83, 183.83 219.0, 183.73 219.17, 183.64 219.33, 183.54 219.5, 183.45 219.67, 183.35 219.83, 183.26 220.0, 183.17 220.17, 183.08 220.33, 182.99 220.5, 182.91 220.67, 182.82 220.83, 182.74 221.0, 182.65 221.17, 182.57 221.33, 182.49 221.5, 182.41 221.67, 182.33 221.83, 182.25 222.0, 182.18 222.17, 182.1 222.33, 182.03 222.5, 181.95 222.67, 181.88 222.83, 181.81 223.0, 181.74 223.17, 181.68 223.33, 181.61 223.5, 181.55 223.67, 181.48 223.83, 181.42 224.0, 181.36 224.17, 181.3 224.33, 181.24 224.5, 181.18 224.67, 181.13 224.83, 181.07 225.0, 181.02 225.17, 180.97 225.33, 180.92 225.5, 180.87 225.67, 180.82 225.83, 180.77 226.0, 180.73 226.17, 180.68 226.33, 180.64 226.5, 180.6 226.67, 180.56 226.83, 180.52 227.0, 180.49 227.17, 180.45 227.33, 180.42 227.5, 180.38 227.67, 180.35 227.83, 180.32 228.0, 180.29 228.17, 180.26 228.33, 180.24 228.5, 180.21 228.67, 180.19 228.83, 180.17 229.0, 180.15 229.17, 180.13 229.33, 180.11 229.5, 180.09 229.67, 180.08 229.83, 180.06 230.0, 180.05 230.17, 180.04 230.33, 180.03 230.5, 180.02 230.67, 180.01 230.83, 180.01 231.0, 180.0 231.17, 180.0 231.33, 180.0 231.5, 180.0 231.67, 180.0 231.83, 180.0 232.0, 180.01 232.17, 180.01 232.33, 180.02 232.5, 180.03 232.67, 180.04 232.83, 180.05 233.0, 180.06 233.17, 180.08 233.33, 180.09 233.5, 180.11 233.67, 180.13 233.83, 180.15 234.0, 180.17 234.17, 180.19 234.33, 180.21 234.5, 180.24 234.67, 180.26 234.83, 180.29 235.0, 180.32 235.17, 180.35 235.33, 180.38 235.5, 180.42 235.67, 180.45 235.83, 180.49 236.0, 180.52 236.17, 180.56 236.33, 180.6 236.5, 180.64 236.67, 180.69 236.83, 180.73 237.0, 180.77 237.17, 180.82 237.33, 180.87 237.5, 180.92 237.67, 180.97 237.83, 181.02 238.0, 181.07 238.17, 181.13 238.33, 181.18 238.5, 181.24 238.67, 181.3 238.83, 181.36 239.0, 181.42 239.17, 181.48 239.33, 181.55 239.5, 181.61 239.67, 181.68 239.83, 181.75 240.0, 181.81 240.17, 181.88 240.33, 181.96 240.5, 182.03 240.67, 182.1 240.83, 182.18 241.0, 182.25 241.17, 182.33 241.33, 182.41 241.5, 182.49 241.67, 182.57 241.83, 182.65 242.0, 182.74 242.17, 182.82 242.33, 182.91 242.5, 182.99 242.67, 183.08 242.83, 183.17 243.0, 183.26 243.17, 183.35 243.33, 183.45 243.5, 183.54 243.67, 183.64 243.83, 183.73 244.0, 183.83 244.17, 183.93 244.33, 184.03 244.5, 184.13 244.67, 184.23 244.83, 184.33 245.0, 184.44 245.17, 184.54 245.33, 184.65 245.5, 184.76 245.67, 184.87 245.83, 184.98 246.0, 185.09 246.17, 185.2 246.33, 185.31 246.5, 185.42 246.67, 185.54 246.83, 185.65 247.0, 185.77 247.17, 185.89 247.33, 186.01 247.5, 186.13 247.67, 186.25 247.83, 186.37 248.0, 186.49 248.17, 186.61 248.33, 186.74 248.5, 186.86 248.67, 186.99 248.83, 187.12 249.0, 187.25 249.17, 187.37 249.33, 187.5 249.5, 187.63 249.67, 187.77 249.83, 187.9 250.0, 188.03 250.17, 188.16 250.33, 188.3 250.5, 188.44 250.67, 188.57 250.83, 188.71 251.0, 188.85 251.17, 188.99 251.33, 189.13 251.5, 189.27 251.67, 189.41 251.83, 189.55 252.0, 189.69 252.17, 189.83 252.33, 189.98 252.5, 190.12 252.67, 190.27 252.83, 190.41 253.0, 190.56 253.17, 190.71 253.33, 190.86 253.5, 191.0 253.67, 191.15 253.83, 191.3 254.0, 191.45 254.17, 191.6 254.33, 191.76 254.5, 191.91 254.67, 192.06 254.83, 192.21 255.0, 192.37 255.17, 192.52 255.33, 192.68 255.5, 192.83 255.67, 192.99 255.83, 193.15 256.0, 193.3 256.17, 193.46 256.33, 193.62 256.5, 193.78 256.67, 193.93 256.83, 194.09 257.0, 194.25 257.17, 194.41 257.33, 194.57 257.5, 194.73 257.67, 194.89 257.83, 195.06 258.0, 195.22 258.17, 195.38 258.33, 195.54 258.5, 195.71 258.67, 195.87 258.83, 196.03 259.0, 196.2 259.17, 196.36 259.33, 196.52 259.5, 196.69 259.67, 196.85 259.83, 197.02 260.0, 197.18 260.17, 197.35 260.33, 197.51 260.5, 197.68 260.67, 197.84 260.83, 198.01 261.0, 198.18 261.17, 198.34 261.33, 198.51 261.5, 198.68 261.67, 198.84 261.83, 199.01 262.0, 199.18 262.17, 199.34 262.33, 199.51 262.5, 199.68 262.67, 199.84 262.83, 200.01 263.0, 200.18 263.17, 200.34 263.33, 200.51 263.5, 200.68 263.67, 200.84 263.83, 201.01 264.0, 201.18 264.17, 201.34 264.33, 201.51 264.5, 201.68 264.67, 201.84 264.83, 202.01 265.0, 202.18 265.17, 202.34 265.33, 202.51 265.5, 202.67 265.67, 202.84 265.83, 203.0 266.0, 203.17 266.17, 203.33 266.33, 203.5 266.5, 203.66 266.67, 203.83 266.83, 203.99 267.0, 204.16 267.17, 204.32 267.33, 204.48 267.5, 204.65 267.67, 204.81 267.83, 204.97 268.0, 205.13 268.17, 205.29 268.33, 205.46 268.5, 205.62 268.67, 205.78 268.83, 205.94 269.0, 206.1 269.17, 206.26 269.33, 206.42 269.5, 206.57 269.67, 206.73 269.83, 206.89 270.0, 207.05 270.17, 207.2 270.33, 207.36 270.5, 207.52 270.67, 207.67 270.83, 207.83 271.0, 207.98 271.17, 208.13 271.33, 208.29 271.5, 208.44 271.67, 208.59 271.83, 208.74 272.0, 208.9 272.17, 209.05 272.33, 209.2 272.5, 209.35 272.67, 209.49 272.83, 209.64 273.0, 209.79 273.17, 209.94 273.33, 210.08 273.5, 210.23 273.67, 210.37 273.83, 210.52 274.0, 210.66 274.17, 210.8 274.33, 210.95 274.5, 211.09 274.67, 211.23 274.83, 211.37 275.0, 211.51 275.17, 211.65 275.33, 211.78 275.5, 211.92 275.67, 212.06 275.83, 212.19 276.0, 212.33 276.17, 212.46 276.33, 212.6 276.5, 212.73 276.67, 212.86 276.83, 212.99 277.0, 213.12 277.17, 213.25 277.33, 213.38 277.5, 213.51 277.67, 213.63 277.83, 213.76 278.0, 213.88 278.17, 214.01 278.33, 214.13 278.5, 214.25 278.67, 214.37 278.83, 214.49 279.0, 214.61 279.17, 214.73 279.33, 214.85 279.5, 214.97 279.67, 215.08 279.83, 215.2 280.0, 215.31 280.17, 215.43 280.33, 215.54 280.5, 215.65 280.67, 215.76 280.83, 215.87 281.0, 215.98 281.17, 216.08 281.33, 216.19 281.5, 216.3 281.67, 216.4 281.83, 216.5 282.0, 216.61 282.17, 216.71 282.33, 216.81 282.5, 216.91 282.67, 217.01 282.83, 217.1 283.0, 217.2 283.17, 217.3 283.33, 217.39 283.5, 217.49 283.67, 217.58 283.83, 217.67 284.0, 217.76 284.17, 217.85 284.33, 217.94 284.5, 218.03 284.67, 218.11 284.83, 218.2 285.0, 218.28 285.17, 218.37 285.33, 218.45 285.5, 218.53 285.67, 218.61 285.83, 218.69 286.0, 218.77 286.17, 218.84 286.33, 218.92 286.5, 219.0 286.67, 219.07 286.83, 219.14 287.0, 219.22 287.17, 219.29 287.33, 219.36 287.5, 219.43 287.67, 219.5 287.83, 219.56 288.0, 219.63 288.17, 219.69 288.33, 219.76 288.5, 219.82 288.67, 219.88 288.83, 219.94 289.0, 220.0 289.17, 220.06 289.33, 220.12 289.5, 220.18 289.67, 220.24 289.83, 220.29 290.0, 220.35 290.17, 220.4 290.33, 220.45 290.5, 220.5 290.67, 220.55 290.83, 220.6 291.0, 220.65 291.17, 220.7 291.33, 220.75 291.5, 220.79 291.67, 220.84 291.83, 220.88 292.0, 220.93 292.17, 220.97 292.33, 221.01 292.5, 221.05 292.67, 221.09 292.83, 221.13 293.0, 221.17 293.17, 221.21 293.33, 221.24 293.5, 221.28 293.67, 221.32 293.83, 221.35 294.0, 221.38 294.17, 221.42 294.33, 221.45 294.5, 221.48 294.67, 221.51 294.83, 221.54 295.0, 221.57 295.17, 221.6 295.33, 221.63 295.5, 221.66 295.67, 221.68 295.83, 221.71 296.0, 221.74 296.17, 221.76 296.33, 221.79 296.5, 221.81 296.67, 221.84 296.83, 221.86 297.0, 221.88 297.17, 221.9 297.33, 221.93 297.5, 221.95 297.67, 221.97 297.83, 221.99 298.0, 222.01 298.17, 222.03 298.33, 222.05 298.5, 222.07 298.67, 222.09 298.83, 222.11 299.0, 222.12 299.17, 222.14 299.33, 222.16 299.5, 222.18 299.67, 222.2 299.83, 222.21 300.0, 222.23 300.17, 222.25 300.33, 222.27 300.5, 222.28 300.67, 222.3 300.83, 222.32 301.0, 222.34 301.17, 222.35 301.33, 222.37 301.5, 222.39 301.67, 222.41 301.83, 222.43 302.0, 222.45 302.17, 222.46 302.33, 222.48 302.5, 222.5 302.67, 222.52 302.83, 222.54 303.0, 222.56 303.17, 222.59 303.33, 222.61 303.5, 222.63 303.67, 222.65 303.83, 222.68 304.0, 222.7 304.17, 222.72 304.33, 222.75 304.5, 222.78 304.67, 222.8 304.83, 222.83 305.0, 222.86 305.17, 222.89 305.33, 222.92 305.5, 222.95 305.67, 222.99 305.83, 223.02 306.0, 223.06 306.17, 223.09 306.33, 223.13 306.5, 223.17 306.67, 223.21 306.83, 223.25 307.0, 223.29 307.17, 223.34 307.33, 223.38 307.5, 223.43 307.67, 223.48 307.83, 223.53 308.0, 223.58 308.17, 223.64 308.33, 223.69 308.5, 223.75 308.67, 223.81 308.83, 223.88 309.0, 223.94 309.17, 224.01 309.33, 224.07 309.5, 224.15 309.67, 224.22 309.83, 224.29 310.0, 224.37 310.17, 224.45 310.33, 224.54 310.5, 224.62 310.67, 224.71 310.83, 224.8 311.0, 224.9 311.17, 224.99 311.33, 225.09 311.5, 225.2 311.67, 225.3 311.83, 225.41 312.0, 225.52 312.17, 225.64 312.33, 225.76 312.5, 225.88 312.67, 226.01 312.83, 226.14 313.0, 226.27 313.17, 226.41 313.33, 226.55 313.5, 226.7 313.67, 226.84 313.83, 227.0 314.0, 227.16 314.17, 227.32 314.33, 227.49 314.5, 227.66 314.67, 227.83 314.83, 228.01 315.0, 228.2 315.17, 228.39 315.33, 228.58 315.5, 228.78 315.67, 228.99 315.83, 229.2 316.0, 229.41 316.17, 229.63 316.33, 229.86 316.5, 230.09 316.67, 230.33 316.83, 230.58 317.0, 230.83 317.17, 231.08 317.33, 231.34 317.5, 231.61 317.67, 231.89 317.83, 232.17 318.0, 232.46 318.17, 232.75 318.33, 233.06 318.5, 233.37 318.67, 233.68 318.83, 234.01 319.0, 234.34 319.17, 234.68 319.33, 235.02 319.5, 235.38 319.67, 235.74 319.83, 236.11 320.0, 236.49 320.17, 236.87 320.33, 237.27 320.5, 237.67 320.67, 238.08 320.83, 238.51 321.0, 238.94 321.17, 239.38 321.33, 239.82 321.5, 240.28 321.67, 240.75 321.83, 241.23 322.0, 241.72 322.17, 242.22 322.33, 242.72 322.5, 243.24 322.67, 243.77 322.83, 244.31 323.0, 244.86 323.17, 245.43 323.33, 246.0 323.5, 246.58 323.67, 247.18 323.83, 247.79 324.0, 248.41 324.17, 249.04 324.33, 249.69 324.5, 250.35 324.67, 251.02 324.83, 251.7 325.0, 252.4 325.17, 253.11 325.33, 253.83 325.5, 254.57 325.67, 255.32 325.83, 256.09 326.0, 256.87 326.17, 257.66 326.33, 258.47 326.5, 259.29 326.67, 260.13 326.83, 260.99 327.0, 261.86 327.17, 262.75 327.33, 263.65 327.5, 264.57 327.67, 265.5 327.83, 266.46 328.0, 267.43 328.17, 268.41 328.33, 269.42 328.5, 270.44 328.67, 271.48 328.83, 272.54 329.0, 273.62 329.17, 274.71 329.33, 275.83 329.5, 276.97 329.67, 278.12 329.83, 279.3 330.0, 280.49 330.17, 281.71 330.33, 282.94 330.5, 284.2 330.67, 285.48 330.83, 286.78 331.0, 288.1 331.17, 289.44 331.33, 290.81 331.5, 292.2 331.67, 293.61 331.83, 295.05 332.0, 296.51 332.17, 298.0 332.33, 299.51 332.5, 301.04 332.67, 302.6 332.83, 304.18 333.0, 305.79 333.17, 307.43 333.33, 309.09 333.5, 310.78 333.67, 312.5 333.83, 314.24 334.0, 316.01 334.17, 317.82 334.33, 319.64 334.5, 321.5 334.67, 323.39 334.83, 325.31 335.0, 327.26 335.17, 329.23 335.33, 331.24 335.5, 333.28 335.67, 335.36 335.83, 337.46 336.0, 339.6 336.17, 341.77 336.33, 343.97 336.5, 346.21 336.67, 348.48 336.83, 350.79 337.0, 353.13 337.17, 355.51 337.33, 357.92 337.5, 360.37 337.67, 362.86 337.83, 365.38 338.0, 367.94 338.17, 370.54 338.33, 373.18 338.5, 375.86 338.67, 378.58 338.83, 381.34 339.0, 384.14 339.17, 386.99 339.33, 389.87 339.5, 392.8 339.67, 395.77 339.83, 398.78 340.0, 401.84 340.17, 404.94 340.33, 408.08 340.5, 411.28 340.67, 414.51 340.83, 417.8 341.0, 421.13 341.17, 424.51 341.33, 427.94 341.5, 431.42 341.67, 434.95 341.83, 438.53 342.0, 442.16 342.17, 445.84 342.33, 449.58 342.5, 453.36 342.67, 457.2 342.83, 461.1 343.0, 465.05 343.17, 469.05 343.33, 473.11 343.5, 477.23 343.67, 481.41 343.83, 485.64 344.0, 489.93 344.17, 494.29 344.33, 498.7 344.5, 503.17 344.67, 507.71 344.83, 512.3 345.0, 516.96 345.17, 521.69 345.33, 526.48 345.5, 531.33 345.67, 536.26 345.83, 541.24 346.0, 546.3 346.17, 551.43 346.33, 556.62 346.5, 561.88 346.67, 567.22 346.83, 572.63 347.0, 578.11 347.17, 583.66 347.33, 589.29 347.5, 594.99 347.67, 600.77 347.83, 606.63 348.0, 612.57 348.17, 618.58 348.33, 624.67 348.5, 630.85 348.67, 637.1 348.83, 643.44 349.0, 649.86 349.17, 656.37 349.33, 662.96 349.5, 669.64 349.67, 676.41 349.83, 683.26 350.0, 690.2 350.17, 697.24 350.33, 704.36 350.5, 711.58 350.67, 718.89 350.83, 726.3 351.0, 733.8 351.17, 741.4 351.33, 749.09 351.5, 756.89 351.67, 764.78 351.83, 772.78 352.0, 780.88 352.17, 789.08 352.33, 797.39 352.5, 805.8 352.67, 814.32 352.83, 822.95 353.0, 831.68 353.17, 840.53 353.33, 849.49 353.5, 858.56 353.67, 867.75 353.83, 877.05 354.0, 886.47 354.17, 896.01 354.33, 905.67 354.5, 915.44 354.67, 925.34 354.83, 935.37 355.0, 945.51 355.17, 955.79 355.33, 966.19 355.5, 976.72 355.67, 987.38 355.83, 998.17 356.0, 1009.1 356.17, 1020.16 356.33, 1031.36 356.5, 1042.69 356.67, 1054.17 356.83, 1065.78 357.0, 1077.54 357.17, 1089.44 357.33, 1101.48 357.5, 1113.67 357.67, 1126.01 357.83, 1138.5 358.0, 1151.15 358.17, 1163.94 358.33, 1176.89 358.5, 1190.0 358.67, 1203.26 358.83, 1216.69 359.0, 1230.27 359.17, 1244.02 359.33, 1257.94 359.5, 1272.02 359.67, 1286.27 359.83, 1300.69 360.0, 1315.28 360.17, 1330.05 360.33, 1344.99 360.5, 1360.11 360.67, 1375.41 360.83, 1390.89 361.0, 1406.56 361.17, 1422.41 361.33, 1438.44 361.5, 1454.67 361.67, 1471.09 361.83, 1487.7 362.0, 1504.5 362.17, 1521.51 362.33, 1538.71 362.5, 1556.11 362.67, 1573.72 362.83, 1591.54 363.0, 1609.56 363.17, 1627.79 363.33, 1646.23 363.5, 1664.89 363.67, 1683.76 363.83, 1702.86 364.0, 1722.17 364.17, 1741.71 364.33, 1761.47 364.5, 1781.46 364.67, 1801.68 364.83, 1822.14 365.0, 1842.83 365.17, 1863.75 365.33, 1884.92 365.5, 1906.33 365.67, 1927.98 365.83, 1949.88 366.0, 1972.03 366.17, 1994.43 366.33, 2017.09 366.5, 2040.01 366.67, 2063.18 366.83, 2086.62 367.0, 2110.32 367.17, 2134.3 367.33, 2158.54 367.5, 2183.05 367.67, 2207.85 367.83, 2232.92 368.0, 2258.27 368.17, 2283.91 368.33, 2309.84 368.5, 2336.05 368.67, 2362.56 368.83, 2389.37 369.0, 2416.47 369.17, 2443.88 369.33, 2471.59 369.5, 2499.62 369.67, 2527.95 369.83, 2556.6 370.0, 2585.56 370.17, 2614.85 370.33, 2644.45 370.5, 2674.39 370.67, 2704.66 370.83, 2735.26 371.0, 2766.2 371.17, 2797.47 371.33, 2829.09 371.5, 2861.06 371.67, 2893.38 371.83, 2926.05 372.0, 2959.08 372.17, 2992.47 372.33, 3026.23 372.5, 3060.35 372.67, 3094.85 372.83, 3129.72 373.0, 3164.96 373.17, 3200.59 373.33, 3236.61 373.5, 3273.02 373.67, 3309.82 373.83, 3347.02 374.0, 3384.61 374.17, 3422.62 374.33, 3461.03 374.5, 3499.86 374.67, 3539.1 374.83, 3578.77 375.0, 3618.86 375.17, 3659.37 375.33, 3700.33 375.5, 3741.72 375.67, 3783.55 375.83, 3825.83 376.0, 3868.55 376.17, 3911.73 376.33, 3955.37 376.5, 3999.48 376.67, 4044.05 376.83, 4089.09 377.0, 4134.61 377.17, 4180.61 377.33, 4227.1 377.5, 4274.08 377.67, 4321.55 377.83, 4369.52 378.0, 4417.99 378.17, 4466.97 378.33, 4516.47 378.5, 4566.49 378.67, 4617.03 378.83, 4668.09 379.0, 4719.7 379.17, 4771.83 379.33, 4824.52 379.5, 4877.75 379.67, 4931.53 379.83, 4985.87 380.0, 5040.78 380.17, 5096.26 380.33, 5152.31 380.5, 5208.94 380.67, 5266.15 380.83, 5323.96 381.0, 5382.36 381.17, 5441.36 381.33, 5500.97 381.5, 5561.2 381.67, 5622.04 381.83, 5683.5 382.0, 5745.6 382.17, 5808.33 382.33, 5871.7 382.5, 5935.72 382.67, 6000.39 382.83, 6065.72 383.0, 6131.72 383.17, 6198.39 383.33, 6265.73 383.5, 6333.76 383.67, 6402.48 383.83, 6471.9 384.0, 6542.01 384.17, 6612.84 384.33, 6684.38 384.5, 6756.65 384.67, 6829.64 384.83, 6903.36 385.0, 6977.83 385.17, 7053.05 385.33, 7129.02 385.5, 7205.75 385.67, 7283.25 385.83, 7361.53 386.0, 7440.59 386.17, 7520.44 386.33, 7601.08 386.5, 7682.53 386.67, 7764.79 386.83, 7847.87 387.0, 7931.77 387.17, 8016.5 387.33, 8102.08 387.5, 8188.5 387.67, 8275.78 387.83, 8363.92 388.0, 8452.93 388.17, 8542.82 388.33, 8633.6 388.5, 8725.27 388.67, 8817.84 388.83, 8911.32 389.0, 9005.72 389.17, 9101.04 389.33, 9197.3 389.5, 9294.5 389.67, 9392.65 389.83, 9491.75 390.0, 9591.83 390.17, 9692.88 390.33, 9794.91 390.5, 9897.94 390.67, 10001.97 390.83, 10107.01 391.0, 10213.06 391.17, 10320.15 391.33, 10428.27 391.5, 10537.44 391.67, 10647.66 391.83, 10758.94 392.0, 10871.3 392.17, 10984.74 392.33, 11099.27 392.5, 11214.91 392.67, 11331.65 392.83, 11449.51 393.0, 11568.51 393.17, 11688.64 393.33, 11809.92 393.5, 11932.36 393.67, 12055.97 393.83, 12180.76 394.0, 12306.74 394.17, 12433.92 394.33, 12562.3 394.5, 12691.91 394.67, 12822.75 394.83, 12954.82 395.0, 13088.15 395.17, 13222.74 395.33, 13358.61 395.5, 13495.75 395.67, 13634.19 395.83, 13773.94 396.0, 13915.0 396.17, 14057.39 396.33, 14201.12 396.5, 14346.19 396.67, 14492.63 396.83, 14640.44 397.0, 14789.64 397.17, 14940.23 397.33, 15092.23 397.5, 15245.64 397.67, 15400.49 397.83, 15556.79 398.0, 15714.53 398.17, 15873.75 398.33, 16034.44 398.5, 16196.62 398.67, 16360.31 398.83, 16525.52 399.0, 16692.26 399.17, 16860.53 399.33, 17030.36 399.5, 17201.76 399.67, 17374.74 399.83, 17549.32 400.0, 17725.5 " fill="none" stroke="white" stroke-width="1.5" stroke-linejoin="round" stroke-opacity="1"/>

 </svg>