<svg version="1.1" 
 baseProfile="full" 
 width="400" 
 height="400" 
 xmlns="http://www.w3.org/2000/svg">
<rect x="0.0" y="0.0" width="400" height="400" fill="black" stroke="black" stroke-width="0" opacity="1"/>
<line x1="0.0" y1="0.0" x2="0.0" y2="400.0" stroke="white" stroke-width="1" opacity="0.4" stroke-linecap="butt"/>
<line x1="40.0" y1="0.0" x2="40.0" y2="400.0" stroke="white" stroke-width="1" opacity="0.4" stroke-linecap="butt"/>
<line x1="80.0" y1="0.0" x2="80.0" y2="400.0" stroke="white" stroke-width="1" opacity="0.4" stroke-linecap="butt"/>
<line x1="120.0" y1="0.0" x2="120.0" y2="400.0" stroke="white" stroke-width="1" opacity="0.4" stroke-linecap="butt"/>
<line x1="160.0" y1="0.0" x2="160.0" y2="400.0" stroke="white" stroke-width="1" opacity="0.4" stroke-linecap="butt"/>
<line x1="200.0" y1="0.0" x2="200.0" y2="400.0" stroke="white" stroke-width="1" opacity="0.4" stroke-linecap="butt"/>
<line x1="240.0" y1="0.0" x2="240.0" y2="400.0" stroke="white" stroke-width="1" opacity="0.4" stroke-linecap="butt"/>
<line x1="280.0" y1="0.0" x2="280.0" y2="400.0" stroke="white" stroke-width="1" opacity="0.4" stroke-linecap="butt"/>
<line x1="320.0" y1="0.0" x2="320.0" y2="400.0" stroke="white" stroke-width="1" opacity="0.4" stroke-linecap="butt"/>
<line x1="360.0" y1="0.0" x2="360.0" y2="400.0" stroke="white" stroke-width="1" opacity="0.4" stroke-linecap="butt"/>
<line x1="0.0" y1="0.0" x2="400.0" y2="0.0" stroke="white" stroke-width="1" opacity="0.4" stroke-linecap="butt"/>
<line x1="0.0" y1="40.0" x2="400.0" y2="40.0" stroke="white" stroke-width="1" opacity="0.4" stroke-linecap="butt"/>
<line x1="0.0" y1="80.0" x2="400.0" y2="80.0" stroke="white" stroke-width="1" opacity="0.4" stroke-linecap="butt"/>
<line x1="0.0" y1="120.0" x2="400.0" y2="120.0" stroke="white" stroke-width="1" opacity="0.4" stroke-linecap="butt"/>
<line x1="0.0" y1="160.0" x2="400.0" y2="160.0" stroke="white" stroke-width="1" opacity="0.4" stroke-linecap="butt"/>
<line x1="0.0" y1="200.0" x2="400.0" y2="200.0" stroke="white" stroke-width="1" opacity="0.4" stroke-linecap="butt"/>
<line x1="0.0" y1="240.0" x2="400.0" y2="240.0" stroke="white" stroke-width="1" opacity="0.4" stroke-linecap="butt"/>
<line x1="0.0" y1="280.0" x2="400.0" y2="280.0" stroke="white" stroke-width="1" opacity="0.4" stroke-linecap="butt"/>
<line x1="0.0" y1="320.0" x2="400.0" y2="320.0" stroke="white" stroke-width="1" opacity="0.4" stroke-linecap="butt"/>
<line x1="0.0" y1="360.0" x2="400.0" y2="360.0" stroke="white" stroke-width="1" opacity="0.4" stroke-linecap="butt"/>
<line x1="0.0" y1="200.0" x2="400.0" y2="200.0" stroke="yellow" stroke-width="2.5" opacity="1" stroke-linecap="butt"/>
<line x1="200.0" y1="0.0" x2="200.0" y2="400.0" stroke="yellow" stroke-width="2.5" opacity="1" stroke-linecap="butt"/>
<polygon points="391.0 204.0, 401.0 200.0, 391.0 196.0, 393.0 200.0" fill="yellow"/><polygon points="204.0 9.0, 200.0 -1.0, 196.0 9.0, 200.0 7.0" fill="yellow"/><image x="-60.0" y="-60.0" width="200" height="200" href="/Users/girirajhira/PycharmProjects/Giraphics3/Taylor/expr.png"/><polyline points="0.0, -14515.17 0.17, -14369.28 0.33, -14224.7 0.5, -14081.41 0.67, -13939.41 0.83, -13798.68 1.0, -13659.21 1.17, -13521.0 1.33, -13384.03 1.5, -13248.3 1.67, -13113.79 1.83, -12980.5 2.0, -12848.41 2.17, -12717.51 2.33, -12587.8 2.5, -12459.26 2.67, -12331.89 2.83, -12205.68 3.0, -12080.61 3.17, -11956.68 3.33, -11833.88 3.5, -11712.2 3.67, -11591.64 3.83, -11472.17 4.0, -11353.79 4.17, -11236.5 4.33, -11120.28 4.5, -11005.13 4.67, -10891.03 4.83, -10777.99 5.0, -10665.98 5.17, -10555.01 5.33, -10445.05 5.5, -10336.12 5.67, -10228.19 5.83, -10121.25 6.0, -10015.31 6.17, -9910.35 6.33, -9806.36 6.5, -9703.33 6.67, -9601.27 6.83, -9500.15 7.0, -9399.98 7.17, -9300.73 7.33, -9202.42 7.5, -9105.02 7.67, -9008.53 7.83, -8912.95 8.0, -8818.26 8.17, -8724.46 8.33, -8631.54 8.5, -8539.49 8.67, -8448.31 8.83, -8357.99 9.0, -8268.52 9.17, -8179.89 9.33, -8092.1 9.5, -8005.14 9.67, -7919.0 9.83, -7833.68 10.0, -7749.17 10.17, -7665.46 10.33, -7582.54 10.5, -7500.42 10.67, -7419.07 10.83, -7338.5 11.0, -7258.71 11.17, -7179.67 11.33, -7101.39 11.5, -7023.85 11.67, -6947.06 11.83, -6871.01 12.0, -6795.69 12.17, -6721.09 12.33, -6647.21 12.5, -6574.04 12.67, -6501.58 12.83, -6429.81 13.0, -6358.74 13.17, -6288.36 13.33, -6218.65 13.5, -6149.63 13.67, -6081.27 13.83, -6013.58 14.0, -5946.54 14.17, -5880.16 14.33, -5814.42 14.5, -5749.33 14.67, -5684.87 14.83, -5621.04 15.0, -5557.83 15.17, -5495.25 15.33, -5433.27 15.5, -5371.91 15.67, -5311.15 15.83, -5250.98 16.0, -5191.41 16.17, -5132.43 16.33, -5074.02 16.5, -5016.2 16.67, -4958.94 16.83, -4902.26 17.0, -4846.13 17.17, -4790.56 17.33, -4735.55 17.5, -4681.08 17.67, -4627.15 17.83, -4573.76 18.0, -4520.9 18.17, -4468.57 18.33, -4416.76 18.5, -4365.47 18.67, -4314.69 18.83, -4264.43 19.0, -4214.66 19.17, -4165.4 19.33, -4116.63 19.5, -4068.36 19.67, -4020.57 19.83, -3973.26 20.0, -3926.43 20.17, -3880.08 20.33, -3834.19 20.5, -3788.77 20.67, -3743.81 20.83, -3699.3 21.0, -3655.25 21.17, -3611.65 21.33, -3568.49 21.5, -3525.77 21.67, -3483.49 21.83, -3441.64 22.0, -3400.22 22.17, -3359.22 22.33, -3318.65 22.5, -3278.49 22.67, -3238.74 22.83, -3199.4 23.0, -3160.47 23.17, -3121.94 23.33, -3083.8 23.5, -3046.07 23.67, -3008.72 23.83, -2971.76 24.0, -2935.18 24.17, -2898.98 24.33, -2863.16 24.5, -2827.71 24.67, -2792.63 24.83, -2757.91 25.0, -2723.56 25.17, -2689.57 25.33, -2655.93 25.5, -2622.65 25.67, -2589.71 25.83, -2557.13 26.0, -2524.88 26.17, -2492.97 26.33, -2461.4 26.5, -2430.16 26.67, -2399.26 26.83, -2368.67 27.0, -2338.42 27.17, -2308.48 27.33, -2278.86 27.5, -2249.56 27.67, -2220.56 27.83, -2191.88 28.0, -2163.5 28.17, -2135.43 28.33, -2107.65 28.5, -2080.17 28.67, -2052.99 28.83, -2026.09 29.0, -1999.49 29.17, -1973.17 29.33, -1947.14 29.5, -1921.38 29.67, -1895.91 29.83, -1870.7 30.0, -1845.78 30.17, -1821.12 30.33, -1796.72 30.5, -1772.6 30.67, -1748.73 30.83, -1725.12 31.0, -1701.78 31.17, -1678.68 31.33, -1655.84 31.5, -1633.25 31.67, -1610.9 31.83, -1588.8 32.0, -1566.94 32.17, -1545.32 32.33, -1523.94 32.5, -1502.8 32.67, -1481.88 32.83, -1461.2 33.0, -1440.75 33.17, -1420.52 33.33, -1400.52 33.5, -1380.74 33.67, -1361.18 33.83, -1341.83 34.0, -1322.7 34.17, -1303.79 34.33, -1285.08 34.5, -1266.59 34.67, -1248.3 34.83, -1230.21 35.0, -1212.33 35.17, -1194.65 35.33, -1177.17 35.5, -1159.88 35.67, -1142.79 35.83, -1125.9 36.0, -1109.19 36.17, -1092.67 36.33, -1076.34 36.5, -1060.2 36.67, -1044.24 36.83, -1028.46 37.0, -1012.86 37.17, -997.43 37.33, -982.19 37.5, -967.11 37.67, -952.21 37.83, -937.49 38.0, -922.93 38.17, -908.53 38.33, -894.31 38.5, -880.24 38.67, -866.34 38.83, -852.6 39.0, -839.02 39.17, -825.6 39.33, -812.33 39.5, -799.21 39.67, -786.25 39.83, -773.44 40.0, -760.78 40.17, -748.27 40.33, -735.9 40.5, -723.68 40.67, -711.6 40.83, -699.66 41.0, -687.87 41.17, -676.21 41.33, -664.69 41.5, -653.3 41.67, -642.05 41.83, -630.94 42.0, -619.95 42.17, -609.1 42.33, -598.37 42.5, -587.78 42.67, -577.31 42.83, -566.96 43.0, -556.74 43.17, -546.64 43.33, -536.66 43.5, -526.8 43.67, -517.06 43.83, -507.44 44.0, -497.93 44.17, -488.54 44.33, -479.26 44.5, -470.09 44.67, -461.04 44.83, -452.1 45.0, -443.26 45.17, -434.53 45.33, -425.91 45.5, -417.4 45.67, -408.98 45.83, -400.68 46.0, -392.47 46.17, -384.36 46.33, -376.36 46.5, -368.45 46.67, -360.64 46.83, -352.93 47.0, -345.32 47.17, -337.79 47.33, -330.36 47.5, -323.03 47.67, -315.78 47.83, -308.63 48.0, -301.57 48.17, -294.59 48.33, -287.7 48.5, -280.9 48.67, -274.19 48.83, -267.56 49.0, -261.01 49.17, -254.55 49.33, -248.16 49.5, -241.86 49.67, -235.64 49.83, -229.5 50.0, -223.44 50.17, -217.45 50.33, -211.54 50.5, -205.71 50.67, -199.95 50.83, -194.27 51.0, -188.66 51.17, -183.12 51.33, -177.65 51.5, -172.26 51.67, -166.93 51.83, -161.68 52.0, -156.49 52.17, -151.37 52.33, -146.32 52.5, -141.33 52.67, -136.41 52.83, -131.56 53.0, -126.76 53.17, -122.03 53.33, -117.37 53.5, -112.76 53.67, -108.22 53.83, -103.74 54.0, -99.32 54.17, -94.95 54.33, -90.65 54.5, -86.4 54.67, -82.21 54.83, -78.07 55.0, -74.0 55.17, -69.97 55.33, -66.0 55.5, -62.09 55.67, -58.23 55.83, -54.42 56.0, -50.66 56.17, -46.96 56.33, -43.3 56.5, -39.7 56.67, -36.14 56.83, -32.64 57.0, -29.18 57.17, -25.77 57.33, -22.41 57.5, -19.09 57.67, -15.82 57.83, -12.6 58.0, -9.42 58.17, -6.28 58.33, -3.19 58.5, -0.15 58.67, 2.86 58.83, 5.82 59.0, 8.74 59.17, 11.61 59.33, 14.45 59.5, 17.24 59.67, 20.0 59.83, 22.72 60.0, 25.39 60.17, 28.03 60.33, 30.63 60.5, 33.2 60.67, 35.72 60.83, 38.21 61.0, 40.66 61.17, 43.08 61.33, 45.46 61.5, 47.81 61.67, 50.12 61.83, 52.4 62.0, 54.64 62.17, 56.85 62.33, 59.03 62.5, 61.17 62.67, 63.29 62.83, 65.37 63.0, 67.42 63.17, 69.44 63.33, 71.43 63.5, 73.38 63.67, 75.31 63.83, 77.21 64.0, 79.08 64.17, 80.92 64.33, 82.74 64.5, 84.52 64.67, 86.28 64.83, 88.01 65.0, 89.72 65.17, 91.39 65.33, 93.04 65.5, 94.67 65.67, 96.27 65.83, 97.84 66.0, 99.39 66.17, 100.92 66.33, 102.42 66.5, 103.9 66.67, 105.35 66.83, 106.78 67.0, 108.19 67.17, 109.57 67.33, 110.93 67.5, 112.27 67.67, 113.59 67.83, 114.88 68.0, 116.16 68.17, 117.41 68.33, 118.65 68.5, 119.86 68.67, 121.05 68.83, 122.23 69.0, 123.38 69.17, 124.51 69.33, 125.63 69.5, 126.72 69.67, 127.8 69.83, 128.86 70.0, 129.9 70.17, 130.92 70.33, 131.93 70.5, 132.92 70.67, 133.89 70.83, 134.84 71.0, 135.78 71.17, 136.7 71.33, 137.61 71.5, 138.49 71.67, 139.37 71.83, 140.22 72.0, 141.07 72.17, 141.89 72.33, 142.71 72.5, 143.5 72.67, 144.29 72.83, 145.06 73.0, 145.81 73.17, 146.55 73.33, 147.28 73.5, 147.99 73.67, 148.69 73.83, 149.38 74.0, 150.06 74.17, 150.72 74.33, 151.37 74.5, 152.0 74.67, 152.63 74.83, 153.24 75.0, 153.84 75.17, 154.43 75.33, 155.01 75.5, 155.58 75.67, 156.13 75.83, 156.68 76.0, 157.21 76.17, 157.73 76.33, 158.25 76.5, 158.75 76.67, 159.24 76.83, 159.72 77.0, 160.2 77.17, 160.66 77.33, 161.11 77.5, 161.56 77.67, 161.99 77.83, 162.42 78.0, 162.83 78.17, 163.24 78.33, 163.64 78.5, 164.03 78.67, 164.41 78.83, 164.79 79.0, 165.15 79.17, 165.51 79.33, 165.86 79.5, 166.2 79.67, 166.54 79.83, 166.86 80.0, 167.18 80.17, 167.5 80.33, 167.8 80.5, 168.1 80.67, 168.39 80.83, 168.68 81.0, 168.96 81.17, 169.23 81.33, 169.49 81.5, 169.75 81.67, 170.0 81.83, 170.25 82.0, 170.49 82.17, 170.73 82.33, 170.95 82.5, 171.18 82.67, 171.4 82.83, 171.61 83.0, 171.81 83.17, 172.02 83.33, 172.21 83.5, 172.4 83.67, 172.59 83.83, 172.77 84.0, 172.95 84.17, 173.12 84.33, 173.29 84.5, 173.45 84.67, 173.61 84.83, 173.76 85.0, 173.91 85.17, 174.06 85.33, 174.2 85.5, 174.34 85.67, 174.47 85.83, 174.6 86.0, 174.73 86.17, 174.85 86.33, 174.97 86.5, 175.08 86.67, 175.2 86.83, 175.3 87.0, 175.41 87.17, 175.51 87.33, 175.61 87.5, 175.71 87.67, 175.8 87.83, 175.89 88.0, 175.97 88.17, 176.06 88.33, 176.14 88.5, 176.22 88.67, 176.29 88.83, 176.37 89.0, 176.44 89.17, 176.5 89.33, 176.57 89.5, 176.63 89.67, 176.7 89.83, 176.75 90.0, 176.81 90.17, 176.87 90.33, 176.92 90.5, 176.97 90.67, 177.02 90.83, 177.07 91.0, 177.11 91.17, 177.16 91.33, 177.2 91.5, 177.24 91.67, 177.28 91.83, 177.31 92.0, 177.35 92.17, 177.38 92.33, 177.42 92.5, 177.45 92.67, 177.48 92.83, 177.51 93.0, 177.53 93.17, 177.56 93.33, 177.59 93.5, 177.61 93.67, 177.63 93.83, 177.66 94.0, 177.68 94.17, 177.7 94.33, 177.72 94.5, 177.74 94.67, 177.75 94.83, 177.77 95.0, 177.79 95.17, 177.8 95.33, 177.82 95.5, 177.83 95.67, 177.85 95.83, 177.86 96.0, 177.87 96.17, 177.88 96.33, 177.9 96.5, 177.91 96.67, 177.92 96.83, 177.93 97.0, 177.94 97.17, 177.95 97.33, 177.96 97.5, 177.97 97.67, 177.98 97.83, 177.99 98.0, 178.0 98.17, 178.01 98.33, 178.02 98.5, 178.03 98.67, 178.04 98.83, 178.04 99.0, 178.05 99.17, 178.06 99.33, 178.07 99.5, 178.08 99.67, 178.09 99.83, 178.1 100.0, 178.11 100.17, 178.12 100.33, 178.13 100.5, 178.14 100.67, 178.15 100.83, 178.17 101.0, 178.18 101.17, 178.19 101.33, 178.2 101.5, 178.21 101.67, 178.23 101.83, 178.24 102.0, 178.26 102.17, 178.27 102.33, 178.28 102.5, 178.3 102.67, 178.32 102.83, 178.33 103.0, 178.35 103.17, 178.37 103.33, 178.39 103.5, 178.4 103.67, 178.42 103.83, 178.44 104.0, 178.46 104.17, 178.49 104.33, 178.51 104.5, 178.53 104.67, 178.55 104.83, 178.58 105.0, 178.6 105.17, 178.63 105.33, 178.66 105.5, 178.68 105.67, 178.71 105.83, 178.74 106.0, 178.77 106.17, 178.8 106.33, 178.83 106.5, 178.86 106.67, 178.9 106.83, 178.93 107.0, 178.96 107.17, 179.0 107.33, 179.03 107.5, 179.07 107.67, 179.11 107.83, 179.15 108.0, 179.19 108.17, 179.23 108.33, 179.27 108.5, 179.31 108.67, 179.36 108.83, 179.4 109.0, 179.45 109.17, 179.49 109.33, 179.54 109.5, 179.59 109.67, 179.64 109.83, 179.69 110.0, 179.74 110.17, 179.79 110.33, 179.85 110.5, 179.9 110.67, 179.96 110.83, 180.01 111.0, 180.07 111.17, 180.13 111.33, 180.19 111.5, 180.25 111.67, 180.31 111.83, 180.37 112.0, 180.44 112.17, 180.5 112.33, 180.57 112.5, 180.63 112.67, 180.7 112.83, 180.77 113.0, 180.84 113.17, 180.91 113.33, 180.98 113.5, 181.06 113.67, 181.13 113.83, 181.2 114.0, 181.28 114.17, 181.36 114.33, 181.44 114.5, 181.52 114.67, 181.6 114.83, 181.68 115.0, 181.76 115.17, 181.84 115.33, 181.93 115.5, 182.01 115.67, 182.1 115.83, 182.19 116.0, 182.28 116.17, 182.37 116.33, 182.46 116.5, 182.55 116.67, 182.64 116.83, 182.73 117.0, 182.83 117.17, 182.92 117.33, 183.02 117.5, 183.12 117.67, 183.22 117.83, 183.32 118.0, 183.42 118.17, 183.52 118.33, 183.62 118.5, 183.73 118.67, 183.83 118.83, 183.94 119.0, 184.05 119.17, 184.15 119.33, 184.26 119.5, 184.37 119.67, 184.48 119.83, 184.59 120.0, 184.71 120.17, 184.82 120.33, 184.94 120.5, 185.05 120.67, 185.17 120.83, 185.28 121.0, 185.4 121.17, 185.52 121.33, 185.64 121.5, 185.76 121.67, 185.88 121.83, 186.01 122.0, 186.13 122.17, 186.26 122.33, 186.38 122.5, 186.51 122.67, 186.63 122.83, 186.76 123.0, 186.89 123.17, 187.02 123.33, 187.15 123.5, 187.28 123.67, 187.41 123.83, 187.55 124.0, 187.68 124.17, 187.82 124.33, 187.95 124.5, 188.09 124.67, 188.22 124.83, 188.36 125.0, 188.5 125.17, 188.64 125.33, 188.78 125.5, 188.92 125.67, 189.06 125.83, 189.2 126.0, 189.35 126.17, 189.49 126.33, 189.63 126.5, 189.78 126.67, 189.92 126.83, 190.07 127.0, 190.22 127.17, 190.36 127.33, 190.51 127.5, 190.66 127.67, 190.81 127.83, 190.96 128.0, 191.11 128.17, 191.26 128.33, 191.41 128.5, 191.56 128.67, 191.72 128.83, 191.87 129.0, 192.02 129.17, 192.18 129.33, 192.33 129.5, 192.49 129.67, 192.64 129.83, 192.8 130.0, 192.96 130.17, 193.11 130.33, 193.27 130.5, 193.43 130.67, 193.59 130.83, 193.75 131.0, 193.91 131.17, 194.07 131.33, 194.23 131.5, 194.39 131.67, 194.55 131.83, 194.71 132.0, 194.87 132.17, 195.03 132.33, 195.19 132.5, 195.36 132.67, 195.52 132.83, 195.68 133.0, 195.85 133.17, 196.01 133.33, 196.17 133.5, 196.34 133.67, 196.5 133.83, 196.67 134.0, 196.83 134.17, 197.0 134.33, 197.16 134.5, 197.33 134.67, 197.49 134.83, 197.66 135.0, 197.83 135.17, 197.99 135.33, 198.16 135.5, 198.32 135.67, 198.49 135.83, 198.66 136.0, 198.82 136.17, 198.99 136.33, 199.16 136.5, 199.32 136.67, 199.49 136.83, 199.66 137.0, 199.82 137.17, 199.99 137.33, 200.16 137.5, 200.33 137.67, 200.49 137.83, 200.66 138.0, 200.83 138.17, 200.99 138.33, 201.16 138.5, 201.33 138.67, 201.49 138.83, 201.66 139.0, 201.82 139.17, 201.99 139.33, 202.16 139.5, 202.32 139.67, 202.49 139.83, 202.65 140.0, 202.82 140.17, 202.98 140.33, 203.15 140.5, 203.31 140.67, 203.48 140.83, 203.64 141.0, 203.81 141.17, 203.97 141.33, 204.13 141.5, 204.3 141.67, 204.46 141.83, 204.62 142.0, 204.78 142.17, 204.94 142.33, 205.11 142.5, 205.27 142.67, 205.43 142.83, 205.59 143.0, 205.75 143.17, 205.91 143.33, 206.07 143.5, 206.22 143.67, 206.38 143.83, 206.54 144.0, 206.7 144.17, 206.86 144.33, 207.01 144.5, 207.17 144.67, 207.32 144.83, 207.48 145.0, 207.63 145.17, 207.79 145.33, 207.94 145.5, 208.09 145.67, 208.24 145.83, 208.4 146.0, 208.55 146.17, 208.7 146.33, 208.85 146.5, 209.0 146.67, 209.14 146.83, 209.29 147.0, 209.44 147.17, 209.59 147.33, 209.73 147.5, 209.88 147.67, 210.02 147.83, 210.17 148.0, 210.31 148.17, 210.45 148.33, 210.59 148.5, 210.73 148.67, 210.87 148.83, 211.01 149.0, 211.15 149.17, 211.29 149.33, 211.43 149.5, 211.56 149.67, 211.7 149.83, 211.84 150.0, 211.97 150.17, 212.1 150.33, 212.23 150.5, 212.37 150.67, 212.5 150.83, 212.63 151.0, 212.76 151.17, 212.88 151.33, 213.01 151.5, 213.14 151.67, 213.26 151.83, 213.39 152.0, 213.51 152.17, 213.63 152.33, 213.75 152.5, 213.87 152.67, 213.99 152.83, 214.11 153.0, 214.23 153.17, 214.35 153.33, 214.46 153.5, 214.58 153.67, 214.69 153.83, 214.8 154.0, 214.91 154.17, 215.02 154.33, 215.13 154.5, 215.24 154.67, 215.35 154.83, 215.46 155.0, 215.56 155.17, 215.67 155.33, 215.77 155.5, 215.87 155.67, 215.97 155.83, 216.07 156.0, 216.17 156.17, 216.27 156.33, 216.36 156.5, 216.46 156.67, 216.55 156.83, 216.65 157.0, 216.74 157.17, 216.83 157.33, 216.92 157.5, 217.01 157.67, 217.09 157.83, 217.18 158.0, 217.26 158.17, 217.35 158.33, 217.43 158.5, 217.51 158.67, 217.59 158.83, 217.67 159.0, 217.75 159.17, 217.82 159.33, 217.9 159.5, 217.97 159.67, 218.04 159.83, 218.12 160.0, 218.19 160.17, 218.25 160.33, 218.32 160.5, 218.39 160.67, 218.45 160.83, 218.52 161.0, 218.58 161.17, 218.64 161.33, 218.7 161.5, 218.76 161.67, 218.82 161.83, 218.87 162.0, 218.93 162.17, 218.98 162.33, 219.03 162.5, 219.08 162.67, 219.13 162.83, 219.18 163.0, 219.23 163.17, 219.27 163.33, 219.31 163.5, 219.36 163.67, 219.4 163.83, 219.44 164.0, 219.48 164.17, 219.51 164.33, 219.55 164.5, 219.58 164.67, 219.62 164.83, 219.65 165.0, 219.68 165.17, 219.71 165.33, 219.74 165.5, 219.76 165.67, 219.79 165.83, 219.81 166.0, 219.83 166.17, 219.85 166.33, 219.87 166.5, 219.89 166.67, 219.91 166.83, 219.92 167.0, 219.94 167.17, 219.95 167.33, 219.96 167.5, 219.97 167.67, 219.98 167.83, 219.99 168.0, 219.99 168.17, 220.0 168.33, 220.0 168.5, 220.0 168.67, 220.0 168.83, 220.0 169.0, 220.0 169.17, 219.99 169.33, 219.99 169.5, 219.98 169.67, 219.97 169.83, 219.96 170.0, 219.95 170.17, 219.94 170.33, 219.92 170.5, 219.91 170.67, 219.89 170.83, 219.87 171.0, 219.85 171.17, 219.83 171.33, 219.81 171.5, 219.79 171.67, 219.76 171.83, 219.74 172.0, 219.71 172.17, 219.68 172.33, 219.65 172.5, 219.62 172.67, 219.58 172.83, 219.55 173.0, 219.51 173.17, 219.48 173.33, 219.44 173.5, 219.4 173.67, 219.36 173.83, 219.32 174.0, 219.27 174.17, 219.23 174.33, 219.18 174.5, 219.13 174.67, 219.08 174.83, 219.03 175.0, 218.98 175.17, 218.93 175.33, 218.87 175.5, 218.82 175.67, 218.76 175.83, 218.7 176.0, 218.64 176.17, 218.58 176.33, 218.52 176.5, 218.45 176.67, 218.39 176.83, 218.32 177.0, 218.26 177.17, 218.19 177.33, 218.12 177.5, 218.05 177.67, 217.97 177.83, 217.9 178.0, 217.82 178.17, 217.75 178.33, 217.67 178.5, 217.59 178.67, 217.51 178.83, 217.43 179.0, 217.35 179.17, 217.26 179.33, 217.18 179.5, 217.09 179.67, 217.01 179.83, 216.92 180.0, 216.83 180.17, 216.74 180.33, 216.65 180.5, 216.55 180.67, 216.46 180.83, 216.36 181.0, 216.27 181.17, 216.17 181.33, 216.07 181.5, 215.97 181.67, 215.87 181.83, 215.77 182.0, 215.67 182.17, 215.56 182.33, 215.46 182.5, 215.35 182.67, 215.24 182.83, 215.14 183.0, 215.03 183.17, 214.92 183.33, 214.8 183.5, 214.69 183.67, 214.58 183.83, 214.46 184.0, 214.35 184.17, 214.23 184.33, 214.11 184.5, 213.99 184.67, 213.87 184.83, 213.75 185.0, 213.63 185.17, 213.51 185.33, 213.39 185.5, 213.26 185.67, 213.14 185.83, 213.01 186.0, 212.88 186.17, 212.76 186.33, 212.63 186.5, 212.5 186.67, 212.37 186.83, 212.24 187.0, 212.1 187.17, 211.97 187.33, 211.84 187.5, 211.7 187.67, 211.57 187.83, 211.43 188.0, 211.29 188.17, 211.15 188.33, 211.02 188.5, 210.88 188.67, 210.74 188.83, 210.6 189.0, 210.45 189.17, 210.31 189.33, 210.17 189.5, 210.02 189.67, 209.88 189.83, 209.73 190.0, 209.59 190.17, 209.44 190.33, 209.29 190.5, 209.15 190.67, 209.0 190.83, 208.85 191.0, 208.7 191.17, 208.55 191.33, 208.4 191.5, 208.25 191.67, 208.09 191.83, 207.94 192.0, 207.79 192.17, 207.63 192.33, 207.48 192.5, 207.33 192.67, 207.17 192.83, 207.01 193.0, 206.86 193.17, 206.7 193.33, 206.54 193.5, 206.39 193.67, 206.23 193.83, 206.07 194.0, 205.91 194.17, 205.75 194.33, 205.59 194.5, 205.43 194.67, 205.27 194.83, 205.11 195.0, 204.95 195.17, 204.79 195.33, 204.62 195.5, 204.46 195.67, 204.3 195.83, 204.14 196.0, 203.97 196.17, 203.81 196.33, 203.65 196.5, 203.48 196.67, 203.32 196.83, 203.15 197.0, 202.99 197.17, 202.82 197.33, 202.66 197.5, 202.49 197.67, 202.33 197.83, 202.16 198.0, 202.0 198.17, 201.83 198.33, 201.66 198.5, 201.5 198.67, 201.33 198.83, 201.17 199.0, 201.0 199.17, 200.83 199.33, 200.67 199.5, 200.5 199.67, 200.33 199.83, 200.17 200.0, 200.0 200.17, 199.83 200.33, 199.67 200.5, 199.5 200.67, 199.33 200.83, 199.17 201.0, 199.0 201.17, 198.83 201.33, 198.67 201.5, 198.5 201.67, 198.34 201.83, 198.17 202.0, 198.0 202.17, 197.84 202.33, 197.67 202.5, 197.51 202.67, 197.34 202.83, 197.18 203.0, 197.01 203.17, 196.85 203.33, 196.68 203.5, 196.52 203.67, 196.35 203.83, 196.19 204.0, 196.03 204.17, 195.86 204.33, 195.7 204.5, 195.54 204.67, 195.38 204.83, 195.21 205.0, 195.05 205.17, 194.89 205.33, 194.73 205.5, 194.57 205.67, 194.41 205.83, 194.25 206.0, 194.09 206.17, 193.93 206.33, 193.77 206.5, 193.61 206.67, 193.46 206.83, 193.3 207.0, 193.14 207.17, 192.99 207.33, 192.83 207.5, 192.67 207.67, 192.52 207.83, 192.37 208.0, 192.21 208.17, 192.06 208.33, 191.91 208.5, 191.75 208.67, 191.6 208.83, 191.45 209.0, 191.3 209.17, 191.15 209.33, 191.0 209.5, 190.85 209.67, 190.71 209.83, 190.56 210.0, 190.41 210.17, 190.27 210.33, 190.12 210.5, 189.98 210.67, 189.83 210.83, 189.69 211.0, 189.55 211.17, 189.4 211.33, 189.26 211.5, 189.12 211.67, 188.98 211.83, 188.85 212.0, 188.71 212.17, 188.57 212.33, 188.43 212.5, 188.3 212.67, 188.16 212.83, 188.03 213.0, 187.9 213.17, 187.76 213.33, 187.63 213.5, 187.5 213.67, 187.37 213.83, 187.24 214.0, 187.12 214.17, 186.99 214.33, 186.86 214.5, 186.74 214.67, 186.61 214.83, 186.49 215.0, 186.37 215.17, 186.25 215.33, 186.13 215.5, 186.01 215.67, 185.89 215.83, 185.77 216.0, 185.65 216.17, 185.54 216.33, 185.42 216.5, 185.31 216.67, 185.2 216.83, 185.08 217.0, 184.97 217.17, 184.86 217.33, 184.76 217.5, 184.65 217.67, 184.54 217.83, 184.44 218.0, 184.33 218.17, 184.23 218.33, 184.13 218.5, 184.03 218.67, 183.93 218.83, 183.83 219.0, 183.73 219.17, 183.64 219.33, 183.54 219.5, 183.45 219.67, 183.35 219.83, 183.26 220.0, 183.17 220.17, 183.08 220.33, 182.99 220.5, 182.91 220.67, 182.82 220.83, 182.74 221.0, 182.65 221.17, 182.57 221.33, 182.49 221.5, 182.41 221.67, 182.33 221.83, 182.25 222.0, 182.18 222.17, 182.1 222.33, 182.03 222.5, 181.95 222.67, 181.88 222.83, 181.81 223.0, 181.74 223.17, 181.68 223.33, 181.61 223.5, 181.55 223.67, 181.48 223.83, 181.42 224.0, 181.36 224.17, 181.3 224.33, 181.24 224.5, 181.18 224.67, 181.13 224.83, 181.07 225.0, 181.02 225.17, 180.97 225.33, 180.92 225.5, 180.87 225.67, 180.82 225.83, 180.77 226.0, 180.73 226.17, 180.68 226.33, 180.64 226.5, 180.6 226.67, 180.56 226.83, 180.52 227.0, 180.49 227.17, 180.45 227.33, 180.42 227.5, 180.38 227.67, 180.35 227.83, 180.32 228.0, 180.29 228.17, 180.26 228.33, 180.24 228.5, 180.21 228.67, 180.19 228.83, 180.17 229.0, 180.15 229.17, 180.13 229.33, 180.11 229.5, 180.09 229.67, 180.08 229.83, 180.06 230.0, 180.05 230.17, 180.04 230.33, 180.03 230.5, 180.02 230.67, 180.01 230.83, 180.01 231.0, 180.0 231.17, 180.0 231.33, 180.0 231.5, 180.0 231.67, 180.0 231.83, 180.0 232.0, 180.01 232.17, 180.01 232.33, 180.02 232.5, 180.03 232.67, 180.04 232.83, 180.05 233.0, 180.06 233.17, 180.08 233.33, 180.09 233.5, 180.11 233.67, 180.13 233.83, 180.15 234.0, 180.17 234.17, 180.19 234.33, 180.21 234.5, 180.24 234.67, 180.26 234.83, 180.29 235.0, 180.32 235.17, 180.35 235.33, 180.38 235.5, 180.42 235.67, 180.45 235.83, 180.49 236.0, 180.52 236.17, 180.56 236.33, 180.6 236.5, 180.64 236.67, 180.69 236.83, 180.73 237.0, 180.77 237.17, 180.82 237.33, 180.87 237.5, 180.92 237.67, 180.97 237.83, 181.02 238.0, 181.07 238.17, 181.13 238.33, 181.18 238.5, 181.24 238.67, 181.3 238.83, 181.36 239.0, 181.42 239.17, 181.48 239.33, 181.55 239.5, 181.61 239.67, 181.68 239.83, 181.75 240.0, 181.81 240.17, 181.88 240.33, 181.96 240.5, 182.03 240.67, 182.1 240.83, 182.18 241.0, 182.25 241.17, 182.33 241.33, 182.41 241.5, 182.49 241.67, 182.57 241.83, 182.65 242.0, 182.74 242.17, 182.82 242.33, 182.91 242.5, 182.99 242.67, 183.08 242.83, 183.17 243.0, 183.26 243.17, 183.35 243.33, 183.45 243.5, 183.54 243.67, 183.64 243.83, 183.73 244.0, 183.83 244.17, 183.93 244.33, 184.03 244.5, 184.13 244.67, 184.23 244.83, 184.33 245.0, 184.44 245.17, 184.54 245.33, 184.65 245.5, 184.76 245.67, 184.87 245.83, 184.98 246.0, 185.09 246.17, 185.2 246.33, 185.31 246.5, 185.42 246.67, 185.54 246.83, 185.65 247.0, 185.77 247.17, 185.89 247.33, 186.01 247.5, 186.13 247.67, 186.25 247.83, 186.37 248.0, 186.49 248.17, 186.61 248.33, 186.74 248.5, 186.86 248.67, 186.99 248.83, 187.12 249.0, 187.24 249.17, 187.37 249.33, 187.5 249.5, 187.63 249.67, 187.77 249.83, 187.9 250.0, 188.03 250.17, 188.16 250.33, 188.3 250.5, 188.44 250.67, 188.57 250.83, 188.71 251.0, 188.85 251.17, 188.99 251.33, 189.13 251.5, 189.27 251.67, 189.41 251.83, 189.55 252.0, 189.69 252.17, 189.83 252.33, 189.98 252.5, 190.12 252.67, 190.27 252.83, 190.41 253.0, 190.56 253.17, 190.71 253.33, 190.86 253.5, 191.0 253.67, 191.15 253.83, 191.3 254.0, 191.45 254.17, 191.6 254.33, 191.76 254.5, 191.91 254.67, 192.06 254.83, 192.21 255.0, 192.37 255.17, 192.52 255.33, 192.68 255.5, 192.83 255.67, 192.99 255.83, 193.14 256.0, 193.3 256.17, 193.46 256.33, 193.62 256.5, 193.78 256.67, 193.93 256.83, 194.09 257.0, 194.25 257.17, 194.41 257.33, 194.57 257.5, 194.73 257.67, 194.89 257.83, 195.06 258.0, 195.22 258.17, 195.38 258.33, 195.54 258.5, 195.7 258.67, 195.87 258.83, 196.03 259.0, 196.19 259.17, 196.36 259.33, 196.52 259.5, 196.69 259.67, 196.85 259.83, 197.02 260.0, 197.18 260.17, 197.35 260.33, 197.51 260.5, 197.68 260.67, 197.84 260.83, 198.01 261.0, 198.18 261.17, 198.34 261.33, 198.51 261.5, 198.67 261.67, 198.84 261.83, 199.01 262.0, 199.17 262.17, 199.34 262.33, 199.51 262.5, 199.67 262.67, 199.84 262.83, 200.01 263.0, 200.18 263.17, 200.34 263.33, 200.51 263.5, 200.68 263.67, 200.84 263.83, 201.01 264.0, 201.18 264.17, 201.34 264.33, 201.51 264.5, 201.68 264.67, 201.84 264.83, 202.01 265.0, 202.17 265.17, 202.34 265.33, 202.51 265.5, 202.67 265.67, 202.84 265.83, 203.0 266.0, 203.17 266.17, 203.33 266.33, 203.5 266.5, 203.66 266.67, 203.83 266.83, 203.99 267.0, 204.15 267.17, 204.32 267.33, 204.48 267.5, 204.64 267.67, 204.81 267.83, 204.97 268.0, 205.13 268.17, 205.29 268.33, 205.45 268.5, 205.61 268.67, 205.77 268.83, 205.93 269.0, 206.09 269.17, 206.25 269.33, 206.41 269.5, 206.57 269.67, 206.73 269.83, 206.89 270.0, 207.04 270.17, 207.2 270.33, 207.36 270.5, 207.51 270.67, 207.67 270.83, 207.82 271.0, 207.98 271.17, 208.13 271.33, 208.28 271.5, 208.44 271.67, 208.59 271.83, 208.74 272.0, 208.89 272.17, 209.04 272.33, 209.19 272.5, 209.34 272.67, 209.49 272.83, 209.64 273.0, 209.78 273.17, 209.93 273.33, 210.08 273.5, 210.22 273.67, 210.37 273.83, 210.51 274.0, 210.65 274.17, 210.8 274.33, 210.94 274.5, 211.08 274.67, 211.22 274.83, 211.36 275.0, 211.5 275.17, 211.64 275.33, 211.78 275.5, 211.91 275.67, 212.05 275.83, 212.18 276.0, 212.32 276.17, 212.45 276.33, 212.59 276.5, 212.72 276.67, 212.85 276.83, 212.98 277.0, 213.11 277.17, 213.24 277.33, 213.37 277.5, 213.49 277.67, 213.62 277.83, 213.74 278.0, 213.87 278.17, 213.99 278.33, 214.12 278.5, 214.24 278.67, 214.36 278.83, 214.48 279.0, 214.6 279.17, 214.72 279.33, 214.83 279.5, 214.95 279.67, 215.06 279.83, 215.18 280.0, 215.29 280.17, 215.41 280.33, 215.52 280.5, 215.63 280.67, 215.74 280.83, 215.85 281.0, 215.95 281.17, 216.06 281.33, 216.17 281.5, 216.27 281.67, 216.38 281.83, 216.48 282.0, 216.58 282.17, 216.68 282.33, 216.78 282.5, 216.88 282.67, 216.98 282.83, 217.08 283.0, 217.17 283.17, 217.27 283.33, 217.36 283.5, 217.45 283.67, 217.54 283.83, 217.63 284.0, 217.72 284.17, 217.81 284.33, 217.9 284.5, 217.99 284.67, 218.07 284.83, 218.16 285.0, 218.24 285.17, 218.32 285.33, 218.4 285.5, 218.48 285.67, 218.56 285.83, 218.64 286.0, 218.72 286.17, 218.8 286.33, 218.87 286.5, 218.94 286.67, 219.02 286.83, 219.09 287.0, 219.16 287.17, 219.23 287.33, 219.3 287.5, 219.37 287.67, 219.43 287.83, 219.5 288.0, 219.56 288.17, 219.63 288.33, 219.69 288.5, 219.75 288.67, 219.81 288.83, 219.87 289.0, 219.93 289.17, 219.99 289.33, 220.04 289.5, 220.1 289.67, 220.15 289.83, 220.21 290.0, 220.26 290.17, 220.31 290.33, 220.36 290.5, 220.41 290.67, 220.46 290.83, 220.51 291.0, 220.55 291.17, 220.6 291.33, 220.64 291.5, 220.69 291.67, 220.73 291.83, 220.77 292.0, 220.81 292.17, 220.85 292.33, 220.89 292.5, 220.93 292.67, 220.97 292.83, 221.0 293.0, 221.04 293.17, 221.07 293.33, 221.1 293.5, 221.14 293.67, 221.17 293.83, 221.2 294.0, 221.23 294.17, 221.26 294.33, 221.29 294.5, 221.32 294.67, 221.34 294.83, 221.37 295.0, 221.4 295.17, 221.42 295.33, 221.45 295.5, 221.47 295.67, 221.49 295.83, 221.51 296.0, 221.54 296.17, 221.56 296.33, 221.58 296.5, 221.6 296.67, 221.61 296.83, 221.63 297.0, 221.65 297.17, 221.67 297.33, 221.68 297.5, 221.7 297.67, 221.72 297.83, 221.73 298.0, 221.74 298.17, 221.76 298.33, 221.77 298.5, 221.79 298.67, 221.8 298.83, 221.81 299.0, 221.82 299.17, 221.83 299.33, 221.85 299.5, 221.86 299.67, 221.87 299.83, 221.88 300.0, 221.89 300.17, 221.9 300.33, 221.91 300.5, 221.92 300.67, 221.93 300.83, 221.94 301.0, 221.95 301.17, 221.96 301.33, 221.96 301.5, 221.97 301.67, 221.98 301.83, 221.99 302.0, 222.0 302.17, 222.01 302.33, 222.02 302.5, 222.03 302.67, 222.04 302.83, 222.05 303.0, 222.06 303.17, 222.07 303.33, 222.08 303.5, 222.09 303.67, 222.1 303.83, 222.12 304.0, 222.13 304.17, 222.14 304.33, 222.15 304.5, 222.17 304.67, 222.18 304.83, 222.2 305.0, 222.21 305.17, 222.23 305.33, 222.25 305.5, 222.26 305.67, 222.28 305.83, 222.3 306.0, 222.32 306.17, 222.34 306.33, 222.37 306.5, 222.39 306.67, 222.41 306.83, 222.44 307.0, 222.47 307.17, 222.49 307.33, 222.52 307.5, 222.55 307.67, 222.58 307.83, 222.62 308.0, 222.65 308.17, 222.69 308.33, 222.72 308.5, 222.76 308.67, 222.8 308.83, 222.84 309.0, 222.89 309.17, 222.93 309.33, 222.98 309.5, 223.03 309.67, 223.08 309.83, 223.13 310.0, 223.19 310.17, 223.25 310.33, 223.3 310.5, 223.37 310.67, 223.43 310.83, 223.5 311.0, 223.56 311.17, 223.63 311.33, 223.71 311.5, 223.78 311.67, 223.86 311.83, 223.94 312.0, 224.03 312.17, 224.11 312.33, 224.2 312.5, 224.29 312.67, 224.39 312.83, 224.49 313.0, 224.59 313.17, 224.7 313.33, 224.8 313.5, 224.92 313.67, 225.03 313.83, 225.15 314.0, 225.27 314.17, 225.4 314.33, 225.53 314.5, 225.66 314.67, 225.8 314.83, 225.94 315.0, 226.09 315.17, 226.24 315.33, 226.39 315.5, 226.55 315.67, 226.71 315.83, 226.88 316.0, 227.05 316.17, 227.23 316.33, 227.41 316.5, 227.6 316.67, 227.79 316.83, 227.98 317.0, 228.19 317.17, 228.39 317.33, 228.6 317.5, 228.82 317.67, 229.05 317.83, 229.27 318.0, 229.51 318.17, 229.75 318.33, 230.0 318.5, 230.25 318.67, 230.51 318.83, 230.77 319.0, 231.04 319.17, 231.32 319.33, 231.61 319.5, 231.9 319.67, 232.2 319.83, 232.5 320.0, 232.82 320.17, 233.14 320.33, 233.46 320.5, 233.8 320.67, 234.14 320.83, 234.49 321.0, 234.85 321.17, 235.21 321.33, 235.59 321.5, 235.97 321.67, 236.36 321.83, 236.76 322.0, 237.17 322.17, 237.58 322.33, 238.01 322.5, 238.44 322.67, 238.89 322.83, 239.34 323.0, 239.8 323.17, 240.28 323.33, 240.76 323.5, 241.25 323.67, 241.75 323.83, 242.27 324.0, 242.79 324.17, 243.32 324.33, 243.87 324.5, 244.42 324.67, 244.99 324.83, 245.57 325.0, 246.16 325.17, 246.76 325.33, 247.37 325.5, 248.0 325.67, 248.63 325.83, 249.28 326.0, 249.94 326.17, 250.62 326.33, 251.31 326.5, 252.01 326.67, 252.72 326.83, 253.45 327.0, 254.19 327.17, 254.94 327.33, 255.71 327.5, 256.5 327.67, 257.29 327.83, 258.11 328.0, 258.93 328.17, 259.78 328.33, 260.63 328.5, 261.51 328.67, 262.39 328.83, 263.3 329.0, 264.22 329.17, 265.16 329.33, 266.11 329.5, 267.08 329.67, 268.07 329.83, 269.08 330.0, 270.1 330.17, 271.14 330.33, 272.2 330.5, 273.28 330.67, 274.37 330.83, 275.49 331.0, 276.62 331.17, 277.77 331.33, 278.95 331.5, 280.14 331.67, 281.35 331.83, 282.59 332.0, 283.84 332.17, 285.12 332.33, 286.41 332.5, 287.73 332.67, 289.07 332.83, 290.43 333.0, 291.81 333.17, 293.22 333.33, 294.65 333.5, 296.1 333.67, 297.58 333.83, 299.08 334.0, 300.61 334.17, 302.16 334.33, 303.73 334.5, 305.33 334.67, 306.96 334.83, 308.61 335.0, 310.28 335.17, 311.99 335.33, 313.72 335.5, 315.48 335.67, 317.26 335.83, 319.08 336.0, 320.92 336.17, 322.79 336.33, 324.69 336.5, 326.62 336.67, 328.57 336.83, 330.56 337.0, 332.58 337.17, 334.63 337.33, 336.71 337.5, 338.83 337.67, 340.97 337.83, 343.15 338.0, 345.36 338.17, 347.6 338.33, 349.88 338.5, 352.19 338.67, 354.54 338.83, 356.92 339.0, 359.34 339.17, 361.79 339.33, 364.28 339.5, 366.8 339.67, 369.37 339.83, 371.97 340.0, 374.61 340.17, 377.28 340.33, 380.0 340.5, 382.76 340.67, 385.55 340.83, 388.39 341.0, 391.26 341.17, 394.18 341.33, 397.14 341.5, 400.15 341.67, 403.19 341.83, 406.28 342.0, 409.42 342.17, 412.6 342.33, 415.82 342.5, 419.09 342.67, 422.41 342.83, 425.77 343.0, 429.18 343.17, 432.64 343.33, 436.14 343.5, 439.7 343.67, 443.3 343.83, 446.96 344.0, 450.66 344.17, 454.42 344.33, 458.23 344.5, 462.09 344.67, 466.0 344.83, 469.97 345.0, 474.0 345.17, 478.07 345.33, 482.21 345.5, 486.4 345.67, 490.65 345.83, 494.95 346.0, 499.32 346.17, 503.74 346.33, 508.22 346.5, 512.76 346.67, 517.37 346.83, 522.03 347.0, 526.76 347.17, 531.56 347.33, 536.41 347.5, 541.33 347.67, 546.32 347.83, 551.37 348.0, 556.49 348.17, 561.68 348.33, 566.93 348.5, 572.26 348.67, 577.65 348.83, 583.12 349.0, 588.66 349.17, 594.27 349.33, 599.95 349.5, 605.71 349.67, 611.54 349.83, 617.45 350.0, 623.44 350.17, 629.5 350.33, 635.64 350.5, 641.86 350.67, 648.16 350.83, 654.55 351.0, 661.01 351.17, 667.56 351.33, 674.19 351.5, 680.9 351.67, 687.7 351.83, 694.59 352.0, 701.57 352.17, 708.63 352.33, 715.78 352.5, 723.03 352.67, 730.36 352.83, 737.79 353.0, 745.32 353.17, 752.93 353.33, 760.64 353.5, 768.45 353.67, 776.36 353.83, 784.36 354.0, 792.47 354.17, 800.68 354.33, 808.98 354.5, 817.4 354.67, 825.91 354.83, 834.53 355.0, 843.26 355.17, 852.1 355.33, 861.04 355.5, 870.09 355.67, 879.26 355.83, 888.54 356.0, 897.93 356.17, 907.44 356.33, 917.06 356.5, 926.8 356.67, 936.66 356.83, 946.64 357.0, 956.74 357.17, 966.96 357.33, 977.31 357.5, 987.78 357.67, 998.37 357.83, 1009.1 358.0, 1019.95 358.17, 1030.94 358.33, 1042.05 358.5, 1053.3 358.67, 1064.69 358.83, 1076.21 359.0, 1087.87 359.17, 1099.66 359.33, 1111.6 359.5, 1123.68 359.67, 1135.9 359.83, 1148.27 360.0, 1160.78 360.17, 1173.44 360.33, 1186.25 360.5, 1199.21 360.67, 1212.33 360.83, 1225.6 361.0, 1239.02 361.17, 1252.6 361.33, 1266.34 361.5, 1280.24 361.67, 1294.31 361.83, 1308.53 362.0, 1322.93 362.17, 1337.49 362.33, 1352.21 362.5, 1367.11 362.67, 1382.19 362.83, 1397.43 363.0, 1412.86 363.17, 1428.46 363.33, 1444.24 363.5, 1460.2 363.67, 1476.34 363.83, 1492.67 364.0, 1509.19 364.17, 1525.9 364.33, 1542.79 364.5, 1559.88 364.67, 1577.17 364.83, 1594.65 365.0, 1612.33 365.17, 1630.21 365.33, 1648.3 365.5, 1666.59 365.67, 1685.08 365.83, 1703.79 366.0, 1722.7 366.17, 1741.83 366.33, 1761.18 366.5, 1780.74 366.67, 1800.52 366.83, 1820.52 367.0, 1840.75 367.17, 1861.2 367.33, 1881.88 367.5, 1902.8 367.67, 1923.94 367.83, 1945.32 368.0, 1966.94 368.17, 1988.8 368.33, 2010.9 368.5, 2033.25 368.67, 2055.84 368.83, 2078.68 369.0, 2101.78 369.17, 2125.12 369.33, 2148.73 369.5, 2172.6 369.67, 2196.72 369.83, 2221.12 370.0, 2245.78 370.17, 2270.7 370.33, 2295.91 370.5, 2321.38 370.67, 2347.14 370.83, 2373.17 371.0, 2399.49 371.17, 2426.09 371.33, 2452.99 371.5, 2480.17 371.67, 2507.65 371.83, 2535.43 372.0, 2563.5 372.17, 2591.88 372.33, 2620.56 372.5, 2649.56 372.67, 2678.86 372.83, 2708.48 373.0, 2738.42 373.17, 2768.67 373.33, 2799.26 373.5, 2830.16 373.67, 2861.4 373.83, 2892.97 374.0, 2924.88 374.17, 2957.13 374.33, 2989.71 374.5, 3022.65 374.67, 3055.93 374.83, 3089.57 375.0, 3123.56 375.17, 3157.91 375.33, 3192.63 375.5, 3227.71 375.67, 3263.16 375.83, 3298.98 376.0, 3335.18 376.17, 3371.76 376.33, 3408.72 376.5, 3446.07 376.67, 3483.8 376.83, 3521.94 377.0, 3560.47 377.17, 3599.4 377.33, 3638.74 377.5, 3678.49 377.67, 3718.65 377.83, 3759.22 378.0, 3800.22 378.17, 3841.64 378.33, 3883.49 378.5, 3925.77 378.67, 3968.49 378.83, 4011.65 379.0, 4055.25 379.17, 4099.3 379.33, 4143.81 379.5, 4188.77 379.67, 4234.19 379.83, 4280.08 380.0, 4326.43 380.17, 4373.26 380.33, 4420.57 380.5, 4468.36 380.67, 4516.63 380.83, 4565.4 381.0, 4614.66 381.17, 4664.43 381.33, 4714.69 381.5, 4765.47 381.67, 4816.76 381.83, 4868.57 382.0, 4920.9 382.17, 4973.76 382.33, 5027.15 382.5, 5081.08 382.67, 5135.55 382.83, 5190.56 383.0, 5246.13 383.17, 5302.26 383.33, 5358.94 383.5, 5416.2 383.67, 5474.02 383.83, 5532.43 384.0, 5591.41 384.17, 5650.98 384.33, 5711.15 384.5, 5771.91 384.67, 5833.27 384.83, 5895.25 385.0, 5957.83 385.17, 6021.04 385.33, 6084.87 385.5, 6149.33 385.67, 6214.42 385.83, 6280.16 386.0, 6346.54 386.17, 6413.58 386.33, 6481.27 386.5, 6549.63 386.67, 6618.65 386.83, 6688.36 387.0, 6758.74 387.17, 6829.81 387.33, 6901.58 387.5, 6974.04 387.67, 7047.21 387.83, 7121.09 388.0, 7195.69 388.17, 7271.01 388.33, 7347.06 388.5, 7423.85 388.67, 7501.39 388.83, 7579.67 389.0, 7658.71 389.17, 7738.5 389.33, 7819.07 389.5, 7900.42 389.67, 7982.54 389.83, 8065.46 390.0, 8149.17 390.17, 8233.68 390.33, 8319.0 390.5, 8405.14 390.67, 8492.1 390.83, 8579.89 391.0, 8668.52 391.17, 8757.99 391.33, 8848.31 391.5, 8939.49 391.67, 9031.54 391.83, 9124.46 392.0, 9218.26 392.17, 9312.95 392.33, 9408.53 392.5, 9505.02 392.67, 9602.42 392.83, 9700.73 393.0, 9799.98 393.17, 9900.15 393.33, 10001.27 393.5, 10103.33 393.67, 10206.36 393.83, 10310.35 394.0, 10415.31 394.17, 10521.25 394.33, 10628.19 394.5, 10736.12 394.67, 10845.05 394.83, 10955.01 395.0, 11065.98 395.17, 11177.99 395.33, 11291.03 395.5, 11405.13 395.67, 11520.28 395.83, 11636.5 396.0, 11753.79 396.17, 11872.17 396.33, 11991.64 396.5, 12112.2 396.67, 12233.88 396.83, 12356.68 397.0, 12480.61 397.17, 12605.68 397.33, 12731.89 397.5, 12859.26 397.67, 12987.8 397.83, 13117.51 398.0, 13248.41 398.17, 13380.5 398.33, 13513.79 398.5, 13648.3 398.67, 13784.03 398.83, 13921.0 399.0, 14059.21 399.17, 14198.68 399.33, 14339.41 399.5, 14481.41 399.67, 14624.7 399.83, 14769.28 400.0, 14915.17 " fill="none" stroke="white" stroke-width="1.5" stroke-linejoin="round" stroke-opacity="1"/>

 </svg>