<svg version="1.1" 
 baseProfile="full" 
 width="400" 
 height="400" 
 xmlns="http://www.w3.org/2000/svg">
<rect x="0.0" y="0.0" width="400" height="400" fill="black" stroke="black" stroke-width="0" opacity="1"/>
<line x1="0.0" y1="0.0" x2="0.0" y2="400.0" stroke="white" stroke-width="1" opacity="0.4" stroke-linecap="butt"/>
<line x1="40.0" y1="0.0" x2="40.0" y2="400.0" stroke="white" stroke-width="1" opacity="0.4" stroke-linecap="butt"/>
<line x1="80.0" y1="0.0" x2="80.0" y2="400.0" stroke="white" stroke-width="1" opacity="0.4" stroke-linecap="butt"/>
<line x1="120.0" y1="0.0" x2="120.0" y2="400.0" stroke="white" stroke-width="1" opacity="0.4" stroke-linecap="butt"/>
<line x1="160.0" y1="0.0" x2="160.0" y2="400.0" stroke="white" stroke-width="1" opacity="0.4" stroke-linecap="butt"/>
<line x1="200.0" y1="0.0" x2="200.0" y2="400.0" stroke="white" stroke-width="1" opacity="0.4" stroke-linecap="butt"/>
<line x1="240.0" y1="0.0" x2="240.0" y2="400.0" stroke="white" stroke-width="1" opacity="0.4" stroke-linecap="butt"/>
<line x1="280.0" y1="0.0" x2="280.0" y2="400.0" stroke="white" stroke-width="1" opacity="0.4" stroke-linecap="butt"/>
<line x1="320.0" y1="0.0" x2="320.0" y2="400.0" stroke="white" stroke-width="1" opacity="0.4" stroke-linecap="butt"/>
<line x1="360.0" y1="0.0" x2="360.0" y2="400.0" stroke="white" stroke-width="1" opacity="0.4" stroke-linecap="butt"/>
<line x1="0.0" y1="0.0" x2="400.0" y2="0.0" stroke="white" stroke-width="1" opacity="0.4" stroke-linecap="butt"/>
<line x1="0.0" y1="40.0" x2="400.0" y2="40.0" stroke="white" stroke-width="1" opacity="0.4" stroke-linecap="butt"/>
<line x1="0.0" y1="80.0" x2="400.0" y2="80.0" stroke="white" stroke-width="1" opacity="0.4" stroke-linecap="butt"/>
<line x1="0.0" y1="120.0" x2="400.0" y2="120.0" stroke="white" stroke-width="1" opacity="0.4" stroke-linecap="butt"/>
<line x1="0.0" y1="160.0" x2="400.0" y2="160.0" stroke="white" stroke-width="1" opacity="0.4" stroke-linecap="butt"/>
<line x1="0.0" y1="200.0" x2="400.0" y2="200.0" stroke="white" stroke-width="1" opacity="0.4" stroke-linecap="butt"/>
<line x1="0.0" y1="240.0" x2="400.0" y2="240.0" stroke="white" stroke-width="1" opacity="0.4" stroke-linecap="butt"/>
<line x1="0.0" y1="280.0" x2="400.0" y2="280.0" stroke="white" stroke-width="1" opacity="0.4" stroke-linecap="butt"/>
<line x1="0.0" y1="320.0" x2="400.0" y2="320.0" stroke="white" stroke-width="1" opacity="0.4" stroke-linecap="butt"/>
<line x1="0.0" y1="360.0" x2="400.0" y2="360.0" stroke="white" stroke-width="1" opacity="0.4" stroke-linecap="butt"/>
<line x1="0.0" y1="200.0" x2="400.0" y2="200.0" stroke="yellow" stroke-width="2.5" opacity="1" stroke-linecap="butt"/>
<line x1="200.0" y1="0.0" x2="200.0" y2="400.0" stroke="yellow" stroke-width="2.5" opacity="1" stroke-linecap="butt"/>
<polygon points="391.0 204.0, 401.0 200.0, 391.0 196.0, 393.0 200.0" fill="yellow"/><polygon points="204.0 9.0, 200.0 -1.0, 196.0 9.0, 200.0 7.0" fill="yellow"/><image x="-60.0" y="-60.0" width="200" height="200" href="/Users/girirajhira/PycharmProjects/Giraphics3/Taylor/expr.png"/><polyline points="0.0, -15719.6 0.17, -15560.73 0.33, -15403.29 0.5, -15247.28 0.67, -15092.67 0.83, -14939.47 1.0, -14787.66 1.17, -14637.22 1.33, -14488.15 1.5, -14340.44 1.67, -14194.07 1.83, -14049.03 2.0, -13905.32 2.17, -13762.91 2.33, -13621.81 2.5, -13482.0 2.67, -13343.46 2.83, -13206.2 3.0, -13070.2 3.17, -12935.44 3.33, -12801.92 3.5, -12669.63 3.67, -12538.56 3.83, -12408.69 4.0, -12280.02 4.17, -12152.54 4.33, -12026.24 4.5, -11901.11 4.67, -11777.14 4.83, -11654.31 5.0, -11532.63 5.17, -11412.07 5.33, -11292.64 5.5, -11174.31 5.67, -11057.09 5.83, -10940.97 6.0, -10825.92 6.17, -10711.95 6.33, -10599.05 6.5, -10487.2 6.67, -10376.4 6.83, -10266.65 7.0, -10157.92 7.17, -10050.21 7.33, -9943.52 7.5, -9837.83 7.67, -9733.14 7.83, -9629.43 8.0, -9526.71 8.17, -9424.95 8.33, -9324.16 8.5, -9224.33 8.67, -9125.44 8.83, -9027.49 9.0, -8930.47 9.17, -8834.37 9.33, -8739.19 9.5, -8644.91 9.67, -8551.53 9.83, -8459.05 10.0, -8367.45 10.17, -8276.73 10.33, -8186.87 10.5, -8097.88 10.67, -8009.74 10.83, -7922.45 11.0, -7836.0 11.17, -7750.38 11.33, -7665.58 11.5, -7581.6 11.67, -7498.44 11.83, -7416.07 12.0, -7334.51 12.17, -7253.73 12.33, -7173.74 12.5, -7094.52 12.67, -7016.08 12.83, -6938.39 13.0, -6861.47 13.17, -6785.29 13.33, -6709.85 13.5, -6635.16 13.67, -6561.19 13.83, -6487.94 14.0, -6415.42 14.17, -6343.6 14.33, -6272.49 14.5, -6202.08 14.67, -6132.36 14.83, -6063.33 15.0, -5994.97 15.17, -5927.3 15.33, -5860.29 15.5, -5793.94 15.67, -5728.25 15.83, -5663.21 16.0, -5598.81 16.17, -5535.06 16.33, -5471.93 16.5, -5409.44 16.67, -5347.57 16.83, -5286.31 17.0, -5225.67 17.17, -5165.63 17.33, -5106.19 17.5, -5047.35 17.67, -4989.1 17.83, -4931.43 18.0, -4874.34 18.17, -4817.82 18.33, -4761.88 18.5, -4706.49 18.67, -4651.67 18.83, -4597.4 19.0, -4543.68 19.17, -4490.5 19.33, -4437.86 19.5, -4385.75 19.67, -4334.17 19.83, -4283.12 20.0, -4232.58 20.17, -4182.56 20.33, -4133.05 20.5, -4084.05 20.67, -4035.54 20.83, -3987.53 21.0, -3940.01 21.17, -3892.98 21.33, -3846.44 21.5, -3800.37 21.67, -3754.77 21.83, -3709.64 22.0, -3664.98 22.17, -3620.78 22.33, -3577.03 22.5, -3533.74 22.67, -3490.89 22.83, -3448.49 23.0, -3406.53 23.17, -3365.0 23.33, -3323.91 23.5, -3283.24 23.67, -3243.0 23.83, -3203.17 24.0, -3163.77 24.17, -3124.77 24.33, -3086.18 24.5, -3048.0 24.67, -3010.21 24.83, -2972.83 25.0, -2935.83 25.17, -2899.23 25.33, -2863.01 25.5, -2827.17 25.67, -2791.71 25.83, -2756.62 26.0, -2721.91 26.17, -2687.56 26.33, -2653.58 26.5, -2619.96 26.67, -2586.69 26.83, -2553.78 27.0, -2521.22 27.17, -2489.01 27.33, -2457.14 27.5, -2425.61 27.67, -2394.42 27.83, -2363.56 28.0, -2333.04 28.17, -2302.84 28.33, -2272.96 28.5, -2243.41 28.67, -2214.18 28.83, -2185.26 29.0, -2156.65 29.17, -2128.35 29.33, -2100.36 29.5, -2072.67 29.67, -2045.28 29.83, -2018.19 30.0, -1991.4 30.17, -1964.89 30.33, -1938.68 30.5, -1912.75 30.67, -1887.1 30.83, -1861.73 31.0, -1836.65 31.17, -1811.83 31.33, -1787.29 31.5, -1763.02 31.67, -1739.02 31.83, -1715.28 32.0, -1691.8 32.17, -1668.58 32.33, -1645.62 32.5, -1622.91 32.67, -1600.45 32.83, -1578.24 33.0, -1556.28 33.17, -1534.56 33.33, -1513.09 33.5, -1491.85 33.67, -1470.85 33.83, -1450.09 34.0, -1429.56 34.17, -1409.26 34.33, -1389.18 34.5, -1369.33 34.67, -1349.71 34.83, -1330.3 35.0, -1311.11 35.17, -1292.14 35.33, -1273.39 35.5, -1254.85 35.67, -1236.51 35.83, -1218.39 36.0, -1200.47 36.17, -1182.75 36.33, -1165.24 36.5, -1147.92 36.67, -1130.81 36.83, -1113.88 37.0, -1097.16 37.17, -1080.62 37.33, -1064.27 37.5, -1048.11 37.67, -1032.14 37.83, -1016.35 38.0, -1000.74 38.17, -985.32 38.33, -970.07 38.5, -955.0 38.67, -940.1 38.83, -925.37 39.0, -910.82 39.17, -896.44 39.33, -882.22 39.5, -868.17 39.67, -854.28 39.83, -840.56 40.0, -827.0 40.17, -813.59 40.33, -800.34 40.5, -787.25 40.67, -774.32 40.83, -761.53 41.0, -748.9 41.17, -736.41 41.33, -724.08 41.5, -711.89 41.67, -699.84 41.83, -687.94 42.0, -676.18 42.17, -664.56 42.33, -653.08 42.5, -641.73 42.67, -630.52 42.83, -619.45 43.0, -608.51 43.17, -597.7 43.33, -587.02 43.5, -576.47 43.67, -566.04 43.83, -555.75 44.0, -545.57 44.17, -535.53 44.33, -525.6 44.5, -515.79 44.67, -506.1 44.83, -496.54 45.0, -487.08 45.17, -477.75 45.33, -468.53 45.5, -459.42 45.67, -450.42 45.83, -441.53 46.0, -432.76 46.17, -424.09 46.33, -415.53 46.5, -407.07 46.67, -398.72 46.83, -390.47 47.0, -382.33 47.17, -374.29 47.33, -366.35 47.5, -358.5 47.67, -350.76 47.83, -343.11 48.0, -335.56 48.17, -328.1 48.33, -320.74 48.5, -313.47 48.67, -306.29 48.83, -299.2 49.0, -292.2 49.17, -285.3 49.33, -278.48 49.5, -271.74 49.67, -265.09 49.83, -258.53 50.0, -252.05 50.17, -245.65 50.33, -239.34 50.5, -233.11 50.67, -226.96 50.83, -220.88 51.0, -214.89 51.17, -208.97 51.33, -203.13 51.5, -197.37 51.67, -191.68 51.83, -186.06 52.0, -180.52 52.17, -175.05 52.33, -169.66 52.5, -164.33 52.67, -159.07 52.83, -153.89 53.0, -148.77 53.17, -143.72 53.33, -138.73 53.5, -133.82 53.67, -128.96 53.83, -124.18 54.0, -119.45 54.17, -114.79 54.33, -110.19 54.5, -105.66 54.67, -101.18 54.83, -96.77 55.0, -92.41 55.17, -88.11 55.33, -83.88 55.5, -79.7 55.67, -75.57 55.83, -71.5 56.0, -67.49 56.17, -63.53 56.33, -59.63 56.5, -55.78 56.67, -51.99 56.83, -48.24 57.0, -44.55 57.17, -40.91 57.33, -37.32 57.5, -33.78 57.67, -30.29 57.83, -26.85 58.0, -23.45 58.17, -20.1 58.33, -16.8 58.5, -13.55 58.67, -10.34 58.83, -7.18 59.0, -4.07 59.17, -0.99 59.33, 2.04 59.5, 5.02 59.67, 7.96 59.83, 10.87 60.0, 13.72 60.17, 16.54 60.33, 19.32 60.5, 22.06 60.67, 24.75 60.83, 27.41 61.0, 30.03 61.17, 32.61 61.33, 35.16 61.5, 37.66 61.67, 40.13 61.83, 42.56 62.0, 44.96 62.17, 47.32 62.33, 49.65 62.5, 51.94 62.67, 54.2 62.83, 56.42 63.0, 58.61 63.17, 60.77 63.33, 62.89 63.5, 64.99 63.67, 67.05 63.83, 69.08 64.0, 71.08 64.17, 73.05 64.33, 74.98 64.5, 76.89 64.67, 78.77 64.83, 80.62 65.0, 82.44 65.17, 84.24 65.33, 86.0 65.5, 87.74 65.67, 89.45 65.83, 91.13 66.0, 92.79 66.17, 94.42 66.33, 96.03 66.5, 97.61 66.67, 99.16 66.83, 100.69 67.0, 102.19 67.17, 103.68 67.33, 105.13 67.5, 106.57 67.67, 107.98 67.83, 109.36 68.0, 110.73 68.17, 112.07 68.33, 113.39 68.5, 114.69 68.67, 115.97 68.83, 117.22 69.0, 118.46 69.17, 119.67 69.33, 120.87 69.5, 122.04 69.67, 123.2 69.83, 124.33 70.0, 125.45 70.17, 126.54 70.33, 127.62 70.5, 128.68 70.67, 129.72 70.83, 130.75 71.0, 131.75 71.17, 132.74 71.33, 133.71 71.5, 134.66 71.67, 135.6 71.83, 136.52 72.0, 137.43 72.17, 138.32 72.33, 139.19 72.5, 140.04 72.67, 140.89 72.83, 141.71 73.0, 142.52 73.17, 143.32 73.33, 144.1 73.5, 144.87 73.67, 145.62 73.83, 146.36 74.0, 147.09 74.17, 147.8 74.33, 148.5 74.5, 149.19 74.67, 149.86 74.83, 150.52 75.0, 151.17 75.17, 151.8 75.33, 152.43 75.5, 153.04 75.67, 153.64 75.83, 154.23 76.0, 154.8 76.17, 155.37 76.33, 155.92 76.5, 156.46 76.67, 157.0 76.83, 157.52 77.0, 158.03 77.17, 158.53 77.33, 159.02 77.5, 159.5 77.67, 159.97 77.83, 160.43 78.0, 160.88 78.17, 161.33 78.33, 161.76 78.5, 162.18 78.67, 162.6 78.83, 163.0 79.0, 163.4 79.17, 163.79 79.33, 164.17 79.5, 164.54 79.67, 164.91 79.83, 165.26 80.0, 165.61 80.17, 165.95 80.33, 166.29 80.5, 166.61 80.67, 166.93 80.83, 167.24 81.0, 167.54 81.17, 167.84 81.33, 168.13 81.5, 168.42 81.67, 168.69 81.83, 168.96 82.0, 169.23 82.17, 169.48 82.33, 169.74 82.5, 169.98 82.67, 170.22 82.83, 170.45 83.0, 170.68 83.17, 170.91 83.33, 171.12 83.5, 171.33 83.67, 171.54 83.83, 171.74 84.0, 171.94 84.17, 172.13 84.33, 172.31 84.5, 172.49 84.67, 172.67 84.83, 172.84 85.0, 173.01 85.17, 173.17 85.33, 173.33 85.5, 173.48 85.67, 173.63 85.83, 173.78 86.0, 173.92 86.17, 174.06 86.33, 174.19 86.5, 174.32 86.67, 174.45 86.83, 174.57 87.0, 174.69 87.17, 174.8 87.33, 174.92 87.5, 175.03 87.67, 175.13 87.83, 175.23 88.0, 175.33 88.17, 175.43 88.33, 175.52 88.5, 175.61 88.67, 175.7 88.83, 175.78 89.0, 175.87 89.17, 175.95 89.33, 176.02 89.5, 176.1 89.67, 176.17 89.83, 176.24 90.0, 176.3 90.17, 176.37 90.33, 176.43 90.5, 176.49 90.67, 176.55 90.83, 176.61 91.0, 176.66 91.17, 176.71 91.33, 176.76 91.5, 176.81 91.67, 176.86 91.83, 176.91 92.0, 176.95 92.17, 176.99 92.33, 177.03 92.5, 177.07 92.67, 177.11 92.83, 177.14 93.0, 177.18 93.17, 177.21 93.33, 177.25 93.5, 177.28 93.67, 177.31 93.83, 177.34 94.0, 177.36 94.17, 177.39 94.33, 177.42 94.5, 177.44 94.67, 177.46 94.83, 177.49 95.0, 177.51 95.17, 177.53 95.33, 177.55 95.5, 177.57 95.67, 177.59 95.83, 177.61 96.0, 177.63 96.17, 177.64 96.33, 177.66 96.5, 177.68 96.67, 177.69 96.83, 177.71 97.0, 177.72 97.17, 177.74 97.33, 177.75 97.5, 177.77 97.67, 177.78 97.83, 177.8 98.0, 177.81 98.17, 177.82 98.33, 177.83 98.5, 177.85 98.67, 177.86 98.83, 177.87 99.0, 177.89 99.17, 177.9 99.33, 177.91 99.5, 177.93 99.67, 177.94 99.83, 177.95 100.0, 177.96 100.17, 177.98 100.33, 177.99 100.5, 178.01 100.67, 178.02 100.83, 178.03 101.0, 178.05 101.17, 178.06 101.33, 178.08 101.5, 178.09 101.67, 178.11 101.83, 178.13 102.0, 178.14 102.17, 178.16 102.33, 178.18 102.5, 178.19 102.67, 178.21 102.83, 178.23 103.0, 178.25 103.17, 178.27 103.33, 178.29 103.5, 178.31 103.67, 178.33 103.83, 178.36 104.0, 178.38 104.17, 178.4 104.33, 178.43 104.5, 178.45 104.67, 178.48 104.83, 178.5 105.0, 178.53 105.17, 178.56 105.33, 178.58 105.5, 178.61 105.67, 178.64 105.83, 178.67 106.0, 178.7 106.17, 178.73 106.33, 178.77 106.5, 178.8 106.67, 178.84 106.83, 178.87 107.0, 178.91 107.17, 178.94 107.33, 178.98 107.5, 179.02 107.67, 179.06 107.83, 179.1 108.0, 179.14 108.17, 179.18 108.33, 179.22 108.5, 179.27 108.67, 179.31 108.83, 179.36 109.0, 179.4 109.17, 179.45 109.33, 179.5 109.5, 179.55 109.67, 179.6 109.83, 179.65 110.0, 179.7 110.17, 179.76 110.33, 179.81 110.5, 179.87 110.67, 179.92 110.83, 179.98 111.0, 180.04 111.17, 180.1 111.33, 180.16 111.5, 180.22 111.67, 180.28 111.83, 180.34 112.0, 180.41 112.17, 180.47 112.33, 180.54 112.5, 180.61 112.67, 180.68 112.83, 180.75 113.0, 180.82 113.17, 180.89 113.33, 180.96 113.5, 181.03 113.67, 181.11 113.83, 181.18 114.0, 181.26 114.17, 181.34 114.33, 181.42 114.5, 181.5 114.67, 181.58 114.83, 181.66 115.0, 181.74 115.17, 181.83 115.33, 181.91 115.5, 182.0 115.67, 182.08 115.83, 182.17 116.0, 182.26 116.17, 182.35 116.33, 182.44 116.5, 182.53 116.67, 182.63 116.83, 182.72 117.0, 182.82 117.17, 182.91 117.33, 183.01 117.5, 183.11 117.67, 183.21 117.83, 183.31 118.0, 183.41 118.17, 183.51 118.33, 183.61 118.5, 183.72 118.67, 183.82 118.83, 183.93 119.0, 184.04 119.17, 184.14 119.33, 184.25 119.5, 184.36 119.67, 184.47 119.83, 184.59 120.0, 184.7 120.17, 184.81 120.33, 184.93 120.5, 185.04 120.67, 185.16 120.83, 185.28 121.0, 185.4 121.17, 185.52 121.33, 185.64 121.5, 185.76 121.67, 185.88 121.83, 186.0 122.0, 186.13 122.17, 186.25 122.33, 186.38 122.5, 186.5 122.67, 186.63 122.83, 186.76 123.0, 186.89 123.17, 187.02 123.33, 187.15 123.5, 187.28 123.67, 187.41 123.83, 187.54 124.0, 187.68 124.17, 187.81 124.33, 187.95 124.5, 188.08 124.67, 188.22 124.83, 188.36 125.0, 188.5 125.17, 188.64 125.33, 188.78 125.5, 188.92 125.67, 189.06 125.83, 189.2 126.0, 189.34 126.17, 189.49 126.33, 189.63 126.5, 189.77 126.67, 189.92 126.83, 190.07 127.0, 190.21 127.17, 190.36 127.33, 190.51 127.5, 190.66 127.67, 190.81 127.83, 190.96 128.0, 191.11 128.17, 191.26 128.33, 191.41 128.5, 191.56 128.67, 191.71 128.83, 191.87 129.0, 192.02 129.17, 192.18 129.33, 192.33 129.5, 192.49 129.67, 192.64 129.83, 192.8 130.0, 192.95 130.17, 193.11 130.33, 193.27 130.5, 193.43 130.67, 193.59 130.83, 193.75 131.0, 193.9 131.17, 194.06 131.33, 194.22 131.5, 194.38 131.67, 194.55 131.83, 194.71 132.0, 194.87 132.17, 195.03 132.33, 195.19 132.5, 195.36 132.67, 195.52 132.83, 195.68 133.0, 195.85 133.17, 196.01 133.33, 196.17 133.5, 196.34 133.67, 196.5 133.83, 196.67 134.0, 196.83 134.17, 197.0 134.33, 197.16 134.5, 197.33 134.67, 197.49 134.83, 197.66 135.0, 197.82 135.17, 197.99 135.33, 198.16 135.5, 198.32 135.67, 198.49 135.83, 198.66 136.0, 198.82 136.17, 198.99 136.33, 199.16 136.5, 199.32 136.67, 199.49 136.83, 199.66 137.0, 199.82 137.17, 199.99 137.33, 200.16 137.5, 200.32 137.67, 200.49 137.83, 200.66 138.0, 200.83 138.17, 200.99 138.33, 201.16 138.5, 201.33 138.67, 201.49 138.83, 201.66 139.0, 201.82 139.17, 201.99 139.33, 202.16 139.5, 202.32 139.67, 202.49 139.83, 202.65 140.0, 202.82 140.17, 202.98 140.33, 203.15 140.5, 203.31 140.67, 203.48 140.83, 203.64 141.0, 203.81 141.17, 203.97 141.33, 204.13 141.5, 204.3 141.67, 204.46 141.83, 204.62 142.0, 204.78 142.17, 204.94 142.33, 205.11 142.5, 205.27 142.67, 205.43 142.83, 205.59 143.0, 205.75 143.17, 205.91 143.33, 206.07 143.5, 206.22 143.67, 206.38 143.83, 206.54 144.0, 206.7 144.17, 206.85 144.33, 207.01 144.5, 207.17 144.67, 207.32 144.83, 207.48 145.0, 207.63 145.17, 207.79 145.33, 207.94 145.5, 208.09 145.67, 208.24 145.83, 208.4 146.0, 208.55 146.17, 208.7 146.33, 208.85 146.5, 209.0 146.67, 209.14 146.83, 209.29 147.0, 209.44 147.17, 209.59 147.33, 209.73 147.5, 209.88 147.67, 210.02 147.83, 210.17 148.0, 210.31 148.17, 210.45 148.33, 210.59 148.5, 210.73 148.67, 210.87 148.83, 211.01 149.0, 211.15 149.17, 211.29 149.33, 211.43 149.5, 211.56 149.67, 211.7 149.83, 211.84 150.0, 211.97 150.17, 212.1 150.33, 212.23 150.5, 212.37 150.67, 212.5 150.83, 212.63 151.0, 212.75 151.17, 212.88 151.33, 213.01 151.5, 213.14 151.67, 213.26 151.83, 213.39 152.0, 213.51 152.17, 213.63 152.33, 213.75 152.5, 213.87 152.67, 213.99 152.83, 214.11 153.0, 214.23 153.17, 214.35 153.33, 214.46 153.5, 214.58 153.67, 214.69 153.83, 214.8 154.0, 214.91 154.17, 215.02 154.33, 215.13 154.5, 215.24 154.67, 215.35 154.83, 215.46 155.0, 215.56 155.17, 215.67 155.33, 215.77 155.5, 215.87 155.67, 215.97 155.83, 216.07 156.0, 216.17 156.17, 216.27 156.33, 216.36 156.5, 216.46 156.67, 216.55 156.83, 216.65 157.0, 216.74 157.17, 216.83 157.33, 216.92 157.5, 217.01 157.67, 217.09 157.83, 217.18 158.0, 217.26 158.17, 217.35 158.33, 217.43 158.5, 217.51 158.67, 217.59 158.83, 217.67 159.0, 217.75 159.17, 217.82 159.33, 217.9 159.5, 217.97 159.67, 218.04 159.83, 218.12 160.0, 218.19 160.17, 218.25 160.33, 218.32 160.5, 218.39 160.67, 218.45 160.83, 218.52 161.0, 218.58 161.17, 218.64 161.33, 218.7 161.5, 218.76 161.67, 218.82 161.83, 218.87 162.0, 218.93 162.17, 218.98 162.33, 219.03 162.5, 219.08 162.67, 219.13 162.83, 219.18 163.0, 219.23 163.17, 219.27 163.33, 219.31 163.5, 219.36 163.67, 219.4 163.83, 219.44 164.0, 219.48 164.17, 219.51 164.33, 219.55 164.5, 219.58 164.67, 219.62 164.83, 219.65 165.0, 219.68 165.17, 219.71 165.33, 219.74 165.5, 219.76 165.67, 219.79 165.83, 219.81 166.0, 219.83 166.17, 219.85 166.33, 219.87 166.5, 219.89 166.67, 219.91 166.83, 219.92 167.0, 219.94 167.17, 219.95 167.33, 219.96 167.5, 219.97 167.67, 219.98 167.83, 219.99 168.0, 219.99 168.17, 220.0 168.33, 220.0 168.5, 220.0 168.67, 220.0 168.83, 220.0 169.0, 220.0 169.17, 219.99 169.33, 219.99 169.5, 219.98 169.67, 219.97 169.83, 219.96 170.0, 219.95 170.17, 219.94 170.33, 219.92 170.5, 219.91 170.67, 219.89 170.83, 219.87 171.0, 219.85 171.17, 219.83 171.33, 219.81 171.5, 219.79 171.67, 219.76 171.83, 219.74 172.0, 219.71 172.17, 219.68 172.33, 219.65 172.5, 219.62 172.67, 219.58 172.83, 219.55 173.0, 219.51 173.17, 219.48 173.33, 219.44 173.5, 219.4 173.67, 219.36 173.83, 219.32 174.0, 219.27 174.17, 219.23 174.33, 219.18 174.5, 219.13 174.67, 219.08 174.83, 219.03 175.0, 218.98 175.17, 218.93 175.33, 218.87 175.5, 218.82 175.67, 218.76 175.83, 218.7 176.0, 218.64 176.17, 218.58 176.33, 218.52 176.5, 218.45 176.67, 218.39 176.83, 218.32 177.0, 218.26 177.17, 218.19 177.33, 218.12 177.5, 218.05 177.67, 217.97 177.83, 217.9 178.0, 217.82 178.17, 217.75 178.33, 217.67 178.5, 217.59 178.67, 217.51 178.83, 217.43 179.0, 217.35 179.17, 217.26 179.33, 217.18 179.5, 217.09 179.67, 217.01 179.83, 216.92 180.0, 216.83 180.17, 216.74 180.33, 216.65 180.5, 216.55 180.67, 216.46 180.83, 216.36 181.0, 216.27 181.17, 216.17 181.33, 216.07 181.5, 215.97 181.67, 215.87 181.83, 215.77 182.0, 215.67 182.17, 215.56 182.33, 215.46 182.5, 215.35 182.67, 215.24 182.83, 215.14 183.0, 215.03 183.17, 214.92 183.33, 214.8 183.5, 214.69 183.67, 214.58 183.83, 214.46 184.0, 214.35 184.17, 214.23 184.33, 214.11 184.5, 213.99 184.67, 213.87 184.83, 213.75 185.0, 213.63 185.17, 213.51 185.33, 213.39 185.5, 213.26 185.67, 213.14 185.83, 213.01 186.0, 212.88 186.17, 212.76 186.33, 212.63 186.5, 212.5 186.67, 212.37 186.83, 212.24 187.0, 212.1 187.17, 211.97 187.33, 211.84 187.5, 211.7 187.67, 211.57 187.83, 211.43 188.0, 211.29 188.17, 211.15 188.33, 211.02 188.5, 210.88 188.67, 210.74 188.83, 210.6 189.0, 210.45 189.17, 210.31 189.33, 210.17 189.5, 210.02 189.67, 209.88 189.83, 209.73 190.0, 209.59 190.17, 209.44 190.33, 209.29 190.5, 209.15 190.67, 209.0 190.83, 208.85 191.0, 208.7 191.17, 208.55 191.33, 208.4 191.5, 208.25 191.67, 208.09 191.83, 207.94 192.0, 207.79 192.17, 207.63 192.33, 207.48 192.5, 207.33 192.67, 207.17 192.83, 207.01 193.0, 206.86 193.17, 206.7 193.33, 206.54 193.5, 206.39 193.67, 206.23 193.83, 206.07 194.0, 205.91 194.17, 205.75 194.33, 205.59 194.5, 205.43 194.67, 205.27 194.83, 205.11 195.0, 204.95 195.17, 204.79 195.33, 204.62 195.5, 204.46 195.67, 204.3 195.83, 204.14 196.0, 203.97 196.17, 203.81 196.33, 203.65 196.5, 203.48 196.67, 203.32 196.83, 203.15 197.0, 202.99 197.17, 202.82 197.33, 202.66 197.5, 202.49 197.67, 202.33 197.83, 202.16 198.0, 202.0 198.17, 201.83 198.33, 201.66 198.5, 201.5 198.67, 201.33 198.83, 201.17 199.0, 201.0 199.17, 200.83 199.33, 200.67 199.5, 200.5 199.67, 200.33 199.83, 200.17 200.0, 200.0 200.17, 199.83 200.33, 199.67 200.5, 199.5 200.67, 199.33 200.83, 199.17 201.0, 199.0 201.17, 198.83 201.33, 198.67 201.5, 198.5 201.67, 198.34 201.83, 198.17 202.0, 198.0 202.17, 197.84 202.33, 197.67 202.5, 197.51 202.67, 197.34 202.83, 197.18 203.0, 197.01 203.17, 196.85 203.33, 196.68 203.5, 196.52 203.67, 196.35 203.83, 196.19 204.0, 196.03 204.17, 195.86 204.33, 195.7 204.5, 195.54 204.67, 195.38 204.83, 195.21 205.0, 195.05 205.17, 194.89 205.33, 194.73 205.5, 194.57 205.67, 194.41 205.83, 194.25 206.0, 194.09 206.17, 193.93 206.33, 193.77 206.5, 193.61 206.67, 193.46 206.83, 193.3 207.0, 193.14 207.17, 192.99 207.33, 192.83 207.5, 192.67 207.67, 192.52 207.83, 192.37 208.0, 192.21 208.17, 192.06 208.33, 191.91 208.5, 191.75 208.67, 191.6 208.83, 191.45 209.0, 191.3 209.17, 191.15 209.33, 191.0 209.5, 190.85 209.67, 190.71 209.83, 190.56 210.0, 190.41 210.17, 190.27 210.33, 190.12 210.5, 189.98 210.67, 189.83 210.83, 189.69 211.0, 189.55 211.17, 189.4 211.33, 189.26 211.5, 189.12 211.67, 188.98 211.83, 188.85 212.0, 188.71 212.17, 188.57 212.33, 188.43 212.5, 188.3 212.67, 188.16 212.83, 188.03 213.0, 187.9 213.17, 187.76 213.33, 187.63 213.5, 187.5 213.67, 187.37 213.83, 187.24 214.0, 187.12 214.17, 186.99 214.33, 186.86 214.5, 186.74 214.67, 186.61 214.83, 186.49 215.0, 186.37 215.17, 186.25 215.33, 186.13 215.5, 186.01 215.67, 185.89 215.83, 185.77 216.0, 185.65 216.17, 185.54 216.33, 185.42 216.5, 185.31 216.67, 185.2 216.83, 185.08 217.0, 184.97 217.17, 184.86 217.33, 184.76 217.5, 184.65 217.67, 184.54 217.83, 184.44 218.0, 184.33 218.17, 184.23 218.33, 184.13 218.5, 184.03 218.67, 183.93 218.83, 183.83 219.0, 183.73 219.17, 183.64 219.33, 183.54 219.5, 183.45 219.67, 183.35 219.83, 183.26 220.0, 183.17 220.17, 183.08 220.33, 182.99 220.5, 182.91 220.67, 182.82 220.83, 182.74 221.0, 182.65 221.17, 182.57 221.33, 182.49 221.5, 182.41 221.67, 182.33 221.83, 182.25 222.0, 182.18 222.17, 182.1 222.33, 182.03 222.5, 181.95 222.67, 181.88 222.83, 181.81 223.0, 181.74 223.17, 181.68 223.33, 181.61 223.5, 181.55 223.67, 181.48 223.83, 181.42 224.0, 181.36 224.17, 181.3 224.33, 181.24 224.5, 181.18 224.67, 181.13 224.83, 181.07 225.0, 181.02 225.17, 180.97 225.33, 180.92 225.5, 180.87 225.67, 180.82 225.83, 180.77 226.0, 180.73 226.17, 180.68 226.33, 180.64 226.5, 180.6 226.67, 180.56 226.83, 180.52 227.0, 180.49 227.17, 180.45 227.33, 180.42 227.5, 180.38 227.67, 180.35 227.83, 180.32 228.0, 180.29 228.17, 180.26 228.33, 180.24 228.5, 180.21 228.67, 180.19 228.83, 180.17 229.0, 180.15 229.17, 180.13 229.33, 180.11 229.5, 180.09 229.67, 180.08 229.83, 180.06 230.0, 180.05 230.17, 180.04 230.33, 180.03 230.5, 180.02 230.67, 180.01 230.83, 180.01 231.0, 180.0 231.17, 180.0 231.33, 180.0 231.5, 180.0 231.67, 180.0 231.83, 180.0 232.0, 180.01 232.17, 180.01 232.33, 180.02 232.5, 180.03 232.67, 180.04 232.83, 180.05 233.0, 180.06 233.17, 180.08 233.33, 180.09 233.5, 180.11 233.67, 180.13 233.83, 180.15 234.0, 180.17 234.17, 180.19 234.33, 180.21 234.5, 180.24 234.67, 180.26 234.83, 180.29 235.0, 180.32 235.17, 180.35 235.33, 180.38 235.5, 180.42 235.67, 180.45 235.83, 180.49 236.0, 180.52 236.17, 180.56 236.33, 180.6 236.5, 180.64 236.67, 180.69 236.83, 180.73 237.0, 180.77 237.17, 180.82 237.33, 180.87 237.5, 180.92 237.67, 180.97 237.83, 181.02 238.0, 181.07 238.17, 181.13 238.33, 181.18 238.5, 181.24 238.67, 181.3 238.83, 181.36 239.0, 181.42 239.17, 181.48 239.33, 181.55 239.5, 181.61 239.67, 181.68 239.83, 181.75 240.0, 181.81 240.17, 181.88 240.33, 181.96 240.5, 182.03 240.67, 182.1 240.83, 182.18 241.0, 182.25 241.17, 182.33 241.33, 182.41 241.5, 182.49 241.67, 182.57 241.83, 182.65 242.0, 182.74 242.17, 182.82 242.33, 182.91 242.5, 182.99 242.67, 183.08 242.83, 183.17 243.0, 183.26 243.17, 183.35 243.33, 183.45 243.5, 183.54 243.67, 183.64 243.83, 183.73 244.0, 183.83 244.17, 183.93 244.33, 184.03 244.5, 184.13 244.67, 184.23 244.83, 184.33 245.0, 184.44 245.17, 184.54 245.33, 184.65 245.5, 184.76 245.67, 184.87 245.83, 184.98 246.0, 185.09 246.17, 185.2 246.33, 185.31 246.5, 185.42 246.67, 185.54 246.83, 185.65 247.0, 185.77 247.17, 185.89 247.33, 186.01 247.5, 186.13 247.67, 186.25 247.83, 186.37 248.0, 186.49 248.17, 186.61 248.33, 186.74 248.5, 186.86 248.67, 186.99 248.83, 187.12 249.0, 187.25 249.17, 187.37 249.33, 187.5 249.5, 187.63 249.67, 187.77 249.83, 187.9 250.0, 188.03 250.17, 188.16 250.33, 188.3 250.5, 188.44 250.67, 188.57 250.83, 188.71 251.0, 188.85 251.17, 188.99 251.33, 189.13 251.5, 189.27 251.67, 189.41 251.83, 189.55 252.0, 189.69 252.17, 189.83 252.33, 189.98 252.5, 190.12 252.67, 190.27 252.83, 190.41 253.0, 190.56 253.17, 190.71 253.33, 190.86 253.5, 191.0 253.67, 191.15 253.83, 191.3 254.0, 191.45 254.17, 191.6 254.33, 191.76 254.5, 191.91 254.67, 192.06 254.83, 192.21 255.0, 192.37 255.17, 192.52 255.33, 192.68 255.5, 192.83 255.67, 192.99 255.83, 193.15 256.0, 193.3 256.17, 193.46 256.33, 193.62 256.5, 193.78 256.67, 193.93 256.83, 194.09 257.0, 194.25 257.17, 194.41 257.33, 194.57 257.5, 194.73 257.67, 194.89 257.83, 195.06 258.0, 195.22 258.17, 195.38 258.33, 195.54 258.5, 195.7 258.67, 195.87 258.83, 196.03 259.0, 196.19 259.17, 196.36 259.33, 196.52 259.5, 196.69 259.67, 196.85 259.83, 197.02 260.0, 197.18 260.17, 197.35 260.33, 197.51 260.5, 197.68 260.67, 197.84 260.83, 198.01 261.0, 198.18 261.17, 198.34 261.33, 198.51 261.5, 198.67 261.67, 198.84 261.83, 199.01 262.0, 199.17 262.17, 199.34 262.33, 199.51 262.5, 199.68 262.67, 199.84 262.83, 200.01 263.0, 200.18 263.17, 200.34 263.33, 200.51 263.5, 200.68 263.67, 200.84 263.83, 201.01 264.0, 201.18 264.17, 201.34 264.33, 201.51 264.5, 201.68 264.67, 201.84 264.83, 202.01 265.0, 202.18 265.17, 202.34 265.33, 202.51 265.5, 202.67 265.67, 202.84 265.83, 203.0 266.0, 203.17 266.17, 203.33 266.33, 203.5 266.5, 203.66 266.67, 203.83 266.83, 203.99 267.0, 204.15 267.17, 204.32 267.33, 204.48 267.5, 204.64 267.67, 204.81 267.83, 204.97 268.0, 205.13 268.17, 205.29 268.33, 205.45 268.5, 205.62 268.67, 205.78 268.83, 205.94 269.0, 206.1 269.17, 206.25 269.33, 206.41 269.5, 206.57 269.67, 206.73 269.83, 206.89 270.0, 207.05 270.17, 207.2 270.33, 207.36 270.5, 207.51 270.67, 207.67 270.83, 207.82 271.0, 207.98 271.17, 208.13 271.33, 208.29 271.5, 208.44 271.67, 208.59 271.83, 208.74 272.0, 208.89 272.17, 209.04 272.33, 209.19 272.5, 209.34 272.67, 209.49 272.83, 209.64 273.0, 209.79 273.17, 209.93 273.33, 210.08 273.5, 210.23 273.67, 210.37 273.83, 210.51 274.0, 210.66 274.17, 210.8 274.33, 210.94 274.5, 211.08 274.67, 211.22 274.83, 211.36 275.0, 211.5 275.17, 211.64 275.33, 211.78 275.5, 211.92 275.67, 212.05 275.83, 212.19 276.0, 212.32 276.17, 212.46 276.33, 212.59 276.5, 212.72 276.67, 212.85 276.83, 212.98 277.0, 213.11 277.17, 213.24 277.33, 213.37 277.5, 213.5 277.67, 213.62 277.83, 213.75 278.0, 213.87 278.17, 214.0 278.33, 214.12 278.5, 214.24 278.67, 214.36 278.83, 214.48 279.0, 214.6 279.17, 214.72 279.33, 214.84 279.5, 214.96 279.67, 215.07 279.83, 215.19 280.0, 215.3 280.17, 215.41 280.33, 215.53 280.5, 215.64 280.67, 215.75 280.83, 215.86 281.0, 215.96 281.17, 216.07 281.33, 216.18 281.5, 216.28 281.67, 216.39 281.83, 216.49 282.0, 216.59 282.17, 216.69 282.33, 216.79 282.5, 216.89 282.67, 216.99 282.83, 217.09 283.0, 217.18 283.17, 217.28 283.33, 217.37 283.5, 217.47 283.67, 217.56 283.83, 217.65 284.0, 217.74 284.17, 217.83 284.33, 217.92 284.5, 218.0 284.67, 218.09 284.83, 218.17 285.0, 218.26 285.17, 218.34 285.33, 218.42 285.5, 218.5 285.67, 218.58 285.83, 218.66 286.0, 218.74 286.17, 218.82 286.33, 218.89 286.5, 218.97 286.67, 219.04 286.83, 219.11 287.0, 219.18 287.17, 219.25 287.33, 219.32 287.5, 219.39 287.67, 219.46 287.83, 219.53 288.0, 219.59 288.17, 219.66 288.33, 219.72 288.5, 219.78 288.67, 219.84 288.83, 219.9 289.0, 219.96 289.17, 220.02 289.33, 220.08 289.5, 220.13 289.67, 220.19 289.83, 220.24 290.0, 220.3 290.17, 220.35 290.33, 220.4 290.5, 220.45 290.67, 220.5 290.83, 220.55 291.0, 220.6 291.17, 220.64 291.33, 220.69 291.5, 220.73 291.67, 220.78 291.83, 220.82 292.0, 220.86 292.17, 220.9 292.33, 220.94 292.5, 220.98 292.67, 221.02 292.83, 221.06 293.0, 221.09 293.17, 221.13 293.33, 221.16 293.5, 221.2 293.67, 221.23 293.83, 221.27 294.0, 221.3 294.17, 221.33 294.33, 221.36 294.5, 221.39 294.67, 221.42 294.83, 221.44 295.0, 221.47 295.17, 221.5 295.33, 221.52 295.5, 221.55 295.67, 221.57 295.83, 221.6 296.0, 221.62 296.17, 221.64 296.33, 221.67 296.5, 221.69 296.67, 221.71 296.83, 221.73 297.0, 221.75 297.17, 221.77 297.33, 221.79 297.5, 221.81 297.67, 221.82 297.83, 221.84 298.0, 221.86 298.17, 221.87 298.33, 221.89 298.5, 221.91 298.67, 221.92 298.83, 221.94 299.0, 221.95 299.17, 221.97 299.33, 221.98 299.5, 221.99 299.67, 222.01 299.83, 222.02 300.0, 222.04 300.17, 222.05 300.33, 222.06 300.5, 222.07 300.67, 222.09 300.83, 222.1 301.0, 222.11 301.17, 222.13 301.33, 222.14 301.5, 222.15 301.67, 222.17 301.83, 222.18 302.0, 222.19 302.17, 222.2 302.33, 222.22 302.5, 222.23 302.67, 222.25 302.83, 222.26 303.0, 222.28 303.17, 222.29 303.33, 222.31 303.5, 222.32 303.67, 222.34 303.83, 222.36 304.0, 222.37 304.17, 222.39 304.33, 222.41 304.5, 222.43 304.67, 222.45 304.83, 222.47 305.0, 222.49 305.17, 222.51 305.33, 222.54 305.5, 222.56 305.67, 222.58 305.83, 222.61 306.0, 222.64 306.17, 222.66 306.33, 222.69 306.5, 222.72 306.67, 222.75 306.83, 222.79 307.0, 222.82 307.17, 222.86 307.33, 222.89 307.5, 222.93 307.67, 222.97 307.83, 223.01 308.0, 223.05 308.17, 223.09 308.33, 223.14 308.5, 223.19 308.67, 223.24 308.83, 223.29 309.0, 223.34 309.17, 223.39 309.33, 223.45 309.5, 223.51 309.67, 223.57 309.83, 223.63 310.0, 223.7 310.17, 223.76 310.33, 223.83 310.5, 223.9 310.67, 223.98 310.83, 224.05 311.0, 224.13 311.17, 224.22 311.33, 224.3 311.5, 224.39 311.67, 224.48 311.83, 224.57 312.0, 224.67 312.17, 224.77 312.33, 224.87 312.5, 224.97 312.67, 225.08 312.83, 225.2 313.0, 225.31 313.17, 225.43 313.33, 225.55 313.5, 225.68 313.67, 225.81 313.83, 225.94 314.0, 226.08 314.17, 226.22 314.33, 226.37 314.5, 226.52 314.67, 226.67 314.83, 226.83 315.0, 226.99 315.17, 227.16 315.33, 227.33 315.5, 227.51 315.67, 227.69 315.83, 227.87 316.0, 228.06 316.17, 228.26 316.33, 228.46 316.5, 228.67 316.67, 228.88 316.83, 229.09 317.0, 229.32 317.17, 229.55 317.33, 229.78 317.5, 230.02 317.67, 230.26 317.83, 230.52 318.0, 230.77 318.17, 231.04 318.33, 231.31 318.5, 231.58 318.67, 231.87 318.83, 232.16 319.0, 232.46 319.17, 232.76 319.33, 233.07 319.5, 233.39 319.67, 233.71 319.83, 234.05 320.0, 234.39 320.17, 234.74 320.33, 235.09 320.5, 235.46 320.67, 235.83 320.83, 236.21 321.0, 236.6 321.17, 237.0 321.33, 237.4 321.5, 237.82 321.67, 238.24 321.83, 238.67 322.0, 239.12 322.17, 239.57 322.33, 240.03 322.5, 240.5 322.67, 240.98 322.83, 241.47 323.0, 241.97 323.17, 242.48 323.33, 243.0 323.5, 243.54 323.67, 244.08 323.83, 244.63 324.0, 245.2 324.17, 245.77 324.33, 246.36 324.5, 246.96 324.67, 247.57 324.83, 248.2 325.0, 248.83 325.17, 249.48 325.33, 250.14 325.5, 250.81 325.67, 251.5 325.83, 252.2 326.0, 252.91 326.17, 253.64 326.33, 254.38 326.5, 255.13 326.67, 255.9 326.83, 256.68 327.0, 257.48 327.17, 258.29 327.33, 259.11 327.5, 259.96 327.67, 260.81 327.83, 261.68 328.0, 262.57 328.17, 263.48 328.33, 264.4 328.5, 265.34 328.67, 266.29 328.83, 267.26 329.0, 268.25 329.17, 269.25 329.33, 270.28 329.5, 271.32 329.67, 272.38 329.83, 273.46 330.0, 274.55 330.17, 275.67 330.33, 276.8 330.5, 277.96 330.67, 279.13 330.83, 280.33 331.0, 281.54 331.17, 282.78 331.33, 284.03 331.5, 285.31 331.67, 286.61 331.83, 287.93 332.0, 289.27 332.17, 290.64 332.33, 292.02 332.5, 293.43 332.67, 294.87 332.83, 296.32 333.0, 297.81 333.17, 299.31 333.33, 300.84 333.5, 302.39 333.67, 303.97 333.83, 305.58 334.0, 307.21 334.17, 308.87 334.33, 310.55 334.5, 312.26 334.67, 314.0 334.83, 315.76 335.0, 317.56 335.17, 319.38 335.33, 321.23 335.5, 323.11 335.67, 325.02 335.83, 326.95 336.0, 328.92 336.17, 330.92 336.33, 332.95 336.5, 335.01 336.67, 337.11 336.83, 339.23 337.0, 341.39 337.17, 343.58 337.33, 345.8 337.5, 348.06 337.67, 350.35 337.83, 352.68 338.0, 355.04 338.17, 357.44 338.33, 359.87 338.5, 362.34 338.67, 364.84 338.83, 367.39 339.0, 369.97 339.17, 372.59 339.33, 375.25 339.5, 377.94 339.67, 380.68 339.83, 383.46 340.0, 386.28 340.17, 389.13 340.33, 392.04 340.5, 394.98 340.67, 397.96 340.83, 400.99 341.0, 404.07 341.17, 407.18 341.33, 410.34 341.5, 413.55 341.67, 416.8 341.83, 420.1 342.0, 423.45 342.17, 426.85 342.33, 430.29 342.5, 433.78 342.67, 437.32 342.83, 440.91 343.0, 444.55 343.17, 448.24 343.33, 451.99 343.5, 455.78 343.67, 459.63 343.83, 463.53 344.0, 467.49 344.17, 471.5 344.33, 475.57 344.5, 479.7 344.67, 483.88 344.83, 488.11 345.0, 492.41 345.17, 496.77 345.33, 501.18 345.5, 505.66 345.67, 510.19 345.83, 514.79 346.0, 519.45 346.17, 524.18 346.33, 528.96 346.5, 533.82 346.67, 538.73 346.83, 543.72 347.0, 548.77 347.17, 553.89 347.33, 559.07 347.5, 564.33 347.67, 569.66 347.83, 575.05 348.0, 580.52 348.17, 586.06 348.33, 591.68 348.5, 597.37 348.67, 603.13 348.83, 608.97 349.0, 614.89 349.17, 620.88 349.33, 626.96 349.5, 633.11 349.67, 639.34 349.83, 645.65 350.0, 652.05 350.17, 658.53 350.33, 665.09 350.5, 671.74 350.67, 678.48 350.83, 685.3 351.0, 692.2 351.17, 699.2 351.33, 706.29 351.5, 713.47 351.67, 720.74 351.83, 728.1 352.0, 735.56 352.17, 743.11 352.33, 750.76 352.5, 758.5 352.67, 766.35 352.83, 774.29 353.0, 782.33 353.17, 790.47 353.33, 798.72 353.5, 807.07 353.67, 815.53 353.83, 824.09 354.0, 832.76 354.17, 841.53 354.33, 850.42 354.5, 859.42 354.67, 868.53 354.83, 877.75 355.0, 887.08 355.17, 896.54 355.33, 906.1 355.5, 915.79 355.67, 925.6 355.83, 935.53 356.0, 945.57 356.17, 955.75 356.33, 966.04 356.5, 976.47 356.67, 987.02 356.83, 997.7 357.0, 1008.51 357.17, 1019.45 357.33, 1030.52 357.5, 1041.73 357.67, 1053.08 357.83, 1064.56 358.0, 1076.18 358.17, 1087.94 358.33, 1099.84 358.5, 1111.89 358.67, 1124.08 358.83, 1136.41 359.0, 1148.9 359.17, 1161.53 359.33, 1174.32 359.5, 1187.25 359.67, 1200.34 359.83, 1213.59 360.0, 1227.0 360.17, 1240.56 360.33, 1254.28 360.5, 1268.17 360.67, 1282.22 360.83, 1296.44 361.0, 1310.82 361.17, 1325.37 361.33, 1340.1 361.5, 1355.0 361.67, 1370.07 361.83, 1385.32 362.0, 1400.74 362.17, 1416.35 362.33, 1432.14 362.5, 1448.11 362.67, 1464.27 362.83, 1480.62 363.0, 1497.16 363.17, 1513.88 363.33, 1530.81 363.5, 1547.92 363.67, 1565.24 363.83, 1582.75 364.0, 1600.47 364.17, 1618.39 364.33, 1636.51 364.5, 1654.85 364.67, 1673.39 364.83, 1692.14 365.0, 1711.11 365.17, 1730.3 365.33, 1749.71 365.5, 1769.33 365.67, 1789.18 365.83, 1809.26 366.0, 1829.56 366.17, 1850.09 366.33, 1870.85 366.5, 1891.85 366.67, 1913.09 366.83, 1934.56 367.0, 1956.28 367.17, 1978.24 367.33, 2000.45 367.5, 2022.91 367.67, 2045.62 367.83, 2068.58 368.0, 2091.8 368.17, 2115.28 368.33, 2139.02 368.5, 2163.02 368.67, 2187.29 368.83, 2211.83 369.0, 2236.65 369.17, 2261.73 369.33, 2287.1 369.5, 2312.75 369.67, 2338.68 369.83, 2364.89 370.0, 2391.4 370.17, 2418.19 370.33, 2445.28 370.5, 2472.67 370.67, 2500.36 370.83, 2528.35 371.0, 2556.65 371.17, 2585.26 371.33, 2614.18 371.5, 2643.41 371.67, 2672.96 371.83, 2702.84 372.0, 2733.04 372.17, 2763.56 372.33, 2794.42 372.5, 2825.61 372.67, 2857.14 372.83, 2889.01 373.0, 2921.22 373.17, 2953.78 373.33, 2986.69 373.5, 3019.96 373.67, 3053.58 373.83, 3087.56 374.0, 3121.91 374.17, 3156.62 374.33, 3191.71 374.5, 3227.17 374.67, 3263.01 374.83, 3299.23 375.0, 3335.83 375.17, 3372.83 375.33, 3410.21 375.5, 3448.0 375.67, 3486.18 375.83, 3524.77 376.0, 3563.77 376.17, 3603.17 376.33, 3643.0 376.5, 3683.24 376.67, 3723.91 376.83, 3765.0 377.0, 3806.53 377.17, 3848.49 377.33, 3890.89 377.5, 3933.74 377.67, 3977.03 377.83, 4020.78 378.0, 4064.98 378.17, 4109.64 378.33, 4154.77 378.5, 4200.37 378.67, 4246.44 378.83, 4292.98 379.0, 4340.01 379.17, 4387.53 379.33, 4435.54 379.5, 4484.05 379.67, 4533.05 379.83, 4582.56 380.0, 4632.58 380.17, 4683.12 380.33, 4734.17 380.5, 4785.75 380.67, 4837.86 380.83, 4890.5 381.0, 4943.68 381.17, 4997.4 381.33, 5051.67 381.5, 5106.49 381.67, 5161.88 381.83, 5217.82 382.0, 5274.34 382.17, 5331.43 382.33, 5389.1 382.5, 5447.35 382.67, 5506.19 382.83, 5565.63 383.0, 5625.67 383.17, 5686.31 383.33, 5747.57 383.5, 5809.44 383.67, 5871.93 383.83, 5935.06 384.0, 5998.81 384.17, 6063.21 384.33, 6128.25 384.5, 6193.94 384.67, 6260.29 384.83, 6327.3 385.0, 6394.97 385.17, 6463.33 385.33, 6532.36 385.5, 6602.08 385.67, 6672.49 385.83, 6743.6 386.0, 6815.42 386.17, 6887.94 386.33, 6961.19 386.5, 7035.16 386.67, 7109.85 386.83, 7185.29 387.0, 7261.47 387.17, 7338.39 387.33, 7416.08 387.5, 7494.52 387.67, 7573.74 387.83, 7653.73 388.0, 7734.51 388.17, 7816.07 388.33, 7898.44 388.5, 7981.6 388.67, 8065.58 388.83, 8150.38 389.0, 8236.0 389.17, 8322.45 389.33, 8409.74 389.5, 8497.88 389.67, 8586.87 389.83, 8676.73 390.0, 8767.45 390.17, 8859.05 390.33, 8951.53 390.5, 9044.91 390.67, 9139.19 390.83, 9234.37 391.0, 9330.47 391.17, 9427.49 391.33, 9525.44 391.5, 9624.33 391.67, 9724.16 391.83, 9824.95 392.0, 9926.71 392.17, 10029.43 392.33, 10133.14 392.5, 10237.83 392.67, 10343.52 392.83, 10450.21 393.0, 10557.92 393.17, 10666.65 393.33, 10776.4 393.5, 10887.2 393.67, 10999.05 393.83, 11111.95 394.0, 11225.92 394.17, 11340.97 394.33, 11457.09 394.5, 11574.31 394.67, 11692.64 394.83, 11812.07 395.0, 11932.63 395.17, 12054.31 395.33, 12177.14 395.5, 12301.11 395.67, 12426.24 395.83, 12552.54 396.0, 12680.02 396.17, 12808.69 396.33, 12938.56 396.5, 13069.63 396.67, 13201.92 396.83, 13335.44 397.0, 13470.2 397.17, 13606.2 397.33, 13743.46 397.5, 13882.0 397.67, 14021.81 397.83, 14162.91 398.0, 14305.32 398.17, 14449.03 398.33, 14594.07 398.5, 14740.44 398.67, 14888.15 398.83, 15037.22 399.0, 15187.66 399.17, 15339.47 399.33, 15492.67 399.5, 15647.28 399.67, 15803.29 399.83, 15960.73 400.0, 16119.6 " fill="none" stroke="white" stroke-width="1.5" stroke-linejoin="round" stroke-opacity="1"/>

 </svg>