<svg version="1.1" 
 baseProfile="full" 
 width="400" 
 height="400" 
 xmlns="http://www.w3.org/2000/svg">
<rect x="0.0" y="0.0" width="400" height="400" fill="black" stroke="black" stroke-width="0" opacity="1"/>
<line x1="0.0" y1="0.0" x2="0.0" y2="400.0" stroke="white" stroke-width="1" opacity="0.4" stroke-linecap="butt"/>
<line x1="40.0" y1="0.0" x2="40.0" y2="400.0" stroke="white" stroke-width="1" opacity="0.4" stroke-linecap="butt"/>
<line x1="80.0" y1="0.0" x2="80.0" y2="400.0" stroke="white" stroke-width="1" opacity="0.4" stroke-linecap="butt"/>
<line x1="120.0" y1="0.0" x2="120.0" y2="400.0" stroke="white" stroke-width="1" opacity="0.4" stroke-linecap="butt"/>
<line x1="160.0" y1="0.0" x2="160.0" y2="400.0" stroke="white" stroke-width="1" opacity="0.4" stroke-linecap="butt"/>
<line x1="200.0" y1="0.0" x2="200.0" y2="400.0" stroke="white" stroke-width="1" opacity="0.4" stroke-linecap="butt"/>
<line x1="240.0" y1="0.0" x2="240.0" y2="400.0" stroke="white" stroke-width="1" opacity="0.4" stroke-linecap="butt"/>
<line x1="280.0" y1="0.0" x2="280.0" y2="400.0" stroke="white" stroke-width="1" opacity="0.4" stroke-linecap="butt"/>
<line x1="320.0" y1="0.0" x2="320.0" y2="400.0" stroke="white" stroke-width="1" opacity="0.4" stroke-linecap="butt"/>
<line x1="360.0" y1="0.0" x2="360.0" y2="400.0" stroke="white" stroke-width="1" opacity="0.4" stroke-linecap="butt"/>
<line x1="0.0" y1="0.0" x2="400.0" y2="0.0" stroke="white" stroke-width="1" opacity="0.4" stroke-linecap="butt"/>
<line x1="0.0" y1="40.0" x2="400.0" y2="40.0" stroke="white" stroke-width="1" opacity="0.4" stroke-linecap="butt"/>
<line x1="0.0" y1="80.0" x2="400.0" y2="80.0" stroke="white" stroke-width="1" opacity="0.4" stroke-linecap="butt"/>
<line x1="0.0" y1="120.0" x2="400.0" y2="120.0" stroke="white" stroke-width="1" opacity="0.4" stroke-linecap="butt"/>
<line x1="0.0" y1="160.0" x2="400.0" y2="160.0" stroke="white" stroke-width="1" opacity="0.4" stroke-linecap="butt"/>
<line x1="0.0" y1="200.0" x2="400.0" y2="200.0" stroke="white" stroke-width="1" opacity="0.4" stroke-linecap="butt"/>
<line x1="0.0" y1="240.0" x2="400.0" y2="240.0" stroke="white" stroke-width="1" opacity="0.4" stroke-linecap="butt"/>
<line x1="0.0" y1="280.0" x2="400.0" y2="280.0" stroke="white" stroke-width="1" opacity="0.4" stroke-linecap="butt"/>
<line x1="0.0" y1="320.0" x2="400.0" y2="320.0" stroke="white" stroke-width="1" opacity="0.4" stroke-linecap="butt"/>
<line x1="0.0" y1="360.0" x2="400.0" y2="360.0" stroke="white" stroke-width="1" opacity="0.4" stroke-linecap="butt"/>
<line x1="0.0" y1="200.0" x2="400.0" y2="200.0" stroke="yellow" stroke-width="2.5" opacity="1" stroke-linecap="butt"/>
<line x1="200.0" y1="0.0" x2="200.0" y2="400.0" stroke="yellow" stroke-width="2.5" opacity="1" stroke-linecap="butt"/>
<polygon points="391.0 204.0, 401.0 200.0, 391.0 196.0, 393.0 200.0" fill="yellow"/><polygon points="204.0 9.0, 200.0 -1.0, 196.0 9.0, 200.0 7.0" fill="yellow"/><image x="-60.0" y="-60.0" width="200" height="200" href="/Users/girirajhira/PycharmProjects/Giraphics3/Taylor/expr.png"/><polyline points="0.0, -13712.21 0.17, -13574.98 0.33, -13438.97 0.5, -13304.17 0.67, -13170.56 0.83, -13038.15 1.0, -12906.92 1.17, -12776.85 1.33, -12647.96 1.5, -12520.21 1.67, -12393.61 1.83, -12268.14 2.0, -12143.8 2.17, -12020.57 2.33, -11898.46 2.5, -11777.44 2.67, -11657.51 2.83, -11538.66 3.0, -11420.89 3.17, -11304.18 3.33, -11188.53 3.5, -11073.92 3.67, -10960.35 3.83, -10847.82 4.0, -10736.3 4.17, -10625.8 4.33, -10516.31 4.5, -10407.81 4.67, -10300.3 4.83, -10193.77 5.0, -10088.22 5.17, -9983.63 5.33, -9880.0 5.5, -9777.32 5.67, -9675.58 5.83, -9574.78 6.0, -9474.9 6.17, -9375.94 6.33, -9277.9 6.5, -9180.75 6.67, -9084.51 6.83, -8989.15 7.0, -8894.68 7.17, -8801.08 7.33, -8708.35 7.5, -8616.48 7.67, -8525.46 7.83, -8435.29 8.0, -8345.96 8.17, -8257.46 8.33, -8169.79 8.5, -8082.94 8.67, -7996.89 8.83, -7911.66 9.0, -7827.22 9.17, -7743.57 9.33, -7660.71 9.5, -7578.62 9.67, -7497.31 9.83, -7416.76 10.0, -7336.98 10.17, -7257.94 10.33, -7179.66 10.5, -7102.11 10.67, -7025.29 10.83, -6949.21 11.0, -6873.84 11.17, -6799.2 11.33, -6725.26 11.5, -6652.02 11.67, -6579.48 11.83, -6507.64 12.0, -6436.48 12.17, -6366.0 12.33, -6296.19 12.5, -6227.05 12.67, -6158.57 12.83, -6090.76 13.0, -6023.59 13.17, -5957.07 13.33, -5891.19 13.5, -5825.94 13.67, -5761.32 13.83, -5697.33 14.0, -5633.96 14.17, -5571.19 14.33, -5509.04 14.5, -5447.49 14.67, -5386.54 14.83, -5326.18 15.0, -5266.4 15.17, -5207.21 15.33, -5148.6 15.5, -5090.55 15.67, -5033.08 15.83, -4976.17 16.0, -4919.81 16.17, -4864.01 16.33, -4808.75 16.5, -4754.04 16.67, -4699.86 16.83, -4646.22 17.0, -4593.11 17.17, -4540.52 17.33, -4488.45 17.5, -4436.89 17.67, -4385.85 17.83, -4335.31 18.0, -4285.27 18.17, -4235.73 18.33, -4186.68 18.5, -4138.12 18.67, -4090.04 18.83, -4042.44 19.0, -3995.32 19.17, -3948.67 19.33, -3902.49 19.5, -3856.76 19.67, -3811.5 19.83, -3766.69 20.0, -3722.33 20.17, -3678.42 20.33, -3634.95 20.5, -3591.92 20.67, -3549.32 20.83, -3507.15 21.0, -3465.41 21.17, -3424.09 21.33, -3383.2 21.5, -3342.71 21.67, -3302.64 21.83, -3262.97 22.0, -3223.71 22.17, -3184.85 22.33, -3146.39 22.5, -3108.32 22.67, -3070.64 22.83, -3033.34 23.0, -2996.43 23.17, -2959.89 23.33, -2923.73 23.5, -2887.95 23.67, -2852.53 23.83, -2817.48 24.0, -2782.78 24.17, -2748.45 24.33, -2714.47 24.5, -2680.85 24.67, -2647.57 24.83, -2614.64 25.0, -2582.05 25.17, -2549.8 25.33, -2517.89 25.5, -2486.3 25.67, -2455.05 25.83, -2424.13 26.0, -2393.53 26.17, -2363.25 26.33, -2333.28 26.5, -2303.63 26.67, -2274.3 26.83, -2245.27 27.0, -2216.55 27.17, -2188.13 27.33, -2160.01 27.5, -2132.19 27.67, -2104.66 27.83, -2077.42 28.0, -2050.48 28.17, -2023.82 28.33, -1997.44 28.5, -1971.35 28.67, -1945.53 28.83, -1919.99 29.0, -1894.72 29.17, -1869.72 29.33, -1844.99 29.5, -1820.52 29.67, -1796.32 29.83, -1772.38 30.0, -1748.69 30.17, -1725.26 30.33, -1702.09 30.5, -1679.16 30.67, -1656.48 30.83, -1634.05 31.0, -1611.86 31.17, -1589.91 31.33, -1568.2 31.5, -1546.73 31.67, -1525.49 31.83, -1504.48 32.0, -1483.7 32.17, -1463.15 32.33, -1442.82 32.5, -1422.72 32.67, -1402.84 32.83, -1383.17 33.0, -1363.73 33.17, -1344.49 33.33, -1325.47 33.5, -1306.66 33.67, -1288.06 33.83, -1269.66 34.0, -1251.47 34.17, -1233.47 34.33, -1215.68 34.5, -1198.09 34.67, -1180.69 34.83, -1163.49 35.0, -1146.48 35.17, -1129.66 35.33, -1113.02 35.5, -1096.58 35.67, -1080.32 35.83, -1064.24 36.0, -1048.34 36.17, -1032.62 36.33, -1017.08 36.5, -1001.71 36.67, -986.52 36.83, -971.5 37.0, -956.66 37.17, -941.98 37.33, -927.46 37.5, -913.11 37.67, -898.93 37.83, -884.91 38.0, -871.05 38.17, -857.34 38.33, -843.8 38.5, -830.41 38.67, -817.17 38.83, -804.09 39.0, -791.15 39.17, -778.37 39.33, -765.73 39.5, -753.24 39.67, -740.9 39.83, -728.7 40.0, -716.64 40.17, -704.72 40.33, -692.94 40.5, -681.3 40.67, -669.79 40.83, -658.42 41.0, -647.18 41.17, -636.07 41.33, -625.09 41.5, -614.25 41.67, -603.53 41.83, -592.94 42.0, -582.47 42.17, -572.13 42.33, -561.9 42.5, -551.81 42.67, -541.83 42.83, -531.97 43.0, -522.22 43.17, -512.6 43.33, -503.09 43.5, -493.69 43.67, -484.4 43.83, -475.23 44.0, -466.17 44.17, -457.21 44.33, -448.37 44.5, -439.63 44.67, -431.0 44.83, -422.47 45.0, -414.05 45.17, -405.72 45.33, -397.5 45.5, -389.38 45.67, -381.36 45.83, -373.44 46.0, -365.61 46.17, -357.88 46.33, -350.25 46.5, -342.71 46.67, -335.26 46.83, -327.9 47.0, -320.64 47.17, -313.46 47.33, -306.38 47.5, -299.38 47.67, -292.47 47.83, -285.65 48.0, -278.91 48.17, -272.25 48.33, -265.68 48.5, -259.19 48.67, -252.79 48.83, -246.46 49.0, -240.21 49.17, -234.04 49.33, -227.96 49.5, -221.94 49.67, -216.01 49.83, -210.15 50.0, -204.36 50.17, -198.65 50.33, -193.01 50.5, -187.44 50.67, -181.95 50.83, -176.53 51.0, -171.17 51.17, -165.89 51.33, -160.67 51.5, -155.52 51.67, -150.44 51.83, -145.42 52.0, -140.47 52.17, -135.58 52.33, -130.76 52.5, -126.0 52.67, -121.3 52.83, -116.67 53.0, -112.09 53.17, -107.58 53.33, -103.13 53.5, -98.73 53.67, -94.39 53.83, -90.11 54.0, -85.89 54.17, -81.73 54.33, -77.62 54.5, -73.56 54.67, -69.56 54.83, -65.61 55.0, -61.72 55.17, -57.88 55.33, -54.09 55.5, -50.35 55.67, -46.66 55.83, -43.03 56.0, -39.44 56.17, -35.9 56.33, -32.41 56.5, -28.97 56.67, -25.58 56.83, -22.23 57.0, -18.93 57.17, -15.67 57.33, -12.46 57.5, -9.3 57.67, -6.18 57.83, -3.1 58.0, -0.06 58.17, 2.93 58.33, 5.88 58.5, 8.79 58.67, 11.66 58.83, 14.48 59.0, 17.27 59.17, 20.02 59.33, 22.72 59.5, 25.39 59.67, 28.02 59.83, 30.62 60.0, 33.17 60.17, 35.69 60.33, 38.18 60.5, 40.62 60.67, 43.03 60.83, 45.41 61.0, 47.75 61.17, 50.06 61.33, 52.33 61.5, 54.57 61.67, 56.78 61.83, 58.95 62.0, 61.09 62.17, 63.2 62.33, 65.28 62.5, 67.33 62.67, 69.34 62.83, 71.33 63.0, 73.29 63.17, 75.22 63.33, 77.11 63.5, 78.98 63.67, 80.82 63.83, 82.63 64.0, 84.42 64.17, 86.18 64.33, 87.91 64.5, 89.61 64.67, 91.29 64.83, 92.94 65.0, 94.56 65.17, 96.16 65.33, 97.74 65.5, 99.29 65.67, 100.82 65.83, 102.32 66.0, 103.79 66.17, 105.25 66.33, 106.68 66.5, 108.09 66.67, 109.47 66.83, 110.84 67.0, 112.18 67.17, 113.5 67.33, 114.8 67.5, 116.07 67.67, 117.33 67.83, 118.57 68.0, 119.78 68.17, 120.98 68.33, 122.15 68.5, 123.31 68.67, 124.44 68.83, 125.56 69.0, 126.66 69.17, 127.74 69.33, 128.8 69.5, 129.84 69.67, 130.87 69.83, 131.88 70.0, 132.87 70.17, 133.84 70.33, 134.8 70.5, 135.74 70.67, 136.66 70.83, 137.57 71.0, 138.46 71.17, 139.34 71.33, 140.2 71.5, 141.05 71.67, 141.88 71.83, 142.69 72.0, 143.49 72.17, 144.28 72.33, 145.05 72.5, 145.81 72.67, 146.55 72.83, 147.29 73.0, 148.0 73.17, 148.71 73.33, 149.4 73.5, 150.08 73.67, 150.74 73.83, 151.39 74.0, 152.03 74.17, 152.66 74.33, 153.28 74.5, 153.88 74.67, 154.47 74.83, 155.06 75.0, 155.63 75.17, 156.18 75.33, 156.73 75.5, 157.27 75.67, 157.8 75.83, 158.31 76.0, 158.82 76.17, 159.31 76.33, 159.8 76.5, 160.27 76.67, 160.74 76.83, 161.2 77.0, 161.64 77.17, 162.08 77.33, 162.51 77.5, 162.93 77.67, 163.34 77.83, 163.74 78.0, 164.13 78.17, 164.52 78.33, 164.89 78.5, 165.26 78.67, 165.62 78.83, 165.98 79.0, 166.32 79.17, 166.66 79.33, 166.99 79.5, 167.31 79.67, 167.62 79.83, 167.93 80.0, 168.23 80.17, 168.53 80.33, 168.81 80.5, 169.09 80.67, 169.37 80.83, 169.64 81.0, 169.9 81.17, 170.15 81.33, 170.4 81.5, 170.64 81.67, 170.88 81.83, 171.11 82.0, 171.33 82.17, 171.55 82.33, 171.77 82.5, 171.98 82.67, 172.18 82.83, 172.38 83.0, 172.57 83.17, 172.76 83.33, 172.94 83.5, 173.12 83.67, 173.29 83.83, 173.46 84.0, 173.62 84.17, 173.78 84.33, 173.94 84.5, 174.09 84.67, 174.24 84.83, 174.38 85.0, 174.52 85.17, 174.65 85.33, 174.78 85.5, 174.91 85.67, 175.03 85.83, 175.15 86.0, 175.27 86.17, 175.38 86.33, 175.49 86.5, 175.59 86.67, 175.69 86.83, 175.79 87.0, 175.89 87.17, 175.98 87.33, 176.07 87.5, 176.16 87.67, 176.24 87.83, 176.32 88.0, 176.4 88.17, 176.48 88.33, 176.55 88.5, 176.62 88.67, 176.69 88.83, 176.75 89.0, 176.82 89.17, 176.88 89.33, 176.94 89.5, 176.99 89.67, 177.05 89.83, 177.1 90.0, 177.15 90.17, 177.2 90.33, 177.24 90.5, 177.29 90.67, 177.33 90.83, 177.37 91.0, 177.41 91.17, 177.45 91.33, 177.49 91.5, 177.52 91.67, 177.55 91.83, 177.59 92.0, 177.62 92.17, 177.64 92.33, 177.67 92.5, 177.7 92.67, 177.72 92.83, 177.75 93.0, 177.77 93.17, 177.79 93.33, 177.81 93.5, 177.83 93.67, 177.85 93.83, 177.87 94.0, 177.89 94.17, 177.9 94.33, 177.92 94.5, 177.93 94.67, 177.95 94.83, 177.96 95.0, 177.97 95.17, 177.98 95.33, 177.99 95.5, 178.01 95.67, 178.02 95.83, 178.03 96.0, 178.03 96.17, 178.04 96.33, 178.05 96.5, 178.06 96.67, 178.07 96.83, 178.08 97.0, 178.08 97.17, 178.09 97.33, 178.1 97.5, 178.11 97.67, 178.11 97.83, 178.12 98.0, 178.13 98.17, 178.13 98.33, 178.14 98.5, 178.15 98.67, 178.15 98.83, 178.16 99.0, 178.17 99.17, 178.17 99.33, 178.18 99.5, 178.19 99.67, 178.19 99.83, 178.2 100.0, 178.21 100.17, 178.22 100.33, 178.23 100.5, 178.24 100.67, 178.24 100.83, 178.25 101.0, 178.26 101.17, 178.27 101.33, 178.28 101.5, 178.29 101.67, 178.31 101.83, 178.32 102.0, 178.33 102.17, 178.34 102.33, 178.36 102.5, 178.37 102.67, 178.39 102.83, 178.4 103.0, 178.42 103.17, 178.43 103.33, 178.45 103.5, 178.47 103.67, 178.48 103.83, 178.5 104.0, 178.52 104.17, 178.54 104.33, 178.56 104.5, 178.58 104.67, 178.61 104.83, 178.63 105.0, 178.65 105.17, 178.68 105.33, 178.7 105.5, 178.73 105.67, 178.76 105.83, 178.78 106.0, 178.81 106.17, 178.84 106.33, 178.87 106.5, 178.9 106.67, 178.94 106.83, 178.97 107.0, 179.0 107.17, 179.04 107.33, 179.07 107.5, 179.11 107.67, 179.14 107.83, 179.18 108.0, 179.22 108.17, 179.26 108.33, 179.3 108.5, 179.35 108.67, 179.39 108.83, 179.43 109.0, 179.48 109.17, 179.52 109.33, 179.57 109.5, 179.62 109.67, 179.67 109.83, 179.72 110.0, 179.77 110.17, 179.82 110.33, 179.87 110.5, 179.92 110.67, 179.98 110.83, 180.04 111.0, 180.09 111.17, 180.15 111.33, 180.21 111.5, 180.27 111.67, 180.33 111.83, 180.39 112.0, 180.46 112.17, 180.52 112.33, 180.58 112.5, 180.65 112.67, 180.72 112.83, 180.79 113.0, 180.86 113.17, 180.93 113.33, 181.0 113.5, 181.07 113.67, 181.14 113.83, 181.22 114.0, 181.29 114.17, 181.37 114.33, 181.45 114.5, 181.53 114.67, 181.61 114.83, 181.69 115.0, 181.77 115.17, 181.85 115.33, 181.94 115.5, 182.02 115.67, 182.11 115.83, 182.2 116.0, 182.29 116.17, 182.37 116.33, 182.47 116.5, 182.56 116.67, 182.65 116.83, 182.74 117.0, 182.84 117.17, 182.93 117.33, 183.03 117.5, 183.13 117.67, 183.23 117.83, 183.33 118.0, 183.43 118.17, 183.53 118.33, 183.63 118.5, 183.73 118.67, 183.84 118.83, 183.95 119.0, 184.05 119.17, 184.16 119.33, 184.27 119.5, 184.38 119.67, 184.49 119.83, 184.6 120.0, 184.71 120.17, 184.83 120.33, 184.94 120.5, 185.06 120.67, 185.17 120.83, 185.29 121.0, 185.41 121.17, 185.53 121.33, 185.65 121.5, 185.77 121.67, 185.89 121.83, 186.01 122.0, 186.14 122.17, 186.26 122.33, 186.38 122.5, 186.51 122.67, 186.64 122.83, 186.77 123.0, 186.89 123.17, 187.02 123.33, 187.15 123.5, 187.29 123.67, 187.42 123.83, 187.55 124.0, 187.68 124.17, 187.82 124.33, 187.95 124.5, 188.09 124.67, 188.23 124.83, 188.36 125.0, 188.5 125.17, 188.64 125.33, 188.78 125.5, 188.92 125.67, 189.06 125.83, 189.2 126.0, 189.35 126.17, 189.49 126.33, 189.63 126.5, 189.78 126.67, 189.92 126.83, 190.07 127.0, 190.22 127.17, 190.36 127.33, 190.51 127.5, 190.66 127.67, 190.81 127.83, 190.96 128.0, 191.11 128.17, 191.26 128.33, 191.41 128.5, 191.56 128.67, 191.72 128.83, 191.87 129.0, 192.02 129.17, 192.18 129.33, 192.33 129.5, 192.49 129.67, 192.64 129.83, 192.8 130.0, 192.96 130.17, 193.11 130.33, 193.27 130.5, 193.43 130.67, 193.59 130.83, 193.75 131.0, 193.91 131.17, 194.07 131.33, 194.23 131.5, 194.39 131.67, 194.55 131.83, 194.71 132.0, 194.87 132.17, 195.03 132.33, 195.19 132.5, 195.36 132.67, 195.52 132.83, 195.68 133.0, 195.85 133.17, 196.01 133.33, 196.17 133.5, 196.34 133.67, 196.5 133.83, 196.67 134.0, 196.83 134.17, 197.0 134.33, 197.16 134.5, 197.33 134.67, 197.49 134.83, 197.66 135.0, 197.83 135.17, 197.99 135.33, 198.16 135.5, 198.32 135.67, 198.49 135.83, 198.66 136.0, 198.82 136.17, 198.99 136.33, 199.16 136.5, 199.32 136.67, 199.49 136.83, 199.66 137.0, 199.82 137.17, 199.99 137.33, 200.16 137.5, 200.33 137.67, 200.49 137.83, 200.66 138.0, 200.83 138.17, 200.99 138.33, 201.16 138.5, 201.33 138.67, 201.49 138.83, 201.66 139.0, 201.82 139.17, 201.99 139.33, 202.16 139.5, 202.32 139.67, 202.49 139.83, 202.65 140.0, 202.82 140.17, 202.98 140.33, 203.15 140.5, 203.31 140.67, 203.48 140.83, 203.64 141.0, 203.81 141.17, 203.97 141.33, 204.13 141.5, 204.3 141.67, 204.46 141.83, 204.62 142.0, 204.78 142.17, 204.94 142.33, 205.11 142.5, 205.27 142.67, 205.43 142.83, 205.59 143.0, 205.75 143.17, 205.91 143.33, 206.07 143.5, 206.22 143.67, 206.38 143.83, 206.54 144.0, 206.7 144.17, 206.86 144.33, 207.01 144.5, 207.17 144.67, 207.32 144.83, 207.48 145.0, 207.63 145.17, 207.79 145.33, 207.94 145.5, 208.09 145.67, 208.24 145.83, 208.4 146.0, 208.55 146.17, 208.7 146.33, 208.85 146.5, 209.0 146.67, 209.14 146.83, 209.29 147.0, 209.44 147.17, 209.59 147.33, 209.73 147.5, 209.88 147.67, 210.02 147.83, 210.17 148.0, 210.31 148.17, 210.45 148.33, 210.59 148.5, 210.73 148.67, 210.87 148.83, 211.01 149.0, 211.15 149.17, 211.29 149.33, 211.43 149.5, 211.56 149.67, 211.7 149.83, 211.84 150.0, 211.97 150.17, 212.1 150.33, 212.23 150.5, 212.37 150.67, 212.5 150.83, 212.63 151.0, 212.76 151.17, 212.88 151.33, 213.01 151.5, 213.14 151.67, 213.26 151.83, 213.39 152.0, 213.51 152.17, 213.63 152.33, 213.75 152.5, 213.87 152.67, 213.99 152.83, 214.11 153.0, 214.23 153.17, 214.35 153.33, 214.46 153.5, 214.58 153.67, 214.69 153.83, 214.8 154.0, 214.91 154.17, 215.02 154.33, 215.13 154.5, 215.24 154.67, 215.35 154.83, 215.46 155.0, 215.56 155.17, 215.67 155.33, 215.77 155.5, 215.87 155.67, 215.97 155.83, 216.07 156.0, 216.17 156.17, 216.27 156.33, 216.36 156.5, 216.46 156.67, 216.55 156.83, 216.65 157.0, 216.74 157.17, 216.83 157.33, 216.92 157.5, 217.01 157.67, 217.09 157.83, 217.18 158.0, 217.26 158.17, 217.35 158.33, 217.43 158.5, 217.51 158.67, 217.59 158.83, 217.67 159.0, 217.75 159.17, 217.82 159.33, 217.9 159.5, 217.97 159.67, 218.04 159.83, 218.12 160.0, 218.19 160.17, 218.25 160.33, 218.32 160.5, 218.39 160.67, 218.45 160.83, 218.52 161.0, 218.58 161.17, 218.64 161.33, 218.7 161.5, 218.76 161.67, 218.82 161.83, 218.87 162.0, 218.93 162.17, 218.98 162.33, 219.03 162.5, 219.08 162.67, 219.13 162.83, 219.18 163.0, 219.23 163.17, 219.27 163.33, 219.31 163.5, 219.36 163.67, 219.4 163.83, 219.44 164.0, 219.48 164.17, 219.51 164.33, 219.55 164.5, 219.58 164.67, 219.62 164.83, 219.65 165.0, 219.68 165.17, 219.71 165.33, 219.74 165.5, 219.76 165.67, 219.79 165.83, 219.81 166.0, 219.83 166.17, 219.85 166.33, 219.87 166.5, 219.89 166.67, 219.91 166.83, 219.92 167.0, 219.94 167.17, 219.95 167.33, 219.96 167.5, 219.97 167.67, 219.98 167.83, 219.99 168.0, 219.99 168.17, 220.0 168.33, 220.0 168.5, 220.0 168.67, 220.0 168.83, 220.0 169.0, 220.0 169.17, 219.99 169.33, 219.99 169.5, 219.98 169.67, 219.97 169.83, 219.96 170.0, 219.95 170.17, 219.94 170.33, 219.92 170.5, 219.91 170.67, 219.89 170.83, 219.87 171.0, 219.85 171.17, 219.83 171.33, 219.81 171.5, 219.79 171.67, 219.76 171.83, 219.74 172.0, 219.71 172.17, 219.68 172.33, 219.65 172.5, 219.62 172.67, 219.58 172.83, 219.55 173.0, 219.51 173.17, 219.48 173.33, 219.44 173.5, 219.4 173.67, 219.36 173.83, 219.32 174.0, 219.27 174.17, 219.23 174.33, 219.18 174.5, 219.13 174.67, 219.08 174.83, 219.03 175.0, 218.98 175.17, 218.93 175.33, 218.87 175.5, 218.82 175.67, 218.76 175.83, 218.7 176.0, 218.64 176.17, 218.58 176.33, 218.52 176.5, 218.45 176.67, 218.39 176.83, 218.32 177.0, 218.26 177.17, 218.19 177.33, 218.12 177.5, 218.05 177.67, 217.97 177.83, 217.9 178.0, 217.82 178.17, 217.75 178.33, 217.67 178.5, 217.59 178.67, 217.51 178.83, 217.43 179.0, 217.35 179.17, 217.26 179.33, 217.18 179.5, 217.09 179.67, 217.01 179.83, 216.92 180.0, 216.83 180.17, 216.74 180.33, 216.65 180.5, 216.55 180.67, 216.46 180.83, 216.36 181.0, 216.27 181.17, 216.17 181.33, 216.07 181.5, 215.97 181.67, 215.87 181.83, 215.77 182.0, 215.67 182.17, 215.56 182.33, 215.46 182.5, 215.35 182.67, 215.24 182.83, 215.14 183.0, 215.03 183.17, 214.92 183.33, 214.8 183.5, 214.69 183.67, 214.58 183.83, 214.46 184.0, 214.35 184.17, 214.23 184.33, 214.11 184.5, 213.99 184.67, 213.87 184.83, 213.75 185.0, 213.63 185.17, 213.51 185.33, 213.39 185.5, 213.26 185.67, 213.14 185.83, 213.01 186.0, 212.88 186.17, 212.76 186.33, 212.63 186.5, 212.5 186.67, 212.37 186.83, 212.24 187.0, 212.1 187.17, 211.97 187.33, 211.84 187.5, 211.7 187.67, 211.57 187.83, 211.43 188.0, 211.29 188.17, 211.15 188.33, 211.02 188.5, 210.88 188.67, 210.74 188.83, 210.6 189.0, 210.45 189.17, 210.31 189.33, 210.17 189.5, 210.02 189.67, 209.88 189.83, 209.73 190.0, 209.59 190.17, 209.44 190.33, 209.29 190.5, 209.15 190.67, 209.0 190.83, 208.85 191.0, 208.7 191.17, 208.55 191.33, 208.4 191.5, 208.25 191.67, 208.09 191.83, 207.94 192.0, 207.79 192.17, 207.63 192.33, 207.48 192.5, 207.33 192.67, 207.17 192.83, 207.01 193.0, 206.86 193.17, 206.7 193.33, 206.54 193.5, 206.39 193.67, 206.23 193.83, 206.07 194.0, 205.91 194.17, 205.75 194.33, 205.59 194.5, 205.43 194.67, 205.27 194.83, 205.11 195.0, 204.95 195.17, 204.79 195.33, 204.62 195.5, 204.46 195.67, 204.3 195.83, 204.14 196.0, 203.97 196.17, 203.81 196.33, 203.65 196.5, 203.48 196.67, 203.32 196.83, 203.15 197.0, 202.99 197.17, 202.82 197.33, 202.66 197.5, 202.49 197.67, 202.33 197.83, 202.16 198.0, 202.0 198.17, 201.83 198.33, 201.66 198.5, 201.5 198.67, 201.33 198.83, 201.17 199.0, 201.0 199.17, 200.83 199.33, 200.67 199.5, 200.5 199.67, 200.33 199.83, 200.17 200.0, 200.0 200.17, 199.83 200.33, 199.67 200.5, 199.5 200.67, 199.33 200.83, 199.17 201.0, 199.0 201.17, 198.83 201.33, 198.67 201.5, 198.5 201.67, 198.34 201.83, 198.17 202.0, 198.0 202.17, 197.84 202.33, 197.67 202.5, 197.51 202.67, 197.34 202.83, 197.18 203.0, 197.01 203.17, 196.85 203.33, 196.68 203.5, 196.52 203.67, 196.35 203.83, 196.19 204.0, 196.03 204.17, 195.86 204.33, 195.7 204.5, 195.54 204.67, 195.38 204.83, 195.21 205.0, 195.05 205.17, 194.89 205.33, 194.73 205.5, 194.57 205.67, 194.41 205.83, 194.25 206.0, 194.09 206.17, 193.93 206.33, 193.77 206.5, 193.61 206.67, 193.46 206.83, 193.3 207.0, 193.14 207.17, 192.99 207.33, 192.83 207.5, 192.67 207.67, 192.52 207.83, 192.37 208.0, 192.21 208.17, 192.06 208.33, 191.91 208.5, 191.75 208.67, 191.6 208.83, 191.45 209.0, 191.3 209.17, 191.15 209.33, 191.0 209.5, 190.85 209.67, 190.71 209.83, 190.56 210.0, 190.41 210.17, 190.27 210.33, 190.12 210.5, 189.98 210.67, 189.83 210.83, 189.69 211.0, 189.55 211.17, 189.4 211.33, 189.26 211.5, 189.12 211.67, 188.98 211.83, 188.85 212.0, 188.71 212.17, 188.57 212.33, 188.43 212.5, 188.3 212.67, 188.16 212.83, 188.03 213.0, 187.9 213.17, 187.76 213.33, 187.63 213.5, 187.5 213.67, 187.37 213.83, 187.24 214.0, 187.12 214.17, 186.99 214.33, 186.86 214.5, 186.74 214.67, 186.61 214.83, 186.49 215.0, 186.37 215.17, 186.25 215.33, 186.13 215.5, 186.01 215.67, 185.89 215.83, 185.77 216.0, 185.65 216.17, 185.54 216.33, 185.42 216.5, 185.31 216.67, 185.2 216.83, 185.08 217.0, 184.97 217.17, 184.86 217.33, 184.76 217.5, 184.65 217.67, 184.54 217.83, 184.44 218.0, 184.33 218.17, 184.23 218.33, 184.13 218.5, 184.03 218.67, 183.93 218.83, 183.83 219.0, 183.73 219.17, 183.64 219.33, 183.54 219.5, 183.45 219.67, 183.35 219.83, 183.26 220.0, 183.17 220.17, 183.08 220.33, 182.99 220.5, 182.91 220.67, 182.82 220.83, 182.74 221.0, 182.65 221.17, 182.57 221.33, 182.49 221.5, 182.41 221.67, 182.33 221.83, 182.25 222.0, 182.18 222.17, 182.1 222.33, 182.03 222.5, 181.95 222.67, 181.88 222.83, 181.81 223.0, 181.74 223.17, 181.68 223.33, 181.61 223.5, 181.55 223.67, 181.48 223.83, 181.42 224.0, 181.36 224.17, 181.3 224.33, 181.24 224.5, 181.18 224.67, 181.13 224.83, 181.07 225.0, 181.02 225.17, 180.97 225.33, 180.92 225.5, 180.87 225.67, 180.82 225.83, 180.77 226.0, 180.73 226.17, 180.68 226.33, 180.64 226.5, 180.6 226.67, 180.56 226.83, 180.52 227.0, 180.49 227.17, 180.45 227.33, 180.42 227.5, 180.38 227.67, 180.35 227.83, 180.32 228.0, 180.29 228.17, 180.26 228.33, 180.24 228.5, 180.21 228.67, 180.19 228.83, 180.17 229.0, 180.15 229.17, 180.13 229.33, 180.11 229.5, 180.09 229.67, 180.08 229.83, 180.06 230.0, 180.05 230.17, 180.04 230.33, 180.03 230.5, 180.02 230.67, 180.01 230.83, 180.01 231.0, 180.0 231.17, 180.0 231.33, 180.0 231.5, 180.0 231.67, 180.0 231.83, 180.0 232.0, 180.01 232.17, 180.01 232.33, 180.02 232.5, 180.03 232.67, 180.04 232.83, 180.05 233.0, 180.06 233.17, 180.08 233.33, 180.09 233.5, 180.11 233.67, 180.13 233.83, 180.15 234.0, 180.17 234.17, 180.19 234.33, 180.21 234.5, 180.24 234.67, 180.26 234.83, 180.29 235.0, 180.32 235.17, 180.35 235.33, 180.38 235.5, 180.42 235.67, 180.45 235.83, 180.49 236.0, 180.52 236.17, 180.56 236.33, 180.6 236.5, 180.64 236.67, 180.69 236.83, 180.73 237.0, 180.77 237.17, 180.82 237.33, 180.87 237.5, 180.92 237.67, 180.97 237.83, 181.02 238.0, 181.07 238.17, 181.13 238.33, 181.18 238.5, 181.24 238.67, 181.3 238.83, 181.36 239.0, 181.42 239.17, 181.48 239.33, 181.55 239.5, 181.61 239.67, 181.68 239.83, 181.75 240.0, 181.81 240.17, 181.88 240.33, 181.96 240.5, 182.03 240.67, 182.1 240.83, 182.18 241.0, 182.25 241.17, 182.33 241.33, 182.41 241.5, 182.49 241.67, 182.57 241.83, 182.65 242.0, 182.74 242.17, 182.82 242.33, 182.91 242.5, 182.99 242.67, 183.08 242.83, 183.17 243.0, 183.26 243.17, 183.35 243.33, 183.45 243.5, 183.54 243.67, 183.64 243.83, 183.73 244.0, 183.83 244.17, 183.93 244.33, 184.03 244.5, 184.13 244.67, 184.23 244.83, 184.33 245.0, 184.44 245.17, 184.54 245.33, 184.65 245.5, 184.76 245.67, 184.87 245.83, 184.98 246.0, 185.09 246.17, 185.2 246.33, 185.31 246.5, 185.42 246.67, 185.54 246.83, 185.65 247.0, 185.77 247.17, 185.89 247.33, 186.01 247.5, 186.13 247.67, 186.25 247.83, 186.37 248.0, 186.49 248.17, 186.61 248.33, 186.74 248.5, 186.86 248.67, 186.99 248.83, 187.12 249.0, 187.24 249.17, 187.37 249.33, 187.5 249.5, 187.63 249.67, 187.77 249.83, 187.9 250.0, 188.03 250.17, 188.16 250.33, 188.3 250.5, 188.44 250.67, 188.57 250.83, 188.71 251.0, 188.85 251.17, 188.99 251.33, 189.13 251.5, 189.27 251.67, 189.41 251.83, 189.55 252.0, 189.69 252.17, 189.83 252.33, 189.98 252.5, 190.12 252.67, 190.27 252.83, 190.41 253.0, 190.56 253.17, 190.71 253.33, 190.86 253.5, 191.0 253.67, 191.15 253.83, 191.3 254.0, 191.45 254.17, 191.6 254.33, 191.76 254.5, 191.91 254.67, 192.06 254.83, 192.21 255.0, 192.37 255.17, 192.52 255.33, 192.68 255.5, 192.83 255.67, 192.99 255.83, 193.14 256.0, 193.3 256.17, 193.46 256.33, 193.62 256.5, 193.78 256.67, 193.93 256.83, 194.09 257.0, 194.25 257.17, 194.41 257.33, 194.57 257.5, 194.73 257.67, 194.89 257.83, 195.06 258.0, 195.22 258.17, 195.38 258.33, 195.54 258.5, 195.7 258.67, 195.87 258.83, 196.03 259.0, 196.19 259.17, 196.36 259.33, 196.52 259.5, 196.69 259.67, 196.85 259.83, 197.02 260.0, 197.18 260.17, 197.35 260.33, 197.51 260.5, 197.68 260.67, 197.84 260.83, 198.01 261.0, 198.18 261.17, 198.34 261.33, 198.51 261.5, 198.67 261.67, 198.84 261.83, 199.01 262.0, 199.17 262.17, 199.34 262.33, 199.51 262.5, 199.67 262.67, 199.84 262.83, 200.01 263.0, 200.18 263.17, 200.34 263.33, 200.51 263.5, 200.68 263.67, 200.84 263.83, 201.01 264.0, 201.18 264.17, 201.34 264.33, 201.51 264.5, 201.68 264.67, 201.84 264.83, 202.01 265.0, 202.17 265.17, 202.34 265.33, 202.51 265.5, 202.67 265.67, 202.84 265.83, 203.0 266.0, 203.17 266.17, 203.33 266.33, 203.5 266.5, 203.66 266.67, 203.83 266.83, 203.99 267.0, 204.15 267.17, 204.32 267.33, 204.48 267.5, 204.64 267.67, 204.81 267.83, 204.97 268.0, 205.13 268.17, 205.29 268.33, 205.45 268.5, 205.61 268.67, 205.77 268.83, 205.93 269.0, 206.09 269.17, 206.25 269.33, 206.41 269.5, 206.57 269.67, 206.73 269.83, 206.89 270.0, 207.04 270.17, 207.2 270.33, 207.36 270.5, 207.51 270.67, 207.67 270.83, 207.82 271.0, 207.98 271.17, 208.13 271.33, 208.28 271.5, 208.44 271.67, 208.59 271.83, 208.74 272.0, 208.89 272.17, 209.04 272.33, 209.19 272.5, 209.34 272.67, 209.49 272.83, 209.64 273.0, 209.78 273.17, 209.93 273.33, 210.08 273.5, 210.22 273.67, 210.37 273.83, 210.51 274.0, 210.65 274.17, 210.8 274.33, 210.94 274.5, 211.08 274.67, 211.22 274.83, 211.36 275.0, 211.5 275.17, 211.64 275.33, 211.77 275.5, 211.91 275.67, 212.05 275.83, 212.18 276.0, 212.32 276.17, 212.45 276.33, 212.58 276.5, 212.71 276.67, 212.85 276.83, 212.98 277.0, 213.11 277.17, 213.23 277.33, 213.36 277.5, 213.49 277.67, 213.62 277.83, 213.74 278.0, 213.86 278.17, 213.99 278.33, 214.11 278.5, 214.23 278.67, 214.35 278.83, 214.47 279.0, 214.59 279.17, 214.71 279.33, 214.83 279.5, 214.94 279.67, 215.06 279.83, 215.17 280.0, 215.29 280.17, 215.4 280.33, 215.51 280.5, 215.62 280.67, 215.73 280.83, 215.84 281.0, 215.95 281.17, 216.05 281.33, 216.16 281.5, 216.27 281.67, 216.37 281.83, 216.47 282.0, 216.57 282.17, 216.67 282.33, 216.77 282.5, 216.87 282.67, 216.97 282.83, 217.07 283.0, 217.16 283.17, 217.26 283.33, 217.35 283.5, 217.44 283.67, 217.53 283.83, 217.63 284.0, 217.71 284.17, 217.8 284.33, 217.89 284.5, 217.98 284.67, 218.06 284.83, 218.15 285.0, 218.23 285.17, 218.31 285.33, 218.39 285.5, 218.47 285.67, 218.55 285.83, 218.63 286.0, 218.71 286.17, 218.78 286.33, 218.86 286.5, 218.93 286.67, 219.0 286.83, 219.07 287.0, 219.14 287.17, 219.21 287.33, 219.28 287.5, 219.35 287.67, 219.42 287.83, 219.48 288.0, 219.54 288.17, 219.61 288.33, 219.67 288.5, 219.73 288.67, 219.79 288.83, 219.85 289.0, 219.91 289.17, 219.96 289.33, 220.02 289.5, 220.08 289.67, 220.13 289.83, 220.18 290.0, 220.23 290.17, 220.28 290.33, 220.33 290.5, 220.38 290.67, 220.43 290.83, 220.48 291.0, 220.52 291.17, 220.57 291.33, 220.61 291.5, 220.65 291.67, 220.7 291.83, 220.74 292.0, 220.78 292.17, 220.82 292.33, 220.86 292.5, 220.89 292.67, 220.93 292.83, 220.96 293.0, 221.0 293.17, 221.03 293.33, 221.06 293.5, 221.1 293.67, 221.13 293.83, 221.16 294.0, 221.19 294.17, 221.22 294.33, 221.24 294.5, 221.27 294.67, 221.3 294.83, 221.32 295.0, 221.35 295.17, 221.37 295.33, 221.39 295.5, 221.42 295.67, 221.44 295.83, 221.46 296.0, 221.48 296.17, 221.5 296.33, 221.52 296.5, 221.53 296.67, 221.55 296.83, 221.57 297.0, 221.58 297.17, 221.6 297.33, 221.61 297.5, 221.63 297.67, 221.64 297.83, 221.66 298.0, 221.67 298.17, 221.68 298.33, 221.69 298.5, 221.71 298.67, 221.72 298.83, 221.73 299.0, 221.74 299.17, 221.75 299.33, 221.76 299.5, 221.76 299.67, 221.77 299.83, 221.78 300.0, 221.79 300.17, 221.8 300.33, 221.81 300.5, 221.81 300.67, 221.82 300.83, 221.83 301.0, 221.83 301.17, 221.84 301.33, 221.85 301.5, 221.85 301.67, 221.86 301.83, 221.87 302.0, 221.87 302.17, 221.88 302.33, 221.89 302.5, 221.89 302.67, 221.9 302.83, 221.91 303.0, 221.92 303.17, 221.92 303.33, 221.93 303.5, 221.94 303.67, 221.95 303.83, 221.96 304.0, 221.97 304.17, 221.97 304.33, 221.98 304.5, 221.99 304.67, 222.01 304.83, 222.02 305.0, 222.03 305.17, 222.04 305.33, 222.05 305.5, 222.07 305.67, 222.08 305.83, 222.1 306.0, 222.11 306.17, 222.13 306.33, 222.15 306.5, 222.17 306.67, 222.19 306.83, 222.21 307.0, 222.23 307.17, 222.25 307.33, 222.28 307.5, 222.3 307.67, 222.33 307.83, 222.36 308.0, 222.38 308.17, 222.41 308.33, 222.45 308.5, 222.48 308.67, 222.51 308.83, 222.55 309.0, 222.59 309.17, 222.63 309.33, 222.67 309.5, 222.71 309.67, 222.76 309.83, 222.8 310.0, 222.85 310.17, 222.9 310.33, 222.95 310.5, 223.01 310.67, 223.06 310.83, 223.12 311.0, 223.18 311.17, 223.25 311.33, 223.31 311.5, 223.38 311.67, 223.45 311.83, 223.52 312.0, 223.6 312.17, 223.68 312.33, 223.76 312.5, 223.84 312.67, 223.93 312.83, 224.02 313.0, 224.11 313.17, 224.21 313.33, 224.31 313.5, 224.41 313.67, 224.51 313.83, 224.62 314.0, 224.73 314.17, 224.85 314.33, 224.97 314.5, 225.09 314.67, 225.22 314.83, 225.35 315.0, 225.48 315.17, 225.62 315.33, 225.76 315.5, 225.91 315.67, 226.06 315.83, 226.22 316.0, 226.38 316.17, 226.54 316.33, 226.71 316.5, 226.88 316.67, 227.06 316.83, 227.24 317.0, 227.43 317.17, 227.62 317.33, 227.82 317.5, 228.02 317.67, 228.23 317.83, 228.45 318.0, 228.67 318.17, 228.89 318.33, 229.12 318.5, 229.36 318.67, 229.6 318.83, 229.85 319.0, 230.1 319.17, 230.36 319.33, 230.63 319.5, 230.91 319.67, 231.19 319.83, 231.47 320.0, 231.77 320.17, 232.07 320.33, 232.38 320.5, 232.69 320.67, 233.01 320.83, 233.34 321.0, 233.68 321.17, 234.02 321.33, 234.38 321.5, 234.74 321.67, 235.11 321.83, 235.48 322.0, 235.87 322.17, 236.26 322.33, 236.66 322.5, 237.07 322.67, 237.49 322.83, 237.92 323.0, 238.36 323.17, 238.8 323.33, 239.26 323.5, 239.73 323.67, 240.2 323.83, 240.69 324.0, 241.18 324.17, 241.69 324.33, 242.2 324.5, 242.73 324.67, 243.27 324.83, 243.82 325.0, 244.37 325.17, 244.94 325.33, 245.53 325.5, 246.12 325.67, 246.72 325.83, 247.34 326.0, 247.97 326.17, 248.61 326.33, 249.26 326.5, 249.92 326.67, 250.6 326.83, 251.29 327.0, 252.0 327.17, 252.71 327.33, 253.45 327.5, 254.19 327.67, 254.95 327.83, 255.72 328.0, 256.51 328.17, 257.31 328.33, 258.12 328.5, 258.95 328.67, 259.8 328.83, 260.66 329.0, 261.54 329.17, 262.43 329.33, 263.34 329.5, 264.26 329.67, 265.2 329.83, 266.16 330.0, 267.13 330.17, 268.12 330.33, 269.13 330.5, 270.16 330.67, 271.2 330.83, 272.26 331.0, 273.34 331.17, 274.44 331.33, 275.56 331.5, 276.69 331.67, 277.85 331.83, 279.02 332.0, 280.22 332.17, 281.43 332.33, 282.67 332.5, 283.93 332.67, 285.2 332.83, 286.5 333.0, 287.82 333.17, 289.16 333.33, 290.53 333.5, 291.91 333.67, 293.32 333.83, 294.75 334.0, 296.21 334.17, 297.68 334.33, 299.18 334.5, 300.71 334.67, 302.26 334.83, 303.84 335.0, 305.44 335.17, 307.06 335.33, 308.71 335.5, 310.39 335.67, 312.09 335.83, 313.82 336.0, 315.58 336.17, 317.37 336.33, 319.18 336.5, 321.02 336.67, 322.89 336.83, 324.78 337.0, 326.71 337.17, 328.67 337.33, 330.66 337.5, 332.67 337.67, 334.72 337.83, 336.8 338.0, 338.91 338.17, 341.05 338.33, 343.22 338.5, 345.43 338.67, 347.67 338.83, 349.94 339.0, 352.25 339.17, 354.59 339.33, 356.97 339.5, 359.38 339.67, 361.82 339.83, 364.31 340.0, 366.83 340.17, 369.38 340.33, 371.98 340.5, 374.61 340.67, 377.28 340.83, 379.98 341.0, 382.73 341.17, 385.52 341.33, 388.34 341.5, 391.21 341.67, 394.12 341.83, 397.07 342.0, 400.06 342.17, 403.1 342.33, 406.18 342.5, 409.3 342.67, 412.46 342.83, 415.67 343.0, 418.93 343.17, 422.23 343.33, 425.58 343.5, 428.97 343.67, 432.41 343.83, 435.9 344.0, 439.44 344.17, 443.03 344.33, 446.66 344.5, 450.35 344.67, 454.09 344.83, 457.88 345.0, 461.72 345.17, 465.61 345.33, 469.56 345.5, 473.56 345.67, 477.62 345.83, 481.73 346.0, 485.89 346.17, 490.11 346.33, 494.39 346.5, 498.73 346.67, 503.13 346.83, 507.58 347.0, 512.09 347.17, 516.67 347.33, 521.3 347.5, 526.0 347.67, 530.76 347.83, 535.58 348.0, 540.47 348.17, 545.42 348.33, 550.44 348.5, 555.52 348.67, 560.67 348.83, 565.89 349.0, 571.17 349.17, 576.53 349.33, 581.95 349.5, 587.44 349.67, 593.01 349.83, 598.65 350.0, 604.36 350.17, 610.15 350.33, 616.01 350.5, 621.94 350.67, 627.96 350.83, 634.04 351.0, 640.21 351.17, 646.46 351.33, 652.79 351.5, 659.19 351.67, 665.68 351.83, 672.25 352.0, 678.91 352.17, 685.65 352.33, 692.47 352.5, 699.38 352.67, 706.38 352.83, 713.46 353.0, 720.64 353.17, 727.9 353.33, 735.26 353.5, 742.71 353.67, 750.25 353.83, 757.88 354.0, 765.61 354.17, 773.44 354.33, 781.36 354.5, 789.38 354.67, 797.5 354.83, 805.72 355.0, 814.05 355.17, 822.47 355.33, 831.0 355.5, 839.63 355.67, 848.37 355.83, 857.21 356.0, 866.17 356.17, 875.23 356.33, 884.4 356.5, 893.69 356.67, 903.09 356.83, 912.6 357.0, 922.22 357.17, 931.97 357.33, 941.83 357.5, 951.81 357.67, 961.9 357.83, 972.13 358.0, 982.47 358.17, 992.94 358.33, 1003.53 358.5, 1014.25 358.67, 1025.09 358.83, 1036.07 359.0, 1047.18 359.17, 1058.42 359.33, 1069.79 359.5, 1081.3 359.67, 1092.94 359.83, 1104.72 360.0, 1116.64 360.17, 1128.7 360.33, 1140.9 360.5, 1153.24 360.67, 1165.73 360.83, 1178.37 361.0, 1191.15 361.17, 1204.09 361.33, 1217.17 361.5, 1230.41 361.67, 1243.8 361.83, 1257.34 362.0, 1271.05 362.17, 1284.91 362.33, 1298.93 362.5, 1313.11 362.67, 1327.46 362.83, 1341.98 363.0, 1356.66 363.17, 1371.5 363.33, 1386.52 363.5, 1401.71 363.67, 1417.08 363.83, 1432.62 364.0, 1448.34 364.17, 1464.24 364.33, 1480.32 364.5, 1496.58 364.67, 1513.02 364.83, 1529.66 365.0, 1546.48 365.17, 1563.49 365.33, 1580.69 365.5, 1598.09 365.67, 1615.68 365.83, 1633.47 366.0, 1651.47 366.17, 1669.66 366.33, 1688.06 366.5, 1706.66 366.67, 1725.47 366.83, 1744.49 367.0, 1763.73 367.17, 1783.17 367.33, 1802.84 367.5, 1822.72 367.67, 1842.82 367.83, 1863.15 368.0, 1883.7 368.17, 1904.48 368.33, 1925.49 368.5, 1946.73 368.67, 1968.2 368.83, 1989.91 369.0, 2011.86 369.17, 2034.05 369.33, 2056.48 369.5, 2079.16 369.67, 2102.09 369.83, 2125.26 370.0, 2148.69 370.17, 2172.38 370.33, 2196.32 370.5, 2220.52 370.67, 2244.99 370.83, 2269.72 371.0, 2294.72 371.17, 2319.99 371.33, 2345.53 371.5, 2371.35 371.67, 2397.44 371.83, 2423.82 372.0, 2450.48 372.17, 2477.42 372.33, 2504.66 372.5, 2532.19 372.67, 2560.01 372.83, 2588.13 373.0, 2616.55 373.17, 2645.27 373.33, 2674.3 373.5, 2703.63 373.67, 2733.28 373.83, 2763.25 374.0, 2793.53 374.17, 2824.13 374.33, 2855.05 374.5, 2886.3 374.67, 2917.89 374.83, 2949.8 375.0, 2982.05 375.17, 3014.64 375.33, 3047.57 375.5, 3080.85 375.67, 3114.47 375.83, 3148.45 376.0, 3182.78 376.17, 3217.48 376.33, 3252.53 376.5, 3287.95 376.67, 3323.73 376.83, 3359.89 377.0, 3396.43 377.17, 3433.34 377.33, 3470.64 377.5, 3508.32 377.67, 3546.39 377.83, 3584.85 378.0, 3623.71 378.17, 3662.97 378.33, 3702.64 378.5, 3742.71 378.67, 3783.2 378.83, 3824.09 379.0, 3865.41 379.17, 3907.15 379.33, 3949.32 379.5, 3991.92 379.67, 4034.95 379.83, 4078.42 380.0, 4122.33 380.17, 4166.69 380.33, 4211.5 380.5, 4256.76 380.67, 4302.49 380.83, 4348.67 381.0, 4395.32 381.17, 4442.44 381.33, 4490.04 381.5, 4538.12 381.67, 4586.68 381.83, 4635.73 382.0, 4685.27 382.17, 4735.31 382.33, 4785.85 382.5, 4836.89 382.67, 4888.45 382.83, 4940.52 383.0, 4993.11 383.17, 5046.22 383.33, 5099.86 383.5, 5154.04 383.67, 5208.75 383.83, 5264.01 384.0, 5319.81 384.17, 5376.17 384.33, 5433.08 384.5, 5490.55 384.67, 5548.6 384.83, 5607.21 385.0, 5666.4 385.17, 5726.18 385.33, 5786.54 385.5, 5847.49 385.67, 5909.04 385.83, 5971.19 386.0, 6033.96 386.17, 6097.33 386.33, 6161.32 386.5, 6225.94 386.67, 6291.19 386.83, 6357.07 387.0, 6423.59 387.17, 6490.76 387.33, 6558.57 387.5, 6627.05 387.67, 6696.19 387.83, 6766.0 388.0, 6836.48 388.17, 6907.64 388.33, 6979.48 388.5, 7052.02 388.67, 7125.26 388.83, 7199.2 389.0, 7273.84 389.17, 7349.21 389.33, 7425.29 389.5, 7502.11 389.67, 7579.66 389.83, 7657.94 390.0, 7736.98 390.17, 7816.76 390.33, 7897.31 390.5, 7978.62 390.67, 8060.71 390.83, 8143.57 391.0, 8227.22 391.17, 8311.66 391.33, 8396.89 391.5, 8482.94 391.67, 8569.79 391.83, 8657.46 392.0, 8745.96 392.17, 8835.29 392.33, 8925.46 392.5, 9016.48 392.67, 9108.35 392.83, 9201.08 393.0, 9294.68 393.17, 9389.15 393.33, 9484.51 393.5, 9580.75 393.67, 9677.9 393.83, 9775.94 394.0, 9874.9 394.17, 9974.78 394.33, 10075.58 394.5, 10177.32 394.67, 10280.0 394.83, 10383.63 395.0, 10488.22 395.17, 10593.77 395.33, 10700.3 395.5, 10807.81 395.67, 10916.31 395.83, 11025.8 396.0, 11136.3 396.17, 11247.82 396.33, 11360.35 396.5, 11473.92 396.67, 11588.53 396.83, 11704.18 397.0, 11820.89 397.17, 11938.66 397.33, 12057.51 397.5, 12177.44 397.67, 12298.46 397.83, 12420.57 398.0, 12543.8 398.17, 12668.14 398.33, 12793.61 398.5, 12920.21 398.67, 13047.96 398.83, 13176.85 399.0, 13306.92 399.17, 13438.15 399.33, 13570.56 399.5, 13704.17 399.67, 13838.97 399.83, 13974.98 400.0, 14112.21 " fill="none" stroke="white" stroke-width="1.5" stroke-linejoin="round" stroke-opacity="1"/>

 </svg>