<svg version="1.1" 
 baseProfile="full" 
 width="400" 
 height="400" 
 xmlns="http://www.w3.org/2000/svg">
<rect x="0.0" y="0.0" width="400" height="400" fill="black" stroke="black" stroke-width="0" opacity="1"/>
<line x1="0.0" y1="0.0" x2="0.0" y2="400.0" stroke="white" stroke-width="1" opacity="0.4" stroke-linecap="butt"/>
<line x1="40.0" y1="0.0" x2="40.0" y2="400.0" stroke="white" stroke-width="1" opacity="0.4" stroke-linecap="butt"/>
<line x1="80.0" y1="0.0" x2="80.0" y2="400.0" stroke="white" stroke-width="1" opacity="0.4" stroke-linecap="butt"/>
<line x1="120.0" y1="0.0" x2="120.0" y2="400.0" stroke="white" stroke-width="1" opacity="0.4" stroke-linecap="butt"/>
<line x1="160.0" y1="0.0" x2="160.0" y2="400.0" stroke="white" stroke-width="1" opacity="0.4" stroke-linecap="butt"/>
<line x1="200.0" y1="0.0" x2="200.0" y2="400.0" stroke="white" stroke-width="1" opacity="0.4" stroke-linecap="butt"/>
<line x1="240.0" y1="0.0" x2="240.0" y2="400.0" stroke="white" stroke-width="1" opacity="0.4" stroke-linecap="butt"/>
<line x1="280.0" y1="0.0" x2="280.0" y2="400.0" stroke="white" stroke-width="1" opacity="0.4" stroke-linecap="butt"/>
<line x1="320.0" y1="0.0" x2="320.0" y2="400.0" stroke="white" stroke-width="1" opacity="0.4" stroke-linecap="butt"/>
<line x1="360.0" y1="0.0" x2="360.0" y2="400.0" stroke="white" stroke-width="1" opacity="0.4" stroke-linecap="butt"/>
<line x1="0.0" y1="0.0" x2="400.0" y2="0.0" stroke="white" stroke-width="1" opacity="0.4" stroke-linecap="butt"/>
<line x1="0.0" y1="40.0" x2="400.0" y2="40.0" stroke="white" stroke-width="1" opacity="0.4" stroke-linecap="butt"/>
<line x1="0.0" y1="80.0" x2="400.0" y2="80.0" stroke="white" stroke-width="1" opacity="0.4" stroke-linecap="butt"/>
<line x1="0.0" y1="120.0" x2="400.0" y2="120.0" stroke="white" stroke-width="1" opacity="0.4" stroke-linecap="butt"/>
<line x1="0.0" y1="160.0" x2="400.0" y2="160.0" stroke="white" stroke-width="1" opacity="0.4" stroke-linecap="butt"/>
<line x1="0.0" y1="200.0" x2="400.0" y2="200.0" stroke="white" stroke-width="1" opacity="0.4" stroke-linecap="butt"/>
<line x1="0.0" y1="240.0" x2="400.0" y2="240.0" stroke="white" stroke-width="1" opacity="0.4" stroke-linecap="butt"/>
<line x1="0.0" y1="280.0" x2="400.0" y2="280.0" stroke="white" stroke-width="1" opacity="0.4" stroke-linecap="butt"/>
<line x1="0.0" y1="320.0" x2="400.0" y2="320.0" stroke="white" stroke-width="1" opacity="0.4" stroke-linecap="butt"/>
<line x1="0.0" y1="360.0" x2="400.0" y2="360.0" stroke="white" stroke-width="1" opacity="0.4" stroke-linecap="butt"/>
<line x1="0.0" y1="200.0" x2="400.0" y2="200.0" stroke="yellow" stroke-width="2.5" opacity="1" stroke-linecap="butt"/>
<line x1="200.0" y1="0.0" x2="200.0" y2="400.0" stroke="yellow" stroke-width="2.5" opacity="1" stroke-linecap="butt"/>
<polygon points="391.0 204.0, 401.0 200.0, 391.0 196.0, 393.0 200.0" fill="yellow"/><polygon points="204.0 9.0, 200.0 -1.0, 196.0 9.0, 200.0 7.0" fill="yellow"/><image x="-60.0" y="-60.0" width="200" height="200" href="/Users/girirajhira/PycharmProjects/Giraphics3/Taylor/expr.png"/><polyline points="0.0, -16522.55 0.17, -16355.02 0.33, -16189.02 0.5, -16024.52 0.67, -15861.52 0.83, -15700.0 1.0, -15539.96 1.17, -15381.37 1.33, -15224.23 1.5, -15068.53 1.67, -14914.25 1.83, -14761.39 2.0, -14609.92 2.17, -14459.85 2.33, -14311.15 2.5, -14163.82 2.67, -14017.85 2.83, -13873.21 3.0, -13729.92 3.17, -13587.94 3.33, -13447.28 3.5, -13307.91 3.67, -13169.84 3.83, -13033.04 4.0, -12897.51 4.17, -12763.24 4.33, -12630.22 4.5, -12498.43 4.67, -12367.87 4.83, -12238.53 5.0, -12110.39 5.17, -11983.45 5.33, -11857.69 5.5, -11733.11 5.67, -11609.7 5.83, -11487.44 6.0, -11366.33 6.17, -11246.36 6.33, -11127.51 6.5, -11009.78 6.67, -10893.16 6.83, -10777.64 7.0, -10663.21 7.17, -10549.86 7.33, -10437.58 7.5, -10326.37 7.67, -10216.2 7.83, -10107.09 8.0, -9999.0 8.17, -9891.95 8.33, -9785.91 8.5, -9680.88 8.67, -9576.85 8.83, -9473.82 9.0, -9371.76 9.17, -9270.69 9.33, -9170.58 9.5, -9071.43 9.67, -8973.22 9.83, -8875.96 10.0, -8779.64 10.17, -8684.24 10.33, -8589.76 10.5, -8496.19 10.67, -8403.52 10.83, -8311.74 11.0, -8220.86 11.17, -8130.85 11.33, -8041.71 11.5, -7953.44 11.67, -7866.02 11.83, -7779.45 12.0, -7693.72 12.17, -7608.83 12.33, -7524.76 12.5, -7441.51 12.67, -7359.08 12.83, -7277.45 13.0, -7196.62 13.17, -7116.58 13.33, -7037.32 13.5, -6958.84 13.67, -6881.13 13.83, -6804.19 14.0, -6728.0 14.17, -6652.57 14.33, -6577.87 14.5, -6503.92 14.67, -6430.69 14.83, -6358.19 15.0, -6286.4 15.17, -6215.33 15.33, -6144.96 15.5, -6075.29 15.67, -6006.32 15.83, -5938.02 16.0, -5870.41 16.17, -5803.48 16.33, -5737.21 16.5, -5671.6 16.67, -5606.65 16.83, -5542.35 17.0, -5478.69 17.17, -5415.68 17.33, -5353.29 17.5, -5291.54 17.67, -5230.4 17.83, -5169.88 18.0, -5109.97 18.17, -5050.66 18.33, -4991.96 18.5, -4933.85 18.67, -4876.32 18.83, -4819.38 19.0, -4763.02 19.17, -4707.23 19.33, -4652.0 19.5, -4597.34 19.67, -4543.24 19.83, -4489.69 20.0, -4436.68 20.17, -4384.22 20.33, -4332.29 20.5, -4280.9 20.67, -4230.03 20.83, -4179.68 21.0, -4129.85 21.17, -4080.54 21.33, -4031.73 21.5, -3983.43 21.67, -3935.62 21.83, -3888.31 22.0, -3841.49 22.17, -3795.15 22.33, -3749.29 22.5, -3703.91 22.67, -3659.0 22.83, -3614.55 23.0, -3570.57 23.17, -3527.05 23.33, -3483.98 23.5, -3441.36 23.67, -3399.19 23.83, -3357.45 24.0, -3316.16 24.17, -3275.3 24.33, -3234.86 24.5, -3194.86 24.67, -3155.27 24.83, -3116.1 25.0, -3077.34 25.17, -3039.0 25.33, -3001.05 25.5, -2963.51 25.67, -2926.37 25.83, -2889.62 26.0, -2853.26 26.17, -2817.29 26.33, -2781.7 26.5, -2746.49 26.67, -2711.65 26.83, -2677.19 27.0, -2643.09 27.17, -2609.36 27.33, -2575.99 27.5, -2542.98 27.67, -2510.32 27.83, -2478.02 28.0, -2446.06 28.17, -2414.45 28.33, -2383.17 28.5, -2352.24 28.67, -2321.64 28.83, -2291.37 29.0, -2261.42 29.17, -2231.81 29.33, -2202.51 29.5, -2173.53 29.67, -2144.87 29.83, -2116.52 30.0, -2088.48 30.17, -2060.74 30.33, -2033.31 30.5, -2006.18 30.67, -1979.35 30.83, -1952.81 31.0, -1926.56 31.17, -1900.6 31.33, -1874.93 31.5, -1849.54 31.67, -1824.43 31.83, -1799.59 32.0, -1775.03 32.17, -1750.75 32.33, -1726.73 32.5, -1702.98 32.67, -1679.49 32.83, -1656.27 33.0, -1633.3 33.17, -1610.59 33.33, -1588.14 33.5, -1565.93 33.67, -1543.97 33.83, -1522.26 34.0, -1500.79 34.17, -1479.57 34.33, -1458.58 34.5, -1437.83 34.67, -1417.31 34.83, -1397.03 35.0, -1376.97 35.17, -1357.14 35.33, -1337.54 35.5, -1318.15 35.67, -1298.99 35.83, -1280.05 36.0, -1261.32 36.17, -1242.8 36.33, -1224.5 36.5, -1206.41 36.67, -1188.52 36.83, -1170.84 37.0, -1153.36 37.17, -1136.08 37.33, -1119.0 37.5, -1102.11 37.67, -1085.43 37.83, -1068.93 38.0, -1052.62 38.17, -1036.51 38.33, -1020.58 38.5, -1004.83 38.67, -989.27 38.83, -973.89 39.0, -958.69 39.17, -943.66 39.33, -928.81 39.5, -914.14 39.67, -899.64 39.83, -885.3 40.0, -871.14 40.17, -857.14 40.33, -843.31 40.5, -829.64 40.67, -816.13 40.83, -802.78 41.0, -789.58 41.17, -776.55 41.33, -763.67 41.5, -750.94 41.67, -738.37 41.83, -725.94 42.0, -713.66 42.17, -701.53 42.33, -689.54 42.5, -677.7 42.67, -666.0 42.83, -654.44 43.0, -643.02 43.17, -631.74 43.33, -620.59 43.5, -609.58 43.67, -598.7 43.83, -587.95 44.0, -577.34 44.17, -566.85 44.33, -556.49 44.5, -546.26 44.67, -536.15 44.83, -526.16 45.0, -516.3 45.17, -506.56 45.33, -496.93 45.5, -487.43 45.67, -478.04 45.83, -468.77 46.0, -459.61 46.17, -450.57 46.33, -441.64 46.5, -432.82 46.67, -424.11 46.83, -415.5 47.0, -407.01 47.17, -398.62 47.33, -390.33 47.5, -382.15 47.67, -374.07 47.83, -366.09 48.0, -358.22 48.17, -350.44 48.33, -342.76 48.5, -335.18 48.67, -327.69 48.83, -320.3 49.0, -313.0 49.17, -305.8 49.33, -298.68 49.5, -291.66 49.67, -284.73 49.83, -277.88 50.0, -271.13 50.17, -264.46 50.33, -257.87 50.5, -251.37 50.67, -244.96 50.83, -238.63 51.0, -232.38 51.17, -226.21 51.33, -220.12 51.5, -214.11 51.67, -208.18 51.83, -202.32 52.0, -196.54 52.17, -190.84 52.33, -185.22 52.5, -179.66 52.67, -174.18 52.83, -168.77 53.0, -163.44 53.17, -158.17 53.33, -152.98 53.5, -147.85 53.67, -142.79 53.83, -137.8 54.0, -132.88 54.17, -128.02 54.33, -123.22 54.5, -118.5 54.67, -113.83 54.83, -109.23 55.0, -104.69 55.17, -100.21 55.33, -95.79 55.5, -91.43 55.67, -87.13 55.83, -82.89 56.0, -78.71 56.17, -74.59 56.33, -70.52 56.5, -66.51 56.67, -62.55 56.83, -58.65 57.0, -54.8 57.17, -51.0 57.33, -47.26 57.5, -43.57 57.67, -39.93 57.83, -36.34 58.0, -32.81 58.17, -29.32 58.33, -25.88 58.5, -22.49 58.67, -19.14 58.83, -15.85 59.0, -12.6 59.17, -9.4 59.33, -6.24 59.5, -3.13 59.67, -0.06 59.83, 2.96 60.0, 5.94 60.17, 8.88 60.33, 11.78 60.5, 14.63 60.67, 17.44 60.83, 20.21 61.0, 22.94 61.17, 25.63 61.33, 28.29 61.5, 30.9 61.67, 33.47 61.83, 36.01 62.0, 38.51 62.17, 40.97 62.33, 43.4 62.5, 45.79 62.67, 48.14 62.83, 50.46 63.0, 52.74 63.17, 54.99 63.33, 57.21 63.5, 59.39 63.67, 61.54 63.83, 63.66 64.0, 65.74 64.17, 67.79 64.33, 69.81 64.5, 71.8 64.67, 73.76 64.83, 75.69 65.0, 77.59 65.17, 79.46 65.33, 81.31 65.5, 83.12 65.67, 84.9 65.83, 86.66 66.0, 88.39 66.17, 90.09 66.33, 91.76 66.5, 93.41 66.67, 95.03 66.83, 96.63 67.0, 98.2 67.17, 99.75 67.33, 101.27 67.5, 102.76 67.67, 104.24 67.83, 105.68 68.0, 107.11 68.17, 108.51 68.33, 109.89 68.5, 111.24 68.67, 112.58 68.83, 113.89 69.0, 115.18 69.17, 116.45 69.33, 117.7 69.5, 118.92 69.67, 120.13 69.83, 121.31 70.0, 122.48 70.17, 123.62 70.33, 124.75 70.5, 125.86 70.67, 126.95 70.83, 128.02 71.0, 129.07 71.17, 130.1 71.33, 131.11 71.5, 132.11 71.67, 133.09 71.83, 134.05 72.0, 135.0 72.17, 135.93 72.33, 136.84 72.5, 137.74 72.67, 138.62 72.83, 139.48 73.0, 140.33 73.17, 141.17 73.33, 141.98 73.5, 142.79 73.67, 143.58 73.83, 144.35 74.0, 145.11 74.17, 145.86 74.33, 146.59 74.5, 147.31 74.67, 148.01 74.83, 148.71 75.0, 149.39 75.17, 150.05 75.33, 150.7 75.5, 151.35 75.67, 151.97 75.83, 152.59 76.0, 153.2 76.17, 153.79 76.33, 154.37 76.5, 154.94 76.67, 155.5 76.83, 156.05 77.0, 156.58 77.17, 157.11 77.33, 157.62 77.5, 158.13 77.67, 158.62 77.83, 159.11 78.0, 159.58 78.17, 160.05 78.33, 160.5 78.5, 160.95 78.67, 161.39 78.83, 161.81 79.0, 162.23 79.17, 162.64 79.33, 163.04 79.5, 163.44 79.67, 163.82 79.83, 164.2 80.0, 164.56 80.17, 164.92 80.33, 165.27 80.5, 165.62 80.67, 165.95 80.83, 166.28 81.0, 166.6 81.17, 166.92 81.33, 167.22 81.5, 167.52 81.67, 167.82 81.83, 168.1 82.0, 168.38 82.17, 168.66 82.33, 168.92 82.5, 169.18 82.67, 169.44 82.83, 169.69 83.0, 169.93 83.17, 170.16 83.33, 170.4 83.5, 170.62 83.67, 170.84 83.83, 171.05 84.0, 171.26 84.17, 171.46 84.33, 171.66 84.5, 171.86 84.67, 172.04 84.83, 172.23 85.0, 172.41 85.17, 172.58 85.33, 172.75 85.5, 172.91 85.67, 173.07 85.83, 173.23 86.0, 173.38 86.17, 173.53 86.33, 173.67 86.5, 173.81 86.67, 173.95 86.83, 174.08 87.0, 174.21 87.17, 174.33 87.33, 174.45 87.5, 174.57 87.67, 174.69 87.83, 174.8 88.0, 174.9 88.17, 175.01 88.33, 175.11 88.5, 175.21 88.67, 175.3 88.83, 175.4 89.0, 175.49 89.17, 175.57 89.33, 175.66 89.5, 175.74 89.67, 175.82 89.83, 175.89 90.0, 175.97 90.17, 176.04 90.33, 176.11 90.5, 176.17 90.67, 176.24 90.83, 176.3 91.0, 176.36 91.17, 176.42 91.33, 176.48 91.5, 176.53 91.67, 176.58 91.83, 176.63 92.0, 176.68 92.17, 176.73 92.33, 176.78 92.5, 176.82 92.67, 176.86 92.83, 176.9 93.0, 176.94 93.17, 176.98 93.33, 177.02 93.5, 177.05 93.67, 177.09 93.83, 177.12 94.0, 177.15 94.17, 177.18 94.33, 177.21 94.5, 177.24 94.67, 177.27 94.83, 177.3 95.0, 177.32 95.17, 177.35 95.33, 177.37 95.5, 177.4 95.67, 177.42 95.83, 177.44 96.0, 177.46 96.17, 177.48 96.33, 177.5 96.5, 177.52 96.67, 177.54 96.83, 177.56 97.0, 177.58 97.17, 177.6 97.33, 177.62 97.5, 177.63 97.67, 177.65 97.83, 177.67 98.0, 177.68 98.17, 177.7 98.33, 177.71 98.5, 177.73 98.67, 177.74 98.83, 177.76 99.0, 177.78 99.17, 177.79 99.33, 177.81 99.5, 177.82 99.67, 177.84 99.83, 177.85 100.0, 177.87 100.17, 177.88 100.33, 177.9 100.5, 177.91 100.67, 177.93 100.83, 177.95 101.0, 177.96 101.17, 177.98 101.33, 178.0 101.5, 178.01 101.67, 178.03 101.83, 178.05 102.0, 178.07 102.17, 178.09 102.33, 178.1 102.5, 178.12 102.67, 178.14 102.83, 178.16 103.0, 178.18 103.17, 178.21 103.33, 178.23 103.5, 178.25 103.67, 178.27 103.83, 178.3 104.0, 178.32 104.17, 178.35 104.33, 178.37 104.5, 178.4 104.67, 178.42 104.83, 178.45 105.0, 178.48 105.17, 178.51 105.33, 178.54 105.5, 178.57 105.67, 178.6 105.83, 178.63 106.0, 178.66 106.17, 178.69 106.33, 178.73 106.5, 178.76 106.67, 178.8 106.83, 178.83 107.0, 178.87 107.17, 178.91 107.33, 178.94 107.5, 178.98 107.67, 179.02 107.83, 179.06 108.0, 179.11 108.17, 179.15 108.33, 179.19 108.5, 179.24 108.67, 179.28 108.83, 179.33 109.0, 179.38 109.17, 179.42 109.33, 179.47 109.5, 179.52 109.67, 179.57 109.83, 179.63 110.0, 179.68 110.17, 179.73 110.33, 179.79 110.5, 179.84 110.67, 179.9 110.83, 179.96 111.0, 180.02 111.17, 180.08 111.33, 180.14 111.5, 180.2 111.67, 180.26 111.83, 180.33 112.0, 180.39 112.17, 180.46 112.33, 180.52 112.5, 180.59 112.67, 180.66 112.83, 180.73 113.0, 180.8 113.17, 180.87 113.33, 180.94 113.5, 181.02 113.67, 181.09 113.83, 181.17 114.0, 181.25 114.17, 181.32 114.33, 181.4 114.5, 181.48 114.67, 181.56 114.83, 181.65 115.0, 181.73 115.17, 181.81 115.33, 181.9 115.5, 181.99 115.67, 182.07 115.83, 182.16 116.0, 182.25 116.17, 182.34 116.33, 182.43 116.5, 182.52 116.67, 182.62 116.83, 182.71 117.0, 182.81 117.17, 182.9 117.33, 183.0 117.5, 183.1 117.67, 183.2 117.83, 183.3 118.0, 183.4 118.17, 183.5 118.33, 183.61 118.5, 183.71 118.67, 183.82 118.83, 183.92 119.0, 184.03 119.17, 184.14 119.33, 184.25 119.5, 184.36 119.67, 184.47 119.83, 184.58 120.0, 184.69 120.17, 184.81 120.33, 184.92 120.5, 185.04 120.67, 185.15 120.83, 185.27 121.0, 185.39 121.17, 185.51 121.33, 185.63 121.5, 185.75 121.67, 185.87 121.83, 186.0 122.0, 186.12 122.17, 186.25 122.33, 186.37 122.5, 186.5 122.67, 186.63 122.83, 186.75 123.0, 186.88 123.17, 187.01 123.33, 187.14 123.5, 187.28 123.67, 187.41 123.83, 187.54 124.0, 187.67 124.17, 187.81 124.33, 187.94 124.5, 188.08 124.67, 188.22 124.83, 188.36 125.0, 188.49 125.17, 188.63 125.33, 188.77 125.5, 188.91 125.67, 189.06 125.83, 189.2 126.0, 189.34 126.17, 189.48 126.33, 189.63 126.5, 189.77 126.67, 189.92 126.83, 190.06 127.0, 190.21 127.17, 190.36 127.33, 190.51 127.5, 190.66 127.67, 190.81 127.83, 190.96 128.0, 191.11 128.17, 191.26 128.33, 191.41 128.5, 191.56 128.67, 191.71 128.83, 191.87 129.0, 192.02 129.17, 192.17 129.33, 192.33 129.5, 192.48 129.67, 192.64 129.83, 192.8 130.0, 192.95 130.17, 193.11 130.33, 193.27 130.5, 193.43 130.67, 193.59 130.83, 193.74 131.0, 193.9 131.17, 194.06 131.33, 194.22 131.5, 194.38 131.67, 194.55 131.83, 194.71 132.0, 194.87 132.17, 195.03 132.33, 195.19 132.5, 195.35 132.67, 195.52 132.83, 195.68 133.0, 195.84 133.17, 196.01 133.33, 196.17 133.5, 196.34 133.67, 196.5 133.83, 196.67 134.0, 196.83 134.17, 197.0 134.33, 197.16 134.5, 197.33 134.67, 197.49 134.83, 197.66 135.0, 197.82 135.17, 197.99 135.33, 198.16 135.5, 198.32 135.67, 198.49 135.83, 198.66 136.0, 198.82 136.17, 198.99 136.33, 199.16 136.5, 199.32 136.67, 199.49 136.83, 199.66 137.0, 199.82 137.17, 199.99 137.33, 200.16 137.5, 200.32 137.67, 200.49 137.83, 200.66 138.0, 200.83 138.17, 200.99 138.33, 201.16 138.5, 201.33 138.67, 201.49 138.83, 201.66 139.0, 201.82 139.17, 201.99 139.33, 202.16 139.5, 202.32 139.67, 202.49 139.83, 202.65 140.0, 202.82 140.17, 202.98 140.33, 203.15 140.5, 203.31 140.67, 203.48 140.83, 203.64 141.0, 203.81 141.17, 203.97 141.33, 204.13 141.5, 204.3 141.67, 204.46 141.83, 204.62 142.0, 204.78 142.17, 204.94 142.33, 205.11 142.5, 205.27 142.67, 205.43 142.83, 205.59 143.0, 205.75 143.17, 205.91 143.33, 206.07 143.5, 206.22 143.67, 206.38 143.83, 206.54 144.0, 206.7 144.17, 206.85 144.33, 207.01 144.5, 207.17 144.67, 207.32 144.83, 207.48 145.0, 207.63 145.17, 207.79 145.33, 207.94 145.5, 208.09 145.67, 208.24 145.83, 208.4 146.0, 208.55 146.17, 208.7 146.33, 208.85 146.5, 209.0 146.67, 209.14 146.83, 209.29 147.0, 209.44 147.17, 209.59 147.33, 209.73 147.5, 209.88 147.67, 210.02 147.83, 210.17 148.0, 210.31 148.17, 210.45 148.33, 210.59 148.5, 210.73 148.67, 210.87 148.83, 211.01 149.0, 211.15 149.17, 211.29 149.33, 211.43 149.5, 211.56 149.67, 211.7 149.83, 211.84 150.0, 211.97 150.17, 212.1 150.33, 212.23 150.5, 212.37 150.67, 212.5 150.83, 212.63 151.0, 212.75 151.17, 212.88 151.33, 213.01 151.5, 213.14 151.67, 213.26 151.83, 213.39 152.0, 213.51 152.17, 213.63 152.33, 213.75 152.5, 213.87 152.67, 213.99 152.83, 214.11 153.0, 214.23 153.17, 214.35 153.33, 214.46 153.5, 214.58 153.67, 214.69 153.83, 214.8 154.0, 214.91 154.17, 215.02 154.33, 215.13 154.5, 215.24 154.67, 215.35 154.83, 215.46 155.0, 215.56 155.17, 215.67 155.33, 215.77 155.5, 215.87 155.67, 215.97 155.83, 216.07 156.0, 216.17 156.17, 216.27 156.33, 216.36 156.5, 216.46 156.67, 216.55 156.83, 216.65 157.0, 216.74 157.17, 216.83 157.33, 216.92 157.5, 217.01 157.67, 217.09 157.83, 217.18 158.0, 217.26 158.17, 217.35 158.33, 217.43 158.5, 217.51 158.67, 217.59 158.83, 217.67 159.0, 217.75 159.17, 217.82 159.33, 217.9 159.5, 217.97 159.67, 218.04 159.83, 218.12 160.0, 218.19 160.17, 218.25 160.33, 218.32 160.5, 218.39 160.67, 218.45 160.83, 218.52 161.0, 218.58 161.17, 218.64 161.33, 218.7 161.5, 218.76 161.67, 218.82 161.83, 218.87 162.0, 218.93 162.17, 218.98 162.33, 219.03 162.5, 219.08 162.67, 219.13 162.83, 219.18 163.0, 219.23 163.17, 219.27 163.33, 219.31 163.5, 219.36 163.67, 219.4 163.83, 219.44 164.0, 219.48 164.17, 219.51 164.33, 219.55 164.5, 219.58 164.67, 219.62 164.83, 219.65 165.0, 219.68 165.17, 219.71 165.33, 219.74 165.5, 219.76 165.67, 219.79 165.83, 219.81 166.0, 219.83 166.17, 219.85 166.33, 219.87 166.5, 219.89 166.67, 219.91 166.83, 219.92 167.0, 219.94 167.17, 219.95 167.33, 219.96 167.5, 219.97 167.67, 219.98 167.83, 219.99 168.0, 219.99 168.17, 220.0 168.33, 220.0 168.5, 220.0 168.67, 220.0 168.83, 220.0 169.0, 220.0 169.17, 219.99 169.33, 219.99 169.5, 219.98 169.67, 219.97 169.83, 219.96 170.0, 219.95 170.17, 219.94 170.33, 219.92 170.5, 219.91 170.67, 219.89 170.83, 219.87 171.0, 219.85 171.17, 219.83 171.33, 219.81 171.5, 219.79 171.67, 219.76 171.83, 219.74 172.0, 219.71 172.17, 219.68 172.33, 219.65 172.5, 219.62 172.67, 219.58 172.83, 219.55 173.0, 219.51 173.17, 219.48 173.33, 219.44 173.5, 219.4 173.67, 219.36 173.83, 219.32 174.0, 219.27 174.17, 219.23 174.33, 219.18 174.5, 219.13 174.67, 219.08 174.83, 219.03 175.0, 218.98 175.17, 218.93 175.33, 218.87 175.5, 218.82 175.67, 218.76 175.83, 218.7 176.0, 218.64 176.17, 218.58 176.33, 218.52 176.5, 218.45 176.67, 218.39 176.83, 218.32 177.0, 218.26 177.17, 218.19 177.33, 218.12 177.5, 218.05 177.67, 217.97 177.83, 217.9 178.0, 217.82 178.17, 217.75 178.33, 217.67 178.5, 217.59 178.67, 217.51 178.83, 217.43 179.0, 217.35 179.17, 217.26 179.33, 217.18 179.5, 217.09 179.67, 217.01 179.83, 216.92 180.0, 216.83 180.17, 216.74 180.33, 216.65 180.5, 216.55 180.67, 216.46 180.83, 216.36 181.0, 216.27 181.17, 216.17 181.33, 216.07 181.5, 215.97 181.67, 215.87 181.83, 215.77 182.0, 215.67 182.17, 215.56 182.33, 215.46 182.5, 215.35 182.67, 215.24 182.83, 215.14 183.0, 215.03 183.17, 214.92 183.33, 214.8 183.5, 214.69 183.67, 214.58 183.83, 214.46 184.0, 214.35 184.17, 214.23 184.33, 214.11 184.5, 213.99 184.67, 213.87 184.83, 213.75 185.0, 213.63 185.17, 213.51 185.33, 213.39 185.5, 213.26 185.67, 213.14 185.83, 213.01 186.0, 212.88 186.17, 212.76 186.33, 212.63 186.5, 212.5 186.67, 212.37 186.83, 212.24 187.0, 212.1 187.17, 211.97 187.33, 211.84 187.5, 211.7 187.67, 211.57 187.83, 211.43 188.0, 211.29 188.17, 211.15 188.33, 211.02 188.5, 210.88 188.67, 210.74 188.83, 210.6 189.0, 210.45 189.17, 210.31 189.33, 210.17 189.5, 210.02 189.67, 209.88 189.83, 209.73 190.0, 209.59 190.17, 209.44 190.33, 209.29 190.5, 209.15 190.67, 209.0 190.83, 208.85 191.0, 208.7 191.17, 208.55 191.33, 208.4 191.5, 208.25 191.67, 208.09 191.83, 207.94 192.0, 207.79 192.17, 207.63 192.33, 207.48 192.5, 207.33 192.67, 207.17 192.83, 207.01 193.0, 206.86 193.17, 206.7 193.33, 206.54 193.5, 206.39 193.67, 206.23 193.83, 206.07 194.0, 205.91 194.17, 205.75 194.33, 205.59 194.5, 205.43 194.67, 205.27 194.83, 205.11 195.0, 204.95 195.17, 204.79 195.33, 204.62 195.5, 204.46 195.67, 204.3 195.83, 204.14 196.0, 203.97 196.17, 203.81 196.33, 203.65 196.5, 203.48 196.67, 203.32 196.83, 203.15 197.0, 202.99 197.17, 202.82 197.33, 202.66 197.5, 202.49 197.67, 202.33 197.83, 202.16 198.0, 202.0 198.17, 201.83 198.33, 201.66 198.5, 201.5 198.67, 201.33 198.83, 201.17 199.0, 201.0 199.17, 200.83 199.33, 200.67 199.5, 200.5 199.67, 200.33 199.83, 200.17 200.0, 200.0 200.17, 199.83 200.33, 199.67 200.5, 199.5 200.67, 199.33 200.83, 199.17 201.0, 199.0 201.17, 198.83 201.33, 198.67 201.5, 198.5 201.67, 198.34 201.83, 198.17 202.0, 198.0 202.17, 197.84 202.33, 197.67 202.5, 197.51 202.67, 197.34 202.83, 197.18 203.0, 197.01 203.17, 196.85 203.33, 196.68 203.5, 196.52 203.67, 196.35 203.83, 196.19 204.0, 196.03 204.17, 195.86 204.33, 195.7 204.5, 195.54 204.67, 195.38 204.83, 195.21 205.0, 195.05 205.17, 194.89 205.33, 194.73 205.5, 194.57 205.67, 194.41 205.83, 194.25 206.0, 194.09 206.17, 193.93 206.33, 193.77 206.5, 193.61 206.67, 193.46 206.83, 193.3 207.0, 193.14 207.17, 192.99 207.33, 192.83 207.5, 192.67 207.67, 192.52 207.83, 192.37 208.0, 192.21 208.17, 192.06 208.33, 191.91 208.5, 191.75 208.67, 191.6 208.83, 191.45 209.0, 191.3 209.17, 191.15 209.33, 191.0 209.5, 190.85 209.67, 190.71 209.83, 190.56 210.0, 190.41 210.17, 190.27 210.33, 190.12 210.5, 189.98 210.67, 189.83 210.83, 189.69 211.0, 189.55 211.17, 189.4 211.33, 189.26 211.5, 189.12 211.67, 188.98 211.83, 188.85 212.0, 188.71 212.17, 188.57 212.33, 188.43 212.5, 188.3 212.67, 188.16 212.83, 188.03 213.0, 187.9 213.17, 187.76 213.33, 187.63 213.5, 187.5 213.67, 187.37 213.83, 187.24 214.0, 187.12 214.17, 186.99 214.33, 186.86 214.5, 186.74 214.67, 186.61 214.83, 186.49 215.0, 186.37 215.17, 186.25 215.33, 186.13 215.5, 186.01 215.67, 185.89 215.83, 185.77 216.0, 185.65 216.17, 185.54 216.33, 185.42 216.5, 185.31 216.67, 185.2 216.83, 185.08 217.0, 184.97 217.17, 184.86 217.33, 184.76 217.5, 184.65 217.67, 184.54 217.83, 184.44 218.0, 184.33 218.17, 184.23 218.33, 184.13 218.5, 184.03 218.67, 183.93 218.83, 183.83 219.0, 183.73 219.17, 183.64 219.33, 183.54 219.5, 183.45 219.67, 183.35 219.83, 183.26 220.0, 183.17 220.17, 183.08 220.33, 182.99 220.5, 182.91 220.67, 182.82 220.83, 182.74 221.0, 182.65 221.17, 182.57 221.33, 182.49 221.5, 182.41 221.67, 182.33 221.83, 182.25 222.0, 182.18 222.17, 182.1 222.33, 182.03 222.5, 181.95 222.67, 181.88 222.83, 181.81 223.0, 181.74 223.17, 181.68 223.33, 181.61 223.5, 181.55 223.67, 181.48 223.83, 181.42 224.0, 181.36 224.17, 181.3 224.33, 181.24 224.5, 181.18 224.67, 181.13 224.83, 181.07 225.0, 181.02 225.17, 180.97 225.33, 180.92 225.5, 180.87 225.67, 180.82 225.83, 180.77 226.0, 180.73 226.17, 180.68 226.33, 180.64 226.5, 180.6 226.67, 180.56 226.83, 180.52 227.0, 180.49 227.17, 180.45 227.33, 180.42 227.5, 180.38 227.67, 180.35 227.83, 180.32 228.0, 180.29 228.17, 180.26 228.33, 180.24 228.5, 180.21 228.67, 180.19 228.83, 180.17 229.0, 180.15 229.17, 180.13 229.33, 180.11 229.5, 180.09 229.67, 180.08 229.83, 180.06 230.0, 180.05 230.17, 180.04 230.33, 180.03 230.5, 180.02 230.67, 180.01 230.83, 180.01 231.0, 180.0 231.17, 180.0 231.33, 180.0 231.5, 180.0 231.67, 180.0 231.83, 180.0 232.0, 180.01 232.17, 180.01 232.33, 180.02 232.5, 180.03 232.67, 180.04 232.83, 180.05 233.0, 180.06 233.17, 180.08 233.33, 180.09 233.5, 180.11 233.67, 180.13 233.83, 180.15 234.0, 180.17 234.17, 180.19 234.33, 180.21 234.5, 180.24 234.67, 180.26 234.83, 180.29 235.0, 180.32 235.17, 180.35 235.33, 180.38 235.5, 180.42 235.67, 180.45 235.83, 180.49 236.0, 180.52 236.17, 180.56 236.33, 180.6 236.5, 180.64 236.67, 180.69 236.83, 180.73 237.0, 180.77 237.17, 180.82 237.33, 180.87 237.5, 180.92 237.67, 180.97 237.83, 181.02 238.0, 181.07 238.17, 181.13 238.33, 181.18 238.5, 181.24 238.67, 181.3 238.83, 181.36 239.0, 181.42 239.17, 181.48 239.33, 181.55 239.5, 181.61 239.67, 181.68 239.83, 181.75 240.0, 181.81 240.17, 181.88 240.33, 181.96 240.5, 182.03 240.67, 182.1 240.83, 182.18 241.0, 182.25 241.17, 182.33 241.33, 182.41 241.5, 182.49 241.67, 182.57 241.83, 182.65 242.0, 182.74 242.17, 182.82 242.33, 182.91 242.5, 182.99 242.67, 183.08 242.83, 183.17 243.0, 183.26 243.17, 183.35 243.33, 183.45 243.5, 183.54 243.67, 183.64 243.83, 183.73 244.0, 183.83 244.17, 183.93 244.33, 184.03 244.5, 184.13 244.67, 184.23 244.83, 184.33 245.0, 184.44 245.17, 184.54 245.33, 184.65 245.5, 184.76 245.67, 184.87 245.83, 184.98 246.0, 185.09 246.17, 185.2 246.33, 185.31 246.5, 185.42 246.67, 185.54 246.83, 185.65 247.0, 185.77 247.17, 185.89 247.33, 186.01 247.5, 186.13 247.67, 186.25 247.83, 186.37 248.0, 186.49 248.17, 186.61 248.33, 186.74 248.5, 186.86 248.67, 186.99 248.83, 187.12 249.0, 187.25 249.17, 187.37 249.33, 187.5 249.5, 187.63 249.67, 187.77 249.83, 187.9 250.0, 188.03 250.17, 188.16 250.33, 188.3 250.5, 188.44 250.67, 188.57 250.83, 188.71 251.0, 188.85 251.17, 188.99 251.33, 189.13 251.5, 189.27 251.67, 189.41 251.83, 189.55 252.0, 189.69 252.17, 189.83 252.33, 189.98 252.5, 190.12 252.67, 190.27 252.83, 190.41 253.0, 190.56 253.17, 190.71 253.33, 190.86 253.5, 191.0 253.67, 191.15 253.83, 191.3 254.0, 191.45 254.17, 191.6 254.33, 191.76 254.5, 191.91 254.67, 192.06 254.83, 192.21 255.0, 192.37 255.17, 192.52 255.33, 192.68 255.5, 192.83 255.67, 192.99 255.83, 193.15 256.0, 193.3 256.17, 193.46 256.33, 193.62 256.5, 193.78 256.67, 193.93 256.83, 194.09 257.0, 194.25 257.17, 194.41 257.33, 194.57 257.5, 194.73 257.67, 194.89 257.83, 195.06 258.0, 195.22 258.17, 195.38 258.33, 195.54 258.5, 195.7 258.67, 195.87 258.83, 196.03 259.0, 196.19 259.17, 196.36 259.33, 196.52 259.5, 196.69 259.67, 196.85 259.83, 197.02 260.0, 197.18 260.17, 197.35 260.33, 197.51 260.5, 197.68 260.67, 197.84 260.83, 198.01 261.0, 198.18 261.17, 198.34 261.33, 198.51 261.5, 198.67 261.67, 198.84 261.83, 199.01 262.0, 199.17 262.17, 199.34 262.33, 199.51 262.5, 199.68 262.67, 199.84 262.83, 200.01 263.0, 200.18 263.17, 200.34 263.33, 200.51 263.5, 200.68 263.67, 200.84 263.83, 201.01 264.0, 201.18 264.17, 201.34 264.33, 201.51 264.5, 201.68 264.67, 201.84 264.83, 202.01 265.0, 202.18 265.17, 202.34 265.33, 202.51 265.5, 202.67 265.67, 202.84 265.83, 203.0 266.0, 203.17 266.17, 203.33 266.33, 203.5 266.5, 203.66 266.67, 203.83 266.83, 203.99 267.0, 204.16 267.17, 204.32 267.33, 204.48 267.5, 204.65 267.67, 204.81 267.83, 204.97 268.0, 205.13 268.17, 205.29 268.33, 205.45 268.5, 205.62 268.67, 205.78 268.83, 205.94 269.0, 206.1 269.17, 206.26 269.33, 206.41 269.5, 206.57 269.67, 206.73 269.83, 206.89 270.0, 207.05 270.17, 207.2 270.33, 207.36 270.5, 207.52 270.67, 207.67 270.83, 207.83 271.0, 207.98 271.17, 208.13 271.33, 208.29 271.5, 208.44 271.67, 208.59 271.83, 208.74 272.0, 208.89 272.17, 209.04 272.33, 209.19 272.5, 209.34 272.67, 209.49 272.83, 209.64 273.0, 209.79 273.17, 209.94 273.33, 210.08 273.5, 210.23 273.67, 210.37 273.83, 210.52 274.0, 210.66 274.17, 210.8 274.33, 210.94 274.5, 211.09 274.67, 211.23 274.83, 211.37 275.0, 211.51 275.17, 211.64 275.33, 211.78 275.5, 211.92 275.67, 212.06 275.83, 212.19 276.0, 212.33 276.17, 212.46 276.33, 212.59 276.5, 212.72 276.67, 212.86 276.83, 212.99 277.0, 213.12 277.17, 213.25 277.33, 213.37 277.5, 213.5 277.67, 213.63 277.83, 213.75 278.0, 213.88 278.17, 214.0 278.33, 214.13 278.5, 214.25 278.67, 214.37 278.83, 214.49 279.0, 214.61 279.17, 214.73 279.33, 214.85 279.5, 214.96 279.67, 215.08 279.83, 215.19 280.0, 215.31 280.17, 215.42 280.33, 215.53 280.5, 215.64 280.67, 215.75 280.83, 215.86 281.0, 215.97 281.17, 216.08 281.33, 216.18 281.5, 216.29 281.67, 216.39 281.83, 216.5 282.0, 216.6 282.17, 216.7 282.33, 216.8 282.5, 216.9 282.67, 217.0 282.83, 217.1 283.0, 217.19 283.17, 217.29 283.33, 217.38 283.5, 217.48 283.67, 217.57 283.83, 217.66 284.0, 217.75 284.17, 217.84 284.33, 217.93 284.5, 218.01 284.67, 218.1 284.83, 218.19 285.0, 218.27 285.17, 218.35 285.33, 218.44 285.5, 218.52 285.67, 218.6 285.83, 218.68 286.0, 218.75 286.17, 218.83 286.33, 218.91 286.5, 218.98 286.67, 219.06 286.83, 219.13 287.0, 219.2 287.17, 219.27 287.33, 219.34 287.5, 219.41 287.67, 219.48 287.83, 219.54 288.0, 219.61 288.17, 219.67 288.33, 219.74 288.5, 219.8 288.67, 219.86 288.83, 219.92 289.0, 219.98 289.17, 220.04 289.33, 220.1 289.5, 220.16 289.67, 220.21 289.83, 220.27 290.0, 220.32 290.17, 220.37 290.33, 220.43 290.5, 220.48 290.67, 220.53 290.83, 220.58 291.0, 220.62 291.17, 220.67 291.33, 220.72 291.5, 220.76 291.67, 220.81 291.83, 220.85 292.0, 220.89 292.17, 220.94 292.33, 220.98 292.5, 221.02 292.67, 221.06 292.83, 221.09 293.0, 221.13 293.17, 221.17 293.33, 221.2 293.5, 221.24 293.67, 221.27 293.83, 221.31 294.0, 221.34 294.17, 221.37 294.33, 221.4 294.5, 221.43 294.67, 221.46 294.83, 221.49 295.0, 221.52 295.17, 221.55 295.33, 221.58 295.5, 221.6 295.67, 221.63 295.83, 221.65 296.0, 221.68 296.17, 221.7 296.33, 221.73 296.5, 221.75 296.67, 221.77 296.83, 221.79 297.0, 221.82 297.17, 221.84 297.33, 221.86 297.5, 221.88 297.67, 221.9 297.83, 221.91 298.0, 221.93 298.17, 221.95 298.33, 221.97 298.5, 221.99 298.67, 222.0 298.83, 222.02 299.0, 222.04 299.17, 222.05 299.33, 222.07 299.5, 222.09 299.67, 222.1 299.83, 222.12 300.0, 222.13 300.17, 222.15 300.33, 222.16 300.5, 222.18 300.67, 222.19 300.83, 222.21 301.0, 222.22 301.17, 222.24 301.33, 222.26 301.5, 222.27 301.67, 222.29 301.83, 222.3 302.0, 222.32 302.17, 222.33 302.33, 222.35 302.5, 222.37 302.67, 222.38 302.83, 222.4 303.0, 222.42 303.17, 222.44 303.33, 222.46 303.5, 222.48 303.67, 222.5 303.83, 222.52 304.0, 222.54 304.17, 222.56 304.33, 222.58 304.5, 222.6 304.67, 222.63 304.83, 222.65 305.0, 222.68 305.17, 222.7 305.33, 222.73 305.5, 222.76 305.67, 222.79 305.83, 222.82 306.0, 222.85 306.17, 222.88 306.33, 222.91 306.5, 222.95 306.67, 222.98 306.83, 223.02 307.0, 223.06 307.17, 223.1 307.33, 223.14 307.5, 223.18 307.67, 223.22 307.83, 223.27 308.0, 223.32 308.17, 223.37 308.33, 223.42 308.5, 223.47 308.67, 223.52 308.83, 223.58 309.0, 223.64 309.17, 223.7 309.33, 223.76 309.5, 223.83 309.67, 223.89 309.83, 223.96 310.0, 224.03 310.17, 224.11 310.33, 224.18 310.5, 224.26 310.67, 224.34 310.83, 224.43 311.0, 224.51 311.17, 224.6 311.33, 224.7 311.5, 224.79 311.67, 224.89 311.83, 224.99 312.0, 225.1 312.17, 225.2 312.33, 225.31 312.5, 225.43 312.67, 225.55 312.83, 225.67 313.0, 225.79 313.17, 225.92 313.33, 226.05 313.5, 226.19 313.67, 226.33 313.83, 226.47 314.0, 226.62 314.17, 226.77 314.33, 226.93 314.5, 227.09 314.67, 227.25 314.83, 227.42 315.0, 227.59 315.17, 227.77 315.33, 227.96 315.5, 228.14 315.67, 228.34 315.83, 228.54 316.0, 228.74 316.17, 228.95 316.33, 229.16 316.5, 229.38 316.67, 229.6 316.83, 229.84 317.0, 230.07 317.17, 230.31 317.33, 230.56 317.5, 230.82 317.67, 231.08 317.83, 231.34 318.0, 231.62 318.17, 231.9 318.33, 232.18 318.5, 232.48 318.67, 232.78 318.83, 233.08 319.0, 233.4 319.17, 233.72 319.33, 234.05 319.5, 234.38 319.67, 234.73 319.83, 235.08 320.0, 235.44 320.17, 235.8 320.33, 236.18 320.5, 236.56 320.67, 236.96 320.83, 237.36 321.0, 237.77 321.17, 238.19 321.33, 238.61 321.5, 239.05 321.67, 239.5 321.83, 239.95 322.0, 240.42 322.17, 240.89 322.33, 241.38 322.5, 241.87 322.67, 242.38 322.83, 242.89 323.0, 243.42 323.17, 243.95 323.33, 244.5 323.5, 245.06 323.67, 245.63 323.83, 246.21 324.0, 246.8 324.17, 247.41 324.33, 248.03 324.5, 248.65 324.67, 249.3 324.83, 249.95 325.0, 250.61 325.17, 251.29 325.33, 251.99 325.5, 252.69 325.67, 253.41 325.83, 254.14 326.0, 254.89 326.17, 255.65 326.33, 256.42 326.5, 257.21 326.67, 258.02 326.83, 258.83 327.0, 259.67 327.17, 260.52 327.33, 261.38 327.5, 262.26 327.67, 263.16 327.83, 264.07 328.0, 265.0 328.17, 265.95 328.33, 266.91 328.5, 267.89 328.67, 268.89 328.83, 269.9 329.0, 270.93 329.17, 271.98 329.33, 273.05 329.5, 274.14 329.67, 275.25 329.83, 276.38 330.0, 277.52 330.17, 278.69 330.33, 279.87 330.5, 281.08 330.67, 282.3 330.83, 283.55 331.0, 284.82 331.17, 286.11 331.33, 287.42 331.5, 288.76 331.67, 290.11 331.83, 291.49 332.0, 292.89 332.17, 294.32 332.33, 295.76 332.5, 297.24 332.67, 298.73 332.83, 300.25 333.0, 301.8 333.17, 303.37 333.33, 304.97 333.5, 306.59 333.67, 308.24 333.83, 309.91 334.0, 311.61 334.17, 313.34 334.33, 315.1 334.5, 316.88 334.67, 318.69 334.83, 320.54 335.0, 322.41 335.17, 324.31 335.33, 326.24 335.5, 328.2 335.67, 330.19 335.83, 332.21 336.0, 334.26 336.17, 336.34 336.33, 338.46 336.5, 340.61 336.67, 342.79 336.83, 345.01 337.0, 347.26 337.17, 349.54 337.33, 351.86 337.5, 354.21 337.67, 356.6 337.83, 359.03 338.0, 361.49 338.17, 363.99 338.33, 366.53 338.5, 369.1 338.67, 371.71 338.83, 374.37 339.0, 377.06 339.17, 379.79 339.33, 382.56 339.5, 385.37 339.67, 388.22 339.83, 391.12 340.0, 394.06 340.17, 397.04 340.33, 400.06 340.5, 403.13 340.67, 406.24 340.83, 409.4 341.0, 412.6 341.17, 415.85 341.33, 419.14 341.5, 422.49 341.67, 425.88 341.83, 429.32 342.0, 432.81 342.17, 436.34 342.33, 439.93 342.5, 443.57 342.67, 447.26 342.83, 451.0 343.0, 454.8 343.17, 458.65 343.33, 462.55 343.5, 466.51 343.67, 470.52 343.83, 474.59 344.0, 478.71 344.17, 482.89 344.33, 487.13 344.5, 491.43 344.67, 495.79 344.83, 500.21 345.0, 504.69 345.17, 509.23 345.33, 513.83 345.5, 518.5 345.67, 523.22 345.83, 528.02 346.0, 532.88 346.17, 537.8 346.33, 542.79 346.5, 547.85 346.67, 552.98 346.83, 558.17 347.0, 563.44 347.17, 568.77 347.33, 574.18 347.5, 579.66 347.67, 585.22 347.83, 590.84 348.0, 596.54 348.17, 602.32 348.33, 608.18 348.5, 614.11 348.67, 620.12 348.83, 626.21 349.0, 632.38 349.17, 638.63 349.33, 644.96 349.5, 651.37 349.67, 657.87 349.83, 664.46 350.0, 671.13 350.17, 677.88 350.33, 684.73 350.5, 691.66 350.67, 698.68 350.83, 705.8 351.0, 713.0 351.17, 720.3 351.33, 727.69 351.5, 735.18 351.67, 742.76 351.83, 750.44 352.0, 758.22 352.17, 766.09 352.33, 774.07 352.5, 782.15 352.67, 790.33 352.83, 798.62 353.0, 807.01 353.17, 815.5 353.33, 824.11 353.5, 832.82 353.67, 841.64 353.83, 850.57 354.0, 859.61 354.17, 868.77 354.33, 878.04 354.5, 887.43 354.67, 896.93 354.83, 906.56 355.0, 916.3 355.17, 926.16 355.33, 936.15 355.5, 946.26 355.67, 956.49 355.83, 966.85 356.0, 977.34 356.17, 987.95 356.33, 998.7 356.5, 1009.58 356.67, 1020.59 356.83, 1031.74 357.0, 1043.02 357.17, 1054.44 357.33, 1066.0 357.5, 1077.7 357.67, 1089.54 357.83, 1101.53 358.0, 1113.66 358.17, 1125.94 358.33, 1138.37 358.5, 1150.94 358.67, 1163.67 358.83, 1176.55 359.0, 1189.58 359.17, 1202.78 359.33, 1216.13 359.5, 1229.64 359.67, 1243.31 359.83, 1257.14 360.0, 1271.14 360.17, 1285.3 360.33, 1299.64 360.5, 1314.14 360.67, 1328.81 360.83, 1343.66 361.0, 1358.69 361.17, 1373.89 361.33, 1389.27 361.5, 1404.83 361.67, 1420.58 361.83, 1436.51 362.0, 1452.62 362.17, 1468.93 362.33, 1485.43 362.5, 1502.11 362.67, 1519.0 362.83, 1536.08 363.0, 1553.36 363.17, 1570.84 363.33, 1588.52 363.5, 1606.41 363.67, 1624.5 363.83, 1642.8 364.0, 1661.32 364.17, 1680.05 364.33, 1698.99 364.5, 1718.15 364.67, 1737.54 364.83, 1757.14 365.0, 1776.97 365.17, 1797.03 365.33, 1817.31 365.5, 1837.83 365.67, 1858.58 365.83, 1879.57 366.0, 1900.79 366.17, 1922.26 366.33, 1943.97 366.5, 1965.93 366.67, 1988.14 366.83, 2010.59 367.0, 2033.3 367.17, 2056.27 367.33, 2079.49 367.5, 2102.98 367.67, 2126.73 367.83, 2150.75 368.0, 2175.03 368.17, 2199.59 368.33, 2224.43 368.5, 2249.54 368.67, 2274.93 368.83, 2300.6 369.0, 2326.56 369.17, 2352.81 369.33, 2379.35 369.5, 2406.18 369.67, 2433.31 369.83, 2460.74 370.0, 2488.48 370.17, 2516.52 370.33, 2544.87 370.5, 2573.53 370.67, 2602.51 370.83, 2631.81 371.0, 2661.42 371.17, 2691.37 371.33, 2721.64 371.5, 2752.24 371.67, 2783.17 371.83, 2814.45 372.0, 2846.06 372.17, 2878.02 372.33, 2910.32 372.5, 2942.98 372.67, 2975.99 372.83, 3009.36 373.0, 3043.09 373.17, 3077.19 373.33, 3111.65 373.5, 3146.49 373.67, 3181.7 373.83, 3217.29 374.0, 3253.26 374.17, 3289.62 374.33, 3326.37 374.5, 3363.51 374.67, 3401.05 374.83, 3439.0 375.0, 3477.34 375.17, 3516.1 375.33, 3555.27 375.5, 3594.86 375.67, 3634.86 375.83, 3675.3 376.0, 3716.16 376.17, 3757.45 376.33, 3799.19 376.5, 3841.36 376.67, 3883.98 376.83, 3927.05 377.0, 3970.57 377.17, 4014.55 377.33, 4059.0 377.5, 4103.91 377.67, 4149.29 377.83, 4195.15 378.0, 4241.49 378.17, 4288.31 378.33, 4335.62 378.5, 4383.43 378.67, 4431.73 378.83, 4480.54 379.0, 4529.85 379.17, 4579.68 379.33, 4630.03 379.5, 4680.9 379.67, 4732.29 379.83, 4784.22 380.0, 4836.68 380.17, 4889.69 380.33, 4943.24 380.5, 4997.34 380.67, 5052.0 380.83, 5107.23 381.0, 5163.02 381.17, 5219.38 381.33, 5276.32 381.5, 5333.85 381.67, 5391.96 381.83, 5450.66 382.0, 5509.97 382.17, 5569.88 382.33, 5630.4 382.5, 5691.54 382.67, 5753.29 382.83, 5815.68 383.0, 5878.69 383.17, 5942.35 383.33, 6006.65 383.5, 6071.6 383.67, 6137.21 383.83, 6203.48 384.0, 6270.41 384.17, 6338.02 384.33, 6406.32 384.5, 6475.29 384.67, 6544.96 384.83, 6615.33 385.0, 6686.4 385.17, 6758.19 385.33, 6830.69 385.5, 6903.92 385.67, 6977.87 385.83, 7052.57 386.0, 7128.0 386.17, 7204.19 386.33, 7281.13 386.5, 7358.84 386.67, 7437.32 386.83, 7516.58 387.0, 7596.62 387.17, 7677.45 387.33, 7759.08 387.5, 7841.51 387.67, 7924.76 387.83, 8008.83 388.0, 8093.72 388.17, 8179.45 388.33, 8266.02 388.5, 8353.44 388.67, 8441.71 388.83, 8530.85 389.0, 8620.86 389.17, 8711.74 389.33, 8803.52 389.5, 8896.19 389.67, 8989.76 389.83, 9084.24 390.0, 9179.64 390.17, 9275.96 390.33, 9373.22 390.5, 9471.43 390.67, 9570.58 390.83, 9670.69 391.0, 9771.76 391.17, 9873.82 391.33, 9976.85 391.5, 10080.88 391.67, 10185.91 391.83, 10291.95 392.0, 10399.0 392.17, 10507.09 392.33, 10616.2 392.5, 10726.37 392.67, 10837.58 392.83, 10949.86 393.0, 11063.21 393.17, 11177.64 393.33, 11293.16 393.5, 11409.78 393.67, 11527.51 393.83, 11646.36 394.0, 11766.33 394.17, 11887.44 394.33, 12009.7 394.5, 12133.11 394.67, 12257.69 394.83, 12383.45 395.0, 12510.39 395.17, 12638.53 395.33, 12767.87 395.5, 12898.43 395.67, 13030.22 395.83, 13163.24 396.0, 13297.51 396.17, 13433.04 396.33, 13569.84 396.5, 13707.91 396.67, 13847.28 396.83, 13987.94 397.0, 14129.92 397.17, 14273.21 397.33, 14417.85 397.5, 14563.82 397.67, 14711.15 397.83, 14859.85 398.0, 15009.92 398.17, 15161.39 398.33, 15314.25 398.5, 15468.53 398.67, 15624.23 398.83, 15781.37 399.0, 15939.96 399.17, 16100.0 399.33, 16261.52 399.5, 16424.52 399.67, 16589.02 399.83, 16755.02 400.0, 16922.55 " fill="none" stroke="white" stroke-width="1.5" stroke-linejoin="round" stroke-opacity="1"/>

 </svg>