<svg version="1.1" 
 baseProfile="full" 
 width="400" 
 height="400" 
 xmlns="http://www.w3.org/2000/svg">
<rect x="0.0" y="0.0" width="400" height="400" fill="black" stroke="black" stroke-width="0" opacity="1"/>
<line x1="0.0" y1="0.0" x2="0.0" y2="400.0" stroke="white" stroke-width="1" opacity="0.4" stroke-linecap="butt"/>
<line x1="40.0" y1="0.0" x2="40.0" y2="400.0" stroke="white" stroke-width="1" opacity="0.4" stroke-linecap="butt"/>
<line x1="80.0" y1="0.0" x2="80.0" y2="400.0" stroke="white" stroke-width="1" opacity="0.4" stroke-linecap="butt"/>
<line x1="120.0" y1="0.0" x2="120.0" y2="400.0" stroke="white" stroke-width="1" opacity="0.4" stroke-linecap="butt"/>
<line x1="160.0" y1="0.0" x2="160.0" y2="400.0" stroke="white" stroke-width="1" opacity="0.4" stroke-linecap="butt"/>
<line x1="200.0" y1="0.0" x2="200.0" y2="400.0" stroke="white" stroke-width="1" opacity="0.4" stroke-linecap="butt"/>
<line x1="240.0" y1="0.0" x2="240.0" y2="400.0" stroke="white" stroke-width="1" opacity="0.4" stroke-linecap="butt"/>
<line x1="280.0" y1="0.0" x2="280.0" y2="400.0" stroke="white" stroke-width="1" opacity="0.4" stroke-linecap="butt"/>
<line x1="320.0" y1="0.0" x2="320.0" y2="400.0" stroke="white" stroke-width="1" opacity="0.4" stroke-linecap="butt"/>
<line x1="360.0" y1="0.0" x2="360.0" y2="400.0" stroke="white" stroke-width="1" opacity="0.4" stroke-linecap="butt"/>
<line x1="0.0" y1="0.0" x2="400.0" y2="0.0" stroke="white" stroke-width="1" opacity="0.4" stroke-linecap="butt"/>
<line x1="0.0" y1="40.0" x2="400.0" y2="40.0" stroke="white" stroke-width="1" opacity="0.4" stroke-linecap="butt"/>
<line x1="0.0" y1="80.0" x2="400.0" y2="80.0" stroke="white" stroke-width="1" opacity="0.4" stroke-linecap="butt"/>
<line x1="0.0" y1="120.0" x2="400.0" y2="120.0" stroke="white" stroke-width="1" opacity="0.4" stroke-linecap="butt"/>
<line x1="0.0" y1="160.0" x2="400.0" y2="160.0" stroke="white" stroke-width="1" opacity="0.4" stroke-linecap="butt"/>
<line x1="0.0" y1="200.0" x2="400.0" y2="200.0" stroke="white" stroke-width="1" opacity="0.4" stroke-linecap="butt"/>
<line x1="0.0" y1="240.0" x2="400.0" y2="240.0" stroke="white" stroke-width="1" opacity="0.4" stroke-linecap="butt"/>
<line x1="0.0" y1="280.0" x2="400.0" y2="280.0" stroke="white" stroke-width="1" opacity="0.4" stroke-linecap="butt"/>
<line x1="0.0" y1="320.0" x2="400.0" y2="320.0" stroke="white" stroke-width="1" opacity="0.4" stroke-linecap="butt"/>
<line x1="0.0" y1="360.0" x2="400.0" y2="360.0" stroke="white" stroke-width="1" opacity="0.4" stroke-linecap="butt"/>
<line x1="0.0" y1="200.0" x2="400.0" y2="200.0" stroke="yellow" stroke-width="2.5" opacity="1" stroke-linecap="butt"/>
<line x1="200.0" y1="0.0" x2="200.0" y2="400.0" stroke="yellow" stroke-width="2.5" opacity="1" stroke-linecap="butt"/>
<polygon points="391.0 204.0, 401.0 200.0, 391.0 196.0, 393.0 200.0" fill="yellow"/><polygon points="204.0 9.0, 200.0 -1.0, 196.0 9.0, 200.0 7.0" fill="yellow"/><image x="-60.0" y="-60.0" width="200" height="200" href="/Users/girirajhira/PycharmProjects/Giraphics3/Taylor/expr.png"/><polyline points="0.0, -14916.64 0.17, -14766.43 0.33, -14617.56 0.5, -14470.03 0.67, -14323.83 0.83, -14178.94 1.0, -14035.36 1.17, -13893.08 1.33, -13752.07 1.5, -13612.35 1.67, -13473.88 1.83, -13336.68 2.0, -13200.71 2.17, -13065.98 2.33, -12932.47 2.5, -12800.17 2.67, -12669.08 2.83, -12539.19 3.0, -12410.47 3.17, -12282.94 3.33, -12156.56 3.5, -12031.35 3.67, -11907.28 3.83, -11784.34 4.0, -11662.54 4.17, -11541.85 4.33, -11422.27 4.5, -11303.79 4.67, -11186.4 4.83, -11070.1 5.0, -10954.86 5.17, -10840.69 5.33, -10727.58 5.5, -10615.52 5.67, -10504.49 5.83, -10394.49 6.0, -10285.51 6.17, -10177.55 6.33, -10070.59 6.5, -9964.62 6.67, -9859.65 6.83, -9755.65 7.0, -9652.62 7.17, -9550.56 7.33, -9449.45 7.5, -9349.29 7.67, -9250.07 7.83, -9151.78 8.0, -9054.41 8.17, -8957.96 8.33, -8862.41 8.5, -8767.77 8.67, -8674.02 8.83, -8581.15 9.0, -8489.17 9.17, -8398.05 9.33, -8307.79 9.5, -8218.4 9.67, -8129.85 9.83, -8042.14 10.0, -7955.26 10.17, -7869.21 10.33, -7783.99 10.5, -7699.57 10.67, -7615.96 10.83, -7533.15 11.0, -7451.14 11.17, -7369.9 11.33, -7289.45 11.5, -7209.77 11.67, -7130.86 11.83, -7052.7 12.0, -6975.3 12.17, -6898.64 12.33, -6822.72 12.5, -6747.53 12.67, -6673.08 12.83, -6599.34 13.0, -6526.32 13.17, -6454.0 13.33, -6382.39 13.5, -6311.47 13.67, -6241.24 13.83, -6171.7 14.0, -6102.83 14.17, -6034.64 14.33, -5967.11 14.5, -5900.24 14.67, -5834.03 14.83, -5768.47 15.0, -5703.55 15.17, -5639.26 15.33, -5575.61 15.5, -5512.58 15.67, -5450.18 15.83, -5388.39 16.0, -5327.21 16.17, -5266.64 16.33, -5206.66 16.5, -5147.28 16.67, -5088.49 16.83, -5030.28 17.0, -4972.64 17.17, -4915.59 17.33, -4859.1 17.5, -4803.17 17.67, -4747.8 17.83, -4692.98 18.0, -4638.71 18.17, -4584.99 18.33, -4531.8 18.5, -4479.14 18.67, -4427.02 18.83, -4375.42 19.0, -4324.33 19.17, -4273.77 19.33, -4223.71 19.5, -4174.16 19.67, -4125.1 19.83, -4076.55 20.0, -4028.48 20.17, -3980.9 20.33, -3933.81 20.5, -3887.19 20.67, -3841.05 20.83, -3795.38 21.0, -3750.17 21.17, -3705.43 21.33, -3661.14 21.5, -3617.3 21.67, -3573.92 21.83, -3530.97 22.0, -3488.47 22.17, -3446.41 22.33, -3404.77 22.5, -3363.57 22.67, -3322.79 22.83, -3282.43 23.0, -3242.49 23.17, -3202.96 23.33, -3163.84 23.5, -3125.12 23.67, -3086.81 23.83, -3048.9 24.0, -3011.37 24.17, -2974.24 24.33, -2937.5 24.5, -2901.14 24.67, -2865.16 24.83, -2829.55 25.0, -2794.32 25.17, -2759.46 25.33, -2724.96 25.5, -2690.82 25.67, -2657.05 25.83, -2623.62 26.0, -2590.56 26.17, -2557.84 26.33, -2525.46 26.5, -2493.43 26.67, -2461.73 26.83, -2430.38 27.0, -2399.35 27.17, -2368.66 27.33, -2338.29 27.5, -2308.24 27.67, -2278.52 27.83, -2249.11 28.0, -2220.01 28.17, -2191.23 28.33, -2162.75 28.5, -2134.58 28.67, -2106.72 28.83, -2079.15 29.0, -2051.88 29.17, -2024.9 29.33, -1998.21 29.5, -1971.81 29.67, -1945.7 29.83, -1919.87 30.0, -1894.32 30.17, -1869.04 30.33, -1844.04 30.5, -1819.31 30.67, -1794.85 30.83, -1770.66 31.0, -1746.73 31.17, -1723.06 31.33, -1699.66 31.5, -1676.5 31.67, -1653.61 31.83, -1630.96 32.0, -1608.56 32.17, -1586.41 32.33, -1564.5 32.5, -1542.83 32.67, -1521.41 32.83, -1500.21 33.0, -1479.26 33.17, -1458.54 33.33, -1438.04 33.5, -1417.78 33.67, -1397.73 33.83, -1377.92 34.0, -1358.32 34.17, -1338.94 34.33, -1319.78 34.5, -1300.83 34.67, -1282.1 34.83, -1263.58 35.0, -1245.26 35.17, -1227.15 35.33, -1209.24 35.5, -1191.54 35.67, -1174.03 35.83, -1156.73 36.0, -1139.62 36.17, -1122.7 36.33, -1105.97 36.5, -1089.44 36.67, -1073.09 36.83, -1056.93 37.0, -1040.96 37.17, -1025.16 37.33, -1009.55 37.5, -994.11 37.67, -978.86 37.83, -963.77 38.0, -948.87 38.17, -934.13 38.33, -919.56 38.5, -905.16 38.67, -890.93 38.83, -876.86 39.0, -862.95 39.17, -849.21 39.33, -835.63 39.5, -822.2 39.67, -808.93 39.83, -795.81 40.0, -782.85 40.17, -770.04 40.33, -757.38 40.5, -744.87 40.67, -732.5 40.83, -720.29 41.0, -708.21 41.17, -696.28 41.33, -684.48 41.5, -672.83 41.67, -661.32 41.83, -649.94 42.0, -638.69 42.17, -627.58 42.33, -616.61 42.5, -605.76 42.67, -595.04 42.83, -584.46 43.0, -573.99 43.17, -563.66 43.33, -553.45 43.5, -543.36 43.67, -533.39 43.83, -523.54 44.0, -513.81 44.17, -504.2 44.33, -494.71 44.5, -485.33 44.67, -476.06 44.83, -466.91 45.0, -457.87 45.17, -448.94 45.33, -440.12 45.5, -431.4 45.67, -422.8 45.83, -414.3 46.0, -405.9 46.17, -397.61 46.33, -389.42 46.5, -381.33 46.67, -373.34 46.83, -365.45 47.0, -357.65 47.17, -349.96 47.33, -342.36 47.5, -334.85 47.67, -327.44 47.83, -320.12 48.0, -312.9 48.17, -305.76 48.33, -298.72 48.5, -291.76 48.67, -284.89 48.83, -278.1 49.0, -271.41 49.17, -264.8 49.33, -258.27 49.5, -251.82 49.67, -245.46 49.83, -239.18 50.0, -232.97 50.17, -226.85 50.33, -220.81 50.5, -214.84 50.67, -208.95 50.83, -203.14 51.0, -197.4 51.17, -191.74 51.33, -186.15 51.5, -180.63 51.67, -175.18 51.83, -169.81 52.0, -164.5 52.17, -159.27 52.33, -154.1 52.5, -149.0 52.67, -143.97 52.83, -139.0 53.0, -134.1 53.17, -129.26 53.33, -124.49 53.5, -119.78 53.67, -115.14 53.83, -110.55 54.0, -106.03 54.17, -101.57 54.33, -97.16 54.5, -92.82 54.67, -88.53 54.83, -84.31 55.0, -80.13 55.17, -76.02 55.33, -71.96 55.5, -67.96 55.67, -64.01 55.83, -60.11 56.0, -56.27 56.17, -52.48 56.33, -48.74 56.5, -45.06 56.67, -41.42 56.83, -37.84 57.0, -34.3 57.17, -30.82 57.33, -27.38 57.5, -23.99 57.67, -20.64 57.83, -17.35 58.0, -14.1 58.17, -10.89 58.33, -7.73 58.5, -4.62 58.67, -1.54 58.83, 1.48 59.0, 4.47 59.17, 7.41 59.33, 10.31 59.5, 13.17 59.67, 15.99 59.83, 18.77 60.0, 21.5 60.17, 24.2 60.33, 26.86 60.5, 29.48 60.67, 32.07 60.83, 34.61 61.0, 37.12 61.17, 39.59 61.33, 42.03 61.5, 44.43 61.67, 46.79 61.83, 49.12 62.0, 51.41 62.17, 53.67 62.33, 55.9 62.5, 58.1 62.67, 60.26 62.83, 62.39 63.0, 64.48 63.17, 66.55 63.33, 68.58 63.5, 70.59 63.67, 72.56 63.83, 74.5 64.0, 76.41 64.17, 78.3 64.33, 80.15 64.5, 81.98 64.67, 83.78 64.83, 85.55 65.0, 87.29 65.17, 89.01 65.33, 90.7 65.5, 92.36 65.67, 94.0 65.83, 95.61 66.0, 97.19 66.17, 98.75 66.33, 100.29 66.5, 101.8 66.67, 103.29 66.83, 104.75 67.0, 106.19 67.17, 107.6 67.33, 109.0 67.5, 110.37 67.67, 111.72 67.83, 113.04 68.0, 114.35 68.17, 115.63 68.33, 116.9 68.5, 118.14 68.67, 119.36 68.83, 120.56 69.0, 121.74 69.17, 122.9 69.33, 124.04 69.5, 125.16 69.67, 126.27 69.83, 127.35 70.0, 128.42 70.17, 129.46 70.33, 130.49 70.5, 131.51 70.67, 132.5 70.83, 133.48 71.0, 134.44 71.17, 135.38 71.33, 136.31 71.5, 137.22 71.67, 138.11 71.83, 138.99 72.0, 139.85 72.17, 140.7 72.33, 141.53 72.5, 142.35 72.67, 143.15 72.83, 143.94 73.0, 144.72 73.17, 145.47 73.33, 146.22 73.5, 146.95 73.67, 147.67 73.83, 148.38 74.0, 149.07 74.17, 149.75 74.33, 150.41 74.5, 151.06 74.67, 151.71 74.83, 152.33 75.0, 152.95 75.17, 153.56 75.33, 154.15 75.5, 154.73 75.67, 155.3 75.83, 155.86 76.0, 156.41 76.17, 156.94 76.33, 157.47 76.5, 157.99 76.67, 158.49 76.83, 158.99 77.0, 159.47 77.17, 159.95 77.33, 160.41 77.5, 160.87 77.67, 161.32 77.83, 161.76 78.0, 162.18 78.17, 162.6 78.33, 163.01 78.5, 163.41 78.67, 163.81 78.83, 164.19 79.0, 164.57 79.17, 164.94 79.33, 165.3 79.5, 165.65 79.67, 165.99 79.83, 166.33 80.0, 166.66 80.17, 166.98 80.33, 167.3 80.5, 167.6 80.67, 167.9 80.83, 168.2 81.0, 168.49 81.17, 168.77 81.33, 169.04 81.5, 169.31 81.67, 169.57 81.83, 169.82 82.0, 170.07 82.17, 170.31 82.33, 170.55 82.5, 170.78 82.67, 171.0 82.83, 171.22 83.0, 171.44 83.17, 171.65 83.33, 171.85 83.5, 172.05 83.67, 172.24 83.83, 172.43 84.0, 172.61 84.17, 172.79 84.33, 172.96 84.5, 173.13 84.67, 173.3 84.83, 173.46 85.0, 173.61 85.17, 173.76 85.33, 173.91 85.5, 174.05 85.67, 174.19 85.83, 174.33 86.0, 174.46 86.17, 174.59 86.33, 174.71 86.5, 174.83 86.67, 174.95 86.83, 175.06 87.0, 175.17 87.17, 175.28 87.33, 175.38 87.5, 175.48 87.67, 175.58 87.83, 175.67 88.0, 175.76 88.17, 175.85 88.33, 175.93 88.5, 176.02 88.67, 176.09 88.83, 176.17 89.0, 176.25 89.17, 176.32 89.33, 176.39 89.5, 176.45 89.67, 176.52 89.83, 176.58 90.0, 176.64 90.17, 176.7 90.33, 176.76 90.5, 176.81 90.67, 176.86 90.83, 176.91 91.0, 176.96 91.17, 177.01 91.33, 177.05 91.5, 177.1 91.67, 177.14 91.83, 177.18 92.0, 177.22 92.17, 177.25 92.33, 177.29 92.5, 177.32 92.67, 177.35 92.83, 177.39 93.0, 177.42 93.17, 177.44 93.33, 177.47 93.5, 177.5 93.67, 177.52 93.83, 177.55 94.0, 177.57 94.17, 177.59 94.33, 177.62 94.5, 177.64 94.67, 177.66 94.83, 177.68 95.0, 177.69 95.17, 177.71 95.33, 177.73 95.5, 177.74 95.67, 177.76 95.83, 177.78 96.0, 177.79 96.17, 177.8 96.33, 177.82 96.5, 177.83 96.67, 177.84 96.83, 177.86 97.0, 177.87 97.17, 177.88 97.33, 177.89 97.5, 177.9 97.67, 177.91 97.83, 177.92 98.0, 177.94 98.17, 177.95 98.33, 177.96 98.5, 177.97 98.67, 177.98 98.83, 177.99 99.0, 178.0 99.17, 178.01 99.33, 178.02 99.5, 178.03 99.67, 178.04 99.83, 178.05 100.0, 178.06 100.17, 178.07 100.33, 178.09 100.5, 178.1 100.67, 178.11 100.83, 178.12 101.0, 178.13 101.17, 178.15 101.33, 178.16 101.5, 178.17 101.67, 178.19 101.83, 178.2 102.0, 178.22 102.17, 178.23 102.33, 178.25 102.5, 178.26 102.67, 178.28 102.83, 178.3 103.0, 178.32 103.17, 178.34 103.33, 178.35 103.5, 178.37 103.67, 178.39 103.83, 178.41 104.0, 178.44 104.17, 178.46 104.33, 178.48 104.5, 178.5 104.67, 178.53 104.83, 178.55 105.0, 178.58 105.17, 178.6 105.33, 178.63 105.5, 178.66 105.67, 178.69 105.83, 178.72 106.0, 178.75 106.17, 178.78 106.33, 178.81 106.5, 178.84 106.67, 178.88 106.83, 178.91 107.0, 178.94 107.17, 178.98 107.33, 179.02 107.5, 179.05 107.67, 179.09 107.83, 179.13 108.0, 179.17 108.17, 179.21 108.33, 179.26 108.5, 179.3 108.67, 179.34 108.83, 179.39 109.0, 179.43 109.17, 179.48 109.33, 179.53 109.5, 179.58 109.67, 179.63 109.83, 179.68 110.0, 179.73 110.17, 179.78 110.33, 179.84 110.5, 179.89 110.67, 179.95 110.83, 180.0 111.0, 180.06 111.17, 180.12 111.33, 180.18 111.5, 180.24 111.67, 180.3 111.83, 180.36 112.0, 180.43 112.17, 180.49 112.33, 180.56 112.5, 180.62 112.67, 180.69 112.83, 180.76 113.0, 180.83 113.17, 180.9 113.33, 180.97 113.5, 181.05 113.67, 181.12 113.83, 181.2 114.0, 181.27 114.17, 181.35 114.33, 181.43 114.5, 181.51 114.67, 181.59 114.83, 181.67 115.0, 181.75 115.17, 181.84 115.33, 181.92 115.5, 182.01 115.67, 182.09 115.83, 182.18 116.0, 182.27 116.17, 182.36 116.33, 182.45 116.5, 182.54 116.67, 182.64 116.83, 182.73 117.0, 182.82 117.17, 182.92 117.33, 183.02 117.5, 183.12 117.67, 183.21 117.83, 183.31 118.0, 183.42 118.17, 183.52 118.33, 183.62 118.5, 183.72 118.67, 183.83 118.83, 183.94 119.0, 184.04 119.17, 184.15 119.33, 184.26 119.5, 184.37 119.67, 184.48 119.83, 184.59 120.0, 184.7 120.17, 184.82 120.33, 184.93 120.5, 185.05 120.67, 185.16 120.83, 185.28 121.0, 185.4 121.17, 185.52 121.33, 185.64 121.5, 185.76 121.67, 185.88 121.83, 186.01 122.0, 186.13 122.17, 186.25 122.33, 186.38 122.5, 186.51 122.67, 186.63 122.83, 186.76 123.0, 186.89 123.17, 187.02 123.33, 187.15 123.5, 187.28 123.67, 187.41 123.83, 187.55 124.0, 187.68 124.17, 187.81 124.33, 187.95 124.5, 188.09 124.67, 188.22 124.83, 188.36 125.0, 188.5 125.17, 188.64 125.33, 188.78 125.5, 188.92 125.67, 189.06 125.83, 189.2 126.0, 189.34 126.17, 189.49 126.33, 189.63 126.5, 189.78 126.67, 189.92 126.83, 190.07 127.0, 190.21 127.17, 190.36 127.33, 190.51 127.5, 190.66 127.67, 190.81 127.83, 190.96 128.0, 191.11 128.17, 191.26 128.33, 191.41 128.5, 191.56 128.67, 191.72 128.83, 191.87 129.0, 192.02 129.17, 192.18 129.33, 192.33 129.5, 192.49 129.67, 192.64 129.83, 192.8 130.0, 192.96 130.17, 193.11 130.33, 193.27 130.5, 193.43 130.67, 193.59 130.83, 193.75 131.0, 193.91 131.17, 194.07 131.33, 194.23 131.5, 194.39 131.67, 194.55 131.83, 194.71 132.0, 194.87 132.17, 195.03 132.33, 195.19 132.5, 195.36 132.67, 195.52 132.83, 195.68 133.0, 195.85 133.17, 196.01 133.33, 196.17 133.5, 196.34 133.67, 196.5 133.83, 196.67 134.0, 196.83 134.17, 197.0 134.33, 197.16 134.5, 197.33 134.67, 197.49 134.83, 197.66 135.0, 197.83 135.17, 197.99 135.33, 198.16 135.5, 198.32 135.67, 198.49 135.83, 198.66 136.0, 198.82 136.17, 198.99 136.33, 199.16 136.5, 199.32 136.67, 199.49 136.83, 199.66 137.0, 199.82 137.17, 199.99 137.33, 200.16 137.5, 200.33 137.67, 200.49 137.83, 200.66 138.0, 200.83 138.17, 200.99 138.33, 201.16 138.5, 201.33 138.67, 201.49 138.83, 201.66 139.0, 201.82 139.17, 201.99 139.33, 202.16 139.5, 202.32 139.67, 202.49 139.83, 202.65 140.0, 202.82 140.17, 202.98 140.33, 203.15 140.5, 203.31 140.67, 203.48 140.83, 203.64 141.0, 203.81 141.17, 203.97 141.33, 204.13 141.5, 204.3 141.67, 204.46 141.83, 204.62 142.0, 204.78 142.17, 204.94 142.33, 205.11 142.5, 205.27 142.67, 205.43 142.83, 205.59 143.0, 205.75 143.17, 205.91 143.33, 206.07 143.5, 206.22 143.67, 206.38 143.83, 206.54 144.0, 206.7 144.17, 206.86 144.33, 207.01 144.5, 207.17 144.67, 207.32 144.83, 207.48 145.0, 207.63 145.17, 207.79 145.33, 207.94 145.5, 208.09 145.67, 208.24 145.83, 208.4 146.0, 208.55 146.17, 208.7 146.33, 208.85 146.5, 209.0 146.67, 209.14 146.83, 209.29 147.0, 209.44 147.17, 209.59 147.33, 209.73 147.5, 209.88 147.67, 210.02 147.83, 210.17 148.0, 210.31 148.17, 210.45 148.33, 210.59 148.5, 210.73 148.67, 210.87 148.83, 211.01 149.0, 211.15 149.17, 211.29 149.33, 211.43 149.5, 211.56 149.67, 211.7 149.83, 211.84 150.0, 211.97 150.17, 212.1 150.33, 212.23 150.5, 212.37 150.67, 212.5 150.83, 212.63 151.0, 212.76 151.17, 212.88 151.33, 213.01 151.5, 213.14 151.67, 213.26 151.83, 213.39 152.0, 213.51 152.17, 213.63 152.33, 213.75 152.5, 213.87 152.67, 213.99 152.83, 214.11 153.0, 214.23 153.17, 214.35 153.33, 214.46 153.5, 214.58 153.67, 214.69 153.83, 214.8 154.0, 214.91 154.17, 215.02 154.33, 215.13 154.5, 215.24 154.67, 215.35 154.83, 215.46 155.0, 215.56 155.17, 215.67 155.33, 215.77 155.5, 215.87 155.67, 215.97 155.83, 216.07 156.0, 216.17 156.17, 216.27 156.33, 216.36 156.5, 216.46 156.67, 216.55 156.83, 216.65 157.0, 216.74 157.17, 216.83 157.33, 216.92 157.5, 217.01 157.67, 217.09 157.83, 217.18 158.0, 217.26 158.17, 217.35 158.33, 217.43 158.5, 217.51 158.67, 217.59 158.83, 217.67 159.0, 217.75 159.17, 217.82 159.33, 217.9 159.5, 217.97 159.67, 218.04 159.83, 218.12 160.0, 218.19 160.17, 218.25 160.33, 218.32 160.5, 218.39 160.67, 218.45 160.83, 218.52 161.0, 218.58 161.17, 218.64 161.33, 218.7 161.5, 218.76 161.67, 218.82 161.83, 218.87 162.0, 218.93 162.17, 218.98 162.33, 219.03 162.5, 219.08 162.67, 219.13 162.83, 219.18 163.0, 219.23 163.17, 219.27 163.33, 219.31 163.5, 219.36 163.67, 219.4 163.83, 219.44 164.0, 219.48 164.17, 219.51 164.33, 219.55 164.5, 219.58 164.67, 219.62 164.83, 219.65 165.0, 219.68 165.17, 219.71 165.33, 219.74 165.5, 219.76 165.67, 219.79 165.83, 219.81 166.0, 219.83 166.17, 219.85 166.33, 219.87 166.5, 219.89 166.67, 219.91 166.83, 219.92 167.0, 219.94 167.17, 219.95 167.33, 219.96 167.5, 219.97 167.67, 219.98 167.83, 219.99 168.0, 219.99 168.17, 220.0 168.33, 220.0 168.5, 220.0 168.67, 220.0 168.83, 220.0 169.0, 220.0 169.17, 219.99 169.33, 219.99 169.5, 219.98 169.67, 219.97 169.83, 219.96 170.0, 219.95 170.17, 219.94 170.33, 219.92 170.5, 219.91 170.67, 219.89 170.83, 219.87 171.0, 219.85 171.17, 219.83 171.33, 219.81 171.5, 219.79 171.67, 219.76 171.83, 219.74 172.0, 219.71 172.17, 219.68 172.33, 219.65 172.5, 219.62 172.67, 219.58 172.83, 219.55 173.0, 219.51 173.17, 219.48 173.33, 219.44 173.5, 219.4 173.67, 219.36 173.83, 219.32 174.0, 219.27 174.17, 219.23 174.33, 219.18 174.5, 219.13 174.67, 219.08 174.83, 219.03 175.0, 218.98 175.17, 218.93 175.33, 218.87 175.5, 218.82 175.67, 218.76 175.83, 218.7 176.0, 218.64 176.17, 218.58 176.33, 218.52 176.5, 218.45 176.67, 218.39 176.83, 218.32 177.0, 218.26 177.17, 218.19 177.33, 218.12 177.5, 218.05 177.67, 217.97 177.83, 217.9 178.0, 217.82 178.17, 217.75 178.33, 217.67 178.5, 217.59 178.67, 217.51 178.83, 217.43 179.0, 217.35 179.17, 217.26 179.33, 217.18 179.5, 217.09 179.67, 217.01 179.83, 216.92 180.0, 216.83 180.17, 216.74 180.33, 216.65 180.5, 216.55 180.67, 216.46 180.83, 216.36 181.0, 216.27 181.17, 216.17 181.33, 216.07 181.5, 215.97 181.67, 215.87 181.83, 215.77 182.0, 215.67 182.17, 215.56 182.33, 215.46 182.5, 215.35 182.67, 215.24 182.83, 215.14 183.0, 215.03 183.17, 214.92 183.33, 214.8 183.5, 214.69 183.67, 214.58 183.83, 214.46 184.0, 214.35 184.17, 214.23 184.33, 214.11 184.5, 213.99 184.67, 213.87 184.83, 213.75 185.0, 213.63 185.17, 213.51 185.33, 213.39 185.5, 213.26 185.67, 213.14 185.83, 213.01 186.0, 212.88 186.17, 212.76 186.33, 212.63 186.5, 212.5 186.67, 212.37 186.83, 212.24 187.0, 212.1 187.17, 211.97 187.33, 211.84 187.5, 211.7 187.67, 211.57 187.83, 211.43 188.0, 211.29 188.17, 211.15 188.33, 211.02 188.5, 210.88 188.67, 210.74 188.83, 210.6 189.0, 210.45 189.17, 210.31 189.33, 210.17 189.5, 210.02 189.67, 209.88 189.83, 209.73 190.0, 209.59 190.17, 209.44 190.33, 209.29 190.5, 209.15 190.67, 209.0 190.83, 208.85 191.0, 208.7 191.17, 208.55 191.33, 208.4 191.5, 208.25 191.67, 208.09 191.83, 207.94 192.0, 207.79 192.17, 207.63 192.33, 207.48 192.5, 207.33 192.67, 207.17 192.83, 207.01 193.0, 206.86 193.17, 206.7 193.33, 206.54 193.5, 206.39 193.67, 206.23 193.83, 206.07 194.0, 205.91 194.17, 205.75 194.33, 205.59 194.5, 205.43 194.67, 205.27 194.83, 205.11 195.0, 204.95 195.17, 204.79 195.33, 204.62 195.5, 204.46 195.67, 204.3 195.83, 204.14 196.0, 203.97 196.17, 203.81 196.33, 203.65 196.5, 203.48 196.67, 203.32 196.83, 203.15 197.0, 202.99 197.17, 202.82 197.33, 202.66 197.5, 202.49 197.67, 202.33 197.83, 202.16 198.0, 202.0 198.17, 201.83 198.33, 201.66 198.5, 201.5 198.67, 201.33 198.83, 201.17 199.0, 201.0 199.17, 200.83 199.33, 200.67 199.5, 200.5 199.67, 200.33 199.83, 200.17 200.0, 200.0 200.17, 199.83 200.33, 199.67 200.5, 199.5 200.67, 199.33 200.83, 199.17 201.0, 199.0 201.17, 198.83 201.33, 198.67 201.5, 198.5 201.67, 198.34 201.83, 198.17 202.0, 198.0 202.17, 197.84 202.33, 197.67 202.5, 197.51 202.67, 197.34 202.83, 197.18 203.0, 197.01 203.17, 196.85 203.33, 196.68 203.5, 196.52 203.67, 196.35 203.83, 196.19 204.0, 196.03 204.17, 195.86 204.33, 195.7 204.5, 195.54 204.67, 195.38 204.83, 195.21 205.0, 195.05 205.17, 194.89 205.33, 194.73 205.5, 194.57 205.67, 194.41 205.83, 194.25 206.0, 194.09 206.17, 193.93 206.33, 193.77 206.5, 193.61 206.67, 193.46 206.83, 193.3 207.0, 193.14 207.17, 192.99 207.33, 192.83 207.5, 192.67 207.67, 192.52 207.83, 192.37 208.0, 192.21 208.17, 192.06 208.33, 191.91 208.5, 191.75 208.67, 191.6 208.83, 191.45 209.0, 191.3 209.17, 191.15 209.33, 191.0 209.5, 190.85 209.67, 190.71 209.83, 190.56 210.0, 190.41 210.17, 190.27 210.33, 190.12 210.5, 189.98 210.67, 189.83 210.83, 189.69 211.0, 189.55 211.17, 189.4 211.33, 189.26 211.5, 189.12 211.67, 188.98 211.83, 188.85 212.0, 188.71 212.17, 188.57 212.33, 188.43 212.5, 188.3 212.67, 188.16 212.83, 188.03 213.0, 187.9 213.17, 187.76 213.33, 187.63 213.5, 187.5 213.67, 187.37 213.83, 187.24 214.0, 187.12 214.17, 186.99 214.33, 186.86 214.5, 186.74 214.67, 186.61 214.83, 186.49 215.0, 186.37 215.17, 186.25 215.33, 186.13 215.5, 186.01 215.67, 185.89 215.83, 185.77 216.0, 185.65 216.17, 185.54 216.33, 185.42 216.5, 185.31 216.67, 185.2 216.83, 185.08 217.0, 184.97 217.17, 184.86 217.33, 184.76 217.5, 184.65 217.67, 184.54 217.83, 184.44 218.0, 184.33 218.17, 184.23 218.33, 184.13 218.5, 184.03 218.67, 183.93 218.83, 183.83 219.0, 183.73 219.17, 183.64 219.33, 183.54 219.5, 183.45 219.67, 183.35 219.83, 183.26 220.0, 183.17 220.17, 183.08 220.33, 182.99 220.5, 182.91 220.67, 182.82 220.83, 182.74 221.0, 182.65 221.17, 182.57 221.33, 182.49 221.5, 182.41 221.67, 182.33 221.83, 182.25 222.0, 182.18 222.17, 182.1 222.33, 182.03 222.5, 181.95 222.67, 181.88 222.83, 181.81 223.0, 181.74 223.17, 181.68 223.33, 181.61 223.5, 181.55 223.67, 181.48 223.83, 181.42 224.0, 181.36 224.17, 181.3 224.33, 181.24 224.5, 181.18 224.67, 181.13 224.83, 181.07 225.0, 181.02 225.17, 180.97 225.33, 180.92 225.5, 180.87 225.67, 180.82 225.83, 180.77 226.0, 180.73 226.17, 180.68 226.33, 180.64 226.5, 180.6 226.67, 180.56 226.83, 180.52 227.0, 180.49 227.17, 180.45 227.33, 180.42 227.5, 180.38 227.67, 180.35 227.83, 180.32 228.0, 180.29 228.17, 180.26 228.33, 180.24 228.5, 180.21 228.67, 180.19 228.83, 180.17 229.0, 180.15 229.17, 180.13 229.33, 180.11 229.5, 180.09 229.67, 180.08 229.83, 180.06 230.0, 180.05 230.17, 180.04 230.33, 180.03 230.5, 180.02 230.67, 180.01 230.83, 180.01 231.0, 180.0 231.17, 180.0 231.33, 180.0 231.5, 180.0 231.67, 180.0 231.83, 180.0 232.0, 180.01 232.17, 180.01 232.33, 180.02 232.5, 180.03 232.67, 180.04 232.83, 180.05 233.0, 180.06 233.17, 180.08 233.33, 180.09 233.5, 180.11 233.67, 180.13 233.83, 180.15 234.0, 180.17 234.17, 180.19 234.33, 180.21 234.5, 180.24 234.67, 180.26 234.83, 180.29 235.0, 180.32 235.17, 180.35 235.33, 180.38 235.5, 180.42 235.67, 180.45 235.83, 180.49 236.0, 180.52 236.17, 180.56 236.33, 180.6 236.5, 180.64 236.67, 180.69 236.83, 180.73 237.0, 180.77 237.17, 180.82 237.33, 180.87 237.5, 180.92 237.67, 180.97 237.83, 181.02 238.0, 181.07 238.17, 181.13 238.33, 181.18 238.5, 181.24 238.67, 181.3 238.83, 181.36 239.0, 181.42 239.17, 181.48 239.33, 181.55 239.5, 181.61 239.67, 181.68 239.83, 181.75 240.0, 181.81 240.17, 181.88 240.33, 181.96 240.5, 182.03 240.67, 182.1 240.83, 182.18 241.0, 182.25 241.17, 182.33 241.33, 182.41 241.5, 182.49 241.67, 182.57 241.83, 182.65 242.0, 182.74 242.17, 182.82 242.33, 182.91 242.5, 182.99 242.67, 183.08 242.83, 183.17 243.0, 183.26 243.17, 183.35 243.33, 183.45 243.5, 183.54 243.67, 183.64 243.83, 183.73 244.0, 183.83 244.17, 183.93 244.33, 184.03 244.5, 184.13 244.67, 184.23 244.83, 184.33 245.0, 184.44 245.17, 184.54 245.33, 184.65 245.5, 184.76 245.67, 184.87 245.83, 184.98 246.0, 185.09 246.17, 185.2 246.33, 185.31 246.5, 185.42 246.67, 185.54 246.83, 185.65 247.0, 185.77 247.17, 185.89 247.33, 186.01 247.5, 186.13 247.67, 186.25 247.83, 186.37 248.0, 186.49 248.17, 186.61 248.33, 186.74 248.5, 186.86 248.67, 186.99 248.83, 187.12 249.0, 187.24 249.17, 187.37 249.33, 187.5 249.5, 187.63 249.67, 187.77 249.83, 187.9 250.0, 188.03 250.17, 188.16 250.33, 188.3 250.5, 188.44 250.67, 188.57 250.83, 188.71 251.0, 188.85 251.17, 188.99 251.33, 189.13 251.5, 189.27 251.67, 189.41 251.83, 189.55 252.0, 189.69 252.17, 189.83 252.33, 189.98 252.5, 190.12 252.67, 190.27 252.83, 190.41 253.0, 190.56 253.17, 190.71 253.33, 190.86 253.5, 191.0 253.67, 191.15 253.83, 191.3 254.0, 191.45 254.17, 191.6 254.33, 191.76 254.5, 191.91 254.67, 192.06 254.83, 192.21 255.0, 192.37 255.17, 192.52 255.33, 192.68 255.5, 192.83 255.67, 192.99 255.83, 193.14 256.0, 193.3 256.17, 193.46 256.33, 193.62 256.5, 193.78 256.67, 193.93 256.83, 194.09 257.0, 194.25 257.17, 194.41 257.33, 194.57 257.5, 194.73 257.67, 194.89 257.83, 195.06 258.0, 195.22 258.17, 195.38 258.33, 195.54 258.5, 195.7 258.67, 195.87 258.83, 196.03 259.0, 196.19 259.17, 196.36 259.33, 196.52 259.5, 196.69 259.67, 196.85 259.83, 197.02 260.0, 197.18 260.17, 197.35 260.33, 197.51 260.5, 197.68 260.67, 197.84 260.83, 198.01 261.0, 198.18 261.17, 198.34 261.33, 198.51 261.5, 198.67 261.67, 198.84 261.83, 199.01 262.0, 199.17 262.17, 199.34 262.33, 199.51 262.5, 199.67 262.67, 199.84 262.83, 200.01 263.0, 200.18 263.17, 200.34 263.33, 200.51 263.5, 200.68 263.67, 200.84 263.83, 201.01 264.0, 201.18 264.17, 201.34 264.33, 201.51 264.5, 201.68 264.67, 201.84 264.83, 202.01 265.0, 202.17 265.17, 202.34 265.33, 202.51 265.5, 202.67 265.67, 202.84 265.83, 203.0 266.0, 203.17 266.17, 203.33 266.33, 203.5 266.5, 203.66 266.67, 203.83 266.83, 203.99 267.0, 204.15 267.17, 204.32 267.33, 204.48 267.5, 204.64 267.67, 204.81 267.83, 204.97 268.0, 205.13 268.17, 205.29 268.33, 205.45 268.5, 205.61 268.67, 205.77 268.83, 205.93 269.0, 206.09 269.17, 206.25 269.33, 206.41 269.5, 206.57 269.67, 206.73 269.83, 206.89 270.0, 207.04 270.17, 207.2 270.33, 207.36 270.5, 207.51 270.67, 207.67 270.83, 207.82 271.0, 207.98 271.17, 208.13 271.33, 208.28 271.5, 208.44 271.67, 208.59 271.83, 208.74 272.0, 208.89 272.17, 209.04 272.33, 209.19 272.5, 209.34 272.67, 209.49 272.83, 209.64 273.0, 209.79 273.17, 209.93 273.33, 210.08 273.5, 210.22 273.67, 210.37 273.83, 210.51 274.0, 210.66 274.17, 210.8 274.33, 210.94 274.5, 211.08 274.67, 211.22 274.83, 211.36 275.0, 211.5 275.17, 211.64 275.33, 211.78 275.5, 211.91 275.67, 212.05 275.83, 212.19 276.0, 212.32 276.17, 212.45 276.33, 212.59 276.5, 212.72 276.67, 212.85 276.83, 212.98 277.0, 213.11 277.17, 213.24 277.33, 213.37 277.5, 213.49 277.67, 213.62 277.83, 213.75 278.0, 213.87 278.17, 213.99 278.33, 214.12 278.5, 214.24 278.67, 214.36 278.83, 214.48 279.0, 214.6 279.17, 214.72 279.33, 214.84 279.5, 214.95 279.67, 215.07 279.83, 215.18 280.0, 215.3 280.17, 215.41 280.33, 215.52 280.5, 215.63 280.67, 215.74 280.83, 215.85 281.0, 215.96 281.17, 216.06 281.33, 216.17 281.5, 216.28 281.67, 216.38 281.83, 216.48 282.0, 216.58 282.17, 216.69 282.33, 216.79 282.5, 216.88 282.67, 216.98 282.83, 217.08 283.0, 217.18 283.17, 217.27 283.33, 217.36 283.5, 217.46 283.67, 217.55 283.83, 217.64 284.0, 217.73 284.17, 217.82 284.33, 217.91 284.5, 217.99 284.67, 218.08 284.83, 218.16 285.0, 218.25 285.17, 218.33 285.33, 218.41 285.5, 218.49 285.67, 218.57 285.83, 218.65 286.0, 218.73 286.17, 218.8 286.33, 218.88 286.5, 218.95 286.67, 219.03 286.83, 219.1 287.0, 219.17 287.17, 219.24 287.33, 219.31 287.5, 219.38 287.67, 219.44 287.83, 219.51 288.0, 219.57 288.17, 219.64 288.33, 219.7 288.5, 219.76 288.67, 219.82 288.83, 219.88 289.0, 219.94 289.17, 220.0 289.33, 220.05 289.5, 220.11 289.67, 220.16 289.83, 220.22 290.0, 220.27 290.17, 220.32 290.33, 220.37 290.5, 220.42 290.67, 220.47 290.83, 220.52 291.0, 220.57 291.17, 220.61 291.33, 220.66 291.5, 220.7 291.67, 220.74 291.83, 220.79 292.0, 220.83 292.17, 220.87 292.33, 220.91 292.5, 220.95 292.67, 220.98 292.83, 221.02 293.0, 221.06 293.17, 221.09 293.33, 221.12 293.5, 221.16 293.67, 221.19 293.83, 221.22 294.0, 221.25 294.17, 221.28 294.33, 221.31 294.5, 221.34 294.67, 221.37 294.83, 221.4 295.0, 221.42 295.17, 221.45 295.33, 221.47 295.5, 221.5 295.67, 221.52 295.83, 221.54 296.0, 221.56 296.17, 221.59 296.33, 221.61 296.5, 221.63 296.67, 221.65 296.83, 221.66 297.0, 221.68 297.17, 221.7 297.33, 221.72 297.5, 221.74 297.67, 221.75 297.83, 221.77 298.0, 221.78 298.17, 221.8 298.33, 221.81 298.5, 221.83 298.67, 221.84 298.83, 221.85 299.0, 221.87 299.17, 221.88 299.33, 221.89 299.5, 221.9 299.67, 221.91 299.83, 221.93 300.0, 221.94 300.17, 221.95 300.33, 221.96 300.5, 221.97 300.67, 221.98 300.83, 221.99 301.0, 222.0 301.17, 222.01 301.33, 222.02 301.5, 222.03 301.67, 222.04 301.83, 222.05 302.0, 222.06 302.17, 222.08 302.33, 222.09 302.5, 222.1 302.67, 222.11 302.83, 222.12 303.0, 222.13 303.17, 222.14 303.33, 222.16 303.5, 222.17 303.67, 222.18 303.83, 222.2 304.0, 222.21 304.17, 222.22 304.33, 222.24 304.5, 222.26 304.67, 222.27 304.83, 222.29 305.0, 222.31 305.17, 222.32 305.33, 222.34 305.5, 222.36 305.67, 222.38 305.83, 222.41 306.0, 222.43 306.17, 222.45 306.33, 222.48 306.5, 222.5 306.67, 222.53 306.83, 222.56 307.0, 222.58 307.17, 222.61 307.33, 222.65 307.5, 222.68 307.67, 222.71 307.83, 222.75 308.0, 222.78 308.17, 222.82 308.33, 222.86 308.5, 222.9 308.67, 222.95 308.83, 222.99 309.0, 223.04 309.17, 223.09 309.33, 223.14 309.5, 223.19 309.67, 223.24 309.83, 223.3 310.0, 223.36 310.17, 223.42 310.33, 223.48 310.5, 223.55 310.67, 223.61 310.83, 223.68 311.0, 223.75 311.17, 223.83 311.33, 223.91 311.5, 223.98 311.67, 224.07 311.83, 224.15 312.0, 224.24 312.17, 224.33 312.33, 224.42 312.5, 224.52 312.67, 224.62 312.83, 224.72 313.0, 224.83 313.17, 224.94 313.33, 225.05 313.5, 225.17 313.67, 225.29 313.83, 225.41 314.0, 225.54 314.17, 225.67 314.33, 225.81 314.5, 225.95 314.67, 226.09 314.83, 226.24 315.0, 226.39 315.17, 226.54 315.33, 226.7 315.5, 226.87 315.67, 227.04 315.83, 227.21 316.0, 227.39 316.17, 227.57 316.33, 227.76 316.5, 227.95 316.67, 228.15 316.83, 228.35 317.0, 228.56 317.17, 228.78 317.33, 229.0 317.5, 229.22 317.67, 229.45 317.83, 229.69 318.0, 229.93 318.17, 230.18 318.33, 230.43 318.5, 230.69 318.67, 230.96 318.83, 231.23 319.0, 231.51 319.17, 231.8 319.33, 232.1 319.5, 232.4 319.67, 232.7 319.83, 233.02 320.0, 233.34 320.17, 233.67 320.33, 234.01 320.5, 234.35 320.67, 234.7 320.83, 235.06 321.0, 235.43 321.17, 235.81 321.33, 236.19 321.5, 236.59 321.67, 236.99 321.83, 237.4 322.0, 237.82 322.17, 238.24 322.33, 238.68 322.5, 239.13 322.67, 239.59 322.83, 240.05 323.0, 240.53 323.17, 241.01 323.33, 241.51 323.5, 242.01 323.67, 242.53 323.83, 243.06 324.0, 243.59 324.17, 244.14 324.33, 244.7 324.5, 245.27 324.67, 245.85 324.83, 246.44 325.0, 247.05 325.17, 247.67 325.33, 248.29 325.5, 248.94 325.67, 249.59 325.83, 250.25 326.0, 250.93 326.17, 251.62 326.33, 252.33 326.5, 253.05 326.67, 253.78 326.83, 254.53 327.0, 255.28 327.17, 256.06 327.33, 256.85 327.5, 257.65 327.67, 258.47 327.83, 259.3 328.0, 260.15 328.17, 261.01 328.33, 261.89 328.5, 262.78 328.67, 263.69 328.83, 264.62 329.0, 265.56 329.17, 266.52 329.33, 267.5 329.5, 268.49 329.67, 269.51 329.83, 270.54 330.0, 271.58 330.17, 272.65 330.33, 273.73 330.5, 274.84 330.67, 275.96 330.83, 277.1 331.0, 278.26 331.17, 279.44 331.33, 280.64 331.5, 281.86 331.67, 283.1 331.83, 284.37 332.0, 285.65 332.17, 286.96 332.33, 288.28 332.5, 289.63 332.67, 291.0 332.83, 292.4 333.0, 293.81 333.17, 295.25 333.33, 296.71 333.5, 298.2 333.67, 299.71 333.83, 301.25 334.0, 302.81 334.17, 304.39 334.33, 306.0 334.5, 307.64 334.67, 309.3 334.83, 310.99 335.0, 312.71 335.17, 314.45 335.33, 316.22 335.5, 318.02 335.67, 319.85 335.83, 321.7 336.0, 323.59 336.17, 325.5 336.33, 327.44 336.5, 329.41 336.67, 331.42 336.83, 333.45 337.0, 335.52 337.17, 337.61 337.33, 339.74 337.5, 341.9 337.67, 344.1 337.83, 346.33 338.0, 348.59 338.17, 350.88 338.33, 353.21 338.5, 355.57 338.67, 357.97 338.83, 360.41 339.0, 362.88 339.17, 365.39 339.33, 367.93 339.5, 370.52 339.67, 373.14 339.83, 375.8 340.0, 378.5 340.17, 381.23 340.33, 384.01 340.5, 386.83 340.67, 389.69 340.83, 392.59 341.0, 395.53 341.17, 398.52 341.33, 401.54 341.5, 404.62 341.67, 407.73 341.83, 410.89 342.0, 414.1 342.17, 417.35 342.33, 420.64 342.5, 423.99 342.67, 427.38 342.83, 430.82 343.0, 434.3 343.17, 437.84 343.33, 441.42 343.5, 445.06 343.67, 448.74 343.83, 452.48 344.0, 456.27 344.17, 460.11 344.33, 464.01 344.5, 467.96 344.67, 471.96 344.83, 476.02 345.0, 480.13 345.17, 484.31 345.33, 488.53 345.5, 492.82 345.67, 497.16 345.83, 501.57 346.0, 506.03 346.17, 510.55 346.33, 515.14 346.5, 519.78 346.67, 524.49 346.83, 529.26 347.0, 534.1 347.17, 539.0 347.33, 543.97 347.5, 549.0 347.67, 554.1 347.83, 559.27 348.0, 564.5 348.17, 569.81 348.33, 575.18 348.5, 580.63 348.67, 586.15 348.83, 591.74 349.0, 597.4 349.17, 603.14 349.33, 608.95 349.5, 614.84 349.67, 620.81 349.83, 626.85 350.0, 632.97 350.17, 639.18 350.33, 645.46 350.5, 651.82 350.67, 658.27 350.83, 664.8 351.0, 671.41 351.17, 678.1 351.33, 684.89 351.5, 691.76 351.67, 698.72 351.83, 705.76 352.0, 712.9 352.17, 720.12 352.33, 727.44 352.5, 734.85 352.67, 742.36 352.83, 749.96 353.0, 757.65 353.17, 765.45 353.33, 773.34 353.5, 781.33 353.67, 789.42 353.83, 797.61 354.0, 805.9 354.17, 814.3 354.33, 822.8 354.5, 831.4 354.67, 840.12 354.83, 848.94 355.0, 857.87 355.17, 866.91 355.33, 876.06 355.5, 885.33 355.67, 894.71 355.83, 904.2 356.0, 913.81 356.17, 923.54 356.33, 933.39 356.5, 943.36 356.67, 953.45 356.83, 963.66 357.0, 973.99 357.17, 984.46 357.33, 995.04 357.5, 1005.76 357.67, 1016.61 357.83, 1027.58 358.0, 1038.69 358.17, 1049.94 358.33, 1061.32 358.5, 1072.83 358.67, 1084.48 358.83, 1096.28 359.0, 1108.21 359.17, 1120.29 359.33, 1132.5 359.5, 1144.87 359.67, 1157.38 359.83, 1170.04 360.0, 1182.85 360.17, 1195.81 360.33, 1208.93 360.5, 1222.2 360.67, 1235.63 360.83, 1249.21 361.0, 1262.95 361.17, 1276.86 361.33, 1290.93 361.5, 1305.16 361.67, 1319.56 361.83, 1334.13 362.0, 1348.87 362.17, 1363.77 362.33, 1378.86 362.5, 1394.11 362.67, 1409.55 362.83, 1425.16 363.0, 1440.96 363.17, 1456.93 363.33, 1473.09 363.5, 1489.44 363.67, 1505.97 363.83, 1522.7 364.0, 1539.62 364.17, 1556.73 364.33, 1574.03 364.5, 1591.54 364.67, 1609.24 364.83, 1627.15 365.0, 1645.26 365.17, 1663.58 365.33, 1682.1 365.5, 1700.83 365.67, 1719.78 365.83, 1738.94 366.0, 1758.32 366.17, 1777.92 366.33, 1797.73 366.5, 1817.78 366.67, 1838.04 366.83, 1858.54 367.0, 1879.26 367.17, 1900.21 367.33, 1921.41 367.5, 1942.83 367.67, 1964.5 367.83, 1986.41 368.0, 2008.56 368.17, 2030.96 368.33, 2053.61 368.5, 2076.5 368.67, 2099.66 368.83, 2123.06 369.0, 2146.73 369.17, 2170.66 369.33, 2194.85 369.5, 2219.31 369.67, 2244.04 369.83, 2269.04 370.0, 2294.32 370.17, 2319.87 370.33, 2345.7 370.5, 2371.81 370.67, 2398.21 370.83, 2424.9 371.0, 2451.88 371.17, 2479.15 371.33, 2506.72 371.5, 2534.58 371.67, 2562.75 371.83, 2591.23 372.0, 2620.01 372.17, 2649.11 372.33, 2678.52 372.5, 2708.24 372.67, 2738.29 372.83, 2768.66 373.0, 2799.35 373.17, 2830.38 373.33, 2861.73 373.5, 2893.43 373.67, 2925.46 373.83, 2957.84 374.0, 2990.56 374.17, 3023.62 374.33, 3057.05 374.5, 3090.82 374.67, 3124.96 374.83, 3159.46 375.0, 3194.32 375.17, 3229.55 375.33, 3265.16 375.5, 3301.14 375.67, 3337.5 375.83, 3374.24 376.0, 3411.37 376.17, 3448.9 376.33, 3486.81 376.5, 3525.12 376.67, 3563.84 376.83, 3602.96 377.0, 3642.49 377.17, 3682.43 377.33, 3722.79 377.5, 3763.57 377.67, 3804.77 377.83, 3846.41 378.0, 3888.47 378.17, 3930.97 378.33, 3973.92 378.5, 4017.3 378.67, 4061.14 378.83, 4105.43 379.0, 4150.17 379.17, 4195.38 379.33, 4241.05 379.5, 4287.19 379.67, 4333.81 379.83, 4380.9 380.0, 4428.48 380.17, 4476.55 380.33, 4525.1 380.5, 4574.16 380.67, 4623.71 380.83, 4673.77 381.0, 4724.33 381.17, 4775.42 381.33, 4827.02 381.5, 4879.14 381.67, 4931.8 381.83, 4984.99 382.0, 5038.71 382.17, 5092.98 382.33, 5147.8 382.5, 5203.17 382.67, 5259.1 382.83, 5315.59 383.0, 5372.64 383.17, 5430.28 383.33, 5488.49 383.5, 5547.28 383.67, 5606.66 383.83, 5666.64 384.0, 5727.21 384.17, 5788.39 384.33, 5850.18 384.5, 5912.58 384.67, 5975.61 384.83, 6039.26 385.0, 6103.55 385.17, 6168.47 385.33, 6234.03 385.5, 6300.24 385.67, 6367.11 385.83, 6434.64 386.0, 6502.83 386.17, 6571.7 386.33, 6641.24 386.5, 6711.47 386.67, 6782.39 386.83, 6854.0 387.0, 6926.32 387.17, 6999.34 387.33, 7073.08 387.5, 7147.53 387.67, 7222.72 387.83, 7298.64 388.0, 7375.3 388.17, 7452.7 388.33, 7530.86 388.5, 7609.77 388.67, 7689.45 388.83, 7769.9 389.0, 7851.14 389.17, 7933.15 389.33, 8015.96 389.5, 8099.57 389.67, 8183.99 389.83, 8269.21 390.0, 8355.26 390.17, 8442.14 390.33, 8529.85 390.5, 8618.4 390.67, 8707.79 390.83, 8798.05 391.0, 8889.17 391.17, 8981.15 391.33, 9074.02 391.5, 9167.77 391.67, 9262.41 391.83, 9357.96 392.0, 9454.41 392.17, 9551.78 392.33, 9650.07 392.5, 9749.29 392.67, 9849.45 392.83, 9950.56 393.0, 10052.62 393.17, 10155.65 393.33, 10259.65 393.5, 10364.62 393.67, 10470.59 393.83, 10577.55 394.0, 10685.51 394.17, 10794.49 394.33, 10904.49 394.5, 11015.52 394.67, 11127.58 394.83, 11240.69 395.0, 11354.86 395.17, 11470.1 395.33, 11586.4 395.5, 11703.79 395.67, 11822.27 395.83, 11941.85 396.0, 12062.54 396.17, 12184.34 396.33, 12307.28 396.5, 12431.35 396.67, 12556.56 396.83, 12682.94 397.0, 12810.47 397.17, 12939.19 397.33, 13069.08 397.5, 13200.17 397.67, 13332.47 397.83, 13465.98 398.0, 13600.71 398.17, 13736.68 398.33, 13873.88 398.5, 14012.35 398.67, 14152.07 398.83, 14293.08 399.0, 14435.36 399.17, 14578.94 399.33, 14723.83 399.5, 14870.03 399.67, 15017.56 399.83, 15166.43 400.0, 15316.64 " fill="none" stroke="white" stroke-width="1.5" stroke-linejoin="round" stroke-opacity="1"/>

 </svg>