<svg version="1.1" 
 baseProfile="full" 
 width="1600" 
 height="1600" 
 xmlns="http://www.w3.org/2000/svg">
<rect x="0.0" y="0.0" width="1600" height="1600" fill="black" stroke="black" stroke-width="0" opacity="1"/>
<line x1="0.0" y1="0.0" x2="0.0" y2="1600.0" stroke="white" stroke-width="1" opacity="0.4" stroke-linecap="butt"/>
<line x1="160.0" y1="0.0" x2="160.0" y2="1600.0" stroke="white" stroke-width="1" opacity="0.4" stroke-linecap="butt"/>
<line x1="320.0" y1="0.0" x2="320.0" y2="1600.0" stroke="white" stroke-width="1" opacity="0.4" stroke-linecap="butt"/>
<line x1="480.0" y1="0.0" x2="480.0" y2="1600.0" stroke="white" stroke-width="1" opacity="0.4" stroke-linecap="butt"/>
<line x1="640.0" y1="0.0" x2="640.0" y2="1600.0" stroke="white" stroke-width="1" opacity="0.4" stroke-linecap="butt"/>
<line x1="800.0" y1="0.0" x2="800.0" y2="1600.0" stroke="white" stroke-width="1" opacity="0.4" stroke-linecap="butt"/>
<line x1="960.0" y1="0.0" x2="960.0" y2="1600.0" stroke="white" stroke-width="1" opacity="0.4" stroke-linecap="butt"/>
<line x1="1120.0" y1="0.0" x2="1120.0" y2="1600.0" stroke="white" stroke-width="1" opacity="0.4" stroke-linecap="butt"/>
<line x1="1280.0" y1="0.0" x2="1280.0" y2="1600.0" stroke="white" stroke-width="1" opacity="0.4" stroke-linecap="butt"/>
<line x1="1440.0" y1="0.0" x2="1440.0" y2="1600.0" stroke="white" stroke-width="1" opacity="0.4" stroke-linecap="butt"/>
<line x1="0.0" y1="0.0" x2="1600.0" y2="0.0" stroke="white" stroke-width="1" opacity="0.4" stroke-linecap="butt"/>
<line x1="0.0" y1="160.0" x2="1600.0" y2="160.0" stroke="white" stroke-width="1" opacity="0.4" stroke-linecap="butt"/>
<line x1="0.0" y1="320.0" x2="1600.0" y2="320.0" stroke="white" stroke-width="1" opacity="0.4" stroke-linecap="butt"/>
<line x1="0.0" y1="480.0" x2="1600.0" y2="480.0" stroke="white" stroke-width="1" opacity="0.4" stroke-linecap="butt"/>
<line x1="0.0" y1="640.0" x2="1600.0" y2="640.0" stroke="white" stroke-width="1" opacity="0.4" stroke-linecap="butt"/>
<line x1="0.0" y1="800.0" x2="1600.0" y2="800.0" stroke="white" stroke-width="1" opacity="0.4" stroke-linecap="butt"/>
<line x1="0.0" y1="960.0" x2="1600.0" y2="960.0" stroke="white" stroke-width="1" opacity="0.4" stroke-linecap="butt"/>
<line x1="0.0" y1="1120.0" x2="1600.0" y2="1120.0" stroke="white" stroke-width="1" opacity="0.4" stroke-linecap="butt"/>
<line x1="0.0" y1="1280.0" x2="1600.0" y2="1280.0" stroke="white" stroke-width="1" opacity="0.4" stroke-linecap="butt"/>
<line x1="0.0" y1="1440.0" x2="1600.0" y2="1440.0" stroke="white" stroke-width="1" opacity="0.4" stroke-linecap="butt"/>
<line x1="0.0" y1="800.0" x2="1600.0" y2="800.0" stroke="yellow" stroke-width="2.5" opacity="1" stroke-linecap="butt"/>
<line x1="800.0" y1="0.0" x2="800.0" y2="1600.0" stroke="yellow" stroke-width="2.5" opacity="1" stroke-linecap="butt"/>
<polygon points="1564.0 816.0, 1604.0 800.0, 1564.0 784.0, 1572.0 800.0" fill="yellow"/><polygon points="816.0 36.0, 800.0 -4.0, 784.0 36.0, 800.0 28.0" fill="yellow"/><polyline points="0.0, -40395.72 0.67, -40002.59 1.33, -39612.78 2.0, -39226.27 2.67, -38843.04 3.33, -38463.06 4.0, -38086.3 4.67, -37712.76 5.33, -37342.39 6.0, -36975.18 6.67, -36611.1 7.33, -36250.14 8.0, -35892.26 8.67, -35537.45 9.33, -35185.68 10.0, -34836.93 10.67, -34491.18 11.33, -34148.4 12.0, -33808.58 12.67, -33471.68 13.33, -33137.7 14.0, -32806.6 14.67, -32478.37 15.33, -32152.99 16.0, -31830.42 16.67, -31510.66 17.33, -31193.68 18.0, -30879.46 18.67, -30567.97 19.33, -30259.21 20.0, -29953.14 20.67, -29649.75 21.33, -29349.02 22.0, -29050.92 22.67, -28755.44 23.33, -28462.55 24.0, -28172.25 24.67, -27884.5 25.33, -27599.28 26.0, -27316.59 26.67, -27036.39 27.33, -26758.67 28.0, -26483.42 28.67, -26210.6 29.33, -25940.21 30.0, -25672.22 30.67, -25406.62 31.33, -25143.38 32.0, -24882.49 32.67, -24623.93 33.33, -24367.69 34.0, -24113.74 34.67, -23862.06 35.33, -23612.65 36.0, -23365.47 36.67, -23120.52 37.33, -22877.77 38.0, -22637.22 38.67, -22398.83 39.33, -22162.6 40.0, -21928.51 40.67, -21696.53 41.33, -21466.66 42.0, -21238.88 42.67, -21013.17 43.33, -20789.51 44.0, -20567.89 44.67, -20348.29 45.33, -20130.7 46.0, -19915.1 46.67, -19701.47 47.33, -19489.8 48.0, -19280.07 48.67, -19072.27 49.33, -18866.38 50.0, -18662.39 50.67, -18460.28 51.33, -18260.03 52.0, -18061.64 52.67, -17865.07 53.33, -17670.34 54.0, -17477.4 54.67, -17286.26 55.33, -17096.89 56.0, -16909.29 56.67, -16723.44 57.33, -16539.32 58.0, -16356.92 58.67, -16176.22 59.33, -15997.22 60.0, -15819.9 60.67, -15644.23 61.33, -15470.22 62.0, -15297.85 62.67, -15127.1 63.33, -14957.96 64.0, -14790.42 64.67, -14624.46 65.33, -14460.07 66.0, -14297.24 66.67, -14135.96 67.33, -13976.21 68.0, -13817.97 68.67, -13661.24 69.33, -13506.01 70.0, -13352.26 70.67, -13199.97 71.33, -13049.15 72.0, -12899.76 72.67, -12751.81 73.33, -12605.29 74.0, -12460.17 74.67, -12316.44 75.33, -12174.1 76.0, -12033.14 76.67, -11893.53 77.33, -11755.28 78.0, -11618.36 78.67, -11482.78 79.33, -11348.5 80.0, -11215.54 80.67, -11083.86 81.33, -10953.47 82.0, -10824.35 82.67, -10696.5 83.33, -10569.89 84.0, -10444.52 84.67, -10320.38 85.33, -10197.46 86.0, -10075.74 86.67, -9955.23 87.33, -9835.9 88.0, -9717.74 88.67, -9600.76 89.33, -9484.93 90.0, -9370.25 90.67, -9256.7 91.33, -9144.28 92.0, -9032.97 92.67, -8922.78 93.33, -8813.68 94.0, -8705.67 94.67, -8598.74 95.33, -8492.87 96.0, -8388.07 96.67, -8284.31 97.33, -8181.6 98.0, -8079.92 98.67, -7979.26 99.33, -7879.62 100.0, -7780.98 100.67, -7683.34 101.33, -7586.68 102.0, -7491.0 102.67, -7396.29 103.33, -7302.54 104.0, -7209.75 104.67, -7117.9 105.33, -7026.98 106.0, -6937.0 106.67, -6847.93 107.33, -6759.77 108.0, -6672.51 108.67, -6586.15 109.33, -6500.68 110.0, -6416.08 110.67, -6332.35 111.33, -6249.49 112.0, -6167.48 112.67, -6086.32 113.33, -6006.0 114.0, -5926.51 114.67, -5847.84 115.33, -5770.0 116.0, -5692.96 116.67, -5616.72 117.33, -5541.28 118.0, -5466.62 118.67, -5392.75 119.33, -5319.65 120.0, -5247.31 120.67, -5175.73 121.33, -5104.91 122.0, -5034.83 122.67, -4965.49 123.33, -4896.88 124.0, -4828.99 124.67, -4761.83 125.33, -4695.37 126.0, -4629.62 126.67, -4564.57 127.33, -4500.21 128.0, -4436.53 128.67, -4373.53 129.33, -4311.21 130.0, -4249.55 130.67, -4188.55 131.33, -4128.21 132.0, -4068.51 132.67, -4009.46 133.33, -3951.04 134.0, -3893.25 134.67, -3836.08 135.33, -3779.53 136.0, -3723.6 136.67, -3668.27 137.33, -3613.54 138.0, -3559.4 138.67, -3505.86 139.33, -3452.89 140.0, -3400.51 140.67, -3348.7 141.33, -3297.45 142.0, -3246.77 142.67, -3196.64 143.33, -3147.06 144.0, -3098.03 144.67, -3049.54 145.33, -3001.59 146.0, -2954.16 146.67, -2907.26 147.33, -2860.88 148.0, -2815.02 148.67, -2769.66 149.33, -2724.81 150.0, -2680.46 150.67, -2636.6 151.33, -2593.24 152.0, -2550.36 152.67, -2507.96 153.33, -2466.03 154.0, -2424.58 154.67, -2383.6 155.33, -2343.07 156.0, -2303.01 156.67, -2263.4 157.33, -2224.23 158.0, -2185.52 158.67, -2147.24 159.33, -2109.39 160.0, -2071.98 160.67, -2035.0 161.33, -1998.44 162.0, -1962.29 162.67, -1926.56 163.33, -1891.25 164.0, -1856.33 164.67, -1821.82 165.33, -1787.71 166.0, -1754.0 166.67, -1720.67 167.33, -1687.73 168.0, -1655.17 168.67, -1622.99 169.33, -1591.19 170.0, -1559.75 170.67, -1528.69 171.33, -1497.98 172.0, -1467.64 172.67, -1437.65 173.33, -1408.02 174.0, -1378.73 174.67, -1349.8 175.33, -1321.2 176.0, -1292.94 176.67, -1265.02 177.33, -1237.42 178.0, -1210.16 178.67, -1183.22 179.33, -1156.6 180.0, -1130.3 180.67, -1104.32 181.33, -1078.65 182.0, -1053.28 182.67, -1028.22 183.33, -1003.47 184.0, -979.01 184.67, -954.85 185.33, -930.98 186.0, -907.4 186.67, -884.11 187.33, -861.1 188.0, -838.37 188.67, -815.92 189.33, -793.75 190.0, -771.84 190.67, -750.21 191.33, -728.84 192.0, -707.74 192.67, -686.9 193.33, -666.31 194.0, -645.99 194.67, -625.91 195.33, -606.08 196.0, -586.5 196.67, -567.17 197.33, -548.08 198.0, -529.22 198.67, -510.61 199.33, -492.23 200.0, -474.08 200.67, -456.16 201.33, -438.46 202.0, -421.0 202.67, -403.75 203.33, -386.72 204.0, -369.91 204.67, -353.32 205.33, -336.94 206.0, -320.76 206.67, -304.8 207.33, -289.04 208.0, -273.49 208.67, -258.14 209.33, -242.98 210.0, -228.03 210.67, -213.27 211.33, -198.7 212.0, -184.32 212.67, -170.13 213.33, -156.12 214.0, -142.3 214.67, -128.67 215.33, -115.21 216.0, -101.93 216.67, -88.83 217.33, -75.9 218.0, -63.15 218.67, -50.56 219.33, -38.15 220.0, -25.9 220.67, -13.81 221.33, -1.89 222.0, 9.87 222.67, 21.47 223.33, 32.92 224.0, 44.21 224.67, 55.34 225.33, 66.32 226.0, 77.15 226.67, 87.84 227.33, 98.37 228.0, 108.76 228.67, 119.01 229.33, 129.11 230.0, 139.08 230.67, 148.9 231.33, 158.59 232.0, 168.14 232.67, 177.56 233.33, 186.84 234.0, 196.0 234.67, 205.02 235.33, 213.92 236.0, 222.69 236.67, 231.33 237.33, 239.85 238.0, 248.25 238.67, 256.53 239.33, 264.69 240.0, 272.73 240.67, 280.65 241.33, 288.46 242.0, 296.16 242.67, 303.74 243.33, 311.21 244.0, 318.58 244.67, 325.83 245.33, 332.98 246.0, 340.02 246.67, 346.95 247.33, 353.78 248.0, 360.51 248.67, 367.14 249.33, 373.67 250.0, 380.1 250.67, 386.44 251.33, 392.68 252.0, 398.82 252.67, 404.87 253.33, 410.82 254.0, 416.69 254.67, 422.46 255.33, 428.15 256.0, 433.75 256.67, 439.26 257.33, 444.68 258.0, 450.02 258.67, 455.27 259.33, 460.45 260.0, 465.54 260.67, 470.55 261.33, 475.48 262.0, 480.33 262.67, 485.1 263.33, 489.8 264.0, 494.42 264.67, 498.96 265.33, 503.43 266.0, 507.83 266.67, 512.16 267.33, 516.42 268.0, 520.6 268.67, 524.72 269.33, 528.76 270.0, 532.75 270.67, 536.66 271.33, 540.51 272.0, 544.29 272.67, 548.01 273.33, 551.66 274.0, 555.25 274.67, 558.79 275.33, 562.26 276.0, 565.67 276.67, 569.02 277.33, 572.31 278.0, 575.55 278.67, 578.72 279.33, 581.85 280.0, 584.91 280.67, 587.92 281.33, 590.88 282.0, 593.79 282.67, 596.64 283.33, 599.44 284.0, 602.19 284.67, 604.89 285.33, 607.54 286.0, 610.14 286.67, 612.69 287.33, 615.2 288.0, 617.66 288.67, 620.07 289.33, 622.44 290.0, 624.76 290.67, 627.03 291.33, 629.27 292.0, 631.46 292.67, 633.61 293.33, 635.71 294.0, 637.78 294.67, 639.8 295.33, 641.78 296.0, 643.73 296.67, 645.63 297.33, 647.5 298.0, 649.33 298.67, 651.12 299.33, 652.88 300.0, 654.59 300.67, 656.28 301.33, 657.93 302.0, 659.54 302.67, 661.12 303.33, 662.67 304.0, 664.18 304.67, 665.66 305.33, 667.11 306.0, 668.52 306.67, 669.91 307.33, 671.27 308.0, 672.59 308.67, 673.89 309.33, 675.15 310.0, 676.39 310.67, 677.6 311.33, 678.78 312.0, 679.94 312.67, 681.06 313.33, 682.16 314.0, 683.24 314.67, 684.29 315.33, 685.31 316.0, 686.31 316.67, 687.29 317.33, 688.24 318.0, 689.16 318.67, 690.07 319.33, 690.95 320.0, 691.81 320.67, 692.65 321.33, 693.46 322.0, 694.26 322.67, 695.03 323.33, 695.78 324.0, 696.51 324.67, 697.23 325.33, 697.92 326.0, 698.6 326.67, 699.25 327.33, 699.89 328.0, 700.51 328.67, 701.11 329.33, 701.69 330.0, 702.26 330.67, 702.81 331.33, 703.34 332.0, 703.86 332.67, 704.36 333.33, 704.85 334.0, 705.32 334.67, 705.78 335.33, 706.22 336.0, 706.64 336.67, 707.06 337.33, 707.46 338.0, 707.84 338.67, 708.22 339.33, 708.57 340.0, 708.92 340.67, 709.26 341.33, 709.58 342.0, 709.89 342.67, 710.19 343.33, 710.48 344.0, 710.76 344.67, 711.02 345.33, 711.28 346.0, 711.52 346.67, 711.76 347.33, 711.98 348.0, 712.2 348.67, 712.4 349.33, 712.6 350.0, 712.79 350.67, 712.97 351.33, 713.14 352.0, 713.3 352.67, 713.46 353.33, 713.61 354.0, 713.75 354.67, 713.88 355.33, 714.0 356.0, 714.12 356.67, 714.23 357.33, 714.34 358.0, 714.43 358.67, 714.53 359.33, 714.61 360.0, 714.69 360.67, 714.77 361.33, 714.83 362.0, 714.9 362.67, 714.96 363.33, 715.01 364.0, 715.06 364.67, 715.1 365.33, 715.14 366.0, 715.18 366.67, 715.21 367.33, 715.24 368.0, 715.26 368.67, 715.28 369.33, 715.3 370.0, 715.31 370.67, 715.32 371.33, 715.33 372.0, 715.33 372.67, 715.33 373.33, 715.33 374.0, 715.33 374.67, 715.32 375.33, 715.32 376.0, 715.31 376.67, 715.29 377.33, 715.28 378.0, 715.27 378.67, 715.25 379.33, 715.23 380.0, 715.21 380.67, 715.19 381.33, 715.17 382.0, 715.15 382.67, 715.12 383.33, 715.1 384.0, 715.08 384.67, 715.05 385.33, 715.03 386.0, 715.0 386.67, 714.98 387.33, 714.95 388.0, 714.93 388.67, 714.9 389.33, 714.88 390.0, 714.85 390.67, 714.83 391.33, 714.81 392.0, 714.78 392.67, 714.76 393.33, 714.74 394.0, 714.72 394.67, 714.7 395.33, 714.69 396.0, 714.67 396.67, 714.66 397.33, 714.64 398.0, 714.63 398.67, 714.62 399.33, 714.61 400.0, 714.6 400.67, 714.6 401.33, 714.59 402.0, 714.59 402.67, 714.59 403.33, 714.6 404.0, 714.6 404.67, 714.61 405.33, 714.62 406.0, 714.63 406.67, 714.64 407.33, 714.66 408.0, 714.68 408.67, 714.7 409.33, 714.73 410.0, 714.75 410.67, 714.78 411.33, 714.81 412.0, 714.85 412.67, 714.89 413.33, 714.93 414.0, 714.97 414.67, 715.02 415.33, 715.07 416.0, 715.13 416.67, 715.18 417.33, 715.25 418.0, 715.31 418.67, 715.38 419.33, 715.45 420.0, 715.52 420.67, 715.6 421.33, 715.68 422.0, 715.76 422.67, 715.85 423.33, 715.94 424.0, 716.04 424.67, 716.14 425.33, 716.24 426.0, 716.35 426.67, 716.46 427.33, 716.57 428.0, 716.69 428.67, 716.81 429.33, 716.94 430.0, 717.07 430.67, 717.21 431.33, 717.34 432.0, 717.49 432.67, 717.63 433.33, 717.78 434.0, 717.94 434.67, 718.1 435.33, 718.26 436.0, 718.42 436.67, 718.6 437.33, 718.77 438.0, 718.95 438.67, 719.13 439.33, 719.32 440.0, 719.51 440.67, 719.71 441.33, 719.91 442.0, 720.12 442.67, 720.33 443.33, 720.54 444.0, 720.76 444.67, 720.98 445.33, 721.21 446.0, 721.44 446.67, 721.67 447.33, 721.91 448.0, 722.16 448.67, 722.4 449.33, 722.66 450.0, 722.91 450.67, 723.18 451.33, 723.44 452.0, 723.71 452.67, 723.99 453.33, 724.27 454.0, 724.55 454.67, 724.84 455.33, 725.13 456.0, 725.43 456.67, 725.73 457.33, 726.03 458.0, 726.34 458.67, 726.66 459.33, 726.97 460.0, 727.3 460.67, 727.62 461.33, 727.96 462.0, 728.29 462.67, 728.63 463.33, 728.98 464.0, 729.33 464.67, 729.68 465.33, 730.04 466.0, 730.4 466.67, 730.76 467.33, 731.13 468.0, 731.51 468.67, 731.89 469.33, 732.27 470.0, 732.65 470.67, 733.05 471.33, 733.44 472.0, 733.84 472.67, 734.24 473.33, 734.65 474.0, 735.06 474.67, 735.48 475.33, 735.9 476.0, 736.32 476.67, 736.75 477.33, 737.18 478.0, 737.62 478.67, 738.06 479.33, 738.5 480.0, 738.95 480.67, 739.4 481.33, 739.85 482.0, 740.31 482.67, 740.77 483.33, 741.24 484.0, 741.71 484.67, 742.19 485.33, 742.66 486.0, 743.14 486.67, 743.63 487.33, 744.12 488.0, 744.61 488.67, 745.11 489.33, 745.61 490.0, 746.11 490.67, 746.61 491.33, 747.12 492.0, 747.64 492.67, 748.15 493.33, 748.67 494.0, 749.2 494.67, 749.72 495.33, 750.25 496.0, 750.79 496.67, 751.32 497.33, 751.86 498.0, 752.41 498.67, 752.95 499.33, 753.5 500.0, 754.05 500.67, 754.61 501.33, 755.16 502.0, 755.73 502.67, 756.29 503.33, 756.86 504.0, 757.43 504.67, 758.0 505.33, 758.57 506.0, 759.15 506.67, 759.73 507.33, 760.31 508.0, 760.9 508.67, 761.49 509.33, 762.08 510.0, 762.67 510.67, 763.27 511.33, 763.87 512.0, 764.47 512.67, 765.07 513.33, 765.67 514.0, 766.28 514.67, 766.89 515.33, 767.5 516.0, 768.12 516.67, 768.73 517.33, 769.35 518.0, 769.97 518.67, 770.59 519.33, 771.22 520.0, 771.85 520.67, 772.47 521.33, 773.1 522.0, 773.73 522.67, 774.37 523.33, 775.0 524.0, 775.64 524.67, 776.28 525.33, 776.92 526.0, 777.56 526.67, 778.2 527.33, 778.85 528.0, 779.49 528.67, 780.14 529.33, 780.79 530.0, 781.44 530.67, 782.09 531.33, 782.74 532.0, 783.4 532.67, 784.05 533.33, 784.71 534.0, 785.36 534.67, 786.02 535.33, 786.68 536.0, 787.34 536.67, 788.0 537.33, 788.66 538.0, 789.32 538.67, 789.98 539.33, 790.65 540.0, 791.31 540.67, 791.97 541.33, 792.64 542.0, 793.3 542.67, 793.97 543.33, 794.63 544.0, 795.3 544.67, 795.97 545.33, 796.63 546.0, 797.3 546.67, 797.97 547.33, 798.64 548.0, 799.3 548.67, 799.97 549.33, 800.64 550.0, 801.31 550.67, 801.97 551.33, 802.64 552.0, 803.31 552.67, 803.97 553.33, 804.64 554.0, 805.31 554.67, 805.97 555.33, 806.64 556.0, 807.3 556.67, 807.97 557.33, 808.63 558.0, 809.29 558.67, 809.95 559.33, 810.62 560.0, 811.28 560.67, 811.94 561.33, 812.6 562.0, 813.25 562.67, 813.91 563.33, 814.57 564.0, 815.22 564.67, 815.88 565.33, 816.53 566.0, 817.18 566.67, 817.83 567.33, 818.48 568.0, 819.13 568.67, 819.78 569.33, 820.42 570.0, 821.07 570.67, 821.71 571.33, 822.35 572.0, 822.99 572.67, 823.63 573.33, 824.27 574.0, 824.9 574.67, 825.53 575.33, 826.16 576.0, 826.79 576.67, 827.42 577.33, 828.05 578.0, 828.67 578.67, 829.29 579.33, 829.91 580.0, 830.53 580.67, 831.14 581.33, 831.76 582.0, 832.37 582.67, 832.98 583.33, 833.58 584.0, 834.19 584.67, 834.79 585.33, 835.39 586.0, 835.98 586.67, 836.58 587.33, 837.17 588.0, 837.76 588.67, 838.35 589.33, 838.93 590.0, 839.51 590.67, 840.09 591.33, 840.67 592.0, 841.24 592.67, 841.81 593.33, 842.37 594.0, 842.94 594.67, 843.5 595.33, 844.06 596.0, 844.61 596.67, 845.17 597.33, 845.71 598.0, 846.26 598.67, 846.8 599.33, 847.34 600.0, 847.88 600.67, 848.41 601.33, 848.94 602.0, 849.46 602.67, 849.99 603.33, 850.5 604.0, 851.02 604.67, 851.53 605.33, 852.04 606.0, 852.54 606.67, 853.05 607.33, 853.54 608.0, 854.04 608.67, 854.53 609.33, 855.01 610.0, 855.49 610.67, 855.97 611.33, 856.45 612.0, 856.92 612.67, 857.38 613.33, 857.85 614.0, 858.3 614.67, 858.76 615.33, 859.21 616.0, 859.66 616.67, 860.1 617.33, 860.54 618.0, 860.97 618.67, 861.4 619.33, 861.82 620.0, 862.25 620.67, 862.66 621.33, 863.07 622.0, 863.48 622.67, 863.89 623.33, 864.28 624.0, 864.68 624.67, 865.07 625.33, 865.46 626.0, 865.84 626.67, 866.21 627.33, 866.58 628.0, 866.95 628.67, 867.31 629.33, 867.67 630.0, 868.03 630.67, 868.37 631.33, 868.72 632.0, 869.06 632.67, 869.39 633.33, 869.72 634.0, 870.04 634.67, 870.36 635.33, 870.68 636.0, 870.99 636.67, 871.29 637.33, 871.59 638.0, 871.89 638.67, 872.18 639.33, 872.46 640.0, 872.74 640.67, 873.02 641.33, 873.29 642.0, 873.55 642.67, 873.81 643.33, 874.07 644.0, 874.32 644.67, 874.56 645.33, 874.8 646.0, 875.03 646.67, 875.26 647.33, 875.49 648.0, 875.7 648.67, 875.92 649.33, 876.12 650.0, 876.33 650.67, 876.52 651.33, 876.72 652.0, 876.9 652.67, 877.08 653.33, 877.26 654.0, 877.43 654.67, 877.59 655.33, 877.75 656.0, 877.91 656.67, 878.06 657.33, 878.2 658.0, 878.34 658.67, 878.47 659.33, 878.6 660.0, 878.72 660.67, 878.83 661.33, 878.95 662.0, 879.05 662.67, 879.15 663.33, 879.24 664.0, 879.33 664.67, 879.42 665.33, 879.49 666.0, 879.57 666.67, 879.63 667.33, 879.69 668.0, 879.75 668.67, 879.8 669.33, 879.84 670.0, 879.88 670.67, 879.92 671.33, 879.94 672.0, 879.97 672.67, 879.98 673.33, 879.99 674.0, 880.0 674.67, 880.0 675.33, 879.99 676.0, 879.98 676.67, 879.97 677.33, 879.94 678.0, 879.92 678.67, 879.88 679.33, 879.84 680.0, 879.8 680.67, 879.75 681.33, 879.69 682.0, 879.63 682.67, 879.57 683.33, 879.49 684.0, 879.42 684.67, 879.33 685.33, 879.25 686.0, 879.15 686.67, 879.05 687.33, 878.95 688.0, 878.84 688.67, 878.72 689.33, 878.6 690.0, 878.47 690.67, 878.34 691.33, 878.2 692.0, 878.06 692.67, 877.91 693.33, 877.76 694.0, 877.6 694.67, 877.43 695.33, 877.26 696.0, 877.08 696.67, 876.9 697.33, 876.72 698.0, 876.53 698.67, 876.33 699.33, 876.13 700.0, 875.92 700.67, 875.71 701.33, 875.49 702.0, 875.26 702.67, 875.04 703.33, 874.8 704.0, 874.56 704.67, 874.32 705.33, 874.07 706.0, 873.82 706.67, 873.56 707.33, 873.29 708.0, 873.02 708.67, 872.75 709.33, 872.47 710.0, 872.18 710.67, 871.89 711.33, 871.6 712.0, 871.3 712.67, 870.99 713.33, 870.68 714.0, 870.37 714.67, 870.05 715.33, 869.72 716.0, 869.39 716.67, 869.06 717.33, 868.72 718.0, 868.38 718.67, 868.03 719.33, 867.68 720.0, 867.32 720.67, 866.96 721.33, 866.59 722.0, 866.22 722.67, 865.84 723.33, 865.46 724.0, 865.07 724.67, 864.68 725.33, 864.29 726.0, 863.89 726.67, 863.49 727.33, 863.08 728.0, 862.67 728.67, 862.25 729.33, 861.83 730.0, 861.4 730.67, 860.97 731.33, 860.54 732.0, 860.1 732.67, 859.66 733.33, 859.21 734.0, 858.76 734.67, 858.31 735.33, 857.85 736.0, 857.39 736.67, 856.92 737.33, 856.45 738.0, 855.98 738.67, 855.5 739.33, 855.02 740.0, 854.53 740.67, 854.04 741.33, 853.55 742.0, 853.05 742.67, 852.55 743.33, 852.05 744.0, 851.54 744.67, 851.03 745.33, 850.51 746.0, 849.99 746.67, 849.47 747.33, 848.94 748.0, 848.41 748.67, 847.88 749.33, 847.35 750.0, 846.81 750.67, 846.27 751.33, 845.72 752.0, 845.17 752.67, 844.62 753.33, 844.06 754.0, 843.51 754.67, 842.95 755.33, 842.38 756.0, 841.81 756.67, 841.25 757.33, 840.67 758.0, 840.1 758.67, 839.52 759.33, 838.94 760.0, 838.35 760.67, 837.77 761.33, 837.18 762.0, 836.59 762.67, 835.99 763.33, 835.4 764.0, 834.8 764.67, 834.2 765.33, 833.59 766.0, 832.99 766.67, 832.38 767.33, 831.77 768.0, 831.15 768.67, 830.54 769.33, 829.92 770.0, 829.3 770.67, 828.68 771.33, 828.06 772.0, 827.43 772.67, 826.8 773.33, 826.18 774.0, 825.54 774.67, 824.91 775.33, 824.28 776.0, 823.64 776.67, 823.0 777.33, 822.36 778.0, 821.72 778.67, 821.08 779.33, 820.44 780.0, 819.79 780.67, 819.15 781.33, 818.5 782.0, 817.85 782.67, 817.2 783.33, 816.55 784.0, 815.89 784.67, 815.24 785.33, 814.58 786.0, 813.93 786.67, 813.27 787.33, 812.61 788.0, 811.96 788.67, 811.3 789.33, 810.64 790.0, 809.97 790.67, 809.31 791.33, 808.65 792.0, 807.99 792.67, 807.32 793.33, 806.66 794.0, 805.99 794.67, 805.33 795.33, 804.66 796.0, 804.0 796.67, 803.33 797.33, 802.67 798.0, 802.0 798.67, 801.33 799.33, 800.67 800.0, 800.0 800.67, 799.33 801.33, 798.67 802.0, 798.0 802.67, 797.33 803.33, 796.67 804.0, 796.0 804.67, 795.34 805.33, 794.67 806.0, 794.01 806.67, 793.34 807.33, 792.68 808.0, 792.01 808.67, 791.35 809.33, 790.69 810.0, 790.03 810.67, 789.36 811.33, 788.7 812.0, 788.04 812.67, 787.39 813.33, 786.73 814.0, 786.07 814.67, 785.42 815.33, 784.76 816.0, 784.11 816.67, 783.45 817.33, 782.8 818.0, 782.15 818.67, 781.5 819.33, 780.85 820.0, 780.21 820.67, 779.56 821.33, 778.92 822.0, 778.28 822.67, 777.64 823.33, 777.0 824.0, 776.36 824.67, 775.72 825.33, 775.09 826.0, 774.46 826.67, 773.82 827.33, 773.2 828.0, 772.57 828.67, 771.94 829.33, 771.32 830.0, 770.7 830.67, 770.08 831.33, 769.46 832.0, 768.85 832.67, 768.23 833.33, 767.62 834.0, 767.01 834.67, 766.41 835.33, 765.8 836.0, 765.2 836.67, 764.6 837.33, 764.01 838.0, 763.41 838.67, 762.82 839.33, 762.23 840.0, 761.65 840.67, 761.06 841.33, 760.48 842.0, 759.9 842.67, 759.33 843.33, 758.75 844.0, 758.19 844.67, 757.62 845.33, 757.05 846.0, 756.49 846.67, 755.94 847.33, 755.38 848.0, 754.83 848.67, 754.28 849.33, 753.73 850.0, 753.19 850.67, 752.65 851.33, 752.12 852.0, 751.59 852.67, 751.06 853.33, 750.53 854.0, 750.01 854.67, 749.49 855.33, 748.97 856.0, 748.46 856.67, 747.95 857.33, 747.45 858.0, 746.95 858.67, 746.45 859.33, 745.96 860.0, 745.47 860.67, 744.98 861.33, 744.5 862.0, 744.02 862.67, 743.55 863.33, 743.08 864.0, 742.61 864.67, 742.15 865.33, 741.69 866.0, 741.24 866.67, 740.79 867.33, 740.34 868.0, 739.9 868.67, 739.46 869.33, 739.03 870.0, 738.6 870.67, 738.17 871.33, 737.75 872.0, 737.33 872.67, 736.92 873.33, 736.51 874.0, 736.11 874.67, 735.71 875.33, 735.32 876.0, 734.93 876.67, 734.54 877.33, 734.16 878.0, 733.78 878.67, 733.41 879.33, 733.04 880.0, 732.68 880.67, 732.32 881.33, 731.97 882.0, 731.62 882.67, 731.28 883.33, 730.94 884.0, 730.61 884.67, 730.28 885.33, 729.95 886.0, 729.63 886.67, 729.32 887.33, 729.01 888.0, 728.7 888.67, 728.4 889.33, 728.11 890.0, 727.82 890.67, 727.53 891.33, 727.25 892.0, 726.98 892.67, 726.71 893.33, 726.44 894.0, 726.18 894.67, 725.93 895.33, 725.68 896.0, 725.44 896.67, 725.2 897.33, 724.96 898.0, 724.74 898.67, 724.51 899.33, 724.29 900.0, 724.08 900.67, 723.87 901.33, 723.67 902.0, 723.47 902.67, 723.28 903.33, 723.1 904.0, 722.92 904.67, 722.74 905.33, 722.57 906.0, 722.4 906.67, 722.24 907.33, 722.09 908.0, 721.94 908.67, 721.8 909.33, 721.66 910.0, 721.53 910.67, 721.4 911.33, 721.28 912.0, 721.16 912.67, 721.05 913.33, 720.95 914.0, 720.85 914.67, 720.75 915.33, 720.67 916.0, 720.58 916.67, 720.51 917.33, 720.43 918.0, 720.37 918.67, 720.31 919.33, 720.25 920.0, 720.2 920.67, 720.16 921.33, 720.12 922.0, 720.08 922.67, 720.06 923.33, 720.03 924.0, 720.02 924.67, 720.01 925.33, 720.0 926.0, 720.0 926.67, 720.01 927.33, 720.02 928.0, 720.03 928.67, 720.06 929.33, 720.08 930.0, 720.12 930.67, 720.16 931.33, 720.2 932.0, 720.25 932.67, 720.31 933.33, 720.37 934.0, 720.43 934.67, 720.51 935.33, 720.58 936.0, 720.67 936.67, 720.76 937.33, 720.85 938.0, 720.95 938.67, 721.05 939.33, 721.17 940.0, 721.28 940.67, 721.4 941.33, 721.53 942.0, 721.66 942.67, 721.8 943.33, 721.94 944.0, 722.09 944.67, 722.25 945.33, 722.41 946.0, 722.57 946.67, 722.74 947.33, 722.92 948.0, 723.1 948.67, 723.28 949.33, 723.48 950.0, 723.67 950.67, 723.88 951.33, 724.08 952.0, 724.3 952.67, 724.51 953.33, 724.74 954.0, 724.97 954.67, 725.2 955.33, 725.44 956.0, 725.68 956.67, 725.93 957.33, 726.19 958.0, 726.45 958.67, 726.71 959.33, 726.98 960.0, 727.26 960.67, 727.54 961.33, 727.82 962.0, 728.11 962.67, 728.41 963.33, 728.71 964.0, 729.01 964.67, 729.32 965.33, 729.64 966.0, 729.96 966.67, 730.28 967.33, 730.61 968.0, 730.94 968.67, 731.28 969.33, 731.63 970.0, 731.97 970.67, 732.33 971.33, 732.69 972.0, 733.05 972.67, 733.42 973.33, 733.79 974.0, 734.16 974.67, 734.54 975.33, 734.93 976.0, 735.32 976.67, 735.72 977.33, 736.11 978.0, 736.52 978.67, 736.93 979.33, 737.34 980.0, 737.75 980.67, 738.18 981.33, 738.6 982.0, 739.03 982.67, 739.46 983.33, 739.9 984.0, 740.34 984.67, 740.79 985.33, 741.24 986.0, 741.7 986.67, 742.15 987.33, 742.62 988.0, 743.08 988.67, 743.55 989.33, 744.03 990.0, 744.51 990.67, 744.99 991.33, 745.47 992.0, 745.96 992.67, 746.46 993.33, 746.95 994.0, 747.46 994.67, 747.96 995.33, 748.47 996.0, 748.98 996.67, 749.5 997.33, 750.01 998.0, 750.54 998.67, 751.06 999.33, 751.59 1000.0, 752.12 1000.67, 752.66 1001.33, 753.2 1002.0, 753.74 1002.67, 754.29 1003.33, 754.83 1004.0, 755.39 1004.67, 755.94 1005.33, 756.5 1006.0, 757.06 1006.67, 757.63 1007.33, 758.19 1008.0, 758.76 1008.67, 759.33 1009.33, 759.91 1010.0, 760.49 1010.67, 761.07 1011.33, 761.65 1012.0, 762.24 1012.67, 762.83 1013.33, 763.42 1014.0, 764.02 1014.67, 764.61 1015.33, 765.21 1016.0, 765.81 1016.67, 766.42 1017.33, 767.02 1018.0, 767.63 1018.67, 768.24 1019.33, 768.86 1020.0, 769.47 1020.67, 770.09 1021.33, 770.71 1022.0, 771.33 1022.67, 771.95 1023.33, 772.58 1024.0, 773.21 1024.67, 773.84 1025.33, 774.47 1026.0, 775.1 1026.67, 775.73 1027.33, 776.37 1028.0, 777.01 1028.67, 777.65 1029.33, 778.29 1030.0, 778.93 1030.67, 779.58 1031.33, 780.22 1032.0, 780.87 1032.67, 781.52 1033.33, 782.17 1034.0, 782.82 1034.67, 783.47 1035.33, 784.12 1036.0, 784.78 1036.67, 785.43 1037.33, 786.09 1038.0, 786.75 1038.67, 787.4 1039.33, 788.06 1040.0, 788.72 1040.67, 789.38 1041.33, 790.05 1042.0, 790.71 1042.67, 791.37 1043.33, 792.03 1044.0, 792.7 1044.67, 793.36 1045.33, 794.03 1046.0, 794.69 1046.67, 795.36 1047.33, 796.03 1048.0, 796.69 1048.67, 797.36 1049.33, 798.03 1050.0, 798.69 1050.67, 799.36 1051.33, 800.03 1052.0, 800.7 1052.67, 801.36 1053.33, 802.03 1054.0, 802.7 1054.67, 803.37 1055.33, 804.03 1056.0, 804.7 1056.67, 805.37 1057.33, 806.03 1058.0, 806.7 1058.67, 807.36 1059.33, 808.03 1060.0, 808.69 1060.67, 809.35 1061.33, 810.02 1062.0, 810.68 1062.67, 811.34 1063.33, 812.0 1064.0, 812.66 1064.67, 813.32 1065.33, 813.98 1066.0, 814.64 1066.67, 815.29 1067.33, 815.95 1068.0, 816.6 1068.67, 817.26 1069.33, 817.91 1070.0, 818.56 1070.67, 819.21 1071.33, 819.86 1072.0, 820.51 1072.67, 821.15 1073.33, 821.8 1074.0, 822.44 1074.67, 823.08 1075.33, 823.72 1076.0, 824.36 1076.67, 825.0 1077.33, 825.63 1078.0, 826.27 1078.67, 826.9 1079.33, 827.53 1080.0, 828.15 1080.67, 828.78 1081.33, 829.41 1082.0, 830.03 1082.67, 830.65 1083.33, 831.27 1084.0, 831.88 1084.67, 832.5 1085.33, 833.11 1086.0, 833.72 1086.67, 834.33 1087.33, 834.93 1088.0, 835.53 1088.67, 836.13 1089.33, 836.73 1090.0, 837.33 1090.67, 837.92 1091.33, 838.51 1092.0, 839.1 1092.67, 839.69 1093.33, 840.27 1094.0, 840.85 1094.67, 841.43 1095.33, 842.0 1096.0, 842.57 1096.67, 843.14 1097.33, 843.71 1098.0, 844.27 1098.67, 844.84 1099.33, 845.39 1100.0, 845.95 1100.67, 846.5 1101.33, 847.05 1102.0, 847.59 1102.67, 848.14 1103.33, 848.68 1104.0, 849.21 1104.67, 849.75 1105.33, 850.28 1106.0, 850.8 1106.67, 851.33 1107.33, 851.85 1108.0, 852.36 1108.67, 852.88 1109.33, 853.39 1110.0, 853.89 1110.67, 854.39 1111.33, 854.89 1112.0, 855.39 1112.67, 855.88 1113.33, 856.37 1114.0, 856.86 1114.67, 857.34 1115.33, 857.81 1116.0, 858.29 1116.67, 858.76 1117.33, 859.23 1118.0, 859.69 1118.67, 860.15 1119.33, 860.6 1120.0, 861.05 1120.67, 861.5 1121.33, 861.94 1122.0, 862.38 1122.67, 862.82 1123.33, 863.25 1124.0, 863.68 1124.67, 864.1 1125.33, 864.52 1126.0, 864.94 1126.67, 865.35 1127.33, 865.76 1128.0, 866.16 1128.67, 866.56 1129.33, 866.95 1130.0, 867.35 1130.67, 867.73 1131.33, 868.11 1132.0, 868.49 1132.67, 868.87 1133.33, 869.24 1134.0, 869.6 1134.67, 869.96 1135.33, 870.32 1136.0, 870.67 1136.67, 871.02 1137.33, 871.37 1138.0, 871.71 1138.67, 872.04 1139.33, 872.38 1140.0, 872.7 1140.67, 873.03 1141.33, 873.34 1142.0, 873.66 1142.67, 873.97 1143.33, 874.27 1144.0, 874.57 1144.67, 874.87 1145.33, 875.16 1146.0, 875.45 1146.67, 875.73 1147.33, 876.01 1148.0, 876.29 1148.67, 876.56 1149.33, 876.82 1150.0, 877.09 1150.67, 877.34 1151.33, 877.6 1152.0, 877.84 1152.67, 878.09 1153.33, 878.33 1154.0, 878.56 1154.67, 878.79 1155.33, 879.02 1156.0, 879.24 1156.67, 879.46 1157.33, 879.67 1158.0, 879.88 1158.67, 880.09 1159.33, 880.29 1160.0, 880.49 1160.67, 880.68 1161.33, 880.87 1162.0, 881.05 1162.67, 881.23 1163.33, 881.4 1164.0, 881.58 1164.67, 881.74 1165.33, 881.9 1166.0, 882.06 1166.67, 882.22 1167.33, 882.37 1168.0, 882.51 1168.67, 882.66 1169.33, 882.79 1170.0, 882.93 1170.67, 883.06 1171.33, 883.19 1172.0, 883.31 1172.67, 883.43 1173.33, 883.54 1174.0, 883.65 1174.67, 883.76 1175.33, 883.86 1176.0, 883.96 1176.67, 884.06 1177.33, 884.15 1178.0, 884.24 1178.67, 884.32 1179.33, 884.4 1180.0, 884.48 1180.67, 884.55 1181.33, 884.62 1182.0, 884.69 1182.67, 884.75 1183.33, 884.82 1184.0, 884.87 1184.67, 884.93 1185.33, 884.98 1186.0, 885.03 1186.67, 885.07 1187.33, 885.11 1188.0, 885.15 1188.67, 885.19 1189.33, 885.22 1190.0, 885.25 1190.67, 885.27 1191.33, 885.3 1192.0, 885.32 1192.67, 885.34 1193.33, 885.36 1194.0, 885.37 1194.67, 885.38 1195.33, 885.39 1196.0, 885.4 1196.67, 885.4 1197.33, 885.41 1198.0, 885.41 1198.67, 885.41 1199.33, 885.4 1200.0, 885.4 1200.67, 885.39 1201.33, 885.38 1202.0, 885.37 1202.67, 885.36 1203.33, 885.34 1204.0, 885.33 1204.67, 885.31 1205.33, 885.3 1206.0, 885.28 1206.67, 885.26 1207.33, 885.24 1208.0, 885.22 1208.67, 885.19 1209.33, 885.17 1210.0, 885.15 1210.67, 885.12 1211.33, 885.1 1212.0, 885.07 1212.67, 885.05 1213.33, 885.02 1214.0, 885.0 1214.67, 884.97 1215.33, 884.95 1216.0, 884.92 1216.67, 884.9 1217.33, 884.88 1218.0, 884.85 1218.67, 884.83 1219.33, 884.81 1220.0, 884.79 1220.67, 884.77 1221.33, 884.75 1222.0, 884.73 1222.67, 884.72 1223.33, 884.71 1224.0, 884.69 1224.67, 884.68 1225.33, 884.68 1226.0, 884.67 1226.67, 884.67 1227.33, 884.67 1228.0, 884.67 1228.67, 884.67 1229.33, 884.68 1230.0, 884.69 1230.67, 884.7 1231.33, 884.72 1232.0, 884.74 1232.67, 884.76 1233.33, 884.79 1234.0, 884.82 1234.67, 884.86 1235.33, 884.9 1236.0, 884.94 1236.67, 884.99 1237.33, 885.04 1238.0, 885.1 1238.67, 885.17 1239.33, 885.23 1240.0, 885.31 1240.67, 885.39 1241.33, 885.47 1242.0, 885.57 1242.67, 885.66 1243.33, 885.77 1244.0, 885.88 1244.67, 886.0 1245.33, 886.12 1246.0, 886.25 1246.67, 886.39 1247.33, 886.54 1248.0, 886.7 1248.67, 886.86 1249.33, 887.03 1250.0, 887.21 1250.67, 887.4 1251.33, 887.6 1252.0, 887.8 1252.67, 888.02 1253.33, 888.24 1254.0, 888.48 1254.67, 888.72 1255.33, 888.98 1256.0, 889.24 1256.67, 889.52 1257.33, 889.81 1258.0, 890.11 1258.67, 890.42 1259.33, 890.74 1260.0, 891.08 1260.67, 891.43 1261.33, 891.78 1262.0, 892.16 1262.67, 892.54 1263.33, 892.94 1264.0, 893.36 1264.67, 893.78 1265.33, 894.22 1266.0, 894.68 1266.67, 895.15 1267.33, 895.64 1268.0, 896.14 1268.67, 896.66 1269.33, 897.19 1270.0, 897.74 1270.67, 898.31 1271.33, 898.89 1272.0, 899.49 1272.67, 900.11 1273.33, 900.75 1274.0, 901.4 1274.67, 902.08 1275.33, 902.77 1276.0, 903.49 1276.67, 904.22 1277.33, 904.97 1278.0, 905.74 1278.67, 906.54 1279.33, 907.35 1280.0, 908.19 1280.67, 909.05 1281.33, 909.93 1282.0, 910.84 1282.67, 911.76 1283.33, 912.71 1284.0, 913.69 1284.67, 914.69 1285.33, 915.71 1286.0, 916.76 1286.67, 917.84 1287.33, 918.94 1288.0, 920.06 1288.67, 921.22 1289.33, 922.4 1290.0, 923.61 1290.67, 924.85 1291.33, 926.11 1292.0, 927.41 1292.67, 928.73 1293.33, 930.09 1294.0, 931.48 1294.67, 932.89 1295.33, 934.34 1296.0, 935.82 1296.67, 937.33 1297.33, 938.88 1298.0, 940.46 1298.67, 942.07 1299.33, 943.72 1300.0, 945.41 1300.67, 947.12 1301.33, 948.88 1302.0, 950.67 1302.67, 952.5 1303.33, 954.37 1304.0, 956.27 1304.67, 958.22 1305.33, 960.2 1306.0, 962.22 1306.67, 964.29 1307.33, 966.39 1308.0, 968.54 1308.67, 970.73 1309.33, 972.97 1310.0, 975.24 1310.67, 977.56 1311.33, 979.93 1312.0, 982.34 1312.67, 984.8 1313.33, 987.31 1314.0, 989.86 1314.67, 992.46 1315.33, 995.11 1316.0, 997.81 1316.67, 1000.56 1317.33, 1003.36 1318.0, 1006.21 1318.67, 1009.12 1319.33, 1012.08 1320.0, 1015.09 1320.67, 1018.15 1321.33, 1021.28 1322.0, 1024.45 1322.67, 1027.69 1323.33, 1030.98 1324.0, 1034.33 1324.67, 1037.74 1325.33, 1041.21 1326.0, 1044.75 1326.67, 1048.34 1327.33, 1051.99 1328.0, 1055.71 1328.67, 1059.49 1329.33, 1063.34 1330.0, 1067.25 1330.67, 1071.24 1331.33, 1075.28 1332.0, 1079.4 1332.67, 1083.58 1333.33, 1087.84 1334.0, 1092.17 1334.67, 1096.57 1335.33, 1101.04 1336.0, 1105.58 1336.67, 1110.2 1337.33, 1114.9 1338.0, 1119.67 1338.67, 1124.52 1339.33, 1129.45 1340.0, 1134.46 1340.67, 1139.55 1341.33, 1144.73 1342.0, 1149.98 1342.67, 1155.32 1343.33, 1160.74 1344.0, 1166.25 1344.67, 1171.85 1345.33, 1177.54 1346.0, 1183.31 1346.67, 1189.18 1347.33, 1195.13 1348.0, 1201.18 1348.67, 1207.32 1349.33, 1213.56 1350.0, 1219.9 1350.67, 1226.33 1351.33, 1232.86 1352.0, 1239.49 1352.67, 1246.22 1353.33, 1253.05 1354.0, 1259.98 1354.67, 1267.02 1355.33, 1274.17 1356.0, 1281.42 1356.67, 1288.79 1357.33, 1296.26 1358.0, 1303.84 1358.67, 1311.54 1359.33, 1319.35 1360.0, 1327.27 1360.67, 1335.31 1361.33, 1343.47 1362.0, 1351.75 1362.67, 1360.15 1363.33, 1368.67 1364.0, 1377.31 1364.67, 1386.08 1365.33, 1394.98 1366.0, 1404.0 1366.67, 1413.16 1367.33, 1422.44 1368.0, 1431.86 1368.67, 1441.41 1369.33, 1451.1 1370.0, 1460.92 1370.67, 1470.89 1371.33, 1480.99 1372.0, 1491.24 1372.67, 1501.63 1373.33, 1512.16 1374.0, 1522.85 1374.67, 1533.68 1375.33, 1544.66 1376.0, 1555.79 1376.67, 1567.08 1377.33, 1578.53 1378.0, 1590.13 1378.67, 1601.89 1379.33, 1613.81 1380.0, 1625.9 1380.67, 1638.15 1381.33, 1650.56 1382.0, 1663.15 1382.67, 1675.9 1383.33, 1688.83 1384.0, 1701.93 1384.67, 1715.21 1385.33, 1728.67 1386.0, 1742.3 1386.67, 1756.12 1387.33, 1770.13 1388.0, 1784.32 1388.67, 1798.7 1389.33, 1813.27 1390.0, 1828.03 1390.67, 1842.98 1391.33, 1858.14 1392.0, 1873.49 1392.67, 1889.04 1393.33, 1904.8 1394.0, 1920.76 1394.67, 1936.94 1395.33, 1953.32 1396.0, 1969.91 1396.67, 1986.72 1397.33, 2003.75 1398.0, 2021.0 1398.67, 2038.46 1399.33, 2056.16 1400.0, 2074.08 1400.67, 2092.23 1401.33, 2110.61 1402.0, 2129.22 1402.67, 2148.08 1403.33, 2167.17 1404.0, 2186.5 1404.67, 2206.08 1405.33, 2225.91 1406.0, 2245.99 1406.67, 2266.31 1407.33, 2286.9 1408.0, 2307.74 1408.67, 2328.84 1409.33, 2350.21 1410.0, 2371.84 1410.67, 2393.75 1411.33, 2415.92 1412.0, 2438.37 1412.67, 2461.1 1413.33, 2484.11 1414.0, 2507.4 1414.67, 2530.98 1415.33, 2554.85 1416.0, 2579.01 1416.67, 2603.47 1417.33, 2628.22 1418.0, 2653.28 1418.67, 2678.65 1419.33, 2704.32 1420.0, 2730.3 1420.67, 2756.6 1421.33, 2783.22 1422.0, 2810.16 1422.67, 2837.42 1423.33, 2865.02 1424.0, 2892.94 1424.67, 2921.2 1425.33, 2949.8 1426.0, 2978.73 1426.67, 3008.02 1427.33, 3037.65 1428.0, 3067.64 1428.67, 3097.98 1429.33, 3128.69 1430.0, 3159.75 1430.67, 3191.19 1431.33, 3222.99 1432.0, 3255.17 1432.67, 3287.73 1433.33, 3320.67 1434.0, 3354.0 1434.67, 3387.71 1435.33, 3421.82 1436.0, 3456.33 1436.67, 3491.25 1437.33, 3526.56 1438.0, 3562.29 1438.67, 3598.44 1439.33, 3635.0 1440.0, 3671.98 1440.67, 3709.39 1441.33, 3747.24 1442.0, 3785.52 1442.67, 3824.23 1443.33, 3863.4 1444.0, 3903.01 1444.67, 3943.07 1445.33, 3983.6 1446.0, 4024.58 1446.67, 4066.03 1447.33, 4107.96 1448.0, 4150.36 1448.67, 4193.24 1449.33, 4236.6 1450.0, 4280.46 1450.67, 4324.81 1451.33, 4369.66 1452.0, 4415.02 1452.67, 4460.88 1453.33, 4507.26 1454.0, 4554.16 1454.67, 4601.59 1455.33, 4649.54 1456.0, 4698.03 1456.67, 4747.06 1457.33, 4796.64 1458.0, 4846.77 1458.67, 4897.45 1459.33, 4948.7 1460.0, 5000.51 1460.67, 5052.89 1461.33, 5105.86 1462.0, 5159.4 1462.67, 5213.54 1463.33, 5268.27 1464.0, 5323.6 1464.67, 5379.53 1465.33, 5436.08 1466.0, 5493.25 1466.67, 5551.04 1467.33, 5609.46 1468.0, 5668.51 1468.67, 5728.21 1469.33, 5788.55 1470.0, 5849.55 1470.67, 5911.21 1471.33, 5973.53 1472.0, 6036.53 1472.67, 6100.21 1473.33, 6164.57 1474.0, 6229.62 1474.67, 6295.37 1475.33, 6361.83 1476.0, 6428.99 1476.67, 6496.88 1477.33, 6565.49 1478.0, 6634.83 1478.67, 6704.91 1479.33, 6775.73 1480.0, 6847.31 1480.67, 6919.65 1481.33, 6992.75 1482.0, 7066.62 1482.67, 7141.28 1483.33, 7216.72 1484.0, 7292.96 1484.67, 7370.0 1485.33, 7447.84 1486.0, 7526.51 1486.67, 7606.0 1487.33, 7686.32 1488.0, 7767.48 1488.67, 7849.49 1489.33, 7932.35 1490.0, 8016.08 1490.67, 8100.68 1491.33, 8186.15 1492.0, 8272.51 1492.67, 8359.77 1493.33, 8447.93 1494.0, 8537.0 1494.67, 8626.98 1495.33, 8717.9 1496.0, 8809.75 1496.67, 8902.54 1497.33, 8996.29 1498.0, 9091.0 1498.67, 9186.68 1499.33, 9283.34 1500.0, 9380.98 1500.67, 9479.62 1501.33, 9579.26 1502.0, 9679.92 1502.67, 9781.6 1503.33, 9884.31 1504.0, 9988.07 1504.67, 10092.87 1505.33, 10198.74 1506.0, 10305.67 1506.67, 10413.68 1507.33, 10522.78 1508.0, 10632.97 1508.67, 10744.28 1509.33, 10856.7 1510.0, 10970.25 1510.67, 11084.93 1511.33, 11200.76 1512.0, 11317.74 1512.67, 11435.9 1513.33, 11555.23 1514.0, 11675.74 1514.67, 11797.46 1515.33, 11920.38 1516.0, 12044.52 1516.67, 12169.89 1517.33, 12296.5 1518.0, 12424.35 1518.67, 12553.47 1519.33, 12683.86 1520.0, 12815.54 1520.67, 12948.5 1521.33, 13082.78 1522.0, 13218.36 1522.67, 13355.28 1523.33, 13493.53 1524.0, 13633.14 1524.67, 13774.1 1525.33, 13916.44 1526.0, 14060.17 1526.67, 14205.29 1527.33, 14351.81 1528.0, 14499.76 1528.67, 14649.15 1529.33, 14799.97 1530.0, 14952.26 1530.67, 15106.01 1531.33, 15261.24 1532.0, 15417.97 1532.67, 15576.21 1533.33, 15735.96 1534.0, 15897.24 1534.67, 16060.07 1535.33, 16224.46 1536.0, 16390.42 1536.67, 16557.96 1537.33, 16727.1 1538.0, 16897.85 1538.67, 17070.22 1539.33, 17244.23 1540.0, 17419.9 1540.67, 17597.22 1541.33, 17776.22 1542.0, 17956.92 1542.67, 18139.32 1543.33, 18323.44 1544.0, 18509.29 1544.67, 18696.89 1545.33, 18886.26 1546.0, 19077.4 1546.67, 19270.34 1547.33, 19465.07 1548.0, 19661.64 1548.67, 19860.03 1549.33, 20060.28 1550.0, 20262.39 1550.67, 20466.38 1551.33, 20672.27 1552.0, 20880.07 1552.67, 21089.8 1553.33, 21301.47 1554.0, 21515.1 1554.67, 21730.7 1555.33, 21948.29 1556.0, 22167.89 1556.67, 22389.51 1557.33, 22613.17 1558.0, 22838.88 1558.67, 23066.66 1559.33, 23296.53 1560.0, 23528.51 1560.67, 23762.6 1561.33, 23998.83 1562.0, 24237.22 1562.67, 24477.77 1563.33, 24720.52 1564.0, 24965.47 1564.67, 25212.65 1565.33, 25462.06 1566.0, 25713.74 1566.67, 25967.69 1567.33, 26223.93 1568.0, 26482.49 1568.67, 26743.38 1569.33, 27006.62 1570.0, 27272.22 1570.67, 27540.21 1571.33, 27810.6 1572.0, 28083.42 1572.67, 28358.67 1573.33, 28636.39 1574.0, 28916.59 1574.67, 29199.28 1575.33, 29484.5 1576.0, 29772.25 1576.67, 30062.55 1577.33, 30355.44 1578.0, 30650.92 1578.67, 30949.02 1579.33, 31249.75 1580.0, 31553.14 1580.67, 31859.21 1581.33, 32167.97 1582.0, 32479.46 1582.67, 32793.68 1583.33, 33110.66 1584.0, 33430.42 1584.67, 33752.99 1585.33, 34078.37 1586.0, 34406.6 1586.67, 34737.7 1587.33, 35071.68 1588.0, 35408.58 1588.67, 35748.4 1589.33, 36091.18 1590.0, 36436.93 1590.67, 36785.68 1591.33, 37137.45 1592.0, 37492.26 1592.67, 37850.14 1593.33, 38211.1 1594.0, 38575.18 1594.67, 38942.39 1595.33, 39312.76 1596.0, 39686.3 1596.67, 40063.06 1597.33, 40443.04 1598.0, 40826.27 1598.67, 41212.78 1599.33, 41602.59 1600.0, 41995.72 " fill="none" stroke="white" stroke-width="1.5" stroke-linejoin="round" stroke-opacity="1"/>

 </svg>