<svg version="1.1" 
 baseProfile="full" 
 width="1600" 
 height="1600" 
 xmlns="http://www.w3.org/2000/svg">
<rect x="0.0" y="0.0" width="1600" height="1600" fill="black" stroke="black" stroke-width="0" opacity="1"/>
<line x1="0.0" y1="0.0" x2="0.0" y2="1600.0" stroke="white" stroke-width="1" opacity="0.4" stroke-linecap="butt"/>
<line x1="160.0" y1="0.0" x2="160.0" y2="1600.0" stroke="white" stroke-width="1" opacity="0.4" stroke-linecap="butt"/>
<line x1="320.0" y1="0.0" x2="320.0" y2="1600.0" stroke="white" stroke-width="1" opacity="0.4" stroke-linecap="butt"/>
<line x1="480.0" y1="0.0" x2="480.0" y2="1600.0" stroke="white" stroke-width="1" opacity="0.4" stroke-linecap="butt"/>
<line x1="640.0" y1="0.0" x2="640.0" y2="1600.0" stroke="white" stroke-width="1" opacity="0.4" stroke-linecap="butt"/>
<line x1="800.0" y1="0.0" x2="800.0" y2="1600.0" stroke="white" stroke-width="1" opacity="0.4" stroke-linecap="butt"/>
<line x1="960.0" y1="0.0" x2="960.0" y2="1600.0" stroke="white" stroke-width="1" opacity="0.4" stroke-linecap="butt"/>
<line x1="1120.0" y1="0.0" x2="1120.0" y2="1600.0" stroke="white" stroke-width="1" opacity="0.4" stroke-linecap="butt"/>
<line x1="1280.0" y1="0.0" x2="1280.0" y2="1600.0" stroke="white" stroke-width="1" opacity="0.4" stroke-linecap="butt"/>
<line x1="1440.0" y1="0.0" x2="1440.0" y2="1600.0" stroke="white" stroke-width="1" opacity="0.4" stroke-linecap="butt"/>
<line x1="0.0" y1="0.0" x2="1600.0" y2="0.0" stroke="white" stroke-width="1" opacity="0.4" stroke-linecap="butt"/>
<line x1="0.0" y1="160.0" x2="1600.0" y2="160.0" stroke="white" stroke-width="1" opacity="0.4" stroke-linecap="butt"/>
<line x1="0.0" y1="320.0" x2="1600.0" y2="320.0" stroke="white" stroke-width="1" opacity="0.4" stroke-linecap="butt"/>
<line x1="0.0" y1="480.0" x2="1600.0" y2="480.0" stroke="white" stroke-width="1" opacity="0.4" stroke-linecap="butt"/>
<line x1="0.0" y1="640.0" x2="1600.0" y2="640.0" stroke="white" stroke-width="1" opacity="0.4" stroke-linecap="butt"/>
<line x1="0.0" y1="800.0" x2="1600.0" y2="800.0" stroke="white" stroke-width="1" opacity="0.4" stroke-linecap="butt"/>
<line x1="0.0" y1="960.0" x2="1600.0" y2="960.0" stroke="white" stroke-width="1" opacity="0.4" stroke-linecap="butt"/>
<line x1="0.0" y1="1120.0" x2="1600.0" y2="1120.0" stroke="white" stroke-width="1" opacity="0.4" stroke-linecap="butt"/>
<line x1="0.0" y1="1280.0" x2="1600.0" y2="1280.0" stroke="white" stroke-width="1" opacity="0.4" stroke-linecap="butt"/>
<line x1="0.0" y1="1440.0" x2="1600.0" y2="1440.0" stroke="white" stroke-width="1" opacity="0.4" stroke-linecap="butt"/>
<line x1="0.0" y1="800.0" x2="1600.0" y2="800.0" stroke="yellow" stroke-width="2.5" opacity="1" stroke-linecap="butt"/>
<line x1="800.0" y1="0.0" x2="800.0" y2="1600.0" stroke="yellow" stroke-width="2.5" opacity="1" stroke-linecap="butt"/>
<polygon points="1564.0 816.0, 1604.0 800.0, 1564.0 784.0, 1572.0 800.0" fill="yellow"/><polygon points="816.0 36.0, 800.0 -4.0, 784.0 36.0, 800.0 28.0" fill="yellow"/><polyline points="0.0, -16307.15 0.67, -16173.68 1.33, -16040.94 2.0, -15908.95 2.67, -15777.69 3.33, -15647.16 4.0, -15517.37 4.67, -15388.32 5.33, -15260.0 6.0, -15132.41 6.67, -15005.56 7.33, -14879.43 8.0, -14754.04 8.67, -14629.37 9.33, -14505.43 10.0, -14382.22 10.67, -14259.73 11.33, -14137.97 12.0, -14016.93 12.67, -13896.61 13.33, -13777.01 14.0, -13658.13 14.67, -13539.96 15.33, -13422.51 16.0, -13305.78 16.67, -13189.75 17.33, -13074.44 18.0, -12959.83 18.67, -12845.94 19.33, -12732.74 20.0, -12620.25 20.67, -12508.47 21.33, -12397.38 22.0, -12286.99 22.67, -12177.3 23.33, -12068.3 24.0, -11959.99 24.67, -11852.37 25.33, -11745.44 26.0, -11639.2 26.67, -11533.65 27.33, -11428.77 28.0, -11324.57 28.67, -11221.06 29.33, -11118.22 30.0, -11016.05 30.67, -10914.55 31.33, -10813.73 32.0, -10713.57 32.67, -10614.07 33.33, -10515.24 34.0, -10417.06 34.67, -10319.55 35.33, -10222.69 36.0, -10126.48 36.67, -10030.93 37.33, -9936.02 38.0, -9841.76 38.67, -9748.14 39.33, -9655.17 40.0, -9562.83 40.67, -9471.13 41.33, -9380.06 42.0, -9289.63 42.67, -9199.82 43.33, -9110.64 44.0, -9022.08 44.67, -8934.14 45.33, -8846.83 46.0, -8760.13 46.67, -8674.04 47.33, -8588.56 48.0, -8503.69 48.67, -8419.43 49.33, -8335.77 50.0, -8252.71 50.67, -8170.24 51.33, -8088.38 52.0, -8007.1 52.67, -7926.42 53.33, -7846.32 54.0, -7766.81 54.67, -7687.87 55.33, -7609.52 56.0, -7531.74 56.67, -7454.54 57.33, -7377.91 58.0, -7301.85 58.67, -7226.35 59.33, -7151.41 60.0, -7077.04 60.67, -7003.22 61.33, -6929.95 62.0, -6857.24 62.67, -6785.08 63.33, -6713.46 64.0, -6642.39 64.67, -6571.86 65.33, -6501.86 66.0, -6432.4 66.67, -6363.48 67.33, -6295.08 68.0, -6227.21 68.67, -6159.87 69.33, -6093.04 70.0, -6026.74 70.67, -5960.95 71.33, -5895.67 72.0, -5830.91 72.67, -5766.65 73.33, -5702.9 74.0, -5639.65 74.67, -5576.9 75.33, -5514.65 76.0, -5452.89 76.67, -5391.62 77.33, -5330.84 78.0, -5270.54 78.67, -5210.73 79.33, -5151.4 80.0, -5092.55 80.67, -5034.17 81.33, -4976.26 82.0, -4918.82 82.67, -4861.85 83.33, -4805.35 84.0, -4749.3 84.67, -4693.71 85.33, -4638.58 86.0, -4583.9 86.67, -4529.68 87.33, -4475.9 88.0, -4422.56 88.67, -4369.67 89.33, -4317.22 90.0, -4265.2 90.67, -4213.62 91.33, -4162.47 92.0, -4111.75 92.67, -4061.45 93.33, -4011.58 94.0, -3962.13 94.67, -3913.1 95.33, -3864.49 96.0, -3816.28 96.67, -3768.49 97.33, -3721.11 98.0, -3674.13 98.67, -3627.56 99.33, -3581.38 100.0, -3535.61 100.67, -3490.23 101.33, -3445.24 102.0, -3400.64 102.67, -3356.43 103.33, -3312.6 104.0, -3269.16 104.67, -3226.1 105.33, -3183.41 106.0, -3141.1 106.67, -3099.16 107.33, -3057.59 108.0, -3016.39 108.67, -2975.56 109.33, -2935.09 110.0, -2894.97 110.67, -2855.22 111.33, -2815.82 112.0, -2776.77 112.67, -2738.08 113.33, -2699.73 114.0, -2661.73 114.67, -2624.07 115.33, -2586.75 116.0, -2549.77 116.67, -2513.13 117.33, -2476.82 118.0, -2440.84 118.67, -2405.19 119.33, -2369.87 120.0, -2334.87 120.67, -2300.2 121.33, -2265.84 122.0, -2231.8 122.67, -2198.08 123.33, -2164.67 124.0, -2131.58 124.67, -2098.79 125.33, -2066.31 126.0, -2034.13 126.67, -2002.25 127.33, -1970.68 128.0, -1939.4 128.67, -1908.41 129.33, -1877.73 130.0, -1847.33 130.67, -1817.22 131.33, -1787.39 132.0, -1757.86 132.67, -1728.6 133.33, -1699.63 134.0, -1670.93 134.67, -1642.51 135.33, -1614.36 136.0, -1586.49 136.67, -1558.89 137.33, -1531.55 138.0, -1504.48 138.67, -1477.68 139.33, -1451.13 140.0, -1424.85 140.67, -1398.82 141.33, -1373.05 142.0, -1347.54 142.67, -1322.27 143.33, -1297.26 144.0, -1272.5 144.67, -1247.98 145.33, -1223.7 146.0, -1199.67 146.67, -1175.88 147.33, -1152.32 148.0, -1129.01 148.67, -1105.93 149.33, -1083.08 150.0, -1060.46 150.67, -1038.07 151.33, -1015.91 152.0, -993.97 152.67, -972.26 153.33, -950.77 154.0, -929.5 154.67, -908.45 155.33, -887.62 156.0, -867.0 156.67, -846.59 157.33, -826.4 158.0, -806.41 158.67, -786.64 159.33, -767.07 160.0, -747.7 160.67, -728.54 161.33, -709.57 162.0, -690.81 162.67, -672.25 163.33, -653.88 164.0, -635.71 164.67, -617.73 165.33, -599.94 166.0, -582.34 166.67, -564.93 167.33, -547.7 168.0, -530.66 168.67, -513.8 169.33, -497.13 170.0, -480.64 170.67, -464.32 171.33, -448.18 172.0, -432.22 172.67, -416.43 173.33, -400.82 174.0, -385.37 174.67, -370.1 175.33, -354.99 176.0, -340.05 176.67, -325.28 177.33, -310.67 178.0, -296.22 178.67, -281.94 179.33, -267.81 180.0, -253.84 180.67, -240.03 181.33, -226.37 182.0, -212.87 182.67, -199.52 183.33, -186.33 184.0, -173.28 184.67, -160.38 185.33, -147.63 186.0, -135.02 186.67, -122.56 187.33, -110.24 188.0, -98.07 188.67, -86.03 189.33, -74.14 190.0, -62.38 190.67, -50.76 191.33, -39.28 192.0, -27.93 192.67, -16.72 193.33, -5.63 194.0, 5.32 194.67, 16.14 195.33, 26.84 196.0, 37.41 196.67, 47.85 197.33, 58.16 198.0, 68.36 198.67, 78.42 199.33, 88.37 200.0, 98.2 200.67, 107.91 201.33, 117.5 202.0, 126.97 202.67, 136.33 203.33, 145.58 204.0, 154.7 204.67, 163.72 205.33, 172.63 206.0, 181.42 206.67, 190.11 207.33, 198.68 208.0, 207.15 208.67, 215.52 209.33, 223.78 210.0, 231.93 210.67, 239.98 211.33, 247.93 212.0, 255.78 212.67, 263.52 213.33, 271.17 214.0, 278.72 214.67, 286.18 215.33, 293.53 216.0, 300.79 216.67, 307.96 217.33, 315.03 218.0, 322.01 218.67, 328.9 219.33, 335.7 220.0, 342.41 220.67, 349.03 221.33, 355.56 222.0, 362.0 222.67, 368.36 223.33, 374.63 224.0, 380.82 224.67, 386.92 225.33, 392.95 226.0, 398.89 226.67, 404.74 227.33, 410.52 228.0, 416.22 228.67, 421.84 229.33, 427.38 230.0, 432.85 230.67, 438.24 231.33, 443.55 232.0, 448.79 232.67, 453.96 233.33, 459.05 234.0, 464.07 234.67, 469.02 235.33, 473.9 236.0, 478.7 236.67, 483.44 237.33, 488.11 238.0, 492.71 238.67, 497.25 239.33, 501.72 240.0, 506.12 240.67, 510.46 241.33, 514.73 242.0, 518.94 242.67, 523.09 243.33, 527.18 244.0, 531.2 244.67, 535.16 245.33, 539.07 246.0, 542.91 246.67, 546.69 247.33, 550.42 248.0, 554.09 248.67, 557.7 249.33, 561.26 250.0, 564.76 250.67, 568.2 251.33, 571.59 252.0, 574.93 252.67, 578.22 253.33, 581.45 254.0, 584.63 254.67, 587.75 255.33, 590.83 256.0, 593.86 256.67, 596.84 257.33, 599.77 258.0, 602.65 258.67, 605.48 259.33, 608.26 260.0, 611.0 260.67, 613.69 261.33, 616.34 262.0, 618.94 262.67, 621.5 263.33, 624.01 264.0, 626.48 264.67, 628.91 265.33, 631.29 266.0, 633.63 266.67, 635.93 267.33, 638.19 268.0, 640.41 268.67, 642.59 269.33, 644.73 270.0, 646.83 270.67, 648.89 271.33, 650.92 272.0, 652.9 272.67, 654.85 273.33, 656.76 274.0, 658.64 274.67, 660.48 275.33, 662.29 276.0, 664.06 276.67, 665.79 277.33, 667.49 278.0, 669.16 278.67, 670.8 279.33, 672.4 280.0, 673.97 280.67, 675.51 281.33, 677.02 282.0, 678.5 282.67, 679.94 283.33, 681.36 284.0, 682.75 284.67, 684.1 285.33, 685.43 286.0, 686.73 286.67, 688.0 287.33, 689.24 288.0, 690.46 288.67, 691.65 289.33, 692.81 290.0, 693.95 290.67, 695.06 291.33, 696.14 292.0, 697.2 292.67, 698.24 293.33, 699.25 294.0, 700.24 294.67, 701.2 295.33, 702.14 296.0, 703.05 296.67, 703.95 297.33, 704.82 298.0, 705.67 298.67, 706.49 299.33, 707.3 300.0, 708.08 300.67, 708.85 301.33, 709.59 302.0, 710.31 302.67, 711.01 303.33, 711.7 304.0, 712.36 304.67, 713.01 305.33, 713.63 306.0, 714.24 306.67, 714.83 307.33, 715.41 308.0, 715.96 308.67, 716.5 309.33, 717.02 310.0, 717.52 310.67, 718.01 311.33, 718.48 312.0, 718.94 312.67, 719.38 313.33, 719.8 314.0, 720.21 314.67, 720.61 315.33, 720.99 316.0, 721.36 316.67, 721.71 317.33, 722.05 318.0, 722.37 318.67, 722.69 319.33, 722.98 320.0, 723.27 320.67, 723.54 321.33, 723.81 322.0, 724.06 322.67, 724.29 323.33, 724.52 324.0, 724.73 324.67, 724.94 325.33, 725.13 326.0, 725.31 326.67, 725.48 327.33, 725.64 328.0, 725.79 328.67, 725.93 329.33, 726.07 330.0, 726.19 330.67, 726.3 331.33, 726.4 332.0, 726.5 332.67, 726.58 333.33, 726.66 334.0, 726.73 334.67, 726.79 335.33, 726.85 336.0, 726.89 336.67, 726.93 337.33, 726.96 338.0, 726.98 338.67, 727.0 339.33, 727.01 340.0, 727.01 340.67, 727.01 341.33, 727.0 342.0, 726.99 342.67, 726.97 343.33, 726.94 344.0, 726.91 344.67, 726.87 345.33, 726.82 346.0, 726.78 346.67, 726.72 347.33, 726.66 348.0, 726.6 348.67, 726.53 349.33, 726.46 350.0, 726.39 350.67, 726.31 351.33, 726.22 352.0, 726.14 352.67, 726.04 353.33, 725.95 354.0, 725.85 354.67, 725.75 355.33, 725.65 356.0, 725.54 356.67, 725.43 357.33, 725.32 358.0, 725.2 358.67, 725.08 359.33, 724.96 360.0, 724.84 360.67, 724.72 361.33, 724.59 362.0, 724.47 362.67, 724.34 363.33, 724.21 364.0, 724.07 364.67, 723.94 365.33, 723.81 366.0, 723.67 366.67, 723.53 367.33, 723.4 368.0, 723.26 368.67, 723.12 369.33, 722.98 370.0, 722.84 370.67, 722.7 371.33, 722.56 372.0, 722.42 372.67, 722.28 373.33, 722.14 374.0, 722.0 374.67, 721.86 375.33, 721.72 376.0, 721.58 376.67, 721.44 377.33, 721.3 378.0, 721.16 378.67, 721.03 379.33, 720.89 380.0, 720.76 380.67, 720.62 381.33, 720.49 382.0, 720.36 382.67, 720.23 383.33, 720.1 384.0, 719.97 384.67, 719.85 385.33, 719.72 386.0, 719.6 386.67, 719.48 387.33, 719.36 388.0, 719.24 388.67, 719.13 389.33, 719.02 390.0, 718.91 390.67, 718.8 391.33, 718.69 392.0, 718.59 392.67, 718.49 393.33, 718.39 394.0, 718.29 394.67, 718.2 395.33, 718.11 396.0, 718.02 396.67, 717.93 397.33, 717.85 398.0, 717.77 398.67, 717.69 399.33, 717.62 400.0, 717.54 400.67, 717.48 401.33, 717.41 402.0, 717.35 402.67, 717.29 403.33, 717.23 404.0, 717.18 404.67, 717.13 405.33, 717.09 406.0, 717.05 406.67, 717.01 407.33, 716.97 408.0, 716.94 408.67, 716.91 409.33, 716.89 410.0, 716.87 410.67, 716.85 411.33, 716.84 412.0, 716.83 412.67, 716.82 413.33, 716.82 414.0, 716.83 414.67, 716.83 415.33, 716.84 416.0, 716.86 416.67, 716.88 417.33, 716.9 418.0, 716.92 418.67, 716.96 419.33, 716.99 420.0, 717.03 420.67, 717.07 421.33, 717.12 422.0, 717.17 422.67, 717.23 423.33, 717.29 424.0, 717.36 424.67, 717.42 425.33, 717.5 426.0, 717.58 426.67, 717.66 427.33, 717.75 428.0, 717.84 428.67, 717.93 429.33, 718.03 430.0, 718.14 430.67, 718.25 431.33, 718.36 432.0, 718.48 432.67, 718.6 433.33, 718.73 434.0, 718.86 434.67, 719.0 435.33, 719.14 436.0, 719.29 436.67, 719.44 437.33, 719.59 438.0, 719.75 438.67, 719.92 439.33, 720.09 440.0, 720.26 440.67, 720.44 441.33, 720.62 442.0, 720.81 442.67, 721.0 443.33, 721.2 444.0, 721.4 444.67, 721.61 445.33, 721.82 446.0, 722.04 446.67, 722.26 447.33, 722.48 448.0, 722.71 448.67, 722.95 449.33, 723.19 450.0, 723.43 450.67, 723.68 451.33, 723.93 452.0, 724.19 452.67, 724.46 453.33, 724.72 454.0, 725.0 454.67, 725.27 455.33, 725.55 456.0, 725.84 456.67, 726.13 457.33, 726.43 458.0, 726.73 458.67, 727.03 459.33, 727.34 460.0, 727.65 460.67, 727.97 461.33, 728.29 462.0, 728.62 462.67, 728.95 463.33, 729.29 464.0, 729.63 464.67, 729.98 465.33, 730.32 466.0, 730.68 466.67, 731.04 467.33, 731.4 468.0, 731.77 468.67, 732.14 469.33, 732.52 470.0, 732.9 470.67, 733.28 471.33, 733.67 472.0, 734.06 472.67, 734.46 473.33, 734.86 474.0, 735.27 474.67, 735.68 475.33, 736.09 476.0, 736.51 476.67, 736.93 477.33, 737.36 478.0, 737.79 478.67, 738.23 479.33, 738.67 480.0, 739.11 480.67, 739.56 481.33, 740.01 482.0, 740.46 482.67, 740.92 483.33, 741.38 484.0, 741.85 484.67, 742.32 485.33, 742.79 486.0, 743.27 486.67, 743.75 487.33, 744.24 488.0, 744.73 488.67, 745.22 489.33, 745.72 490.0, 746.22 490.67, 746.72 491.33, 747.23 492.0, 747.74 492.67, 748.25 493.33, 748.77 494.0, 749.29 494.67, 749.81 495.33, 750.34 496.0, 750.87 496.67, 751.4 497.33, 751.94 498.0, 752.48 498.67, 753.03 499.33, 753.57 500.0, 754.12 500.67, 754.67 501.33, 755.23 502.0, 755.79 502.67, 756.35 503.33, 756.92 504.0, 757.48 504.67, 758.05 505.33, 758.63 506.0, 759.2 506.67, 759.78 507.33, 760.36 508.0, 760.95 508.67, 761.54 509.33, 762.12 510.0, 762.72 510.67, 763.31 511.33, 763.91 512.0, 764.51 512.67, 765.11 513.33, 765.71 514.0, 766.32 514.67, 766.93 515.33, 767.54 516.0, 768.15 516.67, 768.77 517.33, 769.38 518.0, 770.0 518.67, 770.63 519.33, 771.25 520.0, 771.87 520.67, 772.5 521.33, 773.13 522.0, 773.76 522.67, 774.39 523.33, 775.03 524.0, 775.66 524.67, 776.3 525.33, 776.94 526.0, 777.58 526.67, 778.22 527.33, 778.87 528.0, 779.51 528.67, 780.16 529.33, 780.81 530.0, 781.46 530.67, 782.11 531.33, 782.76 532.0, 783.41 532.67, 784.07 533.33, 784.72 534.0, 785.38 534.67, 786.03 535.33, 786.69 536.0, 787.35 536.67, 788.01 537.33, 788.67 538.0, 789.33 538.67, 789.99 539.33, 790.66 540.0, 791.32 540.67, 791.98 541.33, 792.65 542.0, 793.31 542.67, 793.98 543.33, 794.64 544.0, 795.31 544.67, 795.98 545.33, 796.64 546.0, 797.31 546.67, 797.98 547.33, 798.64 548.0, 799.31 548.67, 799.98 549.33, 800.65 550.0, 801.31 550.67, 801.98 551.33, 802.65 552.0, 803.31 552.67, 803.98 553.33, 804.65 554.0, 805.31 554.67, 805.98 555.33, 806.64 556.0, 807.31 556.67, 807.97 557.33, 808.63 558.0, 809.3 558.67, 809.96 559.33, 810.62 560.0, 811.28 560.67, 811.94 561.33, 812.6 562.0, 813.26 562.67, 813.92 563.33, 814.57 564.0, 815.23 564.67, 815.88 565.33, 816.53 566.0, 817.19 566.67, 817.84 567.33, 818.49 568.0, 819.13 568.67, 819.78 569.33, 820.43 570.0, 821.07 570.67, 821.71 571.33, 822.35 572.0, 822.99 572.67, 823.63 573.33, 824.27 574.0, 824.9 574.67, 825.54 575.33, 826.17 576.0, 826.8 576.67, 827.42 577.33, 828.05 578.0, 828.67 578.67, 829.29 579.33, 829.91 580.0, 830.53 580.67, 831.15 581.33, 831.76 582.0, 832.37 582.67, 832.98 583.33, 833.58 584.0, 834.19 584.67, 834.79 585.33, 835.39 586.0, 835.99 586.67, 836.58 587.33, 837.17 588.0, 837.76 588.67, 838.35 589.33, 838.93 590.0, 839.51 590.67, 840.09 591.33, 840.67 592.0, 841.24 592.67, 841.81 593.33, 842.38 594.0, 842.94 594.67, 843.5 595.33, 844.06 596.0, 844.61 596.67, 845.17 597.33, 845.71 598.0, 846.26 598.67, 846.8 599.33, 847.34 600.0, 847.88 600.67, 848.41 601.33, 848.94 602.0, 849.46 602.67, 849.99 603.33, 850.51 604.0, 851.02 604.67, 851.53 605.33, 852.04 606.0, 852.54 606.67, 853.05 607.33, 853.54 608.0, 854.04 608.67, 854.53 609.33, 855.01 610.0, 855.49 610.67, 855.97 611.33, 856.45 612.0, 856.92 612.67, 857.38 613.33, 857.85 614.0, 858.31 614.67, 858.76 615.33, 859.21 616.0, 859.66 616.67, 860.1 617.33, 860.54 618.0, 860.97 618.67, 861.4 619.33, 861.82 620.0, 862.25 620.67, 862.66 621.33, 863.07 622.0, 863.48 622.67, 863.89 623.33, 864.28 624.0, 864.68 624.67, 865.07 625.33, 865.46 626.0, 865.84 626.67, 866.21 627.33, 866.58 628.0, 866.95 628.67, 867.31 629.33, 867.67 630.0, 868.03 630.67, 868.37 631.33, 868.72 632.0, 869.06 632.67, 869.39 633.33, 869.72 634.0, 870.04 634.67, 870.36 635.33, 870.68 636.0, 870.99 636.67, 871.29 637.33, 871.59 638.0, 871.89 638.67, 872.18 639.33, 872.46 640.0, 872.74 640.67, 873.02 641.33, 873.29 642.0, 873.55 642.67, 873.81 643.33, 874.07 644.0, 874.32 644.67, 874.56 645.33, 874.8 646.0, 875.03 646.67, 875.26 647.33, 875.49 648.0, 875.7 648.67, 875.92 649.33, 876.12 650.0, 876.33 650.67, 876.52 651.33, 876.72 652.0, 876.9 652.67, 877.08 653.33, 877.26 654.0, 877.43 654.67, 877.59 655.33, 877.75 656.0, 877.91 656.67, 878.06 657.33, 878.2 658.0, 878.34 658.67, 878.47 659.33, 878.6 660.0, 878.72 660.67, 878.83 661.33, 878.95 662.0, 879.05 662.67, 879.15 663.33, 879.24 664.0, 879.33 664.67, 879.42 665.33, 879.49 666.0, 879.57 666.67, 879.63 667.33, 879.69 668.0, 879.75 668.67, 879.8 669.33, 879.84 670.0, 879.88 670.67, 879.92 671.33, 879.94 672.0, 879.97 672.67, 879.98 673.33, 879.99 674.0, 880.0 674.67, 880.0 675.33, 879.99 676.0, 879.98 676.67, 879.97 677.33, 879.94 678.0, 879.92 678.67, 879.88 679.33, 879.84 680.0, 879.8 680.67, 879.75 681.33, 879.69 682.0, 879.63 682.67, 879.57 683.33, 879.49 684.0, 879.42 684.67, 879.33 685.33, 879.25 686.0, 879.15 686.67, 879.05 687.33, 878.95 688.0, 878.84 688.67, 878.72 689.33, 878.6 690.0, 878.47 690.67, 878.34 691.33, 878.2 692.0, 878.06 692.67, 877.91 693.33, 877.76 694.0, 877.6 694.67, 877.43 695.33, 877.26 696.0, 877.08 696.67, 876.9 697.33, 876.72 698.0, 876.53 698.67, 876.33 699.33, 876.13 700.0, 875.92 700.67, 875.71 701.33, 875.49 702.0, 875.26 702.67, 875.04 703.33, 874.8 704.0, 874.56 704.67, 874.32 705.33, 874.07 706.0, 873.82 706.67, 873.56 707.33, 873.29 708.0, 873.02 708.67, 872.75 709.33, 872.47 710.0, 872.18 710.67, 871.89 711.33, 871.6 712.0, 871.3 712.67, 870.99 713.33, 870.68 714.0, 870.37 714.67, 870.05 715.33, 869.72 716.0, 869.39 716.67, 869.06 717.33, 868.72 718.0, 868.38 718.67, 868.03 719.33, 867.68 720.0, 867.32 720.67, 866.96 721.33, 866.59 722.0, 866.22 722.67, 865.84 723.33, 865.46 724.0, 865.07 724.67, 864.68 725.33, 864.29 726.0, 863.89 726.67, 863.49 727.33, 863.08 728.0, 862.67 728.67, 862.25 729.33, 861.83 730.0, 861.4 730.67, 860.97 731.33, 860.54 732.0, 860.1 732.67, 859.66 733.33, 859.21 734.0, 858.76 734.67, 858.31 735.33, 857.85 736.0, 857.39 736.67, 856.92 737.33, 856.45 738.0, 855.98 738.67, 855.5 739.33, 855.02 740.0, 854.53 740.67, 854.04 741.33, 853.55 742.0, 853.05 742.67, 852.55 743.33, 852.05 744.0, 851.54 744.67, 851.03 745.33, 850.51 746.0, 849.99 746.67, 849.47 747.33, 848.94 748.0, 848.41 748.67, 847.88 749.33, 847.35 750.0, 846.81 750.67, 846.27 751.33, 845.72 752.0, 845.17 752.67, 844.62 753.33, 844.06 754.0, 843.51 754.67, 842.95 755.33, 842.38 756.0, 841.81 756.67, 841.25 757.33, 840.67 758.0, 840.1 758.67, 839.52 759.33, 838.94 760.0, 838.35 760.67, 837.77 761.33, 837.18 762.0, 836.59 762.67, 835.99 763.33, 835.4 764.0, 834.8 764.67, 834.2 765.33, 833.59 766.0, 832.99 766.67, 832.38 767.33, 831.77 768.0, 831.15 768.67, 830.54 769.33, 829.92 770.0, 829.3 770.67, 828.68 771.33, 828.06 772.0, 827.43 772.67, 826.8 773.33, 826.18 774.0, 825.54 774.67, 824.91 775.33, 824.28 776.0, 823.64 776.67, 823.0 777.33, 822.36 778.0, 821.72 778.67, 821.08 779.33, 820.44 780.0, 819.79 780.67, 819.15 781.33, 818.5 782.0, 817.85 782.67, 817.2 783.33, 816.55 784.0, 815.89 784.67, 815.24 785.33, 814.58 786.0, 813.93 786.67, 813.27 787.33, 812.61 788.0, 811.96 788.67, 811.3 789.33, 810.64 790.0, 809.97 790.67, 809.31 791.33, 808.65 792.0, 807.99 792.67, 807.32 793.33, 806.66 794.0, 805.99 794.67, 805.33 795.33, 804.66 796.0, 804.0 796.67, 803.33 797.33, 802.67 798.0, 802.0 798.67, 801.33 799.33, 800.67 800.0, 800.0 800.67, 799.33 801.33, 798.67 802.0, 798.0 802.67, 797.33 803.33, 796.67 804.0, 796.0 804.67, 795.34 805.33, 794.67 806.0, 794.01 806.67, 793.34 807.33, 792.68 808.0, 792.01 808.67, 791.35 809.33, 790.69 810.0, 790.03 810.67, 789.36 811.33, 788.7 812.0, 788.04 812.67, 787.39 813.33, 786.73 814.0, 786.07 814.67, 785.42 815.33, 784.76 816.0, 784.11 816.67, 783.45 817.33, 782.8 818.0, 782.15 818.67, 781.5 819.33, 780.85 820.0, 780.21 820.67, 779.56 821.33, 778.92 822.0, 778.28 822.67, 777.64 823.33, 777.0 824.0, 776.36 824.67, 775.72 825.33, 775.09 826.0, 774.46 826.67, 773.82 827.33, 773.2 828.0, 772.57 828.67, 771.94 829.33, 771.32 830.0, 770.7 830.67, 770.08 831.33, 769.46 832.0, 768.85 832.67, 768.23 833.33, 767.62 834.0, 767.01 834.67, 766.41 835.33, 765.8 836.0, 765.2 836.67, 764.6 837.33, 764.01 838.0, 763.41 838.67, 762.82 839.33, 762.23 840.0, 761.65 840.67, 761.06 841.33, 760.48 842.0, 759.9 842.67, 759.33 843.33, 758.75 844.0, 758.19 844.67, 757.62 845.33, 757.05 846.0, 756.49 846.67, 755.94 847.33, 755.38 848.0, 754.83 848.67, 754.28 849.33, 753.73 850.0, 753.19 850.67, 752.65 851.33, 752.12 852.0, 751.59 852.67, 751.06 853.33, 750.53 854.0, 750.01 854.67, 749.49 855.33, 748.97 856.0, 748.46 856.67, 747.95 857.33, 747.45 858.0, 746.95 858.67, 746.45 859.33, 745.96 860.0, 745.47 860.67, 744.98 861.33, 744.5 862.0, 744.02 862.67, 743.55 863.33, 743.08 864.0, 742.61 864.67, 742.15 865.33, 741.69 866.0, 741.24 866.67, 740.79 867.33, 740.34 868.0, 739.9 868.67, 739.46 869.33, 739.03 870.0, 738.6 870.67, 738.17 871.33, 737.75 872.0, 737.33 872.67, 736.92 873.33, 736.51 874.0, 736.11 874.67, 735.71 875.33, 735.32 876.0, 734.93 876.67, 734.54 877.33, 734.16 878.0, 733.78 878.67, 733.41 879.33, 733.04 880.0, 732.68 880.67, 732.32 881.33, 731.97 882.0, 731.62 882.67, 731.28 883.33, 730.94 884.0, 730.61 884.67, 730.28 885.33, 729.95 886.0, 729.63 886.67, 729.32 887.33, 729.01 888.0, 728.7 888.67, 728.4 889.33, 728.11 890.0, 727.82 890.67, 727.53 891.33, 727.25 892.0, 726.98 892.67, 726.71 893.33, 726.44 894.0, 726.18 894.67, 725.93 895.33, 725.68 896.0, 725.44 896.67, 725.2 897.33, 724.96 898.0, 724.74 898.67, 724.51 899.33, 724.29 900.0, 724.08 900.67, 723.87 901.33, 723.67 902.0, 723.47 902.67, 723.28 903.33, 723.1 904.0, 722.92 904.67, 722.74 905.33, 722.57 906.0, 722.4 906.67, 722.24 907.33, 722.09 908.0, 721.94 908.67, 721.8 909.33, 721.66 910.0, 721.53 910.67, 721.4 911.33, 721.28 912.0, 721.16 912.67, 721.05 913.33, 720.95 914.0, 720.85 914.67, 720.75 915.33, 720.67 916.0, 720.58 916.67, 720.51 917.33, 720.43 918.0, 720.37 918.67, 720.31 919.33, 720.25 920.0, 720.2 920.67, 720.16 921.33, 720.12 922.0, 720.08 922.67, 720.06 923.33, 720.03 924.0, 720.02 924.67, 720.01 925.33, 720.0 926.0, 720.0 926.67, 720.01 927.33, 720.02 928.0, 720.03 928.67, 720.06 929.33, 720.08 930.0, 720.12 930.67, 720.16 931.33, 720.2 932.0, 720.25 932.67, 720.31 933.33, 720.37 934.0, 720.43 934.67, 720.51 935.33, 720.58 936.0, 720.67 936.67, 720.76 937.33, 720.85 938.0, 720.95 938.67, 721.05 939.33, 721.17 940.0, 721.28 940.67, 721.4 941.33, 721.53 942.0, 721.66 942.67, 721.8 943.33, 721.94 944.0, 722.09 944.67, 722.25 945.33, 722.41 946.0, 722.57 946.67, 722.74 947.33, 722.92 948.0, 723.1 948.67, 723.28 949.33, 723.48 950.0, 723.67 950.67, 723.88 951.33, 724.08 952.0, 724.3 952.67, 724.51 953.33, 724.74 954.0, 724.97 954.67, 725.2 955.33, 725.44 956.0, 725.68 956.67, 725.93 957.33, 726.19 958.0, 726.45 958.67, 726.71 959.33, 726.98 960.0, 727.26 960.67, 727.54 961.33, 727.82 962.0, 728.11 962.67, 728.41 963.33, 728.71 964.0, 729.01 964.67, 729.32 965.33, 729.64 966.0, 729.96 966.67, 730.28 967.33, 730.61 968.0, 730.94 968.67, 731.28 969.33, 731.63 970.0, 731.97 970.67, 732.33 971.33, 732.69 972.0, 733.05 972.67, 733.42 973.33, 733.79 974.0, 734.16 974.67, 734.54 975.33, 734.93 976.0, 735.32 976.67, 735.72 977.33, 736.11 978.0, 736.52 978.67, 736.93 979.33, 737.34 980.0, 737.75 980.67, 738.18 981.33, 738.6 982.0, 739.03 982.67, 739.46 983.33, 739.9 984.0, 740.34 984.67, 740.79 985.33, 741.24 986.0, 741.69 986.67, 742.15 987.33, 742.62 988.0, 743.08 988.67, 743.55 989.33, 744.03 990.0, 744.51 990.67, 744.99 991.33, 745.47 992.0, 745.96 992.67, 746.46 993.33, 746.95 994.0, 747.46 994.67, 747.96 995.33, 748.47 996.0, 748.98 996.67, 749.49 997.33, 750.01 998.0, 750.54 998.67, 751.06 999.33, 751.59 1000.0, 752.12 1000.67, 752.66 1001.33, 753.2 1002.0, 753.74 1002.67, 754.29 1003.33, 754.83 1004.0, 755.39 1004.67, 755.94 1005.33, 756.5 1006.0, 757.06 1006.67, 757.62 1007.33, 758.19 1008.0, 758.76 1008.67, 759.33 1009.33, 759.91 1010.0, 760.49 1010.67, 761.07 1011.33, 761.65 1012.0, 762.24 1012.67, 762.83 1013.33, 763.42 1014.0, 764.01 1014.67, 764.61 1015.33, 765.21 1016.0, 765.81 1016.67, 766.42 1017.33, 767.02 1018.0, 767.63 1018.67, 768.24 1019.33, 768.85 1020.0, 769.47 1020.67, 770.09 1021.33, 770.71 1022.0, 771.33 1022.67, 771.95 1023.33, 772.58 1024.0, 773.2 1024.67, 773.83 1025.33, 774.46 1026.0, 775.1 1026.67, 775.73 1027.33, 776.37 1028.0, 777.01 1028.67, 777.65 1029.33, 778.29 1030.0, 778.93 1030.67, 779.57 1031.33, 780.22 1032.0, 780.87 1032.67, 781.51 1033.33, 782.16 1034.0, 782.81 1034.67, 783.47 1035.33, 784.12 1036.0, 784.77 1036.67, 785.43 1037.33, 786.08 1038.0, 786.74 1038.67, 787.4 1039.33, 788.06 1040.0, 788.72 1040.67, 789.38 1041.33, 790.04 1042.0, 790.7 1042.67, 791.37 1043.33, 792.03 1044.0, 792.69 1044.67, 793.36 1045.33, 794.02 1046.0, 794.69 1046.67, 795.35 1047.33, 796.02 1048.0, 796.69 1048.67, 797.35 1049.33, 798.02 1050.0, 798.69 1050.67, 799.35 1051.33, 800.02 1052.0, 800.69 1052.67, 801.36 1053.33, 802.02 1054.0, 802.69 1054.67, 803.36 1055.33, 804.02 1056.0, 804.69 1056.67, 805.36 1057.33, 806.02 1058.0, 806.69 1058.67, 807.35 1059.33, 808.02 1060.0, 808.68 1060.67, 809.34 1061.33, 810.01 1062.0, 810.67 1062.67, 811.33 1063.33, 811.99 1064.0, 812.65 1064.67, 813.31 1065.33, 813.97 1066.0, 814.62 1066.67, 815.28 1067.33, 815.93 1068.0, 816.59 1068.67, 817.24 1069.33, 817.89 1070.0, 818.54 1070.67, 819.19 1071.33, 819.84 1072.0, 820.49 1072.67, 821.13 1073.33, 821.78 1074.0, 822.42 1074.67, 823.06 1075.33, 823.7 1076.0, 824.34 1076.67, 824.97 1077.33, 825.61 1078.0, 826.24 1078.67, 826.87 1079.33, 827.5 1080.0, 828.13 1080.67, 828.75 1081.33, 829.37 1082.0, 830.0 1082.67, 830.62 1083.33, 831.23 1084.0, 831.85 1084.67, 832.46 1085.33, 833.07 1086.0, 833.68 1086.67, 834.29 1087.33, 834.89 1088.0, 835.49 1088.67, 836.09 1089.33, 836.69 1090.0, 837.28 1090.67, 837.88 1091.33, 838.46 1092.0, 839.05 1092.67, 839.64 1093.33, 840.22 1094.0, 840.8 1094.67, 841.37 1095.33, 841.95 1096.0, 842.52 1096.67, 843.08 1097.33, 843.65 1098.0, 844.21 1098.67, 844.77 1099.33, 845.33 1100.0, 845.88 1100.67, 846.43 1101.33, 846.97 1102.0, 847.52 1102.67, 848.06 1103.33, 848.6 1104.0, 849.13 1104.67, 849.66 1105.33, 850.19 1106.0, 850.71 1106.67, 851.23 1107.33, 851.75 1108.0, 852.26 1108.67, 852.77 1109.33, 853.28 1110.0, 853.78 1110.67, 854.28 1111.33, 854.78 1112.0, 855.27 1112.67, 855.76 1113.33, 856.25 1114.0, 856.73 1114.67, 857.21 1115.33, 857.68 1116.0, 858.15 1116.67, 858.62 1117.33, 859.08 1118.0, 859.54 1118.67, 859.99 1119.33, 860.44 1120.0, 860.89 1120.67, 861.33 1121.33, 861.77 1122.0, 862.21 1122.67, 862.64 1123.33, 863.07 1124.0, 863.49 1124.67, 863.91 1125.33, 864.32 1126.0, 864.73 1126.67, 865.14 1127.33, 865.54 1128.0, 865.94 1128.67, 866.33 1129.33, 866.72 1130.0, 867.1 1130.67, 867.48 1131.33, 867.86 1132.0, 868.23 1132.67, 868.6 1133.33, 868.96 1134.0, 869.32 1134.67, 869.68 1135.33, 870.02 1136.0, 870.37 1136.67, 870.71 1137.33, 871.05 1138.0, 871.38 1138.67, 871.71 1139.33, 872.03 1140.0, 872.35 1140.67, 872.66 1141.33, 872.97 1142.0, 873.27 1142.67, 873.57 1143.33, 873.87 1144.0, 874.16 1144.67, 874.45 1145.33, 874.73 1146.0, 875.0 1146.67, 875.28 1147.33, 875.54 1148.0, 875.81 1148.67, 876.07 1149.33, 876.32 1150.0, 876.57 1150.67, 876.81 1151.33, 877.05 1152.0, 877.29 1152.67, 877.52 1153.33, 877.74 1154.0, 877.96 1154.67, 878.18 1155.33, 878.39 1156.0, 878.6 1156.67, 878.8 1157.33, 879.0 1158.0, 879.19 1158.67, 879.38 1159.33, 879.56 1160.0, 879.74 1160.67, 879.91 1161.33, 880.08 1162.0, 880.25 1162.67, 880.41 1163.33, 880.56 1164.0, 880.71 1164.67, 880.86 1165.33, 881.0 1166.0, 881.14 1166.67, 881.27 1167.33, 881.4 1168.0, 881.52 1168.67, 881.64 1169.33, 881.75 1170.0, 881.86 1170.67, 881.97 1171.33, 882.07 1172.0, 882.16 1172.67, 882.25 1173.33, 882.34 1174.0, 882.42 1174.67, 882.5 1175.33, 882.58 1176.0, 882.64 1176.67, 882.71 1177.33, 882.77 1178.0, 882.83 1178.67, 882.88 1179.33, 882.93 1180.0, 882.97 1180.67, 883.01 1181.33, 883.04 1182.0, 883.08 1182.67, 883.1 1183.33, 883.12 1184.0, 883.14 1184.67, 883.16 1185.33, 883.17 1186.0, 883.17 1186.67, 883.18 1187.33, 883.18 1188.0, 883.17 1188.67, 883.16 1189.33, 883.15 1190.0, 883.13 1190.67, 883.11 1191.33, 883.09 1192.0, 883.06 1192.67, 883.03 1193.33, 882.99 1194.0, 882.95 1194.67, 882.91 1195.33, 882.87 1196.0, 882.82 1196.67, 882.77 1197.33, 882.71 1198.0, 882.65 1198.67, 882.59 1199.33, 882.52 1200.0, 882.46 1200.67, 882.38 1201.33, 882.31 1202.0, 882.23 1202.67, 882.15 1203.33, 882.07 1204.0, 881.98 1204.67, 881.89 1205.33, 881.8 1206.0, 881.71 1206.67, 881.61 1207.33, 881.51 1208.0, 881.41 1208.67, 881.31 1209.33, 881.2 1210.0, 881.09 1210.67, 880.98 1211.33, 880.87 1212.0, 880.76 1212.67, 880.64 1213.33, 880.52 1214.0, 880.4 1214.67, 880.28 1215.33, 880.15 1216.0, 880.03 1216.67, 879.9 1217.33, 879.77 1218.0, 879.64 1218.67, 879.51 1219.33, 879.38 1220.0, 879.24 1220.67, 879.11 1221.33, 878.97 1222.0, 878.84 1222.67, 878.7 1223.33, 878.56 1224.0, 878.42 1224.67, 878.28 1225.33, 878.14 1226.0, 878.0 1226.67, 877.86 1227.33, 877.72 1228.0, 877.58 1228.67, 877.44 1229.33, 877.3 1230.0, 877.16 1230.67, 877.02 1231.33, 876.88 1232.0, 876.74 1232.67, 876.6 1233.33, 876.47 1234.0, 876.33 1234.67, 876.19 1235.33, 876.06 1236.0, 875.93 1236.67, 875.79 1237.33, 875.66 1238.0, 875.53 1238.67, 875.41 1239.33, 875.28 1240.0, 875.16 1240.67, 875.04 1241.33, 874.92 1242.0, 874.8 1242.67, 874.68 1243.33, 874.57 1244.0, 874.46 1244.67, 874.35 1245.33, 874.25 1246.0, 874.15 1246.67, 874.05 1247.33, 873.96 1248.0, 873.86 1248.67, 873.78 1249.33, 873.69 1250.0, 873.61 1250.67, 873.54 1251.33, 873.47 1252.0, 873.4 1252.67, 873.34 1253.33, 873.28 1254.0, 873.22 1254.67, 873.18 1255.33, 873.13 1256.0, 873.09 1256.67, 873.06 1257.33, 873.03 1258.0, 873.01 1258.67, 873.0 1259.33, 872.99 1260.0, 872.99 1260.67, 872.99 1261.33, 873.0 1262.0, 873.02 1262.67, 873.04 1263.33, 873.07 1264.0, 873.11 1264.67, 873.15 1265.33, 873.21 1266.0, 873.27 1266.67, 873.34 1267.33, 873.42 1268.0, 873.5 1268.67, 873.6 1269.33, 873.7 1270.0, 873.81 1270.67, 873.93 1271.33, 874.07 1272.0, 874.21 1272.67, 874.36 1273.33, 874.52 1274.0, 874.69 1274.67, 874.87 1275.33, 875.06 1276.0, 875.27 1276.67, 875.48 1277.33, 875.71 1278.0, 875.94 1278.67, 876.19 1279.33, 876.46 1280.0, 876.73 1280.67, 877.02 1281.33, 877.31 1282.0, 877.63 1282.67, 877.95 1283.33, 878.29 1284.0, 878.64 1284.67, 879.01 1285.33, 879.39 1286.0, 879.79 1286.67, 880.2 1287.33, 880.62 1288.0, 881.06 1288.67, 881.52 1289.33, 881.99 1290.0, 882.48 1290.67, 882.98 1291.33, 883.5 1292.0, 884.04 1292.67, 884.59 1293.33, 885.17 1294.0, 885.76 1294.67, 886.37 1295.33, 886.99 1296.0, 887.64 1296.67, 888.3 1297.33, 888.99 1298.0, 889.69 1298.67, 890.41 1299.33, 891.15 1300.0, 891.92 1300.67, 892.7 1301.33, 893.51 1302.0, 894.33 1302.67, 895.18 1303.33, 896.05 1304.0, 896.95 1304.67, 897.86 1305.33, 898.8 1306.0, 899.76 1306.67, 900.75 1307.33, 901.76 1308.0, 902.8 1308.67, 903.86 1309.33, 904.94 1310.0, 906.05 1310.67, 907.19 1311.33, 908.35 1312.0, 909.54 1312.67, 910.76 1313.33, 912.0 1314.0, 913.27 1314.67, 914.57 1315.33, 915.9 1316.0, 917.25 1316.67, 918.64 1317.33, 920.06 1318.0, 921.5 1318.67, 922.98 1319.33, 924.49 1320.0, 926.03 1320.67, 927.6 1321.33, 929.2 1322.0, 930.84 1322.67, 932.51 1323.33, 934.21 1324.0, 935.94 1324.67, 937.71 1325.33, 939.52 1326.0, 941.36 1326.67, 943.24 1327.33, 945.15 1328.0, 947.1 1328.67, 949.08 1329.33, 951.11 1330.0, 953.17 1330.67, 955.27 1331.33, 957.41 1332.0, 959.59 1332.67, 961.81 1333.33, 964.07 1334.0, 966.37 1334.67, 968.71 1335.33, 971.09 1336.0, 973.52 1336.67, 975.99 1337.33, 978.5 1338.0, 981.06 1338.67, 983.66 1339.33, 986.31 1340.0, 989.0 1340.67, 991.74 1341.33, 994.52 1342.0, 997.35 1342.67, 1000.23 1343.33, 1003.16 1344.0, 1006.14 1344.67, 1009.17 1345.33, 1012.25 1346.0, 1015.37 1346.67, 1018.55 1347.33, 1021.78 1348.0, 1025.07 1348.67, 1028.41 1349.33, 1031.8 1350.0, 1035.24 1350.67, 1038.74 1351.33, 1042.3 1352.0, 1045.91 1352.67, 1049.58 1353.33, 1053.31 1354.0, 1057.09 1354.67, 1060.93 1355.33, 1064.84 1356.0, 1068.8 1356.67, 1072.82 1357.33, 1076.91 1358.0, 1081.06 1358.67, 1085.27 1359.33, 1089.54 1360.0, 1093.88 1360.67, 1098.28 1361.33, 1102.75 1362.0, 1107.29 1362.67, 1111.89 1363.33, 1116.56 1364.0, 1121.3 1364.67, 1126.1 1365.33, 1130.98 1366.0, 1135.93 1366.67, 1140.95 1367.33, 1146.04 1368.0, 1151.21 1368.67, 1156.45 1369.33, 1161.76 1370.0, 1167.15 1370.67, 1172.62 1371.33, 1178.16 1372.0, 1183.78 1372.67, 1189.48 1373.33, 1195.26 1374.0, 1201.11 1374.67, 1207.05 1375.33, 1213.08 1376.0, 1219.18 1376.67, 1225.37 1377.33, 1231.64 1378.0, 1238.0 1378.67, 1244.44 1379.33, 1250.97 1380.0, 1257.59 1380.67, 1264.3 1381.33, 1271.1 1382.0, 1277.99 1382.67, 1284.97 1383.33, 1292.04 1384.0, 1299.21 1384.67, 1306.47 1385.33, 1313.82 1386.0, 1321.28 1386.67, 1328.83 1387.33, 1336.48 1388.0, 1344.22 1388.67, 1352.07 1389.33, 1360.02 1390.0, 1368.07 1390.67, 1376.22 1391.33, 1384.48 1392.0, 1392.85 1392.67, 1401.32 1393.33, 1409.89 1394.0, 1418.58 1394.67, 1427.37 1395.33, 1436.28 1396.0, 1445.3 1396.67, 1454.42 1397.33, 1463.67 1398.0, 1473.03 1398.67, 1482.5 1399.33, 1492.09 1400.0, 1501.8 1400.67, 1511.63 1401.33, 1521.58 1402.0, 1531.64 1402.67, 1541.84 1403.33, 1552.15 1404.0, 1562.59 1404.67, 1573.16 1405.33, 1583.86 1406.0, 1594.68 1406.67, 1605.63 1407.33, 1616.72 1408.0, 1627.93 1408.67, 1639.28 1409.33, 1650.76 1410.0, 1662.38 1410.67, 1674.14 1411.33, 1686.03 1412.0, 1698.07 1412.67, 1710.24 1413.33, 1722.56 1414.0, 1735.02 1414.67, 1747.63 1415.33, 1760.38 1416.0, 1773.28 1416.67, 1786.33 1417.33, 1799.52 1418.0, 1812.87 1418.67, 1826.37 1419.33, 1840.03 1420.0, 1853.84 1420.67, 1867.81 1421.33, 1881.94 1422.0, 1896.22 1422.67, 1910.67 1423.33, 1925.28 1424.0, 1940.05 1424.67, 1954.99 1425.33, 1970.1 1426.0, 1985.37 1426.67, 2000.82 1427.33, 2016.43 1428.0, 2032.22 1428.67, 2048.18 1429.33, 2064.32 1430.0, 2080.64 1430.67, 2097.13 1431.33, 2113.8 1432.0, 2130.66 1432.67, 2147.7 1433.33, 2164.93 1434.0, 2182.34 1434.67, 2199.94 1435.33, 2217.73 1436.0, 2235.71 1436.67, 2253.88 1437.33, 2272.25 1438.0, 2290.81 1438.67, 2309.57 1439.33, 2328.54 1440.0, 2347.7 1440.67, 2367.07 1441.33, 2386.64 1442.0, 2406.41 1442.67, 2426.4 1443.33, 2446.59 1444.0, 2467.0 1444.67, 2487.62 1445.33, 2508.45 1446.0, 2529.5 1446.67, 2550.77 1447.33, 2572.26 1448.0, 2593.97 1448.67, 2615.91 1449.33, 2638.07 1450.0, 2660.46 1450.67, 2683.08 1451.33, 2705.93 1452.0, 2729.01 1452.67, 2752.32 1453.33, 2775.88 1454.0, 2799.67 1454.67, 2823.7 1455.33, 2847.98 1456.0, 2872.5 1456.67, 2897.26 1457.33, 2922.27 1458.0, 2947.54 1458.67, 2973.05 1459.33, 2998.82 1460.0, 3024.85 1460.67, 3051.13 1461.33, 3077.68 1462.0, 3104.48 1462.67, 3131.55 1463.33, 3158.89 1464.0, 3186.49 1464.67, 3214.36 1465.33, 3242.51 1466.0, 3270.93 1466.67, 3299.63 1467.33, 3328.6 1468.0, 3357.86 1468.67, 3387.39 1469.33, 3417.22 1470.0, 3447.33 1470.67, 3477.73 1471.33, 3508.41 1472.0, 3539.4 1472.67, 3570.68 1473.33, 3602.25 1474.0, 3634.13 1474.67, 3666.31 1475.33, 3698.79 1476.0, 3731.58 1476.67, 3764.67 1477.33, 3798.08 1478.0, 3831.8 1478.67, 3865.84 1479.33, 3900.2 1480.0, 3934.87 1480.67, 3969.87 1481.33, 4005.19 1482.0, 4040.84 1482.67, 4076.82 1483.33, 4113.13 1484.0, 4149.77 1484.67, 4186.75 1485.33, 4224.07 1486.0, 4261.73 1486.67, 4299.73 1487.33, 4338.08 1488.0, 4376.77 1488.67, 4415.82 1489.33, 4455.22 1490.0, 4494.97 1490.67, 4535.09 1491.33, 4575.56 1492.0, 4616.39 1492.67, 4657.59 1493.33, 4699.16 1494.0, 4741.1 1494.67, 4783.41 1495.33, 4826.1 1496.0, 4869.16 1496.67, 4912.6 1497.33, 4956.43 1498.0, 5000.64 1498.67, 5045.24 1499.33, 5090.23 1500.0, 5135.61 1500.67, 5181.38 1501.33, 5227.56 1502.0, 5274.13 1502.67, 5321.11 1503.33, 5368.49 1504.0, 5416.28 1504.67, 5464.49 1505.33, 5513.1 1506.0, 5562.13 1506.67, 5611.58 1507.33, 5661.45 1508.0, 5711.75 1508.67, 5762.47 1509.33, 5813.62 1510.0, 5865.2 1510.67, 5917.22 1511.33, 5969.67 1512.0, 6022.56 1512.67, 6075.9 1513.33, 6129.68 1514.0, 6183.9 1514.67, 6238.58 1515.33, 6293.71 1516.0, 6349.3 1516.67, 6405.35 1517.33, 6461.85 1518.0, 6518.82 1518.67, 6576.26 1519.33, 6634.17 1520.0, 6692.55 1520.67, 6751.4 1521.33, 6810.73 1522.0, 6870.54 1522.67, 6930.84 1523.33, 6991.62 1524.0, 7052.89 1524.67, 7114.65 1525.33, 7176.9 1526.0, 7239.65 1526.67, 7302.9 1527.33, 7366.65 1528.0, 7430.91 1528.67, 7495.67 1529.33, 7560.95 1530.0, 7626.74 1530.67, 7693.04 1531.33, 7759.87 1532.0, 7827.21 1532.67, 7895.08 1533.33, 7963.48 1534.0, 8032.4 1534.67, 8101.86 1535.33, 8171.86 1536.0, 8242.39 1536.67, 8313.46 1537.33, 8385.08 1538.0, 8457.24 1538.67, 8529.95 1539.33, 8603.22 1540.0, 8677.04 1540.67, 8751.41 1541.33, 8826.35 1542.0, 8901.85 1542.67, 8977.91 1543.33, 9054.54 1544.0, 9131.74 1544.67, 9209.52 1545.33, 9287.87 1546.0, 9366.81 1546.67, 9446.32 1547.33, 9526.42 1548.0, 9607.1 1548.67, 9688.38 1549.33, 9770.24 1550.0, 9852.71 1550.67, 9935.77 1551.33, 10019.43 1552.0, 10103.69 1552.67, 10188.56 1553.33, 10274.04 1554.0, 10360.13 1554.67, 10446.83 1555.33, 10534.14 1556.0, 10622.08 1556.67, 10710.64 1557.33, 10799.82 1558.0, 10889.63 1558.67, 10980.06 1559.33, 11071.13 1560.0, 11162.83 1560.67, 11255.17 1561.33, 11348.14 1562.0, 11441.76 1562.67, 11536.02 1563.33, 11630.93 1564.0, 11726.48 1564.67, 11822.69 1565.33, 11919.55 1566.0, 12017.06 1566.67, 12115.24 1567.33, 12214.07 1568.0, 12313.57 1568.67, 12413.73 1569.33, 12514.55 1570.0, 12616.05 1570.67, 12718.22 1571.33, 12821.06 1572.0, 12924.57 1572.67, 13028.77 1573.33, 13133.65 1574.0, 13239.2 1574.67, 13345.44 1575.33, 13452.37 1576.0, 13559.99 1576.67, 13668.3 1577.33, 13777.3 1578.0, 13886.99 1578.67, 13997.38 1579.33, 14108.47 1580.0, 14220.25 1580.67, 14332.74 1581.33, 14445.94 1582.0, 14559.83 1582.67, 14674.44 1583.33, 14789.75 1584.0, 14905.78 1584.67, 15022.51 1585.33, 15139.96 1586.0, 15258.13 1586.67, 15377.01 1587.33, 15496.61 1588.0, 15616.93 1588.67, 15737.97 1589.33, 15859.73 1590.0, 15982.22 1590.67, 16105.43 1591.33, 16229.37 1592.0, 16354.04 1592.67, 16479.43 1593.33, 16605.56 1594.0, 16732.41 1594.67, 16860.0 1595.33, 16988.32 1596.0, 17117.37 1596.67, 17247.16 1597.33, 17377.69 1598.0, 17508.95 1598.67, 17640.94 1599.33, 17773.68 1600.0, 17907.15 " fill="none" stroke="white" stroke-width="1.5" stroke-linejoin="round" stroke-opacity="1"/>

 </svg>