<svg version="1.1" 
 baseProfile="full" 
 width="1600" 
 height="1600" 
 xmlns="http://www.w3.org/2000/svg">
<rect x="0.0" y="0.0" width="1600" height="1600" fill="black" stroke="black" stroke-width="0" opacity="1"/>
<line x1="0.0" y1="0.0" x2="0.0" y2="1600.0" stroke="white" stroke-width="1" opacity="0.4" stroke-linecap="butt"/>
<line x1="160.0" y1="0.0" x2="160.0" y2="1600.0" stroke="white" stroke-width="1" opacity="0.4" stroke-linecap="butt"/>
<line x1="320.0" y1="0.0" x2="320.0" y2="1600.0" stroke="white" stroke-width="1" opacity="0.4" stroke-linecap="butt"/>
<line x1="480.0" y1="0.0" x2="480.0" y2="1600.0" stroke="white" stroke-width="1" opacity="0.4" stroke-linecap="butt"/>
<line x1="640.0" y1="0.0" x2="640.0" y2="1600.0" stroke="white" stroke-width="1" opacity="0.4" stroke-linecap="butt"/>
<line x1="800.0" y1="0.0" x2="800.0" y2="1600.0" stroke="white" stroke-width="1" opacity="0.4" stroke-linecap="butt"/>
<line x1="960.0" y1="0.0" x2="960.0" y2="1600.0" stroke="white" stroke-width="1" opacity="0.4" stroke-linecap="butt"/>
<line x1="1120.0" y1="0.0" x2="1120.0" y2="1600.0" stroke="white" stroke-width="1" opacity="0.4" stroke-linecap="butt"/>
<line x1="1280.0" y1="0.0" x2="1280.0" y2="1600.0" stroke="white" stroke-width="1" opacity="0.4" stroke-linecap="butt"/>
<line x1="1440.0" y1="0.0" x2="1440.0" y2="1600.0" stroke="white" stroke-width="1" opacity="0.4" stroke-linecap="butt"/>
<line x1="0.0" y1="0.0" x2="1600.0" y2="0.0" stroke="white" stroke-width="1" opacity="0.4" stroke-linecap="butt"/>
<line x1="0.0" y1="160.0" x2="1600.0" y2="160.0" stroke="white" stroke-width="1" opacity="0.4" stroke-linecap="butt"/>
<line x1="0.0" y1="320.0" x2="1600.0" y2="320.0" stroke="white" stroke-width="1" opacity="0.4" stroke-linecap="butt"/>
<line x1="0.0" y1="480.0" x2="1600.0" y2="480.0" stroke="white" stroke-width="1" opacity="0.4" stroke-linecap="butt"/>
<line x1="0.0" y1="640.0" x2="1600.0" y2="640.0" stroke="white" stroke-width="1" opacity="0.4" stroke-linecap="butt"/>
<line x1="0.0" y1="800.0" x2="1600.0" y2="800.0" stroke="white" stroke-width="1" opacity="0.4" stroke-linecap="butt"/>
<line x1="0.0" y1="960.0" x2="1600.0" y2="960.0" stroke="white" stroke-width="1" opacity="0.4" stroke-linecap="butt"/>
<line x1="0.0" y1="1120.0" x2="1600.0" y2="1120.0" stroke="white" stroke-width="1" opacity="0.4" stroke-linecap="butt"/>
<line x1="0.0" y1="1280.0" x2="1600.0" y2="1280.0" stroke="white" stroke-width="1" opacity="0.4" stroke-linecap="butt"/>
<line x1="0.0" y1="1440.0" x2="1600.0" y2="1440.0" stroke="white" stroke-width="1" opacity="0.4" stroke-linecap="butt"/>
<line x1="0.0" y1="800.0" x2="1600.0" y2="800.0" stroke="yellow" stroke-width="2.5" opacity="1" stroke-linecap="butt"/>
<line x1="800.0" y1="0.0" x2="800.0" y2="1600.0" stroke="yellow" stroke-width="2.5" opacity="1" stroke-linecap="butt"/>
<polygon points="1564.0 816.0, 1604.0 800.0, 1564.0 784.0, 1572.0 800.0" fill="yellow"/><polygon points="816.0 36.0, 800.0 -4.0, 784.0 36.0, 800.0 28.0" fill="yellow"/><polyline points="0.0, -17913.06 0.67, -17762.27 1.33, -17612.4 2.0, -17463.43 2.67, -17315.38 3.33, -17168.22 4.0, -17021.97 4.67, -16876.61 5.33, -16732.16 6.0, -16588.6 6.67, -16445.93 7.33, -16304.14 8.0, -16163.25 8.67, -16023.24 9.33, -15884.12 10.0, -15745.87 10.67, -15608.5 11.33, -15472.0 12.0, -15336.37 12.67, -15201.61 13.33, -15067.72 14.0, -14934.69 14.67, -14802.52 15.33, -14671.21 16.0, -14540.75 16.67, -14411.15 17.33, -14282.39 18.0, -14154.48 18.67, -14027.4 19.33, -13901.17 20.0, -13775.78 20.67, -13651.22 21.33, -13527.49 22.0, -13404.58 22.67, -13282.51 23.33, -13161.25 24.0, -13040.81 24.67, -12921.18 25.33, -12802.37 26.0, -12684.36 26.67, -12567.16 27.33, -12450.76 28.0, -12335.16 28.67, -12220.36 29.33, -12106.35 30.0, -11993.13 30.67, -11880.69 31.33, -11769.04 32.0, -11658.16 32.67, -11548.06 33.33, -11438.73 34.0, -11330.18 34.67, -11222.38 35.33, -11115.35 36.0, -11009.08 36.67, -10903.57 37.33, -10798.81 38.0, -10694.79 38.67, -10591.52 39.33, -10489.0 40.0, -10387.21 40.67, -10286.16 41.33, -10185.84 42.0, -10086.24 42.67, -9987.38 43.33, -9889.23 44.0, -9791.8 44.67, -9695.09 45.33, -9599.09 46.0, -9503.79 46.67, -9409.2 47.33, -9315.31 48.0, -9222.12 48.67, -9129.62 49.33, -9037.81 50.0, -8946.69 50.67, -8856.25 51.33, -8766.49 52.0, -8677.4 52.67, -8588.99 53.33, -8501.25 54.0, -8414.18 54.67, -8327.77 55.33, -8242.01 56.0, -8156.91 56.67, -8072.47 57.33, -7988.67 58.0, -7905.52 58.67, -7823.01 59.33, -7741.13 60.0, -7659.89 60.67, -7579.29 61.33, -7499.31 62.0, -7419.95 62.67, -7341.21 63.33, -7263.1 64.0, -7185.59 64.67, -7108.7 65.33, -7032.41 66.0, -6956.73 66.67, -6881.64 67.33, -6807.16 68.0, -6733.26 68.67, -6659.96 69.33, -6587.24 70.0, -6515.11 70.67, -6443.55 71.33, -6372.57 72.0, -6302.17 72.67, -6232.33 73.33, -6163.06 74.0, -6094.35 74.67, -6026.2 75.33, -5958.61 76.0, -5891.57 76.67, -5825.08 77.33, -5759.13 78.0, -5693.73 78.67, -5628.87 79.33, -5564.54 80.0, -5500.75 80.67, -5437.48 81.33, -5374.74 82.0, -5312.53 82.67, -5250.83 83.33, -5189.65 84.0, -5128.98 84.67, -5068.82 85.33, -5009.17 86.0, -4950.03 86.67, -4891.38 87.33, -4833.23 88.0, -4775.57 88.67, -4718.41 89.33, -4661.73 90.0, -4605.54 90.67, -4549.82 91.33, -4494.59 92.0, -4439.83 92.67, -4385.54 93.33, -4331.72 94.0, -4278.37 94.67, -4225.48 95.33, -4173.05 96.0, -4121.07 96.67, -4069.55 97.33, -4018.48 98.0, -3967.85 98.67, -3917.67 99.33, -3867.93 100.0, -3818.63 100.67, -3769.77 101.33, -3721.33 102.0, -3673.33 102.67, -3625.75 103.33, -3578.6 104.0, -3531.87 104.67, -3485.55 105.33, -3439.65 106.0, -3394.16 106.67, -3349.08 107.33, -3304.41 108.0, -3260.13 108.67, -3216.26 109.33, -3172.79 110.0, -3129.71 110.67, -3087.03 111.33, -3044.73 112.0, -3002.82 112.67, -2961.29 113.33, -2920.15 114.0, -2879.38 114.67, -2838.98 115.33, -2798.96 116.0, -2759.31 116.67, -2720.03 117.33, -2681.11 118.0, -2642.56 118.67, -2604.36 119.33, -2566.52 120.0, -2529.03 120.67, -2491.9 121.33, -2455.11 122.0, -2418.67 122.67, -2382.58 123.33, -2346.82 124.0, -2311.4 124.67, -2276.32 125.33, -2241.58 126.0, -2207.16 126.67, -2173.07 127.33, -2139.31 128.0, -2105.87 128.67, -2072.76 129.33, -2039.96 130.0, -2007.47 130.67, -1975.31 131.33, -1943.45 132.0, -1911.9 132.67, -1880.66 133.33, -1849.72 134.0, -1819.08 134.67, -1788.75 135.33, -1758.71 136.0, -1728.96 136.67, -1699.51 137.33, -1670.35 138.0, -1641.48 138.67, -1612.89 139.33, -1584.58 140.0, -1556.56 140.67, -1528.81 141.33, -1501.35 142.0, -1474.15 142.67, -1447.23 143.33, -1420.58 144.0, -1394.2 144.67, -1368.08 145.33, -1342.23 146.0, -1316.64 146.67, -1291.3 147.33, -1266.23 148.0, -1241.41 148.67, -1216.84 149.33, -1192.53 150.0, -1168.46 150.67, -1144.64 151.33, -1121.06 152.0, -1097.73 152.67, -1074.64 153.33, -1051.79 154.0, -1029.18 154.67, -1006.8 155.33, -984.65 156.0, -962.73 156.67, -941.05 157.33, -919.59 158.0, -898.35 158.67, -877.34 159.33, -856.55 160.0, -835.99 160.67, -815.63 161.33, -795.5 162.0, -775.58 162.67, -755.87 163.33, -736.37 164.0, -717.08 164.67, -698.0 165.33, -679.12 166.0, -660.45 166.67, -641.97 167.33, -623.7 168.0, -605.63 168.67, -587.75 169.33, -570.07 170.0, -552.58 170.67, -535.28 171.33, -518.17 172.0, -501.25 172.67, -484.51 173.33, -467.96 174.0, -451.6 174.67, -435.41 175.33, -419.41 176.0, -403.58 176.67, -387.93 177.33, -372.45 178.0, -357.15 178.67, -342.02 179.33, -327.06 180.0, -312.27 180.67, -297.65 181.33, -283.19 182.0, -268.9 182.67, -254.77 183.33, -240.8 184.0, -226.99 184.67, -213.34 185.33, -199.85 186.0, -186.51 186.67, -173.33 187.33, -160.3 188.0, -147.42 188.67, -134.69 189.33, -122.11 190.0, -109.68 190.67, -97.39 191.33, -85.25 192.0, -73.25 192.67, -61.39 193.33, -49.68 194.0, -38.1 194.67, -26.66 195.33, -15.36 196.0, -4.19 196.67, 6.85 197.33, 17.75 198.0, 28.52 198.67, 39.16 199.33, 49.67 200.0, 60.05 200.67, 70.31 201.33, 80.44 202.0, 90.44 202.67, 100.33 203.33, 110.09 204.0, 119.73 204.67, 129.25 205.33, 138.66 206.0, 147.94 206.67, 157.11 207.33, 166.17 208.0, 175.11 208.67, 183.94 209.33, 192.66 210.0, 201.27 210.67, 209.76 211.33, 218.15 212.0, 226.44 212.67, 234.61 213.33, 242.69 214.0, 250.65 214.67, 258.52 215.33, 266.28 216.0, 273.94 216.67, 281.51 217.33, 288.97 218.0, 296.33 218.67, 303.6 219.33, 310.78 220.0, 317.85 220.67, 324.84 221.33, 331.73 222.0, 338.53 222.67, 345.23 223.33, 351.85 224.0, 358.38 224.67, 364.82 225.33, 371.17 226.0, 377.44 226.67, 383.62 227.33, 389.71 228.0, 395.72 228.67, 401.65 229.33, 407.5 230.0, 413.26 230.67, 418.95 231.33, 424.56 232.0, 430.08 232.67, 435.53 233.33, 440.9 234.0, 446.2 234.67, 451.42 235.33, 456.56 236.0, 461.64 236.67, 466.63 237.33, 471.56 238.0, 476.42 238.67, 481.2 239.33, 485.92 240.0, 490.56 240.67, 495.14 241.33, 499.65 242.0, 504.09 242.67, 508.47 243.33, 512.78 244.0, 517.02 244.67, 521.21 245.33, 525.33 246.0, 529.38 246.67, 533.38 247.33, 537.31 248.0, 541.18 248.67, 545.0 249.33, 548.75 250.0, 552.45 250.67, 556.09 251.33, 559.67 252.0, 563.19 252.67, 566.66 253.33, 570.07 254.0, 573.43 254.67, 576.74 255.33, 579.99 256.0, 583.19 256.67, 586.33 257.33, 589.43 258.0, 592.47 258.67, 595.47 259.33, 598.41 260.0, 601.3 260.67, 604.15 261.33, 606.95 262.0, 609.7 262.67, 612.41 263.33, 615.06 264.0, 617.68 264.67, 620.24 265.33, 622.77 266.0, 625.25 266.67, 627.68 267.33, 630.07 268.0, 632.42 268.67, 634.73 269.33, 637.0 270.0, 639.22 270.67, 641.41 271.33, 643.55 272.0, 645.66 272.67, 647.73 273.33, 649.76 274.0, 651.75 274.67, 653.7 275.33, 655.62 276.0, 657.5 276.67, 659.34 277.33, 661.15 278.0, 662.92 278.67, 664.66 279.33, 666.36 280.0, 668.04 280.67, 669.67 281.33, 671.28 282.0, 672.85 282.67, 674.39 283.33, 675.9 284.0, 677.37 284.67, 678.82 285.33, 680.24 286.0, 681.62 286.67, 682.98 287.33, 684.31 288.0, 685.61 288.67, 686.88 289.33, 688.12 290.0, 689.34 290.67, 690.52 291.33, 691.69 292.0, 692.82 292.67, 693.93 293.33, 695.01 294.0, 696.07 294.67, 697.1 295.33, 698.11 296.0, 699.1 296.67, 700.06 297.33, 701.0 298.0, 701.91 298.67, 702.8 299.33, 703.67 300.0, 704.52 300.67, 705.34 301.33, 706.14 302.0, 706.93 302.67, 707.69 303.33, 708.43 304.0, 709.15 304.67, 709.85 305.33, 710.53 306.0, 711.19 306.67, 711.84 307.33, 712.46 308.0, 713.07 308.67, 713.66 309.33, 714.23 310.0, 714.78 310.67, 715.32 311.33, 715.84 312.0, 716.34 312.67, 716.82 313.33, 717.29 314.0, 717.75 314.67, 718.19 315.33, 718.61 316.0, 719.02 316.67, 719.41 317.33, 719.79 318.0, 720.16 318.67, 720.51 319.33, 720.85 320.0, 721.17 320.67, 721.48 321.33, 721.78 322.0, 722.07 322.67, 722.34 323.33, 722.6 324.0, 722.85 324.67, 723.09 325.33, 723.32 326.0, 723.53 326.67, 723.73 327.33, 723.93 328.0, 724.11 328.67, 724.28 329.33, 724.44 330.0, 724.59 330.67, 724.73 331.33, 724.87 332.0, 724.99 332.67, 725.1 333.33, 725.21 334.0, 725.3 334.67, 725.39 335.33, 725.47 336.0, 725.54 336.67, 725.6 337.33, 725.66 338.0, 725.71 338.67, 725.75 339.33, 725.78 340.0, 725.81 340.67, 725.83 341.33, 725.84 342.0, 725.85 342.67, 725.85 343.33, 725.84 344.0, 725.83 344.67, 725.81 345.33, 725.79 346.0, 725.76 346.67, 725.72 347.33, 725.69 348.0, 725.64 348.67, 725.59 349.33, 725.54 350.0, 725.48 350.67, 725.42 351.33, 725.35 352.0, 725.28 352.67, 725.21 353.33, 725.13 354.0, 725.04 354.67, 724.96 355.33, 724.87 356.0, 724.78 356.67, 724.68 357.33, 724.58 358.0, 724.48 358.67, 724.38 359.33, 724.27 360.0, 724.17 360.67, 724.06 361.33, 723.94 362.0, 723.83 362.67, 723.71 363.33, 723.59 364.0, 723.47 364.67, 723.35 365.33, 723.23 366.0, 723.1 366.67, 722.98 367.33, 722.85 368.0, 722.72 368.67, 722.6 369.33, 722.47 370.0, 722.34 370.67, 722.21 371.33, 722.08 372.0, 721.95 372.67, 721.81 373.33, 721.68 374.0, 721.55 374.67, 721.42 375.33, 721.29 376.0, 721.16 376.67, 721.03 377.33, 720.9 378.0, 720.77 378.67, 720.64 379.33, 720.51 380.0, 720.39 380.67, 720.26 381.33, 720.14 382.0, 720.01 382.67, 719.89 383.33, 719.77 384.0, 719.65 384.67, 719.53 385.33, 719.41 386.0, 719.29 386.67, 719.18 387.33, 719.07 388.0, 718.96 388.67, 718.85 389.33, 718.74 390.0, 718.64 390.67, 718.53 391.33, 718.43 392.0, 718.33 392.67, 718.24 393.33, 718.14 394.0, 718.05 394.67, 717.96 395.33, 717.88 396.0, 717.79 396.67, 717.71 397.33, 717.63 398.0, 717.56 398.67, 717.49 399.33, 717.42 400.0, 717.35 400.67, 717.28 401.33, 717.22 402.0, 717.16 402.67, 717.11 403.33, 717.06 404.0, 717.01 404.67, 716.96 405.33, 716.92 406.0, 716.88 406.67, 716.85 407.33, 716.82 408.0, 716.79 408.67, 716.77 409.33, 716.74 410.0, 716.73 410.67, 716.71 411.33, 716.7 412.0, 716.7 412.67, 716.7 413.33, 716.7 414.0, 716.7 414.67, 716.71 415.33, 716.72 416.0, 716.74 416.67, 716.76 417.33, 716.79 418.0, 716.82 418.67, 716.85 419.33, 716.89 420.0, 716.93 420.67, 716.98 421.33, 717.03 422.0, 717.08 422.67, 717.14 423.33, 717.2 424.0, 717.27 424.67, 717.34 425.33, 717.41 426.0, 717.49 426.67, 717.58 427.33, 717.67 428.0, 717.76 428.67, 717.86 429.33, 717.96 430.0, 718.07 430.67, 718.18 431.33, 718.29 432.0, 718.41 432.67, 718.54 433.33, 718.67 434.0, 718.8 434.67, 718.94 435.33, 719.08 436.0, 719.23 436.67, 719.38 437.33, 719.54 438.0, 719.7 438.67, 719.87 439.33, 720.04 440.0, 720.21 440.67, 720.39 441.33, 720.58 442.0, 720.77 442.67, 720.96 443.33, 721.16 444.0, 721.36 444.67, 721.57 445.33, 721.78 446.0, 722.0 446.67, 722.22 447.33, 722.45 448.0, 722.68 448.67, 722.91 449.33, 723.15 450.0, 723.4 450.67, 723.65 451.33, 723.9 452.0, 724.16 452.67, 724.42 453.33, 724.69 454.0, 724.97 454.67, 725.24 455.33, 725.53 456.0, 725.81 456.67, 726.1 457.33, 726.4 458.0, 726.7 458.67, 727.01 459.33, 727.32 460.0, 727.63 460.67, 727.95 461.33, 728.27 462.0, 728.6 462.67, 728.93 463.33, 729.27 464.0, 729.61 464.67, 729.96 465.33, 730.31 466.0, 730.66 466.67, 731.02 467.33, 731.38 468.0, 731.75 468.67, 732.12 469.33, 732.5 470.0, 732.88 470.67, 733.26 471.33, 733.65 472.0, 734.05 472.67, 734.45 473.33, 734.85 474.0, 735.25 474.67, 735.67 475.33, 736.08 476.0, 736.5 476.67, 736.92 477.33, 737.35 478.0, 737.78 478.67, 738.22 479.33, 738.65 480.0, 739.1 480.67, 739.54 481.33, 740.0 482.0, 740.45 482.67, 740.91 483.33, 741.37 484.0, 741.84 484.67, 742.31 485.33, 742.78 486.0, 743.26 486.67, 743.74 487.33, 744.23 488.0, 744.72 488.67, 745.21 489.33, 745.71 490.0, 746.21 490.67, 746.71 491.33, 747.22 492.0, 747.73 492.67, 748.24 493.33, 748.76 494.0, 749.28 494.67, 749.81 495.33, 750.33 496.0, 750.86 496.67, 751.4 497.33, 751.94 498.0, 752.48 498.67, 753.02 499.33, 753.57 500.0, 754.12 500.67, 754.67 501.33, 755.23 502.0, 755.79 502.67, 756.35 503.33, 756.91 504.0, 757.48 504.67, 758.05 505.33, 758.62 506.0, 759.2 506.67, 759.78 507.33, 760.36 508.0, 760.95 508.67, 761.53 509.33, 762.12 510.0, 762.71 510.67, 763.31 511.33, 763.91 512.0, 764.5 512.67, 765.11 513.33, 765.71 514.0, 766.32 514.67, 766.93 515.33, 767.54 516.0, 768.15 516.67, 768.76 517.33, 769.38 518.0, 770.0 518.67, 770.62 519.33, 771.25 520.0, 771.87 520.67, 772.5 521.33, 773.13 522.0, 773.76 522.67, 774.39 523.33, 775.03 524.0, 775.66 524.67, 776.3 525.33, 776.94 526.0, 777.58 526.67, 778.22 527.33, 778.87 528.0, 779.51 528.67, 780.16 529.33, 780.81 530.0, 781.46 530.67, 782.11 531.33, 782.76 532.0, 783.41 532.67, 784.06 533.33, 784.72 534.0, 785.38 534.67, 786.03 535.33, 786.69 536.0, 787.35 536.67, 788.01 537.33, 788.67 538.0, 789.33 538.67, 789.99 539.33, 790.66 540.0, 791.32 540.67, 791.98 541.33, 792.65 542.0, 793.31 542.67, 793.98 543.33, 794.64 544.0, 795.31 544.67, 795.98 545.33, 796.64 546.0, 797.31 546.67, 797.98 547.33, 798.64 548.0, 799.31 548.67, 799.98 549.33, 800.64 550.0, 801.31 550.67, 801.98 551.33, 802.65 552.0, 803.31 552.67, 803.98 553.33, 804.65 554.0, 805.31 554.67, 805.98 555.33, 806.64 556.0, 807.31 556.67, 807.97 557.33, 808.63 558.0, 809.3 558.67, 809.96 559.33, 810.62 560.0, 811.28 560.67, 811.94 561.33, 812.6 562.0, 813.26 562.67, 813.91 563.33, 814.57 564.0, 815.23 564.67, 815.88 565.33, 816.53 566.0, 817.19 566.67, 817.84 567.33, 818.49 568.0, 819.13 568.67, 819.78 569.33, 820.43 570.0, 821.07 570.67, 821.71 571.33, 822.35 572.0, 822.99 572.67, 823.63 573.33, 824.27 574.0, 824.9 574.67, 825.54 575.33, 826.17 576.0, 826.8 576.67, 827.42 577.33, 828.05 578.0, 828.67 578.67, 829.29 579.33, 829.91 580.0, 830.53 580.67, 831.15 581.33, 831.76 582.0, 832.37 582.67, 832.98 583.33, 833.58 584.0, 834.19 584.67, 834.79 585.33, 835.39 586.0, 835.99 586.67, 836.58 587.33, 837.17 588.0, 837.76 588.67, 838.35 589.33, 838.93 590.0, 839.51 590.67, 840.09 591.33, 840.67 592.0, 841.24 592.67, 841.81 593.33, 842.38 594.0, 842.94 594.67, 843.5 595.33, 844.06 596.0, 844.61 596.67, 845.17 597.33, 845.71 598.0, 846.26 598.67, 846.8 599.33, 847.34 600.0, 847.88 600.67, 848.41 601.33, 848.94 602.0, 849.46 602.67, 849.99 603.33, 850.51 604.0, 851.02 604.67, 851.53 605.33, 852.04 606.0, 852.54 606.67, 853.05 607.33, 853.54 608.0, 854.04 608.67, 854.53 609.33, 855.01 610.0, 855.49 610.67, 855.97 611.33, 856.45 612.0, 856.92 612.67, 857.38 613.33, 857.85 614.0, 858.31 614.67, 858.76 615.33, 859.21 616.0, 859.66 616.67, 860.1 617.33, 860.54 618.0, 860.97 618.67, 861.4 619.33, 861.82 620.0, 862.25 620.67, 862.66 621.33, 863.07 622.0, 863.48 622.67, 863.89 623.33, 864.28 624.0, 864.68 624.67, 865.07 625.33, 865.46 626.0, 865.84 626.67, 866.21 627.33, 866.58 628.0, 866.95 628.67, 867.31 629.33, 867.67 630.0, 868.03 630.67, 868.37 631.33, 868.72 632.0, 869.06 632.67, 869.39 633.33, 869.72 634.0, 870.04 634.67, 870.36 635.33, 870.68 636.0, 870.99 636.67, 871.29 637.33, 871.59 638.0, 871.89 638.67, 872.18 639.33, 872.46 640.0, 872.74 640.67, 873.02 641.33, 873.29 642.0, 873.55 642.67, 873.81 643.33, 874.07 644.0, 874.32 644.67, 874.56 645.33, 874.8 646.0, 875.03 646.67, 875.26 647.33, 875.49 648.0, 875.7 648.67, 875.92 649.33, 876.12 650.0, 876.33 650.67, 876.52 651.33, 876.72 652.0, 876.9 652.67, 877.08 653.33, 877.26 654.0, 877.43 654.67, 877.59 655.33, 877.75 656.0, 877.91 656.67, 878.06 657.33, 878.2 658.0, 878.34 658.67, 878.47 659.33, 878.6 660.0, 878.72 660.67, 878.83 661.33, 878.95 662.0, 879.05 662.67, 879.15 663.33, 879.24 664.0, 879.33 664.67, 879.42 665.33, 879.49 666.0, 879.57 666.67, 879.63 667.33, 879.69 668.0, 879.75 668.67, 879.8 669.33, 879.84 670.0, 879.88 670.67, 879.92 671.33, 879.94 672.0, 879.97 672.67, 879.98 673.33, 879.99 674.0, 880.0 674.67, 880.0 675.33, 879.99 676.0, 879.98 676.67, 879.97 677.33, 879.94 678.0, 879.92 678.67, 879.88 679.33, 879.84 680.0, 879.8 680.67, 879.75 681.33, 879.69 682.0, 879.63 682.67, 879.57 683.33, 879.49 684.0, 879.42 684.67, 879.33 685.33, 879.25 686.0, 879.15 686.67, 879.05 687.33, 878.95 688.0, 878.84 688.67, 878.72 689.33, 878.6 690.0, 878.47 690.67, 878.34 691.33, 878.2 692.0, 878.06 692.67, 877.91 693.33, 877.76 694.0, 877.6 694.67, 877.43 695.33, 877.26 696.0, 877.08 696.67, 876.9 697.33, 876.72 698.0, 876.53 698.67, 876.33 699.33, 876.13 700.0, 875.92 700.67, 875.71 701.33, 875.49 702.0, 875.26 702.67, 875.04 703.33, 874.8 704.0, 874.56 704.67, 874.32 705.33, 874.07 706.0, 873.82 706.67, 873.56 707.33, 873.29 708.0, 873.02 708.67, 872.75 709.33, 872.47 710.0, 872.18 710.67, 871.89 711.33, 871.6 712.0, 871.3 712.67, 870.99 713.33, 870.68 714.0, 870.37 714.67, 870.05 715.33, 869.72 716.0, 869.39 716.67, 869.06 717.33, 868.72 718.0, 868.38 718.67, 868.03 719.33, 867.68 720.0, 867.32 720.67, 866.96 721.33, 866.59 722.0, 866.22 722.67, 865.84 723.33, 865.46 724.0, 865.07 724.67, 864.68 725.33, 864.29 726.0, 863.89 726.67, 863.49 727.33, 863.08 728.0, 862.67 728.67, 862.25 729.33, 861.83 730.0, 861.4 730.67, 860.97 731.33, 860.54 732.0, 860.1 732.67, 859.66 733.33, 859.21 734.0, 858.76 734.67, 858.31 735.33, 857.85 736.0, 857.39 736.67, 856.92 737.33, 856.45 738.0, 855.98 738.67, 855.5 739.33, 855.02 740.0, 854.53 740.67, 854.04 741.33, 853.55 742.0, 853.05 742.67, 852.55 743.33, 852.05 744.0, 851.54 744.67, 851.03 745.33, 850.51 746.0, 849.99 746.67, 849.47 747.33, 848.94 748.0, 848.41 748.67, 847.88 749.33, 847.35 750.0, 846.81 750.67, 846.27 751.33, 845.72 752.0, 845.17 752.67, 844.62 753.33, 844.06 754.0, 843.51 754.67, 842.95 755.33, 842.38 756.0, 841.81 756.67, 841.25 757.33, 840.67 758.0, 840.1 758.67, 839.52 759.33, 838.94 760.0, 838.35 760.67, 837.77 761.33, 837.18 762.0, 836.59 762.67, 835.99 763.33, 835.4 764.0, 834.8 764.67, 834.2 765.33, 833.59 766.0, 832.99 766.67, 832.38 767.33, 831.77 768.0, 831.15 768.67, 830.54 769.33, 829.92 770.0, 829.3 770.67, 828.68 771.33, 828.06 772.0, 827.43 772.67, 826.8 773.33, 826.18 774.0, 825.54 774.67, 824.91 775.33, 824.28 776.0, 823.64 776.67, 823.0 777.33, 822.36 778.0, 821.72 778.67, 821.08 779.33, 820.44 780.0, 819.79 780.67, 819.15 781.33, 818.5 782.0, 817.85 782.67, 817.2 783.33, 816.55 784.0, 815.89 784.67, 815.24 785.33, 814.58 786.0, 813.93 786.67, 813.27 787.33, 812.61 788.0, 811.96 788.67, 811.3 789.33, 810.64 790.0, 809.97 790.67, 809.31 791.33, 808.65 792.0, 807.99 792.67, 807.32 793.33, 806.66 794.0, 805.99 794.67, 805.33 795.33, 804.66 796.0, 804.0 796.67, 803.33 797.33, 802.67 798.0, 802.0 798.67, 801.33 799.33, 800.67 800.0, 800.0 800.67, 799.33 801.33, 798.67 802.0, 798.0 802.67, 797.33 803.33, 796.67 804.0, 796.0 804.67, 795.34 805.33, 794.67 806.0, 794.01 806.67, 793.34 807.33, 792.68 808.0, 792.01 808.67, 791.35 809.33, 790.69 810.0, 790.03 810.67, 789.36 811.33, 788.7 812.0, 788.04 812.67, 787.39 813.33, 786.73 814.0, 786.07 814.67, 785.42 815.33, 784.76 816.0, 784.11 816.67, 783.45 817.33, 782.8 818.0, 782.15 818.67, 781.5 819.33, 780.85 820.0, 780.21 820.67, 779.56 821.33, 778.92 822.0, 778.28 822.67, 777.64 823.33, 777.0 824.0, 776.36 824.67, 775.72 825.33, 775.09 826.0, 774.46 826.67, 773.82 827.33, 773.2 828.0, 772.57 828.67, 771.94 829.33, 771.32 830.0, 770.7 830.67, 770.08 831.33, 769.46 832.0, 768.85 832.67, 768.23 833.33, 767.62 834.0, 767.01 834.67, 766.41 835.33, 765.8 836.0, 765.2 836.67, 764.6 837.33, 764.01 838.0, 763.41 838.67, 762.82 839.33, 762.23 840.0, 761.65 840.67, 761.06 841.33, 760.48 842.0, 759.9 842.67, 759.33 843.33, 758.75 844.0, 758.19 844.67, 757.62 845.33, 757.05 846.0, 756.49 846.67, 755.94 847.33, 755.38 848.0, 754.83 848.67, 754.28 849.33, 753.73 850.0, 753.19 850.67, 752.65 851.33, 752.12 852.0, 751.59 852.67, 751.06 853.33, 750.53 854.0, 750.01 854.67, 749.49 855.33, 748.97 856.0, 748.46 856.67, 747.95 857.33, 747.45 858.0, 746.95 858.67, 746.45 859.33, 745.96 860.0, 745.47 860.67, 744.98 861.33, 744.5 862.0, 744.02 862.67, 743.55 863.33, 743.08 864.0, 742.61 864.67, 742.15 865.33, 741.69 866.0, 741.24 866.67, 740.79 867.33, 740.34 868.0, 739.9 868.67, 739.46 869.33, 739.03 870.0, 738.6 870.67, 738.17 871.33, 737.75 872.0, 737.33 872.67, 736.92 873.33, 736.51 874.0, 736.11 874.67, 735.71 875.33, 735.32 876.0, 734.93 876.67, 734.54 877.33, 734.16 878.0, 733.78 878.67, 733.41 879.33, 733.04 880.0, 732.68 880.67, 732.32 881.33, 731.97 882.0, 731.62 882.67, 731.28 883.33, 730.94 884.0, 730.61 884.67, 730.28 885.33, 729.95 886.0, 729.63 886.67, 729.32 887.33, 729.01 888.0, 728.7 888.67, 728.4 889.33, 728.11 890.0, 727.82 890.67, 727.53 891.33, 727.25 892.0, 726.98 892.67, 726.71 893.33, 726.44 894.0, 726.18 894.67, 725.93 895.33, 725.68 896.0, 725.44 896.67, 725.2 897.33, 724.96 898.0, 724.74 898.67, 724.51 899.33, 724.29 900.0, 724.08 900.67, 723.87 901.33, 723.67 902.0, 723.47 902.67, 723.28 903.33, 723.1 904.0, 722.92 904.67, 722.74 905.33, 722.57 906.0, 722.4 906.67, 722.24 907.33, 722.09 908.0, 721.94 908.67, 721.8 909.33, 721.66 910.0, 721.53 910.67, 721.4 911.33, 721.28 912.0, 721.16 912.67, 721.05 913.33, 720.95 914.0, 720.85 914.67, 720.75 915.33, 720.67 916.0, 720.58 916.67, 720.51 917.33, 720.43 918.0, 720.37 918.67, 720.31 919.33, 720.25 920.0, 720.2 920.67, 720.16 921.33, 720.12 922.0, 720.08 922.67, 720.06 923.33, 720.03 924.0, 720.02 924.67, 720.01 925.33, 720.0 926.0, 720.0 926.67, 720.01 927.33, 720.02 928.0, 720.03 928.67, 720.06 929.33, 720.08 930.0, 720.12 930.67, 720.16 931.33, 720.2 932.0, 720.25 932.67, 720.31 933.33, 720.37 934.0, 720.43 934.67, 720.51 935.33, 720.58 936.0, 720.67 936.67, 720.76 937.33, 720.85 938.0, 720.95 938.67, 721.05 939.33, 721.17 940.0, 721.28 940.67, 721.4 941.33, 721.53 942.0, 721.66 942.67, 721.8 943.33, 721.94 944.0, 722.09 944.67, 722.25 945.33, 722.41 946.0, 722.57 946.67, 722.74 947.33, 722.92 948.0, 723.1 948.67, 723.28 949.33, 723.48 950.0, 723.67 950.67, 723.88 951.33, 724.08 952.0, 724.3 952.67, 724.51 953.33, 724.74 954.0, 724.97 954.67, 725.2 955.33, 725.44 956.0, 725.68 956.67, 725.93 957.33, 726.19 958.0, 726.45 958.67, 726.71 959.33, 726.98 960.0, 727.26 960.67, 727.54 961.33, 727.82 962.0, 728.11 962.67, 728.41 963.33, 728.71 964.0, 729.01 964.67, 729.32 965.33, 729.64 966.0, 729.96 966.67, 730.28 967.33, 730.61 968.0, 730.94 968.67, 731.28 969.33, 731.63 970.0, 731.97 970.67, 732.33 971.33, 732.69 972.0, 733.05 972.67, 733.42 973.33, 733.79 974.0, 734.16 974.67, 734.54 975.33, 734.93 976.0, 735.32 976.67, 735.72 977.33, 736.11 978.0, 736.52 978.67, 736.93 979.33, 737.34 980.0, 737.75 980.67, 738.18 981.33, 738.6 982.0, 739.03 982.67, 739.46 983.33, 739.9 984.0, 740.34 984.67, 740.79 985.33, 741.24 986.0, 741.69 986.67, 742.15 987.33, 742.62 988.0, 743.08 988.67, 743.55 989.33, 744.03 990.0, 744.51 990.67, 744.99 991.33, 745.47 992.0, 745.96 992.67, 746.46 993.33, 746.95 994.0, 747.46 994.67, 747.96 995.33, 748.47 996.0, 748.98 996.67, 749.49 997.33, 750.01 998.0, 750.54 998.67, 751.06 999.33, 751.59 1000.0, 752.12 1000.67, 752.66 1001.33, 753.2 1002.0, 753.74 1002.67, 754.29 1003.33, 754.83 1004.0, 755.39 1004.67, 755.94 1005.33, 756.5 1006.0, 757.06 1006.67, 757.62 1007.33, 758.19 1008.0, 758.76 1008.67, 759.33 1009.33, 759.91 1010.0, 760.49 1010.67, 761.07 1011.33, 761.65 1012.0, 762.24 1012.67, 762.83 1013.33, 763.42 1014.0, 764.01 1014.67, 764.61 1015.33, 765.21 1016.0, 765.81 1016.67, 766.42 1017.33, 767.02 1018.0, 767.63 1018.67, 768.24 1019.33, 768.85 1020.0, 769.47 1020.67, 770.09 1021.33, 770.71 1022.0, 771.33 1022.67, 771.95 1023.33, 772.58 1024.0, 773.2 1024.67, 773.83 1025.33, 774.46 1026.0, 775.1 1026.67, 775.73 1027.33, 776.37 1028.0, 777.01 1028.67, 777.65 1029.33, 778.29 1030.0, 778.93 1030.67, 779.57 1031.33, 780.22 1032.0, 780.87 1032.67, 781.51 1033.33, 782.16 1034.0, 782.81 1034.67, 783.47 1035.33, 784.12 1036.0, 784.77 1036.67, 785.43 1037.33, 786.09 1038.0, 786.74 1038.67, 787.4 1039.33, 788.06 1040.0, 788.72 1040.67, 789.38 1041.33, 790.04 1042.0, 790.7 1042.67, 791.37 1043.33, 792.03 1044.0, 792.69 1044.67, 793.36 1045.33, 794.02 1046.0, 794.69 1046.67, 795.35 1047.33, 796.02 1048.0, 796.69 1048.67, 797.35 1049.33, 798.02 1050.0, 798.69 1050.67, 799.36 1051.33, 800.02 1052.0, 800.69 1052.67, 801.36 1053.33, 802.02 1054.0, 802.69 1054.67, 803.36 1055.33, 804.02 1056.0, 804.69 1056.67, 805.36 1057.33, 806.02 1058.0, 806.69 1058.67, 807.35 1059.33, 808.02 1060.0, 808.68 1060.67, 809.34 1061.33, 810.01 1062.0, 810.67 1062.67, 811.33 1063.33, 811.99 1064.0, 812.65 1064.67, 813.31 1065.33, 813.97 1066.0, 814.62 1066.67, 815.28 1067.33, 815.94 1068.0, 816.59 1068.67, 817.24 1069.33, 817.89 1070.0, 818.54 1070.67, 819.19 1071.33, 819.84 1072.0, 820.49 1072.67, 821.13 1073.33, 821.78 1074.0, 822.42 1074.67, 823.06 1075.33, 823.7 1076.0, 824.34 1076.67, 824.97 1077.33, 825.61 1078.0, 826.24 1078.67, 826.87 1079.33, 827.5 1080.0, 828.13 1080.67, 828.75 1081.33, 829.38 1082.0, 830.0 1082.67, 830.62 1083.33, 831.24 1084.0, 831.85 1084.67, 832.46 1085.33, 833.07 1086.0, 833.68 1086.67, 834.29 1087.33, 834.89 1088.0, 835.5 1088.67, 836.09 1089.33, 836.69 1090.0, 837.29 1090.67, 837.88 1091.33, 838.47 1092.0, 839.05 1092.67, 839.64 1093.33, 840.22 1094.0, 840.8 1094.67, 841.38 1095.33, 841.95 1096.0, 842.52 1096.67, 843.09 1097.33, 843.65 1098.0, 844.21 1098.67, 844.77 1099.33, 845.33 1100.0, 845.88 1100.67, 846.43 1101.33, 846.98 1102.0, 847.52 1102.67, 848.06 1103.33, 848.6 1104.0, 849.14 1104.67, 849.67 1105.33, 850.19 1106.0, 850.72 1106.67, 851.24 1107.33, 851.76 1108.0, 852.27 1108.67, 852.78 1109.33, 853.29 1110.0, 853.79 1110.67, 854.29 1111.33, 854.79 1112.0, 855.28 1112.67, 855.77 1113.33, 856.26 1114.0, 856.74 1114.67, 857.22 1115.33, 857.69 1116.0, 858.16 1116.67, 858.63 1117.33, 859.09 1118.0, 859.55 1118.67, 860.0 1119.33, 860.46 1120.0, 860.9 1120.67, 861.35 1121.33, 861.78 1122.0, 862.22 1122.67, 862.65 1123.33, 863.08 1124.0, 863.5 1124.67, 863.92 1125.33, 864.33 1126.0, 864.75 1126.67, 865.15 1127.33, 865.55 1128.0, 865.95 1128.67, 866.35 1129.33, 866.74 1130.0, 867.12 1130.67, 867.5 1131.33, 867.88 1132.0, 868.25 1132.67, 868.62 1133.33, 868.98 1134.0, 869.34 1134.67, 869.69 1135.33, 870.04 1136.0, 870.39 1136.67, 870.73 1137.33, 871.07 1138.0, 871.4 1138.67, 871.73 1139.33, 872.05 1140.0, 872.37 1140.67, 872.68 1141.33, 872.99 1142.0, 873.3 1142.67, 873.6 1143.33, 873.9 1144.0, 874.19 1144.67, 874.47 1145.33, 874.76 1146.0, 875.03 1146.67, 875.31 1147.33, 875.58 1148.0, 875.84 1148.67, 876.1 1149.33, 876.35 1150.0, 876.6 1150.67, 876.85 1151.33, 877.09 1152.0, 877.32 1152.67, 877.55 1153.33, 877.78 1154.0, 878.0 1154.67, 878.22 1155.33, 878.43 1156.0, 878.64 1156.67, 878.84 1157.33, 879.04 1158.0, 879.23 1158.67, 879.42 1159.33, 879.61 1160.0, 879.79 1160.67, 879.96 1161.33, 880.13 1162.0, 880.3 1162.67, 880.46 1163.33, 880.62 1164.0, 880.77 1164.67, 880.92 1165.33, 881.06 1166.0, 881.2 1166.67, 881.33 1167.33, 881.46 1168.0, 881.59 1168.67, 881.71 1169.33, 881.82 1170.0, 881.93 1170.67, 882.04 1171.33, 882.14 1172.0, 882.24 1172.67, 882.33 1173.33, 882.42 1174.0, 882.51 1174.67, 882.59 1175.33, 882.66 1176.0, 882.73 1176.67, 882.8 1177.33, 882.86 1178.0, 882.92 1178.67, 882.97 1179.33, 883.02 1180.0, 883.07 1180.67, 883.11 1181.33, 883.15 1182.0, 883.18 1182.67, 883.21 1183.33, 883.24 1184.0, 883.26 1184.67, 883.28 1185.33, 883.29 1186.0, 883.3 1186.67, 883.3 1187.33, 883.3 1188.0, 883.3 1188.67, 883.3 1189.33, 883.29 1190.0, 883.27 1190.67, 883.26 1191.33, 883.23 1192.0, 883.21 1192.67, 883.18 1193.33, 883.15 1194.0, 883.12 1194.67, 883.08 1195.33, 883.04 1196.0, 882.99 1196.67, 882.94 1197.33, 882.89 1198.0, 882.84 1198.67, 882.78 1199.33, 882.72 1200.0, 882.65 1200.67, 882.58 1201.33, 882.51 1202.0, 882.44 1202.67, 882.37 1203.33, 882.29 1204.0, 882.21 1204.67, 882.12 1205.33, 882.04 1206.0, 881.95 1206.67, 881.86 1207.33, 881.76 1208.0, 881.67 1208.67, 881.57 1209.33, 881.47 1210.0, 881.36 1210.67, 881.26 1211.33, 881.15 1212.0, 881.04 1212.67, 880.93 1213.33, 880.82 1214.0, 880.71 1214.67, 880.59 1215.33, 880.47 1216.0, 880.35 1216.67, 880.23 1217.33, 880.11 1218.0, 879.99 1218.67, 879.86 1219.33, 879.74 1220.0, 879.61 1220.67, 879.49 1221.33, 879.36 1222.0, 879.23 1222.67, 879.1 1223.33, 878.97 1224.0, 878.84 1224.67, 878.71 1225.33, 878.58 1226.0, 878.45 1226.67, 878.32 1227.33, 878.19 1228.0, 878.05 1228.67, 877.92 1229.33, 877.79 1230.0, 877.66 1230.67, 877.53 1231.33, 877.4 1232.0, 877.28 1232.67, 877.15 1233.33, 877.02 1234.0, 876.9 1234.67, 876.77 1235.33, 876.65 1236.0, 876.53 1236.67, 876.41 1237.33, 876.29 1238.0, 876.17 1238.67, 876.06 1239.33, 875.94 1240.0, 875.83 1240.67, 875.73 1241.33, 875.62 1242.0, 875.52 1242.67, 875.42 1243.33, 875.32 1244.0, 875.22 1244.67, 875.13 1245.33, 875.04 1246.0, 874.96 1246.67, 874.87 1247.33, 874.79 1248.0, 874.72 1248.67, 874.65 1249.33, 874.58 1250.0, 874.52 1250.67, 874.46 1251.33, 874.41 1252.0, 874.36 1252.67, 874.31 1253.33, 874.28 1254.0, 874.24 1254.67, 874.21 1255.33, 874.19 1256.0, 874.17 1256.67, 874.16 1257.33, 874.15 1258.0, 874.15 1258.67, 874.16 1259.33, 874.17 1260.0, 874.19 1260.67, 874.22 1261.33, 874.25 1262.0, 874.29 1262.67, 874.34 1263.33, 874.4 1264.0, 874.46 1264.67, 874.53 1265.33, 874.61 1266.0, 874.7 1266.67, 874.79 1267.33, 874.9 1268.0, 875.01 1268.67, 875.13 1269.33, 875.27 1270.0, 875.41 1270.67, 875.56 1271.33, 875.72 1272.0, 875.89 1272.67, 876.07 1273.33, 876.27 1274.0, 876.47 1274.67, 876.68 1275.33, 876.91 1276.0, 877.15 1276.67, 877.4 1277.33, 877.66 1278.0, 877.93 1278.67, 878.22 1279.33, 878.52 1280.0, 878.83 1280.67, 879.15 1281.33, 879.49 1282.0, 879.84 1282.67, 880.21 1283.33, 880.59 1284.0, 880.98 1284.67, 881.39 1285.33, 881.81 1286.0, 882.25 1286.67, 882.71 1287.33, 883.18 1288.0, 883.66 1288.67, 884.16 1289.33, 884.68 1290.0, 885.22 1290.67, 885.77 1291.33, 886.34 1292.0, 886.93 1292.67, 887.54 1293.33, 888.16 1294.0, 888.81 1294.67, 889.47 1295.33, 890.15 1296.0, 890.85 1296.67, 891.57 1297.33, 892.31 1298.0, 893.07 1298.67, 893.86 1299.33, 894.66 1300.0, 895.48 1300.67, 896.33 1301.33, 897.2 1302.0, 898.09 1302.67, 899.0 1303.33, 899.94 1304.0, 900.9 1304.67, 901.89 1305.33, 902.9 1306.0, 903.93 1306.67, 904.99 1307.33, 906.07 1308.0, 907.18 1308.67, 908.31 1309.33, 909.48 1310.0, 910.66 1310.67, 911.88 1311.33, 913.12 1312.0, 914.39 1312.67, 915.69 1313.33, 917.02 1314.0, 918.38 1314.67, 919.76 1315.33, 921.18 1316.0, 922.63 1316.67, 924.1 1317.33, 925.61 1318.0, 927.15 1318.67, 928.72 1319.33, 930.33 1320.0, 931.96 1320.67, 933.64 1321.33, 935.34 1322.0, 937.08 1322.67, 938.85 1323.33, 940.66 1324.0, 942.5 1324.67, 944.38 1325.33, 946.3 1326.0, 948.25 1326.67, 950.24 1327.33, 952.27 1328.0, 954.34 1328.67, 956.45 1329.33, 958.59 1330.0, 960.78 1330.67, 963.0 1331.33, 965.27 1332.0, 967.58 1332.67, 969.93 1333.33, 972.32 1334.0, 974.75 1334.67, 977.23 1335.33, 979.76 1336.0, 982.32 1336.67, 984.94 1337.33, 987.59 1338.0, 990.3 1338.67, 993.05 1339.33, 995.85 1340.0, 998.7 1340.67, 1001.59 1341.33, 1004.53 1342.0, 1007.53 1342.67, 1010.57 1343.33, 1013.67 1344.0, 1016.81 1344.67, 1020.01 1345.33, 1023.26 1346.0, 1026.57 1346.67, 1029.93 1347.33, 1033.34 1348.0, 1036.81 1348.67, 1040.33 1349.33, 1043.91 1350.0, 1047.55 1350.67, 1051.25 1351.33, 1055.0 1352.0, 1058.82 1352.67, 1062.69 1353.33, 1066.62 1354.0, 1070.62 1354.67, 1074.67 1355.33, 1078.79 1356.0, 1082.98 1356.67, 1087.22 1357.33, 1091.53 1358.0, 1095.91 1358.67, 1100.35 1359.33, 1104.86 1360.0, 1109.44 1360.67, 1114.08 1361.33, 1118.8 1362.0, 1123.58 1362.67, 1128.44 1363.33, 1133.37 1364.0, 1138.36 1364.67, 1143.44 1365.33, 1148.58 1366.0, 1153.8 1366.67, 1159.1 1367.33, 1164.47 1368.0, 1169.92 1368.67, 1175.44 1369.33, 1181.05 1370.0, 1186.74 1370.67, 1192.5 1371.33, 1198.35 1372.0, 1204.28 1372.67, 1210.29 1373.33, 1216.38 1374.0, 1222.56 1374.67, 1228.83 1375.33, 1235.18 1376.0, 1241.62 1376.67, 1248.15 1377.33, 1254.77 1378.0, 1261.47 1378.67, 1268.27 1379.33, 1275.16 1380.0, 1282.15 1380.67, 1289.22 1381.33, 1296.4 1382.0, 1303.67 1382.67, 1311.03 1383.33, 1318.49 1384.0, 1326.06 1384.67, 1333.72 1385.33, 1341.48 1386.0, 1349.35 1386.67, 1357.31 1387.33, 1365.39 1388.0, 1373.56 1388.67, 1381.85 1389.33, 1390.24 1390.0, 1398.73 1390.67, 1407.34 1391.33, 1416.06 1392.0, 1424.89 1392.67, 1433.83 1393.33, 1442.89 1394.0, 1452.06 1394.67, 1461.34 1395.33, 1470.75 1396.0, 1480.27 1396.67, 1489.91 1397.33, 1499.67 1398.0, 1509.56 1398.67, 1519.56 1399.33, 1529.69 1400.0, 1539.95 1400.67, 1550.33 1401.33, 1560.84 1402.0, 1571.48 1402.67, 1582.25 1403.33, 1593.15 1404.0, 1604.19 1404.67, 1615.36 1405.33, 1626.66 1406.0, 1638.1 1406.67, 1649.68 1407.33, 1661.39 1408.0, 1673.25 1408.67, 1685.25 1409.33, 1697.39 1410.0, 1709.68 1410.67, 1722.11 1411.33, 1734.69 1412.0, 1747.42 1412.67, 1760.3 1413.33, 1773.33 1414.0, 1786.51 1414.67, 1799.85 1415.33, 1813.34 1416.0, 1826.99 1416.67, 1840.8 1417.33, 1854.77 1418.0, 1868.9 1418.67, 1883.19 1419.33, 1897.65 1420.0, 1912.27 1420.67, 1927.06 1421.33, 1942.02 1422.0, 1957.15 1422.67, 1972.45 1423.33, 1987.93 1424.0, 2003.58 1424.67, 2019.41 1425.33, 2035.41 1426.0, 2051.6 1426.67, 2067.96 1427.33, 2084.51 1428.0, 2101.25 1428.67, 2118.17 1429.33, 2135.28 1430.0, 2152.58 1430.67, 2170.07 1431.33, 2187.75 1432.0, 2205.63 1432.67, 2223.7 1433.33, 2241.97 1434.0, 2260.45 1434.67, 2279.12 1435.33, 2298.0 1436.0, 2317.08 1436.67, 2336.37 1437.33, 2355.87 1438.0, 2375.58 1438.67, 2395.5 1439.33, 2415.63 1440.0, 2435.99 1440.67, 2456.55 1441.33, 2477.34 1442.0, 2498.35 1442.67, 2519.59 1443.33, 2541.05 1444.0, 2562.73 1444.67, 2584.65 1445.33, 2606.8 1446.0, 2629.18 1446.67, 2651.79 1447.33, 2674.64 1448.0, 2697.73 1448.67, 2721.06 1449.33, 2744.64 1450.0, 2768.46 1450.67, 2792.53 1451.33, 2816.84 1452.0, 2841.41 1452.67, 2866.23 1453.33, 2891.3 1454.0, 2916.64 1454.67, 2942.23 1455.33, 2968.08 1456.0, 2994.2 1456.67, 3020.58 1457.33, 3047.23 1458.0, 3074.15 1458.67, 3101.35 1459.33, 3128.81 1460.0, 3156.56 1460.67, 3184.58 1461.33, 3212.89 1462.0, 3241.48 1462.67, 3270.35 1463.33, 3299.51 1464.0, 3328.96 1464.67, 3358.71 1465.33, 3388.75 1466.0, 3419.08 1466.67, 3449.72 1467.33, 3480.66 1468.0, 3511.9 1468.67, 3543.45 1469.33, 3575.31 1470.0, 3607.47 1470.67, 3639.96 1471.33, 3672.76 1472.0, 3705.87 1472.67, 3739.31 1473.33, 3773.07 1474.0, 3807.16 1474.67, 3841.58 1475.33, 3876.32 1476.0, 3911.4 1476.67, 3946.82 1477.33, 3982.58 1478.0, 4018.67 1478.67, 4055.11 1479.33, 4091.9 1480.0, 4129.03 1480.67, 4166.52 1481.33, 4204.36 1482.0, 4242.56 1482.67, 4281.11 1483.33, 4320.03 1484.0, 4359.31 1484.67, 4398.96 1485.33, 4438.98 1486.0, 4479.38 1486.67, 4520.15 1487.33, 4561.29 1488.0, 4602.82 1488.67, 4644.73 1489.33, 4687.03 1490.0, 4729.71 1490.67, 4772.79 1491.33, 4816.26 1492.0, 4860.13 1492.67, 4904.41 1493.33, 4949.08 1494.0, 4994.16 1494.67, 5039.65 1495.33, 5085.55 1496.0, 5131.87 1496.67, 5178.6 1497.33, 5225.75 1498.0, 5273.33 1498.67, 5321.33 1499.33, 5369.77 1500.0, 5418.63 1500.67, 5467.93 1501.33, 5517.67 1502.0, 5567.85 1502.67, 5618.48 1503.33, 5669.55 1504.0, 5721.07 1504.67, 5773.05 1505.33, 5825.48 1506.0, 5878.37 1506.67, 5931.72 1507.33, 5985.54 1508.0, 6039.83 1508.67, 6094.59 1509.33, 6149.82 1510.0, 6205.54 1510.67, 6261.73 1511.33, 6318.41 1512.0, 6375.57 1512.67, 6433.23 1513.33, 6491.38 1514.0, 6550.03 1514.67, 6609.17 1515.33, 6668.82 1516.0, 6728.98 1516.67, 6789.65 1517.33, 6850.83 1518.0, 6912.53 1518.67, 6974.74 1519.33, 7037.48 1520.0, 7100.75 1520.67, 7164.54 1521.33, 7228.87 1522.0, 7293.73 1522.67, 7359.13 1523.33, 7425.08 1524.0, 7491.57 1524.67, 7558.61 1525.33, 7626.2 1526.0, 7694.35 1526.67, 7763.06 1527.33, 7832.33 1528.0, 7902.17 1528.67, 7972.57 1529.33, 8043.55 1530.0, 8115.11 1530.67, 8187.24 1531.33, 8259.96 1532.0, 8333.26 1532.67, 8407.16 1533.33, 8481.64 1534.0, 8556.73 1534.67, 8632.41 1535.33, 8708.7 1536.0, 8785.59 1536.67, 8863.1 1537.33, 8941.21 1538.0, 9019.95 1538.67, 9099.31 1539.33, 9179.29 1540.0, 9259.89 1540.67, 9341.13 1541.33, 9423.01 1542.0, 9505.52 1542.67, 9588.67 1543.33, 9672.47 1544.0, 9756.91 1544.67, 9842.01 1545.33, 9927.77 1546.0, 10014.18 1546.67, 10101.25 1547.33, 10188.99 1548.0, 10277.4 1548.67, 10366.49 1549.33, 10456.25 1550.0, 10546.69 1550.67, 10637.81 1551.33, 10729.62 1552.0, 10822.12 1552.67, 10915.31 1553.33, 11009.2 1554.0, 11103.79 1554.67, 11199.09 1555.33, 11295.09 1556.0, 11391.8 1556.67, 11489.23 1557.33, 11587.38 1558.0, 11686.24 1558.67, 11785.84 1559.33, 11886.16 1560.0, 11987.21 1560.67, 12089.0 1561.33, 12191.52 1562.0, 12294.79 1562.67, 12398.81 1563.33, 12503.57 1564.0, 12609.08 1564.67, 12715.35 1565.33, 12822.38 1566.0, 12930.18 1566.67, 13038.73 1567.33, 13148.06 1568.0, 13258.16 1568.67, 13369.04 1569.33, 13480.69 1570.0, 13593.13 1570.67, 13706.35 1571.33, 13820.36 1572.0, 13935.16 1572.67, 14050.76 1573.33, 14167.16 1574.0, 14284.36 1574.67, 14402.37 1575.33, 14521.18 1576.0, 14640.81 1576.67, 14761.25 1577.33, 14882.51 1578.0, 15004.58 1578.67, 15127.49 1579.33, 15251.22 1580.0, 15375.78 1580.67, 15501.17 1581.33, 15627.4 1582.0, 15754.48 1582.67, 15882.39 1583.33, 16011.15 1584.0, 16140.75 1584.67, 16271.21 1585.33, 16402.52 1586.0, 16534.69 1586.67, 16667.72 1587.33, 16801.61 1588.0, 16936.37 1588.67, 17072.0 1589.33, 17208.5 1590.0, 17345.87 1590.67, 17484.12 1591.33, 17623.24 1592.0, 17763.25 1592.67, 17904.14 1593.33, 18045.93 1594.0, 18188.6 1594.67, 18332.16 1595.33, 18476.61 1596.0, 18621.97 1596.67, 18768.22 1597.33, 18915.38 1598.0, 19063.43 1598.67, 19212.4 1599.33, 19362.27 1600.0, 19513.06 " fill="none" stroke="white" stroke-width="1.5" stroke-linejoin="round" stroke-opacity="1"/>

 </svg>