<svg version="1.1" 
 baseProfile="full" 
 width="1600" 
 height="1600" 
 xmlns="http://www.w3.org/2000/svg">
<rect x="0.0" y="0.0" width="1600" height="1600" fill="black" stroke="black" stroke-width="0" opacity="1"/>
<line x1="0.0" y1="0.0" x2="0.0" y2="1600.0" stroke="white" stroke-width="1" opacity="0.4" stroke-linecap="butt"/>
<line x1="160.0" y1="0.0" x2="160.0" y2="1600.0" stroke="white" stroke-width="1" opacity="0.4" stroke-linecap="butt"/>
<line x1="320.0" y1="0.0" x2="320.0" y2="1600.0" stroke="white" stroke-width="1" opacity="0.4" stroke-linecap="butt"/>
<line x1="480.0" y1="0.0" x2="480.0" y2="1600.0" stroke="white" stroke-width="1" opacity="0.4" stroke-linecap="butt"/>
<line x1="640.0" y1="0.0" x2="640.0" y2="1600.0" stroke="white" stroke-width="1" opacity="0.4" stroke-linecap="butt"/>
<line x1="800.0" y1="0.0" x2="800.0" y2="1600.0" stroke="white" stroke-width="1" opacity="0.4" stroke-linecap="butt"/>
<line x1="960.0" y1="0.0" x2="960.0" y2="1600.0" stroke="white" stroke-width="1" opacity="0.4" stroke-linecap="butt"/>
<line x1="1120.0" y1="0.0" x2="1120.0" y2="1600.0" stroke="white" stroke-width="1" opacity="0.4" stroke-linecap="butt"/>
<line x1="1280.0" y1="0.0" x2="1280.0" y2="1600.0" stroke="white" stroke-width="1" opacity="0.4" stroke-linecap="butt"/>
<line x1="1440.0" y1="0.0" x2="1440.0" y2="1600.0" stroke="white" stroke-width="1" opacity="0.4" stroke-linecap="butt"/>
<line x1="0.0" y1="0.0" x2="1600.0" y2="0.0" stroke="white" stroke-width="1" opacity="0.4" stroke-linecap="butt"/>
<line x1="0.0" y1="160.0" x2="1600.0" y2="160.0" stroke="white" stroke-width="1" opacity="0.4" stroke-linecap="butt"/>
<line x1="0.0" y1="320.0" x2="1600.0" y2="320.0" stroke="white" stroke-width="1" opacity="0.4" stroke-linecap="butt"/>
<line x1="0.0" y1="480.0" x2="1600.0" y2="480.0" stroke="white" stroke-width="1" opacity="0.4" stroke-linecap="butt"/>
<line x1="0.0" y1="640.0" x2="1600.0" y2="640.0" stroke="white" stroke-width="1" opacity="0.4" stroke-linecap="butt"/>
<line x1="0.0" y1="800.0" x2="1600.0" y2="800.0" stroke="white" stroke-width="1" opacity="0.4" stroke-linecap="butt"/>
<line x1="0.0" y1="960.0" x2="1600.0" y2="960.0" stroke="white" stroke-width="1" opacity="0.4" stroke-linecap="butt"/>
<line x1="0.0" y1="1120.0" x2="1600.0" y2="1120.0" stroke="white" stroke-width="1" opacity="0.4" stroke-linecap="butt"/>
<line x1="0.0" y1="1280.0" x2="1600.0" y2="1280.0" stroke="white" stroke-width="1" opacity="0.4" stroke-linecap="butt"/>
<line x1="0.0" y1="1440.0" x2="1600.0" y2="1440.0" stroke="white" stroke-width="1" opacity="0.4" stroke-linecap="butt"/>
<line x1="0.0" y1="800.0" x2="1600.0" y2="800.0" stroke="yellow" stroke-width="2.5" opacity="1" stroke-linecap="butt"/>
<line x1="800.0" y1="0.0" x2="800.0" y2="1600.0" stroke="yellow" stroke-width="2.5" opacity="1" stroke-linecap="butt"/>
<polygon points="1564.0 816.0, 1604.0 800.0, 1564.0 784.0, 1572.0 800.0" fill="yellow"/><polygon points="816.0 36.0, 800.0 -4.0, 784.0 36.0, 800.0 28.0" fill="yellow"/><polyline points="0.0, 4569.6 0.67, 4478.04 1.33, 4387.98 2.0, 4299.4 2.67, 4212.29 3.33, 4126.61 4.0, 4042.37 4.67, 3959.53 5.33, 3878.07 6.0, 3797.99 6.67, 3719.25 7.33, 3641.85 8.0, 3565.76 8.67, 3490.96 9.33, 3417.45 10.0, 3345.19 10.67, 3274.18 11.33, 3204.4 12.0, 3135.83 12.67, 3068.45 13.33, 3002.26 14.0, 2937.22 14.67, 2873.33 15.33, 2810.56 16.0, 2748.92 16.67, 2688.37 17.33, 2628.9 18.0, 2570.51 18.67, 2513.17 19.33, 2456.86 20.0, 2401.58 20.67, 2347.31 21.33, 2294.04 22.0, 2241.75 22.67, 2190.43 23.33, 2140.06 24.0, 2090.63 24.67, 2042.13 25.33, 1994.55 26.0, 1947.86 26.67, 1902.07 27.33, 1857.15 28.0, 1813.09 28.67, 1769.88 29.33, 1727.51 30.0, 1685.97 30.67, 1645.24 31.33, 1605.31 32.0, 1566.17 32.67, 1527.81 33.33, 1490.22 34.0, 1453.39 34.67, 1417.3 35.33, 1381.94 36.0, 1347.3 36.67, 1313.38 37.33, 1280.16 38.0, 1247.63 38.67, 1215.78 39.33, 1184.61 40.0, 1154.09 40.67, 1124.22 41.33, 1094.99 42.0, 1066.39 42.67, 1038.42 43.33, 1011.05 44.0, 984.29 44.67, 958.12 45.33, 932.53 46.0, 907.52 46.67, 883.07 47.33, 859.18 48.0, 835.84 48.67, 813.04 49.33, 790.77 50.0, 769.02 50.67, 747.78 51.33, 727.06 52.0, 706.83 52.67, 687.09 53.33, 667.83 54.0, 649.04 54.67, 630.73 55.33, 612.87 56.0, 595.46 56.67, 578.5 57.33, 561.98 58.0, 545.88 58.67, 530.21 59.33, 514.95 60.0, 500.11 60.67, 485.66 61.33, 471.61 62.0, 457.95 62.67, 444.67 63.33, 431.77 64.0, 419.24 64.67, 407.07 65.33, 395.25 66.0, 383.79 66.67, 372.67 67.33, 361.89 68.0, 351.44 68.67, 341.32 69.33, 331.53 70.0, 322.04 70.67, 312.87 71.33, 304.0 72.0, 295.43 72.67, 287.16 73.33, 279.17 74.0, 271.46 74.67, 264.04 75.33, 256.88 76.0, 250.0 76.67, 243.38 77.33, 237.01 78.0, 230.9 78.67, 225.04 79.33, 219.42 80.0, 214.05 80.67, 208.9 81.33, 203.99 82.0, 199.3 82.67, 194.84 83.33, 190.59 84.0, 186.56 84.67, 182.73 85.33, 179.11 86.0, 175.69 86.67, 172.47 87.33, 169.44 88.0, 166.6 88.67, 163.94 89.33, 161.47 90.0, 159.17 90.67, 157.05 91.33, 155.1 92.0, 153.32 92.67, 151.7 93.33, 150.24 94.0, 148.93 94.67, 147.78 95.33, 146.78 96.0, 145.93 96.67, 145.22 97.33, 144.65 98.0, 144.22 98.67, 143.92 99.33, 143.75 100.0, 143.71 100.67, 143.8 101.33, 144.01 102.0, 144.34 102.67, 144.79 103.33, 145.35 104.0, 146.02 104.67, 146.8 105.33, 147.68 106.0, 148.68 106.67, 149.77 107.33, 150.96 108.0, 152.24 108.67, 153.62 109.33, 155.09 110.0, 156.65 110.67, 158.3 111.33, 160.03 112.0, 161.84 112.67, 163.74 113.33, 165.71 114.0, 167.76 114.67, 169.88 115.33, 172.07 116.0, 174.33 116.67, 176.66 117.33, 179.05 118.0, 181.51 118.67, 184.03 119.33, 186.61 120.0, 189.24 120.67, 191.94 121.33, 194.68 122.0, 197.48 122.67, 200.34 123.33, 203.24 124.0, 206.18 124.67, 209.18 125.33, 212.22 126.0, 215.3 126.67, 218.42 127.33, 221.58 128.0, 224.78 128.67, 228.02 129.33, 231.29 130.0, 234.6 130.67, 237.94 131.33, 241.31 132.0, 244.71 132.67, 248.14 133.33, 251.6 134.0, 255.08 134.67, 258.59 135.33, 262.12 136.0, 265.67 136.67, 269.24 137.33, 272.84 138.0, 276.45 138.67, 280.08 139.33, 283.73 140.0, 287.39 140.67, 291.07 141.33, 294.76 142.0, 298.46 142.67, 302.18 143.33, 305.9 144.0, 309.64 144.67, 313.38 145.33, 317.13 146.0, 320.89 146.67, 324.66 147.33, 328.43 148.0, 332.2 148.67, 335.98 149.33, 339.76 150.0, 343.54 150.67, 347.32 151.33, 351.11 152.0, 354.89 152.67, 358.67 153.33, 362.45 154.0, 366.23 154.67, 370.01 155.33, 373.78 156.0, 377.54 156.67, 381.3 157.33, 385.06 158.0, 388.81 158.67, 392.55 159.33, 396.29 160.0, 400.01 160.67, 403.73 161.33, 407.44 162.0, 411.14 162.67, 414.83 163.33, 418.51 164.0, 422.17 164.67, 425.83 165.33, 429.47 166.0, 433.1 166.67, 436.72 167.33, 440.32 168.0, 443.91 168.67, 447.49 169.33, 451.05 170.0, 454.6 170.67, 458.13 171.33, 461.64 172.0, 465.14 172.67, 468.63 173.33, 472.09 174.0, 475.54 174.67, 478.97 175.33, 482.39 176.0, 485.78 176.67, 489.16 177.33, 492.52 178.0, 495.86 178.67, 499.18 179.33, 502.48 180.0, 505.76 180.67, 509.02 181.33, 512.26 182.0, 515.48 182.67, 518.68 183.33, 521.86 184.0, 525.02 184.67, 528.16 185.33, 531.28 186.0, 534.37 186.67, 537.45 187.33, 540.5 188.0, 543.53 188.67, 546.54 189.33, 549.52 190.0, 552.48 190.67, 555.42 191.33, 558.34 192.0, 561.24 192.67, 564.11 193.33, 566.96 194.0, 569.79 194.67, 572.59 195.33, 575.37 196.0, 578.13 196.67, 580.86 197.33, 583.57 198.0, 586.26 198.67, 588.92 199.33, 591.56 200.0, 594.18 200.67, 596.77 201.33, 599.34 202.0, 601.88 202.67, 604.4 203.33, 606.9 204.0, 609.37 204.67, 611.82 205.33, 614.25 206.0, 616.65 206.67, 619.03 207.33, 621.38 208.0, 623.71 208.67, 626.02 209.33, 628.3 210.0, 630.56 210.67, 632.79 211.33, 635.01 212.0, 637.19 212.67, 639.36 213.33, 641.5 214.0, 643.61 214.67, 645.71 215.33, 647.77 216.0, 649.82 216.67, 651.84 217.33, 653.84 218.0, 655.82 218.67, 657.77 219.33, 659.7 220.0, 661.6 220.67, 663.49 221.33, 665.34 222.0, 667.18 222.67, 668.99 223.33, 670.79 224.0, 672.55 224.67, 674.3 225.33, 676.02 226.0, 677.72 226.67, 679.4 227.33, 681.05 228.0, 682.69 228.67, 684.3 229.33, 685.89 230.0, 687.45 230.67, 689.0 231.33, 690.52 232.0, 692.02 232.67, 693.5 233.33, 694.96 234.0, 696.4 234.67, 697.82 235.33, 699.21 236.0, 700.59 236.67, 701.94 237.33, 703.27 238.0, 704.58 238.67, 705.87 239.33, 707.14 240.0, 708.39 240.67, 709.62 241.33, 710.83 242.0, 712.02 242.67, 713.19 243.33, 714.34 244.0, 715.47 244.67, 716.59 245.33, 717.68 246.0, 718.75 246.67, 719.8 247.33, 720.84 248.0, 721.85 248.67, 722.85 249.33, 723.83 250.0, 724.79 250.67, 725.73 251.33, 726.66 252.0, 727.56 252.67, 728.45 253.33, 729.32 254.0, 730.17 254.67, 731.01 255.33, 731.82 256.0, 732.62 256.67, 733.41 257.33, 734.17 258.0, 734.92 258.67, 735.66 259.33, 736.37 260.0, 737.07 260.67, 737.76 261.33, 738.42 262.0, 739.08 262.67, 739.71 263.33, 740.33 264.0, 740.94 264.67, 741.53 265.33, 742.1 266.0, 742.66 266.67, 743.2 267.33, 743.73 268.0, 744.25 268.67, 744.75 269.33, 745.23 270.0, 745.7 270.67, 746.16 271.33, 746.6 272.0, 747.03 272.67, 747.45 273.33, 747.85 274.0, 748.24 274.67, 748.62 275.33, 748.98 276.0, 749.33 276.67, 749.66 277.33, 749.99 278.0, 750.3 278.67, 750.6 279.33, 750.88 280.0, 751.16 280.67, 751.42 281.33, 751.67 282.0, 751.91 282.67, 752.14 283.33, 752.35 284.0, 752.56 284.67, 752.75 285.33, 752.93 286.0, 753.11 286.67, 753.27 287.33, 753.42 288.0, 753.56 288.67, 753.69 289.33, 753.81 290.0, 753.92 290.67, 754.01 291.33, 754.1 292.0, 754.18 292.67, 754.25 293.33, 754.32 294.0, 754.37 294.67, 754.41 295.33, 754.44 296.0, 754.47 296.67, 754.48 297.33, 754.49 298.0, 754.49 298.67, 754.48 299.33, 754.46 300.0, 754.44 300.67, 754.4 301.33, 754.36 302.0, 754.31 302.67, 754.26 303.33, 754.19 304.0, 754.12 304.67, 754.04 305.33, 753.96 306.0, 753.87 306.67, 753.77 307.33, 753.66 308.0, 753.55 308.67, 753.43 309.33, 753.3 310.0, 753.17 310.67, 753.03 311.33, 752.89 312.0, 752.74 312.67, 752.59 313.33, 752.43 314.0, 752.26 314.67, 752.09 315.33, 751.91 316.0, 751.73 316.67, 751.54 317.33, 751.35 318.0, 751.15 318.67, 750.95 319.33, 750.75 320.0, 750.54 320.67, 750.32 321.33, 750.1 322.0, 749.88 322.67, 749.65 323.33, 749.42 324.0, 749.19 324.67, 748.95 325.33, 748.71 326.0, 748.46 326.67, 748.22 327.33, 747.96 328.0, 747.71 328.67, 747.45 329.33, 747.19 330.0, 746.93 330.67, 746.66 331.33, 746.39 332.0, 746.12 332.67, 745.84 333.33, 745.57 334.0, 745.29 334.67, 745.01 335.33, 744.72 336.0, 744.44 336.67, 744.15 337.33, 743.86 338.0, 743.57 338.67, 743.28 339.33, 742.99 340.0, 742.69 340.67, 742.4 341.33, 742.1 342.0, 741.8 342.67, 741.5 343.33, 741.2 344.0, 740.9 344.67, 740.6 345.33, 740.3 346.0, 740.0 346.67, 739.69 347.33, 739.39 348.0, 739.08 348.67, 738.78 349.33, 738.47 350.0, 738.17 350.67, 737.86 351.33, 737.56 352.0, 737.26 352.67, 736.95 353.33, 736.65 354.0, 736.34 354.67, 736.04 355.33, 735.74 356.0, 735.44 356.67, 735.13 357.33, 734.83 358.0, 734.53 358.67, 734.24 359.33, 733.94 360.0, 733.64 360.67, 733.35 361.33, 733.05 362.0, 732.76 362.67, 732.47 363.33, 732.18 364.0, 731.89 364.67, 731.6 365.33, 731.31 366.0, 731.03 366.67, 730.75 367.33, 730.47 368.0, 730.19 368.67, 729.91 369.33, 729.64 370.0, 729.36 370.67, 729.09 371.33, 728.83 372.0, 728.56 372.67, 728.3 373.33, 728.03 374.0, 727.78 374.67, 727.52 375.33, 727.26 376.0, 727.01 376.67, 726.76 377.33, 726.52 378.0, 726.27 378.67, 726.03 379.33, 725.8 380.0, 725.56 380.67, 725.33 381.33, 725.1 382.0, 724.88 382.67, 724.65 383.33, 724.43 384.0, 724.22 384.67, 724.0 385.33, 723.79 386.0, 723.59 386.67, 723.38 387.33, 723.18 388.0, 722.99 388.67, 722.79 389.33, 722.61 390.0, 722.42 390.67, 722.24 391.33, 722.06 392.0, 721.88 392.67, 721.71 393.33, 721.55 394.0, 721.38 394.67, 721.22 395.33, 721.07 396.0, 720.92 396.67, 720.77 397.33, 720.63 398.0, 720.49 398.67, 720.35 399.33, 720.22 400.0, 720.09 400.67, 719.97 401.33, 719.85 402.0, 719.74 402.67, 719.63 403.33, 719.52 404.0, 719.42 404.67, 719.32 405.33, 719.23 406.0, 719.14 406.67, 719.06 407.33, 718.98 408.0, 718.9 408.67, 718.83 409.33, 718.76 410.0, 718.7 410.67, 718.64 411.33, 718.59 412.0, 718.54 412.67, 718.5 413.33, 718.46 414.0, 718.43 414.67, 718.4 415.33, 718.38 416.0, 718.36 416.67, 718.34 417.33, 718.33 418.0, 718.33 418.67, 718.33 419.33, 718.33 420.0, 718.34 420.67, 718.35 421.33, 718.37 422.0, 718.39 422.67, 718.42 423.33, 718.46 424.0, 718.5 424.67, 718.54 425.33, 718.59 426.0, 718.64 426.67, 718.7 427.33, 718.76 428.0, 718.83 428.67, 718.9 429.33, 718.98 430.0, 719.06 430.67, 719.15 431.33, 719.24 432.0, 719.34 432.67, 719.45 433.33, 719.55 434.0, 719.67 434.67, 719.78 435.33, 719.91 436.0, 720.04 436.67, 720.17 437.33, 720.31 438.0, 720.45 438.67, 720.6 439.33, 720.75 440.0, 720.91 440.67, 721.07 441.33, 721.24 442.0, 721.41 442.67, 721.59 443.33, 721.78 444.0, 721.96 444.67, 722.16 445.33, 722.36 446.0, 722.56 446.67, 722.77 447.33, 722.98 448.0, 723.2 448.67, 723.42 449.33, 723.65 450.0, 723.88 450.67, 724.12 451.33, 724.36 452.0, 724.61 452.67, 724.86 453.33, 725.12 454.0, 725.38 454.67, 725.65 455.33, 725.92 456.0, 726.2 456.67, 726.48 457.33, 726.77 458.0, 727.06 458.67, 727.35 459.33, 727.66 460.0, 727.96 460.67, 728.27 461.33, 728.59 462.0, 728.91 462.67, 729.23 463.33, 729.56 464.0, 729.89 464.67, 730.23 465.33, 730.58 466.0, 730.92 466.67, 731.28 467.33, 731.63 468.0, 731.99 468.67, 732.36 469.33, 732.73 470.0, 733.1 470.67, 733.48 471.33, 733.87 472.0, 734.26 472.67, 734.65 473.33, 735.05 474.0, 735.45 474.67, 735.85 475.33, 736.26 476.0, 736.68 476.67, 737.09 477.33, 737.52 478.0, 737.94 478.67, 738.37 479.33, 738.81 480.0, 739.25 480.67, 739.69 481.33, 740.14 482.0, 740.59 482.67, 741.05 483.33, 741.5 484.0, 741.97 484.67, 742.43 485.33, 742.91 486.0, 743.38 486.67, 743.86 487.33, 744.34 488.0, 744.83 488.67, 745.32 489.33, 745.81 490.0, 746.31 490.67, 746.81 491.33, 747.31 492.0, 747.82 492.67, 748.33 493.33, 748.85 494.0, 749.37 494.67, 749.89 495.33, 750.41 496.0, 750.94 496.67, 751.47 497.33, 752.01 498.0, 752.55 498.67, 753.09 499.33, 753.63 500.0, 754.18 500.67, 754.73 501.33, 755.29 502.0, 755.85 502.67, 756.41 503.33, 756.97 504.0, 757.53 504.67, 758.1 505.33, 758.68 506.0, 759.25 506.67, 759.83 507.33, 760.41 508.0, 760.99 508.67, 761.58 509.33, 762.16 510.0, 762.76 510.67, 763.35 511.33, 763.94 512.0, 764.54 512.67, 765.14 513.33, 765.75 514.0, 766.35 514.67, 766.96 515.33, 767.57 516.0, 768.18 516.67, 768.8 517.33, 769.41 518.0, 770.03 518.67, 770.65 519.33, 771.27 520.0, 771.9 520.67, 772.52 521.33, 773.15 522.0, 773.78 522.67, 774.42 523.33, 775.05 524.0, 775.68 524.67, 776.32 525.33, 776.96 526.0, 777.6 526.67, 778.24 527.33, 778.88 528.0, 779.53 528.67, 780.18 529.33, 780.82 530.0, 781.47 530.67, 782.12 531.33, 782.77 532.0, 783.43 532.67, 784.08 533.33, 784.73 534.0, 785.39 534.67, 786.05 535.33, 786.7 536.0, 787.36 536.67, 788.02 537.33, 788.68 538.0, 789.34 538.67, 790.0 539.33, 790.67 540.0, 791.33 540.67, 791.99 541.33, 792.66 542.0, 793.32 542.67, 793.99 543.33, 794.65 544.0, 795.32 544.67, 795.98 545.33, 796.65 546.0, 797.32 546.67, 797.98 547.33, 798.65 548.0, 799.32 548.67, 799.98 549.33, 800.65 550.0, 801.32 550.67, 801.98 551.33, 802.65 552.0, 803.32 552.67, 803.98 553.33, 804.65 554.0, 805.32 554.67, 805.98 555.33, 806.65 556.0, 807.31 556.67, 807.97 557.33, 808.64 558.0, 809.3 558.67, 809.96 559.33, 810.62 560.0, 811.28 560.67, 811.94 561.33, 812.6 562.0, 813.26 562.67, 813.92 563.33, 814.57 564.0, 815.23 564.67, 815.88 565.33, 816.54 566.0, 817.19 566.67, 817.84 567.33, 818.49 568.0, 819.14 568.67, 819.78 569.33, 820.43 570.0, 821.07 570.67, 821.71 571.33, 822.36 572.0, 823.0 572.67, 823.63 573.33, 824.27 574.0, 824.9 574.67, 825.54 575.33, 826.17 576.0, 826.8 576.67, 827.42 577.33, 828.05 578.0, 828.67 578.67, 829.29 579.33, 829.91 580.0, 830.53 580.67, 831.15 581.33, 831.76 582.0, 832.37 582.67, 832.98 583.33, 833.58 584.0, 834.19 584.67, 834.79 585.33, 835.39 586.0, 835.99 586.67, 836.58 587.33, 837.17 588.0, 837.76 588.67, 838.35 589.33, 838.93 590.0, 839.51 590.67, 840.09 591.33, 840.67 592.0, 841.24 592.67, 841.81 593.33, 842.38 594.0, 842.94 594.67, 843.5 595.33, 844.06 596.0, 844.61 596.67, 845.17 597.33, 845.71 598.0, 846.26 598.67, 846.8 599.33, 847.34 600.0, 847.88 600.67, 848.41 601.33, 848.94 602.0, 849.46 602.67, 849.99 603.33, 850.51 604.0, 851.02 604.67, 851.53 605.33, 852.04 606.0, 852.55 606.67, 853.05 607.33, 853.54 608.0, 854.04 608.67, 854.53 609.33, 855.01 610.0, 855.49 610.67, 855.97 611.33, 856.45 612.0, 856.92 612.67, 857.38 613.33, 857.85 614.0, 858.31 614.67, 858.76 615.33, 859.21 616.0, 859.66 616.67, 860.1 617.33, 860.54 618.0, 860.97 618.67, 861.4 619.33, 861.82 620.0, 862.25 620.67, 862.66 621.33, 863.07 622.0, 863.48 622.67, 863.89 623.33, 864.29 624.0, 864.68 624.67, 865.07 625.33, 865.46 626.0, 865.84 626.67, 866.21 627.33, 866.58 628.0, 866.95 628.67, 867.31 629.33, 867.67 630.0, 868.03 630.67, 868.37 631.33, 868.72 632.0, 869.06 632.67, 869.39 633.33, 869.72 634.0, 870.04 634.67, 870.36 635.33, 870.68 636.0, 870.99 636.67, 871.29 637.33, 871.59 638.0, 871.89 638.67, 872.18 639.33, 872.46 640.0, 872.74 640.67, 873.02 641.33, 873.29 642.0, 873.55 642.67, 873.81 643.33, 874.07 644.0, 874.32 644.67, 874.56 645.33, 874.8 646.0, 875.03 646.67, 875.26 647.33, 875.49 648.0, 875.7 648.67, 875.92 649.33, 876.12 650.0, 876.33 650.67, 876.52 651.33, 876.72 652.0, 876.9 652.67, 877.08 653.33, 877.26 654.0, 877.43 654.67, 877.59 655.33, 877.75 656.0, 877.91 656.67, 878.06 657.33, 878.2 658.0, 878.34 658.67, 878.47 659.33, 878.6 660.0, 878.72 660.67, 878.83 661.33, 878.95 662.0, 879.05 662.67, 879.15 663.33, 879.24 664.0, 879.33 664.67, 879.42 665.33, 879.49 666.0, 879.57 666.67, 879.63 667.33, 879.69 668.0, 879.75 668.67, 879.8 669.33, 879.84 670.0, 879.88 670.67, 879.92 671.33, 879.94 672.0, 879.97 672.67, 879.98 673.33, 879.99 674.0, 880.0 674.67, 880.0 675.33, 879.99 676.0, 879.98 676.67, 879.97 677.33, 879.94 678.0, 879.92 678.67, 879.88 679.33, 879.84 680.0, 879.8 680.67, 879.75 681.33, 879.69 682.0, 879.63 682.67, 879.57 683.33, 879.49 684.0, 879.42 684.67, 879.33 685.33, 879.25 686.0, 879.15 686.67, 879.05 687.33, 878.95 688.0, 878.84 688.67, 878.72 689.33, 878.6 690.0, 878.47 690.67, 878.34 691.33, 878.2 692.0, 878.06 692.67, 877.91 693.33, 877.76 694.0, 877.6 694.67, 877.43 695.33, 877.26 696.0, 877.08 696.67, 876.9 697.33, 876.72 698.0, 876.53 698.67, 876.33 699.33, 876.13 700.0, 875.92 700.67, 875.71 701.33, 875.49 702.0, 875.26 702.67, 875.04 703.33, 874.8 704.0, 874.56 704.67, 874.32 705.33, 874.07 706.0, 873.82 706.67, 873.56 707.33, 873.29 708.0, 873.02 708.67, 872.75 709.33, 872.47 710.0, 872.18 710.67, 871.89 711.33, 871.6 712.0, 871.3 712.67, 870.99 713.33, 870.68 714.0, 870.37 714.67, 870.05 715.33, 869.72 716.0, 869.39 716.67, 869.06 717.33, 868.72 718.0, 868.38 718.67, 868.03 719.33, 867.68 720.0, 867.32 720.67, 866.96 721.33, 866.59 722.0, 866.22 722.67, 865.84 723.33, 865.46 724.0, 865.07 724.67, 864.68 725.33, 864.29 726.0, 863.89 726.67, 863.49 727.33, 863.08 728.0, 862.67 728.67, 862.25 729.33, 861.83 730.0, 861.4 730.67, 860.97 731.33, 860.54 732.0, 860.1 732.67, 859.66 733.33, 859.21 734.0, 858.76 734.67, 858.31 735.33, 857.85 736.0, 857.39 736.67, 856.92 737.33, 856.45 738.0, 855.98 738.67, 855.5 739.33, 855.02 740.0, 854.53 740.67, 854.04 741.33, 853.55 742.0, 853.05 742.67, 852.55 743.33, 852.05 744.0, 851.54 744.67, 851.03 745.33, 850.51 746.0, 849.99 746.67, 849.47 747.33, 848.94 748.0, 848.41 748.67, 847.88 749.33, 847.35 750.0, 846.81 750.67, 846.27 751.33, 845.72 752.0, 845.17 752.67, 844.62 753.33, 844.06 754.0, 843.51 754.67, 842.95 755.33, 842.38 756.0, 841.81 756.67, 841.25 757.33, 840.67 758.0, 840.1 758.67, 839.52 759.33, 838.94 760.0, 838.35 760.67, 837.77 761.33, 837.18 762.0, 836.59 762.67, 835.99 763.33, 835.4 764.0, 834.8 764.67, 834.2 765.33, 833.59 766.0, 832.99 766.67, 832.38 767.33, 831.77 768.0, 831.15 768.67, 830.54 769.33, 829.92 770.0, 829.3 770.67, 828.68 771.33, 828.06 772.0, 827.43 772.67, 826.8 773.33, 826.18 774.0, 825.54 774.67, 824.91 775.33, 824.28 776.0, 823.64 776.67, 823.0 777.33, 822.36 778.0, 821.72 778.67, 821.08 779.33, 820.44 780.0, 819.79 780.67, 819.15 781.33, 818.5 782.0, 817.85 782.67, 817.2 783.33, 816.55 784.0, 815.89 784.67, 815.24 785.33, 814.58 786.0, 813.93 786.67, 813.27 787.33, 812.61 788.0, 811.96 788.67, 811.3 789.33, 810.64 790.0, 809.97 790.67, 809.31 791.33, 808.65 792.0, 807.99 792.67, 807.32 793.33, 806.66 794.0, 805.99 794.67, 805.33 795.33, 804.66 796.0, 804.0 796.67, 803.33 797.33, 802.67 798.0, 802.0 798.67, 801.33 799.33, 800.67 800.0, 800.0 800.67, 799.33 801.33, 798.67 802.0, 798.0 802.67, 797.33 803.33, 796.67 804.0, 796.0 804.67, 795.34 805.33, 794.67 806.0, 794.01 806.67, 793.34 807.33, 792.68 808.0, 792.01 808.67, 791.35 809.33, 790.69 810.0, 790.03 810.67, 789.36 811.33, 788.7 812.0, 788.04 812.67, 787.39 813.33, 786.73 814.0, 786.07 814.67, 785.42 815.33, 784.76 816.0, 784.11 816.67, 783.45 817.33, 782.8 818.0, 782.15 818.67, 781.5 819.33, 780.85 820.0, 780.21 820.67, 779.56 821.33, 778.92 822.0, 778.28 822.67, 777.64 823.33, 777.0 824.0, 776.36 824.67, 775.72 825.33, 775.09 826.0, 774.46 826.67, 773.82 827.33, 773.2 828.0, 772.57 828.67, 771.94 829.33, 771.32 830.0, 770.7 830.67, 770.08 831.33, 769.46 832.0, 768.85 832.67, 768.23 833.33, 767.62 834.0, 767.01 834.67, 766.41 835.33, 765.8 836.0, 765.2 836.67, 764.6 837.33, 764.01 838.0, 763.41 838.67, 762.82 839.33, 762.23 840.0, 761.65 840.67, 761.06 841.33, 760.48 842.0, 759.9 842.67, 759.33 843.33, 758.75 844.0, 758.19 844.67, 757.62 845.33, 757.05 846.0, 756.49 846.67, 755.94 847.33, 755.38 848.0, 754.83 848.67, 754.28 849.33, 753.73 850.0, 753.19 850.67, 752.65 851.33, 752.12 852.0, 751.59 852.67, 751.06 853.33, 750.53 854.0, 750.01 854.67, 749.49 855.33, 748.97 856.0, 748.46 856.67, 747.95 857.33, 747.45 858.0, 746.95 858.67, 746.45 859.33, 745.96 860.0, 745.47 860.67, 744.98 861.33, 744.5 862.0, 744.02 862.67, 743.55 863.33, 743.08 864.0, 742.61 864.67, 742.15 865.33, 741.69 866.0, 741.24 866.67, 740.79 867.33, 740.34 868.0, 739.9 868.67, 739.46 869.33, 739.03 870.0, 738.6 870.67, 738.17 871.33, 737.75 872.0, 737.33 872.67, 736.92 873.33, 736.51 874.0, 736.11 874.67, 735.71 875.33, 735.32 876.0, 734.93 876.67, 734.54 877.33, 734.16 878.0, 733.78 878.67, 733.41 879.33, 733.04 880.0, 732.68 880.67, 732.32 881.33, 731.97 882.0, 731.62 882.67, 731.28 883.33, 730.94 884.0, 730.61 884.67, 730.28 885.33, 729.95 886.0, 729.63 886.67, 729.32 887.33, 729.01 888.0, 728.7 888.67, 728.4 889.33, 728.11 890.0, 727.82 890.67, 727.53 891.33, 727.25 892.0, 726.98 892.67, 726.71 893.33, 726.44 894.0, 726.18 894.67, 725.93 895.33, 725.68 896.0, 725.44 896.67, 725.2 897.33, 724.96 898.0, 724.74 898.67, 724.51 899.33, 724.29 900.0, 724.08 900.67, 723.87 901.33, 723.67 902.0, 723.47 902.67, 723.28 903.33, 723.1 904.0, 722.92 904.67, 722.74 905.33, 722.57 906.0, 722.4 906.67, 722.24 907.33, 722.09 908.0, 721.94 908.67, 721.8 909.33, 721.66 910.0, 721.53 910.67, 721.4 911.33, 721.28 912.0, 721.16 912.67, 721.05 913.33, 720.95 914.0, 720.85 914.67, 720.75 915.33, 720.67 916.0, 720.58 916.67, 720.51 917.33, 720.43 918.0, 720.37 918.67, 720.31 919.33, 720.25 920.0, 720.2 920.67, 720.16 921.33, 720.12 922.0, 720.08 922.67, 720.06 923.33, 720.03 924.0, 720.02 924.67, 720.01 925.33, 720.0 926.0, 720.0 926.67, 720.01 927.33, 720.02 928.0, 720.03 928.67, 720.06 929.33, 720.08 930.0, 720.12 930.67, 720.16 931.33, 720.2 932.0, 720.25 932.67, 720.31 933.33, 720.37 934.0, 720.43 934.67, 720.51 935.33, 720.58 936.0, 720.67 936.67, 720.76 937.33, 720.85 938.0, 720.95 938.67, 721.05 939.33, 721.17 940.0, 721.28 940.67, 721.4 941.33, 721.53 942.0, 721.66 942.67, 721.8 943.33, 721.94 944.0, 722.09 944.67, 722.25 945.33, 722.41 946.0, 722.57 946.67, 722.74 947.33, 722.92 948.0, 723.1 948.67, 723.28 949.33, 723.48 950.0, 723.67 950.67, 723.88 951.33, 724.08 952.0, 724.3 952.67, 724.51 953.33, 724.74 954.0, 724.97 954.67, 725.2 955.33, 725.44 956.0, 725.68 956.67, 725.93 957.33, 726.19 958.0, 726.45 958.67, 726.71 959.33, 726.98 960.0, 727.26 960.67, 727.54 961.33, 727.82 962.0, 728.11 962.67, 728.41 963.33, 728.71 964.0, 729.01 964.67, 729.32 965.33, 729.64 966.0, 729.96 966.67, 730.28 967.33, 730.61 968.0, 730.94 968.67, 731.28 969.33, 731.63 970.0, 731.97 970.67, 732.33 971.33, 732.69 972.0, 733.05 972.67, 733.42 973.33, 733.79 974.0, 734.16 974.67, 734.54 975.33, 734.93 976.0, 735.32 976.67, 735.71 977.33, 736.11 978.0, 736.52 978.67, 736.93 979.33, 737.34 980.0, 737.75 980.67, 738.18 981.33, 738.6 982.0, 739.03 982.67, 739.46 983.33, 739.9 984.0, 740.34 984.67, 740.79 985.33, 741.24 986.0, 741.69 986.67, 742.15 987.33, 742.62 988.0, 743.08 988.67, 743.55 989.33, 744.03 990.0, 744.51 990.67, 744.99 991.33, 745.47 992.0, 745.96 992.67, 746.46 993.33, 746.95 994.0, 747.45 994.67, 747.96 995.33, 748.47 996.0, 748.98 996.67, 749.49 997.33, 750.01 998.0, 750.54 998.67, 751.06 999.33, 751.59 1000.0, 752.12 1000.67, 752.66 1001.33, 753.2 1002.0, 753.74 1002.67, 754.29 1003.33, 754.83 1004.0, 755.39 1004.67, 755.94 1005.33, 756.5 1006.0, 757.06 1006.67, 757.62 1007.33, 758.19 1008.0, 758.76 1008.67, 759.33 1009.33, 759.91 1010.0, 760.49 1010.67, 761.07 1011.33, 761.65 1012.0, 762.24 1012.67, 762.83 1013.33, 763.42 1014.0, 764.01 1014.67, 764.61 1015.33, 765.21 1016.0, 765.81 1016.67, 766.42 1017.33, 767.02 1018.0, 767.63 1018.67, 768.24 1019.33, 768.85 1020.0, 769.47 1020.67, 770.09 1021.33, 770.71 1022.0, 771.33 1022.67, 771.95 1023.33, 772.58 1024.0, 773.2 1024.67, 773.83 1025.33, 774.46 1026.0, 775.1 1026.67, 775.73 1027.33, 776.37 1028.0, 777.0 1028.67, 777.64 1029.33, 778.29 1030.0, 778.93 1030.67, 779.57 1031.33, 780.22 1032.0, 780.86 1032.67, 781.51 1033.33, 782.16 1034.0, 782.81 1034.67, 783.46 1035.33, 784.12 1036.0, 784.77 1036.67, 785.43 1037.33, 786.08 1038.0, 786.74 1038.67, 787.4 1039.33, 788.06 1040.0, 788.72 1040.67, 789.38 1041.33, 790.04 1042.0, 790.7 1042.67, 791.36 1043.33, 792.03 1044.0, 792.69 1044.67, 793.35 1045.33, 794.02 1046.0, 794.68 1046.67, 795.35 1047.33, 796.02 1048.0, 796.68 1048.67, 797.35 1049.33, 798.02 1050.0, 798.68 1050.67, 799.35 1051.33, 800.02 1052.0, 800.68 1052.67, 801.35 1053.33, 802.02 1054.0, 802.68 1054.67, 803.35 1055.33, 804.02 1056.0, 804.68 1056.67, 805.35 1057.33, 806.01 1058.0, 806.68 1058.67, 807.34 1059.33, 808.01 1060.0, 808.67 1060.67, 809.33 1061.33, 810.0 1062.0, 810.66 1062.67, 811.32 1063.33, 811.98 1064.0, 812.64 1064.67, 813.3 1065.33, 813.95 1066.0, 814.61 1066.67, 815.27 1067.33, 815.92 1068.0, 816.57 1068.67, 817.23 1069.33, 817.88 1070.0, 818.53 1070.67, 819.18 1071.33, 819.82 1072.0, 820.47 1072.67, 821.12 1073.33, 821.76 1074.0, 822.4 1074.67, 823.04 1075.33, 823.68 1076.0, 824.32 1076.67, 824.95 1077.33, 825.58 1078.0, 826.22 1078.67, 826.85 1079.33, 827.48 1080.0, 828.1 1080.67, 828.73 1081.33, 829.35 1082.0, 829.97 1082.67, 830.59 1083.33, 831.2 1084.0, 831.82 1084.67, 832.43 1085.33, 833.04 1086.0, 833.65 1086.67, 834.25 1087.33, 834.86 1088.0, 835.46 1088.67, 836.06 1089.33, 836.65 1090.0, 837.24 1090.67, 837.84 1091.33, 838.42 1092.0, 839.01 1092.67, 839.59 1093.33, 840.17 1094.0, 840.75 1094.67, 841.32 1095.33, 841.9 1096.0, 842.47 1096.67, 843.03 1097.33, 843.59 1098.0, 844.15 1098.67, 844.71 1099.33, 845.27 1100.0, 845.82 1100.67, 846.37 1101.33, 846.91 1102.0, 847.45 1102.67, 847.99 1103.33, 848.53 1104.0, 849.06 1104.67, 849.59 1105.33, 850.11 1106.0, 850.63 1106.67, 851.15 1107.33, 851.67 1108.0, 852.18 1108.67, 852.69 1109.33, 853.19 1110.0, 853.69 1110.67, 854.19 1111.33, 854.68 1112.0, 855.17 1112.67, 855.66 1113.33, 856.14 1114.0, 856.62 1114.67, 857.09 1115.33, 857.57 1116.0, 858.03 1116.67, 858.5 1117.33, 858.95 1118.0, 859.41 1118.67, 859.86 1119.33, 860.31 1120.0, 860.75 1120.67, 861.19 1121.33, 861.63 1122.0, 862.06 1122.67, 862.48 1123.33, 862.91 1124.0, 863.32 1124.67, 863.74 1125.33, 864.15 1126.0, 864.55 1126.67, 864.95 1127.33, 865.35 1128.0, 865.74 1128.67, 866.13 1129.33, 866.52 1130.0, 866.9 1130.67, 867.27 1131.33, 867.64 1132.0, 868.01 1132.67, 868.37 1133.33, 868.72 1134.0, 869.08 1134.67, 869.42 1135.33, 869.77 1136.0, 870.11 1136.67, 870.44 1137.33, 870.77 1138.0, 871.09 1138.67, 871.41 1139.33, 871.73 1140.0, 872.04 1140.67, 872.34 1141.33, 872.65 1142.0, 872.94 1142.67, 873.23 1143.33, 873.52 1144.0, 873.8 1144.67, 874.08 1145.33, 874.35 1146.0, 874.62 1146.67, 874.88 1147.33, 875.14 1148.0, 875.39 1148.67, 875.64 1149.33, 875.88 1150.0, 876.12 1150.67, 876.35 1151.33, 876.58 1152.0, 876.8 1152.67, 877.02 1153.33, 877.23 1154.0, 877.44 1154.67, 877.64 1155.33, 877.84 1156.0, 878.04 1156.67, 878.22 1157.33, 878.41 1158.0, 878.59 1158.67, 878.76 1159.33, 878.93 1160.0, 879.09 1160.67, 879.25 1161.33, 879.4 1162.0, 879.55 1162.67, 879.69 1163.33, 879.83 1164.0, 879.96 1164.67, 880.09 1165.33, 880.22 1166.0, 880.33 1166.67, 880.45 1167.33, 880.55 1168.0, 880.66 1168.67, 880.76 1169.33, 880.85 1170.0, 880.94 1170.67, 881.02 1171.33, 881.1 1172.0, 881.17 1172.67, 881.24 1173.33, 881.3 1174.0, 881.36 1174.67, 881.41 1175.33, 881.46 1176.0, 881.5 1176.67, 881.54 1177.33, 881.58 1178.0, 881.61 1178.67, 881.63 1179.33, 881.65 1180.0, 881.66 1180.67, 881.67 1181.33, 881.67 1182.0, 881.67 1182.67, 881.67 1183.33, 881.66 1184.0, 881.64 1184.67, 881.62 1185.33, 881.6 1186.0, 881.57 1186.67, 881.54 1187.33, 881.5 1188.0, 881.46 1188.67, 881.41 1189.33, 881.36 1190.0, 881.3 1190.67, 881.24 1191.33, 881.17 1192.0, 881.1 1192.67, 881.02 1193.33, 880.94 1194.0, 880.86 1194.67, 880.77 1195.33, 880.68 1196.0, 880.58 1196.67, 880.48 1197.33, 880.37 1198.0, 880.26 1198.67, 880.15 1199.33, 880.03 1200.0, 879.91 1200.67, 879.78 1201.33, 879.65 1202.0, 879.51 1202.67, 879.37 1203.33, 879.23 1204.0, 879.08 1204.67, 878.93 1205.33, 878.78 1206.0, 878.62 1206.67, 878.45 1207.33, 878.29 1208.0, 878.12 1208.67, 877.94 1209.33, 877.76 1210.0, 877.58 1210.67, 877.39 1211.33, 877.21 1212.0, 877.01 1212.67, 876.82 1213.33, 876.62 1214.0, 876.41 1214.67, 876.21 1215.33, 876.0 1216.0, 875.78 1216.67, 875.57 1217.33, 875.35 1218.0, 875.12 1218.67, 874.9 1219.33, 874.67 1220.0, 874.44 1220.67, 874.2 1221.33, 873.97 1222.0, 873.73 1222.67, 873.48 1223.33, 873.24 1224.0, 872.99 1224.67, 872.74 1225.33, 872.48 1226.0, 872.22 1226.67, 871.97 1227.33, 871.7 1228.0, 871.44 1228.67, 871.17 1229.33, 870.91 1230.0, 870.64 1230.67, 870.36 1231.33, 870.09 1232.0, 869.81 1232.67, 869.53 1233.33, 869.25 1234.0, 868.97 1234.67, 868.69 1235.33, 868.4 1236.0, 868.11 1236.67, 867.82 1237.33, 867.53 1238.0, 867.24 1238.67, 866.95 1239.33, 866.65 1240.0, 866.36 1240.67, 866.06 1241.33, 865.76 1242.0, 865.47 1242.67, 865.17 1243.33, 864.87 1244.0, 864.56 1244.67, 864.26 1245.33, 863.96 1246.0, 863.66 1246.67, 863.35 1247.33, 863.05 1248.0, 862.74 1248.67, 862.44 1249.33, 862.14 1250.0, 861.83 1250.67, 861.53 1251.33, 861.22 1252.0, 860.92 1252.67, 860.61 1253.33, 860.31 1254.0, 860.0 1254.67, 859.7 1255.33, 859.4 1256.0, 859.1 1256.67, 858.8 1257.33, 858.5 1258.0, 858.2 1258.67, 857.9 1259.33, 857.6 1260.0, 857.31 1260.67, 857.01 1261.33, 856.72 1262.0, 856.43 1262.67, 856.14 1263.33, 855.85 1264.0, 855.56 1264.67, 855.28 1265.33, 854.99 1266.0, 854.71 1266.67, 854.43 1267.33, 854.16 1268.0, 853.88 1268.67, 853.61 1269.33, 853.34 1270.0, 853.07 1270.67, 852.81 1271.33, 852.55 1272.0, 852.29 1272.67, 852.04 1273.33, 851.78 1274.0, 851.54 1274.67, 851.29 1275.33, 851.05 1276.0, 850.81 1276.67, 850.58 1277.33, 850.35 1278.0, 850.12 1278.67, 849.9 1279.33, 849.68 1280.0, 849.46 1280.67, 849.25 1281.33, 849.05 1282.0, 848.85 1282.67, 848.65 1283.33, 848.46 1284.0, 848.27 1284.67, 848.09 1285.33, 847.91 1286.0, 847.74 1286.67, 847.57 1287.33, 847.41 1288.0, 847.26 1288.67, 847.11 1289.33, 846.97 1290.0, 846.83 1290.67, 846.7 1291.33, 846.57 1292.0, 846.45 1292.67, 846.34 1293.33, 846.23 1294.0, 846.13 1294.67, 846.04 1295.33, 845.96 1296.0, 845.88 1296.67, 845.81 1297.33, 845.74 1298.0, 845.69 1298.67, 845.64 1299.33, 845.6 1300.0, 845.56 1300.67, 845.54 1301.33, 845.52 1302.0, 845.51 1302.67, 845.51 1303.33, 845.52 1304.0, 845.53 1304.67, 845.56 1305.33, 845.59 1306.0, 845.63 1306.67, 845.68 1307.33, 845.75 1308.0, 845.82 1308.67, 845.9 1309.33, 845.99 1310.0, 846.08 1310.67, 846.19 1311.33, 846.31 1312.0, 846.44 1312.67, 846.58 1313.33, 846.73 1314.0, 846.89 1314.67, 847.07 1315.33, 847.25 1316.0, 847.44 1316.67, 847.65 1317.33, 847.86 1318.0, 848.09 1318.67, 848.33 1319.33, 848.58 1320.0, 848.84 1320.67, 849.12 1321.33, 849.4 1322.0, 849.7 1322.67, 850.01 1323.33, 850.34 1324.0, 850.67 1324.67, 851.02 1325.33, 851.38 1326.0, 851.76 1326.67, 852.15 1327.33, 852.55 1328.0, 852.97 1328.67, 853.4 1329.33, 853.84 1330.0, 854.3 1330.67, 854.77 1331.33, 855.25 1332.0, 855.75 1332.67, 856.27 1333.33, 856.8 1334.0, 857.34 1334.67, 857.9 1335.33, 858.47 1336.0, 859.06 1336.67, 859.67 1337.33, 860.29 1338.0, 860.92 1338.67, 861.58 1339.33, 862.24 1340.0, 862.93 1340.67, 863.63 1341.33, 864.34 1342.0, 865.08 1342.67, 865.83 1343.33, 866.59 1344.0, 867.38 1344.67, 868.18 1345.33, 868.99 1346.0, 869.83 1346.67, 870.68 1347.33, 871.55 1348.0, 872.44 1348.67, 873.34 1349.33, 874.27 1350.0, 875.21 1350.67, 876.17 1351.33, 877.15 1352.0, 878.15 1352.67, 879.16 1353.33, 880.2 1354.0, 881.25 1354.67, 882.32 1355.33, 883.41 1356.0, 884.53 1356.67, 885.66 1357.33, 886.81 1358.0, 887.98 1358.67, 889.17 1359.33, 890.38 1360.0, 891.61 1360.67, 892.86 1361.33, 894.13 1362.0, 895.42 1362.67, 896.73 1363.33, 898.06 1364.0, 899.41 1364.67, 900.79 1365.33, 902.18 1366.0, 903.6 1366.67, 905.04 1367.33, 906.5 1368.0, 907.98 1368.67, 909.48 1369.33, 911.0 1370.0, 912.55 1370.67, 914.11 1371.33, 915.7 1372.0, 917.31 1372.67, 918.95 1373.33, 920.6 1374.0, 922.28 1374.67, 923.98 1375.33, 925.7 1376.0, 927.45 1376.67, 929.21 1377.33, 931.01 1378.0, 932.82 1378.67, 934.66 1379.33, 936.51 1380.0, 938.4 1380.67, 940.3 1381.33, 942.23 1382.0, 944.18 1382.67, 946.16 1383.33, 948.16 1384.0, 950.18 1384.67, 952.23 1385.33, 954.29 1386.0, 956.39 1386.67, 958.5 1387.33, 960.64 1388.0, 962.81 1388.67, 964.99 1389.33, 967.21 1390.0, 969.44 1390.67, 971.7 1391.33, 973.98 1392.0, 976.29 1392.67, 978.62 1393.33, 980.97 1394.0, 983.35 1394.67, 985.75 1395.33, 988.18 1396.0, 990.63 1396.67, 993.1 1397.33, 995.6 1398.0, 998.12 1398.67, 1000.66 1399.33, 1003.23 1400.0, 1005.82 1400.67, 1008.44 1401.33, 1011.08 1402.0, 1013.74 1402.67, 1016.43 1403.33, 1019.14 1404.0, 1021.87 1404.67, 1024.63 1405.33, 1027.41 1406.0, 1030.21 1406.67, 1033.04 1407.33, 1035.89 1408.0, 1038.76 1408.67, 1041.66 1409.33, 1044.58 1410.0, 1047.52 1410.67, 1050.48 1411.33, 1053.46 1412.0, 1056.47 1412.67, 1059.5 1413.33, 1062.55 1414.0, 1065.63 1414.67, 1068.72 1415.33, 1071.84 1416.0, 1074.98 1416.67, 1078.14 1417.33, 1081.32 1418.0, 1084.52 1418.67, 1087.74 1419.33, 1090.98 1420.0, 1094.24 1420.67, 1097.52 1421.33, 1100.82 1422.0, 1104.14 1422.67, 1107.48 1423.33, 1110.84 1424.0, 1114.22 1424.67, 1117.61 1425.33, 1121.03 1426.0, 1124.46 1426.67, 1127.91 1427.33, 1131.37 1428.0, 1134.86 1428.67, 1138.36 1429.33, 1141.87 1430.0, 1145.4 1430.67, 1148.95 1431.33, 1152.51 1432.0, 1156.09 1432.67, 1159.68 1433.33, 1163.28 1434.0, 1166.9 1434.67, 1170.53 1435.33, 1174.17 1436.0, 1177.83 1436.67, 1181.49 1437.33, 1185.17 1438.0, 1188.86 1438.67, 1192.56 1439.33, 1196.27 1440.0, 1199.99 1440.67, 1203.71 1441.33, 1207.45 1442.0, 1211.19 1442.67, 1214.94 1443.33, 1218.7 1444.0, 1222.46 1444.67, 1226.22 1445.33, 1229.99 1446.0, 1233.77 1446.67, 1237.55 1447.33, 1241.33 1448.0, 1245.11 1448.67, 1248.89 1449.33, 1252.68 1450.0, 1256.46 1450.67, 1260.24 1451.33, 1264.02 1452.0, 1267.8 1452.67, 1271.57 1453.33, 1275.34 1454.0, 1279.11 1454.67, 1282.87 1455.33, 1286.62 1456.0, 1290.36 1456.67, 1294.1 1457.33, 1297.82 1458.0, 1301.54 1458.67, 1305.24 1459.33, 1308.93 1460.0, 1312.61 1460.67, 1316.27 1461.33, 1319.92 1462.0, 1323.55 1462.67, 1327.16 1463.33, 1330.76 1464.0, 1334.33 1464.67, 1337.88 1465.33, 1341.41 1466.0, 1344.92 1466.67, 1348.4 1467.33, 1351.86 1468.0, 1355.29 1468.67, 1358.69 1469.33, 1362.06 1470.0, 1365.4 1470.67, 1368.71 1471.33, 1371.98 1472.0, 1375.22 1472.67, 1378.42 1473.33, 1381.58 1474.0, 1384.7 1474.67, 1387.78 1475.33, 1390.82 1476.0, 1393.82 1476.67, 1396.76 1477.33, 1399.66 1478.0, 1402.52 1478.67, 1405.32 1479.33, 1408.06 1480.0, 1410.76 1480.67, 1413.39 1481.33, 1415.97 1482.0, 1418.49 1482.67, 1420.95 1483.33, 1423.34 1484.0, 1425.67 1484.67, 1427.93 1485.33, 1430.12 1486.0, 1432.24 1486.67, 1434.29 1487.33, 1436.26 1488.0, 1438.16 1488.67, 1439.97 1489.33, 1441.7 1490.0, 1443.35 1490.67, 1444.91 1491.33, 1446.38 1492.0, 1447.76 1492.67, 1449.04 1493.33, 1450.23 1494.0, 1451.32 1494.67, 1452.32 1495.33, 1453.2 1496.0, 1453.98 1496.67, 1454.65 1497.33, 1455.21 1498.0, 1455.66 1498.67, 1455.99 1499.33, 1456.2 1500.0, 1456.29 1500.67, 1456.25 1501.33, 1456.08 1502.0, 1455.78 1502.67, 1455.35 1503.33, 1454.78 1504.0, 1454.07 1504.67, 1453.22 1505.33, 1452.22 1506.0, 1451.07 1506.67, 1449.76 1507.33, 1448.3 1508.0, 1446.68 1508.67, 1444.9 1509.33, 1442.95 1510.0, 1440.83 1510.67, 1438.53 1511.33, 1436.06 1512.0, 1433.4 1512.67, 1430.56 1513.33, 1427.53 1514.0, 1424.31 1514.67, 1420.89 1515.33, 1417.27 1516.0, 1413.44 1516.67, 1409.41 1517.33, 1405.16 1518.0, 1400.7 1518.67, 1396.01 1519.33, 1391.1 1520.0, 1385.95 1520.67, 1380.58 1521.33, 1374.96 1522.0, 1369.1 1522.67, 1362.99 1523.33, 1356.62 1524.0, 1350.0 1524.67, 1343.12 1525.33, 1335.96 1526.0, 1328.54 1526.67, 1320.83 1527.33, 1312.84 1528.0, 1304.57 1528.67, 1296.0 1529.33, 1287.13 1530.0, 1277.96 1530.67, 1268.47 1531.33, 1258.68 1532.0, 1248.56 1532.67, 1238.11 1533.33, 1227.33 1534.0, 1216.21 1534.67, 1204.75 1535.33, 1192.93 1536.0, 1180.76 1536.67, 1168.23 1537.33, 1155.33 1538.0, 1142.05 1538.67, 1128.39 1539.33, 1114.34 1540.0, 1099.89 1540.67, 1085.05 1541.33, 1069.79 1542.0, 1054.12 1542.67, 1038.02 1543.33, 1021.5 1544.0, 1004.54 1544.67, 987.13 1545.33, 969.27 1546.0, 950.96 1546.67, 932.17 1547.33, 912.91 1548.0, 893.17 1548.67, 872.94 1549.33, 852.22 1550.0, 830.98 1550.67, 809.23 1551.33, 786.96 1552.0, 764.16 1552.67, 740.82 1553.33, 716.93 1554.0, 692.48 1554.67, 667.47 1555.33, 641.88 1556.0, 615.71 1556.67, 588.95 1557.33, 561.58 1558.0, 533.61 1558.67, 505.01 1559.33, 475.78 1560.0, 445.91 1560.67, 415.39 1561.33, 384.22 1562.0, 352.37 1562.67, 319.84 1563.33, 286.62 1564.0, 252.7 1564.67, 218.06 1565.33, 182.7 1566.0, 146.61 1566.67, 109.78 1567.33, 72.19 1568.0, 33.83 1568.67, -5.31 1569.33, -45.24 1570.0, -85.97 1570.67, -127.51 1571.33, -169.88 1572.0, -213.09 1572.67, -257.15 1573.33, -302.07 1574.0, -347.86 1574.67, -394.55 1575.33, -442.13 1576.0, -490.63 1576.67, -540.06 1577.33, -590.43 1578.0, -641.75 1578.67, -694.04 1579.33, -747.31 1580.0, -801.58 1580.67, -856.86 1581.33, -913.17 1582.0, -970.51 1582.67, -1028.9 1583.33, -1088.37 1584.0, -1148.92 1584.67, -1210.56 1585.33, -1273.33 1586.0, -1337.22 1586.67, -1402.26 1587.33, -1468.45 1588.0, -1535.83 1588.67, -1604.4 1589.33, -1674.18 1590.0, -1745.19 1590.67, -1817.45 1591.33, -1890.96 1592.0, -1965.76 1592.67, -2041.85 1593.33, -2119.25 1594.0, -2197.99 1594.67, -2278.07 1595.33, -2359.53 1596.0, -2442.37 1596.67, -2526.61 1597.33, -2612.29 1598.0, -2699.4 1598.67, -2787.98 1599.33, -2878.04 1600.0, -2969.6 " fill="none" stroke="white" stroke-width="1.5" stroke-linejoin="round" stroke-opacity="1"/>

 </svg>