<svg version="1.1" 
 baseProfile="full" 
 width="1600" 
 height="1600" 
 xmlns="http://www.w3.org/2000/svg">
<rect x="0.0" y="0.0" width="1600" height="1600" fill="black" stroke="black" stroke-width="0" opacity="1"/>
<line x1="0.0" y1="0.0" x2="0.0" y2="1600.0" stroke="white" stroke-width="1" opacity="0.4" stroke-linecap="butt"/>
<line x1="160.0" y1="0.0" x2="160.0" y2="1600.0" stroke="white" stroke-width="1" opacity="0.4" stroke-linecap="butt"/>
<line x1="320.0" y1="0.0" x2="320.0" y2="1600.0" stroke="white" stroke-width="1" opacity="0.4" stroke-linecap="butt"/>
<line x1="480.0" y1="0.0" x2="480.0" y2="1600.0" stroke="white" stroke-width="1" opacity="0.4" stroke-linecap="butt"/>
<line x1="640.0" y1="0.0" x2="640.0" y2="1600.0" stroke="white" stroke-width="1" opacity="0.4" stroke-linecap="butt"/>
<line x1="800.0" y1="0.0" x2="800.0" y2="1600.0" stroke="white" stroke-width="1" opacity="0.4" stroke-linecap="butt"/>
<line x1="960.0" y1="0.0" x2="960.0" y2="1600.0" stroke="white" stroke-width="1" opacity="0.4" stroke-linecap="butt"/>
<line x1="1120.0" y1="0.0" x2="1120.0" y2="1600.0" stroke="white" stroke-width="1" opacity="0.4" stroke-linecap="butt"/>
<line x1="1280.0" y1="0.0" x2="1280.0" y2="1600.0" stroke="white" stroke-width="1" opacity="0.4" stroke-linecap="butt"/>
<line x1="1440.0" y1="0.0" x2="1440.0" y2="1600.0" stroke="white" stroke-width="1" opacity="0.4" stroke-linecap="butt"/>
<line x1="0.0" y1="0.0" x2="1600.0" y2="0.0" stroke="white" stroke-width="1" opacity="0.4" stroke-linecap="butt"/>
<line x1="0.0" y1="160.0" x2="1600.0" y2="160.0" stroke="white" stroke-width="1" opacity="0.4" stroke-linecap="butt"/>
<line x1="0.0" y1="320.0" x2="1600.0" y2="320.0" stroke="white" stroke-width="1" opacity="0.4" stroke-linecap="butt"/>
<line x1="0.0" y1="480.0" x2="1600.0" y2="480.0" stroke="white" stroke-width="1" opacity="0.4" stroke-linecap="butt"/>
<line x1="0.0" y1="640.0" x2="1600.0" y2="640.0" stroke="white" stroke-width="1" opacity="0.4" stroke-linecap="butt"/>
<line x1="0.0" y1="800.0" x2="1600.0" y2="800.0" stroke="white" stroke-width="1" opacity="0.4" stroke-linecap="butt"/>
<line x1="0.0" y1="960.0" x2="1600.0" y2="960.0" stroke="white" stroke-width="1" opacity="0.4" stroke-linecap="butt"/>
<line x1="0.0" y1="1120.0" x2="1600.0" y2="1120.0" stroke="white" stroke-width="1" opacity="0.4" stroke-linecap="butt"/>
<line x1="0.0" y1="1280.0" x2="1600.0" y2="1280.0" stroke="white" stroke-width="1" opacity="0.4" stroke-linecap="butt"/>
<line x1="0.0" y1="1440.0" x2="1600.0" y2="1440.0" stroke="white" stroke-width="1" opacity="0.4" stroke-linecap="butt"/>
<line x1="0.0" y1="800.0" x2="1600.0" y2="800.0" stroke="yellow" stroke-width="2.5" opacity="1" stroke-linecap="butt"/>
<line x1="800.0" y1="0.0" x2="800.0" y2="1600.0" stroke="yellow" stroke-width="2.5" opacity="1" stroke-linecap="butt"/>
<polygon points="1564.0 816.0, 1604.0 800.0, 1564.0 784.0, 1572.0 800.0" fill="yellow"/><polygon points="816.0 36.0, 800.0 -4.0, 784.0 36.0, 800.0 28.0" fill="yellow"/><polyline points="0.0, 14205.03 0.67, 14009.6 1.33, 13816.71 2.0, 13626.33 2.67, 13438.43 3.33, 13252.97 4.0, 13069.94 4.67, 12889.3 5.33, 12711.03 6.0, 12535.09 6.67, 12361.47 7.33, 12190.13 8.0, 12021.05 8.67, 11854.19 9.33, 11689.55 10.0, 11527.08 10.67, 11366.76 11.33, 11208.57 12.0, 11052.49 12.67, 10898.48 13.33, 10746.53 14.0, 10596.61 14.67, 10448.69 15.33, 10302.75 16.0, 10158.78 16.67, 10016.73 17.33, 9876.6 18.0, 9738.36 18.67, 9601.98 19.33, 9467.45 20.0, 9334.74 20.67, 9203.83 21.33, 9074.7 22.0, 8947.32 22.67, 8821.69 23.33, 8697.76 24.0, 8575.54 24.67, 8454.98 25.33, 8336.08 26.0, 8218.82 26.67, 8103.16 27.33, 7989.11 28.0, 7876.62 28.67, 7765.7 29.33, 7656.31 30.0, 7548.44 30.67, 7442.06 31.33, 7337.17 32.0, 7233.74 32.67, 7131.76 33.33, 7031.2 34.0, 6932.06 34.67, 6834.3 35.33, 6737.92 36.0, 6642.9 36.67, 6549.22 37.33, 6456.86 38.0, 6365.81 38.67, 6276.06 39.33, 6187.58 40.0, 6100.36 40.67, 6014.38 41.33, 5929.63 42.0, 5846.09 42.67, 5763.76 43.33, 5682.6 44.0, 5602.61 44.67, 5523.78 45.33, 5446.08 46.0, 5369.51 46.67, 5294.05 47.33, 5219.68 48.0, 5146.39 48.67, 5074.18 49.33, 5003.01 50.0, 4932.89 50.67, 4863.8 51.33, 4795.72 52.0, 4728.64 52.67, 4662.55 53.33, 4597.43 54.0, 4533.28 54.67, 4470.08 55.33, 4407.82 56.0, 4346.48 56.67, 4286.06 57.33, 4226.54 58.0, 4167.91 58.67, 4110.16 59.33, 4053.28 60.0, 3997.25 60.67, 3942.07 61.33, 3887.72 62.0, 3834.2 62.67, 3781.48 63.33, 3729.57 64.0, 3678.45 64.67, 3628.11 65.33, 3578.54 66.0, 3529.73 66.67, 3481.66 67.33, 3434.34 68.0, 3387.75 68.67, 3341.87 69.33, 3296.71 70.0, 3252.25 70.67, 3208.48 71.33, 3165.39 72.0, 3122.97 72.67, 3081.22 73.33, 3040.12 74.0, 2999.67 74.67, 2959.85 75.33, 2920.67 76.0, 2882.1 76.67, 2844.14 77.33, 2806.79 78.0, 2770.03 78.67, 2733.86 79.33, 2698.27 80.0, 2663.24 80.67, 2628.78 81.33, 2594.87 82.0, 2561.51 82.67, 2528.7 83.33, 2496.41 84.0, 2464.64 84.67, 2433.4 85.33, 2402.66 86.0, 2372.43 86.67, 2342.69 87.33, 2313.44 88.0, 2284.67 88.67, 2256.38 89.33, 2228.55 90.0, 2201.19 90.67, 2174.28 91.33, 2147.83 92.0, 2121.81 92.67, 2096.23 93.33, 2071.08 94.0, 2046.35 94.67, 2022.04 95.33, 1998.14 96.0, 1974.64 96.67, 1951.55 97.33, 1928.84 98.0, 1906.53 98.67, 1884.6 99.33, 1863.04 100.0, 1841.86 100.67, 1821.04 101.33, 1800.59 102.0, 1780.48 102.67, 1760.73 103.33, 1741.32 104.0, 1722.25 104.67, 1703.52 105.33, 1685.11 106.0, 1667.03 106.67, 1649.27 107.33, 1631.83 108.0, 1614.69 108.67, 1597.86 109.33, 1581.33 110.0, 1565.1 110.67, 1549.16 111.33, 1533.5 112.0, 1518.13 112.67, 1503.04 113.33, 1488.22 114.0, 1473.67 114.67, 1459.39 115.33, 1445.37 116.0, 1431.6 116.67, 1418.09 117.33, 1404.84 118.0, 1391.82 118.67, 1379.05 119.33, 1366.52 120.0, 1354.22 120.67, 1342.15 121.33, 1330.31 122.0, 1318.7 122.67, 1307.3 123.33, 1296.12 124.0, 1285.15 124.67, 1274.39 125.33, 1263.84 126.0, 1253.5 126.67, 1243.35 127.33, 1233.4 128.0, 1223.64 128.67, 1214.07 129.33, 1204.69 130.0, 1195.49 130.67, 1186.47 131.33, 1177.64 132.0, 1168.97 132.67, 1160.48 133.33, 1152.16 134.0, 1144.01 134.67, 1136.01 135.33, 1128.18 136.0, 1120.51 136.67, 1112.99 137.33, 1105.63 138.0, 1098.42 138.67, 1091.35 139.33, 1084.43 140.0, 1077.65 140.67, 1071.02 141.33, 1064.52 142.0, 1058.15 142.67, 1051.92 143.33, 1045.82 144.0, 1039.85 144.67, 1034.01 145.33, 1028.29 146.0, 1022.69 146.67, 1017.21 147.33, 1011.85 148.0, 1006.6 148.67, 1001.47 149.33, 996.45 150.0, 991.54 150.67, 986.74 151.33, 982.04 152.0, 977.44 152.67, 972.95 153.33, 968.56 154.0, 964.26 154.67, 960.06 155.33, 955.96 156.0, 951.95 156.67, 948.03 157.33, 944.19 158.0, 940.45 158.67, 936.79 159.33, 933.22 160.0, 929.73 160.67, 926.31 161.33, 922.98 162.0, 919.73 162.67, 916.55 163.33, 913.45 164.0, 910.42 164.67, 907.47 165.33, 904.58 166.0, 901.77 166.67, 899.02 167.33, 896.33 168.0, 893.72 168.67, 891.16 169.33, 888.67 170.0, 886.24 170.67, 883.88 171.33, 881.56 172.0, 879.31 172.67, 877.11 173.33, 874.97 174.0, 872.89 174.67, 870.85 175.33, 868.87 176.0, 866.94 176.67, 865.05 177.33, 863.22 178.0, 861.43 178.67, 859.69 179.33, 857.99 180.0, 856.34 180.67, 854.74 181.33, 853.17 182.0, 851.65 182.67, 850.16 183.33, 848.72 184.0, 847.32 184.67, 845.95 185.33, 844.62 186.0, 843.32 186.67, 842.06 187.33, 840.84 188.0, 839.65 188.67, 838.49 189.33, 837.36 190.0, 836.27 190.67, 835.2 191.33, 834.17 192.0, 833.16 192.67, 832.18 193.33, 831.23 194.0, 830.31 194.67, 829.41 195.33, 828.54 196.0, 827.69 196.67, 826.87 197.33, 826.07 198.0, 825.29 198.67, 824.53 199.33, 823.8 200.0, 823.09 200.67, 822.39 201.33, 821.72 202.0, 821.07 202.67, 820.43 203.33, 819.82 204.0, 819.22 204.67, 818.64 205.33, 818.07 206.0, 817.52 206.67, 816.99 207.33, 816.47 208.0, 815.97 208.67, 815.48 209.33, 815.0 210.0, 814.54 210.67, 814.09 211.33, 813.66 212.0, 813.23 212.67, 812.82 213.33, 812.42 214.0, 812.02 214.67, 811.64 215.33, 811.27 216.0, 810.91 216.67, 810.56 217.33, 810.21 218.0, 809.88 218.67, 809.55 219.33, 809.24 220.0, 808.92 220.67, 808.62 221.33, 808.32 222.0, 808.03 222.67, 807.75 223.33, 807.47 224.0, 807.2 224.67, 806.93 225.33, 806.67 226.0, 806.41 226.67, 806.16 227.33, 805.92 228.0, 805.67 228.67, 805.43 229.33, 805.2 230.0, 804.96 230.67, 804.74 231.33, 804.51 232.0, 804.29 232.67, 804.06 233.33, 803.85 234.0, 803.63 234.67, 803.42 235.33, 803.2 236.0, 802.99 236.67, 802.78 237.33, 802.57 238.0, 802.37 238.67, 802.16 239.33, 801.96 240.0, 801.75 240.67, 801.55 241.33, 801.34 242.0, 801.14 242.67, 800.93 243.33, 800.73 244.0, 800.52 244.67, 800.32 245.33, 800.11 246.0, 799.91 246.67, 799.7 247.33, 799.49 248.0, 799.28 248.67, 799.07 249.33, 798.86 250.0, 798.65 250.67, 798.44 251.33, 798.22 252.0, 798.01 252.67, 797.79 253.33, 797.57 254.0, 797.35 254.67, 797.12 255.33, 796.9 256.0, 796.67 256.67, 796.44 257.33, 796.21 258.0, 795.97 258.67, 795.74 259.33, 795.5 260.0, 795.26 260.67, 795.02 261.33, 794.77 262.0, 794.52 262.67, 794.27 263.33, 794.02 264.0, 793.76 264.67, 793.5 265.33, 793.24 266.0, 792.98 266.67, 792.71 267.33, 792.44 268.0, 792.17 268.67, 791.9 269.33, 791.62 270.0, 791.34 270.67, 791.05 271.33, 790.77 272.0, 790.48 272.67, 790.19 273.33, 789.89 274.0, 789.59 274.67, 789.29 275.33, 788.99 276.0, 788.68 276.67, 788.37 277.33, 788.06 278.0, 787.75 278.67, 787.43 279.33, 787.11 280.0, 786.78 280.67, 786.46 281.33, 786.13 282.0, 785.79 282.67, 785.46 283.33, 785.12 284.0, 784.78 284.67, 784.44 285.33, 784.09 286.0, 783.74 286.67, 783.39 287.33, 783.04 288.0, 782.68 288.67, 782.32 289.33, 781.96 290.0, 781.59 290.67, 781.22 291.33, 780.85 292.0, 780.48 292.67, 780.11 293.33, 779.73 294.0, 779.35 294.67, 778.97 295.33, 778.58 296.0, 778.2 296.67, 777.81 297.33, 777.42 298.0, 777.02 298.67, 776.63 299.33, 776.23 300.0, 775.83 300.67, 775.43 301.33, 775.03 302.0, 774.62 302.67, 774.22 303.33, 773.81 304.0, 773.4 304.67, 772.98 305.33, 772.57 306.0, 772.15 306.67, 771.74 307.33, 771.32 308.0, 770.9 308.67, 770.47 309.33, 770.05 310.0, 769.63 310.67, 769.2 311.33, 768.77 312.0, 768.34 312.67, 767.91 313.33, 767.48 314.0, 767.05 314.67, 766.62 315.33, 766.18 316.0, 765.75 316.67, 765.31 317.33, 764.88 318.0, 764.44 318.67, 764.0 319.33, 763.56 320.0, 763.12 320.67, 762.68 321.33, 762.24 322.0, 761.8 322.67, 761.36 323.33, 760.92 324.0, 760.48 324.67, 760.03 325.33, 759.59 326.0, 759.15 326.67, 758.71 327.33, 758.27 328.0, 757.82 328.67, 757.38 329.33, 756.94 330.0, 756.5 330.67, 756.06 331.33, 755.61 332.0, 755.17 332.67, 754.73 333.33, 754.29 334.0, 753.85 334.67, 753.41 335.33, 752.98 336.0, 752.54 336.67, 752.1 337.33, 751.67 338.0, 751.23 338.67, 750.8 339.33, 750.36 340.0, 749.93 340.67, 749.5 341.33, 749.07 342.0, 748.64 342.67, 748.21 343.33, 747.79 344.0, 747.36 344.67, 746.94 345.33, 746.52 346.0, 746.1 346.67, 745.68 347.33, 745.26 348.0, 744.84 348.67, 744.43 349.33, 744.02 350.0, 743.61 350.67, 743.2 351.33, 742.79 352.0, 742.39 352.67, 741.98 353.33, 741.58 354.0, 741.19 354.67, 740.79 355.33, 740.39 356.0, 740.0 356.67, 739.61 357.33, 739.23 358.0, 738.84 358.67, 738.46 359.33, 738.08 360.0, 737.7 360.67, 737.33 361.33, 736.95 362.0, 736.58 362.67, 736.22 363.33, 735.85 364.0, 735.49 364.67, 735.13 365.33, 734.78 366.0, 734.43 366.67, 734.08 367.33, 733.73 368.0, 733.39 368.67, 733.05 369.33, 732.71 370.0, 732.38 370.67, 732.05 371.33, 731.72 372.0, 731.39 372.67, 731.07 373.33, 730.76 374.0, 730.44 374.67, 730.13 375.33, 729.83 376.0, 729.52 376.67, 729.22 377.33, 728.93 378.0, 728.63 378.67, 728.35 379.33, 728.06 380.0, 727.78 380.67, 727.5 381.33, 727.23 382.0, 726.96 382.67, 726.69 383.33, 726.43 384.0, 726.17 384.67, 725.92 385.33, 725.67 386.0, 725.43 386.67, 725.18 387.33, 724.95 388.0, 724.71 388.67, 724.49 389.33, 724.26 390.0, 724.04 390.67, 723.83 391.33, 723.61 392.0, 723.41 392.67, 723.2 393.33, 723.0 394.0, 722.81 394.67, 722.62 395.33, 722.44 396.0, 722.26 396.67, 722.08 397.33, 721.91 398.0, 721.74 398.67, 721.58 399.33, 721.42 400.0, 721.27 400.67, 721.12 401.33, 720.98 402.0, 720.84 402.67, 720.7 403.33, 720.57 404.0, 720.45 404.67, 720.33 405.33, 720.22 406.0, 720.11 406.67, 720.0 407.33, 719.9 408.0, 719.8 408.67, 719.71 409.33, 719.63 410.0, 719.55 410.67, 719.47 411.33, 719.4 412.0, 719.34 412.67, 719.28 413.33, 719.22 414.0, 719.17 414.67, 719.12 415.33, 719.08 416.0, 719.05 416.67, 719.02 417.33, 718.99 418.0, 718.97 418.67, 718.96 419.33, 718.95 420.0, 718.94 420.67, 718.94 421.33, 718.95 422.0, 718.96 422.67, 718.97 423.33, 719.0 424.0, 719.02 424.67, 719.05 425.33, 719.09 426.0, 719.13 426.67, 719.18 427.33, 719.23 428.0, 719.29 428.67, 719.35 429.33, 719.42 430.0, 719.49 430.67, 719.57 431.33, 719.65 432.0, 719.74 432.67, 719.83 433.33, 719.93 434.0, 720.04 434.67, 720.15 435.33, 720.26 436.0, 720.38 436.67, 720.51 437.33, 720.64 438.0, 720.77 438.67, 720.91 439.33, 721.06 440.0, 721.21 440.67, 721.36 441.33, 721.53 442.0, 721.69 442.67, 721.86 443.33, 722.04 444.0, 722.22 444.67, 722.41 445.33, 722.6 446.0, 722.8 446.67, 723.0 447.33, 723.21 448.0, 723.42 448.67, 723.64 449.33, 723.86 450.0, 724.09 450.67, 724.32 451.33, 724.56 452.0, 724.8 452.67, 725.05 453.33, 725.3 454.0, 725.56 454.67, 725.82 455.33, 726.09 456.0, 726.36 456.67, 726.64 457.33, 726.92 458.0, 727.21 458.67, 727.5 459.33, 727.8 460.0, 728.1 460.67, 728.41 461.33, 728.72 462.0, 729.04 462.67, 729.36 463.33, 729.69 464.0, 730.02 464.67, 730.35 465.33, 730.69 466.0, 731.04 466.67, 731.39 467.33, 731.74 468.0, 732.1 468.67, 732.46 469.33, 732.83 470.0, 733.2 470.67, 733.58 471.33, 733.96 472.0, 734.35 472.67, 734.74 473.33, 735.13 474.0, 735.53 474.67, 735.93 475.33, 736.34 476.0, 736.75 476.67, 737.17 477.33, 737.59 478.0, 738.01 478.67, 738.44 479.33, 738.88 480.0, 739.31 480.67, 739.75 481.33, 740.2 482.0, 740.65 482.67, 741.1 483.33, 741.56 484.0, 742.02 484.67, 742.49 485.33, 742.96 486.0, 743.43 486.67, 743.91 487.33, 744.39 488.0, 744.87 488.67, 745.36 489.33, 745.85 490.0, 746.35 490.67, 746.85 491.33, 747.35 492.0, 747.86 492.67, 748.37 493.33, 748.88 494.0, 749.4 494.67, 749.92 495.33, 750.45 496.0, 750.98 496.67, 751.51 497.33, 752.04 498.0, 752.58 498.67, 753.12 499.33, 753.66 500.0, 754.21 500.67, 754.76 501.33, 755.31 502.0, 755.87 502.67, 756.43 503.33, 756.99 504.0, 757.56 504.67, 758.13 505.33, 758.7 506.0, 759.27 506.67, 759.85 507.33, 760.43 508.0, 761.01 508.67, 761.6 509.33, 762.18 510.0, 762.77 510.67, 763.37 511.33, 763.96 512.0, 764.56 512.67, 765.16 513.33, 765.76 514.0, 766.37 514.67, 766.97 515.33, 767.58 516.0, 768.2 516.67, 768.81 517.33, 769.43 518.0, 770.04 518.67, 770.66 519.33, 771.29 520.0, 771.91 520.67, 772.54 521.33, 773.16 522.0, 773.79 522.67, 774.43 523.33, 775.06 524.0, 775.69 524.67, 776.33 525.33, 776.97 526.0, 777.61 526.67, 778.25 527.33, 778.89 528.0, 779.54 528.67, 780.18 529.33, 780.83 530.0, 781.48 530.67, 782.13 531.33, 782.78 532.0, 783.43 532.67, 784.09 533.33, 784.74 534.0, 785.39 534.67, 786.05 535.33, 786.71 536.0, 787.37 536.67, 788.03 537.33, 788.69 538.0, 789.35 538.67, 790.01 539.33, 790.67 540.0, 791.33 540.67, 792.0 541.33, 792.66 542.0, 793.33 542.67, 793.99 543.33, 794.66 544.0, 795.32 544.67, 795.99 545.33, 796.65 546.0, 797.32 546.67, 797.99 547.33, 798.65 548.0, 799.32 548.67, 799.99 549.33, 800.65 550.0, 801.32 550.67, 801.99 551.33, 802.65 552.0, 803.32 552.67, 803.99 553.33, 804.65 554.0, 805.32 554.67, 805.98 555.33, 806.65 556.0, 807.31 556.67, 807.98 557.33, 808.64 558.0, 809.3 558.67, 809.96 559.33, 810.63 560.0, 811.29 560.67, 811.95 561.33, 812.6 562.0, 813.26 562.67, 813.92 563.33, 814.58 564.0, 815.23 564.67, 815.88 565.33, 816.54 566.0, 817.19 566.67, 817.84 567.33, 818.49 568.0, 819.14 568.67, 819.78 569.33, 820.43 570.0, 821.07 570.67, 821.72 571.33, 822.36 572.0, 823.0 572.67, 823.63 573.33, 824.27 574.0, 824.9 574.67, 825.54 575.33, 826.17 576.0, 826.8 576.67, 827.42 577.33, 828.05 578.0, 828.67 578.67, 829.29 579.33, 829.91 580.0, 830.53 580.67, 831.15 581.33, 831.76 582.0, 832.37 582.67, 832.98 583.33, 833.59 584.0, 834.19 584.67, 834.79 585.33, 835.39 586.0, 835.99 586.67, 836.58 587.33, 837.17 588.0, 837.76 588.67, 838.35 589.33, 838.93 590.0, 839.51 590.67, 840.09 591.33, 840.67 592.0, 841.24 592.67, 841.81 593.33, 842.38 594.0, 842.94 594.67, 843.5 595.33, 844.06 596.0, 844.61 596.67, 845.17 597.33, 845.71 598.0, 846.26 598.67, 846.8 599.33, 847.34 600.0, 847.88 600.67, 848.41 601.33, 848.94 602.0, 849.46 602.67, 849.99 603.33, 850.51 604.0, 851.02 604.67, 851.53 605.33, 852.04 606.0, 852.55 606.67, 853.05 607.33, 853.54 608.0, 854.04 608.67, 854.53 609.33, 855.01 610.0, 855.49 610.67, 855.97 611.33, 856.45 612.0, 856.92 612.67, 857.38 613.33, 857.85 614.0, 858.31 614.67, 858.76 615.33, 859.21 616.0, 859.66 616.67, 860.1 617.33, 860.54 618.0, 860.97 618.67, 861.4 619.33, 861.82 620.0, 862.25 620.67, 862.66 621.33, 863.07 622.0, 863.48 622.67, 863.89 623.33, 864.29 624.0, 864.68 624.67, 865.07 625.33, 865.46 626.0, 865.84 626.67, 866.21 627.33, 866.58 628.0, 866.95 628.67, 867.31 629.33, 867.67 630.0, 868.03 630.67, 868.37 631.33, 868.72 632.0, 869.06 632.67, 869.39 633.33, 869.72 634.0, 870.04 634.67, 870.36 635.33, 870.68 636.0, 870.99 636.67, 871.29 637.33, 871.59 638.0, 871.89 638.67, 872.18 639.33, 872.46 640.0, 872.74 640.67, 873.02 641.33, 873.29 642.0, 873.55 642.67, 873.81 643.33, 874.07 644.0, 874.32 644.67, 874.56 645.33, 874.8 646.0, 875.03 646.67, 875.26 647.33, 875.49 648.0, 875.7 648.67, 875.92 649.33, 876.12 650.0, 876.33 650.67, 876.52 651.33, 876.72 652.0, 876.9 652.67, 877.08 653.33, 877.26 654.0, 877.43 654.67, 877.59 655.33, 877.75 656.0, 877.91 656.67, 878.06 657.33, 878.2 658.0, 878.34 658.67, 878.47 659.33, 878.6 660.0, 878.72 660.67, 878.83 661.33, 878.95 662.0, 879.05 662.67, 879.15 663.33, 879.24 664.0, 879.33 664.67, 879.42 665.33, 879.49 666.0, 879.57 666.67, 879.63 667.33, 879.69 668.0, 879.75 668.67, 879.8 669.33, 879.84 670.0, 879.88 670.67, 879.92 671.33, 879.94 672.0, 879.97 672.67, 879.98 673.33, 879.99 674.0, 880.0 674.67, 880.0 675.33, 879.99 676.0, 879.98 676.67, 879.97 677.33, 879.94 678.0, 879.92 678.67, 879.88 679.33, 879.84 680.0, 879.8 680.67, 879.75 681.33, 879.69 682.0, 879.63 682.67, 879.57 683.33, 879.49 684.0, 879.42 684.67, 879.33 685.33, 879.25 686.0, 879.15 686.67, 879.05 687.33, 878.95 688.0, 878.84 688.67, 878.72 689.33, 878.6 690.0, 878.47 690.67, 878.34 691.33, 878.2 692.0, 878.06 692.67, 877.91 693.33, 877.76 694.0, 877.6 694.67, 877.43 695.33, 877.26 696.0, 877.08 696.67, 876.9 697.33, 876.72 698.0, 876.53 698.67, 876.33 699.33, 876.13 700.0, 875.92 700.67, 875.71 701.33, 875.49 702.0, 875.26 702.67, 875.04 703.33, 874.8 704.0, 874.56 704.67, 874.32 705.33, 874.07 706.0, 873.82 706.67, 873.56 707.33, 873.29 708.0, 873.02 708.67, 872.75 709.33, 872.47 710.0, 872.18 710.67, 871.89 711.33, 871.6 712.0, 871.3 712.67, 870.99 713.33, 870.68 714.0, 870.37 714.67, 870.05 715.33, 869.72 716.0, 869.39 716.67, 869.06 717.33, 868.72 718.0, 868.38 718.67, 868.03 719.33, 867.68 720.0, 867.32 720.67, 866.96 721.33, 866.59 722.0, 866.22 722.67, 865.84 723.33, 865.46 724.0, 865.07 724.67, 864.68 725.33, 864.29 726.0, 863.89 726.67, 863.49 727.33, 863.08 728.0, 862.67 728.67, 862.25 729.33, 861.83 730.0, 861.4 730.67, 860.97 731.33, 860.54 732.0, 860.1 732.67, 859.66 733.33, 859.21 734.0, 858.76 734.67, 858.31 735.33, 857.85 736.0, 857.39 736.67, 856.92 737.33, 856.45 738.0, 855.98 738.67, 855.5 739.33, 855.02 740.0, 854.53 740.67, 854.04 741.33, 853.55 742.0, 853.05 742.67, 852.55 743.33, 852.05 744.0, 851.54 744.67, 851.03 745.33, 850.51 746.0, 849.99 746.67, 849.47 747.33, 848.94 748.0, 848.41 748.67, 847.88 749.33, 847.35 750.0, 846.81 750.67, 846.27 751.33, 845.72 752.0, 845.17 752.67, 844.62 753.33, 844.06 754.0, 843.51 754.67, 842.95 755.33, 842.38 756.0, 841.81 756.67, 841.25 757.33, 840.67 758.0, 840.1 758.67, 839.52 759.33, 838.94 760.0, 838.35 760.67, 837.77 761.33, 837.18 762.0, 836.59 762.67, 835.99 763.33, 835.4 764.0, 834.8 764.67, 834.2 765.33, 833.59 766.0, 832.99 766.67, 832.38 767.33, 831.77 768.0, 831.15 768.67, 830.54 769.33, 829.92 770.0, 829.3 770.67, 828.68 771.33, 828.06 772.0, 827.43 772.67, 826.8 773.33, 826.18 774.0, 825.54 774.67, 824.91 775.33, 824.28 776.0, 823.64 776.67, 823.0 777.33, 822.36 778.0, 821.72 778.67, 821.08 779.33, 820.44 780.0, 819.79 780.67, 819.15 781.33, 818.5 782.0, 817.85 782.67, 817.2 783.33, 816.55 784.0, 815.89 784.67, 815.24 785.33, 814.58 786.0, 813.93 786.67, 813.27 787.33, 812.61 788.0, 811.96 788.67, 811.3 789.33, 810.64 790.0, 809.97 790.67, 809.31 791.33, 808.65 792.0, 807.99 792.67, 807.32 793.33, 806.66 794.0, 805.99 794.67, 805.33 795.33, 804.66 796.0, 804.0 796.67, 803.33 797.33, 802.67 798.0, 802.0 798.67, 801.33 799.33, 800.67 800.0, 800.0 800.67, 799.33 801.33, 798.67 802.0, 798.0 802.67, 797.33 803.33, 796.67 804.0, 796.0 804.67, 795.34 805.33, 794.67 806.0, 794.01 806.67, 793.34 807.33, 792.68 808.0, 792.01 808.67, 791.35 809.33, 790.69 810.0, 790.03 810.67, 789.36 811.33, 788.7 812.0, 788.04 812.67, 787.39 813.33, 786.73 814.0, 786.07 814.67, 785.42 815.33, 784.76 816.0, 784.11 816.67, 783.45 817.33, 782.8 818.0, 782.15 818.67, 781.5 819.33, 780.85 820.0, 780.21 820.67, 779.56 821.33, 778.92 822.0, 778.28 822.67, 777.64 823.33, 777.0 824.0, 776.36 824.67, 775.72 825.33, 775.09 826.0, 774.46 826.67, 773.82 827.33, 773.2 828.0, 772.57 828.67, 771.94 829.33, 771.32 830.0, 770.7 830.67, 770.08 831.33, 769.46 832.0, 768.85 832.67, 768.23 833.33, 767.62 834.0, 767.01 834.67, 766.41 835.33, 765.8 836.0, 765.2 836.67, 764.6 837.33, 764.01 838.0, 763.41 838.67, 762.82 839.33, 762.23 840.0, 761.65 840.67, 761.06 841.33, 760.48 842.0, 759.9 842.67, 759.33 843.33, 758.75 844.0, 758.19 844.67, 757.62 845.33, 757.05 846.0, 756.49 846.67, 755.94 847.33, 755.38 848.0, 754.83 848.67, 754.28 849.33, 753.73 850.0, 753.19 850.67, 752.65 851.33, 752.12 852.0, 751.59 852.67, 751.06 853.33, 750.53 854.0, 750.01 854.67, 749.49 855.33, 748.97 856.0, 748.46 856.67, 747.95 857.33, 747.45 858.0, 746.95 858.67, 746.45 859.33, 745.96 860.0, 745.47 860.67, 744.98 861.33, 744.5 862.0, 744.02 862.67, 743.55 863.33, 743.08 864.0, 742.61 864.67, 742.15 865.33, 741.69 866.0, 741.24 866.67, 740.79 867.33, 740.34 868.0, 739.9 868.67, 739.46 869.33, 739.03 870.0, 738.6 870.67, 738.17 871.33, 737.75 872.0, 737.33 872.67, 736.92 873.33, 736.51 874.0, 736.11 874.67, 735.71 875.33, 735.32 876.0, 734.93 876.67, 734.54 877.33, 734.16 878.0, 733.78 878.67, 733.41 879.33, 733.04 880.0, 732.68 880.67, 732.32 881.33, 731.97 882.0, 731.62 882.67, 731.28 883.33, 730.94 884.0, 730.61 884.67, 730.28 885.33, 729.95 886.0, 729.63 886.67, 729.32 887.33, 729.01 888.0, 728.7 888.67, 728.4 889.33, 728.11 890.0, 727.82 890.67, 727.53 891.33, 727.25 892.0, 726.98 892.67, 726.71 893.33, 726.44 894.0, 726.18 894.67, 725.93 895.33, 725.68 896.0, 725.44 896.67, 725.2 897.33, 724.96 898.0, 724.74 898.67, 724.51 899.33, 724.29 900.0, 724.08 900.67, 723.87 901.33, 723.67 902.0, 723.47 902.67, 723.28 903.33, 723.1 904.0, 722.92 904.67, 722.74 905.33, 722.57 906.0, 722.4 906.67, 722.24 907.33, 722.09 908.0, 721.94 908.67, 721.8 909.33, 721.66 910.0, 721.53 910.67, 721.4 911.33, 721.28 912.0, 721.16 912.67, 721.05 913.33, 720.95 914.0, 720.85 914.67, 720.75 915.33, 720.67 916.0, 720.58 916.67, 720.51 917.33, 720.43 918.0, 720.37 918.67, 720.31 919.33, 720.25 920.0, 720.2 920.67, 720.16 921.33, 720.12 922.0, 720.08 922.67, 720.06 923.33, 720.03 924.0, 720.02 924.67, 720.01 925.33, 720.0 926.0, 720.0 926.67, 720.01 927.33, 720.02 928.0, 720.03 928.67, 720.06 929.33, 720.08 930.0, 720.12 930.67, 720.16 931.33, 720.2 932.0, 720.25 932.67, 720.31 933.33, 720.37 934.0, 720.43 934.67, 720.51 935.33, 720.58 936.0, 720.67 936.67, 720.76 937.33, 720.85 938.0, 720.95 938.67, 721.05 939.33, 721.17 940.0, 721.28 940.67, 721.4 941.33, 721.53 942.0, 721.66 942.67, 721.8 943.33, 721.94 944.0, 722.09 944.67, 722.25 945.33, 722.41 946.0, 722.57 946.67, 722.74 947.33, 722.92 948.0, 723.1 948.67, 723.28 949.33, 723.48 950.0, 723.67 950.67, 723.88 951.33, 724.08 952.0, 724.3 952.67, 724.51 953.33, 724.74 954.0, 724.97 954.67, 725.2 955.33, 725.44 956.0, 725.68 956.67, 725.93 957.33, 726.19 958.0, 726.45 958.67, 726.71 959.33, 726.98 960.0, 727.26 960.67, 727.54 961.33, 727.82 962.0, 728.11 962.67, 728.41 963.33, 728.71 964.0, 729.01 964.67, 729.32 965.33, 729.64 966.0, 729.96 966.67, 730.28 967.33, 730.61 968.0, 730.94 968.67, 731.28 969.33, 731.63 970.0, 731.97 970.67, 732.33 971.33, 732.69 972.0, 733.05 972.67, 733.42 973.33, 733.79 974.0, 734.16 974.67, 734.54 975.33, 734.93 976.0, 735.32 976.67, 735.71 977.33, 736.11 978.0, 736.52 978.67, 736.93 979.33, 737.34 980.0, 737.75 980.67, 738.18 981.33, 738.6 982.0, 739.03 982.67, 739.46 983.33, 739.9 984.0, 740.34 984.67, 740.79 985.33, 741.24 986.0, 741.69 986.67, 742.15 987.33, 742.62 988.0, 743.08 988.67, 743.55 989.33, 744.03 990.0, 744.51 990.67, 744.99 991.33, 745.47 992.0, 745.96 992.67, 746.46 993.33, 746.95 994.0, 747.45 994.67, 747.96 995.33, 748.47 996.0, 748.98 996.67, 749.49 997.33, 750.01 998.0, 750.54 998.67, 751.06 999.33, 751.59 1000.0, 752.12 1000.67, 752.66 1001.33, 753.2 1002.0, 753.74 1002.67, 754.29 1003.33, 754.83 1004.0, 755.39 1004.67, 755.94 1005.33, 756.5 1006.0, 757.06 1006.67, 757.62 1007.33, 758.19 1008.0, 758.76 1008.67, 759.33 1009.33, 759.91 1010.0, 760.49 1010.67, 761.07 1011.33, 761.65 1012.0, 762.24 1012.67, 762.83 1013.33, 763.42 1014.0, 764.01 1014.67, 764.61 1015.33, 765.21 1016.0, 765.81 1016.67, 766.41 1017.33, 767.02 1018.0, 767.63 1018.67, 768.24 1019.33, 768.85 1020.0, 769.47 1020.67, 770.09 1021.33, 770.71 1022.0, 771.33 1022.67, 771.95 1023.33, 772.58 1024.0, 773.2 1024.67, 773.83 1025.33, 774.46 1026.0, 775.1 1026.67, 775.73 1027.33, 776.37 1028.0, 777.0 1028.67, 777.64 1029.33, 778.28 1030.0, 778.93 1030.67, 779.57 1031.33, 780.22 1032.0, 780.86 1032.67, 781.51 1033.33, 782.16 1034.0, 782.81 1034.67, 783.46 1035.33, 784.12 1036.0, 784.77 1036.67, 785.42 1037.33, 786.08 1038.0, 786.74 1038.67, 787.4 1039.33, 788.05 1040.0, 788.71 1040.67, 789.37 1041.33, 790.04 1042.0, 790.7 1042.67, 791.36 1043.33, 792.02 1044.0, 792.69 1044.67, 793.35 1045.33, 794.02 1046.0, 794.68 1046.67, 795.35 1047.33, 796.01 1048.0, 796.68 1048.67, 797.35 1049.33, 798.01 1050.0, 798.68 1050.67, 799.35 1051.33, 800.01 1052.0, 800.68 1052.67, 801.35 1053.33, 802.01 1054.0, 802.68 1054.67, 803.35 1055.33, 804.01 1056.0, 804.68 1056.67, 805.34 1057.33, 806.01 1058.0, 806.67 1058.67, 807.34 1059.33, 808.0 1060.0, 808.67 1060.67, 809.33 1061.33, 809.99 1062.0, 810.65 1062.67, 811.31 1063.33, 811.97 1064.0, 812.63 1064.67, 813.29 1065.33, 813.95 1066.0, 814.61 1066.67, 815.26 1067.33, 815.91 1068.0, 816.57 1068.67, 817.22 1069.33, 817.87 1070.0, 818.52 1070.67, 819.17 1071.33, 819.82 1072.0, 820.46 1072.67, 821.11 1073.33, 821.75 1074.0, 822.39 1074.67, 823.03 1075.33, 823.67 1076.0, 824.31 1076.67, 824.94 1077.33, 825.57 1078.0, 826.21 1078.67, 826.84 1079.33, 827.46 1080.0, 828.09 1080.67, 828.71 1081.33, 829.34 1082.0, 829.96 1082.67, 830.57 1083.33, 831.19 1084.0, 831.8 1084.67, 832.42 1085.33, 833.03 1086.0, 833.63 1086.67, 834.24 1087.33, 834.84 1088.0, 835.44 1088.67, 836.04 1089.33, 836.63 1090.0, 837.23 1090.67, 837.82 1091.33, 838.4 1092.0, 838.99 1092.67, 839.57 1093.33, 840.15 1094.0, 840.73 1094.67, 841.3 1095.33, 841.87 1096.0, 842.44 1096.67, 843.01 1097.33, 843.57 1098.0, 844.13 1098.67, 844.69 1099.33, 845.24 1100.0, 845.79 1100.67, 846.34 1101.33, 846.88 1102.0, 847.42 1102.67, 847.96 1103.33, 848.49 1104.0, 849.02 1104.67, 849.55 1105.33, 850.08 1106.0, 850.6 1106.67, 851.12 1107.33, 851.63 1108.0, 852.14 1108.67, 852.65 1109.33, 853.15 1110.0, 853.65 1110.67, 854.15 1111.33, 854.64 1112.0, 855.13 1112.67, 855.61 1113.33, 856.09 1114.0, 856.57 1114.67, 857.04 1115.33, 857.51 1116.0, 857.98 1116.67, 858.44 1117.33, 858.9 1118.0, 859.35 1118.67, 859.8 1119.33, 860.25 1120.0, 860.69 1120.67, 861.12 1121.33, 861.56 1122.0, 861.99 1122.67, 862.41 1123.33, 862.83 1124.0, 863.25 1124.67, 863.66 1125.33, 864.07 1126.0, 864.47 1126.67, 864.87 1127.33, 865.26 1128.0, 865.65 1128.67, 866.04 1129.33, 866.42 1130.0, 866.8 1130.67, 867.17 1131.33, 867.54 1132.0, 867.9 1132.67, 868.26 1133.33, 868.61 1134.0, 868.96 1134.67, 869.31 1135.33, 869.65 1136.0, 869.98 1136.67, 870.31 1137.33, 870.64 1138.0, 870.96 1138.67, 871.28 1139.33, 871.59 1140.0, 871.9 1140.67, 872.2 1141.33, 872.5 1142.0, 872.79 1142.67, 873.08 1143.33, 873.36 1144.0, 873.64 1144.67, 873.91 1145.33, 874.18 1146.0, 874.44 1146.67, 874.7 1147.33, 874.95 1148.0, 875.2 1148.67, 875.44 1149.33, 875.68 1150.0, 875.91 1150.67, 876.14 1151.33, 876.36 1152.0, 876.58 1152.67, 876.79 1153.33, 877.0 1154.0, 877.2 1154.67, 877.4 1155.33, 877.59 1156.0, 877.78 1156.67, 877.96 1157.33, 878.14 1158.0, 878.31 1158.67, 878.47 1159.33, 878.64 1160.0, 878.79 1160.67, 878.94 1161.33, 879.09 1162.0, 879.23 1162.67, 879.36 1163.33, 879.49 1164.0, 879.62 1164.67, 879.74 1165.33, 879.85 1166.0, 879.96 1166.67, 880.07 1167.33, 880.17 1168.0, 880.26 1168.67, 880.35 1169.33, 880.43 1170.0, 880.51 1170.67, 880.58 1171.33, 880.65 1172.0, 880.71 1172.67, 880.77 1173.33, 880.82 1174.0, 880.87 1174.67, 880.91 1175.33, 880.95 1176.0, 880.98 1176.67, 881.0 1177.33, 881.03 1178.0, 881.04 1178.67, 881.05 1179.33, 881.06 1180.0, 881.06 1180.67, 881.05 1181.33, 881.04 1182.0, 881.03 1182.67, 881.01 1183.33, 880.98 1184.0, 880.95 1184.67, 880.92 1185.33, 880.88 1186.0, 880.83 1186.67, 880.78 1187.33, 880.72 1188.0, 880.66 1188.67, 880.6 1189.33, 880.53 1190.0, 880.45 1190.67, 880.37 1191.33, 880.29 1192.0, 880.2 1192.67, 880.1 1193.33, 880.0 1194.0, 879.89 1194.67, 879.78 1195.33, 879.67 1196.0, 879.55 1196.67, 879.43 1197.33, 879.3 1198.0, 879.16 1198.67, 879.02 1199.33, 878.88 1200.0, 878.73 1200.67, 878.58 1201.33, 878.42 1202.0, 878.26 1202.67, 878.09 1203.33, 877.92 1204.0, 877.74 1204.67, 877.56 1205.33, 877.38 1206.0, 877.19 1206.67, 877.0 1207.33, 876.8 1208.0, 876.59 1208.67, 876.39 1209.33, 876.17 1210.0, 875.96 1210.67, 875.74 1211.33, 875.51 1212.0, 875.29 1212.67, 875.05 1213.33, 874.82 1214.0, 874.57 1214.67, 874.33 1215.33, 874.08 1216.0, 873.83 1216.67, 873.57 1217.33, 873.31 1218.0, 873.04 1218.67, 872.77 1219.33, 872.5 1220.0, 872.22 1220.67, 871.94 1221.33, 871.65 1222.0, 871.37 1222.67, 871.07 1223.33, 870.78 1224.0, 870.48 1224.67, 870.17 1225.33, 869.87 1226.0, 869.56 1226.67, 869.24 1227.33, 868.93 1228.0, 868.61 1228.67, 868.28 1229.33, 867.95 1230.0, 867.62 1230.67, 867.29 1231.33, 866.95 1232.0, 866.61 1232.67, 866.27 1233.33, 865.92 1234.0, 865.57 1234.67, 865.22 1235.33, 864.87 1236.0, 864.51 1236.67, 864.15 1237.33, 863.78 1238.0, 863.42 1238.67, 863.05 1239.33, 862.67 1240.0, 862.3 1240.67, 861.92 1241.33, 861.54 1242.0, 861.16 1242.67, 860.77 1243.33, 860.39 1244.0, 860.0 1244.67, 859.61 1245.33, 859.21 1246.0, 858.81 1246.67, 858.42 1247.33, 858.02 1248.0, 857.61 1248.67, 857.21 1249.33, 856.8 1250.0, 856.39 1250.67, 855.98 1251.33, 855.57 1252.0, 855.16 1252.67, 854.74 1253.33, 854.32 1254.0, 853.9 1254.67, 853.48 1255.33, 853.06 1256.0, 852.64 1256.67, 852.21 1257.33, 851.79 1258.0, 851.36 1258.67, 850.93 1259.33, 850.5 1260.0, 850.07 1260.67, 849.64 1261.33, 849.2 1262.0, 848.77 1262.67, 848.33 1263.33, 847.9 1264.0, 847.46 1264.67, 847.02 1265.33, 846.59 1266.0, 846.15 1266.67, 845.71 1267.33, 845.27 1268.0, 844.83 1268.67, 844.39 1269.33, 843.94 1270.0, 843.5 1270.67, 843.06 1271.33, 842.62 1272.0, 842.18 1272.67, 841.73 1273.33, 841.29 1274.0, 840.85 1274.67, 840.41 1275.33, 839.97 1276.0, 839.52 1276.67, 839.08 1277.33, 838.64 1278.0, 838.2 1278.67, 837.76 1279.33, 837.32 1280.0, 836.88 1280.67, 836.44 1281.33, 836.0 1282.0, 835.56 1282.67, 835.12 1283.33, 834.69 1284.0, 834.25 1284.67, 833.82 1285.33, 833.38 1286.0, 832.95 1286.67, 832.52 1287.33, 832.09 1288.0, 831.66 1288.67, 831.23 1289.33, 830.8 1290.0, 830.37 1290.67, 829.95 1291.33, 829.53 1292.0, 829.1 1292.67, 828.68 1293.33, 828.26 1294.0, 827.85 1294.67, 827.43 1295.33, 827.02 1296.0, 826.6 1296.67, 826.19 1297.33, 825.78 1298.0, 825.38 1298.67, 824.97 1299.33, 824.57 1300.0, 824.17 1300.67, 823.77 1301.33, 823.37 1302.0, 822.98 1302.67, 822.58 1303.33, 822.19 1304.0, 821.8 1304.67, 821.42 1305.33, 821.03 1306.0, 820.65 1306.67, 820.27 1307.33, 819.89 1308.0, 819.52 1308.67, 819.15 1309.33, 818.78 1310.0, 818.41 1310.67, 818.04 1311.33, 817.68 1312.0, 817.32 1312.67, 816.96 1313.33, 816.61 1314.0, 816.26 1314.67, 815.91 1315.33, 815.56 1316.0, 815.22 1316.67, 814.88 1317.33, 814.54 1318.0, 814.21 1318.67, 813.87 1319.33, 813.54 1320.0, 813.22 1320.67, 812.89 1321.33, 812.57 1322.0, 812.25 1322.67, 811.94 1323.33, 811.63 1324.0, 811.32 1324.67, 811.01 1325.33, 810.71 1326.0, 810.41 1326.67, 810.11 1327.33, 809.81 1328.0, 809.52 1328.67, 809.23 1329.33, 808.95 1330.0, 808.66 1330.67, 808.38 1331.33, 808.1 1332.0, 807.83 1332.67, 807.56 1333.33, 807.29 1334.0, 807.02 1334.67, 806.76 1335.33, 806.5 1336.0, 806.24 1336.67, 805.98 1337.33, 805.73 1338.0, 805.48 1338.67, 805.23 1339.33, 804.98 1340.0, 804.74 1340.67, 804.5 1341.33, 804.26 1342.0, 804.03 1342.67, 803.79 1343.33, 803.56 1344.0, 803.33 1344.67, 803.1 1345.33, 802.88 1346.0, 802.65 1346.67, 802.43 1347.33, 802.21 1348.0, 801.99 1348.67, 801.78 1349.33, 801.56 1350.0, 801.35 1350.67, 801.14 1351.33, 800.93 1352.0, 800.72 1352.67, 800.51 1353.33, 800.3 1354.0, 800.09 1354.67, 799.89 1355.33, 799.68 1356.0, 799.48 1356.67, 799.27 1357.33, 799.07 1358.0, 798.86 1358.67, 798.66 1359.33, 798.45 1360.0, 798.25 1360.67, 798.04 1361.33, 797.84 1362.0, 797.63 1362.67, 797.43 1363.33, 797.22 1364.0, 797.01 1364.67, 796.8 1365.33, 796.58 1366.0, 796.37 1366.67, 796.15 1367.33, 795.94 1368.0, 795.71 1368.67, 795.49 1369.33, 795.26 1370.0, 795.04 1370.67, 794.8 1371.33, 794.57 1372.0, 794.33 1372.67, 794.08 1373.33, 793.84 1374.0, 793.59 1374.67, 793.33 1375.33, 793.07 1376.0, 792.8 1376.67, 792.53 1377.33, 792.25 1378.0, 791.97 1378.67, 791.68 1379.33, 791.38 1380.0, 791.08 1380.67, 790.76 1381.33, 790.45 1382.0, 790.12 1382.67, 789.79 1383.33, 789.44 1384.0, 789.09 1384.67, 788.73 1385.33, 788.36 1386.0, 787.98 1386.67, 787.58 1387.33, 787.18 1388.0, 786.77 1388.67, 786.34 1389.33, 785.91 1390.0, 785.46 1390.67, 785.0 1391.33, 784.52 1392.0, 784.03 1392.67, 783.53 1393.33, 783.01 1394.0, 782.48 1394.67, 781.93 1395.33, 781.36 1396.0, 780.78 1396.67, 780.18 1397.33, 779.57 1398.0, 778.93 1398.67, 778.28 1399.33, 777.61 1400.0, 776.91 1400.67, 776.2 1401.33, 775.47 1402.0, 774.71 1402.67, 773.93 1403.33, 773.13 1404.0, 772.31 1404.67, 771.46 1405.33, 770.59 1406.0, 769.69 1406.67, 768.77 1407.33, 767.82 1408.0, 766.84 1408.67, 765.83 1409.33, 764.8 1410.0, 763.73 1410.67, 762.64 1411.33, 761.51 1412.0, 760.35 1412.67, 759.16 1413.33, 757.94 1414.0, 756.68 1414.67, 755.38 1415.33, 754.05 1416.0, 752.68 1416.67, 751.28 1417.33, 749.84 1418.0, 748.35 1418.67, 746.83 1419.33, 745.26 1420.0, 743.66 1420.67, 742.01 1421.33, 740.31 1422.0, 738.57 1422.67, 736.78 1423.33, 734.95 1424.0, 733.06 1424.67, 731.13 1425.33, 729.15 1426.0, 727.11 1426.67, 725.03 1427.33, 722.89 1428.0, 720.69 1428.67, 718.44 1429.33, 716.12 1430.0, 713.76 1430.67, 711.33 1431.33, 708.84 1432.0, 706.28 1432.67, 703.67 1433.33, 700.98 1434.0, 698.23 1434.67, 695.42 1435.33, 692.53 1436.0, 689.58 1436.67, 686.55 1437.33, 683.45 1438.0, 680.27 1438.67, 677.02 1439.33, 673.69 1440.0, 670.27 1440.67, 666.78 1441.33, 663.21 1442.0, 659.55 1442.67, 655.81 1443.33, 651.97 1444.0, 648.05 1444.67, 644.04 1445.33, 639.94 1446.0, 635.74 1446.67, 631.44 1447.33, 627.05 1448.0, 622.56 1448.67, 617.96 1449.33, 613.26 1450.0, 608.46 1450.67, 603.55 1451.33, 598.53 1452.0, 593.4 1452.67, 588.15 1453.33, 582.79 1454.0, 577.31 1454.67, 571.71 1455.33, 565.99 1456.0, 560.15 1456.67, 554.18 1457.33, 548.08 1458.0, 541.85 1458.67, 535.48 1459.33, 528.98 1460.0, 522.35 1460.67, 515.57 1461.33, 508.65 1462.0, 501.58 1462.67, 494.37 1463.33, 487.01 1464.0, 479.49 1464.67, 471.82 1465.33, 463.99 1466.0, 455.99 1466.67, 447.84 1467.33, 439.52 1468.0, 431.03 1468.67, 422.36 1469.33, 413.53 1470.0, 404.51 1470.67, 395.31 1471.33, 385.93 1472.0, 376.36 1472.67, 366.6 1473.33, 356.65 1474.0, 346.5 1474.67, 336.16 1475.33, 325.61 1476.0, 314.85 1476.67, 303.88 1477.33, 292.7 1478.0, 281.3 1478.67, 269.69 1479.33, 257.85 1480.0, 245.78 1480.67, 233.48 1481.33, 220.95 1482.0, 208.18 1482.67, 195.16 1483.33, 181.91 1484.0, 168.4 1484.67, 154.63 1485.33, 140.61 1486.0, 126.33 1486.67, 111.78 1487.33, 96.96 1488.0, 81.87 1488.67, 66.5 1489.33, 50.84 1490.0, 34.9 1490.67, 18.67 1491.33, 2.14 1492.0, -14.69 1492.67, -31.83 1493.33, -49.27 1494.0, -67.03 1494.67, -85.11 1495.33, -103.52 1496.0, -122.25 1496.67, -141.32 1497.33, -160.73 1498.0, -180.48 1498.67, -200.59 1499.33, -221.04 1500.0, -241.86 1500.67, -263.04 1501.33, -284.6 1502.0, -306.53 1502.67, -328.84 1503.33, -351.55 1504.0, -374.64 1504.67, -398.14 1505.33, -422.04 1506.0, -446.35 1506.67, -471.08 1507.33, -496.23 1508.0, -521.81 1508.67, -547.83 1509.33, -574.28 1510.0, -601.19 1510.67, -628.55 1511.33, -656.38 1512.0, -684.67 1512.67, -713.44 1513.33, -742.69 1514.0, -772.43 1514.67, -802.66 1515.33, -833.4 1516.0, -864.64 1516.67, -896.41 1517.33, -928.7 1518.0, -961.51 1518.67, -994.87 1519.33, -1028.78 1520.0, -1063.24 1520.67, -1098.27 1521.33, -1133.86 1522.0, -1170.03 1522.67, -1206.79 1523.33, -1244.14 1524.0, -1282.1 1524.67, -1320.67 1525.33, -1359.85 1526.0, -1399.67 1526.67, -1440.12 1527.33, -1481.22 1528.0, -1522.97 1528.67, -1565.39 1529.33, -1608.48 1530.0, -1652.25 1530.67, -1696.71 1531.33, -1741.87 1532.0, -1787.75 1532.67, -1834.34 1533.33, -1881.66 1534.0, -1929.73 1534.67, -1978.54 1535.33, -2028.11 1536.0, -2078.45 1536.67, -2129.57 1537.33, -2181.48 1538.0, -2234.2 1538.67, -2287.72 1539.33, -2342.07 1540.0, -2397.25 1540.67, -2453.28 1541.33, -2510.16 1542.0, -2567.91 1542.67, -2626.54 1543.33, -2686.06 1544.0, -2746.48 1544.67, -2807.82 1545.33, -2870.08 1546.0, -2933.28 1546.67, -2997.43 1547.33, -3062.55 1548.0, -3128.64 1548.67, -3195.72 1549.33, -3263.8 1550.0, -3332.89 1550.67, -3403.01 1551.33, -3474.18 1552.0, -3546.39 1552.67, -3619.68 1553.33, -3694.05 1554.0, -3769.51 1554.67, -3846.08 1555.33, -3923.78 1556.0, -4002.61 1556.67, -4082.6 1557.33, -4163.76 1558.0, -4246.09 1558.67, -4329.63 1559.33, -4414.38 1560.0, -4500.36 1560.67, -4587.58 1561.33, -4676.06 1562.0, -4765.81 1562.67, -4856.86 1563.33, -4949.22 1564.0, -5042.9 1564.67, -5137.92 1565.33, -5234.3 1566.0, -5332.06 1566.67, -5431.2 1567.33, -5531.76 1568.0, -5633.74 1568.67, -5737.17 1569.33, -5842.06 1570.0, -5948.44 1570.67, -6056.31 1571.33, -6165.7 1572.0, -6276.62 1572.67, -6389.11 1573.33, -6503.16 1574.0, -6618.82 1574.67, -6736.08 1575.33, -6854.98 1576.0, -6975.54 1576.67, -7097.76 1577.33, -7221.69 1578.0, -7347.32 1578.67, -7474.7 1579.33, -7603.83 1580.0, -7734.74 1580.67, -7867.45 1581.33, -8001.98 1582.0, -8138.36 1582.67, -8276.6 1583.33, -8416.73 1584.0, -8558.78 1584.67, -8702.75 1585.33, -8848.69 1586.0, -8996.61 1586.67, -9146.53 1587.33, -9298.48 1588.0, -9452.49 1588.67, -9608.57 1589.33, -9766.76 1590.0, -9927.08 1590.67, -10089.55 1591.33, -10254.19 1592.0, -10421.05 1592.67, -10590.13 1593.33, -10761.47 1594.0, -10935.09 1594.67, -11111.03 1595.33, -11289.3 1596.0, -11469.94 1596.67, -11652.97 1597.33, -11838.43 1598.0, -12026.33 1598.67, -12216.71 1599.33, -12409.6 1600.0, -12605.03 " fill="none" stroke="white" stroke-width="1.5" stroke-linejoin="round" stroke-opacity="1"/>

 </svg>