<svg version="1.1" 
 baseProfile="full" 
 width="1600" 
 height="1600" 
 xmlns="http://www.w3.org/2000/svg">
<rect x="0.0" y="0.0" width="1600" height="1600" fill="black" stroke="black" stroke-width="0" opacity="1"/>
<line x1="0.0" y1="0.0" x2="0.0" y2="1600.0" stroke="white" stroke-width="1" opacity="0.4" stroke-linecap="butt"/>
<line x1="160.0" y1="0.0" x2="160.0" y2="1600.0" stroke="white" stroke-width="1" opacity="0.4" stroke-linecap="butt"/>
<line x1="320.0" y1="0.0" x2="320.0" y2="1600.0" stroke="white" stroke-width="1" opacity="0.4" stroke-linecap="butt"/>
<line x1="480.0" y1="0.0" x2="480.0" y2="1600.0" stroke="white" stroke-width="1" opacity="0.4" stroke-linecap="butt"/>
<line x1="640.0" y1="0.0" x2="640.0" y2="1600.0" stroke="white" stroke-width="1" opacity="0.4" stroke-linecap="butt"/>
<line x1="800.0" y1="0.0" x2="800.0" y2="1600.0" stroke="white" stroke-width="1" opacity="0.4" stroke-linecap="butt"/>
<line x1="960.0" y1="0.0" x2="960.0" y2="1600.0" stroke="white" stroke-width="1" opacity="0.4" stroke-linecap="butt"/>
<line x1="1120.0" y1="0.0" x2="1120.0" y2="1600.0" stroke="white" stroke-width="1" opacity="0.4" stroke-linecap="butt"/>
<line x1="1280.0" y1="0.0" x2="1280.0" y2="1600.0" stroke="white" stroke-width="1" opacity="0.4" stroke-linecap="butt"/>
<line x1="1440.0" y1="0.0" x2="1440.0" y2="1600.0" stroke="white" stroke-width="1" opacity="0.4" stroke-linecap="butt"/>
<line x1="0.0" y1="0.0" x2="1600.0" y2="0.0" stroke="white" stroke-width="1" opacity="0.4" stroke-linecap="butt"/>
<line x1="0.0" y1="160.0" x2="1600.0" y2="160.0" stroke="white" stroke-width="1" opacity="0.4" stroke-linecap="butt"/>
<line x1="0.0" y1="320.0" x2="1600.0" y2="320.0" stroke="white" stroke-width="1" opacity="0.4" stroke-linecap="butt"/>
<line x1="0.0" y1="480.0" x2="1600.0" y2="480.0" stroke="white" stroke-width="1" opacity="0.4" stroke-linecap="butt"/>
<line x1="0.0" y1="640.0" x2="1600.0" y2="640.0" stroke="white" stroke-width="1" opacity="0.4" stroke-linecap="butt"/>
<line x1="0.0" y1="800.0" x2="1600.0" y2="800.0" stroke="white" stroke-width="1" opacity="0.4" stroke-linecap="butt"/>
<line x1="0.0" y1="960.0" x2="1600.0" y2="960.0" stroke="white" stroke-width="1" opacity="0.4" stroke-linecap="butt"/>
<line x1="0.0" y1="1120.0" x2="1600.0" y2="1120.0" stroke="white" stroke-width="1" opacity="0.4" stroke-linecap="butt"/>
<line x1="0.0" y1="1280.0" x2="1600.0" y2="1280.0" stroke="white" stroke-width="1" opacity="0.4" stroke-linecap="butt"/>
<line x1="0.0" y1="1440.0" x2="1600.0" y2="1440.0" stroke="white" stroke-width="1" opacity="0.4" stroke-linecap="butt"/>
<line x1="0.0" y1="800.0" x2="1600.0" y2="800.0" stroke="yellow" stroke-width="2.5" opacity="1" stroke-linecap="butt"/>
<line x1="800.0" y1="0.0" x2="800.0" y2="1600.0" stroke="yellow" stroke-width="2.5" opacity="1" stroke-linecap="butt"/>
<polygon points="1564.0 816.0, 1604.0 800.0, 1564.0 784.0, 1572.0 800.0" fill="yellow"/><polygon points="816.0 36.0, 800.0 -4.0, 784.0 36.0, 800.0 28.0" fill="yellow"/><polyline points="0.0, 15810.93 0.67, 15598.2 1.33, 15388.17 2.0, 15180.82 2.67, 14976.12 3.33, 14774.03 4.0, 14574.54 4.67, 14377.6 5.33, 14183.19 6.0, 13991.28 6.67, 13801.84 7.33, 13614.84 8.0, 13430.26 8.67, 13248.07 9.33, 13068.23 10.0, 12890.72 10.67, 12715.52 11.33, 12542.6 12.0, 12371.93 12.67, 12203.49 13.33, 12037.24 14.0, 11873.17 14.67, 11711.25 15.33, 11551.45 16.0, 11393.75 16.67, 11238.13 17.33, 11084.55 18.0, 10933.0 18.67, 10783.45 19.33, 10635.88 20.0, 10490.26 20.67, 10346.58 21.33, 10204.81 22.0, 10064.92 22.67, 9926.9 23.33, 9790.71 24.0, 9656.35 24.67, 9523.79 25.33, 9393.01 26.0, 9263.98 26.67, 9136.68 27.33, 9011.1 28.0, 8887.21 28.67, 8765.0 29.33, 8644.44 30.0, 8525.51 30.67, 8408.2 31.33, 8292.48 32.0, 8178.34 32.67, 8065.75 33.33, 7954.7 34.0, 7845.17 34.67, 7737.14 35.33, 7630.59 36.0, 7525.5 36.67, 7421.86 37.33, 7319.65 38.0, 7218.85 38.67, 7119.44 39.33, 7021.41 40.0, 6924.73 40.67, 6829.41 41.33, 6735.4 42.0, 6642.71 42.67, 6551.31 43.33, 6461.19 44.0, 6372.33 44.67, 6284.72 45.33, 6198.34 46.0, 6113.17 46.67, 6029.21 47.33, 5946.43 48.0, 5864.82 48.67, 5784.37 49.33, 5705.06 50.0, 5626.87 50.67, 5549.8 51.33, 5473.83 52.0, 5398.94 52.67, 5325.13 53.33, 5252.37 54.0, 5180.65 54.67, 5109.97 55.33, 5040.31 56.0, 4971.65 56.67, 4903.99 57.33, 4837.3 58.0, 4771.58 58.67, 4706.82 59.33, 4643.0 60.0, 4580.11 60.67, 4518.14 61.33, 4457.07 62.0, 4396.9 62.67, 4337.62 63.33, 4279.2 64.0, 4221.65 64.67, 4164.95 65.33, 4109.09 66.0, 4054.05 66.67, 3999.83 67.33, 3946.42 68.0, 3893.8 68.67, 3841.97 69.33, 3790.91 70.0, 3740.62 70.67, 3691.08 71.33, 3642.29 72.0, 3594.23 72.67, 3546.9 73.33, 3500.28 74.0, 3454.37 74.67, 3409.16 75.33, 3364.63 76.0, 3320.78 76.67, 3277.6 77.33, 3235.09 78.0, 3193.22 78.67, 3152.0 79.33, 3111.41 80.0, 3071.44 80.67, 3032.09 81.33, 2993.36 82.0, 2955.22 82.67, 2917.67 83.33, 2880.71 84.0, 2844.32 84.67, 2808.51 85.33, 2773.25 86.0, 2738.55 86.67, 2704.39 87.33, 2670.77 88.0, 2637.68 88.67, 2605.12 89.33, 2573.07 90.0, 2541.53 90.67, 2510.49 91.33, 2479.95 92.0, 2449.89 92.67, 2420.32 93.33, 2391.21 94.0, 2362.58 94.67, 2334.41 95.33, 2306.69 96.0, 2279.43 96.67, 2252.6 97.33, 2226.21 98.0, 2200.25 98.67, 2174.71 99.33, 2149.59 100.0, 2124.89 100.67, 2100.58 101.33, 2076.68 102.0, 2053.17 102.67, 2030.05 103.33, 2007.32 104.0, 1984.96 104.67, 1962.97 105.33, 1941.35 106.0, 1920.09 106.67, 1899.19 107.33, 1878.64 108.0, 1858.43 108.67, 1838.57 109.33, 1819.04 110.0, 1799.84 110.67, 1780.96 111.33, 1762.41 112.0, 1744.18 112.67, 1726.25 113.33, 1708.64 114.0, 1691.32 114.67, 1674.31 115.33, 1657.58 116.0, 1641.15 116.67, 1625.0 117.33, 1609.13 118.0, 1593.54 118.67, 1578.22 119.33, 1563.17 120.0, 1548.38 120.67, 1533.85 121.33, 1519.58 122.0, 1505.56 122.67, 1491.79 123.33, 1478.27 124.0, 1464.98 124.67, 1451.93 125.33, 1439.11 126.0, 1426.53 126.67, 1414.17 127.33, 1402.03 128.0, 1390.11 128.67, 1378.41 129.33, 1366.92 130.0, 1355.64 130.67, 1344.56 131.33, 1333.69 132.0, 1323.02 132.67, 1312.54 133.33, 1302.25 134.0, 1292.16 134.67, 1282.25 135.33, 1272.53 136.0, 1262.99 136.67, 1253.62 137.33, 1244.43 138.0, 1235.41 138.67, 1226.56 139.33, 1217.88 140.0, 1209.37 140.67, 1201.01 141.33, 1192.81 142.0, 1184.77 142.67, 1176.88 143.33, 1169.14 144.0, 1161.56 144.67, 1154.11 145.33, 1146.81 146.0, 1139.66 146.67, 1132.64 147.33, 1125.75 148.0, 1119.0 148.67, 1112.39 149.33, 1105.9 150.0, 1099.54 150.67, 1093.31 151.33, 1087.19 152.0, 1081.2 152.67, 1075.33 153.33, 1069.57 154.0, 1063.93 154.67, 1058.41 155.33, 1052.99 156.0, 1047.68 156.67, 1042.48 157.33, 1037.38 158.0, 1032.39 158.67, 1027.5 159.33, 1022.71 160.0, 1018.01 160.67, 1013.41 161.33, 1008.91 162.0, 1004.5 162.67, 1000.18 163.33, 995.94 164.0, 991.8 164.67, 987.74 165.33, 983.77 166.0, 979.88 166.67, 976.07 167.33, 972.34 168.0, 968.69 168.67, 965.11 169.33, 961.61 170.0, 958.19 170.67, 954.83 171.33, 951.55 172.0, 948.34 172.67, 945.2 173.33, 942.12 174.0, 939.11 174.67, 936.16 175.33, 933.28 176.0, 930.46 176.67, 927.7 177.33, 925.0 178.0, 922.36 178.67, 919.78 179.33, 917.25 180.0, 914.77 180.67, 912.36 181.33, 909.99 182.0, 907.67 182.67, 905.41 183.33, 903.2 184.0, 901.03 184.67, 898.91 185.33, 896.84 186.0, 894.82 186.67, 892.83 187.33, 890.9 188.0, 889.0 188.67, 887.15 189.33, 885.34 190.0, 883.57 190.67, 881.83 191.33, 880.14 192.0, 878.48 192.67, 876.86 193.33, 875.28 194.0, 873.73 194.67, 872.21 195.33, 870.73 196.0, 869.28 196.67, 867.87 197.33, 866.48 198.0, 865.13 198.67, 863.8 199.33, 862.51 200.0, 861.24 200.67, 860.0 201.33, 858.79 202.0, 857.6 202.67, 856.44 203.33, 855.3 204.0, 854.19 204.67, 853.11 205.33, 852.04 206.0, 851.0 206.67, 849.99 207.33, 848.99 208.0, 848.01 208.67, 847.06 209.33, 846.12 210.0, 845.21 210.67, 844.31 211.33, 843.43 212.0, 842.57 212.67, 841.73 213.33, 840.9 214.0, 840.09 214.67, 839.3 215.33, 838.52 216.0, 837.76 216.67, 837.01 217.33, 836.28 218.0, 835.56 218.67, 834.85 219.33, 834.16 220.0, 833.48 220.67, 832.81 221.33, 832.15 222.0, 831.51 222.67, 830.88 223.33, 830.25 224.0, 829.64 224.67, 829.04 225.33, 828.45 226.0, 827.86 226.67, 827.29 227.33, 826.73 228.0, 826.17 228.67, 825.62 229.33, 825.08 230.0, 824.55 230.67, 824.02 231.33, 823.51 232.0, 823.0 232.67, 822.49 233.33, 821.99 234.0, 821.5 234.67, 821.02 235.33, 820.54 236.0, 820.06 236.67, 819.59 237.33, 819.13 238.0, 818.66 238.67, 818.21 239.33, 817.76 240.0, 817.31 240.67, 816.87 241.33, 816.43 242.0, 815.99 242.67, 815.56 243.33, 815.13 244.0, 814.7 244.67, 814.27 245.33, 813.85 246.0, 813.43 246.67, 813.02 247.33, 812.6 248.0, 812.19 248.67, 811.78 249.33, 811.37 250.0, 810.96 250.67, 810.56 251.33, 810.15 252.0, 809.75 252.67, 809.34 253.33, 808.94 254.0, 808.54 254.67, 808.14 255.33, 807.74 256.0, 807.34 256.67, 806.95 257.33, 806.55 258.0, 806.15 258.67, 805.75 259.33, 805.35 260.0, 804.96 260.67, 804.56 261.33, 804.16 262.0, 803.76 262.67, 803.36 263.33, 802.97 264.0, 802.57 264.67, 802.17 265.33, 801.77 266.0, 801.36 266.67, 800.96 267.33, 800.56 268.0, 800.16 268.67, 799.75 269.33, 799.35 270.0, 798.94 270.67, 798.54 271.33, 798.13 272.0, 797.72 272.67, 797.31 273.33, 796.9 274.0, 796.49 274.67, 796.07 275.33, 795.66 276.0, 795.24 276.67, 794.82 277.33, 794.41 278.0, 793.99 278.67, 793.57 279.33, 793.14 280.0, 792.72 280.67, 792.3 281.33, 791.87 282.0, 791.44 282.67, 791.01 283.33, 790.58 284.0, 790.15 284.67, 789.72 285.33, 789.28 286.0, 788.85 286.67, 788.41 287.33, 787.97 288.0, 787.53 288.67, 787.09 289.33, 786.65 290.0, 786.2 290.67, 785.76 291.33, 785.31 292.0, 784.87 292.67, 784.42 293.33, 783.97 294.0, 783.51 294.67, 783.06 295.33, 782.61 296.0, 782.15 296.67, 781.7 297.33, 781.24 298.0, 780.78 298.67, 780.32 299.33, 779.86 300.0, 779.4 300.67, 778.94 301.33, 778.47 302.0, 778.01 302.67, 777.54 303.33, 777.08 304.0, 776.61 304.67, 776.14 305.33, 775.67 306.0, 775.2 306.67, 774.73 307.33, 774.26 308.0, 773.79 308.67, 773.31 309.33, 772.84 310.0, 772.37 310.67, 771.89 311.33, 771.42 312.0, 770.94 312.67, 770.47 313.33, 769.99 314.0, 769.51 314.67, 769.04 315.33, 768.56 316.0, 768.08 316.67, 767.61 317.33, 767.13 318.0, 766.65 318.67, 766.17 319.33, 765.7 320.0, 765.22 320.67, 764.74 321.33, 764.26 322.0, 763.79 322.67, 763.31 323.33, 762.83 324.0, 762.36 324.67, 761.88 325.33, 761.41 326.0, 760.93 326.67, 760.46 327.33, 759.98 328.0, 759.51 328.67, 759.04 329.33, 758.56 330.0, 758.09 330.67, 757.62 331.33, 757.15 332.0, 756.68 332.67, 756.21 333.33, 755.75 334.0, 755.28 334.67, 754.82 335.33, 754.35 336.0, 753.89 336.67, 753.43 337.33, 752.97 338.0, 752.51 338.67, 752.05 339.33, 751.59 340.0, 751.14 340.67, 750.68 341.33, 750.23 342.0, 749.78 342.67, 749.33 343.33, 748.89 344.0, 748.44 344.67, 748.0 345.33, 747.55 346.0, 747.11 346.67, 746.68 347.33, 746.24 348.0, 745.8 348.67, 745.37 349.33, 744.94 350.0, 744.51 350.67, 744.09 351.33, 743.66 352.0, 743.24 352.67, 742.82 353.33, 742.41 354.0, 741.99 354.67, 741.58 355.33, 741.17 356.0, 740.76 356.67, 740.36 357.33, 739.96 358.0, 739.56 358.67, 739.16 359.33, 738.77 360.0, 738.38 360.67, 737.99 361.33, 737.6 362.0, 737.22 362.67, 736.84 363.33, 736.47 364.0, 736.09 364.67, 735.72 365.33, 735.36 366.0, 734.99 366.67, 734.63 367.33, 734.27 368.0, 733.92 368.67, 733.57 369.33, 733.22 370.0, 732.88 370.67, 732.54 371.33, 732.2 372.0, 731.87 372.67, 731.54 373.33, 731.21 374.0, 730.89 374.67, 730.57 375.33, 730.25 376.0, 729.94 376.67, 729.63 377.33, 729.33 378.0, 729.03 378.67, 728.73 379.33, 728.44 380.0, 728.15 380.67, 727.86 381.33, 727.58 382.0, 727.31 382.67, 727.03 383.33, 726.77 384.0, 726.5 384.67, 726.24 385.33, 725.98 386.0, 725.73 386.67, 725.49 387.33, 725.24 388.0, 725.0 388.67, 724.77 389.33, 724.54 390.0, 724.31 390.67, 724.09 391.33, 723.87 392.0, 723.66 392.67, 723.45 393.33, 723.25 394.0, 723.05 394.67, 722.85 395.33, 722.66 396.0, 722.48 396.67, 722.3 397.33, 722.12 398.0, 721.95 398.67, 721.78 399.33, 721.62 400.0, 721.46 400.67, 721.31 401.33, 721.16 402.0, 721.02 402.67, 720.88 403.33, 720.75 404.0, 720.62 404.67, 720.5 405.33, 720.38 406.0, 720.27 406.67, 720.16 407.33, 720.05 408.0, 719.96 408.67, 719.86 409.33, 719.77 410.0, 719.69 410.67, 719.61 411.33, 719.54 412.0, 719.47 412.67, 719.4 413.33, 719.35 414.0, 719.29 414.67, 719.24 415.33, 719.2 416.0, 719.16 416.67, 719.13 417.33, 719.1 418.0, 719.08 418.67, 719.06 419.33, 719.05 420.0, 719.04 420.67, 719.04 421.33, 719.04 422.0, 719.05 422.67, 719.07 423.33, 719.09 424.0, 719.11 424.67, 719.14 425.33, 719.17 426.0, 719.21 426.67, 719.26 427.33, 719.31 428.0, 719.36 428.67, 719.42 429.33, 719.49 430.0, 719.56 430.67, 719.64 431.33, 719.72 432.0, 719.81 432.67, 719.9 433.33, 720.0 434.0, 720.1 434.67, 720.21 435.33, 720.32 436.0, 720.44 436.67, 720.56 437.33, 720.69 438.0, 720.82 438.67, 720.96 439.33, 721.11 440.0, 721.26 440.67, 721.41 441.33, 721.57 442.0, 721.74 442.67, 721.91 443.33, 722.08 444.0, 722.27 444.67, 722.45 445.33, 722.64 446.0, 722.84 446.67, 723.04 447.33, 723.25 448.0, 723.46 448.67, 723.67 449.33, 723.9 450.0, 724.12 450.67, 724.36 451.33, 724.59 452.0, 724.83 452.67, 725.08 453.33, 725.33 454.0, 725.59 454.67, 725.85 455.33, 726.12 456.0, 726.39 456.67, 726.67 457.33, 726.95 458.0, 727.24 458.67, 727.53 459.33, 727.83 460.0, 728.13 460.67, 728.43 461.33, 728.74 462.0, 729.06 462.67, 729.38 463.33, 729.71 464.0, 730.04 464.67, 730.37 465.33, 730.71 466.0, 731.05 466.67, 731.4 467.33, 731.76 468.0, 732.12 468.67, 732.48 469.33, 732.85 470.0, 733.22 470.67, 733.59 471.33, 733.97 472.0, 734.36 472.67, 734.75 473.33, 735.14 474.0, 735.54 474.67, 735.95 475.33, 736.35 476.0, 736.76 476.67, 737.18 477.33, 737.6 478.0, 738.03 478.67, 738.45 479.33, 738.89 480.0, 739.32 480.67, 739.76 481.33, 740.21 482.0, 740.66 482.67, 741.11 483.33, 741.57 484.0, 742.03 484.67, 742.5 485.33, 742.97 486.0, 743.44 486.67, 743.92 487.33, 744.4 488.0, 744.88 488.67, 745.37 489.33, 745.86 490.0, 746.36 490.67, 746.86 491.33, 747.36 492.0, 747.87 492.67, 748.38 493.33, 748.89 494.0, 749.41 494.67, 749.93 495.33, 750.45 496.0, 750.98 496.67, 751.51 497.33, 752.05 498.0, 752.58 498.67, 753.12 499.33, 753.67 500.0, 754.21 500.67, 754.77 501.33, 755.32 502.0, 755.87 502.67, 756.43 503.33, 757.0 504.0, 757.56 504.67, 758.13 505.33, 758.7 506.0, 759.28 506.67, 759.85 507.33, 760.43 508.0, 761.01 508.67, 761.6 509.33, 762.19 510.0, 762.78 510.67, 763.37 511.33, 763.96 512.0, 764.56 512.67, 765.16 513.33, 765.76 514.0, 766.37 514.67, 766.98 515.33, 767.59 516.0, 768.2 516.67, 768.81 517.33, 769.43 518.0, 770.05 518.67, 770.67 519.33, 771.29 520.0, 771.91 520.67, 772.54 521.33, 773.17 522.0, 773.8 522.67, 774.43 523.33, 775.06 524.0, 775.7 524.67, 776.33 525.33, 776.97 526.0, 777.61 526.67, 778.25 527.33, 778.89 528.0, 779.54 528.67, 780.18 529.33, 780.83 530.0, 781.48 530.67, 782.13 531.33, 782.78 532.0, 783.43 532.67, 784.09 533.33, 784.74 534.0, 785.4 534.67, 786.05 535.33, 786.71 536.0, 787.37 536.67, 788.03 537.33, 788.69 538.0, 789.35 538.67, 790.01 539.33, 790.67 540.0, 791.33 540.67, 792.0 541.33, 792.66 542.0, 793.33 542.67, 793.99 543.33, 794.66 544.0, 795.32 544.67, 795.99 545.33, 796.65 546.0, 797.32 546.67, 797.99 547.33, 798.65 548.0, 799.32 548.67, 799.99 549.33, 800.65 550.0, 801.32 550.67, 801.99 551.33, 802.65 552.0, 803.32 552.67, 803.99 553.33, 804.65 554.0, 805.32 554.67, 805.98 555.33, 806.65 556.0, 807.31 556.67, 807.98 557.33, 808.64 558.0, 809.3 558.67, 809.96 559.33, 810.63 560.0, 811.29 560.67, 811.95 561.33, 812.6 562.0, 813.26 562.67, 813.92 563.33, 814.58 564.0, 815.23 564.67, 815.88 565.33, 816.54 566.0, 817.19 566.67, 817.84 567.33, 818.49 568.0, 819.14 568.67, 819.78 569.33, 820.43 570.0, 821.07 570.67, 821.72 571.33, 822.36 572.0, 823.0 572.67, 823.63 573.33, 824.27 574.0, 824.9 574.67, 825.54 575.33, 826.17 576.0, 826.8 576.67, 827.42 577.33, 828.05 578.0, 828.67 578.67, 829.29 579.33, 829.91 580.0, 830.53 580.67, 831.15 581.33, 831.76 582.0, 832.37 582.67, 832.98 583.33, 833.59 584.0, 834.19 584.67, 834.79 585.33, 835.39 586.0, 835.99 586.67, 836.58 587.33, 837.17 588.0, 837.76 588.67, 838.35 589.33, 838.93 590.0, 839.51 590.67, 840.09 591.33, 840.67 592.0, 841.24 592.67, 841.81 593.33, 842.38 594.0, 842.94 594.67, 843.5 595.33, 844.06 596.0, 844.61 596.67, 845.17 597.33, 845.71 598.0, 846.26 598.67, 846.8 599.33, 847.34 600.0, 847.88 600.67, 848.41 601.33, 848.94 602.0, 849.46 602.67, 849.99 603.33, 850.51 604.0, 851.02 604.67, 851.53 605.33, 852.04 606.0, 852.55 606.67, 853.05 607.33, 853.54 608.0, 854.04 608.67, 854.53 609.33, 855.01 610.0, 855.49 610.67, 855.97 611.33, 856.45 612.0, 856.92 612.67, 857.38 613.33, 857.85 614.0, 858.31 614.67, 858.76 615.33, 859.21 616.0, 859.66 616.67, 860.1 617.33, 860.54 618.0, 860.97 618.67, 861.4 619.33, 861.82 620.0, 862.25 620.67, 862.66 621.33, 863.07 622.0, 863.48 622.67, 863.89 623.33, 864.29 624.0, 864.68 624.67, 865.07 625.33, 865.46 626.0, 865.84 626.67, 866.21 627.33, 866.58 628.0, 866.95 628.67, 867.31 629.33, 867.67 630.0, 868.03 630.67, 868.37 631.33, 868.72 632.0, 869.06 632.67, 869.39 633.33, 869.72 634.0, 870.04 634.67, 870.36 635.33, 870.68 636.0, 870.99 636.67, 871.29 637.33, 871.59 638.0, 871.89 638.67, 872.18 639.33, 872.46 640.0, 872.74 640.67, 873.02 641.33, 873.29 642.0, 873.55 642.67, 873.81 643.33, 874.07 644.0, 874.32 644.67, 874.56 645.33, 874.8 646.0, 875.03 646.67, 875.26 647.33, 875.49 648.0, 875.7 648.67, 875.92 649.33, 876.12 650.0, 876.33 650.67, 876.52 651.33, 876.72 652.0, 876.9 652.67, 877.08 653.33, 877.26 654.0, 877.43 654.67, 877.59 655.33, 877.75 656.0, 877.91 656.67, 878.06 657.33, 878.2 658.0, 878.34 658.67, 878.47 659.33, 878.6 660.0, 878.72 660.67, 878.83 661.33, 878.95 662.0, 879.05 662.67, 879.15 663.33, 879.24 664.0, 879.33 664.67, 879.42 665.33, 879.49 666.0, 879.57 666.67, 879.63 667.33, 879.69 668.0, 879.75 668.67, 879.8 669.33, 879.84 670.0, 879.88 670.67, 879.92 671.33, 879.94 672.0, 879.97 672.67, 879.98 673.33, 879.99 674.0, 880.0 674.67, 880.0 675.33, 879.99 676.0, 879.98 676.67, 879.97 677.33, 879.94 678.0, 879.92 678.67, 879.88 679.33, 879.84 680.0, 879.8 680.67, 879.75 681.33, 879.69 682.0, 879.63 682.67, 879.57 683.33, 879.49 684.0, 879.42 684.67, 879.33 685.33, 879.25 686.0, 879.15 686.67, 879.05 687.33, 878.95 688.0, 878.84 688.67, 878.72 689.33, 878.6 690.0, 878.47 690.67, 878.34 691.33, 878.2 692.0, 878.06 692.67, 877.91 693.33, 877.76 694.0, 877.6 694.67, 877.43 695.33, 877.26 696.0, 877.08 696.67, 876.9 697.33, 876.72 698.0, 876.53 698.67, 876.33 699.33, 876.13 700.0, 875.92 700.67, 875.71 701.33, 875.49 702.0, 875.26 702.67, 875.04 703.33, 874.8 704.0, 874.56 704.67, 874.32 705.33, 874.07 706.0, 873.82 706.67, 873.56 707.33, 873.29 708.0, 873.02 708.67, 872.75 709.33, 872.47 710.0, 872.18 710.67, 871.89 711.33, 871.6 712.0, 871.3 712.67, 870.99 713.33, 870.68 714.0, 870.37 714.67, 870.05 715.33, 869.72 716.0, 869.39 716.67, 869.06 717.33, 868.72 718.0, 868.38 718.67, 868.03 719.33, 867.68 720.0, 867.32 720.67, 866.96 721.33, 866.59 722.0, 866.22 722.67, 865.84 723.33, 865.46 724.0, 865.07 724.67, 864.68 725.33, 864.29 726.0, 863.89 726.67, 863.49 727.33, 863.08 728.0, 862.67 728.67, 862.25 729.33, 861.83 730.0, 861.4 730.67, 860.97 731.33, 860.54 732.0, 860.1 732.67, 859.66 733.33, 859.21 734.0, 858.76 734.67, 858.31 735.33, 857.85 736.0, 857.39 736.67, 856.92 737.33, 856.45 738.0, 855.98 738.67, 855.5 739.33, 855.02 740.0, 854.53 740.67, 854.04 741.33, 853.55 742.0, 853.05 742.67, 852.55 743.33, 852.05 744.0, 851.54 744.67, 851.03 745.33, 850.51 746.0, 849.99 746.67, 849.47 747.33, 848.94 748.0, 848.41 748.67, 847.88 749.33, 847.35 750.0, 846.81 750.67, 846.27 751.33, 845.72 752.0, 845.17 752.67, 844.62 753.33, 844.06 754.0, 843.51 754.67, 842.95 755.33, 842.38 756.0, 841.81 756.67, 841.25 757.33, 840.67 758.0, 840.1 758.67, 839.52 759.33, 838.94 760.0, 838.35 760.67, 837.77 761.33, 837.18 762.0, 836.59 762.67, 835.99 763.33, 835.4 764.0, 834.8 764.67, 834.2 765.33, 833.59 766.0, 832.99 766.67, 832.38 767.33, 831.77 768.0, 831.15 768.67, 830.54 769.33, 829.92 770.0, 829.3 770.67, 828.68 771.33, 828.06 772.0, 827.43 772.67, 826.8 773.33, 826.18 774.0, 825.54 774.67, 824.91 775.33, 824.28 776.0, 823.64 776.67, 823.0 777.33, 822.36 778.0, 821.72 778.67, 821.08 779.33, 820.44 780.0, 819.79 780.67, 819.15 781.33, 818.5 782.0, 817.85 782.67, 817.2 783.33, 816.55 784.0, 815.89 784.67, 815.24 785.33, 814.58 786.0, 813.93 786.67, 813.27 787.33, 812.61 788.0, 811.96 788.67, 811.3 789.33, 810.64 790.0, 809.97 790.67, 809.31 791.33, 808.65 792.0, 807.99 792.67, 807.32 793.33, 806.66 794.0, 805.99 794.67, 805.33 795.33, 804.66 796.0, 804.0 796.67, 803.33 797.33, 802.67 798.0, 802.0 798.67, 801.33 799.33, 800.67 800.0, 800.0 800.67, 799.33 801.33, 798.67 802.0, 798.0 802.67, 797.33 803.33, 796.67 804.0, 796.0 804.67, 795.34 805.33, 794.67 806.0, 794.01 806.67, 793.34 807.33, 792.68 808.0, 792.01 808.67, 791.35 809.33, 790.69 810.0, 790.03 810.67, 789.36 811.33, 788.7 812.0, 788.04 812.67, 787.39 813.33, 786.73 814.0, 786.07 814.67, 785.42 815.33, 784.76 816.0, 784.11 816.67, 783.45 817.33, 782.8 818.0, 782.15 818.67, 781.5 819.33, 780.85 820.0, 780.21 820.67, 779.56 821.33, 778.92 822.0, 778.28 822.67, 777.64 823.33, 777.0 824.0, 776.36 824.67, 775.72 825.33, 775.09 826.0, 774.46 826.67, 773.82 827.33, 773.2 828.0, 772.57 828.67, 771.94 829.33, 771.32 830.0, 770.7 830.67, 770.08 831.33, 769.46 832.0, 768.85 832.67, 768.23 833.33, 767.62 834.0, 767.01 834.67, 766.41 835.33, 765.8 836.0, 765.2 836.67, 764.6 837.33, 764.01 838.0, 763.41 838.67, 762.82 839.33, 762.23 840.0, 761.65 840.67, 761.06 841.33, 760.48 842.0, 759.9 842.67, 759.33 843.33, 758.75 844.0, 758.19 844.67, 757.62 845.33, 757.05 846.0, 756.49 846.67, 755.94 847.33, 755.38 848.0, 754.83 848.67, 754.28 849.33, 753.73 850.0, 753.19 850.67, 752.65 851.33, 752.12 852.0, 751.59 852.67, 751.06 853.33, 750.53 854.0, 750.01 854.67, 749.49 855.33, 748.97 856.0, 748.46 856.67, 747.95 857.33, 747.45 858.0, 746.95 858.67, 746.45 859.33, 745.96 860.0, 745.47 860.67, 744.98 861.33, 744.5 862.0, 744.02 862.67, 743.55 863.33, 743.08 864.0, 742.61 864.67, 742.15 865.33, 741.69 866.0, 741.24 866.67, 740.79 867.33, 740.34 868.0, 739.9 868.67, 739.46 869.33, 739.03 870.0, 738.6 870.67, 738.17 871.33, 737.75 872.0, 737.33 872.67, 736.92 873.33, 736.51 874.0, 736.11 874.67, 735.71 875.33, 735.32 876.0, 734.93 876.67, 734.54 877.33, 734.16 878.0, 733.78 878.67, 733.41 879.33, 733.04 880.0, 732.68 880.67, 732.32 881.33, 731.97 882.0, 731.62 882.67, 731.28 883.33, 730.94 884.0, 730.61 884.67, 730.28 885.33, 729.95 886.0, 729.63 886.67, 729.32 887.33, 729.01 888.0, 728.7 888.67, 728.4 889.33, 728.11 890.0, 727.82 890.67, 727.53 891.33, 727.25 892.0, 726.98 892.67, 726.71 893.33, 726.44 894.0, 726.18 894.67, 725.93 895.33, 725.68 896.0, 725.44 896.67, 725.2 897.33, 724.96 898.0, 724.74 898.67, 724.51 899.33, 724.29 900.0, 724.08 900.67, 723.87 901.33, 723.67 902.0, 723.47 902.67, 723.28 903.33, 723.1 904.0, 722.92 904.67, 722.74 905.33, 722.57 906.0, 722.4 906.67, 722.24 907.33, 722.09 908.0, 721.94 908.67, 721.8 909.33, 721.66 910.0, 721.53 910.67, 721.4 911.33, 721.28 912.0, 721.16 912.67, 721.05 913.33, 720.95 914.0, 720.85 914.67, 720.75 915.33, 720.67 916.0, 720.58 916.67, 720.51 917.33, 720.43 918.0, 720.37 918.67, 720.31 919.33, 720.25 920.0, 720.2 920.67, 720.16 921.33, 720.12 922.0, 720.08 922.67, 720.06 923.33, 720.03 924.0, 720.02 924.67, 720.01 925.33, 720.0 926.0, 720.0 926.67, 720.01 927.33, 720.02 928.0, 720.03 928.67, 720.06 929.33, 720.08 930.0, 720.12 930.67, 720.16 931.33, 720.2 932.0, 720.25 932.67, 720.31 933.33, 720.37 934.0, 720.43 934.67, 720.51 935.33, 720.58 936.0, 720.67 936.67, 720.76 937.33, 720.85 938.0, 720.95 938.67, 721.05 939.33, 721.17 940.0, 721.28 940.67, 721.4 941.33, 721.53 942.0, 721.66 942.67, 721.8 943.33, 721.94 944.0, 722.09 944.67, 722.25 945.33, 722.41 946.0, 722.57 946.67, 722.74 947.33, 722.92 948.0, 723.1 948.67, 723.28 949.33, 723.48 950.0, 723.67 950.67, 723.88 951.33, 724.08 952.0, 724.3 952.67, 724.51 953.33, 724.74 954.0, 724.97 954.67, 725.2 955.33, 725.44 956.0, 725.68 956.67, 725.93 957.33, 726.19 958.0, 726.45 958.67, 726.71 959.33, 726.98 960.0, 727.26 960.67, 727.54 961.33, 727.82 962.0, 728.11 962.67, 728.41 963.33, 728.71 964.0, 729.01 964.67, 729.32 965.33, 729.64 966.0, 729.96 966.67, 730.28 967.33, 730.61 968.0, 730.94 968.67, 731.28 969.33, 731.63 970.0, 731.97 970.67, 732.33 971.33, 732.69 972.0, 733.05 972.67, 733.42 973.33, 733.79 974.0, 734.16 974.67, 734.54 975.33, 734.93 976.0, 735.32 976.67, 735.71 977.33, 736.11 978.0, 736.52 978.67, 736.93 979.33, 737.34 980.0, 737.75 980.67, 738.18 981.33, 738.6 982.0, 739.03 982.67, 739.46 983.33, 739.9 984.0, 740.34 984.67, 740.79 985.33, 741.24 986.0, 741.69 986.67, 742.15 987.33, 742.62 988.0, 743.08 988.67, 743.55 989.33, 744.03 990.0, 744.51 990.67, 744.99 991.33, 745.47 992.0, 745.96 992.67, 746.46 993.33, 746.95 994.0, 747.45 994.67, 747.96 995.33, 748.47 996.0, 748.98 996.67, 749.49 997.33, 750.01 998.0, 750.54 998.67, 751.06 999.33, 751.59 1000.0, 752.12 1000.67, 752.66 1001.33, 753.2 1002.0, 753.74 1002.67, 754.29 1003.33, 754.83 1004.0, 755.39 1004.67, 755.94 1005.33, 756.5 1006.0, 757.06 1006.67, 757.62 1007.33, 758.19 1008.0, 758.76 1008.67, 759.33 1009.33, 759.91 1010.0, 760.49 1010.67, 761.07 1011.33, 761.65 1012.0, 762.24 1012.67, 762.83 1013.33, 763.42 1014.0, 764.01 1014.67, 764.61 1015.33, 765.21 1016.0, 765.81 1016.67, 766.41 1017.33, 767.02 1018.0, 767.63 1018.67, 768.24 1019.33, 768.85 1020.0, 769.47 1020.67, 770.09 1021.33, 770.71 1022.0, 771.33 1022.67, 771.95 1023.33, 772.58 1024.0, 773.2 1024.67, 773.83 1025.33, 774.46 1026.0, 775.1 1026.67, 775.73 1027.33, 776.37 1028.0, 777.0 1028.67, 777.64 1029.33, 778.28 1030.0, 778.93 1030.67, 779.57 1031.33, 780.22 1032.0, 780.86 1032.67, 781.51 1033.33, 782.16 1034.0, 782.81 1034.67, 783.46 1035.33, 784.12 1036.0, 784.77 1036.67, 785.42 1037.33, 786.08 1038.0, 786.74 1038.67, 787.4 1039.33, 788.05 1040.0, 788.71 1040.67, 789.37 1041.33, 790.04 1042.0, 790.7 1042.67, 791.36 1043.33, 792.02 1044.0, 792.69 1044.67, 793.35 1045.33, 794.02 1046.0, 794.68 1046.67, 795.35 1047.33, 796.01 1048.0, 796.68 1048.67, 797.35 1049.33, 798.01 1050.0, 798.68 1050.67, 799.35 1051.33, 800.01 1052.0, 800.68 1052.67, 801.35 1053.33, 802.01 1054.0, 802.68 1054.67, 803.35 1055.33, 804.01 1056.0, 804.68 1056.67, 805.34 1057.33, 806.01 1058.0, 806.67 1058.67, 807.34 1059.33, 808.0 1060.0, 808.67 1060.67, 809.33 1061.33, 809.99 1062.0, 810.65 1062.67, 811.31 1063.33, 811.97 1064.0, 812.63 1064.67, 813.29 1065.33, 813.95 1066.0, 814.6 1066.67, 815.26 1067.33, 815.91 1068.0, 816.57 1068.67, 817.22 1069.33, 817.87 1070.0, 818.52 1070.67, 819.17 1071.33, 819.82 1072.0, 820.46 1072.67, 821.11 1073.33, 821.75 1074.0, 822.39 1074.67, 823.03 1075.33, 823.67 1076.0, 824.3 1076.67, 824.94 1077.33, 825.57 1078.0, 826.2 1078.67, 826.83 1079.33, 827.46 1080.0, 828.09 1080.67, 828.71 1081.33, 829.33 1082.0, 829.95 1082.67, 830.57 1083.33, 831.19 1084.0, 831.8 1084.67, 832.41 1085.33, 833.02 1086.0, 833.63 1086.67, 834.24 1087.33, 834.84 1088.0, 835.44 1088.67, 836.04 1089.33, 836.63 1090.0, 837.22 1090.67, 837.81 1091.33, 838.4 1092.0, 838.99 1092.67, 839.57 1093.33, 840.15 1094.0, 840.72 1094.67, 841.3 1095.33, 841.87 1096.0, 842.44 1096.67, 843.0 1097.33, 843.57 1098.0, 844.13 1098.67, 844.68 1099.33, 845.23 1100.0, 845.79 1100.67, 846.33 1101.33, 846.88 1102.0, 847.42 1102.67, 847.95 1103.33, 848.49 1104.0, 849.02 1104.67, 849.55 1105.33, 850.07 1106.0, 850.59 1106.67, 851.11 1107.33, 851.62 1108.0, 852.13 1108.67, 852.64 1109.33, 853.14 1110.0, 853.64 1110.67, 854.14 1111.33, 854.63 1112.0, 855.12 1112.67, 855.6 1113.33, 856.08 1114.0, 856.56 1114.67, 857.03 1115.33, 857.5 1116.0, 857.97 1116.67, 858.43 1117.33, 858.89 1118.0, 859.34 1118.67, 859.79 1119.33, 860.24 1120.0, 860.68 1120.67, 861.11 1121.33, 861.55 1122.0, 861.97 1122.67, 862.4 1123.33, 862.82 1124.0, 863.24 1124.67, 863.65 1125.33, 864.05 1126.0, 864.46 1126.67, 864.86 1127.33, 865.25 1128.0, 865.64 1128.67, 866.03 1129.33, 866.41 1130.0, 866.78 1130.67, 867.15 1131.33, 867.52 1132.0, 867.88 1132.67, 868.24 1133.33, 868.6 1134.0, 868.95 1134.67, 869.29 1135.33, 869.63 1136.0, 869.96 1136.67, 870.29 1137.33, 870.62 1138.0, 870.94 1138.67, 871.26 1139.33, 871.57 1140.0, 871.87 1140.67, 872.17 1141.33, 872.47 1142.0, 872.76 1142.67, 873.05 1143.33, 873.33 1144.0, 873.61 1144.67, 873.88 1145.33, 874.15 1146.0, 874.41 1146.67, 874.67 1147.33, 874.92 1148.0, 875.17 1148.67, 875.41 1149.33, 875.64 1150.0, 875.88 1150.67, 876.1 1151.33, 876.33 1152.0, 876.54 1152.67, 876.75 1153.33, 876.96 1154.0, 877.16 1154.67, 877.36 1155.33, 877.55 1156.0, 877.73 1156.67, 877.92 1157.33, 878.09 1158.0, 878.26 1158.67, 878.43 1159.33, 878.59 1160.0, 878.74 1160.67, 878.89 1161.33, 879.04 1162.0, 879.18 1162.67, 879.31 1163.33, 879.44 1164.0, 879.56 1164.67, 879.68 1165.33, 879.79 1166.0, 879.9 1166.67, 880.0 1167.33, 880.1 1168.0, 880.19 1168.67, 880.28 1169.33, 880.36 1170.0, 880.44 1170.67, 880.51 1171.33, 880.58 1172.0, 880.64 1172.67, 880.69 1173.33, 880.74 1174.0, 880.79 1174.67, 880.83 1175.33, 880.86 1176.0, 880.89 1176.67, 880.91 1177.33, 880.93 1178.0, 880.95 1178.67, 880.96 1179.33, 880.96 1180.0, 880.96 1180.67, 880.95 1181.33, 880.94 1182.0, 880.92 1182.67, 880.9 1183.33, 880.87 1184.0, 880.84 1184.67, 880.8 1185.33, 880.76 1186.0, 880.71 1186.67, 880.65 1187.33, 880.6 1188.0, 880.53 1188.67, 880.46 1189.33, 880.39 1190.0, 880.31 1190.67, 880.23 1191.33, 880.14 1192.0, 880.04 1192.67, 879.95 1193.33, 879.84 1194.0, 879.73 1194.67, 879.62 1195.33, 879.5 1196.0, 879.38 1196.67, 879.25 1197.33, 879.12 1198.0, 878.98 1198.67, 878.84 1199.33, 878.69 1200.0, 878.54 1200.67, 878.38 1201.33, 878.22 1202.0, 878.05 1202.67, 877.88 1203.33, 877.7 1204.0, 877.52 1204.67, 877.34 1205.33, 877.15 1206.0, 876.95 1206.67, 876.75 1207.33, 876.55 1208.0, 876.34 1208.67, 876.13 1209.33, 875.91 1210.0, 875.69 1210.67, 875.46 1211.33, 875.23 1212.0, 875.0 1212.67, 874.76 1213.33, 874.51 1214.0, 874.27 1214.67, 874.02 1215.33, 873.76 1216.0, 873.5 1216.67, 873.23 1217.33, 872.97 1218.0, 872.69 1218.67, 872.42 1219.33, 872.14 1220.0, 871.85 1220.67, 871.56 1221.33, 871.27 1222.0, 870.97 1222.67, 870.67 1223.33, 870.37 1224.0, 870.06 1224.67, 869.75 1225.33, 869.43 1226.0, 869.11 1226.67, 868.79 1227.33, 868.46 1228.0, 868.13 1228.67, 867.8 1229.33, 867.46 1230.0, 867.12 1230.67, 866.78 1231.33, 866.43 1232.0, 866.08 1232.67, 865.73 1233.33, 865.37 1234.0, 865.01 1234.67, 864.64 1235.33, 864.28 1236.0, 863.91 1236.67, 863.53 1237.33, 863.16 1238.0, 862.78 1238.67, 862.4 1239.33, 862.01 1240.0, 861.62 1240.67, 861.23 1241.33, 860.84 1242.0, 860.44 1242.67, 860.04 1243.33, 859.64 1244.0, 859.24 1244.67, 858.83 1245.33, 858.42 1246.0, 858.01 1246.67, 857.59 1247.33, 857.18 1248.0, 856.76 1248.67, 856.34 1249.33, 855.91 1250.0, 855.49 1250.67, 855.06 1251.33, 854.63 1252.0, 854.2 1252.67, 853.76 1253.33, 853.32 1254.0, 852.89 1254.67, 852.45 1255.33, 852.0 1256.0, 851.56 1256.67, 851.11 1257.33, 850.67 1258.0, 850.22 1258.67, 849.77 1259.33, 849.32 1260.0, 848.86 1260.67, 848.41 1261.33, 847.95 1262.0, 847.49 1262.67, 847.03 1263.33, 846.57 1264.0, 846.11 1264.67, 845.65 1265.33, 845.18 1266.0, 844.72 1266.67, 844.25 1267.33, 843.79 1268.0, 843.32 1268.67, 842.85 1269.33, 842.38 1270.0, 841.91 1270.67, 841.44 1271.33, 840.96 1272.0, 840.49 1272.67, 840.02 1273.33, 839.54 1274.0, 839.07 1274.67, 838.59 1275.33, 838.12 1276.0, 837.64 1276.67, 837.17 1277.33, 836.69 1278.0, 836.21 1278.67, 835.74 1279.33, 835.26 1280.0, 834.78 1280.67, 834.3 1281.33, 833.83 1282.0, 833.35 1282.67, 832.87 1283.33, 832.39 1284.0, 831.92 1284.67, 831.44 1285.33, 830.96 1286.0, 830.49 1286.67, 830.01 1287.33, 829.53 1288.0, 829.06 1288.67, 828.58 1289.33, 828.11 1290.0, 827.63 1290.67, 827.16 1291.33, 826.69 1292.0, 826.21 1292.67, 825.74 1293.33, 825.27 1294.0, 824.8 1294.67, 824.33 1295.33, 823.86 1296.0, 823.39 1296.67, 822.92 1297.33, 822.46 1298.0, 821.99 1298.67, 821.53 1299.33, 821.06 1300.0, 820.6 1300.67, 820.14 1301.33, 819.68 1302.0, 819.22 1302.67, 818.76 1303.33, 818.3 1304.0, 817.85 1304.67, 817.39 1305.33, 816.94 1306.0, 816.49 1306.67, 816.03 1307.33, 815.58 1308.0, 815.13 1308.67, 814.69 1309.33, 814.24 1310.0, 813.8 1310.67, 813.35 1311.33, 812.91 1312.0, 812.47 1312.67, 812.03 1313.33, 811.59 1314.0, 811.15 1314.67, 810.72 1315.33, 810.28 1316.0, 809.85 1316.67, 809.42 1317.33, 808.99 1318.0, 808.56 1318.67, 808.13 1319.33, 807.7 1320.0, 807.28 1320.67, 806.86 1321.33, 806.43 1322.0, 806.01 1322.67, 805.59 1323.33, 805.18 1324.0, 804.76 1324.67, 804.34 1325.33, 803.93 1326.0, 803.51 1326.67, 803.1 1327.33, 802.69 1328.0, 802.28 1328.67, 801.87 1329.33, 801.46 1330.0, 801.06 1330.67, 800.65 1331.33, 800.25 1332.0, 799.84 1332.67, 799.44 1333.33, 799.04 1334.0, 798.64 1334.67, 798.23 1335.33, 797.83 1336.0, 797.43 1336.67, 797.03 1337.33, 796.64 1338.0, 796.24 1338.67, 795.84 1339.33, 795.44 1340.0, 795.04 1340.67, 794.65 1341.33, 794.25 1342.0, 793.85 1342.67, 793.45 1343.33, 793.05 1344.0, 792.66 1344.67, 792.26 1345.33, 791.86 1346.0, 791.46 1346.67, 791.06 1347.33, 790.66 1348.0, 790.25 1348.67, 789.85 1349.33, 789.44 1350.0, 789.04 1350.67, 788.63 1351.33, 788.22 1352.0, 787.81 1352.67, 787.4 1353.33, 786.98 1354.0, 786.57 1354.67, 786.15 1355.33, 785.73 1356.0, 785.3 1356.67, 784.87 1357.33, 784.44 1358.0, 784.01 1358.67, 783.57 1359.33, 783.13 1360.0, 782.69 1360.67, 782.24 1361.33, 781.79 1362.0, 781.34 1362.67, 780.87 1363.33, 780.41 1364.0, 779.94 1364.67, 779.46 1365.33, 778.98 1366.0, 778.5 1366.67, 778.01 1367.33, 777.51 1368.0, 777.0 1368.67, 776.49 1369.33, 775.98 1370.0, 775.45 1370.67, 774.92 1371.33, 774.38 1372.0, 773.83 1372.67, 773.27 1373.33, 772.71 1374.0, 772.14 1374.67, 771.55 1375.33, 770.96 1376.0, 770.36 1376.67, 769.75 1377.33, 769.12 1378.0, 768.49 1378.67, 767.85 1379.33, 767.19 1380.0, 766.52 1380.67, 765.84 1381.33, 765.15 1382.0, 764.44 1382.67, 763.72 1383.33, 762.99 1384.0, 762.24 1384.67, 761.48 1385.33, 760.7 1386.0, 759.91 1386.67, 759.1 1387.33, 758.27 1388.0, 757.43 1388.67, 756.57 1389.33, 755.69 1390.0, 754.79 1390.67, 753.88 1391.33, 752.94 1392.0, 751.99 1392.67, 751.01 1393.33, 750.01 1394.0, 749.0 1394.67, 747.96 1395.33, 746.89 1396.0, 745.81 1396.67, 744.7 1397.33, 743.56 1398.0, 742.4 1398.67, 741.21 1399.33, 740.0 1400.0, 738.76 1400.67, 737.49 1401.33, 736.2 1402.0, 734.87 1402.67, 733.52 1403.33, 732.13 1404.0, 730.72 1404.67, 729.27 1405.33, 727.79 1406.0, 726.27 1406.67, 724.72 1407.33, 723.14 1408.0, 721.52 1408.67, 719.86 1409.33, 718.17 1410.0, 716.43 1410.67, 714.66 1411.33, 712.85 1412.0, 711.0 1412.67, 709.1 1413.33, 707.17 1414.0, 705.18 1414.67, 703.16 1415.33, 701.09 1416.0, 698.97 1416.67, 696.8 1417.33, 694.59 1418.0, 692.33 1418.67, 690.01 1419.33, 687.64 1420.0, 685.23 1420.67, 682.75 1421.33, 680.22 1422.0, 677.64 1422.67, 675.0 1423.33, 672.3 1424.0, 669.54 1424.67, 666.72 1425.33, 663.84 1426.0, 660.89 1426.67, 657.88 1427.33, 654.8 1428.0, 651.66 1428.67, 648.45 1429.33, 645.17 1430.0, 641.81 1430.67, 638.39 1431.33, 634.89 1432.0, 631.31 1432.67, 627.66 1433.33, 623.93 1434.0, 620.12 1434.67, 616.23 1435.33, 612.26 1436.0, 608.2 1436.67, 604.06 1437.33, 599.82 1438.0, 595.5 1438.67, 591.09 1439.33, 586.59 1440.0, 581.99 1440.67, 577.29 1441.33, 572.5 1442.0, 567.61 1442.67, 562.62 1443.33, 557.52 1444.0, 552.32 1444.67, 547.01 1445.33, 541.59 1446.0, 536.07 1446.67, 530.43 1447.33, 524.67 1448.0, 518.8 1448.67, 512.81 1449.33, 506.69 1450.0, 500.46 1450.67, 494.1 1451.33, 487.61 1452.0, 481.0 1452.67, 474.25 1453.33, 467.36 1454.0, 460.34 1454.67, 453.19 1455.33, 445.89 1456.0, 438.44 1456.67, 430.86 1457.33, 423.12 1458.0, 415.23 1458.67, 407.19 1459.33, 398.99 1460.0, 390.63 1460.67, 382.12 1461.33, 373.44 1462.0, 364.59 1462.67, 355.57 1463.33, 346.38 1464.0, 337.01 1464.67, 327.47 1465.33, 317.75 1466.0, 307.84 1466.67, 297.75 1467.33, 287.46 1468.0, 276.98 1468.67, 266.31 1469.33, 255.44 1470.0, 244.36 1470.67, 233.08 1471.33, 221.59 1472.0, 209.89 1472.67, 197.97 1473.33, 185.83 1474.0, 173.47 1474.67, 160.89 1475.33, 148.07 1476.0, 135.02 1476.67, 121.73 1477.33, 108.21 1478.0, 94.44 1478.67, 80.42 1479.33, 66.15 1480.0, 51.62 1480.67, 36.83 1481.33, 21.78 1482.0, 6.46 1482.67, -9.13 1483.33, -25.0 1484.0, -41.15 1484.67, -57.58 1485.33, -74.31 1486.0, -91.32 1486.67, -108.64 1487.33, -126.25 1488.0, -144.18 1488.67, -162.41 1489.33, -180.96 1490.0, -199.84 1490.67, -219.04 1491.33, -238.57 1492.0, -258.43 1492.67, -278.64 1493.33, -299.19 1494.0, -320.09 1494.67, -341.35 1495.33, -362.97 1496.0, -384.96 1496.67, -407.32 1497.33, -430.05 1498.0, -453.17 1498.67, -476.68 1499.33, -500.58 1500.0, -524.89 1500.67, -549.59 1501.33, -574.71 1502.0, -600.25 1502.67, -626.21 1503.33, -652.6 1504.0, -679.43 1504.67, -706.69 1505.33, -734.41 1506.0, -762.58 1506.67, -791.21 1507.33, -820.32 1508.0, -849.89 1508.67, -879.95 1509.33, -910.49 1510.0, -941.53 1510.67, -973.07 1511.33, -1005.12 1512.0, -1037.68 1512.67, -1070.77 1513.33, -1104.39 1514.0, -1138.55 1514.67, -1173.25 1515.33, -1208.51 1516.0, -1244.32 1516.67, -1280.71 1517.33, -1317.67 1518.0, -1355.22 1518.67, -1393.36 1519.33, -1432.09 1520.0, -1471.44 1520.67, -1511.41 1521.33, -1552.0 1522.0, -1593.22 1522.67, -1635.09 1523.33, -1677.6 1524.0, -1720.78 1524.67, -1764.63 1525.33, -1809.16 1526.0, -1854.37 1526.67, -1900.28 1527.33, -1946.9 1528.0, -1994.23 1528.67, -2042.29 1529.33, -2091.08 1530.0, -2140.62 1530.67, -2190.91 1531.33, -2241.97 1532.0, -2293.8 1532.67, -2346.42 1533.33, -2399.83 1534.0, -2454.05 1534.67, -2509.09 1535.33, -2564.95 1536.0, -2621.65 1536.67, -2679.2 1537.33, -2737.62 1538.0, -2796.9 1538.67, -2857.07 1539.33, -2918.14 1540.0, -2980.11 1540.67, -3043.0 1541.33, -3106.82 1542.0, -3171.58 1542.67, -3237.3 1543.33, -3303.99 1544.0, -3371.65 1544.67, -3440.31 1545.33, -3509.97 1546.0, -3580.65 1546.67, -3652.37 1547.33, -3725.13 1548.0, -3798.94 1548.67, -3873.83 1549.33, -3949.8 1550.0, -4026.87 1550.67, -4105.06 1551.33, -4184.37 1552.0, -4264.82 1552.67, -4346.43 1553.33, -4429.21 1554.0, -4513.17 1554.67, -4598.34 1555.33, -4684.72 1556.0, -4772.33 1556.67, -4861.19 1557.33, -4951.31 1558.0, -5042.71 1558.67, -5135.4 1559.33, -5229.41 1560.0, -5324.73 1560.67, -5421.41 1561.33, -5519.44 1562.0, -5618.85 1562.67, -5719.65 1563.33, -5821.86 1564.0, -5925.5 1564.67, -6030.59 1565.33, -6137.14 1566.0, -6245.17 1566.67, -6354.7 1567.33, -6465.75 1568.0, -6578.34 1568.67, -6692.48 1569.33, -6808.2 1570.0, -6925.51 1570.67, -7044.44 1571.33, -7165.0 1572.0, -7287.21 1572.67, -7411.1 1573.33, -7536.68 1574.0, -7663.98 1574.67, -7793.01 1575.33, -7923.79 1576.0, -8056.35 1576.67, -8190.71 1577.33, -8326.9 1578.0, -8464.92 1578.67, -8604.81 1579.33, -8746.58 1580.0, -8890.26 1580.67, -9035.88 1581.33, -9183.45 1582.0, -9333.0 1582.67, -9484.55 1583.33, -9638.13 1584.0, -9793.75 1584.67, -9951.45 1585.33, -10111.25 1586.0, -10273.17 1586.67, -10437.24 1587.33, -10603.49 1588.0, -10771.93 1588.67, -10942.6 1589.33, -11115.52 1590.0, -11290.72 1590.67, -11468.23 1591.33, -11648.07 1592.0, -11830.26 1592.67, -12014.84 1593.33, -12201.84 1594.0, -12391.28 1594.67, -12583.19 1595.33, -12777.6 1596.0, -12974.54 1596.67, -13174.03 1597.33, -13376.12 1598.0, -13580.82 1598.67, -13788.17 1599.33, -13998.2 1600.0, -14210.93 " fill="none" stroke="white" stroke-width="1.5" stroke-linejoin="round" stroke-opacity="1"/>

 </svg>