<svg version="1.1" 
 baseProfile="full" 
 width="1600" 
 height="1600" 
 xmlns="http://www.w3.org/2000/svg">
<rect x="0.0" y="0.0" width="1600" height="1600" fill="black" stroke="black" stroke-width="0" opacity="1"/>
<line x1="0.0" y1="0.0" x2="0.0" y2="1600.0" stroke="white" stroke-width="1" opacity="0.4" stroke-linecap="butt"/>
<line x1="160.0" y1="0.0" x2="160.0" y2="1600.0" stroke="white" stroke-width="1" opacity="0.4" stroke-linecap="butt"/>
<line x1="320.0" y1="0.0" x2="320.0" y2="1600.0" stroke="white" stroke-width="1" opacity="0.4" stroke-linecap="butt"/>
<line x1="480.0" y1="0.0" x2="480.0" y2="1600.0" stroke="white" stroke-width="1" opacity="0.4" stroke-linecap="butt"/>
<line x1="640.0" y1="0.0" x2="640.0" y2="1600.0" stroke="white" stroke-width="1" opacity="0.4" stroke-linecap="butt"/>
<line x1="800.0" y1="0.0" x2="800.0" y2="1600.0" stroke="white" stroke-width="1" opacity="0.4" stroke-linecap="butt"/>
<line x1="960.0" y1="0.0" x2="960.0" y2="1600.0" stroke="white" stroke-width="1" opacity="0.4" stroke-linecap="butt"/>
<line x1="1120.0" y1="0.0" x2="1120.0" y2="1600.0" stroke="white" stroke-width="1" opacity="0.4" stroke-linecap="butt"/>
<line x1="1280.0" y1="0.0" x2="1280.0" y2="1600.0" stroke="white" stroke-width="1" opacity="0.4" stroke-linecap="butt"/>
<line x1="1440.0" y1="0.0" x2="1440.0" y2="1600.0" stroke="white" stroke-width="1" opacity="0.4" stroke-linecap="butt"/>
<line x1="0.0" y1="0.0" x2="1600.0" y2="0.0" stroke="white" stroke-width="1" opacity="0.4" stroke-linecap="butt"/>
<line x1="0.0" y1="160.0" x2="1600.0" y2="160.0" stroke="white" stroke-width="1" opacity="0.4" stroke-linecap="butt"/>
<line x1="0.0" y1="320.0" x2="1600.0" y2="320.0" stroke="white" stroke-width="1" opacity="0.4" stroke-linecap="butt"/>
<line x1="0.0" y1="480.0" x2="1600.0" y2="480.0" stroke="white" stroke-width="1" opacity="0.4" stroke-linecap="butt"/>
<line x1="0.0" y1="640.0" x2="1600.0" y2="640.0" stroke="white" stroke-width="1" opacity="0.4" stroke-linecap="butt"/>
<line x1="0.0" y1="800.0" x2="1600.0" y2="800.0" stroke="white" stroke-width="1" opacity="0.4" stroke-linecap="butt"/>
<line x1="0.0" y1="960.0" x2="1600.0" y2="960.0" stroke="white" stroke-width="1" opacity="0.4" stroke-linecap="butt"/>
<line x1="0.0" y1="1120.0" x2="1600.0" y2="1120.0" stroke="white" stroke-width="1" opacity="0.4" stroke-linecap="butt"/>
<line x1="0.0" y1="1280.0" x2="1600.0" y2="1280.0" stroke="white" stroke-width="1" opacity="0.4" stroke-linecap="butt"/>
<line x1="0.0" y1="1440.0" x2="1600.0" y2="1440.0" stroke="white" stroke-width="1" opacity="0.4" stroke-linecap="butt"/>
<line x1="0.0" y1="800.0" x2="1600.0" y2="800.0" stroke="yellow" stroke-width="2.5" opacity="1" stroke-linecap="butt"/>
<line x1="800.0" y1="0.0" x2="800.0" y2="1600.0" stroke="yellow" stroke-width="2.5" opacity="1" stroke-linecap="butt"/>
<polygon points="1564.0 816.0, 1604.0 800.0, 1564.0 784.0, 1572.0 800.0" fill="yellow"/><polygon points="816.0 36.0, 800.0 -4.0, 784.0 36.0, 800.0 28.0" fill="yellow"/><polyline points="0.0, 15657.99 0.67, 15494.79 1.33, 15333.21 2.0, 15173.24 2.67, 15014.86 3.33, 14858.06 4.0, 14702.82 4.67, 14549.13 5.33, 14396.99 6.0, 14246.36 6.67, 14097.25 7.33, 13949.63 8.0, 13803.5 8.67, 13658.84 9.33, 13515.64 10.0, 13373.89 10.67, 13233.56 11.33, 13094.66 12.0, 12957.17 12.67, 12821.07 13.33, 12686.36 14.0, 12553.01 14.67, 12421.03 15.33, 12290.39 16.0, 12161.08 16.67, 12033.1 17.33, 11906.43 18.0, 11781.06 18.67, 11656.97 19.33, 11534.17 20.0, 11412.62 20.67, 11292.33 21.33, 11173.28 22.0, 11055.46 22.67, 10938.86 23.33, 10823.47 24.0, 10709.28 24.67, 10596.27 25.33, 10484.43 26.0, 10373.77 26.67, 10264.25 27.33, 10155.88 28.0, 10048.65 28.67, 9942.53 29.33, 9837.53 30.0, 9733.63 30.67, 9630.82 31.33, 9529.1 32.0, 9428.44 32.67, 9328.85 33.33, 9230.31 34.0, 9132.81 34.67, 9036.35 35.33, 8940.91 36.0, 8846.48 36.67, 8753.05 37.33, 8660.62 38.0, 8569.18 38.67, 8478.71 39.33, 8389.21 40.0, 8300.66 40.67, 8213.07 41.33, 8126.41 42.0, 8040.68 42.67, 7955.88 43.33, 7871.99 44.0, 7789.0 44.67, 7706.92 45.33, 7625.71 46.0, 7545.39 46.67, 7465.94 47.33, 7387.35 48.0, 7309.61 48.67, 7232.72 49.33, 7156.66 50.0, 7081.44 50.67, 7007.04 51.33, 6933.45 52.0, 6860.66 52.67, 6788.68 53.33, 6717.48 54.0, 6647.07 54.67, 6577.43 55.33, 6508.56 56.0, 6440.44 56.67, 6373.08 57.33, 6306.47 58.0, 6240.59 58.67, 6175.44 59.33, 6111.02 60.0, 6047.31 60.67, 5984.31 61.33, 5922.02 62.0, 5860.42 62.67, 5799.5 63.33, 5739.27 64.0, 5679.71 64.67, 5620.82 65.33, 5562.59 66.0, 5505.01 66.67, 5448.09 67.33, 5391.8 68.0, 5336.15 68.67, 5281.13 69.33, 5226.73 70.0, 5172.94 70.67, 5119.77 71.33, 5067.2 72.0, 5015.23 72.67, 4963.84 73.33, 4913.05 74.0, 4862.83 74.67, 4813.19 75.33, 4764.11 76.0, 4715.6 76.67, 4667.64 77.33, 4620.23 78.0, 4573.37 78.67, 4527.05 79.33, 4481.26 80.0, 4435.99 80.67, 4391.25 81.33, 4347.03 82.0, 4303.32 82.67, 4260.12 83.33, 4217.41 84.0, 4175.21 84.67, 4133.49 85.33, 4092.26 86.0, 4051.51 86.67, 4011.24 87.33, 3971.43 88.0, 3932.1 88.67, 3893.22 89.33, 3854.8 90.0, 3816.83 90.67, 3779.3 91.33, 3742.22 92.0, 3705.58 92.67, 3669.36 93.33, 3633.58 94.0, 3598.22 94.67, 3563.27 95.33, 3528.74 96.0, 3494.62 96.67, 3460.91 97.33, 3427.59 98.0, 3394.68 98.67, 3362.15 99.33, 3330.01 100.0, 3298.26 100.67, 3266.89 101.33, 3235.89 102.0, 3205.26 102.67, 3175.0 103.33, 3145.11 104.0, 3115.57 104.67, 3086.39 105.33, 3057.56 106.0, 3029.08 106.67, 3000.94 107.33, 2973.15 108.0, 2945.69 108.67, 2918.56 109.33, 2891.76 110.0, 2865.29 110.67, 2839.14 111.33, 2813.3 112.0, 2787.78 112.67, 2762.58 113.33, 2737.68 114.0, 2713.08 114.67, 2688.79 115.33, 2664.79 116.0, 2641.09 116.67, 2617.68 117.33, 2594.55 118.0, 2571.71 118.67, 2549.15 119.33, 2526.87 120.0, 2504.86 120.67, 2483.13 121.33, 2461.66 122.0, 2440.46 122.67, 2419.52 123.33, 2398.85 124.0, 2378.42 124.67, 2358.25 125.33, 2338.34 126.0, 2318.67 126.67, 2299.24 127.33, 2280.06 128.0, 2261.11 128.67, 2242.41 129.33, 2223.93 130.0, 2205.69 130.67, 2187.67 131.33, 2169.88 132.0, 2152.32 132.67, 2134.97 133.33, 2117.85 134.0, 2100.93 134.67, 2084.23 135.33, 2067.74 136.0, 2051.46 136.67, 2035.39 137.33, 2019.51 138.0, 2003.84 138.67, 1988.36 139.33, 1973.08 140.0, 1958.0 140.67, 1943.1 141.33, 1928.4 142.0, 1913.88 142.67, 1899.54 143.33, 1885.39 144.0, 1871.42 144.67, 1857.62 145.33, 1844.0 146.0, 1830.56 146.67, 1817.28 147.33, 1804.18 148.0, 1791.24 148.67, 1778.46 149.33, 1765.85 150.0, 1753.41 150.67, 1741.12 151.33, 1728.98 152.0, 1717.01 152.67, 1705.18 153.33, 1693.51 154.0, 1681.99 154.67, 1670.61 155.33, 1659.38 156.0, 1648.3 156.67, 1637.36 157.33, 1626.56 158.0, 1615.89 158.67, 1605.37 159.33, 1594.98 160.0, 1584.72 160.67, 1574.6 161.33, 1564.6 162.0, 1554.74 162.67, 1545.0 163.33, 1535.38 164.0, 1525.89 164.67, 1516.53 165.33, 1507.28 166.0, 1498.15 166.67, 1489.14 167.33, 1480.25 168.0, 1471.47 168.67, 1462.81 169.33, 1454.25 170.0, 1445.81 170.67, 1437.48 171.33, 1429.25 172.0, 1421.13 172.67, 1413.11 173.33, 1405.2 174.0, 1397.39 174.67, 1389.68 175.33, 1382.07 176.0, 1374.56 176.67, 1367.14 177.33, 1359.83 178.0, 1352.6 178.67, 1345.47 179.33, 1338.43 180.0, 1331.48 180.67, 1324.62 181.33, 1317.84 182.0, 1311.16 182.67, 1304.56 183.33, 1298.04 184.0, 1291.61 184.67, 1285.27 185.33, 1279.0 186.0, 1272.81 186.67, 1266.7 187.33, 1260.67 188.0, 1254.72 188.67, 1248.85 189.33, 1243.05 190.0, 1237.32 190.67, 1231.66 191.33, 1226.08 192.0, 1220.57 192.67, 1215.13 193.33, 1209.76 194.0, 1204.46 194.67, 1199.22 195.33, 1194.05 196.0, 1188.94 196.67, 1183.9 197.33, 1178.93 198.0, 1174.01 198.67, 1169.16 199.33, 1164.37 200.0, 1159.64 200.67, 1154.97 201.33, 1150.36 202.0, 1145.8 202.67, 1141.3 203.33, 1136.86 204.0, 1132.48 204.67, 1128.14 205.33, 1123.86 206.0, 1119.64 206.67, 1115.47 207.33, 1111.34 208.0, 1107.27 208.67, 1103.25 209.33, 1099.28 210.0, 1095.36 210.67, 1091.48 211.33, 1087.66 212.0, 1083.87 212.67, 1080.14 213.33, 1076.45 214.0, 1072.8 214.67, 1069.2 215.33, 1065.65 216.0, 1062.13 216.67, 1058.66 217.33, 1055.23 218.0, 1051.84 218.67, 1048.49 219.33, 1045.18 220.0, 1041.9 220.67, 1038.67 221.33, 1035.48 222.0, 1032.32 222.67, 1029.2 223.33, 1026.12 224.0, 1023.07 224.67, 1020.06 225.33, 1017.08 226.0, 1014.14 226.67, 1011.23 227.33, 1008.35 228.0, 1005.51 228.67, 1002.7 229.33, 999.92 230.0, 997.17 230.67, 994.45 231.33, 991.76 232.0, 989.11 232.67, 986.48 233.33, 983.88 234.0, 981.32 234.67, 978.77 235.33, 976.26 236.0, 973.78 236.67, 971.32 237.33, 968.89 238.0, 966.48 238.67, 964.1 239.33, 961.75 240.0, 959.42 240.67, 957.12 241.33, 954.84 242.0, 952.58 242.67, 950.35 243.33, 948.14 244.0, 945.95 244.67, 943.79 245.33, 941.65 246.0, 939.53 246.67, 937.43 247.33, 935.36 248.0, 933.3 248.67, 931.27 249.33, 929.25 250.0, 927.26 250.67, 925.28 251.33, 923.33 252.0, 921.39 252.67, 919.48 253.33, 917.58 254.0, 915.7 254.67, 913.84 255.33, 911.99 256.0, 910.17 256.67, 908.36 257.33, 906.56 258.0, 904.79 258.67, 903.03 259.33, 901.29 260.0, 899.56 260.67, 897.85 261.33, 896.16 262.0, 894.48 262.67, 892.81 263.33, 891.16 264.0, 889.53 264.67, 887.91 265.33, 886.3 266.0, 884.71 266.67, 883.13 267.33, 881.56 268.0, 880.01 268.67, 878.48 269.33, 876.95 270.0, 875.44 270.67, 873.94 271.33, 872.45 272.0, 870.98 272.67, 869.52 273.33, 868.07 274.0, 866.63 274.67, 865.2 275.33, 863.79 276.0, 862.39 276.67, 861.0 277.33, 859.61 278.0, 858.24 278.67, 856.89 279.33, 855.54 280.0, 854.2 280.67, 852.87 281.33, 851.56 282.0, 850.25 282.67, 848.95 283.33, 847.66 284.0, 846.39 284.67, 845.12 285.33, 843.86 286.0, 842.61 286.67, 841.37 287.33, 840.14 288.0, 838.92 288.67, 837.71 289.33, 836.51 290.0, 835.31 290.67, 834.13 291.33, 832.95 292.0, 831.78 292.67, 830.62 293.33, 829.47 294.0, 828.32 294.67, 827.19 295.33, 826.06 296.0, 824.94 296.67, 823.83 297.33, 822.72 298.0, 821.62 298.67, 820.53 299.33, 819.45 300.0, 818.38 300.67, 817.31 301.33, 816.25 302.0, 815.2 302.67, 814.15 303.33, 813.12 304.0, 812.08 304.67, 811.06 305.33, 810.04 306.0, 809.03 306.67, 808.03 307.33, 807.03 308.0, 806.04 308.67, 805.06 309.33, 804.08 310.0, 803.11 310.67, 802.15 311.33, 801.19 312.0, 800.24 312.67, 799.29 313.33, 798.36 314.0, 797.42 314.67, 796.5 315.33, 795.58 316.0, 794.66 316.67, 793.76 317.33, 792.86 318.0, 791.96 318.67, 791.07 319.33, 790.19 320.0, 789.31 320.67, 788.44 321.33, 787.57 322.0, 786.71 322.67, 785.86 323.33, 785.01 324.0, 784.17 324.67, 783.33 325.33, 782.5 326.0, 781.68 326.67, 780.86 327.33, 780.04 328.0, 779.23 328.67, 778.43 329.33, 777.63 330.0, 776.84 330.67, 776.06 331.33, 775.28 332.0, 774.5 332.67, 773.73 333.33, 772.97 334.0, 772.21 334.67, 771.46 335.33, 770.71 336.0, 769.97 336.67, 769.23 337.33, 768.5 338.0, 767.78 338.67, 767.06 339.33, 766.34 340.0, 765.63 340.67, 764.93 341.33, 764.23 342.0, 763.54 342.67, 762.85 343.33, 762.17 344.0, 761.49 344.67, 760.82 345.33, 760.15 346.0, 759.49 346.67, 758.84 347.33, 758.19 348.0, 757.54 348.67, 756.9 349.33, 756.27 350.0, 755.64 350.67, 755.02 351.33, 754.4 352.0, 753.79 352.67, 753.18 353.33, 752.58 354.0, 751.98 354.67, 751.39 355.33, 750.8 356.0, 750.22 356.67, 749.65 357.33, 749.08 358.0, 748.52 358.67, 747.96 359.33, 747.4 360.0, 746.86 360.67, 746.31 361.33, 745.78 362.0, 745.24 362.67, 744.72 363.33, 744.2 364.0, 743.68 364.67, 743.17 365.33, 742.67 366.0, 742.17 366.67, 741.67 367.33, 741.19 368.0, 740.7 368.67, 740.23 369.33, 739.75 370.0, 739.29 370.67, 738.83 371.33, 738.37 372.0, 737.92 372.67, 737.48 373.33, 737.04 374.0, 736.61 374.67, 736.18 375.33, 735.76 376.0, 735.34 376.67, 734.93 377.33, 734.52 378.0, 734.13 378.67, 733.73 379.33, 733.34 380.0, 732.96 380.67, 732.58 381.33, 732.21 382.0, 731.84 382.67, 731.48 383.33, 731.13 384.0, 730.78 384.67, 730.44 385.33, 730.1 386.0, 729.77 386.67, 729.44 387.33, 729.12 388.0, 728.8 388.67, 728.49 389.33, 728.19 390.0, 727.89 390.67, 727.6 391.33, 727.31 392.0, 727.03 392.67, 726.76 393.33, 726.49 394.0, 726.22 394.67, 725.96 395.33, 725.71 396.0, 725.47 396.67, 725.22 397.33, 724.99 398.0, 724.76 398.67, 724.54 399.33, 724.32 400.0, 724.11 400.67, 723.9 401.33, 723.7 402.0, 723.51 402.67, 723.32 403.33, 723.13 404.0, 722.96 404.67, 722.78 405.33, 722.62 406.0, 722.46 406.67, 722.3 407.33, 722.16 408.0, 722.01 408.67, 721.88 409.33, 721.75 410.0, 721.62 410.67, 721.5 411.33, 721.39 412.0, 721.28 412.67, 721.18 413.33, 721.08 414.0, 720.99 414.67, 720.91 415.33, 720.83 416.0, 720.76 416.67, 720.69 417.33, 720.63 418.0, 720.57 418.67, 720.53 419.33, 720.48 420.0, 720.44 420.67, 720.41 421.33, 720.38 422.0, 720.36 422.67, 720.35 423.33, 720.34 424.0, 720.34 424.67, 720.34 425.33, 720.35 426.0, 720.36 426.67, 720.38 427.33, 720.41 428.0, 720.44 428.67, 720.48 429.33, 720.52 430.0, 720.57 430.67, 720.62 431.33, 720.68 432.0, 720.75 432.67, 720.82 433.33, 720.89 434.0, 720.98 434.67, 721.06 435.33, 721.16 436.0, 721.26 436.67, 721.36 437.33, 721.47 438.0, 721.59 438.67, 721.71 439.33, 721.84 440.0, 721.97 440.67, 722.11 441.33, 722.26 442.0, 722.4 442.67, 722.56 443.33, 722.72 444.0, 722.89 444.67, 723.06 445.33, 723.24 446.0, 723.42 446.67, 723.61 447.33, 723.8 448.0, 724.0 448.67, 724.2 449.33, 724.41 450.0, 724.63 450.67, 724.85 451.33, 725.07 452.0, 725.3 452.67, 725.54 453.33, 725.78 454.0, 726.03 454.67, 726.28 455.33, 726.53 456.0, 726.8 456.67, 727.06 457.33, 727.34 458.0, 727.61 458.67, 727.9 459.33, 728.18 460.0, 728.48 460.67, 728.77 461.33, 729.08 462.0, 729.38 462.67, 729.7 463.33, 730.01 464.0, 730.34 464.67, 730.66 465.33, 731.0 466.0, 731.33 466.67, 731.68 467.33, 732.02 468.0, 732.37 468.67, 732.73 469.33, 733.09 470.0, 733.46 470.67, 733.83 471.33, 734.2 472.0, 734.58 472.67, 734.97 473.33, 735.36 474.0, 735.75 474.67, 736.15 475.33, 736.55 476.0, 736.95 476.67, 737.37 477.33, 737.78 478.0, 738.2 478.67, 738.63 479.33, 739.05 480.0, 739.49 480.67, 739.92 481.33, 740.36 482.0, 740.81 482.67, 741.26 483.33, 741.71 484.0, 742.17 484.67, 742.63 485.33, 743.1 486.0, 743.57 486.67, 744.04 487.33, 744.52 488.0, 745.0 488.67, 745.49 489.33, 745.97 490.0, 746.47 490.67, 746.96 491.33, 747.46 492.0, 747.97 492.67, 748.48 493.33, 748.99 494.0, 749.5 494.67, 750.02 495.33, 750.54 496.0, 751.07 496.67, 751.59 497.33, 752.13 498.0, 752.66 498.67, 753.2 499.33, 753.74 500.0, 754.29 500.67, 754.84 501.33, 755.39 502.0, 755.94 502.67, 756.5 503.33, 757.06 504.0, 757.62 504.67, 758.19 505.33, 758.76 506.0, 759.33 506.67, 759.91 507.33, 760.48 508.0, 761.07 508.67, 761.65 509.33, 762.23 510.0, 762.82 510.67, 763.41 511.33, 764.01 512.0, 764.6 512.67, 765.2 513.33, 765.8 514.0, 766.41 514.67, 767.01 515.33, 767.62 516.0, 768.23 516.67, 768.85 517.33, 769.46 518.0, 770.08 518.67, 770.7 519.33, 771.32 520.0, 771.94 520.67, 772.57 521.33, 773.19 522.0, 773.82 522.67, 774.45 523.33, 775.09 524.0, 775.72 524.67, 776.36 525.33, 776.99 526.0, 777.63 526.67, 778.27 527.33, 778.92 528.0, 779.56 528.67, 780.2 529.33, 780.85 530.0, 781.5 530.67, 782.15 531.33, 782.8 532.0, 783.45 532.67, 784.1 533.33, 784.76 534.0, 785.41 534.67, 786.07 535.33, 786.72 536.0, 787.38 536.67, 788.04 537.33, 788.7 538.0, 789.36 538.67, 790.02 539.33, 790.68 540.0, 791.35 540.67, 792.01 541.33, 792.67 542.0, 793.34 542.67, 794.0 543.33, 794.67 544.0, 795.33 544.67, 796.0 545.33, 796.66 546.0, 797.33 546.67, 798.0 547.33, 798.66 548.0, 799.33 548.67, 799.99 549.33, 800.66 550.0, 801.33 550.67, 801.99 551.33, 802.66 552.0, 803.33 552.67, 803.99 553.33, 804.66 554.0, 805.32 554.67, 805.99 555.33, 806.65 556.0, 807.32 556.67, 807.98 557.33, 808.64 558.0, 809.31 558.67, 809.97 559.33, 810.63 560.0, 811.29 560.67, 811.95 561.33, 812.61 562.0, 813.27 562.67, 813.92 563.33, 814.58 564.0, 815.23 564.67, 815.89 565.33, 816.54 566.0, 817.19 566.67, 817.84 567.33, 818.49 568.0, 819.14 568.67, 819.79 569.33, 820.43 570.0, 821.08 570.67, 821.72 571.33, 822.36 572.0, 823.0 572.67, 823.64 573.33, 824.27 574.0, 824.91 574.67, 825.54 575.33, 826.17 576.0, 826.8 576.67, 827.43 577.33, 828.05 578.0, 828.68 578.67, 829.3 579.33, 829.92 580.0, 830.53 580.67, 831.15 581.33, 831.76 582.0, 832.37 582.67, 832.98 583.33, 833.59 584.0, 834.19 584.67, 834.79 585.33, 835.39 586.0, 835.99 586.67, 836.58 587.33, 837.17 588.0, 837.76 588.67, 838.35 589.33, 838.93 590.0, 839.51 590.67, 840.09 591.33, 840.67 592.0, 841.24 592.67, 841.81 593.33, 842.38 594.0, 842.94 594.67, 843.5 595.33, 844.06 596.0, 844.61 596.67, 845.17 597.33, 845.72 598.0, 846.26 598.67, 846.8 599.33, 847.34 600.0, 847.88 600.67, 848.41 601.33, 848.94 602.0, 849.46 602.67, 849.99 603.33, 850.51 604.0, 851.02 604.67, 851.53 605.33, 852.04 606.0, 852.55 606.67, 853.05 607.33, 853.54 608.0, 854.04 608.67, 854.53 609.33, 855.01 610.0, 855.49 610.67, 855.97 611.33, 856.45 612.0, 856.92 612.67, 857.38 613.33, 857.85 614.0, 858.31 614.67, 858.76 615.33, 859.21 616.0, 859.66 616.67, 860.1 617.33, 860.54 618.0, 860.97 618.67, 861.4 619.33, 861.82 620.0, 862.25 620.67, 862.66 621.33, 863.07 622.0, 863.48 622.67, 863.89 623.33, 864.29 624.0, 864.68 624.67, 865.07 625.33, 865.46 626.0, 865.84 626.67, 866.21 627.33, 866.58 628.0, 866.95 628.67, 867.31 629.33, 867.67 630.0, 868.03 630.67, 868.37 631.33, 868.72 632.0, 869.06 632.67, 869.39 633.33, 869.72 634.0, 870.04 634.67, 870.36 635.33, 870.68 636.0, 870.99 636.67, 871.29 637.33, 871.59 638.0, 871.89 638.67, 872.18 639.33, 872.46 640.0, 872.74 640.67, 873.02 641.33, 873.29 642.0, 873.55 642.67, 873.81 643.33, 874.07 644.0, 874.32 644.67, 874.56 645.33, 874.8 646.0, 875.03 646.67, 875.26 647.33, 875.49 648.0, 875.7 648.67, 875.92 649.33, 876.12 650.0, 876.33 650.67, 876.52 651.33, 876.72 652.0, 876.9 652.67, 877.08 653.33, 877.26 654.0, 877.43 654.67, 877.59 655.33, 877.75 656.0, 877.91 656.67, 878.06 657.33, 878.2 658.0, 878.34 658.67, 878.47 659.33, 878.6 660.0, 878.72 660.67, 878.83 661.33, 878.95 662.0, 879.05 662.67, 879.15 663.33, 879.24 664.0, 879.33 664.67, 879.42 665.33, 879.49 666.0, 879.57 666.67, 879.63 667.33, 879.69 668.0, 879.75 668.67, 879.8 669.33, 879.84 670.0, 879.88 670.67, 879.92 671.33, 879.94 672.0, 879.97 672.67, 879.98 673.33, 879.99 674.0, 880.0 674.67, 880.0 675.33, 879.99 676.0, 879.98 676.67, 879.97 677.33, 879.94 678.0, 879.92 678.67, 879.88 679.33, 879.84 680.0, 879.8 680.67, 879.75 681.33, 879.69 682.0, 879.63 682.67, 879.57 683.33, 879.49 684.0, 879.42 684.67, 879.33 685.33, 879.25 686.0, 879.15 686.67, 879.05 687.33, 878.95 688.0, 878.84 688.67, 878.72 689.33, 878.6 690.0, 878.47 690.67, 878.34 691.33, 878.2 692.0, 878.06 692.67, 877.91 693.33, 877.76 694.0, 877.6 694.67, 877.43 695.33, 877.26 696.0, 877.08 696.67, 876.9 697.33, 876.72 698.0, 876.53 698.67, 876.33 699.33, 876.13 700.0, 875.92 700.67, 875.71 701.33, 875.49 702.0, 875.26 702.67, 875.04 703.33, 874.8 704.0, 874.56 704.67, 874.32 705.33, 874.07 706.0, 873.82 706.67, 873.56 707.33, 873.29 708.0, 873.02 708.67, 872.75 709.33, 872.47 710.0, 872.18 710.67, 871.89 711.33, 871.6 712.0, 871.3 712.67, 870.99 713.33, 870.68 714.0, 870.37 714.67, 870.05 715.33, 869.72 716.0, 869.39 716.67, 869.06 717.33, 868.72 718.0, 868.38 718.67, 868.03 719.33, 867.68 720.0, 867.32 720.67, 866.96 721.33, 866.59 722.0, 866.22 722.67, 865.84 723.33, 865.46 724.0, 865.07 724.67, 864.68 725.33, 864.29 726.0, 863.89 726.67, 863.49 727.33, 863.08 728.0, 862.67 728.67, 862.25 729.33, 861.83 730.0, 861.4 730.67, 860.97 731.33, 860.54 732.0, 860.1 732.67, 859.66 733.33, 859.21 734.0, 858.76 734.67, 858.31 735.33, 857.85 736.0, 857.39 736.67, 856.92 737.33, 856.45 738.0, 855.98 738.67, 855.5 739.33, 855.02 740.0, 854.53 740.67, 854.04 741.33, 853.55 742.0, 853.05 742.67, 852.55 743.33, 852.05 744.0, 851.54 744.67, 851.03 745.33, 850.51 746.0, 849.99 746.67, 849.47 747.33, 848.94 748.0, 848.41 748.67, 847.88 749.33, 847.35 750.0, 846.81 750.67, 846.27 751.33, 845.72 752.0, 845.17 752.67, 844.62 753.33, 844.06 754.0, 843.51 754.67, 842.95 755.33, 842.38 756.0, 841.81 756.67, 841.25 757.33, 840.67 758.0, 840.1 758.67, 839.52 759.33, 838.94 760.0, 838.35 760.67, 837.77 761.33, 837.18 762.0, 836.59 762.67, 835.99 763.33, 835.4 764.0, 834.8 764.67, 834.2 765.33, 833.59 766.0, 832.99 766.67, 832.38 767.33, 831.77 768.0, 831.15 768.67, 830.54 769.33, 829.92 770.0, 829.3 770.67, 828.68 771.33, 828.06 772.0, 827.43 772.67, 826.8 773.33, 826.18 774.0, 825.54 774.67, 824.91 775.33, 824.28 776.0, 823.64 776.67, 823.0 777.33, 822.36 778.0, 821.72 778.67, 821.08 779.33, 820.44 780.0, 819.79 780.67, 819.15 781.33, 818.5 782.0, 817.85 782.67, 817.2 783.33, 816.55 784.0, 815.89 784.67, 815.24 785.33, 814.58 786.0, 813.93 786.67, 813.27 787.33, 812.61 788.0, 811.96 788.67, 811.3 789.33, 810.64 790.0, 809.97 790.67, 809.31 791.33, 808.65 792.0, 807.99 792.67, 807.32 793.33, 806.66 794.0, 805.99 794.67, 805.33 795.33, 804.66 796.0, 804.0 796.67, 803.33 797.33, 802.67 798.0, 802.0 798.67, 801.33 799.33, 800.67 800.0, 800.0 800.67, 799.33 801.33, 798.67 802.0, 798.0 802.67, 797.33 803.33, 796.67 804.0, 796.0 804.67, 795.34 805.33, 794.67 806.0, 794.01 806.67, 793.34 807.33, 792.68 808.0, 792.01 808.67, 791.35 809.33, 790.69 810.0, 790.03 810.67, 789.36 811.33, 788.7 812.0, 788.04 812.67, 787.39 813.33, 786.73 814.0, 786.07 814.67, 785.42 815.33, 784.76 816.0, 784.11 816.67, 783.45 817.33, 782.8 818.0, 782.15 818.67, 781.5 819.33, 780.85 820.0, 780.21 820.67, 779.56 821.33, 778.92 822.0, 778.28 822.67, 777.64 823.33, 777.0 824.0, 776.36 824.67, 775.72 825.33, 775.09 826.0, 774.46 826.67, 773.82 827.33, 773.2 828.0, 772.57 828.67, 771.94 829.33, 771.32 830.0, 770.7 830.67, 770.08 831.33, 769.46 832.0, 768.85 832.67, 768.23 833.33, 767.62 834.0, 767.01 834.67, 766.41 835.33, 765.8 836.0, 765.2 836.67, 764.6 837.33, 764.01 838.0, 763.41 838.67, 762.82 839.33, 762.23 840.0, 761.65 840.67, 761.06 841.33, 760.48 842.0, 759.9 842.67, 759.33 843.33, 758.75 844.0, 758.19 844.67, 757.62 845.33, 757.05 846.0, 756.49 846.67, 755.94 847.33, 755.38 848.0, 754.83 848.67, 754.28 849.33, 753.73 850.0, 753.19 850.67, 752.65 851.33, 752.12 852.0, 751.59 852.67, 751.06 853.33, 750.53 854.0, 750.01 854.67, 749.49 855.33, 748.97 856.0, 748.46 856.67, 747.95 857.33, 747.45 858.0, 746.95 858.67, 746.45 859.33, 745.96 860.0, 745.47 860.67, 744.98 861.33, 744.5 862.0, 744.02 862.67, 743.55 863.33, 743.08 864.0, 742.61 864.67, 742.15 865.33, 741.69 866.0, 741.24 866.67, 740.79 867.33, 740.34 868.0, 739.9 868.67, 739.46 869.33, 739.03 870.0, 738.6 870.67, 738.17 871.33, 737.75 872.0, 737.33 872.67, 736.92 873.33, 736.51 874.0, 736.11 874.67, 735.71 875.33, 735.32 876.0, 734.93 876.67, 734.54 877.33, 734.16 878.0, 733.78 878.67, 733.41 879.33, 733.04 880.0, 732.68 880.67, 732.32 881.33, 731.97 882.0, 731.62 882.67, 731.28 883.33, 730.94 884.0, 730.61 884.67, 730.28 885.33, 729.95 886.0, 729.63 886.67, 729.32 887.33, 729.01 888.0, 728.7 888.67, 728.4 889.33, 728.11 890.0, 727.82 890.67, 727.53 891.33, 727.25 892.0, 726.98 892.67, 726.71 893.33, 726.44 894.0, 726.18 894.67, 725.93 895.33, 725.68 896.0, 725.44 896.67, 725.2 897.33, 724.96 898.0, 724.74 898.67, 724.51 899.33, 724.29 900.0, 724.08 900.67, 723.87 901.33, 723.67 902.0, 723.47 902.67, 723.28 903.33, 723.1 904.0, 722.92 904.67, 722.74 905.33, 722.57 906.0, 722.4 906.67, 722.24 907.33, 722.09 908.0, 721.94 908.67, 721.8 909.33, 721.66 910.0, 721.53 910.67, 721.4 911.33, 721.28 912.0, 721.16 912.67, 721.05 913.33, 720.95 914.0, 720.85 914.67, 720.75 915.33, 720.67 916.0, 720.58 916.67, 720.51 917.33, 720.43 918.0, 720.37 918.67, 720.31 919.33, 720.25 920.0, 720.2 920.67, 720.16 921.33, 720.12 922.0, 720.08 922.67, 720.06 923.33, 720.03 924.0, 720.02 924.67, 720.01 925.33, 720.0 926.0, 720.0 926.67, 720.01 927.33, 720.02 928.0, 720.03 928.67, 720.06 929.33, 720.08 930.0, 720.12 930.67, 720.16 931.33, 720.2 932.0, 720.25 932.67, 720.31 933.33, 720.37 934.0, 720.43 934.67, 720.51 935.33, 720.58 936.0, 720.67 936.67, 720.76 937.33, 720.85 938.0, 720.95 938.67, 721.05 939.33, 721.17 940.0, 721.28 940.67, 721.4 941.33, 721.53 942.0, 721.66 942.67, 721.8 943.33, 721.94 944.0, 722.09 944.67, 722.25 945.33, 722.41 946.0, 722.57 946.67, 722.74 947.33, 722.92 948.0, 723.1 948.67, 723.28 949.33, 723.48 950.0, 723.67 950.67, 723.88 951.33, 724.08 952.0, 724.3 952.67, 724.51 953.33, 724.74 954.0, 724.97 954.67, 725.2 955.33, 725.44 956.0, 725.68 956.67, 725.93 957.33, 726.19 958.0, 726.45 958.67, 726.71 959.33, 726.98 960.0, 727.26 960.67, 727.54 961.33, 727.82 962.0, 728.11 962.67, 728.41 963.33, 728.71 964.0, 729.01 964.67, 729.32 965.33, 729.64 966.0, 729.96 966.67, 730.28 967.33, 730.61 968.0, 730.94 968.67, 731.28 969.33, 731.63 970.0, 731.97 970.67, 732.33 971.33, 732.69 972.0, 733.05 972.67, 733.42 973.33, 733.79 974.0, 734.16 974.67, 734.54 975.33, 734.93 976.0, 735.32 976.67, 735.71 977.33, 736.11 978.0, 736.52 978.67, 736.93 979.33, 737.34 980.0, 737.75 980.67, 738.18 981.33, 738.6 982.0, 739.03 982.67, 739.46 983.33, 739.9 984.0, 740.34 984.67, 740.79 985.33, 741.24 986.0, 741.69 986.67, 742.15 987.33, 742.62 988.0, 743.08 988.67, 743.55 989.33, 744.03 990.0, 744.51 990.67, 744.99 991.33, 745.47 992.0, 745.96 992.67, 746.46 993.33, 746.95 994.0, 747.45 994.67, 747.96 995.33, 748.47 996.0, 748.98 996.67, 749.49 997.33, 750.01 998.0, 750.54 998.67, 751.06 999.33, 751.59 1000.0, 752.12 1000.67, 752.66 1001.33, 753.2 1002.0, 753.74 1002.67, 754.28 1003.33, 754.83 1004.0, 755.39 1004.67, 755.94 1005.33, 756.5 1006.0, 757.06 1006.67, 757.62 1007.33, 758.19 1008.0, 758.76 1008.67, 759.33 1009.33, 759.91 1010.0, 760.49 1010.67, 761.07 1011.33, 761.65 1012.0, 762.24 1012.67, 762.83 1013.33, 763.42 1014.0, 764.01 1014.67, 764.61 1015.33, 765.21 1016.0, 765.81 1016.67, 766.41 1017.33, 767.02 1018.0, 767.63 1018.67, 768.24 1019.33, 768.85 1020.0, 769.47 1020.67, 770.08 1021.33, 770.7 1022.0, 771.32 1022.67, 771.95 1023.33, 772.57 1024.0, 773.2 1024.67, 773.83 1025.33, 774.46 1026.0, 775.09 1026.67, 775.73 1027.33, 776.36 1028.0, 777.0 1028.67, 777.64 1029.33, 778.28 1030.0, 778.92 1030.67, 779.57 1031.33, 780.21 1032.0, 780.86 1032.67, 781.51 1033.33, 782.16 1034.0, 782.81 1034.67, 783.46 1035.33, 784.11 1036.0, 784.77 1036.67, 785.42 1037.33, 786.08 1038.0, 786.73 1038.67, 787.39 1039.33, 788.05 1040.0, 788.71 1040.67, 789.37 1041.33, 790.03 1042.0, 790.69 1042.67, 791.36 1043.33, 792.02 1044.0, 792.68 1044.67, 793.35 1045.33, 794.01 1046.0, 794.68 1046.67, 795.34 1047.33, 796.01 1048.0, 796.67 1048.67, 797.34 1049.33, 798.01 1050.0, 798.67 1050.67, 799.34 1051.33, 800.01 1052.0, 800.67 1052.67, 801.34 1053.33, 802.0 1054.0, 802.67 1054.67, 803.34 1055.33, 804.0 1056.0, 804.67 1056.67, 805.33 1057.33, 806.0 1058.0, 806.66 1058.67, 807.33 1059.33, 807.99 1060.0, 808.65 1060.67, 809.32 1061.33, 809.98 1062.0, 810.64 1062.67, 811.3 1063.33, 811.96 1064.0, 812.62 1064.67, 813.28 1065.33, 813.93 1066.0, 814.59 1066.67, 815.24 1067.33, 815.9 1068.0, 816.55 1068.67, 817.2 1069.33, 817.85 1070.0, 818.5 1070.67, 819.15 1071.33, 819.8 1072.0, 820.44 1072.67, 821.08 1073.33, 821.73 1074.0, 822.37 1074.67, 823.01 1075.33, 823.64 1076.0, 824.28 1076.67, 824.91 1077.33, 825.55 1078.0, 826.18 1078.67, 826.81 1079.33, 827.43 1080.0, 828.06 1080.67, 828.68 1081.33, 829.3 1082.0, 829.92 1082.67, 830.54 1083.33, 831.15 1084.0, 831.77 1084.67, 832.38 1085.33, 832.99 1086.0, 833.59 1086.67, 834.2 1087.33, 834.8 1088.0, 835.4 1088.67, 835.99 1089.33, 836.59 1090.0, 837.18 1090.67, 837.77 1091.33, 838.35 1092.0, 838.93 1092.67, 839.52 1093.33, 840.09 1094.0, 840.67 1094.67, 841.24 1095.33, 841.81 1096.0, 842.38 1096.67, 842.94 1097.33, 843.5 1098.0, 844.06 1098.67, 844.61 1099.33, 845.16 1100.0, 845.71 1100.67, 846.26 1101.33, 846.8 1102.0, 847.34 1102.67, 847.87 1103.33, 848.41 1104.0, 848.93 1104.67, 849.46 1105.33, 849.98 1106.0, 850.5 1106.67, 851.01 1107.33, 851.52 1108.0, 852.03 1108.67, 852.54 1109.33, 853.04 1110.0, 853.53 1110.67, 854.03 1111.33, 854.51 1112.0, 855.0 1112.67, 855.48 1113.33, 855.96 1114.0, 856.43 1114.67, 856.9 1115.33, 857.37 1116.0, 857.83 1116.67, 858.29 1117.33, 858.74 1118.0, 859.19 1118.67, 859.64 1119.33, 860.08 1120.0, 860.51 1120.67, 860.95 1121.33, 861.37 1122.0, 861.8 1122.67, 862.22 1123.33, 862.63 1124.0, 863.05 1124.67, 863.45 1125.33, 863.85 1126.0, 864.25 1126.67, 864.64 1127.33, 865.03 1128.0, 865.42 1128.67, 865.8 1129.33, 866.17 1130.0, 866.54 1130.67, 866.91 1131.33, 867.27 1132.0, 867.63 1132.67, 867.98 1133.33, 868.32 1134.0, 868.67 1134.67, 869.0 1135.33, 869.34 1136.0, 869.66 1136.67, 869.99 1137.33, 870.3 1138.0, 870.62 1138.67, 870.92 1139.33, 871.23 1140.0, 871.52 1140.67, 871.82 1141.33, 872.1 1142.0, 872.39 1142.67, 872.66 1143.33, 872.94 1144.0, 873.2 1144.67, 873.47 1145.33, 873.72 1146.0, 873.97 1146.67, 874.22 1147.33, 874.46 1148.0, 874.7 1148.67, 874.93 1149.33, 875.15 1150.0, 875.37 1150.67, 875.59 1151.33, 875.8 1152.0, 876.0 1152.67, 876.2 1153.33, 876.39 1154.0, 876.58 1154.67, 876.76 1155.33, 876.94 1156.0, 877.11 1156.67, 877.28 1157.33, 877.44 1158.0, 877.6 1158.67, 877.74 1159.33, 877.89 1160.0, 878.03 1160.67, 878.16 1161.33, 878.29 1162.0, 878.41 1162.67, 878.53 1163.33, 878.64 1164.0, 878.74 1164.67, 878.84 1165.33, 878.94 1166.0, 879.02 1166.67, 879.11 1167.33, 879.18 1168.0, 879.25 1168.67, 879.32 1169.33, 879.38 1170.0, 879.43 1170.67, 879.48 1171.33, 879.52 1172.0, 879.56 1172.67, 879.59 1173.33, 879.62 1174.0, 879.64 1174.67, 879.65 1175.33, 879.66 1176.0, 879.66 1176.67, 879.66 1177.33, 879.65 1178.0, 879.64 1178.67, 879.62 1179.33, 879.59 1180.0, 879.56 1180.67, 879.52 1181.33, 879.47 1182.0, 879.43 1182.67, 879.37 1183.33, 879.31 1184.0, 879.24 1184.67, 879.17 1185.33, 879.09 1186.0, 879.01 1186.67, 878.92 1187.33, 878.82 1188.0, 878.72 1188.67, 878.61 1189.33, 878.5 1190.0, 878.38 1190.67, 878.25 1191.33, 878.12 1192.0, 877.99 1192.67, 877.84 1193.33, 877.7 1194.0, 877.54 1194.67, 877.38 1195.33, 877.22 1196.0, 877.04 1196.67, 876.87 1197.33, 876.68 1198.0, 876.49 1198.67, 876.3 1199.33, 876.1 1200.0, 875.89 1200.67, 875.68 1201.33, 875.46 1202.0, 875.24 1202.67, 875.01 1203.33, 874.78 1204.0, 874.53 1204.67, 874.29 1205.33, 874.04 1206.0, 873.78 1206.67, 873.51 1207.33, 873.24 1208.0, 872.97 1208.67, 872.69 1209.33, 872.4 1210.0, 872.11 1210.67, 871.81 1211.33, 871.51 1212.0, 871.2 1212.67, 870.88 1213.33, 870.56 1214.0, 870.23 1214.67, 869.9 1215.33, 869.56 1216.0, 869.22 1216.67, 868.87 1217.33, 868.52 1218.0, 868.16 1218.67, 867.79 1219.33, 867.42 1220.0, 867.04 1220.67, 866.66 1221.33, 866.27 1222.0, 865.87 1222.67, 865.48 1223.33, 865.07 1224.0, 864.66 1224.67, 864.24 1225.33, 863.82 1226.0, 863.39 1226.67, 862.96 1227.33, 862.52 1228.0, 862.08 1228.67, 861.63 1229.33, 861.17 1230.0, 860.71 1230.67, 860.25 1231.33, 859.77 1232.0, 859.3 1232.67, 858.81 1233.33, 858.33 1234.0, 857.83 1234.67, 857.33 1235.33, 856.83 1236.0, 856.32 1236.67, 855.8 1237.33, 855.28 1238.0, 854.76 1238.67, 854.22 1239.33, 853.69 1240.0, 853.14 1240.67, 852.6 1241.33, 852.04 1242.0, 851.48 1242.67, 850.92 1243.33, 850.35 1244.0, 849.78 1244.67, 849.2 1245.33, 848.61 1246.0, 848.02 1246.67, 847.42 1247.33, 846.82 1248.0, 846.21 1248.67, 845.6 1249.33, 844.98 1250.0, 844.36 1250.67, 843.73 1251.33, 843.1 1252.0, 842.46 1252.67, 841.81 1253.33, 841.16 1254.0, 840.51 1254.67, 839.85 1255.33, 839.18 1256.0, 838.51 1256.67, 837.83 1257.33, 837.15 1258.0, 836.46 1258.67, 835.77 1259.33, 835.07 1260.0, 834.37 1260.67, 833.66 1261.33, 832.94 1262.0, 832.22 1262.67, 831.5 1263.33, 830.77 1264.0, 830.03 1264.67, 829.29 1265.33, 828.54 1266.0, 827.79 1266.67, 827.03 1267.33, 826.27 1268.0, 825.5 1268.67, 824.72 1269.33, 823.94 1270.0, 823.16 1270.67, 822.37 1271.33, 821.57 1272.0, 820.77 1272.67, 819.96 1273.33, 819.14 1274.0, 818.32 1274.67, 817.5 1275.33, 816.67 1276.0, 815.83 1276.67, 814.99 1277.33, 814.14 1278.0, 813.29 1278.67, 812.43 1279.33, 811.56 1280.0, 810.69 1280.67, 809.81 1281.33, 808.93 1282.0, 808.04 1282.67, 807.14 1283.33, 806.24 1284.0, 805.34 1284.67, 804.42 1285.33, 803.5 1286.0, 802.58 1286.67, 801.64 1287.33, 800.71 1288.0, 799.76 1288.67, 798.81 1289.33, 797.85 1290.0, 796.89 1290.67, 795.92 1291.33, 794.94 1292.0, 793.96 1292.67, 792.97 1293.33, 791.97 1294.0, 790.97 1294.67, 789.96 1295.33, 788.94 1296.0, 787.92 1296.67, 786.88 1297.33, 785.85 1298.0, 784.8 1298.67, 783.75 1299.33, 782.69 1300.0, 781.62 1300.67, 780.55 1301.33, 779.47 1302.0, 778.38 1302.67, 777.28 1303.33, 776.17 1304.0, 775.06 1304.67, 773.94 1305.33, 772.81 1306.0, 771.68 1306.67, 770.53 1307.33, 769.38 1308.0, 768.22 1308.67, 767.05 1309.33, 765.87 1310.0, 764.69 1310.67, 763.49 1311.33, 762.29 1312.0, 761.08 1312.67, 759.86 1313.33, 758.63 1314.0, 757.39 1314.67, 756.14 1315.33, 754.88 1316.0, 753.61 1316.67, 752.34 1317.33, 751.05 1318.0, 749.75 1318.67, 748.44 1319.33, 747.13 1320.0, 745.8 1320.67, 744.46 1321.33, 743.11 1322.0, 741.76 1322.67, 740.39 1323.33, 739.0 1324.0, 737.61 1324.67, 736.21 1325.33, 734.8 1326.0, 733.37 1326.67, 731.93 1327.33, 730.48 1328.0, 729.02 1328.67, 727.55 1329.33, 726.06 1330.0, 724.56 1330.67, 723.05 1331.33, 721.52 1332.0, 719.99 1332.67, 718.44 1333.33, 716.87 1334.0, 715.29 1334.67, 713.7 1335.33, 712.09 1336.0, 710.47 1336.67, 708.84 1337.33, 707.19 1338.0, 705.52 1338.67, 703.84 1339.33, 702.15 1340.0, 700.44 1340.67, 698.71 1341.33, 696.97 1342.0, 695.21 1342.67, 693.44 1343.33, 691.64 1344.0, 689.83 1344.67, 688.01 1345.33, 686.16 1346.0, 684.3 1346.67, 682.42 1347.33, 680.52 1348.0, 678.61 1348.67, 676.67 1349.33, 674.72 1350.0, 672.74 1350.67, 670.75 1351.33, 668.73 1352.0, 666.7 1352.67, 664.64 1353.33, 662.57 1354.0, 660.47 1354.67, 658.35 1355.33, 656.21 1356.0, 654.05 1356.67, 651.86 1357.33, 649.65 1358.0, 647.42 1358.67, 645.16 1359.33, 642.88 1360.0, 640.58 1360.67, 638.25 1361.33, 635.9 1362.0, 633.52 1362.67, 631.11 1363.33, 628.68 1364.0, 626.22 1364.67, 623.74 1365.33, 621.23 1366.0, 618.68 1366.67, 616.12 1367.33, 613.52 1368.0, 610.89 1368.67, 608.24 1369.33, 605.55 1370.0, 602.83 1370.67, 600.08 1371.33, 597.3 1372.0, 594.49 1372.67, 591.65 1373.33, 588.77 1374.0, 585.86 1374.67, 582.92 1375.33, 579.94 1376.0, 576.93 1376.67, 573.88 1377.33, 570.8 1378.0, 567.68 1378.67, 564.52 1379.33, 561.33 1380.0, 558.1 1380.67, 554.82 1381.33, 551.51 1382.0, 548.16 1382.67, 544.77 1383.33, 541.34 1384.0, 537.87 1384.67, 534.35 1385.33, 530.8 1386.0, 527.2 1386.67, 523.55 1387.33, 519.86 1388.0, 516.13 1388.67, 512.34 1389.33, 508.52 1390.0, 504.64 1390.67, 500.72 1391.33, 496.75 1392.0, 492.73 1392.67, 488.66 1393.33, 484.53 1394.0, 480.36 1394.67, 476.14 1395.33, 471.86 1396.0, 467.52 1396.67, 463.14 1397.33, 458.7 1398.0, 454.2 1398.67, 449.64 1399.33, 445.03 1400.0, 440.36 1400.67, 435.63 1401.33, 430.84 1402.0, 425.99 1402.67, 421.07 1403.33, 416.1 1404.0, 411.06 1404.67, 405.95 1405.33, 400.78 1406.0, 395.54 1406.67, 390.24 1407.33, 384.87 1408.0, 379.43 1408.67, 373.92 1409.33, 368.34 1410.0, 362.68 1410.67, 356.95 1411.33, 351.15 1412.0, 345.28 1412.67, 339.33 1413.33, 333.3 1414.0, 327.19 1414.67, 321.0 1415.33, 314.73 1416.0, 308.39 1416.67, 301.96 1417.33, 295.44 1418.0, 288.84 1418.67, 282.16 1419.33, 275.38 1420.0, 268.52 1420.67, 261.57 1421.33, 254.53 1422.0, 247.4 1422.67, 240.17 1423.33, 232.86 1424.0, 225.44 1424.67, 217.93 1425.33, 210.32 1426.0, 202.61 1426.67, 194.8 1427.33, 186.89 1428.0, 178.87 1428.67, 170.75 1429.33, 162.52 1430.0, 154.19 1430.67, 145.75 1431.33, 137.19 1432.0, 128.53 1432.67, 119.75 1433.33, 110.86 1434.0, 101.85 1434.67, 92.72 1435.33, 83.47 1436.0, 74.11 1436.67, 64.62 1437.33, 55.0 1438.0, 45.26 1438.67, 35.4 1439.33, 25.4 1440.0, 15.28 1440.67, 5.02 1441.33, -5.37 1442.0, -15.89 1442.67, -26.56 1443.33, -37.36 1444.0, -48.3 1444.67, -59.38 1445.33, -70.61 1446.0, -81.99 1446.67, -93.51 1447.33, -105.18 1448.0, -117.01 1448.67, -128.98 1449.33, -141.12 1450.0, -153.41 1450.67, -165.85 1451.33, -178.46 1452.0, -191.24 1452.67, -204.18 1453.33, -217.28 1454.0, -230.56 1454.67, -244.0 1455.33, -257.62 1456.0, -271.42 1456.67, -285.39 1457.33, -299.54 1458.0, -313.88 1458.67, -328.4 1459.33, -343.1 1460.0, -358.0 1460.67, -373.08 1461.33, -388.36 1462.0, -403.84 1462.67, -419.51 1463.33, -435.39 1464.0, -451.46 1464.67, -467.74 1465.33, -484.23 1466.0, -500.93 1466.67, -517.85 1467.33, -534.97 1468.0, -552.32 1468.67, -569.88 1469.33, -587.67 1470.0, -605.69 1470.67, -623.93 1471.33, -642.41 1472.0, -661.11 1472.67, -680.06 1473.33, -699.24 1474.0, -718.67 1474.67, -738.34 1475.33, -758.25 1476.0, -778.42 1476.67, -798.85 1477.33, -819.52 1478.0, -840.46 1478.67, -861.66 1479.33, -883.13 1480.0, -904.86 1480.67, -926.87 1481.33, -949.15 1482.0, -971.71 1482.67, -994.55 1483.33, -1017.68 1484.0, -1041.09 1484.67, -1064.79 1485.33, -1088.79 1486.0, -1113.08 1486.67, -1137.68 1487.33, -1162.58 1488.0, -1187.78 1488.67, -1213.3 1489.33, -1239.14 1490.0, -1265.29 1490.67, -1291.76 1491.33, -1318.56 1492.0, -1345.69 1492.67, -1373.15 1493.33, -1400.94 1494.0, -1429.08 1494.67, -1457.56 1495.33, -1486.39 1496.0, -1515.57 1496.67, -1545.11 1497.33, -1575.0 1498.0, -1605.26 1498.67, -1635.89 1499.33, -1666.89 1500.0, -1698.26 1500.67, -1730.01 1501.33, -1762.15 1502.0, -1794.68 1502.67, -1827.59 1503.33, -1860.91 1504.0, -1894.62 1504.67, -1928.74 1505.33, -1963.27 1506.0, -1998.22 1506.67, -2033.58 1507.33, -2069.36 1508.0, -2105.58 1508.67, -2142.22 1509.33, -2179.3 1510.0, -2216.83 1510.67, -2254.8 1511.33, -2293.22 1512.0, -2332.1 1512.67, -2371.43 1513.33, -2411.24 1514.0, -2451.51 1514.67, -2492.26 1515.33, -2533.49 1516.0, -2575.21 1516.67, -2617.41 1517.33, -2660.12 1518.0, -2703.32 1518.67, -2747.03 1519.33, -2791.25 1520.0, -2835.99 1520.67, -2881.26 1521.33, -2927.05 1522.0, -2973.37 1522.67, -3020.23 1523.33, -3067.64 1524.0, -3115.6 1524.67, -3164.11 1525.33, -3213.19 1526.0, -3262.83 1526.67, -3313.05 1527.33, -3363.84 1528.0, -3415.23 1528.67, -3467.2 1529.33, -3519.77 1530.0, -3572.94 1530.67, -3626.73 1531.33, -3681.13 1532.0, -3736.15 1532.67, -3791.8 1533.33, -3848.09 1534.0, -3905.01 1534.67, -3962.59 1535.33, -4020.82 1536.0, -4079.71 1536.67, -4139.27 1537.33, -4199.5 1538.0, -4260.42 1538.67, -4322.02 1539.33, -4384.31 1540.0, -4447.31 1540.67, -4511.02 1541.33, -4575.44 1542.0, -4640.59 1542.67, -4706.47 1543.33, -4773.08 1544.0, -4840.44 1544.67, -4908.56 1545.33, -4977.43 1546.0, -5047.07 1546.67, -5117.48 1547.33, -5188.68 1548.0, -5260.66 1548.67, -5333.45 1549.33, -5407.04 1550.0, -5481.44 1550.67, -5556.66 1551.33, -5632.72 1552.0, -5709.61 1552.67, -5787.35 1553.33, -5865.94 1554.0, -5945.39 1554.67, -6025.71 1555.33, -6106.92 1556.0, -6189.0 1556.67, -6271.99 1557.33, -6355.88 1558.0, -6440.68 1558.67, -6526.41 1559.33, -6613.07 1560.0, -6700.66 1560.67, -6789.21 1561.33, -6878.71 1562.0, -6969.18 1562.67, -7060.62 1563.33, -7153.05 1564.0, -7246.48 1564.67, -7340.91 1565.33, -7436.35 1566.0, -7532.81 1566.67, -7630.31 1567.33, -7728.85 1568.0, -7828.44 1568.67, -7929.1 1569.33, -8030.82 1570.0, -8133.63 1570.67, -8237.53 1571.33, -8342.53 1572.0, -8448.65 1572.67, -8555.88 1573.33, -8664.25 1574.0, -8773.77 1574.67, -8884.43 1575.33, -8996.27 1576.0, -9109.28 1576.67, -9223.47 1577.33, -9338.86 1578.0, -9455.46 1578.67, -9573.28 1579.33, -9692.33 1580.0, -9812.62 1580.67, -9934.17 1581.33, -10056.97 1582.0, -10181.06 1582.67, -10306.43 1583.33, -10433.1 1584.0, -10561.08 1584.67, -10690.39 1585.33, -10821.03 1586.0, -10953.01 1586.67, -11086.36 1587.33, -11221.07 1588.0, -11357.17 1588.67, -11494.66 1589.33, -11633.56 1590.0, -11773.89 1590.67, -11915.64 1591.33, -12058.84 1592.0, -12203.5 1592.67, -12349.63 1593.33, -12497.25 1594.0, -12646.36 1594.67, -12796.99 1595.33, -12949.13 1596.0, -13102.82 1596.67, -13258.06 1597.33, -13414.86 1598.0, -13573.24 1598.67, -13733.21 1599.33, -13894.79 1600.0, -14057.99 " fill="none" stroke="white" stroke-width="1.5" stroke-linejoin="round" stroke-opacity="1"/>

 </svg>