<svg version="1.1" 
 baseProfile="full" 
 width="1600" 
 height="1600" 
 xmlns="http://www.w3.org/2000/svg">
<rect x="0.0" y="0.0" width="1600" height="1600" fill="black" stroke="black" stroke-width="0" opacity="1"/>
<line x1="0.0" y1="0.0" x2="0.0" y2="1600.0" stroke="white" stroke-width="1" opacity="0.4" stroke-linecap="butt"/>
<line x1="160.0" y1="0.0" x2="160.0" y2="1600.0" stroke="white" stroke-width="1" opacity="0.4" stroke-linecap="butt"/>
<line x1="320.0" y1="0.0" x2="320.0" y2="1600.0" stroke="white" stroke-width="1" opacity="0.4" stroke-linecap="butt"/>
<line x1="480.0" y1="0.0" x2="480.0" y2="1600.0" stroke="white" stroke-width="1" opacity="0.4" stroke-linecap="butt"/>
<line x1="640.0" y1="0.0" x2="640.0" y2="1600.0" stroke="white" stroke-width="1" opacity="0.4" stroke-linecap="butt"/>
<line x1="800.0" y1="0.0" x2="800.0" y2="1600.0" stroke="white" stroke-width="1" opacity="0.4" stroke-linecap="butt"/>
<line x1="960.0" y1="0.0" x2="960.0" y2="1600.0" stroke="white" stroke-width="1" opacity="0.4" stroke-linecap="butt"/>
<line x1="1120.0" y1="0.0" x2="1120.0" y2="1600.0" stroke="white" stroke-width="1" opacity="0.4" stroke-linecap="butt"/>
<line x1="1280.0" y1="0.0" x2="1280.0" y2="1600.0" stroke="white" stroke-width="1" opacity="0.4" stroke-linecap="butt"/>
<line x1="1440.0" y1="0.0" x2="1440.0" y2="1600.0" stroke="white" stroke-width="1" opacity="0.4" stroke-linecap="butt"/>
<line x1="0.0" y1="0.0" x2="1600.0" y2="0.0" stroke="white" stroke-width="1" opacity="0.4" stroke-linecap="butt"/>
<line x1="0.0" y1="160.0" x2="1600.0" y2="160.0" stroke="white" stroke-width="1" opacity="0.4" stroke-linecap="butt"/>
<line x1="0.0" y1="320.0" x2="1600.0" y2="320.0" stroke="white" stroke-width="1" opacity="0.4" stroke-linecap="butt"/>
<line x1="0.0" y1="480.0" x2="1600.0" y2="480.0" stroke="white" stroke-width="1" opacity="0.4" stroke-linecap="butt"/>
<line x1="0.0" y1="640.0" x2="1600.0" y2="640.0" stroke="white" stroke-width="1" opacity="0.4" stroke-linecap="butt"/>
<line x1="0.0" y1="800.0" x2="1600.0" y2="800.0" stroke="white" stroke-width="1" opacity="0.4" stroke-linecap="butt"/>
<line x1="0.0" y1="960.0" x2="1600.0" y2="960.0" stroke="white" stroke-width="1" opacity="0.4" stroke-linecap="butt"/>
<line x1="0.0" y1="1120.0" x2="1600.0" y2="1120.0" stroke="white" stroke-width="1" opacity="0.4" stroke-linecap="butt"/>
<line x1="0.0" y1="1280.0" x2="1600.0" y2="1280.0" stroke="white" stroke-width="1" opacity="0.4" stroke-linecap="butt"/>
<line x1="0.0" y1="1440.0" x2="1600.0" y2="1440.0" stroke="white" stroke-width="1" opacity="0.4" stroke-linecap="butt"/>
<line x1="0.0" y1="800.0" x2="1600.0" y2="800.0" stroke="yellow" stroke-width="2.5" opacity="1" stroke-linecap="butt"/>
<line x1="800.0" y1="0.0" x2="800.0" y2="1600.0" stroke="yellow" stroke-width="2.5" opacity="1" stroke-linecap="butt"/>
<polygon points="1564.0 816.0, 1604.0 800.0, 1564.0 784.0, 1572.0 800.0" fill="yellow"/><polygon points="816.0 36.0, 800.0 -4.0, 784.0 36.0, 800.0 28.0" fill="yellow"/><polyline points="0.0, 14893.27 0.67, 14739.58 1.33, 14587.39 2.0, 14436.7 2.67, 14287.5 3.33, 14139.77 4.0, 13993.49 4.67, 13848.67 5.33, 13705.27 6.0, 13563.3 6.67, 13422.74 7.33, 13283.58 8.0, 13145.8 8.67, 13009.4 9.33, 12874.35 10.0, 12740.66 10.67, 12608.31 11.33, 12477.28 12.0, 12347.57 12.67, 12219.16 13.33, 12092.05 14.0, 11966.21 14.67, 11841.65 15.33, 11718.35 16.0, 11596.29 16.67, 11475.47 17.33, 11355.87 18.0, 11237.49 18.67, 11120.32 19.33, 11004.34 20.0, 10889.54 20.67, 10775.92 21.33, 10663.45 22.0, 10552.14 22.67, 10441.97 23.33, 10332.93 24.0, 10225.02 24.67, 10118.21 25.33, 10012.51 26.0, 9907.9 26.67, 9804.37 27.33, 9701.91 28.0, 9600.51 28.67, 9500.17 29.33, 9400.86 30.0, 9302.6 30.67, 9205.35 31.33, 9109.12 32.0, 9013.9 32.67, 8919.67 33.33, 8826.43 34.0, 8734.17 34.67, 8642.88 35.33, 8552.55 36.0, 8463.17 36.67, 8374.73 37.33, 8287.22 38.0, 8200.65 38.67, 8114.98 39.33, 8030.23 40.0, 7946.38 40.67, 7863.41 41.33, 7781.33 42.0, 7700.13 42.67, 7619.79 43.33, 7540.31 44.0, 7461.68 44.67, 7383.89 45.33, 7306.94 46.0, 7230.82 46.67, 7155.51 47.33, 7081.01 48.0, 7007.32 48.67, 6934.43 49.33, 6862.32 50.0, 6790.99 50.67, 6720.44 51.33, 6650.65 52.0, 6581.62 52.67, 6513.34 53.33, 6445.8 54.0, 6379.01 54.67, 6312.94 55.33, 6247.59 56.0, 6182.96 56.67, 6119.04 57.33, 6055.82 58.0, 5993.3 58.67, 5931.47 59.33, 5870.31 60.0, 5809.83 60.67, 5750.02 61.33, 5690.88 62.0, 5632.38 62.67, 5574.54 63.33, 5517.34 64.0, 5460.77 64.67, 5404.84 65.33, 5349.53 66.0, 5294.83 66.67, 5240.75 67.33, 5187.28 68.0, 5134.4 68.67, 5082.12 69.33, 5030.42 70.0, 4979.31 70.67, 4928.77 71.33, 4878.8 72.0, 4829.39 72.67, 4780.55 73.33, 4732.26 74.0, 4684.51 74.67, 4637.31 75.33, 4590.64 76.0, 4544.51 76.67, 4498.9 77.33, 4453.81 78.0, 4409.23 78.67, 4365.17 79.33, 4321.61 80.0, 4278.54 80.67, 4235.98 81.33, 4193.9 82.0, 4152.31 82.67, 4111.19 83.33, 4070.55 84.0, 4030.38 84.67, 3990.67 85.33, 3951.43 86.0, 3912.64 86.67, 3874.29 87.33, 3836.4 88.0, 3798.94 88.67, 3761.92 89.33, 3725.34 90.0, 3689.18 90.67, 3653.44 91.33, 3618.12 92.0, 3583.21 92.67, 3548.72 93.33, 3514.63 94.0, 3480.94 94.67, 3447.64 95.33, 3414.74 96.0, 3382.23 96.67, 3350.1 97.33, 3318.35 98.0, 3286.98 98.67, 3255.98 99.33, 3225.34 100.0, 3195.07 100.67, 3165.16 101.33, 3135.61 102.0, 3106.41 102.67, 3077.56 103.33, 3049.05 104.0, 3020.88 104.67, 2993.06 105.33, 2965.56 106.0, 2938.39 106.67, 2911.56 107.33, 2885.04 108.0, 2858.84 108.67, 2832.96 109.33, 2807.39 110.0, 2782.13 110.67, 2757.18 111.33, 2732.53 112.0, 2708.17 112.67, 2684.11 113.33, 2660.35 114.0, 2636.87 114.67, 2613.68 115.33, 2590.77 116.0, 2568.14 116.67, 2545.79 117.33, 2523.71 118.0, 2501.9 118.67, 2480.36 119.33, 2459.08 120.0, 2438.06 120.67, 2417.3 121.33, 2396.8 122.0, 2376.55 122.67, 2356.55 123.33, 2336.79 124.0, 2317.28 124.67, 2298.01 125.33, 2278.98 126.0, 2260.18 126.67, 2241.62 127.33, 2223.28 128.0, 2205.18 128.67, 2187.3 129.33, 2169.64 130.0, 2152.2 130.67, 2134.98 131.33, 2117.97 132.0, 2101.17 132.67, 2084.59 133.33, 2068.21 134.0, 2052.04 134.67, 2036.07 135.33, 2020.3 136.0, 2004.72 136.67, 1989.35 137.33, 1974.16 138.0, 1959.17 138.67, 1944.36 139.33, 1929.75 140.0, 1915.31 140.67, 1901.06 141.33, 1886.99 142.0, 1873.09 142.67, 1859.37 143.33, 1845.82 144.0, 1832.45 144.67, 1819.24 145.33, 1806.21 146.0, 1793.33 146.67, 1780.62 147.33, 1768.08 148.0, 1755.69 148.67, 1743.45 149.33, 1731.38 150.0, 1719.45 150.67, 1707.68 151.33, 1696.06 152.0, 1684.59 152.67, 1673.26 153.33, 1662.08 154.0, 1651.04 154.67, 1640.14 155.33, 1629.38 156.0, 1618.76 156.67, 1608.27 157.33, 1597.92 158.0, 1587.7 158.67, 1577.61 159.33, 1567.65 160.0, 1557.81 160.67, 1548.11 161.33, 1538.52 162.0, 1529.06 162.67, 1519.72 163.33, 1510.5 164.0, 1501.4 164.67, 1492.42 165.33, 1483.55 166.0, 1474.79 166.67, 1466.15 167.33, 1457.62 168.0, 1449.19 168.67, 1440.88 169.33, 1432.67 170.0, 1424.57 170.67, 1416.57 171.33, 1408.67 172.0, 1400.87 172.67, 1393.18 173.33, 1385.58 174.0, 1378.08 174.67, 1370.68 175.33, 1363.37 176.0, 1356.16 176.67, 1349.03 177.33, 1342.0 178.0, 1335.06 178.67, 1328.21 179.33, 1321.44 180.0, 1314.76 180.67, 1308.17 181.33, 1301.66 182.0, 1295.24 182.67, 1288.89 183.33, 1282.63 184.0, 1276.45 184.67, 1270.34 185.33, 1264.32 186.0, 1258.37 186.67, 1252.49 187.33, 1246.69 188.0, 1240.97 188.67, 1235.32 189.33, 1229.73 190.0, 1224.22 190.67, 1218.78 191.33, 1213.41 192.0, 1208.11 192.67, 1202.87 193.33, 1197.7 194.0, 1192.59 194.67, 1187.55 195.33, 1182.57 196.0, 1177.65 196.67, 1172.8 197.33, 1168.01 198.0, 1163.27 198.67, 1158.6 199.33, 1153.98 200.0, 1149.42 200.67, 1144.92 201.33, 1140.47 202.0, 1136.08 202.67, 1131.75 203.33, 1127.46 204.0, 1123.23 204.67, 1119.05 205.33, 1114.93 206.0, 1110.85 206.67, 1106.82 207.33, 1102.85 208.0, 1098.92 208.67, 1095.04 209.33, 1091.2 210.0, 1087.42 210.67, 1083.67 211.33, 1079.98 212.0, 1076.33 212.67, 1072.72 213.33, 1069.16 214.0, 1065.63 214.67, 1062.15 215.33, 1058.72 216.0, 1055.32 216.67, 1051.96 217.33, 1048.64 218.0, 1045.37 218.67, 1042.13 219.33, 1038.92 220.0, 1035.76 220.67, 1032.63 221.33, 1029.54 222.0, 1026.49 222.67, 1023.47 223.33, 1020.48 224.0, 1017.53 224.67, 1014.61 225.33, 1011.73 226.0, 1008.88 226.67, 1006.06 227.33, 1003.27 228.0, 1000.52 228.67, 997.79 229.33, 995.1 230.0, 992.43 230.67, 989.8 231.33, 987.19 232.0, 984.62 232.67, 982.07 233.33, 979.55 234.0, 977.06 234.67, 974.59 235.33, 972.15 236.0, 969.74 236.67, 967.35 237.33, 964.99 238.0, 962.65 238.67, 960.34 239.33, 958.05 240.0, 955.79 240.67, 953.55 241.33, 951.33 242.0, 949.14 242.67, 946.97 243.33, 944.82 244.0, 942.69 244.67, 940.59 245.33, 938.5 246.0, 936.44 246.67, 934.4 247.33, 932.38 248.0, 930.37 248.67, 928.39 249.33, 926.43 250.0, 924.49 250.67, 922.56 251.33, 920.66 252.0, 918.77 252.67, 916.9 253.33, 915.05 254.0, 913.21 254.67, 911.4 255.33, 909.6 256.0, 907.82 256.67, 906.05 257.33, 904.3 258.0, 902.56 258.67, 900.85 259.33, 899.14 260.0, 897.46 260.67, 895.78 261.33, 894.13 262.0, 892.49 262.67, 890.86 263.33, 889.24 264.0, 887.64 264.67, 886.06 265.33, 884.49 266.0, 882.93 266.67, 881.38 267.33, 879.85 268.0, 878.33 268.67, 876.83 269.33, 875.33 270.0, 873.85 270.67, 872.38 271.33, 870.92 272.0, 869.48 272.67, 868.04 273.33, 866.62 274.0, 865.21 274.67, 863.81 275.33, 862.42 276.0, 861.05 276.67, 859.68 277.33, 858.32 278.0, 856.98 278.67, 855.64 279.33, 854.32 280.0, 853.01 280.67, 851.7 281.33, 850.41 282.0, 849.12 282.67, 847.85 283.33, 846.58 284.0, 845.32 284.67, 844.08 285.33, 842.84 286.0, 841.61 286.67, 840.39 287.33, 839.18 288.0, 837.98 288.67, 836.78 289.33, 835.6 290.0, 834.42 290.67, 833.25 291.33, 832.09 292.0, 830.94 292.67, 829.79 293.33, 828.66 294.0, 827.53 294.67, 826.41 295.33, 825.3 296.0, 824.19 296.67, 823.09 297.33, 822.0 298.0, 820.92 298.67, 819.84 299.33, 818.78 300.0, 817.72 300.67, 816.66 301.33, 815.61 302.0, 814.57 302.67, 813.54 303.33, 812.52 304.0, 811.5 304.67, 810.48 305.33, 809.48 306.0, 808.48 306.67, 807.49 307.33, 806.5 308.0, 805.52 308.67, 804.55 309.33, 803.58 310.0, 802.62 310.67, 801.67 311.33, 800.72 312.0, 799.78 312.67, 798.84 313.33, 797.91 314.0, 796.99 314.67, 796.07 315.33, 795.16 316.0, 794.26 316.67, 793.36 317.33, 792.46 318.0, 791.58 318.67, 790.7 319.33, 789.82 320.0, 788.95 320.67, 788.09 321.33, 787.23 322.0, 786.38 322.67, 785.53 323.33, 784.69 324.0, 783.85 324.67, 783.02 325.33, 782.2 326.0, 781.38 326.67, 780.56 327.33, 779.76 328.0, 778.95 328.67, 778.16 329.33, 777.37 330.0, 776.58 330.67, 775.8 331.33, 775.03 332.0, 774.26 332.67, 773.49 333.33, 772.73 334.0, 771.98 334.67, 771.23 335.33, 770.49 336.0, 769.75 336.67, 769.02 337.33, 768.29 338.0, 767.57 338.67, 766.86 339.33, 766.15 340.0, 765.44 340.67, 764.74 341.33, 764.05 342.0, 763.36 342.67, 762.68 343.33, 762.0 344.0, 761.32 344.67, 760.66 345.33, 759.99 346.0, 759.34 346.67, 758.68 347.33, 758.04 348.0, 757.4 348.67, 756.76 349.33, 756.13 350.0, 755.5 350.67, 754.88 351.33, 754.27 352.0, 753.66 352.67, 753.05 353.33, 752.45 354.0, 751.86 354.67, 751.27 355.33, 750.69 356.0, 750.11 356.67, 749.54 357.33, 748.97 358.0, 748.41 358.67, 747.85 359.33, 747.3 360.0, 746.76 360.67, 746.22 361.33, 745.68 362.0, 745.15 362.67, 744.63 363.33, 744.11 364.0, 743.6 364.67, 743.09 365.33, 742.59 366.0, 742.09 366.67, 741.6 367.33, 741.11 368.0, 740.63 368.67, 740.15 369.33, 739.68 370.0, 739.22 370.67, 738.76 371.33, 738.31 372.0, 737.86 372.67, 737.42 373.33, 736.98 374.0, 736.55 374.67, 736.12 375.33, 735.7 376.0, 735.29 376.67, 734.88 377.33, 734.47 378.0, 734.07 378.67, 733.68 379.33, 733.29 380.0, 732.91 380.67, 732.53 381.33, 732.16 382.0, 731.8 382.67, 731.44 383.33, 731.09 384.0, 730.74 384.67, 730.39 385.33, 730.06 386.0, 729.73 386.67, 729.4 387.33, 729.08 388.0, 728.77 388.67, 728.46 389.33, 728.15 390.0, 727.86 390.67, 727.57 391.33, 727.28 392.0, 727.0 392.67, 726.72 393.33, 726.46 394.0, 726.19 394.67, 725.94 395.33, 725.68 396.0, 725.44 396.67, 725.2 397.33, 724.96 398.0, 724.73 398.67, 724.51 399.33, 724.29 400.0, 724.08 400.67, 723.88 401.33, 723.68 402.0, 723.48 402.67, 723.3 403.33, 723.11 404.0, 722.94 404.67, 722.76 405.33, 722.6 406.0, 722.44 406.67, 722.29 407.33, 722.14 408.0, 722.0 408.67, 721.86 409.33, 721.73 410.0, 721.61 410.67, 721.49 411.33, 721.37 412.0, 721.27 412.67, 721.17 413.33, 721.07 414.0, 720.98 414.67, 720.9 415.33, 720.82 416.0, 720.75 416.67, 720.68 417.33, 720.62 418.0, 720.56 418.67, 720.51 419.33, 720.47 420.0, 720.43 420.67, 720.4 421.33, 720.37 422.0, 720.35 422.67, 720.34 423.33, 720.33 424.0, 720.33 424.67, 720.33 425.33, 720.34 426.0, 720.35 426.67, 720.37 427.33, 720.4 428.0, 720.43 428.67, 720.47 429.33, 720.51 430.0, 720.56 430.67, 720.61 431.33, 720.67 432.0, 720.74 432.67, 720.81 433.33, 720.89 434.0, 720.97 434.67, 721.06 435.33, 721.15 436.0, 721.25 436.67, 721.36 437.33, 721.47 438.0, 721.58 438.67, 721.71 439.33, 721.83 440.0, 721.97 440.67, 722.11 441.33, 722.25 442.0, 722.4 442.67, 722.56 443.33, 722.72 444.0, 722.88 444.67, 723.05 445.33, 723.23 446.0, 723.41 446.67, 723.6 447.33, 723.8 448.0, 723.99 448.67, 724.2 449.33, 724.41 450.0, 724.62 450.67, 724.84 451.33, 725.07 452.0, 725.3 452.67, 725.54 453.33, 725.78 454.0, 726.02 454.67, 726.27 455.33, 726.53 456.0, 726.79 456.67, 727.06 457.33, 727.33 458.0, 727.61 458.67, 727.89 459.33, 728.18 460.0, 728.47 460.67, 728.77 461.33, 729.07 462.0, 729.38 462.67, 729.7 463.33, 730.01 464.0, 730.34 464.67, 730.66 465.33, 731.0 466.0, 731.33 466.67, 731.67 467.33, 732.02 468.0, 732.37 468.67, 732.73 469.33, 733.09 470.0, 733.46 470.67, 733.83 471.33, 734.2 472.0, 734.58 472.67, 734.97 473.33, 735.35 474.0, 735.75 474.67, 736.15 475.33, 736.55 476.0, 736.95 476.67, 737.37 477.33, 737.78 478.0, 738.2 478.67, 738.62 479.33, 739.05 480.0, 739.49 480.67, 739.92 481.33, 740.36 482.0, 740.81 482.67, 741.26 483.33, 741.71 484.0, 742.17 484.67, 742.63 485.33, 743.1 486.0, 743.57 486.67, 744.04 487.33, 744.52 488.0, 745.0 488.67, 745.48 489.33, 745.97 490.0, 746.47 490.67, 746.96 491.33, 747.46 492.0, 747.97 492.67, 748.47 493.33, 748.99 494.0, 749.5 494.67, 750.02 495.33, 750.54 496.0, 751.07 496.67, 751.59 497.33, 752.13 498.0, 752.66 498.67, 753.2 499.33, 753.74 500.0, 754.29 500.67, 754.83 501.33, 755.39 502.0, 755.94 502.67, 756.5 503.33, 757.06 504.0, 757.62 504.67, 758.19 505.33, 758.76 506.0, 759.33 506.67, 759.91 507.33, 760.48 508.0, 761.06 508.67, 761.65 509.33, 762.23 510.0, 762.82 510.67, 763.41 511.33, 764.01 512.0, 764.6 512.67, 765.2 513.33, 765.8 514.0, 766.41 514.67, 767.01 515.33, 767.62 516.0, 768.23 516.67, 768.85 517.33, 769.46 518.0, 770.08 518.67, 770.7 519.33, 771.32 520.0, 771.94 520.67, 772.57 521.33, 773.19 522.0, 773.82 522.67, 774.45 523.33, 775.09 524.0, 775.72 524.67, 776.36 525.33, 776.99 526.0, 777.63 526.67, 778.27 527.33, 778.92 528.0, 779.56 528.67, 780.2 529.33, 780.85 530.0, 781.5 530.67, 782.15 531.33, 782.8 532.0, 783.45 532.67, 784.1 533.33, 784.76 534.0, 785.41 534.67, 786.07 535.33, 786.72 536.0, 787.38 536.67, 788.04 537.33, 788.7 538.0, 789.36 538.67, 790.02 539.33, 790.68 540.0, 791.35 540.67, 792.01 541.33, 792.67 542.0, 793.34 542.67, 794.0 543.33, 794.67 544.0, 795.33 544.67, 796.0 545.33, 796.66 546.0, 797.33 546.67, 798.0 547.33, 798.66 548.0, 799.33 548.67, 799.99 549.33, 800.66 550.0, 801.33 550.67, 801.99 551.33, 802.66 552.0, 803.33 552.67, 803.99 553.33, 804.66 554.0, 805.32 554.67, 805.99 555.33, 806.65 556.0, 807.32 556.67, 807.98 557.33, 808.64 558.0, 809.31 558.67, 809.97 559.33, 810.63 560.0, 811.29 560.67, 811.95 561.33, 812.61 562.0, 813.27 562.67, 813.92 563.33, 814.58 564.0, 815.23 564.67, 815.89 565.33, 816.54 566.0, 817.19 566.67, 817.84 567.33, 818.49 568.0, 819.14 568.67, 819.79 569.33, 820.43 570.0, 821.08 570.67, 821.72 571.33, 822.36 572.0, 823.0 572.67, 823.64 573.33, 824.27 574.0, 824.91 574.67, 825.54 575.33, 826.17 576.0, 826.8 576.67, 827.43 577.33, 828.05 578.0, 828.68 578.67, 829.3 579.33, 829.92 580.0, 830.53 580.67, 831.15 581.33, 831.76 582.0, 832.37 582.67, 832.98 583.33, 833.59 584.0, 834.19 584.67, 834.79 585.33, 835.39 586.0, 835.99 586.67, 836.58 587.33, 837.17 588.0, 837.76 588.67, 838.35 589.33, 838.93 590.0, 839.51 590.67, 840.09 591.33, 840.67 592.0, 841.24 592.67, 841.81 593.33, 842.38 594.0, 842.94 594.67, 843.5 595.33, 844.06 596.0, 844.61 596.67, 845.17 597.33, 845.72 598.0, 846.26 598.67, 846.8 599.33, 847.34 600.0, 847.88 600.67, 848.41 601.33, 848.94 602.0, 849.46 602.67, 849.99 603.33, 850.51 604.0, 851.02 604.67, 851.53 605.33, 852.04 606.0, 852.55 606.67, 853.05 607.33, 853.54 608.0, 854.04 608.67, 854.53 609.33, 855.01 610.0, 855.49 610.67, 855.97 611.33, 856.45 612.0, 856.92 612.67, 857.38 613.33, 857.85 614.0, 858.31 614.67, 858.76 615.33, 859.21 616.0, 859.66 616.67, 860.1 617.33, 860.54 618.0, 860.97 618.67, 861.4 619.33, 861.82 620.0, 862.25 620.67, 862.66 621.33, 863.07 622.0, 863.48 622.67, 863.89 623.33, 864.29 624.0, 864.68 624.67, 865.07 625.33, 865.46 626.0, 865.84 626.67, 866.21 627.33, 866.58 628.0, 866.95 628.67, 867.31 629.33, 867.67 630.0, 868.03 630.67, 868.37 631.33, 868.72 632.0, 869.06 632.67, 869.39 633.33, 869.72 634.0, 870.04 634.67, 870.36 635.33, 870.68 636.0, 870.99 636.67, 871.29 637.33, 871.59 638.0, 871.89 638.67, 872.18 639.33, 872.46 640.0, 872.74 640.67, 873.02 641.33, 873.29 642.0, 873.55 642.67, 873.81 643.33, 874.07 644.0, 874.32 644.67, 874.56 645.33, 874.8 646.0, 875.03 646.67, 875.26 647.33, 875.49 648.0, 875.7 648.67, 875.92 649.33, 876.12 650.0, 876.33 650.67, 876.52 651.33, 876.72 652.0, 876.9 652.67, 877.08 653.33, 877.26 654.0, 877.43 654.67, 877.59 655.33, 877.75 656.0, 877.91 656.67, 878.06 657.33, 878.2 658.0, 878.34 658.67, 878.47 659.33, 878.6 660.0, 878.72 660.67, 878.83 661.33, 878.95 662.0, 879.05 662.67, 879.15 663.33, 879.24 664.0, 879.33 664.67, 879.42 665.33, 879.49 666.0, 879.57 666.67, 879.63 667.33, 879.69 668.0, 879.75 668.67, 879.8 669.33, 879.84 670.0, 879.88 670.67, 879.92 671.33, 879.94 672.0, 879.97 672.67, 879.98 673.33, 879.99 674.0, 880.0 674.67, 880.0 675.33, 879.99 676.0, 879.98 676.67, 879.97 677.33, 879.94 678.0, 879.92 678.67, 879.88 679.33, 879.84 680.0, 879.8 680.67, 879.75 681.33, 879.69 682.0, 879.63 682.67, 879.57 683.33, 879.49 684.0, 879.42 684.67, 879.33 685.33, 879.25 686.0, 879.15 686.67, 879.05 687.33, 878.95 688.0, 878.84 688.67, 878.72 689.33, 878.6 690.0, 878.47 690.67, 878.34 691.33, 878.2 692.0, 878.06 692.67, 877.91 693.33, 877.76 694.0, 877.6 694.67, 877.43 695.33, 877.26 696.0, 877.08 696.67, 876.9 697.33, 876.72 698.0, 876.53 698.67, 876.33 699.33, 876.13 700.0, 875.92 700.67, 875.71 701.33, 875.49 702.0, 875.26 702.67, 875.04 703.33, 874.8 704.0, 874.56 704.67, 874.32 705.33, 874.07 706.0, 873.82 706.67, 873.56 707.33, 873.29 708.0, 873.02 708.67, 872.75 709.33, 872.47 710.0, 872.18 710.67, 871.89 711.33, 871.6 712.0, 871.3 712.67, 870.99 713.33, 870.68 714.0, 870.37 714.67, 870.05 715.33, 869.72 716.0, 869.39 716.67, 869.06 717.33, 868.72 718.0, 868.38 718.67, 868.03 719.33, 867.68 720.0, 867.32 720.67, 866.96 721.33, 866.59 722.0, 866.22 722.67, 865.84 723.33, 865.46 724.0, 865.07 724.67, 864.68 725.33, 864.29 726.0, 863.89 726.67, 863.49 727.33, 863.08 728.0, 862.67 728.67, 862.25 729.33, 861.83 730.0, 861.4 730.67, 860.97 731.33, 860.54 732.0, 860.1 732.67, 859.66 733.33, 859.21 734.0, 858.76 734.67, 858.31 735.33, 857.85 736.0, 857.39 736.67, 856.92 737.33, 856.45 738.0, 855.98 738.67, 855.5 739.33, 855.02 740.0, 854.53 740.67, 854.04 741.33, 853.55 742.0, 853.05 742.67, 852.55 743.33, 852.05 744.0, 851.54 744.67, 851.03 745.33, 850.51 746.0, 849.99 746.67, 849.47 747.33, 848.94 748.0, 848.41 748.67, 847.88 749.33, 847.35 750.0, 846.81 750.67, 846.27 751.33, 845.72 752.0, 845.17 752.67, 844.62 753.33, 844.06 754.0, 843.51 754.67, 842.95 755.33, 842.38 756.0, 841.81 756.67, 841.25 757.33, 840.67 758.0, 840.1 758.67, 839.52 759.33, 838.94 760.0, 838.35 760.67, 837.77 761.33, 837.18 762.0, 836.59 762.67, 835.99 763.33, 835.4 764.0, 834.8 764.67, 834.2 765.33, 833.59 766.0, 832.99 766.67, 832.38 767.33, 831.77 768.0, 831.15 768.67, 830.54 769.33, 829.92 770.0, 829.3 770.67, 828.68 771.33, 828.06 772.0, 827.43 772.67, 826.8 773.33, 826.18 774.0, 825.54 774.67, 824.91 775.33, 824.28 776.0, 823.64 776.67, 823.0 777.33, 822.36 778.0, 821.72 778.67, 821.08 779.33, 820.44 780.0, 819.79 780.67, 819.15 781.33, 818.5 782.0, 817.85 782.67, 817.2 783.33, 816.55 784.0, 815.89 784.67, 815.24 785.33, 814.58 786.0, 813.93 786.67, 813.27 787.33, 812.61 788.0, 811.96 788.67, 811.3 789.33, 810.64 790.0, 809.97 790.67, 809.31 791.33, 808.65 792.0, 807.99 792.67, 807.32 793.33, 806.66 794.0, 805.99 794.67, 805.33 795.33, 804.66 796.0, 804.0 796.67, 803.33 797.33, 802.67 798.0, 802.0 798.67, 801.33 799.33, 800.67 800.0, 800.0 800.67, 799.33 801.33, 798.67 802.0, 798.0 802.67, 797.33 803.33, 796.67 804.0, 796.0 804.67, 795.34 805.33, 794.67 806.0, 794.01 806.67, 793.34 807.33, 792.68 808.0, 792.01 808.67, 791.35 809.33, 790.69 810.0, 790.03 810.67, 789.36 811.33, 788.7 812.0, 788.04 812.67, 787.39 813.33, 786.73 814.0, 786.07 814.67, 785.42 815.33, 784.76 816.0, 784.11 816.67, 783.45 817.33, 782.8 818.0, 782.15 818.67, 781.5 819.33, 780.85 820.0, 780.21 820.67, 779.56 821.33, 778.92 822.0, 778.28 822.67, 777.64 823.33, 777.0 824.0, 776.36 824.67, 775.72 825.33, 775.09 826.0, 774.46 826.67, 773.82 827.33, 773.2 828.0, 772.57 828.67, 771.94 829.33, 771.32 830.0, 770.7 830.67, 770.08 831.33, 769.46 832.0, 768.85 832.67, 768.23 833.33, 767.62 834.0, 767.01 834.67, 766.41 835.33, 765.8 836.0, 765.2 836.67, 764.6 837.33, 764.01 838.0, 763.41 838.67, 762.82 839.33, 762.23 840.0, 761.65 840.67, 761.06 841.33, 760.48 842.0, 759.9 842.67, 759.33 843.33, 758.75 844.0, 758.19 844.67, 757.62 845.33, 757.05 846.0, 756.49 846.67, 755.94 847.33, 755.38 848.0, 754.83 848.67, 754.28 849.33, 753.73 850.0, 753.19 850.67, 752.65 851.33, 752.12 852.0, 751.59 852.67, 751.06 853.33, 750.53 854.0, 750.01 854.67, 749.49 855.33, 748.97 856.0, 748.46 856.67, 747.95 857.33, 747.45 858.0, 746.95 858.67, 746.45 859.33, 745.96 860.0, 745.47 860.67, 744.98 861.33, 744.5 862.0, 744.02 862.67, 743.55 863.33, 743.08 864.0, 742.61 864.67, 742.15 865.33, 741.69 866.0, 741.24 866.67, 740.79 867.33, 740.34 868.0, 739.9 868.67, 739.46 869.33, 739.03 870.0, 738.6 870.67, 738.17 871.33, 737.75 872.0, 737.33 872.67, 736.92 873.33, 736.51 874.0, 736.11 874.67, 735.71 875.33, 735.32 876.0, 734.93 876.67, 734.54 877.33, 734.16 878.0, 733.78 878.67, 733.41 879.33, 733.04 880.0, 732.68 880.67, 732.32 881.33, 731.97 882.0, 731.62 882.67, 731.28 883.33, 730.94 884.0, 730.61 884.67, 730.28 885.33, 729.95 886.0, 729.63 886.67, 729.32 887.33, 729.01 888.0, 728.7 888.67, 728.4 889.33, 728.11 890.0, 727.82 890.67, 727.53 891.33, 727.25 892.0, 726.98 892.67, 726.71 893.33, 726.44 894.0, 726.18 894.67, 725.93 895.33, 725.68 896.0, 725.44 896.67, 725.2 897.33, 724.96 898.0, 724.74 898.67, 724.51 899.33, 724.29 900.0, 724.08 900.67, 723.87 901.33, 723.67 902.0, 723.47 902.67, 723.28 903.33, 723.1 904.0, 722.92 904.67, 722.74 905.33, 722.57 906.0, 722.4 906.67, 722.24 907.33, 722.09 908.0, 721.94 908.67, 721.8 909.33, 721.66 910.0, 721.53 910.67, 721.4 911.33, 721.28 912.0, 721.16 912.67, 721.05 913.33, 720.95 914.0, 720.85 914.67, 720.75 915.33, 720.67 916.0, 720.58 916.67, 720.51 917.33, 720.43 918.0, 720.37 918.67, 720.31 919.33, 720.25 920.0, 720.2 920.67, 720.16 921.33, 720.12 922.0, 720.08 922.67, 720.06 923.33, 720.03 924.0, 720.02 924.67, 720.01 925.33, 720.0 926.0, 720.0 926.67, 720.01 927.33, 720.02 928.0, 720.03 928.67, 720.06 929.33, 720.08 930.0, 720.12 930.67, 720.16 931.33, 720.2 932.0, 720.25 932.67, 720.31 933.33, 720.37 934.0, 720.43 934.67, 720.51 935.33, 720.58 936.0, 720.67 936.67, 720.76 937.33, 720.85 938.0, 720.95 938.67, 721.05 939.33, 721.17 940.0, 721.28 940.67, 721.4 941.33, 721.53 942.0, 721.66 942.67, 721.8 943.33, 721.94 944.0, 722.09 944.67, 722.25 945.33, 722.41 946.0, 722.57 946.67, 722.74 947.33, 722.92 948.0, 723.1 948.67, 723.28 949.33, 723.48 950.0, 723.67 950.67, 723.88 951.33, 724.08 952.0, 724.3 952.67, 724.51 953.33, 724.74 954.0, 724.97 954.67, 725.2 955.33, 725.44 956.0, 725.68 956.67, 725.93 957.33, 726.19 958.0, 726.45 958.67, 726.71 959.33, 726.98 960.0, 727.26 960.67, 727.54 961.33, 727.82 962.0, 728.11 962.67, 728.41 963.33, 728.71 964.0, 729.01 964.67, 729.32 965.33, 729.64 966.0, 729.96 966.67, 730.28 967.33, 730.61 968.0, 730.94 968.67, 731.28 969.33, 731.63 970.0, 731.97 970.67, 732.33 971.33, 732.69 972.0, 733.05 972.67, 733.42 973.33, 733.79 974.0, 734.16 974.67, 734.54 975.33, 734.93 976.0, 735.32 976.67, 735.71 977.33, 736.11 978.0, 736.52 978.67, 736.93 979.33, 737.34 980.0, 737.75 980.67, 738.18 981.33, 738.6 982.0, 739.03 982.67, 739.46 983.33, 739.9 984.0, 740.34 984.67, 740.79 985.33, 741.24 986.0, 741.69 986.67, 742.15 987.33, 742.62 988.0, 743.08 988.67, 743.55 989.33, 744.03 990.0, 744.51 990.67, 744.99 991.33, 745.47 992.0, 745.96 992.67, 746.46 993.33, 746.95 994.0, 747.45 994.67, 747.96 995.33, 748.47 996.0, 748.98 996.67, 749.49 997.33, 750.01 998.0, 750.54 998.67, 751.06 999.33, 751.59 1000.0, 752.12 1000.67, 752.66 1001.33, 753.2 1002.0, 753.74 1002.67, 754.28 1003.33, 754.83 1004.0, 755.39 1004.67, 755.94 1005.33, 756.5 1006.0, 757.06 1006.67, 757.62 1007.33, 758.19 1008.0, 758.76 1008.67, 759.33 1009.33, 759.91 1010.0, 760.49 1010.67, 761.07 1011.33, 761.65 1012.0, 762.24 1012.67, 762.83 1013.33, 763.42 1014.0, 764.01 1014.67, 764.61 1015.33, 765.21 1016.0, 765.81 1016.67, 766.41 1017.33, 767.02 1018.0, 767.63 1018.67, 768.24 1019.33, 768.85 1020.0, 769.47 1020.67, 770.08 1021.33, 770.7 1022.0, 771.32 1022.67, 771.95 1023.33, 772.57 1024.0, 773.2 1024.67, 773.83 1025.33, 774.46 1026.0, 775.09 1026.67, 775.73 1027.33, 776.36 1028.0, 777.0 1028.67, 777.64 1029.33, 778.28 1030.0, 778.92 1030.67, 779.57 1031.33, 780.21 1032.0, 780.86 1032.67, 781.51 1033.33, 782.16 1034.0, 782.81 1034.67, 783.46 1035.33, 784.11 1036.0, 784.77 1036.67, 785.42 1037.33, 786.08 1038.0, 786.73 1038.67, 787.39 1039.33, 788.05 1040.0, 788.71 1040.67, 789.37 1041.33, 790.03 1042.0, 790.69 1042.67, 791.36 1043.33, 792.02 1044.0, 792.68 1044.67, 793.35 1045.33, 794.01 1046.0, 794.68 1046.67, 795.34 1047.33, 796.01 1048.0, 796.67 1048.67, 797.34 1049.33, 798.01 1050.0, 798.67 1050.67, 799.34 1051.33, 800.01 1052.0, 800.67 1052.67, 801.34 1053.33, 802.0 1054.0, 802.67 1054.67, 803.34 1055.33, 804.0 1056.0, 804.67 1056.67, 805.33 1057.33, 806.0 1058.0, 806.66 1058.67, 807.33 1059.33, 807.99 1060.0, 808.65 1060.67, 809.32 1061.33, 809.98 1062.0, 810.64 1062.67, 811.3 1063.33, 811.96 1064.0, 812.62 1064.67, 813.28 1065.33, 813.93 1066.0, 814.59 1066.67, 815.24 1067.33, 815.9 1068.0, 816.55 1068.67, 817.2 1069.33, 817.85 1070.0, 818.5 1070.67, 819.15 1071.33, 819.8 1072.0, 820.44 1072.67, 821.08 1073.33, 821.73 1074.0, 822.37 1074.67, 823.01 1075.33, 823.64 1076.0, 824.28 1076.67, 824.91 1077.33, 825.55 1078.0, 826.18 1078.67, 826.81 1079.33, 827.43 1080.0, 828.06 1080.67, 828.68 1081.33, 829.3 1082.0, 829.92 1082.67, 830.54 1083.33, 831.15 1084.0, 831.77 1084.67, 832.38 1085.33, 832.99 1086.0, 833.59 1086.67, 834.2 1087.33, 834.8 1088.0, 835.4 1088.67, 835.99 1089.33, 836.59 1090.0, 837.18 1090.67, 837.77 1091.33, 838.35 1092.0, 838.94 1092.67, 839.52 1093.33, 840.09 1094.0, 840.67 1094.67, 841.24 1095.33, 841.81 1096.0, 842.38 1096.67, 842.94 1097.33, 843.5 1098.0, 844.06 1098.67, 844.61 1099.33, 845.17 1100.0, 845.71 1100.67, 846.26 1101.33, 846.8 1102.0, 847.34 1102.67, 847.87 1103.33, 848.41 1104.0, 848.93 1104.67, 849.46 1105.33, 849.98 1106.0, 850.5 1106.67, 851.01 1107.33, 851.53 1108.0, 852.03 1108.67, 852.54 1109.33, 853.04 1110.0, 853.53 1110.67, 854.03 1111.33, 854.52 1112.0, 855.0 1112.67, 855.48 1113.33, 855.96 1114.0, 856.43 1114.67, 856.9 1115.33, 857.37 1116.0, 857.83 1116.67, 858.29 1117.33, 858.74 1118.0, 859.19 1118.67, 859.64 1119.33, 860.08 1120.0, 860.51 1120.67, 860.95 1121.33, 861.38 1122.0, 861.8 1122.67, 862.22 1123.33, 862.63 1124.0, 863.05 1124.67, 863.45 1125.33, 863.85 1126.0, 864.25 1126.67, 864.65 1127.33, 865.03 1128.0, 865.42 1128.67, 865.8 1129.33, 866.17 1130.0, 866.54 1130.67, 866.91 1131.33, 867.27 1132.0, 867.63 1132.67, 867.98 1133.33, 868.33 1134.0, 868.67 1134.67, 869.0 1135.33, 869.34 1136.0, 869.66 1136.67, 869.99 1137.33, 870.3 1138.0, 870.62 1138.67, 870.93 1139.33, 871.23 1140.0, 871.53 1140.67, 871.82 1141.33, 872.11 1142.0, 872.39 1142.67, 872.67 1143.33, 872.94 1144.0, 873.21 1144.67, 873.47 1145.33, 873.73 1146.0, 873.98 1146.67, 874.22 1147.33, 874.46 1148.0, 874.7 1148.67, 874.93 1149.33, 875.16 1150.0, 875.38 1150.67, 875.59 1151.33, 875.8 1152.0, 876.01 1152.67, 876.2 1153.33, 876.4 1154.0, 876.59 1154.67, 876.77 1155.33, 876.95 1156.0, 877.12 1156.67, 877.28 1157.33, 877.44 1158.0, 877.6 1158.67, 877.75 1159.33, 877.89 1160.0, 878.03 1160.67, 878.17 1161.33, 878.29 1162.0, 878.42 1162.67, 878.53 1163.33, 878.64 1164.0, 878.75 1164.67, 878.85 1165.33, 878.94 1166.0, 879.03 1166.67, 879.11 1167.33, 879.19 1168.0, 879.26 1168.67, 879.33 1169.33, 879.39 1170.0, 879.44 1170.67, 879.49 1171.33, 879.53 1172.0, 879.57 1172.67, 879.6 1173.33, 879.63 1174.0, 879.65 1174.67, 879.66 1175.33, 879.67 1176.0, 879.67 1176.67, 879.67 1177.33, 879.66 1178.0, 879.65 1178.67, 879.63 1179.33, 879.6 1180.0, 879.57 1180.67, 879.53 1181.33, 879.49 1182.0, 879.44 1182.67, 879.38 1183.33, 879.32 1184.0, 879.25 1184.67, 879.18 1185.33, 879.1 1186.0, 879.02 1186.67, 878.93 1187.33, 878.83 1188.0, 878.73 1188.67, 878.63 1189.33, 878.51 1190.0, 878.39 1190.67, 878.27 1191.33, 878.14 1192.0, 878.0 1192.67, 877.86 1193.33, 877.71 1194.0, 877.56 1194.67, 877.4 1195.33, 877.24 1196.0, 877.06 1196.67, 876.89 1197.33, 876.7 1198.0, 876.52 1198.67, 876.32 1199.33, 876.12 1200.0, 875.92 1200.67, 875.71 1201.33, 875.49 1202.0, 875.27 1202.67, 875.04 1203.33, 874.8 1204.0, 874.56 1204.67, 874.32 1205.33, 874.06 1206.0, 873.81 1206.67, 873.54 1207.33, 873.28 1208.0, 873.0 1208.67, 872.72 1209.33, 872.43 1210.0, 872.14 1210.67, 871.85 1211.33, 871.54 1212.0, 871.23 1212.67, 870.92 1213.33, 870.6 1214.0, 870.27 1214.67, 869.94 1215.33, 869.61 1216.0, 869.26 1216.67, 868.91 1217.33, 868.56 1218.0, 868.2 1218.67, 867.84 1219.33, 867.47 1220.0, 867.09 1220.67, 866.71 1221.33, 866.32 1222.0, 865.93 1222.67, 865.53 1223.33, 865.12 1224.0, 864.71 1224.67, 864.3 1225.33, 863.88 1226.0, 863.45 1226.67, 863.02 1227.33, 862.58 1228.0, 862.14 1228.67, 861.69 1229.33, 861.24 1230.0, 860.78 1230.67, 860.32 1231.33, 859.85 1232.0, 859.37 1232.67, 858.89 1233.33, 858.4 1234.0, 857.91 1234.67, 857.41 1235.33, 856.91 1236.0, 856.4 1236.67, 855.89 1237.33, 855.37 1238.0, 854.85 1238.67, 854.32 1239.33, 853.78 1240.0, 853.24 1240.67, 852.7 1241.33, 852.15 1242.0, 851.59 1242.67, 851.03 1243.33, 850.46 1244.0, 849.89 1244.67, 849.31 1245.33, 848.73 1246.0, 848.14 1246.67, 847.55 1247.33, 846.95 1248.0, 846.34 1248.67, 845.73 1249.33, 845.12 1250.0, 844.5 1250.67, 843.87 1251.33, 843.24 1252.0, 842.6 1252.67, 841.96 1253.33, 841.32 1254.0, 840.66 1254.67, 840.01 1255.33, 839.34 1256.0, 838.68 1256.67, 838.0 1257.33, 837.32 1258.0, 836.64 1258.67, 835.95 1259.33, 835.26 1260.0, 834.56 1260.67, 833.85 1261.33, 833.14 1262.0, 832.43 1262.67, 831.71 1263.33, 830.98 1264.0, 830.25 1264.67, 829.51 1265.33, 828.77 1266.0, 828.02 1266.67, 827.27 1267.33, 826.51 1268.0, 825.74 1268.67, 824.97 1269.33, 824.2 1270.0, 823.42 1270.67, 822.63 1271.33, 821.84 1272.0, 821.05 1272.67, 820.24 1273.33, 819.44 1274.0, 818.62 1274.67, 817.8 1275.33, 816.98 1276.0, 816.15 1276.67, 815.31 1277.33, 814.47 1278.0, 813.62 1278.67, 812.77 1279.33, 811.91 1280.0, 811.05 1280.67, 810.18 1281.33, 809.3 1282.0, 808.42 1282.67, 807.54 1283.33, 806.64 1284.0, 805.74 1284.67, 804.84 1285.33, 803.93 1286.0, 803.01 1286.67, 802.09 1287.33, 801.16 1288.0, 800.22 1288.67, 799.28 1289.33, 798.33 1290.0, 797.38 1290.67, 796.42 1291.33, 795.45 1292.0, 794.48 1292.67, 793.5 1293.33, 792.51 1294.0, 791.52 1294.67, 790.52 1295.33, 789.52 1296.0, 788.5 1296.67, 787.48 1297.33, 786.46 1298.0, 785.43 1298.67, 784.39 1299.33, 783.34 1300.0, 782.28 1300.67, 781.22 1301.33, 780.16 1302.0, 779.08 1302.67, 778.0 1303.33, 776.91 1304.0, 775.81 1304.67, 774.7 1305.33, 773.59 1306.0, 772.47 1306.67, 771.34 1307.33, 770.21 1308.0, 769.06 1308.67, 767.91 1309.33, 766.75 1310.0, 765.58 1310.67, 764.4 1311.33, 763.22 1312.0, 762.02 1312.67, 760.82 1313.33, 759.61 1314.0, 758.39 1314.67, 757.16 1315.33, 755.92 1316.0, 754.68 1316.67, 753.42 1317.33, 752.15 1318.0, 750.88 1318.67, 749.59 1319.33, 748.3 1320.0, 746.99 1320.67, 745.68 1321.33, 744.36 1322.0, 743.02 1322.67, 741.68 1323.33, 740.32 1324.0, 738.95 1324.67, 737.58 1325.33, 736.19 1326.0, 734.79 1326.67, 733.38 1327.33, 731.96 1328.0, 730.52 1328.67, 729.08 1329.33, 727.62 1330.0, 726.15 1330.67, 724.67 1331.33, 723.17 1332.0, 721.67 1332.67, 720.15 1333.33, 718.62 1334.0, 717.07 1334.67, 715.51 1335.33, 713.94 1336.0, 712.36 1336.67, 710.76 1337.33, 709.14 1338.0, 707.51 1338.67, 705.87 1339.33, 704.22 1340.0, 702.54 1340.67, 700.86 1341.33, 699.15 1342.0, 697.44 1342.67, 695.7 1343.33, 693.95 1344.0, 692.18 1344.67, 690.4 1345.33, 688.6 1346.0, 686.79 1346.67, 684.95 1347.33, 683.1 1348.0, 681.23 1348.67, 679.34 1349.33, 677.44 1350.0, 675.51 1350.67, 673.57 1351.33, 671.61 1352.0, 669.63 1352.67, 667.62 1353.33, 665.6 1354.0, 663.56 1354.67, 661.5 1355.33, 659.41 1356.0, 657.31 1356.67, 655.18 1357.33, 653.03 1358.0, 650.86 1358.67, 648.67 1359.33, 646.45 1360.0, 644.21 1360.67, 641.95 1361.33, 639.66 1362.0, 637.35 1362.67, 635.01 1363.33, 632.65 1364.0, 630.26 1364.67, 627.85 1365.33, 625.41 1366.0, 622.94 1366.67, 620.45 1367.33, 617.93 1368.0, 615.38 1368.67, 612.81 1369.33, 610.2 1370.0, 607.57 1370.67, 604.9 1371.33, 602.21 1372.0, 599.48 1372.67, 596.73 1373.33, 593.94 1374.0, 591.12 1374.67, 588.27 1375.33, 585.39 1376.0, 582.47 1376.67, 579.52 1377.33, 576.53 1378.0, 573.51 1378.67, 570.46 1379.33, 567.37 1380.0, 564.24 1380.67, 561.08 1381.33, 557.87 1382.0, 554.63 1382.67, 551.36 1383.33, 548.04 1384.0, 544.68 1384.67, 541.28 1385.33, 537.85 1386.0, 534.37 1386.67, 530.84 1387.33, 527.28 1388.0, 523.67 1388.67, 520.02 1389.33, 516.33 1390.0, 512.58 1390.67, 508.8 1391.33, 504.96 1392.0, 501.08 1392.67, 497.15 1393.33, 493.18 1394.0, 489.15 1394.67, 485.07 1395.33, 480.95 1396.0, 476.77 1396.67, 472.54 1397.33, 468.25 1398.0, 463.92 1398.67, 459.53 1399.33, 455.08 1400.0, 450.58 1400.67, 446.02 1401.33, 441.4 1402.0, 436.73 1402.67, 431.99 1403.33, 427.2 1404.0, 422.35 1404.67, 417.43 1405.33, 412.45 1406.0, 407.41 1406.67, 402.3 1407.33, 397.13 1408.0, 391.89 1408.67, 386.59 1409.33, 381.22 1410.0, 375.78 1410.67, 370.27 1411.33, 364.68 1412.0, 359.03 1412.67, 353.31 1413.33, 347.51 1414.0, 341.63 1414.67, 335.68 1415.33, 329.66 1416.0, 323.55 1416.67, 317.37 1417.33, 311.11 1418.0, 304.76 1418.67, 298.34 1419.33, 291.83 1420.0, 285.24 1420.67, 278.56 1421.33, 271.79 1422.0, 264.94 1422.67, 258.0 1423.33, 250.97 1424.0, 243.84 1424.67, 236.63 1425.33, 229.32 1426.0, 221.92 1426.67, 214.42 1427.33, 206.82 1428.0, 199.13 1428.67, 191.33 1429.33, 183.43 1430.0, 175.43 1430.67, 167.33 1431.33, 159.12 1432.0, 150.81 1432.67, 142.38 1433.33, 133.85 1434.0, 125.21 1434.67, 116.45 1435.33, 107.58 1436.0, 98.6 1436.67, 89.5 1437.33, 80.28 1438.0, 70.94 1438.67, 61.48 1439.33, 51.89 1440.0, 42.19 1440.67, 32.35 1441.33, 22.39 1442.0, 12.3 1442.67, 2.08 1443.33, -8.27 1444.0, -18.76 1444.67, -29.38 1445.33, -40.14 1446.0, -51.04 1446.67, -62.08 1447.33, -73.26 1448.0, -84.59 1448.67, -96.06 1449.33, -107.68 1450.0, -119.45 1450.67, -131.38 1451.33, -143.45 1452.0, -155.69 1452.67, -168.08 1453.33, -180.62 1454.0, -193.33 1454.67, -206.21 1455.33, -219.24 1456.0, -232.45 1456.67, -245.82 1457.33, -259.37 1458.0, -273.09 1458.67, -286.99 1459.33, -301.06 1460.0, -315.31 1460.67, -329.75 1461.33, -344.36 1462.0, -359.17 1462.67, -374.16 1463.33, -389.35 1464.0, -404.72 1464.67, -420.3 1465.33, -436.07 1466.0, -452.04 1466.67, -468.21 1467.33, -484.59 1468.0, -501.17 1468.67, -517.97 1469.33, -534.98 1470.0, -552.2 1470.67, -569.64 1471.33, -587.3 1472.0, -605.18 1472.67, -623.28 1473.33, -641.62 1474.0, -660.18 1474.67, -678.98 1475.33, -698.01 1476.0, -717.28 1476.67, -736.79 1477.33, -756.55 1478.0, -776.55 1478.67, -796.8 1479.33, -817.3 1480.0, -838.06 1480.67, -859.08 1481.33, -880.36 1482.0, -901.9 1482.67, -923.71 1483.33, -945.79 1484.0, -968.14 1484.67, -990.77 1485.33, -1013.68 1486.0, -1036.87 1486.67, -1060.35 1487.33, -1084.11 1488.0, -1108.17 1488.67, -1132.53 1489.33, -1157.18 1490.0, -1182.13 1490.67, -1207.39 1491.33, -1232.96 1492.0, -1258.84 1492.67, -1285.04 1493.33, -1311.56 1494.0, -1338.39 1494.67, -1365.56 1495.33, -1393.06 1496.0, -1420.88 1496.67, -1449.05 1497.33, -1477.56 1498.0, -1506.41 1498.67, -1535.61 1499.33, -1565.16 1500.0, -1595.07 1500.67, -1625.34 1501.33, -1655.98 1502.0, -1686.98 1502.67, -1718.35 1503.33, -1750.1 1504.0, -1782.23 1504.67, -1814.74 1505.33, -1847.64 1506.0, -1880.94 1506.67, -1914.63 1507.33, -1948.72 1508.0, -1983.21 1508.67, -2018.12 1509.33, -2053.44 1510.0, -2089.18 1510.67, -2125.34 1511.33, -2161.92 1512.0, -2198.94 1512.67, -2236.4 1513.33, -2274.29 1514.0, -2312.64 1514.67, -2351.43 1515.33, -2390.67 1516.0, -2430.38 1516.67, -2470.55 1517.33, -2511.19 1518.0, -2552.31 1518.67, -2593.9 1519.33, -2635.98 1520.0, -2678.54 1520.67, -2721.61 1521.33, -2765.17 1522.0, -2809.23 1522.67, -2853.81 1523.33, -2898.9 1524.0, -2944.51 1524.67, -2990.64 1525.33, -3037.31 1526.0, -3084.51 1526.67, -3132.26 1527.33, -3180.55 1528.0, -3229.39 1528.67, -3278.8 1529.33, -3328.77 1530.0, -3379.31 1530.67, -3430.42 1531.33, -3482.12 1532.0, -3534.4 1532.67, -3587.28 1533.33, -3640.75 1534.0, -3694.83 1534.67, -3749.53 1535.33, -3804.84 1536.0, -3860.77 1536.67, -3917.34 1537.33, -3974.54 1538.0, -4032.38 1538.67, -4090.88 1539.33, -4150.02 1540.0, -4209.83 1540.67, -4270.31 1541.33, -4331.47 1542.0, -4393.3 1542.67, -4455.82 1543.33, -4519.04 1544.0, -4582.96 1544.67, -4647.59 1545.33, -4712.94 1546.0, -4779.01 1546.67, -4845.8 1547.33, -4913.34 1548.0, -4981.62 1548.67, -5050.65 1549.33, -5120.44 1550.0, -5190.99 1550.67, -5262.32 1551.33, -5334.43 1552.0, -5407.32 1552.67, -5481.01 1553.33, -5555.51 1554.0, -5630.82 1554.67, -5706.94 1555.33, -5783.89 1556.0, -5861.68 1556.67, -5940.31 1557.33, -6019.79 1558.0, -6100.13 1558.67, -6181.33 1559.33, -6263.41 1560.0, -6346.38 1560.67, -6430.23 1561.33, -6514.98 1562.0, -6600.65 1562.67, -6687.22 1563.33, -6774.73 1564.0, -6863.17 1564.67, -6952.55 1565.33, -7042.88 1566.0, -7134.17 1566.67, -7226.43 1567.33, -7319.67 1568.0, -7413.9 1568.67, -7509.12 1569.33, -7605.35 1570.0, -7702.6 1570.67, -7800.86 1571.33, -7900.17 1572.0, -8000.51 1572.67, -8101.91 1573.33, -8204.37 1574.0, -8307.9 1574.67, -8412.51 1575.33, -8518.21 1576.0, -8625.02 1576.67, -8732.93 1577.33, -8841.97 1578.0, -8952.14 1578.67, -9063.45 1579.33, -9175.92 1580.0, -9289.54 1580.67, -9404.34 1581.33, -9520.32 1582.0, -9637.49 1582.67, -9755.87 1583.33, -9875.47 1584.0, -9996.29 1584.67, -10118.35 1585.33, -10241.65 1586.0, -10366.21 1586.67, -10492.05 1587.33, -10619.16 1588.0, -10747.57 1588.67, -10877.28 1589.33, -11008.31 1590.0, -11140.66 1590.67, -11274.35 1591.33, -11409.4 1592.0, -11545.8 1592.67, -11683.58 1593.33, -11822.74 1594.0, -11963.3 1594.67, -12105.27 1595.33, -12248.67 1596.0, -12393.49 1596.67, -12539.77 1597.33, -12687.5 1598.0, -12836.7 1598.67, -12987.39 1599.33, -13139.58 1600.0, -13293.27 " fill="none" stroke="white" stroke-width="1.5" stroke-linejoin="round" stroke-opacity="1"/>

 </svg>