<svg version="1.1" 
 baseProfile="full" 
 width="1600" 
 height="1600" 
 xmlns="http://www.w3.org/2000/svg">
<rect x="0.0" y="0.0" width="1600" height="1600" fill="black" stroke="black" stroke-width="0" opacity="1"/>
<line x1="0.0" y1="0.0" x2="0.0" y2="1600.0" stroke="white" stroke-width="1" opacity="0.4" stroke-linecap="butt"/>
<line x1="160.0" y1="0.0" x2="160.0" y2="1600.0" stroke="white" stroke-width="1" opacity="0.4" stroke-linecap="butt"/>
<line x1="320.0" y1="0.0" x2="320.0" y2="1600.0" stroke="white" stroke-width="1" opacity="0.4" stroke-linecap="butt"/>
<line x1="480.0" y1="0.0" x2="480.0" y2="1600.0" stroke="white" stroke-width="1" opacity="0.4" stroke-linecap="butt"/>
<line x1="640.0" y1="0.0" x2="640.0" y2="1600.0" stroke="white" stroke-width="1" opacity="0.4" stroke-linecap="butt"/>
<line x1="800.0" y1="0.0" x2="800.0" y2="1600.0" stroke="white" stroke-width="1" opacity="0.4" stroke-linecap="butt"/>
<line x1="960.0" y1="0.0" x2="960.0" y2="1600.0" stroke="white" stroke-width="1" opacity="0.4" stroke-linecap="butt"/>
<line x1="1120.0" y1="0.0" x2="1120.0" y2="1600.0" stroke="white" stroke-width="1" opacity="0.4" stroke-linecap="butt"/>
<line x1="1280.0" y1="0.0" x2="1280.0" y2="1600.0" stroke="white" stroke-width="1" opacity="0.4" stroke-linecap="butt"/>
<line x1="1440.0" y1="0.0" x2="1440.0" y2="1600.0" stroke="white" stroke-width="1" opacity="0.4" stroke-linecap="butt"/>
<line x1="0.0" y1="0.0" x2="1600.0" y2="0.0" stroke="white" stroke-width="1" opacity="0.4" stroke-linecap="butt"/>
<line x1="0.0" y1="160.0" x2="1600.0" y2="160.0" stroke="white" stroke-width="1" opacity="0.4" stroke-linecap="butt"/>
<line x1="0.0" y1="320.0" x2="1600.0" y2="320.0" stroke="white" stroke-width="1" opacity="0.4" stroke-linecap="butt"/>
<line x1="0.0" y1="480.0" x2="1600.0" y2="480.0" stroke="white" stroke-width="1" opacity="0.4" stroke-linecap="butt"/>
<line x1="0.0" y1="640.0" x2="1600.0" y2="640.0" stroke="white" stroke-width="1" opacity="0.4" stroke-linecap="butt"/>
<line x1="0.0" y1="800.0" x2="1600.0" y2="800.0" stroke="white" stroke-width="1" opacity="0.4" stroke-linecap="butt"/>
<line x1="0.0" y1="960.0" x2="1600.0" y2="960.0" stroke="white" stroke-width="1" opacity="0.4" stroke-linecap="butt"/>
<line x1="0.0" y1="1120.0" x2="1600.0" y2="1120.0" stroke="white" stroke-width="1" opacity="0.4" stroke-linecap="butt"/>
<line x1="0.0" y1="1280.0" x2="1600.0" y2="1280.0" stroke="white" stroke-width="1" opacity="0.4" stroke-linecap="butt"/>
<line x1="0.0" y1="1440.0" x2="1600.0" y2="1440.0" stroke="white" stroke-width="1" opacity="0.4" stroke-linecap="butt"/>
<line x1="0.0" y1="800.0" x2="1600.0" y2="800.0" stroke="yellow" stroke-width="2.5" opacity="1" stroke-linecap="butt"/>
<line x1="800.0" y1="0.0" x2="800.0" y2="1600.0" stroke="yellow" stroke-width="2.5" opacity="1" stroke-linecap="butt"/>
<polygon points="1564.0 816.0, 1604.0 800.0, 1564.0 784.0, 1572.0 800.0" fill="yellow"/><polygon points="816.0 36.0, 800.0 -4.0, 784.0 36.0, 800.0 28.0" fill="yellow"/><polyline points="0.0, 8775.54 0.67, 8697.87 1.33, 8620.83 2.0, 8544.42 2.67, 8468.62 3.33, 8393.44 4.0, 8318.88 4.67, 8244.92 5.33, 8171.57 6.0, 8098.83 6.67, 8026.69 7.33, 7955.15 8.0, 7884.19 8.67, 7813.84 9.33, 7744.06 10.0, 7674.88 10.67, 7606.27 11.33, 7538.24 12.0, 7470.78 12.67, 7403.9 13.33, 7337.58 14.0, 7271.83 14.67, 7206.64 15.33, 7142.0 16.0, 7077.92 16.67, 7014.39 17.33, 6951.41 18.0, 6888.97 18.67, 6827.07 19.33, 6765.71 20.0, 6704.89 20.67, 6644.59 21.33, 6584.82 22.0, 6525.58 22.67, 6466.85 23.33, 6408.65 24.0, 6350.96 24.67, 6293.78 25.33, 6237.1 26.0, 6180.93 26.67, 6125.27 27.33, 6070.1 28.0, 6015.42 28.67, 5961.23 29.33, 5907.54 30.0, 5854.32 30.67, 5801.59 31.33, 5749.34 32.0, 5697.56 32.67, 5646.25 33.33, 5595.42 34.0, 5545.04 34.67, 5495.13 35.33, 5445.68 36.0, 5396.68 36.67, 5348.14 37.33, 5300.04 38.0, 5252.39 38.67, 5205.18 39.33, 5158.41 40.0, 5112.08 40.67, 5066.19 41.33, 5020.72 42.0, 4975.68 42.67, 4931.06 43.33, 4886.87 44.0, 4843.09 44.67, 4799.73 45.33, 4756.78 46.0, 4714.24 46.67, 4672.1 47.33, 4630.37 48.0, 4589.03 48.67, 4548.1 49.33, 4507.55 50.0, 4467.4 50.67, 4427.63 51.33, 4388.25 52.0, 4349.26 52.67, 4310.64 53.33, 4272.39 54.0, 4234.52 54.67, 4197.02 55.33, 4159.89 56.0, 4123.12 56.67, 4086.71 57.33, 4050.66 58.0, 4014.97 58.67, 3979.63 59.33, 3944.64 60.0, 3910.0 60.67, 3875.7 61.33, 3841.74 62.0, 3808.13 62.67, 3774.85 63.33, 3741.9 64.0, 3709.28 64.67, 3677.0 65.33, 3645.03 66.0, 3613.39 66.67, 3582.08 67.33, 3551.07 68.0, 3520.39 68.67, 3490.01 69.33, 3459.95 70.0, 3430.19 70.67, 3400.74 71.33, 3371.59 72.0, 3342.74 72.67, 3314.18 73.33, 3285.92 74.0, 3257.95 74.67, 3230.27 75.33, 3202.88 76.0, 3175.77 76.67, 3148.95 77.33, 3122.4 78.0, 3096.13 78.67, 3070.13 79.33, 3044.41 80.0, 3018.96 80.67, 2993.77 81.33, 2968.85 82.0, 2944.19 82.67, 2919.8 83.33, 2895.66 84.0, 2871.77 84.67, 2848.15 85.33, 2824.77 86.0, 2801.64 86.67, 2778.75 87.33, 2756.12 88.0, 2733.72 88.67, 2711.56 89.33, 2689.65 90.0, 2667.96 90.67, 2646.52 91.33, 2625.3 92.0, 2604.31 92.67, 2583.55 93.33, 2563.01 94.0, 2542.7 94.67, 2522.61 95.33, 2502.74 96.0, 2483.08 96.67, 2463.64 97.33, 2444.41 98.0, 2425.39 98.67, 2406.58 99.33, 2387.98 100.0, 2369.58 100.67, 2351.39 101.33, 2333.4 102.0, 2315.6 102.67, 2298.0 103.33, 2280.6 104.0, 2263.39 104.67, 2246.37 105.33, 2229.54 106.0, 2212.9 106.67, 2196.45 107.33, 2180.18 108.0, 2164.09 108.67, 2148.18 109.33, 2132.45 110.0, 2116.89 110.67, 2101.52 111.33, 2086.31 112.0, 2071.28 112.67, 2056.41 113.33, 2041.72 114.0, 2027.19 114.67, 2012.83 115.33, 1998.63 116.0, 1984.59 116.67, 1970.71 117.33, 1956.99 118.0, 1943.42 118.67, 1930.01 119.33, 1916.76 120.0, 1903.65 120.67, 1890.7 121.33, 1877.89 122.0, 1865.24 122.67, 1852.72 123.33, 1840.36 124.0, 1828.13 124.67, 1816.05 125.33, 1804.1 126.0, 1792.3 126.67, 1780.63 127.33, 1769.09 128.0, 1757.69 128.67, 1746.42 129.33, 1735.29 130.0, 1724.28 130.67, 1713.4 131.33, 1702.65 132.0, 1692.02 132.67, 1681.52 133.33, 1671.14 134.0, 1660.88 134.67, 1650.74 135.33, 1640.72 136.0, 1630.82 136.67, 1621.03 137.33, 1611.36 138.0, 1601.8 138.67, 1592.36 139.33, 1583.03 140.0, 1573.8 140.67, 1564.69 141.33, 1555.68 142.0, 1546.78 142.67, 1537.99 143.33, 1529.29 144.0, 1520.71 144.67, 1512.22 145.33, 1503.83 146.0, 1495.55 146.67, 1487.36 147.33, 1479.27 148.0, 1471.27 148.67, 1463.37 149.33, 1455.56 150.0, 1447.85 150.67, 1440.23 151.33, 1432.69 152.0, 1425.25 152.67, 1417.9 153.33, 1410.63 154.0, 1403.45 154.67, 1396.36 155.33, 1389.35 156.0, 1382.42 156.67, 1375.58 157.33, 1368.82 158.0, 1362.14 158.67, 1355.53 159.33, 1349.01 160.0, 1342.57 160.67, 1336.2 161.33, 1329.9 162.0, 1323.69 162.67, 1317.54 163.33, 1311.47 164.0, 1305.47 164.67, 1299.55 165.33, 1293.69 166.0, 1287.91 166.67, 1282.19 167.33, 1276.54 168.0, 1270.96 168.67, 1265.44 169.33, 1259.99 170.0, 1254.61 170.67, 1249.28 171.33, 1244.03 172.0, 1238.83 172.67, 1233.7 173.33, 1228.62 174.0, 1223.61 174.67, 1218.65 175.33, 1213.76 176.0, 1208.92 176.67, 1204.14 177.33, 1199.42 178.0, 1194.75 178.67, 1190.13 179.33, 1185.58 180.0, 1181.07 180.67, 1176.62 181.33, 1172.22 182.0, 1167.87 182.67, 1163.57 183.33, 1159.32 184.0, 1155.12 184.67, 1150.97 185.33, 1146.87 186.0, 1142.82 186.67, 1138.81 187.33, 1134.85 188.0, 1130.94 188.67, 1127.07 189.33, 1123.25 190.0, 1119.47 190.67, 1115.73 191.33, 1112.03 192.0, 1108.38 192.67, 1104.77 193.33, 1101.21 194.0, 1097.68 194.67, 1094.19 195.33, 1090.74 196.0, 1087.33 196.67, 1083.96 197.33, 1080.63 198.0, 1077.33 198.67, 1074.08 199.33, 1070.85 200.0, 1067.67 200.67, 1064.52 201.33, 1061.4 202.0, 1058.32 202.67, 1055.28 203.33, 1052.26 204.0, 1049.28 204.67, 1046.34 205.33, 1043.42 206.0, 1040.54 206.67, 1037.68 207.33, 1034.86 208.0, 1032.07 208.67, 1029.31 209.33, 1026.58 210.0, 1023.88 210.67, 1021.21 211.33, 1018.56 212.0, 1015.95 212.67, 1013.36 213.33, 1010.8 214.0, 1008.26 214.67, 1005.75 215.33, 1003.27 216.0, 1000.81 216.67, 998.38 217.33, 995.98 218.0, 993.59 218.67, 991.24 219.33, 988.9 220.0, 986.59 220.67, 984.31 221.33, 982.04 222.0, 979.8 222.67, 977.58 223.33, 975.39 224.0, 973.21 224.67, 971.06 225.33, 968.92 226.0, 966.81 226.67, 964.72 227.33, 962.65 228.0, 960.6 228.67, 958.56 229.33, 956.55 230.0, 954.56 230.67, 952.58 231.33, 950.63 232.0, 948.69 232.67, 946.77 233.33, 944.86 234.0, 942.98 234.67, 941.11 235.33, 939.26 236.0, 937.42 236.67, 935.6 237.33, 933.8 238.0, 932.01 238.67, 930.24 239.33, 928.48 240.0, 926.74 240.67, 925.02 241.33, 923.31 242.0, 921.61 242.67, 919.93 243.33, 918.26 244.0, 916.61 244.67, 914.97 245.33, 913.34 246.0, 911.73 246.67, 910.13 247.33, 908.54 248.0, 906.97 248.67, 905.41 249.33, 903.86 250.0, 902.32 250.67, 900.8 251.33, 899.28 252.0, 897.78 252.67, 896.29 253.33, 894.81 254.0, 893.35 254.67, 891.89 255.33, 890.45 256.0, 889.01 256.67, 887.59 257.33, 886.18 258.0, 884.77 258.67, 883.38 259.33, 882.0 260.0, 880.62 260.67, 879.26 261.33, 877.91 262.0, 876.56 262.67, 875.23 263.33, 873.9 264.0, 872.59 264.67, 871.28 265.33, 869.98 266.0, 868.69 266.67, 867.41 267.33, 866.14 268.0, 864.88 268.67, 863.62 269.33, 862.37 270.0, 861.13 270.67, 859.9 271.33, 858.68 272.0, 857.46 272.67, 856.25 273.33, 855.05 274.0, 853.86 274.67, 852.68 275.33, 851.5 276.0, 850.33 276.67, 849.16 277.33, 848.01 278.0, 846.86 278.67, 845.71 279.33, 844.58 280.0, 843.45 280.67, 842.33 281.33, 841.21 282.0, 840.1 282.67, 839.0 283.33, 837.9 284.0, 836.81 284.67, 835.73 285.33, 834.65 286.0, 833.58 286.67, 832.51 287.33, 831.46 288.0, 830.4 288.67, 829.35 289.33, 828.31 290.0, 827.28 290.67, 826.25 291.33, 825.22 292.0, 824.21 292.67, 823.19 293.33, 822.19 294.0, 821.18 294.67, 820.19 295.33, 819.2 296.0, 818.21 296.67, 817.23 297.33, 816.26 298.0, 815.29 298.67, 814.32 299.33, 813.36 300.0, 812.41 300.67, 811.46 301.33, 810.52 302.0, 809.58 302.67, 808.64 303.33, 807.72 304.0, 806.79 304.67, 805.87 305.33, 804.96 306.0, 804.05 306.67, 803.15 307.33, 802.25 308.0, 801.36 308.67, 800.47 309.33, 799.58 310.0, 798.7 310.67, 797.83 311.33, 796.96 312.0, 796.09 312.67, 795.23 313.33, 794.38 314.0, 793.52 314.67, 792.68 315.33, 791.84 316.0, 791.0 316.67, 790.17 317.33, 789.34 318.0, 788.52 318.67, 787.7 319.33, 786.88 320.0, 786.07 320.67, 785.27 321.33, 784.47 322.0, 783.67 322.67, 782.88 323.33, 782.1 324.0, 781.31 324.67, 780.54 325.33, 779.76 326.0, 779.0 326.67, 778.23 327.33, 777.47 328.0, 776.72 328.67, 775.97 329.33, 775.22 330.0, 774.48 330.67, 773.75 331.33, 773.02 332.0, 772.29 332.67, 771.57 333.33, 770.85 334.0, 770.13 334.67, 769.43 335.33, 768.72 336.0, 768.02 336.67, 767.33 337.33, 766.64 338.0, 765.95 338.67, 765.27 339.33, 764.59 340.0, 763.92 340.67, 763.26 341.33, 762.59 342.0, 761.94 342.67, 761.28 343.33, 760.63 344.0, 759.99 344.67, 759.35 345.33, 758.72 346.0, 758.09 346.67, 757.46 347.33, 756.84 348.0, 756.23 348.67, 755.62 349.33, 755.01 350.0, 754.41 350.67, 753.81 351.33, 753.22 352.0, 752.64 352.67, 752.05 353.33, 751.48 354.0, 750.91 354.67, 750.34 355.33, 749.78 356.0, 749.22 356.67, 748.67 357.33, 748.12 358.0, 747.58 358.67, 747.04 359.33, 746.51 360.0, 745.98 360.67, 745.46 361.33, 744.94 362.0, 744.42 362.67, 743.92 363.33, 743.41 364.0, 742.92 364.67, 742.42 365.33, 741.94 366.0, 741.45 366.67, 740.98 367.33, 740.5 368.0, 740.04 368.67, 739.58 369.33, 739.12 370.0, 738.67 370.67, 738.22 371.33, 737.78 372.0, 737.34 372.67, 736.91 373.33, 736.49 374.0, 736.07 374.67, 735.65 375.33, 735.24 376.0, 734.84 376.67, 734.44 377.33, 734.04 378.0, 733.66 378.67, 733.27 379.33, 732.9 380.0, 732.52 380.67, 732.16 381.33, 731.79 382.0, 731.44 382.67, 731.09 383.33, 730.74 384.0, 730.4 384.67, 730.07 385.33, 729.74 386.0, 729.41 386.67, 729.1 387.33, 728.78 388.0, 728.48 388.67, 728.17 389.33, 727.88 390.0, 727.59 390.67, 727.3 391.33, 727.02 392.0, 726.75 392.67, 726.48 393.33, 726.22 394.0, 725.96 394.67, 725.71 395.33, 725.46 396.0, 725.22 396.67, 724.99 397.33, 724.76 398.0, 724.53 398.67, 724.32 399.33, 724.1 400.0, 723.9 400.67, 723.7 401.33, 723.5 402.0, 723.31 402.67, 723.13 403.33, 722.95 404.0, 722.78 404.67, 722.61 405.33, 722.45 406.0, 722.29 406.67, 722.14 407.33, 722.0 408.0, 721.86 408.67, 721.73 409.33, 721.6 410.0, 721.48 410.67, 721.36 411.33, 721.25 412.0, 721.15 412.67, 721.05 413.33, 720.96 414.0, 720.87 414.67, 720.79 415.33, 720.71 416.0, 720.64 416.67, 720.58 417.33, 720.52 418.0, 720.47 418.67, 720.42 419.33, 720.38 420.0, 720.35 420.67, 720.32 421.33, 720.29 422.0, 720.27 422.67, 720.26 423.33, 720.26 424.0, 720.25 424.67, 720.26 425.33, 720.27 426.0, 720.29 426.67, 720.31 427.33, 720.33 428.0, 720.37 428.67, 720.41 429.33, 720.45 430.0, 720.5 430.67, 720.56 431.33, 720.62 432.0, 720.69 432.67, 720.76 433.33, 720.84 434.0, 720.92 434.67, 721.01 435.33, 721.11 436.0, 721.21 436.67, 721.31 437.33, 721.43 438.0, 721.54 438.67, 721.67 439.33, 721.79 440.0, 721.93 440.67, 722.07 441.33, 722.21 442.0, 722.36 442.67, 722.52 443.33, 722.68 444.0, 722.85 444.67, 723.02 445.33, 723.2 446.0, 723.38 446.67, 723.57 447.33, 723.77 448.0, 723.97 448.67, 724.17 449.33, 724.38 450.0, 724.6 450.67, 724.82 451.33, 725.04 452.0, 725.28 452.67, 725.51 453.33, 725.75 454.0, 726.0 454.67, 726.25 455.33, 726.51 456.0, 726.77 456.67, 727.04 457.33, 727.32 458.0, 727.59 458.67, 727.88 459.33, 728.16 460.0, 728.46 460.67, 728.76 461.33, 729.06 462.0, 729.37 462.67, 729.68 463.33, 730.0 464.0, 730.32 464.67, 730.65 465.33, 730.98 466.0, 731.32 466.67, 731.66 467.33, 732.01 468.0, 732.36 468.67, 732.72 469.33, 733.08 470.0, 733.45 470.67, 733.82 471.33, 734.19 472.0, 734.57 472.67, 734.96 473.33, 735.35 474.0, 735.74 474.67, 736.14 475.33, 736.54 476.0, 736.95 476.67, 737.36 477.33, 737.77 478.0, 738.19 478.67, 738.62 479.33, 739.05 480.0, 739.48 480.67, 739.92 481.33, 740.36 482.0, 740.8 482.67, 741.25 483.33, 741.71 484.0, 742.16 484.67, 742.63 485.33, 743.09 486.0, 743.56 486.67, 744.04 487.33, 744.51 488.0, 744.99 488.67, 745.48 489.33, 745.97 490.0, 746.46 490.67, 746.96 491.33, 747.46 492.0, 747.96 492.67, 748.47 493.33, 748.98 494.0, 749.5 494.67, 750.02 495.33, 750.54 496.0, 751.06 496.67, 751.59 497.33, 752.12 498.0, 752.66 498.67, 753.2 499.33, 753.74 500.0, 754.28 500.67, 754.83 501.33, 755.38 502.0, 755.94 502.67, 756.5 503.33, 757.06 504.0, 757.62 504.67, 758.19 505.33, 758.76 506.0, 759.33 506.67, 759.9 507.33, 760.48 508.0, 761.06 508.67, 761.65 509.33, 762.23 510.0, 762.82 510.67, 763.41 511.33, 764.01 512.0, 764.6 512.67, 765.2 513.33, 765.8 514.0, 766.41 514.67, 767.01 515.33, 767.62 516.0, 768.23 516.67, 768.84 517.33, 769.46 518.0, 770.08 518.67, 770.7 519.33, 771.32 520.0, 771.94 520.67, 772.57 521.33, 773.19 522.0, 773.82 522.67, 774.45 523.33, 775.09 524.0, 775.72 524.67, 776.36 525.33, 776.99 526.0, 777.63 526.67, 778.27 527.33, 778.92 528.0, 779.56 528.67, 780.2 529.33, 780.85 530.0, 781.5 530.67, 782.15 531.33, 782.8 532.0, 783.45 532.67, 784.1 533.33, 784.76 534.0, 785.41 534.67, 786.07 535.33, 786.72 536.0, 787.38 536.67, 788.04 537.33, 788.7 538.0, 789.36 538.67, 790.02 539.33, 790.68 540.0, 791.35 540.67, 792.01 541.33, 792.67 542.0, 793.34 542.67, 794.0 543.33, 794.67 544.0, 795.33 544.67, 796.0 545.33, 796.66 546.0, 797.33 546.67, 798.0 547.33, 798.66 548.0, 799.33 548.67, 799.99 549.33, 800.66 550.0, 801.33 550.67, 801.99 551.33, 802.66 552.0, 803.33 552.67, 803.99 553.33, 804.66 554.0, 805.32 554.67, 805.99 555.33, 806.65 556.0, 807.32 556.67, 807.98 557.33, 808.64 558.0, 809.31 558.67, 809.97 559.33, 810.63 560.0, 811.29 560.67, 811.95 561.33, 812.61 562.0, 813.27 562.67, 813.92 563.33, 814.58 564.0, 815.23 564.67, 815.89 565.33, 816.54 566.0, 817.19 566.67, 817.84 567.33, 818.49 568.0, 819.14 568.67, 819.79 569.33, 820.43 570.0, 821.08 570.67, 821.72 571.33, 822.36 572.0, 823.0 572.67, 823.64 573.33, 824.27 574.0, 824.91 574.67, 825.54 575.33, 826.17 576.0, 826.8 576.67, 827.43 577.33, 828.05 578.0, 828.68 578.67, 829.3 579.33, 829.92 580.0, 830.53 580.67, 831.15 581.33, 831.76 582.0, 832.37 582.67, 832.98 583.33, 833.59 584.0, 834.19 584.67, 834.79 585.33, 835.39 586.0, 835.99 586.67, 836.58 587.33, 837.17 588.0, 837.76 588.67, 838.35 589.33, 838.93 590.0, 839.51 590.67, 840.09 591.33, 840.67 592.0, 841.24 592.67, 841.81 593.33, 842.38 594.0, 842.94 594.67, 843.5 595.33, 844.06 596.0, 844.61 596.67, 845.17 597.33, 845.72 598.0, 846.26 598.67, 846.8 599.33, 847.34 600.0, 847.88 600.67, 848.41 601.33, 848.94 602.0, 849.46 602.67, 849.99 603.33, 850.51 604.0, 851.02 604.67, 851.53 605.33, 852.04 606.0, 852.55 606.67, 853.05 607.33, 853.54 608.0, 854.04 608.67, 854.53 609.33, 855.01 610.0, 855.49 610.67, 855.97 611.33, 856.45 612.0, 856.92 612.67, 857.38 613.33, 857.85 614.0, 858.31 614.67, 858.76 615.33, 859.21 616.0, 859.66 616.67, 860.1 617.33, 860.54 618.0, 860.97 618.67, 861.4 619.33, 861.82 620.0, 862.25 620.67, 862.66 621.33, 863.07 622.0, 863.48 622.67, 863.89 623.33, 864.29 624.0, 864.68 624.67, 865.07 625.33, 865.46 626.0, 865.84 626.67, 866.21 627.33, 866.58 628.0, 866.95 628.67, 867.31 629.33, 867.67 630.0, 868.03 630.67, 868.37 631.33, 868.72 632.0, 869.06 632.67, 869.39 633.33, 869.72 634.0, 870.04 634.67, 870.36 635.33, 870.68 636.0, 870.99 636.67, 871.29 637.33, 871.59 638.0, 871.89 638.67, 872.18 639.33, 872.46 640.0, 872.74 640.67, 873.02 641.33, 873.29 642.0, 873.55 642.67, 873.81 643.33, 874.07 644.0, 874.32 644.67, 874.56 645.33, 874.8 646.0, 875.03 646.67, 875.26 647.33, 875.49 648.0, 875.7 648.67, 875.92 649.33, 876.12 650.0, 876.33 650.67, 876.52 651.33, 876.72 652.0, 876.9 652.67, 877.08 653.33, 877.26 654.0, 877.43 654.67, 877.59 655.33, 877.75 656.0, 877.91 656.67, 878.06 657.33, 878.2 658.0, 878.34 658.67, 878.47 659.33, 878.6 660.0, 878.72 660.67, 878.83 661.33, 878.95 662.0, 879.05 662.67, 879.15 663.33, 879.24 664.0, 879.33 664.67, 879.42 665.33, 879.49 666.0, 879.57 666.67, 879.63 667.33, 879.69 668.0, 879.75 668.67, 879.8 669.33, 879.84 670.0, 879.88 670.67, 879.92 671.33, 879.94 672.0, 879.97 672.67, 879.98 673.33, 879.99 674.0, 880.0 674.67, 880.0 675.33, 879.99 676.0, 879.98 676.67, 879.97 677.33, 879.94 678.0, 879.92 678.67, 879.88 679.33, 879.84 680.0, 879.8 680.67, 879.75 681.33, 879.69 682.0, 879.63 682.67, 879.57 683.33, 879.49 684.0, 879.42 684.67, 879.33 685.33, 879.25 686.0, 879.15 686.67, 879.05 687.33, 878.95 688.0, 878.84 688.67, 878.72 689.33, 878.6 690.0, 878.47 690.67, 878.34 691.33, 878.2 692.0, 878.06 692.67, 877.91 693.33, 877.76 694.0, 877.6 694.67, 877.43 695.33, 877.26 696.0, 877.08 696.67, 876.9 697.33, 876.72 698.0, 876.53 698.67, 876.33 699.33, 876.13 700.0, 875.92 700.67, 875.71 701.33, 875.49 702.0, 875.26 702.67, 875.04 703.33, 874.8 704.0, 874.56 704.67, 874.32 705.33, 874.07 706.0, 873.82 706.67, 873.56 707.33, 873.29 708.0, 873.02 708.67, 872.75 709.33, 872.47 710.0, 872.18 710.67, 871.89 711.33, 871.6 712.0, 871.3 712.67, 870.99 713.33, 870.68 714.0, 870.37 714.67, 870.05 715.33, 869.72 716.0, 869.39 716.67, 869.06 717.33, 868.72 718.0, 868.38 718.67, 868.03 719.33, 867.68 720.0, 867.32 720.67, 866.96 721.33, 866.59 722.0, 866.22 722.67, 865.84 723.33, 865.46 724.0, 865.07 724.67, 864.68 725.33, 864.29 726.0, 863.89 726.67, 863.49 727.33, 863.08 728.0, 862.67 728.67, 862.25 729.33, 861.83 730.0, 861.4 730.67, 860.97 731.33, 860.54 732.0, 860.1 732.67, 859.66 733.33, 859.21 734.0, 858.76 734.67, 858.31 735.33, 857.85 736.0, 857.39 736.67, 856.92 737.33, 856.45 738.0, 855.98 738.67, 855.5 739.33, 855.02 740.0, 854.53 740.67, 854.04 741.33, 853.55 742.0, 853.05 742.67, 852.55 743.33, 852.05 744.0, 851.54 744.67, 851.03 745.33, 850.51 746.0, 849.99 746.67, 849.47 747.33, 848.94 748.0, 848.41 748.67, 847.88 749.33, 847.35 750.0, 846.81 750.67, 846.27 751.33, 845.72 752.0, 845.17 752.67, 844.62 753.33, 844.06 754.0, 843.51 754.67, 842.95 755.33, 842.38 756.0, 841.81 756.67, 841.25 757.33, 840.67 758.0, 840.1 758.67, 839.52 759.33, 838.94 760.0, 838.35 760.67, 837.77 761.33, 837.18 762.0, 836.59 762.67, 835.99 763.33, 835.4 764.0, 834.8 764.67, 834.2 765.33, 833.59 766.0, 832.99 766.67, 832.38 767.33, 831.77 768.0, 831.15 768.67, 830.54 769.33, 829.92 770.0, 829.3 770.67, 828.68 771.33, 828.06 772.0, 827.43 772.67, 826.8 773.33, 826.18 774.0, 825.54 774.67, 824.91 775.33, 824.28 776.0, 823.64 776.67, 823.0 777.33, 822.36 778.0, 821.72 778.67, 821.08 779.33, 820.44 780.0, 819.79 780.67, 819.15 781.33, 818.5 782.0, 817.85 782.67, 817.2 783.33, 816.55 784.0, 815.89 784.67, 815.24 785.33, 814.58 786.0, 813.93 786.67, 813.27 787.33, 812.61 788.0, 811.96 788.67, 811.3 789.33, 810.64 790.0, 809.97 790.67, 809.31 791.33, 808.65 792.0, 807.99 792.67, 807.32 793.33, 806.66 794.0, 805.99 794.67, 805.33 795.33, 804.66 796.0, 804.0 796.67, 803.33 797.33, 802.67 798.0, 802.0 798.67, 801.33 799.33, 800.67 800.0, 800.0 800.67, 799.33 801.33, 798.67 802.0, 798.0 802.67, 797.33 803.33, 796.67 804.0, 796.0 804.67, 795.34 805.33, 794.67 806.0, 794.01 806.67, 793.34 807.33, 792.68 808.0, 792.01 808.67, 791.35 809.33, 790.69 810.0, 790.03 810.67, 789.36 811.33, 788.7 812.0, 788.04 812.67, 787.39 813.33, 786.73 814.0, 786.07 814.67, 785.42 815.33, 784.76 816.0, 784.11 816.67, 783.45 817.33, 782.8 818.0, 782.15 818.67, 781.5 819.33, 780.85 820.0, 780.21 820.67, 779.56 821.33, 778.92 822.0, 778.28 822.67, 777.64 823.33, 777.0 824.0, 776.36 824.67, 775.72 825.33, 775.09 826.0, 774.46 826.67, 773.82 827.33, 773.2 828.0, 772.57 828.67, 771.94 829.33, 771.32 830.0, 770.7 830.67, 770.08 831.33, 769.46 832.0, 768.85 832.67, 768.23 833.33, 767.62 834.0, 767.01 834.67, 766.41 835.33, 765.8 836.0, 765.2 836.67, 764.6 837.33, 764.01 838.0, 763.41 838.67, 762.82 839.33, 762.23 840.0, 761.65 840.67, 761.06 841.33, 760.48 842.0, 759.9 842.67, 759.33 843.33, 758.75 844.0, 758.19 844.67, 757.62 845.33, 757.05 846.0, 756.49 846.67, 755.94 847.33, 755.38 848.0, 754.83 848.67, 754.28 849.33, 753.73 850.0, 753.19 850.67, 752.65 851.33, 752.12 852.0, 751.59 852.67, 751.06 853.33, 750.53 854.0, 750.01 854.67, 749.49 855.33, 748.97 856.0, 748.46 856.67, 747.95 857.33, 747.45 858.0, 746.95 858.67, 746.45 859.33, 745.96 860.0, 745.47 860.67, 744.98 861.33, 744.5 862.0, 744.02 862.67, 743.55 863.33, 743.08 864.0, 742.61 864.67, 742.15 865.33, 741.69 866.0, 741.24 866.67, 740.79 867.33, 740.34 868.0, 739.9 868.67, 739.46 869.33, 739.03 870.0, 738.6 870.67, 738.17 871.33, 737.75 872.0, 737.33 872.67, 736.92 873.33, 736.51 874.0, 736.11 874.67, 735.71 875.33, 735.32 876.0, 734.93 876.67, 734.54 877.33, 734.16 878.0, 733.78 878.67, 733.41 879.33, 733.04 880.0, 732.68 880.67, 732.32 881.33, 731.97 882.0, 731.62 882.67, 731.28 883.33, 730.94 884.0, 730.61 884.67, 730.28 885.33, 729.95 886.0, 729.63 886.67, 729.32 887.33, 729.01 888.0, 728.7 888.67, 728.4 889.33, 728.11 890.0, 727.82 890.67, 727.53 891.33, 727.25 892.0, 726.98 892.67, 726.71 893.33, 726.44 894.0, 726.18 894.67, 725.93 895.33, 725.68 896.0, 725.44 896.67, 725.2 897.33, 724.96 898.0, 724.74 898.67, 724.51 899.33, 724.29 900.0, 724.08 900.67, 723.87 901.33, 723.67 902.0, 723.47 902.67, 723.28 903.33, 723.1 904.0, 722.92 904.67, 722.74 905.33, 722.57 906.0, 722.4 906.67, 722.24 907.33, 722.09 908.0, 721.94 908.67, 721.8 909.33, 721.66 910.0, 721.53 910.67, 721.4 911.33, 721.28 912.0, 721.16 912.67, 721.05 913.33, 720.95 914.0, 720.85 914.67, 720.75 915.33, 720.67 916.0, 720.58 916.67, 720.51 917.33, 720.43 918.0, 720.37 918.67, 720.31 919.33, 720.25 920.0, 720.2 920.67, 720.16 921.33, 720.12 922.0, 720.08 922.67, 720.06 923.33, 720.03 924.0, 720.02 924.67, 720.01 925.33, 720.0 926.0, 720.0 926.67, 720.01 927.33, 720.02 928.0, 720.03 928.67, 720.06 929.33, 720.08 930.0, 720.12 930.67, 720.16 931.33, 720.2 932.0, 720.25 932.67, 720.31 933.33, 720.37 934.0, 720.43 934.67, 720.51 935.33, 720.58 936.0, 720.67 936.67, 720.76 937.33, 720.85 938.0, 720.95 938.67, 721.05 939.33, 721.17 940.0, 721.28 940.67, 721.4 941.33, 721.53 942.0, 721.66 942.67, 721.8 943.33, 721.94 944.0, 722.09 944.67, 722.25 945.33, 722.41 946.0, 722.57 946.67, 722.74 947.33, 722.92 948.0, 723.1 948.67, 723.28 949.33, 723.48 950.0, 723.67 950.67, 723.88 951.33, 724.08 952.0, 724.3 952.67, 724.51 953.33, 724.74 954.0, 724.97 954.67, 725.2 955.33, 725.44 956.0, 725.68 956.67, 725.93 957.33, 726.19 958.0, 726.45 958.67, 726.71 959.33, 726.98 960.0, 727.26 960.67, 727.54 961.33, 727.82 962.0, 728.11 962.67, 728.41 963.33, 728.71 964.0, 729.01 964.67, 729.32 965.33, 729.64 966.0, 729.96 966.67, 730.28 967.33, 730.61 968.0, 730.94 968.67, 731.28 969.33, 731.63 970.0, 731.97 970.67, 732.33 971.33, 732.69 972.0, 733.05 972.67, 733.42 973.33, 733.79 974.0, 734.16 974.67, 734.54 975.33, 734.93 976.0, 735.32 976.67, 735.71 977.33, 736.11 978.0, 736.52 978.67, 736.93 979.33, 737.34 980.0, 737.75 980.67, 738.18 981.33, 738.6 982.0, 739.03 982.67, 739.46 983.33, 739.9 984.0, 740.34 984.67, 740.79 985.33, 741.24 986.0, 741.69 986.67, 742.15 987.33, 742.62 988.0, 743.08 988.67, 743.55 989.33, 744.03 990.0, 744.51 990.67, 744.99 991.33, 745.47 992.0, 745.96 992.67, 746.46 993.33, 746.95 994.0, 747.45 994.67, 747.96 995.33, 748.47 996.0, 748.98 996.67, 749.49 997.33, 750.01 998.0, 750.54 998.67, 751.06 999.33, 751.59 1000.0, 752.12 1000.67, 752.66 1001.33, 753.2 1002.0, 753.74 1002.67, 754.28 1003.33, 754.83 1004.0, 755.39 1004.67, 755.94 1005.33, 756.5 1006.0, 757.06 1006.67, 757.62 1007.33, 758.19 1008.0, 758.76 1008.67, 759.33 1009.33, 759.91 1010.0, 760.49 1010.67, 761.07 1011.33, 761.65 1012.0, 762.24 1012.67, 762.83 1013.33, 763.42 1014.0, 764.01 1014.67, 764.61 1015.33, 765.21 1016.0, 765.81 1016.67, 766.41 1017.33, 767.02 1018.0, 767.63 1018.67, 768.24 1019.33, 768.85 1020.0, 769.47 1020.67, 770.08 1021.33, 770.7 1022.0, 771.32 1022.67, 771.95 1023.33, 772.57 1024.0, 773.2 1024.67, 773.83 1025.33, 774.46 1026.0, 775.09 1026.67, 775.73 1027.33, 776.36 1028.0, 777.0 1028.67, 777.64 1029.33, 778.28 1030.0, 778.92 1030.67, 779.57 1031.33, 780.21 1032.0, 780.86 1032.67, 781.51 1033.33, 782.16 1034.0, 782.81 1034.67, 783.46 1035.33, 784.11 1036.0, 784.77 1036.67, 785.42 1037.33, 786.08 1038.0, 786.73 1038.67, 787.39 1039.33, 788.05 1040.0, 788.71 1040.67, 789.37 1041.33, 790.03 1042.0, 790.69 1042.67, 791.36 1043.33, 792.02 1044.0, 792.68 1044.67, 793.35 1045.33, 794.01 1046.0, 794.68 1046.67, 795.34 1047.33, 796.01 1048.0, 796.67 1048.67, 797.34 1049.33, 798.01 1050.0, 798.67 1050.67, 799.34 1051.33, 800.01 1052.0, 800.67 1052.67, 801.34 1053.33, 802.0 1054.0, 802.67 1054.67, 803.34 1055.33, 804.0 1056.0, 804.67 1056.67, 805.33 1057.33, 806.0 1058.0, 806.66 1058.67, 807.33 1059.33, 807.99 1060.0, 808.65 1060.67, 809.32 1061.33, 809.98 1062.0, 810.64 1062.67, 811.3 1063.33, 811.96 1064.0, 812.62 1064.67, 813.28 1065.33, 813.93 1066.0, 814.59 1066.67, 815.24 1067.33, 815.9 1068.0, 816.55 1068.67, 817.2 1069.33, 817.85 1070.0, 818.5 1070.67, 819.15 1071.33, 819.8 1072.0, 820.44 1072.67, 821.08 1073.33, 821.73 1074.0, 822.37 1074.67, 823.01 1075.33, 823.64 1076.0, 824.28 1076.67, 824.91 1077.33, 825.55 1078.0, 826.18 1078.67, 826.81 1079.33, 827.43 1080.0, 828.06 1080.67, 828.68 1081.33, 829.3 1082.0, 829.92 1082.67, 830.54 1083.33, 831.16 1084.0, 831.77 1084.67, 832.38 1085.33, 832.99 1086.0, 833.59 1086.67, 834.2 1087.33, 834.8 1088.0, 835.4 1088.67, 835.99 1089.33, 836.59 1090.0, 837.18 1090.67, 837.77 1091.33, 838.35 1092.0, 838.94 1092.67, 839.52 1093.33, 840.1 1094.0, 840.67 1094.67, 841.24 1095.33, 841.81 1096.0, 842.38 1096.67, 842.94 1097.33, 843.5 1098.0, 844.06 1098.67, 844.62 1099.33, 845.17 1100.0, 845.72 1100.67, 846.26 1101.33, 846.8 1102.0, 847.34 1102.67, 847.88 1103.33, 848.41 1104.0, 848.94 1104.67, 849.46 1105.33, 849.98 1106.0, 850.5 1106.67, 851.02 1107.33, 851.53 1108.0, 852.04 1108.67, 852.54 1109.33, 853.04 1110.0, 853.54 1110.67, 854.03 1111.33, 854.52 1112.0, 855.01 1112.67, 855.49 1113.33, 855.96 1114.0, 856.44 1114.67, 856.91 1115.33, 857.37 1116.0, 857.84 1116.67, 858.29 1117.33, 858.75 1118.0, 859.2 1118.67, 859.64 1119.33, 860.08 1120.0, 860.52 1120.67, 860.95 1121.33, 861.38 1122.0, 861.81 1122.67, 862.23 1123.33, 862.64 1124.0, 863.05 1124.67, 863.46 1125.33, 863.86 1126.0, 864.26 1126.67, 864.65 1127.33, 865.04 1128.0, 865.43 1128.67, 865.81 1129.33, 866.18 1130.0, 866.55 1130.67, 866.92 1131.33, 867.28 1132.0, 867.64 1132.67, 867.99 1133.33, 868.34 1134.0, 868.68 1134.67, 869.02 1135.33, 869.35 1136.0, 869.68 1136.67, 870.0 1137.33, 870.32 1138.0, 870.63 1138.67, 870.94 1139.33, 871.24 1140.0, 871.54 1140.67, 871.84 1141.33, 872.12 1142.0, 872.41 1142.67, 872.68 1143.33, 872.96 1144.0, 873.23 1144.67, 873.49 1145.33, 873.75 1146.0, 874.0 1146.67, 874.25 1147.33, 874.49 1148.0, 874.72 1148.67, 874.96 1149.33, 875.18 1150.0, 875.4 1150.67, 875.62 1151.33, 875.83 1152.0, 876.03 1152.67, 876.23 1153.33, 876.43 1154.0, 876.62 1154.67, 876.8 1155.33, 876.98 1156.0, 877.15 1156.67, 877.32 1157.33, 877.48 1158.0, 877.64 1158.67, 877.79 1159.33, 877.93 1160.0, 878.07 1160.67, 878.21 1161.33, 878.33 1162.0, 878.46 1162.67, 878.57 1163.33, 878.69 1164.0, 878.79 1164.67, 878.89 1165.33, 878.99 1166.0, 879.08 1166.67, 879.16 1167.33, 879.24 1168.0, 879.31 1168.67, 879.38 1169.33, 879.44 1170.0, 879.5 1170.67, 879.55 1171.33, 879.59 1172.0, 879.63 1172.67, 879.67 1173.33, 879.69 1174.0, 879.71 1174.67, 879.73 1175.33, 879.74 1176.0, 879.75 1176.67, 879.74 1177.33, 879.74 1178.0, 879.73 1178.67, 879.71 1179.33, 879.68 1180.0, 879.65 1180.67, 879.62 1181.33, 879.58 1182.0, 879.53 1182.67, 879.48 1183.33, 879.42 1184.0, 879.36 1184.67, 879.29 1185.33, 879.21 1186.0, 879.13 1186.67, 879.04 1187.33, 878.95 1188.0, 878.85 1188.67, 878.75 1189.33, 878.64 1190.0, 878.52 1190.67, 878.4 1191.33, 878.27 1192.0, 878.14 1192.67, 878.0 1193.33, 877.86 1194.0, 877.71 1194.67, 877.55 1195.33, 877.39 1196.0, 877.22 1196.67, 877.05 1197.33, 876.87 1198.0, 876.69 1198.67, 876.5 1199.33, 876.3 1200.0, 876.1 1200.67, 875.9 1201.33, 875.68 1202.0, 875.47 1202.67, 875.24 1203.33, 875.01 1204.0, 874.78 1204.67, 874.54 1205.33, 874.29 1206.0, 874.04 1206.67, 873.78 1207.33, 873.52 1208.0, 873.25 1208.67, 872.98 1209.33, 872.7 1210.0, 872.41 1210.67, 872.12 1211.33, 871.83 1212.0, 871.52 1212.67, 871.22 1213.33, 870.9 1214.0, 870.59 1214.67, 870.26 1215.33, 869.93 1216.0, 869.6 1216.67, 869.26 1217.33, 868.91 1218.0, 868.56 1218.67, 868.21 1219.33, 867.84 1220.0, 867.48 1220.67, 867.1 1221.33, 866.73 1222.0, 866.34 1222.67, 865.96 1223.33, 865.56 1224.0, 865.16 1224.67, 864.76 1225.33, 864.35 1226.0, 863.93 1226.67, 863.51 1227.33, 863.09 1228.0, 862.66 1228.67, 862.22 1229.33, 861.78 1230.0, 861.33 1230.67, 860.88 1231.33, 860.42 1232.0, 859.96 1232.67, 859.5 1233.33, 859.02 1234.0, 858.55 1234.67, 858.06 1235.33, 857.58 1236.0, 857.08 1236.67, 856.59 1237.33, 856.08 1238.0, 855.58 1238.67, 855.06 1239.33, 854.54 1240.0, 854.02 1240.67, 853.49 1241.33, 852.96 1242.0, 852.42 1242.67, 851.88 1243.33, 851.33 1244.0, 850.78 1244.67, 850.22 1245.33, 849.66 1246.0, 849.09 1246.67, 848.52 1247.33, 847.95 1248.0, 847.36 1248.67, 846.78 1249.33, 846.19 1250.0, 845.59 1250.67, 844.99 1251.33, 844.38 1252.0, 843.77 1252.67, 843.16 1253.33, 842.54 1254.0, 841.91 1254.67, 841.28 1255.33, 840.65 1256.0, 840.01 1256.67, 839.37 1257.33, 838.72 1258.0, 838.06 1258.67, 837.41 1259.33, 836.74 1260.0, 836.08 1260.67, 835.41 1261.33, 834.73 1262.0, 834.05 1262.67, 833.36 1263.33, 832.67 1264.0, 831.98 1264.67, 831.28 1265.33, 830.57 1266.0, 829.87 1266.67, 829.15 1267.33, 828.43 1268.0, 827.71 1268.67, 826.98 1269.33, 826.25 1270.0, 825.52 1270.67, 824.78 1271.33, 824.03 1272.0, 823.28 1272.67, 822.53 1273.33, 821.77 1274.0, 821.0 1274.67, 820.24 1275.33, 819.46 1276.0, 818.69 1276.67, 817.9 1277.33, 817.12 1278.0, 816.33 1278.67, 815.53 1279.33, 814.73 1280.0, 813.93 1280.67, 813.12 1281.33, 812.3 1282.0, 811.48 1282.67, 810.66 1283.33, 809.83 1284.0, 809.0 1284.67, 808.16 1285.33, 807.32 1286.0, 806.48 1286.67, 805.62 1287.33, 804.77 1288.0, 803.91 1288.67, 803.04 1289.33, 802.17 1290.0, 801.3 1290.67, 800.42 1291.33, 799.53 1292.0, 798.64 1292.67, 797.75 1293.33, 796.85 1294.0, 795.95 1294.67, 795.04 1295.33, 794.13 1296.0, 793.21 1296.67, 792.28 1297.33, 791.36 1298.0, 790.42 1298.67, 789.48 1299.33, 788.54 1300.0, 787.59 1300.67, 786.64 1301.33, 785.68 1302.0, 784.71 1302.67, 783.74 1303.33, 782.77 1304.0, 781.79 1304.67, 780.8 1305.33, 779.81 1306.0, 778.82 1306.67, 777.81 1307.33, 776.81 1308.0, 775.79 1308.67, 774.78 1309.33, 773.75 1310.0, 772.72 1310.67, 771.69 1311.33, 770.65 1312.0, 769.6 1312.67, 768.54 1313.33, 767.49 1314.0, 766.42 1314.67, 765.35 1315.33, 764.27 1316.0, 763.19 1316.67, 762.1 1317.33, 761.0 1318.0, 759.9 1318.67, 758.79 1319.33, 757.67 1320.0, 756.55 1320.67, 755.42 1321.33, 754.29 1322.0, 753.14 1322.67, 751.99 1323.33, 750.84 1324.0, 749.67 1324.67, 748.5 1325.33, 747.32 1326.0, 746.14 1326.67, 744.95 1327.33, 743.75 1328.0, 742.54 1328.67, 741.32 1329.33, 740.1 1330.0, 738.87 1330.67, 737.63 1331.33, 736.38 1332.0, 735.12 1332.67, 733.86 1333.33, 732.59 1334.0, 731.31 1334.67, 730.02 1335.33, 728.72 1336.0, 727.41 1336.67, 726.1 1337.33, 724.77 1338.0, 723.44 1338.67, 722.09 1339.33, 720.74 1340.0, 719.38 1340.67, 718.0 1341.33, 716.62 1342.0, 715.23 1342.67, 713.82 1343.33, 712.41 1344.0, 710.99 1344.67, 709.55 1345.33, 708.11 1346.0, 706.65 1346.67, 705.19 1347.33, 703.71 1348.0, 702.22 1348.67, 700.72 1349.33, 699.2 1350.0, 697.68 1350.67, 696.14 1351.33, 694.59 1352.0, 693.03 1352.67, 691.46 1353.33, 689.87 1354.0, 688.27 1354.67, 686.66 1355.33, 685.03 1356.0, 683.39 1356.67, 681.74 1357.33, 680.07 1358.0, 678.39 1358.67, 676.69 1359.33, 674.98 1360.0, 673.26 1360.67, 671.52 1361.33, 669.76 1362.0, 667.99 1362.67, 666.2 1363.33, 664.4 1364.0, 662.58 1364.67, 660.74 1365.33, 658.89 1366.0, 657.02 1366.67, 655.14 1367.33, 653.23 1368.0, 651.31 1368.67, 649.37 1369.33, 647.42 1370.0, 645.44 1370.67, 643.45 1371.33, 641.44 1372.0, 639.4 1372.67, 637.35 1373.33, 635.28 1374.0, 633.19 1374.67, 631.08 1375.33, 628.94 1376.0, 626.79 1376.67, 624.61 1377.33, 622.42 1378.0, 620.2 1378.67, 617.96 1379.33, 615.69 1380.0, 613.41 1380.67, 611.1 1381.33, 608.76 1382.0, 606.41 1382.67, 604.02 1383.33, 601.62 1384.0, 599.19 1384.67, 596.73 1385.33, 594.25 1386.0, 591.74 1386.67, 589.2 1387.33, 586.64 1388.0, 584.05 1388.67, 581.44 1389.33, 578.79 1390.0, 576.12 1390.67, 573.42 1391.33, 570.69 1392.0, 567.93 1392.67, 565.14 1393.33, 562.32 1394.0, 559.46 1394.67, 556.58 1395.33, 553.66 1396.0, 550.72 1396.67, 547.74 1397.33, 544.72 1398.0, 541.68 1398.67, 538.6 1399.33, 535.48 1400.0, 532.33 1400.67, 529.15 1401.33, 525.92 1402.0, 522.67 1402.67, 519.37 1403.33, 516.04 1404.0, 512.67 1404.67, 509.26 1405.33, 505.81 1406.0, 502.32 1406.67, 498.79 1407.33, 495.23 1408.0, 491.62 1408.67, 487.97 1409.33, 484.27 1410.0, 480.53 1410.67, 476.75 1411.33, 472.93 1412.0, 469.06 1412.67, 465.15 1413.33, 461.19 1414.0, 457.18 1414.67, 453.13 1415.33, 449.03 1416.0, 444.88 1416.67, 440.68 1417.33, 436.43 1418.0, 432.13 1418.67, 427.78 1419.33, 423.38 1420.0, 418.93 1420.67, 414.42 1421.33, 409.87 1422.0, 405.25 1422.67, 400.58 1423.33, 395.86 1424.0, 391.08 1424.67, 386.24 1425.33, 381.35 1426.0, 376.39 1426.67, 371.38 1427.33, 366.3 1428.0, 361.17 1428.67, 355.97 1429.33, 350.72 1430.0, 345.39 1430.67, 340.01 1431.33, 334.56 1432.0, 329.04 1432.67, 323.46 1433.33, 317.81 1434.0, 312.09 1434.67, 306.31 1435.33, 300.45 1436.0, 294.53 1436.67, 288.53 1437.33, 282.46 1438.0, 276.31 1438.67, 270.1 1439.33, 263.8 1440.0, 257.43 1440.67, 250.99 1441.33, 244.47 1442.0, 237.86 1442.67, 231.18 1443.33, 224.42 1444.0, 217.58 1444.67, 210.65 1445.33, 203.64 1446.0, 196.55 1446.67, 189.37 1447.33, 182.1 1448.0, 174.75 1448.67, 167.31 1449.33, 159.77 1450.0, 152.15 1450.67, 144.44 1451.33, 136.63 1452.0, 128.73 1452.67, 120.73 1453.33, 112.64 1454.0, 104.45 1454.67, 96.17 1455.33, 87.78 1456.0, 79.29 1456.67, 70.71 1457.33, 62.01 1458.0, 53.22 1458.67, 44.32 1459.33, 35.31 1460.0, 26.2 1460.67, 16.97 1461.33, 7.64 1462.0, -1.8 1462.67, -11.36 1463.33, -21.03 1464.0, -30.82 1464.67, -40.72 1465.33, -50.74 1466.0, -60.88 1466.67, -71.14 1467.33, -81.52 1468.0, -92.02 1468.67, -102.65 1469.33, -113.4 1470.0, -124.28 1470.67, -135.29 1471.33, -146.42 1472.0, -157.69 1472.67, -169.09 1473.33, -180.63 1474.0, -192.3 1474.67, -204.1 1475.33, -216.05 1476.0, -228.13 1476.67, -240.36 1477.33, -252.72 1478.0, -265.24 1478.67, -277.89 1479.33, -290.7 1480.0, -303.65 1480.67, -316.76 1481.33, -330.01 1482.0, -343.42 1482.67, -356.99 1483.33, -370.71 1484.0, -384.59 1484.67, -398.63 1485.33, -412.83 1486.0, -427.19 1486.67, -441.72 1487.33, -456.41 1488.0, -471.28 1488.67, -486.31 1489.33, -501.52 1490.0, -516.89 1490.67, -532.45 1491.33, -548.18 1492.0, -564.09 1492.67, -580.18 1493.33, -596.45 1494.0, -612.9 1494.67, -629.54 1495.33, -646.37 1496.0, -663.39 1496.67, -680.6 1497.33, -698.0 1498.0, -715.6 1498.67, -733.4 1499.33, -751.39 1500.0, -769.58 1500.67, -787.98 1501.33, -806.58 1502.0, -825.39 1502.67, -844.41 1503.33, -863.64 1504.0, -883.08 1504.67, -902.74 1505.33, -922.61 1506.0, -942.7 1506.67, -963.01 1507.33, -983.55 1508.0, -1004.31 1508.67, -1025.3 1509.33, -1046.52 1510.0, -1067.96 1510.67, -1089.65 1511.33, -1111.56 1512.0, -1133.72 1512.67, -1156.12 1513.33, -1178.75 1514.0, -1201.64 1514.67, -1224.77 1515.33, -1248.15 1516.0, -1271.77 1516.67, -1295.66 1517.33, -1319.8 1518.0, -1344.19 1518.67, -1368.85 1519.33, -1393.77 1520.0, -1418.96 1520.67, -1444.41 1521.33, -1470.13 1522.0, -1496.13 1522.67, -1522.4 1523.33, -1548.95 1524.0, -1575.77 1524.67, -1602.88 1525.33, -1630.27 1526.0, -1657.95 1526.67, -1685.92 1527.33, -1714.18 1528.0, -1742.74 1528.67, -1771.59 1529.33, -1800.74 1530.0, -1830.19 1530.67, -1859.95 1531.33, -1890.01 1532.0, -1920.39 1532.67, -1951.07 1533.33, -1982.08 1534.0, -2013.39 1534.67, -2045.03 1535.33, -2077.0 1536.0, -2109.28 1536.67, -2141.9 1537.33, -2174.85 1538.0, -2208.13 1538.67, -2241.74 1539.33, -2275.7 1540.0, -2310.0 1540.67, -2344.64 1541.33, -2379.63 1542.0, -2414.97 1542.67, -2450.66 1543.33, -2486.71 1544.0, -2523.12 1544.67, -2559.89 1545.33, -2597.02 1546.0, -2634.52 1546.67, -2672.39 1547.33, -2710.64 1548.0, -2749.26 1548.67, -2788.25 1549.33, -2827.63 1550.0, -2867.4 1550.67, -2907.55 1551.33, -2948.1 1552.0, -2989.03 1552.67, -3030.37 1553.33, -3072.1 1554.0, -3114.24 1554.67, -3156.78 1555.33, -3199.73 1556.0, -3243.09 1556.67, -3286.87 1557.33, -3331.06 1558.0, -3375.68 1558.67, -3420.72 1559.33, -3466.19 1560.0, -3512.08 1560.67, -3558.41 1561.33, -3605.18 1562.0, -3652.39 1562.67, -3700.04 1563.33, -3748.14 1564.0, -3796.68 1564.67, -3845.68 1565.33, -3895.13 1566.0, -3945.04 1566.67, -3995.42 1567.33, -4046.25 1568.0, -4097.56 1568.67, -4149.34 1569.33, -4201.59 1570.0, -4254.32 1570.67, -4307.54 1571.33, -4361.23 1572.0, -4415.42 1572.67, -4470.1 1573.33, -4525.27 1574.0, -4580.93 1574.67, -4637.1 1575.33, -4693.78 1576.0, -4750.96 1576.67, -4808.65 1577.33, -4866.85 1578.0, -4925.58 1578.67, -4984.82 1579.33, -5044.59 1580.0, -5104.89 1580.67, -5165.71 1581.33, -5227.07 1582.0, -5288.97 1582.67, -5351.41 1583.33, -5414.39 1584.0, -5477.92 1584.67, -5542.0 1585.33, -5606.64 1586.0, -5671.83 1586.67, -5737.58 1587.33, -5803.9 1588.0, -5870.78 1588.67, -5938.24 1589.33, -6006.27 1590.0, -6074.88 1590.67, -6144.06 1591.33, -6213.84 1592.0, -6284.19 1592.67, -6355.15 1593.33, -6426.69 1594.0, -6498.83 1594.67, -6571.57 1595.33, -6644.92 1596.0, -6718.88 1596.67, -6793.44 1597.33, -6868.62 1598.0, -6944.42 1598.67, -7020.83 1599.33, -7097.87 1600.0, -7175.54 " fill="none" stroke="white" stroke-width="1.5" stroke-linejoin="round" stroke-opacity="1"/>

 </svg>