<svg version="1.1" 
 baseProfile="full" 
 width="1600" 
 height="1600" 
 xmlns="http://www.w3.org/2000/svg">
<rect x="0.0" y="0.0" width="1600" height="1600" fill="black" stroke="black" stroke-width="0" opacity="1"/>
<line x1="0.0" y1="0.0" x2="0.0" y2="1600.0" stroke="white" stroke-width="1" opacity="0.4" stroke-linecap="butt"/>
<line x1="160.0" y1="0.0" x2="160.0" y2="1600.0" stroke="white" stroke-width="1" opacity="0.4" stroke-linecap="butt"/>
<line x1="320.0" y1="0.0" x2="320.0" y2="1600.0" stroke="white" stroke-width="1" opacity="0.4" stroke-linecap="butt"/>
<line x1="480.0" y1="0.0" x2="480.0" y2="1600.0" stroke="white" stroke-width="1" opacity="0.4" stroke-linecap="butt"/>
<line x1="640.0" y1="0.0" x2="640.0" y2="1600.0" stroke="white" stroke-width="1" opacity="0.4" stroke-linecap="butt"/>
<line x1="800.0" y1="0.0" x2="800.0" y2="1600.0" stroke="white" stroke-width="1" opacity="0.4" stroke-linecap="butt"/>
<line x1="960.0" y1="0.0" x2="960.0" y2="1600.0" stroke="white" stroke-width="1" opacity="0.4" stroke-linecap="butt"/>
<line x1="1120.0" y1="0.0" x2="1120.0" y2="1600.0" stroke="white" stroke-width="1" opacity="0.4" stroke-linecap="butt"/>
<line x1="1280.0" y1="0.0" x2="1280.0" y2="1600.0" stroke="white" stroke-width="1" opacity="0.4" stroke-linecap="butt"/>
<line x1="1440.0" y1="0.0" x2="1440.0" y2="1600.0" stroke="white" stroke-width="1" opacity="0.4" stroke-linecap="butt"/>
<line x1="0.0" y1="0.0" x2="1600.0" y2="0.0" stroke="white" stroke-width="1" opacity="0.4" stroke-linecap="butt"/>
<line x1="0.0" y1="160.0" x2="1600.0" y2="160.0" stroke="white" stroke-width="1" opacity="0.4" stroke-linecap="butt"/>
<line x1="0.0" y1="320.0" x2="1600.0" y2="320.0" stroke="white" stroke-width="1" opacity="0.4" stroke-linecap="butt"/>
<line x1="0.0" y1="480.0" x2="1600.0" y2="480.0" stroke="white" stroke-width="1" opacity="0.4" stroke-linecap="butt"/>
<line x1="0.0" y1="640.0" x2="1600.0" y2="640.0" stroke="white" stroke-width="1" opacity="0.4" stroke-linecap="butt"/>
<line x1="0.0" y1="800.0" x2="1600.0" y2="800.0" stroke="white" stroke-width="1" opacity="0.4" stroke-linecap="butt"/>
<line x1="0.0" y1="960.0" x2="1600.0" y2="960.0" stroke="white" stroke-width="1" opacity="0.4" stroke-linecap="butt"/>
<line x1="0.0" y1="1120.0" x2="1600.0" y2="1120.0" stroke="white" stroke-width="1" opacity="0.4" stroke-linecap="butt"/>
<line x1="0.0" y1="1280.0" x2="1600.0" y2="1280.0" stroke="white" stroke-width="1" opacity="0.4" stroke-linecap="butt"/>
<line x1="0.0" y1="1440.0" x2="1600.0" y2="1440.0" stroke="white" stroke-width="1" opacity="0.4" stroke-linecap="butt"/>
<line x1="0.0" y1="800.0" x2="1600.0" y2="800.0" stroke="yellow" stroke-width="2.5" opacity="1" stroke-linecap="butt"/>
<line x1="800.0" y1="0.0" x2="800.0" y2="1600.0" stroke="yellow" stroke-width="2.5" opacity="1" stroke-linecap="butt"/>
<polygon points="1564.0 816.0, 1604.0 800.0, 1564.0 784.0, 1572.0 800.0" fill="yellow"/><polygon points="816.0 36.0, 800.0 -4.0, 784.0 36.0, 800.0 28.0" fill="yellow"/><polyline points="0.0, 12599.12 0.67, 12473.94 1.33, 12349.93 2.0, 12227.1 2.67, 12105.42 3.33, 11984.89 4.0, 11865.51 4.67, 11747.26 5.33, 11630.14 6.0, 11514.13 6.67, 11399.22 7.33, 11285.42 8.0, 11172.7 8.67, 11061.06 9.33, 10950.5 10.0, 10840.99 10.67, 10732.54 11.33, 10625.14 12.0, 10518.78 12.67, 10413.44 13.33, 10309.12 14.0, 10205.82 14.67, 10103.52 15.33, 10002.22 16.0, 9901.9 16.67, 9802.56 17.33, 9704.2 18.0, 9606.8 18.67, 9510.35 19.33, 9414.85 20.0, 9320.29 20.67, 9226.67 21.33, 9133.97 22.0, 9042.18 22.67, 8951.3 23.33, 8861.33 24.0, 8772.25 24.67, 8684.05 25.33, 8596.73 26.0, 8510.29 26.67, 8424.7 27.33, 8339.98 28.0, 8256.1 28.67, 8173.07 29.33, 8090.87 30.0, 8009.49 30.67, 7928.94 31.33, 7849.2 32.0, 7770.27 32.67, 7692.14 33.33, 7614.8 34.0, 7538.25 34.67, 7462.47 35.33, 7387.47 36.0, 7313.23 36.67, 7239.76 37.33, 7167.03 38.0, 7095.05 38.67, 7023.81 39.33, 6953.3 40.0, 6883.52 40.67, 6814.45 41.33, 6746.1 42.0, 6678.46 42.67, 6611.52 43.33, 6545.27 44.0, 6479.71 44.67, 6414.83 45.33, 6350.63 46.0, 6287.1 46.67, 6224.23 47.33, 6162.02 48.0, 6100.46 48.67, 6039.55 49.33, 5979.28 50.0, 5919.64 50.67, 5860.64 51.33, 5802.25 52.0, 5744.48 52.67, 5687.32 53.33, 5630.77 54.0, 5574.82 54.67, 5519.47 55.33, 5464.7 56.0, 5410.52 56.67, 5356.92 57.33, 5303.89 58.0, 5251.43 58.67, 5199.53 59.33, 5148.18 60.0, 5097.39 60.67, 5047.15 61.33, 4997.45 62.0, 4948.29 62.67, 4899.65 63.33, 4851.55 64.0, 4803.96 64.67, 4756.9 65.33, 4710.34 66.0, 4664.29 66.67, 4618.75 67.33, 4573.7 68.0, 4529.15 68.67, 4485.08 69.33, 4441.49 70.0, 4398.39 70.67, 4355.76 71.33, 4313.59 72.0, 4271.9 72.67, 4230.66 73.33, 4189.88 74.0, 4149.55 74.67, 4109.67 75.33, 4070.23 76.0, 4031.23 76.67, 3992.66 77.33, 3954.53 78.0, 3916.82 78.67, 3879.53 79.33, 3842.66 80.0, 3806.2 80.67, 3770.15 81.33, 3734.51 82.0, 3699.26 82.67, 3664.42 83.33, 3629.97 84.0, 3595.9 84.67, 3562.23 85.33, 3528.93 86.0, 3496.01 86.67, 3463.47 87.33, 3431.29 88.0, 3399.48 88.67, 3368.04 89.33, 3336.95 90.0, 3306.22 90.67, 3275.84 91.33, 3245.81 92.0, 3216.13 92.67, 3186.78 93.33, 3157.77 94.0, 3129.1 94.67, 3100.76 95.33, 3072.74 96.0, 3045.05 96.67, 3017.68 97.33, 2990.62 98.0, 2963.88 98.67, 2937.45 99.33, 2911.33 100.0, 2885.52 100.67, 2860.0 101.33, 2834.78 102.0, 2809.86 102.67, 2785.22 103.33, 2760.88 104.0, 2736.82 104.67, 2713.05 105.33, 2689.55 106.0, 2666.33 106.67, 2643.39 107.33, 2620.72 108.0, 2598.31 108.67, 2576.17 109.33, 2554.29 110.0, 2532.67 110.67, 2511.3 111.33, 2490.2 112.0, 2469.34 112.67, 2448.73 113.33, 2428.36 114.0, 2408.24 114.67, 2388.36 115.33, 2368.72 116.0, 2349.31 116.67, 2330.13 117.33, 2311.19 118.0, 2292.47 118.67, 2273.98 119.33, 2255.71 120.0, 2237.66 120.67, 2219.83 121.33, 2202.21 122.0, 2184.81 122.67, 2167.61 123.33, 2150.63 124.0, 2133.85 124.67, 2117.27 125.33, 2100.9 126.0, 2084.72 126.67, 2068.75 127.33, 2052.96 128.0, 2037.37 128.67, 2021.97 129.33, 2006.76 130.0, 1991.73 130.67, 1976.88 131.33, 1962.22 132.0, 1947.74 132.67, 1933.44 133.33, 1919.31 134.0, 1905.35 134.67, 1891.57 135.33, 1877.96 136.0, 1864.51 136.67, 1851.23 137.33, 1838.11 138.0, 1825.16 138.67, 1812.36 139.33, 1799.73 140.0, 1787.25 140.67, 1774.92 141.33, 1762.75 142.0, 1750.72 142.67, 1738.85 143.33, 1727.13 144.0, 1715.55 144.67, 1704.11 145.33, 1692.82 146.0, 1681.66 146.67, 1670.65 147.33, 1659.77 148.0, 1649.03 148.67, 1638.42 149.33, 1627.95 150.0, 1617.6 150.67, 1607.39 151.33, 1597.3 152.0, 1587.34 152.67, 1577.5 153.33, 1567.79 154.0, 1558.19 154.67, 1548.72 155.33, 1539.37 156.0, 1530.13 156.67, 1521.01 157.33, 1512.01 158.0, 1503.11 158.67, 1494.33 159.33, 1485.66 160.0, 1477.1 160.67, 1468.64 161.33, 1460.29 162.0, 1452.05 162.67, 1443.91 163.33, 1435.87 164.0, 1427.93 164.67, 1420.09 165.33, 1412.35 166.0, 1404.71 166.67, 1397.16 167.33, 1389.71 168.0, 1382.35 168.67, 1375.09 169.33, 1367.92 170.0, 1360.83 170.67, 1353.84 171.33, 1346.93 172.0, 1340.11 172.67, 1333.37 173.33, 1326.72 174.0, 1320.15 174.67, 1313.67 175.33, 1307.27 176.0, 1300.94 176.67, 1294.7 177.33, 1288.53 178.0, 1282.44 178.67, 1276.43 179.33, 1270.49 180.0, 1264.63 180.67, 1258.84 181.33, 1253.12 182.0, 1247.47 182.67, 1241.9 183.33, 1236.39 184.0, 1230.95 184.67, 1225.58 185.33, 1220.28 186.0, 1215.04 186.67, 1209.86 187.33, 1204.75 188.0, 1199.71 188.67, 1194.72 189.33, 1189.8 190.0, 1184.94 190.67, 1180.14 191.33, 1175.39 192.0, 1170.71 192.67, 1166.08 193.33, 1161.51 194.0, 1157.0 194.67, 1152.54 195.33, 1148.13 196.0, 1143.78 196.67, 1139.49 197.33, 1135.24 198.0, 1131.05 198.67, 1126.9 199.33, 1122.81 200.0, 1118.76 200.67, 1114.77 201.33, 1110.82 202.0, 1106.92 202.67, 1103.07 203.33, 1099.26 204.0, 1095.5 204.67, 1091.78 205.33, 1088.11 206.0, 1084.48 206.67, 1080.9 207.33, 1077.35 208.0, 1073.85 208.67, 1070.39 209.33, 1066.97 210.0, 1063.59 210.67, 1060.25 211.33, 1056.95 212.0, 1053.68 212.67, 1050.46 213.33, 1047.27 214.0, 1044.12 214.67, 1041.0 215.33, 1037.92 216.0, 1034.88 216.67, 1031.87 217.33, 1028.89 218.0, 1025.95 218.67, 1023.04 219.33, 1020.17 220.0, 1017.32 220.67, 1014.51 221.33, 1011.73 222.0, 1008.98 222.67, 1006.26 223.33, 1003.57 224.0, 1000.91 224.67, 998.28 225.33, 995.68 226.0, 993.1 226.67, 990.56 227.33, 988.04 228.0, 985.55 228.67, 983.08 229.33, 980.64 230.0, 978.23 230.67, 975.84 231.33, 973.48 232.0, 971.14 232.67, 968.83 233.33, 966.54 234.0, 964.28 234.67, 962.03 235.33, 959.81 236.0, 957.62 236.67, 955.44 237.33, 953.29 238.0, 951.16 238.67, 949.05 239.33, 946.96 240.0, 944.9 240.67, 942.85 241.33, 940.82 242.0, 938.82 242.67, 936.83 243.33, 934.86 244.0, 932.91 244.67, 930.98 245.33, 929.07 246.0, 927.17 246.67, 925.3 247.33, 923.44 248.0, 921.6 248.67, 919.77 249.33, 917.97 250.0, 916.17 250.67, 914.4 251.33, 912.64 252.0, 910.9 252.67, 909.17 253.33, 907.46 254.0, 905.76 254.67, 904.08 255.33, 902.42 256.0, 900.76 256.67, 899.13 257.33, 897.5 258.0, 895.89 258.67, 894.3 259.33, 892.71 260.0, 891.14 260.67, 889.59 261.33, 888.05 262.0, 886.51 262.67, 885.0 263.33, 883.49 264.0, 882.0 264.67, 880.52 265.33, 879.05 266.0, 877.59 266.67, 876.14 267.33, 874.71 268.0, 873.29 268.67, 871.87 269.33, 870.47 270.0, 869.08 270.67, 867.7 271.33, 866.33 272.0, 864.97 272.67, 863.62 273.33, 862.28 274.0, 860.96 274.67, 859.64 275.33, 858.33 276.0, 857.03 276.67, 855.74 277.33, 854.46 278.0, 853.18 278.67, 851.92 279.33, 850.67 280.0, 849.42 280.67, 848.19 281.33, 846.96 282.0, 845.74 282.67, 844.53 283.33, 843.33 284.0, 842.13 284.67, 840.95 285.33, 839.77 286.0, 838.6 286.67, 837.44 287.33, 836.28 288.0, 835.14 288.67, 834.0 289.33, 832.87 290.0, 831.74 290.67, 830.62 291.33, 829.52 292.0, 828.41 292.67, 827.32 293.33, 826.23 294.0, 825.15 294.67, 824.08 295.33, 823.01 296.0, 821.95 296.67, 820.89 297.33, 819.85 298.0, 818.81 298.67, 817.77 299.33, 816.75 300.0, 815.73 300.67, 814.71 301.33, 813.7 302.0, 812.7 302.67, 811.71 303.33, 810.72 304.0, 809.73 304.67, 808.76 305.33, 807.78 306.0, 806.82 306.67, 805.86 307.33, 804.91 308.0, 803.96 308.67, 803.02 309.33, 802.08 310.0, 801.15 310.67, 800.23 311.33, 799.31 312.0, 798.4 312.67, 797.49 313.33, 796.59 314.0, 795.69 314.67, 794.8 315.33, 793.91 316.0, 793.04 316.67, 792.16 317.33, 791.29 318.0, 790.43 318.67, 789.57 319.33, 788.72 320.0, 787.87 320.67, 787.03 321.33, 786.19 322.0, 785.36 322.67, 784.54 323.33, 783.72 324.0, 782.9 324.67, 782.09 325.33, 781.28 326.0, 780.48 326.67, 779.69 327.33, 778.9 328.0, 778.12 328.67, 777.34 329.33, 776.56 330.0, 775.79 330.67, 775.03 331.33, 774.27 332.0, 773.52 332.67, 772.77 333.33, 772.03 334.0, 771.29 334.67, 770.55 335.33, 769.83 336.0, 769.1 336.67, 768.39 337.33, 767.67 338.0, 766.97 338.67, 766.26 339.33, 765.57 340.0, 764.87 340.67, 764.19 341.33, 763.5 342.0, 762.83 342.67, 762.15 343.33, 761.49 344.0, 760.82 344.67, 760.17 345.33, 759.51 346.0, 758.87 346.67, 758.23 347.33, 757.59 348.0, 756.96 348.67, 756.33 349.33, 755.71 350.0, 755.09 350.67, 754.48 351.33, 753.88 352.0, 753.27 352.67, 752.68 353.33, 752.09 354.0, 751.5 354.67, 750.92 355.33, 750.35 356.0, 749.78 356.67, 749.21 357.33, 748.65 358.0, 748.1 358.67, 747.55 359.33, 747.0 360.0, 746.47 360.67, 745.93 361.33, 745.4 362.0, 744.88 362.67, 744.36 363.33, 743.85 364.0, 743.34 364.67, 742.84 365.33, 742.34 366.0, 741.85 366.67, 741.36 367.33, 740.88 368.0, 740.41 368.67, 739.94 369.33, 739.47 370.0, 739.01 370.67, 738.56 371.33, 738.11 372.0, 737.67 372.67, 737.23 373.33, 736.79 374.0, 736.37 374.67, 735.95 375.33, 735.53 376.0, 735.12 376.67, 734.71 377.33, 734.31 378.0, 733.92 378.67, 733.53 379.33, 733.14 380.0, 732.77 380.67, 732.39 381.33, 732.03 382.0, 731.66 382.67, 731.31 383.33, 730.96 384.0, 730.61 384.67, 730.27 385.33, 729.94 386.0, 729.61 386.67, 729.29 387.33, 728.97 388.0, 728.66 388.67, 728.35 389.33, 728.05 390.0, 727.76 390.67, 727.47 391.33, 727.18 392.0, 726.91 392.67, 726.63 393.33, 726.37 394.0, 726.11 394.67, 725.85 395.33, 725.6 396.0, 725.36 396.67, 725.12 397.33, 724.89 398.0, 724.66 398.67, 724.44 399.33, 724.22 400.0, 724.01 400.67, 723.81 401.33, 723.61 402.0, 723.42 402.67, 723.23 403.33, 723.05 404.0, 722.88 404.67, 722.71 405.33, 722.54 406.0, 722.38 406.67, 722.23 407.33, 722.09 408.0, 721.95 408.67, 721.81 409.33, 721.68 410.0, 721.56 410.67, 721.44 411.33, 721.33 412.0, 721.22 412.67, 721.12 413.33, 721.03 414.0, 720.94 414.67, 720.86 415.33, 720.78 416.0, 720.71 416.67, 720.64 417.33, 720.58 418.0, 720.53 418.67, 720.48 419.33, 720.44 420.0, 720.4 420.67, 720.37 421.33, 720.34 422.0, 720.32 422.67, 720.31 423.33, 720.3 424.0, 720.3 424.67, 720.3 425.33, 720.31 426.0, 720.33 426.67, 720.35 427.33, 720.38 428.0, 720.41 428.67, 720.45 429.33, 720.49 430.0, 720.54 430.67, 720.59 431.33, 720.65 432.0, 720.72 432.67, 720.79 433.33, 720.87 434.0, 720.95 434.67, 721.04 435.33, 721.14 436.0, 721.24 436.67, 721.34 437.33, 721.45 438.0, 721.57 438.67, 721.69 439.33, 721.82 440.0, 721.95 440.67, 722.09 441.33, 722.24 442.0, 722.39 442.67, 722.54 443.33, 722.7 444.0, 722.87 444.67, 723.04 445.33, 723.22 446.0, 723.4 446.67, 723.59 447.33, 723.78 448.0, 723.98 448.67, 724.19 449.33, 724.4 450.0, 724.61 450.67, 724.83 451.33, 725.06 452.0, 725.29 452.67, 725.53 453.33, 725.77 454.0, 726.02 454.67, 726.27 455.33, 726.52 456.0, 726.79 456.67, 727.05 457.33, 727.33 458.0, 727.6 458.67, 727.89 459.33, 728.18 460.0, 728.47 460.67, 728.77 461.33, 729.07 462.0, 729.38 462.67, 729.69 463.33, 730.01 464.0, 730.33 464.67, 730.66 465.33, 730.99 466.0, 731.33 466.67, 731.67 467.33, 732.02 468.0, 732.37 468.67, 732.73 469.33, 733.09 470.0, 733.45 470.67, 733.82 471.33, 734.2 472.0, 734.58 472.67, 734.96 473.33, 735.35 474.0, 735.74 474.67, 736.14 475.33, 736.54 476.0, 736.95 476.67, 737.36 477.33, 737.78 478.0, 738.2 478.67, 738.62 479.33, 739.05 480.0, 739.48 480.67, 739.92 481.33, 740.36 482.0, 740.81 482.67, 741.26 483.33, 741.71 484.0, 742.17 484.67, 742.63 485.33, 743.1 486.0, 743.56 486.67, 744.04 487.33, 744.52 488.0, 745.0 488.67, 745.48 489.33, 745.97 490.0, 746.46 490.67, 746.96 491.33, 747.46 492.0, 747.97 492.67, 748.47 493.33, 748.98 494.0, 749.5 494.67, 750.02 495.33, 750.54 496.0, 751.06 496.67, 751.59 497.33, 752.12 498.0, 752.66 498.67, 753.2 499.33, 753.74 500.0, 754.29 500.67, 754.83 501.33, 755.39 502.0, 755.94 502.67, 756.5 503.33, 757.06 504.0, 757.62 504.67, 758.19 505.33, 758.76 506.0, 759.33 506.67, 759.91 507.33, 760.48 508.0, 761.06 508.67, 761.65 509.33, 762.23 510.0, 762.82 510.67, 763.41 511.33, 764.01 512.0, 764.6 512.67, 765.2 513.33, 765.8 514.0, 766.41 514.67, 767.01 515.33, 767.62 516.0, 768.23 516.67, 768.85 517.33, 769.46 518.0, 770.08 518.67, 770.7 519.33, 771.32 520.0, 771.94 520.67, 772.57 521.33, 773.19 522.0, 773.82 522.67, 774.45 523.33, 775.09 524.0, 775.72 524.67, 776.36 525.33, 776.99 526.0, 777.63 526.67, 778.27 527.33, 778.92 528.0, 779.56 528.67, 780.2 529.33, 780.85 530.0, 781.5 530.67, 782.15 531.33, 782.8 532.0, 783.45 532.67, 784.1 533.33, 784.76 534.0, 785.41 534.67, 786.07 535.33, 786.72 536.0, 787.38 536.67, 788.04 537.33, 788.7 538.0, 789.36 538.67, 790.02 539.33, 790.68 540.0, 791.35 540.67, 792.01 541.33, 792.67 542.0, 793.34 542.67, 794.0 543.33, 794.67 544.0, 795.33 544.67, 796.0 545.33, 796.66 546.0, 797.33 546.67, 798.0 547.33, 798.66 548.0, 799.33 548.67, 799.99 549.33, 800.66 550.0, 801.33 550.67, 801.99 551.33, 802.66 552.0, 803.33 552.67, 803.99 553.33, 804.66 554.0, 805.32 554.67, 805.99 555.33, 806.65 556.0, 807.32 556.67, 807.98 557.33, 808.64 558.0, 809.31 558.67, 809.97 559.33, 810.63 560.0, 811.29 560.67, 811.95 561.33, 812.61 562.0, 813.27 562.67, 813.92 563.33, 814.58 564.0, 815.23 564.67, 815.89 565.33, 816.54 566.0, 817.19 566.67, 817.84 567.33, 818.49 568.0, 819.14 568.67, 819.79 569.33, 820.43 570.0, 821.08 570.67, 821.72 571.33, 822.36 572.0, 823.0 572.67, 823.64 573.33, 824.27 574.0, 824.91 574.67, 825.54 575.33, 826.17 576.0, 826.8 576.67, 827.43 577.33, 828.05 578.0, 828.68 578.67, 829.3 579.33, 829.92 580.0, 830.53 580.67, 831.15 581.33, 831.76 582.0, 832.37 582.67, 832.98 583.33, 833.59 584.0, 834.19 584.67, 834.79 585.33, 835.39 586.0, 835.99 586.67, 836.58 587.33, 837.17 588.0, 837.76 588.67, 838.35 589.33, 838.93 590.0, 839.51 590.67, 840.09 591.33, 840.67 592.0, 841.24 592.67, 841.81 593.33, 842.38 594.0, 842.94 594.67, 843.5 595.33, 844.06 596.0, 844.61 596.67, 845.17 597.33, 845.72 598.0, 846.26 598.67, 846.8 599.33, 847.34 600.0, 847.88 600.67, 848.41 601.33, 848.94 602.0, 849.46 602.67, 849.99 603.33, 850.51 604.0, 851.02 604.67, 851.53 605.33, 852.04 606.0, 852.55 606.67, 853.05 607.33, 853.54 608.0, 854.04 608.67, 854.53 609.33, 855.01 610.0, 855.49 610.67, 855.97 611.33, 856.45 612.0, 856.92 612.67, 857.38 613.33, 857.85 614.0, 858.31 614.67, 858.76 615.33, 859.21 616.0, 859.66 616.67, 860.1 617.33, 860.54 618.0, 860.97 618.67, 861.4 619.33, 861.82 620.0, 862.25 620.67, 862.66 621.33, 863.07 622.0, 863.48 622.67, 863.89 623.33, 864.29 624.0, 864.68 624.67, 865.07 625.33, 865.46 626.0, 865.84 626.67, 866.21 627.33, 866.58 628.0, 866.95 628.67, 867.31 629.33, 867.67 630.0, 868.03 630.67, 868.37 631.33, 868.72 632.0, 869.06 632.67, 869.39 633.33, 869.72 634.0, 870.04 634.67, 870.36 635.33, 870.68 636.0, 870.99 636.67, 871.29 637.33, 871.59 638.0, 871.89 638.67, 872.18 639.33, 872.46 640.0, 872.74 640.67, 873.02 641.33, 873.29 642.0, 873.55 642.67, 873.81 643.33, 874.07 644.0, 874.32 644.67, 874.56 645.33, 874.8 646.0, 875.03 646.67, 875.26 647.33, 875.49 648.0, 875.7 648.67, 875.92 649.33, 876.12 650.0, 876.33 650.67, 876.52 651.33, 876.72 652.0, 876.9 652.67, 877.08 653.33, 877.26 654.0, 877.43 654.67, 877.59 655.33, 877.75 656.0, 877.91 656.67, 878.06 657.33, 878.2 658.0, 878.34 658.67, 878.47 659.33, 878.6 660.0, 878.72 660.67, 878.83 661.33, 878.95 662.0, 879.05 662.67, 879.15 663.33, 879.24 664.0, 879.33 664.67, 879.42 665.33, 879.49 666.0, 879.57 666.67, 879.63 667.33, 879.69 668.0, 879.75 668.67, 879.8 669.33, 879.84 670.0, 879.88 670.67, 879.92 671.33, 879.94 672.0, 879.97 672.67, 879.98 673.33, 879.99 674.0, 880.0 674.67, 880.0 675.33, 879.99 676.0, 879.98 676.67, 879.97 677.33, 879.94 678.0, 879.92 678.67, 879.88 679.33, 879.84 680.0, 879.8 680.67, 879.75 681.33, 879.69 682.0, 879.63 682.67, 879.57 683.33, 879.49 684.0, 879.42 684.67, 879.33 685.33, 879.25 686.0, 879.15 686.67, 879.05 687.33, 878.95 688.0, 878.84 688.67, 878.72 689.33, 878.6 690.0, 878.47 690.67, 878.34 691.33, 878.2 692.0, 878.06 692.67, 877.91 693.33, 877.76 694.0, 877.6 694.67, 877.43 695.33, 877.26 696.0, 877.08 696.67, 876.9 697.33, 876.72 698.0, 876.53 698.67, 876.33 699.33, 876.13 700.0, 875.92 700.67, 875.71 701.33, 875.49 702.0, 875.26 702.67, 875.04 703.33, 874.8 704.0, 874.56 704.67, 874.32 705.33, 874.07 706.0, 873.82 706.67, 873.56 707.33, 873.29 708.0, 873.02 708.67, 872.75 709.33, 872.47 710.0, 872.18 710.67, 871.89 711.33, 871.6 712.0, 871.3 712.67, 870.99 713.33, 870.68 714.0, 870.37 714.67, 870.05 715.33, 869.72 716.0, 869.39 716.67, 869.06 717.33, 868.72 718.0, 868.38 718.67, 868.03 719.33, 867.68 720.0, 867.32 720.67, 866.96 721.33, 866.59 722.0, 866.22 722.67, 865.84 723.33, 865.46 724.0, 865.07 724.67, 864.68 725.33, 864.29 726.0, 863.89 726.67, 863.49 727.33, 863.08 728.0, 862.67 728.67, 862.25 729.33, 861.83 730.0, 861.4 730.67, 860.97 731.33, 860.54 732.0, 860.1 732.67, 859.66 733.33, 859.21 734.0, 858.76 734.67, 858.31 735.33, 857.85 736.0, 857.39 736.67, 856.92 737.33, 856.45 738.0, 855.98 738.67, 855.5 739.33, 855.02 740.0, 854.53 740.67, 854.04 741.33, 853.55 742.0, 853.05 742.67, 852.55 743.33, 852.05 744.0, 851.54 744.67, 851.03 745.33, 850.51 746.0, 849.99 746.67, 849.47 747.33, 848.94 748.0, 848.41 748.67, 847.88 749.33, 847.35 750.0, 846.81 750.67, 846.27 751.33, 845.72 752.0, 845.17 752.67, 844.62 753.33, 844.06 754.0, 843.51 754.67, 842.95 755.33, 842.38 756.0, 841.81 756.67, 841.25 757.33, 840.67 758.0, 840.1 758.67, 839.52 759.33, 838.94 760.0, 838.35 760.67, 837.77 761.33, 837.18 762.0, 836.59 762.67, 835.99 763.33, 835.4 764.0, 834.8 764.67, 834.2 765.33, 833.59 766.0, 832.99 766.67, 832.38 767.33, 831.77 768.0, 831.15 768.67, 830.54 769.33, 829.92 770.0, 829.3 770.67, 828.68 771.33, 828.06 772.0, 827.43 772.67, 826.8 773.33, 826.18 774.0, 825.54 774.67, 824.91 775.33, 824.28 776.0, 823.64 776.67, 823.0 777.33, 822.36 778.0, 821.72 778.67, 821.08 779.33, 820.44 780.0, 819.79 780.67, 819.15 781.33, 818.5 782.0, 817.85 782.67, 817.2 783.33, 816.55 784.0, 815.89 784.67, 815.24 785.33, 814.58 786.0, 813.93 786.67, 813.27 787.33, 812.61 788.0, 811.96 788.67, 811.3 789.33, 810.64 790.0, 809.97 790.67, 809.31 791.33, 808.65 792.0, 807.99 792.67, 807.32 793.33, 806.66 794.0, 805.99 794.67, 805.33 795.33, 804.66 796.0, 804.0 796.67, 803.33 797.33, 802.67 798.0, 802.0 798.67, 801.33 799.33, 800.67 800.0, 800.0 800.67, 799.33 801.33, 798.67 802.0, 798.0 802.67, 797.33 803.33, 796.67 804.0, 796.0 804.67, 795.34 805.33, 794.67 806.0, 794.01 806.67, 793.34 807.33, 792.68 808.0, 792.01 808.67, 791.35 809.33, 790.69 810.0, 790.03 810.67, 789.36 811.33, 788.7 812.0, 788.04 812.67, 787.39 813.33, 786.73 814.0, 786.07 814.67, 785.42 815.33, 784.76 816.0, 784.11 816.67, 783.45 817.33, 782.8 818.0, 782.15 818.67, 781.5 819.33, 780.85 820.0, 780.21 820.67, 779.56 821.33, 778.92 822.0, 778.28 822.67, 777.64 823.33, 777.0 824.0, 776.36 824.67, 775.72 825.33, 775.09 826.0, 774.46 826.67, 773.82 827.33, 773.2 828.0, 772.57 828.67, 771.94 829.33, 771.32 830.0, 770.7 830.67, 770.08 831.33, 769.46 832.0, 768.85 832.67, 768.23 833.33, 767.62 834.0, 767.01 834.67, 766.41 835.33, 765.8 836.0, 765.2 836.67, 764.6 837.33, 764.01 838.0, 763.41 838.67, 762.82 839.33, 762.23 840.0, 761.65 840.67, 761.06 841.33, 760.48 842.0, 759.9 842.67, 759.33 843.33, 758.75 844.0, 758.19 844.67, 757.62 845.33, 757.05 846.0, 756.49 846.67, 755.94 847.33, 755.38 848.0, 754.83 848.67, 754.28 849.33, 753.73 850.0, 753.19 850.67, 752.65 851.33, 752.12 852.0, 751.59 852.67, 751.06 853.33, 750.53 854.0, 750.01 854.67, 749.49 855.33, 748.97 856.0, 748.46 856.67, 747.95 857.33, 747.45 858.0, 746.95 858.67, 746.45 859.33, 745.96 860.0, 745.47 860.67, 744.98 861.33, 744.5 862.0, 744.02 862.67, 743.55 863.33, 743.08 864.0, 742.61 864.67, 742.15 865.33, 741.69 866.0, 741.24 866.67, 740.79 867.33, 740.34 868.0, 739.9 868.67, 739.46 869.33, 739.03 870.0, 738.6 870.67, 738.17 871.33, 737.75 872.0, 737.33 872.67, 736.92 873.33, 736.51 874.0, 736.11 874.67, 735.71 875.33, 735.32 876.0, 734.93 876.67, 734.54 877.33, 734.16 878.0, 733.78 878.67, 733.41 879.33, 733.04 880.0, 732.68 880.67, 732.32 881.33, 731.97 882.0, 731.62 882.67, 731.28 883.33, 730.94 884.0, 730.61 884.67, 730.28 885.33, 729.95 886.0, 729.63 886.67, 729.32 887.33, 729.01 888.0, 728.7 888.67, 728.4 889.33, 728.11 890.0, 727.82 890.67, 727.53 891.33, 727.25 892.0, 726.98 892.67, 726.71 893.33, 726.44 894.0, 726.18 894.67, 725.93 895.33, 725.68 896.0, 725.44 896.67, 725.2 897.33, 724.96 898.0, 724.74 898.67, 724.51 899.33, 724.29 900.0, 724.08 900.67, 723.87 901.33, 723.67 902.0, 723.47 902.67, 723.28 903.33, 723.1 904.0, 722.92 904.67, 722.74 905.33, 722.57 906.0, 722.4 906.67, 722.24 907.33, 722.09 908.0, 721.94 908.67, 721.8 909.33, 721.66 910.0, 721.53 910.67, 721.4 911.33, 721.28 912.0, 721.16 912.67, 721.05 913.33, 720.95 914.0, 720.85 914.67, 720.75 915.33, 720.67 916.0, 720.58 916.67, 720.51 917.33, 720.43 918.0, 720.37 918.67, 720.31 919.33, 720.25 920.0, 720.2 920.67, 720.16 921.33, 720.12 922.0, 720.08 922.67, 720.06 923.33, 720.03 924.0, 720.02 924.67, 720.01 925.33, 720.0 926.0, 720.0 926.67, 720.01 927.33, 720.02 928.0, 720.03 928.67, 720.06 929.33, 720.08 930.0, 720.12 930.67, 720.16 931.33, 720.2 932.0, 720.25 932.67, 720.31 933.33, 720.37 934.0, 720.43 934.67, 720.51 935.33, 720.58 936.0, 720.67 936.67, 720.76 937.33, 720.85 938.0, 720.95 938.67, 721.05 939.33, 721.17 940.0, 721.28 940.67, 721.4 941.33, 721.53 942.0, 721.66 942.67, 721.8 943.33, 721.94 944.0, 722.09 944.67, 722.25 945.33, 722.41 946.0, 722.57 946.67, 722.74 947.33, 722.92 948.0, 723.1 948.67, 723.28 949.33, 723.48 950.0, 723.67 950.67, 723.88 951.33, 724.08 952.0, 724.3 952.67, 724.51 953.33, 724.74 954.0, 724.97 954.67, 725.2 955.33, 725.44 956.0, 725.68 956.67, 725.93 957.33, 726.19 958.0, 726.45 958.67, 726.71 959.33, 726.98 960.0, 727.26 960.67, 727.54 961.33, 727.82 962.0, 728.11 962.67, 728.41 963.33, 728.71 964.0, 729.01 964.67, 729.32 965.33, 729.64 966.0, 729.96 966.67, 730.28 967.33, 730.61 968.0, 730.94 968.67, 731.28 969.33, 731.63 970.0, 731.97 970.67, 732.33 971.33, 732.69 972.0, 733.05 972.67, 733.42 973.33, 733.79 974.0, 734.16 974.67, 734.54 975.33, 734.93 976.0, 735.32 976.67, 735.71 977.33, 736.11 978.0, 736.52 978.67, 736.93 979.33, 737.34 980.0, 737.75 980.67, 738.18 981.33, 738.6 982.0, 739.03 982.67, 739.46 983.33, 739.9 984.0, 740.34 984.67, 740.79 985.33, 741.24 986.0, 741.69 986.67, 742.15 987.33, 742.62 988.0, 743.08 988.67, 743.55 989.33, 744.03 990.0, 744.51 990.67, 744.99 991.33, 745.47 992.0, 745.96 992.67, 746.46 993.33, 746.95 994.0, 747.45 994.67, 747.96 995.33, 748.47 996.0, 748.98 996.67, 749.49 997.33, 750.01 998.0, 750.54 998.67, 751.06 999.33, 751.59 1000.0, 752.12 1000.67, 752.66 1001.33, 753.2 1002.0, 753.74 1002.67, 754.28 1003.33, 754.83 1004.0, 755.39 1004.67, 755.94 1005.33, 756.5 1006.0, 757.06 1006.67, 757.62 1007.33, 758.19 1008.0, 758.76 1008.67, 759.33 1009.33, 759.91 1010.0, 760.49 1010.67, 761.07 1011.33, 761.65 1012.0, 762.24 1012.67, 762.83 1013.33, 763.42 1014.0, 764.01 1014.67, 764.61 1015.33, 765.21 1016.0, 765.81 1016.67, 766.41 1017.33, 767.02 1018.0, 767.63 1018.67, 768.24 1019.33, 768.85 1020.0, 769.47 1020.67, 770.08 1021.33, 770.7 1022.0, 771.32 1022.67, 771.95 1023.33, 772.57 1024.0, 773.2 1024.67, 773.83 1025.33, 774.46 1026.0, 775.09 1026.67, 775.73 1027.33, 776.36 1028.0, 777.0 1028.67, 777.64 1029.33, 778.28 1030.0, 778.92 1030.67, 779.57 1031.33, 780.21 1032.0, 780.86 1032.67, 781.51 1033.33, 782.16 1034.0, 782.81 1034.67, 783.46 1035.33, 784.11 1036.0, 784.77 1036.67, 785.42 1037.33, 786.08 1038.0, 786.73 1038.67, 787.39 1039.33, 788.05 1040.0, 788.71 1040.67, 789.37 1041.33, 790.03 1042.0, 790.69 1042.67, 791.36 1043.33, 792.02 1044.0, 792.68 1044.67, 793.35 1045.33, 794.01 1046.0, 794.68 1046.67, 795.34 1047.33, 796.01 1048.0, 796.67 1048.67, 797.34 1049.33, 798.01 1050.0, 798.67 1050.67, 799.34 1051.33, 800.01 1052.0, 800.67 1052.67, 801.34 1053.33, 802.0 1054.0, 802.67 1054.67, 803.34 1055.33, 804.0 1056.0, 804.67 1056.67, 805.33 1057.33, 806.0 1058.0, 806.66 1058.67, 807.33 1059.33, 807.99 1060.0, 808.65 1060.67, 809.32 1061.33, 809.98 1062.0, 810.64 1062.67, 811.3 1063.33, 811.96 1064.0, 812.62 1064.67, 813.28 1065.33, 813.93 1066.0, 814.59 1066.67, 815.24 1067.33, 815.9 1068.0, 816.55 1068.67, 817.2 1069.33, 817.85 1070.0, 818.5 1070.67, 819.15 1071.33, 819.8 1072.0, 820.44 1072.67, 821.08 1073.33, 821.73 1074.0, 822.37 1074.67, 823.01 1075.33, 823.64 1076.0, 824.28 1076.67, 824.91 1077.33, 825.55 1078.0, 826.18 1078.67, 826.81 1079.33, 827.43 1080.0, 828.06 1080.67, 828.68 1081.33, 829.3 1082.0, 829.92 1082.67, 830.54 1083.33, 831.15 1084.0, 831.77 1084.67, 832.38 1085.33, 832.99 1086.0, 833.59 1086.67, 834.2 1087.33, 834.8 1088.0, 835.4 1088.67, 835.99 1089.33, 836.59 1090.0, 837.18 1090.67, 837.77 1091.33, 838.35 1092.0, 838.94 1092.67, 839.52 1093.33, 840.09 1094.0, 840.67 1094.67, 841.24 1095.33, 841.81 1096.0, 842.38 1096.67, 842.94 1097.33, 843.5 1098.0, 844.06 1098.67, 844.61 1099.33, 845.17 1100.0, 845.71 1100.67, 846.26 1101.33, 846.8 1102.0, 847.34 1102.67, 847.88 1103.33, 848.41 1104.0, 848.94 1104.67, 849.46 1105.33, 849.98 1106.0, 850.5 1106.67, 851.02 1107.33, 851.53 1108.0, 852.03 1108.67, 852.54 1109.33, 853.04 1110.0, 853.54 1110.67, 854.03 1111.33, 854.52 1112.0, 855.0 1112.67, 855.48 1113.33, 855.96 1114.0, 856.44 1114.67, 856.9 1115.33, 857.37 1116.0, 857.83 1116.67, 858.29 1117.33, 858.74 1118.0, 859.19 1118.67, 859.64 1119.33, 860.08 1120.0, 860.52 1120.67, 860.95 1121.33, 861.38 1122.0, 861.8 1122.67, 862.22 1123.33, 862.64 1124.0, 863.05 1124.67, 863.46 1125.33, 863.86 1126.0, 864.26 1126.67, 864.65 1127.33, 865.04 1128.0, 865.42 1128.67, 865.8 1129.33, 866.18 1130.0, 866.55 1130.67, 866.91 1131.33, 867.27 1132.0, 867.63 1132.67, 867.98 1133.33, 868.33 1134.0, 868.67 1134.67, 869.01 1135.33, 869.34 1136.0, 869.67 1136.67, 869.99 1137.33, 870.31 1138.0, 870.62 1138.67, 870.93 1139.33, 871.23 1140.0, 871.53 1140.67, 871.82 1141.33, 872.11 1142.0, 872.4 1142.67, 872.67 1143.33, 872.95 1144.0, 873.21 1144.67, 873.48 1145.33, 873.73 1146.0, 873.98 1146.67, 874.23 1147.33, 874.47 1148.0, 874.71 1148.67, 874.94 1149.33, 875.17 1150.0, 875.39 1150.67, 875.6 1151.33, 875.81 1152.0, 876.02 1152.67, 876.22 1153.33, 876.41 1154.0, 876.6 1154.67, 876.78 1155.33, 876.96 1156.0, 877.13 1156.67, 877.3 1157.33, 877.46 1158.0, 877.61 1158.67, 877.76 1159.33, 877.91 1160.0, 878.05 1160.67, 878.18 1161.33, 878.31 1162.0, 878.43 1162.67, 878.55 1163.33, 878.66 1164.0, 878.76 1164.67, 878.86 1165.33, 878.96 1166.0, 879.05 1166.67, 879.13 1167.33, 879.21 1168.0, 879.28 1168.67, 879.35 1169.33, 879.41 1170.0, 879.46 1170.67, 879.51 1171.33, 879.55 1172.0, 879.59 1172.67, 879.62 1173.33, 879.65 1174.0, 879.67 1174.67, 879.69 1175.33, 879.7 1176.0, 879.7 1176.67, 879.7 1177.33, 879.69 1178.0, 879.68 1178.67, 879.66 1179.33, 879.63 1180.0, 879.6 1180.67, 879.56 1181.33, 879.52 1182.0, 879.47 1182.67, 879.42 1183.33, 879.36 1184.0, 879.29 1184.67, 879.22 1185.33, 879.14 1186.0, 879.06 1186.67, 878.97 1187.33, 878.88 1188.0, 878.78 1188.67, 878.67 1189.33, 878.56 1190.0, 878.44 1190.67, 878.32 1191.33, 878.19 1192.0, 878.05 1192.67, 877.91 1193.33, 877.77 1194.0, 877.62 1194.67, 877.46 1195.33, 877.29 1196.0, 877.12 1196.67, 876.95 1197.33, 876.77 1198.0, 876.58 1198.67, 876.39 1199.33, 876.19 1200.0, 875.99 1200.67, 875.78 1201.33, 875.56 1202.0, 875.34 1202.67, 875.11 1203.33, 874.88 1204.0, 874.64 1204.67, 874.4 1205.33, 874.15 1206.0, 873.89 1206.67, 873.63 1207.33, 873.37 1208.0, 873.09 1208.67, 872.82 1209.33, 872.53 1210.0, 872.24 1210.67, 871.95 1211.33, 871.65 1212.0, 871.34 1212.67, 871.03 1213.33, 870.71 1214.0, 870.39 1214.67, 870.06 1215.33, 869.73 1216.0, 869.39 1216.67, 869.04 1217.33, 868.69 1218.0, 868.34 1218.67, 867.97 1219.33, 867.61 1220.0, 867.23 1220.67, 866.86 1221.33, 866.47 1222.0, 866.08 1222.67, 865.69 1223.33, 865.29 1224.0, 864.88 1224.67, 864.47 1225.33, 864.05 1226.0, 863.63 1226.67, 863.21 1227.33, 862.77 1228.0, 862.33 1228.67, 861.89 1229.33, 861.44 1230.0, 860.99 1230.67, 860.53 1231.33, 860.06 1232.0, 859.59 1232.67, 859.12 1233.33, 858.64 1234.0, 858.15 1234.67, 857.66 1235.33, 857.16 1236.0, 856.66 1236.67, 856.15 1237.33, 855.64 1238.0, 855.12 1238.67, 854.6 1239.33, 854.07 1240.0, 853.53 1240.67, 853.0 1241.33, 852.45 1242.0, 851.9 1242.67, 851.35 1243.33, 850.79 1244.0, 850.22 1244.67, 849.65 1245.33, 849.08 1246.0, 848.5 1246.67, 847.91 1247.33, 847.32 1248.0, 846.73 1248.67, 846.12 1249.33, 845.52 1250.0, 844.91 1250.67, 844.29 1251.33, 843.67 1252.0, 843.04 1252.67, 842.41 1253.33, 841.77 1254.0, 841.13 1254.67, 840.49 1255.33, 839.83 1256.0, 839.18 1256.67, 838.51 1257.33, 837.85 1258.0, 837.17 1258.67, 836.5 1259.33, 835.81 1260.0, 835.13 1260.67, 834.43 1261.33, 833.74 1262.0, 833.03 1262.67, 832.33 1263.33, 831.61 1264.0, 830.9 1264.67, 830.17 1265.33, 829.45 1266.0, 828.71 1266.67, 827.97 1267.33, 827.23 1268.0, 826.48 1268.67, 825.73 1269.33, 824.97 1270.0, 824.21 1270.67, 823.44 1271.33, 822.66 1272.0, 821.88 1272.67, 821.1 1273.33, 820.31 1274.0, 819.52 1274.67, 818.72 1275.33, 817.91 1276.0, 817.1 1276.67, 816.28 1277.33, 815.46 1278.0, 814.64 1278.67, 813.81 1279.33, 812.97 1280.0, 812.13 1280.67, 811.28 1281.33, 810.43 1282.0, 809.57 1282.67, 808.71 1283.33, 807.84 1284.0, 806.96 1284.67, 806.09 1285.33, 805.2 1286.0, 804.31 1286.67, 803.41 1287.33, 802.51 1288.0, 801.6 1288.67, 800.69 1289.33, 799.77 1290.0, 798.85 1290.67, 797.92 1291.33, 796.98 1292.0, 796.04 1292.67, 795.09 1293.33, 794.14 1294.0, 793.18 1294.67, 792.22 1295.33, 791.24 1296.0, 790.27 1296.67, 789.28 1297.33, 788.29 1298.0, 787.3 1298.67, 786.3 1299.33, 785.29 1300.0, 784.27 1300.67, 783.25 1301.33, 782.23 1302.0, 781.19 1302.67, 780.15 1303.33, 779.11 1304.0, 778.05 1304.67, 776.99 1305.33, 775.92 1306.0, 774.85 1306.67, 773.77 1307.33, 772.68 1308.0, 771.59 1308.67, 770.48 1309.33, 769.38 1310.0, 768.26 1310.67, 767.13 1311.33, 766.0 1312.0, 764.86 1312.67, 763.72 1313.33, 762.56 1314.0, 761.4 1314.67, 760.23 1315.33, 759.05 1316.0, 757.87 1316.67, 756.67 1317.33, 755.47 1318.0, 754.26 1318.67, 753.04 1319.33, 751.81 1320.0, 750.58 1320.67, 749.33 1321.33, 748.08 1322.0, 746.82 1322.67, 745.54 1323.33, 744.26 1324.0, 742.97 1324.67, 741.67 1325.33, 740.36 1326.0, 739.04 1326.67, 737.72 1327.33, 736.38 1328.0, 735.03 1328.67, 733.67 1329.33, 732.3 1330.0, 730.92 1330.67, 729.53 1331.33, 728.13 1332.0, 726.71 1332.67, 725.29 1333.33, 723.86 1334.0, 722.41 1334.67, 720.95 1335.33, 719.48 1336.0, 718.0 1336.67, 716.51 1337.33, 715.0 1338.0, 713.49 1338.67, 711.95 1339.33, 710.41 1340.0, 708.86 1340.67, 707.29 1341.33, 705.7 1342.0, 704.11 1342.67, 702.5 1343.33, 700.87 1344.0, 699.24 1344.67, 697.58 1345.33, 695.92 1346.0, 694.24 1346.67, 692.54 1347.33, 690.83 1348.0, 689.1 1348.67, 687.36 1349.33, 685.6 1350.0, 683.83 1350.67, 682.03 1351.33, 680.23 1352.0, 678.4 1352.67, 676.56 1353.33, 674.7 1354.0, 672.83 1354.67, 670.93 1355.33, 669.02 1356.0, 667.09 1356.67, 665.14 1357.33, 663.17 1358.0, 661.18 1358.67, 659.18 1359.33, 657.15 1360.0, 655.1 1360.67, 653.04 1361.33, 650.95 1362.0, 648.84 1362.67, 646.71 1363.33, 644.56 1364.0, 642.38 1364.67, 640.19 1365.33, 637.97 1366.0, 635.72 1366.67, 633.46 1367.33, 631.17 1368.0, 628.86 1368.67, 626.52 1369.33, 624.16 1370.0, 621.77 1370.67, 619.36 1371.33, 616.92 1372.0, 614.45 1372.67, 611.96 1373.33, 609.44 1374.0, 606.9 1374.67, 604.32 1375.33, 601.72 1376.0, 599.09 1376.67, 596.43 1377.33, 593.74 1378.0, 591.02 1378.67, 588.27 1379.33, 585.49 1380.0, 582.68 1380.67, 579.83 1381.33, 576.96 1382.0, 574.05 1382.67, 571.11 1383.33, 568.13 1384.0, 565.12 1384.67, 562.08 1385.33, 559.0 1386.0, 555.88 1386.67, 552.73 1387.33, 549.54 1388.0, 546.32 1388.67, 543.05 1389.33, 539.75 1390.0, 536.41 1390.67, 533.03 1391.33, 529.61 1392.0, 526.15 1392.67, 522.65 1393.33, 519.1 1394.0, 515.52 1394.67, 511.89 1395.33, 508.22 1396.0, 504.5 1396.67, 500.74 1397.33, 496.93 1398.0, 493.08 1398.67, 489.18 1399.33, 485.23 1400.0, 481.24 1400.67, 477.19 1401.33, 473.1 1402.0, 468.95 1402.67, 464.76 1403.33, 460.51 1404.0, 456.22 1404.67, 451.87 1405.33, 447.46 1406.0, 443.0 1406.67, 438.49 1407.33, 433.92 1408.0, 429.29 1408.67, 424.61 1409.33, 419.86 1410.0, 415.06 1410.67, 410.2 1411.33, 405.28 1412.0, 400.29 1412.67, 395.25 1413.33, 390.14 1414.0, 384.96 1414.67, 379.72 1415.33, 374.42 1416.0, 369.05 1416.67, 363.61 1417.33, 358.1 1418.0, 352.53 1418.67, 346.88 1419.33, 341.16 1420.0, 335.37 1420.67, 329.51 1421.33, 323.57 1422.0, 317.56 1422.67, 311.47 1423.33, 305.3 1424.0, 299.06 1424.67, 292.73 1425.33, 286.33 1426.0, 279.85 1426.67, 273.28 1427.33, 266.63 1428.0, 259.89 1428.67, 253.07 1429.33, 246.16 1430.0, 239.17 1430.67, 232.08 1431.33, 224.91 1432.0, 217.65 1432.67, 210.29 1433.33, 202.84 1434.0, 195.29 1434.67, 187.65 1435.33, 179.91 1436.0, 172.07 1436.67, 164.13 1437.33, 156.09 1438.0, 147.95 1438.67, 139.71 1439.33, 131.36 1440.0, 122.9 1440.67, 114.34 1441.33, 105.67 1442.0, 96.89 1442.67, 87.99 1443.33, 78.99 1444.0, 69.87 1444.67, 60.63 1445.33, 51.28 1446.0, 41.81 1446.67, 32.21 1447.33, 22.5 1448.0, 12.66 1448.67, 2.7 1449.33, -7.39 1450.0, -17.6 1450.67, -27.95 1451.33, -38.42 1452.0, -49.03 1452.67, -59.77 1453.33, -70.65 1454.0, -81.66 1454.67, -92.82 1455.33, -104.11 1456.0, -115.55 1456.67, -127.13 1457.33, -138.85 1458.0, -150.72 1458.67, -162.75 1459.33, -174.92 1460.0, -187.25 1460.67, -199.73 1461.33, -212.36 1462.0, -225.16 1462.67, -238.11 1463.33, -251.23 1464.0, -264.51 1464.67, -277.96 1465.33, -291.57 1466.0, -305.35 1466.67, -319.31 1467.33, -333.44 1468.0, -347.74 1468.67, -362.22 1469.33, -376.88 1470.0, -391.73 1470.67, -406.76 1471.33, -421.97 1472.0, -437.37 1472.67, -452.96 1473.33, -468.75 1474.0, -484.72 1474.67, -500.9 1475.33, -517.27 1476.0, -533.85 1476.67, -550.63 1477.33, -567.61 1478.0, -584.81 1478.67, -602.21 1479.33, -619.83 1480.0, -637.66 1480.67, -655.71 1481.33, -673.98 1482.0, -692.47 1482.67, -711.19 1483.33, -730.13 1484.0, -749.31 1484.67, -768.72 1485.33, -788.36 1486.0, -808.24 1486.67, -828.36 1487.33, -848.73 1488.0, -869.34 1488.67, -890.2 1489.33, -911.3 1490.0, -932.67 1490.67, -954.29 1491.33, -976.17 1492.0, -998.31 1492.67, -1020.72 1493.33, -1043.39 1494.0, -1066.33 1494.67, -1089.55 1495.33, -1113.05 1496.0, -1136.82 1496.67, -1160.88 1497.33, -1185.22 1498.0, -1209.86 1498.67, -1234.78 1499.33, -1260.0 1500.0, -1285.52 1500.67, -1311.33 1501.33, -1337.45 1502.0, -1363.88 1502.67, -1390.62 1503.33, -1417.68 1504.0, -1445.05 1504.67, -1472.74 1505.33, -1500.76 1506.0, -1529.1 1506.67, -1557.77 1507.33, -1586.78 1508.0, -1616.13 1508.67, -1645.81 1509.33, -1675.84 1510.0, -1706.22 1510.67, -1736.95 1511.33, -1768.04 1512.0, -1799.48 1512.67, -1831.29 1513.33, -1863.47 1514.0, -1896.01 1514.67, -1928.93 1515.33, -1962.23 1516.0, -1995.9 1516.67, -2029.97 1517.33, -2064.42 1518.0, -2099.26 1518.67, -2134.51 1519.33, -2170.15 1520.0, -2206.2 1520.67, -2242.66 1521.33, -2279.53 1522.0, -2316.82 1522.67, -2354.53 1523.33, -2392.66 1524.0, -2431.23 1524.67, -2470.23 1525.33, -2509.67 1526.0, -2549.55 1526.67, -2589.88 1527.33, -2630.66 1528.0, -2671.9 1528.67, -2713.59 1529.33, -2755.76 1530.0, -2798.39 1530.67, -2841.49 1531.33, -2885.08 1532.0, -2929.15 1532.67, -2973.7 1533.33, -3018.75 1534.0, -3064.29 1534.67, -3110.34 1535.33, -3156.9 1536.0, -3203.96 1536.67, -3251.55 1537.33, -3299.65 1538.0, -3348.29 1538.67, -3397.45 1539.33, -3447.15 1540.0, -3497.39 1540.67, -3548.18 1541.33, -3599.53 1542.0, -3651.43 1542.67, -3703.89 1543.33, -3756.92 1544.0, -3810.52 1544.67, -3864.7 1545.33, -3919.47 1546.0, -3974.82 1546.67, -4030.77 1547.33, -4087.32 1548.0, -4144.48 1548.67, -4202.25 1549.33, -4260.64 1550.0, -4319.64 1550.67, -4379.28 1551.33, -4439.55 1552.0, -4500.46 1552.67, -4562.02 1553.33, -4624.23 1554.0, -4687.1 1554.67, -4750.63 1555.33, -4814.83 1556.0, -4879.71 1556.67, -4945.27 1557.33, -5011.52 1558.0, -5078.46 1558.67, -5146.1 1559.33, -5214.45 1560.0, -5283.52 1560.67, -5353.3 1561.33, -5423.81 1562.0, -5495.05 1562.67, -5567.03 1563.33, -5639.76 1564.0, -5713.23 1564.67, -5787.47 1565.33, -5862.47 1566.0, -5938.25 1566.67, -6014.8 1567.33, -6092.14 1568.0, -6170.27 1568.67, -6249.2 1569.33, -6328.94 1570.0, -6409.49 1570.67, -6490.87 1571.33, -6573.07 1572.0, -6656.1 1572.67, -6739.98 1573.33, -6824.7 1574.0, -6910.29 1574.67, -6996.73 1575.33, -7084.05 1576.0, -7172.25 1576.67, -7261.33 1577.33, -7351.3 1578.0, -7442.18 1578.67, -7533.97 1579.33, -7626.67 1580.0, -7720.29 1580.67, -7814.85 1581.33, -7910.35 1582.0, -8006.8 1582.67, -8104.2 1583.33, -8202.56 1584.0, -8301.9 1584.67, -8402.22 1585.33, -8503.52 1586.0, -8605.82 1586.67, -8709.12 1587.33, -8813.44 1588.0, -8918.78 1588.67, -9025.14 1589.33, -9132.54 1590.0, -9240.99 1590.67, -9350.5 1591.33, -9461.06 1592.0, -9572.7 1592.67, -9685.42 1593.33, -9799.22 1594.0, -9914.13 1594.67, -10030.14 1595.33, -10147.26 1596.0, -10265.51 1596.67, -10384.89 1597.33, -10505.42 1598.0, -10627.1 1598.67, -10749.93 1599.33, -10873.94 1600.0, -10999.12 " fill="none" stroke="white" stroke-width="1.5" stroke-linejoin="round" stroke-opacity="1"/>

 </svg>