<svg version="1.1" 
 baseProfile="full" 
 width="1600" 
 height="1600" 
 xmlns="http://www.w3.org/2000/svg">
<rect x="0.0" y="0.0" width="1600" height="1600" fill="black" stroke="black" stroke-width="0" opacity="1"/>
<line x1="0.0" y1="0.0" x2="0.0" y2="1600.0" stroke="white" stroke-width="1" opacity="0.4" stroke-linecap="butt"/>
<line x1="160.0" y1="0.0" x2="160.0" y2="1600.0" stroke="white" stroke-width="1" opacity="0.4" stroke-linecap="butt"/>
<line x1="320.0" y1="0.0" x2="320.0" y2="1600.0" stroke="white" stroke-width="1" opacity="0.4" stroke-linecap="butt"/>
<line x1="480.0" y1="0.0" x2="480.0" y2="1600.0" stroke="white" stroke-width="1" opacity="0.4" stroke-linecap="butt"/>
<line x1="640.0" y1="0.0" x2="640.0" y2="1600.0" stroke="white" stroke-width="1" opacity="0.4" stroke-linecap="butt"/>
<line x1="800.0" y1="0.0" x2="800.0" y2="1600.0" stroke="white" stroke-width="1" opacity="0.4" stroke-linecap="butt"/>
<line x1="960.0" y1="0.0" x2="960.0" y2="1600.0" stroke="white" stroke-width="1" opacity="0.4" stroke-linecap="butt"/>
<line x1="1120.0" y1="0.0" x2="1120.0" y2="1600.0" stroke="white" stroke-width="1" opacity="0.4" stroke-linecap="butt"/>
<line x1="1280.0" y1="0.0" x2="1280.0" y2="1600.0" stroke="white" stroke-width="1" opacity="0.4" stroke-linecap="butt"/>
<line x1="1440.0" y1="0.0" x2="1440.0" y2="1600.0" stroke="white" stroke-width="1" opacity="0.4" stroke-linecap="butt"/>
<line x1="0.0" y1="0.0" x2="1600.0" y2="0.0" stroke="white" stroke-width="1" opacity="0.4" stroke-linecap="butt"/>
<line x1="0.0" y1="160.0" x2="1600.0" y2="160.0" stroke="white" stroke-width="1" opacity="0.4" stroke-linecap="butt"/>
<line x1="0.0" y1="320.0" x2="1600.0" y2="320.0" stroke="white" stroke-width="1" opacity="0.4" stroke-linecap="butt"/>
<line x1="0.0" y1="480.0" x2="1600.0" y2="480.0" stroke="white" stroke-width="1" opacity="0.4" stroke-linecap="butt"/>
<line x1="0.0" y1="640.0" x2="1600.0" y2="640.0" stroke="white" stroke-width="1" opacity="0.4" stroke-linecap="butt"/>
<line x1="0.0" y1="800.0" x2="1600.0" y2="800.0" stroke="white" stroke-width="1" opacity="0.4" stroke-linecap="butt"/>
<line x1="0.0" y1="960.0" x2="1600.0" y2="960.0" stroke="white" stroke-width="1" opacity="0.4" stroke-linecap="butt"/>
<line x1="0.0" y1="1120.0" x2="1600.0" y2="1120.0" stroke="white" stroke-width="1" opacity="0.4" stroke-linecap="butt"/>
<line x1="0.0" y1="1280.0" x2="1600.0" y2="1280.0" stroke="white" stroke-width="1" opacity="0.4" stroke-linecap="butt"/>
<line x1="0.0" y1="1440.0" x2="1600.0" y2="1440.0" stroke="white" stroke-width="1" opacity="0.4" stroke-linecap="butt"/>
<line x1="0.0" y1="800.0" x2="1600.0" y2="800.0" stroke="yellow" stroke-width="2.5" opacity="1" stroke-linecap="butt"/>
<line x1="800.0" y1="0.0" x2="800.0" y2="1600.0" stroke="yellow" stroke-width="2.5" opacity="1" stroke-linecap="butt"/>
<polygon points="1564.0 816.0, 1604.0 800.0, 1564.0 784.0, 1572.0 800.0" fill="yellow"/><polygon points="816.0 36.0, 800.0 -4.0, 784.0 36.0, 800.0 28.0" fill="yellow"/><polyline points="0.0, 1128.38 0.67, 1145.74 1.33, 1162.63 2.0, 1179.06 2.67, 1195.02 3.33, 1210.53 4.0, 1225.6 4.67, 1240.24 5.33, 1254.45 6.0, 1268.24 6.67, 1281.63 7.33, 1294.6 8.0, 1307.19 8.67, 1319.38 9.33, 1331.2 10.0, 1342.64 10.67, 1353.72 11.33, 1364.43 12.0, 1374.8 12.67, 1384.82 13.33, 1394.5 14.0, 1403.85 14.67, 1412.87 15.33, 1421.57 16.0, 1429.96 16.67, 1438.05 17.33, 1445.83 18.0, 1453.31 18.67, 1460.51 19.33, 1467.43 20.0, 1474.07 20.67, 1480.43 21.33, 1486.53 22.0, 1492.37 22.67, 1497.96 23.33, 1503.29 24.0, 1508.38 24.67, 1513.23 25.33, 1517.85 26.0, 1522.23 26.67, 1526.39 27.33, 1530.33 28.0, 1534.06 28.67, 1537.57 29.33, 1540.88 30.0, 1543.99 30.67, 1546.89 31.33, 1549.61 32.0, 1552.14 32.67, 1554.48 33.33, 1556.64 34.0, 1558.63 34.67, 1560.45 35.33, 1562.09 36.0, 1563.57 36.67, 1564.89 37.33, 1566.06 38.0, 1567.07 38.67, 1567.93 39.33, 1568.65 40.0, 1569.22 40.67, 1569.65 41.33, 1569.95 42.0, 1570.12 42.67, 1570.16 43.33, 1570.07 44.0, 1569.85 44.67, 1569.52 45.33, 1569.07 46.0, 1568.51 46.67, 1567.84 47.33, 1567.06 48.0, 1566.17 48.67, 1565.18 49.33, 1564.1 50.0, 1562.91 50.67, 1561.63 51.33, 1560.26 52.0, 1558.8 52.67, 1557.26 53.33, 1555.63 54.0, 1553.91 54.67, 1552.12 55.33, 1550.25 56.0, 1548.31 56.67, 1546.3 57.33, 1544.21 58.0, 1542.05 58.67, 1539.83 59.33, 1537.55 60.0, 1535.2 60.67, 1532.79 61.33, 1530.33 62.0, 1527.8 62.67, 1525.23 63.33, 1522.6 64.0, 1519.92 64.67, 1517.19 65.33, 1514.42 66.0, 1511.59 66.67, 1508.73 67.33, 1505.82 68.0, 1502.87 68.67, 1499.88 69.33, 1496.86 70.0, 1493.8 70.67, 1490.7 71.33, 1487.57 72.0, 1484.41 72.67, 1481.22 73.33, 1478.0 74.0, 1474.75 74.67, 1471.48 75.33, 1468.18 76.0, 1464.85 76.67, 1461.51 77.33, 1458.14 78.0, 1454.75 78.67, 1451.34 79.33, 1447.92 80.0, 1444.47 80.67, 1441.02 81.33, 1437.54 82.0, 1434.05 82.67, 1430.55 83.33, 1427.04 84.0, 1423.52 84.67, 1419.98 85.33, 1416.44 86.0, 1412.89 86.67, 1409.33 87.33, 1405.76 88.0, 1402.19 88.67, 1398.62 89.33, 1395.03 90.0, 1391.45 90.67, 1387.86 91.33, 1384.27 92.0, 1380.68 92.67, 1377.09 93.33, 1373.5 94.0, 1369.91 94.67, 1366.32 95.33, 1362.73 96.0, 1359.15 96.67, 1355.57 97.33, 1351.99 98.0, 1348.41 98.67, 1344.85 99.33, 1341.28 100.0, 1337.72 100.67, 1334.17 101.33, 1330.63 102.0, 1327.09 102.67, 1323.56 103.33, 1320.04 104.0, 1316.52 104.67, 1313.02 105.33, 1309.52 106.0, 1306.04 106.67, 1302.56 107.33, 1299.1 108.0, 1295.64 108.67, 1292.2 109.33, 1288.77 110.0, 1285.35 110.67, 1281.94 111.33, 1278.54 112.0, 1275.16 112.67, 1271.79 113.33, 1268.43 114.0, 1265.09 114.67, 1261.76 115.33, 1258.45 116.0, 1255.14 116.67, 1251.86 117.33, 1248.58 118.0, 1245.33 118.67, 1242.08 119.33, 1238.85 120.0, 1235.64 120.67, 1232.44 121.33, 1229.26 122.0, 1226.1 122.67, 1222.95 123.33, 1219.81 124.0, 1216.7 124.67, 1213.59 125.33, 1210.51 126.0, 1207.44 126.67, 1204.39 127.33, 1201.35 128.0, 1198.33 128.67, 1195.33 129.33, 1192.35 130.0, 1189.38 130.67, 1186.43 131.33, 1183.49 132.0, 1180.58 132.67, 1177.68 133.33, 1174.79 134.0, 1171.93 134.67, 1169.08 135.33, 1166.25 136.0, 1163.44 136.67, 1160.64 137.33, 1157.86 138.0, 1155.1 138.67, 1152.36 139.33, 1149.63 140.0, 1146.92 140.67, 1144.23 141.33, 1141.55 142.0, 1138.9 142.67, 1136.26 143.33, 1133.63 144.0, 1131.03 144.67, 1128.44 145.33, 1125.87 146.0, 1123.31 146.67, 1120.77 147.33, 1118.25 148.0, 1115.75 148.67, 1113.26 149.33, 1110.79 150.0, 1108.34 150.67, 1105.9 151.33, 1103.48 152.0, 1101.08 152.67, 1098.69 153.33, 1096.32 154.0, 1093.97 154.67, 1091.63 155.33, 1089.31 156.0, 1087.0 156.67, 1084.71 157.33, 1082.44 158.0, 1080.18 158.67, 1077.94 159.33, 1075.72 160.0, 1073.5 160.67, 1071.31 161.33, 1069.13 162.0, 1066.97 162.67, 1064.82 163.33, 1062.68 164.0, 1060.56 164.67, 1058.46 165.33, 1056.37 166.0, 1054.3 166.67, 1052.24 167.33, 1050.19 168.0, 1048.16 168.67, 1046.14 169.33, 1044.14 170.0, 1042.15 170.67, 1040.18 171.33, 1038.22 172.0, 1036.27 172.67, 1034.34 173.33, 1032.42 174.0, 1030.52 174.67, 1028.62 175.33, 1026.74 176.0, 1024.88 176.67, 1023.03 177.33, 1021.18 178.0, 1019.36 178.67, 1017.54 179.33, 1015.74 180.0, 1013.95 180.67, 1012.17 181.33, 1010.41 182.0, 1008.65 182.67, 1006.91 183.33, 1005.18 184.0, 1003.47 184.67, 1001.76 185.33, 1000.07 186.0, 998.38 186.67, 996.71 187.33, 995.05 188.0, 993.4 188.67, 991.76 189.33, 990.13 190.0, 988.52 190.67, 986.91 191.33, 985.32 192.0, 983.73 192.67, 982.15 193.33, 980.59 194.0, 979.03 194.67, 977.49 195.33, 975.95 196.0, 974.43 196.67, 972.91 197.33, 971.41 198.0, 969.91 198.67, 968.42 199.33, 966.94 200.0, 965.48 200.67, 964.02 201.33, 962.56 202.0, 961.12 202.67, 959.69 203.33, 958.26 204.0, 956.85 204.67, 955.44 205.33, 954.04 206.0, 952.65 206.67, 951.26 207.33, 949.89 208.0, 948.52 208.67, 947.16 209.33, 945.8 210.0, 944.46 210.67, 943.12 211.33, 941.79 212.0, 940.47 212.67, 939.15 213.33, 937.85 214.0, 936.54 214.67, 935.25 215.33, 933.96 216.0, 932.68 216.67, 931.41 217.33, 930.14 218.0, 928.88 218.67, 927.63 219.33, 926.38 220.0, 925.14 220.67, 923.9 221.33, 922.67 222.0, 921.45 222.67, 920.23 223.33, 919.02 224.0, 917.81 224.67, 916.61 225.33, 915.42 226.0, 914.23 226.67, 913.05 227.33, 911.87 228.0, 910.7 228.67, 909.53 229.33, 908.37 230.0, 907.21 230.67, 906.06 231.33, 904.91 232.0, 903.77 232.67, 902.64 233.33, 901.5 234.0, 900.38 234.67, 899.26 235.33, 898.14 236.0, 897.02 236.67, 895.92 237.33, 894.81 238.0, 893.71 238.67, 892.62 239.33, 891.53 240.0, 890.44 240.67, 889.36 241.33, 888.28 242.0, 887.2 242.67, 886.13 243.33, 885.07 244.0, 884.0 244.67, 882.95 245.33, 881.89 246.0, 880.84 246.67, 879.79 247.33, 878.75 248.0, 877.71 248.67, 876.68 249.33, 875.64 250.0, 874.61 250.67, 873.59 251.33, 872.57 252.0, 871.55 252.67, 870.53 253.33, 869.52 254.0, 868.51 254.67, 867.51 255.33, 866.51 256.0, 865.51 256.67, 864.51 257.33, 863.52 258.0, 862.53 258.67, 861.55 259.33, 860.56 260.0, 859.58 260.67, 858.61 261.33, 857.63 262.0, 856.66 262.67, 855.69 263.33, 854.73 264.0, 853.77 264.67, 852.81 265.33, 851.85 266.0, 850.9 266.67, 849.95 267.33, 849.0 268.0, 848.06 268.67, 847.11 269.33, 846.17 270.0, 845.24 270.67, 844.3 271.33, 843.37 272.0, 842.44 272.67, 841.52 273.33, 840.59 274.0, 839.67 274.67, 838.75 275.33, 837.84 276.0, 836.93 276.67, 836.02 277.33, 835.11 278.0, 834.2 278.67, 833.3 279.33, 832.4 280.0, 831.5 280.67, 830.61 281.33, 829.72 282.0, 828.83 282.67, 827.94 283.33, 827.06 284.0, 826.17 284.67, 825.29 285.33, 824.42 286.0, 823.54 286.67, 822.67 287.33, 821.8 288.0, 820.94 288.67, 820.07 289.33, 819.21 290.0, 818.35 290.67, 817.49 291.33, 816.64 292.0, 815.79 292.67, 814.94 293.33, 814.09 294.0, 813.25 294.67, 812.41 295.33, 811.57 296.0, 810.74 296.67, 809.9 297.33, 809.07 298.0, 808.24 298.67, 807.42 299.33, 806.6 300.0, 805.78 300.67, 804.96 301.33, 804.14 302.0, 803.33 302.67, 802.52 303.33, 801.72 304.0, 800.91 304.67, 800.11 305.33, 799.31 306.0, 798.52 306.67, 797.73 307.33, 796.94 308.0, 796.15 308.67, 795.36 309.33, 794.58 310.0, 793.8 310.67, 793.03 311.33, 792.25 312.0, 791.48 312.67, 790.72 313.33, 789.95 314.0, 789.19 314.67, 788.43 315.33, 787.68 316.0, 786.93 316.67, 786.18 317.33, 785.43 318.0, 784.69 318.67, 783.95 319.33, 783.21 320.0, 782.48 320.67, 781.75 321.33, 781.02 322.0, 780.3 322.67, 779.57 323.33, 778.86 324.0, 778.14 324.67, 777.43 325.33, 776.72 326.0, 776.02 326.67, 775.32 327.33, 774.62 328.0, 773.92 328.67, 773.23 329.33, 772.55 330.0, 771.86 330.67, 771.18 331.33, 770.5 332.0, 769.83 332.67, 769.16 333.33, 768.49 334.0, 767.83 334.67, 767.17 335.33, 766.51 336.0, 765.86 336.67, 765.21 337.33, 764.57 338.0, 763.93 338.67, 763.29 339.33, 762.65 340.0, 762.02 340.67, 761.4 341.33, 760.78 342.0, 760.16 342.67, 759.54 343.33, 758.93 344.0, 758.32 344.67, 757.72 345.33, 757.12 346.0, 756.53 346.67, 755.94 347.33, 755.35 348.0, 754.77 348.67, 754.19 349.33, 753.62 350.0, 753.04 350.67, 752.48 351.33, 751.92 352.0, 751.36 352.67, 750.81 353.33, 750.26 354.0, 749.71 354.67, 749.17 355.33, 748.63 356.0, 748.1 356.67, 747.57 357.33, 747.05 358.0, 746.53 358.67, 746.02 359.33, 745.51 360.0, 745.0 360.67, 744.5 361.33, 744.01 362.0, 743.51 362.67, 743.03 363.33, 742.54 364.0, 742.07 364.67, 741.59 365.33, 741.12 366.0, 740.66 366.67, 740.2 367.33, 739.75 368.0, 739.3 368.67, 738.85 369.33, 738.41 370.0, 737.98 370.67, 737.55 371.33, 737.12 372.0, 736.7 372.67, 736.28 373.33, 735.87 374.0, 735.47 374.67, 735.07 375.33, 734.67 376.0, 734.28 376.67, 733.89 377.33, 733.51 378.0, 733.14 378.67, 732.76 379.33, 732.4 380.0, 732.04 380.67, 731.68 381.33, 731.33 382.0, 730.99 382.67, 730.65 383.33, 730.31 384.0, 729.98 384.67, 729.66 385.33, 729.34 386.0, 729.02 386.67, 728.71 387.33, 728.41 388.0, 728.11 388.67, 727.82 389.33, 727.53 390.0, 727.25 390.67, 726.97 391.33, 726.7 392.0, 726.43 392.67, 726.17 393.33, 725.92 394.0, 725.67 394.67, 725.42 395.33, 725.18 396.0, 724.95 396.67, 724.72 397.33, 724.5 398.0, 724.28 398.67, 724.07 399.33, 723.86 400.0, 723.66 400.67, 723.47 401.33, 723.28 402.0, 723.09 402.67, 722.92 403.33, 722.74 404.0, 722.57 404.67, 722.41 405.33, 722.26 406.0, 722.11 406.67, 721.96 407.33, 721.82 408.0, 721.69 408.67, 721.56 409.33, 721.44 410.0, 721.32 410.67, 721.21 411.33, 721.1 412.0, 721.0 412.67, 720.91 413.33, 720.82 414.0, 720.73 414.67, 720.66 415.33, 720.58 416.0, 720.52 416.67, 720.46 417.33, 720.4 418.0, 720.35 418.67, 720.31 419.33, 720.27 420.0, 720.24 420.67, 720.21 421.33, 720.19 422.0, 720.17 422.67, 720.16 423.33, 720.16 424.0, 720.16 424.67, 720.17 425.33, 720.18 426.0, 720.2 426.67, 720.22 427.33, 720.25 428.0, 720.29 428.67, 720.33 429.33, 720.38 430.0, 720.43 430.67, 720.49 431.33, 720.55 432.0, 720.62 432.67, 720.69 433.33, 720.77 434.0, 720.86 434.67, 720.95 435.33, 721.05 436.0, 721.15 436.67, 721.26 437.33, 721.37 438.0, 721.49 438.67, 721.62 439.33, 721.75 440.0, 721.88 440.67, 722.02 441.33, 722.17 442.0, 722.32 442.67, 722.48 443.33, 722.64 444.0, 722.81 444.67, 722.98 445.33, 723.16 446.0, 723.35 446.67, 723.54 447.33, 723.73 448.0, 723.93 448.67, 724.14 449.33, 724.35 450.0, 724.57 450.67, 724.79 451.33, 725.01 452.0, 725.25 452.67, 725.48 453.33, 725.73 454.0, 725.98 454.67, 726.23 455.33, 726.49 456.0, 726.75 456.67, 727.02 457.33, 727.29 458.0, 727.57 458.67, 727.85 459.33, 728.14 460.0, 728.44 460.67, 728.74 461.33, 729.04 462.0, 729.35 462.67, 729.66 463.33, 729.98 464.0, 730.3 464.67, 730.63 465.33, 730.97 466.0, 731.3 466.67, 731.65 467.33, 731.99 468.0, 732.35 468.67, 732.7 469.33, 733.07 470.0, 733.43 470.67, 733.8 471.33, 734.18 472.0, 734.56 472.67, 734.94 473.33, 735.33 474.0, 735.73 474.67, 736.13 475.33, 736.53 476.0, 736.94 476.67, 737.35 477.33, 737.76 478.0, 738.18 478.67, 738.61 479.33, 739.04 480.0, 739.47 480.67, 739.91 481.33, 740.35 482.0, 740.8 482.67, 741.25 483.33, 741.7 484.0, 742.16 484.67, 742.62 485.33, 743.09 486.0, 743.56 486.67, 744.03 487.33, 744.51 488.0, 744.99 488.67, 745.47 489.33, 745.96 490.0, 746.46 490.67, 746.95 491.33, 747.45 492.0, 747.96 492.67, 748.47 493.33, 748.98 494.0, 749.49 494.67, 750.01 495.33, 750.53 496.0, 751.06 496.67, 751.59 497.33, 752.12 498.0, 752.65 498.67, 753.19 499.33, 753.74 500.0, 754.28 500.67, 754.83 501.33, 755.38 502.0, 755.94 502.67, 756.49 503.33, 757.05 504.0, 757.62 504.67, 758.18 505.33, 758.75 506.0, 759.33 506.67, 759.9 507.33, 760.48 508.0, 761.06 508.67, 761.64 509.33, 762.23 510.0, 762.82 510.67, 763.41 511.33, 764.01 512.0, 764.6 512.67, 765.2 513.33, 765.8 514.0, 766.41 514.67, 767.01 515.33, 767.62 516.0, 768.23 516.67, 768.84 517.33, 769.46 518.0, 770.08 518.67, 770.7 519.33, 771.32 520.0, 771.94 520.67, 772.56 521.33, 773.19 522.0, 773.82 522.67, 774.45 523.33, 775.08 524.0, 775.72 524.67, 776.35 525.33, 776.99 526.0, 777.63 526.67, 778.27 527.33, 778.91 528.0, 779.56 528.67, 780.2 529.33, 780.85 530.0, 781.5 530.67, 782.15 531.33, 782.8 532.0, 783.45 532.67, 784.1 533.33, 784.76 534.0, 785.41 534.67, 786.07 535.33, 786.72 536.0, 787.38 536.67, 788.04 537.33, 788.7 538.0, 789.36 538.67, 790.02 539.33, 790.68 540.0, 791.35 540.67, 792.01 541.33, 792.67 542.0, 793.34 542.67, 794.0 543.33, 794.67 544.0, 795.33 544.67, 796.0 545.33, 796.66 546.0, 797.33 546.67, 797.99 547.33, 798.66 548.0, 799.33 548.67, 799.99 549.33, 800.66 550.0, 801.33 550.67, 801.99 551.33, 802.66 552.0, 803.33 552.67, 803.99 553.33, 804.66 554.0, 805.32 554.67, 805.99 555.33, 806.65 556.0, 807.32 556.67, 807.98 557.33, 808.64 558.0, 809.31 558.67, 809.97 559.33, 810.63 560.0, 811.29 560.67, 811.95 561.33, 812.61 562.0, 813.27 562.67, 813.92 563.33, 814.58 564.0, 815.23 564.67, 815.89 565.33, 816.54 566.0, 817.19 566.67, 817.84 567.33, 818.49 568.0, 819.14 568.67, 819.79 569.33, 820.43 570.0, 821.08 570.67, 821.72 571.33, 822.36 572.0, 823.0 572.67, 823.64 573.33, 824.27 574.0, 824.91 574.67, 825.54 575.33, 826.17 576.0, 826.8 576.67, 827.43 577.33, 828.05 578.0, 828.67 578.67, 829.3 579.33, 829.92 580.0, 830.53 580.67, 831.15 581.33, 831.76 582.0, 832.37 582.67, 832.98 583.33, 833.59 584.0, 834.19 584.67, 834.79 585.33, 835.39 586.0, 835.99 586.67, 836.58 587.33, 837.17 588.0, 837.76 588.67, 838.35 589.33, 838.93 590.0, 839.51 590.67, 840.09 591.33, 840.67 592.0, 841.24 592.67, 841.81 593.33, 842.38 594.0, 842.94 594.67, 843.5 595.33, 844.06 596.0, 844.61 596.67, 845.17 597.33, 845.72 598.0, 846.26 598.67, 846.8 599.33, 847.34 600.0, 847.88 600.67, 848.41 601.33, 848.94 602.0, 849.46 602.67, 849.99 603.33, 850.51 604.0, 851.02 604.67, 851.53 605.33, 852.04 606.0, 852.55 606.67, 853.05 607.33, 853.54 608.0, 854.04 608.67, 854.53 609.33, 855.01 610.0, 855.49 610.67, 855.97 611.33, 856.45 612.0, 856.92 612.67, 857.38 613.33, 857.85 614.0, 858.31 614.67, 858.76 615.33, 859.21 616.0, 859.66 616.67, 860.1 617.33, 860.54 618.0, 860.97 618.67, 861.4 619.33, 861.82 620.0, 862.25 620.67, 862.66 621.33, 863.07 622.0, 863.48 622.67, 863.89 623.33, 864.29 624.0, 864.68 624.67, 865.07 625.33, 865.46 626.0, 865.84 626.67, 866.21 627.33, 866.58 628.0, 866.95 628.67, 867.31 629.33, 867.67 630.0, 868.03 630.67, 868.37 631.33, 868.72 632.0, 869.06 632.67, 869.39 633.33, 869.72 634.0, 870.04 634.67, 870.36 635.33, 870.68 636.0, 870.99 636.67, 871.29 637.33, 871.59 638.0, 871.89 638.67, 872.18 639.33, 872.46 640.0, 872.74 640.67, 873.02 641.33, 873.29 642.0, 873.55 642.67, 873.81 643.33, 874.07 644.0, 874.32 644.67, 874.56 645.33, 874.8 646.0, 875.03 646.67, 875.26 647.33, 875.49 648.0, 875.7 648.67, 875.92 649.33, 876.12 650.0, 876.33 650.67, 876.52 651.33, 876.72 652.0, 876.9 652.67, 877.08 653.33, 877.26 654.0, 877.43 654.67, 877.59 655.33, 877.75 656.0, 877.91 656.67, 878.06 657.33, 878.2 658.0, 878.34 658.67, 878.47 659.33, 878.6 660.0, 878.72 660.67, 878.83 661.33, 878.95 662.0, 879.05 662.67, 879.15 663.33, 879.24 664.0, 879.33 664.67, 879.42 665.33, 879.49 666.0, 879.57 666.67, 879.63 667.33, 879.69 668.0, 879.75 668.67, 879.8 669.33, 879.84 670.0, 879.88 670.67, 879.92 671.33, 879.94 672.0, 879.97 672.67, 879.98 673.33, 879.99 674.0, 880.0 674.67, 880.0 675.33, 879.99 676.0, 879.98 676.67, 879.97 677.33, 879.94 678.0, 879.92 678.67, 879.88 679.33, 879.84 680.0, 879.8 680.67, 879.75 681.33, 879.69 682.0, 879.63 682.67, 879.57 683.33, 879.49 684.0, 879.42 684.67, 879.33 685.33, 879.25 686.0, 879.15 686.67, 879.05 687.33, 878.95 688.0, 878.84 688.67, 878.72 689.33, 878.6 690.0, 878.47 690.67, 878.34 691.33, 878.2 692.0, 878.06 692.67, 877.91 693.33, 877.76 694.0, 877.6 694.67, 877.43 695.33, 877.26 696.0, 877.08 696.67, 876.9 697.33, 876.72 698.0, 876.53 698.67, 876.33 699.33, 876.13 700.0, 875.92 700.67, 875.71 701.33, 875.49 702.0, 875.26 702.67, 875.04 703.33, 874.8 704.0, 874.56 704.67, 874.32 705.33, 874.07 706.0, 873.82 706.67, 873.56 707.33, 873.29 708.0, 873.02 708.67, 872.75 709.33, 872.47 710.0, 872.18 710.67, 871.89 711.33, 871.6 712.0, 871.3 712.67, 870.99 713.33, 870.68 714.0, 870.37 714.67, 870.05 715.33, 869.72 716.0, 869.39 716.67, 869.06 717.33, 868.72 718.0, 868.38 718.67, 868.03 719.33, 867.68 720.0, 867.32 720.67, 866.96 721.33, 866.59 722.0, 866.22 722.67, 865.84 723.33, 865.46 724.0, 865.07 724.67, 864.68 725.33, 864.29 726.0, 863.89 726.67, 863.49 727.33, 863.08 728.0, 862.67 728.67, 862.25 729.33, 861.83 730.0, 861.4 730.67, 860.97 731.33, 860.54 732.0, 860.1 732.67, 859.66 733.33, 859.21 734.0, 858.76 734.67, 858.31 735.33, 857.85 736.0, 857.39 736.67, 856.92 737.33, 856.45 738.0, 855.98 738.67, 855.5 739.33, 855.02 740.0, 854.53 740.67, 854.04 741.33, 853.55 742.0, 853.05 742.67, 852.55 743.33, 852.05 744.0, 851.54 744.67, 851.03 745.33, 850.51 746.0, 849.99 746.67, 849.47 747.33, 848.94 748.0, 848.41 748.67, 847.88 749.33, 847.35 750.0, 846.81 750.67, 846.27 751.33, 845.72 752.0, 845.17 752.67, 844.62 753.33, 844.06 754.0, 843.51 754.67, 842.95 755.33, 842.38 756.0, 841.81 756.67, 841.25 757.33, 840.67 758.0, 840.1 758.67, 839.52 759.33, 838.94 760.0, 838.35 760.67, 837.77 761.33, 837.18 762.0, 836.59 762.67, 835.99 763.33, 835.4 764.0, 834.8 764.67, 834.2 765.33, 833.59 766.0, 832.99 766.67, 832.38 767.33, 831.77 768.0, 831.15 768.67, 830.54 769.33, 829.92 770.0, 829.3 770.67, 828.68 771.33, 828.06 772.0, 827.43 772.67, 826.8 773.33, 826.18 774.0, 825.54 774.67, 824.91 775.33, 824.28 776.0, 823.64 776.67, 823.0 777.33, 822.36 778.0, 821.72 778.67, 821.08 779.33, 820.44 780.0, 819.79 780.67, 819.15 781.33, 818.5 782.0, 817.85 782.67, 817.2 783.33, 816.55 784.0, 815.89 784.67, 815.24 785.33, 814.58 786.0, 813.93 786.67, 813.27 787.33, 812.61 788.0, 811.96 788.67, 811.3 789.33, 810.64 790.0, 809.97 790.67, 809.31 791.33, 808.65 792.0, 807.99 792.67, 807.32 793.33, 806.66 794.0, 805.99 794.67, 805.33 795.33, 804.66 796.0, 804.0 796.67, 803.33 797.33, 802.67 798.0, 802.0 798.67, 801.33 799.33, 800.67 800.0, 800.0 800.67, 799.33 801.33, 798.67 802.0, 798.0 802.67, 797.33 803.33, 796.67 804.0, 796.0 804.67, 795.34 805.33, 794.67 806.0, 794.01 806.67, 793.34 807.33, 792.68 808.0, 792.01 808.67, 791.35 809.33, 790.69 810.0, 790.03 810.67, 789.36 811.33, 788.7 812.0, 788.04 812.67, 787.39 813.33, 786.73 814.0, 786.07 814.67, 785.42 815.33, 784.76 816.0, 784.11 816.67, 783.45 817.33, 782.8 818.0, 782.15 818.67, 781.5 819.33, 780.85 820.0, 780.21 820.67, 779.56 821.33, 778.92 822.0, 778.28 822.67, 777.64 823.33, 777.0 824.0, 776.36 824.67, 775.72 825.33, 775.09 826.0, 774.46 826.67, 773.82 827.33, 773.2 828.0, 772.57 828.67, 771.94 829.33, 771.32 830.0, 770.7 830.67, 770.08 831.33, 769.46 832.0, 768.85 832.67, 768.23 833.33, 767.62 834.0, 767.01 834.67, 766.41 835.33, 765.8 836.0, 765.2 836.67, 764.6 837.33, 764.01 838.0, 763.41 838.67, 762.82 839.33, 762.23 840.0, 761.65 840.67, 761.06 841.33, 760.48 842.0, 759.9 842.67, 759.33 843.33, 758.75 844.0, 758.19 844.67, 757.62 845.33, 757.05 846.0, 756.49 846.67, 755.94 847.33, 755.38 848.0, 754.83 848.67, 754.28 849.33, 753.73 850.0, 753.19 850.67, 752.65 851.33, 752.12 852.0, 751.59 852.67, 751.06 853.33, 750.53 854.0, 750.01 854.67, 749.49 855.33, 748.97 856.0, 748.46 856.67, 747.95 857.33, 747.45 858.0, 746.95 858.67, 746.45 859.33, 745.96 860.0, 745.47 860.67, 744.98 861.33, 744.5 862.0, 744.02 862.67, 743.55 863.33, 743.08 864.0, 742.61 864.67, 742.15 865.33, 741.69 866.0, 741.24 866.67, 740.79 867.33, 740.34 868.0, 739.9 868.67, 739.46 869.33, 739.03 870.0, 738.6 870.67, 738.17 871.33, 737.75 872.0, 737.33 872.67, 736.92 873.33, 736.51 874.0, 736.11 874.67, 735.71 875.33, 735.32 876.0, 734.93 876.67, 734.54 877.33, 734.16 878.0, 733.78 878.67, 733.41 879.33, 733.04 880.0, 732.68 880.67, 732.32 881.33, 731.97 882.0, 731.62 882.67, 731.28 883.33, 730.94 884.0, 730.61 884.67, 730.28 885.33, 729.95 886.0, 729.63 886.67, 729.32 887.33, 729.01 888.0, 728.7 888.67, 728.4 889.33, 728.11 890.0, 727.82 890.67, 727.53 891.33, 727.25 892.0, 726.98 892.67, 726.71 893.33, 726.44 894.0, 726.18 894.67, 725.93 895.33, 725.68 896.0, 725.44 896.67, 725.2 897.33, 724.96 898.0, 724.74 898.67, 724.51 899.33, 724.29 900.0, 724.08 900.67, 723.87 901.33, 723.67 902.0, 723.47 902.67, 723.28 903.33, 723.1 904.0, 722.92 904.67, 722.74 905.33, 722.57 906.0, 722.4 906.67, 722.24 907.33, 722.09 908.0, 721.94 908.67, 721.8 909.33, 721.66 910.0, 721.53 910.67, 721.4 911.33, 721.28 912.0, 721.16 912.67, 721.05 913.33, 720.95 914.0, 720.85 914.67, 720.75 915.33, 720.67 916.0, 720.58 916.67, 720.51 917.33, 720.43 918.0, 720.37 918.67, 720.31 919.33, 720.25 920.0, 720.2 920.67, 720.16 921.33, 720.12 922.0, 720.08 922.67, 720.06 923.33, 720.03 924.0, 720.02 924.67, 720.01 925.33, 720.0 926.0, 720.0 926.67, 720.01 927.33, 720.02 928.0, 720.03 928.67, 720.06 929.33, 720.08 930.0, 720.12 930.67, 720.16 931.33, 720.2 932.0, 720.25 932.67, 720.31 933.33, 720.37 934.0, 720.43 934.67, 720.51 935.33, 720.58 936.0, 720.67 936.67, 720.76 937.33, 720.85 938.0, 720.95 938.67, 721.05 939.33, 721.17 940.0, 721.28 940.67, 721.4 941.33, 721.53 942.0, 721.66 942.67, 721.8 943.33, 721.94 944.0, 722.09 944.67, 722.25 945.33, 722.41 946.0, 722.57 946.67, 722.74 947.33, 722.92 948.0, 723.1 948.67, 723.28 949.33, 723.48 950.0, 723.67 950.67, 723.88 951.33, 724.08 952.0, 724.3 952.67, 724.51 953.33, 724.74 954.0, 724.97 954.67, 725.2 955.33, 725.44 956.0, 725.68 956.67, 725.93 957.33, 726.19 958.0, 726.45 958.67, 726.71 959.33, 726.98 960.0, 727.26 960.67, 727.54 961.33, 727.82 962.0, 728.11 962.67, 728.41 963.33, 728.71 964.0, 729.01 964.67, 729.32 965.33, 729.64 966.0, 729.96 966.67, 730.28 967.33, 730.61 968.0, 730.94 968.67, 731.28 969.33, 731.63 970.0, 731.97 970.67, 732.33 971.33, 732.69 972.0, 733.05 972.67, 733.42 973.33, 733.79 974.0, 734.16 974.67, 734.54 975.33, 734.93 976.0, 735.32 976.67, 735.71 977.33, 736.11 978.0, 736.52 978.67, 736.93 979.33, 737.34 980.0, 737.75 980.67, 738.18 981.33, 738.6 982.0, 739.03 982.67, 739.46 983.33, 739.9 984.0, 740.34 984.67, 740.79 985.33, 741.24 986.0, 741.69 986.67, 742.15 987.33, 742.62 988.0, 743.08 988.67, 743.55 989.33, 744.03 990.0, 744.51 990.67, 744.99 991.33, 745.47 992.0, 745.96 992.67, 746.46 993.33, 746.95 994.0, 747.45 994.67, 747.96 995.33, 748.47 996.0, 748.98 996.67, 749.49 997.33, 750.01 998.0, 750.54 998.67, 751.06 999.33, 751.59 1000.0, 752.12 1000.67, 752.66 1001.33, 753.2 1002.0, 753.74 1002.67, 754.28 1003.33, 754.83 1004.0, 755.39 1004.67, 755.94 1005.33, 756.5 1006.0, 757.06 1006.67, 757.62 1007.33, 758.19 1008.0, 758.76 1008.67, 759.33 1009.33, 759.91 1010.0, 760.49 1010.67, 761.07 1011.33, 761.65 1012.0, 762.24 1012.67, 762.83 1013.33, 763.42 1014.0, 764.01 1014.67, 764.61 1015.33, 765.21 1016.0, 765.81 1016.67, 766.41 1017.33, 767.02 1018.0, 767.63 1018.67, 768.24 1019.33, 768.85 1020.0, 769.47 1020.67, 770.08 1021.33, 770.7 1022.0, 771.33 1022.67, 771.95 1023.33, 772.57 1024.0, 773.2 1024.67, 773.83 1025.33, 774.46 1026.0, 775.09 1026.67, 775.73 1027.33, 776.36 1028.0, 777.0 1028.67, 777.64 1029.33, 778.28 1030.0, 778.92 1030.67, 779.57 1031.33, 780.21 1032.0, 780.86 1032.67, 781.51 1033.33, 782.16 1034.0, 782.81 1034.67, 783.46 1035.33, 784.11 1036.0, 784.77 1036.67, 785.42 1037.33, 786.08 1038.0, 786.73 1038.67, 787.39 1039.33, 788.05 1040.0, 788.71 1040.67, 789.37 1041.33, 790.03 1042.0, 790.69 1042.67, 791.36 1043.33, 792.02 1044.0, 792.68 1044.67, 793.35 1045.33, 794.01 1046.0, 794.68 1046.67, 795.34 1047.33, 796.01 1048.0, 796.67 1048.67, 797.34 1049.33, 798.01 1050.0, 798.67 1050.67, 799.34 1051.33, 800.01 1052.0, 800.67 1052.67, 801.34 1053.33, 802.01 1054.0, 802.67 1054.67, 803.34 1055.33, 804.0 1056.0, 804.67 1056.67, 805.33 1057.33, 806.0 1058.0, 806.66 1058.67, 807.33 1059.33, 807.99 1060.0, 808.65 1060.67, 809.32 1061.33, 809.98 1062.0, 810.64 1062.67, 811.3 1063.33, 811.96 1064.0, 812.62 1064.67, 813.28 1065.33, 813.93 1066.0, 814.59 1066.67, 815.24 1067.33, 815.9 1068.0, 816.55 1068.67, 817.2 1069.33, 817.85 1070.0, 818.5 1070.67, 819.15 1071.33, 819.8 1072.0, 820.44 1072.67, 821.09 1073.33, 821.73 1074.0, 822.37 1074.67, 823.01 1075.33, 823.65 1076.0, 824.28 1076.67, 824.92 1077.33, 825.55 1078.0, 826.18 1078.67, 826.81 1079.33, 827.44 1080.0, 828.06 1080.67, 828.68 1081.33, 829.3 1082.0, 829.92 1082.67, 830.54 1083.33, 831.16 1084.0, 831.77 1084.67, 832.38 1085.33, 832.99 1086.0, 833.59 1086.67, 834.2 1087.33, 834.8 1088.0, 835.4 1088.67, 835.99 1089.33, 836.59 1090.0, 837.18 1090.67, 837.77 1091.33, 838.36 1092.0, 838.94 1092.67, 839.52 1093.33, 840.1 1094.0, 840.67 1094.67, 841.25 1095.33, 841.82 1096.0, 842.38 1096.67, 842.95 1097.33, 843.51 1098.0, 844.06 1098.67, 844.62 1099.33, 845.17 1100.0, 845.72 1100.67, 846.26 1101.33, 846.81 1102.0, 847.35 1102.67, 847.88 1103.33, 848.41 1104.0, 848.94 1104.67, 849.47 1105.33, 849.99 1106.0, 850.51 1106.67, 851.02 1107.33, 851.53 1108.0, 852.04 1108.67, 852.55 1109.33, 853.05 1110.0, 853.54 1110.67, 854.04 1111.33, 854.53 1112.0, 855.01 1112.67, 855.49 1113.33, 855.97 1114.0, 856.44 1114.67, 856.91 1115.33, 857.38 1116.0, 857.84 1116.67, 858.3 1117.33, 858.75 1118.0, 859.2 1118.67, 859.65 1119.33, 860.09 1120.0, 860.53 1120.67, 860.96 1121.33, 861.39 1122.0, 861.82 1122.67, 862.24 1123.33, 862.65 1124.0, 863.06 1124.67, 863.47 1125.33, 863.87 1126.0, 864.27 1126.67, 864.67 1127.33, 865.06 1128.0, 865.44 1128.67, 865.82 1129.33, 866.2 1130.0, 866.57 1130.67, 866.93 1131.33, 867.3 1132.0, 867.65 1132.67, 868.01 1133.33, 868.35 1134.0, 868.7 1134.67, 869.03 1135.33, 869.37 1136.0, 869.7 1136.67, 870.02 1137.33, 870.34 1138.0, 870.65 1138.67, 870.96 1139.33, 871.26 1140.0, 871.56 1140.67, 871.86 1141.33, 872.15 1142.0, 872.43 1142.67, 872.71 1143.33, 872.98 1144.0, 873.25 1144.67, 873.51 1145.33, 873.77 1146.0, 874.02 1146.67, 874.27 1147.33, 874.52 1148.0, 874.75 1148.67, 874.99 1149.33, 875.21 1150.0, 875.43 1150.67, 875.65 1151.33, 875.86 1152.0, 876.07 1152.67, 876.27 1153.33, 876.46 1154.0, 876.65 1154.67, 876.84 1155.33, 877.02 1156.0, 877.19 1156.67, 877.36 1157.33, 877.52 1158.0, 877.68 1158.67, 877.83 1159.33, 877.98 1160.0, 878.12 1160.67, 878.25 1161.33, 878.38 1162.0, 878.51 1162.67, 878.63 1163.33, 878.74 1164.0, 878.85 1164.67, 878.95 1165.33, 879.05 1166.0, 879.14 1166.67, 879.23 1167.33, 879.31 1168.0, 879.38 1168.67, 879.45 1169.33, 879.51 1170.0, 879.57 1170.67, 879.62 1171.33, 879.67 1172.0, 879.71 1172.67, 879.75 1173.33, 879.78 1174.0, 879.8 1174.67, 879.82 1175.33, 879.83 1176.0, 879.84 1176.67, 879.84 1177.33, 879.84 1178.0, 879.83 1178.67, 879.81 1179.33, 879.79 1180.0, 879.76 1180.67, 879.73 1181.33, 879.69 1182.0, 879.65 1182.67, 879.6 1183.33, 879.54 1184.0, 879.48 1184.67, 879.42 1185.33, 879.34 1186.0, 879.27 1186.67, 879.18 1187.33, 879.09 1188.0, 879.0 1188.67, 878.9 1189.33, 878.79 1190.0, 878.68 1190.67, 878.56 1191.33, 878.44 1192.0, 878.31 1192.67, 878.18 1193.33, 878.04 1194.0, 877.89 1194.67, 877.74 1195.33, 877.59 1196.0, 877.43 1196.67, 877.26 1197.33, 877.08 1198.0, 876.91 1198.67, 876.72 1199.33, 876.53 1200.0, 876.34 1200.67, 876.14 1201.33, 875.93 1202.0, 875.72 1202.67, 875.5 1203.33, 875.28 1204.0, 875.05 1204.67, 874.82 1205.33, 874.58 1206.0, 874.33 1206.67, 874.08 1207.33, 873.83 1208.0, 873.57 1208.67, 873.3 1209.33, 873.03 1210.0, 872.75 1210.67, 872.47 1211.33, 872.18 1212.0, 871.89 1212.67, 871.59 1213.33, 871.29 1214.0, 870.98 1214.67, 870.66 1215.33, 870.34 1216.0, 870.02 1216.67, 869.69 1217.33, 869.35 1218.0, 869.01 1218.67, 868.67 1219.33, 868.32 1220.0, 867.96 1220.67, 867.6 1221.33, 867.24 1222.0, 866.86 1222.67, 866.49 1223.33, 866.11 1224.0, 865.72 1224.67, 865.33 1225.33, 864.93 1226.0, 864.53 1226.67, 864.13 1227.33, 863.72 1228.0, 863.3 1228.67, 862.88 1229.33, 862.45 1230.0, 862.02 1230.67, 861.59 1231.33, 861.15 1232.0, 860.7 1232.67, 860.25 1233.33, 859.8 1234.0, 859.34 1234.67, 858.88 1235.33, 858.41 1236.0, 857.93 1236.67, 857.46 1237.33, 856.97 1238.0, 856.49 1238.67, 855.99 1239.33, 855.5 1240.0, 855.0 1240.67, 854.49 1241.33, 853.98 1242.0, 853.47 1242.67, 852.95 1243.33, 852.43 1244.0, 851.9 1244.67, 851.37 1245.33, 850.83 1246.0, 850.29 1246.67, 849.74 1247.33, 849.19 1248.0, 848.64 1248.67, 848.08 1249.33, 847.52 1250.0, 846.96 1250.67, 846.38 1251.33, 845.81 1252.0, 845.23 1252.67, 844.65 1253.33, 844.06 1254.0, 843.47 1254.67, 842.88 1255.33, 842.28 1256.0, 841.68 1256.67, 841.07 1257.33, 840.46 1258.0, 839.84 1258.67, 839.22 1259.33, 838.6 1260.0, 837.98 1260.67, 837.35 1261.33, 836.71 1262.0, 836.07 1262.67, 835.43 1263.33, 834.79 1264.0, 834.14 1264.67, 833.49 1265.33, 832.83 1266.0, 832.17 1266.67, 831.51 1267.33, 830.84 1268.0, 830.17 1268.67, 829.5 1269.33, 828.82 1270.0, 828.14 1270.67, 827.45 1271.33, 826.77 1272.0, 826.08 1272.67, 825.38 1273.33, 824.68 1274.0, 823.98 1274.67, 823.28 1275.33, 822.57 1276.0, 821.86 1276.67, 821.14 1277.33, 820.43 1278.0, 819.7 1278.67, 818.98 1279.33, 818.25 1280.0, 817.52 1280.67, 816.79 1281.33, 816.05 1282.0, 815.31 1282.67, 814.57 1283.33, 813.82 1284.0, 813.07 1284.67, 812.32 1285.33, 811.57 1286.0, 810.81 1286.67, 810.05 1287.33, 809.28 1288.0, 808.52 1288.67, 807.75 1289.33, 806.97 1290.0, 806.2 1290.67, 805.42 1291.33, 804.64 1292.0, 803.85 1292.67, 803.06 1293.33, 802.27 1294.0, 801.48 1294.67, 800.69 1295.33, 799.89 1296.0, 799.09 1296.67, 798.28 1297.33, 797.48 1298.0, 796.67 1298.67, 795.86 1299.33, 795.04 1300.0, 794.22 1300.67, 793.4 1301.33, 792.58 1302.0, 791.76 1302.67, 790.93 1303.33, 790.1 1304.0, 789.26 1304.67, 788.43 1305.33, 787.59 1306.0, 786.75 1306.67, 785.91 1307.33, 785.06 1308.0, 784.21 1308.67, 783.36 1309.33, 782.51 1310.0, 781.65 1310.67, 780.79 1311.33, 779.93 1312.0, 779.06 1312.67, 778.2 1313.33, 777.33 1314.0, 776.46 1314.67, 775.58 1315.33, 774.71 1316.0, 773.83 1316.67, 772.94 1317.33, 772.06 1318.0, 771.17 1318.67, 770.28 1319.33, 769.39 1320.0, 768.5 1320.67, 767.6 1321.33, 766.7 1322.0, 765.8 1322.67, 764.89 1323.33, 763.98 1324.0, 763.07 1324.67, 762.16 1325.33, 761.25 1326.0, 760.33 1326.67, 759.41 1327.33, 758.48 1328.0, 757.56 1328.67, 756.63 1329.33, 755.7 1330.0, 754.76 1330.67, 753.83 1331.33, 752.89 1332.0, 751.94 1332.67, 751.0 1333.33, 750.05 1334.0, 749.1 1334.67, 748.15 1335.33, 747.19 1336.0, 746.23 1336.67, 745.27 1337.33, 744.31 1338.0, 743.34 1338.67, 742.37 1339.33, 741.39 1340.0, 740.42 1340.67, 739.44 1341.33, 738.45 1342.0, 737.47 1342.67, 736.48 1343.33, 735.49 1344.0, 734.49 1344.67, 733.49 1345.33, 732.49 1346.0, 731.49 1346.67, 730.48 1347.33, 729.47 1348.0, 728.45 1348.67, 727.43 1349.33, 726.41 1350.0, 725.39 1350.67, 724.36 1351.33, 723.32 1352.0, 722.29 1352.67, 721.25 1353.33, 720.21 1354.0, 719.16 1354.67, 718.11 1355.33, 717.05 1356.0, 716.0 1356.67, 714.93 1357.33, 713.87 1358.0, 712.8 1358.67, 711.72 1359.33, 710.64 1360.0, 709.56 1360.67, 708.47 1361.33, 707.38 1362.0, 706.29 1362.67, 705.19 1363.33, 704.08 1364.0, 702.98 1364.67, 701.86 1365.33, 700.74 1366.0, 699.62 1366.67, 698.5 1367.33, 697.36 1368.0, 696.23 1368.67, 695.09 1369.33, 693.94 1370.0, 692.79 1370.67, 691.63 1371.33, 690.47 1372.0, 689.3 1372.67, 688.13 1373.33, 686.95 1374.0, 685.77 1374.67, 684.58 1375.33, 683.39 1376.0, 682.19 1376.67, 680.98 1377.33, 679.77 1378.0, 678.55 1378.67, 677.33 1379.33, 676.1 1380.0, 674.86 1380.67, 673.62 1381.33, 672.37 1382.0, 671.12 1382.67, 669.86 1383.33, 668.59 1384.0, 667.32 1384.67, 666.04 1385.33, 664.75 1386.0, 663.46 1386.67, 662.15 1387.33, 660.85 1388.0, 659.53 1388.67, 658.21 1389.33, 656.88 1390.0, 655.54 1390.67, 654.2 1391.33, 652.84 1392.0, 651.48 1392.67, 650.11 1393.33, 648.74 1394.0, 647.35 1394.67, 645.96 1395.33, 644.56 1396.0, 643.15 1396.67, 641.74 1397.33, 640.31 1398.0, 638.88 1398.67, 637.44 1399.33, 635.98 1400.0, 634.52 1400.67, 633.06 1401.33, 631.58 1402.0, 630.09 1402.67, 628.59 1403.33, 627.09 1404.0, 625.57 1404.67, 624.05 1405.33, 622.51 1406.0, 620.97 1406.67, 619.41 1407.33, 617.85 1408.0, 616.27 1408.67, 614.68 1409.33, 613.09 1410.0, 611.48 1410.67, 609.87 1411.33, 608.24 1412.0, 606.6 1412.67, 604.95 1413.33, 603.29 1414.0, 601.62 1414.67, 599.93 1415.33, 598.24 1416.0, 596.53 1416.67, 594.82 1417.33, 593.09 1418.0, 591.35 1418.67, 589.59 1419.33, 587.83 1420.0, 586.05 1420.67, 584.26 1421.33, 582.46 1422.0, 580.64 1422.67, 578.82 1423.33, 576.97 1424.0, 575.12 1424.67, 573.26 1425.33, 571.38 1426.0, 569.48 1426.67, 567.58 1427.33, 565.66 1428.0, 563.73 1428.67, 561.78 1429.33, 559.82 1430.0, 557.85 1430.67, 555.86 1431.33, 553.86 1432.0, 551.84 1432.67, 549.81 1433.33, 547.76 1434.0, 545.7 1434.67, 543.63 1435.33, 541.54 1436.0, 539.44 1436.67, 537.32 1437.33, 535.18 1438.0, 533.03 1438.67, 530.87 1439.33, 528.69 1440.0, 526.5 1440.67, 524.28 1441.33, 522.06 1442.0, 519.82 1442.67, 517.56 1443.33, 515.29 1444.0, 513.0 1444.67, 510.69 1445.33, 508.37 1446.0, 506.03 1446.67, 503.68 1447.33, 501.31 1448.0, 498.92 1448.67, 496.52 1449.33, 494.1 1450.0, 491.66 1450.67, 489.21 1451.33, 486.74 1452.0, 484.25 1452.67, 481.75 1453.33, 479.23 1454.0, 476.69 1454.67, 474.13 1455.33, 471.56 1456.0, 468.97 1456.67, 466.37 1457.33, 463.74 1458.0, 461.1 1458.67, 458.45 1459.33, 455.77 1460.0, 453.08 1460.67, 450.37 1461.33, 447.64 1462.0, 444.9 1462.67, 442.14 1463.33, 439.36 1464.0, 436.56 1464.67, 433.75 1465.33, 430.92 1466.0, 428.07 1466.67, 425.21 1467.33, 422.32 1468.0, 419.42 1468.67, 416.51 1469.33, 413.57 1470.0, 410.62 1470.67, 407.65 1471.33, 404.67 1472.0, 401.67 1472.67, 398.65 1473.33, 395.61 1474.0, 392.56 1474.67, 389.49 1475.33, 386.41 1476.0, 383.3 1476.67, 380.19 1477.33, 377.05 1478.0, 373.9 1478.67, 370.74 1479.33, 367.56 1480.0, 364.36 1480.67, 361.15 1481.33, 357.92 1482.0, 354.67 1482.67, 351.42 1483.33, 348.14 1484.0, 344.86 1484.67, 341.55 1485.33, 338.24 1486.0, 334.91 1486.67, 331.57 1487.33, 328.21 1488.0, 324.84 1488.67, 321.46 1489.33, 318.06 1490.0, 314.65 1490.67, 311.23 1491.33, 307.8 1492.0, 304.36 1492.67, 300.9 1493.33, 297.44 1494.0, 293.96 1494.67, 290.48 1495.33, 286.98 1496.0, 283.48 1496.67, 279.96 1497.33, 276.44 1498.0, 272.91 1498.67, 269.37 1499.33, 265.83 1500.0, 262.28 1500.67, 258.72 1501.33, 255.15 1502.0, 251.59 1502.67, 248.01 1503.33, 244.43 1504.0, 240.85 1504.67, 237.27 1505.33, 233.68 1506.0, 230.09 1506.67, 226.5 1507.33, 222.91 1508.0, 219.32 1508.67, 215.73 1509.33, 212.14 1510.0, 208.55 1510.67, 204.97 1511.33, 201.38 1512.0, 197.81 1512.67, 194.24 1513.33, 190.67 1514.0, 187.11 1514.67, 183.56 1515.33, 180.02 1516.0, 176.48 1516.67, 172.96 1517.33, 169.45 1518.0, 165.95 1518.67, 162.46 1519.33, 158.98 1520.0, 155.53 1520.67, 152.08 1521.33, 148.66 1522.0, 145.25 1522.67, 141.86 1523.33, 138.49 1524.0, 135.15 1524.67, 131.82 1525.33, 128.52 1526.0, 125.25 1526.67, 122.0 1527.33, 118.78 1528.0, 115.59 1528.67, 112.43 1529.33, 109.3 1530.0, 106.2 1530.67, 103.14 1531.33, 100.12 1532.0, 97.13 1532.67, 94.18 1533.33, 91.27 1534.0, 88.41 1534.67, 85.58 1535.33, 82.81 1536.0, 80.08 1536.67, 77.4 1537.33, 74.77 1538.0, 72.2 1538.67, 69.67 1539.33, 67.21 1540.0, 64.8 1540.67, 62.45 1541.33, 60.17 1542.0, 57.95 1542.67, 55.79 1543.33, 53.7 1544.0, 51.69 1544.67, 49.75 1545.33, 47.88 1546.0, 46.09 1546.67, 44.37 1547.33, 42.74 1548.0, 41.2 1548.67, 39.74 1549.33, 38.37 1550.0, 37.09 1550.67, 35.9 1551.33, 34.82 1552.0, 33.83 1552.67, 32.94 1553.33, 32.16 1554.0, 31.49 1554.67, 30.93 1555.33, 30.48 1556.0, 30.15 1556.67, 29.93 1557.33, 29.84 1558.0, 29.88 1558.67, 30.05 1559.33, 30.35 1560.0, 30.78 1560.67, 31.35 1561.33, 32.07 1562.0, 32.93 1562.67, 33.94 1563.33, 35.11 1564.0, 36.43 1564.67, 37.91 1565.33, 39.55 1566.0, 41.37 1566.67, 43.36 1567.33, 45.52 1568.0, 47.86 1568.67, 50.39 1569.33, 53.11 1570.0, 56.01 1570.67, 59.12 1571.33, 62.43 1572.0, 65.94 1572.67, 69.67 1573.33, 73.61 1574.0, 77.77 1574.67, 82.15 1575.33, 86.77 1576.0, 91.62 1576.67, 96.71 1577.33, 102.04 1578.0, 107.63 1578.67, 113.47 1579.33, 119.57 1580.0, 125.93 1580.67, 132.57 1581.33, 139.49 1582.0, 146.69 1582.67, 154.17 1583.33, 161.95 1584.0, 170.04 1584.67, 178.43 1585.33, 187.13 1586.0, 196.15 1586.67, 205.5 1587.33, 215.18 1588.0, 225.2 1588.67, 235.57 1589.33, 246.28 1590.0, 257.36 1590.67, 268.8 1591.33, 280.62 1592.0, 292.81 1592.67, 305.4 1593.33, 318.37 1594.0, 331.76 1594.67, 345.55 1595.33, 359.76 1596.0, 374.4 1596.67, 389.47 1597.33, 404.98 1598.0, 420.94 1598.67, 437.37 1599.33, 454.26 1600.0, 471.62 " fill="none" stroke="white" stroke-width="1.5" stroke-linejoin="round" stroke-opacity="1"/>

 </svg>