<svg version="1.1" 
 baseProfile="full" 
 width="1600" 
 height="1600" 
 xmlns="http://www.w3.org/2000/svg">
<rect x="0.0" y="0.0" width="1600" height="1600" fill="black" stroke="black" stroke-width="0" opacity="1"/>
<line x1="0.0" y1="0.0" x2="0.0" y2="1600.0" stroke="white" stroke-width="1" opacity="0.4" stroke-linecap="butt"/>
<line x1="160.0" y1="0.0" x2="160.0" y2="1600.0" stroke="white" stroke-width="1" opacity="0.4" stroke-linecap="butt"/>
<line x1="320.0" y1="0.0" x2="320.0" y2="1600.0" stroke="white" stroke-width="1" opacity="0.4" stroke-linecap="butt"/>
<line x1="480.0" y1="0.0" x2="480.0" y2="1600.0" stroke="white" stroke-width="1" opacity="0.4" stroke-linecap="butt"/>
<line x1="640.0" y1="0.0" x2="640.0" y2="1600.0" stroke="white" stroke-width="1" opacity="0.4" stroke-linecap="butt"/>
<line x1="800.0" y1="0.0" x2="800.0" y2="1600.0" stroke="white" stroke-width="1" opacity="0.4" stroke-linecap="butt"/>
<line x1="960.0" y1="0.0" x2="960.0" y2="1600.0" stroke="white" stroke-width="1" opacity="0.4" stroke-linecap="butt"/>
<line x1="1120.0" y1="0.0" x2="1120.0" y2="1600.0" stroke="white" stroke-width="1" opacity="0.4" stroke-linecap="butt"/>
<line x1="1280.0" y1="0.0" x2="1280.0" y2="1600.0" stroke="white" stroke-width="1" opacity="0.4" stroke-linecap="butt"/>
<line x1="1440.0" y1="0.0" x2="1440.0" y2="1600.0" stroke="white" stroke-width="1" opacity="0.4" stroke-linecap="butt"/>
<line x1="0.0" y1="0.0" x2="1600.0" y2="0.0" stroke="white" stroke-width="1" opacity="0.4" stroke-linecap="butt"/>
<line x1="0.0" y1="160.0" x2="1600.0" y2="160.0" stroke="white" stroke-width="1" opacity="0.4" stroke-linecap="butt"/>
<line x1="0.0" y1="320.0" x2="1600.0" y2="320.0" stroke="white" stroke-width="1" opacity="0.4" stroke-linecap="butt"/>
<line x1="0.0" y1="480.0" x2="1600.0" y2="480.0" stroke="white" stroke-width="1" opacity="0.4" stroke-linecap="butt"/>
<line x1="0.0" y1="640.0" x2="1600.0" y2="640.0" stroke="white" stroke-width="1" opacity="0.4" stroke-linecap="butt"/>
<line x1="0.0" y1="800.0" x2="1600.0" y2="800.0" stroke="white" stroke-width="1" opacity="0.4" stroke-linecap="butt"/>
<line x1="0.0" y1="960.0" x2="1600.0" y2="960.0" stroke="white" stroke-width="1" opacity="0.4" stroke-linecap="butt"/>
<line x1="0.0" y1="1120.0" x2="1600.0" y2="1120.0" stroke="white" stroke-width="1" opacity="0.4" stroke-linecap="butt"/>
<line x1="0.0" y1="1280.0" x2="1600.0" y2="1280.0" stroke="white" stroke-width="1" opacity="0.4" stroke-linecap="butt"/>
<line x1="0.0" y1="1440.0" x2="1600.0" y2="1440.0" stroke="white" stroke-width="1" opacity="0.4" stroke-linecap="butt"/>
<line x1="0.0" y1="800.0" x2="1600.0" y2="800.0" stroke="yellow" stroke-width="2.5" opacity="1" stroke-linecap="butt"/>
<line x1="800.0" y1="0.0" x2="800.0" y2="1600.0" stroke="yellow" stroke-width="2.5" opacity="1" stroke-linecap="butt"/>
<polygon points="1564.0 816.0, 1604.0 800.0, 1564.0 784.0, 1572.0 800.0" fill="yellow"/><polygon points="816.0 36.0, 800.0 -4.0, 784.0 36.0, 800.0 28.0" fill="yellow"/><polyline points="0.0, 363.66 0.67, 390.53 1.33, 416.81 2.0, 442.52 2.67, 467.66 3.33, 492.24 4.0, 516.28 4.67, 539.77 5.33, 562.74 6.0, 585.18 6.67, 607.12 7.33, 628.55 8.0, 649.49 8.67, 669.94 9.33, 689.91 10.0, 709.42 10.67, 728.46 11.33, 747.05 12.0, 765.2 12.67, 782.91 13.33, 800.19 14.0, 817.05 14.67, 833.49 15.33, 849.53 16.0, 865.17 16.67, 880.41 17.33, 895.27 18.0, 909.75 18.67, 923.86 19.33, 937.6 20.0, 950.99 20.67, 964.02 21.33, 976.71 22.0, 989.05 22.67, 1001.07 23.33, 1012.76 24.0, 1024.12 24.67, 1035.18 25.33, 1045.92 26.0, 1056.36 26.67, 1066.5 27.33, 1076.36 28.0, 1085.92 28.67, 1095.2 29.33, 1104.21 30.0, 1112.95 30.67, 1121.42 31.33, 1129.64 32.0, 1137.6 32.67, 1145.3 33.33, 1152.77 34.0, 1159.99 34.67, 1166.98 35.33, 1173.73 36.0, 1180.26 36.67, 1186.57 37.33, 1192.66 38.0, 1198.54 38.67, 1204.21 39.33, 1209.67 40.0, 1214.93 40.67, 1220.0 41.33, 1224.88 42.0, 1229.56 42.67, 1234.06 43.33, 1238.39 44.0, 1242.53 44.67, 1246.5 45.33, 1250.3 46.0, 1253.94 46.67, 1257.41 47.33, 1260.73 48.0, 1263.89 48.67, 1266.89 49.33, 1269.75 50.0, 1272.46 50.67, 1275.03 51.33, 1277.46 52.0, 1279.76 52.67, 1281.92 53.33, 1283.95 54.0, 1285.85 54.67, 1287.63 55.33, 1289.29 56.0, 1290.83 56.67, 1292.25 57.33, 1293.56 58.0, 1294.76 58.67, 1295.85 59.33, 1296.84 60.0, 1297.72 60.67, 1298.5 61.33, 1299.19 62.0, 1299.77 62.67, 1300.27 63.33, 1300.67 64.0, 1300.98 64.67, 1301.21 65.33, 1301.35 66.0, 1301.41 66.67, 1301.39 67.33, 1301.3 68.0, 1301.12 68.67, 1300.87 69.33, 1300.55 70.0, 1300.16 70.67, 1299.7 71.33, 1299.17 72.0, 1298.58 72.67, 1297.92 73.33, 1297.21 74.0, 1296.43 74.67, 1295.6 75.33, 1294.71 76.0, 1293.76 76.67, 1292.76 77.33, 1291.71 78.0, 1290.61 78.67, 1289.46 79.33, 1288.27 80.0, 1287.03 80.67, 1285.74 81.33, 1284.41 82.0, 1283.04 82.67, 1281.63 83.33, 1280.18 84.0, 1278.69 84.67, 1277.17 85.33, 1275.61 86.0, 1274.01 86.67, 1272.39 87.33, 1270.73 88.0, 1269.04 88.67, 1267.32 89.33, 1265.57 90.0, 1263.8 90.67, 1262.0 91.33, 1260.17 92.0, 1258.32 92.67, 1256.45 93.33, 1254.55 94.0, 1252.63 94.67, 1250.69 95.33, 1248.73 96.0, 1246.76 96.67, 1244.76 97.33, 1242.75 98.0, 1240.72 98.67, 1238.67 99.33, 1236.61 100.0, 1234.54 100.67, 1232.45 101.33, 1230.35 102.0, 1228.24 102.67, 1226.11 103.33, 1223.98 104.0, 1221.84 104.67, 1219.68 105.33, 1217.52 106.0, 1215.35 106.67, 1213.17 107.33, 1210.99 108.0, 1208.8 108.67, 1206.6 109.33, 1204.4 110.0, 1202.19 110.67, 1199.98 111.33, 1197.77 112.0, 1195.55 112.67, 1193.33 113.33, 1191.11 114.0, 1188.88 114.67, 1186.65 115.33, 1184.43 116.0, 1182.2 116.67, 1179.97 117.33, 1177.74 118.0, 1175.52 118.67, 1173.29 119.33, 1171.06 120.0, 1168.84 120.67, 1166.62 121.33, 1164.4 122.0, 1162.18 122.67, 1159.97 123.33, 1157.76 124.0, 1155.55 124.67, 1153.35 125.33, 1151.15 126.0, 1148.95 126.67, 1146.76 127.33, 1144.58 128.0, 1142.4 128.67, 1140.22 129.33, 1138.05 130.0, 1135.89 130.67, 1133.73 131.33, 1131.58 132.0, 1129.43 132.67, 1127.29 133.33, 1125.16 134.0, 1123.03 134.67, 1120.91 135.33, 1118.8 136.0, 1116.7 136.67, 1114.6 137.33, 1112.51 138.0, 1110.43 138.67, 1108.36 139.33, 1106.29 140.0, 1104.23 140.67, 1102.18 141.33, 1100.14 142.0, 1098.11 142.67, 1096.08 143.33, 1094.07 144.0, 1092.06 144.67, 1090.06 145.33, 1088.07 146.0, 1086.09 146.67, 1084.12 147.33, 1082.15 148.0, 1080.2 148.67, 1078.25 149.33, 1076.32 150.0, 1074.39 150.67, 1072.47 151.33, 1070.56 152.0, 1068.66 152.67, 1066.77 153.33, 1064.89 154.0, 1063.02 154.67, 1061.16 155.33, 1059.3 156.0, 1057.46 156.67, 1055.63 157.33, 1053.8 158.0, 1051.99 158.67, 1050.18 159.33, 1048.39 160.0, 1046.6 160.67, 1044.82 161.33, 1043.05 162.0, 1041.29 162.67, 1039.54 163.33, 1037.8 164.0, 1036.07 164.67, 1034.35 165.33, 1032.64 166.0, 1030.94 166.67, 1029.24 167.33, 1027.56 168.0, 1025.88 168.67, 1024.22 169.33, 1022.56 170.0, 1020.91 170.67, 1019.27 171.33, 1017.64 172.0, 1016.02 172.67, 1014.41 173.33, 1012.8 174.0, 1011.21 174.67, 1009.62 175.33, 1008.04 176.0, 1006.47 176.67, 1004.91 177.33, 1003.36 178.0, 1001.82 178.67, 1000.28 179.33, 998.76 180.0, 997.24 180.67, 995.73 181.33, 994.23 182.0, 992.73 182.67, 991.25 183.33, 989.77 184.0, 988.3 184.67, 986.84 185.33, 985.39 186.0, 983.94 186.67, 982.5 187.33, 981.07 188.0, 979.65 188.67, 978.23 189.33, 976.82 190.0, 975.42 190.67, 974.03 191.33, 972.64 192.0, 971.26 192.67, 969.89 193.33, 968.53 194.0, 967.17 194.67, 965.82 195.33, 964.48 196.0, 963.14 196.67, 961.81 197.33, 960.49 198.0, 959.17 198.67, 957.86 199.33, 956.55 200.0, 955.26 200.67, 953.97 201.33, 952.68 202.0, 951.4 202.67, 950.13 203.33, 948.86 204.0, 947.6 204.67, 946.35 205.33, 945.1 206.0, 943.86 206.67, 942.62 207.33, 941.39 208.0, 940.16 208.67, 938.94 209.33, 937.73 210.0, 936.52 210.67, 935.31 211.33, 934.12 212.0, 932.92 212.67, 931.73 213.33, 930.55 214.0, 929.37 214.67, 928.2 215.33, 927.03 216.0, 925.87 216.67, 924.71 217.33, 923.56 218.0, 922.41 218.67, 921.27 219.33, 920.13 220.0, 918.99 220.67, 917.86 221.33, 916.73 222.0, 915.61 222.67, 914.5 223.33, 913.38 224.0, 912.27 224.67, 911.17 225.33, 910.07 226.0, 908.97 226.67, 907.88 227.33, 906.79 228.0, 905.71 228.67, 904.63 229.33, 903.55 230.0, 902.48 230.67, 901.41 231.33, 900.34 232.0, 899.28 232.67, 898.22 233.33, 897.17 234.0, 896.12 234.67, 895.07 235.33, 894.03 236.0, 892.98 236.67, 891.95 237.33, 890.91 238.0, 889.88 238.67, 888.85 239.33, 887.83 240.0, 886.81 240.67, 885.79 241.33, 884.78 242.0, 883.76 242.67, 882.75 243.33, 881.75 244.0, 880.74 244.67, 879.74 245.33, 878.75 246.0, 877.75 246.67, 876.76 247.33, 875.77 248.0, 874.79 248.67, 873.8 249.33, 872.82 250.0, 871.84 250.67, 870.87 251.33, 869.9 252.0, 868.93 252.67, 867.96 253.33, 866.99 254.0, 866.03 254.67, 865.07 255.33, 864.11 256.0, 863.16 256.67, 862.21 257.33, 861.26 258.0, 860.31 258.67, 859.36 259.33, 858.42 260.0, 857.48 260.67, 856.54 261.33, 855.61 262.0, 854.67 262.67, 853.74 263.33, 852.81 264.0, 851.89 264.67, 850.96 265.33, 850.04 266.0, 849.12 266.67, 848.2 267.33, 847.29 268.0, 846.37 268.67, 845.46 269.33, 844.55 270.0, 843.65 270.67, 842.74 271.33, 841.84 272.0, 840.94 272.67, 840.04 273.33, 839.15 274.0, 838.25 274.67, 837.36 275.33, 836.47 276.0, 835.59 276.67, 834.7 277.33, 833.82 278.0, 832.94 278.67, 832.06 279.33, 831.18 280.0, 830.31 280.67, 829.44 281.33, 828.57 282.0, 827.7 282.67, 826.83 283.33, 825.97 284.0, 825.11 284.67, 824.25 285.33, 823.39 286.0, 822.54 286.67, 821.69 287.33, 820.84 288.0, 819.99 288.67, 819.14 289.33, 818.3 290.0, 817.46 290.67, 816.62 291.33, 815.78 292.0, 814.95 292.67, 814.12 293.33, 813.29 294.0, 812.46 294.67, 811.63 295.33, 810.81 296.0, 809.99 296.67, 809.17 297.33, 808.35 298.0, 807.54 298.67, 806.73 299.33, 805.92 300.0, 805.11 300.67, 804.31 301.33, 803.51 302.0, 802.71 302.67, 801.91 303.33, 801.12 304.0, 800.32 304.67, 799.54 305.33, 798.75 306.0, 797.96 306.67, 797.18 307.33, 796.4 308.0, 795.63 308.67, 794.85 309.33, 794.08 310.0, 793.31 310.67, 792.55 311.33, 791.78 312.0, 791.02 312.67, 790.27 313.33, 789.51 314.0, 788.76 314.67, 788.01 315.33, 787.26 316.0, 786.52 316.67, 785.78 317.33, 785.04 318.0, 784.31 318.67, 783.57 319.33, 782.84 320.0, 782.12 320.67, 781.4 321.33, 780.68 322.0, 779.96 322.67, 779.24 323.33, 778.53 324.0, 777.83 324.67, 777.12 325.33, 776.42 326.0, 775.72 326.67, 775.03 327.33, 774.33 328.0, 773.65 328.67, 772.96 329.33, 772.28 330.0, 771.6 330.67, 770.92 331.33, 770.25 332.0, 769.58 332.67, 768.92 333.33, 768.26 334.0, 767.6 334.67, 766.94 335.33, 766.29 336.0, 765.64 336.67, 765.0 337.33, 764.36 338.0, 763.72 338.67, 763.09 339.33, 762.46 340.0, 761.83 340.67, 761.21 341.33, 760.59 342.0, 759.98 342.67, 759.37 343.33, 758.76 344.0, 758.16 344.67, 757.56 345.33, 756.96 346.0, 756.37 346.67, 755.79 347.33, 755.2 348.0, 754.62 348.67, 754.05 349.33, 753.48 350.0, 752.91 350.67, 752.35 351.33, 751.79 352.0, 751.23 352.67, 750.68 353.33, 750.13 354.0, 749.59 354.67, 749.05 355.33, 748.52 356.0, 747.99 356.67, 747.47 357.33, 746.94 358.0, 746.43 358.67, 745.92 359.33, 745.41 360.0, 744.91 360.67, 744.41 361.33, 743.91 362.0, 743.42 362.67, 742.94 363.33, 742.46 364.0, 741.98 364.67, 741.51 365.33, 741.04 366.0, 740.58 366.67, 740.12 367.33, 739.67 368.0, 739.22 368.67, 738.78 369.33, 738.34 370.0, 737.91 370.67, 737.48 371.33, 737.05 372.0, 736.64 372.67, 736.22 373.33, 735.81 374.0, 735.41 374.67, 735.01 375.33, 734.61 376.0, 734.22 376.67, 733.84 377.33, 733.46 378.0, 733.08 378.67, 732.71 379.33, 732.35 380.0, 731.99 380.67, 731.63 381.33, 731.29 382.0, 730.94 382.67, 730.6 383.33, 730.27 384.0, 729.94 384.67, 729.62 385.33, 729.3 386.0, 728.98 386.67, 728.68 387.33, 728.37 388.0, 728.08 388.67, 727.78 389.33, 727.5 390.0, 727.22 390.67, 726.94 391.33, 726.67 392.0, 726.4 392.67, 726.14 393.33, 725.89 394.0, 725.64 394.67, 725.39 395.33, 725.16 396.0, 724.92 396.67, 724.7 397.33, 724.47 398.0, 724.26 398.67, 724.05 399.33, 723.84 400.0, 723.64 400.67, 723.45 401.33, 723.26 402.0, 723.07 402.67, 722.89 403.33, 722.72 404.0, 722.55 404.67, 722.39 405.33, 722.24 406.0, 722.09 406.67, 721.94 407.33, 721.8 408.0, 721.67 408.67, 721.54 409.33, 721.42 410.0, 721.3 410.67, 721.19 411.33, 721.09 412.0, 720.99 412.67, 720.89 413.33, 720.8 414.0, 720.72 414.67, 720.64 415.33, 720.57 416.0, 720.5 416.67, 720.44 417.33, 720.39 418.0, 720.34 418.67, 720.3 419.33, 720.26 420.0, 720.23 420.67, 720.2 421.33, 720.18 422.0, 720.16 422.67, 720.16 423.33, 720.15 424.0, 720.15 424.67, 720.16 425.33, 720.17 426.0, 720.19 426.67, 720.22 427.33, 720.25 428.0, 720.28 428.67, 720.32 429.33, 720.37 430.0, 720.42 430.67, 720.48 431.33, 720.54 432.0, 720.61 432.67, 720.69 433.33, 720.77 434.0, 720.85 434.67, 720.95 435.33, 721.04 436.0, 721.14 436.67, 721.25 437.33, 721.37 438.0, 721.49 438.67, 721.61 439.33, 721.74 440.0, 721.88 440.67, 722.02 441.33, 722.16 442.0, 722.32 442.67, 722.47 443.33, 722.64 444.0, 722.81 444.67, 722.98 445.33, 723.16 446.0, 723.34 446.67, 723.53 447.33, 723.73 448.0, 723.93 448.67, 724.13 449.33, 724.35 450.0, 724.56 450.67, 724.78 451.33, 725.01 452.0, 725.24 452.67, 725.48 453.33, 725.72 454.0, 725.97 454.67, 726.23 455.33, 726.48 456.0, 726.75 456.67, 727.02 457.33, 727.29 458.0, 727.57 458.67, 727.85 459.33, 728.14 460.0, 728.44 460.67, 728.73 461.33, 729.04 462.0, 729.35 462.67, 729.66 463.33, 729.98 464.0, 730.3 464.67, 730.63 465.33, 730.96 466.0, 731.3 466.67, 731.65 467.33, 731.99 468.0, 732.35 468.67, 732.7 469.33, 733.06 470.0, 733.43 470.67, 733.8 471.33, 734.18 472.0, 734.56 472.67, 734.94 473.33, 735.33 474.0, 735.73 474.67, 736.13 475.33, 736.53 476.0, 736.94 476.67, 737.35 477.33, 737.76 478.0, 738.18 478.67, 738.61 479.33, 739.04 480.0, 739.47 480.67, 739.91 481.33, 740.35 482.0, 740.79 482.67, 741.24 483.33, 741.7 484.0, 742.16 484.67, 742.62 485.33, 743.09 486.0, 743.56 486.67, 744.03 487.33, 744.51 488.0, 744.99 488.67, 745.47 489.33, 745.96 490.0, 746.46 490.67, 746.95 491.33, 747.45 492.0, 747.96 492.67, 748.47 493.33, 748.98 494.0, 749.49 494.67, 750.01 495.33, 750.53 496.0, 751.06 496.67, 751.59 497.33, 752.12 498.0, 752.65 498.67, 753.19 499.33, 753.74 500.0, 754.28 500.67, 754.83 501.33, 755.38 502.0, 755.94 502.67, 756.49 503.33, 757.05 504.0, 757.62 504.67, 758.18 505.33, 758.75 506.0, 759.33 506.67, 759.9 507.33, 760.48 508.0, 761.06 508.67, 761.64 509.33, 762.23 510.0, 762.82 510.67, 763.41 511.33, 764.0 512.0, 764.6 512.67, 765.2 513.33, 765.8 514.0, 766.41 514.67, 767.01 515.33, 767.62 516.0, 768.23 516.67, 768.84 517.33, 769.46 518.0, 770.08 518.67, 770.69 519.33, 771.32 520.0, 771.94 520.67, 772.56 521.33, 773.19 522.0, 773.82 522.67, 774.45 523.33, 775.08 524.0, 775.72 524.67, 776.35 525.33, 776.99 526.0, 777.63 526.67, 778.27 527.33, 778.91 528.0, 779.56 528.67, 780.2 529.33, 780.85 530.0, 781.5 530.67, 782.15 531.33, 782.8 532.0, 783.45 532.67, 784.1 533.33, 784.76 534.0, 785.41 534.67, 786.07 535.33, 786.72 536.0, 787.38 536.67, 788.04 537.33, 788.7 538.0, 789.36 538.67, 790.02 539.33, 790.68 540.0, 791.35 540.67, 792.01 541.33, 792.67 542.0, 793.34 542.67, 794.0 543.33, 794.67 544.0, 795.33 544.67, 796.0 545.33, 796.66 546.0, 797.33 546.67, 797.99 547.33, 798.66 548.0, 799.33 548.67, 799.99 549.33, 800.66 550.0, 801.33 550.67, 801.99 551.33, 802.66 552.0, 803.33 552.67, 803.99 553.33, 804.66 554.0, 805.32 554.67, 805.99 555.33, 806.65 556.0, 807.32 556.67, 807.98 557.33, 808.64 558.0, 809.31 558.67, 809.97 559.33, 810.63 560.0, 811.29 560.67, 811.95 561.33, 812.61 562.0, 813.27 562.67, 813.92 563.33, 814.58 564.0, 815.23 564.67, 815.89 565.33, 816.54 566.0, 817.19 566.67, 817.84 567.33, 818.49 568.0, 819.14 568.67, 819.79 569.33, 820.43 570.0, 821.08 570.67, 821.72 571.33, 822.36 572.0, 823.0 572.67, 823.64 573.33, 824.27 574.0, 824.91 574.67, 825.54 575.33, 826.17 576.0, 826.8 576.67, 827.43 577.33, 828.05 578.0, 828.67 578.67, 829.3 579.33, 829.92 580.0, 830.53 580.67, 831.15 581.33, 831.76 582.0, 832.37 582.67, 832.98 583.33, 833.59 584.0, 834.19 584.67, 834.79 585.33, 835.39 586.0, 835.99 586.67, 836.58 587.33, 837.17 588.0, 837.76 588.67, 838.35 589.33, 838.93 590.0, 839.51 590.67, 840.09 591.33, 840.67 592.0, 841.24 592.67, 841.81 593.33, 842.38 594.0, 842.94 594.67, 843.5 595.33, 844.06 596.0, 844.61 596.67, 845.17 597.33, 845.72 598.0, 846.26 598.67, 846.8 599.33, 847.34 600.0, 847.88 600.67, 848.41 601.33, 848.94 602.0, 849.46 602.67, 849.99 603.33, 850.51 604.0, 851.02 604.67, 851.53 605.33, 852.04 606.0, 852.55 606.67, 853.05 607.33, 853.54 608.0, 854.04 608.67, 854.53 609.33, 855.01 610.0, 855.49 610.67, 855.97 611.33, 856.45 612.0, 856.92 612.67, 857.38 613.33, 857.85 614.0, 858.31 614.67, 858.76 615.33, 859.21 616.0, 859.66 616.67, 860.1 617.33, 860.54 618.0, 860.97 618.67, 861.4 619.33, 861.82 620.0, 862.25 620.67, 862.66 621.33, 863.07 622.0, 863.48 622.67, 863.89 623.33, 864.29 624.0, 864.68 624.67, 865.07 625.33, 865.46 626.0, 865.84 626.67, 866.21 627.33, 866.58 628.0, 866.95 628.67, 867.31 629.33, 867.67 630.0, 868.03 630.67, 868.37 631.33, 868.72 632.0, 869.06 632.67, 869.39 633.33, 869.72 634.0, 870.04 634.67, 870.36 635.33, 870.68 636.0, 870.99 636.67, 871.29 637.33, 871.59 638.0, 871.89 638.67, 872.18 639.33, 872.46 640.0, 872.74 640.67, 873.02 641.33, 873.29 642.0, 873.55 642.67, 873.81 643.33, 874.07 644.0, 874.32 644.67, 874.56 645.33, 874.8 646.0, 875.03 646.67, 875.26 647.33, 875.49 648.0, 875.7 648.67, 875.92 649.33, 876.12 650.0, 876.33 650.67, 876.52 651.33, 876.72 652.0, 876.9 652.67, 877.08 653.33, 877.26 654.0, 877.43 654.67, 877.59 655.33, 877.75 656.0, 877.91 656.67, 878.06 657.33, 878.2 658.0, 878.34 658.67, 878.47 659.33, 878.6 660.0, 878.72 660.67, 878.83 661.33, 878.95 662.0, 879.05 662.67, 879.15 663.33, 879.24 664.0, 879.33 664.67, 879.42 665.33, 879.49 666.0, 879.57 666.67, 879.63 667.33, 879.69 668.0, 879.75 668.67, 879.8 669.33, 879.84 670.0, 879.88 670.67, 879.92 671.33, 879.94 672.0, 879.97 672.67, 879.98 673.33, 879.99 674.0, 880.0 674.67, 880.0 675.33, 879.99 676.0, 879.98 676.67, 879.97 677.33, 879.94 678.0, 879.92 678.67, 879.88 679.33, 879.84 680.0, 879.8 680.67, 879.75 681.33, 879.69 682.0, 879.63 682.67, 879.57 683.33, 879.49 684.0, 879.42 684.67, 879.33 685.33, 879.25 686.0, 879.15 686.67, 879.05 687.33, 878.95 688.0, 878.84 688.67, 878.72 689.33, 878.6 690.0, 878.47 690.67, 878.34 691.33, 878.2 692.0, 878.06 692.67, 877.91 693.33, 877.76 694.0, 877.6 694.67, 877.43 695.33, 877.26 696.0, 877.08 696.67, 876.9 697.33, 876.72 698.0, 876.53 698.67, 876.33 699.33, 876.13 700.0, 875.92 700.67, 875.71 701.33, 875.49 702.0, 875.26 702.67, 875.04 703.33, 874.8 704.0, 874.56 704.67, 874.32 705.33, 874.07 706.0, 873.82 706.67, 873.56 707.33, 873.29 708.0, 873.02 708.67, 872.75 709.33, 872.47 710.0, 872.18 710.67, 871.89 711.33, 871.6 712.0, 871.3 712.67, 870.99 713.33, 870.68 714.0, 870.37 714.67, 870.05 715.33, 869.72 716.0, 869.39 716.67, 869.06 717.33, 868.72 718.0, 868.38 718.67, 868.03 719.33, 867.68 720.0, 867.32 720.67, 866.96 721.33, 866.59 722.0, 866.22 722.67, 865.84 723.33, 865.46 724.0, 865.07 724.67, 864.68 725.33, 864.29 726.0, 863.89 726.67, 863.49 727.33, 863.08 728.0, 862.67 728.67, 862.25 729.33, 861.83 730.0, 861.4 730.67, 860.97 731.33, 860.54 732.0, 860.1 732.67, 859.66 733.33, 859.21 734.0, 858.76 734.67, 858.31 735.33, 857.85 736.0, 857.39 736.67, 856.92 737.33, 856.45 738.0, 855.98 738.67, 855.5 739.33, 855.02 740.0, 854.53 740.67, 854.04 741.33, 853.55 742.0, 853.05 742.67, 852.55 743.33, 852.05 744.0, 851.54 744.67, 851.03 745.33, 850.51 746.0, 849.99 746.67, 849.47 747.33, 848.94 748.0, 848.41 748.67, 847.88 749.33, 847.35 750.0, 846.81 750.67, 846.27 751.33, 845.72 752.0, 845.17 752.67, 844.62 753.33, 844.06 754.0, 843.51 754.67, 842.95 755.33, 842.38 756.0, 841.81 756.67, 841.25 757.33, 840.67 758.0, 840.1 758.67, 839.52 759.33, 838.94 760.0, 838.35 760.67, 837.77 761.33, 837.18 762.0, 836.59 762.67, 835.99 763.33, 835.4 764.0, 834.8 764.67, 834.2 765.33, 833.59 766.0, 832.99 766.67, 832.38 767.33, 831.77 768.0, 831.15 768.67, 830.54 769.33, 829.92 770.0, 829.3 770.67, 828.68 771.33, 828.06 772.0, 827.43 772.67, 826.8 773.33, 826.18 774.0, 825.54 774.67, 824.91 775.33, 824.28 776.0, 823.64 776.67, 823.0 777.33, 822.36 778.0, 821.72 778.67, 821.08 779.33, 820.44 780.0, 819.79 780.67, 819.15 781.33, 818.5 782.0, 817.85 782.67, 817.2 783.33, 816.55 784.0, 815.89 784.67, 815.24 785.33, 814.58 786.0, 813.93 786.67, 813.27 787.33, 812.61 788.0, 811.96 788.67, 811.3 789.33, 810.64 790.0, 809.97 790.67, 809.31 791.33, 808.65 792.0, 807.99 792.67, 807.32 793.33, 806.66 794.0, 805.99 794.67, 805.33 795.33, 804.66 796.0, 804.0 796.67, 803.33 797.33, 802.67 798.0, 802.0 798.67, 801.33 799.33, 800.67 800.0, 800.0 800.67, 799.33 801.33, 798.67 802.0, 798.0 802.67, 797.33 803.33, 796.67 804.0, 796.0 804.67, 795.34 805.33, 794.67 806.0, 794.01 806.67, 793.34 807.33, 792.68 808.0, 792.01 808.67, 791.35 809.33, 790.69 810.0, 790.03 810.67, 789.36 811.33, 788.7 812.0, 788.04 812.67, 787.39 813.33, 786.73 814.0, 786.07 814.67, 785.42 815.33, 784.76 816.0, 784.11 816.67, 783.45 817.33, 782.8 818.0, 782.15 818.67, 781.5 819.33, 780.85 820.0, 780.21 820.67, 779.56 821.33, 778.92 822.0, 778.28 822.67, 777.64 823.33, 777.0 824.0, 776.36 824.67, 775.72 825.33, 775.09 826.0, 774.46 826.67, 773.82 827.33, 773.2 828.0, 772.57 828.67, 771.94 829.33, 771.32 830.0, 770.7 830.67, 770.08 831.33, 769.46 832.0, 768.85 832.67, 768.23 833.33, 767.62 834.0, 767.01 834.67, 766.41 835.33, 765.8 836.0, 765.2 836.67, 764.6 837.33, 764.01 838.0, 763.41 838.67, 762.82 839.33, 762.23 840.0, 761.65 840.67, 761.06 841.33, 760.48 842.0, 759.9 842.67, 759.33 843.33, 758.75 844.0, 758.19 844.67, 757.62 845.33, 757.05 846.0, 756.49 846.67, 755.94 847.33, 755.38 848.0, 754.83 848.67, 754.28 849.33, 753.73 850.0, 753.19 850.67, 752.65 851.33, 752.12 852.0, 751.59 852.67, 751.06 853.33, 750.53 854.0, 750.01 854.67, 749.49 855.33, 748.97 856.0, 748.46 856.67, 747.95 857.33, 747.45 858.0, 746.95 858.67, 746.45 859.33, 745.96 860.0, 745.47 860.67, 744.98 861.33, 744.5 862.0, 744.02 862.67, 743.55 863.33, 743.08 864.0, 742.61 864.67, 742.15 865.33, 741.69 866.0, 741.24 866.67, 740.79 867.33, 740.34 868.0, 739.9 868.67, 739.46 869.33, 739.03 870.0, 738.6 870.67, 738.17 871.33, 737.75 872.0, 737.33 872.67, 736.92 873.33, 736.51 874.0, 736.11 874.67, 735.71 875.33, 735.32 876.0, 734.93 876.67, 734.54 877.33, 734.16 878.0, 733.78 878.67, 733.41 879.33, 733.04 880.0, 732.68 880.67, 732.32 881.33, 731.97 882.0, 731.62 882.67, 731.28 883.33, 730.94 884.0, 730.61 884.67, 730.28 885.33, 729.95 886.0, 729.63 886.67, 729.32 887.33, 729.01 888.0, 728.7 888.67, 728.4 889.33, 728.11 890.0, 727.82 890.67, 727.53 891.33, 727.25 892.0, 726.98 892.67, 726.71 893.33, 726.44 894.0, 726.18 894.67, 725.93 895.33, 725.68 896.0, 725.44 896.67, 725.2 897.33, 724.96 898.0, 724.74 898.67, 724.51 899.33, 724.29 900.0, 724.08 900.67, 723.87 901.33, 723.67 902.0, 723.47 902.67, 723.28 903.33, 723.1 904.0, 722.92 904.67, 722.74 905.33, 722.57 906.0, 722.4 906.67, 722.24 907.33, 722.09 908.0, 721.94 908.67, 721.8 909.33, 721.66 910.0, 721.53 910.67, 721.4 911.33, 721.28 912.0, 721.16 912.67, 721.05 913.33, 720.95 914.0, 720.85 914.67, 720.75 915.33, 720.67 916.0, 720.58 916.67, 720.51 917.33, 720.43 918.0, 720.37 918.67, 720.31 919.33, 720.25 920.0, 720.2 920.67, 720.16 921.33, 720.12 922.0, 720.08 922.67, 720.06 923.33, 720.03 924.0, 720.02 924.67, 720.01 925.33, 720.0 926.0, 720.0 926.67, 720.01 927.33, 720.02 928.0, 720.03 928.67, 720.06 929.33, 720.08 930.0, 720.12 930.67, 720.16 931.33, 720.2 932.0, 720.25 932.67, 720.31 933.33, 720.37 934.0, 720.43 934.67, 720.51 935.33, 720.58 936.0, 720.67 936.67, 720.76 937.33, 720.85 938.0, 720.95 938.67, 721.05 939.33, 721.17 940.0, 721.28 940.67, 721.4 941.33, 721.53 942.0, 721.66 942.67, 721.8 943.33, 721.94 944.0, 722.09 944.67, 722.25 945.33, 722.41 946.0, 722.57 946.67, 722.74 947.33, 722.92 948.0, 723.1 948.67, 723.28 949.33, 723.48 950.0, 723.67 950.67, 723.88 951.33, 724.08 952.0, 724.3 952.67, 724.51 953.33, 724.74 954.0, 724.97 954.67, 725.2 955.33, 725.44 956.0, 725.68 956.67, 725.93 957.33, 726.19 958.0, 726.45 958.67, 726.71 959.33, 726.98 960.0, 727.26 960.67, 727.54 961.33, 727.82 962.0, 728.11 962.67, 728.41 963.33, 728.71 964.0, 729.01 964.67, 729.32 965.33, 729.64 966.0, 729.96 966.67, 730.28 967.33, 730.61 968.0, 730.94 968.67, 731.28 969.33, 731.63 970.0, 731.97 970.67, 732.33 971.33, 732.69 972.0, 733.05 972.67, 733.42 973.33, 733.79 974.0, 734.16 974.67, 734.54 975.33, 734.93 976.0, 735.32 976.67, 735.71 977.33, 736.11 978.0, 736.52 978.67, 736.93 979.33, 737.34 980.0, 737.75 980.67, 738.18 981.33, 738.6 982.0, 739.03 982.67, 739.46 983.33, 739.9 984.0, 740.34 984.67, 740.79 985.33, 741.24 986.0, 741.69 986.67, 742.15 987.33, 742.62 988.0, 743.08 988.67, 743.55 989.33, 744.03 990.0, 744.51 990.67, 744.99 991.33, 745.47 992.0, 745.96 992.67, 746.46 993.33, 746.95 994.0, 747.45 994.67, 747.96 995.33, 748.47 996.0, 748.98 996.67, 749.49 997.33, 750.01 998.0, 750.54 998.67, 751.06 999.33, 751.59 1000.0, 752.12 1000.67, 752.66 1001.33, 753.2 1002.0, 753.74 1002.67, 754.28 1003.33, 754.83 1004.0, 755.39 1004.67, 755.94 1005.33, 756.5 1006.0, 757.06 1006.67, 757.62 1007.33, 758.19 1008.0, 758.76 1008.67, 759.33 1009.33, 759.91 1010.0, 760.49 1010.67, 761.07 1011.33, 761.65 1012.0, 762.24 1012.67, 762.83 1013.33, 763.42 1014.0, 764.01 1014.67, 764.61 1015.33, 765.21 1016.0, 765.81 1016.67, 766.41 1017.33, 767.02 1018.0, 767.63 1018.67, 768.24 1019.33, 768.85 1020.0, 769.47 1020.67, 770.08 1021.33, 770.7 1022.0, 771.33 1022.67, 771.95 1023.33, 772.57 1024.0, 773.2 1024.67, 773.83 1025.33, 774.46 1026.0, 775.09 1026.67, 775.73 1027.33, 776.36 1028.0, 777.0 1028.67, 777.64 1029.33, 778.28 1030.0, 778.92 1030.67, 779.57 1031.33, 780.21 1032.0, 780.86 1032.67, 781.51 1033.33, 782.16 1034.0, 782.81 1034.67, 783.46 1035.33, 784.11 1036.0, 784.77 1036.67, 785.42 1037.33, 786.08 1038.0, 786.73 1038.67, 787.39 1039.33, 788.05 1040.0, 788.71 1040.67, 789.37 1041.33, 790.03 1042.0, 790.69 1042.67, 791.36 1043.33, 792.02 1044.0, 792.68 1044.67, 793.35 1045.33, 794.01 1046.0, 794.68 1046.67, 795.34 1047.33, 796.01 1048.0, 796.67 1048.67, 797.34 1049.33, 798.01 1050.0, 798.67 1050.67, 799.34 1051.33, 800.01 1052.0, 800.67 1052.67, 801.34 1053.33, 802.01 1054.0, 802.67 1054.67, 803.34 1055.33, 804.0 1056.0, 804.67 1056.67, 805.33 1057.33, 806.0 1058.0, 806.66 1058.67, 807.33 1059.33, 807.99 1060.0, 808.65 1060.67, 809.32 1061.33, 809.98 1062.0, 810.64 1062.67, 811.3 1063.33, 811.96 1064.0, 812.62 1064.67, 813.28 1065.33, 813.93 1066.0, 814.59 1066.67, 815.24 1067.33, 815.9 1068.0, 816.55 1068.67, 817.2 1069.33, 817.85 1070.0, 818.5 1070.67, 819.15 1071.33, 819.8 1072.0, 820.44 1072.67, 821.09 1073.33, 821.73 1074.0, 822.37 1074.67, 823.01 1075.33, 823.65 1076.0, 824.28 1076.67, 824.92 1077.33, 825.55 1078.0, 826.18 1078.67, 826.81 1079.33, 827.44 1080.0, 828.06 1080.67, 828.68 1081.33, 829.31 1082.0, 829.92 1082.67, 830.54 1083.33, 831.16 1084.0, 831.77 1084.67, 832.38 1085.33, 832.99 1086.0, 833.59 1086.67, 834.2 1087.33, 834.8 1088.0, 835.4 1088.67, 836.0 1089.33, 836.59 1090.0, 837.18 1090.67, 837.77 1091.33, 838.36 1092.0, 838.94 1092.67, 839.52 1093.33, 840.1 1094.0, 840.67 1094.67, 841.25 1095.33, 841.82 1096.0, 842.38 1096.67, 842.95 1097.33, 843.51 1098.0, 844.06 1098.67, 844.62 1099.33, 845.17 1100.0, 845.72 1100.67, 846.26 1101.33, 846.81 1102.0, 847.35 1102.67, 847.88 1103.33, 848.41 1104.0, 848.94 1104.67, 849.47 1105.33, 849.99 1106.0, 850.51 1106.67, 851.02 1107.33, 851.53 1108.0, 852.04 1108.67, 852.55 1109.33, 853.05 1110.0, 853.54 1110.67, 854.04 1111.33, 854.53 1112.0, 855.01 1112.67, 855.49 1113.33, 855.97 1114.0, 856.44 1114.67, 856.91 1115.33, 857.38 1116.0, 857.84 1116.67, 858.3 1117.33, 858.76 1118.0, 859.21 1118.67, 859.65 1119.33, 860.09 1120.0, 860.53 1120.67, 860.96 1121.33, 861.39 1122.0, 861.82 1122.67, 862.24 1123.33, 862.65 1124.0, 863.06 1124.67, 863.47 1125.33, 863.87 1126.0, 864.27 1126.67, 864.67 1127.33, 865.06 1128.0, 865.44 1128.67, 865.82 1129.33, 866.2 1130.0, 866.57 1130.67, 866.94 1131.33, 867.3 1132.0, 867.65 1132.67, 868.01 1133.33, 868.35 1134.0, 868.7 1134.67, 869.04 1135.33, 869.37 1136.0, 869.7 1136.67, 870.02 1137.33, 870.34 1138.0, 870.65 1138.67, 870.96 1139.33, 871.27 1140.0, 871.56 1140.67, 871.86 1141.33, 872.15 1142.0, 872.43 1142.67, 872.71 1143.33, 872.98 1144.0, 873.25 1144.67, 873.52 1145.33, 873.77 1146.0, 874.03 1146.67, 874.28 1147.33, 874.52 1148.0, 874.76 1148.67, 874.99 1149.33, 875.22 1150.0, 875.44 1150.67, 875.65 1151.33, 875.87 1152.0, 876.07 1152.67, 876.27 1153.33, 876.47 1154.0, 876.66 1154.67, 876.84 1155.33, 877.02 1156.0, 877.19 1156.67, 877.36 1157.33, 877.53 1158.0, 877.68 1158.67, 877.84 1159.33, 877.98 1160.0, 878.12 1160.67, 878.26 1161.33, 878.39 1162.0, 878.51 1162.67, 878.63 1163.33, 878.75 1164.0, 878.86 1164.67, 878.96 1165.33, 879.05 1166.0, 879.15 1166.67, 879.23 1167.33, 879.31 1168.0, 879.39 1168.67, 879.46 1169.33, 879.52 1170.0, 879.58 1170.67, 879.63 1171.33, 879.68 1172.0, 879.72 1172.67, 879.75 1173.33, 879.78 1174.0, 879.81 1174.67, 879.83 1175.33, 879.84 1176.0, 879.85 1176.67, 879.85 1177.33, 879.84 1178.0, 879.84 1178.67, 879.82 1179.33, 879.8 1180.0, 879.77 1180.67, 879.74 1181.33, 879.7 1182.0, 879.66 1182.67, 879.61 1183.33, 879.56 1184.0, 879.5 1184.67, 879.43 1185.33, 879.36 1186.0, 879.28 1186.67, 879.2 1187.33, 879.11 1188.0, 879.01 1188.67, 878.91 1189.33, 878.81 1190.0, 878.7 1190.67, 878.58 1191.33, 878.46 1192.0, 878.33 1192.67, 878.2 1193.33, 878.06 1194.0, 877.91 1194.67, 877.76 1195.33, 877.61 1196.0, 877.45 1196.67, 877.28 1197.33, 877.11 1198.0, 876.93 1198.67, 876.74 1199.33, 876.55 1200.0, 876.36 1200.67, 876.16 1201.33, 875.95 1202.0, 875.74 1202.67, 875.53 1203.33, 875.3 1204.0, 875.08 1204.67, 874.84 1205.33, 874.61 1206.0, 874.36 1206.67, 874.11 1207.33, 873.86 1208.0, 873.6 1208.67, 873.33 1209.33, 873.06 1210.0, 872.78 1210.67, 872.5 1211.33, 872.22 1212.0, 871.92 1212.67, 871.63 1213.33, 871.32 1214.0, 871.02 1214.67, 870.7 1215.33, 870.38 1216.0, 870.06 1216.67, 869.73 1217.33, 869.4 1218.0, 869.06 1218.67, 868.71 1219.33, 868.37 1220.0, 868.01 1220.67, 867.65 1221.33, 867.29 1222.0, 866.92 1222.67, 866.54 1223.33, 866.16 1224.0, 865.78 1224.67, 865.39 1225.33, 864.99 1226.0, 864.59 1226.67, 864.19 1227.33, 863.78 1228.0, 863.36 1228.67, 862.95 1229.33, 862.52 1230.0, 862.09 1230.67, 861.66 1231.33, 861.22 1232.0, 860.78 1232.67, 860.33 1233.33, 859.88 1234.0, 859.42 1234.67, 858.96 1235.33, 858.49 1236.0, 858.02 1236.67, 857.54 1237.33, 857.06 1238.0, 856.58 1238.67, 856.09 1239.33, 855.59 1240.0, 855.09 1240.67, 854.59 1241.33, 854.08 1242.0, 853.57 1242.67, 853.06 1243.33, 852.53 1244.0, 852.01 1244.67, 851.48 1245.33, 850.95 1246.0, 850.41 1246.67, 849.87 1247.33, 849.32 1248.0, 848.77 1248.67, 848.21 1249.33, 847.65 1250.0, 847.09 1250.67, 846.52 1251.33, 845.95 1252.0, 845.38 1252.67, 844.8 1253.33, 844.21 1254.0, 843.63 1254.67, 843.04 1255.33, 842.44 1256.0, 841.84 1256.67, 841.24 1257.33, 840.63 1258.0, 840.02 1258.67, 839.41 1259.33, 838.79 1260.0, 838.17 1260.67, 837.54 1261.33, 836.91 1262.0, 836.28 1262.67, 835.64 1263.33, 835.0 1264.0, 834.36 1264.67, 833.71 1265.33, 833.06 1266.0, 832.4 1266.67, 831.74 1267.33, 831.08 1268.0, 830.42 1268.67, 829.75 1269.33, 829.08 1270.0, 828.4 1270.67, 827.72 1271.33, 827.04 1272.0, 826.35 1272.67, 825.67 1273.33, 824.97 1274.0, 824.28 1274.67, 823.58 1275.33, 822.88 1276.0, 822.17 1276.67, 821.47 1277.33, 820.76 1278.0, 820.04 1278.67, 819.32 1279.33, 818.6 1280.0, 817.88 1280.67, 817.16 1281.33, 816.43 1282.0, 815.69 1282.67, 814.96 1283.33, 814.22 1284.0, 813.48 1284.67, 812.74 1285.33, 811.99 1286.0, 811.24 1286.67, 810.49 1287.33, 809.73 1288.0, 808.98 1288.67, 808.22 1289.33, 807.45 1290.0, 806.69 1290.67, 805.92 1291.33, 805.15 1292.0, 804.37 1292.67, 803.6 1293.33, 802.82 1294.0, 802.04 1294.67, 801.25 1295.33, 800.46 1296.0, 799.68 1296.67, 798.88 1297.33, 798.09 1298.0, 797.29 1298.67, 796.49 1299.33, 795.69 1300.0, 794.89 1300.67, 794.08 1301.33, 793.27 1302.0, 792.46 1302.67, 791.65 1303.33, 790.83 1304.0, 790.01 1304.67, 789.19 1305.33, 788.37 1306.0, 787.54 1306.67, 786.71 1307.33, 785.88 1308.0, 785.05 1308.67, 784.22 1309.33, 783.38 1310.0, 782.54 1310.67, 781.7 1311.33, 780.86 1312.0, 780.01 1312.67, 779.16 1313.33, 778.31 1314.0, 777.46 1314.67, 776.61 1315.33, 775.75 1316.0, 774.89 1316.67, 774.03 1317.33, 773.17 1318.0, 772.3 1318.67, 771.43 1319.33, 770.56 1320.0, 769.69 1320.67, 768.82 1321.33, 767.94 1322.0, 767.06 1322.67, 766.18 1323.33, 765.3 1324.0, 764.41 1324.67, 763.53 1325.33, 762.64 1326.0, 761.75 1326.67, 760.85 1327.33, 759.96 1328.0, 759.06 1328.67, 758.16 1329.33, 757.26 1330.0, 756.35 1330.67, 755.45 1331.33, 754.54 1332.0, 753.63 1332.67, 752.71 1333.33, 751.8 1334.0, 750.88 1334.67, 749.96 1335.33, 749.04 1336.0, 748.11 1336.67, 747.19 1337.33, 746.26 1338.0, 745.33 1338.67, 744.39 1339.33, 743.46 1340.0, 742.52 1340.67, 741.58 1341.33, 740.64 1342.0, 739.69 1342.67, 738.74 1343.33, 737.79 1344.0, 736.84 1344.67, 735.89 1345.33, 734.93 1346.0, 733.97 1346.67, 733.01 1347.33, 732.04 1348.0, 731.07 1348.67, 730.1 1349.33, 729.13 1350.0, 728.16 1350.67, 727.18 1351.33, 726.2 1352.0, 725.21 1352.67, 724.23 1353.33, 723.24 1354.0, 722.25 1354.67, 721.25 1355.33, 720.26 1356.0, 719.26 1356.67, 718.25 1357.33, 717.25 1358.0, 716.24 1358.67, 715.22 1359.33, 714.21 1360.0, 713.19 1360.67, 712.17 1361.33, 711.15 1362.0, 710.12 1362.67, 709.09 1363.33, 708.05 1364.0, 707.02 1364.67, 705.97 1365.33, 704.93 1366.0, 703.88 1366.67, 702.83 1367.33, 701.78 1368.0, 700.72 1368.67, 699.66 1369.33, 698.59 1370.0, 697.52 1370.67, 696.45 1371.33, 695.37 1372.0, 694.29 1372.67, 693.21 1373.33, 692.12 1374.0, 691.03 1374.67, 689.93 1375.33, 688.83 1376.0, 687.73 1376.67, 686.62 1377.33, 685.5 1378.0, 684.39 1378.67, 683.27 1379.33, 682.14 1380.0, 681.01 1380.67, 679.87 1381.33, 678.73 1382.0, 677.59 1382.67, 676.44 1383.33, 675.29 1384.0, 674.13 1384.67, 672.97 1385.33, 671.8 1386.0, 670.63 1386.67, 669.45 1387.33, 668.27 1388.0, 667.08 1388.67, 665.88 1389.33, 664.69 1390.0, 663.48 1390.67, 662.27 1391.33, 661.06 1392.0, 659.84 1392.67, 658.61 1393.33, 657.38 1394.0, 656.14 1394.67, 654.9 1395.33, 653.65 1396.0, 652.4 1396.67, 651.14 1397.33, 649.87 1398.0, 648.6 1398.67, 647.32 1399.33, 646.03 1400.0, 644.74 1400.67, 643.45 1401.33, 642.14 1402.0, 640.83 1402.67, 639.51 1403.33, 638.19 1404.0, 636.86 1404.67, 635.52 1405.33, 634.18 1406.0, 632.83 1406.67, 631.47 1407.33, 630.11 1408.0, 628.74 1408.67, 627.36 1409.33, 625.97 1410.0, 624.58 1410.67, 623.18 1411.33, 621.77 1412.0, 620.35 1412.67, 618.93 1413.33, 617.5 1414.0, 616.06 1414.67, 614.61 1415.33, 613.16 1416.0, 611.7 1416.67, 610.23 1417.33, 608.75 1418.0, 607.27 1418.67, 605.77 1419.33, 604.27 1420.0, 602.76 1420.67, 601.24 1421.33, 599.72 1422.0, 598.18 1422.67, 596.64 1423.33, 595.09 1424.0, 593.53 1424.67, 591.96 1425.33, 590.38 1426.0, 588.79 1426.67, 587.2 1427.33, 585.59 1428.0, 583.98 1428.67, 582.36 1429.33, 580.73 1430.0, 579.09 1430.67, 577.44 1431.33, 575.78 1432.0, 574.12 1432.67, 572.44 1433.33, 570.76 1434.0, 569.06 1434.67, 567.36 1435.33, 565.65 1436.0, 563.93 1436.67, 562.2 1437.33, 560.46 1438.0, 558.71 1438.67, 556.95 1439.33, 555.18 1440.0, 553.4 1440.67, 551.61 1441.33, 549.82 1442.0, 548.01 1442.67, 546.2 1443.33, 544.37 1444.0, 542.54 1444.67, 540.7 1445.33, 538.84 1446.0, 536.98 1446.67, 535.11 1447.33, 533.23 1448.0, 531.34 1448.67, 529.44 1449.33, 527.53 1450.0, 525.61 1450.67, 523.68 1451.33, 521.75 1452.0, 519.8 1452.67, 517.85 1453.33, 515.88 1454.0, 513.91 1454.67, 511.93 1455.33, 509.94 1456.0, 507.94 1456.67, 505.93 1457.33, 503.92 1458.0, 501.89 1458.67, 499.86 1459.33, 497.82 1460.0, 495.77 1460.67, 493.71 1461.33, 491.64 1462.0, 489.57 1462.67, 487.49 1463.33, 485.4 1464.0, 483.3 1464.67, 481.2 1465.33, 479.09 1466.0, 476.97 1466.67, 474.84 1467.33, 472.71 1468.0, 470.57 1468.67, 468.42 1469.33, 466.27 1470.0, 464.11 1470.67, 461.95 1471.33, 459.78 1472.0, 457.6 1472.67, 455.42 1473.33, 453.24 1474.0, 451.05 1474.67, 448.85 1475.33, 446.65 1476.0, 444.45 1476.67, 442.24 1477.33, 440.03 1478.0, 437.82 1478.67, 435.6 1479.33, 433.38 1480.0, 431.16 1480.67, 428.94 1481.33, 426.71 1482.0, 424.48 1482.67, 422.26 1483.33, 420.03 1484.0, 417.8 1484.67, 415.57 1485.33, 413.35 1486.0, 411.12 1486.67, 408.89 1487.33, 406.67 1488.0, 404.45 1488.67, 402.23 1489.33, 400.02 1490.0, 397.81 1490.67, 395.6 1491.33, 393.4 1492.0, 391.2 1492.67, 389.01 1493.33, 386.83 1494.0, 384.65 1494.67, 382.48 1495.33, 380.32 1496.0, 378.16 1496.67, 376.02 1497.33, 373.89 1498.0, 371.76 1498.67, 369.65 1499.33, 367.55 1500.0, 365.46 1500.67, 363.39 1501.33, 361.33 1502.0, 359.28 1502.67, 357.25 1503.33, 355.24 1504.0, 353.24 1504.67, 351.27 1505.33, 349.31 1506.0, 347.37 1506.67, 345.45 1507.33, 343.55 1508.0, 341.68 1508.67, 339.83 1509.33, 338.0 1510.0, 336.2 1510.67, 334.43 1511.33, 332.68 1512.0, 330.96 1512.67, 329.27 1513.33, 327.61 1514.0, 325.99 1514.67, 324.39 1515.33, 322.83 1516.0, 321.31 1516.67, 319.82 1517.33, 318.37 1518.0, 316.96 1518.67, 315.59 1519.33, 314.26 1520.0, 312.97 1520.67, 311.73 1521.33, 310.54 1522.0, 309.39 1522.67, 308.29 1523.33, 307.24 1524.0, 306.24 1524.67, 305.29 1525.33, 304.4 1526.0, 303.57 1526.67, 302.79 1527.33, 302.08 1528.0, 301.42 1528.67, 300.83 1529.33, 300.3 1530.0, 299.84 1530.67, 299.45 1531.33, 299.13 1532.0, 298.88 1532.67, 298.7 1533.33, 298.61 1534.0, 298.59 1534.67, 298.65 1535.33, 298.79 1536.0, 299.02 1536.67, 299.33 1537.33, 299.73 1538.0, 300.23 1538.67, 300.81 1539.33, 301.5 1540.0, 302.28 1540.67, 303.16 1541.33, 304.15 1542.0, 305.24 1542.67, 306.44 1543.33, 307.75 1544.0, 309.17 1544.67, 310.71 1545.33, 312.37 1546.0, 314.15 1546.67, 316.05 1547.33, 318.08 1548.0, 320.24 1548.67, 322.54 1549.33, 324.97 1550.0, 327.54 1550.67, 330.25 1551.33, 333.11 1552.0, 336.11 1552.67, 339.27 1553.33, 342.59 1554.0, 346.06 1554.67, 349.7 1555.33, 353.5 1556.0, 357.47 1556.67, 361.61 1557.33, 365.94 1558.0, 370.44 1558.67, 375.12 1559.33, 380.0 1560.0, 385.07 1560.67, 390.33 1561.33, 395.79 1562.0, 401.46 1562.67, 407.34 1563.33, 413.43 1564.0, 419.74 1564.67, 426.27 1565.33, 433.02 1566.0, 440.01 1566.67, 447.23 1567.33, 454.7 1568.0, 462.4 1568.67, 470.36 1569.33, 478.58 1570.0, 487.05 1570.67, 495.79 1571.33, 504.8 1572.0, 514.08 1572.67, 523.64 1573.33, 533.5 1574.0, 543.64 1574.67, 554.08 1575.33, 564.82 1576.0, 575.88 1576.67, 587.24 1577.33, 598.93 1578.0, 610.95 1578.67, 623.29 1579.33, 635.98 1580.0, 649.01 1580.67, 662.4 1581.33, 676.14 1582.0, 690.25 1582.67, 704.73 1583.33, 719.59 1584.0, 734.83 1584.67, 750.47 1585.33, 766.51 1586.0, 782.95 1586.67, 799.81 1587.33, 817.09 1588.0, 834.8 1588.67, 852.95 1589.33, 871.54 1590.0, 890.58 1590.67, 910.09 1591.33, 930.06 1592.0, 950.51 1592.67, 971.45 1593.33, 992.88 1594.0, 1014.82 1594.67, 1037.26 1595.33, 1060.23 1596.0, 1083.72 1596.67, 1107.76 1597.33, 1132.34 1598.0, 1157.48 1598.67, 1183.19 1599.33, 1209.47 1600.0, 1236.34 " fill="none" stroke="white" stroke-width="1.5" stroke-linejoin="round" stroke-opacity="1"/>

 </svg>