<svg version="1.1" 
 baseProfile="full" 
 width="1600" 
 height="1600" 
 xmlns="http://www.w3.org/2000/svg">
<rect x="0.0" y="0.0" width="1600" height="1600" fill="black" stroke="black" stroke-width="0" opacity="1"/>
<line x1="0.0" y1="0.0" x2="0.0" y2="1600.0" stroke="white" stroke-width="1" opacity="0.4" stroke-linecap="butt"/>
<line x1="160.0" y1="0.0" x2="160.0" y2="1600.0" stroke="white" stroke-width="1" opacity="0.4" stroke-linecap="butt"/>
<line x1="320.0" y1="0.0" x2="320.0" y2="1600.0" stroke="white" stroke-width="1" opacity="0.4" stroke-linecap="butt"/>
<line x1="480.0" y1="0.0" x2="480.0" y2="1600.0" stroke="white" stroke-width="1" opacity="0.4" stroke-linecap="butt"/>
<line x1="640.0" y1="0.0" x2="640.0" y2="1600.0" stroke="white" stroke-width="1" opacity="0.4" stroke-linecap="butt"/>
<line x1="800.0" y1="0.0" x2="800.0" y2="1600.0" stroke="white" stroke-width="1" opacity="0.4" stroke-linecap="butt"/>
<line x1="960.0" y1="0.0" x2="960.0" y2="1600.0" stroke="white" stroke-width="1" opacity="0.4" stroke-linecap="butt"/>
<line x1="1120.0" y1="0.0" x2="1120.0" y2="1600.0" stroke="white" stroke-width="1" opacity="0.4" stroke-linecap="butt"/>
<line x1="1280.0" y1="0.0" x2="1280.0" y2="1600.0" stroke="white" stroke-width="1" opacity="0.4" stroke-linecap="butt"/>
<line x1="1440.0" y1="0.0" x2="1440.0" y2="1600.0" stroke="white" stroke-width="1" opacity="0.4" stroke-linecap="butt"/>
<line x1="0.0" y1="0.0" x2="1600.0" y2="0.0" stroke="white" stroke-width="1" opacity="0.4" stroke-linecap="butt"/>
<line x1="0.0" y1="160.0" x2="1600.0" y2="160.0" stroke="white" stroke-width="1" opacity="0.4" stroke-linecap="butt"/>
<line x1="0.0" y1="320.0" x2="1600.0" y2="320.0" stroke="white" stroke-width="1" opacity="0.4" stroke-linecap="butt"/>
<line x1="0.0" y1="480.0" x2="1600.0" y2="480.0" stroke="white" stroke-width="1" opacity="0.4" stroke-linecap="butt"/>
<line x1="0.0" y1="640.0" x2="1600.0" y2="640.0" stroke="white" stroke-width="1" opacity="0.4" stroke-linecap="butt"/>
<line x1="0.0" y1="800.0" x2="1600.0" y2="800.0" stroke="white" stroke-width="1" opacity="0.4" stroke-linecap="butt"/>
<line x1="0.0" y1="960.0" x2="1600.0" y2="960.0" stroke="white" stroke-width="1" opacity="0.4" stroke-linecap="butt"/>
<line x1="0.0" y1="1120.0" x2="1600.0" y2="1120.0" stroke="white" stroke-width="1" opacity="0.4" stroke-linecap="butt"/>
<line x1="0.0" y1="1280.0" x2="1600.0" y2="1280.0" stroke="white" stroke-width="1" opacity="0.4" stroke-linecap="butt"/>
<line x1="0.0" y1="1440.0" x2="1600.0" y2="1440.0" stroke="white" stroke-width="1" opacity="0.4" stroke-linecap="butt"/>
<line x1="0.0" y1="800.0" x2="1600.0" y2="800.0" stroke="yellow" stroke-width="2.5" opacity="1" stroke-linecap="butt"/>
<line x1="800.0" y1="0.0" x2="800.0" y2="1600.0" stroke="yellow" stroke-width="2.5" opacity="1" stroke-linecap="butt"/>
<polygon points="1564.0 816.0, 1604.0 800.0, 1564.0 784.0, 1572.0 800.0" fill="yellow"/><polygon points="816.0 36.0, 800.0 -4.0, 784.0 36.0, 800.0 28.0" fill="yellow"/><polyline points="0.0, -7283.5 0.67, -7161.6 1.33, -7041.38 2.0, -6922.84 2.67, -6805.94 3.33, -6690.66 4.0, -6576.99 4.67, -6464.91 5.33, -6354.38 6.0, -6245.4 6.67, -6137.95 7.33, -6031.99 8.0, -5927.52 8.67, -5824.51 9.33, -5722.95 10.0, -5622.82 10.67, -5524.09 11.33, -5426.75 12.0, -5330.78 12.67, -5236.17 13.33, -5142.89 14.0, -5050.93 14.67, -4960.28 15.33, -4870.9 16.0, -4782.79 16.67, -4695.94 17.33, -4610.31 18.0, -4525.91 18.67, -4442.7 19.33, -4360.68 20.0, -4279.83 20.67, -4200.14 21.33, -4121.58 22.0, -4044.15 22.67, -3967.83 23.33, -3892.6 24.0, -3818.45 24.67, -3745.37 25.33, -3673.34 26.0, -3602.34 26.67, -3532.37 27.33, -3463.41 28.0, -3395.44 28.67, -3328.46 29.33, -3262.45 30.0, -3197.39 30.67, -3133.27 31.33, -3070.09 32.0, -3007.83 32.67, -2946.47 33.33, -2886.0 34.0, -2826.42 34.67, -2767.71 35.33, -2709.85 36.0, -2652.84 36.67, -2596.67 37.33, -2541.32 38.0, -2486.78 38.67, -2433.04 39.33, -2380.1 40.0, -2327.93 40.67, -2276.53 41.33, -2225.89 42.0, -2176.0 42.67, -2126.84 43.33, -2078.42 44.0, -2030.71 44.67, -1983.71 45.33, -1937.4 46.0, -1891.79 46.67, -1846.85 47.33, -1802.58 48.0, -1758.98 48.67, -1716.02 49.33, -1673.71 50.0, -1632.02 50.67, -1590.97 51.33, -1550.53 52.0, -1510.69 52.67, -1471.46 53.33, -1432.81 54.0, -1394.75 54.67, -1357.26 55.33, -1320.34 56.0, -1283.98 56.67, -1248.16 57.33, -1212.89 58.0, -1178.15 58.67, -1143.94 59.33, -1110.25 60.0, -1077.08 60.67, -1044.4 61.33, -1012.23 62.0, -980.55 62.67, -949.35 63.33, -918.63 64.0, -888.38 64.67, -858.59 65.33, -829.26 66.0, -800.39 66.67, -771.95 67.33, -743.96 68.0, -716.39 68.67, -689.26 69.33, -662.54 70.0, -636.23 70.67, -610.34 71.33, -584.84 72.0, -559.74 72.67, -535.03 73.33, -510.71 74.0, -486.77 74.67, -463.2 75.33, -439.99 76.0, -417.16 76.67, -394.67 77.33, -372.55 78.0, -350.76 78.67, -329.33 79.33, -308.22 80.0, -287.46 80.67, -267.02 81.33, -246.9 82.0, -227.1 82.67, -207.61 83.33, -188.44 84.0, -169.57 84.67, -151.0 85.33, -132.72 86.0, -114.74 86.67, -97.04 87.33, -79.62 88.0, -62.49 88.67, -45.63 89.33, -29.04 90.0, -12.72 90.67, 3.34 91.33, 19.15 92.0, 34.69 92.67, 49.99 93.33, 65.03 94.0, 79.84 94.67, 94.4 95.33, 108.73 96.0, 122.82 96.67, 136.69 97.33, 150.32 98.0, 163.74 98.67, 176.93 99.33, 189.91 100.0, 202.68 100.67, 215.23 101.33, 227.58 102.0, 239.73 102.67, 251.67 103.33, 263.42 104.0, 274.97 104.67, 286.33 105.33, 297.5 106.0, 308.49 106.67, 319.29 107.33, 329.91 108.0, 340.35 108.67, 350.62 109.33, 360.72 110.0, 370.65 110.67, 380.4 111.33, 390.0 112.0, 399.43 112.67, 408.7 113.33, 417.82 114.0, 426.78 114.67, 435.59 115.33, 444.25 116.0, 452.75 116.67, 461.12 117.33, 469.34 118.0, 477.42 118.67, 485.36 119.33, 493.16 120.0, 500.83 120.67, 508.36 121.33, 515.77 122.0, 523.04 122.67, 530.19 123.33, 537.21 124.0, 544.12 124.67, 550.89 125.33, 557.55 126.0, 564.1 126.67, 570.52 127.33, 576.84 128.0, 583.04 128.67, 589.13 129.33, 595.11 130.0, 600.99 130.67, 606.76 131.33, 612.42 132.0, 617.99 132.67, 623.45 133.33, 628.82 134.0, 634.08 134.67, 639.26 135.33, 644.33 136.0, 649.32 136.67, 654.21 137.33, 659.01 138.0, 663.73 138.67, 668.35 139.33, 672.89 140.0, 677.35 140.67, 681.72 141.33, 686.01 142.0, 690.22 142.67, 694.35 143.33, 698.4 144.0, 702.38 144.67, 706.28 145.33, 710.1 146.0, 713.85 146.67, 717.53 147.33, 721.14 148.0, 724.68 148.67, 728.15 149.33, 731.55 150.0, 734.88 150.67, 738.15 151.33, 741.35 152.0, 744.49 152.67, 747.57 153.33, 750.58 154.0, 753.54 154.67, 756.43 155.33, 759.27 156.0, 762.04 156.67, 764.76 157.33, 767.43 158.0, 770.04 158.67, 772.59 159.33, 775.09 160.0, 777.54 160.67, 779.93 161.33, 782.28 162.0, 784.57 162.67, 786.82 163.33, 789.01 164.0, 791.16 164.67, 793.26 165.33, 795.32 166.0, 797.33 166.67, 799.29 167.33, 801.21 168.0, 803.09 168.67, 804.92 169.33, 806.71 170.0, 808.46 170.67, 810.17 171.33, 811.83 172.0, 813.46 172.67, 815.05 173.33, 816.6 174.0, 818.11 174.67, 819.59 175.33, 821.03 176.0, 822.43 176.67, 823.8 177.33, 825.13 178.0, 826.43 178.67, 827.69 179.33, 828.92 180.0, 830.12 180.67, 831.28 181.33, 832.42 182.0, 833.52 182.67, 834.59 183.33, 835.63 184.0, 836.64 184.67, 837.63 185.33, 838.58 186.0, 839.5 186.67, 840.4 187.33, 841.27 188.0, 842.11 188.67, 842.92 189.33, 843.71 190.0, 844.48 190.67, 845.21 191.33, 845.92 192.0, 846.61 192.67, 847.27 193.33, 847.91 194.0, 848.53 194.67, 849.12 195.33, 849.69 196.0, 850.24 196.67, 850.76 197.33, 851.26 198.0, 851.75 198.67, 852.21 199.33, 852.64 200.0, 853.06 200.67, 853.46 201.33, 853.84 202.0, 854.2 202.67, 854.54 203.33, 854.86 204.0, 855.17 204.67, 855.45 205.33, 855.72 206.0, 855.96 206.67, 856.2 207.33, 856.41 208.0, 856.61 208.67, 856.79 209.33, 856.95 210.0, 857.1 210.67, 857.23 211.33, 857.35 212.0, 857.45 212.67, 857.53 213.33, 857.6 214.0, 857.66 214.67, 857.7 215.33, 857.73 216.0, 857.74 216.67, 857.74 217.33, 857.72 218.0, 857.7 218.67, 857.65 219.33, 857.6 220.0, 857.53 220.67, 857.45 221.33, 857.36 222.0, 857.26 222.67, 857.14 223.33, 857.02 224.0, 856.88 224.67, 856.73 225.33, 856.57 226.0, 856.39 226.67, 856.21 227.33, 856.01 228.0, 855.81 228.67, 855.59 229.33, 855.37 230.0, 855.13 230.67, 854.89 231.33, 854.63 232.0, 854.37 232.67, 854.09 233.33, 853.81 234.0, 853.52 234.67, 853.22 235.33, 852.91 236.0, 852.59 236.67, 852.26 237.33, 851.93 238.0, 851.58 238.67, 851.23 239.33, 850.87 240.0, 850.5 240.67, 850.13 241.33, 849.74 242.0, 849.35 242.67, 848.96 243.33, 848.55 244.0, 848.14 244.67, 847.72 245.33, 847.3 246.0, 846.86 246.67, 846.43 247.33, 845.98 248.0, 845.53 248.67, 845.07 249.33, 844.61 250.0, 844.14 250.67, 843.66 251.33, 843.18 252.0, 842.69 252.67, 842.2 253.33, 841.7 254.0, 841.2 254.67, 840.69 255.33, 840.17 256.0, 839.65 256.67, 839.13 257.33, 838.6 258.0, 838.07 258.67, 837.53 259.33, 836.99 260.0, 836.44 260.67, 835.89 261.33, 835.33 262.0, 834.77 262.67, 834.21 263.33, 833.64 264.0, 833.07 264.67, 832.49 265.33, 831.91 266.0, 831.33 266.67, 830.74 267.33, 830.15 268.0, 829.55 268.67, 828.96 269.33, 828.36 270.0, 827.75 270.67, 827.14 271.33, 826.53 272.0, 825.92 272.67, 825.31 273.33, 824.69 274.0, 824.07 274.67, 823.44 275.33, 822.81 276.0, 822.19 276.67, 821.55 277.33, 820.92 278.0, 820.28 278.67, 819.65 279.33, 819.01 280.0, 818.36 280.67, 817.72 281.33, 817.07 282.0, 816.43 282.67, 815.78 283.33, 815.12 284.0, 814.47 284.67, 813.82 285.33, 813.16 286.0, 812.5 286.67, 811.84 287.33, 811.18 288.0, 810.52 288.67, 809.86 289.33, 809.2 290.0, 808.53 290.67, 807.87 291.33, 807.2 292.0, 806.53 292.67, 805.86 293.33, 805.19 294.0, 804.53 294.67, 803.85 295.33, 803.18 296.0, 802.51 296.67, 801.84 297.33, 801.17 298.0, 800.5 298.67, 799.83 299.33, 799.15 300.0, 798.48 300.67, 797.81 301.33, 797.13 302.0, 796.46 302.67, 795.79 303.33, 795.12 304.0, 794.44 304.67, 793.77 305.33, 793.1 306.0, 792.43 306.67, 791.76 307.33, 791.09 308.0, 790.42 308.67, 789.75 309.33, 789.08 310.0, 788.41 310.67, 787.75 311.33, 787.08 312.0, 786.42 312.67, 785.75 313.33, 785.09 314.0, 784.43 314.67, 783.77 315.33, 783.11 316.0, 782.45 316.67, 781.79 317.33, 781.13 318.0, 780.48 318.67, 779.83 319.33, 779.17 320.0, 778.52 320.67, 777.87 321.33, 777.23 322.0, 776.58 322.67, 775.94 323.33, 775.29 324.0, 774.65 324.67, 774.02 325.33, 773.38 326.0, 772.74 326.67, 772.11 327.33, 771.48 328.0, 770.85 328.67, 770.22 329.33, 769.6 330.0, 768.98 330.67, 768.36 331.33, 767.74 332.0, 767.12 332.67, 766.51 333.33, 765.9 334.0, 765.29 334.67, 764.69 335.33, 764.08 336.0, 763.48 336.67, 762.88 337.33, 762.29 338.0, 761.7 338.67, 761.11 339.33, 760.52 340.0, 759.94 340.67, 759.35 341.33, 758.78 342.0, 758.2 342.67, 757.63 343.33, 757.06 344.0, 756.49 344.67, 755.93 345.33, 755.37 346.0, 754.81 346.67, 754.26 347.33, 753.71 348.0, 753.16 348.67, 752.62 349.33, 752.08 350.0, 751.54 350.67, 751.01 351.33, 750.48 352.0, 749.95 352.67, 749.43 353.33, 748.91 354.0, 748.4 354.67, 747.89 355.33, 747.38 356.0, 746.87 356.67, 746.37 357.33, 745.88 358.0, 745.38 358.67, 744.9 359.33, 744.41 360.0, 743.93 360.67, 743.45 361.33, 742.98 362.0, 742.51 362.67, 742.05 363.33, 741.59 364.0, 741.13 364.67, 740.68 365.33, 740.23 366.0, 739.79 366.67, 739.35 367.33, 738.91 368.0, 738.48 368.67, 738.06 369.33, 737.63 370.0, 737.22 370.67, 736.8 371.33, 736.4 372.0, 735.99 372.67, 735.59 373.33, 735.2 374.0, 734.81 374.67, 734.42 375.33, 734.04 376.0, 733.66 376.67, 733.29 377.33, 732.92 378.0, 732.56 378.67, 732.2 379.33, 731.85 380.0, 731.5 380.67, 731.16 381.33, 730.82 382.0, 730.49 382.67, 730.16 383.33, 729.84 384.0, 729.52 384.67, 729.2 385.33, 728.9 386.0, 728.59 386.67, 728.29 387.33, 728.0 388.0, 727.71 388.67, 727.43 389.33, 727.15 390.0, 726.88 390.67, 726.61 391.33, 726.35 392.0, 726.09 392.67, 725.84 393.33, 725.59 394.0, 725.35 394.67, 725.11 395.33, 724.88 396.0, 724.65 396.67, 724.43 397.33, 724.22 398.0, 724.01 398.67, 723.8 399.33, 723.6 400.0, 723.41 400.67, 723.22 401.33, 723.03 402.0, 722.86 402.67, 722.68 403.33, 722.52 404.0, 722.35 404.67, 722.2 405.33, 722.05 406.0, 721.9 406.67, 721.76 407.33, 721.63 408.0, 721.5 408.67, 721.37 409.33, 721.26 410.0, 721.14 410.67, 721.04 411.33, 720.93 412.0, 720.84 412.67, 720.75 413.33, 720.66 414.0, 720.58 414.67, 720.51 415.33, 720.44 416.0, 720.38 416.67, 720.32 417.33, 720.27 418.0, 720.22 418.67, 720.18 419.33, 720.15 420.0, 720.12 420.67, 720.1 421.33, 720.08 422.0, 720.06 422.67, 720.06 423.33, 720.06 424.0, 720.06 424.67, 720.07 425.33, 720.09 426.0, 720.11 426.67, 720.13 427.33, 720.17 428.0, 720.2 428.67, 720.25 429.33, 720.3 430.0, 720.35 430.67, 720.41 431.33, 720.47 432.0, 720.55 432.67, 720.62 433.33, 720.7 434.0, 720.79 434.67, 720.89 435.33, 720.98 436.0, 721.09 436.67, 721.2 437.33, 721.31 438.0, 721.43 438.67, 721.56 439.33, 721.69 440.0, 721.83 440.67, 721.97 441.33, 722.12 442.0, 722.27 442.67, 722.43 443.33, 722.59 444.0, 722.76 444.67, 722.94 445.33, 723.12 446.0, 723.31 446.67, 723.5 447.33, 723.69 448.0, 723.89 448.67, 724.1 449.33, 724.31 450.0, 724.53 450.67, 724.75 451.33, 724.98 452.0, 725.22 452.67, 725.45 453.33, 725.7 454.0, 725.95 454.67, 726.2 455.33, 726.46 456.0, 726.72 456.67, 726.99 457.33, 727.27 458.0, 727.55 458.67, 727.83 459.33, 728.12 460.0, 728.42 460.67, 728.71 461.33, 729.02 462.0, 729.33 462.67, 729.64 463.33, 729.96 464.0, 730.29 464.67, 730.61 465.33, 730.95 466.0, 731.29 466.67, 731.63 467.33, 731.98 468.0, 732.33 468.67, 732.69 469.33, 733.05 470.0, 733.42 470.67, 733.79 471.33, 734.17 472.0, 734.55 472.67, 734.93 473.33, 735.32 474.0, 735.72 474.67, 736.11 475.33, 736.52 476.0, 736.93 476.67, 737.34 477.33, 737.75 478.0, 738.17 478.67, 738.6 479.33, 739.03 480.0, 739.46 480.67, 739.9 481.33, 740.34 482.0, 740.79 482.67, 741.24 483.33, 741.69 484.0, 742.15 484.67, 742.61 485.33, 743.08 486.0, 743.55 486.67, 744.02 487.33, 744.5 488.0, 744.98 488.67, 745.47 489.33, 745.96 490.0, 746.45 490.67, 746.95 491.33, 747.45 492.0, 747.95 492.67, 748.46 493.33, 748.97 494.0, 749.49 494.67, 750.01 495.33, 750.53 496.0, 751.05 496.67, 751.58 497.33, 752.12 498.0, 752.65 498.67, 753.19 499.33, 753.73 500.0, 754.28 500.67, 754.83 501.33, 755.38 502.0, 755.93 502.67, 756.49 503.33, 757.05 504.0, 757.62 504.67, 758.18 505.33, 758.75 506.0, 759.32 506.67, 759.9 507.33, 760.48 508.0, 761.06 508.67, 761.64 509.33, 762.23 510.0, 762.82 510.67, 763.41 511.33, 764.0 512.0, 764.6 512.67, 765.2 513.33, 765.8 514.0, 766.4 514.67, 767.01 515.33, 767.62 516.0, 768.23 516.67, 768.84 517.33, 769.46 518.0, 770.07 518.67, 770.69 519.33, 771.31 520.0, 771.94 520.67, 772.56 521.33, 773.19 522.0, 773.82 522.67, 774.45 523.33, 775.08 524.0, 775.72 524.67, 776.35 525.33, 776.99 526.0, 777.63 526.67, 778.27 527.33, 778.91 528.0, 779.56 528.67, 780.2 529.33, 780.85 530.0, 781.5 530.67, 782.15 531.33, 782.8 532.0, 783.45 532.67, 784.1 533.33, 784.76 534.0, 785.41 534.67, 786.07 535.33, 786.72 536.0, 787.38 536.67, 788.04 537.33, 788.7 538.0, 789.36 538.67, 790.02 539.33, 790.68 540.0, 791.34 540.67, 792.01 541.33, 792.67 542.0, 793.34 542.67, 794.0 543.33, 794.66 544.0, 795.33 544.67, 796.0 545.33, 796.66 546.0, 797.33 546.67, 797.99 547.33, 798.66 548.0, 799.33 548.67, 799.99 549.33, 800.66 550.0, 801.33 550.67, 801.99 551.33, 802.66 552.0, 803.33 552.67, 803.99 553.33, 804.66 554.0, 805.32 554.67, 805.99 555.33, 806.65 556.0, 807.32 556.67, 807.98 557.33, 808.64 558.0, 809.31 558.67, 809.97 559.33, 810.63 560.0, 811.29 560.67, 811.95 561.33, 812.61 562.0, 813.27 562.67, 813.92 563.33, 814.58 564.0, 815.23 564.67, 815.89 565.33, 816.54 566.0, 817.19 566.67, 817.84 567.33, 818.49 568.0, 819.14 568.67, 819.79 569.33, 820.43 570.0, 821.08 570.67, 821.72 571.33, 822.36 572.0, 823.0 572.67, 823.64 573.33, 824.27 574.0, 824.91 574.67, 825.54 575.33, 826.17 576.0, 826.8 576.67, 827.43 577.33, 828.05 578.0, 828.67 578.67, 829.3 579.33, 829.92 580.0, 830.53 580.67, 831.15 581.33, 831.76 582.0, 832.37 582.67, 832.98 583.33, 833.59 584.0, 834.19 584.67, 834.79 585.33, 835.39 586.0, 835.99 586.67, 836.58 587.33, 837.17 588.0, 837.76 588.67, 838.35 589.33, 838.93 590.0, 839.51 590.67, 840.09 591.33, 840.67 592.0, 841.24 592.67, 841.81 593.33, 842.38 594.0, 842.94 594.67, 843.5 595.33, 844.06 596.0, 844.61 596.67, 845.17 597.33, 845.72 598.0, 846.26 598.67, 846.8 599.33, 847.34 600.0, 847.88 600.67, 848.41 601.33, 848.94 602.0, 849.46 602.67, 849.99 603.33, 850.51 604.0, 851.02 604.67, 851.53 605.33, 852.04 606.0, 852.55 606.67, 853.05 607.33, 853.54 608.0, 854.04 608.67, 854.53 609.33, 855.01 610.0, 855.49 610.67, 855.97 611.33, 856.45 612.0, 856.92 612.67, 857.38 613.33, 857.85 614.0, 858.31 614.67, 858.76 615.33, 859.21 616.0, 859.66 616.67, 860.1 617.33, 860.54 618.0, 860.97 618.67, 861.4 619.33, 861.82 620.0, 862.25 620.67, 862.66 621.33, 863.07 622.0, 863.48 622.67, 863.89 623.33, 864.29 624.0, 864.68 624.67, 865.07 625.33, 865.46 626.0, 865.84 626.67, 866.21 627.33, 866.58 628.0, 866.95 628.67, 867.31 629.33, 867.67 630.0, 868.03 630.67, 868.37 631.33, 868.72 632.0, 869.06 632.67, 869.39 633.33, 869.72 634.0, 870.04 634.67, 870.36 635.33, 870.68 636.0, 870.99 636.67, 871.29 637.33, 871.59 638.0, 871.89 638.67, 872.18 639.33, 872.46 640.0, 872.74 640.67, 873.02 641.33, 873.29 642.0, 873.55 642.67, 873.81 643.33, 874.07 644.0, 874.32 644.67, 874.56 645.33, 874.8 646.0, 875.03 646.67, 875.26 647.33, 875.49 648.0, 875.7 648.67, 875.92 649.33, 876.12 650.0, 876.33 650.67, 876.52 651.33, 876.72 652.0, 876.9 652.67, 877.08 653.33, 877.26 654.0, 877.43 654.67, 877.59 655.33, 877.75 656.0, 877.91 656.67, 878.06 657.33, 878.2 658.0, 878.34 658.67, 878.47 659.33, 878.6 660.0, 878.72 660.67, 878.83 661.33, 878.95 662.0, 879.05 662.67, 879.15 663.33, 879.24 664.0, 879.33 664.67, 879.42 665.33, 879.49 666.0, 879.57 666.67, 879.63 667.33, 879.69 668.0, 879.75 668.67, 879.8 669.33, 879.84 670.0, 879.88 670.67, 879.92 671.33, 879.94 672.0, 879.97 672.67, 879.98 673.33, 879.99 674.0, 880.0 674.67, 880.0 675.33, 879.99 676.0, 879.98 676.67, 879.97 677.33, 879.94 678.0, 879.92 678.67, 879.88 679.33, 879.84 680.0, 879.8 680.67, 879.75 681.33, 879.69 682.0, 879.63 682.67, 879.57 683.33, 879.49 684.0, 879.42 684.67, 879.33 685.33, 879.25 686.0, 879.15 686.67, 879.05 687.33, 878.95 688.0, 878.84 688.67, 878.72 689.33, 878.6 690.0, 878.47 690.67, 878.34 691.33, 878.2 692.0, 878.06 692.67, 877.91 693.33, 877.76 694.0, 877.6 694.67, 877.43 695.33, 877.26 696.0, 877.08 696.67, 876.9 697.33, 876.72 698.0, 876.53 698.67, 876.33 699.33, 876.13 700.0, 875.92 700.67, 875.71 701.33, 875.49 702.0, 875.26 702.67, 875.04 703.33, 874.8 704.0, 874.56 704.67, 874.32 705.33, 874.07 706.0, 873.82 706.67, 873.56 707.33, 873.29 708.0, 873.02 708.67, 872.75 709.33, 872.47 710.0, 872.18 710.67, 871.89 711.33, 871.6 712.0, 871.3 712.67, 870.99 713.33, 870.68 714.0, 870.37 714.67, 870.05 715.33, 869.72 716.0, 869.39 716.67, 869.06 717.33, 868.72 718.0, 868.38 718.67, 868.03 719.33, 867.68 720.0, 867.32 720.67, 866.96 721.33, 866.59 722.0, 866.22 722.67, 865.84 723.33, 865.46 724.0, 865.07 724.67, 864.68 725.33, 864.29 726.0, 863.89 726.67, 863.49 727.33, 863.08 728.0, 862.67 728.67, 862.25 729.33, 861.83 730.0, 861.4 730.67, 860.97 731.33, 860.54 732.0, 860.1 732.67, 859.66 733.33, 859.21 734.0, 858.76 734.67, 858.31 735.33, 857.85 736.0, 857.39 736.67, 856.92 737.33, 856.45 738.0, 855.98 738.67, 855.5 739.33, 855.02 740.0, 854.53 740.67, 854.04 741.33, 853.55 742.0, 853.05 742.67, 852.55 743.33, 852.05 744.0, 851.54 744.67, 851.03 745.33, 850.51 746.0, 849.99 746.67, 849.47 747.33, 848.94 748.0, 848.41 748.67, 847.88 749.33, 847.35 750.0, 846.81 750.67, 846.27 751.33, 845.72 752.0, 845.17 752.67, 844.62 753.33, 844.06 754.0, 843.51 754.67, 842.95 755.33, 842.38 756.0, 841.81 756.67, 841.25 757.33, 840.67 758.0, 840.1 758.67, 839.52 759.33, 838.94 760.0, 838.35 760.67, 837.77 761.33, 837.18 762.0, 836.59 762.67, 835.99 763.33, 835.4 764.0, 834.8 764.67, 834.2 765.33, 833.59 766.0, 832.99 766.67, 832.38 767.33, 831.77 768.0, 831.15 768.67, 830.54 769.33, 829.92 770.0, 829.3 770.67, 828.68 771.33, 828.06 772.0, 827.43 772.67, 826.8 773.33, 826.18 774.0, 825.54 774.67, 824.91 775.33, 824.28 776.0, 823.64 776.67, 823.0 777.33, 822.36 778.0, 821.72 778.67, 821.08 779.33, 820.44 780.0, 819.79 780.67, 819.15 781.33, 818.5 782.0, 817.85 782.67, 817.2 783.33, 816.55 784.0, 815.89 784.67, 815.24 785.33, 814.58 786.0, 813.93 786.67, 813.27 787.33, 812.61 788.0, 811.96 788.67, 811.3 789.33, 810.64 790.0, 809.97 790.67, 809.31 791.33, 808.65 792.0, 807.99 792.67, 807.32 793.33, 806.66 794.0, 805.99 794.67, 805.33 795.33, 804.66 796.0, 804.0 796.67, 803.33 797.33, 802.67 798.0, 802.0 798.67, 801.33 799.33, 800.67 800.0, 800.0 800.67, 799.33 801.33, 798.67 802.0, 798.0 802.67, 797.33 803.33, 796.67 804.0, 796.0 804.67, 795.34 805.33, 794.67 806.0, 794.01 806.67, 793.34 807.33, 792.68 808.0, 792.01 808.67, 791.35 809.33, 790.69 810.0, 790.03 810.67, 789.36 811.33, 788.7 812.0, 788.04 812.67, 787.39 813.33, 786.73 814.0, 786.07 814.67, 785.42 815.33, 784.76 816.0, 784.11 816.67, 783.45 817.33, 782.8 818.0, 782.15 818.67, 781.5 819.33, 780.85 820.0, 780.21 820.67, 779.56 821.33, 778.92 822.0, 778.28 822.67, 777.64 823.33, 777.0 824.0, 776.36 824.67, 775.72 825.33, 775.09 826.0, 774.46 826.67, 773.82 827.33, 773.2 828.0, 772.57 828.67, 771.94 829.33, 771.32 830.0, 770.7 830.67, 770.08 831.33, 769.46 832.0, 768.85 832.67, 768.23 833.33, 767.62 834.0, 767.01 834.67, 766.41 835.33, 765.8 836.0, 765.2 836.67, 764.6 837.33, 764.01 838.0, 763.41 838.67, 762.82 839.33, 762.23 840.0, 761.65 840.67, 761.06 841.33, 760.48 842.0, 759.9 842.67, 759.33 843.33, 758.75 844.0, 758.19 844.67, 757.62 845.33, 757.05 846.0, 756.49 846.67, 755.94 847.33, 755.38 848.0, 754.83 848.67, 754.28 849.33, 753.73 850.0, 753.19 850.67, 752.65 851.33, 752.12 852.0, 751.59 852.67, 751.06 853.33, 750.53 854.0, 750.01 854.67, 749.49 855.33, 748.97 856.0, 748.46 856.67, 747.95 857.33, 747.45 858.0, 746.95 858.67, 746.45 859.33, 745.96 860.0, 745.47 860.67, 744.98 861.33, 744.5 862.0, 744.02 862.67, 743.55 863.33, 743.08 864.0, 742.61 864.67, 742.15 865.33, 741.69 866.0, 741.24 866.67, 740.79 867.33, 740.34 868.0, 739.9 868.67, 739.46 869.33, 739.03 870.0, 738.6 870.67, 738.17 871.33, 737.75 872.0, 737.33 872.67, 736.92 873.33, 736.51 874.0, 736.11 874.67, 735.71 875.33, 735.32 876.0, 734.93 876.67, 734.54 877.33, 734.16 878.0, 733.78 878.67, 733.41 879.33, 733.04 880.0, 732.68 880.67, 732.32 881.33, 731.97 882.0, 731.62 882.67, 731.28 883.33, 730.94 884.0, 730.61 884.67, 730.28 885.33, 729.95 886.0, 729.63 886.67, 729.32 887.33, 729.01 888.0, 728.7 888.67, 728.4 889.33, 728.11 890.0, 727.82 890.67, 727.53 891.33, 727.25 892.0, 726.98 892.67, 726.71 893.33, 726.44 894.0, 726.18 894.67, 725.93 895.33, 725.68 896.0, 725.44 896.67, 725.2 897.33, 724.96 898.0, 724.74 898.67, 724.51 899.33, 724.29 900.0, 724.08 900.67, 723.87 901.33, 723.67 902.0, 723.47 902.67, 723.28 903.33, 723.1 904.0, 722.92 904.67, 722.74 905.33, 722.57 906.0, 722.4 906.67, 722.24 907.33, 722.09 908.0, 721.94 908.67, 721.8 909.33, 721.66 910.0, 721.53 910.67, 721.4 911.33, 721.28 912.0, 721.16 912.67, 721.05 913.33, 720.95 914.0, 720.85 914.67, 720.75 915.33, 720.67 916.0, 720.58 916.67, 720.51 917.33, 720.43 918.0, 720.37 918.67, 720.31 919.33, 720.25 920.0, 720.2 920.67, 720.16 921.33, 720.12 922.0, 720.08 922.67, 720.06 923.33, 720.03 924.0, 720.02 924.67, 720.01 925.33, 720.0 926.0, 720.0 926.67, 720.01 927.33, 720.02 928.0, 720.03 928.67, 720.06 929.33, 720.08 930.0, 720.12 930.67, 720.16 931.33, 720.2 932.0, 720.25 932.67, 720.31 933.33, 720.37 934.0, 720.43 934.67, 720.51 935.33, 720.58 936.0, 720.67 936.67, 720.76 937.33, 720.85 938.0, 720.95 938.67, 721.05 939.33, 721.17 940.0, 721.28 940.67, 721.4 941.33, 721.53 942.0, 721.66 942.67, 721.8 943.33, 721.94 944.0, 722.09 944.67, 722.25 945.33, 722.41 946.0, 722.57 946.67, 722.74 947.33, 722.92 948.0, 723.1 948.67, 723.28 949.33, 723.48 950.0, 723.67 950.67, 723.88 951.33, 724.08 952.0, 724.3 952.67, 724.51 953.33, 724.74 954.0, 724.97 954.67, 725.2 955.33, 725.44 956.0, 725.68 956.67, 725.93 957.33, 726.19 958.0, 726.45 958.67, 726.71 959.33, 726.98 960.0, 727.26 960.67, 727.54 961.33, 727.82 962.0, 728.11 962.67, 728.41 963.33, 728.71 964.0, 729.01 964.67, 729.32 965.33, 729.64 966.0, 729.96 966.67, 730.28 967.33, 730.61 968.0, 730.94 968.67, 731.28 969.33, 731.63 970.0, 731.97 970.67, 732.33 971.33, 732.69 972.0, 733.05 972.67, 733.42 973.33, 733.79 974.0, 734.16 974.67, 734.54 975.33, 734.93 976.0, 735.32 976.67, 735.71 977.33, 736.11 978.0, 736.52 978.67, 736.93 979.33, 737.34 980.0, 737.75 980.67, 738.18 981.33, 738.6 982.0, 739.03 982.67, 739.46 983.33, 739.9 984.0, 740.34 984.67, 740.79 985.33, 741.24 986.0, 741.69 986.67, 742.15 987.33, 742.62 988.0, 743.08 988.67, 743.55 989.33, 744.03 990.0, 744.51 990.67, 744.99 991.33, 745.47 992.0, 745.96 992.67, 746.46 993.33, 746.95 994.0, 747.45 994.67, 747.96 995.33, 748.47 996.0, 748.98 996.67, 749.49 997.33, 750.01 998.0, 750.54 998.67, 751.06 999.33, 751.59 1000.0, 752.12 1000.67, 752.66 1001.33, 753.2 1002.0, 753.74 1002.67, 754.28 1003.33, 754.83 1004.0, 755.39 1004.67, 755.94 1005.33, 756.5 1006.0, 757.06 1006.67, 757.62 1007.33, 758.19 1008.0, 758.76 1008.67, 759.33 1009.33, 759.91 1010.0, 760.49 1010.67, 761.07 1011.33, 761.65 1012.0, 762.24 1012.67, 762.83 1013.33, 763.42 1014.0, 764.01 1014.67, 764.61 1015.33, 765.21 1016.0, 765.81 1016.67, 766.41 1017.33, 767.02 1018.0, 767.63 1018.67, 768.24 1019.33, 768.85 1020.0, 769.47 1020.67, 770.08 1021.33, 770.7 1022.0, 771.33 1022.67, 771.95 1023.33, 772.57 1024.0, 773.2 1024.67, 773.83 1025.33, 774.46 1026.0, 775.09 1026.67, 775.73 1027.33, 776.36 1028.0, 777.0 1028.67, 777.64 1029.33, 778.28 1030.0, 778.92 1030.67, 779.57 1031.33, 780.21 1032.0, 780.86 1032.67, 781.51 1033.33, 782.16 1034.0, 782.81 1034.67, 783.46 1035.33, 784.11 1036.0, 784.77 1036.67, 785.42 1037.33, 786.08 1038.0, 786.73 1038.67, 787.39 1039.33, 788.05 1040.0, 788.71 1040.67, 789.37 1041.33, 790.03 1042.0, 790.69 1042.67, 791.36 1043.33, 792.02 1044.0, 792.68 1044.67, 793.35 1045.33, 794.01 1046.0, 794.68 1046.67, 795.34 1047.33, 796.01 1048.0, 796.67 1048.67, 797.34 1049.33, 798.01 1050.0, 798.67 1050.67, 799.34 1051.33, 800.01 1052.0, 800.67 1052.67, 801.34 1053.33, 802.01 1054.0, 802.67 1054.67, 803.34 1055.33, 804.0 1056.0, 804.67 1056.67, 805.34 1057.33, 806.0 1058.0, 806.66 1058.67, 807.33 1059.33, 807.99 1060.0, 808.66 1060.67, 809.32 1061.33, 809.98 1062.0, 810.64 1062.67, 811.3 1063.33, 811.96 1064.0, 812.62 1064.67, 813.28 1065.33, 813.93 1066.0, 814.59 1066.67, 815.24 1067.33, 815.9 1068.0, 816.55 1068.67, 817.2 1069.33, 817.85 1070.0, 818.5 1070.67, 819.15 1071.33, 819.8 1072.0, 820.44 1072.67, 821.09 1073.33, 821.73 1074.0, 822.37 1074.67, 823.01 1075.33, 823.65 1076.0, 824.28 1076.67, 824.92 1077.33, 825.55 1078.0, 826.18 1078.67, 826.81 1079.33, 827.44 1080.0, 828.06 1080.67, 828.69 1081.33, 829.31 1082.0, 829.93 1082.67, 830.54 1083.33, 831.16 1084.0, 831.77 1084.67, 832.38 1085.33, 832.99 1086.0, 833.6 1086.67, 834.2 1087.33, 834.8 1088.0, 835.4 1088.67, 836.0 1089.33, 836.59 1090.0, 837.18 1090.67, 837.77 1091.33, 838.36 1092.0, 838.94 1092.67, 839.52 1093.33, 840.1 1094.0, 840.68 1094.67, 841.25 1095.33, 841.82 1096.0, 842.38 1096.67, 842.95 1097.33, 843.51 1098.0, 844.07 1098.67, 844.62 1099.33, 845.17 1100.0, 845.72 1100.67, 846.27 1101.33, 846.81 1102.0, 847.35 1102.67, 847.88 1103.33, 848.42 1104.0, 848.95 1104.67, 849.47 1105.33, 849.99 1106.0, 850.51 1106.67, 851.03 1107.33, 851.54 1108.0, 852.05 1108.67, 852.55 1109.33, 853.05 1110.0, 853.55 1110.67, 854.04 1111.33, 854.53 1112.0, 855.02 1112.67, 855.5 1113.33, 855.98 1114.0, 856.45 1114.67, 856.92 1115.33, 857.39 1116.0, 857.85 1116.67, 858.31 1117.33, 858.76 1118.0, 859.21 1118.67, 859.66 1119.33, 860.1 1120.0, 860.54 1120.67, 860.97 1121.33, 861.4 1122.0, 861.83 1122.67, 862.25 1123.33, 862.66 1124.0, 863.07 1124.67, 863.48 1125.33, 863.89 1126.0, 864.28 1126.67, 864.68 1127.33, 865.07 1128.0, 865.45 1128.67, 865.83 1129.33, 866.21 1130.0, 866.58 1130.67, 866.95 1131.33, 867.31 1132.0, 867.67 1132.67, 868.02 1133.33, 868.37 1134.0, 868.71 1134.67, 869.05 1135.33, 869.39 1136.0, 869.71 1136.67, 870.04 1137.33, 870.36 1138.0, 870.67 1138.67, 870.98 1139.33, 871.29 1140.0, 871.58 1140.67, 871.88 1141.33, 872.17 1142.0, 872.45 1142.67, 872.73 1143.33, 873.01 1144.0, 873.28 1144.67, 873.54 1145.33, 873.8 1146.0, 874.05 1146.67, 874.3 1147.33, 874.55 1148.0, 874.78 1148.67, 875.02 1149.33, 875.25 1150.0, 875.47 1150.67, 875.69 1151.33, 875.9 1152.0, 876.11 1152.67, 876.31 1153.33, 876.5 1154.0, 876.69 1154.67, 876.88 1155.33, 877.06 1156.0, 877.24 1156.67, 877.41 1157.33, 877.57 1158.0, 877.73 1158.67, 877.88 1159.33, 878.03 1160.0, 878.17 1160.67, 878.31 1161.33, 878.44 1162.0, 878.57 1162.67, 878.69 1163.33, 878.8 1164.0, 878.91 1164.67, 879.02 1165.33, 879.11 1166.0, 879.21 1166.67, 879.3 1167.33, 879.38 1168.0, 879.45 1168.67, 879.53 1169.33, 879.59 1170.0, 879.65 1170.67, 879.7 1171.33, 879.75 1172.0, 879.8 1172.67, 879.83 1173.33, 879.87 1174.0, 879.89 1174.67, 879.91 1175.33, 879.93 1176.0, 879.94 1176.67, 879.94 1177.33, 879.94 1178.0, 879.94 1178.67, 879.92 1179.33, 879.9 1180.0, 879.88 1180.67, 879.85 1181.33, 879.82 1182.0, 879.78 1182.67, 879.73 1183.33, 879.68 1184.0, 879.62 1184.67, 879.56 1185.33, 879.49 1186.0, 879.42 1186.67, 879.34 1187.33, 879.25 1188.0, 879.16 1188.67, 879.07 1189.33, 878.96 1190.0, 878.86 1190.67, 878.74 1191.33, 878.63 1192.0, 878.5 1192.67, 878.37 1193.33, 878.24 1194.0, 878.1 1194.67, 877.95 1195.33, 877.8 1196.0, 877.65 1196.67, 877.48 1197.33, 877.32 1198.0, 877.14 1198.67, 876.97 1199.33, 876.78 1200.0, 876.59 1200.67, 876.4 1201.33, 876.2 1202.0, 875.99 1202.67, 875.78 1203.33, 875.57 1204.0, 875.35 1204.67, 875.12 1205.33, 874.89 1206.0, 874.65 1206.67, 874.41 1207.33, 874.16 1208.0, 873.91 1208.67, 873.65 1209.33, 873.39 1210.0, 873.12 1210.67, 872.85 1211.33, 872.57 1212.0, 872.29 1212.67, 872.0 1213.33, 871.71 1214.0, 871.41 1214.67, 871.1 1215.33, 870.8 1216.0, 870.48 1216.67, 870.16 1217.33, 869.84 1218.0, 869.51 1218.67, 869.18 1219.33, 868.84 1220.0, 868.5 1220.67, 868.15 1221.33, 867.8 1222.0, 867.44 1222.67, 867.08 1223.33, 866.71 1224.0, 866.34 1224.67, 865.96 1225.33, 865.58 1226.0, 865.19 1226.67, 864.8 1227.33, 864.41 1228.0, 864.01 1228.67, 863.6 1229.33, 863.2 1230.0, 862.78 1230.67, 862.37 1231.33, 861.94 1232.0, 861.52 1232.67, 861.09 1233.33, 860.65 1234.0, 860.21 1234.67, 859.77 1235.33, 859.32 1236.0, 858.87 1236.67, 858.41 1237.33, 857.95 1238.0, 857.49 1238.67, 857.02 1239.33, 856.55 1240.0, 856.07 1240.67, 855.59 1241.33, 855.1 1242.0, 854.62 1242.67, 854.12 1243.33, 853.63 1244.0, 853.13 1244.67, 852.62 1245.33, 852.11 1246.0, 851.6 1246.67, 851.09 1247.33, 850.57 1248.0, 850.05 1248.67, 849.52 1249.33, 848.99 1250.0, 848.46 1250.67, 847.92 1251.33, 847.38 1252.0, 846.84 1252.67, 846.29 1253.33, 845.74 1254.0, 845.19 1254.67, 844.63 1255.33, 844.07 1256.0, 843.51 1256.67, 842.94 1257.33, 842.37 1258.0, 841.8 1258.67, 841.22 1259.33, 840.65 1260.0, 840.06 1260.67, 839.48 1261.33, 838.89 1262.0, 838.3 1262.67, 837.71 1263.33, 837.12 1264.0, 836.52 1264.67, 835.92 1265.33, 835.31 1266.0, 834.71 1266.67, 834.1 1267.33, 833.49 1268.0, 832.88 1268.67, 832.26 1269.33, 831.64 1270.0, 831.02 1270.67, 830.4 1271.33, 829.78 1272.0, 829.15 1272.67, 828.52 1273.33, 827.89 1274.0, 827.26 1274.67, 826.62 1275.33, 825.98 1276.0, 825.35 1276.67, 824.71 1277.33, 824.06 1278.0, 823.42 1278.67, 822.77 1279.33, 822.13 1280.0, 821.48 1280.67, 820.83 1281.33, 820.17 1282.0, 819.52 1282.67, 818.87 1283.33, 818.21 1284.0, 817.55 1284.67, 816.89 1285.33, 816.23 1286.0, 815.57 1286.67, 814.91 1287.33, 814.25 1288.0, 813.58 1288.67, 812.92 1289.33, 812.25 1290.0, 811.59 1290.67, 810.92 1291.33, 810.25 1292.0, 809.58 1292.67, 808.91 1293.33, 808.24 1294.0, 807.57 1294.67, 806.9 1295.33, 806.23 1296.0, 805.56 1296.67, 804.88 1297.33, 804.21 1298.0, 803.54 1298.67, 802.87 1299.33, 802.19 1300.0, 801.52 1300.67, 800.85 1301.33, 800.17 1302.0, 799.5 1302.67, 798.83 1303.33, 798.16 1304.0, 797.49 1304.67, 796.82 1305.33, 796.15 1306.0, 795.47 1306.67, 794.81 1307.33, 794.14 1308.0, 793.47 1308.67, 792.8 1309.33, 792.13 1310.0, 791.47 1310.67, 790.8 1311.33, 790.14 1312.0, 789.48 1312.67, 788.82 1313.33, 788.16 1314.0, 787.5 1314.67, 786.84 1315.33, 786.18 1316.0, 785.53 1316.67, 784.88 1317.33, 784.22 1318.0, 783.57 1318.67, 782.93 1319.33, 782.28 1320.0, 781.64 1320.67, 780.99 1321.33, 780.35 1322.0, 779.72 1322.67, 779.08 1323.33, 778.45 1324.0, 777.81 1324.67, 777.19 1325.33, 776.56 1326.0, 775.93 1326.67, 775.31 1327.33, 774.69 1328.0, 774.08 1328.67, 773.47 1329.33, 772.86 1330.0, 772.25 1330.67, 771.64 1331.33, 771.04 1332.0, 770.45 1332.67, 769.85 1333.33, 769.26 1334.0, 768.67 1334.67, 768.09 1335.33, 767.51 1336.0, 766.93 1336.67, 766.36 1337.33, 765.79 1338.0, 765.23 1338.67, 764.67 1339.33, 764.11 1340.0, 763.56 1340.67, 763.01 1341.33, 762.47 1342.0, 761.93 1342.67, 761.4 1343.33, 760.87 1344.0, 760.35 1344.67, 759.83 1345.33, 759.31 1346.0, 758.8 1346.67, 758.3 1347.33, 757.8 1348.0, 757.31 1348.67, 756.82 1349.33, 756.34 1350.0, 755.86 1350.67, 755.39 1351.33, 754.93 1352.0, 754.47 1352.67, 754.02 1353.33, 753.57 1354.0, 753.14 1354.67, 752.7 1355.33, 752.28 1356.0, 751.86 1356.67, 751.45 1357.33, 751.04 1358.0, 750.65 1358.67, 750.26 1359.33, 749.87 1360.0, 749.5 1360.67, 749.13 1361.33, 748.77 1362.0, 748.42 1362.67, 748.07 1363.33, 747.74 1364.0, 747.41 1364.67, 747.09 1365.33, 746.78 1366.0, 746.48 1366.67, 746.19 1367.33, 745.91 1368.0, 745.63 1368.67, 745.37 1369.33, 745.11 1370.0, 744.87 1370.67, 744.63 1371.33, 744.41 1372.0, 744.19 1372.67, 743.99 1373.33, 743.79 1374.0, 743.61 1374.67, 743.43 1375.33, 743.27 1376.0, 743.12 1376.67, 742.98 1377.33, 742.86 1378.0, 742.74 1378.67, 742.64 1379.33, 742.55 1380.0, 742.47 1380.67, 742.4 1381.33, 742.35 1382.0, 742.3 1382.67, 742.28 1383.33, 742.26 1384.0, 742.26 1384.67, 742.27 1385.33, 742.3 1386.0, 742.34 1386.67, 742.4 1387.33, 742.47 1388.0, 742.55 1388.67, 742.65 1389.33, 742.77 1390.0, 742.9 1390.67, 743.05 1391.33, 743.21 1392.0, 743.39 1392.67, 743.59 1393.33, 743.8 1394.0, 744.04 1394.67, 744.28 1395.33, 744.55 1396.0, 744.83 1396.67, 745.14 1397.33, 745.46 1398.0, 745.8 1398.67, 746.16 1399.33, 746.54 1400.0, 746.94 1400.67, 747.36 1401.33, 747.79 1402.0, 748.25 1402.67, 748.74 1403.33, 749.24 1404.0, 749.76 1404.67, 750.31 1405.33, 750.88 1406.0, 751.47 1406.67, 752.09 1407.33, 752.73 1408.0, 753.39 1408.67, 754.08 1409.33, 754.79 1410.0, 755.52 1410.67, 756.29 1411.33, 757.08 1412.0, 757.89 1412.67, 758.73 1413.33, 759.6 1414.0, 760.5 1414.67, 761.42 1415.33, 762.37 1416.0, 763.36 1416.67, 764.37 1417.33, 765.41 1418.0, 766.48 1418.67, 767.58 1419.33, 768.72 1420.0, 769.88 1420.67, 771.08 1421.33, 772.31 1422.0, 773.57 1422.67, 774.87 1423.33, 776.2 1424.0, 777.57 1424.67, 778.97 1425.33, 780.41 1426.0, 781.89 1426.67, 783.4 1427.33, 784.95 1428.0, 786.54 1428.67, 788.17 1429.33, 789.83 1430.0, 791.54 1430.67, 793.29 1431.33, 795.08 1432.0, 796.91 1432.67, 798.79 1433.33, 800.71 1434.0, 802.67 1434.67, 804.68 1435.33, 806.74 1436.0, 808.84 1436.67, 810.99 1437.33, 813.18 1438.0, 815.43 1438.67, 817.72 1439.33, 820.07 1440.0, 822.46 1440.67, 824.91 1441.33, 827.41 1442.0, 829.96 1442.67, 832.57 1443.33, 835.24 1444.0, 837.96 1444.67, 840.73 1445.33, 843.57 1446.0, 846.46 1446.67, 849.42 1447.33, 852.43 1448.0, 855.51 1448.67, 858.65 1449.33, 861.85 1450.0, 865.12 1450.67, 868.45 1451.33, 871.85 1452.0, 875.32 1452.67, 878.86 1453.33, 882.47 1454.0, 886.15 1454.67, 889.9 1455.33, 893.72 1456.0, 897.62 1456.67, 901.6 1457.33, 905.65 1458.0, 909.78 1458.67, 913.99 1459.33, 918.28 1460.0, 922.65 1460.67, 927.11 1461.33, 931.65 1462.0, 936.27 1462.67, 940.99 1463.33, 945.79 1464.0, 950.68 1464.67, 955.67 1465.33, 960.74 1466.0, 965.92 1466.67, 971.18 1467.33, 976.55 1468.0, 982.01 1468.67, 987.58 1469.33, 993.24 1470.0, 999.01 1470.67, 1004.89 1471.33, 1010.87 1472.0, 1016.96 1472.67, 1023.16 1473.33, 1029.48 1474.0, 1035.9 1474.67, 1042.45 1475.33, 1049.11 1476.0, 1055.88 1476.67, 1062.79 1477.33, 1069.81 1478.0, 1076.96 1478.67, 1084.23 1479.33, 1091.64 1480.0, 1099.17 1480.67, 1106.84 1481.33, 1114.64 1482.0, 1122.58 1482.67, 1130.66 1483.33, 1138.88 1484.0, 1147.25 1484.67, 1155.75 1485.33, 1164.41 1486.0, 1173.22 1486.67, 1182.18 1487.33, 1191.3 1488.0, 1200.57 1488.67, 1210.0 1489.33, 1219.6 1490.0, 1229.35 1490.67, 1239.28 1491.33, 1249.38 1492.0, 1259.65 1492.67, 1270.09 1493.33, 1280.71 1494.0, 1291.51 1494.67, 1302.5 1495.33, 1313.67 1496.0, 1325.03 1496.67, 1336.58 1497.33, 1348.33 1498.0, 1360.27 1498.67, 1372.42 1499.33, 1384.77 1500.0, 1397.32 1500.67, 1410.09 1501.33, 1423.07 1502.0, 1436.26 1502.67, 1449.68 1503.33, 1463.31 1504.0, 1477.18 1504.67, 1491.27 1505.33, 1505.6 1506.0, 1520.16 1506.67, 1534.97 1507.33, 1550.01 1508.0, 1565.31 1508.67, 1580.85 1509.33, 1596.66 1510.0, 1612.72 1510.67, 1629.04 1511.33, 1645.63 1512.0, 1662.49 1512.67, 1679.62 1513.33, 1697.04 1514.0, 1714.74 1514.67, 1732.72 1515.33, 1751.0 1516.0, 1769.57 1516.67, 1788.44 1517.33, 1807.61 1518.0, 1827.1 1518.67, 1846.9 1519.33, 1867.02 1520.0, 1887.46 1520.67, 1908.22 1521.33, 1929.33 1522.0, 1950.76 1522.67, 1972.55 1523.33, 1994.67 1524.0, 2017.16 1524.67, 2039.99 1525.33, 2063.2 1526.0, 2086.77 1526.67, 2110.71 1527.33, 2135.03 1528.0, 2159.74 1528.67, 2184.84 1529.33, 2210.34 1530.0, 2236.23 1530.67, 2262.54 1531.33, 2289.26 1532.0, 2316.39 1532.67, 2343.96 1533.33, 2371.95 1534.0, 2400.39 1534.67, 2429.26 1535.33, 2458.59 1536.0, 2488.38 1536.67, 2518.63 1537.33, 2549.35 1538.0, 2580.55 1538.67, 2612.23 1539.33, 2644.4 1540.0, 2677.08 1540.67, 2710.25 1541.33, 2743.94 1542.0, 2778.15 1542.67, 2812.89 1543.33, 2848.16 1544.0, 2883.98 1544.67, 2920.34 1545.33, 2957.26 1546.0, 2994.75 1546.67, 3032.81 1547.33, 3071.46 1548.0, 3110.69 1548.67, 3150.53 1549.33, 3190.97 1550.0, 3232.02 1550.67, 3273.71 1551.33, 3316.02 1552.0, 3358.98 1552.67, 3402.58 1553.33, 3446.85 1554.0, 3491.79 1554.67, 3537.4 1555.33, 3583.71 1556.0, 3630.71 1556.67, 3678.42 1557.33, 3726.84 1558.0, 3776.0 1558.67, 3825.89 1559.33, 3876.53 1560.0, 3927.93 1560.67, 3980.1 1561.33, 4033.04 1562.0, 4086.78 1562.67, 4141.32 1563.33, 4196.67 1564.0, 4252.84 1564.67, 4309.85 1565.33, 4367.71 1566.0, 4426.42 1566.67, 4486.0 1567.33, 4546.47 1568.0, 4607.83 1568.67, 4670.09 1569.33, 4733.27 1570.0, 4797.39 1570.67, 4862.45 1571.33, 4928.46 1572.0, 4995.44 1572.67, 5063.41 1573.33, 5132.37 1574.0, 5202.34 1574.67, 5273.34 1575.33, 5345.37 1576.0, 5418.45 1576.67, 5492.6 1577.33, 5567.83 1578.0, 5644.15 1578.67, 5721.58 1579.33, 5800.14 1580.0, 5879.83 1580.67, 5960.68 1581.33, 6042.7 1582.0, 6125.91 1582.67, 6210.31 1583.33, 6295.94 1584.0, 6382.79 1584.67, 6470.9 1585.33, 6560.28 1586.0, 6650.93 1586.67, 6742.89 1587.33, 6836.17 1588.0, 6930.78 1588.67, 7026.75 1589.33, 7124.09 1590.0, 7222.82 1590.67, 7322.95 1591.33, 7424.51 1592.0, 7527.52 1592.67, 7631.99 1593.33, 7737.95 1594.0, 7845.4 1594.67, 7954.38 1595.33, 8064.91 1596.0, 8176.99 1596.67, 8290.66 1597.33, 8405.94 1598.0, 8522.84 1598.67, 8641.38 1599.33, 8761.6 1600.0, 8883.5 " fill="none" stroke="white" stroke-width="1.5" stroke-linejoin="round" stroke-opacity="1"/>

 </svg>