<svg version="1.1" 
 baseProfile="full" 
 width="1600" 
 height="1600" 
 xmlns="http://www.w3.org/2000/svg">
<rect x="0.0" y="0.0" width="1600" height="1600" fill="black" stroke="black" stroke-width="0" opacity="1"/>
<line x1="0.0" y1="0.0" x2="0.0" y2="1600.0" stroke="white" stroke-width="1" opacity="0.4" stroke-linecap="butt"/>
<line x1="160.0" y1="0.0" x2="160.0" y2="1600.0" stroke="white" stroke-width="1" opacity="0.4" stroke-linecap="butt"/>
<line x1="320.0" y1="0.0" x2="320.0" y2="1600.0" stroke="white" stroke-width="1" opacity="0.4" stroke-linecap="butt"/>
<line x1="480.0" y1="0.0" x2="480.0" y2="1600.0" stroke="white" stroke-width="1" opacity="0.4" stroke-linecap="butt"/>
<line x1="640.0" y1="0.0" x2="640.0" y2="1600.0" stroke="white" stroke-width="1" opacity="0.4" stroke-linecap="butt"/>
<line x1="800.0" y1="0.0" x2="800.0" y2="1600.0" stroke="white" stroke-width="1" opacity="0.4" stroke-linecap="butt"/>
<line x1="960.0" y1="0.0" x2="960.0" y2="1600.0" stroke="white" stroke-width="1" opacity="0.4" stroke-linecap="butt"/>
<line x1="1120.0" y1="0.0" x2="1120.0" y2="1600.0" stroke="white" stroke-width="1" opacity="0.4" stroke-linecap="butt"/>
<line x1="1280.0" y1="0.0" x2="1280.0" y2="1600.0" stroke="white" stroke-width="1" opacity="0.4" stroke-linecap="butt"/>
<line x1="1440.0" y1="0.0" x2="1440.0" y2="1600.0" stroke="white" stroke-width="1" opacity="0.4" stroke-linecap="butt"/>
<line x1="0.0" y1="0.0" x2="1600.0" y2="0.0" stroke="white" stroke-width="1" opacity="0.4" stroke-linecap="butt"/>
<line x1="0.0" y1="160.0" x2="1600.0" y2="160.0" stroke="white" stroke-width="1" opacity="0.4" stroke-linecap="butt"/>
<line x1="0.0" y1="320.0" x2="1600.0" y2="320.0" stroke="white" stroke-width="1" opacity="0.4" stroke-linecap="butt"/>
<line x1="0.0" y1="480.0" x2="1600.0" y2="480.0" stroke="white" stroke-width="1" opacity="0.4" stroke-linecap="butt"/>
<line x1="0.0" y1="640.0" x2="1600.0" y2="640.0" stroke="white" stroke-width="1" opacity="0.4" stroke-linecap="butt"/>
<line x1="0.0" y1="800.0" x2="1600.0" y2="800.0" stroke="white" stroke-width="1" opacity="0.4" stroke-linecap="butt"/>
<line x1="0.0" y1="960.0" x2="1600.0" y2="960.0" stroke="white" stroke-width="1" opacity="0.4" stroke-linecap="butt"/>
<line x1="0.0" y1="1120.0" x2="1600.0" y2="1120.0" stroke="white" stroke-width="1" opacity="0.4" stroke-linecap="butt"/>
<line x1="0.0" y1="1280.0" x2="1600.0" y2="1280.0" stroke="white" stroke-width="1" opacity="0.4" stroke-linecap="butt"/>
<line x1="0.0" y1="1440.0" x2="1600.0" y2="1440.0" stroke="white" stroke-width="1" opacity="0.4" stroke-linecap="butt"/>
<line x1="0.0" y1="800.0" x2="1600.0" y2="800.0" stroke="yellow" stroke-width="2.5" opacity="1" stroke-linecap="butt"/>
<line x1="800.0" y1="0.0" x2="800.0" y2="1600.0" stroke="yellow" stroke-width="2.5" opacity="1" stroke-linecap="butt"/>
<polygon points="1564.0 816.0, 1604.0 800.0, 1564.0 784.0, 1572.0 800.0" fill="yellow"/><polygon points="816.0 36.0, 800.0 -4.0, 784.0 36.0, 800.0 28.0" fill="yellow"/><polyline points="0.0, -4224.64 0.67, -4140.75 1.33, -4058.1 2.0, -3976.69 2.67, -3896.5 3.33, -3817.5 4.0, -3739.69 4.67, -3663.04 5.33, -3587.54 6.0, -3513.17 6.67, -3439.92 7.33, -3367.77 8.0, -3296.72 8.67, -3226.73 9.33, -3157.81 10.0, -3089.92 10.67, -3023.07 11.33, -2957.23 12.0, -2892.39 12.67, -2828.54 13.33, -2765.66 14.0, -2703.74 14.67, -2642.77 15.33, -2582.73 16.0, -2523.61 16.67, -2465.4 17.33, -2408.08 18.0, -2351.64 18.67, -2296.08 19.33, -2241.37 20.0, -2187.51 20.67, -2134.48 21.33, -2082.27 22.0, -2030.87 22.67, -1980.27 23.33, -1930.46 24.0, -1881.42 24.67, -1833.15 25.33, -1785.63 26.0, -1738.86 26.67, -1692.82 27.33, -1647.5 28.0, -1602.9 28.67, -1558.99 29.33, -1515.78 30.0, -1473.25 30.67, -1431.4 31.33, -1390.2 32.0, -1349.66 32.67, -1309.76 33.33, -1270.5 34.0, -1231.86 34.67, -1193.83 35.33, -1156.42 36.0, -1119.6 36.67, -1083.37 37.33, -1047.73 38.0, -1012.65 38.67, -978.14 39.33, -944.19 40.0, -910.78 40.67, -877.92 41.33, -845.58 42.0, -813.77 42.67, -782.48 43.33, -751.7 44.0, -721.41 44.67, -691.62 45.33, -662.32 46.0, -633.5 46.67, -605.14 47.33, -577.26 48.0, -549.83 48.67, -522.85 49.33, -496.32 50.0, -470.23 50.67, -444.57 51.33, -419.33 52.0, -394.51 52.67, -370.11 53.33, -346.11 54.0, -322.51 54.67, -299.3 55.33, -276.49 56.0, -254.05 56.67, -232.0 57.33, -210.31 58.0, -188.99 58.67, -168.02 59.33, -147.42 60.0, -127.16 60.67, -107.24 61.33, -87.66 62.0, -68.42 62.67, -49.5 63.33, -30.91 64.0, -12.63 64.67, 5.33 65.33, 22.98 66.0, 40.33 66.67, 57.39 67.33, 74.14 68.0, 90.61 68.67, 106.79 69.33, 122.7 70.0, 138.32 70.67, 153.68 71.33, 168.76 72.0, 183.59 72.67, 198.15 73.33, 212.46 74.0, 226.51 74.67, 240.32 75.33, 253.89 76.0, 267.21 76.67, 280.3 77.33, 293.16 78.0, 305.79 78.67, 318.19 79.33, 330.37 80.0, 342.34 80.67, 354.09 81.33, 365.63 82.0, 376.96 82.67, 388.08 83.33, 399.01 84.0, 409.74 84.67, 420.27 85.33, 430.61 86.0, 440.76 86.67, 450.73 87.33, 460.52 88.0, 470.12 88.67, 479.55 89.33, 488.81 90.0, 497.89 90.67, 506.81 91.33, 515.56 92.0, 524.14 92.67, 532.57 93.33, 540.84 94.0, 548.96 94.67, 556.92 95.33, 564.73 96.0, 572.4 96.67, 579.92 97.33, 587.29 98.0, 594.53 98.67, 601.63 99.33, 608.59 100.0, 615.42 100.67, 622.12 101.33, 628.69 102.0, 635.13 102.67, 641.45 103.33, 647.64 104.0, 653.72 104.67, 659.67 105.33, 665.51 106.0, 671.23 106.67, 676.84 107.33, 682.34 108.0, 687.73 108.67, 693.01 109.33, 698.19 110.0, 703.26 110.67, 708.24 111.33, 713.11 112.0, 717.88 112.67, 722.55 113.33, 727.13 114.0, 731.62 114.67, 736.01 115.33, 740.32 116.0, 744.53 116.67, 748.66 117.33, 752.7 118.0, 756.66 118.67, 760.53 119.33, 764.32 120.0, 768.03 120.67, 771.67 121.33, 775.22 122.0, 778.7 122.67, 782.1 123.33, 785.43 124.0, 788.69 124.67, 791.88 125.33, 794.99 126.0, 798.04 126.67, 801.02 127.33, 803.93 128.0, 806.78 128.67, 809.57 129.33, 812.29 130.0, 814.95 130.67, 817.55 131.33, 820.09 132.0, 822.57 132.67, 824.99 133.33, 827.35 134.0, 829.66 134.67, 831.92 135.33, 834.12 136.0, 836.27 136.67, 838.37 137.33, 840.41 138.0, 842.41 138.67, 844.35 139.33, 846.25 140.0, 848.1 140.67, 849.9 141.33, 851.66 142.0, 853.38 142.67, 855.04 143.33, 856.67 144.0, 858.25 144.67, 859.79 145.33, 861.29 146.0, 862.75 146.67, 864.17 147.33, 865.54 148.0, 866.88 148.67, 868.19 149.33, 869.45 150.0, 870.68 150.67, 871.88 151.33, 873.03 152.0, 874.16 152.67, 875.25 153.33, 876.31 154.0, 877.33 154.67, 878.32 155.33, 879.28 156.0, 880.21 156.67, 881.11 157.33, 881.98 158.0, 882.82 158.67, 883.63 159.33, 884.41 160.0, 885.16 160.67, 885.89 161.33, 886.59 162.0, 887.26 162.67, 887.91 163.33, 888.53 164.0, 889.13 164.67, 889.7 165.33, 890.25 166.0, 890.77 166.67, 891.27 167.33, 891.75 168.0, 892.2 168.67, 892.64 169.33, 893.05 170.0, 893.44 170.67, 893.81 171.33, 894.16 172.0, 894.48 172.67, 894.79 173.33, 895.08 174.0, 895.35 174.67, 895.6 175.33, 895.83 176.0, 896.05 176.67, 896.24 177.33, 896.42 178.0, 896.58 178.67, 896.73 179.33, 896.86 180.0, 896.97 180.67, 897.06 181.33, 897.14 182.0, 897.21 182.67, 897.25 183.33, 897.29 184.0, 897.31 184.67, 897.31 185.33, 897.3 186.0, 897.28 186.67, 897.24 187.33, 897.19 188.0, 897.12 188.67, 897.05 189.33, 896.96 190.0, 896.85 190.67, 896.74 191.33, 896.61 192.0, 896.47 192.67, 896.32 193.33, 896.16 194.0, 895.99 194.67, 895.8 195.33, 895.6 196.0, 895.4 196.67, 895.18 197.33, 894.95 198.0, 894.71 198.67, 894.47 199.33, 894.21 200.0, 893.94 200.67, 893.66 201.33, 893.38 202.0, 893.08 202.67, 892.78 203.33, 892.46 204.0, 892.14 204.67, 891.81 205.33, 891.47 206.0, 891.12 206.67, 890.76 207.33, 890.4 208.0, 890.03 208.67, 889.65 209.33, 889.26 210.0, 888.87 210.67, 888.46 211.33, 888.05 212.0, 887.64 212.67, 887.21 213.33, 886.78 214.0, 886.34 214.67, 885.9 215.33, 885.45 216.0, 884.99 216.67, 884.53 217.33, 884.06 218.0, 883.58 218.67, 883.1 219.33, 882.61 220.0, 882.12 220.67, 881.62 221.33, 881.11 222.0, 880.6 222.67, 880.08 223.33, 879.56 224.0, 879.04 224.67, 878.5 225.33, 877.97 226.0, 877.42 226.67, 876.88 227.33, 876.33 228.0, 875.77 228.67, 875.21 229.33, 874.64 230.0, 874.07 230.67, 873.5 231.33, 872.92 232.0, 872.33 232.67, 871.75 233.33, 871.15 234.0, 870.56 234.67, 869.96 235.33, 869.35 236.0, 868.75 236.67, 868.14 237.33, 867.52 238.0, 866.9 238.67, 866.28 239.33, 865.65 240.0, 865.03 240.67, 864.39 241.33, 863.76 242.0, 863.12 242.67, 862.48 243.33, 861.83 244.0, 861.18 244.67, 860.53 245.33, 859.88 246.0, 859.22 246.67, 858.56 247.33, 857.9 248.0, 857.23 248.67, 856.56 249.33, 855.89 250.0, 855.22 250.67, 854.54 251.33, 853.87 252.0, 853.19 252.67, 852.5 253.33, 851.82 254.0, 851.13 254.67, 850.44 255.33, 849.75 256.0, 849.06 256.67, 848.36 257.33, 847.66 258.0, 846.96 258.67, 846.26 259.33, 845.56 260.0, 844.86 260.67, 844.15 261.33, 843.44 262.0, 842.73 262.67, 842.02 263.33, 841.31 264.0, 840.59 264.67, 839.88 265.33, 839.16 266.0, 838.44 266.67, 837.72 267.33, 837.0 268.0, 836.28 268.67, 835.56 269.33, 834.83 270.0, 834.11 270.67, 833.38 271.33, 832.66 272.0, 831.93 272.67, 831.2 273.33, 830.47 274.0, 829.74 274.67, 829.01 275.33, 828.28 276.0, 827.55 276.67, 826.81 277.33, 826.08 278.0, 825.35 278.67, 824.61 279.33, 823.88 280.0, 823.14 280.67, 822.41 281.33, 821.67 282.0, 820.94 282.67, 820.2 283.33, 819.46 284.0, 818.73 284.67, 817.99 285.33, 817.25 286.0, 816.52 286.67, 815.78 287.33, 815.04 288.0, 814.31 288.67, 813.57 289.33, 812.84 290.0, 812.1 290.67, 811.37 291.33, 810.63 292.0, 809.9 292.67, 809.16 293.33, 808.43 294.0, 807.7 294.67, 806.97 295.33, 806.23 296.0, 805.5 296.67, 804.77 297.33, 804.04 298.0, 803.31 298.67, 802.59 299.33, 801.86 300.0, 801.13 300.67, 800.41 301.33, 799.68 302.0, 798.96 302.67, 798.24 303.33, 797.52 304.0, 796.8 304.67, 796.08 305.33, 795.36 306.0, 794.64 306.67, 793.93 307.33, 793.22 308.0, 792.5 308.67, 791.79 309.33, 791.08 310.0, 790.37 310.67, 789.67 311.33, 788.96 312.0, 788.26 312.67, 787.56 313.33, 786.86 314.0, 786.16 314.67, 785.46 315.33, 784.77 316.0, 784.08 316.67, 783.39 317.33, 782.7 318.0, 782.01 318.67, 781.32 319.33, 780.64 320.0, 779.96 320.67, 779.28 321.33, 778.61 322.0, 777.93 322.67, 777.26 323.33, 776.59 324.0, 775.92 324.67, 775.26 325.33, 774.59 326.0, 773.93 326.67, 773.28 327.33, 772.62 328.0, 771.97 328.67, 771.32 329.33, 770.67 330.0, 770.03 330.67, 769.38 331.33, 768.74 332.0, 768.11 332.67, 767.47 333.33, 766.84 334.0, 766.21 334.67, 765.59 335.33, 764.97 336.0, 764.35 336.67, 763.73 337.33, 763.12 338.0, 762.51 338.67, 761.9 339.33, 761.3 340.0, 760.69 340.67, 760.1 341.33, 759.5 342.0, 758.91 342.67, 758.32 343.33, 757.74 344.0, 757.16 344.67, 756.58 345.33, 756.01 346.0, 755.44 346.67, 754.87 347.33, 754.31 348.0, 753.75 348.67, 753.19 349.33, 752.64 350.0, 752.09 350.67, 751.54 351.33, 751.0 352.0, 750.46 352.67, 749.93 353.33, 749.4 354.0, 748.88 354.67, 748.35 355.33, 747.83 356.0, 747.32 356.67, 746.81 357.33, 746.3 358.0, 745.8 358.67, 745.3 359.33, 744.81 360.0, 744.32 360.67, 743.84 361.33, 743.35 362.0, 742.88 362.67, 742.4 363.33, 741.94 364.0, 741.47 364.67, 741.01 365.33, 740.56 366.0, 740.11 366.67, 739.66 367.33, 739.22 368.0, 738.78 368.67, 738.35 369.33, 737.92 370.0, 737.49 370.67, 737.07 371.33, 736.66 372.0, 736.25 372.67, 735.84 373.33, 735.44 374.0, 735.05 374.67, 734.66 375.33, 734.27 376.0, 733.89 376.67, 733.51 377.33, 733.14 378.0, 732.77 378.67, 732.41 379.33, 732.05 380.0, 731.7 380.67, 731.35 381.33, 731.01 382.0, 730.67 382.67, 730.34 383.33, 730.01 384.0, 729.69 384.67, 729.37 385.33, 729.06 386.0, 728.75 386.67, 728.45 387.33, 728.15 388.0, 727.86 388.67, 727.57 389.33, 727.29 390.0, 727.01 390.67, 726.74 391.33, 726.48 392.0, 726.21 392.67, 725.96 393.33, 725.71 394.0, 725.46 394.67, 725.22 395.33, 724.99 396.0, 724.76 396.67, 724.54 397.33, 724.32 398.0, 724.11 398.67, 723.9 399.33, 723.7 400.0, 723.5 400.67, 723.31 401.33, 723.12 402.0, 722.94 402.67, 722.77 403.33, 722.6 404.0, 722.43 404.67, 722.28 405.33, 722.12 406.0, 721.98 406.67, 721.83 407.33, 721.7 408.0, 721.57 408.67, 721.44 409.33, 721.32 410.0, 721.21 410.67, 721.1 411.33, 720.99 412.0, 720.9 412.67, 720.81 413.33, 720.72 414.0, 720.64 414.67, 720.56 415.33, 720.49 416.0, 720.43 416.67, 720.37 417.33, 720.32 418.0, 720.27 418.67, 720.23 419.33, 720.19 420.0, 720.16 420.67, 720.14 421.33, 720.12 422.0, 720.1 422.67, 720.1 423.33, 720.09 424.0, 720.1 424.67, 720.11 425.33, 720.12 426.0, 720.14 426.67, 720.17 427.33, 720.2 428.0, 720.23 428.67, 720.28 429.33, 720.32 430.0, 720.38 430.67, 720.44 431.33, 720.5 432.0, 720.57 432.67, 720.65 433.33, 720.73 434.0, 720.82 434.67, 720.91 435.33, 721.01 436.0, 721.11 436.67, 721.22 437.33, 721.33 438.0, 721.45 438.67, 721.58 439.33, 721.71 440.0, 721.85 440.67, 721.99 441.33, 722.14 442.0, 722.29 442.67, 722.45 443.33, 722.61 444.0, 722.78 444.67, 722.96 445.33, 723.14 446.0, 723.32 446.67, 723.51 447.33, 723.71 448.0, 723.91 448.67, 724.11 449.33, 724.33 450.0, 724.54 450.67, 724.77 451.33, 724.99 452.0, 725.23 452.67, 725.46 453.33, 725.71 454.0, 725.96 454.67, 726.21 455.33, 726.47 456.0, 726.73 456.67, 727.0 457.33, 727.28 458.0, 727.56 458.67, 727.84 459.33, 728.13 460.0, 728.42 460.67, 728.72 461.33, 729.03 462.0, 729.34 462.67, 729.65 463.33, 729.97 464.0, 730.29 464.67, 730.62 465.33, 730.96 466.0, 731.29 466.67, 731.64 467.33, 731.98 468.0, 732.34 468.67, 732.69 469.33, 733.06 470.0, 733.42 470.67, 733.79 471.33, 734.17 472.0, 734.55 472.67, 734.94 473.33, 735.33 474.0, 735.72 474.67, 736.12 475.33, 736.52 476.0, 736.93 476.67, 737.34 477.33, 737.76 478.0, 738.18 478.67, 738.6 479.33, 739.03 480.0, 739.47 480.67, 739.9 481.33, 740.34 482.0, 740.79 482.67, 741.24 483.33, 741.69 484.0, 742.15 484.67, 742.62 485.33, 743.08 486.0, 743.55 486.67, 744.03 487.33, 744.5 488.0, 744.99 488.67, 745.47 489.33, 745.96 490.0, 746.45 490.67, 746.95 491.33, 747.45 492.0, 747.96 492.67, 748.46 493.33, 748.97 494.0, 749.49 494.67, 750.01 495.33, 750.53 496.0, 751.06 496.67, 751.58 497.33, 752.12 498.0, 752.65 498.67, 753.19 499.33, 753.73 500.0, 754.28 500.67, 754.83 501.33, 755.38 502.0, 755.93 502.67, 756.49 503.33, 757.05 504.0, 757.62 504.67, 758.18 505.33, 758.75 506.0, 759.33 506.67, 759.9 507.33, 760.48 508.0, 761.06 508.67, 761.64 509.33, 762.23 510.0, 762.82 510.67, 763.41 511.33, 764.0 512.0, 764.6 512.67, 765.2 513.33, 765.8 514.0, 766.4 514.67, 767.01 515.33, 767.62 516.0, 768.23 516.67, 768.84 517.33, 769.46 518.0, 770.07 518.67, 770.69 519.33, 771.32 520.0, 771.94 520.67, 772.56 521.33, 773.19 522.0, 773.82 522.67, 774.45 523.33, 775.08 524.0, 775.72 524.67, 776.35 525.33, 776.99 526.0, 777.63 526.67, 778.27 527.33, 778.91 528.0, 779.56 528.67, 780.2 529.33, 780.85 530.0, 781.5 530.67, 782.15 531.33, 782.8 532.0, 783.45 532.67, 784.1 533.33, 784.76 534.0, 785.41 534.67, 786.07 535.33, 786.72 536.0, 787.38 536.67, 788.04 537.33, 788.7 538.0, 789.36 538.67, 790.02 539.33, 790.68 540.0, 791.34 540.67, 792.01 541.33, 792.67 542.0, 793.34 542.67, 794.0 543.33, 794.67 544.0, 795.33 544.67, 796.0 545.33, 796.66 546.0, 797.33 546.67, 797.99 547.33, 798.66 548.0, 799.33 548.67, 799.99 549.33, 800.66 550.0, 801.33 550.67, 801.99 551.33, 802.66 552.0, 803.33 552.67, 803.99 553.33, 804.66 554.0, 805.32 554.67, 805.99 555.33, 806.65 556.0, 807.32 556.67, 807.98 557.33, 808.64 558.0, 809.31 558.67, 809.97 559.33, 810.63 560.0, 811.29 560.67, 811.95 561.33, 812.61 562.0, 813.27 562.67, 813.92 563.33, 814.58 564.0, 815.23 564.67, 815.89 565.33, 816.54 566.0, 817.19 566.67, 817.84 567.33, 818.49 568.0, 819.14 568.67, 819.79 569.33, 820.43 570.0, 821.08 570.67, 821.72 571.33, 822.36 572.0, 823.0 572.67, 823.64 573.33, 824.27 574.0, 824.91 574.67, 825.54 575.33, 826.17 576.0, 826.8 576.67, 827.43 577.33, 828.05 578.0, 828.67 578.67, 829.3 579.33, 829.92 580.0, 830.53 580.67, 831.15 581.33, 831.76 582.0, 832.37 582.67, 832.98 583.33, 833.59 584.0, 834.19 584.67, 834.79 585.33, 835.39 586.0, 835.99 586.67, 836.58 587.33, 837.17 588.0, 837.76 588.67, 838.35 589.33, 838.93 590.0, 839.51 590.67, 840.09 591.33, 840.67 592.0, 841.24 592.67, 841.81 593.33, 842.38 594.0, 842.94 594.67, 843.5 595.33, 844.06 596.0, 844.61 596.67, 845.17 597.33, 845.72 598.0, 846.26 598.67, 846.8 599.33, 847.34 600.0, 847.88 600.67, 848.41 601.33, 848.94 602.0, 849.46 602.67, 849.99 603.33, 850.51 604.0, 851.02 604.67, 851.53 605.33, 852.04 606.0, 852.55 606.67, 853.05 607.33, 853.54 608.0, 854.04 608.67, 854.53 609.33, 855.01 610.0, 855.49 610.67, 855.97 611.33, 856.45 612.0, 856.92 612.67, 857.38 613.33, 857.85 614.0, 858.31 614.67, 858.76 615.33, 859.21 616.0, 859.66 616.67, 860.1 617.33, 860.54 618.0, 860.97 618.67, 861.4 619.33, 861.82 620.0, 862.25 620.67, 862.66 621.33, 863.07 622.0, 863.48 622.67, 863.89 623.33, 864.29 624.0, 864.68 624.67, 865.07 625.33, 865.46 626.0, 865.84 626.67, 866.21 627.33, 866.58 628.0, 866.95 628.67, 867.31 629.33, 867.67 630.0, 868.03 630.67, 868.37 631.33, 868.72 632.0, 869.06 632.67, 869.39 633.33, 869.72 634.0, 870.04 634.67, 870.36 635.33, 870.68 636.0, 870.99 636.67, 871.29 637.33, 871.59 638.0, 871.89 638.67, 872.18 639.33, 872.46 640.0, 872.74 640.67, 873.02 641.33, 873.29 642.0, 873.55 642.67, 873.81 643.33, 874.07 644.0, 874.32 644.67, 874.56 645.33, 874.8 646.0, 875.03 646.67, 875.26 647.33, 875.49 648.0, 875.7 648.67, 875.92 649.33, 876.12 650.0, 876.33 650.67, 876.52 651.33, 876.72 652.0, 876.9 652.67, 877.08 653.33, 877.26 654.0, 877.43 654.67, 877.59 655.33, 877.75 656.0, 877.91 656.67, 878.06 657.33, 878.2 658.0, 878.34 658.67, 878.47 659.33, 878.6 660.0, 878.72 660.67, 878.83 661.33, 878.95 662.0, 879.05 662.67, 879.15 663.33, 879.24 664.0, 879.33 664.67, 879.42 665.33, 879.49 666.0, 879.57 666.67, 879.63 667.33, 879.69 668.0, 879.75 668.67, 879.8 669.33, 879.84 670.0, 879.88 670.67, 879.92 671.33, 879.94 672.0, 879.97 672.67, 879.98 673.33, 879.99 674.0, 880.0 674.67, 880.0 675.33, 879.99 676.0, 879.98 676.67, 879.97 677.33, 879.94 678.0, 879.92 678.67, 879.88 679.33, 879.84 680.0, 879.8 680.67, 879.75 681.33, 879.69 682.0, 879.63 682.67, 879.57 683.33, 879.49 684.0, 879.42 684.67, 879.33 685.33, 879.25 686.0, 879.15 686.67, 879.05 687.33, 878.95 688.0, 878.84 688.67, 878.72 689.33, 878.6 690.0, 878.47 690.67, 878.34 691.33, 878.2 692.0, 878.06 692.67, 877.91 693.33, 877.76 694.0, 877.6 694.67, 877.43 695.33, 877.26 696.0, 877.08 696.67, 876.9 697.33, 876.72 698.0, 876.53 698.67, 876.33 699.33, 876.13 700.0, 875.92 700.67, 875.71 701.33, 875.49 702.0, 875.26 702.67, 875.04 703.33, 874.8 704.0, 874.56 704.67, 874.32 705.33, 874.07 706.0, 873.82 706.67, 873.56 707.33, 873.29 708.0, 873.02 708.67, 872.75 709.33, 872.47 710.0, 872.18 710.67, 871.89 711.33, 871.6 712.0, 871.3 712.67, 870.99 713.33, 870.68 714.0, 870.37 714.67, 870.05 715.33, 869.72 716.0, 869.39 716.67, 869.06 717.33, 868.72 718.0, 868.38 718.67, 868.03 719.33, 867.68 720.0, 867.32 720.67, 866.96 721.33, 866.59 722.0, 866.22 722.67, 865.84 723.33, 865.46 724.0, 865.07 724.67, 864.68 725.33, 864.29 726.0, 863.89 726.67, 863.49 727.33, 863.08 728.0, 862.67 728.67, 862.25 729.33, 861.83 730.0, 861.4 730.67, 860.97 731.33, 860.54 732.0, 860.1 732.67, 859.66 733.33, 859.21 734.0, 858.76 734.67, 858.31 735.33, 857.85 736.0, 857.39 736.67, 856.92 737.33, 856.45 738.0, 855.98 738.67, 855.5 739.33, 855.02 740.0, 854.53 740.67, 854.04 741.33, 853.55 742.0, 853.05 742.67, 852.55 743.33, 852.05 744.0, 851.54 744.67, 851.03 745.33, 850.51 746.0, 849.99 746.67, 849.47 747.33, 848.94 748.0, 848.41 748.67, 847.88 749.33, 847.35 750.0, 846.81 750.67, 846.27 751.33, 845.72 752.0, 845.17 752.67, 844.62 753.33, 844.06 754.0, 843.51 754.67, 842.95 755.33, 842.38 756.0, 841.81 756.67, 841.25 757.33, 840.67 758.0, 840.1 758.67, 839.52 759.33, 838.94 760.0, 838.35 760.67, 837.77 761.33, 837.18 762.0, 836.59 762.67, 835.99 763.33, 835.4 764.0, 834.8 764.67, 834.2 765.33, 833.59 766.0, 832.99 766.67, 832.38 767.33, 831.77 768.0, 831.15 768.67, 830.54 769.33, 829.92 770.0, 829.3 770.67, 828.68 771.33, 828.06 772.0, 827.43 772.67, 826.8 773.33, 826.18 774.0, 825.54 774.67, 824.91 775.33, 824.28 776.0, 823.64 776.67, 823.0 777.33, 822.36 778.0, 821.72 778.67, 821.08 779.33, 820.44 780.0, 819.79 780.67, 819.15 781.33, 818.5 782.0, 817.85 782.67, 817.2 783.33, 816.55 784.0, 815.89 784.67, 815.24 785.33, 814.58 786.0, 813.93 786.67, 813.27 787.33, 812.61 788.0, 811.96 788.67, 811.3 789.33, 810.64 790.0, 809.97 790.67, 809.31 791.33, 808.65 792.0, 807.99 792.67, 807.32 793.33, 806.66 794.0, 805.99 794.67, 805.33 795.33, 804.66 796.0, 804.0 796.67, 803.33 797.33, 802.67 798.0, 802.0 798.67, 801.33 799.33, 800.67 800.0, 800.0 800.67, 799.33 801.33, 798.67 802.0, 798.0 802.67, 797.33 803.33, 796.67 804.0, 796.0 804.67, 795.34 805.33, 794.67 806.0, 794.01 806.67, 793.34 807.33, 792.68 808.0, 792.01 808.67, 791.35 809.33, 790.69 810.0, 790.03 810.67, 789.36 811.33, 788.7 812.0, 788.04 812.67, 787.39 813.33, 786.73 814.0, 786.07 814.67, 785.42 815.33, 784.76 816.0, 784.11 816.67, 783.45 817.33, 782.8 818.0, 782.15 818.67, 781.5 819.33, 780.85 820.0, 780.21 820.67, 779.56 821.33, 778.92 822.0, 778.28 822.67, 777.64 823.33, 777.0 824.0, 776.36 824.67, 775.72 825.33, 775.09 826.0, 774.46 826.67, 773.82 827.33, 773.2 828.0, 772.57 828.67, 771.94 829.33, 771.32 830.0, 770.7 830.67, 770.08 831.33, 769.46 832.0, 768.85 832.67, 768.23 833.33, 767.62 834.0, 767.01 834.67, 766.41 835.33, 765.8 836.0, 765.2 836.67, 764.6 837.33, 764.01 838.0, 763.41 838.67, 762.82 839.33, 762.23 840.0, 761.65 840.67, 761.06 841.33, 760.48 842.0, 759.9 842.67, 759.33 843.33, 758.75 844.0, 758.19 844.67, 757.62 845.33, 757.05 846.0, 756.49 846.67, 755.94 847.33, 755.38 848.0, 754.83 848.67, 754.28 849.33, 753.73 850.0, 753.19 850.67, 752.65 851.33, 752.12 852.0, 751.59 852.67, 751.06 853.33, 750.53 854.0, 750.01 854.67, 749.49 855.33, 748.97 856.0, 748.46 856.67, 747.95 857.33, 747.45 858.0, 746.95 858.67, 746.45 859.33, 745.96 860.0, 745.47 860.67, 744.98 861.33, 744.5 862.0, 744.02 862.67, 743.55 863.33, 743.08 864.0, 742.61 864.67, 742.15 865.33, 741.69 866.0, 741.24 866.67, 740.79 867.33, 740.34 868.0, 739.9 868.67, 739.46 869.33, 739.03 870.0, 738.6 870.67, 738.17 871.33, 737.75 872.0, 737.33 872.67, 736.92 873.33, 736.51 874.0, 736.11 874.67, 735.71 875.33, 735.32 876.0, 734.93 876.67, 734.54 877.33, 734.16 878.0, 733.78 878.67, 733.41 879.33, 733.04 880.0, 732.68 880.67, 732.32 881.33, 731.97 882.0, 731.62 882.67, 731.28 883.33, 730.94 884.0, 730.61 884.67, 730.28 885.33, 729.95 886.0, 729.63 886.67, 729.32 887.33, 729.01 888.0, 728.7 888.67, 728.4 889.33, 728.11 890.0, 727.82 890.67, 727.53 891.33, 727.25 892.0, 726.98 892.67, 726.71 893.33, 726.44 894.0, 726.18 894.67, 725.93 895.33, 725.68 896.0, 725.44 896.67, 725.2 897.33, 724.96 898.0, 724.74 898.67, 724.51 899.33, 724.29 900.0, 724.08 900.67, 723.87 901.33, 723.67 902.0, 723.47 902.67, 723.28 903.33, 723.1 904.0, 722.92 904.67, 722.74 905.33, 722.57 906.0, 722.4 906.67, 722.24 907.33, 722.09 908.0, 721.94 908.67, 721.8 909.33, 721.66 910.0, 721.53 910.67, 721.4 911.33, 721.28 912.0, 721.16 912.67, 721.05 913.33, 720.95 914.0, 720.85 914.67, 720.75 915.33, 720.67 916.0, 720.58 916.67, 720.51 917.33, 720.43 918.0, 720.37 918.67, 720.31 919.33, 720.25 920.0, 720.2 920.67, 720.16 921.33, 720.12 922.0, 720.08 922.67, 720.06 923.33, 720.03 924.0, 720.02 924.67, 720.01 925.33, 720.0 926.0, 720.0 926.67, 720.01 927.33, 720.02 928.0, 720.03 928.67, 720.06 929.33, 720.08 930.0, 720.12 930.67, 720.16 931.33, 720.2 932.0, 720.25 932.67, 720.31 933.33, 720.37 934.0, 720.43 934.67, 720.51 935.33, 720.58 936.0, 720.67 936.67, 720.76 937.33, 720.85 938.0, 720.95 938.67, 721.05 939.33, 721.17 940.0, 721.28 940.67, 721.4 941.33, 721.53 942.0, 721.66 942.67, 721.8 943.33, 721.94 944.0, 722.09 944.67, 722.25 945.33, 722.41 946.0, 722.57 946.67, 722.74 947.33, 722.92 948.0, 723.1 948.67, 723.28 949.33, 723.48 950.0, 723.67 950.67, 723.88 951.33, 724.08 952.0, 724.3 952.67, 724.51 953.33, 724.74 954.0, 724.97 954.67, 725.2 955.33, 725.44 956.0, 725.68 956.67, 725.93 957.33, 726.19 958.0, 726.45 958.67, 726.71 959.33, 726.98 960.0, 727.26 960.67, 727.54 961.33, 727.82 962.0, 728.11 962.67, 728.41 963.33, 728.71 964.0, 729.01 964.67, 729.32 965.33, 729.64 966.0, 729.96 966.67, 730.28 967.33, 730.61 968.0, 730.94 968.67, 731.28 969.33, 731.63 970.0, 731.97 970.67, 732.33 971.33, 732.69 972.0, 733.05 972.67, 733.42 973.33, 733.79 974.0, 734.16 974.67, 734.54 975.33, 734.93 976.0, 735.32 976.67, 735.71 977.33, 736.11 978.0, 736.52 978.67, 736.93 979.33, 737.34 980.0, 737.75 980.67, 738.18 981.33, 738.6 982.0, 739.03 982.67, 739.46 983.33, 739.9 984.0, 740.34 984.67, 740.79 985.33, 741.24 986.0, 741.69 986.67, 742.15 987.33, 742.62 988.0, 743.08 988.67, 743.55 989.33, 744.03 990.0, 744.51 990.67, 744.99 991.33, 745.47 992.0, 745.96 992.67, 746.46 993.33, 746.95 994.0, 747.45 994.67, 747.96 995.33, 748.47 996.0, 748.98 996.67, 749.49 997.33, 750.01 998.0, 750.54 998.67, 751.06 999.33, 751.59 1000.0, 752.12 1000.67, 752.66 1001.33, 753.2 1002.0, 753.74 1002.67, 754.28 1003.33, 754.83 1004.0, 755.39 1004.67, 755.94 1005.33, 756.5 1006.0, 757.06 1006.67, 757.62 1007.33, 758.19 1008.0, 758.76 1008.67, 759.33 1009.33, 759.91 1010.0, 760.49 1010.67, 761.07 1011.33, 761.65 1012.0, 762.24 1012.67, 762.83 1013.33, 763.42 1014.0, 764.01 1014.67, 764.61 1015.33, 765.21 1016.0, 765.81 1016.67, 766.41 1017.33, 767.02 1018.0, 767.63 1018.67, 768.24 1019.33, 768.85 1020.0, 769.47 1020.67, 770.08 1021.33, 770.7 1022.0, 771.33 1022.67, 771.95 1023.33, 772.57 1024.0, 773.2 1024.67, 773.83 1025.33, 774.46 1026.0, 775.09 1026.67, 775.73 1027.33, 776.36 1028.0, 777.0 1028.67, 777.64 1029.33, 778.28 1030.0, 778.92 1030.67, 779.57 1031.33, 780.21 1032.0, 780.86 1032.67, 781.51 1033.33, 782.16 1034.0, 782.81 1034.67, 783.46 1035.33, 784.11 1036.0, 784.77 1036.67, 785.42 1037.33, 786.08 1038.0, 786.73 1038.67, 787.39 1039.33, 788.05 1040.0, 788.71 1040.67, 789.37 1041.33, 790.03 1042.0, 790.69 1042.67, 791.36 1043.33, 792.02 1044.0, 792.68 1044.67, 793.35 1045.33, 794.01 1046.0, 794.68 1046.67, 795.34 1047.33, 796.01 1048.0, 796.67 1048.67, 797.34 1049.33, 798.01 1050.0, 798.67 1050.67, 799.34 1051.33, 800.01 1052.0, 800.67 1052.67, 801.34 1053.33, 802.01 1054.0, 802.67 1054.67, 803.34 1055.33, 804.0 1056.0, 804.67 1056.67, 805.33 1057.33, 806.0 1058.0, 806.66 1058.67, 807.33 1059.33, 807.99 1060.0, 808.66 1060.67, 809.32 1061.33, 809.98 1062.0, 810.64 1062.67, 811.3 1063.33, 811.96 1064.0, 812.62 1064.67, 813.28 1065.33, 813.93 1066.0, 814.59 1066.67, 815.24 1067.33, 815.9 1068.0, 816.55 1068.67, 817.2 1069.33, 817.85 1070.0, 818.5 1070.67, 819.15 1071.33, 819.8 1072.0, 820.44 1072.67, 821.09 1073.33, 821.73 1074.0, 822.37 1074.67, 823.01 1075.33, 823.65 1076.0, 824.28 1076.67, 824.92 1077.33, 825.55 1078.0, 826.18 1078.67, 826.81 1079.33, 827.44 1080.0, 828.06 1080.67, 828.68 1081.33, 829.31 1082.0, 829.93 1082.67, 830.54 1083.33, 831.16 1084.0, 831.77 1084.67, 832.38 1085.33, 832.99 1086.0, 833.6 1086.67, 834.2 1087.33, 834.8 1088.0, 835.4 1088.67, 836.0 1089.33, 836.59 1090.0, 837.18 1090.67, 837.77 1091.33, 838.36 1092.0, 838.94 1092.67, 839.52 1093.33, 840.1 1094.0, 840.67 1094.67, 841.25 1095.33, 841.82 1096.0, 842.38 1096.67, 842.95 1097.33, 843.51 1098.0, 844.07 1098.67, 844.62 1099.33, 845.17 1100.0, 845.72 1100.67, 846.27 1101.33, 846.81 1102.0, 847.35 1102.67, 847.88 1103.33, 848.42 1104.0, 848.94 1104.67, 849.47 1105.33, 849.99 1106.0, 850.51 1106.67, 851.03 1107.33, 851.54 1108.0, 852.04 1108.67, 852.55 1109.33, 853.05 1110.0, 853.55 1110.67, 854.04 1111.33, 854.53 1112.0, 855.01 1112.67, 855.5 1113.33, 855.97 1114.0, 856.45 1114.67, 856.92 1115.33, 857.38 1116.0, 857.85 1116.67, 858.31 1117.33, 858.76 1118.0, 859.21 1118.67, 859.66 1119.33, 860.1 1120.0, 860.53 1120.67, 860.97 1121.33, 861.4 1122.0, 861.82 1122.67, 862.24 1123.33, 862.66 1124.0, 863.07 1124.67, 863.48 1125.33, 863.88 1126.0, 864.28 1126.67, 864.67 1127.33, 865.06 1128.0, 865.45 1128.67, 865.83 1129.33, 866.21 1130.0, 866.58 1130.67, 866.94 1131.33, 867.31 1132.0, 867.66 1132.67, 868.02 1133.33, 868.36 1134.0, 868.71 1134.67, 869.04 1135.33, 869.38 1136.0, 869.71 1136.67, 870.03 1137.33, 870.35 1138.0, 870.66 1138.67, 870.97 1139.33, 871.28 1140.0, 871.58 1140.67, 871.87 1141.33, 872.16 1142.0, 872.44 1142.67, 872.72 1143.33, 873.0 1144.0, 873.27 1144.67, 873.53 1145.33, 873.79 1146.0, 874.04 1146.67, 874.29 1147.33, 874.54 1148.0, 874.77 1148.67, 875.01 1149.33, 875.23 1150.0, 875.46 1150.67, 875.67 1151.33, 875.89 1152.0, 876.09 1152.67, 876.29 1153.33, 876.49 1154.0, 876.68 1154.67, 876.86 1155.33, 877.04 1156.0, 877.22 1156.67, 877.39 1157.33, 877.55 1158.0, 877.71 1158.67, 877.86 1159.33, 878.01 1160.0, 878.15 1160.67, 878.29 1161.33, 878.42 1162.0, 878.55 1162.67, 878.67 1163.33, 878.78 1164.0, 878.89 1164.67, 878.99 1165.33, 879.09 1166.0, 879.18 1166.67, 879.27 1167.33, 879.35 1168.0, 879.43 1168.67, 879.5 1169.33, 879.56 1170.0, 879.62 1170.67, 879.68 1171.33, 879.72 1172.0, 879.77 1172.67, 879.8 1173.33, 879.83 1174.0, 879.86 1174.67, 879.88 1175.33, 879.89 1176.0, 879.9 1176.67, 879.91 1177.33, 879.9 1178.0, 879.9 1178.67, 879.88 1179.33, 879.86 1180.0, 879.84 1180.67, 879.81 1181.33, 879.77 1182.0, 879.73 1182.67, 879.68 1183.33, 879.63 1184.0, 879.57 1184.67, 879.51 1185.33, 879.44 1186.0, 879.36 1186.67, 879.28 1187.33, 879.19 1188.0, 879.1 1188.67, 879.01 1189.33, 878.9 1190.0, 878.79 1190.67, 878.68 1191.33, 878.56 1192.0, 878.43 1192.67, 878.3 1193.33, 878.17 1194.0, 878.02 1194.67, 877.88 1195.33, 877.72 1196.0, 877.57 1196.67, 877.4 1197.33, 877.23 1198.0, 877.06 1198.67, 876.88 1199.33, 876.69 1200.0, 876.5 1200.67, 876.3 1201.33, 876.1 1202.0, 875.89 1202.67, 875.68 1203.33, 875.46 1204.0, 875.24 1204.67, 875.01 1205.33, 874.78 1206.0, 874.54 1206.67, 874.29 1207.33, 874.04 1208.0, 873.79 1208.67, 873.52 1209.33, 873.26 1210.0, 872.99 1210.67, 872.71 1211.33, 872.43 1212.0, 872.14 1212.67, 871.85 1213.33, 871.55 1214.0, 871.25 1214.67, 870.94 1215.33, 870.63 1216.0, 870.31 1216.67, 869.99 1217.33, 869.66 1218.0, 869.33 1218.67, 868.99 1219.33, 868.65 1220.0, 868.3 1220.67, 867.95 1221.33, 867.59 1222.0, 867.23 1222.67, 866.86 1223.33, 866.49 1224.0, 866.11 1224.67, 865.73 1225.33, 865.34 1226.0, 864.95 1226.67, 864.56 1227.33, 864.16 1228.0, 863.75 1228.67, 863.34 1229.33, 862.93 1230.0, 862.51 1230.67, 862.08 1231.33, 861.65 1232.0, 861.22 1232.67, 860.78 1233.33, 860.34 1234.0, 859.89 1234.67, 859.44 1235.33, 858.99 1236.0, 858.53 1236.67, 858.06 1237.33, 857.6 1238.0, 857.12 1238.67, 856.65 1239.33, 856.16 1240.0, 855.68 1240.67, 855.19 1241.33, 854.7 1242.0, 854.2 1242.67, 853.7 1243.33, 853.19 1244.0, 852.68 1244.67, 852.17 1245.33, 851.65 1246.0, 851.12 1246.67, 850.6 1247.33, 850.07 1248.0, 849.54 1248.67, 849.0 1249.33, 848.46 1250.0, 847.91 1250.67, 847.36 1251.33, 846.81 1252.0, 846.25 1252.67, 845.69 1253.33, 845.13 1254.0, 844.56 1254.67, 843.99 1255.33, 843.42 1256.0, 842.84 1256.67, 842.26 1257.33, 841.68 1258.0, 841.09 1258.67, 840.5 1259.33, 839.9 1260.0, 839.31 1260.67, 838.7 1261.33, 838.1 1262.0, 837.49 1262.67, 836.88 1263.33, 836.27 1264.0, 835.65 1264.67, 835.03 1265.33, 834.41 1266.0, 833.79 1266.67, 833.16 1267.33, 832.53 1268.0, 831.89 1268.67, 831.26 1269.33, 830.62 1270.0, 829.97 1270.67, 829.33 1271.33, 828.68 1272.0, 828.03 1272.67, 827.38 1273.33, 826.72 1274.0, 826.07 1274.67, 825.41 1275.33, 824.74 1276.0, 824.08 1276.67, 823.41 1277.33, 822.74 1278.0, 822.07 1278.67, 821.39 1279.33, 820.72 1280.0, 820.04 1280.67, 819.36 1281.33, 818.68 1282.0, 817.99 1282.67, 817.3 1283.33, 816.61 1284.0, 815.92 1284.67, 815.23 1285.33, 814.54 1286.0, 813.84 1286.67, 813.14 1287.33, 812.44 1288.0, 811.74 1288.67, 811.04 1289.33, 810.33 1290.0, 809.63 1290.67, 808.92 1291.33, 808.21 1292.0, 807.5 1292.67, 806.78 1293.33, 806.07 1294.0, 805.36 1294.67, 804.64 1295.33, 803.92 1296.0, 803.2 1296.67, 802.48 1297.33, 801.76 1298.0, 801.04 1298.67, 800.32 1299.33, 799.59 1300.0, 798.87 1300.67, 798.14 1301.33, 797.41 1302.0, 796.69 1302.67, 795.96 1303.33, 795.23 1304.0, 794.5 1304.67, 793.77 1305.33, 793.03 1306.0, 792.3 1306.67, 791.57 1307.33, 790.84 1308.0, 790.1 1308.67, 789.37 1309.33, 788.63 1310.0, 787.9 1310.67, 787.16 1311.33, 786.43 1312.0, 785.69 1312.67, 784.96 1313.33, 784.22 1314.0, 783.48 1314.67, 782.75 1315.33, 782.01 1316.0, 781.27 1316.67, 780.54 1317.33, 779.8 1318.0, 779.06 1318.67, 778.33 1319.33, 777.59 1320.0, 776.86 1320.67, 776.12 1321.33, 775.39 1322.0, 774.65 1322.67, 773.92 1323.33, 773.19 1324.0, 772.45 1324.67, 771.72 1325.33, 770.99 1326.0, 770.26 1326.67, 769.53 1327.33, 768.8 1328.0, 768.07 1328.67, 767.34 1329.33, 766.62 1330.0, 765.89 1330.67, 765.17 1331.33, 764.44 1332.0, 763.72 1332.67, 763.0 1333.33, 762.28 1334.0, 761.56 1334.67, 760.84 1335.33, 760.12 1336.0, 759.41 1336.67, 758.69 1337.33, 757.98 1338.0, 757.27 1338.67, 756.56 1339.33, 755.85 1340.0, 755.14 1340.67, 754.44 1341.33, 753.74 1342.0, 753.04 1342.67, 752.34 1343.33, 751.64 1344.0, 750.94 1344.67, 750.25 1345.33, 749.56 1346.0, 748.87 1346.67, 748.18 1347.33, 747.5 1348.0, 746.81 1348.67, 746.13 1349.33, 745.46 1350.0, 744.78 1350.67, 744.11 1351.33, 743.44 1352.0, 742.77 1352.67, 742.1 1353.33, 741.44 1354.0, 740.78 1354.67, 740.12 1355.33, 739.47 1356.0, 738.82 1356.67, 738.17 1357.33, 737.52 1358.0, 736.88 1358.67, 736.24 1359.33, 735.61 1360.0, 734.97 1360.67, 734.35 1361.33, 733.72 1362.0, 733.1 1362.67, 732.48 1363.33, 731.86 1364.0, 731.25 1364.67, 730.65 1365.33, 730.04 1366.0, 729.44 1366.67, 728.85 1367.33, 728.25 1368.0, 727.67 1368.67, 727.08 1369.33, 726.5 1370.0, 725.93 1370.67, 725.36 1371.33, 724.79 1372.0, 724.23 1372.67, 723.67 1373.33, 723.12 1374.0, 722.58 1374.67, 722.03 1375.33, 721.5 1376.0, 720.96 1376.67, 720.44 1377.33, 719.92 1378.0, 719.4 1378.67, 718.89 1379.33, 718.38 1380.0, 717.88 1380.67, 717.39 1381.33, 716.9 1382.0, 716.42 1382.67, 715.94 1383.33, 715.47 1384.0, 715.01 1384.67, 714.55 1385.33, 714.1 1386.0, 713.66 1386.67, 713.22 1387.33, 712.79 1388.0, 712.36 1388.67, 711.95 1389.33, 711.54 1390.0, 711.13 1390.67, 710.74 1391.33, 710.35 1392.0, 709.97 1392.67, 709.6 1393.33, 709.24 1394.0, 708.88 1394.67, 708.53 1395.33, 708.19 1396.0, 707.86 1396.67, 707.54 1397.33, 707.22 1398.0, 706.92 1398.67, 706.62 1399.33, 706.34 1400.0, 706.06 1400.67, 705.79 1401.33, 705.53 1402.0, 705.29 1402.67, 705.05 1403.33, 704.82 1404.0, 704.6 1404.67, 704.4 1405.33, 704.2 1406.0, 704.01 1406.67, 703.84 1407.33, 703.68 1408.0, 703.53 1408.67, 703.39 1409.33, 703.26 1410.0, 703.15 1410.67, 703.04 1411.33, 702.95 1412.0, 702.88 1412.67, 702.81 1413.33, 702.76 1414.0, 702.72 1414.67, 702.7 1415.33, 702.69 1416.0, 702.69 1416.67, 702.71 1417.33, 702.75 1418.0, 702.79 1418.67, 702.86 1419.33, 702.94 1420.0, 703.03 1420.67, 703.14 1421.33, 703.27 1422.0, 703.42 1422.67, 703.58 1423.33, 703.76 1424.0, 703.95 1424.67, 704.17 1425.33, 704.4 1426.0, 704.65 1426.67, 704.92 1427.33, 705.21 1428.0, 705.52 1428.67, 705.84 1429.33, 706.19 1430.0, 706.56 1430.67, 706.95 1431.33, 707.36 1432.0, 707.8 1432.67, 708.25 1433.33, 708.73 1434.0, 709.23 1434.67, 709.75 1435.33, 710.3 1436.0, 710.87 1436.67, 711.47 1437.33, 712.09 1438.0, 712.74 1438.67, 713.41 1439.33, 714.11 1440.0, 714.84 1440.67, 715.59 1441.33, 716.37 1442.0, 717.18 1442.67, 718.02 1443.33, 718.89 1444.0, 719.79 1444.67, 720.72 1445.33, 721.68 1446.0, 722.67 1446.67, 723.69 1447.33, 724.75 1448.0, 725.84 1448.67, 726.97 1449.33, 728.12 1450.0, 729.32 1450.67, 730.55 1451.33, 731.81 1452.0, 733.12 1452.67, 734.46 1453.33, 735.83 1454.0, 737.25 1454.67, 738.71 1455.33, 740.21 1456.0, 741.75 1456.67, 743.33 1457.33, 744.96 1458.0, 746.62 1458.67, 748.34 1459.33, 750.1 1460.0, 751.9 1460.67, 753.75 1461.33, 755.65 1462.0, 757.59 1462.67, 759.59 1463.33, 761.63 1464.0, 763.73 1464.67, 765.88 1465.33, 768.08 1466.0, 770.34 1466.67, 772.65 1467.33, 775.01 1468.0, 777.43 1468.67, 779.91 1469.33, 782.45 1470.0, 785.05 1470.67, 787.71 1471.33, 790.43 1472.0, 793.22 1472.67, 796.07 1473.33, 798.98 1474.0, 801.96 1474.67, 805.01 1475.33, 808.12 1476.0, 811.31 1476.67, 814.57 1477.33, 817.9 1478.0, 821.3 1478.67, 824.78 1479.33, 828.33 1480.0, 831.97 1480.67, 835.68 1481.33, 839.47 1482.0, 843.34 1482.67, 847.3 1483.33, 851.34 1484.0, 855.47 1484.67, 859.68 1485.33, 863.99 1486.0, 868.38 1486.67, 872.87 1487.33, 877.45 1488.0, 882.12 1488.67, 886.89 1489.33, 891.76 1490.0, 896.74 1490.67, 901.81 1491.33, 906.99 1492.0, 912.27 1492.67, 917.66 1493.33, 923.16 1494.0, 928.77 1494.67, 934.49 1495.33, 940.33 1496.0, 946.28 1496.67, 952.36 1497.33, 958.55 1498.0, 964.87 1498.67, 971.31 1499.33, 977.88 1500.0, 984.58 1500.67, 991.41 1501.33, 998.37 1502.0, 1005.47 1502.67, 1012.71 1503.33, 1020.08 1504.0, 1027.6 1504.67, 1035.27 1505.33, 1043.08 1506.0, 1051.04 1506.67, 1059.16 1507.33, 1067.43 1508.0, 1075.86 1508.67, 1084.44 1509.33, 1093.19 1510.0, 1102.11 1510.67, 1111.19 1511.33, 1120.45 1512.0, 1129.88 1512.67, 1139.48 1513.33, 1149.27 1514.0, 1159.24 1514.67, 1169.39 1515.33, 1179.73 1516.0, 1190.26 1516.67, 1200.99 1517.33, 1211.92 1518.0, 1223.04 1518.67, 1234.37 1519.33, 1245.91 1520.0, 1257.66 1520.67, 1269.63 1521.33, 1281.81 1522.0, 1294.21 1522.67, 1306.84 1523.33, 1319.7 1524.0, 1332.79 1524.67, 1346.11 1525.33, 1359.68 1526.0, 1373.49 1526.67, 1387.54 1527.33, 1401.85 1528.0, 1416.41 1528.67, 1431.24 1529.33, 1446.32 1530.0, 1461.68 1530.67, 1477.3 1531.33, 1493.21 1532.0, 1509.39 1532.67, 1525.86 1533.33, 1542.61 1534.0, 1559.67 1534.67, 1577.02 1535.33, 1594.67 1536.0, 1612.63 1536.67, 1630.91 1537.33, 1649.5 1538.0, 1668.42 1538.67, 1687.66 1539.33, 1707.24 1540.0, 1727.16 1540.67, 1747.42 1541.33, 1768.02 1542.0, 1788.99 1542.67, 1810.31 1543.33, 1832.0 1544.0, 1854.05 1544.67, 1876.49 1545.33, 1899.3 1546.0, 1922.51 1546.67, 1946.11 1547.33, 1970.11 1548.0, 1994.51 1548.67, 2019.33 1549.33, 2044.57 1550.0, 2070.23 1550.67, 2096.32 1551.33, 2122.85 1552.0, 2149.83 1552.67, 2177.26 1553.33, 2205.14 1554.0, 2233.5 1554.67, 2262.32 1555.33, 2291.62 1556.0, 2321.41 1556.67, 2351.7 1557.33, 2382.48 1558.0, 2413.77 1558.67, 2445.58 1559.33, 2477.92 1560.0, 2510.78 1560.67, 2544.19 1561.33, 2578.14 1562.0, 2612.65 1562.67, 2647.73 1563.33, 2683.37 1564.0, 2719.6 1564.67, 2756.42 1565.33, 2793.83 1566.0, 2831.86 1566.67, 2870.5 1567.33, 2909.76 1568.0, 2949.66 1568.67, 2990.2 1569.33, 3031.4 1570.0, 3073.25 1570.67, 3115.78 1571.33, 3158.99 1572.0, 3202.9 1572.67, 3247.5 1573.33, 3292.82 1574.0, 3338.86 1574.67, 3385.63 1575.33, 3433.15 1576.0, 3481.42 1576.67, 3530.46 1577.33, 3580.27 1578.0, 3630.87 1578.67, 3682.27 1579.33, 3734.48 1580.0, 3787.51 1580.67, 3841.37 1581.33, 3896.08 1582.0, 3951.64 1582.67, 4008.08 1583.33, 4065.4 1584.0, 4123.61 1584.67, 4182.73 1585.33, 4242.77 1586.0, 4303.74 1586.67, 4365.66 1587.33, 4428.54 1588.0, 4492.39 1588.67, 4557.23 1589.33, 4623.07 1590.0, 4689.92 1590.67, 4757.81 1591.33, 4826.73 1592.0, 4896.72 1592.67, 4967.77 1593.33, 5039.92 1594.0, 5113.17 1594.67, 5187.54 1595.33, 5263.04 1596.0, 5339.69 1596.67, 5417.5 1597.33, 5496.5 1598.0, 5576.69 1598.67, 5658.1 1599.33, 5740.75 1600.0, 5824.64 " fill="none" stroke="white" stroke-width="1.5" stroke-linejoin="round" stroke-opacity="1"/>

 </svg>