<svg version="1.1" 
 baseProfile="full" 
 width="1600" 
 height="1600" 
 xmlns="http://www.w3.org/2000/svg">
<rect x="0.0" y="0.0" width="1600" height="1600" fill="black" stroke="black" stroke-width="0" opacity="1"/>
<line x1="0.0" y1="0.0" x2="0.0" y2="1600.0" stroke="white" stroke-width="1" opacity="0.4" stroke-linecap="butt"/>
<line x1="160.0" y1="0.0" x2="160.0" y2="1600.0" stroke="white" stroke-width="1" opacity="0.4" stroke-linecap="butt"/>
<line x1="320.0" y1="0.0" x2="320.0" y2="1600.0" stroke="white" stroke-width="1" opacity="0.4" stroke-linecap="butt"/>
<line x1="480.0" y1="0.0" x2="480.0" y2="1600.0" stroke="white" stroke-width="1" opacity="0.4" stroke-linecap="butt"/>
<line x1="640.0" y1="0.0" x2="640.0" y2="1600.0" stroke="white" stroke-width="1" opacity="0.4" stroke-linecap="butt"/>
<line x1="800.0" y1="0.0" x2="800.0" y2="1600.0" stroke="white" stroke-width="1" opacity="0.4" stroke-linecap="butt"/>
<line x1="960.0" y1="0.0" x2="960.0" y2="1600.0" stroke="white" stroke-width="1" opacity="0.4" stroke-linecap="butt"/>
<line x1="1120.0" y1="0.0" x2="1120.0" y2="1600.0" stroke="white" stroke-width="1" opacity="0.4" stroke-linecap="butt"/>
<line x1="1280.0" y1="0.0" x2="1280.0" y2="1600.0" stroke="white" stroke-width="1" opacity="0.4" stroke-linecap="butt"/>
<line x1="1440.0" y1="0.0" x2="1440.0" y2="1600.0" stroke="white" stroke-width="1" opacity="0.4" stroke-linecap="butt"/>
<line x1="0.0" y1="0.0" x2="1600.0" y2="0.0" stroke="white" stroke-width="1" opacity="0.4" stroke-linecap="butt"/>
<line x1="0.0" y1="160.0" x2="1600.0" y2="160.0" stroke="white" stroke-width="1" opacity="0.4" stroke-linecap="butt"/>
<line x1="0.0" y1="320.0" x2="1600.0" y2="320.0" stroke="white" stroke-width="1" opacity="0.4" stroke-linecap="butt"/>
<line x1="0.0" y1="480.0" x2="1600.0" y2="480.0" stroke="white" stroke-width="1" opacity="0.4" stroke-linecap="butt"/>
<line x1="0.0" y1="640.0" x2="1600.0" y2="640.0" stroke="white" stroke-width="1" opacity="0.4" stroke-linecap="butt"/>
<line x1="0.0" y1="800.0" x2="1600.0" y2="800.0" stroke="white" stroke-width="1" opacity="0.4" stroke-linecap="butt"/>
<line x1="0.0" y1="960.0" x2="1600.0" y2="960.0" stroke="white" stroke-width="1" opacity="0.4" stroke-linecap="butt"/>
<line x1="0.0" y1="1120.0" x2="1600.0" y2="1120.0" stroke="white" stroke-width="1" opacity="0.4" stroke-linecap="butt"/>
<line x1="0.0" y1="1280.0" x2="1600.0" y2="1280.0" stroke="white" stroke-width="1" opacity="0.4" stroke-linecap="butt"/>
<line x1="0.0" y1="1440.0" x2="1600.0" y2="1440.0" stroke="white" stroke-width="1" opacity="0.4" stroke-linecap="butt"/>
<line x1="0.0" y1="800.0" x2="1600.0" y2="800.0" stroke="yellow" stroke-width="2.5" opacity="1" stroke-linecap="butt"/>
<line x1="800.0" y1="0.0" x2="800.0" y2="1600.0" stroke="yellow" stroke-width="2.5" opacity="1" stroke-linecap="butt"/>
<polygon points="1564.0 816.0, 1604.0 800.0, 1564.0 784.0, 1572.0 800.0" fill="yellow"/><polygon points="816.0 36.0, 800.0 -4.0, 784.0 36.0, 800.0 28.0" fill="yellow"/><polyline points="0.0, -6518.78 0.67, -6406.39 1.33, -6295.56 2.0, -6186.3 2.67, -6078.58 3.33, -5972.37 4.0, -5867.67 4.67, -5764.44 5.33, -5662.67 6.0, -5562.35 6.67, -5463.44 7.33, -5365.94 8.0, -5269.82 8.67, -5175.07 9.33, -5081.66 10.0, -4989.59 10.67, -4898.83 11.33, -4809.37 12.0, -4721.19 12.67, -4634.26 13.33, -4548.58 14.0, -4464.14 14.67, -4380.9 15.33, -4298.86 16.0, -4218.0 16.67, -4138.3 17.33, -4059.75 18.0, -3982.34 18.67, -3906.04 19.33, -3830.85 20.0, -3756.75 20.67, -3683.72 21.33, -3611.75 22.0, -3540.83 22.67, -3470.94 23.33, -3402.06 24.0, -3334.19 24.67, -3267.31 25.33, -3201.41 26.0, -3136.47 26.67, -3072.48 27.33, -3009.43 28.0, -2947.31 28.67, -2886.09 29.33, -2825.78 30.0, -2766.35 30.67, -2707.8 31.33, -2650.12 32.0, -2593.29 32.67, -2537.29 33.33, -2482.13 34.0, -2427.78 34.67, -2374.24 35.33, -2321.5 36.0, -2269.53 36.67, -2218.35 37.33, -2167.92 38.0, -2118.25 38.67, -2069.32 39.33, -2021.12 40.0, -1973.64 40.67, -1926.88 41.33, -1880.81 42.0, -1835.44 42.67, -1790.75 43.33, -1746.74 44.0, -1703.38 44.67, -1660.68 45.33, -1618.63 46.0, -1577.21 46.67, -1536.42 47.33, -1496.25 48.0, -1456.69 48.67, -1417.73 49.33, -1379.36 50.0, -1341.58 50.67, -1304.37 51.33, -1267.73 52.0, -1231.65 52.67, -1196.12 53.33, -1161.14 54.0, -1126.69 54.67, -1092.77 55.33, -1059.38 56.0, -1026.5 56.67, -994.12 57.33, -962.24 58.0, -930.86 58.67, -899.96 59.33, -869.54 60.0, -839.6 60.67, -810.11 61.33, -781.09 62.0, -752.52 62.67, -724.39 63.33, -696.7 64.0, -669.44 64.67, -642.61 65.33, -616.2 66.0, -590.21 66.67, -564.62 67.33, -539.43 68.0, -514.64 68.67, -490.24 69.33, -466.23 70.0, -442.59 70.67, -419.33 71.33, -396.44 72.0, -373.91 72.67, -351.74 73.33, -329.92 74.0, -308.45 74.67, -287.32 75.33, -266.52 76.0, -246.06 76.67, -225.93 77.33, -206.12 78.0, -186.63 78.67, -167.45 79.33, -148.58 80.0, -130.01 80.67, -111.74 81.33, -93.77 82.0, -76.09 82.67, -58.69 83.33, -41.58 84.0, -24.74 84.67, -8.18 85.33, 8.11 86.0, 24.14 86.67, 39.9 87.33, 55.41 88.0, 70.66 88.67, 85.67 89.33, 100.42 90.0, 114.94 90.67, 129.21 91.33, 143.25 92.0, 157.05 92.67, 170.63 93.33, 183.99 94.0, 197.12 94.67, 210.03 95.33, 222.73 96.0, 235.22 96.67, 247.49 97.33, 259.57 98.0, 271.44 98.67, 283.11 99.33, 294.58 100.0, 305.86 100.67, 316.95 101.33, 327.86 102.0, 338.58 102.67, 349.11 103.33, 359.47 104.0, 369.66 104.67, 379.66 105.33, 389.5 106.0, 399.17 106.67, 408.68 107.33, 418.02 108.0, 427.2 108.67, 436.22 109.33, 445.09 110.0, 453.8 110.67, 462.36 111.33, 470.78 112.0, 479.04 112.67, 487.17 113.33, 495.15 114.0, 502.99 114.67, 510.69 115.33, 518.26 116.0, 525.7 116.67, 533.0 117.33, 540.18 118.0, 547.23 118.67, 554.15 119.33, 560.95 120.0, 567.63 120.67, 574.19 121.33, 580.63 122.0, 586.96 122.67, 593.17 123.33, 599.27 124.0, 605.26 124.67, 611.14 125.33, 616.91 126.0, 622.58 126.67, 628.15 127.33, 633.61 128.0, 638.98 128.67, 644.24 129.33, 649.41 130.0, 654.48 130.67, 659.46 131.33, 664.34 132.0, 669.13 132.67, 673.84 133.33, 678.45 134.0, 682.98 134.67, 687.42 135.33, 691.78 136.0, 696.05 136.67, 700.25 137.33, 704.36 138.0, 708.4 138.67, 712.35 139.33, 716.23 140.0, 720.04 140.67, 723.77 141.33, 727.42 142.0, 731.01 142.67, 734.52 143.33, 737.97 144.0, 741.35 144.67, 744.66 145.33, 747.9 146.0, 751.08 146.67, 754.19 147.33, 757.24 148.0, 760.23 148.67, 763.16 149.33, 766.02 150.0, 768.83 150.67, 771.58 151.33, 774.27 152.0, 776.91 152.67, 779.49 153.33, 782.01 154.0, 784.48 154.67, 786.9 155.33, 789.27 156.0, 791.58 156.67, 793.85 157.33, 796.06 158.0, 798.23 158.67, 800.35 159.33, 802.42 160.0, 804.44 160.67, 806.42 161.33, 808.36 162.0, 810.25 162.67, 812.09 163.33, 813.89 164.0, 815.65 164.67, 817.37 165.33, 819.05 166.0, 820.69 166.67, 822.29 167.33, 823.85 168.0, 825.37 168.67, 826.85 169.33, 828.29 170.0, 829.7 170.67, 831.08 171.33, 832.41 172.0, 833.72 172.67, 834.99 173.33, 836.22 174.0, 837.42 174.67, 838.59 175.33, 839.73 176.0, 840.84 176.67, 841.91 177.33, 842.95 178.0, 843.97 178.67, 844.95 179.33, 845.91 180.0, 846.83 180.67, 847.73 181.33, 848.6 182.0, 849.44 182.67, 850.26 183.33, 851.05 184.0, 851.81 184.67, 852.55 185.33, 853.26 186.0, 853.95 186.67, 854.61 187.33, 855.25 188.0, 855.86 188.67, 856.45 189.33, 857.02 190.0, 857.57 190.67, 858.09 191.33, 858.6 192.0, 859.08 192.67, 859.54 193.33, 859.97 194.0, 860.39 194.67, 860.79 195.33, 861.17 196.0, 861.53 196.67, 861.87 197.33, 862.19 198.0, 862.49 198.67, 862.77 199.33, 863.04 200.0, 863.28 200.67, 863.51 201.33, 863.73 202.0, 863.92 202.67, 864.1 203.33, 864.26 204.0, 864.41 204.67, 864.54 205.33, 864.65 206.0, 864.75 206.67, 864.84 207.33, 864.91 208.0, 864.96 208.67, 865.0 209.33, 865.03 210.0, 865.04 210.67, 865.04 211.33, 865.02 212.0, 864.99 212.67, 864.95 213.33, 864.9 214.0, 864.83 214.67, 864.75 215.33, 864.66 216.0, 864.55 216.67, 864.44 217.33, 864.31 218.0, 864.17 218.67, 864.02 219.33, 863.85 220.0, 863.68 220.67, 863.5 221.33, 863.3 222.0, 863.09 222.67, 862.88 223.33, 862.65 224.0, 862.42 224.67, 862.17 225.33, 861.92 226.0, 861.65 226.67, 861.38 227.33, 861.09 228.0, 860.8 228.67, 860.5 229.33, 860.19 230.0, 859.87 230.67, 859.54 231.33, 859.2 232.0, 858.86 232.67, 858.51 233.33, 858.15 234.0, 857.78 234.67, 857.4 235.33, 857.02 236.0, 856.63 236.67, 856.23 237.33, 855.82 238.0, 855.41 238.67, 854.99 239.33, 854.57 240.0, 854.13 240.67, 853.69 241.33, 853.25 242.0, 852.8 242.67, 852.34 243.33, 851.87 244.0, 851.4 244.67, 850.92 245.33, 850.44 246.0, 849.95 246.67, 849.46 247.33, 848.96 248.0, 848.45 248.67, 847.94 249.33, 847.43 250.0, 846.91 250.67, 846.38 251.33, 845.85 252.0, 845.32 252.67, 844.77 253.33, 844.23 254.0, 843.68 254.67, 843.13 255.33, 842.57 256.0, 842.01 256.67, 841.44 257.33, 840.87 258.0, 840.29 258.67, 839.71 259.33, 839.13 260.0, 838.54 260.67, 837.95 261.33, 837.36 262.0, 836.76 262.67, 836.16 263.33, 835.56 264.0, 834.95 264.67, 834.34 265.33, 833.72 266.0, 833.11 266.67, 832.48 267.33, 831.86 268.0, 831.24 268.67, 830.61 269.33, 829.98 270.0, 829.34 270.67, 828.7 271.33, 828.06 272.0, 827.42 272.67, 826.78 273.33, 826.13 274.0, 825.48 274.67, 824.83 275.33, 824.18 276.0, 823.53 276.67, 822.87 277.33, 822.21 278.0, 821.55 278.67, 820.89 279.33, 820.22 280.0, 819.56 280.67, 818.89 281.33, 818.22 282.0, 817.55 282.67, 816.88 283.33, 816.21 284.0, 815.53 284.67, 814.86 285.33, 814.18 286.0, 813.51 286.67, 812.83 287.33, 812.15 288.0, 811.47 288.67, 810.79 289.33, 810.11 290.0, 809.42 290.67, 808.74 291.33, 808.06 292.0, 807.37 292.67, 806.69 293.33, 806.0 294.0, 805.32 294.67, 804.63 295.33, 803.95 296.0, 803.26 296.67, 802.57 297.33, 801.89 298.0, 801.2 298.67, 800.52 299.33, 799.83 300.0, 799.14 300.67, 798.46 301.33, 797.77 302.0, 797.09 302.67, 796.4 303.33, 795.72 304.0, 795.03 304.67, 794.35 305.33, 793.67 306.0, 792.98 306.67, 792.3 307.33, 791.62 308.0, 790.94 308.67, 790.26 309.33, 789.58 310.0, 788.9 310.67, 788.23 311.33, 787.55 312.0, 786.88 312.67, 786.2 313.33, 785.53 314.0, 784.86 314.67, 784.19 315.33, 783.52 316.0, 782.85 316.67, 782.19 317.33, 781.52 318.0, 780.86 318.67, 780.2 319.33, 779.54 320.0, 778.88 320.67, 778.23 321.33, 777.57 322.0, 776.92 322.67, 776.27 323.33, 775.62 324.0, 774.97 324.67, 774.33 325.33, 773.68 326.0, 773.04 326.67, 772.4 327.33, 771.77 328.0, 771.13 328.67, 770.5 329.33, 769.87 330.0, 769.24 330.67, 768.61 331.33, 767.99 332.0, 767.37 332.67, 766.75 333.33, 766.14 334.0, 765.52 334.67, 764.91 335.33, 764.3 336.0, 763.7 336.67, 763.1 337.33, 762.5 338.0, 761.9 338.67, 761.3 339.33, 760.71 340.0, 760.13 340.67, 759.54 341.33, 758.96 342.0, 758.38 342.67, 757.8 343.33, 757.23 344.0, 756.66 344.67, 756.09 345.33, 755.53 346.0, 754.97 346.67, 754.41 347.33, 753.86 348.0, 753.31 348.67, 752.76 349.33, 752.22 350.0, 751.68 350.67, 751.14 351.33, 750.61 352.0, 750.08 352.67, 749.56 353.33, 749.03 354.0, 748.52 354.67, 748.0 355.33, 747.49 356.0, 746.99 356.67, 746.48 357.33, 745.98 358.0, 745.49 358.67, 745.0 359.33, 744.51 360.0, 744.03 360.67, 743.55 361.33, 743.07 362.0, 742.6 362.67, 742.14 363.33, 741.67 364.0, 741.22 364.67, 740.76 365.33, 740.31 366.0, 739.87 366.67, 739.43 367.33, 738.99 368.0, 738.56 368.67, 738.13 369.33, 737.71 370.0, 737.29 370.67, 736.87 371.33, 736.46 372.0, 736.06 372.67, 735.65 373.33, 735.26 374.0, 734.87 374.67, 734.48 375.33, 734.1 376.0, 733.72 376.67, 733.35 377.33, 732.98 378.0, 732.61 378.67, 732.26 379.33, 731.9 380.0, 731.55 380.67, 731.21 381.33, 730.87 382.0, 730.53 382.67, 730.2 383.33, 729.88 384.0, 729.56 384.67, 729.25 385.33, 728.94 386.0, 728.63 386.67, 728.33 387.33, 728.04 388.0, 727.75 388.67, 727.46 389.33, 727.18 390.0, 726.91 390.67, 726.64 391.33, 726.38 392.0, 726.12 392.67, 725.87 393.33, 725.62 394.0, 725.38 394.67, 725.14 395.33, 724.91 396.0, 724.68 396.67, 724.46 397.33, 724.24 398.0, 724.03 398.67, 723.82 399.33, 723.62 400.0, 723.43 400.67, 723.24 401.33, 723.06 402.0, 722.88 402.67, 722.7 403.33, 722.54 404.0, 722.37 404.67, 722.22 405.33, 722.07 406.0, 721.92 406.67, 721.78 407.33, 721.64 408.0, 721.51 408.67, 721.39 409.33, 721.27 410.0, 721.16 410.67, 721.05 411.33, 720.95 412.0, 720.85 412.67, 720.76 413.33, 720.68 414.0, 720.6 414.67, 720.52 415.33, 720.45 416.0, 720.39 416.67, 720.33 417.33, 720.28 418.0, 720.24 418.67, 720.19 419.33, 720.16 420.0, 720.13 420.67, 720.11 421.33, 720.09 422.0, 720.07 422.67, 720.07 423.33, 720.07 424.0, 720.07 424.67, 720.08 425.33, 720.09 426.0, 720.12 426.67, 720.14 427.33, 720.17 428.0, 720.21 428.67, 720.25 429.33, 720.3 430.0, 720.36 430.67, 720.42 431.33, 720.48 432.0, 720.55 432.67, 720.63 433.33, 720.71 434.0, 720.8 434.67, 720.89 435.33, 720.99 436.0, 721.09 436.67, 721.2 437.33, 721.32 438.0, 721.44 438.67, 721.56 439.33, 721.7 440.0, 721.83 440.67, 721.98 441.33, 722.12 442.0, 722.28 442.67, 722.44 443.33, 722.6 444.0, 722.77 444.67, 722.94 445.33, 723.12 446.0, 723.31 446.67, 723.5 447.33, 723.7 448.0, 723.9 448.67, 724.1 449.33, 724.32 450.0, 724.53 450.67, 724.76 451.33, 724.98 452.0, 725.22 452.67, 725.46 453.33, 725.7 454.0, 725.95 454.67, 726.2 455.33, 726.46 456.0, 726.73 456.67, 727.0 457.33, 727.27 458.0, 727.55 458.67, 727.83 459.33, 728.12 460.0, 728.42 460.67, 728.72 461.33, 729.02 462.0, 729.33 462.67, 729.64 463.33, 729.96 464.0, 730.29 464.67, 730.62 465.33, 730.95 466.0, 731.29 466.67, 731.63 467.33, 731.98 468.0, 732.33 468.67, 732.69 469.33, 733.05 470.0, 733.42 470.67, 733.79 471.33, 734.17 472.0, 734.55 472.67, 734.93 473.33, 735.32 474.0, 735.72 474.67, 736.12 475.33, 736.52 476.0, 736.93 476.67, 737.34 477.33, 737.75 478.0, 738.18 478.67, 738.6 479.33, 739.03 480.0, 739.46 480.67, 739.9 481.33, 740.34 482.0, 740.79 482.67, 741.24 483.33, 741.69 484.0, 742.15 484.67, 742.61 485.33, 743.08 486.0, 743.55 486.67, 744.02 487.33, 744.5 488.0, 744.98 488.67, 745.47 489.33, 745.96 490.0, 746.45 490.67, 746.95 491.33, 747.45 492.0, 747.95 492.67, 748.46 493.33, 748.97 494.0, 749.49 494.67, 750.01 495.33, 750.53 496.0, 751.05 496.67, 751.58 497.33, 752.12 498.0, 752.65 498.67, 753.19 499.33, 753.73 500.0, 754.28 500.67, 754.83 501.33, 755.38 502.0, 755.93 502.67, 756.49 503.33, 757.05 504.0, 757.62 504.67, 758.18 505.33, 758.75 506.0, 759.32 506.67, 759.9 507.33, 760.48 508.0, 761.06 508.67, 761.64 509.33, 762.23 510.0, 762.82 510.67, 763.41 511.33, 764.0 512.0, 764.6 512.67, 765.2 513.33, 765.8 514.0, 766.4 514.67, 767.01 515.33, 767.62 516.0, 768.23 516.67, 768.84 517.33, 769.46 518.0, 770.07 518.67, 770.69 519.33, 771.32 520.0, 771.94 520.67, 772.56 521.33, 773.19 522.0, 773.82 522.67, 774.45 523.33, 775.08 524.0, 775.72 524.67, 776.35 525.33, 776.99 526.0, 777.63 526.67, 778.27 527.33, 778.91 528.0, 779.56 528.67, 780.2 529.33, 780.85 530.0, 781.5 530.67, 782.15 531.33, 782.8 532.0, 783.45 532.67, 784.1 533.33, 784.76 534.0, 785.41 534.67, 786.07 535.33, 786.72 536.0, 787.38 536.67, 788.04 537.33, 788.7 538.0, 789.36 538.67, 790.02 539.33, 790.68 540.0, 791.34 540.67, 792.01 541.33, 792.67 542.0, 793.34 542.67, 794.0 543.33, 794.67 544.0, 795.33 544.67, 796.0 545.33, 796.66 546.0, 797.33 546.67, 797.99 547.33, 798.66 548.0, 799.33 548.67, 799.99 549.33, 800.66 550.0, 801.33 550.67, 801.99 551.33, 802.66 552.0, 803.33 552.67, 803.99 553.33, 804.66 554.0, 805.32 554.67, 805.99 555.33, 806.65 556.0, 807.32 556.67, 807.98 557.33, 808.64 558.0, 809.31 558.67, 809.97 559.33, 810.63 560.0, 811.29 560.67, 811.95 561.33, 812.61 562.0, 813.27 562.67, 813.92 563.33, 814.58 564.0, 815.23 564.67, 815.89 565.33, 816.54 566.0, 817.19 566.67, 817.84 567.33, 818.49 568.0, 819.14 568.67, 819.79 569.33, 820.43 570.0, 821.08 570.67, 821.72 571.33, 822.36 572.0, 823.0 572.67, 823.64 573.33, 824.27 574.0, 824.91 574.67, 825.54 575.33, 826.17 576.0, 826.8 576.67, 827.43 577.33, 828.05 578.0, 828.67 578.67, 829.3 579.33, 829.92 580.0, 830.53 580.67, 831.15 581.33, 831.76 582.0, 832.37 582.67, 832.98 583.33, 833.59 584.0, 834.19 584.67, 834.79 585.33, 835.39 586.0, 835.99 586.67, 836.58 587.33, 837.17 588.0, 837.76 588.67, 838.35 589.33, 838.93 590.0, 839.51 590.67, 840.09 591.33, 840.67 592.0, 841.24 592.67, 841.81 593.33, 842.38 594.0, 842.94 594.67, 843.5 595.33, 844.06 596.0, 844.61 596.67, 845.17 597.33, 845.72 598.0, 846.26 598.67, 846.8 599.33, 847.34 600.0, 847.88 600.67, 848.41 601.33, 848.94 602.0, 849.46 602.67, 849.99 603.33, 850.51 604.0, 851.02 604.67, 851.53 605.33, 852.04 606.0, 852.55 606.67, 853.05 607.33, 853.54 608.0, 854.04 608.67, 854.53 609.33, 855.01 610.0, 855.49 610.67, 855.97 611.33, 856.45 612.0, 856.92 612.67, 857.38 613.33, 857.85 614.0, 858.31 614.67, 858.76 615.33, 859.21 616.0, 859.66 616.67, 860.1 617.33, 860.54 618.0, 860.97 618.67, 861.4 619.33, 861.82 620.0, 862.25 620.67, 862.66 621.33, 863.07 622.0, 863.48 622.67, 863.89 623.33, 864.29 624.0, 864.68 624.67, 865.07 625.33, 865.46 626.0, 865.84 626.67, 866.21 627.33, 866.58 628.0, 866.95 628.67, 867.31 629.33, 867.67 630.0, 868.03 630.67, 868.37 631.33, 868.72 632.0, 869.06 632.67, 869.39 633.33, 869.72 634.0, 870.04 634.67, 870.36 635.33, 870.68 636.0, 870.99 636.67, 871.29 637.33, 871.59 638.0, 871.89 638.67, 872.18 639.33, 872.46 640.0, 872.74 640.67, 873.02 641.33, 873.29 642.0, 873.55 642.67, 873.81 643.33, 874.07 644.0, 874.32 644.67, 874.56 645.33, 874.8 646.0, 875.03 646.67, 875.26 647.33, 875.49 648.0, 875.7 648.67, 875.92 649.33, 876.12 650.0, 876.33 650.67, 876.52 651.33, 876.72 652.0, 876.9 652.67, 877.08 653.33, 877.26 654.0, 877.43 654.67, 877.59 655.33, 877.75 656.0, 877.91 656.67, 878.06 657.33, 878.2 658.0, 878.34 658.67, 878.47 659.33, 878.6 660.0, 878.72 660.67, 878.83 661.33, 878.95 662.0, 879.05 662.67, 879.15 663.33, 879.24 664.0, 879.33 664.67, 879.42 665.33, 879.49 666.0, 879.57 666.67, 879.63 667.33, 879.69 668.0, 879.75 668.67, 879.8 669.33, 879.84 670.0, 879.88 670.67, 879.92 671.33, 879.94 672.0, 879.97 672.67, 879.98 673.33, 879.99 674.0, 880.0 674.67, 880.0 675.33, 879.99 676.0, 879.98 676.67, 879.97 677.33, 879.94 678.0, 879.92 678.67, 879.88 679.33, 879.84 680.0, 879.8 680.67, 879.75 681.33, 879.69 682.0, 879.63 682.67, 879.57 683.33, 879.49 684.0, 879.42 684.67, 879.33 685.33, 879.25 686.0, 879.15 686.67, 879.05 687.33, 878.95 688.0, 878.84 688.67, 878.72 689.33, 878.6 690.0, 878.47 690.67, 878.34 691.33, 878.2 692.0, 878.06 692.67, 877.91 693.33, 877.76 694.0, 877.6 694.67, 877.43 695.33, 877.26 696.0, 877.08 696.67, 876.9 697.33, 876.72 698.0, 876.53 698.67, 876.33 699.33, 876.13 700.0, 875.92 700.67, 875.71 701.33, 875.49 702.0, 875.26 702.67, 875.04 703.33, 874.8 704.0, 874.56 704.67, 874.32 705.33, 874.07 706.0, 873.82 706.67, 873.56 707.33, 873.29 708.0, 873.02 708.67, 872.75 709.33, 872.47 710.0, 872.18 710.67, 871.89 711.33, 871.6 712.0, 871.3 712.67, 870.99 713.33, 870.68 714.0, 870.37 714.67, 870.05 715.33, 869.72 716.0, 869.39 716.67, 869.06 717.33, 868.72 718.0, 868.38 718.67, 868.03 719.33, 867.68 720.0, 867.32 720.67, 866.96 721.33, 866.59 722.0, 866.22 722.67, 865.84 723.33, 865.46 724.0, 865.07 724.67, 864.68 725.33, 864.29 726.0, 863.89 726.67, 863.49 727.33, 863.08 728.0, 862.67 728.67, 862.25 729.33, 861.83 730.0, 861.4 730.67, 860.97 731.33, 860.54 732.0, 860.1 732.67, 859.66 733.33, 859.21 734.0, 858.76 734.67, 858.31 735.33, 857.85 736.0, 857.39 736.67, 856.92 737.33, 856.45 738.0, 855.98 738.67, 855.5 739.33, 855.02 740.0, 854.53 740.67, 854.04 741.33, 853.55 742.0, 853.05 742.67, 852.55 743.33, 852.05 744.0, 851.54 744.67, 851.03 745.33, 850.51 746.0, 849.99 746.67, 849.47 747.33, 848.94 748.0, 848.41 748.67, 847.88 749.33, 847.35 750.0, 846.81 750.67, 846.27 751.33, 845.72 752.0, 845.17 752.67, 844.62 753.33, 844.06 754.0, 843.51 754.67, 842.95 755.33, 842.38 756.0, 841.81 756.67, 841.25 757.33, 840.67 758.0, 840.1 758.67, 839.52 759.33, 838.94 760.0, 838.35 760.67, 837.77 761.33, 837.18 762.0, 836.59 762.67, 835.99 763.33, 835.4 764.0, 834.8 764.67, 834.2 765.33, 833.59 766.0, 832.99 766.67, 832.38 767.33, 831.77 768.0, 831.15 768.67, 830.54 769.33, 829.92 770.0, 829.3 770.67, 828.68 771.33, 828.06 772.0, 827.43 772.67, 826.8 773.33, 826.18 774.0, 825.54 774.67, 824.91 775.33, 824.28 776.0, 823.64 776.67, 823.0 777.33, 822.36 778.0, 821.72 778.67, 821.08 779.33, 820.44 780.0, 819.79 780.67, 819.15 781.33, 818.5 782.0, 817.85 782.67, 817.2 783.33, 816.55 784.0, 815.89 784.67, 815.24 785.33, 814.58 786.0, 813.93 786.67, 813.27 787.33, 812.61 788.0, 811.96 788.67, 811.3 789.33, 810.64 790.0, 809.97 790.67, 809.31 791.33, 808.65 792.0, 807.99 792.67, 807.32 793.33, 806.66 794.0, 805.99 794.67, 805.33 795.33, 804.66 796.0, 804.0 796.67, 803.33 797.33, 802.67 798.0, 802.0 798.67, 801.33 799.33, 800.67 800.0, 800.0 800.67, 799.33 801.33, 798.67 802.0, 798.0 802.67, 797.33 803.33, 796.67 804.0, 796.0 804.67, 795.34 805.33, 794.67 806.0, 794.01 806.67, 793.34 807.33, 792.68 808.0, 792.01 808.67, 791.35 809.33, 790.69 810.0, 790.03 810.67, 789.36 811.33, 788.7 812.0, 788.04 812.67, 787.39 813.33, 786.73 814.0, 786.07 814.67, 785.42 815.33, 784.76 816.0, 784.11 816.67, 783.45 817.33, 782.8 818.0, 782.15 818.67, 781.5 819.33, 780.85 820.0, 780.21 820.67, 779.56 821.33, 778.92 822.0, 778.28 822.67, 777.64 823.33, 777.0 824.0, 776.36 824.67, 775.72 825.33, 775.09 826.0, 774.46 826.67, 773.82 827.33, 773.2 828.0, 772.57 828.67, 771.94 829.33, 771.32 830.0, 770.7 830.67, 770.08 831.33, 769.46 832.0, 768.85 832.67, 768.23 833.33, 767.62 834.0, 767.01 834.67, 766.41 835.33, 765.8 836.0, 765.2 836.67, 764.6 837.33, 764.01 838.0, 763.41 838.67, 762.82 839.33, 762.23 840.0, 761.65 840.67, 761.06 841.33, 760.48 842.0, 759.9 842.67, 759.33 843.33, 758.75 844.0, 758.19 844.67, 757.62 845.33, 757.05 846.0, 756.49 846.67, 755.94 847.33, 755.38 848.0, 754.83 848.67, 754.28 849.33, 753.73 850.0, 753.19 850.67, 752.65 851.33, 752.12 852.0, 751.59 852.67, 751.06 853.33, 750.53 854.0, 750.01 854.67, 749.49 855.33, 748.97 856.0, 748.46 856.67, 747.95 857.33, 747.45 858.0, 746.95 858.67, 746.45 859.33, 745.96 860.0, 745.47 860.67, 744.98 861.33, 744.5 862.0, 744.02 862.67, 743.55 863.33, 743.08 864.0, 742.61 864.67, 742.15 865.33, 741.69 866.0, 741.24 866.67, 740.79 867.33, 740.34 868.0, 739.9 868.67, 739.46 869.33, 739.03 870.0, 738.6 870.67, 738.17 871.33, 737.75 872.0, 737.33 872.67, 736.92 873.33, 736.51 874.0, 736.11 874.67, 735.71 875.33, 735.32 876.0, 734.93 876.67, 734.54 877.33, 734.16 878.0, 733.78 878.67, 733.41 879.33, 733.04 880.0, 732.68 880.67, 732.32 881.33, 731.97 882.0, 731.62 882.67, 731.28 883.33, 730.94 884.0, 730.61 884.67, 730.28 885.33, 729.95 886.0, 729.63 886.67, 729.32 887.33, 729.01 888.0, 728.7 888.67, 728.4 889.33, 728.11 890.0, 727.82 890.67, 727.53 891.33, 727.25 892.0, 726.98 892.67, 726.71 893.33, 726.44 894.0, 726.18 894.67, 725.93 895.33, 725.68 896.0, 725.44 896.67, 725.2 897.33, 724.96 898.0, 724.74 898.67, 724.51 899.33, 724.29 900.0, 724.08 900.67, 723.87 901.33, 723.67 902.0, 723.47 902.67, 723.28 903.33, 723.1 904.0, 722.92 904.67, 722.74 905.33, 722.57 906.0, 722.4 906.67, 722.24 907.33, 722.09 908.0, 721.94 908.67, 721.8 909.33, 721.66 910.0, 721.53 910.67, 721.4 911.33, 721.28 912.0, 721.16 912.67, 721.05 913.33, 720.95 914.0, 720.85 914.67, 720.75 915.33, 720.67 916.0, 720.58 916.67, 720.51 917.33, 720.43 918.0, 720.37 918.67, 720.31 919.33, 720.25 920.0, 720.2 920.67, 720.16 921.33, 720.12 922.0, 720.08 922.67, 720.06 923.33, 720.03 924.0, 720.02 924.67, 720.01 925.33, 720.0 926.0, 720.0 926.67, 720.01 927.33, 720.02 928.0, 720.03 928.67, 720.06 929.33, 720.08 930.0, 720.12 930.67, 720.16 931.33, 720.2 932.0, 720.25 932.67, 720.31 933.33, 720.37 934.0, 720.43 934.67, 720.51 935.33, 720.58 936.0, 720.67 936.67, 720.76 937.33, 720.85 938.0, 720.95 938.67, 721.05 939.33, 721.17 940.0, 721.28 940.67, 721.4 941.33, 721.53 942.0, 721.66 942.67, 721.8 943.33, 721.94 944.0, 722.09 944.67, 722.25 945.33, 722.41 946.0, 722.57 946.67, 722.74 947.33, 722.92 948.0, 723.1 948.67, 723.28 949.33, 723.48 950.0, 723.67 950.67, 723.88 951.33, 724.08 952.0, 724.3 952.67, 724.51 953.33, 724.74 954.0, 724.97 954.67, 725.2 955.33, 725.44 956.0, 725.68 956.67, 725.93 957.33, 726.19 958.0, 726.45 958.67, 726.71 959.33, 726.98 960.0, 727.26 960.67, 727.54 961.33, 727.82 962.0, 728.11 962.67, 728.41 963.33, 728.71 964.0, 729.01 964.67, 729.32 965.33, 729.64 966.0, 729.96 966.67, 730.28 967.33, 730.61 968.0, 730.94 968.67, 731.28 969.33, 731.63 970.0, 731.97 970.67, 732.33 971.33, 732.69 972.0, 733.05 972.67, 733.42 973.33, 733.79 974.0, 734.16 974.67, 734.54 975.33, 734.93 976.0, 735.32 976.67, 735.71 977.33, 736.11 978.0, 736.52 978.67, 736.93 979.33, 737.34 980.0, 737.75 980.67, 738.18 981.33, 738.6 982.0, 739.03 982.67, 739.46 983.33, 739.9 984.0, 740.34 984.67, 740.79 985.33, 741.24 986.0, 741.69 986.67, 742.15 987.33, 742.62 988.0, 743.08 988.67, 743.55 989.33, 744.03 990.0, 744.51 990.67, 744.99 991.33, 745.47 992.0, 745.96 992.67, 746.46 993.33, 746.95 994.0, 747.45 994.67, 747.96 995.33, 748.47 996.0, 748.98 996.67, 749.49 997.33, 750.01 998.0, 750.54 998.67, 751.06 999.33, 751.59 1000.0, 752.12 1000.67, 752.66 1001.33, 753.2 1002.0, 753.74 1002.67, 754.28 1003.33, 754.83 1004.0, 755.39 1004.67, 755.94 1005.33, 756.5 1006.0, 757.06 1006.67, 757.62 1007.33, 758.19 1008.0, 758.76 1008.67, 759.33 1009.33, 759.91 1010.0, 760.49 1010.67, 761.07 1011.33, 761.65 1012.0, 762.24 1012.67, 762.83 1013.33, 763.42 1014.0, 764.01 1014.67, 764.61 1015.33, 765.21 1016.0, 765.81 1016.67, 766.41 1017.33, 767.02 1018.0, 767.63 1018.67, 768.24 1019.33, 768.85 1020.0, 769.47 1020.67, 770.08 1021.33, 770.7 1022.0, 771.33 1022.67, 771.95 1023.33, 772.57 1024.0, 773.2 1024.67, 773.83 1025.33, 774.46 1026.0, 775.09 1026.67, 775.73 1027.33, 776.36 1028.0, 777.0 1028.67, 777.64 1029.33, 778.28 1030.0, 778.92 1030.67, 779.57 1031.33, 780.21 1032.0, 780.86 1032.67, 781.51 1033.33, 782.16 1034.0, 782.81 1034.67, 783.46 1035.33, 784.11 1036.0, 784.77 1036.67, 785.42 1037.33, 786.08 1038.0, 786.73 1038.67, 787.39 1039.33, 788.05 1040.0, 788.71 1040.67, 789.37 1041.33, 790.03 1042.0, 790.69 1042.67, 791.36 1043.33, 792.02 1044.0, 792.68 1044.67, 793.35 1045.33, 794.01 1046.0, 794.68 1046.67, 795.34 1047.33, 796.01 1048.0, 796.67 1048.67, 797.34 1049.33, 798.01 1050.0, 798.67 1050.67, 799.34 1051.33, 800.01 1052.0, 800.67 1052.67, 801.34 1053.33, 802.01 1054.0, 802.67 1054.67, 803.34 1055.33, 804.0 1056.0, 804.67 1056.67, 805.33 1057.33, 806.0 1058.0, 806.66 1058.67, 807.33 1059.33, 807.99 1060.0, 808.66 1060.67, 809.32 1061.33, 809.98 1062.0, 810.64 1062.67, 811.3 1063.33, 811.96 1064.0, 812.62 1064.67, 813.28 1065.33, 813.93 1066.0, 814.59 1066.67, 815.24 1067.33, 815.9 1068.0, 816.55 1068.67, 817.2 1069.33, 817.85 1070.0, 818.5 1070.67, 819.15 1071.33, 819.8 1072.0, 820.44 1072.67, 821.09 1073.33, 821.73 1074.0, 822.37 1074.67, 823.01 1075.33, 823.65 1076.0, 824.28 1076.67, 824.92 1077.33, 825.55 1078.0, 826.18 1078.67, 826.81 1079.33, 827.44 1080.0, 828.06 1080.67, 828.68 1081.33, 829.31 1082.0, 829.93 1082.67, 830.54 1083.33, 831.16 1084.0, 831.77 1084.67, 832.38 1085.33, 832.99 1086.0, 833.6 1086.67, 834.2 1087.33, 834.8 1088.0, 835.4 1088.67, 836.0 1089.33, 836.59 1090.0, 837.18 1090.67, 837.77 1091.33, 838.36 1092.0, 838.94 1092.67, 839.52 1093.33, 840.1 1094.0, 840.68 1094.67, 841.25 1095.33, 841.82 1096.0, 842.38 1096.67, 842.95 1097.33, 843.51 1098.0, 844.07 1098.67, 844.62 1099.33, 845.17 1100.0, 845.72 1100.67, 846.27 1101.33, 846.81 1102.0, 847.35 1102.67, 847.88 1103.33, 848.42 1104.0, 848.95 1104.67, 849.47 1105.33, 849.99 1106.0, 850.51 1106.67, 851.03 1107.33, 851.54 1108.0, 852.05 1108.67, 852.55 1109.33, 853.05 1110.0, 853.55 1110.67, 854.04 1111.33, 854.53 1112.0, 855.02 1112.67, 855.5 1113.33, 855.98 1114.0, 856.45 1114.67, 856.92 1115.33, 857.39 1116.0, 857.85 1116.67, 858.31 1117.33, 858.76 1118.0, 859.21 1118.67, 859.66 1119.33, 860.1 1120.0, 860.54 1120.67, 860.97 1121.33, 861.4 1122.0, 861.82 1122.67, 862.25 1123.33, 862.66 1124.0, 863.07 1124.67, 863.48 1125.33, 863.88 1126.0, 864.28 1126.67, 864.68 1127.33, 865.07 1128.0, 865.45 1128.67, 865.83 1129.33, 866.21 1130.0, 866.58 1130.67, 866.95 1131.33, 867.31 1132.0, 867.67 1132.67, 868.02 1133.33, 868.37 1134.0, 868.71 1134.67, 869.05 1135.33, 869.38 1136.0, 869.71 1136.67, 870.04 1137.33, 870.36 1138.0, 870.67 1138.67, 870.98 1139.33, 871.28 1140.0, 871.58 1140.67, 871.88 1141.33, 872.17 1142.0, 872.45 1142.67, 872.73 1143.33, 873.0 1144.0, 873.27 1144.67, 873.54 1145.33, 873.8 1146.0, 874.05 1146.67, 874.3 1147.33, 874.54 1148.0, 874.78 1148.67, 875.02 1149.33, 875.24 1150.0, 875.47 1150.67, 875.68 1151.33, 875.9 1152.0, 876.1 1152.67, 876.3 1153.33, 876.5 1154.0, 876.69 1154.67, 876.88 1155.33, 877.06 1156.0, 877.23 1156.67, 877.4 1157.33, 877.56 1158.0, 877.72 1158.67, 877.88 1159.33, 878.02 1160.0, 878.17 1160.67, 878.3 1161.33, 878.44 1162.0, 878.56 1162.67, 878.68 1163.33, 878.8 1164.0, 878.91 1164.67, 879.01 1165.33, 879.11 1166.0, 879.2 1166.67, 879.29 1167.33, 879.37 1168.0, 879.45 1168.67, 879.52 1169.33, 879.58 1170.0, 879.64 1170.67, 879.7 1171.33, 879.75 1172.0, 879.79 1172.67, 879.83 1173.33, 879.86 1174.0, 879.88 1174.67, 879.91 1175.33, 879.92 1176.0, 879.93 1176.67, 879.93 1177.33, 879.93 1178.0, 879.93 1178.67, 879.91 1179.33, 879.89 1180.0, 879.87 1180.67, 879.84 1181.33, 879.81 1182.0, 879.76 1182.67, 879.72 1183.33, 879.67 1184.0, 879.61 1184.67, 879.55 1185.33, 879.48 1186.0, 879.4 1186.67, 879.32 1187.33, 879.24 1188.0, 879.15 1188.67, 879.05 1189.33, 878.95 1190.0, 878.84 1190.67, 878.73 1191.33, 878.61 1192.0, 878.49 1192.67, 878.36 1193.33, 878.22 1194.0, 878.08 1194.67, 877.93 1195.33, 877.78 1196.0, 877.63 1196.67, 877.46 1197.33, 877.3 1198.0, 877.12 1198.67, 876.94 1199.33, 876.76 1200.0, 876.57 1200.67, 876.38 1201.33, 876.18 1202.0, 875.97 1202.67, 875.76 1203.33, 875.54 1204.0, 875.32 1204.67, 875.09 1205.33, 874.86 1206.0, 874.62 1206.67, 874.38 1207.33, 874.13 1208.0, 873.88 1208.67, 873.62 1209.33, 873.36 1210.0, 873.09 1210.67, 872.82 1211.33, 872.54 1212.0, 872.25 1212.67, 871.96 1213.33, 871.67 1214.0, 871.37 1214.67, 871.06 1215.33, 870.75 1216.0, 870.44 1216.67, 870.12 1217.33, 869.8 1218.0, 869.47 1218.67, 869.13 1219.33, 868.79 1220.0, 868.45 1220.67, 868.1 1221.33, 867.74 1222.0, 867.39 1222.67, 867.02 1223.33, 866.65 1224.0, 866.28 1224.67, 865.9 1225.33, 865.52 1226.0, 865.13 1226.67, 864.74 1227.33, 864.35 1228.0, 863.94 1228.67, 863.54 1229.33, 863.13 1230.0, 862.71 1230.67, 862.29 1231.33, 861.87 1232.0, 861.44 1232.67, 861.01 1233.33, 860.57 1234.0, 860.13 1234.67, 859.69 1235.33, 859.24 1236.0, 858.78 1236.67, 858.33 1237.33, 857.86 1238.0, 857.4 1238.67, 856.93 1239.33, 856.45 1240.0, 855.97 1240.67, 855.49 1241.33, 855.0 1242.0, 854.51 1242.67, 854.02 1243.33, 853.52 1244.0, 853.01 1244.67, 852.51 1245.33, 852.0 1246.0, 851.48 1246.67, 850.97 1247.33, 850.44 1248.0, 849.92 1248.67, 849.39 1249.33, 848.86 1250.0, 848.32 1250.67, 847.78 1251.33, 847.24 1252.0, 846.69 1252.67, 846.14 1253.33, 845.59 1254.0, 845.03 1254.67, 844.47 1255.33, 843.91 1256.0, 843.34 1256.67, 842.77 1257.33, 842.2 1258.0, 841.62 1258.67, 841.04 1259.33, 840.46 1260.0, 839.87 1260.67, 839.29 1261.33, 838.7 1262.0, 838.1 1262.67, 837.5 1263.33, 836.9 1264.0, 836.3 1264.67, 835.7 1265.33, 835.09 1266.0, 834.48 1266.67, 833.86 1267.33, 833.25 1268.0, 832.63 1268.67, 832.01 1269.33, 831.39 1270.0, 830.76 1270.67, 830.13 1271.33, 829.5 1272.0, 828.87 1272.67, 828.23 1273.33, 827.6 1274.0, 826.96 1274.67, 826.32 1275.33, 825.67 1276.0, 825.03 1276.67, 824.38 1277.33, 823.73 1278.0, 823.08 1278.67, 822.43 1279.33, 821.77 1280.0, 821.12 1280.67, 820.46 1281.33, 819.8 1282.0, 819.14 1282.67, 818.48 1283.33, 817.81 1284.0, 817.15 1284.67, 816.48 1285.33, 815.81 1286.0, 815.14 1286.67, 814.47 1287.33, 813.8 1288.0, 813.12 1288.67, 812.45 1289.33, 811.77 1290.0, 811.1 1290.67, 810.42 1291.33, 809.74 1292.0, 809.06 1292.67, 808.38 1293.33, 807.7 1294.0, 807.02 1294.67, 806.33 1295.33, 805.65 1296.0, 804.97 1296.67, 804.28 1297.33, 803.6 1298.0, 802.91 1298.67, 802.23 1299.33, 801.54 1300.0, 800.86 1300.67, 800.17 1301.33, 799.48 1302.0, 798.8 1302.67, 798.11 1303.33, 797.43 1304.0, 796.74 1304.67, 796.05 1305.33, 795.37 1306.0, 794.68 1306.67, 794.0 1307.33, 793.31 1308.0, 792.63 1308.67, 791.94 1309.33, 791.26 1310.0, 790.58 1310.67, 789.89 1311.33, 789.21 1312.0, 788.53 1312.67, 787.85 1313.33, 787.17 1314.0, 786.49 1314.67, 785.82 1315.33, 785.14 1316.0, 784.47 1316.67, 783.79 1317.33, 783.12 1318.0, 782.45 1318.67, 781.78 1319.33, 781.11 1320.0, 780.44 1320.67, 779.78 1321.33, 779.11 1322.0, 778.45 1322.67, 777.79 1323.33, 777.13 1324.0, 776.47 1324.67, 775.82 1325.33, 775.17 1326.0, 774.52 1326.67, 773.87 1327.33, 773.22 1328.0, 772.58 1328.67, 771.94 1329.33, 771.3 1330.0, 770.66 1330.67, 770.02 1331.33, 769.39 1332.0, 768.76 1332.67, 768.14 1333.33, 767.52 1334.0, 766.89 1334.67, 766.28 1335.33, 765.66 1336.0, 765.05 1336.67, 764.44 1337.33, 763.84 1338.0, 763.24 1338.67, 762.64 1339.33, 762.05 1340.0, 761.46 1340.67, 760.87 1341.33, 760.29 1342.0, 759.71 1342.67, 759.13 1343.33, 758.56 1344.0, 757.99 1344.67, 757.43 1345.33, 756.87 1346.0, 756.32 1346.67, 755.77 1347.33, 755.23 1348.0, 754.68 1348.67, 754.15 1349.33, 753.62 1350.0, 753.09 1350.67, 752.57 1351.33, 752.06 1352.0, 751.55 1352.67, 751.04 1353.33, 750.54 1354.0, 750.05 1354.67, 749.56 1355.33, 749.08 1356.0, 748.6 1356.67, 748.13 1357.33, 747.66 1358.0, 747.2 1358.67, 746.75 1359.33, 746.31 1360.0, 745.87 1360.67, 745.43 1361.33, 745.01 1362.0, 744.59 1362.67, 744.18 1363.33, 743.77 1364.0, 743.37 1364.67, 742.98 1365.33, 742.6 1366.0, 742.22 1366.67, 741.85 1367.33, 741.49 1368.0, 741.14 1368.67, 740.8 1369.33, 740.46 1370.0, 740.13 1370.67, 739.81 1371.33, 739.5 1372.0, 739.2 1372.67, 738.91 1373.33, 738.62 1374.0, 738.35 1374.67, 738.08 1375.33, 737.83 1376.0, 737.58 1376.67, 737.35 1377.33, 737.12 1378.0, 736.91 1378.67, 736.7 1379.33, 736.5 1380.0, 736.32 1380.67, 736.15 1381.33, 735.98 1382.0, 735.83 1382.67, 735.69 1383.33, 735.56 1384.0, 735.45 1384.67, 735.34 1385.33, 735.25 1386.0, 735.17 1386.67, 735.1 1387.33, 735.05 1388.0, 735.01 1388.67, 734.98 1389.33, 734.96 1390.0, 734.96 1390.67, 734.97 1391.33, 735.0 1392.0, 735.04 1392.67, 735.09 1393.33, 735.16 1394.0, 735.25 1394.67, 735.35 1395.33, 735.46 1396.0, 735.59 1396.67, 735.74 1397.33, 735.9 1398.0, 736.08 1398.67, 736.27 1399.33, 736.49 1400.0, 736.72 1400.67, 736.96 1401.33, 737.23 1402.0, 737.51 1402.67, 737.81 1403.33, 738.13 1404.0, 738.47 1404.67, 738.83 1405.33, 739.21 1406.0, 739.61 1406.67, 740.03 1407.33, 740.46 1408.0, 740.92 1408.67, 741.4 1409.33, 741.91 1410.0, 742.43 1410.67, 742.98 1411.33, 743.55 1412.0, 744.14 1412.67, 744.75 1413.33, 745.39 1414.0, 746.05 1414.67, 746.74 1415.33, 747.45 1416.0, 748.19 1416.67, 748.95 1417.33, 749.74 1418.0, 750.56 1418.67, 751.4 1419.33, 752.27 1420.0, 753.17 1420.67, 754.09 1421.33, 755.05 1422.0, 756.03 1422.67, 757.05 1423.33, 758.09 1424.0, 759.16 1424.67, 760.27 1425.33, 761.41 1426.0, 762.58 1426.67, 763.78 1427.33, 765.01 1428.0, 766.28 1428.67, 767.59 1429.33, 768.92 1430.0, 770.3 1430.67, 771.71 1431.33, 773.15 1432.0, 774.63 1432.67, 776.15 1433.33, 777.71 1434.0, 779.31 1434.67, 780.95 1435.33, 782.63 1436.0, 784.35 1436.67, 786.11 1437.33, 787.91 1438.0, 789.75 1438.67, 791.64 1439.33, 793.58 1440.0, 795.56 1440.67, 797.58 1441.33, 799.65 1442.0, 801.77 1442.67, 803.94 1443.33, 806.15 1444.0, 808.42 1444.67, 810.73 1445.33, 813.1 1446.0, 815.52 1446.67, 817.99 1447.33, 820.51 1448.0, 823.09 1448.67, 825.73 1449.33, 828.42 1450.0, 831.17 1450.67, 833.98 1451.33, 836.84 1452.0, 839.77 1452.67, 842.76 1453.33, 845.81 1454.0, 848.92 1454.67, 852.1 1455.33, 855.34 1456.0, 858.65 1456.67, 862.03 1457.33, 865.48 1458.0, 868.99 1458.67, 872.58 1459.33, 876.23 1460.0, 879.96 1460.67, 883.77 1461.33, 887.65 1462.0, 891.6 1462.67, 895.64 1463.33, 899.75 1464.0, 903.95 1464.67, 908.22 1465.33, 912.58 1466.0, 917.02 1466.67, 921.55 1467.33, 926.16 1468.0, 930.87 1468.67, 935.66 1469.33, 940.54 1470.0, 945.52 1470.67, 950.59 1471.33, 955.76 1472.0, 961.02 1472.67, 966.39 1473.33, 971.85 1474.0, 977.42 1474.67, 983.09 1475.33, 988.86 1476.0, 994.74 1476.67, 1000.73 1477.33, 1006.83 1478.0, 1013.04 1478.67, 1019.37 1479.33, 1025.81 1480.0, 1032.37 1480.67, 1039.05 1481.33, 1045.85 1482.0, 1052.77 1482.67, 1059.82 1483.33, 1067.0 1484.0, 1074.3 1484.67, 1081.74 1485.33, 1089.31 1486.0, 1097.01 1486.67, 1104.85 1487.33, 1112.83 1488.0, 1120.96 1488.67, 1129.22 1489.33, 1137.64 1490.0, 1146.2 1490.67, 1154.91 1491.33, 1163.78 1492.0, 1172.8 1492.67, 1181.98 1493.33, 1191.32 1494.0, 1200.83 1494.67, 1210.5 1495.33, 1220.34 1496.0, 1230.34 1496.67, 1240.53 1497.33, 1250.89 1498.0, 1261.42 1498.67, 1272.14 1499.33, 1283.05 1500.0, 1294.14 1500.67, 1305.42 1501.33, 1316.89 1502.0, 1328.56 1502.67, 1340.43 1503.33, 1352.51 1504.0, 1364.78 1504.67, 1377.27 1505.33, 1389.97 1506.0, 1402.88 1506.67, 1416.01 1507.33, 1429.37 1508.0, 1442.95 1508.67, 1456.75 1509.33, 1470.79 1510.0, 1485.06 1510.67, 1499.58 1511.33, 1514.33 1512.0, 1529.34 1512.67, 1544.59 1513.33, 1560.1 1514.0, 1575.86 1514.67, 1591.89 1515.33, 1608.18 1516.0, 1624.74 1516.67, 1641.58 1517.33, 1658.69 1518.0, 1676.09 1518.67, 1693.77 1519.33, 1711.74 1520.0, 1730.01 1520.67, 1748.58 1521.33, 1767.45 1522.0, 1786.63 1522.67, 1806.12 1523.33, 1825.93 1524.0, 1846.06 1524.67, 1866.52 1525.33, 1887.32 1526.0, 1908.45 1526.67, 1929.92 1527.33, 1951.74 1528.0, 1973.91 1528.67, 1996.44 1529.33, 2019.33 1530.0, 2042.59 1530.67, 2066.23 1531.33, 2090.24 1532.0, 2114.64 1532.67, 2139.43 1533.33, 2164.62 1534.0, 2190.21 1534.67, 2216.2 1535.33, 2242.61 1536.0, 2269.44 1536.67, 2296.7 1537.33, 2324.39 1538.0, 2352.52 1538.67, 2381.09 1539.33, 2410.11 1540.0, 2439.6 1540.67, 2469.54 1541.33, 2499.96 1542.0, 2530.86 1542.67, 2562.24 1543.33, 2594.12 1544.0, 2626.5 1544.67, 2659.38 1545.33, 2692.77 1546.0, 2726.69 1546.67, 2761.14 1547.33, 2796.12 1548.0, 2831.65 1548.67, 2867.73 1549.33, 2904.37 1550.0, 2941.58 1550.67, 2979.36 1551.33, 3017.73 1552.0, 3056.69 1552.67, 3096.25 1553.33, 3136.42 1554.0, 3177.21 1554.67, 3218.63 1555.33, 3260.68 1556.0, 3303.38 1556.67, 3346.74 1557.33, 3390.75 1558.0, 3435.44 1558.67, 3480.81 1559.33, 3526.88 1560.0, 3573.64 1560.67, 3621.12 1561.33, 3669.32 1562.0, 3718.25 1562.67, 3767.92 1563.33, 3818.35 1564.0, 3869.53 1564.67, 3921.5 1565.33, 3974.24 1566.0, 4027.78 1566.67, 4082.13 1567.33, 4137.29 1568.0, 4193.29 1568.67, 4250.12 1569.33, 4307.8 1570.0, 4366.35 1570.67, 4425.78 1571.33, 4486.09 1572.0, 4547.31 1572.67, 4609.43 1573.33, 4672.48 1574.0, 4736.47 1574.67, 4801.41 1575.33, 4867.31 1576.0, 4934.19 1576.67, 5002.06 1577.33, 5070.94 1578.0, 5140.83 1578.67, 5211.75 1579.33, 5283.72 1580.0, 5356.75 1580.67, 5430.85 1581.33, 5506.04 1582.0, 5582.34 1582.67, 5659.75 1583.33, 5738.3 1584.0, 5818.0 1584.67, 5898.86 1585.33, 5980.9 1586.0, 6064.14 1586.67, 6148.58 1587.33, 6234.26 1588.0, 6321.19 1588.67, 6409.37 1589.33, 6498.83 1590.0, 6589.59 1590.67, 6681.66 1591.33, 6775.07 1592.0, 6869.82 1592.67, 6965.94 1593.33, 7063.44 1594.0, 7162.35 1594.67, 7262.67 1595.33, 7364.44 1596.0, 7467.67 1596.67, 7572.37 1597.33, 7678.58 1598.0, 7786.3 1598.67, 7895.56 1599.33, 8006.39 1600.0, 8118.78 " fill="none" stroke="white" stroke-width="1.5" stroke-linejoin="round" stroke-opacity="1"/>

 </svg>