<svg version="1.1" 
 baseProfile="full" 
 width="1600" 
 height="1600" 
 xmlns="http://www.w3.org/2000/svg">
<rect x="0.0" y="0.0" width="1600" height="1600" fill="black" stroke="black" stroke-width="0" opacity="1"/>
<line x1="0.0" y1="0.0" x2="0.0" y2="1600.0" stroke="white" stroke-width="1" opacity="0.4" stroke-linecap="butt"/>
<line x1="160.0" y1="0.0" x2="160.0" y2="1600.0" stroke="white" stroke-width="1" opacity="0.4" stroke-linecap="butt"/>
<line x1="320.0" y1="0.0" x2="320.0" y2="1600.0" stroke="white" stroke-width="1" opacity="0.4" stroke-linecap="butt"/>
<line x1="480.0" y1="0.0" x2="480.0" y2="1600.0" stroke="white" stroke-width="1" opacity="0.4" stroke-linecap="butt"/>
<line x1="640.0" y1="0.0" x2="640.0" y2="1600.0" stroke="white" stroke-width="1" opacity="0.4" stroke-linecap="butt"/>
<line x1="800.0" y1="0.0" x2="800.0" y2="1600.0" stroke="white" stroke-width="1" opacity="0.4" stroke-linecap="butt"/>
<line x1="960.0" y1="0.0" x2="960.0" y2="1600.0" stroke="white" stroke-width="1" opacity="0.4" stroke-linecap="butt"/>
<line x1="1120.0" y1="0.0" x2="1120.0" y2="1600.0" stroke="white" stroke-width="1" opacity="0.4" stroke-linecap="butt"/>
<line x1="1280.0" y1="0.0" x2="1280.0" y2="1600.0" stroke="white" stroke-width="1" opacity="0.4" stroke-linecap="butt"/>
<line x1="1440.0" y1="0.0" x2="1440.0" y2="1600.0" stroke="white" stroke-width="1" opacity="0.4" stroke-linecap="butt"/>
<line x1="0.0" y1="0.0" x2="1600.0" y2="0.0" stroke="white" stroke-width="1" opacity="0.4" stroke-linecap="butt"/>
<line x1="0.0" y1="160.0" x2="1600.0" y2="160.0" stroke="white" stroke-width="1" opacity="0.4" stroke-linecap="butt"/>
<line x1="0.0" y1="320.0" x2="1600.0" y2="320.0" stroke="white" stroke-width="1" opacity="0.4" stroke-linecap="butt"/>
<line x1="0.0" y1="480.0" x2="1600.0" y2="480.0" stroke="white" stroke-width="1" opacity="0.4" stroke-linecap="butt"/>
<line x1="0.0" y1="640.0" x2="1600.0" y2="640.0" stroke="white" stroke-width="1" opacity="0.4" stroke-linecap="butt"/>
<line x1="0.0" y1="800.0" x2="1600.0" y2="800.0" stroke="white" stroke-width="1" opacity="0.4" stroke-linecap="butt"/>
<line x1="0.0" y1="960.0" x2="1600.0" y2="960.0" stroke="white" stroke-width="1" opacity="0.4" stroke-linecap="butt"/>
<line x1="0.0" y1="1120.0" x2="1600.0" y2="1120.0" stroke="white" stroke-width="1" opacity="0.4" stroke-linecap="butt"/>
<line x1="0.0" y1="1280.0" x2="1600.0" y2="1280.0" stroke="white" stroke-width="1" opacity="0.4" stroke-linecap="butt"/>
<line x1="0.0" y1="1440.0" x2="1600.0" y2="1440.0" stroke="white" stroke-width="1" opacity="0.4" stroke-linecap="butt"/>
<line x1="0.0" y1="800.0" x2="1600.0" y2="800.0" stroke="yellow" stroke-width="2.5" opacity="1" stroke-linecap="butt"/>
<line x1="800.0" y1="0.0" x2="800.0" y2="1600.0" stroke="yellow" stroke-width="2.5" opacity="1" stroke-linecap="butt"/>
<polygon points="1564.0 816.0, 1604.0 800.0, 1564.0 784.0, 1572.0 800.0" fill="yellow"/><polygon points="816.0 36.0, 800.0 -4.0, 784.0 36.0, 800.0 28.0" fill="yellow"/><polyline points="0.0, -8812.93 0.67, -8672.02 1.33, -8533.02 2.0, -8395.91 2.67, -8260.66 3.33, -8127.25 4.0, -7995.65 4.67, -7865.84 5.33, -7737.81 6.0, -7611.52 6.67, -7486.96 7.33, -7364.1 8.0, -7242.92 8.67, -7123.4 9.33, -7005.52 10.0, -6889.26 10.67, -6774.6 11.33, -6661.51 12.0, -6549.98 12.67, -6439.99 13.33, -6331.51 14.0, -6224.53 14.67, -6119.03 15.33, -6014.99 16.0, -5912.38 16.67, -5811.2 17.33, -5711.43 18.0, -5613.04 18.67, -5516.01 19.33, -5420.34 20.0, -5326.0 20.67, -5232.97 21.33, -5141.24 22.0, -5050.79 22.67, -4961.61 23.33, -4873.67 24.0, -4786.97 24.67, -4701.48 25.33, -4617.19 26.0, -4534.08 26.67, -4452.14 27.33, -4371.36 28.0, -4291.71 28.67, -4213.19 29.33, -4135.78 30.0, -4059.46 30.67, -3984.21 31.33, -3910.04 32.0, -3836.91 32.67, -3764.82 33.33, -3693.76 34.0, -3623.7 34.67, -3554.65 35.33, -3486.57 36.0, -3419.47 36.67, -3353.32 37.33, -3288.12 38.0, -3223.85 38.67, -3160.49 39.33, -3098.05 40.0, -3036.5 40.67, -2975.84 41.33, -2916.04 42.0, -2857.11 42.67, -2799.03 43.33, -2741.78 44.0, -2685.35 44.67, -2629.75 45.33, -2574.94 46.0, -2520.93 46.67, -2467.7 47.33, -2415.24 48.0, -2363.55 48.67, -2312.6 49.33, -2262.4 50.0, -2212.92 50.67, -2164.17 51.33, -2116.13 52.0, -2068.78 52.67, -2022.13 53.33, -1976.17 54.0, -1930.87 54.67, -1886.24 55.33, -1842.27 56.0, -1798.94 56.67, -1756.24 57.33, -1714.18 58.0, -1672.74 58.67, -1631.9 59.33, -1591.67 60.0, -1552.04 60.67, -1512.99 61.33, -1474.51 62.0, -1436.61 62.67, -1399.27 63.33, -1362.49 64.0, -1326.25 64.67, -1290.55 65.33, -1255.39 66.0, -1220.75 66.67, -1186.62 67.33, -1153.01 68.0, -1119.9 68.67, -1087.28 69.33, -1055.16 70.0, -1023.51 70.67, -992.34 71.33, -961.64 72.0, -931.41 72.67, -901.63 73.33, -872.3 74.0, -843.41 74.67, -814.96 75.33, -786.93 76.0, -759.34 76.67, -732.16 77.33, -705.4 78.0, -679.04 78.67, -653.08 79.33, -627.52 80.0, -602.35 80.67, -577.57 81.33, -553.16 82.0, -529.13 82.67, -505.46 83.33, -482.16 84.0, -459.22 84.67, -436.63 85.33, -414.39 86.0, -392.49 86.67, -370.92 87.33, -349.7 88.0, -328.8 88.67, -308.22 89.33, -287.96 90.0, -268.02 90.67, -248.39 91.33, -229.06 92.0, -210.03 92.67, -191.3 93.33, -172.87 94.0, -154.72 94.67, -136.86 95.33, -119.27 96.0, -101.96 96.67, -84.93 97.33, -68.16 98.0, -51.66 98.67, -35.42 99.33, -19.43 100.0, -3.7 100.67, 11.79 101.33, 27.03 102.0, 42.02 102.67, 56.78 103.33, 71.3 104.0, 85.6 104.67, 99.66 105.33, 113.5 106.0, 127.11 106.67, 140.51 107.33, 153.69 108.0, 166.66 108.67, 179.43 109.33, 191.98 110.0, 204.34 110.67, 216.49 111.33, 228.45 112.0, 240.21 112.67, 251.78 113.33, 263.16 114.0, 274.36 114.67, 285.37 115.33, 296.21 116.0, 306.87 116.67, 317.35 117.33, 327.66 118.0, 337.8 118.67, 347.77 119.33, 357.58 120.0, 367.23 120.67, 376.71 121.33, 386.04 122.0, 395.21 122.67, 404.24 123.33, 413.11 124.0, 421.83 124.67, 430.4 125.33, 438.84 126.0, 447.13 126.67, 455.28 127.33, 463.29 128.0, 471.17 128.67, 478.91 129.33, 486.52 130.0, 494.01 130.67, 501.36 131.33, 508.59 132.0, 515.7 132.67, 522.68 133.33, 529.55 134.0, 536.29 134.67, 542.92 135.33, 549.44 136.0, 555.84 136.67, 562.13 137.33, 568.31 138.0, 574.38 138.67, 580.35 139.33, 586.21 140.0, 591.97 140.67, 597.63 141.33, 603.19 142.0, 608.64 142.67, 614.0 143.33, 619.27 144.0, 624.44 144.67, 629.52 145.33, 634.51 146.0, 639.41 146.67, 644.21 147.33, 648.94 148.0, 653.57 148.67, 658.12 149.33, 662.59 150.0, 666.98 150.67, 671.28 151.33, 675.51 152.0, 679.66 152.67, 683.73 153.33, 687.72 154.0, 691.64 154.67, 695.48 155.33, 699.26 156.0, 702.96 156.67, 706.59 157.33, 710.15 158.0, 713.64 158.67, 717.07 159.33, 720.43 160.0, 723.73 160.67, 726.96 161.33, 730.12 162.0, 733.23 162.67, 736.27 163.33, 739.26 164.0, 742.18 164.67, 745.05 165.33, 747.85 166.0, 750.61 166.67, 753.3 167.33, 755.94 168.0, 758.53 168.67, 761.06 169.33, 763.54 170.0, 765.97 170.67, 768.35 171.33, 770.67 172.0, 772.95 172.67, 775.18 173.33, 777.36 174.0, 779.5 174.67, 781.58 175.33, 783.63 176.0, 785.62 176.67, 787.57 177.33, 789.48 178.0, 791.35 178.67, 793.17 179.33, 794.96 180.0, 796.7 180.67, 798.4 181.33, 800.06 182.0, 801.68 182.67, 803.26 183.33, 804.81 184.0, 806.31 184.67, 807.78 185.33, 809.22 186.0, 810.62 186.67, 811.98 187.33, 813.31 188.0, 814.6 188.67, 815.86 189.33, 817.09 190.0, 818.29 190.67, 819.45 191.33, 820.58 192.0, 821.68 192.67, 822.75 193.33, 823.79 194.0, 824.8 194.67, 825.78 195.33, 826.73 196.0, 827.66 196.67, 828.55 197.33, 829.42 198.0, 830.26 198.67, 831.07 199.33, 831.86 200.0, 832.63 200.67, 833.36 201.33, 834.07 202.0, 834.76 202.67, 835.42 203.33, 836.06 204.0, 836.68 204.67, 837.27 205.33, 837.84 206.0, 838.39 206.67, 838.91 207.33, 839.41 208.0, 839.89 208.67, 840.36 209.33, 840.79 210.0, 841.21 210.67, 841.61 211.33, 841.99 212.0, 842.35 212.67, 842.69 213.33, 843.01 214.0, 843.31 214.67, 843.6 215.33, 843.86 216.0, 844.11 216.67, 844.34 217.33, 844.56 218.0, 844.75 218.67, 844.93 219.33, 845.1 220.0, 845.24 220.67, 845.37 221.33, 845.49 222.0, 845.59 222.67, 845.67 223.33, 845.74 224.0, 845.8 224.67, 845.84 225.33, 845.86 226.0, 845.88 226.67, 845.87 227.33, 845.86 228.0, 845.83 228.67, 845.79 229.33, 845.73 230.0, 845.66 230.67, 845.58 231.33, 845.49 232.0, 845.39 232.67, 845.27 233.33, 845.14 234.0, 845.0 234.67, 844.85 235.33, 844.68 236.0, 844.51 236.67, 844.32 237.33, 844.13 238.0, 843.92 238.67, 843.71 239.33, 843.48 240.0, 843.24 240.67, 843.0 241.33, 842.74 242.0, 842.47 242.67, 842.2 243.33, 841.91 244.0, 841.62 244.67, 841.32 245.33, 841.01 246.0, 840.69 246.67, 840.36 247.33, 840.02 248.0, 839.68 248.67, 839.32 249.33, 838.96 250.0, 838.6 250.67, 838.22 251.33, 837.84 252.0, 837.45 252.67, 837.05 253.33, 836.64 254.0, 836.23 254.67, 835.81 255.33, 835.39 256.0, 834.95 256.67, 834.52 257.33, 834.07 258.0, 833.62 258.67, 833.16 259.33, 832.7 260.0, 832.23 260.67, 831.76 261.33, 831.28 262.0, 830.79 262.67, 830.3 263.33, 829.8 264.0, 829.3 264.67, 828.8 265.33, 828.28 266.0, 827.77 266.67, 827.25 267.33, 826.72 268.0, 826.19 268.67, 825.65 269.33, 825.12 270.0, 824.57 270.67, 824.02 271.33, 823.47 272.0, 822.92 272.67, 822.36 273.33, 821.79 274.0, 821.23 274.67, 820.66 275.33, 820.08 276.0, 819.51 276.67, 818.92 277.33, 818.34 278.0, 817.75 278.67, 817.16 279.33, 816.57 280.0, 815.97 280.67, 815.38 281.33, 814.77 282.0, 814.17 282.67, 813.56 283.33, 812.95 284.0, 812.34 284.67, 811.73 285.33, 811.11 286.0, 810.5 286.67, 809.88 287.33, 809.25 288.0, 808.63 288.67, 808.0 289.33, 807.38 290.0, 806.75 290.67, 806.11 291.33, 805.48 292.0, 804.85 292.67, 804.21 293.33, 803.58 294.0, 802.94 294.67, 802.3 295.33, 801.66 296.0, 801.02 296.67, 800.38 297.33, 799.73 298.0, 799.09 298.67, 798.44 299.33, 797.8 300.0, 797.15 300.67, 796.51 301.33, 795.86 302.0, 795.21 302.67, 794.56 303.33, 793.92 304.0, 793.27 304.67, 792.62 305.33, 791.97 306.0, 791.32 306.67, 790.67 307.33, 790.03 308.0, 789.38 308.67, 788.73 309.33, 788.08 310.0, 787.44 310.67, 786.79 311.33, 786.14 312.0, 785.5 312.67, 784.85 313.33, 784.21 314.0, 783.56 314.67, 782.92 315.33, 782.27 316.0, 781.63 316.67, 780.99 317.33, 780.35 318.0, 779.71 318.67, 779.08 319.33, 778.44 320.0, 777.8 320.67, 777.17 321.33, 776.54 322.0, 775.91 322.67, 775.28 323.33, 774.65 324.0, 774.02 324.67, 773.39 325.33, 772.77 326.0, 772.15 326.67, 771.53 327.33, 770.91 328.0, 770.29 328.67, 769.68 329.33, 769.06 330.0, 768.45 330.67, 767.84 331.33, 767.24 332.0, 766.63 332.67, 766.03 333.33, 765.43 334.0, 764.83 334.67, 764.23 335.33, 763.64 336.0, 763.05 336.67, 762.46 337.33, 761.87 338.0, 761.29 338.67, 760.71 339.33, 760.13 340.0, 759.56 340.67, 758.98 341.33, 758.41 342.0, 757.84 342.67, 757.28 343.33, 756.72 344.0, 756.16 344.67, 755.6 345.33, 755.05 346.0, 754.5 346.67, 753.95 347.33, 753.41 348.0, 752.87 348.67, 752.33 349.33, 751.8 350.0, 751.27 350.67, 750.74 351.33, 750.22 352.0, 749.7 352.67, 749.18 353.33, 748.67 354.0, 748.16 354.67, 747.65 355.33, 747.15 356.0, 746.65 356.67, 746.16 357.33, 745.66 358.0, 745.18 358.67, 744.69 359.33, 744.21 360.0, 743.74 360.67, 743.26 361.33, 742.8 362.0, 742.33 362.67, 741.87 363.33, 741.41 364.0, 740.96 364.67, 740.51 365.33, 740.07 366.0, 739.63 366.67, 739.19 367.33, 738.76 368.0, 738.33 368.67, 737.91 369.33, 737.49 370.0, 737.08 370.67, 736.67 371.33, 736.26 372.0, 735.86 372.67, 735.47 373.33, 735.07 374.0, 734.69 374.67, 734.3 375.33, 733.93 376.0, 733.55 376.67, 733.18 377.33, 732.82 378.0, 732.46 378.67, 732.1 379.33, 731.75 380.0, 731.41 380.67, 731.07 381.33, 730.73 382.0, 730.4 382.67, 730.07 383.33, 729.75 384.0, 729.43 384.67, 729.12 385.33, 728.82 386.0, 728.51 386.67, 728.22 387.33, 727.93 388.0, 727.64 388.67, 727.36 389.33, 727.08 390.0, 726.81 390.67, 726.54 391.33, 726.28 392.0, 726.03 392.67, 725.77 393.33, 725.53 394.0, 725.29 394.67, 725.05 395.33, 724.82 396.0, 724.6 396.67, 724.38 397.33, 724.16 398.0, 723.96 398.67, 723.75 399.33, 723.55 400.0, 723.36 400.67, 723.17 401.33, 722.99 402.0, 722.81 402.67, 722.64 403.33, 722.47 404.0, 722.31 404.67, 722.16 405.33, 722.01 406.0, 721.86 406.67, 721.72 407.33, 721.59 408.0, 721.46 408.67, 721.34 409.33, 721.22 410.0, 721.11 410.67, 721.0 411.33, 720.9 412.0, 720.81 412.67, 720.72 413.33, 720.63 414.0, 720.56 414.67, 720.48 415.33, 720.42 416.0, 720.35 416.67, 720.3 417.33, 720.25 418.0, 720.2 418.67, 720.16 419.33, 720.13 420.0, 720.1 420.67, 720.07 421.33, 720.06 422.0, 720.04 422.67, 720.04 423.33, 720.04 424.0, 720.04 424.67, 720.05 425.33, 720.07 426.0, 720.09 426.67, 720.12 427.33, 720.15 428.0, 720.19 428.67, 720.23 429.33, 720.28 430.0, 720.33 430.67, 720.4 431.33, 720.46 432.0, 720.53 432.67, 720.61 433.33, 720.69 434.0, 720.78 434.67, 720.87 435.33, 720.97 436.0, 721.08 436.67, 721.19 437.33, 721.3 438.0, 721.42 438.67, 721.55 439.33, 721.68 440.0, 721.82 440.67, 721.96 441.33, 722.11 442.0, 722.26 442.67, 722.42 443.33, 722.59 444.0, 722.76 444.67, 722.93 445.33, 723.11 446.0, 723.3 446.67, 723.49 447.33, 723.69 448.0, 723.89 448.67, 724.09 449.33, 724.31 450.0, 724.52 450.67, 724.75 451.33, 724.98 452.0, 725.21 452.67, 725.45 453.33, 725.69 454.0, 725.94 454.67, 726.19 455.33, 726.45 456.0, 726.72 456.67, 726.99 457.33, 727.26 458.0, 727.54 458.67, 727.83 459.33, 728.12 460.0, 728.41 460.67, 728.71 461.33, 729.02 462.0, 729.32 462.67, 729.64 463.33, 729.96 464.0, 730.28 464.67, 730.61 465.33, 730.95 466.0, 731.28 466.67, 731.63 467.33, 731.98 468.0, 732.33 468.67, 732.69 469.33, 733.05 470.0, 733.42 470.67, 733.79 471.33, 734.16 472.0, 734.54 472.67, 734.93 473.33, 735.32 474.0, 735.71 474.67, 736.11 475.33, 736.52 476.0, 736.92 476.67, 737.34 477.33, 737.75 478.0, 738.17 478.67, 738.6 479.33, 739.03 480.0, 739.46 480.67, 739.9 481.33, 740.34 482.0, 740.79 482.67, 741.24 483.33, 741.69 484.0, 742.15 484.67, 742.61 485.33, 743.08 486.0, 743.55 486.67, 744.02 487.33, 744.5 488.0, 744.98 488.67, 745.47 489.33, 745.96 490.0, 746.45 490.67, 746.95 491.33, 747.45 492.0, 747.95 492.67, 748.46 493.33, 748.97 494.0, 749.49 494.67, 750.01 495.33, 750.53 496.0, 751.05 496.67, 751.58 497.33, 752.11 498.0, 752.65 498.67, 753.19 499.33, 753.73 500.0, 754.28 500.67, 754.83 501.33, 755.38 502.0, 755.93 502.67, 756.49 503.33, 757.05 504.0, 757.61 504.67, 758.18 505.33, 758.75 506.0, 759.32 506.67, 759.9 507.33, 760.48 508.0, 761.06 508.67, 761.64 509.33, 762.23 510.0, 762.82 510.67, 763.41 511.33, 764.0 512.0, 764.6 512.67, 765.2 513.33, 765.8 514.0, 766.4 514.67, 767.01 515.33, 767.62 516.0, 768.23 516.67, 768.84 517.33, 769.46 518.0, 770.07 518.67, 770.69 519.33, 771.31 520.0, 771.94 520.67, 772.56 521.33, 773.19 522.0, 773.82 522.67, 774.45 523.33, 775.08 524.0, 775.72 524.67, 776.35 525.33, 776.99 526.0, 777.63 526.67, 778.27 527.33, 778.91 528.0, 779.56 528.67, 780.2 529.33, 780.85 530.0, 781.5 530.67, 782.15 531.33, 782.8 532.0, 783.45 532.67, 784.1 533.33, 784.75 534.0, 785.41 534.67, 786.07 535.33, 786.72 536.0, 787.38 536.67, 788.04 537.33, 788.7 538.0, 789.36 538.67, 790.02 539.33, 790.68 540.0, 791.34 540.67, 792.01 541.33, 792.67 542.0, 793.34 542.67, 794.0 543.33, 794.66 544.0, 795.33 544.67, 796.0 545.33, 796.66 546.0, 797.33 546.67, 797.99 547.33, 798.66 548.0, 799.33 548.67, 799.99 549.33, 800.66 550.0, 801.33 550.67, 801.99 551.33, 802.66 552.0, 803.33 552.67, 803.99 553.33, 804.66 554.0, 805.32 554.67, 805.99 555.33, 806.65 556.0, 807.32 556.67, 807.98 557.33, 808.64 558.0, 809.31 558.67, 809.97 559.33, 810.63 560.0, 811.29 560.67, 811.95 561.33, 812.61 562.0, 813.27 562.67, 813.92 563.33, 814.58 564.0, 815.23 564.67, 815.89 565.33, 816.54 566.0, 817.19 566.67, 817.84 567.33, 818.49 568.0, 819.14 568.67, 819.79 569.33, 820.43 570.0, 821.08 570.67, 821.72 571.33, 822.36 572.0, 823.0 572.67, 823.64 573.33, 824.27 574.0, 824.91 574.67, 825.54 575.33, 826.17 576.0, 826.8 576.67, 827.43 577.33, 828.05 578.0, 828.67 578.67, 829.3 579.33, 829.92 580.0, 830.53 580.67, 831.15 581.33, 831.76 582.0, 832.37 582.67, 832.98 583.33, 833.59 584.0, 834.19 584.67, 834.79 585.33, 835.39 586.0, 835.99 586.67, 836.58 587.33, 837.17 588.0, 837.76 588.67, 838.35 589.33, 838.93 590.0, 839.51 590.67, 840.09 591.33, 840.67 592.0, 841.24 592.67, 841.81 593.33, 842.38 594.0, 842.94 594.67, 843.5 595.33, 844.06 596.0, 844.61 596.67, 845.17 597.33, 845.72 598.0, 846.26 598.67, 846.8 599.33, 847.34 600.0, 847.88 600.67, 848.41 601.33, 848.94 602.0, 849.46 602.67, 849.99 603.33, 850.51 604.0, 851.02 604.67, 851.53 605.33, 852.04 606.0, 852.55 606.67, 853.05 607.33, 853.54 608.0, 854.04 608.67, 854.53 609.33, 855.01 610.0, 855.49 610.67, 855.97 611.33, 856.45 612.0, 856.92 612.67, 857.38 613.33, 857.85 614.0, 858.31 614.67, 858.76 615.33, 859.21 616.0, 859.66 616.67, 860.1 617.33, 860.54 618.0, 860.97 618.67, 861.4 619.33, 861.82 620.0, 862.25 620.67, 862.66 621.33, 863.07 622.0, 863.48 622.67, 863.89 623.33, 864.29 624.0, 864.68 624.67, 865.07 625.33, 865.46 626.0, 865.84 626.67, 866.21 627.33, 866.58 628.0, 866.95 628.67, 867.31 629.33, 867.67 630.0, 868.03 630.67, 868.37 631.33, 868.72 632.0, 869.06 632.67, 869.39 633.33, 869.72 634.0, 870.04 634.67, 870.36 635.33, 870.68 636.0, 870.99 636.67, 871.29 637.33, 871.59 638.0, 871.89 638.67, 872.18 639.33, 872.46 640.0, 872.74 640.67, 873.02 641.33, 873.29 642.0, 873.55 642.67, 873.81 643.33, 874.07 644.0, 874.32 644.67, 874.56 645.33, 874.8 646.0, 875.03 646.67, 875.26 647.33, 875.49 648.0, 875.7 648.67, 875.92 649.33, 876.12 650.0, 876.33 650.67, 876.52 651.33, 876.72 652.0, 876.9 652.67, 877.08 653.33, 877.26 654.0, 877.43 654.67, 877.59 655.33, 877.75 656.0, 877.91 656.67, 878.06 657.33, 878.2 658.0, 878.34 658.67, 878.47 659.33, 878.6 660.0, 878.72 660.67, 878.83 661.33, 878.95 662.0, 879.05 662.67, 879.15 663.33, 879.24 664.0, 879.33 664.67, 879.42 665.33, 879.49 666.0, 879.57 666.67, 879.63 667.33, 879.69 668.0, 879.75 668.67, 879.8 669.33, 879.84 670.0, 879.88 670.67, 879.92 671.33, 879.94 672.0, 879.97 672.67, 879.98 673.33, 879.99 674.0, 880.0 674.67, 880.0 675.33, 879.99 676.0, 879.98 676.67, 879.97 677.33, 879.94 678.0, 879.92 678.67, 879.88 679.33, 879.84 680.0, 879.8 680.67, 879.75 681.33, 879.69 682.0, 879.63 682.67, 879.57 683.33, 879.49 684.0, 879.42 684.67, 879.33 685.33, 879.25 686.0, 879.15 686.67, 879.05 687.33, 878.95 688.0, 878.84 688.67, 878.72 689.33, 878.6 690.0, 878.47 690.67, 878.34 691.33, 878.2 692.0, 878.06 692.67, 877.91 693.33, 877.76 694.0, 877.6 694.67, 877.43 695.33, 877.26 696.0, 877.08 696.67, 876.9 697.33, 876.72 698.0, 876.53 698.67, 876.33 699.33, 876.13 700.0, 875.92 700.67, 875.71 701.33, 875.49 702.0, 875.26 702.67, 875.04 703.33, 874.8 704.0, 874.56 704.67, 874.32 705.33, 874.07 706.0, 873.82 706.67, 873.56 707.33, 873.29 708.0, 873.02 708.67, 872.75 709.33, 872.47 710.0, 872.18 710.67, 871.89 711.33, 871.6 712.0, 871.3 712.67, 870.99 713.33, 870.68 714.0, 870.37 714.67, 870.05 715.33, 869.72 716.0, 869.39 716.67, 869.06 717.33, 868.72 718.0, 868.38 718.67, 868.03 719.33, 867.68 720.0, 867.32 720.67, 866.96 721.33, 866.59 722.0, 866.22 722.67, 865.84 723.33, 865.46 724.0, 865.07 724.67, 864.68 725.33, 864.29 726.0, 863.89 726.67, 863.49 727.33, 863.08 728.0, 862.67 728.67, 862.25 729.33, 861.83 730.0, 861.4 730.67, 860.97 731.33, 860.54 732.0, 860.1 732.67, 859.66 733.33, 859.21 734.0, 858.76 734.67, 858.31 735.33, 857.85 736.0, 857.39 736.67, 856.92 737.33, 856.45 738.0, 855.98 738.67, 855.5 739.33, 855.02 740.0, 854.53 740.67, 854.04 741.33, 853.55 742.0, 853.05 742.67, 852.55 743.33, 852.05 744.0, 851.54 744.67, 851.03 745.33, 850.51 746.0, 849.99 746.67, 849.47 747.33, 848.94 748.0, 848.41 748.67, 847.88 749.33, 847.35 750.0, 846.81 750.67, 846.27 751.33, 845.72 752.0, 845.17 752.67, 844.62 753.33, 844.06 754.0, 843.51 754.67, 842.95 755.33, 842.38 756.0, 841.81 756.67, 841.25 757.33, 840.67 758.0, 840.1 758.67, 839.52 759.33, 838.94 760.0, 838.35 760.67, 837.77 761.33, 837.18 762.0, 836.59 762.67, 835.99 763.33, 835.4 764.0, 834.8 764.67, 834.2 765.33, 833.59 766.0, 832.99 766.67, 832.38 767.33, 831.77 768.0, 831.15 768.67, 830.54 769.33, 829.92 770.0, 829.3 770.67, 828.68 771.33, 828.06 772.0, 827.43 772.67, 826.8 773.33, 826.18 774.0, 825.54 774.67, 824.91 775.33, 824.28 776.0, 823.64 776.67, 823.0 777.33, 822.36 778.0, 821.72 778.67, 821.08 779.33, 820.44 780.0, 819.79 780.67, 819.15 781.33, 818.5 782.0, 817.85 782.67, 817.2 783.33, 816.55 784.0, 815.89 784.67, 815.24 785.33, 814.58 786.0, 813.93 786.67, 813.27 787.33, 812.61 788.0, 811.96 788.67, 811.3 789.33, 810.64 790.0, 809.97 790.67, 809.31 791.33, 808.65 792.0, 807.99 792.67, 807.32 793.33, 806.66 794.0, 805.99 794.67, 805.33 795.33, 804.66 796.0, 804.0 796.67, 803.33 797.33, 802.67 798.0, 802.0 798.67, 801.33 799.33, 800.67 800.0, 800.0 800.67, 799.33 801.33, 798.67 802.0, 798.0 802.67, 797.33 803.33, 796.67 804.0, 796.0 804.67, 795.34 805.33, 794.67 806.0, 794.01 806.67, 793.34 807.33, 792.68 808.0, 792.01 808.67, 791.35 809.33, 790.69 810.0, 790.03 810.67, 789.36 811.33, 788.7 812.0, 788.04 812.67, 787.39 813.33, 786.73 814.0, 786.07 814.67, 785.42 815.33, 784.76 816.0, 784.11 816.67, 783.45 817.33, 782.8 818.0, 782.15 818.67, 781.5 819.33, 780.85 820.0, 780.21 820.67, 779.56 821.33, 778.92 822.0, 778.28 822.67, 777.64 823.33, 777.0 824.0, 776.36 824.67, 775.72 825.33, 775.09 826.0, 774.46 826.67, 773.82 827.33, 773.2 828.0, 772.57 828.67, 771.94 829.33, 771.32 830.0, 770.7 830.67, 770.08 831.33, 769.46 832.0, 768.85 832.67, 768.23 833.33, 767.62 834.0, 767.01 834.67, 766.41 835.33, 765.8 836.0, 765.2 836.67, 764.6 837.33, 764.01 838.0, 763.41 838.67, 762.82 839.33, 762.23 840.0, 761.65 840.67, 761.06 841.33, 760.48 842.0, 759.9 842.67, 759.33 843.33, 758.75 844.0, 758.19 844.67, 757.62 845.33, 757.05 846.0, 756.49 846.67, 755.94 847.33, 755.38 848.0, 754.83 848.67, 754.28 849.33, 753.73 850.0, 753.19 850.67, 752.65 851.33, 752.12 852.0, 751.59 852.67, 751.06 853.33, 750.53 854.0, 750.01 854.67, 749.49 855.33, 748.97 856.0, 748.46 856.67, 747.95 857.33, 747.45 858.0, 746.95 858.67, 746.45 859.33, 745.96 860.0, 745.47 860.67, 744.98 861.33, 744.5 862.0, 744.02 862.67, 743.55 863.33, 743.08 864.0, 742.61 864.67, 742.15 865.33, 741.69 866.0, 741.24 866.67, 740.79 867.33, 740.34 868.0, 739.9 868.67, 739.46 869.33, 739.03 870.0, 738.6 870.67, 738.17 871.33, 737.75 872.0, 737.33 872.67, 736.92 873.33, 736.51 874.0, 736.11 874.67, 735.71 875.33, 735.32 876.0, 734.93 876.67, 734.54 877.33, 734.16 878.0, 733.78 878.67, 733.41 879.33, 733.04 880.0, 732.68 880.67, 732.32 881.33, 731.97 882.0, 731.62 882.67, 731.28 883.33, 730.94 884.0, 730.61 884.67, 730.28 885.33, 729.95 886.0, 729.63 886.67, 729.32 887.33, 729.01 888.0, 728.7 888.67, 728.4 889.33, 728.11 890.0, 727.82 890.67, 727.53 891.33, 727.25 892.0, 726.98 892.67, 726.71 893.33, 726.44 894.0, 726.18 894.67, 725.93 895.33, 725.68 896.0, 725.44 896.67, 725.2 897.33, 724.96 898.0, 724.74 898.67, 724.51 899.33, 724.29 900.0, 724.08 900.67, 723.87 901.33, 723.67 902.0, 723.47 902.67, 723.28 903.33, 723.1 904.0, 722.92 904.67, 722.74 905.33, 722.57 906.0, 722.4 906.67, 722.24 907.33, 722.09 908.0, 721.94 908.67, 721.8 909.33, 721.66 910.0, 721.53 910.67, 721.4 911.33, 721.28 912.0, 721.16 912.67, 721.05 913.33, 720.95 914.0, 720.85 914.67, 720.75 915.33, 720.67 916.0, 720.58 916.67, 720.51 917.33, 720.43 918.0, 720.37 918.67, 720.31 919.33, 720.25 920.0, 720.2 920.67, 720.16 921.33, 720.12 922.0, 720.08 922.67, 720.06 923.33, 720.03 924.0, 720.02 924.67, 720.01 925.33, 720.0 926.0, 720.0 926.67, 720.01 927.33, 720.02 928.0, 720.03 928.67, 720.06 929.33, 720.08 930.0, 720.12 930.67, 720.16 931.33, 720.2 932.0, 720.25 932.67, 720.31 933.33, 720.37 934.0, 720.43 934.67, 720.51 935.33, 720.58 936.0, 720.67 936.67, 720.76 937.33, 720.85 938.0, 720.95 938.67, 721.05 939.33, 721.17 940.0, 721.28 940.67, 721.4 941.33, 721.53 942.0, 721.66 942.67, 721.8 943.33, 721.94 944.0, 722.09 944.67, 722.25 945.33, 722.41 946.0, 722.57 946.67, 722.74 947.33, 722.92 948.0, 723.1 948.67, 723.28 949.33, 723.48 950.0, 723.67 950.67, 723.88 951.33, 724.08 952.0, 724.3 952.67, 724.51 953.33, 724.74 954.0, 724.97 954.67, 725.2 955.33, 725.44 956.0, 725.68 956.67, 725.93 957.33, 726.19 958.0, 726.45 958.67, 726.71 959.33, 726.98 960.0, 727.26 960.67, 727.54 961.33, 727.82 962.0, 728.11 962.67, 728.41 963.33, 728.71 964.0, 729.01 964.67, 729.32 965.33, 729.64 966.0, 729.96 966.67, 730.28 967.33, 730.61 968.0, 730.94 968.67, 731.28 969.33, 731.63 970.0, 731.97 970.67, 732.33 971.33, 732.69 972.0, 733.05 972.67, 733.42 973.33, 733.79 974.0, 734.16 974.67, 734.54 975.33, 734.93 976.0, 735.32 976.67, 735.71 977.33, 736.11 978.0, 736.52 978.67, 736.93 979.33, 737.34 980.0, 737.75 980.67, 738.18 981.33, 738.6 982.0, 739.03 982.67, 739.46 983.33, 739.9 984.0, 740.34 984.67, 740.79 985.33, 741.24 986.0, 741.69 986.67, 742.15 987.33, 742.62 988.0, 743.08 988.67, 743.55 989.33, 744.03 990.0, 744.51 990.67, 744.99 991.33, 745.47 992.0, 745.96 992.67, 746.46 993.33, 746.95 994.0, 747.45 994.67, 747.96 995.33, 748.47 996.0, 748.98 996.67, 749.49 997.33, 750.01 998.0, 750.54 998.67, 751.06 999.33, 751.59 1000.0, 752.12 1000.67, 752.66 1001.33, 753.2 1002.0, 753.74 1002.67, 754.28 1003.33, 754.83 1004.0, 755.39 1004.67, 755.94 1005.33, 756.5 1006.0, 757.06 1006.67, 757.62 1007.33, 758.19 1008.0, 758.76 1008.67, 759.33 1009.33, 759.91 1010.0, 760.49 1010.67, 761.07 1011.33, 761.65 1012.0, 762.24 1012.67, 762.83 1013.33, 763.42 1014.0, 764.01 1014.67, 764.61 1015.33, 765.21 1016.0, 765.81 1016.67, 766.41 1017.33, 767.02 1018.0, 767.63 1018.67, 768.24 1019.33, 768.85 1020.0, 769.47 1020.67, 770.08 1021.33, 770.7 1022.0, 771.33 1022.67, 771.95 1023.33, 772.57 1024.0, 773.2 1024.67, 773.83 1025.33, 774.46 1026.0, 775.09 1026.67, 775.73 1027.33, 776.36 1028.0, 777.0 1028.67, 777.64 1029.33, 778.28 1030.0, 778.92 1030.67, 779.57 1031.33, 780.21 1032.0, 780.86 1032.67, 781.51 1033.33, 782.16 1034.0, 782.81 1034.67, 783.46 1035.33, 784.11 1036.0, 784.77 1036.67, 785.42 1037.33, 786.08 1038.0, 786.73 1038.67, 787.39 1039.33, 788.05 1040.0, 788.71 1040.67, 789.37 1041.33, 790.03 1042.0, 790.69 1042.67, 791.36 1043.33, 792.02 1044.0, 792.68 1044.67, 793.35 1045.33, 794.01 1046.0, 794.68 1046.67, 795.34 1047.33, 796.01 1048.0, 796.67 1048.67, 797.34 1049.33, 798.01 1050.0, 798.67 1050.67, 799.34 1051.33, 800.01 1052.0, 800.67 1052.67, 801.34 1053.33, 802.01 1054.0, 802.67 1054.67, 803.34 1055.33, 804.0 1056.0, 804.67 1056.67, 805.34 1057.33, 806.0 1058.0, 806.66 1058.67, 807.33 1059.33, 807.99 1060.0, 808.66 1060.67, 809.32 1061.33, 809.98 1062.0, 810.64 1062.67, 811.3 1063.33, 811.96 1064.0, 812.62 1064.67, 813.28 1065.33, 813.93 1066.0, 814.59 1066.67, 815.25 1067.33, 815.9 1068.0, 816.55 1068.67, 817.2 1069.33, 817.85 1070.0, 818.5 1070.67, 819.15 1071.33, 819.8 1072.0, 820.44 1072.67, 821.09 1073.33, 821.73 1074.0, 822.37 1074.67, 823.01 1075.33, 823.65 1076.0, 824.28 1076.67, 824.92 1077.33, 825.55 1078.0, 826.18 1078.67, 826.81 1079.33, 827.44 1080.0, 828.06 1080.67, 828.69 1081.33, 829.31 1082.0, 829.93 1082.67, 830.54 1083.33, 831.16 1084.0, 831.77 1084.67, 832.38 1085.33, 832.99 1086.0, 833.6 1086.67, 834.2 1087.33, 834.8 1088.0, 835.4 1088.67, 836.0 1089.33, 836.59 1090.0, 837.18 1090.67, 837.77 1091.33, 838.36 1092.0, 838.94 1092.67, 839.52 1093.33, 840.1 1094.0, 840.68 1094.67, 841.25 1095.33, 841.82 1096.0, 842.39 1096.67, 842.95 1097.33, 843.51 1098.0, 844.07 1098.67, 844.62 1099.33, 845.17 1100.0, 845.72 1100.67, 846.27 1101.33, 846.81 1102.0, 847.35 1102.67, 847.89 1103.33, 848.42 1104.0, 848.95 1104.67, 849.47 1105.33, 849.99 1106.0, 850.51 1106.67, 851.03 1107.33, 851.54 1108.0, 852.05 1108.67, 852.55 1109.33, 853.05 1110.0, 853.55 1110.67, 854.04 1111.33, 854.53 1112.0, 855.02 1112.67, 855.5 1113.33, 855.98 1114.0, 856.45 1114.67, 856.92 1115.33, 857.39 1116.0, 857.85 1116.67, 858.31 1117.33, 858.76 1118.0, 859.21 1118.67, 859.66 1119.33, 860.1 1120.0, 860.54 1120.67, 860.97 1121.33, 861.4 1122.0, 861.83 1122.67, 862.25 1123.33, 862.66 1124.0, 863.08 1124.67, 863.48 1125.33, 863.89 1126.0, 864.29 1126.67, 864.68 1127.33, 865.07 1128.0, 865.46 1128.67, 865.84 1129.33, 866.21 1130.0, 866.58 1130.67, 866.95 1131.33, 867.31 1132.0, 867.67 1132.67, 868.02 1133.33, 868.37 1134.0, 868.72 1134.67, 869.05 1135.33, 869.39 1136.0, 869.72 1136.67, 870.04 1137.33, 870.36 1138.0, 870.68 1138.67, 870.98 1139.33, 871.29 1140.0, 871.59 1140.67, 871.88 1141.33, 872.17 1142.0, 872.46 1142.67, 872.74 1143.33, 873.01 1144.0, 873.28 1144.67, 873.55 1145.33, 873.81 1146.0, 874.06 1146.67, 874.31 1147.33, 874.55 1148.0, 874.79 1148.67, 875.02 1149.33, 875.25 1150.0, 875.48 1150.67, 875.69 1151.33, 875.91 1152.0, 876.11 1152.67, 876.31 1153.33, 876.51 1154.0, 876.7 1154.67, 876.89 1155.33, 877.07 1156.0, 877.24 1156.67, 877.41 1157.33, 877.58 1158.0, 877.74 1158.67, 877.89 1159.33, 878.04 1160.0, 878.18 1160.67, 878.32 1161.33, 878.45 1162.0, 878.58 1162.67, 878.7 1163.33, 878.81 1164.0, 878.92 1164.67, 879.03 1165.33, 879.13 1166.0, 879.22 1166.67, 879.31 1167.33, 879.39 1168.0, 879.47 1168.67, 879.54 1169.33, 879.6 1170.0, 879.67 1170.67, 879.72 1171.33, 879.77 1172.0, 879.81 1172.67, 879.85 1173.33, 879.88 1174.0, 879.91 1174.67, 879.93 1175.33, 879.95 1176.0, 879.96 1176.67, 879.96 1177.33, 879.96 1178.0, 879.96 1178.67, 879.94 1179.33, 879.93 1180.0, 879.9 1180.67, 879.87 1181.33, 879.84 1182.0, 879.8 1182.67, 879.75 1183.33, 879.7 1184.0, 879.65 1184.67, 879.58 1185.33, 879.52 1186.0, 879.44 1186.67, 879.37 1187.33, 879.28 1188.0, 879.19 1188.67, 879.1 1189.33, 879.0 1190.0, 878.89 1190.67, 878.78 1191.33, 878.66 1192.0, 878.54 1192.67, 878.41 1193.33, 878.28 1194.0, 878.14 1194.67, 877.99 1195.33, 877.84 1196.0, 877.69 1196.67, 877.53 1197.33, 877.36 1198.0, 877.19 1198.67, 877.01 1199.33, 876.83 1200.0, 876.64 1200.67, 876.45 1201.33, 876.25 1202.0, 876.04 1202.67, 875.84 1203.33, 875.62 1204.0, 875.4 1204.67, 875.18 1205.33, 874.95 1206.0, 874.71 1206.67, 874.47 1207.33, 874.23 1208.0, 873.97 1208.67, 873.72 1209.33, 873.46 1210.0, 873.19 1210.67, 872.92 1211.33, 872.64 1212.0, 872.36 1212.67, 872.07 1213.33, 871.78 1214.0, 871.49 1214.67, 871.18 1215.33, 870.88 1216.0, 870.57 1216.67, 870.25 1217.33, 869.93 1218.0, 869.6 1218.67, 869.27 1219.33, 868.93 1220.0, 868.59 1220.67, 868.25 1221.33, 867.9 1222.0, 867.54 1222.67, 867.18 1223.33, 866.82 1224.0, 866.45 1224.67, 866.07 1225.33, 865.7 1226.0, 865.31 1226.67, 864.93 1227.33, 864.53 1228.0, 864.14 1228.67, 863.74 1229.33, 863.33 1230.0, 862.92 1230.67, 862.51 1231.33, 862.09 1232.0, 861.67 1232.67, 861.24 1233.33, 860.81 1234.0, 860.37 1234.67, 859.93 1235.33, 859.49 1236.0, 859.04 1236.67, 858.59 1237.33, 858.13 1238.0, 857.67 1238.67, 857.2 1239.33, 856.74 1240.0, 856.26 1240.67, 855.79 1241.33, 855.31 1242.0, 854.82 1242.67, 854.34 1243.33, 853.84 1244.0, 853.35 1244.67, 852.85 1245.33, 852.35 1246.0, 851.84 1246.67, 851.33 1247.33, 850.82 1248.0, 850.3 1248.67, 849.78 1249.33, 849.26 1250.0, 848.73 1250.67, 848.2 1251.33, 847.67 1252.0, 847.13 1252.67, 846.59 1253.33, 846.05 1254.0, 845.5 1254.67, 844.95 1255.33, 844.4 1256.0, 843.84 1256.67, 843.28 1257.33, 842.72 1258.0, 842.16 1258.67, 841.59 1259.33, 841.02 1260.0, 840.44 1260.67, 839.87 1261.33, 839.29 1262.0, 838.71 1262.67, 838.13 1263.33, 837.54 1264.0, 836.95 1264.67, 836.36 1265.33, 835.77 1266.0, 835.17 1266.67, 834.57 1267.33, 833.97 1268.0, 833.37 1268.67, 832.76 1269.33, 832.16 1270.0, 831.55 1270.67, 830.94 1271.33, 830.32 1272.0, 829.71 1272.67, 829.09 1273.33, 828.47 1274.0, 827.85 1274.67, 827.23 1275.33, 826.61 1276.0, 825.98 1276.67, 825.35 1277.33, 824.72 1278.0, 824.09 1278.67, 823.46 1279.33, 822.83 1280.0, 822.2 1280.67, 821.56 1281.33, 820.92 1282.0, 820.29 1282.67, 819.65 1283.33, 819.01 1284.0, 818.37 1284.67, 817.73 1285.33, 817.08 1286.0, 816.44 1286.67, 815.79 1287.33, 815.15 1288.0, 814.5 1288.67, 813.86 1289.33, 813.21 1290.0, 812.56 1290.67, 811.92 1291.33, 811.27 1292.0, 810.62 1292.67, 809.97 1293.33, 809.33 1294.0, 808.68 1294.67, 808.03 1295.33, 807.38 1296.0, 806.73 1296.67, 806.08 1297.33, 805.44 1298.0, 804.79 1298.67, 804.14 1299.33, 803.49 1300.0, 802.85 1300.67, 802.2 1301.33, 801.56 1302.0, 800.91 1302.67, 800.27 1303.33, 799.62 1304.0, 798.98 1304.67, 798.34 1305.33, 797.7 1306.0, 797.06 1306.67, 796.42 1307.33, 795.79 1308.0, 795.15 1308.67, 794.52 1309.33, 793.89 1310.0, 793.25 1310.67, 792.62 1311.33, 792.0 1312.0, 791.37 1312.67, 790.75 1313.33, 790.12 1314.0, 789.5 1314.67, 788.89 1315.33, 788.27 1316.0, 787.66 1316.67, 787.05 1317.33, 786.44 1318.0, 785.83 1318.67, 785.23 1319.33, 784.62 1320.0, 784.03 1320.67, 783.43 1321.33, 782.84 1322.0, 782.25 1322.67, 781.66 1323.33, 781.08 1324.0, 780.49 1324.67, 779.92 1325.33, 779.34 1326.0, 778.77 1326.67, 778.21 1327.33, 777.64 1328.0, 777.08 1328.67, 776.53 1329.33, 775.98 1330.0, 775.43 1330.67, 774.88 1331.33, 774.35 1332.0, 773.81 1332.67, 773.28 1333.33, 772.75 1334.0, 772.23 1334.67, 771.72 1335.33, 771.2 1336.0, 770.7 1336.67, 770.2 1337.33, 769.7 1338.0, 769.21 1338.67, 768.72 1339.33, 768.24 1340.0, 767.77 1340.67, 767.3 1341.33, 766.84 1342.0, 766.38 1342.67, 765.93 1343.33, 765.48 1344.0, 765.05 1344.67, 764.61 1345.33, 764.19 1346.0, 763.77 1346.67, 763.36 1347.33, 762.95 1348.0, 762.55 1348.67, 762.16 1349.33, 761.78 1350.0, 761.4 1350.67, 761.04 1351.33, 760.68 1352.0, 760.32 1352.67, 759.98 1353.33, 759.64 1354.0, 759.31 1354.67, 758.99 1355.33, 758.68 1356.0, 758.38 1356.67, 758.09 1357.33, 757.8 1358.0, 757.53 1358.67, 757.26 1359.33, 757.0 1360.0, 756.76 1360.67, 756.52 1361.33, 756.29 1362.0, 756.08 1362.67, 755.87 1363.33, 755.68 1364.0, 755.49 1364.67, 755.32 1365.33, 755.15 1366.0, 755.0 1366.67, 754.86 1367.33, 754.73 1368.0, 754.61 1368.67, 754.51 1369.33, 754.42 1370.0, 754.34 1370.67, 754.27 1371.33, 754.21 1372.0, 754.17 1372.67, 754.14 1373.33, 754.13 1374.0, 754.12 1374.67, 754.14 1375.33, 754.16 1376.0, 754.2 1376.67, 754.26 1377.33, 754.33 1378.0, 754.41 1378.67, 754.51 1379.33, 754.63 1380.0, 754.76 1380.67, 754.9 1381.33, 755.07 1382.0, 755.25 1382.67, 755.44 1383.33, 755.66 1384.0, 755.89 1384.67, 756.14 1385.33, 756.4 1386.0, 756.69 1386.67, 756.99 1387.33, 757.31 1388.0, 757.65 1388.67, 758.01 1389.33, 758.39 1390.0, 758.79 1390.67, 759.21 1391.33, 759.64 1392.0, 760.11 1392.67, 760.59 1393.33, 761.09 1394.0, 761.61 1394.67, 762.16 1395.33, 762.73 1396.0, 763.32 1396.67, 763.94 1397.33, 764.58 1398.0, 765.24 1398.67, 765.93 1399.33, 766.64 1400.0, 767.37 1400.67, 768.14 1401.33, 768.93 1402.0, 769.74 1402.67, 770.58 1403.33, 771.45 1404.0, 772.34 1404.67, 773.27 1405.33, 774.22 1406.0, 775.2 1406.67, 776.21 1407.33, 777.25 1408.0, 778.32 1408.67, 779.42 1409.33, 780.55 1410.0, 781.71 1410.67, 782.91 1411.33, 784.14 1412.0, 785.4 1412.67, 786.69 1413.33, 788.02 1414.0, 789.38 1414.67, 790.78 1415.33, 792.22 1416.0, 793.69 1416.67, 795.19 1417.33, 796.74 1418.0, 798.32 1418.67, 799.94 1419.33, 801.6 1420.0, 803.3 1420.67, 805.04 1421.33, 806.83 1422.0, 808.65 1422.67, 810.52 1423.33, 812.43 1424.0, 814.38 1424.67, 816.37 1425.33, 818.42 1426.0, 820.5 1426.67, 822.64 1427.33, 824.82 1428.0, 827.05 1428.67, 829.33 1429.33, 831.65 1430.0, 834.03 1430.67, 836.46 1431.33, 838.94 1432.0, 841.47 1432.67, 844.06 1433.33, 846.7 1434.0, 849.39 1434.67, 852.15 1435.33, 854.95 1436.0, 857.82 1436.67, 860.74 1437.33, 863.73 1438.0, 866.77 1438.67, 869.88 1439.33, 873.04 1440.0, 876.27 1440.67, 879.57 1441.33, 882.93 1442.0, 886.36 1442.67, 889.85 1443.33, 893.41 1444.0, 897.04 1444.67, 900.74 1445.33, 904.52 1446.0, 908.36 1446.67, 912.28 1447.33, 916.27 1448.0, 920.34 1448.67, 924.49 1449.33, 928.72 1450.0, 933.02 1450.67, 937.41 1451.33, 941.88 1452.0, 946.43 1452.67, 951.06 1453.33, 955.79 1454.0, 960.59 1454.67, 965.49 1455.33, 970.48 1456.0, 975.56 1456.67, 980.73 1457.33, 986.0 1458.0, 991.36 1458.67, 996.81 1459.33, 1002.37 1460.0, 1008.03 1460.67, 1013.79 1461.33, 1019.65 1462.0, 1025.62 1462.67, 1031.69 1463.33, 1037.87 1464.0, 1044.16 1464.67, 1050.56 1465.33, 1057.08 1466.0, 1063.71 1466.67, 1070.45 1467.33, 1077.32 1468.0, 1084.3 1468.67, 1091.41 1469.33, 1098.64 1470.0, 1105.99 1470.67, 1113.48 1471.33, 1121.09 1472.0, 1128.83 1472.67, 1136.71 1473.33, 1144.72 1474.0, 1152.87 1474.67, 1161.16 1475.33, 1169.6 1476.0, 1178.17 1476.67, 1186.89 1477.33, 1195.76 1478.0, 1204.79 1478.67, 1213.96 1479.33, 1223.29 1480.0, 1232.77 1480.67, 1242.42 1481.33, 1252.23 1482.0, 1262.2 1482.67, 1272.34 1483.33, 1282.65 1484.0, 1293.13 1484.67, 1303.79 1485.33, 1314.63 1486.0, 1325.64 1486.67, 1336.84 1487.33, 1348.22 1488.0, 1359.79 1488.67, 1371.55 1489.33, 1383.51 1490.0, 1395.66 1490.67, 1408.02 1491.33, 1420.57 1492.0, 1433.34 1492.67, 1446.31 1493.33, 1459.49 1494.0, 1472.89 1494.67, 1486.5 1495.33, 1500.34 1496.0, 1514.4 1496.67, 1528.7 1497.33, 1543.22 1498.0, 1557.98 1498.67, 1572.97 1499.33, 1588.21 1500.0, 1603.7 1500.67, 1619.43 1501.33, 1635.42 1502.0, 1651.66 1502.67, 1668.16 1503.33, 1684.93 1504.0, 1701.96 1504.67, 1719.27 1505.33, 1736.86 1506.0, 1754.72 1506.67, 1772.87 1507.33, 1791.3 1508.0, 1810.03 1508.67, 1829.06 1509.33, 1848.39 1510.0, 1868.02 1510.67, 1887.96 1511.33, 1908.22 1512.0, 1928.8 1512.67, 1949.7 1513.33, 1970.92 1514.0, 1992.49 1514.67, 2014.39 1515.33, 2036.63 1516.0, 2059.22 1516.67, 2082.16 1517.33, 2105.46 1518.0, 2129.13 1518.67, 2153.16 1519.33, 2177.57 1520.0, 2202.35 1520.67, 2227.52 1521.33, 2253.08 1522.0, 2279.04 1522.67, 2305.4 1523.33, 2332.16 1524.0, 2359.34 1524.67, 2386.93 1525.33, 2414.96 1526.0, 2443.41 1526.67, 2472.3 1527.33, 2501.63 1528.0, 2531.41 1528.67, 2561.64 1529.33, 2592.34 1530.0, 2623.51 1530.67, 2655.16 1531.33, 2687.28 1532.0, 2719.9 1532.67, 2753.01 1533.33, 2786.62 1534.0, 2820.75 1534.67, 2855.39 1535.33, 2890.55 1536.0, 2926.25 1536.67, 2962.49 1537.33, 2999.27 1538.0, 3036.61 1538.67, 3074.51 1539.33, 3112.99 1540.0, 3152.04 1540.67, 3191.67 1541.33, 3231.9 1542.0, 3272.74 1542.67, 3314.18 1543.33, 3356.24 1544.0, 3398.94 1544.67, 3442.27 1545.33, 3486.24 1546.0, 3530.87 1546.67, 3576.17 1547.33, 3622.13 1548.0, 3668.78 1548.67, 3716.13 1549.33, 3764.17 1550.0, 3812.92 1550.67, 3862.4 1551.33, 3912.6 1552.0, 3963.55 1552.67, 4015.24 1553.33, 4067.7 1554.0, 4120.93 1554.67, 4174.94 1555.33, 4229.75 1556.0, 4285.35 1556.67, 4341.78 1557.33, 4399.03 1558.0, 4457.11 1558.67, 4516.04 1559.33, 4575.84 1560.0, 4636.5 1560.67, 4698.05 1561.33, 4760.49 1562.0, 4823.85 1562.67, 4888.12 1563.33, 4953.32 1564.0, 5019.47 1564.67, 5086.57 1565.33, 5154.65 1566.0, 5223.7 1566.67, 5293.76 1567.33, 5364.82 1568.0, 5436.91 1568.67, 5510.04 1569.33, 5584.21 1570.0, 5659.46 1570.67, 5735.78 1571.33, 5813.19 1572.0, 5891.71 1572.67, 5971.36 1573.33, 6052.14 1574.0, 6134.08 1574.67, 6217.19 1575.33, 6301.48 1576.0, 6386.97 1576.67, 6473.67 1577.33, 6561.61 1578.0, 6650.79 1578.67, 6741.24 1579.33, 6832.97 1580.0, 6926.0 1580.67, 7020.34 1581.33, 7116.01 1582.0, 7213.04 1582.67, 7311.43 1583.33, 7411.2 1584.0, 7512.38 1584.67, 7614.99 1585.33, 7719.03 1586.0, 7824.53 1586.67, 7931.51 1587.33, 8039.99 1588.0, 8149.98 1588.67, 8261.51 1589.33, 8374.6 1590.0, 8489.26 1590.67, 8605.52 1591.33, 8723.4 1592.0, 8842.92 1592.67, 8964.1 1593.33, 9086.96 1594.0, 9211.52 1594.67, 9337.81 1595.33, 9465.84 1596.0, 9595.65 1596.67, 9727.25 1597.33, 9860.66 1598.0, 9995.91 1598.67, 10133.02 1599.33, 10272.02 1600.0, 10412.93 " fill="none" stroke="white" stroke-width="1.5" stroke-linejoin="round" stroke-opacity="1"/>

 </svg>