<svg version="1.1" 
 baseProfile="full" 
 width="1600" 
 height="1600" 
 xmlns="http://www.w3.org/2000/svg">
<rect x="0.0" y="0.0" width="1600" height="1600" fill="black" stroke="black" stroke-width="0" opacity="1"/>
<line x1="0.0" y1="0.0" x2="0.0" y2="1600.0" stroke="white" stroke-width="1" opacity="0.4" stroke-linecap="butt"/>
<line x1="160.0" y1="0.0" x2="160.0" y2="1600.0" stroke="white" stroke-width="1" opacity="0.4" stroke-linecap="butt"/>
<line x1="320.0" y1="0.0" x2="320.0" y2="1600.0" stroke="white" stroke-width="1" opacity="0.4" stroke-linecap="butt"/>
<line x1="480.0" y1="0.0" x2="480.0" y2="1600.0" stroke="white" stroke-width="1" opacity="0.4" stroke-linecap="butt"/>
<line x1="640.0" y1="0.0" x2="640.0" y2="1600.0" stroke="white" stroke-width="1" opacity="0.4" stroke-linecap="butt"/>
<line x1="800.0" y1="0.0" x2="800.0" y2="1600.0" stroke="white" stroke-width="1" opacity="0.4" stroke-linecap="butt"/>
<line x1="960.0" y1="0.0" x2="960.0" y2="1600.0" stroke="white" stroke-width="1" opacity="0.4" stroke-linecap="butt"/>
<line x1="1120.0" y1="0.0" x2="1120.0" y2="1600.0" stroke="white" stroke-width="1" opacity="0.4" stroke-linecap="butt"/>
<line x1="1280.0" y1="0.0" x2="1280.0" y2="1600.0" stroke="white" stroke-width="1" opacity="0.4" stroke-linecap="butt"/>
<line x1="1440.0" y1="0.0" x2="1440.0" y2="1600.0" stroke="white" stroke-width="1" opacity="0.4" stroke-linecap="butt"/>
<line x1="0.0" y1="0.0" x2="1600.0" y2="0.0" stroke="white" stroke-width="1" opacity="0.4" stroke-linecap="butt"/>
<line x1="0.0" y1="160.0" x2="1600.0" y2="160.0" stroke="white" stroke-width="1" opacity="0.4" stroke-linecap="butt"/>
<line x1="0.0" y1="320.0" x2="1600.0" y2="320.0" stroke="white" stroke-width="1" opacity="0.4" stroke-linecap="butt"/>
<line x1="0.0" y1="480.0" x2="1600.0" y2="480.0" stroke="white" stroke-width="1" opacity="0.4" stroke-linecap="butt"/>
<line x1="0.0" y1="640.0" x2="1600.0" y2="640.0" stroke="white" stroke-width="1" opacity="0.4" stroke-linecap="butt"/>
<line x1="0.0" y1="800.0" x2="1600.0" y2="800.0" stroke="white" stroke-width="1" opacity="0.4" stroke-linecap="butt"/>
<line x1="0.0" y1="960.0" x2="1600.0" y2="960.0" stroke="white" stroke-width="1" opacity="0.4" stroke-linecap="butt"/>
<line x1="0.0" y1="1120.0" x2="1600.0" y2="1120.0" stroke="white" stroke-width="1" opacity="0.4" stroke-linecap="butt"/>
<line x1="0.0" y1="1280.0" x2="1600.0" y2="1280.0" stroke="white" stroke-width="1" opacity="0.4" stroke-linecap="butt"/>
<line x1="0.0" y1="1440.0" x2="1600.0" y2="1440.0" stroke="white" stroke-width="1" opacity="0.4" stroke-linecap="butt"/>
<line x1="0.0" y1="800.0" x2="1600.0" y2="800.0" stroke="yellow" stroke-width="2.5" opacity="1" stroke-linecap="butt"/>
<line x1="800.0" y1="0.0" x2="800.0" y2="1600.0" stroke="yellow" stroke-width="2.5" opacity="1" stroke-linecap="butt"/>
<polygon points="1564.0 816.0, 1604.0 800.0, 1564.0 784.0, 1572.0 800.0" fill="yellow"/><polygon points="816.0 36.0, 800.0 -4.0, 784.0 36.0, 800.0 28.0" fill="yellow"/><polyline points="0.0, -10342.37 0.67, -10182.45 1.33, -10024.66 2.0, -9868.98 2.67, -9715.38 3.33, -9563.83 4.0, -9414.3 4.67, -9266.78 5.33, -9121.23 6.0, -8977.64 6.67, -8835.97 7.33, -8696.21 8.0, -8558.32 8.67, -8422.29 9.33, -8288.1 10.0, -8155.71 10.67, -8025.11 11.33, -7896.27 12.0, -7769.18 12.67, -7643.8 13.33, -7520.13 14.0, -7398.13 14.67, -7277.78 15.33, -7159.07 16.0, -7041.98 16.67, -6926.47 17.33, -6812.54 18.0, -6700.17 18.67, -6589.32 19.33, -6479.99 20.0, -6372.16 20.67, -6265.8 21.33, -6160.9 22.0, -6057.43 22.67, -5955.39 23.33, -5854.74 24.0, -5755.48 24.67, -5657.59 25.33, -5561.04 26.0, -5465.82 26.67, -5371.92 27.33, -5279.31 28.0, -5187.99 28.67, -5097.92 29.33, -5009.11 30.0, -4921.52 30.67, -4835.15 31.33, -4749.98 32.0, -4666.0 32.67, -4583.18 33.33, -4501.51 34.0, -4420.99 34.67, -4341.58 35.33, -4263.29 36.0, -4186.09 36.67, -4109.97 37.33, -4034.91 38.0, -3960.91 38.67, -3887.94 39.33, -3816.0 40.0, -3745.08 40.67, -3675.14 41.33, -3606.2 42.0, -3538.22 42.67, -3471.21 43.33, -3405.14 44.0, -3340.0 44.67, -3275.79 45.33, -3212.48 46.0, -3150.08 46.67, -3088.55 47.33, -3027.91 48.0, -2968.12 48.67, -2909.18 49.33, -2851.09 50.0, -2793.82 50.67, -2737.37 51.33, -2681.72 52.0, -2626.87 52.67, -2572.81 53.33, -2519.52 54.0, -2466.99 54.67, -2415.22 55.33, -2364.19 56.0, -2313.9 56.67, -2264.33 57.33, -2215.47 58.0, -2167.32 58.67, -2119.86 59.33, -2073.09 60.0, -2026.99 60.67, -1981.57 61.33, -1936.8 62.0, -1892.68 62.67, -1849.2 63.33, -1806.35 64.0, -1764.12 64.67, -1722.51 65.33, -1681.51 66.0, -1641.11 66.67, -1601.29 67.33, -1562.06 68.0, -1523.4 68.67, -1485.31 69.33, -1447.77 70.0, -1410.79 70.67, -1374.35 71.33, -1338.45 72.0, -1303.07 72.67, -1268.22 73.33, -1233.88 74.0, -1200.05 74.67, -1166.71 75.33, -1133.87 76.0, -1101.52 76.67, -1069.65 77.33, -1038.25 78.0, -1007.32 78.67, -976.84 79.33, -946.82 80.0, -917.25 80.67, -888.12 81.33, -859.42 82.0, -831.16 82.67, -803.31 83.33, -775.89 84.0, -748.87 84.67, -722.26 85.33, -696.05 86.0, -670.24 86.67, -644.81 87.33, -619.77 88.0, -595.1 88.67, -570.81 89.33, -546.88 90.0, -523.32 90.67, -500.12 91.33, -477.26 92.0, -454.76 92.67, -432.6 93.33, -410.77 94.0, -389.28 94.67, -368.11 95.33, -347.27 96.0, -326.75 96.67, -306.54 97.33, -286.65 98.0, -267.05 98.67, -247.76 99.33, -228.77 100.0, -210.07 100.67, -191.66 101.33, -173.53 102.0, -155.68 102.67, -138.11 103.33, -120.81 104.0, -103.78 104.67, -87.01 105.33, -70.51 106.0, -54.26 106.67, -38.27 107.33, -22.52 108.0, -7.02 108.67, 8.23 109.33, 23.25 110.0, 38.03 110.67, 52.57 111.33, 66.89 112.0, 80.98 112.67, 94.85 113.33, 108.51 114.0, 121.94 114.67, 135.16 115.33, 148.17 116.0, 160.98 116.67, 173.58 117.33, 185.98 118.0, 198.18 118.67, 210.19 119.33, 222.0 120.0, 233.62 120.67, 245.06 121.33, 256.31 122.0, 267.39 122.67, 278.28 123.33, 289.0 124.0, 299.54 124.67, 309.91 125.33, 320.12 126.0, 330.16 126.67, 340.03 127.33, 349.74 128.0, 359.3 128.67, 368.69 129.33, 377.94 130.0, 387.03 130.67, 395.97 131.33, 404.76 132.0, 413.41 132.67, 421.92 133.33, 430.28 134.0, 438.5 134.67, 446.59 135.33, 454.54 136.0, 462.36 136.67, 470.05 137.33, 477.61 138.0, 485.04 138.67, 492.35 139.33, 499.53 140.0, 506.59 140.67, 513.54 141.33, 520.36 142.0, 527.07 142.67, 533.66 143.33, 540.14 144.0, 546.51 144.67, 552.76 145.33, 558.91 146.0, 564.96 146.67, 570.9 147.33, 576.73 148.0, 582.47 148.67, 588.1 149.33, 593.64 150.0, 599.08 150.67, 604.42 151.33, 609.67 152.0, 614.82 152.67, 619.88 153.33, 624.86 154.0, 629.74 154.67, 634.54 155.33, 639.25 156.0, 643.87 156.67, 648.42 157.33, 652.88 158.0, 657.25 158.67, 661.55 159.33, 665.77 160.0, 669.91 160.67, 673.98 161.33, 677.97 162.0, 681.88 162.67, 685.73 163.33, 689.5 164.0, 693.2 164.67, 696.83 165.33, 700.39 166.0, 703.88 166.67, 707.31 167.33, 710.67 168.0, 713.97 168.67, 717.2 169.33, 720.37 170.0, 723.48 170.67, 726.53 171.33, 729.51 172.0, 732.44 172.67, 735.31 173.33, 738.12 174.0, 740.88 174.67, 743.58 175.33, 746.22 176.0, 748.81 176.67, 751.35 177.33, 753.84 178.0, 756.27 178.67, 758.65 179.33, 760.99 180.0, 763.27 180.67, 765.51 181.33, 767.69 182.0, 769.84 182.67, 771.93 183.33, 773.98 184.0, 775.98 184.67, 777.94 185.33, 779.86 186.0, 781.73 186.67, 783.56 187.33, 785.35 188.0, 787.09 188.67, 788.8 189.33, 790.47 190.0, 792.1 190.67, 793.69 191.33, 795.24 192.0, 796.75 192.67, 798.23 193.33, 799.67 194.0, 801.07 194.67, 802.44 195.33, 803.77 196.0, 805.08 196.67, 806.34 197.33, 807.58 198.0, 808.78 198.67, 809.94 199.33, 811.08 200.0, 812.19 200.67, 813.26 201.33, 814.31 202.0, 815.32 202.67, 816.31 203.33, 817.26 204.0, 818.19 204.67, 819.09 205.33, 819.96 206.0, 820.81 206.67, 821.63 207.33, 822.42 208.0, 823.18 208.67, 823.92 209.33, 824.64 210.0, 825.33 210.67, 826.0 211.33, 826.64 212.0, 827.26 212.67, 827.85 213.33, 828.42 214.0, 828.97 214.67, 829.5 215.33, 830.0 216.0, 830.49 216.67, 830.95 217.33, 831.39 218.0, 831.81 218.67, 832.21 219.33, 832.59 220.0, 832.95 220.67, 833.29 221.33, 833.61 222.0, 833.92 222.67, 834.2 223.33, 834.47 224.0, 834.72 224.67, 834.95 225.33, 835.16 226.0, 835.36 226.67, 835.54 227.33, 835.7 228.0, 835.85 228.67, 835.98 229.33, 836.1 230.0, 836.2 230.67, 836.28 231.33, 836.35 232.0, 836.4 232.67, 836.44 233.33, 836.47 234.0, 836.48 234.67, 836.48 235.33, 836.46 236.0, 836.43 236.67, 836.39 237.33, 836.33 238.0, 836.26 238.67, 836.18 239.33, 836.09 240.0, 835.98 240.67, 835.86 241.33, 835.73 242.0, 835.59 242.67, 835.44 243.33, 835.27 244.0, 835.1 244.67, 834.91 245.33, 834.72 246.0, 834.51 246.67, 834.29 247.33, 834.06 248.0, 833.83 248.67, 833.58 249.33, 833.32 250.0, 833.05 250.67, 832.78 251.33, 832.49 252.0, 832.2 252.67, 831.9 253.33, 831.58 254.0, 831.26 254.67, 830.93 255.33, 830.6 256.0, 830.25 256.67, 829.9 257.33, 829.54 258.0, 829.17 258.67, 828.8 259.33, 828.41 260.0, 828.02 260.67, 827.63 261.33, 827.22 262.0, 826.81 262.67, 826.39 263.33, 825.97 264.0, 825.54 264.67, 825.1 265.33, 824.66 266.0, 824.21 266.67, 823.75 267.33, 823.29 268.0, 822.83 268.67, 822.35 269.33, 821.88 270.0, 821.39 270.67, 820.9 271.33, 820.41 272.0, 819.91 272.67, 819.41 273.33, 818.9 274.0, 818.39 274.67, 817.87 275.33, 817.35 276.0, 816.83 276.67, 816.3 277.33, 815.76 278.0, 815.22 278.67, 814.68 279.33, 814.14 280.0, 813.59 280.67, 813.03 281.33, 812.48 282.0, 811.92 282.67, 811.35 283.33, 810.79 284.0, 810.22 284.67, 809.64 285.33, 809.07 286.0, 808.49 286.67, 807.91 287.33, 807.32 288.0, 806.74 288.67, 806.15 289.33, 805.55 290.0, 804.96 290.67, 804.36 291.33, 803.77 292.0, 803.17 292.67, 802.56 293.33, 801.96 294.0, 801.35 294.67, 800.74 295.33, 800.13 296.0, 799.52 296.67, 798.91 297.33, 798.3 298.0, 797.68 298.67, 797.06 299.33, 796.45 300.0, 795.83 300.67, 795.21 301.33, 794.59 302.0, 793.96 302.67, 793.34 303.33, 792.72 304.0, 792.09 304.67, 791.47 305.33, 790.84 306.0, 790.22 306.67, 789.59 307.33, 788.96 308.0, 788.34 308.67, 787.71 309.33, 787.08 310.0, 786.46 310.67, 785.83 311.33, 785.2 312.0, 784.57 312.67, 783.95 313.33, 783.32 314.0, 782.69 314.67, 782.07 315.33, 781.44 316.0, 780.82 316.67, 780.19 317.33, 779.57 318.0, 778.95 318.67, 778.33 319.33, 777.71 320.0, 777.08 320.67, 776.47 321.33, 775.85 322.0, 775.23 322.67, 774.61 323.33, 774.0 324.0, 773.39 324.67, 772.77 325.33, 772.16 326.0, 771.55 326.67, 770.94 327.33, 770.34 328.0, 769.73 328.67, 769.13 329.33, 768.53 330.0, 767.93 330.67, 767.33 331.33, 766.73 332.0, 766.14 332.67, 765.55 333.33, 764.96 334.0, 764.37 334.67, 763.78 335.33, 763.2 336.0, 762.62 336.67, 762.04 337.33, 761.46 338.0, 760.89 338.67, 760.31 339.33, 759.74 340.0, 759.18 340.67, 758.61 341.33, 758.05 342.0, 757.49 342.67, 756.93 343.33, 756.38 344.0, 755.83 344.67, 755.28 345.33, 754.73 346.0, 754.19 346.67, 753.65 347.33, 753.11 348.0, 752.58 348.67, 752.05 349.33, 751.52 350.0, 751.0 350.67, 750.48 351.33, 749.96 352.0, 749.44 352.67, 748.93 353.33, 748.42 354.0, 747.92 354.67, 747.42 355.33, 746.92 356.0, 746.43 356.67, 745.94 357.33, 745.45 358.0, 744.97 358.67, 744.49 359.33, 744.01 360.0, 743.54 360.67, 743.07 361.33, 742.61 362.0, 742.15 362.67, 741.69 363.33, 741.24 364.0, 740.79 364.67, 740.35 365.33, 739.91 366.0, 739.47 366.67, 739.04 367.33, 738.61 368.0, 738.19 368.67, 737.77 369.33, 737.35 370.0, 736.94 370.67, 736.53 371.33, 736.13 372.0, 735.73 372.67, 735.34 373.33, 734.95 374.0, 734.57 374.67, 734.19 375.33, 733.81 376.0, 733.44 376.67, 733.07 377.33, 732.71 378.0, 732.35 378.67, 732.0 379.33, 731.65 380.0, 731.31 380.67, 730.97 381.33, 730.64 382.0, 730.31 382.67, 729.98 383.33, 729.66 384.0, 729.35 384.67, 729.04 385.33, 728.74 386.0, 728.44 386.67, 728.14 387.33, 727.85 388.0, 727.57 388.67, 727.29 389.33, 727.01 390.0, 726.74 390.67, 726.48 391.33, 726.22 392.0, 725.96 392.67, 725.71 393.33, 725.47 394.0, 725.23 394.67, 725.0 395.33, 724.77 396.0, 724.54 396.67, 724.33 397.33, 724.11 398.0, 723.9 398.67, 723.7 399.33, 723.5 400.0, 723.31 400.67, 723.13 401.33, 722.95 402.0, 722.77 402.67, 722.6 403.33, 722.43 404.0, 722.27 404.67, 722.12 405.33, 721.97 406.0, 721.83 406.67, 721.69 407.33, 721.56 408.0, 721.43 408.67, 721.31 409.33, 721.19 410.0, 721.08 410.67, 720.97 411.33, 720.87 412.0, 720.78 412.67, 720.69 413.33, 720.61 414.0, 720.53 414.67, 720.46 415.33, 720.39 416.0, 720.33 416.67, 720.27 417.33, 720.22 418.0, 720.18 418.67, 720.14 419.33, 720.1 420.0, 720.08 420.67, 720.05 421.33, 720.04 422.0, 720.02 422.67, 720.02 423.33, 720.02 424.0, 720.02 424.67, 720.03 425.33, 720.05 426.0, 720.07 426.67, 720.1 427.33, 720.13 428.0, 720.17 428.67, 720.22 429.33, 720.27 430.0, 720.32 430.67, 720.38 431.33, 720.45 432.0, 720.52 432.67, 720.6 433.33, 720.68 434.0, 720.77 434.67, 720.86 435.33, 720.96 436.0, 721.07 436.67, 721.18 437.33, 721.29 438.0, 721.41 438.67, 721.54 439.33, 721.67 440.0, 721.81 440.67, 721.95 441.33, 722.1 442.0, 722.25 442.67, 722.41 443.33, 722.58 444.0, 722.75 444.67, 722.92 445.33, 723.1 446.0, 723.29 446.67, 723.48 447.33, 723.68 448.0, 723.88 448.67, 724.09 449.33, 724.3 450.0, 724.52 450.67, 724.74 451.33, 724.97 452.0, 725.2 452.67, 725.44 453.33, 725.69 454.0, 725.94 454.67, 726.19 455.33, 726.45 456.0, 726.71 456.67, 726.98 457.33, 727.26 458.0, 727.54 458.67, 727.82 459.33, 728.11 460.0, 728.41 460.67, 728.71 461.33, 729.01 462.0, 729.32 462.67, 729.64 463.33, 729.95 464.0, 730.28 464.67, 730.61 465.33, 730.94 466.0, 731.28 466.67, 731.62 467.33, 731.97 468.0, 732.33 468.67, 732.68 469.33, 733.05 470.0, 733.41 470.67, 733.78 471.33, 734.16 472.0, 734.54 472.67, 734.93 473.33, 735.32 474.0, 735.71 474.67, 736.11 475.33, 736.51 476.0, 736.92 476.67, 737.33 477.33, 737.75 478.0, 738.17 478.67, 738.6 479.33, 739.03 480.0, 739.46 480.67, 739.9 481.33, 740.34 482.0, 740.78 482.67, 741.23 483.33, 741.69 484.0, 742.15 484.67, 742.61 485.33, 743.08 486.0, 743.55 486.67, 744.02 487.33, 744.5 488.0, 744.98 488.67, 745.47 489.33, 745.96 490.0, 746.45 490.67, 746.95 491.33, 747.45 492.0, 747.95 492.67, 748.46 493.33, 748.97 494.0, 749.49 494.67, 750.01 495.33, 750.53 496.0, 751.05 496.67, 751.58 497.33, 752.11 498.0, 752.65 498.67, 753.19 499.33, 753.73 500.0, 754.28 500.67, 754.82 501.33, 755.38 502.0, 755.93 502.67, 756.49 503.33, 757.05 504.0, 757.61 504.67, 758.18 505.33, 758.75 506.0, 759.32 506.67, 759.9 507.33, 760.48 508.0, 761.06 508.67, 761.64 509.33, 762.23 510.0, 762.82 510.67, 763.41 511.33, 764.0 512.0, 764.6 512.67, 765.2 513.33, 765.8 514.0, 766.4 514.67, 767.01 515.33, 767.62 516.0, 768.23 516.67, 768.84 517.33, 769.46 518.0, 770.07 518.67, 770.69 519.33, 771.31 520.0, 771.94 520.67, 772.56 521.33, 773.19 522.0, 773.82 522.67, 774.45 523.33, 775.08 524.0, 775.72 524.67, 776.35 525.33, 776.99 526.0, 777.63 526.67, 778.27 527.33, 778.91 528.0, 779.56 528.67, 780.2 529.33, 780.85 530.0, 781.5 530.67, 782.15 531.33, 782.8 532.0, 783.45 532.67, 784.1 533.33, 784.75 534.0, 785.41 534.67, 786.07 535.33, 786.72 536.0, 787.38 536.67, 788.04 537.33, 788.7 538.0, 789.36 538.67, 790.02 539.33, 790.68 540.0, 791.34 540.67, 792.01 541.33, 792.67 542.0, 793.34 542.67, 794.0 543.33, 794.66 544.0, 795.33 544.67, 796.0 545.33, 796.66 546.0, 797.33 546.67, 797.99 547.33, 798.66 548.0, 799.33 548.67, 799.99 549.33, 800.66 550.0, 801.33 550.67, 801.99 551.33, 802.66 552.0, 803.33 552.67, 803.99 553.33, 804.66 554.0, 805.32 554.67, 805.99 555.33, 806.65 556.0, 807.32 556.67, 807.98 557.33, 808.64 558.0, 809.31 558.67, 809.97 559.33, 810.63 560.0, 811.29 560.67, 811.95 561.33, 812.61 562.0, 813.27 562.67, 813.92 563.33, 814.58 564.0, 815.23 564.67, 815.89 565.33, 816.54 566.0, 817.19 566.67, 817.84 567.33, 818.49 568.0, 819.14 568.67, 819.79 569.33, 820.43 570.0, 821.08 570.67, 821.72 571.33, 822.36 572.0, 823.0 572.67, 823.64 573.33, 824.27 574.0, 824.91 574.67, 825.54 575.33, 826.17 576.0, 826.8 576.67, 827.43 577.33, 828.05 578.0, 828.67 578.67, 829.3 579.33, 829.92 580.0, 830.53 580.67, 831.15 581.33, 831.76 582.0, 832.37 582.67, 832.98 583.33, 833.59 584.0, 834.19 584.67, 834.79 585.33, 835.39 586.0, 835.99 586.67, 836.58 587.33, 837.17 588.0, 837.76 588.67, 838.35 589.33, 838.93 590.0, 839.51 590.67, 840.09 591.33, 840.67 592.0, 841.24 592.67, 841.81 593.33, 842.38 594.0, 842.94 594.67, 843.5 595.33, 844.06 596.0, 844.61 596.67, 845.17 597.33, 845.72 598.0, 846.26 598.67, 846.8 599.33, 847.34 600.0, 847.88 600.67, 848.41 601.33, 848.94 602.0, 849.46 602.67, 849.99 603.33, 850.51 604.0, 851.02 604.67, 851.53 605.33, 852.04 606.0, 852.55 606.67, 853.05 607.33, 853.54 608.0, 854.04 608.67, 854.53 609.33, 855.01 610.0, 855.49 610.67, 855.97 611.33, 856.45 612.0, 856.92 612.67, 857.38 613.33, 857.85 614.0, 858.31 614.67, 858.76 615.33, 859.21 616.0, 859.66 616.67, 860.1 617.33, 860.54 618.0, 860.97 618.67, 861.4 619.33, 861.82 620.0, 862.25 620.67, 862.66 621.33, 863.07 622.0, 863.48 622.67, 863.89 623.33, 864.29 624.0, 864.68 624.67, 865.07 625.33, 865.46 626.0, 865.84 626.67, 866.21 627.33, 866.58 628.0, 866.95 628.67, 867.31 629.33, 867.67 630.0, 868.03 630.67, 868.37 631.33, 868.72 632.0, 869.06 632.67, 869.39 633.33, 869.72 634.0, 870.04 634.67, 870.36 635.33, 870.68 636.0, 870.99 636.67, 871.29 637.33, 871.59 638.0, 871.89 638.67, 872.18 639.33, 872.46 640.0, 872.74 640.67, 873.02 641.33, 873.29 642.0, 873.55 642.67, 873.81 643.33, 874.07 644.0, 874.32 644.67, 874.56 645.33, 874.8 646.0, 875.03 646.67, 875.26 647.33, 875.49 648.0, 875.7 648.67, 875.92 649.33, 876.12 650.0, 876.33 650.67, 876.52 651.33, 876.72 652.0, 876.9 652.67, 877.08 653.33, 877.26 654.0, 877.43 654.67, 877.59 655.33, 877.75 656.0, 877.91 656.67, 878.06 657.33, 878.2 658.0, 878.34 658.67, 878.47 659.33, 878.6 660.0, 878.72 660.67, 878.83 661.33, 878.95 662.0, 879.05 662.67, 879.15 663.33, 879.24 664.0, 879.33 664.67, 879.42 665.33, 879.49 666.0, 879.57 666.67, 879.63 667.33, 879.69 668.0, 879.75 668.67, 879.8 669.33, 879.84 670.0, 879.88 670.67, 879.92 671.33, 879.94 672.0, 879.97 672.67, 879.98 673.33, 879.99 674.0, 880.0 674.67, 880.0 675.33, 879.99 676.0, 879.98 676.67, 879.97 677.33, 879.94 678.0, 879.92 678.67, 879.88 679.33, 879.84 680.0, 879.8 680.67, 879.75 681.33, 879.69 682.0, 879.63 682.67, 879.57 683.33, 879.49 684.0, 879.42 684.67, 879.33 685.33, 879.25 686.0, 879.15 686.67, 879.05 687.33, 878.95 688.0, 878.84 688.67, 878.72 689.33, 878.6 690.0, 878.47 690.67, 878.34 691.33, 878.2 692.0, 878.06 692.67, 877.91 693.33, 877.76 694.0, 877.6 694.67, 877.43 695.33, 877.26 696.0, 877.08 696.67, 876.9 697.33, 876.72 698.0, 876.53 698.67, 876.33 699.33, 876.13 700.0, 875.92 700.67, 875.71 701.33, 875.49 702.0, 875.26 702.67, 875.04 703.33, 874.8 704.0, 874.56 704.67, 874.32 705.33, 874.07 706.0, 873.82 706.67, 873.56 707.33, 873.29 708.0, 873.02 708.67, 872.75 709.33, 872.47 710.0, 872.18 710.67, 871.89 711.33, 871.6 712.0, 871.3 712.67, 870.99 713.33, 870.68 714.0, 870.37 714.67, 870.05 715.33, 869.72 716.0, 869.39 716.67, 869.06 717.33, 868.72 718.0, 868.38 718.67, 868.03 719.33, 867.68 720.0, 867.32 720.67, 866.96 721.33, 866.59 722.0, 866.22 722.67, 865.84 723.33, 865.46 724.0, 865.07 724.67, 864.68 725.33, 864.29 726.0, 863.89 726.67, 863.49 727.33, 863.08 728.0, 862.67 728.67, 862.25 729.33, 861.83 730.0, 861.4 730.67, 860.97 731.33, 860.54 732.0, 860.1 732.67, 859.66 733.33, 859.21 734.0, 858.76 734.67, 858.31 735.33, 857.85 736.0, 857.39 736.67, 856.92 737.33, 856.45 738.0, 855.98 738.67, 855.5 739.33, 855.02 740.0, 854.53 740.67, 854.04 741.33, 853.55 742.0, 853.05 742.67, 852.55 743.33, 852.05 744.0, 851.54 744.67, 851.03 745.33, 850.51 746.0, 849.99 746.67, 849.47 747.33, 848.94 748.0, 848.41 748.67, 847.88 749.33, 847.35 750.0, 846.81 750.67, 846.27 751.33, 845.72 752.0, 845.17 752.67, 844.62 753.33, 844.06 754.0, 843.51 754.67, 842.95 755.33, 842.38 756.0, 841.81 756.67, 841.25 757.33, 840.67 758.0, 840.1 758.67, 839.52 759.33, 838.94 760.0, 838.35 760.67, 837.77 761.33, 837.18 762.0, 836.59 762.67, 835.99 763.33, 835.4 764.0, 834.8 764.67, 834.2 765.33, 833.59 766.0, 832.99 766.67, 832.38 767.33, 831.77 768.0, 831.15 768.67, 830.54 769.33, 829.92 770.0, 829.3 770.67, 828.68 771.33, 828.06 772.0, 827.43 772.67, 826.8 773.33, 826.18 774.0, 825.54 774.67, 824.91 775.33, 824.28 776.0, 823.64 776.67, 823.0 777.33, 822.36 778.0, 821.72 778.67, 821.08 779.33, 820.44 780.0, 819.79 780.67, 819.15 781.33, 818.5 782.0, 817.85 782.67, 817.2 783.33, 816.55 784.0, 815.89 784.67, 815.24 785.33, 814.58 786.0, 813.93 786.67, 813.27 787.33, 812.61 788.0, 811.96 788.67, 811.3 789.33, 810.64 790.0, 809.97 790.67, 809.31 791.33, 808.65 792.0, 807.99 792.67, 807.32 793.33, 806.66 794.0, 805.99 794.67, 805.33 795.33, 804.66 796.0, 804.0 796.67, 803.33 797.33, 802.67 798.0, 802.0 798.67, 801.33 799.33, 800.67 800.0, 800.0 800.67, 799.33 801.33, 798.67 802.0, 798.0 802.67, 797.33 803.33, 796.67 804.0, 796.0 804.67, 795.34 805.33, 794.67 806.0, 794.01 806.67, 793.34 807.33, 792.68 808.0, 792.01 808.67, 791.35 809.33, 790.69 810.0, 790.03 810.67, 789.36 811.33, 788.7 812.0, 788.04 812.67, 787.39 813.33, 786.73 814.0, 786.07 814.67, 785.42 815.33, 784.76 816.0, 784.11 816.67, 783.45 817.33, 782.8 818.0, 782.15 818.67, 781.5 819.33, 780.85 820.0, 780.21 820.67, 779.56 821.33, 778.92 822.0, 778.28 822.67, 777.64 823.33, 777.0 824.0, 776.36 824.67, 775.72 825.33, 775.09 826.0, 774.46 826.67, 773.82 827.33, 773.2 828.0, 772.57 828.67, 771.94 829.33, 771.32 830.0, 770.7 830.67, 770.08 831.33, 769.46 832.0, 768.85 832.67, 768.23 833.33, 767.62 834.0, 767.01 834.67, 766.41 835.33, 765.8 836.0, 765.2 836.67, 764.6 837.33, 764.01 838.0, 763.41 838.67, 762.82 839.33, 762.23 840.0, 761.65 840.67, 761.06 841.33, 760.48 842.0, 759.9 842.67, 759.33 843.33, 758.75 844.0, 758.19 844.67, 757.62 845.33, 757.05 846.0, 756.49 846.67, 755.94 847.33, 755.38 848.0, 754.83 848.67, 754.28 849.33, 753.73 850.0, 753.19 850.67, 752.65 851.33, 752.12 852.0, 751.59 852.67, 751.06 853.33, 750.53 854.0, 750.01 854.67, 749.49 855.33, 748.97 856.0, 748.46 856.67, 747.95 857.33, 747.45 858.0, 746.95 858.67, 746.45 859.33, 745.96 860.0, 745.47 860.67, 744.98 861.33, 744.5 862.0, 744.02 862.67, 743.55 863.33, 743.08 864.0, 742.61 864.67, 742.15 865.33, 741.69 866.0, 741.24 866.67, 740.79 867.33, 740.34 868.0, 739.9 868.67, 739.46 869.33, 739.03 870.0, 738.6 870.67, 738.17 871.33, 737.75 872.0, 737.33 872.67, 736.92 873.33, 736.51 874.0, 736.11 874.67, 735.71 875.33, 735.32 876.0, 734.93 876.67, 734.54 877.33, 734.16 878.0, 733.78 878.67, 733.41 879.33, 733.04 880.0, 732.68 880.67, 732.32 881.33, 731.97 882.0, 731.62 882.67, 731.28 883.33, 730.94 884.0, 730.61 884.67, 730.28 885.33, 729.95 886.0, 729.63 886.67, 729.32 887.33, 729.01 888.0, 728.7 888.67, 728.4 889.33, 728.11 890.0, 727.82 890.67, 727.53 891.33, 727.25 892.0, 726.98 892.67, 726.71 893.33, 726.44 894.0, 726.18 894.67, 725.93 895.33, 725.68 896.0, 725.44 896.67, 725.2 897.33, 724.96 898.0, 724.74 898.67, 724.51 899.33, 724.29 900.0, 724.08 900.67, 723.87 901.33, 723.67 902.0, 723.47 902.67, 723.28 903.33, 723.1 904.0, 722.92 904.67, 722.74 905.33, 722.57 906.0, 722.4 906.67, 722.24 907.33, 722.09 908.0, 721.94 908.67, 721.8 909.33, 721.66 910.0, 721.53 910.67, 721.4 911.33, 721.28 912.0, 721.16 912.67, 721.05 913.33, 720.95 914.0, 720.85 914.67, 720.75 915.33, 720.67 916.0, 720.58 916.67, 720.51 917.33, 720.43 918.0, 720.37 918.67, 720.31 919.33, 720.25 920.0, 720.2 920.67, 720.16 921.33, 720.12 922.0, 720.08 922.67, 720.06 923.33, 720.03 924.0, 720.02 924.67, 720.01 925.33, 720.0 926.0, 720.0 926.67, 720.01 927.33, 720.02 928.0, 720.03 928.67, 720.06 929.33, 720.08 930.0, 720.12 930.67, 720.16 931.33, 720.2 932.0, 720.25 932.67, 720.31 933.33, 720.37 934.0, 720.43 934.67, 720.51 935.33, 720.58 936.0, 720.67 936.67, 720.76 937.33, 720.85 938.0, 720.95 938.67, 721.05 939.33, 721.17 940.0, 721.28 940.67, 721.4 941.33, 721.53 942.0, 721.66 942.67, 721.8 943.33, 721.94 944.0, 722.09 944.67, 722.25 945.33, 722.41 946.0, 722.57 946.67, 722.74 947.33, 722.92 948.0, 723.1 948.67, 723.28 949.33, 723.48 950.0, 723.67 950.67, 723.88 951.33, 724.08 952.0, 724.3 952.67, 724.51 953.33, 724.74 954.0, 724.97 954.67, 725.2 955.33, 725.44 956.0, 725.68 956.67, 725.93 957.33, 726.19 958.0, 726.45 958.67, 726.71 959.33, 726.98 960.0, 727.26 960.67, 727.54 961.33, 727.82 962.0, 728.11 962.67, 728.41 963.33, 728.71 964.0, 729.01 964.67, 729.32 965.33, 729.64 966.0, 729.96 966.67, 730.28 967.33, 730.61 968.0, 730.94 968.67, 731.28 969.33, 731.63 970.0, 731.97 970.67, 732.33 971.33, 732.69 972.0, 733.05 972.67, 733.42 973.33, 733.79 974.0, 734.16 974.67, 734.54 975.33, 734.93 976.0, 735.32 976.67, 735.71 977.33, 736.11 978.0, 736.52 978.67, 736.93 979.33, 737.34 980.0, 737.75 980.67, 738.18 981.33, 738.6 982.0, 739.03 982.67, 739.46 983.33, 739.9 984.0, 740.34 984.67, 740.79 985.33, 741.24 986.0, 741.69 986.67, 742.15 987.33, 742.62 988.0, 743.08 988.67, 743.55 989.33, 744.03 990.0, 744.51 990.67, 744.99 991.33, 745.47 992.0, 745.96 992.67, 746.46 993.33, 746.95 994.0, 747.45 994.67, 747.96 995.33, 748.47 996.0, 748.98 996.67, 749.49 997.33, 750.01 998.0, 750.54 998.67, 751.06 999.33, 751.59 1000.0, 752.12 1000.67, 752.66 1001.33, 753.2 1002.0, 753.74 1002.67, 754.28 1003.33, 754.83 1004.0, 755.39 1004.67, 755.94 1005.33, 756.5 1006.0, 757.06 1006.67, 757.62 1007.33, 758.19 1008.0, 758.76 1008.67, 759.33 1009.33, 759.91 1010.0, 760.49 1010.67, 761.07 1011.33, 761.65 1012.0, 762.24 1012.67, 762.83 1013.33, 763.42 1014.0, 764.01 1014.67, 764.61 1015.33, 765.21 1016.0, 765.81 1016.67, 766.41 1017.33, 767.02 1018.0, 767.63 1018.67, 768.24 1019.33, 768.85 1020.0, 769.47 1020.67, 770.08 1021.33, 770.7 1022.0, 771.33 1022.67, 771.95 1023.33, 772.57 1024.0, 773.2 1024.67, 773.83 1025.33, 774.46 1026.0, 775.09 1026.67, 775.73 1027.33, 776.36 1028.0, 777.0 1028.67, 777.64 1029.33, 778.28 1030.0, 778.92 1030.67, 779.57 1031.33, 780.21 1032.0, 780.86 1032.67, 781.51 1033.33, 782.16 1034.0, 782.81 1034.67, 783.46 1035.33, 784.11 1036.0, 784.77 1036.67, 785.42 1037.33, 786.08 1038.0, 786.73 1038.67, 787.39 1039.33, 788.05 1040.0, 788.71 1040.67, 789.37 1041.33, 790.03 1042.0, 790.69 1042.67, 791.36 1043.33, 792.02 1044.0, 792.68 1044.67, 793.35 1045.33, 794.01 1046.0, 794.68 1046.67, 795.34 1047.33, 796.01 1048.0, 796.67 1048.67, 797.34 1049.33, 798.01 1050.0, 798.67 1050.67, 799.34 1051.33, 800.01 1052.0, 800.67 1052.67, 801.34 1053.33, 802.01 1054.0, 802.67 1054.67, 803.34 1055.33, 804.0 1056.0, 804.67 1056.67, 805.34 1057.33, 806.0 1058.0, 806.66 1058.67, 807.33 1059.33, 807.99 1060.0, 808.66 1060.67, 809.32 1061.33, 809.98 1062.0, 810.64 1062.67, 811.3 1063.33, 811.96 1064.0, 812.62 1064.67, 813.28 1065.33, 813.93 1066.0, 814.59 1066.67, 815.25 1067.33, 815.9 1068.0, 816.55 1068.67, 817.2 1069.33, 817.85 1070.0, 818.5 1070.67, 819.15 1071.33, 819.8 1072.0, 820.44 1072.67, 821.09 1073.33, 821.73 1074.0, 822.37 1074.67, 823.01 1075.33, 823.65 1076.0, 824.28 1076.67, 824.92 1077.33, 825.55 1078.0, 826.18 1078.67, 826.81 1079.33, 827.44 1080.0, 828.06 1080.67, 828.69 1081.33, 829.31 1082.0, 829.93 1082.67, 830.54 1083.33, 831.16 1084.0, 831.77 1084.67, 832.38 1085.33, 832.99 1086.0, 833.6 1086.67, 834.2 1087.33, 834.8 1088.0, 835.4 1088.67, 836.0 1089.33, 836.59 1090.0, 837.18 1090.67, 837.77 1091.33, 838.36 1092.0, 838.94 1092.67, 839.52 1093.33, 840.1 1094.0, 840.68 1094.67, 841.25 1095.33, 841.82 1096.0, 842.39 1096.67, 842.95 1097.33, 843.51 1098.0, 844.07 1098.67, 844.62 1099.33, 845.18 1100.0, 845.72 1100.67, 846.27 1101.33, 846.81 1102.0, 847.35 1102.67, 847.89 1103.33, 848.42 1104.0, 848.95 1104.67, 849.47 1105.33, 849.99 1106.0, 850.51 1106.67, 851.03 1107.33, 851.54 1108.0, 852.05 1108.67, 852.55 1109.33, 853.05 1110.0, 853.55 1110.67, 854.04 1111.33, 854.53 1112.0, 855.02 1112.67, 855.5 1113.33, 855.98 1114.0, 856.45 1114.67, 856.92 1115.33, 857.39 1116.0, 857.85 1116.67, 858.31 1117.33, 858.77 1118.0, 859.22 1118.67, 859.66 1119.33, 860.1 1120.0, 860.54 1120.67, 860.97 1121.33, 861.4 1122.0, 861.83 1122.67, 862.25 1123.33, 862.67 1124.0, 863.08 1124.67, 863.49 1125.33, 863.89 1126.0, 864.29 1126.67, 864.68 1127.33, 865.07 1128.0, 865.46 1128.67, 865.84 1129.33, 866.22 1130.0, 866.59 1130.67, 866.95 1131.33, 867.32 1132.0, 867.67 1132.67, 868.03 1133.33, 868.38 1134.0, 868.72 1134.67, 869.06 1135.33, 869.39 1136.0, 869.72 1136.67, 870.05 1137.33, 870.36 1138.0, 870.68 1138.67, 870.99 1139.33, 871.29 1140.0, 871.59 1140.67, 871.89 1141.33, 872.18 1142.0, 872.46 1142.67, 872.74 1143.33, 873.02 1144.0, 873.29 1144.67, 873.55 1145.33, 873.81 1146.0, 874.06 1146.67, 874.31 1147.33, 874.56 1148.0, 874.8 1148.67, 875.03 1149.33, 875.26 1150.0, 875.48 1150.67, 875.7 1151.33, 875.91 1152.0, 876.12 1152.67, 876.32 1153.33, 876.52 1154.0, 876.71 1154.67, 876.9 1155.33, 877.08 1156.0, 877.25 1156.67, 877.42 1157.33, 877.59 1158.0, 877.75 1158.67, 877.9 1159.33, 878.05 1160.0, 878.19 1160.67, 878.33 1161.33, 878.46 1162.0, 878.59 1162.67, 878.71 1163.33, 878.82 1164.0, 878.93 1164.67, 879.04 1165.33, 879.14 1166.0, 879.23 1166.67, 879.32 1167.33, 879.4 1168.0, 879.48 1168.67, 879.55 1169.33, 879.62 1170.0, 879.68 1170.67, 879.73 1171.33, 879.78 1172.0, 879.83 1172.67, 879.87 1173.33, 879.9 1174.0, 879.93 1174.67, 879.95 1175.33, 879.97 1176.0, 879.98 1176.67, 879.98 1177.33, 879.98 1178.0, 879.98 1178.67, 879.96 1179.33, 879.95 1180.0, 879.92 1180.67, 879.9 1181.33, 879.86 1182.0, 879.82 1182.67, 879.78 1183.33, 879.73 1184.0, 879.67 1184.67, 879.61 1185.33, 879.54 1186.0, 879.47 1186.67, 879.39 1187.33, 879.31 1188.0, 879.22 1188.67, 879.13 1189.33, 879.03 1190.0, 878.92 1190.67, 878.81 1191.33, 878.69 1192.0, 878.57 1192.67, 878.44 1193.33, 878.31 1194.0, 878.17 1194.67, 878.03 1195.33, 877.88 1196.0, 877.73 1196.67, 877.57 1197.33, 877.4 1198.0, 877.23 1198.67, 877.05 1199.33, 876.87 1200.0, 876.69 1200.67, 876.5 1201.33, 876.3 1202.0, 876.1 1202.67, 875.89 1203.33, 875.67 1204.0, 875.46 1204.67, 875.23 1205.33, 875.0 1206.0, 874.77 1206.67, 874.53 1207.33, 874.29 1208.0, 874.04 1208.67, 873.78 1209.33, 873.52 1210.0, 873.26 1210.67, 872.99 1211.33, 872.71 1212.0, 872.43 1212.67, 872.15 1213.33, 871.86 1214.0, 871.56 1214.67, 871.26 1215.33, 870.96 1216.0, 870.65 1216.67, 870.34 1217.33, 870.02 1218.0, 869.69 1218.67, 869.36 1219.33, 869.03 1220.0, 868.69 1220.67, 868.35 1221.33, 868.0 1222.0, 867.65 1222.67, 867.29 1223.33, 866.93 1224.0, 866.56 1224.67, 866.19 1225.33, 865.81 1226.0, 865.43 1226.67, 865.05 1227.33, 864.66 1228.0, 864.27 1228.67, 863.87 1229.33, 863.47 1230.0, 863.06 1230.67, 862.65 1231.33, 862.23 1232.0, 861.81 1232.67, 861.39 1233.33, 860.96 1234.0, 860.53 1234.67, 860.09 1235.33, 859.65 1236.0, 859.21 1236.67, 858.76 1237.33, 858.31 1238.0, 857.85 1238.67, 857.39 1239.33, 856.93 1240.0, 856.46 1240.67, 855.99 1241.33, 855.51 1242.0, 855.03 1242.67, 854.55 1243.33, 854.06 1244.0, 853.57 1244.67, 853.08 1245.33, 852.58 1246.0, 852.08 1246.67, 851.58 1247.33, 851.07 1248.0, 850.56 1248.67, 850.04 1249.33, 849.52 1250.0, 849.0 1250.67, 848.48 1251.33, 847.95 1252.0, 847.42 1252.67, 846.89 1253.33, 846.35 1254.0, 845.81 1254.67, 845.27 1255.33, 844.72 1256.0, 844.17 1256.67, 843.62 1257.33, 843.07 1258.0, 842.51 1258.67, 841.95 1259.33, 841.39 1260.0, 840.82 1260.67, 840.26 1261.33, 839.69 1262.0, 839.11 1262.67, 838.54 1263.33, 837.96 1264.0, 837.38 1264.67, 836.8 1265.33, 836.22 1266.0, 835.63 1266.67, 835.04 1267.33, 834.45 1268.0, 833.86 1268.67, 833.27 1269.33, 832.67 1270.0, 832.07 1270.67, 831.47 1271.33, 830.87 1272.0, 830.27 1272.67, 829.66 1273.33, 829.06 1274.0, 828.45 1274.67, 827.84 1275.33, 827.23 1276.0, 826.61 1276.67, 826.0 1277.33, 825.39 1278.0, 824.77 1278.67, 824.15 1279.33, 823.53 1280.0, 822.92 1280.67, 822.29 1281.33, 821.67 1282.0, 821.05 1282.67, 820.43 1283.33, 819.81 1284.0, 819.18 1284.67, 818.56 1285.33, 817.93 1286.0, 817.31 1286.67, 816.68 1287.33, 816.05 1288.0, 815.43 1288.67, 814.8 1289.33, 814.17 1290.0, 813.54 1290.67, 812.92 1291.33, 812.29 1292.0, 811.66 1292.67, 811.04 1293.33, 810.41 1294.0, 809.78 1294.67, 809.16 1295.33, 808.53 1296.0, 807.91 1296.67, 807.28 1297.33, 806.66 1298.0, 806.04 1298.67, 805.41 1299.33, 804.79 1300.0, 804.17 1300.67, 803.55 1301.33, 802.94 1302.0, 802.32 1302.67, 801.7 1303.33, 801.09 1304.0, 800.48 1304.67, 799.87 1305.33, 799.26 1306.0, 798.65 1306.67, 798.04 1307.33, 797.44 1308.0, 796.83 1308.67, 796.23 1309.33, 795.64 1310.0, 795.04 1310.67, 794.45 1311.33, 793.85 1312.0, 793.26 1312.67, 792.68 1313.33, 792.09 1314.0, 791.51 1314.67, 790.93 1315.33, 790.36 1316.0, 789.78 1316.67, 789.21 1317.33, 788.65 1318.0, 788.08 1318.67, 787.52 1319.33, 786.97 1320.0, 786.41 1320.67, 785.86 1321.33, 785.32 1322.0, 784.78 1322.67, 784.24 1323.33, 783.7 1324.0, 783.17 1324.67, 782.65 1325.33, 782.13 1326.0, 781.61 1326.67, 781.1 1327.33, 780.59 1328.0, 780.09 1328.67, 779.59 1329.33, 779.1 1330.0, 778.61 1330.67, 778.12 1331.33, 777.65 1332.0, 777.17 1332.67, 776.71 1333.33, 776.25 1334.0, 775.79 1334.67, 775.34 1335.33, 774.9 1336.0, 774.46 1336.67, 774.03 1337.33, 773.61 1338.0, 773.19 1338.67, 772.78 1339.33, 772.37 1340.0, 771.98 1340.67, 771.59 1341.33, 771.2 1342.0, 770.83 1342.67, 770.46 1343.33, 770.1 1344.0, 769.75 1344.67, 769.4 1345.33, 769.07 1346.0, 768.74 1346.67, 768.42 1347.33, 768.1 1348.0, 767.8 1348.67, 767.51 1349.33, 767.22 1350.0, 766.95 1350.67, 766.68 1351.33, 766.42 1352.0, 766.17 1352.67, 765.94 1353.33, 765.71 1354.0, 765.49 1354.67, 765.28 1355.33, 765.09 1356.0, 764.9 1356.67, 764.73 1357.33, 764.56 1358.0, 764.41 1358.67, 764.27 1359.33, 764.14 1360.0, 764.02 1360.67, 763.91 1361.33, 763.82 1362.0, 763.74 1362.67, 763.67 1363.33, 763.61 1364.0, 763.57 1364.67, 763.54 1365.33, 763.52 1366.0, 763.52 1366.67, 763.53 1367.33, 763.56 1368.0, 763.6 1368.67, 763.65 1369.33, 763.72 1370.0, 763.8 1370.67, 763.9 1371.33, 764.02 1372.0, 764.15 1372.67, 764.3 1373.33, 764.46 1374.0, 764.64 1374.67, 764.84 1375.33, 765.05 1376.0, 765.28 1376.67, 765.53 1377.33, 765.8 1378.0, 766.08 1378.67, 766.39 1379.33, 766.71 1380.0, 767.05 1380.67, 767.41 1381.33, 767.79 1382.0, 768.19 1382.67, 768.61 1383.33, 769.05 1384.0, 769.51 1384.67, 770.0 1385.33, 770.5 1386.0, 771.03 1386.67, 771.58 1387.33, 772.15 1388.0, 772.74 1388.67, 773.36 1389.33, 774.0 1390.0, 774.67 1390.67, 775.36 1391.33, 776.08 1392.0, 776.82 1392.67, 777.58 1393.33, 778.37 1394.0, 779.19 1394.67, 780.04 1395.33, 780.91 1396.0, 781.81 1396.67, 782.74 1397.33, 783.69 1398.0, 784.68 1398.67, 785.69 1399.33, 786.74 1400.0, 787.81 1400.67, 788.92 1401.33, 790.06 1402.0, 791.22 1402.67, 792.42 1403.33, 793.66 1404.0, 794.92 1404.67, 796.23 1405.33, 797.56 1406.0, 798.93 1406.67, 800.33 1407.33, 801.77 1408.0, 803.25 1408.67, 804.76 1409.33, 806.31 1410.0, 807.9 1410.67, 809.53 1411.33, 811.2 1412.0, 812.91 1412.67, 814.65 1413.33, 816.44 1414.0, 818.27 1414.67, 820.14 1415.33, 822.06 1416.0, 824.02 1416.67, 826.02 1417.33, 828.07 1418.0, 830.16 1418.67, 832.31 1419.33, 834.49 1420.0, 836.73 1420.67, 839.01 1421.33, 841.35 1422.0, 843.73 1422.67, 846.16 1423.33, 848.65 1424.0, 851.19 1424.67, 853.78 1425.33, 856.42 1426.0, 859.12 1426.67, 861.88 1427.33, 864.69 1428.0, 867.56 1428.67, 870.49 1429.33, 873.47 1430.0, 876.52 1430.67, 879.63 1431.33, 882.8 1432.0, 886.03 1432.67, 889.33 1433.33, 892.69 1434.0, 896.12 1434.67, 899.61 1435.33, 903.17 1436.0, 906.8 1436.67, 910.5 1437.33, 914.27 1438.0, 918.12 1438.67, 922.03 1439.33, 926.02 1440.0, 930.09 1440.67, 934.23 1441.33, 938.45 1442.0, 942.75 1442.67, 947.12 1443.33, 951.58 1444.0, 956.13 1444.67, 960.75 1445.33, 965.46 1446.0, 970.26 1446.67, 975.14 1447.33, 980.12 1448.0, 985.18 1448.67, 990.33 1449.33, 995.58 1450.0, 1000.92 1450.67, 1006.36 1451.33, 1011.9 1452.0, 1017.53 1452.67, 1023.27 1453.33, 1029.1 1454.0, 1035.04 1454.67, 1041.09 1455.33, 1047.24 1456.0, 1053.49 1456.67, 1059.86 1457.33, 1066.34 1458.0, 1072.93 1458.67, 1079.64 1459.33, 1086.46 1460.0, 1093.41 1460.67, 1100.47 1461.33, 1107.65 1462.0, 1114.96 1462.67, 1122.39 1463.33, 1129.95 1464.0, 1137.64 1464.67, 1145.46 1465.33, 1153.41 1466.0, 1161.5 1466.67, 1169.72 1467.33, 1178.08 1468.0, 1186.59 1468.67, 1195.24 1469.33, 1204.03 1470.0, 1212.97 1470.67, 1222.06 1471.33, 1231.31 1472.0, 1240.7 1472.67, 1250.26 1473.33, 1259.97 1474.0, 1269.84 1474.67, 1279.88 1475.33, 1290.09 1476.0, 1300.46 1476.67, 1311.0 1477.33, 1321.72 1478.0, 1332.61 1478.67, 1343.69 1479.33, 1354.94 1480.0, 1366.38 1480.67, 1378.0 1481.33, 1389.81 1482.0, 1401.82 1482.67, 1414.02 1483.33, 1426.42 1484.0, 1439.02 1484.67, 1451.83 1485.33, 1464.84 1486.0, 1478.06 1486.67, 1491.49 1487.33, 1505.15 1488.0, 1519.02 1488.67, 1533.11 1489.33, 1547.43 1490.0, 1561.97 1490.67, 1576.75 1491.33, 1591.77 1492.0, 1607.02 1492.67, 1622.52 1493.33, 1638.27 1494.0, 1654.26 1494.67, 1670.51 1495.33, 1687.01 1496.0, 1703.78 1496.67, 1720.81 1497.33, 1738.11 1498.0, 1755.68 1498.67, 1773.53 1499.33, 1791.66 1500.0, 1810.07 1500.67, 1828.77 1501.33, 1847.76 1502.0, 1867.05 1502.67, 1886.65 1503.33, 1906.54 1504.0, 1926.75 1504.67, 1947.27 1505.33, 1968.11 1506.0, 1989.28 1506.67, 2010.77 1507.33, 2032.6 1508.0, 2054.76 1508.67, 2077.26 1509.33, 2100.12 1510.0, 2123.32 1510.67, 2146.88 1511.33, 2170.81 1512.0, 2195.1 1512.67, 2219.77 1513.33, 2244.81 1514.0, 2270.24 1514.67, 2296.05 1515.33, 2322.26 1516.0, 2348.87 1516.67, 2375.89 1517.33, 2403.31 1518.0, 2431.16 1518.67, 2459.42 1519.33, 2488.12 1520.0, 2517.25 1520.67, 2546.82 1521.33, 2576.84 1522.0, 2607.32 1522.67, 2638.25 1523.33, 2669.65 1524.0, 2701.52 1524.67, 2733.87 1525.33, 2766.71 1526.0, 2800.05 1526.67, 2833.88 1527.33, 2868.22 1528.0, 2903.07 1528.67, 2938.45 1529.33, 2974.35 1530.0, 3010.79 1530.67, 3047.77 1531.33, 3085.31 1532.0, 3123.4 1532.67, 3162.06 1533.33, 3201.29 1534.0, 3241.11 1534.67, 3281.51 1535.33, 3322.51 1536.0, 3364.12 1536.67, 3406.35 1537.33, 3449.2 1538.0, 3492.68 1538.67, 3536.8 1539.33, 3581.57 1540.0, 3626.99 1540.67, 3673.09 1541.33, 3719.86 1542.0, 3767.32 1542.67, 3815.47 1543.33, 3864.33 1544.0, 3913.9 1544.67, 3964.19 1545.33, 4015.22 1546.0, 4066.99 1546.67, 4119.52 1547.33, 4172.81 1548.0, 4226.87 1548.67, 4281.72 1549.33, 4337.37 1550.0, 4393.82 1550.67, 4451.09 1551.33, 4509.18 1552.0, 4568.12 1552.67, 4627.91 1553.33, 4688.55 1554.0, 4750.08 1554.67, 4812.48 1555.33, 4875.79 1556.0, 4940.0 1556.67, 5005.14 1557.33, 5071.21 1558.0, 5138.22 1558.67, 5206.2 1559.33, 5275.14 1560.0, 5345.08 1560.67, 5416.0 1561.33, 5487.94 1562.0, 5560.91 1562.67, 5634.91 1563.33, 5709.97 1564.0, 5786.09 1564.67, 5863.29 1565.33, 5941.58 1566.0, 6020.99 1566.67, 6101.51 1567.33, 6183.18 1568.0, 6266.0 1568.67, 6349.98 1569.33, 6435.15 1570.0, 6521.52 1570.67, 6609.11 1571.33, 6697.92 1572.0, 6787.99 1572.67, 6879.31 1573.33, 6971.92 1574.0, 7065.82 1574.67, 7161.04 1575.33, 7257.59 1576.0, 7355.48 1576.67, 7454.74 1577.33, 7555.39 1578.0, 7657.43 1578.67, 7760.9 1579.33, 7865.8 1580.0, 7972.16 1580.67, 8079.99 1581.33, 8189.32 1582.0, 8300.17 1582.67, 8412.54 1583.33, 8526.47 1584.0, 8641.98 1584.67, 8759.07 1585.33, 8877.78 1586.0, 8998.13 1586.67, 9120.13 1587.33, 9243.8 1588.0, 9369.18 1588.67, 9496.27 1589.33, 9625.11 1590.0, 9755.71 1590.67, 9888.1 1591.33, 10022.29 1592.0, 10158.32 1592.67, 10296.21 1593.33, 10435.97 1594.0, 10577.64 1594.67, 10721.23 1595.33, 10866.78 1596.0, 11014.3 1596.67, 11163.83 1597.33, 11315.38 1598.0, 11468.98 1598.67, 11624.66 1599.33, 11782.45 1600.0, 11942.37 " fill="none" stroke="white" stroke-width="1.5" stroke-linejoin="round" stroke-opacity="1"/>

 </svg>