<svg version="1.1" 
 baseProfile="full" 
 width="1600" 
 height="1600" 
 xmlns="http://www.w3.org/2000/svg">
<rect x="0.0" y="0.0" width="1600" height="1600" fill="black" stroke="black" stroke-width="0" opacity="1"/>
<line x1="0.0" y1="0.0" x2="0.0" y2="1600.0" stroke="white" stroke-width="1" opacity="0.4" stroke-linecap="butt"/>
<line x1="160.0" y1="0.0" x2="160.0" y2="1600.0" stroke="white" stroke-width="1" opacity="0.4" stroke-linecap="butt"/>
<line x1="320.0" y1="0.0" x2="320.0" y2="1600.0" stroke="white" stroke-width="1" opacity="0.4" stroke-linecap="butt"/>
<line x1="480.0" y1="0.0" x2="480.0" y2="1600.0" stroke="white" stroke-width="1" opacity="0.4" stroke-linecap="butt"/>
<line x1="640.0" y1="0.0" x2="640.0" y2="1600.0" stroke="white" stroke-width="1" opacity="0.4" stroke-linecap="butt"/>
<line x1="800.0" y1="0.0" x2="800.0" y2="1600.0" stroke="white" stroke-width="1" opacity="0.4" stroke-linecap="butt"/>
<line x1="960.0" y1="0.0" x2="960.0" y2="1600.0" stroke="white" stroke-width="1" opacity="0.4" stroke-linecap="butt"/>
<line x1="1120.0" y1="0.0" x2="1120.0" y2="1600.0" stroke="white" stroke-width="1" opacity="0.4" stroke-linecap="butt"/>
<line x1="1280.0" y1="0.0" x2="1280.0" y2="1600.0" stroke="white" stroke-width="1" opacity="0.4" stroke-linecap="butt"/>
<line x1="1440.0" y1="0.0" x2="1440.0" y2="1600.0" stroke="white" stroke-width="1" opacity="0.4" stroke-linecap="butt"/>
<line x1="0.0" y1="0.0" x2="1600.0" y2="0.0" stroke="white" stroke-width="1" opacity="0.4" stroke-linecap="butt"/>
<line x1="0.0" y1="160.0" x2="1600.0" y2="160.0" stroke="white" stroke-width="1" opacity="0.4" stroke-linecap="butt"/>
<line x1="0.0" y1="320.0" x2="1600.0" y2="320.0" stroke="white" stroke-width="1" opacity="0.4" stroke-linecap="butt"/>
<line x1="0.0" y1="480.0" x2="1600.0" y2="480.0" stroke="white" stroke-width="1" opacity="0.4" stroke-linecap="butt"/>
<line x1="0.0" y1="640.0" x2="1600.0" y2="640.0" stroke="white" stroke-width="1" opacity="0.4" stroke-linecap="butt"/>
<line x1="0.0" y1="800.0" x2="1600.0" y2="800.0" stroke="white" stroke-width="1" opacity="0.4" stroke-linecap="butt"/>
<line x1="0.0" y1="960.0" x2="1600.0" y2="960.0" stroke="white" stroke-width="1" opacity="0.4" stroke-linecap="butt"/>
<line x1="0.0" y1="1120.0" x2="1600.0" y2="1120.0" stroke="white" stroke-width="1" opacity="0.4" stroke-linecap="butt"/>
<line x1="0.0" y1="1280.0" x2="1600.0" y2="1280.0" stroke="white" stroke-width="1" opacity="0.4" stroke-linecap="butt"/>
<line x1="0.0" y1="1440.0" x2="1600.0" y2="1440.0" stroke="white" stroke-width="1" opacity="0.4" stroke-linecap="butt"/>
<line x1="0.0" y1="800.0" x2="1600.0" y2="800.0" stroke="yellow" stroke-width="2.5" opacity="1" stroke-linecap="butt"/>
<line x1="800.0" y1="0.0" x2="800.0" y2="1600.0" stroke="yellow" stroke-width="2.5" opacity="1" stroke-linecap="butt"/>
<polygon points="1564.0 816.0, 1604.0 800.0, 1564.0 784.0, 1572.0 800.0" fill="yellow"/><polygon points="816.0 36.0, 800.0 -4.0, 784.0 36.0, 800.0 28.0" fill="yellow"/><polyline points="0.0, -15695.38 0.67, -15468.94 1.33, -15245.4 2.0, -15024.73 2.67, -14806.9 3.33, -14591.86 4.0, -14379.59 4.67, -14170.06 5.33, -13963.22 6.0, -13759.05 6.67, -13557.52 7.33, -13358.59 8.0, -13162.23 8.67, -12968.41 9.33, -12777.1 10.0, -12588.27 10.67, -12401.89 11.33, -12217.94 12.0, -12036.37 12.67, -11857.16 13.33, -11680.28 14.0, -11505.71 14.67, -11333.42 15.33, -11163.37 16.0, -10995.55 16.67, -10829.92 17.33, -10666.45 18.0, -10505.13 18.67, -10345.92 19.33, -10188.79 20.0, -10033.73 20.67, -9880.71 21.33, -9729.7 22.0, -9580.67 22.67, -9433.61 23.33, -9288.49 24.0, -9145.28 24.67, -9003.97 25.33, -8864.52 26.0, -8726.91 26.67, -8591.13 27.33, -8457.15 28.0, -8324.94 28.67, -8194.49 29.33, -8065.77 30.0, -7938.76 30.67, -7813.44 31.33, -7689.79 32.0, -7567.79 32.67, -7447.42 33.33, -7328.65 34.0, -7211.47 34.67, -7095.86 35.33, -6981.8 36.0, -6869.26 36.67, -6758.24 37.33, -6648.7 38.0, -6540.63 38.67, -6434.02 39.33, -6328.84 40.0, -6225.08 40.67, -6122.72 41.33, -6021.73 42.0, -5922.12 42.67, -5823.84 43.33, -5726.9 44.0, -5631.27 44.67, -5536.93 45.33, -5443.88 46.0, -5352.08 46.67, -5261.54 47.33, -5172.22 48.0, -5084.12 48.67, -4997.22 49.33, -4911.51 50.0, -4826.96 50.67, -4743.57 51.33, -4661.32 52.0, -4580.19 52.67, -4500.17 53.33, -4421.26 54.0, -4343.42 54.67, -4266.65 55.33, -4190.94 56.0, -4116.26 56.67, -4042.62 57.33, -3969.99 58.0, -3898.36 58.67, -3827.72 59.33, -3758.05 60.0, -3689.35 60.67, -3621.6 61.33, -3554.79 62.0, -3488.9 62.67, -3423.93 63.33, -3359.86 64.0, -3296.68 64.67, -3234.38 65.33, -3172.94 66.0, -3112.37 66.67, -3052.63 67.33, -2993.74 68.0, -2935.66 68.67, -2878.4 69.33, -2821.94 70.0, -2766.27 70.67, -2711.38 71.33, -2657.26 72.0, -2603.9 72.67, -2551.29 73.33, -2499.42 74.0, -2448.29 74.67, -2397.87 75.33, -2348.17 76.0, -2299.16 76.67, -2250.86 77.33, -2203.23 78.0, -2156.28 78.67, -2110.0 79.33, -2064.37 80.0, -2019.39 80.67, -1975.05 81.33, -1931.34 82.0, -1888.25 82.67, -1845.78 83.33, -1803.92 84.0, -1762.65 84.67, -1721.97 85.33, -1681.88 86.0, -1642.36 86.67, -1603.41 87.33, -1565.01 88.0, -1527.17 88.67, -1489.87 89.33, -1453.11 90.0, -1416.88 90.67, -1381.17 91.33, -1345.98 92.0, -1311.3 92.67, -1277.12 93.33, -1243.43 94.0, -1210.23 94.67, -1177.52 95.33, -1145.28 96.0, -1113.5 96.67, -1082.2 97.33, -1051.34 98.0, -1020.94 98.67, -990.98 99.33, -961.46 100.0, -932.37 100.67, -903.71 101.33, -875.47 102.0, -847.64 102.67, -820.22 103.33, -793.2 104.0, -766.59 104.67, -740.36 105.33, -714.52 106.0, -689.07 106.67, -663.99 107.33, -639.28 108.0, -614.94 108.67, -590.95 109.33, -567.33 110.0, -544.06 110.67, -521.13 111.33, -498.55 112.0, -476.3 112.67, -454.38 113.33, -432.8 114.0, -411.53 114.67, -390.59 115.33, -369.95 116.0, -349.63 116.67, -329.62 117.33, -309.91 118.0, -290.49 118.67, -271.37 119.33, -252.53 120.0, -233.98 120.67, -215.72 121.33, -197.73 122.0, -180.01 122.67, -162.56 123.33, -145.38 124.0, -128.46 124.67, -111.8 125.33, -95.4 126.0, -79.24 126.67, -63.34 127.33, -47.68 128.0, -32.25 128.67, -17.07 129.33, -2.12 130.0, 12.6 130.67, 27.09 131.33, 41.36 132.0, 55.4 132.67, 69.23 133.33, 82.84 134.0, 96.24 134.67, 109.43 135.33, 122.42 136.0, 135.2 136.67, 147.78 137.33, 160.16 138.0, 172.35 138.67, 184.35 139.33, 196.15 140.0, 207.78 140.67, 219.21 141.33, 230.47 142.0, 241.55 142.67, 252.45 143.33, 263.17 144.0, 273.73 144.67, 284.12 145.33, 294.34 146.0, 304.39 146.67, 314.29 147.33, 324.03 148.0, 333.6 148.67, 343.03 149.33, 352.3 150.0, 361.42 150.67, 370.39 151.33, 379.22 152.0, 387.9 152.67, 396.44 153.33, 404.84 154.0, 413.1 154.67, 421.23 155.33, 429.22 156.0, 437.08 156.67, 444.81 157.33, 452.41 158.0, 459.89 158.67, 467.24 159.33, 474.46 160.0, 481.57 160.67, 488.56 161.33, 495.43 162.0, 502.18 162.67, 508.82 163.33, 515.35 164.0, 521.76 164.67, 528.07 165.33, 534.27 166.0, 540.36 166.67, 546.34 167.33, 552.23 168.0, 558.01 168.67, 563.69 169.33, 569.28 170.0, 574.76 170.67, 580.15 171.33, 585.45 172.0, 590.65 172.67, 595.76 173.33, 600.78 174.0, 605.71 174.67, 610.56 175.33, 615.31 176.0, 619.98 176.67, 624.57 177.33, 629.08 178.0, 633.5 178.67, 637.84 179.33, 642.1 180.0, 646.29 180.67, 650.4 181.33, 654.43 182.0, 658.39 182.67, 662.27 183.33, 666.08 184.0, 669.82 184.67, 673.49 185.33, 677.09 186.0, 680.62 186.67, 684.09 187.33, 687.49 188.0, 690.82 188.67, 694.09 189.33, 697.29 190.0, 700.43 190.67, 703.51 191.33, 706.53 192.0, 709.49 192.67, 712.39 193.33, 715.24 194.0, 718.02 194.67, 720.75 195.33, 723.42 196.0, 726.04 196.67, 728.61 197.33, 731.12 198.0, 733.58 198.67, 735.99 199.33, 738.34 200.0, 740.65 200.67, 742.91 201.33, 745.12 202.0, 747.28 202.67, 749.39 203.33, 751.46 204.0, 753.48 204.67, 755.46 205.33, 757.39 206.0, 759.28 206.67, 761.13 207.33, 762.93 208.0, 764.69 208.67, 766.42 209.33, 768.1 210.0, 769.74 210.67, 771.34 211.33, 772.9 212.0, 774.42 212.67, 775.91 213.33, 777.36 214.0, 778.77 214.67, 780.15 215.33, 781.49 216.0, 782.79 216.67, 784.07 217.33, 785.31 218.0, 786.51 218.67, 787.68 219.33, 788.82 220.0, 789.93 220.67, 791.01 221.33, 792.05 222.0, 793.07 222.67, 794.06 223.33, 795.01 224.0, 795.94 224.67, 796.84 225.33, 797.71 226.0, 798.55 226.67, 799.37 227.33, 800.16 228.0, 800.92 228.67, 801.66 229.33, 802.37 230.0, 803.05 230.67, 803.71 231.33, 804.35 232.0, 804.96 232.67, 805.55 233.33, 806.12 234.0, 806.66 234.67, 807.18 235.33, 807.68 236.0, 808.15 236.67, 808.61 237.33, 809.04 238.0, 809.45 238.67, 809.84 239.33, 810.22 240.0, 810.57 240.67, 810.9 241.33, 811.21 242.0, 811.51 242.67, 811.78 243.33, 812.04 244.0, 812.28 244.67, 812.5 245.33, 812.7 246.0, 812.89 246.67, 813.06 247.33, 813.21 248.0, 813.34 248.67, 813.47 249.33, 813.57 250.0, 813.66 250.67, 813.73 251.33, 813.79 252.0, 813.83 252.67, 813.86 253.33, 813.88 254.0, 813.88 254.67, 813.87 255.33, 813.84 256.0, 813.8 256.67, 813.75 257.33, 813.68 258.0, 813.6 258.67, 813.51 259.33, 813.41 260.0, 813.29 260.67, 813.17 261.33, 813.03 262.0, 812.88 262.67, 812.72 263.33, 812.55 264.0, 812.36 264.67, 812.17 265.33, 811.97 266.0, 811.75 266.67, 811.53 267.33, 811.29 268.0, 811.05 268.67, 810.8 269.33, 810.54 270.0, 810.27 270.67, 809.99 271.33, 809.7 272.0, 809.4 272.67, 809.09 273.33, 808.78 274.0, 808.46 274.67, 808.13 275.33, 807.79 276.0, 807.45 276.67, 807.09 277.33, 806.73 278.0, 806.37 278.67, 805.99 279.33, 805.61 280.0, 805.22 280.67, 804.83 281.33, 804.43 282.0, 804.02 282.67, 803.61 283.33, 803.19 284.0, 802.77 284.67, 802.34 285.33, 801.9 286.0, 801.46 286.67, 801.02 287.33, 800.56 288.0, 800.11 288.67, 799.65 289.33, 799.18 290.0, 798.71 290.67, 798.24 291.33, 797.76 292.0, 797.27 292.67, 796.79 293.33, 796.29 294.0, 795.8 294.67, 795.3 295.33, 794.8 296.0, 794.29 296.67, 793.78 297.33, 793.27 298.0, 792.75 298.67, 792.23 299.33, 791.71 300.0, 791.18 300.67, 790.66 301.33, 790.12 302.0, 789.59 302.67, 789.06 303.33, 788.52 304.0, 787.98 304.67, 787.43 305.33, 786.89 306.0, 786.34 306.67, 785.79 307.33, 785.24 308.0, 784.69 308.67, 784.14 309.33, 783.58 310.0, 783.03 310.67, 782.47 311.33, 781.91 312.0, 781.35 312.67, 780.79 313.33, 780.23 314.0, 779.66 314.67, 779.1 315.33, 778.53 316.0, 777.97 316.67, 777.4 317.33, 776.84 318.0, 776.27 318.67, 775.7 319.33, 775.14 320.0, 774.57 320.67, 774.0 321.33, 773.43 322.0, 772.87 322.67, 772.3 323.33, 771.73 324.0, 771.17 324.67, 770.6 325.33, 770.03 326.0, 769.47 326.67, 768.9 327.33, 768.34 328.0, 767.78 328.67, 767.21 329.33, 766.65 330.0, 766.09 330.67, 765.53 331.33, 764.98 332.0, 764.42 332.67, 763.86 333.33, 763.31 334.0, 762.75 334.67, 762.2 335.33, 761.65 336.0, 761.1 336.67, 760.56 337.33, 760.01 338.0, 759.47 338.67, 758.92 339.33, 758.38 340.0, 757.85 340.67, 757.31 341.33, 756.78 342.0, 756.24 342.67, 755.71 343.33, 755.19 344.0, 754.66 344.67, 754.14 345.33, 753.62 346.0, 753.1 346.67, 752.58 347.33, 752.07 348.0, 751.56 348.67, 751.05 349.33, 750.54 350.0, 750.04 350.67, 749.54 351.33, 749.04 352.0, 748.55 352.67, 748.06 353.33, 747.57 354.0, 747.08 354.67, 746.6 355.33, 746.12 356.0, 745.65 356.67, 745.17 357.33, 744.7 358.0, 744.24 358.67, 743.77 359.33, 743.31 360.0, 742.86 360.67, 742.41 361.33, 741.96 362.0, 741.51 362.67, 741.07 363.33, 740.63 364.0, 740.2 364.67, 739.77 365.33, 739.34 366.0, 738.92 366.67, 738.5 367.33, 738.08 368.0, 737.67 368.67, 737.26 369.33, 736.86 370.0, 736.46 370.67, 736.06 371.33, 735.67 372.0, 735.28 372.67, 734.9 373.33, 734.52 374.0, 734.15 374.67, 733.78 375.33, 733.41 376.0, 733.05 376.67, 732.69 377.33, 732.34 378.0, 731.99 378.67, 731.64 379.33, 731.31 380.0, 730.97 380.67, 730.64 381.33, 730.31 382.0, 729.99 382.67, 729.68 383.33, 729.36 384.0, 729.06 384.67, 728.75 385.33, 728.46 386.0, 728.16 386.67, 727.87 387.33, 727.59 388.0, 727.31 388.67, 727.04 389.33, 726.77 390.0, 726.51 390.67, 726.25 391.33, 725.99 392.0, 725.74 392.67, 725.5 393.33, 725.26 394.0, 725.03 394.67, 724.8 395.33, 724.57 396.0, 724.35 396.67, 724.14 397.33, 723.93 398.0, 723.73 398.67, 723.53 399.33, 723.34 400.0, 723.15 400.67, 722.97 401.33, 722.79 402.0, 722.62 402.67, 722.45 403.33, 722.29 404.0, 722.13 404.67, 721.98 405.33, 721.84 406.0, 721.7 406.67, 721.56 407.33, 721.43 408.0, 721.31 408.67, 721.19 409.33, 721.08 410.0, 720.97 410.67, 720.86 411.33, 720.77 412.0, 720.68 412.67, 720.59 413.33, 720.51 414.0, 720.43 414.67, 720.36 415.33, 720.3 416.0, 720.24 416.67, 720.19 417.33, 720.14 418.0, 720.09 418.67, 720.06 419.33, 720.03 420.0, 720.0 420.67, 719.98 421.33, 719.96 422.0, 719.95 422.67, 719.95 423.33, 719.95 424.0, 719.96 424.67, 719.97 425.33, 719.99 426.0, 720.01 426.67, 720.04 427.33, 720.08 428.0, 720.12 428.67, 720.16 429.33, 720.21 430.0, 720.27 430.67, 720.33 431.33, 720.4 432.0, 720.47 432.67, 720.55 433.33, 720.63 434.0, 720.72 434.67, 720.82 435.33, 720.92 436.0, 721.03 436.67, 721.14 437.33, 721.25 438.0, 721.38 438.67, 721.5 439.33, 721.64 440.0, 721.78 440.67, 721.92 441.33, 722.07 442.0, 722.22 442.67, 722.38 443.33, 722.55 444.0, 722.72 444.67, 722.9 445.33, 723.08 446.0, 723.26 446.67, 723.46 447.33, 723.65 448.0, 723.86 448.67, 724.06 449.33, 724.28 450.0, 724.5 450.67, 724.72 451.33, 724.95 452.0, 725.18 452.67, 725.42 453.33, 725.67 454.0, 725.92 454.67, 726.17 455.33, 726.43 456.0, 726.7 456.67, 726.97 457.33, 727.24 458.0, 727.52 458.67, 727.81 459.33, 728.1 460.0, 728.39 460.67, 728.69 461.33, 729.0 462.0, 729.31 462.67, 729.62 463.33, 729.94 464.0, 730.27 464.67, 730.6 465.33, 730.93 466.0, 731.27 466.67, 731.61 467.33, 731.96 468.0, 732.32 468.67, 732.67 469.33, 733.04 470.0, 733.4 470.67, 733.78 471.33, 734.15 472.0, 734.53 472.67, 734.92 473.33, 735.31 474.0, 735.7 474.67, 736.1 475.33, 736.51 476.0, 736.91 476.67, 737.33 477.33, 737.74 478.0, 738.16 478.67, 738.59 479.33, 739.02 480.0, 739.45 480.67, 739.89 481.33, 740.33 482.0, 740.78 482.67, 741.23 483.33, 741.68 484.0, 742.14 484.67, 742.61 485.33, 743.07 486.0, 743.54 486.67, 744.02 487.33, 744.49 488.0, 744.98 488.67, 745.46 489.33, 745.95 490.0, 746.45 490.67, 746.94 491.33, 747.44 492.0, 747.95 492.67, 748.46 493.33, 748.97 494.0, 749.48 494.67, 750.0 495.33, 750.52 496.0, 751.05 496.67, 751.58 497.33, 752.11 498.0, 752.65 498.67, 753.19 499.33, 753.73 500.0, 754.27 500.67, 754.82 501.33, 755.37 502.0, 755.93 502.67, 756.49 503.33, 757.05 504.0, 757.61 504.67, 758.18 505.33, 758.75 506.0, 759.32 506.67, 759.9 507.33, 760.48 508.0, 761.06 508.67, 761.64 509.33, 762.23 510.0, 762.82 510.67, 763.41 511.33, 764.0 512.0, 764.6 512.67, 765.2 513.33, 765.8 514.0, 766.4 514.67, 767.01 515.33, 767.62 516.0, 768.23 516.67, 768.84 517.33, 769.46 518.0, 770.07 518.67, 770.69 519.33, 771.31 520.0, 771.94 520.67, 772.56 521.33, 773.19 522.0, 773.82 522.67, 774.45 523.33, 775.08 524.0, 775.72 524.67, 776.35 525.33, 776.99 526.0, 777.63 526.67, 778.27 527.33, 778.91 528.0, 779.56 528.67, 780.2 529.33, 780.85 530.0, 781.5 530.67, 782.15 531.33, 782.8 532.0, 783.45 532.67, 784.1 533.33, 784.75 534.0, 785.41 534.67, 786.07 535.33, 786.72 536.0, 787.38 536.67, 788.04 537.33, 788.7 538.0, 789.36 538.67, 790.02 539.33, 790.68 540.0, 791.34 540.67, 792.01 541.33, 792.67 542.0, 793.34 542.67, 794.0 543.33, 794.66 544.0, 795.33 544.67, 796.0 545.33, 796.66 546.0, 797.33 546.67, 797.99 547.33, 798.66 548.0, 799.33 548.67, 799.99 549.33, 800.66 550.0, 801.33 550.67, 801.99 551.33, 802.66 552.0, 803.33 552.67, 803.99 553.33, 804.66 554.0, 805.32 554.67, 805.99 555.33, 806.65 556.0, 807.32 556.67, 807.98 557.33, 808.64 558.0, 809.31 558.67, 809.97 559.33, 810.63 560.0, 811.29 560.67, 811.95 561.33, 812.61 562.0, 813.27 562.67, 813.92 563.33, 814.58 564.0, 815.23 564.67, 815.89 565.33, 816.54 566.0, 817.19 566.67, 817.84 567.33, 818.49 568.0, 819.14 568.67, 819.79 569.33, 820.43 570.0, 821.08 570.67, 821.72 571.33, 822.36 572.0, 823.0 572.67, 823.64 573.33, 824.27 574.0, 824.91 574.67, 825.54 575.33, 826.17 576.0, 826.8 576.67, 827.43 577.33, 828.05 578.0, 828.67 578.67, 829.3 579.33, 829.92 580.0, 830.53 580.67, 831.15 581.33, 831.76 582.0, 832.37 582.67, 832.98 583.33, 833.59 584.0, 834.19 584.67, 834.79 585.33, 835.39 586.0, 835.99 586.67, 836.58 587.33, 837.17 588.0, 837.76 588.67, 838.35 589.33, 838.93 590.0, 839.51 590.67, 840.09 591.33, 840.67 592.0, 841.24 592.67, 841.81 593.33, 842.38 594.0, 842.94 594.67, 843.5 595.33, 844.06 596.0, 844.61 596.67, 845.17 597.33, 845.72 598.0, 846.26 598.67, 846.8 599.33, 847.34 600.0, 847.88 600.67, 848.41 601.33, 848.94 602.0, 849.46 602.67, 849.99 603.33, 850.51 604.0, 851.02 604.67, 851.53 605.33, 852.04 606.0, 852.55 606.67, 853.05 607.33, 853.54 608.0, 854.04 608.67, 854.53 609.33, 855.01 610.0, 855.49 610.67, 855.97 611.33, 856.45 612.0, 856.92 612.67, 857.38 613.33, 857.85 614.0, 858.31 614.67, 858.76 615.33, 859.21 616.0, 859.66 616.67, 860.1 617.33, 860.54 618.0, 860.97 618.67, 861.4 619.33, 861.82 620.0, 862.25 620.67, 862.66 621.33, 863.07 622.0, 863.48 622.67, 863.89 623.33, 864.29 624.0, 864.68 624.67, 865.07 625.33, 865.46 626.0, 865.84 626.67, 866.21 627.33, 866.58 628.0, 866.95 628.67, 867.31 629.33, 867.67 630.0, 868.03 630.67, 868.37 631.33, 868.72 632.0, 869.06 632.67, 869.39 633.33, 869.72 634.0, 870.04 634.67, 870.36 635.33, 870.68 636.0, 870.99 636.67, 871.29 637.33, 871.59 638.0, 871.89 638.67, 872.18 639.33, 872.46 640.0, 872.74 640.67, 873.02 641.33, 873.29 642.0, 873.55 642.67, 873.81 643.33, 874.07 644.0, 874.32 644.67, 874.56 645.33, 874.8 646.0, 875.03 646.67, 875.26 647.33, 875.49 648.0, 875.7 648.67, 875.92 649.33, 876.12 650.0, 876.33 650.67, 876.52 651.33, 876.72 652.0, 876.9 652.67, 877.08 653.33, 877.26 654.0, 877.43 654.67, 877.59 655.33, 877.75 656.0, 877.91 656.67, 878.06 657.33, 878.2 658.0, 878.34 658.67, 878.47 659.33, 878.6 660.0, 878.72 660.67, 878.83 661.33, 878.95 662.0, 879.05 662.67, 879.15 663.33, 879.24 664.0, 879.33 664.67, 879.42 665.33, 879.49 666.0, 879.57 666.67, 879.63 667.33, 879.69 668.0, 879.75 668.67, 879.8 669.33, 879.84 670.0, 879.88 670.67, 879.92 671.33, 879.94 672.0, 879.97 672.67, 879.98 673.33, 879.99 674.0, 880.0 674.67, 880.0 675.33, 879.99 676.0, 879.98 676.67, 879.97 677.33, 879.94 678.0, 879.92 678.67, 879.88 679.33, 879.84 680.0, 879.8 680.67, 879.75 681.33, 879.69 682.0, 879.63 682.67, 879.57 683.33, 879.49 684.0, 879.42 684.67, 879.33 685.33, 879.25 686.0, 879.15 686.67, 879.05 687.33, 878.95 688.0, 878.84 688.67, 878.72 689.33, 878.6 690.0, 878.47 690.67, 878.34 691.33, 878.2 692.0, 878.06 692.67, 877.91 693.33, 877.76 694.0, 877.6 694.67, 877.43 695.33, 877.26 696.0, 877.08 696.67, 876.9 697.33, 876.72 698.0, 876.53 698.67, 876.33 699.33, 876.13 700.0, 875.92 700.67, 875.71 701.33, 875.49 702.0, 875.26 702.67, 875.04 703.33, 874.8 704.0, 874.56 704.67, 874.32 705.33, 874.07 706.0, 873.82 706.67, 873.56 707.33, 873.29 708.0, 873.02 708.67, 872.75 709.33, 872.47 710.0, 872.18 710.67, 871.89 711.33, 871.6 712.0, 871.3 712.67, 870.99 713.33, 870.68 714.0, 870.37 714.67, 870.05 715.33, 869.72 716.0, 869.39 716.67, 869.06 717.33, 868.72 718.0, 868.38 718.67, 868.03 719.33, 867.68 720.0, 867.32 720.67, 866.96 721.33, 866.59 722.0, 866.22 722.67, 865.84 723.33, 865.46 724.0, 865.07 724.67, 864.68 725.33, 864.29 726.0, 863.89 726.67, 863.49 727.33, 863.08 728.0, 862.67 728.67, 862.25 729.33, 861.83 730.0, 861.4 730.67, 860.97 731.33, 860.54 732.0, 860.1 732.67, 859.66 733.33, 859.21 734.0, 858.76 734.67, 858.31 735.33, 857.85 736.0, 857.39 736.67, 856.92 737.33, 856.45 738.0, 855.98 738.67, 855.5 739.33, 855.02 740.0, 854.53 740.67, 854.04 741.33, 853.55 742.0, 853.05 742.67, 852.55 743.33, 852.05 744.0, 851.54 744.67, 851.03 745.33, 850.51 746.0, 849.99 746.67, 849.47 747.33, 848.94 748.0, 848.41 748.67, 847.88 749.33, 847.35 750.0, 846.81 750.67, 846.27 751.33, 845.72 752.0, 845.17 752.67, 844.62 753.33, 844.06 754.0, 843.51 754.67, 842.95 755.33, 842.38 756.0, 841.81 756.67, 841.25 757.33, 840.67 758.0, 840.1 758.67, 839.52 759.33, 838.94 760.0, 838.35 760.67, 837.77 761.33, 837.18 762.0, 836.59 762.67, 835.99 763.33, 835.4 764.0, 834.8 764.67, 834.2 765.33, 833.59 766.0, 832.99 766.67, 832.38 767.33, 831.77 768.0, 831.15 768.67, 830.54 769.33, 829.92 770.0, 829.3 770.67, 828.68 771.33, 828.06 772.0, 827.43 772.67, 826.8 773.33, 826.18 774.0, 825.54 774.67, 824.91 775.33, 824.28 776.0, 823.64 776.67, 823.0 777.33, 822.36 778.0, 821.72 778.67, 821.08 779.33, 820.44 780.0, 819.79 780.67, 819.15 781.33, 818.5 782.0, 817.85 782.67, 817.2 783.33, 816.55 784.0, 815.89 784.67, 815.24 785.33, 814.58 786.0, 813.93 786.67, 813.27 787.33, 812.61 788.0, 811.96 788.67, 811.3 789.33, 810.64 790.0, 809.97 790.67, 809.31 791.33, 808.65 792.0, 807.99 792.67, 807.32 793.33, 806.66 794.0, 805.99 794.67, 805.33 795.33, 804.66 796.0, 804.0 796.67, 803.33 797.33, 802.67 798.0, 802.0 798.67, 801.33 799.33, 800.67 800.0, 800.0 800.67, 799.33 801.33, 798.67 802.0, 798.0 802.67, 797.33 803.33, 796.67 804.0, 796.0 804.67, 795.34 805.33, 794.67 806.0, 794.01 806.67, 793.34 807.33, 792.68 808.0, 792.01 808.67, 791.35 809.33, 790.69 810.0, 790.03 810.67, 789.36 811.33, 788.7 812.0, 788.04 812.67, 787.39 813.33, 786.73 814.0, 786.07 814.67, 785.42 815.33, 784.76 816.0, 784.11 816.67, 783.45 817.33, 782.8 818.0, 782.15 818.67, 781.5 819.33, 780.85 820.0, 780.21 820.67, 779.56 821.33, 778.92 822.0, 778.28 822.67, 777.64 823.33, 777.0 824.0, 776.36 824.67, 775.72 825.33, 775.09 826.0, 774.46 826.67, 773.82 827.33, 773.2 828.0, 772.57 828.67, 771.94 829.33, 771.32 830.0, 770.7 830.67, 770.08 831.33, 769.46 832.0, 768.85 832.67, 768.23 833.33, 767.62 834.0, 767.01 834.67, 766.41 835.33, 765.8 836.0, 765.2 836.67, 764.6 837.33, 764.01 838.0, 763.41 838.67, 762.82 839.33, 762.23 840.0, 761.65 840.67, 761.06 841.33, 760.48 842.0, 759.9 842.67, 759.33 843.33, 758.75 844.0, 758.19 844.67, 757.62 845.33, 757.05 846.0, 756.49 846.67, 755.94 847.33, 755.38 848.0, 754.83 848.67, 754.28 849.33, 753.73 850.0, 753.19 850.67, 752.65 851.33, 752.12 852.0, 751.59 852.67, 751.06 853.33, 750.53 854.0, 750.01 854.67, 749.49 855.33, 748.97 856.0, 748.46 856.67, 747.95 857.33, 747.45 858.0, 746.95 858.67, 746.45 859.33, 745.96 860.0, 745.47 860.67, 744.98 861.33, 744.5 862.0, 744.02 862.67, 743.55 863.33, 743.08 864.0, 742.61 864.67, 742.15 865.33, 741.69 866.0, 741.24 866.67, 740.79 867.33, 740.34 868.0, 739.9 868.67, 739.46 869.33, 739.03 870.0, 738.6 870.67, 738.17 871.33, 737.75 872.0, 737.33 872.67, 736.92 873.33, 736.51 874.0, 736.11 874.67, 735.71 875.33, 735.32 876.0, 734.93 876.67, 734.54 877.33, 734.16 878.0, 733.78 878.67, 733.41 879.33, 733.04 880.0, 732.68 880.67, 732.32 881.33, 731.97 882.0, 731.62 882.67, 731.28 883.33, 730.94 884.0, 730.61 884.67, 730.28 885.33, 729.95 886.0, 729.63 886.67, 729.32 887.33, 729.01 888.0, 728.7 888.67, 728.4 889.33, 728.11 890.0, 727.82 890.67, 727.53 891.33, 727.25 892.0, 726.98 892.67, 726.71 893.33, 726.44 894.0, 726.18 894.67, 725.93 895.33, 725.68 896.0, 725.44 896.67, 725.2 897.33, 724.96 898.0, 724.74 898.67, 724.51 899.33, 724.29 900.0, 724.08 900.67, 723.87 901.33, 723.67 902.0, 723.47 902.67, 723.28 903.33, 723.1 904.0, 722.92 904.67, 722.74 905.33, 722.57 906.0, 722.4 906.67, 722.24 907.33, 722.09 908.0, 721.94 908.67, 721.8 909.33, 721.66 910.0, 721.53 910.67, 721.4 911.33, 721.28 912.0, 721.16 912.67, 721.05 913.33, 720.95 914.0, 720.85 914.67, 720.75 915.33, 720.67 916.0, 720.58 916.67, 720.51 917.33, 720.43 918.0, 720.37 918.67, 720.31 919.33, 720.25 920.0, 720.2 920.67, 720.16 921.33, 720.12 922.0, 720.08 922.67, 720.06 923.33, 720.03 924.0, 720.02 924.67, 720.01 925.33, 720.0 926.0, 720.0 926.67, 720.01 927.33, 720.02 928.0, 720.03 928.67, 720.06 929.33, 720.08 930.0, 720.12 930.67, 720.16 931.33, 720.2 932.0, 720.25 932.67, 720.31 933.33, 720.37 934.0, 720.43 934.67, 720.51 935.33, 720.58 936.0, 720.67 936.67, 720.76 937.33, 720.85 938.0, 720.95 938.67, 721.05 939.33, 721.17 940.0, 721.28 940.67, 721.4 941.33, 721.53 942.0, 721.66 942.67, 721.8 943.33, 721.94 944.0, 722.09 944.67, 722.25 945.33, 722.41 946.0, 722.57 946.67, 722.74 947.33, 722.92 948.0, 723.1 948.67, 723.28 949.33, 723.48 950.0, 723.67 950.67, 723.88 951.33, 724.08 952.0, 724.3 952.67, 724.51 953.33, 724.74 954.0, 724.97 954.67, 725.2 955.33, 725.44 956.0, 725.68 956.67, 725.93 957.33, 726.19 958.0, 726.45 958.67, 726.71 959.33, 726.98 960.0, 727.26 960.67, 727.54 961.33, 727.82 962.0, 728.11 962.67, 728.41 963.33, 728.71 964.0, 729.01 964.67, 729.32 965.33, 729.64 966.0, 729.96 966.67, 730.28 967.33, 730.61 968.0, 730.94 968.67, 731.28 969.33, 731.63 970.0, 731.97 970.67, 732.33 971.33, 732.69 972.0, 733.05 972.67, 733.42 973.33, 733.79 974.0, 734.16 974.67, 734.54 975.33, 734.93 976.0, 735.32 976.67, 735.71 977.33, 736.11 978.0, 736.52 978.67, 736.93 979.33, 737.34 980.0, 737.75 980.67, 738.18 981.33, 738.6 982.0, 739.03 982.67, 739.46 983.33, 739.9 984.0, 740.34 984.67, 740.79 985.33, 741.24 986.0, 741.69 986.67, 742.15 987.33, 742.62 988.0, 743.08 988.67, 743.55 989.33, 744.03 990.0, 744.51 990.67, 744.99 991.33, 745.47 992.0, 745.96 992.67, 746.46 993.33, 746.95 994.0, 747.45 994.67, 747.96 995.33, 748.47 996.0, 748.98 996.67, 749.49 997.33, 750.01 998.0, 750.54 998.67, 751.06 999.33, 751.59 1000.0, 752.12 1000.67, 752.66 1001.33, 753.2 1002.0, 753.74 1002.67, 754.28 1003.33, 754.83 1004.0, 755.39 1004.67, 755.94 1005.33, 756.5 1006.0, 757.06 1006.67, 757.62 1007.33, 758.19 1008.0, 758.76 1008.67, 759.33 1009.33, 759.91 1010.0, 760.49 1010.67, 761.07 1011.33, 761.65 1012.0, 762.24 1012.67, 762.83 1013.33, 763.42 1014.0, 764.01 1014.67, 764.61 1015.33, 765.21 1016.0, 765.81 1016.67, 766.41 1017.33, 767.02 1018.0, 767.63 1018.67, 768.24 1019.33, 768.85 1020.0, 769.47 1020.67, 770.08 1021.33, 770.7 1022.0, 771.33 1022.67, 771.95 1023.33, 772.57 1024.0, 773.2 1024.67, 773.83 1025.33, 774.46 1026.0, 775.09 1026.67, 775.73 1027.33, 776.36 1028.0, 777.0 1028.67, 777.64 1029.33, 778.28 1030.0, 778.92 1030.67, 779.57 1031.33, 780.21 1032.0, 780.86 1032.67, 781.51 1033.33, 782.16 1034.0, 782.81 1034.67, 783.46 1035.33, 784.11 1036.0, 784.77 1036.67, 785.42 1037.33, 786.08 1038.0, 786.73 1038.67, 787.39 1039.33, 788.05 1040.0, 788.71 1040.67, 789.37 1041.33, 790.03 1042.0, 790.69 1042.67, 791.36 1043.33, 792.02 1044.0, 792.68 1044.67, 793.35 1045.33, 794.01 1046.0, 794.68 1046.67, 795.34 1047.33, 796.01 1048.0, 796.67 1048.67, 797.34 1049.33, 798.01 1050.0, 798.67 1050.67, 799.34 1051.33, 800.01 1052.0, 800.67 1052.67, 801.34 1053.33, 802.01 1054.0, 802.67 1054.67, 803.34 1055.33, 804.0 1056.0, 804.67 1056.67, 805.34 1057.33, 806.0 1058.0, 806.66 1058.67, 807.33 1059.33, 807.99 1060.0, 808.66 1060.67, 809.32 1061.33, 809.98 1062.0, 810.64 1062.67, 811.3 1063.33, 811.96 1064.0, 812.62 1064.67, 813.28 1065.33, 813.93 1066.0, 814.59 1066.67, 815.25 1067.33, 815.9 1068.0, 816.55 1068.67, 817.2 1069.33, 817.85 1070.0, 818.5 1070.67, 819.15 1071.33, 819.8 1072.0, 820.44 1072.67, 821.09 1073.33, 821.73 1074.0, 822.37 1074.67, 823.01 1075.33, 823.65 1076.0, 824.28 1076.67, 824.92 1077.33, 825.55 1078.0, 826.18 1078.67, 826.81 1079.33, 827.44 1080.0, 828.06 1080.67, 828.69 1081.33, 829.31 1082.0, 829.93 1082.67, 830.54 1083.33, 831.16 1084.0, 831.77 1084.67, 832.38 1085.33, 832.99 1086.0, 833.6 1086.67, 834.2 1087.33, 834.8 1088.0, 835.4 1088.67, 836.0 1089.33, 836.59 1090.0, 837.18 1090.67, 837.77 1091.33, 838.36 1092.0, 838.94 1092.67, 839.52 1093.33, 840.1 1094.0, 840.68 1094.67, 841.25 1095.33, 841.82 1096.0, 842.39 1096.67, 842.95 1097.33, 843.51 1098.0, 844.07 1098.67, 844.63 1099.33, 845.18 1100.0, 845.73 1100.67, 846.27 1101.33, 846.81 1102.0, 847.35 1102.67, 847.89 1103.33, 848.42 1104.0, 848.95 1104.67, 849.48 1105.33, 850.0 1106.0, 850.52 1106.67, 851.03 1107.33, 851.54 1108.0, 852.05 1108.67, 852.56 1109.33, 853.06 1110.0, 853.55 1110.67, 854.05 1111.33, 854.54 1112.0, 855.02 1112.67, 855.51 1113.33, 855.98 1114.0, 856.46 1114.67, 856.93 1115.33, 857.39 1116.0, 857.86 1116.67, 858.32 1117.33, 858.77 1118.0, 859.22 1118.67, 859.67 1119.33, 860.11 1120.0, 860.55 1120.67, 860.98 1121.33, 861.41 1122.0, 861.84 1122.67, 862.26 1123.33, 862.67 1124.0, 863.09 1124.67, 863.49 1125.33, 863.9 1126.0, 864.3 1126.67, 864.69 1127.33, 865.08 1128.0, 865.47 1128.67, 865.85 1129.33, 866.22 1130.0, 866.6 1130.67, 866.96 1131.33, 867.33 1132.0, 867.68 1132.67, 868.04 1133.33, 868.39 1134.0, 868.73 1134.67, 869.07 1135.33, 869.4 1136.0, 869.73 1136.67, 870.06 1137.33, 870.38 1138.0, 870.69 1138.67, 871.0 1139.33, 871.31 1140.0, 871.61 1140.67, 871.9 1141.33, 872.19 1142.0, 872.48 1142.67, 872.76 1143.33, 873.03 1144.0, 873.3 1144.67, 873.57 1145.33, 873.83 1146.0, 874.08 1146.67, 874.33 1147.33, 874.58 1148.0, 874.82 1148.67, 875.05 1149.33, 875.28 1150.0, 875.5 1150.67, 875.72 1151.33, 875.94 1152.0, 876.14 1152.67, 876.35 1153.33, 876.54 1154.0, 876.74 1154.67, 876.92 1155.33, 877.1 1156.0, 877.28 1156.67, 877.45 1157.33, 877.62 1158.0, 877.78 1158.67, 877.93 1159.33, 878.08 1160.0, 878.22 1160.67, 878.36 1161.33, 878.5 1162.0, 878.62 1162.67, 878.75 1163.33, 878.86 1164.0, 878.97 1164.67, 879.08 1165.33, 879.18 1166.0, 879.28 1166.67, 879.37 1167.33, 879.45 1168.0, 879.53 1168.67, 879.6 1169.33, 879.67 1170.0, 879.73 1170.67, 879.79 1171.33, 879.84 1172.0, 879.88 1172.67, 879.92 1173.33, 879.96 1174.0, 879.99 1174.67, 880.01 1175.33, 880.03 1176.0, 880.04 1176.67, 880.05 1177.33, 880.05 1178.0, 880.05 1178.67, 880.04 1179.33, 880.02 1180.0, 880.0 1180.67, 879.97 1181.33, 879.94 1182.0, 879.91 1182.67, 879.86 1183.33, 879.81 1184.0, 879.76 1184.67, 879.7 1185.33, 879.64 1186.0, 879.57 1186.67, 879.49 1187.33, 879.41 1188.0, 879.32 1188.67, 879.23 1189.33, 879.14 1190.0, 879.03 1190.67, 878.92 1191.33, 878.81 1192.0, 878.69 1192.67, 878.57 1193.33, 878.44 1194.0, 878.3 1194.67, 878.16 1195.33, 878.02 1196.0, 877.87 1196.67, 877.71 1197.33, 877.55 1198.0, 877.38 1198.67, 877.21 1199.33, 877.03 1200.0, 876.85 1200.67, 876.66 1201.33, 876.47 1202.0, 876.27 1202.67, 876.07 1203.33, 875.86 1204.0, 875.65 1204.67, 875.43 1205.33, 875.2 1206.0, 874.97 1206.67, 874.74 1207.33, 874.5 1208.0, 874.26 1208.67, 874.01 1209.33, 873.75 1210.0, 873.49 1210.67, 873.23 1211.33, 872.96 1212.0, 872.69 1212.67, 872.41 1213.33, 872.13 1214.0, 871.84 1214.67, 871.54 1215.33, 871.25 1216.0, 870.94 1216.67, 870.64 1217.33, 870.32 1218.0, 870.01 1218.67, 869.69 1219.33, 869.36 1220.0, 869.03 1220.67, 868.69 1221.33, 868.36 1222.0, 868.01 1222.67, 867.66 1223.33, 867.31 1224.0, 866.95 1224.67, 866.59 1225.33, 866.22 1226.0, 865.85 1226.67, 865.48 1227.33, 865.1 1228.0, 864.72 1228.67, 864.33 1229.33, 863.94 1230.0, 863.54 1230.67, 863.14 1231.33, 862.74 1232.0, 862.33 1232.67, 861.92 1233.33, 861.5 1234.0, 861.08 1234.67, 860.66 1235.33, 860.23 1236.0, 859.8 1236.67, 859.37 1237.33, 858.93 1238.0, 858.49 1238.67, 858.04 1239.33, 857.59 1240.0, 857.14 1240.67, 856.69 1241.33, 856.23 1242.0, 855.76 1242.67, 855.3 1243.33, 854.83 1244.0, 854.35 1244.67, 853.88 1245.33, 853.4 1246.0, 852.92 1246.67, 852.43 1247.33, 851.94 1248.0, 851.45 1248.67, 850.96 1249.33, 850.46 1250.0, 849.96 1250.67, 849.46 1251.33, 848.95 1252.0, 848.44 1252.67, 847.93 1253.33, 847.42 1254.0, 846.9 1254.67, 846.38 1255.33, 845.86 1256.0, 845.34 1256.67, 844.81 1257.33, 844.29 1258.0, 843.76 1258.67, 843.22 1259.33, 842.69 1260.0, 842.15 1260.67, 841.62 1261.33, 841.08 1262.0, 840.53 1262.67, 839.99 1263.33, 839.44 1264.0, 838.9 1264.67, 838.35 1265.33, 837.8 1266.0, 837.25 1266.67, 836.69 1267.33, 836.14 1268.0, 835.58 1268.67, 835.02 1269.33, 834.47 1270.0, 833.91 1270.67, 833.35 1271.33, 832.79 1272.0, 832.22 1272.67, 831.66 1273.33, 831.1 1274.0, 830.53 1274.67, 829.97 1275.33, 829.4 1276.0, 828.83 1276.67, 828.27 1277.33, 827.7 1278.0, 827.13 1278.67, 826.57 1279.33, 826.0 1280.0, 825.43 1280.67, 824.86 1281.33, 824.3 1282.0, 823.73 1282.67, 823.16 1283.33, 822.6 1284.0, 822.03 1284.67, 821.47 1285.33, 820.9 1286.0, 820.34 1286.67, 819.77 1287.33, 819.21 1288.0, 818.65 1288.67, 818.09 1289.33, 817.53 1290.0, 816.97 1290.67, 816.42 1291.33, 815.86 1292.0, 815.31 1292.67, 814.76 1293.33, 814.21 1294.0, 813.66 1294.67, 813.11 1295.33, 812.57 1296.0, 812.02 1296.67, 811.48 1297.33, 810.94 1298.0, 810.41 1298.67, 809.88 1299.33, 809.34 1300.0, 808.82 1300.67, 808.29 1301.33, 807.77 1302.0, 807.25 1302.67, 806.73 1303.33, 806.22 1304.0, 805.71 1304.67, 805.2 1305.33, 804.7 1306.0, 804.2 1306.67, 803.71 1307.33, 803.21 1308.0, 802.73 1308.67, 802.24 1309.33, 801.76 1310.0, 801.29 1310.67, 800.82 1311.33, 800.35 1312.0, 799.89 1312.67, 799.44 1313.33, 798.98 1314.0, 798.54 1314.67, 798.1 1315.33, 797.66 1316.0, 797.23 1316.67, 796.81 1317.33, 796.39 1318.0, 795.98 1318.67, 795.57 1319.33, 795.17 1320.0, 794.78 1320.67, 794.39 1321.33, 794.01 1322.0, 793.63 1322.67, 793.27 1323.33, 792.91 1324.0, 792.55 1324.67, 792.21 1325.33, 791.87 1326.0, 791.54 1326.67, 791.22 1327.33, 790.91 1328.0, 790.6 1328.67, 790.3 1329.33, 790.01 1330.0, 789.73 1330.67, 789.46 1331.33, 789.2 1332.0, 788.95 1332.67, 788.71 1333.33, 788.47 1334.0, 788.25 1334.67, 788.03 1335.33, 787.83 1336.0, 787.64 1336.67, 787.45 1337.33, 787.28 1338.0, 787.12 1338.67, 786.97 1339.33, 786.83 1340.0, 786.71 1340.67, 786.59 1341.33, 786.49 1342.0, 786.4 1342.67, 786.32 1343.33, 786.25 1344.0, 786.2 1344.67, 786.16 1345.33, 786.13 1346.0, 786.12 1346.67, 786.12 1347.33, 786.14 1348.0, 786.17 1348.67, 786.21 1349.33, 786.27 1350.0, 786.34 1350.67, 786.43 1351.33, 786.53 1352.0, 786.66 1352.67, 786.79 1353.33, 786.94 1354.0, 787.11 1354.67, 787.3 1355.33, 787.5 1356.0, 787.72 1356.67, 787.96 1357.33, 788.22 1358.0, 788.49 1358.67, 788.79 1359.33, 789.1 1360.0, 789.43 1360.67, 789.78 1361.33, 790.16 1362.0, 790.55 1362.67, 790.96 1363.33, 791.39 1364.0, 791.85 1364.67, 792.32 1365.33, 792.82 1366.0, 793.34 1366.67, 793.88 1367.33, 794.45 1368.0, 795.04 1368.67, 795.65 1369.33, 796.29 1370.0, 796.95 1370.67, 797.63 1371.33, 798.34 1372.0, 799.08 1372.67, 799.84 1373.33, 800.63 1374.0, 801.45 1374.67, 802.29 1375.33, 803.16 1376.0, 804.06 1376.67, 804.99 1377.33, 805.94 1378.0, 806.93 1378.67, 807.95 1379.33, 808.99 1380.0, 810.07 1380.67, 811.18 1381.33, 812.32 1382.0, 813.49 1382.67, 814.69 1383.33, 815.93 1384.0, 817.21 1384.67, 818.51 1385.33, 819.85 1386.0, 821.23 1386.67, 822.64 1387.33, 824.09 1388.0, 825.58 1388.67, 827.1 1389.33, 828.66 1390.0, 830.26 1390.67, 831.9 1391.33, 833.58 1392.0, 835.31 1392.67, 837.07 1393.33, 838.87 1394.0, 840.72 1394.67, 842.61 1395.33, 844.54 1396.0, 846.52 1396.67, 848.54 1397.33, 850.61 1398.0, 852.72 1398.67, 854.88 1399.33, 857.09 1400.0, 859.35 1400.67, 861.66 1401.33, 864.01 1402.0, 866.42 1402.67, 868.88 1403.33, 871.39 1404.0, 873.96 1404.67, 876.58 1405.33, 879.25 1406.0, 881.98 1406.67, 884.76 1407.33, 887.61 1408.0, 890.51 1408.67, 893.47 1409.33, 896.49 1410.0, 899.57 1410.67, 902.71 1411.33, 905.91 1412.0, 909.18 1412.67, 912.51 1413.33, 915.91 1414.0, 919.38 1414.67, 922.91 1415.33, 926.51 1416.0, 930.18 1416.67, 933.92 1417.33, 937.73 1418.0, 941.61 1418.67, 945.57 1419.33, 949.6 1420.0, 953.71 1420.67, 957.9 1421.33, 962.16 1422.0, 966.5 1422.67, 970.92 1423.33, 975.43 1424.0, 980.02 1424.67, 984.69 1425.33, 989.44 1426.0, 994.29 1426.67, 999.22 1427.33, 1004.24 1428.0, 1009.35 1428.67, 1014.55 1429.33, 1019.85 1430.0, 1025.24 1430.67, 1030.72 1431.33, 1036.31 1432.0, 1041.99 1432.67, 1047.77 1433.33, 1053.66 1434.0, 1059.64 1434.67, 1065.73 1435.33, 1071.93 1436.0, 1078.24 1436.67, 1084.65 1437.33, 1091.18 1438.0, 1097.82 1438.67, 1104.57 1439.33, 1111.44 1440.0, 1118.43 1440.67, 1125.54 1441.33, 1132.76 1442.0, 1140.11 1442.67, 1147.59 1443.33, 1155.19 1444.0, 1162.92 1444.67, 1170.78 1445.33, 1178.77 1446.0, 1186.9 1446.67, 1195.16 1447.33, 1203.56 1448.0, 1212.1 1448.67, 1220.78 1449.33, 1229.61 1450.0, 1238.58 1450.67, 1247.7 1451.33, 1256.97 1452.0, 1266.4 1452.67, 1275.97 1453.33, 1285.71 1454.0, 1295.61 1454.67, 1305.66 1455.33, 1315.88 1456.0, 1326.27 1456.67, 1336.83 1457.33, 1347.55 1458.0, 1358.45 1458.67, 1369.53 1459.33, 1380.79 1460.0, 1392.22 1460.67, 1403.85 1461.33, 1415.65 1462.0, 1427.65 1462.67, 1439.84 1463.33, 1452.22 1464.0, 1464.8 1464.67, 1477.58 1465.33, 1490.57 1466.0, 1503.76 1466.67, 1517.16 1467.33, 1530.77 1468.0, 1544.6 1468.67, 1558.64 1469.33, 1572.91 1470.0, 1587.4 1470.67, 1602.12 1471.33, 1617.07 1472.0, 1632.25 1472.67, 1647.68 1473.33, 1663.34 1474.0, 1679.24 1474.67, 1695.4 1475.33, 1711.8 1476.0, 1728.46 1476.67, 1745.38 1477.33, 1762.56 1478.0, 1780.01 1478.67, 1797.73 1479.33, 1815.72 1480.0, 1833.98 1480.67, 1852.53 1481.33, 1871.37 1482.0, 1890.49 1482.67, 1909.91 1483.33, 1929.62 1484.0, 1949.63 1484.67, 1969.95 1485.33, 1990.59 1486.0, 2011.53 1486.67, 2032.8 1487.33, 2054.38 1488.0, 2076.3 1488.67, 2098.55 1489.33, 2121.13 1490.0, 2144.06 1490.67, 2167.33 1491.33, 2190.95 1492.0, 2214.94 1492.67, 2239.28 1493.33, 2263.99 1494.0, 2289.07 1494.67, 2314.52 1495.33, 2340.36 1496.0, 2366.59 1496.67, 2393.2 1497.33, 2420.22 1498.0, 2447.64 1498.67, 2475.47 1499.33, 2503.71 1500.0, 2532.37 1500.67, 2561.46 1501.33, 2590.98 1502.0, 2620.94 1502.67, 2651.34 1503.33, 2682.2 1504.0, 2713.5 1504.67, 2745.28 1505.33, 2777.52 1506.0, 2810.23 1506.67, 2843.43 1507.33, 2877.12 1508.0, 2911.3 1508.67, 2945.98 1509.33, 2981.17 1510.0, 3016.88 1510.67, 3053.11 1511.33, 3089.87 1512.0, 3127.17 1512.67, 3165.01 1513.33, 3203.41 1514.0, 3242.36 1514.67, 3281.88 1515.33, 3321.97 1516.0, 3362.65 1516.67, 3403.92 1517.33, 3445.78 1518.0, 3488.25 1518.67, 3531.34 1519.33, 3575.05 1520.0, 3619.39 1520.67, 3664.37 1521.33, 3710.0 1522.0, 3756.28 1522.67, 3803.23 1523.33, 3850.86 1524.0, 3899.16 1524.67, 3948.17 1525.33, 3997.87 1526.0, 4048.29 1526.67, 4099.42 1527.33, 4151.29 1528.0, 4203.9 1528.67, 4257.26 1529.33, 4311.38 1530.0, 4366.27 1530.67, 4421.94 1531.33, 4478.4 1532.0, 4535.66 1532.67, 4593.74 1533.33, 4652.63 1534.0, 4712.37 1534.67, 4772.94 1535.33, 4834.38 1536.0, 4896.68 1536.67, 4959.86 1537.33, 5023.93 1538.0, 5088.9 1538.67, 5154.79 1539.33, 5221.6 1540.0, 5289.35 1540.67, 5358.05 1541.33, 5427.72 1542.0, 5498.36 1542.67, 5569.99 1543.33, 5642.62 1544.0, 5716.26 1544.67, 5790.94 1545.33, 5866.65 1546.0, 5943.42 1546.67, 6021.26 1547.33, 6100.17 1548.0, 6180.19 1548.67, 6261.32 1549.33, 6343.57 1550.0, 6426.96 1550.67, 6511.51 1551.33, 6597.22 1552.0, 6684.12 1552.67, 6772.22 1553.33, 6861.54 1554.0, 6952.08 1554.67, 7043.88 1555.33, 7136.93 1556.0, 7231.27 1556.67, 7326.9 1557.33, 7423.84 1558.0, 7522.12 1558.67, 7621.73 1559.33, 7722.72 1560.0, 7825.08 1560.67, 7928.84 1561.33, 8034.02 1562.0, 8140.63 1562.67, 8248.7 1563.33, 8358.24 1564.0, 8469.26 1564.67, 8581.8 1565.33, 8695.86 1566.0, 8811.47 1566.67, 8928.65 1567.33, 9047.42 1568.0, 9167.79 1568.67, 9289.79 1569.33, 9413.44 1570.0, 9538.76 1570.67, 9665.77 1571.33, 9794.49 1572.0, 9924.94 1572.67, 10057.15 1573.33, 10191.13 1574.0, 10326.91 1574.67, 10464.52 1575.33, 10603.97 1576.0, 10745.28 1576.67, 10888.49 1577.33, 11033.61 1578.0, 11180.67 1578.67, 11329.7 1579.33, 11480.71 1580.0, 11633.73 1580.67, 11788.79 1581.33, 11945.92 1582.0, 12105.13 1582.67, 12266.45 1583.33, 12429.92 1584.0, 12595.55 1584.67, 12763.37 1585.33, 12933.42 1586.0, 13105.71 1586.67, 13280.28 1587.33, 13457.16 1588.0, 13636.37 1588.67, 13817.94 1589.33, 14001.89 1590.0, 14188.27 1590.67, 14377.1 1591.33, 14568.41 1592.0, 14762.23 1592.67, 14958.59 1593.33, 15157.52 1594.0, 15359.05 1594.67, 15563.22 1595.33, 15770.06 1596.0, 15979.59 1596.67, 16191.86 1597.33, 16406.9 1598.0, 16624.73 1598.67, 16845.4 1599.33, 17068.94 1600.0, 17295.38 " fill="none" stroke="white" stroke-width="1.5" stroke-linejoin="round" stroke-opacity="1"/>

 </svg>