<svg version="1.1" 
 baseProfile="full" 
 width="1600" 
 height="1600" 
 xmlns="http://www.w3.org/2000/svg">
<rect x="0.0" y="0.0" width="1600" height="1600" fill="black" stroke="black" stroke-width="0" opacity="1"/>
<line x1="0.0" y1="0.0" x2="0.0" y2="1600.0" stroke="white" stroke-width="1" opacity="0.4" stroke-linecap="butt"/>
<line x1="160.0" y1="0.0" x2="160.0" y2="1600.0" stroke="white" stroke-width="1" opacity="0.4" stroke-linecap="butt"/>
<line x1="320.0" y1="0.0" x2="320.0" y2="1600.0" stroke="white" stroke-width="1" opacity="0.4" stroke-linecap="butt"/>
<line x1="480.0" y1="0.0" x2="480.0" y2="1600.0" stroke="white" stroke-width="1" opacity="0.4" stroke-linecap="butt"/>
<line x1="640.0" y1="0.0" x2="640.0" y2="1600.0" stroke="white" stroke-width="1" opacity="0.4" stroke-linecap="butt"/>
<line x1="800.0" y1="0.0" x2="800.0" y2="1600.0" stroke="white" stroke-width="1" opacity="0.4" stroke-linecap="butt"/>
<line x1="960.0" y1="0.0" x2="960.0" y2="1600.0" stroke="white" stroke-width="1" opacity="0.4" stroke-linecap="butt"/>
<line x1="1120.0" y1="0.0" x2="1120.0" y2="1600.0" stroke="white" stroke-width="1" opacity="0.4" stroke-linecap="butt"/>
<line x1="1280.0" y1="0.0" x2="1280.0" y2="1600.0" stroke="white" stroke-width="1" opacity="0.4" stroke-linecap="butt"/>
<line x1="1440.0" y1="0.0" x2="1440.0" y2="1600.0" stroke="white" stroke-width="1" opacity="0.4" stroke-linecap="butt"/>
<line x1="0.0" y1="0.0" x2="1600.0" y2="0.0" stroke="white" stroke-width="1" opacity="0.4" stroke-linecap="butt"/>
<line x1="0.0" y1="160.0" x2="1600.0" y2="160.0" stroke="white" stroke-width="1" opacity="0.4" stroke-linecap="butt"/>
<line x1="0.0" y1="320.0" x2="1600.0" y2="320.0" stroke="white" stroke-width="1" opacity="0.4" stroke-linecap="butt"/>
<line x1="0.0" y1="480.0" x2="1600.0" y2="480.0" stroke="white" stroke-width="1" opacity="0.4" stroke-linecap="butt"/>
<line x1="0.0" y1="640.0" x2="1600.0" y2="640.0" stroke="white" stroke-width="1" opacity="0.4" stroke-linecap="butt"/>
<line x1="0.0" y1="800.0" x2="1600.0" y2="800.0" stroke="white" stroke-width="1" opacity="0.4" stroke-linecap="butt"/>
<line x1="0.0" y1="960.0" x2="1600.0" y2="960.0" stroke="white" stroke-width="1" opacity="0.4" stroke-linecap="butt"/>
<line x1="0.0" y1="1120.0" x2="1600.0" y2="1120.0" stroke="white" stroke-width="1" opacity="0.4" stroke-linecap="butt"/>
<line x1="0.0" y1="1280.0" x2="1600.0" y2="1280.0" stroke="white" stroke-width="1" opacity="0.4" stroke-linecap="butt"/>
<line x1="0.0" y1="1440.0" x2="1600.0" y2="1440.0" stroke="white" stroke-width="1" opacity="0.4" stroke-linecap="butt"/>
<line x1="0.0" y1="800.0" x2="1600.0" y2="800.0" stroke="yellow" stroke-width="2.5" opacity="1" stroke-linecap="butt"/>
<line x1="800.0" y1="0.0" x2="800.0" y2="1600.0" stroke="yellow" stroke-width="2.5" opacity="1" stroke-linecap="butt"/>
<polygon points="1564.0 816.0, 1604.0 800.0, 1564.0 784.0, 1572.0 800.0" fill="yellow"/><polygon points="816.0 36.0, 800.0 -4.0, 784.0 36.0, 800.0 28.0" fill="yellow"/><polyline points="0.0, -15054.37 0.67, -14838.21 1.33, -14624.8 2.0, -14414.1 2.67, -14206.1 3.33, -14000.75 4.0, -13798.02 4.67, -13597.88 5.33, -13400.3 6.0, -13205.25 6.67, -13012.7 7.33, -12822.62 8.0, -12634.98 8.67, -12449.75 9.33, -12266.9 10.0, -12086.4 10.67, -11908.23 11.33, -11732.35 12.0, -11558.75 12.67, -11387.38 13.33, -11218.23 14.0, -11051.26 14.67, -10886.46 15.33, -10723.79 16.0, -10563.23 16.67, -10404.75 17.33, -10248.33 18.0, -10093.95 18.67, -9941.57 19.33, -9791.18 20.0, -9642.74 20.67, -9496.25 21.33, -9351.66 22.0, -9208.96 22.67, -9068.13 23.33, -8929.14 24.0, -8791.97 24.67, -8656.6 25.33, -8523.01 26.0, -8391.17 26.67, -8261.06 27.33, -8132.66 28.0, -8005.95 28.67, -7880.91 29.33, -7757.53 30.0, -7635.76 30.67, -7515.61 31.33, -7397.05 32.0, -7280.05 32.67, -7164.61 33.33, -7050.69 34.0, -6938.28 34.67, -6827.37 35.33, -6717.93 36.0, -6609.95 36.67, -6503.4 37.33, -6398.27 38.0, -6294.55 38.67, -6192.2 39.33, -6091.23 40.0, -5991.6 40.67, -5893.31 41.33, -5796.33 42.0, -5700.66 42.67, -5606.26 43.33, -5513.14 44.0, -5421.26 44.67, -5330.62 45.33, -5241.2 46.0, -5152.99 46.67, -5065.96 47.33, -4980.11 48.0, -4895.42 48.67, -4811.87 49.33, -4729.45 50.0, -4648.15 50.67, -4567.95 51.33, -4488.84 52.0, -4410.8 52.67, -4333.82 53.33, -4257.89 54.0, -4183.0 54.67, -4109.12 55.33, -4036.25 56.0, -3964.38 56.67, -3893.49 57.33, -3823.56 58.0, -3754.6 58.67, -3686.57 59.33, -3619.48 60.0, -3553.31 60.67, -3488.05 61.33, -3423.69 62.0, -3360.21 62.67, -3297.61 63.33, -3235.87 64.0, -3174.98 64.67, -3114.93 65.33, -3055.71 66.0, -2997.31 66.67, -2939.71 67.33, -2882.92 68.0, -2826.91 68.67, -2771.68 69.33, -2717.22 70.0, -2663.52 70.67, -2610.56 71.33, -2558.34 72.0, -2506.85 72.67, -2456.08 73.33, -2406.01 74.0, -2356.65 74.67, -2307.98 75.33, -2259.99 76.0, -2212.67 76.67, -2166.01 77.33, -2120.01 78.0, -2074.66 78.67, -2029.95 79.33, -1985.86 80.0, -1942.4 80.67, -1899.55 81.33, -1857.31 82.0, -1815.66 82.67, -1774.6 83.33, -1734.13 84.0, -1694.22 84.67, -1654.89 85.33, -1616.11 86.0, -1577.89 86.67, -1540.2 87.33, -1503.06 88.0, -1466.44 88.67, -1430.35 89.33, -1394.78 90.0, -1359.71 90.67, -1325.14 91.33, -1291.07 92.0, -1257.49 92.67, -1224.39 93.33, -1191.77 94.0, -1159.61 94.67, -1127.92 95.33, -1096.69 96.0, -1065.9 96.67, -1035.56 97.33, -1005.66 98.0, -976.2 98.67, -947.16 99.33, -918.54 100.0, -890.33 100.67, -862.54 101.33, -835.15 102.0, -808.16 102.67, -781.56 103.33, -755.35 104.0, -729.53 104.67, -704.08 105.33, -679.01 106.0, -654.3 106.67, -629.95 107.33, -605.97 108.0, -582.33 108.67, -559.05 109.33, -536.1 110.0, -513.5 110.67, -491.23 111.33, -469.29 112.0, -447.67 112.67, -426.38 113.33, -405.4 114.0, -384.73 114.67, -364.37 115.33, -344.31 116.0, -324.56 116.67, -305.09 117.33, -285.92 118.0, -267.04 118.67, -248.44 119.33, -230.11 120.0, -212.07 120.67, -194.29 121.33, -176.78 122.0, -159.54 122.67, -142.55 123.33, -125.83 124.0, -109.35 124.67, -93.13 125.33, -77.15 126.0, -61.42 126.67, -45.92 127.33, -30.66 128.0, -15.64 128.67, -0.84 129.33, 13.73 130.0, 28.08 130.67, 42.2 131.33, 56.11 132.0, 69.81 132.67, 83.29 133.33, 96.57 134.0, 109.64 134.67, 122.51 135.33, 135.17 136.0, 147.65 136.67, 159.92 137.33, 172.01 138.0, 183.91 138.67, 195.62 139.33, 207.15 140.0, 218.5 140.67, 229.67 141.33, 240.66 142.0, 251.48 142.67, 262.13 143.33, 272.61 144.0, 282.93 144.67, 293.08 145.33, 303.07 146.0, 312.9 146.67, 322.57 147.33, 332.09 148.0, 341.46 148.67, 350.68 149.33, 359.75 150.0, 368.67 150.67, 377.45 151.33, 386.08 152.0, 394.58 152.67, 402.94 153.33, 411.16 154.0, 419.25 154.67, 427.21 155.33, 435.03 156.0, 442.73 156.67, 450.3 157.33, 457.75 158.0, 465.07 158.67, 472.27 159.33, 479.35 160.0, 486.32 160.67, 493.17 161.33, 499.9 162.0, 506.52 162.67, 513.03 163.33, 519.43 164.0, 525.72 164.67, 531.91 165.33, 537.99 166.0, 543.97 166.67, 549.84 167.33, 555.62 168.0, 561.29 168.67, 566.87 169.33, 572.35 170.0, 577.74 170.67, 583.03 171.33, 588.23 172.0, 593.34 172.67, 598.36 173.33, 603.29 174.0, 608.14 174.67, 612.9 175.33, 617.57 176.0, 622.16 176.67, 626.67 177.33, 631.1 178.0, 635.45 178.67, 639.72 179.33, 643.91 180.0, 648.03 180.67, 652.07 181.33, 656.04 182.0, 659.93 182.67, 663.75 183.33, 667.5 184.0, 671.19 184.67, 674.8 185.33, 678.34 186.0, 681.82 186.67, 685.23 187.33, 688.58 188.0, 691.86 188.67, 695.08 189.33, 698.24 190.0, 701.33 190.67, 704.37 191.33, 707.34 192.0, 710.26 192.67, 713.12 193.33, 715.92 194.0, 718.67 194.67, 721.36 195.33, 724.0 196.0, 726.58 196.67, 729.11 197.33, 731.59 198.0, 734.02 198.67, 736.4 199.33, 738.72 200.0, 741.0 200.67, 743.23 201.33, 745.41 202.0, 747.54 202.67, 749.63 203.33, 751.67 204.0, 753.67 204.67, 755.63 205.33, 757.54 206.0, 759.4 206.67, 761.23 207.33, 763.01 208.0, 764.75 208.67, 766.45 209.33, 768.11 210.0, 769.73 210.67, 771.32 211.33, 772.86 212.0, 774.37 212.67, 775.84 213.33, 777.27 214.0, 778.67 214.67, 780.03 215.33, 781.36 216.0, 782.66 216.67, 783.92 217.33, 785.14 218.0, 786.34 218.67, 787.5 219.33, 788.63 220.0, 789.72 220.67, 790.79 221.33, 791.83 222.0, 792.83 222.67, 793.81 223.33, 794.76 224.0, 795.68 224.67, 796.57 225.33, 797.43 226.0, 798.27 226.67, 799.08 227.33, 799.86 228.0, 800.62 228.67, 801.35 229.33, 802.06 230.0, 802.74 230.67, 803.39 231.33, 804.03 232.0, 804.63 232.67, 805.22 233.33, 805.78 234.0, 806.32 234.67, 806.84 235.33, 807.33 236.0, 807.8 236.67, 808.26 237.33, 808.69 238.0, 809.1 238.67, 809.49 239.33, 809.86 240.0, 810.21 240.67, 810.54 241.33, 810.85 242.0, 811.14 242.67, 811.42 243.33, 811.67 244.0, 811.91 244.67, 812.13 245.33, 812.33 246.0, 812.52 246.67, 812.69 247.33, 812.84 248.0, 812.98 248.67, 813.1 249.33, 813.21 250.0, 813.3 250.67, 813.37 251.33, 813.43 252.0, 813.47 252.67, 813.5 253.33, 813.52 254.0, 813.52 254.67, 813.51 255.33, 813.49 256.0, 813.45 256.67, 813.4 257.33, 813.33 258.0, 813.26 258.67, 813.17 259.33, 813.07 260.0, 812.95 260.67, 812.83 261.33, 812.69 262.0, 812.54 262.67, 812.38 263.33, 812.22 264.0, 812.03 264.67, 811.84 265.33, 811.64 266.0, 811.43 266.67, 811.21 267.33, 810.98 268.0, 810.74 268.67, 810.49 269.33, 810.23 270.0, 809.96 270.67, 809.68 271.33, 809.39 272.0, 809.1 272.67, 808.8 273.33, 808.49 274.0, 808.17 274.67, 807.84 275.33, 807.5 276.0, 807.16 276.67, 806.81 277.33, 806.46 278.0, 806.09 278.67, 805.72 279.33, 805.34 280.0, 804.96 280.67, 804.57 281.33, 804.17 282.0, 803.76 282.67, 803.36 283.33, 802.94 284.0, 802.52 284.67, 802.09 285.33, 801.66 286.0, 801.22 286.67, 800.78 287.33, 800.33 288.0, 799.87 288.67, 799.42 289.33, 798.95 290.0, 798.49 290.67, 798.01 291.33, 797.54 292.0, 797.06 292.67, 796.57 293.33, 796.08 294.0, 795.59 294.67, 795.09 295.33, 794.59 296.0, 794.09 296.67, 793.58 297.33, 793.07 298.0, 792.56 298.67, 792.04 299.33, 791.52 300.0, 791.0 300.67, 790.47 301.33, 789.94 302.0, 789.41 302.67, 788.88 303.33, 788.34 304.0, 787.8 304.67, 787.26 305.33, 786.72 306.0, 786.18 306.67, 785.63 307.33, 785.08 308.0, 784.53 308.67, 783.98 309.33, 783.43 310.0, 782.87 310.67, 782.32 311.33, 781.76 312.0, 781.2 312.67, 780.64 313.33, 780.08 314.0, 779.52 314.67, 778.96 315.33, 778.4 316.0, 777.83 316.67, 777.27 317.33, 776.71 318.0, 776.14 318.67, 775.58 319.33, 775.01 320.0, 774.45 320.67, 773.88 321.33, 773.32 322.0, 772.75 322.67, 772.18 323.33, 771.62 324.0, 771.05 324.67, 770.49 325.33, 769.93 326.0, 769.36 326.67, 768.8 327.33, 768.24 328.0, 767.68 328.67, 767.12 329.33, 766.56 330.0, 766.0 330.67, 765.44 331.33, 764.88 332.0, 764.33 332.67, 763.77 333.33, 763.22 334.0, 762.67 334.67, 762.12 335.33, 761.57 336.0, 761.02 336.67, 760.47 337.33, 759.93 338.0, 759.39 338.67, 758.85 339.33, 758.31 340.0, 757.77 340.67, 757.24 341.33, 756.7 342.0, 756.17 342.67, 755.64 343.33, 755.12 344.0, 754.59 344.67, 754.07 345.33, 753.55 346.0, 753.03 346.67, 752.52 347.33, 752.01 348.0, 751.5 348.67, 750.99 349.33, 750.49 350.0, 749.98 350.67, 749.48 351.33, 748.99 352.0, 748.49 352.67, 748.0 353.33, 747.52 354.0, 747.03 354.67, 746.55 355.33, 746.07 356.0, 745.6 356.67, 745.13 357.33, 744.66 358.0, 744.19 358.67, 743.73 359.33, 743.27 360.0, 742.82 360.67, 742.36 361.33, 741.92 362.0, 741.47 362.67, 741.03 363.33, 740.59 364.0, 740.16 364.67, 739.73 365.33, 739.3 366.0, 738.88 366.67, 738.46 367.33, 738.05 368.0, 737.63 368.67, 737.23 369.33, 736.82 370.0, 736.43 370.67, 736.03 371.33, 735.64 372.0, 735.25 372.67, 734.87 373.33, 734.49 374.0, 734.12 374.67, 733.75 375.33, 733.38 376.0, 733.02 376.67, 732.66 377.33, 732.31 378.0, 731.96 378.67, 731.62 379.33, 731.28 380.0, 730.95 380.67, 730.62 381.33, 730.29 382.0, 729.97 382.67, 729.65 383.33, 729.34 384.0, 729.04 384.67, 728.73 385.33, 728.44 386.0, 728.14 386.67, 727.85 387.33, 727.57 388.0, 727.29 388.67, 727.02 389.33, 726.75 390.0, 726.49 390.67, 726.23 391.33, 725.98 392.0, 725.73 392.67, 725.48 393.33, 725.24 394.0, 725.01 394.67, 724.78 395.33, 724.56 396.0, 724.34 396.67, 724.13 397.33, 723.92 398.0, 723.72 398.67, 723.52 399.33, 723.32 400.0, 723.14 400.67, 722.95 401.33, 722.78 402.0, 722.61 402.67, 722.44 403.33, 722.28 404.0, 722.12 404.67, 721.97 405.33, 721.83 406.0, 721.69 406.67, 721.55 407.33, 721.42 408.0, 721.3 408.67, 721.18 409.33, 721.07 410.0, 720.96 410.67, 720.86 411.33, 720.76 412.0, 720.67 412.67, 720.58 413.33, 720.5 414.0, 720.42 414.67, 720.36 415.33, 720.29 416.0, 720.23 416.67, 720.18 417.33, 720.13 418.0, 720.09 418.67, 720.05 419.33, 720.02 420.0, 719.99 420.67, 719.97 421.33, 719.96 422.0, 719.95 422.67, 719.94 423.33, 719.95 424.0, 719.95 424.67, 719.97 425.33, 719.98 426.0, 720.01 426.67, 720.04 427.33, 720.07 428.0, 720.11 428.67, 720.16 429.33, 720.21 430.0, 720.27 430.67, 720.33 431.33, 720.4 432.0, 720.47 432.67, 720.55 433.33, 720.63 434.0, 720.72 434.67, 720.82 435.33, 720.92 436.0, 721.02 436.67, 721.13 437.33, 721.25 438.0, 721.37 438.67, 721.5 439.33, 721.63 440.0, 721.77 440.67, 721.92 441.33, 722.07 442.0, 722.22 442.67, 722.38 443.33, 722.55 444.0, 722.72 444.67, 722.89 445.33, 723.08 446.0, 723.26 446.67, 723.45 447.33, 723.65 448.0, 723.85 448.67, 724.06 449.33, 724.28 450.0, 724.49 450.67, 724.72 451.33, 724.95 452.0, 725.18 452.67, 725.42 453.33, 725.67 454.0, 725.92 454.67, 726.17 455.33, 726.43 456.0, 726.7 456.67, 726.97 457.33, 727.24 458.0, 727.52 458.67, 727.81 459.33, 728.1 460.0, 728.39 460.67, 728.69 461.33, 729.0 462.0, 729.31 462.67, 729.62 463.33, 729.94 464.0, 730.27 464.67, 730.6 465.33, 730.93 466.0, 731.27 466.67, 731.61 467.33, 731.96 468.0, 732.31 468.67, 732.67 469.33, 733.04 470.0, 733.4 470.67, 733.77 471.33, 734.15 472.0, 734.53 472.67, 734.92 473.33, 735.31 474.0, 735.7 474.67, 736.1 475.33, 736.51 476.0, 736.91 476.67, 737.33 477.33, 737.74 478.0, 738.16 478.67, 738.59 479.33, 739.02 480.0, 739.45 480.67, 739.89 481.33, 740.33 482.0, 740.78 482.67, 741.23 483.33, 741.68 484.0, 742.14 484.67, 742.6 485.33, 743.07 486.0, 743.54 486.67, 744.02 487.33, 744.49 488.0, 744.98 488.67, 745.46 489.33, 745.95 490.0, 746.45 490.67, 746.94 491.33, 747.44 492.0, 747.95 492.67, 748.46 493.33, 748.97 494.0, 749.48 494.67, 750.0 495.33, 750.52 496.0, 751.05 496.67, 751.58 497.33, 752.11 498.0, 752.65 498.67, 753.19 499.33, 753.73 500.0, 754.27 500.67, 754.82 501.33, 755.37 502.0, 755.93 502.67, 756.49 503.33, 757.05 504.0, 757.61 504.67, 758.18 505.33, 758.75 506.0, 759.32 506.67, 759.9 507.33, 760.48 508.0, 761.06 508.67, 761.64 509.33, 762.23 510.0, 762.82 510.67, 763.41 511.33, 764.0 512.0, 764.6 512.67, 765.2 513.33, 765.8 514.0, 766.4 514.67, 767.01 515.33, 767.62 516.0, 768.23 516.67, 768.84 517.33, 769.46 518.0, 770.07 518.67, 770.69 519.33, 771.31 520.0, 771.94 520.67, 772.56 521.33, 773.19 522.0, 773.82 522.67, 774.45 523.33, 775.08 524.0, 775.72 524.67, 776.35 525.33, 776.99 526.0, 777.63 526.67, 778.27 527.33, 778.91 528.0, 779.56 528.67, 780.2 529.33, 780.85 530.0, 781.5 530.67, 782.15 531.33, 782.8 532.0, 783.45 532.67, 784.1 533.33, 784.75 534.0, 785.41 534.67, 786.07 535.33, 786.72 536.0, 787.38 536.67, 788.04 537.33, 788.7 538.0, 789.36 538.67, 790.02 539.33, 790.68 540.0, 791.34 540.67, 792.01 541.33, 792.67 542.0, 793.34 542.67, 794.0 543.33, 794.66 544.0, 795.33 544.67, 796.0 545.33, 796.66 546.0, 797.33 546.67, 797.99 547.33, 798.66 548.0, 799.33 548.67, 799.99 549.33, 800.66 550.0, 801.33 550.67, 801.99 551.33, 802.66 552.0, 803.33 552.67, 803.99 553.33, 804.66 554.0, 805.32 554.67, 805.99 555.33, 806.65 556.0, 807.32 556.67, 807.98 557.33, 808.64 558.0, 809.31 558.67, 809.97 559.33, 810.63 560.0, 811.29 560.67, 811.95 561.33, 812.61 562.0, 813.27 562.67, 813.92 563.33, 814.58 564.0, 815.23 564.67, 815.89 565.33, 816.54 566.0, 817.19 566.67, 817.84 567.33, 818.49 568.0, 819.14 568.67, 819.79 569.33, 820.43 570.0, 821.08 570.67, 821.72 571.33, 822.36 572.0, 823.0 572.67, 823.64 573.33, 824.27 574.0, 824.91 574.67, 825.54 575.33, 826.17 576.0, 826.8 576.67, 827.43 577.33, 828.05 578.0, 828.67 578.67, 829.3 579.33, 829.92 580.0, 830.53 580.67, 831.15 581.33, 831.76 582.0, 832.37 582.67, 832.98 583.33, 833.59 584.0, 834.19 584.67, 834.79 585.33, 835.39 586.0, 835.99 586.67, 836.58 587.33, 837.17 588.0, 837.76 588.67, 838.35 589.33, 838.93 590.0, 839.51 590.67, 840.09 591.33, 840.67 592.0, 841.24 592.67, 841.81 593.33, 842.38 594.0, 842.94 594.67, 843.5 595.33, 844.06 596.0, 844.61 596.67, 845.17 597.33, 845.72 598.0, 846.26 598.67, 846.8 599.33, 847.34 600.0, 847.88 600.67, 848.41 601.33, 848.94 602.0, 849.46 602.67, 849.99 603.33, 850.51 604.0, 851.02 604.67, 851.53 605.33, 852.04 606.0, 852.55 606.67, 853.05 607.33, 853.54 608.0, 854.04 608.67, 854.53 609.33, 855.01 610.0, 855.49 610.67, 855.97 611.33, 856.45 612.0, 856.92 612.67, 857.38 613.33, 857.85 614.0, 858.31 614.67, 858.76 615.33, 859.21 616.0, 859.66 616.67, 860.1 617.33, 860.54 618.0, 860.97 618.67, 861.4 619.33, 861.82 620.0, 862.25 620.67, 862.66 621.33, 863.07 622.0, 863.48 622.67, 863.89 623.33, 864.29 624.0, 864.68 624.67, 865.07 625.33, 865.46 626.0, 865.84 626.67, 866.21 627.33, 866.58 628.0, 866.95 628.67, 867.31 629.33, 867.67 630.0, 868.03 630.67, 868.37 631.33, 868.72 632.0, 869.06 632.67, 869.39 633.33, 869.72 634.0, 870.04 634.67, 870.36 635.33, 870.68 636.0, 870.99 636.67, 871.29 637.33, 871.59 638.0, 871.89 638.67, 872.18 639.33, 872.46 640.0, 872.74 640.67, 873.02 641.33, 873.29 642.0, 873.55 642.67, 873.81 643.33, 874.07 644.0, 874.32 644.67, 874.56 645.33, 874.8 646.0, 875.03 646.67, 875.26 647.33, 875.49 648.0, 875.7 648.67, 875.92 649.33, 876.12 650.0, 876.33 650.67, 876.52 651.33, 876.72 652.0, 876.9 652.67, 877.08 653.33, 877.26 654.0, 877.43 654.67, 877.59 655.33, 877.75 656.0, 877.91 656.67, 878.06 657.33, 878.2 658.0, 878.34 658.67, 878.47 659.33, 878.6 660.0, 878.72 660.67, 878.83 661.33, 878.95 662.0, 879.05 662.67, 879.15 663.33, 879.24 664.0, 879.33 664.67, 879.42 665.33, 879.49 666.0, 879.57 666.67, 879.63 667.33, 879.69 668.0, 879.75 668.67, 879.8 669.33, 879.84 670.0, 879.88 670.67, 879.92 671.33, 879.94 672.0, 879.97 672.67, 879.98 673.33, 879.99 674.0, 880.0 674.67, 880.0 675.33, 879.99 676.0, 879.98 676.67, 879.97 677.33, 879.94 678.0, 879.92 678.67, 879.88 679.33, 879.84 680.0, 879.8 680.67, 879.75 681.33, 879.69 682.0, 879.63 682.67, 879.57 683.33, 879.49 684.0, 879.42 684.67, 879.33 685.33, 879.25 686.0, 879.15 686.67, 879.05 687.33, 878.95 688.0, 878.84 688.67, 878.72 689.33, 878.6 690.0, 878.47 690.67, 878.34 691.33, 878.2 692.0, 878.06 692.67, 877.91 693.33, 877.76 694.0, 877.6 694.67, 877.43 695.33, 877.26 696.0, 877.08 696.67, 876.9 697.33, 876.72 698.0, 876.53 698.67, 876.33 699.33, 876.13 700.0, 875.92 700.67, 875.71 701.33, 875.49 702.0, 875.26 702.67, 875.04 703.33, 874.8 704.0, 874.56 704.67, 874.32 705.33, 874.07 706.0, 873.82 706.67, 873.56 707.33, 873.29 708.0, 873.02 708.67, 872.75 709.33, 872.47 710.0, 872.18 710.67, 871.89 711.33, 871.6 712.0, 871.3 712.67, 870.99 713.33, 870.68 714.0, 870.37 714.67, 870.05 715.33, 869.72 716.0, 869.39 716.67, 869.06 717.33, 868.72 718.0, 868.38 718.67, 868.03 719.33, 867.68 720.0, 867.32 720.67, 866.96 721.33, 866.59 722.0, 866.22 722.67, 865.84 723.33, 865.46 724.0, 865.07 724.67, 864.68 725.33, 864.29 726.0, 863.89 726.67, 863.49 727.33, 863.08 728.0, 862.67 728.67, 862.25 729.33, 861.83 730.0, 861.4 730.67, 860.97 731.33, 860.54 732.0, 860.1 732.67, 859.66 733.33, 859.21 734.0, 858.76 734.67, 858.31 735.33, 857.85 736.0, 857.39 736.67, 856.92 737.33, 856.45 738.0, 855.98 738.67, 855.5 739.33, 855.02 740.0, 854.53 740.67, 854.04 741.33, 853.55 742.0, 853.05 742.67, 852.55 743.33, 852.05 744.0, 851.54 744.67, 851.03 745.33, 850.51 746.0, 849.99 746.67, 849.47 747.33, 848.94 748.0, 848.41 748.67, 847.88 749.33, 847.35 750.0, 846.81 750.67, 846.27 751.33, 845.72 752.0, 845.17 752.67, 844.62 753.33, 844.06 754.0, 843.51 754.67, 842.95 755.33, 842.38 756.0, 841.81 756.67, 841.25 757.33, 840.67 758.0, 840.1 758.67, 839.52 759.33, 838.94 760.0, 838.35 760.67, 837.77 761.33, 837.18 762.0, 836.59 762.67, 835.99 763.33, 835.4 764.0, 834.8 764.67, 834.2 765.33, 833.59 766.0, 832.99 766.67, 832.38 767.33, 831.77 768.0, 831.15 768.67, 830.54 769.33, 829.92 770.0, 829.3 770.67, 828.68 771.33, 828.06 772.0, 827.43 772.67, 826.8 773.33, 826.18 774.0, 825.54 774.67, 824.91 775.33, 824.28 776.0, 823.64 776.67, 823.0 777.33, 822.36 778.0, 821.72 778.67, 821.08 779.33, 820.44 780.0, 819.79 780.67, 819.15 781.33, 818.5 782.0, 817.85 782.67, 817.2 783.33, 816.55 784.0, 815.89 784.67, 815.24 785.33, 814.58 786.0, 813.93 786.67, 813.27 787.33, 812.61 788.0, 811.96 788.67, 811.3 789.33, 810.64 790.0, 809.97 790.67, 809.31 791.33, 808.65 792.0, 807.99 792.67, 807.32 793.33, 806.66 794.0, 805.99 794.67, 805.33 795.33, 804.66 796.0, 804.0 796.67, 803.33 797.33, 802.67 798.0, 802.0 798.67, 801.33 799.33, 800.67 800.0, 800.0 800.67, 799.33 801.33, 798.67 802.0, 798.0 802.67, 797.33 803.33, 796.67 804.0, 796.0 804.67, 795.34 805.33, 794.67 806.0, 794.01 806.67, 793.34 807.33, 792.68 808.0, 792.01 808.67, 791.35 809.33, 790.69 810.0, 790.03 810.67, 789.36 811.33, 788.7 812.0, 788.04 812.67, 787.39 813.33, 786.73 814.0, 786.07 814.67, 785.42 815.33, 784.76 816.0, 784.11 816.67, 783.45 817.33, 782.8 818.0, 782.15 818.67, 781.5 819.33, 780.85 820.0, 780.21 820.67, 779.56 821.33, 778.92 822.0, 778.28 822.67, 777.64 823.33, 777.0 824.0, 776.36 824.67, 775.72 825.33, 775.09 826.0, 774.46 826.67, 773.82 827.33, 773.2 828.0, 772.57 828.67, 771.94 829.33, 771.32 830.0, 770.7 830.67, 770.08 831.33, 769.46 832.0, 768.85 832.67, 768.23 833.33, 767.62 834.0, 767.01 834.67, 766.41 835.33, 765.8 836.0, 765.2 836.67, 764.6 837.33, 764.01 838.0, 763.41 838.67, 762.82 839.33, 762.23 840.0, 761.65 840.67, 761.06 841.33, 760.48 842.0, 759.9 842.67, 759.33 843.33, 758.75 844.0, 758.19 844.67, 757.62 845.33, 757.05 846.0, 756.49 846.67, 755.94 847.33, 755.38 848.0, 754.83 848.67, 754.28 849.33, 753.73 850.0, 753.19 850.67, 752.65 851.33, 752.12 852.0, 751.59 852.67, 751.06 853.33, 750.53 854.0, 750.01 854.67, 749.49 855.33, 748.97 856.0, 748.46 856.67, 747.95 857.33, 747.45 858.0, 746.95 858.67, 746.45 859.33, 745.96 860.0, 745.47 860.67, 744.98 861.33, 744.5 862.0, 744.02 862.67, 743.55 863.33, 743.08 864.0, 742.61 864.67, 742.15 865.33, 741.69 866.0, 741.24 866.67, 740.79 867.33, 740.34 868.0, 739.9 868.67, 739.46 869.33, 739.03 870.0, 738.6 870.67, 738.17 871.33, 737.75 872.0, 737.33 872.67, 736.92 873.33, 736.51 874.0, 736.11 874.67, 735.71 875.33, 735.32 876.0, 734.93 876.67, 734.54 877.33, 734.16 878.0, 733.78 878.67, 733.41 879.33, 733.04 880.0, 732.68 880.67, 732.32 881.33, 731.97 882.0, 731.62 882.67, 731.28 883.33, 730.94 884.0, 730.61 884.67, 730.28 885.33, 729.95 886.0, 729.63 886.67, 729.32 887.33, 729.01 888.0, 728.7 888.67, 728.4 889.33, 728.11 890.0, 727.82 890.67, 727.53 891.33, 727.25 892.0, 726.98 892.67, 726.71 893.33, 726.44 894.0, 726.18 894.67, 725.93 895.33, 725.68 896.0, 725.44 896.67, 725.2 897.33, 724.96 898.0, 724.74 898.67, 724.51 899.33, 724.29 900.0, 724.08 900.67, 723.87 901.33, 723.67 902.0, 723.47 902.67, 723.28 903.33, 723.1 904.0, 722.92 904.67, 722.74 905.33, 722.57 906.0, 722.4 906.67, 722.24 907.33, 722.09 908.0, 721.94 908.67, 721.8 909.33, 721.66 910.0, 721.53 910.67, 721.4 911.33, 721.28 912.0, 721.16 912.67, 721.05 913.33, 720.95 914.0, 720.85 914.67, 720.75 915.33, 720.67 916.0, 720.58 916.67, 720.51 917.33, 720.43 918.0, 720.37 918.67, 720.31 919.33, 720.25 920.0, 720.2 920.67, 720.16 921.33, 720.12 922.0, 720.08 922.67, 720.06 923.33, 720.03 924.0, 720.02 924.67, 720.01 925.33, 720.0 926.0, 720.0 926.67, 720.01 927.33, 720.02 928.0, 720.03 928.67, 720.06 929.33, 720.08 930.0, 720.12 930.67, 720.16 931.33, 720.2 932.0, 720.25 932.67, 720.31 933.33, 720.37 934.0, 720.43 934.67, 720.51 935.33, 720.58 936.0, 720.67 936.67, 720.76 937.33, 720.85 938.0, 720.95 938.67, 721.05 939.33, 721.17 940.0, 721.28 940.67, 721.4 941.33, 721.53 942.0, 721.66 942.67, 721.8 943.33, 721.94 944.0, 722.09 944.67, 722.25 945.33, 722.41 946.0, 722.57 946.67, 722.74 947.33, 722.92 948.0, 723.1 948.67, 723.28 949.33, 723.48 950.0, 723.67 950.67, 723.88 951.33, 724.08 952.0, 724.3 952.67, 724.51 953.33, 724.74 954.0, 724.97 954.67, 725.2 955.33, 725.44 956.0, 725.68 956.67, 725.93 957.33, 726.19 958.0, 726.45 958.67, 726.71 959.33, 726.98 960.0, 727.26 960.67, 727.54 961.33, 727.82 962.0, 728.11 962.67, 728.41 963.33, 728.71 964.0, 729.01 964.67, 729.32 965.33, 729.64 966.0, 729.96 966.67, 730.28 967.33, 730.61 968.0, 730.94 968.67, 731.28 969.33, 731.63 970.0, 731.97 970.67, 732.33 971.33, 732.69 972.0, 733.05 972.67, 733.42 973.33, 733.79 974.0, 734.16 974.67, 734.54 975.33, 734.93 976.0, 735.32 976.67, 735.71 977.33, 736.11 978.0, 736.52 978.67, 736.93 979.33, 737.34 980.0, 737.75 980.67, 738.18 981.33, 738.6 982.0, 739.03 982.67, 739.46 983.33, 739.9 984.0, 740.34 984.67, 740.79 985.33, 741.24 986.0, 741.69 986.67, 742.15 987.33, 742.62 988.0, 743.08 988.67, 743.55 989.33, 744.03 990.0, 744.51 990.67, 744.99 991.33, 745.47 992.0, 745.96 992.67, 746.46 993.33, 746.95 994.0, 747.45 994.67, 747.96 995.33, 748.47 996.0, 748.98 996.67, 749.49 997.33, 750.01 998.0, 750.54 998.67, 751.06 999.33, 751.59 1000.0, 752.12 1000.67, 752.66 1001.33, 753.2 1002.0, 753.74 1002.67, 754.28 1003.33, 754.83 1004.0, 755.39 1004.67, 755.94 1005.33, 756.5 1006.0, 757.06 1006.67, 757.62 1007.33, 758.19 1008.0, 758.76 1008.67, 759.33 1009.33, 759.91 1010.0, 760.49 1010.67, 761.07 1011.33, 761.65 1012.0, 762.24 1012.67, 762.83 1013.33, 763.42 1014.0, 764.01 1014.67, 764.61 1015.33, 765.21 1016.0, 765.81 1016.67, 766.41 1017.33, 767.02 1018.0, 767.63 1018.67, 768.24 1019.33, 768.85 1020.0, 769.47 1020.67, 770.08 1021.33, 770.7 1022.0, 771.33 1022.67, 771.95 1023.33, 772.57 1024.0, 773.2 1024.67, 773.83 1025.33, 774.46 1026.0, 775.09 1026.67, 775.73 1027.33, 776.36 1028.0, 777.0 1028.67, 777.64 1029.33, 778.28 1030.0, 778.92 1030.67, 779.57 1031.33, 780.21 1032.0, 780.86 1032.67, 781.51 1033.33, 782.16 1034.0, 782.81 1034.67, 783.46 1035.33, 784.11 1036.0, 784.77 1036.67, 785.42 1037.33, 786.08 1038.0, 786.73 1038.67, 787.39 1039.33, 788.05 1040.0, 788.71 1040.67, 789.37 1041.33, 790.03 1042.0, 790.69 1042.67, 791.36 1043.33, 792.02 1044.0, 792.68 1044.67, 793.35 1045.33, 794.01 1046.0, 794.68 1046.67, 795.34 1047.33, 796.01 1048.0, 796.67 1048.67, 797.34 1049.33, 798.01 1050.0, 798.67 1050.67, 799.34 1051.33, 800.01 1052.0, 800.67 1052.67, 801.34 1053.33, 802.01 1054.0, 802.67 1054.67, 803.34 1055.33, 804.0 1056.0, 804.67 1056.67, 805.34 1057.33, 806.0 1058.0, 806.66 1058.67, 807.33 1059.33, 807.99 1060.0, 808.66 1060.67, 809.32 1061.33, 809.98 1062.0, 810.64 1062.67, 811.3 1063.33, 811.96 1064.0, 812.62 1064.67, 813.28 1065.33, 813.93 1066.0, 814.59 1066.67, 815.25 1067.33, 815.9 1068.0, 816.55 1068.67, 817.2 1069.33, 817.85 1070.0, 818.5 1070.67, 819.15 1071.33, 819.8 1072.0, 820.44 1072.67, 821.09 1073.33, 821.73 1074.0, 822.37 1074.67, 823.01 1075.33, 823.65 1076.0, 824.28 1076.67, 824.92 1077.33, 825.55 1078.0, 826.18 1078.67, 826.81 1079.33, 827.44 1080.0, 828.06 1080.67, 828.69 1081.33, 829.31 1082.0, 829.93 1082.67, 830.54 1083.33, 831.16 1084.0, 831.77 1084.67, 832.38 1085.33, 832.99 1086.0, 833.6 1086.67, 834.2 1087.33, 834.8 1088.0, 835.4 1088.67, 836.0 1089.33, 836.59 1090.0, 837.18 1090.67, 837.77 1091.33, 838.36 1092.0, 838.94 1092.67, 839.52 1093.33, 840.1 1094.0, 840.68 1094.67, 841.25 1095.33, 841.82 1096.0, 842.39 1096.67, 842.95 1097.33, 843.51 1098.0, 844.07 1098.67, 844.63 1099.33, 845.18 1100.0, 845.73 1100.67, 846.27 1101.33, 846.81 1102.0, 847.35 1102.67, 847.89 1103.33, 848.42 1104.0, 848.95 1104.67, 849.48 1105.33, 850.0 1106.0, 850.52 1106.67, 851.03 1107.33, 851.54 1108.0, 852.05 1108.67, 852.56 1109.33, 853.06 1110.0, 853.55 1110.67, 854.05 1111.33, 854.54 1112.0, 855.02 1112.67, 855.51 1113.33, 855.98 1114.0, 856.46 1114.67, 856.93 1115.33, 857.4 1116.0, 857.86 1116.67, 858.32 1117.33, 858.77 1118.0, 859.22 1118.67, 859.67 1119.33, 860.11 1120.0, 860.55 1120.67, 860.98 1121.33, 861.41 1122.0, 861.84 1122.67, 862.26 1123.33, 862.67 1124.0, 863.09 1124.67, 863.49 1125.33, 863.9 1126.0, 864.3 1126.67, 864.69 1127.33, 865.08 1128.0, 865.47 1128.67, 865.85 1129.33, 866.23 1130.0, 866.6 1130.67, 866.96 1131.33, 867.33 1132.0, 867.69 1132.67, 868.04 1133.33, 868.39 1134.0, 868.73 1134.67, 869.07 1135.33, 869.4 1136.0, 869.73 1136.67, 870.06 1137.33, 870.38 1138.0, 870.69 1138.67, 871.0 1139.33, 871.31 1140.0, 871.61 1140.67, 871.9 1141.33, 872.19 1142.0, 872.48 1142.67, 872.76 1143.33, 873.03 1144.0, 873.3 1144.67, 873.57 1145.33, 873.83 1146.0, 874.08 1146.67, 874.33 1147.33, 874.58 1148.0, 874.82 1148.67, 875.05 1149.33, 875.28 1150.0, 875.51 1150.67, 875.72 1151.33, 875.94 1152.0, 876.15 1152.67, 876.35 1153.33, 876.55 1154.0, 876.74 1154.67, 876.92 1155.33, 877.11 1156.0, 877.28 1156.67, 877.45 1157.33, 877.62 1158.0, 877.78 1158.67, 877.93 1159.33, 878.08 1160.0, 878.23 1160.67, 878.37 1161.33, 878.5 1162.0, 878.63 1162.67, 878.75 1163.33, 878.87 1164.0, 878.98 1164.67, 879.08 1165.33, 879.18 1166.0, 879.28 1166.67, 879.37 1167.33, 879.45 1168.0, 879.53 1168.67, 879.6 1169.33, 879.67 1170.0, 879.73 1170.67, 879.79 1171.33, 879.84 1172.0, 879.89 1172.67, 879.93 1173.33, 879.96 1174.0, 879.99 1174.67, 880.02 1175.33, 880.03 1176.0, 880.05 1176.67, 880.05 1177.33, 880.06 1178.0, 880.05 1178.67, 880.04 1179.33, 880.03 1180.0, 880.01 1180.67, 879.98 1181.33, 879.95 1182.0, 879.91 1182.67, 879.87 1183.33, 879.82 1184.0, 879.77 1184.67, 879.71 1185.33, 879.64 1186.0, 879.58 1186.67, 879.5 1187.33, 879.42 1188.0, 879.33 1188.67, 879.24 1189.33, 879.14 1190.0, 879.04 1190.67, 878.93 1191.33, 878.82 1192.0, 878.7 1192.67, 878.58 1193.33, 878.45 1194.0, 878.31 1194.67, 878.17 1195.33, 878.03 1196.0, 877.88 1196.67, 877.72 1197.33, 877.56 1198.0, 877.39 1198.67, 877.22 1199.33, 877.05 1200.0, 876.86 1200.67, 876.68 1201.33, 876.48 1202.0, 876.28 1202.67, 876.08 1203.33, 875.87 1204.0, 875.66 1204.67, 875.44 1205.33, 875.22 1206.0, 874.99 1206.67, 874.76 1207.33, 874.52 1208.0, 874.27 1208.67, 874.02 1209.33, 873.77 1210.0, 873.51 1210.67, 873.25 1211.33, 872.98 1212.0, 872.71 1212.67, 872.43 1213.33, 872.15 1214.0, 871.86 1214.67, 871.56 1215.33, 871.27 1216.0, 870.96 1216.67, 870.66 1217.33, 870.35 1218.0, 870.03 1218.67, 869.71 1219.33, 869.38 1220.0, 869.05 1220.67, 868.72 1221.33, 868.38 1222.0, 868.04 1222.67, 867.69 1223.33, 867.34 1224.0, 866.98 1224.67, 866.62 1225.33, 866.25 1226.0, 865.88 1226.67, 865.51 1227.33, 865.13 1228.0, 864.75 1228.67, 864.36 1229.33, 863.97 1230.0, 863.57 1230.67, 863.18 1231.33, 862.77 1232.0, 862.37 1232.67, 861.95 1233.33, 861.54 1234.0, 861.12 1234.67, 860.7 1235.33, 860.27 1236.0, 859.84 1236.67, 859.41 1237.33, 858.97 1238.0, 858.53 1238.67, 858.08 1239.33, 857.64 1240.0, 857.18 1240.67, 856.73 1241.33, 856.27 1242.0, 855.81 1242.67, 855.34 1243.33, 854.87 1244.0, 854.4 1244.67, 853.93 1245.33, 853.45 1246.0, 852.97 1246.67, 852.48 1247.33, 852.0 1248.0, 851.51 1248.67, 851.01 1249.33, 850.52 1250.0, 850.02 1250.67, 849.51 1251.33, 849.01 1252.0, 848.5 1252.67, 847.99 1253.33, 847.48 1254.0, 846.97 1254.67, 846.45 1255.33, 845.93 1256.0, 845.41 1256.67, 844.88 1257.33, 844.36 1258.0, 843.83 1258.67, 843.3 1259.33, 842.76 1260.0, 842.23 1260.67, 841.69 1261.33, 841.15 1262.0, 840.61 1262.67, 840.07 1263.33, 839.53 1264.0, 838.98 1264.67, 838.43 1265.33, 837.88 1266.0, 837.33 1266.67, 836.78 1267.33, 836.23 1268.0, 835.67 1268.67, 835.12 1269.33, 834.56 1270.0, 834.0 1270.67, 833.44 1271.33, 832.88 1272.0, 832.32 1272.67, 831.76 1273.33, 831.2 1274.0, 830.64 1274.67, 830.07 1275.33, 829.51 1276.0, 828.95 1276.67, 828.38 1277.33, 827.82 1278.0, 827.25 1278.67, 826.68 1279.33, 826.12 1280.0, 825.55 1280.67, 824.99 1281.33, 824.42 1282.0, 823.86 1282.67, 823.29 1283.33, 822.73 1284.0, 822.17 1284.67, 821.6 1285.33, 821.04 1286.0, 820.48 1286.67, 819.92 1287.33, 819.36 1288.0, 818.8 1288.67, 818.24 1289.33, 817.68 1290.0, 817.13 1290.67, 816.57 1291.33, 816.02 1292.0, 815.47 1292.67, 814.92 1293.33, 814.37 1294.0, 813.82 1294.67, 813.28 1295.33, 812.74 1296.0, 812.2 1296.67, 811.66 1297.33, 811.12 1298.0, 810.59 1298.67, 810.06 1299.33, 809.53 1300.0, 809.0 1300.67, 808.48 1301.33, 807.96 1302.0, 807.44 1302.67, 806.93 1303.33, 806.42 1304.0, 805.91 1304.67, 805.41 1305.33, 804.91 1306.0, 804.41 1306.67, 803.92 1307.33, 803.43 1308.0, 802.94 1308.67, 802.46 1309.33, 801.99 1310.0, 801.51 1310.67, 801.05 1311.33, 800.58 1312.0, 800.13 1312.67, 799.67 1313.33, 799.22 1314.0, 798.78 1314.67, 798.34 1315.33, 797.91 1316.0, 797.48 1316.67, 797.06 1317.33, 796.64 1318.0, 796.24 1318.67, 795.83 1319.33, 795.43 1320.0, 795.04 1320.67, 794.66 1321.33, 794.28 1322.0, 793.91 1322.67, 793.54 1323.33, 793.19 1324.0, 792.84 1324.67, 792.5 1325.33, 792.16 1326.0, 791.83 1326.67, 791.51 1327.33, 791.2 1328.0, 790.9 1328.67, 790.61 1329.33, 790.32 1330.0, 790.04 1330.67, 789.77 1331.33, 789.51 1332.0, 789.26 1332.67, 789.02 1333.33, 788.79 1334.0, 788.57 1334.67, 788.36 1335.33, 788.16 1336.0, 787.97 1336.67, 787.78 1337.33, 787.62 1338.0, 787.46 1338.67, 787.31 1339.33, 787.17 1340.0, 787.05 1340.67, 786.93 1341.33, 786.83 1342.0, 786.74 1342.67, 786.67 1343.33, 786.6 1344.0, 786.55 1344.67, 786.51 1345.33, 786.49 1346.0, 786.48 1346.67, 786.48 1347.33, 786.5 1348.0, 786.53 1348.67, 786.57 1349.33, 786.63 1350.0, 786.7 1350.67, 786.79 1351.33, 786.9 1352.0, 787.02 1352.67, 787.16 1353.33, 787.31 1354.0, 787.48 1354.67, 787.67 1355.33, 787.87 1356.0, 788.09 1356.67, 788.33 1357.33, 788.58 1358.0, 788.86 1358.67, 789.15 1359.33, 789.46 1360.0, 789.79 1360.67, 790.14 1361.33, 790.51 1362.0, 790.9 1362.67, 791.31 1363.33, 791.74 1364.0, 792.2 1364.67, 792.67 1365.33, 793.16 1366.0, 793.68 1366.67, 794.22 1367.33, 794.78 1368.0, 795.37 1368.67, 795.97 1369.33, 796.61 1370.0, 797.26 1370.67, 797.94 1371.33, 798.65 1372.0, 799.38 1372.67, 800.14 1373.33, 800.92 1374.0, 801.73 1374.67, 802.57 1375.33, 803.43 1376.0, 804.32 1376.67, 805.24 1377.33, 806.19 1378.0, 807.17 1378.67, 808.17 1379.33, 809.21 1380.0, 810.28 1380.67, 811.37 1381.33, 812.5 1382.0, 813.66 1382.67, 814.86 1383.33, 816.08 1384.0, 817.34 1384.67, 818.64 1385.33, 819.97 1386.0, 821.33 1386.67, 822.73 1387.33, 824.16 1388.0, 825.63 1388.67, 827.14 1389.33, 828.68 1390.0, 830.27 1390.67, 831.89 1391.33, 833.55 1392.0, 835.25 1392.67, 836.99 1393.33, 838.77 1394.0, 840.6 1394.67, 842.46 1395.33, 844.37 1396.0, 846.33 1396.67, 848.33 1397.33, 850.37 1398.0, 852.46 1398.67, 854.59 1399.33, 856.77 1400.0, 859.0 1400.67, 861.28 1401.33, 863.6 1402.0, 865.98 1402.67, 868.41 1403.33, 870.89 1404.0, 873.42 1404.67, 876.0 1405.33, 878.64 1406.0, 881.33 1406.67, 884.08 1407.33, 886.88 1408.0, 889.74 1408.67, 892.66 1409.33, 895.63 1410.0, 898.67 1410.67, 901.76 1411.33, 904.92 1412.0, 908.14 1412.67, 911.42 1413.33, 914.77 1414.0, 918.18 1414.67, 921.66 1415.33, 925.2 1416.0, 928.81 1416.67, 932.5 1417.33, 936.25 1418.0, 940.07 1418.67, 943.96 1419.33, 947.93 1420.0, 951.97 1420.67, 956.09 1421.33, 960.28 1422.0, 964.55 1422.67, 968.9 1423.33, 973.33 1424.0, 977.84 1424.67, 982.43 1425.33, 987.1 1426.0, 991.86 1426.67, 996.71 1427.33, 1001.64 1428.0, 1006.66 1428.67, 1011.77 1429.33, 1016.97 1430.0, 1022.26 1430.67, 1027.65 1431.33, 1033.13 1432.0, 1038.71 1432.67, 1044.38 1433.33, 1050.16 1434.0, 1056.03 1434.67, 1062.01 1435.33, 1068.09 1436.0, 1074.28 1436.67, 1080.57 1437.33, 1086.97 1438.0, 1093.48 1438.67, 1100.1 1439.33, 1106.83 1440.0, 1113.68 1440.67, 1120.65 1441.33, 1127.73 1442.0, 1134.93 1442.67, 1142.25 1443.33, 1149.7 1444.0, 1157.27 1444.67, 1164.97 1445.33, 1172.79 1446.0, 1180.75 1446.67, 1188.84 1447.33, 1197.06 1448.0, 1205.42 1448.67, 1213.92 1449.33, 1222.55 1450.0, 1231.33 1450.67, 1240.25 1451.33, 1249.32 1452.0, 1258.54 1452.67, 1267.91 1453.33, 1277.43 1454.0, 1287.1 1454.67, 1296.93 1455.33, 1306.92 1456.0, 1317.07 1456.67, 1327.39 1457.33, 1337.87 1458.0, 1348.52 1458.67, 1359.34 1459.33, 1370.33 1460.0, 1381.5 1460.67, 1392.85 1461.33, 1404.38 1462.0, 1416.09 1462.67, 1427.99 1463.33, 1440.08 1464.0, 1452.35 1464.67, 1464.83 1465.33, 1477.49 1466.0, 1490.36 1466.67, 1503.43 1467.33, 1516.71 1468.0, 1530.19 1468.67, 1543.89 1469.33, 1557.8 1470.0, 1571.92 1470.67, 1586.27 1471.33, 1600.84 1472.0, 1615.64 1472.67, 1630.66 1473.33, 1645.92 1474.0, 1661.42 1474.67, 1677.15 1475.33, 1693.13 1476.0, 1709.35 1476.67, 1725.83 1477.33, 1742.55 1478.0, 1759.54 1478.67, 1776.78 1479.33, 1794.29 1480.0, 1812.07 1480.67, 1830.11 1481.33, 1848.44 1482.0, 1867.04 1482.67, 1885.92 1483.33, 1905.09 1484.0, 1924.56 1484.67, 1944.31 1485.33, 1964.37 1486.0, 1984.73 1486.67, 2005.4 1487.33, 2026.38 1488.0, 2047.67 1488.67, 2069.29 1489.33, 2091.23 1490.0, 2113.5 1490.67, 2136.1 1491.33, 2159.05 1492.0, 2182.33 1492.67, 2205.97 1493.33, 2229.95 1494.0, 2254.3 1494.67, 2279.01 1495.33, 2304.08 1496.0, 2329.53 1496.67, 2355.35 1497.33, 2381.56 1498.0, 2408.16 1498.67, 2435.15 1499.33, 2462.54 1500.0, 2490.33 1500.67, 2518.54 1501.33, 2547.16 1502.0, 2576.2 1502.67, 2605.66 1503.33, 2635.56 1504.0, 2665.9 1504.67, 2696.69 1505.33, 2727.92 1506.0, 2759.61 1506.67, 2791.77 1507.33, 2824.39 1508.0, 2857.49 1508.67, 2891.07 1509.33, 2925.14 1510.0, 2959.71 1510.67, 2994.78 1511.33, 3030.35 1512.0, 3066.44 1512.67, 3103.06 1513.33, 3140.2 1514.0, 3177.89 1514.67, 3216.11 1515.33, 3254.89 1516.0, 3294.22 1516.67, 3334.13 1517.33, 3374.6 1518.0, 3415.66 1518.67, 3457.31 1519.33, 3499.55 1520.0, 3542.4 1520.67, 3585.86 1521.33, 3629.95 1522.0, 3674.66 1522.67, 3720.01 1523.33, 3766.01 1524.0, 3812.67 1524.67, 3859.99 1525.33, 3907.98 1526.0, 3956.65 1526.67, 4006.01 1527.33, 4056.08 1528.0, 4106.85 1528.67, 4158.34 1529.33, 4210.56 1530.0, 4263.52 1530.67, 4317.22 1531.33, 4371.68 1532.0, 4426.91 1532.67, 4482.92 1533.33, 4539.71 1534.0, 4597.31 1534.67, 4655.71 1535.33, 4714.93 1536.0, 4774.98 1536.67, 4835.87 1537.33, 4897.61 1538.0, 4960.21 1538.67, 5023.69 1539.33, 5088.05 1540.0, 5153.31 1540.67, 5219.48 1541.33, 5286.57 1542.0, 5354.6 1542.67, 5423.56 1543.33, 5493.49 1544.0, 5564.38 1544.67, 5636.25 1545.33, 5709.12 1546.0, 5783.0 1546.67, 5857.89 1547.33, 5933.82 1548.0, 6010.8 1548.67, 6088.84 1549.33, 6167.95 1550.0, 6248.15 1550.67, 6329.45 1551.33, 6411.87 1552.0, 6495.42 1552.67, 6580.11 1553.33, 6665.96 1554.0, 6752.99 1554.67, 6841.2 1555.33, 6930.62 1556.0, 7021.26 1556.67, 7113.14 1557.33, 7206.26 1558.0, 7300.66 1558.67, 7396.33 1559.33, 7493.31 1560.0, 7591.6 1560.67, 7691.23 1561.33, 7792.2 1562.0, 7894.55 1562.67, 7998.27 1563.33, 8103.4 1564.0, 8209.95 1564.67, 8317.93 1565.33, 8427.37 1566.0, 8538.28 1566.67, 8650.69 1567.33, 8764.61 1568.0, 8880.05 1568.67, 8997.05 1569.33, 9115.61 1570.0, 9235.76 1570.67, 9357.53 1571.33, 9480.91 1572.0, 9605.95 1572.67, 9732.66 1573.33, 9861.06 1574.0, 9991.17 1574.67, 10123.01 1575.33, 10256.6 1576.0, 10391.97 1576.67, 10529.14 1577.33, 10668.13 1578.0, 10808.96 1578.67, 10951.66 1579.33, 11096.25 1580.0, 11242.74 1580.67, 11391.18 1581.33, 11541.57 1582.0, 11693.95 1582.67, 11848.33 1583.33, 12004.75 1584.0, 12163.23 1584.67, 12323.79 1585.33, 12486.46 1586.0, 12651.26 1586.67, 12818.23 1587.33, 12987.38 1588.0, 13158.75 1588.67, 13332.35 1589.33, 13508.23 1590.0, 13686.4 1590.67, 13866.9 1591.33, 14049.75 1592.0, 14234.98 1592.67, 14422.62 1593.33, 14612.7 1594.0, 14805.25 1594.67, 15000.3 1595.33, 15197.88 1596.0, 15398.02 1596.67, 15600.75 1597.33, 15806.1 1598.0, 16014.1 1598.67, 16224.8 1599.33, 16438.21 1600.0, 16654.37 " fill="none" stroke="white" stroke-width="1.5" stroke-linejoin="round" stroke-opacity="1"/>

 </svg>