<svg version="1.1" 
 baseProfile="full" 
 width="1600" 
 height="1600" 
 xmlns="http://www.w3.org/2000/svg">
<rect x="0.0" y="0.0" width="1600" height="1600" fill="black" stroke="black" stroke-width="0" opacity="1"/>
<line x1="0.0" y1="0.0" x2="0.0" y2="1600.0" stroke="white" stroke-width="1" opacity="0.4" stroke-linecap="butt"/>
<line x1="160.0" y1="0.0" x2="160.0" y2="1600.0" stroke="white" stroke-width="1" opacity="0.4" stroke-linecap="butt"/>
<line x1="320.0" y1="0.0" x2="320.0" y2="1600.0" stroke="white" stroke-width="1" opacity="0.4" stroke-linecap="butt"/>
<line x1="480.0" y1="0.0" x2="480.0" y2="1600.0" stroke="white" stroke-width="1" opacity="0.4" stroke-linecap="butt"/>
<line x1="640.0" y1="0.0" x2="640.0" y2="1600.0" stroke="white" stroke-width="1" opacity="0.4" stroke-linecap="butt"/>
<line x1="800.0" y1="0.0" x2="800.0" y2="1600.0" stroke="white" stroke-width="1" opacity="0.4" stroke-linecap="butt"/>
<line x1="960.0" y1="0.0" x2="960.0" y2="1600.0" stroke="white" stroke-width="1" opacity="0.4" stroke-linecap="butt"/>
<line x1="1120.0" y1="0.0" x2="1120.0" y2="1600.0" stroke="white" stroke-width="1" opacity="0.4" stroke-linecap="butt"/>
<line x1="1280.0" y1="0.0" x2="1280.0" y2="1600.0" stroke="white" stroke-width="1" opacity="0.4" stroke-linecap="butt"/>
<line x1="1440.0" y1="0.0" x2="1440.0" y2="1600.0" stroke="white" stroke-width="1" opacity="0.4" stroke-linecap="butt"/>
<line x1="0.0" y1="0.0" x2="1600.0" y2="0.0" stroke="white" stroke-width="1" opacity="0.4" stroke-linecap="butt"/>
<line x1="0.0" y1="160.0" x2="1600.0" y2="160.0" stroke="white" stroke-width="1" opacity="0.4" stroke-linecap="butt"/>
<line x1="0.0" y1="320.0" x2="1600.0" y2="320.0" stroke="white" stroke-width="1" opacity="0.4" stroke-linecap="butt"/>
<line x1="0.0" y1="480.0" x2="1600.0" y2="480.0" stroke="white" stroke-width="1" opacity="0.4" stroke-linecap="butt"/>
<line x1="0.0" y1="640.0" x2="1600.0" y2="640.0" stroke="white" stroke-width="1" opacity="0.4" stroke-linecap="butt"/>
<line x1="0.0" y1="800.0" x2="1600.0" y2="800.0" stroke="white" stroke-width="1" opacity="0.4" stroke-linecap="butt"/>
<line x1="0.0" y1="960.0" x2="1600.0" y2="960.0" stroke="white" stroke-width="1" opacity="0.4" stroke-linecap="butt"/>
<line x1="0.0" y1="1120.0" x2="1600.0" y2="1120.0" stroke="white" stroke-width="1" opacity="0.4" stroke-linecap="butt"/>
<line x1="0.0" y1="1280.0" x2="1600.0" y2="1280.0" stroke="white" stroke-width="1" opacity="0.4" stroke-linecap="butt"/>
<line x1="0.0" y1="1440.0" x2="1600.0" y2="1440.0" stroke="white" stroke-width="1" opacity="0.4" stroke-linecap="butt"/>
<line x1="0.0" y1="800.0" x2="1600.0" y2="800.0" stroke="yellow" stroke-width="2.5" opacity="1" stroke-linecap="butt"/>
<line x1="800.0" y1="0.0" x2="800.0" y2="1600.0" stroke="yellow" stroke-width="2.5" opacity="1" stroke-linecap="butt"/>
<polygon points="1564.0 816.0, 1604.0 800.0, 1564.0 784.0, 1572.0 800.0" fill="yellow"/><polygon points="816.0 36.0, 800.0 -4.0, 784.0 36.0, 800.0 28.0" fill="yellow"/><polyline points="0.0, -15335.51 0.67, -15115.4 1.33, -14898.08 2.0, -14683.54 2.67, -14471.73 3.33, -14262.63 4.0, -14056.2 4.67, -13852.41 5.33, -13651.23 6.0, -13452.62 6.67, -13256.57 7.33, -13063.02 8.0, -12871.97 8.67, -12683.37 9.33, -12497.2 10.0, -12313.42 10.67, -12132.01 11.33, -11952.95 12.0, -11776.19 12.67, -11601.72 13.33, -11429.5 14.0, -11259.51 14.67, -11091.73 15.33, -10926.11 16.0, -10762.65 16.67, -10601.31 17.33, -10442.07 18.0, -10284.9 18.67, -10129.77 19.33, -9976.67 20.0, -9825.56 20.67, -9676.42 21.33, -9529.23 22.0, -9383.97 22.67, -9240.6 23.33, -9099.12 24.0, -8959.49 24.67, -8821.69 25.33, -8685.69 26.0, -8551.49 26.67, -8419.05 27.33, -8288.35 28.0, -8159.38 28.67, -8032.1 29.33, -7906.51 30.0, -7782.57 30.67, -7660.27 31.33, -7539.59 32.0, -7420.51 32.67, -7303.0 33.33, -7187.06 34.0, -7072.65 34.67, -6959.76 35.33, -6848.38 36.0, -6738.47 36.67, -6630.03 37.33, -6523.04 38.0, -6417.47 38.67, -6313.31 39.33, -6210.55 40.0, -6109.16 40.67, -6009.12 41.33, -5910.43 42.0, -5813.06 42.67, -5717.0 43.33, -5622.23 44.0, -5528.73 44.67, -5436.49 45.33, -5345.49 46.0, -5255.72 46.67, -5167.16 47.33, -5079.8 48.0, -4993.61 48.67, -4908.6 49.33, -4824.73 50.0, -4742.0 50.67, -4660.39 51.33, -4579.89 52.0, -4500.49 52.67, -4422.16 53.33, -4344.9 54.0, -4268.69 54.67, -4193.53 55.33, -4119.38 56.0, -4046.25 56.67, -3974.12 57.33, -3902.98 58.0, -3832.81 58.67, -3763.6 59.33, -3695.34 60.0, -3628.02 60.67, -3561.62 61.33, -3496.14 62.0, -3431.56 62.67, -3367.86 63.33, -3305.05 64.0, -3243.1 64.67, -3182.01 65.33, -3121.77 66.0, -3062.35 66.67, -3003.77 67.33, -2945.99 68.0, -2889.01 68.67, -2832.83 69.33, -2777.43 70.0, -2722.8 70.67, -2668.92 71.33, -2615.8 72.0, -2563.43 72.67, -2511.78 73.33, -2460.85 74.0, -2410.64 74.67, -2361.13 75.33, -2312.32 76.0, -2264.18 76.67, -2216.73 77.33, -2169.94 78.0, -2123.81 78.67, -2078.33 79.33, -2033.49 80.0, -1989.29 80.67, -1945.71 81.33, -1902.74 82.0, -1860.38 82.67, -1818.62 83.33, -1777.46 84.0, -1736.87 84.67, -1696.87 85.33, -1657.43 86.0, -1618.56 86.67, -1580.23 87.33, -1542.46 88.0, -1505.22 88.67, -1468.52 89.33, -1432.34 90.0, -1396.67 90.67, -1361.52 91.33, -1326.87 92.0, -1292.72 92.67, -1259.06 93.33, -1225.89 94.0, -1193.19 94.67, -1160.97 95.33, -1129.2 96.0, -1097.9 96.67, -1067.05 97.33, -1036.65 98.0, -1006.68 98.67, -977.16 99.33, -948.05 100.0, -919.38 100.67, -891.12 101.33, -863.27 102.0, -835.83 102.67, -808.78 103.33, -782.14 104.0, -755.88 104.67, -730.0 105.33, -704.51 106.0, -679.39 106.67, -654.64 107.33, -630.25 108.0, -606.22 108.67, -582.55 109.33, -559.22 110.0, -536.24 110.67, -513.6 111.33, -491.3 112.0, -469.32 112.67, -447.67 113.33, -426.34 114.0, -405.33 114.67, -384.63 115.33, -364.25 116.0, -344.16 116.67, -324.38 117.33, -304.89 118.0, -285.69 118.67, -266.78 119.33, -248.16 120.0, -229.81 120.67, -211.74 121.33, -193.94 122.0, -176.42 122.67, -159.15 123.33, -142.15 124.0, -125.4 124.67, -108.91 125.33, -92.67 126.0, -76.68 126.67, -60.93 127.33, -45.42 128.0, -30.15 128.67, -15.11 129.33, -0.3 130.0, 14.28 130.67, 28.64 131.33, 42.78 132.0, 56.7 132.67, 70.4 133.33, 83.89 134.0, 97.18 134.67, 110.26 135.33, 123.13 136.0, 135.81 136.67, 148.29 137.33, 160.57 138.0, 172.66 138.67, 184.57 139.33, 196.28 140.0, 207.82 140.67, 219.17 141.33, 230.34 142.0, 241.34 142.67, 252.16 143.33, 262.81 144.0, 273.29 144.67, 283.61 145.33, 293.76 146.0, 303.75 146.67, 313.59 147.33, 323.26 148.0, 332.78 148.67, 342.15 149.33, 351.36 150.0, 360.43 150.67, 369.35 151.33, 378.13 152.0, 386.76 152.67, 395.26 153.33, 403.61 154.0, 411.83 154.67, 419.92 155.33, 427.87 156.0, 435.69 156.67, 443.39 157.33, 450.95 158.0, 458.39 158.67, 465.71 159.33, 472.91 160.0, 479.99 160.67, 486.95 161.33, 493.79 162.0, 500.52 162.67, 507.13 163.33, 513.64 164.0, 520.03 164.67, 526.32 165.33, 532.5 166.0, 538.57 166.67, 544.54 167.33, 550.41 168.0, 556.18 168.67, 561.85 169.33, 567.42 170.0, 572.89 170.67, 578.27 171.33, 583.56 172.0, 588.75 172.67, 593.85 173.33, 598.87 174.0, 603.79 174.67, 608.63 175.33, 613.38 176.0, 618.05 176.67, 622.63 177.33, 627.13 178.0, 631.55 178.67, 635.89 179.33, 640.15 180.0, 644.34 180.67, 648.45 181.33, 652.48 182.0, 656.44 182.67, 660.32 183.33, 664.14 184.0, 667.88 184.67, 671.55 185.33, 675.16 186.0, 678.69 186.67, 682.16 187.33, 685.56 188.0, 688.9 188.67, 692.17 189.33, 695.39 190.0, 698.53 190.67, 701.62 191.33, 704.65 192.0, 707.62 192.67, 710.52 193.33, 713.37 194.0, 716.17 194.67, 718.91 195.33, 721.59 196.0, 724.22 196.67, 726.79 197.33, 729.31 198.0, 731.78 198.67, 734.2 199.33, 736.57 200.0, 738.89 200.67, 741.15 201.33, 743.37 202.0, 745.55 202.67, 747.67 203.33, 749.75 204.0, 751.79 204.67, 753.77 205.33, 755.72 206.0, 757.62 206.67, 759.48 207.33, 761.29 208.0, 763.07 208.67, 764.8 209.33, 766.49 210.0, 768.15 210.67, 769.76 211.33, 771.33 212.0, 772.87 212.67, 774.37 213.33, 775.83 214.0, 777.26 214.67, 778.65 215.33, 780.0 216.0, 781.32 216.67, 782.61 217.33, 783.86 218.0, 785.08 218.67, 786.26 219.33, 787.41 220.0, 788.54 220.67, 789.63 221.33, 790.69 222.0, 791.71 222.67, 792.71 223.33, 793.68 224.0, 794.62 224.67, 795.54 225.33, 796.42 226.0, 797.28 226.67, 798.1 227.33, 798.91 228.0, 799.68 228.67, 800.43 229.33, 801.16 230.0, 801.85 230.67, 802.53 231.33, 803.18 232.0, 803.8 232.67, 804.4 233.33, 804.98 234.0, 805.54 234.67, 806.07 235.33, 806.58 236.0, 807.07 236.67, 807.53 237.33, 807.98 238.0, 808.4 238.67, 808.81 239.33, 809.19 240.0, 809.55 240.67, 809.9 241.33, 810.22 242.0, 810.53 242.67, 810.81 243.33, 811.08 244.0, 811.33 244.67, 811.56 245.33, 811.78 246.0, 811.98 246.67, 812.16 247.33, 812.32 248.0, 812.47 248.67, 812.6 249.33, 812.71 250.0, 812.81 250.67, 812.9 251.33, 812.97 252.0, 813.02 252.67, 813.06 253.33, 813.09 254.0, 813.1 254.67, 813.1 255.33, 813.08 256.0, 813.05 256.67, 813.01 257.33, 812.95 258.0, 812.88 258.67, 812.8 259.33, 812.71 260.0, 812.6 260.67, 812.48 261.33, 812.35 262.0, 812.21 262.67, 812.06 263.33, 811.9 264.0, 811.72 264.67, 811.54 265.33, 811.34 266.0, 811.14 266.67, 810.92 267.33, 810.7 268.0, 810.46 268.67, 810.22 269.33, 809.97 270.0, 809.7 270.67, 809.43 271.33, 809.15 272.0, 808.86 272.67, 808.56 273.33, 808.26 274.0, 807.94 274.67, 807.62 275.33, 807.29 276.0, 806.95 276.67, 806.61 277.33, 806.25 278.0, 805.89 278.67, 805.53 279.33, 805.15 280.0, 804.77 280.67, 804.38 281.33, 803.99 282.0, 803.59 282.67, 803.19 283.33, 802.77 284.0, 802.36 284.67, 801.93 285.33, 801.5 286.0, 801.07 286.67, 800.63 287.33, 800.18 288.0, 799.73 288.67, 799.28 289.33, 798.82 290.0, 798.35 290.67, 797.88 291.33, 797.41 292.0, 796.93 292.67, 796.45 293.33, 795.96 294.0, 795.47 294.67, 794.98 295.33, 794.48 296.0, 793.98 296.67, 793.47 297.33, 792.97 298.0, 792.45 298.67, 791.94 299.33, 791.42 300.0, 790.9 300.67, 790.38 301.33, 789.85 302.0, 789.32 302.67, 788.79 303.33, 788.26 304.0, 787.72 304.67, 787.18 305.33, 786.64 306.0, 786.1 306.67, 785.55 307.33, 785.01 308.0, 784.46 308.67, 783.91 309.33, 783.36 310.0, 782.81 310.67, 782.25 311.33, 781.7 312.0, 781.14 312.67, 780.58 313.33, 780.02 314.0, 779.46 314.67, 778.9 315.33, 778.34 316.0, 777.78 316.67, 777.22 317.33, 776.65 318.0, 776.09 318.67, 775.53 319.33, 774.96 320.0, 774.4 320.67, 773.83 321.33, 773.27 322.0, 772.71 322.67, 772.14 323.33, 771.58 324.0, 771.01 324.67, 770.45 325.33, 769.89 326.0, 769.32 326.67, 768.76 327.33, 768.2 328.0, 767.64 328.67, 767.08 329.33, 766.52 330.0, 765.96 330.67, 765.41 331.33, 764.85 332.0, 764.3 332.67, 763.74 333.33, 763.19 334.0, 762.64 334.67, 762.09 335.33, 761.54 336.0, 760.99 336.67, 760.45 337.33, 759.91 338.0, 759.36 338.67, 758.82 339.33, 758.29 340.0, 757.75 340.67, 757.21 341.33, 756.68 342.0, 756.15 342.67, 755.62 343.33, 755.1 344.0, 754.57 344.67, 754.05 345.33, 753.53 346.0, 753.02 346.67, 752.5 347.33, 751.99 348.0, 751.48 348.67, 750.97 349.33, 750.47 350.0, 749.97 350.67, 749.47 351.33, 748.97 352.0, 748.48 352.67, 747.99 353.33, 747.5 354.0, 747.02 354.67, 746.54 355.33, 746.06 356.0, 745.58 356.67, 745.11 357.33, 744.64 358.0, 744.18 358.67, 743.72 359.33, 743.26 360.0, 742.8 360.67, 742.35 361.33, 741.9 362.0, 741.46 362.67, 741.02 363.33, 740.58 364.0, 740.15 364.67, 739.72 365.33, 739.29 366.0, 738.87 366.67, 738.45 367.33, 738.04 368.0, 737.63 368.67, 737.22 369.33, 736.82 370.0, 736.42 370.67, 736.02 371.33, 735.63 372.0, 735.25 372.67, 734.86 373.33, 734.49 374.0, 734.11 374.67, 733.74 375.33, 733.38 376.0, 733.02 376.67, 732.66 377.33, 732.31 378.0, 731.96 378.67, 731.61 379.33, 731.28 380.0, 730.94 380.67, 730.61 381.33, 730.29 382.0, 729.97 382.67, 729.65 383.33, 729.34 384.0, 729.03 384.67, 728.73 385.33, 728.43 386.0, 728.14 386.67, 727.85 387.33, 727.57 388.0, 727.29 388.67, 727.02 389.33, 726.75 390.0, 726.48 390.67, 726.23 391.33, 725.97 392.0, 725.72 392.67, 725.48 393.33, 725.24 394.0, 725.01 394.67, 724.78 395.33, 724.56 396.0, 724.34 396.67, 724.12 397.33, 723.92 398.0, 723.71 398.67, 723.52 399.33, 723.32 400.0, 723.13 400.67, 722.95 401.33, 722.78 402.0, 722.6 402.67, 722.44 403.33, 722.28 404.0, 722.12 404.67, 721.97 405.33, 721.82 406.0, 721.68 406.67, 721.55 407.33, 721.42 408.0, 721.3 408.67, 721.18 409.33, 721.06 410.0, 720.96 410.67, 720.85 411.33, 720.76 412.0, 720.67 412.67, 720.58 413.33, 720.5 414.0, 720.42 414.67, 720.35 415.33, 720.29 416.0, 720.23 416.67, 720.18 417.33, 720.13 418.0, 720.09 418.67, 720.05 419.33, 720.02 420.0, 719.99 420.67, 719.97 421.33, 719.96 422.0, 719.95 422.67, 719.94 423.33, 719.95 424.0, 719.95 424.67, 719.97 425.33, 719.98 426.0, 720.01 426.67, 720.04 427.33, 720.07 428.0, 720.11 428.67, 720.16 429.33, 720.21 430.0, 720.26 430.67, 720.33 431.33, 720.39 432.0, 720.47 432.67, 720.55 433.33, 720.63 434.0, 720.72 434.67, 720.82 435.33, 720.92 436.0, 721.02 436.67, 721.13 437.33, 721.25 438.0, 721.37 438.67, 721.5 439.33, 721.63 440.0, 721.77 440.67, 721.92 441.33, 722.07 442.0, 722.22 442.67, 722.38 443.33, 722.55 444.0, 722.72 444.67, 722.89 445.33, 723.07 446.0, 723.26 446.67, 723.45 447.33, 723.65 448.0, 723.85 448.67, 724.06 449.33, 724.28 450.0, 724.49 450.67, 724.72 451.33, 724.95 452.0, 725.18 452.67, 725.42 453.33, 725.67 454.0, 725.92 454.67, 726.17 455.33, 726.43 456.0, 726.69 456.67, 726.96 457.33, 727.24 458.0, 727.52 458.67, 727.81 459.33, 728.1 460.0, 728.39 460.67, 728.69 461.33, 729.0 462.0, 729.31 462.67, 729.62 463.33, 729.94 464.0, 730.27 464.67, 730.6 465.33, 730.93 466.0, 731.27 466.67, 731.61 467.33, 731.96 468.0, 732.31 468.67, 732.67 469.33, 733.04 470.0, 733.4 470.67, 733.77 471.33, 734.15 472.0, 734.53 472.67, 734.92 473.33, 735.31 474.0, 735.7 474.67, 736.1 475.33, 736.51 476.0, 736.91 476.67, 737.33 477.33, 737.74 478.0, 738.16 478.67, 738.59 479.33, 739.02 480.0, 739.45 480.67, 739.89 481.33, 740.33 482.0, 740.78 482.67, 741.23 483.33, 741.68 484.0, 742.14 484.67, 742.6 485.33, 743.07 486.0, 743.54 486.67, 744.02 487.33, 744.49 488.0, 744.98 488.67, 745.46 489.33, 745.95 490.0, 746.45 490.67, 746.94 491.33, 747.44 492.0, 747.95 492.67, 748.46 493.33, 748.97 494.0, 749.48 494.67, 750.0 495.33, 750.52 496.0, 751.05 496.67, 751.58 497.33, 752.11 498.0, 752.65 498.67, 753.19 499.33, 753.73 500.0, 754.27 500.67, 754.82 501.33, 755.37 502.0, 755.93 502.67, 756.49 503.33, 757.05 504.0, 757.61 504.67, 758.18 505.33, 758.75 506.0, 759.32 506.67, 759.9 507.33, 760.48 508.0, 761.06 508.67, 761.64 509.33, 762.23 510.0, 762.82 510.67, 763.41 511.33, 764.0 512.0, 764.6 512.67, 765.2 513.33, 765.8 514.0, 766.4 514.67, 767.01 515.33, 767.62 516.0, 768.23 516.67, 768.84 517.33, 769.46 518.0, 770.07 518.67, 770.69 519.33, 771.31 520.0, 771.94 520.67, 772.56 521.33, 773.19 522.0, 773.82 522.67, 774.45 523.33, 775.08 524.0, 775.72 524.67, 776.35 525.33, 776.99 526.0, 777.63 526.67, 778.27 527.33, 778.91 528.0, 779.56 528.67, 780.2 529.33, 780.85 530.0, 781.5 530.67, 782.15 531.33, 782.8 532.0, 783.45 532.67, 784.1 533.33, 784.75 534.0, 785.41 534.67, 786.07 535.33, 786.72 536.0, 787.38 536.67, 788.04 537.33, 788.7 538.0, 789.36 538.67, 790.02 539.33, 790.68 540.0, 791.34 540.67, 792.01 541.33, 792.67 542.0, 793.34 542.67, 794.0 543.33, 794.66 544.0, 795.33 544.67, 796.0 545.33, 796.66 546.0, 797.33 546.67, 797.99 547.33, 798.66 548.0, 799.33 548.67, 799.99 549.33, 800.66 550.0, 801.33 550.67, 801.99 551.33, 802.66 552.0, 803.33 552.67, 803.99 553.33, 804.66 554.0, 805.32 554.67, 805.99 555.33, 806.65 556.0, 807.32 556.67, 807.98 557.33, 808.64 558.0, 809.31 558.67, 809.97 559.33, 810.63 560.0, 811.29 560.67, 811.95 561.33, 812.61 562.0, 813.27 562.67, 813.92 563.33, 814.58 564.0, 815.23 564.67, 815.89 565.33, 816.54 566.0, 817.19 566.67, 817.84 567.33, 818.49 568.0, 819.14 568.67, 819.79 569.33, 820.43 570.0, 821.08 570.67, 821.72 571.33, 822.36 572.0, 823.0 572.67, 823.64 573.33, 824.27 574.0, 824.91 574.67, 825.54 575.33, 826.17 576.0, 826.8 576.67, 827.43 577.33, 828.05 578.0, 828.67 578.67, 829.3 579.33, 829.92 580.0, 830.53 580.67, 831.15 581.33, 831.76 582.0, 832.37 582.67, 832.98 583.33, 833.59 584.0, 834.19 584.67, 834.79 585.33, 835.39 586.0, 835.99 586.67, 836.58 587.33, 837.17 588.0, 837.76 588.67, 838.35 589.33, 838.93 590.0, 839.51 590.67, 840.09 591.33, 840.67 592.0, 841.24 592.67, 841.81 593.33, 842.38 594.0, 842.94 594.67, 843.5 595.33, 844.06 596.0, 844.61 596.67, 845.17 597.33, 845.72 598.0, 846.26 598.67, 846.8 599.33, 847.34 600.0, 847.88 600.67, 848.41 601.33, 848.94 602.0, 849.46 602.67, 849.99 603.33, 850.51 604.0, 851.02 604.67, 851.53 605.33, 852.04 606.0, 852.55 606.67, 853.05 607.33, 853.54 608.0, 854.04 608.67, 854.53 609.33, 855.01 610.0, 855.49 610.67, 855.97 611.33, 856.45 612.0, 856.92 612.67, 857.38 613.33, 857.85 614.0, 858.31 614.67, 858.76 615.33, 859.21 616.0, 859.66 616.67, 860.1 617.33, 860.54 618.0, 860.97 618.67, 861.4 619.33, 861.82 620.0, 862.25 620.67, 862.66 621.33, 863.07 622.0, 863.48 622.67, 863.89 623.33, 864.29 624.0, 864.68 624.67, 865.07 625.33, 865.46 626.0, 865.84 626.67, 866.21 627.33, 866.58 628.0, 866.95 628.67, 867.31 629.33, 867.67 630.0, 868.03 630.67, 868.37 631.33, 868.72 632.0, 869.06 632.67, 869.39 633.33, 869.72 634.0, 870.04 634.67, 870.36 635.33, 870.68 636.0, 870.99 636.67, 871.29 637.33, 871.59 638.0, 871.89 638.67, 872.18 639.33, 872.46 640.0, 872.74 640.67, 873.02 641.33, 873.29 642.0, 873.55 642.67, 873.81 643.33, 874.07 644.0, 874.32 644.67, 874.56 645.33, 874.8 646.0, 875.03 646.67, 875.26 647.33, 875.49 648.0, 875.7 648.67, 875.92 649.33, 876.12 650.0, 876.33 650.67, 876.52 651.33, 876.72 652.0, 876.9 652.67, 877.08 653.33, 877.26 654.0, 877.43 654.67, 877.59 655.33, 877.75 656.0, 877.91 656.67, 878.06 657.33, 878.2 658.0, 878.34 658.67, 878.47 659.33, 878.6 660.0, 878.72 660.67, 878.83 661.33, 878.95 662.0, 879.05 662.67, 879.15 663.33, 879.24 664.0, 879.33 664.67, 879.42 665.33, 879.49 666.0, 879.57 666.67, 879.63 667.33, 879.69 668.0, 879.75 668.67, 879.8 669.33, 879.84 670.0, 879.88 670.67, 879.92 671.33, 879.94 672.0, 879.97 672.67, 879.98 673.33, 879.99 674.0, 880.0 674.67, 880.0 675.33, 879.99 676.0, 879.98 676.67, 879.97 677.33, 879.94 678.0, 879.92 678.67, 879.88 679.33, 879.84 680.0, 879.8 680.67, 879.75 681.33, 879.69 682.0, 879.63 682.67, 879.57 683.33, 879.49 684.0, 879.42 684.67, 879.33 685.33, 879.25 686.0, 879.15 686.67, 879.05 687.33, 878.95 688.0, 878.84 688.67, 878.72 689.33, 878.6 690.0, 878.47 690.67, 878.34 691.33, 878.2 692.0, 878.06 692.67, 877.91 693.33, 877.76 694.0, 877.6 694.67, 877.43 695.33, 877.26 696.0, 877.08 696.67, 876.9 697.33, 876.72 698.0, 876.53 698.67, 876.33 699.33, 876.13 700.0, 875.92 700.67, 875.71 701.33, 875.49 702.0, 875.26 702.67, 875.04 703.33, 874.8 704.0, 874.56 704.67, 874.32 705.33, 874.07 706.0, 873.82 706.67, 873.56 707.33, 873.29 708.0, 873.02 708.67, 872.75 709.33, 872.47 710.0, 872.18 710.67, 871.89 711.33, 871.6 712.0, 871.3 712.67, 870.99 713.33, 870.68 714.0, 870.37 714.67, 870.05 715.33, 869.72 716.0, 869.39 716.67, 869.06 717.33, 868.72 718.0, 868.38 718.67, 868.03 719.33, 867.68 720.0, 867.32 720.67, 866.96 721.33, 866.59 722.0, 866.22 722.67, 865.84 723.33, 865.46 724.0, 865.07 724.67, 864.68 725.33, 864.29 726.0, 863.89 726.67, 863.49 727.33, 863.08 728.0, 862.67 728.67, 862.25 729.33, 861.83 730.0, 861.4 730.67, 860.97 731.33, 860.54 732.0, 860.1 732.67, 859.66 733.33, 859.21 734.0, 858.76 734.67, 858.31 735.33, 857.85 736.0, 857.39 736.67, 856.92 737.33, 856.45 738.0, 855.98 738.67, 855.5 739.33, 855.02 740.0, 854.53 740.67, 854.04 741.33, 853.55 742.0, 853.05 742.67, 852.55 743.33, 852.05 744.0, 851.54 744.67, 851.03 745.33, 850.51 746.0, 849.99 746.67, 849.47 747.33, 848.94 748.0, 848.41 748.67, 847.88 749.33, 847.35 750.0, 846.81 750.67, 846.27 751.33, 845.72 752.0, 845.17 752.67, 844.62 753.33, 844.06 754.0, 843.51 754.67, 842.95 755.33, 842.38 756.0, 841.81 756.67, 841.25 757.33, 840.67 758.0, 840.1 758.67, 839.52 759.33, 838.94 760.0, 838.35 760.67, 837.77 761.33, 837.18 762.0, 836.59 762.67, 835.99 763.33, 835.4 764.0, 834.8 764.67, 834.2 765.33, 833.59 766.0, 832.99 766.67, 832.38 767.33, 831.77 768.0, 831.15 768.67, 830.54 769.33, 829.92 770.0, 829.3 770.67, 828.68 771.33, 828.06 772.0, 827.43 772.67, 826.8 773.33, 826.18 774.0, 825.54 774.67, 824.91 775.33, 824.28 776.0, 823.64 776.67, 823.0 777.33, 822.36 778.0, 821.72 778.67, 821.08 779.33, 820.44 780.0, 819.79 780.67, 819.15 781.33, 818.5 782.0, 817.85 782.67, 817.2 783.33, 816.55 784.0, 815.89 784.67, 815.24 785.33, 814.58 786.0, 813.93 786.67, 813.27 787.33, 812.61 788.0, 811.96 788.67, 811.3 789.33, 810.64 790.0, 809.97 790.67, 809.31 791.33, 808.65 792.0, 807.99 792.67, 807.32 793.33, 806.66 794.0, 805.99 794.67, 805.33 795.33, 804.66 796.0, 804.0 796.67, 803.33 797.33, 802.67 798.0, 802.0 798.67, 801.33 799.33, 800.67 800.0, 800.0 800.67, 799.33 801.33, 798.67 802.0, 798.0 802.67, 797.33 803.33, 796.67 804.0, 796.0 804.67, 795.34 805.33, 794.67 806.0, 794.01 806.67, 793.34 807.33, 792.68 808.0, 792.01 808.67, 791.35 809.33, 790.69 810.0, 790.03 810.67, 789.36 811.33, 788.7 812.0, 788.04 812.67, 787.39 813.33, 786.73 814.0, 786.07 814.67, 785.42 815.33, 784.76 816.0, 784.11 816.67, 783.45 817.33, 782.8 818.0, 782.15 818.67, 781.5 819.33, 780.85 820.0, 780.21 820.67, 779.56 821.33, 778.92 822.0, 778.28 822.67, 777.64 823.33, 777.0 824.0, 776.36 824.67, 775.72 825.33, 775.09 826.0, 774.46 826.67, 773.82 827.33, 773.2 828.0, 772.57 828.67, 771.94 829.33, 771.32 830.0, 770.7 830.67, 770.08 831.33, 769.46 832.0, 768.85 832.67, 768.23 833.33, 767.62 834.0, 767.01 834.67, 766.41 835.33, 765.8 836.0, 765.2 836.67, 764.6 837.33, 764.01 838.0, 763.41 838.67, 762.82 839.33, 762.23 840.0, 761.65 840.67, 761.06 841.33, 760.48 842.0, 759.9 842.67, 759.33 843.33, 758.75 844.0, 758.19 844.67, 757.62 845.33, 757.05 846.0, 756.49 846.67, 755.94 847.33, 755.38 848.0, 754.83 848.67, 754.28 849.33, 753.73 850.0, 753.19 850.67, 752.65 851.33, 752.12 852.0, 751.59 852.67, 751.06 853.33, 750.53 854.0, 750.01 854.67, 749.49 855.33, 748.97 856.0, 748.46 856.67, 747.95 857.33, 747.45 858.0, 746.95 858.67, 746.45 859.33, 745.96 860.0, 745.47 860.67, 744.98 861.33, 744.5 862.0, 744.02 862.67, 743.55 863.33, 743.08 864.0, 742.61 864.67, 742.15 865.33, 741.69 866.0, 741.24 866.67, 740.79 867.33, 740.34 868.0, 739.9 868.67, 739.46 869.33, 739.03 870.0, 738.6 870.67, 738.17 871.33, 737.75 872.0, 737.33 872.67, 736.92 873.33, 736.51 874.0, 736.11 874.67, 735.71 875.33, 735.32 876.0, 734.93 876.67, 734.54 877.33, 734.16 878.0, 733.78 878.67, 733.41 879.33, 733.04 880.0, 732.68 880.67, 732.32 881.33, 731.97 882.0, 731.62 882.67, 731.28 883.33, 730.94 884.0, 730.61 884.67, 730.28 885.33, 729.95 886.0, 729.63 886.67, 729.32 887.33, 729.01 888.0, 728.7 888.67, 728.4 889.33, 728.11 890.0, 727.82 890.67, 727.53 891.33, 727.25 892.0, 726.98 892.67, 726.71 893.33, 726.44 894.0, 726.18 894.67, 725.93 895.33, 725.68 896.0, 725.44 896.67, 725.2 897.33, 724.96 898.0, 724.74 898.67, 724.51 899.33, 724.29 900.0, 724.08 900.67, 723.87 901.33, 723.67 902.0, 723.47 902.67, 723.28 903.33, 723.1 904.0, 722.92 904.67, 722.74 905.33, 722.57 906.0, 722.4 906.67, 722.24 907.33, 722.09 908.0, 721.94 908.67, 721.8 909.33, 721.66 910.0, 721.53 910.67, 721.4 911.33, 721.28 912.0, 721.16 912.67, 721.05 913.33, 720.95 914.0, 720.85 914.67, 720.75 915.33, 720.67 916.0, 720.58 916.67, 720.51 917.33, 720.43 918.0, 720.37 918.67, 720.31 919.33, 720.25 920.0, 720.2 920.67, 720.16 921.33, 720.12 922.0, 720.08 922.67, 720.06 923.33, 720.03 924.0, 720.02 924.67, 720.01 925.33, 720.0 926.0, 720.0 926.67, 720.01 927.33, 720.02 928.0, 720.03 928.67, 720.06 929.33, 720.08 930.0, 720.12 930.67, 720.16 931.33, 720.2 932.0, 720.25 932.67, 720.31 933.33, 720.37 934.0, 720.43 934.67, 720.51 935.33, 720.58 936.0, 720.67 936.67, 720.76 937.33, 720.85 938.0, 720.95 938.67, 721.05 939.33, 721.17 940.0, 721.28 940.67, 721.4 941.33, 721.53 942.0, 721.66 942.67, 721.8 943.33, 721.94 944.0, 722.09 944.67, 722.25 945.33, 722.41 946.0, 722.57 946.67, 722.74 947.33, 722.92 948.0, 723.1 948.67, 723.28 949.33, 723.48 950.0, 723.67 950.67, 723.88 951.33, 724.08 952.0, 724.3 952.67, 724.51 953.33, 724.74 954.0, 724.97 954.67, 725.2 955.33, 725.44 956.0, 725.68 956.67, 725.93 957.33, 726.19 958.0, 726.45 958.67, 726.71 959.33, 726.98 960.0, 727.26 960.67, 727.54 961.33, 727.82 962.0, 728.11 962.67, 728.41 963.33, 728.71 964.0, 729.01 964.67, 729.32 965.33, 729.64 966.0, 729.96 966.67, 730.28 967.33, 730.61 968.0, 730.94 968.67, 731.28 969.33, 731.63 970.0, 731.97 970.67, 732.33 971.33, 732.69 972.0, 733.05 972.67, 733.42 973.33, 733.79 974.0, 734.16 974.67, 734.54 975.33, 734.93 976.0, 735.32 976.67, 735.71 977.33, 736.11 978.0, 736.52 978.67, 736.93 979.33, 737.34 980.0, 737.75 980.67, 738.18 981.33, 738.6 982.0, 739.03 982.67, 739.46 983.33, 739.9 984.0, 740.34 984.67, 740.79 985.33, 741.24 986.0, 741.69 986.67, 742.15 987.33, 742.62 988.0, 743.08 988.67, 743.55 989.33, 744.03 990.0, 744.51 990.67, 744.99 991.33, 745.47 992.0, 745.96 992.67, 746.46 993.33, 746.95 994.0, 747.45 994.67, 747.96 995.33, 748.47 996.0, 748.98 996.67, 749.49 997.33, 750.01 998.0, 750.54 998.67, 751.06 999.33, 751.59 1000.0, 752.12 1000.67, 752.66 1001.33, 753.2 1002.0, 753.74 1002.67, 754.28 1003.33, 754.83 1004.0, 755.39 1004.67, 755.94 1005.33, 756.5 1006.0, 757.06 1006.67, 757.62 1007.33, 758.19 1008.0, 758.76 1008.67, 759.33 1009.33, 759.91 1010.0, 760.49 1010.67, 761.07 1011.33, 761.65 1012.0, 762.24 1012.67, 762.83 1013.33, 763.42 1014.0, 764.01 1014.67, 764.61 1015.33, 765.21 1016.0, 765.81 1016.67, 766.41 1017.33, 767.02 1018.0, 767.63 1018.67, 768.24 1019.33, 768.85 1020.0, 769.47 1020.67, 770.08 1021.33, 770.7 1022.0, 771.33 1022.67, 771.95 1023.33, 772.57 1024.0, 773.2 1024.67, 773.83 1025.33, 774.46 1026.0, 775.09 1026.67, 775.73 1027.33, 776.36 1028.0, 777.0 1028.67, 777.64 1029.33, 778.28 1030.0, 778.92 1030.67, 779.57 1031.33, 780.21 1032.0, 780.86 1032.67, 781.51 1033.33, 782.16 1034.0, 782.81 1034.67, 783.46 1035.33, 784.11 1036.0, 784.77 1036.67, 785.42 1037.33, 786.08 1038.0, 786.73 1038.67, 787.39 1039.33, 788.05 1040.0, 788.71 1040.67, 789.37 1041.33, 790.03 1042.0, 790.69 1042.67, 791.36 1043.33, 792.02 1044.0, 792.68 1044.67, 793.35 1045.33, 794.01 1046.0, 794.68 1046.67, 795.34 1047.33, 796.01 1048.0, 796.67 1048.67, 797.34 1049.33, 798.01 1050.0, 798.67 1050.67, 799.34 1051.33, 800.01 1052.0, 800.67 1052.67, 801.34 1053.33, 802.01 1054.0, 802.67 1054.67, 803.34 1055.33, 804.0 1056.0, 804.67 1056.67, 805.34 1057.33, 806.0 1058.0, 806.66 1058.67, 807.33 1059.33, 807.99 1060.0, 808.66 1060.67, 809.32 1061.33, 809.98 1062.0, 810.64 1062.67, 811.3 1063.33, 811.96 1064.0, 812.62 1064.67, 813.28 1065.33, 813.93 1066.0, 814.59 1066.67, 815.25 1067.33, 815.9 1068.0, 816.55 1068.67, 817.2 1069.33, 817.85 1070.0, 818.5 1070.67, 819.15 1071.33, 819.8 1072.0, 820.44 1072.67, 821.09 1073.33, 821.73 1074.0, 822.37 1074.67, 823.01 1075.33, 823.65 1076.0, 824.28 1076.67, 824.92 1077.33, 825.55 1078.0, 826.18 1078.67, 826.81 1079.33, 827.44 1080.0, 828.06 1080.67, 828.69 1081.33, 829.31 1082.0, 829.93 1082.67, 830.54 1083.33, 831.16 1084.0, 831.77 1084.67, 832.38 1085.33, 832.99 1086.0, 833.6 1086.67, 834.2 1087.33, 834.8 1088.0, 835.4 1088.67, 836.0 1089.33, 836.59 1090.0, 837.18 1090.67, 837.77 1091.33, 838.36 1092.0, 838.94 1092.67, 839.52 1093.33, 840.1 1094.0, 840.68 1094.67, 841.25 1095.33, 841.82 1096.0, 842.39 1096.67, 842.95 1097.33, 843.51 1098.0, 844.07 1098.67, 844.63 1099.33, 845.18 1100.0, 845.73 1100.67, 846.27 1101.33, 846.81 1102.0, 847.35 1102.67, 847.89 1103.33, 848.42 1104.0, 848.95 1104.67, 849.48 1105.33, 850.0 1106.0, 850.52 1106.67, 851.03 1107.33, 851.54 1108.0, 852.05 1108.67, 852.56 1109.33, 853.06 1110.0, 853.55 1110.67, 854.05 1111.33, 854.54 1112.0, 855.02 1112.67, 855.51 1113.33, 855.98 1114.0, 856.46 1114.67, 856.93 1115.33, 857.4 1116.0, 857.86 1116.67, 858.32 1117.33, 858.77 1118.0, 859.22 1118.67, 859.67 1119.33, 860.11 1120.0, 860.55 1120.67, 860.98 1121.33, 861.41 1122.0, 861.84 1122.67, 862.26 1123.33, 862.67 1124.0, 863.09 1124.67, 863.49 1125.33, 863.9 1126.0, 864.3 1126.67, 864.69 1127.33, 865.08 1128.0, 865.47 1128.67, 865.85 1129.33, 866.23 1130.0, 866.6 1130.67, 866.96 1131.33, 867.33 1132.0, 867.69 1132.67, 868.04 1133.33, 868.39 1134.0, 868.73 1134.67, 869.07 1135.33, 869.4 1136.0, 869.73 1136.67, 870.06 1137.33, 870.38 1138.0, 870.69 1138.67, 871.0 1139.33, 871.31 1140.0, 871.61 1140.67, 871.9 1141.33, 872.19 1142.0, 872.48 1142.67, 872.76 1143.33, 873.04 1144.0, 873.31 1144.67, 873.57 1145.33, 873.83 1146.0, 874.08 1146.67, 874.33 1147.33, 874.58 1148.0, 874.82 1148.67, 875.05 1149.33, 875.28 1150.0, 875.51 1150.67, 875.72 1151.33, 875.94 1152.0, 876.15 1152.67, 876.35 1153.33, 876.55 1154.0, 876.74 1154.67, 876.93 1155.33, 877.11 1156.0, 877.28 1156.67, 877.45 1157.33, 877.62 1158.0, 877.78 1158.67, 877.93 1159.33, 878.08 1160.0, 878.23 1160.67, 878.37 1161.33, 878.5 1162.0, 878.63 1162.67, 878.75 1163.33, 878.87 1164.0, 878.98 1164.67, 879.08 1165.33, 879.18 1166.0, 879.28 1166.67, 879.37 1167.33, 879.45 1168.0, 879.53 1168.67, 879.61 1169.33, 879.67 1170.0, 879.74 1170.67, 879.79 1171.33, 879.84 1172.0, 879.89 1172.67, 879.93 1173.33, 879.96 1174.0, 879.99 1174.67, 880.02 1175.33, 880.03 1176.0, 880.05 1176.67, 880.05 1177.33, 880.06 1178.0, 880.05 1178.67, 880.04 1179.33, 880.03 1180.0, 880.01 1180.67, 879.98 1181.33, 879.95 1182.0, 879.91 1182.67, 879.87 1183.33, 879.82 1184.0, 879.77 1184.67, 879.71 1185.33, 879.65 1186.0, 879.58 1186.67, 879.5 1187.33, 879.42 1188.0, 879.33 1188.67, 879.24 1189.33, 879.15 1190.0, 879.04 1190.67, 878.94 1191.33, 878.82 1192.0, 878.7 1192.67, 878.58 1193.33, 878.45 1194.0, 878.32 1194.67, 878.18 1195.33, 878.03 1196.0, 877.88 1196.67, 877.72 1197.33, 877.56 1198.0, 877.4 1198.67, 877.22 1199.33, 877.05 1200.0, 876.87 1200.67, 876.68 1201.33, 876.48 1202.0, 876.29 1202.67, 876.08 1203.33, 875.88 1204.0, 875.66 1204.67, 875.44 1205.33, 875.22 1206.0, 874.99 1206.67, 874.76 1207.33, 874.52 1208.0, 874.28 1208.67, 874.03 1209.33, 873.77 1210.0, 873.52 1210.67, 873.25 1211.33, 872.98 1212.0, 872.71 1212.67, 872.43 1213.33, 872.15 1214.0, 871.86 1214.67, 871.57 1215.33, 871.27 1216.0, 870.97 1216.67, 870.66 1217.33, 870.35 1218.0, 870.03 1218.67, 869.71 1219.33, 869.39 1220.0, 869.06 1220.67, 868.72 1221.33, 868.39 1222.0, 868.04 1222.67, 867.69 1223.33, 867.34 1224.0, 866.98 1224.67, 866.62 1225.33, 866.26 1226.0, 865.89 1226.67, 865.51 1227.33, 865.14 1228.0, 864.75 1228.67, 864.37 1229.33, 863.98 1230.0, 863.58 1230.67, 863.18 1231.33, 862.78 1232.0, 862.37 1232.67, 861.96 1233.33, 861.55 1234.0, 861.13 1234.67, 860.71 1235.33, 860.28 1236.0, 859.85 1236.67, 859.42 1237.33, 858.98 1238.0, 858.54 1238.67, 858.1 1239.33, 857.65 1240.0, 857.2 1240.67, 856.74 1241.33, 856.28 1242.0, 855.82 1242.67, 855.36 1243.33, 854.89 1244.0, 854.42 1244.67, 853.94 1245.33, 853.46 1246.0, 852.98 1246.67, 852.5 1247.33, 852.01 1248.0, 851.52 1248.67, 851.03 1249.33, 850.53 1250.0, 850.03 1250.67, 849.53 1251.33, 849.03 1252.0, 848.52 1252.67, 848.01 1253.33, 847.5 1254.0, 846.98 1254.67, 846.47 1255.33, 845.95 1256.0, 845.43 1256.67, 844.9 1257.33, 844.38 1258.0, 843.85 1258.67, 843.32 1259.33, 842.79 1260.0, 842.25 1260.67, 841.71 1261.33, 841.18 1262.0, 840.64 1262.67, 840.09 1263.33, 839.55 1264.0, 839.01 1264.67, 838.46 1265.33, 837.91 1266.0, 837.36 1266.67, 836.81 1267.33, 836.26 1268.0, 835.7 1268.67, 835.15 1269.33, 834.59 1270.0, 834.04 1270.67, 833.48 1271.33, 832.92 1272.0, 832.36 1272.67, 831.8 1273.33, 831.24 1274.0, 830.68 1274.67, 830.11 1275.33, 829.55 1276.0, 828.99 1276.67, 828.42 1277.33, 827.86 1278.0, 827.29 1278.67, 826.73 1279.33, 826.17 1280.0, 825.6 1280.67, 825.04 1281.33, 824.47 1282.0, 823.91 1282.67, 823.35 1283.33, 822.78 1284.0, 822.22 1284.67, 821.66 1285.33, 821.1 1286.0, 820.54 1286.67, 819.98 1287.33, 819.42 1288.0, 818.86 1288.67, 818.3 1289.33, 817.75 1290.0, 817.19 1290.67, 816.64 1291.33, 816.09 1292.0, 815.54 1292.67, 814.99 1293.33, 814.45 1294.0, 813.9 1294.67, 813.36 1295.33, 812.82 1296.0, 812.28 1296.67, 811.74 1297.33, 811.21 1298.0, 810.68 1298.67, 810.15 1299.33, 809.62 1300.0, 809.1 1300.67, 808.58 1301.33, 808.06 1302.0, 807.55 1302.67, 807.03 1303.33, 806.53 1304.0, 806.02 1304.67, 805.52 1305.33, 805.02 1306.0, 804.53 1306.67, 804.04 1307.33, 803.55 1308.0, 803.07 1308.67, 802.59 1309.33, 802.12 1310.0, 801.65 1310.67, 801.18 1311.33, 800.72 1312.0, 800.27 1312.67, 799.82 1313.33, 799.37 1314.0, 798.93 1314.67, 798.5 1315.33, 798.07 1316.0, 797.64 1316.67, 797.23 1317.33, 796.81 1318.0, 796.41 1318.67, 796.01 1319.33, 795.62 1320.0, 795.23 1320.67, 794.85 1321.33, 794.47 1322.0, 794.11 1322.67, 793.75 1323.33, 793.39 1324.0, 793.05 1324.67, 792.71 1325.33, 792.38 1326.0, 792.06 1326.67, 791.74 1327.33, 791.44 1328.0, 791.14 1328.67, 790.85 1329.33, 790.57 1330.0, 790.3 1330.67, 790.03 1331.33, 789.78 1332.0, 789.54 1332.67, 789.3 1333.33, 789.08 1334.0, 788.86 1334.67, 788.66 1335.33, 788.46 1336.0, 788.28 1336.67, 788.1 1337.33, 787.94 1338.0, 787.79 1338.67, 787.65 1339.33, 787.52 1340.0, 787.4 1340.67, 787.29 1341.33, 787.2 1342.0, 787.12 1342.67, 787.05 1343.33, 786.99 1344.0, 786.95 1344.67, 786.92 1345.33, 786.9 1346.0, 786.9 1346.67, 786.91 1347.33, 786.94 1348.0, 786.98 1348.67, 787.03 1349.33, 787.1 1350.0, 787.19 1350.67, 787.29 1351.33, 787.4 1352.0, 787.53 1352.67, 787.68 1353.33, 787.84 1354.0, 788.02 1354.67, 788.22 1355.33, 788.44 1356.0, 788.67 1356.67, 788.92 1357.33, 789.19 1358.0, 789.47 1358.67, 789.78 1359.33, 790.1 1360.0, 790.45 1360.67, 790.81 1361.33, 791.19 1362.0, 791.6 1362.67, 792.02 1363.33, 792.47 1364.0, 792.93 1364.67, 793.42 1365.33, 793.93 1366.0, 794.46 1366.67, 795.02 1367.33, 795.6 1368.0, 796.2 1368.67, 796.82 1369.33, 797.47 1370.0, 798.15 1370.67, 798.84 1371.33, 799.57 1372.0, 800.32 1372.67, 801.09 1373.33, 801.9 1374.0, 802.72 1374.67, 803.58 1375.33, 804.46 1376.0, 805.38 1376.67, 806.32 1377.33, 807.29 1378.0, 808.29 1378.67, 809.31 1379.33, 810.37 1380.0, 811.46 1380.67, 812.59 1381.33, 813.74 1382.0, 814.92 1382.67, 816.14 1383.33, 817.39 1384.0, 818.68 1384.67, 820.0 1385.33, 821.35 1386.0, 822.74 1386.67, 824.17 1387.33, 825.63 1388.0, 827.13 1388.67, 828.67 1389.33, 830.24 1390.0, 831.85 1390.67, 833.51 1391.33, 835.2 1392.0, 836.93 1392.67, 838.71 1393.33, 840.52 1394.0, 842.38 1394.67, 844.28 1395.33, 846.23 1396.0, 848.21 1396.67, 850.25 1397.33, 852.33 1398.0, 854.45 1398.67, 856.63 1399.33, 858.85 1400.0, 861.11 1400.67, 863.43 1401.33, 865.8 1402.0, 868.22 1402.67, 870.69 1403.33, 873.21 1404.0, 875.78 1404.67, 878.41 1405.33, 881.09 1406.0, 883.83 1406.67, 886.63 1407.33, 889.48 1408.0, 892.38 1408.67, 895.35 1409.33, 898.38 1410.0, 901.47 1410.67, 904.61 1411.33, 907.83 1412.0, 911.1 1412.67, 914.44 1413.33, 917.84 1414.0, 921.31 1414.67, 924.84 1415.33, 928.45 1416.0, 932.12 1416.67, 935.86 1417.33, 939.68 1418.0, 943.56 1418.67, 947.52 1419.33, 951.55 1420.0, 955.66 1420.67, 959.85 1421.33, 964.11 1422.0, 968.45 1422.67, 972.87 1423.33, 977.37 1424.0, 981.95 1424.67, 986.62 1425.33, 991.37 1426.0, 996.21 1426.67, 1001.13 1427.33, 1006.15 1428.0, 1011.25 1428.67, 1016.44 1429.33, 1021.73 1430.0, 1027.11 1430.67, 1032.58 1431.33, 1038.15 1432.0, 1043.82 1432.67, 1049.59 1433.33, 1055.46 1434.0, 1061.43 1434.67, 1067.5 1435.33, 1073.68 1436.0, 1079.97 1436.67, 1086.36 1437.33, 1092.87 1438.0, 1099.48 1438.67, 1106.21 1439.33, 1113.05 1440.0, 1120.01 1440.67, 1127.09 1441.33, 1134.29 1442.0, 1141.61 1442.67, 1149.05 1443.33, 1156.61 1444.0, 1164.31 1444.67, 1172.13 1445.33, 1180.08 1446.0, 1188.17 1446.67, 1196.39 1447.33, 1204.74 1448.0, 1213.24 1448.67, 1221.87 1449.33, 1230.65 1450.0, 1239.57 1450.67, 1248.64 1451.33, 1257.85 1452.0, 1267.22 1452.67, 1276.74 1453.33, 1286.41 1454.0, 1296.25 1454.67, 1306.24 1455.33, 1316.39 1456.0, 1326.71 1456.67, 1337.19 1457.33, 1347.84 1458.0, 1358.66 1458.67, 1369.66 1459.33, 1380.83 1460.0, 1392.18 1460.67, 1403.72 1461.33, 1415.43 1462.0, 1427.34 1462.67, 1439.43 1463.33, 1451.71 1464.0, 1464.19 1464.67, 1476.87 1465.33, 1489.74 1466.0, 1502.82 1466.67, 1516.11 1467.33, 1529.6 1468.0, 1543.3 1468.67, 1557.22 1469.33, 1571.36 1470.0, 1585.72 1470.67, 1600.3 1471.33, 1615.11 1472.0, 1630.15 1472.67, 1645.42 1473.33, 1660.93 1474.0, 1676.68 1474.67, 1692.67 1475.33, 1708.91 1476.0, 1725.4 1476.67, 1742.15 1477.33, 1759.15 1478.0, 1776.42 1478.67, 1793.94 1479.33, 1811.74 1480.0, 1829.81 1480.67, 1848.16 1481.33, 1866.78 1482.0, 1885.69 1482.67, 1904.89 1483.33, 1924.38 1484.0, 1944.16 1484.67, 1964.25 1485.33, 1984.63 1486.0, 2005.33 1486.67, 2026.34 1487.33, 2047.67 1488.0, 2069.32 1488.67, 2091.3 1489.33, 2113.6 1490.0, 2136.24 1490.67, 2159.22 1491.33, 2182.55 1492.0, 2206.22 1492.67, 2230.25 1493.33, 2254.64 1494.0, 2279.39 1494.67, 2304.51 1495.33, 2330.0 1496.0, 2355.88 1496.67, 2382.14 1497.33, 2408.78 1498.0, 2435.83 1498.67, 2463.27 1499.33, 2491.12 1500.0, 2519.38 1500.67, 2548.05 1501.33, 2577.16 1502.0, 2606.68 1502.67, 2636.65 1503.33, 2667.05 1504.0, 2697.9 1504.67, 2729.2 1505.33, 2760.97 1506.0, 2793.19 1506.67, 2825.89 1507.33, 2859.06 1508.0, 2892.72 1508.67, 2926.87 1509.33, 2961.52 1510.0, 2996.67 1510.67, 3032.34 1511.33, 3068.52 1512.0, 3105.22 1512.67, 3142.46 1513.33, 3180.23 1514.0, 3218.56 1514.67, 3257.43 1515.33, 3296.87 1516.0, 3336.87 1516.67, 3377.46 1517.33, 3418.62 1518.0, 3460.38 1518.67, 3502.74 1519.33, 3545.71 1520.0, 3589.29 1520.67, 3633.49 1521.33, 3678.33 1522.0, 3723.81 1522.67, 3769.94 1523.33, 3816.73 1524.0, 3864.18 1524.67, 3912.32 1525.33, 3961.13 1526.0, 4010.64 1526.67, 4060.85 1527.33, 4111.78 1528.0, 4163.43 1528.67, 4215.8 1529.33, 4268.92 1530.0, 4322.8 1530.67, 4377.43 1531.33, 4432.83 1532.0, 4489.01 1532.67, 4545.99 1533.33, 4603.77 1534.0, 4662.35 1534.67, 4721.77 1535.33, 4782.01 1536.0, 4843.1 1536.67, 4905.05 1537.33, 4967.86 1538.0, 5031.56 1538.67, 5096.14 1539.33, 5161.62 1540.0, 5228.02 1540.67, 5295.34 1541.33, 5363.6 1542.0, 5432.81 1542.67, 5502.98 1543.33, 5574.12 1544.0, 5646.25 1544.67, 5719.38 1545.33, 5793.53 1546.0, 5868.69 1546.67, 5944.9 1547.33, 6022.16 1548.0, 6100.49 1548.67, 6179.89 1549.33, 6260.39 1550.0, 6342.0 1550.67, 6424.73 1551.33, 6508.6 1552.0, 6593.61 1552.67, 6679.8 1553.33, 6767.16 1554.0, 6855.72 1554.67, 6945.49 1555.33, 7036.49 1556.0, 7128.73 1556.67, 7222.23 1557.33, 7317.0 1558.0, 7413.06 1558.67, 7510.43 1559.33, 7609.12 1560.0, 7709.16 1560.67, 7810.55 1561.33, 7913.31 1562.0, 8017.47 1562.67, 8123.04 1563.33, 8230.03 1564.0, 8338.47 1564.67, 8448.38 1565.33, 8559.76 1566.0, 8672.65 1566.67, 8787.06 1567.33, 8903.0 1568.0, 9020.51 1568.67, 9139.59 1569.33, 9260.27 1570.0, 9382.57 1570.67, 9506.51 1571.33, 9632.1 1572.0, 9759.38 1572.67, 9888.35 1573.33, 10019.05 1574.0, 10151.49 1574.67, 10285.69 1575.33, 10421.69 1576.0, 10559.49 1576.67, 10699.12 1577.33, 10840.6 1578.0, 10983.97 1578.67, 11129.23 1579.33, 11276.42 1580.0, 11425.56 1580.67, 11576.67 1581.33, 11729.77 1582.0, 11884.9 1582.67, 12042.07 1583.33, 12201.31 1584.0, 12362.65 1584.67, 12526.11 1585.33, 12691.73 1586.0, 12859.51 1586.67, 13029.5 1587.33, 13201.72 1588.0, 13376.19 1588.67, 13552.95 1589.33, 13732.01 1590.0, 13913.42 1590.67, 14097.2 1591.33, 14283.37 1592.0, 14471.97 1592.67, 14663.02 1593.33, 14856.57 1594.0, 15052.62 1594.67, 15251.23 1595.33, 15452.41 1596.0, 15656.2 1596.67, 15862.63 1597.33, 16071.73 1598.0, 16283.54 1598.67, 16498.08 1599.33, 16715.4 1600.0, 16935.51 " fill="none" stroke="white" stroke-width="1.5" stroke-linejoin="round" stroke-opacity="1"/>

 </svg>