<svg version="1.1" 
 baseProfile="full" 
 width="1600" 
 height="1600" 
 xmlns="http://www.w3.org/2000/svg">
<rect x="0.0" y="0.0" width="1600" height="1600" fill="black" stroke="black" stroke-width="0" opacity="1"/>
<line x1="0.0" y1="0.0" x2="0.0" y2="1600.0" stroke="white" stroke-width="1" opacity="0.4" stroke-linecap="butt"/>
<line x1="160.0" y1="0.0" x2="160.0" y2="1600.0" stroke="white" stroke-width="1" opacity="0.4" stroke-linecap="butt"/>
<line x1="320.0" y1="0.0" x2="320.0" y2="1600.0" stroke="white" stroke-width="1" opacity="0.4" stroke-linecap="butt"/>
<line x1="480.0" y1="0.0" x2="480.0" y2="1600.0" stroke="white" stroke-width="1" opacity="0.4" stroke-linecap="butt"/>
<line x1="640.0" y1="0.0" x2="640.0" y2="1600.0" stroke="white" stroke-width="1" opacity="0.4" stroke-linecap="butt"/>
<line x1="800.0" y1="0.0" x2="800.0" y2="1600.0" stroke="white" stroke-width="1" opacity="0.4" stroke-linecap="butt"/>
<line x1="960.0" y1="0.0" x2="960.0" y2="1600.0" stroke="white" stroke-width="1" opacity="0.4" stroke-linecap="butt"/>
<line x1="1120.0" y1="0.0" x2="1120.0" y2="1600.0" stroke="white" stroke-width="1" opacity="0.4" stroke-linecap="butt"/>
<line x1="1280.0" y1="0.0" x2="1280.0" y2="1600.0" stroke="white" stroke-width="1" opacity="0.4" stroke-linecap="butt"/>
<line x1="1440.0" y1="0.0" x2="1440.0" y2="1600.0" stroke="white" stroke-width="1" opacity="0.4" stroke-linecap="butt"/>
<line x1="0.0" y1="0.0" x2="1600.0" y2="0.0" stroke="white" stroke-width="1" opacity="0.4" stroke-linecap="butt"/>
<line x1="0.0" y1="160.0" x2="1600.0" y2="160.0" stroke="white" stroke-width="1" opacity="0.4" stroke-linecap="butt"/>
<line x1="0.0" y1="320.0" x2="1600.0" y2="320.0" stroke="white" stroke-width="1" opacity="0.4" stroke-linecap="butt"/>
<line x1="0.0" y1="480.0" x2="1600.0" y2="480.0" stroke="white" stroke-width="1" opacity="0.4" stroke-linecap="butt"/>
<line x1="0.0" y1="640.0" x2="1600.0" y2="640.0" stroke="white" stroke-width="1" opacity="0.4" stroke-linecap="butt"/>
<line x1="0.0" y1="800.0" x2="1600.0" y2="800.0" stroke="white" stroke-width="1" opacity="0.4" stroke-linecap="butt"/>
<line x1="0.0" y1="960.0" x2="1600.0" y2="960.0" stroke="white" stroke-width="1" opacity="0.4" stroke-linecap="butt"/>
<line x1="0.0" y1="1120.0" x2="1600.0" y2="1120.0" stroke="white" stroke-width="1" opacity="0.4" stroke-linecap="butt"/>
<line x1="0.0" y1="1280.0" x2="1600.0" y2="1280.0" stroke="white" stroke-width="1" opacity="0.4" stroke-linecap="butt"/>
<line x1="0.0" y1="1440.0" x2="1600.0" y2="1440.0" stroke="white" stroke-width="1" opacity="0.4" stroke-linecap="butt"/>
<line x1="0.0" y1="800.0" x2="1600.0" y2="800.0" stroke="yellow" stroke-width="2.5" opacity="1" stroke-linecap="butt"/>
<line x1="800.0" y1="0.0" x2="800.0" y2="1600.0" stroke="yellow" stroke-width="2.5" opacity="1" stroke-linecap="butt"/>
<polygon points="1564.0 816.0, 1604.0 800.0, 1564.0 784.0, 1572.0 800.0" fill="yellow"/><polygon points="816.0 36.0, 800.0 -4.0, 784.0 36.0, 800.0 28.0" fill="yellow"/><polyline points="0.0, -7744.58 0.67, -7631.29 1.33, -7519.38 2.0, -7408.85 2.67, -7299.67 3.33, -7191.83 4.0, -7085.32 4.67, -6980.12 5.33, -6876.21 6.0, -6773.58 6.67, -6672.22 7.33, -6572.11 8.0, -6473.24 8.67, -6375.59 9.33, -6279.15 10.0, -6183.91 10.67, -6089.84 11.33, -5996.95 12.0, -5905.2 12.67, -5814.6 13.33, -5725.12 14.0, -5636.76 14.67, -5549.5 15.33, -5463.33 16.0, -5378.24 16.67, -5294.21 17.33, -5211.23 18.0, -5129.28 18.67, -5048.37 19.33, -4968.47 20.0, -4889.57 20.67, -4811.67 21.33, -4734.74 22.0, -4658.79 22.67, -4583.78 23.33, -4509.73 24.0, -4436.61 24.67, -4364.41 25.33, -4293.13 26.0, -4222.75 26.67, -4153.26 27.33, -4084.65 28.0, -4016.91 28.67, -3950.03 29.33, -3884.0 30.0, -3818.81 30.67, -3754.45 31.33, -3690.91 32.0, -3628.18 32.67, -3566.25 33.33, -3505.11 34.0, -3444.76 34.67, -3385.17 35.33, -3326.35 36.0, -3268.29 36.67, -3210.97 37.33, -3154.38 38.0, -3098.53 38.67, -3043.39 39.33, -2988.96 40.0, -2935.23 40.67, -2882.2 41.33, -2829.85 42.0, -2778.18 42.67, -2727.17 43.33, -2676.83 44.0, -2627.14 44.67, -2578.09 45.33, -2529.68 46.0, -2481.9 46.67, -2434.74 47.33, -2388.19 48.0, -2342.25 48.67, -2296.91 49.33, -2252.16 50.0, -2208.0 50.67, -2164.41 51.33, -2121.4 52.0, -2078.94 52.67, -2037.05 53.33, -1995.7 54.0, -1954.9 54.67, -1914.63 55.33, -1874.89 56.0, -1835.68 56.67, -1796.98 57.33, -1758.79 58.0, -1721.11 58.67, -1683.92 59.33, -1647.23 60.0, -1611.02 60.67, -1575.3 61.33, -1540.04 62.0, -1505.26 62.67, -1470.93 63.33, -1437.07 64.0, -1403.65 64.67, -1370.68 65.33, -1338.15 66.0, -1306.06 66.67, -1274.39 67.33, -1243.14 68.0, -1212.32 68.67, -1181.91 69.33, -1151.9 70.0, -1122.3 70.67, -1093.1 71.33, -1064.29 72.0, -1035.86 72.67, -1007.82 73.33, -980.16 74.0, -952.87 74.67, -925.95 75.33, -899.4 76.0, -873.2 76.67, -847.36 77.33, -821.87 78.0, -796.73 78.67, -771.93 79.33, -747.46 80.0, -723.33 80.67, -699.53 81.33, -676.05 82.0, -652.9 82.67, -630.06 83.33, -607.53 84.0, -585.31 84.67, -563.4 85.33, -541.79 86.0, -520.47 86.67, -499.45 87.33, -478.72 88.0, -458.27 88.67, -438.11 89.33, -418.22 90.0, -398.61 90.67, -379.27 91.33, -360.2 92.0, -341.39 92.67, -322.85 93.33, -304.56 94.0, -286.53 94.67, -268.75 95.33, -251.22 96.0, -233.93 96.67, -216.88 97.33, -200.07 98.0, -183.5 98.67, -167.16 99.33, -151.05 100.0, -135.17 100.67, -119.51 101.33, -104.07 102.0, -88.85 102.67, -73.84 103.33, -59.05 104.0, -44.46 104.67, -30.09 105.33, -15.91 106.0, -1.94 106.67, 11.83 107.33, 25.41 108.0, 38.79 108.67, 51.98 109.33, 64.99 110.0, 77.8 110.67, 90.44 111.33, 102.89 112.0, 115.16 112.67, 127.25 113.33, 139.18 114.0, 150.92 114.67, 162.5 115.33, 173.91 116.0, 185.16 116.67, 196.24 117.33, 207.16 118.0, 217.93 118.67, 228.53 119.33, 238.98 120.0, 249.28 120.67, 259.43 121.33, 269.42 122.0, 279.28 122.67, 288.98 123.33, 298.54 124.0, 307.97 124.67, 317.25 125.33, 326.39 126.0, 335.4 126.67, 344.28 127.33, 353.02 128.0, 361.63 128.67, 370.12 129.33, 378.47 130.0, 386.71 130.67, 394.81 131.33, 402.8 132.0, 410.67 132.67, 418.41 133.33, 426.04 134.0, 433.56 134.67, 440.96 135.33, 448.24 136.0, 455.42 136.67, 462.49 137.33, 469.45 138.0, 476.3 138.67, 483.04 139.33, 489.69 140.0, 496.23 140.67, 502.67 141.33, 509.0 142.0, 515.24 142.67, 521.39 143.33, 527.44 144.0, 533.39 144.67, 539.25 145.33, 545.02 146.0, 550.69 146.67, 556.28 147.33, 561.78 148.0, 567.19 148.67, 572.51 149.33, 577.75 150.0, 582.91 150.67, 587.98 151.33, 592.98 152.0, 597.89 152.67, 602.72 153.33, 607.47 154.0, 612.15 154.67, 616.75 155.33, 621.27 156.0, 625.72 156.67, 630.1 157.33, 634.41 158.0, 638.64 158.67, 642.8 159.33, 646.9 160.0, 650.92 160.67, 654.88 161.33, 658.77 162.0, 662.59 162.67, 666.36 163.33, 670.05 164.0, 673.68 164.67, 677.26 165.33, 680.76 166.0, 684.21 166.67, 687.6 167.33, 690.93 168.0, 694.2 168.67, 697.42 169.33, 700.58 170.0, 703.68 170.67, 706.72 171.33, 709.71 172.0, 712.65 172.67, 715.54 173.33, 718.37 174.0, 721.15 174.67, 723.88 175.33, 726.56 176.0, 729.19 176.67, 731.78 177.33, 734.31 178.0, 736.8 178.67, 739.24 179.33, 741.63 180.0, 743.98 180.67, 746.28 181.33, 748.54 182.0, 750.75 182.67, 752.92 183.33, 755.05 184.0, 757.14 184.67, 759.18 185.33, 761.18 186.0, 763.15 186.67, 765.07 187.33, 766.95 188.0, 768.8 188.67, 770.61 189.33, 772.38 190.0, 774.11 190.67, 775.8 191.33, 777.46 192.0, 779.09 192.67, 780.67 193.33, 782.23 194.0, 783.75 194.67, 785.23 195.33, 786.68 196.0, 788.1 196.67, 789.49 197.33, 790.84 198.0, 792.16 198.67, 793.46 199.33, 794.72 200.0, 795.95 200.67, 797.15 201.33, 798.32 202.0, 799.46 202.67, 800.57 203.33, 801.66 204.0, 802.71 204.67, 803.74 205.33, 804.74 206.0, 805.72 206.67, 806.67 207.33, 807.59 208.0, 808.49 208.67, 809.36 209.33, 810.2 210.0, 811.03 210.67, 811.82 211.33, 812.6 212.0, 813.34 212.67, 814.07 213.33, 814.77 214.0, 815.45 214.67, 816.11 215.33, 816.75 216.0, 817.36 216.67, 817.95 217.33, 818.52 218.0, 819.07 218.67, 819.6 219.33, 820.11 220.0, 820.6 220.67, 821.07 221.33, 821.52 222.0, 821.95 222.67, 822.36 223.33, 822.76 224.0, 823.13 224.67, 823.49 225.33, 823.83 226.0, 824.15 226.67, 824.45 227.33, 824.73 228.0, 825.0 228.67, 825.26 229.33, 825.49 230.0, 825.71 230.67, 825.92 231.33, 826.1 232.0, 826.28 232.67, 826.43 233.33, 826.58 234.0, 826.7 234.67, 826.81 235.33, 826.91 236.0, 827.0 236.67, 827.07 237.33, 827.12 238.0, 827.16 238.67, 827.19 239.33, 827.21 240.0, 827.21 240.67, 827.2 241.33, 827.18 242.0, 827.14 242.67, 827.1 243.33, 827.04 244.0, 826.96 244.67, 826.88 245.33, 826.79 246.0, 826.68 246.67, 826.56 247.33, 826.43 248.0, 826.29 248.67, 826.14 249.33, 825.98 250.0, 825.81 250.67, 825.63 251.33, 825.44 252.0, 825.24 252.67, 825.03 253.33, 824.81 254.0, 824.58 254.67, 824.34 255.33, 824.09 256.0, 823.84 256.67, 823.57 257.33, 823.3 258.0, 823.01 258.67, 822.72 259.33, 822.42 260.0, 822.12 260.67, 821.8 261.33, 821.48 262.0, 821.15 262.67, 820.81 263.33, 820.46 264.0, 820.11 264.67, 819.75 265.33, 819.38 266.0, 819.01 266.67, 818.63 267.33, 818.24 268.0, 817.85 268.67, 817.45 269.33, 817.04 270.0, 816.63 270.67, 816.21 271.33, 815.78 272.0, 815.35 272.67, 814.92 273.33, 814.48 274.0, 814.03 274.67, 813.58 275.33, 813.12 276.0, 812.66 276.67, 812.19 277.33, 811.72 278.0, 811.24 278.67, 810.76 279.33, 810.27 280.0, 809.78 280.67, 809.29 281.33, 808.79 282.0, 808.28 282.67, 807.78 283.33, 807.26 284.0, 806.75 284.67, 806.23 285.33, 805.71 286.0, 805.18 286.67, 804.65 287.33, 804.12 288.0, 803.58 288.67, 803.04 289.33, 802.5 290.0, 801.95 290.67, 801.41 291.33, 800.85 292.0, 800.3 292.67, 799.74 293.33, 799.18 294.0, 798.62 294.67, 798.06 295.33, 797.49 296.0, 796.92 296.67, 796.35 297.33, 795.78 298.0, 795.21 298.67, 794.63 299.33, 794.05 300.0, 793.47 300.67, 792.89 301.33, 792.31 302.0, 791.73 302.67, 791.14 303.33, 790.55 304.0, 789.96 304.67, 789.38 305.33, 788.79 306.0, 788.19 306.67, 787.6 307.33, 787.01 308.0, 786.42 308.67, 785.82 309.33, 785.23 310.0, 784.63 310.67, 784.03 311.33, 783.44 312.0, 782.84 312.67, 782.25 313.33, 781.65 314.0, 781.05 314.67, 780.45 315.33, 779.86 316.0, 779.26 316.67, 778.66 317.33, 778.07 318.0, 777.47 318.67, 776.87 319.33, 776.28 320.0, 775.68 320.67, 775.09 321.33, 774.5 322.0, 773.9 322.67, 773.31 323.33, 772.72 324.0, 772.13 324.67, 771.54 325.33, 770.95 326.0, 770.36 326.67, 769.78 327.33, 769.19 328.0, 768.61 328.67, 768.02 329.33, 767.44 330.0, 766.86 330.67, 766.28 331.33, 765.71 332.0, 765.13 332.67, 764.56 333.33, 763.99 334.0, 763.42 334.67, 762.85 335.33, 762.28 336.0, 761.72 336.67, 761.15 337.33, 760.59 338.0, 760.03 338.67, 759.48 339.33, 758.92 340.0, 758.37 340.67, 757.82 341.33, 757.28 342.0, 756.73 342.67, 756.19 343.33, 755.65 344.0, 755.11 344.67, 754.58 345.33, 754.04 346.0, 753.51 346.67, 752.99 347.33, 752.46 348.0, 751.94 348.67, 751.42 349.33, 750.91 350.0, 750.4 350.67, 749.89 351.33, 749.38 352.0, 748.88 352.67, 748.38 353.33, 747.88 354.0, 747.39 354.67, 746.9 355.33, 746.41 356.0, 745.93 356.67, 745.45 357.33, 744.97 358.0, 744.5 358.67, 744.03 359.33, 743.56 360.0, 743.1 360.67, 742.64 361.33, 742.18 362.0, 741.73 362.67, 741.28 363.33, 740.84 364.0, 740.4 364.67, 739.96 365.33, 739.53 366.0, 739.1 366.67, 738.68 367.33, 738.26 368.0, 737.84 368.67, 737.43 369.33, 737.02 370.0, 736.62 370.67, 736.22 371.33, 735.82 372.0, 735.43 372.67, 735.04 373.33, 734.66 374.0, 734.28 374.67, 733.91 375.33, 733.54 376.0, 733.17 376.67, 732.81 377.33, 732.45 378.0, 732.1 378.67, 731.75 379.33, 731.41 380.0, 731.07 380.67, 730.74 381.33, 730.41 382.0, 730.09 382.67, 729.77 383.33, 729.45 384.0, 729.14 384.67, 728.84 385.33, 728.54 386.0, 728.24 386.67, 727.95 387.33, 727.67 388.0, 727.39 388.67, 727.11 389.33, 726.84 390.0, 726.57 390.67, 726.31 391.33, 726.06 392.0, 725.8 392.67, 725.56 393.33, 725.32 394.0, 725.08 394.67, 724.85 395.33, 724.63 396.0, 724.41 396.67, 724.19 397.33, 723.98 398.0, 723.78 398.67, 723.58 399.33, 723.38 400.0, 723.19 400.67, 723.01 401.33, 722.83 402.0, 722.66 402.67, 722.49 403.33, 722.33 404.0, 722.17 404.67, 722.02 405.33, 721.87 406.0, 721.73 406.67, 721.59 407.33, 721.46 408.0, 721.34 408.67, 721.22 409.33, 721.1 410.0, 720.99 410.67, 720.89 411.33, 720.79 412.0, 720.7 412.67, 720.61 413.33, 720.53 414.0, 720.46 414.67, 720.38 415.33, 720.32 416.0, 720.26 416.67, 720.21 417.33, 720.16 418.0, 720.11 418.67, 720.08 419.33, 720.04 420.0, 720.02 420.67, 720.0 421.33, 719.98 422.0, 719.97 422.67, 719.97 423.33, 719.97 424.0, 719.97 424.67, 719.99 425.33, 720.0 426.0, 720.03 426.67, 720.05 427.33, 720.09 428.0, 720.13 428.67, 720.17 429.33, 720.22 430.0, 720.28 430.67, 720.34 431.33, 720.41 432.0, 720.48 432.67, 720.56 433.33, 720.64 434.0, 720.73 434.67, 720.83 435.33, 720.93 436.0, 721.03 436.67, 721.14 437.33, 721.26 438.0, 721.38 438.67, 721.51 439.33, 721.64 440.0, 721.78 440.67, 721.93 441.33, 722.07 442.0, 722.23 442.67, 722.39 443.33, 722.55 444.0, 722.72 444.67, 722.9 445.33, 723.08 446.0, 723.27 446.67, 723.46 447.33, 723.66 448.0, 723.86 448.67, 724.07 449.33, 724.28 450.0, 724.5 450.67, 724.72 451.33, 724.95 452.0, 725.19 452.67, 725.43 453.33, 725.67 454.0, 725.92 454.67, 726.17 455.33, 726.43 456.0, 726.7 456.67, 726.97 457.33, 727.24 458.0, 727.52 458.67, 727.81 459.33, 728.1 460.0, 728.39 460.67, 728.69 461.33, 729.0 462.0, 729.31 462.67, 729.62 463.33, 729.94 464.0, 730.27 464.67, 730.6 465.33, 730.93 466.0, 731.27 466.67, 731.62 467.33, 731.96 468.0, 732.32 468.67, 732.68 469.33, 733.04 470.0, 733.41 470.67, 733.78 471.33, 734.15 472.0, 734.53 472.67, 734.92 473.33, 735.31 474.0, 735.7 474.67, 736.1 475.33, 736.51 476.0, 736.92 476.67, 737.33 477.33, 737.74 478.0, 738.17 478.67, 738.59 479.33, 739.02 480.0, 739.45 480.67, 739.89 481.33, 740.33 482.0, 740.78 482.67, 741.23 483.33, 741.68 484.0, 742.14 484.67, 742.61 485.33, 743.07 486.0, 743.54 486.67, 744.02 487.33, 744.5 488.0, 744.98 488.67, 745.46 489.33, 745.95 490.0, 746.45 490.67, 746.94 491.33, 747.44 492.0, 747.95 492.67, 748.46 493.33, 748.97 494.0, 749.48 494.67, 750.0 495.33, 750.52 496.0, 751.05 496.67, 751.58 497.33, 752.11 498.0, 752.65 498.67, 753.19 499.33, 753.73 500.0, 754.27 500.67, 754.82 501.33, 755.37 502.0, 755.93 502.67, 756.49 503.33, 757.05 504.0, 757.61 504.67, 758.18 505.33, 758.75 506.0, 759.32 506.67, 759.9 507.33, 760.48 508.0, 761.06 508.67, 761.64 509.33, 762.23 510.0, 762.82 510.67, 763.41 511.33, 764.0 512.0, 764.6 512.67, 765.2 513.33, 765.8 514.0, 766.4 514.67, 767.01 515.33, 767.62 516.0, 768.23 516.67, 768.84 517.33, 769.46 518.0, 770.07 518.67, 770.69 519.33, 771.31 520.0, 771.94 520.67, 772.56 521.33, 773.19 522.0, 773.82 522.67, 774.45 523.33, 775.08 524.0, 775.72 524.67, 776.35 525.33, 776.99 526.0, 777.63 526.67, 778.27 527.33, 778.91 528.0, 779.56 528.67, 780.2 529.33, 780.85 530.0, 781.5 530.67, 782.15 531.33, 782.8 532.0, 783.45 532.67, 784.1 533.33, 784.75 534.0, 785.41 534.67, 786.07 535.33, 786.72 536.0, 787.38 536.67, 788.04 537.33, 788.7 538.0, 789.36 538.67, 790.02 539.33, 790.68 540.0, 791.34 540.67, 792.01 541.33, 792.67 542.0, 793.34 542.67, 794.0 543.33, 794.66 544.0, 795.33 544.67, 796.0 545.33, 796.66 546.0, 797.33 546.67, 797.99 547.33, 798.66 548.0, 799.33 548.67, 799.99 549.33, 800.66 550.0, 801.33 550.67, 801.99 551.33, 802.66 552.0, 803.33 552.67, 803.99 553.33, 804.66 554.0, 805.32 554.67, 805.99 555.33, 806.65 556.0, 807.32 556.67, 807.98 557.33, 808.64 558.0, 809.31 558.67, 809.97 559.33, 810.63 560.0, 811.29 560.67, 811.95 561.33, 812.61 562.0, 813.27 562.67, 813.92 563.33, 814.58 564.0, 815.23 564.67, 815.89 565.33, 816.54 566.0, 817.19 566.67, 817.84 567.33, 818.49 568.0, 819.14 568.67, 819.79 569.33, 820.43 570.0, 821.08 570.67, 821.72 571.33, 822.36 572.0, 823.0 572.67, 823.64 573.33, 824.27 574.0, 824.91 574.67, 825.54 575.33, 826.17 576.0, 826.8 576.67, 827.43 577.33, 828.05 578.0, 828.67 578.67, 829.3 579.33, 829.92 580.0, 830.53 580.67, 831.15 581.33, 831.76 582.0, 832.37 582.67, 832.98 583.33, 833.59 584.0, 834.19 584.67, 834.79 585.33, 835.39 586.0, 835.99 586.67, 836.58 587.33, 837.17 588.0, 837.76 588.67, 838.35 589.33, 838.93 590.0, 839.51 590.67, 840.09 591.33, 840.67 592.0, 841.24 592.67, 841.81 593.33, 842.38 594.0, 842.94 594.67, 843.5 595.33, 844.06 596.0, 844.61 596.67, 845.17 597.33, 845.72 598.0, 846.26 598.67, 846.8 599.33, 847.34 600.0, 847.88 600.67, 848.41 601.33, 848.94 602.0, 849.46 602.67, 849.99 603.33, 850.51 604.0, 851.02 604.67, 851.53 605.33, 852.04 606.0, 852.55 606.67, 853.05 607.33, 853.54 608.0, 854.04 608.67, 854.53 609.33, 855.01 610.0, 855.49 610.67, 855.97 611.33, 856.45 612.0, 856.92 612.67, 857.38 613.33, 857.85 614.0, 858.31 614.67, 858.76 615.33, 859.21 616.0, 859.66 616.67, 860.1 617.33, 860.54 618.0, 860.97 618.67, 861.4 619.33, 861.82 620.0, 862.25 620.67, 862.66 621.33, 863.07 622.0, 863.48 622.67, 863.89 623.33, 864.29 624.0, 864.68 624.67, 865.07 625.33, 865.46 626.0, 865.84 626.67, 866.21 627.33, 866.58 628.0, 866.95 628.67, 867.31 629.33, 867.67 630.0, 868.03 630.67, 868.37 631.33, 868.72 632.0, 869.06 632.67, 869.39 633.33, 869.72 634.0, 870.04 634.67, 870.36 635.33, 870.68 636.0, 870.99 636.67, 871.29 637.33, 871.59 638.0, 871.89 638.67, 872.18 639.33, 872.46 640.0, 872.74 640.67, 873.02 641.33, 873.29 642.0, 873.55 642.67, 873.81 643.33, 874.07 644.0, 874.32 644.67, 874.56 645.33, 874.8 646.0, 875.03 646.67, 875.26 647.33, 875.49 648.0, 875.7 648.67, 875.92 649.33, 876.12 650.0, 876.33 650.67, 876.52 651.33, 876.72 652.0, 876.9 652.67, 877.08 653.33, 877.26 654.0, 877.43 654.67, 877.59 655.33, 877.75 656.0, 877.91 656.67, 878.06 657.33, 878.2 658.0, 878.34 658.67, 878.47 659.33, 878.6 660.0, 878.72 660.67, 878.83 661.33, 878.95 662.0, 879.05 662.67, 879.15 663.33, 879.24 664.0, 879.33 664.67, 879.42 665.33, 879.49 666.0, 879.57 666.67, 879.63 667.33, 879.69 668.0, 879.75 668.67, 879.8 669.33, 879.84 670.0, 879.88 670.67, 879.92 671.33, 879.94 672.0, 879.97 672.67, 879.98 673.33, 879.99 674.0, 880.0 674.67, 880.0 675.33, 879.99 676.0, 879.98 676.67, 879.97 677.33, 879.94 678.0, 879.92 678.67, 879.88 679.33, 879.84 680.0, 879.8 680.67, 879.75 681.33, 879.69 682.0, 879.63 682.67, 879.57 683.33, 879.49 684.0, 879.42 684.67, 879.33 685.33, 879.25 686.0, 879.15 686.67, 879.05 687.33, 878.95 688.0, 878.84 688.67, 878.72 689.33, 878.6 690.0, 878.47 690.67, 878.34 691.33, 878.2 692.0, 878.06 692.67, 877.91 693.33, 877.76 694.0, 877.6 694.67, 877.43 695.33, 877.26 696.0, 877.08 696.67, 876.9 697.33, 876.72 698.0, 876.53 698.67, 876.33 699.33, 876.13 700.0, 875.92 700.67, 875.71 701.33, 875.49 702.0, 875.26 702.67, 875.04 703.33, 874.8 704.0, 874.56 704.67, 874.32 705.33, 874.07 706.0, 873.82 706.67, 873.56 707.33, 873.29 708.0, 873.02 708.67, 872.75 709.33, 872.47 710.0, 872.18 710.67, 871.89 711.33, 871.6 712.0, 871.3 712.67, 870.99 713.33, 870.68 714.0, 870.37 714.67, 870.05 715.33, 869.72 716.0, 869.39 716.67, 869.06 717.33, 868.72 718.0, 868.38 718.67, 868.03 719.33, 867.68 720.0, 867.32 720.67, 866.96 721.33, 866.59 722.0, 866.22 722.67, 865.84 723.33, 865.46 724.0, 865.07 724.67, 864.68 725.33, 864.29 726.0, 863.89 726.67, 863.49 727.33, 863.08 728.0, 862.67 728.67, 862.25 729.33, 861.83 730.0, 861.4 730.67, 860.97 731.33, 860.54 732.0, 860.1 732.67, 859.66 733.33, 859.21 734.0, 858.76 734.67, 858.31 735.33, 857.85 736.0, 857.39 736.67, 856.92 737.33, 856.45 738.0, 855.98 738.67, 855.5 739.33, 855.02 740.0, 854.53 740.67, 854.04 741.33, 853.55 742.0, 853.05 742.67, 852.55 743.33, 852.05 744.0, 851.54 744.67, 851.03 745.33, 850.51 746.0, 849.99 746.67, 849.47 747.33, 848.94 748.0, 848.41 748.67, 847.88 749.33, 847.35 750.0, 846.81 750.67, 846.27 751.33, 845.72 752.0, 845.17 752.67, 844.62 753.33, 844.06 754.0, 843.51 754.67, 842.95 755.33, 842.38 756.0, 841.81 756.67, 841.25 757.33, 840.67 758.0, 840.1 758.67, 839.52 759.33, 838.94 760.0, 838.35 760.67, 837.77 761.33, 837.18 762.0, 836.59 762.67, 835.99 763.33, 835.4 764.0, 834.8 764.67, 834.2 765.33, 833.59 766.0, 832.99 766.67, 832.38 767.33, 831.77 768.0, 831.15 768.67, 830.54 769.33, 829.92 770.0, 829.3 770.67, 828.68 771.33, 828.06 772.0, 827.43 772.67, 826.8 773.33, 826.18 774.0, 825.54 774.67, 824.91 775.33, 824.28 776.0, 823.64 776.67, 823.0 777.33, 822.36 778.0, 821.72 778.67, 821.08 779.33, 820.44 780.0, 819.79 780.67, 819.15 781.33, 818.5 782.0, 817.85 782.67, 817.2 783.33, 816.55 784.0, 815.89 784.67, 815.24 785.33, 814.58 786.0, 813.93 786.67, 813.27 787.33, 812.61 788.0, 811.96 788.67, 811.3 789.33, 810.64 790.0, 809.97 790.67, 809.31 791.33, 808.65 792.0, 807.99 792.67, 807.32 793.33, 806.66 794.0, 805.99 794.67, 805.33 795.33, 804.66 796.0, 804.0 796.67, 803.33 797.33, 802.67 798.0, 802.0 798.67, 801.33 799.33, 800.67 800.0, 800.0 800.67, 799.33 801.33, 798.67 802.0, 798.0 802.67, 797.33 803.33, 796.67 804.0, 796.0 804.67, 795.34 805.33, 794.67 806.0, 794.01 806.67, 793.34 807.33, 792.68 808.0, 792.01 808.67, 791.35 809.33, 790.69 810.0, 790.03 810.67, 789.36 811.33, 788.7 812.0, 788.04 812.67, 787.39 813.33, 786.73 814.0, 786.07 814.67, 785.42 815.33, 784.76 816.0, 784.11 816.67, 783.45 817.33, 782.8 818.0, 782.15 818.67, 781.5 819.33, 780.85 820.0, 780.21 820.67, 779.56 821.33, 778.92 822.0, 778.28 822.67, 777.64 823.33, 777.0 824.0, 776.36 824.67, 775.72 825.33, 775.09 826.0, 774.46 826.67, 773.82 827.33, 773.2 828.0, 772.57 828.67, 771.94 829.33, 771.32 830.0, 770.7 830.67, 770.08 831.33, 769.46 832.0, 768.85 832.67, 768.23 833.33, 767.62 834.0, 767.01 834.67, 766.41 835.33, 765.8 836.0, 765.2 836.67, 764.6 837.33, 764.01 838.0, 763.41 838.67, 762.82 839.33, 762.23 840.0, 761.65 840.67, 761.06 841.33, 760.48 842.0, 759.9 842.67, 759.33 843.33, 758.75 844.0, 758.19 844.67, 757.62 845.33, 757.05 846.0, 756.49 846.67, 755.94 847.33, 755.38 848.0, 754.83 848.67, 754.28 849.33, 753.73 850.0, 753.19 850.67, 752.65 851.33, 752.12 852.0, 751.59 852.67, 751.06 853.33, 750.53 854.0, 750.01 854.67, 749.49 855.33, 748.97 856.0, 748.46 856.67, 747.95 857.33, 747.45 858.0, 746.95 858.67, 746.45 859.33, 745.96 860.0, 745.47 860.67, 744.98 861.33, 744.5 862.0, 744.02 862.67, 743.55 863.33, 743.08 864.0, 742.61 864.67, 742.15 865.33, 741.69 866.0, 741.24 866.67, 740.79 867.33, 740.34 868.0, 739.9 868.67, 739.46 869.33, 739.03 870.0, 738.6 870.67, 738.17 871.33, 737.75 872.0, 737.33 872.67, 736.92 873.33, 736.51 874.0, 736.11 874.67, 735.71 875.33, 735.32 876.0, 734.93 876.67, 734.54 877.33, 734.16 878.0, 733.78 878.67, 733.41 879.33, 733.04 880.0, 732.68 880.67, 732.32 881.33, 731.97 882.0, 731.62 882.67, 731.28 883.33, 730.94 884.0, 730.61 884.67, 730.28 885.33, 729.95 886.0, 729.63 886.67, 729.32 887.33, 729.01 888.0, 728.7 888.67, 728.4 889.33, 728.11 890.0, 727.82 890.67, 727.53 891.33, 727.25 892.0, 726.98 892.67, 726.71 893.33, 726.44 894.0, 726.18 894.67, 725.93 895.33, 725.68 896.0, 725.44 896.67, 725.2 897.33, 724.96 898.0, 724.74 898.67, 724.51 899.33, 724.29 900.0, 724.08 900.67, 723.87 901.33, 723.67 902.0, 723.47 902.67, 723.28 903.33, 723.1 904.0, 722.92 904.67, 722.74 905.33, 722.57 906.0, 722.4 906.67, 722.24 907.33, 722.09 908.0, 721.94 908.67, 721.8 909.33, 721.66 910.0, 721.53 910.67, 721.4 911.33, 721.28 912.0, 721.16 912.67, 721.05 913.33, 720.95 914.0, 720.85 914.67, 720.75 915.33, 720.67 916.0, 720.58 916.67, 720.51 917.33, 720.43 918.0, 720.37 918.67, 720.31 919.33, 720.25 920.0, 720.2 920.67, 720.16 921.33, 720.12 922.0, 720.08 922.67, 720.06 923.33, 720.03 924.0, 720.02 924.67, 720.01 925.33, 720.0 926.0, 720.0 926.67, 720.01 927.33, 720.02 928.0, 720.03 928.67, 720.06 929.33, 720.08 930.0, 720.12 930.67, 720.16 931.33, 720.2 932.0, 720.25 932.67, 720.31 933.33, 720.37 934.0, 720.43 934.67, 720.51 935.33, 720.58 936.0, 720.67 936.67, 720.76 937.33, 720.85 938.0, 720.95 938.67, 721.05 939.33, 721.17 940.0, 721.28 940.67, 721.4 941.33, 721.53 942.0, 721.66 942.67, 721.8 943.33, 721.94 944.0, 722.09 944.67, 722.25 945.33, 722.41 946.0, 722.57 946.67, 722.74 947.33, 722.92 948.0, 723.1 948.67, 723.28 949.33, 723.48 950.0, 723.67 950.67, 723.88 951.33, 724.08 952.0, 724.3 952.67, 724.51 953.33, 724.74 954.0, 724.97 954.67, 725.2 955.33, 725.44 956.0, 725.68 956.67, 725.93 957.33, 726.19 958.0, 726.45 958.67, 726.71 959.33, 726.98 960.0, 727.26 960.67, 727.54 961.33, 727.82 962.0, 728.11 962.67, 728.41 963.33, 728.71 964.0, 729.01 964.67, 729.32 965.33, 729.64 966.0, 729.96 966.67, 730.28 967.33, 730.61 968.0, 730.94 968.67, 731.28 969.33, 731.63 970.0, 731.97 970.67, 732.33 971.33, 732.69 972.0, 733.05 972.67, 733.42 973.33, 733.79 974.0, 734.16 974.67, 734.54 975.33, 734.93 976.0, 735.32 976.67, 735.71 977.33, 736.11 978.0, 736.52 978.67, 736.93 979.33, 737.34 980.0, 737.75 980.67, 738.18 981.33, 738.6 982.0, 739.03 982.67, 739.46 983.33, 739.9 984.0, 740.34 984.67, 740.79 985.33, 741.24 986.0, 741.69 986.67, 742.15 987.33, 742.62 988.0, 743.08 988.67, 743.55 989.33, 744.03 990.0, 744.51 990.67, 744.99 991.33, 745.47 992.0, 745.96 992.67, 746.46 993.33, 746.95 994.0, 747.45 994.67, 747.96 995.33, 748.47 996.0, 748.98 996.67, 749.49 997.33, 750.01 998.0, 750.54 998.67, 751.06 999.33, 751.59 1000.0, 752.12 1000.67, 752.66 1001.33, 753.2 1002.0, 753.74 1002.67, 754.28 1003.33, 754.83 1004.0, 755.39 1004.67, 755.94 1005.33, 756.5 1006.0, 757.06 1006.67, 757.62 1007.33, 758.19 1008.0, 758.76 1008.67, 759.33 1009.33, 759.91 1010.0, 760.49 1010.67, 761.07 1011.33, 761.65 1012.0, 762.24 1012.67, 762.83 1013.33, 763.42 1014.0, 764.01 1014.67, 764.61 1015.33, 765.21 1016.0, 765.81 1016.67, 766.41 1017.33, 767.02 1018.0, 767.63 1018.67, 768.24 1019.33, 768.85 1020.0, 769.47 1020.67, 770.08 1021.33, 770.7 1022.0, 771.33 1022.67, 771.95 1023.33, 772.57 1024.0, 773.2 1024.67, 773.83 1025.33, 774.46 1026.0, 775.09 1026.67, 775.73 1027.33, 776.36 1028.0, 777.0 1028.67, 777.64 1029.33, 778.28 1030.0, 778.92 1030.67, 779.57 1031.33, 780.21 1032.0, 780.86 1032.67, 781.51 1033.33, 782.16 1034.0, 782.81 1034.67, 783.46 1035.33, 784.11 1036.0, 784.77 1036.67, 785.42 1037.33, 786.08 1038.0, 786.73 1038.67, 787.39 1039.33, 788.05 1040.0, 788.71 1040.67, 789.37 1041.33, 790.03 1042.0, 790.69 1042.67, 791.36 1043.33, 792.02 1044.0, 792.68 1044.67, 793.35 1045.33, 794.01 1046.0, 794.68 1046.67, 795.34 1047.33, 796.01 1048.0, 796.67 1048.67, 797.34 1049.33, 798.01 1050.0, 798.67 1050.67, 799.34 1051.33, 800.01 1052.0, 800.67 1052.67, 801.34 1053.33, 802.01 1054.0, 802.67 1054.67, 803.34 1055.33, 804.0 1056.0, 804.67 1056.67, 805.34 1057.33, 806.0 1058.0, 806.66 1058.67, 807.33 1059.33, 807.99 1060.0, 808.66 1060.67, 809.32 1061.33, 809.98 1062.0, 810.64 1062.67, 811.3 1063.33, 811.96 1064.0, 812.62 1064.67, 813.28 1065.33, 813.93 1066.0, 814.59 1066.67, 815.25 1067.33, 815.9 1068.0, 816.55 1068.67, 817.2 1069.33, 817.85 1070.0, 818.5 1070.67, 819.15 1071.33, 819.8 1072.0, 820.44 1072.67, 821.09 1073.33, 821.73 1074.0, 822.37 1074.67, 823.01 1075.33, 823.65 1076.0, 824.28 1076.67, 824.92 1077.33, 825.55 1078.0, 826.18 1078.67, 826.81 1079.33, 827.44 1080.0, 828.06 1080.67, 828.69 1081.33, 829.31 1082.0, 829.93 1082.67, 830.54 1083.33, 831.16 1084.0, 831.77 1084.67, 832.38 1085.33, 832.99 1086.0, 833.6 1086.67, 834.2 1087.33, 834.8 1088.0, 835.4 1088.67, 836.0 1089.33, 836.59 1090.0, 837.18 1090.67, 837.77 1091.33, 838.36 1092.0, 838.94 1092.67, 839.52 1093.33, 840.1 1094.0, 840.68 1094.67, 841.25 1095.33, 841.82 1096.0, 842.39 1096.67, 842.95 1097.33, 843.51 1098.0, 844.07 1098.67, 844.63 1099.33, 845.18 1100.0, 845.73 1100.67, 846.27 1101.33, 846.81 1102.0, 847.35 1102.67, 847.89 1103.33, 848.42 1104.0, 848.95 1104.67, 849.48 1105.33, 850.0 1106.0, 850.52 1106.67, 851.03 1107.33, 851.54 1108.0, 852.05 1108.67, 852.56 1109.33, 853.06 1110.0, 853.55 1110.67, 854.05 1111.33, 854.54 1112.0, 855.02 1112.67, 855.5 1113.33, 855.98 1114.0, 856.46 1114.67, 856.93 1115.33, 857.39 1116.0, 857.86 1116.67, 858.32 1117.33, 858.77 1118.0, 859.22 1118.67, 859.67 1119.33, 860.11 1120.0, 860.55 1120.67, 860.98 1121.33, 861.41 1122.0, 861.83 1122.67, 862.26 1123.33, 862.67 1124.0, 863.08 1124.67, 863.49 1125.33, 863.9 1126.0, 864.3 1126.67, 864.69 1127.33, 865.08 1128.0, 865.47 1128.67, 865.85 1129.33, 866.22 1130.0, 866.59 1130.67, 866.96 1131.33, 867.32 1132.0, 867.68 1132.67, 868.04 1133.33, 868.38 1134.0, 868.73 1134.67, 869.07 1135.33, 869.4 1136.0, 869.73 1136.67, 870.06 1137.33, 870.38 1138.0, 870.69 1138.67, 871.0 1139.33, 871.31 1140.0, 871.61 1140.67, 871.9 1141.33, 872.19 1142.0, 872.48 1142.67, 872.76 1143.33, 873.03 1144.0, 873.3 1144.67, 873.57 1145.33, 873.83 1146.0, 874.08 1146.67, 874.33 1147.33, 874.57 1148.0, 874.81 1148.67, 875.05 1149.33, 875.28 1150.0, 875.5 1150.67, 875.72 1151.33, 875.93 1152.0, 876.14 1152.67, 876.34 1153.33, 876.54 1154.0, 876.73 1154.67, 876.92 1155.33, 877.1 1156.0, 877.28 1156.67, 877.45 1157.33, 877.61 1158.0, 877.77 1158.67, 877.93 1159.33, 878.07 1160.0, 878.22 1160.67, 878.36 1161.33, 878.49 1162.0, 878.62 1162.67, 878.74 1163.33, 878.86 1164.0, 878.97 1164.67, 879.07 1165.33, 879.17 1166.0, 879.27 1166.67, 879.36 1167.33, 879.44 1168.0, 879.52 1168.67, 879.59 1169.33, 879.66 1170.0, 879.72 1170.67, 879.78 1171.33, 879.83 1172.0, 879.87 1172.67, 879.91 1173.33, 879.95 1174.0, 879.97 1174.67, 880.0 1175.33, 880.01 1176.0, 880.03 1176.67, 880.03 1177.33, 880.03 1178.0, 880.03 1178.67, 880.02 1179.33, 880.0 1180.0, 879.98 1180.67, 879.96 1181.33, 879.92 1182.0, 879.89 1182.67, 879.84 1183.33, 879.79 1184.0, 879.74 1184.67, 879.68 1185.33, 879.62 1186.0, 879.54 1186.67, 879.47 1187.33, 879.39 1188.0, 879.3 1188.67, 879.21 1189.33, 879.11 1190.0, 879.01 1190.67, 878.9 1191.33, 878.78 1192.0, 878.66 1192.67, 878.54 1193.33, 878.41 1194.0, 878.27 1194.67, 878.13 1195.33, 877.98 1196.0, 877.83 1196.67, 877.67 1197.33, 877.51 1198.0, 877.34 1198.67, 877.17 1199.33, 876.99 1200.0, 876.81 1200.67, 876.62 1201.33, 876.42 1202.0, 876.22 1202.67, 876.02 1203.33, 875.81 1204.0, 875.59 1204.67, 875.37 1205.33, 875.15 1206.0, 874.92 1206.67, 874.68 1207.33, 874.44 1208.0, 874.2 1208.67, 873.94 1209.33, 873.69 1210.0, 873.43 1210.67, 873.16 1211.33, 872.89 1212.0, 872.61 1212.67, 872.33 1213.33, 872.05 1214.0, 871.76 1214.67, 871.46 1215.33, 871.16 1216.0, 870.86 1216.67, 870.55 1217.33, 870.23 1218.0, 869.91 1218.67, 869.59 1219.33, 869.26 1220.0, 868.93 1220.67, 868.59 1221.33, 868.25 1222.0, 867.9 1222.67, 867.55 1223.33, 867.19 1224.0, 866.83 1224.67, 866.46 1225.33, 866.09 1226.0, 865.72 1226.67, 865.34 1227.33, 864.96 1228.0, 864.57 1228.67, 864.18 1229.33, 863.78 1230.0, 863.38 1230.67, 862.98 1231.33, 862.57 1232.0, 862.16 1232.67, 861.74 1233.33, 861.32 1234.0, 860.9 1234.67, 860.47 1235.33, 860.04 1236.0, 859.6 1236.67, 859.16 1237.33, 858.72 1238.0, 858.27 1238.67, 857.82 1239.33, 857.36 1240.0, 856.9 1240.67, 856.44 1241.33, 855.97 1242.0, 855.5 1242.67, 855.03 1243.33, 854.55 1244.0, 854.07 1244.67, 853.59 1245.33, 853.1 1246.0, 852.61 1246.67, 852.12 1247.33, 851.62 1248.0, 851.12 1248.67, 850.62 1249.33, 850.11 1250.0, 849.6 1250.67, 849.09 1251.33, 848.58 1252.0, 848.06 1252.67, 847.54 1253.33, 847.01 1254.0, 846.49 1254.67, 845.96 1255.33, 845.42 1256.0, 844.89 1256.67, 844.35 1257.33, 843.81 1258.0, 843.27 1258.67, 842.72 1259.33, 842.18 1260.0, 841.63 1260.67, 841.08 1261.33, 840.52 1262.0, 839.97 1262.67, 839.41 1263.33, 838.85 1264.0, 838.28 1264.67, 837.72 1265.33, 837.15 1266.0, 836.58 1266.67, 836.01 1267.33, 835.44 1268.0, 834.87 1268.67, 834.29 1269.33, 833.72 1270.0, 833.14 1270.67, 832.56 1271.33, 831.98 1272.0, 831.39 1272.67, 830.81 1273.33, 830.22 1274.0, 829.64 1274.67, 829.05 1275.33, 828.46 1276.0, 827.87 1276.67, 827.28 1277.33, 826.69 1278.0, 826.1 1278.67, 825.5 1279.33, 824.91 1280.0, 824.32 1280.67, 823.72 1281.33, 823.13 1282.0, 822.53 1282.67, 821.93 1283.33, 821.34 1284.0, 820.74 1284.67, 820.14 1285.33, 819.55 1286.0, 818.95 1286.67, 818.35 1287.33, 817.75 1288.0, 817.16 1288.67, 816.56 1289.33, 815.97 1290.0, 815.37 1290.67, 814.77 1291.33, 814.18 1292.0, 813.58 1292.67, 812.99 1293.33, 812.4 1294.0, 811.81 1294.67, 811.21 1295.33, 810.62 1296.0, 810.04 1296.67, 809.45 1297.33, 808.86 1298.0, 808.27 1298.67, 807.69 1299.33, 807.11 1300.0, 806.53 1300.67, 805.95 1301.33, 805.37 1302.0, 804.79 1302.67, 804.22 1303.33, 803.65 1304.0, 803.08 1304.67, 802.51 1305.33, 801.94 1306.0, 801.38 1306.67, 800.82 1307.33, 800.26 1308.0, 799.7 1308.67, 799.15 1309.33, 798.59 1310.0, 798.05 1310.67, 797.5 1311.33, 796.96 1312.0, 796.42 1312.67, 795.88 1313.33, 795.35 1314.0, 794.82 1314.67, 794.29 1315.33, 793.77 1316.0, 793.25 1316.67, 792.74 1317.33, 792.22 1318.0, 791.72 1318.67, 791.21 1319.33, 790.71 1320.0, 790.22 1320.67, 789.73 1321.33, 789.24 1322.0, 788.76 1322.67, 788.28 1323.33, 787.81 1324.0, 787.34 1324.67, 786.88 1325.33, 786.42 1326.0, 785.97 1326.67, 785.52 1327.33, 785.08 1328.0, 784.65 1328.67, 784.22 1329.33, 783.79 1330.0, 783.37 1330.67, 782.96 1331.33, 782.55 1332.0, 782.15 1332.67, 781.76 1333.33, 781.37 1334.0, 780.99 1334.67, 780.62 1335.33, 780.25 1336.0, 779.89 1336.67, 779.54 1337.33, 779.19 1338.0, 778.85 1338.67, 778.52 1339.33, 778.2 1340.0, 777.88 1340.67, 777.58 1341.33, 777.28 1342.0, 776.99 1342.67, 776.7 1343.33, 776.43 1344.0, 776.16 1344.67, 775.91 1345.33, 775.66 1346.0, 775.42 1346.67, 775.19 1347.33, 774.97 1348.0, 774.76 1348.67, 774.56 1349.33, 774.37 1350.0, 774.19 1350.67, 774.02 1351.33, 773.86 1352.0, 773.71 1352.67, 773.57 1353.33, 773.44 1354.0, 773.32 1354.67, 773.21 1355.33, 773.12 1356.0, 773.04 1356.67, 772.96 1357.33, 772.9 1358.0, 772.86 1358.67, 772.82 1359.33, 772.8 1360.0, 772.79 1360.67, 772.79 1361.33, 772.81 1362.0, 772.84 1362.67, 772.88 1363.33, 772.93 1364.0, 773.0 1364.67, 773.09 1365.33, 773.19 1366.0, 773.3 1366.67, 773.42 1367.33, 773.57 1368.0, 773.72 1368.67, 773.9 1369.33, 774.08 1370.0, 774.29 1370.67, 774.51 1371.33, 774.74 1372.0, 775.0 1372.67, 775.27 1373.33, 775.55 1374.0, 775.85 1374.67, 776.17 1375.33, 776.51 1376.0, 776.87 1376.67, 777.24 1377.33, 777.64 1378.0, 778.05 1378.67, 778.48 1379.33, 778.93 1380.0, 779.4 1380.67, 779.89 1381.33, 780.4 1382.0, 780.93 1382.67, 781.48 1383.33, 782.05 1384.0, 782.64 1384.67, 783.25 1385.33, 783.89 1386.0, 784.55 1386.67, 785.23 1387.33, 785.93 1388.0, 786.66 1388.67, 787.4 1389.33, 788.18 1390.0, 788.97 1390.67, 789.8 1391.33, 790.64 1392.0, 791.51 1392.67, 792.41 1393.33, 793.33 1394.0, 794.28 1394.67, 795.26 1395.33, 796.26 1396.0, 797.29 1396.67, 798.34 1397.33, 799.43 1398.0, 800.54 1398.67, 801.68 1399.33, 802.85 1400.0, 804.05 1400.67, 805.28 1401.33, 806.54 1402.0, 807.84 1402.67, 809.16 1403.33, 810.51 1404.0, 811.9 1404.67, 813.32 1405.33, 814.77 1406.0, 816.25 1406.67, 817.77 1407.33, 819.33 1408.0, 820.91 1408.67, 822.54 1409.33, 824.2 1410.0, 825.89 1410.67, 827.62 1411.33, 829.39 1412.0, 831.2 1412.67, 833.05 1413.33, 834.93 1414.0, 836.85 1414.67, 838.82 1415.33, 840.82 1416.0, 842.86 1416.67, 844.95 1417.33, 847.08 1418.0, 849.25 1418.67, 851.46 1419.33, 853.72 1420.0, 856.02 1420.67, 858.37 1421.33, 860.76 1422.0, 863.2 1422.67, 865.69 1423.33, 868.22 1424.0, 870.81 1424.67, 873.44 1425.33, 876.12 1426.0, 878.85 1426.67, 881.63 1427.33, 884.46 1428.0, 887.35 1428.67, 890.29 1429.33, 893.28 1430.0, 896.32 1430.67, 899.42 1431.33, 902.58 1432.0, 905.8 1432.67, 909.07 1433.33, 912.4 1434.0, 915.79 1434.67, 919.24 1435.33, 922.74 1436.0, 926.32 1436.67, 929.95 1437.33, 933.64 1438.0, 937.41 1438.67, 941.23 1439.33, 945.12 1440.0, 949.08 1440.67, 953.1 1441.33, 957.2 1442.0, 961.36 1442.67, 965.59 1443.33, 969.9 1444.0, 974.28 1444.67, 978.73 1445.33, 983.25 1446.0, 987.85 1446.67, 992.53 1447.33, 997.28 1448.0, 1002.11 1448.67, 1007.02 1449.33, 1012.02 1450.0, 1017.09 1450.67, 1022.25 1451.33, 1027.49 1452.0, 1032.81 1452.67, 1038.22 1453.33, 1043.72 1454.0, 1049.31 1454.67, 1054.98 1455.33, 1060.75 1456.0, 1066.61 1456.67, 1072.56 1457.33, 1078.61 1458.0, 1084.76 1458.67, 1091.0 1459.33, 1097.33 1460.0, 1103.77 1460.67, 1110.31 1461.33, 1116.96 1462.0, 1123.7 1462.67, 1130.55 1463.33, 1137.51 1464.0, 1144.58 1464.67, 1151.76 1465.33, 1159.04 1466.0, 1166.44 1466.67, 1173.96 1467.33, 1181.59 1468.0, 1189.33 1468.67, 1197.2 1469.33, 1205.19 1470.0, 1213.29 1470.67, 1221.53 1471.33, 1229.88 1472.0, 1238.37 1472.67, 1246.98 1473.33, 1255.72 1474.0, 1264.6 1474.67, 1273.61 1475.33, 1282.75 1476.0, 1292.03 1476.67, 1301.46 1477.33, 1311.02 1478.0, 1320.72 1478.67, 1330.58 1479.33, 1340.57 1480.0, 1350.72 1480.67, 1361.02 1481.33, 1371.47 1482.0, 1382.07 1482.67, 1392.84 1483.33, 1403.76 1484.0, 1414.84 1484.67, 1426.09 1485.33, 1437.5 1486.0, 1449.08 1486.67, 1460.82 1487.33, 1472.75 1488.0, 1484.84 1488.67, 1497.11 1489.33, 1509.56 1490.0, 1522.2 1490.67, 1535.01 1491.33, 1548.02 1492.0, 1561.21 1492.67, 1574.59 1493.33, 1588.17 1494.0, 1601.94 1494.67, 1615.91 1495.33, 1630.09 1496.0, 1644.46 1496.67, 1659.05 1497.33, 1673.84 1498.0, 1688.85 1498.67, 1704.07 1499.33, 1719.51 1500.0, 1735.17 1500.67, 1751.05 1501.33, 1767.16 1502.0, 1783.5 1502.67, 1800.07 1503.33, 1816.88 1504.0, 1833.93 1504.67, 1851.22 1505.33, 1868.75 1506.0, 1886.53 1506.67, 1904.56 1507.33, 1922.85 1508.0, 1941.39 1508.67, 1960.2 1509.33, 1979.27 1510.0, 1998.61 1510.67, 2018.22 1511.33, 2038.11 1512.0, 2058.27 1512.67, 2078.72 1513.33, 2099.45 1514.0, 2120.47 1514.67, 2141.79 1515.33, 2163.4 1516.0, 2185.31 1516.67, 2207.53 1517.33, 2230.06 1518.0, 2252.9 1518.67, 2276.05 1519.33, 2299.53 1520.0, 2323.33 1520.67, 2347.46 1521.33, 2371.93 1522.0, 2396.73 1522.67, 2421.87 1523.33, 2447.36 1524.0, 2473.2 1524.67, 2499.4 1525.33, 2525.95 1526.0, 2552.87 1526.67, 2580.16 1527.33, 2607.82 1528.0, 2635.86 1528.67, 2664.29 1529.33, 2693.1 1530.0, 2722.3 1530.67, 2751.9 1531.33, 2781.91 1532.0, 2812.32 1532.67, 2843.14 1533.33, 2874.39 1534.0, 2906.06 1534.67, 2938.15 1535.33, 2970.68 1536.0, 3003.65 1536.67, 3037.07 1537.33, 3070.93 1538.0, 3105.26 1538.67, 3140.04 1539.33, 3175.3 1540.0, 3211.02 1540.67, 3247.23 1541.33, 3283.92 1542.0, 3321.11 1542.67, 3358.79 1543.33, 3396.98 1544.0, 3435.68 1544.67, 3474.89 1545.33, 3514.63 1546.0, 3554.9 1546.67, 3595.7 1547.33, 3637.05 1548.0, 3678.94 1548.67, 3721.4 1549.33, 3764.41 1550.0, 3808.0 1550.67, 3852.16 1551.33, 3896.91 1552.0, 3942.25 1552.67, 3988.19 1553.33, 4034.74 1554.0, 4081.9 1554.67, 4129.68 1555.33, 4178.09 1556.0, 4227.14 1556.67, 4276.83 1557.33, 4327.17 1558.0, 4378.18 1558.67, 4429.85 1559.33, 4482.2 1560.0, 4535.23 1560.67, 4588.96 1561.33, 4643.39 1562.0, 4698.53 1562.67, 4754.38 1563.33, 4810.97 1564.0, 4868.29 1564.67, 4926.35 1565.33, 4985.17 1566.0, 5044.76 1566.67, 5105.11 1567.33, 5166.25 1568.0, 5228.18 1568.67, 5290.91 1569.33, 5354.45 1570.0, 5418.81 1570.67, 5484.0 1571.33, 5550.03 1572.0, 5616.91 1572.67, 5684.65 1573.33, 5753.26 1574.0, 5822.75 1574.67, 5893.13 1575.33, 5964.41 1576.0, 6036.61 1576.67, 6109.73 1577.33, 6183.78 1578.0, 6258.79 1578.67, 6334.74 1579.33, 6411.67 1580.0, 6489.57 1580.67, 6568.47 1581.33, 6648.37 1582.0, 6729.28 1582.67, 6811.23 1583.33, 6894.21 1584.0, 6978.24 1584.67, 7063.33 1585.33, 7149.5 1586.0, 7236.76 1586.67, 7325.12 1587.33, 7414.6 1588.0, 7505.2 1588.67, 7596.95 1589.33, 7689.84 1590.0, 7783.91 1590.67, 7879.15 1591.33, 7975.59 1592.0, 8073.24 1592.67, 8172.11 1593.33, 8272.22 1594.0, 8373.58 1594.67, 8476.21 1595.33, 8580.12 1596.0, 8685.32 1596.67, 8791.83 1597.33, 8899.67 1598.0, 9008.85 1598.67, 9119.38 1599.33, 9231.29 1600.0, 9344.58 " fill="none" stroke="white" stroke-width="1.5" stroke-linejoin="round" stroke-opacity="1"/>

 </svg>