<svg version="1.1" 
 baseProfile="full" 
 width="1600" 
 height="1600" 
 xmlns="http://www.w3.org/2000/svg">
<rect x="0.0" y="0.0" width="1600" height="1600" fill="black" stroke="black" stroke-width="0" opacity="1"/>
<line x1="0.0" y1="0.0" x2="0.0" y2="1600.0" stroke="white" stroke-width="1" opacity="0.4" stroke-linecap="butt"/>
<line x1="160.0" y1="0.0" x2="160.0" y2="1600.0" stroke="white" stroke-width="1" opacity="0.4" stroke-linecap="butt"/>
<line x1="320.0" y1="0.0" x2="320.0" y2="1600.0" stroke="white" stroke-width="1" opacity="0.4" stroke-linecap="butt"/>
<line x1="480.0" y1="0.0" x2="480.0" y2="1600.0" stroke="white" stroke-width="1" opacity="0.4" stroke-linecap="butt"/>
<line x1="640.0" y1="0.0" x2="640.0" y2="1600.0" stroke="white" stroke-width="1" opacity="0.4" stroke-linecap="butt"/>
<line x1="800.0" y1="0.0" x2="800.0" y2="1600.0" stroke="white" stroke-width="1" opacity="0.4" stroke-linecap="butt"/>
<line x1="960.0" y1="0.0" x2="960.0" y2="1600.0" stroke="white" stroke-width="1" opacity="0.4" stroke-linecap="butt"/>
<line x1="1120.0" y1="0.0" x2="1120.0" y2="1600.0" stroke="white" stroke-width="1" opacity="0.4" stroke-linecap="butt"/>
<line x1="1280.0" y1="0.0" x2="1280.0" y2="1600.0" stroke="white" stroke-width="1" opacity="0.4" stroke-linecap="butt"/>
<line x1="1440.0" y1="0.0" x2="1440.0" y2="1600.0" stroke="white" stroke-width="1" opacity="0.4" stroke-linecap="butt"/>
<line x1="0.0" y1="0.0" x2="1600.0" y2="0.0" stroke="white" stroke-width="1" opacity="0.4" stroke-linecap="butt"/>
<line x1="0.0" y1="160.0" x2="1600.0" y2="160.0" stroke="white" stroke-width="1" opacity="0.4" stroke-linecap="butt"/>
<line x1="0.0" y1="320.0" x2="1600.0" y2="320.0" stroke="white" stroke-width="1" opacity="0.4" stroke-linecap="butt"/>
<line x1="0.0" y1="480.0" x2="1600.0" y2="480.0" stroke="white" stroke-width="1" opacity="0.4" stroke-linecap="butt"/>
<line x1="0.0" y1="640.0" x2="1600.0" y2="640.0" stroke="white" stroke-width="1" opacity="0.4" stroke-linecap="butt"/>
<line x1="0.0" y1="800.0" x2="1600.0" y2="800.0" stroke="white" stroke-width="1" opacity="0.4" stroke-linecap="butt"/>
<line x1="0.0" y1="960.0" x2="1600.0" y2="960.0" stroke="white" stroke-width="1" opacity="0.4" stroke-linecap="butt"/>
<line x1="0.0" y1="1120.0" x2="1600.0" y2="1120.0" stroke="white" stroke-width="1" opacity="0.4" stroke-linecap="butt"/>
<line x1="0.0" y1="1280.0" x2="1600.0" y2="1280.0" stroke="white" stroke-width="1" opacity="0.4" stroke-linecap="butt"/>
<line x1="0.0" y1="1440.0" x2="1600.0" y2="1440.0" stroke="white" stroke-width="1" opacity="0.4" stroke-linecap="butt"/>
<line x1="0.0" y1="800.0" x2="1600.0" y2="800.0" stroke="yellow" stroke-width="2.5" opacity="1" stroke-linecap="butt"/>
<line x1="800.0" y1="0.0" x2="800.0" y2="1600.0" stroke="yellow" stroke-width="2.5" opacity="1" stroke-linecap="butt"/>
<polygon points="1564.0 816.0, 1604.0 800.0, 1564.0 784.0, 1572.0 800.0" fill="yellow"/><polygon points="816.0 36.0, 800.0 -4.0, 784.0 36.0, 800.0 28.0" fill="yellow"/><polyline points="0.0, -3246.25 0.67, -3196.26 1.33, -3146.82 2.0, -3097.92 2.67, -3049.56 3.33, -3001.73 4.0, -2954.43 4.67, -2907.65 5.33, -2861.38 6.0, -2815.63 6.67, -2770.39 7.33, -2725.65 8.0, -2681.4 8.67, -2637.65 9.33, -2594.39 10.0, -2551.6 10.67, -2509.3 11.33, -2467.46 12.0, -2426.1 12.67, -2385.2 13.33, -2344.75 14.0, -2304.76 14.67, -2265.22 15.33, -2226.13 16.0, -2187.47 16.67, -2149.25 17.33, -2111.47 18.0, -2074.11 18.67, -2037.17 19.33, -2000.65 20.0, -1964.55 20.67, -1928.85 21.33, -1893.56 22.0, -1858.68 22.67, -1824.19 23.33, -1790.09 24.0, -1756.39 24.67, -1723.07 25.33, -1690.13 26.0, -1657.57 26.67, -1625.38 27.33, -1593.56 28.0, -1562.11 28.67, -1531.02 29.33, -1500.29 30.0, -1469.91 30.67, -1439.88 31.33, -1410.21 32.0, -1380.87 32.67, -1351.88 33.33, -1323.22 34.0, -1294.89 34.67, -1266.9 35.33, -1239.23 36.0, -1211.88 36.67, -1184.85 37.33, -1158.14 38.0, -1131.74 38.67, -1105.65 39.33, -1079.87 40.0, -1054.39 40.67, -1029.21 41.33, -1004.32 42.0, -979.73 42.67, -955.42 43.33, -931.41 44.0, -907.68 44.67, -884.23 45.33, -861.05 46.0, -838.15 46.67, -815.53 47.33, -793.17 48.0, -771.08 48.67, -749.25 49.33, -727.68 50.0, -706.37 50.67, -685.31 51.33, -664.51 52.0, -643.95 52.67, -623.64 53.33, -603.58 54.0, -583.76 54.67, -564.17 55.33, -544.82 56.0, -525.7 56.67, -506.82 57.33, -488.16 58.0, -469.73 58.67, -451.52 59.33, -433.54 60.0, -415.77 60.67, -398.21 61.33, -380.88 62.0, -363.75 62.67, -346.83 63.33, -330.12 64.0, -313.61 64.67, -297.3 65.33, -281.19 66.0, -265.29 66.67, -249.57 67.33, -234.05 68.0, -218.72 68.67, -203.58 69.33, -188.63 70.0, -173.86 70.67, -159.27 71.33, -144.87 72.0, -130.64 72.67, -116.59 73.33, -102.72 74.0, -89.01 74.67, -75.48 75.33, -62.12 76.0, -48.92 76.67, -35.89 77.33, -23.02 78.0, -10.31 78.67, 2.24 79.33, 14.63 80.0, 26.86 80.67, 38.94 81.33, 50.87 82.0, 62.65 82.67, 74.28 83.33, 85.76 84.0, 97.09 84.67, 108.28 85.33, 119.33 86.0, 130.24 86.67, 141.01 87.33, 151.65 88.0, 162.14 88.67, 172.5 89.33, 182.73 90.0, 192.83 90.67, 202.8 91.33, 212.64 92.0, 222.36 92.67, 231.94 93.33, 241.41 94.0, 250.75 94.67, 259.97 95.33, 269.07 96.0, 278.06 96.67, 286.92 97.33, 295.67 98.0, 304.31 98.67, 312.83 99.33, 321.25 100.0, 329.55 100.67, 337.74 101.33, 345.83 102.0, 353.81 102.67, 361.68 103.33, 369.45 104.0, 377.12 104.67, 384.68 105.33, 392.14 106.0, 399.51 106.67, 406.78 107.33, 413.95 108.0, 421.02 108.67, 428.0 109.33, 434.89 110.0, 441.68 110.67, 448.38 111.33, 454.99 112.0, 461.52 112.67, 467.95 113.33, 474.3 114.0, 480.56 114.67, 486.73 115.33, 492.82 116.0, 498.83 116.67, 504.76 117.33, 510.6 118.0, 516.37 118.67, 522.05 119.33, 527.66 120.0, 533.19 120.67, 538.64 121.33, 544.01 122.0, 549.31 122.67, 554.54 123.33, 559.7 124.0, 564.78 124.67, 569.79 125.33, 574.73 126.0, 579.6 126.67, 584.4 127.33, 589.13 128.0, 593.8 128.67, 598.4 129.33, 602.93 130.0, 607.4 130.67, 611.81 131.33, 616.15 132.0, 620.42 132.67, 624.64 133.33, 628.8 134.0, 632.89 134.67, 636.93 135.33, 640.9 136.0, 644.82 136.67, 648.68 137.33, 652.48 138.0, 656.23 138.67, 659.92 139.33, 663.56 140.0, 667.14 140.67, 670.66 141.33, 674.14 142.0, 677.56 142.67, 680.93 143.33, 684.25 144.0, 687.52 144.67, 690.74 145.33, 693.91 146.0, 697.03 146.67, 700.1 147.33, 703.12 148.0, 706.1 148.67, 709.03 149.33, 711.91 150.0, 714.75 150.67, 717.54 151.33, 720.29 152.0, 723.0 152.67, 725.66 153.33, 728.28 154.0, 730.85 154.67, 733.39 155.33, 735.88 156.0, 738.33 156.67, 740.75 157.33, 743.12 158.0, 745.45 158.67, 747.74 159.33, 750.0 160.0, 752.21 160.67, 754.39 161.33, 756.53 162.0, 758.64 162.67, 760.71 163.33, 762.74 164.0, 764.74 164.67, 766.7 165.33, 768.63 166.0, 770.52 166.67, 772.38 167.33, 774.2 168.0, 776.0 168.67, 777.76 169.33, 779.48 170.0, 781.18 170.67, 782.84 171.33, 784.47 172.0, 786.08 172.67, 787.65 173.33, 789.19 174.0, 790.7 174.67, 792.18 175.33, 793.64 176.0, 795.06 176.67, 796.46 177.33, 797.82 178.0, 799.16 178.67, 800.48 179.33, 801.76 180.0, 803.02 180.67, 804.25 181.33, 805.46 182.0, 806.64 182.67, 807.79 183.33, 808.92 184.0, 810.03 184.67, 811.11 185.33, 812.16 186.0, 813.19 186.67, 814.2 187.33, 815.19 188.0, 816.15 188.67, 817.08 189.33, 818.0 190.0, 818.89 190.67, 819.76 191.33, 820.61 192.0, 821.44 192.67, 822.24 193.33, 823.03 194.0, 823.79 194.67, 824.53 195.33, 825.26 196.0, 825.96 196.67, 826.64 197.33, 827.3 198.0, 827.95 198.67, 828.57 199.33, 829.17 200.0, 829.76 200.67, 830.33 201.33, 830.88 202.0, 831.41 202.67, 831.92 203.33, 832.42 204.0, 832.89 204.67, 833.35 205.33, 833.8 206.0, 834.22 206.67, 834.63 207.33, 835.02 208.0, 835.4 208.67, 835.76 209.33, 836.11 210.0, 836.44 210.67, 836.75 211.33, 837.05 212.0, 837.33 212.67, 837.6 213.33, 837.85 214.0, 838.09 214.67, 838.31 215.33, 838.52 216.0, 838.72 216.67, 838.9 217.33, 839.07 218.0, 839.22 218.67, 839.36 219.33, 839.49 220.0, 839.6 220.67, 839.71 221.33, 839.79 222.0, 839.87 222.67, 839.93 223.33, 839.98 224.0, 840.02 224.67, 840.05 225.33, 840.07 226.0, 840.07 226.67, 840.06 227.33, 840.04 228.0, 840.01 228.67, 839.97 229.33, 839.91 230.0, 839.85 230.67, 839.78 231.33, 839.69 232.0, 839.59 232.67, 839.49 233.33, 839.37 234.0, 839.25 234.67, 839.11 235.33, 838.96 236.0, 838.81 236.67, 838.64 237.33, 838.47 238.0, 838.28 238.67, 838.09 239.33, 837.89 240.0, 837.68 240.67, 837.46 241.33, 837.23 242.0, 836.99 242.67, 836.74 243.33, 836.49 244.0, 836.23 244.67, 835.96 245.33, 835.68 246.0, 835.39 246.67, 835.1 247.33, 834.8 248.0, 834.49 248.67, 834.17 249.33, 833.85 250.0, 833.52 250.67, 833.18 251.33, 832.83 252.0, 832.48 252.67, 832.12 253.33, 831.76 254.0, 831.38 254.67, 831.01 255.33, 830.62 256.0, 830.23 256.67, 829.83 257.33, 829.43 258.0, 829.02 258.67, 828.6 259.33, 828.18 260.0, 827.76 260.67, 827.32 261.33, 826.89 262.0, 826.44 262.67, 825.99 263.33, 825.54 264.0, 825.08 264.67, 824.62 265.33, 824.15 266.0, 823.67 266.67, 823.19 267.33, 822.71 268.0, 822.22 268.67, 821.73 269.33, 821.23 270.0, 820.73 270.67, 820.23 271.33, 819.72 272.0, 819.2 272.67, 818.69 273.33, 818.16 274.0, 817.64 274.67, 817.11 275.33, 816.58 276.0, 816.04 276.67, 815.5 277.33, 814.96 278.0, 814.41 278.67, 813.86 279.33, 813.31 280.0, 812.75 280.67, 812.19 281.33, 811.63 282.0, 811.06 282.67, 810.5 283.33, 809.93 284.0, 809.35 284.67, 808.78 285.33, 808.2 286.0, 807.62 286.67, 807.03 287.33, 806.45 288.0, 805.86 288.67, 805.27 289.33, 804.68 290.0, 804.09 290.67, 803.49 291.33, 802.9 292.0, 802.3 292.67, 801.7 293.33, 801.09 294.0, 800.49 294.67, 799.88 295.33, 799.28 296.0, 798.67 296.67, 798.06 297.33, 797.45 298.0, 796.84 298.67, 796.23 299.33, 795.61 300.0, 795.0 300.67, 794.38 301.33, 793.77 302.0, 793.15 302.67, 792.53 303.33, 791.91 304.0, 791.29 304.67, 790.68 305.33, 790.06 306.0, 789.44 306.67, 788.82 307.33, 788.19 308.0, 787.57 308.67, 786.95 309.33, 786.33 310.0, 785.71 310.67, 785.09 311.33, 784.47 312.0, 783.85 312.67, 783.23 313.33, 782.61 314.0, 781.99 314.67, 781.37 315.33, 780.75 316.0, 780.14 316.67, 779.52 317.33, 778.9 318.0, 778.29 318.67, 777.67 319.33, 777.06 320.0, 776.45 320.67, 775.83 321.33, 775.22 322.0, 774.61 322.67, 774.0 323.33, 773.39 324.0, 772.79 324.67, 772.18 325.33, 771.58 326.0, 770.98 326.67, 770.38 327.33, 769.78 328.0, 769.18 328.67, 768.58 329.33, 767.99 330.0, 767.39 330.67, 766.8 331.33, 766.21 332.0, 765.63 332.67, 765.04 333.33, 764.46 334.0, 763.88 334.67, 763.3 335.33, 762.72 336.0, 762.14 336.67, 761.57 337.33, 761.0 338.0, 760.43 338.67, 759.87 339.33, 759.3 340.0, 758.74 340.67, 758.18 341.33, 757.63 342.0, 757.07 342.67, 756.52 343.33, 755.97 344.0, 755.43 344.67, 754.89 345.33, 754.35 346.0, 753.81 346.67, 753.28 347.33, 752.74 348.0, 752.22 348.67, 751.69 349.33, 751.17 350.0, 750.65 350.67, 750.13 351.33, 749.62 352.0, 749.11 352.67, 748.61 353.33, 748.1 354.0, 747.61 354.67, 747.11 355.33, 746.62 356.0, 746.13 356.67, 745.64 357.33, 745.16 358.0, 744.68 358.67, 744.21 359.33, 743.74 360.0, 743.27 360.67, 742.81 361.33, 742.35 362.0, 741.89 362.67, 741.44 363.33, 740.99 364.0, 740.55 364.67, 740.11 365.33, 739.67 366.0, 739.24 366.67, 738.81 367.33, 738.39 368.0, 737.97 368.67, 737.55 369.33, 737.14 370.0, 736.73 370.67, 736.33 371.33, 735.93 372.0, 735.54 372.67, 735.15 373.33, 734.76 374.0, 734.38 374.67, 734.0 375.33, 733.63 376.0, 733.26 376.67, 732.9 377.33, 732.54 378.0, 732.19 378.67, 731.84 379.33, 731.49 380.0, 731.15 380.67, 730.82 381.33, 730.49 382.0, 730.16 382.67, 729.84 383.33, 729.52 384.0, 729.21 384.67, 728.9 385.33, 728.6 386.0, 728.3 386.67, 728.01 387.33, 727.72 388.0, 727.44 388.67, 727.16 389.33, 726.89 390.0, 726.63 390.67, 726.36 391.33, 726.11 392.0, 725.85 392.67, 725.61 393.33, 725.36 394.0, 725.13 394.67, 724.89 395.33, 724.67 396.0, 724.45 396.67, 724.23 397.33, 724.02 398.0, 723.81 398.67, 723.61 399.33, 723.42 400.0, 723.23 400.67, 723.04 401.33, 722.86 402.0, 722.69 402.67, 722.52 403.33, 722.36 404.0, 722.2 404.67, 722.05 405.33, 721.9 406.0, 721.76 406.67, 721.62 407.33, 721.49 408.0, 721.36 408.67, 721.24 409.33, 721.13 410.0, 721.02 410.67, 720.91 411.33, 720.81 412.0, 720.72 412.67, 720.63 413.33, 720.55 414.0, 720.47 414.67, 720.4 415.33, 720.34 416.0, 720.28 416.67, 720.22 417.33, 720.17 418.0, 720.13 418.67, 720.09 419.33, 720.06 420.0, 720.03 420.67, 720.01 421.33, 719.99 422.0, 719.98 422.67, 719.98 423.33, 719.98 424.0, 719.99 424.67, 720.0 425.33, 720.01 426.0, 720.04 426.67, 720.06 427.33, 720.1 428.0, 720.14 428.67, 720.18 429.33, 720.23 430.0, 720.29 430.67, 720.35 431.33, 720.42 432.0, 720.49 432.67, 720.57 433.33, 720.65 434.0, 720.74 434.67, 720.83 435.33, 720.93 436.0, 721.04 436.67, 721.15 437.33, 721.27 438.0, 721.39 438.67, 721.52 439.33, 721.65 440.0, 721.79 440.67, 721.93 441.33, 722.08 442.0, 722.23 442.67, 722.39 443.33, 722.56 444.0, 722.73 444.67, 722.91 445.33, 723.09 446.0, 723.27 446.67, 723.47 447.33, 723.66 448.0, 723.86 448.67, 724.07 449.33, 724.29 450.0, 724.5 450.67, 724.73 451.33, 724.96 452.0, 725.19 452.67, 725.43 453.33, 725.67 454.0, 725.92 454.67, 726.18 455.33, 726.44 456.0, 726.7 456.67, 726.97 457.33, 727.25 458.0, 727.53 458.67, 727.81 459.33, 728.1 460.0, 728.4 460.67, 728.7 461.33, 729.0 462.0, 729.31 462.67, 729.63 463.33, 729.95 464.0, 730.27 464.67, 730.6 465.33, 730.93 466.0, 731.27 466.67, 731.62 467.33, 731.97 468.0, 732.32 468.67, 732.68 469.33, 733.04 470.0, 733.41 470.67, 733.78 471.33, 734.15 472.0, 734.54 472.67, 734.92 473.33, 735.31 474.0, 735.71 474.67, 736.1 475.33, 736.51 476.0, 736.92 476.67, 737.33 477.33, 737.75 478.0, 738.17 478.67, 738.59 479.33, 739.02 480.0, 739.45 480.67, 739.89 481.33, 740.33 482.0, 740.78 482.67, 741.23 483.33, 741.69 484.0, 742.14 484.67, 742.61 485.33, 743.07 486.0, 743.54 486.67, 744.02 487.33, 744.5 488.0, 744.98 488.67, 745.46 489.33, 745.95 490.0, 746.45 490.67, 746.94 491.33, 747.44 492.0, 747.95 492.67, 748.46 493.33, 748.97 494.0, 749.48 494.67, 750.0 495.33, 750.53 496.0, 751.05 496.67, 751.58 497.33, 752.11 498.0, 752.65 498.67, 753.19 499.33, 753.73 500.0, 754.27 500.67, 754.82 501.33, 755.38 502.0, 755.93 502.67, 756.49 503.33, 757.05 504.0, 757.61 504.67, 758.18 505.33, 758.75 506.0, 759.32 506.67, 759.9 507.33, 760.48 508.0, 761.06 508.67, 761.64 509.33, 762.23 510.0, 762.82 510.67, 763.41 511.33, 764.0 512.0, 764.6 512.67, 765.2 513.33, 765.8 514.0, 766.4 514.67, 767.01 515.33, 767.62 516.0, 768.23 516.67, 768.84 517.33, 769.46 518.0, 770.07 518.67, 770.69 519.33, 771.31 520.0, 771.94 520.67, 772.56 521.33, 773.19 522.0, 773.82 522.67, 774.45 523.33, 775.08 524.0, 775.72 524.67, 776.35 525.33, 776.99 526.0, 777.63 526.67, 778.27 527.33, 778.91 528.0, 779.56 528.67, 780.2 529.33, 780.85 530.0, 781.5 530.67, 782.15 531.33, 782.8 532.0, 783.45 532.67, 784.1 533.33, 784.75 534.0, 785.41 534.67, 786.07 535.33, 786.72 536.0, 787.38 536.67, 788.04 537.33, 788.7 538.0, 789.36 538.67, 790.02 539.33, 790.68 540.0, 791.34 540.67, 792.01 541.33, 792.67 542.0, 793.34 542.67, 794.0 543.33, 794.66 544.0, 795.33 544.67, 796.0 545.33, 796.66 546.0, 797.33 546.67, 797.99 547.33, 798.66 548.0, 799.33 548.67, 799.99 549.33, 800.66 550.0, 801.33 550.67, 801.99 551.33, 802.66 552.0, 803.33 552.67, 803.99 553.33, 804.66 554.0, 805.32 554.67, 805.99 555.33, 806.65 556.0, 807.32 556.67, 807.98 557.33, 808.64 558.0, 809.31 558.67, 809.97 559.33, 810.63 560.0, 811.29 560.67, 811.95 561.33, 812.61 562.0, 813.27 562.67, 813.92 563.33, 814.58 564.0, 815.23 564.67, 815.89 565.33, 816.54 566.0, 817.19 566.67, 817.84 567.33, 818.49 568.0, 819.14 568.67, 819.79 569.33, 820.43 570.0, 821.08 570.67, 821.72 571.33, 822.36 572.0, 823.0 572.67, 823.64 573.33, 824.27 574.0, 824.91 574.67, 825.54 575.33, 826.17 576.0, 826.8 576.67, 827.43 577.33, 828.05 578.0, 828.67 578.67, 829.3 579.33, 829.92 580.0, 830.53 580.67, 831.15 581.33, 831.76 582.0, 832.37 582.67, 832.98 583.33, 833.59 584.0, 834.19 584.67, 834.79 585.33, 835.39 586.0, 835.99 586.67, 836.58 587.33, 837.17 588.0, 837.76 588.67, 838.35 589.33, 838.93 590.0, 839.51 590.67, 840.09 591.33, 840.67 592.0, 841.24 592.67, 841.81 593.33, 842.38 594.0, 842.94 594.67, 843.5 595.33, 844.06 596.0, 844.61 596.67, 845.17 597.33, 845.72 598.0, 846.26 598.67, 846.8 599.33, 847.34 600.0, 847.88 600.67, 848.41 601.33, 848.94 602.0, 849.46 602.67, 849.99 603.33, 850.51 604.0, 851.02 604.67, 851.53 605.33, 852.04 606.0, 852.55 606.67, 853.05 607.33, 853.54 608.0, 854.04 608.67, 854.53 609.33, 855.01 610.0, 855.49 610.67, 855.97 611.33, 856.45 612.0, 856.92 612.67, 857.38 613.33, 857.85 614.0, 858.31 614.67, 858.76 615.33, 859.21 616.0, 859.66 616.67, 860.1 617.33, 860.54 618.0, 860.97 618.67, 861.4 619.33, 861.82 620.0, 862.25 620.67, 862.66 621.33, 863.07 622.0, 863.48 622.67, 863.89 623.33, 864.29 624.0, 864.68 624.67, 865.07 625.33, 865.46 626.0, 865.84 626.67, 866.21 627.33, 866.58 628.0, 866.95 628.67, 867.31 629.33, 867.67 630.0, 868.03 630.67, 868.37 631.33, 868.72 632.0, 869.06 632.67, 869.39 633.33, 869.72 634.0, 870.04 634.67, 870.36 635.33, 870.68 636.0, 870.99 636.67, 871.29 637.33, 871.59 638.0, 871.89 638.67, 872.18 639.33, 872.46 640.0, 872.74 640.67, 873.02 641.33, 873.29 642.0, 873.55 642.67, 873.81 643.33, 874.07 644.0, 874.32 644.67, 874.56 645.33, 874.8 646.0, 875.03 646.67, 875.26 647.33, 875.49 648.0, 875.7 648.67, 875.92 649.33, 876.12 650.0, 876.33 650.67, 876.52 651.33, 876.72 652.0, 876.9 652.67, 877.08 653.33, 877.26 654.0, 877.43 654.67, 877.59 655.33, 877.75 656.0, 877.91 656.67, 878.06 657.33, 878.2 658.0, 878.34 658.67, 878.47 659.33, 878.6 660.0, 878.72 660.67, 878.83 661.33, 878.95 662.0, 879.05 662.67, 879.15 663.33, 879.24 664.0, 879.33 664.67, 879.42 665.33, 879.49 666.0, 879.57 666.67, 879.63 667.33, 879.69 668.0, 879.75 668.67, 879.8 669.33, 879.84 670.0, 879.88 670.67, 879.92 671.33, 879.94 672.0, 879.97 672.67, 879.98 673.33, 879.99 674.0, 880.0 674.67, 880.0 675.33, 879.99 676.0, 879.98 676.67, 879.97 677.33, 879.94 678.0, 879.92 678.67, 879.88 679.33, 879.84 680.0, 879.8 680.67, 879.75 681.33, 879.69 682.0, 879.63 682.67, 879.57 683.33, 879.49 684.0, 879.42 684.67, 879.33 685.33, 879.25 686.0, 879.15 686.67, 879.05 687.33, 878.95 688.0, 878.84 688.67, 878.72 689.33, 878.6 690.0, 878.47 690.67, 878.34 691.33, 878.2 692.0, 878.06 692.67, 877.91 693.33, 877.76 694.0, 877.6 694.67, 877.43 695.33, 877.26 696.0, 877.08 696.67, 876.9 697.33, 876.72 698.0, 876.53 698.67, 876.33 699.33, 876.13 700.0, 875.92 700.67, 875.71 701.33, 875.49 702.0, 875.26 702.67, 875.04 703.33, 874.8 704.0, 874.56 704.67, 874.32 705.33, 874.07 706.0, 873.82 706.67, 873.56 707.33, 873.29 708.0, 873.02 708.67, 872.75 709.33, 872.47 710.0, 872.18 710.67, 871.89 711.33, 871.6 712.0, 871.3 712.67, 870.99 713.33, 870.68 714.0, 870.37 714.67, 870.05 715.33, 869.72 716.0, 869.39 716.67, 869.06 717.33, 868.72 718.0, 868.38 718.67, 868.03 719.33, 867.68 720.0, 867.32 720.67, 866.96 721.33, 866.59 722.0, 866.22 722.67, 865.84 723.33, 865.46 724.0, 865.07 724.67, 864.68 725.33, 864.29 726.0, 863.89 726.67, 863.49 727.33, 863.08 728.0, 862.67 728.67, 862.25 729.33, 861.83 730.0, 861.4 730.67, 860.97 731.33, 860.54 732.0, 860.1 732.67, 859.66 733.33, 859.21 734.0, 858.76 734.67, 858.31 735.33, 857.85 736.0, 857.39 736.67, 856.92 737.33, 856.45 738.0, 855.98 738.67, 855.5 739.33, 855.02 740.0, 854.53 740.67, 854.04 741.33, 853.55 742.0, 853.05 742.67, 852.55 743.33, 852.05 744.0, 851.54 744.67, 851.03 745.33, 850.51 746.0, 849.99 746.67, 849.47 747.33, 848.94 748.0, 848.41 748.67, 847.88 749.33, 847.35 750.0, 846.81 750.67, 846.27 751.33, 845.72 752.0, 845.17 752.67, 844.62 753.33, 844.06 754.0, 843.51 754.67, 842.95 755.33, 842.38 756.0, 841.81 756.67, 841.25 757.33, 840.67 758.0, 840.1 758.67, 839.52 759.33, 838.94 760.0, 838.35 760.67, 837.77 761.33, 837.18 762.0, 836.59 762.67, 835.99 763.33, 835.4 764.0, 834.8 764.67, 834.2 765.33, 833.59 766.0, 832.99 766.67, 832.38 767.33, 831.77 768.0, 831.15 768.67, 830.54 769.33, 829.92 770.0, 829.3 770.67, 828.68 771.33, 828.06 772.0, 827.43 772.67, 826.8 773.33, 826.18 774.0, 825.54 774.67, 824.91 775.33, 824.28 776.0, 823.64 776.67, 823.0 777.33, 822.36 778.0, 821.72 778.67, 821.08 779.33, 820.44 780.0, 819.79 780.67, 819.15 781.33, 818.5 782.0, 817.85 782.67, 817.2 783.33, 816.55 784.0, 815.89 784.67, 815.24 785.33, 814.58 786.0, 813.93 786.67, 813.27 787.33, 812.61 788.0, 811.96 788.67, 811.3 789.33, 810.64 790.0, 809.97 790.67, 809.31 791.33, 808.65 792.0, 807.99 792.67, 807.32 793.33, 806.66 794.0, 805.99 794.67, 805.33 795.33, 804.66 796.0, 804.0 796.67, 803.33 797.33, 802.67 798.0, 802.0 798.67, 801.33 799.33, 800.67 800.0, 800.0 800.67, 799.33 801.33, 798.67 802.0, 798.0 802.67, 797.33 803.33, 796.67 804.0, 796.0 804.67, 795.34 805.33, 794.67 806.0, 794.01 806.67, 793.34 807.33, 792.68 808.0, 792.01 808.67, 791.35 809.33, 790.69 810.0, 790.03 810.67, 789.36 811.33, 788.7 812.0, 788.04 812.67, 787.39 813.33, 786.73 814.0, 786.07 814.67, 785.42 815.33, 784.76 816.0, 784.11 816.67, 783.45 817.33, 782.8 818.0, 782.15 818.67, 781.5 819.33, 780.85 820.0, 780.21 820.67, 779.56 821.33, 778.92 822.0, 778.28 822.67, 777.64 823.33, 777.0 824.0, 776.36 824.67, 775.72 825.33, 775.09 826.0, 774.46 826.67, 773.82 827.33, 773.2 828.0, 772.57 828.67, 771.94 829.33, 771.32 830.0, 770.7 830.67, 770.08 831.33, 769.46 832.0, 768.85 832.67, 768.23 833.33, 767.62 834.0, 767.01 834.67, 766.41 835.33, 765.8 836.0, 765.2 836.67, 764.6 837.33, 764.01 838.0, 763.41 838.67, 762.82 839.33, 762.23 840.0, 761.65 840.67, 761.06 841.33, 760.48 842.0, 759.9 842.67, 759.33 843.33, 758.75 844.0, 758.19 844.67, 757.62 845.33, 757.05 846.0, 756.49 846.67, 755.94 847.33, 755.38 848.0, 754.83 848.67, 754.28 849.33, 753.73 850.0, 753.19 850.67, 752.65 851.33, 752.12 852.0, 751.59 852.67, 751.06 853.33, 750.53 854.0, 750.01 854.67, 749.49 855.33, 748.97 856.0, 748.46 856.67, 747.95 857.33, 747.45 858.0, 746.95 858.67, 746.45 859.33, 745.96 860.0, 745.47 860.67, 744.98 861.33, 744.5 862.0, 744.02 862.67, 743.55 863.33, 743.08 864.0, 742.61 864.67, 742.15 865.33, 741.69 866.0, 741.24 866.67, 740.79 867.33, 740.34 868.0, 739.9 868.67, 739.46 869.33, 739.03 870.0, 738.6 870.67, 738.17 871.33, 737.75 872.0, 737.33 872.67, 736.92 873.33, 736.51 874.0, 736.11 874.67, 735.71 875.33, 735.32 876.0, 734.93 876.67, 734.54 877.33, 734.16 878.0, 733.78 878.67, 733.41 879.33, 733.04 880.0, 732.68 880.67, 732.32 881.33, 731.97 882.0, 731.62 882.67, 731.28 883.33, 730.94 884.0, 730.61 884.67, 730.28 885.33, 729.95 886.0, 729.63 886.67, 729.32 887.33, 729.01 888.0, 728.7 888.67, 728.4 889.33, 728.11 890.0, 727.82 890.67, 727.53 891.33, 727.25 892.0, 726.98 892.67, 726.71 893.33, 726.44 894.0, 726.18 894.67, 725.93 895.33, 725.68 896.0, 725.44 896.67, 725.2 897.33, 724.96 898.0, 724.74 898.67, 724.51 899.33, 724.29 900.0, 724.08 900.67, 723.87 901.33, 723.67 902.0, 723.47 902.67, 723.28 903.33, 723.1 904.0, 722.92 904.67, 722.74 905.33, 722.57 906.0, 722.4 906.67, 722.24 907.33, 722.09 908.0, 721.94 908.67, 721.8 909.33, 721.66 910.0, 721.53 910.67, 721.4 911.33, 721.28 912.0, 721.16 912.67, 721.05 913.33, 720.95 914.0, 720.85 914.67, 720.75 915.33, 720.67 916.0, 720.58 916.67, 720.51 917.33, 720.43 918.0, 720.37 918.67, 720.31 919.33, 720.25 920.0, 720.2 920.67, 720.16 921.33, 720.12 922.0, 720.08 922.67, 720.06 923.33, 720.03 924.0, 720.02 924.67, 720.01 925.33, 720.0 926.0, 720.0 926.67, 720.01 927.33, 720.02 928.0, 720.03 928.67, 720.06 929.33, 720.08 930.0, 720.12 930.67, 720.16 931.33, 720.2 932.0, 720.25 932.67, 720.31 933.33, 720.37 934.0, 720.43 934.67, 720.51 935.33, 720.58 936.0, 720.67 936.67, 720.76 937.33, 720.85 938.0, 720.95 938.67, 721.05 939.33, 721.17 940.0, 721.28 940.67, 721.4 941.33, 721.53 942.0, 721.66 942.67, 721.8 943.33, 721.94 944.0, 722.09 944.67, 722.25 945.33, 722.41 946.0, 722.57 946.67, 722.74 947.33, 722.92 948.0, 723.1 948.67, 723.28 949.33, 723.48 950.0, 723.67 950.67, 723.88 951.33, 724.08 952.0, 724.3 952.67, 724.51 953.33, 724.74 954.0, 724.97 954.67, 725.2 955.33, 725.44 956.0, 725.68 956.67, 725.93 957.33, 726.19 958.0, 726.45 958.67, 726.71 959.33, 726.98 960.0, 727.26 960.67, 727.54 961.33, 727.82 962.0, 728.11 962.67, 728.41 963.33, 728.71 964.0, 729.01 964.67, 729.32 965.33, 729.64 966.0, 729.96 966.67, 730.28 967.33, 730.61 968.0, 730.94 968.67, 731.28 969.33, 731.63 970.0, 731.97 970.67, 732.33 971.33, 732.69 972.0, 733.05 972.67, 733.42 973.33, 733.79 974.0, 734.16 974.67, 734.54 975.33, 734.93 976.0, 735.32 976.67, 735.71 977.33, 736.11 978.0, 736.52 978.67, 736.93 979.33, 737.34 980.0, 737.75 980.67, 738.18 981.33, 738.6 982.0, 739.03 982.67, 739.46 983.33, 739.9 984.0, 740.34 984.67, 740.79 985.33, 741.24 986.0, 741.69 986.67, 742.15 987.33, 742.62 988.0, 743.08 988.67, 743.55 989.33, 744.03 990.0, 744.51 990.67, 744.99 991.33, 745.47 992.0, 745.96 992.67, 746.46 993.33, 746.95 994.0, 747.45 994.67, 747.96 995.33, 748.47 996.0, 748.98 996.67, 749.49 997.33, 750.01 998.0, 750.54 998.67, 751.06 999.33, 751.59 1000.0, 752.12 1000.67, 752.66 1001.33, 753.2 1002.0, 753.74 1002.67, 754.28 1003.33, 754.83 1004.0, 755.39 1004.67, 755.94 1005.33, 756.5 1006.0, 757.06 1006.67, 757.62 1007.33, 758.19 1008.0, 758.76 1008.67, 759.33 1009.33, 759.91 1010.0, 760.49 1010.67, 761.07 1011.33, 761.65 1012.0, 762.24 1012.67, 762.83 1013.33, 763.42 1014.0, 764.01 1014.67, 764.61 1015.33, 765.21 1016.0, 765.81 1016.67, 766.41 1017.33, 767.02 1018.0, 767.63 1018.67, 768.24 1019.33, 768.85 1020.0, 769.47 1020.67, 770.08 1021.33, 770.7 1022.0, 771.33 1022.67, 771.95 1023.33, 772.57 1024.0, 773.2 1024.67, 773.83 1025.33, 774.46 1026.0, 775.09 1026.67, 775.73 1027.33, 776.36 1028.0, 777.0 1028.67, 777.64 1029.33, 778.28 1030.0, 778.92 1030.67, 779.57 1031.33, 780.21 1032.0, 780.86 1032.67, 781.51 1033.33, 782.16 1034.0, 782.81 1034.67, 783.46 1035.33, 784.11 1036.0, 784.77 1036.67, 785.42 1037.33, 786.08 1038.0, 786.73 1038.67, 787.39 1039.33, 788.05 1040.0, 788.71 1040.67, 789.37 1041.33, 790.03 1042.0, 790.69 1042.67, 791.36 1043.33, 792.02 1044.0, 792.68 1044.67, 793.35 1045.33, 794.01 1046.0, 794.68 1046.67, 795.34 1047.33, 796.01 1048.0, 796.67 1048.67, 797.34 1049.33, 798.01 1050.0, 798.67 1050.67, 799.34 1051.33, 800.01 1052.0, 800.67 1052.67, 801.34 1053.33, 802.01 1054.0, 802.67 1054.67, 803.34 1055.33, 804.0 1056.0, 804.67 1056.67, 805.34 1057.33, 806.0 1058.0, 806.66 1058.67, 807.33 1059.33, 807.99 1060.0, 808.66 1060.67, 809.32 1061.33, 809.98 1062.0, 810.64 1062.67, 811.3 1063.33, 811.96 1064.0, 812.62 1064.67, 813.28 1065.33, 813.93 1066.0, 814.59 1066.67, 815.25 1067.33, 815.9 1068.0, 816.55 1068.67, 817.2 1069.33, 817.85 1070.0, 818.5 1070.67, 819.15 1071.33, 819.8 1072.0, 820.44 1072.67, 821.09 1073.33, 821.73 1074.0, 822.37 1074.67, 823.01 1075.33, 823.65 1076.0, 824.28 1076.67, 824.92 1077.33, 825.55 1078.0, 826.18 1078.67, 826.81 1079.33, 827.44 1080.0, 828.06 1080.67, 828.69 1081.33, 829.31 1082.0, 829.93 1082.67, 830.54 1083.33, 831.16 1084.0, 831.77 1084.67, 832.38 1085.33, 832.99 1086.0, 833.6 1086.67, 834.2 1087.33, 834.8 1088.0, 835.4 1088.67, 836.0 1089.33, 836.59 1090.0, 837.18 1090.67, 837.77 1091.33, 838.36 1092.0, 838.94 1092.67, 839.52 1093.33, 840.1 1094.0, 840.68 1094.67, 841.25 1095.33, 841.82 1096.0, 842.39 1096.67, 842.95 1097.33, 843.51 1098.0, 844.07 1098.67, 844.62 1099.33, 845.18 1100.0, 845.73 1100.67, 846.27 1101.33, 846.81 1102.0, 847.35 1102.67, 847.89 1103.33, 848.42 1104.0, 848.95 1104.67, 849.47 1105.33, 850.0 1106.0, 850.52 1106.67, 851.03 1107.33, 851.54 1108.0, 852.05 1108.67, 852.56 1109.33, 853.06 1110.0, 853.55 1110.67, 854.05 1111.33, 854.54 1112.0, 855.02 1112.67, 855.5 1113.33, 855.98 1114.0, 856.46 1114.67, 856.93 1115.33, 857.39 1116.0, 857.86 1116.67, 858.31 1117.33, 858.77 1118.0, 859.22 1118.67, 859.67 1119.33, 860.11 1120.0, 860.55 1120.67, 860.98 1121.33, 861.41 1122.0, 861.83 1122.67, 862.25 1123.33, 862.67 1124.0, 863.08 1124.67, 863.49 1125.33, 863.9 1126.0, 864.29 1126.67, 864.69 1127.33, 865.08 1128.0, 865.46 1128.67, 865.85 1129.33, 866.22 1130.0, 866.59 1130.67, 866.96 1131.33, 867.32 1132.0, 867.68 1132.67, 868.03 1133.33, 868.38 1134.0, 868.73 1134.67, 869.07 1135.33, 869.4 1136.0, 869.73 1136.67, 870.05 1137.33, 870.37 1138.0, 870.69 1138.67, 871.0 1139.33, 871.3 1140.0, 871.6 1140.67, 871.9 1141.33, 872.19 1142.0, 872.47 1142.67, 872.75 1143.33, 873.03 1144.0, 873.3 1144.67, 873.56 1145.33, 873.82 1146.0, 874.08 1146.67, 874.33 1147.33, 874.57 1148.0, 874.81 1148.67, 875.04 1149.33, 875.27 1150.0, 875.5 1150.67, 875.71 1151.33, 875.93 1152.0, 876.14 1152.67, 876.34 1153.33, 876.53 1154.0, 876.73 1154.67, 876.91 1155.33, 877.09 1156.0, 877.27 1156.67, 877.44 1157.33, 877.61 1158.0, 877.77 1158.67, 877.92 1159.33, 878.07 1160.0, 878.21 1160.67, 878.35 1161.33, 878.48 1162.0, 878.61 1162.67, 878.73 1163.33, 878.85 1164.0, 878.96 1164.67, 879.07 1165.33, 879.17 1166.0, 879.26 1166.67, 879.35 1167.33, 879.43 1168.0, 879.51 1168.67, 879.58 1169.33, 879.65 1170.0, 879.71 1170.67, 879.77 1171.33, 879.82 1172.0, 879.86 1172.67, 879.9 1173.33, 879.94 1174.0, 879.96 1174.67, 879.99 1175.33, 880.0 1176.0, 880.01 1176.67, 880.02 1177.33, 880.02 1178.0, 880.02 1178.67, 880.01 1179.33, 879.99 1180.0, 879.97 1180.67, 879.94 1181.33, 879.91 1182.0, 879.87 1182.67, 879.83 1183.33, 879.78 1184.0, 879.72 1184.67, 879.66 1185.33, 879.6 1186.0, 879.53 1186.67, 879.45 1187.33, 879.37 1188.0, 879.28 1188.67, 879.19 1189.33, 879.09 1190.0, 878.98 1190.67, 878.87 1191.33, 878.76 1192.0, 878.64 1192.67, 878.51 1193.33, 878.38 1194.0, 878.24 1194.67, 878.1 1195.33, 877.95 1196.0, 877.8 1196.67, 877.64 1197.33, 877.48 1198.0, 877.31 1198.67, 877.14 1199.33, 876.96 1200.0, 876.77 1200.67, 876.58 1201.33, 876.39 1202.0, 876.19 1202.67, 875.98 1203.33, 875.77 1204.0, 875.55 1204.67, 875.33 1205.33, 875.11 1206.0, 874.87 1206.67, 874.64 1207.33, 874.39 1208.0, 874.15 1208.67, 873.89 1209.33, 873.64 1210.0, 873.37 1210.67, 873.11 1211.33, 872.84 1212.0, 872.56 1212.67, 872.28 1213.33, 871.99 1214.0, 871.7 1214.67, 871.4 1215.33, 871.1 1216.0, 870.79 1216.67, 870.48 1217.33, 870.16 1218.0, 869.84 1218.67, 869.51 1219.33, 869.18 1220.0, 868.85 1220.67, 868.51 1221.33, 868.16 1222.0, 867.81 1222.67, 867.46 1223.33, 867.1 1224.0, 866.74 1224.67, 866.37 1225.33, 866.0 1226.0, 865.62 1226.67, 865.24 1227.33, 864.85 1228.0, 864.46 1228.67, 864.07 1229.33, 863.67 1230.0, 863.27 1230.67, 862.86 1231.33, 862.45 1232.0, 862.03 1232.67, 861.61 1233.33, 861.19 1234.0, 860.76 1234.67, 860.33 1235.33, 859.89 1236.0, 859.45 1236.67, 859.01 1237.33, 858.56 1238.0, 858.11 1238.67, 857.65 1239.33, 857.19 1240.0, 856.73 1240.67, 856.26 1241.33, 855.79 1242.0, 855.32 1242.67, 854.84 1243.33, 854.36 1244.0, 853.87 1244.67, 853.38 1245.33, 852.89 1246.0, 852.39 1246.67, 851.9 1247.33, 851.39 1248.0, 850.89 1248.67, 850.38 1249.33, 849.87 1250.0, 849.35 1250.67, 848.83 1251.33, 848.31 1252.0, 847.78 1252.67, 847.26 1253.33, 846.72 1254.0, 846.19 1254.67, 845.65 1255.33, 845.11 1256.0, 844.57 1256.67, 844.03 1257.33, 843.48 1258.0, 842.93 1258.67, 842.37 1259.33, 841.82 1260.0, 841.26 1260.67, 840.7 1261.33, 840.13 1262.0, 839.57 1262.67, 839.0 1263.33, 838.43 1264.0, 837.86 1264.67, 837.28 1265.33, 836.7 1266.0, 836.12 1266.67, 835.54 1267.33, 834.96 1268.0, 834.37 1268.67, 833.79 1269.33, 833.2 1270.0, 832.61 1270.67, 832.01 1271.33, 831.42 1272.0, 830.82 1272.67, 830.22 1273.33, 829.62 1274.0, 829.02 1274.67, 828.42 1275.33, 827.82 1276.0, 827.21 1276.67, 826.61 1277.33, 826.0 1278.0, 825.39 1278.67, 824.78 1279.33, 824.17 1280.0, 823.55 1280.67, 822.94 1281.33, 822.33 1282.0, 821.71 1282.67, 821.1 1283.33, 820.48 1284.0, 819.86 1284.67, 819.25 1285.33, 818.63 1286.0, 818.01 1286.67, 817.39 1287.33, 816.77 1288.0, 816.15 1288.67, 815.53 1289.33, 814.91 1290.0, 814.29 1290.67, 813.67 1291.33, 813.05 1292.0, 812.43 1292.67, 811.81 1293.33, 811.18 1294.0, 810.56 1294.67, 809.94 1295.33, 809.32 1296.0, 808.71 1296.67, 808.09 1297.33, 807.47 1298.0, 806.85 1298.67, 806.23 1299.33, 805.62 1300.0, 805.0 1300.67, 804.39 1301.33, 803.77 1302.0, 803.16 1302.67, 802.55 1303.33, 801.94 1304.0, 801.33 1304.67, 800.72 1305.33, 800.12 1306.0, 799.51 1306.67, 798.91 1307.33, 798.3 1308.0, 797.7 1308.67, 797.1 1309.33, 796.51 1310.0, 795.91 1310.67, 795.32 1311.33, 794.73 1312.0, 794.14 1312.67, 793.55 1313.33, 792.97 1314.0, 792.38 1314.67, 791.8 1315.33, 791.22 1316.0, 790.65 1316.67, 790.07 1317.33, 789.5 1318.0, 788.94 1318.67, 788.37 1319.33, 787.81 1320.0, 787.25 1320.67, 786.69 1321.33, 786.14 1322.0, 785.59 1322.67, 785.04 1323.33, 784.5 1324.0, 783.96 1324.67, 783.42 1325.33, 782.89 1326.0, 782.36 1326.67, 781.84 1327.33, 781.31 1328.0, 780.8 1328.67, 780.28 1329.33, 779.77 1330.0, 779.27 1330.67, 778.77 1331.33, 778.27 1332.0, 777.78 1332.67, 777.29 1333.33, 776.81 1334.0, 776.33 1334.67, 775.85 1335.33, 775.38 1336.0, 774.92 1336.67, 774.46 1337.33, 774.01 1338.0, 773.56 1338.67, 773.11 1339.33, 772.68 1340.0, 772.24 1340.67, 771.82 1341.33, 771.4 1342.0, 770.98 1342.67, 770.57 1343.33, 770.17 1344.0, 769.77 1344.67, 769.38 1345.33, 768.99 1346.0, 768.62 1346.67, 768.24 1347.33, 767.88 1348.0, 767.52 1348.67, 767.17 1349.33, 766.82 1350.0, 766.48 1350.67, 766.15 1351.33, 765.83 1352.0, 765.51 1352.67, 765.2 1353.33, 764.9 1354.0, 764.61 1354.67, 764.32 1355.33, 764.04 1356.0, 763.77 1356.67, 763.51 1357.33, 763.26 1358.0, 763.01 1358.67, 762.77 1359.33, 762.54 1360.0, 762.32 1360.67, 762.11 1361.33, 761.91 1362.0, 761.72 1362.67, 761.53 1363.33, 761.36 1364.0, 761.19 1364.67, 761.04 1365.33, 760.89 1366.0, 760.75 1366.67, 760.63 1367.33, 760.51 1368.0, 760.41 1368.67, 760.31 1369.33, 760.22 1370.0, 760.15 1370.67, 760.09 1371.33, 760.03 1372.0, 759.99 1372.67, 759.96 1373.33, 759.94 1374.0, 759.93 1374.67, 759.93 1375.33, 759.95 1376.0, 759.98 1376.67, 760.02 1377.33, 760.07 1378.0, 760.13 1378.67, 760.21 1379.33, 760.29 1380.0, 760.4 1380.67, 760.51 1381.33, 760.64 1382.0, 760.78 1382.67, 760.93 1383.33, 761.1 1384.0, 761.28 1384.67, 761.48 1385.33, 761.69 1386.0, 761.91 1386.67, 762.15 1387.33, 762.4 1388.0, 762.67 1388.67, 762.95 1389.33, 763.25 1390.0, 763.56 1390.67, 763.89 1391.33, 764.24 1392.0, 764.6 1392.67, 764.98 1393.33, 765.37 1394.0, 765.78 1394.67, 766.2 1395.33, 766.65 1396.0, 767.11 1396.67, 767.58 1397.33, 768.08 1398.0, 768.59 1398.67, 769.12 1399.33, 769.67 1400.0, 770.24 1400.67, 770.83 1401.33, 771.43 1402.0, 772.05 1402.67, 772.7 1403.33, 773.36 1404.0, 774.04 1404.67, 774.74 1405.33, 775.47 1406.0, 776.21 1406.67, 776.97 1407.33, 777.76 1408.0, 778.56 1408.67, 779.39 1409.33, 780.24 1410.0, 781.11 1410.67, 782.0 1411.33, 782.92 1412.0, 783.85 1412.67, 784.81 1413.33, 785.8 1414.0, 786.81 1414.67, 787.84 1415.33, 788.89 1416.0, 789.97 1416.67, 791.08 1417.33, 792.21 1418.0, 793.36 1418.67, 794.54 1419.33, 795.75 1420.0, 796.98 1420.67, 798.24 1421.33, 799.52 1422.0, 800.84 1422.67, 802.18 1423.33, 803.54 1424.0, 804.94 1424.67, 806.36 1425.33, 807.82 1426.0, 809.3 1426.67, 810.81 1427.33, 812.35 1428.0, 813.92 1428.67, 815.53 1429.33, 817.16 1430.0, 818.82 1430.67, 820.52 1431.33, 822.24 1432.0, 824.0 1432.67, 825.8 1433.33, 827.62 1434.0, 829.48 1434.67, 831.37 1435.33, 833.3 1436.0, 835.26 1436.67, 837.26 1437.33, 839.29 1438.0, 841.36 1438.67, 843.47 1439.33, 845.61 1440.0, 847.79 1440.67, 850.0 1441.33, 852.26 1442.0, 854.55 1442.67, 856.88 1443.33, 859.25 1444.0, 861.67 1444.67, 864.12 1445.33, 866.61 1446.0, 869.15 1446.67, 871.72 1447.33, 874.34 1448.0, 877.0 1448.67, 879.71 1449.33, 882.46 1450.0, 885.25 1450.67, 888.09 1451.33, 890.97 1452.0, 893.9 1452.67, 896.88 1453.33, 899.9 1454.0, 902.97 1454.67, 906.09 1455.33, 909.26 1456.0, 912.48 1456.67, 915.75 1457.33, 919.07 1458.0, 922.44 1458.67, 925.86 1459.33, 929.34 1460.0, 932.86 1460.67, 936.44 1461.33, 940.08 1462.0, 943.77 1462.67, 947.52 1463.33, 951.32 1464.0, 955.18 1464.67, 959.1 1465.33, 963.07 1466.0, 967.11 1466.67, 971.2 1467.33, 975.36 1468.0, 979.58 1468.67, 983.85 1469.33, 988.19 1470.0, 992.6 1470.67, 997.07 1471.33, 1001.6 1472.0, 1006.2 1472.67, 1010.87 1473.33, 1015.6 1474.0, 1020.4 1474.67, 1025.27 1475.33, 1030.21 1476.0, 1035.22 1476.67, 1040.3 1477.33, 1045.46 1478.0, 1050.69 1478.67, 1055.99 1479.33, 1061.36 1480.0, 1066.81 1480.67, 1072.34 1481.33, 1077.95 1482.0, 1083.63 1482.67, 1089.4 1483.33, 1095.24 1484.0, 1101.17 1484.67, 1107.18 1485.33, 1113.27 1486.0, 1119.44 1486.67, 1125.7 1487.33, 1132.05 1488.0, 1138.48 1488.67, 1145.01 1489.33, 1151.62 1490.0, 1158.32 1490.67, 1165.11 1491.33, 1172.0 1492.0, 1178.98 1492.67, 1186.05 1493.33, 1193.22 1494.0, 1200.49 1494.67, 1207.86 1495.33, 1215.32 1496.0, 1222.88 1496.67, 1230.55 1497.33, 1238.32 1498.0, 1246.19 1498.67, 1254.17 1499.33, 1262.26 1500.0, 1270.45 1500.67, 1278.75 1501.33, 1287.17 1502.0, 1295.69 1502.67, 1304.33 1503.33, 1313.08 1504.0, 1321.94 1504.67, 1330.93 1505.33, 1340.03 1506.0, 1349.25 1506.67, 1358.59 1507.33, 1368.06 1508.0, 1377.64 1508.67, 1387.36 1509.33, 1397.2 1510.0, 1407.17 1510.67, 1417.27 1511.33, 1427.5 1512.0, 1437.86 1512.67, 1448.35 1513.33, 1458.99 1514.0, 1469.76 1514.67, 1480.67 1515.33, 1491.72 1516.0, 1502.91 1516.67, 1514.24 1517.33, 1525.72 1518.0, 1537.35 1518.67, 1549.13 1519.33, 1561.06 1520.0, 1573.14 1520.67, 1585.37 1521.33, 1597.76 1522.0, 1610.31 1522.67, 1623.02 1523.33, 1635.89 1524.0, 1648.92 1524.67, 1662.12 1525.33, 1675.48 1526.0, 1689.01 1526.67, 1702.72 1527.33, 1716.59 1528.0, 1730.64 1528.67, 1744.87 1529.33, 1759.27 1530.0, 1773.86 1530.67, 1788.63 1531.33, 1803.58 1532.0, 1818.72 1532.67, 1834.05 1533.33, 1849.57 1534.0, 1865.29 1534.67, 1881.19 1535.33, 1897.3 1536.0, 1913.61 1536.67, 1930.12 1537.33, 1946.83 1538.0, 1963.75 1538.67, 1980.88 1539.33, 1998.21 1540.0, 2015.77 1540.67, 2033.54 1541.33, 2051.52 1542.0, 2069.73 1542.67, 2088.16 1543.33, 2106.82 1544.0, 2125.7 1544.67, 2144.82 1545.33, 2164.17 1546.0, 2183.76 1546.67, 2203.58 1547.33, 2223.64 1548.0, 2243.95 1548.67, 2264.51 1549.33, 2285.31 1550.0, 2306.37 1550.67, 2327.68 1551.33, 2349.25 1552.0, 2371.08 1552.67, 2393.17 1553.33, 2415.53 1554.0, 2438.15 1554.67, 2461.05 1555.33, 2484.23 1556.0, 2507.68 1556.67, 2531.41 1557.33, 2555.42 1558.0, 2579.73 1558.67, 2604.32 1559.33, 2629.21 1560.0, 2654.39 1560.67, 2679.87 1561.33, 2705.65 1562.0, 2731.74 1562.67, 2758.14 1563.33, 2784.85 1564.0, 2811.88 1564.67, 2839.23 1565.33, 2866.9 1566.0, 2894.89 1566.67, 2923.22 1567.33, 2951.88 1568.0, 2980.87 1568.67, 3010.21 1569.33, 3039.88 1570.0, 3069.91 1570.67, 3100.29 1571.33, 3131.02 1572.0, 3162.11 1572.67, 3193.56 1573.33, 3225.38 1574.0, 3257.57 1574.67, 3290.13 1575.33, 3323.07 1576.0, 3356.39 1576.67, 3390.09 1577.33, 3424.19 1578.0, 3458.68 1578.67, 3493.56 1579.33, 3528.85 1580.0, 3564.55 1580.67, 3600.65 1581.33, 3637.17 1582.0, 3674.11 1582.67, 3711.47 1583.33, 3749.25 1584.0, 3787.47 1584.67, 3826.13 1585.33, 3865.22 1586.0, 3904.76 1586.67, 3944.75 1587.33, 3985.2 1588.0, 4026.1 1588.67, 4067.46 1589.33, 4109.3 1590.0, 4151.6 1590.67, 4194.39 1591.33, 4237.65 1592.0, 4281.4 1592.67, 4325.65 1593.33, 4370.39 1594.0, 4415.63 1594.67, 4461.38 1595.33, 4507.65 1596.0, 4554.43 1596.67, 4601.73 1597.33, 4649.56 1598.0, 4697.92 1598.67, 4746.82 1599.33, 4796.26 1600.0, 4846.25 " fill="none" stroke="white" stroke-width="1.5" stroke-linejoin="round" stroke-opacity="1"/>

 </svg>