<svg version="1.1" 
 baseProfile="full" 
 width="1600" 
 height="1600" 
 xmlns="http://www.w3.org/2000/svg">
<rect x="0.0" y="0.0" width="1600" height="1600" fill="black" stroke="black" stroke-width="0" opacity="1"/>
<line x1="0.0" y1="0.0" x2="0.0" y2="1600.0" stroke="white" stroke-width="1" opacity="0.4" stroke-linecap="butt"/>
<line x1="160.0" y1="0.0" x2="160.0" y2="1600.0" stroke="white" stroke-width="1" opacity="0.4" stroke-linecap="butt"/>
<line x1="320.0" y1="0.0" x2="320.0" y2="1600.0" stroke="white" stroke-width="1" opacity="0.4" stroke-linecap="butt"/>
<line x1="480.0" y1="0.0" x2="480.0" y2="1600.0" stroke="white" stroke-width="1" opacity="0.4" stroke-linecap="butt"/>
<line x1="640.0" y1="0.0" x2="640.0" y2="1600.0" stroke="white" stroke-width="1" opacity="0.4" stroke-linecap="butt"/>
<line x1="800.0" y1="0.0" x2="800.0" y2="1600.0" stroke="white" stroke-width="1" opacity="0.4" stroke-linecap="butt"/>
<line x1="960.0" y1="0.0" x2="960.0" y2="1600.0" stroke="white" stroke-width="1" opacity="0.4" stroke-linecap="butt"/>
<line x1="1120.0" y1="0.0" x2="1120.0" y2="1600.0" stroke="white" stroke-width="1" opacity="0.4" stroke-linecap="butt"/>
<line x1="1280.0" y1="0.0" x2="1280.0" y2="1600.0" stroke="white" stroke-width="1" opacity="0.4" stroke-linecap="butt"/>
<line x1="1440.0" y1="0.0" x2="1440.0" y2="1600.0" stroke="white" stroke-width="1" opacity="0.4" stroke-linecap="butt"/>
<line x1="0.0" y1="0.0" x2="1600.0" y2="0.0" stroke="white" stroke-width="1" opacity="0.4" stroke-linecap="butt"/>
<line x1="0.0" y1="160.0" x2="1600.0" y2="160.0" stroke="white" stroke-width="1" opacity="0.4" stroke-linecap="butt"/>
<line x1="0.0" y1="320.0" x2="1600.0" y2="320.0" stroke="white" stroke-width="1" opacity="0.4" stroke-linecap="butt"/>
<line x1="0.0" y1="480.0" x2="1600.0" y2="480.0" stroke="white" stroke-width="1" opacity="0.4" stroke-linecap="butt"/>
<line x1="0.0" y1="640.0" x2="1600.0" y2="640.0" stroke="white" stroke-width="1" opacity="0.4" stroke-linecap="butt"/>
<line x1="0.0" y1="800.0" x2="1600.0" y2="800.0" stroke="white" stroke-width="1" opacity="0.4" stroke-linecap="butt"/>
<line x1="0.0" y1="960.0" x2="1600.0" y2="960.0" stroke="white" stroke-width="1" opacity="0.4" stroke-linecap="butt"/>
<line x1="0.0" y1="1120.0" x2="1600.0" y2="1120.0" stroke="white" stroke-width="1" opacity="0.4" stroke-linecap="butt"/>
<line x1="0.0" y1="1280.0" x2="1600.0" y2="1280.0" stroke="white" stroke-width="1" opacity="0.4" stroke-linecap="butt"/>
<line x1="0.0" y1="1440.0" x2="1600.0" y2="1440.0" stroke="white" stroke-width="1" opacity="0.4" stroke-linecap="butt"/>
<line x1="0.0" y1="800.0" x2="1600.0" y2="800.0" stroke="yellow" stroke-width="2.5" opacity="1" stroke-linecap="butt"/>
<line x1="800.0" y1="0.0" x2="800.0" y2="1600.0" stroke="yellow" stroke-width="2.5" opacity="1" stroke-linecap="butt"/>
<polygon points="1564.0 816.0, 1604.0 800.0, 1564.0 784.0, 1572.0 800.0" fill="yellow"/><polygon points="816.0 36.0, 800.0 -4.0, 784.0 36.0, 800.0 28.0" fill="yellow"/><polyline points="0.0, -4370.83 0.67, -4305.02 1.33, -4239.96 2.0, -4175.65 2.67, -4112.08 3.33, -4049.25 4.0, -3987.15 4.67, -3925.76 5.33, -3865.09 6.0, -3805.12 6.67, -3745.85 7.33, -3687.27 8.0, -3629.36 8.67, -3572.14 9.33, -3515.58 10.0, -3459.68 10.67, -3404.43 11.33, -3349.83 12.0, -3295.87 12.67, -3242.55 13.33, -3189.85 14.0, -3137.76 14.67, -3086.29 15.33, -3035.43 16.0, -2985.16 16.67, -2935.49 17.33, -2886.41 18.0, -2837.9 18.67, -2789.97 19.33, -2742.61 20.0, -2695.8 20.67, -2649.56 21.33, -2603.86 22.0, -2558.7 22.67, -2514.09 23.33, -2470.0 24.0, -2426.44 24.67, -2383.4 25.33, -2340.88 26.0, -2298.86 26.67, -2257.35 27.33, -2216.33 28.0, -2175.81 28.67, -2135.77 29.33, -2096.21 30.0, -2057.13 30.67, -2018.52 31.33, -1980.38 32.0, -1942.7 32.67, -1905.47 33.33, -1868.69 34.0, -1832.36 34.67, -1796.47 35.33, -1761.01 36.0, -1725.98 36.67, -1691.38 37.33, -1657.2 38.0, -1623.44 38.67, -1590.09 39.33, -1557.14 40.0, -1524.6 40.67, -1492.45 41.33, -1460.7 42.0, -1429.34 42.67, -1398.36 43.33, -1367.76 44.0, -1337.54 44.67, -1307.69 45.33, -1278.21 46.0, -1249.09 46.67, -1220.33 47.33, -1191.93 48.0, -1163.87 48.67, -1136.16 49.33, -1108.8 50.0, -1081.78 50.67, -1055.09 51.33, -1028.73 52.0, -1002.7 52.67, -976.99 53.33, -951.61 54.0, -926.54 54.67, -901.78 55.33, -877.34 56.0, -853.2 56.67, -829.36 57.33, -805.82 58.0, -782.58 58.67, -759.62 59.33, -736.96 60.0, -714.58 60.67, -692.48 61.33, -670.67 62.0, -649.12 62.67, -627.85 63.33, -606.85 64.0, -586.12 64.67, -565.65 65.33, -545.43 66.0, -525.48 66.67, -505.78 67.33, -486.33 68.0, -467.12 68.67, -448.16 69.33, -429.45 70.0, -410.97 70.67, -392.73 71.33, -374.72 72.0, -356.95 72.67, -339.4 73.33, -322.08 74.0, -304.98 74.67, -288.1 75.33, -271.44 76.0, -254.99 76.67, -238.76 77.33, -222.73 78.0, -206.92 78.67, -191.3 79.33, -175.9 80.0, -160.69 80.67, -145.68 81.33, -130.86 82.0, -116.24 82.67, -101.81 83.33, -87.57 84.0, -73.51 84.67, -59.64 85.33, -45.95 86.0, -32.44 86.67, -19.1 87.33, -5.95 88.0, 7.04 88.67, 19.85 89.33, 32.5 90.0, 44.97 90.67, 57.28 91.33, 69.43 92.0, 81.42 92.67, 93.25 93.33, 104.92 94.0, 116.43 94.67, 127.79 95.33, 139.0 96.0, 150.06 96.67, 160.97 97.33, 171.74 98.0, 182.36 98.67, 192.84 99.33, 203.17 100.0, 213.37 100.67, 223.43 101.33, 233.35 102.0, 243.14 102.67, 252.8 103.33, 262.32 104.0, 271.72 104.67, 280.99 105.33, 290.13 106.0, 299.15 106.67, 308.04 107.33, 316.81 108.0, 325.46 108.67, 334.0 109.33, 342.41 110.0, 350.71 110.67, 358.9 111.33, 366.97 112.0, 374.93 112.67, 382.78 113.33, 390.52 114.0, 398.15 114.67, 405.68 115.33, 413.1 116.0, 420.41 116.67, 427.63 117.33, 434.74 118.0, 441.76 118.67, 448.67 119.33, 455.49 120.0, 462.21 120.67, 468.83 121.33, 475.37 122.0, 481.8 122.67, 488.15 123.33, 494.41 124.0, 500.57 124.67, 506.65 125.33, 512.64 126.0, 518.55 126.67, 524.37 127.33, 530.1 128.0, 535.76 128.67, 541.33 129.33, 546.82 130.0, 552.23 130.67, 557.56 131.33, 562.81 132.0, 567.99 132.67, 573.08 133.33, 578.11 134.0, 583.06 134.67, 587.93 135.33, 592.74 136.0, 597.47 136.67, 602.13 137.33, 606.72 138.0, 611.25 138.67, 615.7 139.33, 620.09 140.0, 624.41 140.67, 628.66 141.33, 632.86 142.0, 636.98 142.67, 641.05 143.33, 645.05 144.0, 648.99 144.67, 652.86 145.33, 656.68 146.0, 660.44 146.67, 664.14 147.33, 667.79 148.0, 671.37 148.67, 674.9 149.33, 678.37 150.0, 681.79 150.67, 685.15 151.33, 688.46 152.0, 691.72 152.67, 694.92 153.33, 698.08 154.0, 701.18 154.67, 704.23 155.33, 707.23 156.0, 710.18 156.67, 713.08 157.33, 715.94 158.0, 718.75 158.67, 721.51 159.33, 724.22 160.0, 726.89 160.67, 729.51 161.33, 732.09 162.0, 734.63 162.67, 737.12 163.33, 739.57 164.0, 741.97 164.67, 744.34 165.33, 746.66 166.0, 748.94 166.67, 751.18 167.33, 753.39 168.0, 755.55 168.67, 757.67 169.33, 759.76 170.0, 761.8 170.67, 763.81 171.33, 765.78 172.0, 767.72 172.67, 769.62 173.33, 771.48 174.0, 773.31 174.67, 775.11 175.33, 776.87 176.0, 778.59 176.67, 780.29 177.33, 781.95 178.0, 783.57 178.67, 785.17 179.33, 786.73 180.0, 788.26 180.67, 789.76 181.33, 791.23 182.0, 792.67 182.67, 794.08 183.33, 795.45 184.0, 796.8 184.67, 798.13 185.33, 799.42 186.0, 800.68 186.67, 801.92 187.33, 803.13 188.0, 804.31 188.67, 805.47 189.33, 806.59 190.0, 807.7 190.67, 808.77 191.33, 809.82 192.0, 810.85 192.67, 811.85 193.33, 812.83 194.0, 813.78 194.67, 814.71 195.33, 815.61 196.0, 816.49 196.67, 817.35 197.33, 818.19 198.0, 819.0 198.67, 819.79 199.33, 820.56 200.0, 821.31 200.67, 822.03 201.33, 822.74 202.0, 823.42 202.67, 824.08 203.33, 824.73 204.0, 825.35 204.67, 825.95 205.33, 826.53 206.0, 827.1 206.67, 827.64 207.33, 828.17 208.0, 828.67 208.67, 829.16 209.33, 829.63 210.0, 830.08 210.67, 830.52 211.33, 830.93 212.0, 831.33 212.67, 831.72 213.33, 832.08 214.0, 832.43 214.67, 832.76 215.33, 833.08 216.0, 833.38 216.67, 833.66 217.33, 833.93 218.0, 834.18 218.67, 834.42 219.33, 834.65 220.0, 834.85 220.67, 835.05 221.33, 835.23 222.0, 835.39 222.67, 835.54 223.33, 835.68 224.0, 835.8 224.67, 835.91 225.33, 836.01 226.0, 836.09 226.67, 836.16 227.33, 836.21 228.0, 836.26 228.67, 836.29 229.33, 836.31 230.0, 836.32 230.67, 836.31 231.33, 836.29 232.0, 836.26 232.67, 836.22 233.33, 836.17 234.0, 836.11 234.67, 836.04 235.33, 835.95 236.0, 835.85 236.67, 835.75 237.33, 835.63 238.0, 835.5 238.67, 835.37 239.33, 835.22 240.0, 835.06 240.67, 834.89 241.33, 834.72 242.0, 834.53 242.67, 834.33 243.33, 834.13 244.0, 833.91 244.67, 833.69 245.33, 833.46 246.0, 833.21 246.67, 832.97 247.33, 832.71 248.0, 832.44 248.67, 832.17 249.33, 831.88 250.0, 831.59 250.67, 831.29 251.33, 830.99 252.0, 830.67 252.67, 830.35 253.33, 830.02 254.0, 829.68 254.67, 829.34 255.33, 828.99 256.0, 828.63 256.67, 828.27 257.33, 827.9 258.0, 827.52 258.67, 827.13 259.33, 826.74 260.0, 826.35 260.67, 825.94 261.33, 825.53 262.0, 825.12 262.67, 824.7 263.33, 824.27 264.0, 823.84 264.67, 823.4 265.33, 822.96 266.0, 822.51 266.67, 822.05 267.33, 821.59 268.0, 821.13 268.67, 820.66 269.33, 820.18 270.0, 819.71 270.67, 819.22 271.33, 818.73 272.0, 818.24 272.67, 817.74 273.33, 817.24 274.0, 816.74 274.67, 816.23 275.33, 815.71 276.0, 815.19 276.67, 814.67 277.33, 814.15 278.0, 813.62 278.67, 813.08 279.33, 812.55 280.0, 812.01 280.67, 811.46 281.33, 810.92 282.0, 810.37 282.67, 809.82 283.33, 809.26 284.0, 808.7 284.67, 808.14 285.33, 807.58 286.0, 807.01 286.67, 806.44 287.33, 805.87 288.0, 805.29 288.67, 804.72 289.33, 804.14 290.0, 803.55 290.67, 802.97 291.33, 802.38 292.0, 801.8 292.67, 801.21 293.33, 800.62 294.0, 800.02 294.67, 799.43 295.33, 798.83 296.0, 798.23 296.67, 797.63 297.33, 797.03 298.0, 796.43 298.67, 795.83 299.33, 795.22 300.0, 794.62 300.67, 794.01 301.33, 793.4 302.0, 792.79 302.67, 792.18 303.33, 791.57 304.0, 790.96 304.67, 790.35 305.33, 789.74 306.0, 789.13 306.67, 788.51 307.33, 787.9 308.0, 787.28 308.67, 786.67 309.33, 786.06 310.0, 785.44 310.67, 784.83 311.33, 784.21 312.0, 783.6 312.67, 782.98 313.33, 782.37 314.0, 781.76 314.67, 781.14 315.33, 780.53 316.0, 779.92 316.67, 779.31 317.33, 778.69 318.0, 778.08 318.67, 777.47 319.33, 776.86 320.0, 776.25 320.67, 775.65 321.33, 775.04 322.0, 774.43 322.67, 773.83 323.33, 773.23 324.0, 772.62 324.67, 772.02 325.33, 771.42 326.0, 770.82 326.67, 770.23 327.33, 769.63 328.0, 769.04 328.67, 768.44 329.33, 767.85 330.0, 767.26 330.67, 766.67 331.33, 766.09 332.0, 765.5 332.67, 764.92 333.33, 764.34 334.0, 763.76 334.67, 763.18 335.33, 762.61 336.0, 762.04 336.67, 761.47 337.33, 760.9 338.0, 760.33 338.67, 759.77 339.33, 759.21 340.0, 758.65 340.67, 758.09 341.33, 757.54 342.0, 756.99 342.67, 756.44 343.33, 755.89 344.0, 755.35 344.67, 754.81 345.33, 754.27 346.0, 753.74 346.67, 753.2 347.33, 752.67 348.0, 752.15 348.67, 751.62 349.33, 751.1 350.0, 750.59 350.67, 750.07 351.33, 749.56 352.0, 749.05 352.67, 748.55 353.33, 748.05 354.0, 747.55 354.67, 747.06 355.33, 746.57 356.0, 746.08 356.67, 745.59 357.33, 745.11 358.0, 744.64 358.67, 744.16 359.33, 743.69 360.0, 743.23 360.67, 742.76 361.33, 742.31 362.0, 741.85 362.67, 741.4 363.33, 740.95 364.0, 740.51 364.67, 740.07 365.33, 739.64 366.0, 739.2 366.67, 738.78 367.33, 738.35 368.0, 737.94 368.67, 737.52 369.33, 737.11 370.0, 736.7 370.67, 736.3 371.33, 735.9 372.0, 735.51 372.67, 735.12 373.33, 734.74 374.0, 734.36 374.67, 733.98 375.33, 733.61 376.0, 733.24 376.67, 732.88 377.33, 732.52 378.0, 732.17 378.67, 731.82 379.33, 731.47 380.0, 731.13 380.67, 730.8 381.33, 730.47 382.0, 730.14 382.67, 729.82 383.33, 729.51 384.0, 729.19 384.67, 728.89 385.33, 728.59 386.0, 728.29 386.67, 728.0 387.33, 727.71 388.0, 727.43 388.67, 727.15 389.33, 726.88 390.0, 726.61 390.67, 726.35 391.33, 726.09 392.0, 725.84 392.67, 725.59 393.33, 725.35 394.0, 725.12 394.67, 724.88 395.33, 724.66 396.0, 724.44 396.67, 724.22 397.33, 724.01 398.0, 723.8 398.67, 723.6 399.33, 723.41 400.0, 723.22 400.67, 723.03 401.33, 722.85 402.0, 722.68 402.67, 722.51 403.33, 722.35 404.0, 722.19 404.67, 722.04 405.33, 721.89 406.0, 721.75 406.67, 721.61 407.33, 721.48 408.0, 721.36 408.67, 721.24 409.33, 721.12 410.0, 721.01 410.67, 720.91 411.33, 720.81 412.0, 720.72 412.67, 720.63 413.33, 720.55 414.0, 720.47 414.67, 720.4 415.33, 720.33 416.0, 720.27 416.67, 720.22 417.33, 720.17 418.0, 720.13 418.67, 720.09 419.33, 720.05 420.0, 720.03 420.67, 720.01 421.33, 719.99 422.0, 719.98 422.67, 719.98 423.33, 719.98 424.0, 719.98 424.67, 719.99 425.33, 720.01 426.0, 720.03 426.67, 720.06 427.33, 720.1 428.0, 720.14 428.67, 720.18 429.33, 720.23 430.0, 720.29 430.67, 720.35 431.33, 720.42 432.0, 720.49 432.67, 720.57 433.33, 720.65 434.0, 720.74 434.67, 720.83 435.33, 720.93 436.0, 721.04 436.67, 721.15 437.33, 721.27 438.0, 721.39 438.67, 721.52 439.33, 721.65 440.0, 721.79 440.67, 721.93 441.33, 722.08 442.0, 722.23 442.67, 722.39 443.33, 722.56 444.0, 722.73 444.67, 722.9 445.33, 723.09 446.0, 723.27 446.67, 723.46 447.33, 723.66 448.0, 723.86 448.67, 724.07 449.33, 724.28 450.0, 724.5 450.67, 724.73 451.33, 724.96 452.0, 725.19 452.67, 725.43 453.33, 725.67 454.0, 725.92 454.67, 726.18 455.33, 726.44 456.0, 726.7 456.67, 726.97 457.33, 727.25 458.0, 727.53 458.67, 727.81 459.33, 728.1 460.0, 728.4 460.67, 728.7 461.33, 729.0 462.0, 729.31 462.67, 729.63 463.33, 729.95 464.0, 730.27 464.67, 730.6 465.33, 730.93 466.0, 731.27 466.67, 731.62 467.33, 731.97 468.0, 732.32 468.67, 732.68 469.33, 733.04 470.0, 733.41 470.67, 733.78 471.33, 734.15 472.0, 734.54 472.67, 734.92 473.33, 735.31 474.0, 735.71 474.67, 736.1 475.33, 736.51 476.0, 736.92 476.67, 737.33 477.33, 737.74 478.0, 738.17 478.67, 738.59 479.33, 739.02 480.0, 739.45 480.67, 739.89 481.33, 740.33 482.0, 740.78 482.67, 741.23 483.33, 741.69 484.0, 742.14 484.67, 742.61 485.33, 743.07 486.0, 743.54 486.67, 744.02 487.33, 744.5 488.0, 744.98 488.67, 745.46 489.33, 745.95 490.0, 746.45 490.67, 746.94 491.33, 747.44 492.0, 747.95 492.67, 748.46 493.33, 748.97 494.0, 749.48 494.67, 750.0 495.33, 750.53 496.0, 751.05 496.67, 751.58 497.33, 752.11 498.0, 752.65 498.67, 753.19 499.33, 753.73 500.0, 754.27 500.67, 754.82 501.33, 755.37 502.0, 755.93 502.67, 756.49 503.33, 757.05 504.0, 757.61 504.67, 758.18 505.33, 758.75 506.0, 759.32 506.67, 759.9 507.33, 760.48 508.0, 761.06 508.67, 761.64 509.33, 762.23 510.0, 762.82 510.67, 763.41 511.33, 764.0 512.0, 764.6 512.67, 765.2 513.33, 765.8 514.0, 766.4 514.67, 767.01 515.33, 767.62 516.0, 768.23 516.67, 768.84 517.33, 769.46 518.0, 770.07 518.67, 770.69 519.33, 771.31 520.0, 771.94 520.67, 772.56 521.33, 773.19 522.0, 773.82 522.67, 774.45 523.33, 775.08 524.0, 775.72 524.67, 776.35 525.33, 776.99 526.0, 777.63 526.67, 778.27 527.33, 778.91 528.0, 779.56 528.67, 780.2 529.33, 780.85 530.0, 781.5 530.67, 782.15 531.33, 782.8 532.0, 783.45 532.67, 784.1 533.33, 784.75 534.0, 785.41 534.67, 786.07 535.33, 786.72 536.0, 787.38 536.67, 788.04 537.33, 788.7 538.0, 789.36 538.67, 790.02 539.33, 790.68 540.0, 791.34 540.67, 792.01 541.33, 792.67 542.0, 793.34 542.67, 794.0 543.33, 794.66 544.0, 795.33 544.67, 796.0 545.33, 796.66 546.0, 797.33 546.67, 797.99 547.33, 798.66 548.0, 799.33 548.67, 799.99 549.33, 800.66 550.0, 801.33 550.67, 801.99 551.33, 802.66 552.0, 803.33 552.67, 803.99 553.33, 804.66 554.0, 805.32 554.67, 805.99 555.33, 806.65 556.0, 807.32 556.67, 807.98 557.33, 808.64 558.0, 809.31 558.67, 809.97 559.33, 810.63 560.0, 811.29 560.67, 811.95 561.33, 812.61 562.0, 813.27 562.67, 813.92 563.33, 814.58 564.0, 815.23 564.67, 815.89 565.33, 816.54 566.0, 817.19 566.67, 817.84 567.33, 818.49 568.0, 819.14 568.67, 819.79 569.33, 820.43 570.0, 821.08 570.67, 821.72 571.33, 822.36 572.0, 823.0 572.67, 823.64 573.33, 824.27 574.0, 824.91 574.67, 825.54 575.33, 826.17 576.0, 826.8 576.67, 827.43 577.33, 828.05 578.0, 828.67 578.67, 829.3 579.33, 829.92 580.0, 830.53 580.67, 831.15 581.33, 831.76 582.0, 832.37 582.67, 832.98 583.33, 833.59 584.0, 834.19 584.67, 834.79 585.33, 835.39 586.0, 835.99 586.67, 836.58 587.33, 837.17 588.0, 837.76 588.67, 838.35 589.33, 838.93 590.0, 839.51 590.67, 840.09 591.33, 840.67 592.0, 841.24 592.67, 841.81 593.33, 842.38 594.0, 842.94 594.67, 843.5 595.33, 844.06 596.0, 844.61 596.67, 845.17 597.33, 845.72 598.0, 846.26 598.67, 846.8 599.33, 847.34 600.0, 847.88 600.67, 848.41 601.33, 848.94 602.0, 849.46 602.67, 849.99 603.33, 850.51 604.0, 851.02 604.67, 851.53 605.33, 852.04 606.0, 852.55 606.67, 853.05 607.33, 853.54 608.0, 854.04 608.67, 854.53 609.33, 855.01 610.0, 855.49 610.67, 855.97 611.33, 856.45 612.0, 856.92 612.67, 857.38 613.33, 857.85 614.0, 858.31 614.67, 858.76 615.33, 859.21 616.0, 859.66 616.67, 860.1 617.33, 860.54 618.0, 860.97 618.67, 861.4 619.33, 861.82 620.0, 862.25 620.67, 862.66 621.33, 863.07 622.0, 863.48 622.67, 863.89 623.33, 864.29 624.0, 864.68 624.67, 865.07 625.33, 865.46 626.0, 865.84 626.67, 866.21 627.33, 866.58 628.0, 866.95 628.67, 867.31 629.33, 867.67 630.0, 868.03 630.67, 868.37 631.33, 868.72 632.0, 869.06 632.67, 869.39 633.33, 869.72 634.0, 870.04 634.67, 870.36 635.33, 870.68 636.0, 870.99 636.67, 871.29 637.33, 871.59 638.0, 871.89 638.67, 872.18 639.33, 872.46 640.0, 872.74 640.67, 873.02 641.33, 873.29 642.0, 873.55 642.67, 873.81 643.33, 874.07 644.0, 874.32 644.67, 874.56 645.33, 874.8 646.0, 875.03 646.67, 875.26 647.33, 875.49 648.0, 875.7 648.67, 875.92 649.33, 876.12 650.0, 876.33 650.67, 876.52 651.33, 876.72 652.0, 876.9 652.67, 877.08 653.33, 877.26 654.0, 877.43 654.67, 877.59 655.33, 877.75 656.0, 877.91 656.67, 878.06 657.33, 878.2 658.0, 878.34 658.67, 878.47 659.33, 878.6 660.0, 878.72 660.67, 878.83 661.33, 878.95 662.0, 879.05 662.67, 879.15 663.33, 879.24 664.0, 879.33 664.67, 879.42 665.33, 879.49 666.0, 879.57 666.67, 879.63 667.33, 879.69 668.0, 879.75 668.67, 879.8 669.33, 879.84 670.0, 879.88 670.67, 879.92 671.33, 879.94 672.0, 879.97 672.67, 879.98 673.33, 879.99 674.0, 880.0 674.67, 880.0 675.33, 879.99 676.0, 879.98 676.67, 879.97 677.33, 879.94 678.0, 879.92 678.67, 879.88 679.33, 879.84 680.0, 879.8 680.67, 879.75 681.33, 879.69 682.0, 879.63 682.67, 879.57 683.33, 879.49 684.0, 879.42 684.67, 879.33 685.33, 879.25 686.0, 879.15 686.67, 879.05 687.33, 878.95 688.0, 878.84 688.67, 878.72 689.33, 878.6 690.0, 878.47 690.67, 878.34 691.33, 878.2 692.0, 878.06 692.67, 877.91 693.33, 877.76 694.0, 877.6 694.67, 877.43 695.33, 877.26 696.0, 877.08 696.67, 876.9 697.33, 876.72 698.0, 876.53 698.67, 876.33 699.33, 876.13 700.0, 875.92 700.67, 875.71 701.33, 875.49 702.0, 875.26 702.67, 875.04 703.33, 874.8 704.0, 874.56 704.67, 874.32 705.33, 874.07 706.0, 873.82 706.67, 873.56 707.33, 873.29 708.0, 873.02 708.67, 872.75 709.33, 872.47 710.0, 872.18 710.67, 871.89 711.33, 871.6 712.0, 871.3 712.67, 870.99 713.33, 870.68 714.0, 870.37 714.67, 870.05 715.33, 869.72 716.0, 869.39 716.67, 869.06 717.33, 868.72 718.0, 868.38 718.67, 868.03 719.33, 867.68 720.0, 867.32 720.67, 866.96 721.33, 866.59 722.0, 866.22 722.67, 865.84 723.33, 865.46 724.0, 865.07 724.67, 864.68 725.33, 864.29 726.0, 863.89 726.67, 863.49 727.33, 863.08 728.0, 862.67 728.67, 862.25 729.33, 861.83 730.0, 861.4 730.67, 860.97 731.33, 860.54 732.0, 860.1 732.67, 859.66 733.33, 859.21 734.0, 858.76 734.67, 858.31 735.33, 857.85 736.0, 857.39 736.67, 856.92 737.33, 856.45 738.0, 855.98 738.67, 855.5 739.33, 855.02 740.0, 854.53 740.67, 854.04 741.33, 853.55 742.0, 853.05 742.67, 852.55 743.33, 852.05 744.0, 851.54 744.67, 851.03 745.33, 850.51 746.0, 849.99 746.67, 849.47 747.33, 848.94 748.0, 848.41 748.67, 847.88 749.33, 847.35 750.0, 846.81 750.67, 846.27 751.33, 845.72 752.0, 845.17 752.67, 844.62 753.33, 844.06 754.0, 843.51 754.67, 842.95 755.33, 842.38 756.0, 841.81 756.67, 841.25 757.33, 840.67 758.0, 840.1 758.67, 839.52 759.33, 838.94 760.0, 838.35 760.67, 837.77 761.33, 837.18 762.0, 836.59 762.67, 835.99 763.33, 835.4 764.0, 834.8 764.67, 834.2 765.33, 833.59 766.0, 832.99 766.67, 832.38 767.33, 831.77 768.0, 831.15 768.67, 830.54 769.33, 829.92 770.0, 829.3 770.67, 828.68 771.33, 828.06 772.0, 827.43 772.67, 826.8 773.33, 826.18 774.0, 825.54 774.67, 824.91 775.33, 824.28 776.0, 823.64 776.67, 823.0 777.33, 822.36 778.0, 821.72 778.67, 821.08 779.33, 820.44 780.0, 819.79 780.67, 819.15 781.33, 818.5 782.0, 817.85 782.67, 817.2 783.33, 816.55 784.0, 815.89 784.67, 815.24 785.33, 814.58 786.0, 813.93 786.67, 813.27 787.33, 812.61 788.0, 811.96 788.67, 811.3 789.33, 810.64 790.0, 809.97 790.67, 809.31 791.33, 808.65 792.0, 807.99 792.67, 807.32 793.33, 806.66 794.0, 805.99 794.67, 805.33 795.33, 804.66 796.0, 804.0 796.67, 803.33 797.33, 802.67 798.0, 802.0 798.67, 801.33 799.33, 800.67 800.0, 800.0 800.67, 799.33 801.33, 798.67 802.0, 798.0 802.67, 797.33 803.33, 796.67 804.0, 796.0 804.67, 795.34 805.33, 794.67 806.0, 794.01 806.67, 793.34 807.33, 792.68 808.0, 792.01 808.67, 791.35 809.33, 790.69 810.0, 790.03 810.67, 789.36 811.33, 788.7 812.0, 788.04 812.67, 787.39 813.33, 786.73 814.0, 786.07 814.67, 785.42 815.33, 784.76 816.0, 784.11 816.67, 783.45 817.33, 782.8 818.0, 782.15 818.67, 781.5 819.33, 780.85 820.0, 780.21 820.67, 779.56 821.33, 778.92 822.0, 778.28 822.67, 777.64 823.33, 777.0 824.0, 776.36 824.67, 775.72 825.33, 775.09 826.0, 774.46 826.67, 773.82 827.33, 773.2 828.0, 772.57 828.67, 771.94 829.33, 771.32 830.0, 770.7 830.67, 770.08 831.33, 769.46 832.0, 768.85 832.67, 768.23 833.33, 767.62 834.0, 767.01 834.67, 766.41 835.33, 765.8 836.0, 765.2 836.67, 764.6 837.33, 764.01 838.0, 763.41 838.67, 762.82 839.33, 762.23 840.0, 761.65 840.67, 761.06 841.33, 760.48 842.0, 759.9 842.67, 759.33 843.33, 758.75 844.0, 758.19 844.67, 757.62 845.33, 757.05 846.0, 756.49 846.67, 755.94 847.33, 755.38 848.0, 754.83 848.67, 754.28 849.33, 753.73 850.0, 753.19 850.67, 752.65 851.33, 752.12 852.0, 751.59 852.67, 751.06 853.33, 750.53 854.0, 750.01 854.67, 749.49 855.33, 748.97 856.0, 748.46 856.67, 747.95 857.33, 747.45 858.0, 746.95 858.67, 746.45 859.33, 745.96 860.0, 745.47 860.67, 744.98 861.33, 744.5 862.0, 744.02 862.67, 743.55 863.33, 743.08 864.0, 742.61 864.67, 742.15 865.33, 741.69 866.0, 741.24 866.67, 740.79 867.33, 740.34 868.0, 739.9 868.67, 739.46 869.33, 739.03 870.0, 738.6 870.67, 738.17 871.33, 737.75 872.0, 737.33 872.67, 736.92 873.33, 736.51 874.0, 736.11 874.67, 735.71 875.33, 735.32 876.0, 734.93 876.67, 734.54 877.33, 734.16 878.0, 733.78 878.67, 733.41 879.33, 733.04 880.0, 732.68 880.67, 732.32 881.33, 731.97 882.0, 731.62 882.67, 731.28 883.33, 730.94 884.0, 730.61 884.67, 730.28 885.33, 729.95 886.0, 729.63 886.67, 729.32 887.33, 729.01 888.0, 728.7 888.67, 728.4 889.33, 728.11 890.0, 727.82 890.67, 727.53 891.33, 727.25 892.0, 726.98 892.67, 726.71 893.33, 726.44 894.0, 726.18 894.67, 725.93 895.33, 725.68 896.0, 725.44 896.67, 725.2 897.33, 724.96 898.0, 724.74 898.67, 724.51 899.33, 724.29 900.0, 724.08 900.67, 723.87 901.33, 723.67 902.0, 723.47 902.67, 723.28 903.33, 723.1 904.0, 722.92 904.67, 722.74 905.33, 722.57 906.0, 722.4 906.67, 722.24 907.33, 722.09 908.0, 721.94 908.67, 721.8 909.33, 721.66 910.0, 721.53 910.67, 721.4 911.33, 721.28 912.0, 721.16 912.67, 721.05 913.33, 720.95 914.0, 720.85 914.67, 720.75 915.33, 720.67 916.0, 720.58 916.67, 720.51 917.33, 720.43 918.0, 720.37 918.67, 720.31 919.33, 720.25 920.0, 720.2 920.67, 720.16 921.33, 720.12 922.0, 720.08 922.67, 720.06 923.33, 720.03 924.0, 720.02 924.67, 720.01 925.33, 720.0 926.0, 720.0 926.67, 720.01 927.33, 720.02 928.0, 720.03 928.67, 720.06 929.33, 720.08 930.0, 720.12 930.67, 720.16 931.33, 720.2 932.0, 720.25 932.67, 720.31 933.33, 720.37 934.0, 720.43 934.67, 720.51 935.33, 720.58 936.0, 720.67 936.67, 720.76 937.33, 720.85 938.0, 720.95 938.67, 721.05 939.33, 721.17 940.0, 721.28 940.67, 721.4 941.33, 721.53 942.0, 721.66 942.67, 721.8 943.33, 721.94 944.0, 722.09 944.67, 722.25 945.33, 722.41 946.0, 722.57 946.67, 722.74 947.33, 722.92 948.0, 723.1 948.67, 723.28 949.33, 723.48 950.0, 723.67 950.67, 723.88 951.33, 724.08 952.0, 724.3 952.67, 724.51 953.33, 724.74 954.0, 724.97 954.67, 725.2 955.33, 725.44 956.0, 725.68 956.67, 725.93 957.33, 726.19 958.0, 726.45 958.67, 726.71 959.33, 726.98 960.0, 727.26 960.67, 727.54 961.33, 727.82 962.0, 728.11 962.67, 728.41 963.33, 728.71 964.0, 729.01 964.67, 729.32 965.33, 729.64 966.0, 729.96 966.67, 730.28 967.33, 730.61 968.0, 730.94 968.67, 731.28 969.33, 731.63 970.0, 731.97 970.67, 732.33 971.33, 732.69 972.0, 733.05 972.67, 733.42 973.33, 733.79 974.0, 734.16 974.67, 734.54 975.33, 734.93 976.0, 735.32 976.67, 735.71 977.33, 736.11 978.0, 736.52 978.67, 736.93 979.33, 737.34 980.0, 737.75 980.67, 738.18 981.33, 738.6 982.0, 739.03 982.67, 739.46 983.33, 739.9 984.0, 740.34 984.67, 740.79 985.33, 741.24 986.0, 741.69 986.67, 742.15 987.33, 742.62 988.0, 743.08 988.67, 743.55 989.33, 744.03 990.0, 744.51 990.67, 744.99 991.33, 745.47 992.0, 745.96 992.67, 746.46 993.33, 746.95 994.0, 747.45 994.67, 747.96 995.33, 748.47 996.0, 748.98 996.67, 749.49 997.33, 750.01 998.0, 750.54 998.67, 751.06 999.33, 751.59 1000.0, 752.12 1000.67, 752.66 1001.33, 753.2 1002.0, 753.74 1002.67, 754.28 1003.33, 754.83 1004.0, 755.39 1004.67, 755.94 1005.33, 756.5 1006.0, 757.06 1006.67, 757.62 1007.33, 758.19 1008.0, 758.76 1008.67, 759.33 1009.33, 759.91 1010.0, 760.49 1010.67, 761.07 1011.33, 761.65 1012.0, 762.24 1012.67, 762.83 1013.33, 763.42 1014.0, 764.01 1014.67, 764.61 1015.33, 765.21 1016.0, 765.81 1016.67, 766.41 1017.33, 767.02 1018.0, 767.63 1018.67, 768.24 1019.33, 768.85 1020.0, 769.47 1020.67, 770.08 1021.33, 770.7 1022.0, 771.33 1022.67, 771.95 1023.33, 772.57 1024.0, 773.2 1024.67, 773.83 1025.33, 774.46 1026.0, 775.09 1026.67, 775.73 1027.33, 776.36 1028.0, 777.0 1028.67, 777.64 1029.33, 778.28 1030.0, 778.92 1030.67, 779.57 1031.33, 780.21 1032.0, 780.86 1032.67, 781.51 1033.33, 782.16 1034.0, 782.81 1034.67, 783.46 1035.33, 784.11 1036.0, 784.77 1036.67, 785.42 1037.33, 786.08 1038.0, 786.73 1038.67, 787.39 1039.33, 788.05 1040.0, 788.71 1040.67, 789.37 1041.33, 790.03 1042.0, 790.69 1042.67, 791.36 1043.33, 792.02 1044.0, 792.68 1044.67, 793.35 1045.33, 794.01 1046.0, 794.68 1046.67, 795.34 1047.33, 796.01 1048.0, 796.67 1048.67, 797.34 1049.33, 798.01 1050.0, 798.67 1050.67, 799.34 1051.33, 800.01 1052.0, 800.67 1052.67, 801.34 1053.33, 802.01 1054.0, 802.67 1054.67, 803.34 1055.33, 804.0 1056.0, 804.67 1056.67, 805.34 1057.33, 806.0 1058.0, 806.66 1058.67, 807.33 1059.33, 807.99 1060.0, 808.66 1060.67, 809.32 1061.33, 809.98 1062.0, 810.64 1062.67, 811.3 1063.33, 811.96 1064.0, 812.62 1064.67, 813.28 1065.33, 813.93 1066.0, 814.59 1066.67, 815.25 1067.33, 815.9 1068.0, 816.55 1068.67, 817.2 1069.33, 817.85 1070.0, 818.5 1070.67, 819.15 1071.33, 819.8 1072.0, 820.44 1072.67, 821.09 1073.33, 821.73 1074.0, 822.37 1074.67, 823.01 1075.33, 823.65 1076.0, 824.28 1076.67, 824.92 1077.33, 825.55 1078.0, 826.18 1078.67, 826.81 1079.33, 827.44 1080.0, 828.06 1080.67, 828.69 1081.33, 829.31 1082.0, 829.93 1082.67, 830.54 1083.33, 831.16 1084.0, 831.77 1084.67, 832.38 1085.33, 832.99 1086.0, 833.6 1086.67, 834.2 1087.33, 834.8 1088.0, 835.4 1088.67, 836.0 1089.33, 836.59 1090.0, 837.18 1090.67, 837.77 1091.33, 838.36 1092.0, 838.94 1092.67, 839.52 1093.33, 840.1 1094.0, 840.68 1094.67, 841.25 1095.33, 841.82 1096.0, 842.39 1096.67, 842.95 1097.33, 843.51 1098.0, 844.07 1098.67, 844.63 1099.33, 845.18 1100.0, 845.73 1100.67, 846.27 1101.33, 846.81 1102.0, 847.35 1102.67, 847.89 1103.33, 848.42 1104.0, 848.95 1104.67, 849.47 1105.33, 850.0 1106.0, 850.52 1106.67, 851.03 1107.33, 851.54 1108.0, 852.05 1108.67, 852.56 1109.33, 853.06 1110.0, 853.55 1110.67, 854.05 1111.33, 854.54 1112.0, 855.02 1112.67, 855.5 1113.33, 855.98 1114.0, 856.46 1114.67, 856.93 1115.33, 857.39 1116.0, 857.86 1116.67, 858.31 1117.33, 858.77 1118.0, 859.22 1118.67, 859.67 1119.33, 860.11 1120.0, 860.55 1120.67, 860.98 1121.33, 861.41 1122.0, 861.83 1122.67, 862.26 1123.33, 862.67 1124.0, 863.08 1124.67, 863.49 1125.33, 863.9 1126.0, 864.29 1126.67, 864.69 1127.33, 865.08 1128.0, 865.46 1128.67, 865.85 1129.33, 866.22 1130.0, 866.59 1130.67, 866.96 1131.33, 867.32 1132.0, 867.68 1132.67, 868.03 1133.33, 868.38 1134.0, 868.73 1134.67, 869.07 1135.33, 869.4 1136.0, 869.73 1136.67, 870.05 1137.33, 870.37 1138.0, 870.69 1138.67, 871.0 1139.33, 871.3 1140.0, 871.6 1140.67, 871.9 1141.33, 872.19 1142.0, 872.47 1142.67, 872.75 1143.33, 873.03 1144.0, 873.3 1144.67, 873.56 1145.33, 873.82 1146.0, 874.08 1146.67, 874.33 1147.33, 874.57 1148.0, 874.81 1148.67, 875.04 1149.33, 875.27 1150.0, 875.5 1150.67, 875.72 1151.33, 875.93 1152.0, 876.14 1152.67, 876.34 1153.33, 876.54 1154.0, 876.73 1154.67, 876.91 1155.33, 877.1 1156.0, 877.27 1156.67, 877.44 1157.33, 877.61 1158.0, 877.77 1158.67, 877.92 1159.33, 878.07 1160.0, 878.21 1160.67, 878.35 1161.33, 878.48 1162.0, 878.61 1162.67, 878.73 1163.33, 878.85 1164.0, 878.96 1164.67, 879.07 1165.33, 879.17 1166.0, 879.26 1166.67, 879.35 1167.33, 879.43 1168.0, 879.51 1168.67, 879.58 1169.33, 879.65 1170.0, 879.71 1170.67, 879.77 1171.33, 879.82 1172.0, 879.86 1172.67, 879.9 1173.33, 879.94 1174.0, 879.97 1174.67, 879.99 1175.33, 880.01 1176.0, 880.02 1176.67, 880.02 1177.33, 880.02 1178.0, 880.02 1178.67, 880.01 1179.33, 879.99 1180.0, 879.97 1180.67, 879.95 1181.33, 879.91 1182.0, 879.87 1182.67, 879.83 1183.33, 879.78 1184.0, 879.73 1184.67, 879.67 1185.33, 879.6 1186.0, 879.53 1186.67, 879.45 1187.33, 879.37 1188.0, 879.28 1188.67, 879.19 1189.33, 879.09 1190.0, 878.99 1190.67, 878.88 1191.33, 878.76 1192.0, 878.64 1192.67, 878.52 1193.33, 878.39 1194.0, 878.25 1194.67, 878.11 1195.33, 877.96 1196.0, 877.81 1196.67, 877.65 1197.33, 877.49 1198.0, 877.32 1198.67, 877.15 1199.33, 876.97 1200.0, 876.78 1200.67, 876.59 1201.33, 876.4 1202.0, 876.2 1202.67, 875.99 1203.33, 875.78 1204.0, 875.56 1204.67, 875.34 1205.33, 875.12 1206.0, 874.88 1206.67, 874.65 1207.33, 874.41 1208.0, 874.16 1208.67, 873.91 1209.33, 873.65 1210.0, 873.39 1210.67, 873.12 1211.33, 872.85 1212.0, 872.57 1212.67, 872.29 1213.33, 872.0 1214.0, 871.71 1214.67, 871.41 1215.33, 871.11 1216.0, 870.81 1216.67, 870.49 1217.33, 870.18 1218.0, 869.86 1218.67, 869.53 1219.33, 869.2 1220.0, 868.87 1220.67, 868.53 1221.33, 868.18 1222.0, 867.83 1222.67, 867.48 1223.33, 867.12 1224.0, 866.76 1224.67, 866.39 1225.33, 866.02 1226.0, 865.64 1226.67, 865.26 1227.33, 864.88 1228.0, 864.49 1228.67, 864.1 1229.33, 863.7 1230.0, 863.3 1230.67, 862.89 1231.33, 862.48 1232.0, 862.06 1232.67, 861.65 1233.33, 861.22 1234.0, 860.8 1234.67, 860.36 1235.33, 859.93 1236.0, 859.49 1236.67, 859.05 1237.33, 858.6 1238.0, 858.15 1238.67, 857.69 1239.33, 857.24 1240.0, 856.77 1240.67, 856.31 1241.33, 855.84 1242.0, 855.36 1242.67, 854.89 1243.33, 854.41 1244.0, 853.92 1244.67, 853.43 1245.33, 852.94 1246.0, 852.45 1246.67, 851.95 1247.33, 851.45 1248.0, 850.95 1248.67, 850.44 1249.33, 849.93 1250.0, 849.41 1250.67, 848.9 1251.33, 848.38 1252.0, 847.85 1252.67, 847.33 1253.33, 846.8 1254.0, 846.26 1254.67, 845.73 1255.33, 845.19 1256.0, 844.65 1256.67, 844.11 1257.33, 843.56 1258.0, 843.01 1258.67, 842.46 1259.33, 841.91 1260.0, 841.35 1260.67, 840.79 1261.33, 840.23 1262.0, 839.67 1262.67, 839.1 1263.33, 838.53 1264.0, 837.96 1264.67, 837.39 1265.33, 836.82 1266.0, 836.24 1266.67, 835.66 1267.33, 835.08 1268.0, 834.5 1268.67, 833.91 1269.33, 833.33 1270.0, 832.74 1270.67, 832.15 1271.33, 831.56 1272.0, 830.96 1272.67, 830.37 1273.33, 829.77 1274.0, 829.18 1274.67, 828.58 1275.33, 827.98 1276.0, 827.38 1276.67, 826.77 1277.33, 826.17 1278.0, 825.57 1278.67, 824.96 1279.33, 824.35 1280.0, 823.75 1280.67, 823.14 1281.33, 822.53 1282.0, 821.92 1282.67, 821.31 1283.33, 820.69 1284.0, 820.08 1284.67, 819.47 1285.33, 818.86 1286.0, 818.24 1286.67, 817.63 1287.33, 817.02 1288.0, 816.4 1288.67, 815.79 1289.33, 815.17 1290.0, 814.56 1290.67, 813.94 1291.33, 813.33 1292.0, 812.72 1292.67, 812.1 1293.33, 811.49 1294.0, 810.87 1294.67, 810.26 1295.33, 809.65 1296.0, 809.04 1296.67, 808.43 1297.33, 807.82 1298.0, 807.21 1298.67, 806.6 1299.33, 805.99 1300.0, 805.38 1300.67, 804.78 1301.33, 804.17 1302.0, 803.57 1302.67, 802.97 1303.33, 802.37 1304.0, 801.77 1304.67, 801.17 1305.33, 800.57 1306.0, 799.98 1306.67, 799.38 1307.33, 798.79 1308.0, 798.2 1308.67, 797.62 1309.33, 797.03 1310.0, 796.45 1310.67, 795.86 1311.33, 795.28 1312.0, 794.71 1312.67, 794.13 1313.33, 793.56 1314.0, 792.99 1314.67, 792.42 1315.33, 791.86 1316.0, 791.3 1316.67, 790.74 1317.33, 790.18 1318.0, 789.63 1318.67, 789.08 1319.33, 788.54 1320.0, 787.99 1320.67, 787.45 1321.33, 786.92 1322.0, 786.38 1322.67, 785.85 1323.33, 785.33 1324.0, 784.81 1324.67, 784.29 1325.33, 783.77 1326.0, 783.26 1326.67, 782.76 1327.33, 782.26 1328.0, 781.76 1328.67, 781.27 1329.33, 780.78 1330.0, 780.29 1330.67, 779.82 1331.33, 779.34 1332.0, 778.87 1332.67, 778.41 1333.33, 777.95 1334.0, 777.49 1334.67, 777.04 1335.33, 776.6 1336.0, 776.16 1336.67, 775.73 1337.33, 775.3 1338.0, 774.88 1338.67, 774.47 1339.33, 774.06 1340.0, 773.65 1340.67, 773.26 1341.33, 772.87 1342.0, 772.48 1342.67, 772.1 1343.33, 771.73 1344.0, 771.37 1344.67, 771.01 1345.33, 770.66 1346.0, 770.32 1346.67, 769.98 1347.33, 769.65 1348.0, 769.33 1348.67, 769.01 1349.33, 768.71 1350.0, 768.41 1350.67, 768.12 1351.33, 767.83 1352.0, 767.56 1352.67, 767.29 1353.33, 767.03 1354.0, 766.79 1354.67, 766.54 1355.33, 766.31 1356.0, 766.09 1356.67, 765.87 1357.33, 765.67 1358.0, 765.47 1358.67, 765.28 1359.33, 765.11 1360.0, 764.94 1360.67, 764.78 1361.33, 764.63 1362.0, 764.5 1362.67, 764.37 1363.33, 764.25 1364.0, 764.15 1364.67, 764.05 1365.33, 763.96 1366.0, 763.89 1366.67, 763.83 1367.33, 763.78 1368.0, 763.74 1368.67, 763.71 1369.33, 763.69 1370.0, 763.68 1370.67, 763.69 1371.33, 763.71 1372.0, 763.74 1372.67, 763.79 1373.33, 763.84 1374.0, 763.91 1374.67, 763.99 1375.33, 764.09 1376.0, 764.2 1376.67, 764.32 1377.33, 764.46 1378.0, 764.61 1378.67, 764.77 1379.33, 764.95 1380.0, 765.15 1380.67, 765.35 1381.33, 765.58 1382.0, 765.82 1382.67, 766.07 1383.33, 766.34 1384.0, 766.62 1384.67, 766.92 1385.33, 767.24 1386.0, 767.57 1386.67, 767.92 1387.33, 768.28 1388.0, 768.67 1388.67, 769.07 1389.33, 769.48 1390.0, 769.92 1390.67, 770.37 1391.33, 770.84 1392.0, 771.33 1392.67, 771.83 1393.33, 772.36 1394.0, 772.9 1394.67, 773.47 1395.33, 774.05 1396.0, 774.65 1396.67, 775.27 1397.33, 775.92 1398.0, 776.58 1398.67, 777.26 1399.33, 777.97 1400.0, 778.69 1400.67, 779.44 1401.33, 780.21 1402.0, 781.0 1402.67, 781.81 1403.33, 782.65 1404.0, 783.51 1404.67, 784.39 1405.33, 785.29 1406.0, 786.22 1406.67, 787.17 1407.33, 788.15 1408.0, 789.15 1408.67, 790.18 1409.33, 791.23 1410.0, 792.3 1410.67, 793.41 1411.33, 794.53 1412.0, 795.69 1412.67, 796.87 1413.33, 798.08 1414.0, 799.32 1414.67, 800.58 1415.33, 801.87 1416.0, 803.2 1416.67, 804.55 1417.33, 805.92 1418.0, 807.33 1418.67, 808.77 1419.33, 810.24 1420.0, 811.74 1420.67, 813.27 1421.33, 814.83 1422.0, 816.43 1422.67, 818.05 1423.33, 819.71 1424.0, 821.41 1424.67, 823.13 1425.33, 824.89 1426.0, 826.69 1426.67, 828.52 1427.33, 830.38 1428.0, 832.28 1428.67, 834.22 1429.33, 836.19 1430.0, 838.2 1430.67, 840.24 1431.33, 842.33 1432.0, 844.45 1432.67, 846.61 1433.33, 848.82 1434.0, 851.06 1434.67, 853.34 1435.33, 855.66 1436.0, 858.03 1436.67, 860.43 1437.33, 862.88 1438.0, 865.37 1438.67, 867.91 1439.33, 870.49 1440.0, 873.11 1440.67, 875.78 1441.33, 878.49 1442.0, 881.25 1442.67, 884.06 1443.33, 886.92 1444.0, 889.82 1444.67, 892.77 1445.33, 895.77 1446.0, 898.82 1446.67, 901.92 1447.33, 905.08 1448.0, 908.28 1448.67, 911.54 1449.33, 914.85 1450.0, 918.21 1450.67, 921.63 1451.33, 925.1 1452.0, 928.63 1452.67, 932.21 1453.33, 935.86 1454.0, 939.56 1454.67, 943.32 1455.33, 947.14 1456.0, 951.01 1456.67, 954.95 1457.33, 958.95 1458.0, 963.02 1458.67, 967.14 1459.33, 971.34 1460.0, 975.59 1460.67, 979.91 1461.33, 984.3 1462.0, 988.75 1462.67, 993.28 1463.33, 997.87 1464.0, 1002.53 1464.67, 1007.26 1465.33, 1012.07 1466.0, 1016.94 1466.67, 1021.89 1467.33, 1026.92 1468.0, 1032.01 1468.67, 1037.19 1469.33, 1042.44 1470.0, 1047.77 1470.67, 1053.18 1471.33, 1058.67 1472.0, 1064.24 1472.67, 1069.9 1473.33, 1075.63 1474.0, 1081.45 1474.67, 1087.36 1475.33, 1093.35 1476.0, 1099.43 1476.67, 1105.59 1477.33, 1111.85 1478.0, 1118.2 1478.67, 1124.63 1479.33, 1131.17 1480.0, 1137.79 1480.67, 1144.51 1481.33, 1151.33 1482.0, 1158.24 1482.67, 1165.26 1483.33, 1172.37 1484.0, 1179.59 1484.67, 1186.9 1485.33, 1194.32 1486.0, 1201.85 1486.67, 1209.48 1487.33, 1217.22 1488.0, 1225.07 1488.67, 1233.03 1489.33, 1241.1 1490.0, 1249.29 1490.67, 1257.59 1491.33, 1266.0 1492.0, 1274.54 1492.67, 1283.19 1493.33, 1291.96 1494.0, 1300.85 1494.67, 1309.87 1495.33, 1319.01 1496.0, 1328.28 1496.67, 1337.68 1497.33, 1347.2 1498.0, 1356.86 1498.67, 1366.65 1499.33, 1376.57 1500.0, 1386.63 1500.67, 1396.83 1501.33, 1407.16 1502.0, 1417.64 1502.67, 1428.26 1503.33, 1439.03 1504.0, 1449.94 1504.67, 1461.0 1505.33, 1472.21 1506.0, 1483.57 1506.67, 1495.08 1507.33, 1506.75 1508.0, 1518.58 1508.67, 1530.57 1509.33, 1542.72 1510.0, 1555.03 1510.67, 1567.5 1511.33, 1580.15 1512.0, 1592.96 1512.67, 1605.95 1513.33, 1619.1 1514.0, 1632.44 1514.67, 1645.95 1515.33, 1659.64 1516.0, 1673.51 1516.67, 1687.57 1517.33, 1701.81 1518.0, 1716.24 1518.67, 1730.86 1519.33, 1745.68 1520.0, 1760.69 1520.67, 1775.9 1521.33, 1791.3 1522.0, 1806.92 1522.67, 1822.73 1523.33, 1838.76 1524.0, 1854.99 1524.67, 1871.44 1525.33, 1888.1 1526.0, 1904.98 1526.67, 1922.08 1527.33, 1939.4 1528.0, 1956.95 1528.67, 1974.72 1529.33, 1992.73 1530.0, 2010.97 1530.67, 2029.45 1531.33, 2048.16 1532.0, 2067.12 1532.67, 2086.33 1533.33, 2105.78 1534.0, 2125.48 1534.67, 2145.43 1535.33, 2165.65 1536.0, 2186.12 1536.67, 2206.85 1537.33, 2227.85 1538.0, 2249.12 1538.67, 2270.67 1539.33, 2292.48 1540.0, 2314.58 1540.67, 2336.96 1541.33, 2359.62 1542.0, 2382.58 1542.67, 2405.82 1543.33, 2429.36 1544.0, 2453.2 1544.67, 2477.34 1545.33, 2501.78 1546.0, 2526.54 1546.67, 2551.61 1547.33, 2576.99 1548.0, 2602.7 1548.67, 2628.73 1549.33, 2655.09 1550.0, 2681.78 1550.67, 2708.8 1551.33, 2736.16 1552.0, 2763.87 1552.67, 2791.93 1553.33, 2820.33 1554.0, 2849.09 1554.67, 2878.21 1555.33, 2907.69 1556.0, 2937.54 1556.67, 2967.76 1557.33, 2998.36 1558.0, 3029.34 1558.67, 3060.7 1559.33, 3092.45 1560.0, 3124.6 1560.67, 3157.14 1561.33, 3190.09 1562.0, 3223.44 1562.67, 3257.2 1563.33, 3291.38 1564.0, 3325.98 1564.67, 3361.01 1565.33, 3396.47 1566.0, 3432.36 1566.67, 3468.69 1567.33, 3505.47 1568.0, 3542.7 1568.67, 3580.38 1569.33, 3618.52 1570.0, 3657.13 1570.67, 3696.21 1571.33, 3735.77 1572.0, 3775.81 1572.67, 3816.33 1573.33, 3857.35 1574.0, 3898.86 1574.67, 3940.88 1575.33, 3983.4 1576.0, 4026.44 1576.67, 4070.0 1577.33, 4114.09 1578.0, 4158.7 1578.67, 4203.86 1579.33, 4249.56 1580.0, 4295.8 1580.67, 4342.61 1581.33, 4389.97 1582.0, 4437.9 1582.67, 4486.41 1583.33, 4535.49 1584.0, 4585.16 1584.67, 4635.43 1585.33, 4686.29 1586.0, 4737.76 1586.67, 4789.85 1587.33, 4842.55 1588.0, 4895.87 1588.67, 4949.83 1589.33, 5004.43 1590.0, 5059.68 1590.67, 5115.58 1591.33, 5172.14 1592.0, 5229.36 1592.67, 5287.27 1593.33, 5345.85 1594.0, 5405.12 1594.67, 5465.09 1595.33, 5525.76 1596.0, 5587.15 1596.67, 5649.25 1597.33, 5712.08 1598.0, 5775.65 1598.67, 5839.96 1599.33, 5905.02 1600.0, 5970.83 " fill="none" stroke="white" stroke-width="1.5" stroke-linejoin="round" stroke-opacity="1"/>

 </svg>