<svg version="1.1" 
 baseProfile="full" 
 width="1600" 
 height="1600" 
 xmlns="http://www.w3.org/2000/svg">
<rect x="0.0" y="0.0" width="1600" height="1600" fill="black" stroke="black" stroke-width="0" opacity="1"/>
<line x1="0.0" y1="0.0" x2="0.0" y2="1600.0" stroke="white" stroke-width="1" opacity="0.4" stroke-linecap="butt"/>
<line x1="160.0" y1="0.0" x2="160.0" y2="1600.0" stroke="white" stroke-width="1" opacity="0.4" stroke-linecap="butt"/>
<line x1="320.0" y1="0.0" x2="320.0" y2="1600.0" stroke="white" stroke-width="1" opacity="0.4" stroke-linecap="butt"/>
<line x1="480.0" y1="0.0" x2="480.0" y2="1600.0" stroke="white" stroke-width="1" opacity="0.4" stroke-linecap="butt"/>
<line x1="640.0" y1="0.0" x2="640.0" y2="1600.0" stroke="white" stroke-width="1" opacity="0.4" stroke-linecap="butt"/>
<line x1="800.0" y1="0.0" x2="800.0" y2="1600.0" stroke="white" stroke-width="1" opacity="0.4" stroke-linecap="butt"/>
<line x1="960.0" y1="0.0" x2="960.0" y2="1600.0" stroke="white" stroke-width="1" opacity="0.4" stroke-linecap="butt"/>
<line x1="1120.0" y1="0.0" x2="1120.0" y2="1600.0" stroke="white" stroke-width="1" opacity="0.4" stroke-linecap="butt"/>
<line x1="1280.0" y1="0.0" x2="1280.0" y2="1600.0" stroke="white" stroke-width="1" opacity="0.4" stroke-linecap="butt"/>
<line x1="1440.0" y1="0.0" x2="1440.0" y2="1600.0" stroke="white" stroke-width="1" opacity="0.4" stroke-linecap="butt"/>
<line x1="0.0" y1="0.0" x2="1600.0" y2="0.0" stroke="white" stroke-width="1" opacity="0.4" stroke-linecap="butt"/>
<line x1="0.0" y1="160.0" x2="1600.0" y2="160.0" stroke="white" stroke-width="1" opacity="0.4" stroke-linecap="butt"/>
<line x1="0.0" y1="320.0" x2="1600.0" y2="320.0" stroke="white" stroke-width="1" opacity="0.4" stroke-linecap="butt"/>
<line x1="0.0" y1="480.0" x2="1600.0" y2="480.0" stroke="white" stroke-width="1" opacity="0.4" stroke-linecap="butt"/>
<line x1="0.0" y1="640.0" x2="1600.0" y2="640.0" stroke="white" stroke-width="1" opacity="0.4" stroke-linecap="butt"/>
<line x1="0.0" y1="800.0" x2="1600.0" y2="800.0" stroke="white" stroke-width="1" opacity="0.4" stroke-linecap="butt"/>
<line x1="0.0" y1="960.0" x2="1600.0" y2="960.0" stroke="white" stroke-width="1" opacity="0.4" stroke-linecap="butt"/>
<line x1="0.0" y1="1120.0" x2="1600.0" y2="1120.0" stroke="white" stroke-width="1" opacity="0.4" stroke-linecap="butt"/>
<line x1="0.0" y1="1280.0" x2="1600.0" y2="1280.0" stroke="white" stroke-width="1" opacity="0.4" stroke-linecap="butt"/>
<line x1="0.0" y1="1440.0" x2="1600.0" y2="1440.0" stroke="white" stroke-width="1" opacity="0.4" stroke-linecap="butt"/>
<line x1="0.0" y1="800.0" x2="1600.0" y2="800.0" stroke="yellow" stroke-width="2.5" opacity="1" stroke-linecap="butt"/>
<line x1="800.0" y1="0.0" x2="800.0" y2="1600.0" stroke="yellow" stroke-width="2.5" opacity="1" stroke-linecap="butt"/>
<polygon points="1564.0 816.0, 1604.0 800.0, 1564.0 784.0, 1572.0 800.0" fill="yellow"/><polygon points="816.0 36.0, 800.0 -4.0, 784.0 36.0, 800.0 28.0" fill="yellow"/><polyline points="0.0, -1559.37 0.67, -1533.12 1.33, -1507.1 2.0, -1481.32 2.67, -1455.76 3.33, -1430.44 4.0, -1405.34 4.67, -1380.47 5.33, -1355.82 6.0, -1331.4 6.67, -1307.2 7.33, -1283.22 8.0, -1259.47 8.67, -1235.92 9.33, -1212.6 10.0, -1189.49 10.67, -1166.59 11.33, -1143.91 12.0, -1121.43 12.67, -1099.17 13.33, -1077.11 14.0, -1055.26 14.67, -1033.62 15.33, -1012.18 16.0, -990.94 16.67, -969.9 17.33, -949.06 18.0, -928.41 18.67, -907.97 19.33, -887.72 20.0, -867.66 20.67, -847.8 21.33, -828.12 22.0, -808.64 22.67, -789.34 23.33, -770.23 24.0, -751.3 24.67, -732.56 25.33, -714.0 26.0, -695.62 26.67, -677.42 27.33, -659.4 28.0, -641.56 28.67, -623.89 29.33, -606.4 30.0, -589.07 30.67, -571.92 31.33, -554.94 32.0, -538.13 32.67, -521.49 33.33, -505.01 34.0, -488.69 34.67, -472.54 35.33, -456.56 36.0, -440.73 36.67, -425.06 37.33, -409.55 38.0, -394.2 38.67, -379.0 39.33, -363.96 40.0, -349.07 40.67, -334.33 41.33, -319.75 42.0, -305.31 42.67, -291.02 43.33, -276.88 44.0, -262.88 44.67, -249.03 45.33, -235.32 46.0, -221.75 46.67, -208.32 47.33, -195.04 48.0, -181.89 48.67, -168.87 49.33, -156.0 50.0, -143.26 50.67, -130.65 51.33, -118.18 52.0, -105.83 52.67, -93.62 53.33, -81.53 54.0, -69.58 54.67, -57.75 55.33, -46.05 56.0, -34.47 56.67, -23.01 57.33, -11.68 58.0, -0.47 58.67, 10.63 59.33, 21.6 60.0, 32.45 60.67, 43.19 61.33, 53.81 62.0, 64.32 62.67, 74.71 63.33, 84.99 64.0, 95.16 64.67, 105.22 65.33, 115.16 66.0, 125.0 66.67, 134.73 67.33, 144.36 68.0, 153.88 68.67, 163.29 69.33, 172.6 70.0, 181.81 70.67, 190.91 71.33, 199.91 72.0, 208.82 72.67, 217.62 73.33, 226.33 74.0, 234.94 74.67, 243.45 75.33, 251.87 76.0, 260.19 76.67, 268.42 77.33, 276.55 78.0, 284.6 78.67, 292.55 79.33, 300.41 80.0, 308.18 80.67, 315.87 81.33, 323.47 82.0, 330.98 82.67, 338.4 83.33, 345.74 84.0, 352.99 84.67, 360.17 85.33, 367.25 86.0, 374.26 86.67, 381.19 87.33, 388.03 88.0, 394.8 88.67, 401.48 89.33, 408.09 90.0, 414.62 90.67, 421.08 91.33, 427.46 92.0, 433.76 92.67, 439.99 93.33, 446.15 94.0, 452.23 94.67, 458.24 95.33, 464.18 96.0, 470.05 96.67, 475.85 97.33, 481.58 98.0, 487.24 98.67, 492.83 99.33, 498.36 100.0, 503.82 100.67, 509.21 101.33, 514.54 102.0, 519.8 102.67, 525.0 103.33, 530.13 104.0, 535.21 104.67, 540.22 105.33, 545.17 106.0, 550.05 106.67, 554.88 107.33, 559.65 108.0, 564.36 108.67, 569.01 109.33, 573.6 110.0, 578.14 110.67, 582.61 111.33, 587.04 112.0, 591.4 112.67, 595.71 113.33, 599.97 114.0, 604.17 114.67, 608.32 115.33, 612.42 116.0, 616.46 116.67, 620.45 117.33, 624.39 118.0, 628.28 118.67, 632.12 119.33, 635.91 120.0, 639.65 120.67, 643.34 121.33, 646.98 122.0, 650.58 122.67, 654.13 123.33, 657.63 124.0, 661.08 124.67, 664.49 125.33, 667.85 126.0, 671.17 126.67, 674.45 127.33, 677.68 128.0, 680.86 128.67, 684.0 129.33, 687.1 130.0, 690.16 130.67, 693.18 131.33, 696.15 132.0, 699.08 132.67, 701.98 133.33, 704.83 134.0, 707.64 134.67, 710.42 135.33, 713.15 136.0, 715.84 136.67, 718.5 137.33, 721.12 138.0, 723.7 138.67, 726.25 139.33, 728.76 140.0, 731.23 140.67, 733.66 141.33, 736.06 142.0, 738.43 142.67, 740.76 143.33, 743.06 144.0, 745.32 144.67, 747.55 145.33, 749.74 146.0, 751.9 146.67, 754.03 147.33, 756.12 148.0, 758.19 148.67, 760.22 149.33, 762.22 150.0, 764.19 150.67, 766.13 151.33, 768.04 152.0, 769.91 152.67, 771.76 153.33, 773.58 154.0, 775.37 154.67, 777.13 155.33, 778.86 156.0, 780.56 156.67, 782.24 157.33, 783.89 158.0, 785.5 158.67, 787.1 159.33, 788.66 160.0, 790.2 160.67, 791.71 161.33, 793.2 162.0, 794.66 162.67, 796.09 163.33, 797.5 164.0, 798.88 164.67, 800.24 165.33, 801.57 166.0, 802.88 166.67, 804.17 167.33, 805.43 168.0, 806.67 168.67, 807.88 169.33, 809.07 170.0, 810.24 170.67, 811.39 171.33, 812.51 172.0, 813.61 172.67, 814.69 173.33, 815.75 174.0, 816.78 174.67, 817.8 175.33, 818.79 176.0, 819.76 176.67, 820.71 177.33, 821.64 178.0, 822.55 178.67, 823.44 179.33, 824.31 180.0, 825.16 180.67, 825.99 181.33, 826.8 182.0, 827.6 182.67, 828.37 183.33, 829.13 184.0, 829.86 184.67, 830.58 185.33, 831.28 186.0, 831.96 186.67, 832.63 187.33, 833.27 188.0, 833.9 188.67, 834.51 189.33, 835.11 190.0, 835.69 190.67, 836.25 191.33, 836.79 192.0, 837.32 192.67, 837.83 193.33, 838.33 194.0, 838.81 194.67, 839.27 195.33, 839.72 196.0, 840.16 196.67, 840.57 197.33, 840.98 198.0, 841.36 198.67, 841.74 199.33, 842.1 200.0, 842.44 200.67, 842.77 201.33, 843.09 202.0, 843.39 202.67, 843.68 203.33, 843.95 204.0, 844.21 204.67, 844.46 205.33, 844.69 206.0, 844.91 206.67, 845.12 207.33, 845.31 208.0, 845.49 208.67, 845.66 209.33, 845.82 210.0, 845.96 210.67, 846.1 211.33, 846.22 212.0, 846.32 212.67, 846.42 213.33, 846.5 214.0, 846.58 214.67, 846.64 215.33, 846.69 216.0, 846.73 216.67, 846.75 217.33, 846.77 218.0, 846.78 218.67, 846.77 219.33, 846.76 220.0, 846.73 220.67, 846.69 221.33, 846.65 222.0, 846.59 222.67, 846.52 223.33, 846.45 224.0, 846.36 224.67, 846.26 225.33, 846.16 226.0, 846.04 226.67, 845.91 227.33, 845.78 228.0, 845.64 228.67, 845.48 229.33, 845.32 230.0, 845.15 230.67, 844.97 231.33, 844.79 232.0, 844.59 232.67, 844.38 233.33, 844.17 234.0, 843.95 234.67, 843.72 235.33, 843.48 236.0, 843.24 236.67, 842.98 237.33, 842.72 238.0, 842.45 238.67, 842.18 239.33, 841.89 240.0, 841.6 240.67, 841.3 241.33, 841.0 242.0, 840.68 242.67, 840.36 243.33, 840.04 244.0, 839.7 244.67, 839.36 245.33, 839.01 246.0, 838.66 246.67, 838.3 247.33, 837.93 248.0, 837.56 248.67, 837.18 249.33, 836.8 250.0, 836.41 250.67, 836.01 251.33, 835.61 252.0, 835.2 252.67, 834.78 253.33, 834.36 254.0, 833.94 254.67, 833.51 255.33, 833.07 256.0, 832.63 256.67, 832.18 257.33, 831.73 258.0, 831.27 258.67, 830.81 259.33, 830.34 260.0, 829.87 260.67, 829.39 261.33, 828.91 262.0, 828.43 262.67, 827.94 263.33, 827.44 264.0, 826.94 264.67, 826.44 265.33, 825.93 266.0, 825.42 266.67, 824.91 267.33, 824.39 268.0, 823.86 268.67, 823.34 269.33, 822.81 270.0, 822.27 270.67, 821.73 271.33, 821.19 272.0, 820.65 272.67, 820.1 273.33, 819.55 274.0, 818.99 274.67, 818.43 275.33, 817.87 276.0, 817.31 276.67, 816.74 277.33, 816.17 278.0, 815.6 278.67, 815.02 279.33, 814.44 280.0, 813.86 280.67, 813.28 281.33, 812.69 282.0, 812.11 282.67, 811.52 283.33, 810.92 284.0, 810.33 284.67, 809.73 285.33, 809.13 286.0, 808.53 286.67, 807.93 287.33, 807.32 288.0, 806.72 288.67, 806.11 289.33, 805.5 290.0, 804.89 290.67, 804.28 291.33, 803.66 292.0, 803.04 292.67, 802.43 293.33, 801.81 294.0, 801.19 294.67, 800.57 295.33, 799.95 296.0, 799.32 296.67, 798.7 297.33, 798.08 298.0, 797.45 298.67, 796.82 299.33, 796.2 300.0, 795.57 300.67, 794.94 301.33, 794.31 302.0, 793.68 302.67, 793.05 303.33, 792.42 304.0, 791.79 304.67, 791.16 305.33, 790.53 306.0, 789.9 306.67, 789.27 307.33, 788.64 308.0, 788.01 308.67, 787.38 309.33, 786.75 310.0, 786.12 310.67, 785.49 311.33, 784.86 312.0, 784.23 312.67, 783.6 313.33, 782.97 314.0, 782.34 314.67, 781.72 315.33, 781.09 316.0, 780.47 316.67, 779.84 317.33, 779.22 318.0, 778.59 318.67, 777.97 319.33, 777.35 320.0, 776.73 320.67, 776.11 321.33, 775.49 322.0, 774.88 322.67, 774.26 323.33, 773.65 324.0, 773.04 324.67, 772.42 325.33, 771.82 326.0, 771.21 326.67, 770.6 327.33, 770.0 328.0, 769.39 328.67, 768.79 329.33, 768.19 330.0, 767.59 330.67, 767.0 331.33, 766.4 332.0, 765.81 332.67, 765.22 333.33, 764.63 334.0, 764.05 334.67, 763.46 335.33, 762.88 336.0, 762.3 336.67, 761.73 337.33, 761.15 338.0, 760.58 338.67, 760.01 339.33, 759.44 340.0, 758.88 340.67, 758.32 341.33, 757.76 342.0, 757.2 342.67, 756.65 343.33, 756.1 344.0, 755.55 344.67, 755.0 345.33, 754.46 346.0, 753.92 346.67, 753.38 347.33, 752.85 348.0, 752.32 348.67, 751.79 349.33, 751.27 350.0, 750.75 350.67, 750.23 351.33, 749.71 352.0, 749.2 352.67, 748.69 353.33, 748.19 354.0, 747.69 354.67, 747.19 355.33, 746.7 356.0, 746.2 356.67, 745.72 357.33, 745.23 358.0, 744.75 358.67, 744.28 359.33, 743.8 360.0, 743.34 360.67, 742.87 361.33, 742.41 362.0, 741.95 362.67, 741.5 363.33, 741.05 364.0, 740.6 364.67, 740.16 365.33, 739.72 366.0, 739.29 366.67, 738.86 367.33, 738.44 368.0, 738.02 368.67, 737.6 369.33, 737.19 370.0, 736.78 370.67, 736.37 371.33, 735.97 372.0, 735.58 372.67, 735.19 373.33, 734.8 374.0, 734.42 374.67, 734.04 375.33, 733.67 376.0, 733.3 376.67, 732.93 377.33, 732.57 378.0, 732.22 378.67, 731.87 379.33, 731.52 380.0, 731.18 380.67, 730.85 381.33, 730.51 382.0, 730.19 382.67, 729.87 383.33, 729.55 384.0, 729.24 384.67, 728.93 385.33, 728.63 386.0, 728.33 386.67, 728.03 387.33, 727.75 388.0, 727.46 388.67, 727.19 389.33, 726.91 390.0, 726.64 390.67, 726.38 391.33, 726.12 392.0, 725.87 392.67, 725.62 393.33, 725.38 394.0, 725.14 394.67, 724.91 395.33, 724.68 396.0, 724.46 396.67, 724.25 397.33, 724.03 398.0, 723.83 398.67, 723.63 399.33, 723.43 400.0, 723.24 400.67, 723.05 401.33, 722.87 402.0, 722.7 402.67, 722.53 403.33, 722.37 404.0, 722.21 404.67, 722.06 405.33, 721.91 406.0, 721.77 406.67, 721.63 407.33, 721.5 408.0, 721.37 408.67, 721.25 409.33, 721.13 410.0, 721.03 410.67, 720.92 411.33, 720.82 412.0, 720.73 412.67, 720.64 413.33, 720.56 414.0, 720.48 414.67, 720.41 415.33, 720.34 416.0, 720.28 416.67, 720.23 417.33, 720.18 418.0, 720.14 418.67, 720.1 419.33, 720.06 420.0, 720.04 420.67, 720.02 421.33, 720.0 422.0, 719.99 422.67, 719.98 423.33, 719.98 424.0, 719.99 424.67, 720.0 425.33, 720.02 426.0, 720.04 426.67, 720.07 427.33, 720.1 428.0, 720.14 428.67, 720.19 429.33, 720.24 430.0, 720.29 430.67, 720.35 431.33, 720.42 432.0, 720.49 432.67, 720.57 433.33, 720.65 434.0, 720.74 434.67, 720.84 435.33, 720.94 436.0, 721.04 436.67, 721.15 437.33, 721.27 438.0, 721.39 438.67, 721.52 439.33, 721.65 440.0, 721.79 440.67, 721.93 441.33, 722.08 442.0, 722.24 442.67, 722.4 443.33, 722.56 444.0, 722.73 444.67, 722.91 445.33, 723.09 446.0, 723.27 446.67, 723.47 447.33, 723.66 448.0, 723.87 448.67, 724.07 449.33, 724.29 450.0, 724.51 450.67, 724.73 451.33, 724.96 452.0, 725.19 452.67, 725.43 453.33, 725.67 454.0, 725.92 454.67, 726.18 455.33, 726.44 456.0, 726.7 456.67, 726.97 457.33, 727.25 458.0, 727.53 458.67, 727.81 459.33, 728.1 460.0, 728.4 460.67, 728.7 461.33, 729.0 462.0, 729.31 462.67, 729.63 463.33, 729.95 464.0, 730.27 464.67, 730.6 465.33, 730.93 466.0, 731.27 466.67, 731.62 467.33, 731.97 468.0, 732.32 468.67, 732.68 469.33, 733.04 470.0, 733.41 470.67, 733.78 471.33, 734.16 472.0, 734.54 472.67, 734.92 473.33, 735.31 474.0, 735.71 474.67, 736.11 475.33, 736.51 476.0, 736.92 476.67, 737.33 477.33, 737.75 478.0, 738.17 478.67, 738.59 479.33, 739.02 480.0, 739.45 480.67, 739.89 481.33, 740.33 482.0, 740.78 482.67, 741.23 483.33, 741.69 484.0, 742.14 484.67, 742.61 485.33, 743.07 486.0, 743.54 486.67, 744.02 487.33, 744.5 488.0, 744.98 488.67, 745.46 489.33, 745.95 490.0, 746.45 490.67, 746.94 491.33, 747.44 492.0, 747.95 492.67, 748.46 493.33, 748.97 494.0, 749.48 494.67, 750.0 495.33, 750.53 496.0, 751.05 496.67, 751.58 497.33, 752.11 498.0, 752.65 498.67, 753.19 499.33, 753.73 500.0, 754.27 500.67, 754.82 501.33, 755.38 502.0, 755.93 502.67, 756.49 503.33, 757.05 504.0, 757.61 504.67, 758.18 505.33, 758.75 506.0, 759.32 506.67, 759.9 507.33, 760.48 508.0, 761.06 508.67, 761.64 509.33, 762.23 510.0, 762.82 510.67, 763.41 511.33, 764.0 512.0, 764.6 512.67, 765.2 513.33, 765.8 514.0, 766.4 514.67, 767.01 515.33, 767.62 516.0, 768.23 516.67, 768.84 517.33, 769.46 518.0, 770.07 518.67, 770.69 519.33, 771.31 520.0, 771.94 520.67, 772.56 521.33, 773.19 522.0, 773.82 522.67, 774.45 523.33, 775.08 524.0, 775.72 524.67, 776.35 525.33, 776.99 526.0, 777.63 526.67, 778.27 527.33, 778.91 528.0, 779.56 528.67, 780.2 529.33, 780.85 530.0, 781.5 530.67, 782.15 531.33, 782.8 532.0, 783.45 532.67, 784.1 533.33, 784.75 534.0, 785.41 534.67, 786.07 535.33, 786.72 536.0, 787.38 536.67, 788.04 537.33, 788.7 538.0, 789.36 538.67, 790.02 539.33, 790.68 540.0, 791.34 540.67, 792.01 541.33, 792.67 542.0, 793.34 542.67, 794.0 543.33, 794.66 544.0, 795.33 544.67, 796.0 545.33, 796.66 546.0, 797.33 546.67, 797.99 547.33, 798.66 548.0, 799.33 548.67, 799.99 549.33, 800.66 550.0, 801.33 550.67, 801.99 551.33, 802.66 552.0, 803.33 552.67, 803.99 553.33, 804.66 554.0, 805.32 554.67, 805.99 555.33, 806.65 556.0, 807.32 556.67, 807.98 557.33, 808.64 558.0, 809.31 558.67, 809.97 559.33, 810.63 560.0, 811.29 560.67, 811.95 561.33, 812.61 562.0, 813.27 562.67, 813.92 563.33, 814.58 564.0, 815.23 564.67, 815.89 565.33, 816.54 566.0, 817.19 566.67, 817.84 567.33, 818.49 568.0, 819.14 568.67, 819.79 569.33, 820.43 570.0, 821.08 570.67, 821.72 571.33, 822.36 572.0, 823.0 572.67, 823.64 573.33, 824.27 574.0, 824.91 574.67, 825.54 575.33, 826.17 576.0, 826.8 576.67, 827.43 577.33, 828.05 578.0, 828.67 578.67, 829.3 579.33, 829.92 580.0, 830.53 580.67, 831.15 581.33, 831.76 582.0, 832.37 582.67, 832.98 583.33, 833.59 584.0, 834.19 584.67, 834.79 585.33, 835.39 586.0, 835.99 586.67, 836.58 587.33, 837.17 588.0, 837.76 588.67, 838.35 589.33, 838.93 590.0, 839.51 590.67, 840.09 591.33, 840.67 592.0, 841.24 592.67, 841.81 593.33, 842.38 594.0, 842.94 594.67, 843.5 595.33, 844.06 596.0, 844.61 596.67, 845.17 597.33, 845.72 598.0, 846.26 598.67, 846.8 599.33, 847.34 600.0, 847.88 600.67, 848.41 601.33, 848.94 602.0, 849.46 602.67, 849.99 603.33, 850.51 604.0, 851.02 604.67, 851.53 605.33, 852.04 606.0, 852.55 606.67, 853.05 607.33, 853.54 608.0, 854.04 608.67, 854.53 609.33, 855.01 610.0, 855.49 610.67, 855.97 611.33, 856.45 612.0, 856.92 612.67, 857.38 613.33, 857.85 614.0, 858.31 614.67, 858.76 615.33, 859.21 616.0, 859.66 616.67, 860.1 617.33, 860.54 618.0, 860.97 618.67, 861.4 619.33, 861.82 620.0, 862.25 620.67, 862.66 621.33, 863.07 622.0, 863.48 622.67, 863.89 623.33, 864.29 624.0, 864.68 624.67, 865.07 625.33, 865.46 626.0, 865.84 626.67, 866.21 627.33, 866.58 628.0, 866.95 628.67, 867.31 629.33, 867.67 630.0, 868.03 630.67, 868.37 631.33, 868.72 632.0, 869.06 632.67, 869.39 633.33, 869.72 634.0, 870.04 634.67, 870.36 635.33, 870.68 636.0, 870.99 636.67, 871.29 637.33, 871.59 638.0, 871.89 638.67, 872.18 639.33, 872.46 640.0, 872.74 640.67, 873.02 641.33, 873.29 642.0, 873.55 642.67, 873.81 643.33, 874.07 644.0, 874.32 644.67, 874.56 645.33, 874.8 646.0, 875.03 646.67, 875.26 647.33, 875.49 648.0, 875.7 648.67, 875.92 649.33, 876.12 650.0, 876.33 650.67, 876.52 651.33, 876.72 652.0, 876.9 652.67, 877.08 653.33, 877.26 654.0, 877.43 654.67, 877.59 655.33, 877.75 656.0, 877.91 656.67, 878.06 657.33, 878.2 658.0, 878.34 658.67, 878.47 659.33, 878.6 660.0, 878.72 660.67, 878.83 661.33, 878.95 662.0, 879.05 662.67, 879.15 663.33, 879.24 664.0, 879.33 664.67, 879.42 665.33, 879.49 666.0, 879.57 666.67, 879.63 667.33, 879.69 668.0, 879.75 668.67, 879.8 669.33, 879.84 670.0, 879.88 670.67, 879.92 671.33, 879.94 672.0, 879.97 672.67, 879.98 673.33, 879.99 674.0, 880.0 674.67, 880.0 675.33, 879.99 676.0, 879.98 676.67, 879.97 677.33, 879.94 678.0, 879.92 678.67, 879.88 679.33, 879.84 680.0, 879.8 680.67, 879.75 681.33, 879.69 682.0, 879.63 682.67, 879.57 683.33, 879.49 684.0, 879.42 684.67, 879.33 685.33, 879.25 686.0, 879.15 686.67, 879.05 687.33, 878.95 688.0, 878.84 688.67, 878.72 689.33, 878.6 690.0, 878.47 690.67, 878.34 691.33, 878.2 692.0, 878.06 692.67, 877.91 693.33, 877.76 694.0, 877.6 694.67, 877.43 695.33, 877.26 696.0, 877.08 696.67, 876.9 697.33, 876.72 698.0, 876.53 698.67, 876.33 699.33, 876.13 700.0, 875.92 700.67, 875.71 701.33, 875.49 702.0, 875.26 702.67, 875.04 703.33, 874.8 704.0, 874.56 704.67, 874.32 705.33, 874.07 706.0, 873.82 706.67, 873.56 707.33, 873.29 708.0, 873.02 708.67, 872.75 709.33, 872.47 710.0, 872.18 710.67, 871.89 711.33, 871.6 712.0, 871.3 712.67, 870.99 713.33, 870.68 714.0, 870.37 714.67, 870.05 715.33, 869.72 716.0, 869.39 716.67, 869.06 717.33, 868.72 718.0, 868.38 718.67, 868.03 719.33, 867.68 720.0, 867.32 720.67, 866.96 721.33, 866.59 722.0, 866.22 722.67, 865.84 723.33, 865.46 724.0, 865.07 724.67, 864.68 725.33, 864.29 726.0, 863.89 726.67, 863.49 727.33, 863.08 728.0, 862.67 728.67, 862.25 729.33, 861.83 730.0, 861.4 730.67, 860.97 731.33, 860.54 732.0, 860.1 732.67, 859.66 733.33, 859.21 734.0, 858.76 734.67, 858.31 735.33, 857.85 736.0, 857.39 736.67, 856.92 737.33, 856.45 738.0, 855.98 738.67, 855.5 739.33, 855.02 740.0, 854.53 740.67, 854.04 741.33, 853.55 742.0, 853.05 742.67, 852.55 743.33, 852.05 744.0, 851.54 744.67, 851.03 745.33, 850.51 746.0, 849.99 746.67, 849.47 747.33, 848.94 748.0, 848.41 748.67, 847.88 749.33, 847.35 750.0, 846.81 750.67, 846.27 751.33, 845.72 752.0, 845.17 752.67, 844.62 753.33, 844.06 754.0, 843.51 754.67, 842.95 755.33, 842.38 756.0, 841.81 756.67, 841.25 757.33, 840.67 758.0, 840.1 758.67, 839.52 759.33, 838.94 760.0, 838.35 760.67, 837.77 761.33, 837.18 762.0, 836.59 762.67, 835.99 763.33, 835.4 764.0, 834.8 764.67, 834.2 765.33, 833.59 766.0, 832.99 766.67, 832.38 767.33, 831.77 768.0, 831.15 768.67, 830.54 769.33, 829.92 770.0, 829.3 770.67, 828.68 771.33, 828.06 772.0, 827.43 772.67, 826.8 773.33, 826.18 774.0, 825.54 774.67, 824.91 775.33, 824.28 776.0, 823.64 776.67, 823.0 777.33, 822.36 778.0, 821.72 778.67, 821.08 779.33, 820.44 780.0, 819.79 780.67, 819.15 781.33, 818.5 782.0, 817.85 782.67, 817.2 783.33, 816.55 784.0, 815.89 784.67, 815.24 785.33, 814.58 786.0, 813.93 786.67, 813.27 787.33, 812.61 788.0, 811.96 788.67, 811.3 789.33, 810.64 790.0, 809.97 790.67, 809.31 791.33, 808.65 792.0, 807.99 792.67, 807.32 793.33, 806.66 794.0, 805.99 794.67, 805.33 795.33, 804.66 796.0, 804.0 796.67, 803.33 797.33, 802.67 798.0, 802.0 798.67, 801.33 799.33, 800.67 800.0, 800.0 800.67, 799.33 801.33, 798.67 802.0, 798.0 802.67, 797.33 803.33, 796.67 804.0, 796.0 804.67, 795.34 805.33, 794.67 806.0, 794.01 806.67, 793.34 807.33, 792.68 808.0, 792.01 808.67, 791.35 809.33, 790.69 810.0, 790.03 810.67, 789.36 811.33, 788.7 812.0, 788.04 812.67, 787.39 813.33, 786.73 814.0, 786.07 814.67, 785.42 815.33, 784.76 816.0, 784.11 816.67, 783.45 817.33, 782.8 818.0, 782.15 818.67, 781.5 819.33, 780.85 820.0, 780.21 820.67, 779.56 821.33, 778.92 822.0, 778.28 822.67, 777.64 823.33, 777.0 824.0, 776.36 824.67, 775.72 825.33, 775.09 826.0, 774.46 826.67, 773.82 827.33, 773.2 828.0, 772.57 828.67, 771.94 829.33, 771.32 830.0, 770.7 830.67, 770.08 831.33, 769.46 832.0, 768.85 832.67, 768.23 833.33, 767.62 834.0, 767.01 834.67, 766.41 835.33, 765.8 836.0, 765.2 836.67, 764.6 837.33, 764.01 838.0, 763.41 838.67, 762.82 839.33, 762.23 840.0, 761.65 840.67, 761.06 841.33, 760.48 842.0, 759.9 842.67, 759.33 843.33, 758.75 844.0, 758.19 844.67, 757.62 845.33, 757.05 846.0, 756.49 846.67, 755.94 847.33, 755.38 848.0, 754.83 848.67, 754.28 849.33, 753.73 850.0, 753.19 850.67, 752.65 851.33, 752.12 852.0, 751.59 852.67, 751.06 853.33, 750.53 854.0, 750.01 854.67, 749.49 855.33, 748.97 856.0, 748.46 856.67, 747.95 857.33, 747.45 858.0, 746.95 858.67, 746.45 859.33, 745.96 860.0, 745.47 860.67, 744.98 861.33, 744.5 862.0, 744.02 862.67, 743.55 863.33, 743.08 864.0, 742.61 864.67, 742.15 865.33, 741.69 866.0, 741.24 866.67, 740.79 867.33, 740.34 868.0, 739.9 868.67, 739.46 869.33, 739.03 870.0, 738.6 870.67, 738.17 871.33, 737.75 872.0, 737.33 872.67, 736.92 873.33, 736.51 874.0, 736.11 874.67, 735.71 875.33, 735.32 876.0, 734.93 876.67, 734.54 877.33, 734.16 878.0, 733.78 878.67, 733.41 879.33, 733.04 880.0, 732.68 880.67, 732.32 881.33, 731.97 882.0, 731.62 882.67, 731.28 883.33, 730.94 884.0, 730.61 884.67, 730.28 885.33, 729.95 886.0, 729.63 886.67, 729.32 887.33, 729.01 888.0, 728.7 888.67, 728.4 889.33, 728.11 890.0, 727.82 890.67, 727.53 891.33, 727.25 892.0, 726.98 892.67, 726.71 893.33, 726.44 894.0, 726.18 894.67, 725.93 895.33, 725.68 896.0, 725.44 896.67, 725.2 897.33, 724.96 898.0, 724.74 898.67, 724.51 899.33, 724.29 900.0, 724.08 900.67, 723.87 901.33, 723.67 902.0, 723.47 902.67, 723.28 903.33, 723.1 904.0, 722.92 904.67, 722.74 905.33, 722.57 906.0, 722.4 906.67, 722.24 907.33, 722.09 908.0, 721.94 908.67, 721.8 909.33, 721.66 910.0, 721.53 910.67, 721.4 911.33, 721.28 912.0, 721.16 912.67, 721.05 913.33, 720.95 914.0, 720.85 914.67, 720.75 915.33, 720.67 916.0, 720.58 916.67, 720.51 917.33, 720.43 918.0, 720.37 918.67, 720.31 919.33, 720.25 920.0, 720.2 920.67, 720.16 921.33, 720.12 922.0, 720.08 922.67, 720.06 923.33, 720.03 924.0, 720.02 924.67, 720.01 925.33, 720.0 926.0, 720.0 926.67, 720.01 927.33, 720.02 928.0, 720.03 928.67, 720.06 929.33, 720.08 930.0, 720.12 930.67, 720.16 931.33, 720.2 932.0, 720.25 932.67, 720.31 933.33, 720.37 934.0, 720.43 934.67, 720.51 935.33, 720.58 936.0, 720.67 936.67, 720.76 937.33, 720.85 938.0, 720.95 938.67, 721.05 939.33, 721.17 940.0, 721.28 940.67, 721.4 941.33, 721.53 942.0, 721.66 942.67, 721.8 943.33, 721.94 944.0, 722.09 944.67, 722.25 945.33, 722.41 946.0, 722.57 946.67, 722.74 947.33, 722.92 948.0, 723.1 948.67, 723.28 949.33, 723.48 950.0, 723.67 950.67, 723.88 951.33, 724.08 952.0, 724.3 952.67, 724.51 953.33, 724.74 954.0, 724.97 954.67, 725.2 955.33, 725.44 956.0, 725.68 956.67, 725.93 957.33, 726.19 958.0, 726.45 958.67, 726.71 959.33, 726.98 960.0, 727.26 960.67, 727.54 961.33, 727.82 962.0, 728.11 962.67, 728.41 963.33, 728.71 964.0, 729.01 964.67, 729.32 965.33, 729.64 966.0, 729.96 966.67, 730.28 967.33, 730.61 968.0, 730.94 968.67, 731.28 969.33, 731.63 970.0, 731.97 970.67, 732.33 971.33, 732.69 972.0, 733.05 972.67, 733.42 973.33, 733.79 974.0, 734.16 974.67, 734.54 975.33, 734.93 976.0, 735.32 976.67, 735.71 977.33, 736.11 978.0, 736.52 978.67, 736.93 979.33, 737.34 980.0, 737.75 980.67, 738.18 981.33, 738.6 982.0, 739.03 982.67, 739.46 983.33, 739.9 984.0, 740.34 984.67, 740.79 985.33, 741.24 986.0, 741.69 986.67, 742.15 987.33, 742.62 988.0, 743.08 988.67, 743.55 989.33, 744.03 990.0, 744.51 990.67, 744.99 991.33, 745.47 992.0, 745.96 992.67, 746.46 993.33, 746.95 994.0, 747.45 994.67, 747.96 995.33, 748.47 996.0, 748.98 996.67, 749.49 997.33, 750.01 998.0, 750.54 998.67, 751.06 999.33, 751.59 1000.0, 752.12 1000.67, 752.66 1001.33, 753.2 1002.0, 753.74 1002.67, 754.28 1003.33, 754.83 1004.0, 755.39 1004.67, 755.94 1005.33, 756.5 1006.0, 757.06 1006.67, 757.62 1007.33, 758.19 1008.0, 758.76 1008.67, 759.33 1009.33, 759.91 1010.0, 760.49 1010.67, 761.07 1011.33, 761.65 1012.0, 762.24 1012.67, 762.83 1013.33, 763.42 1014.0, 764.01 1014.67, 764.61 1015.33, 765.21 1016.0, 765.81 1016.67, 766.41 1017.33, 767.02 1018.0, 767.63 1018.67, 768.24 1019.33, 768.85 1020.0, 769.47 1020.67, 770.08 1021.33, 770.7 1022.0, 771.33 1022.67, 771.95 1023.33, 772.57 1024.0, 773.2 1024.67, 773.83 1025.33, 774.46 1026.0, 775.09 1026.67, 775.73 1027.33, 776.36 1028.0, 777.0 1028.67, 777.64 1029.33, 778.28 1030.0, 778.92 1030.67, 779.57 1031.33, 780.21 1032.0, 780.86 1032.67, 781.51 1033.33, 782.16 1034.0, 782.81 1034.67, 783.46 1035.33, 784.11 1036.0, 784.77 1036.67, 785.42 1037.33, 786.08 1038.0, 786.73 1038.67, 787.39 1039.33, 788.05 1040.0, 788.71 1040.67, 789.37 1041.33, 790.03 1042.0, 790.69 1042.67, 791.36 1043.33, 792.02 1044.0, 792.68 1044.67, 793.35 1045.33, 794.01 1046.0, 794.68 1046.67, 795.34 1047.33, 796.01 1048.0, 796.67 1048.67, 797.34 1049.33, 798.01 1050.0, 798.67 1050.67, 799.34 1051.33, 800.01 1052.0, 800.67 1052.67, 801.34 1053.33, 802.01 1054.0, 802.67 1054.67, 803.34 1055.33, 804.0 1056.0, 804.67 1056.67, 805.34 1057.33, 806.0 1058.0, 806.66 1058.67, 807.33 1059.33, 807.99 1060.0, 808.66 1060.67, 809.32 1061.33, 809.98 1062.0, 810.64 1062.67, 811.3 1063.33, 811.96 1064.0, 812.62 1064.67, 813.28 1065.33, 813.93 1066.0, 814.59 1066.67, 815.25 1067.33, 815.9 1068.0, 816.55 1068.67, 817.2 1069.33, 817.85 1070.0, 818.5 1070.67, 819.15 1071.33, 819.8 1072.0, 820.44 1072.67, 821.09 1073.33, 821.73 1074.0, 822.37 1074.67, 823.01 1075.33, 823.65 1076.0, 824.28 1076.67, 824.92 1077.33, 825.55 1078.0, 826.18 1078.67, 826.81 1079.33, 827.44 1080.0, 828.06 1080.67, 828.69 1081.33, 829.31 1082.0, 829.93 1082.67, 830.54 1083.33, 831.16 1084.0, 831.77 1084.67, 832.38 1085.33, 832.99 1086.0, 833.6 1086.67, 834.2 1087.33, 834.8 1088.0, 835.4 1088.67, 836.0 1089.33, 836.59 1090.0, 837.18 1090.67, 837.77 1091.33, 838.36 1092.0, 838.94 1092.67, 839.52 1093.33, 840.1 1094.0, 840.68 1094.67, 841.25 1095.33, 841.82 1096.0, 842.39 1096.67, 842.95 1097.33, 843.51 1098.0, 844.07 1098.67, 844.62 1099.33, 845.18 1100.0, 845.73 1100.67, 846.27 1101.33, 846.81 1102.0, 847.35 1102.67, 847.89 1103.33, 848.42 1104.0, 848.95 1104.67, 849.47 1105.33, 850.0 1106.0, 850.52 1106.67, 851.03 1107.33, 851.54 1108.0, 852.05 1108.67, 852.56 1109.33, 853.06 1110.0, 853.55 1110.67, 854.05 1111.33, 854.54 1112.0, 855.02 1112.67, 855.5 1113.33, 855.98 1114.0, 856.46 1114.67, 856.93 1115.33, 857.39 1116.0, 857.86 1116.67, 858.31 1117.33, 858.77 1118.0, 859.22 1118.67, 859.67 1119.33, 860.11 1120.0, 860.55 1120.67, 860.98 1121.33, 861.41 1122.0, 861.83 1122.67, 862.25 1123.33, 862.67 1124.0, 863.08 1124.67, 863.49 1125.33, 863.89 1126.0, 864.29 1126.67, 864.69 1127.33, 865.08 1128.0, 865.46 1128.67, 865.84 1129.33, 866.22 1130.0, 866.59 1130.67, 866.96 1131.33, 867.32 1132.0, 867.68 1132.67, 868.03 1133.33, 868.38 1134.0, 868.73 1134.67, 869.07 1135.33, 869.4 1136.0, 869.73 1136.67, 870.05 1137.33, 870.37 1138.0, 870.69 1138.67, 871.0 1139.33, 871.3 1140.0, 871.6 1140.67, 871.9 1141.33, 872.19 1142.0, 872.47 1142.67, 872.75 1143.33, 873.03 1144.0, 873.3 1144.67, 873.56 1145.33, 873.82 1146.0, 874.08 1146.67, 874.33 1147.33, 874.57 1148.0, 874.81 1148.67, 875.04 1149.33, 875.27 1150.0, 875.49 1150.67, 875.71 1151.33, 875.93 1152.0, 876.13 1152.67, 876.34 1153.33, 876.53 1154.0, 876.73 1154.67, 876.91 1155.33, 877.09 1156.0, 877.27 1156.67, 877.44 1157.33, 877.6 1158.0, 877.76 1158.67, 877.92 1159.33, 878.07 1160.0, 878.21 1160.67, 878.35 1161.33, 878.48 1162.0, 878.61 1162.67, 878.73 1163.33, 878.85 1164.0, 878.96 1164.67, 879.06 1165.33, 879.16 1166.0, 879.26 1166.67, 879.35 1167.33, 879.43 1168.0, 879.51 1168.67, 879.58 1169.33, 879.65 1170.0, 879.71 1170.67, 879.76 1171.33, 879.81 1172.0, 879.86 1172.67, 879.9 1173.33, 879.93 1174.0, 879.96 1174.67, 879.98 1175.33, 880.0 1176.0, 880.01 1176.67, 880.02 1177.33, 880.02 1178.0, 880.01 1178.67, 880.0 1179.33, 879.98 1180.0, 879.96 1180.67, 879.94 1181.33, 879.9 1182.0, 879.86 1182.67, 879.82 1183.33, 879.77 1184.0, 879.72 1184.67, 879.66 1185.33, 879.59 1186.0, 879.52 1186.67, 879.44 1187.33, 879.36 1188.0, 879.27 1188.67, 879.18 1189.33, 879.08 1190.0, 878.97 1190.67, 878.87 1191.33, 878.75 1192.0, 878.63 1192.67, 878.5 1193.33, 878.37 1194.0, 878.23 1194.67, 878.09 1195.33, 877.94 1196.0, 877.79 1196.67, 877.63 1197.33, 877.47 1198.0, 877.3 1198.67, 877.13 1199.33, 876.95 1200.0, 876.76 1200.67, 876.57 1201.33, 876.37 1202.0, 876.17 1202.67, 875.97 1203.33, 875.75 1204.0, 875.54 1204.67, 875.32 1205.33, 875.09 1206.0, 874.86 1206.67, 874.62 1207.33, 874.38 1208.0, 874.13 1208.67, 873.88 1209.33, 873.62 1210.0, 873.36 1210.67, 873.09 1211.33, 872.81 1212.0, 872.54 1212.67, 872.25 1213.33, 871.97 1214.0, 871.67 1214.67, 871.37 1215.33, 871.07 1216.0, 870.76 1216.67, 870.45 1217.33, 870.13 1218.0, 869.81 1218.67, 869.49 1219.33, 869.15 1220.0, 868.82 1220.67, 868.48 1221.33, 868.13 1222.0, 867.78 1222.67, 867.43 1223.33, 867.07 1224.0, 866.7 1224.67, 866.33 1225.33, 865.96 1226.0, 865.58 1226.67, 865.2 1227.33, 864.81 1228.0, 864.42 1228.67, 864.03 1229.33, 863.63 1230.0, 863.22 1230.67, 862.81 1231.33, 862.4 1232.0, 861.98 1232.67, 861.56 1233.33, 861.14 1234.0, 860.71 1234.67, 860.28 1235.33, 859.84 1236.0, 859.4 1236.67, 858.95 1237.33, 858.5 1238.0, 858.05 1238.67, 857.59 1239.33, 857.13 1240.0, 856.66 1240.67, 856.2 1241.33, 855.72 1242.0, 855.25 1242.67, 854.77 1243.33, 854.28 1244.0, 853.8 1244.67, 853.3 1245.33, 852.81 1246.0, 852.31 1246.67, 851.81 1247.33, 851.31 1248.0, 850.8 1248.67, 850.29 1249.33, 849.77 1250.0, 849.25 1250.67, 848.73 1251.33, 848.21 1252.0, 847.68 1252.67, 847.15 1253.33, 846.62 1254.0, 846.08 1254.67, 845.54 1255.33, 845.0 1256.0, 844.45 1256.67, 843.9 1257.33, 843.35 1258.0, 842.8 1258.67, 842.24 1259.33, 841.68 1260.0, 841.12 1260.67, 840.56 1261.33, 839.99 1262.0, 839.42 1262.67, 838.85 1263.33, 838.27 1264.0, 837.7 1264.67, 837.12 1265.33, 836.54 1266.0, 835.95 1266.67, 835.37 1267.33, 834.78 1268.0, 834.19 1268.67, 833.6 1269.33, 833.0 1270.0, 832.41 1270.67, 831.81 1271.33, 831.21 1272.0, 830.61 1272.67, 830.0 1273.33, 829.4 1274.0, 828.79 1274.67, 828.18 1275.33, 827.58 1276.0, 826.96 1276.67, 826.35 1277.33, 825.74 1278.0, 825.12 1278.67, 824.51 1279.33, 823.89 1280.0, 823.27 1280.67, 822.65 1281.33, 822.03 1282.0, 821.41 1282.67, 820.78 1283.33, 820.16 1284.0, 819.53 1284.67, 818.91 1285.33, 818.28 1286.0, 817.66 1286.67, 817.03 1287.33, 816.4 1288.0, 815.77 1288.67, 815.14 1289.33, 814.51 1290.0, 813.88 1290.67, 813.25 1291.33, 812.62 1292.0, 811.99 1292.67, 811.36 1293.33, 810.73 1294.0, 810.1 1294.67, 809.47 1295.33, 808.84 1296.0, 808.21 1296.67, 807.58 1297.33, 806.95 1298.0, 806.32 1298.67, 805.69 1299.33, 805.06 1300.0, 804.43 1300.67, 803.8 1301.33, 803.18 1302.0, 802.55 1302.67, 801.92 1303.33, 801.3 1304.0, 800.68 1304.67, 800.05 1305.33, 799.43 1306.0, 798.81 1306.67, 798.19 1307.33, 797.57 1308.0, 796.96 1308.67, 796.34 1309.33, 795.72 1310.0, 795.11 1310.67, 794.5 1311.33, 793.89 1312.0, 793.28 1312.67, 792.68 1313.33, 792.07 1314.0, 791.47 1314.67, 790.87 1315.33, 790.27 1316.0, 789.67 1316.67, 789.08 1317.33, 788.48 1318.0, 787.89 1318.67, 787.31 1319.33, 786.72 1320.0, 786.14 1320.67, 785.56 1321.33, 784.98 1322.0, 784.4 1322.67, 783.83 1323.33, 783.26 1324.0, 782.69 1324.67, 782.13 1325.33, 781.57 1326.0, 781.01 1326.67, 780.45 1327.33, 779.9 1328.0, 779.35 1328.67, 778.81 1329.33, 778.27 1330.0, 777.73 1330.67, 777.19 1331.33, 776.66 1332.0, 776.14 1332.67, 775.61 1333.33, 775.09 1334.0, 774.58 1334.67, 774.07 1335.33, 773.56 1336.0, 773.06 1336.67, 772.56 1337.33, 772.06 1338.0, 771.57 1338.67, 771.09 1339.33, 770.61 1340.0, 770.13 1340.67, 769.66 1341.33, 769.19 1342.0, 768.73 1342.67, 768.27 1343.33, 767.82 1344.0, 767.37 1344.67, 766.93 1345.33, 766.49 1346.0, 766.06 1346.67, 765.64 1347.33, 765.22 1348.0, 764.8 1348.67, 764.39 1349.33, 763.99 1350.0, 763.59 1350.67, 763.2 1351.33, 762.82 1352.0, 762.44 1352.67, 762.07 1353.33, 761.7 1354.0, 761.34 1354.67, 760.99 1355.33, 760.64 1356.0, 760.3 1356.67, 759.96 1357.33, 759.64 1358.0, 759.32 1358.67, 759.0 1359.33, 758.7 1360.0, 758.4 1360.67, 758.11 1361.33, 757.82 1362.0, 757.55 1362.67, 757.28 1363.33, 757.02 1364.0, 756.76 1364.67, 756.52 1365.33, 756.28 1366.0, 756.05 1366.67, 755.83 1367.33, 755.62 1368.0, 755.41 1368.67, 755.21 1369.33, 755.03 1370.0, 754.85 1370.67, 754.68 1371.33, 754.52 1372.0, 754.36 1372.67, 754.22 1373.33, 754.09 1374.0, 753.96 1374.67, 753.84 1375.33, 753.74 1376.0, 753.64 1376.67, 753.55 1377.33, 753.48 1378.0, 753.41 1378.67, 753.35 1379.33, 753.31 1380.0, 753.27 1380.67, 753.24 1381.33, 753.23 1382.0, 753.22 1382.67, 753.23 1383.33, 753.25 1384.0, 753.27 1384.67, 753.31 1385.33, 753.36 1386.0, 753.42 1386.67, 753.5 1387.33, 753.58 1388.0, 753.68 1388.67, 753.78 1389.33, 753.9 1390.0, 754.04 1390.67, 754.18 1391.33, 754.34 1392.0, 754.51 1392.67, 754.69 1393.33, 754.88 1394.0, 755.09 1394.67, 755.31 1395.33, 755.54 1396.0, 755.79 1396.67, 756.05 1397.33, 756.32 1398.0, 756.61 1398.67, 756.91 1399.33, 757.23 1400.0, 757.56 1400.67, 757.9 1401.33, 758.26 1402.0, 758.64 1402.67, 759.02 1403.33, 759.43 1404.0, 759.84 1404.67, 760.28 1405.33, 760.73 1406.0, 761.19 1406.67, 761.67 1407.33, 762.17 1408.0, 762.68 1408.67, 763.21 1409.33, 763.75 1410.0, 764.31 1410.67, 764.89 1411.33, 765.49 1412.0, 766.1 1412.67, 766.73 1413.33, 767.37 1414.0, 768.04 1414.67, 768.72 1415.33, 769.42 1416.0, 770.14 1416.67, 770.87 1417.33, 771.63 1418.0, 772.4 1418.67, 773.2 1419.33, 774.01 1420.0, 774.84 1420.67, 775.69 1421.33, 776.56 1422.0, 777.45 1422.67, 778.36 1423.33, 779.29 1424.0, 780.24 1424.67, 781.21 1425.33, 782.2 1426.0, 783.22 1426.67, 784.25 1427.33, 785.31 1428.0, 786.39 1428.67, 787.49 1429.33, 788.61 1430.0, 789.76 1430.67, 790.93 1431.33, 792.12 1432.0, 793.33 1432.67, 794.57 1433.33, 795.83 1434.0, 797.12 1434.67, 798.43 1435.33, 799.76 1436.0, 801.12 1436.67, 802.5 1437.33, 803.91 1438.0, 805.34 1438.67, 806.8 1439.33, 808.29 1440.0, 809.8 1440.67, 811.34 1441.33, 812.9 1442.0, 814.5 1442.67, 816.11 1443.33, 817.76 1444.0, 819.44 1444.67, 821.14 1445.33, 822.87 1446.0, 824.63 1446.67, 826.42 1447.33, 828.24 1448.0, 830.09 1448.67, 831.96 1449.33, 833.87 1450.0, 835.81 1450.67, 837.78 1451.33, 839.78 1452.0, 841.81 1452.67, 843.88 1453.33, 845.97 1454.0, 848.1 1454.67, 850.26 1455.33, 852.45 1456.0, 854.68 1456.67, 856.94 1457.33, 859.24 1458.0, 861.57 1458.67, 863.94 1459.33, 866.34 1460.0, 868.77 1460.67, 871.24 1461.33, 873.75 1462.0, 876.3 1462.67, 878.88 1463.33, 881.5 1464.0, 884.16 1464.67, 886.85 1465.33, 889.58 1466.0, 892.36 1466.67, 895.17 1467.33, 898.02 1468.0, 900.92 1468.67, 903.85 1469.33, 906.82 1470.0, 909.84 1470.67, 912.9 1471.33, 916.0 1472.0, 919.14 1472.67, 922.32 1473.33, 925.55 1474.0, 928.83 1474.67, 932.15 1475.33, 935.51 1476.0, 938.92 1476.67, 942.37 1477.33, 945.87 1478.0, 949.42 1478.67, 953.02 1479.33, 956.66 1480.0, 960.35 1480.67, 964.09 1481.33, 967.88 1482.0, 971.72 1482.67, 975.61 1483.33, 979.55 1484.0, 983.54 1484.67, 987.58 1485.33, 991.68 1486.0, 995.83 1486.67, 1000.03 1487.33, 1004.29 1488.0, 1008.6 1488.67, 1012.96 1489.33, 1017.39 1490.0, 1021.86 1490.67, 1026.4 1491.33, 1030.99 1492.0, 1035.64 1492.67, 1040.35 1493.33, 1045.12 1494.0, 1049.95 1494.67, 1054.83 1495.33, 1059.78 1496.0, 1064.79 1496.67, 1069.87 1497.33, 1075.0 1498.0, 1080.2 1498.67, 1085.46 1499.33, 1090.79 1500.0, 1096.18 1500.67, 1101.64 1501.33, 1107.17 1502.0, 1112.76 1502.67, 1118.42 1503.33, 1124.15 1504.0, 1129.95 1504.67, 1135.82 1505.33, 1141.76 1506.0, 1147.77 1506.67, 1153.85 1507.33, 1160.01 1508.0, 1166.24 1508.67, 1172.54 1509.33, 1178.92 1510.0, 1185.38 1510.67, 1191.91 1511.33, 1198.52 1512.0, 1205.2 1512.67, 1211.97 1513.33, 1218.81 1514.0, 1225.74 1514.67, 1232.75 1515.33, 1239.83 1516.0, 1247.01 1516.67, 1254.26 1517.33, 1261.6 1518.0, 1269.02 1518.67, 1276.53 1519.33, 1284.13 1520.0, 1291.82 1520.67, 1299.59 1521.33, 1307.45 1522.0, 1315.4 1522.67, 1323.45 1523.33, 1331.58 1524.0, 1339.81 1524.67, 1348.13 1525.33, 1356.55 1526.0, 1365.06 1526.67, 1373.67 1527.33, 1382.38 1528.0, 1391.18 1528.67, 1400.09 1529.33, 1409.09 1530.0, 1418.19 1530.67, 1427.4 1531.33, 1436.71 1532.0, 1446.12 1532.67, 1455.64 1533.33, 1465.27 1534.0, 1475.0 1534.67, 1484.84 1535.33, 1494.78 1536.0, 1504.84 1536.67, 1515.01 1537.33, 1525.29 1538.0, 1535.68 1538.67, 1546.19 1539.33, 1556.81 1540.0, 1567.55 1540.67, 1578.4 1541.33, 1589.37 1542.0, 1600.47 1542.67, 1611.68 1543.33, 1623.01 1544.0, 1634.47 1544.67, 1646.05 1545.33, 1657.75 1546.0, 1669.58 1546.67, 1681.53 1547.33, 1693.62 1548.0, 1705.83 1548.67, 1718.18 1549.33, 1730.65 1550.0, 1743.26 1550.67, 1756.0 1551.33, 1768.87 1552.0, 1781.89 1552.67, 1795.04 1553.33, 1808.32 1554.0, 1821.75 1554.67, 1835.32 1555.33, 1849.03 1556.0, 1862.88 1556.67, 1876.88 1557.33, 1891.02 1558.0, 1905.31 1558.67, 1919.75 1559.33, 1934.33 1560.0, 1949.07 1560.67, 1963.96 1561.33, 1979.0 1562.0, 1994.2 1562.67, 2009.55 1563.33, 2025.06 1564.0, 2040.73 1564.67, 2056.56 1565.33, 2072.54 1566.0, 2088.69 1566.67, 2105.01 1567.33, 2121.49 1568.0, 2138.13 1568.67, 2154.94 1569.33, 2171.92 1570.0, 2189.07 1570.67, 2206.4 1571.33, 2223.89 1572.0, 2241.56 1572.67, 2259.4 1573.33, 2277.42 1574.0, 2295.62 1574.67, 2314.0 1575.33, 2332.56 1576.0, 2351.3 1576.67, 2370.23 1577.33, 2389.34 1578.0, 2408.64 1578.67, 2428.12 1579.33, 2447.8 1580.0, 2467.66 1580.67, 2487.72 1581.33, 2507.97 1582.0, 2528.41 1582.67, 2549.06 1583.33, 2569.9 1584.0, 2590.94 1584.67, 2612.18 1585.33, 2633.62 1586.0, 2655.26 1586.67, 2677.11 1587.33, 2699.17 1588.0, 2721.43 1588.67, 2743.91 1589.33, 2766.59 1590.0, 2789.49 1590.67, 2812.6 1591.33, 2835.92 1592.0, 2859.47 1592.67, 2883.22 1593.33, 2907.2 1594.0, 2931.4 1594.67, 2955.82 1595.33, 2980.47 1596.0, 3005.34 1596.67, 3030.44 1597.33, 3055.76 1598.0, 3081.32 1598.67, 3107.1 1599.33, 3133.12 1600.0, 3159.37 " fill="none" stroke="white" stroke-width="1.5" stroke-linejoin="round" stroke-opacity="1"/>

 </svg>