<svg version="1.1" 
 baseProfile="full" 
 width="1600" 
 height="1600" 
 xmlns="http://www.w3.org/2000/svg">
<rect x="0.0" y="0.0" width="1600" height="1600" fill="black" stroke="black" stroke-width="0" opacity="1"/>
<line x1="0.0" y1="0.0" x2="0.0" y2="1600.0" stroke="white" stroke-width="1" opacity="0.4" stroke-linecap="butt"/>
<line x1="160.0" y1="0.0" x2="160.0" y2="1600.0" stroke="white" stroke-width="1" opacity="0.4" stroke-linecap="butt"/>
<line x1="320.0" y1="0.0" x2="320.0" y2="1600.0" stroke="white" stroke-width="1" opacity="0.4" stroke-linecap="butt"/>
<line x1="480.0" y1="0.0" x2="480.0" y2="1600.0" stroke="white" stroke-width="1" opacity="0.4" stroke-linecap="butt"/>
<line x1="640.0" y1="0.0" x2="640.0" y2="1600.0" stroke="white" stroke-width="1" opacity="0.4" stroke-linecap="butt"/>
<line x1="800.0" y1="0.0" x2="800.0" y2="1600.0" stroke="white" stroke-width="1" opacity="0.4" stroke-linecap="butt"/>
<line x1="960.0" y1="0.0" x2="960.0" y2="1600.0" stroke="white" stroke-width="1" opacity="0.4" stroke-linecap="butt"/>
<line x1="1120.0" y1="0.0" x2="1120.0" y2="1600.0" stroke="white" stroke-width="1" opacity="0.4" stroke-linecap="butt"/>
<line x1="1280.0" y1="0.0" x2="1280.0" y2="1600.0" stroke="white" stroke-width="1" opacity="0.4" stroke-linecap="butt"/>
<line x1="1440.0" y1="0.0" x2="1440.0" y2="1600.0" stroke="white" stroke-width="1" opacity="0.4" stroke-linecap="butt"/>
<line x1="0.0" y1="0.0" x2="1600.0" y2="0.0" stroke="white" stroke-width="1" opacity="0.4" stroke-linecap="butt"/>
<line x1="0.0" y1="160.0" x2="1600.0" y2="160.0" stroke="white" stroke-width="1" opacity="0.4" stroke-linecap="butt"/>
<line x1="0.0" y1="320.0" x2="1600.0" y2="320.0" stroke="white" stroke-width="1" opacity="0.4" stroke-linecap="butt"/>
<line x1="0.0" y1="480.0" x2="1600.0" y2="480.0" stroke="white" stroke-width="1" opacity="0.4" stroke-linecap="butt"/>
<line x1="0.0" y1="640.0" x2="1600.0" y2="640.0" stroke="white" stroke-width="1" opacity="0.4" stroke-linecap="butt"/>
<line x1="0.0" y1="800.0" x2="1600.0" y2="800.0" stroke="white" stroke-width="1" opacity="0.4" stroke-linecap="butt"/>
<line x1="0.0" y1="960.0" x2="1600.0" y2="960.0" stroke="white" stroke-width="1" opacity="0.4" stroke-linecap="butt"/>
<line x1="0.0" y1="1120.0" x2="1600.0" y2="1120.0" stroke="white" stroke-width="1" opacity="0.4" stroke-linecap="butt"/>
<line x1="0.0" y1="1280.0" x2="1600.0" y2="1280.0" stroke="white" stroke-width="1" opacity="0.4" stroke-linecap="butt"/>
<line x1="0.0" y1="1440.0" x2="1600.0" y2="1440.0" stroke="white" stroke-width="1" opacity="0.4" stroke-linecap="butt"/>
<line x1="0.0" y1="800.0" x2="1600.0" y2="800.0" stroke="yellow" stroke-width="2.5" opacity="1" stroke-linecap="butt"/>
<line x1="800.0" y1="0.0" x2="800.0" y2="1600.0" stroke="yellow" stroke-width="2.5" opacity="1" stroke-linecap="butt"/>
<polygon points="1564.0 816.0, 1604.0 800.0, 1564.0 784.0, 1572.0 800.0" fill="yellow"/><polygon points="816.0 36.0, 800.0 -4.0, 784.0 36.0, 800.0 28.0" fill="yellow"/><polyline points="0.0, 127.5 0.67, 130.01 1.33, 132.61 2.0, 135.28 2.67, 138.03 3.33, 140.85 4.0, 143.74 4.67, 146.71 5.33, 149.73 6.0, 152.83 6.67, 155.98 7.33, 159.2 8.0, 162.47 8.67, 165.8 9.33, 169.19 10.0, 172.63 10.67, 176.11 11.33, 179.65 12.0, 183.23 12.67, 186.86 13.33, 190.53 14.0, 194.24 14.67, 197.99 15.33, 201.78 16.0, 205.6 16.67, 209.46 17.33, 213.35 18.0, 217.28 18.67, 221.23 19.33, 225.21 20.0, 229.22 20.67, 233.26 21.33, 237.32 22.0, 241.4 22.67, 245.51 23.33, 249.64 24.0, 253.78 24.67, 257.94 25.33, 262.12 26.0, 266.32 26.67, 270.53 27.33, 274.75 28.0, 278.99 28.67, 283.24 29.33, 287.5 30.0, 291.76 30.67, 296.04 31.33, 300.32 32.0, 304.61 32.67, 308.9 33.33, 313.2 34.0, 317.5 34.67, 321.81 35.33, 326.11 36.0, 330.42 36.67, 334.73 37.33, 339.04 38.0, 343.34 38.67, 347.65 39.33, 351.95 40.0, 356.25 40.67, 360.54 41.33, 364.83 42.0, 369.11 42.67, 373.39 43.33, 377.66 44.0, 381.92 44.67, 386.17 45.33, 390.42 46.0, 394.66 46.67, 398.88 47.33, 403.1 48.0, 407.3 48.67, 411.5 49.33, 415.68 50.0, 419.85 50.67, 424.01 51.33, 428.16 52.0, 432.29 52.67, 436.41 53.33, 440.51 54.0, 444.6 54.67, 448.67 55.33, 452.73 56.0, 456.77 56.67, 460.8 57.33, 464.81 58.0, 468.8 58.67, 472.78 59.33, 476.73 60.0, 480.67 60.67, 484.6 61.33, 488.5 62.0, 492.39 62.67, 496.25 63.33, 500.1 64.0, 503.93 64.67, 507.74 65.33, 511.52 66.0, 515.29 66.67, 519.04 67.33, 522.77 68.0, 526.47 68.67, 530.16 69.33, 533.83 70.0, 537.47 70.67, 541.09 71.33, 544.7 72.0, 548.28 72.67, 551.83 73.33, 555.37 74.0, 558.88 74.67, 562.38 75.33, 565.85 76.0, 569.29 76.67, 572.72 77.33, 576.12 78.0, 579.5 78.67, 582.86 79.33, 586.2 80.0, 589.51 80.67, 592.8 81.33, 596.06 82.0, 599.31 82.67, 602.53 83.33, 605.72 84.0, 608.9 84.67, 612.05 85.33, 615.18 86.0, 618.28 86.67, 621.36 87.33, 624.42 88.0, 627.45 88.67, 630.46 89.33, 633.45 90.0, 636.42 90.67, 639.36 91.33, 642.27 92.0, 645.17 92.67, 648.04 93.33, 650.89 94.0, 653.71 94.67, 656.51 95.33, 659.29 96.0, 662.05 96.67, 664.78 97.33, 667.49 98.0, 670.17 98.67, 672.83 99.33, 675.47 100.0, 678.09 100.67, 680.68 101.33, 683.25 102.0, 685.8 102.67, 688.32 103.33, 690.82 104.0, 693.3 104.67, 695.76 105.33, 698.19 106.0, 700.6 106.67, 702.99 107.33, 705.35 108.0, 707.69 108.67, 710.02 109.33, 712.31 110.0, 714.59 110.67, 716.84 111.33, 719.08 112.0, 721.29 112.67, 723.47 113.33, 725.64 114.0, 727.78 114.67, 729.91 115.33, 732.01 116.0, 734.09 116.67, 736.14 117.33, 738.18 118.0, 740.2 118.67, 742.19 119.33, 744.16 120.0, 746.11 120.67, 748.04 121.33, 749.95 122.0, 751.84 122.67, 753.71 123.33, 755.56 124.0, 757.39 124.67, 759.19 125.33, 760.98 126.0, 762.75 126.67, 764.49 127.33, 766.22 128.0, 767.92 128.67, 769.61 129.33, 771.28 130.0, 772.92 130.67, 774.55 131.33, 776.16 132.0, 777.74 132.67, 779.31 133.33, 780.86 134.0, 782.39 134.67, 783.9 135.33, 785.4 136.0, 786.87 136.67, 788.32 137.33, 789.76 138.0, 791.18 138.67, 792.58 139.33, 793.96 140.0, 795.32 140.67, 796.66 141.33, 797.99 142.0, 799.3 142.67, 800.59 143.33, 801.86 144.0, 803.12 144.67, 804.35 145.33, 805.57 146.0, 806.78 146.67, 807.96 147.33, 809.13 148.0, 810.28 148.67, 811.41 149.33, 812.53 150.0, 813.63 150.67, 814.71 151.33, 815.78 152.0, 816.83 152.67, 817.87 153.33, 818.88 154.0, 819.88 154.67, 820.87 155.33, 821.84 156.0, 822.79 156.67, 823.73 157.33, 824.65 158.0, 825.56 158.67, 826.45 159.33, 827.32 160.0, 828.18 160.67, 829.03 161.33, 829.86 162.0, 830.67 162.67, 831.47 163.33, 832.26 164.0, 833.03 164.67, 833.78 165.33, 834.52 166.0, 835.25 166.67, 835.96 167.33, 836.66 168.0, 837.34 168.67, 838.01 169.33, 838.66 170.0, 839.3 170.67, 839.93 171.33, 840.54 172.0, 841.14 172.67, 841.73 173.33, 842.3 174.0, 842.86 174.67, 843.41 175.33, 843.94 176.0, 844.46 176.67, 844.97 177.33, 845.46 178.0, 845.94 178.67, 846.41 179.33, 846.86 180.0, 847.3 180.67, 847.73 181.33, 848.15 182.0, 848.56 182.67, 848.95 183.33, 849.33 184.0, 849.7 184.67, 850.05 185.33, 850.4 186.0, 850.73 186.67, 851.05 187.33, 851.36 188.0, 851.66 188.67, 851.94 189.33, 852.22 190.0, 852.48 190.67, 852.73 191.33, 852.97 192.0, 853.2 192.67, 853.42 193.33, 853.63 194.0, 853.83 194.67, 854.01 195.33, 854.19 196.0, 854.35 196.67, 854.51 197.33, 854.65 198.0, 854.78 198.67, 854.91 199.33, 855.02 200.0, 855.12 200.67, 855.21 201.33, 855.3 202.0, 855.37 202.67, 855.43 203.33, 855.48 204.0, 855.53 204.67, 855.56 205.33, 855.58 206.0, 855.6 206.67, 855.6 207.33, 855.6 208.0, 855.59 208.67, 855.57 209.33, 855.53 210.0, 855.49 210.67, 855.44 211.33, 855.39 212.0, 855.32 212.67, 855.24 213.33, 855.16 214.0, 855.07 214.67, 854.96 215.33, 854.85 216.0, 854.74 216.67, 854.61 217.33, 854.47 218.0, 854.33 218.67, 854.18 219.33, 854.02 220.0, 853.86 220.67, 853.68 221.33, 853.5 222.0, 853.31 222.67, 853.11 223.33, 852.91 224.0, 852.69 224.67, 852.47 225.33, 852.25 226.0, 852.01 226.67, 851.77 227.33, 851.52 228.0, 851.26 228.67, 851.0 229.33, 850.73 230.0, 850.45 230.67, 850.17 231.33, 849.88 232.0, 849.58 232.67, 849.28 233.33, 848.97 234.0, 848.65 234.67, 848.33 235.33, 848.0 236.0, 847.66 236.67, 847.32 237.33, 846.98 238.0, 846.62 238.67, 846.26 239.33, 845.9 240.0, 845.52 240.67, 845.15 241.33, 844.76 242.0, 844.38 242.67, 843.98 243.33, 843.58 244.0, 843.18 244.67, 842.77 245.33, 842.35 246.0, 841.93 246.67, 841.5 247.33, 841.07 248.0, 840.63 248.67, 840.19 249.33, 839.75 250.0, 839.29 250.67, 838.84 251.33, 838.38 252.0, 837.91 252.67, 837.44 253.33, 836.97 254.0, 836.49 254.67, 836.0 255.33, 835.52 256.0, 835.02 256.67, 834.53 257.33, 834.03 258.0, 833.52 258.67, 833.01 259.33, 832.5 260.0, 831.99 260.67, 831.46 261.33, 830.94 262.0, 830.41 262.67, 829.88 263.33, 829.35 264.0, 828.81 264.67, 828.26 265.33, 827.72 266.0, 827.17 266.67, 826.62 267.33, 826.06 268.0, 825.5 268.67, 824.94 269.33, 824.38 270.0, 823.81 270.67, 823.24 271.33, 822.67 272.0, 822.09 272.67, 821.51 273.33, 820.93 274.0, 820.34 274.67, 819.76 275.33, 819.17 276.0, 818.58 276.67, 817.98 277.33, 817.38 278.0, 816.79 278.67, 816.19 279.33, 815.58 280.0, 814.98 280.67, 814.37 281.33, 813.76 282.0, 813.15 282.67, 812.54 283.33, 811.92 284.0, 811.3 284.67, 810.69 285.33, 810.07 286.0, 809.45 286.67, 808.82 287.33, 808.2 288.0, 807.57 288.67, 806.95 289.33, 806.32 290.0, 805.69 290.67, 805.06 291.33, 804.43 292.0, 803.79 292.67, 803.16 293.33, 802.53 294.0, 801.89 294.67, 801.25 295.33, 800.62 296.0, 799.98 296.67, 799.34 297.33, 798.7 298.0, 798.06 298.67, 797.42 299.33, 796.78 300.0, 796.14 300.67, 795.5 301.33, 794.86 302.0, 794.22 302.67, 793.58 303.33, 792.93 304.0, 792.29 304.67, 791.65 305.33, 791.01 306.0, 790.37 306.67, 789.73 307.33, 789.08 308.0, 788.44 308.67, 787.8 309.33, 787.16 310.0, 786.52 310.67, 785.88 311.33, 785.24 312.0, 784.61 312.67, 783.97 313.33, 783.33 314.0, 782.7 314.67, 782.06 315.33, 781.43 316.0, 780.79 316.67, 780.16 317.33, 779.53 318.0, 778.9 318.67, 778.27 319.33, 777.64 320.0, 777.02 320.67, 776.39 321.33, 775.77 322.0, 775.14 322.67, 774.52 323.33, 773.9 324.0, 773.28 324.67, 772.67 325.33, 772.05 326.0, 771.44 326.67, 770.83 327.33, 770.22 328.0, 769.61 328.67, 769.0 329.33, 768.4 330.0, 767.79 330.67, 767.19 331.33, 766.59 332.0, 766.0 332.67, 765.4 333.33, 764.81 334.0, 764.22 334.67, 763.63 335.33, 763.05 336.0, 762.46 336.67, 761.88 337.33, 761.31 338.0, 760.73 338.67, 760.16 339.33, 759.59 340.0, 759.02 340.67, 758.45 341.33, 757.89 342.0, 757.33 342.67, 756.77 343.33, 756.22 344.0, 755.67 344.67, 755.12 345.33, 754.57 346.0, 754.03 346.67, 753.49 347.33, 752.96 348.0, 752.42 348.67, 751.89 349.33, 751.36 350.0, 750.84 350.67, 750.32 351.33, 749.8 352.0, 749.29 352.67, 748.78 353.33, 748.27 354.0, 747.77 354.67, 747.27 355.33, 746.77 356.0, 746.28 356.67, 745.79 357.33, 745.31 358.0, 744.82 358.67, 744.35 359.33, 743.87 360.0, 743.4 360.67, 742.93 361.33, 742.47 362.0, 742.01 362.67, 741.56 363.33, 741.11 364.0, 740.66 364.67, 740.22 365.33, 739.78 366.0, 739.34 366.67, 738.91 367.33, 738.49 368.0, 738.06 368.67, 737.64 369.33, 737.23 370.0, 736.82 370.67, 736.42 371.33, 736.02 372.0, 735.62 372.67, 735.23 373.33, 734.84 374.0, 734.46 374.67, 734.08 375.33, 733.7 376.0, 733.33 376.67, 732.97 377.33, 732.61 378.0, 732.25 378.67, 731.9 379.33, 731.55 380.0, 731.21 380.67, 730.87 381.33, 730.54 382.0, 730.21 382.67, 729.89 383.33, 729.57 384.0, 729.26 384.67, 728.95 385.33, 728.65 386.0, 728.35 386.67, 728.06 387.33, 727.77 388.0, 727.48 388.67, 727.21 389.33, 726.93 390.0, 726.66 390.67, 726.4 391.33, 726.14 392.0, 725.89 392.67, 725.64 393.33, 725.4 394.0, 725.16 394.67, 724.93 395.33, 724.7 396.0, 724.48 396.67, 724.26 397.33, 724.05 398.0, 723.84 398.67, 723.64 399.33, 723.44 400.0, 723.25 400.67, 723.07 401.33, 722.89 402.0, 722.71 402.67, 722.54 403.33, 722.38 404.0, 722.22 404.67, 722.07 405.33, 721.92 406.0, 721.78 406.67, 721.64 407.33, 721.51 408.0, 721.38 408.67, 721.26 409.33, 721.14 410.0, 721.03 410.67, 720.93 411.33, 720.83 412.0, 720.74 412.67, 720.65 413.33, 720.57 414.0, 720.49 414.67, 720.42 415.33, 720.35 416.0, 720.29 416.67, 720.23 417.33, 720.19 418.0, 720.14 418.67, 720.1 419.33, 720.07 420.0, 720.04 420.67, 720.02 421.33, 720.0 422.0, 719.99 422.67, 719.99 423.33, 719.99 424.0, 719.99 424.67, 720.01 425.33, 720.02 426.0, 720.04 426.67, 720.07 427.33, 720.11 428.0, 720.15 428.67, 720.19 429.33, 720.24 430.0, 720.3 430.67, 720.36 431.33, 720.42 432.0, 720.5 432.67, 720.57 433.33, 720.66 434.0, 720.75 434.67, 720.84 435.33, 720.94 436.0, 721.05 436.67, 721.16 437.33, 721.27 438.0, 721.39 438.67, 721.52 439.33, 721.65 440.0, 721.79 440.67, 721.94 441.33, 722.08 442.0, 722.24 442.67, 722.4 443.33, 722.56 444.0, 722.73 444.67, 722.91 445.33, 723.09 446.0, 723.28 446.67, 723.47 447.33, 723.67 448.0, 723.87 448.67, 724.08 449.33, 724.29 450.0, 724.51 450.67, 724.73 451.33, 724.96 452.0, 725.19 452.67, 725.43 453.33, 725.68 454.0, 725.93 454.67, 726.18 455.33, 726.44 456.0, 726.7 456.67, 726.97 457.33, 727.25 458.0, 727.53 458.67, 727.81 459.33, 728.1 460.0, 728.4 460.67, 728.7 461.33, 729.0 462.0, 729.31 462.67, 729.63 463.33, 729.95 464.0, 730.27 464.67, 730.6 465.33, 730.94 466.0, 731.27 466.67, 731.62 467.33, 731.97 468.0, 732.32 468.67, 732.68 469.33, 733.04 470.0, 733.41 470.67, 733.78 471.33, 734.16 472.0, 734.54 472.67, 734.92 473.33, 735.31 474.0, 735.71 474.67, 736.11 475.33, 736.51 476.0, 736.92 476.67, 737.33 477.33, 737.75 478.0, 738.17 478.67, 738.59 479.33, 739.02 480.0, 739.45 480.67, 739.89 481.33, 740.33 482.0, 740.78 482.67, 741.23 483.33, 741.69 484.0, 742.14 484.67, 742.61 485.33, 743.07 486.0, 743.54 486.67, 744.02 487.33, 744.5 488.0, 744.98 488.67, 745.46 489.33, 745.95 490.0, 746.45 490.67, 746.94 491.33, 747.45 492.0, 747.95 492.67, 748.46 493.33, 748.97 494.0, 749.48 494.67, 750.0 495.33, 750.53 496.0, 751.05 496.67, 751.58 497.33, 752.11 498.0, 752.65 498.67, 753.19 499.33, 753.73 500.0, 754.27 500.67, 754.82 501.33, 755.38 502.0, 755.93 502.67, 756.49 503.33, 757.05 504.0, 757.61 504.67, 758.18 505.33, 758.75 506.0, 759.32 506.67, 759.9 507.33, 760.48 508.0, 761.06 508.67, 761.64 509.33, 762.23 510.0, 762.82 510.67, 763.41 511.33, 764.0 512.0, 764.6 512.67, 765.2 513.33, 765.8 514.0, 766.4 514.67, 767.01 515.33, 767.62 516.0, 768.23 516.67, 768.84 517.33, 769.46 518.0, 770.07 518.67, 770.69 519.33, 771.31 520.0, 771.94 520.67, 772.56 521.33, 773.19 522.0, 773.82 522.67, 774.45 523.33, 775.08 524.0, 775.72 524.67, 776.35 525.33, 776.99 526.0, 777.63 526.67, 778.27 527.33, 778.91 528.0, 779.56 528.67, 780.2 529.33, 780.85 530.0, 781.5 530.67, 782.15 531.33, 782.8 532.0, 783.45 532.67, 784.1 533.33, 784.75 534.0, 785.41 534.67, 786.07 535.33, 786.72 536.0, 787.38 536.67, 788.04 537.33, 788.7 538.0, 789.36 538.67, 790.02 539.33, 790.68 540.0, 791.34 540.67, 792.01 541.33, 792.67 542.0, 793.34 542.67, 794.0 543.33, 794.66 544.0, 795.33 544.67, 796.0 545.33, 796.66 546.0, 797.33 546.67, 797.99 547.33, 798.66 548.0, 799.33 548.67, 799.99 549.33, 800.66 550.0, 801.33 550.67, 801.99 551.33, 802.66 552.0, 803.33 552.67, 803.99 553.33, 804.66 554.0, 805.32 554.67, 805.99 555.33, 806.65 556.0, 807.32 556.67, 807.98 557.33, 808.64 558.0, 809.31 558.67, 809.97 559.33, 810.63 560.0, 811.29 560.67, 811.95 561.33, 812.61 562.0, 813.27 562.67, 813.92 563.33, 814.58 564.0, 815.23 564.67, 815.89 565.33, 816.54 566.0, 817.19 566.67, 817.84 567.33, 818.49 568.0, 819.14 568.67, 819.79 569.33, 820.43 570.0, 821.08 570.67, 821.72 571.33, 822.36 572.0, 823.0 572.67, 823.64 573.33, 824.27 574.0, 824.91 574.67, 825.54 575.33, 826.17 576.0, 826.8 576.67, 827.43 577.33, 828.05 578.0, 828.67 578.67, 829.3 579.33, 829.92 580.0, 830.53 580.67, 831.15 581.33, 831.76 582.0, 832.37 582.67, 832.98 583.33, 833.59 584.0, 834.19 584.67, 834.79 585.33, 835.39 586.0, 835.99 586.67, 836.58 587.33, 837.17 588.0, 837.76 588.67, 838.35 589.33, 838.93 590.0, 839.51 590.67, 840.09 591.33, 840.67 592.0, 841.24 592.67, 841.81 593.33, 842.38 594.0, 842.94 594.67, 843.5 595.33, 844.06 596.0, 844.61 596.67, 845.17 597.33, 845.72 598.0, 846.26 598.67, 846.8 599.33, 847.34 600.0, 847.88 600.67, 848.41 601.33, 848.94 602.0, 849.46 602.67, 849.99 603.33, 850.51 604.0, 851.02 604.67, 851.53 605.33, 852.04 606.0, 852.55 606.67, 853.05 607.33, 853.54 608.0, 854.04 608.67, 854.53 609.33, 855.01 610.0, 855.49 610.67, 855.97 611.33, 856.45 612.0, 856.92 612.67, 857.38 613.33, 857.85 614.0, 858.31 614.67, 858.76 615.33, 859.21 616.0, 859.66 616.67, 860.1 617.33, 860.54 618.0, 860.97 618.67, 861.4 619.33, 861.82 620.0, 862.25 620.67, 862.66 621.33, 863.07 622.0, 863.48 622.67, 863.89 623.33, 864.29 624.0, 864.68 624.67, 865.07 625.33, 865.46 626.0, 865.84 626.67, 866.21 627.33, 866.58 628.0, 866.95 628.67, 867.31 629.33, 867.67 630.0, 868.03 630.67, 868.37 631.33, 868.72 632.0, 869.06 632.67, 869.39 633.33, 869.72 634.0, 870.04 634.67, 870.36 635.33, 870.68 636.0, 870.99 636.67, 871.29 637.33, 871.59 638.0, 871.89 638.67, 872.18 639.33, 872.46 640.0, 872.74 640.67, 873.02 641.33, 873.29 642.0, 873.55 642.67, 873.81 643.33, 874.07 644.0, 874.32 644.67, 874.56 645.33, 874.8 646.0, 875.03 646.67, 875.26 647.33, 875.49 648.0, 875.7 648.67, 875.92 649.33, 876.12 650.0, 876.33 650.67, 876.52 651.33, 876.72 652.0, 876.9 652.67, 877.08 653.33, 877.26 654.0, 877.43 654.67, 877.59 655.33, 877.75 656.0, 877.91 656.67, 878.06 657.33, 878.2 658.0, 878.34 658.67, 878.47 659.33, 878.6 660.0, 878.72 660.67, 878.83 661.33, 878.95 662.0, 879.05 662.67, 879.15 663.33, 879.24 664.0, 879.33 664.67, 879.42 665.33, 879.49 666.0, 879.57 666.67, 879.63 667.33, 879.69 668.0, 879.75 668.67, 879.8 669.33, 879.84 670.0, 879.88 670.67, 879.92 671.33, 879.94 672.0, 879.97 672.67, 879.98 673.33, 879.99 674.0, 880.0 674.67, 880.0 675.33, 879.99 676.0, 879.98 676.67, 879.97 677.33, 879.94 678.0, 879.92 678.67, 879.88 679.33, 879.84 680.0, 879.8 680.67, 879.75 681.33, 879.69 682.0, 879.63 682.67, 879.57 683.33, 879.49 684.0, 879.42 684.67, 879.33 685.33, 879.25 686.0, 879.15 686.67, 879.05 687.33, 878.95 688.0, 878.84 688.67, 878.72 689.33, 878.6 690.0, 878.47 690.67, 878.34 691.33, 878.2 692.0, 878.06 692.67, 877.91 693.33, 877.76 694.0, 877.6 694.67, 877.43 695.33, 877.26 696.0, 877.08 696.67, 876.9 697.33, 876.72 698.0, 876.53 698.67, 876.33 699.33, 876.13 700.0, 875.92 700.67, 875.71 701.33, 875.49 702.0, 875.26 702.67, 875.04 703.33, 874.8 704.0, 874.56 704.67, 874.32 705.33, 874.07 706.0, 873.82 706.67, 873.56 707.33, 873.29 708.0, 873.02 708.67, 872.75 709.33, 872.47 710.0, 872.18 710.67, 871.89 711.33, 871.6 712.0, 871.3 712.67, 870.99 713.33, 870.68 714.0, 870.37 714.67, 870.05 715.33, 869.72 716.0, 869.39 716.67, 869.06 717.33, 868.72 718.0, 868.38 718.67, 868.03 719.33, 867.68 720.0, 867.32 720.67, 866.96 721.33, 866.59 722.0, 866.22 722.67, 865.84 723.33, 865.46 724.0, 865.07 724.67, 864.68 725.33, 864.29 726.0, 863.89 726.67, 863.49 727.33, 863.08 728.0, 862.67 728.67, 862.25 729.33, 861.83 730.0, 861.4 730.67, 860.97 731.33, 860.54 732.0, 860.1 732.67, 859.66 733.33, 859.21 734.0, 858.76 734.67, 858.31 735.33, 857.85 736.0, 857.39 736.67, 856.92 737.33, 856.45 738.0, 855.98 738.67, 855.5 739.33, 855.02 740.0, 854.53 740.67, 854.04 741.33, 853.55 742.0, 853.05 742.67, 852.55 743.33, 852.05 744.0, 851.54 744.67, 851.03 745.33, 850.51 746.0, 849.99 746.67, 849.47 747.33, 848.94 748.0, 848.41 748.67, 847.88 749.33, 847.35 750.0, 846.81 750.67, 846.27 751.33, 845.72 752.0, 845.17 752.67, 844.62 753.33, 844.06 754.0, 843.51 754.67, 842.95 755.33, 842.38 756.0, 841.81 756.67, 841.25 757.33, 840.67 758.0, 840.1 758.67, 839.52 759.33, 838.94 760.0, 838.35 760.67, 837.77 761.33, 837.18 762.0, 836.59 762.67, 835.99 763.33, 835.4 764.0, 834.8 764.67, 834.2 765.33, 833.59 766.0, 832.99 766.67, 832.38 767.33, 831.77 768.0, 831.15 768.67, 830.54 769.33, 829.92 770.0, 829.3 770.67, 828.68 771.33, 828.06 772.0, 827.43 772.67, 826.8 773.33, 826.18 774.0, 825.54 774.67, 824.91 775.33, 824.28 776.0, 823.64 776.67, 823.0 777.33, 822.36 778.0, 821.72 778.67, 821.08 779.33, 820.44 780.0, 819.79 780.67, 819.15 781.33, 818.5 782.0, 817.85 782.67, 817.2 783.33, 816.55 784.0, 815.89 784.67, 815.24 785.33, 814.58 786.0, 813.93 786.67, 813.27 787.33, 812.61 788.0, 811.96 788.67, 811.3 789.33, 810.64 790.0, 809.97 790.67, 809.31 791.33, 808.65 792.0, 807.99 792.67, 807.32 793.33, 806.66 794.0, 805.99 794.67, 805.33 795.33, 804.66 796.0, 804.0 796.67, 803.33 797.33, 802.67 798.0, 802.0 798.67, 801.33 799.33, 800.67 800.0, 800.0 800.67, 799.33 801.33, 798.67 802.0, 798.0 802.67, 797.33 803.33, 796.67 804.0, 796.0 804.67, 795.34 805.33, 794.67 806.0, 794.01 806.67, 793.34 807.33, 792.68 808.0, 792.01 808.67, 791.35 809.33, 790.69 810.0, 790.03 810.67, 789.36 811.33, 788.7 812.0, 788.04 812.67, 787.39 813.33, 786.73 814.0, 786.07 814.67, 785.42 815.33, 784.76 816.0, 784.11 816.67, 783.45 817.33, 782.8 818.0, 782.15 818.67, 781.5 819.33, 780.85 820.0, 780.21 820.67, 779.56 821.33, 778.92 822.0, 778.28 822.67, 777.64 823.33, 777.0 824.0, 776.36 824.67, 775.72 825.33, 775.09 826.0, 774.46 826.67, 773.82 827.33, 773.2 828.0, 772.57 828.67, 771.94 829.33, 771.32 830.0, 770.7 830.67, 770.08 831.33, 769.46 832.0, 768.85 832.67, 768.23 833.33, 767.62 834.0, 767.01 834.67, 766.41 835.33, 765.8 836.0, 765.2 836.67, 764.6 837.33, 764.01 838.0, 763.41 838.67, 762.82 839.33, 762.23 840.0, 761.65 840.67, 761.06 841.33, 760.48 842.0, 759.9 842.67, 759.33 843.33, 758.75 844.0, 758.19 844.67, 757.62 845.33, 757.05 846.0, 756.49 846.67, 755.94 847.33, 755.38 848.0, 754.83 848.67, 754.28 849.33, 753.73 850.0, 753.19 850.67, 752.65 851.33, 752.12 852.0, 751.59 852.67, 751.06 853.33, 750.53 854.0, 750.01 854.67, 749.49 855.33, 748.97 856.0, 748.46 856.67, 747.95 857.33, 747.45 858.0, 746.95 858.67, 746.45 859.33, 745.96 860.0, 745.47 860.67, 744.98 861.33, 744.5 862.0, 744.02 862.67, 743.55 863.33, 743.08 864.0, 742.61 864.67, 742.15 865.33, 741.69 866.0, 741.24 866.67, 740.79 867.33, 740.34 868.0, 739.9 868.67, 739.46 869.33, 739.03 870.0, 738.6 870.67, 738.17 871.33, 737.75 872.0, 737.33 872.67, 736.92 873.33, 736.51 874.0, 736.11 874.67, 735.71 875.33, 735.32 876.0, 734.93 876.67, 734.54 877.33, 734.16 878.0, 733.78 878.67, 733.41 879.33, 733.04 880.0, 732.68 880.67, 732.32 881.33, 731.97 882.0, 731.62 882.67, 731.28 883.33, 730.94 884.0, 730.61 884.67, 730.28 885.33, 729.95 886.0, 729.63 886.67, 729.32 887.33, 729.01 888.0, 728.7 888.67, 728.4 889.33, 728.11 890.0, 727.82 890.67, 727.53 891.33, 727.25 892.0, 726.98 892.67, 726.71 893.33, 726.44 894.0, 726.18 894.67, 725.93 895.33, 725.68 896.0, 725.44 896.67, 725.2 897.33, 724.96 898.0, 724.74 898.67, 724.51 899.33, 724.29 900.0, 724.08 900.67, 723.87 901.33, 723.67 902.0, 723.47 902.67, 723.28 903.33, 723.1 904.0, 722.92 904.67, 722.74 905.33, 722.57 906.0, 722.4 906.67, 722.24 907.33, 722.09 908.0, 721.94 908.67, 721.8 909.33, 721.66 910.0, 721.53 910.67, 721.4 911.33, 721.28 912.0, 721.16 912.67, 721.05 913.33, 720.95 914.0, 720.85 914.67, 720.75 915.33, 720.67 916.0, 720.58 916.67, 720.51 917.33, 720.43 918.0, 720.37 918.67, 720.31 919.33, 720.25 920.0, 720.2 920.67, 720.16 921.33, 720.12 922.0, 720.08 922.67, 720.06 923.33, 720.03 924.0, 720.02 924.67, 720.01 925.33, 720.0 926.0, 720.0 926.67, 720.01 927.33, 720.02 928.0, 720.03 928.67, 720.06 929.33, 720.08 930.0, 720.12 930.67, 720.16 931.33, 720.2 932.0, 720.25 932.67, 720.31 933.33, 720.37 934.0, 720.43 934.67, 720.51 935.33, 720.58 936.0, 720.67 936.67, 720.76 937.33, 720.85 938.0, 720.95 938.67, 721.05 939.33, 721.17 940.0, 721.28 940.67, 721.4 941.33, 721.53 942.0, 721.66 942.67, 721.8 943.33, 721.94 944.0, 722.09 944.67, 722.25 945.33, 722.41 946.0, 722.57 946.67, 722.74 947.33, 722.92 948.0, 723.1 948.67, 723.28 949.33, 723.48 950.0, 723.67 950.67, 723.88 951.33, 724.08 952.0, 724.3 952.67, 724.51 953.33, 724.74 954.0, 724.97 954.67, 725.2 955.33, 725.44 956.0, 725.68 956.67, 725.93 957.33, 726.19 958.0, 726.45 958.67, 726.71 959.33, 726.98 960.0, 727.26 960.67, 727.54 961.33, 727.82 962.0, 728.11 962.67, 728.41 963.33, 728.71 964.0, 729.01 964.67, 729.32 965.33, 729.64 966.0, 729.96 966.67, 730.28 967.33, 730.61 968.0, 730.94 968.67, 731.28 969.33, 731.63 970.0, 731.97 970.67, 732.33 971.33, 732.69 972.0, 733.05 972.67, 733.42 973.33, 733.79 974.0, 734.16 974.67, 734.54 975.33, 734.93 976.0, 735.32 976.67, 735.71 977.33, 736.11 978.0, 736.52 978.67, 736.93 979.33, 737.34 980.0, 737.75 980.67, 738.18 981.33, 738.6 982.0, 739.03 982.67, 739.46 983.33, 739.9 984.0, 740.34 984.67, 740.79 985.33, 741.24 986.0, 741.69 986.67, 742.15 987.33, 742.62 988.0, 743.08 988.67, 743.55 989.33, 744.03 990.0, 744.51 990.67, 744.99 991.33, 745.47 992.0, 745.96 992.67, 746.46 993.33, 746.95 994.0, 747.45 994.67, 747.96 995.33, 748.47 996.0, 748.98 996.67, 749.49 997.33, 750.01 998.0, 750.54 998.67, 751.06 999.33, 751.59 1000.0, 752.12 1000.67, 752.66 1001.33, 753.2 1002.0, 753.74 1002.67, 754.28 1003.33, 754.83 1004.0, 755.39 1004.67, 755.94 1005.33, 756.5 1006.0, 757.06 1006.67, 757.62 1007.33, 758.19 1008.0, 758.76 1008.67, 759.33 1009.33, 759.91 1010.0, 760.49 1010.67, 761.07 1011.33, 761.65 1012.0, 762.24 1012.67, 762.83 1013.33, 763.42 1014.0, 764.01 1014.67, 764.61 1015.33, 765.21 1016.0, 765.81 1016.67, 766.41 1017.33, 767.02 1018.0, 767.63 1018.67, 768.24 1019.33, 768.85 1020.0, 769.47 1020.67, 770.08 1021.33, 770.7 1022.0, 771.33 1022.67, 771.95 1023.33, 772.57 1024.0, 773.2 1024.67, 773.83 1025.33, 774.46 1026.0, 775.09 1026.67, 775.73 1027.33, 776.36 1028.0, 777.0 1028.67, 777.64 1029.33, 778.28 1030.0, 778.92 1030.67, 779.57 1031.33, 780.21 1032.0, 780.86 1032.67, 781.51 1033.33, 782.16 1034.0, 782.81 1034.67, 783.46 1035.33, 784.11 1036.0, 784.77 1036.67, 785.42 1037.33, 786.08 1038.0, 786.73 1038.67, 787.39 1039.33, 788.05 1040.0, 788.71 1040.67, 789.37 1041.33, 790.03 1042.0, 790.69 1042.67, 791.36 1043.33, 792.02 1044.0, 792.68 1044.67, 793.35 1045.33, 794.01 1046.0, 794.68 1046.67, 795.34 1047.33, 796.01 1048.0, 796.67 1048.67, 797.34 1049.33, 798.01 1050.0, 798.67 1050.67, 799.34 1051.33, 800.01 1052.0, 800.67 1052.67, 801.34 1053.33, 802.01 1054.0, 802.67 1054.67, 803.34 1055.33, 804.0 1056.0, 804.67 1056.67, 805.34 1057.33, 806.0 1058.0, 806.66 1058.67, 807.33 1059.33, 807.99 1060.0, 808.66 1060.67, 809.32 1061.33, 809.98 1062.0, 810.64 1062.67, 811.3 1063.33, 811.96 1064.0, 812.62 1064.67, 813.28 1065.33, 813.93 1066.0, 814.59 1066.67, 815.25 1067.33, 815.9 1068.0, 816.55 1068.67, 817.2 1069.33, 817.85 1070.0, 818.5 1070.67, 819.15 1071.33, 819.8 1072.0, 820.44 1072.67, 821.09 1073.33, 821.73 1074.0, 822.37 1074.67, 823.01 1075.33, 823.65 1076.0, 824.28 1076.67, 824.92 1077.33, 825.55 1078.0, 826.18 1078.67, 826.81 1079.33, 827.44 1080.0, 828.06 1080.67, 828.69 1081.33, 829.31 1082.0, 829.93 1082.67, 830.54 1083.33, 831.16 1084.0, 831.77 1084.67, 832.38 1085.33, 832.99 1086.0, 833.6 1086.67, 834.2 1087.33, 834.8 1088.0, 835.4 1088.67, 836.0 1089.33, 836.59 1090.0, 837.18 1090.67, 837.77 1091.33, 838.36 1092.0, 838.94 1092.67, 839.52 1093.33, 840.1 1094.0, 840.68 1094.67, 841.25 1095.33, 841.82 1096.0, 842.39 1096.67, 842.95 1097.33, 843.51 1098.0, 844.07 1098.67, 844.62 1099.33, 845.18 1100.0, 845.73 1100.67, 846.27 1101.33, 846.81 1102.0, 847.35 1102.67, 847.89 1103.33, 848.42 1104.0, 848.95 1104.67, 849.47 1105.33, 850.0 1106.0, 850.52 1106.67, 851.03 1107.33, 851.54 1108.0, 852.05 1108.67, 852.55 1109.33, 853.06 1110.0, 853.55 1110.67, 854.05 1111.33, 854.54 1112.0, 855.02 1112.67, 855.5 1113.33, 855.98 1114.0, 856.46 1114.67, 856.93 1115.33, 857.39 1116.0, 857.86 1116.67, 858.31 1117.33, 858.77 1118.0, 859.22 1118.67, 859.67 1119.33, 860.11 1120.0, 860.55 1120.67, 860.98 1121.33, 861.41 1122.0, 861.83 1122.67, 862.25 1123.33, 862.67 1124.0, 863.08 1124.67, 863.49 1125.33, 863.89 1126.0, 864.29 1126.67, 864.69 1127.33, 865.08 1128.0, 865.46 1128.67, 865.84 1129.33, 866.22 1130.0, 866.59 1130.67, 866.96 1131.33, 867.32 1132.0, 867.68 1132.67, 868.03 1133.33, 868.38 1134.0, 868.73 1134.67, 869.06 1135.33, 869.4 1136.0, 869.73 1136.67, 870.05 1137.33, 870.37 1138.0, 870.69 1138.67, 871.0 1139.33, 871.3 1140.0, 871.6 1140.67, 871.9 1141.33, 872.19 1142.0, 872.47 1142.67, 872.75 1143.33, 873.03 1144.0, 873.3 1144.67, 873.56 1145.33, 873.82 1146.0, 874.07 1146.67, 874.32 1147.33, 874.57 1148.0, 874.81 1148.67, 875.04 1149.33, 875.27 1150.0, 875.49 1150.67, 875.71 1151.33, 875.92 1152.0, 876.13 1152.67, 876.33 1153.33, 876.53 1154.0, 876.72 1154.67, 876.91 1155.33, 877.09 1156.0, 877.27 1156.67, 877.44 1157.33, 877.6 1158.0, 877.76 1158.67, 877.92 1159.33, 878.06 1160.0, 878.21 1160.67, 878.35 1161.33, 878.48 1162.0, 878.61 1162.67, 878.73 1163.33, 878.84 1164.0, 878.95 1164.67, 879.06 1165.33, 879.16 1166.0, 879.25 1166.67, 879.34 1167.33, 879.43 1168.0, 879.5 1168.67, 879.58 1169.33, 879.64 1170.0, 879.7 1170.67, 879.76 1171.33, 879.81 1172.0, 879.85 1172.67, 879.89 1173.33, 879.93 1174.0, 879.96 1174.67, 879.98 1175.33, 879.99 1176.0, 880.01 1176.67, 880.01 1177.33, 880.01 1178.0, 880.01 1178.67, 880.0 1179.33, 879.98 1180.0, 879.96 1180.67, 879.93 1181.33, 879.9 1182.0, 879.86 1182.67, 879.81 1183.33, 879.77 1184.0, 879.71 1184.67, 879.65 1185.33, 879.58 1186.0, 879.51 1186.67, 879.43 1187.33, 879.35 1188.0, 879.26 1188.67, 879.17 1189.33, 879.07 1190.0, 878.97 1190.67, 878.86 1191.33, 878.74 1192.0, 878.62 1192.67, 878.49 1193.33, 878.36 1194.0, 878.22 1194.67, 878.08 1195.33, 877.93 1196.0, 877.78 1196.67, 877.62 1197.33, 877.46 1198.0, 877.29 1198.67, 877.11 1199.33, 876.93 1200.0, 876.75 1200.67, 876.56 1201.33, 876.36 1202.0, 876.16 1202.67, 875.95 1203.33, 875.74 1204.0, 875.52 1204.67, 875.3 1205.33, 875.07 1206.0, 874.84 1206.67, 874.6 1207.33, 874.36 1208.0, 874.11 1208.67, 873.86 1209.33, 873.6 1210.0, 873.34 1210.67, 873.07 1211.33, 872.79 1212.0, 872.52 1212.67, 872.23 1213.33, 871.94 1214.0, 871.65 1214.67, 871.35 1215.33, 871.05 1216.0, 870.74 1216.67, 870.43 1217.33, 870.11 1218.0, 869.79 1218.67, 869.46 1219.33, 869.13 1220.0, 868.79 1220.67, 868.45 1221.33, 868.1 1222.0, 867.75 1222.67, 867.39 1223.33, 867.03 1224.0, 866.67 1224.67, 866.3 1225.33, 865.92 1226.0, 865.54 1226.67, 865.16 1227.33, 864.77 1228.0, 864.38 1228.67, 863.98 1229.33, 863.58 1230.0, 863.18 1230.67, 862.77 1231.33, 862.36 1232.0, 861.94 1232.67, 861.51 1233.33, 861.09 1234.0, 860.66 1234.67, 860.22 1235.33, 859.78 1236.0, 859.34 1236.67, 858.89 1237.33, 858.44 1238.0, 857.99 1238.67, 857.53 1239.33, 857.07 1240.0, 856.6 1240.67, 856.13 1241.33, 855.65 1242.0, 855.18 1242.67, 854.69 1243.33, 854.21 1244.0, 853.72 1244.67, 853.23 1245.33, 852.73 1246.0, 852.23 1246.67, 851.73 1247.33, 851.22 1248.0, 850.71 1248.67, 850.2 1249.33, 849.68 1250.0, 849.16 1250.67, 848.64 1251.33, 848.11 1252.0, 847.58 1252.67, 847.04 1253.33, 846.51 1254.0, 845.97 1254.67, 845.43 1255.33, 844.88 1256.0, 844.33 1256.67, 843.78 1257.33, 843.23 1258.0, 842.67 1258.67, 842.11 1259.33, 841.55 1260.0, 840.98 1260.67, 840.41 1261.33, 839.84 1262.0, 839.27 1262.67, 838.69 1263.33, 838.12 1264.0, 837.54 1264.67, 836.95 1265.33, 836.37 1266.0, 835.78 1266.67, 835.19 1267.33, 834.6 1268.0, 834.0 1268.67, 833.41 1269.33, 832.81 1270.0, 832.21 1270.67, 831.6 1271.33, 831.0 1272.0, 830.39 1272.67, 829.78 1273.33, 829.17 1274.0, 828.56 1274.67, 827.95 1275.33, 827.33 1276.0, 826.72 1276.67, 826.1 1277.33, 825.48 1278.0, 824.86 1278.67, 824.23 1279.33, 823.61 1280.0, 822.98 1280.67, 822.36 1281.33, 821.73 1282.0, 821.1 1282.67, 820.47 1283.33, 819.84 1284.0, 819.21 1284.67, 818.57 1285.33, 817.94 1286.0, 817.3 1286.67, 816.67 1287.33, 816.03 1288.0, 815.39 1288.67, 814.76 1289.33, 814.12 1290.0, 813.48 1290.67, 812.84 1291.33, 812.2 1292.0, 811.56 1292.67, 810.92 1293.33, 810.27 1294.0, 809.63 1294.67, 808.99 1295.33, 808.35 1296.0, 807.71 1296.67, 807.07 1297.33, 806.42 1298.0, 805.78 1298.67, 805.14 1299.33, 804.5 1300.0, 803.86 1300.67, 803.22 1301.33, 802.58 1302.0, 801.94 1302.67, 801.3 1303.33, 800.66 1304.0, 800.02 1304.67, 799.38 1305.33, 798.75 1306.0, 798.11 1306.67, 797.47 1307.33, 796.84 1308.0, 796.21 1308.67, 795.57 1309.33, 794.94 1310.0, 794.31 1310.67, 793.68 1311.33, 793.05 1312.0, 792.43 1312.67, 791.8 1313.33, 791.18 1314.0, 790.55 1314.67, 789.93 1315.33, 789.31 1316.0, 788.7 1316.67, 788.08 1317.33, 787.46 1318.0, 786.85 1318.67, 786.24 1319.33, 785.63 1320.0, 785.02 1320.67, 784.42 1321.33, 783.81 1322.0, 783.21 1322.67, 782.62 1323.33, 782.02 1324.0, 781.42 1324.67, 780.83 1325.33, 780.24 1326.0, 779.66 1326.67, 779.07 1327.33, 778.49 1328.0, 777.91 1328.67, 777.33 1329.33, 776.76 1330.0, 776.19 1330.67, 775.62 1331.33, 775.06 1332.0, 774.5 1332.67, 773.94 1333.33, 773.38 1334.0, 772.83 1334.67, 772.28 1335.33, 771.74 1336.0, 771.19 1336.67, 770.65 1337.33, 770.12 1338.0, 769.59 1338.67, 769.06 1339.33, 768.54 1340.0, 768.01 1340.67, 767.5 1341.33, 766.99 1342.0, 766.48 1342.67, 765.97 1343.33, 765.47 1344.0, 764.98 1344.67, 764.48 1345.33, 764.0 1346.0, 763.51 1346.67, 763.03 1347.33, 762.56 1348.0, 762.09 1348.67, 761.62 1349.33, 761.16 1350.0, 760.71 1350.67, 760.25 1351.33, 759.81 1352.0, 759.37 1352.67, 758.93 1353.33, 758.5 1354.0, 758.07 1354.67, 757.65 1355.33, 757.23 1356.0, 756.82 1356.67, 756.42 1357.33, 756.02 1358.0, 755.62 1358.67, 755.24 1359.33, 754.85 1360.0, 754.48 1360.67, 754.1 1361.33, 753.74 1362.0, 753.38 1362.67, 753.02 1363.33, 752.68 1364.0, 752.34 1364.67, 752.0 1365.33, 751.67 1366.0, 751.35 1366.67, 751.03 1367.33, 750.72 1368.0, 750.42 1368.67, 750.12 1369.33, 749.83 1370.0, 749.55 1370.67, 749.27 1371.33, 749.0 1372.0, 748.74 1372.67, 748.48 1373.33, 748.23 1374.0, 747.99 1374.67, 747.75 1375.33, 747.53 1376.0, 747.31 1376.67, 747.09 1377.33, 746.89 1378.0, 746.69 1378.67, 746.5 1379.33, 746.32 1380.0, 746.14 1380.67, 745.98 1381.33, 745.82 1382.0, 745.67 1382.67, 745.53 1383.33, 745.39 1384.0, 745.26 1384.67, 745.15 1385.33, 745.04 1386.0, 744.93 1386.67, 744.84 1387.33, 744.76 1388.0, 744.68 1388.67, 744.61 1389.33, 744.56 1390.0, 744.51 1390.67, 744.47 1391.33, 744.43 1392.0, 744.41 1392.67, 744.4 1393.33, 744.4 1394.0, 744.4 1394.67, 744.42 1395.33, 744.44 1396.0, 744.47 1396.67, 744.52 1397.33, 744.57 1398.0, 744.63 1398.67, 744.7 1399.33, 744.79 1400.0, 744.88 1400.67, 744.98 1401.33, 745.09 1402.0, 745.22 1402.67, 745.35 1403.33, 745.49 1404.0, 745.65 1404.67, 745.81 1405.33, 745.99 1406.0, 746.17 1406.67, 746.37 1407.33, 746.58 1408.0, 746.8 1408.67, 747.03 1409.33, 747.27 1410.0, 747.52 1410.67, 747.78 1411.33, 748.06 1412.0, 748.34 1412.67, 748.64 1413.33, 748.95 1414.0, 749.27 1414.67, 749.6 1415.33, 749.95 1416.0, 750.3 1416.67, 750.67 1417.33, 751.05 1418.0, 751.44 1418.67, 751.85 1419.33, 752.27 1420.0, 752.7 1420.67, 753.14 1421.33, 753.59 1422.0, 754.06 1422.67, 754.54 1423.33, 755.03 1424.0, 755.54 1424.67, 756.06 1425.33, 756.59 1426.0, 757.14 1426.67, 757.7 1427.33, 758.27 1428.0, 758.86 1428.67, 759.46 1429.33, 760.07 1430.0, 760.7 1430.67, 761.34 1431.33, 761.99 1432.0, 762.66 1432.67, 763.34 1433.33, 764.04 1434.0, 764.75 1434.67, 765.48 1435.33, 766.22 1436.0, 766.97 1436.67, 767.74 1437.33, 768.53 1438.0, 769.33 1438.67, 770.14 1439.33, 770.97 1440.0, 771.82 1440.67, 772.68 1441.33, 773.55 1442.0, 774.44 1442.67, 775.35 1443.33, 776.27 1444.0, 777.21 1444.67, 778.16 1445.33, 779.13 1446.0, 780.12 1446.67, 781.12 1447.33, 782.13 1448.0, 783.17 1448.67, 784.22 1449.33, 785.29 1450.0, 786.37 1450.67, 787.47 1451.33, 788.59 1452.0, 789.72 1452.67, 790.87 1453.33, 792.04 1454.0, 793.22 1454.67, 794.43 1455.33, 795.65 1456.0, 796.88 1456.67, 798.14 1457.33, 799.41 1458.0, 800.7 1458.67, 802.01 1459.33, 803.34 1460.0, 804.68 1460.67, 806.04 1461.33, 807.42 1462.0, 808.82 1462.67, 810.24 1463.33, 811.68 1464.0, 813.13 1464.67, 814.6 1465.33, 816.1 1466.0, 817.61 1466.67, 819.14 1467.33, 820.69 1468.0, 822.26 1468.67, 823.84 1469.33, 825.45 1470.0, 827.08 1470.67, 828.72 1471.33, 830.39 1472.0, 832.08 1472.67, 833.78 1473.33, 835.51 1474.0, 837.25 1474.67, 839.02 1475.33, 840.81 1476.0, 842.61 1476.67, 844.44 1477.33, 846.29 1478.0, 848.16 1478.67, 850.05 1479.33, 851.96 1480.0, 853.89 1480.67, 855.84 1481.33, 857.81 1482.0, 859.8 1482.67, 861.82 1483.33, 863.86 1484.0, 865.91 1484.67, 867.99 1485.33, 870.09 1486.0, 872.22 1486.67, 874.36 1487.33, 876.53 1488.0, 878.71 1488.67, 880.92 1489.33, 883.16 1490.0, 885.41 1490.67, 887.69 1491.33, 889.98 1492.0, 892.31 1492.67, 894.65 1493.33, 897.01 1494.0, 899.4 1494.67, 901.81 1495.33, 904.24 1496.0, 906.7 1496.67, 909.18 1497.33, 911.68 1498.0, 914.2 1498.67, 916.75 1499.33, 919.32 1500.0, 921.91 1500.67, 924.53 1501.33, 927.17 1502.0, 929.83 1502.67, 932.51 1503.33, 935.22 1504.0, 937.95 1504.67, 940.71 1505.33, 943.49 1506.0, 946.29 1506.67, 949.11 1507.33, 951.96 1508.0, 954.83 1508.67, 957.73 1509.33, 960.64 1510.0, 963.58 1510.67, 966.55 1511.33, 969.54 1512.0, 972.55 1512.67, 975.58 1513.33, 978.64 1514.0, 981.72 1514.67, 984.82 1515.33, 987.95 1516.0, 991.1 1516.67, 994.28 1517.33, 997.47 1518.0, 1000.69 1518.67, 1003.94 1519.33, 1007.2 1520.0, 1010.49 1520.67, 1013.8 1521.33, 1017.14 1522.0, 1020.5 1522.67, 1023.88 1523.33, 1027.28 1524.0, 1030.71 1524.67, 1034.15 1525.33, 1037.62 1526.0, 1041.12 1526.67, 1044.63 1527.33, 1048.17 1528.0, 1051.72 1528.67, 1055.3 1529.33, 1058.91 1530.0, 1062.53 1530.67, 1066.17 1531.33, 1069.84 1532.0, 1073.53 1532.67, 1077.23 1533.33, 1080.96 1534.0, 1084.71 1534.67, 1088.48 1535.33, 1092.26 1536.0, 1096.07 1536.67, 1099.9 1537.33, 1103.75 1538.0, 1107.61 1538.67, 1111.5 1539.33, 1115.4 1540.0, 1119.33 1540.67, 1123.27 1541.33, 1127.22 1542.0, 1131.2 1542.67, 1135.19 1543.33, 1139.2 1544.0, 1143.23 1544.67, 1147.27 1545.33, 1151.33 1546.0, 1155.4 1546.67, 1159.49 1547.33, 1163.59 1548.0, 1167.71 1548.67, 1171.84 1549.33, 1175.99 1550.0, 1180.15 1550.67, 1184.32 1551.33, 1188.5 1552.0, 1192.7 1552.67, 1196.9 1553.33, 1201.12 1554.0, 1205.34 1554.67, 1209.58 1555.33, 1213.83 1556.0, 1218.08 1556.67, 1222.34 1557.33, 1226.61 1558.0, 1230.89 1558.67, 1235.17 1559.33, 1239.46 1560.0, 1243.75 1560.67, 1248.05 1561.33, 1252.35 1562.0, 1256.66 1562.67, 1260.96 1563.33, 1265.27 1564.0, 1269.58 1564.67, 1273.89 1565.33, 1278.19 1566.0, 1282.5 1566.67, 1286.8 1567.33, 1291.1 1568.0, 1295.39 1568.67, 1299.68 1569.33, 1303.96 1570.0, 1308.24 1570.67, 1312.5 1571.33, 1316.76 1572.0, 1321.01 1572.67, 1325.25 1573.33, 1329.47 1574.0, 1333.68 1574.67, 1337.88 1575.33, 1342.06 1576.0, 1346.22 1576.67, 1350.36 1577.33, 1354.49 1578.0, 1358.6 1578.67, 1362.68 1579.33, 1366.74 1580.0, 1370.78 1580.67, 1374.79 1581.33, 1378.77 1582.0, 1382.72 1582.67, 1386.65 1583.33, 1390.54 1584.0, 1394.4 1584.67, 1398.22 1585.33, 1402.01 1586.0, 1405.76 1586.67, 1409.47 1587.33, 1413.14 1588.0, 1416.77 1588.67, 1420.35 1589.33, 1423.89 1590.0, 1427.37 1590.67, 1430.81 1591.33, 1434.2 1592.0, 1437.53 1592.67, 1440.8 1593.33, 1444.02 1594.0, 1447.17 1594.67, 1450.27 1595.33, 1453.29 1596.0, 1456.26 1596.67, 1459.15 1597.33, 1461.97 1598.0, 1464.72 1598.67, 1467.39 1599.33, 1469.99 1600.0, 1472.5 " fill="none" stroke="white" stroke-width="1.5" stroke-linejoin="round" stroke-opacity="1"/>

 </svg>