<svg version="1.1" 
 baseProfile="full" 
 width="1600" 
 height="1600" 
 xmlns="http://www.w3.org/2000/svg">
<rect x="0.0" y="0.0" width="1600" height="1600" fill="black" stroke="black" stroke-width="0" opacity="1"/>
<line x1="0.0" y1="0.0" x2="0.0" y2="1600.0" stroke="white" stroke-width="1" opacity="0.4" stroke-linecap="butt"/>
<line x1="160.0" y1="0.0" x2="160.0" y2="1600.0" stroke="white" stroke-width="1" opacity="0.4" stroke-linecap="butt"/>
<line x1="320.0" y1="0.0" x2="320.0" y2="1600.0" stroke="white" stroke-width="1" opacity="0.4" stroke-linecap="butt"/>
<line x1="480.0" y1="0.0" x2="480.0" y2="1600.0" stroke="white" stroke-width="1" opacity="0.4" stroke-linecap="butt"/>
<line x1="640.0" y1="0.0" x2="640.0" y2="1600.0" stroke="white" stroke-width="1" opacity="0.4" stroke-linecap="butt"/>
<line x1="800.0" y1="0.0" x2="800.0" y2="1600.0" stroke="white" stroke-width="1" opacity="0.4" stroke-linecap="butt"/>
<line x1="960.0" y1="0.0" x2="960.0" y2="1600.0" stroke="white" stroke-width="1" opacity="0.4" stroke-linecap="butt"/>
<line x1="1120.0" y1="0.0" x2="1120.0" y2="1600.0" stroke="white" stroke-width="1" opacity="0.4" stroke-linecap="butt"/>
<line x1="1280.0" y1="0.0" x2="1280.0" y2="1600.0" stroke="white" stroke-width="1" opacity="0.4" stroke-linecap="butt"/>
<line x1="1440.0" y1="0.0" x2="1440.0" y2="1600.0" stroke="white" stroke-width="1" opacity="0.4" stroke-linecap="butt"/>
<line x1="0.0" y1="0.0" x2="1600.0" y2="0.0" stroke="white" stroke-width="1" opacity="0.4" stroke-linecap="butt"/>
<line x1="0.0" y1="160.0" x2="1600.0" y2="160.0" stroke="white" stroke-width="1" opacity="0.4" stroke-linecap="butt"/>
<line x1="0.0" y1="320.0" x2="1600.0" y2="320.0" stroke="white" stroke-width="1" opacity="0.4" stroke-linecap="butt"/>
<line x1="0.0" y1="480.0" x2="1600.0" y2="480.0" stroke="white" stroke-width="1" opacity="0.4" stroke-linecap="butt"/>
<line x1="0.0" y1="640.0" x2="1600.0" y2="640.0" stroke="white" stroke-width="1" opacity="0.4" stroke-linecap="butt"/>
<line x1="0.0" y1="800.0" x2="1600.0" y2="800.0" stroke="white" stroke-width="1" opacity="0.4" stroke-linecap="butt"/>
<line x1="0.0" y1="960.0" x2="1600.0" y2="960.0" stroke="white" stroke-width="1" opacity="0.4" stroke-linecap="butt"/>
<line x1="0.0" y1="1120.0" x2="1600.0" y2="1120.0" stroke="white" stroke-width="1" opacity="0.4" stroke-linecap="butt"/>
<line x1="0.0" y1="1280.0" x2="1600.0" y2="1280.0" stroke="white" stroke-width="1" opacity="0.4" stroke-linecap="butt"/>
<line x1="0.0" y1="1440.0" x2="1600.0" y2="1440.0" stroke="white" stroke-width="1" opacity="0.4" stroke-linecap="butt"/>
<line x1="0.0" y1="800.0" x2="1600.0" y2="800.0" stroke="yellow" stroke-width="2.5" opacity="1" stroke-linecap="butt"/>
<line x1="800.0" y1="0.0" x2="800.0" y2="1600.0" stroke="yellow" stroke-width="2.5" opacity="1" stroke-linecap="butt"/>
<polygon points="1564.0 816.0, 1604.0 800.0, 1564.0 784.0, 1572.0 800.0" fill="yellow"/><polygon points="816.0 36.0, 800.0 -4.0, 784.0 36.0, 800.0 28.0" fill="yellow"/><polyline points="0.0, 1533.23 0.67, 1515.96 1.33, 1499.03 2.0, 1482.44 2.67, 1466.19 3.33, 1450.26 4.0, 1434.65 4.67, 1419.35 5.33, 1404.37 6.0, 1389.69 6.67, 1375.31 7.33, 1361.22 8.0, 1347.42 8.67, 1333.91 9.33, 1320.68 10.0, 1307.72 10.67, 1295.03 11.33, 1282.61 12.0, 1270.45 12.67, 1258.55 13.33, 1246.89 14.0, 1235.49 14.67, 1224.33 15.33, 1213.4 16.0, 1202.71 16.67, 1192.26 17.33, 1182.03 18.0, 1172.02 18.67, 1162.23 19.33, 1152.66 20.0, 1143.3 20.67, 1134.14 21.33, 1125.19 22.0, 1116.44 22.67, 1107.88 23.33, 1099.52 24.0, 1091.35 24.67, 1083.37 25.33, 1075.56 26.0, 1067.94 26.67, 1060.49 27.33, 1053.22 28.0, 1046.12 28.67, 1039.18 29.33, 1032.41 30.0, 1025.79 30.67, 1019.34 31.33, 1013.04 32.0, 1006.89 32.67, 1000.89 33.33, 995.04 34.0, 989.34 34.67, 983.77 35.33, 978.34 36.0, 973.05 36.67, 967.89 37.33, 962.86 38.0, 957.96 38.67, 953.19 39.33, 948.54 40.0, 944.01 40.67, 939.6 41.33, 935.3 42.0, 931.12 42.67, 927.06 43.33, 923.1 44.0, 919.25 44.67, 915.51 45.33, 911.86 46.0, 908.33 46.67, 904.89 47.33, 901.54 48.0, 898.3 48.67, 895.15 49.33, 892.08 50.0, 889.11 50.67, 886.23 51.33, 883.44 52.0, 880.72 52.67, 878.1 53.33, 875.55 54.0, 873.08 54.67, 870.69 55.33, 868.38 56.0, 866.14 56.67, 863.97 57.33, 861.88 58.0, 859.86 58.67, 857.9 59.33, 856.01 60.0, 854.19 60.67, 852.43 61.33, 850.74 62.0, 849.11 62.67, 847.54 63.33, 846.02 64.0, 844.57 64.67, 843.17 65.33, 841.82 66.0, 840.53 66.67, 839.29 67.33, 838.11 68.0, 836.97 68.67, 835.89 69.33, 834.85 70.0, 833.86 70.67, 832.91 71.33, 832.01 72.0, 831.16 72.67, 830.34 73.33, 829.57 74.0, 828.84 74.67, 828.15 75.33, 827.5 76.0, 826.88 76.67, 826.31 77.33, 825.76 78.0, 825.26 78.67, 824.79 79.33, 824.35 80.0, 823.94 80.67, 823.57 81.33, 823.23 82.0, 822.91 82.67, 822.63 83.33, 822.38 84.0, 822.15 84.67, 821.95 85.33, 821.78 86.0, 821.63 86.67, 821.51 87.33, 821.41 88.0, 821.33 88.67, 821.28 89.33, 821.25 90.0, 821.24 90.67, 821.25 91.33, 821.29 92.0, 821.34 92.67, 821.41 93.33, 821.5 94.0, 821.61 94.67, 821.74 95.33, 821.88 96.0, 822.04 96.67, 822.22 97.33, 822.41 98.0, 822.61 98.67, 822.83 99.33, 823.06 100.0, 823.31 100.67, 823.57 101.33, 823.84 102.0, 824.13 102.67, 824.42 103.33, 824.73 104.0, 825.04 104.67, 825.37 105.33, 825.71 106.0, 826.05 106.67, 826.41 107.33, 826.77 108.0, 827.14 108.67, 827.52 109.33, 827.91 110.0, 828.3 110.67, 828.7 111.33, 829.11 112.0, 829.52 112.67, 829.94 113.33, 830.36 114.0, 830.79 114.67, 831.23 115.33, 831.67 116.0, 832.11 116.67, 832.55 117.33, 833.0 118.0, 833.46 118.67, 833.91 119.33, 834.37 120.0, 834.83 120.67, 835.3 121.33, 835.76 122.0, 836.23 122.67, 836.7 123.33, 837.17 124.0, 837.64 124.67, 838.11 125.33, 838.58 126.0, 839.06 126.67, 839.53 127.33, 840.0 128.0, 840.48 128.67, 840.95 129.33, 841.42 130.0, 841.89 130.67, 842.36 131.33, 842.83 132.0, 843.29 132.67, 843.76 133.33, 844.22 134.0, 844.68 134.67, 845.14 135.33, 845.6 136.0, 846.06 136.67, 846.51 137.33, 846.96 138.0, 847.41 138.67, 847.85 139.33, 848.29 140.0, 848.73 140.67, 849.16 141.33, 849.59 142.0, 850.02 142.67, 850.45 143.33, 850.87 144.0, 851.28 144.67, 851.69 145.33, 852.1 146.0, 852.5 146.67, 852.9 147.33, 853.3 148.0, 853.69 148.67, 854.07 149.33, 854.45 150.0, 854.83 150.67, 855.2 151.33, 855.57 152.0, 855.93 152.67, 856.28 153.33, 856.64 154.0, 856.98 154.67, 857.32 155.33, 857.66 156.0, 857.98 156.67, 858.31 157.33, 858.63 158.0, 858.94 158.67, 859.24 159.33, 859.54 160.0, 859.84 160.67, 860.13 161.33, 860.41 162.0, 860.69 162.67, 860.96 163.33, 861.22 164.0, 861.48 164.67, 861.73 165.33, 861.98 166.0, 862.22 166.67, 862.45 167.33, 862.68 168.0, 862.9 168.67, 863.11 169.33, 863.32 170.0, 863.52 170.67, 863.72 171.33, 863.91 172.0, 864.09 172.67, 864.26 173.33, 864.43 174.0, 864.6 174.67, 864.75 175.33, 864.9 176.0, 865.04 176.67, 865.18 177.33, 865.31 178.0, 865.43 178.67, 865.54 179.33, 865.65 180.0, 865.76 180.67, 865.85 181.33, 865.94 182.0, 866.02 182.67, 866.1 183.33, 866.16 184.0, 866.23 184.67, 866.28 185.33, 866.33 186.0, 866.37 186.67, 866.4 187.33, 866.43 188.0, 866.45 188.67, 866.47 189.33, 866.48 190.0, 866.48 190.67, 866.47 191.33, 866.46 192.0, 866.44 192.67, 866.41 193.33, 866.38 194.0, 866.34 194.67, 866.29 195.33, 866.24 196.0, 866.18 196.67, 866.12 197.33, 866.04 198.0, 865.96 198.67, 865.88 199.33, 865.79 200.0, 865.69 200.67, 865.58 201.33, 865.47 202.0, 865.35 202.67, 865.23 203.33, 865.1 204.0, 864.96 204.67, 864.81 205.33, 864.66 206.0, 864.51 206.67, 864.34 207.33, 864.17 208.0, 864.0 208.67, 863.82 209.33, 863.63 210.0, 863.43 210.67, 863.23 211.33, 863.03 212.0, 862.81 212.67, 862.59 213.33, 862.37 214.0, 862.14 214.67, 861.9 215.33, 861.66 216.0, 861.41 216.67, 861.16 217.33, 860.89 218.0, 860.63 218.67, 860.36 219.33, 860.08 220.0, 859.79 220.67, 859.5 221.33, 859.21 222.0, 858.91 222.67, 858.6 223.33, 858.29 224.0, 857.97 224.67, 857.65 225.33, 857.32 226.0, 856.99 226.67, 856.65 227.33, 856.3 228.0, 855.95 228.67, 855.6 229.33, 855.24 230.0, 854.87 230.67, 854.5 231.33, 854.13 232.0, 853.74 232.67, 853.36 233.33, 852.97 234.0, 852.57 234.67, 852.17 235.33, 851.77 236.0, 851.36 236.67, 850.94 237.33, 850.52 238.0, 850.1 238.67, 849.67 239.33, 849.23 240.0, 848.79 240.67, 848.35 241.33, 847.9 242.0, 847.45 242.67, 847.0 243.33, 846.54 244.0, 846.07 244.67, 845.6 245.33, 845.13 246.0, 844.65 246.67, 844.17 247.33, 843.68 248.0, 843.19 248.67, 842.7 249.33, 842.2 250.0, 841.7 250.67, 841.2 251.33, 840.69 252.0, 840.17 252.67, 839.66 253.33, 839.14 254.0, 838.61 254.67, 838.09 255.33, 837.56 256.0, 837.02 256.67, 836.48 257.33, 835.94 258.0, 835.4 258.67, 834.85 259.33, 834.3 260.0, 833.75 260.67, 833.19 261.33, 832.63 262.0, 832.07 262.67, 831.5 263.33, 830.93 264.0, 830.36 264.67, 829.79 265.33, 829.21 266.0, 828.63 266.67, 828.04 267.33, 827.46 268.0, 826.87 268.67, 826.28 269.33, 825.69 270.0, 825.09 270.67, 824.49 271.33, 823.89 272.0, 823.29 272.67, 822.69 273.33, 822.08 274.0, 821.47 274.67, 820.86 275.33, 820.25 276.0, 819.63 276.67, 819.02 277.33, 818.4 278.0, 817.78 278.67, 817.15 279.33, 816.53 280.0, 815.9 280.67, 815.28 281.33, 814.65 282.0, 814.02 282.67, 813.39 283.33, 812.75 284.0, 812.12 284.67, 811.48 285.33, 810.85 286.0, 810.21 286.67, 809.57 287.33, 808.93 288.0, 808.29 288.67, 807.64 289.33, 807.0 290.0, 806.36 290.67, 805.71 291.33, 805.06 292.0, 804.42 292.67, 803.77 293.33, 803.12 294.0, 802.47 294.67, 801.82 295.33, 801.17 296.0, 800.52 296.67, 799.87 297.33, 799.22 298.0, 798.57 298.67, 797.92 299.33, 797.27 300.0, 796.62 300.67, 795.97 301.33, 795.31 302.0, 794.66 302.67, 794.01 303.33, 793.36 304.0, 792.71 304.67, 792.06 305.33, 791.4 306.0, 790.75 306.67, 790.1 307.33, 789.45 308.0, 788.81 308.67, 788.16 309.33, 787.51 310.0, 786.86 310.67, 786.21 311.33, 785.57 312.0, 784.92 312.67, 784.28 313.33, 783.63 314.0, 782.99 314.67, 782.35 315.33, 781.71 316.0, 781.07 316.67, 780.43 317.33, 779.79 318.0, 779.16 318.67, 778.52 319.33, 777.89 320.0, 777.25 320.67, 776.62 321.33, 775.99 322.0, 775.37 322.67, 774.74 323.33, 774.11 324.0, 773.49 324.67, 772.87 325.33, 772.25 326.0, 771.63 326.67, 771.01 327.33, 770.4 328.0, 769.79 328.67, 769.18 329.33, 768.57 330.0, 767.96 330.67, 767.36 331.33, 766.75 332.0, 766.15 332.67, 765.55 333.33, 764.96 334.0, 764.37 334.67, 763.77 335.33, 763.18 336.0, 762.6 336.67, 762.01 337.33, 761.43 338.0, 760.85 338.67, 760.28 339.33, 759.7 340.0, 759.13 340.67, 758.57 341.33, 758.0 342.0, 757.44 342.67, 756.88 343.33, 756.32 344.0, 755.77 344.67, 755.22 345.33, 754.67 346.0, 754.12 346.67, 753.58 347.33, 753.04 348.0, 752.51 348.67, 751.98 349.33, 751.45 350.0, 750.92 350.67, 750.4 351.33, 749.88 352.0, 749.36 352.67, 748.85 353.33, 748.34 354.0, 747.84 354.67, 747.34 355.33, 746.84 356.0, 746.34 356.67, 745.85 357.33, 745.37 358.0, 744.88 358.67, 744.4 359.33, 743.93 360.0, 743.45 360.67, 742.99 361.33, 742.52 362.0, 742.06 362.67, 741.61 363.33, 741.15 364.0, 740.71 364.67, 740.26 365.33, 739.82 366.0, 739.39 366.67, 738.95 367.33, 738.53 368.0, 738.1 368.67, 737.68 369.33, 737.27 370.0, 736.86 370.67, 736.45 371.33, 736.05 372.0, 735.65 372.67, 735.26 373.33, 734.87 374.0, 734.49 374.67, 734.11 375.33, 733.73 376.0, 733.36 376.67, 733.0 377.33, 732.63 378.0, 732.28 378.67, 731.93 379.33, 731.58 380.0, 731.24 380.67, 730.9 381.33, 730.57 382.0, 730.24 382.67, 729.91 383.33, 729.6 384.0, 729.28 384.67, 728.97 385.33, 728.67 386.0, 728.37 386.67, 728.08 387.33, 727.79 388.0, 727.5 388.67, 727.22 389.33, 726.95 390.0, 726.68 390.67, 726.42 391.33, 726.16 392.0, 725.9 392.67, 725.66 393.33, 725.41 394.0, 725.17 394.67, 724.94 395.33, 724.71 396.0, 724.49 396.67, 724.27 397.33, 724.06 398.0, 723.85 398.67, 723.65 399.33, 723.45 400.0, 723.26 400.67, 723.08 401.33, 722.9 402.0, 722.72 402.67, 722.55 403.33, 722.39 404.0, 722.23 404.67, 722.07 405.33, 721.93 406.0, 721.78 406.67, 721.65 407.33, 721.51 408.0, 721.39 408.67, 721.27 409.33, 721.15 410.0, 721.04 410.67, 720.94 411.33, 720.84 412.0, 720.74 412.67, 720.65 413.33, 720.57 414.0, 720.49 414.67, 720.42 415.33, 720.36 416.0, 720.3 416.67, 720.24 417.33, 720.19 418.0, 720.15 418.67, 720.11 419.33, 720.07 420.0, 720.05 420.67, 720.02 421.33, 720.01 422.0, 720.0 422.67, 719.99 423.33, 719.99 424.0, 720.0 424.67, 720.01 425.33, 720.03 426.0, 720.05 426.67, 720.08 427.33, 720.11 428.0, 720.15 428.67, 720.19 429.33, 720.24 430.0, 720.3 430.67, 720.36 431.33, 720.43 432.0, 720.5 432.67, 720.58 433.33, 720.66 434.0, 720.75 434.67, 720.84 435.33, 720.94 436.0, 721.05 436.67, 721.16 437.33, 721.27 438.0, 721.4 438.67, 721.52 439.33, 721.66 440.0, 721.79 440.67, 721.94 441.33, 722.09 442.0, 722.24 442.67, 722.4 443.33, 722.56 444.0, 722.73 444.67, 722.91 445.33, 723.09 446.0, 723.28 446.67, 723.47 447.33, 723.67 448.0, 723.87 448.67, 724.08 449.33, 724.29 450.0, 724.51 450.67, 724.73 451.33, 724.96 452.0, 725.19 452.67, 725.43 453.33, 725.68 454.0, 725.93 454.67, 726.18 455.33, 726.44 456.0, 726.7 456.67, 726.97 457.33, 727.25 458.0, 727.53 458.67, 727.81 459.33, 728.1 460.0, 728.4 460.67, 728.7 461.33, 729.0 462.0, 729.31 462.67, 729.63 463.33, 729.95 464.0, 730.27 464.67, 730.6 465.33, 730.94 466.0, 731.27 466.67, 731.62 467.33, 731.97 468.0, 732.32 468.67, 732.68 469.33, 733.04 470.0, 733.41 470.67, 733.78 471.33, 734.16 472.0, 734.54 472.67, 734.92 473.33, 735.31 474.0, 735.71 474.67, 736.11 475.33, 736.51 476.0, 736.92 476.67, 737.33 477.33, 737.75 478.0, 738.17 478.67, 738.59 479.33, 739.02 480.0, 739.46 480.67, 739.89 481.33, 740.34 482.0, 740.78 482.67, 741.23 483.33, 741.69 484.0, 742.14 484.67, 742.61 485.33, 743.07 486.0, 743.54 486.67, 744.02 487.33, 744.5 488.0, 744.98 488.67, 745.46 489.33, 745.95 490.0, 746.45 490.67, 746.94 491.33, 747.45 492.0, 747.95 492.67, 748.46 493.33, 748.97 494.0, 749.48 494.67, 750.0 495.33, 750.53 496.0, 751.05 496.67, 751.58 497.33, 752.11 498.0, 752.65 498.67, 753.19 499.33, 753.73 500.0, 754.27 500.67, 754.82 501.33, 755.38 502.0, 755.93 502.67, 756.49 503.33, 757.05 504.0, 757.61 504.67, 758.18 505.33, 758.75 506.0, 759.32 506.67, 759.9 507.33, 760.48 508.0, 761.06 508.67, 761.64 509.33, 762.23 510.0, 762.82 510.67, 763.41 511.33, 764.0 512.0, 764.6 512.67, 765.2 513.33, 765.8 514.0, 766.4 514.67, 767.01 515.33, 767.62 516.0, 768.23 516.67, 768.84 517.33, 769.46 518.0, 770.07 518.67, 770.69 519.33, 771.31 520.0, 771.94 520.67, 772.56 521.33, 773.19 522.0, 773.82 522.67, 774.45 523.33, 775.08 524.0, 775.72 524.67, 776.35 525.33, 776.99 526.0, 777.63 526.67, 778.27 527.33, 778.91 528.0, 779.56 528.67, 780.2 529.33, 780.85 530.0, 781.5 530.67, 782.15 531.33, 782.8 532.0, 783.45 532.67, 784.1 533.33, 784.75 534.0, 785.41 534.67, 786.07 535.33, 786.72 536.0, 787.38 536.67, 788.04 537.33, 788.7 538.0, 789.36 538.67, 790.02 539.33, 790.68 540.0, 791.34 540.67, 792.01 541.33, 792.67 542.0, 793.34 542.67, 794.0 543.33, 794.66 544.0, 795.33 544.67, 796.0 545.33, 796.66 546.0, 797.33 546.67, 797.99 547.33, 798.66 548.0, 799.33 548.67, 799.99 549.33, 800.66 550.0, 801.33 550.67, 801.99 551.33, 802.66 552.0, 803.33 552.67, 803.99 553.33, 804.66 554.0, 805.32 554.67, 805.99 555.33, 806.65 556.0, 807.32 556.67, 807.98 557.33, 808.64 558.0, 809.31 558.67, 809.97 559.33, 810.63 560.0, 811.29 560.67, 811.95 561.33, 812.61 562.0, 813.27 562.67, 813.92 563.33, 814.58 564.0, 815.23 564.67, 815.89 565.33, 816.54 566.0, 817.19 566.67, 817.84 567.33, 818.49 568.0, 819.14 568.67, 819.79 569.33, 820.43 570.0, 821.08 570.67, 821.72 571.33, 822.36 572.0, 823.0 572.67, 823.64 573.33, 824.27 574.0, 824.91 574.67, 825.54 575.33, 826.17 576.0, 826.8 576.67, 827.43 577.33, 828.05 578.0, 828.67 578.67, 829.3 579.33, 829.92 580.0, 830.53 580.67, 831.15 581.33, 831.76 582.0, 832.37 582.67, 832.98 583.33, 833.59 584.0, 834.19 584.67, 834.79 585.33, 835.39 586.0, 835.99 586.67, 836.58 587.33, 837.17 588.0, 837.76 588.67, 838.35 589.33, 838.93 590.0, 839.51 590.67, 840.09 591.33, 840.67 592.0, 841.24 592.67, 841.81 593.33, 842.38 594.0, 842.94 594.67, 843.5 595.33, 844.06 596.0, 844.61 596.67, 845.17 597.33, 845.72 598.0, 846.26 598.67, 846.8 599.33, 847.34 600.0, 847.88 600.67, 848.41 601.33, 848.94 602.0, 849.46 602.67, 849.99 603.33, 850.51 604.0, 851.02 604.67, 851.53 605.33, 852.04 606.0, 852.55 606.67, 853.05 607.33, 853.54 608.0, 854.04 608.67, 854.53 609.33, 855.01 610.0, 855.49 610.67, 855.97 611.33, 856.45 612.0, 856.92 612.67, 857.38 613.33, 857.85 614.0, 858.31 614.67, 858.76 615.33, 859.21 616.0, 859.66 616.67, 860.1 617.33, 860.54 618.0, 860.97 618.67, 861.4 619.33, 861.82 620.0, 862.25 620.67, 862.66 621.33, 863.07 622.0, 863.48 622.67, 863.89 623.33, 864.29 624.0, 864.68 624.67, 865.07 625.33, 865.46 626.0, 865.84 626.67, 866.21 627.33, 866.58 628.0, 866.95 628.67, 867.31 629.33, 867.67 630.0, 868.03 630.67, 868.37 631.33, 868.72 632.0, 869.06 632.67, 869.39 633.33, 869.72 634.0, 870.04 634.67, 870.36 635.33, 870.68 636.0, 870.99 636.67, 871.29 637.33, 871.59 638.0, 871.89 638.67, 872.18 639.33, 872.46 640.0, 872.74 640.67, 873.02 641.33, 873.29 642.0, 873.55 642.67, 873.81 643.33, 874.07 644.0, 874.32 644.67, 874.56 645.33, 874.8 646.0, 875.03 646.67, 875.26 647.33, 875.49 648.0, 875.7 648.67, 875.92 649.33, 876.12 650.0, 876.33 650.67, 876.52 651.33, 876.72 652.0, 876.9 652.67, 877.08 653.33, 877.26 654.0, 877.43 654.67, 877.59 655.33, 877.75 656.0, 877.91 656.67, 878.06 657.33, 878.2 658.0, 878.34 658.67, 878.47 659.33, 878.6 660.0, 878.72 660.67, 878.83 661.33, 878.95 662.0, 879.05 662.67, 879.15 663.33, 879.24 664.0, 879.33 664.67, 879.42 665.33, 879.49 666.0, 879.57 666.67, 879.63 667.33, 879.69 668.0, 879.75 668.67, 879.8 669.33, 879.84 670.0, 879.88 670.67, 879.92 671.33, 879.94 672.0, 879.97 672.67, 879.98 673.33, 879.99 674.0, 880.0 674.67, 880.0 675.33, 879.99 676.0, 879.98 676.67, 879.97 677.33, 879.94 678.0, 879.92 678.67, 879.88 679.33, 879.84 680.0, 879.8 680.67, 879.75 681.33, 879.69 682.0, 879.63 682.67, 879.57 683.33, 879.49 684.0, 879.42 684.67, 879.33 685.33, 879.25 686.0, 879.15 686.67, 879.05 687.33, 878.95 688.0, 878.84 688.67, 878.72 689.33, 878.6 690.0, 878.47 690.67, 878.34 691.33, 878.2 692.0, 878.06 692.67, 877.91 693.33, 877.76 694.0, 877.6 694.67, 877.43 695.33, 877.26 696.0, 877.08 696.67, 876.9 697.33, 876.72 698.0, 876.53 698.67, 876.33 699.33, 876.13 700.0, 875.92 700.67, 875.71 701.33, 875.49 702.0, 875.26 702.67, 875.04 703.33, 874.8 704.0, 874.56 704.67, 874.32 705.33, 874.07 706.0, 873.82 706.67, 873.56 707.33, 873.29 708.0, 873.02 708.67, 872.75 709.33, 872.47 710.0, 872.18 710.67, 871.89 711.33, 871.6 712.0, 871.3 712.67, 870.99 713.33, 870.68 714.0, 870.37 714.67, 870.05 715.33, 869.72 716.0, 869.39 716.67, 869.06 717.33, 868.72 718.0, 868.38 718.67, 868.03 719.33, 867.68 720.0, 867.32 720.67, 866.96 721.33, 866.59 722.0, 866.22 722.67, 865.84 723.33, 865.46 724.0, 865.07 724.67, 864.68 725.33, 864.29 726.0, 863.89 726.67, 863.49 727.33, 863.08 728.0, 862.67 728.67, 862.25 729.33, 861.83 730.0, 861.4 730.67, 860.97 731.33, 860.54 732.0, 860.1 732.67, 859.66 733.33, 859.21 734.0, 858.76 734.67, 858.31 735.33, 857.85 736.0, 857.39 736.67, 856.92 737.33, 856.45 738.0, 855.98 738.67, 855.5 739.33, 855.02 740.0, 854.53 740.67, 854.04 741.33, 853.55 742.0, 853.05 742.67, 852.55 743.33, 852.05 744.0, 851.54 744.67, 851.03 745.33, 850.51 746.0, 849.99 746.67, 849.47 747.33, 848.94 748.0, 848.41 748.67, 847.88 749.33, 847.35 750.0, 846.81 750.67, 846.27 751.33, 845.72 752.0, 845.17 752.67, 844.62 753.33, 844.06 754.0, 843.51 754.67, 842.95 755.33, 842.38 756.0, 841.81 756.67, 841.25 757.33, 840.67 758.0, 840.1 758.67, 839.52 759.33, 838.94 760.0, 838.35 760.67, 837.77 761.33, 837.18 762.0, 836.59 762.67, 835.99 763.33, 835.4 764.0, 834.8 764.67, 834.2 765.33, 833.59 766.0, 832.99 766.67, 832.38 767.33, 831.77 768.0, 831.15 768.67, 830.54 769.33, 829.92 770.0, 829.3 770.67, 828.68 771.33, 828.06 772.0, 827.43 772.67, 826.8 773.33, 826.18 774.0, 825.54 774.67, 824.91 775.33, 824.28 776.0, 823.64 776.67, 823.0 777.33, 822.36 778.0, 821.72 778.67, 821.08 779.33, 820.44 780.0, 819.79 780.67, 819.15 781.33, 818.5 782.0, 817.85 782.67, 817.2 783.33, 816.55 784.0, 815.89 784.67, 815.24 785.33, 814.58 786.0, 813.93 786.67, 813.27 787.33, 812.61 788.0, 811.96 788.67, 811.3 789.33, 810.64 790.0, 809.97 790.67, 809.31 791.33, 808.65 792.0, 807.99 792.67, 807.32 793.33, 806.66 794.0, 805.99 794.67, 805.33 795.33, 804.66 796.0, 804.0 796.67, 803.33 797.33, 802.67 798.0, 802.0 798.67, 801.33 799.33, 800.67 800.0, 800.0 800.67, 799.33 801.33, 798.67 802.0, 798.0 802.67, 797.33 803.33, 796.67 804.0, 796.0 804.67, 795.34 805.33, 794.67 806.0, 794.01 806.67, 793.34 807.33, 792.68 808.0, 792.01 808.67, 791.35 809.33, 790.69 810.0, 790.03 810.67, 789.36 811.33, 788.7 812.0, 788.04 812.67, 787.39 813.33, 786.73 814.0, 786.07 814.67, 785.42 815.33, 784.76 816.0, 784.11 816.67, 783.45 817.33, 782.8 818.0, 782.15 818.67, 781.5 819.33, 780.85 820.0, 780.21 820.67, 779.56 821.33, 778.92 822.0, 778.28 822.67, 777.64 823.33, 777.0 824.0, 776.36 824.67, 775.72 825.33, 775.09 826.0, 774.46 826.67, 773.82 827.33, 773.2 828.0, 772.57 828.67, 771.94 829.33, 771.32 830.0, 770.7 830.67, 770.08 831.33, 769.46 832.0, 768.85 832.67, 768.23 833.33, 767.62 834.0, 767.01 834.67, 766.41 835.33, 765.8 836.0, 765.2 836.67, 764.6 837.33, 764.01 838.0, 763.41 838.67, 762.82 839.33, 762.23 840.0, 761.65 840.67, 761.06 841.33, 760.48 842.0, 759.9 842.67, 759.33 843.33, 758.75 844.0, 758.19 844.67, 757.62 845.33, 757.05 846.0, 756.49 846.67, 755.94 847.33, 755.38 848.0, 754.83 848.67, 754.28 849.33, 753.73 850.0, 753.19 850.67, 752.65 851.33, 752.12 852.0, 751.59 852.67, 751.06 853.33, 750.53 854.0, 750.01 854.67, 749.49 855.33, 748.97 856.0, 748.46 856.67, 747.95 857.33, 747.45 858.0, 746.95 858.67, 746.45 859.33, 745.96 860.0, 745.47 860.67, 744.98 861.33, 744.5 862.0, 744.02 862.67, 743.55 863.33, 743.08 864.0, 742.61 864.67, 742.15 865.33, 741.69 866.0, 741.24 866.67, 740.79 867.33, 740.34 868.0, 739.9 868.67, 739.46 869.33, 739.03 870.0, 738.6 870.67, 738.17 871.33, 737.75 872.0, 737.33 872.67, 736.92 873.33, 736.51 874.0, 736.11 874.67, 735.71 875.33, 735.32 876.0, 734.93 876.67, 734.54 877.33, 734.16 878.0, 733.78 878.67, 733.41 879.33, 733.04 880.0, 732.68 880.67, 732.32 881.33, 731.97 882.0, 731.62 882.67, 731.28 883.33, 730.94 884.0, 730.61 884.67, 730.28 885.33, 729.95 886.0, 729.63 886.67, 729.32 887.33, 729.01 888.0, 728.7 888.67, 728.4 889.33, 728.11 890.0, 727.82 890.67, 727.53 891.33, 727.25 892.0, 726.98 892.67, 726.71 893.33, 726.44 894.0, 726.18 894.67, 725.93 895.33, 725.68 896.0, 725.44 896.67, 725.2 897.33, 724.96 898.0, 724.74 898.67, 724.51 899.33, 724.29 900.0, 724.08 900.67, 723.87 901.33, 723.67 902.0, 723.47 902.67, 723.28 903.33, 723.1 904.0, 722.92 904.67, 722.74 905.33, 722.57 906.0, 722.4 906.67, 722.24 907.33, 722.09 908.0, 721.94 908.67, 721.8 909.33, 721.66 910.0, 721.53 910.67, 721.4 911.33, 721.28 912.0, 721.16 912.67, 721.05 913.33, 720.95 914.0, 720.85 914.67, 720.75 915.33, 720.67 916.0, 720.58 916.67, 720.51 917.33, 720.43 918.0, 720.37 918.67, 720.31 919.33, 720.25 920.0, 720.2 920.67, 720.16 921.33, 720.12 922.0, 720.08 922.67, 720.06 923.33, 720.03 924.0, 720.02 924.67, 720.01 925.33, 720.0 926.0, 720.0 926.67, 720.01 927.33, 720.02 928.0, 720.03 928.67, 720.06 929.33, 720.08 930.0, 720.12 930.67, 720.16 931.33, 720.2 932.0, 720.25 932.67, 720.31 933.33, 720.37 934.0, 720.43 934.67, 720.51 935.33, 720.58 936.0, 720.67 936.67, 720.76 937.33, 720.85 938.0, 720.95 938.67, 721.05 939.33, 721.17 940.0, 721.28 940.67, 721.4 941.33, 721.53 942.0, 721.66 942.67, 721.8 943.33, 721.94 944.0, 722.09 944.67, 722.25 945.33, 722.41 946.0, 722.57 946.67, 722.74 947.33, 722.92 948.0, 723.1 948.67, 723.28 949.33, 723.48 950.0, 723.67 950.67, 723.88 951.33, 724.08 952.0, 724.3 952.67, 724.51 953.33, 724.74 954.0, 724.97 954.67, 725.2 955.33, 725.44 956.0, 725.68 956.67, 725.93 957.33, 726.19 958.0, 726.45 958.67, 726.71 959.33, 726.98 960.0, 727.26 960.67, 727.54 961.33, 727.82 962.0, 728.11 962.67, 728.41 963.33, 728.71 964.0, 729.01 964.67, 729.32 965.33, 729.64 966.0, 729.96 966.67, 730.28 967.33, 730.61 968.0, 730.94 968.67, 731.28 969.33, 731.63 970.0, 731.97 970.67, 732.33 971.33, 732.69 972.0, 733.05 972.67, 733.42 973.33, 733.79 974.0, 734.16 974.67, 734.54 975.33, 734.93 976.0, 735.32 976.67, 735.71 977.33, 736.11 978.0, 736.52 978.67, 736.93 979.33, 737.34 980.0, 737.75 980.67, 738.18 981.33, 738.6 982.0, 739.03 982.67, 739.46 983.33, 739.9 984.0, 740.34 984.67, 740.79 985.33, 741.24 986.0, 741.69 986.67, 742.15 987.33, 742.62 988.0, 743.08 988.67, 743.55 989.33, 744.03 990.0, 744.51 990.67, 744.99 991.33, 745.47 992.0, 745.96 992.67, 746.46 993.33, 746.95 994.0, 747.45 994.67, 747.96 995.33, 748.47 996.0, 748.98 996.67, 749.49 997.33, 750.01 998.0, 750.54 998.67, 751.06 999.33, 751.59 1000.0, 752.12 1000.67, 752.66 1001.33, 753.2 1002.0, 753.74 1002.67, 754.28 1003.33, 754.83 1004.0, 755.39 1004.67, 755.94 1005.33, 756.5 1006.0, 757.06 1006.67, 757.62 1007.33, 758.19 1008.0, 758.76 1008.67, 759.33 1009.33, 759.91 1010.0, 760.49 1010.67, 761.07 1011.33, 761.65 1012.0, 762.24 1012.67, 762.83 1013.33, 763.42 1014.0, 764.01 1014.67, 764.61 1015.33, 765.21 1016.0, 765.81 1016.67, 766.41 1017.33, 767.02 1018.0, 767.63 1018.67, 768.24 1019.33, 768.85 1020.0, 769.47 1020.67, 770.08 1021.33, 770.7 1022.0, 771.33 1022.67, 771.95 1023.33, 772.57 1024.0, 773.2 1024.67, 773.83 1025.33, 774.46 1026.0, 775.09 1026.67, 775.73 1027.33, 776.36 1028.0, 777.0 1028.67, 777.64 1029.33, 778.28 1030.0, 778.92 1030.67, 779.57 1031.33, 780.21 1032.0, 780.86 1032.67, 781.51 1033.33, 782.16 1034.0, 782.81 1034.67, 783.46 1035.33, 784.11 1036.0, 784.77 1036.67, 785.42 1037.33, 786.08 1038.0, 786.73 1038.67, 787.39 1039.33, 788.05 1040.0, 788.71 1040.67, 789.37 1041.33, 790.03 1042.0, 790.69 1042.67, 791.36 1043.33, 792.02 1044.0, 792.68 1044.67, 793.35 1045.33, 794.01 1046.0, 794.68 1046.67, 795.34 1047.33, 796.01 1048.0, 796.67 1048.67, 797.34 1049.33, 798.01 1050.0, 798.67 1050.67, 799.34 1051.33, 800.01 1052.0, 800.67 1052.67, 801.34 1053.33, 802.01 1054.0, 802.67 1054.67, 803.34 1055.33, 804.0 1056.0, 804.67 1056.67, 805.34 1057.33, 806.0 1058.0, 806.66 1058.67, 807.33 1059.33, 807.99 1060.0, 808.66 1060.67, 809.32 1061.33, 809.98 1062.0, 810.64 1062.67, 811.3 1063.33, 811.96 1064.0, 812.62 1064.67, 813.28 1065.33, 813.93 1066.0, 814.59 1066.67, 815.25 1067.33, 815.9 1068.0, 816.55 1068.67, 817.2 1069.33, 817.85 1070.0, 818.5 1070.67, 819.15 1071.33, 819.8 1072.0, 820.44 1072.67, 821.09 1073.33, 821.73 1074.0, 822.37 1074.67, 823.01 1075.33, 823.65 1076.0, 824.28 1076.67, 824.92 1077.33, 825.55 1078.0, 826.18 1078.67, 826.81 1079.33, 827.44 1080.0, 828.06 1080.67, 828.69 1081.33, 829.31 1082.0, 829.93 1082.67, 830.54 1083.33, 831.16 1084.0, 831.77 1084.67, 832.38 1085.33, 832.99 1086.0, 833.6 1086.67, 834.2 1087.33, 834.8 1088.0, 835.4 1088.67, 836.0 1089.33, 836.59 1090.0, 837.18 1090.67, 837.77 1091.33, 838.36 1092.0, 838.94 1092.67, 839.52 1093.33, 840.1 1094.0, 840.68 1094.67, 841.25 1095.33, 841.82 1096.0, 842.39 1096.67, 842.95 1097.33, 843.51 1098.0, 844.07 1098.67, 844.62 1099.33, 845.18 1100.0, 845.73 1100.67, 846.27 1101.33, 846.81 1102.0, 847.35 1102.67, 847.89 1103.33, 848.42 1104.0, 848.95 1104.67, 849.47 1105.33, 850.0 1106.0, 850.52 1106.67, 851.03 1107.33, 851.54 1108.0, 852.05 1108.67, 852.55 1109.33, 853.06 1110.0, 853.55 1110.67, 854.05 1111.33, 854.54 1112.0, 855.02 1112.67, 855.5 1113.33, 855.98 1114.0, 856.46 1114.67, 856.93 1115.33, 857.39 1116.0, 857.86 1116.67, 858.31 1117.33, 858.77 1118.0, 859.22 1118.67, 859.66 1119.33, 860.11 1120.0, 860.54 1120.67, 860.98 1121.33, 861.41 1122.0, 861.83 1122.67, 862.25 1123.33, 862.67 1124.0, 863.08 1124.67, 863.49 1125.33, 863.89 1126.0, 864.29 1126.67, 864.69 1127.33, 865.08 1128.0, 865.46 1128.67, 865.84 1129.33, 866.22 1130.0, 866.59 1130.67, 866.96 1131.33, 867.32 1132.0, 867.68 1132.67, 868.03 1133.33, 868.38 1134.0, 868.73 1134.67, 869.06 1135.33, 869.4 1136.0, 869.73 1136.67, 870.05 1137.33, 870.37 1138.0, 870.69 1138.67, 871.0 1139.33, 871.3 1140.0, 871.6 1140.67, 871.9 1141.33, 872.19 1142.0, 872.47 1142.67, 872.75 1143.33, 873.03 1144.0, 873.3 1144.67, 873.56 1145.33, 873.82 1146.0, 874.07 1146.67, 874.32 1147.33, 874.57 1148.0, 874.81 1148.67, 875.04 1149.33, 875.27 1150.0, 875.49 1150.67, 875.71 1151.33, 875.92 1152.0, 876.13 1152.67, 876.33 1153.33, 876.53 1154.0, 876.72 1154.67, 876.91 1155.33, 877.09 1156.0, 877.27 1156.67, 877.44 1157.33, 877.6 1158.0, 877.76 1158.67, 877.91 1159.33, 878.06 1160.0, 878.21 1160.67, 878.34 1161.33, 878.48 1162.0, 878.6 1162.67, 878.73 1163.33, 878.84 1164.0, 878.95 1164.67, 879.06 1165.33, 879.16 1166.0, 879.25 1166.67, 879.34 1167.33, 879.42 1168.0, 879.5 1168.67, 879.57 1169.33, 879.64 1170.0, 879.7 1170.67, 879.76 1171.33, 879.81 1172.0, 879.85 1172.67, 879.89 1173.33, 879.92 1174.0, 879.95 1174.67, 879.97 1175.33, 879.99 1176.0, 880.0 1176.67, 880.01 1177.33, 880.01 1178.0, 880.0 1178.67, 879.99 1179.33, 879.98 1180.0, 879.95 1180.67, 879.93 1181.33, 879.89 1182.0, 879.85 1182.67, 879.81 1183.33, 879.76 1184.0, 879.7 1184.67, 879.64 1185.33, 879.58 1186.0, 879.51 1186.67, 879.43 1187.33, 879.35 1188.0, 879.26 1188.67, 879.16 1189.33, 879.06 1190.0, 878.96 1190.67, 878.85 1191.33, 878.73 1192.0, 878.61 1192.67, 878.49 1193.33, 878.35 1194.0, 878.22 1194.67, 878.07 1195.33, 877.93 1196.0, 877.77 1196.67, 877.61 1197.33, 877.45 1198.0, 877.28 1198.67, 877.1 1199.33, 876.92 1200.0, 876.74 1200.67, 876.55 1201.33, 876.35 1202.0, 876.15 1202.67, 875.94 1203.33, 875.73 1204.0, 875.51 1204.67, 875.29 1205.33, 875.06 1206.0, 874.83 1206.67, 874.59 1207.33, 874.34 1208.0, 874.1 1208.67, 873.84 1209.33, 873.58 1210.0, 873.32 1210.67, 873.05 1211.33, 872.78 1212.0, 872.5 1212.67, 872.21 1213.33, 871.92 1214.0, 871.63 1214.67, 871.33 1215.33, 871.03 1216.0, 870.72 1216.67, 870.4 1217.33, 870.09 1218.0, 869.76 1218.67, 869.43 1219.33, 869.1 1220.0, 868.76 1220.67, 868.42 1221.33, 868.07 1222.0, 867.72 1222.67, 867.37 1223.33, 867.0 1224.0, 866.64 1224.67, 866.27 1225.33, 865.89 1226.0, 865.51 1226.67, 865.13 1227.33, 864.74 1228.0, 864.35 1228.67, 863.95 1229.33, 863.55 1230.0, 863.14 1230.67, 862.73 1231.33, 862.32 1232.0, 861.9 1232.67, 861.47 1233.33, 861.05 1234.0, 860.61 1234.67, 860.18 1235.33, 859.74 1236.0, 859.29 1236.67, 858.85 1237.33, 858.39 1238.0, 857.94 1238.67, 857.48 1239.33, 857.01 1240.0, 856.55 1240.67, 856.07 1241.33, 855.6 1242.0, 855.12 1242.67, 854.63 1243.33, 854.15 1244.0, 853.66 1244.67, 853.16 1245.33, 852.66 1246.0, 852.16 1246.67, 851.66 1247.33, 851.15 1248.0, 850.64 1248.67, 850.12 1249.33, 849.6 1250.0, 849.08 1250.67, 848.55 1251.33, 848.02 1252.0, 847.49 1252.67, 846.96 1253.33, 846.42 1254.0, 845.88 1254.67, 845.33 1255.33, 844.78 1256.0, 844.23 1256.67, 843.68 1257.33, 843.12 1258.0, 842.56 1258.67, 842.0 1259.33, 841.43 1260.0, 840.87 1260.67, 840.3 1261.33, 839.72 1262.0, 839.15 1262.67, 838.57 1263.33, 837.99 1264.0, 837.4 1264.67, 836.82 1265.33, 836.23 1266.0, 835.63 1266.67, 835.04 1267.33, 834.45 1268.0, 833.85 1268.67, 833.25 1269.33, 832.64 1270.0, 832.04 1270.67, 831.43 1271.33, 830.82 1272.0, 830.21 1272.67, 829.6 1273.33, 828.99 1274.0, 828.37 1274.67, 827.75 1275.33, 827.13 1276.0, 826.51 1276.67, 825.89 1277.33, 825.26 1278.0, 824.63 1278.67, 824.01 1279.33, 823.38 1280.0, 822.75 1280.67, 822.11 1281.33, 821.48 1282.0, 820.84 1282.67, 820.21 1283.33, 819.57 1284.0, 818.93 1284.67, 818.29 1285.33, 817.65 1286.0, 817.01 1286.67, 816.37 1287.33, 815.72 1288.0, 815.08 1288.67, 814.43 1289.33, 813.79 1290.0, 813.14 1290.67, 812.49 1291.33, 811.84 1292.0, 811.19 1292.67, 810.55 1293.33, 809.9 1294.0, 809.25 1294.67, 808.6 1295.33, 807.94 1296.0, 807.29 1296.67, 806.64 1297.33, 805.99 1298.0, 805.34 1298.67, 804.69 1299.33, 804.03 1300.0, 803.38 1300.67, 802.73 1301.33, 802.08 1302.0, 801.43 1302.67, 800.78 1303.33, 800.13 1304.0, 799.48 1304.67, 798.83 1305.33, 798.18 1306.0, 797.53 1306.67, 796.88 1307.33, 796.23 1308.0, 795.58 1308.67, 794.94 1309.33, 794.29 1310.0, 793.64 1310.67, 793.0 1311.33, 792.36 1312.0, 791.71 1312.67, 791.07 1313.33, 790.43 1314.0, 789.79 1314.67, 789.15 1315.33, 788.52 1316.0, 787.88 1316.67, 787.25 1317.33, 786.61 1318.0, 785.98 1318.67, 785.35 1319.33, 784.72 1320.0, 784.1 1320.67, 783.47 1321.33, 782.85 1322.0, 782.22 1322.67, 781.6 1323.33, 780.98 1324.0, 780.37 1324.67, 779.75 1325.33, 779.14 1326.0, 778.53 1326.67, 777.92 1327.33, 777.31 1328.0, 776.71 1328.67, 776.11 1329.33, 775.51 1330.0, 774.91 1330.67, 774.31 1331.33, 773.72 1332.0, 773.13 1332.67, 772.54 1333.33, 771.96 1334.0, 771.37 1334.67, 770.79 1335.33, 770.21 1336.0, 769.64 1336.67, 769.07 1337.33, 768.5 1338.0, 767.93 1338.67, 767.37 1339.33, 766.81 1340.0, 766.25 1340.67, 765.7 1341.33, 765.15 1342.0, 764.6 1342.67, 764.06 1343.33, 763.52 1344.0, 762.98 1344.67, 762.44 1345.33, 761.91 1346.0, 761.39 1346.67, 760.86 1347.33, 760.34 1348.0, 759.83 1348.67, 759.31 1349.33, 758.8 1350.0, 758.3 1350.67, 757.8 1351.33, 757.3 1352.0, 756.81 1352.67, 756.32 1353.33, 755.83 1354.0, 755.35 1354.67, 754.87 1355.33, 754.4 1356.0, 753.93 1356.67, 753.46 1357.33, 753.0 1358.0, 752.55 1358.67, 752.1 1359.33, 751.65 1360.0, 751.21 1360.67, 750.77 1361.33, 750.33 1362.0, 749.9 1362.67, 749.48 1363.33, 749.06 1364.0, 748.64 1364.67, 748.23 1365.33, 747.83 1366.0, 747.43 1366.67, 747.03 1367.33, 746.64 1368.0, 746.26 1368.67, 745.87 1369.33, 745.5 1370.0, 745.13 1370.67, 744.76 1371.33, 744.4 1372.0, 744.05 1372.67, 743.7 1373.33, 743.35 1374.0, 743.01 1374.67, 742.68 1375.33, 742.35 1376.0, 742.03 1376.67, 741.71 1377.33, 741.4 1378.0, 741.09 1378.67, 740.79 1379.33, 740.5 1380.0, 740.21 1380.67, 739.92 1381.33, 739.64 1382.0, 739.37 1382.67, 739.11 1383.33, 738.84 1384.0, 738.59 1384.67, 738.34 1385.33, 738.1 1386.0, 737.86 1386.67, 737.63 1387.33, 737.41 1388.0, 737.19 1388.67, 736.97 1389.33, 736.77 1390.0, 736.57 1390.67, 736.37 1391.33, 736.18 1392.0, 736.0 1392.67, 735.83 1393.33, 735.66 1394.0, 735.49 1394.67, 735.34 1395.33, 735.19 1396.0, 735.04 1396.67, 734.9 1397.33, 734.77 1398.0, 734.65 1398.67, 734.53 1399.33, 734.42 1400.0, 734.31 1400.67, 734.21 1401.33, 734.12 1402.0, 734.04 1402.67, 733.96 1403.33, 733.88 1404.0, 733.82 1404.67, 733.76 1405.33, 733.71 1406.0, 733.66 1406.67, 733.62 1407.33, 733.59 1408.0, 733.56 1408.67, 733.54 1409.33, 733.53 1410.0, 733.52 1410.67, 733.52 1411.33, 733.53 1412.0, 733.55 1412.67, 733.57 1413.33, 733.6 1414.0, 733.63 1414.67, 733.67 1415.33, 733.72 1416.0, 733.77 1416.67, 733.84 1417.33, 733.9 1418.0, 733.98 1418.67, 734.06 1419.33, 734.15 1420.0, 734.24 1420.67, 734.35 1421.33, 734.46 1422.0, 734.57 1422.67, 734.69 1423.33, 734.82 1424.0, 734.96 1424.67, 735.1 1425.33, 735.25 1426.0, 735.4 1426.67, 735.57 1427.33, 735.74 1428.0, 735.91 1428.67, 736.09 1429.33, 736.28 1430.0, 736.48 1430.67, 736.68 1431.33, 736.89 1432.0, 737.1 1432.67, 737.32 1433.33, 737.55 1434.0, 737.78 1434.67, 738.02 1435.33, 738.27 1436.0, 738.52 1436.67, 738.78 1437.33, 739.04 1438.0, 739.31 1438.67, 739.59 1439.33, 739.87 1440.0, 740.16 1440.67, 740.46 1441.33, 740.76 1442.0, 741.06 1442.67, 741.37 1443.33, 741.69 1444.0, 742.02 1444.67, 742.34 1445.33, 742.68 1446.0, 743.02 1446.67, 743.36 1447.33, 743.72 1448.0, 744.07 1448.67, 744.43 1449.33, 744.8 1450.0, 745.17 1450.67, 745.55 1451.33, 745.93 1452.0, 746.31 1452.67, 746.7 1453.33, 747.1 1454.0, 747.5 1454.67, 747.9 1455.33, 748.31 1456.0, 748.72 1456.67, 749.13 1457.33, 749.55 1458.0, 749.98 1458.67, 750.41 1459.33, 750.84 1460.0, 751.27 1460.67, 751.71 1461.33, 752.15 1462.0, 752.59 1462.67, 753.04 1463.33, 753.49 1464.0, 753.94 1464.67, 754.4 1465.33, 754.86 1466.0, 755.32 1466.67, 755.78 1467.33, 756.24 1468.0, 756.71 1468.67, 757.17 1469.33, 757.64 1470.0, 758.11 1470.67, 758.58 1471.33, 759.05 1472.0, 759.52 1472.67, 760.0 1473.33, 760.47 1474.0, 760.94 1474.67, 761.42 1475.33, 761.89 1476.0, 762.36 1476.67, 762.83 1477.33, 763.3 1478.0, 763.77 1478.67, 764.24 1479.33, 764.7 1480.0, 765.17 1480.67, 765.63 1481.33, 766.09 1482.0, 766.54 1482.67, 767.0 1483.33, 767.45 1484.0, 767.89 1484.67, 768.33 1485.33, 768.77 1486.0, 769.21 1486.67, 769.64 1487.33, 770.06 1488.0, 770.48 1488.67, 770.89 1489.33, 771.3 1490.0, 771.7 1490.67, 772.09 1491.33, 772.48 1492.0, 772.86 1492.67, 773.23 1493.33, 773.59 1494.0, 773.95 1494.67, 774.29 1495.33, 774.63 1496.0, 774.96 1496.67, 775.27 1497.33, 775.58 1498.0, 775.87 1498.67, 776.16 1499.33, 776.43 1500.0, 776.69 1500.67, 776.94 1501.33, 777.17 1502.0, 777.39 1502.67, 777.59 1503.33, 777.78 1504.0, 777.96 1504.67, 778.12 1505.33, 778.26 1506.0, 778.39 1506.67, 778.5 1507.33, 778.59 1508.0, 778.66 1508.67, 778.71 1509.33, 778.75 1510.0, 778.76 1510.67, 778.75 1511.33, 778.72 1512.0, 778.67 1512.67, 778.59 1513.33, 778.49 1514.0, 778.37 1514.67, 778.22 1515.33, 778.05 1516.0, 777.85 1516.67, 777.62 1517.33, 777.37 1518.0, 777.09 1518.67, 776.77 1519.33, 776.43 1520.0, 776.06 1520.67, 775.65 1521.33, 775.21 1522.0, 774.74 1522.67, 774.24 1523.33, 773.69 1524.0, 773.12 1524.67, 772.5 1525.33, 771.85 1526.0, 771.16 1526.67, 770.43 1527.33, 769.66 1528.0, 768.84 1528.67, 767.99 1529.33, 767.09 1530.0, 766.14 1530.67, 765.15 1531.33, 764.11 1532.0, 763.03 1532.67, 761.89 1533.33, 760.71 1534.0, 759.47 1534.67, 758.18 1535.33, 756.83 1536.0, 755.43 1536.67, 753.98 1537.33, 752.46 1538.0, 750.89 1538.67, 749.26 1539.33, 747.57 1540.0, 745.81 1540.67, 743.99 1541.33, 742.1 1542.0, 740.14 1542.67, 738.12 1543.33, 736.03 1544.0, 733.86 1544.67, 731.62 1545.33, 729.31 1546.0, 726.92 1546.67, 724.45 1547.33, 721.9 1548.0, 719.28 1548.67, 716.56 1549.33, 713.77 1550.0, 710.89 1550.67, 707.92 1551.33, 704.85 1552.0, 701.7 1552.67, 698.46 1553.33, 695.11 1554.0, 691.67 1554.67, 688.14 1555.33, 684.49 1556.0, 680.75 1556.67, 676.9 1557.33, 672.94 1558.0, 668.88 1558.67, 664.7 1559.33, 660.4 1560.0, 655.99 1560.67, 651.46 1561.33, 646.81 1562.0, 642.04 1562.67, 637.14 1563.33, 632.11 1564.0, 626.95 1564.67, 621.66 1565.33, 616.23 1566.0, 610.66 1566.67, 604.96 1567.33, 599.11 1568.0, 593.11 1568.67, 586.96 1569.33, 580.66 1570.0, 574.21 1570.67, 567.59 1571.33, 560.82 1572.0, 553.88 1572.67, 546.78 1573.33, 539.51 1574.0, 532.06 1574.67, 524.44 1575.33, 516.63 1576.0, 508.65 1576.67, 500.48 1577.33, 492.12 1578.0, 483.56 1578.67, 474.81 1579.33, 465.86 1580.0, 456.7 1580.67, 447.34 1581.33, 437.77 1582.0, 427.98 1582.67, 417.97 1583.33, 407.74 1584.0, 397.29 1584.67, 386.6 1585.33, 375.67 1586.0, 364.51 1586.67, 353.11 1587.33, 341.45 1588.0, 329.55 1588.67, 317.39 1589.33, 304.97 1590.0, 292.28 1590.67, 279.32 1591.33, 266.09 1592.0, 252.58 1592.67, 238.78 1593.33, 224.69 1594.0, 210.31 1594.67, 195.63 1595.33, 180.65 1596.0, 165.35 1596.67, 149.74 1597.33, 133.81 1598.0, 117.56 1598.67, 100.97 1599.33, 84.04 1600.0, 66.77 " fill="none" stroke="white" stroke-width="1.5" stroke-linejoin="round" stroke-opacity="1"/>

 </svg>