<svg version="1.1" 
 baseProfile="full" 
 width="1600" 
 height="1600" 
 xmlns="http://www.w3.org/2000/svg">
<rect x="0.0" y="0.0" width="1600" height="1600" fill="black" stroke="black" stroke-width="0" opacity="1"/>
<line x1="0.0" y1="0.0" x2="0.0" y2="1600.0" stroke="white" stroke-width="1" opacity="0.4" stroke-linecap="butt"/>
<line x1="160.0" y1="0.0" x2="160.0" y2="1600.0" stroke="white" stroke-width="1" opacity="0.4" stroke-linecap="butt"/>
<line x1="320.0" y1="0.0" x2="320.0" y2="1600.0" stroke="white" stroke-width="1" opacity="0.4" stroke-linecap="butt"/>
<line x1="480.0" y1="0.0" x2="480.0" y2="1600.0" stroke="white" stroke-width="1" opacity="0.4" stroke-linecap="butt"/>
<line x1="640.0" y1="0.0" x2="640.0" y2="1600.0" stroke="white" stroke-width="1" opacity="0.4" stroke-linecap="butt"/>
<line x1="800.0" y1="0.0" x2="800.0" y2="1600.0" stroke="white" stroke-width="1" opacity="0.4" stroke-linecap="butt"/>
<line x1="960.0" y1="0.0" x2="960.0" y2="1600.0" stroke="white" stroke-width="1" opacity="0.4" stroke-linecap="butt"/>
<line x1="1120.0" y1="0.0" x2="1120.0" y2="1600.0" stroke="white" stroke-width="1" opacity="0.4" stroke-linecap="butt"/>
<line x1="1280.0" y1="0.0" x2="1280.0" y2="1600.0" stroke="white" stroke-width="1" opacity="0.4" stroke-linecap="butt"/>
<line x1="1440.0" y1="0.0" x2="1440.0" y2="1600.0" stroke="white" stroke-width="1" opacity="0.4" stroke-linecap="butt"/>
<line x1="0.0" y1="0.0" x2="1600.0" y2="0.0" stroke="white" stroke-width="1" opacity="0.4" stroke-linecap="butt"/>
<line x1="0.0" y1="160.0" x2="1600.0" y2="160.0" stroke="white" stroke-width="1" opacity="0.4" stroke-linecap="butt"/>
<line x1="0.0" y1="320.0" x2="1600.0" y2="320.0" stroke="white" stroke-width="1" opacity="0.4" stroke-linecap="butt"/>
<line x1="0.0" y1="480.0" x2="1600.0" y2="480.0" stroke="white" stroke-width="1" opacity="0.4" stroke-linecap="butt"/>
<line x1="0.0" y1="640.0" x2="1600.0" y2="640.0" stroke="white" stroke-width="1" opacity="0.4" stroke-linecap="butt"/>
<line x1="0.0" y1="800.0" x2="1600.0" y2="800.0" stroke="white" stroke-width="1" opacity="0.4" stroke-linecap="butt"/>
<line x1="0.0" y1="960.0" x2="1600.0" y2="960.0" stroke="white" stroke-width="1" opacity="0.4" stroke-linecap="butt"/>
<line x1="0.0" y1="1120.0" x2="1600.0" y2="1120.0" stroke="white" stroke-width="1" opacity="0.4" stroke-linecap="butt"/>
<line x1="0.0" y1="1280.0" x2="1600.0" y2="1280.0" stroke="white" stroke-width="1" opacity="0.4" stroke-linecap="butt"/>
<line x1="0.0" y1="1440.0" x2="1600.0" y2="1440.0" stroke="white" stroke-width="1" opacity="0.4" stroke-linecap="butt"/>
<line x1="0.0" y1="800.0" x2="1600.0" y2="800.0" stroke="yellow" stroke-width="2.5" opacity="1" stroke-linecap="butt"/>
<line x1="800.0" y1="0.0" x2="800.0" y2="1600.0" stroke="yellow" stroke-width="2.5" opacity="1" stroke-linecap="butt"/>
<polygon points="1564.0 816.0, 1604.0 800.0, 1564.0 784.0, 1572.0 800.0" fill="yellow"/><polygon points="816.0 36.0, 800.0 -4.0, 784.0 36.0, 800.0 28.0" fill="yellow"/><polyline points="0.0, 5620.53 0.67, 5546.42 1.33, 5473.39 2.0, 5401.43 2.67, 5330.53 3.33, 5260.68 4.0, 5191.85 4.67, 5124.03 5.33, 5057.22 6.0, 4991.39 6.67, 4926.53 7.33, 4862.63 8.0, 4799.68 8.67, 4737.66 9.33, 4676.56 10.0, 4616.37 10.67, 4557.08 11.33, 4498.66 12.0, 4441.12 12.67, 4384.43 13.33, 4328.59 14.0, 4273.59 14.67, 4219.41 15.33, 4166.04 16.0, 4113.47 16.67, 4061.69 17.33, 4010.69 18.0, 3960.45 18.67, 3910.98 19.33, 3862.24 20.0, 3814.25 20.67, 3766.98 21.33, 3720.42 22.0, 3674.57 22.67, 3629.41 23.33, 3584.94 24.0, 3541.14 24.67, 3498.01 25.33, 3455.54 26.0, 3413.72 26.67, 3372.53 27.33, 3331.97 28.0, 3292.03 28.67, 3252.71 29.33, 3213.99 30.0, 3175.86 30.67, 3138.31 31.33, 3101.35 32.0, 3064.95 32.67, 3029.12 33.33, 2993.84 34.0, 2959.1 34.67, 2924.9 35.33, 2891.23 36.0, 2858.08 36.67, 2825.45 37.33, 2793.32 38.0, 2761.7 38.67, 2730.57 39.33, 2699.92 40.0, 2669.75 40.67, 2640.05 41.33, 2610.82 42.0, 2582.04 42.67, 2553.72 43.33, 2525.84 44.0, 2498.4 44.67, 2471.4 45.33, 2444.81 46.0, 2418.65 46.67, 2392.9 47.33, 2367.56 48.0, 2342.62 48.67, 2318.08 49.33, 2293.92 50.0, 2270.15 50.67, 2246.76 51.33, 2223.74 52.0, 2201.08 52.67, 2178.79 53.33, 2156.86 54.0, 2135.28 54.67, 2114.04 55.33, 2093.14 56.0, 2072.58 56.67, 2052.35 57.33, 2032.45 58.0, 2012.87 58.67, 1993.6 59.33, 1974.65 60.0, 1956.0 60.67, 1937.66 61.33, 1919.61 62.0, 1901.85 62.67, 1884.39 63.33, 1867.21 64.0, 1850.31 64.67, 1833.68 65.33, 1817.33 66.0, 1801.25 66.67, 1785.43 67.33, 1769.86 68.0, 1754.56 68.67, 1739.51 69.33, 1724.7 70.0, 1710.14 70.67, 1695.82 71.33, 1681.73 72.0, 1667.88 72.67, 1654.26 73.33, 1640.87 74.0, 1627.7 74.67, 1614.74 75.33, 1602.01 76.0, 1589.48 76.67, 1577.16 77.33, 1565.06 78.0, 1553.15 78.67, 1541.44 79.33, 1529.93 80.0, 1518.61 80.67, 1507.49 81.33, 1496.55 82.0, 1485.79 82.67, 1475.22 83.33, 1464.83 84.0, 1454.61 84.67, 1444.56 85.33, 1434.69 86.0, 1424.98 86.67, 1415.44 87.33, 1406.06 88.0, 1396.84 88.67, 1387.78 89.33, 1378.87 90.0, 1370.12 90.67, 1361.51 91.33, 1353.06 92.0, 1344.75 92.67, 1336.58 93.33, 1328.55 94.0, 1320.66 94.67, 1312.91 95.33, 1305.29 96.0, 1297.8 96.67, 1290.44 97.33, 1283.21 98.0, 1276.1 98.67, 1269.12 99.33, 1262.26 100.0, 1255.52 100.67, 1248.89 101.33, 1242.38 102.0, 1235.99 102.67, 1229.7 103.33, 1223.53 104.0, 1217.46 104.67, 1211.51 105.33, 1205.65 106.0, 1199.9 106.67, 1194.25 107.33, 1188.69 108.0, 1183.24 108.67, 1177.88 109.33, 1172.62 110.0, 1167.45 110.67, 1162.37 111.33, 1157.38 112.0, 1152.47 112.67, 1147.66 113.33, 1142.93 114.0, 1138.28 114.67, 1133.72 115.33, 1129.23 116.0, 1124.83 116.67, 1120.5 117.33, 1116.25 118.0, 1112.08 118.67, 1107.98 119.33, 1103.95 120.0, 1100.0 120.67, 1096.11 121.33, 1092.3 122.0, 1088.55 122.67, 1084.87 123.33, 1081.25 124.0, 1077.7 124.67, 1074.21 125.33, 1070.78 126.0, 1067.42 126.67, 1064.11 127.33, 1060.86 128.0, 1057.67 128.67, 1054.54 129.33, 1051.46 130.0, 1048.44 130.67, 1045.47 131.33, 1042.56 132.0, 1039.69 132.67, 1036.88 133.33, 1034.11 134.0, 1031.4 134.67, 1028.73 135.33, 1026.11 136.0, 1023.53 136.67, 1021.01 137.33, 1018.52 138.0, 1016.08 138.67, 1013.68 139.33, 1011.33 140.0, 1009.01 140.67, 1006.74 141.33, 1004.5 142.0, 1002.3 142.67, 1000.15 143.33, 998.03 144.0, 995.94 144.67, 993.89 145.33, 991.88 146.0, 989.9 146.67, 987.96 147.33, 986.05 148.0, 984.17 148.67, 982.32 149.33, 980.5 150.0, 978.72 150.67, 976.96 151.33, 975.24 152.0, 973.54 152.67, 971.87 153.33, 970.23 154.0, 968.61 154.67, 967.03 155.33, 965.46 156.0, 963.93 156.67, 962.42 157.33, 960.93 158.0, 959.46 158.67, 958.02 159.33, 956.6 160.0, 955.21 160.67, 953.83 161.33, 952.48 162.0, 951.15 162.67, 949.84 163.33, 948.55 164.0, 947.28 164.67, 946.02 165.33, 944.79 166.0, 943.57 166.67, 942.37 167.33, 941.19 168.0, 940.03 168.67, 938.88 169.33, 937.75 170.0, 936.63 170.67, 935.53 171.33, 934.45 172.0, 933.38 172.67, 932.32 173.33, 931.28 174.0, 930.25 174.67, 929.24 175.33, 928.24 176.0, 927.25 176.67, 926.27 177.33, 925.3 178.0, 924.35 178.67, 923.41 179.33, 922.48 180.0, 921.56 180.67, 920.65 181.33, 919.75 182.0, 918.86 182.67, 917.98 183.33, 917.11 184.0, 916.25 184.67, 915.4 185.33, 914.56 186.0, 913.72 186.67, 912.9 187.33, 912.08 188.0, 911.27 188.67, 910.47 189.33, 909.67 190.0, 908.88 190.67, 908.1 191.33, 907.32 192.0, 906.56 192.67, 905.79 193.33, 905.04 194.0, 904.29 194.67, 903.54 195.33, 902.8 196.0, 902.07 196.67, 901.34 197.33, 900.61 198.0, 899.89 198.67, 899.18 199.33, 898.47 200.0, 897.76 200.67, 897.06 201.33, 896.36 202.0, 895.67 202.67, 894.98 203.33, 894.29 204.0, 893.61 204.67, 892.93 205.33, 892.25 206.0, 891.57 206.67, 890.9 207.33, 890.23 208.0, 889.57 208.67, 888.9 209.33, 888.24 210.0, 887.58 210.67, 886.92 211.33, 886.27 212.0, 885.61 212.67, 884.96 213.33, 884.31 214.0, 883.66 214.67, 883.02 215.33, 882.37 216.0, 881.73 216.67, 881.08 217.33, 880.44 218.0, 879.8 218.67, 879.16 219.33, 878.52 220.0, 877.88 220.67, 877.25 221.33, 876.61 222.0, 875.97 222.67, 875.34 223.33, 874.7 224.0, 874.06 224.67, 873.43 225.33, 872.8 226.0, 872.16 226.67, 871.53 227.33, 870.89 228.0, 870.26 228.67, 869.62 229.33, 868.99 230.0, 868.35 230.67, 867.72 231.33, 867.08 232.0, 866.45 232.67, 865.81 233.33, 865.18 234.0, 864.54 234.67, 863.9 235.33, 863.27 236.0, 862.63 236.67, 861.99 237.33, 861.35 238.0, 860.71 238.67, 860.07 239.33, 859.43 240.0, 858.79 240.67, 858.15 241.33, 857.51 242.0, 856.86 242.67, 856.22 243.33, 855.57 244.0, 854.93 244.67, 854.28 245.33, 853.63 246.0, 852.98 246.67, 852.33 247.33, 851.68 248.0, 851.03 248.67, 850.38 249.33, 849.73 250.0, 849.07 250.67, 848.42 251.33, 847.76 252.0, 847.11 252.67, 846.45 253.33, 845.79 254.0, 845.13 254.67, 844.47 255.33, 843.81 256.0, 843.15 256.67, 842.48 257.33, 841.82 258.0, 841.15 258.67, 840.49 259.33, 839.82 260.0, 839.15 260.67, 838.48 261.33, 837.81 262.0, 837.14 262.67, 836.47 263.33, 835.8 264.0, 835.13 264.67, 834.45 265.33, 833.78 266.0, 833.1 266.67, 832.43 267.33, 831.75 268.0, 831.07 268.67, 830.39 269.33, 829.71 270.0, 829.03 270.67, 828.35 271.33, 827.67 272.0, 826.99 272.67, 826.3 273.33, 825.62 274.0, 824.94 274.67, 824.25 275.33, 823.57 276.0, 822.88 276.67, 822.2 277.33, 821.51 278.0, 820.82 278.67, 820.13 279.33, 819.45 280.0, 818.76 280.67, 818.07 281.33, 817.38 282.0, 816.69 282.67, 816.0 283.33, 815.31 284.0, 814.62 284.67, 813.93 285.33, 813.24 286.0, 812.55 286.67, 811.86 287.33, 811.17 288.0, 810.48 288.67, 809.79 289.33, 809.1 290.0, 808.41 290.67, 807.72 291.33, 807.03 292.0, 806.34 292.67, 805.65 293.33, 804.96 294.0, 804.27 294.67, 803.58 295.33, 802.89 296.0, 802.21 296.67, 801.52 297.33, 800.83 298.0, 800.14 298.67, 799.46 299.33, 798.77 300.0, 798.09 300.67, 797.4 301.33, 796.72 302.0, 796.03 302.67, 795.35 303.33, 794.67 304.0, 793.99 304.67, 793.31 305.33, 792.63 306.0, 791.95 306.67, 791.28 307.33, 790.6 308.0, 789.92 308.67, 789.25 309.33, 788.58 310.0, 787.9 310.67, 787.23 311.33, 786.56 312.0, 785.9 312.67, 785.23 313.33, 784.56 314.0, 783.9 314.67, 783.24 315.33, 782.58 316.0, 781.92 316.67, 781.26 317.33, 780.6 318.0, 779.95 318.67, 779.29 319.33, 778.64 320.0, 777.99 320.67, 777.34 321.33, 776.7 322.0, 776.05 322.67, 775.41 323.33, 774.77 324.0, 774.13 324.67, 773.49 325.33, 772.86 326.0, 772.23 326.67, 771.59 327.33, 770.97 328.0, 770.34 328.67, 769.72 329.33, 769.09 330.0, 768.48 330.67, 767.86 331.33, 767.24 332.0, 766.63 332.67, 766.02 333.33, 765.42 334.0, 764.81 334.67, 764.21 335.33, 763.61 336.0, 763.01 336.67, 762.42 337.33, 761.83 338.0, 761.24 338.67, 760.65 339.33, 760.07 340.0, 759.49 340.67, 758.91 341.33, 758.34 342.0, 757.77 342.67, 757.2 343.33, 756.64 344.0, 756.08 344.67, 755.52 345.33, 754.96 346.0, 754.41 346.67, 753.86 347.33, 753.32 348.0, 752.77 348.67, 752.23 349.33, 751.7 350.0, 751.17 350.67, 750.64 351.33, 750.11 352.0, 749.59 352.67, 749.07 353.33, 748.56 354.0, 748.05 354.67, 747.54 355.33, 747.04 356.0, 746.54 356.67, 746.04 357.33, 745.55 358.0, 745.06 358.67, 744.58 359.33, 744.1 360.0, 743.62 360.67, 743.15 361.33, 742.68 362.0, 742.22 362.67, 741.76 363.33, 741.3 364.0, 740.85 364.67, 740.4 365.33, 739.96 366.0, 739.52 366.67, 739.08 367.33, 738.65 368.0, 738.23 368.67, 737.8 369.33, 737.39 370.0, 736.97 370.67, 736.56 371.33, 736.16 372.0, 735.76 372.67, 735.36 373.33, 734.97 374.0, 734.58 374.67, 734.2 375.33, 733.82 376.0, 733.45 376.67, 733.08 377.33, 732.72 378.0, 732.36 378.67, 732.01 379.33, 731.66 380.0, 731.31 380.67, 730.97 381.33, 730.64 382.0, 730.31 382.67, 729.98 383.33, 729.66 384.0, 729.35 384.67, 729.04 385.33, 728.73 386.0, 728.43 386.67, 728.13 387.33, 727.84 388.0, 727.56 388.67, 727.28 389.33, 727.0 390.0, 726.73 390.67, 726.47 391.33, 726.21 392.0, 725.95 392.67, 725.7 393.33, 725.46 394.0, 725.22 394.67, 724.98 395.33, 724.75 396.0, 724.53 396.67, 724.31 397.33, 724.1 398.0, 723.89 398.67, 723.69 399.33, 723.49 400.0, 723.3 400.67, 723.11 401.33, 722.93 402.0, 722.75 402.67, 722.58 403.33, 722.42 404.0, 722.26 404.67, 722.1 405.33, 721.95 406.0, 721.81 406.67, 721.67 407.33, 721.54 408.0, 721.41 408.67, 721.29 409.33, 721.17 410.0, 721.06 410.67, 720.96 411.33, 720.86 412.0, 720.76 412.67, 720.67 413.33, 720.59 414.0, 720.51 414.67, 720.44 415.33, 720.37 416.0, 720.31 416.67, 720.26 417.33, 720.21 418.0, 720.16 418.67, 720.12 419.33, 720.09 420.0, 720.06 420.67, 720.04 421.33, 720.02 422.0, 720.01 422.67, 720.0 423.33, 720.0 424.0, 720.01 424.67, 720.02 425.33, 720.04 426.0, 720.06 426.67, 720.09 427.33, 720.12 428.0, 720.16 428.67, 720.2 429.33, 720.25 430.0, 720.31 430.67, 720.37 431.33, 720.44 432.0, 720.51 432.67, 720.58 433.33, 720.67 434.0, 720.76 434.67, 720.85 435.33, 720.95 436.0, 721.05 436.67, 721.16 437.33, 721.28 438.0, 721.4 438.67, 721.53 439.33, 721.66 440.0, 721.8 440.67, 721.94 441.33, 722.09 442.0, 722.24 442.67, 722.4 443.33, 722.57 444.0, 722.74 444.67, 722.91 445.33, 723.1 446.0, 723.28 446.67, 723.47 447.33, 723.67 448.0, 723.87 448.67, 724.08 449.33, 724.29 450.0, 724.51 450.67, 724.73 451.33, 724.96 452.0, 725.2 452.67, 725.44 453.33, 725.68 454.0, 725.93 454.67, 726.18 455.33, 726.44 456.0, 726.71 456.67, 726.98 457.33, 727.25 458.0, 727.53 458.67, 727.82 459.33, 728.11 460.0, 728.4 460.67, 728.7 461.33, 729.01 462.0, 729.32 462.67, 729.63 463.33, 729.95 464.0, 730.27 464.67, 730.6 465.33, 730.94 466.0, 731.28 466.67, 731.62 467.33, 731.97 468.0, 732.32 468.67, 732.68 469.33, 733.04 470.0, 733.41 470.67, 733.78 471.33, 734.16 472.0, 734.54 472.67, 734.92 473.33, 735.31 474.0, 735.71 474.67, 736.11 475.33, 736.51 476.0, 736.92 476.67, 737.33 477.33, 737.75 478.0, 738.17 478.67, 738.59 479.33, 739.02 480.0, 739.46 480.67, 739.89 481.33, 740.34 482.0, 740.78 482.67, 741.23 483.33, 741.69 484.0, 742.15 484.67, 742.61 485.33, 743.07 486.0, 743.54 486.67, 744.02 487.33, 744.5 488.0, 744.98 488.67, 745.46 489.33, 745.95 490.0, 746.45 490.67, 746.94 491.33, 747.45 492.0, 747.95 492.67, 748.46 493.33, 748.97 494.0, 749.48 494.67, 750.0 495.33, 750.53 496.0, 751.05 496.67, 751.58 497.33, 752.11 498.0, 752.65 498.67, 753.19 499.33, 753.73 500.0, 754.28 500.67, 754.82 501.33, 755.38 502.0, 755.93 502.67, 756.49 503.33, 757.05 504.0, 757.61 504.67, 758.18 505.33, 758.75 506.0, 759.32 506.67, 759.9 507.33, 760.48 508.0, 761.06 508.67, 761.64 509.33, 762.23 510.0, 762.82 510.67, 763.41 511.33, 764.0 512.0, 764.6 512.67, 765.2 513.33, 765.8 514.0, 766.4 514.67, 767.01 515.33, 767.62 516.0, 768.23 516.67, 768.84 517.33, 769.46 518.0, 770.07 518.67, 770.69 519.33, 771.31 520.0, 771.94 520.67, 772.56 521.33, 773.19 522.0, 773.82 522.67, 774.45 523.33, 775.08 524.0, 775.72 524.67, 776.35 525.33, 776.99 526.0, 777.63 526.67, 778.27 527.33, 778.91 528.0, 779.56 528.67, 780.2 529.33, 780.85 530.0, 781.5 530.67, 782.15 531.33, 782.8 532.0, 783.45 532.67, 784.1 533.33, 784.75 534.0, 785.41 534.67, 786.07 535.33, 786.72 536.0, 787.38 536.67, 788.04 537.33, 788.7 538.0, 789.36 538.67, 790.02 539.33, 790.68 540.0, 791.34 540.67, 792.01 541.33, 792.67 542.0, 793.34 542.67, 794.0 543.33, 794.66 544.0, 795.33 544.67, 796.0 545.33, 796.66 546.0, 797.33 546.67, 797.99 547.33, 798.66 548.0, 799.33 548.67, 799.99 549.33, 800.66 550.0, 801.33 550.67, 801.99 551.33, 802.66 552.0, 803.33 552.67, 803.99 553.33, 804.66 554.0, 805.32 554.67, 805.99 555.33, 806.65 556.0, 807.32 556.67, 807.98 557.33, 808.64 558.0, 809.31 558.67, 809.97 559.33, 810.63 560.0, 811.29 560.67, 811.95 561.33, 812.61 562.0, 813.27 562.67, 813.92 563.33, 814.58 564.0, 815.23 564.67, 815.89 565.33, 816.54 566.0, 817.19 566.67, 817.84 567.33, 818.49 568.0, 819.14 568.67, 819.79 569.33, 820.43 570.0, 821.08 570.67, 821.72 571.33, 822.36 572.0, 823.0 572.67, 823.64 573.33, 824.27 574.0, 824.91 574.67, 825.54 575.33, 826.17 576.0, 826.8 576.67, 827.43 577.33, 828.05 578.0, 828.67 578.67, 829.3 579.33, 829.92 580.0, 830.53 580.67, 831.15 581.33, 831.76 582.0, 832.37 582.67, 832.98 583.33, 833.59 584.0, 834.19 584.67, 834.79 585.33, 835.39 586.0, 835.99 586.67, 836.58 587.33, 837.17 588.0, 837.76 588.67, 838.35 589.33, 838.93 590.0, 839.51 590.67, 840.09 591.33, 840.67 592.0, 841.24 592.67, 841.81 593.33, 842.38 594.0, 842.94 594.67, 843.5 595.33, 844.06 596.0, 844.61 596.67, 845.17 597.33, 845.72 598.0, 846.26 598.67, 846.8 599.33, 847.34 600.0, 847.88 600.67, 848.41 601.33, 848.94 602.0, 849.46 602.67, 849.99 603.33, 850.51 604.0, 851.02 604.67, 851.53 605.33, 852.04 606.0, 852.55 606.67, 853.05 607.33, 853.54 608.0, 854.04 608.67, 854.53 609.33, 855.01 610.0, 855.49 610.67, 855.97 611.33, 856.45 612.0, 856.92 612.67, 857.38 613.33, 857.85 614.0, 858.31 614.67, 858.76 615.33, 859.21 616.0, 859.66 616.67, 860.1 617.33, 860.54 618.0, 860.97 618.67, 861.4 619.33, 861.82 620.0, 862.25 620.67, 862.66 621.33, 863.07 622.0, 863.48 622.67, 863.89 623.33, 864.29 624.0, 864.68 624.67, 865.07 625.33, 865.46 626.0, 865.84 626.67, 866.21 627.33, 866.58 628.0, 866.95 628.67, 867.31 629.33, 867.67 630.0, 868.03 630.67, 868.37 631.33, 868.72 632.0, 869.06 632.67, 869.39 633.33, 869.72 634.0, 870.04 634.67, 870.36 635.33, 870.68 636.0, 870.99 636.67, 871.29 637.33, 871.59 638.0, 871.89 638.67, 872.18 639.33, 872.46 640.0, 872.74 640.67, 873.02 641.33, 873.29 642.0, 873.55 642.67, 873.81 643.33, 874.07 644.0, 874.32 644.67, 874.56 645.33, 874.8 646.0, 875.03 646.67, 875.26 647.33, 875.49 648.0, 875.7 648.67, 875.92 649.33, 876.12 650.0, 876.33 650.67, 876.52 651.33, 876.72 652.0, 876.9 652.67, 877.08 653.33, 877.26 654.0, 877.43 654.67, 877.59 655.33, 877.75 656.0, 877.91 656.67, 878.06 657.33, 878.2 658.0, 878.34 658.67, 878.47 659.33, 878.6 660.0, 878.72 660.67, 878.83 661.33, 878.95 662.0, 879.05 662.67, 879.15 663.33, 879.24 664.0, 879.33 664.67, 879.42 665.33, 879.49 666.0, 879.57 666.67, 879.63 667.33, 879.69 668.0, 879.75 668.67, 879.8 669.33, 879.84 670.0, 879.88 670.67, 879.92 671.33, 879.94 672.0, 879.97 672.67, 879.98 673.33, 879.99 674.0, 880.0 674.67, 880.0 675.33, 879.99 676.0, 879.98 676.67, 879.97 677.33, 879.94 678.0, 879.92 678.67, 879.88 679.33, 879.84 680.0, 879.8 680.67, 879.75 681.33, 879.69 682.0, 879.63 682.67, 879.57 683.33, 879.49 684.0, 879.42 684.67, 879.33 685.33, 879.25 686.0, 879.15 686.67, 879.05 687.33, 878.95 688.0, 878.84 688.67, 878.72 689.33, 878.6 690.0, 878.47 690.67, 878.34 691.33, 878.2 692.0, 878.06 692.67, 877.91 693.33, 877.76 694.0, 877.6 694.67, 877.43 695.33, 877.26 696.0, 877.08 696.67, 876.9 697.33, 876.72 698.0, 876.53 698.67, 876.33 699.33, 876.13 700.0, 875.92 700.67, 875.71 701.33, 875.49 702.0, 875.26 702.67, 875.04 703.33, 874.8 704.0, 874.56 704.67, 874.32 705.33, 874.07 706.0, 873.82 706.67, 873.56 707.33, 873.29 708.0, 873.02 708.67, 872.75 709.33, 872.47 710.0, 872.18 710.67, 871.89 711.33, 871.6 712.0, 871.3 712.67, 870.99 713.33, 870.68 714.0, 870.37 714.67, 870.05 715.33, 869.72 716.0, 869.39 716.67, 869.06 717.33, 868.72 718.0, 868.38 718.67, 868.03 719.33, 867.68 720.0, 867.32 720.67, 866.96 721.33, 866.59 722.0, 866.22 722.67, 865.84 723.33, 865.46 724.0, 865.07 724.67, 864.68 725.33, 864.29 726.0, 863.89 726.67, 863.49 727.33, 863.08 728.0, 862.67 728.67, 862.25 729.33, 861.83 730.0, 861.4 730.67, 860.97 731.33, 860.54 732.0, 860.1 732.67, 859.66 733.33, 859.21 734.0, 858.76 734.67, 858.31 735.33, 857.85 736.0, 857.39 736.67, 856.92 737.33, 856.45 738.0, 855.98 738.67, 855.5 739.33, 855.02 740.0, 854.53 740.67, 854.04 741.33, 853.55 742.0, 853.05 742.67, 852.55 743.33, 852.05 744.0, 851.54 744.67, 851.03 745.33, 850.51 746.0, 849.99 746.67, 849.47 747.33, 848.94 748.0, 848.41 748.67, 847.88 749.33, 847.35 750.0, 846.81 750.67, 846.27 751.33, 845.72 752.0, 845.17 752.67, 844.62 753.33, 844.06 754.0, 843.51 754.67, 842.95 755.33, 842.38 756.0, 841.81 756.67, 841.25 757.33, 840.67 758.0, 840.1 758.67, 839.52 759.33, 838.94 760.0, 838.35 760.67, 837.77 761.33, 837.18 762.0, 836.59 762.67, 835.99 763.33, 835.4 764.0, 834.8 764.67, 834.2 765.33, 833.59 766.0, 832.99 766.67, 832.38 767.33, 831.77 768.0, 831.15 768.67, 830.54 769.33, 829.92 770.0, 829.3 770.67, 828.68 771.33, 828.06 772.0, 827.43 772.67, 826.8 773.33, 826.18 774.0, 825.54 774.67, 824.91 775.33, 824.28 776.0, 823.64 776.67, 823.0 777.33, 822.36 778.0, 821.72 778.67, 821.08 779.33, 820.44 780.0, 819.79 780.67, 819.15 781.33, 818.5 782.0, 817.85 782.67, 817.2 783.33, 816.55 784.0, 815.89 784.67, 815.24 785.33, 814.58 786.0, 813.93 786.67, 813.27 787.33, 812.61 788.0, 811.96 788.67, 811.3 789.33, 810.64 790.0, 809.97 790.67, 809.31 791.33, 808.65 792.0, 807.99 792.67, 807.32 793.33, 806.66 794.0, 805.99 794.67, 805.33 795.33, 804.66 796.0, 804.0 796.67, 803.33 797.33, 802.67 798.0, 802.0 798.67, 801.33 799.33, 800.67 800.0, 800.0 800.67, 799.33 801.33, 798.67 802.0, 798.0 802.67, 797.33 803.33, 796.67 804.0, 796.0 804.67, 795.34 805.33, 794.67 806.0, 794.01 806.67, 793.34 807.33, 792.68 808.0, 792.01 808.67, 791.35 809.33, 790.69 810.0, 790.03 810.67, 789.36 811.33, 788.7 812.0, 788.04 812.67, 787.39 813.33, 786.73 814.0, 786.07 814.67, 785.42 815.33, 784.76 816.0, 784.11 816.67, 783.45 817.33, 782.8 818.0, 782.15 818.67, 781.5 819.33, 780.85 820.0, 780.21 820.67, 779.56 821.33, 778.92 822.0, 778.28 822.67, 777.64 823.33, 777.0 824.0, 776.36 824.67, 775.72 825.33, 775.09 826.0, 774.46 826.67, 773.82 827.33, 773.2 828.0, 772.57 828.67, 771.94 829.33, 771.32 830.0, 770.7 830.67, 770.08 831.33, 769.46 832.0, 768.85 832.67, 768.23 833.33, 767.62 834.0, 767.01 834.67, 766.41 835.33, 765.8 836.0, 765.2 836.67, 764.6 837.33, 764.01 838.0, 763.41 838.67, 762.82 839.33, 762.23 840.0, 761.65 840.67, 761.06 841.33, 760.48 842.0, 759.9 842.67, 759.33 843.33, 758.75 844.0, 758.19 844.67, 757.62 845.33, 757.05 846.0, 756.49 846.67, 755.94 847.33, 755.38 848.0, 754.83 848.67, 754.28 849.33, 753.73 850.0, 753.19 850.67, 752.65 851.33, 752.12 852.0, 751.59 852.67, 751.06 853.33, 750.53 854.0, 750.01 854.67, 749.49 855.33, 748.97 856.0, 748.46 856.67, 747.95 857.33, 747.45 858.0, 746.95 858.67, 746.45 859.33, 745.96 860.0, 745.47 860.67, 744.98 861.33, 744.5 862.0, 744.02 862.67, 743.55 863.33, 743.08 864.0, 742.61 864.67, 742.15 865.33, 741.69 866.0, 741.24 866.67, 740.79 867.33, 740.34 868.0, 739.9 868.67, 739.46 869.33, 739.03 870.0, 738.6 870.67, 738.17 871.33, 737.75 872.0, 737.33 872.67, 736.92 873.33, 736.51 874.0, 736.11 874.67, 735.71 875.33, 735.32 876.0, 734.93 876.67, 734.54 877.33, 734.16 878.0, 733.78 878.67, 733.41 879.33, 733.04 880.0, 732.68 880.67, 732.32 881.33, 731.97 882.0, 731.62 882.67, 731.28 883.33, 730.94 884.0, 730.61 884.67, 730.28 885.33, 729.95 886.0, 729.63 886.67, 729.32 887.33, 729.01 888.0, 728.7 888.67, 728.4 889.33, 728.11 890.0, 727.82 890.67, 727.53 891.33, 727.25 892.0, 726.98 892.67, 726.71 893.33, 726.44 894.0, 726.18 894.67, 725.93 895.33, 725.68 896.0, 725.44 896.67, 725.2 897.33, 724.96 898.0, 724.74 898.67, 724.51 899.33, 724.29 900.0, 724.08 900.67, 723.87 901.33, 723.67 902.0, 723.47 902.67, 723.28 903.33, 723.1 904.0, 722.92 904.67, 722.74 905.33, 722.57 906.0, 722.4 906.67, 722.24 907.33, 722.09 908.0, 721.94 908.67, 721.8 909.33, 721.66 910.0, 721.53 910.67, 721.4 911.33, 721.28 912.0, 721.16 912.67, 721.05 913.33, 720.95 914.0, 720.85 914.67, 720.75 915.33, 720.67 916.0, 720.58 916.67, 720.51 917.33, 720.43 918.0, 720.37 918.67, 720.31 919.33, 720.25 920.0, 720.2 920.67, 720.16 921.33, 720.12 922.0, 720.08 922.67, 720.06 923.33, 720.03 924.0, 720.02 924.67, 720.01 925.33, 720.0 926.0, 720.0 926.67, 720.01 927.33, 720.02 928.0, 720.03 928.67, 720.06 929.33, 720.08 930.0, 720.12 930.67, 720.16 931.33, 720.2 932.0, 720.25 932.67, 720.31 933.33, 720.37 934.0, 720.43 934.67, 720.51 935.33, 720.58 936.0, 720.67 936.67, 720.76 937.33, 720.85 938.0, 720.95 938.67, 721.05 939.33, 721.17 940.0, 721.28 940.67, 721.4 941.33, 721.53 942.0, 721.66 942.67, 721.8 943.33, 721.94 944.0, 722.09 944.67, 722.25 945.33, 722.41 946.0, 722.57 946.67, 722.74 947.33, 722.92 948.0, 723.1 948.67, 723.28 949.33, 723.48 950.0, 723.67 950.67, 723.88 951.33, 724.08 952.0, 724.3 952.67, 724.51 953.33, 724.74 954.0, 724.97 954.67, 725.2 955.33, 725.44 956.0, 725.68 956.67, 725.93 957.33, 726.19 958.0, 726.45 958.67, 726.71 959.33, 726.98 960.0, 727.26 960.67, 727.54 961.33, 727.82 962.0, 728.11 962.67, 728.41 963.33, 728.71 964.0, 729.01 964.67, 729.32 965.33, 729.64 966.0, 729.96 966.67, 730.28 967.33, 730.61 968.0, 730.94 968.67, 731.28 969.33, 731.63 970.0, 731.97 970.67, 732.33 971.33, 732.69 972.0, 733.05 972.67, 733.42 973.33, 733.79 974.0, 734.16 974.67, 734.54 975.33, 734.93 976.0, 735.32 976.67, 735.71 977.33, 736.11 978.0, 736.52 978.67, 736.93 979.33, 737.34 980.0, 737.75 980.67, 738.18 981.33, 738.6 982.0, 739.03 982.67, 739.46 983.33, 739.9 984.0, 740.34 984.67, 740.79 985.33, 741.24 986.0, 741.69 986.67, 742.15 987.33, 742.62 988.0, 743.08 988.67, 743.55 989.33, 744.03 990.0, 744.51 990.67, 744.99 991.33, 745.47 992.0, 745.96 992.67, 746.46 993.33, 746.95 994.0, 747.45 994.67, 747.96 995.33, 748.47 996.0, 748.98 996.67, 749.49 997.33, 750.01 998.0, 750.54 998.67, 751.06 999.33, 751.59 1000.0, 752.12 1000.67, 752.66 1001.33, 753.2 1002.0, 753.74 1002.67, 754.28 1003.33, 754.83 1004.0, 755.39 1004.67, 755.94 1005.33, 756.5 1006.0, 757.06 1006.67, 757.62 1007.33, 758.19 1008.0, 758.76 1008.67, 759.33 1009.33, 759.91 1010.0, 760.49 1010.67, 761.07 1011.33, 761.65 1012.0, 762.24 1012.67, 762.83 1013.33, 763.42 1014.0, 764.01 1014.67, 764.61 1015.33, 765.21 1016.0, 765.81 1016.67, 766.41 1017.33, 767.02 1018.0, 767.63 1018.67, 768.24 1019.33, 768.85 1020.0, 769.47 1020.67, 770.08 1021.33, 770.7 1022.0, 771.33 1022.67, 771.95 1023.33, 772.57 1024.0, 773.2 1024.67, 773.83 1025.33, 774.46 1026.0, 775.09 1026.67, 775.73 1027.33, 776.36 1028.0, 777.0 1028.67, 777.64 1029.33, 778.28 1030.0, 778.92 1030.67, 779.57 1031.33, 780.21 1032.0, 780.86 1032.67, 781.51 1033.33, 782.16 1034.0, 782.81 1034.67, 783.46 1035.33, 784.11 1036.0, 784.77 1036.67, 785.42 1037.33, 786.08 1038.0, 786.73 1038.67, 787.39 1039.33, 788.05 1040.0, 788.71 1040.67, 789.37 1041.33, 790.03 1042.0, 790.69 1042.67, 791.36 1043.33, 792.02 1044.0, 792.68 1044.67, 793.35 1045.33, 794.01 1046.0, 794.68 1046.67, 795.34 1047.33, 796.01 1048.0, 796.67 1048.67, 797.34 1049.33, 798.01 1050.0, 798.67 1050.67, 799.34 1051.33, 800.01 1052.0, 800.67 1052.67, 801.34 1053.33, 802.01 1054.0, 802.67 1054.67, 803.34 1055.33, 804.0 1056.0, 804.67 1056.67, 805.34 1057.33, 806.0 1058.0, 806.66 1058.67, 807.33 1059.33, 807.99 1060.0, 808.66 1060.67, 809.32 1061.33, 809.98 1062.0, 810.64 1062.67, 811.3 1063.33, 811.96 1064.0, 812.62 1064.67, 813.28 1065.33, 813.93 1066.0, 814.59 1066.67, 815.25 1067.33, 815.9 1068.0, 816.55 1068.67, 817.2 1069.33, 817.85 1070.0, 818.5 1070.67, 819.15 1071.33, 819.8 1072.0, 820.44 1072.67, 821.09 1073.33, 821.73 1074.0, 822.37 1074.67, 823.01 1075.33, 823.65 1076.0, 824.28 1076.67, 824.92 1077.33, 825.55 1078.0, 826.18 1078.67, 826.81 1079.33, 827.44 1080.0, 828.06 1080.67, 828.69 1081.33, 829.31 1082.0, 829.93 1082.67, 830.54 1083.33, 831.16 1084.0, 831.77 1084.67, 832.38 1085.33, 832.99 1086.0, 833.6 1086.67, 834.2 1087.33, 834.8 1088.0, 835.4 1088.67, 836.0 1089.33, 836.59 1090.0, 837.18 1090.67, 837.77 1091.33, 838.36 1092.0, 838.94 1092.67, 839.52 1093.33, 840.1 1094.0, 840.68 1094.67, 841.25 1095.33, 841.82 1096.0, 842.39 1096.67, 842.95 1097.33, 843.51 1098.0, 844.07 1098.67, 844.62 1099.33, 845.18 1100.0, 845.72 1100.67, 846.27 1101.33, 846.81 1102.0, 847.35 1102.67, 847.89 1103.33, 848.42 1104.0, 848.95 1104.67, 849.47 1105.33, 850.0 1106.0, 850.52 1106.67, 851.03 1107.33, 851.54 1108.0, 852.05 1108.67, 852.55 1109.33, 853.06 1110.0, 853.55 1110.67, 854.05 1111.33, 854.54 1112.0, 855.02 1112.67, 855.5 1113.33, 855.98 1114.0, 856.46 1114.67, 856.93 1115.33, 857.39 1116.0, 857.85 1116.67, 858.31 1117.33, 858.77 1118.0, 859.22 1118.67, 859.66 1119.33, 860.11 1120.0, 860.54 1120.67, 860.98 1121.33, 861.41 1122.0, 861.83 1122.67, 862.25 1123.33, 862.67 1124.0, 863.08 1124.67, 863.49 1125.33, 863.89 1126.0, 864.29 1126.67, 864.69 1127.33, 865.08 1128.0, 865.46 1128.67, 865.84 1129.33, 866.22 1130.0, 866.59 1130.67, 866.96 1131.33, 867.32 1132.0, 867.68 1132.67, 868.03 1133.33, 868.38 1134.0, 868.72 1134.67, 869.06 1135.33, 869.4 1136.0, 869.73 1136.67, 870.05 1137.33, 870.37 1138.0, 870.68 1138.67, 870.99 1139.33, 871.3 1140.0, 871.6 1140.67, 871.89 1141.33, 872.18 1142.0, 872.47 1142.67, 872.75 1143.33, 873.02 1144.0, 873.29 1144.67, 873.56 1145.33, 873.82 1146.0, 874.07 1146.67, 874.32 1147.33, 874.56 1148.0, 874.8 1148.67, 875.04 1149.33, 875.27 1150.0, 875.49 1150.67, 875.71 1151.33, 875.92 1152.0, 876.13 1152.67, 876.33 1153.33, 876.53 1154.0, 876.72 1154.67, 876.9 1155.33, 877.09 1156.0, 877.26 1156.67, 877.43 1157.33, 877.6 1158.0, 877.76 1158.67, 877.91 1159.33, 878.06 1160.0, 878.2 1160.67, 878.34 1161.33, 878.47 1162.0, 878.6 1162.67, 878.72 1163.33, 878.84 1164.0, 878.95 1164.67, 879.05 1165.33, 879.15 1166.0, 879.24 1166.67, 879.33 1167.33, 879.42 1168.0, 879.49 1168.67, 879.56 1169.33, 879.63 1170.0, 879.69 1170.67, 879.75 1171.33, 879.8 1172.0, 879.84 1172.67, 879.88 1173.33, 879.91 1174.0, 879.94 1174.67, 879.96 1175.33, 879.98 1176.0, 879.99 1176.67, 880.0 1177.33, 880.0 1178.0, 879.99 1178.67, 879.98 1179.33, 879.96 1180.0, 879.94 1180.67, 879.91 1181.33, 879.88 1182.0, 879.84 1182.67, 879.79 1183.33, 879.74 1184.0, 879.69 1184.67, 879.63 1185.33, 879.56 1186.0, 879.49 1186.67, 879.41 1187.33, 879.33 1188.0, 879.24 1188.67, 879.14 1189.33, 879.04 1190.0, 878.94 1190.67, 878.83 1191.33, 878.71 1192.0, 878.59 1192.67, 878.46 1193.33, 878.33 1194.0, 878.19 1194.67, 878.05 1195.33, 877.9 1196.0, 877.74 1196.67, 877.58 1197.33, 877.42 1198.0, 877.25 1198.67, 877.07 1199.33, 876.89 1200.0, 876.7 1200.67, 876.51 1201.33, 876.31 1202.0, 876.11 1202.67, 875.9 1203.33, 875.69 1204.0, 875.47 1204.67, 875.25 1205.33, 875.02 1206.0, 874.78 1206.67, 874.54 1207.33, 874.3 1208.0, 874.05 1208.67, 873.79 1209.33, 873.53 1210.0, 873.27 1210.67, 873.0 1211.33, 872.72 1212.0, 872.44 1212.67, 872.16 1213.33, 871.87 1214.0, 871.57 1214.67, 871.27 1215.33, 870.96 1216.0, 870.65 1216.67, 870.34 1217.33, 870.02 1218.0, 869.69 1218.67, 869.36 1219.33, 869.03 1220.0, 868.69 1220.67, 868.34 1221.33, 867.99 1222.0, 867.64 1222.67, 867.28 1223.33, 866.92 1224.0, 866.55 1224.67, 866.18 1225.33, 865.8 1226.0, 865.42 1226.67, 865.03 1227.33, 864.64 1228.0, 864.24 1228.67, 863.84 1229.33, 863.44 1230.0, 863.03 1230.67, 862.61 1231.33, 862.2 1232.0, 861.77 1232.67, 861.35 1233.33, 860.92 1234.0, 860.48 1234.67, 860.04 1235.33, 859.6 1236.0, 859.15 1236.67, 858.7 1237.33, 858.24 1238.0, 857.78 1238.67, 857.32 1239.33, 856.85 1240.0, 856.38 1240.67, 855.9 1241.33, 855.42 1242.0, 854.94 1242.67, 854.45 1243.33, 853.96 1244.0, 853.46 1244.67, 852.96 1245.33, 852.46 1246.0, 851.95 1246.67, 851.44 1247.33, 850.93 1248.0, 850.41 1248.67, 849.89 1249.33, 849.36 1250.0, 848.83 1250.67, 848.3 1251.33, 847.77 1252.0, 847.23 1252.67, 846.68 1253.33, 846.14 1254.0, 845.59 1254.67, 845.04 1255.33, 844.48 1256.0, 843.92 1256.67, 843.36 1257.33, 842.8 1258.0, 842.23 1258.67, 841.66 1259.33, 841.09 1260.0, 840.51 1260.67, 839.93 1261.33, 839.35 1262.0, 838.76 1262.67, 838.17 1263.33, 837.58 1264.0, 836.99 1264.67, 836.39 1265.33, 835.79 1266.0, 835.19 1266.67, 834.58 1267.33, 833.98 1268.0, 833.37 1268.67, 832.76 1269.33, 832.14 1270.0, 831.52 1270.67, 830.91 1271.33, 830.28 1272.0, 829.66 1272.67, 829.03 1273.33, 828.41 1274.0, 827.77 1274.67, 827.14 1275.33, 826.51 1276.0, 825.87 1276.67, 825.23 1277.33, 824.59 1278.0, 823.95 1278.67, 823.3 1279.33, 822.66 1280.0, 822.01 1280.67, 821.36 1281.33, 820.71 1282.0, 820.05 1282.67, 819.4 1283.33, 818.74 1284.0, 818.08 1284.67, 817.42 1285.33, 816.76 1286.0, 816.1 1286.67, 815.44 1287.33, 814.77 1288.0, 814.1 1288.67, 813.44 1289.33, 812.77 1290.0, 812.1 1290.67, 811.42 1291.33, 810.75 1292.0, 810.08 1292.67, 809.4 1293.33, 808.72 1294.0, 808.05 1294.67, 807.37 1295.33, 806.69 1296.0, 806.01 1296.67, 805.33 1297.33, 804.65 1298.0, 803.97 1298.67, 803.28 1299.33, 802.6 1300.0, 801.91 1300.67, 801.23 1301.33, 800.54 1302.0, 799.86 1302.67, 799.17 1303.33, 798.48 1304.0, 797.79 1304.67, 797.11 1305.33, 796.42 1306.0, 795.73 1306.67, 795.04 1307.33, 794.35 1308.0, 793.66 1308.67, 792.97 1309.33, 792.28 1310.0, 791.59 1310.67, 790.9 1311.33, 790.21 1312.0, 789.52 1312.67, 788.83 1313.33, 788.14 1314.0, 787.45 1314.67, 786.76 1315.33, 786.07 1316.0, 785.38 1316.67, 784.69 1317.33, 784.0 1318.0, 783.31 1318.67, 782.62 1319.33, 781.93 1320.0, 781.24 1320.67, 780.55 1321.33, 779.87 1322.0, 779.18 1322.67, 778.49 1323.33, 777.8 1324.0, 777.12 1324.67, 776.43 1325.33, 775.75 1326.0, 775.06 1326.67, 774.38 1327.33, 773.7 1328.0, 773.01 1328.67, 772.33 1329.33, 771.65 1330.0, 770.97 1330.67, 770.29 1331.33, 769.61 1332.0, 768.93 1332.67, 768.25 1333.33, 767.57 1334.0, 766.9 1334.67, 766.22 1335.33, 765.55 1336.0, 764.87 1336.67, 764.2 1337.33, 763.53 1338.0, 762.86 1338.67, 762.19 1339.33, 761.52 1340.0, 760.85 1340.67, 760.18 1341.33, 759.51 1342.0, 758.85 1342.67, 758.18 1343.33, 757.52 1344.0, 756.85 1344.67, 756.19 1345.33, 755.53 1346.0, 754.87 1346.67, 754.21 1347.33, 753.55 1348.0, 752.89 1348.67, 752.24 1349.33, 751.58 1350.0, 750.93 1350.67, 750.27 1351.33, 749.62 1352.0, 748.97 1352.67, 748.32 1353.33, 747.67 1354.0, 747.02 1354.67, 746.37 1355.33, 745.72 1356.0, 745.07 1356.67, 744.43 1357.33, 743.78 1358.0, 743.14 1358.67, 742.49 1359.33, 741.85 1360.0, 741.21 1360.67, 740.57 1361.33, 739.93 1362.0, 739.29 1362.67, 738.65 1363.33, 738.01 1364.0, 737.37 1364.67, 736.73 1365.33, 736.1 1366.0, 735.46 1366.67, 734.82 1367.33, 734.19 1368.0, 733.55 1368.67, 732.92 1369.33, 732.28 1370.0, 731.65 1370.67, 731.01 1371.33, 730.38 1372.0, 729.74 1372.67, 729.11 1373.33, 728.47 1374.0, 727.84 1374.67, 727.2 1375.33, 726.57 1376.0, 725.94 1376.67, 725.3 1377.33, 724.66 1378.0, 724.03 1378.67, 723.39 1379.33, 722.75 1380.0, 722.12 1380.67, 721.48 1381.33, 720.84 1382.0, 720.2 1382.67, 719.56 1383.33, 718.92 1384.0, 718.27 1384.67, 717.63 1385.33, 716.98 1386.0, 716.34 1386.67, 715.69 1387.33, 715.04 1388.0, 714.39 1388.67, 713.73 1389.33, 713.08 1390.0, 712.42 1390.67, 711.76 1391.33, 711.1 1392.0, 710.43 1392.67, 709.77 1393.33, 709.1 1394.0, 708.43 1394.67, 707.75 1395.33, 707.07 1396.0, 706.39 1396.67, 705.71 1397.33, 705.02 1398.0, 704.33 1398.67, 703.64 1399.33, 702.94 1400.0, 702.24 1400.67, 701.53 1401.33, 700.82 1402.0, 700.11 1402.67, 699.39 1403.33, 698.66 1404.0, 697.93 1404.67, 697.2 1405.33, 696.46 1406.0, 695.71 1406.67, 694.96 1407.33, 694.21 1408.0, 693.44 1408.67, 692.68 1409.33, 691.9 1410.0, 691.12 1410.67, 690.33 1411.33, 689.53 1412.0, 688.73 1412.67, 687.92 1413.33, 687.1 1414.0, 686.28 1414.67, 685.44 1415.33, 684.6 1416.0, 683.75 1416.67, 682.89 1417.33, 682.02 1418.0, 681.14 1418.67, 680.25 1419.33, 679.35 1420.0, 678.44 1420.67, 677.52 1421.33, 676.59 1422.0, 675.65 1422.67, 674.7 1423.33, 673.73 1424.0, 672.75 1424.67, 671.76 1425.33, 670.76 1426.0, 669.75 1426.67, 668.72 1427.33, 667.68 1428.0, 666.62 1428.67, 665.55 1429.33, 664.47 1430.0, 663.37 1430.67, 662.25 1431.33, 661.12 1432.0, 659.97 1432.67, 658.81 1433.33, 657.63 1434.0, 656.43 1434.67, 655.21 1435.33, 653.98 1436.0, 652.72 1436.67, 651.45 1437.33, 650.16 1438.0, 648.85 1438.67, 647.52 1439.33, 646.17 1440.0, 644.79 1440.67, 643.4 1441.33, 641.98 1442.0, 640.54 1442.67, 639.07 1443.33, 637.58 1444.0, 636.07 1444.67, 634.54 1445.33, 632.97 1446.0, 631.39 1446.67, 629.77 1447.33, 628.13 1448.0, 626.46 1448.67, 624.76 1449.33, 623.04 1450.0, 621.28 1450.67, 619.5 1451.33, 617.68 1452.0, 615.83 1452.67, 613.95 1453.33, 612.04 1454.0, 610.1 1454.67, 608.12 1455.33, 606.11 1456.0, 604.06 1456.67, 601.97 1457.33, 599.85 1458.0, 597.7 1458.67, 595.5 1459.33, 593.26 1460.0, 590.99 1460.67, 588.67 1461.33, 586.32 1462.0, 583.92 1462.67, 581.48 1463.33, 578.99 1464.0, 576.47 1464.67, 573.89 1465.33, 571.27 1466.0, 568.6 1466.67, 565.89 1467.33, 563.12 1468.0, 560.31 1468.67, 557.44 1469.33, 554.53 1470.0, 551.56 1470.67, 548.54 1471.33, 545.46 1472.0, 542.33 1472.67, 539.14 1473.33, 535.89 1474.0, 532.58 1474.67, 529.22 1475.33, 525.79 1476.0, 522.3 1476.67, 518.75 1477.33, 515.13 1478.0, 511.45 1478.67, 507.7 1479.33, 503.89 1480.0, 500.0 1480.67, 496.05 1481.33, 492.02 1482.0, 487.92 1482.67, 483.75 1483.33, 479.5 1484.0, 475.17 1484.67, 470.77 1485.33, 466.28 1486.0, 461.72 1486.67, 457.07 1487.33, 452.34 1488.0, 447.53 1488.67, 442.62 1489.33, 437.63 1490.0, 432.55 1490.67, 427.38 1491.33, 422.12 1492.0, 416.76 1492.67, 411.31 1493.33, 405.75 1494.0, 400.1 1494.67, 394.35 1495.33, 388.49 1496.0, 382.54 1496.67, 376.47 1497.33, 370.3 1498.0, 364.01 1498.67, 357.62 1499.33, 351.11 1500.0, 344.48 1500.67, 337.74 1501.33, 330.88 1502.0, 323.9 1502.67, 316.79 1503.33, 309.56 1504.0, 302.2 1504.67, 294.71 1505.33, 287.09 1506.0, 279.34 1506.67, 271.45 1507.33, 263.42 1508.0, 255.25 1508.67, 246.94 1509.33, 238.49 1510.0, 229.88 1510.67, 221.13 1511.33, 212.22 1512.0, 203.16 1512.67, 193.94 1513.33, 184.56 1514.0, 175.02 1514.67, 165.31 1515.33, 155.44 1516.0, 145.39 1516.67, 135.17 1517.33, 124.78 1518.0, 114.21 1518.67, 103.45 1519.33, 92.51 1520.0, 81.39 1520.67, 70.07 1521.33, 58.56 1522.0, 46.85 1522.67, 34.94 1523.33, 22.84 1524.0, 10.52 1524.67, -2.01 1525.33, -14.74 1526.0, -27.7 1526.67, -40.87 1527.33, -54.26 1528.0, -67.88 1528.67, -81.73 1529.33, -95.82 1530.0, -110.14 1530.67, -124.7 1531.33, -139.51 1532.0, -154.56 1532.67, -169.86 1533.33, -185.43 1534.0, -201.25 1534.67, -217.33 1535.33, -233.68 1536.0, -250.31 1536.67, -267.21 1537.33, -284.39 1538.0, -301.85 1538.67, -319.61 1539.33, -337.66 1540.0, -356.0 1540.67, -374.65 1541.33, -393.6 1542.0, -412.87 1542.67, -432.45 1543.33, -452.35 1544.0, -472.58 1544.67, -493.14 1545.33, -514.04 1546.0, -535.28 1546.67, -556.86 1547.33, -578.79 1548.0, -601.08 1548.67, -623.74 1549.33, -646.76 1550.0, -670.15 1550.67, -693.92 1551.33, -718.08 1552.0, -742.62 1552.67, -767.56 1553.33, -792.9 1554.0, -818.65 1554.67, -844.81 1555.33, -871.4 1556.0, -898.4 1556.67, -925.84 1557.33, -953.72 1558.0, -982.04 1558.67, -1010.82 1559.33, -1040.05 1560.0, -1069.75 1560.67, -1099.92 1561.33, -1130.57 1562.0, -1161.7 1562.67, -1193.32 1563.33, -1225.45 1564.0, -1258.08 1564.67, -1291.23 1565.33, -1324.9 1566.0, -1359.1 1566.67, -1393.84 1567.33, -1429.12 1568.0, -1464.95 1568.67, -1501.35 1569.33, -1538.31 1570.0, -1575.86 1570.67, -1613.99 1571.33, -1652.71 1572.0, -1692.03 1572.67, -1731.97 1573.33, -1772.53 1574.0, -1813.72 1574.67, -1855.54 1575.33, -1898.01 1576.0, -1941.14 1576.67, -1984.94 1577.33, -2029.41 1578.0, -2074.57 1578.67, -2120.42 1579.33, -2166.98 1580.0, -2214.25 1580.67, -2262.24 1581.33, -2310.98 1582.0, -2360.45 1582.67, -2410.69 1583.33, -2461.69 1584.0, -2513.47 1584.67, -2566.04 1585.33, -2619.41 1586.0, -2673.59 1586.67, -2728.59 1587.33, -2784.43 1588.0, -2841.12 1588.67, -2898.66 1589.33, -2957.08 1590.0, -3016.37 1590.67, -3076.56 1591.33, -3137.66 1592.0, -3199.68 1592.67, -3262.63 1593.33, -3326.53 1594.0, -3391.39 1594.67, -3457.22 1595.33, -3524.03 1596.0, -3591.85 1596.67, -3660.68 1597.33, -3730.53 1598.0, -3801.43 1598.67, -3873.39 1599.33, -3946.42 1600.0, -4020.53 " fill="none" stroke="white" stroke-width="1.5" stroke-linejoin="round" stroke-opacity="1"/>

 </svg>