<svg version="1.1" 
 baseProfile="full" 
 width="1600" 
 height="1600" 
 xmlns="http://www.w3.org/2000/svg">
<rect x="0.0" y="0.0" width="1600" height="1600" fill="black" stroke="black" stroke-width="0" opacity="1"/>
<line x1="0.0" y1="0.0" x2="0.0" y2="1600.0" stroke="white" stroke-width="1" opacity="0.4" stroke-linecap="butt"/>
<line x1="160.0" y1="0.0" x2="160.0" y2="1600.0" stroke="white" stroke-width="1" opacity="0.4" stroke-linecap="butt"/>
<line x1="320.0" y1="0.0" x2="320.0" y2="1600.0" stroke="white" stroke-width="1" opacity="0.4" stroke-linecap="butt"/>
<line x1="480.0" y1="0.0" x2="480.0" y2="1600.0" stroke="white" stroke-width="1" opacity="0.4" stroke-linecap="butt"/>
<line x1="640.0" y1="0.0" x2="640.0" y2="1600.0" stroke="white" stroke-width="1" opacity="0.4" stroke-linecap="butt"/>
<line x1="800.0" y1="0.0" x2="800.0" y2="1600.0" stroke="white" stroke-width="1" opacity="0.4" stroke-linecap="butt"/>
<line x1="960.0" y1="0.0" x2="960.0" y2="1600.0" stroke="white" stroke-width="1" opacity="0.4" stroke-linecap="butt"/>
<line x1="1120.0" y1="0.0" x2="1120.0" y2="1600.0" stroke="white" stroke-width="1" opacity="0.4" stroke-linecap="butt"/>
<line x1="1280.0" y1="0.0" x2="1280.0" y2="1600.0" stroke="white" stroke-width="1" opacity="0.4" stroke-linecap="butt"/>
<line x1="1440.0" y1="0.0" x2="1440.0" y2="1600.0" stroke="white" stroke-width="1" opacity="0.4" stroke-linecap="butt"/>
<line x1="0.0" y1="0.0" x2="1600.0" y2="0.0" stroke="white" stroke-width="1" opacity="0.4" stroke-linecap="butt"/>
<line x1="0.0" y1="160.0" x2="1600.0" y2="160.0" stroke="white" stroke-width="1" opacity="0.4" stroke-linecap="butt"/>
<line x1="0.0" y1="320.0" x2="1600.0" y2="320.0" stroke="white" stroke-width="1" opacity="0.4" stroke-linecap="butt"/>
<line x1="0.0" y1="480.0" x2="1600.0" y2="480.0" stroke="white" stroke-width="1" opacity="0.4" stroke-linecap="butt"/>
<line x1="0.0" y1="640.0" x2="1600.0" y2="640.0" stroke="white" stroke-width="1" opacity="0.4" stroke-linecap="butt"/>
<line x1="0.0" y1="800.0" x2="1600.0" y2="800.0" stroke="white" stroke-width="1" opacity="0.4" stroke-linecap="butt"/>
<line x1="0.0" y1="960.0" x2="1600.0" y2="960.0" stroke="white" stroke-width="1" opacity="0.4" stroke-linecap="butt"/>
<line x1="0.0" y1="1120.0" x2="1600.0" y2="1120.0" stroke="white" stroke-width="1" opacity="0.4" stroke-linecap="butt"/>
<line x1="0.0" y1="1280.0" x2="1600.0" y2="1280.0" stroke="white" stroke-width="1" opacity="0.4" stroke-linecap="butt"/>
<line x1="0.0" y1="1440.0" x2="1600.0" y2="1440.0" stroke="white" stroke-width="1" opacity="0.4" stroke-linecap="butt"/>
<line x1="0.0" y1="800.0" x2="1600.0" y2="800.0" stroke="yellow" stroke-width="2.5" opacity="1" stroke-linecap="butt"/>
<line x1="800.0" y1="0.0" x2="800.0" y2="1600.0" stroke="yellow" stroke-width="2.5" opacity="1" stroke-linecap="butt"/>
<polygon points="1564.0 816.0, 1604.0 800.0, 1564.0 784.0, 1572.0 800.0" fill="yellow"/><polygon points="816.0 36.0, 800.0 -4.0, 784.0 36.0, 800.0 28.0" fill="yellow"/><polyline points="0.0, 6031.56 0.67, 5950.99 1.33, 5871.6 2.0, 5793.37 2.67, 5716.3 3.33, 5640.36 4.0, 5565.54 4.67, 5491.82 5.33, 5419.19 6.0, 5347.64 6.67, 5277.14 7.33, 5207.69 8.0, 5139.26 8.67, 5071.85 9.33, 5005.45 10.0, 4940.03 10.67, 4875.58 11.33, 4812.09 12.0, 4749.55 12.67, 4687.95 13.33, 4627.26 14.0, 4567.49 14.67, 4508.61 15.33, 4450.61 16.0, 4393.48 16.67, 4337.21 17.33, 4281.79 18.0, 4227.2 18.67, 4173.43 19.33, 4120.48 20.0, 4068.32 20.67, 4016.96 21.33, 3966.37 22.0, 3916.55 22.67, 3867.48 23.33, 3819.16 24.0, 3771.57 24.67, 3724.71 25.33, 3678.56 26.0, 3633.12 26.67, 3588.37 27.33, 3544.31 28.0, 3500.91 28.67, 3458.19 29.33, 3416.12 30.0, 3374.69 30.67, 3333.9 31.33, 3293.74 32.0, 3254.2 32.67, 3215.27 33.33, 3176.94 34.0, 3139.2 34.67, 3102.04 35.33, 3065.47 36.0, 3029.45 36.67, 2994.0 37.33, 2959.1 38.0, 2924.74 38.67, 2890.92 39.33, 2857.63 40.0, 2824.85 40.67, 2792.59 41.33, 2760.83 42.0, 2729.57 42.67, 2698.81 43.33, 2668.52 44.0, 2638.71 44.67, 2609.37 45.33, 2580.49 46.0, 2552.07 46.67, 2524.1 47.33, 2496.57 48.0, 2469.47 48.67, 2442.81 49.33, 2416.57 50.0, 2390.74 50.67, 2365.33 51.33, 2340.32 52.0, 2315.71 52.67, 2291.5 53.33, 2267.67 54.0, 2244.22 54.67, 2221.15 55.33, 2198.45 56.0, 2176.11 56.67, 2154.13 57.33, 2132.51 58.0, 2111.23 58.67, 2090.3 59.33, 2069.71 60.0, 2049.45 60.67, 2029.52 61.33, 2009.91 62.0, 1990.62 62.67, 1971.64 63.33, 1952.97 64.0, 1934.61 64.67, 1916.55 65.33, 1898.78 66.0, 1881.3 66.67, 1864.11 67.33, 1847.2 68.0, 1830.57 68.67, 1814.21 69.33, 1798.12 70.0, 1782.3 70.67, 1766.74 71.33, 1751.43 72.0, 1736.38 72.67, 1721.58 73.33, 1707.02 74.0, 1692.7 74.67, 1678.62 75.33, 1664.78 76.0, 1651.17 76.67, 1637.78 77.33, 1624.62 78.0, 1611.68 78.67, 1598.95 79.33, 1586.44 80.0, 1574.14 80.67, 1562.04 81.33, 1550.15 82.0, 1538.46 82.67, 1526.97 83.33, 1515.66 84.0, 1504.56 84.67, 1493.63 85.33, 1482.9 86.0, 1472.34 86.67, 1461.97 87.33, 1451.77 88.0, 1441.75 88.67, 1431.89 89.33, 1422.21 90.0, 1412.69 90.67, 1403.33 91.33, 1394.13 92.0, 1385.09 92.67, 1376.21 93.33, 1367.48 94.0, 1358.89 94.67, 1350.46 95.33, 1342.17 96.0, 1334.03 96.67, 1326.02 97.33, 1318.15 98.0, 1310.42 98.67, 1302.83 99.33, 1295.36 100.0, 1288.03 100.67, 1280.82 101.33, 1273.74 102.0, 1266.78 102.67, 1259.94 103.33, 1253.22 104.0, 1246.62 104.67, 1240.14 105.33, 1233.76 106.0, 1227.5 106.67, 1221.35 107.33, 1215.31 108.0, 1209.37 108.67, 1203.54 109.33, 1197.81 110.0, 1192.18 110.67, 1186.65 111.33, 1181.22 112.0, 1175.88 112.67, 1170.64 113.33, 1165.49 114.0, 1160.43 114.67, 1155.46 115.33, 1150.58 116.0, 1145.78 116.67, 1141.07 117.33, 1136.44 118.0, 1131.9 118.67, 1127.43 119.33, 1123.05 120.0, 1118.74 120.67, 1114.51 121.33, 1110.35 122.0, 1106.27 122.67, 1102.26 123.33, 1098.32 124.0, 1094.45 124.67, 1090.65 125.33, 1086.92 126.0, 1083.25 126.67, 1079.65 127.33, 1076.12 128.0, 1072.64 128.67, 1069.23 129.33, 1065.88 130.0, 1062.59 130.67, 1059.35 131.33, 1056.17 132.0, 1053.05 132.67, 1049.99 133.33, 1046.98 134.0, 1044.02 134.67, 1041.11 135.33, 1038.26 136.0, 1035.46 136.67, 1032.7 137.33, 1030.0 138.0, 1027.34 138.67, 1024.73 139.33, 1022.16 140.0, 1019.64 140.67, 1017.16 141.33, 1014.73 142.0, 1012.34 142.67, 1009.99 143.33, 1007.68 144.0, 1005.41 144.67, 1003.18 145.33, 1000.99 146.0, 998.84 146.67, 996.72 147.33, 994.64 148.0, 992.6 148.67, 990.59 149.33, 988.61 150.0, 986.67 150.67, 984.76 151.33, 982.89 152.0, 981.04 152.67, 979.23 153.33, 977.44 154.0, 975.69 154.67, 973.96 155.33, 972.26 156.0, 970.6 156.67, 968.95 157.33, 967.34 158.0, 965.75 158.67, 964.18 159.33, 962.65 160.0, 961.13 160.67, 959.64 161.33, 958.18 162.0, 956.73 162.67, 955.31 163.33, 953.91 164.0, 952.53 164.67, 951.18 165.33, 949.84 166.0, 948.52 166.67, 947.23 167.33, 945.95 168.0, 944.69 168.67, 943.45 169.33, 942.23 170.0, 941.03 170.67, 939.84 171.33, 938.67 172.0, 937.51 172.67, 936.37 173.33, 935.25 174.0, 934.14 174.67, 933.05 175.33, 931.97 176.0, 930.91 176.67, 929.86 177.33, 928.82 178.0, 927.8 178.67, 926.79 179.33, 925.79 180.0, 924.8 180.67, 923.83 181.33, 922.86 182.0, 921.91 182.67, 920.97 183.33, 920.04 184.0, 919.12 184.67, 918.21 185.33, 917.31 186.0, 916.42 186.67, 915.54 187.33, 914.66 188.0, 913.8 188.67, 912.95 189.33, 912.1 190.0, 911.26 190.67, 910.43 191.33, 909.61 192.0, 908.79 192.67, 907.98 193.33, 907.18 194.0, 906.39 194.67, 905.6 195.33, 904.82 196.0, 904.04 196.67, 903.27 197.33, 902.51 198.0, 901.75 198.67, 900.99 199.33, 900.24 200.0, 899.5 200.67, 898.76 201.33, 898.03 202.0, 897.3 202.67, 896.57 203.33, 895.85 204.0, 895.14 204.67, 894.42 205.33, 893.72 206.0, 893.01 206.67, 892.31 207.33, 891.61 208.0, 890.91 208.67, 890.22 209.33, 889.53 210.0, 888.84 210.67, 888.16 211.33, 887.48 212.0, 886.8 212.67, 886.12 213.33, 885.45 214.0, 884.77 214.67, 884.1 215.33, 883.43 216.0, 882.77 216.67, 882.1 217.33, 881.44 218.0, 880.77 218.67, 880.11 219.33, 879.45 220.0, 878.8 220.67, 878.14 221.33, 877.48 222.0, 876.83 222.67, 876.17 223.33, 875.52 224.0, 874.87 224.67, 874.21 225.33, 873.56 226.0, 872.91 226.67, 872.26 227.33, 871.61 228.0, 870.96 228.67, 870.31 229.33, 869.66 230.0, 869.01 230.67, 868.36 231.33, 867.71 232.0, 867.06 232.67, 866.41 233.33, 865.76 234.0, 865.12 234.67, 864.47 235.33, 863.82 236.0, 863.17 236.67, 862.52 237.33, 861.87 238.0, 861.21 238.67, 860.56 239.33, 859.91 240.0, 859.26 240.67, 858.61 241.33, 857.95 242.0, 857.3 242.67, 856.65 243.33, 855.99 244.0, 855.33 244.67, 854.68 245.33, 854.02 246.0, 853.36 246.67, 852.71 247.33, 852.05 248.0, 851.39 248.67, 850.73 249.33, 850.07 250.0, 849.41 250.67, 848.74 251.33, 848.08 252.0, 847.42 252.67, 846.75 253.33, 846.09 254.0, 845.42 254.67, 844.75 255.33, 844.08 256.0, 843.42 256.67, 842.75 257.33, 842.08 258.0, 841.4 258.67, 840.73 259.33, 840.06 260.0, 839.39 260.67, 838.71 261.33, 838.04 262.0, 837.36 262.67, 836.68 263.33, 836.01 264.0, 835.33 264.67, 834.65 265.33, 833.97 266.0, 833.29 266.67, 832.61 267.33, 831.93 268.0, 831.25 268.67, 830.56 269.33, 829.88 270.0, 829.2 270.67, 828.51 271.33, 827.83 272.0, 827.14 272.67, 826.45 273.33, 825.77 274.0, 825.08 274.67, 824.39 275.33, 823.7 276.0, 823.01 276.67, 822.33 277.33, 821.64 278.0, 820.95 278.67, 820.26 279.33, 819.56 280.0, 818.87 280.67, 818.18 281.33, 817.49 282.0, 816.8 282.67, 816.11 283.33, 815.41 284.0, 814.72 284.67, 814.03 285.33, 813.34 286.0, 812.64 286.67, 811.95 287.33, 811.26 288.0, 810.57 288.67, 809.87 289.33, 809.18 290.0, 808.49 290.67, 807.8 291.33, 807.11 292.0, 806.41 292.67, 805.72 293.33, 805.03 294.0, 804.34 294.67, 803.65 295.33, 802.96 296.0, 802.27 296.67, 801.58 297.33, 800.89 298.0, 800.2 298.67, 799.51 299.33, 798.83 300.0, 798.14 300.67, 797.46 301.33, 796.77 302.0, 796.09 302.67, 795.4 303.33, 794.72 304.0, 794.04 304.67, 793.36 305.33, 792.68 306.0, 792.0 306.67, 791.32 307.33, 790.64 308.0, 789.96 308.67, 789.29 309.33, 788.61 310.0, 787.94 310.67, 787.27 311.33, 786.6 312.0, 785.93 312.67, 785.26 313.33, 784.6 314.0, 783.93 314.67, 783.27 315.33, 782.61 316.0, 781.94 316.67, 781.29 317.33, 780.63 318.0, 779.97 318.67, 779.32 319.33, 778.67 320.0, 778.02 320.67, 777.37 321.33, 776.72 322.0, 776.07 322.67, 775.43 323.33, 774.79 324.0, 774.15 324.67, 773.51 325.33, 772.88 326.0, 772.24 326.67, 771.61 327.33, 770.99 328.0, 770.36 328.67, 769.73 329.33, 769.11 330.0, 768.49 330.67, 767.88 331.33, 767.26 332.0, 766.65 332.67, 766.04 333.33, 765.43 334.0, 764.83 334.67, 764.22 335.33, 763.62 336.0, 763.03 336.67, 762.43 337.33, 761.84 338.0, 761.25 338.67, 760.67 339.33, 760.08 340.0, 759.5 340.67, 758.93 341.33, 758.35 342.0, 757.78 342.67, 757.21 343.33, 756.65 344.0, 756.09 344.67, 755.53 345.33, 754.97 346.0, 754.42 346.67, 753.87 347.33, 753.32 348.0, 752.78 348.67, 752.24 349.33, 751.71 350.0, 751.17 350.67, 750.65 351.33, 750.12 352.0, 749.6 352.67, 749.08 353.33, 748.57 354.0, 748.06 354.67, 747.55 355.33, 747.05 356.0, 746.55 356.67, 746.05 357.33, 745.56 358.0, 745.07 358.67, 744.59 359.33, 744.1 360.0, 743.63 360.67, 743.16 361.33, 742.69 362.0, 742.22 362.67, 741.76 363.33, 741.31 364.0, 740.85 364.67, 740.41 365.33, 739.96 366.0, 739.52 366.67, 739.09 367.33, 738.66 368.0, 738.23 368.67, 737.81 369.33, 737.39 370.0, 736.98 370.67, 736.57 371.33, 736.16 372.0, 735.76 372.67, 735.36 373.33, 734.97 374.0, 734.59 374.67, 734.2 375.33, 733.83 376.0, 733.45 376.67, 733.09 377.33, 732.72 378.0, 732.36 378.67, 732.01 379.33, 731.66 380.0, 731.31 380.67, 730.98 381.33, 730.64 382.0, 730.31 382.67, 729.98 383.33, 729.66 384.0, 729.35 384.67, 729.04 385.33, 728.73 386.0, 728.43 386.67, 728.14 387.33, 727.85 388.0, 727.56 388.67, 727.28 389.33, 727.0 390.0, 726.73 390.67, 726.47 391.33, 726.21 392.0, 725.95 392.67, 725.7 393.33, 725.46 394.0, 725.22 394.67, 724.98 395.33, 724.75 396.0, 724.53 396.67, 724.31 397.33, 724.1 398.0, 723.89 398.67, 723.69 399.33, 723.49 400.0, 723.3 400.67, 723.11 401.33, 722.93 402.0, 722.75 402.67, 722.58 403.33, 722.42 404.0, 722.26 404.67, 722.1 405.33, 721.95 406.0, 721.81 406.67, 721.67 407.33, 721.54 408.0, 721.41 408.67, 721.29 409.33, 721.17 410.0, 721.06 410.67, 720.96 411.33, 720.86 412.0, 720.76 412.67, 720.67 413.33, 720.59 414.0, 720.51 414.67, 720.44 415.33, 720.37 416.0, 720.31 416.67, 720.26 417.33, 720.21 418.0, 720.16 418.67, 720.12 419.33, 720.09 420.0, 720.06 420.67, 720.04 421.33, 720.02 422.0, 720.01 422.67, 720.0 423.33, 720.0 424.0, 720.01 424.67, 720.02 425.33, 720.04 426.0, 720.06 426.67, 720.09 427.33, 720.12 428.0, 720.16 428.67, 720.2 429.33, 720.25 430.0, 720.31 430.67, 720.37 431.33, 720.44 432.0, 720.51 432.67, 720.58 433.33, 720.67 434.0, 720.76 434.67, 720.85 435.33, 720.95 436.0, 721.05 436.67, 721.16 437.33, 721.28 438.0, 721.4 438.67, 721.53 439.33, 721.66 440.0, 721.8 440.67, 721.94 441.33, 722.09 442.0, 722.25 442.67, 722.4 443.33, 722.57 444.0, 722.74 444.67, 722.92 445.33, 723.1 446.0, 723.28 446.67, 723.47 447.33, 723.67 448.0, 723.87 448.67, 724.08 449.33, 724.29 450.0, 724.51 450.67, 724.73 451.33, 724.96 452.0, 725.2 452.67, 725.44 453.33, 725.68 454.0, 725.93 454.67, 726.18 455.33, 726.44 456.0, 726.71 456.67, 726.98 457.33, 727.25 458.0, 727.53 458.67, 727.82 459.33, 728.11 460.0, 728.4 460.67, 728.7 461.33, 729.01 462.0, 729.32 462.67, 729.63 463.33, 729.95 464.0, 730.27 464.67, 730.6 465.33, 730.94 466.0, 731.28 466.67, 731.62 467.33, 731.97 468.0, 732.32 468.67, 732.68 469.33, 733.04 470.0, 733.41 470.67, 733.78 471.33, 734.16 472.0, 734.54 472.67, 734.92 473.33, 735.31 474.0, 735.71 474.67, 736.11 475.33, 736.51 476.0, 736.92 476.67, 737.33 477.33, 737.75 478.0, 738.17 478.67, 738.59 479.33, 739.02 480.0, 739.46 480.67, 739.89 481.33, 740.34 482.0, 740.78 482.67, 741.23 483.33, 741.69 484.0, 742.15 484.67, 742.61 485.33, 743.07 486.0, 743.54 486.67, 744.02 487.33, 744.5 488.0, 744.98 488.67, 745.46 489.33, 745.95 490.0, 746.45 490.67, 746.94 491.33, 747.45 492.0, 747.95 492.67, 748.46 493.33, 748.97 494.0, 749.48 494.67, 750.0 495.33, 750.53 496.0, 751.05 496.67, 751.58 497.33, 752.11 498.0, 752.65 498.67, 753.19 499.33, 753.73 500.0, 754.28 500.67, 754.82 501.33, 755.38 502.0, 755.93 502.67, 756.49 503.33, 757.05 504.0, 757.61 504.67, 758.18 505.33, 758.75 506.0, 759.32 506.67, 759.9 507.33, 760.48 508.0, 761.06 508.67, 761.64 509.33, 762.23 510.0, 762.82 510.67, 763.41 511.33, 764.0 512.0, 764.6 512.67, 765.2 513.33, 765.8 514.0, 766.4 514.67, 767.01 515.33, 767.62 516.0, 768.23 516.67, 768.84 517.33, 769.46 518.0, 770.07 518.67, 770.69 519.33, 771.31 520.0, 771.94 520.67, 772.56 521.33, 773.19 522.0, 773.82 522.67, 774.45 523.33, 775.08 524.0, 775.72 524.67, 776.35 525.33, 776.99 526.0, 777.63 526.67, 778.27 527.33, 778.91 528.0, 779.56 528.67, 780.2 529.33, 780.85 530.0, 781.5 530.67, 782.15 531.33, 782.8 532.0, 783.45 532.67, 784.1 533.33, 784.75 534.0, 785.41 534.67, 786.07 535.33, 786.72 536.0, 787.38 536.67, 788.04 537.33, 788.7 538.0, 789.36 538.67, 790.02 539.33, 790.68 540.0, 791.34 540.67, 792.01 541.33, 792.67 542.0, 793.34 542.67, 794.0 543.33, 794.66 544.0, 795.33 544.67, 796.0 545.33, 796.66 546.0, 797.33 546.67, 797.99 547.33, 798.66 548.0, 799.33 548.67, 799.99 549.33, 800.66 550.0, 801.33 550.67, 801.99 551.33, 802.66 552.0, 803.33 552.67, 803.99 553.33, 804.66 554.0, 805.32 554.67, 805.99 555.33, 806.65 556.0, 807.32 556.67, 807.98 557.33, 808.64 558.0, 809.31 558.67, 809.97 559.33, 810.63 560.0, 811.29 560.67, 811.95 561.33, 812.61 562.0, 813.27 562.67, 813.92 563.33, 814.58 564.0, 815.23 564.67, 815.89 565.33, 816.54 566.0, 817.19 566.67, 817.84 567.33, 818.49 568.0, 819.14 568.67, 819.79 569.33, 820.43 570.0, 821.08 570.67, 821.72 571.33, 822.36 572.0, 823.0 572.67, 823.64 573.33, 824.27 574.0, 824.91 574.67, 825.54 575.33, 826.17 576.0, 826.8 576.67, 827.43 577.33, 828.05 578.0, 828.67 578.67, 829.3 579.33, 829.92 580.0, 830.53 580.67, 831.15 581.33, 831.76 582.0, 832.37 582.67, 832.98 583.33, 833.59 584.0, 834.19 584.67, 834.79 585.33, 835.39 586.0, 835.99 586.67, 836.58 587.33, 837.17 588.0, 837.76 588.67, 838.35 589.33, 838.93 590.0, 839.51 590.67, 840.09 591.33, 840.67 592.0, 841.24 592.67, 841.81 593.33, 842.38 594.0, 842.94 594.67, 843.5 595.33, 844.06 596.0, 844.61 596.67, 845.17 597.33, 845.72 598.0, 846.26 598.67, 846.8 599.33, 847.34 600.0, 847.88 600.67, 848.41 601.33, 848.94 602.0, 849.46 602.67, 849.99 603.33, 850.51 604.0, 851.02 604.67, 851.53 605.33, 852.04 606.0, 852.55 606.67, 853.05 607.33, 853.54 608.0, 854.04 608.67, 854.53 609.33, 855.01 610.0, 855.49 610.67, 855.97 611.33, 856.45 612.0, 856.92 612.67, 857.38 613.33, 857.85 614.0, 858.31 614.67, 858.76 615.33, 859.21 616.0, 859.66 616.67, 860.1 617.33, 860.54 618.0, 860.97 618.67, 861.4 619.33, 861.82 620.0, 862.25 620.67, 862.66 621.33, 863.07 622.0, 863.48 622.67, 863.89 623.33, 864.29 624.0, 864.68 624.67, 865.07 625.33, 865.46 626.0, 865.84 626.67, 866.21 627.33, 866.58 628.0, 866.95 628.67, 867.31 629.33, 867.67 630.0, 868.03 630.67, 868.37 631.33, 868.72 632.0, 869.06 632.67, 869.39 633.33, 869.72 634.0, 870.04 634.67, 870.36 635.33, 870.68 636.0, 870.99 636.67, 871.29 637.33, 871.59 638.0, 871.89 638.67, 872.18 639.33, 872.46 640.0, 872.74 640.67, 873.02 641.33, 873.29 642.0, 873.55 642.67, 873.81 643.33, 874.07 644.0, 874.32 644.67, 874.56 645.33, 874.8 646.0, 875.03 646.67, 875.26 647.33, 875.49 648.0, 875.7 648.67, 875.92 649.33, 876.12 650.0, 876.33 650.67, 876.52 651.33, 876.72 652.0, 876.9 652.67, 877.08 653.33, 877.26 654.0, 877.43 654.67, 877.59 655.33, 877.75 656.0, 877.91 656.67, 878.06 657.33, 878.2 658.0, 878.34 658.67, 878.47 659.33, 878.6 660.0, 878.72 660.67, 878.83 661.33, 878.95 662.0, 879.05 662.67, 879.15 663.33, 879.24 664.0, 879.33 664.67, 879.42 665.33, 879.49 666.0, 879.57 666.67, 879.63 667.33, 879.69 668.0, 879.75 668.67, 879.8 669.33, 879.84 670.0, 879.88 670.67, 879.92 671.33, 879.94 672.0, 879.97 672.67, 879.98 673.33, 879.99 674.0, 880.0 674.67, 880.0 675.33, 879.99 676.0, 879.98 676.67, 879.97 677.33, 879.94 678.0, 879.92 678.67, 879.88 679.33, 879.84 680.0, 879.8 680.67, 879.75 681.33, 879.69 682.0, 879.63 682.67, 879.57 683.33, 879.49 684.0, 879.42 684.67, 879.33 685.33, 879.25 686.0, 879.15 686.67, 879.05 687.33, 878.95 688.0, 878.84 688.67, 878.72 689.33, 878.6 690.0, 878.47 690.67, 878.34 691.33, 878.2 692.0, 878.06 692.67, 877.91 693.33, 877.76 694.0, 877.6 694.67, 877.43 695.33, 877.26 696.0, 877.08 696.67, 876.9 697.33, 876.72 698.0, 876.53 698.67, 876.33 699.33, 876.13 700.0, 875.92 700.67, 875.71 701.33, 875.49 702.0, 875.26 702.67, 875.04 703.33, 874.8 704.0, 874.56 704.67, 874.32 705.33, 874.07 706.0, 873.82 706.67, 873.56 707.33, 873.29 708.0, 873.02 708.67, 872.75 709.33, 872.47 710.0, 872.18 710.67, 871.89 711.33, 871.6 712.0, 871.3 712.67, 870.99 713.33, 870.68 714.0, 870.37 714.67, 870.05 715.33, 869.72 716.0, 869.39 716.67, 869.06 717.33, 868.72 718.0, 868.38 718.67, 868.03 719.33, 867.68 720.0, 867.32 720.67, 866.96 721.33, 866.59 722.0, 866.22 722.67, 865.84 723.33, 865.46 724.0, 865.07 724.67, 864.68 725.33, 864.29 726.0, 863.89 726.67, 863.49 727.33, 863.08 728.0, 862.67 728.67, 862.25 729.33, 861.83 730.0, 861.4 730.67, 860.97 731.33, 860.54 732.0, 860.1 732.67, 859.66 733.33, 859.21 734.0, 858.76 734.67, 858.31 735.33, 857.85 736.0, 857.39 736.67, 856.92 737.33, 856.45 738.0, 855.98 738.67, 855.5 739.33, 855.02 740.0, 854.53 740.67, 854.04 741.33, 853.55 742.0, 853.05 742.67, 852.55 743.33, 852.05 744.0, 851.54 744.67, 851.03 745.33, 850.51 746.0, 849.99 746.67, 849.47 747.33, 848.94 748.0, 848.41 748.67, 847.88 749.33, 847.35 750.0, 846.81 750.67, 846.27 751.33, 845.72 752.0, 845.17 752.67, 844.62 753.33, 844.06 754.0, 843.51 754.67, 842.95 755.33, 842.38 756.0, 841.81 756.67, 841.25 757.33, 840.67 758.0, 840.1 758.67, 839.52 759.33, 838.94 760.0, 838.35 760.67, 837.77 761.33, 837.18 762.0, 836.59 762.67, 835.99 763.33, 835.4 764.0, 834.8 764.67, 834.2 765.33, 833.59 766.0, 832.99 766.67, 832.38 767.33, 831.77 768.0, 831.15 768.67, 830.54 769.33, 829.92 770.0, 829.3 770.67, 828.68 771.33, 828.06 772.0, 827.43 772.67, 826.8 773.33, 826.18 774.0, 825.54 774.67, 824.91 775.33, 824.28 776.0, 823.64 776.67, 823.0 777.33, 822.36 778.0, 821.72 778.67, 821.08 779.33, 820.44 780.0, 819.79 780.67, 819.15 781.33, 818.5 782.0, 817.85 782.67, 817.2 783.33, 816.55 784.0, 815.89 784.67, 815.24 785.33, 814.58 786.0, 813.93 786.67, 813.27 787.33, 812.61 788.0, 811.96 788.67, 811.3 789.33, 810.64 790.0, 809.97 790.67, 809.31 791.33, 808.65 792.0, 807.99 792.67, 807.32 793.33, 806.66 794.0, 805.99 794.67, 805.33 795.33, 804.66 796.0, 804.0 796.67, 803.33 797.33, 802.67 798.0, 802.0 798.67, 801.33 799.33, 800.67 800.0, 800.0 800.67, 799.33 801.33, 798.67 802.0, 798.0 802.67, 797.33 803.33, 796.67 804.0, 796.0 804.67, 795.34 805.33, 794.67 806.0, 794.01 806.67, 793.34 807.33, 792.68 808.0, 792.01 808.67, 791.35 809.33, 790.69 810.0, 790.03 810.67, 789.36 811.33, 788.7 812.0, 788.04 812.67, 787.39 813.33, 786.73 814.0, 786.07 814.67, 785.42 815.33, 784.76 816.0, 784.11 816.67, 783.45 817.33, 782.8 818.0, 782.15 818.67, 781.5 819.33, 780.85 820.0, 780.21 820.67, 779.56 821.33, 778.92 822.0, 778.28 822.67, 777.64 823.33, 777.0 824.0, 776.36 824.67, 775.72 825.33, 775.09 826.0, 774.46 826.67, 773.82 827.33, 773.2 828.0, 772.57 828.67, 771.94 829.33, 771.32 830.0, 770.7 830.67, 770.08 831.33, 769.46 832.0, 768.85 832.67, 768.23 833.33, 767.62 834.0, 767.01 834.67, 766.41 835.33, 765.8 836.0, 765.2 836.67, 764.6 837.33, 764.01 838.0, 763.41 838.67, 762.82 839.33, 762.23 840.0, 761.65 840.67, 761.06 841.33, 760.48 842.0, 759.9 842.67, 759.33 843.33, 758.75 844.0, 758.19 844.67, 757.62 845.33, 757.05 846.0, 756.49 846.67, 755.94 847.33, 755.38 848.0, 754.83 848.67, 754.28 849.33, 753.73 850.0, 753.19 850.67, 752.65 851.33, 752.12 852.0, 751.59 852.67, 751.06 853.33, 750.53 854.0, 750.01 854.67, 749.49 855.33, 748.97 856.0, 748.46 856.67, 747.95 857.33, 747.45 858.0, 746.95 858.67, 746.45 859.33, 745.96 860.0, 745.47 860.67, 744.98 861.33, 744.5 862.0, 744.02 862.67, 743.55 863.33, 743.08 864.0, 742.61 864.67, 742.15 865.33, 741.69 866.0, 741.24 866.67, 740.79 867.33, 740.34 868.0, 739.9 868.67, 739.46 869.33, 739.03 870.0, 738.6 870.67, 738.17 871.33, 737.75 872.0, 737.33 872.67, 736.92 873.33, 736.51 874.0, 736.11 874.67, 735.71 875.33, 735.32 876.0, 734.93 876.67, 734.54 877.33, 734.16 878.0, 733.78 878.67, 733.41 879.33, 733.04 880.0, 732.68 880.67, 732.32 881.33, 731.97 882.0, 731.62 882.67, 731.28 883.33, 730.94 884.0, 730.61 884.67, 730.28 885.33, 729.95 886.0, 729.63 886.67, 729.32 887.33, 729.01 888.0, 728.7 888.67, 728.4 889.33, 728.11 890.0, 727.82 890.67, 727.53 891.33, 727.25 892.0, 726.98 892.67, 726.71 893.33, 726.44 894.0, 726.18 894.67, 725.93 895.33, 725.68 896.0, 725.44 896.67, 725.2 897.33, 724.96 898.0, 724.74 898.67, 724.51 899.33, 724.29 900.0, 724.08 900.67, 723.87 901.33, 723.67 902.0, 723.47 902.67, 723.28 903.33, 723.1 904.0, 722.92 904.67, 722.74 905.33, 722.57 906.0, 722.4 906.67, 722.24 907.33, 722.09 908.0, 721.94 908.67, 721.8 909.33, 721.66 910.0, 721.53 910.67, 721.4 911.33, 721.28 912.0, 721.16 912.67, 721.05 913.33, 720.95 914.0, 720.85 914.67, 720.75 915.33, 720.67 916.0, 720.58 916.67, 720.51 917.33, 720.43 918.0, 720.37 918.67, 720.31 919.33, 720.25 920.0, 720.2 920.67, 720.16 921.33, 720.12 922.0, 720.08 922.67, 720.06 923.33, 720.03 924.0, 720.02 924.67, 720.01 925.33, 720.0 926.0, 720.0 926.67, 720.01 927.33, 720.02 928.0, 720.03 928.67, 720.06 929.33, 720.08 930.0, 720.12 930.67, 720.16 931.33, 720.2 932.0, 720.25 932.67, 720.31 933.33, 720.37 934.0, 720.43 934.67, 720.51 935.33, 720.58 936.0, 720.67 936.67, 720.76 937.33, 720.85 938.0, 720.95 938.67, 721.05 939.33, 721.17 940.0, 721.28 940.67, 721.4 941.33, 721.53 942.0, 721.66 942.67, 721.8 943.33, 721.94 944.0, 722.09 944.67, 722.25 945.33, 722.41 946.0, 722.57 946.67, 722.74 947.33, 722.92 948.0, 723.1 948.67, 723.28 949.33, 723.48 950.0, 723.67 950.67, 723.88 951.33, 724.08 952.0, 724.3 952.67, 724.51 953.33, 724.74 954.0, 724.97 954.67, 725.2 955.33, 725.44 956.0, 725.68 956.67, 725.93 957.33, 726.19 958.0, 726.45 958.67, 726.71 959.33, 726.98 960.0, 727.26 960.67, 727.54 961.33, 727.82 962.0, 728.11 962.67, 728.41 963.33, 728.71 964.0, 729.01 964.67, 729.32 965.33, 729.64 966.0, 729.96 966.67, 730.28 967.33, 730.61 968.0, 730.94 968.67, 731.28 969.33, 731.63 970.0, 731.97 970.67, 732.33 971.33, 732.69 972.0, 733.05 972.67, 733.42 973.33, 733.79 974.0, 734.16 974.67, 734.54 975.33, 734.93 976.0, 735.32 976.67, 735.71 977.33, 736.11 978.0, 736.52 978.67, 736.93 979.33, 737.34 980.0, 737.75 980.67, 738.18 981.33, 738.6 982.0, 739.03 982.67, 739.46 983.33, 739.9 984.0, 740.34 984.67, 740.79 985.33, 741.24 986.0, 741.69 986.67, 742.15 987.33, 742.62 988.0, 743.08 988.67, 743.55 989.33, 744.03 990.0, 744.51 990.67, 744.99 991.33, 745.47 992.0, 745.96 992.67, 746.46 993.33, 746.95 994.0, 747.45 994.67, 747.96 995.33, 748.47 996.0, 748.98 996.67, 749.49 997.33, 750.01 998.0, 750.54 998.67, 751.06 999.33, 751.59 1000.0, 752.12 1000.67, 752.66 1001.33, 753.2 1002.0, 753.74 1002.67, 754.28 1003.33, 754.83 1004.0, 755.39 1004.67, 755.94 1005.33, 756.5 1006.0, 757.06 1006.67, 757.62 1007.33, 758.19 1008.0, 758.76 1008.67, 759.33 1009.33, 759.91 1010.0, 760.49 1010.67, 761.07 1011.33, 761.65 1012.0, 762.24 1012.67, 762.83 1013.33, 763.42 1014.0, 764.01 1014.67, 764.61 1015.33, 765.21 1016.0, 765.81 1016.67, 766.41 1017.33, 767.02 1018.0, 767.63 1018.67, 768.24 1019.33, 768.85 1020.0, 769.47 1020.67, 770.08 1021.33, 770.7 1022.0, 771.33 1022.67, 771.95 1023.33, 772.57 1024.0, 773.2 1024.67, 773.83 1025.33, 774.46 1026.0, 775.09 1026.67, 775.73 1027.33, 776.36 1028.0, 777.0 1028.67, 777.64 1029.33, 778.28 1030.0, 778.92 1030.67, 779.57 1031.33, 780.21 1032.0, 780.86 1032.67, 781.51 1033.33, 782.16 1034.0, 782.81 1034.67, 783.46 1035.33, 784.11 1036.0, 784.77 1036.67, 785.42 1037.33, 786.08 1038.0, 786.73 1038.67, 787.39 1039.33, 788.05 1040.0, 788.71 1040.67, 789.37 1041.33, 790.03 1042.0, 790.69 1042.67, 791.36 1043.33, 792.02 1044.0, 792.68 1044.67, 793.35 1045.33, 794.01 1046.0, 794.68 1046.67, 795.34 1047.33, 796.01 1048.0, 796.67 1048.67, 797.34 1049.33, 798.01 1050.0, 798.67 1050.67, 799.34 1051.33, 800.01 1052.0, 800.67 1052.67, 801.34 1053.33, 802.01 1054.0, 802.67 1054.67, 803.34 1055.33, 804.0 1056.0, 804.67 1056.67, 805.34 1057.33, 806.0 1058.0, 806.66 1058.67, 807.33 1059.33, 807.99 1060.0, 808.66 1060.67, 809.32 1061.33, 809.98 1062.0, 810.64 1062.67, 811.3 1063.33, 811.96 1064.0, 812.62 1064.67, 813.28 1065.33, 813.93 1066.0, 814.59 1066.67, 815.25 1067.33, 815.9 1068.0, 816.55 1068.67, 817.2 1069.33, 817.85 1070.0, 818.5 1070.67, 819.15 1071.33, 819.8 1072.0, 820.44 1072.67, 821.09 1073.33, 821.73 1074.0, 822.37 1074.67, 823.01 1075.33, 823.65 1076.0, 824.28 1076.67, 824.92 1077.33, 825.55 1078.0, 826.18 1078.67, 826.81 1079.33, 827.44 1080.0, 828.06 1080.67, 828.69 1081.33, 829.31 1082.0, 829.93 1082.67, 830.54 1083.33, 831.16 1084.0, 831.77 1084.67, 832.38 1085.33, 832.99 1086.0, 833.6 1086.67, 834.2 1087.33, 834.8 1088.0, 835.4 1088.67, 836.0 1089.33, 836.59 1090.0, 837.18 1090.67, 837.77 1091.33, 838.36 1092.0, 838.94 1092.67, 839.52 1093.33, 840.1 1094.0, 840.68 1094.67, 841.25 1095.33, 841.82 1096.0, 842.39 1096.67, 842.95 1097.33, 843.51 1098.0, 844.07 1098.67, 844.62 1099.33, 845.18 1100.0, 845.72 1100.67, 846.27 1101.33, 846.81 1102.0, 847.35 1102.67, 847.89 1103.33, 848.42 1104.0, 848.95 1104.67, 849.47 1105.33, 850.0 1106.0, 850.52 1106.67, 851.03 1107.33, 851.54 1108.0, 852.05 1108.67, 852.55 1109.33, 853.06 1110.0, 853.55 1110.67, 854.05 1111.33, 854.54 1112.0, 855.02 1112.67, 855.5 1113.33, 855.98 1114.0, 856.46 1114.67, 856.93 1115.33, 857.39 1116.0, 857.85 1116.67, 858.31 1117.33, 858.77 1118.0, 859.22 1118.67, 859.66 1119.33, 860.11 1120.0, 860.54 1120.67, 860.98 1121.33, 861.41 1122.0, 861.83 1122.67, 862.25 1123.33, 862.67 1124.0, 863.08 1124.67, 863.49 1125.33, 863.89 1126.0, 864.29 1126.67, 864.69 1127.33, 865.08 1128.0, 865.46 1128.67, 865.84 1129.33, 866.22 1130.0, 866.59 1130.67, 866.96 1131.33, 867.32 1132.0, 867.68 1132.67, 868.03 1133.33, 868.38 1134.0, 868.72 1134.67, 869.06 1135.33, 869.4 1136.0, 869.73 1136.67, 870.05 1137.33, 870.37 1138.0, 870.68 1138.67, 870.99 1139.33, 871.3 1140.0, 871.6 1140.67, 871.89 1141.33, 872.18 1142.0, 872.47 1142.67, 872.75 1143.33, 873.02 1144.0, 873.29 1144.67, 873.56 1145.33, 873.82 1146.0, 874.07 1146.67, 874.32 1147.33, 874.56 1148.0, 874.8 1148.67, 875.04 1149.33, 875.27 1150.0, 875.49 1150.67, 875.71 1151.33, 875.92 1152.0, 876.13 1152.67, 876.33 1153.33, 876.53 1154.0, 876.72 1154.67, 876.9 1155.33, 877.08 1156.0, 877.26 1156.67, 877.43 1157.33, 877.6 1158.0, 877.75 1158.67, 877.91 1159.33, 878.06 1160.0, 878.2 1160.67, 878.34 1161.33, 878.47 1162.0, 878.6 1162.67, 878.72 1163.33, 878.84 1164.0, 878.95 1164.67, 879.05 1165.33, 879.15 1166.0, 879.24 1166.67, 879.33 1167.33, 879.42 1168.0, 879.49 1168.67, 879.56 1169.33, 879.63 1170.0, 879.69 1170.67, 879.75 1171.33, 879.8 1172.0, 879.84 1172.67, 879.88 1173.33, 879.91 1174.0, 879.94 1174.67, 879.96 1175.33, 879.98 1176.0, 879.99 1176.67, 880.0 1177.33, 880.0 1178.0, 879.99 1178.67, 879.98 1179.33, 879.96 1180.0, 879.94 1180.67, 879.91 1181.33, 879.88 1182.0, 879.84 1182.67, 879.79 1183.33, 879.74 1184.0, 879.69 1184.67, 879.63 1185.33, 879.56 1186.0, 879.49 1186.67, 879.41 1187.33, 879.33 1188.0, 879.24 1188.67, 879.14 1189.33, 879.04 1190.0, 878.94 1190.67, 878.83 1191.33, 878.71 1192.0, 878.59 1192.67, 878.46 1193.33, 878.33 1194.0, 878.19 1194.67, 878.05 1195.33, 877.9 1196.0, 877.74 1196.67, 877.58 1197.33, 877.42 1198.0, 877.25 1198.67, 877.07 1199.33, 876.89 1200.0, 876.7 1200.67, 876.51 1201.33, 876.31 1202.0, 876.11 1202.67, 875.9 1203.33, 875.69 1204.0, 875.47 1204.67, 875.25 1205.33, 875.02 1206.0, 874.78 1206.67, 874.54 1207.33, 874.3 1208.0, 874.05 1208.67, 873.79 1209.33, 873.53 1210.0, 873.27 1210.67, 873.0 1211.33, 872.72 1212.0, 872.44 1212.67, 872.15 1213.33, 871.86 1214.0, 871.57 1214.67, 871.27 1215.33, 870.96 1216.0, 870.65 1216.67, 870.34 1217.33, 870.02 1218.0, 869.69 1218.67, 869.36 1219.33, 869.02 1220.0, 868.69 1220.67, 868.34 1221.33, 867.99 1222.0, 867.64 1222.67, 867.28 1223.33, 866.91 1224.0, 866.55 1224.67, 866.17 1225.33, 865.8 1226.0, 865.41 1226.67, 865.03 1227.33, 864.64 1228.0, 864.24 1228.67, 863.84 1229.33, 863.43 1230.0, 863.02 1230.67, 862.61 1231.33, 862.19 1232.0, 861.77 1232.67, 861.34 1233.33, 860.91 1234.0, 860.48 1234.67, 860.04 1235.33, 859.59 1236.0, 859.15 1236.67, 858.69 1237.33, 858.24 1238.0, 857.78 1238.67, 857.31 1239.33, 856.84 1240.0, 856.37 1240.67, 855.9 1241.33, 855.41 1242.0, 854.93 1242.67, 854.44 1243.33, 853.95 1244.0, 853.45 1244.67, 852.95 1245.33, 852.45 1246.0, 851.94 1246.67, 851.43 1247.33, 850.92 1248.0, 850.4 1248.67, 849.88 1249.33, 849.35 1250.0, 848.83 1250.67, 848.29 1251.33, 847.76 1252.0, 847.22 1252.67, 846.68 1253.33, 846.13 1254.0, 845.58 1254.67, 845.03 1255.33, 844.47 1256.0, 843.91 1256.67, 843.35 1257.33, 842.79 1258.0, 842.22 1258.67, 841.65 1259.33, 841.07 1260.0, 840.5 1260.67, 839.92 1261.33, 839.33 1262.0, 838.75 1262.67, 838.16 1263.33, 837.57 1264.0, 836.97 1264.67, 836.38 1265.33, 835.78 1266.0, 835.17 1266.67, 834.57 1267.33, 833.96 1268.0, 833.35 1268.67, 832.74 1269.33, 832.12 1270.0, 831.51 1270.67, 830.89 1271.33, 830.27 1272.0, 829.64 1272.67, 829.01 1273.33, 828.39 1274.0, 827.76 1274.67, 827.12 1275.33, 826.49 1276.0, 825.85 1276.67, 825.21 1277.33, 824.57 1278.0, 823.93 1278.67, 823.28 1279.33, 822.63 1280.0, 821.98 1280.67, 821.33 1281.33, 820.68 1282.0, 820.03 1282.67, 819.37 1283.33, 818.71 1284.0, 818.06 1284.67, 817.39 1285.33, 816.73 1286.0, 816.07 1286.67, 815.4 1287.33, 814.74 1288.0, 814.07 1288.67, 813.4 1289.33, 812.73 1290.0, 812.06 1290.67, 811.39 1291.33, 810.71 1292.0, 810.04 1292.67, 809.36 1293.33, 808.68 1294.0, 808.0 1294.67, 807.32 1295.33, 806.64 1296.0, 805.96 1296.67, 805.28 1297.33, 804.6 1298.0, 803.91 1298.67, 803.23 1299.33, 802.54 1300.0, 801.86 1300.67, 801.17 1301.33, 800.49 1302.0, 799.8 1302.67, 799.11 1303.33, 798.42 1304.0, 797.73 1304.67, 797.04 1305.33, 796.35 1306.0, 795.66 1306.67, 794.97 1307.33, 794.28 1308.0, 793.59 1308.67, 792.89 1309.33, 792.2 1310.0, 791.51 1310.67, 790.82 1311.33, 790.13 1312.0, 789.43 1312.67, 788.74 1313.33, 788.05 1314.0, 787.36 1314.67, 786.66 1315.33, 785.97 1316.0, 785.28 1316.67, 784.59 1317.33, 783.89 1318.0, 783.2 1318.67, 782.51 1319.33, 781.82 1320.0, 781.13 1320.67, 780.44 1321.33, 779.74 1322.0, 779.05 1322.67, 778.36 1323.33, 777.67 1324.0, 776.99 1324.67, 776.3 1325.33, 775.61 1326.0, 774.92 1326.67, 774.23 1327.33, 773.55 1328.0, 772.86 1328.67, 772.17 1329.33, 771.49 1330.0, 770.8 1330.67, 770.12 1331.33, 769.44 1332.0, 768.75 1332.67, 768.07 1333.33, 767.39 1334.0, 766.71 1334.67, 766.03 1335.33, 765.35 1336.0, 764.67 1336.67, 763.99 1337.33, 763.32 1338.0, 762.64 1338.67, 761.96 1339.33, 761.29 1340.0, 760.61 1340.67, 759.94 1341.33, 759.27 1342.0, 758.6 1342.67, 757.92 1343.33, 757.25 1344.0, 756.58 1344.67, 755.92 1345.33, 755.25 1346.0, 754.58 1346.67, 753.91 1347.33, 753.25 1348.0, 752.58 1348.67, 751.92 1349.33, 751.26 1350.0, 750.59 1350.67, 749.93 1351.33, 749.27 1352.0, 748.61 1352.67, 747.95 1353.33, 747.29 1354.0, 746.64 1354.67, 745.98 1355.33, 745.32 1356.0, 744.67 1356.67, 744.01 1357.33, 743.35 1358.0, 742.7 1358.67, 742.05 1359.33, 741.39 1360.0, 740.74 1360.67, 740.09 1361.33, 739.44 1362.0, 738.79 1362.67, 738.13 1363.33, 737.48 1364.0, 736.83 1364.67, 736.18 1365.33, 735.53 1366.0, 734.88 1366.67, 734.24 1367.33, 733.59 1368.0, 732.94 1368.67, 732.29 1369.33, 731.64 1370.0, 730.99 1370.67, 730.34 1371.33, 729.69 1372.0, 729.04 1372.67, 728.39 1373.33, 727.74 1374.0, 727.09 1374.67, 726.44 1375.33, 725.79 1376.0, 725.13 1376.67, 724.48 1377.33, 723.83 1378.0, 723.17 1378.67, 722.52 1379.33, 721.86 1380.0, 721.2 1380.67, 720.55 1381.33, 719.89 1382.0, 719.23 1382.67, 718.56 1383.33, 717.9 1384.0, 717.23 1384.67, 716.57 1385.33, 715.9 1386.0, 715.23 1386.67, 714.55 1387.33, 713.88 1388.0, 713.2 1388.67, 712.52 1389.33, 711.84 1390.0, 711.16 1390.67, 710.47 1391.33, 709.78 1392.0, 709.09 1392.67, 708.39 1393.33, 707.69 1394.0, 706.99 1394.67, 706.28 1395.33, 705.58 1396.0, 704.86 1396.67, 704.15 1397.33, 703.43 1398.0, 702.7 1398.67, 701.97 1399.33, 701.24 1400.0, 700.5 1400.67, 699.76 1401.33, 699.01 1402.0, 698.25 1402.67, 697.49 1403.33, 696.73 1404.0, 695.96 1404.67, 695.18 1405.33, 694.4 1406.0, 693.61 1406.67, 692.82 1407.33, 692.02 1408.0, 691.21 1408.67, 690.39 1409.33, 689.57 1410.0, 688.74 1410.67, 687.9 1411.33, 687.05 1412.0, 686.2 1412.67, 685.34 1413.33, 684.46 1414.0, 683.58 1414.67, 682.69 1415.33, 681.79 1416.0, 680.88 1416.67, 679.96 1417.33, 679.03 1418.0, 678.09 1418.67, 677.14 1419.33, 676.17 1420.0, 675.2 1420.67, 674.21 1421.33, 673.21 1422.0, 672.2 1422.67, 671.18 1423.33, 670.14 1424.0, 669.09 1424.67, 668.03 1425.33, 666.95 1426.0, 665.86 1426.67, 664.75 1427.33, 663.63 1428.0, 662.49 1428.67, 661.33 1429.33, 660.16 1430.0, 658.97 1430.67, 657.77 1431.33, 656.55 1432.0, 655.31 1432.67, 654.05 1433.33, 652.77 1434.0, 651.48 1434.67, 650.16 1435.33, 648.82 1436.0, 647.47 1436.67, 646.09 1437.33, 644.69 1438.0, 643.27 1438.67, 641.82 1439.33, 640.36 1440.0, 638.87 1440.67, 637.35 1441.33, 635.82 1442.0, 634.25 1442.67, 632.66 1443.33, 631.05 1444.0, 629.4 1444.67, 627.74 1445.33, 626.04 1446.0, 624.31 1446.67, 622.56 1447.33, 620.77 1448.0, 618.96 1448.67, 617.11 1449.33, 615.24 1450.0, 613.33 1450.67, 611.39 1451.33, 609.41 1452.0, 607.4 1452.67, 605.36 1453.33, 603.28 1454.0, 601.16 1454.67, 599.01 1455.33, 596.82 1456.0, 594.59 1456.67, 592.32 1457.33, 590.01 1458.0, 587.66 1458.67, 585.27 1459.33, 582.84 1460.0, 580.36 1460.67, 577.84 1461.33, 575.27 1462.0, 572.66 1462.67, 570.0 1463.33, 567.3 1464.0, 564.54 1464.67, 561.74 1465.33, 558.89 1466.0, 555.98 1466.67, 553.02 1467.33, 550.01 1468.0, 546.95 1468.67, 543.83 1469.33, 540.65 1470.0, 537.41 1470.67, 534.12 1471.33, 530.77 1472.0, 527.36 1472.67, 523.88 1473.33, 520.35 1474.0, 516.75 1474.67, 513.08 1475.33, 509.35 1476.0, 505.55 1476.67, 501.68 1477.33, 497.74 1478.0, 493.73 1478.67, 489.65 1479.33, 485.49 1480.0, 481.26 1480.67, 476.95 1481.33, 472.57 1482.0, 468.1 1482.67, 463.56 1483.33, 458.93 1484.0, 454.22 1484.67, 449.42 1485.33, 444.54 1486.0, 439.57 1486.67, 434.51 1487.33, 429.36 1488.0, 424.12 1488.67, 418.78 1489.33, 413.35 1490.0, 407.82 1490.67, 402.19 1491.33, 396.46 1492.0, 390.63 1492.67, 384.69 1493.33, 378.65 1494.0, 372.5 1494.67, 366.24 1495.33, 359.86 1496.0, 353.38 1496.67, 346.78 1497.33, 340.06 1498.0, 333.22 1498.67, 326.26 1499.33, 319.18 1500.0, 311.97 1500.67, 304.64 1501.33, 297.17 1502.0, 289.58 1502.67, 281.85 1503.33, 273.98 1504.0, 265.97 1504.67, 257.83 1505.33, 249.54 1506.0, 241.11 1506.67, 232.52 1507.33, 223.79 1508.0, 214.91 1508.67, 205.87 1509.33, 196.67 1510.0, 187.31 1510.67, 177.79 1511.33, 168.11 1512.0, 158.25 1512.67, 148.23 1513.33, 138.03 1514.0, 127.66 1514.67, 117.1 1515.33, 106.37 1516.0, 95.44 1516.67, 84.34 1517.33, 73.03 1518.0, 61.54 1518.67, 49.85 1519.33, 37.96 1520.0, 25.86 1520.67, 13.56 1521.33, 1.05 1522.0, -11.68 1522.67, -24.62 1523.33, -37.78 1524.0, -51.17 1524.67, -64.78 1525.33, -78.62 1526.0, -92.7 1526.67, -107.02 1527.33, -121.58 1528.0, -136.38 1528.67, -151.43 1529.33, -166.74 1530.0, -182.3 1530.67, -198.12 1531.33, -214.21 1532.0, -230.57 1532.67, -247.2 1533.33, -264.11 1534.0, -281.3 1534.67, -298.78 1535.33, -316.55 1536.0, -334.61 1536.67, -352.97 1537.33, -371.64 1538.0, -390.62 1538.67, -409.91 1539.33, -429.52 1540.0, -449.45 1540.67, -469.71 1541.33, -490.3 1542.0, -511.23 1542.67, -532.51 1543.33, -554.13 1544.0, -576.11 1544.67, -598.45 1545.33, -621.15 1546.0, -644.22 1546.67, -667.67 1547.33, -691.5 1548.0, -715.71 1548.67, -740.32 1549.33, -765.33 1550.0, -790.74 1550.67, -816.57 1551.33, -842.81 1552.0, -869.47 1552.67, -896.57 1553.33, -924.1 1554.0, -952.07 1554.67, -980.49 1555.33, -1009.37 1556.0, -1038.71 1556.67, -1068.52 1557.33, -1098.81 1558.0, -1129.57 1558.67, -1160.83 1559.33, -1192.59 1560.0, -1224.85 1560.67, -1257.63 1561.33, -1290.92 1562.0, -1324.74 1562.67, -1359.1 1563.33, -1394.0 1564.0, -1429.45 1564.67, -1465.47 1565.33, -1502.04 1566.0, -1539.2 1566.67, -1576.94 1567.33, -1615.27 1568.0, -1654.2 1568.67, -1693.74 1569.33, -1733.9 1570.0, -1774.69 1570.67, -1816.12 1571.33, -1858.19 1572.0, -1900.91 1572.67, -1944.31 1573.33, -1988.37 1574.0, -2033.12 1574.67, -2078.56 1575.33, -2124.71 1576.0, -2171.57 1576.67, -2219.16 1577.33, -2267.48 1578.0, -2316.55 1578.67, -2366.37 1579.33, -2416.96 1580.0, -2468.32 1580.67, -2520.48 1581.33, -2573.43 1582.0, -2627.2 1582.67, -2681.79 1583.33, -2737.21 1584.0, -2793.48 1584.67, -2850.61 1585.33, -2908.61 1586.0, -2967.49 1586.67, -3027.26 1587.33, -3087.95 1588.0, -3149.55 1588.67, -3212.09 1589.33, -3275.58 1590.0, -3340.03 1590.67, -3405.45 1591.33, -3471.85 1592.0, -3539.26 1592.67, -3607.69 1593.33, -3677.14 1594.0, -3747.64 1594.67, -3819.19 1595.33, -3891.82 1596.0, -3965.54 1596.67, -4040.36 1597.33, -4116.3 1598.0, -4193.37 1598.67, -4271.6 1599.33, -4350.99 1600.0, -4431.56 " fill="none" stroke="white" stroke-width="1.5" stroke-linejoin="round" stroke-opacity="1"/>

 </svg>