<svg version="1.1" 
 baseProfile="full" 
 width="1600" 
 height="1600" 
 xmlns="http://www.w3.org/2000/svg">
<rect x="0.0" y="0.0" width="1600" height="1600" fill="black" stroke="black" stroke-width="0" opacity="1"/>
<line x1="0.0" y1="0.0" x2="0.0" y2="1600.0" stroke="white" stroke-width="1" opacity="0.4" stroke-linecap="butt"/>
<line x1="160.0" y1="0.0" x2="160.0" y2="1600.0" stroke="white" stroke-width="1" opacity="0.4" stroke-linecap="butt"/>
<line x1="320.0" y1="0.0" x2="320.0" y2="1600.0" stroke="white" stroke-width="1" opacity="0.4" stroke-linecap="butt"/>
<line x1="480.0" y1="0.0" x2="480.0" y2="1600.0" stroke="white" stroke-width="1" opacity="0.4" stroke-linecap="butt"/>
<line x1="640.0" y1="0.0" x2="640.0" y2="1600.0" stroke="white" stroke-width="1" opacity="0.4" stroke-linecap="butt"/>
<line x1="800.0" y1="0.0" x2="800.0" y2="1600.0" stroke="white" stroke-width="1" opacity="0.4" stroke-linecap="butt"/>
<line x1="960.0" y1="0.0" x2="960.0" y2="1600.0" stroke="white" stroke-width="1" opacity="0.4" stroke-linecap="butt"/>
<line x1="1120.0" y1="0.0" x2="1120.0" y2="1600.0" stroke="white" stroke-width="1" opacity="0.4" stroke-linecap="butt"/>
<line x1="1280.0" y1="0.0" x2="1280.0" y2="1600.0" stroke="white" stroke-width="1" opacity="0.4" stroke-linecap="butt"/>
<line x1="1440.0" y1="0.0" x2="1440.0" y2="1600.0" stroke="white" stroke-width="1" opacity="0.4" stroke-linecap="butt"/>
<line x1="0.0" y1="0.0" x2="1600.0" y2="0.0" stroke="white" stroke-width="1" opacity="0.4" stroke-linecap="butt"/>
<line x1="0.0" y1="160.0" x2="1600.0" y2="160.0" stroke="white" stroke-width="1" opacity="0.4" stroke-linecap="butt"/>
<line x1="0.0" y1="320.0" x2="1600.0" y2="320.0" stroke="white" stroke-width="1" opacity="0.4" stroke-linecap="butt"/>
<line x1="0.0" y1="480.0" x2="1600.0" y2="480.0" stroke="white" stroke-width="1" opacity="0.4" stroke-linecap="butt"/>
<line x1="0.0" y1="640.0" x2="1600.0" y2="640.0" stroke="white" stroke-width="1" opacity="0.4" stroke-linecap="butt"/>
<line x1="0.0" y1="800.0" x2="1600.0" y2="800.0" stroke="white" stroke-width="1" opacity="0.4" stroke-linecap="butt"/>
<line x1="0.0" y1="960.0" x2="1600.0" y2="960.0" stroke="white" stroke-width="1" opacity="0.4" stroke-linecap="butt"/>
<line x1="0.0" y1="1120.0" x2="1600.0" y2="1120.0" stroke="white" stroke-width="1" opacity="0.4" stroke-linecap="butt"/>
<line x1="0.0" y1="1280.0" x2="1600.0" y2="1280.0" stroke="white" stroke-width="1" opacity="0.4" stroke-linecap="butt"/>
<line x1="0.0" y1="1440.0" x2="1600.0" y2="1440.0" stroke="white" stroke-width="1" opacity="0.4" stroke-linecap="butt"/>
<line x1="0.0" y1="800.0" x2="1600.0" y2="800.0" stroke="yellow" stroke-width="2.5" opacity="1" stroke-linecap="butt"/>
<line x1="800.0" y1="0.0" x2="800.0" y2="1600.0" stroke="yellow" stroke-width="2.5" opacity="1" stroke-linecap="butt"/>
<polygon points="1564.0 816.0, 1604.0 800.0, 1564.0 784.0, 1572.0 800.0" fill="yellow"/><polygon points="816.0 36.0, 800.0 -4.0, 784.0 36.0, 800.0 28.0" fill="yellow"/><polyline points="0.0, 4880.67 0.67, 4818.19 1.33, 4756.61 2.0, 4695.94 2.67, 4636.15 3.33, 4577.25 4.0, 4519.2 4.67, 4462.01 5.33, 4405.66 6.0, 4350.14 6.67, 4295.43 7.33, 4241.53 8.0, 4188.43 8.67, 4136.12 9.33, 4084.57 10.0, 4033.8 10.67, 3983.77 11.33, 3934.49 12.0, 3885.94 12.67, 3838.11 13.33, 3790.99 14.0, 3744.58 14.67, 3698.86 15.33, 3653.82 16.0, 3609.46 16.67, 3565.76 17.33, 3522.71 18.0, 3480.32 18.67, 3438.56 19.33, 3397.42 20.0, 3356.91 20.67, 3317.01 21.33, 3277.71 22.0, 3239.0 22.67, 3200.89 23.33, 3163.34 24.0, 3126.37 24.67, 3089.96 25.33, 3054.1 26.0, 3018.79 26.67, 2984.02 27.33, 2949.77 28.0, 2916.05 28.67, 2882.85 29.33, 2850.15 30.0, 2817.96 30.67, 2786.26 31.33, 2755.04 32.0, 2724.31 32.67, 2694.05 33.33, 2664.25 34.0, 2634.92 34.67, 2606.04 35.33, 2577.61 36.0, 2549.61 36.67, 2522.05 37.33, 2494.92 38.0, 2468.22 38.67, 2441.92 39.33, 2416.04 40.0, 2390.56 40.67, 2365.48 41.33, 2340.79 42.0, 2316.49 42.67, 2292.57 43.33, 2269.02 44.0, 2245.85 44.67, 2223.04 45.33, 2200.59 46.0, 2178.49 46.67, 2156.75 47.33, 2135.35 48.0, 2114.28 48.67, 2093.55 49.33, 2073.15 50.0, 2053.08 50.67, 2033.32 51.33, 2013.88 52.0, 1994.75 52.67, 1975.93 53.33, 1957.4 54.0, 1939.18 54.67, 1921.24 55.33, 1903.6 56.0, 1886.24 56.67, 1869.15 57.33, 1852.35 58.0, 1835.81 58.67, 1819.54 59.33, 1803.54 60.0, 1787.79 60.67, 1772.31 61.33, 1757.07 62.0, 1742.08 62.67, 1727.33 63.33, 1712.83 64.0, 1698.56 64.67, 1684.53 65.33, 1670.72 66.0, 1657.15 66.67, 1643.79 67.33, 1630.66 68.0, 1617.74 68.67, 1605.03 69.33, 1592.54 70.0, 1580.25 70.67, 1568.16 71.33, 1556.28 72.0, 1544.59 72.67, 1533.1 73.33, 1521.8 74.0, 1510.68 74.67, 1499.75 75.33, 1489.01 76.0, 1478.44 76.67, 1468.05 77.33, 1457.84 78.0, 1447.8 78.67, 1437.92 79.33, 1428.21 80.0, 1418.67 80.67, 1409.29 81.33, 1400.06 82.0, 1390.99 82.67, 1382.08 83.33, 1373.32 84.0, 1364.7 84.67, 1356.23 85.33, 1347.91 86.0, 1339.73 86.67, 1331.69 87.33, 1323.78 88.0, 1316.01 88.67, 1308.38 89.33, 1300.87 90.0, 1293.5 90.67, 1286.25 91.33, 1279.12 92.0, 1272.12 92.67, 1265.24 93.33, 1258.48 94.0, 1251.84 94.67, 1245.31 95.33, 1238.89 96.0, 1232.59 96.67, 1226.39 97.33, 1220.3 98.0, 1214.32 98.67, 1208.45 99.33, 1202.67 100.0, 1197.0 100.67, 1191.42 101.33, 1185.95 102.0, 1180.56 102.67, 1175.28 103.33, 1170.08 104.0, 1164.98 104.67, 1159.97 105.33, 1155.05 106.0, 1150.21 106.67, 1145.46 107.33, 1140.79 108.0, 1136.2 108.67, 1131.7 109.33, 1127.27 110.0, 1122.92 110.67, 1118.65 111.33, 1114.46 112.0, 1110.34 112.67, 1106.29 113.33, 1102.32 114.0, 1098.41 114.67, 1094.58 115.33, 1090.81 116.0, 1087.11 116.67, 1083.48 117.33, 1079.91 118.0, 1076.41 118.67, 1072.96 119.33, 1069.58 120.0, 1066.26 120.67, 1063.0 121.33, 1059.79 122.0, 1056.65 122.67, 1053.56 123.33, 1050.52 124.0, 1047.54 124.67, 1044.61 125.33, 1041.73 126.0, 1038.91 126.67, 1036.13 127.33, 1033.41 128.0, 1030.73 128.67, 1028.1 129.33, 1025.52 130.0, 1022.98 130.67, 1020.49 131.33, 1018.04 132.0, 1015.64 132.67, 1013.27 133.33, 1010.95 134.0, 1008.67 134.67, 1006.44 135.33, 1004.24 136.0, 1002.07 136.67, 999.95 137.33, 997.86 138.0, 995.82 138.67, 993.8 139.33, 991.82 140.0, 989.88 140.67, 987.97 141.33, 986.09 142.0, 984.24 142.67, 982.43 143.33, 980.65 144.0, 978.9 144.67, 977.17 145.33, 975.48 146.0, 973.82 146.67, 972.18 147.33, 970.57 148.0, 968.99 148.67, 967.44 149.33, 965.91 150.0, 964.4 150.67, 962.92 151.33, 961.47 152.0, 960.04 152.67, 958.63 153.33, 957.25 154.0, 955.88 154.67, 954.54 155.33, 953.22 156.0, 951.92 156.67, 950.65 157.33, 949.39 158.0, 948.15 158.67, 946.93 159.33, 945.73 160.0, 944.55 160.67, 943.38 161.33, 942.23 162.0, 941.1 162.67, 939.99 163.33, 938.89 164.0, 937.81 164.67, 936.74 165.33, 935.69 166.0, 934.66 166.67, 933.63 167.33, 932.63 168.0, 931.63 168.67, 930.65 169.33, 929.68 170.0, 928.73 170.67, 927.79 171.33, 926.86 172.0, 925.94 172.67, 925.03 173.33, 924.13 174.0, 923.25 174.67, 922.37 175.33, 921.51 176.0, 920.66 176.67, 919.81 177.33, 918.98 178.0, 918.15 178.67, 917.33 179.33, 916.53 180.0, 915.73 180.67, 914.94 181.33, 914.15 182.0, 913.38 182.67, 912.61 183.33, 911.85 184.0, 911.1 184.67, 910.35 185.33, 909.61 186.0, 908.88 186.67, 908.15 187.33, 907.43 188.0, 906.71 188.67, 906.0 189.33, 905.3 190.0, 904.6 190.67, 903.91 191.33, 903.22 192.0, 902.53 192.67, 901.85 193.33, 901.18 194.0, 900.51 194.67, 899.84 195.33, 899.18 196.0, 898.52 196.67, 897.86 197.33, 897.21 198.0, 896.56 198.67, 895.92 199.33, 895.27 200.0, 894.63 200.67, 894.0 201.33, 893.36 202.0, 892.73 202.67, 892.1 203.33, 891.48 204.0, 890.85 204.67, 890.23 205.33, 889.61 206.0, 888.99 206.67, 888.37 207.33, 887.76 208.0, 887.14 208.67, 886.53 209.33, 885.92 210.0, 885.31 210.67, 884.7 211.33, 884.09 212.0, 883.48 212.67, 882.88 213.33, 882.27 214.0, 881.67 214.67, 881.06 215.33, 880.46 216.0, 879.85 216.67, 879.25 217.33, 878.65 218.0, 878.05 218.67, 877.44 219.33, 876.84 220.0, 876.24 220.67, 875.64 221.33, 875.04 222.0, 874.43 222.67, 873.83 223.33, 873.23 224.0, 872.62 224.67, 872.02 225.33, 871.42 226.0, 870.81 226.67, 870.21 227.33, 869.6 228.0, 869.0 228.67, 868.39 229.33, 867.78 230.0, 867.17 230.67, 866.57 231.33, 865.96 232.0, 865.35 232.67, 864.73 233.33, 864.12 234.0, 863.51 234.67, 862.89 235.33, 862.28 236.0, 861.66 236.67, 861.05 237.33, 860.43 238.0, 859.81 238.67, 859.19 239.33, 858.57 240.0, 857.95 240.67, 857.32 241.33, 856.7 242.0, 856.07 242.67, 855.45 243.33, 854.82 244.0, 854.19 244.67, 853.56 245.33, 852.93 246.0, 852.3 246.67, 851.66 247.33, 851.03 248.0, 850.39 248.67, 849.75 249.33, 849.11 250.0, 848.47 250.67, 847.83 251.33, 847.19 252.0, 846.55 252.67, 845.9 253.33, 845.26 254.0, 844.61 254.67, 843.96 255.33, 843.31 256.0, 842.66 256.67, 842.01 257.33, 841.35 258.0, 840.7 258.67, 840.04 259.33, 839.39 260.0, 838.73 260.67, 838.07 261.33, 837.41 262.0, 836.75 262.67, 836.09 263.33, 835.42 264.0, 834.76 264.67, 834.09 265.33, 833.43 266.0, 832.76 266.67, 832.09 267.33, 831.42 268.0, 830.75 268.67, 830.08 269.33, 829.41 270.0, 828.74 270.67, 828.06 271.33, 827.39 272.0, 826.71 272.67, 826.04 273.33, 825.36 274.0, 824.68 274.67, 824.0 275.33, 823.32 276.0, 822.64 276.67, 821.96 277.33, 821.28 278.0, 820.6 278.67, 819.92 279.33, 819.24 280.0, 818.55 280.67, 817.87 281.33, 817.18 282.0, 816.5 282.67, 815.82 283.33, 815.13 284.0, 814.44 284.67, 813.76 285.33, 813.07 286.0, 812.39 286.67, 811.7 287.33, 811.01 288.0, 810.33 288.67, 809.64 289.33, 808.95 290.0, 808.27 290.67, 807.58 291.33, 806.89 292.0, 806.21 292.67, 805.52 293.33, 804.83 294.0, 804.15 294.67, 803.46 295.33, 802.78 296.0, 802.09 296.67, 801.41 297.33, 800.72 298.0, 800.04 298.67, 799.35 299.33, 798.67 300.0, 797.99 300.67, 797.31 301.33, 796.63 302.0, 795.94 302.67, 795.26 303.33, 794.58 304.0, 793.91 304.67, 793.23 305.33, 792.55 306.0, 791.87 306.67, 791.2 307.33, 790.52 308.0, 789.85 308.67, 789.18 309.33, 788.51 310.0, 787.84 310.67, 787.17 311.33, 786.5 312.0, 785.83 312.67, 785.17 313.33, 784.51 314.0, 783.84 314.67, 783.18 315.33, 782.52 316.0, 781.86 316.67, 781.21 317.33, 780.55 318.0, 779.9 318.67, 779.24 319.33, 778.59 320.0, 777.95 320.67, 777.3 321.33, 776.65 322.0, 776.01 322.67, 775.37 323.33, 774.73 324.0, 774.09 324.67, 773.45 325.33, 772.82 326.0, 772.19 326.67, 771.56 327.33, 770.93 328.0, 770.31 328.67, 769.68 329.33, 769.06 330.0, 768.45 330.67, 767.83 331.33, 767.22 332.0, 766.6 332.67, 766.0 333.33, 765.39 334.0, 764.79 334.67, 764.18 335.33, 763.59 336.0, 762.99 336.67, 762.4 337.33, 761.81 338.0, 761.22 338.67, 760.63 339.33, 760.05 340.0, 759.47 340.67, 758.9 341.33, 758.32 342.0, 757.75 342.67, 757.18 343.33, 756.62 344.0, 756.06 344.67, 755.5 345.33, 754.95 346.0, 754.39 346.67, 753.85 347.33, 753.3 348.0, 752.76 348.67, 752.22 349.33, 751.69 350.0, 751.15 350.67, 750.63 351.33, 750.1 352.0, 749.58 352.67, 749.06 353.33, 748.55 354.0, 748.04 354.67, 747.53 355.33, 747.03 356.0, 746.53 356.67, 746.03 357.33, 745.54 358.0, 745.05 358.67, 744.57 359.33, 744.09 360.0, 743.61 360.67, 743.14 361.33, 742.67 362.0, 742.21 362.67, 741.75 363.33, 741.29 364.0, 740.84 364.67, 740.4 365.33, 739.95 366.0, 739.51 366.67, 739.08 367.33, 738.65 368.0, 738.22 368.67, 737.8 369.33, 737.38 370.0, 736.97 370.67, 736.56 371.33, 736.15 372.0, 735.75 372.67, 735.36 373.33, 734.97 374.0, 734.58 374.67, 734.2 375.33, 733.82 376.0, 733.45 376.67, 733.08 377.33, 732.72 378.0, 732.36 378.67, 732.0 379.33, 731.65 380.0, 731.31 380.67, 730.97 381.33, 730.63 382.0, 730.3 382.67, 729.98 383.33, 729.66 384.0, 729.34 384.67, 729.03 385.33, 728.73 386.0, 728.43 386.67, 728.13 387.33, 727.84 388.0, 727.56 388.67, 727.27 389.33, 727.0 390.0, 726.73 390.67, 726.46 391.33, 726.2 392.0, 725.95 392.67, 725.7 393.33, 725.45 394.0, 725.21 394.67, 724.98 395.33, 724.75 396.0, 724.53 396.67, 724.31 397.33, 724.1 398.0, 723.89 398.67, 723.69 399.33, 723.49 400.0, 723.3 400.67, 723.11 401.33, 722.93 402.0, 722.75 402.67, 722.58 403.33, 722.42 404.0, 722.26 404.67, 722.1 405.33, 721.95 406.0, 721.81 406.67, 721.67 407.33, 721.54 408.0, 721.41 408.67, 721.29 409.33, 721.17 410.0, 721.06 410.67, 720.96 411.33, 720.86 412.0, 720.76 412.67, 720.67 413.33, 720.59 414.0, 720.51 414.67, 720.44 415.33, 720.37 416.0, 720.31 416.67, 720.26 417.33, 720.21 418.0, 720.16 418.67, 720.12 419.33, 720.09 420.0, 720.06 420.67, 720.04 421.33, 720.02 422.0, 720.01 422.67, 720.0 423.33, 720.0 424.0, 720.01 424.67, 720.02 425.33, 720.04 426.0, 720.06 426.67, 720.09 427.33, 720.12 428.0, 720.16 428.67, 720.2 429.33, 720.25 430.0, 720.31 430.67, 720.37 431.33, 720.43 432.0, 720.51 432.67, 720.58 433.33, 720.67 434.0, 720.76 434.67, 720.85 435.33, 720.95 436.0, 721.05 436.67, 721.16 437.33, 721.28 438.0, 721.4 438.67, 721.53 439.33, 721.66 440.0, 721.8 440.67, 721.94 441.33, 722.09 442.0, 722.24 442.67, 722.4 443.33, 722.57 444.0, 722.74 444.67, 722.91 445.33, 723.1 446.0, 723.28 446.67, 723.47 447.33, 723.67 448.0, 723.87 448.67, 724.08 449.33, 724.29 450.0, 724.51 450.67, 724.73 451.33, 724.96 452.0, 725.2 452.67, 725.44 453.33, 725.68 454.0, 725.93 454.67, 726.18 455.33, 726.44 456.0, 726.71 456.67, 726.98 457.33, 727.25 458.0, 727.53 458.67, 727.82 459.33, 728.11 460.0, 728.4 460.67, 728.7 461.33, 729.01 462.0, 729.32 462.67, 729.63 463.33, 729.95 464.0, 730.27 464.67, 730.6 465.33, 730.94 466.0, 731.28 466.67, 731.62 467.33, 731.97 468.0, 732.32 468.67, 732.68 469.33, 733.04 470.0, 733.41 470.67, 733.78 471.33, 734.16 472.0, 734.54 472.67, 734.92 473.33, 735.31 474.0, 735.71 474.67, 736.11 475.33, 736.51 476.0, 736.92 476.67, 737.33 477.33, 737.75 478.0, 738.17 478.67, 738.59 479.33, 739.02 480.0, 739.46 480.67, 739.89 481.33, 740.34 482.0, 740.78 482.67, 741.23 483.33, 741.69 484.0, 742.15 484.67, 742.61 485.33, 743.07 486.0, 743.54 486.67, 744.02 487.33, 744.5 488.0, 744.98 488.67, 745.46 489.33, 745.95 490.0, 746.45 490.67, 746.94 491.33, 747.45 492.0, 747.95 492.67, 748.46 493.33, 748.97 494.0, 749.48 494.67, 750.0 495.33, 750.53 496.0, 751.05 496.67, 751.58 497.33, 752.11 498.0, 752.65 498.67, 753.19 499.33, 753.73 500.0, 754.28 500.67, 754.82 501.33, 755.38 502.0, 755.93 502.67, 756.49 503.33, 757.05 504.0, 757.61 504.67, 758.18 505.33, 758.75 506.0, 759.32 506.67, 759.9 507.33, 760.48 508.0, 761.06 508.67, 761.64 509.33, 762.23 510.0, 762.82 510.67, 763.41 511.33, 764.0 512.0, 764.6 512.67, 765.2 513.33, 765.8 514.0, 766.4 514.67, 767.01 515.33, 767.62 516.0, 768.23 516.67, 768.84 517.33, 769.46 518.0, 770.07 518.67, 770.69 519.33, 771.31 520.0, 771.94 520.67, 772.56 521.33, 773.19 522.0, 773.82 522.67, 774.45 523.33, 775.08 524.0, 775.72 524.67, 776.35 525.33, 776.99 526.0, 777.63 526.67, 778.27 527.33, 778.91 528.0, 779.56 528.67, 780.2 529.33, 780.85 530.0, 781.5 530.67, 782.15 531.33, 782.8 532.0, 783.45 532.67, 784.1 533.33, 784.75 534.0, 785.41 534.67, 786.07 535.33, 786.72 536.0, 787.38 536.67, 788.04 537.33, 788.7 538.0, 789.36 538.67, 790.02 539.33, 790.68 540.0, 791.34 540.67, 792.01 541.33, 792.67 542.0, 793.34 542.67, 794.0 543.33, 794.66 544.0, 795.33 544.67, 796.0 545.33, 796.66 546.0, 797.33 546.67, 797.99 547.33, 798.66 548.0, 799.33 548.67, 799.99 549.33, 800.66 550.0, 801.33 550.67, 801.99 551.33, 802.66 552.0, 803.33 552.67, 803.99 553.33, 804.66 554.0, 805.32 554.67, 805.99 555.33, 806.65 556.0, 807.32 556.67, 807.98 557.33, 808.64 558.0, 809.31 558.67, 809.97 559.33, 810.63 560.0, 811.29 560.67, 811.95 561.33, 812.61 562.0, 813.27 562.67, 813.92 563.33, 814.58 564.0, 815.23 564.67, 815.89 565.33, 816.54 566.0, 817.19 566.67, 817.84 567.33, 818.49 568.0, 819.14 568.67, 819.79 569.33, 820.43 570.0, 821.08 570.67, 821.72 571.33, 822.36 572.0, 823.0 572.67, 823.64 573.33, 824.27 574.0, 824.91 574.67, 825.54 575.33, 826.17 576.0, 826.8 576.67, 827.43 577.33, 828.05 578.0, 828.67 578.67, 829.3 579.33, 829.92 580.0, 830.53 580.67, 831.15 581.33, 831.76 582.0, 832.37 582.67, 832.98 583.33, 833.59 584.0, 834.19 584.67, 834.79 585.33, 835.39 586.0, 835.99 586.67, 836.58 587.33, 837.17 588.0, 837.76 588.67, 838.35 589.33, 838.93 590.0, 839.51 590.67, 840.09 591.33, 840.67 592.0, 841.24 592.67, 841.81 593.33, 842.38 594.0, 842.94 594.67, 843.5 595.33, 844.06 596.0, 844.61 596.67, 845.17 597.33, 845.72 598.0, 846.26 598.67, 846.8 599.33, 847.34 600.0, 847.88 600.67, 848.41 601.33, 848.94 602.0, 849.46 602.67, 849.99 603.33, 850.51 604.0, 851.02 604.67, 851.53 605.33, 852.04 606.0, 852.55 606.67, 853.05 607.33, 853.54 608.0, 854.04 608.67, 854.53 609.33, 855.01 610.0, 855.49 610.67, 855.97 611.33, 856.45 612.0, 856.92 612.67, 857.38 613.33, 857.85 614.0, 858.31 614.67, 858.76 615.33, 859.21 616.0, 859.66 616.67, 860.1 617.33, 860.54 618.0, 860.97 618.67, 861.4 619.33, 861.82 620.0, 862.25 620.67, 862.66 621.33, 863.07 622.0, 863.48 622.67, 863.89 623.33, 864.29 624.0, 864.68 624.67, 865.07 625.33, 865.46 626.0, 865.84 626.67, 866.21 627.33, 866.58 628.0, 866.95 628.67, 867.31 629.33, 867.67 630.0, 868.03 630.67, 868.37 631.33, 868.72 632.0, 869.06 632.67, 869.39 633.33, 869.72 634.0, 870.04 634.67, 870.36 635.33, 870.68 636.0, 870.99 636.67, 871.29 637.33, 871.59 638.0, 871.89 638.67, 872.18 639.33, 872.46 640.0, 872.74 640.67, 873.02 641.33, 873.29 642.0, 873.55 642.67, 873.81 643.33, 874.07 644.0, 874.32 644.67, 874.56 645.33, 874.8 646.0, 875.03 646.67, 875.26 647.33, 875.49 648.0, 875.7 648.67, 875.92 649.33, 876.12 650.0, 876.33 650.67, 876.52 651.33, 876.72 652.0, 876.9 652.67, 877.08 653.33, 877.26 654.0, 877.43 654.67, 877.59 655.33, 877.75 656.0, 877.91 656.67, 878.06 657.33, 878.2 658.0, 878.34 658.67, 878.47 659.33, 878.6 660.0, 878.72 660.67, 878.83 661.33, 878.95 662.0, 879.05 662.67, 879.15 663.33, 879.24 664.0, 879.33 664.67, 879.42 665.33, 879.49 666.0, 879.57 666.67, 879.63 667.33, 879.69 668.0, 879.75 668.67, 879.8 669.33, 879.84 670.0, 879.88 670.67, 879.92 671.33, 879.94 672.0, 879.97 672.67, 879.98 673.33, 879.99 674.0, 880.0 674.67, 880.0 675.33, 879.99 676.0, 879.98 676.67, 879.97 677.33, 879.94 678.0, 879.92 678.67, 879.88 679.33, 879.84 680.0, 879.8 680.67, 879.75 681.33, 879.69 682.0, 879.63 682.67, 879.57 683.33, 879.49 684.0, 879.42 684.67, 879.33 685.33, 879.25 686.0, 879.15 686.67, 879.05 687.33, 878.95 688.0, 878.84 688.67, 878.72 689.33, 878.6 690.0, 878.47 690.67, 878.34 691.33, 878.2 692.0, 878.06 692.67, 877.91 693.33, 877.76 694.0, 877.6 694.67, 877.43 695.33, 877.26 696.0, 877.08 696.67, 876.9 697.33, 876.72 698.0, 876.53 698.67, 876.33 699.33, 876.13 700.0, 875.92 700.67, 875.71 701.33, 875.49 702.0, 875.26 702.67, 875.04 703.33, 874.8 704.0, 874.56 704.67, 874.32 705.33, 874.07 706.0, 873.82 706.67, 873.56 707.33, 873.29 708.0, 873.02 708.67, 872.75 709.33, 872.47 710.0, 872.18 710.67, 871.89 711.33, 871.6 712.0, 871.3 712.67, 870.99 713.33, 870.68 714.0, 870.37 714.67, 870.05 715.33, 869.72 716.0, 869.39 716.67, 869.06 717.33, 868.72 718.0, 868.38 718.67, 868.03 719.33, 867.68 720.0, 867.32 720.67, 866.96 721.33, 866.59 722.0, 866.22 722.67, 865.84 723.33, 865.46 724.0, 865.07 724.67, 864.68 725.33, 864.29 726.0, 863.89 726.67, 863.49 727.33, 863.08 728.0, 862.67 728.67, 862.25 729.33, 861.83 730.0, 861.4 730.67, 860.97 731.33, 860.54 732.0, 860.1 732.67, 859.66 733.33, 859.21 734.0, 858.76 734.67, 858.31 735.33, 857.85 736.0, 857.39 736.67, 856.92 737.33, 856.45 738.0, 855.98 738.67, 855.5 739.33, 855.02 740.0, 854.53 740.67, 854.04 741.33, 853.55 742.0, 853.05 742.67, 852.55 743.33, 852.05 744.0, 851.54 744.67, 851.03 745.33, 850.51 746.0, 849.99 746.67, 849.47 747.33, 848.94 748.0, 848.41 748.67, 847.88 749.33, 847.35 750.0, 846.81 750.67, 846.27 751.33, 845.72 752.0, 845.17 752.67, 844.62 753.33, 844.06 754.0, 843.51 754.67, 842.95 755.33, 842.38 756.0, 841.81 756.67, 841.25 757.33, 840.67 758.0, 840.1 758.67, 839.52 759.33, 838.94 760.0, 838.35 760.67, 837.77 761.33, 837.18 762.0, 836.59 762.67, 835.99 763.33, 835.4 764.0, 834.8 764.67, 834.2 765.33, 833.59 766.0, 832.99 766.67, 832.38 767.33, 831.77 768.0, 831.15 768.67, 830.54 769.33, 829.92 770.0, 829.3 770.67, 828.68 771.33, 828.06 772.0, 827.43 772.67, 826.8 773.33, 826.18 774.0, 825.54 774.67, 824.91 775.33, 824.28 776.0, 823.64 776.67, 823.0 777.33, 822.36 778.0, 821.72 778.67, 821.08 779.33, 820.44 780.0, 819.79 780.67, 819.15 781.33, 818.5 782.0, 817.85 782.67, 817.2 783.33, 816.55 784.0, 815.89 784.67, 815.24 785.33, 814.58 786.0, 813.93 786.67, 813.27 787.33, 812.61 788.0, 811.96 788.67, 811.3 789.33, 810.64 790.0, 809.97 790.67, 809.31 791.33, 808.65 792.0, 807.99 792.67, 807.32 793.33, 806.66 794.0, 805.99 794.67, 805.33 795.33, 804.66 796.0, 804.0 796.67, 803.33 797.33, 802.67 798.0, 802.0 798.67, 801.33 799.33, 800.67 800.0, 800.0 800.67, 799.33 801.33, 798.67 802.0, 798.0 802.67, 797.33 803.33, 796.67 804.0, 796.0 804.67, 795.34 805.33, 794.67 806.0, 794.01 806.67, 793.34 807.33, 792.68 808.0, 792.01 808.67, 791.35 809.33, 790.69 810.0, 790.03 810.67, 789.36 811.33, 788.7 812.0, 788.04 812.67, 787.39 813.33, 786.73 814.0, 786.07 814.67, 785.42 815.33, 784.76 816.0, 784.11 816.67, 783.45 817.33, 782.8 818.0, 782.15 818.67, 781.5 819.33, 780.85 820.0, 780.21 820.67, 779.56 821.33, 778.92 822.0, 778.28 822.67, 777.64 823.33, 777.0 824.0, 776.36 824.67, 775.72 825.33, 775.09 826.0, 774.46 826.67, 773.82 827.33, 773.2 828.0, 772.57 828.67, 771.94 829.33, 771.32 830.0, 770.7 830.67, 770.08 831.33, 769.46 832.0, 768.85 832.67, 768.23 833.33, 767.62 834.0, 767.01 834.67, 766.41 835.33, 765.8 836.0, 765.2 836.67, 764.6 837.33, 764.01 838.0, 763.41 838.67, 762.82 839.33, 762.23 840.0, 761.65 840.67, 761.06 841.33, 760.48 842.0, 759.9 842.67, 759.33 843.33, 758.75 844.0, 758.19 844.67, 757.62 845.33, 757.05 846.0, 756.49 846.67, 755.94 847.33, 755.38 848.0, 754.83 848.67, 754.28 849.33, 753.73 850.0, 753.19 850.67, 752.65 851.33, 752.12 852.0, 751.59 852.67, 751.06 853.33, 750.53 854.0, 750.01 854.67, 749.49 855.33, 748.97 856.0, 748.46 856.67, 747.95 857.33, 747.45 858.0, 746.95 858.67, 746.45 859.33, 745.96 860.0, 745.47 860.67, 744.98 861.33, 744.5 862.0, 744.02 862.67, 743.55 863.33, 743.08 864.0, 742.61 864.67, 742.15 865.33, 741.69 866.0, 741.24 866.67, 740.79 867.33, 740.34 868.0, 739.9 868.67, 739.46 869.33, 739.03 870.0, 738.6 870.67, 738.17 871.33, 737.75 872.0, 737.33 872.67, 736.92 873.33, 736.51 874.0, 736.11 874.67, 735.71 875.33, 735.32 876.0, 734.93 876.67, 734.54 877.33, 734.16 878.0, 733.78 878.67, 733.41 879.33, 733.04 880.0, 732.68 880.67, 732.32 881.33, 731.97 882.0, 731.62 882.67, 731.28 883.33, 730.94 884.0, 730.61 884.67, 730.28 885.33, 729.95 886.0, 729.63 886.67, 729.32 887.33, 729.01 888.0, 728.7 888.67, 728.4 889.33, 728.11 890.0, 727.82 890.67, 727.53 891.33, 727.25 892.0, 726.98 892.67, 726.71 893.33, 726.44 894.0, 726.18 894.67, 725.93 895.33, 725.68 896.0, 725.44 896.67, 725.2 897.33, 724.96 898.0, 724.74 898.67, 724.51 899.33, 724.29 900.0, 724.08 900.67, 723.87 901.33, 723.67 902.0, 723.47 902.67, 723.28 903.33, 723.1 904.0, 722.92 904.67, 722.74 905.33, 722.57 906.0, 722.4 906.67, 722.24 907.33, 722.09 908.0, 721.94 908.67, 721.8 909.33, 721.66 910.0, 721.53 910.67, 721.4 911.33, 721.28 912.0, 721.16 912.67, 721.05 913.33, 720.95 914.0, 720.85 914.67, 720.75 915.33, 720.67 916.0, 720.58 916.67, 720.51 917.33, 720.43 918.0, 720.37 918.67, 720.31 919.33, 720.25 920.0, 720.2 920.67, 720.16 921.33, 720.12 922.0, 720.08 922.67, 720.06 923.33, 720.03 924.0, 720.02 924.67, 720.01 925.33, 720.0 926.0, 720.0 926.67, 720.01 927.33, 720.02 928.0, 720.03 928.67, 720.06 929.33, 720.08 930.0, 720.12 930.67, 720.16 931.33, 720.2 932.0, 720.25 932.67, 720.31 933.33, 720.37 934.0, 720.43 934.67, 720.51 935.33, 720.58 936.0, 720.67 936.67, 720.76 937.33, 720.85 938.0, 720.95 938.67, 721.05 939.33, 721.17 940.0, 721.28 940.67, 721.4 941.33, 721.53 942.0, 721.66 942.67, 721.8 943.33, 721.94 944.0, 722.09 944.67, 722.25 945.33, 722.41 946.0, 722.57 946.67, 722.74 947.33, 722.92 948.0, 723.1 948.67, 723.28 949.33, 723.48 950.0, 723.67 950.67, 723.88 951.33, 724.08 952.0, 724.3 952.67, 724.51 953.33, 724.74 954.0, 724.97 954.67, 725.2 955.33, 725.44 956.0, 725.68 956.67, 725.93 957.33, 726.19 958.0, 726.45 958.67, 726.71 959.33, 726.98 960.0, 727.26 960.67, 727.54 961.33, 727.82 962.0, 728.11 962.67, 728.41 963.33, 728.71 964.0, 729.01 964.67, 729.32 965.33, 729.64 966.0, 729.96 966.67, 730.28 967.33, 730.61 968.0, 730.94 968.67, 731.28 969.33, 731.63 970.0, 731.97 970.67, 732.33 971.33, 732.69 972.0, 733.05 972.67, 733.42 973.33, 733.79 974.0, 734.16 974.67, 734.54 975.33, 734.93 976.0, 735.32 976.67, 735.71 977.33, 736.11 978.0, 736.52 978.67, 736.93 979.33, 737.34 980.0, 737.75 980.67, 738.18 981.33, 738.6 982.0, 739.03 982.67, 739.46 983.33, 739.9 984.0, 740.34 984.67, 740.79 985.33, 741.24 986.0, 741.69 986.67, 742.15 987.33, 742.62 988.0, 743.08 988.67, 743.55 989.33, 744.03 990.0, 744.51 990.67, 744.99 991.33, 745.47 992.0, 745.96 992.67, 746.46 993.33, 746.95 994.0, 747.45 994.67, 747.96 995.33, 748.47 996.0, 748.98 996.67, 749.49 997.33, 750.01 998.0, 750.54 998.67, 751.06 999.33, 751.59 1000.0, 752.12 1000.67, 752.66 1001.33, 753.2 1002.0, 753.74 1002.67, 754.28 1003.33, 754.83 1004.0, 755.39 1004.67, 755.94 1005.33, 756.5 1006.0, 757.06 1006.67, 757.62 1007.33, 758.19 1008.0, 758.76 1008.67, 759.33 1009.33, 759.91 1010.0, 760.49 1010.67, 761.07 1011.33, 761.65 1012.0, 762.24 1012.67, 762.83 1013.33, 763.42 1014.0, 764.01 1014.67, 764.61 1015.33, 765.21 1016.0, 765.81 1016.67, 766.41 1017.33, 767.02 1018.0, 767.63 1018.67, 768.24 1019.33, 768.85 1020.0, 769.47 1020.67, 770.08 1021.33, 770.7 1022.0, 771.33 1022.67, 771.95 1023.33, 772.57 1024.0, 773.2 1024.67, 773.83 1025.33, 774.46 1026.0, 775.09 1026.67, 775.73 1027.33, 776.36 1028.0, 777.0 1028.67, 777.64 1029.33, 778.28 1030.0, 778.92 1030.67, 779.57 1031.33, 780.21 1032.0, 780.86 1032.67, 781.51 1033.33, 782.16 1034.0, 782.81 1034.67, 783.46 1035.33, 784.11 1036.0, 784.77 1036.67, 785.42 1037.33, 786.08 1038.0, 786.73 1038.67, 787.39 1039.33, 788.05 1040.0, 788.71 1040.67, 789.37 1041.33, 790.03 1042.0, 790.69 1042.67, 791.36 1043.33, 792.02 1044.0, 792.68 1044.67, 793.35 1045.33, 794.01 1046.0, 794.68 1046.67, 795.34 1047.33, 796.01 1048.0, 796.67 1048.67, 797.34 1049.33, 798.01 1050.0, 798.67 1050.67, 799.34 1051.33, 800.01 1052.0, 800.67 1052.67, 801.34 1053.33, 802.01 1054.0, 802.67 1054.67, 803.34 1055.33, 804.0 1056.0, 804.67 1056.67, 805.34 1057.33, 806.0 1058.0, 806.66 1058.67, 807.33 1059.33, 807.99 1060.0, 808.66 1060.67, 809.32 1061.33, 809.98 1062.0, 810.64 1062.67, 811.3 1063.33, 811.96 1064.0, 812.62 1064.67, 813.28 1065.33, 813.93 1066.0, 814.59 1066.67, 815.25 1067.33, 815.9 1068.0, 816.55 1068.67, 817.2 1069.33, 817.85 1070.0, 818.5 1070.67, 819.15 1071.33, 819.8 1072.0, 820.44 1072.67, 821.09 1073.33, 821.73 1074.0, 822.37 1074.67, 823.01 1075.33, 823.65 1076.0, 824.28 1076.67, 824.92 1077.33, 825.55 1078.0, 826.18 1078.67, 826.81 1079.33, 827.44 1080.0, 828.06 1080.67, 828.69 1081.33, 829.31 1082.0, 829.93 1082.67, 830.54 1083.33, 831.16 1084.0, 831.77 1084.67, 832.38 1085.33, 832.99 1086.0, 833.6 1086.67, 834.2 1087.33, 834.8 1088.0, 835.4 1088.67, 836.0 1089.33, 836.59 1090.0, 837.18 1090.67, 837.77 1091.33, 838.36 1092.0, 838.94 1092.67, 839.52 1093.33, 840.1 1094.0, 840.68 1094.67, 841.25 1095.33, 841.82 1096.0, 842.39 1096.67, 842.95 1097.33, 843.51 1098.0, 844.07 1098.67, 844.62 1099.33, 845.18 1100.0, 845.72 1100.67, 846.27 1101.33, 846.81 1102.0, 847.35 1102.67, 847.89 1103.33, 848.42 1104.0, 848.95 1104.67, 849.47 1105.33, 850.0 1106.0, 850.52 1106.67, 851.03 1107.33, 851.54 1108.0, 852.05 1108.67, 852.55 1109.33, 853.06 1110.0, 853.55 1110.67, 854.05 1111.33, 854.54 1112.0, 855.02 1112.67, 855.5 1113.33, 855.98 1114.0, 856.46 1114.67, 856.93 1115.33, 857.39 1116.0, 857.85 1116.67, 858.31 1117.33, 858.77 1118.0, 859.22 1118.67, 859.66 1119.33, 860.11 1120.0, 860.54 1120.67, 860.98 1121.33, 861.41 1122.0, 861.83 1122.67, 862.25 1123.33, 862.67 1124.0, 863.08 1124.67, 863.49 1125.33, 863.89 1126.0, 864.29 1126.67, 864.69 1127.33, 865.08 1128.0, 865.46 1128.67, 865.84 1129.33, 866.22 1130.0, 866.59 1130.67, 866.96 1131.33, 867.32 1132.0, 867.68 1132.67, 868.03 1133.33, 868.38 1134.0, 868.72 1134.67, 869.06 1135.33, 869.4 1136.0, 869.73 1136.67, 870.05 1137.33, 870.37 1138.0, 870.68 1138.67, 870.99 1139.33, 871.3 1140.0, 871.6 1140.67, 871.89 1141.33, 872.18 1142.0, 872.47 1142.67, 872.75 1143.33, 873.02 1144.0, 873.29 1144.67, 873.56 1145.33, 873.82 1146.0, 874.07 1146.67, 874.32 1147.33, 874.56 1148.0, 874.8 1148.67, 875.04 1149.33, 875.27 1150.0, 875.49 1150.67, 875.71 1151.33, 875.92 1152.0, 876.13 1152.67, 876.33 1153.33, 876.53 1154.0, 876.72 1154.67, 876.9 1155.33, 877.09 1156.0, 877.26 1156.67, 877.43 1157.33, 877.6 1158.0, 877.76 1158.67, 877.91 1159.33, 878.06 1160.0, 878.2 1160.67, 878.34 1161.33, 878.47 1162.0, 878.6 1162.67, 878.72 1163.33, 878.84 1164.0, 878.95 1164.67, 879.05 1165.33, 879.15 1166.0, 879.24 1166.67, 879.33 1167.33, 879.42 1168.0, 879.49 1168.67, 879.57 1169.33, 879.63 1170.0, 879.69 1170.67, 879.75 1171.33, 879.8 1172.0, 879.84 1172.67, 879.88 1173.33, 879.91 1174.0, 879.94 1174.67, 879.96 1175.33, 879.98 1176.0, 879.99 1176.67, 880.0 1177.33, 880.0 1178.0, 879.99 1178.67, 879.98 1179.33, 879.96 1180.0, 879.94 1180.67, 879.91 1181.33, 879.88 1182.0, 879.84 1182.67, 879.79 1183.33, 879.74 1184.0, 879.69 1184.67, 879.63 1185.33, 879.56 1186.0, 879.49 1186.67, 879.41 1187.33, 879.33 1188.0, 879.24 1188.67, 879.14 1189.33, 879.04 1190.0, 878.94 1190.67, 878.83 1191.33, 878.71 1192.0, 878.59 1192.67, 878.46 1193.33, 878.33 1194.0, 878.19 1194.67, 878.05 1195.33, 877.9 1196.0, 877.74 1196.67, 877.58 1197.33, 877.42 1198.0, 877.25 1198.67, 877.07 1199.33, 876.89 1200.0, 876.7 1200.67, 876.51 1201.33, 876.31 1202.0, 876.11 1202.67, 875.9 1203.33, 875.69 1204.0, 875.47 1204.67, 875.25 1205.33, 875.02 1206.0, 874.79 1206.67, 874.55 1207.33, 874.3 1208.0, 874.05 1208.67, 873.8 1209.33, 873.54 1210.0, 873.27 1210.67, 873.0 1211.33, 872.73 1212.0, 872.44 1212.67, 872.16 1213.33, 871.87 1214.0, 871.57 1214.67, 871.27 1215.33, 870.97 1216.0, 870.66 1216.67, 870.34 1217.33, 870.02 1218.0, 869.7 1218.67, 869.37 1219.33, 869.03 1220.0, 868.69 1220.67, 868.35 1221.33, 868.0 1222.0, 867.64 1222.67, 867.28 1223.33, 866.92 1224.0, 866.55 1224.67, 866.18 1225.33, 865.8 1226.0, 865.42 1226.67, 865.03 1227.33, 864.64 1228.0, 864.25 1228.67, 863.85 1229.33, 863.44 1230.0, 863.03 1230.67, 862.62 1231.33, 862.2 1232.0, 861.78 1232.67, 861.35 1233.33, 860.92 1234.0, 860.49 1234.67, 860.05 1235.33, 859.6 1236.0, 859.16 1236.67, 858.71 1237.33, 858.25 1238.0, 857.79 1238.67, 857.33 1239.33, 856.86 1240.0, 856.39 1240.67, 855.91 1241.33, 855.43 1242.0, 854.95 1242.67, 854.46 1243.33, 853.97 1244.0, 853.47 1244.67, 852.97 1245.33, 852.47 1246.0, 851.96 1246.67, 851.45 1247.33, 850.94 1248.0, 850.42 1248.67, 849.9 1249.33, 849.37 1250.0, 848.85 1250.67, 848.31 1251.33, 847.78 1252.0, 847.24 1252.67, 846.7 1253.33, 846.15 1254.0, 845.61 1254.67, 845.05 1255.33, 844.5 1256.0, 843.94 1256.67, 843.38 1257.33, 842.82 1258.0, 842.25 1258.67, 841.68 1259.33, 841.1 1260.0, 840.53 1260.67, 839.95 1261.33, 839.37 1262.0, 838.78 1262.67, 838.19 1263.33, 837.6 1264.0, 837.01 1264.67, 836.41 1265.33, 835.82 1266.0, 835.21 1266.67, 834.61 1267.33, 834.0 1268.0, 833.4 1268.67, 832.78 1269.33, 832.17 1270.0, 831.55 1270.67, 830.94 1271.33, 830.32 1272.0, 829.69 1272.67, 829.07 1273.33, 828.44 1274.0, 827.81 1274.67, 827.18 1275.33, 826.55 1276.0, 825.91 1276.67, 825.27 1277.33, 824.63 1278.0, 823.99 1278.67, 823.35 1279.33, 822.7 1280.0, 822.05 1280.67, 821.41 1281.33, 820.76 1282.0, 820.1 1282.67, 819.45 1283.33, 818.79 1284.0, 818.14 1284.67, 817.48 1285.33, 816.82 1286.0, 816.16 1286.67, 815.49 1287.33, 814.83 1288.0, 814.17 1288.67, 813.5 1289.33, 812.83 1290.0, 812.16 1290.67, 811.49 1291.33, 810.82 1292.0, 810.15 1292.67, 809.48 1293.33, 808.8 1294.0, 808.13 1294.67, 807.45 1295.33, 806.77 1296.0, 806.09 1296.67, 805.42 1297.33, 804.74 1298.0, 804.06 1298.67, 803.37 1299.33, 802.69 1300.0, 802.01 1300.67, 801.33 1301.33, 800.65 1302.0, 799.96 1302.67, 799.28 1303.33, 798.59 1304.0, 797.91 1304.67, 797.22 1305.33, 796.54 1306.0, 795.85 1306.67, 795.17 1307.33, 794.48 1308.0, 793.79 1308.67, 793.11 1309.33, 792.42 1310.0, 791.73 1310.67, 791.05 1311.33, 790.36 1312.0, 789.67 1312.67, 788.99 1313.33, 788.3 1314.0, 787.61 1314.67, 786.93 1315.33, 786.24 1316.0, 785.56 1316.67, 784.87 1317.33, 784.18 1318.0, 783.5 1318.67, 782.82 1319.33, 782.13 1320.0, 781.45 1320.67, 780.76 1321.33, 780.08 1322.0, 779.4 1322.67, 778.72 1323.33, 778.04 1324.0, 777.36 1324.67, 776.68 1325.33, 776.0 1326.0, 775.32 1326.67, 774.64 1327.33, 773.96 1328.0, 773.29 1328.67, 772.61 1329.33, 771.94 1330.0, 771.26 1330.67, 770.59 1331.33, 769.92 1332.0, 769.25 1332.67, 768.58 1333.33, 767.91 1334.0, 767.24 1334.67, 766.57 1335.33, 765.91 1336.0, 765.24 1336.67, 764.58 1337.33, 763.91 1338.0, 763.25 1338.67, 762.59 1339.33, 761.93 1340.0, 761.27 1340.67, 760.61 1341.33, 759.96 1342.0, 759.3 1342.67, 758.65 1343.33, 757.99 1344.0, 757.34 1344.67, 756.69 1345.33, 756.04 1346.0, 755.39 1346.67, 754.74 1347.33, 754.1 1348.0, 753.45 1348.67, 752.81 1349.33, 752.17 1350.0, 751.53 1350.67, 750.89 1351.33, 750.25 1352.0, 749.61 1352.67, 748.97 1353.33, 748.34 1354.0, 747.7 1354.67, 747.07 1355.33, 746.44 1356.0, 745.81 1356.67, 745.18 1357.33, 744.55 1358.0, 743.93 1358.67, 743.3 1359.33, 742.68 1360.0, 742.05 1360.67, 741.43 1361.33, 740.81 1362.0, 740.19 1362.67, 739.57 1363.33, 738.95 1364.0, 738.34 1364.67, 737.72 1365.33, 737.11 1366.0, 736.49 1366.67, 735.88 1367.33, 735.27 1368.0, 734.65 1368.67, 734.04 1369.33, 733.43 1370.0, 732.83 1370.67, 732.22 1371.33, 731.61 1372.0, 731.0 1372.67, 730.4 1373.33, 729.79 1374.0, 729.19 1374.67, 728.58 1375.33, 727.98 1376.0, 727.38 1376.67, 726.77 1377.33, 726.17 1378.0, 725.57 1378.67, 724.96 1379.33, 724.36 1380.0, 723.76 1380.67, 723.16 1381.33, 722.56 1382.0, 721.95 1382.67, 721.35 1383.33, 720.75 1384.0, 720.15 1384.67, 719.54 1385.33, 718.94 1386.0, 718.33 1386.67, 717.73 1387.33, 717.12 1388.0, 716.52 1388.67, 715.91 1389.33, 715.3 1390.0, 714.69 1390.67, 714.08 1391.33, 713.47 1392.0, 712.86 1392.67, 712.24 1393.33, 711.63 1394.0, 711.01 1394.67, 710.39 1395.33, 709.77 1396.0, 709.15 1396.67, 708.52 1397.33, 707.9 1398.0, 707.27 1398.67, 706.64 1399.33, 706.0 1400.0, 705.37 1400.67, 704.73 1401.33, 704.08 1402.0, 703.44 1402.67, 702.79 1403.33, 702.14 1404.0, 701.48 1404.67, 700.82 1405.33, 700.16 1406.0, 699.49 1406.67, 698.82 1407.33, 698.15 1408.0, 697.47 1408.67, 696.78 1409.33, 696.09 1410.0, 695.4 1410.67, 694.7 1411.33, 694.0 1412.0, 693.29 1412.67, 692.57 1413.33, 691.85 1414.0, 691.12 1414.67, 690.39 1415.33, 689.65 1416.0, 688.9 1416.67, 688.15 1417.33, 687.39 1418.0, 686.62 1418.67, 685.85 1419.33, 685.06 1420.0, 684.27 1420.67, 683.47 1421.33, 682.67 1422.0, 681.85 1422.67, 681.02 1423.33, 680.19 1424.0, 679.34 1424.67, 678.49 1425.33, 677.63 1426.0, 676.75 1426.67, 675.87 1427.33, 674.97 1428.0, 674.06 1428.67, 673.14 1429.33, 672.21 1430.0, 671.27 1430.67, 670.32 1431.33, 669.35 1432.0, 668.37 1432.67, 667.37 1433.33, 666.37 1434.0, 665.34 1434.67, 664.31 1435.33, 663.26 1436.0, 662.19 1436.67, 661.11 1437.33, 660.01 1438.0, 658.9 1438.67, 657.77 1439.33, 656.62 1440.0, 655.45 1440.67, 654.27 1441.33, 653.07 1442.0, 651.85 1442.67, 650.61 1443.33, 649.35 1444.0, 648.08 1444.67, 646.78 1445.33, 645.46 1446.0, 644.12 1446.67, 642.75 1447.33, 641.37 1448.0, 639.96 1448.67, 638.53 1449.33, 637.08 1450.0, 635.6 1450.67, 634.09 1451.33, 632.56 1452.0, 631.01 1452.67, 629.43 1453.33, 627.82 1454.0, 626.18 1454.67, 624.52 1455.33, 622.83 1456.0, 621.1 1456.67, 619.35 1457.33, 617.57 1458.0, 615.76 1458.67, 613.91 1459.33, 612.03 1460.0, 610.12 1460.67, 608.18 1461.33, 606.2 1462.0, 604.18 1462.67, 602.14 1463.33, 600.05 1464.0, 597.93 1464.67, 595.76 1465.33, 593.56 1466.0, 591.33 1466.67, 589.05 1467.33, 586.73 1468.0, 584.36 1468.67, 581.96 1469.33, 579.51 1470.0, 577.02 1470.67, 574.48 1471.33, 571.9 1472.0, 569.27 1472.67, 566.59 1473.33, 563.87 1474.0, 561.09 1474.67, 558.27 1475.33, 555.39 1476.0, 552.46 1476.67, 549.48 1477.33, 546.44 1478.0, 543.35 1478.67, 540.21 1479.33, 537.0 1480.0, 533.74 1480.67, 530.42 1481.33, 527.04 1482.0, 523.59 1482.67, 520.09 1483.33, 516.52 1484.0, 512.89 1484.67, 509.19 1485.33, 505.42 1486.0, 501.59 1486.67, 497.68 1487.33, 493.71 1488.0, 489.66 1488.67, 485.54 1489.33, 481.35 1490.0, 477.08 1490.67, 472.73 1491.33, 468.3 1492.0, 463.8 1492.67, 459.21 1493.33, 454.54 1494.0, 449.79 1494.67, 444.95 1495.33, 440.03 1496.0, 435.02 1496.67, 429.92 1497.33, 424.72 1498.0, 419.44 1498.67, 414.05 1499.33, 408.58 1500.0, 403.0 1500.67, 397.33 1501.33, 391.55 1502.0, 385.68 1502.67, 379.7 1503.33, 373.61 1504.0, 367.41 1504.67, 361.11 1505.33, 354.69 1506.0, 348.16 1506.67, 341.52 1507.33, 334.76 1508.0, 327.88 1508.67, 320.88 1509.33, 313.75 1510.0, 306.5 1510.67, 299.13 1511.33, 291.62 1512.0, 283.99 1512.67, 276.22 1513.33, 268.31 1514.0, 260.27 1514.67, 252.09 1515.33, 243.77 1516.0, 235.3 1516.67, 226.68 1517.33, 217.92 1518.0, 209.01 1518.67, 199.94 1519.33, 190.71 1520.0, 181.33 1520.67, 171.79 1521.33, 162.08 1522.0, 152.2 1522.67, 142.16 1523.33, 131.95 1524.0, 121.56 1524.67, 110.99 1525.33, 100.25 1526.0, 89.32 1526.67, 78.2 1527.33, 66.9 1528.0, 55.41 1528.67, 43.72 1529.33, 31.84 1530.0, 19.75 1530.67, 7.46 1531.33, -5.03 1532.0, -17.74 1532.67, -30.66 1533.33, -43.79 1534.0, -57.15 1534.67, -70.72 1535.33, -84.53 1536.0, -98.56 1536.67, -112.83 1537.33, -127.33 1538.0, -142.08 1538.67, -157.07 1539.33, -172.31 1540.0, -187.79 1540.67, -203.54 1541.33, -219.54 1542.0, -235.81 1542.67, -252.35 1543.33, -269.15 1544.0, -286.24 1544.67, -303.6 1545.33, -321.24 1546.0, -339.18 1546.67, -357.4 1547.33, -375.93 1548.0, -394.75 1548.67, -413.88 1549.33, -433.32 1550.0, -453.08 1550.67, -473.15 1551.33, -493.55 1552.0, -514.28 1552.67, -535.35 1553.33, -556.75 1554.0, -578.49 1554.67, -600.59 1555.33, -623.04 1556.0, -645.85 1556.67, -669.02 1557.33, -692.57 1558.0, -716.49 1558.67, -740.79 1559.33, -765.48 1560.0, -790.56 1560.67, -816.04 1561.33, -841.92 1562.0, -868.22 1562.67, -894.92 1563.33, -922.05 1564.0, -949.61 1564.67, -977.61 1565.33, -1006.04 1566.0, -1034.92 1566.67, -1064.25 1567.33, -1094.05 1568.0, -1124.31 1568.67, -1155.04 1569.33, -1186.26 1570.0, -1217.96 1570.67, -1250.15 1571.33, -1282.85 1572.0, -1316.05 1572.67, -1349.77 1573.33, -1384.02 1574.0, -1418.79 1574.67, -1454.1 1575.33, -1489.96 1576.0, -1526.37 1576.67, -1563.34 1577.33, -1600.89 1578.0, -1639.0 1578.67, -1677.71 1579.33, -1717.01 1580.0, -1756.91 1580.67, -1797.42 1581.33, -1838.56 1582.0, -1880.32 1582.67, -1922.71 1583.33, -1965.76 1584.0, -2009.46 1584.67, -2053.82 1585.33, -2098.86 1586.0, -2144.58 1586.67, -2190.99 1587.33, -2238.11 1588.0, -2285.94 1588.67, -2334.49 1589.33, -2383.77 1590.0, -2433.8 1590.67, -2484.57 1591.33, -2536.12 1592.0, -2588.43 1592.67, -2641.53 1593.33, -2695.43 1594.0, -2750.14 1594.67, -2805.66 1595.33, -2862.01 1596.0, -2919.2 1596.67, -2977.25 1597.33, -3036.15 1598.0, -3095.94 1598.67, -3156.61 1599.33, -3218.19 1600.0, -3280.67 " fill="none" stroke="white" stroke-width="1.5" stroke-linejoin="round" stroke-opacity="1"/>

 </svg>