<svg version="1.1" 
 baseProfile="full" 
 width="1600" 
 height="1600" 
 xmlns="http://www.w3.org/2000/svg">
<rect x="0.0" y="0.0" width="1600" height="1600" fill="black" stroke="black" stroke-width="0" opacity="1"/>
<line x1="0.0" y1="0.0" x2="0.0" y2="1600.0" stroke="white" stroke-width="1" opacity="0.4" stroke-linecap="butt"/>
<line x1="160.0" y1="0.0" x2="160.0" y2="1600.0" stroke="white" stroke-width="1" opacity="0.4" stroke-linecap="butt"/>
<line x1="320.0" y1="0.0" x2="320.0" y2="1600.0" stroke="white" stroke-width="1" opacity="0.4" stroke-linecap="butt"/>
<line x1="480.0" y1="0.0" x2="480.0" y2="1600.0" stroke="white" stroke-width="1" opacity="0.4" stroke-linecap="butt"/>
<line x1="640.0" y1="0.0" x2="640.0" y2="1600.0" stroke="white" stroke-width="1" opacity="0.4" stroke-linecap="butt"/>
<line x1="800.0" y1="0.0" x2="800.0" y2="1600.0" stroke="white" stroke-width="1" opacity="0.4" stroke-linecap="butt"/>
<line x1="960.0" y1="0.0" x2="960.0" y2="1600.0" stroke="white" stroke-width="1" opacity="0.4" stroke-linecap="butt"/>
<line x1="1120.0" y1="0.0" x2="1120.0" y2="1600.0" stroke="white" stroke-width="1" opacity="0.4" stroke-linecap="butt"/>
<line x1="1280.0" y1="0.0" x2="1280.0" y2="1600.0" stroke="white" stroke-width="1" opacity="0.4" stroke-linecap="butt"/>
<line x1="1440.0" y1="0.0" x2="1440.0" y2="1600.0" stroke="white" stroke-width="1" opacity="0.4" stroke-linecap="butt"/>
<line x1="0.0" y1="0.0" x2="1600.0" y2="0.0" stroke="white" stroke-width="1" opacity="0.4" stroke-linecap="butt"/>
<line x1="0.0" y1="160.0" x2="1600.0" y2="160.0" stroke="white" stroke-width="1" opacity="0.4" stroke-linecap="butt"/>
<line x1="0.0" y1="320.0" x2="1600.0" y2="320.0" stroke="white" stroke-width="1" opacity="0.4" stroke-linecap="butt"/>
<line x1="0.0" y1="480.0" x2="1600.0" y2="480.0" stroke="white" stroke-width="1" opacity="0.4" stroke-linecap="butt"/>
<line x1="0.0" y1="640.0" x2="1600.0" y2="640.0" stroke="white" stroke-width="1" opacity="0.4" stroke-linecap="butt"/>
<line x1="0.0" y1="800.0" x2="1600.0" y2="800.0" stroke="white" stroke-width="1" opacity="0.4" stroke-linecap="butt"/>
<line x1="0.0" y1="960.0" x2="1600.0" y2="960.0" stroke="white" stroke-width="1" opacity="0.4" stroke-linecap="butt"/>
<line x1="0.0" y1="1120.0" x2="1600.0" y2="1120.0" stroke="white" stroke-width="1" opacity="0.4" stroke-linecap="butt"/>
<line x1="0.0" y1="1280.0" x2="1600.0" y2="1280.0" stroke="white" stroke-width="1" opacity="0.4" stroke-linecap="butt"/>
<line x1="0.0" y1="1440.0" x2="1600.0" y2="1440.0" stroke="white" stroke-width="1" opacity="0.4" stroke-linecap="butt"/>
<line x1="0.0" y1="800.0" x2="1600.0" y2="800.0" stroke="yellow" stroke-width="2.5" opacity="1" stroke-linecap="butt"/>
<line x1="800.0" y1="0.0" x2="800.0" y2="1600.0" stroke="yellow" stroke-width="2.5" opacity="1" stroke-linecap="butt"/>
<polygon points="1564.0 816.0, 1604.0 800.0, 1564.0 784.0, 1572.0 800.0" fill="yellow"/><polygon points="816.0 36.0, 800.0 -4.0, 784.0 36.0, 800.0 28.0" fill="yellow"/><polyline points="0.0, 4634.05 0.67, 4575.44 1.33, 4517.69 2.0, 4460.77 2.67, 4404.69 3.33, 4349.44 4.0, 4294.99 4.67, 4241.34 5.33, 4188.47 6.0, 4136.39 6.67, 4085.07 7.33, 4034.5 8.0, 3984.68 8.67, 3935.6 9.33, 3887.24 10.0, 3839.6 10.67, 3792.67 11.33, 3746.43 12.0, 3700.87 12.67, 3656.0 13.33, 3611.79 14.0, 3568.24 14.67, 3525.34 15.33, 3483.08 16.0, 3441.45 16.67, 3400.45 17.33, 3360.05 18.0, 3320.27 18.67, 3281.08 19.33, 3242.48 20.0, 3204.47 20.67, 3167.02 21.33, 3130.14 22.0, 3093.82 22.67, 3058.04 23.33, 3022.81 24.0, 2988.11 24.67, 2953.94 25.33, 2920.29 26.0, 2887.15 26.67, 2854.51 27.33, 2822.37 28.0, 2790.73 28.67, 2759.56 29.33, 2728.87 30.0, 2698.66 30.67, 2668.9 31.33, 2639.61 32.0, 2610.76 32.67, 2582.36 33.33, 2554.39 34.0, 2526.86 34.67, 2499.75 35.33, 2473.07 36.0, 2446.79 36.67, 2420.92 37.33, 2395.46 38.0, 2370.39 38.67, 2345.71 39.33, 2321.41 40.0, 2297.5 40.67, 2273.96 41.33, 2250.78 42.0, 2227.97 42.67, 2205.52 43.33, 2183.42 44.0, 2161.67 44.67, 2140.26 45.33, 2119.18 46.0, 2098.44 46.67, 2078.03 47.33, 2057.94 48.0, 2038.17 48.67, 2018.71 49.33, 1999.56 50.0, 1980.72 50.67, 1962.18 51.33, 1943.93 52.0, 1925.97 52.67, 1908.3 53.33, 1890.92 54.0, 1873.81 54.67, 1856.98 55.33, 1840.42 56.0, 1824.12 56.67, 1808.09 57.33, 1792.31 58.0, 1776.79 58.67, 1761.52 59.33, 1746.5 60.0, 1731.73 60.67, 1717.19 61.33, 1702.89 62.0, 1688.82 62.67, 1674.98 63.33, 1661.37 64.0, 1647.98 64.67, 1634.81 65.33, 1621.86 66.0, 1609.11 66.67, 1596.58 67.33, 1584.26 68.0, 1572.13 68.67, 1560.21 69.33, 1548.48 70.0, 1536.95 70.67, 1525.61 71.33, 1514.46 72.0, 1503.49 72.67, 1492.71 73.33, 1482.11 74.0, 1471.68 74.67, 1461.42 75.33, 1451.34 76.0, 1441.43 76.67, 1431.68 77.33, 1422.1 78.0, 1412.68 78.67, 1403.42 79.33, 1394.31 80.0, 1385.36 80.67, 1376.55 81.33, 1367.9 82.0, 1359.4 82.67, 1351.03 83.33, 1342.81 84.0, 1334.73 84.67, 1326.79 85.33, 1318.99 86.0, 1311.31 86.67, 1303.77 87.33, 1296.36 88.0, 1289.07 88.67, 1281.91 89.33, 1274.87 90.0, 1267.96 90.67, 1261.16 91.33, 1254.48 92.0, 1247.92 92.67, 1241.47 93.33, 1235.13 94.0, 1228.9 94.67, 1222.77 95.33, 1216.76 96.0, 1210.85 96.67, 1205.04 97.33, 1199.34 98.0, 1193.73 98.67, 1188.22 99.33, 1182.81 100.0, 1177.49 100.67, 1172.27 101.33, 1167.13 102.0, 1162.09 102.67, 1157.14 103.33, 1152.27 104.0, 1147.49 104.67, 1142.79 105.33, 1138.18 106.0, 1133.64 106.67, 1129.19 107.33, 1124.82 108.0, 1120.52 108.67, 1116.3 109.33, 1112.16 110.0, 1108.08 110.67, 1104.08 111.33, 1100.16 112.0, 1096.3 112.67, 1092.51 113.33, 1088.78 114.0, 1085.13 114.67, 1081.53 115.33, 1078.01 116.0, 1074.54 116.67, 1071.14 117.33, 1067.8 118.0, 1064.51 118.67, 1061.29 119.33, 1058.12 120.0, 1055.01 120.67, 1051.96 121.33, 1048.96 122.0, 1046.01 122.67, 1043.12 123.33, 1040.28 124.0, 1037.48 124.67, 1034.74 125.33, 1032.05 126.0, 1029.4 126.67, 1026.81 127.33, 1024.26 128.0, 1021.75 128.67, 1019.29 129.33, 1016.87 130.0, 1014.49 130.67, 1012.16 131.33, 1009.87 132.0, 1007.62 132.67, 1005.41 133.33, 1003.23 134.0, 1001.1 134.67, 999.0 135.33, 996.94 136.0, 994.92 136.67, 992.93 137.33, 990.98 138.0, 989.06 138.67, 987.17 139.33, 985.32 140.0, 983.5 140.67, 981.71 141.33, 979.95 142.0, 978.22 142.67, 976.53 143.33, 974.86 144.0, 973.21 144.67, 971.6 145.33, 970.02 146.0, 968.46 146.67, 966.92 147.33, 965.42 148.0, 963.93 148.67, 962.48 149.33, 961.04 150.0, 959.63 150.67, 958.25 151.33, 956.88 152.0, 955.54 152.67, 954.22 153.33, 952.92 154.0, 951.64 154.67, 950.38 155.33, 949.14 156.0, 947.92 156.67, 946.72 157.33, 945.54 158.0, 944.38 158.67, 943.23 159.33, 942.1 160.0, 940.99 160.67, 939.9 161.33, 938.82 162.0, 937.75 162.67, 936.71 163.33, 935.67 164.0, 934.65 164.67, 933.65 165.33, 932.66 166.0, 931.68 166.67, 930.72 167.33, 929.77 168.0, 928.83 168.67, 927.91 169.33, 927.0 170.0, 926.09 170.67, 925.2 171.33, 924.32 172.0, 923.46 172.67, 922.6 173.33, 921.75 174.0, 920.91 174.67, 920.09 175.33, 919.27 176.0, 918.46 176.67, 917.66 177.33, 916.87 178.0, 916.08 178.67, 915.31 179.33, 914.54 180.0, 913.78 180.67, 913.03 181.33, 912.29 182.0, 911.55 182.67, 910.82 183.33, 910.09 184.0, 909.38 184.67, 908.66 185.33, 907.96 186.0, 907.26 186.67, 906.56 187.33, 905.88 188.0, 905.19 188.67, 904.51 189.33, 903.84 190.0, 903.17 190.67, 902.51 191.33, 901.85 192.0, 901.19 192.67, 900.54 193.33, 899.89 194.0, 899.25 194.67, 898.61 195.33, 897.97 196.0, 897.34 196.67, 896.7 197.33, 896.08 198.0, 895.45 198.67, 894.83 199.33, 894.21 200.0, 893.59 200.67, 892.98 201.33, 892.36 202.0, 891.75 202.67, 891.15 203.33, 890.54 204.0, 889.93 204.67, 889.33 205.33, 888.73 206.0, 888.13 206.67, 887.53 207.33, 886.93 208.0, 886.33 208.67, 885.74 209.33, 885.14 210.0, 884.55 210.67, 883.96 211.33, 883.36 212.0, 882.77 212.67, 882.18 213.33, 881.59 214.0, 881.0 214.67, 880.41 215.33, 879.82 216.0, 879.23 216.67, 878.64 217.33, 878.05 218.0, 877.46 218.67, 876.87 219.33, 876.28 220.0, 875.69 220.67, 875.1 221.33, 874.51 222.0, 873.92 222.67, 873.33 223.33, 872.74 224.0, 872.14 224.67, 871.55 225.33, 870.96 226.0, 870.36 226.67, 869.77 227.33, 869.17 228.0, 868.58 228.67, 867.98 229.33, 867.38 230.0, 866.78 230.67, 866.18 231.33, 865.58 232.0, 864.98 232.67, 864.37 233.33, 863.77 234.0, 863.16 234.67, 862.56 235.33, 861.95 236.0, 861.34 236.67, 860.73 237.33, 860.12 238.0, 859.51 238.67, 858.9 239.33, 858.28 240.0, 857.67 240.67, 857.05 241.33, 856.43 242.0, 855.81 242.67, 855.19 243.33, 854.57 244.0, 853.94 244.67, 853.32 245.33, 852.69 246.0, 852.07 246.67, 851.44 247.33, 850.81 248.0, 850.18 248.67, 849.54 249.33, 848.91 250.0, 848.27 250.67, 847.64 251.33, 847.0 252.0, 846.36 252.67, 845.72 253.33, 845.08 254.0, 844.43 254.67, 843.79 255.33, 843.14 256.0, 842.5 256.67, 841.85 257.33, 841.2 258.0, 840.55 258.67, 839.9 259.33, 839.24 260.0, 838.59 260.67, 837.93 261.33, 837.28 262.0, 836.62 262.67, 835.96 263.33, 835.3 264.0, 834.64 264.67, 833.97 265.33, 833.31 266.0, 832.65 266.67, 831.98 267.33, 831.31 268.0, 830.65 268.67, 829.98 269.33, 829.31 270.0, 828.64 270.67, 827.97 271.33, 827.29 272.0, 826.62 272.67, 825.95 273.33, 825.27 274.0, 824.6 274.67, 823.92 275.33, 823.24 276.0, 822.56 276.67, 821.89 277.33, 821.21 278.0, 820.53 278.67, 819.85 279.33, 819.17 280.0, 818.48 280.67, 817.8 281.33, 817.12 282.0, 816.44 282.67, 815.75 283.33, 815.07 284.0, 814.39 284.67, 813.7 285.33, 813.02 286.0, 812.33 286.67, 811.65 287.33, 810.96 288.0, 810.28 288.67, 809.59 289.33, 808.91 290.0, 808.22 290.67, 807.53 291.33, 806.85 292.0, 806.16 292.67, 805.48 293.33, 804.79 294.0, 804.11 294.67, 803.42 295.33, 802.74 296.0, 802.05 296.67, 801.37 297.33, 800.69 298.0, 800.0 298.67, 799.32 299.33, 798.64 300.0, 797.96 300.67, 797.27 301.33, 796.59 302.0, 795.91 302.67, 795.23 303.33, 794.56 304.0, 793.88 304.67, 793.2 305.33, 792.52 306.0, 791.85 306.67, 791.17 307.33, 790.5 308.0, 789.83 308.67, 789.16 309.33, 788.49 310.0, 787.82 310.67, 787.15 311.33, 786.48 312.0, 785.81 312.67, 785.15 313.33, 784.49 314.0, 783.82 314.67, 783.16 315.33, 782.5 316.0, 781.85 316.67, 781.19 317.33, 780.53 318.0, 779.88 318.67, 779.23 319.33, 778.58 320.0, 777.93 320.67, 777.28 321.33, 776.64 322.0, 776.0 322.67, 775.35 323.33, 774.72 324.0, 774.08 324.67, 773.44 325.33, 772.81 326.0, 772.18 326.67, 771.55 327.33, 770.92 328.0, 770.3 328.67, 769.67 329.33, 769.05 330.0, 768.44 330.67, 767.82 331.33, 767.21 332.0, 766.6 332.67, 765.99 333.33, 765.38 334.0, 764.78 334.67, 764.18 335.33, 763.58 336.0, 762.98 336.67, 762.39 337.33, 761.8 338.0, 761.21 338.67, 760.63 339.33, 760.04 340.0, 759.47 340.67, 758.89 341.33, 758.32 342.0, 757.75 342.67, 757.18 343.33, 756.61 344.0, 756.05 344.67, 755.5 345.33, 754.94 346.0, 754.39 346.67, 753.84 347.33, 753.3 348.0, 752.75 348.67, 752.22 349.33, 751.68 350.0, 751.15 350.67, 750.62 351.33, 750.1 352.0, 749.58 352.67, 749.06 353.33, 748.54 354.0, 748.03 354.67, 747.53 355.33, 747.03 356.0, 746.53 356.67, 746.03 357.33, 745.54 358.0, 745.05 358.67, 744.57 359.33, 744.09 360.0, 743.61 360.67, 743.14 361.33, 742.67 362.0, 742.21 362.67, 741.75 363.33, 741.29 364.0, 740.84 364.67, 740.39 365.33, 739.95 366.0, 739.51 366.67, 739.08 367.33, 738.64 368.0, 738.22 368.67, 737.8 369.33, 737.38 370.0, 736.96 370.67, 736.56 371.33, 736.15 372.0, 735.75 372.67, 735.36 373.33, 734.96 374.0, 734.58 374.67, 734.2 375.33, 733.82 376.0, 733.45 376.67, 733.08 377.33, 732.71 378.0, 732.36 378.67, 732.0 379.33, 731.65 380.0, 731.31 380.67, 730.97 381.33, 730.63 382.0, 730.3 382.67, 729.98 383.33, 729.66 384.0, 729.34 384.67, 729.03 385.33, 728.73 386.0, 728.43 386.67, 728.13 387.33, 727.84 388.0, 727.55 388.67, 727.27 389.33, 727.0 390.0, 726.73 390.67, 726.46 391.33, 726.2 392.0, 725.95 392.67, 725.7 393.33, 725.45 394.0, 725.21 394.67, 724.98 395.33, 724.75 396.0, 724.53 396.67, 724.31 397.33, 724.1 398.0, 723.89 398.67, 723.68 399.33, 723.49 400.0, 723.3 400.67, 723.11 401.33, 722.93 402.0, 722.75 402.67, 722.58 403.33, 722.42 404.0, 722.26 404.67, 722.1 405.33, 721.95 406.0, 721.81 406.67, 721.67 407.33, 721.54 408.0, 721.41 408.67, 721.29 409.33, 721.17 410.0, 721.06 410.67, 720.96 411.33, 720.86 412.0, 720.76 412.67, 720.67 413.33, 720.59 414.0, 720.51 414.67, 720.44 415.33, 720.37 416.0, 720.31 416.67, 720.26 417.33, 720.21 418.0, 720.16 418.67, 720.12 419.33, 720.09 420.0, 720.06 420.67, 720.04 421.33, 720.02 422.0, 720.01 422.67, 720.0 423.33, 720.0 424.0, 720.01 424.67, 720.02 425.33, 720.04 426.0, 720.06 426.67, 720.09 427.33, 720.12 428.0, 720.16 428.67, 720.2 429.33, 720.25 430.0, 720.31 430.67, 720.37 431.33, 720.43 432.0, 720.51 432.67, 720.58 433.33, 720.67 434.0, 720.76 434.67, 720.85 435.33, 720.95 436.0, 721.05 436.67, 721.16 437.33, 721.28 438.0, 721.4 438.67, 721.53 439.33, 721.66 440.0, 721.8 440.67, 721.94 441.33, 722.09 442.0, 722.24 442.67, 722.4 443.33, 722.57 444.0, 722.74 444.67, 722.91 445.33, 723.1 446.0, 723.28 446.67, 723.47 447.33, 723.67 448.0, 723.87 448.67, 724.08 449.33, 724.29 450.0, 724.51 450.67, 724.73 451.33, 724.96 452.0, 725.2 452.67, 725.44 453.33, 725.68 454.0, 725.93 454.67, 726.18 455.33, 726.44 456.0, 726.71 456.67, 726.98 457.33, 727.25 458.0, 727.53 458.67, 727.82 459.33, 728.11 460.0, 728.4 460.67, 728.7 461.33, 729.01 462.0, 729.32 462.67, 729.63 463.33, 729.95 464.0, 730.27 464.67, 730.6 465.33, 730.94 466.0, 731.28 466.67, 731.62 467.33, 731.97 468.0, 732.32 468.67, 732.68 469.33, 733.04 470.0, 733.41 470.67, 733.78 471.33, 734.16 472.0, 734.54 472.67, 734.92 473.33, 735.31 474.0, 735.71 474.67, 736.11 475.33, 736.51 476.0, 736.92 476.67, 737.33 477.33, 737.75 478.0, 738.17 478.67, 738.59 479.33, 739.02 480.0, 739.46 480.67, 739.89 481.33, 740.34 482.0, 740.78 482.67, 741.23 483.33, 741.69 484.0, 742.15 484.67, 742.61 485.33, 743.07 486.0, 743.54 486.67, 744.02 487.33, 744.5 488.0, 744.98 488.67, 745.46 489.33, 745.95 490.0, 746.45 490.67, 746.94 491.33, 747.45 492.0, 747.95 492.67, 748.46 493.33, 748.97 494.0, 749.48 494.67, 750.0 495.33, 750.53 496.0, 751.05 496.67, 751.58 497.33, 752.11 498.0, 752.65 498.67, 753.19 499.33, 753.73 500.0, 754.28 500.67, 754.82 501.33, 755.38 502.0, 755.93 502.67, 756.49 503.33, 757.05 504.0, 757.61 504.67, 758.18 505.33, 758.75 506.0, 759.32 506.67, 759.9 507.33, 760.48 508.0, 761.06 508.67, 761.64 509.33, 762.23 510.0, 762.82 510.67, 763.41 511.33, 764.0 512.0, 764.6 512.67, 765.2 513.33, 765.8 514.0, 766.4 514.67, 767.01 515.33, 767.62 516.0, 768.23 516.67, 768.84 517.33, 769.46 518.0, 770.07 518.67, 770.69 519.33, 771.31 520.0, 771.94 520.67, 772.56 521.33, 773.19 522.0, 773.82 522.67, 774.45 523.33, 775.08 524.0, 775.72 524.67, 776.35 525.33, 776.99 526.0, 777.63 526.67, 778.27 527.33, 778.91 528.0, 779.56 528.67, 780.2 529.33, 780.85 530.0, 781.5 530.67, 782.15 531.33, 782.8 532.0, 783.45 532.67, 784.1 533.33, 784.75 534.0, 785.41 534.67, 786.07 535.33, 786.72 536.0, 787.38 536.67, 788.04 537.33, 788.7 538.0, 789.36 538.67, 790.02 539.33, 790.68 540.0, 791.34 540.67, 792.01 541.33, 792.67 542.0, 793.34 542.67, 794.0 543.33, 794.66 544.0, 795.33 544.67, 796.0 545.33, 796.66 546.0, 797.33 546.67, 797.99 547.33, 798.66 548.0, 799.33 548.67, 799.99 549.33, 800.66 550.0, 801.33 550.67, 801.99 551.33, 802.66 552.0, 803.33 552.67, 803.99 553.33, 804.66 554.0, 805.32 554.67, 805.99 555.33, 806.65 556.0, 807.32 556.67, 807.98 557.33, 808.64 558.0, 809.31 558.67, 809.97 559.33, 810.63 560.0, 811.29 560.67, 811.95 561.33, 812.61 562.0, 813.27 562.67, 813.92 563.33, 814.58 564.0, 815.23 564.67, 815.89 565.33, 816.54 566.0, 817.19 566.67, 817.84 567.33, 818.49 568.0, 819.14 568.67, 819.79 569.33, 820.43 570.0, 821.08 570.67, 821.72 571.33, 822.36 572.0, 823.0 572.67, 823.64 573.33, 824.27 574.0, 824.91 574.67, 825.54 575.33, 826.17 576.0, 826.8 576.67, 827.43 577.33, 828.05 578.0, 828.67 578.67, 829.3 579.33, 829.92 580.0, 830.53 580.67, 831.15 581.33, 831.76 582.0, 832.37 582.67, 832.98 583.33, 833.59 584.0, 834.19 584.67, 834.79 585.33, 835.39 586.0, 835.99 586.67, 836.58 587.33, 837.17 588.0, 837.76 588.67, 838.35 589.33, 838.93 590.0, 839.51 590.67, 840.09 591.33, 840.67 592.0, 841.24 592.67, 841.81 593.33, 842.38 594.0, 842.94 594.67, 843.5 595.33, 844.06 596.0, 844.61 596.67, 845.17 597.33, 845.72 598.0, 846.26 598.67, 846.8 599.33, 847.34 600.0, 847.88 600.67, 848.41 601.33, 848.94 602.0, 849.46 602.67, 849.99 603.33, 850.51 604.0, 851.02 604.67, 851.53 605.33, 852.04 606.0, 852.55 606.67, 853.05 607.33, 853.54 608.0, 854.04 608.67, 854.53 609.33, 855.01 610.0, 855.49 610.67, 855.97 611.33, 856.45 612.0, 856.92 612.67, 857.38 613.33, 857.85 614.0, 858.31 614.67, 858.76 615.33, 859.21 616.0, 859.66 616.67, 860.1 617.33, 860.54 618.0, 860.97 618.67, 861.4 619.33, 861.82 620.0, 862.25 620.67, 862.66 621.33, 863.07 622.0, 863.48 622.67, 863.89 623.33, 864.29 624.0, 864.68 624.67, 865.07 625.33, 865.46 626.0, 865.84 626.67, 866.21 627.33, 866.58 628.0, 866.95 628.67, 867.31 629.33, 867.67 630.0, 868.03 630.67, 868.37 631.33, 868.72 632.0, 869.06 632.67, 869.39 633.33, 869.72 634.0, 870.04 634.67, 870.36 635.33, 870.68 636.0, 870.99 636.67, 871.29 637.33, 871.59 638.0, 871.89 638.67, 872.18 639.33, 872.46 640.0, 872.74 640.67, 873.02 641.33, 873.29 642.0, 873.55 642.67, 873.81 643.33, 874.07 644.0, 874.32 644.67, 874.56 645.33, 874.8 646.0, 875.03 646.67, 875.26 647.33, 875.49 648.0, 875.7 648.67, 875.92 649.33, 876.12 650.0, 876.33 650.67, 876.52 651.33, 876.72 652.0, 876.9 652.67, 877.08 653.33, 877.26 654.0, 877.43 654.67, 877.59 655.33, 877.75 656.0, 877.91 656.67, 878.06 657.33, 878.2 658.0, 878.34 658.67, 878.47 659.33, 878.6 660.0, 878.72 660.67, 878.83 661.33, 878.95 662.0, 879.05 662.67, 879.15 663.33, 879.24 664.0, 879.33 664.67, 879.42 665.33, 879.49 666.0, 879.57 666.67, 879.63 667.33, 879.69 668.0, 879.75 668.67, 879.8 669.33, 879.84 670.0, 879.88 670.67, 879.92 671.33, 879.94 672.0, 879.97 672.67, 879.98 673.33, 879.99 674.0, 880.0 674.67, 880.0 675.33, 879.99 676.0, 879.98 676.67, 879.97 677.33, 879.94 678.0, 879.92 678.67, 879.88 679.33, 879.84 680.0, 879.8 680.67, 879.75 681.33, 879.69 682.0, 879.63 682.67, 879.57 683.33, 879.49 684.0, 879.42 684.67, 879.33 685.33, 879.25 686.0, 879.15 686.67, 879.05 687.33, 878.95 688.0, 878.84 688.67, 878.72 689.33, 878.6 690.0, 878.47 690.67, 878.34 691.33, 878.2 692.0, 878.06 692.67, 877.91 693.33, 877.76 694.0, 877.6 694.67, 877.43 695.33, 877.26 696.0, 877.08 696.67, 876.9 697.33, 876.72 698.0, 876.53 698.67, 876.33 699.33, 876.13 700.0, 875.92 700.67, 875.71 701.33, 875.49 702.0, 875.26 702.67, 875.04 703.33, 874.8 704.0, 874.56 704.67, 874.32 705.33, 874.07 706.0, 873.82 706.67, 873.56 707.33, 873.29 708.0, 873.02 708.67, 872.75 709.33, 872.47 710.0, 872.18 710.67, 871.89 711.33, 871.6 712.0, 871.3 712.67, 870.99 713.33, 870.68 714.0, 870.37 714.67, 870.05 715.33, 869.72 716.0, 869.39 716.67, 869.06 717.33, 868.72 718.0, 868.38 718.67, 868.03 719.33, 867.68 720.0, 867.32 720.67, 866.96 721.33, 866.59 722.0, 866.22 722.67, 865.84 723.33, 865.46 724.0, 865.07 724.67, 864.68 725.33, 864.29 726.0, 863.89 726.67, 863.49 727.33, 863.08 728.0, 862.67 728.67, 862.25 729.33, 861.83 730.0, 861.4 730.67, 860.97 731.33, 860.54 732.0, 860.1 732.67, 859.66 733.33, 859.21 734.0, 858.76 734.67, 858.31 735.33, 857.85 736.0, 857.39 736.67, 856.92 737.33, 856.45 738.0, 855.98 738.67, 855.5 739.33, 855.02 740.0, 854.53 740.67, 854.04 741.33, 853.55 742.0, 853.05 742.67, 852.55 743.33, 852.05 744.0, 851.54 744.67, 851.03 745.33, 850.51 746.0, 849.99 746.67, 849.47 747.33, 848.94 748.0, 848.41 748.67, 847.88 749.33, 847.35 750.0, 846.81 750.67, 846.27 751.33, 845.72 752.0, 845.17 752.67, 844.62 753.33, 844.06 754.0, 843.51 754.67, 842.95 755.33, 842.38 756.0, 841.81 756.67, 841.25 757.33, 840.67 758.0, 840.1 758.67, 839.52 759.33, 838.94 760.0, 838.35 760.67, 837.77 761.33, 837.18 762.0, 836.59 762.67, 835.99 763.33, 835.4 764.0, 834.8 764.67, 834.2 765.33, 833.59 766.0, 832.99 766.67, 832.38 767.33, 831.77 768.0, 831.15 768.67, 830.54 769.33, 829.92 770.0, 829.3 770.67, 828.68 771.33, 828.06 772.0, 827.43 772.67, 826.8 773.33, 826.18 774.0, 825.54 774.67, 824.91 775.33, 824.28 776.0, 823.64 776.67, 823.0 777.33, 822.36 778.0, 821.72 778.67, 821.08 779.33, 820.44 780.0, 819.79 780.67, 819.15 781.33, 818.5 782.0, 817.85 782.67, 817.2 783.33, 816.55 784.0, 815.89 784.67, 815.24 785.33, 814.58 786.0, 813.93 786.67, 813.27 787.33, 812.61 788.0, 811.96 788.67, 811.3 789.33, 810.64 790.0, 809.97 790.67, 809.31 791.33, 808.65 792.0, 807.99 792.67, 807.32 793.33, 806.66 794.0, 805.99 794.67, 805.33 795.33, 804.66 796.0, 804.0 796.67, 803.33 797.33, 802.67 798.0, 802.0 798.67, 801.33 799.33, 800.67 800.0, 800.0 800.67, 799.33 801.33, 798.67 802.0, 798.0 802.67, 797.33 803.33, 796.67 804.0, 796.0 804.67, 795.34 805.33, 794.67 806.0, 794.01 806.67, 793.34 807.33, 792.68 808.0, 792.01 808.67, 791.35 809.33, 790.69 810.0, 790.03 810.67, 789.36 811.33, 788.7 812.0, 788.04 812.67, 787.39 813.33, 786.73 814.0, 786.07 814.67, 785.42 815.33, 784.76 816.0, 784.11 816.67, 783.45 817.33, 782.8 818.0, 782.15 818.67, 781.5 819.33, 780.85 820.0, 780.21 820.67, 779.56 821.33, 778.92 822.0, 778.28 822.67, 777.64 823.33, 777.0 824.0, 776.36 824.67, 775.72 825.33, 775.09 826.0, 774.46 826.67, 773.82 827.33, 773.2 828.0, 772.57 828.67, 771.94 829.33, 771.32 830.0, 770.7 830.67, 770.08 831.33, 769.46 832.0, 768.85 832.67, 768.23 833.33, 767.62 834.0, 767.01 834.67, 766.41 835.33, 765.8 836.0, 765.2 836.67, 764.6 837.33, 764.01 838.0, 763.41 838.67, 762.82 839.33, 762.23 840.0, 761.65 840.67, 761.06 841.33, 760.48 842.0, 759.9 842.67, 759.33 843.33, 758.75 844.0, 758.19 844.67, 757.62 845.33, 757.05 846.0, 756.49 846.67, 755.94 847.33, 755.38 848.0, 754.83 848.67, 754.28 849.33, 753.73 850.0, 753.19 850.67, 752.65 851.33, 752.12 852.0, 751.59 852.67, 751.06 853.33, 750.53 854.0, 750.01 854.67, 749.49 855.33, 748.97 856.0, 748.46 856.67, 747.95 857.33, 747.45 858.0, 746.95 858.67, 746.45 859.33, 745.96 860.0, 745.47 860.67, 744.98 861.33, 744.5 862.0, 744.02 862.67, 743.55 863.33, 743.08 864.0, 742.61 864.67, 742.15 865.33, 741.69 866.0, 741.24 866.67, 740.79 867.33, 740.34 868.0, 739.9 868.67, 739.46 869.33, 739.03 870.0, 738.6 870.67, 738.17 871.33, 737.75 872.0, 737.33 872.67, 736.92 873.33, 736.51 874.0, 736.11 874.67, 735.71 875.33, 735.32 876.0, 734.93 876.67, 734.54 877.33, 734.16 878.0, 733.78 878.67, 733.41 879.33, 733.04 880.0, 732.68 880.67, 732.32 881.33, 731.97 882.0, 731.62 882.67, 731.28 883.33, 730.94 884.0, 730.61 884.67, 730.28 885.33, 729.95 886.0, 729.63 886.67, 729.32 887.33, 729.01 888.0, 728.7 888.67, 728.4 889.33, 728.11 890.0, 727.82 890.67, 727.53 891.33, 727.25 892.0, 726.98 892.67, 726.71 893.33, 726.44 894.0, 726.18 894.67, 725.93 895.33, 725.68 896.0, 725.44 896.67, 725.2 897.33, 724.96 898.0, 724.74 898.67, 724.51 899.33, 724.29 900.0, 724.08 900.67, 723.87 901.33, 723.67 902.0, 723.47 902.67, 723.28 903.33, 723.1 904.0, 722.92 904.67, 722.74 905.33, 722.57 906.0, 722.4 906.67, 722.24 907.33, 722.09 908.0, 721.94 908.67, 721.8 909.33, 721.66 910.0, 721.53 910.67, 721.4 911.33, 721.28 912.0, 721.16 912.67, 721.05 913.33, 720.95 914.0, 720.85 914.67, 720.75 915.33, 720.67 916.0, 720.58 916.67, 720.51 917.33, 720.43 918.0, 720.37 918.67, 720.31 919.33, 720.25 920.0, 720.2 920.67, 720.16 921.33, 720.12 922.0, 720.08 922.67, 720.06 923.33, 720.03 924.0, 720.02 924.67, 720.01 925.33, 720.0 926.0, 720.0 926.67, 720.01 927.33, 720.02 928.0, 720.03 928.67, 720.06 929.33, 720.08 930.0, 720.12 930.67, 720.16 931.33, 720.2 932.0, 720.25 932.67, 720.31 933.33, 720.37 934.0, 720.43 934.67, 720.51 935.33, 720.58 936.0, 720.67 936.67, 720.76 937.33, 720.85 938.0, 720.95 938.67, 721.05 939.33, 721.17 940.0, 721.28 940.67, 721.4 941.33, 721.53 942.0, 721.66 942.67, 721.8 943.33, 721.94 944.0, 722.09 944.67, 722.25 945.33, 722.41 946.0, 722.57 946.67, 722.74 947.33, 722.92 948.0, 723.1 948.67, 723.28 949.33, 723.48 950.0, 723.67 950.67, 723.88 951.33, 724.08 952.0, 724.3 952.67, 724.51 953.33, 724.74 954.0, 724.97 954.67, 725.2 955.33, 725.44 956.0, 725.68 956.67, 725.93 957.33, 726.19 958.0, 726.45 958.67, 726.71 959.33, 726.98 960.0, 727.26 960.67, 727.54 961.33, 727.82 962.0, 728.11 962.67, 728.41 963.33, 728.71 964.0, 729.01 964.67, 729.32 965.33, 729.64 966.0, 729.96 966.67, 730.28 967.33, 730.61 968.0, 730.94 968.67, 731.28 969.33, 731.63 970.0, 731.97 970.67, 732.33 971.33, 732.69 972.0, 733.05 972.67, 733.42 973.33, 733.79 974.0, 734.16 974.67, 734.54 975.33, 734.93 976.0, 735.32 976.67, 735.71 977.33, 736.11 978.0, 736.52 978.67, 736.93 979.33, 737.34 980.0, 737.75 980.67, 738.18 981.33, 738.6 982.0, 739.03 982.67, 739.46 983.33, 739.9 984.0, 740.34 984.67, 740.79 985.33, 741.24 986.0, 741.69 986.67, 742.15 987.33, 742.62 988.0, 743.08 988.67, 743.55 989.33, 744.03 990.0, 744.51 990.67, 744.99 991.33, 745.47 992.0, 745.96 992.67, 746.46 993.33, 746.95 994.0, 747.45 994.67, 747.96 995.33, 748.47 996.0, 748.98 996.67, 749.49 997.33, 750.01 998.0, 750.54 998.67, 751.06 999.33, 751.59 1000.0, 752.12 1000.67, 752.66 1001.33, 753.2 1002.0, 753.74 1002.67, 754.28 1003.33, 754.83 1004.0, 755.39 1004.67, 755.94 1005.33, 756.5 1006.0, 757.06 1006.67, 757.62 1007.33, 758.19 1008.0, 758.76 1008.67, 759.33 1009.33, 759.91 1010.0, 760.49 1010.67, 761.07 1011.33, 761.65 1012.0, 762.24 1012.67, 762.83 1013.33, 763.42 1014.0, 764.01 1014.67, 764.61 1015.33, 765.21 1016.0, 765.81 1016.67, 766.41 1017.33, 767.02 1018.0, 767.63 1018.67, 768.24 1019.33, 768.85 1020.0, 769.47 1020.67, 770.08 1021.33, 770.7 1022.0, 771.33 1022.67, 771.95 1023.33, 772.57 1024.0, 773.2 1024.67, 773.83 1025.33, 774.46 1026.0, 775.09 1026.67, 775.73 1027.33, 776.36 1028.0, 777.0 1028.67, 777.64 1029.33, 778.28 1030.0, 778.92 1030.67, 779.57 1031.33, 780.21 1032.0, 780.86 1032.67, 781.51 1033.33, 782.16 1034.0, 782.81 1034.67, 783.46 1035.33, 784.11 1036.0, 784.77 1036.67, 785.42 1037.33, 786.08 1038.0, 786.73 1038.67, 787.39 1039.33, 788.05 1040.0, 788.71 1040.67, 789.37 1041.33, 790.03 1042.0, 790.69 1042.67, 791.36 1043.33, 792.02 1044.0, 792.68 1044.67, 793.35 1045.33, 794.01 1046.0, 794.68 1046.67, 795.34 1047.33, 796.01 1048.0, 796.67 1048.67, 797.34 1049.33, 798.01 1050.0, 798.67 1050.67, 799.34 1051.33, 800.01 1052.0, 800.67 1052.67, 801.34 1053.33, 802.01 1054.0, 802.67 1054.67, 803.34 1055.33, 804.0 1056.0, 804.67 1056.67, 805.34 1057.33, 806.0 1058.0, 806.66 1058.67, 807.33 1059.33, 807.99 1060.0, 808.66 1060.67, 809.32 1061.33, 809.98 1062.0, 810.64 1062.67, 811.3 1063.33, 811.96 1064.0, 812.62 1064.67, 813.28 1065.33, 813.93 1066.0, 814.59 1066.67, 815.25 1067.33, 815.9 1068.0, 816.55 1068.67, 817.2 1069.33, 817.85 1070.0, 818.5 1070.67, 819.15 1071.33, 819.8 1072.0, 820.44 1072.67, 821.09 1073.33, 821.73 1074.0, 822.37 1074.67, 823.01 1075.33, 823.65 1076.0, 824.28 1076.67, 824.92 1077.33, 825.55 1078.0, 826.18 1078.67, 826.81 1079.33, 827.44 1080.0, 828.06 1080.67, 828.69 1081.33, 829.31 1082.0, 829.93 1082.67, 830.54 1083.33, 831.16 1084.0, 831.77 1084.67, 832.38 1085.33, 832.99 1086.0, 833.6 1086.67, 834.2 1087.33, 834.8 1088.0, 835.4 1088.67, 836.0 1089.33, 836.59 1090.0, 837.18 1090.67, 837.77 1091.33, 838.36 1092.0, 838.94 1092.67, 839.52 1093.33, 840.1 1094.0, 840.68 1094.67, 841.25 1095.33, 841.82 1096.0, 842.39 1096.67, 842.95 1097.33, 843.51 1098.0, 844.07 1098.67, 844.62 1099.33, 845.18 1100.0, 845.72 1100.67, 846.27 1101.33, 846.81 1102.0, 847.35 1102.67, 847.89 1103.33, 848.42 1104.0, 848.95 1104.67, 849.47 1105.33, 850.0 1106.0, 850.52 1106.67, 851.03 1107.33, 851.54 1108.0, 852.05 1108.67, 852.55 1109.33, 853.06 1110.0, 853.55 1110.67, 854.05 1111.33, 854.54 1112.0, 855.02 1112.67, 855.5 1113.33, 855.98 1114.0, 856.46 1114.67, 856.93 1115.33, 857.39 1116.0, 857.85 1116.67, 858.31 1117.33, 858.77 1118.0, 859.22 1118.67, 859.66 1119.33, 860.11 1120.0, 860.54 1120.67, 860.98 1121.33, 861.41 1122.0, 861.83 1122.67, 862.25 1123.33, 862.67 1124.0, 863.08 1124.67, 863.49 1125.33, 863.89 1126.0, 864.29 1126.67, 864.69 1127.33, 865.08 1128.0, 865.46 1128.67, 865.84 1129.33, 866.22 1130.0, 866.59 1130.67, 866.96 1131.33, 867.32 1132.0, 867.68 1132.67, 868.03 1133.33, 868.38 1134.0, 868.72 1134.67, 869.06 1135.33, 869.4 1136.0, 869.73 1136.67, 870.05 1137.33, 870.37 1138.0, 870.68 1138.67, 870.99 1139.33, 871.3 1140.0, 871.6 1140.67, 871.89 1141.33, 872.18 1142.0, 872.47 1142.67, 872.75 1143.33, 873.02 1144.0, 873.29 1144.67, 873.56 1145.33, 873.82 1146.0, 874.07 1146.67, 874.32 1147.33, 874.56 1148.0, 874.8 1148.67, 875.04 1149.33, 875.27 1150.0, 875.49 1150.67, 875.71 1151.33, 875.92 1152.0, 876.13 1152.67, 876.33 1153.33, 876.53 1154.0, 876.72 1154.67, 876.9 1155.33, 877.09 1156.0, 877.26 1156.67, 877.43 1157.33, 877.6 1158.0, 877.76 1158.67, 877.91 1159.33, 878.06 1160.0, 878.2 1160.67, 878.34 1161.33, 878.47 1162.0, 878.6 1162.67, 878.72 1163.33, 878.84 1164.0, 878.95 1164.67, 879.05 1165.33, 879.15 1166.0, 879.24 1166.67, 879.33 1167.33, 879.42 1168.0, 879.49 1168.67, 879.57 1169.33, 879.63 1170.0, 879.69 1170.67, 879.75 1171.33, 879.8 1172.0, 879.84 1172.67, 879.88 1173.33, 879.91 1174.0, 879.94 1174.67, 879.96 1175.33, 879.98 1176.0, 879.99 1176.67, 880.0 1177.33, 880.0 1178.0, 879.99 1178.67, 879.98 1179.33, 879.96 1180.0, 879.94 1180.67, 879.91 1181.33, 879.88 1182.0, 879.84 1182.67, 879.79 1183.33, 879.74 1184.0, 879.69 1184.67, 879.63 1185.33, 879.56 1186.0, 879.49 1186.67, 879.41 1187.33, 879.33 1188.0, 879.24 1188.67, 879.14 1189.33, 879.04 1190.0, 878.94 1190.67, 878.83 1191.33, 878.71 1192.0, 878.59 1192.67, 878.46 1193.33, 878.33 1194.0, 878.19 1194.67, 878.05 1195.33, 877.9 1196.0, 877.74 1196.67, 877.58 1197.33, 877.42 1198.0, 877.25 1198.67, 877.07 1199.33, 876.89 1200.0, 876.7 1200.67, 876.51 1201.33, 876.32 1202.0, 876.11 1202.67, 875.9 1203.33, 875.69 1204.0, 875.47 1204.67, 875.25 1205.33, 875.02 1206.0, 874.79 1206.67, 874.55 1207.33, 874.3 1208.0, 874.05 1208.67, 873.8 1209.33, 873.54 1210.0, 873.27 1210.67, 873.0 1211.33, 872.73 1212.0, 872.45 1212.67, 872.16 1213.33, 871.87 1214.0, 871.57 1214.67, 871.27 1215.33, 870.97 1216.0, 870.66 1216.67, 870.34 1217.33, 870.02 1218.0, 869.7 1218.67, 869.37 1219.33, 869.03 1220.0, 868.69 1220.67, 868.35 1221.33, 868.0 1222.0, 867.64 1222.67, 867.29 1223.33, 866.92 1224.0, 866.55 1224.67, 866.18 1225.33, 865.8 1226.0, 865.42 1226.67, 865.04 1227.33, 864.64 1228.0, 864.25 1228.67, 863.85 1229.33, 863.44 1230.0, 863.04 1230.67, 862.62 1231.33, 862.2 1232.0, 861.78 1232.67, 861.36 1233.33, 860.92 1234.0, 860.49 1234.67, 860.05 1235.33, 859.61 1236.0, 859.16 1236.67, 858.71 1237.33, 858.25 1238.0, 857.79 1238.67, 857.33 1239.33, 856.86 1240.0, 856.39 1240.67, 855.91 1241.33, 855.43 1242.0, 854.95 1242.67, 854.46 1243.33, 853.97 1244.0, 853.47 1244.67, 852.97 1245.33, 852.47 1246.0, 851.97 1246.67, 851.46 1247.33, 850.94 1248.0, 850.42 1248.67, 849.9 1249.33, 849.38 1250.0, 848.85 1250.67, 848.32 1251.33, 847.78 1252.0, 847.25 1252.67, 846.7 1253.33, 846.16 1254.0, 845.61 1254.67, 845.06 1255.33, 844.5 1256.0, 843.95 1256.67, 843.39 1257.33, 842.82 1258.0, 842.25 1258.67, 841.68 1259.33, 841.11 1260.0, 840.53 1260.67, 839.96 1261.33, 839.37 1262.0, 838.79 1262.67, 838.2 1263.33, 837.61 1264.0, 837.02 1264.67, 836.42 1265.33, 835.82 1266.0, 835.22 1266.67, 834.62 1267.33, 834.01 1268.0, 833.4 1268.67, 832.79 1269.33, 832.18 1270.0, 831.56 1270.67, 830.95 1271.33, 830.33 1272.0, 829.7 1272.67, 829.08 1273.33, 828.45 1274.0, 827.82 1274.67, 827.19 1275.33, 826.56 1276.0, 825.92 1276.67, 825.28 1277.33, 824.65 1278.0, 824.0 1278.67, 823.36 1279.33, 822.72 1280.0, 822.07 1280.67, 821.42 1281.33, 820.77 1282.0, 820.12 1282.67, 819.47 1283.33, 818.81 1284.0, 818.15 1284.67, 817.5 1285.33, 816.84 1286.0, 816.18 1286.67, 815.51 1287.33, 814.85 1288.0, 814.19 1288.67, 813.52 1289.33, 812.85 1290.0, 812.18 1290.67, 811.51 1291.33, 810.84 1292.0, 810.17 1292.67, 809.5 1293.33, 808.83 1294.0, 808.15 1294.67, 807.48 1295.33, 806.8 1296.0, 806.12 1296.67, 805.44 1297.33, 804.77 1298.0, 804.09 1298.67, 803.41 1299.33, 802.73 1300.0, 802.04 1300.67, 801.36 1301.33, 800.68 1302.0, 800.0 1302.67, 799.31 1303.33, 798.63 1304.0, 797.95 1304.67, 797.26 1305.33, 796.58 1306.0, 795.89 1306.67, 795.21 1307.33, 794.52 1308.0, 793.84 1308.67, 793.15 1309.33, 792.47 1310.0, 791.78 1310.67, 791.09 1311.33, 790.41 1312.0, 789.72 1312.67, 789.04 1313.33, 788.35 1314.0, 787.67 1314.67, 786.98 1315.33, 786.3 1316.0, 785.61 1316.67, 784.93 1317.33, 784.25 1318.0, 783.56 1318.67, 782.88 1319.33, 782.2 1320.0, 781.52 1320.67, 780.83 1321.33, 780.15 1322.0, 779.47 1322.67, 778.79 1323.33, 778.11 1324.0, 777.44 1324.67, 776.76 1325.33, 776.08 1326.0, 775.4 1326.67, 774.73 1327.33, 774.05 1328.0, 773.38 1328.67, 772.71 1329.33, 772.03 1330.0, 771.36 1330.67, 770.69 1331.33, 770.02 1332.0, 769.35 1332.67, 768.69 1333.33, 768.02 1334.0, 767.35 1334.67, 766.69 1335.33, 766.03 1336.0, 765.36 1336.67, 764.7 1337.33, 764.04 1338.0, 763.38 1338.67, 762.72 1339.33, 762.07 1340.0, 761.41 1340.67, 760.76 1341.33, 760.1 1342.0, 759.45 1342.67, 758.8 1343.33, 758.15 1344.0, 757.5 1344.67, 756.86 1345.33, 756.21 1346.0, 755.57 1346.67, 754.92 1347.33, 754.28 1348.0, 753.64 1348.67, 753.0 1349.33, 752.36 1350.0, 751.73 1350.67, 751.09 1351.33, 750.46 1352.0, 749.82 1352.67, 749.19 1353.33, 748.56 1354.0, 747.93 1354.67, 747.31 1355.33, 746.68 1356.0, 746.06 1356.67, 745.43 1357.33, 744.81 1358.0, 744.19 1358.67, 743.57 1359.33, 742.95 1360.0, 742.33 1360.67, 741.72 1361.33, 741.1 1362.0, 740.49 1362.67, 739.88 1363.33, 739.27 1364.0, 738.66 1364.67, 738.05 1365.33, 737.44 1366.0, 736.84 1366.67, 736.23 1367.33, 735.63 1368.0, 735.02 1368.67, 734.42 1369.33, 733.82 1370.0, 733.22 1370.67, 732.62 1371.33, 732.02 1372.0, 731.42 1372.67, 730.83 1373.33, 730.23 1374.0, 729.64 1374.67, 729.04 1375.33, 728.45 1376.0, 727.86 1376.67, 727.26 1377.33, 726.67 1378.0, 726.08 1378.67, 725.49 1379.33, 724.9 1380.0, 724.31 1380.67, 723.72 1381.33, 723.13 1382.0, 722.54 1382.67, 721.95 1383.33, 721.36 1384.0, 720.77 1384.67, 720.18 1385.33, 719.59 1386.0, 719.0 1386.67, 718.41 1387.33, 717.82 1388.0, 717.23 1388.67, 716.64 1389.33, 716.04 1390.0, 715.45 1390.67, 714.86 1391.33, 714.26 1392.0, 713.67 1392.67, 713.07 1393.33, 712.47 1394.0, 711.87 1394.67, 711.27 1395.33, 710.67 1396.0, 710.07 1396.67, 709.46 1397.33, 708.85 1398.0, 708.25 1398.67, 707.64 1399.33, 707.02 1400.0, 706.41 1400.67, 705.79 1401.33, 705.17 1402.0, 704.55 1402.67, 703.92 1403.33, 703.3 1404.0, 702.66 1404.67, 702.03 1405.33, 701.39 1406.0, 700.75 1406.67, 700.11 1407.33, 699.46 1408.0, 698.81 1408.67, 698.15 1409.33, 697.49 1410.0, 696.83 1410.67, 696.16 1411.33, 695.49 1412.0, 694.81 1412.67, 694.12 1413.33, 693.44 1414.0, 692.74 1414.67, 692.04 1415.33, 691.34 1416.0, 690.62 1416.67, 689.91 1417.33, 689.18 1418.0, 688.45 1418.67, 687.71 1419.33, 686.97 1420.0, 686.22 1420.67, 685.46 1421.33, 684.69 1422.0, 683.92 1422.67, 683.13 1423.33, 682.34 1424.0, 681.54 1424.67, 680.73 1425.33, 679.91 1426.0, 679.09 1426.67, 678.25 1427.33, 677.4 1428.0, 676.54 1428.67, 675.68 1429.33, 674.8 1430.0, 673.91 1430.67, 673.0 1431.33, 672.09 1432.0, 671.17 1432.67, 670.23 1433.33, 669.28 1434.0, 668.32 1434.67, 667.34 1435.33, 666.35 1436.0, 665.35 1436.67, 664.33 1437.33, 663.29 1438.0, 662.25 1438.67, 661.18 1439.33, 660.1 1440.0, 659.01 1440.67, 657.9 1441.33, 656.77 1442.0, 655.62 1442.67, 654.46 1443.33, 653.28 1444.0, 652.08 1444.67, 650.86 1445.33, 649.62 1446.0, 648.36 1446.67, 647.08 1447.33, 645.78 1448.0, 644.46 1448.67, 643.12 1449.33, 641.75 1450.0, 640.37 1450.67, 638.96 1451.33, 637.52 1452.0, 636.07 1452.67, 634.58 1453.33, 633.08 1454.0, 631.54 1454.67, 629.98 1455.33, 628.4 1456.0, 626.79 1456.67, 625.14 1457.33, 623.47 1458.0, 621.78 1458.67, 620.05 1459.33, 618.29 1460.0, 616.5 1460.67, 614.68 1461.33, 612.83 1462.0, 610.94 1462.67, 609.02 1463.33, 607.07 1464.0, 605.08 1464.67, 603.06 1465.33, 601.0 1466.0, 598.9 1466.67, 596.77 1467.33, 594.59 1468.0, 592.38 1468.67, 590.13 1469.33, 587.84 1470.0, 585.51 1470.67, 583.13 1471.33, 580.71 1472.0, 578.25 1472.67, 575.74 1473.33, 573.19 1474.0, 570.6 1474.67, 567.95 1475.33, 565.26 1476.0, 562.52 1476.67, 559.72 1477.33, 556.88 1478.0, 553.99 1478.67, 551.04 1479.33, 548.04 1480.0, 544.99 1480.67, 541.88 1481.33, 538.71 1482.0, 535.49 1482.67, 532.2 1483.33, 528.86 1484.0, 525.46 1484.67, 521.99 1485.33, 518.47 1486.0, 514.87 1486.67, 511.22 1487.33, 507.49 1488.0, 503.7 1488.67, 499.84 1489.33, 495.92 1490.0, 491.92 1490.67, 487.84 1491.33, 483.7 1492.0, 479.48 1492.67, 475.18 1493.33, 470.81 1494.0, 466.36 1494.67, 461.82 1495.33, 457.21 1496.0, 452.51 1496.67, 447.73 1497.33, 442.86 1498.0, 437.91 1498.67, 432.87 1499.33, 427.73 1500.0, 422.51 1500.67, 417.19 1501.33, 411.78 1502.0, 406.27 1502.67, 400.66 1503.33, 394.96 1504.0, 389.15 1504.67, 383.24 1505.33, 377.23 1506.0, 371.1 1506.67, 364.87 1507.33, 358.53 1508.0, 352.08 1508.67, 345.52 1509.33, 338.84 1510.0, 332.04 1510.67, 325.13 1511.33, 318.09 1512.0, 310.93 1512.67, 303.64 1513.33, 296.23 1514.0, 288.69 1514.67, 281.01 1515.33, 273.21 1516.0, 265.27 1516.67, 257.19 1517.33, 248.97 1518.0, 240.6 1518.67, 232.1 1519.33, 223.45 1520.0, 214.64 1520.67, 205.69 1521.33, 196.58 1522.0, 187.32 1522.67, 177.9 1523.33, 168.32 1524.0, 158.57 1524.67, 148.66 1525.33, 138.58 1526.0, 128.32 1526.67, 117.89 1527.33, 107.29 1528.0, 96.51 1528.67, 85.54 1529.33, 74.39 1530.0, 63.05 1530.67, 51.52 1531.33, 39.79 1532.0, 27.87 1532.67, 15.74 1533.33, 3.42 1534.0, -9.11 1534.67, -21.86 1535.33, -34.81 1536.0, -47.98 1536.67, -61.37 1537.33, -74.98 1538.0, -88.82 1538.67, -102.89 1539.33, -117.19 1540.0, -131.73 1540.67, -146.5 1541.33, -161.52 1542.0, -176.79 1542.67, -192.31 1543.33, -208.09 1544.0, -224.12 1544.67, -240.42 1545.33, -256.98 1546.0, -273.81 1546.67, -290.92 1547.33, -308.3 1548.0, -325.97 1548.67, -343.93 1549.33, -362.18 1550.0, -380.72 1550.67, -399.56 1551.33, -418.71 1552.0, -438.17 1552.67, -457.94 1553.33, -478.03 1554.0, -498.44 1554.67, -519.18 1555.33, -540.26 1556.0, -561.67 1556.67, -583.42 1557.33, -605.52 1558.0, -627.97 1558.67, -650.78 1559.33, -673.96 1560.0, -697.5 1560.67, -721.41 1561.33, -745.71 1562.0, -770.39 1562.67, -795.46 1563.33, -820.92 1564.0, -846.79 1564.67, -873.07 1565.33, -899.75 1566.0, -926.86 1566.67, -954.39 1567.33, -982.36 1568.0, -1010.76 1568.67, -1039.61 1569.33, -1068.9 1570.0, -1098.66 1570.67, -1128.87 1571.33, -1159.56 1572.0, -1190.73 1572.67, -1222.37 1573.33, -1254.51 1574.0, -1287.15 1574.67, -1320.29 1575.33, -1353.94 1576.0, -1388.11 1576.67, -1422.81 1577.33, -1458.04 1578.0, -1493.82 1578.67, -1530.14 1579.33, -1567.02 1580.0, -1604.47 1580.67, -1642.48 1581.33, -1681.08 1582.0, -1720.27 1582.67, -1760.05 1583.33, -1800.45 1584.0, -1841.45 1584.67, -1883.08 1585.33, -1925.34 1586.0, -1968.24 1586.67, -2011.79 1587.33, -2056.0 1588.0, -2100.87 1588.67, -2146.43 1589.33, -2192.67 1590.0, -2239.6 1590.67, -2287.24 1591.33, -2335.6 1592.0, -2384.68 1592.67, -2434.5 1593.33, -2485.07 1594.0, -2536.39 1594.67, -2588.47 1595.33, -2641.34 1596.0, -2694.99 1596.67, -2749.44 1597.33, -2804.69 1598.0, -2860.77 1598.67, -2917.69 1599.33, -2975.44 1600.0, -3034.05 " fill="none" stroke="white" stroke-width="1.5" stroke-linejoin="round" stroke-opacity="1"/>

 </svg>