<svg version="1.1" 
 baseProfile="full" 
 width="1600" 
 height="1600" 
 xmlns="http://www.w3.org/2000/svg">
<rect x="0.0" y="0.0" width="1600" height="1600" fill="black" stroke="black" stroke-width="0" opacity="1"/>
<line x1="0.0" y1="0.0" x2="0.0" y2="1600.0" stroke="white" stroke-width="1" opacity="0.4" stroke-linecap="butt"/>
<line x1="160.0" y1="0.0" x2="160.0" y2="1600.0" stroke="white" stroke-width="1" opacity="0.4" stroke-linecap="butt"/>
<line x1="320.0" y1="0.0" x2="320.0" y2="1600.0" stroke="white" stroke-width="1" opacity="0.4" stroke-linecap="butt"/>
<line x1="480.0" y1="0.0" x2="480.0" y2="1600.0" stroke="white" stroke-width="1" opacity="0.4" stroke-linecap="butt"/>
<line x1="640.0" y1="0.0" x2="640.0" y2="1600.0" stroke="white" stroke-width="1" opacity="0.4" stroke-linecap="butt"/>
<line x1="800.0" y1="0.0" x2="800.0" y2="1600.0" stroke="white" stroke-width="1" opacity="0.4" stroke-linecap="butt"/>
<line x1="960.0" y1="0.0" x2="960.0" y2="1600.0" stroke="white" stroke-width="1" opacity="0.4" stroke-linecap="butt"/>
<line x1="1120.0" y1="0.0" x2="1120.0" y2="1600.0" stroke="white" stroke-width="1" opacity="0.4" stroke-linecap="butt"/>
<line x1="1280.0" y1="0.0" x2="1280.0" y2="1600.0" stroke="white" stroke-width="1" opacity="0.4" stroke-linecap="butt"/>
<line x1="1440.0" y1="0.0" x2="1440.0" y2="1600.0" stroke="white" stroke-width="1" opacity="0.4" stroke-linecap="butt"/>
<line x1="0.0" y1="0.0" x2="1600.0" y2="0.0" stroke="white" stroke-width="1" opacity="0.4" stroke-linecap="butt"/>
<line x1="0.0" y1="160.0" x2="1600.0" y2="160.0" stroke="white" stroke-width="1" opacity="0.4" stroke-linecap="butt"/>
<line x1="0.0" y1="320.0" x2="1600.0" y2="320.0" stroke="white" stroke-width="1" opacity="0.4" stroke-linecap="butt"/>
<line x1="0.0" y1="480.0" x2="1600.0" y2="480.0" stroke="white" stroke-width="1" opacity="0.4" stroke-linecap="butt"/>
<line x1="0.0" y1="640.0" x2="1600.0" y2="640.0" stroke="white" stroke-width="1" opacity="0.4" stroke-linecap="butt"/>
<line x1="0.0" y1="800.0" x2="1600.0" y2="800.0" stroke="white" stroke-width="1" opacity="0.4" stroke-linecap="butt"/>
<line x1="0.0" y1="960.0" x2="1600.0" y2="960.0" stroke="white" stroke-width="1" opacity="0.4" stroke-linecap="butt"/>
<line x1="0.0" y1="1120.0" x2="1600.0" y2="1120.0" stroke="white" stroke-width="1" opacity="0.4" stroke-linecap="butt"/>
<line x1="0.0" y1="1280.0" x2="1600.0" y2="1280.0" stroke="white" stroke-width="1" opacity="0.4" stroke-linecap="butt"/>
<line x1="0.0" y1="1440.0" x2="1600.0" y2="1440.0" stroke="white" stroke-width="1" opacity="0.4" stroke-linecap="butt"/>
<line x1="0.0" y1="800.0" x2="1600.0" y2="800.0" stroke="yellow" stroke-width="2.5" opacity="1" stroke-linecap="butt"/>
<line x1="800.0" y1="0.0" x2="800.0" y2="1600.0" stroke="yellow" stroke-width="2.5" opacity="1" stroke-linecap="butt"/>
<polygon points="1564.0 816.0, 1604.0 800.0, 1564.0 784.0, 1572.0 800.0" fill="yellow"/><polygon points="816.0 36.0, 800.0 -4.0, 784.0 36.0, 800.0 28.0" fill="yellow"/><polyline points="0.0, 3400.96 0.67, 3361.72 1.33, 3323.06 2.0, 3284.95 2.67, 3247.4 3.33, 3210.38 4.0, 3173.91 4.67, 3137.96 5.33, 3102.54 6.0, 3067.63 6.67, 3033.24 7.33, 2999.34 8.0, 2965.94 8.67, 2933.03 9.33, 2900.6 10.0, 2868.64 10.67, 2837.16 11.33, 2806.13 12.0, 2775.57 12.67, 2745.45 13.33, 2715.78 14.0, 2686.55 14.67, 2657.75 15.33, 2629.38 16.0, 2601.43 16.67, 2573.89 17.33, 2546.76 18.0, 2520.04 18.67, 2493.71 19.33, 2467.78 20.0, 2442.24 20.67, 2417.08 21.33, 2392.29 22.0, 2367.88 22.67, 2343.83 23.33, 2320.15 24.0, 2296.82 24.67, 2273.85 25.33, 2251.22 26.0, 2228.94 26.67, 2206.99 27.33, 2185.38 28.0, 2164.09 28.67, 2143.13 29.33, 2122.48 30.0, 2102.16 30.67, 2082.14 31.33, 2062.43 32.0, 2043.02 32.67, 2023.91 33.33, 2005.09 34.0, 1986.56 34.67, 1968.32 35.33, 1950.36 36.0, 1932.68 36.67, 1915.26 37.33, 1898.12 38.0, 1881.25 38.67, 1864.64 39.33, 1848.28 40.0, 1832.19 40.67, 1816.34 41.33, 1800.74 42.0, 1785.38 42.67, 1770.27 43.33, 1755.39 44.0, 1740.74 44.67, 1726.33 45.33, 1712.14 46.0, 1698.18 46.67, 1684.44 47.33, 1670.92 48.0, 1657.61 48.67, 1644.51 49.33, 1631.62 50.0, 1618.94 50.67, 1606.45 51.33, 1594.17 52.0, 1582.09 52.67, 1570.19 53.33, 1558.49 54.0, 1546.98 54.67, 1535.65 55.33, 1524.51 56.0, 1513.54 56.67, 1502.75 57.33, 1492.14 58.0, 1481.7 58.67, 1471.43 59.33, 1461.32 60.0, 1451.38 60.67, 1441.61 61.33, 1431.99 62.0, 1422.53 62.67, 1413.22 63.33, 1404.07 64.0, 1395.07 64.67, 1386.22 65.33, 1377.51 66.0, 1368.95 66.67, 1360.53 67.33, 1352.24 68.0, 1344.1 68.67, 1336.09 69.33, 1328.22 70.0, 1320.47 70.67, 1312.86 71.33, 1305.37 72.0, 1298.01 72.67, 1290.77 73.33, 1283.65 74.0, 1276.66 74.67, 1269.78 75.33, 1263.02 76.0, 1256.37 76.67, 1249.83 77.33, 1243.41 78.0, 1237.09 78.67, 1230.88 79.33, 1224.78 80.0, 1218.78 80.67, 1212.89 81.33, 1207.09 82.0, 1201.4 82.67, 1195.8 83.33, 1190.3 84.0, 1184.89 84.67, 1179.58 85.33, 1174.36 86.0, 1169.23 86.67, 1164.18 87.33, 1159.23 88.0, 1154.36 88.67, 1149.58 89.33, 1144.88 90.0, 1140.26 90.67, 1135.72 91.33, 1131.26 92.0, 1126.88 92.67, 1122.58 93.33, 1118.35 94.0, 1114.19 94.67, 1110.11 95.33, 1106.1 96.0, 1102.17 96.67, 1098.3 97.33, 1094.5 98.0, 1090.76 98.67, 1087.1 99.33, 1083.5 100.0, 1079.96 100.67, 1076.48 101.33, 1073.07 102.0, 1069.72 102.67, 1066.43 103.33, 1063.19 104.0, 1060.02 104.67, 1056.9 105.33, 1053.84 106.0, 1050.83 106.67, 1047.87 107.33, 1044.97 108.0, 1042.12 108.67, 1039.33 109.33, 1036.58 110.0, 1033.88 110.67, 1031.23 111.33, 1028.63 112.0, 1026.08 112.67, 1023.57 113.33, 1021.1 114.0, 1018.68 114.67, 1016.31 115.33, 1013.98 116.0, 1011.69 116.67, 1009.44 117.33, 1007.23 118.0, 1005.06 118.67, 1002.93 119.33, 1000.84 120.0, 998.79 120.67, 996.77 121.33, 994.79 122.0, 992.84 122.67, 990.94 123.33, 989.06 124.0, 987.22 124.67, 985.41 125.33, 983.63 126.0, 981.89 126.67, 980.18 127.33, 978.5 128.0, 976.84 128.67, 975.22 129.33, 973.63 130.0, 972.06 130.67, 970.52 131.33, 969.01 132.0, 967.53 132.67, 966.07 133.33, 964.64 134.0, 963.23 134.67, 961.85 135.33, 960.49 136.0, 959.15 136.67, 957.84 137.33, 956.55 138.0, 955.29 138.67, 954.04 139.33, 952.82 140.0, 951.61 140.67, 950.43 141.33, 949.27 142.0, 948.12 142.67, 947.0 143.33, 945.89 144.0, 944.81 144.67, 943.74 145.33, 942.68 146.0, 941.65 146.67, 940.63 147.33, 939.63 148.0, 938.64 148.67, 937.67 149.33, 936.71 150.0, 935.77 150.67, 934.85 151.33, 933.94 152.0, 933.04 152.67, 932.15 153.33, 931.28 154.0, 930.42 154.67, 929.58 155.33, 928.74 156.0, 927.92 156.67, 927.11 157.33, 926.31 158.0, 925.52 158.67, 924.74 159.33, 923.98 160.0, 923.22 160.67, 922.47 161.33, 921.74 162.0, 921.01 162.67, 920.29 163.33, 919.58 164.0, 918.88 164.67, 918.19 165.33, 917.5 166.0, 916.83 166.67, 916.16 167.33, 915.5 168.0, 914.84 168.67, 914.19 169.33, 913.55 170.0, 912.92 170.67, 912.29 171.33, 911.67 172.0, 911.05 172.67, 910.44 173.33, 909.84 174.0, 909.24 174.67, 908.65 175.33, 908.06 176.0, 907.47 176.67, 906.89 177.33, 906.32 178.0, 905.75 178.67, 905.18 179.33, 904.62 180.0, 904.06 180.67, 903.51 181.33, 902.95 182.0, 902.41 182.67, 901.86 183.33, 901.32 184.0, 900.78 184.67, 900.24 185.33, 899.71 186.0, 899.18 186.67, 898.65 187.33, 898.12 188.0, 897.6 188.67, 897.07 189.33, 896.55 190.0, 896.03 190.67, 895.52 191.33, 895.0 192.0, 894.49 192.67, 893.97 193.33, 893.46 194.0, 892.95 194.67, 892.44 195.33, 891.93 196.0, 891.42 196.67, 890.91 197.33, 890.4 198.0, 889.9 198.67, 889.39 199.33, 888.88 200.0, 888.38 200.67, 887.87 201.33, 887.37 202.0, 886.86 202.67, 886.35 203.33, 885.85 204.0, 885.34 204.67, 884.84 205.33, 884.33 206.0, 883.82 206.67, 883.31 207.33, 882.8 208.0, 882.29 208.67, 881.78 209.33, 881.27 210.0, 880.76 210.67, 880.25 211.33, 879.74 212.0, 879.22 212.67, 878.71 213.33, 878.19 214.0, 877.67 214.67, 877.15 215.33, 876.63 216.0, 876.11 216.67, 875.59 217.33, 875.06 218.0, 874.54 218.67, 874.01 219.33, 873.48 220.0, 872.95 220.67, 872.42 221.33, 871.89 222.0, 871.36 222.67, 870.82 223.33, 870.28 224.0, 869.74 224.67, 869.2 225.33, 868.66 226.0, 868.12 226.67, 867.57 227.33, 867.02 228.0, 866.47 228.67, 865.92 229.33, 865.37 230.0, 864.81 230.67, 864.26 231.33, 863.7 232.0, 863.14 232.67, 862.57 233.33, 862.01 234.0, 861.44 234.67, 860.88 235.33, 860.31 236.0, 859.73 236.67, 859.16 237.33, 858.58 238.0, 858.01 238.67, 857.43 239.33, 856.84 240.0, 856.26 240.67, 855.67 241.33, 855.09 242.0, 854.5 242.67, 853.91 243.33, 853.31 244.0, 852.72 244.67, 852.12 245.33, 851.52 246.0, 850.92 246.67, 850.32 247.33, 849.71 248.0, 849.11 248.67, 848.5 249.33, 847.89 250.0, 847.28 250.67, 846.66 251.33, 846.05 252.0, 845.43 252.67, 844.81 253.33, 844.19 254.0, 843.57 254.67, 842.94 255.33, 842.31 256.0, 841.69 256.67, 841.06 257.33, 840.43 258.0, 839.79 258.67, 839.16 259.33, 838.52 260.0, 837.88 260.67, 837.24 261.33, 836.6 262.0, 835.96 262.67, 835.32 263.33, 834.67 264.0, 834.03 264.67, 833.38 265.33, 832.73 266.0, 832.08 266.67, 831.42 267.33, 830.77 268.0, 830.12 268.67, 829.46 269.33, 828.8 270.0, 828.14 270.67, 827.48 271.33, 826.82 272.0, 826.16 272.67, 825.5 273.33, 824.83 274.0, 824.17 274.67, 823.5 275.33, 822.83 276.0, 822.17 276.67, 821.5 277.33, 820.83 278.0, 820.16 278.67, 819.48 279.33, 818.81 280.0, 818.14 280.67, 817.47 281.33, 816.79 282.0, 816.12 282.67, 815.44 283.33, 814.77 284.0, 814.09 284.67, 813.41 285.33, 812.73 286.0, 812.06 286.67, 811.38 287.33, 810.7 288.0, 810.02 288.67, 809.34 289.33, 808.66 290.0, 807.98 290.67, 807.3 291.33, 806.62 292.0, 805.94 292.67, 805.26 293.33, 804.58 294.0, 803.9 294.67, 803.22 295.33, 802.54 296.0, 801.86 296.67, 801.18 297.33, 800.51 298.0, 799.83 298.67, 799.15 299.33, 798.47 300.0, 797.79 300.67, 797.12 301.33, 796.44 302.0, 795.76 302.67, 795.09 303.33, 794.41 304.0, 793.74 304.67, 793.06 305.33, 792.39 306.0, 791.72 306.67, 791.05 307.33, 790.38 308.0, 789.71 308.67, 789.04 309.33, 788.37 310.0, 787.7 310.67, 787.04 311.33, 786.37 312.0, 785.71 312.67, 785.05 313.33, 784.39 314.0, 783.73 314.67, 783.07 315.33, 782.41 316.0, 781.76 316.67, 781.1 317.33, 780.45 318.0, 779.8 318.67, 779.15 319.33, 778.5 320.0, 777.86 320.67, 777.21 321.33, 776.57 322.0, 775.93 322.67, 775.29 323.33, 774.65 324.0, 774.01 324.67, 773.38 325.33, 772.75 326.0, 772.12 326.67, 771.49 327.33, 770.87 328.0, 770.24 328.67, 769.62 329.33, 769.0 330.0, 768.38 330.67, 767.77 331.33, 767.16 332.0, 766.55 332.67, 765.94 333.33, 765.34 334.0, 764.73 334.67, 764.13 335.33, 763.54 336.0, 762.94 336.67, 762.35 337.33, 761.76 338.0, 761.17 338.67, 760.59 339.33, 760.01 340.0, 759.43 340.67, 758.86 341.33, 758.28 342.0, 757.71 342.67, 757.15 343.33, 756.59 344.0, 756.02 344.67, 755.47 345.33, 754.91 346.0, 754.36 346.67, 753.82 347.33, 753.27 348.0, 752.73 348.67, 752.19 349.33, 751.66 350.0, 751.13 350.67, 750.6 351.33, 750.08 352.0, 749.56 352.67, 749.04 353.33, 748.53 354.0, 748.02 354.67, 747.51 355.33, 747.01 356.0, 746.51 356.67, 746.01 357.33, 745.52 358.0, 745.04 358.67, 744.55 359.33, 744.07 360.0, 743.6 360.67, 743.13 361.33, 742.66 362.0, 742.19 362.67, 741.74 363.33, 741.28 364.0, 740.83 364.67, 740.38 365.33, 739.94 366.0, 739.5 366.67, 739.06 367.33, 738.63 368.0, 738.21 368.67, 737.79 369.33, 737.37 370.0, 736.96 370.67, 736.55 371.33, 736.14 372.0, 735.74 372.67, 735.35 373.33, 734.96 374.0, 734.57 374.67, 734.19 375.33, 733.81 376.0, 733.44 376.67, 733.07 377.33, 732.71 378.0, 732.35 378.67, 732.0 379.33, 731.65 380.0, 731.3 380.67, 730.96 381.33, 730.63 382.0, 730.3 382.67, 729.97 383.33, 729.65 384.0, 729.34 384.67, 729.03 385.33, 728.72 386.0, 728.42 386.67, 728.13 387.33, 727.84 388.0, 727.55 388.67, 727.27 389.33, 726.99 390.0, 726.72 390.67, 726.46 391.33, 726.2 392.0, 725.94 392.67, 725.7 393.33, 725.45 394.0, 725.21 394.67, 724.98 395.33, 724.75 396.0, 724.52 396.67, 724.31 397.33, 724.09 398.0, 723.88 398.67, 723.68 399.33, 723.48 400.0, 723.29 400.67, 723.11 401.33, 722.92 402.0, 722.75 402.67, 722.58 403.33, 722.41 404.0, 722.25 404.67, 722.1 405.33, 721.95 406.0, 721.81 406.67, 721.67 407.33, 721.54 408.0, 721.41 408.67, 721.29 409.33, 721.17 410.0, 721.06 410.67, 720.95 411.33, 720.85 412.0, 720.76 412.67, 720.67 413.33, 720.59 414.0, 720.51 414.67, 720.44 415.33, 720.37 416.0, 720.31 416.67, 720.25 417.33, 720.2 418.0, 720.16 418.67, 720.12 419.33, 720.09 420.0, 720.06 420.67, 720.04 421.33, 720.02 422.0, 720.01 422.67, 720.0 423.33, 720.0 424.0, 720.01 424.67, 720.02 425.33, 720.04 426.0, 720.06 426.67, 720.09 427.33, 720.12 428.0, 720.16 428.67, 720.2 429.33, 720.25 430.0, 720.31 430.67, 720.37 431.33, 720.43 432.0, 720.51 432.67, 720.58 433.33, 720.67 434.0, 720.76 434.67, 720.85 435.33, 720.95 436.0, 721.05 436.67, 721.16 437.33, 721.28 438.0, 721.4 438.67, 721.53 439.33, 721.66 440.0, 721.8 440.67, 721.94 441.33, 722.09 442.0, 722.24 442.67, 722.4 443.33, 722.57 444.0, 722.74 444.67, 722.91 445.33, 723.1 446.0, 723.28 446.67, 723.47 447.33, 723.67 448.0, 723.87 448.67, 724.08 449.33, 724.29 450.0, 724.51 450.67, 724.73 451.33, 724.96 452.0, 725.2 452.67, 725.44 453.33, 725.68 454.0, 725.93 454.67, 726.18 455.33, 726.44 456.0, 726.71 456.67, 726.98 457.33, 727.25 458.0, 727.53 458.67, 727.82 459.33, 728.11 460.0, 728.4 460.67, 728.7 461.33, 729.01 462.0, 729.32 462.67, 729.63 463.33, 729.95 464.0, 730.27 464.67, 730.6 465.33, 730.94 466.0, 731.28 466.67, 731.62 467.33, 731.97 468.0, 732.32 468.67, 732.68 469.33, 733.04 470.0, 733.41 470.67, 733.78 471.33, 734.16 472.0, 734.54 472.67, 734.92 473.33, 735.31 474.0, 735.71 474.67, 736.11 475.33, 736.51 476.0, 736.92 476.67, 737.33 477.33, 737.75 478.0, 738.17 478.67, 738.59 479.33, 739.02 480.0, 739.46 480.67, 739.89 481.33, 740.34 482.0, 740.78 482.67, 741.23 483.33, 741.69 484.0, 742.15 484.67, 742.61 485.33, 743.07 486.0, 743.54 486.67, 744.02 487.33, 744.5 488.0, 744.98 488.67, 745.46 489.33, 745.95 490.0, 746.45 490.67, 746.94 491.33, 747.45 492.0, 747.95 492.67, 748.46 493.33, 748.97 494.0, 749.48 494.67, 750.0 495.33, 750.53 496.0, 751.05 496.67, 751.58 497.33, 752.11 498.0, 752.65 498.67, 753.19 499.33, 753.73 500.0, 754.28 500.67, 754.82 501.33, 755.38 502.0, 755.93 502.67, 756.49 503.33, 757.05 504.0, 757.61 504.67, 758.18 505.33, 758.75 506.0, 759.32 506.67, 759.9 507.33, 760.48 508.0, 761.06 508.67, 761.64 509.33, 762.23 510.0, 762.82 510.67, 763.41 511.33, 764.0 512.0, 764.6 512.67, 765.2 513.33, 765.8 514.0, 766.4 514.67, 767.01 515.33, 767.62 516.0, 768.23 516.67, 768.84 517.33, 769.46 518.0, 770.07 518.67, 770.69 519.33, 771.31 520.0, 771.94 520.67, 772.56 521.33, 773.19 522.0, 773.82 522.67, 774.45 523.33, 775.08 524.0, 775.72 524.67, 776.35 525.33, 776.99 526.0, 777.63 526.67, 778.27 527.33, 778.91 528.0, 779.56 528.67, 780.2 529.33, 780.85 530.0, 781.5 530.67, 782.15 531.33, 782.8 532.0, 783.45 532.67, 784.1 533.33, 784.75 534.0, 785.41 534.67, 786.07 535.33, 786.72 536.0, 787.38 536.67, 788.04 537.33, 788.7 538.0, 789.36 538.67, 790.02 539.33, 790.68 540.0, 791.34 540.67, 792.01 541.33, 792.67 542.0, 793.34 542.67, 794.0 543.33, 794.66 544.0, 795.33 544.67, 796.0 545.33, 796.66 546.0, 797.33 546.67, 797.99 547.33, 798.66 548.0, 799.33 548.67, 799.99 549.33, 800.66 550.0, 801.33 550.67, 801.99 551.33, 802.66 552.0, 803.33 552.67, 803.99 553.33, 804.66 554.0, 805.32 554.67, 805.99 555.33, 806.65 556.0, 807.32 556.67, 807.98 557.33, 808.64 558.0, 809.31 558.67, 809.97 559.33, 810.63 560.0, 811.29 560.67, 811.95 561.33, 812.61 562.0, 813.27 562.67, 813.92 563.33, 814.58 564.0, 815.23 564.67, 815.89 565.33, 816.54 566.0, 817.19 566.67, 817.84 567.33, 818.49 568.0, 819.14 568.67, 819.79 569.33, 820.43 570.0, 821.08 570.67, 821.72 571.33, 822.36 572.0, 823.0 572.67, 823.64 573.33, 824.27 574.0, 824.91 574.67, 825.54 575.33, 826.17 576.0, 826.8 576.67, 827.43 577.33, 828.05 578.0, 828.67 578.67, 829.3 579.33, 829.92 580.0, 830.53 580.67, 831.15 581.33, 831.76 582.0, 832.37 582.67, 832.98 583.33, 833.59 584.0, 834.19 584.67, 834.79 585.33, 835.39 586.0, 835.99 586.67, 836.58 587.33, 837.17 588.0, 837.76 588.67, 838.35 589.33, 838.93 590.0, 839.51 590.67, 840.09 591.33, 840.67 592.0, 841.24 592.67, 841.81 593.33, 842.38 594.0, 842.94 594.67, 843.5 595.33, 844.06 596.0, 844.61 596.67, 845.17 597.33, 845.72 598.0, 846.26 598.67, 846.8 599.33, 847.34 600.0, 847.88 600.67, 848.41 601.33, 848.94 602.0, 849.46 602.67, 849.99 603.33, 850.51 604.0, 851.02 604.67, 851.53 605.33, 852.04 606.0, 852.55 606.67, 853.05 607.33, 853.54 608.0, 854.04 608.67, 854.53 609.33, 855.01 610.0, 855.49 610.67, 855.97 611.33, 856.45 612.0, 856.92 612.67, 857.38 613.33, 857.85 614.0, 858.31 614.67, 858.76 615.33, 859.21 616.0, 859.66 616.67, 860.1 617.33, 860.54 618.0, 860.97 618.67, 861.4 619.33, 861.82 620.0, 862.25 620.67, 862.66 621.33, 863.07 622.0, 863.48 622.67, 863.89 623.33, 864.29 624.0, 864.68 624.67, 865.07 625.33, 865.46 626.0, 865.84 626.67, 866.21 627.33, 866.58 628.0, 866.95 628.67, 867.31 629.33, 867.67 630.0, 868.03 630.67, 868.37 631.33, 868.72 632.0, 869.06 632.67, 869.39 633.33, 869.72 634.0, 870.04 634.67, 870.36 635.33, 870.68 636.0, 870.99 636.67, 871.29 637.33, 871.59 638.0, 871.89 638.67, 872.18 639.33, 872.46 640.0, 872.74 640.67, 873.02 641.33, 873.29 642.0, 873.55 642.67, 873.81 643.33, 874.07 644.0, 874.32 644.67, 874.56 645.33, 874.8 646.0, 875.03 646.67, 875.26 647.33, 875.49 648.0, 875.7 648.67, 875.92 649.33, 876.12 650.0, 876.33 650.67, 876.52 651.33, 876.72 652.0, 876.9 652.67, 877.08 653.33, 877.26 654.0, 877.43 654.67, 877.59 655.33, 877.75 656.0, 877.91 656.67, 878.06 657.33, 878.2 658.0, 878.34 658.67, 878.47 659.33, 878.6 660.0, 878.72 660.67, 878.83 661.33, 878.95 662.0, 879.05 662.67, 879.15 663.33, 879.24 664.0, 879.33 664.67, 879.42 665.33, 879.49 666.0, 879.57 666.67, 879.63 667.33, 879.69 668.0, 879.75 668.67, 879.8 669.33, 879.84 670.0, 879.88 670.67, 879.92 671.33, 879.94 672.0, 879.97 672.67, 879.98 673.33, 879.99 674.0, 880.0 674.67, 880.0 675.33, 879.99 676.0, 879.98 676.67, 879.97 677.33, 879.94 678.0, 879.92 678.67, 879.88 679.33, 879.84 680.0, 879.8 680.67, 879.75 681.33, 879.69 682.0, 879.63 682.67, 879.57 683.33, 879.49 684.0, 879.42 684.67, 879.33 685.33, 879.25 686.0, 879.15 686.67, 879.05 687.33, 878.95 688.0, 878.84 688.67, 878.72 689.33, 878.6 690.0, 878.47 690.67, 878.34 691.33, 878.2 692.0, 878.06 692.67, 877.91 693.33, 877.76 694.0, 877.6 694.67, 877.43 695.33, 877.26 696.0, 877.08 696.67, 876.9 697.33, 876.72 698.0, 876.53 698.67, 876.33 699.33, 876.13 700.0, 875.92 700.67, 875.71 701.33, 875.49 702.0, 875.26 702.67, 875.04 703.33, 874.8 704.0, 874.56 704.67, 874.32 705.33, 874.07 706.0, 873.82 706.67, 873.56 707.33, 873.29 708.0, 873.02 708.67, 872.75 709.33, 872.47 710.0, 872.18 710.67, 871.89 711.33, 871.6 712.0, 871.3 712.67, 870.99 713.33, 870.68 714.0, 870.37 714.67, 870.05 715.33, 869.72 716.0, 869.39 716.67, 869.06 717.33, 868.72 718.0, 868.38 718.67, 868.03 719.33, 867.68 720.0, 867.32 720.67, 866.96 721.33, 866.59 722.0, 866.22 722.67, 865.84 723.33, 865.46 724.0, 865.07 724.67, 864.68 725.33, 864.29 726.0, 863.89 726.67, 863.49 727.33, 863.08 728.0, 862.67 728.67, 862.25 729.33, 861.83 730.0, 861.4 730.67, 860.97 731.33, 860.54 732.0, 860.1 732.67, 859.66 733.33, 859.21 734.0, 858.76 734.67, 858.31 735.33, 857.85 736.0, 857.39 736.67, 856.92 737.33, 856.45 738.0, 855.98 738.67, 855.5 739.33, 855.02 740.0, 854.53 740.67, 854.04 741.33, 853.55 742.0, 853.05 742.67, 852.55 743.33, 852.05 744.0, 851.54 744.67, 851.03 745.33, 850.51 746.0, 849.99 746.67, 849.47 747.33, 848.94 748.0, 848.41 748.67, 847.88 749.33, 847.35 750.0, 846.81 750.67, 846.27 751.33, 845.72 752.0, 845.17 752.67, 844.62 753.33, 844.06 754.0, 843.51 754.67, 842.95 755.33, 842.38 756.0, 841.81 756.67, 841.25 757.33, 840.67 758.0, 840.1 758.67, 839.52 759.33, 838.94 760.0, 838.35 760.67, 837.77 761.33, 837.18 762.0, 836.59 762.67, 835.99 763.33, 835.4 764.0, 834.8 764.67, 834.2 765.33, 833.59 766.0, 832.99 766.67, 832.38 767.33, 831.77 768.0, 831.15 768.67, 830.54 769.33, 829.92 770.0, 829.3 770.67, 828.68 771.33, 828.06 772.0, 827.43 772.67, 826.8 773.33, 826.18 774.0, 825.54 774.67, 824.91 775.33, 824.28 776.0, 823.64 776.67, 823.0 777.33, 822.36 778.0, 821.72 778.67, 821.08 779.33, 820.44 780.0, 819.79 780.67, 819.15 781.33, 818.5 782.0, 817.85 782.67, 817.2 783.33, 816.55 784.0, 815.89 784.67, 815.24 785.33, 814.58 786.0, 813.93 786.67, 813.27 787.33, 812.61 788.0, 811.96 788.67, 811.3 789.33, 810.64 790.0, 809.97 790.67, 809.31 791.33, 808.65 792.0, 807.99 792.67, 807.32 793.33, 806.66 794.0, 805.99 794.67, 805.33 795.33, 804.66 796.0, 804.0 796.67, 803.33 797.33, 802.67 798.0, 802.0 798.67, 801.33 799.33, 800.67 800.0, 800.0 800.67, 799.33 801.33, 798.67 802.0, 798.0 802.67, 797.33 803.33, 796.67 804.0, 796.0 804.67, 795.34 805.33, 794.67 806.0, 794.01 806.67, 793.34 807.33, 792.68 808.0, 792.01 808.67, 791.35 809.33, 790.69 810.0, 790.03 810.67, 789.36 811.33, 788.7 812.0, 788.04 812.67, 787.39 813.33, 786.73 814.0, 786.07 814.67, 785.42 815.33, 784.76 816.0, 784.11 816.67, 783.45 817.33, 782.8 818.0, 782.15 818.67, 781.5 819.33, 780.85 820.0, 780.21 820.67, 779.56 821.33, 778.92 822.0, 778.28 822.67, 777.64 823.33, 777.0 824.0, 776.36 824.67, 775.72 825.33, 775.09 826.0, 774.46 826.67, 773.82 827.33, 773.2 828.0, 772.57 828.67, 771.94 829.33, 771.32 830.0, 770.7 830.67, 770.08 831.33, 769.46 832.0, 768.85 832.67, 768.23 833.33, 767.62 834.0, 767.01 834.67, 766.41 835.33, 765.8 836.0, 765.2 836.67, 764.6 837.33, 764.01 838.0, 763.41 838.67, 762.82 839.33, 762.23 840.0, 761.65 840.67, 761.06 841.33, 760.48 842.0, 759.9 842.67, 759.33 843.33, 758.75 844.0, 758.19 844.67, 757.62 845.33, 757.05 846.0, 756.49 846.67, 755.94 847.33, 755.38 848.0, 754.83 848.67, 754.28 849.33, 753.73 850.0, 753.19 850.67, 752.65 851.33, 752.12 852.0, 751.59 852.67, 751.06 853.33, 750.53 854.0, 750.01 854.67, 749.49 855.33, 748.97 856.0, 748.46 856.67, 747.95 857.33, 747.45 858.0, 746.95 858.67, 746.45 859.33, 745.96 860.0, 745.47 860.67, 744.98 861.33, 744.5 862.0, 744.02 862.67, 743.55 863.33, 743.08 864.0, 742.61 864.67, 742.15 865.33, 741.69 866.0, 741.24 866.67, 740.79 867.33, 740.34 868.0, 739.9 868.67, 739.46 869.33, 739.03 870.0, 738.6 870.67, 738.17 871.33, 737.75 872.0, 737.33 872.67, 736.92 873.33, 736.51 874.0, 736.11 874.67, 735.71 875.33, 735.32 876.0, 734.93 876.67, 734.54 877.33, 734.16 878.0, 733.78 878.67, 733.41 879.33, 733.04 880.0, 732.68 880.67, 732.32 881.33, 731.97 882.0, 731.62 882.67, 731.28 883.33, 730.94 884.0, 730.61 884.67, 730.28 885.33, 729.95 886.0, 729.63 886.67, 729.32 887.33, 729.01 888.0, 728.7 888.67, 728.4 889.33, 728.11 890.0, 727.82 890.67, 727.53 891.33, 727.25 892.0, 726.98 892.67, 726.71 893.33, 726.44 894.0, 726.18 894.67, 725.93 895.33, 725.68 896.0, 725.44 896.67, 725.2 897.33, 724.96 898.0, 724.74 898.67, 724.51 899.33, 724.29 900.0, 724.08 900.67, 723.87 901.33, 723.67 902.0, 723.47 902.67, 723.28 903.33, 723.1 904.0, 722.92 904.67, 722.74 905.33, 722.57 906.0, 722.4 906.67, 722.24 907.33, 722.09 908.0, 721.94 908.67, 721.8 909.33, 721.66 910.0, 721.53 910.67, 721.4 911.33, 721.28 912.0, 721.16 912.67, 721.05 913.33, 720.95 914.0, 720.85 914.67, 720.75 915.33, 720.67 916.0, 720.58 916.67, 720.51 917.33, 720.43 918.0, 720.37 918.67, 720.31 919.33, 720.25 920.0, 720.2 920.67, 720.16 921.33, 720.12 922.0, 720.08 922.67, 720.06 923.33, 720.03 924.0, 720.02 924.67, 720.01 925.33, 720.0 926.0, 720.0 926.67, 720.01 927.33, 720.02 928.0, 720.03 928.67, 720.06 929.33, 720.08 930.0, 720.12 930.67, 720.16 931.33, 720.2 932.0, 720.25 932.67, 720.31 933.33, 720.37 934.0, 720.43 934.67, 720.51 935.33, 720.58 936.0, 720.67 936.67, 720.76 937.33, 720.85 938.0, 720.95 938.67, 721.05 939.33, 721.17 940.0, 721.28 940.67, 721.4 941.33, 721.53 942.0, 721.66 942.67, 721.8 943.33, 721.94 944.0, 722.09 944.67, 722.25 945.33, 722.41 946.0, 722.57 946.67, 722.74 947.33, 722.92 948.0, 723.1 948.67, 723.28 949.33, 723.48 950.0, 723.67 950.67, 723.88 951.33, 724.08 952.0, 724.3 952.67, 724.51 953.33, 724.74 954.0, 724.97 954.67, 725.2 955.33, 725.44 956.0, 725.68 956.67, 725.93 957.33, 726.19 958.0, 726.45 958.67, 726.71 959.33, 726.98 960.0, 727.26 960.67, 727.54 961.33, 727.82 962.0, 728.11 962.67, 728.41 963.33, 728.71 964.0, 729.01 964.67, 729.32 965.33, 729.64 966.0, 729.96 966.67, 730.28 967.33, 730.61 968.0, 730.94 968.67, 731.28 969.33, 731.63 970.0, 731.97 970.67, 732.33 971.33, 732.69 972.0, 733.05 972.67, 733.42 973.33, 733.79 974.0, 734.16 974.67, 734.54 975.33, 734.93 976.0, 735.32 976.67, 735.71 977.33, 736.11 978.0, 736.52 978.67, 736.93 979.33, 737.34 980.0, 737.75 980.67, 738.18 981.33, 738.6 982.0, 739.03 982.67, 739.46 983.33, 739.9 984.0, 740.34 984.67, 740.79 985.33, 741.24 986.0, 741.69 986.67, 742.15 987.33, 742.62 988.0, 743.08 988.67, 743.55 989.33, 744.03 990.0, 744.51 990.67, 744.99 991.33, 745.47 992.0, 745.96 992.67, 746.46 993.33, 746.95 994.0, 747.45 994.67, 747.96 995.33, 748.47 996.0, 748.98 996.67, 749.49 997.33, 750.01 998.0, 750.54 998.67, 751.06 999.33, 751.59 1000.0, 752.12 1000.67, 752.66 1001.33, 753.2 1002.0, 753.74 1002.67, 754.28 1003.33, 754.83 1004.0, 755.39 1004.67, 755.94 1005.33, 756.5 1006.0, 757.06 1006.67, 757.62 1007.33, 758.19 1008.0, 758.76 1008.67, 759.33 1009.33, 759.91 1010.0, 760.49 1010.67, 761.07 1011.33, 761.65 1012.0, 762.24 1012.67, 762.83 1013.33, 763.42 1014.0, 764.01 1014.67, 764.61 1015.33, 765.21 1016.0, 765.81 1016.67, 766.41 1017.33, 767.02 1018.0, 767.63 1018.67, 768.24 1019.33, 768.85 1020.0, 769.47 1020.67, 770.08 1021.33, 770.7 1022.0, 771.33 1022.67, 771.95 1023.33, 772.57 1024.0, 773.2 1024.67, 773.83 1025.33, 774.46 1026.0, 775.09 1026.67, 775.73 1027.33, 776.36 1028.0, 777.0 1028.67, 777.64 1029.33, 778.28 1030.0, 778.92 1030.67, 779.57 1031.33, 780.21 1032.0, 780.86 1032.67, 781.51 1033.33, 782.16 1034.0, 782.81 1034.67, 783.46 1035.33, 784.11 1036.0, 784.77 1036.67, 785.42 1037.33, 786.08 1038.0, 786.73 1038.67, 787.39 1039.33, 788.05 1040.0, 788.71 1040.67, 789.37 1041.33, 790.03 1042.0, 790.69 1042.67, 791.36 1043.33, 792.02 1044.0, 792.68 1044.67, 793.35 1045.33, 794.01 1046.0, 794.68 1046.67, 795.34 1047.33, 796.01 1048.0, 796.67 1048.67, 797.34 1049.33, 798.01 1050.0, 798.67 1050.67, 799.34 1051.33, 800.01 1052.0, 800.67 1052.67, 801.34 1053.33, 802.01 1054.0, 802.67 1054.67, 803.34 1055.33, 804.0 1056.0, 804.67 1056.67, 805.34 1057.33, 806.0 1058.0, 806.66 1058.67, 807.33 1059.33, 807.99 1060.0, 808.66 1060.67, 809.32 1061.33, 809.98 1062.0, 810.64 1062.67, 811.3 1063.33, 811.96 1064.0, 812.62 1064.67, 813.28 1065.33, 813.93 1066.0, 814.59 1066.67, 815.25 1067.33, 815.9 1068.0, 816.55 1068.67, 817.2 1069.33, 817.85 1070.0, 818.5 1070.67, 819.15 1071.33, 819.8 1072.0, 820.44 1072.67, 821.09 1073.33, 821.73 1074.0, 822.37 1074.67, 823.01 1075.33, 823.65 1076.0, 824.28 1076.67, 824.92 1077.33, 825.55 1078.0, 826.18 1078.67, 826.81 1079.33, 827.44 1080.0, 828.06 1080.67, 828.69 1081.33, 829.31 1082.0, 829.93 1082.67, 830.54 1083.33, 831.16 1084.0, 831.77 1084.67, 832.38 1085.33, 832.99 1086.0, 833.6 1086.67, 834.2 1087.33, 834.8 1088.0, 835.4 1088.67, 836.0 1089.33, 836.59 1090.0, 837.18 1090.67, 837.77 1091.33, 838.36 1092.0, 838.94 1092.67, 839.52 1093.33, 840.1 1094.0, 840.68 1094.67, 841.25 1095.33, 841.82 1096.0, 842.39 1096.67, 842.95 1097.33, 843.51 1098.0, 844.07 1098.67, 844.62 1099.33, 845.18 1100.0, 845.72 1100.67, 846.27 1101.33, 846.81 1102.0, 847.35 1102.67, 847.89 1103.33, 848.42 1104.0, 848.95 1104.67, 849.47 1105.33, 850.0 1106.0, 850.52 1106.67, 851.03 1107.33, 851.54 1108.0, 852.05 1108.67, 852.55 1109.33, 853.06 1110.0, 853.55 1110.67, 854.05 1111.33, 854.54 1112.0, 855.02 1112.67, 855.5 1113.33, 855.98 1114.0, 856.46 1114.67, 856.93 1115.33, 857.39 1116.0, 857.85 1116.67, 858.31 1117.33, 858.77 1118.0, 859.22 1118.67, 859.66 1119.33, 860.11 1120.0, 860.54 1120.67, 860.98 1121.33, 861.41 1122.0, 861.83 1122.67, 862.25 1123.33, 862.67 1124.0, 863.08 1124.67, 863.49 1125.33, 863.89 1126.0, 864.29 1126.67, 864.69 1127.33, 865.08 1128.0, 865.46 1128.67, 865.84 1129.33, 866.22 1130.0, 866.59 1130.67, 866.96 1131.33, 867.32 1132.0, 867.68 1132.67, 868.03 1133.33, 868.38 1134.0, 868.72 1134.67, 869.06 1135.33, 869.4 1136.0, 869.73 1136.67, 870.05 1137.33, 870.37 1138.0, 870.68 1138.67, 870.99 1139.33, 871.3 1140.0, 871.6 1140.67, 871.89 1141.33, 872.18 1142.0, 872.47 1142.67, 872.75 1143.33, 873.02 1144.0, 873.29 1144.67, 873.56 1145.33, 873.82 1146.0, 874.07 1146.67, 874.32 1147.33, 874.56 1148.0, 874.8 1148.67, 875.04 1149.33, 875.27 1150.0, 875.49 1150.67, 875.71 1151.33, 875.92 1152.0, 876.13 1152.67, 876.33 1153.33, 876.53 1154.0, 876.72 1154.67, 876.9 1155.33, 877.09 1156.0, 877.26 1156.67, 877.43 1157.33, 877.6 1158.0, 877.76 1158.67, 877.91 1159.33, 878.06 1160.0, 878.2 1160.67, 878.34 1161.33, 878.47 1162.0, 878.6 1162.67, 878.72 1163.33, 878.84 1164.0, 878.95 1164.67, 879.05 1165.33, 879.15 1166.0, 879.24 1166.67, 879.33 1167.33, 879.42 1168.0, 879.49 1168.67, 879.57 1169.33, 879.63 1170.0, 879.69 1170.67, 879.75 1171.33, 879.8 1172.0, 879.84 1172.67, 879.88 1173.33, 879.91 1174.0, 879.94 1174.67, 879.96 1175.33, 879.98 1176.0, 879.99 1176.67, 880.0 1177.33, 880.0 1178.0, 879.99 1178.67, 879.98 1179.33, 879.96 1180.0, 879.94 1180.67, 879.91 1181.33, 879.88 1182.0, 879.84 1182.67, 879.8 1183.33, 879.75 1184.0, 879.69 1184.67, 879.63 1185.33, 879.56 1186.0, 879.49 1186.67, 879.41 1187.33, 879.33 1188.0, 879.24 1188.67, 879.15 1189.33, 879.05 1190.0, 878.94 1190.67, 878.83 1191.33, 878.71 1192.0, 878.59 1192.67, 878.46 1193.33, 878.33 1194.0, 878.19 1194.67, 878.05 1195.33, 877.9 1196.0, 877.75 1196.67, 877.59 1197.33, 877.42 1198.0, 877.25 1198.67, 877.08 1199.33, 876.89 1200.0, 876.71 1200.67, 876.52 1201.33, 876.32 1202.0, 876.12 1202.67, 875.91 1203.33, 875.69 1204.0, 875.48 1204.67, 875.25 1205.33, 875.02 1206.0, 874.79 1206.67, 874.55 1207.33, 874.3 1208.0, 874.06 1208.67, 873.8 1209.33, 873.54 1210.0, 873.28 1210.67, 873.01 1211.33, 872.73 1212.0, 872.45 1212.67, 872.16 1213.33, 871.87 1214.0, 871.58 1214.67, 871.28 1215.33, 870.97 1216.0, 870.66 1216.67, 870.35 1217.33, 870.03 1218.0, 869.7 1218.67, 869.37 1219.33, 869.04 1220.0, 868.7 1220.67, 868.35 1221.33, 868.0 1222.0, 867.65 1222.67, 867.29 1223.33, 866.93 1224.0, 866.56 1224.67, 866.19 1225.33, 865.81 1226.0, 865.43 1226.67, 865.04 1227.33, 864.65 1228.0, 864.26 1228.67, 863.86 1229.33, 863.45 1230.0, 863.04 1230.67, 862.63 1231.33, 862.21 1232.0, 861.79 1232.67, 861.37 1233.33, 860.94 1234.0, 860.5 1234.67, 860.06 1235.33, 859.62 1236.0, 859.17 1236.67, 858.72 1237.33, 858.26 1238.0, 857.81 1238.67, 857.34 1239.33, 856.87 1240.0, 856.4 1240.67, 855.93 1241.33, 855.45 1242.0, 854.96 1242.67, 854.48 1243.33, 853.99 1244.0, 853.49 1244.67, 852.99 1245.33, 852.49 1246.0, 851.98 1246.67, 851.47 1247.33, 850.96 1248.0, 850.44 1248.67, 849.92 1249.33, 849.4 1250.0, 848.87 1250.67, 848.34 1251.33, 847.81 1252.0, 847.27 1252.67, 846.73 1253.33, 846.18 1254.0, 845.64 1254.67, 845.09 1255.33, 844.53 1256.0, 843.98 1256.67, 843.41 1257.33, 842.85 1258.0, 842.29 1258.67, 841.72 1259.33, 841.14 1260.0, 840.57 1260.67, 839.99 1261.33, 839.41 1262.0, 838.83 1262.67, 838.24 1263.33, 837.65 1264.0, 837.06 1264.67, 836.46 1265.33, 835.87 1266.0, 835.27 1266.67, 834.66 1267.33, 834.06 1268.0, 833.45 1268.67, 832.84 1269.33, 832.23 1270.0, 831.62 1270.67, 831.0 1271.33, 830.38 1272.0, 829.76 1272.67, 829.13 1273.33, 828.51 1274.0, 827.88 1274.67, 827.25 1275.33, 826.62 1276.0, 825.99 1276.67, 825.35 1277.33, 824.71 1278.0, 824.07 1278.67, 823.43 1279.33, 822.79 1280.0, 822.14 1280.67, 821.5 1281.33, 820.85 1282.0, 820.2 1282.67, 819.55 1283.33, 818.9 1284.0, 818.24 1284.67, 817.59 1285.33, 816.93 1286.0, 816.27 1286.67, 815.61 1287.33, 814.95 1288.0, 814.29 1288.67, 813.63 1289.33, 812.96 1290.0, 812.3 1290.67, 811.63 1291.33, 810.96 1292.0, 810.29 1292.67, 809.62 1293.33, 808.95 1294.0, 808.28 1294.67, 807.61 1295.33, 806.94 1296.0, 806.26 1296.67, 805.59 1297.33, 804.91 1298.0, 804.24 1298.67, 803.56 1299.33, 802.88 1300.0, 802.21 1300.67, 801.53 1301.33, 800.85 1302.0, 800.17 1302.67, 799.49 1303.33, 798.82 1304.0, 798.14 1304.67, 797.46 1305.33, 796.78 1306.0, 796.1 1306.67, 795.42 1307.33, 794.74 1308.0, 794.06 1308.67, 793.38 1309.33, 792.7 1310.0, 792.02 1310.67, 791.34 1311.33, 790.66 1312.0, 789.98 1312.67, 789.3 1313.33, 788.62 1314.0, 787.94 1314.67, 787.27 1315.33, 786.59 1316.0, 785.91 1316.67, 785.23 1317.33, 784.56 1318.0, 783.88 1318.67, 783.21 1319.33, 782.53 1320.0, 781.86 1320.67, 781.19 1321.33, 780.52 1322.0, 779.84 1322.67, 779.17 1323.33, 778.5 1324.0, 777.83 1324.67, 777.17 1325.33, 776.5 1326.0, 775.83 1326.67, 775.17 1327.33, 774.5 1328.0, 773.84 1328.67, 773.18 1329.33, 772.52 1330.0, 771.86 1330.67, 771.2 1331.33, 770.54 1332.0, 769.88 1332.67, 769.23 1333.33, 768.58 1334.0, 767.92 1334.67, 767.27 1335.33, 766.62 1336.0, 765.97 1336.67, 765.33 1337.33, 764.68 1338.0, 764.04 1338.67, 763.4 1339.33, 762.76 1340.0, 762.12 1340.67, 761.48 1341.33, 760.84 1342.0, 760.21 1342.67, 759.57 1343.33, 758.94 1344.0, 758.31 1344.67, 757.69 1345.33, 757.06 1346.0, 756.43 1346.67, 755.81 1347.33, 755.19 1348.0, 754.57 1348.67, 753.95 1349.33, 753.34 1350.0, 752.72 1350.67, 752.11 1351.33, 751.5 1352.0, 750.89 1352.67, 750.29 1353.33, 749.68 1354.0, 749.08 1354.67, 748.48 1355.33, 747.88 1356.0, 747.28 1356.67, 746.69 1357.33, 746.09 1358.0, 745.5 1358.67, 744.91 1359.33, 744.33 1360.0, 743.74 1360.67, 743.16 1361.33, 742.57 1362.0, 741.99 1362.67, 741.42 1363.33, 740.84 1364.0, 740.27 1364.67, 739.69 1365.33, 739.12 1366.0, 738.56 1366.67, 737.99 1367.33, 737.43 1368.0, 736.86 1368.67, 736.3 1369.33, 735.74 1370.0, 735.19 1370.67, 734.63 1371.33, 734.08 1372.0, 733.53 1372.67, 732.98 1373.33, 732.43 1374.0, 731.88 1374.67, 731.34 1375.33, 730.8 1376.0, 730.26 1376.67, 729.72 1377.33, 729.18 1378.0, 728.64 1378.67, 728.11 1379.33, 727.58 1380.0, 727.05 1380.67, 726.52 1381.33, 725.99 1382.0, 725.46 1382.67, 724.94 1383.33, 724.41 1384.0, 723.89 1384.67, 723.37 1385.33, 722.85 1386.0, 722.33 1386.67, 721.81 1387.33, 721.29 1388.0, 720.78 1388.67, 720.26 1389.33, 719.75 1390.0, 719.24 1390.67, 718.73 1391.33, 718.22 1392.0, 717.71 1392.67, 717.2 1393.33, 716.69 1394.0, 716.18 1394.67, 715.67 1395.33, 715.16 1396.0, 714.66 1396.67, 714.15 1397.33, 713.65 1398.0, 713.14 1398.67, 712.63 1399.33, 712.13 1400.0, 711.62 1400.67, 711.12 1401.33, 710.61 1402.0, 710.1 1402.67, 709.6 1403.33, 709.09 1404.0, 708.58 1404.67, 708.07 1405.33, 707.56 1406.0, 707.05 1406.67, 706.54 1407.33, 706.03 1408.0, 705.51 1408.67, 705.0 1409.33, 704.48 1410.0, 703.97 1410.67, 703.45 1411.33, 702.93 1412.0, 702.4 1412.67, 701.88 1413.33, 701.35 1414.0, 700.82 1414.67, 700.29 1415.33, 699.76 1416.0, 699.22 1416.67, 698.68 1417.33, 698.14 1418.0, 697.59 1418.67, 697.05 1419.33, 696.49 1420.0, 695.94 1420.67, 695.38 1421.33, 694.82 1422.0, 694.25 1422.67, 693.68 1423.33, 693.11 1424.0, 692.53 1424.67, 691.94 1425.33, 691.35 1426.0, 690.76 1426.67, 690.16 1427.33, 689.56 1428.0, 688.95 1428.67, 688.33 1429.33, 687.71 1430.0, 687.08 1430.67, 686.45 1431.33, 685.81 1432.0, 685.16 1432.67, 684.5 1433.33, 683.84 1434.0, 683.17 1434.67, 682.5 1435.33, 681.81 1436.0, 681.12 1436.67, 680.42 1437.33, 679.71 1438.0, 678.99 1438.67, 678.26 1439.33, 677.53 1440.0, 676.78 1440.67, 676.02 1441.33, 675.26 1442.0, 674.48 1442.67, 673.69 1443.33, 672.89 1444.0, 672.08 1444.67, 671.26 1445.33, 670.42 1446.0, 669.58 1446.67, 668.72 1447.33, 667.85 1448.0, 666.96 1448.67, 666.06 1449.33, 665.15 1450.0, 664.23 1450.67, 663.29 1451.33, 662.33 1452.0, 661.36 1452.67, 660.37 1453.33, 659.37 1454.0, 658.35 1454.67, 657.32 1455.33, 656.26 1456.0, 655.19 1456.67, 654.11 1457.33, 653.0 1458.0, 651.88 1458.67, 650.73 1459.33, 649.57 1460.0, 648.39 1460.67, 647.18 1461.33, 645.96 1462.0, 644.71 1462.67, 643.45 1463.33, 642.16 1464.0, 640.85 1464.67, 639.51 1465.33, 638.15 1466.0, 636.77 1466.67, 635.36 1467.33, 633.93 1468.0, 632.47 1468.67, 630.99 1469.33, 629.48 1470.0, 627.94 1470.67, 626.37 1471.33, 624.78 1472.0, 623.16 1472.67, 621.5 1473.33, 619.82 1474.0, 618.11 1474.67, 616.37 1475.33, 614.59 1476.0, 612.78 1476.67, 610.94 1477.33, 609.06 1478.0, 607.16 1478.67, 605.21 1479.33, 603.23 1480.0, 601.21 1480.67, 599.16 1481.33, 597.07 1482.0, 594.94 1482.67, 592.77 1483.33, 590.56 1484.0, 588.31 1484.67, 586.02 1485.33, 583.69 1486.0, 581.32 1486.67, 578.9 1487.33, 576.43 1488.0, 573.92 1488.67, 571.37 1489.33, 568.77 1490.0, 566.12 1490.67, 563.42 1491.33, 560.67 1492.0, 557.88 1492.67, 555.03 1493.33, 552.13 1494.0, 549.17 1494.67, 546.16 1495.33, 543.1 1496.0, 539.98 1496.67, 536.81 1497.33, 533.57 1498.0, 530.28 1498.67, 526.93 1499.33, 523.52 1500.0, 520.04 1500.67, 516.5 1501.33, 512.9 1502.0, 509.24 1502.67, 505.5 1503.33, 501.7 1504.0, 497.83 1504.67, 493.9 1505.33, 489.89 1506.0, 485.81 1506.67, 481.65 1507.33, 477.42 1508.0, 473.12 1508.67, 468.74 1509.33, 464.28 1510.0, 459.74 1510.67, 455.12 1511.33, 450.42 1512.0, 445.64 1512.67, 440.77 1513.33, 435.82 1514.0, 430.77 1514.67, 425.64 1515.33, 420.42 1516.0, 415.11 1516.67, 409.7 1517.33, 404.2 1518.0, 398.6 1518.67, 392.91 1519.33, 387.11 1520.0, 381.22 1520.67, 375.22 1521.33, 369.12 1522.0, 362.91 1522.67, 356.59 1523.33, 350.17 1524.0, 343.63 1524.67, 336.98 1525.33, 330.22 1526.0, 323.34 1526.67, 316.35 1527.33, 309.23 1528.0, 301.99 1528.67, 294.63 1529.33, 287.14 1530.0, 279.53 1530.67, 271.78 1531.33, 263.91 1532.0, 255.9 1532.67, 247.76 1533.33, 239.47 1534.0, 231.05 1534.67, 222.49 1535.33, 213.78 1536.0, 204.93 1536.67, 195.93 1537.33, 186.78 1538.0, 177.47 1538.67, 168.01 1539.33, 158.39 1540.0, 148.62 1540.67, 138.68 1541.33, 128.57 1542.0, 118.3 1542.67, 107.86 1543.33, 97.25 1544.0, 86.46 1544.67, 75.49 1545.33, 64.35 1546.0, 53.02 1546.67, 41.51 1547.33, 29.81 1548.0, 17.91 1548.67, 5.83 1549.33, -6.45 1550.0, -18.94 1550.67, -31.62 1551.33, -44.51 1552.0, -57.61 1552.67, -70.92 1553.33, -84.44 1554.0, -98.18 1554.67, -112.14 1555.33, -126.33 1556.0, -140.74 1556.67, -155.39 1557.33, -170.27 1558.0, -185.38 1558.67, -200.74 1559.33, -216.34 1560.0, -232.19 1560.67, -248.28 1561.33, -264.64 1562.0, -281.25 1562.67, -298.12 1563.33, -315.26 1564.0, -332.68 1564.67, -350.36 1565.33, -368.32 1566.0, -386.56 1566.67, -405.09 1567.33, -423.91 1568.0, -443.02 1568.67, -462.43 1569.33, -482.14 1570.0, -502.16 1570.67, -522.48 1571.33, -543.13 1572.0, -564.09 1572.67, -585.38 1573.33, -606.99 1574.0, -628.94 1574.67, -651.22 1575.33, -673.85 1576.0, -696.82 1576.67, -720.15 1577.33, -743.83 1578.0, -767.88 1578.67, -792.29 1579.33, -817.08 1580.0, -842.24 1580.67, -867.78 1581.33, -893.71 1582.0, -920.04 1582.67, -946.76 1583.33, -973.89 1584.0, -1001.43 1584.67, -1029.38 1585.33, -1057.75 1586.0, -1086.55 1586.67, -1115.78 1587.33, -1145.45 1588.0, -1175.57 1588.67, -1206.13 1589.33, -1237.16 1590.0, -1268.64 1590.67, -1300.6 1591.33, -1333.03 1592.0, -1365.94 1592.67, -1399.34 1593.33, -1433.24 1594.0, -1467.63 1594.67, -1502.54 1595.33, -1537.96 1596.0, -1573.91 1596.67, -1610.38 1597.33, -1647.4 1598.0, -1684.95 1598.67, -1723.06 1599.33, -1761.72 1600.0, -1800.96 " fill="none" stroke="white" stroke-width="1.5" stroke-linejoin="round" stroke-opacity="1"/>

 </svg>