<svg version="1.1" 
 baseProfile="full" 
 width="1600" 
 height="1600" 
 xmlns="http://www.w3.org/2000/svg">
<rect x="0.0" y="0.0" width="1600" height="1600" fill="black" stroke="black" stroke-width="0" opacity="1"/>
<line x1="0.0" y1="0.0" x2="0.0" y2="1600.0" stroke="white" stroke-width="1" opacity="0.4" stroke-linecap="butt"/>
<line x1="160.0" y1="0.0" x2="160.0" y2="1600.0" stroke="white" stroke-width="1" opacity="0.4" stroke-linecap="butt"/>
<line x1="320.0" y1="0.0" x2="320.0" y2="1600.0" stroke="white" stroke-width="1" opacity="0.4" stroke-linecap="butt"/>
<line x1="480.0" y1="0.0" x2="480.0" y2="1600.0" stroke="white" stroke-width="1" opacity="0.4" stroke-linecap="butt"/>
<line x1="640.0" y1="0.0" x2="640.0" y2="1600.0" stroke="white" stroke-width="1" opacity="0.4" stroke-linecap="butt"/>
<line x1="800.0" y1="0.0" x2="800.0" y2="1600.0" stroke="white" stroke-width="1" opacity="0.4" stroke-linecap="butt"/>
<line x1="960.0" y1="0.0" x2="960.0" y2="1600.0" stroke="white" stroke-width="1" opacity="0.4" stroke-linecap="butt"/>
<line x1="1120.0" y1="0.0" x2="1120.0" y2="1600.0" stroke="white" stroke-width="1" opacity="0.4" stroke-linecap="butt"/>
<line x1="1280.0" y1="0.0" x2="1280.0" y2="1600.0" stroke="white" stroke-width="1" opacity="0.4" stroke-linecap="butt"/>
<line x1="1440.0" y1="0.0" x2="1440.0" y2="1600.0" stroke="white" stroke-width="1" opacity="0.4" stroke-linecap="butt"/>
<line x1="0.0" y1="0.0" x2="1600.0" y2="0.0" stroke="white" stroke-width="1" opacity="0.4" stroke-linecap="butt"/>
<line x1="0.0" y1="160.0" x2="1600.0" y2="160.0" stroke="white" stroke-width="1" opacity="0.4" stroke-linecap="butt"/>
<line x1="0.0" y1="320.0" x2="1600.0" y2="320.0" stroke="white" stroke-width="1" opacity="0.4" stroke-linecap="butt"/>
<line x1="0.0" y1="480.0" x2="1600.0" y2="480.0" stroke="white" stroke-width="1" opacity="0.4" stroke-linecap="butt"/>
<line x1="0.0" y1="640.0" x2="1600.0" y2="640.0" stroke="white" stroke-width="1" opacity="0.4" stroke-linecap="butt"/>
<line x1="0.0" y1="800.0" x2="1600.0" y2="800.0" stroke="white" stroke-width="1" opacity="0.4" stroke-linecap="butt"/>
<line x1="0.0" y1="960.0" x2="1600.0" y2="960.0" stroke="white" stroke-width="1" opacity="0.4" stroke-linecap="butt"/>
<line x1="0.0" y1="1120.0" x2="1600.0" y2="1120.0" stroke="white" stroke-width="1" opacity="0.4" stroke-linecap="butt"/>
<line x1="0.0" y1="1280.0" x2="1600.0" y2="1280.0" stroke="white" stroke-width="1" opacity="0.4" stroke-linecap="butt"/>
<line x1="0.0" y1="1440.0" x2="1600.0" y2="1440.0" stroke="white" stroke-width="1" opacity="0.4" stroke-linecap="butt"/>
<line x1="0.0" y1="800.0" x2="1600.0" y2="800.0" stroke="yellow" stroke-width="2.5" opacity="1" stroke-linecap="butt"/>
<line x1="800.0" y1="0.0" x2="800.0" y2="1600.0" stroke="yellow" stroke-width="2.5" opacity="1" stroke-linecap="butt"/>
<polygon points="1564.0 816.0, 1604.0 800.0, 1564.0 784.0, 1572.0 800.0" fill="yellow"/><polygon points="816.0 36.0, 800.0 -4.0, 784.0 36.0, 800.0 28.0" fill="yellow"/><polyline points="0.0, 1592.42 0.67, 1581.61 1.33, 1570.94 2.0, 1560.41 2.67, 1550.03 3.33, 1539.78 4.0, 1529.66 4.67, 1519.69 5.33, 1509.84 6.0, 1500.13 6.67, 1490.55 7.33, 1481.1 8.0, 1471.78 8.67, 1462.58 9.33, 1453.51 10.0, 1444.57 10.67, 1435.74 11.33, 1427.04 12.0, 1418.45 12.67, 1409.99 13.33, 1401.64 14.0, 1393.41 14.67, 1385.29 15.33, 1377.28 16.0, 1369.39 16.67, 1361.61 17.33, 1353.93 18.0, 1346.37 18.67, 1338.91 19.33, 1331.55 20.0, 1324.31 20.67, 1317.16 21.33, 1310.11 22.0, 1303.17 22.67, 1296.33 23.33, 1289.58 24.0, 1282.93 24.67, 1276.38 25.33, 1269.92 26.0, 1263.56 26.67, 1257.29 27.33, 1251.11 28.0, 1245.02 28.67, 1239.02 29.33, 1233.11 30.0, 1227.29 30.67, 1221.55 31.33, 1215.9 32.0, 1210.33 32.67, 1204.85 33.33, 1199.45 34.0, 1194.13 34.67, 1188.88 35.33, 1183.72 36.0, 1178.64 36.67, 1173.63 37.33, 1168.7 38.0, 1163.85 38.67, 1159.07 39.33, 1154.36 40.0, 1149.73 40.67, 1145.16 41.33, 1140.67 42.0, 1136.25 42.67, 1131.9 43.33, 1127.61 44.0, 1123.39 44.67, 1119.24 45.33, 1115.16 46.0, 1111.13 46.67, 1107.18 47.33, 1103.28 48.0, 1099.45 48.67, 1095.68 49.33, 1091.97 50.0, 1088.32 50.67, 1084.73 51.33, 1081.19 52.0, 1077.72 52.67, 1074.3 53.33, 1070.93 54.0, 1067.62 54.67, 1064.37 55.33, 1061.17 56.0, 1058.02 56.67, 1054.93 57.33, 1051.89 58.0, 1048.89 58.67, 1045.95 59.33, 1043.06 60.0, 1040.21 60.67, 1037.42 61.33, 1034.67 62.0, 1031.97 62.67, 1029.31 63.33, 1026.7 64.0, 1024.14 64.67, 1021.62 65.33, 1019.14 66.0, 1016.7 66.67, 1014.31 67.33, 1011.96 68.0, 1009.65 68.67, 1007.38 69.33, 1005.15 70.0, 1002.97 70.67, 1000.81 71.33, 998.7 72.0, 996.63 72.67, 994.59 73.33, 992.59 74.0, 990.62 74.67, 988.7 75.33, 986.8 76.0, 984.94 76.67, 983.12 77.33, 981.32 78.0, 979.56 78.67, 977.84 79.33, 976.14 80.0, 974.48 80.67, 972.84 81.33, 971.24 82.0, 969.67 82.67, 968.12 83.33, 966.61 84.0, 965.12 84.67, 963.67 85.33, 962.24 86.0, 960.83 86.67, 959.46 87.33, 958.11 88.0, 956.78 88.67, 955.48 89.33, 954.21 90.0, 952.96 90.67, 951.74 91.33, 950.54 92.0, 949.36 92.67, 948.2 93.33, 947.07 94.0, 945.96 94.67, 944.87 95.33, 943.81 96.0, 942.76 96.67, 941.74 97.33, 940.73 98.0, 939.75 98.67, 938.78 99.33, 937.84 100.0, 936.91 100.67, 936.0 101.33, 935.11 102.0, 934.24 102.67, 933.39 103.33, 932.55 104.0, 931.73 104.67, 930.92 105.33, 930.14 106.0, 929.36 106.67, 928.61 107.33, 927.87 108.0, 927.14 108.67, 926.43 109.33, 925.73 110.0, 925.05 110.67, 924.38 111.33, 923.73 112.0, 923.08 112.67, 922.46 113.33, 921.84 114.0, 921.24 114.67, 920.64 115.33, 920.06 116.0, 919.5 116.67, 918.94 117.33, 918.39 118.0, 917.86 118.67, 917.33 119.33, 916.82 120.0, 916.32 120.67, 915.82 121.33, 915.34 122.0, 914.86 122.67, 914.4 123.33, 913.94 124.0, 913.5 124.67, 913.06 125.33, 912.63 126.0, 912.2 126.67, 911.79 127.33, 911.38 128.0, 910.98 128.67, 910.59 129.33, 910.2 130.0, 909.82 130.67, 909.45 131.33, 909.09 132.0, 908.73 132.67, 908.38 133.33, 908.03 134.0, 907.69 134.67, 907.35 135.33, 907.02 136.0, 906.7 136.67, 906.38 137.33, 906.06 138.0, 905.75 138.67, 905.44 139.33, 905.14 140.0, 904.84 140.67, 904.55 141.33, 904.26 142.0, 903.98 142.67, 903.69 143.33, 903.41 144.0, 903.14 144.67, 902.87 145.33, 902.6 146.0, 902.33 146.67, 902.07 147.33, 901.8 148.0, 901.55 148.67, 901.29 149.33, 901.03 150.0, 900.78 150.67, 900.53 151.33, 900.28 152.0, 900.03 152.67, 899.79 153.33, 899.55 154.0, 899.3 154.67, 899.06 155.33, 898.82 156.0, 898.58 156.67, 898.34 157.33, 898.1 158.0, 897.87 158.67, 897.63 159.33, 897.39 160.0, 897.16 160.67, 896.92 161.33, 896.69 162.0, 896.45 162.67, 896.21 163.33, 895.98 164.0, 895.74 164.67, 895.51 165.33, 895.27 166.0, 895.03 166.67, 894.8 167.33, 894.56 168.0, 894.32 168.67, 894.08 169.33, 893.84 170.0, 893.59 170.67, 893.35 171.33, 893.11 172.0, 892.86 172.67, 892.62 173.33, 892.37 174.0, 892.12 174.67, 891.87 175.33, 891.62 176.0, 891.36 176.67, 891.11 177.33, 890.85 178.0, 890.59 178.67, 890.33 179.33, 890.07 180.0, 889.8 180.67, 889.54 181.33, 889.27 182.0, 889.0 182.67, 888.72 183.33, 888.45 184.0, 888.17 184.67, 887.89 185.33, 887.61 186.0, 887.32 186.67, 887.04 187.33, 886.75 188.0, 886.46 188.67, 886.16 189.33, 885.87 190.0, 885.57 190.67, 885.26 191.33, 884.96 192.0, 884.65 192.67, 884.34 193.33, 884.03 194.0, 883.71 194.67, 883.39 195.33, 883.07 196.0, 882.74 196.67, 882.42 197.33, 882.09 198.0, 881.75 198.67, 881.41 199.33, 881.07 200.0, 880.73 200.67, 880.39 201.33, 880.04 202.0, 879.68 202.67, 879.33 203.33, 878.97 204.0, 878.61 204.67, 878.24 205.33, 877.87 206.0, 877.5 206.67, 877.13 207.33, 876.75 208.0, 876.37 208.67, 875.98 209.33, 875.6 210.0, 875.2 210.67, 874.81 211.33, 874.41 212.0, 874.01 212.67, 873.61 213.33, 873.2 214.0, 872.79 214.67, 872.37 215.33, 871.96 216.0, 871.54 216.67, 871.11 217.33, 870.68 218.0, 870.25 218.67, 869.82 219.33, 869.38 220.0, 868.94 220.67, 868.49 221.33, 868.05 222.0, 867.6 222.67, 867.14 223.33, 866.68 224.0, 866.22 224.67, 865.76 225.33, 865.29 226.0, 864.82 226.67, 864.35 227.33, 863.87 228.0, 863.39 228.67, 862.9 229.33, 862.42 230.0, 861.93 230.67, 861.43 231.33, 860.94 232.0, 860.44 232.67, 859.93 233.33, 859.43 234.0, 858.92 234.67, 858.41 235.33, 857.89 236.0, 857.37 236.67, 856.85 237.33, 856.33 238.0, 855.8 238.67, 855.27 239.33, 854.74 240.0, 854.2 240.67, 853.66 241.33, 853.12 242.0, 852.57 242.67, 852.02 243.33, 851.47 244.0, 850.92 244.67, 850.36 245.33, 849.8 246.0, 849.24 246.67, 848.68 247.33, 848.11 248.0, 847.54 248.67, 846.97 249.33, 846.39 250.0, 845.81 250.67, 845.23 251.33, 844.65 252.0, 844.06 252.67, 843.47 253.33, 842.88 254.0, 842.29 254.67, 841.7 255.33, 841.1 256.0, 840.5 256.67, 839.9 257.33, 839.29 258.0, 838.68 258.67, 838.08 259.33, 837.46 260.0, 836.85 260.67, 836.24 261.33, 835.62 262.0, 835.0 262.67, 834.38 263.33, 833.75 264.0, 833.13 264.67, 832.5 265.33, 831.87 266.0, 831.24 266.67, 830.61 267.33, 829.97 268.0, 829.34 268.67, 828.7 269.33, 828.06 270.0, 827.42 270.67, 826.78 271.33, 826.13 272.0, 825.49 272.67, 824.84 273.33, 824.19 274.0, 823.54 274.67, 822.89 275.33, 822.24 276.0, 821.58 276.67, 820.93 277.33, 820.27 278.0, 819.61 278.67, 818.96 279.33, 818.3 280.0, 817.64 280.67, 816.97 281.33, 816.31 282.0, 815.65 282.67, 814.98 283.33, 814.32 284.0, 813.65 284.67, 812.99 285.33, 812.32 286.0, 811.65 286.67, 810.98 287.33, 810.31 288.0, 809.64 288.67, 808.97 289.33, 808.3 290.0, 807.63 290.67, 806.96 291.33, 806.29 292.0, 805.62 292.67, 804.95 293.33, 804.28 294.0, 803.6 294.67, 802.93 295.33, 802.26 296.0, 801.59 296.67, 800.91 297.33, 800.24 298.0, 799.57 298.67, 798.9 299.33, 798.22 300.0, 797.55 300.67, 796.88 301.33, 796.21 302.0, 795.54 302.67, 794.87 303.33, 794.2 304.0, 793.53 304.67, 792.86 305.33, 792.2 306.0, 791.53 306.67, 790.86 307.33, 790.2 308.0, 789.53 308.67, 788.87 309.33, 788.2 310.0, 787.54 310.67, 786.88 311.33, 786.22 312.0, 785.56 312.67, 784.9 313.33, 784.24 314.0, 783.59 314.67, 782.93 315.33, 782.28 316.0, 781.63 316.67, 780.98 317.33, 780.33 318.0, 779.68 318.67, 779.03 319.33, 778.39 320.0, 777.74 320.67, 777.1 321.33, 776.46 322.0, 775.82 322.67, 775.19 323.33, 774.55 324.0, 773.92 324.67, 773.29 325.33, 772.66 326.0, 772.03 326.67, 771.41 327.33, 770.78 328.0, 770.16 328.67, 769.54 329.33, 768.93 330.0, 768.31 330.67, 767.7 331.33, 767.09 332.0, 766.48 332.67, 765.87 333.33, 765.27 334.0, 764.67 334.67, 764.07 335.33, 763.48 336.0, 762.88 336.67, 762.29 337.33, 761.71 338.0, 761.12 338.67, 760.54 339.33, 759.96 340.0, 759.38 340.67, 758.81 341.33, 758.24 342.0, 757.67 342.67, 757.1 343.33, 756.54 344.0, 755.98 344.67, 755.43 345.33, 754.87 346.0, 754.32 346.67, 753.78 347.33, 753.24 348.0, 752.7 348.67, 752.16 349.33, 751.63 350.0, 751.1 350.67, 750.57 351.33, 750.05 352.0, 749.53 352.67, 749.01 353.33, 748.5 354.0, 747.99 354.67, 747.48 355.33, 746.98 356.0, 746.48 356.67, 745.99 357.33, 745.5 358.0, 745.01 358.67, 744.53 359.33, 744.05 360.0, 743.58 360.67, 743.11 361.33, 742.64 362.0, 742.18 362.67, 741.72 363.33, 741.26 364.0, 740.81 364.67, 740.36 365.33, 739.92 366.0, 739.48 366.67, 739.05 367.33, 738.62 368.0, 738.19 368.67, 737.77 369.33, 737.35 370.0, 736.94 370.67, 736.53 371.33, 736.13 372.0, 735.73 372.67, 735.34 373.33, 734.94 374.0, 734.56 374.67, 734.18 375.33, 733.8 376.0, 733.43 376.67, 733.06 377.33, 732.7 378.0, 732.34 378.67, 731.99 379.33, 731.64 380.0, 731.29 380.67, 730.95 381.33, 730.62 382.0, 730.29 382.67, 729.97 383.33, 729.65 384.0, 729.33 384.67, 729.02 385.33, 728.72 386.0, 728.42 386.67, 728.12 387.33, 727.83 388.0, 727.54 388.67, 727.26 389.33, 726.99 390.0, 726.72 390.67, 726.45 391.33, 726.19 392.0, 725.94 392.67, 725.69 393.33, 725.45 394.0, 725.21 394.67, 724.97 395.33, 724.74 396.0, 724.52 396.67, 724.3 397.33, 724.09 398.0, 723.88 398.67, 723.68 399.33, 723.48 400.0, 723.29 400.67, 723.1 401.33, 722.92 402.0, 722.75 402.67, 722.58 403.33, 722.41 404.0, 722.25 404.67, 722.1 405.33, 721.95 406.0, 721.8 406.67, 721.67 407.33, 721.53 408.0, 721.41 408.67, 721.28 409.33, 721.17 410.0, 721.06 410.67, 720.95 411.33, 720.85 412.0, 720.76 412.67, 720.67 413.33, 720.59 414.0, 720.51 414.67, 720.44 415.33, 720.37 416.0, 720.31 416.67, 720.25 417.33, 720.2 418.0, 720.16 418.67, 720.12 419.33, 720.09 420.0, 720.06 420.67, 720.04 421.33, 720.02 422.0, 720.01 422.67, 720.0 423.33, 720.0 424.0, 720.01 424.67, 720.02 425.33, 720.03 426.0, 720.06 426.67, 720.08 427.33, 720.12 428.0, 720.16 428.67, 720.2 429.33, 720.25 430.0, 720.31 430.67, 720.37 431.33, 720.43 432.0, 720.51 432.67, 720.58 433.33, 720.67 434.0, 720.75 434.67, 720.85 435.33, 720.95 436.0, 721.05 436.67, 721.16 437.33, 721.28 438.0, 721.4 438.67, 721.53 439.33, 721.66 440.0, 721.8 440.67, 721.94 441.33, 722.09 442.0, 722.24 442.67, 722.4 443.33, 722.57 444.0, 722.74 444.67, 722.91 445.33, 723.1 446.0, 723.28 446.67, 723.47 447.33, 723.67 448.0, 723.87 448.67, 724.08 449.33, 724.29 450.0, 724.51 450.67, 724.73 451.33, 724.96 452.0, 725.2 452.67, 725.43 453.33, 725.68 454.0, 725.93 454.67, 726.18 455.33, 726.44 456.0, 726.71 456.67, 726.98 457.33, 727.25 458.0, 727.53 458.67, 727.82 459.33, 728.11 460.0, 728.4 460.67, 728.7 461.33, 729.01 462.0, 729.32 462.67, 729.63 463.33, 729.95 464.0, 730.27 464.67, 730.6 465.33, 730.94 466.0, 731.28 466.67, 731.62 467.33, 731.97 468.0, 732.32 468.67, 732.68 469.33, 733.04 470.0, 733.41 470.67, 733.78 471.33, 734.16 472.0, 734.54 472.67, 734.92 473.33, 735.31 474.0, 735.71 474.67, 736.11 475.33, 736.51 476.0, 736.92 476.67, 737.33 477.33, 737.75 478.0, 738.17 478.67, 738.59 479.33, 739.02 480.0, 739.46 480.67, 739.89 481.33, 740.34 482.0, 740.78 482.67, 741.23 483.33, 741.69 484.0, 742.14 484.67, 742.61 485.33, 743.07 486.0, 743.54 486.67, 744.02 487.33, 744.5 488.0, 744.98 488.67, 745.46 489.33, 745.95 490.0, 746.45 490.67, 746.94 491.33, 747.45 492.0, 747.95 492.67, 748.46 493.33, 748.97 494.0, 749.48 494.67, 750.0 495.33, 750.53 496.0, 751.05 496.67, 751.58 497.33, 752.11 498.0, 752.65 498.67, 753.19 499.33, 753.73 500.0, 754.28 500.67, 754.82 501.33, 755.38 502.0, 755.93 502.67, 756.49 503.33, 757.05 504.0, 757.61 504.67, 758.18 505.33, 758.75 506.0, 759.32 506.67, 759.9 507.33, 760.48 508.0, 761.06 508.67, 761.64 509.33, 762.23 510.0, 762.82 510.67, 763.41 511.33, 764.0 512.0, 764.6 512.67, 765.2 513.33, 765.8 514.0, 766.4 514.67, 767.01 515.33, 767.62 516.0, 768.23 516.67, 768.84 517.33, 769.46 518.0, 770.07 518.67, 770.69 519.33, 771.31 520.0, 771.94 520.67, 772.56 521.33, 773.19 522.0, 773.82 522.67, 774.45 523.33, 775.08 524.0, 775.72 524.67, 776.35 525.33, 776.99 526.0, 777.63 526.67, 778.27 527.33, 778.91 528.0, 779.56 528.67, 780.2 529.33, 780.85 530.0, 781.5 530.67, 782.15 531.33, 782.8 532.0, 783.45 532.67, 784.1 533.33, 784.75 534.0, 785.41 534.67, 786.07 535.33, 786.72 536.0, 787.38 536.67, 788.04 537.33, 788.7 538.0, 789.36 538.67, 790.02 539.33, 790.68 540.0, 791.34 540.67, 792.01 541.33, 792.67 542.0, 793.34 542.67, 794.0 543.33, 794.66 544.0, 795.33 544.67, 796.0 545.33, 796.66 546.0, 797.33 546.67, 797.99 547.33, 798.66 548.0, 799.33 548.67, 799.99 549.33, 800.66 550.0, 801.33 550.67, 801.99 551.33, 802.66 552.0, 803.33 552.67, 803.99 553.33, 804.66 554.0, 805.32 554.67, 805.99 555.33, 806.65 556.0, 807.32 556.67, 807.98 557.33, 808.64 558.0, 809.31 558.67, 809.97 559.33, 810.63 560.0, 811.29 560.67, 811.95 561.33, 812.61 562.0, 813.27 562.67, 813.92 563.33, 814.58 564.0, 815.23 564.67, 815.89 565.33, 816.54 566.0, 817.19 566.67, 817.84 567.33, 818.49 568.0, 819.14 568.67, 819.79 569.33, 820.43 570.0, 821.08 570.67, 821.72 571.33, 822.36 572.0, 823.0 572.67, 823.64 573.33, 824.27 574.0, 824.91 574.67, 825.54 575.33, 826.17 576.0, 826.8 576.67, 827.43 577.33, 828.05 578.0, 828.67 578.67, 829.3 579.33, 829.92 580.0, 830.53 580.67, 831.15 581.33, 831.76 582.0, 832.37 582.67, 832.98 583.33, 833.59 584.0, 834.19 584.67, 834.79 585.33, 835.39 586.0, 835.99 586.67, 836.58 587.33, 837.17 588.0, 837.76 588.67, 838.35 589.33, 838.93 590.0, 839.51 590.67, 840.09 591.33, 840.67 592.0, 841.24 592.67, 841.81 593.33, 842.38 594.0, 842.94 594.67, 843.5 595.33, 844.06 596.0, 844.61 596.67, 845.17 597.33, 845.72 598.0, 846.26 598.67, 846.8 599.33, 847.34 600.0, 847.88 600.67, 848.41 601.33, 848.94 602.0, 849.46 602.67, 849.99 603.33, 850.51 604.0, 851.02 604.67, 851.53 605.33, 852.04 606.0, 852.55 606.67, 853.05 607.33, 853.54 608.0, 854.04 608.67, 854.53 609.33, 855.01 610.0, 855.49 610.67, 855.97 611.33, 856.45 612.0, 856.92 612.67, 857.38 613.33, 857.85 614.0, 858.31 614.67, 858.76 615.33, 859.21 616.0, 859.66 616.67, 860.1 617.33, 860.54 618.0, 860.97 618.67, 861.4 619.33, 861.82 620.0, 862.25 620.67, 862.66 621.33, 863.07 622.0, 863.48 622.67, 863.89 623.33, 864.29 624.0, 864.68 624.67, 865.07 625.33, 865.46 626.0, 865.84 626.67, 866.21 627.33, 866.58 628.0, 866.95 628.67, 867.31 629.33, 867.67 630.0, 868.03 630.67, 868.37 631.33, 868.72 632.0, 869.06 632.67, 869.39 633.33, 869.72 634.0, 870.04 634.67, 870.36 635.33, 870.68 636.0, 870.99 636.67, 871.29 637.33, 871.59 638.0, 871.89 638.67, 872.18 639.33, 872.46 640.0, 872.74 640.67, 873.02 641.33, 873.29 642.0, 873.55 642.67, 873.81 643.33, 874.07 644.0, 874.32 644.67, 874.56 645.33, 874.8 646.0, 875.03 646.67, 875.26 647.33, 875.49 648.0, 875.7 648.67, 875.92 649.33, 876.12 650.0, 876.33 650.67, 876.52 651.33, 876.72 652.0, 876.9 652.67, 877.08 653.33, 877.26 654.0, 877.43 654.67, 877.59 655.33, 877.75 656.0, 877.91 656.67, 878.06 657.33, 878.2 658.0, 878.34 658.67, 878.47 659.33, 878.6 660.0, 878.72 660.67, 878.83 661.33, 878.95 662.0, 879.05 662.67, 879.15 663.33, 879.24 664.0, 879.33 664.67, 879.42 665.33, 879.49 666.0, 879.57 666.67, 879.63 667.33, 879.69 668.0, 879.75 668.67, 879.8 669.33, 879.84 670.0, 879.88 670.67, 879.92 671.33, 879.94 672.0, 879.97 672.67, 879.98 673.33, 879.99 674.0, 880.0 674.67, 880.0 675.33, 879.99 676.0, 879.98 676.67, 879.97 677.33, 879.94 678.0, 879.92 678.67, 879.88 679.33, 879.84 680.0, 879.8 680.67, 879.75 681.33, 879.69 682.0, 879.63 682.67, 879.57 683.33, 879.49 684.0, 879.42 684.67, 879.33 685.33, 879.25 686.0, 879.15 686.67, 879.05 687.33, 878.95 688.0, 878.84 688.67, 878.72 689.33, 878.6 690.0, 878.47 690.67, 878.34 691.33, 878.2 692.0, 878.06 692.67, 877.91 693.33, 877.76 694.0, 877.6 694.67, 877.43 695.33, 877.26 696.0, 877.08 696.67, 876.9 697.33, 876.72 698.0, 876.53 698.67, 876.33 699.33, 876.13 700.0, 875.92 700.67, 875.71 701.33, 875.49 702.0, 875.26 702.67, 875.04 703.33, 874.8 704.0, 874.56 704.67, 874.32 705.33, 874.07 706.0, 873.82 706.67, 873.56 707.33, 873.29 708.0, 873.02 708.67, 872.75 709.33, 872.47 710.0, 872.18 710.67, 871.89 711.33, 871.6 712.0, 871.3 712.67, 870.99 713.33, 870.68 714.0, 870.37 714.67, 870.05 715.33, 869.72 716.0, 869.39 716.67, 869.06 717.33, 868.72 718.0, 868.38 718.67, 868.03 719.33, 867.68 720.0, 867.32 720.67, 866.96 721.33, 866.59 722.0, 866.22 722.67, 865.84 723.33, 865.46 724.0, 865.07 724.67, 864.68 725.33, 864.29 726.0, 863.89 726.67, 863.49 727.33, 863.08 728.0, 862.67 728.67, 862.25 729.33, 861.83 730.0, 861.4 730.67, 860.97 731.33, 860.54 732.0, 860.1 732.67, 859.66 733.33, 859.21 734.0, 858.76 734.67, 858.31 735.33, 857.85 736.0, 857.39 736.67, 856.92 737.33, 856.45 738.0, 855.98 738.67, 855.5 739.33, 855.02 740.0, 854.53 740.67, 854.04 741.33, 853.55 742.0, 853.05 742.67, 852.55 743.33, 852.05 744.0, 851.54 744.67, 851.03 745.33, 850.51 746.0, 849.99 746.67, 849.47 747.33, 848.94 748.0, 848.41 748.67, 847.88 749.33, 847.35 750.0, 846.81 750.67, 846.27 751.33, 845.72 752.0, 845.17 752.67, 844.62 753.33, 844.06 754.0, 843.51 754.67, 842.95 755.33, 842.38 756.0, 841.81 756.67, 841.25 757.33, 840.67 758.0, 840.1 758.67, 839.52 759.33, 838.94 760.0, 838.35 760.67, 837.77 761.33, 837.18 762.0, 836.59 762.67, 835.99 763.33, 835.4 764.0, 834.8 764.67, 834.2 765.33, 833.59 766.0, 832.99 766.67, 832.38 767.33, 831.77 768.0, 831.15 768.67, 830.54 769.33, 829.92 770.0, 829.3 770.67, 828.68 771.33, 828.06 772.0, 827.43 772.67, 826.8 773.33, 826.18 774.0, 825.54 774.67, 824.91 775.33, 824.28 776.0, 823.64 776.67, 823.0 777.33, 822.36 778.0, 821.72 778.67, 821.08 779.33, 820.44 780.0, 819.79 780.67, 819.15 781.33, 818.5 782.0, 817.85 782.67, 817.2 783.33, 816.55 784.0, 815.89 784.67, 815.24 785.33, 814.58 786.0, 813.93 786.67, 813.27 787.33, 812.61 788.0, 811.96 788.67, 811.3 789.33, 810.64 790.0, 809.97 790.67, 809.31 791.33, 808.65 792.0, 807.99 792.67, 807.32 793.33, 806.66 794.0, 805.99 794.67, 805.33 795.33, 804.66 796.0, 804.0 796.67, 803.33 797.33, 802.67 798.0, 802.0 798.67, 801.33 799.33, 800.67 800.0, 800.0 800.67, 799.33 801.33, 798.67 802.0, 798.0 802.67, 797.33 803.33, 796.67 804.0, 796.0 804.67, 795.34 805.33, 794.67 806.0, 794.01 806.67, 793.34 807.33, 792.68 808.0, 792.01 808.67, 791.35 809.33, 790.69 810.0, 790.03 810.67, 789.36 811.33, 788.7 812.0, 788.04 812.67, 787.39 813.33, 786.73 814.0, 786.07 814.67, 785.42 815.33, 784.76 816.0, 784.11 816.67, 783.45 817.33, 782.8 818.0, 782.15 818.67, 781.5 819.33, 780.85 820.0, 780.21 820.67, 779.56 821.33, 778.92 822.0, 778.28 822.67, 777.64 823.33, 777.0 824.0, 776.36 824.67, 775.72 825.33, 775.09 826.0, 774.46 826.67, 773.82 827.33, 773.2 828.0, 772.57 828.67, 771.94 829.33, 771.32 830.0, 770.7 830.67, 770.08 831.33, 769.46 832.0, 768.85 832.67, 768.23 833.33, 767.62 834.0, 767.01 834.67, 766.41 835.33, 765.8 836.0, 765.2 836.67, 764.6 837.33, 764.01 838.0, 763.41 838.67, 762.82 839.33, 762.23 840.0, 761.65 840.67, 761.06 841.33, 760.48 842.0, 759.9 842.67, 759.33 843.33, 758.75 844.0, 758.19 844.67, 757.62 845.33, 757.05 846.0, 756.49 846.67, 755.94 847.33, 755.38 848.0, 754.83 848.67, 754.28 849.33, 753.73 850.0, 753.19 850.67, 752.65 851.33, 752.12 852.0, 751.59 852.67, 751.06 853.33, 750.53 854.0, 750.01 854.67, 749.49 855.33, 748.97 856.0, 748.46 856.67, 747.95 857.33, 747.45 858.0, 746.95 858.67, 746.45 859.33, 745.96 860.0, 745.47 860.67, 744.98 861.33, 744.5 862.0, 744.02 862.67, 743.55 863.33, 743.08 864.0, 742.61 864.67, 742.15 865.33, 741.69 866.0, 741.24 866.67, 740.79 867.33, 740.34 868.0, 739.9 868.67, 739.46 869.33, 739.03 870.0, 738.6 870.67, 738.17 871.33, 737.75 872.0, 737.33 872.67, 736.92 873.33, 736.51 874.0, 736.11 874.67, 735.71 875.33, 735.32 876.0, 734.93 876.67, 734.54 877.33, 734.16 878.0, 733.78 878.67, 733.41 879.33, 733.04 880.0, 732.68 880.67, 732.32 881.33, 731.97 882.0, 731.62 882.67, 731.28 883.33, 730.94 884.0, 730.61 884.67, 730.28 885.33, 729.95 886.0, 729.63 886.67, 729.32 887.33, 729.01 888.0, 728.7 888.67, 728.4 889.33, 728.11 890.0, 727.82 890.67, 727.53 891.33, 727.25 892.0, 726.98 892.67, 726.71 893.33, 726.44 894.0, 726.18 894.67, 725.93 895.33, 725.68 896.0, 725.44 896.67, 725.2 897.33, 724.96 898.0, 724.74 898.67, 724.51 899.33, 724.29 900.0, 724.08 900.67, 723.87 901.33, 723.67 902.0, 723.47 902.67, 723.28 903.33, 723.1 904.0, 722.92 904.67, 722.74 905.33, 722.57 906.0, 722.4 906.67, 722.24 907.33, 722.09 908.0, 721.94 908.67, 721.8 909.33, 721.66 910.0, 721.53 910.67, 721.4 911.33, 721.28 912.0, 721.16 912.67, 721.05 913.33, 720.95 914.0, 720.85 914.67, 720.75 915.33, 720.67 916.0, 720.58 916.67, 720.51 917.33, 720.43 918.0, 720.37 918.67, 720.31 919.33, 720.25 920.0, 720.2 920.67, 720.16 921.33, 720.12 922.0, 720.08 922.67, 720.06 923.33, 720.03 924.0, 720.02 924.67, 720.01 925.33, 720.0 926.0, 720.0 926.67, 720.01 927.33, 720.02 928.0, 720.03 928.67, 720.06 929.33, 720.08 930.0, 720.12 930.67, 720.16 931.33, 720.2 932.0, 720.25 932.67, 720.31 933.33, 720.37 934.0, 720.43 934.67, 720.51 935.33, 720.58 936.0, 720.67 936.67, 720.76 937.33, 720.85 938.0, 720.95 938.67, 721.05 939.33, 721.17 940.0, 721.28 940.67, 721.4 941.33, 721.53 942.0, 721.66 942.67, 721.8 943.33, 721.94 944.0, 722.09 944.67, 722.25 945.33, 722.41 946.0, 722.57 946.67, 722.74 947.33, 722.92 948.0, 723.1 948.67, 723.28 949.33, 723.48 950.0, 723.67 950.67, 723.88 951.33, 724.08 952.0, 724.3 952.67, 724.51 953.33, 724.74 954.0, 724.97 954.67, 725.2 955.33, 725.44 956.0, 725.68 956.67, 725.93 957.33, 726.19 958.0, 726.45 958.67, 726.71 959.33, 726.98 960.0, 727.26 960.67, 727.54 961.33, 727.82 962.0, 728.11 962.67, 728.41 963.33, 728.71 964.0, 729.01 964.67, 729.32 965.33, 729.64 966.0, 729.96 966.67, 730.28 967.33, 730.61 968.0, 730.94 968.67, 731.28 969.33, 731.63 970.0, 731.97 970.67, 732.33 971.33, 732.69 972.0, 733.05 972.67, 733.42 973.33, 733.79 974.0, 734.16 974.67, 734.54 975.33, 734.93 976.0, 735.32 976.67, 735.71 977.33, 736.11 978.0, 736.52 978.67, 736.93 979.33, 737.34 980.0, 737.75 980.67, 738.18 981.33, 738.6 982.0, 739.03 982.67, 739.46 983.33, 739.9 984.0, 740.34 984.67, 740.79 985.33, 741.24 986.0, 741.69 986.67, 742.15 987.33, 742.62 988.0, 743.08 988.67, 743.55 989.33, 744.03 990.0, 744.51 990.67, 744.99 991.33, 745.47 992.0, 745.96 992.67, 746.46 993.33, 746.95 994.0, 747.45 994.67, 747.96 995.33, 748.47 996.0, 748.98 996.67, 749.49 997.33, 750.01 998.0, 750.54 998.67, 751.06 999.33, 751.59 1000.0, 752.12 1000.67, 752.66 1001.33, 753.2 1002.0, 753.74 1002.67, 754.28 1003.33, 754.83 1004.0, 755.39 1004.67, 755.94 1005.33, 756.5 1006.0, 757.06 1006.67, 757.62 1007.33, 758.19 1008.0, 758.76 1008.67, 759.33 1009.33, 759.91 1010.0, 760.49 1010.67, 761.07 1011.33, 761.65 1012.0, 762.24 1012.67, 762.83 1013.33, 763.42 1014.0, 764.01 1014.67, 764.61 1015.33, 765.21 1016.0, 765.81 1016.67, 766.41 1017.33, 767.02 1018.0, 767.63 1018.67, 768.24 1019.33, 768.85 1020.0, 769.47 1020.67, 770.08 1021.33, 770.7 1022.0, 771.33 1022.67, 771.95 1023.33, 772.57 1024.0, 773.2 1024.67, 773.83 1025.33, 774.46 1026.0, 775.09 1026.67, 775.73 1027.33, 776.36 1028.0, 777.0 1028.67, 777.64 1029.33, 778.28 1030.0, 778.92 1030.67, 779.57 1031.33, 780.21 1032.0, 780.86 1032.67, 781.51 1033.33, 782.16 1034.0, 782.81 1034.67, 783.46 1035.33, 784.11 1036.0, 784.77 1036.67, 785.42 1037.33, 786.08 1038.0, 786.73 1038.67, 787.39 1039.33, 788.05 1040.0, 788.71 1040.67, 789.37 1041.33, 790.03 1042.0, 790.69 1042.67, 791.36 1043.33, 792.02 1044.0, 792.68 1044.67, 793.35 1045.33, 794.01 1046.0, 794.68 1046.67, 795.34 1047.33, 796.01 1048.0, 796.67 1048.67, 797.34 1049.33, 798.01 1050.0, 798.67 1050.67, 799.34 1051.33, 800.01 1052.0, 800.67 1052.67, 801.34 1053.33, 802.01 1054.0, 802.67 1054.67, 803.34 1055.33, 804.0 1056.0, 804.67 1056.67, 805.34 1057.33, 806.0 1058.0, 806.66 1058.67, 807.33 1059.33, 807.99 1060.0, 808.66 1060.67, 809.32 1061.33, 809.98 1062.0, 810.64 1062.67, 811.3 1063.33, 811.96 1064.0, 812.62 1064.67, 813.28 1065.33, 813.93 1066.0, 814.59 1066.67, 815.25 1067.33, 815.9 1068.0, 816.55 1068.67, 817.2 1069.33, 817.85 1070.0, 818.5 1070.67, 819.15 1071.33, 819.8 1072.0, 820.44 1072.67, 821.09 1073.33, 821.73 1074.0, 822.37 1074.67, 823.01 1075.33, 823.65 1076.0, 824.28 1076.67, 824.92 1077.33, 825.55 1078.0, 826.18 1078.67, 826.81 1079.33, 827.44 1080.0, 828.06 1080.67, 828.69 1081.33, 829.31 1082.0, 829.93 1082.67, 830.54 1083.33, 831.16 1084.0, 831.77 1084.67, 832.38 1085.33, 832.99 1086.0, 833.6 1086.67, 834.2 1087.33, 834.8 1088.0, 835.4 1088.67, 836.0 1089.33, 836.59 1090.0, 837.18 1090.67, 837.77 1091.33, 838.36 1092.0, 838.94 1092.67, 839.52 1093.33, 840.1 1094.0, 840.68 1094.67, 841.25 1095.33, 841.82 1096.0, 842.39 1096.67, 842.95 1097.33, 843.51 1098.0, 844.07 1098.67, 844.62 1099.33, 845.18 1100.0, 845.72 1100.67, 846.27 1101.33, 846.81 1102.0, 847.35 1102.67, 847.89 1103.33, 848.42 1104.0, 848.95 1104.67, 849.47 1105.33, 850.0 1106.0, 850.52 1106.67, 851.03 1107.33, 851.54 1108.0, 852.05 1108.67, 852.55 1109.33, 853.06 1110.0, 853.55 1110.67, 854.05 1111.33, 854.54 1112.0, 855.02 1112.67, 855.5 1113.33, 855.98 1114.0, 856.46 1114.67, 856.93 1115.33, 857.39 1116.0, 857.86 1116.67, 858.31 1117.33, 858.77 1118.0, 859.22 1118.67, 859.66 1119.33, 860.11 1120.0, 860.54 1120.67, 860.98 1121.33, 861.41 1122.0, 861.83 1122.67, 862.25 1123.33, 862.67 1124.0, 863.08 1124.67, 863.49 1125.33, 863.89 1126.0, 864.29 1126.67, 864.69 1127.33, 865.08 1128.0, 865.46 1128.67, 865.84 1129.33, 866.22 1130.0, 866.59 1130.67, 866.96 1131.33, 867.32 1132.0, 867.68 1132.67, 868.03 1133.33, 868.38 1134.0, 868.72 1134.67, 869.06 1135.33, 869.4 1136.0, 869.73 1136.67, 870.05 1137.33, 870.37 1138.0, 870.68 1138.67, 870.99 1139.33, 871.3 1140.0, 871.6 1140.67, 871.89 1141.33, 872.18 1142.0, 872.47 1142.67, 872.75 1143.33, 873.02 1144.0, 873.29 1144.67, 873.56 1145.33, 873.82 1146.0, 874.07 1146.67, 874.32 1147.33, 874.57 1148.0, 874.8 1148.67, 875.04 1149.33, 875.27 1150.0, 875.49 1150.67, 875.71 1151.33, 875.92 1152.0, 876.13 1152.67, 876.33 1153.33, 876.53 1154.0, 876.72 1154.67, 876.9 1155.33, 877.09 1156.0, 877.26 1156.67, 877.43 1157.33, 877.6 1158.0, 877.76 1158.67, 877.91 1159.33, 878.06 1160.0, 878.2 1160.67, 878.34 1161.33, 878.47 1162.0, 878.6 1162.67, 878.72 1163.33, 878.84 1164.0, 878.95 1164.67, 879.05 1165.33, 879.15 1166.0, 879.25 1166.67, 879.33 1167.33, 879.42 1168.0, 879.49 1168.67, 879.57 1169.33, 879.63 1170.0, 879.69 1170.67, 879.75 1171.33, 879.8 1172.0, 879.84 1172.67, 879.88 1173.33, 879.92 1174.0, 879.94 1174.67, 879.97 1175.33, 879.98 1176.0, 879.99 1176.67, 880.0 1177.33, 880.0 1178.0, 879.99 1178.67, 879.98 1179.33, 879.96 1180.0, 879.94 1180.67, 879.91 1181.33, 879.88 1182.0, 879.84 1182.67, 879.8 1183.33, 879.75 1184.0, 879.69 1184.67, 879.63 1185.33, 879.56 1186.0, 879.49 1186.67, 879.41 1187.33, 879.33 1188.0, 879.24 1188.67, 879.15 1189.33, 879.05 1190.0, 878.94 1190.67, 878.83 1191.33, 878.72 1192.0, 878.59 1192.67, 878.47 1193.33, 878.33 1194.0, 878.2 1194.67, 878.05 1195.33, 877.9 1196.0, 877.75 1196.67, 877.59 1197.33, 877.42 1198.0, 877.25 1198.67, 877.08 1199.33, 876.9 1200.0, 876.71 1200.67, 876.52 1201.33, 876.32 1202.0, 876.12 1202.67, 875.91 1203.33, 875.7 1204.0, 875.48 1204.67, 875.26 1205.33, 875.03 1206.0, 874.79 1206.67, 874.55 1207.33, 874.31 1208.0, 874.06 1208.67, 873.81 1209.33, 873.55 1210.0, 873.28 1210.67, 873.01 1211.33, 872.74 1212.0, 872.46 1212.67, 872.17 1213.33, 871.88 1214.0, 871.58 1214.67, 871.28 1215.33, 870.98 1216.0, 870.67 1216.67, 870.35 1217.33, 870.03 1218.0, 869.71 1218.67, 869.38 1219.33, 869.05 1220.0, 868.71 1220.67, 868.36 1221.33, 868.01 1222.0, 867.66 1222.67, 867.3 1223.33, 866.94 1224.0, 866.57 1224.67, 866.2 1225.33, 865.82 1226.0, 865.44 1226.67, 865.06 1227.33, 864.66 1228.0, 864.27 1228.67, 863.87 1229.33, 863.47 1230.0, 863.06 1230.67, 862.65 1231.33, 862.23 1232.0, 861.81 1232.67, 861.38 1233.33, 860.95 1234.0, 860.52 1234.67, 860.08 1235.33, 859.64 1236.0, 859.19 1236.67, 858.74 1237.33, 858.28 1238.0, 857.82 1238.67, 857.36 1239.33, 856.89 1240.0, 856.42 1240.67, 855.95 1241.33, 855.47 1242.0, 854.99 1242.67, 854.5 1243.33, 854.01 1244.0, 853.52 1244.67, 853.02 1245.33, 852.52 1246.0, 852.01 1246.67, 851.5 1247.33, 850.99 1248.0, 850.47 1248.67, 849.95 1249.33, 849.43 1250.0, 848.9 1250.67, 848.37 1251.33, 847.84 1252.0, 847.3 1252.67, 846.76 1253.33, 846.22 1254.0, 845.68 1254.67, 845.13 1255.33, 844.57 1256.0, 844.02 1256.67, 843.46 1257.33, 842.9 1258.0, 842.33 1258.67, 841.76 1259.33, 841.19 1260.0, 840.62 1260.67, 840.04 1261.33, 839.46 1262.0, 838.88 1262.67, 838.29 1263.33, 837.71 1264.0, 837.12 1264.67, 836.52 1265.33, 835.93 1266.0, 835.33 1266.67, 834.73 1267.33, 834.13 1268.0, 833.52 1268.67, 832.91 1269.33, 832.3 1270.0, 831.69 1270.67, 831.07 1271.33, 830.46 1272.0, 829.84 1272.67, 829.22 1273.33, 828.59 1274.0, 827.97 1274.67, 827.34 1275.33, 826.71 1276.0, 826.08 1276.67, 825.45 1277.33, 824.81 1278.0, 824.18 1278.67, 823.54 1279.33, 822.9 1280.0, 822.26 1280.67, 821.61 1281.33, 820.97 1282.0, 820.32 1282.67, 819.67 1283.33, 819.02 1284.0, 818.37 1284.67, 817.72 1285.33, 817.07 1286.0, 816.41 1286.67, 815.76 1287.33, 815.1 1288.0, 814.44 1288.67, 813.78 1289.33, 813.12 1290.0, 812.46 1290.67, 811.8 1291.33, 811.13 1292.0, 810.47 1292.67, 809.8 1293.33, 809.14 1294.0, 808.47 1294.67, 807.8 1295.33, 807.14 1296.0, 806.47 1296.67, 805.8 1297.33, 805.13 1298.0, 804.46 1298.67, 803.79 1299.33, 803.12 1300.0, 802.45 1300.67, 801.78 1301.33, 801.1 1302.0, 800.43 1302.67, 799.76 1303.33, 799.09 1304.0, 798.41 1304.67, 797.74 1305.33, 797.07 1306.0, 796.4 1306.67, 795.72 1307.33, 795.05 1308.0, 794.38 1308.67, 793.71 1309.33, 793.04 1310.0, 792.37 1310.67, 791.7 1311.33, 791.03 1312.0, 790.36 1312.67, 789.69 1313.33, 789.02 1314.0, 788.35 1314.67, 787.68 1315.33, 787.01 1316.0, 786.35 1316.67, 785.68 1317.33, 785.02 1318.0, 784.35 1318.67, 783.69 1319.33, 783.03 1320.0, 782.36 1320.67, 781.7 1321.33, 781.04 1322.0, 780.39 1322.67, 779.73 1323.33, 779.07 1324.0, 778.42 1324.67, 777.76 1325.33, 777.11 1326.0, 776.46 1326.67, 775.81 1327.33, 775.16 1328.0, 774.51 1328.67, 773.87 1329.33, 773.22 1330.0, 772.58 1330.67, 771.94 1331.33, 771.3 1332.0, 770.66 1332.67, 770.03 1333.33, 769.39 1334.0, 768.76 1334.67, 768.13 1335.33, 767.5 1336.0, 766.87 1336.67, 766.25 1337.33, 765.62 1338.0, 765.0 1338.67, 764.38 1339.33, 763.76 1340.0, 763.15 1340.67, 762.54 1341.33, 761.92 1342.0, 761.32 1342.67, 760.71 1343.33, 760.1 1344.0, 759.5 1344.67, 758.9 1345.33, 758.3 1346.0, 757.71 1346.67, 757.12 1347.33, 756.53 1348.0, 755.94 1348.67, 755.35 1349.33, 754.77 1350.0, 754.19 1350.67, 753.61 1351.33, 753.03 1352.0, 752.46 1352.67, 751.89 1353.33, 751.32 1354.0, 750.76 1354.67, 750.2 1355.33, 749.64 1356.0, 749.08 1356.67, 748.53 1357.33, 747.98 1358.0, 747.43 1358.67, 746.88 1359.33, 746.34 1360.0, 745.8 1360.67, 745.26 1361.33, 744.73 1362.0, 744.2 1362.67, 743.67 1363.33, 743.15 1364.0, 742.63 1364.67, 742.11 1365.33, 741.59 1366.0, 741.08 1366.67, 740.57 1367.33, 740.07 1368.0, 739.56 1368.67, 739.06 1369.33, 738.57 1370.0, 738.07 1370.67, 737.58 1371.33, 737.1 1372.0, 736.61 1372.67, 736.13 1373.33, 735.65 1374.0, 735.18 1374.67, 734.71 1375.33, 734.24 1376.0, 733.78 1376.67, 733.32 1377.33, 732.86 1378.0, 732.4 1378.67, 731.95 1379.33, 731.51 1380.0, 731.06 1380.67, 730.62 1381.33, 730.18 1382.0, 729.75 1382.67, 729.32 1383.33, 728.89 1384.0, 728.46 1384.67, 728.04 1385.33, 727.63 1386.0, 727.21 1386.67, 726.8 1387.33, 726.39 1388.0, 725.99 1388.67, 725.59 1389.33, 725.19 1390.0, 724.8 1390.67, 724.4 1391.33, 724.02 1392.0, 723.63 1392.67, 723.25 1393.33, 722.87 1394.0, 722.5 1394.67, 722.13 1395.33, 721.76 1396.0, 721.39 1396.67, 721.03 1397.33, 720.67 1398.0, 720.32 1398.67, 719.96 1399.33, 719.61 1400.0, 719.27 1400.67, 718.93 1401.33, 718.59 1402.0, 718.25 1402.67, 717.91 1403.33, 717.58 1404.0, 717.26 1404.67, 716.93 1405.33, 716.61 1406.0, 716.29 1406.67, 715.97 1407.33, 715.66 1408.0, 715.35 1408.67, 715.04 1409.33, 714.74 1410.0, 714.43 1410.67, 714.13 1411.33, 713.84 1412.0, 713.54 1412.67, 713.25 1413.33, 712.96 1414.0, 712.68 1414.67, 712.39 1415.33, 712.11 1416.0, 711.83 1416.67, 711.55 1417.33, 711.28 1418.0, 711.0 1418.67, 710.73 1419.33, 710.46 1420.0, 710.2 1420.67, 709.93 1421.33, 709.67 1422.0, 709.41 1422.67, 709.15 1423.33, 708.89 1424.0, 708.64 1424.67, 708.38 1425.33, 708.13 1426.0, 707.88 1426.67, 707.63 1427.33, 707.38 1428.0, 707.14 1428.67, 706.89 1429.33, 706.65 1430.0, 706.41 1430.67, 706.16 1431.33, 705.92 1432.0, 705.68 1432.67, 705.44 1433.33, 705.2 1434.0, 704.97 1434.67, 704.73 1435.33, 704.49 1436.0, 704.26 1436.67, 704.02 1437.33, 703.79 1438.0, 703.55 1438.67, 703.31 1439.33, 703.08 1440.0, 702.84 1440.67, 702.61 1441.33, 702.37 1442.0, 702.13 1442.67, 701.9 1443.33, 701.66 1444.0, 701.42 1444.67, 701.18 1445.33, 700.94 1446.0, 700.7 1446.67, 700.45 1447.33, 700.21 1448.0, 699.97 1448.67, 699.72 1449.33, 699.47 1450.0, 699.22 1450.67, 698.97 1451.33, 698.71 1452.0, 698.45 1452.67, 698.2 1453.33, 697.93 1454.0, 697.67 1454.67, 697.4 1455.33, 697.13 1456.0, 696.86 1456.67, 696.59 1457.33, 696.31 1458.0, 696.02 1458.67, 695.74 1459.33, 695.45 1460.0, 695.16 1460.67, 694.86 1461.33, 694.56 1462.0, 694.25 1462.67, 693.94 1463.33, 693.62 1464.0, 693.3 1464.67, 692.98 1465.33, 692.65 1466.0, 692.31 1466.67, 691.97 1467.33, 691.62 1468.0, 691.27 1468.67, 690.91 1469.33, 690.55 1470.0, 690.18 1470.67, 689.8 1471.33, 689.41 1472.0, 689.02 1472.67, 688.62 1473.33, 688.21 1474.0, 687.8 1474.67, 687.37 1475.33, 686.94 1476.0, 686.5 1476.67, 686.06 1477.33, 685.6 1478.0, 685.14 1478.67, 684.66 1479.33, 684.18 1480.0, 683.68 1480.67, 683.18 1481.33, 682.67 1482.0, 682.14 1482.67, 681.61 1483.33, 681.06 1484.0, 680.5 1484.67, 679.94 1485.33, 679.36 1486.0, 678.76 1486.67, 678.16 1487.33, 677.54 1488.0, 676.92 1488.67, 676.27 1489.33, 675.62 1490.0, 674.95 1490.67, 674.27 1491.33, 673.57 1492.0, 672.86 1492.67, 672.13 1493.33, 671.39 1494.0, 670.64 1494.67, 669.86 1495.33, 669.08 1496.0, 668.27 1496.67, 667.45 1497.33, 666.61 1498.0, 665.76 1498.67, 664.89 1499.33, 664.0 1500.0, 663.09 1500.67, 662.16 1501.33, 661.22 1502.0, 660.25 1502.67, 659.27 1503.33, 658.26 1504.0, 657.24 1504.67, 656.19 1505.33, 655.13 1506.0, 654.04 1506.67, 652.93 1507.33, 651.8 1508.0, 650.64 1508.67, 649.46 1509.33, 648.26 1510.0, 647.04 1510.67, 645.79 1511.33, 644.52 1512.0, 643.22 1512.67, 641.89 1513.33, 640.54 1514.0, 639.17 1514.67, 637.76 1515.33, 636.33 1516.0, 634.88 1516.67, 633.39 1517.33, 631.88 1518.0, 630.33 1518.67, 628.76 1519.33, 627.16 1520.0, 625.52 1520.67, 623.86 1521.33, 622.16 1522.0, 620.44 1522.67, 618.68 1523.33, 616.88 1524.0, 615.06 1524.67, 613.2 1525.33, 611.3 1526.0, 609.38 1526.67, 607.41 1527.33, 605.41 1528.0, 603.37 1528.67, 601.3 1529.33, 599.19 1530.0, 597.03 1530.67, 594.85 1531.33, 592.62 1532.0, 590.35 1532.67, 588.04 1533.33, 585.69 1534.0, 583.3 1534.67, 580.86 1535.33, 578.38 1536.0, 575.86 1536.67, 573.3 1537.33, 570.69 1538.0, 568.03 1538.67, 565.33 1539.33, 562.58 1540.0, 559.79 1540.67, 556.94 1541.33, 554.05 1542.0, 551.11 1542.67, 548.11 1543.33, 545.07 1544.0, 541.98 1544.67, 538.83 1545.33, 535.63 1546.0, 532.38 1546.67, 529.07 1547.33, 525.7 1548.0, 522.28 1548.67, 518.81 1549.33, 515.27 1550.0, 511.68 1550.67, 508.03 1551.33, 504.32 1552.0, 500.55 1552.67, 496.72 1553.33, 492.82 1554.0, 488.87 1554.67, 484.84 1555.33, 480.76 1556.0, 476.61 1556.67, 472.39 1557.33, 468.1 1558.0, 463.75 1558.67, 459.33 1559.33, 454.84 1560.0, 450.27 1560.67, 445.64 1561.33, 440.93 1562.0, 436.15 1562.67, 431.3 1563.33, 426.37 1564.0, 421.36 1564.67, 416.28 1565.33, 411.12 1566.0, 405.87 1566.67, 400.55 1567.33, 395.15 1568.0, 389.67 1568.67, 384.1 1569.33, 378.45 1570.0, 372.71 1570.67, 366.89 1571.33, 360.98 1572.0, 354.98 1572.67, 348.89 1573.33, 342.71 1574.0, 336.44 1574.67, 330.08 1575.33, 323.62 1576.0, 317.07 1576.67, 310.42 1577.33, 303.67 1578.0, 296.83 1578.67, 289.89 1579.33, 282.84 1580.0, 275.69 1580.67, 268.45 1581.33, 261.09 1582.0, 253.63 1582.67, 246.07 1583.33, 238.39 1584.0, 230.61 1584.67, 222.72 1585.33, 214.71 1586.0, 206.59 1586.67, 198.36 1587.33, 190.01 1588.0, 181.55 1588.67, 172.96 1589.33, 164.26 1590.0, 155.43 1590.67, 146.49 1591.33, 137.42 1592.0, 128.22 1592.67, 118.9 1593.33, 109.45 1594.0, 99.87 1594.67, 90.16 1595.33, 80.31 1596.0, 70.34 1596.67, 60.22 1597.33, 49.97 1598.0, 39.59 1598.67, 29.06 1599.33, 18.39 1600.0, 7.58 " fill="none" stroke="white" stroke-width="1.5" stroke-linejoin="round" stroke-opacity="1"/>

 </svg>