<svg version="1.1" 
 baseProfile="full" 
 width="1600" 
 height="1600" 
 xmlns="http://www.w3.org/2000/svg">
<rect x="0.0" y="0.0" width="1600" height="1600" fill="black" stroke="black" stroke-width="0" opacity="1"/>
<line x1="0.0" y1="0.0" x2="0.0" y2="1600.0" stroke="white" stroke-width="1" opacity="0.4" stroke-linecap="butt"/>
<line x1="160.0" y1="0.0" x2="160.0" y2="1600.0" stroke="white" stroke-width="1" opacity="0.4" stroke-linecap="butt"/>
<line x1="320.0" y1="0.0" x2="320.0" y2="1600.0" stroke="white" stroke-width="1" opacity="0.4" stroke-linecap="butt"/>
<line x1="480.0" y1="0.0" x2="480.0" y2="1600.0" stroke="white" stroke-width="1" opacity="0.4" stroke-linecap="butt"/>
<line x1="640.0" y1="0.0" x2="640.0" y2="1600.0" stroke="white" stroke-width="1" opacity="0.4" stroke-linecap="butt"/>
<line x1="800.0" y1="0.0" x2="800.0" y2="1600.0" stroke="white" stroke-width="1" opacity="0.4" stroke-linecap="butt"/>
<line x1="960.0" y1="0.0" x2="960.0" y2="1600.0" stroke="white" stroke-width="1" opacity="0.4" stroke-linecap="butt"/>
<line x1="1120.0" y1="0.0" x2="1120.0" y2="1600.0" stroke="white" stroke-width="1" opacity="0.4" stroke-linecap="butt"/>
<line x1="1280.0" y1="0.0" x2="1280.0" y2="1600.0" stroke="white" stroke-width="1" opacity="0.4" stroke-linecap="butt"/>
<line x1="1440.0" y1="0.0" x2="1440.0" y2="1600.0" stroke="white" stroke-width="1" opacity="0.4" stroke-linecap="butt"/>
<line x1="0.0" y1="0.0" x2="1600.0" y2="0.0" stroke="white" stroke-width="1" opacity="0.4" stroke-linecap="butt"/>
<line x1="0.0" y1="160.0" x2="1600.0" y2="160.0" stroke="white" stroke-width="1" opacity="0.4" stroke-linecap="butt"/>
<line x1="0.0" y1="320.0" x2="1600.0" y2="320.0" stroke="white" stroke-width="1" opacity="0.4" stroke-linecap="butt"/>
<line x1="0.0" y1="480.0" x2="1600.0" y2="480.0" stroke="white" stroke-width="1" opacity="0.4" stroke-linecap="butt"/>
<line x1="0.0" y1="640.0" x2="1600.0" y2="640.0" stroke="white" stroke-width="1" opacity="0.4" stroke-linecap="butt"/>
<line x1="0.0" y1="800.0" x2="1600.0" y2="800.0" stroke="white" stroke-width="1" opacity="0.4" stroke-linecap="butt"/>
<line x1="0.0" y1="960.0" x2="1600.0" y2="960.0" stroke="white" stroke-width="1" opacity="0.4" stroke-linecap="butt"/>
<line x1="0.0" y1="1120.0" x2="1600.0" y2="1120.0" stroke="white" stroke-width="1" opacity="0.4" stroke-linecap="butt"/>
<line x1="0.0" y1="1280.0" x2="1600.0" y2="1280.0" stroke="white" stroke-width="1" opacity="0.4" stroke-linecap="butt"/>
<line x1="0.0" y1="1440.0" x2="1600.0" y2="1440.0" stroke="white" stroke-width="1" opacity="0.4" stroke-linecap="butt"/>
<line x1="0.0" y1="800.0" x2="1600.0" y2="800.0" stroke="yellow" stroke-width="2.5" opacity="1" stroke-linecap="butt"/>
<line x1="800.0" y1="0.0" x2="800.0" y2="1600.0" stroke="yellow" stroke-width="2.5" opacity="1" stroke-linecap="butt"/>
<polygon points="1564.0 816.0, 1604.0 800.0, 1564.0 784.0, 1572.0 800.0" fill="yellow"/><polygon points="816.0 36.0, 800.0 -4.0, 784.0 36.0, 800.0 28.0" fill="yellow"/><polyline points="0.0, 852.56 0.67, 853.38 1.33, 854.16 2.0, 854.92 2.67, 855.65 3.33, 856.35 4.0, 857.02 4.67, 857.67 5.33, 858.29 6.0, 858.88 6.67, 859.46 7.33, 860.01 8.0, 860.53 8.67, 861.04 9.33, 861.53 10.0, 861.99 10.67, 862.44 11.33, 862.86 12.0, 863.27 12.67, 863.66 13.33, 864.04 14.0, 864.39 14.67, 864.74 15.33, 865.06 16.0, 865.38 16.67, 865.67 17.33, 865.96 18.0, 866.23 18.67, 866.49 19.33, 866.73 20.0, 866.97 20.67, 867.19 21.33, 867.41 22.0, 867.61 22.67, 867.8 23.33, 867.99 24.0, 868.16 24.67, 868.33 25.33, 868.48 26.0, 868.63 26.67, 868.78 27.33, 868.91 28.0, 869.04 28.67, 869.16 29.33, 869.28 30.0, 869.39 30.67, 869.49 31.33, 869.59 32.0, 869.69 32.67, 869.78 33.33, 869.86 34.0, 869.95 34.67, 870.02 35.33, 870.1 36.0, 870.17 36.67, 870.24 37.33, 870.3 38.0, 870.37 38.67, 870.42 39.33, 870.48 40.0, 870.54 40.67, 870.59 41.33, 870.64 42.0, 870.7 42.67, 870.74 43.33, 870.79 44.0, 870.84 44.67, 870.89 45.33, 870.93 46.0, 870.98 46.67, 871.02 47.33, 871.07 48.0, 871.11 48.67, 871.16 49.33, 871.2 50.0, 871.25 50.67, 871.29 51.33, 871.34 52.0, 871.38 52.67, 871.43 53.33, 871.48 54.0, 871.53 54.67, 871.57 55.33, 871.63 56.0, 871.68 56.67, 871.73 57.33, 871.78 58.0, 871.84 58.67, 871.89 59.33, 871.95 60.0, 872.01 60.67, 872.07 61.33, 872.13 62.0, 872.19 62.67, 872.26 63.33, 872.32 64.0, 872.39 64.67, 872.46 65.33, 872.53 66.0, 872.6 66.67, 872.68 67.33, 872.75 68.0, 872.83 68.67, 872.91 69.33, 872.99 70.0, 873.08 70.67, 873.16 71.33, 873.25 72.0, 873.34 72.67, 873.43 73.33, 873.52 74.0, 873.61 74.67, 873.71 75.33, 873.8 76.0, 873.9 76.67, 874.0 77.33, 874.11 78.0, 874.21 78.67, 874.32 79.33, 874.42 80.0, 874.53 80.67, 874.64 81.33, 874.75 82.0, 874.87 82.67, 874.98 83.33, 875.1 84.0, 875.22 84.67, 875.34 85.33, 875.46 86.0, 875.58 86.67, 875.7 87.33, 875.83 88.0, 875.95 88.67, 876.08 89.33, 876.21 90.0, 876.34 90.67, 876.47 91.33, 876.6 92.0, 876.74 92.67, 876.87 93.33, 877.0 94.0, 877.14 94.67, 877.28 95.33, 877.41 96.0, 877.55 96.67, 877.69 97.33, 877.83 98.0, 877.97 98.67, 878.11 99.33, 878.25 100.0, 878.39 100.67, 878.53 101.33, 878.67 102.0, 878.82 102.67, 878.96 103.33, 879.1 104.0, 879.24 104.67, 879.39 105.33, 879.53 106.0, 879.67 106.67, 879.82 107.33, 879.96 108.0, 880.1 108.67, 880.24 109.33, 880.39 110.0, 880.53 110.67, 880.67 111.33, 880.81 112.0, 880.95 112.67, 881.09 113.33, 881.23 114.0, 881.37 114.67, 881.51 115.33, 881.65 116.0, 881.78 116.67, 881.92 117.33, 882.05 118.0, 882.19 118.67, 882.32 119.33, 882.45 120.0, 882.58 120.67, 882.71 121.33, 882.84 122.0, 882.96 122.67, 883.09 123.33, 883.21 124.0, 883.34 124.67, 883.46 125.33, 883.58 126.0, 883.69 126.67, 883.81 127.33, 883.92 128.0, 884.04 128.67, 884.15 129.33, 884.26 130.0, 884.36 130.67, 884.47 131.33, 884.57 132.0, 884.67 132.67, 884.77 133.33, 884.87 134.0, 884.97 134.67, 885.06 135.33, 885.15 136.0, 885.24 136.67, 885.32 137.33, 885.4 138.0, 885.49 138.67, 885.56 139.33, 885.64 140.0, 885.71 140.67, 885.78 141.33, 885.85 142.0, 885.91 142.67, 885.98 143.33, 886.04 144.0, 886.09 144.67, 886.15 145.33, 886.2 146.0, 886.24 146.67, 886.29 147.33, 886.33 148.0, 886.37 148.67, 886.4 149.33, 886.44 150.0, 886.47 150.67, 886.49 151.33, 886.51 152.0, 886.53 152.67, 886.55 153.33, 886.56 154.0, 886.57 154.67, 886.58 155.33, 886.58 156.0, 886.58 156.67, 886.57 157.33, 886.56 158.0, 886.55 158.67, 886.54 159.33, 886.52 160.0, 886.49 160.67, 886.47 161.33, 886.44 162.0, 886.4 162.67, 886.37 163.33, 886.32 164.0, 886.28 164.67, 886.23 165.33, 886.18 166.0, 886.12 166.67, 886.06 167.33, 885.99 168.0, 885.92 168.67, 885.85 169.33, 885.77 170.0, 885.69 170.67, 885.6 171.33, 885.51 172.0, 885.42 172.67, 885.32 173.33, 885.22 174.0, 885.12 174.67, 885.0 175.33, 884.89 176.0, 884.77 176.67, 884.65 177.33, 884.52 178.0, 884.39 178.67, 884.25 179.33, 884.11 180.0, 883.97 180.67, 883.82 181.33, 883.67 182.0, 883.51 182.67, 883.35 183.33, 883.18 184.0, 883.01 184.67, 882.84 185.33, 882.66 186.0, 882.48 186.67, 882.29 187.33, 882.1 188.0, 881.9 188.67, 881.7 189.33, 881.49 190.0, 881.28 190.67, 881.07 191.33, 880.85 192.0, 880.63 192.67, 880.4 193.33, 880.17 194.0, 879.93 194.67, 879.69 195.33, 879.44 196.0, 879.19 196.67, 878.94 197.33, 878.68 198.0, 878.42 198.67, 878.15 199.33, 877.88 200.0, 877.6 200.67, 877.32 201.33, 877.04 202.0, 876.75 202.67, 876.45 203.33, 876.16 204.0, 875.85 204.67, 875.55 205.33, 875.23 206.0, 874.92 206.67, 874.6 207.33, 874.27 208.0, 873.94 208.67, 873.61 209.33, 873.27 210.0, 872.93 210.67, 872.59 211.33, 872.24 212.0, 871.88 212.67, 871.52 213.33, 871.16 214.0, 870.79 214.67, 870.42 215.33, 870.04 216.0, 869.66 216.67, 869.28 217.33, 868.89 218.0, 868.5 218.67, 868.1 219.33, 867.7 220.0, 867.3 220.67, 866.89 221.33, 866.47 222.0, 866.06 222.67, 865.64 223.33, 865.21 224.0, 864.78 224.67, 864.35 225.33, 863.91 226.0, 863.47 226.67, 863.03 227.33, 862.58 228.0, 862.13 228.67, 861.67 229.33, 861.21 230.0, 860.75 230.67, 860.28 231.33, 859.81 232.0, 859.33 232.67, 858.85 233.33, 858.37 234.0, 857.89 234.67, 857.4 235.33, 856.9 236.0, 856.41 236.67, 855.91 237.33, 855.4 238.0, 854.9 238.67, 854.39 239.33, 853.87 240.0, 853.36 240.67, 852.84 241.33, 852.31 242.0, 851.78 242.67, 851.25 243.33, 850.72 244.0, 850.18 244.67, 849.64 245.33, 849.1 246.0, 848.55 246.67, 848.0 247.33, 847.45 248.0, 846.9 248.67, 846.34 249.33, 845.78 250.0, 845.21 250.67, 844.65 251.33, 844.08 252.0, 843.5 252.67, 842.93 253.33, 842.35 254.0, 841.77 254.67, 841.19 255.33, 840.6 256.0, 840.01 256.67, 839.42 257.33, 838.83 258.0, 838.23 258.67, 837.63 259.33, 837.03 260.0, 836.43 260.67, 835.82 261.33, 835.21 262.0, 834.6 262.67, 833.99 263.33, 833.38 264.0, 832.76 264.67, 832.14 265.33, 831.52 266.0, 830.9 266.67, 830.27 267.33, 829.65 268.0, 829.02 268.67, 828.39 269.33, 827.76 270.0, 827.12 270.67, 826.49 271.33, 825.85 272.0, 825.21 272.67, 824.57 273.33, 823.93 274.0, 823.28 274.67, 822.64 275.33, 821.99 276.0, 821.34 276.67, 820.69 277.33, 820.04 278.0, 819.39 278.67, 818.74 279.33, 818.08 280.0, 817.43 280.67, 816.77 281.33, 816.12 282.0, 815.46 282.67, 814.8 283.33, 814.14 284.0, 813.48 284.67, 812.81 285.33, 812.15 286.0, 811.49 286.67, 810.82 287.33, 810.16 288.0, 809.49 288.67, 808.82 289.33, 808.16 290.0, 807.49 290.67, 806.82 291.33, 806.16 292.0, 805.49 292.67, 804.82 293.33, 804.15 294.0, 803.48 294.67, 802.81 295.33, 802.14 296.0, 801.47 296.67, 800.8 297.33, 800.13 298.0, 799.46 298.67, 798.79 299.33, 798.12 300.0, 797.46 300.67, 796.79 301.33, 796.12 302.0, 795.45 302.67, 794.78 303.33, 794.12 304.0, 793.45 304.67, 792.78 305.33, 792.12 306.0, 791.45 306.67, 790.79 307.33, 790.12 308.0, 789.46 308.67, 788.8 309.33, 788.14 310.0, 787.47 310.67, 786.81 311.33, 786.16 312.0, 785.5 312.67, 784.84 313.33, 784.19 314.0, 783.53 314.67, 782.88 315.33, 782.23 316.0, 781.58 316.67, 780.93 317.33, 780.28 318.0, 779.63 318.67, 778.99 319.33, 778.34 320.0, 777.7 320.67, 777.06 321.33, 776.42 322.0, 775.78 322.67, 775.15 323.33, 774.51 324.0, 773.88 324.67, 773.25 325.33, 772.62 326.0, 772.0 326.67, 771.37 327.33, 770.75 328.0, 770.13 328.67, 769.51 329.33, 768.89 330.0, 768.28 330.67, 767.67 331.33, 767.06 332.0, 766.45 332.67, 765.85 333.33, 765.25 334.0, 764.65 334.67, 764.05 335.33, 763.45 336.0, 762.86 336.67, 762.27 337.33, 761.68 338.0, 761.1 338.67, 760.52 339.33, 759.94 340.0, 759.36 340.67, 758.79 341.33, 758.22 342.0, 757.65 342.67, 757.09 343.33, 756.52 344.0, 755.97 344.67, 755.41 345.33, 754.86 346.0, 754.31 346.67, 753.76 347.33, 753.22 348.0, 752.68 348.67, 752.14 349.33, 751.61 350.0, 751.08 350.67, 750.56 351.33, 750.03 352.0, 749.51 352.67, 749.0 353.33, 748.49 354.0, 747.98 354.67, 747.47 355.33, 746.97 356.0, 746.47 356.67, 745.98 357.33, 745.49 358.0, 745.0 358.67, 744.52 359.33, 744.04 360.0, 743.57 360.67, 743.1 361.33, 742.63 362.0, 742.17 362.67, 741.71 363.33, 741.25 364.0, 740.8 364.67, 740.36 365.33, 739.91 366.0, 739.48 366.67, 739.04 367.33, 738.61 368.0, 738.19 368.67, 737.77 369.33, 737.35 370.0, 736.94 370.67, 736.53 371.33, 736.12 372.0, 735.73 372.67, 735.33 373.33, 734.94 374.0, 734.55 374.67, 734.17 375.33, 733.8 376.0, 733.42 376.67, 733.06 377.33, 732.69 378.0, 732.34 378.67, 731.98 379.33, 731.63 380.0, 731.29 380.67, 730.95 381.33, 730.62 382.0, 730.29 382.67, 729.96 383.33, 729.64 384.0, 729.33 384.67, 729.02 385.33, 728.71 386.0, 728.41 386.67, 728.12 387.33, 727.83 388.0, 727.54 388.67, 727.26 389.33, 726.99 390.0, 726.72 390.67, 726.45 391.33, 726.19 392.0, 725.94 392.67, 725.69 393.33, 725.44 394.0, 725.2 394.67, 724.97 395.33, 724.74 396.0, 724.52 396.67, 724.3 397.33, 724.09 398.0, 723.88 398.67, 723.68 399.33, 723.48 400.0, 723.29 400.67, 723.1 401.33, 722.92 402.0, 722.74 402.67, 722.57 403.33, 722.41 404.0, 722.25 404.67, 722.1 405.33, 721.95 406.0, 721.8 406.67, 721.66 407.33, 721.53 408.0, 721.41 408.67, 721.28 409.33, 721.17 410.0, 721.06 410.67, 720.95 411.33, 720.85 412.0, 720.76 412.67, 720.67 413.33, 720.59 414.0, 720.51 414.67, 720.44 415.33, 720.37 416.0, 720.31 416.67, 720.25 417.33, 720.2 418.0, 720.16 418.67, 720.12 419.33, 720.09 420.0, 720.06 420.67, 720.04 421.33, 720.02 422.0, 720.01 422.67, 720.0 423.33, 720.0 424.0, 720.01 424.67, 720.02 425.33, 720.03 426.0, 720.06 426.67, 720.08 427.33, 720.12 428.0, 720.16 428.67, 720.2 429.33, 720.25 430.0, 720.31 430.67, 720.37 431.33, 720.43 432.0, 720.51 432.67, 720.58 433.33, 720.67 434.0, 720.75 434.67, 720.85 435.33, 720.95 436.0, 721.05 436.67, 721.16 437.33, 721.28 438.0, 721.4 438.67, 721.53 439.33, 721.66 440.0, 721.8 440.67, 721.94 441.33, 722.09 442.0, 722.24 442.67, 722.4 443.33, 722.57 444.0, 722.74 444.67, 722.91 445.33, 723.09 446.0, 723.28 446.67, 723.47 447.33, 723.67 448.0, 723.87 448.67, 724.08 449.33, 724.29 450.0, 724.51 450.67, 724.73 451.33, 724.96 452.0, 725.2 452.67, 725.43 453.33, 725.68 454.0, 725.93 454.67, 726.18 455.33, 726.44 456.0, 726.71 456.67, 726.98 457.33, 727.25 458.0, 727.53 458.67, 727.82 459.33, 728.11 460.0, 728.4 460.67, 728.7 461.33, 729.01 462.0, 729.32 462.67, 729.63 463.33, 729.95 464.0, 730.27 464.67, 730.6 465.33, 730.94 466.0, 731.28 466.67, 731.62 467.33, 731.97 468.0, 732.32 468.67, 732.68 469.33, 733.04 470.0, 733.41 470.67, 733.78 471.33, 734.16 472.0, 734.54 472.67, 734.92 473.33, 735.31 474.0, 735.71 474.67, 736.11 475.33, 736.51 476.0, 736.92 476.67, 737.33 477.33, 737.75 478.0, 738.17 478.67, 738.59 479.33, 739.02 480.0, 739.46 480.67, 739.89 481.33, 740.34 482.0, 740.78 482.67, 741.23 483.33, 741.69 484.0, 742.14 484.67, 742.61 485.33, 743.07 486.0, 743.54 486.67, 744.02 487.33, 744.5 488.0, 744.98 488.67, 745.46 489.33, 745.95 490.0, 746.45 490.67, 746.94 491.33, 747.45 492.0, 747.95 492.67, 748.46 493.33, 748.97 494.0, 749.48 494.67, 750.0 495.33, 750.53 496.0, 751.05 496.67, 751.58 497.33, 752.11 498.0, 752.65 498.67, 753.19 499.33, 753.73 500.0, 754.28 500.67, 754.82 501.33, 755.38 502.0, 755.93 502.67, 756.49 503.33, 757.05 504.0, 757.61 504.67, 758.18 505.33, 758.75 506.0, 759.32 506.67, 759.9 507.33, 760.48 508.0, 761.06 508.67, 761.64 509.33, 762.23 510.0, 762.82 510.67, 763.41 511.33, 764.0 512.0, 764.6 512.67, 765.2 513.33, 765.8 514.0, 766.4 514.67, 767.01 515.33, 767.62 516.0, 768.23 516.67, 768.84 517.33, 769.46 518.0, 770.07 518.67, 770.69 519.33, 771.31 520.0, 771.94 520.67, 772.56 521.33, 773.19 522.0, 773.82 522.67, 774.45 523.33, 775.08 524.0, 775.72 524.67, 776.35 525.33, 776.99 526.0, 777.63 526.67, 778.27 527.33, 778.91 528.0, 779.56 528.67, 780.2 529.33, 780.85 530.0, 781.5 530.67, 782.15 531.33, 782.8 532.0, 783.45 532.67, 784.1 533.33, 784.75 534.0, 785.41 534.67, 786.07 535.33, 786.72 536.0, 787.38 536.67, 788.04 537.33, 788.7 538.0, 789.36 538.67, 790.02 539.33, 790.68 540.0, 791.34 540.67, 792.01 541.33, 792.67 542.0, 793.34 542.67, 794.0 543.33, 794.66 544.0, 795.33 544.67, 796.0 545.33, 796.66 546.0, 797.33 546.67, 797.99 547.33, 798.66 548.0, 799.33 548.67, 799.99 549.33, 800.66 550.0, 801.33 550.67, 801.99 551.33, 802.66 552.0, 803.33 552.67, 803.99 553.33, 804.66 554.0, 805.32 554.67, 805.99 555.33, 806.65 556.0, 807.32 556.67, 807.98 557.33, 808.64 558.0, 809.31 558.67, 809.97 559.33, 810.63 560.0, 811.29 560.67, 811.95 561.33, 812.61 562.0, 813.27 562.67, 813.92 563.33, 814.58 564.0, 815.23 564.67, 815.89 565.33, 816.54 566.0, 817.19 566.67, 817.84 567.33, 818.49 568.0, 819.14 568.67, 819.79 569.33, 820.43 570.0, 821.08 570.67, 821.72 571.33, 822.36 572.0, 823.0 572.67, 823.64 573.33, 824.27 574.0, 824.91 574.67, 825.54 575.33, 826.17 576.0, 826.8 576.67, 827.43 577.33, 828.05 578.0, 828.67 578.67, 829.3 579.33, 829.92 580.0, 830.53 580.67, 831.15 581.33, 831.76 582.0, 832.37 582.67, 832.98 583.33, 833.59 584.0, 834.19 584.67, 834.79 585.33, 835.39 586.0, 835.99 586.67, 836.58 587.33, 837.17 588.0, 837.76 588.67, 838.35 589.33, 838.93 590.0, 839.51 590.67, 840.09 591.33, 840.67 592.0, 841.24 592.67, 841.81 593.33, 842.38 594.0, 842.94 594.67, 843.5 595.33, 844.06 596.0, 844.61 596.67, 845.17 597.33, 845.72 598.0, 846.26 598.67, 846.8 599.33, 847.34 600.0, 847.88 600.67, 848.41 601.33, 848.94 602.0, 849.46 602.67, 849.99 603.33, 850.51 604.0, 851.02 604.67, 851.53 605.33, 852.04 606.0, 852.55 606.67, 853.05 607.33, 853.54 608.0, 854.04 608.67, 854.53 609.33, 855.01 610.0, 855.49 610.67, 855.97 611.33, 856.45 612.0, 856.92 612.67, 857.38 613.33, 857.85 614.0, 858.31 614.67, 858.76 615.33, 859.21 616.0, 859.66 616.67, 860.1 617.33, 860.54 618.0, 860.97 618.67, 861.4 619.33, 861.82 620.0, 862.25 620.67, 862.66 621.33, 863.07 622.0, 863.48 622.67, 863.89 623.33, 864.29 624.0, 864.68 624.67, 865.07 625.33, 865.46 626.0, 865.84 626.67, 866.21 627.33, 866.58 628.0, 866.95 628.67, 867.31 629.33, 867.67 630.0, 868.03 630.67, 868.37 631.33, 868.72 632.0, 869.06 632.67, 869.39 633.33, 869.72 634.0, 870.04 634.67, 870.36 635.33, 870.68 636.0, 870.99 636.67, 871.29 637.33, 871.59 638.0, 871.89 638.67, 872.18 639.33, 872.46 640.0, 872.74 640.67, 873.02 641.33, 873.29 642.0, 873.55 642.67, 873.81 643.33, 874.07 644.0, 874.32 644.67, 874.56 645.33, 874.8 646.0, 875.03 646.67, 875.26 647.33, 875.49 648.0, 875.7 648.67, 875.92 649.33, 876.12 650.0, 876.33 650.67, 876.52 651.33, 876.72 652.0, 876.9 652.67, 877.08 653.33, 877.26 654.0, 877.43 654.67, 877.59 655.33, 877.75 656.0, 877.91 656.67, 878.06 657.33, 878.2 658.0, 878.34 658.67, 878.47 659.33, 878.6 660.0, 878.72 660.67, 878.83 661.33, 878.95 662.0, 879.05 662.67, 879.15 663.33, 879.24 664.0, 879.33 664.67, 879.42 665.33, 879.49 666.0, 879.57 666.67, 879.63 667.33, 879.69 668.0, 879.75 668.67, 879.8 669.33, 879.84 670.0, 879.88 670.67, 879.92 671.33, 879.94 672.0, 879.97 672.67, 879.98 673.33, 879.99 674.0, 880.0 674.67, 880.0 675.33, 879.99 676.0, 879.98 676.67, 879.97 677.33, 879.94 678.0, 879.92 678.67, 879.88 679.33, 879.84 680.0, 879.8 680.67, 879.75 681.33, 879.69 682.0, 879.63 682.67, 879.57 683.33, 879.49 684.0, 879.42 684.67, 879.33 685.33, 879.25 686.0, 879.15 686.67, 879.05 687.33, 878.95 688.0, 878.84 688.67, 878.72 689.33, 878.6 690.0, 878.47 690.67, 878.34 691.33, 878.2 692.0, 878.06 692.67, 877.91 693.33, 877.76 694.0, 877.6 694.67, 877.43 695.33, 877.26 696.0, 877.08 696.67, 876.9 697.33, 876.72 698.0, 876.53 698.67, 876.33 699.33, 876.13 700.0, 875.92 700.67, 875.71 701.33, 875.49 702.0, 875.26 702.67, 875.04 703.33, 874.8 704.0, 874.56 704.67, 874.32 705.33, 874.07 706.0, 873.82 706.67, 873.56 707.33, 873.29 708.0, 873.02 708.67, 872.75 709.33, 872.47 710.0, 872.18 710.67, 871.89 711.33, 871.6 712.0, 871.3 712.67, 870.99 713.33, 870.68 714.0, 870.37 714.67, 870.05 715.33, 869.72 716.0, 869.39 716.67, 869.06 717.33, 868.72 718.0, 868.38 718.67, 868.03 719.33, 867.68 720.0, 867.32 720.67, 866.96 721.33, 866.59 722.0, 866.22 722.67, 865.84 723.33, 865.46 724.0, 865.07 724.67, 864.68 725.33, 864.29 726.0, 863.89 726.67, 863.49 727.33, 863.08 728.0, 862.67 728.67, 862.25 729.33, 861.83 730.0, 861.4 730.67, 860.97 731.33, 860.54 732.0, 860.1 732.67, 859.66 733.33, 859.21 734.0, 858.76 734.67, 858.31 735.33, 857.85 736.0, 857.39 736.67, 856.92 737.33, 856.45 738.0, 855.98 738.67, 855.5 739.33, 855.02 740.0, 854.53 740.67, 854.04 741.33, 853.55 742.0, 853.05 742.67, 852.55 743.33, 852.05 744.0, 851.54 744.67, 851.03 745.33, 850.51 746.0, 849.99 746.67, 849.47 747.33, 848.94 748.0, 848.41 748.67, 847.88 749.33, 847.35 750.0, 846.81 750.67, 846.27 751.33, 845.72 752.0, 845.17 752.67, 844.62 753.33, 844.06 754.0, 843.51 754.67, 842.95 755.33, 842.38 756.0, 841.81 756.67, 841.25 757.33, 840.67 758.0, 840.1 758.67, 839.52 759.33, 838.94 760.0, 838.35 760.67, 837.77 761.33, 837.18 762.0, 836.59 762.67, 835.99 763.33, 835.4 764.0, 834.8 764.67, 834.2 765.33, 833.59 766.0, 832.99 766.67, 832.38 767.33, 831.77 768.0, 831.15 768.67, 830.54 769.33, 829.92 770.0, 829.3 770.67, 828.68 771.33, 828.06 772.0, 827.43 772.67, 826.8 773.33, 826.18 774.0, 825.54 774.67, 824.91 775.33, 824.28 776.0, 823.64 776.67, 823.0 777.33, 822.36 778.0, 821.72 778.67, 821.08 779.33, 820.44 780.0, 819.79 780.67, 819.15 781.33, 818.5 782.0, 817.85 782.67, 817.2 783.33, 816.55 784.0, 815.89 784.67, 815.24 785.33, 814.58 786.0, 813.93 786.67, 813.27 787.33, 812.61 788.0, 811.96 788.67, 811.3 789.33, 810.64 790.0, 809.97 790.67, 809.31 791.33, 808.65 792.0, 807.99 792.67, 807.32 793.33, 806.66 794.0, 805.99 794.67, 805.33 795.33, 804.66 796.0, 804.0 796.67, 803.33 797.33, 802.67 798.0, 802.0 798.67, 801.33 799.33, 800.67 800.0, 800.0 800.67, 799.33 801.33, 798.67 802.0, 798.0 802.67, 797.33 803.33, 796.67 804.0, 796.0 804.67, 795.34 805.33, 794.67 806.0, 794.01 806.67, 793.34 807.33, 792.68 808.0, 792.01 808.67, 791.35 809.33, 790.69 810.0, 790.03 810.67, 789.36 811.33, 788.7 812.0, 788.04 812.67, 787.39 813.33, 786.73 814.0, 786.07 814.67, 785.42 815.33, 784.76 816.0, 784.11 816.67, 783.45 817.33, 782.8 818.0, 782.15 818.67, 781.5 819.33, 780.85 820.0, 780.21 820.67, 779.56 821.33, 778.92 822.0, 778.28 822.67, 777.64 823.33, 777.0 824.0, 776.36 824.67, 775.72 825.33, 775.09 826.0, 774.46 826.67, 773.82 827.33, 773.2 828.0, 772.57 828.67, 771.94 829.33, 771.32 830.0, 770.7 830.67, 770.08 831.33, 769.46 832.0, 768.85 832.67, 768.23 833.33, 767.62 834.0, 767.01 834.67, 766.41 835.33, 765.8 836.0, 765.2 836.67, 764.6 837.33, 764.01 838.0, 763.41 838.67, 762.82 839.33, 762.23 840.0, 761.65 840.67, 761.06 841.33, 760.48 842.0, 759.9 842.67, 759.33 843.33, 758.75 844.0, 758.19 844.67, 757.62 845.33, 757.05 846.0, 756.49 846.67, 755.94 847.33, 755.38 848.0, 754.83 848.67, 754.28 849.33, 753.73 850.0, 753.19 850.67, 752.65 851.33, 752.12 852.0, 751.59 852.67, 751.06 853.33, 750.53 854.0, 750.01 854.67, 749.49 855.33, 748.97 856.0, 748.46 856.67, 747.95 857.33, 747.45 858.0, 746.95 858.67, 746.45 859.33, 745.96 860.0, 745.47 860.67, 744.98 861.33, 744.5 862.0, 744.02 862.67, 743.55 863.33, 743.08 864.0, 742.61 864.67, 742.15 865.33, 741.69 866.0, 741.24 866.67, 740.79 867.33, 740.34 868.0, 739.9 868.67, 739.46 869.33, 739.03 870.0, 738.6 870.67, 738.17 871.33, 737.75 872.0, 737.33 872.67, 736.92 873.33, 736.51 874.0, 736.11 874.67, 735.71 875.33, 735.32 876.0, 734.93 876.67, 734.54 877.33, 734.16 878.0, 733.78 878.67, 733.41 879.33, 733.04 880.0, 732.68 880.67, 732.32 881.33, 731.97 882.0, 731.62 882.67, 731.28 883.33, 730.94 884.0, 730.61 884.67, 730.28 885.33, 729.95 886.0, 729.63 886.67, 729.32 887.33, 729.01 888.0, 728.7 888.67, 728.4 889.33, 728.11 890.0, 727.82 890.67, 727.53 891.33, 727.25 892.0, 726.98 892.67, 726.71 893.33, 726.44 894.0, 726.18 894.67, 725.93 895.33, 725.68 896.0, 725.44 896.67, 725.2 897.33, 724.96 898.0, 724.74 898.67, 724.51 899.33, 724.29 900.0, 724.08 900.67, 723.87 901.33, 723.67 902.0, 723.47 902.67, 723.28 903.33, 723.1 904.0, 722.92 904.67, 722.74 905.33, 722.57 906.0, 722.4 906.67, 722.24 907.33, 722.09 908.0, 721.94 908.67, 721.8 909.33, 721.66 910.0, 721.53 910.67, 721.4 911.33, 721.28 912.0, 721.16 912.67, 721.05 913.33, 720.95 914.0, 720.85 914.67, 720.75 915.33, 720.67 916.0, 720.58 916.67, 720.51 917.33, 720.43 918.0, 720.37 918.67, 720.31 919.33, 720.25 920.0, 720.2 920.67, 720.16 921.33, 720.12 922.0, 720.08 922.67, 720.06 923.33, 720.03 924.0, 720.02 924.67, 720.01 925.33, 720.0 926.0, 720.0 926.67, 720.01 927.33, 720.02 928.0, 720.03 928.67, 720.06 929.33, 720.08 930.0, 720.12 930.67, 720.16 931.33, 720.2 932.0, 720.25 932.67, 720.31 933.33, 720.37 934.0, 720.43 934.67, 720.51 935.33, 720.58 936.0, 720.67 936.67, 720.76 937.33, 720.85 938.0, 720.95 938.67, 721.05 939.33, 721.17 940.0, 721.28 940.67, 721.4 941.33, 721.53 942.0, 721.66 942.67, 721.8 943.33, 721.94 944.0, 722.09 944.67, 722.25 945.33, 722.41 946.0, 722.57 946.67, 722.74 947.33, 722.92 948.0, 723.1 948.67, 723.28 949.33, 723.48 950.0, 723.67 950.67, 723.88 951.33, 724.08 952.0, 724.3 952.67, 724.51 953.33, 724.74 954.0, 724.97 954.67, 725.2 955.33, 725.44 956.0, 725.68 956.67, 725.93 957.33, 726.19 958.0, 726.45 958.67, 726.71 959.33, 726.98 960.0, 727.26 960.67, 727.54 961.33, 727.82 962.0, 728.11 962.67, 728.41 963.33, 728.71 964.0, 729.01 964.67, 729.32 965.33, 729.64 966.0, 729.96 966.67, 730.28 967.33, 730.61 968.0, 730.94 968.67, 731.28 969.33, 731.63 970.0, 731.97 970.67, 732.33 971.33, 732.69 972.0, 733.05 972.67, 733.42 973.33, 733.79 974.0, 734.16 974.67, 734.54 975.33, 734.93 976.0, 735.32 976.67, 735.71 977.33, 736.11 978.0, 736.52 978.67, 736.93 979.33, 737.34 980.0, 737.75 980.67, 738.18 981.33, 738.6 982.0, 739.03 982.67, 739.46 983.33, 739.9 984.0, 740.34 984.67, 740.79 985.33, 741.24 986.0, 741.69 986.67, 742.15 987.33, 742.62 988.0, 743.08 988.67, 743.55 989.33, 744.03 990.0, 744.51 990.67, 744.99 991.33, 745.47 992.0, 745.96 992.67, 746.46 993.33, 746.95 994.0, 747.45 994.67, 747.96 995.33, 748.47 996.0, 748.98 996.67, 749.49 997.33, 750.01 998.0, 750.54 998.67, 751.06 999.33, 751.59 1000.0, 752.12 1000.67, 752.66 1001.33, 753.2 1002.0, 753.74 1002.67, 754.28 1003.33, 754.83 1004.0, 755.39 1004.67, 755.94 1005.33, 756.5 1006.0, 757.06 1006.67, 757.62 1007.33, 758.19 1008.0, 758.76 1008.67, 759.33 1009.33, 759.91 1010.0, 760.49 1010.67, 761.07 1011.33, 761.65 1012.0, 762.24 1012.67, 762.83 1013.33, 763.42 1014.0, 764.01 1014.67, 764.61 1015.33, 765.21 1016.0, 765.81 1016.67, 766.41 1017.33, 767.02 1018.0, 767.63 1018.67, 768.24 1019.33, 768.85 1020.0, 769.47 1020.67, 770.08 1021.33, 770.7 1022.0, 771.33 1022.67, 771.95 1023.33, 772.57 1024.0, 773.2 1024.67, 773.83 1025.33, 774.46 1026.0, 775.09 1026.67, 775.73 1027.33, 776.36 1028.0, 777.0 1028.67, 777.64 1029.33, 778.28 1030.0, 778.92 1030.67, 779.57 1031.33, 780.21 1032.0, 780.86 1032.67, 781.51 1033.33, 782.16 1034.0, 782.81 1034.67, 783.46 1035.33, 784.11 1036.0, 784.77 1036.67, 785.42 1037.33, 786.08 1038.0, 786.73 1038.67, 787.39 1039.33, 788.05 1040.0, 788.71 1040.67, 789.37 1041.33, 790.03 1042.0, 790.69 1042.67, 791.36 1043.33, 792.02 1044.0, 792.68 1044.67, 793.35 1045.33, 794.01 1046.0, 794.68 1046.67, 795.34 1047.33, 796.01 1048.0, 796.67 1048.67, 797.34 1049.33, 798.01 1050.0, 798.67 1050.67, 799.34 1051.33, 800.01 1052.0, 800.67 1052.67, 801.34 1053.33, 802.01 1054.0, 802.67 1054.67, 803.34 1055.33, 804.0 1056.0, 804.67 1056.67, 805.34 1057.33, 806.0 1058.0, 806.66 1058.67, 807.33 1059.33, 807.99 1060.0, 808.66 1060.67, 809.32 1061.33, 809.98 1062.0, 810.64 1062.67, 811.3 1063.33, 811.96 1064.0, 812.62 1064.67, 813.28 1065.33, 813.93 1066.0, 814.59 1066.67, 815.25 1067.33, 815.9 1068.0, 816.55 1068.67, 817.2 1069.33, 817.85 1070.0, 818.5 1070.67, 819.15 1071.33, 819.8 1072.0, 820.44 1072.67, 821.09 1073.33, 821.73 1074.0, 822.37 1074.67, 823.01 1075.33, 823.65 1076.0, 824.28 1076.67, 824.92 1077.33, 825.55 1078.0, 826.18 1078.67, 826.81 1079.33, 827.44 1080.0, 828.06 1080.67, 828.69 1081.33, 829.31 1082.0, 829.93 1082.67, 830.54 1083.33, 831.16 1084.0, 831.77 1084.67, 832.38 1085.33, 832.99 1086.0, 833.6 1086.67, 834.2 1087.33, 834.8 1088.0, 835.4 1088.67, 836.0 1089.33, 836.59 1090.0, 837.18 1090.67, 837.77 1091.33, 838.36 1092.0, 838.94 1092.67, 839.52 1093.33, 840.1 1094.0, 840.68 1094.67, 841.25 1095.33, 841.82 1096.0, 842.39 1096.67, 842.95 1097.33, 843.51 1098.0, 844.07 1098.67, 844.62 1099.33, 845.18 1100.0, 845.72 1100.67, 846.27 1101.33, 846.81 1102.0, 847.35 1102.67, 847.89 1103.33, 848.42 1104.0, 848.95 1104.67, 849.47 1105.33, 850.0 1106.0, 850.52 1106.67, 851.03 1107.33, 851.54 1108.0, 852.05 1108.67, 852.55 1109.33, 853.06 1110.0, 853.55 1110.67, 854.05 1111.33, 854.54 1112.0, 855.02 1112.67, 855.5 1113.33, 855.98 1114.0, 856.46 1114.67, 856.93 1115.33, 857.39 1116.0, 857.86 1116.67, 858.31 1117.33, 858.77 1118.0, 859.22 1118.67, 859.66 1119.33, 860.11 1120.0, 860.54 1120.67, 860.98 1121.33, 861.41 1122.0, 861.83 1122.67, 862.25 1123.33, 862.67 1124.0, 863.08 1124.67, 863.49 1125.33, 863.89 1126.0, 864.29 1126.67, 864.69 1127.33, 865.08 1128.0, 865.46 1128.67, 865.84 1129.33, 866.22 1130.0, 866.59 1130.67, 866.96 1131.33, 867.32 1132.0, 867.68 1132.67, 868.03 1133.33, 868.38 1134.0, 868.72 1134.67, 869.06 1135.33, 869.4 1136.0, 869.73 1136.67, 870.05 1137.33, 870.37 1138.0, 870.68 1138.67, 870.99 1139.33, 871.3 1140.0, 871.6 1140.67, 871.89 1141.33, 872.18 1142.0, 872.47 1142.67, 872.75 1143.33, 873.02 1144.0, 873.29 1144.67, 873.56 1145.33, 873.82 1146.0, 874.07 1146.67, 874.32 1147.33, 874.57 1148.0, 874.8 1148.67, 875.04 1149.33, 875.27 1150.0, 875.49 1150.67, 875.71 1151.33, 875.92 1152.0, 876.13 1152.67, 876.33 1153.33, 876.53 1154.0, 876.72 1154.67, 876.91 1155.33, 877.09 1156.0, 877.26 1156.67, 877.43 1157.33, 877.6 1158.0, 877.76 1158.67, 877.91 1159.33, 878.06 1160.0, 878.2 1160.67, 878.34 1161.33, 878.47 1162.0, 878.6 1162.67, 878.72 1163.33, 878.84 1164.0, 878.95 1164.67, 879.05 1165.33, 879.15 1166.0, 879.25 1166.67, 879.33 1167.33, 879.42 1168.0, 879.49 1168.67, 879.57 1169.33, 879.63 1170.0, 879.69 1170.67, 879.75 1171.33, 879.8 1172.0, 879.84 1172.67, 879.88 1173.33, 879.92 1174.0, 879.94 1174.67, 879.97 1175.33, 879.98 1176.0, 879.99 1176.67, 880.0 1177.33, 880.0 1178.0, 879.99 1178.67, 879.98 1179.33, 879.96 1180.0, 879.94 1180.67, 879.91 1181.33, 879.88 1182.0, 879.84 1182.67, 879.8 1183.33, 879.75 1184.0, 879.69 1184.67, 879.63 1185.33, 879.56 1186.0, 879.49 1186.67, 879.41 1187.33, 879.33 1188.0, 879.24 1188.67, 879.15 1189.33, 879.05 1190.0, 878.94 1190.67, 878.83 1191.33, 878.72 1192.0, 878.59 1192.67, 878.47 1193.33, 878.34 1194.0, 878.2 1194.67, 878.05 1195.33, 877.9 1196.0, 877.75 1196.67, 877.59 1197.33, 877.43 1198.0, 877.26 1198.67, 877.08 1199.33, 876.9 1200.0, 876.71 1200.67, 876.52 1201.33, 876.32 1202.0, 876.12 1202.67, 875.91 1203.33, 875.7 1204.0, 875.48 1204.67, 875.26 1205.33, 875.03 1206.0, 874.8 1206.67, 874.56 1207.33, 874.31 1208.0, 874.06 1208.67, 873.81 1209.33, 873.55 1210.0, 873.28 1210.67, 873.01 1211.33, 872.74 1212.0, 872.46 1212.67, 872.17 1213.33, 871.88 1214.0, 871.59 1214.67, 871.29 1215.33, 870.98 1216.0, 870.67 1216.67, 870.36 1217.33, 870.04 1218.0, 869.71 1218.67, 869.38 1219.33, 869.05 1220.0, 868.71 1220.67, 868.37 1221.33, 868.02 1222.0, 867.66 1222.67, 867.31 1223.33, 866.94 1224.0, 866.58 1224.67, 866.2 1225.33, 865.83 1226.0, 865.45 1226.67, 865.06 1227.33, 864.67 1228.0, 864.27 1228.67, 863.88 1229.33, 863.47 1230.0, 863.06 1230.67, 862.65 1231.33, 862.23 1232.0, 861.81 1232.67, 861.39 1233.33, 860.96 1234.0, 860.52 1234.67, 860.09 1235.33, 859.64 1236.0, 859.2 1236.67, 858.75 1237.33, 858.29 1238.0, 857.83 1238.67, 857.37 1239.33, 856.9 1240.0, 856.43 1240.67, 855.96 1241.33, 855.48 1242.0, 855.0 1242.67, 854.51 1243.33, 854.02 1244.0, 853.53 1244.67, 853.03 1245.33, 852.53 1246.0, 852.02 1246.67, 851.51 1247.33, 851.0 1248.0, 850.49 1248.67, 849.97 1249.33, 849.44 1250.0, 848.92 1250.67, 848.39 1251.33, 847.86 1252.0, 847.32 1252.67, 846.78 1253.33, 846.24 1254.0, 845.69 1254.67, 845.14 1255.33, 844.59 1256.0, 844.03 1256.67, 843.48 1257.33, 842.91 1258.0, 842.35 1258.67, 841.78 1259.33, 841.21 1260.0, 840.64 1260.67, 840.06 1261.33, 839.48 1262.0, 838.9 1262.67, 838.32 1263.33, 837.73 1264.0, 837.14 1264.67, 836.55 1265.33, 835.95 1266.0, 835.35 1266.67, 834.75 1267.33, 834.15 1268.0, 833.55 1268.67, 832.94 1269.33, 832.33 1270.0, 831.72 1270.67, 831.11 1271.33, 830.49 1272.0, 829.87 1272.67, 829.25 1273.33, 828.63 1274.0, 828.0 1274.67, 827.38 1275.33, 826.75 1276.0, 826.12 1276.67, 825.49 1277.33, 824.85 1278.0, 824.22 1278.67, 823.58 1279.33, 822.94 1280.0, 822.3 1280.67, 821.66 1281.33, 821.01 1282.0, 820.37 1282.67, 819.72 1283.33, 819.07 1284.0, 818.42 1284.67, 817.77 1285.33, 817.12 1286.0, 816.47 1286.67, 815.81 1287.33, 815.16 1288.0, 814.5 1288.67, 813.84 1289.33, 813.19 1290.0, 812.53 1290.67, 811.86 1291.33, 811.2 1292.0, 810.54 1292.67, 809.88 1293.33, 809.21 1294.0, 808.55 1294.67, 807.88 1295.33, 807.22 1296.0, 806.55 1296.67, 805.88 1297.33, 805.22 1298.0, 804.55 1298.67, 803.88 1299.33, 803.21 1300.0, 802.54 1300.67, 801.88 1301.33, 801.21 1302.0, 800.54 1302.67, 799.87 1303.33, 799.2 1304.0, 798.53 1304.67, 797.86 1305.33, 797.19 1306.0, 796.52 1306.67, 795.85 1307.33, 795.18 1308.0, 794.51 1308.67, 793.84 1309.33, 793.18 1310.0, 792.51 1310.67, 791.84 1311.33, 791.18 1312.0, 790.51 1312.67, 789.84 1313.33, 789.18 1314.0, 788.51 1314.67, 787.85 1315.33, 787.19 1316.0, 786.52 1316.67, 785.86 1317.33, 785.2 1318.0, 784.54 1318.67, 783.88 1319.33, 783.23 1320.0, 782.57 1320.67, 781.92 1321.33, 781.26 1322.0, 780.61 1322.67, 779.96 1323.33, 779.31 1324.0, 778.66 1324.67, 778.01 1325.33, 777.36 1326.0, 776.72 1326.67, 776.07 1327.33, 775.43 1328.0, 774.79 1328.67, 774.15 1329.33, 773.51 1330.0, 772.88 1330.67, 772.24 1331.33, 771.61 1332.0, 770.98 1332.67, 770.35 1333.33, 769.73 1334.0, 769.1 1334.67, 768.48 1335.33, 767.86 1336.0, 767.24 1336.67, 766.62 1337.33, 766.01 1338.0, 765.4 1338.67, 764.79 1339.33, 764.18 1340.0, 763.57 1340.67, 762.97 1341.33, 762.37 1342.0, 761.77 1342.67, 761.17 1343.33, 760.58 1344.0, 759.99 1344.67, 759.4 1345.33, 758.81 1346.0, 758.23 1346.67, 757.65 1347.33, 757.07 1348.0, 756.5 1348.67, 755.92 1349.33, 755.35 1350.0, 754.79 1350.67, 754.22 1351.33, 753.66 1352.0, 753.1 1352.67, 752.55 1353.33, 752.0 1354.0, 751.45 1354.67, 750.9 1355.33, 750.36 1356.0, 749.82 1356.67, 749.28 1357.33, 748.75 1358.0, 748.22 1358.67, 747.69 1359.33, 747.16 1360.0, 746.64 1360.67, 746.13 1361.33, 745.61 1362.0, 745.1 1362.67, 744.6 1363.33, 744.09 1364.0, 743.59 1364.67, 743.1 1365.33, 742.6 1366.0, 742.11 1366.67, 741.63 1367.33, 741.15 1368.0, 740.67 1368.67, 740.19 1369.33, 739.72 1370.0, 739.25 1370.67, 738.79 1371.33, 738.33 1372.0, 737.87 1372.67, 737.42 1373.33, 736.97 1374.0, 736.53 1374.67, 736.09 1375.33, 735.65 1376.0, 735.22 1376.67, 734.79 1377.33, 734.36 1378.0, 733.94 1378.67, 733.53 1379.33, 733.11 1380.0, 732.7 1380.67, 732.3 1381.33, 731.9 1382.0, 731.5 1382.67, 731.11 1383.33, 730.72 1384.0, 730.34 1384.67, 729.96 1385.33, 729.58 1386.0, 729.21 1386.67, 728.84 1387.33, 728.48 1388.0, 728.12 1388.67, 727.76 1389.33, 727.41 1390.0, 727.07 1390.67, 726.73 1391.33, 726.39 1392.0, 726.06 1392.67, 725.73 1393.33, 725.4 1394.0, 725.08 1394.67, 724.77 1395.33, 724.45 1396.0, 724.15 1396.67, 723.84 1397.33, 723.55 1398.0, 723.25 1398.67, 722.96 1399.33, 722.68 1400.0, 722.4 1400.67, 722.12 1401.33, 721.85 1402.0, 721.58 1402.67, 721.32 1403.33, 721.06 1404.0, 720.81 1404.67, 720.56 1405.33, 720.31 1406.0, 720.07 1406.67, 719.83 1407.33, 719.6 1408.0, 719.37 1408.67, 719.15 1409.33, 718.93 1410.0, 718.72 1410.67, 718.51 1411.33, 718.3 1412.0, 718.1 1412.67, 717.9 1413.33, 717.71 1414.0, 717.52 1414.67, 717.34 1415.33, 717.16 1416.0, 716.99 1416.67, 716.82 1417.33, 716.65 1418.0, 716.49 1418.67, 716.33 1419.33, 716.18 1420.0, 716.03 1420.67, 715.89 1421.33, 715.75 1422.0, 715.61 1422.67, 715.48 1423.33, 715.35 1424.0, 715.23 1424.67, 715.11 1425.33, 715.0 1426.0, 714.88 1426.67, 714.78 1427.33, 714.68 1428.0, 714.58 1428.67, 714.49 1429.33, 714.4 1430.0, 714.31 1430.67, 714.23 1431.33, 714.15 1432.0, 714.08 1432.67, 714.01 1433.33, 713.94 1434.0, 713.88 1434.67, 713.82 1435.33, 713.77 1436.0, 713.72 1436.67, 713.68 1437.33, 713.63 1438.0, 713.6 1438.67, 713.56 1439.33, 713.53 1440.0, 713.51 1440.67, 713.48 1441.33, 713.46 1442.0, 713.45 1442.67, 713.44 1443.33, 713.43 1444.0, 713.42 1444.67, 713.42 1445.33, 713.42 1446.0, 713.43 1446.67, 713.44 1447.33, 713.45 1448.0, 713.47 1448.67, 713.49 1449.33, 713.51 1450.0, 713.53 1450.67, 713.56 1451.33, 713.6 1452.0, 713.63 1452.67, 713.67 1453.33, 713.71 1454.0, 713.76 1454.67, 713.8 1455.33, 713.85 1456.0, 713.91 1456.67, 713.96 1457.33, 714.02 1458.0, 714.09 1458.67, 714.15 1459.33, 714.22 1460.0, 714.29 1460.67, 714.36 1461.33, 714.44 1462.0, 714.51 1462.67, 714.6 1463.33, 714.68 1464.0, 714.76 1464.67, 714.85 1465.33, 714.94 1466.0, 715.03 1466.67, 715.13 1467.33, 715.23 1468.0, 715.33 1468.67, 715.43 1469.33, 715.53 1470.0, 715.64 1470.67, 715.74 1471.33, 715.85 1472.0, 715.96 1472.67, 716.08 1473.33, 716.19 1474.0, 716.31 1474.67, 716.42 1475.33, 716.54 1476.0, 716.66 1476.67, 716.79 1477.33, 716.91 1478.0, 717.04 1478.67, 717.16 1479.33, 717.29 1480.0, 717.42 1480.67, 717.55 1481.33, 717.68 1482.0, 717.81 1482.67, 717.95 1483.33, 718.08 1484.0, 718.22 1484.67, 718.35 1485.33, 718.49 1486.0, 718.63 1486.67, 718.77 1487.33, 718.91 1488.0, 719.05 1488.67, 719.19 1489.33, 719.33 1490.0, 719.47 1490.67, 719.61 1491.33, 719.76 1492.0, 719.9 1492.67, 720.04 1493.33, 720.18 1494.0, 720.33 1494.67, 720.47 1495.33, 720.61 1496.0, 720.76 1496.67, 720.9 1497.33, 721.04 1498.0, 721.18 1498.67, 721.33 1499.33, 721.47 1500.0, 721.61 1500.67, 721.75 1501.33, 721.89 1502.0, 722.03 1502.67, 722.17 1503.33, 722.31 1504.0, 722.45 1504.67, 722.59 1505.33, 722.72 1506.0, 722.86 1506.67, 723.0 1507.33, 723.13 1508.0, 723.26 1508.67, 723.4 1509.33, 723.53 1510.0, 723.66 1510.67, 723.79 1511.33, 723.92 1512.0, 724.05 1512.67, 724.17 1513.33, 724.3 1514.0, 724.42 1514.67, 724.54 1515.33, 724.66 1516.0, 724.78 1516.67, 724.9 1517.33, 725.02 1518.0, 725.13 1518.67, 725.25 1519.33, 725.36 1520.0, 725.47 1520.67, 725.58 1521.33, 725.68 1522.0, 725.79 1522.67, 725.89 1523.33, 726.0 1524.0, 726.1 1524.67, 726.2 1525.33, 726.29 1526.0, 726.39 1526.67, 726.48 1527.33, 726.57 1528.0, 726.66 1528.67, 726.75 1529.33, 726.84 1530.0, 726.92 1530.67, 727.01 1531.33, 727.09 1532.0, 727.17 1532.67, 727.25 1533.33, 727.32 1534.0, 727.4 1534.67, 727.47 1535.33, 727.54 1536.0, 727.61 1536.67, 727.68 1537.33, 727.74 1538.0, 727.81 1538.67, 727.87 1539.33, 727.93 1540.0, 727.99 1540.67, 728.05 1541.33, 728.11 1542.0, 728.16 1542.67, 728.22 1543.33, 728.27 1544.0, 728.32 1544.67, 728.37 1545.33, 728.43 1546.0, 728.47 1546.67, 728.52 1547.33, 728.57 1548.0, 728.62 1548.67, 728.66 1549.33, 728.71 1550.0, 728.75 1550.67, 728.8 1551.33, 728.84 1552.0, 728.89 1552.67, 728.93 1553.33, 728.98 1554.0, 729.02 1554.67, 729.07 1555.33, 729.11 1556.0, 729.16 1556.67, 729.21 1557.33, 729.26 1558.0, 729.3 1558.67, 729.36 1559.33, 729.41 1560.0, 729.46 1560.67, 729.52 1561.33, 729.58 1562.0, 729.63 1562.67, 729.7 1563.33, 729.76 1564.0, 729.83 1564.67, 729.9 1565.33, 729.98 1566.0, 730.05 1566.67, 730.14 1567.33, 730.22 1568.0, 730.31 1568.67, 730.41 1569.33, 730.51 1570.0, 730.61 1570.67, 730.72 1571.33, 730.84 1572.0, 730.96 1572.67, 731.09 1573.33, 731.22 1574.0, 731.37 1574.67, 731.52 1575.33, 731.67 1576.0, 731.84 1576.67, 732.01 1577.33, 732.2 1578.0, 732.39 1578.67, 732.59 1579.33, 732.81 1580.0, 733.03 1580.67, 733.27 1581.33, 733.51 1582.0, 733.77 1582.67, 734.04 1583.33, 734.33 1584.0, 734.62 1584.67, 734.94 1585.33, 735.26 1586.0, 735.61 1586.67, 735.96 1587.33, 736.34 1588.0, 736.73 1588.67, 737.14 1589.33, 737.56 1590.0, 738.01 1590.67, 738.47 1591.33, 738.96 1592.0, 739.47 1592.67, 739.99 1593.33, 740.54 1594.0, 741.12 1594.67, 741.71 1595.33, 742.33 1596.0, 742.98 1596.67, 743.65 1597.33, 744.35 1598.0, 745.08 1598.67, 745.84 1599.33, 746.62 1600.0, 747.44 " fill="none" stroke="white" stroke-width="1.5" stroke-linejoin="round" stroke-opacity="1"/>

 </svg>