<svg version="1.1" 
 baseProfile="full" 
 width="1600" 
 height="1600" 
 xmlns="http://www.w3.org/2000/svg">
<rect x="0.0" y="0.0" width="1600" height="1600" fill="black" stroke="black" stroke-width="0" opacity="1"/>
<line x1="0.0" y1="0.0" x2="0.0" y2="1600.0" stroke="white" stroke-width="1" opacity="0.4" stroke-linecap="butt"/>
<line x1="160.0" y1="0.0" x2="160.0" y2="1600.0" stroke="white" stroke-width="1" opacity="0.4" stroke-linecap="butt"/>
<line x1="320.0" y1="0.0" x2="320.0" y2="1600.0" stroke="white" stroke-width="1" opacity="0.4" stroke-linecap="butt"/>
<line x1="480.0" y1="0.0" x2="480.0" y2="1600.0" stroke="white" stroke-width="1" opacity="0.4" stroke-linecap="butt"/>
<line x1="640.0" y1="0.0" x2="640.0" y2="1600.0" stroke="white" stroke-width="1" opacity="0.4" stroke-linecap="butt"/>
<line x1="800.0" y1="0.0" x2="800.0" y2="1600.0" stroke="white" stroke-width="1" opacity="0.4" stroke-linecap="butt"/>
<line x1="960.0" y1="0.0" x2="960.0" y2="1600.0" stroke="white" stroke-width="1" opacity="0.4" stroke-linecap="butt"/>
<line x1="1120.0" y1="0.0" x2="1120.0" y2="1600.0" stroke="white" stroke-width="1" opacity="0.4" stroke-linecap="butt"/>
<line x1="1280.0" y1="0.0" x2="1280.0" y2="1600.0" stroke="white" stroke-width="1" opacity="0.4" stroke-linecap="butt"/>
<line x1="1440.0" y1="0.0" x2="1440.0" y2="1600.0" stroke="white" stroke-width="1" opacity="0.4" stroke-linecap="butt"/>
<line x1="0.0" y1="0.0" x2="1600.0" y2="0.0" stroke="white" stroke-width="1" opacity="0.4" stroke-linecap="butt"/>
<line x1="0.0" y1="160.0" x2="1600.0" y2="160.0" stroke="white" stroke-width="1" opacity="0.4" stroke-linecap="butt"/>
<line x1="0.0" y1="320.0" x2="1600.0" y2="320.0" stroke="white" stroke-width="1" opacity="0.4" stroke-linecap="butt"/>
<line x1="0.0" y1="480.0" x2="1600.0" y2="480.0" stroke="white" stroke-width="1" opacity="0.4" stroke-linecap="butt"/>
<line x1="0.0" y1="640.0" x2="1600.0" y2="640.0" stroke="white" stroke-width="1" opacity="0.4" stroke-linecap="butt"/>
<line x1="0.0" y1="800.0" x2="1600.0" y2="800.0" stroke="white" stroke-width="1" opacity="0.4" stroke-linecap="butt"/>
<line x1="0.0" y1="960.0" x2="1600.0" y2="960.0" stroke="white" stroke-width="1" opacity="0.4" stroke-linecap="butt"/>
<line x1="0.0" y1="1120.0" x2="1600.0" y2="1120.0" stroke="white" stroke-width="1" opacity="0.4" stroke-linecap="butt"/>
<line x1="0.0" y1="1280.0" x2="1600.0" y2="1280.0" stroke="white" stroke-width="1" opacity="0.4" stroke-linecap="butt"/>
<line x1="0.0" y1="1440.0" x2="1600.0" y2="1440.0" stroke="white" stroke-width="1" opacity="0.4" stroke-linecap="butt"/>
<line x1="0.0" y1="800.0" x2="1600.0" y2="800.0" stroke="yellow" stroke-width="2.5" opacity="1" stroke-linecap="butt"/>
<line x1="800.0" y1="0.0" x2="800.0" y2="1600.0" stroke="yellow" stroke-width="2.5" opacity="1" stroke-linecap="butt"/>
<polygon points="1564.0 816.0, 1604.0 800.0, 1564.0 784.0, 1572.0 800.0" fill="yellow"/><polygon points="816.0 36.0, 800.0 -4.0, 784.0 36.0, 800.0 28.0" fill="yellow"/><polyline points="0.0, -51.71 0.67, -36.68 1.33, -21.9 2.0, -7.35 2.67, 6.96 3.33, 21.04 4.0, 34.9 4.67, 48.53 5.33, 61.94 6.0, 75.13 6.67, 88.11 7.33, 100.89 8.0, 113.45 8.67, 125.82 9.33, 137.98 10.0, 149.95 10.67, 161.73 11.33, 173.32 12.0, 184.71 12.67, 195.93 13.33, 206.97 14.0, 217.82 14.67, 228.51 15.33, 239.02 16.0, 249.36 16.67, 259.53 17.33, 269.54 18.0, 279.39 18.67, 289.08 19.33, 298.62 20.0, 308.0 20.67, 317.23 21.33, 326.32 22.0, 335.25 22.67, 344.05 23.33, 352.7 24.0, 361.22 24.67, 369.59 25.33, 377.84 26.0, 385.95 26.67, 393.93 27.33, 401.78 28.0, 409.51 28.67, 417.11 29.33, 424.59 30.0, 431.96 30.67, 439.2 31.33, 446.33 32.0, 453.35 32.67, 460.25 33.33, 467.04 34.0, 473.73 34.67, 480.31 35.33, 486.78 36.0, 493.15 36.67, 499.42 37.33, 505.59 38.0, 511.66 38.67, 517.64 39.33, 523.52 40.0, 529.31 40.67, 535.01 41.33, 540.61 42.0, 546.13 42.67, 551.56 43.33, 556.9 44.0, 562.16 44.67, 567.34 45.33, 572.44 46.0, 577.45 46.67, 582.39 47.33, 587.25 48.0, 592.03 48.67, 596.74 49.33, 601.38 50.0, 605.94 50.67, 610.43 51.33, 614.85 52.0, 619.2 52.67, 623.48 53.33, 627.7 54.0, 631.85 54.67, 635.94 55.33, 639.96 56.0, 643.92 56.67, 647.82 57.33, 651.65 58.0, 655.43 58.67, 659.15 59.33, 662.82 60.0, 666.42 60.67, 669.97 61.33, 673.47 62.0, 676.91 62.67, 680.3 63.33, 683.64 64.0, 686.92 64.67, 690.16 65.33, 693.34 66.0, 696.48 66.67, 699.57 67.33, 702.61 68.0, 705.61 68.67, 708.56 69.33, 711.46 70.0, 714.32 70.67, 717.14 71.33, 719.91 72.0, 722.65 72.67, 725.34 73.33, 727.99 74.0, 730.6 74.67, 733.17 75.33, 735.7 76.0, 738.19 76.67, 740.65 77.33, 743.06 78.0, 745.45 78.67, 747.79 79.33, 750.1 80.0, 752.38 80.67, 754.62 81.33, 756.83 82.0, 759.0 82.67, 761.15 83.33, 763.26 84.0, 765.33 84.67, 767.38 85.33, 769.4 86.0, 771.38 86.67, 773.34 87.33, 775.27 88.0, 777.17 88.67, 779.04 89.33, 780.88 90.0, 782.69 90.67, 784.48 91.33, 786.24 92.0, 787.97 92.67, 789.68 93.33, 791.37 94.0, 793.02 94.67, 794.66 95.33, 796.26 96.0, 797.85 96.67, 799.41 97.33, 800.95 98.0, 802.46 98.67, 803.95 99.33, 805.42 100.0, 806.87 100.67, 808.29 101.33, 809.7 102.0, 811.08 102.67, 812.44 103.33, 813.78 104.0, 815.1 104.67, 816.4 105.33, 817.68 106.0, 818.94 106.67, 820.18 107.33, 821.41 108.0, 822.61 108.67, 823.8 109.33, 824.96 110.0, 826.11 110.67, 827.25 111.33, 828.36 112.0, 829.46 112.67, 830.54 113.33, 831.6 114.0, 832.65 114.67, 833.68 115.33, 834.69 116.0, 835.69 116.67, 836.67 117.33, 837.63 118.0, 838.58 118.67, 839.52 119.33, 840.44 120.0, 841.35 120.67, 842.24 121.33, 843.11 122.0, 843.97 122.67, 844.82 123.33, 845.65 124.0, 846.47 124.67, 847.28 125.33, 848.07 126.0, 848.85 126.67, 849.62 127.33, 850.37 128.0, 851.11 128.67, 851.83 129.33, 852.55 130.0, 853.25 130.67, 853.94 131.33, 854.61 132.0, 855.27 132.67, 855.93 133.33, 856.57 134.0, 857.19 134.67, 857.81 135.33, 858.41 136.0, 859.01 136.67, 859.59 137.33, 860.16 138.0, 860.72 138.67, 861.26 139.33, 861.8 140.0, 862.33 140.67, 862.84 141.33, 863.35 142.0, 863.84 142.67, 864.32 143.33, 864.8 144.0, 865.26 144.67, 865.71 145.33, 866.15 146.0, 866.59 146.67, 867.01 147.33, 867.42 148.0, 867.82 148.67, 868.21 149.33, 868.6 150.0, 868.97 150.67, 869.33 151.33, 869.69 152.0, 870.03 152.67, 870.37 153.33, 870.69 154.0, 871.01 154.67, 871.32 155.33, 871.62 156.0, 871.91 156.67, 872.19 157.33, 872.46 158.0, 872.72 158.67, 872.98 159.33, 873.23 160.0, 873.46 160.67, 873.69 161.33, 873.91 162.0, 874.12 162.67, 874.33 163.33, 874.52 164.0, 874.71 164.67, 874.89 165.33, 875.06 166.0, 875.22 166.67, 875.38 167.33, 875.52 168.0, 875.66 168.67, 875.79 169.33, 875.91 170.0, 876.03 170.67, 876.13 171.33, 876.23 172.0, 876.33 172.67, 876.41 173.33, 876.49 174.0, 876.55 174.67, 876.62 175.33, 876.67 176.0, 876.72 176.67, 876.76 177.33, 876.79 178.0, 876.81 178.67, 876.83 179.33, 876.84 180.0, 876.84 180.67, 876.84 181.33, 876.83 182.0, 876.81 182.67, 876.78 183.33, 876.75 184.0, 876.71 184.67, 876.66 185.33, 876.61 186.0, 876.55 186.67, 876.48 187.33, 876.41 188.0, 876.33 188.67, 876.24 189.33, 876.15 190.0, 876.05 190.67, 875.94 191.33, 875.83 192.0, 875.71 192.67, 875.58 193.33, 875.45 194.0, 875.31 194.67, 875.17 195.33, 875.01 196.0, 874.86 196.67, 874.69 197.33, 874.52 198.0, 874.35 198.67, 874.16 199.33, 873.97 200.0, 873.78 200.67, 873.58 201.33, 873.37 202.0, 873.16 202.67, 872.94 203.33, 872.72 204.0, 872.49 204.67, 872.25 205.33, 872.01 206.0, 871.76 206.67, 871.51 207.33, 871.25 208.0, 870.98 208.67, 870.71 209.33, 870.44 210.0, 870.15 210.67, 869.87 211.33, 869.57 212.0, 869.28 212.67, 868.97 213.33, 868.66 214.0, 868.35 214.67, 868.03 215.33, 867.71 216.0, 867.38 216.67, 867.04 217.33, 866.7 218.0, 866.35 218.67, 866.0 219.33, 865.65 220.0, 865.29 220.67, 864.92 221.33, 864.55 222.0, 864.18 222.67, 863.8 223.33, 863.41 224.0, 863.02 224.67, 862.63 225.33, 862.23 226.0, 861.82 226.67, 861.42 227.33, 861.0 228.0, 860.58 228.67, 860.16 229.33, 859.74 230.0, 859.3 230.67, 858.87 231.33, 858.43 232.0, 857.98 232.67, 857.53 233.33, 857.08 234.0, 856.62 234.67, 856.16 235.33, 855.7 236.0, 855.23 236.67, 854.75 237.33, 854.28 238.0, 853.79 238.67, 853.31 239.33, 852.82 240.0, 852.32 240.67, 851.83 241.33, 851.33 242.0, 850.82 242.67, 850.31 243.33, 849.8 244.0, 849.28 244.67, 848.76 245.33, 848.24 246.0, 847.71 246.67, 847.18 247.33, 846.65 248.0, 846.11 248.67, 845.57 249.33, 845.03 250.0, 844.48 250.67, 843.93 251.33, 843.38 252.0, 842.82 252.67, 842.26 253.33, 841.7 254.0, 841.13 254.67, 840.56 255.33, 839.99 256.0, 839.42 256.67, 838.84 257.33, 838.26 258.0, 837.68 258.67, 837.09 259.33, 836.5 260.0, 835.91 260.67, 835.32 261.33, 834.72 262.0, 834.12 262.67, 833.52 263.33, 832.92 264.0, 832.31 264.67, 831.7 265.33, 831.09 266.0, 830.48 266.67, 829.87 267.33, 829.25 268.0, 828.63 268.67, 828.01 269.33, 827.39 270.0, 826.76 270.67, 826.13 271.33, 825.5 272.0, 824.87 272.67, 824.24 273.33, 823.61 274.0, 822.97 274.67, 822.33 275.33, 821.69 276.0, 821.05 276.67, 820.41 277.33, 819.77 278.0, 819.12 278.67, 818.47 279.33, 817.83 280.0, 817.18 280.67, 816.53 281.33, 815.87 282.0, 815.22 282.67, 814.57 283.33, 813.91 284.0, 813.26 284.67, 812.6 285.33, 811.94 286.0, 811.28 286.67, 810.62 287.33, 809.96 288.0, 809.3 288.67, 808.64 289.33, 807.98 290.0, 807.32 290.67, 806.65 291.33, 805.99 292.0, 805.32 292.67, 804.66 293.33, 804.0 294.0, 803.33 294.67, 802.66 295.33, 802.0 296.0, 801.33 296.67, 800.67 297.33, 800.0 298.0, 799.33 298.67, 798.67 299.33, 798.0 300.0, 797.34 300.67, 796.67 301.33, 796.0 302.0, 795.34 302.67, 794.67 303.33, 794.01 304.0, 793.35 304.67, 792.68 305.33, 792.02 306.0, 791.36 306.67, 790.69 307.33, 790.03 308.0, 789.37 308.67, 788.71 309.33, 788.05 310.0, 787.39 310.67, 786.74 311.33, 786.08 312.0, 785.42 312.67, 784.77 313.33, 784.11 314.0, 783.46 314.67, 782.81 315.33, 782.16 316.0, 781.51 316.67, 780.86 317.33, 780.22 318.0, 779.57 318.67, 778.93 319.33, 778.29 320.0, 777.64 320.67, 777.01 321.33, 776.37 322.0, 775.73 322.67, 775.1 323.33, 774.47 324.0, 773.83 324.67, 773.21 325.33, 772.58 326.0, 771.95 326.67, 771.33 327.33, 770.71 328.0, 770.09 328.67, 769.47 329.33, 768.86 330.0, 768.24 330.67, 767.63 331.33, 767.02 332.0, 766.42 332.67, 765.81 333.33, 765.21 334.0, 764.61 334.67, 764.02 335.33, 763.42 336.0, 762.83 336.67, 762.24 337.33, 761.66 338.0, 761.07 338.67, 760.49 339.33, 759.91 340.0, 759.34 340.67, 758.77 341.33, 758.2 342.0, 757.63 342.67, 757.06 343.33, 756.5 344.0, 755.95 344.67, 755.39 345.33, 754.84 346.0, 754.29 346.67, 753.74 347.33, 753.2 348.0, 752.66 348.67, 752.13 349.33, 751.59 350.0, 751.07 350.67, 750.54 351.33, 750.02 352.0, 749.5 352.67, 748.98 353.33, 748.47 354.0, 747.96 354.67, 747.46 355.33, 746.96 356.0, 746.46 356.67, 745.97 357.33, 745.48 358.0, 744.99 358.67, 744.51 359.33, 744.03 360.0, 743.56 360.67, 743.09 361.33, 742.62 362.0, 742.16 362.67, 741.7 363.33, 741.24 364.0, 740.79 364.67, 740.35 365.33, 739.91 366.0, 739.47 366.67, 739.03 367.33, 738.6 368.0, 738.18 368.67, 737.76 369.33, 737.34 370.0, 736.93 370.67, 736.52 371.33, 736.12 372.0, 735.72 372.67, 735.32 373.33, 734.93 374.0, 734.55 374.67, 734.17 375.33, 733.79 376.0, 733.42 376.67, 733.05 377.33, 732.69 378.0, 732.33 378.67, 731.98 379.33, 731.63 380.0, 731.29 380.67, 730.95 381.33, 730.61 382.0, 730.28 382.67, 729.96 383.33, 729.64 384.0, 729.32 384.67, 729.01 385.33, 728.71 386.0, 728.41 386.67, 728.11 387.33, 727.82 388.0, 727.54 388.67, 727.26 389.33, 726.98 390.0, 726.71 390.67, 726.45 391.33, 726.19 392.0, 725.94 392.67, 725.69 393.33, 725.44 394.0, 725.2 394.67, 724.97 395.33, 724.74 396.0, 724.52 396.67, 724.3 397.33, 724.09 398.0, 723.88 398.67, 723.68 399.33, 723.48 400.0, 723.29 400.67, 723.1 401.33, 722.92 402.0, 722.74 402.67, 722.57 403.33, 722.41 404.0, 722.25 404.67, 722.09 405.33, 721.94 406.0, 721.8 406.67, 721.66 407.33, 721.53 408.0, 721.4 408.67, 721.28 409.33, 721.17 410.0, 721.06 410.67, 720.95 411.33, 720.85 412.0, 720.76 412.67, 720.67 413.33, 720.58 414.0, 720.51 414.67, 720.43 415.33, 720.37 416.0, 720.31 416.67, 720.25 417.33, 720.2 418.0, 720.16 418.67, 720.12 419.33, 720.08 420.0, 720.06 420.67, 720.03 421.33, 720.02 422.0, 720.01 422.67, 720.0 423.33, 720.0 424.0, 720.01 424.67, 720.02 425.33, 720.03 426.0, 720.06 426.67, 720.08 427.33, 720.12 428.0, 720.16 428.67, 720.2 429.33, 720.25 430.0, 720.31 430.67, 720.37 431.33, 720.43 432.0, 720.5 432.67, 720.58 433.33, 720.67 434.0, 720.75 434.67, 720.85 435.33, 720.95 436.0, 721.05 436.67, 721.16 437.33, 721.28 438.0, 721.4 438.67, 721.53 439.33, 721.66 440.0, 721.8 440.67, 721.94 441.33, 722.09 442.0, 722.24 442.67, 722.4 443.33, 722.57 444.0, 722.74 444.67, 722.91 445.33, 723.09 446.0, 723.28 446.67, 723.47 447.33, 723.67 448.0, 723.87 448.67, 724.08 449.33, 724.29 450.0, 724.51 450.67, 724.73 451.33, 724.96 452.0, 725.2 452.67, 725.43 453.33, 725.68 454.0, 725.93 454.67, 726.18 455.33, 726.44 456.0, 726.71 456.67, 726.98 457.33, 727.25 458.0, 727.53 458.67, 727.82 459.33, 728.11 460.0, 728.4 460.67, 728.7 461.33, 729.01 462.0, 729.32 462.67, 729.63 463.33, 729.95 464.0, 730.27 464.67, 730.6 465.33, 730.94 466.0, 731.28 466.67, 731.62 467.33, 731.97 468.0, 732.32 468.67, 732.68 469.33, 733.04 470.0, 733.41 470.67, 733.78 471.33, 734.16 472.0, 734.54 472.67, 734.92 473.33, 735.31 474.0, 735.71 474.67, 736.11 475.33, 736.51 476.0, 736.92 476.67, 737.33 477.33, 737.75 478.0, 738.17 478.67, 738.59 479.33, 739.02 480.0, 739.46 480.67, 739.89 481.33, 740.34 482.0, 740.78 482.67, 741.23 483.33, 741.69 484.0, 742.14 484.67, 742.61 485.33, 743.07 486.0, 743.54 486.67, 744.02 487.33, 744.5 488.0, 744.98 488.67, 745.46 489.33, 745.95 490.0, 746.45 490.67, 746.94 491.33, 747.45 492.0, 747.95 492.67, 748.46 493.33, 748.97 494.0, 749.48 494.67, 750.0 495.33, 750.53 496.0, 751.05 496.67, 751.58 497.33, 752.11 498.0, 752.65 498.67, 753.19 499.33, 753.73 500.0, 754.28 500.67, 754.82 501.33, 755.38 502.0, 755.93 502.67, 756.49 503.33, 757.05 504.0, 757.61 504.67, 758.18 505.33, 758.75 506.0, 759.32 506.67, 759.9 507.33, 760.48 508.0, 761.06 508.67, 761.64 509.33, 762.23 510.0, 762.82 510.67, 763.41 511.33, 764.0 512.0, 764.6 512.67, 765.2 513.33, 765.8 514.0, 766.4 514.67, 767.01 515.33, 767.62 516.0, 768.23 516.67, 768.84 517.33, 769.46 518.0, 770.07 518.67, 770.69 519.33, 771.31 520.0, 771.94 520.67, 772.56 521.33, 773.19 522.0, 773.82 522.67, 774.45 523.33, 775.08 524.0, 775.72 524.67, 776.35 525.33, 776.99 526.0, 777.63 526.67, 778.27 527.33, 778.91 528.0, 779.56 528.67, 780.2 529.33, 780.85 530.0, 781.5 530.67, 782.15 531.33, 782.8 532.0, 783.45 532.67, 784.1 533.33, 784.75 534.0, 785.41 534.67, 786.07 535.33, 786.72 536.0, 787.38 536.67, 788.04 537.33, 788.7 538.0, 789.36 538.67, 790.02 539.33, 790.68 540.0, 791.34 540.67, 792.01 541.33, 792.67 542.0, 793.34 542.67, 794.0 543.33, 794.66 544.0, 795.33 544.67, 796.0 545.33, 796.66 546.0, 797.33 546.67, 797.99 547.33, 798.66 548.0, 799.33 548.67, 799.99 549.33, 800.66 550.0, 801.33 550.67, 801.99 551.33, 802.66 552.0, 803.33 552.67, 803.99 553.33, 804.66 554.0, 805.32 554.67, 805.99 555.33, 806.65 556.0, 807.32 556.67, 807.98 557.33, 808.64 558.0, 809.31 558.67, 809.97 559.33, 810.63 560.0, 811.29 560.67, 811.95 561.33, 812.61 562.0, 813.27 562.67, 813.92 563.33, 814.58 564.0, 815.23 564.67, 815.89 565.33, 816.54 566.0, 817.19 566.67, 817.84 567.33, 818.49 568.0, 819.14 568.67, 819.79 569.33, 820.43 570.0, 821.08 570.67, 821.72 571.33, 822.36 572.0, 823.0 572.67, 823.64 573.33, 824.27 574.0, 824.91 574.67, 825.54 575.33, 826.17 576.0, 826.8 576.67, 827.43 577.33, 828.05 578.0, 828.67 578.67, 829.3 579.33, 829.92 580.0, 830.53 580.67, 831.15 581.33, 831.76 582.0, 832.37 582.67, 832.98 583.33, 833.59 584.0, 834.19 584.67, 834.79 585.33, 835.39 586.0, 835.99 586.67, 836.58 587.33, 837.17 588.0, 837.76 588.67, 838.35 589.33, 838.93 590.0, 839.51 590.67, 840.09 591.33, 840.67 592.0, 841.24 592.67, 841.81 593.33, 842.38 594.0, 842.94 594.67, 843.5 595.33, 844.06 596.0, 844.61 596.67, 845.17 597.33, 845.72 598.0, 846.26 598.67, 846.8 599.33, 847.34 600.0, 847.88 600.67, 848.41 601.33, 848.94 602.0, 849.46 602.67, 849.99 603.33, 850.51 604.0, 851.02 604.67, 851.53 605.33, 852.04 606.0, 852.55 606.67, 853.05 607.33, 853.54 608.0, 854.04 608.67, 854.53 609.33, 855.01 610.0, 855.49 610.67, 855.97 611.33, 856.45 612.0, 856.92 612.67, 857.38 613.33, 857.85 614.0, 858.31 614.67, 858.76 615.33, 859.21 616.0, 859.66 616.67, 860.1 617.33, 860.54 618.0, 860.97 618.67, 861.4 619.33, 861.82 620.0, 862.25 620.67, 862.66 621.33, 863.07 622.0, 863.48 622.67, 863.89 623.33, 864.29 624.0, 864.68 624.67, 865.07 625.33, 865.46 626.0, 865.84 626.67, 866.21 627.33, 866.58 628.0, 866.95 628.67, 867.31 629.33, 867.67 630.0, 868.03 630.67, 868.37 631.33, 868.72 632.0, 869.06 632.67, 869.39 633.33, 869.72 634.0, 870.04 634.67, 870.36 635.33, 870.68 636.0, 870.99 636.67, 871.29 637.33, 871.59 638.0, 871.89 638.67, 872.18 639.33, 872.46 640.0, 872.74 640.67, 873.02 641.33, 873.29 642.0, 873.55 642.67, 873.81 643.33, 874.07 644.0, 874.32 644.67, 874.56 645.33, 874.8 646.0, 875.03 646.67, 875.26 647.33, 875.49 648.0, 875.7 648.67, 875.92 649.33, 876.12 650.0, 876.33 650.67, 876.52 651.33, 876.72 652.0, 876.9 652.67, 877.08 653.33, 877.26 654.0, 877.43 654.67, 877.59 655.33, 877.75 656.0, 877.91 656.67, 878.06 657.33, 878.2 658.0, 878.34 658.67, 878.47 659.33, 878.6 660.0, 878.72 660.67, 878.83 661.33, 878.95 662.0, 879.05 662.67, 879.15 663.33, 879.24 664.0, 879.33 664.67, 879.42 665.33, 879.49 666.0, 879.57 666.67, 879.63 667.33, 879.69 668.0, 879.75 668.67, 879.8 669.33, 879.84 670.0, 879.88 670.67, 879.92 671.33, 879.94 672.0, 879.97 672.67, 879.98 673.33, 879.99 674.0, 880.0 674.67, 880.0 675.33, 879.99 676.0, 879.98 676.67, 879.97 677.33, 879.94 678.0, 879.92 678.67, 879.88 679.33, 879.84 680.0, 879.8 680.67, 879.75 681.33, 879.69 682.0, 879.63 682.67, 879.57 683.33, 879.49 684.0, 879.42 684.67, 879.33 685.33, 879.25 686.0, 879.15 686.67, 879.05 687.33, 878.95 688.0, 878.84 688.67, 878.72 689.33, 878.6 690.0, 878.47 690.67, 878.34 691.33, 878.2 692.0, 878.06 692.67, 877.91 693.33, 877.76 694.0, 877.6 694.67, 877.43 695.33, 877.26 696.0, 877.08 696.67, 876.9 697.33, 876.72 698.0, 876.53 698.67, 876.33 699.33, 876.13 700.0, 875.92 700.67, 875.71 701.33, 875.49 702.0, 875.26 702.67, 875.04 703.33, 874.8 704.0, 874.56 704.67, 874.32 705.33, 874.07 706.0, 873.82 706.67, 873.56 707.33, 873.29 708.0, 873.02 708.67, 872.75 709.33, 872.47 710.0, 872.18 710.67, 871.89 711.33, 871.6 712.0, 871.3 712.67, 870.99 713.33, 870.68 714.0, 870.37 714.67, 870.05 715.33, 869.72 716.0, 869.39 716.67, 869.06 717.33, 868.72 718.0, 868.38 718.67, 868.03 719.33, 867.68 720.0, 867.32 720.67, 866.96 721.33, 866.59 722.0, 866.22 722.67, 865.84 723.33, 865.46 724.0, 865.07 724.67, 864.68 725.33, 864.29 726.0, 863.89 726.67, 863.49 727.33, 863.08 728.0, 862.67 728.67, 862.25 729.33, 861.83 730.0, 861.4 730.67, 860.97 731.33, 860.54 732.0, 860.1 732.67, 859.66 733.33, 859.21 734.0, 858.76 734.67, 858.31 735.33, 857.85 736.0, 857.39 736.67, 856.92 737.33, 856.45 738.0, 855.98 738.67, 855.5 739.33, 855.02 740.0, 854.53 740.67, 854.04 741.33, 853.55 742.0, 853.05 742.67, 852.55 743.33, 852.05 744.0, 851.54 744.67, 851.03 745.33, 850.51 746.0, 849.99 746.67, 849.47 747.33, 848.94 748.0, 848.41 748.67, 847.88 749.33, 847.35 750.0, 846.81 750.67, 846.27 751.33, 845.72 752.0, 845.17 752.67, 844.62 753.33, 844.06 754.0, 843.51 754.67, 842.95 755.33, 842.38 756.0, 841.81 756.67, 841.25 757.33, 840.67 758.0, 840.1 758.67, 839.52 759.33, 838.94 760.0, 838.35 760.67, 837.77 761.33, 837.18 762.0, 836.59 762.67, 835.99 763.33, 835.4 764.0, 834.8 764.67, 834.2 765.33, 833.59 766.0, 832.99 766.67, 832.38 767.33, 831.77 768.0, 831.15 768.67, 830.54 769.33, 829.92 770.0, 829.3 770.67, 828.68 771.33, 828.06 772.0, 827.43 772.67, 826.8 773.33, 826.18 774.0, 825.54 774.67, 824.91 775.33, 824.28 776.0, 823.64 776.67, 823.0 777.33, 822.36 778.0, 821.72 778.67, 821.08 779.33, 820.44 780.0, 819.79 780.67, 819.15 781.33, 818.5 782.0, 817.85 782.67, 817.2 783.33, 816.55 784.0, 815.89 784.67, 815.24 785.33, 814.58 786.0, 813.93 786.67, 813.27 787.33, 812.61 788.0, 811.96 788.67, 811.3 789.33, 810.64 790.0, 809.97 790.67, 809.31 791.33, 808.65 792.0, 807.99 792.67, 807.32 793.33, 806.66 794.0, 805.99 794.67, 805.33 795.33, 804.66 796.0, 804.0 796.67, 803.33 797.33, 802.67 798.0, 802.0 798.67, 801.33 799.33, 800.67 800.0, 800.0 800.67, 799.33 801.33, 798.67 802.0, 798.0 802.67, 797.33 803.33, 796.67 804.0, 796.0 804.67, 795.34 805.33, 794.67 806.0, 794.01 806.67, 793.34 807.33, 792.68 808.0, 792.01 808.67, 791.35 809.33, 790.69 810.0, 790.03 810.67, 789.36 811.33, 788.7 812.0, 788.04 812.67, 787.39 813.33, 786.73 814.0, 786.07 814.67, 785.42 815.33, 784.76 816.0, 784.11 816.67, 783.45 817.33, 782.8 818.0, 782.15 818.67, 781.5 819.33, 780.85 820.0, 780.21 820.67, 779.56 821.33, 778.92 822.0, 778.28 822.67, 777.64 823.33, 777.0 824.0, 776.36 824.67, 775.72 825.33, 775.09 826.0, 774.46 826.67, 773.82 827.33, 773.2 828.0, 772.57 828.67, 771.94 829.33, 771.32 830.0, 770.7 830.67, 770.08 831.33, 769.46 832.0, 768.85 832.67, 768.23 833.33, 767.62 834.0, 767.01 834.67, 766.41 835.33, 765.8 836.0, 765.2 836.67, 764.6 837.33, 764.01 838.0, 763.41 838.67, 762.82 839.33, 762.23 840.0, 761.65 840.67, 761.06 841.33, 760.48 842.0, 759.9 842.67, 759.33 843.33, 758.75 844.0, 758.19 844.67, 757.62 845.33, 757.05 846.0, 756.49 846.67, 755.94 847.33, 755.38 848.0, 754.83 848.67, 754.28 849.33, 753.73 850.0, 753.19 850.67, 752.65 851.33, 752.12 852.0, 751.59 852.67, 751.06 853.33, 750.53 854.0, 750.01 854.67, 749.49 855.33, 748.97 856.0, 748.46 856.67, 747.95 857.33, 747.45 858.0, 746.95 858.67, 746.45 859.33, 745.96 860.0, 745.47 860.67, 744.98 861.33, 744.5 862.0, 744.02 862.67, 743.55 863.33, 743.08 864.0, 742.61 864.67, 742.15 865.33, 741.69 866.0, 741.24 866.67, 740.79 867.33, 740.34 868.0, 739.9 868.67, 739.46 869.33, 739.03 870.0, 738.6 870.67, 738.17 871.33, 737.75 872.0, 737.33 872.67, 736.92 873.33, 736.51 874.0, 736.11 874.67, 735.71 875.33, 735.32 876.0, 734.93 876.67, 734.54 877.33, 734.16 878.0, 733.78 878.67, 733.41 879.33, 733.04 880.0, 732.68 880.67, 732.32 881.33, 731.97 882.0, 731.62 882.67, 731.28 883.33, 730.94 884.0, 730.61 884.67, 730.28 885.33, 729.95 886.0, 729.63 886.67, 729.32 887.33, 729.01 888.0, 728.7 888.67, 728.4 889.33, 728.11 890.0, 727.82 890.67, 727.53 891.33, 727.25 892.0, 726.98 892.67, 726.71 893.33, 726.44 894.0, 726.18 894.67, 725.93 895.33, 725.68 896.0, 725.44 896.67, 725.2 897.33, 724.96 898.0, 724.74 898.67, 724.51 899.33, 724.29 900.0, 724.08 900.67, 723.87 901.33, 723.67 902.0, 723.47 902.67, 723.28 903.33, 723.1 904.0, 722.92 904.67, 722.74 905.33, 722.57 906.0, 722.4 906.67, 722.24 907.33, 722.09 908.0, 721.94 908.67, 721.8 909.33, 721.66 910.0, 721.53 910.67, 721.4 911.33, 721.28 912.0, 721.16 912.67, 721.05 913.33, 720.95 914.0, 720.85 914.67, 720.75 915.33, 720.67 916.0, 720.58 916.67, 720.51 917.33, 720.43 918.0, 720.37 918.67, 720.31 919.33, 720.25 920.0, 720.2 920.67, 720.16 921.33, 720.12 922.0, 720.08 922.67, 720.06 923.33, 720.03 924.0, 720.02 924.67, 720.01 925.33, 720.0 926.0, 720.0 926.67, 720.01 927.33, 720.02 928.0, 720.03 928.67, 720.06 929.33, 720.08 930.0, 720.12 930.67, 720.16 931.33, 720.2 932.0, 720.25 932.67, 720.31 933.33, 720.37 934.0, 720.43 934.67, 720.51 935.33, 720.58 936.0, 720.67 936.67, 720.76 937.33, 720.85 938.0, 720.95 938.67, 721.05 939.33, 721.17 940.0, 721.28 940.67, 721.4 941.33, 721.53 942.0, 721.66 942.67, 721.8 943.33, 721.94 944.0, 722.09 944.67, 722.25 945.33, 722.41 946.0, 722.57 946.67, 722.74 947.33, 722.92 948.0, 723.1 948.67, 723.28 949.33, 723.48 950.0, 723.67 950.67, 723.88 951.33, 724.08 952.0, 724.3 952.67, 724.51 953.33, 724.74 954.0, 724.97 954.67, 725.2 955.33, 725.44 956.0, 725.68 956.67, 725.93 957.33, 726.19 958.0, 726.45 958.67, 726.71 959.33, 726.98 960.0, 727.26 960.67, 727.54 961.33, 727.82 962.0, 728.11 962.67, 728.41 963.33, 728.71 964.0, 729.01 964.67, 729.32 965.33, 729.64 966.0, 729.96 966.67, 730.28 967.33, 730.61 968.0, 730.94 968.67, 731.28 969.33, 731.63 970.0, 731.97 970.67, 732.33 971.33, 732.69 972.0, 733.05 972.67, 733.42 973.33, 733.79 974.0, 734.16 974.67, 734.54 975.33, 734.93 976.0, 735.32 976.67, 735.71 977.33, 736.11 978.0, 736.52 978.67, 736.93 979.33, 737.34 980.0, 737.75 980.67, 738.18 981.33, 738.6 982.0, 739.03 982.67, 739.46 983.33, 739.9 984.0, 740.34 984.67, 740.79 985.33, 741.24 986.0, 741.69 986.67, 742.15 987.33, 742.62 988.0, 743.08 988.67, 743.55 989.33, 744.03 990.0, 744.51 990.67, 744.99 991.33, 745.47 992.0, 745.96 992.67, 746.46 993.33, 746.95 994.0, 747.45 994.67, 747.96 995.33, 748.47 996.0, 748.98 996.67, 749.49 997.33, 750.01 998.0, 750.54 998.67, 751.06 999.33, 751.59 1000.0, 752.12 1000.67, 752.66 1001.33, 753.2 1002.0, 753.74 1002.67, 754.28 1003.33, 754.83 1004.0, 755.39 1004.67, 755.94 1005.33, 756.5 1006.0, 757.06 1006.67, 757.62 1007.33, 758.19 1008.0, 758.76 1008.67, 759.33 1009.33, 759.91 1010.0, 760.49 1010.67, 761.07 1011.33, 761.65 1012.0, 762.24 1012.67, 762.83 1013.33, 763.42 1014.0, 764.01 1014.67, 764.61 1015.33, 765.21 1016.0, 765.81 1016.67, 766.41 1017.33, 767.02 1018.0, 767.63 1018.67, 768.24 1019.33, 768.85 1020.0, 769.47 1020.67, 770.08 1021.33, 770.7 1022.0, 771.33 1022.67, 771.95 1023.33, 772.57 1024.0, 773.2 1024.67, 773.83 1025.33, 774.46 1026.0, 775.09 1026.67, 775.73 1027.33, 776.36 1028.0, 777.0 1028.67, 777.64 1029.33, 778.28 1030.0, 778.92 1030.67, 779.57 1031.33, 780.21 1032.0, 780.86 1032.67, 781.51 1033.33, 782.16 1034.0, 782.81 1034.67, 783.46 1035.33, 784.11 1036.0, 784.77 1036.67, 785.42 1037.33, 786.08 1038.0, 786.73 1038.67, 787.39 1039.33, 788.05 1040.0, 788.71 1040.67, 789.37 1041.33, 790.03 1042.0, 790.69 1042.67, 791.36 1043.33, 792.02 1044.0, 792.68 1044.67, 793.35 1045.33, 794.01 1046.0, 794.68 1046.67, 795.34 1047.33, 796.01 1048.0, 796.67 1048.67, 797.34 1049.33, 798.01 1050.0, 798.67 1050.67, 799.34 1051.33, 800.01 1052.0, 800.67 1052.67, 801.34 1053.33, 802.01 1054.0, 802.67 1054.67, 803.34 1055.33, 804.0 1056.0, 804.67 1056.67, 805.34 1057.33, 806.0 1058.0, 806.66 1058.67, 807.33 1059.33, 807.99 1060.0, 808.66 1060.67, 809.32 1061.33, 809.98 1062.0, 810.64 1062.67, 811.3 1063.33, 811.96 1064.0, 812.62 1064.67, 813.28 1065.33, 813.93 1066.0, 814.59 1066.67, 815.25 1067.33, 815.9 1068.0, 816.55 1068.67, 817.2 1069.33, 817.85 1070.0, 818.5 1070.67, 819.15 1071.33, 819.8 1072.0, 820.44 1072.67, 821.09 1073.33, 821.73 1074.0, 822.37 1074.67, 823.01 1075.33, 823.65 1076.0, 824.28 1076.67, 824.92 1077.33, 825.55 1078.0, 826.18 1078.67, 826.81 1079.33, 827.44 1080.0, 828.06 1080.67, 828.69 1081.33, 829.31 1082.0, 829.93 1082.67, 830.54 1083.33, 831.16 1084.0, 831.77 1084.67, 832.38 1085.33, 832.99 1086.0, 833.6 1086.67, 834.2 1087.33, 834.8 1088.0, 835.4 1088.67, 836.0 1089.33, 836.59 1090.0, 837.18 1090.67, 837.77 1091.33, 838.36 1092.0, 838.94 1092.67, 839.52 1093.33, 840.1 1094.0, 840.68 1094.67, 841.25 1095.33, 841.82 1096.0, 842.39 1096.67, 842.95 1097.33, 843.51 1098.0, 844.07 1098.67, 844.62 1099.33, 845.18 1100.0, 845.72 1100.67, 846.27 1101.33, 846.81 1102.0, 847.35 1102.67, 847.89 1103.33, 848.42 1104.0, 848.95 1104.67, 849.47 1105.33, 850.0 1106.0, 850.52 1106.67, 851.03 1107.33, 851.54 1108.0, 852.05 1108.67, 852.55 1109.33, 853.06 1110.0, 853.55 1110.67, 854.05 1111.33, 854.54 1112.0, 855.02 1112.67, 855.5 1113.33, 855.98 1114.0, 856.46 1114.67, 856.93 1115.33, 857.39 1116.0, 857.86 1116.67, 858.31 1117.33, 858.77 1118.0, 859.22 1118.67, 859.66 1119.33, 860.11 1120.0, 860.54 1120.67, 860.98 1121.33, 861.41 1122.0, 861.83 1122.67, 862.25 1123.33, 862.67 1124.0, 863.08 1124.67, 863.49 1125.33, 863.89 1126.0, 864.29 1126.67, 864.69 1127.33, 865.08 1128.0, 865.46 1128.67, 865.84 1129.33, 866.22 1130.0, 866.59 1130.67, 866.96 1131.33, 867.32 1132.0, 867.68 1132.67, 868.03 1133.33, 868.38 1134.0, 868.72 1134.67, 869.06 1135.33, 869.4 1136.0, 869.73 1136.67, 870.05 1137.33, 870.37 1138.0, 870.68 1138.67, 870.99 1139.33, 871.3 1140.0, 871.6 1140.67, 871.89 1141.33, 872.18 1142.0, 872.47 1142.67, 872.75 1143.33, 873.02 1144.0, 873.29 1144.67, 873.56 1145.33, 873.82 1146.0, 874.07 1146.67, 874.32 1147.33, 874.57 1148.0, 874.8 1148.67, 875.04 1149.33, 875.27 1150.0, 875.49 1150.67, 875.71 1151.33, 875.92 1152.0, 876.13 1152.67, 876.33 1153.33, 876.53 1154.0, 876.72 1154.67, 876.91 1155.33, 877.09 1156.0, 877.26 1156.67, 877.43 1157.33, 877.6 1158.0, 877.76 1158.67, 877.91 1159.33, 878.06 1160.0, 878.2 1160.67, 878.34 1161.33, 878.47 1162.0, 878.6 1162.67, 878.72 1163.33, 878.84 1164.0, 878.95 1164.67, 879.05 1165.33, 879.15 1166.0, 879.25 1166.67, 879.33 1167.33, 879.42 1168.0, 879.5 1168.67, 879.57 1169.33, 879.63 1170.0, 879.69 1170.67, 879.75 1171.33, 879.8 1172.0, 879.84 1172.67, 879.88 1173.33, 879.92 1174.0, 879.94 1174.67, 879.97 1175.33, 879.98 1176.0, 879.99 1176.67, 880.0 1177.33, 880.0 1178.0, 879.99 1178.67, 879.98 1179.33, 879.97 1180.0, 879.94 1180.67, 879.92 1181.33, 879.88 1182.0, 879.84 1182.67, 879.8 1183.33, 879.75 1184.0, 879.69 1184.67, 879.63 1185.33, 879.57 1186.0, 879.49 1186.67, 879.42 1187.33, 879.33 1188.0, 879.24 1188.67, 879.15 1189.33, 879.05 1190.0, 878.94 1190.67, 878.83 1191.33, 878.72 1192.0, 878.6 1192.67, 878.47 1193.33, 878.34 1194.0, 878.2 1194.67, 878.06 1195.33, 877.91 1196.0, 877.75 1196.67, 877.59 1197.33, 877.43 1198.0, 877.26 1198.67, 877.08 1199.33, 876.9 1200.0, 876.71 1200.67, 876.52 1201.33, 876.32 1202.0, 876.12 1202.67, 875.91 1203.33, 875.7 1204.0, 875.48 1204.67, 875.26 1205.33, 875.03 1206.0, 874.8 1206.67, 874.56 1207.33, 874.31 1208.0, 874.06 1208.67, 873.81 1209.33, 873.55 1210.0, 873.29 1210.67, 873.02 1211.33, 872.74 1212.0, 872.46 1212.67, 872.18 1213.33, 871.89 1214.0, 871.59 1214.67, 871.29 1215.33, 870.99 1216.0, 870.68 1216.67, 870.36 1217.33, 870.04 1218.0, 869.72 1218.67, 869.39 1219.33, 869.05 1220.0, 868.71 1220.67, 868.37 1221.33, 868.02 1222.0, 867.67 1222.67, 867.31 1223.33, 866.95 1224.0, 866.58 1224.67, 866.21 1225.33, 865.83 1226.0, 865.45 1226.67, 865.07 1227.33, 864.68 1228.0, 864.28 1228.67, 863.88 1229.33, 863.48 1230.0, 863.07 1230.67, 862.66 1231.33, 862.24 1232.0, 861.82 1232.67, 861.4 1233.33, 860.97 1234.0, 860.53 1234.67, 860.09 1235.33, 859.65 1236.0, 859.21 1236.67, 858.76 1237.33, 858.3 1238.0, 857.84 1238.67, 857.38 1239.33, 856.91 1240.0, 856.44 1240.67, 855.97 1241.33, 855.49 1242.0, 855.01 1242.67, 854.52 1243.33, 854.03 1244.0, 853.54 1244.67, 853.04 1245.33, 852.54 1246.0, 852.04 1246.67, 851.53 1247.33, 851.02 1248.0, 850.5 1248.67, 849.98 1249.33, 849.46 1250.0, 848.93 1250.67, 848.41 1251.33, 847.87 1252.0, 847.34 1252.67, 846.8 1253.33, 846.26 1254.0, 845.71 1254.67, 845.16 1255.33, 844.61 1256.0, 844.05 1256.67, 843.5 1257.33, 842.94 1258.0, 842.37 1258.67, 841.8 1259.33, 841.23 1260.0, 840.66 1260.67, 840.09 1261.33, 839.51 1262.0, 838.93 1262.67, 838.34 1263.33, 837.76 1264.0, 837.17 1264.67, 836.58 1265.33, 835.98 1266.0, 835.39 1266.67, 834.79 1267.33, 834.19 1268.0, 833.58 1268.67, 832.98 1269.33, 832.37 1270.0, 831.76 1270.67, 831.14 1271.33, 830.53 1272.0, 829.91 1272.67, 829.29 1273.33, 828.67 1274.0, 828.05 1274.67, 827.42 1275.33, 826.79 1276.0, 826.17 1276.67, 825.53 1277.33, 824.9 1278.0, 824.27 1278.67, 823.63 1279.33, 822.99 1280.0, 822.36 1280.67, 821.71 1281.33, 821.07 1282.0, 820.43 1282.67, 819.78 1283.33, 819.14 1284.0, 818.49 1284.67, 817.84 1285.33, 817.19 1286.0, 816.54 1286.67, 815.89 1287.33, 815.23 1288.0, 814.58 1288.67, 813.92 1289.33, 813.26 1290.0, 812.61 1290.67, 811.95 1291.33, 811.29 1292.0, 810.63 1292.67, 809.97 1293.33, 809.31 1294.0, 808.64 1294.67, 807.98 1295.33, 807.32 1296.0, 806.65 1296.67, 805.99 1297.33, 805.33 1298.0, 804.66 1298.67, 804.0 1299.33, 803.33 1300.0, 802.66 1300.67, 802.0 1301.33, 801.33 1302.0, 800.67 1302.67, 800.0 1303.33, 799.33 1304.0, 798.67 1304.67, 798.0 1305.33, 797.34 1306.0, 796.67 1306.67, 796.0 1307.33, 795.34 1308.0, 794.68 1308.67, 794.01 1309.33, 793.35 1310.0, 792.68 1310.67, 792.02 1311.33, 791.36 1312.0, 790.7 1312.67, 790.04 1313.33, 789.38 1314.0, 788.72 1314.67, 788.06 1315.33, 787.4 1316.0, 786.74 1316.67, 786.09 1317.33, 785.43 1318.0, 784.78 1318.67, 784.13 1319.33, 783.47 1320.0, 782.82 1320.67, 782.17 1321.33, 781.53 1322.0, 780.88 1322.67, 780.23 1323.33, 779.59 1324.0, 778.95 1324.67, 778.31 1325.33, 777.67 1326.0, 777.03 1326.67, 776.39 1327.33, 775.76 1328.0, 775.13 1328.67, 774.5 1329.33, 773.87 1330.0, 773.24 1330.67, 772.61 1331.33, 771.99 1332.0, 771.37 1332.67, 770.75 1333.33, 770.13 1334.0, 769.52 1334.67, 768.91 1335.33, 768.3 1336.0, 767.69 1336.67, 767.08 1337.33, 766.48 1338.0, 765.88 1338.67, 765.28 1339.33, 764.68 1340.0, 764.09 1340.67, 763.5 1341.33, 762.91 1342.0, 762.32 1342.67, 761.74 1343.33, 761.16 1344.0, 760.58 1344.67, 760.01 1345.33, 759.44 1346.0, 758.87 1346.67, 758.3 1347.33, 757.74 1348.0, 757.18 1348.67, 756.62 1349.33, 756.07 1350.0, 755.52 1350.67, 754.97 1351.33, 754.43 1352.0, 753.89 1352.67, 753.35 1353.33, 752.82 1354.0, 752.29 1354.67, 751.76 1355.33, 751.24 1356.0, 750.72 1356.67, 750.2 1357.33, 749.69 1358.0, 749.18 1358.67, 748.67 1359.33, 748.17 1360.0, 747.68 1360.67, 747.18 1361.33, 746.69 1362.0, 746.21 1362.67, 745.72 1363.33, 745.25 1364.0, 744.77 1364.67, 744.3 1365.33, 743.84 1366.0, 743.38 1366.67, 742.92 1367.33, 742.47 1368.0, 742.02 1368.67, 741.57 1369.33, 741.13 1370.0, 740.7 1370.67, 740.26 1371.33, 739.84 1372.0, 739.42 1372.67, 739.0 1373.33, 738.58 1374.0, 738.18 1374.67, 737.77 1375.33, 737.37 1376.0, 736.98 1376.67, 736.59 1377.33, 736.2 1378.0, 735.82 1378.67, 735.45 1379.33, 735.08 1380.0, 734.71 1380.67, 734.35 1381.33, 734.0 1382.0, 733.65 1382.67, 733.3 1383.33, 732.96 1384.0, 732.62 1384.67, 732.29 1385.33, 731.97 1386.0, 731.65 1386.67, 731.34 1387.33, 731.03 1388.0, 730.72 1388.67, 730.43 1389.33, 730.13 1390.0, 729.85 1390.67, 729.56 1391.33, 729.29 1392.0, 729.02 1392.67, 728.75 1393.33, 728.49 1394.0, 728.24 1394.67, 727.99 1395.33, 727.75 1396.0, 727.51 1396.67, 727.28 1397.33, 727.06 1398.0, 726.84 1398.67, 726.63 1399.33, 726.42 1400.0, 726.22 1400.67, 726.03 1401.33, 725.84 1402.0, 725.65 1402.67, 725.48 1403.33, 725.31 1404.0, 725.14 1404.67, 724.99 1405.33, 724.83 1406.0, 724.69 1406.67, 724.55 1407.33, 724.42 1408.0, 724.29 1408.67, 724.17 1409.33, 724.06 1410.0, 723.95 1410.67, 723.85 1411.33, 723.76 1412.0, 723.67 1412.67, 723.59 1413.33, 723.52 1414.0, 723.45 1414.67, 723.39 1415.33, 723.34 1416.0, 723.29 1416.67, 723.25 1417.33, 723.22 1418.0, 723.19 1418.67, 723.17 1419.33, 723.16 1420.0, 723.16 1420.67, 723.16 1421.33, 723.17 1422.0, 723.19 1422.67, 723.21 1423.33, 723.24 1424.0, 723.28 1424.67, 723.33 1425.33, 723.38 1426.0, 723.45 1426.67, 723.51 1427.33, 723.59 1428.0, 723.67 1428.67, 723.77 1429.33, 723.87 1430.0, 723.97 1430.67, 724.09 1431.33, 724.21 1432.0, 724.34 1432.67, 724.48 1433.33, 724.62 1434.0, 724.78 1434.67, 724.94 1435.33, 725.11 1436.0, 725.29 1436.67, 725.48 1437.33, 725.67 1438.0, 725.88 1438.67, 726.09 1439.33, 726.31 1440.0, 726.54 1440.67, 726.77 1441.33, 727.02 1442.0, 727.28 1442.67, 727.54 1443.33, 727.81 1444.0, 728.09 1444.67, 728.38 1445.33, 728.68 1446.0, 728.99 1446.67, 729.31 1447.33, 729.63 1448.0, 729.97 1448.67, 730.31 1449.33, 730.67 1450.0, 731.03 1450.67, 731.4 1451.33, 731.79 1452.0, 732.18 1452.67, 732.58 1453.33, 732.99 1454.0, 733.41 1454.67, 733.85 1455.33, 734.29 1456.0, 734.74 1456.67, 735.2 1457.33, 735.68 1458.0, 736.16 1458.67, 736.65 1459.33, 737.16 1460.0, 737.67 1460.67, 738.2 1461.33, 738.74 1462.0, 739.28 1462.67, 739.84 1463.33, 740.41 1464.0, 740.99 1464.67, 741.59 1465.33, 742.19 1466.0, 742.81 1466.67, 743.43 1467.33, 744.07 1468.0, 744.73 1468.67, 745.39 1469.33, 746.06 1470.0, 746.75 1470.67, 747.45 1471.33, 748.17 1472.0, 748.89 1472.67, 749.63 1473.33, 750.38 1474.0, 751.15 1474.67, 751.93 1475.33, 752.72 1476.0, 753.53 1476.67, 754.35 1477.33, 755.18 1478.0, 756.03 1478.67, 756.89 1479.33, 757.76 1480.0, 758.65 1480.67, 759.56 1481.33, 760.48 1482.0, 761.42 1482.67, 762.37 1483.33, 763.33 1484.0, 764.31 1484.67, 765.31 1485.33, 766.32 1486.0, 767.35 1486.67, 768.4 1487.33, 769.46 1488.0, 770.54 1488.67, 771.64 1489.33, 772.75 1490.0, 773.89 1490.67, 775.04 1491.33, 776.2 1492.0, 777.39 1492.67, 778.59 1493.33, 779.82 1494.0, 781.06 1494.67, 782.32 1495.33, 783.6 1496.0, 784.9 1496.67, 786.22 1497.33, 787.56 1498.0, 788.92 1498.67, 790.3 1499.33, 791.71 1500.0, 793.13 1500.67, 794.58 1501.33, 796.05 1502.0, 797.54 1502.67, 799.05 1503.33, 800.59 1504.0, 802.15 1504.67, 803.74 1505.33, 805.34 1506.0, 806.98 1506.67, 808.63 1507.33, 810.32 1508.0, 812.03 1508.67, 813.76 1509.33, 815.52 1510.0, 817.31 1510.67, 819.12 1511.33, 820.96 1512.0, 822.83 1512.67, 824.73 1513.33, 826.66 1514.0, 828.62 1514.67, 830.6 1515.33, 832.62 1516.0, 834.67 1516.67, 836.74 1517.33, 838.85 1518.0, 841.0 1518.67, 843.17 1519.33, 845.38 1520.0, 847.62 1520.67, 849.9 1521.33, 852.21 1522.0, 854.55 1522.67, 856.94 1523.33, 859.35 1524.0, 861.81 1524.67, 864.3 1525.33, 866.83 1526.0, 869.4 1526.67, 872.01 1527.33, 874.66 1528.0, 877.35 1528.67, 880.09 1529.33, 882.86 1530.0, 885.68 1530.67, 888.54 1531.33, 891.44 1532.0, 894.39 1532.67, 897.39 1533.33, 900.43 1534.0, 903.52 1534.67, 906.66 1535.33, 909.84 1536.0, 913.08 1536.67, 916.36 1537.33, 919.7 1538.0, 923.09 1538.67, 926.53 1539.33, 930.03 1540.0, 933.58 1540.67, 937.18 1541.33, 940.85 1542.0, 944.57 1542.67, 948.35 1543.33, 952.18 1544.0, 956.08 1544.67, 960.04 1545.33, 964.06 1546.0, 968.15 1546.67, 972.3 1547.33, 976.52 1548.0, 980.8 1548.67, 985.15 1549.33, 989.57 1550.0, 994.06 1550.67, 998.62 1551.33, 1003.26 1552.0, 1007.97 1552.67, 1012.75 1553.33, 1017.61 1554.0, 1022.55 1554.67, 1027.56 1555.33, 1032.66 1556.0, 1037.84 1556.67, 1043.1 1557.33, 1048.44 1558.0, 1053.87 1558.67, 1059.39 1559.33, 1064.99 1560.0, 1070.69 1560.67, 1076.48 1561.33, 1082.36 1562.0, 1088.34 1562.67, 1094.41 1563.33, 1100.58 1564.0, 1106.85 1564.67, 1113.22 1565.33, 1119.69 1566.0, 1126.27 1566.67, 1132.96 1567.33, 1139.75 1568.0, 1146.65 1568.67, 1153.67 1569.33, 1160.8 1570.0, 1168.04 1570.67, 1175.41 1571.33, 1182.89 1572.0, 1190.49 1572.67, 1198.22 1573.33, 1206.07 1574.0, 1214.05 1574.67, 1222.16 1575.33, 1230.41 1576.0, 1238.78 1576.67, 1247.3 1577.33, 1255.95 1578.0, 1264.75 1578.67, 1273.68 1579.33, 1282.77 1580.0, 1292.0 1580.67, 1301.38 1581.33, 1310.92 1582.0, 1320.61 1582.67, 1330.46 1583.33, 1340.47 1584.0, 1350.64 1584.67, 1360.98 1585.33, 1371.49 1586.0, 1382.18 1586.67, 1393.03 1587.33, 1404.07 1588.0, 1415.29 1588.67, 1426.68 1589.33, 1438.27 1590.0, 1450.05 1590.67, 1462.02 1591.33, 1474.18 1592.0, 1486.55 1592.67, 1499.11 1593.33, 1511.89 1594.0, 1524.87 1594.67, 1538.06 1595.33, 1551.47 1596.0, 1565.1 1596.67, 1578.96 1597.33, 1593.04 1598.0, 1607.35 1598.67, 1621.9 1599.33, 1636.68 1600.0, 1651.71 " fill="none" stroke="white" stroke-width="1.5" stroke-linejoin="round" stroke-opacity="1"/>

 </svg>