<svg version="1.1" 
 baseProfile="full" 
 width="1600" 
 height="1600" 
 xmlns="http://www.w3.org/2000/svg">
<rect x="0.0" y="0.0" width="1600" height="1600" fill="black" stroke="black" stroke-width="0" opacity="1"/>
<line x1="0.0" y1="0.0" x2="0.0" y2="1600.0" stroke="white" stroke-width="1" opacity="0.4" stroke-linecap="butt"/>
<line x1="160.0" y1="0.0" x2="160.0" y2="1600.0" stroke="white" stroke-width="1" opacity="0.4" stroke-linecap="butt"/>
<line x1="320.0" y1="0.0" x2="320.0" y2="1600.0" stroke="white" stroke-width="1" opacity="0.4" stroke-linecap="butt"/>
<line x1="480.0" y1="0.0" x2="480.0" y2="1600.0" stroke="white" stroke-width="1" opacity="0.4" stroke-linecap="butt"/>
<line x1="640.0" y1="0.0" x2="640.0" y2="1600.0" stroke="white" stroke-width="1" opacity="0.4" stroke-linecap="butt"/>
<line x1="800.0" y1="0.0" x2="800.0" y2="1600.0" stroke="white" stroke-width="1" opacity="0.4" stroke-linecap="butt"/>
<line x1="960.0" y1="0.0" x2="960.0" y2="1600.0" stroke="white" stroke-width="1" opacity="0.4" stroke-linecap="butt"/>
<line x1="1120.0" y1="0.0" x2="1120.0" y2="1600.0" stroke="white" stroke-width="1" opacity="0.4" stroke-linecap="butt"/>
<line x1="1280.0" y1="0.0" x2="1280.0" y2="1600.0" stroke="white" stroke-width="1" opacity="0.4" stroke-linecap="butt"/>
<line x1="1440.0" y1="0.0" x2="1440.0" y2="1600.0" stroke="white" stroke-width="1" opacity="0.4" stroke-linecap="butt"/>
<line x1="0.0" y1="0.0" x2="1600.0" y2="0.0" stroke="white" stroke-width="1" opacity="0.4" stroke-linecap="butt"/>
<line x1="0.0" y1="160.0" x2="1600.0" y2="160.0" stroke="white" stroke-width="1" opacity="0.4" stroke-linecap="butt"/>
<line x1="0.0" y1="320.0" x2="1600.0" y2="320.0" stroke="white" stroke-width="1" opacity="0.4" stroke-linecap="butt"/>
<line x1="0.0" y1="480.0" x2="1600.0" y2="480.0" stroke="white" stroke-width="1" opacity="0.4" stroke-linecap="butt"/>
<line x1="0.0" y1="640.0" x2="1600.0" y2="640.0" stroke="white" stroke-width="1" opacity="0.4" stroke-linecap="butt"/>
<line x1="0.0" y1="800.0" x2="1600.0" y2="800.0" stroke="white" stroke-width="1" opacity="0.4" stroke-linecap="butt"/>
<line x1="0.0" y1="960.0" x2="1600.0" y2="960.0" stroke="white" stroke-width="1" opacity="0.4" stroke-linecap="butt"/>
<line x1="0.0" y1="1120.0" x2="1600.0" y2="1120.0" stroke="white" stroke-width="1" opacity="0.4" stroke-linecap="butt"/>
<line x1="0.0" y1="1280.0" x2="1600.0" y2="1280.0" stroke="white" stroke-width="1" opacity="0.4" stroke-linecap="butt"/>
<line x1="0.0" y1="1440.0" x2="1600.0" y2="1440.0" stroke="white" stroke-width="1" opacity="0.4" stroke-linecap="butt"/>
<line x1="0.0" y1="800.0" x2="1600.0" y2="800.0" stroke="yellow" stroke-width="2.5" opacity="1" stroke-linecap="butt"/>
<line x1="800.0" y1="0.0" x2="800.0" y2="1600.0" stroke="yellow" stroke-width="2.5" opacity="1" stroke-linecap="butt"/>
<polygon points="1564.0 816.0, 1604.0 800.0, 1564.0 784.0, 1572.0 800.0" fill="yellow"/><polygon points="816.0 36.0, 800.0 -4.0, 784.0 36.0, 800.0 28.0" fill="yellow"/><polyline points="0.0, -94.77 0.67, -79.8 1.33, -65.07 2.0, -50.56 2.67, -36.27 3.33, -22.19 4.0, -8.34 4.67, 5.31 5.33, 18.75 6.0, 31.98 6.67, 45.01 7.33, 57.84 8.0, 70.48 8.67, 82.92 9.33, 95.17 10.0, 107.24 10.67, 119.12 11.33, 130.82 12.0, 142.34 12.67, 153.69 13.33, 164.86 14.0, 175.87 14.67, 186.7 15.33, 197.37 16.0, 207.88 16.67, 218.23 17.33, 228.42 18.0, 238.45 18.67, 248.33 19.33, 258.06 20.0, 267.65 20.67, 277.08 21.33, 286.38 22.0, 295.53 22.67, 304.54 23.33, 313.42 24.0, 322.16 24.67, 330.77 25.33, 339.25 26.0, 347.6 26.67, 355.82 27.33, 363.92 28.0, 371.89 28.67, 379.75 29.33, 387.48 30.0, 395.1 30.67, 402.6 31.33, 409.99 32.0, 417.27 32.67, 424.44 33.33, 431.5 34.0, 438.45 34.67, 445.3 35.33, 452.04 36.0, 458.69 36.67, 465.23 37.33, 471.67 38.0, 478.02 38.67, 484.27 39.33, 490.43 40.0, 496.5 40.67, 502.47 41.33, 508.36 42.0, 514.15 42.67, 519.86 43.33, 525.49 44.0, 531.03 44.67, 536.48 45.33, 541.86 46.0, 547.16 46.67, 552.37 47.33, 557.51 48.0, 562.57 48.67, 567.56 49.33, 572.47 50.0, 577.31 50.67, 582.08 51.33, 586.77 52.0, 591.4 52.67, 595.96 53.33, 600.45 54.0, 604.87 54.67, 609.23 55.33, 613.52 56.0, 617.75 56.67, 621.92 57.33, 626.03 58.0, 630.07 58.67, 634.06 59.33, 637.99 60.0, 641.86 60.67, 645.67 61.33, 649.43 62.0, 653.13 62.67, 656.78 63.33, 660.37 64.0, 663.91 64.67, 667.4 65.33, 670.84 66.0, 674.22 66.67, 677.56 67.33, 680.85 68.0, 684.09 68.67, 687.29 69.33, 690.44 70.0, 693.54 70.67, 696.59 71.33, 699.61 72.0, 702.57 72.67, 705.5 73.33, 708.38 74.0, 711.22 74.67, 714.02 75.33, 716.78 76.0, 719.5 76.67, 722.18 77.33, 724.82 78.0, 727.42 78.67, 729.99 79.33, 732.52 80.0, 735.01 80.67, 737.46 81.33, 739.88 82.0, 742.27 82.67, 744.62 83.33, 746.93 84.0, 749.22 84.67, 751.47 85.33, 753.68 86.0, 755.87 86.67, 758.02 87.33, 760.15 88.0, 762.24 88.67, 764.3 89.33, 766.33 90.0, 768.33 90.67, 770.31 91.33, 772.25 92.0, 774.17 92.67, 776.06 93.33, 777.92 94.0, 779.76 94.67, 781.56 95.33, 783.35 96.0, 785.1 96.67, 786.83 97.33, 788.54 98.0, 790.22 98.67, 791.88 99.33, 793.51 100.0, 795.12 100.67, 796.7 101.33, 798.26 102.0, 799.8 102.67, 801.32 103.33, 802.81 104.0, 804.28 104.67, 805.73 105.33, 807.16 106.0, 808.57 106.67, 809.96 107.33, 811.32 108.0, 812.67 108.67, 813.99 109.33, 815.3 110.0, 816.58 110.67, 817.85 111.33, 819.1 112.0, 820.33 112.67, 821.54 113.33, 822.73 114.0, 823.9 114.67, 825.06 115.33, 826.2 116.0, 827.32 116.67, 828.42 117.33, 829.51 118.0, 830.58 118.67, 831.63 119.33, 832.67 120.0, 833.69 120.67, 834.69 121.33, 835.68 122.0, 836.65 122.67, 837.6 123.33, 838.55 124.0, 839.47 124.67, 840.38 125.33, 841.28 126.0, 842.16 126.67, 843.02 127.33, 843.87 128.0, 844.71 128.67, 845.53 129.33, 846.34 130.0, 847.14 130.67, 847.92 131.33, 848.69 132.0, 849.44 132.67, 850.18 133.33, 850.91 134.0, 851.63 134.67, 852.33 135.33, 853.02 136.0, 853.7 136.67, 854.36 137.33, 855.01 138.0, 855.65 138.67, 856.28 139.33, 856.89 140.0, 857.5 140.67, 858.09 141.33, 858.67 142.0, 859.23 142.67, 859.79 143.33, 860.34 144.0, 860.87 144.67, 861.39 145.33, 861.9 146.0, 862.4 146.67, 862.89 147.33, 863.37 148.0, 863.84 148.67, 864.29 149.33, 864.74 150.0, 865.18 150.67, 865.6 151.33, 866.02 152.0, 866.42 152.67, 866.82 153.33, 867.2 154.0, 867.58 154.67, 867.94 155.33, 868.29 156.0, 868.64 156.67, 868.97 157.33, 869.3 158.0, 869.62 158.67, 869.92 159.33, 870.22 160.0, 870.51 160.67, 870.79 161.33, 871.05 162.0, 871.31 162.67, 871.56 163.33, 871.81 164.0, 872.04 164.67, 872.26 165.33, 872.48 166.0, 872.68 166.67, 872.88 167.33, 873.07 168.0, 873.25 168.67, 873.42 169.33, 873.59 170.0, 873.74 170.67, 873.89 171.33, 874.03 172.0, 874.15 172.67, 874.28 173.33, 874.39 174.0, 874.49 174.67, 874.59 175.33, 874.68 176.0, 874.76 176.67, 874.84 177.33, 874.9 178.0, 874.96 178.67, 875.01 179.33, 875.05 180.0, 875.08 180.67, 875.11 181.33, 875.13 182.0, 875.14 182.67, 875.15 183.33, 875.14 184.0, 875.13 184.67, 875.11 185.33, 875.09 186.0, 875.06 186.67, 875.02 187.33, 874.97 188.0, 874.91 188.67, 874.85 189.33, 874.78 190.0, 874.71 190.67, 874.63 191.33, 874.54 192.0, 874.44 192.67, 874.34 193.33, 874.23 194.0, 874.11 194.67, 873.99 195.33, 873.86 196.0, 873.72 196.67, 873.58 197.33, 873.43 198.0, 873.27 198.67, 873.11 199.33, 872.94 200.0, 872.76 200.67, 872.58 201.33, 872.39 202.0, 872.2 202.67, 872.0 203.33, 871.79 204.0, 871.58 204.67, 871.36 205.33, 871.13 206.0, 870.9 206.67, 870.67 207.33, 870.42 208.0, 870.17 208.67, 869.92 209.33, 869.66 210.0, 869.39 210.67, 869.12 211.33, 868.84 212.0, 868.56 212.67, 868.27 213.33, 867.97 214.0, 867.67 214.67, 867.36 215.33, 867.05 216.0, 866.73 216.67, 866.41 217.33, 866.08 218.0, 865.75 218.67, 865.41 219.33, 865.07 220.0, 864.72 220.67, 864.36 221.33, 864.0 222.0, 863.64 222.67, 863.27 223.33, 862.9 224.0, 862.52 224.67, 862.13 225.33, 861.74 226.0, 861.35 226.67, 860.95 227.33, 860.54 228.0, 860.14 228.67, 859.72 229.33, 859.3 230.0, 858.88 230.67, 858.45 231.33, 858.02 232.0, 857.59 232.67, 857.15 233.33, 856.7 234.0, 856.25 234.67, 855.8 235.33, 855.34 236.0, 854.88 236.67, 854.41 237.33, 853.94 238.0, 853.46 238.67, 852.98 239.33, 852.5 240.0, 852.01 240.67, 851.52 241.33, 851.03 242.0, 850.53 242.67, 850.03 243.33, 849.52 244.0, 849.01 244.67, 848.5 245.33, 847.98 246.0, 847.46 246.67, 846.93 247.33, 846.4 248.0, 845.87 248.67, 845.34 249.33, 844.8 250.0, 844.25 250.67, 843.71 251.33, 843.16 252.0, 842.61 252.67, 842.05 253.33, 841.49 254.0, 840.93 254.67, 840.37 255.33, 839.8 256.0, 839.23 256.67, 838.66 257.33, 838.08 258.0, 837.5 258.67, 836.92 259.33, 836.33 260.0, 835.75 260.67, 835.16 261.33, 834.56 262.0, 833.97 262.67, 833.37 263.33, 832.77 264.0, 832.17 264.67, 831.56 265.33, 830.96 266.0, 830.35 266.67, 829.73 267.33, 829.12 268.0, 828.5 268.67, 827.89 269.33, 827.26 270.0, 826.64 270.67, 826.02 271.33, 825.39 272.0, 824.76 272.67, 824.13 273.33, 823.5 274.0, 822.87 274.67, 822.23 275.33, 821.59 276.0, 820.96 276.67, 820.32 277.33, 819.67 278.0, 819.03 278.67, 818.39 279.33, 817.74 280.0, 817.09 280.67, 816.44 281.33, 815.79 282.0, 815.14 282.67, 814.49 283.33, 813.84 284.0, 813.18 284.67, 812.53 285.33, 811.87 286.0, 811.22 286.67, 810.56 287.33, 809.9 288.0, 809.24 288.67, 808.58 289.33, 807.92 290.0, 807.26 290.67, 806.59 291.33, 805.93 292.0, 805.27 292.67, 804.61 293.33, 803.94 294.0, 803.28 294.67, 802.61 295.33, 801.95 296.0, 801.28 296.67, 800.62 297.33, 799.95 298.0, 799.29 298.67, 798.62 299.33, 797.96 300.0, 797.29 300.67, 796.63 301.33, 795.96 302.0, 795.3 302.67, 794.64 303.33, 793.97 304.0, 793.31 304.67, 792.65 305.33, 791.98 306.0, 791.32 306.67, 790.66 307.33, 790.0 308.0, 789.34 308.67, 788.68 309.33, 788.02 310.0, 787.36 310.67, 786.71 311.33, 786.05 312.0, 785.4 312.67, 784.74 313.33, 784.09 314.0, 783.44 314.67, 782.79 315.33, 782.14 316.0, 781.49 316.67, 780.84 317.33, 780.19 318.0, 779.55 318.67, 778.91 319.33, 778.26 320.0, 777.62 320.67, 776.99 321.33, 776.35 322.0, 775.71 322.67, 775.08 323.33, 774.45 324.0, 773.82 324.67, 773.19 325.33, 772.56 326.0, 771.94 326.67, 771.31 327.33, 770.69 328.0, 770.07 328.67, 769.46 329.33, 768.84 330.0, 768.23 330.67, 767.62 331.33, 767.01 332.0, 766.41 332.67, 765.8 333.33, 765.2 334.0, 764.6 334.67, 764.01 335.33, 763.41 336.0, 762.82 336.67, 762.23 337.33, 761.65 338.0, 761.06 338.67, 760.48 339.33, 759.9 340.0, 759.33 340.67, 758.76 341.33, 758.19 342.0, 757.62 342.67, 757.06 343.33, 756.5 344.0, 755.94 344.67, 755.38 345.33, 754.83 346.0, 754.28 346.67, 753.74 347.33, 753.2 348.0, 752.66 348.67, 752.12 349.33, 751.59 350.0, 751.06 350.67, 750.53 351.33, 750.01 352.0, 749.49 352.67, 748.98 353.33, 748.47 354.0, 747.96 354.67, 747.45 355.33, 746.95 356.0, 746.46 356.67, 745.96 357.33, 745.47 358.0, 744.99 358.67, 744.51 359.33, 744.03 360.0, 743.55 360.67, 743.08 361.33, 742.62 362.0, 742.15 362.67, 741.7 363.33, 741.24 364.0, 740.79 364.67, 740.34 365.33, 739.9 366.0, 739.46 366.67, 739.03 367.33, 738.6 368.0, 738.18 368.67, 737.76 369.33, 737.34 370.0, 736.93 370.67, 736.52 371.33, 736.12 372.0, 735.72 372.67, 735.32 373.33, 734.93 374.0, 734.55 374.67, 734.17 375.33, 733.79 376.0, 733.42 376.67, 733.05 377.33, 732.69 378.0, 732.33 378.67, 731.98 379.33, 731.63 380.0, 731.28 380.67, 730.94 381.33, 730.61 382.0, 730.28 382.67, 729.96 383.33, 729.64 384.0, 729.32 384.67, 729.01 385.33, 728.71 386.0, 728.41 386.67, 728.11 387.33, 727.82 388.0, 727.54 388.67, 727.26 389.33, 726.98 390.0, 726.71 390.67, 726.45 391.33, 726.19 392.0, 725.93 392.67, 725.68 393.33, 725.44 394.0, 725.2 394.67, 724.97 395.33, 724.74 396.0, 724.52 396.67, 724.3 397.33, 724.08 398.0, 723.88 398.67, 723.67 399.33, 723.48 400.0, 723.29 400.67, 723.1 401.33, 722.92 402.0, 722.74 402.67, 722.57 403.33, 722.41 404.0, 722.25 404.67, 722.09 405.33, 721.94 406.0, 721.8 406.67, 721.66 407.33, 721.53 408.0, 721.4 408.67, 721.28 409.33, 721.17 410.0, 721.06 410.67, 720.95 411.33, 720.85 412.0, 720.76 412.67, 720.67 413.33, 720.58 414.0, 720.51 414.67, 720.43 415.33, 720.37 416.0, 720.31 416.67, 720.25 417.33, 720.2 418.0, 720.16 418.67, 720.12 419.33, 720.08 420.0, 720.06 420.67, 720.03 421.33, 720.02 422.0, 720.01 422.67, 720.0 423.33, 720.0 424.0, 720.01 424.67, 720.02 425.33, 720.03 426.0, 720.06 426.67, 720.08 427.33, 720.12 428.0, 720.16 428.67, 720.2 429.33, 720.25 430.0, 720.31 430.67, 720.37 431.33, 720.43 432.0, 720.5 432.67, 720.58 433.33, 720.67 434.0, 720.75 434.67, 720.85 435.33, 720.95 436.0, 721.05 436.67, 721.16 437.33, 721.28 438.0, 721.4 438.67, 721.53 439.33, 721.66 440.0, 721.8 440.67, 721.94 441.33, 722.09 442.0, 722.24 442.67, 722.4 443.33, 722.57 444.0, 722.74 444.67, 722.91 445.33, 723.09 446.0, 723.28 446.67, 723.47 447.33, 723.67 448.0, 723.87 448.67, 724.08 449.33, 724.29 450.0, 724.51 450.67, 724.73 451.33, 724.96 452.0, 725.2 452.67, 725.43 453.33, 725.68 454.0, 725.93 454.67, 726.18 455.33, 726.44 456.0, 726.71 456.67, 726.98 457.33, 727.25 458.0, 727.53 458.67, 727.82 459.33, 728.11 460.0, 728.4 460.67, 728.7 461.33, 729.01 462.0, 729.32 462.67, 729.63 463.33, 729.95 464.0, 730.27 464.67, 730.6 465.33, 730.94 466.0, 731.28 466.67, 731.62 467.33, 731.97 468.0, 732.32 468.67, 732.68 469.33, 733.04 470.0, 733.41 470.67, 733.78 471.33, 734.16 472.0, 734.54 472.67, 734.92 473.33, 735.31 474.0, 735.71 474.67, 736.11 475.33, 736.51 476.0, 736.92 476.67, 737.33 477.33, 737.75 478.0, 738.17 478.67, 738.59 479.33, 739.02 480.0, 739.46 480.67, 739.89 481.33, 740.34 482.0, 740.78 482.67, 741.23 483.33, 741.69 484.0, 742.14 484.67, 742.61 485.33, 743.07 486.0, 743.54 486.67, 744.02 487.33, 744.5 488.0, 744.98 488.67, 745.46 489.33, 745.95 490.0, 746.45 490.67, 746.94 491.33, 747.45 492.0, 747.95 492.67, 748.46 493.33, 748.97 494.0, 749.48 494.67, 750.0 495.33, 750.53 496.0, 751.05 496.67, 751.58 497.33, 752.11 498.0, 752.65 498.67, 753.19 499.33, 753.73 500.0, 754.28 500.67, 754.82 501.33, 755.38 502.0, 755.93 502.67, 756.49 503.33, 757.05 504.0, 757.61 504.67, 758.18 505.33, 758.75 506.0, 759.32 506.67, 759.9 507.33, 760.48 508.0, 761.06 508.67, 761.64 509.33, 762.23 510.0, 762.82 510.67, 763.41 511.33, 764.0 512.0, 764.6 512.67, 765.2 513.33, 765.8 514.0, 766.4 514.67, 767.01 515.33, 767.62 516.0, 768.23 516.67, 768.84 517.33, 769.46 518.0, 770.07 518.67, 770.69 519.33, 771.31 520.0, 771.94 520.67, 772.56 521.33, 773.19 522.0, 773.82 522.67, 774.45 523.33, 775.08 524.0, 775.72 524.67, 776.35 525.33, 776.99 526.0, 777.63 526.67, 778.27 527.33, 778.91 528.0, 779.56 528.67, 780.2 529.33, 780.85 530.0, 781.5 530.67, 782.15 531.33, 782.8 532.0, 783.45 532.67, 784.1 533.33, 784.75 534.0, 785.41 534.67, 786.07 535.33, 786.72 536.0, 787.38 536.67, 788.04 537.33, 788.7 538.0, 789.36 538.67, 790.02 539.33, 790.68 540.0, 791.34 540.67, 792.01 541.33, 792.67 542.0, 793.34 542.67, 794.0 543.33, 794.66 544.0, 795.33 544.67, 796.0 545.33, 796.66 546.0, 797.33 546.67, 797.99 547.33, 798.66 548.0, 799.33 548.67, 799.99 549.33, 800.66 550.0, 801.33 550.67, 801.99 551.33, 802.66 552.0, 803.33 552.67, 803.99 553.33, 804.66 554.0, 805.32 554.67, 805.99 555.33, 806.65 556.0, 807.32 556.67, 807.98 557.33, 808.64 558.0, 809.31 558.67, 809.97 559.33, 810.63 560.0, 811.29 560.67, 811.95 561.33, 812.61 562.0, 813.27 562.67, 813.92 563.33, 814.58 564.0, 815.23 564.67, 815.89 565.33, 816.54 566.0, 817.19 566.67, 817.84 567.33, 818.49 568.0, 819.14 568.67, 819.79 569.33, 820.43 570.0, 821.08 570.67, 821.72 571.33, 822.36 572.0, 823.0 572.67, 823.64 573.33, 824.27 574.0, 824.91 574.67, 825.54 575.33, 826.17 576.0, 826.8 576.67, 827.43 577.33, 828.05 578.0, 828.67 578.67, 829.3 579.33, 829.92 580.0, 830.53 580.67, 831.15 581.33, 831.76 582.0, 832.37 582.67, 832.98 583.33, 833.59 584.0, 834.19 584.67, 834.79 585.33, 835.39 586.0, 835.99 586.67, 836.58 587.33, 837.17 588.0, 837.76 588.67, 838.35 589.33, 838.93 590.0, 839.51 590.67, 840.09 591.33, 840.67 592.0, 841.24 592.67, 841.81 593.33, 842.38 594.0, 842.94 594.67, 843.5 595.33, 844.06 596.0, 844.61 596.67, 845.17 597.33, 845.72 598.0, 846.26 598.67, 846.8 599.33, 847.34 600.0, 847.88 600.67, 848.41 601.33, 848.94 602.0, 849.46 602.67, 849.99 603.33, 850.51 604.0, 851.02 604.67, 851.53 605.33, 852.04 606.0, 852.55 606.67, 853.05 607.33, 853.54 608.0, 854.04 608.67, 854.53 609.33, 855.01 610.0, 855.49 610.67, 855.97 611.33, 856.45 612.0, 856.92 612.67, 857.38 613.33, 857.85 614.0, 858.31 614.67, 858.76 615.33, 859.21 616.0, 859.66 616.67, 860.1 617.33, 860.54 618.0, 860.97 618.67, 861.4 619.33, 861.82 620.0, 862.25 620.67, 862.66 621.33, 863.07 622.0, 863.48 622.67, 863.89 623.33, 864.29 624.0, 864.68 624.67, 865.07 625.33, 865.46 626.0, 865.84 626.67, 866.21 627.33, 866.58 628.0, 866.95 628.67, 867.31 629.33, 867.67 630.0, 868.03 630.67, 868.37 631.33, 868.72 632.0, 869.06 632.67, 869.39 633.33, 869.72 634.0, 870.04 634.67, 870.36 635.33, 870.68 636.0, 870.99 636.67, 871.29 637.33, 871.59 638.0, 871.89 638.67, 872.18 639.33, 872.46 640.0, 872.74 640.67, 873.02 641.33, 873.29 642.0, 873.55 642.67, 873.81 643.33, 874.07 644.0, 874.32 644.67, 874.56 645.33, 874.8 646.0, 875.03 646.67, 875.26 647.33, 875.49 648.0, 875.7 648.67, 875.92 649.33, 876.12 650.0, 876.33 650.67, 876.52 651.33, 876.72 652.0, 876.9 652.67, 877.08 653.33, 877.26 654.0, 877.43 654.67, 877.59 655.33, 877.75 656.0, 877.91 656.67, 878.06 657.33, 878.2 658.0, 878.34 658.67, 878.47 659.33, 878.6 660.0, 878.72 660.67, 878.83 661.33, 878.95 662.0, 879.05 662.67, 879.15 663.33, 879.24 664.0, 879.33 664.67, 879.42 665.33, 879.49 666.0, 879.57 666.67, 879.63 667.33, 879.69 668.0, 879.75 668.67, 879.8 669.33, 879.84 670.0, 879.88 670.67, 879.92 671.33, 879.94 672.0, 879.97 672.67, 879.98 673.33, 879.99 674.0, 880.0 674.67, 880.0 675.33, 879.99 676.0, 879.98 676.67, 879.97 677.33, 879.94 678.0, 879.92 678.67, 879.88 679.33, 879.84 680.0, 879.8 680.67, 879.75 681.33, 879.69 682.0, 879.63 682.67, 879.57 683.33, 879.49 684.0, 879.42 684.67, 879.33 685.33, 879.25 686.0, 879.15 686.67, 879.05 687.33, 878.95 688.0, 878.84 688.67, 878.72 689.33, 878.6 690.0, 878.47 690.67, 878.34 691.33, 878.2 692.0, 878.06 692.67, 877.91 693.33, 877.76 694.0, 877.6 694.67, 877.43 695.33, 877.26 696.0, 877.08 696.67, 876.9 697.33, 876.72 698.0, 876.53 698.67, 876.33 699.33, 876.13 700.0, 875.92 700.67, 875.71 701.33, 875.49 702.0, 875.26 702.67, 875.04 703.33, 874.8 704.0, 874.56 704.67, 874.32 705.33, 874.07 706.0, 873.82 706.67, 873.56 707.33, 873.29 708.0, 873.02 708.67, 872.75 709.33, 872.47 710.0, 872.18 710.67, 871.89 711.33, 871.6 712.0, 871.3 712.67, 870.99 713.33, 870.68 714.0, 870.37 714.67, 870.05 715.33, 869.72 716.0, 869.39 716.67, 869.06 717.33, 868.72 718.0, 868.38 718.67, 868.03 719.33, 867.68 720.0, 867.32 720.67, 866.96 721.33, 866.59 722.0, 866.22 722.67, 865.84 723.33, 865.46 724.0, 865.07 724.67, 864.68 725.33, 864.29 726.0, 863.89 726.67, 863.49 727.33, 863.08 728.0, 862.67 728.67, 862.25 729.33, 861.83 730.0, 861.4 730.67, 860.97 731.33, 860.54 732.0, 860.1 732.67, 859.66 733.33, 859.21 734.0, 858.76 734.67, 858.31 735.33, 857.85 736.0, 857.39 736.67, 856.92 737.33, 856.45 738.0, 855.98 738.67, 855.5 739.33, 855.02 740.0, 854.53 740.67, 854.04 741.33, 853.55 742.0, 853.05 742.67, 852.55 743.33, 852.05 744.0, 851.54 744.67, 851.03 745.33, 850.51 746.0, 849.99 746.67, 849.47 747.33, 848.94 748.0, 848.41 748.67, 847.88 749.33, 847.35 750.0, 846.81 750.67, 846.27 751.33, 845.72 752.0, 845.17 752.67, 844.62 753.33, 844.06 754.0, 843.51 754.67, 842.95 755.33, 842.38 756.0, 841.81 756.67, 841.25 757.33, 840.67 758.0, 840.1 758.67, 839.52 759.33, 838.94 760.0, 838.35 760.67, 837.77 761.33, 837.18 762.0, 836.59 762.67, 835.99 763.33, 835.4 764.0, 834.8 764.67, 834.2 765.33, 833.59 766.0, 832.99 766.67, 832.38 767.33, 831.77 768.0, 831.15 768.67, 830.54 769.33, 829.92 770.0, 829.3 770.67, 828.68 771.33, 828.06 772.0, 827.43 772.67, 826.8 773.33, 826.18 774.0, 825.54 774.67, 824.91 775.33, 824.28 776.0, 823.64 776.67, 823.0 777.33, 822.36 778.0, 821.72 778.67, 821.08 779.33, 820.44 780.0, 819.79 780.67, 819.15 781.33, 818.5 782.0, 817.85 782.67, 817.2 783.33, 816.55 784.0, 815.89 784.67, 815.24 785.33, 814.58 786.0, 813.93 786.67, 813.27 787.33, 812.61 788.0, 811.96 788.67, 811.3 789.33, 810.64 790.0, 809.97 790.67, 809.31 791.33, 808.65 792.0, 807.99 792.67, 807.32 793.33, 806.66 794.0, 805.99 794.67, 805.33 795.33, 804.66 796.0, 804.0 796.67, 803.33 797.33, 802.67 798.0, 802.0 798.67, 801.33 799.33, 800.67 800.0, 800.0 800.67, 799.33 801.33, 798.67 802.0, 798.0 802.67, 797.33 803.33, 796.67 804.0, 796.0 804.67, 795.34 805.33, 794.67 806.0, 794.01 806.67, 793.34 807.33, 792.68 808.0, 792.01 808.67, 791.35 809.33, 790.69 810.0, 790.03 810.67, 789.36 811.33, 788.7 812.0, 788.04 812.67, 787.39 813.33, 786.73 814.0, 786.07 814.67, 785.42 815.33, 784.76 816.0, 784.11 816.67, 783.45 817.33, 782.8 818.0, 782.15 818.67, 781.5 819.33, 780.85 820.0, 780.21 820.67, 779.56 821.33, 778.92 822.0, 778.28 822.67, 777.64 823.33, 777.0 824.0, 776.36 824.67, 775.72 825.33, 775.09 826.0, 774.46 826.67, 773.82 827.33, 773.2 828.0, 772.57 828.67, 771.94 829.33, 771.32 830.0, 770.7 830.67, 770.08 831.33, 769.46 832.0, 768.85 832.67, 768.23 833.33, 767.62 834.0, 767.01 834.67, 766.41 835.33, 765.8 836.0, 765.2 836.67, 764.6 837.33, 764.01 838.0, 763.41 838.67, 762.82 839.33, 762.23 840.0, 761.65 840.67, 761.06 841.33, 760.48 842.0, 759.9 842.67, 759.33 843.33, 758.75 844.0, 758.19 844.67, 757.62 845.33, 757.05 846.0, 756.49 846.67, 755.94 847.33, 755.38 848.0, 754.83 848.67, 754.28 849.33, 753.73 850.0, 753.19 850.67, 752.65 851.33, 752.12 852.0, 751.59 852.67, 751.06 853.33, 750.53 854.0, 750.01 854.67, 749.49 855.33, 748.97 856.0, 748.46 856.67, 747.95 857.33, 747.45 858.0, 746.95 858.67, 746.45 859.33, 745.96 860.0, 745.47 860.67, 744.98 861.33, 744.5 862.0, 744.02 862.67, 743.55 863.33, 743.08 864.0, 742.61 864.67, 742.15 865.33, 741.69 866.0, 741.24 866.67, 740.79 867.33, 740.34 868.0, 739.9 868.67, 739.46 869.33, 739.03 870.0, 738.6 870.67, 738.17 871.33, 737.75 872.0, 737.33 872.67, 736.92 873.33, 736.51 874.0, 736.11 874.67, 735.71 875.33, 735.32 876.0, 734.93 876.67, 734.54 877.33, 734.16 878.0, 733.78 878.67, 733.41 879.33, 733.04 880.0, 732.68 880.67, 732.32 881.33, 731.97 882.0, 731.62 882.67, 731.28 883.33, 730.94 884.0, 730.61 884.67, 730.28 885.33, 729.95 886.0, 729.63 886.67, 729.32 887.33, 729.01 888.0, 728.7 888.67, 728.4 889.33, 728.11 890.0, 727.82 890.67, 727.53 891.33, 727.25 892.0, 726.98 892.67, 726.71 893.33, 726.44 894.0, 726.18 894.67, 725.93 895.33, 725.68 896.0, 725.44 896.67, 725.2 897.33, 724.96 898.0, 724.74 898.67, 724.51 899.33, 724.29 900.0, 724.08 900.67, 723.87 901.33, 723.67 902.0, 723.47 902.67, 723.28 903.33, 723.1 904.0, 722.92 904.67, 722.74 905.33, 722.57 906.0, 722.4 906.67, 722.24 907.33, 722.09 908.0, 721.94 908.67, 721.8 909.33, 721.66 910.0, 721.53 910.67, 721.4 911.33, 721.28 912.0, 721.16 912.67, 721.05 913.33, 720.95 914.0, 720.85 914.67, 720.75 915.33, 720.67 916.0, 720.58 916.67, 720.51 917.33, 720.43 918.0, 720.37 918.67, 720.31 919.33, 720.25 920.0, 720.2 920.67, 720.16 921.33, 720.12 922.0, 720.08 922.67, 720.06 923.33, 720.03 924.0, 720.02 924.67, 720.01 925.33, 720.0 926.0, 720.0 926.67, 720.01 927.33, 720.02 928.0, 720.03 928.67, 720.06 929.33, 720.08 930.0, 720.12 930.67, 720.16 931.33, 720.2 932.0, 720.25 932.67, 720.31 933.33, 720.37 934.0, 720.43 934.67, 720.51 935.33, 720.58 936.0, 720.67 936.67, 720.76 937.33, 720.85 938.0, 720.95 938.67, 721.05 939.33, 721.17 940.0, 721.28 940.67, 721.4 941.33, 721.53 942.0, 721.66 942.67, 721.8 943.33, 721.94 944.0, 722.09 944.67, 722.25 945.33, 722.41 946.0, 722.57 946.67, 722.74 947.33, 722.92 948.0, 723.1 948.67, 723.28 949.33, 723.48 950.0, 723.67 950.67, 723.88 951.33, 724.08 952.0, 724.3 952.67, 724.51 953.33, 724.74 954.0, 724.97 954.67, 725.2 955.33, 725.44 956.0, 725.68 956.67, 725.93 957.33, 726.19 958.0, 726.45 958.67, 726.71 959.33, 726.98 960.0, 727.26 960.67, 727.54 961.33, 727.82 962.0, 728.11 962.67, 728.41 963.33, 728.71 964.0, 729.01 964.67, 729.32 965.33, 729.64 966.0, 729.96 966.67, 730.28 967.33, 730.61 968.0, 730.94 968.67, 731.28 969.33, 731.63 970.0, 731.97 970.67, 732.33 971.33, 732.69 972.0, 733.05 972.67, 733.42 973.33, 733.79 974.0, 734.16 974.67, 734.54 975.33, 734.93 976.0, 735.32 976.67, 735.71 977.33, 736.11 978.0, 736.52 978.67, 736.93 979.33, 737.34 980.0, 737.75 980.67, 738.18 981.33, 738.6 982.0, 739.03 982.67, 739.46 983.33, 739.9 984.0, 740.34 984.67, 740.79 985.33, 741.24 986.0, 741.69 986.67, 742.15 987.33, 742.62 988.0, 743.08 988.67, 743.55 989.33, 744.03 990.0, 744.51 990.67, 744.99 991.33, 745.47 992.0, 745.96 992.67, 746.46 993.33, 746.95 994.0, 747.45 994.67, 747.96 995.33, 748.47 996.0, 748.98 996.67, 749.49 997.33, 750.01 998.0, 750.54 998.67, 751.06 999.33, 751.59 1000.0, 752.12 1000.67, 752.66 1001.33, 753.2 1002.0, 753.74 1002.67, 754.28 1003.33, 754.83 1004.0, 755.39 1004.67, 755.94 1005.33, 756.5 1006.0, 757.06 1006.67, 757.62 1007.33, 758.19 1008.0, 758.76 1008.67, 759.33 1009.33, 759.91 1010.0, 760.49 1010.67, 761.07 1011.33, 761.65 1012.0, 762.24 1012.67, 762.83 1013.33, 763.42 1014.0, 764.01 1014.67, 764.61 1015.33, 765.21 1016.0, 765.81 1016.67, 766.41 1017.33, 767.02 1018.0, 767.63 1018.67, 768.24 1019.33, 768.85 1020.0, 769.47 1020.67, 770.08 1021.33, 770.7 1022.0, 771.33 1022.67, 771.95 1023.33, 772.57 1024.0, 773.2 1024.67, 773.83 1025.33, 774.46 1026.0, 775.09 1026.67, 775.73 1027.33, 776.36 1028.0, 777.0 1028.67, 777.64 1029.33, 778.28 1030.0, 778.92 1030.67, 779.57 1031.33, 780.21 1032.0, 780.86 1032.67, 781.51 1033.33, 782.16 1034.0, 782.81 1034.67, 783.46 1035.33, 784.11 1036.0, 784.77 1036.67, 785.42 1037.33, 786.08 1038.0, 786.73 1038.67, 787.39 1039.33, 788.05 1040.0, 788.71 1040.67, 789.37 1041.33, 790.03 1042.0, 790.69 1042.67, 791.36 1043.33, 792.02 1044.0, 792.68 1044.67, 793.35 1045.33, 794.01 1046.0, 794.68 1046.67, 795.34 1047.33, 796.01 1048.0, 796.67 1048.67, 797.34 1049.33, 798.01 1050.0, 798.67 1050.67, 799.34 1051.33, 800.01 1052.0, 800.67 1052.67, 801.34 1053.33, 802.01 1054.0, 802.67 1054.67, 803.34 1055.33, 804.0 1056.0, 804.67 1056.67, 805.34 1057.33, 806.0 1058.0, 806.66 1058.67, 807.33 1059.33, 807.99 1060.0, 808.66 1060.67, 809.32 1061.33, 809.98 1062.0, 810.64 1062.67, 811.3 1063.33, 811.96 1064.0, 812.62 1064.67, 813.28 1065.33, 813.93 1066.0, 814.59 1066.67, 815.25 1067.33, 815.9 1068.0, 816.55 1068.67, 817.2 1069.33, 817.85 1070.0, 818.5 1070.67, 819.15 1071.33, 819.8 1072.0, 820.44 1072.67, 821.09 1073.33, 821.73 1074.0, 822.37 1074.67, 823.01 1075.33, 823.65 1076.0, 824.28 1076.67, 824.92 1077.33, 825.55 1078.0, 826.18 1078.67, 826.81 1079.33, 827.44 1080.0, 828.06 1080.67, 828.69 1081.33, 829.31 1082.0, 829.93 1082.67, 830.54 1083.33, 831.16 1084.0, 831.77 1084.67, 832.38 1085.33, 832.99 1086.0, 833.6 1086.67, 834.2 1087.33, 834.8 1088.0, 835.4 1088.67, 836.0 1089.33, 836.59 1090.0, 837.18 1090.67, 837.77 1091.33, 838.36 1092.0, 838.94 1092.67, 839.52 1093.33, 840.1 1094.0, 840.68 1094.67, 841.25 1095.33, 841.82 1096.0, 842.39 1096.67, 842.95 1097.33, 843.51 1098.0, 844.07 1098.67, 844.62 1099.33, 845.18 1100.0, 845.72 1100.67, 846.27 1101.33, 846.81 1102.0, 847.35 1102.67, 847.89 1103.33, 848.42 1104.0, 848.95 1104.67, 849.47 1105.33, 850.0 1106.0, 850.52 1106.67, 851.03 1107.33, 851.54 1108.0, 852.05 1108.67, 852.55 1109.33, 853.06 1110.0, 853.55 1110.67, 854.05 1111.33, 854.54 1112.0, 855.02 1112.67, 855.5 1113.33, 855.98 1114.0, 856.46 1114.67, 856.93 1115.33, 857.39 1116.0, 857.86 1116.67, 858.31 1117.33, 858.77 1118.0, 859.22 1118.67, 859.66 1119.33, 860.11 1120.0, 860.54 1120.67, 860.98 1121.33, 861.41 1122.0, 861.83 1122.67, 862.25 1123.33, 862.67 1124.0, 863.08 1124.67, 863.49 1125.33, 863.89 1126.0, 864.29 1126.67, 864.69 1127.33, 865.08 1128.0, 865.46 1128.67, 865.84 1129.33, 866.22 1130.0, 866.59 1130.67, 866.96 1131.33, 867.32 1132.0, 867.68 1132.67, 868.03 1133.33, 868.38 1134.0, 868.72 1134.67, 869.06 1135.33, 869.4 1136.0, 869.73 1136.67, 870.05 1137.33, 870.37 1138.0, 870.68 1138.67, 870.99 1139.33, 871.3 1140.0, 871.6 1140.67, 871.89 1141.33, 872.18 1142.0, 872.47 1142.67, 872.75 1143.33, 873.02 1144.0, 873.29 1144.67, 873.56 1145.33, 873.82 1146.0, 874.07 1146.67, 874.32 1147.33, 874.57 1148.0, 874.8 1148.67, 875.04 1149.33, 875.27 1150.0, 875.49 1150.67, 875.71 1151.33, 875.92 1152.0, 876.13 1152.67, 876.33 1153.33, 876.53 1154.0, 876.72 1154.67, 876.91 1155.33, 877.09 1156.0, 877.26 1156.67, 877.43 1157.33, 877.6 1158.0, 877.76 1158.67, 877.91 1159.33, 878.06 1160.0, 878.2 1160.67, 878.34 1161.33, 878.47 1162.0, 878.6 1162.67, 878.72 1163.33, 878.84 1164.0, 878.95 1164.67, 879.05 1165.33, 879.15 1166.0, 879.25 1166.67, 879.33 1167.33, 879.42 1168.0, 879.5 1168.67, 879.57 1169.33, 879.63 1170.0, 879.69 1170.67, 879.75 1171.33, 879.8 1172.0, 879.84 1172.67, 879.88 1173.33, 879.92 1174.0, 879.94 1174.67, 879.97 1175.33, 879.98 1176.0, 879.99 1176.67, 880.0 1177.33, 880.0 1178.0, 879.99 1178.67, 879.98 1179.33, 879.97 1180.0, 879.94 1180.67, 879.92 1181.33, 879.88 1182.0, 879.84 1182.67, 879.8 1183.33, 879.75 1184.0, 879.69 1184.67, 879.63 1185.33, 879.57 1186.0, 879.49 1186.67, 879.42 1187.33, 879.33 1188.0, 879.24 1188.67, 879.15 1189.33, 879.05 1190.0, 878.94 1190.67, 878.83 1191.33, 878.72 1192.0, 878.6 1192.67, 878.47 1193.33, 878.34 1194.0, 878.2 1194.67, 878.06 1195.33, 877.91 1196.0, 877.75 1196.67, 877.59 1197.33, 877.43 1198.0, 877.26 1198.67, 877.08 1199.33, 876.9 1200.0, 876.71 1200.67, 876.52 1201.33, 876.33 1202.0, 876.12 1202.67, 875.92 1203.33, 875.7 1204.0, 875.48 1204.67, 875.26 1205.33, 875.03 1206.0, 874.8 1206.67, 874.56 1207.33, 874.32 1208.0, 874.07 1208.67, 873.81 1209.33, 873.55 1210.0, 873.29 1210.67, 873.02 1211.33, 872.74 1212.0, 872.46 1212.67, 872.18 1213.33, 871.89 1214.0, 871.59 1214.67, 871.29 1215.33, 870.99 1216.0, 870.68 1216.67, 870.36 1217.33, 870.04 1218.0, 869.72 1218.67, 869.39 1219.33, 869.06 1220.0, 868.72 1220.67, 868.37 1221.33, 868.02 1222.0, 867.67 1222.67, 867.31 1223.33, 866.95 1224.0, 866.58 1224.67, 866.21 1225.33, 865.83 1226.0, 865.45 1226.67, 865.07 1227.33, 864.68 1228.0, 864.28 1228.67, 863.88 1229.33, 863.48 1230.0, 863.07 1230.67, 862.66 1231.33, 862.24 1232.0, 861.82 1232.67, 861.4 1233.33, 860.97 1234.0, 860.54 1234.67, 860.1 1235.33, 859.66 1236.0, 859.21 1236.67, 858.76 1237.33, 858.3 1238.0, 857.85 1238.67, 857.38 1239.33, 856.92 1240.0, 856.45 1240.67, 855.97 1241.33, 855.49 1242.0, 855.01 1242.67, 854.53 1243.33, 854.04 1244.0, 853.54 1244.67, 853.05 1245.33, 852.55 1246.0, 852.04 1246.67, 851.53 1247.33, 851.02 1248.0, 850.51 1248.67, 849.99 1249.33, 849.47 1250.0, 848.94 1250.67, 848.41 1251.33, 847.88 1252.0, 847.34 1252.67, 846.8 1253.33, 846.26 1254.0, 845.72 1254.67, 845.17 1255.33, 844.62 1256.0, 844.06 1256.67, 843.5 1257.33, 842.94 1258.0, 842.38 1258.67, 841.81 1259.33, 841.24 1260.0, 840.67 1260.67, 840.1 1261.33, 839.52 1262.0, 838.94 1262.67, 838.35 1263.33, 837.77 1264.0, 837.18 1264.67, 836.59 1265.33, 835.99 1266.0, 835.4 1266.67, 834.8 1267.33, 834.2 1268.0, 833.59 1268.67, 832.99 1269.33, 832.38 1270.0, 831.77 1270.67, 831.16 1271.33, 830.54 1272.0, 829.93 1272.67, 829.31 1273.33, 828.69 1274.0, 828.06 1274.67, 827.44 1275.33, 826.81 1276.0, 826.18 1276.67, 825.55 1277.33, 824.92 1278.0, 824.29 1278.67, 823.65 1279.33, 823.01 1280.0, 822.38 1280.67, 821.74 1281.33, 821.09 1282.0, 820.45 1282.67, 819.81 1283.33, 819.16 1284.0, 818.51 1284.67, 817.86 1285.33, 817.21 1286.0, 816.56 1286.67, 815.91 1287.33, 815.26 1288.0, 814.6 1288.67, 813.95 1289.33, 813.29 1290.0, 812.64 1290.67, 811.98 1291.33, 811.32 1292.0, 810.66 1292.67, 810.0 1293.33, 809.34 1294.0, 808.68 1294.67, 808.02 1295.33, 807.35 1296.0, 806.69 1296.67, 806.03 1297.33, 805.36 1298.0, 804.7 1298.67, 804.04 1299.33, 803.37 1300.0, 802.71 1300.67, 802.04 1301.33, 801.38 1302.0, 800.71 1302.67, 800.05 1303.33, 799.38 1304.0, 798.72 1304.67, 798.05 1305.33, 797.39 1306.0, 796.72 1306.67, 796.06 1307.33, 795.39 1308.0, 794.73 1308.67, 794.07 1309.33, 793.41 1310.0, 792.74 1310.67, 792.08 1311.33, 791.42 1312.0, 790.76 1312.67, 790.1 1313.33, 789.44 1314.0, 788.78 1314.67, 788.13 1315.33, 787.47 1316.0, 786.82 1316.67, 786.16 1317.33, 785.51 1318.0, 784.86 1318.67, 784.21 1319.33, 783.56 1320.0, 782.91 1320.67, 782.26 1321.33, 781.61 1322.0, 780.97 1322.67, 780.33 1323.33, 779.68 1324.0, 779.04 1324.67, 778.41 1325.33, 777.77 1326.0, 777.13 1326.67, 776.5 1327.33, 775.87 1328.0, 775.24 1328.67, 774.61 1329.33, 773.98 1330.0, 773.36 1330.67, 772.74 1331.33, 772.11 1332.0, 771.5 1332.67, 770.88 1333.33, 770.27 1334.0, 769.65 1334.67, 769.04 1335.33, 768.44 1336.0, 767.83 1336.67, 767.23 1337.33, 766.63 1338.0, 766.03 1338.67, 765.44 1339.33, 764.84 1340.0, 764.25 1340.67, 763.67 1341.33, 763.08 1342.0, 762.5 1342.67, 761.92 1343.33, 761.34 1344.0, 760.77 1344.67, 760.2 1345.33, 759.63 1346.0, 759.07 1346.67, 758.51 1347.33, 757.95 1348.0, 757.39 1348.67, 756.84 1349.33, 756.29 1350.0, 755.75 1350.67, 755.2 1351.33, 754.66 1352.0, 754.13 1352.67, 753.6 1353.33, 753.07 1354.0, 752.54 1354.67, 752.02 1355.33, 751.5 1356.0, 750.99 1356.67, 750.48 1357.33, 749.97 1358.0, 749.47 1358.67, 748.97 1359.33, 748.48 1360.0, 747.99 1360.67, 747.5 1361.33, 747.02 1362.0, 746.54 1362.67, 746.06 1363.33, 745.59 1364.0, 745.12 1364.67, 744.66 1365.33, 744.2 1366.0, 743.75 1366.67, 743.3 1367.33, 742.85 1368.0, 742.41 1368.67, 741.98 1369.33, 741.55 1370.0, 741.12 1370.67, 740.7 1371.33, 740.28 1372.0, 739.86 1372.67, 739.46 1373.33, 739.05 1374.0, 738.65 1374.67, 738.26 1375.33, 737.87 1376.0, 737.48 1376.67, 737.1 1377.33, 736.73 1378.0, 736.36 1378.67, 736.0 1379.33, 735.64 1380.0, 735.28 1380.67, 734.93 1381.33, 734.59 1382.0, 734.25 1382.67, 733.92 1383.33, 733.59 1384.0, 733.27 1384.67, 732.95 1385.33, 732.64 1386.0, 732.33 1386.67, 732.03 1387.33, 731.73 1388.0, 731.44 1388.67, 731.16 1389.33, 730.88 1390.0, 730.61 1390.67, 730.34 1391.33, 730.08 1392.0, 729.83 1392.67, 729.58 1393.33, 729.33 1394.0, 729.1 1394.67, 728.87 1395.33, 728.64 1396.0, 728.42 1396.67, 728.21 1397.33, 728.0 1398.0, 727.8 1398.67, 727.61 1399.33, 727.42 1400.0, 727.24 1400.67, 727.06 1401.33, 726.89 1402.0, 726.73 1402.67, 726.57 1403.33, 726.42 1404.0, 726.28 1404.67, 726.14 1405.33, 726.01 1406.0, 725.89 1406.67, 725.77 1407.33, 725.66 1408.0, 725.56 1408.67, 725.46 1409.33, 725.37 1410.0, 725.29 1410.67, 725.22 1411.33, 725.15 1412.0, 725.09 1412.67, 725.03 1413.33, 724.98 1414.0, 724.94 1414.67, 724.91 1415.33, 724.89 1416.0, 724.87 1416.67, 724.86 1417.33, 724.85 1418.0, 724.86 1418.67, 724.87 1419.33, 724.89 1420.0, 724.92 1420.67, 724.95 1421.33, 724.99 1422.0, 725.04 1422.67, 725.1 1423.33, 725.16 1424.0, 725.24 1424.67, 725.32 1425.33, 725.41 1426.0, 725.51 1426.67, 725.61 1427.33, 725.72 1428.0, 725.85 1428.67, 725.97 1429.33, 726.11 1430.0, 726.26 1430.67, 726.41 1431.33, 726.58 1432.0, 726.75 1432.67, 726.93 1433.33, 727.12 1434.0, 727.32 1434.67, 727.52 1435.33, 727.74 1436.0, 727.96 1436.67, 728.19 1437.33, 728.44 1438.0, 728.69 1438.67, 728.95 1439.33, 729.21 1440.0, 729.49 1440.67, 729.78 1441.33, 730.08 1442.0, 730.38 1442.67, 730.7 1443.33, 731.03 1444.0, 731.36 1444.67, 731.71 1445.33, 732.06 1446.0, 732.42 1446.67, 732.8 1447.33, 733.18 1448.0, 733.58 1448.67, 733.98 1449.33, 734.4 1450.0, 734.82 1450.67, 735.26 1451.33, 735.71 1452.0, 736.16 1452.67, 736.63 1453.33, 737.11 1454.0, 737.6 1454.67, 738.1 1455.33, 738.61 1456.0, 739.13 1456.67, 739.66 1457.33, 740.21 1458.0, 740.77 1458.67, 741.33 1459.33, 741.91 1460.0, 742.5 1460.67, 743.11 1461.33, 743.72 1462.0, 744.35 1462.67, 744.99 1463.33, 745.64 1464.0, 746.3 1464.67, 746.98 1465.33, 747.67 1466.0, 748.37 1466.67, 749.09 1467.33, 749.82 1468.0, 750.56 1468.67, 751.31 1469.33, 752.08 1470.0, 752.86 1470.67, 753.66 1471.33, 754.47 1472.0, 755.29 1472.67, 756.13 1473.33, 756.98 1474.0, 757.84 1474.67, 758.72 1475.33, 759.62 1476.0, 760.53 1476.67, 761.45 1477.33, 762.4 1478.0, 763.35 1478.67, 764.32 1479.33, 765.31 1480.0, 766.31 1480.67, 767.33 1481.33, 768.37 1482.0, 769.42 1482.67, 770.49 1483.33, 771.58 1484.0, 772.68 1484.67, 773.8 1485.33, 774.94 1486.0, 776.1 1486.67, 777.27 1487.33, 778.46 1488.0, 779.67 1488.67, 780.9 1489.33, 782.15 1490.0, 783.42 1490.67, 784.7 1491.33, 786.01 1492.0, 787.33 1492.67, 788.68 1493.33, 790.04 1494.0, 791.43 1494.67, 792.84 1495.33, 794.27 1496.0, 795.72 1496.67, 797.19 1497.33, 798.68 1498.0, 800.2 1498.67, 801.74 1499.33, 803.3 1500.0, 804.88 1500.67, 806.49 1501.33, 808.12 1502.0, 809.78 1502.67, 811.46 1503.33, 813.17 1504.0, 814.9 1504.67, 816.65 1505.33, 818.44 1506.0, 820.24 1506.67, 822.08 1507.33, 823.94 1508.0, 825.83 1508.67, 827.75 1509.33, 829.69 1510.0, 831.67 1510.67, 833.67 1511.33, 835.7 1512.0, 837.76 1512.67, 839.85 1513.33, 841.98 1514.0, 844.13 1514.67, 846.32 1515.33, 848.53 1516.0, 850.78 1516.67, 853.07 1517.33, 855.38 1518.0, 857.73 1518.67, 860.12 1519.33, 862.54 1520.0, 864.99 1520.67, 867.48 1521.33, 870.01 1522.0, 872.58 1522.67, 875.18 1523.33, 877.82 1524.0, 880.5 1524.67, 883.22 1525.33, 885.98 1526.0, 888.78 1526.67, 891.62 1527.33, 894.5 1528.0, 897.43 1528.67, 900.39 1529.33, 903.41 1530.0, 906.46 1530.67, 909.56 1531.33, 912.71 1532.0, 915.91 1532.67, 919.15 1533.33, 922.44 1534.0, 925.78 1534.67, 929.16 1535.33, 932.6 1536.0, 936.09 1536.67, 939.63 1537.33, 943.22 1538.0, 946.87 1538.67, 950.57 1539.33, 954.33 1540.0, 958.14 1540.67, 962.01 1541.33, 965.94 1542.0, 969.93 1542.67, 973.97 1543.33, 978.08 1544.0, 982.25 1544.67, 986.48 1545.33, 990.77 1546.0, 995.13 1546.67, 999.55 1547.33, 1004.04 1548.0, 1008.6 1548.67, 1013.23 1549.33, 1017.92 1550.0, 1022.69 1550.67, 1027.53 1551.33, 1032.44 1552.0, 1037.43 1552.67, 1042.49 1553.33, 1047.63 1554.0, 1052.84 1554.67, 1058.14 1555.33, 1063.52 1556.0, 1068.97 1556.67, 1074.51 1557.33, 1080.14 1558.0, 1085.85 1558.67, 1091.64 1559.33, 1097.53 1560.0, 1103.5 1560.67, 1109.57 1561.33, 1115.73 1562.0, 1121.98 1562.67, 1128.33 1563.33, 1134.77 1564.0, 1141.31 1564.67, 1147.96 1565.33, 1154.7 1566.0, 1161.55 1566.67, 1168.5 1567.33, 1175.56 1568.0, 1182.73 1568.67, 1190.01 1569.33, 1197.4 1570.0, 1204.9 1570.67, 1212.52 1571.33, 1220.25 1572.0, 1228.11 1572.67, 1236.08 1573.33, 1244.18 1574.0, 1252.4 1574.67, 1260.75 1575.33, 1269.23 1576.0, 1277.84 1576.67, 1286.58 1577.33, 1295.46 1578.0, 1304.47 1578.67, 1313.62 1579.33, 1322.92 1580.0, 1332.35 1580.67, 1341.94 1581.33, 1351.67 1582.0, 1361.55 1582.67, 1371.58 1583.33, 1381.77 1584.0, 1392.12 1584.67, 1402.63 1585.33, 1413.3 1586.0, 1424.13 1586.67, 1435.14 1587.33, 1446.31 1588.0, 1457.66 1588.67, 1469.18 1589.33, 1480.88 1590.0, 1492.76 1590.67, 1504.83 1591.33, 1517.08 1592.0, 1529.52 1592.67, 1542.16 1593.33, 1554.99 1594.0, 1568.02 1594.67, 1581.25 1595.33, 1594.69 1596.0, 1608.34 1596.67, 1622.19 1597.33, 1636.27 1598.0, 1650.56 1598.67, 1665.07 1599.33, 1679.8 1600.0, 1694.77 " fill="none" stroke="white" stroke-width="1.5" stroke-linejoin="round" stroke-opacity="1"/>

 </svg>