<svg version="1.1" 
 baseProfile="full" 
 width="1600" 
 height="1600" 
 xmlns="http://www.w3.org/2000/svg">
<rect x="0.0" y="0.0" width="1600" height="1600" fill="black" stroke="black" stroke-width="0" opacity="1"/>
<line x1="0.0" y1="0.0" x2="0.0" y2="1600.0" stroke="white" stroke-width="1" opacity="0.4" stroke-linecap="butt"/>
<line x1="160.0" y1="0.0" x2="160.0" y2="1600.0" stroke="white" stroke-width="1" opacity="0.4" stroke-linecap="butt"/>
<line x1="320.0" y1="0.0" x2="320.0" y2="1600.0" stroke="white" stroke-width="1" opacity="0.4" stroke-linecap="butt"/>
<line x1="480.0" y1="0.0" x2="480.0" y2="1600.0" stroke="white" stroke-width="1" opacity="0.4" stroke-linecap="butt"/>
<line x1="640.0" y1="0.0" x2="640.0" y2="1600.0" stroke="white" stroke-width="1" opacity="0.4" stroke-linecap="butt"/>
<line x1="800.0" y1="0.0" x2="800.0" y2="1600.0" stroke="white" stroke-width="1" opacity="0.4" stroke-linecap="butt"/>
<line x1="960.0" y1="0.0" x2="960.0" y2="1600.0" stroke="white" stroke-width="1" opacity="0.4" stroke-linecap="butt"/>
<line x1="1120.0" y1="0.0" x2="1120.0" y2="1600.0" stroke="white" stroke-width="1" opacity="0.4" stroke-linecap="butt"/>
<line x1="1280.0" y1="0.0" x2="1280.0" y2="1600.0" stroke="white" stroke-width="1" opacity="0.4" stroke-linecap="butt"/>
<line x1="1440.0" y1="0.0" x2="1440.0" y2="1600.0" stroke="white" stroke-width="1" opacity="0.4" stroke-linecap="butt"/>
<line x1="0.0" y1="0.0" x2="1600.0" y2="0.0" stroke="white" stroke-width="1" opacity="0.4" stroke-linecap="butt"/>
<line x1="0.0" y1="160.0" x2="1600.0" y2="160.0" stroke="white" stroke-width="1" opacity="0.4" stroke-linecap="butt"/>
<line x1="0.0" y1="320.0" x2="1600.0" y2="320.0" stroke="white" stroke-width="1" opacity="0.4" stroke-linecap="butt"/>
<line x1="0.0" y1="480.0" x2="1600.0" y2="480.0" stroke="white" stroke-width="1" opacity="0.4" stroke-linecap="butt"/>
<line x1="0.0" y1="640.0" x2="1600.0" y2="640.0" stroke="white" stroke-width="1" opacity="0.4" stroke-linecap="butt"/>
<line x1="0.0" y1="800.0" x2="1600.0" y2="800.0" stroke="white" stroke-width="1" opacity="0.4" stroke-linecap="butt"/>
<line x1="0.0" y1="960.0" x2="1600.0" y2="960.0" stroke="white" stroke-width="1" opacity="0.4" stroke-linecap="butt"/>
<line x1="0.0" y1="1120.0" x2="1600.0" y2="1120.0" stroke="white" stroke-width="1" opacity="0.4" stroke-linecap="butt"/>
<line x1="0.0" y1="1280.0" x2="1600.0" y2="1280.0" stroke="white" stroke-width="1" opacity="0.4" stroke-linecap="butt"/>
<line x1="0.0" y1="1440.0" x2="1600.0" y2="1440.0" stroke="white" stroke-width="1" opacity="0.4" stroke-linecap="butt"/>
<line x1="0.0" y1="800.0" x2="1600.0" y2="800.0" stroke="yellow" stroke-width="2.5" opacity="1" stroke-linecap="butt"/>
<line x1="800.0" y1="0.0" x2="800.0" y2="1600.0" stroke="yellow" stroke-width="2.5" opacity="1" stroke-linecap="butt"/>
<polygon points="1564.0 816.0, 1604.0 800.0, 1564.0 784.0, 1572.0 800.0" fill="yellow"/><polygon points="816.0 36.0, 800.0 -4.0, 784.0 36.0, 800.0 28.0" fill="yellow"/><polyline points="0.0, 805.58 0.67, 804.92 1.33, 804.29 2.0, 803.69 2.67, 803.12 3.33, 802.58 4.0, 802.06 4.67, 801.57 5.33, 801.11 6.0, 800.68 6.67, 800.27 7.33, 799.88 8.0, 799.52 8.67, 799.18 9.33, 798.87 10.0, 798.58 10.67, 798.32 11.33, 798.07 12.0, 797.85 12.67, 797.65 13.33, 797.46 14.0, 797.3 14.67, 797.16 15.33, 797.04 16.0, 796.94 16.67, 796.86 17.33, 796.79 18.0, 796.75 18.67, 796.72 19.33, 796.71 20.0, 796.71 20.67, 796.73 21.33, 796.77 22.0, 796.83 22.67, 796.9 23.33, 796.98 24.0, 797.08 24.67, 797.19 25.33, 797.32 26.0, 797.46 26.67, 797.62 27.33, 797.79 28.0, 797.97 28.67, 798.16 29.33, 798.37 30.0, 798.59 30.67, 798.82 31.33, 799.06 32.0, 799.31 32.67, 799.57 33.33, 799.85 34.0, 800.13 34.67, 800.43 35.33, 800.73 36.0, 801.05 36.67, 801.37 37.33, 801.7 38.0, 802.05 38.67, 802.4 39.33, 802.76 40.0, 803.12 40.67, 803.5 41.33, 803.88 42.0, 804.27 42.67, 804.67 43.33, 805.08 44.0, 805.49 44.67, 805.91 45.33, 806.33 46.0, 806.77 46.67, 807.2 47.33, 807.65 48.0, 808.1 48.67, 808.55 49.33, 809.02 50.0, 809.48 50.67, 809.95 51.33, 810.43 52.0, 810.91 52.67, 811.4 53.33, 811.89 54.0, 812.38 54.67, 812.88 55.33, 813.38 56.0, 813.89 56.67, 814.4 57.33, 814.91 58.0, 815.43 58.67, 815.95 59.33, 816.47 60.0, 817.0 60.67, 817.53 61.33, 818.06 62.0, 818.59 62.67, 819.13 63.33, 819.67 64.0, 820.21 64.67, 820.75 65.33, 821.3 66.0, 821.84 66.67, 822.39 67.33, 822.94 68.0, 823.49 68.67, 824.04 69.33, 824.6 70.0, 825.15 70.67, 825.71 71.33, 826.26 72.0, 826.82 72.67, 827.38 73.33, 827.94 74.0, 828.5 74.67, 829.05 75.33, 829.61 76.0, 830.17 76.67, 830.73 77.33, 831.29 78.0, 831.85 78.67, 832.41 79.33, 832.97 80.0, 833.52 80.67, 834.08 81.33, 834.64 82.0, 835.19 82.67, 835.75 83.33, 836.3 84.0, 836.86 84.67, 837.41 85.33, 837.96 86.0, 838.51 86.67, 839.06 87.33, 839.6 88.0, 840.15 88.67, 840.69 89.33, 841.24 90.0, 841.78 90.67, 842.32 91.33, 842.85 92.0, 843.39 92.67, 843.92 93.33, 844.45 94.0, 844.98 94.67, 845.51 95.33, 846.03 96.0, 846.56 96.67, 847.08 97.33, 847.59 98.0, 848.11 98.67, 848.62 99.33, 849.13 100.0, 849.64 100.67, 850.14 101.33, 850.65 102.0, 851.14 102.67, 851.64 103.33, 852.13 104.0, 852.62 104.67, 853.11 105.33, 853.59 106.0, 854.07 106.67, 854.55 107.33, 855.03 108.0, 855.5 108.67, 855.96 109.33, 856.43 110.0, 856.89 110.67, 857.35 111.33, 857.8 112.0, 858.25 112.67, 858.7 113.33, 859.14 114.0, 859.58 114.67, 860.01 115.33, 860.44 116.0, 860.87 116.67, 861.29 117.33, 861.71 118.0, 862.13 118.67, 862.54 119.33, 862.95 120.0, 863.35 120.67, 863.75 121.33, 864.14 122.0, 864.53 122.67, 864.92 123.33, 865.3 124.0, 865.68 124.67, 866.05 125.33, 866.42 126.0, 866.78 126.67, 867.14 127.33, 867.5 128.0, 867.85 128.67, 868.19 129.33, 868.53 130.0, 868.87 130.67, 869.2 131.33, 869.53 132.0, 869.85 132.67, 870.17 133.33, 870.48 134.0, 870.79 134.67, 871.09 135.33, 871.39 136.0, 871.69 136.67, 871.98 137.33, 872.26 138.0, 872.54 138.67, 872.81 139.33, 873.08 140.0, 873.34 140.67, 873.6 141.33, 873.85 142.0, 874.1 142.67, 874.35 143.33, 874.58 144.0, 874.82 144.67, 875.04 145.33, 875.27 146.0, 875.48 146.67, 875.7 147.33, 875.9 148.0, 876.1 148.67, 876.3 149.33, 876.49 150.0, 876.68 150.67, 876.86 151.33, 877.03 152.0, 877.2 152.67, 877.37 153.33, 877.52 154.0, 877.68 154.67, 877.83 155.33, 877.97 156.0, 878.1 156.67, 878.24 157.33, 878.36 158.0, 878.48 158.67, 878.6 159.33, 878.71 160.0, 878.81 160.67, 878.91 161.33, 879.0 162.0, 879.09 162.67, 879.17 163.33, 879.25 164.0, 879.32 164.67, 879.38 165.33, 879.44 166.0, 879.5 166.67, 879.55 167.33, 879.59 168.0, 879.63 168.67, 879.66 169.33, 879.69 170.0, 879.71 170.67, 879.72 171.33, 879.73 172.0, 879.74 172.67, 879.73 173.33, 879.73 174.0, 879.71 174.67, 879.7 175.33, 879.67 176.0, 879.64 176.67, 879.61 177.33, 879.57 178.0, 879.52 178.67, 879.47 179.33, 879.41 180.0, 879.35 180.67, 879.28 181.33, 879.2 182.0, 879.13 182.67, 879.04 183.33, 878.95 184.0, 878.85 184.67, 878.75 185.33, 878.64 186.0, 878.53 186.67, 878.41 187.33, 878.29 188.0, 878.16 188.67, 878.02 189.33, 877.88 190.0, 877.74 190.67, 877.59 191.33, 877.43 192.0, 877.27 192.67, 877.1 193.33, 876.93 194.0, 876.75 194.67, 876.57 195.33, 876.38 196.0, 876.18 196.67, 875.98 197.33, 875.78 198.0, 875.57 198.67, 875.35 199.33, 875.13 200.0, 874.91 200.67, 874.67 201.33, 874.44 202.0, 874.2 202.67, 873.95 203.33, 873.7 204.0, 873.44 204.67, 873.18 205.33, 872.91 206.0, 872.64 206.67, 872.36 207.33, 872.08 208.0, 871.79 208.67, 871.5 209.33, 871.2 210.0, 870.9 210.67, 870.59 211.33, 870.27 212.0, 869.96 212.67, 869.63 213.33, 869.31 214.0, 868.97 214.67, 868.64 215.33, 868.3 216.0, 867.95 216.67, 867.6 217.33, 867.24 218.0, 866.88 218.67, 866.51 219.33, 866.14 220.0, 865.77 220.67, 865.39 221.33, 865.01 222.0, 864.62 222.67, 864.22 223.33, 863.83 224.0, 863.43 224.67, 863.02 225.33, 862.61 226.0, 862.19 226.67, 861.77 227.33, 861.35 228.0, 860.92 228.67, 860.49 229.33, 860.05 230.0, 859.61 230.67, 859.17 231.33, 858.72 232.0, 858.26 232.67, 857.81 233.33, 857.35 234.0, 856.88 234.67, 856.41 235.33, 855.94 236.0, 855.46 236.67, 854.98 237.33, 854.49 238.0, 854.01 238.67, 853.51 239.33, 853.02 240.0, 852.52 240.67, 852.01 241.33, 851.51 242.0, 851.0 242.67, 850.48 243.33, 849.96 244.0, 849.44 244.67, 848.92 245.33, 848.39 246.0, 847.86 246.67, 847.32 247.33, 846.78 248.0, 846.24 248.67, 845.7 249.33, 845.15 250.0, 844.6 250.67, 844.04 251.33, 843.49 252.0, 842.93 252.67, 842.36 253.33, 841.8 254.0, 841.23 254.67, 840.66 255.33, 840.08 256.0, 839.5 256.67, 838.92 257.33, 838.34 258.0, 837.75 258.67, 837.17 259.33, 836.58 260.0, 835.98 260.67, 835.39 261.33, 834.79 262.0, 834.19 262.67, 833.58 263.33, 832.98 264.0, 832.37 264.67, 831.76 265.33, 831.15 266.0, 830.53 266.67, 829.91 267.33, 829.3 268.0, 828.67 268.67, 828.05 269.33, 827.43 270.0, 826.8 270.67, 826.17 271.33, 825.54 272.0, 824.91 272.67, 824.27 273.33, 823.64 274.0, 823.0 274.67, 822.36 275.33, 821.72 276.0, 821.08 276.67, 820.44 277.33, 819.79 278.0, 819.15 278.67, 818.5 279.33, 817.85 280.0, 817.2 280.67, 816.55 281.33, 815.89 282.0, 815.24 282.67, 814.59 283.33, 813.93 284.0, 813.27 284.67, 812.62 285.33, 811.96 286.0, 811.3 286.67, 810.64 287.33, 809.98 288.0, 809.32 288.67, 808.65 289.33, 807.99 290.0, 807.33 290.67, 806.66 291.33, 806.0 292.0, 805.33 292.67, 804.67 293.33, 804.0 294.0, 803.34 294.67, 802.67 295.33, 802.01 296.0, 801.34 296.67, 800.67 297.33, 800.01 298.0, 799.34 298.67, 798.67 299.33, 798.01 300.0, 797.34 300.67, 796.67 301.33, 796.01 302.0, 795.34 302.67, 794.68 303.33, 794.01 304.0, 793.35 304.67, 792.68 305.33, 792.02 306.0, 791.36 306.67, 790.7 307.33, 790.03 308.0, 789.37 308.67, 788.71 309.33, 788.05 310.0, 787.39 310.67, 786.74 311.33, 786.08 312.0, 785.42 312.67, 784.77 313.33, 784.11 314.0, 783.46 314.67, 782.81 315.33, 782.16 316.0, 781.51 316.67, 780.86 317.33, 780.22 318.0, 779.57 318.67, 778.93 319.33, 778.29 320.0, 777.64 320.67, 777.01 321.33, 776.37 322.0, 775.73 322.67, 775.1 323.33, 774.46 324.0, 773.83 324.67, 773.2 325.33, 772.58 326.0, 771.95 326.67, 771.33 327.33, 770.71 328.0, 770.09 328.67, 769.47 329.33, 768.86 330.0, 768.24 330.67, 767.63 331.33, 767.02 332.0, 766.42 332.67, 765.81 333.33, 765.21 334.0, 764.61 334.67, 764.02 335.33, 763.42 336.0, 762.83 336.67, 762.24 337.33, 761.66 338.0, 761.07 338.67, 760.49 339.33, 759.91 340.0, 759.34 340.67, 758.76 341.33, 758.19 342.0, 757.63 342.67, 757.06 343.33, 756.5 344.0, 755.94 344.67, 755.39 345.33, 754.84 346.0, 754.29 346.67, 753.74 347.33, 753.2 348.0, 752.66 348.67, 752.13 349.33, 751.59 350.0, 751.06 350.67, 750.54 351.33, 750.02 352.0, 749.5 352.67, 748.98 353.33, 748.47 354.0, 747.96 354.67, 747.46 355.33, 746.96 356.0, 746.46 356.67, 745.97 357.33, 745.48 358.0, 744.99 358.67, 744.51 359.33, 744.03 360.0, 743.56 360.67, 743.09 361.33, 742.62 362.0, 742.16 362.67, 741.7 363.33, 741.24 364.0, 740.79 364.67, 740.35 365.33, 739.91 366.0, 739.47 366.67, 739.03 367.33, 738.6 368.0, 738.18 368.67, 737.76 369.33, 737.34 370.0, 736.93 370.67, 736.52 371.33, 736.12 372.0, 735.72 372.67, 735.32 373.33, 734.93 374.0, 734.55 374.67, 734.17 375.33, 733.79 376.0, 733.42 376.67, 733.05 377.33, 732.69 378.0, 732.33 378.67, 731.98 379.33, 731.63 380.0, 731.29 380.67, 730.95 381.33, 730.61 382.0, 730.28 382.67, 729.96 383.33, 729.64 384.0, 729.32 384.67, 729.01 385.33, 728.71 386.0, 728.41 386.67, 728.11 387.33, 727.82 388.0, 727.54 388.67, 727.26 389.33, 726.98 390.0, 726.71 390.67, 726.45 391.33, 726.19 392.0, 725.93 392.67, 725.69 393.33, 725.44 394.0, 725.2 394.67, 724.97 395.33, 724.74 396.0, 724.52 396.67, 724.3 397.33, 724.08 398.0, 723.88 398.67, 723.67 399.33, 723.48 400.0, 723.29 400.67, 723.1 401.33, 722.92 402.0, 722.74 402.67, 722.57 403.33, 722.41 404.0, 722.25 404.67, 722.09 405.33, 721.94 406.0, 721.8 406.67, 721.66 407.33, 721.53 408.0, 721.4 408.67, 721.28 409.33, 721.17 410.0, 721.06 410.67, 720.95 411.33, 720.85 412.0, 720.76 412.67, 720.67 413.33, 720.58 414.0, 720.51 414.67, 720.43 415.33, 720.37 416.0, 720.31 416.67, 720.25 417.33, 720.2 418.0, 720.16 418.67, 720.12 419.33, 720.08 420.0, 720.06 420.67, 720.03 421.33, 720.02 422.0, 720.01 422.67, 720.0 423.33, 720.0 424.0, 720.01 424.67, 720.02 425.33, 720.03 426.0, 720.06 426.67, 720.08 427.33, 720.12 428.0, 720.16 428.67, 720.2 429.33, 720.25 430.0, 720.31 430.67, 720.37 431.33, 720.43 432.0, 720.5 432.67, 720.58 433.33, 720.67 434.0, 720.75 434.67, 720.85 435.33, 720.95 436.0, 721.05 436.67, 721.16 437.33, 721.28 438.0, 721.4 438.67, 721.53 439.33, 721.66 440.0, 721.8 440.67, 721.94 441.33, 722.09 442.0, 722.24 442.67, 722.4 443.33, 722.57 444.0, 722.74 444.67, 722.91 445.33, 723.09 446.0, 723.28 446.67, 723.47 447.33, 723.67 448.0, 723.87 448.67, 724.08 449.33, 724.29 450.0, 724.51 450.67, 724.73 451.33, 724.96 452.0, 725.2 452.67, 725.43 453.33, 725.68 454.0, 725.93 454.67, 726.18 455.33, 726.44 456.0, 726.71 456.67, 726.98 457.33, 727.25 458.0, 727.53 458.67, 727.82 459.33, 728.11 460.0, 728.4 460.67, 728.7 461.33, 729.01 462.0, 729.32 462.67, 729.63 463.33, 729.95 464.0, 730.27 464.67, 730.6 465.33, 730.94 466.0, 731.28 466.67, 731.62 467.33, 731.97 468.0, 732.32 468.67, 732.68 469.33, 733.04 470.0, 733.41 470.67, 733.78 471.33, 734.16 472.0, 734.54 472.67, 734.92 473.33, 735.31 474.0, 735.71 474.67, 736.11 475.33, 736.51 476.0, 736.92 476.67, 737.33 477.33, 737.75 478.0, 738.17 478.67, 738.59 479.33, 739.02 480.0, 739.46 480.67, 739.89 481.33, 740.34 482.0, 740.78 482.67, 741.23 483.33, 741.69 484.0, 742.14 484.67, 742.61 485.33, 743.07 486.0, 743.54 486.67, 744.02 487.33, 744.5 488.0, 744.98 488.67, 745.46 489.33, 745.95 490.0, 746.45 490.67, 746.94 491.33, 747.45 492.0, 747.95 492.67, 748.46 493.33, 748.97 494.0, 749.48 494.67, 750.0 495.33, 750.53 496.0, 751.05 496.67, 751.58 497.33, 752.11 498.0, 752.65 498.67, 753.19 499.33, 753.73 500.0, 754.28 500.67, 754.82 501.33, 755.38 502.0, 755.93 502.67, 756.49 503.33, 757.05 504.0, 757.61 504.67, 758.18 505.33, 758.75 506.0, 759.32 506.67, 759.9 507.33, 760.48 508.0, 761.06 508.67, 761.64 509.33, 762.23 510.0, 762.82 510.67, 763.41 511.33, 764.0 512.0, 764.6 512.67, 765.2 513.33, 765.8 514.0, 766.4 514.67, 767.01 515.33, 767.62 516.0, 768.23 516.67, 768.84 517.33, 769.46 518.0, 770.07 518.67, 770.69 519.33, 771.31 520.0, 771.94 520.67, 772.56 521.33, 773.19 522.0, 773.82 522.67, 774.45 523.33, 775.08 524.0, 775.72 524.67, 776.35 525.33, 776.99 526.0, 777.63 526.67, 778.27 527.33, 778.91 528.0, 779.56 528.67, 780.2 529.33, 780.85 530.0, 781.5 530.67, 782.15 531.33, 782.8 532.0, 783.45 532.67, 784.1 533.33, 784.75 534.0, 785.41 534.67, 786.07 535.33, 786.72 536.0, 787.38 536.67, 788.04 537.33, 788.7 538.0, 789.36 538.67, 790.02 539.33, 790.68 540.0, 791.34 540.67, 792.01 541.33, 792.67 542.0, 793.34 542.67, 794.0 543.33, 794.66 544.0, 795.33 544.67, 796.0 545.33, 796.66 546.0, 797.33 546.67, 797.99 547.33, 798.66 548.0, 799.33 548.67, 799.99 549.33, 800.66 550.0, 801.33 550.67, 801.99 551.33, 802.66 552.0, 803.33 552.67, 803.99 553.33, 804.66 554.0, 805.32 554.67, 805.99 555.33, 806.65 556.0, 807.32 556.67, 807.98 557.33, 808.64 558.0, 809.31 558.67, 809.97 559.33, 810.63 560.0, 811.29 560.67, 811.95 561.33, 812.61 562.0, 813.27 562.67, 813.92 563.33, 814.58 564.0, 815.23 564.67, 815.89 565.33, 816.54 566.0, 817.19 566.67, 817.84 567.33, 818.49 568.0, 819.14 568.67, 819.79 569.33, 820.43 570.0, 821.08 570.67, 821.72 571.33, 822.36 572.0, 823.0 572.67, 823.64 573.33, 824.27 574.0, 824.91 574.67, 825.54 575.33, 826.17 576.0, 826.8 576.67, 827.43 577.33, 828.05 578.0, 828.67 578.67, 829.3 579.33, 829.92 580.0, 830.53 580.67, 831.15 581.33, 831.76 582.0, 832.37 582.67, 832.98 583.33, 833.59 584.0, 834.19 584.67, 834.79 585.33, 835.39 586.0, 835.99 586.67, 836.58 587.33, 837.17 588.0, 837.76 588.67, 838.35 589.33, 838.93 590.0, 839.51 590.67, 840.09 591.33, 840.67 592.0, 841.24 592.67, 841.81 593.33, 842.38 594.0, 842.94 594.67, 843.5 595.33, 844.06 596.0, 844.61 596.67, 845.17 597.33, 845.72 598.0, 846.26 598.67, 846.8 599.33, 847.34 600.0, 847.88 600.67, 848.41 601.33, 848.94 602.0, 849.46 602.67, 849.99 603.33, 850.51 604.0, 851.02 604.67, 851.53 605.33, 852.04 606.0, 852.55 606.67, 853.05 607.33, 853.54 608.0, 854.04 608.67, 854.53 609.33, 855.01 610.0, 855.49 610.67, 855.97 611.33, 856.45 612.0, 856.92 612.67, 857.38 613.33, 857.85 614.0, 858.31 614.67, 858.76 615.33, 859.21 616.0, 859.66 616.67, 860.1 617.33, 860.54 618.0, 860.97 618.67, 861.4 619.33, 861.82 620.0, 862.25 620.67, 862.66 621.33, 863.07 622.0, 863.48 622.67, 863.89 623.33, 864.29 624.0, 864.68 624.67, 865.07 625.33, 865.46 626.0, 865.84 626.67, 866.21 627.33, 866.58 628.0, 866.95 628.67, 867.31 629.33, 867.67 630.0, 868.03 630.67, 868.37 631.33, 868.72 632.0, 869.06 632.67, 869.39 633.33, 869.72 634.0, 870.04 634.67, 870.36 635.33, 870.68 636.0, 870.99 636.67, 871.29 637.33, 871.59 638.0, 871.89 638.67, 872.18 639.33, 872.46 640.0, 872.74 640.67, 873.02 641.33, 873.29 642.0, 873.55 642.67, 873.81 643.33, 874.07 644.0, 874.32 644.67, 874.56 645.33, 874.8 646.0, 875.03 646.67, 875.26 647.33, 875.49 648.0, 875.7 648.67, 875.92 649.33, 876.12 650.0, 876.33 650.67, 876.52 651.33, 876.72 652.0, 876.9 652.67, 877.08 653.33, 877.26 654.0, 877.43 654.67, 877.59 655.33, 877.75 656.0, 877.91 656.67, 878.06 657.33, 878.2 658.0, 878.34 658.67, 878.47 659.33, 878.6 660.0, 878.72 660.67, 878.83 661.33, 878.95 662.0, 879.05 662.67, 879.15 663.33, 879.24 664.0, 879.33 664.67, 879.42 665.33, 879.49 666.0, 879.57 666.67, 879.63 667.33, 879.69 668.0, 879.75 668.67, 879.8 669.33, 879.84 670.0, 879.88 670.67, 879.92 671.33, 879.94 672.0, 879.97 672.67, 879.98 673.33, 879.99 674.0, 880.0 674.67, 880.0 675.33, 879.99 676.0, 879.98 676.67, 879.97 677.33, 879.94 678.0, 879.92 678.67, 879.88 679.33, 879.84 680.0, 879.8 680.67, 879.75 681.33, 879.69 682.0, 879.63 682.67, 879.57 683.33, 879.49 684.0, 879.42 684.67, 879.33 685.33, 879.25 686.0, 879.15 686.67, 879.05 687.33, 878.95 688.0, 878.84 688.67, 878.72 689.33, 878.6 690.0, 878.47 690.67, 878.34 691.33, 878.2 692.0, 878.06 692.67, 877.91 693.33, 877.76 694.0, 877.6 694.67, 877.43 695.33, 877.26 696.0, 877.08 696.67, 876.9 697.33, 876.72 698.0, 876.53 698.67, 876.33 699.33, 876.13 700.0, 875.92 700.67, 875.71 701.33, 875.49 702.0, 875.26 702.67, 875.04 703.33, 874.8 704.0, 874.56 704.67, 874.32 705.33, 874.07 706.0, 873.82 706.67, 873.56 707.33, 873.29 708.0, 873.02 708.67, 872.75 709.33, 872.47 710.0, 872.18 710.67, 871.89 711.33, 871.6 712.0, 871.3 712.67, 870.99 713.33, 870.68 714.0, 870.37 714.67, 870.05 715.33, 869.72 716.0, 869.39 716.67, 869.06 717.33, 868.72 718.0, 868.38 718.67, 868.03 719.33, 867.68 720.0, 867.32 720.67, 866.96 721.33, 866.59 722.0, 866.22 722.67, 865.84 723.33, 865.46 724.0, 865.07 724.67, 864.68 725.33, 864.29 726.0, 863.89 726.67, 863.49 727.33, 863.08 728.0, 862.67 728.67, 862.25 729.33, 861.83 730.0, 861.4 730.67, 860.97 731.33, 860.54 732.0, 860.1 732.67, 859.66 733.33, 859.21 734.0, 858.76 734.67, 858.31 735.33, 857.85 736.0, 857.39 736.67, 856.92 737.33, 856.45 738.0, 855.98 738.67, 855.5 739.33, 855.02 740.0, 854.53 740.67, 854.04 741.33, 853.55 742.0, 853.05 742.67, 852.55 743.33, 852.05 744.0, 851.54 744.67, 851.03 745.33, 850.51 746.0, 849.99 746.67, 849.47 747.33, 848.94 748.0, 848.41 748.67, 847.88 749.33, 847.35 750.0, 846.81 750.67, 846.27 751.33, 845.72 752.0, 845.17 752.67, 844.62 753.33, 844.06 754.0, 843.51 754.67, 842.95 755.33, 842.38 756.0, 841.81 756.67, 841.25 757.33, 840.67 758.0, 840.1 758.67, 839.52 759.33, 838.94 760.0, 838.35 760.67, 837.77 761.33, 837.18 762.0, 836.59 762.67, 835.99 763.33, 835.4 764.0, 834.8 764.67, 834.2 765.33, 833.59 766.0, 832.99 766.67, 832.38 767.33, 831.77 768.0, 831.15 768.67, 830.54 769.33, 829.92 770.0, 829.3 770.67, 828.68 771.33, 828.06 772.0, 827.43 772.67, 826.8 773.33, 826.18 774.0, 825.54 774.67, 824.91 775.33, 824.28 776.0, 823.64 776.67, 823.0 777.33, 822.36 778.0, 821.72 778.67, 821.08 779.33, 820.44 780.0, 819.79 780.67, 819.15 781.33, 818.5 782.0, 817.85 782.67, 817.2 783.33, 816.55 784.0, 815.89 784.67, 815.24 785.33, 814.58 786.0, 813.93 786.67, 813.27 787.33, 812.61 788.0, 811.96 788.67, 811.3 789.33, 810.64 790.0, 809.97 790.67, 809.31 791.33, 808.65 792.0, 807.99 792.67, 807.32 793.33, 806.66 794.0, 805.99 794.67, 805.33 795.33, 804.66 796.0, 804.0 796.67, 803.33 797.33, 802.67 798.0, 802.0 798.67, 801.33 799.33, 800.67 800.0, 800.0 800.67, 799.33 801.33, 798.67 802.0, 798.0 802.67, 797.33 803.33, 796.67 804.0, 796.0 804.67, 795.34 805.33, 794.67 806.0, 794.01 806.67, 793.34 807.33, 792.68 808.0, 792.01 808.67, 791.35 809.33, 790.69 810.0, 790.03 810.67, 789.36 811.33, 788.7 812.0, 788.04 812.67, 787.39 813.33, 786.73 814.0, 786.07 814.67, 785.42 815.33, 784.76 816.0, 784.11 816.67, 783.45 817.33, 782.8 818.0, 782.15 818.67, 781.5 819.33, 780.85 820.0, 780.21 820.67, 779.56 821.33, 778.92 822.0, 778.28 822.67, 777.64 823.33, 777.0 824.0, 776.36 824.67, 775.72 825.33, 775.09 826.0, 774.46 826.67, 773.82 827.33, 773.2 828.0, 772.57 828.67, 771.94 829.33, 771.32 830.0, 770.7 830.67, 770.08 831.33, 769.46 832.0, 768.85 832.67, 768.23 833.33, 767.62 834.0, 767.01 834.67, 766.41 835.33, 765.8 836.0, 765.2 836.67, 764.6 837.33, 764.01 838.0, 763.41 838.67, 762.82 839.33, 762.23 840.0, 761.65 840.67, 761.06 841.33, 760.48 842.0, 759.9 842.67, 759.33 843.33, 758.75 844.0, 758.19 844.67, 757.62 845.33, 757.05 846.0, 756.49 846.67, 755.94 847.33, 755.38 848.0, 754.83 848.67, 754.28 849.33, 753.73 850.0, 753.19 850.67, 752.65 851.33, 752.12 852.0, 751.59 852.67, 751.06 853.33, 750.53 854.0, 750.01 854.67, 749.49 855.33, 748.97 856.0, 748.46 856.67, 747.95 857.33, 747.45 858.0, 746.95 858.67, 746.45 859.33, 745.96 860.0, 745.47 860.67, 744.98 861.33, 744.5 862.0, 744.02 862.67, 743.55 863.33, 743.08 864.0, 742.61 864.67, 742.15 865.33, 741.69 866.0, 741.24 866.67, 740.79 867.33, 740.34 868.0, 739.9 868.67, 739.46 869.33, 739.03 870.0, 738.6 870.67, 738.17 871.33, 737.75 872.0, 737.33 872.67, 736.92 873.33, 736.51 874.0, 736.11 874.67, 735.71 875.33, 735.32 876.0, 734.93 876.67, 734.54 877.33, 734.16 878.0, 733.78 878.67, 733.41 879.33, 733.04 880.0, 732.68 880.67, 732.32 881.33, 731.97 882.0, 731.62 882.67, 731.28 883.33, 730.94 884.0, 730.61 884.67, 730.28 885.33, 729.95 886.0, 729.63 886.67, 729.32 887.33, 729.01 888.0, 728.7 888.67, 728.4 889.33, 728.11 890.0, 727.82 890.67, 727.53 891.33, 727.25 892.0, 726.98 892.67, 726.71 893.33, 726.44 894.0, 726.18 894.67, 725.93 895.33, 725.68 896.0, 725.44 896.67, 725.2 897.33, 724.96 898.0, 724.74 898.67, 724.51 899.33, 724.29 900.0, 724.08 900.67, 723.87 901.33, 723.67 902.0, 723.47 902.67, 723.28 903.33, 723.1 904.0, 722.92 904.67, 722.74 905.33, 722.57 906.0, 722.4 906.67, 722.24 907.33, 722.09 908.0, 721.94 908.67, 721.8 909.33, 721.66 910.0, 721.53 910.67, 721.4 911.33, 721.28 912.0, 721.16 912.67, 721.05 913.33, 720.95 914.0, 720.85 914.67, 720.75 915.33, 720.67 916.0, 720.58 916.67, 720.51 917.33, 720.43 918.0, 720.37 918.67, 720.31 919.33, 720.25 920.0, 720.2 920.67, 720.16 921.33, 720.12 922.0, 720.08 922.67, 720.06 923.33, 720.03 924.0, 720.02 924.67, 720.01 925.33, 720.0 926.0, 720.0 926.67, 720.01 927.33, 720.02 928.0, 720.03 928.67, 720.06 929.33, 720.08 930.0, 720.12 930.67, 720.16 931.33, 720.2 932.0, 720.25 932.67, 720.31 933.33, 720.37 934.0, 720.43 934.67, 720.51 935.33, 720.58 936.0, 720.67 936.67, 720.76 937.33, 720.85 938.0, 720.95 938.67, 721.05 939.33, 721.17 940.0, 721.28 940.67, 721.4 941.33, 721.53 942.0, 721.66 942.67, 721.8 943.33, 721.94 944.0, 722.09 944.67, 722.25 945.33, 722.41 946.0, 722.57 946.67, 722.74 947.33, 722.92 948.0, 723.1 948.67, 723.28 949.33, 723.48 950.0, 723.67 950.67, 723.88 951.33, 724.08 952.0, 724.3 952.67, 724.51 953.33, 724.74 954.0, 724.97 954.67, 725.2 955.33, 725.44 956.0, 725.68 956.67, 725.93 957.33, 726.19 958.0, 726.45 958.67, 726.71 959.33, 726.98 960.0, 727.26 960.67, 727.54 961.33, 727.82 962.0, 728.11 962.67, 728.41 963.33, 728.71 964.0, 729.01 964.67, 729.32 965.33, 729.64 966.0, 729.96 966.67, 730.28 967.33, 730.61 968.0, 730.94 968.67, 731.28 969.33, 731.63 970.0, 731.97 970.67, 732.33 971.33, 732.69 972.0, 733.05 972.67, 733.42 973.33, 733.79 974.0, 734.16 974.67, 734.54 975.33, 734.93 976.0, 735.32 976.67, 735.71 977.33, 736.11 978.0, 736.52 978.67, 736.93 979.33, 737.34 980.0, 737.75 980.67, 738.18 981.33, 738.6 982.0, 739.03 982.67, 739.46 983.33, 739.9 984.0, 740.34 984.67, 740.79 985.33, 741.24 986.0, 741.69 986.67, 742.15 987.33, 742.62 988.0, 743.08 988.67, 743.55 989.33, 744.03 990.0, 744.51 990.67, 744.99 991.33, 745.47 992.0, 745.96 992.67, 746.46 993.33, 746.95 994.0, 747.45 994.67, 747.96 995.33, 748.47 996.0, 748.98 996.67, 749.49 997.33, 750.01 998.0, 750.54 998.67, 751.06 999.33, 751.59 1000.0, 752.12 1000.67, 752.66 1001.33, 753.2 1002.0, 753.74 1002.67, 754.28 1003.33, 754.83 1004.0, 755.39 1004.67, 755.94 1005.33, 756.5 1006.0, 757.06 1006.67, 757.62 1007.33, 758.19 1008.0, 758.76 1008.67, 759.33 1009.33, 759.91 1010.0, 760.49 1010.67, 761.07 1011.33, 761.65 1012.0, 762.24 1012.67, 762.83 1013.33, 763.42 1014.0, 764.01 1014.67, 764.61 1015.33, 765.21 1016.0, 765.81 1016.67, 766.41 1017.33, 767.02 1018.0, 767.63 1018.67, 768.24 1019.33, 768.85 1020.0, 769.47 1020.67, 770.08 1021.33, 770.7 1022.0, 771.33 1022.67, 771.95 1023.33, 772.57 1024.0, 773.2 1024.67, 773.83 1025.33, 774.46 1026.0, 775.09 1026.67, 775.73 1027.33, 776.36 1028.0, 777.0 1028.67, 777.64 1029.33, 778.28 1030.0, 778.92 1030.67, 779.57 1031.33, 780.21 1032.0, 780.86 1032.67, 781.51 1033.33, 782.16 1034.0, 782.81 1034.67, 783.46 1035.33, 784.11 1036.0, 784.77 1036.67, 785.42 1037.33, 786.08 1038.0, 786.73 1038.67, 787.39 1039.33, 788.05 1040.0, 788.71 1040.67, 789.37 1041.33, 790.03 1042.0, 790.69 1042.67, 791.36 1043.33, 792.02 1044.0, 792.68 1044.67, 793.35 1045.33, 794.01 1046.0, 794.68 1046.67, 795.34 1047.33, 796.01 1048.0, 796.67 1048.67, 797.34 1049.33, 798.01 1050.0, 798.67 1050.67, 799.34 1051.33, 800.01 1052.0, 800.67 1052.67, 801.34 1053.33, 802.01 1054.0, 802.67 1054.67, 803.34 1055.33, 804.0 1056.0, 804.67 1056.67, 805.34 1057.33, 806.0 1058.0, 806.66 1058.67, 807.33 1059.33, 807.99 1060.0, 808.66 1060.67, 809.32 1061.33, 809.98 1062.0, 810.64 1062.67, 811.3 1063.33, 811.96 1064.0, 812.62 1064.67, 813.28 1065.33, 813.93 1066.0, 814.59 1066.67, 815.25 1067.33, 815.9 1068.0, 816.55 1068.67, 817.2 1069.33, 817.85 1070.0, 818.5 1070.67, 819.15 1071.33, 819.8 1072.0, 820.44 1072.67, 821.09 1073.33, 821.73 1074.0, 822.37 1074.67, 823.01 1075.33, 823.65 1076.0, 824.28 1076.67, 824.92 1077.33, 825.55 1078.0, 826.18 1078.67, 826.81 1079.33, 827.44 1080.0, 828.06 1080.67, 828.69 1081.33, 829.31 1082.0, 829.93 1082.67, 830.54 1083.33, 831.16 1084.0, 831.77 1084.67, 832.38 1085.33, 832.99 1086.0, 833.6 1086.67, 834.2 1087.33, 834.8 1088.0, 835.4 1088.67, 836.0 1089.33, 836.59 1090.0, 837.18 1090.67, 837.77 1091.33, 838.36 1092.0, 838.94 1092.67, 839.52 1093.33, 840.1 1094.0, 840.68 1094.67, 841.25 1095.33, 841.82 1096.0, 842.39 1096.67, 842.95 1097.33, 843.51 1098.0, 844.07 1098.67, 844.62 1099.33, 845.18 1100.0, 845.72 1100.67, 846.27 1101.33, 846.81 1102.0, 847.35 1102.67, 847.89 1103.33, 848.42 1104.0, 848.95 1104.67, 849.47 1105.33, 850.0 1106.0, 850.52 1106.67, 851.03 1107.33, 851.54 1108.0, 852.05 1108.67, 852.55 1109.33, 853.06 1110.0, 853.55 1110.67, 854.05 1111.33, 854.54 1112.0, 855.02 1112.67, 855.5 1113.33, 855.98 1114.0, 856.46 1114.67, 856.93 1115.33, 857.39 1116.0, 857.86 1116.67, 858.31 1117.33, 858.77 1118.0, 859.22 1118.67, 859.66 1119.33, 860.11 1120.0, 860.54 1120.67, 860.98 1121.33, 861.41 1122.0, 861.83 1122.67, 862.25 1123.33, 862.67 1124.0, 863.08 1124.67, 863.49 1125.33, 863.89 1126.0, 864.29 1126.67, 864.69 1127.33, 865.08 1128.0, 865.46 1128.67, 865.84 1129.33, 866.22 1130.0, 866.59 1130.67, 866.96 1131.33, 867.32 1132.0, 867.68 1132.67, 868.03 1133.33, 868.38 1134.0, 868.72 1134.67, 869.06 1135.33, 869.4 1136.0, 869.73 1136.67, 870.05 1137.33, 870.37 1138.0, 870.68 1138.67, 870.99 1139.33, 871.3 1140.0, 871.6 1140.67, 871.89 1141.33, 872.18 1142.0, 872.47 1142.67, 872.75 1143.33, 873.02 1144.0, 873.29 1144.67, 873.56 1145.33, 873.82 1146.0, 874.07 1146.67, 874.32 1147.33, 874.57 1148.0, 874.8 1148.67, 875.04 1149.33, 875.27 1150.0, 875.49 1150.67, 875.71 1151.33, 875.92 1152.0, 876.13 1152.67, 876.33 1153.33, 876.53 1154.0, 876.72 1154.67, 876.91 1155.33, 877.09 1156.0, 877.26 1156.67, 877.43 1157.33, 877.6 1158.0, 877.76 1158.67, 877.91 1159.33, 878.06 1160.0, 878.2 1160.67, 878.34 1161.33, 878.47 1162.0, 878.6 1162.67, 878.72 1163.33, 878.84 1164.0, 878.95 1164.67, 879.05 1165.33, 879.15 1166.0, 879.25 1166.67, 879.33 1167.33, 879.42 1168.0, 879.5 1168.67, 879.57 1169.33, 879.63 1170.0, 879.69 1170.67, 879.75 1171.33, 879.8 1172.0, 879.84 1172.67, 879.88 1173.33, 879.92 1174.0, 879.94 1174.67, 879.97 1175.33, 879.98 1176.0, 879.99 1176.67, 880.0 1177.33, 880.0 1178.0, 879.99 1178.67, 879.98 1179.33, 879.97 1180.0, 879.94 1180.67, 879.92 1181.33, 879.88 1182.0, 879.84 1182.67, 879.8 1183.33, 879.75 1184.0, 879.69 1184.67, 879.63 1185.33, 879.57 1186.0, 879.49 1186.67, 879.42 1187.33, 879.33 1188.0, 879.24 1188.67, 879.15 1189.33, 879.05 1190.0, 878.94 1190.67, 878.83 1191.33, 878.72 1192.0, 878.6 1192.67, 878.47 1193.33, 878.34 1194.0, 878.2 1194.67, 878.06 1195.33, 877.91 1196.0, 877.75 1196.67, 877.59 1197.33, 877.43 1198.0, 877.26 1198.67, 877.08 1199.33, 876.9 1200.0, 876.71 1200.67, 876.52 1201.33, 876.33 1202.0, 876.12 1202.67, 875.92 1203.33, 875.7 1204.0, 875.48 1204.67, 875.26 1205.33, 875.03 1206.0, 874.8 1206.67, 874.56 1207.33, 874.31 1208.0, 874.07 1208.67, 873.81 1209.33, 873.55 1210.0, 873.29 1210.67, 873.02 1211.33, 872.74 1212.0, 872.46 1212.67, 872.18 1213.33, 871.89 1214.0, 871.59 1214.67, 871.29 1215.33, 870.99 1216.0, 870.68 1216.67, 870.36 1217.33, 870.04 1218.0, 869.72 1218.67, 869.39 1219.33, 869.05 1220.0, 868.71 1220.67, 868.37 1221.33, 868.02 1222.0, 867.67 1222.67, 867.31 1223.33, 866.95 1224.0, 866.58 1224.67, 866.21 1225.33, 865.83 1226.0, 865.45 1226.67, 865.07 1227.33, 864.68 1228.0, 864.28 1228.67, 863.88 1229.33, 863.48 1230.0, 863.07 1230.67, 862.66 1231.33, 862.24 1232.0, 861.82 1232.67, 861.4 1233.33, 860.97 1234.0, 860.53 1234.67, 860.09 1235.33, 859.65 1236.0, 859.21 1236.67, 858.76 1237.33, 858.3 1238.0, 857.84 1238.67, 857.38 1239.33, 856.91 1240.0, 856.44 1240.67, 855.97 1241.33, 855.49 1242.0, 855.01 1242.67, 854.52 1243.33, 854.03 1244.0, 853.54 1244.67, 853.04 1245.33, 852.54 1246.0, 852.04 1246.67, 851.53 1247.33, 851.02 1248.0, 850.5 1248.67, 849.98 1249.33, 849.46 1250.0, 848.94 1250.67, 848.41 1251.33, 847.87 1252.0, 847.34 1252.67, 846.8 1253.33, 846.26 1254.0, 845.71 1254.67, 845.16 1255.33, 844.61 1256.0, 844.06 1256.67, 843.5 1257.33, 842.94 1258.0, 842.37 1258.67, 841.81 1259.33, 841.24 1260.0, 840.66 1260.67, 840.09 1261.33, 839.51 1262.0, 838.93 1262.67, 838.34 1263.33, 837.76 1264.0, 837.17 1264.67, 836.58 1265.33, 835.98 1266.0, 835.39 1266.67, 834.79 1267.33, 834.19 1268.0, 833.58 1268.67, 832.98 1269.33, 832.37 1270.0, 831.76 1270.67, 831.14 1271.33, 830.53 1272.0, 829.91 1272.67, 829.29 1273.33, 828.67 1274.0, 828.05 1274.67, 827.42 1275.33, 826.8 1276.0, 826.17 1276.67, 825.54 1277.33, 824.9 1278.0, 824.27 1278.67, 823.63 1279.33, 822.99 1280.0, 822.36 1280.67, 821.71 1281.33, 821.07 1282.0, 820.43 1282.67, 819.78 1283.33, 819.14 1284.0, 818.49 1284.67, 817.84 1285.33, 817.19 1286.0, 816.54 1286.67, 815.89 1287.33, 815.23 1288.0, 814.58 1288.67, 813.92 1289.33, 813.26 1290.0, 812.61 1290.67, 811.95 1291.33, 811.29 1292.0, 810.63 1292.67, 809.97 1293.33, 809.3 1294.0, 808.64 1294.67, 807.98 1295.33, 807.32 1296.0, 806.65 1296.67, 805.99 1297.33, 805.32 1298.0, 804.66 1298.67, 803.99 1299.33, 803.33 1300.0, 802.66 1300.67, 801.99 1301.33, 801.33 1302.0, 800.66 1302.67, 799.99 1303.33, 799.33 1304.0, 798.66 1304.67, 797.99 1305.33, 797.33 1306.0, 796.66 1306.67, 796.0 1307.33, 795.33 1308.0, 794.67 1308.67, 794.0 1309.33, 793.34 1310.0, 792.67 1310.67, 792.01 1311.33, 791.35 1312.0, 790.68 1312.67, 790.02 1313.33, 789.36 1314.0, 788.7 1314.67, 788.04 1315.33, 787.38 1316.0, 786.73 1316.67, 786.07 1317.33, 785.41 1318.0, 784.76 1318.67, 784.11 1319.33, 783.45 1320.0, 782.8 1320.67, 782.15 1321.33, 781.5 1322.0, 780.85 1322.67, 780.21 1323.33, 779.56 1324.0, 778.92 1324.67, 778.28 1325.33, 777.64 1326.0, 777.0 1326.67, 776.36 1327.33, 775.73 1328.0, 775.09 1328.67, 774.46 1329.33, 773.83 1330.0, 773.2 1330.67, 772.57 1331.33, 771.95 1332.0, 771.33 1332.67, 770.7 1333.33, 770.09 1334.0, 769.47 1334.67, 768.85 1335.33, 768.24 1336.0, 767.63 1336.67, 767.02 1337.33, 766.42 1338.0, 765.81 1338.67, 765.21 1339.33, 764.61 1340.0, 764.02 1340.67, 763.42 1341.33, 762.83 1342.0, 762.25 1342.67, 761.66 1343.33, 761.08 1344.0, 760.5 1344.67, 759.92 1345.33, 759.34 1346.0, 758.77 1346.67, 758.2 1347.33, 757.64 1348.0, 757.07 1348.67, 756.51 1349.33, 755.96 1350.0, 755.4 1350.67, 754.85 1351.33, 754.3 1352.0, 753.76 1352.67, 753.22 1353.33, 752.68 1354.0, 752.14 1354.67, 751.61 1355.33, 751.08 1356.0, 750.56 1356.67, 750.04 1357.33, 749.52 1358.0, 749.0 1358.67, 748.49 1359.33, 747.99 1360.0, 747.48 1360.67, 746.98 1361.33, 746.49 1362.0, 745.99 1362.67, 745.51 1363.33, 745.02 1364.0, 744.54 1364.67, 744.06 1365.33, 743.59 1366.0, 743.12 1366.67, 742.65 1367.33, 742.19 1368.0, 741.74 1368.67, 741.28 1369.33, 740.83 1370.0, 740.39 1370.67, 739.95 1371.33, 739.51 1372.0, 739.08 1372.67, 738.65 1373.33, 738.23 1374.0, 737.81 1374.67, 737.39 1375.33, 736.98 1376.0, 736.57 1376.67, 736.17 1377.33, 735.78 1378.0, 735.38 1378.67, 734.99 1379.33, 734.61 1380.0, 734.23 1380.67, 733.86 1381.33, 733.49 1382.0, 733.12 1382.67, 732.76 1383.33, 732.4 1384.0, 732.05 1384.67, 731.7 1385.33, 731.36 1386.0, 731.03 1386.67, 730.69 1387.33, 730.37 1388.0, 730.04 1388.67, 729.73 1389.33, 729.41 1390.0, 729.1 1390.67, 728.8 1391.33, 728.5 1392.0, 728.21 1392.67, 727.92 1393.33, 727.64 1394.0, 727.36 1394.67, 727.09 1395.33, 726.82 1396.0, 726.56 1396.67, 726.3 1397.33, 726.05 1398.0, 725.8 1398.67, 725.56 1399.33, 725.33 1400.0, 725.09 1400.67, 724.87 1401.33, 724.65 1402.0, 724.43 1402.67, 724.22 1403.33, 724.02 1404.0, 723.82 1404.67, 723.62 1405.33, 723.43 1406.0, 723.25 1406.67, 723.07 1407.33, 722.9 1408.0, 722.73 1408.67, 722.57 1409.33, 722.41 1410.0, 722.26 1410.67, 722.12 1411.33, 721.98 1412.0, 721.84 1412.67, 721.71 1413.33, 721.59 1414.0, 721.47 1414.67, 721.36 1415.33, 721.25 1416.0, 721.15 1416.67, 721.05 1417.33, 720.96 1418.0, 720.87 1418.67, 720.8 1419.33, 720.72 1420.0, 720.65 1420.67, 720.59 1421.33, 720.53 1422.0, 720.48 1422.67, 720.43 1423.33, 720.39 1424.0, 720.36 1424.67, 720.33 1425.33, 720.3 1426.0, 720.29 1426.67, 720.27 1427.33, 720.27 1428.0, 720.26 1428.67, 720.27 1429.33, 720.28 1430.0, 720.29 1430.67, 720.31 1431.33, 720.34 1432.0, 720.37 1432.67, 720.41 1433.33, 720.45 1434.0, 720.5 1434.67, 720.56 1435.33, 720.62 1436.0, 720.68 1436.67, 720.75 1437.33, 720.83 1438.0, 720.91 1438.67, 721.0 1439.33, 721.09 1440.0, 721.19 1440.67, 721.29 1441.33, 721.4 1442.0, 721.52 1442.67, 721.64 1443.33, 721.76 1444.0, 721.9 1444.67, 722.03 1445.33, 722.17 1446.0, 722.32 1446.67, 722.48 1447.33, 722.63 1448.0, 722.8 1448.67, 722.97 1449.33, 723.14 1450.0, 723.32 1450.67, 723.51 1451.33, 723.7 1452.0, 723.9 1452.67, 724.1 1453.33, 724.3 1454.0, 724.52 1454.67, 724.73 1455.33, 724.96 1456.0, 725.18 1456.67, 725.42 1457.33, 725.65 1458.0, 725.9 1458.67, 726.15 1459.33, 726.4 1460.0, 726.66 1460.67, 726.92 1461.33, 727.19 1462.0, 727.46 1462.67, 727.74 1463.33, 728.02 1464.0, 728.31 1464.67, 728.61 1465.33, 728.91 1466.0, 729.21 1466.67, 729.52 1467.33, 729.83 1468.0, 730.15 1468.67, 730.47 1469.33, 730.8 1470.0, 731.13 1470.67, 731.47 1471.33, 731.81 1472.0, 732.15 1472.67, 732.5 1473.33, 732.86 1474.0, 733.22 1474.67, 733.58 1475.33, 733.95 1476.0, 734.32 1476.67, 734.7 1477.33, 735.08 1478.0, 735.47 1478.67, 735.86 1479.33, 736.25 1480.0, 736.65 1480.67, 737.05 1481.33, 737.46 1482.0, 737.87 1482.67, 738.29 1483.33, 738.71 1484.0, 739.13 1484.67, 739.56 1485.33, 739.99 1486.0, 740.42 1486.67, 740.86 1487.33, 741.3 1488.0, 741.75 1488.67, 742.2 1489.33, 742.65 1490.0, 743.11 1490.67, 743.57 1491.33, 744.04 1492.0, 744.5 1492.67, 744.97 1493.33, 745.45 1494.0, 745.93 1494.67, 746.41 1495.33, 746.89 1496.0, 747.38 1496.67, 747.87 1497.33, 748.36 1498.0, 748.86 1498.67, 749.35 1499.33, 749.86 1500.0, 750.36 1500.67, 750.87 1501.33, 751.38 1502.0, 751.89 1502.67, 752.41 1503.33, 752.92 1504.0, 753.44 1504.67, 753.97 1505.33, 754.49 1506.0, 755.02 1506.67, 755.55 1507.33, 756.08 1508.0, 756.61 1508.67, 757.15 1509.33, 757.68 1510.0, 758.22 1510.67, 758.76 1511.33, 759.31 1512.0, 759.85 1512.67, 760.4 1513.33, 760.94 1514.0, 761.49 1514.67, 762.04 1515.33, 762.59 1516.0, 763.14 1516.67, 763.7 1517.33, 764.25 1518.0, 764.81 1518.67, 765.36 1519.33, 765.92 1520.0, 766.48 1520.67, 767.03 1521.33, 767.59 1522.0, 768.15 1522.67, 768.71 1523.33, 769.27 1524.0, 769.83 1524.67, 770.39 1525.33, 770.95 1526.0, 771.5 1526.67, 772.06 1527.33, 772.62 1528.0, 773.18 1528.67, 773.74 1529.33, 774.29 1530.0, 774.85 1530.67, 775.4 1531.33, 775.96 1532.0, 776.51 1532.67, 777.06 1533.33, 777.61 1534.0, 778.16 1534.67, 778.7 1535.33, 779.25 1536.0, 779.79 1536.67, 780.33 1537.33, 780.87 1538.0, 781.41 1538.67, 781.94 1539.33, 782.47 1540.0, 783.0 1540.67, 783.53 1541.33, 784.05 1542.0, 784.57 1542.67, 785.09 1543.33, 785.6 1544.0, 786.11 1544.67, 786.62 1545.33, 787.12 1546.0, 787.62 1546.67, 788.11 1547.33, 788.6 1548.0, 789.09 1548.67, 789.57 1549.33, 790.05 1550.0, 790.52 1550.67, 790.98 1551.33, 791.45 1552.0, 791.9 1552.67, 792.35 1553.33, 792.8 1554.0, 793.23 1554.67, 793.67 1555.33, 794.09 1556.0, 794.51 1556.67, 794.92 1557.33, 795.33 1558.0, 795.73 1558.67, 796.12 1559.33, 796.5 1560.0, 796.88 1560.67, 797.24 1561.33, 797.6 1562.0, 797.95 1562.67, 798.3 1563.33, 798.63 1564.0, 798.95 1564.67, 799.27 1565.33, 799.57 1566.0, 799.87 1566.67, 800.15 1567.33, 800.43 1568.0, 800.69 1568.67, 800.94 1569.33, 801.18 1570.0, 801.41 1570.67, 801.63 1571.33, 801.84 1572.0, 802.03 1572.67, 802.21 1573.33, 802.38 1574.0, 802.54 1574.67, 802.68 1575.33, 802.81 1576.0, 802.92 1576.67, 803.02 1577.33, 803.1 1578.0, 803.17 1578.67, 803.23 1579.33, 803.27 1580.0, 803.29 1580.67, 803.29 1581.33, 803.28 1582.0, 803.25 1582.67, 803.21 1583.33, 803.14 1584.0, 803.06 1584.67, 802.96 1585.33, 802.84 1586.0, 802.7 1586.67, 802.54 1587.33, 802.35 1588.0, 802.15 1588.67, 801.93 1589.33, 801.68 1590.0, 801.42 1590.67, 801.13 1591.33, 800.82 1592.0, 800.48 1592.67, 800.12 1593.33, 799.73 1594.0, 799.32 1594.67, 798.89 1595.33, 798.43 1596.0, 797.94 1596.67, 797.42 1597.33, 796.88 1598.0, 796.31 1598.67, 795.71 1599.33, 795.08 1600.0, 794.42 " fill="none" stroke="white" stroke-width="1.5" stroke-linejoin="round" stroke-opacity="1"/>

 </svg>