<svg version="1.1" 
 baseProfile="full" 
 width="1980" 
 height="1080" 
 xmlns="http://www.w3.org/2000/svg">
<rect x="0.0" y="0.0" width="1980" height="1080" fill="black" stroke="black" stroke-width="0" opacity="1"/>
<rect x="0.0" y="0.0" width="990.0" height="1080" fill="none" stroke="white" stroke-width="2.5" opacity="1"/>
<rect x="943.59375" y="475.01" width="92.8125" height="90.0" fill="white" stroke="black" stroke-width="1" opacity="1"/>
<line x1="990.0" y1="540.0" x2="990.0" y2="520.01" stroke="white" stroke-width="1" opacity="1" stroke-linecap="butt"/>
<line x1="495.0" y1="520.01" x2="990.0" y2="520.01" stroke="red" stroke-width="1" opacity="1" stroke-linecap="butt"/>
<g transform="translate(0.0 0.0)"> 
<svg version="1.1" 
 baseProfile="full" 
 width="990.0" 
 height="1080" 
 xmlns="http://www.w3.org/2000/svg">
<line x1="0.0" y1="0.0" x2="0.0" y2="1080.0" stroke="#A7A7A7" stroke-width="0.7" opacity="1" stroke-linecap="butt"/>
<line x1="49.5" y1="0.0" x2="49.5" y2="1080.0" stroke="#A7A7A7" stroke-width="0.7" opacity="1" stroke-linecap="butt"/>
<line x1="99.0" y1="0.0" x2="99.0" y2="1080.0" stroke="#A7A7A7" stroke-width="0.7" opacity="1" stroke-linecap="butt"/>
<line x1="148.5" y1="0.0" x2="148.5" y2="1080.0" stroke="#A7A7A7" stroke-width="0.7" opacity="1" stroke-linecap="butt"/>
<line x1="198.0" y1="0.0" x2="198.0" y2="1080.0" stroke="#A7A7A7" stroke-width="0.7" opacity="1" stroke-linecap="butt"/>
<line x1="247.5" y1="0.0" x2="247.5" y2="1080.0" stroke="#A7A7A7" stroke-width="0.7" opacity="1" stroke-linecap="butt"/>
<line x1="297.0" y1="0.0" x2="297.0" y2="1080.0" stroke="#A7A7A7" stroke-width="0.7" opacity="1" stroke-linecap="butt"/>
<line x1="346.5" y1="0.0" x2="346.5" y2="1080.0" stroke="#A7A7A7" stroke-width="0.7" opacity="1" stroke-linecap="butt"/>
<line x1="396.0" y1="0.0" x2="396.0" y2="1080.0" stroke="#A7A7A7" stroke-width="0.7" opacity="1" stroke-linecap="butt"/>
<line x1="445.5" y1="0.0" x2="445.5" y2="1080.0" stroke="#A7A7A7" stroke-width="0.7" opacity="1" stroke-linecap="butt"/>
<line x1="495.0" y1="0.0" x2="495.0" y2="1080.0" stroke="#A7A7A7" stroke-width="0.7" opacity="1" stroke-linecap="butt"/>
<line x1="544.5" y1="0.0" x2="544.5" y2="1080.0" stroke="#A7A7A7" stroke-width="0.7" opacity="1" stroke-linecap="butt"/>
<line x1="594.0" y1="0.0" x2="594.0" y2="1080.0" stroke="#A7A7A7" stroke-width="0.7" opacity="1" stroke-linecap="butt"/>
<line x1="643.5" y1="0.0" x2="643.5" y2="1080.0" stroke="#A7A7A7" stroke-width="0.7" opacity="1" stroke-linecap="butt"/>
<line x1="693.0" y1="0.0" x2="693.0" y2="1080.0" stroke="#A7A7A7" stroke-width="0.7" opacity="1" stroke-linecap="butt"/>
<line x1="742.5" y1="0.0" x2="742.5" y2="1080.0" stroke="#A7A7A7" stroke-width="0.7" opacity="1" stroke-linecap="butt"/>
<line x1="792.0" y1="0.0" x2="792.0" y2="1080.0" stroke="#A7A7A7" stroke-width="0.7" opacity="1" stroke-linecap="butt"/>
<line x1="841.5" y1="0.0" x2="841.5" y2="1080.0" stroke="#A7A7A7" stroke-width="0.7" opacity="1" stroke-linecap="butt"/>
<line x1="891.0" y1="0.0" x2="891.0" y2="1080.0" stroke="#A7A7A7" stroke-width="0.7" opacity="1" stroke-linecap="butt"/>
<line x1="940.5" y1="0.0" x2="940.5" y2="1080.0" stroke="#A7A7A7" stroke-width="0.7" opacity="1" stroke-linecap="butt"/>
<line x1="-0.0" y1="0.0" x2="990.0" y2="0.0" stroke="#A7A7A7" stroke-width="0.7" opacity="1" stroke-linecap="butt"/>
<line x1="-0.0" y1="54.0" x2="990.0" y2="54.0" stroke="#A7A7A7" stroke-width="0.7" opacity="1" stroke-linecap="butt"/>
<line x1="-0.0" y1="108.0" x2="990.0" y2="108.0" stroke="#A7A7A7" stroke-width="0.7" opacity="1" stroke-linecap="butt"/>
<line x1="-0.0" y1="162.0" x2="990.0" y2="162.0" stroke="#A7A7A7" stroke-width="0.7" opacity="1" stroke-linecap="butt"/>
<line x1="-0.0" y1="216.0" x2="990.0" y2="216.0" stroke="#A7A7A7" stroke-width="0.7" opacity="1" stroke-linecap="butt"/>
<line x1="-0.0" y1="270.0" x2="990.0" y2="270.0" stroke="#A7A7A7" stroke-width="0.7" opacity="1" stroke-linecap="butt"/>
<line x1="-0.0" y1="324.0" x2="990.0" y2="324.0" stroke="#A7A7A7" stroke-width="0.7" opacity="1" stroke-linecap="butt"/>
<line x1="-0.0" y1="378.0" x2="990.0" y2="378.0" stroke="#A7A7A7" stroke-width="0.7" opacity="1" stroke-linecap="butt"/>
<line x1="-0.0" y1="432.0" x2="990.0" y2="432.0" stroke="#A7A7A7" stroke-width="0.7" opacity="1" stroke-linecap="butt"/>
<line x1="-0.0" y1="486.0" x2="990.0" y2="486.0" stroke="#A7A7A7" stroke-width="0.7" opacity="1" stroke-linecap="butt"/>
<line x1="-0.0" y1="540.0" x2="990.0" y2="540.0" stroke="#A7A7A7" stroke-width="0.7" opacity="1" stroke-linecap="butt"/>
<line x1="-0.0" y1="594.0" x2="990.0" y2="594.0" stroke="#A7A7A7" stroke-width="0.7" opacity="1" stroke-linecap="butt"/>
<line x1="-0.0" y1="648.0" x2="990.0" y2="648.0" stroke="#A7A7A7" stroke-width="0.7" opacity="1" stroke-linecap="butt"/>
<line x1="-0.0" y1="702.0" x2="990.0" y2="702.0" stroke="#A7A7A7" stroke-width="0.7" opacity="1" stroke-linecap="butt"/>
<line x1="-0.0" y1="756.0" x2="990.0" y2="756.0" stroke="#A7A7A7" stroke-width="0.7" opacity="1" stroke-linecap="butt"/>
<line x1="-0.0" y1="810.0" x2="990.0" y2="810.0" stroke="#A7A7A7" stroke-width="0.7" opacity="1" stroke-linecap="butt"/>
<line x1="-0.0" y1="864.0" x2="990.0" y2="864.0" stroke="#A7A7A7" stroke-width="0.7" opacity="1" stroke-linecap="butt"/>
<line x1="-0.0" y1="918.0" x2="990.0" y2="918.0" stroke="#A7A7A7" stroke-width="0.7" opacity="1" stroke-linecap="butt"/>
<line x1="-0.0" y1="972.0" x2="990.0" y2="972.0" stroke="#A7A7A7" stroke-width="0.7" opacity="1" stroke-linecap="butt"/>
<line x1="-0.0" y1="1026.0" x2="990.0" y2="1026.0" stroke="#A7A7A7" stroke-width="0.7" opacity="1" stroke-linecap="butt"/>
<line x1="0.0" y1="540.0" x2="990.0" y2="540.0" stroke="yellow" stroke-width="1" opacity="1" stroke-linecap="butt"/>
<line x1="0.0" y1="0.0" x2="0.0" y2="1080.0" stroke="yellow" stroke-width="1" opacity="1" stroke-linecap="butt"/>
<polyline points="0.0, 557.99 0.99, 557.81 1.98, 557.63 2.97, 557.45 3.96, 557.27 4.95, 557.09 5.94, 556.91 6.93, 556.73 7.92, 556.55 8.91, 556.37 9.9, 556.19 10.89, 556.01 11.88, 555.83 12.87, 555.65 13.86, 555.47 14.85, 555.29 15.84, 555.11 16.83, 554.93 17.82, 554.75 18.81, 554.57 19.8, 554.39 20.79, 554.21 21.78, 554.03 22.77, 553.85 23.76, 553.67 24.75, 553.49 25.74, 553.31 26.73, 553.13 27.72, 552.96 28.71, 552.78 29.7, 552.6 30.69, 552.42 31.68, 552.24 32.67, 552.06 33.66, 551.88 34.65, 551.7 35.64, 551.52 36.63, 551.34 37.62, 551.16 38.61, 550.98 39.6, 550.8 40.59, 550.62 41.58, 550.44 42.57, 550.26 43.56, 550.08 44.55, 549.9 45.54, 549.72 46.53, 549.54 47.52, 549.36 48.51, 549.18 49.5, 549.0 50.49, 548.82 51.48, 548.64 52.47, 548.46 53.46, 548.28 54.45, 548.1 55.44, 547.92 56.43, 547.74 57.42, 547.56 58.41, 547.38 59.4, 547.2 60.39, 547.02 61.38, 546.84 62.37, 546.66 63.36, 546.48 64.35, 546.3 65.34, 546.12 66.33, 545.94 67.32, 545.76 68.31, 545.58 69.3, 545.4 70.29, 545.22 71.28, 545.04 72.27, 544.86 73.26, 544.68 74.25, 544.5 75.24, 544.32 76.23, 544.14 77.22, 543.96 78.21, 543.78 79.2, 543.6 80.19, 543.42 81.18, 543.24 82.17, 543.06 83.16, 542.88 84.15, 542.7 85.14, 542.52 86.13, 542.34 87.12, 542.16 88.11, 541.98 89.1, 541.8 90.09, 541.62 91.08, 541.44 92.07, 541.26 93.06, 541.08 94.05, 540.9 95.04, 540.72 96.03, 540.54 97.02, 540.36 98.01, 540.18 99.0, 540.0 99.99, 539.82 100.98, 539.64 101.97, 539.46 102.96, 539.28 103.95, 539.1 104.94, 538.92 105.93, 538.74 106.92, 538.56 107.91, 538.38 108.9, 538.2 109.89, 538.02 110.88, 537.84 111.87, 537.66 112.86, 537.48 113.85, 537.3 114.84, 537.12 115.83, 536.94 116.82, 536.76 117.81, 536.58 118.8, 536.4 119.79, 536.22 120.78, 536.04 121.77, 535.86 122.76, 535.68 123.75, 535.5 124.74, 535.32 125.73, 535.14 126.72, 534.96 127.71, 534.78 128.7, 534.6 129.69, 534.42 130.68, 534.24 131.67, 534.06 132.66, 533.88 133.65, 533.7 134.64, 533.52 135.63, 533.34 136.62, 533.16 137.61, 532.98 138.6, 532.8 139.59, 532.62 140.58, 532.44 141.57, 532.26 142.56, 532.08 143.55, 531.9 144.54, 531.72 145.53, 531.54 146.52, 531.36 147.51, 531.18 148.5, 531.0 149.49, 530.82 150.48, 530.64 151.47, 530.46 152.46, 530.28 153.45, 530.1 154.44, 529.92 155.43, 529.74 156.42, 529.56 157.41, 529.38 158.4, 529.2 159.39, 529.02 160.38, 528.84 161.37, 528.66 162.36, 528.48 163.35, 528.3 164.34, 528.12 165.33, 527.94 166.32, 527.76 167.31, 527.58 168.3, 527.4 169.29, 527.22 170.28, 527.04 171.27, 526.87 172.26, 526.69 173.25, 526.51 174.24, 526.33 175.23, 526.15 176.22, 525.97 177.21, 525.79 178.2, 525.61 179.19, 525.43 180.18, 525.25 181.17, 525.07 182.16, 524.89 183.15, 524.71 184.14, 524.53 185.13, 524.35 186.12, 524.17 187.11, 523.99 188.1, 523.81 189.09, 523.63 190.08, 523.45 191.07, 523.27 192.06, 523.09 193.05, 522.91 194.04, 522.73 195.03, 522.55 196.02, 522.37 197.01, 522.19 198.0, 522.01 198.99, 521.83 199.98, 521.65 200.97, 521.47 201.96, 521.29 202.95, 521.12 203.94, 520.94 204.93, 520.76 205.92, 520.58 206.91, 520.4 207.9, 520.22 208.89, 520.04 209.88, 519.86 210.87, 519.68 211.86, 519.5 212.85, 519.32 213.84, 519.14 214.83, 518.96 215.82, 518.78 216.81, 518.6 217.8, 518.42 218.79, 518.24 219.78, 518.06 220.77, 517.88 221.76, 517.71 222.75, 517.53 223.74, 517.35 224.73, 517.17 225.72, 516.99 226.71, 516.81 227.7, 516.63 228.69, 516.45 229.68, 516.27 230.67, 516.09 231.66, 515.91 232.65, 515.73 233.64, 515.55 234.63, 515.37 235.62, 515.2 236.61, 515.02 237.6, 514.84 238.59, 514.66 239.58, 514.48 240.57, 514.3 241.56, 514.12 242.55, 513.94 243.54, 513.76 244.53, 513.58 245.52, 513.4 246.51, 513.22 247.5, 513.04 248.49, 512.87 249.48, 512.69 250.47, 512.51 251.46, 512.33 252.45, 512.15 253.44, 511.97 254.43, 511.79 255.42, 511.61 256.41, 511.43 257.4, 511.25 258.39, 511.08 259.38, 510.9 260.37, 510.72 261.36, 510.54 262.35, 510.36 263.34, 510.18 264.33, 510.0 265.32, 509.82 266.31, 509.64 267.3, 509.47 268.29, 509.29 269.28, 509.11 270.27, 508.93 271.26, 508.75 272.25, 508.57 273.24, 508.39 274.23, 508.21 275.22, 508.04 276.21, 507.86 277.2, 507.68 278.19, 507.5 279.18, 507.32 280.17, 507.14 281.16, 506.96 282.15, 506.78 283.14, 506.61 284.13, 506.43 285.12, 506.25 286.11, 506.07 287.1, 505.89 288.09, 505.71 289.08, 505.53 290.07, 505.36 291.06, 505.18 292.05, 505.0 293.04, 504.82 294.03, 504.64 295.02, 504.46 296.01, 504.28 297.0, 504.11 297.99, 503.93 298.98, 503.75 299.97, 503.57 300.96, 503.39 301.95, 503.21 302.94, 503.04 303.93, 502.86 304.92, 502.68 305.91, 502.5 306.9, 502.32 307.89, 502.15 308.88, 501.97 309.87, 501.79 310.86, 501.61 311.85, 501.43 312.84, 501.25 313.83, 501.08 314.82, 500.9 315.81, 500.72 316.8, 500.54 317.79, 500.36 318.78, 500.19 319.77, 500.01 320.76, 499.83 321.75, 499.65 322.74, 499.47 323.73, 499.3 324.72, 499.12 325.71, 498.94 326.7, 498.76 327.69, 498.58 328.68, 498.41 329.67, 498.23 330.66, 498.05 331.65, 497.87 332.64, 497.7 333.63, 497.52 334.62, 497.34 335.61, 497.16 336.6, 496.98 337.59, 496.81 338.58, 496.63 339.57, 496.45 340.56, 496.27 341.55, 496.1 342.54, 495.92 343.53, 495.74 344.52, 495.56 345.51, 495.39 346.5, 495.21 347.49, 495.03 348.48, 494.85 349.47, 494.68 350.46, 494.5 351.45, 494.32 352.44, 494.14 353.43, 493.97 354.42, 493.79 355.41, 493.61 356.4, 493.43 357.39, 493.26 358.38, 493.08 359.37, 492.9 360.36, 492.72 361.35, 492.55 362.34, 492.37 363.33, 492.19 364.32, 492.02 365.31, 491.84 366.3, 491.66 367.29, 491.48 368.28, 491.31 369.27, 491.13 370.26, 490.95 371.25, 490.78 372.24, 490.6 373.23, 490.42 374.22, 490.25 375.21, 490.07 376.2, 489.89 377.19, 489.72 378.18, 489.54 379.17, 489.36 380.16, 489.18 381.15, 489.01 382.14, 488.83 383.13, 488.65 384.12, 488.48 385.11, 488.3 386.1, 488.12 387.09, 487.95 388.08, 487.77 389.07, 487.59 390.06, 487.42 391.05, 487.24 392.04, 487.07 393.03, 486.89 394.02, 486.71 395.01, 486.54 396.0, 486.36 396.99, 486.18 397.98, 486.01 398.97, 485.83 399.96, 485.65 400.95, 485.48 401.94, 485.3 402.93, 485.12 403.92, 484.95 404.91, 484.77 405.9, 484.6 406.89, 484.42 407.88, 484.24 408.87, 484.07 409.86, 483.89 410.85, 483.72 411.84, 483.54 412.83, 483.36 413.82, 483.19 414.81, 483.01 415.8, 482.84 416.79, 482.66 417.78, 482.48 418.77, 482.31 419.76, 482.13 420.75, 481.96 421.74, 481.78 422.73, 481.61 423.72, 481.43 424.71, 481.25 425.7, 481.08 426.69, 480.9 427.68, 480.73 428.67, 480.55 429.66, 480.38 430.65, 480.2 431.64, 480.02 432.63, 479.85 433.62, 479.67 434.61, 479.5 435.6, 479.32 436.59, 479.15 437.58, 478.97 438.57, 478.8 439.56, 478.62 440.55, 478.45 441.54, 478.27 442.53, 478.1 443.52, 477.92 444.51, 477.75 445.5, 477.57 446.49, 477.4 447.48, 477.22 448.47, 477.04 449.46, 476.87 450.45, 476.69 451.44, 476.52 452.43, 476.34 453.42, 476.17 454.41, 476.0 455.4, 475.82 456.39, 475.65 457.38, 475.47 458.37, 475.3 459.36, 475.12 460.35, 474.95 461.34, 474.77 462.33, 474.6 463.32, 474.42 464.31, 474.25 465.3, 474.07 466.29, 473.9 467.28, 473.72 468.27, 473.55 469.26, 473.38 470.25, 473.2 471.24, 473.03 472.23, 472.85 473.22, 472.68 474.21, 472.5 475.2, 472.33 476.19, 472.16 477.18, 471.98 478.17, 471.81 479.16, 471.63 480.15, 471.46 481.14, 471.28 482.13, 471.11 483.12, 470.94 484.11, 470.76 485.1, 470.59 486.09, 470.41 487.08, 470.24 488.07, 470.07 489.06, 469.89 490.05, 469.72 491.04, 469.55 492.03, 469.37 493.02, 469.2 494.01, 469.02 495.0, 468.85 495.99, 468.68 496.98, 468.5 497.97, 468.33 498.96, 468.16 499.95, 467.98 500.94, 467.81 501.93, 467.64 502.92, 467.46 503.91, 467.29 504.9, 467.12 505.89, 466.94 506.88, 466.77 507.87, 466.6 508.86, 466.42 509.85, 466.25 510.84, 466.08 511.83, 465.9 512.82, 465.73 513.81, 465.56 514.8, 465.38 515.79, 465.21 516.78, 465.04 517.77, 464.87 518.76, 464.69 519.75, 464.52 520.74, 464.35 521.73, 464.17 522.72, 464.0 523.71, 463.83 524.7, 463.66 525.69, 463.48 526.68, 463.31 527.67, 463.14 528.66, 462.97 529.65, 462.79 530.64, 462.62 531.63, 462.45 532.62, 462.28 533.61, 462.1 534.6, 461.93 535.59, 461.76 536.58, 461.59 537.57, 461.41 538.56, 461.24 539.55, 461.07 540.54, 460.9 541.53, 460.73 542.52, 460.55 543.51, 460.38 544.5, 460.21 545.49, 460.04 546.48, 459.87 547.47, 459.69 548.46, 459.52 549.45, 459.35 550.44, 459.18 551.43, 459.01 552.42, 458.84 553.41, 458.66 554.4, 458.49 555.39, 458.32 556.38, 458.15 557.37, 457.98 558.36, 457.81 559.35, 457.63 560.34, 457.46 561.33, 457.29 562.32, 457.12 563.31, 456.95 564.3, 456.78 565.29, 456.61 566.28, 456.44 567.27, 456.26 568.26, 456.09 569.25, 455.92 570.24, 455.75 571.23, 455.58 572.22, 455.41 573.21, 455.24 574.2, 455.07 575.19, 454.9 576.18, 454.73 577.17, 454.55 578.16, 454.38 579.15, 454.21 580.14, 454.04 581.13, 453.87 582.12, 453.7 583.11, 453.53 584.1, 453.36 585.09, 453.19 586.08, 453.02 587.07, 452.85 588.06, 452.68 589.05, 452.51 590.04, 452.34 591.03, 452.17 592.02, 452.0 593.01, 451.83 594.0, 451.66 594.99, 451.49 595.98, 451.32 596.97, 451.15 597.96, 450.98 598.95, 450.81 599.94, 450.64 600.93, 450.47 601.92, 450.3 602.91, 450.13 603.9, 449.96 604.89, 449.79 605.88, 449.62 606.87, 449.45 607.86, 449.28 608.85, 449.11 609.84, 448.94 610.83, 448.77 611.82, 448.6 612.81, 448.43 613.8, 448.26 614.79, 448.09 615.78, 447.93 616.77, 447.76 617.76, 447.59 618.75, 447.42 619.74, 447.25 620.73, 447.08 621.72, 446.91 622.71, 446.74 623.7, 446.57 624.69, 446.4 625.68, 446.23 626.67, 446.07 627.66, 445.9 628.65, 445.73 629.64, 445.56 630.63, 445.39 631.62, 445.22 632.61, 445.05 633.6, 444.89 634.59, 444.72 635.58, 444.55 636.57, 444.38 637.56, 444.21 638.55, 444.04 639.54, 443.88 640.53, 443.71 641.52, 443.54 642.51, 443.37 643.5, 443.2 644.49, 443.04 645.48, 442.87 646.47, 442.7 647.46, 442.53 648.45, 442.36 649.44, 442.2 650.43, 442.03 651.42, 441.86 652.41, 441.69 653.4, 441.53 654.39, 441.36 655.38, 441.19 656.37, 441.02 657.36, 440.86 658.35, 440.69 659.34, 440.52 660.33, 440.35 661.32, 440.19 662.31, 440.02 663.3, 439.85 664.29, 439.68 665.28, 439.52 666.27, 439.35 667.26, 439.18 668.25, 439.02 669.24, 438.85 670.23, 438.68 671.22, 438.52 672.21, 438.35 673.2, 438.18 674.19, 438.02 675.18, 437.85 676.17, 437.68 677.16, 437.52 678.15, 437.35 679.14, 437.18 680.13, 437.02 681.12, 436.85 682.11, 436.68 683.1, 436.52 684.09, 436.35 685.08, 436.18 686.07, 436.02 687.06, 435.85 688.05, 435.69 689.04, 435.52 690.03, 435.35 691.02, 435.19 692.01, 435.02 693.0, 434.86 693.99, 434.69 694.98, 434.53 695.97, 434.36 696.96, 434.19 697.95, 434.03 698.94, 433.86 699.93, 433.7 700.92, 433.53 701.91, 433.37 702.9, 433.2 703.89, 433.04 704.88, 432.87 705.87, 432.71 706.86, 432.54 707.85, 432.38 708.84, 432.21 709.83, 432.05 710.82, 431.88 711.81, 431.72 712.8, 431.55 713.79, 431.39 714.78, 431.22 715.77, 431.06 716.76, 430.89 717.75, 430.73 718.74, 430.56 719.73, 430.4 720.72, 430.23 721.71, 430.07 722.7, 429.9 723.69, 429.74 724.68, 429.58 725.67, 429.41 726.66, 429.25 727.65, 429.08 728.64, 428.92 729.63, 428.76 730.62, 428.59 731.61, 428.43 732.6, 428.26 733.59, 428.1 734.58, 427.94 735.57, 427.77 736.56, 427.61 737.55, 427.44 738.54, 427.28 739.53, 427.12 740.52, 426.95 741.51, 426.79 742.5, 426.63 743.49, 426.46 744.48, 426.3 745.47, 426.14 746.46, 425.97 747.45, 425.81 748.44, 425.65 749.43, 425.49 750.42, 425.32 751.41, 425.16 752.4, 425.0 753.39, 424.83 754.38, 424.67 755.37, 424.51 756.36, 424.35 757.35, 424.18 758.34, 424.02 759.33, 423.86 760.32, 423.7 761.31, 423.53 762.3, 423.37 763.29, 423.21 764.28, 423.05 765.27, 422.88 766.26, 422.72 767.25, 422.56 768.24, 422.4 769.23, 422.24 770.22, 422.07 771.21, 421.91 772.2, 421.75 773.19, 421.59 774.18, 421.43 775.17, 421.26 776.16, 421.1 777.15, 420.94 778.14, 420.78 779.13, 420.62 780.12, 420.46 781.11, 420.3 782.1, 420.13 783.09, 419.97 784.08, 419.81 785.07, 419.65 786.06, 419.49 787.05, 419.33 788.04, 419.17 789.03, 419.01 790.02, 418.85 791.01, 418.68 792.0, 418.52 792.99, 418.36 793.98, 418.2 794.97, 418.04 795.96, 417.88 796.95, 417.72 797.94, 417.56 798.93, 417.4 799.92, 417.24 800.91, 417.08 801.9, 416.92 802.89, 416.76 803.88, 416.6 804.87, 416.44 805.86, 416.28 806.85, 416.12 807.84, 415.96 808.83, 415.8 809.82, 415.64 810.81, 415.48 811.8, 415.32 812.79, 415.16 813.78, 415.0 814.77, 414.84 815.76, 414.68 816.75, 414.52 817.74, 414.36 818.73, 414.2 819.72, 414.04 820.71, 413.88 821.7, 413.73 822.69, 413.57 823.68, 413.41 824.67, 413.25 825.66, 413.09 826.65, 412.93 827.64, 412.77 828.63, 412.61 829.62, 412.45 830.61, 412.3 831.6, 412.14 832.59, 411.98 833.58, 411.82 834.57, 411.66 835.56, 411.5 836.55, 411.35 837.54, 411.19 838.53, 411.03 839.52, 410.87 840.51, 410.71 841.5, 410.56 842.49, 410.4 843.48, 410.24 844.47, 410.08 845.46, 409.92 846.45, 409.77 847.44, 409.61 848.43, 409.45 849.42, 409.29 850.41, 409.14 851.4, 408.98 852.39, 408.82 853.38, 408.66 854.37, 408.51 855.36, 408.35 856.35, 408.19 857.34, 408.04 858.33, 407.88 859.32, 407.72 860.31, 407.56 861.3, 407.41 862.29, 407.25 863.28, 407.09 864.27, 406.94 865.26, 406.78 866.25, 406.62 867.24, 406.47 868.23, 406.31 869.22, 406.15 870.21, 406.0 871.2, 405.84 872.19, 405.69 873.18, 405.53 874.17, 405.37 875.16, 405.22 876.15, 405.06 877.14, 404.91 878.13, 404.75 879.12, 404.59 880.11, 404.44 881.1, 404.28 882.09, 404.13 883.08, 403.97 884.07, 403.82 885.06, 403.66 886.05, 403.51 887.04, 403.35 888.03, 403.2 889.02, 403.04 890.01, 402.89 891.0, 402.73 891.99, 402.58 892.98, 402.42 893.97, 402.27 894.96, 402.11 895.95, 401.96 896.94, 401.8 897.93, 401.65 898.92, 401.49 899.91, 401.34 900.9, 401.18 901.89, 401.03 902.88, 400.87 903.87, 400.72 904.86, 400.57 905.85, 400.41 906.84, 400.26 907.83, 400.1 908.82, 399.95 909.81, 399.8 910.8, 399.64 911.79, 399.49 912.78, 399.34 913.77, 399.18 914.76, 399.03 915.75, 398.87 916.74, 398.72 917.73, 398.57 918.72, 398.41 919.71, 398.26 920.7, 398.11 921.69, 397.95 922.68, 397.8 923.67, 397.65 924.66, 397.5 925.65, 397.34 926.64, 397.19 927.63, 397.04 928.62, 396.88 929.61, 396.73 930.6, 396.58 931.59, 396.43 932.58, 396.27 933.57, 396.12 934.56, 395.97 935.55, 395.82 936.54, 395.67 937.53, 395.51 938.52, 395.36 939.51, 395.21 940.5, 395.06 941.49, 394.91 942.48, 394.75 943.47, 394.6 944.46, 394.45 945.45, 394.3 946.44, 394.15 947.43, 394.0 948.42, 393.85 949.41, 393.69 950.4, 393.54 951.39, 393.39 952.38, 393.24 953.37, 393.09 954.36, 392.94 955.35, 392.79 956.34, 392.64 957.33, 392.49 958.32, 392.33 959.31, 392.18 960.3, 392.03 961.29, 391.88 962.28, 391.73 963.27, 391.58 964.26, 391.43 965.25, 391.28 966.24, 391.13 967.23, 390.98 968.22, 390.83 969.21, 390.68 970.2, 390.53 971.19, 390.38 972.18, 390.23 973.17, 390.08 974.16, 389.93 975.15, 389.78 976.14, 389.63 977.13, 389.48 978.12, 389.33 979.11, 389.18 980.1, 389.04 981.09, 388.89 982.08, 388.74 983.07, 388.59 984.06, 388.44 985.05, 388.29 986.04, 388.14 987.03, 387.99 988.02, 387.84 989.01, 387.7 990.0, 387.55 " fill="none" stroke="yellow" stroke-width="1.5" stroke-linejoin="round" stroke-opacity="1"/>

 </svg> 
 </g> 

 </svg>