<svg version="1.1" 
 baseProfile="full" 
 width="1980" 
 height="1080" 
 xmlns="http://www.w3.org/2000/svg">
<rect x="0.0" y="0.0" width="1980" height="1080" fill="black" stroke="black" stroke-width="0" opacity="1"/>
<rect x="0.0" y="0.0" width="990.0" height="1080" fill="none" stroke="white" stroke-width="2.5" opacity="1"/>
<rect x="943.59375" y="333.95" width="92.8125" height="90.0" fill="white" stroke="black" stroke-width="1" opacity="1"/>
<line x1="990.0" y1="540.0" x2="990.0" y2="378.95" stroke="white" stroke-width="1" opacity="1" stroke-linecap="butt"/>
<line x1="495.0" y1="378.95" x2="990.0" y2="378.95" stroke="red" stroke-width="1" opacity="1" stroke-linecap="butt"/>
<g transform="translate(0.0 0.0)"> 
<svg version="1.1" 
 baseProfile="full" 
 width="990.0" 
 height="1080" 
 xmlns="http://www.w3.org/2000/svg">
<line x1="0.0" y1="0.0" x2="0.0" y2="1080.0" stroke="#A7A7A7" stroke-width="0.7" opacity="1" stroke-linecap="butt"/>
<line x1="49.5" y1="0.0" x2="49.5" y2="1080.0" stroke="#A7A7A7" stroke-width="0.7" opacity="1" stroke-linecap="butt"/>
<line x1="99.0" y1="0.0" x2="99.0" y2="1080.0" stroke="#A7A7A7" stroke-width="0.7" opacity="1" stroke-linecap="butt"/>
<line x1="148.5" y1="0.0" x2="148.5" y2="1080.0" stroke="#A7A7A7" stroke-width="0.7" opacity="1" stroke-linecap="butt"/>
<line x1="198.0" y1="0.0" x2="198.0" y2="1080.0" stroke="#A7A7A7" stroke-width="0.7" opacity="1" stroke-linecap="butt"/>
<line x1="247.5" y1="0.0" x2="247.5" y2="1080.0" stroke="#A7A7A7" stroke-width="0.7" opacity="1" stroke-linecap="butt"/>
<line x1="297.0" y1="0.0" x2="297.0" y2="1080.0" stroke="#A7A7A7" stroke-width="0.7" opacity="1" stroke-linecap="butt"/>
<line x1="346.5" y1="0.0" x2="346.5" y2="1080.0" stroke="#A7A7A7" stroke-width="0.7" opacity="1" stroke-linecap="butt"/>
<line x1="396.0" y1="0.0" x2="396.0" y2="1080.0" stroke="#A7A7A7" stroke-width="0.7" opacity="1" stroke-linecap="butt"/>
<line x1="445.5" y1="0.0" x2="445.5" y2="1080.0" stroke="#A7A7A7" stroke-width="0.7" opacity="1" stroke-linecap="butt"/>
<line x1="495.0" y1="0.0" x2="495.0" y2="1080.0" stroke="#A7A7A7" stroke-width="0.7" opacity="1" stroke-linecap="butt"/>
<line x1="544.5" y1="0.0" x2="544.5" y2="1080.0" stroke="#A7A7A7" stroke-width="0.7" opacity="1" stroke-linecap="butt"/>
<line x1="594.0" y1="0.0" x2="594.0" y2="1080.0" stroke="#A7A7A7" stroke-width="0.7" opacity="1" stroke-linecap="butt"/>
<line x1="643.5" y1="0.0" x2="643.5" y2="1080.0" stroke="#A7A7A7" stroke-width="0.7" opacity="1" stroke-linecap="butt"/>
<line x1="693.0" y1="0.0" x2="693.0" y2="1080.0" stroke="#A7A7A7" stroke-width="0.7" opacity="1" stroke-linecap="butt"/>
<line x1="742.5" y1="0.0" x2="742.5" y2="1080.0" stroke="#A7A7A7" stroke-width="0.7" opacity="1" stroke-linecap="butt"/>
<line x1="792.0" y1="0.0" x2="792.0" y2="1080.0" stroke="#A7A7A7" stroke-width="0.7" opacity="1" stroke-linecap="butt"/>
<line x1="841.5" y1="0.0" x2="841.5" y2="1080.0" stroke="#A7A7A7" stroke-width="0.7" opacity="1" stroke-linecap="butt"/>
<line x1="891.0" y1="0.0" x2="891.0" y2="1080.0" stroke="#A7A7A7" stroke-width="0.7" opacity="1" stroke-linecap="butt"/>
<line x1="940.5" y1="0.0" x2="940.5" y2="1080.0" stroke="#A7A7A7" stroke-width="0.7" opacity="1" stroke-linecap="butt"/>
<line x1="-0.0" y1="0.0" x2="990.0" y2="0.0" stroke="#A7A7A7" stroke-width="0.7" opacity="1" stroke-linecap="butt"/>
<line x1="-0.0" y1="54.0" x2="990.0" y2="54.0" stroke="#A7A7A7" stroke-width="0.7" opacity="1" stroke-linecap="butt"/>
<line x1="-0.0" y1="108.0" x2="990.0" y2="108.0" stroke="#A7A7A7" stroke-width="0.7" opacity="1" stroke-linecap="butt"/>
<line x1="-0.0" y1="162.0" x2="990.0" y2="162.0" stroke="#A7A7A7" stroke-width="0.7" opacity="1" stroke-linecap="butt"/>
<line x1="-0.0" y1="216.0" x2="990.0" y2="216.0" stroke="#A7A7A7" stroke-width="0.7" opacity="1" stroke-linecap="butt"/>
<line x1="-0.0" y1="270.0" x2="990.0" y2="270.0" stroke="#A7A7A7" stroke-width="0.7" opacity="1" stroke-linecap="butt"/>
<line x1="-0.0" y1="324.0" x2="990.0" y2="324.0" stroke="#A7A7A7" stroke-width="0.7" opacity="1" stroke-linecap="butt"/>
<line x1="-0.0" y1="378.0" x2="990.0" y2="378.0" stroke="#A7A7A7" stroke-width="0.7" opacity="1" stroke-linecap="butt"/>
<line x1="-0.0" y1="432.0" x2="990.0" y2="432.0" stroke="#A7A7A7" stroke-width="0.7" opacity="1" stroke-linecap="butt"/>
<line x1="-0.0" y1="486.0" x2="990.0" y2="486.0" stroke="#A7A7A7" stroke-width="0.7" opacity="1" stroke-linecap="butt"/>
<line x1="-0.0" y1="540.0" x2="990.0" y2="540.0" stroke="#A7A7A7" stroke-width="0.7" opacity="1" stroke-linecap="butt"/>
<line x1="-0.0" y1="594.0" x2="990.0" y2="594.0" stroke="#A7A7A7" stroke-width="0.7" opacity="1" stroke-linecap="butt"/>
<line x1="-0.0" y1="648.0" x2="990.0" y2="648.0" stroke="#A7A7A7" stroke-width="0.7" opacity="1" stroke-linecap="butt"/>
<line x1="-0.0" y1="702.0" x2="990.0" y2="702.0" stroke="#A7A7A7" stroke-width="0.7" opacity="1" stroke-linecap="butt"/>
<line x1="-0.0" y1="756.0" x2="990.0" y2="756.0" stroke="#A7A7A7" stroke-width="0.7" opacity="1" stroke-linecap="butt"/>
<line x1="-0.0" y1="810.0" x2="990.0" y2="810.0" stroke="#A7A7A7" stroke-width="0.7" opacity="1" stroke-linecap="butt"/>
<line x1="-0.0" y1="864.0" x2="990.0" y2="864.0" stroke="#A7A7A7" stroke-width="0.7" opacity="1" stroke-linecap="butt"/>
<line x1="-0.0" y1="918.0" x2="990.0" y2="918.0" stroke="#A7A7A7" stroke-width="0.7" opacity="1" stroke-linecap="butt"/>
<line x1="-0.0" y1="972.0" x2="990.0" y2="972.0" stroke="#A7A7A7" stroke-width="0.7" opacity="1" stroke-linecap="butt"/>
<line x1="-0.0" y1="1026.0" x2="990.0" y2="1026.0" stroke="#A7A7A7" stroke-width="0.7" opacity="1" stroke-linecap="butt"/>
<line x1="0.0" y1="540.0" x2="990.0" y2="540.0" stroke="yellow" stroke-width="1" opacity="1" stroke-linecap="butt"/>
<line x1="0.0" y1="0.0" x2="0.0" y2="1080.0" stroke="yellow" stroke-width="1" opacity="1" stroke-linecap="butt"/>
<polyline points="0.0, 684.94 0.99, 684.79 1.98, 684.64 2.97, 684.49 3.96, 684.33 4.95, 684.18 5.94, 684.03 6.93, 683.88 7.92, 683.73 8.91, 683.57 9.9, 683.42 10.89, 683.27 11.88, 683.12 12.87, 682.96 13.86, 682.81 14.85, 682.66 15.84, 682.5 16.83, 682.35 17.82, 682.2 18.81, 682.05 19.8, 681.89 20.79, 681.74 21.78, 681.59 22.77, 681.43 23.76, 681.28 24.75, 681.13 25.74, 680.97 26.73, 680.82 27.72, 680.66 28.71, 680.51 29.7, 680.36 30.69, 680.2 31.68, 680.05 32.67, 679.9 33.66, 679.74 34.65, 679.59 35.64, 679.43 36.63, 679.28 37.62, 679.13 38.61, 678.97 39.6, 678.82 40.59, 678.66 41.58, 678.51 42.57, 678.35 43.56, 678.2 44.55, 678.04 45.54, 677.89 46.53, 677.73 47.52, 677.58 48.51, 677.42 49.5, 677.27 50.49, 677.11 51.48, 676.96 52.47, 676.8 53.46, 676.65 54.45, 676.49 55.44, 676.34 56.43, 676.18 57.42, 676.03 58.41, 675.87 59.4, 675.72 60.39, 675.56 61.38, 675.41 62.37, 675.25 63.36, 675.09 64.35, 674.94 65.34, 674.78 66.33, 674.63 67.32, 674.47 68.31, 674.31 69.3, 674.16 70.29, 674.0 71.28, 673.85 72.27, 673.69 73.26, 673.53 74.25, 673.38 75.24, 673.22 76.23, 673.06 77.22, 672.91 78.21, 672.75 79.2, 672.59 80.19, 672.44 81.18, 672.28 82.17, 672.12 83.16, 671.96 84.15, 671.81 85.14, 671.65 86.13, 671.49 87.12, 671.34 88.11, 671.18 89.1, 671.02 90.09, 670.86 91.08, 670.71 92.07, 670.55 93.06, 670.39 94.05, 670.23 95.04, 670.08 96.03, 669.92 97.02, 669.76 98.01, 669.6 99.0, 669.44 99.99, 669.29 100.98, 669.13 101.97, 668.97 102.96, 668.81 103.95, 668.65 104.94, 668.5 105.93, 668.34 106.92, 668.18 107.91, 668.02 108.9, 667.86 109.89, 667.7 110.88, 667.55 111.87, 667.39 112.86, 667.23 113.85, 667.07 114.84, 666.91 115.83, 666.75 116.82, 666.59 117.81, 666.43 118.8, 666.27 119.79, 666.12 120.78, 665.96 121.77, 665.8 122.76, 665.64 123.75, 665.48 124.74, 665.32 125.73, 665.16 126.72, 665.0 127.71, 664.84 128.7, 664.68 129.69, 664.52 130.68, 664.36 131.67, 664.2 132.66, 664.04 133.65, 663.88 134.64, 663.72 135.63, 663.56 136.62, 663.4 137.61, 663.24 138.6, 663.08 139.59, 662.92 140.58, 662.76 141.57, 662.6 142.56, 662.44 143.55, 662.28 144.54, 662.12 145.53, 661.96 146.52, 661.8 147.51, 661.64 148.5, 661.48 149.49, 661.32 150.48, 661.15 151.47, 660.99 152.46, 660.83 153.45, 660.67 154.44, 660.51 155.43, 660.35 156.42, 660.19 157.41, 660.03 158.4, 659.87 159.39, 659.7 160.38, 659.54 161.37, 659.38 162.36, 659.22 163.35, 659.06 164.34, 658.9 165.33, 658.74 166.32, 658.57 167.31, 658.41 168.3, 658.25 169.29, 658.09 170.28, 657.93 171.27, 657.76 172.26, 657.6 173.25, 657.44 174.24, 657.28 175.23, 657.12 176.22, 656.95 177.21, 656.79 178.2, 656.63 179.19, 656.47 180.18, 656.3 181.17, 656.14 182.16, 655.98 183.15, 655.82 184.14, 655.65 185.13, 655.49 186.12, 655.33 187.11, 655.17 188.1, 655.0 189.09, 654.84 190.08, 654.68 191.07, 654.51 192.06, 654.35 193.05, 654.19 194.04, 654.03 195.03, 653.86 196.02, 653.7 197.01, 653.54 198.0, 653.37 198.99, 653.21 199.98, 653.05 200.97, 652.88 201.96, 652.72 202.95, 652.56 203.94, 652.39 204.93, 652.23 205.92, 652.06 206.91, 651.9 207.9, 651.74 208.89, 651.57 209.88, 651.41 210.87, 651.24 211.86, 651.08 212.85, 650.92 213.84, 650.75 214.83, 650.59 215.82, 650.42 216.81, 650.26 217.8, 650.1 218.79, 649.93 219.78, 649.77 220.77, 649.6 221.76, 649.44 222.75, 649.27 223.74, 649.11 224.73, 648.94 225.72, 648.78 226.71, 648.61 227.7, 648.45 228.69, 648.28 229.68, 648.12 230.67, 647.95 231.66, 647.79 232.65, 647.62 233.64, 647.46 234.63, 647.29 235.62, 647.13 236.61, 646.96 237.6, 646.8 238.59, 646.63 239.58, 646.47 240.57, 646.3 241.56, 646.14 242.55, 645.97 243.54, 645.81 244.53, 645.64 245.52, 645.47 246.51, 645.31 247.5, 645.14 248.49, 644.98 249.48, 644.81 250.47, 644.65 251.46, 644.48 252.45, 644.31 253.44, 644.15 254.43, 643.98 255.42, 643.82 256.41, 643.65 257.4, 643.48 258.39, 643.32 259.38, 643.15 260.37, 642.98 261.36, 642.82 262.35, 642.65 263.34, 642.48 264.33, 642.32 265.32, 642.15 266.31, 641.98 267.3, 641.82 268.29, 641.65 269.28, 641.48 270.27, 641.32 271.26, 641.15 272.25, 640.98 273.24, 640.82 274.23, 640.65 275.22, 640.48 276.21, 640.32 277.2, 640.15 278.19, 639.98 279.18, 639.81 280.17, 639.65 281.16, 639.48 282.15, 639.31 283.14, 639.14 284.13, 638.98 285.12, 638.81 286.11, 638.64 287.1, 638.47 288.09, 638.31 289.08, 638.14 290.07, 637.97 291.06, 637.8 292.05, 637.64 293.04, 637.47 294.03, 637.3 295.02, 637.13 296.01, 636.96 297.0, 636.8 297.99, 636.63 298.98, 636.46 299.97, 636.29 300.96, 636.12 301.95, 635.96 302.94, 635.79 303.93, 635.62 304.92, 635.45 305.91, 635.28 306.9, 635.11 307.89, 634.95 308.88, 634.78 309.87, 634.61 310.86, 634.44 311.85, 634.27 312.84, 634.1 313.83, 633.93 314.82, 633.77 315.81, 633.6 316.8, 633.43 317.79, 633.26 318.78, 633.09 319.77, 632.92 320.76, 632.75 321.75, 632.58 322.74, 632.41 323.73, 632.24 324.72, 632.07 325.71, 631.91 326.7, 631.74 327.69, 631.57 328.68, 631.4 329.67, 631.23 330.66, 631.06 331.65, 630.89 332.64, 630.72 333.63, 630.55 334.62, 630.38 335.61, 630.21 336.6, 630.04 337.59, 629.87 338.58, 629.7 339.57, 629.53 340.56, 629.36 341.55, 629.19 342.54, 629.02 343.53, 628.85 344.52, 628.68 345.51, 628.51 346.5, 628.34 347.49, 628.17 348.48, 628.0 349.47, 627.83 350.46, 627.66 351.45, 627.49 352.44, 627.32 353.43, 627.15 354.42, 626.98 355.41, 626.81 356.4, 626.64 357.39, 626.47 358.38, 626.3 359.37, 626.13 360.36, 625.96 361.35, 625.79 362.34, 625.62 363.33, 625.45 364.32, 625.27 365.31, 625.1 366.3, 624.93 367.29, 624.76 368.28, 624.59 369.27, 624.42 370.26, 624.25 371.25, 624.08 372.24, 623.91 373.23, 623.74 374.22, 623.56 375.21, 623.39 376.2, 623.22 377.19, 623.05 378.18, 622.88 379.17, 622.71 380.16, 622.54 381.15, 622.37 382.14, 622.19 383.13, 622.02 384.12, 621.85 385.11, 621.68 386.1, 621.51 387.09, 621.34 388.08, 621.16 389.07, 620.99 390.06, 620.82 391.05, 620.65 392.04, 620.48 393.03, 620.31 394.02, 620.13 395.01, 619.96 396.0, 619.79 396.99, 619.62 397.98, 619.45 398.97, 619.27 399.96, 619.1 400.95, 618.93 401.94, 618.76 402.93, 618.59 403.92, 618.41 404.91, 618.24 405.9, 618.07 406.89, 617.9 407.88, 617.72 408.87, 617.55 409.86, 617.38 410.85, 617.21 411.84, 617.03 412.83, 616.86 413.82, 616.69 414.81, 616.52 415.8, 616.34 416.79, 616.17 417.78, 616.0 418.77, 615.83 419.76, 615.65 420.75, 615.48 421.74, 615.31 422.73, 615.13 423.72, 614.96 424.71, 614.79 425.7, 614.62 426.69, 614.44 427.68, 614.27 428.67, 614.1 429.66, 613.92 430.65, 613.75 431.64, 613.58 432.63, 613.4 433.62, 613.23 434.61, 613.06 435.6, 612.88 436.59, 612.71 437.58, 612.54 438.57, 612.36 439.56, 612.19 440.55, 612.02 441.54, 611.84 442.53, 611.67 443.52, 611.5 444.51, 611.32 445.5, 611.15 446.49, 610.98 447.48, 610.8 448.47, 610.63 449.46, 610.45 450.45, 610.28 451.44, 610.11 452.43, 609.93 453.42, 609.76 454.41, 609.59 455.4, 609.41 456.39, 609.24 457.38, 609.06 458.37, 608.89 459.36, 608.72 460.35, 608.54 461.34, 608.37 462.33, 608.19 463.32, 608.02 464.31, 607.84 465.3, 607.67 466.29, 607.5 467.28, 607.32 468.27, 607.15 469.26, 606.97 470.25, 606.8 471.24, 606.62 472.23, 606.45 473.22, 606.28 474.21, 606.1 475.2, 605.93 476.19, 605.75 477.18, 605.58 478.17, 605.4 479.16, 605.23 480.15, 605.05 481.14, 604.88 482.13, 604.7 483.12, 604.53 484.11, 604.35 485.1, 604.18 486.09, 604.0 487.08, 603.83 488.07, 603.66 489.06, 603.48 490.05, 603.31 491.04, 603.13 492.03, 602.96 493.02, 602.78 494.01, 602.6 495.0, 602.43 495.99, 602.25 496.98, 602.08 497.97, 601.9 498.96, 601.73 499.95, 601.55 500.94, 601.38 501.93, 601.2 502.92, 601.03 503.91, 600.85 504.9, 600.68 505.89, 600.5 506.88, 600.33 507.87, 600.15 508.86, 599.98 509.85, 599.8 510.84, 599.62 511.83, 599.45 512.82, 599.27 513.81, 599.1 514.8, 598.92 515.79, 598.75 516.78, 598.57 517.77, 598.39 518.76, 598.22 519.75, 598.04 520.74, 597.87 521.73, 597.69 522.72, 597.52 523.71, 597.34 524.7, 597.16 525.69, 596.99 526.68, 596.81 527.67, 596.64 528.66, 596.46 529.65, 596.28 530.64, 596.11 531.63, 595.93 532.62, 595.76 533.61, 595.58 534.6, 595.4 535.59, 595.23 536.58, 595.05 537.57, 594.88 538.56, 594.7 539.55, 594.52 540.54, 594.35 541.53, 594.17 542.52, 593.99 543.51, 593.82 544.5, 593.64 545.49, 593.46 546.48, 593.29 547.47, 593.11 548.46, 592.93 549.45, 592.76 550.44, 592.58 551.43, 592.41 552.42, 592.23 553.41, 592.05 554.4, 591.88 555.39, 591.7 556.38, 591.52 557.37, 591.35 558.36, 591.17 559.35, 590.99 560.34, 590.82 561.33, 590.64 562.32, 590.46 563.31, 590.28 564.3, 590.11 565.29, 589.93 566.28, 589.75 567.27, 589.58 568.26, 589.4 569.25, 589.22 570.24, 589.05 571.23, 588.87 572.22, 588.69 573.21, 588.52 574.2, 588.34 575.19, 588.16 576.18, 587.98 577.17, 587.81 578.16, 587.63 579.15, 587.45 580.14, 587.28 581.13, 587.1 582.12, 586.92 583.11, 586.74 584.1, 586.57 585.09, 586.39 586.08, 586.21 587.07, 586.03 588.06, 585.86 589.05, 585.68 590.04, 585.5 591.03, 585.32 592.02, 585.15 593.01, 584.97 594.0, 584.79 594.99, 584.61 595.98, 584.44 596.97, 584.26 597.96, 584.08 598.95, 583.9 599.94, 583.73 600.93, 583.55 601.92, 583.37 602.91, 583.19 603.9, 583.02 604.89, 582.84 605.88, 582.66 606.87, 582.48 607.86, 582.3 608.85, 582.13 609.84, 581.95 610.83, 581.77 611.82, 581.59 612.81, 581.42 613.8, 581.24 614.79, 581.06 615.78, 580.88 616.77, 580.7 617.76, 580.53 618.75, 580.35 619.74, 580.17 620.73, 579.99 621.72, 579.81 622.71, 579.64 623.7, 579.46 624.69, 579.28 625.68, 579.1 626.67, 578.92 627.66, 578.75 628.65, 578.57 629.64, 578.39 630.63, 578.21 631.62, 578.03 632.61, 577.85 633.6, 577.68 634.59, 577.5 635.58, 577.32 636.57, 577.14 637.56, 576.96 638.55, 576.79 639.54, 576.61 640.53, 576.43 641.52, 576.25 642.51, 576.07 643.5, 575.89 644.49, 575.72 645.48, 575.54 646.47, 575.36 647.46, 575.18 648.45, 575.0 649.44, 574.82 650.43, 574.64 651.42, 574.47 652.41, 574.29 653.4, 574.11 654.39, 573.93 655.38, 573.75 656.37, 573.57 657.36, 573.39 658.35, 573.22 659.34, 573.04 660.33, 572.86 661.32, 572.68 662.31, 572.5 663.3, 572.32 664.29, 572.14 665.28, 571.96 666.27, 571.79 667.26, 571.61 668.25, 571.43 669.24, 571.25 670.23, 571.07 671.22, 570.89 672.21, 570.71 673.2, 570.53 674.19, 570.36 675.18, 570.18 676.17, 570.0 677.16, 569.82 678.15, 569.64 679.14, 569.46 680.13, 569.28 681.12, 569.1 682.11, 568.92 683.1, 568.75 684.09, 568.57 685.08, 568.39 686.07, 568.21 687.06, 568.03 688.05, 567.85 689.04, 567.67 690.03, 567.49 691.02, 567.31 692.01, 567.13 693.0, 566.96 693.99, 566.78 694.98, 566.6 695.97, 566.42 696.96, 566.24 697.95, 566.06 698.94, 565.88 699.93, 565.7 700.92, 565.52 701.91, 565.34 702.9, 565.16 703.89, 564.98 704.88, 564.8 705.87, 564.63 706.86, 564.45 707.85, 564.27 708.84, 564.09 709.83, 563.91 710.82, 563.73 711.81, 563.55 712.8, 563.37 713.79, 563.19 714.78, 563.01 715.77, 562.83 716.76, 562.65 717.75, 562.47 718.74, 562.29 719.73, 562.12 720.72, 561.94 721.71, 561.76 722.7, 561.58 723.69, 561.4 724.68, 561.22 725.67, 561.04 726.66, 560.86 727.65, 560.68 728.64, 560.5 729.63, 560.32 730.62, 560.14 731.61, 559.96 732.6, 559.78 733.59, 559.6 734.58, 559.42 735.57, 559.24 736.56, 559.06 737.55, 558.88 738.54, 558.71 739.53, 558.53 740.52, 558.35 741.51, 558.17 742.5, 557.99 743.49, 557.81 744.48, 557.63 745.47, 557.45 746.46, 557.27 747.45, 557.09 748.44, 556.91 749.43, 556.73 750.42, 556.55 751.41, 556.37 752.4, 556.19 753.39, 556.01 754.38, 555.83 755.37, 555.65 756.36, 555.47 757.35, 555.29 758.34, 555.11 759.33, 554.93 760.32, 554.75 761.31, 554.57 762.3, 554.39 763.29, 554.21 764.28, 554.03 765.27, 553.85 766.26, 553.67 767.25, 553.49 768.24, 553.31 769.23, 553.13 770.22, 552.96 771.21, 552.78 772.2, 552.6 773.19, 552.42 774.18, 552.24 775.17, 552.06 776.16, 551.88 777.15, 551.7 778.14, 551.52 779.13, 551.34 780.12, 551.16 781.11, 550.98 782.1, 550.8 783.09, 550.62 784.08, 550.44 785.07, 550.26 786.06, 550.08 787.05, 549.9 788.04, 549.72 789.03, 549.54 790.02, 549.36 791.01, 549.18 792.0, 549.0 792.99, 548.82 793.98, 548.64 794.97, 548.46 795.96, 548.28 796.95, 548.1 797.94, 547.92 798.93, 547.74 799.92, 547.56 800.91, 547.38 801.9, 547.2 802.89, 547.02 803.88, 546.84 804.87, 546.66 805.86, 546.48 806.85, 546.3 807.84, 546.12 808.83, 545.94 809.82, 545.76 810.81, 545.58 811.8, 545.4 812.79, 545.22 813.78, 545.04 814.77, 544.86 815.76, 544.68 816.75, 544.5 817.74, 544.32 818.73, 544.14 819.72, 543.96 820.71, 543.78 821.7, 543.6 822.69, 543.42 823.68, 543.24 824.67, 543.06 825.66, 542.88 826.65, 542.7 827.64, 542.52 828.63, 542.34 829.62, 542.16 830.61, 541.98 831.6, 541.8 832.59, 541.62 833.58, 541.44 834.57, 541.26 835.56, 541.08 836.55, 540.9 837.54, 540.72 838.53, 540.54 839.52, 540.36 840.51, 540.18 841.5, 540.0 842.49, 539.82 843.48, 539.64 844.47, 539.46 845.46, 539.28 846.45, 539.1 847.44, 538.92 848.43, 538.74 849.42, 538.56 850.41, 538.38 851.4, 538.2 852.39, 538.02 853.38, 537.84 854.37, 537.66 855.36, 537.48 856.35, 537.3 857.34, 537.12 858.33, 536.94 859.32, 536.76 860.31, 536.58 861.3, 536.4 862.29, 536.22 863.28, 536.04 864.27, 535.86 865.26, 535.68 866.25, 535.5 867.24, 535.32 868.23, 535.14 869.22, 534.96 870.21, 534.78 871.2, 534.6 872.19, 534.42 873.18, 534.24 874.17, 534.06 875.16, 533.88 876.15, 533.7 877.14, 533.52 878.13, 533.34 879.12, 533.16 880.11, 532.98 881.1, 532.8 882.09, 532.62 883.08, 532.44 884.07, 532.26 885.06, 532.08 886.05, 531.9 887.04, 531.72 888.03, 531.54 889.02, 531.36 890.01, 531.18 891.0, 531.0 891.99, 530.82 892.98, 530.64 893.97, 530.46 894.96, 530.28 895.95, 530.1 896.94, 529.92 897.93, 529.74 898.92, 529.56 899.91, 529.38 900.9, 529.2 901.89, 529.02 902.88, 528.84 903.87, 528.66 904.86, 528.48 905.85, 528.3 906.84, 528.12 907.83, 527.94 908.82, 527.76 909.81, 527.58 910.8, 527.4 911.79, 527.22 912.78, 527.04 913.77, 526.87 914.76, 526.69 915.75, 526.51 916.74, 526.33 917.73, 526.15 918.72, 525.97 919.71, 525.79 920.7, 525.61 921.69, 525.43 922.68, 525.25 923.67, 525.07 924.66, 524.89 925.65, 524.71 926.64, 524.53 927.63, 524.35 928.62, 524.17 929.61, 523.99 930.6, 523.81 931.59, 523.63 932.58, 523.45 933.57, 523.27 934.56, 523.09 935.55, 522.91 936.54, 522.73 937.53, 522.55 938.52, 522.37 939.51, 522.19 940.5, 522.01 941.49, 521.83 942.48, 521.65 943.47, 521.47 944.46, 521.29 945.45, 521.12 946.44, 520.94 947.43, 520.76 948.42, 520.58 949.41, 520.4 950.4, 520.22 951.39, 520.04 952.38, 519.86 953.37, 519.68 954.36, 519.5 955.35, 519.32 956.34, 519.14 957.33, 518.96 958.32, 518.78 959.31, 518.6 960.3, 518.42 961.29, 518.24 962.28, 518.06 963.27, 517.88 964.26, 517.71 965.25, 517.53 966.24, 517.35 967.23, 517.17 968.22, 516.99 969.21, 516.81 970.2, 516.63 971.19, 516.45 972.18, 516.27 973.17, 516.09 974.16, 515.91 975.15, 515.73 976.14, 515.55 977.13, 515.37 978.12, 515.2 979.11, 515.02 980.1, 514.84 981.09, 514.66 982.08, 514.48 983.07, 514.3 984.06, 514.12 985.05, 513.94 986.04, 513.76 987.03, 513.58 988.02, 513.4 989.01, 513.22 990.0, 513.04 " fill="none" stroke="yellow" stroke-width="1.5" stroke-linejoin="round" stroke-opacity="1"/>

 </svg> 
 </g> 

 </svg>