<svg version="1.1" 
 baseProfile="full" 
 width="1980" 
 height="1080" 
 xmlns="http://www.w3.org/2000/svg">
<rect x="0.0" y="0.0" width="1980" height="1080" fill="black" stroke="black" stroke-width="0" opacity="1"/>
<rect x="0.0" y="0.0" width="990.0" height="1080" fill="none" stroke="white" stroke-width="2.5" opacity="1"/>
<rect x="943.59375" y="266.35" width="92.8125" height="90.0" fill="white" stroke="black" stroke-width="1" opacity="1"/>
<line x1="990.0" y1="540.0" x2="990.0" y2="311.35" stroke="white" stroke-width="1" opacity="1" stroke-linecap="butt"/>
<line x1="495.0" y1="311.35" x2="990.0" y2="311.35" stroke="red" stroke-width="1" opacity="1" stroke-linecap="butt"/>
<g transform="translate(0.0 0.0)"> 
<svg version="1.1" 
 baseProfile="full" 
 width="990.0" 
 height="1080" 
 xmlns="http://www.w3.org/2000/svg">
<line x1="0.0" y1="0.0" x2="0.0" y2="1080.0" stroke="#A7A7A7" stroke-width="0.7" opacity="1" stroke-linecap="butt"/>
<line x1="49.5" y1="0.0" x2="49.5" y2="1080.0" stroke="#A7A7A7" stroke-width="0.7" opacity="1" stroke-linecap="butt"/>
<line x1="99.0" y1="0.0" x2="99.0" y2="1080.0" stroke="#A7A7A7" stroke-width="0.7" opacity="1" stroke-linecap="butt"/>
<line x1="148.5" y1="0.0" x2="148.5" y2="1080.0" stroke="#A7A7A7" stroke-width="0.7" opacity="1" stroke-linecap="butt"/>
<line x1="198.0" y1="0.0" x2="198.0" y2="1080.0" stroke="#A7A7A7" stroke-width="0.7" opacity="1" stroke-linecap="butt"/>
<line x1="247.5" y1="0.0" x2="247.5" y2="1080.0" stroke="#A7A7A7" stroke-width="0.7" opacity="1" stroke-linecap="butt"/>
<line x1="297.0" y1="0.0" x2="297.0" y2="1080.0" stroke="#A7A7A7" stroke-width="0.7" opacity="1" stroke-linecap="butt"/>
<line x1="346.5" y1="0.0" x2="346.5" y2="1080.0" stroke="#A7A7A7" stroke-width="0.7" opacity="1" stroke-linecap="butt"/>
<line x1="396.0" y1="0.0" x2="396.0" y2="1080.0" stroke="#A7A7A7" stroke-width="0.7" opacity="1" stroke-linecap="butt"/>
<line x1="445.5" y1="0.0" x2="445.5" y2="1080.0" stroke="#A7A7A7" stroke-width="0.7" opacity="1" stroke-linecap="butt"/>
<line x1="495.0" y1="0.0" x2="495.0" y2="1080.0" stroke="#A7A7A7" stroke-width="0.7" opacity="1" stroke-linecap="butt"/>
<line x1="544.5" y1="0.0" x2="544.5" y2="1080.0" stroke="#A7A7A7" stroke-width="0.7" opacity="1" stroke-linecap="butt"/>
<line x1="594.0" y1="0.0" x2="594.0" y2="1080.0" stroke="#A7A7A7" stroke-width="0.7" opacity="1" stroke-linecap="butt"/>
<line x1="643.5" y1="0.0" x2="643.5" y2="1080.0" stroke="#A7A7A7" stroke-width="0.7" opacity="1" stroke-linecap="butt"/>
<line x1="693.0" y1="0.0" x2="693.0" y2="1080.0" stroke="#A7A7A7" stroke-width="0.7" opacity="1" stroke-linecap="butt"/>
<line x1="742.5" y1="0.0" x2="742.5" y2="1080.0" stroke="#A7A7A7" stroke-width="0.7" opacity="1" stroke-linecap="butt"/>
<line x1="792.0" y1="0.0" x2="792.0" y2="1080.0" stroke="#A7A7A7" stroke-width="0.7" opacity="1" stroke-linecap="butt"/>
<line x1="841.5" y1="0.0" x2="841.5" y2="1080.0" stroke="#A7A7A7" stroke-width="0.7" opacity="1" stroke-linecap="butt"/>
<line x1="891.0" y1="0.0" x2="891.0" y2="1080.0" stroke="#A7A7A7" stroke-width="0.7" opacity="1" stroke-linecap="butt"/>
<line x1="940.5" y1="0.0" x2="940.5" y2="1080.0" stroke="#A7A7A7" stroke-width="0.7" opacity="1" stroke-linecap="butt"/>
<line x1="-0.0" y1="0.0" x2="990.0" y2="0.0" stroke="#A7A7A7" stroke-width="0.7" opacity="1" stroke-linecap="butt"/>
<line x1="-0.0" y1="54.0" x2="990.0" y2="54.0" stroke="#A7A7A7" stroke-width="0.7" opacity="1" stroke-linecap="butt"/>
<line x1="-0.0" y1="108.0" x2="990.0" y2="108.0" stroke="#A7A7A7" stroke-width="0.7" opacity="1" stroke-linecap="butt"/>
<line x1="-0.0" y1="162.0" x2="990.0" y2="162.0" stroke="#A7A7A7" stroke-width="0.7" opacity="1" stroke-linecap="butt"/>
<line x1="-0.0" y1="216.0" x2="990.0" y2="216.0" stroke="#A7A7A7" stroke-width="0.7" opacity="1" stroke-linecap="butt"/>
<line x1="-0.0" y1="270.0" x2="990.0" y2="270.0" stroke="#A7A7A7" stroke-width="0.7" opacity="1" stroke-linecap="butt"/>
<line x1="-0.0" y1="324.0" x2="990.0" y2="324.0" stroke="#A7A7A7" stroke-width="0.7" opacity="1" stroke-linecap="butt"/>
<line x1="-0.0" y1="378.0" x2="990.0" y2="378.0" stroke="#A7A7A7" stroke-width="0.7" opacity="1" stroke-linecap="butt"/>
<line x1="-0.0" y1="432.0" x2="990.0" y2="432.0" stroke="#A7A7A7" stroke-width="0.7" opacity="1" stroke-linecap="butt"/>
<line x1="-0.0" y1="486.0" x2="990.0" y2="486.0" stroke="#A7A7A7" stroke-width="0.7" opacity="1" stroke-linecap="butt"/>
<line x1="-0.0" y1="540.0" x2="990.0" y2="540.0" stroke="#A7A7A7" stroke-width="0.7" opacity="1" stroke-linecap="butt"/>
<line x1="-0.0" y1="594.0" x2="990.0" y2="594.0" stroke="#A7A7A7" stroke-width="0.7" opacity="1" stroke-linecap="butt"/>
<line x1="-0.0" y1="648.0" x2="990.0" y2="648.0" stroke="#A7A7A7" stroke-width="0.7" opacity="1" stroke-linecap="butt"/>
<line x1="-0.0" y1="702.0" x2="990.0" y2="702.0" stroke="#A7A7A7" stroke-width="0.7" opacity="1" stroke-linecap="butt"/>
<line x1="-0.0" y1="756.0" x2="990.0" y2="756.0" stroke="#A7A7A7" stroke-width="0.7" opacity="1" stroke-linecap="butt"/>
<line x1="-0.0" y1="810.0" x2="990.0" y2="810.0" stroke="#A7A7A7" stroke-width="0.7" opacity="1" stroke-linecap="butt"/>
<line x1="-0.0" y1="864.0" x2="990.0" y2="864.0" stroke="#A7A7A7" stroke-width="0.7" opacity="1" stroke-linecap="butt"/>
<line x1="-0.0" y1="918.0" x2="990.0" y2="918.0" stroke="#A7A7A7" stroke-width="0.7" opacity="1" stroke-linecap="butt"/>
<line x1="-0.0" y1="972.0" x2="990.0" y2="972.0" stroke="#A7A7A7" stroke-width="0.7" opacity="1" stroke-linecap="butt"/>
<line x1="-0.0" y1="1026.0" x2="990.0" y2="1026.0" stroke="#A7A7A7" stroke-width="0.7" opacity="1" stroke-linecap="butt"/>
<line x1="0.0" y1="540.0" x2="990.0" y2="540.0" stroke="yellow" stroke-width="1" opacity="1" stroke-linecap="butt"/>
<line x1="0.0" y1="0.0" x2="0.0" y2="1080.0" stroke="yellow" stroke-width="1" opacity="1" stroke-linecap="butt"/>
<polyline points="0.0, 745.79 0.99, 745.67 1.98, 745.55 2.97, 745.44 3.96, 745.32 4.95, 745.2 5.94, 745.09 6.93, 744.97 7.92, 744.85 8.91, 744.73 9.9, 744.62 10.89, 744.5 11.88, 744.38 12.87, 744.26 13.86, 744.15 14.85, 744.03 15.84, 743.91 16.83, 743.79 17.82, 743.68 18.81, 743.56 19.8, 743.44 20.79, 743.32 21.78, 743.2 22.77, 743.08 23.76, 742.96 24.75, 742.85 25.74, 742.73 26.73, 742.61 27.72, 742.49 28.71, 742.37 29.7, 742.25 30.69, 742.13 31.68, 742.01 32.67, 741.89 33.66, 741.77 34.65, 741.65 35.64, 741.53 36.63, 741.41 37.62, 741.29 38.61, 741.17 39.6, 741.05 40.59, 740.93 41.58, 740.81 42.57, 740.69 43.56, 740.57 44.55, 740.45 45.54, 740.33 46.53, 740.21 47.52, 740.09 48.51, 739.97 49.5, 739.85 50.49, 739.73 51.48, 739.61 52.47, 739.48 53.46, 739.36 54.45, 739.24 55.44, 739.12 56.43, 739.0 57.42, 738.88 58.41, 738.75 59.4, 738.63 60.39, 738.51 61.38, 738.39 62.37, 738.27 63.36, 738.14 64.35, 738.02 65.34, 737.9 66.33, 737.78 67.32, 737.65 68.31, 737.53 69.3, 737.41 70.29, 737.29 71.28, 737.16 72.27, 737.04 73.26, 736.92 74.25, 736.79 75.24, 736.67 76.23, 736.55 77.22, 736.42 78.21, 736.3 79.2, 736.18 80.19, 736.05 81.18, 735.93 82.17, 735.81 83.16, 735.68 84.15, 735.56 85.14, 735.43 86.13, 735.31 87.12, 735.18 88.11, 735.06 89.1, 734.94 90.09, 734.81 91.08, 734.69 92.07, 734.56 93.06, 734.44 94.05, 734.31 95.04, 734.19 96.03, 734.06 97.02, 733.94 98.01, 733.81 99.0, 733.69 99.99, 733.56 100.98, 733.44 101.97, 733.31 102.96, 733.18 103.95, 733.06 104.94, 732.93 105.93, 732.81 106.92, 732.68 107.91, 732.55 108.9, 732.43 109.89, 732.3 110.88, 732.18 111.87, 732.05 112.86, 731.92 113.85, 731.8 114.84, 731.67 115.83, 731.54 116.82, 731.41 117.81, 731.29 118.8, 731.16 119.79, 731.03 120.78, 730.91 121.77, 730.78 122.76, 730.65 123.75, 730.52 124.74, 730.4 125.73, 730.27 126.72, 730.14 127.71, 730.01 128.7, 729.89 129.69, 729.76 130.68, 729.63 131.67, 729.5 132.66, 729.37 133.65, 729.24 134.64, 729.12 135.63, 728.99 136.62, 728.86 137.61, 728.73 138.6, 728.6 139.59, 728.47 140.58, 728.34 141.57, 728.21 142.56, 728.09 143.55, 727.96 144.54, 727.83 145.53, 727.7 146.52, 727.57 147.51, 727.44 148.5, 727.31 149.49, 727.18 150.48, 727.05 151.47, 726.92 152.46, 726.79 153.45, 726.66 154.44, 726.53 155.43, 726.4 156.42, 726.27 157.41, 726.14 158.4, 726.01 159.39, 725.88 160.38, 725.75 161.37, 725.62 162.36, 725.49 163.35, 725.36 164.34, 725.22 165.33, 725.09 166.32, 724.96 167.31, 724.83 168.3, 724.7 169.29, 724.57 170.28, 724.44 171.27, 724.31 172.26, 724.17 173.25, 724.04 174.24, 723.91 175.23, 723.78 176.22, 723.65 177.21, 723.51 178.2, 723.38 179.19, 723.25 180.18, 723.12 181.17, 722.99 182.16, 722.85 183.15, 722.72 184.14, 722.59 185.13, 722.46 186.12, 722.32 187.11, 722.19 188.1, 722.06 189.09, 721.92 190.08, 721.79 191.07, 721.66 192.06, 721.53 193.05, 721.39 194.04, 721.26 195.03, 721.13 196.02, 720.99 197.01, 720.86 198.0, 720.72 198.99, 720.59 199.98, 720.46 200.97, 720.32 201.96, 720.19 202.95, 720.05 203.94, 719.92 204.93, 719.79 205.92, 719.65 206.91, 719.52 207.9, 719.38 208.89, 719.25 209.88, 719.11 210.87, 718.98 211.86, 718.84 212.85, 718.71 213.84, 718.57 214.83, 718.44 215.82, 718.3 216.81, 718.17 217.8, 718.03 218.79, 717.9 219.78, 717.76 220.77, 717.63 221.76, 717.49 222.75, 717.36 223.74, 717.22 224.73, 717.08 225.72, 716.95 226.71, 716.81 227.7, 716.68 228.69, 716.54 229.68, 716.4 230.67, 716.27 231.66, 716.13 232.65, 716.0 233.64, 715.86 234.63, 715.72 235.62, 715.59 236.61, 715.45 237.6, 715.31 238.59, 715.17 239.58, 715.04 240.57, 714.9 241.56, 714.76 242.55, 714.63 243.54, 714.49 244.53, 714.35 245.52, 714.21 246.51, 714.08 247.5, 713.94 248.49, 713.8 249.48, 713.66 250.47, 713.53 251.46, 713.39 252.45, 713.25 253.44, 713.11 254.43, 712.97 255.42, 712.83 256.41, 712.7 257.4, 712.56 258.39, 712.42 259.38, 712.28 260.37, 712.14 261.36, 712.0 262.35, 711.87 263.34, 711.73 264.33, 711.59 265.32, 711.45 266.31, 711.31 267.3, 711.17 268.29, 711.03 269.28, 710.89 270.27, 710.75 271.26, 710.61 272.25, 710.47 273.24, 710.33 274.23, 710.19 275.22, 710.05 276.21, 709.91 277.2, 709.77 278.19, 709.63 279.18, 709.49 280.17, 709.35 281.16, 709.21 282.15, 709.07 283.14, 708.93 284.13, 708.79 285.12, 708.65 286.11, 708.51 287.1, 708.37 288.09, 708.23 289.08, 708.09 290.07, 707.95 291.06, 707.81 292.05, 707.67 293.04, 707.53 294.03, 707.38 295.02, 707.24 296.01, 707.1 297.0, 706.96 297.99, 706.82 298.98, 706.68 299.97, 706.54 300.96, 706.39 301.95, 706.25 302.94, 706.11 303.93, 705.97 304.92, 705.83 305.91, 705.68 306.9, 705.54 307.89, 705.4 308.88, 705.26 309.87, 705.11 310.86, 704.97 311.85, 704.83 312.84, 704.69 313.83, 704.54 314.82, 704.4 315.81, 704.26 316.8, 704.12 317.79, 703.97 318.78, 703.83 319.77, 703.69 320.76, 703.54 321.75, 703.4 322.74, 703.26 323.73, 703.11 324.72, 702.97 325.71, 702.83 326.7, 702.68 327.69, 702.54 328.68, 702.4 329.67, 702.25 330.66, 702.11 331.65, 701.96 332.64, 701.82 333.63, 701.68 334.62, 701.53 335.61, 701.39 336.6, 701.24 337.59, 701.1 338.58, 700.95 339.57, 700.81 340.56, 700.66 341.55, 700.52 342.54, 700.38 343.53, 700.23 344.52, 700.09 345.51, 699.94 346.5, 699.8 347.49, 699.65 348.48, 699.51 349.47, 699.36 350.46, 699.21 351.45, 699.07 352.44, 698.92 353.43, 698.78 354.42, 698.63 355.41, 698.49 356.4, 698.34 357.39, 698.2 358.38, 698.05 359.37, 697.9 360.36, 697.76 361.35, 697.61 362.34, 697.46 363.33, 697.32 364.32, 697.17 365.31, 697.03 366.3, 696.88 367.29, 696.73 368.28, 696.59 369.27, 696.44 370.26, 696.29 371.25, 696.15 372.24, 696.0 373.23, 695.85 374.22, 695.71 375.21, 695.56 376.2, 695.41 377.19, 695.26 378.18, 695.12 379.17, 694.97 380.16, 694.82 381.15, 694.67 382.14, 694.53 383.13, 694.38 384.12, 694.23 385.11, 694.08 386.1, 693.94 387.09, 693.79 388.08, 693.64 389.07, 693.49 390.06, 693.34 391.05, 693.2 392.04, 693.05 393.03, 692.9 394.02, 692.75 395.01, 692.6 396.0, 692.45 396.99, 692.3 397.98, 692.16 398.97, 692.01 399.96, 691.86 400.95, 691.71 401.94, 691.56 402.93, 691.41 403.92, 691.26 404.91, 691.11 405.9, 690.96 406.89, 690.82 407.88, 690.67 408.87, 690.52 409.86, 690.37 410.85, 690.22 411.84, 690.07 412.83, 689.92 413.82, 689.77 414.81, 689.62 415.8, 689.47 416.79, 689.32 417.78, 689.17 418.77, 689.02 419.76, 688.87 420.75, 688.72 421.74, 688.57 422.73, 688.42 423.72, 688.27 424.71, 688.12 425.7, 687.97 426.69, 687.82 427.68, 687.67 428.67, 687.51 429.66, 687.36 430.65, 687.21 431.64, 687.06 432.63, 686.91 433.62, 686.76 434.61, 686.61 435.6, 686.46 436.59, 686.31 437.58, 686.15 438.57, 686.0 439.56, 685.85 440.55, 685.7 441.54, 685.55 442.53, 685.4 443.52, 685.25 444.51, 685.09 445.5, 684.94 446.49, 684.79 447.48, 684.64 448.47, 684.49 449.46, 684.33 450.45, 684.18 451.44, 684.03 452.43, 683.88 453.42, 683.73 454.41, 683.57 455.4, 683.42 456.39, 683.27 457.38, 683.12 458.37, 682.96 459.36, 682.81 460.35, 682.66 461.34, 682.5 462.33, 682.35 463.32, 682.2 464.31, 682.05 465.3, 681.89 466.29, 681.74 467.28, 681.59 468.27, 681.43 469.26, 681.28 470.25, 681.13 471.24, 680.97 472.23, 680.82 473.22, 680.66 474.21, 680.51 475.2, 680.36 476.19, 680.2 477.18, 680.05 478.17, 679.9 479.16, 679.74 480.15, 679.59 481.14, 679.43 482.13, 679.28 483.12, 679.13 484.11, 678.97 485.1, 678.82 486.09, 678.66 487.08, 678.51 488.07, 678.35 489.06, 678.2 490.05, 678.04 491.04, 677.89 492.03, 677.73 493.02, 677.58 494.01, 677.42 495.0, 677.27 495.99, 677.11 496.98, 676.96 497.97, 676.8 498.96, 676.65 499.95, 676.49 500.94, 676.34 501.93, 676.18 502.92, 676.03 503.91, 675.87 504.9, 675.72 505.89, 675.56 506.88, 675.41 507.87, 675.25 508.86, 675.09 509.85, 674.94 510.84, 674.78 511.83, 674.63 512.82, 674.47 513.81, 674.31 514.8, 674.16 515.79, 674.0 516.78, 673.85 517.77, 673.69 518.76, 673.53 519.75, 673.38 520.74, 673.22 521.73, 673.06 522.72, 672.91 523.71, 672.75 524.7, 672.59 525.69, 672.44 526.68, 672.28 527.67, 672.12 528.66, 671.96 529.65, 671.81 530.64, 671.65 531.63, 671.49 532.62, 671.34 533.61, 671.18 534.6, 671.02 535.59, 670.86 536.58, 670.71 537.57, 670.55 538.56, 670.39 539.55, 670.23 540.54, 670.08 541.53, 669.92 542.52, 669.76 543.51, 669.6 544.5, 669.44 545.49, 669.29 546.48, 669.13 547.47, 668.97 548.46, 668.81 549.45, 668.65 550.44, 668.5 551.43, 668.34 552.42, 668.18 553.41, 668.02 554.4, 667.86 555.39, 667.7 556.38, 667.55 557.37, 667.39 558.36, 667.23 559.35, 667.07 560.34, 666.91 561.33, 666.75 562.32, 666.59 563.31, 666.43 564.3, 666.27 565.29, 666.12 566.28, 665.96 567.27, 665.8 568.26, 665.64 569.25, 665.48 570.24, 665.32 571.23, 665.16 572.22, 665.0 573.21, 664.84 574.2, 664.68 575.19, 664.52 576.18, 664.36 577.17, 664.2 578.16, 664.04 579.15, 663.88 580.14, 663.72 581.13, 663.56 582.12, 663.4 583.11, 663.24 584.1, 663.08 585.09, 662.92 586.08, 662.76 587.07, 662.6 588.06, 662.44 589.05, 662.28 590.04, 662.12 591.03, 661.96 592.02, 661.8 593.01, 661.64 594.0, 661.48 594.99, 661.32 595.98, 661.15 596.97, 660.99 597.96, 660.83 598.95, 660.67 599.94, 660.51 600.93, 660.35 601.92, 660.19 602.91, 660.03 603.9, 659.87 604.89, 659.7 605.88, 659.54 606.87, 659.38 607.86, 659.22 608.85, 659.06 609.84, 658.9 610.83, 658.74 611.82, 658.57 612.81, 658.41 613.8, 658.25 614.79, 658.09 615.78, 657.93 616.77, 657.76 617.76, 657.6 618.75, 657.44 619.74, 657.28 620.73, 657.12 621.72, 656.95 622.71, 656.79 623.7, 656.63 624.69, 656.47 625.68, 656.3 626.67, 656.14 627.66, 655.98 628.65, 655.82 629.64, 655.65 630.63, 655.49 631.62, 655.33 632.61, 655.17 633.6, 655.0 634.59, 654.84 635.58, 654.68 636.57, 654.51 637.56, 654.35 638.55, 654.19 639.54, 654.03 640.53, 653.86 641.52, 653.7 642.51, 653.54 643.5, 653.37 644.49, 653.21 645.48, 653.05 646.47, 652.88 647.46, 652.72 648.45, 652.56 649.44, 652.39 650.43, 652.23 651.42, 652.06 652.41, 651.9 653.4, 651.74 654.39, 651.57 655.38, 651.41 656.37, 651.24 657.36, 651.08 658.35, 650.92 659.34, 650.75 660.33, 650.59 661.32, 650.42 662.31, 650.26 663.3, 650.1 664.29, 649.93 665.28, 649.77 666.27, 649.6 667.26, 649.44 668.25, 649.27 669.24, 649.11 670.23, 648.94 671.22, 648.78 672.21, 648.61 673.2, 648.45 674.19, 648.28 675.18, 648.12 676.17, 647.95 677.16, 647.79 678.15, 647.62 679.14, 647.46 680.13, 647.29 681.12, 647.13 682.11, 646.96 683.1, 646.8 684.09, 646.63 685.08, 646.47 686.07, 646.3 687.06, 646.14 688.05, 645.97 689.04, 645.81 690.03, 645.64 691.02, 645.47 692.01, 645.31 693.0, 645.14 693.99, 644.98 694.98, 644.81 695.97, 644.65 696.96, 644.48 697.95, 644.31 698.94, 644.15 699.93, 643.98 700.92, 643.82 701.91, 643.65 702.9, 643.48 703.89, 643.32 704.88, 643.15 705.87, 642.98 706.86, 642.82 707.85, 642.65 708.84, 642.48 709.83, 642.32 710.82, 642.15 711.81, 641.98 712.8, 641.82 713.79, 641.65 714.78, 641.48 715.77, 641.32 716.76, 641.15 717.75, 640.98 718.74, 640.82 719.73, 640.65 720.72, 640.48 721.71, 640.32 722.7, 640.15 723.69, 639.98 724.68, 639.81 725.67, 639.65 726.66, 639.48 727.65, 639.31 728.64, 639.14 729.63, 638.98 730.62, 638.81 731.61, 638.64 732.6, 638.47 733.59, 638.31 734.58, 638.14 735.57, 637.97 736.56, 637.8 737.55, 637.64 738.54, 637.47 739.53, 637.3 740.52, 637.13 741.51, 636.96 742.5, 636.8 743.49, 636.63 744.48, 636.46 745.47, 636.29 746.46, 636.12 747.45, 635.96 748.44, 635.79 749.43, 635.62 750.42, 635.45 751.41, 635.28 752.4, 635.11 753.39, 634.95 754.38, 634.78 755.37, 634.61 756.36, 634.44 757.35, 634.27 758.34, 634.1 759.33, 633.93 760.32, 633.77 761.31, 633.6 762.3, 633.43 763.29, 633.26 764.28, 633.09 765.27, 632.92 766.26, 632.75 767.25, 632.58 768.24, 632.41 769.23, 632.24 770.22, 632.07 771.21, 631.91 772.2, 631.74 773.19, 631.57 774.18, 631.4 775.17, 631.23 776.16, 631.06 777.15, 630.89 778.14, 630.72 779.13, 630.55 780.12, 630.38 781.11, 630.21 782.1, 630.04 783.09, 629.87 784.08, 629.7 785.07, 629.53 786.06, 629.36 787.05, 629.19 788.04, 629.02 789.03, 628.85 790.02, 628.68 791.01, 628.51 792.0, 628.34 792.99, 628.17 793.98, 628.0 794.97, 627.83 795.96, 627.66 796.95, 627.49 797.94, 627.32 798.93, 627.15 799.92, 626.98 800.91, 626.81 801.9, 626.64 802.89, 626.47 803.88, 626.3 804.87, 626.13 805.86, 625.96 806.85, 625.79 807.84, 625.62 808.83, 625.45 809.82, 625.27 810.81, 625.1 811.8, 624.93 812.79, 624.76 813.78, 624.59 814.77, 624.42 815.76, 624.25 816.75, 624.08 817.74, 623.91 818.73, 623.74 819.72, 623.56 820.71, 623.39 821.7, 623.22 822.69, 623.05 823.68, 622.88 824.67, 622.71 825.66, 622.54 826.65, 622.37 827.64, 622.19 828.63, 622.02 829.62, 621.85 830.61, 621.68 831.6, 621.51 832.59, 621.34 833.58, 621.16 834.57, 620.99 835.56, 620.82 836.55, 620.65 837.54, 620.48 838.53, 620.31 839.52, 620.13 840.51, 619.96 841.5, 619.79 842.49, 619.62 843.48, 619.45 844.47, 619.27 845.46, 619.1 846.45, 618.93 847.44, 618.76 848.43, 618.59 849.42, 618.41 850.41, 618.24 851.4, 618.07 852.39, 617.9 853.38, 617.72 854.37, 617.55 855.36, 617.38 856.35, 617.21 857.34, 617.03 858.33, 616.86 859.32, 616.69 860.31, 616.52 861.3, 616.34 862.29, 616.17 863.28, 616.0 864.27, 615.83 865.26, 615.65 866.25, 615.48 867.24, 615.31 868.23, 615.13 869.22, 614.96 870.21, 614.79 871.2, 614.62 872.19, 614.44 873.18, 614.27 874.17, 614.1 875.16, 613.92 876.15, 613.75 877.14, 613.58 878.13, 613.4 879.12, 613.23 880.11, 613.06 881.1, 612.88 882.09, 612.71 883.08, 612.54 884.07, 612.36 885.06, 612.19 886.05, 612.02 887.04, 611.84 888.03, 611.67 889.02, 611.5 890.01, 611.32 891.0, 611.15 891.99, 610.98 892.98, 610.8 893.97, 610.63 894.96, 610.45 895.95, 610.28 896.94, 610.11 897.93, 609.93 898.92, 609.76 899.91, 609.59 900.9, 609.41 901.89, 609.24 902.88, 609.06 903.87, 608.89 904.86, 608.72 905.85, 608.54 906.84, 608.37 907.83, 608.19 908.82, 608.02 909.81, 607.84 910.8, 607.67 911.79, 607.5 912.78, 607.32 913.77, 607.15 914.76, 606.97 915.75, 606.8 916.74, 606.62 917.73, 606.45 918.72, 606.28 919.71, 606.1 920.7, 605.93 921.69, 605.75 922.68, 605.58 923.67, 605.4 924.66, 605.23 925.65, 605.05 926.64, 604.88 927.63, 604.7 928.62, 604.53 929.61, 604.35 930.6, 604.18 931.59, 604.0 932.58, 603.83 933.57, 603.66 934.56, 603.48 935.55, 603.31 936.54, 603.13 937.53, 602.96 938.52, 602.78 939.51, 602.6 940.5, 602.43 941.49, 602.25 942.48, 602.08 943.47, 601.9 944.46, 601.73 945.45, 601.55 946.44, 601.38 947.43, 601.2 948.42, 601.03 949.41, 600.85 950.4, 600.68 951.39, 600.5 952.38, 600.33 953.37, 600.15 954.36, 599.98 955.35, 599.8 956.34, 599.62 957.33, 599.45 958.32, 599.27 959.31, 599.1 960.3, 598.92 961.29, 598.75 962.28, 598.57 963.27, 598.39 964.26, 598.22 965.25, 598.04 966.24, 597.87 967.23, 597.69 968.22, 597.52 969.21, 597.34 970.2, 597.16 971.19, 596.99 972.18, 596.81 973.17, 596.64 974.16, 596.46 975.15, 596.28 976.14, 596.11 977.13, 595.93 978.12, 595.76 979.11, 595.58 980.1, 595.4 981.09, 595.23 982.08, 595.05 983.07, 594.88 984.06, 594.7 985.05, 594.52 986.04, 594.35 987.03, 594.17 988.02, 593.99 989.01, 593.82 990.0, 593.64 " fill="none" stroke="yellow" stroke-width="1.5" stroke-linejoin="round" stroke-opacity="1"/>

 </svg> 
 </g> 

 </svg>