<svg version="1.1" 
 baseProfile="full" 
 width="1980" 
 height="1080" 
 xmlns="http://www.w3.org/2000/svg">
<rect x="0.0" y="0.0" width="1980" height="1080" fill="black" stroke="black" stroke-width="0" opacity="1"/>
<rect x="0.0" y="0.0" width="990.0" height="1080" fill="none" stroke="white" stroke-width="2.5" opacity="1"/>
<rect x="943.59375" y="227.64" width="92.8125" height="90.0" fill="white" stroke="black" stroke-width="1" opacity="1"/>
<line x1="990.0" y1="540.0" x2="990.0" y2="272.64" stroke="white" stroke-width="1" opacity="1" stroke-linecap="butt"/>
<line x1="495.0" y1="272.64" x2="990.0" y2="272.64" stroke="red" stroke-width="1" opacity="1" stroke-linecap="butt"/>
<g transform="translate(0.0 0.0)"> 
<svg version="1.1" 
 baseProfile="full" 
 width="990.0" 
 height="1080" 
 xmlns="http://www.w3.org/2000/svg">
<line x1="0.0" y1="0.0" x2="0.0" y2="1080.0" stroke="#A7A7A7" stroke-width="0.7" opacity="1" stroke-linecap="butt"/>
<line x1="49.5" y1="0.0" x2="49.5" y2="1080.0" stroke="#A7A7A7" stroke-width="0.7" opacity="1" stroke-linecap="butt"/>
<line x1="99.0" y1="0.0" x2="99.0" y2="1080.0" stroke="#A7A7A7" stroke-width="0.7" opacity="1" stroke-linecap="butt"/>
<line x1="148.5" y1="0.0" x2="148.5" y2="1080.0" stroke="#A7A7A7" stroke-width="0.7" opacity="1" stroke-linecap="butt"/>
<line x1="198.0" y1="0.0" x2="198.0" y2="1080.0" stroke="#A7A7A7" stroke-width="0.7" opacity="1" stroke-linecap="butt"/>
<line x1="247.5" y1="0.0" x2="247.5" y2="1080.0" stroke="#A7A7A7" stroke-width="0.7" opacity="1" stroke-linecap="butt"/>
<line x1="297.0" y1="0.0" x2="297.0" y2="1080.0" stroke="#A7A7A7" stroke-width="0.7" opacity="1" stroke-linecap="butt"/>
<line x1="346.5" y1="0.0" x2="346.5" y2="1080.0" stroke="#A7A7A7" stroke-width="0.7" opacity="1" stroke-linecap="butt"/>
<line x1="396.0" y1="0.0" x2="396.0" y2="1080.0" stroke="#A7A7A7" stroke-width="0.7" opacity="1" stroke-linecap="butt"/>
<line x1="445.5" y1="0.0" x2="445.5" y2="1080.0" stroke="#A7A7A7" stroke-width="0.7" opacity="1" stroke-linecap="butt"/>
<line x1="495.0" y1="0.0" x2="495.0" y2="1080.0" stroke="#A7A7A7" stroke-width="0.7" opacity="1" stroke-linecap="butt"/>
<line x1="544.5" y1="0.0" x2="544.5" y2="1080.0" stroke="#A7A7A7" stroke-width="0.7" opacity="1" stroke-linecap="butt"/>
<line x1="594.0" y1="0.0" x2="594.0" y2="1080.0" stroke="#A7A7A7" stroke-width="0.7" opacity="1" stroke-linecap="butt"/>
<line x1="643.5" y1="0.0" x2="643.5" y2="1080.0" stroke="#A7A7A7" stroke-width="0.7" opacity="1" stroke-linecap="butt"/>
<line x1="693.0" y1="0.0" x2="693.0" y2="1080.0" stroke="#A7A7A7" stroke-width="0.7" opacity="1" stroke-linecap="butt"/>
<line x1="742.5" y1="0.0" x2="742.5" y2="1080.0" stroke="#A7A7A7" stroke-width="0.7" opacity="1" stroke-linecap="butt"/>
<line x1="792.0" y1="0.0" x2="792.0" y2="1080.0" stroke="#A7A7A7" stroke-width="0.7" opacity="1" stroke-linecap="butt"/>
<line x1="841.5" y1="0.0" x2="841.5" y2="1080.0" stroke="#A7A7A7" stroke-width="0.7" opacity="1" stroke-linecap="butt"/>
<line x1="891.0" y1="0.0" x2="891.0" y2="1080.0" stroke="#A7A7A7" stroke-width="0.7" opacity="1" stroke-linecap="butt"/>
<line x1="940.5" y1="0.0" x2="940.5" y2="1080.0" stroke="#A7A7A7" stroke-width="0.7" opacity="1" stroke-linecap="butt"/>
<line x1="-0.0" y1="0.0" x2="990.0" y2="0.0" stroke="#A7A7A7" stroke-width="0.7" opacity="1" stroke-linecap="butt"/>
<line x1="-0.0" y1="54.0" x2="990.0" y2="54.0" stroke="#A7A7A7" stroke-width="0.7" opacity="1" stroke-linecap="butt"/>
<line x1="-0.0" y1="108.0" x2="990.0" y2="108.0" stroke="#A7A7A7" stroke-width="0.7" opacity="1" stroke-linecap="butt"/>
<line x1="-0.0" y1="162.0" x2="990.0" y2="162.0" stroke="#A7A7A7" stroke-width="0.7" opacity="1" stroke-linecap="butt"/>
<line x1="-0.0" y1="216.0" x2="990.0" y2="216.0" stroke="#A7A7A7" stroke-width="0.7" opacity="1" stroke-linecap="butt"/>
<line x1="-0.0" y1="270.0" x2="990.0" y2="270.0" stroke="#A7A7A7" stroke-width="0.7" opacity="1" stroke-linecap="butt"/>
<line x1="-0.0" y1="324.0" x2="990.0" y2="324.0" stroke="#A7A7A7" stroke-width="0.7" opacity="1" stroke-linecap="butt"/>
<line x1="-0.0" y1="378.0" x2="990.0" y2="378.0" stroke="#A7A7A7" stroke-width="0.7" opacity="1" stroke-linecap="butt"/>
<line x1="-0.0" y1="432.0" x2="990.0" y2="432.0" stroke="#A7A7A7" stroke-width="0.7" opacity="1" stroke-linecap="butt"/>
<line x1="-0.0" y1="486.0" x2="990.0" y2="486.0" stroke="#A7A7A7" stroke-width="0.7" opacity="1" stroke-linecap="butt"/>
<line x1="-0.0" y1="540.0" x2="990.0" y2="540.0" stroke="#A7A7A7" stroke-width="0.7" opacity="1" stroke-linecap="butt"/>
<line x1="-0.0" y1="594.0" x2="990.0" y2="594.0" stroke="#A7A7A7" stroke-width="0.7" opacity="1" stroke-linecap="butt"/>
<line x1="-0.0" y1="648.0" x2="990.0" y2="648.0" stroke="#A7A7A7" stroke-width="0.7" opacity="1" stroke-linecap="butt"/>
<line x1="-0.0" y1="702.0" x2="990.0" y2="702.0" stroke="#A7A7A7" stroke-width="0.7" opacity="1" stroke-linecap="butt"/>
<line x1="-0.0" y1="756.0" x2="990.0" y2="756.0" stroke="#A7A7A7" stroke-width="0.7" opacity="1" stroke-linecap="butt"/>
<line x1="-0.0" y1="810.0" x2="990.0" y2="810.0" stroke="#A7A7A7" stroke-width="0.7" opacity="1" stroke-linecap="butt"/>
<line x1="-0.0" y1="864.0" x2="990.0" y2="864.0" stroke="#A7A7A7" stroke-width="0.7" opacity="1" stroke-linecap="butt"/>
<line x1="-0.0" y1="918.0" x2="990.0" y2="918.0" stroke="#A7A7A7" stroke-width="0.7" opacity="1" stroke-linecap="butt"/>
<line x1="-0.0" y1="972.0" x2="990.0" y2="972.0" stroke="#A7A7A7" stroke-width="0.7" opacity="1" stroke-linecap="butt"/>
<line x1="-0.0" y1="1026.0" x2="990.0" y2="1026.0" stroke="#A7A7A7" stroke-width="0.7" opacity="1" stroke-linecap="butt"/>
<line x1="0.0" y1="540.0" x2="990.0" y2="540.0" stroke="yellow" stroke-width="1" opacity="1" stroke-linecap="butt"/>
<line x1="0.0" y1="0.0" x2="0.0" y2="1080.0" stroke="yellow" stroke-width="1" opacity="1" stroke-linecap="butt"/>
<polyline points="0.0, 780.63 0.99, 780.54 1.98, 780.46 2.97, 780.38 3.96, 780.3 4.95, 780.22 5.94, 780.13 6.93, 780.05 7.92, 779.97 8.91, 779.89 9.9, 779.8 10.89, 779.72 11.88, 779.64 12.87, 779.56 13.86, 779.47 14.85, 779.39 15.84, 779.31 16.83, 779.22 17.82, 779.14 18.81, 779.06 19.8, 778.97 20.79, 778.89 21.78, 778.8 22.77, 778.72 23.76, 778.64 24.75, 778.55 25.74, 778.47 26.73, 778.38 27.72, 778.3 28.71, 778.21 29.7, 778.13 30.69, 778.04 31.68, 777.96 32.67, 777.87 33.66, 777.79 34.65, 777.7 35.64, 777.62 36.63, 777.53 37.62, 777.45 38.61, 777.36 39.6, 777.27 40.59, 777.19 41.58, 777.1 42.57, 777.02 43.56, 776.93 44.55, 776.84 45.54, 776.76 46.53, 776.67 47.52, 776.58 48.51, 776.5 49.5, 776.41 50.49, 776.32 51.48, 776.24 52.47, 776.15 53.46, 776.06 54.45, 775.97 55.44, 775.89 56.43, 775.8 57.42, 775.71 58.41, 775.62 59.4, 775.54 60.39, 775.45 61.38, 775.36 62.37, 775.27 63.36, 775.18 64.35, 775.09 65.34, 775.01 66.33, 774.92 67.32, 774.83 68.31, 774.74 69.3, 774.65 70.29, 774.56 71.28, 774.47 72.27, 774.38 73.26, 774.29 74.25, 774.2 75.24, 774.11 76.23, 774.02 77.22, 773.94 78.21, 773.85 79.2, 773.76 80.19, 773.67 81.18, 773.57 82.17, 773.48 83.16, 773.39 84.15, 773.3 85.14, 773.21 86.13, 773.12 87.12, 773.03 88.11, 772.94 89.1, 772.85 90.09, 772.76 91.08, 772.67 92.07, 772.58 93.06, 772.48 94.05, 772.39 95.04, 772.3 96.03, 772.21 97.02, 772.12 98.01, 772.02 99.0, 771.93 99.99, 771.84 100.98, 771.75 101.97, 771.66 102.96, 771.56 103.95, 771.47 104.94, 771.38 105.93, 771.29 106.92, 771.19 107.91, 771.1 108.9, 771.01 109.89, 770.91 110.88, 770.82 111.87, 770.73 112.86, 770.63 113.85, 770.54 114.84, 770.45 115.83, 770.35 116.82, 770.26 117.81, 770.16 118.8, 770.07 119.79, 769.97 120.78, 769.88 121.77, 769.79 122.76, 769.69 123.75, 769.6 124.74, 769.5 125.73, 769.41 126.72, 769.31 127.71, 769.22 128.7, 769.12 129.69, 769.03 130.68, 768.93 131.67, 768.84 132.66, 768.74 133.65, 768.64 134.64, 768.55 135.63, 768.45 136.62, 768.36 137.61, 768.26 138.6, 768.16 139.59, 768.07 140.58, 767.97 141.57, 767.88 142.56, 767.78 143.55, 767.68 144.54, 767.59 145.53, 767.49 146.52, 767.39 147.51, 767.29 148.5, 767.2 149.49, 767.1 150.48, 767.0 151.47, 766.9 152.46, 766.81 153.45, 766.71 154.44, 766.61 155.43, 766.51 156.42, 766.42 157.41, 766.32 158.4, 766.22 159.39, 766.12 160.38, 766.02 161.37, 765.92 162.36, 765.83 163.35, 765.73 164.34, 765.63 165.33, 765.53 166.32, 765.43 167.31, 765.33 168.3, 765.23 169.29, 765.13 170.28, 765.03 171.27, 764.93 172.26, 764.83 173.25, 764.73 174.24, 764.63 175.23, 764.53 176.22, 764.43 177.21, 764.33 178.2, 764.23 179.19, 764.13 180.18, 764.03 181.17, 763.93 182.16, 763.83 183.15, 763.73 184.14, 763.63 185.13, 763.53 186.12, 763.43 187.11, 763.33 188.1, 763.23 189.09, 763.13 190.08, 763.02 191.07, 762.92 192.06, 762.82 193.05, 762.72 194.04, 762.62 195.03, 762.52 196.02, 762.41 197.01, 762.31 198.0, 762.21 198.99, 762.11 199.98, 762.0 200.97, 761.9 201.96, 761.8 202.95, 761.7 203.94, 761.59 204.93, 761.49 205.92, 761.39 206.91, 761.28 207.9, 761.18 208.89, 761.08 209.88, 760.98 210.87, 760.87 211.86, 760.77 212.85, 760.66 213.84, 760.56 214.83, 760.46 215.82, 760.35 216.81, 760.25 217.8, 760.14 218.79, 760.04 219.78, 759.94 220.77, 759.83 221.76, 759.73 222.75, 759.62 223.74, 759.52 224.73, 759.41 225.72, 759.31 226.71, 759.2 227.7, 759.1 228.69, 758.99 229.68, 758.89 230.67, 758.78 231.66, 758.68 232.65, 758.57 233.64, 758.46 234.63, 758.36 235.62, 758.25 236.61, 758.15 237.6, 758.04 238.59, 757.93 239.58, 757.83 240.57, 757.72 241.56, 757.62 242.55, 757.51 243.54, 757.4 244.53, 757.3 245.52, 757.19 246.51, 757.08 247.5, 756.97 248.49, 756.87 249.48, 756.76 250.47, 756.65 251.46, 756.54 252.45, 756.44 253.44, 756.33 254.43, 756.22 255.42, 756.11 256.41, 756.01 257.4, 755.9 258.39, 755.79 259.38, 755.68 260.37, 755.57 261.36, 755.47 262.35, 755.36 263.34, 755.25 264.33, 755.14 265.32, 755.03 266.31, 754.92 267.3, 754.81 268.29, 754.7 269.28, 754.59 270.27, 754.48 271.26, 754.38 272.25, 754.27 273.24, 754.16 274.23, 754.05 275.22, 753.94 276.21, 753.83 277.2, 753.72 278.19, 753.61 279.18, 753.5 280.17, 753.39 281.16, 753.28 282.15, 753.17 283.14, 753.06 284.13, 752.94 285.12, 752.83 286.11, 752.72 287.1, 752.61 288.09, 752.5 289.08, 752.39 290.07, 752.28 291.06, 752.17 292.05, 752.06 293.04, 751.95 294.03, 751.83 295.02, 751.72 296.01, 751.61 297.0, 751.5 297.99, 751.39 298.98, 751.27 299.97, 751.16 300.96, 751.05 301.95, 750.94 302.94, 750.83 303.93, 750.71 304.92, 750.6 305.91, 750.49 306.9, 750.37 307.89, 750.26 308.88, 750.15 309.87, 750.04 310.86, 749.92 311.85, 749.81 312.84, 749.7 313.83, 749.58 314.82, 749.47 315.81, 749.36 316.8, 749.24 317.79, 749.13 318.78, 749.01 319.77, 748.9 320.76, 748.79 321.75, 748.67 322.74, 748.56 323.73, 748.44 324.72, 748.33 325.71, 748.21 326.7, 748.1 327.69, 747.98 328.68, 747.87 329.67, 747.76 330.66, 747.64 331.65, 747.52 332.64, 747.41 333.63, 747.29 334.62, 747.18 335.61, 747.06 336.6, 746.95 337.59, 746.83 338.58, 746.72 339.57, 746.6 340.56, 746.48 341.55, 746.37 342.54, 746.25 343.53, 746.14 344.52, 746.02 345.51, 745.9 346.5, 745.79 347.49, 745.67 348.48, 745.55 349.47, 745.44 350.46, 745.32 351.45, 745.2 352.44, 745.09 353.43, 744.97 354.42, 744.85 355.41, 744.73 356.4, 744.62 357.39, 744.5 358.38, 744.38 359.37, 744.26 360.36, 744.15 361.35, 744.03 362.34, 743.91 363.33, 743.79 364.32, 743.68 365.31, 743.56 366.3, 743.44 367.29, 743.32 368.28, 743.2 369.27, 743.08 370.26, 742.96 371.25, 742.85 372.24, 742.73 373.23, 742.61 374.22, 742.49 375.21, 742.37 376.2, 742.25 377.19, 742.13 378.18, 742.01 379.17, 741.89 380.16, 741.77 381.15, 741.65 382.14, 741.53 383.13, 741.41 384.12, 741.29 385.11, 741.17 386.1, 741.05 387.09, 740.93 388.08, 740.81 389.07, 740.69 390.06, 740.57 391.05, 740.45 392.04, 740.33 393.03, 740.21 394.02, 740.09 395.01, 739.97 396.0, 739.85 396.99, 739.73 397.98, 739.61 398.97, 739.48 399.96, 739.36 400.95, 739.24 401.94, 739.12 402.93, 739.0 403.92, 738.88 404.91, 738.75 405.9, 738.63 406.89, 738.51 407.88, 738.39 408.87, 738.27 409.86, 738.14 410.85, 738.02 411.84, 737.9 412.83, 737.78 413.82, 737.65 414.81, 737.53 415.8, 737.41 416.79, 737.29 417.78, 737.16 418.77, 737.04 419.76, 736.92 420.75, 736.79 421.74, 736.67 422.73, 736.55 423.72, 736.42 424.71, 736.3 425.7, 736.18 426.69, 736.05 427.68, 735.93 428.67, 735.81 429.66, 735.68 430.65, 735.56 431.64, 735.43 432.63, 735.31 433.62, 735.18 434.61, 735.06 435.6, 734.94 436.59, 734.81 437.58, 734.69 438.57, 734.56 439.56, 734.44 440.55, 734.31 441.54, 734.19 442.53, 734.06 443.52, 733.94 444.51, 733.81 445.5, 733.69 446.49, 733.56 447.48, 733.44 448.47, 733.31 449.46, 733.18 450.45, 733.06 451.44, 732.93 452.43, 732.81 453.42, 732.68 454.41, 732.55 455.4, 732.43 456.39, 732.3 457.38, 732.18 458.37, 732.05 459.36, 731.92 460.35, 731.8 461.34, 731.67 462.33, 731.54 463.32, 731.41 464.31, 731.29 465.3, 731.16 466.29, 731.03 467.28, 730.91 468.27, 730.78 469.26, 730.65 470.25, 730.52 471.24, 730.4 472.23, 730.27 473.22, 730.14 474.21, 730.01 475.2, 729.89 476.19, 729.76 477.18, 729.63 478.17, 729.5 479.16, 729.37 480.15, 729.24 481.14, 729.12 482.13, 728.99 483.12, 728.86 484.11, 728.73 485.1, 728.6 486.09, 728.47 487.08, 728.34 488.07, 728.21 489.06, 728.09 490.05, 727.96 491.04, 727.83 492.03, 727.7 493.02, 727.57 494.01, 727.44 495.0, 727.31 495.99, 727.18 496.98, 727.05 497.97, 726.92 498.96, 726.79 499.95, 726.66 500.94, 726.53 501.93, 726.4 502.92, 726.27 503.91, 726.14 504.9, 726.01 505.89, 725.88 506.88, 725.75 507.87, 725.62 508.86, 725.49 509.85, 725.36 510.84, 725.22 511.83, 725.09 512.82, 724.96 513.81, 724.83 514.8, 724.7 515.79, 724.57 516.78, 724.44 517.77, 724.31 518.76, 724.17 519.75, 724.04 520.74, 723.91 521.73, 723.78 522.72, 723.65 523.71, 723.51 524.7, 723.38 525.69, 723.25 526.68, 723.12 527.67, 722.99 528.66, 722.85 529.65, 722.72 530.64, 722.59 531.63, 722.46 532.62, 722.32 533.61, 722.19 534.6, 722.06 535.59, 721.92 536.58, 721.79 537.57, 721.66 538.56, 721.53 539.55, 721.39 540.54, 721.26 541.53, 721.13 542.52, 720.99 543.51, 720.86 544.5, 720.72 545.49, 720.59 546.48, 720.46 547.47, 720.32 548.46, 720.19 549.45, 720.05 550.44, 719.92 551.43, 719.79 552.42, 719.65 553.41, 719.52 554.4, 719.38 555.39, 719.25 556.38, 719.11 557.37, 718.98 558.36, 718.84 559.35, 718.71 560.34, 718.57 561.33, 718.44 562.32, 718.3 563.31, 718.17 564.3, 718.03 565.29, 717.9 566.28, 717.76 567.27, 717.63 568.26, 717.49 569.25, 717.36 570.24, 717.22 571.23, 717.08 572.22, 716.95 573.21, 716.81 574.2, 716.68 575.19, 716.54 576.18, 716.4 577.17, 716.27 578.16, 716.13 579.15, 716.0 580.14, 715.86 581.13, 715.72 582.12, 715.59 583.11, 715.45 584.1, 715.31 585.09, 715.17 586.08, 715.04 587.07, 714.9 588.06, 714.76 589.05, 714.63 590.04, 714.49 591.03, 714.35 592.02, 714.21 593.01, 714.08 594.0, 713.94 594.99, 713.8 595.98, 713.66 596.97, 713.53 597.96, 713.39 598.95, 713.25 599.94, 713.11 600.93, 712.97 601.92, 712.83 602.91, 712.7 603.9, 712.56 604.89, 712.42 605.88, 712.28 606.87, 712.14 607.86, 712.0 608.85, 711.87 609.84, 711.73 610.83, 711.59 611.82, 711.45 612.81, 711.31 613.8, 711.17 614.79, 711.03 615.78, 710.89 616.77, 710.75 617.76, 710.61 618.75, 710.47 619.74, 710.33 620.73, 710.19 621.72, 710.05 622.71, 709.91 623.7, 709.77 624.69, 709.63 625.68, 709.49 626.67, 709.35 627.66, 709.21 628.65, 709.07 629.64, 708.93 630.63, 708.79 631.62, 708.65 632.61, 708.51 633.6, 708.37 634.59, 708.23 635.58, 708.09 636.57, 707.95 637.56, 707.81 638.55, 707.67 639.54, 707.53 640.53, 707.38 641.52, 707.24 642.51, 707.1 643.5, 706.96 644.49, 706.82 645.48, 706.68 646.47, 706.54 647.46, 706.39 648.45, 706.25 649.44, 706.11 650.43, 705.97 651.42, 705.83 652.41, 705.68 653.4, 705.54 654.39, 705.4 655.38, 705.26 656.37, 705.11 657.36, 704.97 658.35, 704.83 659.34, 704.69 660.33, 704.54 661.32, 704.4 662.31, 704.26 663.3, 704.12 664.29, 703.97 665.28, 703.83 666.27, 703.69 667.26, 703.54 668.25, 703.4 669.24, 703.26 670.23, 703.11 671.22, 702.97 672.21, 702.83 673.2, 702.68 674.19, 702.54 675.18, 702.4 676.17, 702.25 677.16, 702.11 678.15, 701.96 679.14, 701.82 680.13, 701.68 681.12, 701.53 682.11, 701.39 683.1, 701.24 684.09, 701.1 685.08, 700.95 686.07, 700.81 687.06, 700.66 688.05, 700.52 689.04, 700.38 690.03, 700.23 691.02, 700.09 692.01, 699.94 693.0, 699.8 693.99, 699.65 694.98, 699.51 695.97, 699.36 696.96, 699.21 697.95, 699.07 698.94, 698.92 699.93, 698.78 700.92, 698.63 701.91, 698.49 702.9, 698.34 703.89, 698.2 704.88, 698.05 705.87, 697.9 706.86, 697.76 707.85, 697.61 708.84, 697.46 709.83, 697.32 710.82, 697.17 711.81, 697.03 712.8, 696.88 713.79, 696.73 714.78, 696.59 715.77, 696.44 716.76, 696.29 717.75, 696.15 718.74, 696.0 719.73, 695.85 720.72, 695.71 721.71, 695.56 722.7, 695.41 723.69, 695.26 724.68, 695.12 725.67, 694.97 726.66, 694.82 727.65, 694.67 728.64, 694.53 729.63, 694.38 730.62, 694.23 731.61, 694.08 732.6, 693.94 733.59, 693.79 734.58, 693.64 735.57, 693.49 736.56, 693.34 737.55, 693.2 738.54, 693.05 739.53, 692.9 740.52, 692.75 741.51, 692.6 742.5, 692.45 743.49, 692.3 744.48, 692.16 745.47, 692.01 746.46, 691.86 747.45, 691.71 748.44, 691.56 749.43, 691.41 750.42, 691.26 751.41, 691.11 752.4, 690.96 753.39, 690.82 754.38, 690.67 755.37, 690.52 756.36, 690.37 757.35, 690.22 758.34, 690.07 759.33, 689.92 760.32, 689.77 761.31, 689.62 762.3, 689.47 763.29, 689.32 764.28, 689.17 765.27, 689.02 766.26, 688.87 767.25, 688.72 768.24, 688.57 769.23, 688.42 770.22, 688.27 771.21, 688.12 772.2, 687.97 773.19, 687.82 774.18, 687.67 775.17, 687.51 776.16, 687.36 777.15, 687.21 778.14, 687.06 779.13, 686.91 780.12, 686.76 781.11, 686.61 782.1, 686.46 783.09, 686.31 784.08, 686.15 785.07, 686.0 786.06, 685.85 787.05, 685.7 788.04, 685.55 789.03, 685.4 790.02, 685.25 791.01, 685.09 792.0, 684.94 792.99, 684.79 793.98, 684.64 794.97, 684.49 795.96, 684.33 796.95, 684.18 797.94, 684.03 798.93, 683.88 799.92, 683.73 800.91, 683.57 801.9, 683.42 802.89, 683.27 803.88, 683.12 804.87, 682.96 805.86, 682.81 806.85, 682.66 807.84, 682.5 808.83, 682.35 809.82, 682.2 810.81, 682.05 811.8, 681.89 812.79, 681.74 813.78, 681.59 814.77, 681.43 815.76, 681.28 816.75, 681.13 817.74, 680.97 818.73, 680.82 819.72, 680.66 820.71, 680.51 821.7, 680.36 822.69, 680.2 823.68, 680.05 824.67, 679.9 825.66, 679.74 826.65, 679.59 827.64, 679.43 828.63, 679.28 829.62, 679.13 830.61, 678.97 831.6, 678.82 832.59, 678.66 833.58, 678.51 834.57, 678.35 835.56, 678.2 836.55, 678.04 837.54, 677.89 838.53, 677.73 839.52, 677.58 840.51, 677.42 841.5, 677.27 842.49, 677.11 843.48, 676.96 844.47, 676.8 845.46, 676.65 846.45, 676.49 847.44, 676.34 848.43, 676.18 849.42, 676.03 850.41, 675.87 851.4, 675.72 852.39, 675.56 853.38, 675.41 854.37, 675.25 855.36, 675.09 856.35, 674.94 857.34, 674.78 858.33, 674.63 859.32, 674.47 860.31, 674.31 861.3, 674.16 862.29, 674.0 863.28, 673.85 864.27, 673.69 865.26, 673.53 866.25, 673.38 867.24, 673.22 868.23, 673.06 869.22, 672.91 870.21, 672.75 871.2, 672.59 872.19, 672.44 873.18, 672.28 874.17, 672.12 875.16, 671.96 876.15, 671.81 877.14, 671.65 878.13, 671.49 879.12, 671.34 880.11, 671.18 881.1, 671.02 882.09, 670.86 883.08, 670.71 884.07, 670.55 885.06, 670.39 886.05, 670.23 887.04, 670.08 888.03, 669.92 889.02, 669.76 890.01, 669.6 891.0, 669.44 891.99, 669.29 892.98, 669.13 893.97, 668.97 894.96, 668.81 895.95, 668.65 896.94, 668.5 897.93, 668.34 898.92, 668.18 899.91, 668.02 900.9, 667.86 901.89, 667.7 902.88, 667.55 903.87, 667.39 904.86, 667.23 905.85, 667.07 906.84, 666.91 907.83, 666.75 908.82, 666.59 909.81, 666.43 910.8, 666.27 911.79, 666.12 912.78, 665.96 913.77, 665.8 914.76, 665.64 915.75, 665.48 916.74, 665.32 917.73, 665.16 918.72, 665.0 919.71, 664.84 920.7, 664.68 921.69, 664.52 922.68, 664.36 923.67, 664.2 924.66, 664.04 925.65, 663.88 926.64, 663.72 927.63, 663.56 928.62, 663.4 929.61, 663.24 930.6, 663.08 931.59, 662.92 932.58, 662.76 933.57, 662.6 934.56, 662.44 935.55, 662.28 936.54, 662.12 937.53, 661.96 938.52, 661.8 939.51, 661.64 940.5, 661.48 941.49, 661.32 942.48, 661.15 943.47, 660.99 944.46, 660.83 945.45, 660.67 946.44, 660.51 947.43, 660.35 948.42, 660.19 949.41, 660.03 950.4, 659.87 951.39, 659.7 952.38, 659.54 953.37, 659.38 954.36, 659.22 955.35, 659.06 956.34, 658.9 957.33, 658.74 958.32, 658.57 959.31, 658.41 960.3, 658.25 961.29, 658.09 962.28, 657.93 963.27, 657.76 964.26, 657.6 965.25, 657.44 966.24, 657.28 967.23, 657.12 968.22, 656.95 969.21, 656.79 970.2, 656.63 971.19, 656.47 972.18, 656.3 973.17, 656.14 974.16, 655.98 975.15, 655.82 976.14, 655.65 977.13, 655.49 978.12, 655.33 979.11, 655.17 980.1, 655.0 981.09, 654.84 982.08, 654.68 983.07, 654.51 984.06, 654.35 985.05, 654.19 986.04, 654.03 987.03, 653.86 988.02, 653.7 989.01, 653.54 990.0, 653.37 " fill="none" stroke="yellow" stroke-width="1.5" stroke-linejoin="round" stroke-opacity="1"/>

 </svg> 
 </g> 

 </svg>