<svg version="1.1" 
 baseProfile="full" 
 width="1980" 
 height="1080" 
 xmlns="http://www.w3.org/2000/svg">
<rect x="0.0" y="0.0" width="1980" height="1080" fill="black" stroke="black" stroke-width="0" opacity="1"/>
<rect x="0.0" y="0.0" width="990.0" height="1080" fill="none" stroke="white" stroke-width="2.5" opacity="1"/>
<rect x="943.59375" y="196.62" width="92.8125" height="90.0" fill="white" stroke="black" stroke-width="1" opacity="1"/>
<line x1="990.0" y1="540.0" x2="990.0" y2="241.62" stroke="white" stroke-width="1" opacity="1" stroke-linecap="butt"/>
<line x1="495.0" y1="241.62" x2="990.0" y2="241.62" stroke="red" stroke-width="1" opacity="1" stroke-linecap="butt"/>
<g transform="translate(0.0 0.0)"> 
<svg version="1.1" 
 baseProfile="full" 
 width="990.0" 
 height="1080" 
 xmlns="http://www.w3.org/2000/svg">
<line x1="0.0" y1="0.0" x2="0.0" y2="1080.0" stroke="#A7A7A7" stroke-width="0.7" opacity="1" stroke-linecap="butt"/>
<line x1="49.5" y1="0.0" x2="49.5" y2="1080.0" stroke="#A7A7A7" stroke-width="0.7" opacity="1" stroke-linecap="butt"/>
<line x1="99.0" y1="0.0" x2="99.0" y2="1080.0" stroke="#A7A7A7" stroke-width="0.7" opacity="1" stroke-linecap="butt"/>
<line x1="148.5" y1="0.0" x2="148.5" y2="1080.0" stroke="#A7A7A7" stroke-width="0.7" opacity="1" stroke-linecap="butt"/>
<line x1="198.0" y1="0.0" x2="198.0" y2="1080.0" stroke="#A7A7A7" stroke-width="0.7" opacity="1" stroke-linecap="butt"/>
<line x1="247.5" y1="0.0" x2="247.5" y2="1080.0" stroke="#A7A7A7" stroke-width="0.7" opacity="1" stroke-linecap="butt"/>
<line x1="297.0" y1="0.0" x2="297.0" y2="1080.0" stroke="#A7A7A7" stroke-width="0.7" opacity="1" stroke-linecap="butt"/>
<line x1="346.5" y1="0.0" x2="346.5" y2="1080.0" stroke="#A7A7A7" stroke-width="0.7" opacity="1" stroke-linecap="butt"/>
<line x1="396.0" y1="0.0" x2="396.0" y2="1080.0" stroke="#A7A7A7" stroke-width="0.7" opacity="1" stroke-linecap="butt"/>
<line x1="445.5" y1="0.0" x2="445.5" y2="1080.0" stroke="#A7A7A7" stroke-width="0.7" opacity="1" stroke-linecap="butt"/>
<line x1="495.0" y1="0.0" x2="495.0" y2="1080.0" stroke="#A7A7A7" stroke-width="0.7" opacity="1" stroke-linecap="butt"/>
<line x1="544.5" y1="0.0" x2="544.5" y2="1080.0" stroke="#A7A7A7" stroke-width="0.7" opacity="1" stroke-linecap="butt"/>
<line x1="594.0" y1="0.0" x2="594.0" y2="1080.0" stroke="#A7A7A7" stroke-width="0.7" opacity="1" stroke-linecap="butt"/>
<line x1="643.5" y1="0.0" x2="643.5" y2="1080.0" stroke="#A7A7A7" stroke-width="0.7" opacity="1" stroke-linecap="butt"/>
<line x1="693.0" y1="0.0" x2="693.0" y2="1080.0" stroke="#A7A7A7" stroke-width="0.7" opacity="1" stroke-linecap="butt"/>
<line x1="742.5" y1="0.0" x2="742.5" y2="1080.0" stroke="#A7A7A7" stroke-width="0.7" opacity="1" stroke-linecap="butt"/>
<line x1="792.0" y1="0.0" x2="792.0" y2="1080.0" stroke="#A7A7A7" stroke-width="0.7" opacity="1" stroke-linecap="butt"/>
<line x1="841.5" y1="0.0" x2="841.5" y2="1080.0" stroke="#A7A7A7" stroke-width="0.7" opacity="1" stroke-linecap="butt"/>
<line x1="891.0" y1="0.0" x2="891.0" y2="1080.0" stroke="#A7A7A7" stroke-width="0.7" opacity="1" stroke-linecap="butt"/>
<line x1="940.5" y1="0.0" x2="940.5" y2="1080.0" stroke="#A7A7A7" stroke-width="0.7" opacity="1" stroke-linecap="butt"/>
<line x1="-0.0" y1="0.0" x2="990.0" y2="0.0" stroke="#A7A7A7" stroke-width="0.7" opacity="1" stroke-linecap="butt"/>
<line x1="-0.0" y1="54.0" x2="990.0" y2="54.0" stroke="#A7A7A7" stroke-width="0.7" opacity="1" stroke-linecap="butt"/>
<line x1="-0.0" y1="108.0" x2="990.0" y2="108.0" stroke="#A7A7A7" stroke-width="0.7" opacity="1" stroke-linecap="butt"/>
<line x1="-0.0" y1="162.0" x2="990.0" y2="162.0" stroke="#A7A7A7" stroke-width="0.7" opacity="1" stroke-linecap="butt"/>
<line x1="-0.0" y1="216.0" x2="990.0" y2="216.0" stroke="#A7A7A7" stroke-width="0.7" opacity="1" stroke-linecap="butt"/>
<line x1="-0.0" y1="270.0" x2="990.0" y2="270.0" stroke="#A7A7A7" stroke-width="0.7" opacity="1" stroke-linecap="butt"/>
<line x1="-0.0" y1="324.0" x2="990.0" y2="324.0" stroke="#A7A7A7" stroke-width="0.7" opacity="1" stroke-linecap="butt"/>
<line x1="-0.0" y1="378.0" x2="990.0" y2="378.0" stroke="#A7A7A7" stroke-width="0.7" opacity="1" stroke-linecap="butt"/>
<line x1="-0.0" y1="432.0" x2="990.0" y2="432.0" stroke="#A7A7A7" stroke-width="0.7" opacity="1" stroke-linecap="butt"/>
<line x1="-0.0" y1="486.0" x2="990.0" y2="486.0" stroke="#A7A7A7" stroke-width="0.7" opacity="1" stroke-linecap="butt"/>
<line x1="-0.0" y1="540.0" x2="990.0" y2="540.0" stroke="#A7A7A7" stroke-width="0.7" opacity="1" stroke-linecap="butt"/>
<line x1="-0.0" y1="594.0" x2="990.0" y2="594.0" stroke="#A7A7A7" stroke-width="0.7" opacity="1" stroke-linecap="butt"/>
<line x1="-0.0" y1="648.0" x2="990.0" y2="648.0" stroke="#A7A7A7" stroke-width="0.7" opacity="1" stroke-linecap="butt"/>
<line x1="-0.0" y1="702.0" x2="990.0" y2="702.0" stroke="#A7A7A7" stroke-width="0.7" opacity="1" stroke-linecap="butt"/>
<line x1="-0.0" y1="756.0" x2="990.0" y2="756.0" stroke="#A7A7A7" stroke-width="0.7" opacity="1" stroke-linecap="butt"/>
<line x1="-0.0" y1="810.0" x2="990.0" y2="810.0" stroke="#A7A7A7" stroke-width="0.7" opacity="1" stroke-linecap="butt"/>
<line x1="-0.0" y1="864.0" x2="990.0" y2="864.0" stroke="#A7A7A7" stroke-width="0.7" opacity="1" stroke-linecap="butt"/>
<line x1="-0.0" y1="918.0" x2="990.0" y2="918.0" stroke="#A7A7A7" stroke-width="0.7" opacity="1" stroke-linecap="butt"/>
<line x1="-0.0" y1="972.0" x2="990.0" y2="972.0" stroke="#A7A7A7" stroke-width="0.7" opacity="1" stroke-linecap="butt"/>
<line x1="-0.0" y1="1026.0" x2="990.0" y2="1026.0" stroke="#A7A7A7" stroke-width="0.7" opacity="1" stroke-linecap="butt"/>
<line x1="0.0" y1="540.0" x2="990.0" y2="540.0" stroke="yellow" stroke-width="1" opacity="1" stroke-linecap="butt"/>
<line x1="0.0" y1="0.0" x2="0.0" y2="1080.0" stroke="yellow" stroke-width="1" opacity="1" stroke-linecap="butt"/>
<polyline points="0.0, 808.54 0.99, 808.52 1.98, 808.5 2.97, 808.48 3.96, 808.46 4.95, 808.44 5.94, 808.42 6.93, 808.4 7.92, 808.38 8.91, 808.36 9.9, 808.34 10.89, 808.32 11.88, 808.3 12.87, 808.28 13.86, 808.26 14.85, 808.24 15.84, 808.22 16.83, 808.2 17.82, 808.18 18.81, 808.16 19.8, 808.14 20.79, 808.12 21.78, 808.1 22.77, 808.08 23.76, 808.05 24.75, 808.03 25.74, 808.01 26.73, 807.99 27.72, 807.97 28.71, 807.94 29.7, 807.92 30.69, 807.9 31.68, 807.88 32.67, 807.86 33.66, 807.83 34.65, 807.81 35.64, 807.79 36.63, 807.76 37.62, 807.74 38.61, 807.72 39.6, 807.69 40.59, 807.67 41.58, 807.65 42.57, 807.62 43.56, 807.6 44.55, 807.57 45.54, 807.55 46.53, 807.53 47.52, 807.5 48.51, 807.48 49.5, 807.45 50.49, 807.43 51.48, 807.4 52.47, 807.38 53.46, 807.35 54.45, 807.33 55.44, 807.3 56.43, 807.28 57.42, 807.25 58.41, 807.23 59.4, 807.2 60.39, 807.17 61.38, 807.15 62.37, 807.12 63.36, 807.1 64.35, 807.07 65.34, 807.04 66.33, 807.02 67.32, 806.99 68.31, 806.96 69.3, 806.94 70.29, 806.91 71.28, 806.88 72.27, 806.85 73.26, 806.83 74.25, 806.8 75.24, 806.77 76.23, 806.74 77.22, 806.72 78.21, 806.69 79.2, 806.66 80.19, 806.63 81.18, 806.6 82.17, 806.57 83.16, 806.55 84.15, 806.52 85.14, 806.49 86.13, 806.46 87.12, 806.43 88.11, 806.4 89.1, 806.37 90.09, 806.34 91.08, 806.31 92.07, 806.28 93.06, 806.25 94.05, 806.22 95.04, 806.19 96.03, 806.16 97.02, 806.13 98.01, 806.1 99.0, 806.07 99.99, 806.04 100.98, 806.01 101.97, 805.98 102.96, 805.95 103.95, 805.92 104.94, 805.89 105.93, 805.85 106.92, 805.82 107.91, 805.79 108.9, 805.76 109.89, 805.73 110.88, 805.7 111.87, 805.66 112.86, 805.63 113.85, 805.6 114.84, 805.57 115.83, 805.53 116.82, 805.5 117.81, 805.47 118.8, 805.44 119.79, 805.4 120.78, 805.37 121.77, 805.34 122.76, 805.3 123.75, 805.27 124.74, 805.24 125.73, 805.2 126.72, 805.17 127.71, 805.13 128.7, 805.1 129.69, 805.07 130.68, 805.03 131.67, 805.0 132.66, 804.96 133.65, 804.93 134.64, 804.89 135.63, 804.86 136.62, 804.82 137.61, 804.79 138.6, 804.75 139.59, 804.72 140.58, 804.68 141.57, 804.65 142.56, 804.61 143.55, 804.58 144.54, 804.54 145.53, 804.5 146.52, 804.47 147.51, 804.43 148.5, 804.39 149.49, 804.36 150.48, 804.32 151.47, 804.28 152.46, 804.25 153.45, 804.21 154.44, 804.17 155.43, 804.14 156.42, 804.1 157.41, 804.06 158.4, 804.02 159.39, 803.99 160.38, 803.95 161.37, 803.91 162.36, 803.87 163.35, 803.83 164.34, 803.8 165.33, 803.76 166.32, 803.72 167.31, 803.68 168.3, 803.64 169.29, 803.6 170.28, 803.56 171.27, 803.52 172.26, 803.48 173.25, 803.45 174.24, 803.41 175.23, 803.37 176.22, 803.33 177.21, 803.29 178.2, 803.25 179.19, 803.21 180.18, 803.17 181.17, 803.13 182.16, 803.09 183.15, 803.05 184.14, 803.0 185.13, 802.96 186.12, 802.92 187.11, 802.88 188.1, 802.84 189.09, 802.8 190.08, 802.76 191.07, 802.72 192.06, 802.68 193.05, 802.63 194.04, 802.59 195.03, 802.55 196.02, 802.51 197.01, 802.47 198.0, 802.42 198.99, 802.38 199.98, 802.34 200.97, 802.3 201.96, 802.25 202.95, 802.21 203.94, 802.17 204.93, 802.12 205.92, 802.08 206.91, 802.04 207.9, 801.99 208.89, 801.95 209.88, 801.91 210.87, 801.86 211.86, 801.82 212.85, 801.77 213.84, 801.73 214.83, 801.69 215.82, 801.64 216.81, 801.6 217.8, 801.55 218.79, 801.51 219.78, 801.46 220.77, 801.42 221.76, 801.37 222.75, 801.33 223.74, 801.28 224.73, 801.24 225.72, 801.19 226.71, 801.15 227.7, 801.1 228.69, 801.05 229.68, 801.01 230.67, 800.96 231.66, 800.92 232.65, 800.87 233.64, 800.82 234.63, 800.78 235.62, 800.73 236.61, 800.68 237.6, 800.64 238.59, 800.59 239.58, 800.54 240.57, 800.49 241.56, 800.45 242.55, 800.4 243.54, 800.35 244.53, 800.3 245.52, 800.26 246.51, 800.21 247.5, 800.16 248.49, 800.11 249.48, 800.06 250.47, 800.02 251.46, 799.97 252.45, 799.92 253.44, 799.87 254.43, 799.82 255.42, 799.77 256.41, 799.72 257.4, 799.67 258.39, 799.62 259.38, 799.57 260.37, 799.53 261.36, 799.48 262.35, 799.43 263.34, 799.38 264.33, 799.33 265.32, 799.28 266.31, 799.23 267.3, 799.17 268.29, 799.12 269.28, 799.07 270.27, 799.02 271.26, 798.97 272.25, 798.92 273.24, 798.87 274.23, 798.82 275.22, 798.77 276.21, 798.72 277.2, 798.66 278.19, 798.61 279.18, 798.56 280.17, 798.51 281.16, 798.46 282.15, 798.4 283.14, 798.35 284.13, 798.3 285.12, 798.25 286.11, 798.2 287.1, 798.14 288.09, 798.09 289.08, 798.04 290.07, 797.98 291.06, 797.93 292.05, 797.88 293.04, 797.82 294.03, 797.77 295.02, 797.72 296.01, 797.66 297.0, 797.61 297.99, 797.56 298.98, 797.5 299.97, 797.45 300.96, 797.39 301.95, 797.34 302.94, 797.28 303.93, 797.23 304.92, 797.17 305.91, 797.12 306.9, 797.06 307.89, 797.01 308.88, 796.95 309.87, 796.9 310.86, 796.84 311.85, 796.79 312.84, 796.73 313.83, 796.68 314.82, 796.62 315.81, 796.56 316.8, 796.51 317.79, 796.45 318.78, 796.4 319.77, 796.34 320.76, 796.28 321.75, 796.23 322.74, 796.17 323.73, 796.11 324.72, 796.06 325.71, 796.0 326.7, 795.94 327.69, 795.88 328.68, 795.83 329.67, 795.77 330.66, 795.71 331.65, 795.65 332.64, 795.59 333.63, 795.54 334.62, 795.48 335.61, 795.42 336.6, 795.36 337.59, 795.3 338.58, 795.24 339.57, 795.19 340.56, 795.13 341.55, 795.07 342.54, 795.01 343.53, 794.95 344.52, 794.89 345.51, 794.83 346.5, 794.77 347.49, 794.71 348.48, 794.65 349.47, 794.59 350.46, 794.53 351.45, 794.47 352.44, 794.41 353.43, 794.35 354.42, 794.29 355.41, 794.23 356.4, 794.17 357.39, 794.11 358.38, 794.05 359.37, 793.99 360.36, 793.93 361.35, 793.86 362.34, 793.8 363.33, 793.74 364.32, 793.68 365.31, 793.62 366.3, 793.56 367.29, 793.49 368.28, 793.43 369.27, 793.37 370.26, 793.31 371.25, 793.25 372.24, 793.18 373.23, 793.12 374.22, 793.06 375.21, 793.0 376.2, 792.93 377.19, 792.87 378.18, 792.81 379.17, 792.74 380.16, 792.68 381.15, 792.62 382.14, 792.55 383.13, 792.49 384.12, 792.43 385.11, 792.36 386.1, 792.3 387.09, 792.23 388.08, 792.17 389.07, 792.1 390.06, 792.04 391.05, 791.98 392.04, 791.91 393.03, 791.85 394.02, 791.78 395.01, 791.72 396.0, 791.65 396.99, 791.59 397.98, 791.52 398.97, 791.45 399.96, 791.39 400.95, 791.32 401.94, 791.26 402.93, 791.19 403.92, 791.13 404.91, 791.06 405.9, 790.99 406.89, 790.93 407.88, 790.86 408.87, 790.79 409.86, 790.73 410.85, 790.66 411.84, 790.59 412.83, 790.53 413.82, 790.46 414.81, 790.39 415.8, 790.32 416.79, 790.26 417.78, 790.19 418.77, 790.12 419.76, 790.05 420.75, 789.99 421.74, 789.92 422.73, 789.85 423.72, 789.78 424.71, 789.71 425.7, 789.64 426.69, 789.58 427.68, 789.51 428.67, 789.44 429.66, 789.37 430.65, 789.3 431.64, 789.23 432.63, 789.16 433.62, 789.09 434.61, 789.02 435.6, 788.95 436.59, 788.88 437.58, 788.81 438.57, 788.74 439.56, 788.67 440.55, 788.6 441.54, 788.53 442.53, 788.46 443.52, 788.39 444.51, 788.32 445.5, 788.25 446.49, 788.18 447.48, 788.11 448.47, 788.04 449.46, 787.97 450.45, 787.89 451.44, 787.82 452.43, 787.75 453.42, 787.68 454.41, 787.61 455.4, 787.54 456.39, 787.46 457.38, 787.39 458.37, 787.32 459.36, 787.25 460.35, 787.18 461.34, 787.1 462.33, 787.03 463.32, 786.96 464.31, 786.89 465.3, 786.81 466.29, 786.74 467.28, 786.67 468.27, 786.59 469.26, 786.52 470.25, 786.45 471.24, 786.37 472.23, 786.3 473.22, 786.23 474.21, 786.15 475.2, 786.08 476.19, 786.0 477.18, 785.93 478.17, 785.85 479.16, 785.78 480.15, 785.71 481.14, 785.63 482.13, 785.56 483.12, 785.48 484.11, 785.41 485.1, 785.33 486.09, 785.26 487.08, 785.18 488.07, 785.11 489.06, 785.03 490.05, 784.95 491.04, 784.88 492.03, 784.8 493.02, 784.73 494.01, 784.65 495.0, 784.57 495.99, 784.5 496.98, 784.42 497.97, 784.34 498.96, 784.27 499.95, 784.19 500.94, 784.11 501.93, 784.04 502.92, 783.96 503.91, 783.88 504.9, 783.81 505.89, 783.73 506.88, 783.65 507.87, 783.57 508.86, 783.5 509.85, 783.42 510.84, 783.34 511.83, 783.26 512.82, 783.18 513.81, 783.11 514.8, 783.03 515.79, 782.95 516.78, 782.87 517.77, 782.79 518.76, 782.71 519.75, 782.63 520.74, 782.55 521.73, 782.48 522.72, 782.4 523.71, 782.32 524.7, 782.24 525.69, 782.16 526.68, 782.08 527.67, 782.0 528.66, 781.92 529.65, 781.84 530.64, 781.76 531.63, 781.68 532.62, 781.6 533.61, 781.52 534.6, 781.44 535.59, 781.36 536.58, 781.28 537.57, 781.19 538.56, 781.11 539.55, 781.03 540.54, 780.95 541.53, 780.87 542.52, 780.79 543.51, 780.71 544.5, 780.63 545.49, 780.54 546.48, 780.46 547.47, 780.38 548.46, 780.3 549.45, 780.22 550.44, 780.13 551.43, 780.05 552.42, 779.97 553.41, 779.89 554.4, 779.8 555.39, 779.72 556.38, 779.64 557.37, 779.56 558.36, 779.47 559.35, 779.39 560.34, 779.31 561.33, 779.22 562.32, 779.14 563.31, 779.06 564.3, 778.97 565.29, 778.89 566.28, 778.8 567.27, 778.72 568.26, 778.64 569.25, 778.55 570.24, 778.47 571.23, 778.38 572.22, 778.3 573.21, 778.21 574.2, 778.13 575.19, 778.04 576.18, 777.96 577.17, 777.87 578.16, 777.79 579.15, 777.7 580.14, 777.62 581.13, 777.53 582.12, 777.45 583.11, 777.36 584.1, 777.27 585.09, 777.19 586.08, 777.1 587.07, 777.02 588.06, 776.93 589.05, 776.84 590.04, 776.76 591.03, 776.67 592.02, 776.58 593.01, 776.5 594.0, 776.41 594.99, 776.32 595.98, 776.24 596.97, 776.15 597.96, 776.06 598.95, 775.97 599.94, 775.89 600.93, 775.8 601.92, 775.71 602.91, 775.62 603.9, 775.54 604.89, 775.45 605.88, 775.36 606.87, 775.27 607.86, 775.18 608.85, 775.09 609.84, 775.01 610.83, 774.92 611.82, 774.83 612.81, 774.74 613.8, 774.65 614.79, 774.56 615.78, 774.47 616.77, 774.38 617.76, 774.29 618.75, 774.2 619.74, 774.11 620.73, 774.02 621.72, 773.94 622.71, 773.85 623.7, 773.76 624.69, 773.67 625.68, 773.57 626.67, 773.48 627.66, 773.39 628.65, 773.3 629.64, 773.21 630.63, 773.12 631.62, 773.03 632.61, 772.94 633.6, 772.85 634.59, 772.76 635.58, 772.67 636.57, 772.58 637.56, 772.48 638.55, 772.39 639.54, 772.3 640.53, 772.21 641.52, 772.12 642.51, 772.02 643.5, 771.93 644.49, 771.84 645.48, 771.75 646.47, 771.66 647.46, 771.56 648.45, 771.47 649.44, 771.38 650.43, 771.29 651.42, 771.19 652.41, 771.1 653.4, 771.01 654.39, 770.91 655.38, 770.82 656.37, 770.73 657.36, 770.63 658.35, 770.54 659.34, 770.45 660.33, 770.35 661.32, 770.26 662.31, 770.16 663.3, 770.07 664.29, 769.97 665.28, 769.88 666.27, 769.79 667.26, 769.69 668.25, 769.6 669.24, 769.5 670.23, 769.41 671.22, 769.31 672.21, 769.22 673.2, 769.12 674.19, 769.03 675.18, 768.93 676.17, 768.84 677.16, 768.74 678.15, 768.64 679.14, 768.55 680.13, 768.45 681.12, 768.36 682.11, 768.26 683.1, 768.16 684.09, 768.07 685.08, 767.97 686.07, 767.88 687.06, 767.78 688.05, 767.68 689.04, 767.59 690.03, 767.49 691.02, 767.39 692.01, 767.29 693.0, 767.2 693.99, 767.1 694.98, 767.0 695.97, 766.9 696.96, 766.81 697.95, 766.71 698.94, 766.61 699.93, 766.51 700.92, 766.42 701.91, 766.32 702.9, 766.22 703.89, 766.12 704.88, 766.02 705.87, 765.92 706.86, 765.83 707.85, 765.73 708.84, 765.63 709.83, 765.53 710.82, 765.43 711.81, 765.33 712.8, 765.23 713.79, 765.13 714.78, 765.03 715.77, 764.93 716.76, 764.83 717.75, 764.73 718.74, 764.63 719.73, 764.53 720.72, 764.43 721.71, 764.33 722.7, 764.23 723.69, 764.13 724.68, 764.03 725.67, 763.93 726.66, 763.83 727.65, 763.73 728.64, 763.63 729.63, 763.53 730.62, 763.43 731.61, 763.33 732.6, 763.23 733.59, 763.13 734.58, 763.02 735.57, 762.92 736.56, 762.82 737.55, 762.72 738.54, 762.62 739.53, 762.52 740.52, 762.41 741.51, 762.31 742.5, 762.21 743.49, 762.11 744.48, 762.0 745.47, 761.9 746.46, 761.8 747.45, 761.7 748.44, 761.59 749.43, 761.49 750.42, 761.39 751.41, 761.28 752.4, 761.18 753.39, 761.08 754.38, 760.98 755.37, 760.87 756.36, 760.77 757.35, 760.66 758.34, 760.56 759.33, 760.46 760.32, 760.35 761.31, 760.25 762.3, 760.14 763.29, 760.04 764.28, 759.94 765.27, 759.83 766.26, 759.73 767.25, 759.62 768.24, 759.52 769.23, 759.41 770.22, 759.31 771.21, 759.2 772.2, 759.1 773.19, 758.99 774.18, 758.89 775.17, 758.78 776.16, 758.68 777.15, 758.57 778.14, 758.46 779.13, 758.36 780.12, 758.25 781.11, 758.15 782.1, 758.04 783.09, 757.93 784.08, 757.83 785.07, 757.72 786.06, 757.62 787.05, 757.51 788.04, 757.4 789.03, 757.3 790.02, 757.19 791.01, 757.08 792.0, 756.97 792.99, 756.87 793.98, 756.76 794.97, 756.65 795.96, 756.54 796.95, 756.44 797.94, 756.33 798.93, 756.22 799.92, 756.11 800.91, 756.01 801.9, 755.9 802.89, 755.79 803.88, 755.68 804.87, 755.57 805.86, 755.47 806.85, 755.36 807.84, 755.25 808.83, 755.14 809.82, 755.03 810.81, 754.92 811.8, 754.81 812.79, 754.7 813.78, 754.59 814.77, 754.48 815.76, 754.38 816.75, 754.27 817.74, 754.16 818.73, 754.05 819.72, 753.94 820.71, 753.83 821.7, 753.72 822.69, 753.61 823.68, 753.5 824.67, 753.39 825.66, 753.28 826.65, 753.17 827.64, 753.06 828.63, 752.94 829.62, 752.83 830.61, 752.72 831.6, 752.61 832.59, 752.5 833.58, 752.39 834.57, 752.28 835.56, 752.17 836.55, 752.06 837.54, 751.95 838.53, 751.83 839.52, 751.72 840.51, 751.61 841.5, 751.5 842.49, 751.39 843.48, 751.27 844.47, 751.16 845.46, 751.05 846.45, 750.94 847.44, 750.83 848.43, 750.71 849.42, 750.6 850.41, 750.49 851.4, 750.37 852.39, 750.26 853.38, 750.15 854.37, 750.04 855.36, 749.92 856.35, 749.81 857.34, 749.7 858.33, 749.58 859.32, 749.47 860.31, 749.36 861.3, 749.24 862.29, 749.13 863.28, 749.01 864.27, 748.9 865.26, 748.79 866.25, 748.67 867.24, 748.56 868.23, 748.44 869.22, 748.33 870.21, 748.21 871.2, 748.1 872.19, 747.98 873.18, 747.87 874.17, 747.76 875.16, 747.64 876.15, 747.52 877.14, 747.41 878.13, 747.29 879.12, 747.18 880.11, 747.06 881.1, 746.95 882.09, 746.83 883.08, 746.72 884.07, 746.6 885.06, 746.48 886.05, 746.37 887.04, 746.25 888.03, 746.14 889.02, 746.02 890.01, 745.9 891.0, 745.79 891.99, 745.67 892.98, 745.55 893.97, 745.44 894.96, 745.32 895.95, 745.2 896.94, 745.09 897.93, 744.97 898.92, 744.85 899.91, 744.73 900.9, 744.62 901.89, 744.5 902.88, 744.38 903.87, 744.26 904.86, 744.15 905.85, 744.03 906.84, 743.91 907.83, 743.79 908.82, 743.68 909.81, 743.56 910.8, 743.44 911.79, 743.32 912.78, 743.2 913.77, 743.08 914.76, 742.96 915.75, 742.85 916.74, 742.73 917.73, 742.61 918.72, 742.49 919.71, 742.37 920.7, 742.25 921.69, 742.13 922.68, 742.01 923.67, 741.89 924.66, 741.77 925.65, 741.65 926.64, 741.53 927.63, 741.41 928.62, 741.29 929.61, 741.17 930.6, 741.05 931.59, 740.93 932.58, 740.81 933.57, 740.69 934.56, 740.57 935.55, 740.45 936.54, 740.33 937.53, 740.21 938.52, 740.09 939.51, 739.97 940.5, 739.85 941.49, 739.73 942.48, 739.61 943.47, 739.48 944.46, 739.36 945.45, 739.24 946.44, 739.12 947.43, 739.0 948.42, 738.88 949.41, 738.75 950.4, 738.63 951.39, 738.51 952.38, 738.39 953.37, 738.27 954.36, 738.14 955.35, 738.02 956.34, 737.9 957.33, 737.78 958.32, 737.65 959.31, 737.53 960.3, 737.41 961.29, 737.29 962.28, 737.16 963.27, 737.04 964.26, 736.92 965.25, 736.79 966.24, 736.67 967.23, 736.55 968.22, 736.42 969.21, 736.3 970.2, 736.18 971.19, 736.05 972.18, 735.93 973.17, 735.81 974.16, 735.68 975.15, 735.56 976.14, 735.43 977.13, 735.31 978.12, 735.18 979.11, 735.06 980.1, 734.94 981.09, 734.81 982.08, 734.69 983.07, 734.56 984.06, 734.44 985.05, 734.31 986.04, 734.19 987.03, 734.06 988.02, 733.94 989.01, 733.81 990.0, 733.69 " fill="none" stroke="yellow" stroke-width="1.5" stroke-linejoin="round" stroke-opacity="1"/>

 </svg> 
 </g> 

 </svg>