<svg version="1.1" 
 baseProfile="full" 
 width="1980" 
 height="1080" 
 xmlns="http://www.w3.org/2000/svg">
<rect x="0.0" y="0.0" width="1980" height="1080" fill="black" stroke="black" stroke-width="0" opacity="1"/>
<rect x="0.0" y="0.0" width="990.0" height="1080" fill="none" stroke="white" stroke-width="2.5" opacity="1"/>
<rect x="943.59375" y="231.13" width="92.8125" height="90.0" fill="white" stroke="black" stroke-width="1" opacity="1"/>
<line x1="990.0" y1="540.0" x2="990.0" y2="276.13" stroke="white" stroke-width="1" opacity="1" stroke-linecap="butt"/>
<line x1="495.0" y1="276.13" x2="990.0" y2="276.13" stroke="red" stroke-width="1" opacity="1" stroke-linecap="butt"/>
<g transform="translate(0.0 0.0)"> 
<svg version="1.1" 
 baseProfile="full" 
 width="990.0" 
 height="1080" 
 xmlns="http://www.w3.org/2000/svg">
<line x1="0.0" y1="0.0" x2="0.0" y2="1080.0" stroke="#A7A7A7" stroke-width="0.7" opacity="1" stroke-linecap="butt"/>
<line x1="49.5" y1="0.0" x2="49.5" y2="1080.0" stroke="#A7A7A7" stroke-width="0.7" opacity="1" stroke-linecap="butt"/>
<line x1="99.0" y1="0.0" x2="99.0" y2="1080.0" stroke="#A7A7A7" stroke-width="0.7" opacity="1" stroke-linecap="butt"/>
<line x1="148.5" y1="0.0" x2="148.5" y2="1080.0" stroke="#A7A7A7" stroke-width="0.7" opacity="1" stroke-linecap="butt"/>
<line x1="198.0" y1="0.0" x2="198.0" y2="1080.0" stroke="#A7A7A7" stroke-width="0.7" opacity="1" stroke-linecap="butt"/>
<line x1="247.5" y1="0.0" x2="247.5" y2="1080.0" stroke="#A7A7A7" stroke-width="0.7" opacity="1" stroke-linecap="butt"/>
<line x1="297.0" y1="0.0" x2="297.0" y2="1080.0" stroke="#A7A7A7" stroke-width="0.7" opacity="1" stroke-linecap="butt"/>
<line x1="346.5" y1="0.0" x2="346.5" y2="1080.0" stroke="#A7A7A7" stroke-width="0.7" opacity="1" stroke-linecap="butt"/>
<line x1="396.0" y1="0.0" x2="396.0" y2="1080.0" stroke="#A7A7A7" stroke-width="0.7" opacity="1" stroke-linecap="butt"/>
<line x1="445.5" y1="0.0" x2="445.5" y2="1080.0" stroke="#A7A7A7" stroke-width="0.7" opacity="1" stroke-linecap="butt"/>
<line x1="495.0" y1="0.0" x2="495.0" y2="1080.0" stroke="#A7A7A7" stroke-width="0.7" opacity="1" stroke-linecap="butt"/>
<line x1="544.5" y1="0.0" x2="544.5" y2="1080.0" stroke="#A7A7A7" stroke-width="0.7" opacity="1" stroke-linecap="butt"/>
<line x1="594.0" y1="0.0" x2="594.0" y2="1080.0" stroke="#A7A7A7" stroke-width="0.7" opacity="1" stroke-linecap="butt"/>
<line x1="643.5" y1="0.0" x2="643.5" y2="1080.0" stroke="#A7A7A7" stroke-width="0.7" opacity="1" stroke-linecap="butt"/>
<line x1="693.0" y1="0.0" x2="693.0" y2="1080.0" stroke="#A7A7A7" stroke-width="0.7" opacity="1" stroke-linecap="butt"/>
<line x1="742.5" y1="0.0" x2="742.5" y2="1080.0" stroke="#A7A7A7" stroke-width="0.7" opacity="1" stroke-linecap="butt"/>
<line x1="792.0" y1="0.0" x2="792.0" y2="1080.0" stroke="#A7A7A7" stroke-width="0.7" opacity="1" stroke-linecap="butt"/>
<line x1="841.5" y1="0.0" x2="841.5" y2="1080.0" stroke="#A7A7A7" stroke-width="0.7" opacity="1" stroke-linecap="butt"/>
<line x1="891.0" y1="0.0" x2="891.0" y2="1080.0" stroke="#A7A7A7" stroke-width="0.7" opacity="1" stroke-linecap="butt"/>
<line x1="940.5" y1="0.0" x2="940.5" y2="1080.0" stroke="#A7A7A7" stroke-width="0.7" opacity="1" stroke-linecap="butt"/>
<line x1="-0.0" y1="0.0" x2="990.0" y2="0.0" stroke="#A7A7A7" stroke-width="0.7" opacity="1" stroke-linecap="butt"/>
<line x1="-0.0" y1="54.0" x2="990.0" y2="54.0" stroke="#A7A7A7" stroke-width="0.7" opacity="1" stroke-linecap="butt"/>
<line x1="-0.0" y1="108.0" x2="990.0" y2="108.0" stroke="#A7A7A7" stroke-width="0.7" opacity="1" stroke-linecap="butt"/>
<line x1="-0.0" y1="162.0" x2="990.0" y2="162.0" stroke="#A7A7A7" stroke-width="0.7" opacity="1" stroke-linecap="butt"/>
<line x1="-0.0" y1="216.0" x2="990.0" y2="216.0" stroke="#A7A7A7" stroke-width="0.7" opacity="1" stroke-linecap="butt"/>
<line x1="-0.0" y1="270.0" x2="990.0" y2="270.0" stroke="#A7A7A7" stroke-width="0.7" opacity="1" stroke-linecap="butt"/>
<line x1="-0.0" y1="324.0" x2="990.0" y2="324.0" stroke="#A7A7A7" stroke-width="0.7" opacity="1" stroke-linecap="butt"/>
<line x1="-0.0" y1="378.0" x2="990.0" y2="378.0" stroke="#A7A7A7" stroke-width="0.7" opacity="1" stroke-linecap="butt"/>
<line x1="-0.0" y1="432.0" x2="990.0" y2="432.0" stroke="#A7A7A7" stroke-width="0.7" opacity="1" stroke-linecap="butt"/>
<line x1="-0.0" y1="486.0" x2="990.0" y2="486.0" stroke="#A7A7A7" stroke-width="0.7" opacity="1" stroke-linecap="butt"/>
<line x1="-0.0" y1="540.0" x2="990.0" y2="540.0" stroke="#A7A7A7" stroke-width="0.7" opacity="1" stroke-linecap="butt"/>
<line x1="-0.0" y1="594.0" x2="990.0" y2="594.0" stroke="#A7A7A7" stroke-width="0.7" opacity="1" stroke-linecap="butt"/>
<line x1="-0.0" y1="648.0" x2="990.0" y2="648.0" stroke="#A7A7A7" stroke-width="0.7" opacity="1" stroke-linecap="butt"/>
<line x1="-0.0" y1="702.0" x2="990.0" y2="702.0" stroke="#A7A7A7" stroke-width="0.7" opacity="1" stroke-linecap="butt"/>
<line x1="-0.0" y1="756.0" x2="990.0" y2="756.0" stroke="#A7A7A7" stroke-width="0.7" opacity="1" stroke-linecap="butt"/>
<line x1="-0.0" y1="810.0" x2="990.0" y2="810.0" stroke="#A7A7A7" stroke-width="0.7" opacity="1" stroke-linecap="butt"/>
<line x1="-0.0" y1="864.0" x2="990.0" y2="864.0" stroke="#A7A7A7" stroke-width="0.7" opacity="1" stroke-linecap="butt"/>
<line x1="-0.0" y1="918.0" x2="990.0" y2="918.0" stroke="#A7A7A7" stroke-width="0.7" opacity="1" stroke-linecap="butt"/>
<line x1="-0.0" y1="972.0" x2="990.0" y2="972.0" stroke="#A7A7A7" stroke-width="0.7" opacity="1" stroke-linecap="butt"/>
<line x1="-0.0" y1="1026.0" x2="990.0" y2="1026.0" stroke="#A7A7A7" stroke-width="0.7" opacity="1" stroke-linecap="butt"/>
<line x1="0.0" y1="540.0" x2="990.0" y2="540.0" stroke="yellow" stroke-width="1" opacity="1" stroke-linecap="butt"/>
<line x1="0.0" y1="0.0" x2="0.0" y2="1080.0" stroke="yellow" stroke-width="1" opacity="1" stroke-linecap="butt"/>
<polyline points="0.0, 777.48 0.99, 777.57 1.98, 777.65 2.97, 777.74 3.96, 777.82 4.95, 777.91 5.94, 777.99 6.93, 778.08 7.92, 778.16 8.91, 778.25 9.9, 778.33 10.89, 778.42 11.88, 778.5 12.87, 778.58 13.86, 778.67 14.85, 778.75 15.84, 778.84 16.83, 778.92 17.82, 779.0 18.81, 779.09 19.8, 779.17 20.79, 779.26 21.78, 779.34 22.77, 779.42 23.76, 779.5 24.75, 779.59 25.74, 779.67 26.73, 779.75 27.72, 779.84 28.71, 779.92 29.7, 780.0 30.69, 780.08 31.68, 780.17 32.67, 780.25 33.66, 780.33 34.65, 780.41 35.64, 780.49 36.63, 780.58 37.62, 780.66 38.61, 780.74 39.6, 780.82 40.59, 780.9 41.58, 780.98 42.57, 781.06 43.56, 781.15 44.55, 781.23 45.54, 781.31 46.53, 781.39 47.52, 781.47 48.51, 781.55 49.5, 781.63 50.49, 781.71 51.48, 781.79 52.47, 781.87 53.46, 781.95 54.45, 782.03 55.44, 782.11 56.43, 782.19 57.42, 782.27 58.41, 782.35 59.4, 782.43 60.39, 782.51 61.38, 782.59 62.37, 782.66 63.36, 782.74 64.35, 782.82 65.34, 782.9 66.33, 782.98 67.32, 783.06 68.31, 783.14 69.3, 783.21 70.29, 783.29 71.28, 783.37 72.27, 783.45 73.26, 783.53 74.25, 783.6 75.24, 783.68 76.23, 783.76 77.22, 783.84 78.21, 783.91 79.2, 783.99 80.19, 784.07 81.18, 784.14 82.17, 784.22 83.16, 784.3 84.15, 784.37 85.14, 784.45 86.13, 784.53 87.12, 784.6 88.11, 784.68 89.1, 784.76 90.09, 784.83 91.08, 784.91 92.07, 784.98 93.06, 785.06 94.05, 785.13 95.04, 785.21 96.03, 785.29 97.02, 785.36 98.01, 785.44 99.0, 785.51 99.99, 785.59 100.98, 785.66 101.97, 785.73 102.96, 785.81 103.95, 785.88 104.94, 785.96 105.93, 786.03 106.92, 786.11 107.91, 786.18 108.9, 786.25 109.89, 786.33 110.88, 786.4 111.87, 786.47 112.86, 786.55 113.85, 786.62 114.84, 786.69 115.83, 786.77 116.82, 786.84 117.81, 786.91 118.8, 786.99 119.79, 787.06 120.78, 787.13 121.77, 787.2 122.76, 787.28 123.75, 787.35 124.74, 787.42 125.73, 787.49 126.72, 787.56 127.71, 787.64 128.7, 787.71 129.69, 787.78 130.68, 787.85 131.67, 787.92 132.66, 787.99 133.65, 788.06 134.64, 788.14 135.63, 788.21 136.62, 788.28 137.61, 788.35 138.6, 788.42 139.59, 788.49 140.58, 788.56 141.57, 788.63 142.56, 788.7 143.55, 788.77 144.54, 788.84 145.53, 788.91 146.52, 788.98 147.51, 789.05 148.5, 789.12 149.49, 789.19 150.48, 789.26 151.47, 789.33 152.46, 789.4 153.45, 789.46 154.44, 789.53 155.43, 789.6 156.42, 789.67 157.41, 789.74 158.4, 789.81 159.39, 789.88 160.38, 789.94 161.37, 790.01 162.36, 790.08 163.35, 790.15 164.34, 790.21 165.33, 790.28 166.32, 790.35 167.31, 790.42 168.3, 790.48 169.29, 790.55 170.28, 790.62 171.27, 790.69 172.26, 790.75 173.25, 790.82 174.24, 790.89 175.23, 790.95 176.22, 791.02 177.21, 791.08 178.2, 791.15 179.19, 791.22 180.18, 791.28 181.17, 791.35 182.16, 791.41 183.15, 791.48 184.14, 791.55 185.13, 791.61 186.12, 791.68 187.11, 791.74 188.1, 791.81 189.09, 791.87 190.08, 791.94 191.07, 792.0 192.06, 792.06 193.05, 792.13 194.04, 792.19 195.03, 792.26 196.02, 792.32 197.01, 792.39 198.0, 792.45 198.99, 792.51 199.98, 792.58 200.97, 792.64 201.96, 792.7 202.95, 792.77 203.94, 792.83 204.93, 792.89 205.92, 792.96 206.91, 793.02 207.9, 793.08 208.89, 793.15 209.88, 793.21 210.87, 793.27 211.86, 793.33 212.85, 793.39 213.84, 793.46 214.83, 793.52 215.82, 793.58 216.81, 793.64 217.8, 793.7 218.79, 793.77 219.78, 793.83 220.77, 793.89 221.76, 793.95 222.75, 794.01 223.74, 794.07 224.73, 794.13 225.72, 794.19 226.71, 794.25 227.7, 794.31 228.69, 794.37 229.68, 794.44 230.67, 794.5 231.66, 794.56 232.65, 794.62 233.64, 794.68 234.63, 794.73 235.62, 794.79 236.61, 794.85 237.6, 794.91 238.59, 794.97 239.58, 795.03 240.57, 795.09 241.56, 795.15 242.55, 795.21 243.54, 795.27 244.53, 795.33 245.52, 795.38 246.51, 795.44 247.5, 795.5 248.49, 795.56 249.48, 795.62 250.47, 795.68 251.46, 795.73 252.45, 795.79 253.44, 795.85 254.43, 795.91 255.42, 795.96 256.41, 796.02 257.4, 796.08 258.39, 796.13 259.38, 796.19 260.37, 796.25 261.36, 796.3 262.35, 796.36 263.34, 796.42 264.33, 796.47 265.32, 796.53 266.31, 796.59 267.3, 796.64 268.29, 796.7 269.28, 796.75 270.27, 796.81 271.26, 796.86 272.25, 796.92 273.24, 796.98 274.23, 797.03 275.22, 797.09 276.21, 797.14 277.2, 797.2 278.19, 797.25 279.18, 797.3 280.17, 797.36 281.16, 797.41 282.15, 797.47 283.14, 797.52 284.13, 797.58 285.12, 797.63 286.11, 797.68 287.1, 797.74 288.09, 797.79 289.08, 797.84 290.07, 797.9 291.06, 797.95 292.05, 798.0 293.04, 798.06 294.03, 798.11 295.02, 798.16 296.01, 798.22 297.0, 798.27 297.99, 798.32 298.98, 798.37 299.97, 798.43 300.96, 798.48 301.95, 798.53 302.94, 798.58 303.93, 798.63 304.92, 798.68 305.91, 798.74 306.9, 798.79 307.89, 798.84 308.88, 798.89 309.87, 798.94 310.86, 798.99 311.85, 799.04 312.84, 799.09 313.83, 799.14 314.82, 799.19 315.81, 799.24 316.8, 799.29 317.79, 799.34 318.78, 799.39 319.77, 799.44 320.76, 799.49 321.75, 799.54 322.74, 799.59 323.73, 799.64 324.72, 799.69 325.71, 799.74 326.7, 799.79 327.69, 799.84 328.68, 799.89 329.67, 799.94 330.66, 799.99 331.65, 800.03 332.64, 800.08 333.63, 800.13 334.62, 800.18 335.61, 800.23 336.6, 800.28 337.59, 800.32 338.58, 800.37 339.57, 800.42 340.56, 800.47 341.55, 800.51 342.54, 800.56 343.53, 800.61 344.52, 800.65 345.51, 800.7 346.5, 800.75 347.49, 800.8 348.48, 800.84 349.47, 800.89 350.46, 800.93 351.45, 800.98 352.44, 801.03 353.43, 801.07 354.42, 801.12 355.41, 801.16 356.4, 801.21 357.39, 801.26 358.38, 801.3 359.37, 801.35 360.36, 801.39 361.35, 801.44 362.34, 801.48 363.33, 801.53 364.32, 801.57 365.31, 801.62 366.3, 801.66 367.29, 801.7 368.28, 801.75 369.27, 801.79 370.26, 801.84 371.25, 801.88 372.24, 801.92 373.23, 801.97 374.22, 802.01 375.21, 802.05 376.2, 802.1 377.19, 802.14 378.18, 802.18 379.17, 802.23 380.16, 802.27 381.15, 802.31 382.14, 802.35 383.13, 802.4 384.12, 802.44 385.11, 802.48 386.1, 802.52 387.09, 802.57 388.08, 802.61 389.07, 802.65 390.06, 802.69 391.05, 802.73 392.04, 802.77 393.03, 802.82 394.02, 802.86 395.01, 802.9 396.0, 802.94 396.99, 802.98 397.98, 803.02 398.97, 803.06 399.96, 803.1 400.95, 803.14 401.94, 803.18 402.93, 803.22 403.92, 803.26 404.91, 803.3 405.9, 803.34 406.89, 803.38 407.88, 803.42 408.87, 803.46 409.86, 803.5 410.85, 803.54 411.84, 803.58 412.83, 803.62 413.82, 803.66 414.81, 803.69 415.8, 803.73 416.79, 803.77 417.78, 803.81 418.77, 803.85 419.76, 803.89 420.75, 803.92 421.74, 803.96 422.73, 804.0 423.72, 804.04 424.71, 804.08 425.7, 804.11 426.69, 804.15 427.68, 804.19 428.67, 804.22 429.66, 804.26 430.65, 804.3 431.64, 804.34 432.63, 804.37 433.62, 804.41 434.61, 804.44 435.6, 804.48 436.59, 804.52 437.58, 804.55 438.57, 804.59 439.56, 804.62 440.55, 804.66 441.54, 804.7 442.53, 804.73 443.52, 804.77 444.51, 804.8 445.5, 804.84 446.49, 804.87 447.48, 804.91 448.47, 804.94 449.46, 804.98 450.45, 805.01 451.44, 805.05 452.43, 805.08 453.42, 805.11 454.41, 805.15 455.4, 805.18 456.39, 805.22 457.38, 805.25 458.37, 805.28 459.36, 805.32 460.35, 805.35 461.34, 805.38 462.33, 805.42 463.32, 805.45 464.31, 805.48 465.3, 805.51 466.29, 805.55 467.28, 805.58 468.27, 805.61 469.26, 805.64 470.25, 805.68 471.24, 805.71 472.23, 805.74 473.22, 805.77 474.21, 805.8 475.2, 805.84 476.19, 805.87 477.18, 805.9 478.17, 805.93 479.16, 805.96 480.15, 805.99 481.14, 806.02 482.13, 806.05 483.12, 806.08 484.11, 806.11 485.1, 806.14 486.09, 806.17 487.08, 806.2 488.07, 806.23 489.06, 806.26 490.05, 806.29 491.04, 806.32 492.03, 806.35 493.02, 806.38 494.01, 806.41 495.0, 806.44 495.99, 806.47 496.98, 806.5 497.97, 806.53 498.96, 806.56 499.95, 806.59 500.94, 806.61 501.93, 806.64 502.92, 806.67 503.91, 806.7 504.9, 806.73 505.89, 806.75 506.88, 806.78 507.87, 806.81 508.86, 806.84 509.85, 806.86 510.84, 806.89 511.83, 806.92 512.82, 806.95 513.81, 806.97 514.8, 807.0 515.79, 807.03 516.78, 807.05 517.77, 807.08 518.76, 807.11 519.75, 807.13 520.74, 807.16 521.73, 807.18 522.72, 807.21 523.71, 807.24 524.7, 807.26 525.69, 807.29 526.68, 807.31 527.67, 807.34 528.66, 807.36 529.65, 807.39 530.64, 807.41 531.63, 807.44 532.62, 807.46 533.61, 807.49 534.6, 807.51 535.59, 807.54 536.58, 807.56 537.57, 807.58 538.56, 807.61 539.55, 807.63 540.54, 807.66 541.53, 807.68 542.52, 807.7 543.51, 807.73 544.5, 807.75 545.49, 807.77 546.48, 807.8 547.47, 807.82 548.46, 807.84 549.45, 807.86 550.44, 807.89 551.43, 807.91 552.42, 807.93 553.41, 807.95 554.4, 807.98 555.39, 808.0 556.38, 808.02 557.37, 808.04 558.36, 808.06 559.35, 808.08 560.34, 808.11 561.33, 808.13 562.32, 808.15 563.31, 808.17 564.3, 808.19 565.29, 808.21 566.28, 808.23 567.27, 808.25 568.26, 808.27 569.25, 808.29 570.24, 808.31 571.23, 808.33 572.22, 808.35 573.21, 808.37 574.2, 808.39 575.19, 808.41 576.18, 808.43 577.17, 808.45 578.16, 808.47 579.15, 808.49 580.14, 808.51 581.13, 808.53 582.12, 808.54 583.11, 808.56 584.1, 808.58 585.09, 808.6 586.08, 808.62 587.07, 808.64 588.06, 808.65 589.05, 808.67 590.04, 808.69 591.03, 808.71 592.02, 808.73 593.01, 808.74 594.0, 808.76 594.99, 808.78 595.98, 808.79 596.97, 808.81 597.96, 808.83 598.95, 808.84 599.94, 808.86 600.93, 808.88 601.92, 808.89 602.91, 808.91 603.9, 808.93 604.89, 808.94 605.88, 808.96 606.87, 808.97 607.86, 808.99 608.85, 809.01 609.84, 809.02 610.83, 809.04 611.82, 809.05 612.81, 809.07 613.8, 809.08 614.79, 809.1 615.78, 809.11 616.77, 809.12 617.76, 809.14 618.75, 809.15 619.74, 809.17 620.73, 809.18 621.72, 809.2 622.71, 809.21 623.7, 809.22 624.69, 809.24 625.68, 809.25 626.67, 809.26 627.66, 809.28 628.65, 809.29 629.64, 809.3 630.63, 809.32 631.62, 809.33 632.61, 809.34 633.6, 809.35 634.59, 809.37 635.58, 809.38 636.57, 809.39 637.56, 809.4 638.55, 809.41 639.54, 809.43 640.53, 809.44 641.52, 809.45 642.51, 809.46 643.5, 809.47 644.49, 809.48 645.48, 809.49 646.47, 809.51 647.46, 809.52 648.45, 809.53 649.44, 809.54 650.43, 809.55 651.42, 809.56 652.41, 809.57 653.4, 809.58 654.39, 809.59 655.38, 809.6 656.37, 809.61 657.36, 809.62 658.35, 809.63 659.34, 809.64 660.33, 809.65 661.32, 809.66 662.31, 809.66 663.3, 809.67 664.29, 809.68 665.28, 809.69 666.27, 809.7 667.26, 809.71 668.25, 809.72 669.24, 809.72 670.23, 809.73 671.22, 809.74 672.21, 809.75 673.2, 809.76 674.19, 809.76 675.18, 809.77 676.17, 809.78 677.16, 809.79 678.15, 809.79 679.14, 809.8 680.13, 809.81 681.12, 809.81 682.11, 809.82 683.1, 809.83 684.09, 809.83 685.08, 809.84 686.07, 809.85 687.06, 809.85 688.05, 809.86 689.04, 809.86 690.03, 809.87 691.02, 809.87 692.01, 809.88 693.0, 809.88 693.99, 809.89 694.98, 809.9 695.97, 809.9 696.96, 809.9 697.95, 809.91 698.94, 809.91 699.93, 809.92 700.92, 809.92 701.91, 809.93 702.9, 809.93 703.89, 809.94 704.88, 809.94 705.87, 809.94 706.86, 809.95 707.85, 809.95 708.84, 809.95 709.83, 809.96 710.82, 809.96 711.81, 809.96 712.8, 809.97 713.79, 809.97 714.78, 809.97 715.77, 809.97 716.76, 809.98 717.75, 809.98 718.74, 809.98 719.73, 809.98 720.72, 809.99 721.71, 809.99 722.7, 809.99 723.69, 809.99 724.68, 809.99 725.67, 809.99 726.66, 809.99 727.65, 810.0 728.64, 810.0 729.63, 810.0 730.62, 810.0 731.61, 810.0 732.6, 810.0 733.59, 810.0 734.58, 810.0 735.57, 810.0 736.56, 810.0 737.55, 810.0 738.54, 810.0 739.53, 810.0 740.52, 810.0 741.51, 810.0 742.5, 810.0 743.49, 810.0 744.48, 810.0 745.47, 809.99 746.46, 809.99 747.45, 809.99 748.44, 809.99 749.43, 809.99 750.42, 809.99 751.41, 809.99 752.4, 809.98 753.39, 809.98 754.38, 809.98 755.37, 809.98 756.36, 809.98 757.35, 809.97 758.34, 809.97 759.33, 809.97 760.32, 809.96 761.31, 809.96 762.3, 809.96 763.29, 809.96 764.28, 809.95 765.27, 809.95 766.26, 809.95 767.25, 809.94 768.24, 809.94 769.23, 809.93 770.22, 809.93 771.21, 809.93 772.2, 809.92 773.19, 809.92 774.18, 809.91 775.17, 809.91 776.16, 809.9 777.15, 809.9 778.14, 809.89 779.13, 809.89 780.12, 809.88 781.11, 809.88 782.1, 809.87 783.09, 809.87 784.08, 809.86 785.07, 809.85 786.06, 809.85 787.05, 809.84 788.04, 809.84 789.03, 809.83 790.02, 809.82 791.01, 809.82 792.0, 809.81 792.99, 809.8 793.98, 809.8 794.97, 809.79 795.96, 809.78 796.95, 809.78 797.94, 809.77 798.93, 809.76 799.92, 809.75 800.91, 809.75 801.9, 809.74 802.89, 809.73 803.88, 809.72 804.87, 809.71 805.86, 809.7 806.85, 809.7 807.84, 809.69 808.83, 809.68 809.82, 809.67 810.81, 809.66 811.8, 809.65 812.79, 809.64 813.78, 809.63 814.77, 809.62 815.76, 809.61 816.75, 809.6 817.74, 809.59 818.73, 809.58 819.72, 809.57 820.71, 809.56 821.7, 809.55 822.69, 809.54 823.68, 809.53 824.67, 809.52 825.66, 809.51 826.65, 809.5 827.64, 809.49 828.63, 809.48 829.62, 809.47 830.61, 809.46 831.6, 809.44 832.59, 809.43 833.58, 809.42 834.57, 809.41 835.56, 809.4 836.55, 809.39 837.54, 809.37 838.53, 809.36 839.52, 809.35 840.51, 809.34 841.5, 809.32 842.49, 809.31 843.48, 809.3 844.47, 809.28 845.46, 809.27 846.45, 809.26 847.44, 809.25 848.43, 809.23 849.42, 809.22 850.41, 809.2 851.4, 809.19 852.39, 809.18 853.38, 809.16 854.37, 809.15 855.36, 809.13 856.35, 809.12 857.34, 809.1 858.33, 809.09 859.32, 809.08 860.31, 809.06 861.3, 809.05 862.29, 809.03 863.28, 809.01 864.27, 809.0 865.26, 808.98 866.25, 808.97 867.24, 808.95 868.23, 808.94 869.22, 808.92 870.21, 808.9 871.2, 808.89 872.19, 808.87 873.18, 808.85 874.17, 808.84 875.16, 808.82 876.15, 808.8 877.14, 808.79 878.13, 808.77 879.12, 808.75 880.11, 808.74 881.1, 808.72 882.09, 808.7 883.08, 808.68 884.07, 808.67 885.06, 808.65 886.05, 808.63 887.04, 808.61 888.03, 808.59 889.02, 808.57 890.01, 808.56 891.0, 808.54 891.99, 808.52 892.98, 808.5 893.97, 808.48 894.96, 808.46 895.95, 808.44 896.94, 808.42 897.93, 808.4 898.92, 808.38 899.91, 808.36 900.9, 808.34 901.89, 808.32 902.88, 808.3 903.87, 808.28 904.86, 808.26 905.85, 808.24 906.84, 808.22 907.83, 808.2 908.82, 808.18 909.81, 808.16 910.8, 808.14 911.79, 808.12 912.78, 808.1 913.77, 808.08 914.76, 808.05 915.75, 808.03 916.74, 808.01 917.73, 807.99 918.72, 807.97 919.71, 807.94 920.7, 807.92 921.69, 807.9 922.68, 807.88 923.67, 807.86 924.66, 807.83 925.65, 807.81 926.64, 807.79 927.63, 807.76 928.62, 807.74 929.61, 807.72 930.6, 807.69 931.59, 807.67 932.58, 807.65 933.57, 807.62 934.56, 807.6 935.55, 807.57 936.54, 807.55 937.53, 807.53 938.52, 807.5 939.51, 807.48 940.5, 807.45 941.49, 807.43 942.48, 807.4 943.47, 807.38 944.46, 807.35 945.45, 807.33 946.44, 807.3 947.43, 807.28 948.42, 807.25 949.41, 807.23 950.4, 807.2 951.39, 807.17 952.38, 807.15 953.37, 807.12 954.36, 807.1 955.35, 807.07 956.34, 807.04 957.33, 807.02 958.32, 806.99 959.31, 806.96 960.3, 806.94 961.29, 806.91 962.28, 806.88 963.27, 806.85 964.26, 806.83 965.25, 806.8 966.24, 806.77 967.23, 806.74 968.22, 806.72 969.21, 806.69 970.2, 806.66 971.19, 806.63 972.18, 806.6 973.17, 806.57 974.16, 806.55 975.15, 806.52 976.14, 806.49 977.13, 806.46 978.12, 806.43 979.11, 806.4 980.1, 806.37 981.09, 806.34 982.08, 806.31 983.07, 806.28 984.06, 806.25 985.05, 806.22 986.04, 806.19 987.03, 806.16 988.02, 806.13 989.01, 806.1 990.0, 806.07 " fill="none" stroke="yellow" stroke-width="1.5" stroke-linejoin="round" stroke-opacity="1"/>

 </svg> 
 </g> 

 </svg>