<svg version="1.1" 
 baseProfile="full" 
 width="1980" 
 height="1080" 
 xmlns="http://www.w3.org/2000/svg">
<rect x="0.0" y="0.0" width="1980" height="1080" fill="black" stroke="black" stroke-width="0" opacity="1"/>
<rect x="0.0" y="0.0" width="990.0" height="1080" fill="none" stroke="white" stroke-width="2.5" opacity="1"/>
<rect x="943.59375" y="278.07" width="92.8125" height="90.0" fill="white" stroke="black" stroke-width="1" opacity="1"/>
<line x1="990.0" y1="540.0" x2="990.0" y2="323.07" stroke="white" stroke-width="1" opacity="1" stroke-linecap="butt"/>
<line x1="495.0" y1="323.07" x2="990.0" y2="323.07" stroke="red" stroke-width="1" opacity="1" stroke-linecap="butt"/>
<g transform="translate(0.0 0.0)"> 
<svg version="1.1" 
 baseProfile="full" 
 width="990.0" 
 height="1080" 
 xmlns="http://www.w3.org/2000/svg">
<line x1="0.0" y1="0.0" x2="0.0" y2="1080.0" stroke="#A7A7A7" stroke-width="0.7" opacity="1" stroke-linecap="butt"/>
<line x1="49.5" y1="0.0" x2="49.5" y2="1080.0" stroke="#A7A7A7" stroke-width="0.7" opacity="1" stroke-linecap="butt"/>
<line x1="99.0" y1="0.0" x2="99.0" y2="1080.0" stroke="#A7A7A7" stroke-width="0.7" opacity="1" stroke-linecap="butt"/>
<line x1="148.5" y1="0.0" x2="148.5" y2="1080.0" stroke="#A7A7A7" stroke-width="0.7" opacity="1" stroke-linecap="butt"/>
<line x1="198.0" y1="0.0" x2="198.0" y2="1080.0" stroke="#A7A7A7" stroke-width="0.7" opacity="1" stroke-linecap="butt"/>
<line x1="247.5" y1="0.0" x2="247.5" y2="1080.0" stroke="#A7A7A7" stroke-width="0.7" opacity="1" stroke-linecap="butt"/>
<line x1="297.0" y1="0.0" x2="297.0" y2="1080.0" stroke="#A7A7A7" stroke-width="0.7" opacity="1" stroke-linecap="butt"/>
<line x1="346.5" y1="0.0" x2="346.5" y2="1080.0" stroke="#A7A7A7" stroke-width="0.7" opacity="1" stroke-linecap="butt"/>
<line x1="396.0" y1="0.0" x2="396.0" y2="1080.0" stroke="#A7A7A7" stroke-width="0.7" opacity="1" stroke-linecap="butt"/>
<line x1="445.5" y1="0.0" x2="445.5" y2="1080.0" stroke="#A7A7A7" stroke-width="0.7" opacity="1" stroke-linecap="butt"/>
<line x1="495.0" y1="0.0" x2="495.0" y2="1080.0" stroke="#A7A7A7" stroke-width="0.7" opacity="1" stroke-linecap="butt"/>
<line x1="544.5" y1="0.0" x2="544.5" y2="1080.0" stroke="#A7A7A7" stroke-width="0.7" opacity="1" stroke-linecap="butt"/>
<line x1="594.0" y1="0.0" x2="594.0" y2="1080.0" stroke="#A7A7A7" stroke-width="0.7" opacity="1" stroke-linecap="butt"/>
<line x1="643.5" y1="0.0" x2="643.5" y2="1080.0" stroke="#A7A7A7" stroke-width="0.7" opacity="1" stroke-linecap="butt"/>
<line x1="693.0" y1="0.0" x2="693.0" y2="1080.0" stroke="#A7A7A7" stroke-width="0.7" opacity="1" stroke-linecap="butt"/>
<line x1="742.5" y1="0.0" x2="742.5" y2="1080.0" stroke="#A7A7A7" stroke-width="0.7" opacity="1" stroke-linecap="butt"/>
<line x1="792.0" y1="0.0" x2="792.0" y2="1080.0" stroke="#A7A7A7" stroke-width="0.7" opacity="1" stroke-linecap="butt"/>
<line x1="841.5" y1="0.0" x2="841.5" y2="1080.0" stroke="#A7A7A7" stroke-width="0.7" opacity="1" stroke-linecap="butt"/>
<line x1="891.0" y1="0.0" x2="891.0" y2="1080.0" stroke="#A7A7A7" stroke-width="0.7" opacity="1" stroke-linecap="butt"/>
<line x1="940.5" y1="0.0" x2="940.5" y2="1080.0" stroke="#A7A7A7" stroke-width="0.7" opacity="1" stroke-linecap="butt"/>
<line x1="-0.0" y1="0.0" x2="990.0" y2="0.0" stroke="#A7A7A7" stroke-width="0.7" opacity="1" stroke-linecap="butt"/>
<line x1="-0.0" y1="54.0" x2="990.0" y2="54.0" stroke="#A7A7A7" stroke-width="0.7" opacity="1" stroke-linecap="butt"/>
<line x1="-0.0" y1="108.0" x2="990.0" y2="108.0" stroke="#A7A7A7" stroke-width="0.7" opacity="1" stroke-linecap="butt"/>
<line x1="-0.0" y1="162.0" x2="990.0" y2="162.0" stroke="#A7A7A7" stroke-width="0.7" opacity="1" stroke-linecap="butt"/>
<line x1="-0.0" y1="216.0" x2="990.0" y2="216.0" stroke="#A7A7A7" stroke-width="0.7" opacity="1" stroke-linecap="butt"/>
<line x1="-0.0" y1="270.0" x2="990.0" y2="270.0" stroke="#A7A7A7" stroke-width="0.7" opacity="1" stroke-linecap="butt"/>
<line x1="-0.0" y1="324.0" x2="990.0" y2="324.0" stroke="#A7A7A7" stroke-width="0.7" opacity="1" stroke-linecap="butt"/>
<line x1="-0.0" y1="378.0" x2="990.0" y2="378.0" stroke="#A7A7A7" stroke-width="0.7" opacity="1" stroke-linecap="butt"/>
<line x1="-0.0" y1="432.0" x2="990.0" y2="432.0" stroke="#A7A7A7" stroke-width="0.7" opacity="1" stroke-linecap="butt"/>
<line x1="-0.0" y1="486.0" x2="990.0" y2="486.0" stroke="#A7A7A7" stroke-width="0.7" opacity="1" stroke-linecap="butt"/>
<line x1="-0.0" y1="540.0" x2="990.0" y2="540.0" stroke="#A7A7A7" stroke-width="0.7" opacity="1" stroke-linecap="butt"/>
<line x1="-0.0" y1="594.0" x2="990.0" y2="594.0" stroke="#A7A7A7" stroke-width="0.7" opacity="1" stroke-linecap="butt"/>
<line x1="-0.0" y1="648.0" x2="990.0" y2="648.0" stroke="#A7A7A7" stroke-width="0.7" opacity="1" stroke-linecap="butt"/>
<line x1="-0.0" y1="702.0" x2="990.0" y2="702.0" stroke="#A7A7A7" stroke-width="0.7" opacity="1" stroke-linecap="butt"/>
<line x1="-0.0" y1="756.0" x2="990.0" y2="756.0" stroke="#A7A7A7" stroke-width="0.7" opacity="1" stroke-linecap="butt"/>
<line x1="-0.0" y1="810.0" x2="990.0" y2="810.0" stroke="#A7A7A7" stroke-width="0.7" opacity="1" stroke-linecap="butt"/>
<line x1="-0.0" y1="864.0" x2="990.0" y2="864.0" stroke="#A7A7A7" stroke-width="0.7" opacity="1" stroke-linecap="butt"/>
<line x1="-0.0" y1="918.0" x2="990.0" y2="918.0" stroke="#A7A7A7" stroke-width="0.7" opacity="1" stroke-linecap="butt"/>
<line x1="-0.0" y1="972.0" x2="990.0" y2="972.0" stroke="#A7A7A7" stroke-width="0.7" opacity="1" stroke-linecap="butt"/>
<line x1="-0.0" y1="1026.0" x2="990.0" y2="1026.0" stroke="#A7A7A7" stroke-width="0.7" opacity="1" stroke-linecap="butt"/>
<line x1="0.0" y1="540.0" x2="990.0" y2="540.0" stroke="yellow" stroke-width="1" opacity="1" stroke-linecap="butt"/>
<line x1="0.0" y1="0.0" x2="0.0" y2="1080.0" stroke="yellow" stroke-width="1" opacity="1" stroke-linecap="butt"/>
<polyline points="0.0, 735.23 0.99, 735.36 1.98, 735.48 2.97, 735.61 3.96, 735.73 4.95, 735.85 5.94, 735.98 6.93, 736.1 7.92, 736.23 8.91, 736.35 9.9, 736.47 10.89, 736.6 11.88, 736.72 12.87, 736.84 13.86, 736.97 14.85, 737.09 15.84, 737.21 16.83, 737.33 17.82, 737.46 18.81, 737.58 19.8, 737.7 20.79, 737.83 21.78, 737.95 22.77, 738.07 23.76, 738.19 24.75, 738.31 25.74, 738.44 26.73, 738.56 27.72, 738.68 28.71, 738.8 29.7, 738.92 30.69, 739.05 31.68, 739.17 32.67, 739.29 33.66, 739.41 34.65, 739.53 35.64, 739.65 36.63, 739.77 37.62, 739.89 38.61, 740.02 39.6, 740.14 40.59, 740.26 41.58, 740.38 42.57, 740.5 43.56, 740.62 44.55, 740.74 45.54, 740.86 46.53, 740.98 47.52, 741.1 48.51, 741.22 49.5, 741.34 50.49, 741.46 51.48, 741.58 52.47, 741.7 53.46, 741.82 54.45, 741.94 55.44, 742.06 56.43, 742.18 57.42, 742.3 58.41, 742.42 59.4, 742.54 60.39, 742.65 61.38, 742.77 62.37, 742.89 63.36, 743.01 64.35, 743.13 65.34, 743.25 66.33, 743.37 67.32, 743.48 68.31, 743.6 69.3, 743.72 70.29, 743.84 71.28, 743.96 72.27, 744.08 73.26, 744.19 74.25, 744.31 75.24, 744.43 76.23, 744.55 77.22, 744.66 78.21, 744.78 79.2, 744.9 80.19, 745.01 81.18, 745.13 82.17, 745.25 83.16, 745.37 84.15, 745.48 85.14, 745.6 86.13, 745.72 87.12, 745.83 88.11, 745.95 89.1, 746.07 90.09, 746.18 91.08, 746.3 92.07, 746.41 93.06, 746.53 94.05, 746.65 95.04, 746.76 96.03, 746.88 97.02, 746.99 98.01, 747.11 99.0, 747.22 99.99, 747.34 100.98, 747.45 101.97, 747.57 102.96, 747.68 103.95, 747.8 104.94, 747.91 105.93, 748.03 106.92, 748.14 107.91, 748.26 108.9, 748.37 109.89, 748.49 110.88, 748.6 111.87, 748.72 112.86, 748.83 113.85, 748.94 114.84, 749.06 115.83, 749.17 116.82, 749.29 117.81, 749.4 118.8, 749.51 119.79, 749.63 120.78, 749.74 121.77, 749.85 122.76, 749.97 123.75, 750.08 124.74, 750.19 125.73, 750.31 126.72, 750.42 127.71, 750.53 128.7, 750.64 129.69, 750.76 130.68, 750.87 131.67, 750.98 132.66, 751.09 133.65, 751.21 134.64, 751.32 135.63, 751.43 136.62, 751.54 137.61, 751.65 138.6, 751.77 139.59, 751.88 140.58, 751.99 141.57, 752.1 142.56, 752.21 143.55, 752.32 144.54, 752.43 145.53, 752.54 146.52, 752.66 147.51, 752.77 148.5, 752.88 149.49, 752.99 150.48, 753.1 151.47, 753.21 152.46, 753.32 153.45, 753.43 154.44, 753.54 155.43, 753.65 156.42, 753.76 157.41, 753.87 158.4, 753.98 159.39, 754.09 160.38, 754.2 161.37, 754.31 162.36, 754.42 163.35, 754.53 164.34, 754.64 165.33, 754.75 166.32, 754.85 167.31, 754.96 168.3, 755.07 169.29, 755.18 170.28, 755.29 171.27, 755.4 172.26, 755.51 173.25, 755.62 174.24, 755.72 175.23, 755.83 176.22, 755.94 177.21, 756.05 178.2, 756.16 179.19, 756.26 180.18, 756.37 181.17, 756.48 182.16, 756.59 183.15, 756.69 184.14, 756.8 185.13, 756.91 186.12, 757.02 187.11, 757.12 188.1, 757.23 189.09, 757.34 190.08, 757.44 191.07, 757.55 192.06, 757.66 193.05, 757.76 194.04, 757.87 195.03, 757.98 196.02, 758.08 197.01, 758.19 198.0, 758.29 198.99, 758.4 199.98, 758.51 200.97, 758.61 201.96, 758.72 202.95, 758.82 203.94, 758.93 204.93, 759.03 205.92, 759.14 206.91, 759.24 207.9, 759.35 208.89, 759.45 209.88, 759.56 210.87, 759.66 211.86, 759.77 212.85, 759.87 213.84, 759.98 214.83, 760.08 215.82, 760.19 216.81, 760.29 217.8, 760.39 218.79, 760.5 219.78, 760.6 220.77, 760.7 221.76, 760.81 222.75, 760.91 223.74, 761.02 224.73, 761.12 225.72, 761.22 226.71, 761.33 227.7, 761.43 228.69, 761.53 229.68, 761.63 230.67, 761.74 231.66, 761.84 232.65, 761.94 233.64, 762.04 234.63, 762.15 235.62, 762.25 236.61, 762.35 237.6, 762.45 238.59, 762.56 239.58, 762.66 240.57, 762.76 241.56, 762.86 242.55, 762.96 243.54, 763.06 244.53, 763.16 245.52, 763.27 246.51, 763.37 247.5, 763.47 248.49, 763.57 249.48, 763.67 250.47, 763.77 251.46, 763.87 252.45, 763.97 253.44, 764.07 254.43, 764.17 255.42, 764.27 256.41, 764.37 257.4, 764.47 258.39, 764.57 259.38, 764.67 260.37, 764.77 261.36, 764.87 262.35, 764.97 263.34, 765.07 264.33, 765.17 265.32, 765.27 266.31, 765.37 267.3, 765.47 268.29, 765.57 269.28, 765.67 270.27, 765.77 271.26, 765.86 272.25, 765.96 273.24, 766.06 274.23, 766.16 275.22, 766.26 276.21, 766.36 277.2, 766.45 278.19, 766.55 279.18, 766.65 280.17, 766.75 281.16, 766.85 282.15, 766.94 283.14, 767.04 284.13, 767.14 285.12, 767.23 286.11, 767.33 287.1, 767.43 288.09, 767.53 289.08, 767.62 290.07, 767.72 291.06, 767.82 292.05, 767.91 293.04, 768.01 294.03, 768.11 295.02, 768.2 296.01, 768.3 297.0, 768.39 297.99, 768.49 298.98, 768.59 299.97, 768.68 300.96, 768.78 301.95, 768.87 302.94, 768.97 303.93, 769.06 304.92, 769.16 305.91, 769.25 306.9, 769.35 307.89, 769.44 308.88, 769.54 309.87, 769.63 310.86, 769.73 311.85, 769.82 312.84, 769.92 313.83, 770.01 314.82, 770.11 315.81, 770.2 316.8, 770.29 317.79, 770.39 318.78, 770.48 319.77, 770.58 320.76, 770.67 321.75, 770.76 322.74, 770.86 323.73, 770.95 324.72, 771.04 325.71, 771.14 326.7, 771.23 327.69, 771.32 328.68, 771.41 329.67, 771.51 330.66, 771.6 331.65, 771.69 332.64, 771.78 333.63, 771.88 334.62, 771.97 335.61, 772.06 336.6, 772.15 337.59, 772.24 338.58, 772.34 339.57, 772.43 340.56, 772.52 341.55, 772.61 342.54, 772.7 343.53, 772.79 344.52, 772.88 345.51, 772.98 346.5, 773.07 347.49, 773.16 348.48, 773.25 349.47, 773.34 350.46, 773.43 351.45, 773.52 352.44, 773.61 353.43, 773.7 354.42, 773.79 355.41, 773.88 356.4, 773.97 357.39, 774.06 358.38, 774.15 359.37, 774.24 360.36, 774.33 361.35, 774.42 362.34, 774.51 363.33, 774.6 364.32, 774.69 365.31, 774.77 366.3, 774.86 367.29, 774.95 368.28, 775.04 369.27, 775.13 370.26, 775.22 371.25, 775.31 372.24, 775.39 373.23, 775.48 374.22, 775.57 375.21, 775.66 376.2, 775.75 377.19, 775.83 378.18, 775.92 379.17, 776.01 380.16, 776.1 381.15, 776.18 382.14, 776.27 383.13, 776.36 384.12, 776.44 385.11, 776.53 386.1, 776.62 387.09, 776.7 388.08, 776.79 389.07, 776.88 390.06, 776.96 391.05, 777.05 392.04, 777.14 393.03, 777.22 394.02, 777.31 395.01, 777.39 396.0, 777.48 396.99, 777.57 397.98, 777.65 398.97, 777.74 399.96, 777.82 400.95, 777.91 401.94, 777.99 402.93, 778.08 403.92, 778.16 404.91, 778.25 405.9, 778.33 406.89, 778.42 407.88, 778.5 408.87, 778.58 409.86, 778.67 410.85, 778.75 411.84, 778.84 412.83, 778.92 413.82, 779.0 414.81, 779.09 415.8, 779.17 416.79, 779.26 417.78, 779.34 418.77, 779.42 419.76, 779.5 420.75, 779.59 421.74, 779.67 422.73, 779.75 423.72, 779.84 424.71, 779.92 425.7, 780.0 426.69, 780.08 427.68, 780.17 428.67, 780.25 429.66, 780.33 430.65, 780.41 431.64, 780.49 432.63, 780.58 433.62, 780.66 434.61, 780.74 435.6, 780.82 436.59, 780.9 437.58, 780.98 438.57, 781.06 439.56, 781.15 440.55, 781.23 441.54, 781.31 442.53, 781.39 443.52, 781.47 444.51, 781.55 445.5, 781.63 446.49, 781.71 447.48, 781.79 448.47, 781.87 449.46, 781.95 450.45, 782.03 451.44, 782.11 452.43, 782.19 453.42, 782.27 454.41, 782.35 455.4, 782.43 456.39, 782.51 457.38, 782.59 458.37, 782.66 459.36, 782.74 460.35, 782.82 461.34, 782.9 462.33, 782.98 463.32, 783.06 464.31, 783.14 465.3, 783.21 466.29, 783.29 467.28, 783.37 468.27, 783.45 469.26, 783.53 470.25, 783.6 471.24, 783.68 472.23, 783.76 473.22, 783.84 474.21, 783.91 475.2, 783.99 476.19, 784.07 477.18, 784.14 478.17, 784.22 479.16, 784.3 480.15, 784.37 481.14, 784.45 482.13, 784.53 483.12, 784.6 484.11, 784.68 485.1, 784.76 486.09, 784.83 487.08, 784.91 488.07, 784.98 489.06, 785.06 490.05, 785.13 491.04, 785.21 492.03, 785.29 493.02, 785.36 494.01, 785.44 495.0, 785.51 495.99, 785.59 496.98, 785.66 497.97, 785.73 498.96, 785.81 499.95, 785.88 500.94, 785.96 501.93, 786.03 502.92, 786.11 503.91, 786.18 504.9, 786.25 505.89, 786.33 506.88, 786.4 507.87, 786.47 508.86, 786.55 509.85, 786.62 510.84, 786.69 511.83, 786.77 512.82, 786.84 513.81, 786.91 514.8, 786.99 515.79, 787.06 516.78, 787.13 517.77, 787.2 518.76, 787.28 519.75, 787.35 520.74, 787.42 521.73, 787.49 522.72, 787.56 523.71, 787.64 524.7, 787.71 525.69, 787.78 526.68, 787.85 527.67, 787.92 528.66, 787.99 529.65, 788.06 530.64, 788.14 531.63, 788.21 532.62, 788.28 533.61, 788.35 534.6, 788.42 535.59, 788.49 536.58, 788.56 537.57, 788.63 538.56, 788.7 539.55, 788.77 540.54, 788.84 541.53, 788.91 542.52, 788.98 543.51, 789.05 544.5, 789.12 545.49, 789.19 546.48, 789.26 547.47, 789.33 548.46, 789.4 549.45, 789.46 550.44, 789.53 551.43, 789.6 552.42, 789.67 553.41, 789.74 554.4, 789.81 555.39, 789.88 556.38, 789.94 557.37, 790.01 558.36, 790.08 559.35, 790.15 560.34, 790.21 561.33, 790.28 562.32, 790.35 563.31, 790.42 564.3, 790.48 565.29, 790.55 566.28, 790.62 567.27, 790.69 568.26, 790.75 569.25, 790.82 570.24, 790.89 571.23, 790.95 572.22, 791.02 573.21, 791.08 574.2, 791.15 575.19, 791.22 576.18, 791.28 577.17, 791.35 578.16, 791.41 579.15, 791.48 580.14, 791.55 581.13, 791.61 582.12, 791.68 583.11, 791.74 584.1, 791.81 585.09, 791.87 586.08, 791.94 587.07, 792.0 588.06, 792.06 589.05, 792.13 590.04, 792.19 591.03, 792.26 592.02, 792.32 593.01, 792.39 594.0, 792.45 594.99, 792.51 595.98, 792.58 596.97, 792.64 597.96, 792.7 598.95, 792.77 599.94, 792.83 600.93, 792.89 601.92, 792.96 602.91, 793.02 603.9, 793.08 604.89, 793.15 605.88, 793.21 606.87, 793.27 607.86, 793.33 608.85, 793.39 609.84, 793.46 610.83, 793.52 611.82, 793.58 612.81, 793.64 613.8, 793.7 614.79, 793.77 615.78, 793.83 616.77, 793.89 617.76, 793.95 618.75, 794.01 619.74, 794.07 620.73, 794.13 621.72, 794.19 622.71, 794.25 623.7, 794.31 624.69, 794.37 625.68, 794.44 626.67, 794.5 627.66, 794.56 628.65, 794.62 629.64, 794.68 630.63, 794.73 631.62, 794.79 632.61, 794.85 633.6, 794.91 634.59, 794.97 635.58, 795.03 636.57, 795.09 637.56, 795.15 638.55, 795.21 639.54, 795.27 640.53, 795.33 641.52, 795.38 642.51, 795.44 643.5, 795.5 644.49, 795.56 645.48, 795.62 646.47, 795.68 647.46, 795.73 648.45, 795.79 649.44, 795.85 650.43, 795.91 651.42, 795.96 652.41, 796.02 653.4, 796.08 654.39, 796.13 655.38, 796.19 656.37, 796.25 657.36, 796.3 658.35, 796.36 659.34, 796.42 660.33, 796.47 661.32, 796.53 662.31, 796.59 663.3, 796.64 664.29, 796.7 665.28, 796.75 666.27, 796.81 667.26, 796.86 668.25, 796.92 669.24, 796.98 670.23, 797.03 671.22, 797.09 672.21, 797.14 673.2, 797.2 674.19, 797.25 675.18, 797.3 676.17, 797.36 677.16, 797.41 678.15, 797.47 679.14, 797.52 680.13, 797.58 681.12, 797.63 682.11, 797.68 683.1, 797.74 684.09, 797.79 685.08, 797.84 686.07, 797.9 687.06, 797.95 688.05, 798.0 689.04, 798.06 690.03, 798.11 691.02, 798.16 692.01, 798.22 693.0, 798.27 693.99, 798.32 694.98, 798.37 695.97, 798.43 696.96, 798.48 697.95, 798.53 698.94, 798.58 699.93, 798.63 700.92, 798.68 701.91, 798.74 702.9, 798.79 703.89, 798.84 704.88, 798.89 705.87, 798.94 706.86, 798.99 707.85, 799.04 708.84, 799.09 709.83, 799.14 710.82, 799.19 711.81, 799.24 712.8, 799.29 713.79, 799.34 714.78, 799.39 715.77, 799.44 716.76, 799.49 717.75, 799.54 718.74, 799.59 719.73, 799.64 720.72, 799.69 721.71, 799.74 722.7, 799.79 723.69, 799.84 724.68, 799.89 725.67, 799.94 726.66, 799.99 727.65, 800.03 728.64, 800.08 729.63, 800.13 730.62, 800.18 731.61, 800.23 732.6, 800.28 733.59, 800.32 734.58, 800.37 735.57, 800.42 736.56, 800.47 737.55, 800.51 738.54, 800.56 739.53, 800.61 740.52, 800.65 741.51, 800.7 742.5, 800.75 743.49, 800.8 744.48, 800.84 745.47, 800.89 746.46, 800.93 747.45, 800.98 748.44, 801.03 749.43, 801.07 750.42, 801.12 751.41, 801.16 752.4, 801.21 753.39, 801.26 754.38, 801.3 755.37, 801.35 756.36, 801.39 757.35, 801.44 758.34, 801.48 759.33, 801.53 760.32, 801.57 761.31, 801.62 762.3, 801.66 763.29, 801.7 764.28, 801.75 765.27, 801.79 766.26, 801.84 767.25, 801.88 768.24, 801.92 769.23, 801.97 770.22, 802.01 771.21, 802.05 772.2, 802.1 773.19, 802.14 774.18, 802.18 775.17, 802.23 776.16, 802.27 777.15, 802.31 778.14, 802.35 779.13, 802.4 780.12, 802.44 781.11, 802.48 782.1, 802.52 783.09, 802.57 784.08, 802.61 785.07, 802.65 786.06, 802.69 787.05, 802.73 788.04, 802.77 789.03, 802.82 790.02, 802.86 791.01, 802.9 792.0, 802.94 792.99, 802.98 793.98, 803.02 794.97, 803.06 795.96, 803.1 796.95, 803.14 797.94, 803.18 798.93, 803.22 799.92, 803.26 800.91, 803.3 801.9, 803.34 802.89, 803.38 803.88, 803.42 804.87, 803.46 805.86, 803.5 806.85, 803.54 807.84, 803.58 808.83, 803.62 809.82, 803.66 810.81, 803.69 811.8, 803.73 812.79, 803.77 813.78, 803.81 814.77, 803.85 815.76, 803.89 816.75, 803.92 817.74, 803.96 818.73, 804.0 819.72, 804.04 820.71, 804.08 821.7, 804.11 822.69, 804.15 823.68, 804.19 824.67, 804.22 825.66, 804.26 826.65, 804.3 827.64, 804.34 828.63, 804.37 829.62, 804.41 830.61, 804.44 831.6, 804.48 832.59, 804.52 833.58, 804.55 834.57, 804.59 835.56, 804.62 836.55, 804.66 837.54, 804.7 838.53, 804.73 839.52, 804.77 840.51, 804.8 841.5, 804.84 842.49, 804.87 843.48, 804.91 844.47, 804.94 845.46, 804.98 846.45, 805.01 847.44, 805.05 848.43, 805.08 849.42, 805.11 850.41, 805.15 851.4, 805.18 852.39, 805.22 853.38, 805.25 854.37, 805.28 855.36, 805.32 856.35, 805.35 857.34, 805.38 858.33, 805.42 859.32, 805.45 860.31, 805.48 861.3, 805.51 862.29, 805.55 863.28, 805.58 864.27, 805.61 865.26, 805.64 866.25, 805.68 867.24, 805.71 868.23, 805.74 869.22, 805.77 870.21, 805.8 871.2, 805.84 872.19, 805.87 873.18, 805.9 874.17, 805.93 875.16, 805.96 876.15, 805.99 877.14, 806.02 878.13, 806.05 879.12, 806.08 880.11, 806.11 881.1, 806.14 882.09, 806.17 883.08, 806.2 884.07, 806.23 885.06, 806.26 886.05, 806.29 887.04, 806.32 888.03, 806.35 889.02, 806.38 890.01, 806.41 891.0, 806.44 891.99, 806.47 892.98, 806.5 893.97, 806.53 894.96, 806.56 895.95, 806.59 896.94, 806.61 897.93, 806.64 898.92, 806.67 899.91, 806.7 900.9, 806.73 901.89, 806.75 902.88, 806.78 903.87, 806.81 904.86, 806.84 905.85, 806.86 906.84, 806.89 907.83, 806.92 908.82, 806.95 909.81, 806.97 910.8, 807.0 911.79, 807.03 912.78, 807.05 913.77, 807.08 914.76, 807.11 915.75, 807.13 916.74, 807.16 917.73, 807.18 918.72, 807.21 919.71, 807.24 920.7, 807.26 921.69, 807.29 922.68, 807.31 923.67, 807.34 924.66, 807.36 925.65, 807.39 926.64, 807.41 927.63, 807.44 928.62, 807.46 929.61, 807.49 930.6, 807.51 931.59, 807.54 932.58, 807.56 933.57, 807.58 934.56, 807.61 935.55, 807.63 936.54, 807.66 937.53, 807.68 938.52, 807.7 939.51, 807.73 940.5, 807.75 941.49, 807.77 942.48, 807.8 943.47, 807.82 944.46, 807.84 945.45, 807.86 946.44, 807.89 947.43, 807.91 948.42, 807.93 949.41, 807.95 950.4, 807.98 951.39, 808.0 952.38, 808.02 953.37, 808.04 954.36, 808.06 955.35, 808.08 956.34, 808.11 957.33, 808.13 958.32, 808.15 959.31, 808.17 960.3, 808.19 961.29, 808.21 962.28, 808.23 963.27, 808.25 964.26, 808.27 965.25, 808.29 966.24, 808.31 967.23, 808.33 968.22, 808.35 969.21, 808.37 970.2, 808.39 971.19, 808.41 972.18, 808.43 973.17, 808.45 974.16, 808.47 975.15, 808.49 976.14, 808.51 977.13, 808.53 978.12, 808.54 979.11, 808.56 980.1, 808.58 981.09, 808.6 982.08, 808.62 983.07, 808.64 984.06, 808.65 985.05, 808.67 986.04, 808.69 987.03, 808.71 988.02, 808.73 989.01, 808.74 990.0, 808.76 " fill="none" stroke="yellow" stroke-width="1.5" stroke-linejoin="round" stroke-opacity="1"/>

 </svg> 
 </g> 

 </svg>