<svg version="1.1" 
 baseProfile="full" 
 width="1980" 
 height="1080" 
 xmlns="http://www.w3.org/2000/svg">
<rect x="0.0" y="0.0" width="1980" height="1080" fill="black" stroke="black" stroke-width="0" opacity="1"/>
<rect x="0.0" y="0.0" width="990.0" height="1080" fill="none" stroke="white" stroke-width="2.5" opacity="1"/>
<rect x="943.59375" y="542.32" width="92.8125" height="90.0" fill="white" stroke="black" stroke-width="1" opacity="1"/>
<line x1="990.0" y1="540.0" x2="990.0" y2="587.32" stroke="white" stroke-width="1" opacity="1" stroke-linecap="butt"/>
<line x1="495.0" y1="587.32" x2="990.0" y2="587.32" stroke="red" stroke-width="1" opacity="1" stroke-linecap="butt"/>
<g transform="translate(0.0 0.0)"> 
<svg version="1.1" 
 baseProfile="full" 
 width="990.0" 
 height="1080" 
 xmlns="http://www.w3.org/2000/svg">
<line x1="0.0" y1="0.0" x2="0.0" y2="1080.0" stroke="#A7A7A7" stroke-width="0.7" opacity="1" stroke-linecap="butt"/>
<line x1="49.5" y1="0.0" x2="49.5" y2="1080.0" stroke="#A7A7A7" stroke-width="0.7" opacity="1" stroke-linecap="butt"/>
<line x1="99.0" y1="0.0" x2="99.0" y2="1080.0" stroke="#A7A7A7" stroke-width="0.7" opacity="1" stroke-linecap="butt"/>
<line x1="148.5" y1="0.0" x2="148.5" y2="1080.0" stroke="#A7A7A7" stroke-width="0.7" opacity="1" stroke-linecap="butt"/>
<line x1="198.0" y1="0.0" x2="198.0" y2="1080.0" stroke="#A7A7A7" stroke-width="0.7" opacity="1" stroke-linecap="butt"/>
<line x1="247.5" y1="0.0" x2="247.5" y2="1080.0" stroke="#A7A7A7" stroke-width="0.7" opacity="1" stroke-linecap="butt"/>
<line x1="297.0" y1="0.0" x2="297.0" y2="1080.0" stroke="#A7A7A7" stroke-width="0.7" opacity="1" stroke-linecap="butt"/>
<line x1="346.5" y1="0.0" x2="346.5" y2="1080.0" stroke="#A7A7A7" stroke-width="0.7" opacity="1" stroke-linecap="butt"/>
<line x1="396.0" y1="0.0" x2="396.0" y2="1080.0" stroke="#A7A7A7" stroke-width="0.7" opacity="1" stroke-linecap="butt"/>
<line x1="445.5" y1="0.0" x2="445.5" y2="1080.0" stroke="#A7A7A7" stroke-width="0.7" opacity="1" stroke-linecap="butt"/>
<line x1="495.0" y1="0.0" x2="495.0" y2="1080.0" stroke="#A7A7A7" stroke-width="0.7" opacity="1" stroke-linecap="butt"/>
<line x1="544.5" y1="0.0" x2="544.5" y2="1080.0" stroke="#A7A7A7" stroke-width="0.7" opacity="1" stroke-linecap="butt"/>
<line x1="594.0" y1="0.0" x2="594.0" y2="1080.0" stroke="#A7A7A7" stroke-width="0.7" opacity="1" stroke-linecap="butt"/>
<line x1="643.5" y1="0.0" x2="643.5" y2="1080.0" stroke="#A7A7A7" stroke-width="0.7" opacity="1" stroke-linecap="butt"/>
<line x1="693.0" y1="0.0" x2="693.0" y2="1080.0" stroke="#A7A7A7" stroke-width="0.7" opacity="1" stroke-linecap="butt"/>
<line x1="742.5" y1="0.0" x2="742.5" y2="1080.0" stroke="#A7A7A7" stroke-width="0.7" opacity="1" stroke-linecap="butt"/>
<line x1="792.0" y1="0.0" x2="792.0" y2="1080.0" stroke="#A7A7A7" stroke-width="0.7" opacity="1" stroke-linecap="butt"/>
<line x1="841.5" y1="0.0" x2="841.5" y2="1080.0" stroke="#A7A7A7" stroke-width="0.7" opacity="1" stroke-linecap="butt"/>
<line x1="891.0" y1="0.0" x2="891.0" y2="1080.0" stroke="#A7A7A7" stroke-width="0.7" opacity="1" stroke-linecap="butt"/>
<line x1="940.5" y1="0.0" x2="940.5" y2="1080.0" stroke="#A7A7A7" stroke-width="0.7" opacity="1" stroke-linecap="butt"/>
<line x1="-0.0" y1="0.0" x2="990.0" y2="0.0" stroke="#A7A7A7" stroke-width="0.7" opacity="1" stroke-linecap="butt"/>
<line x1="-0.0" y1="54.0" x2="990.0" y2="54.0" stroke="#A7A7A7" stroke-width="0.7" opacity="1" stroke-linecap="butt"/>
<line x1="-0.0" y1="108.0" x2="990.0" y2="108.0" stroke="#A7A7A7" stroke-width="0.7" opacity="1" stroke-linecap="butt"/>
<line x1="-0.0" y1="162.0" x2="990.0" y2="162.0" stroke="#A7A7A7" stroke-width="0.7" opacity="1" stroke-linecap="butt"/>
<line x1="-0.0" y1="216.0" x2="990.0" y2="216.0" stroke="#A7A7A7" stroke-width="0.7" opacity="1" stroke-linecap="butt"/>
<line x1="-0.0" y1="270.0" x2="990.0" y2="270.0" stroke="#A7A7A7" stroke-width="0.7" opacity="1" stroke-linecap="butt"/>
<line x1="-0.0" y1="324.0" x2="990.0" y2="324.0" stroke="#A7A7A7" stroke-width="0.7" opacity="1" stroke-linecap="butt"/>
<line x1="-0.0" y1="378.0" x2="990.0" y2="378.0" stroke="#A7A7A7" stroke-width="0.7" opacity="1" stroke-linecap="butt"/>
<line x1="-0.0" y1="432.0" x2="990.0" y2="432.0" stroke="#A7A7A7" stroke-width="0.7" opacity="1" stroke-linecap="butt"/>
<line x1="-0.0" y1="486.0" x2="990.0" y2="486.0" stroke="#A7A7A7" stroke-width="0.7" opacity="1" stroke-linecap="butt"/>
<line x1="-0.0" y1="540.0" x2="990.0" y2="540.0" stroke="#A7A7A7" stroke-width="0.7" opacity="1" stroke-linecap="butt"/>
<line x1="-0.0" y1="594.0" x2="990.0" y2="594.0" stroke="#A7A7A7" stroke-width="0.7" opacity="1" stroke-linecap="butt"/>
<line x1="-0.0" y1="648.0" x2="990.0" y2="648.0" stroke="#A7A7A7" stroke-width="0.7" opacity="1" stroke-linecap="butt"/>
<line x1="-0.0" y1="702.0" x2="990.0" y2="702.0" stroke="#A7A7A7" stroke-width="0.7" opacity="1" stroke-linecap="butt"/>
<line x1="-0.0" y1="756.0" x2="990.0" y2="756.0" stroke="#A7A7A7" stroke-width="0.7" opacity="1" stroke-linecap="butt"/>
<line x1="-0.0" y1="810.0" x2="990.0" y2="810.0" stroke="#A7A7A7" stroke-width="0.7" opacity="1" stroke-linecap="butt"/>
<line x1="-0.0" y1="864.0" x2="990.0" y2="864.0" stroke="#A7A7A7" stroke-width="0.7" opacity="1" stroke-linecap="butt"/>
<line x1="-0.0" y1="918.0" x2="990.0" y2="918.0" stroke="#A7A7A7" stroke-width="0.7" opacity="1" stroke-linecap="butt"/>
<line x1="-0.0" y1="972.0" x2="990.0" y2="972.0" stroke="#A7A7A7" stroke-width="0.7" opacity="1" stroke-linecap="butt"/>
<line x1="-0.0" y1="1026.0" x2="990.0" y2="1026.0" stroke="#A7A7A7" stroke-width="0.7" opacity="1" stroke-linecap="butt"/>
<line x1="0.0" y1="540.0" x2="990.0" y2="540.0" stroke="yellow" stroke-width="1" opacity="1" stroke-linecap="butt"/>
<line x1="0.0" y1="0.0" x2="0.0" y2="1080.0" stroke="yellow" stroke-width="1" opacity="1" stroke-linecap="butt"/>
<polyline points="0.0, 497.41 0.99, 497.59 1.98, 497.76 2.97, 497.94 3.96, 498.12 4.95, 498.3 5.94, 498.48 6.93, 498.65 7.92, 498.83 8.91, 499.01 9.9, 499.19 10.89, 499.37 11.88, 499.54 12.87, 499.72 13.86, 499.9 14.85, 500.08 15.84, 500.25 16.83, 500.43 17.82, 500.61 18.81, 500.79 19.8, 500.97 20.79, 501.15 21.78, 501.32 22.77, 501.5 23.76, 501.68 24.75, 501.86 25.74, 502.04 26.73, 502.21 27.72, 502.39 28.71, 502.57 29.7, 502.75 30.69, 502.93 31.68, 503.11 32.67, 503.28 33.66, 503.46 34.65, 503.64 35.64, 503.82 36.63, 504.0 37.62, 504.18 38.61, 504.35 39.6, 504.53 40.59, 504.71 41.58, 504.89 42.57, 505.07 43.56, 505.25 44.55, 505.43 45.54, 505.6 46.53, 505.78 47.52, 505.96 48.51, 506.14 49.5, 506.32 50.49, 506.5 51.48, 506.68 52.47, 506.85 53.46, 507.03 54.45, 507.21 55.44, 507.39 56.43, 507.57 57.42, 507.75 58.41, 507.93 59.4, 508.1 60.39, 508.28 61.38, 508.46 62.37, 508.64 63.36, 508.82 64.35, 509.0 65.34, 509.18 66.33, 509.36 67.32, 509.54 68.31, 509.71 69.3, 509.89 70.29, 510.07 71.28, 510.25 72.27, 510.43 73.26, 510.61 74.25, 510.79 75.24, 510.97 76.23, 511.15 77.22, 511.32 78.21, 511.5 79.2, 511.68 80.19, 511.86 81.18, 512.04 82.17, 512.22 83.16, 512.4 84.15, 512.58 85.14, 512.76 86.13, 512.94 87.12, 513.11 88.11, 513.29 89.1, 513.47 90.09, 513.65 91.08, 513.83 92.07, 514.01 93.06, 514.19 94.05, 514.37 95.04, 514.55 96.03, 514.73 97.02, 514.91 98.01, 515.09 99.0, 515.26 99.99, 515.44 100.98, 515.62 101.97, 515.8 102.96, 515.98 103.95, 516.16 104.94, 516.34 105.93, 516.52 106.92, 516.7 107.91, 516.88 108.9, 517.06 109.89, 517.24 110.88, 517.42 111.87, 517.6 112.86, 517.78 113.85, 517.95 114.84, 518.13 115.83, 518.31 116.82, 518.49 117.81, 518.67 118.8, 518.85 119.79, 519.03 120.78, 519.21 121.77, 519.39 122.76, 519.57 123.75, 519.75 124.74, 519.93 125.73, 520.11 126.72, 520.29 127.71, 520.47 128.7, 520.65 129.69, 520.83 130.68, 521.01 131.67, 521.19 132.66, 521.36 133.65, 521.54 134.64, 521.72 135.63, 521.9 136.62, 522.08 137.61, 522.26 138.6, 522.44 139.59, 522.62 140.58, 522.8 141.57, 522.98 142.56, 523.16 143.55, 523.34 144.54, 523.52 145.53, 523.7 146.52, 523.88 147.51, 524.06 148.5, 524.24 149.49, 524.42 150.48, 524.6 151.47, 524.78 152.46, 524.96 153.45, 525.14 154.44, 525.32 155.43, 525.5 156.42, 525.68 157.41, 525.86 158.4, 526.04 159.39, 526.22 160.38, 526.4 161.37, 526.58 162.36, 526.76 163.35, 526.94 164.34, 527.11 165.33, 527.29 166.32, 527.47 167.31, 527.65 168.3, 527.83 169.29, 528.01 170.28, 528.19 171.27, 528.37 172.26, 528.55 173.25, 528.73 174.24, 528.91 175.23, 529.09 176.22, 529.27 177.21, 529.45 178.2, 529.63 179.19, 529.81 180.18, 529.99 181.17, 530.17 182.16, 530.35 183.15, 530.53 184.14, 530.71 185.13, 530.89 186.12, 531.07 187.11, 531.25 188.1, 531.43 189.09, 531.61 190.08, 531.79 191.07, 531.97 192.06, 532.15 193.05, 532.33 194.04, 532.51 195.03, 532.69 196.02, 532.87 197.01, 533.05 198.0, 533.23 198.99, 533.41 199.98, 533.59 200.97, 533.77 201.96, 533.95 202.95, 534.13 203.94, 534.31 204.93, 534.49 205.92, 534.67 206.91, 534.85 207.9, 535.03 208.89, 535.21 209.88, 535.39 210.87, 535.57 211.86, 535.75 212.85, 535.93 213.84, 536.11 214.83, 536.29 215.82, 536.47 216.81, 536.65 217.8, 536.83 218.79, 537.01 219.78, 537.19 220.77, 537.37 221.76, 537.55 222.75, 537.73 223.74, 537.91 224.73, 538.09 225.72, 538.27 226.71, 538.45 227.7, 538.63 228.69, 538.81 229.68, 538.99 230.67, 539.17 231.66, 539.35 232.65, 539.53 233.64, 539.71 234.63, 539.89 235.62, 540.07 236.61, 540.25 237.6, 540.43 238.59, 540.61 239.58, 540.79 240.57, 540.97 241.56, 541.15 242.55, 541.33 243.54, 541.51 244.53, 541.69 245.52, 541.87 246.51, 542.05 247.5, 542.23 248.49, 542.41 249.48, 542.59 250.47, 542.77 251.46, 542.95 252.45, 543.13 253.44, 543.31 254.43, 543.49 255.42, 543.67 256.41, 543.85 257.4, 544.03 258.39, 544.21 259.38, 544.39 260.37, 544.57 261.36, 544.75 262.35, 544.93 263.34, 545.11 264.33, 545.29 265.32, 545.47 266.31, 545.65 267.3, 545.83 268.29, 546.01 269.28, 546.19 270.27, 546.37 271.26, 546.55 272.25, 546.73 273.24, 546.91 274.23, 547.09 275.22, 547.27 276.21, 547.45 277.2, 547.63 278.19, 547.81 279.18, 547.99 280.17, 548.17 281.16, 548.35 282.15, 548.53 283.14, 548.71 284.13, 548.89 285.12, 549.07 286.11, 549.25 287.1, 549.43 288.09, 549.61 289.08, 549.79 290.07, 549.97 291.06, 550.15 292.05, 550.33 293.04, 550.51 294.03, 550.69 295.02, 550.87 296.01, 551.05 297.0, 551.23 297.99, 551.41 298.98, 551.59 299.97, 551.77 300.96, 551.95 301.95, 552.13 302.94, 552.31 303.93, 552.49 304.92, 552.67 305.91, 552.85 306.9, 553.02 307.89, 553.2 308.88, 553.38 309.87, 553.56 310.86, 553.74 311.85, 553.92 312.84, 554.1 313.83, 554.28 314.82, 554.46 315.81, 554.64 316.8, 554.82 317.79, 555.0 318.78, 555.18 319.77, 555.36 320.76, 555.54 321.75, 555.72 322.74, 555.9 323.73, 556.08 324.72, 556.26 325.71, 556.44 326.7, 556.62 327.69, 556.8 328.68, 556.98 329.67, 557.16 330.66, 557.34 331.65, 557.52 332.64, 557.7 333.63, 557.88 334.62, 558.06 335.61, 558.24 336.6, 558.42 337.59, 558.6 338.58, 558.77 339.57, 558.95 340.56, 559.13 341.55, 559.31 342.54, 559.49 343.53, 559.67 344.52, 559.85 345.51, 560.03 346.5, 560.21 347.49, 560.39 348.48, 560.57 349.47, 560.75 350.46, 560.93 351.45, 561.11 352.44, 561.29 353.43, 561.47 354.42, 561.65 355.41, 561.83 356.4, 562.01 357.39, 562.18 358.38, 562.36 359.37, 562.54 360.36, 562.72 361.35, 562.9 362.34, 563.08 363.33, 563.26 364.32, 563.44 365.31, 563.62 366.3, 563.8 367.29, 563.98 368.28, 564.16 369.27, 564.34 370.26, 564.52 371.25, 564.7 372.24, 564.87 373.23, 565.05 374.22, 565.23 375.21, 565.41 376.2, 565.59 377.19, 565.77 378.18, 565.95 379.17, 566.13 380.16, 566.31 381.15, 566.49 382.14, 566.67 383.13, 566.85 384.12, 567.02 385.11, 567.2 386.1, 567.38 387.09, 567.56 388.08, 567.74 389.07, 567.92 390.06, 568.1 391.05, 568.28 392.04, 568.46 393.03, 568.64 394.02, 568.82 395.01, 568.99 396.0, 569.17 396.99, 569.35 397.98, 569.53 398.97, 569.71 399.96, 569.89 400.95, 570.07 401.94, 570.25 402.93, 570.43 403.92, 570.6 404.91, 570.78 405.9, 570.96 406.89, 571.14 407.88, 571.32 408.87, 571.5 409.86, 571.68 410.85, 571.86 411.84, 572.03 412.83, 572.21 413.82, 572.39 414.81, 572.57 415.8, 572.75 416.79, 572.93 417.78, 573.11 418.77, 573.29 419.76, 573.46 420.75, 573.64 421.74, 573.82 422.73, 574.0 423.72, 574.18 424.71, 574.36 425.7, 574.54 426.69, 574.71 427.68, 574.89 428.67, 575.07 429.66, 575.25 430.65, 575.43 431.64, 575.61 432.63, 575.78 433.62, 575.96 434.61, 576.14 435.6, 576.32 436.59, 576.5 437.58, 576.68 438.57, 576.85 439.56, 577.03 440.55, 577.21 441.54, 577.39 442.53, 577.57 443.52, 577.75 444.51, 577.92 445.5, 578.1 446.49, 578.28 447.48, 578.46 448.47, 578.64 449.46, 578.82 450.45, 578.99 451.44, 579.17 452.43, 579.35 453.42, 579.53 454.41, 579.71 455.4, 579.88 456.39, 580.06 457.38, 580.24 458.37, 580.42 459.36, 580.6 460.35, 580.77 461.34, 580.95 462.33, 581.13 463.32, 581.31 464.31, 581.49 465.3, 581.66 466.29, 581.84 467.28, 582.02 468.27, 582.2 469.26, 582.37 470.25, 582.55 471.24, 582.73 472.23, 582.91 473.22, 583.09 474.21, 583.26 475.2, 583.44 476.19, 583.62 477.18, 583.8 478.17, 583.97 479.16, 584.15 480.15, 584.33 481.14, 584.51 482.13, 584.68 483.12, 584.86 484.11, 585.04 485.1, 585.22 486.09, 585.39 487.08, 585.57 488.07, 585.75 489.06, 585.93 490.05, 586.1 491.04, 586.28 492.03, 586.46 493.02, 586.63 494.01, 586.81 495.0, 586.99 495.99, 587.17 496.98, 587.34 497.97, 587.52 498.96, 587.7 499.95, 587.88 500.94, 588.05 501.93, 588.23 502.92, 588.41 503.91, 588.58 504.9, 588.76 505.89, 588.94 506.88, 589.12 507.87, 589.29 508.86, 589.47 509.85, 589.65 510.84, 589.82 511.83, 590.0 512.82, 590.18 513.81, 590.35 514.8, 590.53 515.79, 590.71 516.78, 590.88 517.77, 591.06 518.76, 591.24 519.75, 591.41 520.74, 591.59 521.73, 591.77 522.72, 591.94 523.71, 592.12 524.7, 592.3 525.69, 592.47 526.68, 592.65 527.67, 592.83 528.66, 593.0 529.65, 593.18 530.64, 593.36 531.63, 593.53 532.62, 593.71 533.61, 593.89 534.6, 594.06 535.59, 594.24 536.58, 594.41 537.57, 594.59 538.56, 594.77 539.55, 594.94 540.54, 595.12 541.53, 595.3 542.52, 595.47 543.51, 595.65 544.5, 595.82 545.49, 596.0 546.48, 596.18 547.47, 596.35 548.46, 596.53 549.45, 596.7 550.44, 596.88 551.43, 597.06 552.42, 597.23 553.41, 597.41 554.4, 597.58 555.39, 597.76 556.38, 597.94 557.37, 598.11 558.36, 598.29 559.35, 598.46 560.34, 598.64 561.33, 598.81 562.32, 598.99 563.31, 599.17 564.3, 599.34 565.29, 599.52 566.28, 599.69 567.27, 599.87 568.26, 600.04 569.25, 600.22 570.24, 600.39 571.23, 600.57 572.22, 600.75 573.21, 600.92 574.2, 601.1 575.19, 601.27 576.18, 601.45 577.17, 601.62 578.16, 601.8 579.15, 601.97 580.14, 602.15 581.13, 602.32 582.12, 602.5 583.11, 602.67 584.1, 602.85 585.09, 603.02 586.08, 603.2 587.07, 603.37 588.06, 603.55 589.05, 603.72 590.04, 603.9 591.03, 604.07 592.02, 604.25 593.01, 604.42 594.0, 604.6 594.99, 604.77 595.98, 604.95 596.97, 605.12 597.96, 605.3 598.95, 605.47 599.94, 605.65 600.93, 605.82 601.92, 605.99 602.91, 606.17 603.9, 606.34 604.89, 606.52 605.88, 606.69 606.87, 606.87 607.86, 607.04 608.85, 607.22 609.84, 607.39 610.83, 607.56 611.82, 607.74 612.81, 607.91 613.8, 608.09 614.79, 608.26 615.78, 608.44 616.77, 608.61 617.76, 608.78 618.75, 608.96 619.74, 609.13 620.73, 609.31 621.72, 609.48 622.71, 609.65 623.7, 609.83 624.69, 610.0 625.68, 610.17 626.67, 610.35 627.66, 610.52 628.65, 610.7 629.64, 610.87 630.63, 611.04 631.62, 611.22 632.61, 611.39 633.6, 611.56 634.59, 611.74 635.58, 611.91 636.57, 612.08 637.56, 612.26 638.55, 612.43 639.54, 612.61 640.53, 612.78 641.52, 612.95 642.51, 613.13 643.5, 613.3 644.49, 613.47 645.48, 613.64 646.47, 613.82 647.46, 613.99 648.45, 614.16 649.44, 614.34 650.43, 614.51 651.42, 614.68 652.41, 614.86 653.4, 615.03 654.39, 615.2 655.38, 615.37 656.37, 615.55 657.36, 615.72 658.35, 615.89 659.34, 616.07 660.33, 616.24 661.32, 616.41 662.31, 616.58 663.3, 616.76 664.29, 616.93 665.28, 617.1 666.27, 617.27 667.26, 617.45 668.25, 617.62 669.24, 617.79 670.23, 617.96 671.22, 618.14 672.21, 618.31 673.2, 618.48 674.19, 618.65 675.18, 618.83 676.17, 619.0 677.16, 619.17 678.15, 619.34 679.14, 619.51 680.13, 619.69 681.12, 619.86 682.11, 620.03 683.1, 620.2 684.09, 620.37 685.08, 620.54 686.07, 620.72 687.06, 620.89 688.05, 621.06 689.04, 621.23 690.03, 621.4 691.02, 621.58 692.01, 621.75 693.0, 621.92 693.99, 622.09 694.98, 622.26 695.97, 622.43 696.96, 622.6 697.95, 622.78 698.94, 622.95 699.93, 623.12 700.92, 623.29 701.91, 623.46 702.9, 623.63 703.89, 623.8 704.88, 623.97 705.87, 624.14 706.86, 624.32 707.85, 624.49 708.84, 624.66 709.83, 624.83 710.82, 625.0 711.81, 625.17 712.8, 625.34 713.79, 625.51 714.78, 625.68 715.77, 625.85 716.76, 626.02 717.75, 626.19 718.74, 626.36 719.73, 626.54 720.72, 626.71 721.71, 626.88 722.7, 627.05 723.69, 627.22 724.68, 627.39 725.67, 627.56 726.66, 627.73 727.65, 627.9 728.64, 628.07 729.63, 628.24 730.62, 628.41 731.61, 628.58 732.6, 628.75 733.59, 628.92 734.58, 629.09 735.57, 629.26 736.56, 629.43 737.55, 629.6 738.54, 629.77 739.53, 629.94 740.52, 630.11 741.51, 630.28 742.5, 630.45 743.49, 630.62 744.48, 630.79 745.47, 630.96 746.46, 631.12 747.45, 631.29 748.44, 631.46 749.43, 631.63 750.42, 631.8 751.41, 631.97 752.4, 632.14 753.39, 632.31 754.38, 632.48 755.37, 632.65 756.36, 632.82 757.35, 632.99 758.34, 633.16 759.33, 633.32 760.32, 633.49 761.31, 633.66 762.3, 633.83 763.29, 634.0 764.28, 634.17 765.27, 634.34 766.26, 634.51 767.25, 634.67 768.24, 634.84 769.23, 635.01 770.22, 635.18 771.21, 635.35 772.2, 635.52 773.19, 635.68 774.18, 635.85 775.17, 636.02 776.16, 636.19 777.15, 636.36 778.14, 636.53 779.13, 636.69 780.12, 636.86 781.11, 637.03 782.1, 637.2 783.09, 637.37 784.08, 637.53 785.07, 637.7 786.06, 637.87 787.05, 638.04 788.04, 638.2 789.03, 638.37 790.02, 638.54 791.01, 638.71 792.0, 638.87 792.99, 639.04 793.98, 639.21 794.97, 639.38 795.96, 639.54 796.95, 639.71 797.94, 639.88 798.93, 640.05 799.92, 640.21 800.91, 640.38 801.9, 640.55 802.89, 640.71 803.88, 640.88 804.87, 641.05 805.86, 641.22 806.85, 641.38 807.84, 641.55 808.83, 641.72 809.82, 641.88 810.81, 642.05 811.8, 642.22 812.79, 642.38 813.78, 642.55 814.77, 642.72 815.76, 642.88 816.75, 643.05 817.74, 643.21 818.73, 643.38 819.72, 643.55 820.71, 643.71 821.7, 643.88 822.69, 644.05 823.68, 644.21 824.67, 644.38 825.66, 644.54 826.65, 644.71 827.64, 644.88 828.63, 645.04 829.62, 645.21 830.61, 645.37 831.6, 645.54 832.59, 645.7 833.58, 645.87 834.57, 646.04 835.56, 646.2 836.55, 646.37 837.54, 646.53 838.53, 646.7 839.52, 646.86 840.51, 647.03 841.5, 647.19 842.49, 647.36 843.48, 647.52 844.47, 647.69 845.46, 647.85 846.45, 648.02 847.44, 648.18 848.43, 648.35 849.42, 648.51 850.41, 648.68 851.4, 648.84 852.39, 649.01 853.38, 649.17 854.37, 649.34 855.36, 649.5 856.35, 649.67 857.34, 649.83 858.33, 649.99 859.32, 650.16 860.31, 650.32 861.3, 650.49 862.29, 650.65 863.28, 650.82 864.27, 650.98 865.26, 651.14 866.25, 651.31 867.24, 651.47 868.23, 651.64 869.22, 651.8 870.21, 651.96 871.2, 652.13 872.19, 652.29 873.18, 652.46 874.17, 652.62 875.16, 652.78 876.15, 652.95 877.14, 653.11 878.13, 653.27 879.12, 653.44 880.11, 653.6 881.1, 653.76 882.09, 653.93 883.08, 654.09 884.07, 654.25 885.06, 654.42 886.05, 654.58 887.04, 654.74 888.03, 654.9 889.02, 655.07 890.01, 655.23 891.0, 655.39 891.99, 655.56 892.98, 655.72 893.97, 655.88 894.96, 656.04 895.95, 656.21 896.94, 656.37 897.93, 656.53 898.92, 656.69 899.91, 656.86 900.9, 657.02 901.89, 657.18 902.88, 657.34 903.87, 657.5 904.86, 657.67 905.85, 657.83 906.84, 657.99 907.83, 658.15 908.82, 658.31 909.81, 658.48 910.8, 658.64 911.79, 658.8 912.78, 658.96 913.77, 659.12 914.76, 659.28 915.75, 659.44 916.74, 659.61 917.73, 659.77 918.72, 659.93 919.71, 660.09 920.7, 660.25 921.69, 660.41 922.68, 660.57 923.67, 660.73 924.66, 660.9 925.65, 661.06 926.64, 661.22 927.63, 661.38 928.62, 661.54 929.61, 661.7 930.6, 661.86 931.59, 662.02 932.58, 662.18 933.57, 662.34 934.56, 662.5 935.55, 662.66 936.54, 662.82 937.53, 662.98 938.52, 663.14 939.51, 663.3 940.5, 663.46 941.49, 663.62 942.48, 663.78 943.47, 663.94 944.46, 664.1 945.45, 664.26 946.44, 664.42 947.43, 664.58 948.42, 664.74 949.41, 664.9 950.4, 665.06 951.39, 665.22 952.38, 665.38 953.37, 665.54 954.36, 665.7 955.35, 665.86 956.34, 666.02 957.33, 666.18 958.32, 666.34 959.31, 666.5 960.3, 666.65 961.29, 666.81 962.28, 666.97 963.27, 667.13 964.26, 667.29 965.25, 667.45 966.24, 667.61 967.23, 667.77 968.22, 667.92 969.21, 668.08 970.2, 668.24 971.19, 668.4 972.18, 668.56 973.17, 668.72 974.16, 668.87 975.15, 669.03 976.14, 669.19 977.13, 669.35 978.12, 669.51 979.11, 669.66 980.1, 669.82 981.09, 669.98 982.08, 670.14 983.07, 670.3 984.06, 670.45 985.05, 670.61 986.04, 670.77 987.03, 670.93 988.02, 671.08 989.01, 671.24 990.0, 671.4 " fill="none" stroke="yellow" stroke-width="1.5" stroke-linejoin="round" stroke-opacity="1"/>

 </svg> 
 </g> 

 </svg>