<svg version="1.1" 
 baseProfile="full" 
 width="1980" 
 height="1080" 
 xmlns="http://www.w3.org/2000/svg">
<rect x="0.0" y="0.0" width="1980" height="1080" fill="black" stroke="black" stroke-width="0" opacity="1"/>
<rect x="0.0" y="0.0" width="990.0" height="1080" fill="none" stroke="white" stroke-width="2.5" opacity="1"/>
<rect x="943.59375" y="492.52" width="92.8125" height="90.0" fill="white" stroke="black" stroke-width="1" opacity="1"/>
<line x1="990.0" y1="540.0" x2="990.0" y2="537.52" stroke="white" stroke-width="1" opacity="1" stroke-linecap="butt"/>
<line x1="495.0" y1="537.52" x2="990.0" y2="537.52" stroke="red" stroke-width="1" opacity="1" stroke-linecap="butt"/>
<g transform="translate(0.0 0.0)"> 
<svg version="1.1" 
 baseProfile="full" 
 width="990.0" 
 height="1080" 
 xmlns="http://www.w3.org/2000/svg">
<line x1="0.0" y1="0.0" x2="0.0" y2="1080.0" stroke="#A7A7A7" stroke-width="0.7" opacity="1" stroke-linecap="butt"/>
<line x1="49.5" y1="0.0" x2="49.5" y2="1080.0" stroke="#A7A7A7" stroke-width="0.7" opacity="1" stroke-linecap="butt"/>
<line x1="99.0" y1="0.0" x2="99.0" y2="1080.0" stroke="#A7A7A7" stroke-width="0.7" opacity="1" stroke-linecap="butt"/>
<line x1="148.5" y1="0.0" x2="148.5" y2="1080.0" stroke="#A7A7A7" stroke-width="0.7" opacity="1" stroke-linecap="butt"/>
<line x1="198.0" y1="0.0" x2="198.0" y2="1080.0" stroke="#A7A7A7" stroke-width="0.7" opacity="1" stroke-linecap="butt"/>
<line x1="247.5" y1="0.0" x2="247.5" y2="1080.0" stroke="#A7A7A7" stroke-width="0.7" opacity="1" stroke-linecap="butt"/>
<line x1="297.0" y1="0.0" x2="297.0" y2="1080.0" stroke="#A7A7A7" stroke-width="0.7" opacity="1" stroke-linecap="butt"/>
<line x1="346.5" y1="0.0" x2="346.5" y2="1080.0" stroke="#A7A7A7" stroke-width="0.7" opacity="1" stroke-linecap="butt"/>
<line x1="396.0" y1="0.0" x2="396.0" y2="1080.0" stroke="#A7A7A7" stroke-width="0.7" opacity="1" stroke-linecap="butt"/>
<line x1="445.5" y1="0.0" x2="445.5" y2="1080.0" stroke="#A7A7A7" stroke-width="0.7" opacity="1" stroke-linecap="butt"/>
<line x1="495.0" y1="0.0" x2="495.0" y2="1080.0" stroke="#A7A7A7" stroke-width="0.7" opacity="1" stroke-linecap="butt"/>
<line x1="544.5" y1="0.0" x2="544.5" y2="1080.0" stroke="#A7A7A7" stroke-width="0.7" opacity="1" stroke-linecap="butt"/>
<line x1="594.0" y1="0.0" x2="594.0" y2="1080.0" stroke="#A7A7A7" stroke-width="0.7" opacity="1" stroke-linecap="butt"/>
<line x1="643.5" y1="0.0" x2="643.5" y2="1080.0" stroke="#A7A7A7" stroke-width="0.7" opacity="1" stroke-linecap="butt"/>
<line x1="693.0" y1="0.0" x2="693.0" y2="1080.0" stroke="#A7A7A7" stroke-width="0.7" opacity="1" stroke-linecap="butt"/>
<line x1="742.5" y1="0.0" x2="742.5" y2="1080.0" stroke="#A7A7A7" stroke-width="0.7" opacity="1" stroke-linecap="butt"/>
<line x1="792.0" y1="0.0" x2="792.0" y2="1080.0" stroke="#A7A7A7" stroke-width="0.7" opacity="1" stroke-linecap="butt"/>
<line x1="841.5" y1="0.0" x2="841.5" y2="1080.0" stroke="#A7A7A7" stroke-width="0.7" opacity="1" stroke-linecap="butt"/>
<line x1="891.0" y1="0.0" x2="891.0" y2="1080.0" stroke="#A7A7A7" stroke-width="0.7" opacity="1" stroke-linecap="butt"/>
<line x1="940.5" y1="0.0" x2="940.5" y2="1080.0" stroke="#A7A7A7" stroke-width="0.7" opacity="1" stroke-linecap="butt"/>
<line x1="-0.0" y1="0.0" x2="990.0" y2="0.0" stroke="#A7A7A7" stroke-width="0.7" opacity="1" stroke-linecap="butt"/>
<line x1="-0.0" y1="54.0" x2="990.0" y2="54.0" stroke="#A7A7A7" stroke-width="0.7" opacity="1" stroke-linecap="butt"/>
<line x1="-0.0" y1="108.0" x2="990.0" y2="108.0" stroke="#A7A7A7" stroke-width="0.7" opacity="1" stroke-linecap="butt"/>
<line x1="-0.0" y1="162.0" x2="990.0" y2="162.0" stroke="#A7A7A7" stroke-width="0.7" opacity="1" stroke-linecap="butt"/>
<line x1="-0.0" y1="216.0" x2="990.0" y2="216.0" stroke="#A7A7A7" stroke-width="0.7" opacity="1" stroke-linecap="butt"/>
<line x1="-0.0" y1="270.0" x2="990.0" y2="270.0" stroke="#A7A7A7" stroke-width="0.7" opacity="1" stroke-linecap="butt"/>
<line x1="-0.0" y1="324.0" x2="990.0" y2="324.0" stroke="#A7A7A7" stroke-width="0.7" opacity="1" stroke-linecap="butt"/>
<line x1="-0.0" y1="378.0" x2="990.0" y2="378.0" stroke="#A7A7A7" stroke-width="0.7" opacity="1" stroke-linecap="butt"/>
<line x1="-0.0" y1="432.0" x2="990.0" y2="432.0" stroke="#A7A7A7" stroke-width="0.7" opacity="1" stroke-linecap="butt"/>
<line x1="-0.0" y1="486.0" x2="990.0" y2="486.0" stroke="#A7A7A7" stroke-width="0.7" opacity="1" stroke-linecap="butt"/>
<line x1="-0.0" y1="540.0" x2="990.0" y2="540.0" stroke="#A7A7A7" stroke-width="0.7" opacity="1" stroke-linecap="butt"/>
<line x1="-0.0" y1="594.0" x2="990.0" y2="594.0" stroke="#A7A7A7" stroke-width="0.7" opacity="1" stroke-linecap="butt"/>
<line x1="-0.0" y1="648.0" x2="990.0" y2="648.0" stroke="#A7A7A7" stroke-width="0.7" opacity="1" stroke-linecap="butt"/>
<line x1="-0.0" y1="702.0" x2="990.0" y2="702.0" stroke="#A7A7A7" stroke-width="0.7" opacity="1" stroke-linecap="butt"/>
<line x1="-0.0" y1="756.0" x2="990.0" y2="756.0" stroke="#A7A7A7" stroke-width="0.7" opacity="1" stroke-linecap="butt"/>
<line x1="-0.0" y1="810.0" x2="990.0" y2="810.0" stroke="#A7A7A7" stroke-width="0.7" opacity="1" stroke-linecap="butt"/>
<line x1="-0.0" y1="864.0" x2="990.0" y2="864.0" stroke="#A7A7A7" stroke-width="0.7" opacity="1" stroke-linecap="butt"/>
<line x1="-0.0" y1="918.0" x2="990.0" y2="918.0" stroke="#A7A7A7" stroke-width="0.7" opacity="1" stroke-linecap="butt"/>
<line x1="-0.0" y1="972.0" x2="990.0" y2="972.0" stroke="#A7A7A7" stroke-width="0.7" opacity="1" stroke-linecap="butt"/>
<line x1="-0.0" y1="1026.0" x2="990.0" y2="1026.0" stroke="#A7A7A7" stroke-width="0.7" opacity="1" stroke-linecap="butt"/>
<line x1="0.0" y1="540.0" x2="990.0" y2="540.0" stroke="yellow" stroke-width="1" opacity="1" stroke-linecap="butt"/>
<line x1="0.0" y1="0.0" x2="0.0" y2="1080.0" stroke="yellow" stroke-width="1" opacity="1" stroke-linecap="butt"/>
<polyline points="0.0, 542.23 0.99, 542.41 1.98, 542.59 2.97, 542.77 3.96, 542.95 4.95, 543.13 5.94, 543.31 6.93, 543.49 7.92, 543.67 8.91, 543.85 9.9, 544.03 10.89, 544.21 11.88, 544.39 12.87, 544.57 13.86, 544.75 14.85, 544.93 15.84, 545.11 16.83, 545.29 17.82, 545.47 18.81, 545.65 19.8, 545.83 20.79, 546.01 21.78, 546.19 22.77, 546.37 23.76, 546.55 24.75, 546.73 25.74, 546.91 26.73, 547.09 27.72, 547.27 28.71, 547.45 29.7, 547.63 30.69, 547.81 31.68, 547.99 32.67, 548.17 33.66, 548.35 34.65, 548.53 35.64, 548.71 36.63, 548.89 37.62, 549.07 38.61, 549.25 39.6, 549.43 40.59, 549.61 41.58, 549.79 42.57, 549.97 43.56, 550.15 44.55, 550.33 45.54, 550.51 46.53, 550.69 47.52, 550.87 48.51, 551.05 49.5, 551.23 50.49, 551.41 51.48, 551.59 52.47, 551.77 53.46, 551.95 54.45, 552.13 55.44, 552.31 56.43, 552.49 57.42, 552.67 58.41, 552.85 59.4, 553.02 60.39, 553.2 61.38, 553.38 62.37, 553.56 63.36, 553.74 64.35, 553.92 65.34, 554.1 66.33, 554.28 67.32, 554.46 68.31, 554.64 69.3, 554.82 70.29, 555.0 71.28, 555.18 72.27, 555.36 73.26, 555.54 74.25, 555.72 75.24, 555.9 76.23, 556.08 77.22, 556.26 78.21, 556.44 79.2, 556.62 80.19, 556.8 81.18, 556.98 82.17, 557.16 83.16, 557.34 84.15, 557.52 85.14, 557.7 86.13, 557.88 87.12, 558.06 88.11, 558.24 89.1, 558.42 90.09, 558.6 91.08, 558.77 92.07, 558.95 93.06, 559.13 94.05, 559.31 95.04, 559.49 96.03, 559.67 97.02, 559.85 98.01, 560.03 99.0, 560.21 99.99, 560.39 100.98, 560.57 101.97, 560.75 102.96, 560.93 103.95, 561.11 104.94, 561.29 105.93, 561.47 106.92, 561.65 107.91, 561.83 108.9, 562.01 109.89, 562.18 110.88, 562.36 111.87, 562.54 112.86, 562.72 113.85, 562.9 114.84, 563.08 115.83, 563.26 116.82, 563.44 117.81, 563.62 118.8, 563.8 119.79, 563.98 120.78, 564.16 121.77, 564.34 122.76, 564.52 123.75, 564.7 124.74, 564.87 125.73, 565.05 126.72, 565.23 127.71, 565.41 128.7, 565.59 129.69, 565.77 130.68, 565.95 131.67, 566.13 132.66, 566.31 133.65, 566.49 134.64, 566.67 135.63, 566.85 136.62, 567.02 137.61, 567.2 138.6, 567.38 139.59, 567.56 140.58, 567.74 141.57, 567.92 142.56, 568.1 143.55, 568.28 144.54, 568.46 145.53, 568.64 146.52, 568.82 147.51, 568.99 148.5, 569.17 149.49, 569.35 150.48, 569.53 151.47, 569.71 152.46, 569.89 153.45, 570.07 154.44, 570.25 155.43, 570.43 156.42, 570.6 157.41, 570.78 158.4, 570.96 159.39, 571.14 160.38, 571.32 161.37, 571.5 162.36, 571.68 163.35, 571.86 164.34, 572.03 165.33, 572.21 166.32, 572.39 167.31, 572.57 168.3, 572.75 169.29, 572.93 170.28, 573.11 171.27, 573.29 172.26, 573.46 173.25, 573.64 174.24, 573.82 175.23, 574.0 176.22, 574.18 177.21, 574.36 178.2, 574.54 179.19, 574.71 180.18, 574.89 181.17, 575.07 182.16, 575.25 183.15, 575.43 184.14, 575.61 185.13, 575.78 186.12, 575.96 187.11, 576.14 188.1, 576.32 189.09, 576.5 190.08, 576.68 191.07, 576.85 192.06, 577.03 193.05, 577.21 194.04, 577.39 195.03, 577.57 196.02, 577.75 197.01, 577.92 198.0, 578.1 198.99, 578.28 199.98, 578.46 200.97, 578.64 201.96, 578.82 202.95, 578.99 203.94, 579.17 204.93, 579.35 205.92, 579.53 206.91, 579.71 207.9, 579.88 208.89, 580.06 209.88, 580.24 210.87, 580.42 211.86, 580.6 212.85, 580.77 213.84, 580.95 214.83, 581.13 215.82, 581.31 216.81, 581.49 217.8, 581.66 218.79, 581.84 219.78, 582.02 220.77, 582.2 221.76, 582.37 222.75, 582.55 223.74, 582.73 224.73, 582.91 225.72, 583.09 226.71, 583.26 227.7, 583.44 228.69, 583.62 229.68, 583.8 230.67, 583.97 231.66, 584.15 232.65, 584.33 233.64, 584.51 234.63, 584.68 235.62, 584.86 236.61, 585.04 237.6, 585.22 238.59, 585.39 239.58, 585.57 240.57, 585.75 241.56, 585.93 242.55, 586.1 243.54, 586.28 244.53, 586.46 245.52, 586.63 246.51, 586.81 247.5, 586.99 248.49, 587.17 249.48, 587.34 250.47, 587.52 251.46, 587.7 252.45, 587.88 253.44, 588.05 254.43, 588.23 255.42, 588.41 256.41, 588.58 257.4, 588.76 258.39, 588.94 259.38, 589.12 260.37, 589.29 261.36, 589.47 262.35, 589.65 263.34, 589.82 264.33, 590.0 265.32, 590.18 266.31, 590.35 267.3, 590.53 268.29, 590.71 269.28, 590.88 270.27, 591.06 271.26, 591.24 272.25, 591.41 273.24, 591.59 274.23, 591.77 275.22, 591.94 276.21, 592.12 277.2, 592.3 278.19, 592.47 279.18, 592.65 280.17, 592.83 281.16, 593.0 282.15, 593.18 283.14, 593.36 284.13, 593.53 285.12, 593.71 286.11, 593.89 287.1, 594.06 288.09, 594.24 289.08, 594.41 290.07, 594.59 291.06, 594.77 292.05, 594.94 293.04, 595.12 294.03, 595.3 295.02, 595.47 296.01, 595.65 297.0, 595.82 297.99, 596.0 298.98, 596.18 299.97, 596.35 300.96, 596.53 301.95, 596.7 302.94, 596.88 303.93, 597.06 304.92, 597.23 305.91, 597.41 306.9, 597.58 307.89, 597.76 308.88, 597.94 309.87, 598.11 310.86, 598.29 311.85, 598.46 312.84, 598.64 313.83, 598.81 314.82, 598.99 315.81, 599.17 316.8, 599.34 317.79, 599.52 318.78, 599.69 319.77, 599.87 320.76, 600.04 321.75, 600.22 322.74, 600.39 323.73, 600.57 324.72, 600.75 325.71, 600.92 326.7, 601.1 327.69, 601.27 328.68, 601.45 329.67, 601.62 330.66, 601.8 331.65, 601.97 332.64, 602.15 333.63, 602.32 334.62, 602.5 335.61, 602.67 336.6, 602.85 337.59, 603.02 338.58, 603.2 339.57, 603.37 340.56, 603.55 341.55, 603.72 342.54, 603.9 343.53, 604.07 344.52, 604.25 345.51, 604.42 346.5, 604.6 347.49, 604.77 348.48, 604.95 349.47, 605.12 350.46, 605.3 351.45, 605.47 352.44, 605.65 353.43, 605.82 354.42, 605.99 355.41, 606.17 356.4, 606.34 357.39, 606.52 358.38, 606.69 359.37, 606.87 360.36, 607.04 361.35, 607.22 362.34, 607.39 363.33, 607.56 364.32, 607.74 365.31, 607.91 366.3, 608.09 367.29, 608.26 368.28, 608.44 369.27, 608.61 370.26, 608.78 371.25, 608.96 372.24, 609.13 373.23, 609.31 374.22, 609.48 375.21, 609.65 376.2, 609.83 377.19, 610.0 378.18, 610.17 379.17, 610.35 380.16, 610.52 381.15, 610.7 382.14, 610.87 383.13, 611.04 384.12, 611.22 385.11, 611.39 386.1, 611.56 387.09, 611.74 388.08, 611.91 389.07, 612.08 390.06, 612.26 391.05, 612.43 392.04, 612.61 393.03, 612.78 394.02, 612.95 395.01, 613.13 396.0, 613.3 396.99, 613.47 397.98, 613.64 398.97, 613.82 399.96, 613.99 400.95, 614.16 401.94, 614.34 402.93, 614.51 403.92, 614.68 404.91, 614.86 405.9, 615.03 406.89, 615.2 407.88, 615.37 408.87, 615.55 409.86, 615.72 410.85, 615.89 411.84, 616.07 412.83, 616.24 413.82, 616.41 414.81, 616.58 415.8, 616.76 416.79, 616.93 417.78, 617.1 418.77, 617.27 419.76, 617.45 420.75, 617.62 421.74, 617.79 422.73, 617.96 423.72, 618.14 424.71, 618.31 425.7, 618.48 426.69, 618.65 427.68, 618.83 428.67, 619.0 429.66, 619.17 430.65, 619.34 431.64, 619.51 432.63, 619.69 433.62, 619.86 434.61, 620.03 435.6, 620.2 436.59, 620.37 437.58, 620.54 438.57, 620.72 439.56, 620.89 440.55, 621.06 441.54, 621.23 442.53, 621.4 443.52, 621.58 444.51, 621.75 445.5, 621.92 446.49, 622.09 447.48, 622.26 448.47, 622.43 449.46, 622.6 450.45, 622.78 451.44, 622.95 452.43, 623.12 453.42, 623.29 454.41, 623.46 455.4, 623.63 456.39, 623.8 457.38, 623.97 458.37, 624.14 459.36, 624.32 460.35, 624.49 461.34, 624.66 462.33, 624.83 463.32, 625.0 464.31, 625.17 465.3, 625.34 466.29, 625.51 467.28, 625.68 468.27, 625.85 469.26, 626.02 470.25, 626.19 471.24, 626.36 472.23, 626.54 473.22, 626.71 474.21, 626.88 475.2, 627.05 476.19, 627.22 477.18, 627.39 478.17, 627.56 479.16, 627.73 480.15, 627.9 481.14, 628.07 482.13, 628.24 483.12, 628.41 484.11, 628.58 485.1, 628.75 486.09, 628.92 487.08, 629.09 488.07, 629.26 489.06, 629.43 490.05, 629.6 491.04, 629.77 492.03, 629.94 493.02, 630.11 494.01, 630.28 495.0, 630.45 495.99, 630.62 496.98, 630.79 497.97, 630.96 498.96, 631.12 499.95, 631.29 500.94, 631.46 501.93, 631.63 502.92, 631.8 503.91, 631.97 504.9, 632.14 505.89, 632.31 506.88, 632.48 507.87, 632.65 508.86, 632.82 509.85, 632.99 510.84, 633.16 511.83, 633.32 512.82, 633.49 513.81, 633.66 514.8, 633.83 515.79, 634.0 516.78, 634.17 517.77, 634.34 518.76, 634.51 519.75, 634.67 520.74, 634.84 521.73, 635.01 522.72, 635.18 523.71, 635.35 524.7, 635.52 525.69, 635.68 526.68, 635.85 527.67, 636.02 528.66, 636.19 529.65, 636.36 530.64, 636.53 531.63, 636.69 532.62, 636.86 533.61, 637.03 534.6, 637.2 535.59, 637.37 536.58, 637.53 537.57, 637.7 538.56, 637.87 539.55, 638.04 540.54, 638.2 541.53, 638.37 542.52, 638.54 543.51, 638.71 544.5, 638.87 545.49, 639.04 546.48, 639.21 547.47, 639.38 548.46, 639.54 549.45, 639.71 550.44, 639.88 551.43, 640.05 552.42, 640.21 553.41, 640.38 554.4, 640.55 555.39, 640.71 556.38, 640.88 557.37, 641.05 558.36, 641.22 559.35, 641.38 560.34, 641.55 561.33, 641.72 562.32, 641.88 563.31, 642.05 564.3, 642.22 565.29, 642.38 566.28, 642.55 567.27, 642.72 568.26, 642.88 569.25, 643.05 570.24, 643.21 571.23, 643.38 572.22, 643.55 573.21, 643.71 574.2, 643.88 575.19, 644.05 576.18, 644.21 577.17, 644.38 578.16, 644.54 579.15, 644.71 580.14, 644.88 581.13, 645.04 582.12, 645.21 583.11, 645.37 584.1, 645.54 585.09, 645.7 586.08, 645.87 587.07, 646.04 588.06, 646.2 589.05, 646.37 590.04, 646.53 591.03, 646.7 592.02, 646.86 593.01, 647.03 594.0, 647.19 594.99, 647.36 595.98, 647.52 596.97, 647.69 597.96, 647.85 598.95, 648.02 599.94, 648.18 600.93, 648.35 601.92, 648.51 602.91, 648.68 603.9, 648.84 604.89, 649.01 605.88, 649.17 606.87, 649.34 607.86, 649.5 608.85, 649.67 609.84, 649.83 610.83, 649.99 611.82, 650.16 612.81, 650.32 613.8, 650.49 614.79, 650.65 615.78, 650.82 616.77, 650.98 617.76, 651.14 618.75, 651.31 619.74, 651.47 620.73, 651.64 621.72, 651.8 622.71, 651.96 623.7, 652.13 624.69, 652.29 625.68, 652.46 626.67, 652.62 627.66, 652.78 628.65, 652.95 629.64, 653.11 630.63, 653.27 631.62, 653.44 632.61, 653.6 633.6, 653.76 634.59, 653.93 635.58, 654.09 636.57, 654.25 637.56, 654.42 638.55, 654.58 639.54, 654.74 640.53, 654.9 641.52, 655.07 642.51, 655.23 643.5, 655.39 644.49, 655.56 645.48, 655.72 646.47, 655.88 647.46, 656.04 648.45, 656.21 649.44, 656.37 650.43, 656.53 651.42, 656.69 652.41, 656.86 653.4, 657.02 654.39, 657.18 655.38, 657.34 656.37, 657.5 657.36, 657.67 658.35, 657.83 659.34, 657.99 660.33, 658.15 661.32, 658.31 662.31, 658.48 663.3, 658.64 664.29, 658.8 665.28, 658.96 666.27, 659.12 667.26, 659.28 668.25, 659.44 669.24, 659.61 670.23, 659.77 671.22, 659.93 672.21, 660.09 673.2, 660.25 674.19, 660.41 675.18, 660.57 676.17, 660.73 677.16, 660.9 678.15, 661.06 679.14, 661.22 680.13, 661.38 681.12, 661.54 682.11, 661.7 683.1, 661.86 684.09, 662.02 685.08, 662.18 686.07, 662.34 687.06, 662.5 688.05, 662.66 689.04, 662.82 690.03, 662.98 691.02, 663.14 692.01, 663.3 693.0, 663.46 693.99, 663.62 694.98, 663.78 695.97, 663.94 696.96, 664.1 697.95, 664.26 698.94, 664.42 699.93, 664.58 700.92, 664.74 701.91, 664.9 702.9, 665.06 703.89, 665.22 704.88, 665.38 705.87, 665.54 706.86, 665.7 707.85, 665.86 708.84, 666.02 709.83, 666.18 710.82, 666.34 711.81, 666.5 712.8, 666.65 713.79, 666.81 714.78, 666.97 715.77, 667.13 716.76, 667.29 717.75, 667.45 718.74, 667.61 719.73, 667.77 720.72, 667.92 721.71, 668.08 722.7, 668.24 723.69, 668.4 724.68, 668.56 725.67, 668.72 726.66, 668.87 727.65, 669.03 728.64, 669.19 729.63, 669.35 730.62, 669.51 731.61, 669.66 732.6, 669.82 733.59, 669.98 734.58, 670.14 735.57, 670.3 736.56, 670.45 737.55, 670.61 738.54, 670.77 739.53, 670.93 740.52, 671.08 741.51, 671.24 742.5, 671.4 743.49, 671.55 744.48, 671.71 745.47, 671.87 746.46, 672.03 747.45, 672.18 748.44, 672.34 749.43, 672.5 750.42, 672.65 751.41, 672.81 752.4, 672.97 753.39, 673.12 754.38, 673.28 755.37, 673.44 756.36, 673.59 757.35, 673.75 758.34, 673.91 759.33, 674.06 760.32, 674.22 761.31, 674.37 762.3, 674.53 763.29, 674.69 764.28, 674.84 765.27, 675.0 766.26, 675.15 767.25, 675.31 768.24, 675.47 769.23, 675.62 770.22, 675.78 771.21, 675.93 772.2, 676.09 773.19, 676.24 774.18, 676.4 775.17, 676.55 776.16, 676.71 777.15, 676.86 778.14, 677.02 779.13, 677.18 780.12, 677.33 781.11, 677.49 782.1, 677.64 783.09, 677.79 784.08, 677.95 785.07, 678.1 786.06, 678.26 787.05, 678.41 788.04, 678.57 789.03, 678.72 790.02, 678.88 791.01, 679.03 792.0, 679.19 792.99, 679.34 793.98, 679.49 794.97, 679.65 795.96, 679.8 796.95, 679.96 797.94, 680.11 798.93, 680.26 799.92, 680.42 800.91, 680.57 801.9, 680.72 802.89, 680.88 803.88, 681.03 804.87, 681.19 805.86, 681.34 806.85, 681.49 807.84, 681.65 808.83, 681.8 809.82, 681.95 810.81, 682.1 811.8, 682.26 812.79, 682.41 813.78, 682.56 814.77, 682.72 815.76, 682.87 816.75, 683.02 817.74, 683.17 818.73, 683.33 819.72, 683.48 820.71, 683.63 821.7, 683.78 822.69, 683.94 823.68, 684.09 824.67, 684.24 825.66, 684.39 826.65, 684.55 827.64, 684.7 828.63, 684.85 829.62, 685.0 830.61, 685.15 831.6, 685.3 832.59, 685.46 833.58, 685.61 834.57, 685.76 835.56, 685.91 836.55, 686.06 837.54, 686.21 838.53, 686.37 839.52, 686.52 840.51, 686.67 841.5, 686.82 842.49, 686.97 843.48, 687.12 844.47, 687.27 845.46, 687.42 846.45, 687.57 847.44, 687.72 848.43, 687.87 849.42, 688.03 850.41, 688.18 851.4, 688.33 852.39, 688.48 853.38, 688.63 854.37, 688.78 855.36, 688.93 856.35, 689.08 857.34, 689.23 858.33, 689.38 859.32, 689.53 860.31, 689.68 861.3, 689.83 862.29, 689.98 863.28, 690.13 864.27, 690.28 865.26, 690.43 866.25, 690.57 867.24, 690.72 868.23, 690.87 869.22, 691.02 870.21, 691.17 871.2, 691.32 872.19, 691.47 873.18, 691.62 874.17, 691.77 875.16, 691.92 876.15, 692.07 877.14, 692.21 878.13, 692.36 879.12, 692.51 880.11, 692.66 881.1, 692.81 882.09, 692.96 883.08, 693.1 884.07, 693.25 885.06, 693.4 886.05, 693.55 887.04, 693.7 888.03, 693.85 889.02, 693.99 890.01, 694.14 891.0, 694.29 891.99, 694.44 892.98, 694.58 893.97, 694.73 894.96, 694.88 895.95, 695.03 896.94, 695.17 897.93, 695.32 898.92, 695.47 899.91, 695.62 900.9, 695.76 901.89, 695.91 902.88, 696.06 903.87, 696.2 904.86, 696.35 905.85, 696.5 906.84, 696.64 907.83, 696.79 908.82, 696.94 909.81, 697.08 910.8, 697.23 911.79, 697.38 912.78, 697.52 913.77, 697.67 914.76, 697.81 915.75, 697.96 916.74, 698.11 917.73, 698.25 918.72, 698.4 919.71, 698.54 920.7, 698.69 921.69, 698.83 922.68, 698.98 923.67, 699.13 924.66, 699.27 925.65, 699.42 926.64, 699.56 927.63, 699.71 928.62, 699.85 929.61, 700.0 930.6, 700.14 931.59, 700.29 932.58, 700.43 933.57, 700.58 934.56, 700.72 935.55, 700.87 936.54, 701.01 937.53, 701.15 938.52, 701.3 939.51, 701.44 940.5, 701.59 941.49, 701.73 942.48, 701.88 943.47, 702.02 944.46, 702.16 945.45, 702.31 946.44, 702.45 947.43, 702.6 948.42, 702.74 949.41, 702.88 950.4, 703.03 951.39, 703.17 952.38, 703.31 953.37, 703.46 954.36, 703.6 955.35, 703.74 956.34, 703.89 957.33, 704.03 958.32, 704.17 959.31, 704.31 960.3, 704.46 961.29, 704.6 962.28, 704.74 963.27, 704.89 964.26, 705.03 965.25, 705.17 966.24, 705.31 967.23, 705.45 968.22, 705.6 969.21, 705.74 970.2, 705.88 971.19, 706.02 972.18, 706.16 973.17, 706.31 974.16, 706.45 975.15, 706.59 976.14, 706.73 977.13, 706.87 978.12, 707.01 979.11, 707.16 980.1, 707.3 981.09, 707.44 982.08, 707.58 983.07, 707.72 984.06, 707.86 985.05, 708.0 986.04, 708.14 987.03, 708.28 988.02, 708.43 989.01, 708.57 990.0, 708.71 " fill="none" stroke="yellow" stroke-width="1.5" stroke-linejoin="round" stroke-opacity="1"/>

 </svg> 
 </g> 

 </svg>